<?xml version="1.0" encoding="UTF-8"?>
<svg width="869" height="473" xmlns="http://www.w3.org/2000/svg" xmlns:svg="http://www.w3.org/2000/svg" xmlns:xlink="http://www.w3.org/1999/xlink" class="main-svg">
 <defs>
  <g class="clips" id="svg_104">
   <clipPath class="axesclip" id="clip223298x">
    <rect x="80" y="0" width="632" height="473" id="svg_105"/>
   </clipPath>
   <clipPath class="axesclip" id="clip223298y">
    <rect x="0" y="100" width="869" height="293" id="svg_106"/>
   </clipPath>
   <clipPath class="axesclip" id="clip223298xy">
    <rect x="80" y="100" width="632" height="293" id="svg_107"/>
   </clipPath>
  </g>
 </defs>
 <g>
  <title>Layer 1</title>
  <rect x="0" y="0" width="869" height="473" fill="rgb(255, 255, 255)" id="svg_108"/>
  <g class="draglayer" id="svg_109">
   <g id="svg_110"/>
  </g>
  <g class="subplot xy" id="svg_111">
   <rect x="80" y="100" width="632" height="293" fill="rgb(255, 255, 255)" stroke-width="0px" id="svg_112"/>
   <g id="svg_113">
    <path class="xgrid crisp" d="m119.199997,100l0,293" stroke-width="1px" stroke="rgb(238, 238, 238)" id="svg_114"/>
    <path class="xgrid crisp" d="m277.369995,100l0,293" stroke-width="1px" stroke="rgb(238, 238, 238)" id="svg_115"/>
    <path class="xgrid crisp" d="m356.459991,100l0,293" stroke-width="1px" stroke="rgb(238, 238, 238)" id="svg_116"/>
    <path class="xgrid crisp" d="m435.540009,100l0,293" stroke-width="1px" stroke="rgb(238, 238, 238)" id="svg_117"/>
    <path class="xgrid crisp" d="m514.630005,100l0,293" stroke-width="1px" stroke="rgb(238, 238, 238)" id="svg_118"/>
    <path class="xgrid crisp" d="m593.710022,100l0,293" stroke-width="1px" stroke="rgb(238, 238, 238)" id="svg_119"/>
    <path class="xgrid crisp" d="m672.799988,100l0,293" stroke-width="1px" stroke="rgb(238, 238, 238)" id="svg_120"/>
    <path class="ygrid crisp" d="m80,383.75l632,0" stroke-width="1px" stroke="rgb(238, 238, 238)" id="svg_121"/>
    <path class="ygrid crisp" d="m80,292.25l632,0" stroke-width="1px" stroke="rgb(238, 238, 238)" id="svg_122"/>
    <path class="ygrid crisp" d="m80,246.5l632,0" stroke-width="1px" stroke="rgb(238, 238, 238)" id="svg_123"/>
    <path class="ygrid crisp" d="m80,200.75l632,0" stroke-width="1px" stroke="rgb(238, 238, 238)" id="svg_124"/>
    <path class="ygrid crisp" d="m80,155l632,0" stroke-width="1px" stroke="rgb(238, 238, 238)" id="svg_125"/>
    <path class="ygrid crisp" d="m80,109.25l632,0" stroke-width="1px" stroke="rgb(238, 238, 238)" id="svg_126"/>
   </g>
   <g id="svg_127"/>
   <g id="svg_128">
    <path class="xzl zl crisp" d="m198.290009,100l0,293" stroke-width="1px" stroke="rgb(68, 68, 68)" id="svg_129"/>
    <path class="yzl zl crisp" d="m80,338l632,0" stroke-width="1px" stroke="rgb(68, 68, 68)" id="svg_130"/>
   </g>
   <g id="svg_131"/>
   <g id="svg_1">
    <svg preserveAspectRatio="none" x="80" y="100" width="632" height="293" viewBox="0 0 632 293" id="svg_36">
     <g class="maplayer" id="svg_391"/>
     <g class="barlayer" id="svg_390"/>
     <g class="errorlayer" id="svg_384">
      <g class="errorbars" id="svg_389"/>
      <g class="errorbars" id="svg_388"/>
      <g class="errorbars" id="svg_387"/>
      <g class="errorbars" id="svg_386"/>
      <g class="errorbars" id="svg_385"/>
     </g>
     <g class="boxlayer" id="svg_383"/>
     <g class="scatterlayer" id="svg_37">
      <g class="trace scatter" stroke-miterlimit="2" id="svg_365">
       <path class="js-line" d="m39.200001,183.100006l553.599987,64.049988" stroke-width="2px" stroke="rgb(31, 119, 180)" fill="none" id="svg_382"/>
       <g class="points" id="svg_366">
        <path class="point" d="m42.200001,183.100006a3,3 0 1 1 -3,-3a3,3 0 0 1 3,3z" fill="rgb(31, 119, 180)" stroke-width="0px" id="svg_381"/>
        <path class="point" d="m81.739998,187.679993a3,3 0 1 1 -3,-3a3,3 0 0 1 3,3z" fill="rgb(31, 119, 180)" stroke-width="0px" id="svg_380"/>
        <path class="point" d="m121.290001,192.25a3,3 0 1 1 -3,-3a3,3 0 0 1 3,3z" fill="rgb(31, 119, 180)" stroke-width="0px" id="svg_379"/>
        <path class="point" d="m160.830002,196.830002a3,3 0 1 1 -3,-3a3,3 0 0 1 3,3z" fill="rgb(31, 119, 180)" stroke-width="0px" id="svg_378"/>
        <path class="point" d="m200.369995,201.399994a3,3 0 1 1 -3,-3a3,3 0 0 1 3,3z" fill="rgb(31, 119, 180)" stroke-width="0px" id="svg_377"/>
        <path class="point" d="m239.910004,205.979996a3,3 0 1 1 -3,-3a3,3 0 0 1 3,3z" fill="rgb(31, 119, 180)" stroke-width="0px" id="svg_376"/>
        <path class="point" d="m279.459991,210.550003a3,3 0 1 1 -3,-3a3,3 0 0 1 3,3z" fill="rgb(31, 119, 180)" stroke-width="0px" id="svg_375"/>
        <path class="point" d="m319,215.130005a3,3 0 1 1 -3,-3a3,3 0 0 1 3,3z" fill="rgb(31, 119, 180)" stroke-width="0px" id="svg_374"/>
        <path class="point" d="m358.540009,219.699997a3,3 0 1 1 -3,-3a3,3 0 0 1 3,3z" fill="rgb(31, 119, 180)" stroke-width="0px" id="svg_373"/>
        <path class="point" d="m398.089996,224.279999a3,3 0 1 1 -3,-3a3,3 0 0 1 3,3z" fill="rgb(31, 119, 180)" stroke-width="0px" id="svg_372"/>
        <path class="point" d="m437.630005,228.850006a3,3 0 1 1 -3,-3a3,3 0 0 1 3,3z" fill="rgb(31, 119, 180)" stroke-width="0px" id="svg_371"/>
        <path class="point" d="m477.170013,233.429993a3,3 0 1 1 -3,-3a3,3 0 0 1 3,3z" fill="rgb(31, 119, 180)" stroke-width="0px" id="svg_370"/>
        <path class="point" d="m516.710022,238a3,3 0 1 1 -3,-3a3,3 0 0 1 3,3z" fill="rgb(31, 119, 180)" stroke-width="0px" id="svg_369"/>
        <path class="point" d="m556.26001,242.580002a3,3 0 1 1 -3,-3a3,3 0 0 1 3,3z" fill="rgb(31, 119, 180)" stroke-width="0px" id="svg_368"/>
        <path class="point" d="m595.799988,247.149994a3,3 0 1 1 -3,-3a3,3 0 0 1 3,3z" fill="rgb(31, 119, 180)" stroke-width="0px" id="svg_367"/>
       </g>
      </g>
      <g class="trace scatter" stroke-miterlimit="2" id="svg_347">
       <path class="js-line" d="m39.200001,274.600006l553.599987,-256.200012" stroke-width="2px" stroke="rgb(255, 127, 14)" fill="none" id="svg_364"/>
       <g class="points" id="svg_348">
        <path class="point" d="m42.200001,274.600006a3,3 0 1 1 -3,-3a3,3 0 0 1 3,3z" fill="rgb(255, 127, 14)" stroke-width="0px" id="svg_363"/>
        <path class="point" d="m81.739998,256.299988a3,3 0 1 1 -3,-3a3,3 0 0 1 3,3z" fill="rgb(255, 127, 14)" stroke-width="0px" id="svg_362"/>
        <path class="point" d="m121.290001,238a3,3 0 1 1 -3,-3a3,3 0 0 1 3,3z" fill="rgb(255, 127, 14)" stroke-width="0px" id="svg_361"/>
        <path class="point" d="m160.830002,219.699997a3,3 0 1 1 -3,-3a3,3 0 0 1 3,3z" fill="rgb(255, 127, 14)" stroke-width="0px" id="svg_360"/>
        <path class="point" d="m200.369995,201.399994a3,3 0 1 1 -3,-3a3,3 0 0 1 3,3z" fill="rgb(255, 127, 14)" stroke-width="0px" id="svg_359"/>
        <path class="point" d="m239.910004,183.100006a3,3 0 1 1 -3,-3a3,3 0 0 1 3,3z" fill="rgb(255, 127, 14)" stroke-width="0px" id="svg_358"/>
        <path class="point" d="m279.459991,164.800003a3,3 0 1 1 -3,-3a3,3 0 0 1 3,3z" fill="rgb(255, 127, 14)" stroke-width="0px" id="svg_357"/>
        <path class="point" d="m319,146.5a3,3 0 1 1 -3,-3a3,3 0 0 1 3,3z" fill="rgb(255, 127, 14)" stroke-width="0px" id="svg_356"/>
        <path class="point" d="m358.540009,128.199997a3,3 0 1 1 -3,-3a3,3 0 0 1 3,3z" fill="rgb(255, 127, 14)" stroke-width="0px" id="svg_355"/>
        <path class="point" d="m398.089996,109.900002a3,3 0 1 1 -3,-3a3,3 0 0 1 3,3z" fill="rgb(255, 127, 14)" stroke-width="0px" id="svg_354"/>
        <path class="point" d="m437.630005,91.599998a3,3 0 1 1 -3,-3a3,3 0 0 1 3,3z" fill="rgb(255, 127, 14)" stroke-width="0px" id="svg_353"/>
        <path class="point" d="m477.170013,73.300003a3,3 0 1 1 -3,-3a3,3 0 0 1 3,3z" fill="rgb(255, 127, 14)" stroke-width="0px" id="svg_352"/>
        <path class="point" d="m516.710022,55a3,3 0 1 1 -3,-3a3,3 0 0 1 3,3z" fill="rgb(255, 127, 14)" stroke-width="0px" id="svg_351"/>
        <path class="point" d="m556.26001,36.700001a3,3 0 1 1 -3,-3a3,3 0 0 1 3,3z" fill="rgb(255, 127, 14)" stroke-width="0px" id="svg_350"/>
        <path class="point" d="m595.799988,18.4a3,3 0 1 1 -3,-3a3,3 0 0 1 3,3z" fill="rgb(255, 127, 14)" stroke-width="0px" id="svg_349"/>
       </g>
      </g>
      <g class="trace scatter" stroke-miterlimit="2" id="svg_213">
       <path class="js-line" d="m39.200001,18.4l553.599987,256.200006" stroke-width="2px" stroke="rgb(44, 160, 44)" fill="none" id="svg_346"/>
       <g class="points" id="svg_214">
        <path class="point" d="m42.200001,18.4a3,3 0 1 1 -3,-3a3,3 0 0 1 3,3z" fill="rgb(44, 160, 44)" stroke-width="0px" id="svg_345"/>
        <path class="point" d="m81.739998,36.700001a3,3 0 1 1 -3,-3a3,3 0 0 1 3,3z" fill="rgb(44, 160, 44)" stroke-width="0px" id="svg_344"/>
        <path class="point" d="m121.290001,55a3,3 0 1 1 -3,-3a3,3 0 0 1 3,3z" fill="rgb(44, 160, 44)" stroke-width="0px" id="svg_343"/>
        <path class="point" d="m160.830002,73.300003a3,3 0 1 1 -3,-3a3,3 0 0 1 3,3z" fill="rgb(44, 160, 44)" stroke-width="0px" id="svg_342"/>
        <path class="point" d="m200.369995,91.599998a3,3 0 1 1 -3,-3a3,3 0 0 1 3,3z" fill="rgb(44, 160, 44)" stroke-width="0px" id="svg_341"/>
        <path class="point" d="m239.910004,109.900002a3,3 0 1 1 -3,-3a3,3 0 0 1 3,3z" fill="rgb(44, 160, 44)" stroke-width="0px" id="svg_340"/>
        <path class="point" d="m279.459991,128.199997a3,3 0 1 1 -3,-3a3,3 0 0 1 3,3z" fill="rgb(44, 160, 44)" stroke-width="0px" id="svg_339"/>
        <path class="point" d="m319,146.5a3,3 0 1 1 -3,-3a3,3 0 0 1 3,3z" fill="rgb(44, 160, 44)" stroke-width="0px" id="svg_338"/>
        <path class="point" d="m358.540009,164.800003a3,3 0 1 1 -3,-3a3,3 0 0 1 3,3z" fill="rgb(44, 160, 44)" stroke-width="0px" id="svg_221"/>
        <path class="point" d="m398.089996,183.100006a3,3 0 1 1 -3,-3a3,3 0 0 1 3,3z" fill="rgb(44, 160, 44)" stroke-width="0px" id="svg_220"/>
        <path class="point" d="m437.630005,201.399994a3,3 0 1 1 -3,-3a3,3 0 0 1 3,3z" fill="rgb(44, 160, 44)" stroke-width="0px" id="svg_219"/>
        <path class="point" d="m477.170013,219.699997a3,3 0 1 1 -3,-3a3,3 0 0 1 3,3z" fill="rgb(44, 160, 44)" stroke-width="0px" id="svg_218"/>
        <path class="point" d="m516.710022,238a3,3 0 1 1 -3,-3a3,3 0 0 1 3,3z" fill="rgb(44, 160, 44)" stroke-width="0px" id="svg_217"/>
        <path class="point" d="m556.26001,256.299988a3,3 0 1 1 -3,-3a3,3 0 0 1 3,3z" fill="rgb(44, 160, 44)" stroke-width="0px" id="svg_216"/>
        <path class="point" d="m595.799988,274.600006a3,3 0 1 1 -3,-3a3,3 0 0 1 3,3z" fill="rgb(44, 160, 44)" stroke-width="0px" id="svg_215"/>
       </g>
      </g>
      <g class="trace scatter" stroke-miterlimit="2" id="svg_50">
       <path class="js-fill" d="m197.369995,201.399994l118.630005,-54.899994l39.540009,18.300003l158.170013,73.199997l0,0l-316.340027,-36.600006z" fill-opacity="0.5" fill="rgb(0, 0, 0)" stroke-width="0px" id="svg_212"/>
       <path class="js-line" d="m197.369995,201.399994l316.340027,36.600006" stroke-width="2px" stroke-opacity="0" stroke="rgb(0, 0, 0)" fill="none" id="svg_211"/>
       <g class="points" id="svg_51">
        <path class="point" d="m200.369995,201.399994a3,3 0 1 1 -3,-3a3,3 0 0 1 3,3z" fill-opacity="0" fill="rgb(0, 0, 0)" stroke-width="0px" id="svg_210"/>
        <path class="point" d="m239.910004,205.979996a3,3 0 1 1 -3,-3a3,3 0 0 1 3,3z" fill-opacity="0" fill="rgb(0, 0, 0)" stroke-width="0px" id="svg_209"/>
        <path class="point" d="m279.459991,210.550003a3,3 0 1 1 -3,-3a3,3 0 0 1 3,3z" fill-opacity="0" fill="rgb(0, 0, 0)" stroke-width="0px" id="svg_208"/>
        <path class="point" d="m319,215.130005a3,3 0 1 1 -3,-3a3,3 0 0 1 3,3z" fill-opacity="0" fill="rgb(0, 0, 0)" stroke-width="0px" id="svg_207"/>
        <path class="point" d="m358.540009,219.699997a3,3 0 1 1 -3,-3a3,3 0 0 1 3,3z" fill-opacity="0" fill="rgb(0, 0, 0)" stroke-width="0px" id="svg_206"/>
        <path class="point" d="m398.089996,224.279999a3,3 0 1 1 -3,-3a3,3 0 0 1 3,3z" fill-opacity="0" fill="rgb(0, 0, 0)" stroke-width="0px" id="svg_200"/>
        <path class="point" d="m437.630005,228.850006a3,3 0 1 1 -3,-3a3,3 0 0 1 3,3z" fill-opacity="0" fill="rgb(0, 0, 0)" stroke-width="0px" id="svg_197"/>
        <path class="point" d="m477.170013,233.429993a3,3 0 1 1 -3,-3a3,3 0 0 1 3,3z" fill-opacity="0" fill="rgb(0, 0, 0)" stroke-width="0px" id="svg_142"/>
        <path class="point" d="m516.710022,238a3,3 0 1 1 -3,-3a3,3 0 0 1 3,3z" fill-opacity="0" fill="rgb(0, 0, 0)" stroke-width="0px" id="svg_132"/>
       </g>
      </g>
      <g class="trace scatter" stroke-miterlimit="2" id="svg_38">
       <path class="js-line" d="m197.369995,201.399994l118.630005,-54.899994l39.540009,18.300003l158.170013,73.199997" stroke-width="2px" stroke-opacity="0" stroke="rgb(0, 0, 0)" fill="none" id="svg_49"/>
       <g class="points" id="svg_39">
        <path class="point" d="m200.369995,201.399994a3,3 0 1 1 -3,-3a3,3 0 0 1 3,3z" fill-opacity="0" fill="rgb(0, 0, 0)" stroke-width="0px" id="svg_48"/>
        <path class="point" d="m239.910004,183.100006a3,3 0 1 1 -3,-3a3,3 0 0 1 3,3z" fill-opacity="0" fill="rgb(0, 0, 0)" stroke-width="0px" id="svg_47"/>
        <path class="point" d="m279.459991,164.800003a3,3 0 1 1 -3,-3a3,3 0 0 1 3,3z" fill-opacity="0" fill="rgb(0, 0, 0)" stroke-width="0px" id="svg_46"/>
        <path class="point" d="m319,146.5a3,3 0 1 1 -3,-3a3,3 0 0 1 3,3z" fill-opacity="0" fill="rgb(0, 0, 0)" stroke-width="0px" id="svg_45"/>
        <path class="point" d="m358.540009,164.800003a3,3 0 1 1 -3,-3a3,3 0 0 1 3,3z" fill-opacity="0" fill="rgb(0, 0, 0)" stroke-width="0px" id="svg_44"/>
        <path class="point" d="m398.089996,183.100006a3,3 0 1 1 -3,-3a3,3 0 0 1 3,3z" fill-opacity="0" fill="rgb(0, 0, 0)" stroke-width="0px" id="svg_43"/>
        <path class="point" d="m437.630005,201.399994a3,3 0 1 1 -3,-3a3,3 0 0 1 3,3z" fill-opacity="0" fill="rgb(0, 0, 0)" stroke-width="0px" id="svg_42"/>
        <path class="point" d="m477.170013,219.699997a3,3 0 1 1 -3,-3a3,3 0 0 1 3,3z" fill-opacity="0" fill="rgb(0, 0, 0)" stroke-width="0px" id="svg_41"/>
        <path class="point" d="m516.710022,238a3,3 0 1 1 -3,-3a3,3 0 0 1 3,3z" fill-opacity="0" fill="rgb(0, 0, 0)" stroke-width="0px" id="svg_40"/>
       </g>
      </g>
     </g>
    </svg>
   </g>
   <g id="svg_222"/>
   <path class="crisp" d="m79,393.5l634,0" stroke-opacity="0" stroke="rgb(0, 0, 0)" stroke-width="1px" fill="none" id="svg_223"/>
   <path class="crisp" d="m79.5,99l0,294" stroke-width="1px" stroke-opacity="0" stroke="rgb(0, 0, 0)" fill="none" id="svg_224"/>
   <g id="svg_225"/>
   <g id="svg_226">
    <g class="xtick" id="svg_227">
     <text text-anchor="middle" x="119.200001" y="407" fill="rgb(68, 68, 68)" font-size="12px" font-family="'Open sans', verdana, arial, sans-serif" id="svg_228">−20</text>
    </g>
    <g class="xtick" id="svg_229">
     <text text-anchor="middle" x="198.290001" y="407" fill="rgb(68, 68, 68)" font-size="12px" font-family="'Open sans', verdana, arial, sans-serif" id="svg_230">0</text>
    </g>
    <g class="xtick" id="svg_231">
     <text text-anchor="middle" x="277.369995" y="407" fill="rgb(68, 68, 68)" font-size="12px" font-family="'Open sans', verdana, arial, sans-serif" id="svg_232">20</text>
    </g>
    <g class="xtick" id="svg_233">
     <text text-anchor="middle" x="356.459991" y="407" fill="rgb(68, 68, 68)" font-size="12px" font-family="'Open sans', verdana, arial, sans-serif" id="svg_234">40</text>
    </g>
    <g class="xtick" id="svg_235">
     <text text-anchor="middle" x="435.540009" y="407" fill="rgb(68, 68, 68)" font-size="12px" font-family="'Open sans', verdana, arial, sans-serif" id="svg_236">60</text>
    </g>
    <g class="xtick" id="svg_237">
     <text text-anchor="middle" x="514.630005" y="407" fill="rgb(68, 68, 68)" font-size="12px" font-family="'Open sans', verdana, arial, sans-serif" id="svg_238">80</text>
    </g>
    <g class="xtick" id="svg_239">
     <text text-anchor="middle" x="593.710022" y="407" fill="rgb(68, 68, 68)" font-size="12px" font-family="'Open sans', verdana, arial, sans-serif" id="svg_240">100</text>
    </g>
    <g class="xtick" id="svg_241">
     <text text-anchor="middle" x="672.799988" y="407" fill="rgb(68, 68, 68)" font-size="12px" font-family="'Open sans', verdana, arial, sans-serif" id="svg_242">120</text>
    </g>
   </g>
   <g id="svg_243">
    <g class="ytick" id="svg_244">
     <text text-anchor="end" x="78" y="389.75" fill="rgb(68, 68, 68)" font-size="12px" font-family="'Open sans', verdana, arial, sans-serif" id="svg_245">−50</text>
    </g>
    <g class="ytick" id="svg_246">
     <text text-anchor="end" x="78" y="344" fill="rgb(68, 68, 68)" font-size="12px" font-family="'Open sans', verdana, arial, sans-serif" id="svg_247">0</text>
    </g>
    <g class="ytick" id="svg_248">
     <text text-anchor="end" x="78" y="298.25" fill="rgb(68, 68, 68)" font-size="12px" font-family="'Open sans', verdana, arial, sans-serif" id="svg_249">50</text>
    </g>
    <g class="ytick" id="svg_250">
     <text text-anchor="end" x="78" y="252.5" fill="rgb(68, 68, 68)" font-size="12px" font-family="'Open sans', verdana, arial, sans-serif" id="svg_251">100</text>
    </g>
    <g class="ytick" id="svg_252">
     <text text-anchor="end" x="78" y="206.75" fill="rgb(68, 68, 68)" font-size="12px" font-family="'Open sans', verdana, arial, sans-serif" id="svg_253">150</text>
    </g>
    <g class="ytick" id="svg_254">
     <text text-anchor="end" x="78" y="161" fill="rgb(68, 68, 68)" font-size="12px" font-family="'Open sans', verdana, arial, sans-serif" id="svg_255">200</text>
    </g>
    <g class="ytick" id="svg_256">
     <text text-anchor="end" x="78" y="115.25" fill="rgb(68, 68, 68)" font-size="12px" font-family="'Open sans', verdana, arial, sans-serif" id="svg_257">250</text>
    </g>
   </g>
   <g id="svg_258"/>
  </g>
  <g class="shapelayer" id="svg_259"/>
  <g class="glimages" id="svg_260"/>
  <text class="js-plot-link-container" y="464" text-anchor="end" x="862" fill="rgb(68, 68, 68)" font-size="12px" font-family="'Open Sans', Arial, sans-serif" id="svg_261"/>
  <g class="infolayer" id="svg_262">
   <g class="g-gtitle" id="svg_263"/>
   <g class="g-xtitle" id="svg_264">
    <g class="xtitle-math-group" id="svg_18">
     <svg xmlns:xlink="http://www.w3.org/1999/xlink" viewBox="0 -707.941989467833 857 732.8839789356658" class="xtitle-math" height="1.71ex" preserveAspectRatio="xMinYMin meet" x="389.810006" y="436.381639" width="2.021ex" id="svg_392">
      <defs>
       <path id="svg_410" stroke-width="10" d="m33,157q0,101 76,192t171,92q60,0 92,-52q1,1 5,6t11,11t16,12q34,24 46,24q4,0 7,-3t3,-5q0,-9 -69,-285q-71,-284 -71,-288q0,-8 45,-9l25,0q6,-8 6,-9t-3,-18q-4,-13 -10,-19l-13,0q-31,2 -108,2q-28,0 -51,0t-37,0t-17,-1q-14,0 -14,8q0,3 2,15q4,16 7,19t20,3q48,0 58,7q8,5 28,88t21,85q0,1 -7,-3q-48,-39 -100,-39q-55,0 -97,40t-42,127zm319,169q-23,79 -75,79q-35,0 -67,-31t-50,-81q-29,-79 -41,-164q0,-3 0,-11t-1,-12q0,-45 18,-62t43,-18q54,0 111,72l8,11l54,217z"/>
       <path id="svg_409" stroke-width="10" d="m109,429q-27,0 -43,18t-16,44q0,71 53,123t132,52q91,0 152,-56t62,-145q0,-43 -20,-82t-48,-68t-80,-74q-36,-31 -100,-92l-59,-56l76,-1q157,0 167,5q7,2 24,89l0,3l40,0l0,-3q-1,-3 -13,-91t-15,-92l0,-3l-371,0l0,19l0,12q0,7 6,15t30,35q29,32 50,56q9,10 34,37t34,37t29,33t28,34t23,30t21,32t15,29t13,32t7,30t3,33q0,63 -34,109t-97,46q-33,0 -58,-17t-35,-33t-10,-19q0,-1 5,-1q18,0 37,-14t19,-46q0,-25 -16,-42t-45,-18z"/>
       <path id="svg_408" stroke-width="10" d="m94,250q0,69 10,131t23,107t37,88t38,67t42,52t33,34t25,21l13,0l4,0q14,0 14,-9q0,-3 -17,-21t-41,-53t-49,-86t-42,-138t-17,-193t17,-192t41,-139t49,-86t42,-53t17,-21q0,-9 -15,-9l-3,0l-13,0l-28,24q-94,85 -137,212t-43,264z"/>
       <path id="svg_407" stroke-width="10" d="m84,237t0,13t14,20l581,0q15,-8 15,-20t-15,-20l-581,0q-14,7 -14,20l0,-13z"/>
       <path id="svg_406" stroke-width="10" d="m213,578l-13,-5q-14,-5 -40,-10t-58,-7l-19,0l0,46l19,0q47,2 87,15t56,24t28,22q2,3 12,3q9,0 17,-6l0,-299l1,-300q7,-7 12,-9t24,-4t62,-2l26,0l0,-46l-11,0q-21,3 -159,3q-136,0 -157,-3l-12,0l0,46l26,0q22,0 38,0t25,1t16,3t8,2t6,5t6,4l0,517z"/>
       <path id="svg_405" stroke-width="10" d="m60,749l4,1q5,0 10,0l12,0l28,-24q94,-85 137,-212t43,-264q0,-68 -10,-131t-23,-107t-37,-88t-38,-67t-41,-51t-32,-33t-23,-19q-3,-3 -4,-4l-12,0q-8,0 -11,0t-5,3t-3,9q1,1 11,13q155,161 155,475t-155,475q-10,12 -11,13q0,8 5,11z"/>
       <path id="svg_404" stroke-width="10" d="m308,24q59,0 108,52t50,121q0,63 -52,87q-106,27 -136,37t-42,20q-60,42 -60,121q0,61 32,111t65,75q29,25 70,40t64,16l11,0l7,0q96,0 139,-64q1,0 13,13t26,29t20,22q1,0 4,0t5,1q13,0 13,-7t-28,-121t-32,-118t-16,-3q-20,0 -20,9q0,6 1,10q0,3 1,19t2,26q0,34 -9,59t-18,37t-25,25q-36,21 -82,21q-57,0 -106,-46t-50,-106q0,-30 15,-52t41,-31q4,-2 70,-19t67,-18q34,-11 66,-48t32,-100q0,-26 -8,-56q-5,-22 -18,-49t-36,-59t-66,-60t-94,-38q-12,-2 -34,-2q-99,0 -154,55l-10,11l-28,-31q-23,-27 -28,-31t-13,-4q-13,0 -13,8q0,3 58,235q2,6 20,6l13,0q6,-6 6,-11q0,-2 -1,-9t-4,-21t-2,-33q2,-39 18,-66t43,-40t52,-18t53,-5z"/>
       <path id="svg_403" stroke-width="10" d="m66,637q-12,0 -17,0t-10,1t-7,3t-2,6t3,17t9,18q2,1 14,1q48,-3 109,-3q123,0 141,3l10,0q6,-6 6,-9t-2,-18q-4,-13 -10,-19l-12,0q-56,0 -56,-13q0,-5 50,-147t51,-144l3,3q4,4 12,13t21,24t32,37t43,51q92,107 107,126t16,31q0,16 -32,19q-17,0 -17,10q0,2 2,14q3,15 5,18t14,4q2,0 29,-1t79,-2q27,0 56,1t33,1q17,0 17,-9q0,-4 -3,-16t-5,-14q-2,-6 -21,-6q-72,-5 -117,-50q-9,-9 -140,-163l-129,-151l-26,-104q-27,-107 -27,-112q0,-11 68,-11q16,0 21,-1t6,-10q0,-2 -2,-12q-4,-17 -6,-19t-16,-3q-5,0 -42,0t-92,1q-62,0 -94,0t-36,-1q-18,0 -18,8q0,5 3,15q1,3 2,6t1,5t1,4t2,3t3,2t5,1t6,0t9,1t13,0q39,1 51,4t18,13q3,5 29,108l25,103l-123,349q-1,1 -2,2t-2,2t-3,2t-4,2t-5,2t-8,1t-9,1t-13,1t-17,1z"/>
       <path id="svg_395" stroke-width="10" d="m42,0l-2,0q-14,0 -14,11q0,4 3,16q4,14 7,16t19,3q86,3 135,52q10,10 116,126t105,118q-109,278 -114,283q-9,11 -63,12l-28,0q-6,6 -6,8t2,19q4,13 10,19l14,0q34,-2 121,-2q33,0 61,0t45,1t20,0q17,0 17,-11q0,-1 -2,-13q-4,-15 -7,-18t-16,-3q-31,-3 -54,-17l77,-194l53,59q105,113 105,125q0,18 -24,25q-5,0 -13,2q-15,0 -15,11q0,2 2,16q4,13 10,19l12,0q1,0 25,0t54,-2t41,-1q90,0 99,3l8,0q7,-7 7,-11q-2,-25 -12,-35l-16,0q-34,-1 -61,-9t-41,-17t-24,-18l-11,-9q0,1 -95,-104l-87,-96q0,-1 31,-80t65,-162t37,-86q10,-9 61,-10q35,0 35,-9q0,-2 -2,-14q-4,-16 -7,-19t-14,-3q-3,0 -33,0t-89,1q-61,0 -93,0t-35,-1q-17,0 -17,9q0,1 2,15q2,10 4,14t5,5t9,2t16,1t26,7q17,8 17,10q-1,0 -47,117l-47,118q-188,-204 -193,-215q-4,-8 -4,-12q0,-19 29,-25q1,0 6,0t6,-1q3,0 4,0t3,-1t3,-3t1,-7q0,-9 -2,-16q-3,-13 -6,-15t-15,-3q-3,0 -18,0t-42,1t-59,0q-78,0 -100,-2z"/>
       <path id="svg_402" stroke-width="10" d="m52,289q7,42 54,97t116,56q35,0 64,-18t43,-45q42,63 101,63q37,0 64,-22t28,-59q0,-29 -14,-47t-27,-22t-23,-4q-19,0 -31,11t-12,29q0,46 50,63q-11,13 -40,13q-13,0 -19,-2q-38,-16 -56,-66q-60,-221 -60,-258q0,-28 16,-40t35,-12q37,0 73,33t49,81q3,10 6,11t16,2l4,0q15,0 15,-8q0,-1 -2,-11q-16,-57 -62,-101t-107,-44q-70,0 -106,63q-41,-62 -94,-62l-6,0q-49,0 -70,26t-22,55q0,32 19,52t45,20q43,0 43,-42q0,-20 -12,-35t-23,-20t-13,-5l-3,-1q0,-1 6,-4t16,-7t19,-3q36,0 62,45q9,16 23,68t28,108t16,66q5,27 5,39q0,28 -15,40t-34,12q-40,0 -75,-32t-49,-82q-2,-9 -5,-10t-16,-2l-14,0q-6,6 -6,11z"/>
       <path id="svg_401" stroke-width="10" d="m56,237t0,13t14,20l299,0l0,150l1,150q10,13 19,13q13,0 20,-15l0,-298l298,0q15,-8 15,-20t-15,-20l-298,0l0,-298q-8,-14 -18,-14l-2,0l-2,0q-12,0 -18,14l0,298l-299,0q-14,7 -14,20l0,-13z"/>
       <path id="svg_400" stroke-width="10" d="m21,287q0,14 15,48t48,71t74,36q41,0 66,-23t26,-64q-2,-19 -3,-21q0,-3 -16,-46t-33,-97t-16,-86q0,-43 14,-60t42,-18q23,0 43,11t31,23t27,33q0,1 5,20t14,59t19,74q38,150 42,157q13,27 43,27q13,0 21,-7t11,-12t2,-9q0,-13 -49,-210t-56,-216q-28,-83 -97,-132t-138,-50q-45,0 -79,22t-34,66q0,22 7,37t19,22t20,10t17,3q44,0 44,-42q0,-20 -12,-35t-23,-20t-13,-5l-3,-1q2,-5 19,-12t34,-7l8,0q17,0 26,2q33,9 61,38t43,62t23,56t8,30l-6,-4q-6,-4 -19,-11t-26,-12q-20,-5 -39,-5q-46,0 -81,22t-46,71q-1,7 -1,31q0,57 35,149t35,117q0,1 0,2q0,9 0,12t-4,7t-11,4l-4,0q-23,0 -42,-19t-30,-41t-17,-42t-8,-22q-2,-2 -16,-2l-14,0q-6,6 -6,9z"/>
       <path id="svg_399" stroke-width="10" d="m56,347q0,13 14,20l637,0q15,-8 15,-20q0,-11 -14,-19l-318,-1l-318,0q-16,5 -16,20zm0,-194q0,15 16,20l636,0q14,-10 14,-20q0,-13 -15,-20l-637,0q-14,7 -14,20z"/>
       <path id="svg_398" stroke-width="10" d="m127,463q-27,0 -42,17t-16,44q0,55 48,98t116,43q35,0 44,-1q74,-12 113,-53t40,-89q0,-52 -34,-101t-94,-71l-3,-2q0,-1 9,-3t29,-9t38,-21q82,-53 82,-140q0,-79 -62,-138t-157,-59q-80,0 -138,43t-58,109q0,28 18,45t45,18q28,0 46,-18t18,-45q0,-11 -3,-20t-7,-16t-11,-12t-12,-8t-10,-4t-8,-3l-4,-1q51,-45 124,-45q55,0 83,53q17,33 17,101l0,20q0,95 -64,127q-15,6 -61,7l-42,1l-3,2q-2,3 -2,16q0,18 8,18q28,0 58,5q34,5 62,42t28,112l0,8q0,57 -35,79q-22,14 -47,14q-32,0 -59,-11t-38,-23t-11,-12l3,0q3,-1 8,-2t10,-5t12,-7t10,-11t8,-15t3,-20q0,-22 -14,-39t-45,-18z"/>
       <path id="svg_397" stroke-width="10" d="m42,313q0,163 81,258t180,95q69,0 99,-36t30,-80q0,-25 -14,-40t-39,-15q-23,0 -38,14t-15,39q0,44 47,53q-22,22 -62,25q-71,0 -117,-60q-47,-66 -47,-202l1,-4q5,6 8,13q41,60 107,60l4,0q46,0 81,-19q24,-14 48,-40t39,-57q21,-49 21,-107l0,-18q0,-23 -5,-43q-11,-59 -64,-115t-134,-56q-28,0 -54,8t-56,30t-51,59t-36,97t-14,141zm215,84q-30,0 -52,-17t-34,-45t-17,-57t-6,-62q0,-83 12,-119t38,-58q24,-18 53,-18q51,0 78,38q13,18 18,45t5,105q0,80 -5,107t-18,45q-27,36 -72,36z"/>
       <path id="svg_396" stroke-width="10" d="m96,585q56,81 153,81q48,0 96,-26t78,-92q37,-83 37,-228q0,-155 -43,-237q-20,-42 -55,-67t-61,-31t-51,-7q-26,0 -52,6t-61,32t-55,67q-43,82 -43,237q0,174 57,265zm225,12q-30,32 -71,32q-42,0 -72,-32q-25,-26 -33,-72t-8,-192q0,-158 8,-208t36,-79q28,-30 69,-30q40,0 68,30q29,30 36,84t8,203q0,145 -8,191t-33,73z"/>
      </defs>
      <g stroke="rgb(68, 68, 68)" fill="rgb(68, 68, 68)" stroke-width="0" transform="matrix(1 0 0 -1 0 0)" id="svg_393">
       <use xlink:href="#svg_395" id="svg_394"/>
      </g>
     </svg>
    </g>
   </g>
   <g class="g-ytitle" id="svg_268">
    <g class="ytitle-math-group" transform="rotate(-90, 36.4994, 237.882)" id="svg_35">
     <svg xmlns:xlink="http://www.w3.org/1999/xlink" viewBox="0 -707.941989467833 768 731.8839789356658" class="ytitle-math" height="1.71ex" preserveAspectRatio="xMinYMin meet" x="36.499438" y="237.882151" width="1.71ex" id="svg_411">
      <defs>
       <path id="svg_429" stroke-width="10" d="m33,157q0,101 76,192t171,92q60,0 92,-52q1,1 5,6t11,11t16,12q34,24 46,24q4,0 7,-3t3,-5q0,-9 -69,-285q-71,-284 -71,-288q0,-8 45,-9l25,0q6,-8 6,-9t-3,-18q-4,-13 -10,-19l-13,0q-31,2 -108,2q-28,0 -51,0t-37,0t-17,-1q-14,0 -14,8q0,3 2,15q4,16 7,19t20,3q48,0 58,7q8,5 28,88t21,85q0,1 -7,-3q-48,-39 -100,-39q-55,0 -97,40t-42,127zm319,169q-23,79 -75,79q-35,0 -67,-31t-50,-81q-29,-79 -41,-164q0,-3 0,-11t-1,-12q0,-45 18,-62t43,-18q54,0 111,72l8,11l54,217z"/>
       <path id="svg_428" stroke-width="10" d="m109,429q-27,0 -43,18t-16,44q0,71 53,123t132,52q91,0 152,-56t62,-145q0,-43 -20,-82t-48,-68t-80,-74q-36,-31 -100,-92l-59,-56l76,-1q157,0 167,5q7,2 24,89l0,3l40,0l0,-3q-1,-3 -13,-91t-15,-92l0,-3l-371,0l0,19l0,12q0,7 6,15t30,35q29,32 50,56q9,10 34,37t34,37t29,33t28,34t23,30t21,32t15,29t13,32t7,30t3,33q0,63 -34,109t-97,46q-33,0 -58,-17t-35,-33t-10,-19q0,-1 5,-1q18,0 37,-14t19,-46q0,-25 -16,-42t-45,-18z"/>
       <path id="svg_427" stroke-width="10" d="m94,250q0,69 10,131t23,107t37,88t38,67t42,52t33,34t25,21l13,0l4,0q14,0 14,-9q0,-3 -17,-21t-41,-53t-49,-86t-42,-138t-17,-193t17,-192t41,-139t49,-86t42,-53t17,-21q0,-9 -15,-9l-3,0l-13,0l-28,24q-94,85 -137,212t-43,264z"/>
       <path id="svg_426" stroke-width="10" d="m84,237t0,13t14,20l581,0q15,-8 15,-20t-15,-20l-581,0q-14,7 -14,20l0,-13z"/>
       <path id="svg_425" stroke-width="10" d="m213,578l-13,-5q-14,-5 -40,-10t-58,-7l-19,0l0,46l19,0q47,2 87,15t56,24t28,22q2,3 12,3q9,0 17,-6l0,-299l1,-300q7,-7 12,-9t24,-4t62,-2l26,0l0,-46l-11,0q-21,3 -159,3q-136,0 -157,-3l-12,0l0,46l26,0q22,0 38,0t25,1t16,3t8,2t6,5t6,4l0,517z"/>
       <path id="svg_424" stroke-width="10" d="m60,749l4,1q5,0 10,0l12,0l28,-24q94,-85 137,-212t43,-264q0,-68 -10,-131t-23,-107t-37,-88t-38,-67t-41,-51t-32,-33t-23,-19q-3,-3 -4,-4l-12,0q-8,0 -11,0t-5,3t-3,9q1,1 11,13q155,161 155,475t-155,475q-10,12 -11,13q0,8 5,11z"/>
       <path id="svg_423" stroke-width="10" d="m308,24q59,0 108,52t50,121q0,63 -52,87q-106,27 -136,37t-42,20q-60,42 -60,121q0,61 32,111t65,75q29,25 70,40t64,16l11,0l7,0q96,0 139,-64q1,0 13,13t26,29t20,22q1,0 4,0t5,1q13,0 13,-7t-28,-121t-32,-118t-16,-3q-20,0 -20,9q0,6 1,10q0,3 1,19t2,26q0,34 -9,59t-18,37t-25,25q-36,21 -82,21q-57,0 -106,-46t-50,-106q0,-30 15,-52t41,-31q4,-2 70,-19t67,-18q34,-11 66,-48t32,-100q0,-26 -8,-56q-5,-22 -18,-49t-36,-59t-66,-60t-94,-38q-12,-2 -34,-2q-99,0 -154,55l-10,11l-28,-31q-23,-27 -28,-31t-13,-4q-13,0 -13,8q0,3 58,235q2,6 20,6l13,0q6,-6 6,-11q0,-2 -1,-9t-4,-21t-2,-33q2,-39 18,-66t43,-40t52,-18t53,-5z"/>
       <path id="svg_414" stroke-width="10" d="m66,637q-12,0 -17,0t-10,1t-7,3t-2,6t3,17t9,18q2,1 14,1q48,-3 109,-3q123,0 141,3l10,0q6,-6 6,-9t-2,-18q-4,-13 -10,-19l-12,0q-56,0 -56,-13q0,-5 50,-147t51,-144l3,3q4,4 12,13t21,24t32,37t43,51q92,107 107,126t16,31q0,16 -32,19q-17,0 -17,10q0,2 2,14q3,15 5,18t14,4q2,0 29,-1t79,-2q27,0 56,1t33,1q17,0 17,-9q0,-4 -3,-16t-5,-14q-2,-6 -21,-6q-72,-5 -117,-50q-9,-9 -140,-163l-129,-151l-26,-104q-27,-107 -27,-112q0,-11 68,-11q16,0 21,-1t6,-10q0,-2 -2,-12q-4,-17 -6,-19t-16,-3q-5,0 -42,0t-92,1q-62,0 -94,0t-36,-1q-18,0 -18,8q0,5 3,15q1,3 2,6t1,5t1,4t2,3t3,2t5,1t6,0t9,1t13,0q39,1 51,4t18,13q3,5 29,108l25,103l-123,349q-1,1 -2,2t-2,2t-3,2t-4,2t-5,2t-8,1t-9,1t-13,1t-17,1z"/>
       <path id="svg_422" stroke-width="10" d="m42,0l-2,0q-14,0 -14,11q0,4 3,16q4,14 7,16t19,3q86,3 135,52q10,10 116,126t105,118q-109,278 -114,283q-9,11 -63,12l-28,0q-6,6 -6,8t2,19q4,13 10,19l14,0q34,-2 121,-2q33,0 61,0t45,1t20,0q17,0 17,-11q0,-1 -2,-13q-4,-15 -7,-18t-16,-3q-31,-3 -54,-17l77,-194l53,59q105,113 105,125q0,18 -24,25q-5,0 -13,2q-15,0 -15,11q0,2 2,16q4,13 10,19l12,0q1,0 25,0t54,-2t41,-1q90,0 99,3l8,0q7,-7 7,-11q-2,-25 -12,-35l-16,0q-34,-1 -61,-9t-41,-17t-24,-18l-11,-9q0,1 -95,-104l-87,-96q0,-1 31,-80t65,-162t37,-86q10,-9 61,-10q35,0 35,-9q0,-2 -2,-14q-4,-16 -7,-19t-14,-3q-3,0 -33,0t-89,1q-61,0 -93,0t-35,-1q-17,0 -17,9q0,1 2,15q2,10 4,14t5,5t9,2t16,1t26,7q17,8 17,10q-1,0 -47,117l-47,118q-188,-204 -193,-215q-4,-8 -4,-12q0,-19 29,-25q1,0 6,0t6,-1q3,0 4,0t3,-1t3,-3t1,-7q0,-9 -2,-16q-3,-13 -6,-15t-15,-3q-3,0 -18,0t-42,1t-59,0q-78,0 -100,-2z"/>
       <path id="svg_421" stroke-width="10" d="m52,289q7,42 54,97t116,56q35,0 64,-18t43,-45q42,63 101,63q37,0 64,-22t28,-59q0,-29 -14,-47t-27,-22t-23,-4q-19,0 -31,11t-12,29q0,46 50,63q-11,13 -40,13q-13,0 -19,-2q-38,-16 -56,-66q-60,-221 -60,-258q0,-28 16,-40t35,-12q37,0 73,33t49,81q3,10 6,11t16,2l4,0q15,0 15,-8q0,-1 -2,-11q-16,-57 -62,-101t-107,-44q-70,0 -106,63q-41,-62 -94,-62l-6,0q-49,0 -70,26t-22,55q0,32 19,52t45,20q43,0 43,-42q0,-20 -12,-35t-23,-20t-13,-5l-3,-1q0,-1 6,-4t16,-7t19,-3q36,0 62,45q9,16 23,68t28,108t16,66q5,27 5,39q0,28 -15,40t-34,12q-40,0 -75,-32t-49,-82q-2,-9 -5,-10t-16,-2l-14,0q-6,6 -6,11z"/>
       <path id="svg_420" stroke-width="10" d="m56,237t0,13t14,20l299,0l0,150l1,150q10,13 19,13q13,0 20,-15l0,-298l298,0q15,-8 15,-20t-15,-20l-298,0l0,-298q-8,-14 -18,-14l-2,0l-2,0q-12,0 -18,14l0,298l-299,0q-14,7 -14,20l0,-13z"/>
       <path id="svg_419" stroke-width="10" d="m21,287q0,14 15,48t48,71t74,36q41,0 66,-23t26,-64q-2,-19 -3,-21q0,-3 -16,-46t-33,-97t-16,-86q0,-43 14,-60t42,-18q23,0 43,11t31,23t27,33q0,1 5,20t14,59t19,74q38,150 42,157q13,27 43,27q13,0 21,-7t11,-12t2,-9q0,-13 -49,-210t-56,-216q-28,-83 -97,-132t-138,-50q-45,0 -79,22t-34,66q0,22 7,37t19,22t20,10t17,3q44,0 44,-42q0,-20 -12,-35t-23,-20t-13,-5l-3,-1q2,-5 19,-12t34,-7l8,0q17,0 26,2q33,9 61,38t43,62t23,56t8,30l-6,-4q-6,-4 -19,-11t-26,-12q-20,-5 -39,-5q-46,0 -81,22t-46,71q-1,7 -1,31q0,57 35,149t35,117q0,1 0,2q0,9 0,12t-4,7t-11,4l-4,0q-23,0 -42,-19t-30,-41t-17,-42t-8,-22q-2,-2 -16,-2l-14,0q-6,6 -6,9z"/>
       <path id="svg_418" stroke-width="10" d="m56,347q0,13 14,20l637,0q15,-8 15,-20q0,-11 -14,-19l-318,-1l-318,0q-16,5 -16,20zm0,-194q0,15 16,20l636,0q14,-10 14,-20q0,-13 -15,-20l-637,0q-14,7 -14,20z"/>
       <path id="svg_417" stroke-width="10" d="m127,463q-27,0 -42,17t-16,44q0,55 48,98t116,43q35,0 44,-1q74,-12 113,-53t40,-89q0,-52 -34,-101t-94,-71l-3,-2q0,-1 9,-3t29,-9t38,-21q82,-53 82,-140q0,-79 -62,-138t-157,-59q-80,0 -138,43t-58,109q0,28 18,45t45,18q28,0 46,-18t18,-45q0,-11 -3,-20t-7,-16t-11,-12t-12,-8t-10,-4t-8,-3l-4,-1q51,-45 124,-45q55,0 83,53q17,33 17,101l0,20q0,95 -64,127q-15,6 -61,7l-42,1l-3,2q-2,3 -2,16q0,18 8,18q28,0 58,5q34,5 62,42t28,112l0,8q0,57 -35,79q-22,14 -47,14q-32,0 -59,-11t-38,-23t-11,-12l3,0q3,-1 8,-2t10,-5t12,-7t10,-11t8,-15t3,-20q0,-22 -14,-39t-45,-18z"/>
       <path id="svg_416" stroke-width="10" d="m42,313q0,163 81,258t180,95q69,0 99,-36t30,-80q0,-25 -14,-40t-39,-15q-23,0 -38,14t-15,39q0,44 47,53q-22,22 -62,25q-71,0 -117,-60q-47,-66 -47,-202l1,-4q5,6 8,13q41,60 107,60l4,0q46,0 81,-19q24,-14 48,-40t39,-57q21,-49 21,-107l0,-18q0,-23 -5,-43q-11,-59 -64,-115t-134,-56q-28,0 -54,8t-56,30t-51,59t-36,97t-14,141zm215,84q-30,0 -52,-17t-34,-45t-17,-57t-6,-62q0,-83 12,-119t38,-58q24,-18 53,-18q51,0 78,38q13,18 18,45t5,105q0,80 -5,107t-18,45q-27,36 -72,36z"/>
       <path id="svg_415" stroke-width="10" d="m96,585q56,81 153,81q48,0 96,-26t78,-92q37,-83 37,-228q0,-155 -43,-237q-20,-42 -55,-67t-61,-31t-51,-7q-26,0 -52,6t-61,32t-55,67q-43,82 -43,237q0,174 57,265zm225,12q-30,32 -71,32q-42,0 -72,-32q-25,-26 -33,-72t-8,-192q0,-158 8,-208t36,-79q28,-30 69,-30q40,0 68,30q29,30 36,84t8,203q0,145 -8,191t-33,73z"/>
      </defs>
      <g stroke="rgb(68, 68, 68)" fill="rgb(68, 68, 68)" stroke-width="0" transform="matrix(1 0 0 -1 0 0)" id="svg_412">
       <use xlink:href="#svg_414" id="svg_413"/>
      </g>
     </svg>
    </g>
   </g>
   <g id="svg_52">
    <svg class="legend" x="725" y="100" width="132" height="86" id="svg_1419">
     <rect class="bg" x="0" y="0" width="132" height="86" stroke-width="0px" fill="rgb(255, 255, 255)" stroke="rgb(68, 68, 68)" id="svg_1535"/>
     <g class="traces" id="svg_1525">
      <g class="legendfill" id="svg_1533">
       <path class="js-fill" d="m5,14.5l30,0l0,6l-30,0l0,-6z" fill-opacity="0.5" fill="rgb(0, 0, 0)" stroke-width="0px" id="svg_1534"/>
      </g>
      <g class="legendlines" id="svg_1531">
       <path class="js-line" d="m5,14.5l30,0" stroke-width="2px" stroke-opacity="0" stroke="rgb(0, 0, 0)" fill="none" id="svg_1532"/>
      </g>
      <g class="legendsymbols" id="svg_1528">
       <g class="legendpoints" id="svg_1529">
        <path class="scatterpts" d="m23,14.5a3,3 0 1 1 -3,-3a3,3 0 0 1 3,3z" fill-opacity="0" fill="rgb(0, 0, 0)" stroke-width="0px" id="svg_1530"/>
       </g>
      </g>
      <text class="legendtext" x="40" y="19.18" fill="rgb(68, 68, 68)" font-size="12px" font-family="'Open sans', verdana, arial, sans-serif" text-anchor="start" id="svg_1527">Feasible Region</text>
      <rect class="legendtoggle" x="0" y="5" height="19" width="126.98438" fill-opacity="0" fill="rgb(0, 0, 0)" id="svg_1526"/>
     </g>
     <g class="traces" id="svg_1489">
      <g class="legendfill" id="svg_1524"/>
      <g class="legendlines" id="svg_1522">
       <path class="js-line" d="m5,33.5l30,0" stroke-width="2px" stroke="rgb(44, 160, 44)" fill="none" id="svg_1523"/>
      </g>
      <g class="legendsymbols" id="svg_1519">
       <g class="legendpoints" id="svg_1520">
        <path class="scatterpts" d="m23,33.5a3,3 0 1 1 -3,-3a3,3 0 0 1 3,3z" fill="rgb(44, 160, 44)" stroke-width="0px" id="svg_1521"/>
       </g>
      </g>
      <rect class="legendtoggle" x="0" y="24" height="19" width="126.98438" fill-opacity="0" fill="rgb(0, 0, 0)" id="svg_1518"/>
      <g class="legendtext-math-group" id="svg_1490">
       <svg xmlns:xlink="http://www.w3.org/1999/xlink" viewBox="0 -688.7742397004789 5665 916.5484794009578" class="legendtext-math" height="2.182ex" preserveAspectRatio="xMinYMin meet" x="40" y="27.64548" width="13.091ex" id="svg_1536">
        <defs>
         <path id="svg_1562" stroke-width="10" d="m33,157q0,101 76,192t171,92q60,0 92,-52q1,1 5,6t11,11t16,12q34,24 46,24q4,0 7,-3t3,-5q0,-9 -69,-285q-71,-284 -71,-288q0,-8 45,-9l25,0q6,-8 6,-9t-3,-18q-4,-13 -10,-19l-13,0q-31,2 -108,2q-28,0 -51,0t-37,0t-17,-1q-14,0 -14,8q0,3 2,15q4,16 7,19t20,3q48,0 58,7q8,5 28,88t21,85q0,1 -7,-3q-48,-39 -100,-39q-55,0 -97,40t-42,127zm319,169q-23,79 -75,79q-35,0 -67,-31t-50,-81q-29,-79 -41,-164q0,-3 0,-11t-1,-12q0,-45 18,-62t43,-18q54,0 111,72l8,11l54,217z"/>
         <path id="svg_1543" stroke-width="10" d="m109,429q-27,0 -43,18t-16,44q0,71 53,123t132,52q91,0 152,-56t62,-145q0,-43 -20,-82t-48,-68t-80,-74q-36,-31 -100,-92l-59,-56l76,-1q157,0 167,5q7,2 24,89l0,3l40,0l0,-3q-1,-3 -13,-91t-15,-92l0,-3l-371,0l0,19l0,12q0,7 6,15t30,35q29,32 50,56q9,10 34,37t34,37t29,33t28,34t23,30t21,32t15,29t13,32t7,30t3,33q0,63 -34,109t-97,46q-33,0 -58,-17t-35,-33t-10,-19q0,-1 5,-1q18,0 37,-14t19,-46q0,-25 -16,-42t-45,-18z"/>
         <path id="svg_1561" stroke-width="10" d="m94,250q0,69 10,131t23,107t37,88t38,67t42,52t33,34t25,21l13,0l4,0q14,0 14,-9q0,-3 -17,-21t-41,-53t-49,-86t-42,-138t-17,-193t17,-192t41,-139t49,-86t42,-53t17,-21q0,-9 -15,-9l-3,0l-13,0l-28,24q-94,85 -137,212t-43,264z"/>
         <path id="svg_1560" stroke-width="10" d="m84,237t0,13t14,20l581,0q15,-8 15,-20t-15,-20l-581,0q-14,7 -14,20l0,-13z"/>
         <path id="svg_1559" stroke-width="10" d="m213,578l-13,-5q-14,-5 -40,-10t-58,-7l-19,0l0,46l19,0q47,2 87,15t56,24t28,22q2,3 12,3q9,0 17,-6l0,-299l1,-300q7,-7 12,-9t24,-4t62,-2l26,0l0,-46l-11,0q-21,3 -159,3q-136,0 -157,-3l-12,0l0,46l26,0q22,0 38,0t25,1t16,3t8,2t6,5t6,4l0,517z"/>
         <path id="svg_1558" stroke-width="10" d="m60,749l4,1q5,0 10,0l12,0l28,-24q94,-85 137,-212t43,-264q0,-68 -10,-131t-23,-107t-37,-88t-38,-67t-41,-51t-32,-33t-23,-19q-3,-3 -4,-4l-12,0q-8,0 -11,0t-5,3t-3,9q1,1 11,13q155,161 155,475t-155,475q-10,12 -11,13q0,8 5,11z"/>
         <path id="svg_1557" stroke-width="10" d="m308,24q59,0 108,52t50,121q0,63 -52,87q-106,27 -136,37t-42,20q-60,42 -60,121q0,61 32,111t65,75q29,25 70,40t64,16l11,0l7,0q96,0 139,-64q1,0 13,13t26,29t20,22q1,0 4,0t5,1q13,0 13,-7t-28,-121t-32,-118t-16,-3q-20,0 -20,9q0,6 1,10q0,3 1,19t2,26q0,34 -9,59t-18,37t-25,25q-36,21 -82,21q-57,0 -106,-46t-50,-106q0,-30 15,-52t41,-31q4,-2 70,-19t67,-18q34,-11 66,-48t32,-100q0,-26 -8,-56q-5,-22 -18,-49t-36,-59t-66,-60t-94,-38q-12,-2 -34,-2q-99,0 -154,55l-10,11l-28,-31q-23,-27 -28,-31t-13,-4q-13,0 -13,8q0,3 58,235q2,6 20,6l13,0q6,-6 6,-11q0,-2 -1,-9t-4,-21t-2,-33q2,-39 18,-66t43,-40t52,-18t53,-5z"/>
         <path id="svg_1556" stroke-width="10" d="m66,637q-12,0 -17,0t-10,1t-7,3t-2,6t3,17t9,18q2,1 14,1q48,-3 109,-3q123,0 141,3l10,0q6,-6 6,-9t-2,-18q-4,-13 -10,-19l-12,0q-56,0 -56,-13q0,-5 50,-147t51,-144l3,3q4,4 12,13t21,24t32,37t43,51q92,107 107,126t16,31q0,16 -32,19q-17,0 -17,10q0,2 2,14q3,15 5,18t14,4q2,0 29,-1t79,-2q27,0 56,1t33,1q17,0 17,-9q0,-4 -3,-16t-5,-14q-2,-6 -21,-6q-72,-5 -117,-50q-9,-9 -140,-163l-129,-151l-26,-104q-27,-107 -27,-112q0,-11 68,-11q16,0 21,-1t6,-10q0,-2 -2,-12q-4,-17 -6,-19t-16,-3q-5,0 -42,0t-92,1q-62,0 -94,0t-36,-1q-18,0 -18,8q0,5 3,15q1,3 2,6t1,5t1,4t2,3t3,2t5,1t6,0t9,1t13,0q39,1 51,4t18,13q3,5 29,108l25,103l-123,349q-1,1 -2,2t-2,2t-3,2t-4,2t-5,2t-8,1t-9,1t-13,1t-17,1z"/>
         <path id="svg_1555" stroke-width="10" d="m42,0l-2,0q-14,0 -14,11q0,4 3,16q4,14 7,16t19,3q86,3 135,52q10,10 116,126t105,118q-109,278 -114,283q-9,11 -63,12l-28,0q-6,6 -6,8t2,19q4,13 10,19l14,0q34,-2 121,-2q33,0 61,0t45,1t20,0q17,0 17,-11q0,-1 -2,-13q-4,-15 -7,-18t-16,-3q-31,-3 -54,-17l77,-194l53,59q105,113 105,125q0,18 -24,25q-5,0 -13,2q-15,0 -15,11q0,2 2,16q4,13 10,19l12,0q1,0 25,0t54,-2t41,-1q90,0 99,3l8,0q7,-7 7,-11q-2,-25 -12,-35l-16,0q-34,-1 -61,-9t-41,-17t-24,-18l-11,-9q0,1 -95,-104l-87,-96q0,-1 31,-80t65,-162t37,-86q10,-9 61,-10q35,0 35,-9q0,-2 -2,-14q-4,-16 -7,-19t-14,-3q-3,0 -33,0t-89,1q-61,0 -93,0t-35,-1q-17,0 -17,9q0,1 2,15q2,10 4,14t5,5t9,2t16,1t26,7q17,8 17,10q-1,0 -47,117l-47,118q-188,-204 -193,-215q-4,-8 -4,-12q0,-19 29,-25q1,0 6,0t6,-1q3,0 4,0t3,-1t3,-3t1,-7q0,-9 -2,-16q-3,-13 -6,-15t-15,-3q-3,0 -18,0t-42,1t-59,0q-78,0 -100,-2z"/>
         <path id="svg_1551" stroke-width="10" d="m52,289q7,42 54,97t116,56q35,0 64,-18t43,-45q42,63 101,63q37,0 64,-22t28,-59q0,-29 -14,-47t-27,-22t-23,-4q-19,0 -31,11t-12,29q0,46 50,63q-11,13 -40,13q-13,0 -19,-2q-38,-16 -56,-66q-60,-221 -60,-258q0,-28 16,-40t35,-12q37,0 73,33t49,81q3,10 6,11t16,2l4,0q15,0 15,-8q0,-1 -2,-11q-16,-57 -62,-101t-107,-44q-70,0 -106,63q-41,-62 -94,-62l-6,0q-49,0 -70,26t-22,55q0,32 19,52t45,20q43,0 43,-42q0,-20 -12,-35t-23,-20t-13,-5l-3,-1q0,-1 6,-4t16,-7t19,-3q36,0 62,45q9,16 23,68t28,108t16,66q5,27 5,39q0,28 -15,40t-34,12q-40,0 -75,-32t-49,-82q-2,-9 -5,-10t-16,-2l-14,0q-6,6 -6,11z"/>
         <path id="svg_1549" stroke-width="10" d="m56,237t0,13t14,20l299,0l0,150l1,150q10,13 19,13q13,0 20,-15l0,-298l298,0q15,-8 15,-20t-15,-20l-298,0l0,-298q-8,-14 -18,-14l-2,0l-2,0q-12,0 -18,14l0,298l-299,0q-14,7 -14,20l0,-13z"/>
         <path id="svg_1547" stroke-width="10" d="m21,287q0,14 15,48t48,71t74,36q41,0 66,-23t26,-64q-2,-19 -3,-21q0,-3 -16,-46t-33,-97t-16,-86q0,-43 14,-60t42,-18q23,0 43,11t31,23t27,33q0,1 5,20t14,59t19,74q38,150 42,157q13,27 43,27q13,0 21,-7t11,-12t2,-9q0,-13 -49,-210t-56,-216q-28,-83 -97,-132t-138,-50q-45,0 -79,22t-34,66q0,22 7,37t19,22t20,10t17,3q44,0 44,-42q0,-20 -12,-35t-23,-20t-13,-5l-3,-1q2,-5 19,-12t34,-7l8,0q17,0 26,2q33,9 61,38t43,62t23,56t8,30l-6,-4q-6,-4 -19,-11t-26,-12q-20,-5 -39,-5q-46,0 -81,22t-46,71q-1,7 -1,31q0,57 35,149t35,117q0,1 0,2q0,9 0,12t-4,7t-11,4l-4,0q-23,0 -42,-19t-30,-41t-17,-42t-8,-22q-2,-2 -16,-2l-14,0q-6,6 -6,9z"/>
         <path id="svg_1545" stroke-width="10" d="m56,347q0,13 14,20l637,0q15,-8 15,-20q0,-11 -14,-19l-318,-1l-318,0q-16,5 -16,20zm0,-194q0,15 16,20l636,0q14,-10 14,-20q0,-13 -15,-20l-637,0q-14,7 -14,20z"/>
         <path id="svg_1554" stroke-width="10" d="m127,463q-27,0 -42,17t-16,44q0,55 48,98t116,43q35,0 44,-1q74,-12 113,-53t40,-89q0,-52 -34,-101t-94,-71l-3,-2q0,-1 9,-3t29,-9t38,-21q82,-53 82,-140q0,-79 -62,-138t-157,-59q-80,0 -138,43t-58,109q0,28 18,45t45,18q28,0 46,-18t18,-45q0,-11 -3,-20t-7,-16t-11,-12t-12,-8t-10,-4t-8,-3l-4,-1q51,-45 124,-45q55,0 83,53q17,33 17,101l0,20q0,95 -64,127q-15,6 -61,7l-42,1l-3,2q-2,3 -2,16q0,18 8,18q28,0 58,5q34,5 62,42t28,112l0,8q0,57 -35,79q-22,14 -47,14q-32,0 -59,-11t-38,-23t-11,-12l3,0q3,-1 8,-2t10,-5t12,-7t10,-11t8,-15t3,-20q0,-22 -14,-39t-45,-18z"/>
         <path id="svg_1553" stroke-width="10" d="m42,313q0,163 81,258t180,95q69,0 99,-36t30,-80q0,-25 -14,-40t-39,-15q-23,0 -38,14t-15,39q0,44 47,53q-22,22 -62,25q-71,0 -117,-60q-47,-66 -47,-202l1,-4q5,6 8,13q41,60 107,60l4,0q46,0 81,-19q24,-14 48,-40t39,-57q21,-49 21,-107l0,-18q0,-23 -5,-43q-11,-59 -64,-115t-134,-56q-28,0 -54,8t-56,30t-51,59t-36,97t-14,141zm215,84q-30,0 -52,-17t-34,-45t-17,-57t-6,-62q0,-83 12,-119t38,-58q24,-18 53,-18q51,0 78,38q13,18 18,45t5,105q0,80 -5,107t-18,45q-27,36 -72,36z"/>
         <path id="svg_1540" stroke-width="10" d="m96,585q56,81 153,81q48,0 96,-26t78,-92q37,-83 37,-228q0,-155 -43,-237q-20,-42 -55,-67t-61,-31t-51,-7q-26,0 -52,6t-61,32t-55,67q-43,82 -43,237q0,174 57,265zm225,12q-30,32 -71,32q-42,0 -72,-32q-25,-26 -33,-72t-8,-192q0,-158 8,-208t36,-79q28,-30 69,-30q40,0 68,30q29,30 36,84t8,203q0,145 -8,191t-33,73z"/>
        </defs>
        <g stroke="rgb(68, 68, 68)" fill="rgb(68, 68, 68)" stroke-width="0" transform="matrix(1 0 0 -1 0 0)" id="svg_1537">
         <use xlink:href="#svg_1543" id="svg_1552"/>
         <use xlink:href="#svg_1551" x="505" y="0" id="svg_1550"/>
         <use xlink:href="#svg_1549" x="1304" y="0" id="svg_1548"/>
         <use xlink:href="#svg_1547" x="2309" y="0" id="svg_1546"/>
         <use xlink:href="#svg_1545" x="3089" y="0" id="svg_1544"/>
         <g id="svg_1538">
          <use xlink:href="#svg_1543" y="0" x="4150" id="svg_1542"/>
          <use xlink:href="#svg_1540" x="4655" y="0" id="svg_1541"/>
          <use xlink:href="#svg_1540" x="5160" y="0" id="svg_1539"/>
         </g>
        </g>
       </svg>
      </g>
     </g>
     <g class="traces" id="svg_1456">
      <g class="legendfill" id="svg_1488"/>
      <g class="legendlines" id="svg_1486">
       <path class="js-line" d="m5,52.5l30,0" stroke-width="2px" stroke="rgb(255, 127, 14)" fill="none" id="svg_1487"/>
      </g>
      <g class="legendsymbols" id="svg_1483">
       <g class="legendpoints" id="svg_1484">
        <path class="scatterpts" d="m23,52.5a3,3 0 1 1 -3,-3a3,3 0 0 1 3,3z" fill="rgb(255, 127, 14)" stroke-width="0px" id="svg_1485"/>
       </g>
      </g>
      <rect class="legendtoggle" x="0" y="43" height="19" width="126.98438" fill-opacity="0" fill="rgb(0, 0, 0)" id="svg_1482"/>
      <g class="legendtext-math-group" id="svg_1457">
       <svg xmlns:xlink="http://www.w3.org/1999/xlink" viewBox="0 -688.7742397004789 4655 916.5484794009578" class="legendtext-math" height="2.182ex" preserveAspectRatio="xMinYMin meet" x="40" y="46.64548" width="10.727ex" id="svg_1563">
        <defs>
         <path id="svg_1586" stroke-width="10" d="m33,157q0,101 76,192t171,92q60,0 92,-52q1,1 5,6t11,11t16,12q34,24 46,24q4,0 7,-3t3,-5q0,-9 -69,-285q-71,-284 -71,-288q0,-8 45,-9l25,0q6,-8 6,-9t-3,-18q-4,-13 -10,-19l-13,0q-31,2 -108,2q-28,0 -51,0t-37,0t-17,-1q-14,0 -14,8q0,3 2,15q4,16 7,19t20,3q48,0 58,7q8,5 28,88t21,85q0,1 -7,-3q-48,-39 -100,-39q-55,0 -97,40t-42,127zm319,169q-23,79 -75,79q-35,0 -67,-31t-50,-81q-29,-79 -41,-164q0,-3 0,-11t-1,-12q0,-45 18,-62t43,-18q54,0 111,72l8,11l54,217z"/>
         <path id="svg_1576" stroke-width="10" d="m109,429q-27,0 -43,18t-16,44q0,71 53,123t132,52q91,0 152,-56t62,-145q0,-43 -20,-82t-48,-68t-80,-74q-36,-31 -100,-92l-59,-56l76,-1q157,0 167,5q7,2 24,89l0,3l40,0l0,-3q-1,-3 -13,-91t-15,-92l0,-3l-371,0l0,19l0,12q0,7 6,15t30,35q29,32 50,56q9,10 34,37t34,37t29,33t28,34t23,30t21,32t15,29t13,32t7,30t3,33q0,63 -34,109t-97,46q-33,0 -58,-17t-35,-33t-10,-19q0,-1 5,-1q18,0 37,-14t19,-46q0,-25 -16,-42t-45,-18z"/>
         <path id="svg_1585" stroke-width="10" d="m94,250q0,69 10,131t23,107t37,88t38,67t42,52t33,34t25,21l13,0l4,0q14,0 14,-9q0,-3 -17,-21t-41,-53t-49,-86t-42,-138t-17,-193t17,-192t41,-139t49,-86t42,-53t17,-21q0,-9 -15,-9l-3,0l-13,0l-28,24q-94,85 -137,212t-43,264z"/>
         <path id="svg_1572" stroke-width="10" d="m84,237t0,13t14,20l581,0q15,-8 15,-20t-15,-20l-581,0q-14,7 -14,20l0,-13z"/>
         <path id="svg_1584" stroke-width="10" d="m213,578l-13,-5q-14,-5 -40,-10t-58,-7l-19,0l0,46l19,0q47,2 87,15t56,24t28,22q2,3 12,3q9,0 17,-6l0,-299l1,-300q7,-7 12,-9t24,-4t62,-2l26,0l0,-46l-11,0q-21,3 -159,3q-136,0 -157,-3l-12,0l0,46l26,0q22,0 38,0t25,1t16,3t8,2t6,5t6,4l0,517z"/>
         <path id="svg_1583" stroke-width="10" d="m60,749l4,1q5,0 10,0l12,0l28,-24q94,-85 137,-212t43,-264q0,-68 -10,-131t-23,-107t-37,-88t-38,-67t-41,-51t-32,-33t-23,-19q-3,-3 -4,-4l-12,0q-8,0 -11,0t-5,3t-3,9q1,1 11,13q155,161 155,475t-155,475q-10,12 -11,13q0,8 5,11z"/>
         <path id="svg_1582" stroke-width="10" d="m308,24q59,0 108,52t50,121q0,63 -52,87q-106,27 -136,37t-42,20q-60,42 -60,121q0,61 32,111t65,75q29,25 70,40t64,16l11,0l7,0q96,0 139,-64q1,0 13,13t26,29t20,22q1,0 4,0t5,1q13,0 13,-7t-28,-121t-32,-118t-16,-3q-20,0 -20,9q0,6 1,10q0,3 1,19t2,26q0,34 -9,59t-18,37t-25,25q-36,21 -82,21q-57,0 -106,-46t-50,-106q0,-30 15,-52t41,-31q4,-2 70,-19t67,-18q34,-11 66,-48t32,-100q0,-26 -8,-56q-5,-22 -18,-49t-36,-59t-66,-60t-94,-38q-12,-2 -34,-2q-99,0 -154,55l-10,11l-28,-31q-23,-27 -28,-31t-13,-4q-13,0 -13,8q0,3 58,235q2,6 20,6l13,0q6,-6 6,-11q0,-2 -1,-9t-4,-21t-2,-33q2,-39 18,-66t43,-40t52,-18t53,-5z"/>
         <path id="svg_1581" stroke-width="10" d="m66,637q-12,0 -17,0t-10,1t-7,3t-2,6t3,17t9,18q2,1 14,1q48,-3 109,-3q123,0 141,3l10,0q6,-6 6,-9t-2,-18q-4,-13 -10,-19l-12,0q-56,0 -56,-13q0,-5 50,-147t51,-144l3,3q4,4 12,13t21,24t32,37t43,51q92,107 107,126t16,31q0,16 -32,19q-17,0 -17,10q0,2 2,14q3,15 5,18t14,4q2,0 29,-1t79,-2q27,0 56,1t33,1q17,0 17,-9q0,-4 -3,-16t-5,-14q-2,-6 -21,-6q-72,-5 -117,-50q-9,-9 -140,-163l-129,-151l-26,-104q-27,-107 -27,-112q0,-11 68,-11q16,0 21,-1t6,-10q0,-2 -2,-12q-4,-17 -6,-19t-16,-3q-5,0 -42,0t-92,1q-62,0 -94,0t-36,-1q-18,0 -18,8q0,5 3,15q1,3 2,6t1,5t1,4t2,3t3,2t5,1t6,0t9,1t13,0q39,1 51,4t18,13q3,5 29,108l25,103l-123,349q-1,1 -2,2t-2,2t-3,2t-4,2t-5,2t-8,1t-9,1t-13,1t-17,1z"/>
         <path id="svg_1580" stroke-width="10" d="m42,0l-2,0q-14,0 -14,11q0,4 3,16q4,14 7,16t19,3q86,3 135,52q10,10 116,126t105,118q-109,278 -114,283q-9,11 -63,12l-28,0q-6,6 -6,8t2,19q4,13 10,19l14,0q34,-2 121,-2q33,0 61,0t45,1t20,0q17,0 17,-11q0,-1 -2,-13q-4,-15 -7,-18t-16,-3q-31,-3 -54,-17l77,-194l53,59q105,113 105,125q0,18 -24,25q-5,0 -13,2q-15,0 -15,11q0,2 2,16q4,13 10,19l12,0q1,0 25,0t54,-2t41,-1q90,0 99,3l8,0q7,-7 7,-11q-2,-25 -12,-35l-16,0q-34,-1 -61,-9t-41,-17t-24,-18l-11,-9q0,1 -95,-104l-87,-96q0,-1 31,-80t65,-162t37,-86q10,-9 61,-10q35,0 35,-9q0,-2 -2,-14q-4,-16 -7,-19t-14,-3q-3,0 -33,0t-89,1q-61,0 -93,0t-35,-1q-17,0 -17,9q0,1 2,15q2,10 4,14t5,5t9,2t16,1t26,7q17,8 17,10q-1,0 -47,117l-47,118q-188,-204 -193,-215q-4,-8 -4,-12q0,-19 29,-25q1,0 6,0t6,-1q3,0 4,0t3,-1t3,-3t1,-7q0,-9 -2,-16q-3,-13 -6,-15t-15,-3q-3,0 -18,0t-42,1t-59,0q-78,0 -100,-2z"/>
         <path id="svg_1574" stroke-width="10" d="m52,289q7,42 54,97t116,56q35,0 64,-18t43,-45q42,63 101,63q37,0 64,-22t28,-59q0,-29 -14,-47t-27,-22t-23,-4q-19,0 -31,11t-12,29q0,46 50,63q-11,13 -40,13q-13,0 -19,-2q-38,-16 -56,-66q-60,-221 -60,-258q0,-28 16,-40t35,-12q37,0 73,33t49,81q3,10 6,11t16,2l4,0q15,0 15,-8q0,-1 -2,-11q-16,-57 -62,-101t-107,-44q-70,0 -106,63q-41,-62 -94,-62l-6,0q-49,0 -70,26t-22,55q0,32 19,52t45,20q43,0 43,-42q0,-20 -12,-35t-23,-20t-13,-5l-3,-1q0,-1 6,-4t16,-7t19,-3q36,0 62,45q9,16 23,68t28,108t16,66q5,27 5,39q0,28 -15,40t-34,12q-40,0 -75,-32t-49,-82q-2,-9 -5,-10t-16,-2l-14,0q-6,6 -6,11z"/>
         <path id="svg_1579" stroke-width="10" d="m56,237t0,13t14,20l299,0l0,150l1,150q10,13 19,13q13,0 20,-15l0,-298l298,0q15,-8 15,-20t-15,-20l-298,0l0,-298q-8,-14 -18,-14l-2,0l-2,0q-12,0 -18,14l0,298l-299,0q-14,7 -14,20l0,-13z"/>
         <path id="svg_1570" stroke-width="10" d="m21,287q0,14 15,48t48,71t74,36q41,0 66,-23t26,-64q-2,-19 -3,-21q0,-3 -16,-46t-33,-97t-16,-86q0,-43 14,-60t42,-18q23,0 43,11t31,23t27,33q0,1 5,20t14,59t19,74q38,150 42,157q13,27 43,27q13,0 21,-7t11,-12t2,-9q0,-13 -49,-210t-56,-216q-28,-83 -97,-132t-138,-50q-45,0 -79,22t-34,66q0,22 7,37t19,22t20,10t17,3q44,0 44,-42q0,-20 -12,-35t-23,-20t-13,-5l-3,-1q2,-5 19,-12t34,-7l8,0q17,0 26,2q33,9 61,38t43,62t23,56t8,30l-6,-4q-6,-4 -19,-11t-26,-12q-20,-5 -39,-5q-46,0 -81,22t-46,71q-1,7 -1,31q0,57 35,149t35,117q0,1 0,2q0,9 0,12t-4,7t-11,4l-4,0q-23,0 -42,-19t-30,-41t-17,-42t-8,-22q-2,-2 -16,-2l-14,0q-6,6 -6,9z"/>
         <path id="svg_1568" stroke-width="10" d="m56,347q0,13 14,20l637,0q15,-8 15,-20q0,-11 -14,-19l-318,-1l-318,0q-16,5 -16,20zm0,-194q0,15 16,20l636,0q14,-10 14,-20q0,-13 -15,-20l-637,0q-14,7 -14,20z"/>
         <path id="svg_1578" stroke-width="10" d="m127,463q-27,0 -42,17t-16,44q0,55 48,98t116,43q35,0 44,-1q74,-12 113,-53t40,-89q0,-52 -34,-101t-94,-71l-3,-2q0,-1 9,-3t29,-9t38,-21q82,-53 82,-140q0,-79 -62,-138t-157,-59q-80,0 -138,43t-58,109q0,28 18,45t45,18q28,0 46,-18t18,-45q0,-11 -3,-20t-7,-16t-11,-12t-12,-8t-10,-4t-8,-3l-4,-1q51,-45 124,-45q55,0 83,53q17,33 17,101l0,20q0,95 -64,127q-15,6 -61,7l-42,1l-3,2q-2,3 -2,16q0,18 8,18q28,0 58,5q34,5 62,42t28,112l0,8q0,57 -35,79q-22,14 -47,14q-32,0 -59,-11t-38,-23t-11,-12l3,0q3,-1 8,-2t10,-5t12,-7t10,-11t8,-15t3,-20q0,-22 -14,-39t-45,-18z"/>
         <path id="svg_1577" stroke-width="10" d="m42,313q0,163 81,258t180,95q69,0 99,-36t30,-80q0,-25 -14,-40t-39,-15q-23,0 -38,14t-15,39q0,44 47,53q-22,22 -62,25q-71,0 -117,-60q-47,-66 -47,-202l1,-4q5,6 8,13q41,60 107,60l4,0q46,0 81,-19q24,-14 48,-40t39,-57q21,-49 21,-107l0,-18q0,-23 -5,-43q-11,-59 -64,-115t-134,-56q-28,0 -54,8t-56,30t-51,59t-36,97t-14,141zm215,84q-30,0 -52,-17t-34,-45t-17,-57t-6,-62q0,-83 12,-119t38,-58q24,-18 53,-18q51,0 78,38q13,18 18,45t5,105q0,80 -5,107t-18,45q-27,36 -72,36z"/>
         <path id="svg_1566" stroke-width="10" d="m96,585q56,81 153,81q48,0 96,-26t78,-92q37,-83 37,-228q0,-155 -43,-237q-20,-42 -55,-67t-61,-31t-51,-7q-26,0 -52,6t-61,32t-55,67q-43,82 -43,237q0,174 57,265zm225,12q-30,32 -71,32q-42,0 -72,-32q-25,-26 -33,-72t-8,-192q0,-158 8,-208t36,-79q28,-30 69,-30q40,0 68,30q29,30 36,84t8,203q0,145 -8,191t-33,73z"/>
        </defs>
        <g stroke="rgb(68, 68, 68)" fill="rgb(68, 68, 68)" stroke-width="0" transform="matrix(1 0 0 -1 0 0)" id="svg_1564">
         <use xlink:href="#svg_1576" id="svg_1575"/>
         <use xlink:href="#svg_1574" x="505" y="0" id="svg_1573"/>
         <use xlink:href="#svg_1572" x="1304" y="0" id="svg_1571"/>
         <use xlink:href="#svg_1570" x="2309" y="0" id="svg_1569"/>
         <use xlink:href="#svg_1568" x="3089" y="0" id="svg_1567"/>
         <use xlink:href="#svg_1566" x="4150" y="0" id="svg_1565"/>
        </g>
       </svg>
      </g>
     </g>
     <g class="traces" id="svg_1420">
      <g class="legendfill" id="svg_1455"/>
      <g class="legendlines" id="svg_1453">
       <path class="js-line" d="m5,71.5l30,0" stroke-width="2px" stroke="rgb(31, 119, 180)" fill="none" id="svg_1454"/>
      </g>
      <g class="legendsymbols" id="svg_1450">
       <g class="legendpoints" id="svg_1451">
        <path class="scatterpts" d="m23,71.5a3,3 0 1 1 -3,-3a3,3 0 0 1 3,3z" fill="rgb(31, 119, 180)" stroke-width="0px" id="svg_1452"/>
       </g>
      </g>
      <rect class="legendtoggle" x="0" y="62" height="19" width="126.98438" fill-opacity="0" fill="rgb(0, 0, 0)" id="svg_1449"/>
      <g class="legendtext-math-group" id="svg_1421">
       <svg xmlns:xlink="http://www.w3.org/1999/xlink" viewBox="0 -688.7742397004789 5665 916.5484794009578" class="legendtext-math" height="2.182ex" preserveAspectRatio="xMinYMin meet" x="40" y="65.64548" width="13.091ex" id="svg_1587">
        <defs>
         <path id="svg_1613" stroke-width="10" d="m33,157q0,101 76,192t171,92q60,0 92,-52q1,1 5,6t11,11t16,12q34,24 46,24q4,0 7,-3t3,-5q0,-9 -69,-285q-71,-284 -71,-288q0,-8 45,-9l25,0q6,-8 6,-9t-3,-18q-4,-13 -10,-19l-13,0q-31,2 -108,2q-28,0 -51,0t-37,0t-17,-1q-14,0 -14,8q0,3 2,15q4,16 7,19t20,3q48,0 58,7q8,5 28,88t21,85q0,1 -7,-3q-48,-39 -100,-39q-55,0 -97,40t-42,127zm319,169q-23,79 -75,79q-35,0 -67,-31t-50,-81q-29,-79 -41,-164q0,-3 0,-11t-1,-12q0,-45 18,-62t43,-18q54,0 111,72l8,11l54,217z"/>
         <path id="svg_1600" stroke-width="10" d="m109,429q-27,0 -43,18t-16,44q0,71 53,123t132,52q91,0 152,-56t62,-145q0,-43 -20,-82t-48,-68t-80,-74q-36,-31 -100,-92l-59,-56l76,-1q157,0 167,5q7,2 24,89l0,3l40,0l0,-3q-1,-3 -13,-91t-15,-92l0,-3l-371,0l0,19l0,12q0,7 6,15t30,35q29,32 50,56q9,10 34,37t34,37t29,33t28,34t23,30t21,32t15,29t13,32t7,30t3,33q0,63 -34,109t-97,46q-33,0 -58,-17t-35,-33t-10,-19q0,-1 5,-1q18,0 37,-14t19,-46q0,-25 -16,-42t-45,-18z"/>
         <path id="svg_1612" stroke-width="10" d="m94,250q0,69 10,131t23,107t37,88t38,67t42,52t33,34t25,21l13,0l4,0q14,0 14,-9q0,-3 -17,-21t-41,-53t-49,-86t-42,-138t-17,-193t17,-192t41,-139t49,-86t42,-53t17,-21q0,-9 -15,-9l-3,0l-13,0l-28,24q-94,85 -137,212t-43,264z"/>
         <path id="svg_1611" stroke-width="10" d="m84,237t0,13t14,20l581,0q15,-8 15,-20t-15,-20l-581,0q-14,7 -14,20l0,-13z"/>
         <path id="svg_1594" stroke-width="10" d="m213,578l-13,-5q-14,-5 -40,-10t-58,-7l-19,0l0,46l19,0q47,2 87,15t56,24t28,22q2,3 12,3q9,0 17,-6l0,-299l1,-300q7,-7 12,-9t24,-4t62,-2l26,0l0,-46l-11,0q-21,3 -159,3q-136,0 -157,-3l-12,0l0,46l26,0q22,0 38,0t25,1t16,3t8,2t6,5t6,4l0,517z"/>
         <path id="svg_1610" stroke-width="10" d="m60,749l4,1q5,0 10,0l12,0l28,-24q94,-85 137,-212t43,-264q0,-68 -10,-131t-23,-107t-37,-88t-38,-67t-41,-51t-32,-33t-23,-19q-3,-3 -4,-4l-12,0q-8,0 -11,0t-5,3t-3,9q1,1 11,13q155,161 155,475t-155,475q-10,12 -11,13q0,8 5,11z"/>
         <path id="svg_1609" stroke-width="10" d="m308,24q59,0 108,52t50,121q0,63 -52,87q-106,27 -136,37t-42,20q-60,42 -60,121q0,61 32,111t65,75q29,25 70,40t64,16l11,0l7,0q96,0 139,-64q1,0 13,13t26,29t20,22q1,0 4,0t5,1q13,0 13,-7t-28,-121t-32,-118t-16,-3q-20,0 -20,9q0,6 1,10q0,3 1,19t2,26q0,34 -9,59t-18,37t-25,25q-36,21 -82,21q-57,0 -106,-46t-50,-106q0,-30 15,-52t41,-31q4,-2 70,-19t67,-18q34,-11 66,-48t32,-100q0,-26 -8,-56q-5,-22 -18,-49t-36,-59t-66,-60t-94,-38q-12,-2 -34,-2q-99,0 -154,55l-10,11l-28,-31q-23,-27 -28,-31t-13,-4q-13,0 -13,8q0,3 58,235q2,6 20,6l13,0q6,-6 6,-11q0,-2 -1,-9t-4,-21t-2,-33q2,-39 18,-66t43,-40t52,-18t53,-5z"/>
         <path id="svg_1608" stroke-width="10" d="m66,637q-12,0 -17,0t-10,1t-7,3t-2,6t3,17t9,18q2,1 14,1q48,-3 109,-3q123,0 141,3l10,0q6,-6 6,-9t-2,-18q-4,-13 -10,-19l-12,0q-56,0 -56,-13q0,-5 50,-147t51,-144l3,3q4,4 12,13t21,24t32,37t43,51q92,107 107,126t16,31q0,16 -32,19q-17,0 -17,10q0,2 2,14q3,15 5,18t14,4q2,0 29,-1t79,-2q27,0 56,1t33,1q17,0 17,-9q0,-4 -3,-16t-5,-14q-2,-6 -21,-6q-72,-5 -117,-50q-9,-9 -140,-163l-129,-151l-26,-104q-27,-107 -27,-112q0,-11 68,-11q16,0 21,-1t6,-10q0,-2 -2,-12q-4,-17 -6,-19t-16,-3q-5,0 -42,0t-92,1q-62,0 -94,0t-36,-1q-18,0 -18,8q0,5 3,15q1,3 2,6t1,5t1,4t2,3t3,2t5,1t6,0t9,1t13,0q39,1 51,4t18,13q3,5 29,108l25,103l-123,349q-1,1 -2,2t-2,2t-3,2t-4,2t-5,2t-8,1t-9,1t-13,1t-17,1z"/>
         <path id="svg_1607" stroke-width="10" d="m42,0l-2,0q-14,0 -14,11q0,4 3,16q4,14 7,16t19,3q86,3 135,52q10,10 116,126t105,118q-109,278 -114,283q-9,11 -63,12l-28,0q-6,6 -6,8t2,19q4,13 10,19l14,0q34,-2 121,-2q33,0 61,0t45,1t20,0q17,0 17,-11q0,-1 -2,-13q-4,-15 -7,-18t-16,-3q-31,-3 -54,-17l77,-194l53,59q105,113 105,125q0,18 -24,25q-5,0 -13,2q-15,0 -15,11q0,2 2,16q4,13 10,19l12,0q1,0 25,0t54,-2t41,-1q90,0 99,3l8,0q7,-7 7,-11q-2,-25 -12,-35l-16,0q-34,-1 -61,-9t-41,-17t-24,-18l-11,-9q0,1 -95,-104l-87,-96q0,-1 31,-80t65,-162t37,-86q10,-9 61,-10q35,0 35,-9q0,-2 -2,-14q-4,-16 -7,-19t-14,-3q-3,0 -33,0t-89,1q-61,0 -93,0t-35,-1q-17,0 -17,9q0,1 2,15q2,10 4,14t5,5t9,2t16,1t26,7q17,8 17,10q-1,0 -47,117l-47,118q-188,-204 -193,-215q-4,-8 -4,-12q0,-19 29,-25q1,0 6,0t6,-1q3,0 4,0t3,-1t3,-3t1,-7q0,-9 -2,-16q-3,-13 -6,-15t-15,-3q-3,0 -18,0t-42,1t-59,0q-78,0 -100,-2z"/>
         <path id="svg_1604" stroke-width="10" d="m52,289q7,42 54,97t116,56q35,0 64,-18t43,-45q42,63 101,63q37,0 64,-22t28,-59q0,-29 -14,-47t-27,-22t-23,-4q-19,0 -31,11t-12,29q0,46 50,63q-11,13 -40,13q-13,0 -19,-2q-38,-16 -56,-66q-60,-221 -60,-258q0,-28 16,-40t35,-12q37,0 73,33t49,81q3,10 6,11t16,2l4,0q15,0 15,-8q0,-1 -2,-11q-16,-57 -62,-101t-107,-44q-70,0 -106,63q-41,-62 -94,-62l-6,0q-49,0 -70,26t-22,55q0,32 19,52t45,20q43,0 43,-42q0,-20 -12,-35t-23,-20t-13,-5l-3,-1q0,-1 6,-4t16,-7t19,-3q36,0 62,45q9,16 23,68t28,108t16,66q5,27 5,39q0,28 -15,40t-34,12q-40,0 -75,-32t-49,-82q-2,-9 -5,-10t-16,-2l-14,0q-6,6 -6,11z"/>
         <path id="svg_1602" stroke-width="10" d="m56,237t0,13t14,20l299,0l0,150l1,150q10,13 19,13q13,0 20,-15l0,-298l298,0q15,-8 15,-20t-15,-20l-298,0l0,-298q-8,-14 -18,-14l-2,0l-2,0q-12,0 -18,14l0,298l-299,0q-14,7 -14,20l0,-13z"/>
         <path id="svg_1598" stroke-width="10" d="m21,287q0,14 15,48t48,71t74,36q41,0 66,-23t26,-64q-2,-19 -3,-21q0,-3 -16,-46t-33,-97t-16,-86q0,-43 14,-60t42,-18q23,0 43,11t31,23t27,33q0,1 5,20t14,59t19,74q38,150 42,157q13,27 43,27q13,0 21,-7t11,-12t2,-9q0,-13 -49,-210t-56,-216q-28,-83 -97,-132t-138,-50q-45,0 -79,22t-34,66q0,22 7,37t19,22t20,10t17,3q44,0 44,-42q0,-20 -12,-35t-23,-20t-13,-5l-3,-1q2,-5 19,-12t34,-7l8,0q17,0 26,2q33,9 61,38t43,62t23,56t8,30l-6,-4q-6,-4 -19,-11t-26,-12q-20,-5 -39,-5q-46,0 -81,22t-46,71q-1,7 -1,31q0,57 35,149t35,117q0,1 0,2q0,9 0,12t-4,7t-11,4l-4,0q-23,0 -42,-19t-30,-41t-17,-42t-8,-22q-2,-2 -16,-2l-14,0q-6,6 -6,9z"/>
         <path id="svg_1596" stroke-width="10" d="m56,347q0,13 14,20l637,0q15,-8 15,-20q0,-11 -14,-19l-318,-1l-318,0q-16,5 -16,20zm0,-194q0,15 16,20l636,0q14,-10 14,-20q0,-13 -15,-20l-637,0q-14,7 -14,20z"/>
         <path id="svg_1606" stroke-width="10" d="m127,463q-27,0 -42,17t-16,44q0,55 48,98t116,43q35,0 44,-1q74,-12 113,-53t40,-89q0,-52 -34,-101t-94,-71l-3,-2q0,-1 9,-3t29,-9t38,-21q82,-53 82,-140q0,-79 -62,-138t-157,-59q-80,0 -138,43t-58,109q0,28 18,45t45,18q28,0 46,-18t18,-45q0,-11 -3,-20t-7,-16t-11,-12t-12,-8t-10,-4t-8,-3l-4,-1q51,-45 124,-45q55,0 83,53q17,33 17,101l0,20q0,95 -64,127q-15,6 -61,7l-42,1l-3,2q-2,3 -2,16q0,18 8,18q28,0 58,5q34,5 62,42t28,112l0,8q0,57 -35,79q-22,14 -47,14q-32,0 -59,-11t-38,-23t-11,-12l3,0q3,-1 8,-2t10,-5t12,-7t10,-11t8,-15t3,-20q0,-22 -14,-39t-45,-18z"/>
         <path id="svg_1605" stroke-width="10" d="m42,313q0,163 81,258t180,95q69,0 99,-36t30,-80q0,-25 -14,-40t-39,-15q-23,0 -38,14t-15,39q0,44 47,53q-22,22 -62,25q-71,0 -117,-60q-47,-66 -47,-202l1,-4q5,6 8,13q41,60 107,60l4,0q46,0 81,-19q24,-14 48,-40t39,-57q21,-49 21,-107l0,-18q0,-23 -5,-43q-11,-59 -64,-115t-134,-56q-28,0 -54,8t-56,30t-51,59t-36,97t-14,141zm215,84q-30,0 -52,-17t-34,-45t-17,-57t-6,-62q0,-83 12,-119t38,-58q24,-18 53,-18q51,0 78,38q13,18 18,45t5,105q0,80 -5,107t-18,45q-27,36 -72,36z"/>
         <path id="svg_1591" stroke-width="10" d="m96,585q56,81 153,81q48,0 96,-26t78,-92q37,-83 37,-228q0,-155 -43,-237q-20,-42 -55,-67t-61,-31t-51,-7q-26,0 -52,6t-61,32t-55,67q-43,82 -43,237q0,174 57,265zm225,12q-30,32 -71,32q-42,0 -72,-32q-25,-26 -33,-72t-8,-192q0,-158 8,-208t36,-79q28,-30 69,-30q40,0 68,30q29,30 36,84t8,203q0,145 -8,191t-33,73z"/>
        </defs>
        <g stroke="rgb(68, 68, 68)" fill="rgb(68, 68, 68)" stroke-width="0" transform="matrix(1 0 0 -1 0 0)" id="svg_1588">
         <use xlink:href="#svg_1604" id="svg_1603"/>
         <use xlink:href="#svg_1602" x="799" y="0" id="svg_1601"/>
         <use xlink:href="#svg_1600" x="1804" y="0" id="svg_1599"/>
         <use xlink:href="#svg_1598" x="2309" y="0" id="svg_1597"/>
         <use xlink:href="#svg_1596" x="3089" y="0" id="svg_1595"/>
         <g id="svg_1589">
          <use xlink:href="#svg_1594" y="0" x="4150" id="svg_1593"/>
          <use xlink:href="#svg_1591" x="4655" y="0" id="svg_1592"/>
          <use xlink:href="#svg_1591" x="5160" y="0" id="svg_1590"/>
         </g>
        </g>
       </svg>
      </g>
     </g>
    </svg>
   </g> 
  </g>
 </g>
</svg>
