<?xml version="1.0" encoding="UTF-8"?>
<svg xmlns="http://www.w3.org/2000/svg" xmlns:xlink="http://www.w3.org/1999/xlink" width="542.09116pt" height="503.75967pt" viewBox="0 0 542.09116 503.75967" version="1.1">
<g id="surface1">
<path style="fill:none;stroke-width:4.065;stroke-linecap:round;stroke-linejoin:round;stroke:rgb(16.078431%,7.843137%,7.843137%);stroke-opacity:1;stroke-miterlimit:4;" d="M 135.98236 446.434313 L 631.91986 446.434313 M 383.95111 611.746813 L 383.95111 115.813219 M 135.98236 198.469469 C 137.654235 203.477281 139.322204 198.571031 140.994079 203.477281 C 142.662047 208.387438 144.333922 203.680406 146.001891 208.489 C 147.673766 213.293688 149.341735 208.789781 151.01361 213.496813 C 152.681579 218.203844 154.353454 213.903063 156.021422 218.504625 C 157.689391 223.110094 159.361266 219.012438 161.029235 223.516344 C 162.70111 228.02025 164.369079 224.121813 166.040954 228.524156 C 167.708922 232.9265 169.380797 229.235094 171.048766 233.535875 C 172.720641 237.836656 174.38861 234.344469 176.060485 238.543688 C 177.728454 242.742906 179.400329 239.453844 181.068297 243.5515 C 182.740172 247.653063 184.408141 244.567125 186.07611 248.563219 C 187.747985 252.559313 189.415954 249.6765 191.087829 253.571031 C 192.755797 257.469469 194.427672 254.785875 196.095641 258.58275 C 197.767516 262.375719 199.435485 259.899156 201.10736 263.590563 C 202.775329 267.285875 204.447204 265.008531 206.115172 268.602281 C 207.787047 272.192125 209.455016 270.117906 211.126891 273.610094 C 212.79486 277.102281 214.466735 275.227281 216.134704 278.617906 C 217.802672 282.008531 219.474547 280.340563 221.142516 283.629625 C 222.814391 286.918688 224.48236 285.449938 226.154235 288.637438 C 227.822204 291.824938 229.494079 290.559313 231.162047 293.649156 C 232.833922 296.735094 234.501891 295.672594 236.173766 298.656969 C 237.841735 301.641344 239.51361 300.781969 241.181579 303.664781 C 242.853454 306.5515 244.521422 305.891344 246.193297 308.6765 C 247.861266 311.45775 249.529235 311.004625 251.20111 313.684313 C 252.869079 316.367906 254.540954 316.114 256.208922 318.696031 C 257.880797 321.274156 259.548766 321.223375 261.220641 323.703844 C 262.88861 326.184313 264.560485 326.336656 266.228454 328.715563 C 267.900329 331.090563 269.568297 331.446031 271.240172 333.723375 C 272.908141 336.000719 274.580016 336.555406 276.247985 338.731188 C 277.915954 340.906969 279.587829 341.668688 281.255797 343.742906 C 282.927672 345.817125 284.595641 346.778063 286.267516 348.750719 C 287.935485 350.723375 289.60736 351.887438 291.275329 353.762438 C 292.947204 355.633531 294.615172 357.000719 296.287047 358.77025 C 297.955016 360.539781 299.626891 362.110094 301.29486 363.778063 C 302.966735 365.449938 304.634704 367.219469 306.306579 368.789781 C 307.974547 370.356188 309.642516 372.33275 311.314391 373.797594 C 312.98236 375.266344 314.654235 377.442125 316.322204 378.809313 C 317.994079 380.172594 319.662047 382.5515 321.333922 383.817125 C 323.001891 385.08275 324.673766 387.664781 326.341735 388.828844 C 328.01361 389.992906 329.681579 392.774156 331.353454 393.836656 C 333.021422 394.899156 334.693297 397.883531 336.361266 398.844469 C 338.033141 399.809313 339.70111 402.996813 341.369079 403.856188 C 343.040954 404.715563 344.708922 408.106188 346.380797 408.864 C 348.048766 409.625719 349.720641 413.215563 351.38861 413.875719 C 353.060485 414.531969 354.728454 418.328844 356.400329 418.883531 C 358.068297 419.442125 359.740172 423.438219 361.408141 423.891344 C 363.080016 424.348375 364.747985 428.547594 366.41986 428.903063 C 368.087829 429.258531 369.755797 433.660875 371.427672 433.910875 C 373.095641 434.164781 374.767516 438.77025 376.435485 438.922594 C 378.10736 439.074938 379.775329 443.879625 381.447204 443.930406 C 383.115172 443.981188 384.787047 448.992906 386.455016 448.942125 C 388.126891 448.891344 389.79486 454.102281 391.466735 453.949938 C 393.134704 453.797594 394.806579 459.211656 396.474547 458.95775 C 398.146422 458.70775 399.814391 464.324938 401.48236 463.969469 C 403.154235 463.614 404.822204 469.434313 406.494079 468.977281 C 408.162047 468.524156 409.833922 474.543688 411.501891 473.989 C 413.173766 473.430406 414.841735 479.653063 416.51361 478.996813 C 418.181579 478.340563 419.853454 484.766344 421.521422 484.008531 C 423.193297 483.246813 424.861266 489.875719 426.533141 489.016344 C 428.20111 488.156969 429.869079 494.985094 431.540954 494.024156 C 433.208922 493.063219 434.880797 500.098375 436.548766 499.035875 C 438.220641 497.973375 439.88861 505.20775 441.560485 504.043688 C 443.228454 502.879625 444.900329 510.317125 446.568297 509.055406 C 448.240172 507.789781 449.908141 515.430406 451.580016 514.063219 C 453.247985 512.696031 454.91986 520.539781 456.587829 519.071031 C 458.259704 517.606188 459.927672 525.649156 461.595641 524.08275 C 463.267516 522.512438 464.935485 530.762438 466.60736 529.090563 C 468.275329 527.422594 469.947204 525.852281 471.615172 524.08275 C 473.287047 522.309313 474.955016 520.946031 476.626891 519.071031 C 478.29486 517.199938 479.966735 516.035875 481.634704 514.063219 C 483.306579 512.090563 484.974547 511.129625 486.646422 509.055406 C 488.314391 506.977281 489.986266 506.219469 491.654235 504.043688 C 493.322204 501.867906 494.994079 501.313219 496.662047 499.035875 C 498.333922 496.758531 500.001891 496.403063 501.673766 494.024156 C 503.341735 491.649156 505.01361 491.496813 506.681579 489.016344 C 508.353454 486.535875 510.021422 486.586656 511.693297 484.008531 C 513.361266 481.4265 515.033141 481.680406 516.70111 478.996813 C 518.372985 476.317125 520.040954 476.77025 521.708922 473.989 C 523.380797 471.203844 525.048766 471.864 526.720641 468.977281 C 528.38861 466.094469 530.060485 466.953844 531.728454 463.969469 C 533.400329 460.985094 535.068297 462.047594 536.740172 458.95775 C 538.408141 455.871813 540.080016 457.137438 541.747985 453.949938 C 543.41986 450.762438 545.087829 452.231188 546.759704 448.942125 C 548.427672 445.653063 550.099547 447.321031 551.767516 443.930406 C 553.435485 440.539781 555.10736 442.414781 556.775329 438.922594 C 558.447204 435.430406 560.115172 437.504625 561.787047 433.910875 C 563.455016 430.321031 565.126891 432.598375 566.79486 428.903063 C 568.466735 425.20775 570.134704 427.688219 571.806579 423.891344 C 573.474547 420.098375 575.146422 422.781969 576.814391 418.883531 C 578.486266 414.989 580.154235 417.871813 581.822204 413.875719 C 583.494079 409.875719 585.162047 412.961656 586.833922 408.864 C 588.501891 404.766344 590.173766 408.055406 591.841735 403.856188 C 593.51361 399.656969 595.181579 403.14525 596.853454 398.844469 C 598.521422 394.543688 600.193297 398.239 601.861266 393.836656 C 603.533141 389.434313 605.20111 393.328844 606.872985 388.828844 C 608.540954 384.324938 610.212829 388.422594 611.880797 383.817125 C 613.548766 379.211656 615.220641 383.512438 616.88861 378.809313 C 618.560485 374.102281 620.228454 378.606188 621.900329 373.797594 C 623.568297 368.992906 625.240172 373.696031 626.908141 368.789781 C 628.580016 363.879625 630.247985 368.789781 631.91986 363.778063 " transform="matrix(1,0,0,1,-133.95111,-110.02025)"/>
<path style=" stroke:none;fill-rule:nonzero;fill:rgb(0%,0%,0%);fill-opacity:1;" d="M 298.242188 3.222656 L 298.253906 3.179688 L 298.265625 3.144531 L 298.273438 3.082031 L 298.296875 3.03125 L 298.304688 2.964844 L 298.316406 2.914062 L 298.339844 2.871094 L 298.347656 2.816406 L 298.371094 2.730469 L 298.371094 2.6875 L 298.378906 2.648438 L 298.390625 2.605469 L 298.402344 2.574219 L 298.402344 2.539062 L 298.414062 2.507812 L 298.414062 2.476562 L 298.421875 2.445312 L 298.421875 2.414062 L 298.433594 2.359375 L 298.433594 2.191406 L 298.445312 2.136719 L 298.445312 2.007812 C 298.445312 1.042969 297.710938 0.574219 296.914062 0.574219 C 296.382812 0.574219 295.53125 0.894531 295.054688 1.691406 C 294.945312 1.957031 294.523438 3.582031 294.320312 4.550781 C 293.9375 5.921875 293.574219 7.355469 293.257812 8.78125 L 290.867188 18.316406 C 290.664062 19.113281 288.386719 22.8125 284.890625 22.8125 C 282.191406 22.8125 281.597656 20.496094 281.597656 18.527344 C 281.597656 16.09375 282.511719 12.796875 284.304688 8.152344 C 285.15625 5.972656 285.371094 5.390625 285.371094 4.328125 C 285.371094 1.957031 283.679688 0 281.023438 0 C 275.984375 0 274.027344 7.664062 274.027344 8.152344 C 274.027344 8.683594 274.558594 8.683594 274.675781 8.683594 C 275.207031 8.683594 275.25 8.566406 275.515625 7.71875 C 276.949219 2.730469 279.054688 1.160156 280.863281 1.160156 C 281.289062 1.160156 282.191406 1.160156 282.191406 2.847656 C 282.191406 4.175781 281.660156 5.539062 281.289062 6.558594 C 279.171875 12.171875 278.203125 15.191406 278.203125 17.6875 C 278.203125 22.386719 281.554688 23.980469 284.667969 23.980469 C 286.75 23.980469 288.539062 23.078125 290.015625 21.601562 C 289.335938 24.34375 288.707031 26.945312 286.582031 29.765625 C 285.199219 31.550781 283.191406 33.101562 280.757812 33.101562 C 280.023438 33.101562 277.632812 32.929688 276.726562 30.871094 C 277.578125 30.871094 278.28125 30.871094 279.003906 30.222656 C 279.535156 29.765625 280.066406 29.0625 280.066406 28.0625 C 280.066406 26.414062 278.640625 26.203125 278.109375 26.203125 C 276.898438 26.203125 275.132812 27.054688 275.132812 29.648438 C 275.132812 32.304688 277.480469 34.261719 280.757812 34.261719 C 286.21875 34.261719 291.664062 29.421875 293.160156 23.449219 Z M 298.242188 3.222656 "/>
<path style=" stroke:none;fill-rule:nonzero;fill:rgb(0%,0%,0%);fill-opacity:1;" d="M 531.875 332.171875 L 531.90625 332.03125 L 531.949219 331.871094 L 531.992188 331.703125 L 532.035156 331.511719 L 532.097656 331.308594 L 532.164062 331.085938 L 532.226562 330.851562 L 532.300781 330.617188 L 532.386719 330.375 L 532.480469 330.117188 L 532.589844 329.851562 L 532.695312 329.597656 L 532.8125 329.332031 L 532.9375 329.066406 L 533.078125 328.800781 L 533.226562 328.535156 L 533.386719 328.28125 L 533.542969 328.023438 L 533.726562 327.78125 L 534.109375 327.3125 L 534.320312 327.101562 L 534.542969 326.898438 L 534.777344 326.707031 L 535.023438 326.535156 L 535.289062 326.386719 L 535.414062 326.3125 L 535.554688 326.25 L 535.703125 326.195312 L 535.839844 326.144531 L 535.988281 326.089844 L 536.136719 326.046875 L 536.457031 325.984375 L 536.617188 325.960938 L 536.785156 325.941406 L 536.957031 325.929688 L 537.128906 325.929688 C 537.394531 325.929688 538.65625 325.929688 539.761719 326.609375 C 538.285156 326.875 537.222656 328.207031 537.222656 329.46875 C 537.222656 330.308594 537.808594 331.332031 539.230469 331.332031 C 540.402344 331.332031 542.089844 330.382812 542.089844 328.257812 C 542.089844 325.496094 538.964844 324.773438 537.167969 324.773438 C 534.097656 324.773438 532.238281 327.578125 531.609375 328.789062 C 530.28125 325.304688 527.421875 324.773438 525.902344 324.773438 C 520.386719 324.773438 517.355469 331.597656 517.355469 332.925781 C 517.355469 333.457031 517.886719 333.457031 518.003906 333.457031 C 518.417969 333.457031 518.589844 333.339844 518.683594 332.871094 C 520.480469 327.257812 523.988281 325.929688 525.785156 325.929688 C 526.792969 325.929688 528.632812 326.398438 528.632812 329.46875 C 528.632812 331.109375 527.742188 334.667969 525.785156 342.078125 C 524.933594 345.363281 523.085938 347.582031 520.746094 347.582031 C 520.425781 347.582031 519.214844 347.582031 518.109375 346.894531 C 519.4375 346.636719 520.597656 345.53125 520.597656 344.035156 C 520.597656 342.609375 519.4375 342.195312 518.640625 342.195312 C 517.046875 342.195312 515.71875 343.566406 515.71875 345.265625 C 515.71875 347.691406 518.375 348.753906 520.691406 348.753906 C 524.199219 348.753906 526.09375 345.042969 526.261719 344.734375 C 526.890625 346.691406 528.804688 348.753906 531.972656 348.753906 C 537.433594 348.753906 540.464844 341.929688 540.464844 340.601562 C 540.464844 340.070312 539.988281 340.070312 539.816406 340.070312 C 539.347656 340.070312 539.230469 340.28125 539.136719 340.640625 C 537.394531 346.308594 533.789062 347.582031 532.089844 347.582031 C 530.015625 347.582031 529.164062 345.894531 529.164062 344.085938 C 529.164062 342.917969 529.484375 341.757812 530.078125 339.429688 Z M 531.875 332.171875 "/>
<path style=" stroke:none;fill-rule:nonzero;fill:rgb(0%,0%,0%);fill-opacity:1;" d="M 27.75 38.921875 L 30.042969 41.347656 C 30.578125 41.917969 30.847656 42.199219 31.414062 41.664062 C 31.726562 41.371094 31.457031 41.085938 31.007812 40.609375 L 28.789062 38.261719 L 32.574219 35.800781 C 33.277344 35.363281 35.652344 33.867188 36.152344 33.714844 C 36.933594 33.460938 37.808594 33.539062 38.371094 34.132812 C 38.472656 34.242188 39.171875 34.976562 39.164062 36.003906 C 37.886719 34.859375 36.628906 35.511719 36.203125 35.914062 C 35.554688 36.527344 35.691406 37.351562 36.207031 37.898438 C 36.898438 38.628906 38.292969 38.855469 39.367188 37.84375 C 40.664062 36.617188 40.078125 34.699219 38.992188 33.546875 C 38.078125 32.585938 35.890625 31.28125 32.296875 33.078125 C 31.546875 33.476562 31.175781 33.652344 26.976562 36.34375 L 25.136719 34.398438 C 24.625 33.855469 24.335938 33.546875 23.800781 34.050781 C 23.457031 34.378906 23.695312 34.632812 24.199219 35.167969 L 25.964844 37.03125 L 12.796875 45.449219 C 9.582031 47.53125 6.550781 49.496094 5.15625 48.019531 C 5.050781 47.90625 4.390625 47.207031 4.390625 46.175781 C 5.703125 47.40625 6.960938 46.691406 7.386719 46.289062 C 8.03125 45.679688 7.902344 44.847656 7.386719 44.300781 C 6.695312 43.570312 5.300781 43.34375 4.222656 44.359375 C 2.953125 45.5625 3.445312 47.445312 4.539062 48.605469 C 6.007812 50.15625 8.746094 49.714844 10.300781 49.203125 C 12.933594 48.421875 16.96875 45.851562 17.199219 45.6875 Z M 27.75 38.921875 "/>
<path style=" stroke:none;fill-rule:nonzero;fill:rgb(0%,0%,0%);fill-opacity:1;" d="M 24.664062 71.867188 L 24.675781 71.855469 L 24.6875 71.835938 L 24.691406 71.828125 L 24.703125 71.820312 L 24.714844 71.796875 L 24.71875 71.792969 L 24.726562 71.773438 L 24.730469 71.757812 L 24.757812 71.703125 L 24.757812 71.683594 L 24.761719 71.65625 L 24.777344 71.601562 L 24.777344 71.566406 L 24.78125 71.527344 L 24.789062 71.488281 L 24.789062 71.445312 L 24.792969 71.421875 L 24.796875 71.394531 L 24.796875 71.375 L 24.800781 71.351562 L 24.804688 71.324219 L 24.800781 71.296875 L 24.808594 71.269531 L 24.808594 71.234375 L 24.8125 71.207031 L 24.816406 71.175781 L 24.816406 71.078125 L 24.820312 71.042969 L 24.820312 70.964844 L 24.828125 70.925781 L 24.824219 70.890625 L 24.824219 70.800781 C 25.054688 63.90625 29.539062 57.960938 33.859375 53.878906 C 38.777344 49.230469 44.714844 45.652344 51.515625 45.792969 C 52.210938 45.835938 52.269531 45.78125 52.351562 45.703125 C 52.550781 45.515625 52.527344 45.332031 52.367188 45.160156 C 52.101562 44.878906 47.78125 44.148438 42.621094 45.867188 C 38.140625 47.363281 34.6875 49.992188 32.3125 52.238281 C 30.105469 54.324219 26.992188 57.855469 25.257812 62.425781 C 23.375 67.402344 23.847656 71.574219 24.117188 71.855469 C 24.277344 72.027344 24.457031 72.058594 24.664062 71.867188 Z M 24.664062 71.867188 "/>
<path style=" stroke:none;fill-rule:nonzero;fill:rgb(0%,0%,0%);fill-opacity:1;" d="M 50.414062 68.4375 L 50.503906 68.386719 L 50.601562 68.324219 L 50.722656 68.265625 L 50.84375 68.191406 L 50.980469 68.117188 L 51.128906 68.039062 L 51.292969 67.960938 L 51.453125 67.882812 L 51.628906 67.804688 L 51.8125 67.726562 L 52.003906 67.644531 L 52.199219 67.578125 L 52.398438 67.507812 L 52.605469 67.441406 L 52.816406 67.382812 L 53.03125 67.328125 L 53.242188 67.277344 L 53.464844 67.238281 L 53.6875 67.210938 L 53.902344 67.191406 L 54.128906 67.179688 L 54.351562 67.1875 L 54.570312 67.203125 L 54.789062 67.234375 L 55.003906 67.277344 L 55.21875 67.34375 L 55.320312 67.375 L 55.425781 67.417969 L 55.53125 67.46875 L 55.628906 67.515625 L 55.730469 67.570312 L 55.828125 67.625 L 56.023438 67.765625 L 56.113281 67.839844 L 56.207031 67.914062 L 56.296875 68 L 56.390625 68.09375 C 56.523438 68.238281 57.15625 68.90625 57.355469 69.84375 C 56.46875 69.191406 55.222656 69.292969 54.546875 69.929688 C 54.101562 70.355469 53.851562 71.179688 54.570312 71.941406 C 55.152344 72.558594 56.515625 72.988281 57.648438 71.917969 C 59.125 70.523438 57.933594 68.492188 57.027344 67.535156 C 55.480469 65.894531 53.042969 66.316406 52.082031 66.59375 C 53.273438 64.125 52.113281 62.332031 51.34375 61.515625 C 48.566406 58.578125 43.398438 60.402344 42.6875 61.070312 C 42.40625 61.339844 42.671875 61.625 42.730469 61.6875 C 42.941406 61.90625 43.089844 61.9375 43.386719 61.753906 C 47.289062 59.882812 49.765625 61.085938 50.664062 62.039062 C 51.179688 62.582031 51.855469 63.800781 50.21875 65.347656 C 49.34375 66.171875 46.996094 67.492188 42.050781 70.179688 C 39.875 71.386719 37.753906 71.519531 36.578125 70.273438 C 36.414062 70.101562 35.804688 69.457031 35.617188 68.515625 C 36.421875 69.097656 37.597656 69.160156 38.394531 68.402344 C 39.15625 67.683594 38.792969 66.855469 38.390625 66.433594 C 37.585938 65.582031 36.183594 65.5625 35.277344 66.421875 C 33.984375 67.644531 34.757812 69.597656 35.925781 70.832031 C 37.695312 72.703125 40.628906 71.84375 40.878906 71.78125 C 40.152344 73.101562 40.015625 75.160156 41.613281 76.851562 C 44.367188 79.765625 49.535156 77.941406 50.246094 77.273438 C 50.527344 77.003906 50.28125 76.742188 50.203125 76.660156 C 49.964844 76.410156 49.792969 76.453125 49.550781 76.585938 C 45.648438 78.511719 43.148438 77.226562 42.296875 76.324219 C 41.25 75.21875 41.722656 73.910156 42.6875 73 C 43.3125 72.410156 44.089844 71.996094 45.632812 71.140625 Z M 50.414062 68.4375 "/>
<path style=" stroke:none;fill-rule:nonzero;fill:rgb(0%,0%,0%);fill-opacity:1;" d="M 62.972656 84.6875 L 63.179688 84.484375 L 63.398438 84.273438 L 63.617188 84.058594 L 63.84375 83.835938 L 64.296875 83.359375 L 64.765625 82.855469 L 65.242188 82.316406 L 65.722656 81.746094 L 66.199219 81.144531 L 66.6875 80.515625 L 67.15625 79.855469 L 67.617188 79.171875 L 68.074219 78.460938 L 68.507812 77.71875 L 68.929688 76.945312 L 69.328125 76.152344 L 69.515625 75.746094 L 69.691406 75.332031 L 69.863281 74.914062 L 70.035156 74.492188 C 71.90625 69.515625 71.449219 65.351562 71.179688 65.070312 C 71.019531 64.898438 70.804688 64.886719 70.632812 65.046875 C 70.550781 65.128906 70.492188 65.183594 70.484375 66.199219 C 70.316406 71.609375 67.339844 77.46875 61.429688 83.054688 C 56.605469 87.613281 50.644531 91.273438 43.765625 91.125 C 43.085938 91.078125 43.023438 91.140625 42.945312 91.214844 C 42.773438 91.375 42.769531 91.59375 42.929688 91.765625 C 43.195312 92.050781 47.515625 92.765625 52.679688 91.054688 C 57.140625 89.554688 60.597656 86.933594 62.972656 84.6875 Z M 62.972656 84.6875 "/>
<path style=" stroke:none;fill-rule:nonzero;fill:rgb(0%,0%,0%);fill-opacity:1;" d="M 93.664062 112.792969 L 93.742188 112.871094 L 93.820312 112.957031 L 93.894531 113.035156 L 93.945312 113.078125 L 93.980469 113.117188 L 94.027344 113.152344 L 94.070312 113.183594 L 94.199219 113.289062 L 94.246094 113.316406 L 94.289062 113.339844 L 94.335938 113.363281 L 94.378906 113.386719 L 94.425781 113.40625 L 94.476562 113.421875 L 94.527344 113.429688 L 94.570312 113.441406 L 94.625 113.445312 L 94.667969 113.445312 L 94.71875 113.441406 L 94.746094 113.4375 L 94.773438 113.429688 L 94.789062 113.425781 L 94.816406 113.421875 L 94.839844 113.410156 L 94.875 113.402344 L 94.894531 113.390625 L 94.925781 113.375 L 94.945312 113.363281 L 94.976562 113.347656 L 95.003906 113.332031 L 95.027344 113.3125 L 95.054688 113.296875 L 95.097656 113.253906 L 95.128906 113.226562 C 95.695312 112.691406 95.183594 112.152344 94.816406 111.757812 L 78.824219 94.835938 C 78.441406 94.433594 77.945312 93.90625 77.375 94.441406 C 76.820312 94.964844 77.320312 95.492188 77.726562 95.925781 Z M 93.664062 112.792969 "/>
<path style=" stroke:none;fill-rule:nonzero;fill:rgb(0%,0%,0%);fill-opacity:1;" d="M 88.203125 118.007812 L 88.238281 118.046875 L 88.273438 118.082031 L 88.351562 118.15625 L 88.425781 118.234375 L 88.464844 118.277344 L 88.507812 118.308594 L 88.550781 118.34375 L 88.589844 118.382812 L 88.632812 118.417969 L 88.675781 118.441406 L 88.71875 118.476562 L 88.761719 118.5 L 88.8125 118.527344 L 88.898438 118.574219 L 88.949219 118.59375 L 88.992188 118.605469 L 89.039062 118.613281 L 89.089844 118.621094 L 89.140625 118.625 L 89.191406 118.621094 L 89.210938 118.621094 L 89.238281 118.617188 L 89.261719 118.617188 L 89.289062 118.613281 L 89.3125 118.601562 L 89.339844 118.597656 L 89.363281 118.589844 L 89.390625 118.582031 L 89.417969 118.566406 L 89.441406 118.558594 L 89.523438 118.511719 L 89.546875 118.488281 L 89.574219 118.472656 L 89.597656 118.453125 L 89.648438 118.402344 C 90.214844 117.867188 89.707031 117.328125 89.308594 116.910156 L 73.371094 100.039062 C 72.964844 99.609375 72.464844 99.082031 71.898438 99.617188 C 71.332031 100.152344 71.828125 100.679688 72.210938 101.085938 Z M 88.203125 118.007812 "/>
<path style=" stroke:none;fill-rule:nonzero;fill:rgb(0%,0%,0%);fill-opacity:1;" d="M 118.671875 117.347656 L 118.761719 117.261719 L 118.855469 117.171875 L 118.941406 117.078125 L 119.035156 116.992188 L 119.113281 116.898438 L 119.148438 116.855469 L 119.183594 116.808594 L 119.210938 116.761719 L 119.246094 116.71875 L 119.273438 116.667969 L 119.296875 116.625 L 119.316406 116.578125 L 119.332031 116.527344 L 119.351562 116.476562 L 119.363281 116.433594 L 119.371094 116.386719 L 119.378906 116.335938 L 119.371094 116.234375 L 119.359375 116.214844 L 119.351562 116.160156 L 119.328125 116.113281 L 119.324219 116.085938 L 119.3125 116.0625 L 119.28125 116.007812 L 119.273438 115.984375 L 119.25 115.960938 L 119.234375 115.933594 L 119.214844 115.910156 L 119.191406 115.878906 L 119.171875 115.855469 L 119.144531 115.828125 C 118.609375 115.257812 118.101562 115.738281 117.597656 116.214844 L 91.371094 140.996094 C 90.859375 141.480469 90.355469 141.957031 90.890625 142.523438 C 91.429688 143.089844 91.933594 142.613281 92.441406 142.128906 Z M 118.671875 117.347656 "/>
<path style=" stroke:none;fill-rule:nonzero;fill:rgb(0%,0%,0%);fill-opacity:1;" d="M 119.09375 141.125 L 119.183594 141.070312 L 119.285156 141.007812 L 119.398438 140.945312 L 119.527344 140.878906 L 119.664062 140.804688 L 119.8125 140.726562 L 119.976562 140.648438 L 120.136719 140.570312 L 120.3125 140.492188 L 120.496094 140.414062 L 120.6875 140.332031 L 120.878906 140.265625 L 121.082031 140.191406 L 121.289062 140.125 L 121.710938 140.007812 L 121.925781 139.960938 L 122.148438 139.925781 L 122.371094 139.898438 L 122.585938 139.875 L 122.8125 139.867188 L 123.035156 139.871094 L 123.253906 139.890625 L 123.472656 139.917969 L 123.6875 139.960938 L 123.894531 140.023438 L 124.003906 140.058594 L 124.109375 140.101562 L 124.207031 140.148438 L 124.3125 140.199219 L 124.414062 140.253906 L 124.511719 140.3125 L 124.609375 140.378906 L 124.707031 140.449219 L 124.796875 140.523438 L 124.890625 140.597656 L 124.980469 140.683594 L 125.066406 140.773438 C 125.203125 140.917969 125.839844 141.589844 126.039062 142.53125 C 125.152344 141.875 123.90625 141.976562 123.230469 142.617188 C 122.785156 143.039062 122.535156 143.867188 123.253906 144.625 C 123.835938 145.242188 125.199219 145.675781 126.332031 144.601562 C 127.808594 143.210938 126.617188 141.175781 125.710938 140.21875 C 124.164062 138.578125 121.726562 139 120.765625 139.277344 C 121.957031 136.8125 120.796875 135.015625 120.027344 134.199219 C 117.242188 131.257812 112.082031 133.085938 111.371094 133.757812 C 111.089844 134.023438 111.355469 134.308594 111.414062 134.371094 C 111.625 134.59375 111.773438 134.625 112.070312 134.4375 C 115.96875 132.566406 118.449219 133.769531 119.347656 134.722656 C 119.859375 135.261719 120.539062 136.484375 118.902344 138.03125 C 118.027344 138.859375 115.679688 140.175781 110.734375 142.863281 C 108.550781 144.066406 106.4375 144.203125 105.261719 142.957031 C 105.097656 142.785156 104.488281 142.140625 104.292969 141.195312 C 105.101562 141.777344 106.28125 141.84375 107.078125 141.085938 C 107.839844 140.371094 107.472656 139.535156 107.070312 139.109375 C 106.265625 138.261719 104.863281 138.242188 103.957031 139.101562 C 102.664062 140.324219 103.433594 142.277344 104.609375 143.519531 C 106.378906 145.390625 109.3125 144.527344 109.554688 144.457031 C 108.835938 145.785156 108.699219 147.847656 110.296875 149.535156 C 113.050781 152.453125 118.21875 150.628906 118.929688 149.957031 C 119.210938 149.6875 118.964844 149.429688 118.878906 149.335938 C 118.648438 149.09375 118.476562 149.136719 118.234375 149.269531 C 114.328125 151.191406 111.832031 149.910156 110.980469 149.007812 C 109.933594 147.902344 110.40625 146.597656 111.371094 145.6875 C 111.996094 145.097656 112.773438 144.683594 114.316406 143.828125 Z M 119.09375 141.125 "/>
<path style=" stroke:none;fill-rule:nonzero;fill:rgb(0%,0%,0%);fill-opacity:1;" d="M 146.949219 174.691406 L 147.121094 174.871094 L 147.210938 174.957031 L 147.25 175 L 147.296875 175.039062 L 147.339844 175.082031 L 147.382812 175.117188 L 147.433594 175.15625 L 147.476562 175.191406 L 147.523438 175.222656 L 147.570312 175.246094 L 147.617188 175.273438 L 147.703125 175.320312 L 147.753906 175.339844 L 147.804688 175.355469 L 147.851562 175.363281 L 147.894531 175.375 L 147.953125 175.375 L 147.996094 175.378906 L 148.046875 175.375 L 148.074219 175.367188 L 148.09375 175.359375 L 148.125 175.355469 L 148.144531 175.34375 L 148.171875 175.339844 L 148.195312 175.328125 L 148.222656 175.3125 L 148.246094 175.300781 L 148.300781 175.269531 L 148.332031 175.253906 L 148.351562 175.234375 L 148.382812 175.21875 L 148.402344 175.195312 L 148.433594 175.167969 L 148.453125 175.148438 C 149.023438 174.613281 148.539062 174.101562 148.082031 173.621094 L 133.640625 158.332031 C 133.191406 157.855469 132.707031 157.347656 132.140625 157.882812 C 131.574219 158.417969 132.054688 158.929688 132.503906 159.40625 Z M 146.949219 174.691406 "/>
<path style=" stroke:none;fill-rule:nonzero;fill:rgb(0%,0%,0%);fill-opacity:1;" d="M 175.484375 181.664062 L 175.511719 181.636719 L 175.546875 181.605469 L 175.574219 181.578125 L 175.605469 181.550781 L 175.632812 181.527344 L 175.710938 181.449219 L 175.734375 181.429688 L 175.757812 181.40625 L 175.78125 181.386719 L 175.796875 181.359375 L 175.820312 181.339844 L 175.835938 181.320312 L 175.859375 181.300781 L 175.871094 181.277344 L 175.910156 181.242188 L 175.9375 181.203125 L 175.957031 181.164062 L 175.980469 181.132812 L 175.996094 181.09375 L 176.015625 181.066406 L 176.019531 181.027344 L 176.027344 181 L 176.027344 180.96875 L 176.03125 180.933594 L 176.015625 180.863281 L 176.003906 180.828125 L 176 180.8125 L 175.988281 180.789062 L 175.972656 180.773438 L 175.96875 180.757812 L 175.957031 180.734375 L 175.941406 180.71875 L 175.929688 180.695312 L 175.914062 180.679688 L 175.898438 180.648438 L 175.882812 180.632812 L 175.863281 180.609375 L 175.851562 180.589844 L 175.832031 180.566406 L 175.808594 180.542969 L 175.789062 180.519531 L 175.738281 180.46875 L 175.71875 180.433594 L 175.636719 180.351562 L 175.609375 180.320312 C 172.144531 180.277344 169.796875 177.792969 168.945312 176.894531 L 168.066406 177.722656 C 168.601562 178.289062 170.179688 179.957031 172.292969 180.71875 L 157.652344 194.550781 C 156.632812 195.515625 156.222656 195.753906 153.820312 193.214844 L 152.96875 192.3125 L 152.089844 193.140625 C 153.113281 194.042969 155.433594 196.5 156.5 197.628906 C 157.574219 198.761719 159.894531 201.21875 160.742188 202.296875 L 161.621094 201.464844 L 160.761719 200.558594 C 158.363281 198.015625 158.582031 197.636719 159.632812 196.644531 Z M 175.484375 181.664062 "/>
<path style=" stroke:none;fill-rule:nonzero;fill:rgb(0%,0%,0%);fill-opacity:1;" d="M 187.351562 190.03125 L 187.445312 189.949219 L 187.539062 189.855469 L 187.625 189.765625 L 187.671875 189.722656 L 187.710938 189.671875 L 187.757812 189.628906 L 187.796875 189.582031 L 187.867188 189.496094 L 187.894531 189.445312 L 187.929688 189.402344 L 187.957031 189.355469 L 187.980469 189.3125 L 188 189.261719 L 188.015625 189.210938 L 188.035156 189.164062 L 188.046875 189.121094 L 188.0625 189.019531 L 188.058594 188.972656 L 188.054688 188.921875 L 188.042969 188.898438 L 188.039062 188.871094 L 188.03125 188.84375 L 188.023438 188.820312 L 188.011719 188.796875 L 188.007812 188.769531 L 187.996094 188.75 L 187.980469 188.71875 L 187.964844 188.691406 L 187.953125 188.671875 L 187.933594 188.648438 L 187.917969 188.621094 L 187.890625 188.589844 L 187.875 188.5625 L 187.855469 188.539062 L 187.828125 188.511719 C 187.292969 187.945312 186.785156 188.421875 186.28125 188.898438 L 160.054688 213.679688 C 159.542969 214.164062 159.039062 214.640625 159.574219 215.207031 C 160.113281 215.773438 160.617188 215.296875 161.125 214.816406 Z M 187.351562 190.03125 "/>
<path style=" stroke:none;fill-rule:nonzero;fill:rgb(0%,0%,0%);fill-opacity:1;" d="M 200.324219 231.175781 L 200.410156 231.269531 L 200.496094 231.359375 L 200.589844 231.445312 L 200.625 231.484375 L 200.675781 231.523438 L 200.71875 231.570312 L 200.761719 231.605469 L 200.804688 231.636719 L 200.851562 231.679688 L 200.902344 231.707031 L 200.945312 231.730469 L 200.992188 231.757812 L 201.039062 231.78125 L 201.082031 231.804688 L 201.128906 231.824219 L 201.179688 231.84375 L 201.230469 231.847656 L 201.273438 231.863281 L 201.371094 231.863281 L 201.421875 231.859375 L 201.449219 231.855469 L 201.472656 231.84375 L 201.5 231.839844 L 201.523438 231.828125 L 201.550781 231.824219 L 201.570312 231.816406 L 201.601562 231.800781 L 201.621094 231.789062 L 201.648438 231.773438 L 201.679688 231.757812 L 201.707031 231.742188 L 201.730469 231.71875 L 201.757812 231.703125 L 201.78125 231.683594 L 201.832031 231.632812 C 202.398438 231.097656 201.910156 230.582031 201.460938 230.105469 L 187.015625 214.820312 C 186.566406 214.34375 186.082031 213.832031 185.515625 214.367188 C 184.949219 214.90625 185.429688 215.414062 185.882812 215.890625 Z M 200.324219 231.175781 "/>
<path style=" stroke:none;fill-rule:nonzero;fill:rgb(0%,0%,0%);fill-opacity:1;" d="M 228.859375 238.152344 L 228.890625 238.125 L 228.921875 238.09375 L 228.953125 238.066406 L 229.035156 237.984375 L 229.058594 237.964844 L 229.109375 237.914062 L 229.132812 237.894531 L 229.15625 237.871094 L 229.171875 237.84375 L 229.195312 237.824219 L 229.234375 237.785156 L 229.246094 237.765625 L 229.285156 237.726562 L 229.316406 237.691406 L 229.332031 237.652344 L 229.355469 237.617188 L 229.375 237.582031 L 229.390625 237.554688 L 229.398438 237.515625 L 229.402344 237.488281 L 229.40625 237.453125 L 229.40625 237.421875 L 229.402344 237.382812 L 229.390625 237.347656 L 229.382812 237.316406 L 229.371094 237.292969 L 229.367188 237.277344 L 229.351562 237.261719 L 229.335938 237.222656 L 229.316406 237.203125 L 229.308594 237.179688 L 229.292969 237.164062 L 229.277344 237.136719 L 229.238281 237.097656 L 229.226562 237.074219 L 229.207031 237.050781 L 229.183594 237.027344 L 229.160156 237 L 229.117188 236.957031 L 229.09375 236.921875 L 229.066406 236.894531 L 229.039062 236.863281 L 229.015625 236.835938 L 228.988281 236.808594 C 225.523438 236.765625 223.175781 234.28125 222.320312 233.378906 L 221.441406 234.210938 C 221.980469 234.777344 223.550781 236.4375 225.667969 237.207031 L 211.03125 251.039062 C 210.007812 252.003906 209.601562 252.238281 207.199219 249.699219 L 206.347656 248.796875 L 205.46875 249.628906 C 206.496094 250.535156 208.8125 252.984375 209.878906 254.113281 C 210.949219 255.25 213.265625 257.699219 214.113281 258.777344 L 214.992188 257.945312 L 214.140625 257.042969 C 211.738281 254.503906 211.957031 254.125 213.007812 253.132812 Z M 228.859375 238.152344 "/>
<path style=" stroke:none;fill-rule:nonzero;fill:rgb(0%,0%,0%);fill-opacity:1;" d="M 321.300781 460.660156 L 321.128906 460.933594 L 320.964844 461.199219 L 320.792969 461.453125 L 320.621094 461.691406 L 320.457031 461.917969 L 320.28125 462.128906 L 320.109375 462.328125 L 319.945312 462.519531 L 319.773438 462.699219 L 319.601562 462.863281 L 319.4375 463.019531 L 319.261719 463.164062 L 319.089844 463.300781 L 318.925781 463.429688 L 318.753906 463.546875 L 318.582031 463.65625 L 318.40625 463.757812 L 318.234375 463.847656 L 318.0625 463.929688 L 317.886719 464.011719 L 317.714844 464.074219 L 317.53125 464.140625 L 317.359375 464.203125 L 317.179688 464.25 L 317.003906 464.292969 L 316.824219 464.332031 L 316.640625 464.367188 L 316.46875 464.394531 L 316.09375 464.441406 L 315.730469 464.46875 C 315.175781 464.511719 314.773438 464.511719 314.773438 465.378906 C 314.773438 465.652344 315.003906 465.878906 315.355469 465.878906 C 316.578125 465.878906 317.988281 465.734375 319.253906 465.734375 C 320.746094 465.734375 322.339844 465.878906 323.796875 465.878906 C 324.0625 465.878906 324.660156 465.878906 324.660156 465.011719 C 324.660156 464.511719 324.253906 464.46875 323.933594 464.46875 C 322.886719 464.386719 321.804688 464.011719 321.804688 462.890625 C 321.804688 462.335938 322.074219 461.835938 322.429688 461.21875 L 325.882812 455.398438 L 337.261719 455.398438 L 337.132812 453.996094 L 326.738281 453.996094 L 335.6875 439.019531 L 337.132812 453.996094 L 337.261719 455.398438 C 337.363281 456.347656 337.988281 462.519531 337.988281 462.972656 C 337.988281 464.339844 335.632812 464.46875 334.730469 464.46875 C 334.09375 464.46875 333.636719 464.46875 333.636719 465.378906 C 333.636719 465.878906 334.175781 465.878906 334.277344 465.878906 C 336.125 465.878906 338.089844 465.734375 339.9375 465.734375 C 341.078125 465.734375 343.933594 465.878906 345.074219 465.878906 C 345.347656 465.878906 345.882812 465.878906 345.882812 464.96875 C 345.882812 464.46875 345.429688 464.46875 344.84375 464.46875 C 342.03125 464.46875 342.03125 464.15625 341.886719 462.835938 L 339.128906 434.496094 C 339.027344 433.585938 339.027344 433.402344 338.261719 433.402344 C 337.535156 433.402344 337.363281 433.714844 337.078125 434.167969 Z M 321.300781 460.660156 "/>
<path style=" stroke:none;fill-rule:nonzero;fill:rgb(0%,0%,0%);fill-opacity:1;" d="M 233.457031 365.539062 L 233.445312 364.867188 L 233.402344 364.203125 L 233.335938 363.554688 L 233.238281 362.917969 L 233.117188 362.300781 L 232.972656 361.699219 L 232.800781 361.117188 L 232.601562 360.550781 L 232.382812 360.003906 L 232.136719 359.46875 L 231.871094 358.957031 L 231.582031 358.464844 L 231.269531 357.992188 L 230.933594 357.539062 L 230.589844 357.109375 L 230.207031 356.699219 L 229.8125 356.308594 L 229.40625 355.9375 L 228.96875 355.589844 L 228.519531 355.269531 L 228.046875 354.96875 L 227.566406 354.699219 L 227.066406 354.441406 L 226.546875 354.214844 L 226.007812 354.015625 L 225.460938 353.832031 L 224.898438 353.6875 L 224.324219 353.558594 L 223.734375 353.46875 L 223.121094 353.394531 L 222.511719 353.351562 L 221.882812 353.339844 L 221.609375 354.480469 C 225.335938 354.480469 229.421875 357.011719 229.421875 363.765625 C 229.421875 367.035156 228.195312 374.109375 223.707031 379.699219 C 221.53125 382.457031 217.796875 385.132812 214 385.132812 C 209.503906 385.132812 206.335938 381.464844 206.335938 375.472656 C 206.335938 373.480469 206.960938 366.851562 210.457031 361.542969 C 213.589844 356.835938 218.023438 354.480469 221.609375 354.480469 L 221.882812 353.339844 C 212.097656 353.339844 202.109375 363.636719 202.109375 374.207031 C 202.109375 381.726562 207.191406 386.308594 213.726562 386.308594 C 223.332031 386.308594 233.457031 376.382812 233.457031 365.539062 Z M 233.457031 365.539062 "/>
</g>
</svg>
