<?xml version="1.0" encoding="UTF-8"?>
<svg xmlns="http://www.w3.org/2000/svg" xmlns:xlink="http://www.w3.org/1999/xlink" width="289.90471pt" height="176.97519pt" viewBox="0 0 289.90471 176.97519" version="1.1">
<g id="surface1">
<path style=" stroke:none;fill-rule:nonzero;fill:rgb(0%,0%,0%);fill-opacity:1;" d="M 93.097656 0 L 217.445312 0 L 217.445312 1.5 L 93.097656 1.5 Z M 93.097656 0 "/>
<path style=" stroke:none;fill-rule:nonzero;fill:rgb(0%,0%,0%);fill-opacity:1;" d="M 185.644531 8.363281 L 184.511719 8.363281 L 182.65625 13.324219 C 182.050781 14.925781 181.308594 16.898438 181.132812 17.621094 C 180.996094 16.976562 180.507812 15.726562 180.15625 14.769531 L 177.773438 8.363281 L 176.425781 8.363281 L 180.371094 18.734375 L 181.71875 18.734375 Z M 185.644531 8.363281 "/>
<path style=" stroke:none;fill-rule:nonzero;fill:rgb(0%,0%,0%);fill-opacity:1;" d="M 191.203125 14.359375 C 191.203125 12.914062 190.167969 11.878906 188.78125 11.878906 C 187.882812 11.878906 187.21875 12.09375 186.476562 12.503906 L 186.574219 13.480469 C 187.238281 13.011719 187.921875 12.738281 188.78125 12.738281 C 189.464844 12.738281 190.070312 13.304688 190.070312 14.378906 L 190.070312 15.003906 C 189.40625 15.023438 188.507812 15.082031 187.609375 15.375 C 186.59375 15.707031 186.027344 16.273438 186.027344 17.015625 C 186.027344 17.679688 186.417969 18.890625 187.6875 18.890625 C 188.507812 18.890625 189.542969 18.636719 190.109375 18.1875 L 190.109375 18.734375 L 191.203125 18.734375 Z M 190.070312 16.722656 C 190.070312 17.035156 190.070312 17.386719 189.582031 17.679688 C 189.171875 17.933594 188.664062 17.992188 188.449219 17.992188 C 187.628906 17.992188 187.082031 17.5625 187.082031 16.996094 C 187.082031 15.980469 189.152344 15.765625 190.070312 15.765625 Z M 190.070312 16.722656 "/>
<path style=" stroke:none;fill-rule:nonzero;fill:rgb(0%,0%,0%);fill-opacity:1;" d="M 194.675781 8.363281 L 193.582031 8.363281 L 193.582031 18.734375 L 194.675781 18.734375 Z M 194.675781 8.363281 "/>
<path style=" stroke:none;fill-rule:nonzero;fill:rgb(0%,0%,0%);fill-opacity:1;" d="M 202.191406 12.09375 L 201.058594 12.09375 L 201.058594 16.371094 C 201.058594 17.503906 200.277344 18.070312 199.300781 18.070312 C 198.246094 18.070312 198.148438 17.679688 198.148438 17.015625 L 198.148438 12.09375 L 197.015625 12.09375 L 197.015625 17.074219 C 197.015625 18.148438 197.347656 18.890625 198.578125 18.890625 C 199.007812 18.890625 200.179688 18.8125 201.097656 17.992188 L 201.097656 18.734375 L 202.191406 18.734375 Z M 202.191406 12.09375 "/>
<path style=" stroke:none;fill-rule:nonzero;fill:rgb(0%,0%,0%);fill-opacity:1;" d="M 209.4375 15.375 C 209.4375 14.730469 209.378906 13.8125 208.910156 13.03125 C 208.285156 11.996094 207.25 11.878906 206.820312 11.878906 C 205.199219 11.878906 203.851562 13.421875 203.851562 15.375 C 203.851562 17.347656 205.296875 18.890625 207.015625 18.890625 C 207.71875 18.890625 208.539062 18.695312 209.359375 18.089844 C 209.359375 18.03125 209.300781 17.5625 209.300781 17.542969 C 209.300781 17.523438 209.261719 17.191406 209.261719 17.132812 C 208.382812 17.875 207.503906 17.992188 207.054688 17.992188 C 205.902344 17.992188 204.925781 16.957031 204.886719 15.375 Z M 204.984375 14.574219 C 205.238281 13.558594 205.941406 12.777344 206.820312 12.777344 C 207.269531 12.777344 208.304688 12.972656 208.558594 14.574219 Z M 204.984375 14.574219 "/>
<path style=" stroke:none;fill-rule:nonzero;fill:rgb(0%,0%,0%);fill-opacity:1;" d="M 93.097656 27.148438 L 217.445312 27.148438 L 217.445312 28.046875 L 93.097656 28.046875 Z M 93.097656 27.148438 "/>
<path style=" stroke:none;fill-rule:nonzero;fill:rgb(0%,0%,0%);fill-opacity:1;" d="M 107.839844 34.761719 L 105.75 34.9375 L 105.75 35.367188 C 106.765625 35.367188 106.882812 35.464844 106.882812 36.207031 L 106.882812 44.019531 C 106.882812 44.703125 106.726562 44.703125 105.75 44.703125 L 105.75 45.132812 C 106.179688 45.09375 106.902344 45.09375 107.351562 45.09375 C 107.800781 45.09375 108.542969 45.09375 108.972656 45.132812 L 108.972656 44.703125 C 108.015625 44.703125 107.839844 44.703125 107.839844 44.019531 Z M 107.839844 34.761719 "/>
<path style=" stroke:none;fill-rule:nonzero;fill:rgb(0%,0%,0%);fill-opacity:1;" d="M 111.910156 35.933594 C 111.910156 35.542969 111.597656 35.191406 111.1875 35.191406 C 110.796875 35.191406 110.464844 35.503906 110.464844 35.914062 C 110.464844 36.363281 110.816406 36.636719 111.1875 36.636719 C 111.636719 36.636719 111.910156 36.265625 111.910156 35.933594 Z M 109.859375 38.707031 L 109.859375 39.136719 C 110.796875 39.136719 110.933594 39.234375 110.933594 39.957031 L 110.933594 44.019531 C 110.933594 44.703125 110.777344 44.703125 109.800781 44.703125 L 109.800781 45.132812 C 110.230469 45.09375 110.933594 45.09375 111.382812 45.09375 C 111.539062 45.09375 112.398438 45.09375 112.90625 45.132812 L 112.90625 44.703125 C 111.949219 44.703125 111.890625 44.625 111.890625 44.039062 L 111.890625 38.550781 Z M 109.859375 38.707031 "/>
<path style=" stroke:none;fill-rule:nonzero;fill:rgb(0%,0%,0%);fill-opacity:1;" d="M 124.085938 41.5 C 124.085938 40.113281 124.085938 39.703125 123.734375 39.214844 C 123.304688 38.628906 122.601562 38.550781 122.09375 38.550781 C 120.84375 38.550781 120.21875 39.449219 119.984375 40.015625 C 119.769531 38.863281 118.96875 38.550781 118.03125 38.550781 C 116.566406 38.550781 116 39.78125 115.882812 40.074219 L 115.882812 38.550781 L 113.832031 38.707031 L 113.832031 39.136719 C 114.847656 39.136719 114.984375 39.253906 114.984375 39.976562 L 114.984375 44.019531 C 114.984375 44.703125 114.808594 44.703125 113.832031 44.703125 L 113.832031 45.132812 C 114.222656 45.09375 115.042969 45.09375 115.453125 45.09375 C 115.882812 45.09375 116.703125 45.09375 117.074219 45.132812 L 117.074219 44.703125 C 116.136719 44.703125 115.941406 44.703125 115.941406 44.019531 L 115.941406 41.246094 C 115.941406 39.683594 116.976562 38.84375 117.914062 38.84375 C 118.832031 38.84375 119.046875 39.605469 119.046875 40.523438 L 119.046875 44.019531 C 119.046875 44.703125 118.871094 44.703125 117.914062 44.703125 L 117.914062 45.132812 C 118.285156 45.09375 119.105469 45.09375 119.515625 45.09375 C 119.945312 45.09375 120.765625 45.09375 121.15625 45.132812 L 121.15625 44.703125 C 120.199219 44.703125 120.003906 44.703125 120.003906 44.019531 L 120.003906 41.246094 C 120.003906 39.683594 121.039062 38.84375 121.976562 38.84375 C 122.894531 38.84375 123.109375 39.605469 123.109375 40.523438 L 123.109375 44.019531 C 123.109375 44.703125 122.933594 44.703125 121.976562 44.703125 L 121.976562 45.132812 C 122.367188 45.09375 123.167969 45.09375 123.578125 45.09375 C 124.007812 45.09375 124.828125 45.09375 125.21875 45.132812 L 125.21875 44.703125 C 124.457031 44.703125 124.085938 44.703125 124.085938 44.253906 Z M 124.085938 41.5 "/>
<path style=" stroke:none;fill-rule:nonzero;fill:rgb(0%,0%,0%);fill-opacity:1;" d="M 105.613281 51.367188 C 105.164062 51.464844 105.144531 51.855469 105.144531 51.894531 C 105.144531 52.109375 105.320312 52.265625 105.535156 52.265625 C 105.75 52.265625 106.082031 52.089844 106.082031 51.660156 C 106.082031 51.09375 105.457031 50.9375 105.085938 50.9375 C 104.636719 50.9375 104.246094 51.269531 104.011719 51.660156 C 103.796875 51.132812 103.289062 50.9375 102.878906 50.9375 C 101.785156 50.9375 101.179688 52.1875 101.179688 52.460938 C 101.179688 52.558594 101.257812 52.597656 101.335938 52.597656 C 101.453125 52.597656 101.472656 52.539062 101.492188 52.421875 C 101.726562 51.699219 102.332031 51.210938 102.839844 51.210938 C 103.230469 51.210938 103.425781 51.503906 103.425781 51.855469 C 103.425781 52.050781 103.308594 52.519531 103.230469 52.832031 C 103.152344 53.125 102.9375 54.003906 102.878906 54.199219 C 102.742188 54.726562 102.390625 55.15625 101.941406 55.15625 C 101.902344 55.15625 101.648438 55.15625 101.433594 55.019531 C 101.882812 54.902344 101.882812 54.492188 101.882812 54.472656 C 101.882812 54.238281 101.707031 54.101562 101.492188 54.101562 C 101.21875 54.101562 100.925781 54.335938 100.925781 54.707031 C 100.925781 55.175781 101.414062 55.429688 101.921875 55.429688 C 102.449219 55.429688 102.820312 55.039062 102.996094 54.707031 C 103.230469 55.195312 103.679688 55.429688 104.167969 55.429688 C 105.242188 55.429688 105.847656 54.179688 105.847656 53.90625 C 105.847656 53.808594 105.769531 53.769531 105.691406 53.769531 C 105.574219 53.769531 105.554688 53.847656 105.515625 53.945312 C 105.320312 54.609375 104.753906 55.15625 104.1875 55.15625 C 103.855469 55.15625 103.621094 54.941406 103.621094 54.511719 C 103.621094 54.316406 103.679688 54.082031 103.816406 53.535156 C 103.875 53.222656 104.089844 52.363281 104.148438 52.167969 C 104.285156 51.640625 104.636719 51.210938 105.085938 51.210938 C 105.144531 51.210938 105.398438 51.210938 105.613281 51.367188 Z M 105.613281 51.367188 "/>
<path style=" stroke:none;fill-rule:nonzero;fill:rgb(0%,0%,0%);fill-opacity:1;" d="M 115.304688 53.066406 C 114.972656 53.320312 114.660156 53.632812 114.425781 54.003906 C 113.996094 54.648438 113.878906 55.273438 113.878906 55.3125 C 113.878906 55.46875 114.015625 55.46875 114.113281 55.46875 C 114.230469 55.46875 114.308594 55.46875 114.347656 55.351562 C 114.601562 54.238281 115.246094 53.398438 116.4375 52.988281 C 116.515625 52.96875 116.613281 52.949219 116.613281 52.851562 C 116.613281 52.734375 116.515625 52.714844 116.476562 52.695312 C 115.148438 52.246094 114.5625 51.308594 114.367188 50.449219 C 114.308594 50.234375 114.308594 50.214844 114.113281 50.214844 C 114.015625 50.214844 113.878906 50.214844 113.878906 50.371094 C 113.878906 50.390625 113.976562 51.035156 114.425781 51.699219 C 114.71875 52.109375 115.050781 52.421875 115.304688 52.617188 L 107.570312 52.617188 C 107.414062 52.617188 107.199219 52.617188 107.199219 52.851562 C 107.199219 53.066406 107.414062 53.066406 107.570312 53.066406 Z M 115.304688 53.066406 "/>
<path style=" stroke:none;fill-rule:nonzero;fill:rgb(0%,0%,0%);fill-opacity:1;" d="M 120.386719 48.984375 C 120.386719 48.710938 120.367188 48.710938 120.09375 48.710938 C 119.683594 49.101562 119.15625 49.335938 118.21875 49.335938 L 118.21875 49.667969 C 118.492188 49.667969 119.019531 49.667969 119.605469 49.414062 L 119.605469 54.511719 C 119.605469 54.882812 119.566406 55 118.628906 55 L 118.277344 55 L 118.277344 55.332031 C 118.6875 55.292969 119.546875 55.292969 119.996094 55.292969 C 120.445312 55.292969 121.304688 55.292969 121.714844 55.332031 L 121.714844 55 L 121.363281 55 C 120.425781 55 120.386719 54.882812 120.386719 54.511719 Z M 120.386719 48.984375 "/>
<path style=" stroke:none;fill-rule:nonzero;fill:rgb(0%,0%,0%);fill-opacity:1;" d="M 128.46875 50.804688 C 128.585938 50.804688 128.78125 50.804688 128.78125 50.609375 C 128.78125 50.414062 128.585938 50.414062 128.46875 50.414062 L 123.761719 50.414062 C 123.625 50.414062 123.449219 50.414062 123.449219 50.609375 C 123.449219 50.804688 123.625 50.804688 123.761719 50.804688 Z M 128.46875 50.804688 "/>
<path style=" stroke:none;fill-rule:nonzero;fill:rgb(0%,0%,0%);fill-opacity:1;" d="M 139.371094 39.117188 C 139.664062 39.117188 139.800781 39.117188 139.800781 38.84375 C 139.800781 38.6875 139.664062 38.6875 139.410156 38.6875 L 138.199219 38.6875 C 138.472656 37.144531 138.6875 36.089844 138.804688 35.621094 C 138.902344 35.25 139.214844 34.917969 139.605469 34.917969 C 139.917969 34.917969 140.230469 35.054688 140.367188 35.191406 C 139.800781 35.25 139.605469 35.679688 139.605469 35.933594 C 139.605469 36.226562 139.839844 36.402344 140.113281 36.402344 C 140.425781 36.402344 140.875 36.148438 140.875 35.582031 C 140.875 34.957031 140.25 34.605469 139.585938 34.605469 C 138.941406 34.605469 138.316406 35.09375 138.023438 35.679688 C 137.75 36.207031 137.59375 36.734375 137.261719 38.6875 L 136.246094 38.6875 C 135.972656 38.6875 135.816406 38.6875 135.816406 38.960938 C 135.816406 39.117188 135.914062 39.117188 136.207031 39.117188 L 137.164062 39.117188 C 136.890625 40.523438 136.285156 43.902344 135.933594 45.484375 C 135.679688 46.792969 135.464844 47.886719 134.722656 47.886719 C 134.664062 47.886719 134.234375 47.886719 133.960938 47.59375 C 134.722656 47.535156 134.722656 46.890625 134.722656 46.871094 C 134.722656 46.558594 134.507812 46.382812 134.214844 46.382812 C 133.921875 46.382812 133.472656 46.636719 133.472656 47.203125 C 133.472656 47.847656 134.136719 48.179688 134.722656 48.179688 C 136.246094 48.179688 136.871094 45.445312 137.027344 44.703125 C 137.300781 43.550781 138.023438 39.566406 138.101562 39.117188 Z M 139.371094 39.117188 "/>
<path style=" stroke:none;fill-rule:nonzero;fill:rgb(0%,0%,0%);fill-opacity:1;" d="M 146.425781 48.765625 C 146.425781 48.726562 146.425781 48.6875 146.171875 48.433594 C 144.667969 46.929688 143.828125 44.46875 143.828125 41.421875 C 143.828125 38.511719 144.53125 36.011719 146.269531 34.253906 C 146.425781 34.117188 146.425781 34.097656 146.425781 34.039062 C 146.425781 33.960938 146.347656 33.921875 146.289062 33.921875 C 146.09375 33.921875 144.863281 34.996094 144.140625 36.460938 C 143.378906 37.984375 143.027344 39.566406 143.027344 41.421875 C 143.027344 42.75 143.242188 44.527344 144.003906 46.109375 C 144.902344 47.90625 146.113281 48.882812 146.289062 48.882812 C 146.347656 48.882812 146.425781 48.84375 146.425781 48.765625 Z M 146.425781 48.765625 "/>
<path style=" stroke:none;fill-rule:nonzero;fill:rgb(0%,0%,0%);fill-opacity:1;" d="M 154.351562 39.039062 C 153.863281 39.117188 153.6875 39.488281 153.6875 39.761719 C 153.6875 40.132812 153.960938 40.25 154.175781 40.25 C 154.625 40.25 154.9375 39.859375 154.9375 39.449219 C 154.9375 38.824219 154.214844 38.550781 153.589844 38.550781 C 152.691406 38.550781 152.183594 39.449219 152.046875 39.722656 C 151.695312 38.609375 150.777344 38.550781 150.503906 38.550781 C 148.980469 38.550781 148.179688 40.503906 148.179688 40.835938 C 148.179688 40.894531 148.238281 40.972656 148.335938 40.972656 C 148.453125 40.972656 148.492188 40.875 148.511719 40.816406 C 149.019531 39.15625 150.035156 38.84375 150.464844 38.84375 C 151.128906 38.84375 151.265625 39.46875 151.265625 39.820312 C 151.265625 40.152344 151.167969 40.503906 150.992188 41.226562 L 150.484375 43.257812 C 150.269531 44.15625 149.839844 44.976562 149.039062 44.976562 C 148.960938 44.976562 148.589844 44.976562 148.277344 44.78125 C 148.824219 44.683594 148.941406 44.234375 148.941406 44.058594 C 148.941406 43.765625 148.707031 43.570312 148.433594 43.570312 C 148.0625 43.570312 147.671875 43.902344 147.671875 44.371094 C 147.671875 44.996094 148.375 45.289062 149.019531 45.289062 C 149.742188 45.289062 150.25 44.722656 150.5625 44.097656 C 150.796875 44.976562 151.558594 45.289062 152.105469 45.289062 C 153.628906 45.289062 154.429688 43.316406 154.429688 43.003906 C 154.429688 42.925781 154.371094 42.867188 154.292969 42.867188 C 154.15625 42.867188 154.136719 42.945312 154.097656 43.0625 C 153.6875 44.371094 152.828125 44.976562 152.144531 44.976562 C 151.617188 44.976562 151.34375 44.585938 151.34375 43.980469 C 151.34375 43.648438 151.402344 43.414062 151.636719 42.4375 L 152.164062 40.386719 C 152.378906 39.507812 152.886719 38.84375 153.589844 38.84375 C 153.609375 38.84375 154.039062 38.84375 154.351562 39.039062 Z M 154.351562 39.039062 "/>
<path style=" stroke:none;fill-rule:nonzero;fill:rgb(0%,0%,0%);fill-opacity:1;" d="M 159.730469 41.421875 C 159.730469 40.269531 159.574219 38.433594 158.734375 36.695312 C 157.855469 34.898438 156.625 33.921875 156.46875 33.921875 C 156.410156 33.921875 156.332031 33.960938 156.332031 34.039062 C 156.332031 34.097656 156.332031 34.117188 156.585938 34.371094 C 158.089844 35.875 158.910156 38.355469 158.910156 41.402344 C 158.910156 44.292969 158.207031 46.792969 156.488281 48.550781 C 156.332031 48.6875 156.332031 48.726562 156.332031 48.765625 C 156.332031 48.84375 156.410156 48.882812 156.46875 48.882812 C 156.664062 48.882812 157.894531 47.808594 158.617188 46.34375 C 159.378906 44.820312 159.730469 43.199219 159.730469 41.421875 Z M 159.730469 41.421875 "/>
<path style=" stroke:none;fill-rule:nonzero;fill:rgb(0%,0%,0%);fill-opacity:1;" d="M 193.40625 41.695312 C 193.660156 41.695312 193.933594 41.695312 193.933594 41.402344 C 193.933594 41.089844 193.660156 41.089844 193.40625 41.089844 L 185.320312 41.089844 C 185.066406 41.089844 184.792969 41.089844 184.792969 41.402344 C 184.792969 41.695312 185.066406 41.695312 185.320312 41.695312 Z M 193.40625 41.695312 "/>
<path style=" stroke:none;fill-rule:nonzero;fill:rgb(0%,0%,0%);fill-opacity:1;" d="M 199.410156 35.5625 C 199.410156 35.210938 199.410156 35.191406 199.117188 35.191406 C 198.765625 35.601562 198.003906 36.148438 196.480469 36.148438 L 196.480469 36.578125 C 196.8125 36.578125 197.554688 36.578125 198.394531 36.207031 L 198.394531 43.980469 C 198.394531 44.527344 198.335938 44.703125 197.027344 44.703125 L 196.558594 44.703125 L 196.558594 45.132812 C 196.96875 45.09375 198.414062 45.09375 198.902344 45.09375 C 199.410156 45.09375 200.835938 45.09375 201.246094 45.132812 L 201.246094 44.703125 L 200.777344 44.703125 C 199.46875 44.703125 199.410156 44.527344 199.410156 43.980469 Z M 199.410156 35.5625 "/>
<path style=" stroke:none;fill-rule:nonzero;fill:rgb(0%,0%,0%);fill-opacity:1;" d="M 93.097656 59.847656 L 217.445312 59.847656 L 217.445312 60.746094 L 93.097656 60.746094 Z M 93.097656 59.847656 "/>
<path style=" stroke:none;fill-rule:nonzero;fill:rgb(0%,0%,0%);fill-opacity:1;" d="M 107.839844 67.613281 L 105.75 67.789062 L 105.75 68.21875 C 106.765625 68.21875 106.882812 68.316406 106.882812 69.058594 L 106.882812 76.871094 C 106.882812 77.554688 106.726562 77.554688 105.75 77.554688 L 105.75 77.984375 C 106.179688 77.945312 106.902344 77.945312 107.351562 77.945312 C 107.800781 77.945312 108.542969 77.945312 108.972656 77.984375 L 108.972656 77.554688 C 108.015625 77.554688 107.839844 77.554688 107.839844 76.871094 Z M 107.839844 67.613281 "/>
<path style=" stroke:none;fill-rule:nonzero;fill:rgb(0%,0%,0%);fill-opacity:1;" d="M 111.910156 68.785156 C 111.910156 68.394531 111.597656 68.042969 111.1875 68.042969 C 110.796875 68.042969 110.464844 68.355469 110.464844 68.765625 C 110.464844 69.214844 110.816406 69.488281 111.1875 69.488281 C 111.636719 69.488281 111.910156 69.117188 111.910156 68.785156 Z M 109.859375 71.558594 L 109.859375 71.988281 C 110.796875 71.988281 110.933594 72.085938 110.933594 72.808594 L 110.933594 76.871094 C 110.933594 77.554688 110.777344 77.554688 109.800781 77.554688 L 109.800781 77.984375 C 110.230469 77.945312 110.933594 77.945312 111.382812 77.945312 C 111.539062 77.945312 112.398438 77.945312 112.90625 77.984375 L 112.90625 77.554688 C 111.949219 77.554688 111.890625 77.476562 111.890625 76.890625 L 111.890625 71.402344 Z M 109.859375 71.558594 "/>
<path style=" stroke:none;fill-rule:nonzero;fill:rgb(0%,0%,0%);fill-opacity:1;" d="M 124.085938 74.351562 C 124.085938 72.964844 124.085938 72.554688 123.734375 72.066406 C 123.304688 71.480469 122.601562 71.402344 122.09375 71.402344 C 120.84375 71.402344 120.21875 72.300781 119.984375 72.867188 C 119.769531 71.714844 118.96875 71.402344 118.03125 71.402344 C 116.566406 71.402344 116 72.632812 115.882812 72.925781 L 115.882812 71.402344 L 113.832031 71.558594 L 113.832031 71.988281 C 114.847656 71.988281 114.984375 72.105469 114.984375 72.828125 L 114.984375 76.871094 C 114.984375 77.554688 114.808594 77.554688 113.832031 77.554688 L 113.832031 77.984375 C 114.222656 77.945312 115.042969 77.945312 115.453125 77.945312 C 115.882812 77.945312 116.703125 77.945312 117.074219 77.984375 L 117.074219 77.554688 C 116.136719 77.554688 115.941406 77.554688 115.941406 76.871094 L 115.941406 74.097656 C 115.941406 72.535156 116.976562 71.695312 117.914062 71.695312 C 118.832031 71.695312 119.046875 72.457031 119.046875 73.375 L 119.046875 76.871094 C 119.046875 77.554688 118.871094 77.554688 117.914062 77.554688 L 117.914062 77.984375 C 118.285156 77.945312 119.105469 77.945312 119.515625 77.945312 C 119.945312 77.945312 120.765625 77.945312 121.15625 77.984375 L 121.15625 77.554688 C 120.199219 77.554688 120.003906 77.554688 120.003906 76.871094 L 120.003906 74.097656 C 120.003906 72.535156 121.039062 71.695312 121.976562 71.695312 C 122.894531 71.695312 123.109375 72.457031 123.109375 73.375 L 123.109375 76.871094 C 123.109375 77.554688 122.933594 77.554688 121.976562 77.554688 L 121.976562 77.984375 C 122.367188 77.945312 123.167969 77.945312 123.578125 77.945312 C 124.007812 77.945312 124.828125 77.945312 125.21875 77.984375 L 125.21875 77.554688 C 124.457031 77.554688 124.085938 77.554688 124.085938 77.105469 Z M 124.085938 74.351562 "/>
<path style=" stroke:none;fill-rule:nonzero;fill:rgb(0%,0%,0%);fill-opacity:1;" d="M 105.613281 84.070312 C 105.164062 84.167969 105.144531 84.558594 105.144531 84.597656 C 105.144531 84.8125 105.320312 84.96875 105.535156 84.96875 C 105.75 84.96875 106.082031 84.792969 106.082031 84.363281 C 106.082031 83.796875 105.457031 83.640625 105.085938 83.640625 C 104.636719 83.640625 104.246094 83.972656 104.011719 84.363281 C 103.796875 83.835938 103.289062 83.640625 102.878906 83.640625 C 101.785156 83.640625 101.179688 84.890625 101.179688 85.164062 C 101.179688 85.261719 101.257812 85.300781 101.335938 85.300781 C 101.453125 85.300781 101.472656 85.242188 101.492188 85.125 C 101.726562 84.402344 102.332031 83.914062 102.839844 83.914062 C 103.230469 83.914062 103.425781 84.207031 103.425781 84.558594 C 103.425781 84.753906 103.308594 85.222656 103.230469 85.535156 C 103.152344 85.828125 102.9375 86.707031 102.878906 86.902344 C 102.742188 87.429688 102.390625 87.859375 101.941406 87.859375 C 101.902344 87.859375 101.648438 87.859375 101.433594 87.722656 C 101.882812 87.605469 101.882812 87.195312 101.882812 87.175781 C 101.882812 86.941406 101.707031 86.804688 101.492188 86.804688 C 101.21875 86.804688 100.925781 87.039062 100.925781 87.410156 C 100.925781 87.878906 101.414062 88.132812 101.921875 88.132812 C 102.449219 88.132812 102.820312 87.742188 102.996094 87.410156 C 103.230469 87.898438 103.679688 88.132812 104.167969 88.132812 C 105.242188 88.132812 105.847656 86.882812 105.847656 86.609375 C 105.847656 86.511719 105.769531 86.472656 105.691406 86.472656 C 105.574219 86.472656 105.554688 86.550781 105.515625 86.648438 C 105.320312 87.3125 104.753906 87.859375 104.1875 87.859375 C 103.855469 87.859375 103.621094 87.644531 103.621094 87.214844 C 103.621094 87.019531 103.679688 86.785156 103.816406 86.238281 C 103.875 85.925781 104.089844 85.066406 104.148438 84.871094 C 104.285156 84.34375 104.636719 83.914062 105.085938 83.914062 C 105.144531 83.914062 105.398438 83.914062 105.613281 84.070312 Z M 105.613281 84.070312 "/>
<path style=" stroke:none;fill-rule:nonzero;fill:rgb(0%,0%,0%);fill-opacity:1;" d="M 115.304688 85.769531 C 114.972656 86.023438 114.660156 86.335938 114.425781 86.707031 C 113.996094 87.351562 113.878906 87.976562 113.878906 88.015625 C 113.878906 88.171875 114.015625 88.171875 114.113281 88.171875 C 114.230469 88.171875 114.308594 88.171875 114.347656 88.054688 C 114.601562 86.941406 115.246094 86.101562 116.4375 85.691406 C 116.515625 85.671875 116.613281 85.652344 116.613281 85.554688 C 116.613281 85.4375 116.515625 85.417969 116.476562 85.398438 C 115.148438 84.949219 114.5625 84.011719 114.367188 83.152344 C 114.308594 82.9375 114.308594 82.917969 114.113281 82.917969 C 114.015625 82.917969 113.878906 82.917969 113.878906 83.074219 C 113.878906 83.09375 113.976562 83.738281 114.425781 84.402344 C 114.71875 84.8125 115.050781 85.125 115.304688 85.320312 L 107.570312 85.320312 C 107.414062 85.320312 107.199219 85.320312 107.199219 85.554688 C 107.199219 85.769531 107.414062 85.769531 107.570312 85.769531 Z M 115.304688 85.769531 "/>
<path style=" stroke:none;fill-rule:nonzero;fill:rgb(0%,0%,0%);fill-opacity:1;" d="M 120.386719 81.6875 C 120.386719 81.414062 120.367188 81.414062 120.09375 81.414062 C 119.683594 81.804688 119.15625 82.039062 118.21875 82.039062 L 118.21875 82.371094 C 118.492188 82.371094 119.019531 82.371094 119.605469 82.117188 L 119.605469 87.214844 C 119.605469 87.585938 119.566406 87.703125 118.628906 87.703125 L 118.277344 87.703125 L 118.277344 88.035156 C 118.6875 87.996094 119.546875 87.996094 119.996094 87.996094 C 120.445312 87.996094 121.304688 87.996094 121.714844 88.035156 L 121.714844 87.703125 L 121.363281 87.703125 C 120.425781 87.703125 120.386719 87.585938 120.386719 87.214844 Z M 120.386719 81.6875 "/>
<path style=" stroke:none;fill-rule:nonzero;fill:rgb(0%,0%,0%);fill-opacity:1;" d="M 126.203125 83.503906 L 128.625 83.503906 C 128.722656 83.503906 128.898438 83.503906 128.898438 83.308594 C 128.898438 83.113281 128.722656 83.113281 128.625 83.113281 L 126.203125 83.113281 L 126.203125 80.691406 C 126.203125 80.59375 126.203125 80.398438 126.007812 80.398438 C 125.8125 80.398438 125.8125 80.59375 125.8125 80.691406 L 125.8125 83.113281 L 123.390625 83.113281 C 123.292969 83.113281 123.097656 83.113281 123.097656 83.308594 C 123.097656 83.503906 123.292969 83.503906 123.390625 83.503906 L 125.8125 83.503906 L 125.8125 85.925781 C 125.8125 86.042969 125.8125 86.21875 126.007812 86.21875 C 126.203125 86.21875 126.203125 86.042969 126.203125 85.925781 Z M 126.203125 83.503906 "/>
<path style=" stroke:none;fill-rule:nonzero;fill:rgb(0%,0%,0%);fill-opacity:1;" d="M 139.222656 71.96875 C 139.515625 71.96875 139.652344 71.96875 139.652344 71.695312 C 139.652344 71.539062 139.515625 71.539062 139.261719 71.539062 L 138.050781 71.539062 C 138.324219 69.996094 138.539062 68.941406 138.65625 68.472656 C 138.753906 68.101562 139.066406 67.769531 139.457031 67.769531 C 139.769531 67.769531 140.082031 67.90625 140.21875 68.042969 C 139.652344 68.101562 139.457031 68.53125 139.457031 68.785156 C 139.457031 69.078125 139.691406 69.253906 139.964844 69.253906 C 140.277344 69.253906 140.726562 69 140.726562 68.433594 C 140.726562 67.808594 140.101562 67.457031 139.4375 67.457031 C 138.792969 67.457031 138.167969 67.945312 137.875 68.53125 C 137.601562 69.058594 137.445312 69.585938 137.113281 71.539062 L 136.097656 71.539062 C 135.824219 71.539062 135.667969 71.539062 135.667969 71.8125 C 135.667969 71.96875 135.765625 71.96875 136.058594 71.96875 L 137.015625 71.96875 C 136.742188 73.375 136.136719 76.753906 135.785156 78.335938 C 135.53125 79.644531 135.316406 80.738281 134.574219 80.738281 C 134.515625 80.738281 134.085938 80.738281 133.8125 80.445312 C 134.574219 80.386719 134.574219 79.742188 134.574219 79.722656 C 134.574219 79.410156 134.359375 79.234375 134.066406 79.234375 C 133.773438 79.234375 133.324219 79.488281 133.324219 80.054688 C 133.324219 80.699219 133.988281 81.03125 134.574219 81.03125 C 136.097656 81.03125 136.722656 78.296875 136.878906 77.554688 C 137.152344 76.402344 137.875 72.417969 137.953125 71.96875 Z M 139.222656 71.96875 "/>
<path style=" stroke:none;fill-rule:nonzero;fill:rgb(0%,0%,0%);fill-opacity:1;" d="M 146.277344 81.617188 C 146.277344 81.578125 146.277344 81.539062 146.023438 81.285156 C 144.519531 79.78125 143.679688 77.320312 143.679688 74.273438 C 143.679688 71.363281 144.382812 68.863281 146.121094 67.105469 C 146.277344 66.96875 146.277344 66.949219 146.277344 66.890625 C 146.277344 66.8125 146.199219 66.773438 146.140625 66.773438 C 145.945312 66.773438 144.714844 67.847656 143.992188 69.3125 C 143.230469 70.835938 142.878906 72.417969 142.878906 74.273438 C 142.878906 75.601562 143.09375 77.378906 143.855469 78.960938 C 144.753906 80.757812 145.964844 81.734375 146.140625 81.734375 C 146.199219 81.734375 146.277344 81.695312 146.277344 81.617188 Z M 146.277344 81.617188 "/>
<path style=" stroke:none;fill-rule:nonzero;fill:rgb(0%,0%,0%);fill-opacity:1;" d="M 154.203125 71.890625 C 153.714844 71.96875 153.539062 72.339844 153.539062 72.613281 C 153.539062 72.984375 153.8125 73.101562 154.027344 73.101562 C 154.476562 73.101562 154.789062 72.710938 154.789062 72.300781 C 154.789062 71.675781 154.066406 71.402344 153.441406 71.402344 C 152.542969 71.402344 152.035156 72.300781 151.898438 72.574219 C 151.546875 71.460938 150.628906 71.402344 150.355469 71.402344 C 148.832031 71.402344 148.03125 73.355469 148.03125 73.6875 C 148.03125 73.746094 148.089844 73.824219 148.1875 73.824219 C 148.304688 73.824219 148.34375 73.726562 148.363281 73.667969 C 148.871094 72.007812 149.886719 71.695312 150.316406 71.695312 C 150.980469 71.695312 151.117188 72.320312 151.117188 72.671875 C 151.117188 73.003906 151.019531 73.355469 150.84375 74.078125 L 150.335938 76.109375 C 150.121094 77.007812 149.691406 77.828125 148.890625 77.828125 C 148.8125 77.828125 148.441406 77.828125 148.128906 77.632812 C 148.675781 77.535156 148.792969 77.085938 148.792969 76.910156 C 148.792969 76.617188 148.558594 76.421875 148.285156 76.421875 C 147.914062 76.421875 147.523438 76.753906 147.523438 77.222656 C 147.523438 77.847656 148.226562 78.140625 148.871094 78.140625 C 149.59375 78.140625 150.101562 77.574219 150.414062 76.949219 C 150.648438 77.828125 151.410156 78.140625 151.957031 78.140625 C 153.480469 78.140625 154.28125 76.167969 154.28125 75.855469 C 154.28125 75.777344 154.222656 75.71875 154.144531 75.71875 C 154.007812 75.71875 153.988281 75.796875 153.949219 75.914062 C 153.539062 77.222656 152.679688 77.828125 151.996094 77.828125 C 151.46875 77.828125 151.195312 77.4375 151.195312 76.832031 C 151.195312 76.5 151.253906 76.265625 151.488281 75.289062 L 152.015625 73.238281 C 152.230469 72.359375 152.738281 71.695312 153.441406 71.695312 C 153.460938 71.695312 153.890625 71.695312 154.203125 71.890625 Z M 154.203125 71.890625 "/>
<path style=" stroke:none;fill-rule:nonzero;fill:rgb(0%,0%,0%);fill-opacity:1;" d="M 159.582031 74.273438 C 159.582031 73.121094 159.425781 71.285156 158.585938 69.546875 C 157.707031 67.75 156.476562 66.773438 156.320312 66.773438 C 156.261719 66.773438 156.183594 66.8125 156.183594 66.890625 C 156.183594 66.949219 156.183594 66.96875 156.4375 67.222656 C 157.941406 68.726562 158.761719 71.207031 158.761719 74.253906 C 158.761719 77.144531 158.058594 79.644531 156.339844 81.402344 C 156.183594 81.539062 156.183594 81.578125 156.183594 81.617188 C 156.183594 81.695312 156.261719 81.734375 156.320312 81.734375 C 156.515625 81.734375 157.746094 80.660156 158.46875 79.195312 C 159.230469 77.671875 159.582031 76.050781 159.582031 74.273438 Z M 159.582031 74.273438 "/>
<path style=" stroke:none;fill-rule:nonzero;fill:rgb(0%,0%,0%);fill-opacity:1;" d="M 193.40625 74.546875 C 193.660156 74.546875 193.933594 74.546875 193.933594 74.253906 C 193.933594 73.941406 193.660156 73.941406 193.40625 73.941406 L 185.320312 73.941406 C 185.066406 73.941406 184.792969 73.941406 184.792969 74.253906 C 184.792969 74.546875 185.066406 74.546875 185.320312 74.546875 Z M 193.40625 74.546875 "/>
<path style=" stroke:none;fill-rule:nonzero;fill:rgb(0%,0%,0%);fill-opacity:1;" d="M 199.410156 68.414062 C 199.410156 68.0625 199.410156 68.042969 199.117188 68.042969 C 198.765625 68.453125 198.003906 69 196.480469 69 L 196.480469 69.429688 C 196.8125 69.429688 197.554688 69.429688 198.394531 69.058594 L 198.394531 76.832031 C 198.394531 77.378906 198.335938 77.554688 197.027344 77.554688 L 196.558594 77.554688 L 196.558594 77.984375 C 196.96875 77.945312 198.414062 77.945312 198.902344 77.945312 C 199.410156 77.945312 200.835938 77.945312 201.246094 77.984375 L 201.246094 77.554688 L 200.777344 77.554688 C 199.46875 77.554688 199.410156 77.378906 199.410156 76.832031 Z M 199.410156 68.414062 "/>
<path style=" stroke:none;fill-rule:nonzero;fill:rgb(0%,0%,0%);fill-opacity:1;" d="M 93.097656 92.699219 L 217.445312 92.699219 L 217.445312 93.597656 L 93.097656 93.597656 Z M 93.097656 92.699219 "/>
<path style=" stroke:none;fill-rule:nonzero;fill:rgb(0%,0%,0%);fill-opacity:1;" d="M 123.773438 104.667969 C 124.066406 104.667969 124.203125 104.667969 124.203125 104.394531 C 124.203125 104.238281 124.066406 104.238281 123.8125 104.238281 L 122.601562 104.238281 C 122.875 102.695312 123.089844 101.640625 123.207031 101.171875 C 123.304688 100.800781 123.617188 100.46875 124.007812 100.46875 C 124.320312 100.46875 124.632812 100.605469 124.769531 100.742188 C 124.203125 100.800781 124.007812 101.230469 124.007812 101.484375 C 124.007812 101.777344 124.242188 101.953125 124.515625 101.953125 C 124.828125 101.953125 125.277344 101.699219 125.277344 101.132812 C 125.277344 100.507812 124.652344 100.15625 123.988281 100.15625 C 123.34375 100.15625 122.71875 100.644531 122.425781 101.230469 C 122.152344 101.757812 121.996094 102.285156 121.664062 104.238281 L 120.648438 104.238281 C 120.375 104.238281 120.21875 104.238281 120.21875 104.511719 C 120.21875 104.667969 120.316406 104.667969 120.609375 104.667969 L 121.566406 104.667969 C 121.292969 106.074219 120.6875 109.453125 120.335938 111.035156 C 120.082031 112.34375 119.867188 113.4375 119.125 113.4375 C 119.066406 113.4375 118.636719 113.4375 118.363281 113.144531 C 119.125 113.085938 119.125 112.441406 119.125 112.421875 C 119.125 112.109375 118.910156 111.933594 118.617188 111.933594 C 118.324219 111.933594 117.875 112.1875 117.875 112.753906 C 117.875 113.398438 118.539062 113.730469 119.125 113.730469 C 120.648438 113.730469 121.273438 110.996094 121.429688 110.253906 C 121.703125 109.101562 122.425781 105.117188 122.503906 104.667969 Z M 123.773438 104.667969 "/>
<path style=" stroke:none;fill-rule:nonzero;fill:rgb(0%,0%,0%);fill-opacity:1;" d="M 130.824219 114.316406 C 130.824219 114.277344 130.824219 114.238281 130.570312 113.984375 C 129.066406 112.480469 128.226562 110.019531 128.226562 106.972656 C 128.226562 104.0625 128.929688 101.5625 130.667969 99.804688 C 130.824219 99.667969 130.824219 99.648438 130.824219 99.589844 C 130.824219 99.511719 130.746094 99.472656 130.6875 99.472656 C 130.492188 99.472656 129.261719 100.546875 128.539062 102.011719 C 127.777344 103.535156 127.425781 105.117188 127.425781 106.972656 C 127.425781 108.300781 127.640625 110.078125 128.402344 111.660156 C 129.300781 113.457031 130.511719 114.433594 130.6875 114.433594 C 130.746094 114.433594 130.824219 114.394531 130.824219 114.316406 Z M 130.824219 114.316406 "/>
<path style=" stroke:none;fill-rule:nonzero;fill:rgb(0%,0%,0%);fill-opacity:1;" d="M 135.957031 101.113281 C 135.957031 100.761719 135.957031 100.742188 135.664062 100.742188 C 135.3125 101.152344 134.550781 101.699219 133.027344 101.699219 L 133.027344 102.128906 C 133.359375 102.128906 134.101562 102.128906 134.941406 101.757812 L 134.941406 109.53125 C 134.941406 110.078125 134.882812 110.253906 133.574219 110.253906 L 133.105469 110.253906 L 133.105469 110.683594 C 133.515625 110.644531 134.960938 110.644531 135.449219 110.644531 C 135.957031 110.644531 137.382812 110.644531 137.792969 110.683594 L 137.792969 110.253906 L 137.324219 110.253906 C 136.015625 110.253906 135.957031 110.078125 135.957031 109.53125 Z M 135.957031 101.113281 "/>
<path style=" stroke:none;fill-rule:nonzero;fill:rgb(0%,0%,0%);fill-opacity:1;" d="M 143.230469 106.972656 C 143.230469 105.820312 143.074219 103.984375 142.234375 102.246094 C 141.355469 100.449219 140.125 99.472656 139.96875 99.472656 C 139.910156 99.472656 139.832031 99.511719 139.832031 99.589844 C 139.832031 99.648438 139.832031 99.667969 140.085938 99.921875 C 141.589844 101.425781 142.410156 103.90625 142.410156 106.953125 C 142.410156 109.84375 141.707031 112.34375 139.988281 114.101562 C 139.832031 114.238281 139.832031 114.277344 139.832031 114.316406 C 139.832031 114.394531 139.910156 114.433594 139.96875 114.433594 C 140.164062 114.433594 141.394531 113.359375 142.117188 111.894531 C 142.878906 110.371094 143.230469 108.75 143.230469 106.972656 Z M 143.230469 106.972656 "/>
<path style=" stroke:none;fill-rule:nonzero;fill:rgb(0%,0%,0%);fill-opacity:1;" d="M 193.40625 107.246094 C 193.660156 107.246094 193.933594 107.246094 193.933594 106.953125 C 193.933594 106.640625 193.660156 106.640625 193.40625 106.640625 L 185.320312 106.640625 C 185.066406 106.640625 184.792969 106.640625 184.792969 106.953125 C 184.792969 107.246094 185.066406 107.246094 185.320312 107.246094 Z M 193.40625 107.246094 "/>
<path style=" stroke:none;fill-rule:nonzero;fill:rgb(0%,0%,0%);fill-opacity:1;" d="M 199.410156 101.113281 C 199.410156 100.761719 199.410156 100.742188 199.117188 100.742188 C 198.765625 101.152344 198.003906 101.699219 196.480469 101.699219 L 196.480469 102.128906 C 196.8125 102.128906 197.554688 102.128906 198.394531 101.757812 L 198.394531 109.53125 C 198.394531 110.078125 198.335938 110.253906 197.027344 110.253906 L 196.558594 110.253906 L 196.558594 110.683594 C 196.96875 110.644531 198.414062 110.644531 198.902344 110.644531 C 199.410156 110.644531 200.835938 110.644531 201.246094 110.683594 L 201.246094 110.253906 L 200.777344 110.253906 C 199.46875 110.253906 199.410156 110.078125 199.410156 109.53125 Z M 199.410156 101.113281 "/>
<path style=" stroke:none;fill-rule:nonzero;fill:rgb(0%,0%,0%);fill-opacity:1;" d="M 93.097656 118.949219 L 217.445312 118.949219 L 217.445312 120.449219 L 93.097656 120.449219 Z M 93.097656 118.949219 "/>
<path style=" stroke:none;fill-rule:nonzero;fill:rgb(0%,0%,0%);fill-opacity:1;" d="M 6.09375 160.042969 L 4.511719 160.042969 L 0 172.484375 L 1.328125 172.484375 L 2.636719 168.851562 L 7.695312 168.851562 L 9.023438 172.484375 L 10.605469 172.484375 Z M 5.15625 161.332031 L 7.304688 167.835938 L 3.027344 167.835938 Z M 5.15625 161.332031 "/>
<path style=" stroke:none;fill-rule:nonzero;fill:rgb(0%,0%,0%);fill-opacity:1;" d="M 18.660156 167.09375 C 18.660156 166 18.425781 164.339844 16.257812 164.339844 C 15.261719 164.339844 14.402344 164.789062 13.71875 165.648438 L 13.71875 164.4375 L 12.449219 164.4375 L 12.449219 172.484375 L 13.796875 172.484375 L 13.796875 168.011719 C 13.796875 166.917969 14.226562 165.414062 15.574219 165.414062 C 17.253906 165.414062 17.292969 166.585938 17.292969 167.210938 L 17.292969 172.484375 L 18.660156 172.484375 Z M 18.660156 167.09375 "/>
<path style=" stroke:none;fill-rule:nonzero;fill:rgb(0%,0%,0%);fill-opacity:1;" d="M 27.640625 160.042969 L 26.3125 160.042969 L 26.3125 165.277344 C 25.492188 164.59375 24.554688 164.339844 23.792969 164.339844 C 22.09375 164.339844 20.6875 166.175781 20.6875 168.5 C 20.6875 170.824219 22.015625 172.660156 23.714844 172.660156 C 24.378906 172.660156 25.394531 172.445312 26.292969 171.566406 L 26.292969 172.484375 L 27.640625 172.484375 Z M 26.292969 170.375 C 25.863281 171.136719 25.21875 171.585938 24.4375 171.585938 C 23.34375 171.585938 22.054688 170.746094 22.054688 168.519531 C 22.054688 166.136719 23.578125 165.414062 24.613281 165.414062 C 25.316406 165.414062 25.882812 165.785156 26.292969 166.371094 Z M 26.292969 170.375 "/>
<path style=" stroke:none;fill-rule:nonzero;fill:rgb(0%,0%,0%);fill-opacity:1;" d="M 42.660156 167.09375 C 42.660156 166 42.425781 164.339844 40.257812 164.339844 C 39.027344 164.339844 38.207031 165.042969 37.777344 165.589844 L 37.777344 160.042969 L 36.449219 160.042969 L 36.449219 172.484375 L 37.796875 172.484375 L 37.796875 168.011719 C 37.796875 166.917969 38.226562 165.414062 39.574219 165.414062 C 41.253906 165.414062 41.292969 166.585938 41.292969 167.210938 L 41.292969 172.484375 L 42.660156 172.484375 Z M 42.660156 167.09375 "/>
<path style=" stroke:none;fill-rule:nonzero;fill:rgb(0%,0%,0%);fill-opacity:1;" d="M 51.367188 168.441406 C 51.367188 167.679688 51.289062 166.585938 50.722656 165.628906 C 49.980469 164.398438 48.730469 164.261719 48.203125 164.261719 C 46.269531 164.261719 44.648438 166.117188 44.648438 168.441406 C 44.648438 170.824219 46.367188 172.660156 48.457031 172.660156 C 49.277344 172.660156 50.273438 172.425781 51.25 171.722656 C 51.25 171.644531 51.191406 171.078125 51.191406 171.058594 C 51.171875 171.039062 51.152344 170.628906 51.152344 170.570312 C 50.078125 171.46875 49.023438 171.585938 48.496094 171.585938 C 47.109375 171.585938 45.917969 170.355469 45.898438 168.441406 Z M 45.996094 167.484375 C 46.308594 166.273438 47.148438 165.335938 48.203125 165.335938 C 48.769531 165.335938 50 165.589844 50.292969 167.484375 Z M 45.996094 167.484375 "/>
<path style=" stroke:none;fill-rule:nonzero;fill:rgb(0%,0%,0%);fill-opacity:1;" d="M 59.460938 167.09375 C 59.460938 166 59.226562 164.339844 57.058594 164.339844 C 56.0625 164.339844 55.203125 164.789062 54.519531 165.648438 L 54.519531 164.4375 L 53.25 164.4375 L 53.25 172.484375 L 54.597656 172.484375 L 54.597656 168.011719 C 54.597656 166.917969 55.027344 165.414062 56.375 165.414062 C 58.054688 165.414062 58.09375 166.585938 58.09375 167.210938 L 58.09375 172.484375 L 59.460938 172.484375 Z M 59.460938 167.09375 "/>
<path style=" stroke:none;fill-rule:nonzero;fill:rgb(0%,0%,0%);fill-opacity:1;" d="M 68.050781 170.550781 C 67.230469 171.214844 66.3125 171.546875 65.316406 171.546875 C 63.8125 171.546875 62.855469 170.21875 62.855469 168.480469 C 62.855469 166.996094 63.578125 165.375 65.355469 165.375 C 66.566406 165.375 67.074219 165.648438 67.835938 166.175781 L 68.050781 165.003906 C 67.015625 164.398438 66.429688 164.261719 65.355469 164.261719 C 62.894531 164.261719 61.488281 166.449219 61.488281 168.480469 C 61.488281 170.785156 63.148438 172.660156 65.296875 172.660156 C 66.175781 172.660156 67.171875 172.445312 68.167969 171.722656 C 68.167969 171.683594 68.109375 171.117188 68.089844 171.058594 Z M 68.050781 170.550781 "/>
<path style=" stroke:none;fill-rule:nonzero;fill:rgb(0%,0%,0%);fill-opacity:1;" d="M 75.964844 168.441406 C 75.964844 167.679688 75.886719 166.585938 75.320312 165.628906 C 74.578125 164.398438 73.328125 164.261719 72.800781 164.261719 C 70.867188 164.261719 69.246094 166.117188 69.246094 168.441406 C 69.246094 170.824219 70.964844 172.660156 73.054688 172.660156 C 73.875 172.660156 74.871094 172.425781 75.847656 171.722656 C 75.847656 171.644531 75.789062 171.078125 75.789062 171.058594 C 75.769531 171.039062 75.75 170.628906 75.75 170.570312 C 74.675781 171.46875 73.621094 171.585938 73.09375 171.585938 C 71.707031 171.585938 70.515625 170.355469 70.496094 168.441406 Z M 70.59375 167.484375 C 70.90625 166.273438 71.746094 165.335938 72.800781 165.335938 C 73.367188 165.335938 74.597656 165.589844 74.890625 167.484375 Z M 70.59375 167.484375 "/>
<path style=" stroke:none;fill-rule:nonzero;fill:rgb(0%,0%,0%);fill-opacity:1;" d="M 79.625 172.464844 L 79.625 171.039062 L 78.160156 171.039062 L 78.160156 172.484375 L 78.609375 172.484375 L 78.160156 174.730469 L 78.882812 174.730469 Z M 79.625 172.464844 "/>
<path style=" stroke:none;fill-rule:nonzero;fill:rgb(0%,0%,0%);fill-opacity:1;" d="M 95.101562 165.277344 C 95.472656 165.277344 95.609375 165.277344 95.609375 164.945312 C 95.609375 164.75 95.472656 164.75 95.140625 164.75 L 93.695312 164.75 C 94.027344 162.914062 94.28125 161.644531 94.4375 161.058594 C 94.535156 160.628906 94.90625 160.21875 95.375 160.21875 C 95.746094 160.21875 96.136719 160.375 96.3125 160.550781 C 95.609375 160.609375 95.394531 161.136719 95.394531 161.449219 C 95.394531 161.800781 95.667969 162.015625 96 162.015625 C 96.371094 162.015625 96.898438 161.703125 96.898438 161.019531 C 96.898438 160.277344 96.15625 159.867188 95.355469 159.867188 C 94.59375 159.867188 93.832031 160.433594 93.480469 161.136719 C 93.148438 161.761719 92.972656 162.40625 92.5625 164.75 L 91.371094 164.75 C 91.019531 164.75 90.84375 164.75 90.84375 165.082031 C 90.84375 165.277344 90.941406 165.277344 91.3125 165.277344 L 92.464844 165.277344 C 92.132812 166.9375 91.390625 171 90.980469 172.914062 C 90.6875 174.476562 90.414062 175.785156 89.515625 175.785156 C 89.457031 175.785156 88.949219 175.785156 88.617188 175.433594 C 89.535156 175.375 89.535156 174.574219 89.535156 174.554688 C 89.535156 174.203125 89.261719 173.988281 88.929688 173.988281 C 88.558594 173.988281 88.03125 174.300781 88.03125 174.984375 C 88.03125 175.746094 88.8125 176.136719 89.515625 176.136719 C 91.351562 176.136719 92.09375 172.855469 92.289062 171.957031 C 92.621094 170.589844 93.5 165.824219 93.578125 165.277344 Z M 95.101562 165.277344 "/>
<path style=" stroke:none;fill-rule:nonzero;fill:rgb(0%,0%,0%);fill-opacity:1;" d="M 103.582031 176.839844 C 103.582031 176.78125 103.582031 176.742188 103.289062 176.449219 C 101.492188 174.632812 100.496094 171.683594 100.496094 168.011719 C 100.496094 164.535156 101.335938 161.546875 103.40625 159.4375 C 103.582031 159.261719 103.582031 159.242188 103.582031 159.183594 C 103.582031 159.066406 103.503906 159.046875 103.425781 159.046875 C 103.191406 159.046875 101.726562 160.335938 100.847656 162.09375 C 99.929688 163.890625 99.519531 165.824219 99.519531 168.011719 C 99.519531 169.613281 99.773438 171.742188 100.710938 173.675781 C 101.765625 175.824219 103.230469 176.976562 103.425781 176.976562 C 103.503906 176.976562 103.582031 176.957031 103.582031 176.839844 Z M 103.582031 176.839844 "/>
<path style=" stroke:none;fill-rule:nonzero;fill:rgb(0%,0%,0%);fill-opacity:1;" d="M 113.15625 165.160156 C 112.589844 165.277344 112.375 165.707031 112.375 166.039062 C 112.375 166.46875 112.707031 166.625 112.960938 166.625 C 113.507812 166.625 113.878906 166.15625 113.878906 165.667969 C 113.878906 164.925781 113.019531 164.574219 112.257812 164.574219 C 111.164062 164.574219 110.558594 165.648438 110.402344 166 C 109.992188 164.652344 108.878906 164.574219 108.546875 164.574219 C 106.730469 164.574219 105.753906 166.917969 105.753906 167.328125 C 105.753906 167.386719 105.832031 167.484375 105.949219 167.484375 C 106.085938 167.484375 106.125 167.367188 106.164062 167.308594 C 106.769531 165.316406 107.980469 164.945312 108.488281 164.945312 C 109.308594 164.945312 109.464844 165.6875 109.464844 166.117188 C 109.464844 166.507812 109.367188 166.917969 109.132812 167.777344 L 108.527344 170.238281 C 108.273438 171.3125 107.746094 172.308594 106.789062 172.308594 C 106.710938 172.308594 106.261719 172.308594 105.871094 172.074219 C 106.515625 171.9375 106.671875 171.410156 106.671875 171.195312 C 106.671875 170.84375 106.398438 170.628906 106.066406 170.628906 C 105.636719 170.628906 105.167969 171 105.167969 171.566406 C 105.167969 172.328125 106.007812 172.660156 106.769531 172.660156 C 107.628906 172.660156 108.253906 171.976562 108.625 171.253906 C 108.917969 172.308594 109.796875 172.660156 110.460938 172.660156 C 112.296875 172.660156 113.273438 170.316406 113.273438 169.925781 C 113.273438 169.828125 113.195312 169.75 113.078125 169.75 C 112.921875 169.75 112.902344 169.847656 112.863281 169.984375 C 112.375 171.566406 111.320312 172.308594 110.519531 172.308594 C 109.894531 172.308594 109.5625 171.839844 109.5625 171.097656 C 109.5625 170.707031 109.621094 170.414062 109.914062 169.242188 L 110.539062 166.800781 C 110.8125 165.726562 111.417969 164.945312 112.238281 164.945312 C 112.277344 164.945312 112.785156 164.945312 113.15625 165.160156 Z M 113.15625 165.160156 "/>
<path style=" stroke:none;fill-rule:nonzero;fill:rgb(0%,0%,0%);fill-opacity:1;" d="M 119.769531 168.011719 C 119.769531 166.664062 119.59375 164.4375 118.578125 162.347656 C 117.523438 160.199219 116.058594 159.046875 115.863281 159.046875 C 115.785156 159.046875 115.6875 159.066406 115.6875 159.183594 C 115.6875 159.242188 115.6875 159.261719 116 159.574219 C 117.796875 161.390625 118.792969 164.339844 118.792969 168.011719 C 118.792969 171.488281 117.953125 174.476562 115.882812 176.585938 C 115.6875 176.742188 115.6875 176.78125 115.6875 176.839844 C 115.6875 176.957031 115.785156 176.976562 115.863281 176.976562 C 116.097656 176.976562 117.5625 175.6875 118.441406 173.929688 C 119.359375 172.113281 119.769531 170.179688 119.769531 168.011719 Z M 119.769531 168.011719 "/>
<path style=" stroke:none;fill-rule:nonzero;fill:rgb(0%,0%,0%);fill-opacity:1;" d="M 129.992188 160.316406 L 128.449219 160.316406 L 128.449219 161.859375 L 129.992188 161.859375 Z M 129.894531 164.515625 L 128.566406 164.515625 L 128.566406 172.484375 L 129.894531 172.484375 Z M 129.894531 164.515625 "/>
<path style=" stroke:none;fill-rule:nonzero;fill:rgb(0%,0%,0%);fill-opacity:1;" d="M 137.375 164.808594 C 136.242188 164.28125 135.265625 164.261719 134.855469 164.261719 C 134.445312 164.261719 131.945312 164.261719 131.945312 166.585938 C 131.945312 167.367188 132.375 167.914062 132.648438 168.167969 C 133.292969 168.714844 133.742188 168.8125 134.796875 169.027344 C 135.402344 169.144531 136.4375 169.359375 136.4375 170.316406 C 136.4375 171.546875 135.03125 171.546875 134.777344 171.546875 C 134.074219 171.546875 133.019531 171.351562 132.0625 170.648438 L 131.847656 171.878906 C 131.925781 171.9375 133.15625 172.660156 134.796875 172.660156 C 137.121094 172.660156 137.667969 171.273438 137.667969 170.199219 C 137.667969 169.300781 137.121094 168.714844 137.042969 168.636719 C 136.378906 167.953125 135.832031 167.835938 134.757812 167.621094 C 134.09375 167.503906 133.195312 167.328125 133.195312 166.429688 C 133.195312 165.316406 134.445312 165.316406 134.679688 165.316406 C 135.617188 165.316406 136.378906 165.53125 137.160156 165.980469 Z M 137.375 164.808594 "/>
<path style=" stroke:none;fill-rule:nonzero;fill:rgb(0%,0%,0%);fill-opacity:1;" d="M 151.148438 170.550781 C 150.328125 171.214844 149.410156 171.546875 148.414062 171.546875 C 146.910156 171.546875 145.953125 170.21875 145.953125 168.480469 C 145.953125 166.996094 146.675781 165.375 148.453125 165.375 C 149.664062 165.375 150.171875 165.648438 150.933594 166.175781 L 151.148438 165.003906 C 150.113281 164.398438 149.527344 164.261719 148.453125 164.261719 C 145.992188 164.261719 144.585938 166.449219 144.585938 168.480469 C 144.585938 170.785156 146.246094 172.660156 148.394531 172.660156 C 149.273438 172.660156 150.269531 172.445312 151.265625 171.722656 C 151.265625 171.683594 151.207031 171.117188 151.1875 171.058594 Z M 151.148438 170.550781 "/>
<path style=" stroke:none;fill-rule:nonzero;fill:rgb(0%,0%,0%);fill-opacity:1;" d="M 159.984375 168.539062 C 159.984375 166.117188 158.207031 164.261719 156.15625 164.261719 C 154.046875 164.261719 152.308594 166.15625 152.308594 168.539062 C 152.308594 170.882812 154.085938 172.660156 156.136719 172.660156 C 158.246094 172.660156 159.984375 170.84375 159.984375 168.539062 Z M 156.15625 171.546875 C 154.867188 171.546875 153.65625 170.472656 153.65625 168.363281 C 153.65625 166.195312 155.003906 165.335938 156.136719 165.335938 C 157.367188 165.335938 158.636719 166.253906 158.636719 168.363281 C 158.636719 170.570312 157.347656 171.546875 156.15625 171.546875 Z M 156.15625 171.546875 "/>
<path style=" stroke:none;fill-rule:nonzero;fill:rgb(0%,0%,0%);fill-opacity:1;" d="M 168.207031 167.09375 C 168.207031 166 167.972656 164.339844 165.804688 164.339844 C 164.808594 164.339844 163.949219 164.789062 163.265625 165.648438 L 163.265625 164.4375 L 161.996094 164.4375 L 161.996094 172.484375 L 163.34375 172.484375 L 163.34375 168.011719 C 163.34375 166.917969 163.773438 165.414062 165.121094 165.414062 C 166.800781 165.414062 166.839844 166.585938 166.839844 167.210938 L 166.839844 172.484375 L 168.207031 172.484375 Z M 168.207031 167.09375 "/>
<path style=" stroke:none;fill-rule:nonzero;fill:rgb(0%,0%,0%);fill-opacity:1;" d="M 172.675781 165.570312 L 175.15625 165.570312 L 175.15625 164.515625 L 172.675781 164.515625 L 172.675781 162.25 L 171.445312 162.25 L 171.445312 164.515625 L 169.941406 164.515625 L 169.941406 165.570312 L 171.40625 165.570312 L 171.40625 170.394531 C 171.40625 171.429688 171.640625 172.660156 172.871094 172.660156 C 174.082031 172.660156 174.902344 172.25 175.449219 171.957031 L 175.175781 170.921875 C 174.550781 171.488281 173.886719 171.546875 173.574219 171.546875 C 172.773438 171.546875 172.675781 170.707031 172.675781 170.082031 Z M 172.675781 165.570312 "/>
<path style=" stroke:none;fill-rule:nonzero;fill:rgb(0%,0%,0%);fill-opacity:1;" d="M 178.742188 160.316406 L 177.199219 160.316406 L 177.199219 161.859375 L 178.742188 161.859375 Z M 178.644531 164.515625 L 177.316406 164.515625 L 177.316406 172.484375 L 178.644531 172.484375 Z M 178.644531 164.515625 "/>
<path style=" stroke:none;fill-rule:nonzero;fill:rgb(0%,0%,0%);fill-opacity:1;" d="M 187.707031 167.09375 C 187.707031 166 187.472656 164.339844 185.304688 164.339844 C 184.308594 164.339844 183.449219 164.789062 182.765625 165.648438 L 182.765625 164.4375 L 181.496094 164.4375 L 181.496094 172.484375 L 182.84375 172.484375 L 182.84375 168.011719 C 182.84375 166.917969 183.273438 165.414062 184.621094 165.414062 C 186.300781 165.414062 186.339844 166.585938 186.339844 167.210938 L 186.339844 172.484375 L 187.707031 172.484375 Z M 187.707031 167.09375 "/>
<path style=" stroke:none;fill-rule:nonzero;fill:rgb(0%,0%,0%);fill-opacity:1;" d="M 196.707031 164.515625 L 195.339844 164.515625 L 195.339844 169.652344 C 195.339844 171.019531 194.402344 171.683594 193.230469 171.683594 C 191.980469 171.683594 191.84375 171.214844 191.84375 170.414062 L 191.84375 164.515625 L 190.496094 164.515625 L 190.496094 170.492188 C 190.496094 171.78125 190.90625 172.660156 192.371094 172.660156 C 192.878906 172.660156 194.285156 172.582031 195.378906 171.585938 L 195.378906 172.484375 L 196.707031 172.484375 Z M 196.707031 164.515625 "/>
<path style=" stroke:none;fill-rule:nonzero;fill:rgb(0%,0%,0%);fill-opacity:1;" d="M 206.332031 168.539062 C 206.332031 166.117188 204.554688 164.261719 202.503906 164.261719 C 200.394531 164.261719 198.65625 166.15625 198.65625 168.539062 C 198.65625 170.882812 200.433594 172.660156 202.484375 172.660156 C 204.59375 172.660156 206.332031 170.84375 206.332031 168.539062 Z M 202.503906 171.546875 C 201.214844 171.546875 200.003906 170.472656 200.003906 168.363281 C 200.003906 166.195312 201.351562 165.335938 202.484375 165.335938 C 203.714844 165.335938 204.984375 166.253906 204.984375 168.363281 C 204.984375 170.570312 203.695312 171.546875 202.503906 171.546875 Z M 202.503906 171.546875 "/>
<path style=" stroke:none;fill-rule:nonzero;fill:rgb(0%,0%,0%);fill-opacity:1;" d="M 214.558594 164.515625 L 213.191406 164.515625 L 213.191406 169.652344 C 213.191406 171.019531 212.253906 171.683594 211.082031 171.683594 C 209.832031 171.683594 209.695312 171.214844 209.695312 170.414062 L 209.695312 164.515625 L 208.347656 164.515625 L 208.347656 170.492188 C 208.347656 171.78125 208.757812 172.660156 210.222656 172.660156 C 210.730469 172.660156 212.136719 172.582031 213.230469 171.585938 L 213.230469 172.484375 L 214.558594 172.484375 Z M 214.558594 164.515625 "/>
<path style=" stroke:none;fill-rule:nonzero;fill:rgb(0%,0%,0%);fill-opacity:1;" d="M 221.976562 164.808594 C 220.84375 164.28125 219.867188 164.261719 219.457031 164.261719 C 219.046875 164.261719 216.546875 164.261719 216.546875 166.585938 C 216.546875 167.367188 216.976562 167.914062 217.25 168.167969 C 217.894531 168.714844 218.34375 168.8125 219.398438 169.027344 C 220.003906 169.144531 221.039062 169.359375 221.039062 170.316406 C 221.039062 171.546875 219.632812 171.546875 219.378906 171.546875 C 218.675781 171.546875 217.621094 171.351562 216.664062 170.648438 L 216.449219 171.878906 C 216.527344 171.9375 217.757812 172.660156 219.398438 172.660156 C 221.722656 172.660156 222.269531 171.273438 222.269531 170.199219 C 222.269531 169.300781 221.722656 168.714844 221.644531 168.636719 C 220.980469 167.953125 220.433594 167.835938 219.359375 167.621094 C 218.695312 167.503906 217.796875 167.328125 217.796875 166.429688 C 217.796875 165.316406 219.046875 165.316406 219.28125 165.316406 C 220.21875 165.316406 220.980469 165.53125 221.761719 165.980469 Z M 221.976562 164.808594 "/>
<path style=" stroke:none;fill-rule:nonzero;fill:rgb(0%,0%,0%);fill-opacity:1;" d="M 235.421875 167.230469 C 235.421875 165.511719 234.191406 164.261719 232.511719 164.261719 C 231.4375 164.261719 230.636719 164.496094 229.757812 165.003906 L 229.855469 166.195312 C 230.65625 165.609375 231.476562 165.296875 232.511719 165.296875 C 233.332031 165.296875 234.054688 165.960938 234.054688 167.269531 L 234.054688 168.011719 C 233.253906 168.03125 232.179688 168.089844 231.105469 168.441406 C 229.894531 168.871094 229.191406 169.535156 229.191406 170.414062 C 229.191406 171.214844 229.660156 172.660156 231.183594 172.660156 C 232.179688 172.660156 233.429688 172.367188 234.09375 171.820312 L 234.09375 172.484375 L 235.421875 172.484375 Z M 234.054688 170.082031 C 234.054688 170.433594 234.054688 170.863281 233.46875 171.234375 C 232.980469 171.527344 232.375 171.585938 232.101562 171.585938 C 231.144531 171.585938 230.480469 171.058594 230.480469 170.414062 C 230.480469 169.183594 232.960938 168.910156 234.054688 168.910156 Z M 234.054688 170.082031 "/>
<path style=" stroke:none;fill-rule:nonzero;fill:rgb(0%,0%,0%);fill-opacity:1;" d="M 239.878906 165.570312 L 242.359375 165.570312 L 242.359375 164.515625 L 239.878906 164.515625 L 239.878906 162.25 L 238.648438 162.25 L 238.648438 164.515625 L 237.144531 164.515625 L 237.144531 165.570312 L 238.609375 165.570312 L 238.609375 170.394531 C 238.609375 171.429688 238.84375 172.660156 240.074219 172.660156 C 241.285156 172.660156 242.105469 172.25 242.652344 171.957031 L 242.378906 170.921875 C 241.753906 171.488281 241.089844 171.546875 240.777344 171.546875 C 239.976562 171.546875 239.878906 170.707031 239.878906 170.082031 Z M 239.878906 165.570312 "/>
<path style=" stroke:none;fill-rule:nonzero;fill:rgb(0%,0%,0%);fill-opacity:1;" d="M 257.457031 165.160156 C 256.890625 165.277344 256.675781 165.707031 256.675781 166.039062 C 256.675781 166.46875 257.007812 166.625 257.261719 166.625 C 257.808594 166.625 258.179688 166.15625 258.179688 165.667969 C 258.179688 164.925781 257.320312 164.574219 256.558594 164.574219 C 255.464844 164.574219 254.859375 165.648438 254.703125 166 C 254.292969 164.652344 253.179688 164.574219 252.847656 164.574219 C 251.03125 164.574219 250.054688 166.917969 250.054688 167.328125 C 250.054688 167.386719 250.132812 167.484375 250.25 167.484375 C 250.386719 167.484375 250.425781 167.367188 250.464844 167.308594 C 251.070312 165.316406 252.28125 164.945312 252.789062 164.945312 C 253.609375 164.945312 253.765625 165.6875 253.765625 166.117188 C 253.765625 166.507812 253.667969 166.917969 253.433594 167.777344 L 252.828125 170.238281 C 252.574219 171.3125 252.046875 172.308594 251.089844 172.308594 C 251.011719 172.308594 250.5625 172.308594 250.171875 172.074219 C 250.816406 171.9375 250.972656 171.410156 250.972656 171.195312 C 250.972656 170.84375 250.699219 170.628906 250.367188 170.628906 C 249.9375 170.628906 249.46875 171 249.46875 171.566406 C 249.46875 172.328125 250.308594 172.660156 251.070312 172.660156 C 251.929688 172.660156 252.554688 171.976562 252.925781 171.253906 C 253.21875 172.308594 254.097656 172.660156 254.761719 172.660156 C 256.597656 172.660156 257.574219 170.316406 257.574219 169.925781 C 257.574219 169.828125 257.496094 169.75 257.378906 169.75 C 257.222656 169.75 257.203125 169.847656 257.164062 169.984375 C 256.675781 171.566406 255.621094 172.308594 254.820312 172.308594 C 254.195312 172.308594 253.863281 171.839844 253.863281 171.097656 C 253.863281 170.707031 253.921875 170.414062 254.214844 169.242188 L 254.839844 166.800781 C 255.113281 165.726562 255.71875 164.945312 256.539062 164.945312 C 256.578125 164.945312 257.085938 164.945312 257.457031 165.160156 Z M 257.457031 165.160156 "/>
<path style=" stroke:none;fill-rule:nonzero;fill:rgb(0%,0%,0%);fill-opacity:1;" d="M 276.070312 166.683594 C 276.324219 166.683594 276.636719 166.683594 276.636719 166.351562 C 276.636719 166.019531 276.324219 166.019531 276.070312 166.019531 L 265.503906 166.019531 C 265.25 166.019531 264.9375 166.019531 264.9375 166.332031 C 264.9375 166.683594 265.230469 166.683594 265.503906 166.683594 Z M 276.070312 170.003906 C 276.324219 170.003906 276.636719 170.003906 276.636719 169.691406 C 276.636719 169.339844 276.324219 169.339844 276.070312 169.339844 L 265.503906 169.339844 C 265.25 169.339844 264.9375 169.339844 264.9375 169.671875 C 264.9375 170.003906 265.230469 170.003906 265.503906 170.003906 Z M 276.070312 170.003906 "/>
<path style=" stroke:none;fill-rule:nonzero;fill:rgb(0%,0%,0%);fill-opacity:1;" d="M 287.71875 161 C 287.71875 160.570312 287.71875 160.570312 287.367188 160.570312 C 286.9375 161.039062 286.039062 161.703125 284.203125 161.703125 L 284.203125 162.230469 C 284.613281 162.230469 285.511719 162.230469 286.488281 161.761719 L 286.488281 171.097656 C 286.488281 171.742188 286.429688 171.957031 284.867188 171.957031 L 284.300781 171.957031 L 284.300781 172.484375 C 284.789062 172.445312 286.527344 172.445312 287.113281 172.445312 C 287.699219 172.445312 289.4375 172.445312 289.90625 172.484375 L 289.90625 171.957031 L 289.359375 171.957031 C 287.777344 171.957031 287.71875 171.742188 287.71875 171.097656 Z M 287.71875 161 "/>
</g>
</svg>
