<?xml version="1.0" encoding="UTF-8"?>
<svg xmlns="http://www.w3.org/2000/svg" xmlns:xlink="http://www.w3.org/1999/xlink" width="379.4877pt" height="142.92372pt" viewBox="0 0 379.4877 142.92372" version="1.1">
<g id="surface1">
<path style=" stroke:none;fill-rule:nonzero;fill:rgb(0%,0%,0%);fill-opacity:1;" d="M 18.066406 16.515625 L 20.585938 16.515625 C 22.65625 16.515625 24.707031 14.992188 24.707031 13.273438 C 24.707031 12.121094 23.730469 11.066406 21.835938 11.066406 L 17.226562 11.066406 C 16.933594 11.066406 16.796875 11.066406 16.796875 11.339844 C 16.796875 11.496094 16.933594 11.496094 17.167969 11.496094 C 18.066406 11.496094 18.066406 11.613281 18.066406 11.769531 C 18.066406 11.808594 18.066406 11.886719 18.007812 12.121094 L 15.996094 20.148438 C 15.859375 20.675781 15.839844 20.832031 14.785156 20.832031 C 14.511719 20.832031 14.355469 20.832031 14.355469 21.105469 C 14.355469 21.261719 14.492188 21.261719 14.570312 21.261719 C 14.863281 21.261719 15.15625 21.222656 15.449219 21.222656 L 17.1875 21.222656 C 17.480469 21.222656 17.792969 21.261719 18.066406 21.261719 C 18.203125 21.261719 18.359375 21.261719 18.359375 20.96875 C 18.359375 20.832031 18.222656 20.832031 18.007812 20.832031 C 17.109375 20.832031 17.089844 20.714844 17.089844 20.578125 C 17.089844 20.5 17.109375 20.402344 17.109375 20.324219 Z M 19.160156 12.082031 C 19.277344 11.515625 19.335938 11.496094 19.921875 11.496094 L 21.40625 11.496094 C 22.519531 11.496094 23.457031 11.847656 23.457031 12.960938 C 23.457031 13.351562 23.261719 14.621094 22.578125 15.324219 C 22.324219 15.578125 21.601562 16.144531 20.234375 16.144531 L 18.125 16.144531 Z M 19.160156 12.082031 "/>
<path style=" stroke:none;fill-rule:nonzero;fill:rgb(0%,0%,0%);fill-opacity:1;" d="M 32.464844 24.894531 C 32.464844 24.855469 32.464844 24.816406 32.210938 24.5625 C 30.707031 23.058594 29.867188 20.597656 29.867188 17.550781 C 29.867188 14.640625 30.570312 12.140625 32.308594 10.382812 C 32.464844 10.246094 32.464844 10.226562 32.464844 10.167969 C 32.464844 10.089844 32.386719 10.050781 32.328125 10.050781 C 32.132812 10.050781 30.902344 11.125 30.179688 12.589844 C 29.417969 14.113281 29.066406 15.695312 29.066406 17.550781 C 29.066406 18.878906 29.28125 20.65625 30.042969 22.238281 C 30.941406 24.035156 32.152344 25.011719 32.328125 25.011719 C 32.386719 25.011719 32.464844 24.972656 32.464844 24.894531 Z M 32.464844 24.894531 "/>
<path style=" stroke:none;fill-rule:nonzero;fill:rgb(0%,0%,0%);fill-opacity:1;" d="M 44.355469 12.628906 C 44.53125 11.984375 44.765625 11.535156 45.898438 11.496094 C 45.9375 11.496094 46.113281 11.476562 46.113281 11.222656 C 46.113281 11.066406 45.976562 11.066406 45.917969 11.066406 C 45.625 11.066406 44.863281 11.085938 44.570312 11.085938 L 43.847656 11.085938 C 43.632812 11.085938 43.378906 11.066406 43.164062 11.066406 C 43.066406 11.066406 42.890625 11.066406 42.890625 11.339844 C 42.890625 11.496094 43.007812 11.496094 43.125 11.496094 C 44.023438 11.515625 44.082031 11.867188 44.082031 12.140625 C 44.082031 12.257812 44.0625 12.316406 44.023438 12.511719 L 42.324219 19.25 L 39.121094 11.320312 C 39.023438 11.066406 39.003906 11.066406 38.671875 11.066406 L 36.855469 11.066406 C 36.5625 11.066406 36.425781 11.066406 36.425781 11.339844 C 36.425781 11.496094 36.523438 11.496094 36.816406 11.496094 C 36.894531 11.496094 37.773438 11.496094 37.773438 11.632812 C 37.773438 11.652344 37.734375 11.769531 37.714844 11.828125 L 35.742188 19.738281 C 35.566406 20.460938 35.195312 20.792969 34.21875 20.832031 C 34.140625 20.832031 33.984375 20.851562 33.984375 21.105469 C 33.984375 21.261719 34.140625 21.261719 34.179688 21.261719 C 34.472656 21.261719 35.234375 21.222656 35.546875 21.222656 L 36.25 21.222656 C 36.464844 21.222656 36.71875 21.261719 36.933594 21.261719 C 37.03125 21.261719 37.207031 21.261719 37.207031 20.96875 C 37.207031 20.851562 37.050781 20.832031 36.992188 20.832031 C 36.503906 20.8125 36.015625 20.714844 36.015625 20.1875 C 36.015625 20.070312 36.054688 19.933594 36.074219 19.816406 L 38.105469 11.828125 C 38.183594 11.964844 38.183594 12.003906 38.242188 12.140625 L 41.796875 20.988281 C 41.875 21.164062 41.914062 21.261719 42.050781 21.261719 C 42.1875 21.261719 42.207031 21.222656 42.265625 20.96875 Z M 44.355469 12.628906 "/>
<path style=" stroke:none;fill-rule:nonzero;fill:rgb(0%,0%,0%);fill-opacity:1;" d="M 46.679688 22.730469 C 46.601562 23.101562 46.582031 23.179688 45.839844 23.179688 C 45.644531 23.179688 45.527344 23.179688 45.527344 23.375 C 45.527344 23.511719 45.664062 23.511719 45.820312 23.511719 L 49.53125 23.511719 C 51.171875 23.511719 52.382812 22.339844 52.382812 21.382812 C 52.382812 20.660156 51.757812 20.074219 50.761719 19.957031 C 51.914062 19.742188 52.910156 18.980469 52.910156 18.101562 C 52.910156 17.359375 52.1875 16.714844 50.9375 16.714844 L 47.460938 16.714844 C 47.285156 16.714844 47.148438 16.714844 47.148438 16.890625 C 47.148438 17.046875 47.265625 17.046875 47.441406 17.046875 C 47.773438 17.046875 48.066406 17.046875 48.066406 17.203125 C 48.066406 17.242188 48.046875 17.242188 48.027344 17.378906 Z M 48.242188 19.839844 L 48.847656 17.398438 C 48.925781 17.066406 48.945312 17.046875 49.355469 17.046875 L 50.78125 17.046875 C 51.757812 17.046875 51.992188 17.671875 51.992188 18.082031 C 51.992188 18.921875 51.074219 19.839844 49.804688 19.839844 Z M 47.558594 23.179688 C 47.460938 23.160156 47.421875 23.160156 47.421875 23.101562 C 47.421875 23.023438 47.441406 22.925781 47.460938 22.867188 L 48.164062 20.113281 L 50.195312 20.113281 C 51.113281 20.113281 51.425781 20.738281 51.425781 21.304688 C 51.425781 22.28125 50.46875 23.179688 49.277344 23.179688 Z M 47.558594 23.179688 "/>
<path style=" stroke:none;fill-rule:nonzero;fill:rgb(0%,0%,0%);fill-opacity:1;" d="M 68.429688 16.417969 C 68.644531 16.417969 68.917969 16.417969 68.917969 16.144531 C 68.917969 15.871094 68.664062 15.871094 68.429688 15.871094 L 59.640625 15.871094 C 59.425781 15.871094 59.152344 15.871094 59.152344 16.144531 C 59.152344 16.417969 59.40625 16.417969 59.640625 16.417969 Z M 68.429688 19.191406 C 68.644531 19.191406 68.917969 19.191406 68.917969 18.9375 C 68.917969 18.644531 68.664062 18.644531 68.429688 18.644531 L 59.640625 18.644531 C 59.425781 18.644531 59.152344 18.644531 59.152344 18.917969 C 59.152344 19.191406 59.40625 19.191406 59.640625 19.191406 Z M 68.429688 19.191406 "/>
<path style=" stroke:none;fill-rule:nonzero;fill:rgb(0%,0%,0%);fill-opacity:1;" d="M 80.382812 18.742188 L 80.050781 18.742188 C 79.992188 18.996094 79.875 19.835938 79.738281 20.070312 C 79.621094 20.207031 78.78125 20.207031 78.332031 20.207031 L 75.558594 20.207031 C 75.96875 19.855469 76.886719 18.898438 77.257812 18.546875 C 79.542969 16.457031 80.382812 15.675781 80.382812 14.191406 C 80.382812 12.472656 79.015625 11.320312 77.277344 11.320312 C 75.558594 11.320312 74.523438 12.804688 74.523438 14.09375 C 74.523438 14.855469 75.1875 14.855469 75.226562 14.855469 C 75.558594 14.855469 75.929688 14.621094 75.929688 14.152344 C 75.929688 13.722656 75.65625 13.449219 75.226562 13.449219 C 75.109375 13.449219 75.070312 13.449219 75.03125 13.46875 C 75.304688 12.453125 76.125 11.75 77.082031 11.75 C 78.351562 11.75 79.132812 12.824219 79.132812 14.191406 C 79.132812 15.460938 78.410156 16.574219 77.550781 17.53125 L 74.523438 20.910156 L 74.523438 21.261719 L 79.992188 21.261719 Z M 80.382812 18.742188 "/>
<path style=" stroke:none;fill-rule:nonzero;fill:rgb(0%,0%,0%);fill-opacity:1;" d="M 86.085938 10.597656 C 86.085938 10.324219 86.085938 10.050781 85.773438 10.050781 C 85.480469 10.050781 85.480469 10.324219 85.480469 10.597656 L 85.480469 24.464844 C 85.480469 24.71875 85.480469 24.992188 85.773438 24.992188 C 86.085938 24.992188 86.085938 24.71875 86.085938 24.464844 Z M 86.085938 10.597656 "/>
<path style=" stroke:none;fill-rule:nonzero;fill:rgb(0%,0%,0%);fill-opacity:1;" d="M 101.507812 12.628906 C 101.683594 11.984375 101.917969 11.535156 103.050781 11.496094 C 103.089844 11.496094 103.265625 11.476562 103.265625 11.222656 C 103.265625 11.066406 103.128906 11.066406 103.070312 11.066406 C 102.777344 11.066406 102.015625 11.085938 101.722656 11.085938 L 101 11.085938 C 100.785156 11.085938 100.53125 11.066406 100.316406 11.066406 C 100.21875 11.066406 100.042969 11.066406 100.042969 11.339844 C 100.042969 11.496094 100.160156 11.496094 100.277344 11.496094 C 101.175781 11.515625 101.234375 11.867188 101.234375 12.140625 C 101.234375 12.257812 101.214844 12.316406 101.175781 12.511719 L 99.476562 19.25 L 96.273438 11.320312 C 96.175781 11.066406 96.15625 11.066406 95.824219 11.066406 L 94.007812 11.066406 C 93.714844 11.066406 93.578125 11.066406 93.578125 11.339844 C 93.578125 11.496094 93.675781 11.496094 93.96875 11.496094 C 94.046875 11.496094 94.925781 11.496094 94.925781 11.632812 C 94.925781 11.652344 94.886719 11.769531 94.867188 11.828125 L 92.894531 19.738281 C 92.71875 20.460938 92.347656 20.792969 91.371094 20.832031 C 91.292969 20.832031 91.136719 20.851562 91.136719 21.105469 C 91.136719 21.261719 91.292969 21.261719 91.332031 21.261719 C 91.625 21.261719 92.386719 21.222656 92.699219 21.222656 L 93.402344 21.222656 C 93.617188 21.222656 93.871094 21.261719 94.085938 21.261719 C 94.183594 21.261719 94.359375 21.261719 94.359375 20.96875 C 94.359375 20.851562 94.203125 20.832031 94.144531 20.832031 C 93.65625 20.8125 93.167969 20.714844 93.167969 20.1875 C 93.167969 20.070312 93.207031 19.933594 93.226562 19.816406 L 95.257812 11.828125 C 95.335938 11.964844 95.335938 12.003906 95.394531 12.140625 L 98.949219 20.988281 C 99.027344 21.164062 99.066406 21.261719 99.203125 21.261719 C 99.339844 21.261719 99.359375 21.222656 99.417969 20.96875 Z M 101.507812 12.628906 "/>
<path style=" stroke:none;fill-rule:nonzero;fill:rgb(0%,0%,0%);fill-opacity:1;" d="M 103.832031 22.730469 C 103.753906 23.101562 103.734375 23.179688 102.992188 23.179688 C 102.796875 23.179688 102.679688 23.179688 102.679688 23.375 C 102.679688 23.511719 102.816406 23.511719 102.972656 23.511719 L 106.683594 23.511719 C 108.324219 23.511719 109.535156 22.339844 109.535156 21.382812 C 109.535156 20.660156 108.910156 20.074219 107.914062 19.957031 C 109.066406 19.742188 110.0625 18.980469 110.0625 18.101562 C 110.0625 17.359375 109.339844 16.714844 108.089844 16.714844 L 104.613281 16.714844 C 104.4375 16.714844 104.300781 16.714844 104.300781 16.890625 C 104.300781 17.046875 104.417969 17.046875 104.59375 17.046875 C 104.925781 17.046875 105.21875 17.046875 105.21875 17.203125 C 105.21875 17.242188 105.199219 17.242188 105.179688 17.378906 Z M 105.394531 19.839844 L 106 17.398438 C 106.078125 17.066406 106.097656 17.046875 106.507812 17.046875 L 107.933594 17.046875 C 108.910156 17.046875 109.144531 17.671875 109.144531 18.082031 C 109.144531 18.921875 108.226562 19.839844 106.957031 19.839844 Z M 104.710938 23.179688 C 104.613281 23.160156 104.574219 23.160156 104.574219 23.101562 C 104.574219 23.023438 104.59375 22.925781 104.613281 22.867188 L 105.316406 20.113281 L 107.347656 20.113281 C 108.265625 20.113281 108.578125 20.738281 108.578125 21.304688 C 108.578125 22.28125 107.621094 23.179688 106.429688 23.179688 Z M 104.710938 23.179688 "/>
<path style=" stroke:none;fill-rule:nonzero;fill:rgb(0%,0%,0%);fill-opacity:1;" d="M 125.277344 16.417969 C 125.472656 16.339844 125.570312 16.222656 125.570312 16.085938 C 125.570312 15.949219 125.511719 15.851562 125.277344 15.753906 L 117.035156 11.867188 C 116.820312 11.75 116.761719 11.75 116.742188 11.75 C 116.566406 11.75 116.429688 11.886719 116.429688 12.0625 C 116.429688 12.238281 116.566406 12.316406 116.722656 12.394531 L 124.574219 16.085938 L 116.761719 19.777344 C 116.449219 19.894531 116.429688 20.03125 116.429688 20.109375 C 116.429688 20.285156 116.566406 20.402344 116.742188 20.402344 C 116.78125 20.402344 116.820312 20.402344 117.015625 20.304688 Z M 125.042969 23.3125 C 125.296875 23.3125 125.570312 23.3125 125.570312 23.019531 C 125.570312 22.707031 125.257812 22.707031 125.023438 22.707031 L 116.976562 22.707031 C 116.761719 22.707031 116.429688 22.707031 116.429688 23.019531 C 116.429688 23.3125 116.703125 23.3125 116.957031 23.3125 Z M 125.042969 23.3125 "/>
<path style=" stroke:none;fill-rule:nonzero;fill:rgb(0%,0%,0%);fill-opacity:1;" d="M 135.398438 11.691406 C 135.398438 11.339844 135.398438 11.320312 135.105469 11.320312 C 134.753906 11.730469 133.992188 12.277344 132.46875 12.277344 L 132.46875 12.707031 C 132.800781 12.707031 133.542969 12.707031 134.382812 12.335938 L 134.382812 20.109375 C 134.382812 20.65625 134.324219 20.832031 133.015625 20.832031 L 132.546875 20.832031 L 132.546875 21.261719 C 132.957031 21.222656 134.402344 21.222656 134.890625 21.222656 C 135.398438 21.222656 136.824219 21.222656 137.234375 21.261719 L 137.234375 20.832031 L 136.765625 20.832031 C 135.457031 20.832031 135.398438 20.65625 135.398438 20.109375 Z M 135.398438 11.691406 "/>
<path style=" stroke:none;fill-rule:nonzero;fill:rgb(0%,0%,0%);fill-opacity:1;" d="M 142.667969 17.550781 C 142.667969 16.398438 142.511719 14.5625 141.671875 12.824219 C 140.792969 11.027344 139.5625 10.050781 139.40625 10.050781 C 139.347656 10.050781 139.269531 10.089844 139.269531 10.167969 C 139.269531 10.226562 139.269531 10.246094 139.523438 10.5 C 141.027344 12.003906 141.847656 14.484375 141.847656 17.53125 C 141.847656 20.421875 141.144531 22.921875 139.425781 24.679688 C 139.269531 24.816406 139.269531 24.855469 139.269531 24.894531 C 139.269531 24.972656 139.347656 25.011719 139.40625 25.011719 C 139.601562 25.011719 140.832031 23.9375 141.554688 22.472656 C 142.316406 20.949219 142.667969 19.328125 142.667969 17.550781 Z M 142.667969 17.550781 "/>
<path style=" stroke:none;fill-rule:nonzero;fill:rgb(0%,0%,0%);fill-opacity:1;" d="M 158.277344 16.417969 C 158.492188 16.417969 158.765625 16.417969 158.765625 16.144531 C 158.765625 15.871094 158.511719 15.871094 158.277344 15.871094 L 149.488281 15.871094 C 149.273438 15.871094 149 15.871094 149 16.144531 C 149 16.417969 149.253906 16.417969 149.488281 16.417969 Z M 158.277344 19.191406 C 158.492188 19.191406 158.765625 19.191406 158.765625 18.9375 C 158.765625 18.644531 158.511719 18.644531 158.277344 18.644531 L 149.488281 18.644531 C 149.273438 18.644531 149 18.644531 149 18.917969 C 149 19.191406 149.253906 19.191406 149.488281 19.191406 Z M 158.277344 19.191406 "/>
<path style=" stroke:none;fill-rule:nonzero;fill:rgb(0%,0%,0%);fill-opacity:1;" d="M 169.566406 6.464844 L 172.085938 6.464844 C 174.15625 6.464844 176.207031 4.941406 176.207031 3.222656 C 176.207031 2.070312 175.230469 1.015625 173.335938 1.015625 L 168.726562 1.015625 C 168.433594 1.015625 168.296875 1.015625 168.296875 1.289062 C 168.296875 1.445312 168.433594 1.445312 168.667969 1.445312 C 169.566406 1.445312 169.566406 1.5625 169.566406 1.71875 C 169.566406 1.757812 169.566406 1.835938 169.507812 2.070312 L 167.496094 10.097656 C 167.359375 10.625 167.339844 10.78125 166.285156 10.78125 C 166.011719 10.78125 165.855469 10.78125 165.855469 11.054688 C 165.855469 11.210938 165.992188 11.210938 166.070312 11.210938 C 166.363281 11.210938 166.65625 11.171875 166.949219 11.171875 L 168.6875 11.171875 C 168.980469 11.171875 169.292969 11.210938 169.566406 11.210938 C 169.703125 11.210938 169.859375 11.210938 169.859375 10.917969 C 169.859375 10.78125 169.722656 10.78125 169.507812 10.78125 C 168.609375 10.78125 168.589844 10.664062 168.589844 10.527344 C 168.589844 10.449219 168.609375 10.351562 168.609375 10.273438 Z M 170.660156 2.03125 C 170.777344 1.464844 170.835938 1.445312 171.421875 1.445312 L 172.90625 1.445312 C 174.019531 1.445312 174.957031 1.796875 174.957031 2.910156 C 174.957031 3.300781 174.761719 4.570312 174.078125 5.273438 C 173.824219 5.527344 173.101562 6.09375 171.734375 6.09375 L 169.625 6.09375 Z M 170.660156 2.03125 "/>
<path style=" stroke:none;fill-rule:nonzero;fill:rgb(0%,0%,0%);fill-opacity:1;" d="M 183.964844 14.84375 C 183.964844 14.804688 183.964844 14.765625 183.710938 14.511719 C 182.207031 13.007812 181.367188 10.546875 181.367188 7.5 C 181.367188 4.589844 182.070312 2.089844 183.808594 0.332031 C 183.964844 0.195312 183.964844 0.175781 183.964844 0.117188 C 183.964844 0.0390625 183.886719 0 183.828125 0 C 183.632812 0 182.402344 1.074219 181.679688 2.539062 C 180.917969 4.0625 180.566406 5.644531 180.566406 7.5 C 180.566406 8.828125 180.78125 10.605469 181.542969 12.1875 C 182.441406 13.984375 183.652344 14.960938 183.828125 14.960938 C 183.886719 14.960938 183.964844 14.921875 183.964844 14.84375 Z M 183.964844 14.84375 "/>
<path style=" stroke:none;fill-rule:nonzero;fill:rgb(0%,0%,0%);fill-opacity:1;" d="M 195.855469 2.578125 C 196.03125 1.933594 196.265625 1.484375 197.398438 1.445312 C 197.4375 1.445312 197.613281 1.425781 197.613281 1.171875 C 197.613281 1.015625 197.476562 1.015625 197.417969 1.015625 C 197.125 1.015625 196.363281 1.035156 196.070312 1.035156 L 195.347656 1.035156 C 195.132812 1.035156 194.878906 1.015625 194.664062 1.015625 C 194.566406 1.015625 194.390625 1.015625 194.390625 1.289062 C 194.390625 1.445312 194.507812 1.445312 194.625 1.445312 C 195.523438 1.464844 195.582031 1.816406 195.582031 2.089844 C 195.582031 2.207031 195.5625 2.265625 195.523438 2.460938 L 193.824219 9.199219 L 190.621094 1.269531 C 190.523438 1.015625 190.503906 1.015625 190.171875 1.015625 L 188.355469 1.015625 C 188.0625 1.015625 187.925781 1.015625 187.925781 1.289062 C 187.925781 1.445312 188.023438 1.445312 188.316406 1.445312 C 188.394531 1.445312 189.273438 1.445312 189.273438 1.582031 C 189.273438 1.601562 189.234375 1.71875 189.214844 1.777344 L 187.242188 9.6875 C 187.066406 10.410156 186.695312 10.742188 185.71875 10.78125 C 185.640625 10.78125 185.484375 10.800781 185.484375 11.054688 C 185.484375 11.210938 185.640625 11.210938 185.679688 11.210938 C 185.972656 11.210938 186.734375 11.171875 187.046875 11.171875 L 187.75 11.171875 C 187.964844 11.171875 188.21875 11.210938 188.433594 11.210938 C 188.53125 11.210938 188.707031 11.210938 188.707031 10.917969 C 188.707031 10.800781 188.550781 10.78125 188.492188 10.78125 C 188.003906 10.761719 187.515625 10.664062 187.515625 10.136719 C 187.515625 10.019531 187.554688 9.882812 187.574219 9.765625 L 189.605469 1.777344 C 189.683594 1.914062 189.683594 1.953125 189.742188 2.089844 L 193.296875 10.9375 C 193.375 11.113281 193.414062 11.210938 193.550781 11.210938 C 193.6875 11.210938 193.707031 11.171875 193.765625 10.917969 Z M 195.855469 2.578125 "/>
<path style=" stroke:none;fill-rule:nonzero;fill:rgb(0%,0%,0%);fill-opacity:1;" d="M 198.179688 12.679688 C 198.101562 13.050781 198.082031 13.128906 197.339844 13.128906 C 197.144531 13.128906 197.027344 13.128906 197.027344 13.324219 C 197.027344 13.460938 197.164062 13.460938 197.320312 13.460938 L 201.03125 13.460938 C 202.671875 13.460938 203.882812 12.289062 203.882812 11.332031 C 203.882812 10.609375 203.257812 10.023438 202.261719 9.90625 C 203.414062 9.691406 204.410156 8.929688 204.410156 8.050781 C 204.410156 7.308594 203.6875 6.664062 202.4375 6.664062 L 198.960938 6.664062 C 198.785156 6.664062 198.648438 6.664062 198.648438 6.839844 C 198.648438 6.996094 198.765625 6.996094 198.941406 6.996094 C 199.273438 6.996094 199.566406 6.996094 199.566406 7.152344 C 199.566406 7.191406 199.546875 7.191406 199.527344 7.328125 Z M 199.742188 9.789062 L 200.347656 7.347656 C 200.425781 7.015625 200.445312 6.996094 200.855469 6.996094 L 202.28125 6.996094 C 203.257812 6.996094 203.492188 7.621094 203.492188 8.03125 C 203.492188 8.871094 202.574219 9.789062 201.304688 9.789062 Z M 199.058594 13.128906 C 198.960938 13.109375 198.921875 13.109375 198.921875 13.050781 C 198.921875 12.972656 198.941406 12.875 198.960938 12.816406 L 199.664062 10.0625 L 201.695312 10.0625 C 202.613281 10.0625 202.925781 10.6875 202.925781 11.253906 C 202.925781 12.230469 201.96875 13.128906 200.777344 13.128906 Z M 199.058594 13.128906 "/>
<path style=" stroke:none;fill-rule:nonzero;fill:rgb(0%,0%,0%);fill-opacity:1;" d="M 219.929688 6.367188 C 220.125 6.289062 220.222656 6.171875 220.222656 6.035156 C 220.222656 5.898438 220.164062 5.800781 219.929688 5.703125 L 211.6875 1.816406 C 211.472656 1.699219 211.414062 1.699219 211.394531 1.699219 C 211.21875 1.699219 211.082031 1.835938 211.082031 2.011719 C 211.082031 2.1875 211.21875 2.265625 211.375 2.34375 L 219.226562 6.035156 L 211.414062 9.726562 C 211.101562 9.84375 211.082031 9.980469 211.082031 10.058594 C 211.082031 10.234375 211.21875 10.351562 211.394531 10.351562 C 211.433594 10.351562 211.472656 10.351562 211.667969 10.253906 Z M 219.695312 13.261719 C 219.949219 13.261719 220.222656 13.261719 220.222656 12.96875 C 220.222656 12.65625 219.910156 12.65625 219.675781 12.65625 L 211.628906 12.65625 C 211.414062 12.65625 211.082031 12.65625 211.082031 12.96875 C 211.082031 13.261719 211.355469 13.261719 211.609375 13.261719 Z M 219.695312 13.261719 "/>
<path style=" stroke:none;fill-rule:nonzero;fill:rgb(0%,0%,0%);fill-opacity:1;" d="M 229.898438 1.640625 C 229.898438 1.289062 229.898438 1.269531 229.605469 1.269531 C 229.253906 1.679688 228.492188 2.226562 226.96875 2.226562 L 226.96875 2.65625 C 227.300781 2.65625 228.042969 2.65625 228.882812 2.285156 L 228.882812 10.058594 C 228.882812 10.605469 228.824219 10.78125 227.515625 10.78125 L 227.046875 10.78125 L 227.046875 11.210938 C 227.457031 11.171875 228.902344 11.171875 229.390625 11.171875 C 229.898438 11.171875 231.324219 11.171875 231.734375 11.210938 L 231.734375 10.78125 L 231.265625 10.78125 C 229.957031 10.78125 229.898438 10.605469 229.898438 10.058594 Z M 229.898438 1.640625 "/>
<path style=" stroke:none;fill-rule:nonzero;fill:rgb(0%,0%,0%);fill-opacity:1;" d="M 237.882812 0.546875 C 237.882812 0.273438 237.882812 0 237.570312 0 C 237.277344 0 237.277344 0.273438 237.277344 0.546875 L 237.277344 14.414062 C 237.277344 14.667969 237.277344 14.941406 237.570312 14.941406 C 237.882812 14.941406 237.882812 14.667969 237.882812 14.414062 Z M 237.882812 0.546875 "/>
<path style=" stroke:none;fill-rule:nonzero;fill:rgb(0%,0%,0%);fill-opacity:1;" d="M 253.304688 2.578125 C 253.480469 1.933594 253.714844 1.484375 254.847656 1.445312 C 254.886719 1.445312 255.0625 1.425781 255.0625 1.171875 C 255.0625 1.015625 254.925781 1.015625 254.867188 1.015625 C 254.574219 1.015625 253.8125 1.035156 253.519531 1.035156 L 252.796875 1.035156 C 252.582031 1.035156 252.328125 1.015625 252.113281 1.015625 C 252.015625 1.015625 251.839844 1.015625 251.839844 1.289062 C 251.839844 1.445312 251.957031 1.445312 252.074219 1.445312 C 252.972656 1.464844 253.03125 1.816406 253.03125 2.089844 C 253.03125 2.207031 253.011719 2.265625 252.972656 2.460938 L 251.273438 9.199219 L 248.070312 1.269531 C 247.972656 1.015625 247.953125 1.015625 247.621094 1.015625 L 245.804688 1.015625 C 245.511719 1.015625 245.375 1.015625 245.375 1.289062 C 245.375 1.445312 245.472656 1.445312 245.765625 1.445312 C 245.84375 1.445312 246.722656 1.445312 246.722656 1.582031 C 246.722656 1.601562 246.683594 1.71875 246.664062 1.777344 L 244.691406 9.6875 C 244.515625 10.410156 244.144531 10.742188 243.167969 10.78125 C 243.089844 10.78125 242.933594 10.800781 242.933594 11.054688 C 242.933594 11.210938 243.089844 11.210938 243.128906 11.210938 C 243.421875 11.210938 244.183594 11.171875 244.496094 11.171875 L 245.199219 11.171875 C 245.414062 11.171875 245.667969 11.210938 245.882812 11.210938 C 245.980469 11.210938 246.15625 11.210938 246.15625 10.917969 C 246.15625 10.800781 246 10.78125 245.941406 10.78125 C 245.453125 10.761719 244.964844 10.664062 244.964844 10.136719 C 244.964844 10.019531 245.003906 9.882812 245.023438 9.765625 L 247.054688 1.777344 C 247.132812 1.914062 247.132812 1.953125 247.191406 2.089844 L 250.746094 10.9375 C 250.824219 11.113281 250.863281 11.210938 251 11.210938 C 251.136719 11.210938 251.15625 11.171875 251.214844 10.917969 Z M 253.304688 2.578125 "/>
<path style=" stroke:none;fill-rule:nonzero;fill:rgb(0%,0%,0%);fill-opacity:1;" d="M 255.628906 12.679688 C 255.550781 13.050781 255.53125 13.128906 254.789062 13.128906 C 254.59375 13.128906 254.476562 13.128906 254.476562 13.324219 C 254.476562 13.460938 254.613281 13.460938 254.769531 13.460938 L 258.480469 13.460938 C 260.121094 13.460938 261.332031 12.289062 261.332031 11.332031 C 261.332031 10.609375 260.707031 10.023438 259.710938 9.90625 C 260.863281 9.691406 261.859375 8.929688 261.859375 8.050781 C 261.859375 7.308594 261.136719 6.664062 259.886719 6.664062 L 256.410156 6.664062 C 256.234375 6.664062 256.097656 6.664062 256.097656 6.839844 C 256.097656 6.996094 256.214844 6.996094 256.390625 6.996094 C 256.722656 6.996094 257.015625 6.996094 257.015625 7.152344 C 257.015625 7.191406 256.996094 7.191406 256.976562 7.328125 Z M 257.191406 9.789062 L 257.796875 7.347656 C 257.875 7.015625 257.894531 6.996094 258.304688 6.996094 L 259.730469 6.996094 C 260.707031 6.996094 260.941406 7.621094 260.941406 8.03125 C 260.941406 8.871094 260.023438 9.789062 258.753906 9.789062 Z M 256.507812 13.128906 C 256.410156 13.109375 256.371094 13.109375 256.371094 13.050781 C 256.371094 12.972656 256.390625 12.875 256.410156 12.816406 L 257.113281 10.0625 L 259.144531 10.0625 C 260.0625 10.0625 260.375 10.6875 260.375 11.253906 C 260.375 12.230469 259.417969 13.128906 258.226562 13.128906 Z M 256.507812 13.128906 "/>
<path style=" stroke:none;fill-rule:nonzero;fill:rgb(0%,0%,0%);fill-opacity:1;" d="M 277.078125 6.367188 C 277.292969 6.367188 277.566406 6.367188 277.566406 6.09375 C 277.566406 5.820312 277.3125 5.820312 277.078125 5.820312 L 268.289062 5.820312 C 268.074219 5.820312 267.800781 5.820312 267.800781 6.09375 C 267.800781 6.367188 268.054688 6.367188 268.289062 6.367188 Z M 277.078125 9.140625 C 277.292969 9.140625 277.566406 9.140625 277.566406 8.886719 C 277.566406 8.59375 277.3125 8.59375 277.078125 8.59375 L 268.289062 8.59375 C 268.074219 8.59375 267.800781 8.59375 267.800781 8.867188 C 267.800781 9.140625 268.054688 9.140625 268.289062 9.140625 Z M 277.078125 9.140625 "/>
<path style=" stroke:none;fill-rule:nonzero;fill:rgb(0%,0%,0%);fill-opacity:1;" d="M 289.183594 8.691406 L 288.851562 8.691406 C 288.792969 8.945312 288.675781 9.785156 288.539062 10.019531 C 288.421875 10.15625 287.582031 10.15625 287.132812 10.15625 L 284.359375 10.15625 C 284.769531 9.804688 285.6875 8.847656 286.058594 8.496094 C 288.34375 6.40625 289.183594 5.625 289.183594 4.140625 C 289.183594 2.421875 287.816406 1.269531 286.078125 1.269531 C 284.359375 1.269531 283.324219 2.753906 283.324219 4.042969 C 283.324219 4.804688 283.988281 4.804688 284.027344 4.804688 C 284.359375 4.804688 284.730469 4.570312 284.730469 4.101562 C 284.730469 3.671875 284.457031 3.398438 284.027344 3.398438 C 283.910156 3.398438 283.871094 3.398438 283.832031 3.417969 C 284.105469 2.402344 284.925781 1.699219 285.882812 1.699219 C 287.152344 1.699219 287.933594 2.773438 287.933594 4.140625 C 287.933594 5.410156 287.210938 6.523438 286.351562 7.480469 L 283.324219 10.859375 L 283.324219 11.210938 L 288.792969 11.210938 Z M 289.183594 8.691406 "/>
<path style=" stroke:none;fill-rule:nonzero;fill:rgb(0%,0%,0%);fill-opacity:1;" d="M 294.167969 7.5 C 294.167969 6.347656 294.011719 4.511719 293.171875 2.773438 C 292.292969 0.976562 291.0625 0 290.90625 0 C 290.847656 0 290.769531 0.0390625 290.769531 0.117188 C 290.769531 0.175781 290.769531 0.195312 291.023438 0.449219 C 292.527344 1.953125 293.347656 4.433594 293.347656 7.480469 C 293.347656 10.371094 292.644531 12.871094 290.925781 14.628906 C 290.769531 14.765625 290.769531 14.804688 290.769531 14.84375 C 290.769531 14.921875 290.847656 14.960938 290.90625 14.960938 C 291.101562 14.960938 292.332031 13.886719 293.054688 12.421875 C 293.816406 10.898438 294.167969 9.277344 294.167969 7.5 Z M 294.167969 7.5 "/>
<path style=" stroke:none;fill-rule:nonzero;fill:rgb(0%,0%,0%);fill-opacity:1;" d="M 301.671875 7.480469 C 301.671875 7.050781 301.320312 6.679688 300.871094 6.679688 C 300.441406 6.679688 300.089844 7.050781 300.089844 7.480469 C 300.089844 7.910156 300.441406 8.261719 300.871094 8.261719 C 301.320312 8.261719 301.671875 7.910156 301.671875 7.480469 Z M 301.671875 7.480469 "/>
<path style=" stroke:none;fill-rule:nonzero;fill:rgb(0%,0%,0%);fill-opacity:1;" d="M 310.714844 6.464844 L 313.234375 6.464844 C 315.304688 6.464844 317.355469 4.941406 317.355469 3.222656 C 317.355469 2.070312 316.378906 1.015625 314.484375 1.015625 L 309.875 1.015625 C 309.582031 1.015625 309.445312 1.015625 309.445312 1.289062 C 309.445312 1.445312 309.582031 1.445312 309.816406 1.445312 C 310.714844 1.445312 310.714844 1.5625 310.714844 1.71875 C 310.714844 1.757812 310.714844 1.835938 310.65625 2.070312 L 308.644531 10.097656 C 308.507812 10.625 308.488281 10.78125 307.433594 10.78125 C 307.160156 10.78125 307.003906 10.78125 307.003906 11.054688 C 307.003906 11.210938 307.140625 11.210938 307.21875 11.210938 C 307.511719 11.210938 307.804688 11.171875 308.097656 11.171875 L 309.835938 11.171875 C 310.128906 11.171875 310.441406 11.210938 310.714844 11.210938 C 310.851562 11.210938 311.007812 11.210938 311.007812 10.917969 C 311.007812 10.78125 310.871094 10.78125 310.65625 10.78125 C 309.757812 10.78125 309.738281 10.664062 309.738281 10.527344 C 309.738281 10.449219 309.757812 10.351562 309.757812 10.273438 Z M 311.808594 2.03125 C 311.925781 1.464844 311.984375 1.445312 312.570312 1.445312 L 314.054688 1.445312 C 315.167969 1.445312 316.105469 1.796875 316.105469 2.910156 C 316.105469 3.300781 315.910156 4.570312 315.226562 5.273438 C 314.972656 5.527344 314.25 6.09375 312.882812 6.09375 L 310.773438 6.09375 Z M 311.808594 2.03125 "/>
<path style=" stroke:none;fill-rule:nonzero;fill:rgb(0%,0%,0%);fill-opacity:1;" d="M 325.113281 14.84375 C 325.113281 14.804688 325.113281 14.765625 324.859375 14.511719 C 323.355469 13.007812 322.515625 10.546875 322.515625 7.5 C 322.515625 4.589844 323.21875 2.089844 324.957031 0.332031 C 325.113281 0.195312 325.113281 0.175781 325.113281 0.117188 C 325.113281 0.0390625 325.035156 0 324.976562 0 C 324.78125 0 323.550781 1.074219 322.828125 2.539062 C 322.066406 4.0625 321.714844 5.644531 321.714844 7.5 C 321.714844 8.828125 321.929688 10.605469 322.691406 12.1875 C 323.589844 13.984375 324.800781 14.960938 324.976562 14.960938 C 325.035156 14.960938 325.113281 14.921875 325.113281 14.84375 Z M 325.113281 14.84375 "/>
<path style=" stroke:none;fill-rule:nonzero;fill:rgb(0%,0%,0%);fill-opacity:1;" d="M 337.007812 2.578125 C 337.183594 1.933594 337.417969 1.484375 338.550781 1.445312 C 338.589844 1.445312 338.765625 1.425781 338.765625 1.171875 C 338.765625 1.015625 338.628906 1.015625 338.570312 1.015625 C 338.277344 1.015625 337.515625 1.035156 337.222656 1.035156 L 336.5 1.035156 C 336.285156 1.035156 336.03125 1.015625 335.816406 1.015625 C 335.71875 1.015625 335.542969 1.015625 335.542969 1.289062 C 335.542969 1.445312 335.660156 1.445312 335.777344 1.445312 C 336.675781 1.464844 336.734375 1.816406 336.734375 2.089844 C 336.734375 2.207031 336.714844 2.265625 336.675781 2.460938 L 334.976562 9.199219 L 331.773438 1.269531 C 331.675781 1.015625 331.65625 1.015625 331.324219 1.015625 L 329.507812 1.015625 C 329.214844 1.015625 329.078125 1.015625 329.078125 1.289062 C 329.078125 1.445312 329.175781 1.445312 329.46875 1.445312 C 329.546875 1.445312 330.425781 1.445312 330.425781 1.582031 C 330.425781 1.601562 330.386719 1.71875 330.367188 1.777344 L 328.394531 9.6875 C 328.21875 10.410156 327.847656 10.742188 326.871094 10.78125 C 326.792969 10.78125 326.636719 10.800781 326.636719 11.054688 C 326.636719 11.210938 326.792969 11.210938 326.832031 11.210938 C 327.125 11.210938 327.886719 11.171875 328.199219 11.171875 L 328.902344 11.171875 C 329.117188 11.171875 329.371094 11.210938 329.585938 11.210938 C 329.683594 11.210938 329.859375 11.210938 329.859375 10.917969 C 329.859375 10.800781 329.703125 10.78125 329.644531 10.78125 C 329.15625 10.761719 328.667969 10.664062 328.667969 10.136719 C 328.667969 10.019531 328.707031 9.882812 328.726562 9.765625 L 330.757812 1.777344 C 330.835938 1.914062 330.835938 1.953125 330.894531 2.089844 L 334.449219 10.9375 C 334.527344 11.113281 334.566406 11.210938 334.703125 11.210938 C 334.839844 11.210938 334.859375 11.171875 334.917969 10.917969 Z M 337.007812 2.578125 "/>
<path style=" stroke:none;fill-rule:nonzero;fill:rgb(0%,0%,0%);fill-opacity:1;" d="M 339.332031 12.679688 C 339.253906 13.050781 339.234375 13.128906 338.492188 13.128906 C 338.296875 13.128906 338.179688 13.128906 338.179688 13.324219 C 338.179688 13.460938 338.316406 13.460938 338.472656 13.460938 L 342.183594 13.460938 C 343.824219 13.460938 345.035156 12.289062 345.035156 11.332031 C 345.035156 10.609375 344.410156 10.023438 343.414062 9.90625 C 344.566406 9.691406 345.5625 8.929688 345.5625 8.050781 C 345.5625 7.308594 344.839844 6.664062 343.589844 6.664062 L 340.113281 6.664062 C 339.9375 6.664062 339.800781 6.664062 339.800781 6.839844 C 339.800781 6.996094 339.917969 6.996094 340.09375 6.996094 C 340.425781 6.996094 340.71875 6.996094 340.71875 7.152344 C 340.71875 7.191406 340.699219 7.191406 340.679688 7.328125 Z M 340.894531 9.789062 L 341.5 7.347656 C 341.578125 7.015625 341.597656 6.996094 342.007812 6.996094 L 343.433594 6.996094 C 344.410156 6.996094 344.644531 7.621094 344.644531 8.03125 C 344.644531 8.871094 343.726562 9.789062 342.457031 9.789062 Z M 340.210938 13.128906 C 340.113281 13.109375 340.074219 13.109375 340.074219 13.050781 C 340.074219 12.972656 340.09375 12.875 340.113281 12.816406 L 340.816406 10.0625 L 342.847656 10.0625 C 343.765625 10.0625 344.078125 10.6875 344.078125 11.253906 C 344.078125 12.230469 343.121094 13.128906 341.929688 13.128906 Z M 340.210938 13.128906 "/>
<path style=" stroke:none;fill-rule:nonzero;fill:rgb(0%,0%,0%);fill-opacity:1;" d="M 361.078125 6.367188 C 361.292969 6.367188 361.566406 6.367188 361.566406 6.09375 C 361.566406 5.820312 361.3125 5.820312 361.078125 5.820312 L 352.289062 5.820312 C 352.074219 5.820312 351.800781 5.820312 351.800781 6.09375 C 351.800781 6.367188 352.054688 6.367188 352.289062 6.367188 Z M 361.078125 9.140625 C 361.292969 9.140625 361.566406 9.140625 361.566406 8.886719 C 361.566406 8.59375 361.3125 8.59375 361.078125 8.59375 L 352.289062 8.59375 C 352.074219 8.59375 351.800781 8.59375 351.800781 8.867188 C 351.800781 9.140625 352.054688 9.140625 352.289062 9.140625 Z M 361.078125 9.140625 "/>
<path style=" stroke:none;fill-rule:nonzero;fill:rgb(0%,0%,0%);fill-opacity:1;" d="M 373.035156 8.691406 L 372.703125 8.691406 C 372.644531 8.945312 372.527344 9.785156 372.390625 10.019531 C 372.273438 10.15625 371.433594 10.15625 370.984375 10.15625 L 368.210938 10.15625 C 368.621094 9.804688 369.539062 8.847656 369.910156 8.496094 C 372.195312 6.40625 373.035156 5.625 373.035156 4.140625 C 373.035156 2.421875 371.667969 1.269531 369.929688 1.269531 C 368.210938 1.269531 367.175781 2.753906 367.175781 4.042969 C 367.175781 4.804688 367.839844 4.804688 367.878906 4.804688 C 368.210938 4.804688 368.582031 4.570312 368.582031 4.101562 C 368.582031 3.671875 368.308594 3.398438 367.878906 3.398438 C 367.761719 3.398438 367.722656 3.398438 367.683594 3.417969 C 367.957031 2.402344 368.777344 1.699219 369.734375 1.699219 C 371.003906 1.699219 371.785156 2.773438 371.785156 4.140625 C 371.785156 5.410156 371.0625 6.523438 370.203125 7.480469 L 367.175781 10.859375 L 367.175781 11.210938 L 372.644531 11.210938 Z M 373.035156 8.691406 "/>
<path style=" stroke:none;fill-rule:nonzero;fill:rgb(0%,0%,0%);fill-opacity:1;" d="M 378.019531 7.5 C 378.019531 6.347656 377.863281 4.511719 377.023438 2.773438 C 376.144531 0.976562 374.914062 0 374.757812 0 C 374.699219 0 374.621094 0.0390625 374.621094 0.117188 C 374.621094 0.175781 374.621094 0.195312 374.875 0.449219 C 376.378906 1.953125 377.199219 4.433594 377.199219 7.480469 C 377.199219 10.371094 376.496094 12.871094 374.777344 14.628906 C 374.621094 14.765625 374.621094 14.804688 374.621094 14.84375 C 374.621094 14.921875 374.699219 14.960938 374.757812 14.960938 C 374.953125 14.960938 376.183594 13.886719 376.90625 12.421875 C 377.667969 10.898438 378.019531 9.277344 378.019531 7.5 Z M 378.019531 7.5 "/>
<path style=" stroke:none;fill-rule:nonzero;fill:rgb(0%,0%,0%);fill-opacity:1;" d="M 165.136719 17.222656 L 379.488281 17.222656 L 379.488281 17.824219 L 165.136719 17.824219 Z M 165.136719 17.222656 "/>
<path style=" stroke:none;fill-rule:nonzero;fill:rgb(0%,0%,0%);fill-opacity:1;" d="M 240.066406 26.863281 L 242.585938 26.863281 C 244.65625 26.863281 246.707031 25.339844 246.707031 23.621094 C 246.707031 22.46875 245.730469 21.414062 243.835938 21.414062 L 239.226562 21.414062 C 238.933594 21.414062 238.796875 21.414062 238.796875 21.6875 C 238.796875 21.84375 238.933594 21.84375 239.167969 21.84375 C 240.066406 21.84375 240.066406 21.960938 240.066406 22.117188 C 240.066406 22.15625 240.066406 22.234375 240.007812 22.46875 L 237.996094 30.496094 C 237.859375 31.023438 237.839844 31.179688 236.785156 31.179688 C 236.511719 31.179688 236.355469 31.179688 236.355469 31.453125 C 236.355469 31.609375 236.492188 31.609375 236.570312 31.609375 C 236.863281 31.609375 237.15625 31.570312 237.449219 31.570312 L 239.1875 31.570312 C 239.480469 31.570312 239.792969 31.609375 240.066406 31.609375 C 240.203125 31.609375 240.359375 31.609375 240.359375 31.316406 C 240.359375 31.179688 240.222656 31.179688 240.007812 31.179688 C 239.109375 31.179688 239.089844 31.0625 239.089844 30.925781 C 239.089844 30.847656 239.109375 30.75 239.109375 30.671875 Z M 241.160156 22.429688 C 241.277344 21.863281 241.335938 21.84375 241.921875 21.84375 L 243.40625 21.84375 C 244.519531 21.84375 245.457031 22.195312 245.457031 23.308594 C 245.457031 23.699219 245.261719 24.96875 244.578125 25.671875 C 244.324219 25.925781 243.601562 26.492188 242.234375 26.492188 L 240.125 26.492188 Z M 241.160156 22.429688 "/>
<path style=" stroke:none;fill-rule:nonzero;fill:rgb(0%,0%,0%);fill-opacity:1;" d="M 254.464844 35.242188 C 254.464844 35.203125 254.464844 35.164062 254.210938 34.910156 C 252.707031 33.40625 251.867188 30.945312 251.867188 27.898438 C 251.867188 24.988281 252.570312 22.488281 254.308594 20.730469 C 254.464844 20.59375 254.464844 20.574219 254.464844 20.515625 C 254.464844 20.4375 254.386719 20.398438 254.328125 20.398438 C 254.132812 20.398438 252.902344 21.472656 252.179688 22.9375 C 251.417969 24.460938 251.066406 26.042969 251.066406 27.898438 C 251.066406 29.226562 251.28125 31.003906 252.042969 32.585938 C 252.941406 34.382812 254.152344 35.359375 254.328125 35.359375 C 254.386719 35.359375 254.464844 35.320312 254.464844 35.242188 Z M 254.464844 35.242188 "/>
<path style=" stroke:none;fill-rule:nonzero;fill:rgb(0%,0%,0%);fill-opacity:1;" d="M 266.355469 22.976562 C 266.53125 22.332031 266.765625 21.882812 267.898438 21.84375 C 267.9375 21.84375 268.113281 21.824219 268.113281 21.570312 C 268.113281 21.414062 267.976562 21.414062 267.917969 21.414062 C 267.625 21.414062 266.863281 21.433594 266.570312 21.433594 L 265.847656 21.433594 C 265.632812 21.433594 265.378906 21.414062 265.164062 21.414062 C 265.066406 21.414062 264.890625 21.414062 264.890625 21.6875 C 264.890625 21.84375 265.007812 21.84375 265.125 21.84375 C 266.023438 21.863281 266.082031 22.214844 266.082031 22.488281 C 266.082031 22.605469 266.0625 22.664062 266.023438 22.859375 L 264.324219 29.597656 L 261.121094 21.667969 C 261.023438 21.414062 261.003906 21.414062 260.671875 21.414062 L 258.855469 21.414062 C 258.5625 21.414062 258.425781 21.414062 258.425781 21.6875 C 258.425781 21.84375 258.523438 21.84375 258.816406 21.84375 C 258.894531 21.84375 259.773438 21.84375 259.773438 21.980469 C 259.773438 22 259.734375 22.117188 259.714844 22.175781 L 257.742188 30.085938 C 257.566406 30.808594 257.195312 31.140625 256.21875 31.179688 C 256.140625 31.179688 255.984375 31.199219 255.984375 31.453125 C 255.984375 31.609375 256.140625 31.609375 256.179688 31.609375 C 256.472656 31.609375 257.234375 31.570312 257.546875 31.570312 L 258.25 31.570312 C 258.464844 31.570312 258.71875 31.609375 258.933594 31.609375 C 259.03125 31.609375 259.207031 31.609375 259.207031 31.316406 C 259.207031 31.199219 259.050781 31.179688 258.992188 31.179688 C 258.503906 31.160156 258.015625 31.0625 258.015625 30.535156 C 258.015625 30.417969 258.054688 30.28125 258.074219 30.164062 L 260.105469 22.175781 C 260.183594 22.3125 260.183594 22.351562 260.242188 22.488281 L 263.796875 31.335938 C 263.875 31.511719 263.914062 31.609375 264.050781 31.609375 C 264.1875 31.609375 264.207031 31.570312 264.265625 31.316406 Z M 266.355469 22.976562 "/>
<path style=" stroke:none;fill-rule:nonzero;fill:rgb(0%,0%,0%);fill-opacity:1;" d="M 268.679688 33.078125 C 268.601562 33.449219 268.582031 33.527344 267.839844 33.527344 C 267.644531 33.527344 267.527344 33.527344 267.527344 33.722656 C 267.527344 33.859375 267.664062 33.859375 267.820312 33.859375 L 271.53125 33.859375 C 273.171875 33.859375 274.382812 32.6875 274.382812 31.730469 C 274.382812 31.007812 273.757812 30.421875 272.761719 30.304688 C 273.914062 30.089844 274.910156 29.328125 274.910156 28.449219 C 274.910156 27.707031 274.1875 27.0625 272.9375 27.0625 L 269.460938 27.0625 C 269.285156 27.0625 269.148438 27.0625 269.148438 27.238281 C 269.148438 27.394531 269.265625 27.394531 269.441406 27.394531 C 269.773438 27.394531 270.066406 27.394531 270.066406 27.550781 C 270.066406 27.589844 270.046875 27.589844 270.027344 27.726562 Z M 270.242188 30.1875 L 270.847656 27.746094 C 270.925781 27.414062 270.945312 27.394531 271.355469 27.394531 L 272.78125 27.394531 C 273.757812 27.394531 273.992188 28.019531 273.992188 28.429688 C 273.992188 29.269531 273.074219 30.1875 271.804688 30.1875 Z M 269.558594 33.527344 C 269.460938 33.507812 269.421875 33.507812 269.421875 33.449219 C 269.421875 33.371094 269.441406 33.273438 269.460938 33.214844 L 270.164062 30.460938 L 272.195312 30.460938 C 273.113281 30.460938 273.425781 31.085938 273.425781 31.652344 C 273.425781 32.628906 272.46875 33.527344 271.277344 33.527344 Z M 269.558594 33.527344 "/>
<path style=" stroke:none;fill-rule:nonzero;fill:rgb(0%,0%,0%);fill-opacity:1;" d="M 290.277344 26.765625 C 290.472656 26.6875 290.570312 26.570312 290.570312 26.433594 C 290.570312 26.296875 290.511719 26.199219 290.277344 26.101562 L 282.035156 22.214844 C 281.820312 22.097656 281.761719 22.097656 281.742188 22.097656 C 281.566406 22.097656 281.429688 22.234375 281.429688 22.410156 C 281.429688 22.585938 281.566406 22.664062 281.722656 22.742188 L 289.574219 26.433594 L 281.761719 30.125 C 281.449219 30.242188 281.429688 30.378906 281.429688 30.457031 C 281.429688 30.632812 281.566406 30.75 281.742188 30.75 C 281.78125 30.75 281.820312 30.75 282.015625 30.652344 Z M 290.042969 33.660156 C 290.296875 33.660156 290.570312 33.660156 290.570312 33.367188 C 290.570312 33.054688 290.257812 33.054688 290.023438 33.054688 L 281.976562 33.054688 C 281.761719 33.054688 281.429688 33.054688 281.429688 33.367188 C 281.429688 33.660156 281.703125 33.660156 281.957031 33.660156 Z M 290.042969 33.660156 "/>
<path style=" stroke:none;fill-rule:nonzero;fill:rgb(0%,0%,0%);fill-opacity:1;" d="M 300.398438 22.039062 C 300.398438 21.6875 300.398438 21.667969 300.105469 21.667969 C 299.753906 22.078125 298.992188 22.625 297.46875 22.625 L 297.46875 23.054688 C 297.800781 23.054688 298.542969 23.054688 299.382812 22.683594 L 299.382812 30.457031 C 299.382812 31.003906 299.324219 31.179688 298.015625 31.179688 L 297.546875 31.179688 L 297.546875 31.609375 C 297.957031 31.570312 299.402344 31.570312 299.890625 31.570312 C 300.398438 31.570312 301.824219 31.570312 302.234375 31.609375 L 302.234375 31.179688 L 301.765625 31.179688 C 300.457031 31.179688 300.398438 31.003906 300.398438 30.457031 Z M 300.398438 22.039062 "/>
<path style=" stroke:none;fill-rule:nonzero;fill:rgb(0%,0%,0%);fill-opacity:1;" d="M 307.667969 27.898438 C 307.667969 26.746094 307.511719 24.910156 306.671875 23.171875 C 305.792969 21.375 304.5625 20.398438 304.40625 20.398438 C 304.347656 20.398438 304.269531 20.4375 304.269531 20.515625 C 304.269531 20.574219 304.269531 20.59375 304.523438 20.847656 C 306.027344 22.351562 306.847656 24.832031 306.847656 27.878906 C 306.847656 30.769531 306.144531 33.269531 304.425781 35.027344 C 304.269531 35.164062 304.269531 35.203125 304.269531 35.242188 C 304.269531 35.320312 304.347656 35.359375 304.40625 35.359375 C 304.601562 35.359375 305.832031 34.285156 306.554688 32.820312 C 307.316406 31.296875 307.667969 29.675781 307.667969 27.898438 Z M 307.667969 27.898438 "/>
<path style=" stroke:none;fill-rule:nonzero;fill:rgb(0%,0%,0%);fill-opacity:1;" d="M 40.007812 72.070312 L 38.914062 72.070312 L 38.035156 75.117188 C 37.820312 75.820312 37.390625 77.226562 37.332031 77.871094 C 37.273438 77.519531 37.039062 76.523438 36.726562 75.449219 L 35.730469 72.070312 L 34.714844 72.070312 L 33.855469 75 C 33.582031 75.9375 33.230469 77.226562 33.191406 77.851562 L 33.171875 77.851562 C 33.152344 77.558594 32.996094 76.777344 32.703125 75.761719 L 31.648438 72.070312 L 30.515625 72.070312 L 32.507812 78.710938 L 33.660156 78.710938 C 34.226562 76.835938 35.105469 73.984375 35.183594 72.949219 L 35.203125 72.949219 C 35.222656 73.554688 35.535156 74.628906 35.632812 74.980469 L 36.6875 78.710938 L 38.015625 78.710938 Z M 40.007812 72.070312 "/>
<path style=" stroke:none;fill-rule:nonzero;fill:rgb(0%,0%,0%);fill-opacity:1;" d="M 46.527344 74.21875 C 46.527344 73.300781 46.332031 71.933594 44.535156 71.933594 C 43.5 71.933594 42.816406 72.519531 42.464844 72.949219 L 42.464844 68.339844 L 41.351562 68.339844 L 41.351562 78.710938 L 42.484375 78.710938 L 42.484375 75 C 42.484375 74.0625 42.835938 72.832031 43.96875 72.832031 C 45.355469 72.832031 45.394531 73.789062 45.394531 74.316406 L 45.394531 78.710938 L 46.527344 78.710938 Z M 46.527344 74.21875 "/>
<path style=" stroke:none;fill-rule:nonzero;fill:rgb(0%,0%,0%);fill-opacity:1;" d="M 53.773438 75.351562 C 53.773438 74.707031 53.714844 73.789062 53.246094 73.007812 C 52.621094 71.972656 51.585938 71.855469 51.15625 71.855469 C 49.535156 71.855469 48.1875 73.398438 48.1875 75.351562 C 48.1875 77.324219 49.632812 78.867188 51.351562 78.867188 C 52.054688 78.867188 52.875 78.671875 53.695312 78.066406 C 53.695312 78.007812 53.636719 77.539062 53.636719 77.519531 C 53.636719 77.5 53.597656 77.167969 53.597656 77.109375 C 52.71875 77.851562 51.839844 77.96875 51.390625 77.96875 C 50.238281 77.96875 49.261719 76.933594 49.222656 75.351562 Z M 49.320312 74.550781 C 49.574219 73.535156 50.277344 72.753906 51.15625 72.753906 C 51.605469 72.753906 52.640625 72.949219 52.894531 74.550781 Z M 49.320312 74.550781 "/>
<path style=" stroke:none;fill-rule:nonzero;fill:rgb(0%,0%,0%);fill-opacity:1;" d="M 56.417969 75.429688 C 56.417969 73.925781 57.550781 72.949219 58.898438 72.929688 L 58.898438 71.933594 C 57.550781 71.933594 56.75 72.734375 56.339844 73.320312 L 56.339844 72.011719 L 55.324219 72.011719 L 55.324219 78.710938 L 56.417969 78.710938 Z M 56.417969 75.429688 "/>
<path style=" stroke:none;fill-rule:nonzero;fill:rgb(0%,0%,0%);fill-opacity:1;" d="M 65.175781 75.351562 C 65.175781 74.707031 65.117188 73.789062 64.648438 73.007812 C 64.023438 71.972656 62.988281 71.855469 62.558594 71.855469 C 60.9375 71.855469 59.589844 73.398438 59.589844 75.351562 C 59.589844 77.324219 61.035156 78.867188 62.753906 78.867188 C 63.457031 78.867188 64.277344 78.671875 65.097656 78.066406 C 65.097656 78.007812 65.039062 77.539062 65.039062 77.519531 C 65.039062 77.5 65 77.167969 65 77.109375 C 64.121094 77.851562 63.242188 77.96875 62.792969 77.96875 C 61.640625 77.96875 60.664062 76.933594 60.625 75.351562 Z M 60.722656 74.550781 C 60.976562 73.535156 61.679688 72.753906 62.558594 72.753906 C 63.007812 72.753906 64.042969 72.949219 64.296875 74.550781 Z M 60.722656 74.550781 "/>
<path style=" stroke:none;fill-rule:nonzero;fill:rgb(0%,0%,0%);fill-opacity:1;" d="M 75.066406 73.964844 L 77.585938 73.964844 C 79.65625 73.964844 81.707031 72.441406 81.707031 70.722656 C 81.707031 69.570312 80.730469 68.515625 78.835938 68.515625 L 74.226562 68.515625 C 73.933594 68.515625 73.796875 68.515625 73.796875 68.789062 C 73.796875 68.945312 73.933594 68.945312 74.167969 68.945312 C 75.066406 68.945312 75.066406 69.0625 75.066406 69.21875 C 75.066406 69.257812 75.066406 69.335938 75.007812 69.570312 L 72.996094 77.597656 C 72.859375 78.125 72.839844 78.28125 71.785156 78.28125 C 71.511719 78.28125 71.355469 78.28125 71.355469 78.554688 C 71.355469 78.710938 71.492188 78.710938 71.570312 78.710938 C 71.863281 78.710938 72.15625 78.671875 72.449219 78.671875 L 74.1875 78.671875 C 74.480469 78.671875 74.792969 78.710938 75.066406 78.710938 C 75.203125 78.710938 75.359375 78.710938 75.359375 78.417969 C 75.359375 78.28125 75.222656 78.28125 75.007812 78.28125 C 74.109375 78.28125 74.089844 78.164062 74.089844 78.027344 C 74.089844 77.949219 74.109375 77.851562 74.109375 77.773438 Z M 76.160156 69.53125 C 76.277344 68.964844 76.335938 68.945312 76.921875 68.945312 L 78.40625 68.945312 C 79.519531 68.945312 80.457031 69.296875 80.457031 70.410156 C 80.457031 70.800781 80.261719 72.070312 79.578125 72.773438 C 79.324219 73.027344 78.601562 73.59375 77.234375 73.59375 L 75.125 73.59375 Z M 76.160156 69.53125 "/>
<path style=" stroke:none;fill-rule:nonzero;fill:rgb(0%,0%,0%);fill-opacity:1;" d="M 89.464844 82.34375 C 89.464844 82.304688 89.464844 82.265625 89.210938 82.011719 C 87.707031 80.507812 86.867188 78.046875 86.867188 75 C 86.867188 72.089844 87.570312 69.589844 89.308594 67.832031 C 89.464844 67.695312 89.464844 67.675781 89.464844 67.617188 C 89.464844 67.539062 89.386719 67.5 89.328125 67.5 C 89.132812 67.5 87.902344 68.574219 87.179688 70.039062 C 86.417969 71.5625 86.066406 73.144531 86.066406 75 C 86.066406 76.328125 86.28125 78.105469 87.042969 79.6875 C 87.941406 81.484375 89.152344 82.460938 89.328125 82.460938 C 89.386719 82.460938 89.464844 82.421875 89.464844 82.34375 Z M 89.464844 82.34375 "/>
<path style=" stroke:none;fill-rule:nonzero;fill:rgb(0%,0%,0%);fill-opacity:1;" d="M 101.355469 70.078125 C 101.53125 69.433594 101.765625 68.984375 102.898438 68.945312 C 102.9375 68.945312 103.113281 68.925781 103.113281 68.671875 C 103.113281 68.515625 102.976562 68.515625 102.917969 68.515625 C 102.625 68.515625 101.863281 68.535156 101.570312 68.535156 L 100.847656 68.535156 C 100.632812 68.535156 100.378906 68.515625 100.164062 68.515625 C 100.066406 68.515625 99.890625 68.515625 99.890625 68.789062 C 99.890625 68.945312 100.007812 68.945312 100.125 68.945312 C 101.023438 68.964844 101.082031 69.316406 101.082031 69.589844 C 101.082031 69.707031 101.0625 69.765625 101.023438 69.960938 L 99.324219 76.699219 L 96.121094 68.769531 C 96.023438 68.515625 96.003906 68.515625 95.671875 68.515625 L 93.855469 68.515625 C 93.5625 68.515625 93.425781 68.515625 93.425781 68.789062 C 93.425781 68.945312 93.523438 68.945312 93.816406 68.945312 C 93.894531 68.945312 94.773438 68.945312 94.773438 69.082031 C 94.773438 69.101562 94.734375 69.21875 94.714844 69.277344 L 92.742188 77.1875 C 92.566406 77.910156 92.195312 78.242188 91.21875 78.28125 C 91.140625 78.28125 90.984375 78.300781 90.984375 78.554688 C 90.984375 78.710938 91.140625 78.710938 91.179688 78.710938 C 91.472656 78.710938 92.234375 78.671875 92.546875 78.671875 L 93.25 78.671875 C 93.464844 78.671875 93.71875 78.710938 93.933594 78.710938 C 94.03125 78.710938 94.207031 78.710938 94.207031 78.417969 C 94.207031 78.300781 94.050781 78.28125 93.992188 78.28125 C 93.503906 78.261719 93.015625 78.164062 93.015625 77.636719 C 93.015625 77.519531 93.054688 77.382812 93.074219 77.265625 L 95.105469 69.277344 C 95.183594 69.414062 95.183594 69.453125 95.242188 69.589844 L 98.796875 78.4375 C 98.875 78.613281 98.914062 78.710938 99.050781 78.710938 C 99.1875 78.710938 99.207031 78.671875 99.265625 78.417969 Z M 101.355469 70.078125 "/>
<path style=" stroke:none;fill-rule:nonzero;fill:rgb(0%,0%,0%);fill-opacity:1;" d="M 103.679688 80.179688 C 103.601562 80.550781 103.582031 80.628906 102.839844 80.628906 C 102.644531 80.628906 102.527344 80.628906 102.527344 80.824219 C 102.527344 80.960938 102.664062 80.960938 102.820312 80.960938 L 106.53125 80.960938 C 108.171875 80.960938 109.382812 79.789062 109.382812 78.832031 C 109.382812 78.109375 108.757812 77.523438 107.761719 77.40625 C 108.914062 77.191406 109.910156 76.429688 109.910156 75.550781 C 109.910156 74.808594 109.1875 74.164062 107.9375 74.164062 L 104.460938 74.164062 C 104.285156 74.164062 104.148438 74.164062 104.148438 74.339844 C 104.148438 74.496094 104.265625 74.496094 104.441406 74.496094 C 104.773438 74.496094 105.066406 74.496094 105.066406 74.652344 C 105.066406 74.691406 105.046875 74.691406 105.027344 74.828125 Z M 105.242188 77.289062 L 105.847656 74.847656 C 105.925781 74.515625 105.945312 74.496094 106.355469 74.496094 L 107.78125 74.496094 C 108.757812 74.496094 108.992188 75.121094 108.992188 75.53125 C 108.992188 76.371094 108.074219 77.289062 106.804688 77.289062 Z M 104.558594 80.628906 C 104.460938 80.609375 104.421875 80.609375 104.421875 80.550781 C 104.421875 80.472656 104.441406 80.375 104.460938 80.316406 L 105.164062 77.5625 L 107.195312 77.5625 C 108.113281 77.5625 108.425781 78.1875 108.425781 78.753906 C 108.425781 79.730469 107.46875 80.628906 106.277344 80.628906 Z M 104.558594 80.628906 "/>
<path style=" stroke:none;fill-rule:nonzero;fill:rgb(0%,0%,0%);fill-opacity:1;" d="M 125.277344 73.867188 C 125.472656 73.789062 125.570312 73.671875 125.570312 73.535156 C 125.570312 73.398438 125.511719 73.300781 125.277344 73.203125 L 117.035156 69.316406 C 116.820312 69.199219 116.761719 69.199219 116.742188 69.199219 C 116.566406 69.199219 116.429688 69.335938 116.429688 69.511719 C 116.429688 69.6875 116.566406 69.765625 116.722656 69.84375 L 124.574219 73.535156 L 116.761719 77.226562 C 116.449219 77.34375 116.429688 77.480469 116.429688 77.558594 C 116.429688 77.734375 116.566406 77.851562 116.742188 77.851562 C 116.78125 77.851562 116.820312 77.851562 117.015625 77.753906 Z M 125.042969 80.761719 C 125.296875 80.761719 125.570312 80.761719 125.570312 80.46875 C 125.570312 80.15625 125.257812 80.15625 125.023438 80.15625 L 116.976562 80.15625 C 116.761719 80.15625 116.429688 80.15625 116.429688 80.46875 C 116.429688 80.761719 116.703125 80.761719 116.957031 80.761719 Z M 125.042969 80.761719 "/>
<path style=" stroke:none;fill-rule:nonzero;fill:rgb(0%,0%,0%);fill-opacity:1;" d="M 135.398438 69.140625 C 135.398438 68.789062 135.398438 68.769531 135.105469 68.769531 C 134.753906 69.179688 133.992188 69.726562 132.46875 69.726562 L 132.46875 70.15625 C 132.800781 70.15625 133.542969 70.15625 134.382812 69.785156 L 134.382812 77.558594 C 134.382812 78.105469 134.324219 78.28125 133.015625 78.28125 L 132.546875 78.28125 L 132.546875 78.710938 C 132.957031 78.671875 134.402344 78.671875 134.890625 78.671875 C 135.398438 78.671875 136.824219 78.671875 137.234375 78.710938 L 137.234375 78.28125 L 136.765625 78.28125 C 135.457031 78.28125 135.398438 78.105469 135.398438 77.558594 Z M 135.398438 69.140625 "/>
<path style=" stroke:none;fill-rule:nonzero;fill:rgb(0%,0%,0%);fill-opacity:1;" d="M 142.667969 75 C 142.667969 73.847656 142.511719 72.011719 141.671875 70.273438 C 140.792969 68.476562 139.5625 67.5 139.40625 67.5 C 139.347656 67.5 139.269531 67.539062 139.269531 67.617188 C 139.269531 67.675781 139.269531 67.695312 139.523438 67.949219 C 141.027344 69.453125 141.847656 71.933594 141.847656 74.980469 C 141.847656 77.871094 141.144531 80.371094 139.425781 82.128906 C 139.269531 82.265625 139.269531 82.304688 139.269531 82.34375 C 139.269531 82.421875 139.347656 82.460938 139.40625 82.460938 C 139.601562 82.460938 140.832031 81.386719 141.554688 79.921875 C 142.316406 78.398438 142.667969 76.777344 142.667969 75 Z M 142.667969 75 "/>
<path style=" stroke:none;fill-rule:nonzero;fill:rgb(0%,0%,0%);fill-opacity:1;" d="M 158.277344 73.867188 C 158.492188 73.867188 158.765625 73.867188 158.765625 73.59375 C 158.765625 73.320312 158.511719 73.320312 158.277344 73.320312 L 149.488281 73.320312 C 149.273438 73.320312 149 73.320312 149 73.59375 C 149 73.867188 149.253906 73.867188 149.488281 73.867188 Z M 158.277344 76.640625 C 158.492188 76.640625 158.765625 76.640625 158.765625 76.386719 C 158.765625 76.09375 158.511719 76.09375 158.277344 76.09375 L 149.488281 76.09375 C 149.273438 76.09375 149 76.09375 149 76.367188 C 149 76.640625 149.253906 76.640625 149.488281 76.640625 Z M 158.277344 76.640625 "/>
<path style=" stroke:none;fill-rule:nonzero;fill:rgb(0%,0%,0%);fill-opacity:1;" d="M 167.90625 63.140625 C 167.652344 63.160156 167.59375 63.179688 167.59375 63.316406 C 167.59375 63.453125 167.671875 63.453125 167.925781 63.453125 L 168.609375 63.453125 C 169.898438 63.453125 170.464844 64.507812 170.464844 65.933594 C 170.464844 67.90625 169.449219 68.414062 168.707031 68.414062 C 167.984375 68.414062 166.773438 68.082031 166.324219 67.085938 C 166.8125 67.164062 167.242188 66.890625 167.242188 66.363281 C 167.242188 65.933594 166.929688 65.621094 166.519531 65.621094 C 166.148438 65.621094 165.757812 65.835938 165.757812 66.402344 C 165.757812 67.730469 167.085938 68.824219 168.746094 68.824219 C 170.523438 68.824219 171.851562 67.457031 171.851562 65.953125 C 171.851562 64.585938 170.738281 63.511719 169.3125 63.257812 C 170.601562 62.886719 171.441406 61.792969 171.441406 60.621094 C 171.441406 59.449219 170.210938 58.570312 168.765625 58.570312 C 167.28125 58.570312 166.167969 59.488281 166.167969 60.582031 C 166.167969 61.167969 166.636719 61.304688 166.851562 61.304688 C 167.164062 61.304688 167.535156 61.070312 167.535156 60.621094 C 167.535156 60.152344 167.164062 59.9375 166.832031 59.9375 C 166.753906 59.9375 166.714844 59.9375 166.675781 59.957031 C 167.242188 58.941406 168.648438 58.941406 168.726562 58.941406 C 169.214844 58.941406 170.191406 59.15625 170.191406 60.621094 C 170.191406 60.914062 170.152344 61.734375 169.703125 62.378906 C 169.253906 63.042969 168.746094 63.082031 168.355469 63.101562 Z M 167.90625 63.140625 "/>
<path style=" stroke:none;fill-rule:nonzero;fill:rgb(0%,0%,0%);fill-opacity:1;" d="M 165.136719 74.675781 L 172.484375 74.675781 L 172.484375 75.277344 L 165.136719 75.277344 Z M 165.136719 74.675781 "/>
<path style=" stroke:none;fill-rule:nonzero;fill:rgb(0%,0%,0%);fill-opacity:1;" d="M 170.542969 79.183594 C 170.542969 78.890625 170.542969 78.832031 170.328125 78.832031 C 170.210938 78.832031 170.171875 78.832031 170.054688 79.007812 L 165.5625 85.980469 L 165.5625 86.410156 L 169.488281 86.410156 L 169.488281 87.777344 C 169.488281 88.324219 169.449219 88.480469 168.355469 88.480469 L 168.0625 88.480469 L 168.0625 88.910156 C 168.414062 88.871094 169.585938 88.871094 170.015625 88.871094 C 170.425781 88.871094 171.617188 88.871094 171.96875 88.910156 L 171.96875 88.480469 L 171.675781 88.480469 C 170.582031 88.480469 170.542969 88.324219 170.542969 87.777344 L 170.542969 86.410156 L 172.046875 86.410156 L 172.046875 85.980469 L 170.542969 85.980469 Z M 169.566406 80.355469 L 169.566406 85.980469 L 165.933594 85.980469 Z M 169.566406 80.355469 "/>
<path style=" stroke:none;fill-rule:nonzero;fill:rgb(0%,0%,0%);fill-opacity:1;" d="M 184.789062 74.335938 C 184.789062 72.890625 183.753906 71.855469 182.367188 71.855469 C 181.46875 71.855469 180.804688 72.070312 180.0625 72.480469 L 180.160156 73.457031 C 180.824219 72.988281 181.507812 72.714844 182.367188 72.714844 C 183.050781 72.714844 183.65625 73.28125 183.65625 74.355469 L 183.65625 74.980469 C 182.992188 75 182.09375 75.058594 181.195312 75.351562 C 180.179688 75.683594 179.613281 76.25 179.613281 76.992188 C 179.613281 77.65625 180.003906 78.867188 181.273438 78.867188 C 182.09375 78.867188 183.128906 78.613281 183.695312 78.164062 L 183.695312 78.710938 L 184.789062 78.710938 Z M 183.65625 76.699219 C 183.65625 77.011719 183.65625 77.363281 183.167969 77.65625 C 182.757812 77.910156 182.25 77.96875 182.035156 77.96875 C 181.214844 77.96875 180.667969 77.539062 180.667969 76.972656 C 180.667969 75.957031 182.738281 75.742188 183.65625 75.742188 Z M 183.65625 76.699219 "/>
<path style=" stroke:none;fill-rule:nonzero;fill:rgb(0%,0%,0%);fill-opacity:1;" d="M 192.328125 74.21875 C 192.328125 73.300781 192.132812 71.933594 190.335938 71.933594 C 189.496094 71.933594 188.773438 72.304688 188.207031 73.027344 L 188.207031 72.011719 L 187.152344 72.011719 L 187.152344 78.710938 L 188.285156 78.710938 L 188.285156 75 C 188.285156 74.0625 188.636719 72.832031 189.769531 72.832031 C 191.15625 72.832031 191.195312 73.789062 191.195312 74.316406 L 191.195312 78.710938 L 192.328125 78.710938 Z M 192.328125 74.21875 "/>
<path style=" stroke:none;fill-rule:nonzero;fill:rgb(0%,0%,0%);fill-opacity:1;" d="M 199.828125 68.339844 L 198.714844 68.339844 L 198.714844 72.695312 C 198.03125 72.128906 197.25 71.933594 196.605469 71.933594 C 195.179688 71.933594 194.027344 73.457031 194.027344 75.390625 C 194.027344 77.324219 195.121094 78.867188 196.546875 78.867188 C 197.09375 78.867188 197.933594 78.671875 198.675781 77.949219 L 198.675781 78.710938 L 199.828125 78.710938 Z M 198.675781 76.953125 C 198.324219 77.597656 197.796875 77.96875 197.152344 77.96875 C 196.234375 77.96875 195.160156 77.265625 195.160156 75.410156 C 195.160156 73.417969 196.429688 72.832031 197.289062 72.832031 C 197.875 72.832031 198.363281 73.125 198.675781 73.613281 Z M 198.675781 76.953125 "/>
<path style=" stroke:none;fill-rule:nonzero;fill:rgb(0%,0%,0%);fill-opacity:1;" d="M 210.214844 73.964844 L 212.734375 73.964844 C 214.804688 73.964844 216.855469 72.441406 216.855469 70.722656 C 216.855469 69.570312 215.878906 68.515625 213.984375 68.515625 L 209.375 68.515625 C 209.082031 68.515625 208.945312 68.515625 208.945312 68.789062 C 208.945312 68.945312 209.082031 68.945312 209.316406 68.945312 C 210.214844 68.945312 210.214844 69.0625 210.214844 69.21875 C 210.214844 69.257812 210.214844 69.335938 210.15625 69.570312 L 208.144531 77.597656 C 208.007812 78.125 207.988281 78.28125 206.933594 78.28125 C 206.660156 78.28125 206.503906 78.28125 206.503906 78.554688 C 206.503906 78.710938 206.640625 78.710938 206.71875 78.710938 C 207.011719 78.710938 207.304688 78.671875 207.597656 78.671875 L 209.335938 78.671875 C 209.628906 78.671875 209.941406 78.710938 210.214844 78.710938 C 210.351562 78.710938 210.507812 78.710938 210.507812 78.417969 C 210.507812 78.28125 210.371094 78.28125 210.15625 78.28125 C 209.257812 78.28125 209.238281 78.164062 209.238281 78.027344 C 209.238281 77.949219 209.257812 77.851562 209.257812 77.773438 Z M 211.308594 69.53125 C 211.425781 68.964844 211.484375 68.945312 212.070312 68.945312 L 213.554688 68.945312 C 214.667969 68.945312 215.605469 69.296875 215.605469 70.410156 C 215.605469 70.800781 215.410156 72.070312 214.726562 72.773438 C 214.472656 73.027344 213.75 73.59375 212.382812 73.59375 L 210.273438 73.59375 Z M 211.308594 69.53125 "/>
<path style=" stroke:none;fill-rule:nonzero;fill:rgb(0%,0%,0%);fill-opacity:1;" d="M 224.613281 82.34375 C 224.613281 82.304688 224.613281 82.265625 224.359375 82.011719 C 222.855469 80.507812 222.015625 78.046875 222.015625 75 C 222.015625 72.089844 222.71875 69.589844 224.457031 67.832031 C 224.613281 67.695312 224.613281 67.675781 224.613281 67.617188 C 224.613281 67.539062 224.535156 67.5 224.476562 67.5 C 224.28125 67.5 223.050781 68.574219 222.328125 70.039062 C 221.566406 71.5625 221.214844 73.144531 221.214844 75 C 221.214844 76.328125 221.429688 78.105469 222.191406 79.6875 C 223.089844 81.484375 224.300781 82.460938 224.476562 82.460938 C 224.535156 82.460938 224.613281 82.421875 224.613281 82.34375 Z M 224.613281 82.34375 "/>
<path style=" stroke:none;fill-rule:nonzero;fill:rgb(0%,0%,0%);fill-opacity:1;" d="M 236.503906 70.078125 C 236.679688 69.433594 236.914062 68.984375 238.046875 68.945312 C 238.085938 68.945312 238.261719 68.925781 238.261719 68.671875 C 238.261719 68.515625 238.125 68.515625 238.066406 68.515625 C 237.773438 68.515625 237.011719 68.535156 236.71875 68.535156 L 235.996094 68.535156 C 235.78125 68.535156 235.527344 68.515625 235.3125 68.515625 C 235.214844 68.515625 235.039062 68.515625 235.039062 68.789062 C 235.039062 68.945312 235.15625 68.945312 235.273438 68.945312 C 236.171875 68.964844 236.230469 69.316406 236.230469 69.589844 C 236.230469 69.707031 236.210938 69.765625 236.171875 69.960938 L 234.472656 76.699219 L 231.269531 68.769531 C 231.171875 68.515625 231.152344 68.515625 230.820312 68.515625 L 229.003906 68.515625 C 228.710938 68.515625 228.574219 68.515625 228.574219 68.789062 C 228.574219 68.945312 228.671875 68.945312 228.964844 68.945312 C 229.042969 68.945312 229.921875 68.945312 229.921875 69.082031 C 229.921875 69.101562 229.882812 69.21875 229.863281 69.277344 L 227.890625 77.1875 C 227.714844 77.910156 227.34375 78.242188 226.367188 78.28125 C 226.289062 78.28125 226.132812 78.300781 226.132812 78.554688 C 226.132812 78.710938 226.289062 78.710938 226.328125 78.710938 C 226.621094 78.710938 227.382812 78.671875 227.695312 78.671875 L 228.398438 78.671875 C 228.613281 78.671875 228.867188 78.710938 229.082031 78.710938 C 229.179688 78.710938 229.355469 78.710938 229.355469 78.417969 C 229.355469 78.300781 229.199219 78.28125 229.140625 78.28125 C 228.652344 78.261719 228.164062 78.164062 228.164062 77.636719 C 228.164062 77.519531 228.203125 77.382812 228.222656 77.265625 L 230.253906 69.277344 C 230.332031 69.414062 230.332031 69.453125 230.390625 69.589844 L 233.945312 78.4375 C 234.023438 78.613281 234.0625 78.710938 234.199219 78.710938 C 234.335938 78.710938 234.355469 78.671875 234.414062 78.417969 Z M 236.503906 70.078125 "/>
<path style=" stroke:none;fill-rule:nonzero;fill:rgb(0%,0%,0%);fill-opacity:1;" d="M 238.832031 80.179688 C 238.753906 80.550781 238.734375 80.628906 237.992188 80.628906 C 237.796875 80.628906 237.679688 80.628906 237.679688 80.824219 C 237.679688 80.960938 237.816406 80.960938 237.972656 80.960938 L 241.683594 80.960938 C 243.324219 80.960938 244.535156 79.789062 244.535156 78.832031 C 244.535156 78.109375 243.910156 77.523438 242.914062 77.40625 C 244.066406 77.191406 245.0625 76.429688 245.0625 75.550781 C 245.0625 74.808594 244.339844 74.164062 243.089844 74.164062 L 239.613281 74.164062 C 239.4375 74.164062 239.300781 74.164062 239.300781 74.339844 C 239.300781 74.496094 239.417969 74.496094 239.59375 74.496094 C 239.925781 74.496094 240.21875 74.496094 240.21875 74.652344 C 240.21875 74.691406 240.199219 74.691406 240.179688 74.828125 Z M 240.394531 77.289062 L 241 74.847656 C 241.078125 74.515625 241.097656 74.496094 241.507812 74.496094 L 242.933594 74.496094 C 243.910156 74.496094 244.144531 75.121094 244.144531 75.53125 C 244.144531 76.371094 243.226562 77.289062 241.957031 77.289062 Z M 239.710938 80.628906 C 239.613281 80.609375 239.574219 80.609375 239.574219 80.550781 C 239.574219 80.472656 239.59375 80.375 239.613281 80.316406 L 240.316406 77.5625 L 242.347656 77.5625 C 243.265625 77.5625 243.578125 78.1875 243.578125 78.753906 C 243.578125 79.730469 242.621094 80.628906 241.429688 80.628906 Z M 239.710938 80.628906 "/>
<path style=" stroke:none;fill-rule:nonzero;fill:rgb(0%,0%,0%);fill-opacity:1;" d="M 260.429688 73.867188 C 260.644531 73.867188 260.917969 73.867188 260.917969 73.59375 C 260.917969 73.320312 260.664062 73.320312 260.429688 73.320312 L 251.640625 73.320312 C 251.425781 73.320312 251.152344 73.320312 251.152344 73.59375 C 251.152344 73.867188 251.40625 73.867188 251.640625 73.867188 Z M 260.429688 76.640625 C 260.644531 76.640625 260.917969 76.640625 260.917969 76.386719 C 260.917969 76.09375 260.664062 76.09375 260.429688 76.09375 L 251.640625 76.09375 C 251.425781 76.09375 251.152344 76.09375 251.152344 76.367188 C 251.152344 76.640625 251.40625 76.640625 251.640625 76.640625 Z M 260.429688 76.640625 "/>
<path style=" stroke:none;fill-rule:nonzero;fill:rgb(0%,0%,0%);fill-opacity:1;" d="M 272.535156 76.191406 L 272.203125 76.191406 C 272.144531 76.445312 272.027344 77.285156 271.890625 77.519531 C 271.773438 77.65625 270.933594 77.65625 270.484375 77.65625 L 267.710938 77.65625 C 268.121094 77.304688 269.039062 76.347656 269.410156 75.996094 C 271.695312 73.90625 272.535156 73.125 272.535156 71.640625 C 272.535156 69.921875 271.167969 68.769531 269.429688 68.769531 C 267.710938 68.769531 266.675781 70.253906 266.675781 71.542969 C 266.675781 72.304688 267.339844 72.304688 267.378906 72.304688 C 267.710938 72.304688 268.082031 72.070312 268.082031 71.601562 C 268.082031 71.171875 267.808594 70.898438 267.378906 70.898438 C 267.261719 70.898438 267.222656 70.898438 267.183594 70.917969 C 267.457031 69.902344 268.277344 69.199219 269.234375 69.199219 C 270.503906 69.199219 271.285156 70.273438 271.285156 71.640625 C 271.285156 72.910156 270.5625 74.023438 269.703125 74.980469 L 266.675781 78.359375 L 266.675781 78.710938 L 272.144531 78.710938 Z M 272.535156 76.191406 "/>
<path style=" stroke:none;fill-rule:nonzero;fill:rgb(0%,0%,0%);fill-opacity:1;" d="M 277.519531 75 C 277.519531 73.847656 277.363281 72.011719 276.523438 70.273438 C 275.644531 68.476562 274.414062 67.5 274.257812 67.5 C 274.199219 67.5 274.121094 67.539062 274.121094 67.617188 C 274.121094 67.675781 274.121094 67.695312 274.375 67.949219 C 275.878906 69.453125 276.699219 71.933594 276.699219 74.980469 C 276.699219 77.871094 275.996094 80.371094 274.277344 82.128906 C 274.121094 82.265625 274.121094 82.304688 274.121094 82.34375 C 274.121094 82.421875 274.199219 82.460938 274.257812 82.460938 C 274.453125 82.460938 275.683594 81.386719 276.40625 79.921875 C 277.167969 78.398438 277.519531 76.777344 277.519531 75 Z M 277.519531 75 "/>
<path style=" stroke:none;fill-rule:nonzero;fill:rgb(0%,0%,0%);fill-opacity:1;" d="M 293.128906 73.867188 C 293.34375 73.867188 293.617188 73.867188 293.617188 73.59375 C 293.617188 73.320312 293.363281 73.320312 293.128906 73.320312 L 284.339844 73.320312 C 284.125 73.320312 283.851562 73.320312 283.851562 73.59375 C 283.851562 73.867188 284.105469 73.867188 284.339844 73.867188 Z M 293.128906 76.640625 C 293.34375 76.640625 293.617188 76.640625 293.617188 76.386719 C 293.617188 76.09375 293.363281 76.09375 293.128906 76.09375 L 284.339844 76.09375 C 284.125 76.09375 283.851562 76.09375 283.851562 76.367188 C 283.851562 76.640625 284.105469 76.640625 284.339844 76.640625 Z M 293.128906 76.640625 "/>
<path style=" stroke:none;fill-rule:nonzero;fill:rgb(0%,0%,0%);fill-opacity:1;" d="M 304.449219 58.941406 C 304.449219 58.589844 304.449219 58.570312 304.15625 58.570312 C 303.804688 58.980469 303.042969 59.527344 301.519531 59.527344 L 301.519531 59.957031 C 301.851562 59.957031 302.59375 59.957031 303.433594 59.585938 L 303.433594 67.359375 C 303.433594 67.90625 303.375 68.082031 302.066406 68.082031 L 301.597656 68.082031 L 301.597656 68.511719 C 302.007812 68.472656 303.453125 68.472656 303.941406 68.472656 C 304.449219 68.472656 305.875 68.472656 306.285156 68.511719 L 306.285156 68.082031 L 305.816406 68.082031 C 304.507812 68.082031 304.449219 67.90625 304.449219 67.359375 Z M 304.449219 58.941406 "/>
<path style=" stroke:none;fill-rule:nonzero;fill:rgb(0%,0%,0%);fill-opacity:1;" d="M 300.136719 74.675781 L 307.484375 74.675781 L 307.484375 75.277344 L 300.136719 75.277344 Z M 300.136719 74.675781 "/>
<path style=" stroke:none;fill-rule:nonzero;fill:rgb(0%,0%,0%);fill-opacity:1;" d="M 305.542969 79.183594 C 305.542969 78.890625 305.542969 78.832031 305.328125 78.832031 C 305.210938 78.832031 305.171875 78.832031 305.054688 79.007812 L 300.5625 85.980469 L 300.5625 86.410156 L 304.488281 86.410156 L 304.488281 87.777344 C 304.488281 88.324219 304.449219 88.480469 303.355469 88.480469 L 303.0625 88.480469 L 303.0625 88.910156 C 303.414062 88.871094 304.585938 88.871094 305.015625 88.871094 C 305.425781 88.871094 306.617188 88.871094 306.96875 88.910156 L 306.96875 88.480469 L 306.675781 88.480469 C 305.582031 88.480469 305.542969 88.324219 305.542969 87.777344 L 305.542969 86.410156 L 307.046875 86.410156 L 307.046875 85.980469 L 305.542969 85.980469 Z M 304.566406 80.355469 L 304.566406 85.980469 L 300.933594 85.980469 Z M 304.566406 80.355469 "/>
<path style=" stroke:none;fill-rule:nonzero;fill:rgb(0%,0%,0%);fill-opacity:1;" d="M 5.3125 126.277344 C 5.3125 125.828125 4.960938 125.476562 4.53125 125.476562 C 4.101562 125.476562 3.730469 125.828125 3.730469 126.277344 C 3.730469 126.707031 4.101562 127.058594 4.53125 127.058594 C 4.941406 127.058594 5.3125 126.726562 5.3125 126.277344 Z M 9.0625 132.742188 C 9.0625 132.3125 8.691406 131.941406 8.261719 131.941406 C 7.832031 131.941406 7.460938 132.3125 7.460938 132.742188 C 7.460938 133.171875 7.832031 133.523438 8.261719 133.523438 C 8.691406 133.523438 9.0625 133.171875 9.0625 132.742188 Z M 1.582031 132.742188 C 1.582031 132.3125 1.230469 131.941406 0.78125 131.941406 C 0.351562 131.941406 0 132.3125 0 132.742188 C 0 133.171875 0.351562 133.523438 0.78125 133.523438 C 1.230469 133.523438 1.582031 133.171875 1.582031 132.742188 Z M 1.582031 132.742188 "/>
<path style=" stroke:none;fill-rule:nonzero;fill:rgb(0%,0%,0%);fill-opacity:1;" d="M 18.066406 127.664062 L 20.585938 127.664062 C 22.65625 127.664062 24.707031 126.140625 24.707031 124.421875 C 24.707031 123.269531 23.730469 122.214844 21.835938 122.214844 L 17.226562 122.214844 C 16.933594 122.214844 16.796875 122.214844 16.796875 122.488281 C 16.796875 122.644531 16.933594 122.644531 17.167969 122.644531 C 18.066406 122.644531 18.066406 122.761719 18.066406 122.917969 C 18.066406 122.957031 18.066406 123.035156 18.007812 123.269531 L 15.996094 131.296875 C 15.859375 131.824219 15.839844 131.980469 14.785156 131.980469 C 14.511719 131.980469 14.355469 131.980469 14.355469 132.253906 C 14.355469 132.410156 14.492188 132.410156 14.570312 132.410156 C 14.863281 132.410156 15.15625 132.371094 15.449219 132.371094 L 17.1875 132.371094 C 17.480469 132.371094 17.792969 132.410156 18.066406 132.410156 C 18.203125 132.410156 18.359375 132.410156 18.359375 132.117188 C 18.359375 131.980469 18.222656 131.980469 18.007812 131.980469 C 17.109375 131.980469 17.089844 131.863281 17.089844 131.726562 C 17.089844 131.648438 17.109375 131.550781 17.109375 131.472656 Z M 19.160156 123.230469 C 19.277344 122.664062 19.335938 122.644531 19.921875 122.644531 L 21.40625 122.644531 C 22.519531 122.644531 23.457031 122.996094 23.457031 124.109375 C 23.457031 124.5 23.261719 125.769531 22.578125 126.472656 C 22.324219 126.726562 21.601562 127.292969 20.234375 127.292969 L 18.125 127.292969 Z M 19.160156 123.230469 "/>
<path style=" stroke:none;fill-rule:nonzero;fill:rgb(0%,0%,0%);fill-opacity:1;" d="M 32.464844 136.042969 C 32.464844 136.003906 32.464844 135.964844 32.210938 135.710938 C 30.707031 134.207031 29.867188 131.746094 29.867188 128.699219 C 29.867188 125.789062 30.570312 123.289062 32.308594 121.53125 C 32.464844 121.394531 32.464844 121.375 32.464844 121.316406 C 32.464844 121.238281 32.386719 121.199219 32.328125 121.199219 C 32.132812 121.199219 30.902344 122.273438 30.179688 123.738281 C 29.417969 125.261719 29.066406 126.84375 29.066406 128.699219 C 29.066406 130.027344 29.28125 131.804688 30.042969 133.386719 C 30.941406 135.183594 32.152344 136.160156 32.328125 136.160156 C 32.386719 136.160156 32.464844 136.121094 32.464844 136.042969 Z M 32.464844 136.042969 "/>
<path style=" stroke:none;fill-rule:nonzero;fill:rgb(0%,0%,0%);fill-opacity:1;" d="M 44.355469 123.777344 C 44.53125 123.132812 44.765625 122.683594 45.898438 122.644531 C 45.9375 122.644531 46.113281 122.625 46.113281 122.371094 C 46.113281 122.214844 45.976562 122.214844 45.917969 122.214844 C 45.625 122.214844 44.863281 122.234375 44.570312 122.234375 L 43.847656 122.234375 C 43.632812 122.234375 43.378906 122.214844 43.164062 122.214844 C 43.066406 122.214844 42.890625 122.214844 42.890625 122.488281 C 42.890625 122.644531 43.007812 122.644531 43.125 122.644531 C 44.023438 122.664062 44.082031 123.015625 44.082031 123.289062 C 44.082031 123.40625 44.0625 123.464844 44.023438 123.660156 L 42.324219 130.398438 L 39.121094 122.46875 C 39.023438 122.214844 39.003906 122.214844 38.671875 122.214844 L 36.855469 122.214844 C 36.5625 122.214844 36.425781 122.214844 36.425781 122.488281 C 36.425781 122.644531 36.523438 122.644531 36.816406 122.644531 C 36.894531 122.644531 37.773438 122.644531 37.773438 122.78125 C 37.773438 122.800781 37.734375 122.917969 37.714844 122.976562 L 35.742188 130.886719 C 35.566406 131.609375 35.195312 131.941406 34.21875 131.980469 C 34.140625 131.980469 33.984375 132 33.984375 132.253906 C 33.984375 132.410156 34.140625 132.410156 34.179688 132.410156 C 34.472656 132.410156 35.234375 132.371094 35.546875 132.371094 L 36.25 132.371094 C 36.464844 132.371094 36.71875 132.410156 36.933594 132.410156 C 37.03125 132.410156 37.207031 132.410156 37.207031 132.117188 C 37.207031 132 37.050781 131.980469 36.992188 131.980469 C 36.503906 131.960938 36.015625 131.863281 36.015625 131.335938 C 36.015625 131.21875 36.054688 131.082031 36.074219 130.964844 L 38.105469 122.976562 C 38.183594 123.113281 38.183594 123.152344 38.242188 123.289062 L 41.796875 132.136719 C 41.875 132.3125 41.914062 132.410156 42.050781 132.410156 C 42.1875 132.410156 42.207031 132.371094 42.265625 132.117188 Z M 44.355469 123.777344 "/>
<path style=" stroke:none;fill-rule:nonzero;fill:rgb(0%,0%,0%);fill-opacity:1;" d="M 46.679688 133.878906 C 46.601562 134.25 46.582031 134.328125 45.839844 134.328125 C 45.644531 134.328125 45.527344 134.328125 45.527344 134.523438 C 45.527344 134.660156 45.664062 134.660156 45.820312 134.660156 L 49.53125 134.660156 C 51.171875 134.660156 52.382812 133.488281 52.382812 132.53125 C 52.382812 131.808594 51.757812 131.222656 50.761719 131.105469 C 51.914062 130.890625 52.910156 130.128906 52.910156 129.25 C 52.910156 128.507812 52.1875 127.863281 50.9375 127.863281 L 47.460938 127.863281 C 47.285156 127.863281 47.148438 127.863281 47.148438 128.039062 C 47.148438 128.195312 47.265625 128.195312 47.441406 128.195312 C 47.773438 128.195312 48.066406 128.195312 48.066406 128.351562 C 48.066406 128.390625 48.046875 128.390625 48.027344 128.527344 Z M 48.242188 130.988281 L 48.847656 128.546875 C 48.925781 128.214844 48.945312 128.195312 49.355469 128.195312 L 50.78125 128.195312 C 51.757812 128.195312 51.992188 128.820312 51.992188 129.230469 C 51.992188 130.070312 51.074219 130.988281 49.804688 130.988281 Z M 47.558594 134.328125 C 47.460938 134.308594 47.421875 134.308594 47.421875 134.25 C 47.421875 134.171875 47.441406 134.074219 47.460938 134.015625 L 48.164062 131.261719 L 50.195312 131.261719 C 51.113281 131.261719 51.425781 131.886719 51.425781 132.453125 C 51.425781 133.429688 50.46875 134.328125 49.277344 134.328125 Z M 47.558594 134.328125 "/>
<path style=" stroke:none;fill-rule:nonzero;fill:rgb(0%,0%,0%);fill-opacity:1;" d="M 68.429688 127.566406 C 68.644531 127.566406 68.917969 127.566406 68.917969 127.292969 C 68.917969 127.019531 68.664062 127.019531 68.429688 127.019531 L 59.640625 127.019531 C 59.425781 127.019531 59.152344 127.019531 59.152344 127.292969 C 59.152344 127.566406 59.40625 127.566406 59.640625 127.566406 Z M 68.429688 130.339844 C 68.644531 130.339844 68.917969 130.339844 68.917969 130.085938 C 68.917969 129.792969 68.664062 129.792969 68.429688 129.792969 L 59.640625 129.792969 C 59.425781 129.792969 59.152344 129.792969 59.152344 130.066406 C 59.152344 130.339844 59.40625 130.339844 59.640625 130.339844 Z M 68.429688 130.339844 "/>
<path style=" stroke:none;fill-rule:nonzero;fill:rgb(0%,0%,0%);fill-opacity:1;" d="M 80.382812 129.890625 L 80.050781 129.890625 C 79.992188 130.144531 79.875 130.984375 79.738281 131.21875 C 79.621094 131.355469 78.78125 131.355469 78.332031 131.355469 L 75.558594 131.355469 C 75.96875 131.003906 76.886719 130.046875 77.257812 129.695312 C 79.542969 127.605469 80.382812 126.824219 80.382812 125.339844 C 80.382812 123.621094 79.015625 122.46875 77.277344 122.46875 C 75.558594 122.46875 74.523438 123.953125 74.523438 125.242188 C 74.523438 126.003906 75.1875 126.003906 75.226562 126.003906 C 75.558594 126.003906 75.929688 125.769531 75.929688 125.300781 C 75.929688 124.871094 75.65625 124.597656 75.226562 124.597656 C 75.109375 124.597656 75.070312 124.597656 75.03125 124.617188 C 75.304688 123.601562 76.125 122.898438 77.082031 122.898438 C 78.351562 122.898438 79.132812 123.972656 79.132812 125.339844 C 79.132812 126.609375 78.410156 127.722656 77.550781 128.679688 L 74.523438 132.058594 L 74.523438 132.410156 L 79.992188 132.410156 Z M 80.382812 129.890625 "/>
<path style=" stroke:none;fill-rule:nonzero;fill:rgb(0%,0%,0%);fill-opacity:1;" d="M 86.085938 121.746094 C 86.085938 121.472656 86.085938 121.199219 85.773438 121.199219 C 85.480469 121.199219 85.480469 121.472656 85.480469 121.746094 L 85.480469 135.613281 C 85.480469 135.867188 85.480469 136.140625 85.773438 136.140625 C 86.085938 136.140625 86.085938 135.867188 86.085938 135.613281 Z M 86.085938 121.746094 "/>
<path style=" stroke:none;fill-rule:nonzero;fill:rgb(0%,0%,0%);fill-opacity:1;" d="M 101.507812 123.777344 C 101.683594 123.132812 101.917969 122.683594 103.050781 122.644531 C 103.089844 122.644531 103.265625 122.625 103.265625 122.371094 C 103.265625 122.214844 103.128906 122.214844 103.070312 122.214844 C 102.777344 122.214844 102.015625 122.234375 101.722656 122.234375 L 101 122.234375 C 100.785156 122.234375 100.53125 122.214844 100.316406 122.214844 C 100.21875 122.214844 100.042969 122.214844 100.042969 122.488281 C 100.042969 122.644531 100.160156 122.644531 100.277344 122.644531 C 101.175781 122.664062 101.234375 123.015625 101.234375 123.289062 C 101.234375 123.40625 101.214844 123.464844 101.175781 123.660156 L 99.476562 130.398438 L 96.273438 122.46875 C 96.175781 122.214844 96.15625 122.214844 95.824219 122.214844 L 94.007812 122.214844 C 93.714844 122.214844 93.578125 122.214844 93.578125 122.488281 C 93.578125 122.644531 93.675781 122.644531 93.96875 122.644531 C 94.046875 122.644531 94.925781 122.644531 94.925781 122.78125 C 94.925781 122.800781 94.886719 122.917969 94.867188 122.976562 L 92.894531 130.886719 C 92.71875 131.609375 92.347656 131.941406 91.371094 131.980469 C 91.292969 131.980469 91.136719 132 91.136719 132.253906 C 91.136719 132.410156 91.292969 132.410156 91.332031 132.410156 C 91.625 132.410156 92.386719 132.371094 92.699219 132.371094 L 93.402344 132.371094 C 93.617188 132.371094 93.871094 132.410156 94.085938 132.410156 C 94.183594 132.410156 94.359375 132.410156 94.359375 132.117188 C 94.359375 132 94.203125 131.980469 94.144531 131.980469 C 93.65625 131.960938 93.167969 131.863281 93.167969 131.335938 C 93.167969 131.21875 93.207031 131.082031 93.226562 130.964844 L 95.257812 122.976562 C 95.335938 123.113281 95.335938 123.152344 95.394531 123.289062 L 98.949219 132.136719 C 99.027344 132.3125 99.066406 132.410156 99.203125 132.410156 C 99.339844 132.410156 99.359375 132.371094 99.417969 132.117188 Z M 101.507812 123.777344 "/>
<path style=" stroke:none;fill-rule:nonzero;fill:rgb(0%,0%,0%);fill-opacity:1;" d="M 103.832031 133.878906 C 103.753906 134.25 103.734375 134.328125 102.992188 134.328125 C 102.796875 134.328125 102.679688 134.328125 102.679688 134.523438 C 102.679688 134.660156 102.816406 134.660156 102.972656 134.660156 L 106.683594 134.660156 C 108.324219 134.660156 109.535156 133.488281 109.535156 132.53125 C 109.535156 131.808594 108.910156 131.222656 107.914062 131.105469 C 109.066406 130.890625 110.0625 130.128906 110.0625 129.25 C 110.0625 128.507812 109.339844 127.863281 108.089844 127.863281 L 104.613281 127.863281 C 104.4375 127.863281 104.300781 127.863281 104.300781 128.039062 C 104.300781 128.195312 104.417969 128.195312 104.59375 128.195312 C 104.925781 128.195312 105.21875 128.195312 105.21875 128.351562 C 105.21875 128.390625 105.199219 128.390625 105.179688 128.527344 Z M 105.394531 130.988281 L 106 128.546875 C 106.078125 128.214844 106.097656 128.195312 106.507812 128.195312 L 107.933594 128.195312 C 108.910156 128.195312 109.144531 128.820312 109.144531 129.230469 C 109.144531 130.070312 108.226562 130.988281 106.957031 130.988281 Z M 104.710938 134.328125 C 104.613281 134.308594 104.574219 134.308594 104.574219 134.25 C 104.574219 134.171875 104.59375 134.074219 104.613281 134.015625 L 105.316406 131.261719 L 107.347656 131.261719 C 108.265625 131.261719 108.578125 131.886719 108.578125 132.453125 C 108.578125 133.429688 107.621094 134.328125 106.429688 134.328125 Z M 104.710938 134.328125 "/>
<path style=" stroke:none;fill-rule:nonzero;fill:rgb(0%,0%,0%);fill-opacity:1;" d="M 125.277344 127.566406 C 125.472656 127.488281 125.570312 127.371094 125.570312 127.234375 C 125.570312 127.097656 125.511719 127 125.277344 126.902344 L 117.035156 123.015625 C 116.820312 122.898438 116.761719 122.898438 116.742188 122.898438 C 116.566406 122.898438 116.429688 123.035156 116.429688 123.210938 C 116.429688 123.386719 116.566406 123.464844 116.722656 123.542969 L 124.574219 127.234375 L 116.761719 130.925781 C 116.449219 131.042969 116.429688 131.179688 116.429688 131.257812 C 116.429688 131.433594 116.566406 131.550781 116.742188 131.550781 C 116.78125 131.550781 116.820312 131.550781 117.015625 131.453125 Z M 125.042969 134.460938 C 125.296875 134.460938 125.570312 134.460938 125.570312 134.167969 C 125.570312 133.855469 125.257812 133.855469 125.023438 133.855469 L 116.976562 133.855469 C 116.761719 133.855469 116.429688 133.855469 116.429688 134.167969 C 116.429688 134.460938 116.703125 134.460938 116.957031 134.460938 Z M 125.042969 134.460938 "/>
<path style=" stroke:none;fill-rule:nonzero;fill:rgb(0%,0%,0%);fill-opacity:1;" d="M 135.398438 122.839844 C 135.398438 122.488281 135.398438 122.46875 135.105469 122.46875 C 134.753906 122.878906 133.992188 123.425781 132.46875 123.425781 L 132.46875 123.855469 C 132.800781 123.855469 133.542969 123.855469 134.382812 123.484375 L 134.382812 131.257812 C 134.382812 131.804688 134.324219 131.980469 133.015625 131.980469 L 132.546875 131.980469 L 132.546875 132.410156 C 132.957031 132.371094 134.402344 132.371094 134.890625 132.371094 C 135.398438 132.371094 136.824219 132.371094 137.234375 132.410156 L 137.234375 131.980469 L 136.765625 131.980469 C 135.457031 131.980469 135.398438 131.804688 135.398438 131.257812 Z M 135.398438 122.839844 "/>
<path style=" stroke:none;fill-rule:nonzero;fill:rgb(0%,0%,0%);fill-opacity:1;" d="M 142.667969 128.699219 C 142.667969 127.546875 142.511719 125.710938 141.671875 123.972656 C 140.792969 122.175781 139.5625 121.199219 139.40625 121.199219 C 139.347656 121.199219 139.269531 121.238281 139.269531 121.316406 C 139.269531 121.375 139.269531 121.394531 139.523438 121.648438 C 141.027344 123.152344 141.847656 125.632812 141.847656 128.679688 C 141.847656 131.570312 141.144531 134.070312 139.425781 135.828125 C 139.269531 135.964844 139.269531 136.003906 139.269531 136.042969 C 139.269531 136.121094 139.347656 136.160156 139.40625 136.160156 C 139.601562 136.160156 140.832031 135.085938 141.554688 133.621094 C 142.316406 132.097656 142.667969 130.476562 142.667969 128.699219 Z M 142.667969 128.699219 "/>
<path style=" stroke:none;fill-rule:nonzero;fill:rgb(0%,0%,0%);fill-opacity:1;" d="M 158.277344 127.566406 C 158.492188 127.566406 158.765625 127.566406 158.765625 127.292969 C 158.765625 127.019531 158.511719 127.019531 158.277344 127.019531 L 149.488281 127.019531 C 149.273438 127.019531 149 127.019531 149 127.292969 C 149 127.566406 149.253906 127.566406 149.488281 127.566406 Z M 158.277344 130.339844 C 158.492188 130.339844 158.765625 130.339844 158.765625 130.085938 C 158.765625 129.792969 158.511719 129.792969 158.277344 129.792969 L 149.488281 129.792969 C 149.273438 129.792969 149 129.792969 149 130.066406 C 149 130.339844 149.253906 130.339844 149.488281 130.339844 Z M 158.277344 130.339844 "/>
<path style=" stroke:none;fill-rule:nonzero;fill:rgb(0%,0%,0%);fill-opacity:1;" d="M 169.449219 112.640625 C 169.449219 112.289062 169.449219 112.269531 169.15625 112.269531 C 168.804688 112.679688 168.042969 113.226562 166.519531 113.226562 L 166.519531 113.65625 C 166.851562 113.65625 167.59375 113.65625 168.433594 113.285156 L 168.433594 121.058594 C 168.433594 121.605469 168.375 121.78125 167.066406 121.78125 L 166.597656 121.78125 L 166.597656 122.210938 C 167.007812 122.171875 168.453125 122.171875 168.941406 122.171875 C 169.449219 122.171875 170.875 122.171875 171.285156 122.210938 L 171.285156 121.78125 L 170.816406 121.78125 C 169.507812 121.78125 169.449219 121.605469 169.449219 121.058594 Z M 169.449219 112.640625 "/>
<path style=" stroke:none;fill-rule:nonzero;fill:rgb(0%,0%,0%);fill-opacity:1;" d="M 165.136719 128.375 L 172.484375 128.375 L 172.484375 128.976562 L 165.136719 128.976562 Z M 165.136719 128.375 "/>
<path style=" stroke:none;fill-rule:nonzero;fill:rgb(0%,0%,0%);fill-opacity:1;" d="M 167.90625 137.238281 C 167.652344 137.257812 167.59375 137.277344 167.59375 137.414062 C 167.59375 137.550781 167.671875 137.550781 167.925781 137.550781 L 168.609375 137.550781 C 169.898438 137.550781 170.464844 138.605469 170.464844 140.03125 C 170.464844 142.003906 169.449219 142.511719 168.707031 142.511719 C 167.984375 142.511719 166.773438 142.179688 166.324219 141.183594 C 166.8125 141.261719 167.242188 140.988281 167.242188 140.460938 C 167.242188 140.03125 166.929688 139.71875 166.519531 139.71875 C 166.148438 139.71875 165.757812 139.933594 165.757812 140.5 C 165.757812 141.828125 167.085938 142.921875 168.746094 142.921875 C 170.523438 142.921875 171.851562 141.554688 171.851562 140.050781 C 171.851562 138.683594 170.738281 137.609375 169.3125 137.355469 C 170.601562 136.984375 171.441406 135.890625 171.441406 134.71875 C 171.441406 133.546875 170.210938 132.667969 168.765625 132.667969 C 167.28125 132.667969 166.167969 133.585938 166.167969 134.679688 C 166.167969 135.265625 166.636719 135.402344 166.851562 135.402344 C 167.164062 135.402344 167.535156 135.167969 167.535156 134.71875 C 167.535156 134.25 167.164062 134.035156 166.832031 134.035156 C 166.753906 134.035156 166.714844 134.035156 166.675781 134.054688 C 167.242188 133.039062 168.648438 133.039062 168.726562 133.039062 C 169.214844 133.039062 170.191406 133.253906 170.191406 134.71875 C 170.191406 135.011719 170.152344 135.832031 169.703125 136.476562 C 169.253906 137.140625 168.746094 137.179688 168.355469 137.199219 Z M 167.90625 137.238281 "/>
</g>
</svg>
