<?xml version="1.0" encoding="UTF-8"?>
<svg xmlns="http://www.w3.org/2000/svg" xmlns:xlink="http://www.w3.org/1999/xlink" width="280.72947pt" height="81.021509pt" viewBox="0 0 280.72947 81.021509" version="1.1">
<g id="surface1">
<path style=" stroke:none;fill-rule:nonzero;fill:rgb(0%,0%,0%);fill-opacity:1;" d="M 6.132812 1.367188 L 7.714844 1.367188 C 7.929688 1.367188 8.144531 1.386719 8.359375 1.386719 L 10.703125 1.386719 L 10.703125 0.253906 L 0 0.253906 L 0 1.386719 L 2.363281 1.386719 C 2.578125 1.386719 2.792969 1.367188 3.007812 1.367188 L 4.589844 1.367188 L 4.589844 12.617188 L 6.132812 12.617188 Z M 6.132812 1.367188 "/>
<path style=" stroke:none;fill-rule:nonzero;fill:rgb(0%,0%,0%);fill-opacity:1;" d="M 18.972656 7.226562 C 18.972656 6.132812 18.738281 4.472656 16.570312 4.472656 C 15.339844 4.472656 14.519531 5.175781 14.089844 5.722656 L 14.089844 0.175781 L 12.761719 0.175781 L 12.761719 12.617188 L 14.109375 12.617188 L 14.109375 8.144531 C 14.109375 7.050781 14.539062 5.546875 15.886719 5.546875 C 17.566406 5.546875 17.605469 6.71875 17.605469 7.34375 L 17.605469 12.617188 L 18.972656 12.617188 Z M 18.972656 7.226562 "/>
<path style=" stroke:none;fill-rule:nonzero;fill:rgb(0%,0%,0%);fill-opacity:1;" d="M 27.679688 8.574219 C 27.679688 7.8125 27.601562 6.71875 27.035156 5.761719 C 26.292969 4.53125 25.042969 4.394531 24.515625 4.394531 C 22.582031 4.394531 20.960938 6.25 20.960938 8.574219 C 20.960938 10.957031 22.679688 12.792969 24.769531 12.792969 C 25.589844 12.792969 26.585938 12.558594 27.5625 11.855469 C 27.5625 11.777344 27.503906 11.210938 27.503906 11.191406 C 27.484375 11.171875 27.464844 10.761719 27.464844 10.703125 C 26.390625 11.601562 25.335938 11.71875 24.808594 11.71875 C 23.421875 11.71875 22.230469 10.488281 22.210938 8.574219 Z M 22.308594 7.617188 C 22.621094 6.40625 23.460938 5.46875 24.515625 5.46875 C 25.082031 5.46875 26.3125 5.722656 26.605469 7.617188 Z M 22.308594 7.617188 "/>
<path style=" stroke:none;fill-rule:nonzero;fill:rgb(0%,0%,0%);fill-opacity:1;" d="M 36.757812 8.691406 C 36.757812 6.875 38.105469 5.703125 39.726562 5.683594 L 39.726562 4.472656 C 38.085938 4.492188 37.148438 5.449219 36.660156 6.152344 L 36.660156 4.570312 L 35.429688 4.570312 L 35.429688 12.617188 L 36.757812 12.617188 Z M 36.757812 8.691406 "/>
<path style=" stroke:none;fill-rule:nonzero;fill:rgb(0%,0%,0%);fill-opacity:1;" d="M 47.328125 8.574219 C 47.328125 7.8125 47.25 6.71875 46.683594 5.761719 C 45.941406 4.53125 44.691406 4.394531 44.164062 4.394531 C 42.230469 4.394531 40.609375 6.25 40.609375 8.574219 C 40.609375 10.957031 42.328125 12.792969 44.417969 12.792969 C 45.238281 12.792969 46.234375 12.558594 47.210938 11.855469 C 47.210938 11.777344 47.152344 11.210938 47.152344 11.191406 C 47.132812 11.171875 47.113281 10.761719 47.113281 10.703125 C 46.039062 11.601562 44.984375 11.71875 44.457031 11.71875 C 43.070312 11.71875 41.878906 10.488281 41.859375 8.574219 Z M 41.957031 7.617188 C 42.269531 6.40625 43.109375 5.46875 44.164062 5.46875 C 44.730469 5.46875 45.960938 5.722656 46.253906 7.617188 Z M 41.957031 7.617188 "/>
<path style=" stroke:none;fill-rule:nonzero;fill:rgb(0%,0%,0%);fill-opacity:1;" d="M 55.402344 4.472656 L 54.074219 4.472656 L 54.074219 5.625 C 53.605469 5.078125 52.824219 4.472656 51.730469 4.472656 C 49.972656 4.472656 48.449219 6.25 48.449219 8.652344 C 48.449219 10.9375 49.777344 12.792969 51.457031 12.792969 C 52.84375 12.792969 53.800781 11.972656 54.054688 11.699219 L 54.054688 16.09375 L 55.402344 16.09375 Z M 54.074219 10.117188 C 54.074219 10.46875 54.074219 10.488281 53.878906 10.761719 C 53.390625 11.484375 52.746094 11.71875 52.21875 11.71875 C 50.871094 11.71875 49.816406 10.3125 49.816406 8.652344 C 49.816406 6.816406 51.105469 5.585938 52.375 5.585938 C 53.527344 5.585938 54.074219 6.757812 54.074219 7.480469 Z M 54.074219 10.117188 "/>
<path style=" stroke:none;fill-rule:nonzero;fill:rgb(0%,0%,0%);fill-opacity:1;" d="M 64.421875 4.648438 L 63.054688 4.648438 L 63.054688 9.785156 C 63.054688 11.152344 62.117188 11.816406 60.945312 11.816406 C 59.695312 11.816406 59.558594 11.347656 59.558594 10.546875 L 59.558594 4.648438 L 58.210938 4.648438 L 58.210938 10.625 C 58.210938 11.914062 58.621094 12.792969 60.085938 12.792969 C 60.59375 12.792969 62 12.714844 63.09375 11.71875 L 63.09375 12.617188 L 64.421875 12.617188 Z M 64.421875 4.648438 "/>
<path style=" stroke:none;fill-rule:nonzero;fill:rgb(0%,0%,0%);fill-opacity:1;" d="M 68.65625 0.449219 L 67.113281 0.449219 L 67.113281 1.992188 L 68.65625 1.992188 Z M 68.558594 4.648438 L 67.230469 4.648438 L 67.230469 12.617188 L 68.558594 12.617188 Z M 68.558594 4.648438 "/>
<path style=" stroke:none;fill-rule:nonzero;fill:rgb(0%,0%,0%);fill-opacity:1;" d="M 72.757812 8.691406 C 72.757812 6.875 74.105469 5.703125 75.726562 5.683594 L 75.726562 4.472656 C 74.085938 4.492188 73.148438 5.449219 72.660156 6.152344 L 72.660156 4.570312 L 71.429688 4.570312 L 71.429688 12.617188 L 72.757812 12.617188 Z M 72.757812 8.691406 "/>
<path style=" stroke:none;fill-rule:nonzero;fill:rgb(0%,0%,0%);fill-opacity:1;" d="M 83.328125 8.574219 C 83.328125 7.8125 83.25 6.71875 82.683594 5.761719 C 81.941406 4.53125 80.691406 4.394531 80.164062 4.394531 C 78.230469 4.394531 76.609375 6.25 76.609375 8.574219 C 76.609375 10.957031 78.328125 12.792969 80.417969 12.792969 C 81.238281 12.792969 82.234375 12.558594 83.210938 11.855469 C 83.210938 11.777344 83.152344 11.210938 83.152344 11.191406 C 83.132812 11.171875 83.113281 10.761719 83.113281 10.703125 C 82.039062 11.601562 80.984375 11.71875 80.457031 11.71875 C 79.070312 11.71875 77.878906 10.488281 77.859375 8.574219 Z M 77.957031 7.617188 C 78.269531 6.40625 79.109375 5.46875 80.164062 5.46875 C 80.730469 5.46875 81.960938 5.722656 82.253906 7.617188 Z M 77.957031 7.617188 "/>
<path style=" stroke:none;fill-rule:nonzero;fill:rgb(0%,0%,0%);fill-opacity:1;" d="M 91.402344 0.175781 L 90.074219 0.175781 L 90.074219 5.410156 C 89.253906 4.726562 88.316406 4.472656 87.554688 4.472656 C 85.855469 4.472656 84.449219 6.308594 84.449219 8.632812 C 84.449219 10.957031 85.777344 12.792969 87.476562 12.792969 C 88.140625 12.792969 89.15625 12.578125 90.054688 11.699219 L 90.054688 12.617188 L 91.402344 12.617188 Z M 90.054688 10.507812 C 89.625 11.269531 88.980469 11.71875 88.199219 11.71875 C 87.105469 11.71875 85.816406 10.878906 85.816406 8.652344 C 85.816406 6.269531 87.339844 5.546875 88.375 5.546875 C 89.078125 5.546875 89.644531 5.917969 90.054688 6.503906 Z M 90.054688 10.507812 "/>
<path style=" stroke:none;fill-rule:nonzero;fill:rgb(0%,0%,0%);fill-opacity:1;" d="M 101.277344 11.816406 C 101.902344 12.363281 102.644531 12.792969 103.621094 12.792969 C 105.339844 12.792969 106.882812 11.054688 106.882812 8.613281 C 106.882812 6.445312 105.730469 4.472656 104.070312 4.472656 C 103.328125 4.472656 102.175781 4.707031 101.257812 5.507812 L 101.257812 4.648438 L 99.929688 4.648438 L 99.929688 16.09375 L 101.277344 16.09375 Z M 101.277344 6.601562 C 101.6875 5.976562 102.371094 5.585938 103.113281 5.585938 C 104.441406 5.585938 105.515625 6.933594 105.515625 8.632812 C 105.515625 10.429688 104.285156 11.71875 102.957031 11.71875 C 102.449219 11.71875 102.117188 11.542969 101.785156 11.289062 C 101.335938 10.898438 101.277344 10.566406 101.277344 10.292969 Z M 101.277344 6.601562 "/>
<path style=" stroke:none;fill-rule:nonzero;fill:rgb(0%,0%,0%);fill-opacity:1;" d="M 109.808594 8.691406 C 109.808594 6.875 111.15625 5.703125 112.777344 5.683594 L 112.777344 4.472656 C 111.136719 4.492188 110.199219 5.449219 109.710938 6.152344 L 109.710938 4.570312 L 108.480469 4.570312 L 108.480469 12.617188 L 109.808594 12.617188 Z M 109.808594 8.691406 "/>
<path style=" stroke:none;fill-rule:nonzero;fill:rgb(0%,0%,0%);fill-opacity:1;" d="M 121.296875 8.671875 C 121.296875 6.25 119.519531 4.394531 117.46875 4.394531 C 115.359375 4.394531 113.621094 6.289062 113.621094 8.671875 C 113.621094 11.015625 115.398438 12.792969 117.449219 12.792969 C 119.558594 12.792969 121.296875 10.976562 121.296875 8.671875 Z M 117.46875 11.679688 C 116.179688 11.679688 114.96875 10.605469 114.96875 8.496094 C 114.96875 6.328125 116.316406 5.46875 117.449219 5.46875 C 118.679688 5.46875 119.949219 6.386719 119.949219 8.496094 C 119.949219 10.703125 118.660156 11.679688 117.46875 11.679688 Z M 117.46875 11.679688 "/>
<path style=" stroke:none;fill-rule:nonzero;fill:rgb(0%,0%,0%);fill-opacity:1;" d="M 124.660156 0.175781 L 123.332031 0.175781 L 123.332031 12.617188 L 124.679688 12.617188 L 124.679688 11.816406 C 125.519531 12.597656 126.398438 12.792969 127.023438 12.792969 C 128.722656 12.792969 130.285156 11.054688 130.285156 8.613281 C 130.285156 6.40625 129.09375 4.472656 127.433594 4.472656 C 126.90625 4.472656 125.753906 4.589844 124.660156 5.488281 Z M 124.679688 6.582031 C 125.011719 6.074219 125.65625 5.546875 126.535156 5.546875 C 127.628906 5.546875 128.917969 6.386719 128.917969 8.613281 C 128.917969 10.957031 127.453125 11.71875 126.359375 11.71875 C 125.851562 11.71875 125.519531 11.542969 125.1875 11.289062 C 124.757812 10.917969 124.679688 10.585938 124.679688 10.292969 Z M 124.679688 6.582031 "/>
<path style=" stroke:none;fill-rule:nonzero;fill:rgb(0%,0%,0%);fill-opacity:1;" d="M 137.9375 7.363281 C 137.9375 5.644531 136.707031 4.394531 135.027344 4.394531 C 133.953125 4.394531 133.152344 4.628906 132.273438 5.136719 L 132.371094 6.328125 C 133.171875 5.742188 133.992188 5.429688 135.027344 5.429688 C 135.847656 5.429688 136.570312 6.09375 136.570312 7.402344 L 136.570312 8.144531 C 135.769531 8.164062 134.695312 8.222656 133.621094 8.574219 C 132.410156 9.003906 131.707031 9.667969 131.707031 10.546875 C 131.707031 11.347656 132.175781 12.792969 133.699219 12.792969 C 134.695312 12.792969 135.945312 12.5 136.609375 11.953125 L 136.609375 12.617188 L 137.9375 12.617188 Z M 136.570312 10.214844 C 136.570312 10.566406 136.570312 10.996094 135.984375 11.367188 C 135.496094 11.660156 134.890625 11.71875 134.617188 11.71875 C 133.660156 11.71875 132.996094 11.191406 132.996094 10.546875 C 132.996094 9.316406 135.476562 9.042969 136.570312 9.042969 Z M 136.570312 10.214844 "/>
<path style=" stroke:none;fill-rule:nonzero;fill:rgb(0%,0%,0%);fill-opacity:1;" d="M 142.058594 0.175781 L 140.730469 0.175781 L 140.730469 12.617188 L 142.078125 12.617188 L 142.078125 11.816406 C 142.917969 12.597656 143.796875 12.792969 144.421875 12.792969 C 146.121094 12.792969 147.683594 11.054688 147.683594 8.613281 C 147.683594 6.40625 146.492188 4.472656 144.832031 4.472656 C 144.304688 4.472656 143.152344 4.589844 142.058594 5.488281 Z M 142.078125 6.582031 C 142.410156 6.074219 143.054688 5.546875 143.933594 5.546875 C 145.027344 5.546875 146.316406 6.386719 146.316406 8.613281 C 146.316406 10.957031 144.851562 11.71875 143.757812 11.71875 C 143.25 11.71875 142.917969 11.542969 142.585938 11.289062 C 142.15625 10.917969 142.078125 10.585938 142.078125 10.292969 Z M 142.078125 6.582031 "/>
<path style=" stroke:none;fill-rule:nonzero;fill:rgb(0%,0%,0%);fill-opacity:1;" d="M 151.15625 0.449219 L 149.613281 0.449219 L 149.613281 1.992188 L 151.15625 1.992188 Z M 151.058594 4.648438 L 149.730469 4.648438 L 149.730469 12.617188 L 151.058594 12.617188 Z M 151.058594 4.648438 "/>
<path style=" stroke:none;fill-rule:nonzero;fill:rgb(0%,0%,0%);fill-opacity:1;" d="M 155.257812 0.175781 L 153.929688 0.175781 L 153.929688 12.617188 L 155.257812 12.617188 Z M 155.257812 0.175781 "/>
<path style=" stroke:none;fill-rule:nonzero;fill:rgb(0%,0%,0%);fill-opacity:1;" d="M 159.554688 0.449219 L 158.011719 0.449219 L 158.011719 1.992188 L 159.554688 1.992188 Z M 159.457031 4.648438 L 158.128906 4.648438 L 158.128906 12.617188 L 159.457031 12.617188 Z M 159.457031 4.648438 "/>
<path style=" stroke:none;fill-rule:nonzero;fill:rgb(0%,0%,0%);fill-opacity:1;" d="M 163.992188 5.703125 L 166.472656 5.703125 L 166.472656 4.648438 L 163.992188 4.648438 L 163.992188 2.382812 L 162.761719 2.382812 L 162.761719 4.648438 L 161.257812 4.648438 L 161.257812 5.703125 L 162.722656 5.703125 L 162.722656 10.527344 C 162.722656 11.5625 162.957031 12.792969 164.1875 12.792969 C 165.398438 12.792969 166.21875 12.382812 166.765625 12.089844 L 166.492188 11.054688 C 165.867188 11.621094 165.203125 11.679688 164.890625 11.679688 C 164.089844 11.679688 163.992188 10.839844 163.992188 10.214844 Z M 163.992188 5.703125 "/>
<path style=" stroke:none;fill-rule:nonzero;fill:rgb(0%,0%,0%);fill-opacity:1;" d="M 174.527344 4.648438 L 173.199219 4.648438 C 172.359375 6.777344 170.992188 10.292969 170.914062 11.582031 L 170.894531 11.582031 C 170.816406 10.527344 169.859375 8.144531 169.722656 7.792969 L 168.433594 4.648438 L 167.027344 4.648438 L 170.367188 12.617188 L 169.722656 14.257812 C 169.332031 15.136719 169.078125 15.234375 168.746094 15.234375 C 168.492188 15.234375 167.925781 15.175781 167.359375 14.960938 L 167.476562 16.132812 C 167.574219 16.152344 168.179688 16.269531 168.746094 16.269531 C 169.175781 16.269531 170.015625 16.269531 170.796875 14.296875 Z M 174.527344 4.648438 "/>
<path style=" stroke:none;fill-rule:nonzero;fill:rgb(0%,0%,0%);fill-opacity:1;" d="M 185.738281 6.914062 L 188.746094 6.914062 C 191.226562 6.914062 193.6875 5.078125 193.6875 3.046875 C 193.6875 1.640625 192.515625 0.371094 190.25 0.371094 L 184.703125 0.371094 C 184.371094 0.371094 184.214844 0.371094 184.214844 0.703125 C 184.214844 0.898438 184.371094 0.898438 184.644531 0.898438 C 185.738281 0.898438 185.738281 1.035156 185.738281 1.230469 C 185.738281 1.269531 185.738281 1.367188 185.660156 1.640625 L 183.238281 11.289062 C 183.082031 11.914062 183.042969 12.089844 181.792969 12.089844 C 181.441406 12.089844 181.265625 12.089844 181.265625 12.421875 C 181.265625 12.617188 181.421875 12.617188 181.539062 12.617188 C 181.871094 12.617188 182.242188 12.578125 182.574219 12.578125 L 184.683594 12.578125 C 185.015625 12.578125 185.386719 12.617188 185.738281 12.617188 C 185.875 12.617188 186.070312 12.617188 186.070312 12.285156 C 186.070312 12.089844 185.914062 12.089844 185.640625 12.089844 C 184.566406 12.089844 184.546875 11.972656 184.546875 11.796875 C 184.546875 11.699219 184.566406 11.582031 184.585938 11.484375 Z M 187.027344 1.582031 C 187.183594 0.917969 187.261719 0.898438 187.964844 0.898438 L 189.722656 0.898438 C 191.070312 0.898438 192.183594 1.328125 192.183594 2.675781 C 192.183594 3.125 191.949219 4.648438 191.128906 5.488281 C 190.816406 5.800781 189.957031 6.484375 188.335938 6.484375 L 185.796875 6.484375 Z M 187.027344 1.582031 "/>
<path style=" stroke:none;fill-rule:nonzero;fill:rgb(0%,0%,0%);fill-opacity:1;" d="M 202.90625 0.449219 L 201.363281 0.449219 L 201.363281 1.992188 L 202.90625 1.992188 Z M 202.808594 4.648438 L 201.480469 4.648438 L 201.480469 12.617188 L 202.808594 12.617188 Z M 202.808594 4.648438 "/>
<path style=" stroke:none;fill-rule:nonzero;fill:rgb(0%,0%,0%);fill-opacity:1;" d="M 210.289062 4.941406 C 209.15625 4.414062 208.179688 4.394531 207.769531 4.394531 C 207.359375 4.394531 204.859375 4.394531 204.859375 6.71875 C 204.859375 7.5 205.289062 8.046875 205.5625 8.300781 C 206.207031 8.847656 206.65625 8.945312 207.710938 9.160156 C 208.316406 9.277344 209.351562 9.492188 209.351562 10.449219 C 209.351562 11.679688 207.945312 11.679688 207.691406 11.679688 C 206.988281 11.679688 205.933594 11.484375 204.976562 10.78125 L 204.761719 12.011719 C 204.839844 12.070312 206.070312 12.792969 207.710938 12.792969 C 210.035156 12.792969 210.582031 11.40625 210.582031 10.332031 C 210.582031 9.433594 210.035156 8.847656 209.957031 8.769531 C 209.292969 8.085938 208.746094 7.96875 207.671875 7.753906 C 207.007812 7.636719 206.109375 7.460938 206.109375 6.5625 C 206.109375 5.449219 207.359375 5.449219 207.59375 5.449219 C 208.53125 5.449219 209.292969 5.664062 210.074219 6.113281 Z M 210.289062 4.941406 "/>
<path style=" stroke:none;fill-rule:nonzero;fill:rgb(0%,0%,0%);fill-opacity:1;" d="M 219.792969 5.703125 L 222.273438 5.703125 L 222.273438 4.648438 L 219.792969 4.648438 L 219.792969 2.382812 L 218.5625 2.382812 L 218.5625 4.648438 L 217.058594 4.648438 L 217.058594 5.703125 L 218.523438 5.703125 L 218.523438 10.527344 C 218.523438 11.5625 218.757812 12.792969 219.988281 12.792969 C 221.199219 12.792969 222.019531 12.382812 222.566406 12.089844 L 222.292969 11.054688 C 221.667969 11.621094 221.003906 11.679688 220.691406 11.679688 C 219.890625 11.679688 219.792969 10.839844 219.792969 10.214844 Z M 219.792969 5.703125 "/>
<path style=" stroke:none;fill-rule:nonzero;fill:rgb(0%,0%,0%);fill-opacity:1;" d="M 230.621094 7.226562 C 230.621094 6.132812 230.386719 4.472656 228.21875 4.472656 C 226.988281 4.472656 226.167969 5.175781 225.738281 5.722656 L 225.738281 0.175781 L 224.410156 0.175781 L 224.410156 12.617188 L 225.757812 12.617188 L 225.757812 8.144531 C 225.757812 7.050781 226.1875 5.546875 227.535156 5.546875 C 229.214844 5.546875 229.253906 6.71875 229.253906 7.34375 L 229.253906 12.617188 L 230.621094 12.617188 Z M 230.621094 7.226562 "/>
<path style=" stroke:none;fill-rule:nonzero;fill:rgb(0%,0%,0%);fill-opacity:1;" d="M 239.328125 8.574219 C 239.328125 7.8125 239.25 6.71875 238.683594 5.761719 C 237.941406 4.53125 236.691406 4.394531 236.164062 4.394531 C 234.230469 4.394531 232.609375 6.25 232.609375 8.574219 C 232.609375 10.957031 234.328125 12.792969 236.417969 12.792969 C 237.238281 12.792969 238.234375 12.558594 239.210938 11.855469 C 239.210938 11.777344 239.152344 11.210938 239.152344 11.191406 C 239.132812 11.171875 239.113281 10.761719 239.113281 10.703125 C 238.039062 11.601562 236.984375 11.71875 236.457031 11.71875 C 235.070312 11.71875 233.878906 10.488281 233.859375 8.574219 Z M 233.957031 7.617188 C 234.269531 6.40625 235.109375 5.46875 236.164062 5.46875 C 236.730469 5.46875 237.960938 5.722656 238.253906 7.617188 Z M 233.957031 7.617188 "/>
<path style=" stroke:none;fill-rule:nonzero;fill:rgb(0%,0%,0%);fill-opacity:1;" d="M 242.558594 8.691406 C 242.558594 6.875 243.90625 5.703125 245.527344 5.683594 L 245.527344 4.472656 C 243.886719 4.492188 242.949219 5.449219 242.460938 6.152344 L 242.460938 4.570312 L 241.230469 4.570312 L 241.230469 12.617188 L 242.558594 12.617188 Z M 242.558594 8.691406 "/>
<path style=" stroke:none;fill-rule:nonzero;fill:rgb(0%,0%,0%);fill-opacity:1;" d="M 253.128906 8.574219 C 253.128906 7.8125 253.050781 6.71875 252.484375 5.761719 C 251.742188 4.53125 250.492188 4.394531 249.964844 4.394531 C 248.03125 4.394531 246.410156 6.25 246.410156 8.574219 C 246.410156 10.957031 248.128906 12.792969 250.21875 12.792969 C 251.039062 12.792969 252.035156 12.558594 253.011719 11.855469 C 253.011719 11.777344 252.953125 11.210938 252.953125 11.191406 C 252.933594 11.171875 252.914062 10.761719 252.914062 10.703125 C 251.839844 11.601562 250.785156 11.71875 250.257812 11.71875 C 248.871094 11.71875 247.679688 10.488281 247.660156 8.574219 Z M 247.757812 7.617188 C 248.070312 6.40625 248.910156 5.46875 249.964844 5.46875 C 250.53125 5.46875 251.761719 5.722656 252.054688 7.617188 Z M 247.757812 7.617188 "/>
<path style=" stroke:none;fill-rule:nonzero;fill:rgb(0%,0%,0%);fill-opacity:1;" d="M 256.730469 5.703125 L 258.644531 5.703125 L 258.644531 4.648438 L 256.691406 4.648438 L 256.691406 2.5 C 256.691406 1.289062 257.707031 1.074219 258.3125 1.074219 C 258.9375 1.074219 259.484375 1.269531 259.699219 1.347656 L 259.699219 0.175781 C 259.582031 0.136719 258.976562 0 258.332031 0 C 256.613281 0 255.402344 1.308594 255.402344 3.046875 L 255.402344 4.648438 L 254.09375 4.648438 L 254.09375 5.703125 L 255.402344 5.703125 L 255.402344 12.617188 L 256.730469 12.617188 Z M 256.730469 5.703125 "/>
<path style=" stroke:none;fill-rule:nonzero;fill:rgb(0%,0%,0%);fill-opacity:1;" d="M 267.246094 8.671875 C 267.246094 6.25 265.46875 4.394531 263.417969 4.394531 C 261.308594 4.394531 259.570312 6.289062 259.570312 8.671875 C 259.570312 11.015625 261.347656 12.792969 263.398438 12.792969 C 265.507812 12.792969 267.246094 10.976562 267.246094 8.671875 Z M 263.417969 11.679688 C 262.128906 11.679688 260.917969 10.605469 260.917969 8.496094 C 260.917969 6.328125 262.265625 5.46875 263.398438 5.46875 C 264.628906 5.46875 265.898438 6.386719 265.898438 8.496094 C 265.898438 10.703125 264.609375 11.679688 263.417969 11.679688 Z M 263.417969 11.679688 "/>
<path style=" stroke:none;fill-rule:nonzero;fill:rgb(0%,0%,0%);fill-opacity:1;" d="M 270.160156 8.691406 C 270.160156 6.875 271.507812 5.703125 273.128906 5.683594 L 273.128906 4.472656 C 271.488281 4.492188 270.550781 5.449219 270.0625 6.152344 L 270.0625 4.570312 L 268.832031 4.570312 L 268.832031 12.617188 L 270.160156 12.617188 Z M 270.160156 8.691406 "/>
<path style=" stroke:none;fill-rule:nonzero;fill:rgb(0%,0%,0%);fill-opacity:1;" d="M 280.730469 8.574219 C 280.730469 7.8125 280.652344 6.71875 280.085938 5.761719 C 279.34375 4.53125 278.09375 4.394531 277.566406 4.394531 C 275.632812 4.394531 274.011719 6.25 274.011719 8.574219 C 274.011719 10.957031 275.730469 12.792969 277.820312 12.792969 C 278.640625 12.792969 279.636719 12.558594 280.613281 11.855469 C 280.613281 11.777344 280.554688 11.210938 280.554688 11.191406 C 280.535156 11.171875 280.515625 10.761719 280.515625 10.703125 C 279.441406 11.601562 278.386719 11.71875 277.859375 11.71875 C 276.472656 11.71875 275.28125 10.488281 275.261719 8.574219 Z M 275.359375 7.617188 C 275.671875 6.40625 276.511719 5.46875 277.566406 5.46875 C 278.132812 5.46875 279.363281 5.722656 279.65625 7.617188 Z M 275.359375 7.617188 "/>
<path style=" stroke:none;fill-rule:nonzero;fill:rgb(0%,0%,0%);fill-opacity:1;" d="M 4.6875 58.363281 L 7.695312 58.363281 C 10.175781 58.363281 12.636719 56.527344 12.636719 54.496094 C 12.636719 53.089844 11.464844 51.820312 9.199219 51.820312 L 3.652344 51.820312 C 3.320312 51.820312 3.164062 51.820312 3.164062 52.152344 C 3.164062 52.347656 3.320312 52.347656 3.59375 52.347656 C 4.6875 52.347656 4.6875 52.484375 4.6875 52.679688 C 4.6875 52.71875 4.6875 52.816406 4.609375 53.089844 L 2.1875 62.738281 C 2.03125 63.363281 1.992188 63.539062 0.742188 63.539062 C 0.390625 63.539062 0.214844 63.539062 0.214844 63.871094 C 0.214844 64.066406 0.371094 64.066406 0.488281 64.066406 C 0.820312 64.066406 1.191406 64.027344 1.523438 64.027344 L 3.632812 64.027344 C 3.964844 64.027344 4.335938 64.066406 4.6875 64.066406 C 4.824219 64.066406 5.019531 64.066406 5.019531 63.734375 C 5.019531 63.539062 4.863281 63.539062 4.589844 63.539062 C 3.515625 63.539062 3.496094 63.421875 3.496094 63.246094 C 3.496094 63.148438 3.515625 63.03125 3.535156 62.933594 Z M 5.976562 53.03125 C 6.132812 52.367188 6.210938 52.347656 6.914062 52.347656 L 8.671875 52.347656 C 10.019531 52.347656 11.132812 52.777344 11.132812 54.125 C 11.132812 54.574219 10.898438 56.097656 10.078125 56.9375 C 9.765625 57.25 8.90625 57.933594 7.285156 57.933594 L 4.746094 57.933594 Z M 5.976562 53.03125 "/>
<path style=" stroke:none;fill-rule:nonzero;fill:rgb(0%,0%,0%);fill-opacity:1;" d="M 30.234375 58.265625 C 30.488281 58.265625 30.800781 58.265625 30.800781 57.933594 C 30.800781 57.601562 30.488281 57.601562 30.234375 57.601562 L 19.667969 57.601562 C 19.414062 57.601562 19.101562 57.601562 19.101562 57.914062 C 19.101562 58.265625 19.394531 58.265625 19.667969 58.265625 Z M 30.234375 61.585938 C 30.488281 61.585938 30.800781 61.585938 30.800781 61.273438 C 30.800781 60.921875 30.488281 60.921875 30.234375 60.921875 L 19.667969 60.921875 C 19.414062 60.921875 19.101562 60.921875 19.101562 61.253906 C 19.101562 61.585938 19.394531 61.585938 19.667969 61.585938 Z M 30.234375 61.585938 "/>
<path style=" stroke:none;fill-rule:nonzero;fill:rgb(0%,0%,0%);fill-opacity:1;" d="M 38.367188 52.484375 L 38.367188 52.171875 C 38.367188 49.027344 39.910156 48.578125 40.554688 48.578125 C 40.847656 48.578125 41.375 48.65625 41.648438 49.085938 C 41.453125 49.085938 40.964844 49.085938 40.964844 49.632812 C 40.964844 50.023438 41.257812 50.21875 41.53125 50.21875 C 41.726562 50.21875 42.117188 50.101562 42.117188 49.613281 C 42.117188 48.871094 41.570312 48.265625 40.535156 48.265625 C 38.933594 48.265625 37.253906 49.867188 37.253906 52.621094 C 37.253906 55.960938 38.699219 56.839844 39.851562 56.839844 C 41.238281 56.839844 42.429688 55.667969 42.429688 54.027344 C 42.429688 52.445312 41.316406 51.253906 39.929688 51.253906 C 39.089844 51.253906 38.621094 51.878906 38.367188 52.484375 Z M 39.851562 56.488281 C 39.070312 56.488281 38.699219 55.746094 38.621094 55.550781 C 38.386719 54.964844 38.386719 53.96875 38.386719 53.753906 C 38.386719 52.777344 38.796875 51.527344 39.910156 51.527344 C 40.125 51.527344 40.691406 51.527344 41.082031 52.308594 C 41.296875 52.757812 41.296875 53.402344 41.296875 54.007812 C 41.296875 54.613281 41.296875 55.238281 41.082031 55.6875 C 40.710938 56.429688 40.144531 56.488281 39.851562 56.488281 Z M 39.851562 56.488281 "/>
<path style=" stroke:none;fill-rule:nonzero;fill:rgb(0%,0%,0%);fill-opacity:1;" d="M 57.023438 51.605469 C 57.023438 51.449219 56.886719 51.449219 56.847656 51.449219 C 56.828125 51.449219 56.75 51.449219 56.613281 51.625 L 55.363281 53.128906 C 54.738281 52.054688 53.761719 51.449219 52.414062 51.449219 C 48.546875 51.449219 44.523438 55.375 44.523438 59.59375 C 44.523438 62.582031 46.613281 64.4375 49.230469 64.4375 C 50.675781 64.4375 51.925781 63.832031 52.960938 62.953125 C 54.523438 61.644531 54.992188 59.90625 54.992188 59.769531 C 54.992188 59.59375 54.855469 59.59375 54.796875 59.59375 C 54.640625 59.59375 54.621094 59.710938 54.582031 59.789062 C 53.761719 62.582031 51.339844 63.929688 49.542969 63.929688 C 47.648438 63.929688 45.988281 62.699219 45.988281 60.160156 C 45.988281 59.59375 46.164062 56.46875 48.195312 54.125 C 49.191406 52.972656 50.871094 51.957031 52.570312 51.957031 C 54.542969 51.957031 55.421875 53.597656 55.421875 55.433594 C 55.421875 55.882812 55.363281 56.292969 55.363281 56.351562 C 55.363281 56.527344 55.539062 56.527344 55.597656 56.527344 C 55.792969 56.527344 55.8125 56.507812 55.890625 56.175781 Z M 57.023438 51.605469 "/>
<path style=" stroke:none;fill-rule:nonzero;fill:rgb(0%,0%,0%);fill-opacity:1;" d="M 59.839844 62.371094 C 60.855469 62.039062 61.578125 61.179688 61.578125 60.183594 C 61.578125 59.167969 60.484375 58.464844 59.292969 58.464844 C 58.042969 58.464844 57.085938 59.207031 57.085938 60.164062 C 57.085938 60.574219 57.359375 60.808594 57.730469 60.808594 C 58.101562 60.808594 58.355469 60.535156 58.355469 60.164062 C 58.355469 59.558594 57.769531 59.558594 57.59375 59.558594 C 57.964844 58.933594 58.785156 58.777344 59.234375 58.777344 C 59.761719 58.777344 60.445312 59.050781 60.445312 60.164062 C 60.445312 60.320312 60.40625 61.042969 60.09375 61.589844 C 59.722656 62.195312 59.292969 62.234375 58.980469 62.234375 C 58.882812 62.253906 58.589844 62.273438 58.492188 62.273438 C 58.394531 62.292969 58.316406 62.3125 58.316406 62.429688 C 58.316406 62.566406 58.394531 62.566406 58.609375 62.566406 L 59.15625 62.566406 C 60.171875 62.566406 60.640625 63.40625 60.640625 64.636719 C 60.640625 66.335938 59.78125 66.6875 59.234375 66.6875 C 58.6875 66.6875 57.75 66.472656 57.320312 65.75 C 57.75 65.808594 58.140625 65.535156 58.140625 65.066406 C 58.140625 64.617188 57.808594 64.363281 57.457031 64.363281 C 57.144531 64.363281 56.753906 64.539062 56.753906 65.085938 C 56.753906 66.21875 57.90625 67.039062 59.273438 67.039062 C 60.796875 67.039062 61.929688 65.90625 61.929688 64.636719 C 61.929688 63.621094 61.128906 62.644531 59.839844 62.371094 Z M 59.839844 62.371094 "/>
<path style=" stroke:none;fill-rule:nonzero;fill:rgb(0%,0%,0%);fill-opacity:1;" d="M 70.460938 59.59375 C 70.460938 59.066406 70.03125 58.636719 69.523438 58.636719 C 68.996094 58.636719 68.566406 59.066406 68.566406 59.59375 C 68.566406 60.101562 68.996094 60.53125 69.523438 60.53125 C 70.03125 60.53125 70.460938 60.101562 70.460938 59.59375 Z M 70.460938 59.59375 "/>
<path style=" stroke:none;fill-rule:nonzero;fill:rgb(0%,0%,0%);fill-opacity:1;" d="M 88.582031 80.828125 C 88.582031 80.769531 88.542969 80.730469 88.503906 80.671875 C 87.839844 80.007812 86.628906 78.816406 85.4375 76.882812 C 82.546875 72.253906 81.238281 66.414062 81.238281 59.519531 C 81.238281 54.695312 81.882812 48.464844 84.851562 43.132812 C 86.257812 40.574219 87.722656 39.109375 88.523438 38.328125 C 88.582031 38.269531 88.582031 38.230469 88.582031 38.171875 C 88.582031 37.996094 88.445312 37.996094 88.191406 37.996094 C 87.9375 37.996094 87.917969 37.996094 87.644531 38.269531 C 81.628906 43.738281 79.753906 51.941406 79.753906 59.5 C 79.753906 66.550781 81.375 73.640625 85.925781 79.011719 C 86.277344 79.421875 86.960938 80.144531 87.703125 80.808594 C 87.917969 81.023438 87.9375 81.023438 88.191406 81.023438 C 88.445312 81.023438 88.582031 81.023438 88.582031 80.828125 Z M 88.582031 80.828125 "/>
<path style=" stroke:none;fill-rule:nonzero;fill:rgb(0%,0%,0%);fill-opacity:1;" d="M 95.882812 40.433594 C 95.882812 40.003906 95.882812 40.003906 95.53125 40.003906 C 95.101562 40.472656 94.203125 41.136719 92.367188 41.136719 L 92.367188 41.664062 C 92.777344 41.664062 93.675781 41.664062 94.652344 41.195312 L 94.652344 50.53125 C 94.652344 51.175781 94.59375 51.390625 93.03125 51.390625 L 92.464844 51.390625 L 92.464844 51.917969 C 92.953125 51.878906 94.691406 51.878906 95.277344 51.878906 C 95.863281 51.878906 97.601562 51.878906 98.070312 51.917969 L 98.070312 51.390625 L 97.523438 51.390625 C 95.941406 51.390625 95.882812 51.175781 95.882812 50.53125 Z M 95.882812 40.433594 "/>
<path style=" stroke:none;fill-rule:nonzero;fill:rgb(0%,0%,0%);fill-opacity:1;" d="M 90.707031 59.132812 L 99.554688 59.132812 L 99.554688 59.882812 L 90.707031 59.882812 Z M 90.707031 59.132812 "/>
<path style=" stroke:none;fill-rule:nonzero;fill:rgb(0%,0%,0%);fill-opacity:1;" d="M 92.933594 70.136719 C 92.933594 65.585938 95.140625 64.882812 96.097656 64.882812 C 96.742188 64.882812 97.386719 65.078125 97.738281 65.605469 C 97.523438 65.605469 96.839844 65.605469 96.839844 66.347656 C 96.839844 66.738281 97.113281 67.070312 97.582031 67.070312 C 98.03125 67.070312 98.324219 66.816406 98.324219 66.289062 C 98.324219 65.351562 97.640625 64.453125 96.078125 64.453125 C 93.832031 64.453125 91.46875 66.757812 91.46875 70.703125 C 91.46875 75.625 93.617188 76.738281 95.140625 76.738281 C 97.09375 76.738281 98.753906 75.039062 98.753906 72.714844 C 98.753906 70.332031 97.09375 68.730469 95.296875 68.730469 C 93.695312 68.730469 93.109375 70.117188 92.933594 70.605469 Z M 95.140625 76.25 C 94.007812 76.25 93.460938 75.253906 93.304688 74.882812 C 93.148438 74.414062 92.972656 73.535156 92.972656 72.285156 C 92.972656 70.859375 93.617188 69.082031 95.21875 69.082031 C 96.214844 69.082031 96.742188 69.746094 96.996094 70.351562 C 97.289062 71.015625 97.289062 71.914062 97.289062 72.695312 C 97.289062 73.613281 97.289062 74.414062 96.957031 75.097656 C 96.507812 75.957031 95.863281 76.25 95.140625 76.25 Z M 95.140625 76.25 "/>
<path style=" stroke:none;fill-rule:nonzero;fill:rgb(0%,0%,0%);fill-opacity:1;" d="M 110.378906 59.519531 C 110.378906 52.46875 108.757812 45.378906 104.207031 40.007812 C 103.855469 39.597656 103.171875 38.855469 102.429688 38.210938 C 102.214844 37.996094 102.175781 37.996094 101.921875 37.996094 C 101.707031 37.996094 101.550781 37.996094 101.550781 38.171875 C 101.550781 38.25 101.628906 38.328125 101.667969 38.367188 C 102.292969 39.011719 103.484375 40.203125 104.695312 42.136719 C 107.585938 46.765625 108.894531 52.605469 108.894531 59.5 C 108.894531 64.324219 108.25 70.535156 105.28125 75.886719 C 103.875 78.425781 102.371094 79.929688 101.628906 80.671875 C 101.589844 80.730469 101.550781 80.789062 101.550781 80.828125 C 101.550781 81.023438 101.707031 81.023438 101.921875 81.023438 C 102.175781 81.023438 102.214844 81.023438 102.488281 80.75 C 108.484375 75.28125 110.378906 67.058594 110.378906 59.519531 Z M 110.378906 59.519531 "/>
<path style=" stroke:none;fill-rule:nonzero;fill:rgb(0%,0%,0%);fill-opacity:1;" d="M 117.738281 38.523438 C 118.753906 38.191406 119.476562 37.332031 119.476562 36.335938 C 119.476562 35.320312 118.382812 34.617188 117.191406 34.617188 C 115.941406 34.617188 114.984375 35.359375 114.984375 36.316406 C 114.984375 36.726562 115.257812 36.960938 115.628906 36.960938 C 116 36.960938 116.253906 36.6875 116.253906 36.316406 C 116.253906 35.710938 115.667969 35.710938 115.492188 35.710938 C 115.863281 35.085938 116.683594 34.929688 117.132812 34.929688 C 117.660156 34.929688 118.34375 35.203125 118.34375 36.316406 C 118.34375 36.472656 118.304688 37.195312 117.992188 37.742188 C 117.621094 38.347656 117.191406 38.386719 116.878906 38.386719 C 116.78125 38.40625 116.488281 38.425781 116.390625 38.425781 C 116.292969 38.445312 116.214844 38.464844 116.214844 38.582031 C 116.214844 38.71875 116.292969 38.71875 116.507812 38.71875 L 117.054688 38.71875 C 118.070312 38.71875 118.539062 39.558594 118.539062 40.789062 C 118.539062 42.488281 117.679688 42.839844 117.132812 42.839844 C 116.585938 42.839844 115.648438 42.625 115.21875 41.902344 C 115.648438 41.960938 116.039062 41.6875 116.039062 41.21875 C 116.039062 40.769531 115.707031 40.515625 115.355469 40.515625 C 115.042969 40.515625 114.652344 40.691406 114.652344 41.238281 C 114.652344 42.371094 115.804688 43.191406 117.171875 43.191406 C 118.695312 43.191406 119.828125 42.058594 119.828125 40.789062 C 119.828125 39.773438 119.027344 38.796875 117.738281 38.523438 Z M 117.738281 38.523438 "/>
<path style=" stroke:none;fill-rule:nonzero;fill:rgb(0%,0%,0%);fill-opacity:1;" d="M 128.511719 59.59375 C 128.511719 59.066406 128.082031 58.636719 127.574219 58.636719 C 127.046875 58.636719 126.617188 59.066406 126.617188 59.59375 C 126.617188 60.101562 127.046875 60.53125 127.574219 60.53125 C 128.082031 60.53125 128.511719 60.101562 128.511719 59.59375 Z M 128.511719 59.59375 "/>
<path style=" stroke:none;fill-rule:nonzero;fill:rgb(0%,0%,0%);fill-opacity:1;" d="M 146.484375 80.824219 C 146.484375 80.765625 146.445312 80.726562 146.40625 80.667969 C 145.742188 80.003906 144.53125 78.8125 143.339844 76.878906 C 140.449219 72.25 139.140625 66.410156 139.140625 59.515625 C 139.140625 54.691406 139.785156 48.460938 142.753906 43.128906 C 144.160156 40.570312 145.625 39.105469 146.425781 38.324219 C 146.484375 38.265625 146.484375 38.226562 146.484375 38.167969 C 146.484375 37.992188 146.347656 37.992188 146.09375 37.992188 C 145.839844 37.992188 145.820312 37.992188 145.546875 38.265625 C 139.53125 43.734375 137.65625 51.9375 137.65625 59.496094 C 137.65625 66.546875 139.277344 73.636719 143.828125 79.007812 C 144.179688 79.417969 144.863281 80.140625 145.605469 80.804688 C 145.820312 81.019531 145.839844 81.019531 146.09375 81.019531 C 146.347656 81.019531 146.484375 81.019531 146.484375 80.824219 Z M 146.484375 80.824219 "/>
<path style=" stroke:none;fill-rule:nonzero;fill:rgb(0%,0%,0%);fill-opacity:1;" d="M 150.929688 41.644531 C 151.691406 41.898438 152.316406 41.917969 152.511719 41.917969 C 154.542969 41.917969 155.832031 40.433594 155.832031 40.179688 C 155.832031 40.101562 155.792969 40.003906 155.695312 40.003906 C 155.65625 40.003906 155.617188 40.003906 155.460938 40.082031 C 154.445312 40.511719 153.585938 40.570312 153.117188 40.570312 C 151.945312 40.570312 151.105469 40.21875 150.753906 40.0625 C 150.636719 40.003906 150.597656 40.003906 150.578125 40.003906 C 150.441406 40.003906 150.441406 40.121094 150.441406 40.414062 L 150.441406 45.726562 C 150.441406 46.058594 150.441406 46.15625 150.65625 46.15625 C 150.734375 46.15625 150.753906 46.136719 150.929688 45.921875 C 151.4375 45.199219 152.277344 44.769531 153.175781 44.769531 C 154.132812 44.769531 154.601562 45.648438 154.738281 45.941406 C 155.050781 46.644531 155.070312 47.523438 155.070312 48.207031 C 155.070312 48.890625 155.070312 49.90625 154.5625 50.707031 C 154.171875 51.371094 153.46875 51.800781 152.667969 51.800781 C 151.496094 51.800781 150.324219 51 150.011719 49.691406 C 150.089844 49.730469 150.207031 49.75 150.285156 49.75 C 150.597656 49.75 151.085938 49.574219 151.085938 48.96875 C 151.085938 48.460938 150.734375 48.167969 150.285156 48.167969 C 149.972656 48.167969 149.503906 48.324219 149.503906 49.027344 C 149.503906 50.550781 150.714844 52.289062 152.707031 52.289062 C 154.738281 52.289062 156.515625 50.589844 156.515625 48.304688 C 156.515625 46.175781 155.070312 44.398438 153.195312 44.398438 C 152.179688 44.398438 151.378906 44.847656 150.929688 45.355469 Z M 150.929688 41.644531 "/>
<path style=" stroke:none;fill-rule:nonzero;fill:rgb(0%,0%,0%);fill-opacity:1;" d="M 148.609375 59.132812 L 157.457031 59.132812 L 157.457031 59.882812 L 148.609375 59.882812 Z M 148.609375 59.132812 "/>
<path style=" stroke:none;fill-rule:nonzero;fill:rgb(0%,0%,0%);fill-opacity:1;" d="M 150.832031 70.136719 C 150.832031 65.585938 153.039062 64.882812 153.996094 64.882812 C 154.640625 64.882812 155.285156 65.078125 155.636719 65.605469 C 155.421875 65.605469 154.738281 65.605469 154.738281 66.347656 C 154.738281 66.738281 155.011719 67.070312 155.480469 67.070312 C 155.929688 67.070312 156.222656 66.816406 156.222656 66.289062 C 156.222656 65.351562 155.539062 64.453125 153.976562 64.453125 C 151.730469 64.453125 149.367188 66.757812 149.367188 70.703125 C 149.367188 75.625 151.515625 76.738281 153.039062 76.738281 C 154.992188 76.738281 156.652344 75.039062 156.652344 72.714844 C 156.652344 70.332031 154.992188 68.730469 153.195312 68.730469 C 151.59375 68.730469 151.007812 70.117188 150.832031 70.605469 Z M 153.039062 76.25 C 151.90625 76.25 151.359375 75.253906 151.203125 74.882812 C 151.046875 74.414062 150.871094 73.535156 150.871094 72.285156 C 150.871094 70.859375 151.515625 69.082031 153.117188 69.082031 C 154.113281 69.082031 154.640625 69.746094 154.894531 70.351562 C 155.1875 71.015625 155.1875 71.914062 155.1875 72.695312 C 155.1875 73.613281 155.1875 74.414062 154.855469 75.097656 C 154.40625 75.957031 153.761719 76.25 153.039062 76.25 Z M 153.039062 76.25 "/>
<path style=" stroke:none;fill-rule:nonzero;fill:rgb(0%,0%,0%);fill-opacity:1;" d="M 168.429688 59.519531 C 168.429688 52.46875 166.808594 45.378906 162.257812 40.007812 C 161.90625 39.597656 161.222656 38.855469 160.480469 38.210938 C 160.265625 37.996094 160.226562 37.996094 159.972656 37.996094 C 159.757812 37.996094 159.601562 37.996094 159.601562 38.171875 C 159.601562 38.25 159.679688 38.328125 159.71875 38.367188 C 160.34375 39.011719 161.535156 40.203125 162.746094 42.136719 C 165.636719 46.765625 166.945312 52.605469 166.945312 59.5 C 166.945312 64.324219 166.300781 70.535156 163.332031 75.886719 C 161.925781 78.425781 160.421875 79.929688 159.679688 80.671875 C 159.640625 80.730469 159.601562 80.789062 159.601562 80.828125 C 159.601562 81.023438 159.757812 81.023438 159.972656 81.023438 C 160.226562 81.023438 160.265625 81.023438 160.539062 80.75 C 166.535156 75.28125 168.429688 67.058594 168.429688 59.519531 Z M 168.429688 59.519531 "/>
<path style=" stroke:none;fill-rule:nonzero;fill:rgb(0%,0%,0%);fill-opacity:1;" d="M 175.789062 38.523438 C 176.804688 38.191406 177.527344 37.332031 177.527344 36.335938 C 177.527344 35.320312 176.433594 34.617188 175.242188 34.617188 C 173.992188 34.617188 173.035156 35.359375 173.035156 36.316406 C 173.035156 36.726562 173.308594 36.960938 173.679688 36.960938 C 174.050781 36.960938 174.304688 36.6875 174.304688 36.316406 C 174.304688 35.710938 173.71875 35.710938 173.542969 35.710938 C 173.914062 35.085938 174.734375 34.929688 175.183594 34.929688 C 175.710938 34.929688 176.394531 35.203125 176.394531 36.316406 C 176.394531 36.472656 176.355469 37.195312 176.042969 37.742188 C 175.671875 38.347656 175.242188 38.386719 174.929688 38.386719 C 174.832031 38.40625 174.539062 38.425781 174.441406 38.425781 C 174.34375 38.445312 174.265625 38.464844 174.265625 38.582031 C 174.265625 38.71875 174.34375 38.71875 174.558594 38.71875 L 175.105469 38.71875 C 176.121094 38.71875 176.589844 39.558594 176.589844 40.789062 C 176.589844 42.488281 175.730469 42.839844 175.183594 42.839844 C 174.636719 42.839844 173.699219 42.625 173.269531 41.902344 C 173.699219 41.960938 174.089844 41.6875 174.089844 41.21875 C 174.089844 40.769531 173.757812 40.515625 173.40625 40.515625 C 173.09375 40.515625 172.703125 40.691406 172.703125 41.238281 C 172.703125 42.371094 173.855469 43.191406 175.222656 43.191406 C 176.746094 43.191406 177.878906 42.058594 177.878906 40.789062 C 177.878906 39.773438 177.078125 38.796875 175.789062 38.523438 Z M 175.789062 38.523438 "/>
<path style=" stroke:none;fill-rule:nonzero;fill:rgb(0%,0%,0%);fill-opacity:1;" d="M 196.132812 58.265625 C 196.386719 58.265625 196.699219 58.265625 196.699219 57.933594 C 196.699219 57.601562 196.386719 57.601562 196.132812 57.601562 L 185.566406 57.601562 C 185.3125 57.601562 185 57.601562 185 57.914062 C 185 58.265625 185.292969 58.265625 185.566406 58.265625 Z M 196.132812 61.585938 C 196.386719 61.585938 196.699219 61.585938 196.699219 61.273438 C 196.699219 60.921875 196.386719 60.921875 196.132812 60.921875 L 185.566406 60.921875 C 185.3125 60.921875 185 60.921875 185 61.253906 C 185 61.585938 185.292969 61.585938 185.566406 61.585938 Z M 196.132812 61.585938 "/>
<path style=" stroke:none;fill-rule:nonzero;fill:rgb(0%,0%,0%);fill-opacity:1;" d="M 215.03125 45.6875 C 215.03125 41.136719 217.238281 40.433594 218.195312 40.433594 C 218.839844 40.433594 219.484375 40.628906 219.835938 41.15625 C 219.621094 41.15625 218.9375 41.15625 218.9375 41.898438 C 218.9375 42.289062 219.210938 42.621094 219.679688 42.621094 C 220.128906 42.621094 220.421875 42.367188 220.421875 41.839844 C 220.421875 40.902344 219.738281 40.003906 218.175781 40.003906 C 215.929688 40.003906 213.566406 42.308594 213.566406 46.253906 C 213.566406 51.175781 215.714844 52.289062 217.238281 52.289062 C 219.191406 52.289062 220.851562 50.589844 220.851562 48.265625 C 220.851562 45.882812 219.191406 44.28125 217.394531 44.28125 C 215.792969 44.28125 215.207031 45.667969 215.03125 46.15625 Z M 217.238281 51.800781 C 216.105469 51.800781 215.558594 50.804688 215.402344 50.433594 C 215.246094 49.964844 215.070312 49.085938 215.070312 47.835938 C 215.070312 46.410156 215.714844 44.632812 217.316406 44.632812 C 218.3125 44.632812 218.839844 45.296875 219.09375 45.902344 C 219.386719 46.566406 219.386719 47.464844 219.386719 48.246094 C 219.386719 49.164062 219.386719 49.964844 219.054688 50.648438 C 218.605469 51.507812 217.960938 51.800781 217.238281 51.800781 Z M 217.238281 51.800781 "/>
<path style=" stroke:none;fill-rule:nonzero;fill:rgb(0%,0%,0%);fill-opacity:1;" d="M 229.566406 48.910156 L 229.175781 48.910156 C 229.117188 49.203125 228.980469 50.199219 228.785156 50.492188 C 228.667969 50.648438 227.652344 50.648438 227.105469 50.648438 L 223.785156 50.648438 C 224.273438 50.238281 225.367188 49.085938 225.835938 48.65625 C 228.570312 46.136719 229.566406 45.21875 229.566406 43.441406 C 229.566406 41.371094 227.925781 40.003906 225.855469 40.003906 C 223.765625 40.003906 222.554688 41.761719 222.554688 43.304688 C 222.554688 44.222656 223.335938 44.222656 223.394531 44.222656 C 223.765625 44.222656 224.234375 43.949219 224.234375 43.382812 C 224.234375 42.875 223.902344 42.542969 223.394531 42.542969 C 223.238281 42.542969 223.199219 42.542969 223.140625 42.5625 C 223.492188 41.332031 224.449219 40.511719 225.621094 40.511719 C 227.144531 40.511719 228.082031 41.78125 228.082031 43.441406 C 228.082031 44.964844 227.203125 46.292969 226.167969 47.445312 L 222.554688 51.488281 L 222.554688 51.917969 L 229.097656 51.917969 Z M 229.566406 48.910156 "/>
<path style=" stroke:none;fill-rule:nonzero;fill:rgb(0%,0%,0%);fill-opacity:1;" d="M 232.828125 41.644531 C 233.589844 41.898438 234.214844 41.917969 234.410156 41.917969 C 236.441406 41.917969 237.730469 40.433594 237.730469 40.179688 C 237.730469 40.101562 237.691406 40.003906 237.59375 40.003906 C 237.554688 40.003906 237.515625 40.003906 237.359375 40.082031 C 236.34375 40.511719 235.484375 40.570312 235.015625 40.570312 C 233.84375 40.570312 233.003906 40.21875 232.652344 40.0625 C 232.535156 40.003906 232.496094 40.003906 232.476562 40.003906 C 232.339844 40.003906 232.339844 40.121094 232.339844 40.414062 L 232.339844 45.726562 C 232.339844 46.058594 232.339844 46.15625 232.554688 46.15625 C 232.632812 46.15625 232.652344 46.136719 232.828125 45.921875 C 233.335938 45.199219 234.175781 44.769531 235.074219 44.769531 C 236.03125 44.769531 236.5 45.648438 236.636719 45.941406 C 236.949219 46.644531 236.96875 47.523438 236.96875 48.207031 C 236.96875 48.890625 236.96875 49.90625 236.460938 50.707031 C 236.070312 51.371094 235.367188 51.800781 234.566406 51.800781 C 233.394531 51.800781 232.222656 51 231.910156 49.691406 C 231.988281 49.730469 232.105469 49.75 232.183594 49.75 C 232.496094 49.75 232.984375 49.574219 232.984375 48.96875 C 232.984375 48.460938 232.632812 48.167969 232.183594 48.167969 C 231.871094 48.167969 231.402344 48.324219 231.402344 49.027344 C 231.402344 50.550781 232.613281 52.289062 234.605469 52.289062 C 236.636719 52.289062 238.414062 50.589844 238.414062 48.304688 C 238.414062 46.175781 236.96875 44.398438 235.09375 44.398438 C 234.078125 44.398438 233.277344 44.847656 232.828125 45.355469 Z M 232.828125 41.644531 "/>
<path style=" stroke:none;fill-rule:nonzero;fill:rgb(0%,0%,0%);fill-opacity:1;" d="M 204.113281 59.132812 L 248.0625 59.132812 L 248.0625 59.882812 L 204.113281 59.882812 Z M 204.113281 59.132812 "/>
<path style=" stroke:none;fill-rule:nonzero;fill:rgb(0%,0%,0%);fill-opacity:1;" d="M 209.28125 64.882812 C 209.28125 64.453125 209.28125 64.453125 208.929688 64.453125 C 208.5 64.921875 207.601562 65.585938 205.765625 65.585938 L 205.765625 66.113281 C 206.175781 66.113281 207.074219 66.113281 208.050781 65.644531 L 208.050781 74.980469 C 208.050781 75.625 207.992188 75.839844 206.429688 75.839844 L 205.863281 75.839844 L 205.863281 76.367188 C 206.351562 76.328125 208.089844 76.328125 208.675781 76.328125 C 209.261719 76.328125 211 76.328125 211.46875 76.367188 L 211.46875 75.839844 L 210.921875 75.839844 C 209.339844 75.839844 209.28125 75.625 209.28125 74.980469 Z M 209.28125 64.882812 "/>
<path style=" stroke:none;fill-rule:nonzero;fill:rgb(0%,0%,0%);fill-opacity:1;" d="M 218.132812 64.882812 C 218.132812 64.453125 218.132812 64.453125 217.78125 64.453125 C 217.351562 64.921875 216.453125 65.585938 214.617188 65.585938 L 214.617188 66.113281 C 215.027344 66.113281 215.925781 66.113281 216.902344 65.644531 L 216.902344 74.980469 C 216.902344 75.625 216.84375 75.839844 215.28125 75.839844 L 214.714844 75.839844 L 214.714844 76.367188 C 215.203125 76.328125 216.941406 76.328125 217.527344 76.328125 C 218.113281 76.328125 219.851562 76.328125 220.320312 76.367188 L 220.320312 75.839844 L 219.773438 75.839844 C 218.191406 75.839844 218.132812 75.625 218.132812 74.980469 Z M 218.132812 64.882812 "/>
<path style=" stroke:none;fill-rule:nonzero;fill:rgb(0%,0%,0%);fill-opacity:1;" d="M 224.03125 70.136719 C 224.03125 65.585938 226.238281 64.882812 227.195312 64.882812 C 227.839844 64.882812 228.484375 65.078125 228.835938 65.605469 C 228.621094 65.605469 227.9375 65.605469 227.9375 66.347656 C 227.9375 66.738281 228.210938 67.070312 228.679688 67.070312 C 229.128906 67.070312 229.421875 66.816406 229.421875 66.289062 C 229.421875 65.351562 228.738281 64.453125 227.175781 64.453125 C 224.929688 64.453125 222.566406 66.757812 222.566406 70.703125 C 222.566406 75.625 224.714844 76.738281 226.238281 76.738281 C 228.191406 76.738281 229.851562 75.039062 229.851562 72.714844 C 229.851562 70.332031 228.191406 68.730469 226.394531 68.730469 C 224.792969 68.730469 224.207031 70.117188 224.03125 70.605469 Z M 226.238281 76.25 C 225.105469 76.25 224.558594 75.253906 224.402344 74.882812 C 224.246094 74.414062 224.070312 73.535156 224.070312 72.285156 C 224.070312 70.859375 224.714844 69.082031 226.316406 69.082031 C 227.3125 69.082031 227.839844 69.746094 228.09375 70.351562 C 228.386719 71.015625 228.386719 71.914062 228.386719 72.695312 C 228.386719 73.613281 228.386719 74.414062 228.054688 75.097656 C 227.605469 75.957031 226.960938 76.25 226.238281 76.25 Z M 226.238281 76.25 "/>
<path style=" stroke:none;fill-rule:nonzero;fill:rgb(0%,0%,0%);fill-opacity:1;" d="M 232.882812 70.136719 C 232.882812 65.585938 235.089844 64.882812 236.046875 64.882812 C 236.691406 64.882812 237.335938 65.078125 237.6875 65.605469 C 237.472656 65.605469 236.789062 65.605469 236.789062 66.347656 C 236.789062 66.738281 237.0625 67.070312 237.53125 67.070312 C 237.980469 67.070312 238.273438 66.816406 238.273438 66.289062 C 238.273438 65.351562 237.589844 64.453125 236.027344 64.453125 C 233.78125 64.453125 231.417969 66.757812 231.417969 70.703125 C 231.417969 75.625 233.566406 76.738281 235.089844 76.738281 C 237.042969 76.738281 238.703125 75.039062 238.703125 72.714844 C 238.703125 70.332031 237.042969 68.730469 235.246094 68.730469 C 233.644531 68.730469 233.058594 70.117188 232.882812 70.605469 Z M 235.089844 76.25 C 233.957031 76.25 233.410156 75.253906 233.253906 74.882812 C 233.097656 74.414062 232.921875 73.535156 232.921875 72.285156 C 232.921875 70.859375 233.566406 69.082031 235.167969 69.082031 C 236.164062 69.082031 236.691406 69.746094 236.945312 70.351562 C 237.238281 71.015625 237.238281 71.914062 237.238281 72.695312 C 237.238281 73.613281 237.238281 74.414062 236.90625 75.097656 C 236.457031 75.957031 235.8125 76.25 235.089844 76.25 Z M 235.089844 76.25 "/>
<path style=" stroke:none;fill-rule:nonzero;fill:rgb(0%,0%,0%);fill-opacity:1;" d="M 245.988281 64.6875 C 245.988281 64.355469 245.988281 64.257812 245.753906 64.257812 C 245.597656 64.257812 245.539062 64.257812 245.402344 64.472656 L 240.011719 72.851562 L 240.011719 73.378906 L 244.71875 73.378906 L 244.71875 75 C 244.71875 75.664062 244.679688 75.839844 243.371094 75.839844 L 243.019531 75.839844 L 243.019531 76.367188 C 243.429688 76.328125 244.855469 76.328125 245.34375 76.328125 C 245.851562 76.328125 247.277344 76.328125 247.707031 76.367188 L 247.707031 75.839844 L 247.335938 75.839844 C 246.046875 75.839844 245.988281 75.664062 245.988281 75 L 245.988281 73.378906 L 247.804688 73.378906 L 247.804688 72.851562 L 245.988281 72.851562 Z M 244.816406 66.09375 L 244.816406 72.851562 L 240.460938 72.851562 Z M 244.816406 66.09375 "/>
</g>
</svg>
