<?xml version="1.0" encoding="UTF-8"?>
<svg xmlns="http://www.w3.org/2000/svg" xmlns:xlink="http://www.w3.org/1999/xlink" width="172.81124pt" height="101.84771pt" viewBox="0 0 172.81124 101.84771" version="1.1">
<g id="surface1">
<path style=" stroke:none;fill-rule:nonzero;fill:rgb(0%,0%,0%);fill-opacity:1;" d="M 31.875 2.910156 C 31.894531 2.832031 31.933594 2.734375 31.933594 2.636719 C 31.933594 2.460938 31.738281 2.460938 31.699219 2.460938 C 31.699219 2.460938 30.820312 2.539062 30.722656 2.539062 C 30.410156 2.558594 30.15625 2.597656 29.824219 2.617188 C 29.375 2.65625 29.257812 2.675781 29.257812 2.988281 C 29.257812 3.183594 29.394531 3.183594 29.648438 3.183594 C 30.527344 3.183594 30.546875 3.339844 30.546875 3.515625 C 30.546875 3.632812 30.507812 3.769531 30.488281 3.828125 L 29.394531 8.183594 C 29.199219 7.714844 28.710938 6.992188 27.773438 6.992188 C 25.761719 6.992188 23.574219 9.609375 23.574219 12.265625 C 23.574219 14.042969 24.609375 15.078125 25.820312 15.078125 C 26.816406 15.078125 27.65625 14.316406 28.164062 13.710938 C 28.339844 14.785156 29.179688 15.078125 29.726562 15.078125 C 30.253906 15.078125 30.683594 14.765625 31.015625 14.121094 C 31.289062 13.496094 31.542969 12.402344 31.542969 12.34375 C 31.542969 12.246094 31.484375 12.167969 31.367188 12.167969 C 31.210938 12.167969 31.191406 12.265625 31.113281 12.539062 C 30.839844 13.59375 30.507812 14.726562 29.765625 14.726562 C 29.257812 14.726562 29.21875 14.257812 29.21875 13.90625 C 29.21875 13.828125 29.21875 13.457031 29.335938 12.949219 Z M 28.242188 12.773438 C 28.164062 13.066406 28.164062 13.105469 27.910156 13.457031 C 27.519531 13.945312 26.71875 14.726562 25.878906 14.726562 C 25.15625 14.726562 24.726562 14.0625 24.726562 13.007812 C 24.726562 12.011719 25.292969 10 25.625 9.257812 C 26.25 8.007812 27.089844 7.363281 27.773438 7.363281 C 28.964844 7.363281 29.199219 8.828125 29.199219 8.964844 C 29.199219 8.984375 29.140625 9.21875 29.121094 9.257812 Z M 28.242188 12.773438 "/>
<path style=" stroke:none;fill-rule:nonzero;fill:rgb(0%,0%,0%);fill-opacity:1;" d="M 17.886719 22.113281 L 37.085938 22.113281 L 37.085938 22.867188 L 17.886719 22.867188 Z M 17.886719 22.113281 "/>
<path style=" stroke:none;fill-rule:nonzero;fill:rgb(0%,0%,0%);fill-opacity:1;" d="M 26.925781 27.359375 C 26.945312 27.28125 26.984375 27.183594 26.984375 27.085938 C 26.984375 26.910156 26.789062 26.910156 26.75 26.910156 C 26.75 26.910156 25.871094 26.988281 25.773438 26.988281 C 25.460938 27.007812 25.207031 27.046875 24.875 27.066406 C 24.425781 27.105469 24.308594 27.125 24.308594 27.4375 C 24.308594 27.632812 24.445312 27.632812 24.699219 27.632812 C 25.578125 27.632812 25.597656 27.789062 25.597656 27.964844 C 25.597656 28.082031 25.558594 28.21875 25.539062 28.277344 L 24.445312 32.632812 C 24.25 32.164062 23.761719 31.441406 22.824219 31.441406 C 20.8125 31.441406 18.625 34.058594 18.625 36.714844 C 18.625 38.492188 19.660156 39.527344 20.871094 39.527344 C 21.867188 39.527344 22.707031 38.765625 23.214844 38.160156 C 23.390625 39.234375 24.230469 39.527344 24.777344 39.527344 C 25.304688 39.527344 25.734375 39.214844 26.066406 38.570312 C 26.339844 37.945312 26.59375 36.851562 26.59375 36.792969 C 26.59375 36.695312 26.535156 36.617188 26.417969 36.617188 C 26.261719 36.617188 26.242188 36.714844 26.164062 36.988281 C 25.890625 38.042969 25.558594 39.175781 24.816406 39.175781 C 24.308594 39.175781 24.269531 38.707031 24.269531 38.355469 C 24.269531 38.277344 24.269531 37.90625 24.386719 37.398438 Z M 23.292969 37.222656 C 23.214844 37.515625 23.214844 37.554688 22.960938 37.90625 C 22.570312 38.394531 21.769531 39.175781 20.929688 39.175781 C 20.207031 39.175781 19.777344 38.511719 19.777344 37.457031 C 19.777344 36.460938 20.34375 34.449219 20.675781 33.707031 C 21.300781 32.457031 22.140625 31.8125 22.824219 31.8125 C 24.015625 31.8125 24.25 33.277344 24.25 33.414062 C 24.25 33.433594 24.191406 33.667969 24.171875 33.707031 Z M 23.292969 37.222656 "/>
<path style=" stroke:none;fill-rule:nonzero;fill:rgb(0%,0%,0%);fill-opacity:1;" d="M 35.550781 32.027344 C 34.984375 32.144531 34.769531 32.574219 34.769531 32.90625 C 34.769531 33.335938 35.101562 33.492188 35.355469 33.492188 C 35.902344 33.492188 36.273438 33.023438 36.273438 32.535156 C 36.273438 31.792969 35.414062 31.441406 34.652344 31.441406 C 33.558594 31.441406 32.953125 32.515625 32.796875 32.867188 C 32.386719 31.519531 31.273438 31.441406 30.941406 31.441406 C 29.125 31.441406 28.148438 33.785156 28.148438 34.195312 C 28.148438 34.253906 28.226562 34.351562 28.34375 34.351562 C 28.480469 34.351562 28.519531 34.234375 28.558594 34.175781 C 29.164062 32.183594 30.375 31.8125 30.882812 31.8125 C 31.703125 31.8125 31.859375 32.554688 31.859375 32.984375 C 31.859375 33.375 31.761719 33.785156 31.527344 34.644531 L 30.921875 37.105469 C 30.667969 38.179688 30.140625 39.175781 29.183594 39.175781 C 29.105469 39.175781 28.65625 39.175781 28.265625 38.941406 C 28.910156 38.804688 29.066406 38.277344 29.066406 38.0625 C 29.066406 37.710938 28.792969 37.496094 28.460938 37.496094 C 28.03125 37.496094 27.5625 37.867188 27.5625 38.433594 C 27.5625 39.195312 28.402344 39.527344 29.164062 39.527344 C 30.023438 39.527344 30.648438 38.84375 31.019531 38.121094 C 31.3125 39.175781 32.191406 39.527344 32.855469 39.527344 C 34.691406 39.527344 35.667969 37.183594 35.667969 36.792969 C 35.667969 36.695312 35.589844 36.617188 35.472656 36.617188 C 35.316406 36.617188 35.296875 36.714844 35.257812 36.851562 C 34.769531 38.433594 33.714844 39.175781 32.914062 39.175781 C 32.289062 39.175781 31.957031 38.707031 31.957031 37.964844 C 31.957031 37.574219 32.015625 37.28125 32.308594 36.109375 L 32.933594 33.667969 C 33.207031 32.59375 33.8125 31.8125 34.632812 31.8125 C 34.671875 31.8125 35.179688 31.8125 35.550781 32.027344 Z M 35.550781 32.027344 "/>
<path style=" stroke:none;fill-rule:nonzero;fill:rgb(0%,0%,0%);fill-opacity:1;" d="M 43.160156 29.0625 C 42.691406 29.746094 41.988281 30.351562 41.109375 30.351562 C 40.894531 30.351562 40.035156 30.3125 39.761719 29.492188 C 39.820312 29.511719 39.898438 29.511719 39.9375 29.511719 C 40.484375 29.511719 40.835938 29.042969 40.835938 28.632812 C 40.835938 28.222656 40.503906 28.066406 40.230469 28.066406 C 39.9375 28.066406 39.3125 28.28125 39.3125 29.160156 C 39.3125 30.078125 40.09375 30.703125 41.109375 30.703125 C 42.90625 30.703125 44.703125 29.0625 45.210938 27.070312 L 46.96875 20.078125 C 46.988281 19.980469 47.027344 19.882812 47.027344 19.765625 C 47.027344 19.511719 46.8125 19.316406 46.539062 19.316406 C 46.382812 19.316406 45.992188 19.394531 45.855469 19.941406 L 44.527344 25.195312 C 44.449219 25.527344 44.449219 25.566406 44.292969 25.761719 C 43.941406 26.269531 43.355469 26.875 42.496094 26.875 C 41.480469 26.875 41.402344 25.878906 41.402344 25.410156 C 41.402344 24.375 41.871094 23.007812 42.359375 21.699219 C 42.554688 21.191406 42.671875 20.9375 42.671875 20.585938 C 42.671875 19.824219 42.125 19.140625 41.246094 19.140625 C 39.605469 19.140625 38.941406 21.738281 38.941406 21.894531 C 38.941406 21.953125 39 22.050781 39.136719 22.050781 C 39.292969 22.050781 39.3125 21.972656 39.390625 21.71875 C 39.820312 20.214844 40.503906 19.511719 41.1875 19.511719 C 41.363281 19.511719 41.65625 19.511719 41.65625 20.097656 C 41.65625 20.566406 41.460938 21.074219 41.1875 21.757812 C 40.308594 24.101562 40.308594 24.707031 40.308594 25.136719 C 40.308594 26.835938 41.539062 27.226562 42.4375 27.226562 C 42.945312 27.226562 43.589844 27.070312 44.234375 26.40625 L 44.253906 26.425781 C 43.980469 27.480469 43.804688 28.183594 43.160156 29.0625 Z M 43.160156 29.0625 "/>
<path style=" stroke:none;fill-rule:nonzero;fill:rgb(0%,0%,0%);fill-opacity:1;" d="M 64.8125 21.25 C 65.066406 21.25 65.378906 21.25 65.378906 20.917969 C 65.378906 20.585938 65.066406 20.585938 64.8125 20.585938 L 54.246094 20.585938 C 53.992188 20.585938 53.679688 20.585938 53.679688 20.898438 C 53.679688 21.25 53.972656 21.25 54.246094 21.25 Z M 64.8125 24.570312 C 65.066406 24.570312 65.378906 24.570312 65.378906 24.257812 C 65.378906 23.90625 65.066406 23.90625 64.8125 23.90625 L 54.246094 23.90625 C 53.992188 23.90625 53.679688 23.90625 53.679688 24.238281 C 53.679688 24.570312 53.972656 24.570312 54.246094 24.570312 Z M 64.8125 24.570312 "/>
<path style=" stroke:none;fill-rule:nonzero;fill:rgb(0%,0%,0%);fill-opacity:1;" d="M 79.195312 24.042969 L 78.804688 24.042969 C 78.746094 24.335938 78.609375 25.332031 78.414062 25.625 C 78.296875 25.78125 77.28125 25.78125 76.734375 25.78125 L 73.414062 25.78125 C 73.902344 25.371094 74.996094 24.21875 75.464844 23.789062 C 78.199219 21.269531 79.195312 20.351562 79.195312 18.574219 C 79.195312 16.503906 77.554688 15.136719 75.484375 15.136719 C 73.394531 15.136719 72.183594 16.894531 72.183594 18.4375 C 72.183594 19.355469 72.964844 19.355469 73.023438 19.355469 C 73.394531 19.355469 73.863281 19.082031 73.863281 18.515625 C 73.863281 18.007812 73.53125 17.675781 73.023438 17.675781 C 72.867188 17.675781 72.828125 17.675781 72.769531 17.695312 C 73.121094 16.464844 74.078125 15.644531 75.25 15.644531 C 76.773438 15.644531 77.710938 16.914062 77.710938 18.574219 C 77.710938 20.097656 76.832031 21.425781 75.796875 22.578125 L 72.183594 26.621094 L 72.183594 27.050781 L 78.726562 27.050781 Z M 79.195312 24.042969 "/>
<path style=" stroke:none;fill-rule:nonzero;fill:rgb(0%,0%,0%);fill-opacity:1;" d="M 87.492188 22.578125 C 87.492188 22.050781 87.0625 21.621094 86.554688 21.621094 C 86.027344 21.621094 85.597656 22.050781 85.597656 22.578125 C 85.597656 23.085938 86.027344 23.515625 86.554688 23.515625 C 87.0625 23.515625 87.492188 23.085938 87.492188 22.578125 Z M 87.492188 22.578125 "/>
<path style=" stroke:none;fill-rule:nonzero;fill:rgb(0%,0%,0%);fill-opacity:1;" d="M 100.433594 7.324219 C 100.433594 6.992188 100.433594 6.914062 100.257812 6.914062 C 100.121094 6.914062 99.769531 7.304688 99.652344 7.460938 C 99.085938 7.011719 98.539062 6.914062 97.953125 6.914062 C 95.785156 6.914062 95.140625 8.085938 95.140625 9.082031 C 95.140625 9.277344 95.140625 9.902344 95.824219 10.527344 C 96.410156 11.035156 97.015625 11.152344 97.835938 11.308594 C 98.8125 11.503906 99.046875 11.5625 99.496094 11.933594 C 99.828125 12.1875 100.0625 12.597656 100.0625 13.085938 C 100.0625 13.867188 99.613281 14.726562 98.03125 14.726562 C 96.859375 14.726562 95.980469 14.042969 95.589844 12.246094 C 95.53125 11.933594 95.53125 11.914062 95.511719 11.894531 C 95.472656 11.816406 95.394531 11.816406 95.335938 11.816406 C 95.140625 11.816406 95.140625 11.914062 95.140625 12.226562 L 95.140625 14.667969 C 95.140625 15 95.140625 15.078125 95.316406 15.078125 C 95.414062 15.078125 95.433594 15.058594 95.746094 14.6875 C 95.824219 14.570312 95.824219 14.53125 96.097656 14.238281 C 96.78125 15.078125 97.738281 15.078125 98.050781 15.078125 C 99.925781 15.078125 100.863281 14.042969 100.863281 12.617188 C 100.863281 11.660156 100.277344 11.074219 100.121094 10.917969 C 99.476562 10.371094 98.988281 10.253906 97.796875 10.039062 C 97.269531 9.941406 95.960938 9.6875 95.960938 8.613281 C 95.960938 8.046875 96.332031 7.226562 97.953125 7.226562 C 99.90625 7.226562 100.003906 8.886719 100.042969 9.453125 C 100.0625 9.589844 100.179688 9.589844 100.238281 9.589844 C 100.433594 9.589844 100.433594 9.511719 100.433594 9.179688 Z M 100.433594 7.324219 "/>
<path style=" stroke:none;fill-rule:nonzero;fill:rgb(0%,0%,0%);fill-opacity:1;" d="M 108.328125 10.742188 C 108.71875 10.742188 108.757812 10.742188 108.757812 10.410156 C 108.757812 8.59375 107.78125 6.914062 105.613281 6.914062 C 103.5625 6.914062 102 8.75 102 10.976562 C 102 13.339844 103.816406 15.078125 105.808594 15.078125 C 107.9375 15.078125 108.757812 13.144531 108.757812 12.773438 C 108.757812 12.65625 108.660156 12.597656 108.5625 12.597656 C 108.40625 12.597656 108.367188 12.675781 108.347656 12.773438 C 107.878906 14.277344 106.667969 14.6875 105.925781 14.6875 C 105.164062 14.6875 103.347656 14.179688 103.347656 11.074219 L 103.347656 10.742188 Z M 103.367188 10.410156 C 103.523438 7.578125 105.085938 7.265625 105.59375 7.265625 C 107.507812 7.265625 107.625 9.785156 107.644531 10.410156 Z M 103.367188 10.410156 "/>
<path style=" stroke:none;fill-rule:nonzero;fill:rgb(0%,0%,0%);fill-opacity:1;" d="M 115.738281 8.261719 C 115.523438 8.261719 114.859375 8.261719 114.859375 9.003906 C 114.859375 9.433594 115.171875 9.746094 115.601562 9.746094 C 116.011719 9.746094 116.363281 9.492188 116.363281 8.964844 C 116.363281 7.773438 115.09375 6.914062 113.648438 6.914062 C 111.558594 6.914062 109.878906 8.769531 109.878906 11.035156 C 109.878906 13.320312 111.597656 15.078125 113.628906 15.078125 C 115.992188 15.078125 116.539062 12.929688 116.539062 12.773438 C 116.539062 12.597656 116.402344 12.597656 116.363281 12.597656 C 116.1875 12.597656 116.167969 12.65625 116.128906 12.871094 C 115.71875 14.140625 114.761719 14.6875 113.785156 14.6875 C 112.691406 14.6875 111.246094 13.730469 111.246094 11.015625 C 111.246094 8.027344 112.769531 7.304688 113.667969 7.304688 C 114.351562 7.304688 115.328125 7.578125 115.738281 8.261719 Z M 115.738281 8.261719 "/>
<path style=" stroke:none;fill-rule:nonzero;fill:rgb(0%,0%,0%);fill-opacity:1;" d="M 118.636719 7.34375 L 119.964844 6.054688 C 121.898438 4.335938 122.640625 3.671875 122.640625 2.421875 C 122.640625 0.996094 121.527344 0 120.003906 0 C 118.597656 0 117.679688 1.152344 117.679688 2.265625 C 117.679688 2.949219 118.304688 2.949219 118.34375 2.949219 C 118.558594 2.949219 118.988281 2.8125 118.988281 2.285156 C 118.988281 1.972656 118.753906 1.640625 118.324219 1.640625 C 118.226562 1.640625 118.207031 1.640625 118.167969 1.660156 C 118.441406 0.839844 119.125 0.390625 119.847656 0.390625 C 120.980469 0.390625 121.507812 1.40625 121.507812 2.421875 C 121.507812 3.417969 120.902344 4.394531 120.199219 5.175781 L 117.816406 7.832031 C 117.679688 7.96875 117.679688 8.007812 117.679688 8.300781 L 122.308594 8.300781 L 122.640625 6.132812 L 122.347656 6.132812 C 122.269531 6.503906 122.191406 7.050781 122.054688 7.246094 C 121.976562 7.34375 121.15625 7.34375 120.882812 7.34375 Z M 118.636719 7.34375 "/>
<path style=" stroke:none;fill-rule:nonzero;fill:rgb(0%,0%,0%);fill-opacity:1;" d="M 134.84375 11.894531 L 134.453125 11.894531 C 134.394531 12.1875 134.257812 13.183594 134.0625 13.476562 C 133.945312 13.632812 132.929688 13.632812 132.382812 13.632812 L 129.0625 13.632812 C 129.550781 13.222656 130.644531 12.070312 131.113281 11.640625 C 133.847656 9.121094 134.84375 8.203125 134.84375 6.425781 C 134.84375 4.355469 133.203125 2.988281 131.132812 2.988281 C 129.042969 2.988281 127.832031 4.746094 127.832031 6.289062 C 127.832031 7.207031 128.613281 7.207031 128.671875 7.207031 C 129.042969 7.207031 129.511719 6.933594 129.511719 6.367188 C 129.511719 5.859375 129.179688 5.527344 128.671875 5.527344 C 128.515625 5.527344 128.476562 5.527344 128.417969 5.546875 C 128.769531 4.316406 129.726562 3.496094 130.898438 3.496094 C 132.421875 3.496094 133.359375 4.765625 133.359375 6.425781 C 133.359375 7.949219 132.480469 9.277344 131.445312 10.429688 L 127.832031 14.472656 L 127.832031 14.902344 L 134.375 14.902344 Z M 134.84375 11.894531 "/>
<path style=" stroke:none;fill-rule:nonzero;fill:rgb(0%,0%,0%);fill-opacity:1;" d="M 143.519531 2.617188 C 143.519531 2.460938 143.382812 2.460938 143.34375 2.460938 C 143.167969 2.460938 143.148438 2.5 143.089844 2.792969 L 142.113281 6.660156 C 142.054688 6.894531 142.035156 6.914062 142.035156 6.914062 C 142.015625 6.953125 141.878906 6.972656 141.839844 6.972656 C 138.910156 7.226562 136.644531 9.648438 136.644531 11.894531 C 136.644531 13.828125 138.128906 15.019531 140.003906 15.117188 C 139.847656 15.664062 139.730469 16.25 139.59375 16.796875 C 139.339844 17.753906 139.203125 18.339844 139.203125 18.417969 C 139.203125 18.457031 139.203125 18.554688 139.378906 18.554688 C 139.417969 18.554688 139.496094 18.554688 139.535156 18.496094 C 139.574219 18.457031 139.671875 18.027344 139.75 17.792969 L 140.414062 15.117188 C 143.480469 14.960938 145.804688 12.441406 145.804688 10.195312 C 145.804688 8.378906 144.4375 7.089844 142.464844 6.953125 Z M 142.347656 7.324219 C 143.539062 7.382812 144.710938 8.046875 144.710938 9.804688 C 144.710938 11.835938 143.304688 14.53125 140.511719 14.746094 Z M 140.082031 14.765625 C 139.203125 14.707031 137.738281 14.238281 137.738281 12.265625 C 137.738281 10 139.378906 7.5 141.957031 7.34375 Z M 140.082031 14.765625 "/>
<path style=" stroke:none;fill-rule:nonzero;fill:rgb(0%,0%,0%);fill-opacity:1;" d="M 94.535156 22.113281 L 146.136719 22.113281 L 146.136719 22.867188 L 94.535156 22.867188 Z M 94.535156 22.113281 "/>
<path style=" stroke:none;fill-rule:nonzero;fill:rgb(0%,0%,0%);fill-opacity:1;" d="M 104.78125 31.773438 C 104.78125 31.441406 104.78125 31.363281 104.605469 31.363281 C 104.46875 31.363281 104.117188 31.753906 104 31.910156 C 103.433594 31.460938 102.886719 31.363281 102.300781 31.363281 C 100.132812 31.363281 99.488281 32.535156 99.488281 33.53125 C 99.488281 33.726562 99.488281 34.351562 100.171875 34.976562 C 100.757812 35.484375 101.363281 35.601562 102.183594 35.757812 C 103.160156 35.953125 103.394531 36.011719 103.84375 36.382812 C 104.175781 36.636719 104.410156 37.046875 104.410156 37.535156 C 104.410156 38.316406 103.960938 39.175781 102.378906 39.175781 C 101.207031 39.175781 100.328125 38.492188 99.9375 36.695312 C 99.878906 36.382812 99.878906 36.363281 99.859375 36.34375 C 99.820312 36.265625 99.742188 36.265625 99.683594 36.265625 C 99.488281 36.265625 99.488281 36.363281 99.488281 36.675781 L 99.488281 39.117188 C 99.488281 39.449219 99.488281 39.527344 99.664062 39.527344 C 99.761719 39.527344 99.78125 39.507812 100.09375 39.136719 C 100.171875 39.019531 100.171875 38.980469 100.445312 38.6875 C 101.128906 39.527344 102.085938 39.527344 102.398438 39.527344 C 104.273438 39.527344 105.210938 38.492188 105.210938 37.066406 C 105.210938 36.109375 104.625 35.523438 104.46875 35.367188 C 103.824219 34.820312 103.335938 34.703125 102.144531 34.488281 C 101.617188 34.390625 100.308594 34.136719 100.308594 33.0625 C 100.308594 32.496094 100.679688 31.675781 102.300781 31.675781 C 104.253906 31.675781 104.351562 33.335938 104.390625 33.902344 C 104.410156 34.039062 104.527344 34.039062 104.585938 34.039062 C 104.78125 34.039062 104.78125 33.960938 104.78125 33.628906 Z M 104.78125 31.773438 "/>
<path style=" stroke:none;fill-rule:nonzero;fill:rgb(0%,0%,0%);fill-opacity:1;" d="M 112.679688 35.191406 C 113.070312 35.191406 113.109375 35.191406 113.109375 34.859375 C 113.109375 33.042969 112.132812 31.363281 109.964844 31.363281 C 107.914062 31.363281 106.351562 33.199219 106.351562 35.425781 C 106.351562 37.789062 108.167969 39.527344 110.160156 39.527344 C 112.289062 39.527344 113.109375 37.59375 113.109375 37.222656 C 113.109375 37.105469 113.011719 37.046875 112.914062 37.046875 C 112.757812 37.046875 112.71875 37.125 112.699219 37.222656 C 112.230469 38.726562 111.019531 39.136719 110.277344 39.136719 C 109.515625 39.136719 107.699219 38.628906 107.699219 35.523438 L 107.699219 35.191406 Z M 107.71875 34.859375 C 107.875 32.027344 109.4375 31.714844 109.945312 31.714844 C 111.859375 31.714844 111.976562 34.234375 111.996094 34.859375 Z M 107.71875 34.859375 "/>
<path style=" stroke:none;fill-rule:nonzero;fill:rgb(0%,0%,0%);fill-opacity:1;" d="M 120.085938 32.710938 C 119.871094 32.710938 119.207031 32.710938 119.207031 33.453125 C 119.207031 33.882812 119.519531 34.195312 119.949219 34.195312 C 120.359375 34.195312 120.710938 33.941406 120.710938 33.414062 C 120.710938 32.222656 119.441406 31.363281 117.996094 31.363281 C 115.90625 31.363281 114.226562 33.21875 114.226562 35.484375 C 114.226562 37.769531 115.945312 39.527344 117.976562 39.527344 C 120.339844 39.527344 120.886719 37.378906 120.886719 37.222656 C 120.886719 37.046875 120.75 37.046875 120.710938 37.046875 C 120.535156 37.046875 120.515625 37.105469 120.476562 37.320312 C 120.066406 38.589844 119.109375 39.136719 118.132812 39.136719 C 117.039062 39.136719 115.59375 38.179688 115.59375 35.464844 C 115.59375 32.476562 117.117188 31.753906 118.015625 31.753906 C 118.699219 31.753906 119.675781 32.027344 120.085938 32.710938 Z M 120.085938 32.710938 "/>
<path style=" stroke:none;fill-rule:nonzero;fill:rgb(0%,0%,0%);fill-opacity:1;" d="M 123.136719 33.144531 L 124.464844 31.855469 C 126.398438 30.136719 127.140625 29.472656 127.140625 28.222656 C 127.140625 26.796875 126.027344 25.800781 124.503906 25.800781 C 123.097656 25.800781 122.179688 26.953125 122.179688 28.066406 C 122.179688 28.75 122.804688 28.75 122.84375 28.75 C 123.058594 28.75 123.488281 28.613281 123.488281 28.085938 C 123.488281 27.773438 123.253906 27.441406 122.824219 27.441406 C 122.726562 27.441406 122.707031 27.441406 122.667969 27.460938 C 122.941406 26.640625 123.625 26.191406 124.347656 26.191406 C 125.480469 26.191406 126.007812 27.207031 126.007812 28.222656 C 126.007812 29.21875 125.402344 30.195312 124.699219 30.976562 L 122.316406 33.632812 C 122.179688 33.769531 122.179688 33.808594 122.179688 34.101562 L 126.808594 34.101562 L 127.140625 31.933594 L 126.847656 31.933594 C 126.769531 32.304688 126.691406 32.851562 126.554688 33.046875 C 126.476562 33.144531 125.65625 33.144531 125.382812 33.144531 Z M 123.136719 33.144531 "/>
<path style=" stroke:none;fill-rule:nonzero;fill:rgb(0%,0%,0%);fill-opacity:1;" d="M 139.019531 27.066406 C 139.019531 26.910156 138.882812 26.910156 138.84375 26.910156 C 138.667969 26.910156 138.648438 26.949219 138.589844 27.242188 L 137.613281 31.109375 C 137.554688 31.34375 137.535156 31.363281 137.535156 31.363281 C 137.515625 31.402344 137.378906 31.421875 137.339844 31.421875 C 134.410156 31.675781 132.144531 34.097656 132.144531 36.34375 C 132.144531 38.277344 133.628906 39.46875 135.503906 39.566406 C 135.347656 40.113281 135.230469 40.699219 135.09375 41.246094 C 134.839844 42.203125 134.703125 42.789062 134.703125 42.867188 C 134.703125 42.90625 134.703125 43.003906 134.878906 43.003906 C 134.917969 43.003906 134.996094 43.003906 135.035156 42.945312 C 135.074219 42.90625 135.171875 42.476562 135.25 42.242188 L 135.914062 39.566406 C 138.980469 39.410156 141.304688 36.890625 141.304688 34.644531 C 141.304688 32.828125 139.9375 31.539062 137.964844 31.402344 Z M 137.847656 31.773438 C 139.039062 31.832031 140.210938 32.496094 140.210938 34.253906 C 140.210938 36.285156 138.804688 38.980469 136.011719 39.195312 Z M 135.582031 39.214844 C 134.703125 39.15625 133.238281 38.6875 133.238281 36.714844 C 133.238281 34.449219 134.878906 31.949219 137.457031 31.792969 Z M 135.582031 39.214844 "/>
<path style=" stroke:none;fill-rule:nonzero;fill:rgb(0%,0%,0%);fill-opacity:1;" d="M 6.367188 72.1875 C 6.367188 71.660156 5.9375 71.230469 5.429688 71.230469 C 4.902344 71.230469 4.472656 71.660156 4.472656 72.1875 C 4.472656 72.695312 4.902344 73.125 5.429688 73.125 C 5.917969 73.125 6.367188 72.714844 6.367188 72.1875 Z M 10.859375 79.941406 C 10.859375 79.433594 10.429688 79.003906 9.902344 79.003906 C 9.394531 79.003906 8.964844 79.433594 8.964844 79.941406 C 8.964844 80.46875 9.394531 80.898438 9.902344 80.898438 C 10.429688 80.898438 10.859375 80.46875 10.859375 79.941406 Z M 1.894531 79.941406 C 1.894531 79.433594 1.464844 79.003906 0.9375 79.003906 C 0.429688 79.003906 0 79.433594 0 79.941406 C 0 80.46875 0.429688 80.898438 0.9375 80.898438 C 1.464844 80.898438 1.894531 80.46875 1.894531 79.941406 Z M 1.894531 79.941406 "/>
<path style=" stroke:none;fill-rule:nonzero;fill:rgb(0%,0%,0%);fill-opacity:1;" d="M 31.875 55.410156 C 31.894531 55.332031 31.933594 55.234375 31.933594 55.136719 C 31.933594 54.960938 31.738281 54.960938 31.699219 54.960938 C 31.699219 54.960938 30.820312 55.039062 30.722656 55.039062 C 30.410156 55.058594 30.15625 55.097656 29.824219 55.117188 C 29.375 55.15625 29.257812 55.175781 29.257812 55.488281 C 29.257812 55.683594 29.394531 55.683594 29.648438 55.683594 C 30.527344 55.683594 30.546875 55.839844 30.546875 56.015625 C 30.546875 56.132812 30.507812 56.269531 30.488281 56.328125 L 29.394531 60.683594 C 29.199219 60.214844 28.710938 59.492188 27.773438 59.492188 C 25.761719 59.492188 23.574219 62.109375 23.574219 64.765625 C 23.574219 66.542969 24.609375 67.578125 25.820312 67.578125 C 26.816406 67.578125 27.65625 66.816406 28.164062 66.210938 C 28.339844 67.285156 29.179688 67.578125 29.726562 67.578125 C 30.253906 67.578125 30.683594 67.265625 31.015625 66.621094 C 31.289062 65.996094 31.542969 64.902344 31.542969 64.84375 C 31.542969 64.746094 31.484375 64.667969 31.367188 64.667969 C 31.210938 64.667969 31.191406 64.765625 31.113281 65.039062 C 30.839844 66.09375 30.507812 67.226562 29.765625 67.226562 C 29.257812 67.226562 29.21875 66.757812 29.21875 66.40625 C 29.21875 66.328125 29.21875 65.957031 29.335938 65.449219 Z M 28.242188 65.273438 C 28.164062 65.566406 28.164062 65.605469 27.910156 65.957031 C 27.519531 66.445312 26.71875 67.226562 25.878906 67.226562 C 25.15625 67.226562 24.726562 66.5625 24.726562 65.507812 C 24.726562 64.511719 25.292969 62.5 25.625 61.757812 C 26.25 60.507812 27.089844 59.863281 27.773438 59.863281 C 28.964844 59.863281 29.199219 61.328125 29.199219 61.464844 C 29.199219 61.484375 29.140625 61.71875 29.121094 61.757812 Z M 28.242188 65.273438 "/>
<path style=" stroke:none;fill-rule:nonzero;fill:rgb(0%,0%,0%);fill-opacity:1;" d="M 17.886719 74.613281 L 37.085938 74.613281 L 37.085938 75.367188 L 17.886719 75.367188 Z M 17.886719 74.613281 "/>
<path style=" stroke:none;fill-rule:nonzero;fill:rgb(0%,0%,0%);fill-opacity:1;" d="M 26.925781 79.859375 C 26.945312 79.78125 26.984375 79.683594 26.984375 79.585938 C 26.984375 79.410156 26.789062 79.410156 26.75 79.410156 C 26.75 79.410156 25.871094 79.488281 25.773438 79.488281 C 25.460938 79.507812 25.207031 79.546875 24.875 79.566406 C 24.425781 79.605469 24.308594 79.625 24.308594 79.9375 C 24.308594 80.132812 24.445312 80.132812 24.699219 80.132812 C 25.578125 80.132812 25.597656 80.289062 25.597656 80.464844 C 25.597656 80.582031 25.558594 80.71875 25.539062 80.777344 L 24.445312 85.132812 C 24.25 84.664062 23.761719 83.941406 22.824219 83.941406 C 20.8125 83.941406 18.625 86.558594 18.625 89.214844 C 18.625 90.992188 19.660156 92.027344 20.871094 92.027344 C 21.867188 92.027344 22.707031 91.265625 23.214844 90.660156 C 23.390625 91.734375 24.230469 92.027344 24.777344 92.027344 C 25.304688 92.027344 25.734375 91.714844 26.066406 91.070312 C 26.339844 90.445312 26.59375 89.351562 26.59375 89.292969 C 26.59375 89.195312 26.535156 89.117188 26.417969 89.117188 C 26.261719 89.117188 26.242188 89.214844 26.164062 89.488281 C 25.890625 90.542969 25.558594 91.675781 24.816406 91.675781 C 24.308594 91.675781 24.269531 91.207031 24.269531 90.855469 C 24.269531 90.777344 24.269531 90.40625 24.386719 89.898438 Z M 23.292969 89.722656 C 23.214844 90.015625 23.214844 90.054688 22.960938 90.40625 C 22.570312 90.894531 21.769531 91.675781 20.929688 91.675781 C 20.207031 91.675781 19.777344 91.011719 19.777344 89.957031 C 19.777344 88.960938 20.34375 86.949219 20.675781 86.207031 C 21.300781 84.957031 22.140625 84.3125 22.824219 84.3125 C 24.015625 84.3125 24.25 85.777344 24.25 85.914062 C 24.25 85.933594 24.191406 86.167969 24.171875 86.207031 Z M 23.292969 89.722656 "/>
<path style=" stroke:none;fill-rule:nonzero;fill:rgb(0%,0%,0%);fill-opacity:1;" d="M 35.550781 84.527344 C 34.984375 84.644531 34.769531 85.074219 34.769531 85.40625 C 34.769531 85.835938 35.101562 85.992188 35.355469 85.992188 C 35.902344 85.992188 36.273438 85.523438 36.273438 85.035156 C 36.273438 84.292969 35.414062 83.941406 34.652344 83.941406 C 33.558594 83.941406 32.953125 85.015625 32.796875 85.367188 C 32.386719 84.019531 31.273438 83.941406 30.941406 83.941406 C 29.125 83.941406 28.148438 86.285156 28.148438 86.695312 C 28.148438 86.753906 28.226562 86.851562 28.34375 86.851562 C 28.480469 86.851562 28.519531 86.734375 28.558594 86.675781 C 29.164062 84.683594 30.375 84.3125 30.882812 84.3125 C 31.703125 84.3125 31.859375 85.054688 31.859375 85.484375 C 31.859375 85.875 31.761719 86.285156 31.527344 87.144531 L 30.921875 89.605469 C 30.667969 90.679688 30.140625 91.675781 29.183594 91.675781 C 29.105469 91.675781 28.65625 91.675781 28.265625 91.441406 C 28.910156 91.304688 29.066406 90.777344 29.066406 90.5625 C 29.066406 90.210938 28.792969 89.996094 28.460938 89.996094 C 28.03125 89.996094 27.5625 90.367188 27.5625 90.933594 C 27.5625 91.695312 28.402344 92.027344 29.164062 92.027344 C 30.023438 92.027344 30.648438 91.34375 31.019531 90.621094 C 31.3125 91.675781 32.191406 92.027344 32.855469 92.027344 C 34.691406 92.027344 35.667969 89.683594 35.667969 89.292969 C 35.667969 89.195312 35.589844 89.117188 35.472656 89.117188 C 35.316406 89.117188 35.296875 89.214844 35.257812 89.351562 C 34.769531 90.933594 33.714844 91.675781 32.914062 91.675781 C 32.289062 91.675781 31.957031 91.207031 31.957031 90.464844 C 31.957031 90.074219 32.015625 89.78125 32.308594 88.609375 L 32.933594 86.167969 C 33.207031 85.09375 33.8125 84.3125 34.632812 84.3125 C 34.671875 84.3125 35.179688 84.3125 35.550781 84.527344 Z M 35.550781 84.527344 "/>
<path style=" stroke:none;fill-rule:nonzero;fill:rgb(0%,0%,0%);fill-opacity:1;" d="M 43.160156 81.5625 C 42.691406 82.246094 41.988281 82.851562 41.109375 82.851562 C 40.894531 82.851562 40.035156 82.8125 39.761719 81.992188 C 39.820312 82.011719 39.898438 82.011719 39.9375 82.011719 C 40.484375 82.011719 40.835938 81.542969 40.835938 81.132812 C 40.835938 80.722656 40.503906 80.566406 40.230469 80.566406 C 39.9375 80.566406 39.3125 80.78125 39.3125 81.660156 C 39.3125 82.578125 40.09375 83.203125 41.109375 83.203125 C 42.90625 83.203125 44.703125 81.5625 45.210938 79.570312 L 46.96875 72.578125 C 46.988281 72.480469 47.027344 72.382812 47.027344 72.265625 C 47.027344 72.011719 46.8125 71.816406 46.539062 71.816406 C 46.382812 71.816406 45.992188 71.894531 45.855469 72.441406 L 44.527344 77.695312 C 44.449219 78.027344 44.449219 78.066406 44.292969 78.261719 C 43.941406 78.769531 43.355469 79.375 42.496094 79.375 C 41.480469 79.375 41.402344 78.378906 41.402344 77.910156 C 41.402344 76.875 41.871094 75.507812 42.359375 74.199219 C 42.554688 73.691406 42.671875 73.4375 42.671875 73.085938 C 42.671875 72.324219 42.125 71.640625 41.246094 71.640625 C 39.605469 71.640625 38.941406 74.238281 38.941406 74.394531 C 38.941406 74.453125 39 74.550781 39.136719 74.550781 C 39.292969 74.550781 39.3125 74.472656 39.390625 74.21875 C 39.820312 72.714844 40.503906 72.011719 41.1875 72.011719 C 41.363281 72.011719 41.65625 72.011719 41.65625 72.597656 C 41.65625 73.066406 41.460938 73.574219 41.1875 74.257812 C 40.308594 76.601562 40.308594 77.207031 40.308594 77.636719 C 40.308594 79.335938 41.539062 79.726562 42.4375 79.726562 C 42.945312 79.726562 43.589844 79.570312 44.234375 78.90625 L 44.253906 78.925781 C 43.980469 79.980469 43.804688 80.683594 43.160156 81.5625 Z M 43.160156 81.5625 "/>
<path style=" stroke:none;fill-rule:nonzero;fill:rgb(0%,0%,0%);fill-opacity:1;" d="M 64.8125 73.75 C 65.066406 73.75 65.378906 73.75 65.378906 73.417969 C 65.378906 73.085938 65.066406 73.085938 64.8125 73.085938 L 54.246094 73.085938 C 53.992188 73.085938 53.679688 73.085938 53.679688 73.398438 C 53.679688 73.75 53.972656 73.75 54.246094 73.75 Z M 64.8125 77.070312 C 65.066406 77.070312 65.378906 77.070312 65.378906 76.757812 C 65.378906 76.40625 65.066406 76.40625 64.8125 76.40625 L 54.246094 76.40625 C 53.992188 76.40625 53.679688 76.40625 53.679688 76.738281 C 53.679688 77.070312 53.972656 77.070312 54.246094 77.070312 Z M 64.8125 77.070312 "/>
<path style=" stroke:none;fill-rule:nonzero;fill:rgb(0%,0%,0%);fill-opacity:1;" d="M 79.195312 76.542969 L 78.804688 76.542969 C 78.746094 76.835938 78.609375 77.832031 78.414062 78.125 C 78.296875 78.28125 77.28125 78.28125 76.734375 78.28125 L 73.414062 78.28125 C 73.902344 77.871094 74.996094 76.71875 75.464844 76.289062 C 78.199219 73.769531 79.195312 72.851562 79.195312 71.074219 C 79.195312 69.003906 77.554688 67.636719 75.484375 67.636719 C 73.394531 67.636719 72.183594 69.394531 72.183594 70.9375 C 72.183594 71.855469 72.964844 71.855469 73.023438 71.855469 C 73.394531 71.855469 73.863281 71.582031 73.863281 71.015625 C 73.863281 70.507812 73.53125 70.175781 73.023438 70.175781 C 72.867188 70.175781 72.828125 70.175781 72.769531 70.195312 C 73.121094 68.964844 74.078125 68.144531 75.25 68.144531 C 76.773438 68.144531 77.710938 69.414062 77.710938 71.074219 C 77.710938 72.597656 76.832031 73.925781 75.796875 75.078125 L 72.183594 79.121094 L 72.183594 79.550781 L 78.726562 79.550781 Z M 79.195312 76.542969 "/>
<path style=" stroke:none;fill-rule:nonzero;fill:rgb(0%,0%,0%);fill-opacity:1;" d="M 88.074219 101.847656 L 93.386719 101.847656 L 93.386719 100.734375 L 89.1875 100.734375 L 89.1875 49.191406 L 93.386719 49.191406 L 93.386719 48.078125 L 88.074219 48.078125 Z M 88.074219 101.847656 "/>
<path style=" stroke:none;fill-rule:nonzero;fill:rgb(0%,0%,0%);fill-opacity:1;" d="M 102.40625 72.257812 C 102.40625 72.179688 102.367188 72.140625 102.328125 72.101562 C 101.507812 71.222656 100.296875 69.757812 99.535156 66.847656 C 99.125 65.207031 98.96875 63.351562 98.96875 61.691406 C 98.96875 56.984375 100.101562 53.683594 102.25 51.339844 C 102.40625 51.183594 102.40625 51.144531 102.40625 51.105469 C 102.40625 50.929688 102.269531 50.929688 102.191406 50.929688 C 101.917969 50.929688 100.960938 52.003906 100.726562 52.277344 C 98.890625 54.445312 97.738281 57.667969 97.738281 61.671875 C 97.738281 64.230469 98.167969 67.824219 100.53125 70.851562 C 100.707031 71.066406 101.878906 72.433594 102.191406 72.433594 C 102.269531 72.433594 102.40625 72.433594 102.40625 72.257812 Z M 102.40625 72.257812 "/>
<path style=" stroke:none;fill-rule:nonzero;fill:rgb(0%,0%,0%);fill-opacity:1;" d="M 108.410156 54.714844 C 108.410156 54.285156 108.410156 54.285156 108.058594 54.285156 C 107.628906 54.753906 106.730469 55.417969 104.894531 55.417969 L 104.894531 55.945312 C 105.304688 55.945312 106.203125 55.945312 107.179688 55.476562 L 107.179688 64.8125 C 107.179688 65.457031 107.121094 65.671875 105.558594 65.671875 L 104.992188 65.671875 L 104.992188 66.199219 C 105.480469 66.160156 107.21875 66.160156 107.804688 66.160156 C 108.390625 66.160156 110.128906 66.160156 110.597656 66.199219 L 110.597656 65.671875 L 110.050781 65.671875 C 108.46875 65.671875 108.410156 65.457031 108.410156 64.8125 Z M 108.410156 54.714844 "/>
<path style=" stroke:none;fill-rule:nonzero;fill:rgb(0%,0%,0%);fill-opacity:1;" d="M 127.820312 62.078125 C 128.132812 62.078125 128.445312 62.078125 128.445312 61.726562 C 128.445312 61.355469 128.132812 61.355469 127.820312 61.355469 L 118.113281 61.355469 C 117.820312 61.355469 117.488281 61.355469 117.488281 61.726562 C 117.488281 62.078125 117.820312 62.078125 118.113281 62.078125 Z M 127.820312 62.078125 "/>
<path style=" stroke:none;fill-rule:nonzero;fill:rgb(0%,0%,0%);fill-opacity:1;" d="M 142.5 58.875 C 141.933594 58.992188 141.71875 59.421875 141.71875 59.753906 C 141.71875 60.183594 142.050781 60.339844 142.304688 60.339844 C 142.851562 60.339844 143.222656 59.871094 143.222656 59.382812 C 143.222656 58.640625 142.363281 58.289062 141.601562 58.289062 C 140.507812 58.289062 139.902344 59.363281 139.746094 59.714844 C 139.335938 58.367188 138.222656 58.289062 137.890625 58.289062 C 136.074219 58.289062 135.097656 60.632812 135.097656 61.042969 C 135.097656 61.101562 135.175781 61.199219 135.292969 61.199219 C 135.429688 61.199219 135.46875 61.082031 135.507812 61.023438 C 136.113281 59.03125 137.324219 58.660156 137.832031 58.660156 C 138.652344 58.660156 138.808594 59.402344 138.808594 59.832031 C 138.808594 60.222656 138.710938 60.632812 138.476562 61.492188 L 137.871094 63.953125 C 137.617188 65.027344 137.089844 66.023438 136.132812 66.023438 C 136.054688 66.023438 135.605469 66.023438 135.214844 65.789062 C 135.859375 65.652344 136.015625 65.125 136.015625 64.910156 C 136.015625 64.558594 135.742188 64.34375 135.410156 64.34375 C 134.980469 64.34375 134.511719 64.714844 134.511719 65.28125 C 134.511719 66.042969 135.351562 66.375 136.113281 66.375 C 136.972656 66.375 137.597656 65.691406 137.96875 64.96875 C 138.261719 66.023438 139.140625 66.375 139.804688 66.375 C 141.640625 66.375 142.617188 64.03125 142.617188 63.640625 C 142.617188 63.542969 142.539062 63.464844 142.421875 63.464844 C 142.265625 63.464844 142.246094 63.5625 142.207031 63.699219 C 141.71875 65.28125 140.664062 66.023438 139.863281 66.023438 C 139.238281 66.023438 138.90625 65.554688 138.90625 64.8125 C 138.90625 64.421875 138.964844 64.128906 139.257812 62.957031 L 139.882812 60.515625 C 140.15625 59.441406 140.761719 58.660156 141.582031 58.660156 C 141.621094 58.660156 142.128906 58.660156 142.5 58.875 Z M 142.5 58.875 "/>
<path style=" stroke:none;fill-rule:nonzero;fill:rgb(0%,0%,0%);fill-opacity:1;" d="M 145.636719 58.792969 L 146.964844 57.503906 C 148.898438 55.785156 149.640625 55.121094 149.640625 53.871094 C 149.640625 52.445312 148.527344 51.449219 147.003906 51.449219 C 145.597656 51.449219 144.679688 52.601562 144.679688 53.714844 C 144.679688 54.398438 145.304688 54.398438 145.34375 54.398438 C 145.558594 54.398438 145.988281 54.261719 145.988281 53.734375 C 145.988281 53.421875 145.753906 53.089844 145.324219 53.089844 C 145.226562 53.089844 145.207031 53.089844 145.167969 53.109375 C 145.441406 52.289062 146.125 51.839844 146.847656 51.839844 C 147.980469 51.839844 148.507812 52.855469 148.507812 53.871094 C 148.507812 54.867188 147.902344 55.84375 147.199219 56.625 L 144.816406 59.28125 C 144.679688 59.417969 144.679688 59.457031 144.679688 59.75 L 149.308594 59.75 L 149.640625 57.582031 L 149.347656 57.582031 C 149.269531 57.953125 149.191406 58.5 149.054688 58.695312 C 148.976562 58.792969 148.15625 58.792969 147.882812 58.792969 Z M 145.636719 58.792969 "/>
<path style=" stroke:none;fill-rule:nonzero;fill:rgb(0%,0%,0%);fill-opacity:1;" d="M 156.273438 61.691406 C 156.273438 59.152344 155.824219 55.539062 153.480469 52.511719 C 153.304688 52.296875 152.132812 50.929688 151.800781 50.929688 C 151.722656 50.929688 151.585938 50.96875 151.585938 51.105469 C 151.585938 51.183594 151.625 51.242188 151.703125 51.300781 C 152.5625 52.21875 153.734375 53.683594 154.457031 56.535156 C 154.867188 58.15625 155.042969 60.011719 155.042969 61.671875 C 155.042969 63.488281 154.867188 65.324219 154.417969 67.0625 C 153.734375 69.582031 152.660156 71.007812 151.761719 72.023438 C 151.585938 72.179688 151.585938 72.21875 151.585938 72.257812 C 151.585938 72.394531 151.722656 72.433594 151.800781 72.433594 C 152.074219 72.433594 153.070312 71.339844 153.285156 71.085938 C 155.101562 68.917969 156.273438 65.695312 156.273438 61.691406 Z M 156.273438 61.691406 "/>
<path style=" stroke:none;fill-rule:nonzero;fill:rgb(0%,0%,0%);fill-opacity:1;" d="M 160.636719 54.894531 L 161.964844 53.605469 C 163.898438 51.886719 164.640625 51.222656 164.640625 49.972656 C 164.640625 48.546875 163.527344 47.550781 162.003906 47.550781 C 160.597656 47.550781 159.679688 48.703125 159.679688 49.816406 C 159.679688 50.5 160.304688 50.5 160.34375 50.5 C 160.558594 50.5 160.988281 50.363281 160.988281 49.835938 C 160.988281 49.523438 160.753906 49.191406 160.324219 49.191406 C 160.226562 49.191406 160.207031 49.191406 160.167969 49.210938 C 160.441406 48.390625 161.125 47.941406 161.847656 47.941406 C 162.980469 47.941406 163.507812 48.957031 163.507812 49.972656 C 163.507812 50.96875 162.902344 51.945312 162.199219 52.726562 L 159.816406 55.382812 C 159.679688 55.519531 159.679688 55.558594 159.679688 55.851562 L 164.308594 55.851562 L 164.640625 53.683594 L 164.347656 53.683594 C 164.269531 54.054688 164.191406 54.601562 164.054688 54.796875 C 163.976562 54.894531 163.15625 54.894531 162.882812 54.894531 Z M 160.636719 54.894531 "/>
<path style=" stroke:none;fill-rule:nonzero;fill:rgb(0%,0%,0%);fill-opacity:1;" d="M 94.984375 74.613281 L 165.9375 74.613281 L 165.9375 75.367188 L 94.984375 75.367188 Z M 94.984375 74.613281 "/>
<path style=" stroke:none;fill-rule:nonzero;fill:rgb(0%,0%,0%);fill-opacity:1;" d="M 105.773438 96.207031 C 105.773438 96.148438 105.773438 96.109375 105.480469 95.816406 C 103.683594 94 102.6875 91.050781 102.6875 87.378906 C 102.6875 83.902344 103.527344 80.914062 105.597656 78.804688 C 105.773438 78.628906 105.773438 78.609375 105.773438 78.550781 C 105.773438 78.433594 105.695312 78.414062 105.617188 78.414062 C 105.382812 78.414062 103.917969 79.703125 103.039062 81.460938 C 102.121094 83.257812 101.710938 85.191406 101.710938 87.378906 C 101.710938 88.980469 101.964844 91.109375 102.902344 93.042969 C 103.957031 95.191406 105.421875 96.34375 105.617188 96.34375 C 105.695312 96.34375 105.773438 96.324219 105.773438 96.207031 Z M 105.773438 96.207031 "/>
<path style=" stroke:none;fill-rule:nonzero;fill:rgb(0%,0%,0%);fill-opacity:1;" d="M 112.007812 80.367188 C 112.007812 79.9375 112.007812 79.9375 111.65625 79.9375 C 111.226562 80.40625 110.328125 81.070312 108.492188 81.070312 L 108.492188 81.597656 C 108.902344 81.597656 109.800781 81.597656 110.777344 81.128906 L 110.777344 90.464844 C 110.777344 91.109375 110.71875 91.324219 109.15625 91.324219 L 108.589844 91.324219 L 108.589844 91.851562 C 109.078125 91.8125 110.816406 91.8125 111.402344 91.8125 C 111.988281 91.8125 113.726562 91.8125 114.195312 91.851562 L 114.195312 91.324219 L 113.648438 91.324219 C 112.066406 91.324219 112.007812 91.109375 112.007812 90.464844 Z M 112.007812 80.367188 "/>
<path style=" stroke:none;fill-rule:nonzero;fill:rgb(0%,0%,0%);fill-opacity:1;" d="M 126.75 87.710938 L 131.710938 87.710938 C 131.964844 87.710938 132.277344 87.710938 132.277344 87.378906 C 132.277344 87.046875 131.964844 87.046875 131.710938 87.046875 L 126.75 87.046875 L 126.75 82.105469 C 126.75 81.851562 126.75 81.519531 126.4375 81.519531 C 126.085938 81.519531 126.085938 81.832031 126.085938 82.105469 L 126.085938 87.046875 L 121.144531 87.046875 C 120.890625 87.046875 120.578125 87.046875 120.578125 87.378906 C 120.578125 87.710938 120.871094 87.710938 121.144531 87.710938 L 126.085938 87.710938 L 126.085938 92.652344 C 126.085938 92.90625 126.085938 93.238281 126.417969 93.238281 C 126.75 93.238281 126.75 92.925781 126.75 92.652344 Z M 126.75 87.710938 "/>
<path style=" stroke:none;fill-rule:nonzero;fill:rgb(0%,0%,0%);fill-opacity:1;" d="M 145.800781 84.527344 C 145.234375 84.644531 145.019531 85.074219 145.019531 85.40625 C 145.019531 85.835938 145.351562 85.992188 145.605469 85.992188 C 146.152344 85.992188 146.523438 85.523438 146.523438 85.035156 C 146.523438 84.292969 145.664062 83.941406 144.902344 83.941406 C 143.808594 83.941406 143.203125 85.015625 143.046875 85.367188 C 142.636719 84.019531 141.523438 83.941406 141.191406 83.941406 C 139.375 83.941406 138.398438 86.285156 138.398438 86.695312 C 138.398438 86.753906 138.476562 86.851562 138.59375 86.851562 C 138.730469 86.851562 138.769531 86.734375 138.808594 86.675781 C 139.414062 84.683594 140.625 84.3125 141.132812 84.3125 C 141.953125 84.3125 142.109375 85.054688 142.109375 85.484375 C 142.109375 85.875 142.011719 86.285156 141.777344 87.144531 L 141.171875 89.605469 C 140.917969 90.679688 140.390625 91.675781 139.433594 91.675781 C 139.355469 91.675781 138.90625 91.675781 138.515625 91.441406 C 139.160156 91.304688 139.316406 90.777344 139.316406 90.5625 C 139.316406 90.210938 139.042969 89.996094 138.710938 89.996094 C 138.28125 89.996094 137.8125 90.367188 137.8125 90.933594 C 137.8125 91.695312 138.652344 92.027344 139.414062 92.027344 C 140.273438 92.027344 140.898438 91.34375 141.269531 90.621094 C 141.5625 91.675781 142.441406 92.027344 143.105469 92.027344 C 144.941406 92.027344 145.917969 89.683594 145.917969 89.292969 C 145.917969 89.195312 145.839844 89.117188 145.722656 89.117188 C 145.566406 89.117188 145.546875 89.214844 145.507812 89.351562 C 145.019531 90.933594 143.964844 91.675781 143.164062 91.675781 C 142.539062 91.675781 142.207031 91.207031 142.207031 90.464844 C 142.207031 90.074219 142.265625 89.78125 142.558594 88.609375 L 143.183594 86.167969 C 143.457031 85.09375 144.0625 84.3125 144.882812 84.3125 C 144.921875 84.3125 145.429688 84.3125 145.800781 84.527344 Z M 145.800781 84.527344 "/>
<path style=" stroke:none;fill-rule:nonzero;fill:rgb(0%,0%,0%);fill-opacity:1;" d="M 148.933594 85.644531 L 150.261719 84.355469 C 152.195312 82.636719 152.9375 81.972656 152.9375 80.722656 C 152.9375 79.296875 151.824219 78.300781 150.300781 78.300781 C 148.894531 78.300781 147.976562 79.453125 147.976562 80.566406 C 147.976562 81.25 148.601562 81.25 148.640625 81.25 C 148.855469 81.25 149.285156 81.113281 149.285156 80.585938 C 149.285156 80.273438 149.050781 79.941406 148.621094 79.941406 C 148.523438 79.941406 148.503906 79.941406 148.464844 79.960938 C 148.738281 79.140625 149.421875 78.691406 150.144531 78.691406 C 151.277344 78.691406 151.804688 79.707031 151.804688 80.722656 C 151.804688 81.71875 151.199219 82.695312 150.496094 83.476562 L 148.113281 86.132812 C 147.976562 86.269531 147.976562 86.308594 147.976562 86.601562 L 152.605469 86.601562 L 152.9375 84.433594 L 152.644531 84.433594 C 152.566406 84.804688 152.488281 85.351562 152.351562 85.546875 C 152.273438 85.644531 151.453125 85.644531 151.179688 85.644531 Z M 148.933594 85.644531 "/>
<path style=" stroke:none;fill-rule:nonzero;fill:rgb(0%,0%,0%);fill-opacity:1;" d="M 159.160156 87.378906 C 159.160156 86.03125 158.984375 83.804688 157.96875 81.714844 C 156.914062 79.566406 155.449219 78.414062 155.253906 78.414062 C 155.175781 78.414062 155.078125 78.433594 155.078125 78.550781 C 155.078125 78.609375 155.078125 78.628906 155.390625 78.941406 C 157.1875 80.757812 158.183594 83.707031 158.183594 87.378906 C 158.183594 90.855469 157.34375 93.84375 155.273438 95.953125 C 155.078125 96.109375 155.078125 96.148438 155.078125 96.207031 C 155.078125 96.324219 155.175781 96.34375 155.253906 96.34375 C 155.488281 96.34375 156.953125 95.054688 157.832031 93.296875 C 158.75 91.480469 159.160156 89.546875 159.160156 87.378906 Z M 159.160156 87.378906 "/>
<path style=" stroke:none;fill-rule:nonzero;fill:rgb(0%,0%,0%);fill-opacity:1;" d="M 171.699219 100.734375 L 167.5 100.734375 L 167.5 101.847656 L 172.8125 101.847656 L 172.8125 48.078125 L 167.5 48.078125 L 167.5 49.191406 L 171.699219 49.191406 Z M 171.699219 100.734375 "/>
</g>
</svg>
