<?xml version="1.0" encoding="UTF-8"?>
<svg xmlns="http://www.w3.org/2000/svg" xmlns:xlink="http://www.w3.org/1999/xlink" width="181.78812pt" height="42.009258pt" viewBox="0 0 181.78812 42.009258" version="1.1">
<g id="surface1">
<path style=" stroke:none;fill-rule:nonzero;fill:rgb(0%,0%,0%);fill-opacity:1;" d="M 1.542969 0.175781 L 0 0.175781 L 0 12.617188 L 1.542969 12.617188 Z M 1.542969 0.175781 "/>
<path style=" stroke:none;fill-rule:nonzero;fill:rgb(0%,0%,0%);fill-opacity:1;" d="M 6.285156 5.703125 L 8.199219 5.703125 L 8.199219 4.648438 L 6.246094 4.648438 L 6.246094 2.5 C 6.246094 1.289062 7.261719 1.074219 7.867188 1.074219 C 8.492188 1.074219 9.039062 1.269531 9.253906 1.347656 L 9.253906 0.175781 C 9.136719 0.136719 8.53125 0 7.886719 0 C 6.167969 0 4.957031 1.308594 4.957031 3.046875 L 4.957031 4.648438 L 3.648438 4.648438 L 3.648438 5.703125 L 4.957031 5.703125 L 4.957031 12.617188 L 6.285156 12.617188 Z M 6.285156 5.703125 "/>
<path style=" stroke:none;fill-rule:nonzero;fill:rgb(0%,0%,0%);fill-opacity:1;" d="M 22.925781 5.292969 C 22.359375 5.410156 22.144531 5.839844 22.144531 6.171875 C 22.144531 6.601562 22.476562 6.757812 22.730469 6.757812 C 23.277344 6.757812 23.648438 6.289062 23.648438 5.800781 C 23.648438 5.058594 22.789062 4.707031 22.027344 4.707031 C 20.933594 4.707031 20.328125 5.78125 20.171875 6.132812 C 19.761719 4.785156 18.648438 4.707031 18.316406 4.707031 C 16.5 4.707031 15.523438 7.050781 15.523438 7.460938 C 15.523438 7.519531 15.601562 7.617188 15.71875 7.617188 C 15.855469 7.617188 15.894531 7.5 15.933594 7.441406 C 16.539062 5.449219 17.75 5.078125 18.257812 5.078125 C 19.078125 5.078125 19.234375 5.820312 19.234375 6.25 C 19.234375 6.640625 19.136719 7.050781 18.902344 7.910156 L 18.296875 10.371094 C 18.042969 11.445312 17.515625 12.441406 16.558594 12.441406 C 16.480469 12.441406 16.03125 12.441406 15.640625 12.207031 C 16.285156 12.070312 16.441406 11.542969 16.441406 11.328125 C 16.441406 10.976562 16.167969 10.761719 15.835938 10.761719 C 15.40625 10.761719 14.9375 11.132812 14.9375 11.699219 C 14.9375 12.460938 15.777344 12.792969 16.539062 12.792969 C 17.398438 12.792969 18.023438 12.109375 18.394531 11.386719 C 18.6875 12.441406 19.566406 12.792969 20.230469 12.792969 C 22.066406 12.792969 23.042969 10.449219 23.042969 10.058594 C 23.042969 9.960938 22.964844 9.882812 22.847656 9.882812 C 22.691406 9.882812 22.671875 9.980469 22.632812 10.117188 C 22.144531 11.699219 21.089844 12.441406 20.289062 12.441406 C 19.664062 12.441406 19.332031 11.972656 19.332031 11.230469 C 19.332031 10.839844 19.390625 10.546875 19.683594 9.375 L 20.308594 6.933594 C 20.582031 5.859375 21.1875 5.078125 22.007812 5.078125 C 22.046875 5.078125 22.554688 5.078125 22.925781 5.292969 Z M 22.925781 5.292969 "/>
<path style=" stroke:none;fill-rule:nonzero;fill:rgb(0%,0%,0%);fill-opacity:1;" d="M 41.539062 6.816406 C 41.792969 6.816406 42.105469 6.816406 42.105469 6.484375 C 42.105469 6.152344 41.792969 6.152344 41.539062 6.152344 L 30.972656 6.152344 C 30.71875 6.152344 30.40625 6.152344 30.40625 6.464844 C 30.40625 6.816406 30.699219 6.816406 30.972656 6.816406 Z M 41.539062 10.136719 C 41.792969 10.136719 42.105469 10.136719 42.105469 9.824219 C 42.105469 9.472656 41.792969 9.472656 41.539062 9.472656 L 30.972656 9.472656 C 30.71875 9.472656 30.40625 9.472656 30.40625 9.804688 C 30.40625 10.136719 30.699219 10.136719 30.972656 10.136719 Z M 41.539062 10.136719 "/>
<path style=" stroke:none;fill-rule:nonzero;fill:rgb(0%,0%,0%);fill-opacity:1;" d="M 53.417969 10.488281 C 53.339844 10.78125 53.339844 10.820312 53.085938 11.171875 C 52.695312 11.660156 51.894531 12.441406 51.054688 12.441406 C 50.332031 12.441406 49.902344 11.777344 49.902344 10.722656 C 49.902344 9.726562 50.46875 7.714844 50.800781 6.972656 C 51.425781 5.722656 52.265625 5.078125 52.949219 5.078125 C 54.140625 5.078125 54.375 6.542969 54.375 6.679688 C 54.375 6.699219 54.316406 6.933594 54.296875 6.972656 Z M 54.570312 5.898438 C 54.375 5.429688 53.886719 4.707031 52.949219 4.707031 C 50.9375 4.707031 48.75 7.324219 48.75 9.980469 C 48.75 11.757812 49.785156 12.792969 50.996094 12.792969 C 51.992188 12.792969 52.832031 12.03125 53.339844 11.425781 C 53.515625 12.5 54.355469 12.792969 54.902344 12.792969 C 55.429688 12.792969 55.859375 12.480469 56.191406 11.835938 C 56.464844 11.210938 56.71875 10.117188 56.71875 10.058594 C 56.71875 9.960938 56.660156 9.882812 56.542969 9.882812 C 56.386719 9.882812 56.367188 9.980469 56.289062 10.253906 C 56.015625 11.308594 55.683594 12.441406 54.941406 12.441406 C 54.433594 12.441406 54.394531 11.972656 54.394531 11.621094 C 54.394531 11.191406 54.453125 10.996094 54.609375 10.3125 C 54.726562 9.863281 54.824219 9.453125 54.960938 8.945312 C 55.625 6.25 55.78125 5.605469 55.78125 5.507812 C 55.78125 5.253906 55.585938 5.058594 55.332031 5.058594 C 54.746094 5.058594 54.609375 5.683594 54.570312 5.898438 Z M 54.570312 5.898438 "/>
<path style=" stroke:none;fill-rule:nonzero;fill:rgb(0%,0%,0%);fill-opacity:1;" d="M 63.1875 5.410156 L 65.726562 5.410156 L 65.726562 4.882812 L 63.1875 4.882812 L 63.1875 1.582031 L 62.796875 1.582031 C 62.777344 3.28125 62.132812 5 60.511719 5.058594 L 60.511719 5.410156 L 62.035156 5.410156 L 62.035156 10.390625 C 62.035156 12.382812 63.34375 12.792969 64.300781 12.792969 C 65.433594 12.792969 66.019531 11.679688 66.019531 10.390625 L 66.019531 9.375 L 65.628906 9.375 L 65.628906 10.351562 C 65.628906 11.640625 65.101562 12.402344 64.417969 12.402344 C 63.1875 12.402344 63.1875 10.742188 63.1875 10.429688 Z M 63.1875 5.410156 "/>
<path style=" stroke:none;fill-rule:nonzero;fill:rgb(0%,0%,0%);fill-opacity:1;" d="M 73.992188 7.832031 C 73.992188 6.855469 73.992188 6.152344 73.210938 5.449219 C 72.585938 4.863281 71.785156 4.628906 70.984375 4.628906 C 69.519531 4.628906 68.386719 5.585938 68.386719 6.757812 C 68.386719 7.265625 68.71875 7.519531 69.148438 7.519531 C 69.578125 7.519531 69.871094 7.226562 69.871094 6.796875 C 69.871094 6.054688 69.226562 6.054688 68.953125 6.054688 C 69.382812 5.292969 70.242188 4.980469 70.945312 4.980469 C 71.785156 4.980469 72.839844 5.664062 72.839844 7.265625 L 72.839844 7.988281 C 69.226562 8.046875 67.859375 9.550781 67.859375 10.9375 C 67.859375 12.34375 69.519531 12.792969 70.613281 12.792969 C 71.785156 12.792969 72.605469 12.070312 72.9375 11.210938 C 73.015625 12.070312 73.5625 12.714844 74.34375 12.714844 C 74.714844 12.714844 75.75 12.460938 75.75 11.015625 L 75.75 10.019531 L 75.359375 10.019531 L 75.359375 11.015625 C 75.359375 12.050781 74.929688 12.1875 74.675781 12.1875 C 73.992188 12.1875 73.992188 11.230469 73.992188 10.976562 Z M 72.839844 10.097656 C 72.839844 11.855469 71.53125 12.441406 70.75 12.441406 C 69.871094 12.441406 69.148438 11.796875 69.148438 10.9375 C 69.148438 8.574219 72.195312 8.359375 72.839844 8.320312 Z M 72.839844 10.097656 "/>
<path style=" stroke:none;fill-rule:nonzero;fill:rgb(0%,0%,0%);fill-opacity:1;" d="M 83.917969 8.261719 C 83.917969 6.601562 83.917969 6.09375 83.488281 5.507812 C 82.980469 4.824219 82.140625 4.707031 81.515625 4.707031 C 79.777344 4.707031 79.09375 6.191406 78.957031 6.5625 L 78.9375 6.5625 L 78.9375 4.707031 L 76.496094 4.902344 L 76.496094 5.429688 C 77.726562 5.429688 77.863281 5.546875 77.863281 6.425781 L 77.863281 11.289062 C 77.863281 12.089844 77.667969 12.089844 76.496094 12.089844 L 76.496094 12.617188 C 76.964844 12.578125 77.941406 12.578125 78.449219 12.578125 C 78.957031 12.578125 79.933594 12.578125 80.402344 12.617188 L 80.402344 12.089844 C 79.25 12.089844 79.035156 12.089844 79.035156 11.289062 L 79.035156 7.949219 C 79.035156 6.074219 80.265625 5.078125 81.378906 5.078125 C 82.492188 5.078125 82.746094 5.976562 82.746094 7.070312 L 82.746094 11.289062 C 82.746094 12.089844 82.550781 12.089844 81.378906 12.089844 L 81.378906 12.617188 C 81.847656 12.578125 82.824219 12.578125 83.3125 12.578125 C 83.839844 12.578125 84.796875 12.578125 85.265625 12.617188 L 85.265625 12.089844 C 84.367188 12.089844 83.917969 12.089844 83.917969 11.5625 Z M 83.917969 8.261719 "/>
<path style=" stroke:none;fill-rule:nonzero;fill:rgb(0%,0%,0%);fill-opacity:1;" d="M 96.242188 0.332031 C 96.242188 0.175781 96.105469 0.175781 96.066406 0.175781 C 95.890625 0.175781 95.871094 0.214844 95.8125 0.507812 L 94.835938 4.375 C 94.777344 4.609375 94.757812 4.628906 94.757812 4.628906 C 94.738281 4.667969 94.601562 4.6875 94.5625 4.6875 C 91.632812 4.941406 89.367188 7.363281 89.367188 9.609375 C 89.367188 11.542969 90.851562 12.734375 92.726562 12.832031 C 92.570312 13.378906 92.453125 13.964844 92.316406 14.511719 C 92.0625 15.46875 91.925781 16.054688 91.925781 16.132812 C 91.925781 16.171875 91.925781 16.269531 92.101562 16.269531 C 92.140625 16.269531 92.21875 16.269531 92.257812 16.210938 C 92.296875 16.171875 92.394531 15.742188 92.472656 15.507812 L 93.136719 12.832031 C 96.203125 12.675781 98.527344 10.15625 98.527344 7.910156 C 98.527344 6.09375 97.160156 4.804688 95.1875 4.667969 Z M 95.070312 5.039062 C 96.261719 5.097656 97.433594 5.761719 97.433594 7.519531 C 97.433594 9.550781 96.027344 12.246094 93.234375 12.460938 Z M 92.804688 12.480469 C 91.925781 12.421875 90.460938 11.953125 90.460938 9.980469 C 90.460938 7.714844 92.101562 5.214844 94.679688 5.058594 Z M 92.804688 12.480469 "/>
<path style=" stroke:none;fill-rule:nonzero;fill:rgb(0%,0%,0%);fill-opacity:1;" d="M 107.945312 5.703125 L 110.425781 5.703125 L 110.425781 4.648438 L 107.945312 4.648438 L 107.945312 2.382812 L 106.714844 2.382812 L 106.714844 4.648438 L 105.210938 4.648438 L 105.210938 5.703125 L 106.675781 5.703125 L 106.675781 10.527344 C 106.675781 11.5625 106.910156 12.792969 108.140625 12.792969 C 109.351562 12.792969 110.171875 12.382812 110.71875 12.089844 L 110.445312 11.054688 C 109.820312 11.621094 109.15625 11.679688 108.84375 11.679688 C 108.042969 11.679688 107.945312 10.839844 107.945312 10.214844 Z M 107.945312 5.703125 "/>
<path style=" stroke:none;fill-rule:nonzero;fill:rgb(0%,0%,0%);fill-opacity:1;" d="M 118.777344 7.226562 C 118.777344 6.132812 118.542969 4.472656 116.375 4.472656 C 115.144531 4.472656 114.324219 5.175781 113.894531 5.722656 L 113.894531 0.175781 L 112.566406 0.175781 L 112.566406 12.617188 L 113.914062 12.617188 L 113.914062 8.144531 C 113.914062 7.050781 114.34375 5.546875 115.691406 5.546875 C 117.371094 5.546875 117.410156 6.71875 117.410156 7.34375 L 117.410156 12.617188 L 118.777344 12.617188 Z M 118.777344 7.226562 "/>
<path style=" stroke:none;fill-rule:nonzero;fill:rgb(0%,0%,0%);fill-opacity:1;" d="M 127.484375 8.574219 C 127.484375 7.8125 127.40625 6.71875 126.839844 5.761719 C 126.097656 4.53125 124.847656 4.394531 124.320312 4.394531 C 122.386719 4.394531 120.765625 6.25 120.765625 8.574219 C 120.765625 10.957031 122.484375 12.792969 124.574219 12.792969 C 125.394531 12.792969 126.390625 12.558594 127.367188 11.855469 C 127.367188 11.777344 127.308594 11.210938 127.308594 11.191406 C 127.289062 11.171875 127.269531 10.761719 127.269531 10.703125 C 126.195312 11.601562 125.140625 11.71875 124.613281 11.71875 C 123.226562 11.71875 122.035156 10.488281 122.015625 8.574219 Z M 122.113281 7.617188 C 122.425781 6.40625 123.265625 5.46875 124.320312 5.46875 C 124.886719 5.46875 126.117188 5.722656 126.410156 7.617188 Z M 122.113281 7.617188 "/>
<path style=" stroke:none;fill-rule:nonzero;fill:rgb(0%,0%,0%);fill-opacity:1;" d="M 135.578125 7.226562 C 135.578125 6.132812 135.34375 4.472656 133.175781 4.472656 C 132.179688 4.472656 131.320312 4.921875 130.636719 5.78125 L 130.636719 4.570312 L 129.367188 4.570312 L 129.367188 12.617188 L 130.714844 12.617188 L 130.714844 8.144531 C 130.714844 7.050781 131.144531 5.546875 132.492188 5.546875 C 134.171875 5.546875 134.210938 6.71875 134.210938 7.34375 L 134.210938 12.617188 L 135.578125 12.617188 Z M 135.578125 7.226562 "/>
<path style=" stroke:none;fill-rule:nonzero;fill:rgb(0%,0%,0%);fill-opacity:1;" d="M 19.886719 39.527344 C 19.417969 40.210938 18.714844 40.816406 17.835938 40.816406 C 17.621094 40.816406 16.761719 40.777344 16.488281 39.957031 C 16.546875 39.976562 16.625 39.976562 16.664062 39.976562 C 17.210938 39.976562 17.5625 39.507812 17.5625 39.097656 C 17.5625 38.6875 17.230469 38.53125 16.957031 38.53125 C 16.664062 38.53125 16.039062 38.746094 16.039062 39.625 C 16.039062 40.542969 16.820312 41.167969 17.835938 41.167969 C 19.632812 41.167969 21.429688 39.527344 21.9375 37.535156 L 23.695312 30.542969 C 23.714844 30.445312 23.753906 30.347656 23.753906 30.230469 C 23.753906 29.976562 23.539062 29.78125 23.265625 29.78125 C 23.109375 29.78125 22.71875 29.859375 22.582031 30.40625 L 21.253906 35.660156 C 21.175781 35.992188 21.175781 36.03125 21.019531 36.226562 C 20.667969 36.734375 20.082031 37.339844 19.222656 37.339844 C 18.207031 37.339844 18.128906 36.34375 18.128906 35.875 C 18.128906 34.839844 18.597656 33.472656 19.085938 32.164062 C 19.28125 31.65625 19.398438 31.402344 19.398438 31.050781 C 19.398438 30.289062 18.851562 29.605469 17.972656 29.605469 C 16.332031 29.605469 15.667969 32.203125 15.667969 32.359375 C 15.667969 32.417969 15.726562 32.515625 15.863281 32.515625 C 16.019531 32.515625 16.039062 32.4375 16.117188 32.183594 C 16.546875 30.679688 17.230469 29.976562 17.914062 29.976562 C 18.089844 29.976562 18.382812 29.976562 18.382812 30.5625 C 18.382812 31.03125 18.1875 31.539062 17.914062 32.222656 C 17.035156 34.566406 17.035156 35.171875 17.035156 35.601562 C 17.035156 37.300781 18.265625 37.691406 19.164062 37.691406 C 19.671875 37.691406 20.316406 37.535156 20.960938 36.871094 L 20.980469 36.890625 C 20.707031 37.945312 20.53125 38.648438 19.886719 39.527344 Z M 19.886719 39.527344 "/>
<path style=" stroke:none;fill-rule:nonzero;fill:rgb(0%,0%,0%);fill-opacity:1;" d="M 41.539062 31.714844 C 41.792969 31.714844 42.105469 31.714844 42.105469 31.382812 C 42.105469 31.050781 41.792969 31.050781 41.539062 31.050781 L 30.972656 31.050781 C 30.71875 31.050781 30.40625 31.050781 30.40625 31.363281 C 30.40625 31.714844 30.699219 31.714844 30.972656 31.714844 Z M 41.539062 35.035156 C 41.792969 35.035156 42.105469 35.035156 42.105469 34.722656 C 42.105469 34.371094 41.792969 34.371094 41.539062 34.371094 L 30.972656 34.371094 C 30.71875 34.371094 30.40625 34.371094 30.40625 34.703125 C 30.40625 35.035156 30.699219 35.035156 30.972656 35.035156 Z M 41.539062 35.035156 "/>
<path style=" stroke:none;fill-rule:nonzero;fill:rgb(0%,0%,0%);fill-opacity:1;" d="M 51.113281 25.074219 L 48.613281 25.269531 L 48.613281 25.796875 C 49.84375 25.796875 49.980469 25.914062 49.980469 26.792969 L 49.980469 36.1875 C 49.980469 36.988281 49.785156 36.988281 48.613281 36.988281 L 48.613281 37.515625 C 49.121094 37.476562 50 37.476562 50.546875 37.476562 C 51.074219 37.476562 51.972656 37.476562 52.480469 37.515625 L 52.480469 36.988281 C 51.328125 36.988281 51.113281 36.988281 51.113281 36.1875 Z M 51.113281 25.074219 "/>
<path style=" stroke:none;fill-rule:nonzero;fill:rgb(0%,0%,0%);fill-opacity:1;" d="M 61.203125 33.6875 C 61.203125 31.363281 59.445312 29.527344 57.375 29.527344 C 55.226562 29.527344 53.527344 31.421875 53.527344 33.6875 C 53.527344 35.972656 55.304688 37.691406 57.355469 37.691406 C 59.464844 37.691406 61.203125 35.933594 61.203125 33.6875 Z M 57.375 37.300781 C 56.710938 37.300781 55.910156 37.007812 55.382812 36.128906 C 54.894531 35.328125 54.875 34.273438 54.875 33.511719 C 54.875 32.828125 54.875 31.734375 55.441406 30.933594 C 55.929688 30.171875 56.730469 29.878906 57.355469 29.878906 C 58.058594 29.878906 58.800781 30.191406 59.289062 30.894531 C 59.855469 31.714844 59.855469 32.847656 59.855469 33.511719 C 59.855469 34.136719 59.855469 35.25 59.386719 36.089844 C 58.878906 36.96875 58.058594 37.300781 57.375 37.300781 Z M 57.375 37.300781 "/>
<path style=" stroke:none;fill-rule:nonzero;fill:rgb(0%,0%,0%);fill-opacity:1;" d="M 63.957031 34.273438 C 64.796875 34.820312 65.519531 34.820312 65.714844 34.820312 C 67.335938 34.820312 68.527344 33.609375 68.527344 32.222656 C 68.527344 31.734375 68.390625 31.070312 67.824219 30.484375 C 68.507812 29.761719 69.367188 29.761719 69.445312 29.761719 C 69.523438 29.761719 69.601562 29.761719 69.679688 29.800781 C 69.503906 29.878906 69.40625 30.054688 69.40625 30.25 C 69.40625 30.503906 69.582031 30.71875 69.875 30.71875 C 70.03125 30.71875 70.34375 30.621094 70.34375 30.230469 C 70.34375 29.917969 70.089844 29.410156 69.464844 29.410156 C 68.527344 29.410156 67.84375 29.976562 67.589844 30.25 C 67.042969 29.839844 66.417969 29.605469 65.734375 29.605469 C 64.132812 29.605469 62.921875 30.835938 62.921875 32.203125 C 62.921875 33.238281 63.546875 33.902344 63.722656 34.058594 C 63.507812 34.332031 63.195312 34.839844 63.195312 35.542969 C 63.195312 36.578125 63.820312 37.027344 63.957031 37.125 C 63.136719 37.359375 62.316406 38.003906 62.316406 38.941406 C 62.316406 40.171875 63.996094 41.1875 66.203125 41.1875 C 68.332031 41.1875 70.109375 40.25 70.109375 38.902344 C 70.109375 38.453125 69.992188 37.398438 68.917969 36.832031 C 68 36.363281 67.101562 36.363281 65.558594 36.363281 C 64.464844 36.363281 64.347656 36.363281 64.015625 36.03125 C 63.839844 35.855469 63.683594 35.503906 63.683594 35.132812 C 63.683594 34.820312 63.78125 34.527344 63.957031 34.273438 Z M 65.734375 34.449219 C 64.152344 34.449219 64.152344 32.632812 64.152344 32.222656 C 64.152344 31.910156 64.152344 31.167969 64.464844 30.679688 C 64.796875 30.171875 65.34375 29.976562 65.714844 29.976562 C 67.296875 29.976562 67.296875 31.792969 67.296875 32.203125 C 67.296875 32.535156 67.296875 33.257812 66.984375 33.746094 C 66.652344 34.273438 66.105469 34.449219 65.734375 34.449219 Z M 66.222656 40.816406 C 64.503906 40.816406 63.195312 39.9375 63.195312 38.921875 C 63.195312 38.765625 63.234375 38.0625 63.898438 37.613281 C 64.308594 37.359375 64.464844 37.359375 65.714844 37.359375 C 67.199219 37.359375 69.230469 37.359375 69.230469 38.921875 C 69.230469 39.976562 67.863281 40.816406 66.222656 40.816406 Z M 66.222656 40.816406 "/>
<path style=" stroke:none;fill-rule:nonzero;fill:rgb(0%,0%,0%);fill-opacity:1;" d="M 79.5 41.871094 C 79.5 41.8125 79.5 41.773438 79.207031 41.480469 C 77.410156 39.664062 76.414062 36.714844 76.414062 33.042969 C 76.414062 29.566406 77.253906 26.578125 79.324219 24.46875 C 79.5 24.292969 79.5 24.273438 79.5 24.214844 C 79.5 24.097656 79.421875 24.078125 79.34375 24.078125 C 79.109375 24.078125 77.644531 25.367188 76.765625 27.125 C 75.847656 28.921875 75.4375 30.855469 75.4375 33.042969 C 75.4375 34.644531 75.691406 36.773438 76.628906 38.707031 C 77.683594 40.855469 79.148438 42.007812 79.34375 42.007812 C 79.421875 42.007812 79.5 41.988281 79.5 41.871094 Z M 79.5 41.871094 "/>
<path style=" stroke:none;fill-rule:nonzero;fill:rgb(0%,0%,0%);fill-opacity:1;" d="M 83.4375 30.308594 L 85.976562 30.308594 L 85.976562 29.78125 L 83.4375 29.78125 L 83.4375 26.480469 L 83.046875 26.480469 C 83.027344 28.179688 82.382812 29.898438 80.761719 29.957031 L 80.761719 30.308594 L 82.285156 30.308594 L 82.285156 35.289062 C 82.285156 37.28125 83.59375 37.691406 84.550781 37.691406 C 85.683594 37.691406 86.269531 36.578125 86.269531 35.289062 L 86.269531 34.273438 L 85.878906 34.273438 L 85.878906 35.25 C 85.878906 36.539062 85.351562 37.300781 84.667969 37.300781 C 83.4375 37.300781 83.4375 35.640625 83.4375 35.328125 Z M 83.4375 30.308594 "/>
<path style=" stroke:none;fill-rule:nonzero;fill:rgb(0%,0%,0%);fill-opacity:1;" d="M 94.242188 32.730469 C 94.242188 31.753906 94.242188 31.050781 93.460938 30.347656 C 92.835938 29.761719 92.035156 29.527344 91.234375 29.527344 C 89.769531 29.527344 88.636719 30.484375 88.636719 31.65625 C 88.636719 32.164062 88.96875 32.417969 89.398438 32.417969 C 89.828125 32.417969 90.121094 32.125 90.121094 31.695312 C 90.121094 30.953125 89.476562 30.953125 89.203125 30.953125 C 89.632812 30.191406 90.492188 29.878906 91.195312 29.878906 C 92.035156 29.878906 93.089844 30.5625 93.089844 32.164062 L 93.089844 32.886719 C 89.476562 32.945312 88.109375 34.449219 88.109375 35.835938 C 88.109375 37.242188 89.769531 37.691406 90.863281 37.691406 C 92.035156 37.691406 92.855469 36.96875 93.1875 36.109375 C 93.265625 36.96875 93.8125 37.613281 94.59375 37.613281 C 94.964844 37.613281 96 37.359375 96 35.914062 L 96 34.917969 L 95.609375 34.917969 L 95.609375 35.914062 C 95.609375 36.949219 95.179688 37.085938 94.925781 37.085938 C 94.242188 37.085938 94.242188 36.128906 94.242188 35.875 Z M 93.089844 34.996094 C 93.089844 36.753906 91.78125 37.339844 91 37.339844 C 90.121094 37.339844 89.398438 36.695312 89.398438 35.835938 C 89.398438 33.472656 92.445312 33.257812 93.089844 33.21875 Z M 93.089844 34.996094 "/>
<path style=" stroke:none;fill-rule:nonzero;fill:rgb(0%,0%,0%);fill-opacity:1;" d="M 104.167969 33.160156 C 104.167969 31.5 104.167969 30.992188 103.738281 30.40625 C 103.230469 29.722656 102.390625 29.605469 101.765625 29.605469 C 100.027344 29.605469 99.34375 31.089844 99.207031 31.460938 L 99.1875 31.460938 L 99.1875 29.605469 L 96.746094 29.800781 L 96.746094 30.328125 C 97.976562 30.328125 98.113281 30.445312 98.113281 31.324219 L 98.113281 36.1875 C 98.113281 36.988281 97.917969 36.988281 96.746094 36.988281 L 96.746094 37.515625 C 97.214844 37.476562 98.191406 37.476562 98.699219 37.476562 C 99.207031 37.476562 100.183594 37.476562 100.652344 37.515625 L 100.652344 36.988281 C 99.5 36.988281 99.285156 36.988281 99.285156 36.1875 L 99.285156 32.847656 C 99.285156 30.972656 100.515625 29.976562 101.628906 29.976562 C 102.742188 29.976562 102.996094 30.875 102.996094 31.96875 L 102.996094 36.1875 C 102.996094 36.988281 102.800781 36.988281 101.628906 36.988281 L 101.628906 37.515625 C 102.097656 37.476562 103.074219 37.476562 103.5625 37.476562 C 104.089844 37.476562 105.046875 37.476562 105.515625 37.515625 L 105.515625 36.988281 C 104.617188 36.988281 104.167969 36.988281 104.167969 36.460938 Z M 104.167969 33.160156 "/>
<path style=" stroke:none;fill-rule:nonzero;fill:rgb(0%,0%,0%);fill-opacity:1;" d="M 116.496094 25.230469 C 116.496094 25.074219 116.359375 25.074219 116.320312 25.074219 C 116.144531 25.074219 116.125 25.113281 116.066406 25.40625 L 115.089844 29.273438 C 115.03125 29.507812 115.011719 29.527344 115.011719 29.527344 C 114.992188 29.566406 114.855469 29.585938 114.816406 29.585938 C 111.886719 29.839844 109.621094 32.261719 109.621094 34.507812 C 109.621094 36.441406 111.105469 37.632812 112.980469 37.730469 C 112.824219 38.277344 112.707031 38.863281 112.570312 39.410156 C 112.316406 40.367188 112.179688 40.953125 112.179688 41.03125 C 112.179688 41.070312 112.179688 41.167969 112.355469 41.167969 C 112.394531 41.167969 112.472656 41.167969 112.511719 41.109375 C 112.550781 41.070312 112.648438 40.640625 112.726562 40.40625 L 113.390625 37.730469 C 116.457031 37.574219 118.78125 35.054688 118.78125 32.808594 C 118.78125 30.992188 117.414062 29.703125 115.441406 29.566406 Z M 115.324219 29.9375 C 116.515625 29.996094 117.6875 30.660156 117.6875 32.417969 C 117.6875 34.449219 116.28125 37.144531 113.488281 37.359375 Z M 113.058594 37.378906 C 112.179688 37.320312 110.714844 36.851562 110.714844 34.878906 C 110.714844 32.613281 112.355469 30.113281 114.933594 29.957031 Z M 113.058594 37.378906 "/>
<path style=" stroke:none;fill-rule:nonzero;fill:rgb(0%,0%,0%);fill-opacity:1;" d="M 130.328125 33.375 L 135.289062 33.375 C 135.542969 33.375 135.855469 33.375 135.855469 33.042969 C 135.855469 32.710938 135.542969 32.710938 135.289062 32.710938 L 130.328125 32.710938 L 130.328125 27.769531 C 130.328125 27.515625 130.328125 27.183594 130.015625 27.183594 C 129.664062 27.183594 129.664062 27.496094 129.664062 27.769531 L 129.664062 32.710938 L 124.722656 32.710938 C 124.46875 32.710938 124.15625 32.710938 124.15625 33.042969 C 124.15625 33.375 124.449219 33.375 124.722656 33.375 L 129.664062 33.375 L 129.664062 38.316406 C 129.664062 38.570312 129.664062 38.902344 129.996094 38.902344 C 130.328125 38.902344 130.328125 38.589844 130.328125 38.316406 Z M 130.328125 33.375 "/>
<path style=" stroke:none;fill-rule:nonzero;fill:rgb(0%,0%,0%);fill-opacity:1;" d="M 146.757812 29.9375 C 146.757812 29.605469 146.757812 29.527344 146.582031 29.527344 C 146.445312 29.527344 146.09375 29.917969 145.976562 30.074219 C 145.410156 29.625 144.863281 29.527344 144.277344 29.527344 C 142.109375 29.527344 141.464844 30.699219 141.464844 31.695312 C 141.464844 31.890625 141.464844 32.515625 142.148438 33.140625 C 142.734375 33.648438 143.339844 33.765625 144.160156 33.921875 C 145.136719 34.117188 145.371094 34.175781 145.820312 34.546875 C 146.152344 34.800781 146.386719 35.210938 146.386719 35.699219 C 146.386719 36.480469 145.9375 37.339844 144.355469 37.339844 C 143.183594 37.339844 142.304688 36.65625 141.914062 34.859375 C 141.855469 34.546875 141.855469 34.527344 141.835938 34.507812 C 141.796875 34.429688 141.71875 34.429688 141.660156 34.429688 C 141.464844 34.429688 141.464844 34.527344 141.464844 34.839844 L 141.464844 37.28125 C 141.464844 37.613281 141.464844 37.691406 141.640625 37.691406 C 141.738281 37.691406 141.757812 37.671875 142.070312 37.300781 C 142.148438 37.183594 142.148438 37.144531 142.421875 36.851562 C 143.105469 37.691406 144.0625 37.691406 144.375 37.691406 C 146.25 37.691406 147.1875 36.65625 147.1875 35.230469 C 147.1875 34.273438 146.601562 33.6875 146.445312 33.53125 C 145.800781 32.984375 145.3125 32.867188 144.121094 32.652344 C 143.59375 32.554688 142.285156 32.300781 142.285156 31.226562 C 142.285156 30.660156 142.65625 29.839844 144.277344 29.839844 C 146.230469 29.839844 146.328125 31.5 146.367188 32.066406 C 146.386719 32.203125 146.503906 32.203125 146.5625 32.203125 C 146.757812 32.203125 146.757812 32.125 146.757812 31.792969 Z M 146.757812 29.9375 "/>
<path style=" stroke:none;fill-rule:nonzero;fill:rgb(0%,0%,0%);fill-opacity:1;" d="M 154.65625 33.355469 C 155.046875 33.355469 155.085938 33.355469 155.085938 33.023438 C 155.085938 31.207031 154.109375 29.527344 151.941406 29.527344 C 149.890625 29.527344 148.328125 31.363281 148.328125 33.589844 C 148.328125 35.953125 150.144531 37.691406 152.136719 37.691406 C 154.265625 37.691406 155.085938 35.757812 155.085938 35.386719 C 155.085938 35.269531 154.988281 35.210938 154.890625 35.210938 C 154.734375 35.210938 154.695312 35.289062 154.675781 35.386719 C 154.207031 36.890625 152.996094 37.300781 152.253906 37.300781 C 151.492188 37.300781 149.675781 36.792969 149.675781 33.6875 L 149.675781 33.355469 Z M 149.695312 33.023438 C 149.851562 30.191406 151.414062 29.878906 151.921875 29.878906 C 153.835938 29.878906 153.953125 32.398438 153.972656 33.023438 Z M 149.695312 33.023438 "/>
<path style=" stroke:none;fill-rule:nonzero;fill:rgb(0%,0%,0%);fill-opacity:1;" d="M 162.0625 30.875 C 161.847656 30.875 161.183594 30.875 161.183594 31.617188 C 161.183594 32.046875 161.496094 32.359375 161.925781 32.359375 C 162.335938 32.359375 162.6875 32.105469 162.6875 31.578125 C 162.6875 30.386719 161.417969 29.527344 159.972656 29.527344 C 157.882812 29.527344 156.203125 31.382812 156.203125 33.648438 C 156.203125 35.933594 157.921875 37.691406 159.953125 37.691406 C 162.316406 37.691406 162.863281 35.542969 162.863281 35.386719 C 162.863281 35.210938 162.726562 35.210938 162.6875 35.210938 C 162.511719 35.210938 162.492188 35.269531 162.453125 35.484375 C 162.042969 36.753906 161.085938 37.300781 160.109375 37.300781 C 159.015625 37.300781 157.570312 36.34375 157.570312 33.628906 C 157.570312 30.640625 159.09375 29.917969 159.992188 29.917969 C 160.675781 29.917969 161.652344 30.191406 162.0625 30.875 Z M 162.0625 30.875 "/>
<path style=" stroke:none;fill-rule:nonzero;fill:rgb(0%,0%,0%);fill-opacity:1;" d="M 174.09375 25.230469 C 174.09375 25.074219 173.957031 25.074219 173.917969 25.074219 C 173.742188 25.074219 173.722656 25.113281 173.664062 25.40625 L 172.6875 29.273438 C 172.628906 29.507812 172.609375 29.527344 172.609375 29.527344 C 172.589844 29.566406 172.453125 29.585938 172.414062 29.585938 C 169.484375 29.839844 167.21875 32.261719 167.21875 34.507812 C 167.21875 36.441406 168.703125 37.632812 170.578125 37.730469 C 170.421875 38.277344 170.304688 38.863281 170.167969 39.410156 C 169.914062 40.367188 169.777344 40.953125 169.777344 41.03125 C 169.777344 41.070312 169.777344 41.167969 169.953125 41.167969 C 169.992188 41.167969 170.070312 41.167969 170.109375 41.109375 C 170.148438 41.070312 170.246094 40.640625 170.324219 40.40625 L 170.988281 37.730469 C 174.054688 37.574219 176.378906 35.054688 176.378906 32.808594 C 176.378906 30.992188 175.011719 29.703125 173.039062 29.566406 Z M 172.921875 29.9375 C 174.113281 29.996094 175.285156 30.660156 175.285156 32.417969 C 175.285156 34.449219 173.878906 37.144531 171.085938 37.359375 Z M 170.65625 37.378906 C 169.777344 37.320312 168.3125 36.851562 168.3125 34.878906 C 168.3125 32.613281 169.953125 30.113281 172.53125 29.957031 Z M 170.65625 37.378906 "/>
<path style=" stroke:none;fill-rule:nonzero;fill:rgb(0%,0%,0%);fill-opacity:1;" d="M 181.789062 33.042969 C 181.789062 31.695312 181.613281 29.46875 180.597656 27.378906 C 179.542969 25.230469 178.078125 24.078125 177.882812 24.078125 C 177.804688 24.078125 177.707031 24.097656 177.707031 24.214844 C 177.707031 24.273438 177.707031 24.292969 178.019531 24.605469 C 179.816406 26.421875 180.8125 29.371094 180.8125 33.042969 C 180.8125 36.519531 179.972656 39.507812 177.902344 41.617188 C 177.707031 41.773438 177.707031 41.8125 177.707031 41.871094 C 177.707031 41.988281 177.804688 42.007812 177.882812 42.007812 C 178.117188 42.007812 179.582031 40.71875 180.460938 38.960938 C 181.378906 37.144531 181.789062 35.210938 181.789062 33.042969 Z M 181.789062 33.042969 "/>
</g>
</svg>
