<?xml version="1.0" encoding="UTF-8"?>
<svg xmlns="http://www.w3.org/2000/svg" xmlns:xlink="http://www.w3.org/1999/xlink" width="197.00308pt" height="37.067089pt" viewBox="0 0 197.00308 37.067089" version="1.1">
<g id="surface1">
<path style=" stroke:none;fill-rule:nonzero;fill:rgb(0%,0%,0%);fill-opacity:1;" d="M 6.855469 18.925781 L 6.855469 17.851562 L 1.542969 17.851562 L 1.542969 13.300781 L 3.847656 13.300781 C 4.0625 13.300781 4.277344 13.320312 4.492188 13.320312 L 7.597656 13.320312 L 7.597656 12.1875 L 0 12.1875 L 0 24.589844 L 1.542969 24.589844 L 1.542969 18.925781 Z M 6.855469 18.925781 "/>
<path style=" stroke:none;fill-rule:nonzero;fill:rgb(0%,0%,0%);fill-opacity:1;" d="M 11.109375 12.421875 L 9.566406 12.421875 L 9.566406 13.964844 L 11.109375 13.964844 Z M 11.011719 16.621094 L 9.683594 16.621094 L 9.683594 24.589844 L 11.011719 24.589844 Z M 11.011719 16.621094 "/>
<path style=" stroke:none;fill-rule:nonzero;fill:rgb(0%,0%,0%);fill-opacity:1;" d="M 20.078125 19.199219 C 20.078125 18.105469 19.84375 16.445312 17.675781 16.445312 C 16.679688 16.445312 15.820312 16.894531 15.136719 17.753906 L 15.136719 16.542969 L 13.867188 16.542969 L 13.867188 24.589844 L 15.214844 24.589844 L 15.214844 20.117188 C 15.214844 19.023438 15.644531 17.519531 16.992188 17.519531 C 18.671875 17.519531 18.710938 18.691406 18.710938 19.316406 L 18.710938 24.589844 L 20.078125 24.589844 Z M 20.078125 19.199219 "/>
<path style=" stroke:none;fill-rule:nonzero;fill:rgb(0%,0%,0%);fill-opacity:1;" d="M 29.058594 12.148438 L 27.730469 12.148438 L 27.730469 17.382812 C 26.910156 16.699219 25.972656 16.445312 25.210938 16.445312 C 23.511719 16.445312 22.105469 18.28125 22.105469 20.605469 C 22.105469 22.929688 23.433594 24.765625 25.132812 24.765625 C 25.796875 24.765625 26.8125 24.550781 27.710938 23.671875 L 27.710938 24.589844 L 29.058594 24.589844 Z M 27.710938 22.480469 C 27.28125 23.242188 26.636719 23.691406 25.855469 23.691406 C 24.761719 23.691406 23.472656 22.851562 23.472656 20.625 C 23.472656 18.242188 24.996094 17.519531 26.03125 17.519531 C 26.734375 17.519531 27.300781 17.890625 27.710938 18.476562 Z M 27.710938 22.480469 "/>
<path style=" stroke:none;fill-rule:nonzero;fill:rgb(0%,0%,0%);fill-opacity:1;" d="M 47.300781 0.449219 C 47.320312 0.371094 47.359375 0.273438 47.359375 0.175781 C 47.359375 0 47.164062 0 47.125 0 C 47.125 0 46.246094 0.078125 46.148438 0.078125 C 45.835938 0.0976562 45.582031 0.136719 45.25 0.15625 C 44.800781 0.195312 44.683594 0.214844 44.683594 0.527344 C 44.683594 0.722656 44.820312 0.722656 45.074219 0.722656 C 45.953125 0.722656 45.972656 0.878906 45.972656 1.054688 C 45.972656 1.171875 45.933594 1.308594 45.914062 1.367188 L 44.820312 5.722656 C 44.625 5.253906 44.136719 4.53125 43.199219 4.53125 C 41.1875 4.53125 39 7.148438 39 9.804688 C 39 11.582031 40.035156 12.617188 41.246094 12.617188 C 42.242188 12.617188 43.082031 11.855469 43.589844 11.25 C 43.765625 12.324219 44.605469 12.617188 45.152344 12.617188 C 45.679688 12.617188 46.109375 12.304688 46.441406 11.660156 C 46.714844 11.035156 46.96875 9.941406 46.96875 9.882812 C 46.96875 9.785156 46.910156 9.707031 46.792969 9.707031 C 46.636719 9.707031 46.617188 9.804688 46.539062 10.078125 C 46.265625 11.132812 45.933594 12.265625 45.191406 12.265625 C 44.683594 12.265625 44.644531 11.796875 44.644531 11.445312 C 44.644531 11.367188 44.644531 10.996094 44.761719 10.488281 Z M 43.667969 10.3125 C 43.589844 10.605469 43.589844 10.644531 43.335938 10.996094 C 42.945312 11.484375 42.144531 12.265625 41.304688 12.265625 C 40.582031 12.265625 40.152344 11.601562 40.152344 10.546875 C 40.152344 9.550781 40.71875 7.539062 41.050781 6.796875 C 41.675781 5.546875 42.515625 4.902344 43.199219 4.902344 C 44.390625 4.902344 44.625 6.367188 44.625 6.503906 C 44.625 6.523438 44.566406 6.757812 44.546875 6.796875 Z M 43.667969 10.3125 "/>
<path style=" stroke:none;fill-rule:nonzero;fill:rgb(0%,0%,0%);fill-opacity:1;" d="M 52.136719 14.453125 C 51.667969 15.136719 50.964844 15.742188 50.085938 15.742188 C 49.871094 15.742188 49.011719 15.703125 48.738281 14.882812 C 48.796875 14.902344 48.875 14.902344 48.914062 14.902344 C 49.460938 14.902344 49.8125 14.433594 49.8125 14.023438 C 49.8125 13.613281 49.480469 13.457031 49.207031 13.457031 C 48.914062 13.457031 48.289062 13.671875 48.289062 14.550781 C 48.289062 15.46875 49.070312 16.09375 50.085938 16.09375 C 51.882812 16.09375 53.679688 14.453125 54.1875 12.460938 L 55.945312 5.46875 C 55.964844 5.371094 56.003906 5.273438 56.003906 5.15625 C 56.003906 4.902344 55.789062 4.707031 55.515625 4.707031 C 55.359375 4.707031 54.96875 4.785156 54.832031 5.332031 L 53.503906 10.585938 C 53.425781 10.917969 53.425781 10.957031 53.269531 11.152344 C 52.917969 11.660156 52.332031 12.265625 51.472656 12.265625 C 50.457031 12.265625 50.378906 11.269531 50.378906 10.800781 C 50.378906 9.765625 50.847656 8.398438 51.335938 7.089844 C 51.53125 6.582031 51.648438 6.328125 51.648438 5.976562 C 51.648438 5.214844 51.101562 4.53125 50.222656 4.53125 C 48.582031 4.53125 47.917969 7.128906 47.917969 7.285156 C 47.917969 7.34375 47.976562 7.441406 48.113281 7.441406 C 48.269531 7.441406 48.289062 7.363281 48.367188 7.109375 C 48.796875 5.605469 49.480469 4.902344 50.164062 4.902344 C 50.339844 4.902344 50.632812 4.902344 50.632812 5.488281 C 50.632812 5.957031 50.4375 6.464844 50.164062 7.148438 C 49.285156 9.492188 49.285156 10.097656 49.285156 10.527344 C 49.285156 12.226562 50.515625 12.617188 51.414062 12.617188 C 51.921875 12.617188 52.566406 12.460938 53.210938 11.796875 L 53.230469 11.816406 C 52.957031 12.871094 52.78125 13.574219 52.136719 14.453125 Z M 52.136719 14.453125 "/>
<path style=" stroke:none;fill-rule:nonzero;fill:rgb(0%,0%,0%);fill-opacity:1;" d="M 37.8125 19.65625 L 57.011719 19.65625 L 57.011719 20.410156 L 37.8125 20.410156 Z M 37.8125 19.65625 "/>
<path style=" stroke:none;fill-rule:nonzero;fill:rgb(0%,0%,0%);fill-opacity:1;" d="M 46.851562 24.898438 C 46.871094 24.820312 46.910156 24.722656 46.910156 24.625 C 46.910156 24.449219 46.714844 24.449219 46.675781 24.449219 C 46.675781 24.449219 45.796875 24.527344 45.699219 24.527344 C 45.386719 24.546875 45.132812 24.585938 44.800781 24.605469 C 44.351562 24.644531 44.234375 24.664062 44.234375 24.976562 C 44.234375 25.171875 44.371094 25.171875 44.625 25.171875 C 45.503906 25.171875 45.523438 25.328125 45.523438 25.503906 C 45.523438 25.621094 45.484375 25.757812 45.464844 25.816406 L 44.371094 30.171875 C 44.175781 29.703125 43.6875 28.980469 42.75 28.980469 C 40.738281 28.980469 38.550781 31.597656 38.550781 34.253906 C 38.550781 36.03125 39.585938 37.066406 40.796875 37.066406 C 41.792969 37.066406 42.632812 36.304688 43.140625 35.699219 C 43.316406 36.773438 44.15625 37.066406 44.703125 37.066406 C 45.230469 37.066406 45.660156 36.753906 45.992188 36.109375 C 46.265625 35.484375 46.519531 34.390625 46.519531 34.332031 C 46.519531 34.234375 46.460938 34.15625 46.34375 34.15625 C 46.1875 34.15625 46.167969 34.253906 46.089844 34.527344 C 45.816406 35.582031 45.484375 36.714844 44.742188 36.714844 C 44.234375 36.714844 44.195312 36.246094 44.195312 35.894531 C 44.195312 35.816406 44.195312 35.445312 44.3125 34.9375 Z M 43.21875 34.761719 C 43.140625 35.054688 43.140625 35.09375 42.886719 35.445312 C 42.496094 35.933594 41.695312 36.714844 40.855469 36.714844 C 40.132812 36.714844 39.703125 36.050781 39.703125 34.996094 C 39.703125 34 40.269531 31.988281 40.601562 31.246094 C 41.226562 29.996094 42.066406 29.351562 42.75 29.351562 C 43.941406 29.351562 44.175781 30.816406 44.175781 30.953125 C 44.175781 30.972656 44.117188 31.207031 44.097656 31.246094 Z M 43.21875 34.761719 "/>
<path style=" stroke:none;fill-rule:nonzero;fill:rgb(0%,0%,0%);fill-opacity:1;" d="M 55.476562 29.566406 C 54.910156 29.683594 54.695312 30.113281 54.695312 30.445312 C 54.695312 30.875 55.027344 31.03125 55.28125 31.03125 C 55.828125 31.03125 56.199219 30.5625 56.199219 30.074219 C 56.199219 29.332031 55.339844 28.980469 54.578125 28.980469 C 53.484375 28.980469 52.878906 30.054688 52.722656 30.40625 C 52.3125 29.058594 51.199219 28.980469 50.867188 28.980469 C 49.050781 28.980469 48.074219 31.324219 48.074219 31.734375 C 48.074219 31.792969 48.152344 31.890625 48.269531 31.890625 C 48.40625 31.890625 48.445312 31.773438 48.484375 31.714844 C 49.089844 29.722656 50.300781 29.351562 50.808594 29.351562 C 51.628906 29.351562 51.785156 30.09375 51.785156 30.523438 C 51.785156 30.914062 51.6875 31.324219 51.453125 32.183594 L 50.847656 34.644531 C 50.59375 35.71875 50.066406 36.714844 49.109375 36.714844 C 49.03125 36.714844 48.582031 36.714844 48.191406 36.480469 C 48.835938 36.34375 48.992188 35.816406 48.992188 35.601562 C 48.992188 35.25 48.71875 35.035156 48.386719 35.035156 C 47.957031 35.035156 47.488281 35.40625 47.488281 35.972656 C 47.488281 36.734375 48.328125 37.066406 49.089844 37.066406 C 49.949219 37.066406 50.574219 36.382812 50.945312 35.660156 C 51.238281 36.714844 52.117188 37.066406 52.78125 37.066406 C 54.617188 37.066406 55.59375 34.722656 55.59375 34.332031 C 55.59375 34.234375 55.515625 34.15625 55.398438 34.15625 C 55.242188 34.15625 55.222656 34.253906 55.183594 34.390625 C 54.695312 35.972656 53.640625 36.714844 52.839844 36.714844 C 52.214844 36.714844 51.882812 36.246094 51.882812 35.503906 C 51.882812 35.113281 51.941406 34.820312 52.234375 33.648438 L 52.859375 31.207031 C 53.132812 30.132812 53.738281 29.351562 54.558594 29.351562 C 54.597656 29.351562 55.105469 29.351562 55.476562 29.566406 Z M 55.476562 29.566406 "/>
<path style=" stroke:none;fill-rule:nonzero;fill:rgb(0%,0%,0%);fill-opacity:1;" d="M 67.210938 12.421875 L 65.667969 12.421875 L 65.667969 13.964844 L 67.210938 13.964844 Z M 67.113281 16.621094 L 65.785156 16.621094 L 65.785156 24.589844 L 67.113281 24.589844 Z M 67.113281 16.621094 "/>
<path style=" stroke:none;fill-rule:nonzero;fill:rgb(0%,0%,0%);fill-opacity:1;" d="M 71.683594 17.675781 L 73.597656 17.675781 L 73.597656 16.621094 L 71.644531 16.621094 L 71.644531 14.472656 C 71.644531 13.261719 72.660156 13.046875 73.265625 13.046875 C 73.890625 13.046875 74.4375 13.242188 74.652344 13.320312 L 74.652344 12.148438 C 74.535156 12.109375 73.929688 11.972656 73.285156 11.972656 C 71.566406 11.972656 70.355469 13.28125 70.355469 15.019531 L 70.355469 16.621094 L 69.046875 16.621094 L 69.046875 17.675781 L 70.355469 17.675781 L 70.355469 24.589844 L 71.683594 24.589844 Z M 71.683594 17.675781 "/>
<path style=" stroke:none;fill-rule:nonzero;fill:rgb(0%,0%,0%);fill-opacity:1;" d="M 85.5 28.945312 C 85.5 28.886719 85.5 28.847656 85.207031 28.554688 C 83.410156 26.738281 82.414062 23.789062 82.414062 20.117188 C 82.414062 16.640625 83.253906 13.652344 85.324219 11.542969 C 85.5 11.367188 85.5 11.347656 85.5 11.289062 C 85.5 11.171875 85.421875 11.152344 85.34375 11.152344 C 85.109375 11.152344 83.644531 12.441406 82.765625 14.199219 C 81.847656 15.996094 81.4375 17.929688 81.4375 20.117188 C 81.4375 21.71875 81.691406 23.847656 82.628906 25.78125 C 83.683594 27.929688 85.148438 29.082031 85.34375 29.082031 C 85.421875 29.082031 85.5 29.0625 85.5 28.945312 Z M 85.5 28.945312 "/>
<path style=" stroke:none;fill-rule:nonzero;fill:rgb(0%,0%,0%);fill-opacity:1;" d="M 95.074219 17.265625 C 94.507812 17.382812 94.292969 17.8125 94.292969 18.144531 C 94.292969 18.574219 94.625 18.730469 94.878906 18.730469 C 95.425781 18.730469 95.796875 18.261719 95.796875 17.773438 C 95.796875 17.03125 94.9375 16.679688 94.175781 16.679688 C 93.082031 16.679688 92.476562 17.753906 92.320312 18.105469 C 91.910156 16.757812 90.796875 16.679688 90.464844 16.679688 C 88.648438 16.679688 87.671875 19.023438 87.671875 19.433594 C 87.671875 19.492188 87.75 19.589844 87.867188 19.589844 C 88.003906 19.589844 88.042969 19.472656 88.082031 19.414062 C 88.6875 17.421875 89.898438 17.050781 90.40625 17.050781 C 91.226562 17.050781 91.382812 17.792969 91.382812 18.222656 C 91.382812 18.613281 91.285156 19.023438 91.050781 19.882812 L 90.445312 22.34375 C 90.191406 23.417969 89.664062 24.414062 88.707031 24.414062 C 88.628906 24.414062 88.179688 24.414062 87.789062 24.179688 C 88.433594 24.042969 88.589844 23.515625 88.589844 23.300781 C 88.589844 22.949219 88.316406 22.734375 87.984375 22.734375 C 87.554688 22.734375 87.085938 23.105469 87.085938 23.671875 C 87.085938 24.433594 87.925781 24.765625 88.6875 24.765625 C 89.546875 24.765625 90.171875 24.082031 90.542969 23.359375 C 90.835938 24.414062 91.714844 24.765625 92.378906 24.765625 C 94.214844 24.765625 95.191406 22.421875 95.191406 22.03125 C 95.191406 21.933594 95.113281 21.855469 94.996094 21.855469 C 94.839844 21.855469 94.820312 21.953125 94.78125 22.089844 C 94.292969 23.671875 93.238281 24.414062 92.4375 24.414062 C 91.8125 24.414062 91.480469 23.945312 91.480469 23.203125 C 91.480469 22.8125 91.539062 22.519531 91.832031 21.347656 L 92.457031 18.90625 C 92.730469 17.832031 93.335938 17.050781 94.15625 17.050781 C 94.195312 17.050781 94.703125 17.050781 95.074219 17.265625 Z M 95.074219 17.265625 "/>
<path style=" stroke:none;fill-rule:nonzero;fill:rgb(0%,0%,0%);fill-opacity:1;" d="M 98.210938 17.183594 L 99.539062 15.894531 C 101.472656 14.175781 102.214844 13.511719 102.214844 12.261719 C 102.214844 10.835938 101.101562 9.839844 99.578125 9.839844 C 98.171875 9.839844 97.253906 10.992188 97.253906 12.105469 C 97.253906 12.789062 97.878906 12.789062 97.917969 12.789062 C 98.132812 12.789062 98.5625 12.652344 98.5625 12.125 C 98.5625 11.8125 98.328125 11.480469 97.898438 11.480469 C 97.800781 11.480469 97.78125 11.480469 97.742188 11.5 C 98.015625 10.679688 98.699219 10.230469 99.421875 10.230469 C 100.554688 10.230469 101.082031 11.246094 101.082031 12.261719 C 101.082031 13.257812 100.476562 14.234375 99.773438 15.015625 L 97.390625 17.671875 C 97.253906 17.808594 97.253906 17.847656 97.253906 18.140625 L 101.882812 18.140625 L 102.214844 15.972656 L 101.921875 15.972656 C 101.84375 16.34375 101.765625 16.890625 101.628906 17.085938 C 101.550781 17.183594 100.730469 17.183594 100.457031 17.183594 Z M 98.210938 17.183594 "/>
<path style=" stroke:none;fill-rule:nonzero;fill:rgb(0%,0%,0%);fill-opacity:1;" d="M 114.425781 20.449219 L 119.386719 20.449219 C 119.640625 20.449219 119.953125 20.449219 119.953125 20.117188 C 119.953125 19.785156 119.640625 19.785156 119.386719 19.785156 L 114.425781 19.785156 L 114.425781 14.84375 C 114.425781 14.589844 114.425781 14.257812 114.113281 14.257812 C 113.761719 14.257812 113.761719 14.570312 113.761719 14.84375 L 113.761719 19.785156 L 108.820312 19.785156 C 108.566406 19.785156 108.253906 19.785156 108.253906 20.117188 C 108.253906 20.449219 108.546875 20.449219 108.820312 20.449219 L 113.761719 20.449219 L 113.761719 25.390625 C 113.761719 25.644531 113.761719 25.976562 114.09375 25.976562 C 114.425781 25.976562 114.425781 25.664062 114.425781 25.390625 Z M 114.425781 20.449219 "/>
<path style=" stroke:none;fill-rule:nonzero;fill:rgb(0%,0%,0%);fill-opacity:1;" d="M 129.6875 26.601562 C 129.21875 27.285156 128.515625 27.890625 127.636719 27.890625 C 127.421875 27.890625 126.5625 27.851562 126.289062 27.03125 C 126.347656 27.050781 126.425781 27.050781 126.464844 27.050781 C 127.011719 27.050781 127.363281 26.582031 127.363281 26.171875 C 127.363281 25.761719 127.03125 25.605469 126.757812 25.605469 C 126.464844 25.605469 125.839844 25.820312 125.839844 26.699219 C 125.839844 27.617188 126.621094 28.242188 127.636719 28.242188 C 129.433594 28.242188 131.230469 26.601562 131.738281 24.609375 L 133.496094 17.617188 C 133.515625 17.519531 133.554688 17.421875 133.554688 17.304688 C 133.554688 17.050781 133.339844 16.855469 133.066406 16.855469 C 132.910156 16.855469 132.519531 16.933594 132.382812 17.480469 L 131.054688 22.734375 C 130.976562 23.066406 130.976562 23.105469 130.820312 23.300781 C 130.46875 23.808594 129.882812 24.414062 129.023438 24.414062 C 128.007812 24.414062 127.929688 23.417969 127.929688 22.949219 C 127.929688 21.914062 128.398438 20.546875 128.886719 19.238281 C 129.082031 18.730469 129.199219 18.476562 129.199219 18.125 C 129.199219 17.363281 128.652344 16.679688 127.773438 16.679688 C 126.132812 16.679688 125.46875 19.277344 125.46875 19.433594 C 125.46875 19.492188 125.527344 19.589844 125.664062 19.589844 C 125.820312 19.589844 125.839844 19.511719 125.917969 19.257812 C 126.347656 17.753906 127.03125 17.050781 127.714844 17.050781 C 127.890625 17.050781 128.183594 17.050781 128.183594 17.636719 C 128.183594 18.105469 127.988281 18.613281 127.714844 19.296875 C 126.835938 21.640625 126.835938 22.246094 126.835938 22.675781 C 126.835938 24.375 128.066406 24.765625 128.964844 24.765625 C 129.472656 24.765625 130.117188 24.609375 130.761719 23.945312 L 130.78125 23.964844 C 130.507812 25.019531 130.332031 25.722656 129.6875 26.601562 Z M 129.6875 26.601562 "/>
<path style=" stroke:none;fill-rule:nonzero;fill:rgb(0%,0%,0%);fill-opacity:1;" d="M 135.710938 17.183594 L 137.039062 15.894531 C 138.972656 14.175781 139.714844 13.511719 139.714844 12.261719 C 139.714844 10.835938 138.601562 9.839844 137.078125 9.839844 C 135.671875 9.839844 134.753906 10.992188 134.753906 12.105469 C 134.753906 12.789062 135.378906 12.789062 135.417969 12.789062 C 135.632812 12.789062 136.0625 12.652344 136.0625 12.125 C 136.0625 11.8125 135.828125 11.480469 135.398438 11.480469 C 135.300781 11.480469 135.28125 11.480469 135.242188 11.5 C 135.515625 10.679688 136.199219 10.230469 136.921875 10.230469 C 138.054688 10.230469 138.582031 11.246094 138.582031 12.261719 C 138.582031 13.257812 137.976562 14.234375 137.273438 15.015625 L 134.890625 17.671875 C 134.753906 17.808594 134.753906 17.847656 134.753906 18.140625 L 139.382812 18.140625 L 139.714844 15.972656 L 139.421875 15.972656 C 139.34375 16.34375 139.265625 16.890625 139.128906 17.085938 C 139.050781 17.183594 138.230469 17.183594 137.957031 17.183594 Z M 135.710938 17.183594 "/>
<path style=" stroke:none;fill-rule:nonzero;fill:rgb(0%,0%,0%);fill-opacity:1;" d="M 146.085938 20.117188 C 146.085938 18.769531 145.910156 16.542969 144.894531 14.453125 C 143.839844 12.304688 142.375 11.152344 142.179688 11.152344 C 142.101562 11.152344 142.003906 11.171875 142.003906 11.289062 C 142.003906 11.347656 142.003906 11.367188 142.316406 11.679688 C 144.113281 13.496094 145.109375 16.445312 145.109375 20.117188 C 145.109375 23.59375 144.269531 26.582031 142.199219 28.691406 C 142.003906 28.847656 142.003906 28.886719 142.003906 28.945312 C 142.003906 29.0625 142.101562 29.082031 142.179688 29.082031 C 142.414062 29.082031 143.878906 27.792969 144.757812 26.035156 C 145.675781 24.21875 146.085938 22.285156 146.085938 20.117188 Z M 146.085938 20.117188 "/>
<path style=" stroke:none;fill-rule:nonzero;fill:rgb(0%,0%,0%);fill-opacity:1;" d="M 149.511719 17.183594 L 150.839844 15.894531 C 152.773438 14.175781 153.515625 13.511719 153.515625 12.261719 C 153.515625 10.835938 152.402344 9.839844 150.878906 9.839844 C 149.472656 9.839844 148.554688 10.992188 148.554688 12.105469 C 148.554688 12.789062 149.179688 12.789062 149.21875 12.789062 C 149.433594 12.789062 149.863281 12.652344 149.863281 12.125 C 149.863281 11.8125 149.628906 11.480469 149.199219 11.480469 C 149.101562 11.480469 149.082031 11.480469 149.042969 11.5 C 149.316406 10.679688 150 10.230469 150.722656 10.230469 C 151.855469 10.230469 152.382812 11.246094 152.382812 12.261719 C 152.382812 13.257812 151.777344 14.234375 151.074219 15.015625 L 148.691406 17.671875 C 148.554688 17.808594 148.554688 17.847656 148.554688 18.140625 L 153.183594 18.140625 L 153.515625 15.972656 L 153.222656 15.972656 C 153.144531 16.34375 153.066406 16.890625 152.929688 17.085938 C 152.851562 17.183594 152.03125 17.183594 151.757812 17.183594 Z M 149.511719 17.183594 "/>
<path style=" stroke:none;fill-rule:nonzero;fill:rgb(0%,0%,0%);fill-opacity:1;" d="M 171.738281 18.789062 C 171.992188 18.789062 172.304688 18.789062 172.304688 18.457031 C 172.304688 18.125 171.992188 18.125 171.738281 18.125 L 161.171875 18.125 C 160.917969 18.125 160.605469 18.125 160.605469 18.4375 C 160.605469 18.789062 160.898438 18.789062 161.171875 18.789062 Z M 171.738281 22.109375 C 171.992188 22.109375 172.304688 22.109375 172.304688 21.796875 C 172.304688 21.445312 171.992188 21.445312 171.738281 21.445312 L 161.171875 21.445312 C 160.917969 21.445312 160.605469 21.445312 160.605469 21.777344 C 160.605469 22.109375 160.898438 22.109375 161.171875 22.109375 Z M 171.738281 22.109375 "/>
<path style=" stroke:none;fill-rule:nonzero;fill:rgb(0%,0%,0%);fill-opacity:1;" d="M 186.875 17.265625 C 186.308594 17.382812 186.09375 17.8125 186.09375 18.144531 C 186.09375 18.574219 186.425781 18.730469 186.679688 18.730469 C 187.226562 18.730469 187.597656 18.261719 187.597656 17.773438 C 187.597656 17.03125 186.738281 16.679688 185.976562 16.679688 C 184.882812 16.679688 184.277344 17.753906 184.121094 18.105469 C 183.710938 16.757812 182.597656 16.679688 182.265625 16.679688 C 180.449219 16.679688 179.472656 19.023438 179.472656 19.433594 C 179.472656 19.492188 179.550781 19.589844 179.667969 19.589844 C 179.804688 19.589844 179.84375 19.472656 179.882812 19.414062 C 180.488281 17.421875 181.699219 17.050781 182.207031 17.050781 C 183.027344 17.050781 183.183594 17.792969 183.183594 18.222656 C 183.183594 18.613281 183.085938 19.023438 182.851562 19.882812 L 182.246094 22.34375 C 181.992188 23.417969 181.464844 24.414062 180.507812 24.414062 C 180.429688 24.414062 179.980469 24.414062 179.589844 24.179688 C 180.234375 24.042969 180.390625 23.515625 180.390625 23.300781 C 180.390625 22.949219 180.117188 22.734375 179.785156 22.734375 C 179.355469 22.734375 178.886719 23.105469 178.886719 23.671875 C 178.886719 24.433594 179.726562 24.765625 180.488281 24.765625 C 181.347656 24.765625 181.972656 24.082031 182.34375 23.359375 C 182.636719 24.414062 183.515625 24.765625 184.179688 24.765625 C 186.015625 24.765625 186.992188 22.421875 186.992188 22.03125 C 186.992188 21.933594 186.914062 21.855469 186.796875 21.855469 C 186.640625 21.855469 186.621094 21.953125 186.582031 22.089844 C 186.09375 23.671875 185.039062 24.414062 184.238281 24.414062 C 183.613281 24.414062 183.28125 23.945312 183.28125 23.203125 C 183.28125 22.8125 183.339844 22.519531 183.632812 21.347656 L 184.257812 18.90625 C 184.53125 17.832031 185.136719 17.050781 185.957031 17.050781 C 185.996094 17.050781 186.503906 17.050781 186.875 17.265625 Z M 186.875 17.265625 "/>
<path style=" stroke:none;fill-rule:nonzero;fill:rgb(0%,0%,0%);fill-opacity:1;" d="M 193.136719 26.601562 C 192.667969 27.285156 191.964844 27.890625 191.085938 27.890625 C 190.871094 27.890625 190.011719 27.851562 189.738281 27.03125 C 189.796875 27.050781 189.875 27.050781 189.914062 27.050781 C 190.460938 27.050781 190.8125 26.582031 190.8125 26.171875 C 190.8125 25.761719 190.480469 25.605469 190.207031 25.605469 C 189.914062 25.605469 189.289062 25.820312 189.289062 26.699219 C 189.289062 27.617188 190.070312 28.242188 191.085938 28.242188 C 192.882812 28.242188 194.679688 26.601562 195.1875 24.609375 L 196.945312 17.617188 C 196.964844 17.519531 197.003906 17.421875 197.003906 17.304688 C 197.003906 17.050781 196.789062 16.855469 196.515625 16.855469 C 196.359375 16.855469 195.96875 16.933594 195.832031 17.480469 L 194.503906 22.734375 C 194.425781 23.066406 194.425781 23.105469 194.269531 23.300781 C 193.917969 23.808594 193.332031 24.414062 192.472656 24.414062 C 191.457031 24.414062 191.378906 23.417969 191.378906 22.949219 C 191.378906 21.914062 191.847656 20.546875 192.335938 19.238281 C 192.53125 18.730469 192.648438 18.476562 192.648438 18.125 C 192.648438 17.363281 192.101562 16.679688 191.222656 16.679688 C 189.582031 16.679688 188.917969 19.277344 188.917969 19.433594 C 188.917969 19.492188 188.976562 19.589844 189.113281 19.589844 C 189.269531 19.589844 189.289062 19.511719 189.367188 19.257812 C 189.796875 17.753906 190.480469 17.050781 191.164062 17.050781 C 191.339844 17.050781 191.632812 17.050781 191.632812 17.636719 C 191.632812 18.105469 191.4375 18.613281 191.164062 19.296875 C 190.285156 21.640625 190.285156 22.246094 190.285156 22.675781 C 190.285156 24.375 191.515625 24.765625 192.414062 24.765625 C 192.921875 24.765625 193.566406 24.609375 194.210938 23.945312 L 194.230469 23.964844 C 193.957031 25.019531 193.78125 25.722656 193.136719 26.601562 Z M 193.136719 26.601562 "/>
</g>
</svg>
