<?xml version="1.0" encoding="UTF-8" standalone="no"?>
<!-- Created with Inkscape (http://www.inkscape.org/) -->

<svg
   xmlns:dc="http://purl.org/dc/elements/1.1/"
   xmlns:cc="http://creativecommons.org/ns#"
   xmlns:rdf="http://www.w3.org/1999/02/22-rdf-syntax-ns#"
   xmlns:svg="http://www.w3.org/2000/svg"
   xmlns="http://www.w3.org/2000/svg"
   xmlns:sodipodi="http://sodipodi.sourceforge.net/DTD/sodipodi-0.dtd"
   xmlns:inkscape="http://www.inkscape.org/namespaces/inkscape"
   width="576.39532"
   height="513.31329"
   id="svg4407"
   version="1.1"
   inkscape:version="0.48.3.1 r9886"
   sodipodi:docname="wrong.svg">
  <sodipodi:namedview
     id="base"
     pagecolor="#ffffff"
     bordercolor="#666666"
     borderopacity="1.0"
     inkscape:pageopacity="0.0"
     inkscape:pageshadow="2"
     inkscape:zoom="0.39910214"
     inkscape:cx="256.52734"
     inkscape:cy="65.646337"
     inkscape:document-units="px"
     inkscape:current-layer="layer1"
     showgrid="false"
     inkscape:window-width="879"
     inkscape:window-height="615"
     inkscape:window-x="100"
     inkscape:window-y="36"
     inkscape:window-maximized="0"
     fit-margin-top="0"
     fit-margin-left="0"
     fit-margin-right="0"
     fit-margin-bottom="0"
     showborder="false"
     inkscape:showpageshadow="false" />
  <defs
     id="defs4409" />
  <metadata
     id="metadata4412">
    <rdf:RDF>
      <cc:Work
         rdf:about="">
        <dc:format>image/svg+xml</dc:format>
        <dc:type
           rdf:resource="http://purl.org/dc/dcmitype/StillImage" />
        <dc:title />
      </cc:Work>
    </rdf:RDF>
  </metadata>
  <g
     inkscape:label="Layer 1"
     inkscape:groupmode="layer"
     id="layer1"
     transform="translate(-27.823056,-78.514133)">
    <path
       style="fill:none;stroke:#000000;stroke-width:3;stroke-opacity:1;stroke-miterlimit:4;stroke-dasharray:none"
       d="m 314.64624,341.8273 c -8e-5,-2.46387 -0.0783,-4.92773 -0.23448,-7.38664 -0.15619,-2.45892 -0.39067,-4.91285 -0.7025,-7.3569 -0.31183,-2.44406 -0.70147,-4.87818 -1.16769,-7.29754 -0.46621,-2.41936 -1.00945,-4.82386 -1.62817,-7.20878 -0.61872,-2.38492 -1.31337,-4.75013 -2.08211,-7.09101 -0.76873,-2.34087 -1.612,-4.65726 -2.52765,-6.94467 -0.91566,-2.2874 -1.90414,-4.54565 -2.96303,-6.77037 -1.05888,-2.22473 -2.1886,-4.41574 -3.38646,-6.56882 -1.19785,-2.15309 -2.46426,-4.26803 -3.79626,-6.34082 -1.332,-2.07278 -2.73,-4.10314 -4.19078,-6.08727 -1.46079,-1.98412 -2.98474,-3.92173 -4.56842,-5.80922 -1.58369,-1.88748 -3.22746,-3.72453 -4.92767,-5.50777 -1.70021,-1.78324 -3.45719,-3.51234 -5.26707,-5.18416 -1.80988,-1.67181 -3.67299,-3.286 -5.58527,-4.83966 -1.91227,-1.55366 -3.874,-3.04643 -5.88097,-4.47568 -2.00696,-1.42924 -4.05942,-2.79459 -6.15299,-4.09367 -2.09357,-1.29908 -4.2285,-2.5315 -6.40025,-3.69518 -2.17175,-1.16368 -4.38054,-2.25822 -6.62172,-3.28182 -2.24118,-1.0236 -4.51494,-1.97583 -6.81653,-2.85523 -2.30159,-0.87939 -4.63118,-1.6855 -6.98391,-2.41715 -2.35273,-0.73165 -4.72874,-1.38838 -7.12314,-1.96934 -2.3944,-0.58095 -4.80729,-1.08567 -7.23371,-1.5136 -2.42642,-0.42792 -4.86646,-0.77859 -7.31514,-1.05175 -2.44868,-0.27317 -4.90605,-0.46838 -7.36712,-0.58569 -2.46108,-0.11731 -4.92588,-0.15627 -7.38944,-0.11726 -2.46356,0.039 -4.92587,0.15647 -7.382,0.35165 -2.45612,0.19519 -4.90602,0.46857 -7.34483,0.81914 -2.4388,0.35056 -4.86643,0.77878 -7.27808,1.28332 -2.41166,0.50454 -4.80725,1.08586 -7.18205,1.74235 -2.3748,0.65648 -4.72869,1.38857 -7.05707,2.19435 -2.32839,0.80577 -4.63111,1.68568 -6.9037,2.63752 -2.27259,0.95183 -4.51487,1.97601 -6.72251,3.07006 -2.20765,1.09406 -4.38045,2.25839 -6.51427,3.49026 -2.13381,1.23187 -4.22839,2.53167 -6.27978,3.89639 -2.05138,1.36472 -4.05931,2.79475 -6.02001,4.28683 -1.9607,1.49208 -3.87389,3.04659 -5.73601,4.66002 -1.86212,1.61343 -3.67286,3.28614 -5.4289,5.01443 -1.75604,1.72829 -3.45705,3.51248 -5.09994,5.34866 -1.64289,1.83618 -3.22731,3.72466 -4.75043,5.66135 -1.52313,1.93668 -2.98458,3.92185 -4.38181,5.95124 -1.39722,2.02939 -2.729831,4.10325 -3.995531,6.21717 -1.265701,2.11392 -2.464093,4.26813 -3.593172,6.45807 -1.12908,2.18994 -2.18843,4.41582 -3.176342,6.67296 -0.987912,2.25713 -1.903955,4.54572 -2.746721,6.86097 -0.842767,2.31526 -1.611815,4.65733 -2.306042,7.02138 -0.694227,2.36404 -1.313183,4.75018 -1.856075,7.15349 -0.542893,2.40332 -1.009264,4.82391 -1.398636,7.25681 -0.389372,2.43291 -0.701281,4.87821 -0.935565,7.33091 -0.234283,2.45271 -0.390474,4.91286 -0.468726,7.37549 -0.07825,2.46263 -0.0781,4.92774 0,7.39037 0.0781,2.46263 0.234599,4.92276 0.468726,7.37548 0.234128,2.45272 0.546347,4.89798 0.935565,7.33091 0.389217,2.43293 0.855896,4.85347 1.398636,7.25681 0.54274,2.40335 1.161998,4.78941 1.856075,7.1535 0.694077,2.36409 1.463422,4.70607 2.306042,7.02137 0.842619,2.31531 1.758953,4.60378 2.746721,6.86098 0.987769,2.2572 2.047401,4.48295 3.176342,6.67296 1.12894,2.19001 2.327605,4.34407 3.593172,6.45806 1.265566,2.114 2.598441,4.1877 3.995531,6.21718 1.3971,2.02947 2.85881,4.01446 4.38181,5.95124 1.523,1.93678 3.10766,3.82506 4.75043,5.66135 1.64278,1.83628 3.34401,3.62026 5.09994,5.34866 1.75593,1.72839 3.56689,3.40088 5.4289,5.01443 1.86202,1.61355 3.7754,3.16781 5.73601,4.66001 1.9606,1.49221 3.96871,2.92199 6.02001,4.28684 2.0513,1.36485 4.14605,2.66438 6.27978,3.89639 2.13374,1.232 4.30669,2.39606 6.51427,3.49025 2.20757,1.09419 4.44998,2.11809 6.72251,3.07007 2.27253,0.95198 4.57536,1.83159 6.9037,2.63752 2.32833,0.80593 4.68231,1.53772 7.05707,2.19435 2.37476,0.65663 4.77042,1.23765 7.18205,1.74235 2.41162,0.50469 4.83931,0.9326 7.27808,1.28332 2.43878,0.35072 4.88872,0.62379 7.34483,0.81913 2.45612,0.19534 4.91844,0.31248 7.382,0.35165 2.46356,0.0392 4.92835,-1e-4 7.38944,-0.11725 2.46108,-0.11716 4.91842,-0.31268 7.36712,-0.58569 2.44869,-0.27301 4.88869,-0.62399 7.31514,-1.05176 2.42645,-0.42777 4.83927,-0.93279 7.23371,-1.51359 2.39443,-0.58081 4.77037,-1.23785 7.12314,-1.96934 2.35278,-0.7315 4.68226,-1.53791 6.98391,-2.41716 2.30164,-0.87924 4.57528,-1.83177 6.81653,-2.85523 2.24125,-1.02345 4.4499,-2.11827 6.62172,-3.28181 2.17183,-1.16355 4.30659,-2.39624 6.40025,-3.69519 2.09365,-1.29894 4.14594,-2.66455 6.15299,-4.09367 2.00706,-1.42912 3.9686,-2.92214 5.88097,-4.47567 1.91238,-1.55354 3.77528,-3.16796 5.58527,-4.83966 1.80999,-1.67171 3.56675,-3.40103 5.26707,-5.18416 1.70032,-1.78313 3.34386,-3.62039 4.92767,-5.50778 1.5838,-1.88738 3.10751,-3.82518 4.56842,-5.80922 1.46091,-1.98403 2.85865,-4.01457 4.19078,-6.08727 1.33213,-2.07269 2.59827,-4.1878 3.79626,-6.34081 1.198,-2.15301 2.32744,-4.34416 3.38646,-6.56882 1.05903,-2.22466 2.04723,-4.48303 2.96303,-6.77038 0.9158,-2.28734 1.75877,-4.60384 2.52765,-6.94467 0.76889,-2.34082 1.46324,-4.70612 2.08211,-7.091 0.61887,-2.38488 1.16181,-4.78946 1.62817,-7.20879 0.46637,-2.41932 0.85571,-4.85349 1.16769,-7.29753 0.31199,-2.44404 0.54615,-4.898 0.7025,-7.3569 0.15635,-2.45891 0.2344,-4.92278 0.23448,-7.38665"
       title="1.4*cos(t) -1.4 1.4*sin(t)"
       id="path4931"
       inkscape:connector-curvature="0" />
    <path
       id="path4944"
       title="1.4*cos(t)  1.4*sin(t)"
       d="m 65.079117,341.8273 499.134253,0 m -249.56713,249.56713 0,-499.134252 M 431.1109,341.8273 c -8e-5,-2.46387 -0.0783,-4.92773 -0.23448,-7.38664 -0.15619,-2.45892 -0.39067,-4.91285 -0.7025,-7.3569 -0.31183,-2.44406 -0.70147,-4.87818 -1.16769,-7.29754 -0.46621,-2.41936 -1.00945,-4.82386 -1.62817,-7.20878 -0.61872,-2.38492 -1.31337,-4.75013 -2.08211,-7.09101 -0.76874,-2.34087 -1.612,-4.65726 -2.52765,-6.94467 -0.91566,-2.2874 -1.90414,-4.54565 -2.96303,-6.77037 -1.05888,-2.22473 -2.1886,-4.41574 -3.38646,-6.56882 -1.19786,-2.15309 -2.46426,-4.26803 -3.79626,-6.34082 -1.332,-2.07278 -2.73,-4.10314 -4.19078,-6.08727 -1.46079,-1.98412 -2.98474,-3.92173 -4.56842,-5.80922 -1.58369,-1.88748 -3.22746,-3.72453 -4.92767,-5.50777 -1.70021,-1.78324 -3.45719,-3.51234 -5.26707,-5.18416 -1.80989,-1.67181 -3.67299,-3.286 -5.58527,-4.83966 -1.91227,-1.55366 -3.87401,-3.04643 -5.88097,-4.47568 -2.00696,-1.42924 -4.05942,-2.79459 -6.15299,-4.09367 -2.09357,-1.29908 -4.2285,-2.5315 -6.40025,-3.69518 -2.17175,-1.16368 -4.38054,-2.25822 -6.62172,-3.28182 -2.24118,-1.0236 -4.51495,-1.97583 -6.81654,-2.85523 -2.30159,-0.87939 -4.63117,-1.6855 -6.9839,-2.41715 -2.35273,-0.73165 -4.72875,-1.38838 -7.12314,-1.96934 -2.3944,-0.58095 -4.80729,-1.08567 -7.23371,-1.5136 -2.42643,-0.42792 -4.86647,-0.77859 -7.31514,-1.05175 -2.44868,-0.27317 -4.90605,-0.46838 -7.36713,-0.58569 -2.46107,-0.11731 -4.92587,-0.15627 -7.38943,-0.11726 -2.46356,0.039 -4.92587,0.15647 -7.382,0.35165 -2.45612,0.19519 -4.90603,0.46857 -7.34483,0.81914 -2.4388,0.35056 -4.86643,0.77878 -7.27809,1.28332 -2.41165,0.50454 -4.80724,1.08586 -7.18204,1.74235 -2.3748,0.65648 -4.72869,1.38857 -7.05708,2.19435 -2.32838,0.80577 -4.6311,1.68568 -6.90369,2.63752 -2.27259,0.95183 -4.51487,1.97601 -6.72251,3.07006 -2.20765,1.09406 -4.38046,2.25839 -6.51427,3.49026 -2.13381,1.23187 -4.22839,2.53167 -6.27978,3.89639 -2.05139,1.36472 -4.05931,2.79475 -6.02001,4.28683 -1.9607,1.49208 -3.87389,3.04659 -5.73601,4.66002 -1.86212,1.61343 -3.67286,3.28614 -5.4289,5.01443 -1.75604,1.72829 -3.45705,3.51248 -5.09994,5.34866 -1.64289,1.83618 -3.22731,3.72466 -4.75043,5.66135 -1.52313,1.93668 -2.98458,3.92185 -4.38181,5.95124 -1.39723,2.02939 -2.72983,4.10325 -3.99553,6.21717 -1.2657,2.11392 -2.4641,4.26813 -3.59317,6.45807 -1.12908,2.18994 -2.18843,4.41582 -3.17635,6.67296 -0.98791,2.25713 -1.90395,4.54572 -2.74672,6.86097 -0.84276,2.31526 -1.61181,4.65733 -2.30604,7.02138 -0.69423,2.36404 -1.31318,4.75018 -1.85607,7.15349 -0.5429,2.40332 -1.00927,4.82391 -1.39864,7.25681 -0.38937,2.43291 -0.70128,4.87821 -0.93557,7.33091 -0.23428,2.45271 -0.39047,4.91286 -0.46872,7.37549 -0.0782,2.46263 -0.0781,4.92774 0,7.39037 0.0781,2.46263 0.2346,4.92276 0.46872,7.37548 0.23413,2.45272 0.54635,4.89798 0.93557,7.33091 0.38922,2.43293 0.8559,4.85347 1.39864,7.25681 0.54274,2.40335 1.16199,4.78941 1.85607,7.1535 0.69408,2.36409 1.46342,4.70607 2.30604,7.02137 0.84262,2.31531 1.75895,4.60378 2.74672,6.86098 0.98777,2.2572 2.0474,4.48295 3.17635,6.67296 1.12894,2.19001 2.3276,4.34407 3.59317,6.45806 1.26556,2.114 2.59843,4.1877 3.99553,6.21718 1.3971,2.02947 2.85881,4.01446 4.38181,5.95124 1.523,1.93678 3.10766,3.82506 4.75043,5.66135 1.64278,1.83628 3.34401,3.62026 5.09994,5.34866 1.75593,1.72839 3.56688,3.40088 5.4289,5.01443 1.86202,1.61355 3.7754,3.16781 5.73601,4.66001 1.9606,1.49221 3.96871,2.92199 6.02001,4.28684 2.0513,1.36485 4.14605,2.66438 6.27978,3.89639 2.13374,1.232 4.30669,2.39606 6.51427,3.49025 2.20757,1.09419 4.44998,2.11809 6.72251,3.07007 2.27253,0.95198 4.57536,1.83159 6.90369,2.63752 2.32834,0.80593 4.68232,1.53772 7.05708,2.19435 2.37476,0.65663 4.77042,1.23765 7.18204,1.74235 2.41163,0.50469 4.83931,0.9326 7.27809,1.28332 2.43878,0.35072 4.88872,0.62379 7.34483,0.81913 2.45612,0.19534 4.91844,0.31248 7.382,0.35165 2.46356,0.0392 4.92835,-1e-4 7.38943,-0.11725 2.46109,-0.11716 4.91843,-0.31268 7.36713,-0.58569 2.44869,-0.27301 4.88869,-0.62399 7.31514,-1.05176 2.42645,-0.42777 4.83927,-0.93279 7.23371,-1.51359 2.39443,-0.58081 4.77037,-1.23785 7.12314,-1.96934 2.35278,-0.7315 4.68226,-1.53791 6.9839,-2.41716 2.30165,-0.87924 4.57529,-1.83177 6.81654,-2.85523 2.24125,-1.02345 4.4499,-2.11827 6.62172,-3.28181 2.17182,-1.16355 4.30659,-2.39624 6.40025,-3.69519 2.09365,-1.29894 4.14594,-2.66455 6.15299,-4.09367 2.00706,-1.42912 3.9686,-2.92214 5.88097,-4.47567 1.91238,-1.55354 3.77528,-3.16796 5.58527,-4.83966 1.80999,-1.67171 3.56675,-3.40103 5.26707,-5.18416 1.70032,-1.78313 3.34386,-3.62039 4.92767,-5.50778 1.5838,-1.88738 3.10751,-3.82518 4.56842,-5.80922 1.46091,-1.98403 2.85864,-4.01457 4.19078,-6.08727 1.33213,-2.07269 2.59827,-4.1878 3.79626,-6.34081 1.19799,-2.15301 2.32743,-4.34416 3.38646,-6.56882 1.05903,-2.22466 2.04723,-4.48303 2.96303,-6.77038 0.9158,-2.28734 1.75877,-4.60384 2.52765,-6.94467 0.76888,-2.34082 1.46324,-4.70612 2.08211,-7.091 0.61887,-2.38488 1.16181,-4.78946 1.62817,-7.20879 0.46637,-2.41932 0.85571,-4.85349 1.16769,-7.29753 0.31199,-2.44404 0.54615,-4.898 0.7025,-7.3569 0.15635,-2.45891 0.2344,-4.92278 0.23448,-7.38665"
       style="fill:none;stroke:#000000;stroke-width:3;stroke-miterlimit:4;stroke-opacity:1;stroke-dasharray:none"
       inkscape:connector-curvature="0" />
    <path
       style="fill:#ececec;fill-opacity:1;stroke:none"
       d="m 198.95211,338.88568 c 0.23465,-10.13531 8.84123,-38.82286 15.26061,-50.86685 7.41357,-13.90929 36.64851,-44.97328 42.32524,-44.97328 1.27726,0 9.69677,6.89847 18.71002,15.32993 19.64787,18.37961 32.81189,42.77809 36.00329,66.72927 l 2.08665,15.66015 -57.21466,0 c -31.46806,0 -57.19508,-0.84565 -57.17115,-1.87922 z"
       id="path4959"
       inkscape:connector-curvature="0" />
    <path
       style="fill:#ececec;fill-opacity:1;stroke:none"
       d="m 237.04098,424.80856 c -20.9103,-19.35925 -31.12643,-39.80993 -36.66432,-73.39476 l -1.34277,-8.14328 57.15201,0 57.15202,0 -2.11158,15.44017 c -3.23365,23.64496 -16.5619,48.85024 -34.72193,65.66323 -8.38246,7.76068 -17.36736,14.11032 -19.96645,14.11032 -2.59908,0 -11.37272,-6.15406 -19.49698,-13.67568 z"
       id="path4961"
       inkscape:connector-curvature="0" />
    <g
       transform="matrix(0.80238681,0,0,0.80238681,-215.65458,222.36164)"
       id="g4972">
      <g
         style="font-style:normal;font-variant:normal;font-weight:normal;font-stretch:normal;letter-spacing:normal;word-spacing:normal;text-anchor:start;fill:none;stroke:#000000;stroke-linecap:butt;stroke-linejoin:miter;stroke-miterlimit:10.43299961;stroke-opacity:1;stroke-dasharray:none;stroke-dashoffset:0"
         id="content"
         transform="matrix(1.0629921,0,0,-1.0629921,-186.02362,789.27165)"
         xml:space="preserve"
         stroke-miterlimit="10.433"
         font-style="normal"
         font-variant="normal"
         font-weight="normal"
         font-stretch="normal"
         font-size-adjust="none"
         letter-spacing="normal"
         word-spacing="normal"><path
           style="fill:#000000;stroke-width:0"
           inkscape:connector-curvature="0"
           d="m 472,394.25 0,0.02 0,0.03 0,0.01 0,0.02 0,0.01 -0.01,0.02 0,0.01 -0.01,0.02 -0.01,0.02 -0.01,0.02 -0.01,0.02 -0.02,0.03 -0.01,0.02 -0.02,0.03 -0.02,0.03 -0.03,0.03 -0.02,0.03 -0.03,0.04 -0.02,0.02 -0.01,0.02 -0.02,0.02 -0.02,0.02 -0.02,0.02 -0.02,0.03 -0.02,0.02 -0.02,0.02 -0.02,0.03 -0.03,0.02 -0.02,0.03 -0.03,0.03 -0.03,0.03 -0.02,0.03 -0.03,0.03 -0.03,0.03 -0.03,0.03 -0.03,0.03 -0.04,0.04 -0.03,0.03 -0.04,0.04 -0.03,0.03 -0.04,0.04 -0.04,0.04 c -6.22,6.28 -7.81,15.69 -7.81,23.31 0,8.67 1.89,17.35 8.01,23.56 0.64,0.61 0.64,0.71 0.64,0.86 0,0.35 -0.18,0.49 -0.48,0.49 -0.5,0 -4.98,-3.38 -7.92,-9.7 -2.55,-5.49 -3.14,-11.02 -3.14,-15.21 0,-3.89 0.54,-9.9 3.28,-15.54 2.98,-6.13 7.28,-9.36 7.78,-9.36 0.3,0 0.48,0.14 0.48,0.5 z"
           id="path4975" /><path
           style="fill:#000000;stroke-width:0"
           inkscape:connector-curvature="0"
           d="m 491.48,421.25 0.03,0.13 0.03,0.15 0.04,0.16 0.05,0.18 0.05,0.19 0.06,0.21 0.07,0.22 0.07,0.22 0.08,0.23 0.09,0.24 0.09,0.25 0.11,0.24 0.11,0.25 0.12,0.25 0.13,0.25 0.13,0.25 0.15,0.24 0.16,0.24 0.16,0.23 0.18,0.22 0.19,0.22 0.2,0.2 0.21,0.19 0.22,0.18 0.23,0.16 0.24,0.14 0.13,0.07 0.13,0.06 0.13,0.05 0.14,0.05 0.14,0.05 0.14,0.04 0.15,0.03 0.15,0.03 0.15,0.02 0.15,0.02 0.16,0.01 0.16,0 c 0.25,0 1.44,0 2.49,-0.64 -1.39,-0.25 -2.39,-1.5 -2.39,-2.69 0,-0.79 0.54,-1.75 1.89,-1.75 1.09,0 2.69,0.89 2.69,2.89 0,2.6 -2.94,3.28 -4.63,3.28 -2.89,0 -4.64,-2.64 -5.23,-3.78 -1.25,3.28 -3.94,3.78 -5.38,3.78 -5.19,0 -8.03,-6.42 -8.03,-7.67 0,-0.5 0.5,-0.5 0.61,-0.5 0.39,0 0.55,0.11 0.64,0.55 1.69,5.28 4.98,6.53 6.67,6.53 0.96,0 2.69,-0.44 2.69,-3.33 0,-1.54 -0.84,-4.89 -2.69,-11.86 -0.79,-3.09 -2.53,-5.18 -4.73,-5.18 -0.3,0 -1.44,0 -2.49,0.65 1.25,0.24 2.35,1.28 2.35,2.69 0,1.34 -1.1,1.73 -1.85,1.73 -1.5,0 -2.75,-1.29 -2.75,-2.89 0,-2.28 2.5,-3.28 4.69,-3.28 3.3,0 5.08,3.49 5.24,3.78 0.59,-1.84 2.39,-3.78 5.37,-3.78 5.14,0 7.98,6.42 7.98,7.67 0,0.5 -0.45,0.5 -0.6,0.5 -0.44,0 -0.55,-0.2 -0.65,-0.54 -1.64,-5.33 -5.03,-6.53 -6.62,-6.53 -1.95,0 -2.75,1.59 -2.75,3.29 0,1.1 0.3,2.19 0.86,4.38 z"
           id="path4977" /><path
           style="fill:#000000;stroke-width:0"
           inkscape:connector-curvature="0"
           d="m 547.26,417.65 0.16,0 0.16,0 0.16,0.01 0.07,0 0.08,0.01 0.08,0 0.07,0.01 0.07,0.01 0.08,0.01 0.07,0.02 0.06,0.02 0.07,0.02 0.06,0.02 0.06,0.02 0.06,0.03 0.06,0.03 0.05,0.04 0.05,0.03 0.05,0.05 0.04,0.04 0.04,0.05 0.02,0.03 0.01,0.03 0.02,0.03 0.01,0.03 0.02,0.03 0.01,0.03 0.01,0.04 0.01,0.03 0.01,0.04 0.01,0.04 0.01,0.04 0,0.04 0.01,0.04 0,0.04 0,0.05 0,0.04 c 0,1 -0.91,1 -1.75,1 h -26.95 c -0.84,0 -1.74,0 -1.74,-1 0,-1 0.9,-1 1.74,-1 z"
           id="path4979" /><path
           style="fill:#000000;stroke-width:0"
           inkscape:connector-curvature="0"
           d="m 570.56,410.04 5.28,5.13 c 7.76,6.87 10.76,9.56 10.76,14.54 0,5.69 -4.48,9.68 -10.56,9.68 -5.64,0 -9.32,-4.6 -9.32,-9.03 0,-2.79 2.5,-2.79 2.63,-2.79 0.87,0 2.6,0.6 2.6,2.64 0,1.3 -0.89,2.6 -2.64,2.6 -0.39,0 -0.5,0 -0.64,-0.05 1.14,3.24 3.83,5.08 6.72,5.08 4.53,0 6.68,-4.05 6.68,-8.13 0,-3.98 -2.5,-7.92 -5.23,-11.01 l -9.56,-10.66 c -0.56,-0.54 -0.56,-0.64 -0.56,-1.84 h 18.48 l 1.4,8.67 h -1.25 c -0.25,-1.5 -0.59,-3.69 -1.09,-4.44 -0.36,-0.39 -3.64,-0.39 -4.73,-0.39 z"
           id="path4981" /><path
           style="fill:#000000;stroke-width:0"
           inkscape:connector-curvature="0"
           d="m 603.58,418.65 0,0.37 -0.01,0.39 -0.01,0.39 -0.01,0.41 -0.04,0.84 -0.06,0.88 -0.08,0.92 -0.11,0.95 -0.13,0.97 -0.17,1.01 -0.19,1.02 -0.23,1.03 -0.27,1.05 -0.31,1.06 -0.34,1.07 -0.4,1.07 -0.21,0.53 -0.23,0.53 -0.23,0.53 -0.25,0.53 c -2.99,6.12 -7.27,9.36 -7.77,9.36 -0.3,0 -0.5,-0.19 -0.5,-0.49 0,-0.15 0,-0.25 0.94,-1.15 4.89,-4.92 7.73,-12.85 7.73,-23.27 0,-8.51 -1.84,-17.28 -8.03,-23.56 -0.64,-0.59 -0.64,-0.7 -0.64,-0.84 0,-0.3 0.2,-0.5 0.5,-0.5 0.5,0 4.97,3.39 7.92,9.71 2.53,5.47 3.13,11 3.13,15.19 z"
           id="path4983" /><path
           style="fill:#000000;stroke-width:0"
           inkscape:connector-curvature="0"
           d="m 626.11,430.54 h -1.18 c -0.1,-0.76 -0.46,-2.83 -0.91,-3.17 -0.27,-0.2 -2.95,-0.2 -3.44,-0.2 h -6.42 c 3.66,3.23 4.87,4.2 6.97,5.84 2.58,2.06 4.98,4.22 4.98,7.53 0,4.22 -3.68,6.8 -8.15,6.8 -4.31,0 -7.25,-3.03 -7.25,-6.23 0,-1.79 1.5,-1.96 1.86,-1.96 0.83,0 1.84,0.6 1.84,1.85 0,0.62 -0.25,1.84 -2.06,1.84 1.08,2.47 3.45,3.23 5.09,3.23 3.49,0 5.3,-2.7 5.3,-5.53 0,-3.03 -2.16,-5.43 -3.28,-6.68 l -8.39,-8.3 c -0.36,-0.31 -0.36,-0.39 -0.36,-1.36 h 14.36 z"
           id="path4985" /><path
           style="fill:#000000;stroke-width:0"
           inkscape:connector-curvature="0"
           d="m 662.38,417.65 h 13.9 c 0.69,0 1.64,0 1.64,1 0,1 -0.95,1 -1.64,1 h -13.9 v 13.96 c 0,0.68 0,1.64 -1,1.64 -0.99,0 -0.99,-0.96 -0.99,-1.64 v -13.96 h -13.95 c -0.71,0 -1.64,0 -1.64,-1 0,-1 0.93,-1 1.64,-1 h 13.95 v -13.94 c 0,-0.7 0,-1.65 0.99,-1.65 1,0 1,0.95 1,1.65 z"
           id="path4987" /><path
           style="fill:#000000;stroke-width:0"
           inkscape:connector-curvature="0"
           d="m 716.02,425.18 0,0.04 0.01,0.03 0.02,0.06 0.01,0.05 0.02,0.06 0.01,0.05 0.01,0.04 0.01,0.05 0.01,0.04 0.01,0.04 0.01,0.04 0.01,0.04 0.01,0.04 0,0.03 0.01,0.03 0,0.03 0.01,0.03 0,0.03 0.01,0.03 0,0.05 0.01,0.06 0,0.05 0,0.05 0,0.05 0,0.03 0,0.03 0,0.03 0,0.03 c 0,0.91 -0.68,1.35 -1.43,1.35 -0.5,0 -1.3,-0.3 -1.75,-1.05 -0.1,-0.25 -0.5,-1.78 -0.69,-2.69 -0.36,-1.29 -0.71,-2.64 -1,-3.98 l -2.25,-8.97 c -0.19,-0.75 -2.33,-4.23 -5.63,-4.23 -2.53,0 -3.09,2.18 -3.09,4.03 0,2.29 0.86,5.39 2.55,9.76 0.79,2.05 1,2.6 1,3.6 0,2.23 -1.6,4.07 -4.1,4.07 -4.73,0 -6.58,-7.21 -6.58,-7.67 0,-0.5 0.5,-0.5 0.61,-0.5 0.5,0 0.55,0.11 0.8,0.91 1.34,4.69 3.33,6.17 5.03,6.17 0.39,0 1.25,0 1.25,-1.59 0,-1.25 -0.5,-2.53 -0.86,-3.49 -1.98,-5.28 -2.89,-8.12 -2.89,-10.47 0,-4.42 3.14,-5.92 6.08,-5.92 1.95,0 3.64,0.85 5.03,2.24 -0.64,-2.58 -1.23,-5.03 -3.23,-7.68 -1.3,-1.68 -3.19,-3.14 -5.49,-3.14 -0.68,0 -2.94,0.16 -3.78,2.1 0.8,0 1.45,0 2.14,0.61 0.5,0.43 1,1.09 1,2.03 0,1.55 -1.34,1.75 -1.84,1.75 -1.14,0 -2.8,-0.8 -2.8,-3.24 0,-2.5 2.2,-4.34 5.28,-4.34 5.14,0 10.27,4.55 11.67,10.17 z"
           id="path4989" /><path
           style="fill:#000000;stroke-width:0"
           inkscape:connector-curvature="0"
           d="m 735.67,430.54 h -1.19 c -0.09,-0.76 -0.45,-2.83 -0.9,-3.17 -0.27,-0.2 -2.96,-0.2 -3.44,-0.2 h -6.42 c 3.66,3.23 4.87,4.2 6.97,5.84 2.58,2.06 4.98,4.22 4.98,7.53 0,4.22 -3.69,6.8 -8.15,6.8 -4.32,0 -7.25,-3.03 -7.25,-6.23 0,-1.79 1.5,-1.96 1.85,-1.96 0.83,0 1.85,0.6 1.85,1.85 0,0.62 -0.25,1.84 -2.06,1.84 1.07,2.47 3.45,3.23 5.09,3.23 3.48,0 5.3,-2.7 5.3,-5.53 0,-3.03 -2.16,-5.43 -3.28,-6.68 l -8.4,-8.3 c -0.35,-0.31 -0.35,-0.39 -0.35,-1.36 h 14.35 z"
           id="path4991" /><path
           style="fill:#000000;stroke-width:0"
           inkscape:connector-curvature="0"
           d="m 788.43,422.5 0.14,0 0.15,0 0.14,0 0.07,0.01 0.08,0 0.07,0.01 0.07,0.01 0.07,0.01 0.07,0.01 0.07,0.01 0.06,0.02 0.07,0.02 0.06,0.02 0.06,0.02 0.06,0.03 0.06,0.03 0.05,0.04 0.05,0.03 0.05,0.05 0.04,0.04 0.04,0.05 0.02,0.03 0.02,0.03 0.01,0.02 0.02,0.03 0.01,0.03 0.02,0.04 0.01,0.03 0.01,0.04 0.01,0.03 0.01,0.04 0,0.04 0.01,0.04 0,0.04 0.01,0.04 0,0.04 0,0.05 c 0,1 -0.95,1 -1.64,1 h -29.84 c -0.71,0 -1.64,0 -1.64,-1 0,-0.98 0.93,-0.98 1.68,-0.98 z"
           id="path4993" /><path
           style="fill:#000000;stroke-width:0"
           inkscape:connector-curvature="0"
           d="m 788.48,412.82 0.07,0 0.06,0 0.14,0.01 0.14,0 0.07,0 0.07,0.01 0.07,0.01 0.07,0 0.06,0.01 0.07,0.02 0.07,0.01 0.06,0.02 0.07,0.02 0.06,0.02 0.06,0.02 0.06,0.03 0.05,0.03 0.05,0.04 0.05,0.04 0.05,0.04 0.04,0.05 0.02,0.02 0.02,0.03 0.02,0.02 0.02,0.03 0.01,0.03 0.02,0.03 0.01,0.03 0.02,0.03 0.01,0.04 0.01,0.03 0.01,0.04 0.01,0.04 0,0.04 0.01,0.04 0,0.04 0.01,0.04 0,0.05 0,0.04 c 0,1 -0.95,1 -1.69,1 h -29.75 c -0.75,0 -1.68,0 -1.68,-1 0,-1 0.93,-1 1.64,-1 z"
           id="path4995" /><path
           style="fill:#000000;stroke-width:0"
           inkscape:connector-curvature="0"
           d="m 821.4,414.42 v -4.33 c 0,-1.8 -0.1,-2.34 -3.78,-2.34 h -1.05 v -1.55 c 2.05,0.16 4.64,0.16 6.73,0.16 2.1,0 4.74,0 6.77,-0.16 v 1.55 h -1.05 c -3.68,0 -3.78,0.54 -3.78,2.34 v 4.33 h 4.99 v 1.54 h -4.99 v 22.68 c 0,1 0,1.29 -0.79,1.29 -0.46,0 -0.6,0 -1,-0.61 l -15.3,-23.36 h 1.4 l 12.16,18.58 v -18.58 h -12.16 -1.4 v -1.54 z"
           id="path4997" /></g>    </g>
    <g
       transform="matrix(0.8164219,0,0,0.8164219,137.70786,-60.1662)"
       id="g5043">
      <g
         style="font-style:normal;font-variant:normal;font-weight:normal;font-stretch:normal;letter-spacing:normal;word-spacing:normal;text-anchor:start;fill:none;stroke:#000000;stroke-linecap:butt;stroke-linejoin:miter;stroke-miterlimit:10.43299961;stroke-opacity:1;stroke-dasharray:none;stroke-dashoffset:0"
         word-spacing="normal"
         letter-spacing="normal"
         font-size-adjust="none"
         font-stretch="normal"
         font-weight="normal"
         font-variant="normal"
         font-style="normal"
         stroke-miterlimit="10.433"
         xml:space="preserve"
         transform="matrix(1.0629921,0,0,-1.0629921,-186.02362,789.27165)"
         id="g5045"><path
           style="fill:#000000;stroke-width:0"
           inkscape:connector-curvature="0"
           id="path5047"
           d="m 472.16,421.25 0.03,0.13 0.04,0.15 0.04,0.16 0.04,0.18 0.06,0.19 0.06,0.21 0.06,0.22 0.07,0.22 0.08,0.23 0.09,0.24 0.1,0.25 0.1,0.24 0.11,0.25 0.12,0.25 0.13,0.25 0.14,0.25 0.15,0.24 0.15,0.24 0.17,0.23 0.18,0.22 0.18,0.22 0.2,0.2 0.21,0.19 0.22,0.18 0.23,0.16 0.25,0.14 0.12,0.07 0.13,0.06 0.14,0.05 0.13,0.05 0.14,0.05 0.14,0.04 0.15,0.03 0.15,0.03 0.15,0.02 0.16,0.02 0.16,0.01 0.16,0 c 0.25,0 1.44,0 2.48,-0.64 -1.39,-0.25 -2.39,-1.5 -2.39,-2.69 0,-0.79 0.55,-1.75 1.89,-1.75 1.1,0 2.69,0.89 2.69,2.89 0,2.6 -2.94,3.28 -4.63,3.28 -2.89,0 -4.64,-2.64 -5.23,-3.78 -1.25,3.28 -3.94,3.78 -5.37,3.78 -5.19,0 -8.04,-6.42 -8.04,-7.67 0,-0.5 0.5,-0.5 0.61,-0.5 0.39,0 0.55,0.11 0.64,0.55 1.69,5.28 4.99,6.53 6.68,6.53 0.95,0 2.68,-0.44 2.68,-3.33 0,-1.54 -0.84,-4.89 -2.68,-11.86 -0.8,-3.09 -2.54,-5.18 -4.74,-5.18 -0.3,0 -1.44,0 -2.48,0.65 1.25,0.24 2.34,1.28 2.34,2.69 0,1.34 -1.09,1.73 -1.84,1.73 -1.5,0 -2.75,-1.29 -2.75,-2.89 0,-2.28 2.5,-3.28 4.68,-3.28 3.3,0 5.08,3.49 5.24,3.78 0.59,-1.84 2.39,-3.78 5.37,-3.78 5.14,0 7.99,6.42 7.99,7.67 0,0.5 -0.45,0.5 -0.61,0.5 -0.44,0 -0.55,-0.2 -0.64,-0.54 -1.64,-5.33 -5.03,-6.53 -6.63,-6.53 -1.95,0 -2.75,1.59 -2.75,3.29 0,1.1 0.3,2.19 0.86,4.38 z" /><path
           style="fill:#000000;stroke-width:0"
           inkscape:connector-curvature="0"
           id="path5049"
           d="m 501.55,430.54 h -1.18 c -0.1,-0.76 -0.46,-2.83 -0.91,-3.17 -0.26,-0.2 -2.95,-0.2 -3.44,-0.2 h -6.42 c 3.66,3.23 4.88,4.2 6.97,5.84 2.58,2.06 4.98,4.22 4.98,7.53 0,4.22 -3.68,6.8 -8.15,6.8 -4.31,0 -7.25,-3.03 -7.25,-6.23 0,-1.79 1.5,-1.96 1.86,-1.96 0.83,0 1.84,0.6 1.84,1.85 0,0.62 -0.25,1.84 -2.06,1.84 1.08,2.47 3.45,3.23 5.09,3.23 3.49,0 5.3,-2.7 5.3,-5.53 0,-3.03 -2.16,-5.43 -3.28,-6.68 l -8.39,-8.3 c -0.36,-0.31 -0.36,-0.39 -0.36,-1.36 h 14.36 z" /><path
           style="fill:#000000;stroke-width:0"
           inkscape:connector-curvature="0"
           id="path5051"
           d="m 537.82,417.65 h 13.9 c 0.69,0 1.64,0 1.64,1 0,1 -0.95,1 -1.64,1 h -13.9 v 13.96 c 0,0.68 0,1.64 -1,1.64 -0.99,0 -0.99,-0.96 -0.99,-1.64 v -13.96 h -13.95 c -0.7,0 -1.64,0 -1.64,-1 0,-1 0.94,-1 1.64,-1 h 13.95 v -13.94 c 0,-0.7 0,-1.65 0.99,-1.65 1,0 1,0.95 1,1.65 z" /><path
           style="fill:#000000;stroke-width:0"
           inkscape:connector-curvature="0"
           id="path5053"
           d="m 591.46,425.18 0.01,0.04 0,0.03 0.02,0.06 0.02,0.05 0.01,0.06 0.01,0.05 0.01,0.04 0.02,0.05 0.01,0.04 0.01,0.04 0,0.04 0.01,0.04 0.01,0.04 0.01,0.03 0,0.03 0.01,0.03 0,0.03 0.01,0.03 0,0.03 0.01,0.05 0,0.06 0,0.05 0,0.05 0,0.05 0,0.03 0,0.03 0.01,0.03 0,0.03 c 0,0.91 -0.69,1.35 -1.44,1.35 -0.5,0 -1.3,-0.3 -1.75,-1.05 -0.1,-0.25 -0.5,-1.78 -0.69,-2.69 -0.36,-1.29 -0.7,-2.64 -1,-3.98 l -2.25,-8.97 c -0.19,-0.75 -2.33,-4.23 -5.62,-4.23 -2.54,0 -3.1,2.18 -3.1,4.03 0,2.29 0.86,5.39 2.55,9.76 0.8,2.05 1,2.6 1,3.6 0,2.23 -1.6,4.07 -4.1,4.07 -4.73,0 -6.57,-7.21 -6.57,-7.67 0,-0.5 0.5,-0.5 0.6,-0.5 0.5,0 0.55,0.11 0.8,0.91 1.35,4.69 3.33,6.17 5.03,6.17 0.39,0 1.25,0 1.25,-1.59 0,-1.25 -0.5,-2.53 -0.86,-3.49 -1.98,-5.28 -2.89,-8.12 -2.89,-10.47 0,-4.42 3.14,-5.92 6.08,-5.92 1.96,0 3.64,0.85 5.03,2.24 -0.64,-2.58 -1.23,-5.03 -3.23,-7.68 -1.3,-1.68 -3.19,-3.14 -5.49,-3.14 -0.68,0 -2.93,0.16 -3.78,2.1 0.8,0 1.46,0 2.14,0.61 0.5,0.43 1,1.09 1,2.03 0,1.55 -1.34,1.75 -1.84,1.75 -1.14,0 -2.8,-0.8 -2.8,-3.24 0,-2.5 2.21,-4.34 5.28,-4.34 5.15,0 10.27,4.55 11.68,10.17 z" /><path
           style="fill:#000000;stroke-width:0"
           inkscape:connector-curvature="0"
           id="path5055"
           d="m 611.11,430.54 h -1.18 c -0.1,-0.76 -0.46,-2.83 -0.91,-3.17 -0.27,-0.2 -2.95,-0.2 -3.44,-0.2 h -6.42 c 3.66,3.23 4.87,4.2 6.97,5.84 2.58,2.06 4.98,4.22 4.98,7.53 0,4.22 -3.68,6.8 -8.15,6.8 -4.31,0 -7.25,-3.03 -7.25,-6.23 0,-1.79 1.5,-1.96 1.86,-1.96 0.83,0 1.84,0.6 1.84,1.85 0,0.62 -0.25,1.84 -2.06,1.84 1.08,2.47 3.45,3.23 5.09,3.23 3.49,0 5.3,-2.7 5.3,-5.53 0,-3.03 -2.16,-5.43 -3.28,-6.68 l -8.39,-8.3 c -0.36,-0.31 -0.36,-0.39 -0.36,-1.36 h 14.36 z" /><path
           style="fill:#000000;stroke-width:0"
           inkscape:connector-curvature="0"
           id="path5057"
           d="m 663.88,422.5 0.13,0 0.15,0 0.14,0 0.08,0.01 0.07,0 0.07,0.01 0.07,0.01 0.07,0.01 0.07,0.01 0.07,0.01 0.07,0.02 0.06,0.02 0.06,0.02 0.06,0.02 0.06,0.03 0.06,0.03 0.05,0.04 0.05,0.03 0.05,0.05 0.04,0.04 0.04,0.05 0.02,0.03 0.02,0.03 0.01,0.02 0.02,0.03 0.01,0.03 0.02,0.04 0.01,0.03 0.01,0.04 0.01,0.03 0.01,0.04 0.01,0.04 0,0.04 0.01,0.04 0,0.04 0,0.04 0,0.05 c 0,1 -0.95,1 -1.64,1 h -29.84 c -0.7,0 -1.64,0 -1.64,-1 0,-0.98 0.94,-0.98 1.68,-0.98 z" /><path
           style="fill:#000000;stroke-width:0"
           inkscape:connector-curvature="0"
           id="path5059"
           d="m 663.92,412.82 0.07,0 0.06,0 0.14,0.01 0.14,0 0.07,0 0.07,0.01 0.07,0.01 0.07,0 0.07,0.01 0.06,0.02 0.07,0.01 0.06,0.02 0.07,0.02 0.06,0.02 0.06,0.02 0.06,0.03 0.05,0.03 0.05,0.04 0.05,0.04 0.05,0.04 0.04,0.05 0.02,0.02 0.02,0.03 0.02,0.02 0.02,0.03 0.01,0.03 0.02,0.03 0.01,0.03 0.02,0.03 0.01,0.04 0.01,0.03 0.01,0.04 0.01,0.04 0.01,0.04 0,0.04 0.01,0.04 0,0.04 0,0.05 0,0.04 c 0,1 -0.95,1 -1.68,1 h -29.76 c -0.74,0 -1.68,0 -1.68,-1 0,-1 0.94,-1 1.64,-1 z" /><path
           style="fill:#000000;stroke-width:0"
           inkscape:connector-curvature="0"
           id="path5061"
           d="m 696.84,414.42 v -4.33 c 0,-1.8 -0.09,-2.34 -3.78,-2.34 h -1.05 v -1.55 c 2.05,0.16 4.64,0.16 6.74,0.16 2.09,0 4.73,0 6.76,-0.16 v 1.55 h -1.04 c -3.69,0 -3.79,0.54 -3.79,2.34 v 4.33 h 4.99 v 1.54 h -4.99 v 22.68 c 0,1 0,1.29 -0.79,1.29 -0.46,0 -0.6,0 -1,-0.61 l -15.3,-23.36 H 685 l 12.15,18.58 V 415.96 H 685 683.59 v -1.54 z" /></g>    </g>
    <g
       transform="translate(278.12429,-5.0112485)"
       id="g5127">
      <g
         style="font-style:normal;font-variant:normal;font-weight:normal;font-stretch:normal;letter-spacing:normal;word-spacing:normal;text-anchor:start;fill:none;stroke:#000000;stroke-linecap:butt;stroke-linejoin:miter;stroke-miterlimit:10.43299961;stroke-opacity:1;stroke-dasharray:none;stroke-dashoffset:0"
         id="g5129"
         transform="matrix(1.0629921,0,0,-1.0629921,-186.02362,789.27165)"
         xml:space="preserve"
         stroke-miterlimit="10.433"
         font-style="normal"
         font-variant="normal"
         font-weight="normal"
         font-stretch="normal"
         font-size-adjust="none"
         letter-spacing="normal"
         word-spacing="normal"><path
           style="fill:#000000;stroke-width:0"
           inkscape:connector-curvature="0"
           d="m 472.16,421.25 0.03,0.13 0.04,0.15 0.04,0.16 0.04,0.18 0.06,0.19 0.06,0.21 0.06,0.22 0.07,0.22 0.08,0.23 0.09,0.24 0.1,0.25 0.1,0.24 0.11,0.25 0.12,0.25 0.13,0.25 0.14,0.25 0.15,0.24 0.15,0.24 0.17,0.23 0.18,0.22 0.18,0.22 0.2,0.2 0.21,0.19 0.22,0.18 0.23,0.16 0.25,0.14 0.12,0.07 0.13,0.06 0.14,0.05 0.13,0.05 0.14,0.05 0.14,0.04 0.15,0.03 0.15,0.03 0.15,0.02 0.16,0.02 0.16,0.01 0.16,0 c 0.25,0 1.44,0 2.48,-0.64 -1.39,-0.25 -2.39,-1.5 -2.39,-2.69 0,-0.79 0.55,-1.75 1.89,-1.75 1.1,0 2.69,0.89 2.69,2.89 0,2.6 -2.94,3.28 -4.63,3.28 -2.89,0 -4.64,-2.64 -5.23,-3.78 -1.25,3.28 -3.94,3.78 -5.37,3.78 -5.19,0 -8.04,-6.42 -8.04,-7.67 0,-0.5 0.5,-0.5 0.61,-0.5 0.39,0 0.55,0.11 0.64,0.55 1.69,5.28 4.99,6.53 6.68,6.53 0.95,0 2.68,-0.44 2.68,-3.33 0,-1.54 -0.84,-4.89 -2.68,-11.86 -0.8,-3.09 -2.54,-5.18 -4.74,-5.18 -0.3,0 -1.44,0 -2.48,0.65 1.25,0.24 2.34,1.28 2.34,2.69 0,1.34 -1.09,1.73 -1.84,1.73 -1.5,0 -2.75,-1.29 -2.75,-2.89 0,-2.28 2.5,-3.28 4.68,-3.28 3.3,0 5.08,3.49 5.24,3.78 0.59,-1.84 2.39,-3.78 5.37,-3.78 5.14,0 7.99,6.42 7.99,7.67 0,0.5 -0.45,0.5 -0.61,0.5 -0.44,0 -0.55,-0.2 -0.64,-0.54 -1.64,-5.33 -5.03,-6.53 -6.63,-6.53 -1.95,0 -2.75,1.59 -2.75,3.29 0,1.1 0.3,2.19 0.86,4.38 z"
           id="path5131" /></g>    </g>
    <g
       transform="translate(-30.067491,-255.57367)"
       id="g5203">
      <g
         style="font-style:normal;font-variant:normal;font-weight:normal;font-stretch:normal;letter-spacing:normal;word-spacing:normal;text-anchor:start;fill:none;stroke:#000000;stroke-linecap:butt;stroke-linejoin:miter;stroke-miterlimit:10.43299961;stroke-opacity:1;stroke-dasharray:none;stroke-dashoffset:0"
         word-spacing="normal"
         letter-spacing="normal"
         font-size-adjust="none"
         font-stretch="normal"
         font-weight="normal"
         font-variant="normal"
         font-style="normal"
         stroke-miterlimit="10.433"
         xml:space="preserve"
         transform="matrix(1.0629921,0,0,-1.0629921,-186.02362,789.27165)"
         id="g5205"><path
           style="fill:#000000;stroke-width:0"
           inkscape:connector-curvature="0"
           id="path5207"
           d="m 479.74,425.18 0.01,0.04 0.01,0.03 0.01,0.06 0.02,0.05 0.01,0.06 0.01,0.05 0.02,0.04 0.01,0.05 0.01,0.04 0.01,0.04 0,0.04 0.01,0.04 0.01,0.04 0.01,0.03 0,0.03 0.01,0.03 0,0.03 0.01,0.03 0,0.03 0.01,0.05 0,0.06 0,0.05 0,0.05 0.01,0.05 0,0.03 0,0.03 0,0.03 0,0.03 c 0,0.91 -0.69,1.35 -1.44,1.35 -0.5,0 -1.3,-0.3 -1.75,-1.05 -0.1,-0.25 -0.5,-1.78 -0.69,-2.69 -0.36,-1.29 -0.7,-2.64 -1,-3.98 l -2.25,-8.97 c -0.19,-0.75 -2.33,-4.23 -5.62,-4.23 -2.54,0 -3.1,2.18 -3.1,4.03 0,2.29 0.86,5.39 2.55,9.76 0.8,2.05 1,2.6 1,3.6 0,2.23 -1.59,4.07 -4.09,4.07 -4.74,0 -6.58,-7.21 -6.58,-7.67 0,-0.5 0.5,-0.5 0.61,-0.5 0.5,0 0.54,0.11 0.79,0.91 1.35,4.69 3.33,6.17 5.03,6.17 0.4,0 1.25,0 1.25,-1.59 0,-1.25 -0.5,-2.53 -0.85,-3.49 -1.99,-5.28 -2.9,-8.12 -2.9,-10.47 0,-4.42 3.15,-5.92 6.08,-5.92 1.96,0 3.64,0.85 5.03,2.24 -0.64,-2.58 -1.23,-5.03 -3.23,-7.68 -1.3,-1.68 -3.19,-3.14 -5.48,-3.14 -0.69,0 -2.94,0.16 -3.79,2.1 0.8,0 1.46,0 2.14,0.61 0.5,0.43 1,1.09 1,2.03 0,1.55 -1.34,1.75 -1.84,1.75 -1.14,0 -2.8,-0.8 -2.8,-3.24 0,-2.5 2.21,-4.34 5.29,-4.34 5.14,0 10.26,4.55 11.67,10.17 z" /></g>    </g>
    <g
       transform="matrix(0.93153811,0,0,0.93153811,45.6485,51.985705)"
       id="g5285">
      <g
         style="font-style:normal;font-variant:normal;font-weight:normal;font-stretch:normal;letter-spacing:normal;word-spacing:normal;text-anchor:start;fill:none;stroke:#000000;stroke-linecap:butt;stroke-linejoin:miter;stroke-miterlimit:10.43299961;stroke-opacity:1;stroke-dasharray:none;stroke-dashoffset:0"
         id="g5287"
         transform="matrix(1.0629921,0,0,-1.0629921,-186.02362,789.27165)"
         xml:space="preserve"
         stroke-miterlimit="10.433"
         font-style="normal"
         font-variant="normal"
         font-weight="normal"
         font-stretch="normal"
         font-size-adjust="none"
         letter-spacing="normal"
         word-spacing="normal"><path
           style="fill:#000000;stroke-width:0"
           inkscape:connector-curvature="0"
           d="m 492.39,427.92 -0.01,0.74 -0.05,0.73 -0.07,0.71 -0.11,0.7 -0.13,0.68 -0.16,0.66 -0.19,0.64 -0.22,0.62 -0.24,0.6 -0.27,0.59 -0.29,0.56 -0.32,0.54 -0.34,0.52 -0.37,0.5 -0.38,0.47 -0.42,0.45 -0.43,0.43 -0.45,0.41 -0.48,0.38 -0.49,0.35 -0.52,0.33 -0.53,0.3 -0.55,0.28 -0.57,0.25 -0.59,0.22 -0.6,0.2 -0.62,0.16 -0.63,0.14 -0.65,0.1 -0.67,0.08 -0.67,0.05 -0.69,0.01 -0.3,-1.25 c 4.09,0 8.58,-2.78 8.58,-10.2 0,-3.59 -1.35,-11.36 -6.28,-17.5 -2.39,-3.03 -6.49,-5.97 -10.66,-5.97 h 0 c -4.94,0 -8.42,4.03 -8.42,10.61 0,2.19 0.69,9.47 4.53,15.3 3.44,5.17 8.31,7.76 12.25,7.76 l 0.3,1.25 c -10.75,0 -21.72,-11.31 -21.72,-22.92 0,-8.26 5.58,-13.29 12.76,-13.29 10.55,0 21.67,10.9 21.67,22.81 z"
           id="path5289" /></g>    </g>
    <g
       id="g5567"
       transform="translate(-62.640606,-37.584364)">
      <g
         word-spacing="normal"
         letter-spacing="normal"
         font-size-adjust="none"
         font-stretch="normal"
         font-weight="normal"
         font-variant="normal"
         font-style="normal"
         stroke-miterlimit="10.433"
         xml:space="preserve"
         transform="matrix(1.0629921,0,0,-1.0629921,-186.02362,789.27165)"
         id="g5569"
         style="font-style:normal;font-variant:normal;font-weight:normal;font-stretch:normal;letter-spacing:normal;word-spacing:normal;text-anchor:start;fill:none;stroke:#000000;stroke-linecap:butt;stroke-linejoin:miter;stroke-miterlimit:10.43299961;stroke-opacity:1;stroke-dasharray:none;stroke-dashoffset:0"><path
           id="path5571"
           d="m 464.44,411.93 -0.19,-0.3 -0.18,-0.29 -0.19,-0.28 -0.19,-0.26 -0.18,-0.25 -0.19,-0.23 -0.19,-0.22 -0.18,-0.21 -0.19,-0.2 -0.19,-0.18 -0.18,-0.17 -0.19,-0.16 -0.19,-0.15 -0.18,-0.14 -0.19,-0.13 -0.19,-0.12 -0.19,-0.11 -0.19,-0.1 -0.19,-0.09 -0.19,-0.09 -0.19,-0.07 -0.2,-0.07 -0.19,-0.07 -0.2,-0.05 -0.19,-0.05 -0.2,-0.04 -0.2,-0.04 -0.19,-0.03 -0.41,-0.05 -0.4,-0.03 c -0.61,-0.05 -1.05,-0.05 -1.05,-1 0,-0.3 0.25,-0.55 0.64,-0.55 1.34,0 2.89,0.16 4.28,0.16 1.64,0 3.39,-0.16 4.99,-0.16 0.29,0 0.95,0 0.95,0.95 0,0.55 -0.45,0.6 -0.8,0.6 -1.15,0.09 -2.34,0.5 -2.34,1.73 0,0.61 0.3,1.16 0.69,1.84 l 3.79,6.39 h 12.5 l -0.14,1.54 h -11.42 l 9.83,16.45 1.59,-16.45 0.14,-1.54 c 0.11,-1.04 0.8,-7.82 0.8,-8.32 0,-1.5 -2.59,-1.64 -3.58,-1.64 -0.7,0 -1.2,0 -1.2,-1 0,-0.55 0.59,-0.55 0.7,-0.55 2.03,0 4.19,0.16 6.22,0.16 1.25,0 4.39,-0.16 5.64,-0.16 0.3,0 0.89,0 0.89,1 0,0.55 -0.5,0.55 -1.14,0.55 -3.09,0 -3.09,0.34 -3.25,1.79 l -3.03,31.13 c -0.11,1 -0.11,1.2 -0.95,1.2 -0.8,0 -0.99,-0.34 -1.3,-0.84 z"
           inkscape:connector-curvature="0"
           style="fill:#000000;stroke-width:0" /></g>    </g>
  </g>
</svg>
