<?xml version="1.0" encoding="UTF-8"?>
<svg xmlns="http://www.w3.org/2000/svg" xmlns:xlink="http://www.w3.org/1999/xlink" width="249.68626pt" height="62.734623pt" viewBox="0 0 249.68626 62.734623" version="1.1">
<g id="surface1">
<path style=" stroke:none;fill-rule:nonzero;fill:rgb(0%,0%,0%);fill-opacity:1;" d="M 6.132812 1.191406 L 7.714844 1.191406 C 7.929688 1.191406 8.144531 1.210938 8.359375 1.210938 L 10.703125 1.210938 L 10.703125 0.078125 L 0 0.078125 L 0 1.210938 L 2.363281 1.210938 C 2.578125 1.210938 2.792969 1.191406 3.007812 1.191406 L 4.589844 1.191406 L 4.589844 12.441406 L 6.132812 12.441406 Z M 6.132812 1.191406 "/>
<path style=" stroke:none;fill-rule:nonzero;fill:rgb(0%,0%,0%);fill-opacity:1;" d="M 18.972656 7.050781 C 18.972656 5.957031 18.738281 4.296875 16.570312 4.296875 C 15.339844 4.296875 14.519531 5 14.089844 5.546875 L 14.089844 0 L 12.761719 0 L 12.761719 12.441406 L 14.109375 12.441406 L 14.109375 7.96875 C 14.109375 6.875 14.539062 5.371094 15.886719 5.371094 C 17.566406 5.371094 17.605469 6.542969 17.605469 7.167969 L 17.605469 12.441406 L 18.972656 12.441406 Z M 18.972656 7.050781 "/>
<path style=" stroke:none;fill-rule:nonzero;fill:rgb(0%,0%,0%);fill-opacity:1;" d="M 27.679688 8.398438 C 27.679688 7.636719 27.601562 6.542969 27.035156 5.585938 C 26.292969 4.355469 25.042969 4.21875 24.515625 4.21875 C 22.582031 4.21875 20.960938 6.074219 20.960938 8.398438 C 20.960938 10.78125 22.679688 12.617188 24.769531 12.617188 C 25.589844 12.617188 26.585938 12.382812 27.5625 11.679688 C 27.5625 11.601562 27.503906 11.035156 27.503906 11.015625 C 27.484375 10.996094 27.464844 10.585938 27.464844 10.527344 C 26.390625 11.425781 25.335938 11.542969 24.808594 11.542969 C 23.421875 11.542969 22.230469 10.3125 22.210938 8.398438 Z M 22.308594 7.441406 C 22.621094 6.230469 23.460938 5.292969 24.515625 5.292969 C 25.082031 5.292969 26.3125 5.546875 26.605469 7.441406 Z M 22.308594 7.441406 "/>
<path style=" stroke:none;fill-rule:nonzero;fill:rgb(0%,0%,0%);fill-opacity:1;" d="M 37.089844 5.527344 L 39.570312 5.527344 L 39.570312 4.472656 L 37.089844 4.472656 L 37.089844 2.207031 L 35.859375 2.207031 L 35.859375 4.472656 L 34.355469 4.472656 L 34.355469 5.527344 L 35.820312 5.527344 L 35.820312 10.351562 C 35.820312 11.386719 36.054688 12.617188 37.285156 12.617188 C 38.496094 12.617188 39.316406 12.207031 39.863281 11.914062 L 39.589844 10.878906 C 38.964844 11.445312 38.300781 11.503906 37.988281 11.503906 C 37.1875 11.503906 37.089844 10.664062 37.089844 10.039062 Z M 37.089844 5.527344 "/>
<path style=" stroke:none;fill-rule:nonzero;fill:rgb(0%,0%,0%);fill-opacity:1;" d="M 51.535156 4.472656 L 50.226562 4.472656 L 49.152344 8.125 C 48.898438 8.984375 48.390625 10.664062 48.3125 11.445312 L 48.292969 11.445312 C 48.253906 11.015625 47.960938 9.804688 47.589844 8.535156 L 46.398438 4.472656 L 45.167969 4.472656 L 44.132812 7.988281 C 43.820312 9.101562 43.390625 10.644531 43.332031 11.40625 L 43.3125 11.40625 C 43.292969 11.054688 43.097656 10.117188 42.765625 8.90625 L 41.496094 4.472656 L 40.128906 4.472656 L 42.53125 12.441406 L 43.917969 12.441406 C 44.582031 10.175781 45.636719 6.777344 45.734375 5.527344 L 45.753906 5.527344 C 45.792969 6.25 46.144531 7.539062 46.28125 7.96875 L 47.550781 12.441406 L 49.132812 12.441406 Z M 51.535156 4.472656 "/>
<path style=" stroke:none;fill-rule:nonzero;fill:rgb(0%,0%,0%);fill-opacity:1;" d="M 59.648438 8.496094 C 59.648438 6.074219 57.871094 4.21875 55.820312 4.21875 C 53.710938 4.21875 51.972656 6.113281 51.972656 8.496094 C 51.972656 10.839844 53.75 12.617188 55.800781 12.617188 C 57.910156 12.617188 59.648438 10.800781 59.648438 8.496094 Z M 55.820312 11.503906 C 54.53125 11.503906 53.320312 10.429688 53.320312 8.320312 C 53.320312 6.152344 54.667969 5.292969 55.800781 5.292969 C 57.03125 5.292969 58.300781 6.210938 58.300781 8.320312 C 58.300781 10.527344 57.011719 11.503906 55.820312 11.503906 Z M 55.820312 11.503906 "/>
<path style=" stroke:none;fill-rule:nonzero;fill:rgb(0%,0%,0%);fill-opacity:1;" d="M 73.160156 10.507812 C 72.339844 11.171875 71.421875 11.503906 70.425781 11.503906 C 68.921875 11.503906 67.964844 10.175781 67.964844 8.4375 C 67.964844 6.953125 68.6875 5.332031 70.464844 5.332031 C 71.675781 5.332031 72.183594 5.605469 72.945312 6.132812 L 73.160156 4.960938 C 72.125 4.355469 71.539062 4.21875 70.464844 4.21875 C 68.003906 4.21875 66.597656 6.40625 66.597656 8.4375 C 66.597656 10.742188 68.257812 12.617188 70.40625 12.617188 C 71.285156 12.617188 72.28125 12.402344 73.277344 11.679688 C 73.277344 11.640625 73.21875 11.074219 73.199219 11.015625 Z M 73.160156 10.507812 "/>
<path style=" stroke:none;fill-rule:nonzero;fill:rgb(0%,0%,0%);fill-opacity:1;" d="M 76.605469 0.273438 L 75.0625 0.273438 L 75.0625 1.816406 L 76.605469 1.816406 Z M 76.507812 4.472656 L 75.179688 4.472656 L 75.179688 12.441406 L 76.507812 12.441406 Z M 76.507812 4.472656 "/>
<path style=" stroke:none;fill-rule:nonzero;fill:rgb(0%,0%,0%);fill-opacity:1;" d="M 80.707031 8.515625 C 80.707031 6.699219 82.054688 5.527344 83.675781 5.507812 L 83.675781 4.296875 C 82.035156 4.316406 81.097656 5.273438 80.609375 5.976562 L 80.609375 4.394531 L 79.378906 4.394531 L 79.378906 12.441406 L 80.707031 12.441406 Z M 80.707031 8.515625 "/>
<path style=" stroke:none;fill-rule:nonzero;fill:rgb(0%,0%,0%);fill-opacity:1;" d="M 91.160156 10.507812 C 90.339844 11.171875 89.421875 11.503906 88.425781 11.503906 C 86.921875 11.503906 85.964844 10.175781 85.964844 8.4375 C 85.964844 6.953125 86.6875 5.332031 88.464844 5.332031 C 89.675781 5.332031 90.183594 5.605469 90.945312 6.132812 L 91.160156 4.960938 C 90.125 4.355469 89.539062 4.21875 88.464844 4.21875 C 86.003906 4.21875 84.597656 6.40625 84.597656 8.4375 C 84.597656 10.742188 86.257812 12.617188 88.40625 12.617188 C 89.285156 12.617188 90.28125 12.402344 91.277344 11.679688 C 91.277344 11.640625 91.21875 11.074219 91.199219 11.015625 Z M 91.160156 10.507812 "/>
<path style=" stroke:none;fill-rule:nonzero;fill:rgb(0%,0%,0%);fill-opacity:1;" d="M 94.507812 0 L 93.179688 0 L 93.179688 12.441406 L 94.507812 12.441406 Z M 94.507812 0 "/>
<path style=" stroke:none;fill-rule:nonzero;fill:rgb(0%,0%,0%);fill-opacity:1;" d="M 103.277344 8.398438 C 103.277344 7.636719 103.199219 6.542969 102.632812 5.585938 C 101.890625 4.355469 100.640625 4.21875 100.113281 4.21875 C 98.179688 4.21875 96.558594 6.074219 96.558594 8.398438 C 96.558594 10.78125 98.277344 12.617188 100.367188 12.617188 C 101.1875 12.617188 102.183594 12.382812 103.160156 11.679688 C 103.160156 11.601562 103.101562 11.035156 103.101562 11.015625 C 103.082031 10.996094 103.0625 10.585938 103.0625 10.527344 C 101.988281 11.425781 100.933594 11.542969 100.40625 11.542969 C 99.019531 11.542969 97.828125 10.3125 97.808594 8.398438 Z M 97.90625 7.441406 C 98.21875 6.230469 99.058594 5.292969 100.113281 5.292969 C 100.679688 5.292969 101.910156 5.546875 102.203125 7.441406 Z M 97.90625 7.441406 "/>
<path style=" stroke:none;fill-rule:nonzero;fill:rgb(0%,0%,0%);fill-opacity:1;" d="M 109.789062 4.765625 C 108.65625 4.238281 107.679688 4.21875 107.269531 4.21875 C 106.859375 4.21875 104.359375 4.21875 104.359375 6.542969 C 104.359375 7.324219 104.789062 7.871094 105.0625 8.125 C 105.707031 8.671875 106.15625 8.769531 107.210938 8.984375 C 107.816406 9.101562 108.851562 9.316406 108.851562 10.273438 C 108.851562 11.503906 107.445312 11.503906 107.191406 11.503906 C 106.488281 11.503906 105.433594 11.308594 104.476562 10.605469 L 104.261719 11.835938 C 104.339844 11.894531 105.570312 12.617188 107.210938 12.617188 C 109.535156 12.617188 110.082031 11.230469 110.082031 10.15625 C 110.082031 9.257812 109.535156 8.671875 109.457031 8.59375 C 108.792969 7.910156 108.246094 7.792969 107.171875 7.578125 C 106.507812 7.460938 105.609375 7.285156 105.609375 6.386719 C 105.609375 5.273438 106.859375 5.273438 107.09375 5.273438 C 108.03125 5.273438 108.792969 5.488281 109.574219 5.9375 Z M 109.789062 4.765625 "/>
<path style=" stroke:none;fill-rule:nonzero;fill:rgb(0%,0%,0%);fill-opacity:1;" d="M 119.054688 0.273438 L 117.511719 0.273438 L 117.511719 1.816406 L 119.054688 1.816406 Z M 118.957031 4.472656 L 117.628906 4.472656 L 117.628906 12.441406 L 118.957031 12.441406 Z M 118.957031 4.472656 "/>
<path style=" stroke:none;fill-rule:nonzero;fill:rgb(0%,0%,0%);fill-opacity:1;" d="M 128.023438 7.050781 C 128.023438 5.957031 127.789062 4.296875 125.621094 4.296875 C 124.625 4.296875 123.765625 4.746094 123.082031 5.605469 L 123.082031 4.394531 L 121.8125 4.394531 L 121.8125 12.441406 L 123.160156 12.441406 L 123.160156 7.96875 C 123.160156 6.875 123.589844 5.371094 124.9375 5.371094 C 126.617188 5.371094 126.65625 6.542969 126.65625 7.167969 L 126.65625 12.441406 L 128.023438 12.441406 Z M 128.023438 7.050781 "/>
<path style=" stroke:none;fill-rule:nonzero;fill:rgb(0%,0%,0%);fill-opacity:1;" d="M 132.492188 5.527344 L 134.972656 5.527344 L 134.972656 4.472656 L 132.492188 4.472656 L 132.492188 2.207031 L 131.261719 2.207031 L 131.261719 4.472656 L 129.757812 4.472656 L 129.757812 5.527344 L 131.222656 5.527344 L 131.222656 10.351562 C 131.222656 11.386719 131.457031 12.617188 132.6875 12.617188 C 133.898438 12.617188 134.71875 12.207031 135.265625 11.914062 L 134.992188 10.878906 C 134.367188 11.445312 133.703125 11.503906 133.390625 11.503906 C 132.589844 11.503906 132.492188 10.664062 132.492188 10.039062 Z M 132.492188 5.527344 "/>
<path style=" stroke:none;fill-rule:nonzero;fill:rgb(0%,0%,0%);fill-opacity:1;" d="M 143.027344 8.398438 C 143.027344 7.636719 142.949219 6.542969 142.382812 5.585938 C 141.640625 4.355469 140.390625 4.21875 139.863281 4.21875 C 137.929688 4.21875 136.308594 6.074219 136.308594 8.398438 C 136.308594 10.78125 138.027344 12.617188 140.117188 12.617188 C 140.9375 12.617188 141.933594 12.382812 142.910156 11.679688 C 142.910156 11.601562 142.851562 11.035156 142.851562 11.015625 C 142.832031 10.996094 142.8125 10.585938 142.8125 10.527344 C 141.738281 11.425781 140.683594 11.542969 140.15625 11.542969 C 138.769531 11.542969 137.578125 10.3125 137.558594 8.398438 Z M 137.65625 7.441406 C 137.96875 6.230469 138.808594 5.292969 139.863281 5.292969 C 140.429688 5.292969 141.660156 5.546875 141.953125 7.441406 Z M 137.65625 7.441406 "/>
<path style=" stroke:none;fill-rule:nonzero;fill:rgb(0%,0%,0%);fill-opacity:1;" d="M 146.257812 8.515625 C 146.257812 6.699219 147.605469 5.527344 149.226562 5.507812 L 149.226562 4.296875 C 147.585938 4.316406 146.648438 5.273438 146.160156 5.976562 L 146.160156 4.394531 L 144.929688 4.394531 L 144.929688 12.441406 L 146.257812 12.441406 Z M 146.257812 8.515625 "/>
<path style=" stroke:none;fill-rule:nonzero;fill:rgb(0%,0%,0%);fill-opacity:1;" d="M 155.539062 4.765625 C 154.40625 4.238281 153.429688 4.21875 153.019531 4.21875 C 152.609375 4.21875 150.109375 4.21875 150.109375 6.542969 C 150.109375 7.324219 150.539062 7.871094 150.8125 8.125 C 151.457031 8.671875 151.90625 8.769531 152.960938 8.984375 C 153.566406 9.101562 154.601562 9.316406 154.601562 10.273438 C 154.601562 11.503906 153.195312 11.503906 152.941406 11.503906 C 152.238281 11.503906 151.183594 11.308594 150.226562 10.605469 L 150.011719 11.835938 C 150.089844 11.894531 151.320312 12.617188 152.960938 12.617188 C 155.285156 12.617188 155.832031 11.230469 155.832031 10.15625 C 155.832031 9.257812 155.285156 8.671875 155.207031 8.59375 C 154.542969 7.910156 153.996094 7.792969 152.921875 7.578125 C 152.257812 7.460938 151.359375 7.285156 151.359375 6.386719 C 151.359375 5.273438 152.609375 5.273438 152.84375 5.273438 C 153.78125 5.273438 154.542969 5.488281 155.324219 5.9375 Z M 155.539062 4.765625 "/>
<path style=" stroke:none;fill-rule:nonzero;fill:rgb(0%,0%,0%);fill-opacity:1;" d="M 163.578125 8.398438 C 163.578125 7.636719 163.5 6.542969 162.933594 5.585938 C 162.191406 4.355469 160.941406 4.21875 160.414062 4.21875 C 158.480469 4.21875 156.859375 6.074219 156.859375 8.398438 C 156.859375 10.78125 158.578125 12.617188 160.667969 12.617188 C 161.488281 12.617188 162.484375 12.382812 163.460938 11.679688 C 163.460938 11.601562 163.402344 11.035156 163.402344 11.015625 C 163.382812 10.996094 163.363281 10.585938 163.363281 10.527344 C 162.289062 11.425781 161.234375 11.542969 160.707031 11.542969 C 159.320312 11.542969 158.128906 10.3125 158.109375 8.398438 Z M 158.207031 7.441406 C 158.519531 6.230469 159.359375 5.292969 160.414062 5.292969 C 160.980469 5.292969 162.210938 5.546875 162.503906 7.441406 Z M 158.207031 7.441406 "/>
<path style=" stroke:none;fill-rule:nonzero;fill:rgb(0%,0%,0%);fill-opacity:1;" d="M 171.261719 10.507812 C 170.441406 11.171875 169.523438 11.503906 168.527344 11.503906 C 167.023438 11.503906 166.066406 10.175781 166.066406 8.4375 C 166.066406 6.953125 166.789062 5.332031 168.566406 5.332031 C 169.777344 5.332031 170.285156 5.605469 171.046875 6.132812 L 171.261719 4.960938 C 170.226562 4.355469 169.640625 4.21875 168.566406 4.21875 C 166.105469 4.21875 164.699219 6.40625 164.699219 8.4375 C 164.699219 10.742188 166.359375 12.617188 168.507812 12.617188 C 169.386719 12.617188 170.382812 12.402344 171.378906 11.679688 C 171.378906 11.640625 171.320312 11.074219 171.300781 11.015625 Z M 171.261719 10.507812 "/>
<path style=" stroke:none;fill-rule:nonzero;fill:rgb(0%,0%,0%);fill-opacity:1;" d="M 174.941406 5.527344 L 177.421875 5.527344 L 177.421875 4.472656 L 174.941406 4.472656 L 174.941406 2.207031 L 173.710938 2.207031 L 173.710938 4.472656 L 172.207031 4.472656 L 172.207031 5.527344 L 173.671875 5.527344 L 173.671875 10.351562 C 173.671875 11.386719 173.90625 12.617188 175.136719 12.617188 C 176.347656 12.617188 177.167969 12.207031 177.714844 11.914062 L 177.441406 10.878906 C 176.816406 11.445312 176.152344 11.503906 175.839844 11.503906 C 175.039062 11.503906 174.941406 10.664062 174.941406 10.039062 Z M 174.941406 5.527344 "/>
<path style=" stroke:none;fill-rule:nonzero;fill:rgb(0%,0%,0%);fill-opacity:1;" d="M 191.035156 7.1875 C 191.035156 5.46875 189.804688 4.21875 188.125 4.21875 C 187.050781 4.21875 186.25 4.453125 185.371094 4.960938 L 185.46875 6.152344 C 186.269531 5.566406 187.089844 5.253906 188.125 5.253906 C 188.945312 5.253906 189.667969 5.917969 189.667969 7.226562 L 189.667969 7.96875 C 188.867188 7.988281 187.792969 8.046875 186.71875 8.398438 C 185.507812 8.828125 184.804688 9.492188 184.804688 10.371094 C 184.804688 11.171875 185.273438 12.617188 186.796875 12.617188 C 187.792969 12.617188 189.042969 12.324219 189.707031 11.777344 L 189.707031 12.441406 L 191.035156 12.441406 Z M 189.667969 10.039062 C 189.667969 10.390625 189.667969 10.820312 189.082031 11.191406 C 188.59375 11.484375 187.988281 11.542969 187.714844 11.542969 C 186.757812 11.542969 186.09375 11.015625 186.09375 10.371094 C 186.09375 9.140625 188.574219 8.867188 189.667969 8.867188 Z M 189.667969 10.039062 "/>
<path style=" stroke:none;fill-rule:nonzero;fill:rgb(0%,0%,0%);fill-opacity:1;" d="M 195.492188 5.527344 L 197.972656 5.527344 L 197.972656 4.472656 L 195.492188 4.472656 L 195.492188 2.207031 L 194.261719 2.207031 L 194.261719 4.472656 L 192.757812 4.472656 L 192.757812 5.527344 L 194.222656 5.527344 L 194.222656 10.351562 C 194.222656 11.386719 194.457031 12.617188 195.6875 12.617188 C 196.898438 12.617188 197.71875 12.207031 198.265625 11.914062 L 197.992188 10.878906 C 197.367188 11.445312 196.703125 11.503906 196.390625 11.503906 C 195.589844 11.503906 195.492188 10.664062 195.492188 10.039062 Z M 195.492188 5.527344 "/>
<path style=" stroke:none;fill-rule:nonzero;fill:rgb(0%,0%,0%);fill-opacity:1;" d="M 4.6875 45.4375 L 7.695312 45.4375 C 10.175781 45.4375 12.636719 43.601562 12.636719 41.570312 C 12.636719 40.164062 11.464844 38.894531 9.199219 38.894531 L 3.652344 38.894531 C 3.320312 38.894531 3.164062 38.894531 3.164062 39.226562 C 3.164062 39.421875 3.320312 39.421875 3.59375 39.421875 C 4.6875 39.421875 4.6875 39.558594 4.6875 39.753906 C 4.6875 39.792969 4.6875 39.890625 4.609375 40.164062 L 2.1875 49.8125 C 2.03125 50.4375 1.992188 50.613281 0.742188 50.613281 C 0.390625 50.613281 0.214844 50.613281 0.214844 50.945312 C 0.214844 51.140625 0.371094 51.140625 0.488281 51.140625 C 0.820312 51.140625 1.191406 51.101562 1.523438 51.101562 L 3.632812 51.101562 C 3.964844 51.101562 4.335938 51.140625 4.6875 51.140625 C 4.824219 51.140625 5.019531 51.140625 5.019531 50.808594 C 5.019531 50.613281 4.863281 50.613281 4.589844 50.613281 C 3.515625 50.613281 3.496094 50.496094 3.496094 50.320312 C 3.496094 50.222656 3.515625 50.105469 3.535156 50.007812 Z M 5.976562 40.105469 C 6.132812 39.441406 6.210938 39.421875 6.914062 39.421875 L 8.671875 39.421875 C 10.019531 39.421875 11.132812 39.851562 11.132812 41.199219 C 11.132812 41.648438 10.898438 43.171875 10.078125 44.011719 C 9.765625 44.324219 8.90625 45.007812 7.285156 45.007812 L 4.746094 45.007812 Z M 5.976562 40.105469 "/>
<path style=" stroke:none;fill-rule:nonzero;fill:rgb(0%,0%,0%);fill-opacity:1;" d="M 30.234375 45.339844 C 30.488281 45.339844 30.800781 45.339844 30.800781 45.007812 C 30.800781 44.675781 30.488281 44.675781 30.234375 44.675781 L 19.667969 44.675781 C 19.414062 44.675781 19.101562 44.675781 19.101562 44.988281 C 19.101562 45.339844 19.394531 45.339844 19.667969 45.339844 Z M 30.234375 48.660156 C 30.488281 48.660156 30.800781 48.660156 30.800781 48.347656 C 30.800781 47.996094 30.488281 47.996094 30.234375 47.996094 L 19.667969 47.996094 C 19.414062 47.996094 19.101562 47.996094 19.101562 48.328125 C 19.101562 48.660156 19.394531 48.660156 19.667969 48.660156 Z M 30.234375 48.660156 "/>
<path style=" stroke:none;fill-rule:nonzero;fill:rgb(0%,0%,0%);fill-opacity:1;" d="M 45.964844 62.539062 C 46.003906 62.558594 46.160156 62.734375 46.179688 62.734375 L 46.570312 62.734375 C 46.628906 62.734375 46.765625 62.714844 46.765625 62.558594 C 46.765625 62.480469 46.726562 62.441406 46.6875 62.382812 C 46.042969 61.738281 45.085938 60.761719 43.972656 58.789062 C 42.039062 55.351562 41.316406 50.917969 41.316406 46.601562 C 41.316406 38.652344 43.582031 33.964844 46.707031 30.800781 C 46.765625 30.742188 46.765625 30.683594 46.765625 30.644531 C 46.765625 30.46875 46.648438 30.46875 46.433594 30.46875 C 46.199219 30.46875 46.160156 30.46875 46.003906 30.625 C 44.285156 32.089844 42.371094 34.589844 41.140625 38.359375 C 40.359375 40.722656 39.949219 43.613281 39.949219 46.601562 C 39.949219 50.839844 40.730469 55.644531 43.542969 59.804688 C 44.03125 60.507812 44.695312 61.25 44.695312 61.25 C 44.871094 61.484375 45.125 61.757812 45.261719 61.894531 Z M 45.964844 62.539062 "/>
<path style=" stroke:none;fill-rule:nonzero;fill:rgb(0%,0%,0%);fill-opacity:1;" d="M 52.679688 39.65625 C 52.679688 39.226562 52.679688 39.226562 52.328125 39.226562 C 51.898438 39.695312 51 40.359375 49.164062 40.359375 L 49.164062 40.886719 C 49.574219 40.886719 50.472656 40.886719 51.449219 40.417969 L 51.449219 49.753906 C 51.449219 50.398438 51.390625 50.613281 49.828125 50.613281 L 49.261719 50.613281 L 49.261719 51.140625 C 49.75 51.101562 51.488281 51.101562 52.074219 51.101562 C 52.660156 51.101562 54.398438 51.101562 54.867188 51.140625 L 54.867188 50.613281 L 54.320312 50.613281 C 52.738281 50.613281 52.679688 50.398438 52.679688 49.753906 Z M 52.679688 39.65625 "/>
<path style=" stroke:none;fill-rule:nonzero;fill:rgb(0%,0%,0%);fill-opacity:1;" d="M 59.871094 51.21875 C 59.871094 50.164062 59.539062 49.402344 58.796875 49.402344 C 58.230469 49.402344 57.9375 49.871094 57.9375 50.261719 C 57.9375 50.652344 58.210938 51.140625 58.816406 51.140625 C 59.050781 51.140625 59.246094 51.0625 59.402344 50.90625 C 59.441406 50.867188 59.460938 50.867188 59.480469 50.867188 C 59.519531 50.867188 59.519531 51.121094 59.519531 51.21875 C 59.519531 51.804688 59.402344 52.976562 58.367188 54.128906 C 58.171875 54.34375 58.171875 54.382812 58.171875 54.421875 C 58.171875 54.519531 58.25 54.597656 58.347656 54.597656 C 58.484375 54.597656 59.871094 53.269531 59.871094 51.21875 Z M 59.871094 51.21875 "/>
<path style=" stroke:none;fill-rule:nonzero;fill:rgb(0%,0%,0%);fill-opacity:1;" d="M 71.296875 50.722656 L 68.152344 43.75 C 68.015625 43.457031 67.9375 43.457031 67.878906 43.457031 C 67.859375 43.457031 67.761719 43.457031 67.566406 43.59375 L 65.867188 44.902344 C 65.632812 45.078125 65.632812 45.117188 65.632812 45.175781 C 65.632812 45.273438 65.691406 45.371094 65.808594 45.371094 C 65.925781 45.371094 66.21875 45.117188 66.414062 44.980469 C 66.53125 44.902344 66.804688 44.6875 67 44.550781 L 70.535156 52.324219 C 70.652344 52.597656 70.75 52.597656 70.90625 52.597656 C 71.179688 52.597656 71.21875 52.5 71.355469 52.246094 L 79.5 35.390625 C 79.617188 35.136719 79.617188 35.058594 79.617188 35.039062 C 79.617188 34.84375 79.480469 34.667969 79.265625 34.667969 C 79.109375 34.667969 78.992188 34.765625 78.855469 35.058594 Z M 71.296875 50.722656 "/>
<path style=" stroke:none;fill-rule:nonzero;fill:rgb(0%,0%,0%);fill-opacity:1;" d="M 79.007812 34.65625 L 87.855469 34.65625 L 87.855469 35.40625 L 79.007812 35.40625 Z M 79.007812 34.65625 "/>
<path style=" stroke:none;fill-rule:nonzero;fill:rgb(0%,0%,0%);fill-opacity:1;" d="M 82.324219 44.695312 C 82.011719 44.714844 81.953125 44.734375 81.953125 44.910156 C 81.953125 45.085938 82.03125 45.085938 82.363281 45.085938 L 83.183594 45.085938 C 84.707031 45.085938 85.390625 46.335938 85.390625 48.054688 C 85.390625 50.398438 84.160156 51.023438 83.28125 51.023438 C 82.421875 51.023438 80.957031 50.613281 80.449219 49.441406 C 81.015625 49.519531 81.542969 49.207031 81.542969 48.5625 C 81.542969 48.035156 81.152344 47.683594 80.664062 47.683594 C 80.234375 47.683594 79.765625 47.9375 79.765625 48.621094 C 79.765625 50.203125 81.347656 51.511719 83.339844 51.511719 C 85.46875 51.511719 87.050781 49.890625 87.050781 48.074219 C 87.050781 46.433594 85.722656 45.125 84.003906 44.832031 C 85.566406 44.382812 86.5625 43.074219 86.5625 41.667969 C 86.5625 40.261719 85.097656 39.226562 83.359375 39.226562 C 81.5625 39.226562 80.234375 40.320312 80.234375 41.628906 C 80.234375 42.332031 80.800781 42.488281 81.074219 42.488281 C 81.445312 42.488281 81.875 42.214844 81.875 41.667969 C 81.875 41.101562 81.445312 40.847656 81.054688 40.847656 C 80.9375 40.847656 80.898438 40.847656 80.859375 40.867188 C 81.542969 39.65625 83.222656 39.65625 83.300781 39.65625 C 83.90625 39.65625 85.058594 39.910156 85.058594 41.667969 C 85.058594 42.019531 85.019531 43.015625 84.492188 43.796875 C 83.945312 44.578125 83.339844 44.636719 82.851562 44.65625 Z M 82.324219 44.695312 "/>
<path style=" stroke:none;fill-rule:nonzero;fill:rgb(0%,0%,0%);fill-opacity:1;" d="M 95.335938 46.601562 C 95.335938 41.445312 94.125 35.976562 90.609375 31.953125 C 90.355469 31.660156 89.691406 30.957031 89.261719 30.585938 C 89.125 30.46875 89.085938 30.46875 88.851562 30.46875 C 88.675781 30.46875 88.519531 30.46875 88.519531 30.644531 C 88.519531 30.722656 88.597656 30.800781 88.636719 30.839844 C 89.242188 31.464844 90.199219 32.441406 91.3125 34.414062 C 93.246094 37.851562 93.96875 42.285156 93.96875 46.601562 C 93.96875 54.375 91.820312 59.121094 88.597656 62.402344 C 88.558594 62.441406 88.519531 62.5 88.519531 62.558594 C 88.519531 62.734375 88.675781 62.734375 88.851562 62.734375 C 89.085938 62.734375 89.125 62.734375 89.300781 62.578125 C 91 61.113281 92.914062 58.632812 94.144531 54.84375 C 94.945312 52.382812 95.335938 49.472656 95.335938 46.601562 Z M 95.335938 46.601562 "/>
<path style=" stroke:none;fill-rule:nonzero;fill:rgb(0%,0%,0%);fill-opacity:1;" d="M 114.386719 45.886719 C 114.386719 44.167969 113.15625 42.917969 111.476562 42.917969 C 110.402344 42.917969 109.601562 43.152344 108.722656 43.660156 L 108.820312 44.851562 C 109.621094 44.265625 110.441406 43.953125 111.476562 43.953125 C 112.296875 43.953125 113.019531 44.617188 113.019531 45.925781 L 113.019531 46.667969 C 112.21875 46.6875 111.144531 46.746094 110.070312 47.097656 C 108.859375 47.527344 108.15625 48.191406 108.15625 49.070312 C 108.15625 49.871094 108.625 51.316406 110.148438 51.316406 C 111.144531 51.316406 112.394531 51.023438 113.058594 50.476562 L 113.058594 51.140625 L 114.386719 51.140625 Z M 113.019531 48.738281 C 113.019531 49.089844 113.019531 49.519531 112.433594 49.890625 C 111.945312 50.183594 111.339844 50.242188 111.066406 50.242188 C 110.109375 50.242188 109.445312 49.714844 109.445312 49.070312 C 109.445312 47.839844 111.925781 47.566406 113.019531 47.566406 Z M 113.019531 48.738281 "/>
<path style=" stroke:none;fill-rule:nonzero;fill:rgb(0%,0%,0%);fill-opacity:1;" d="M 123.371094 45.75 C 123.371094 44.65625 123.136719 42.996094 120.96875 42.996094 C 119.972656 42.996094 119.113281 43.445312 118.429688 44.304688 L 118.429688 43.09375 L 117.160156 43.09375 L 117.160156 51.140625 L 118.507812 51.140625 L 118.507812 46.667969 C 118.507812 45.574219 118.9375 44.070312 120.285156 44.070312 C 121.964844 44.070312 122.003906 45.242188 122.003906 45.867188 L 122.003906 51.140625 L 123.371094 51.140625 Z M 123.371094 45.75 "/>
<path style=" stroke:none;fill-rule:nonzero;fill:rgb(0%,0%,0%);fill-opacity:1;" d="M 132.351562 38.699219 L 131.023438 38.699219 L 131.023438 43.933594 C 130.203125 43.25 129.265625 42.996094 128.503906 42.996094 C 126.804688 42.996094 125.398438 44.832031 125.398438 47.15625 C 125.398438 49.480469 126.726562 51.316406 128.425781 51.316406 C 129.089844 51.316406 130.105469 51.101562 131.003906 50.222656 L 131.003906 51.140625 L 132.351562 51.140625 Z M 131.003906 49.03125 C 130.574219 49.792969 129.929688 50.242188 129.148438 50.242188 C 128.054688 50.242188 126.765625 49.402344 126.765625 47.175781 C 126.765625 44.792969 128.289062 44.070312 129.324219 44.070312 C 130.027344 44.070312 130.59375 44.441406 131.003906 45.027344 Z M 131.003906 49.03125 "/>
<path style=" stroke:none;fill-rule:nonzero;fill:rgb(0%,0%,0%);fill-opacity:1;" d="M 147.261719 51.023438 C 150.347656 49.792969 152.632812 46.53125 152.632812 43.289062 C 152.632812 40.320312 150.699219 38.523438 148.199219 38.523438 C 144.351562 38.523438 140.484375 42.644531 140.484375 46.785156 C 140.484375 49.597656 142.359375 51.511719 144.957031 51.511719 C 145.5625 51.511719 146.148438 51.433594 146.734375 51.257812 C 146.617188 52.332031 146.617188 52.410156 146.617188 52.761719 C 146.617188 53.269531 146.617188 54.617188 148.042969 54.617188 C 150.191406 54.617188 150.972656 51.257812 150.972656 51.160156 C 150.972656 51.042969 150.894531 50.984375 150.816406 50.984375 C 150.699219 50.984375 150.660156 51.0625 150.621094 51.257812 C 150.230469 52.390625 149.292969 53.035156 148.492188 53.035156 C 147.59375 53.035156 147.359375 52.410156 147.261719 51.023438 Z M 144.039062 50.945312 C 142.613281 50.457031 141.929688 48.972656 141.929688 47.3125 C 141.929688 46.0625 142.398438 43.679688 143.589844 41.863281 C 144.917969 39.832031 146.695312 38.914062 148.082031 38.914062 C 149.957031 38.914062 151.207031 40.417969 151.207031 42.742188 C 151.207031 44.070312 150.582031 48.523438 147.203125 50.496094 C 147.125 49.578125 146.871094 48.503906 145.679688 48.503906 C 144.722656 48.503906 143.882812 49.480469 143.882812 50.359375 C 143.882812 50.554688 143.960938 50.808594 144.039062 50.945312 Z M 146.753906 50.730469 C 146.109375 51.023438 145.5625 51.121094 145.054688 51.121094 C 144.878906 51.121094 144.253906 51.121094 144.253906 50.339844 C 144.253906 49.695312 144.878906 48.855469 145.679688 48.855469 C 146.578125 48.855469 146.773438 49.480469 146.773438 50.378906 C 146.773438 50.476562 146.773438 50.613281 146.753906 50.730469 Z M 146.753906 50.730469 "/>
<path style=" stroke:none;fill-rule:nonzero;fill:rgb(0%,0%,0%);fill-opacity:1;" d="M 170.632812 45.339844 C 170.886719 45.339844 171.199219 45.339844 171.199219 45.007812 C 171.199219 44.675781 170.886719 44.675781 170.632812 44.675781 L 160.066406 44.675781 C 159.8125 44.675781 159.5 44.675781 159.5 44.988281 C 159.5 45.339844 159.792969 45.339844 160.066406 45.339844 Z M 170.632812 48.660156 C 170.886719 48.660156 171.199219 48.660156 171.199219 48.347656 C 171.199219 47.996094 170.886719 47.996094 170.632812 47.996094 L 160.066406 47.996094 C 159.8125 47.996094 159.5 47.996094 159.5 48.328125 C 159.5 48.660156 159.792969 48.660156 160.066406 48.660156 Z M 170.632812 48.660156 "/>
<path style=" stroke:none;fill-rule:nonzero;fill:rgb(0%,0%,0%);fill-opacity:1;" d="M 186.511719 62.539062 C 186.550781 62.558594 186.707031 62.734375 186.726562 62.734375 L 187.117188 62.734375 C 187.175781 62.734375 187.3125 62.714844 187.3125 62.558594 C 187.3125 62.480469 187.273438 62.441406 187.234375 62.382812 C 186.589844 61.738281 185.632812 60.761719 184.519531 58.789062 C 182.585938 55.351562 181.863281 50.917969 181.863281 46.601562 C 181.863281 38.652344 184.128906 33.964844 187.253906 30.800781 C 187.3125 30.742188 187.3125 30.683594 187.3125 30.644531 C 187.3125 30.46875 187.195312 30.46875 186.980469 30.46875 C 186.746094 30.46875 186.707031 30.46875 186.550781 30.625 C 184.832031 32.089844 182.917969 34.589844 181.6875 38.359375 C 180.90625 40.722656 180.496094 43.613281 180.496094 46.601562 C 180.496094 50.839844 181.277344 55.644531 184.089844 59.804688 C 184.578125 60.507812 185.242188 61.25 185.242188 61.25 C 185.417969 61.484375 185.671875 61.757812 185.808594 61.894531 Z M 186.511719 62.539062 "/>
<path style=" stroke:none;fill-rule:nonzero;fill:rgb(0%,0%,0%);fill-opacity:1;" d="M 193.082031 39.65625 C 193.082031 39.226562 193.082031 39.226562 192.730469 39.226562 C 192.300781 39.695312 191.402344 40.359375 189.566406 40.359375 L 189.566406 40.886719 C 189.976562 40.886719 190.875 40.886719 191.851562 40.417969 L 191.851562 49.753906 C 191.851562 50.398438 191.792969 50.613281 190.230469 50.613281 L 189.664062 50.613281 L 189.664062 51.140625 C 190.152344 51.101562 191.890625 51.101562 192.476562 51.101562 C 193.0625 51.101562 194.800781 51.101562 195.269531 51.140625 L 195.269531 50.613281 L 194.722656 50.613281 C 193.140625 50.613281 193.082031 50.398438 193.082031 49.753906 Z M 193.082031 39.65625 "/>
<path style=" stroke:none;fill-rule:nonzero;fill:rgb(0%,0%,0%);fill-opacity:1;" d="M 200.269531 51.21875 C 200.269531 50.164062 199.9375 49.402344 199.195312 49.402344 C 198.628906 49.402344 198.335938 49.871094 198.335938 50.261719 C 198.335938 50.652344 198.609375 51.140625 199.214844 51.140625 C 199.449219 51.140625 199.644531 51.0625 199.800781 50.90625 C 199.839844 50.867188 199.859375 50.867188 199.878906 50.867188 C 199.917969 50.867188 199.917969 51.121094 199.917969 51.21875 C 199.917969 51.804688 199.800781 52.976562 198.765625 54.128906 C 198.570312 54.34375 198.570312 54.382812 198.570312 54.421875 C 198.570312 54.519531 198.648438 54.597656 198.746094 54.597656 C 198.882812 54.597656 200.269531 53.269531 200.269531 51.21875 Z M 200.269531 51.21875 "/>
<path style=" stroke:none;fill-rule:nonzero;fill:rgb(0%,0%,0%);fill-opacity:1;" d="M 216.542969 47.019531 C 216.855469 47.019531 217.167969 47.019531 217.167969 46.667969 C 217.167969 46.296875 216.855469 46.296875 216.542969 46.296875 L 206.835938 46.296875 C 206.542969 46.296875 206.210938 46.296875 206.210938 46.667969 C 206.210938 47.019531 206.542969 47.019531 206.835938 47.019531 Z M 216.542969 47.019531 "/>
<path style=" stroke:none;fill-rule:nonzero;fill:rgb(0%,0%,0%);fill-opacity:1;" d="M 225.648438 50.722656 L 222.503906 43.75 C 222.367188 43.457031 222.289062 43.457031 222.230469 43.457031 C 222.210938 43.457031 222.113281 43.457031 221.917969 43.59375 L 220.21875 44.902344 C 219.984375 45.078125 219.984375 45.117188 219.984375 45.175781 C 219.984375 45.273438 220.042969 45.371094 220.160156 45.371094 C 220.277344 45.371094 220.570312 45.117188 220.765625 44.980469 C 220.882812 44.902344 221.15625 44.6875 221.351562 44.550781 L 224.886719 52.324219 C 225.003906 52.597656 225.101562 52.597656 225.257812 52.597656 C 225.53125 52.597656 225.570312 52.5 225.707031 52.246094 L 233.851562 35.390625 C 233.96875 35.136719 233.96875 35.058594 233.96875 35.039062 C 233.96875 34.84375 233.832031 34.667969 233.617188 34.667969 C 233.460938 34.667969 233.34375 34.765625 233.207031 35.058594 Z M 225.648438 50.722656 "/>
<path style=" stroke:none;fill-rule:nonzero;fill:rgb(0%,0%,0%);fill-opacity:1;" d="M 233.511719 34.65625 L 242.359375 34.65625 L 242.359375 35.40625 L 233.511719 35.40625 Z M 233.511719 34.65625 "/>
<path style=" stroke:none;fill-rule:nonzero;fill:rgb(0%,0%,0%);fill-opacity:1;" d="M 236.824219 44.695312 C 236.511719 44.714844 236.453125 44.734375 236.453125 44.910156 C 236.453125 45.085938 236.53125 45.085938 236.863281 45.085938 L 237.683594 45.085938 C 239.207031 45.085938 239.890625 46.335938 239.890625 48.054688 C 239.890625 50.398438 238.660156 51.023438 237.78125 51.023438 C 236.921875 51.023438 235.457031 50.613281 234.949219 49.441406 C 235.515625 49.519531 236.042969 49.207031 236.042969 48.5625 C 236.042969 48.035156 235.652344 47.683594 235.164062 47.683594 C 234.734375 47.683594 234.265625 47.9375 234.265625 48.621094 C 234.265625 50.203125 235.847656 51.511719 237.839844 51.511719 C 239.96875 51.511719 241.550781 49.890625 241.550781 48.074219 C 241.550781 46.433594 240.222656 45.125 238.503906 44.832031 C 240.066406 44.382812 241.0625 43.074219 241.0625 41.667969 C 241.0625 40.261719 239.597656 39.226562 237.859375 39.226562 C 236.0625 39.226562 234.734375 40.320312 234.734375 41.628906 C 234.734375 42.332031 235.300781 42.488281 235.574219 42.488281 C 235.945312 42.488281 236.375 42.214844 236.375 41.667969 C 236.375 41.101562 235.945312 40.847656 235.554688 40.847656 C 235.4375 40.847656 235.398438 40.847656 235.359375 40.867188 C 236.042969 39.65625 237.722656 39.65625 237.800781 39.65625 C 238.40625 39.65625 239.558594 39.910156 239.558594 41.667969 C 239.558594 42.019531 239.519531 43.015625 238.992188 43.796875 C 238.445312 44.578125 237.839844 44.636719 237.351562 44.65625 Z M 236.824219 44.695312 "/>
<path style=" stroke:none;fill-rule:nonzero;fill:rgb(0%,0%,0%);fill-opacity:1;" d="M 249.6875 46.601562 C 249.6875 41.445312 248.476562 35.976562 244.960938 31.953125 C 244.707031 31.660156 244.042969 30.957031 243.613281 30.585938 C 243.476562 30.46875 243.4375 30.46875 243.203125 30.46875 C 243.027344 30.46875 242.871094 30.46875 242.871094 30.644531 C 242.871094 30.722656 242.949219 30.800781 242.988281 30.839844 C 243.59375 31.464844 244.550781 32.441406 245.664062 34.414062 C 247.597656 37.851562 248.320312 42.285156 248.320312 46.601562 C 248.320312 54.375 246.171875 59.121094 242.949219 62.402344 C 242.910156 62.441406 242.871094 62.5 242.871094 62.558594 C 242.871094 62.734375 243.027344 62.734375 243.203125 62.734375 C 243.4375 62.734375 243.476562 62.734375 243.652344 62.578125 C 245.351562 61.113281 247.265625 58.632812 248.496094 54.84375 C 249.296875 52.382812 249.6875 49.472656 249.6875 46.601562 Z M 249.6875 46.601562 "/>
</g>
</svg>
