<?xml version="1.0" encoding="UTF-8"?>
<svg xmlns="http://www.w3.org/2000/svg" xmlns:xlink="http://www.w3.org/1999/xlink" width="188.41509pt" height="18.964844pt" viewBox="0 0 188.41509 18.964844" version="1.1">
<g id="surface1">
<path style=" stroke:none;fill-rule:nonzero;fill:rgb(0%,0%,0%);fill-opacity:1;" d="M 4.472656 8.769531 L 7.480469 8.769531 C 9.960938 8.769531 12.421875 6.933594 12.421875 4.902344 C 12.421875 3.496094 11.25 2.226562 8.984375 2.226562 L 3.4375 2.226562 C 3.105469 2.226562 2.949219 2.226562 2.949219 2.558594 C 2.949219 2.753906 3.105469 2.753906 3.378906 2.753906 C 4.472656 2.753906 4.472656 2.890625 4.472656 3.085938 C 4.472656 3.125 4.472656 3.222656 4.394531 3.496094 L 1.972656 13.144531 C 1.816406 13.769531 1.777344 13.945312 0.527344 13.945312 C 0.175781 13.945312 0 13.945312 0 14.277344 C 0 14.472656 0.15625 14.472656 0.273438 14.472656 C 0.605469 14.472656 0.976562 14.433594 1.308594 14.433594 L 3.417969 14.433594 C 3.75 14.433594 4.121094 14.472656 4.472656 14.472656 C 4.609375 14.472656 4.804688 14.472656 4.804688 14.140625 C 4.804688 13.945312 4.648438 13.945312 4.375 13.945312 C 3.300781 13.945312 3.28125 13.828125 3.28125 13.652344 C 3.28125 13.554688 3.300781 13.4375 3.320312 13.339844 Z M 5.761719 3.4375 C 5.917969 2.773438 5.996094 2.753906 6.699219 2.753906 L 8.457031 2.753906 C 9.804688 2.753906 10.917969 3.183594 10.917969 4.53125 C 10.917969 4.980469 10.683594 6.503906 9.863281 7.34375 C 9.550781 7.65625 8.691406 8.339844 7.070312 8.339844 L 4.53125 8.339844 Z M 5.761719 3.4375 "/>
<path style=" stroke:none;fill-rule:nonzero;fill:rgb(0%,0%,0%);fill-opacity:1;" d="M 21.78125 18.828125 C 21.78125 18.769531 21.78125 18.730469 21.488281 18.4375 C 19.691406 16.621094 18.695312 13.671875 18.695312 10 C 18.695312 6.523438 19.535156 3.535156 21.605469 1.425781 C 21.78125 1.25 21.78125 1.230469 21.78125 1.171875 C 21.78125 1.054688 21.703125 1.035156 21.625 1.035156 C 21.390625 1.035156 19.925781 2.324219 19.046875 4.082031 C 18.128906 5.878906 17.71875 7.8125 17.71875 10 C 17.71875 11.601562 17.972656 13.730469 18.910156 15.664062 C 19.964844 17.8125 21.429688 18.964844 21.625 18.964844 C 21.703125 18.964844 21.78125 18.945312 21.78125 18.828125 Z M 21.78125 18.828125 "/>
<path style=" stroke:none;fill-rule:nonzero;fill:rgb(0%,0%,0%);fill-opacity:1;" d="M 25.757812 12.480469 C 25.132812 13.535156 24.527344 13.90625 23.667969 13.945312 C 23.472656 13.964844 23.316406 13.964844 23.316406 14.296875 C 23.316406 14.394531 23.414062 14.472656 23.53125 14.472656 C 23.863281 14.472656 24.664062 14.433594 24.996094 14.433594 C 25.503906 14.433594 26.089844 14.472656 26.578125 14.472656 C 26.695312 14.472656 26.910156 14.472656 26.910156 14.140625 C 26.910156 13.964844 26.753906 13.945312 26.65625 13.945312 C 26.246094 13.925781 25.894531 13.769531 25.894531 13.339844 C 25.894531 13.085938 26.011719 12.890625 26.246094 12.5 L 27.613281 10.234375 L 32.183594 10.234375 C 32.203125 10.410156 32.203125 10.546875 32.222656 10.703125 C 32.261719 11.171875 32.476562 13.046875 32.476562 13.378906 C 32.476562 13.925781 31.558594 13.945312 31.285156 13.945312 C 31.089844 13.945312 30.894531 13.945312 30.894531 14.277344 C 30.894531 14.472656 31.050781 14.472656 31.148438 14.472656 C 31.460938 14.472656 31.8125 14.433594 32.125 14.433594 L 33.140625 14.433594 C 34.234375 14.433594 35.035156 14.472656 35.054688 14.472656 C 35.171875 14.472656 35.367188 14.472656 35.367188 14.140625 C 35.367188 13.945312 35.210938 13.945312 34.9375 13.945312 C 33.960938 13.945312 33.941406 13.789062 33.882812 13.261719 L 32.789062 2.070312 C 32.75 1.699219 32.671875 1.679688 32.476562 1.679688 C 32.300781 1.679688 32.203125 1.699219 32.027344 1.972656 Z M 27.90625 9.726562 L 31.519531 3.691406 L 32.125 9.726562 Z M 27.90625 9.726562 "/>
<path style=" stroke:none;fill-rule:nonzero;fill:rgb(0%,0%,0%);fill-opacity:1;" d="M 41.761719 1.679688 C 41.761719 1.347656 41.761719 1.035156 41.410156 1.035156 C 41.039062 1.035156 41.039062 1.347656 41.039062 1.679688 L 41.039062 18.300781 C 41.039062 18.632812 41.039062 18.945312 41.410156 18.945312 C 41.761719 18.945312 41.761719 18.632812 41.761719 18.300781 Z M 41.761719 1.679688 "/>
<path style=" stroke:none;fill-rule:nonzero;fill:rgb(0%,0%,0%);fill-opacity:1;" d="M 53.421875 3.4375 C 53.578125 2.773438 53.65625 2.753906 54.359375 2.753906 L 56.683594 2.753906 C 58.714844 2.753906 58.714844 4.472656 58.714844 4.628906 C 58.714844 6.074219 57.25 7.929688 54.886719 7.929688 L 52.308594 7.929688 Z M 56.449219 8.066406 C 58.402344 7.714844 60.179688 6.347656 60.179688 4.707031 C 60.179688 3.300781 58.949219 2.226562 56.917969 2.226562 L 51.15625 2.226562 C 50.824219 2.226562 50.667969 2.226562 50.667969 2.558594 C 50.667969 2.753906 50.824219 2.753906 51.097656 2.753906 C 52.191406 2.753906 52.191406 2.890625 52.191406 3.085938 C 52.191406 3.125 52.191406 3.222656 52.113281 3.496094 L 49.691406 13.144531 C 49.535156 13.769531 49.496094 13.945312 48.246094 13.945312 C 47.894531 13.945312 47.71875 13.945312 47.71875 14.277344 C 47.71875 14.472656 47.835938 14.472656 48.1875 14.472656 L 54.339844 14.472656 C 57.074219 14.472656 59.203125 12.402344 59.203125 10.585938 C 59.203125 9.121094 57.894531 8.222656 56.449219 8.066406 Z M 53.910156 13.945312 L 51.488281 13.945312 C 51.234375 13.945312 51.195312 13.945312 51.097656 13.925781 C 50.902344 13.925781 50.882812 13.886719 50.882812 13.730469 C 50.882812 13.613281 50.902344 13.496094 50.941406 13.339844 L 52.210938 8.28125 L 55.570312 8.28125 C 57.679688 8.28125 57.679688 10.253906 57.679688 10.410156 C 57.679688 12.128906 56.136719 13.945312 53.910156 13.945312 Z M 53.910156 13.945312 "/>
<path style=" stroke:none;fill-rule:nonzero;fill:rgb(0%,0%,0%);fill-opacity:1;" d="M 66.167969 10 C 66.167969 8.652344 65.992188 6.425781 64.976562 4.335938 C 63.921875 2.1875 62.457031 1.035156 62.261719 1.035156 C 62.183594 1.035156 62.085938 1.054688 62.085938 1.171875 C 62.085938 1.230469 62.085938 1.25 62.398438 1.5625 C 64.195312 3.378906 65.191406 6.328125 65.191406 10 C 65.191406 13.476562 64.351562 16.464844 62.28125 18.574219 C 62.085938 18.730469 62.085938 18.769531 62.085938 18.828125 C 62.085938 18.945312 62.183594 18.964844 62.261719 18.964844 C 62.496094 18.964844 63.960938 17.675781 64.839844 15.917969 C 65.757812 14.101562 66.167969 12.167969 66.167969 10 Z M 66.167969 10 "/>
<path style=" stroke:none;fill-rule:nonzero;fill:rgb(0%,0%,0%);fill-opacity:1;" d="M 79.058594 10.332031 L 84.019531 10.332031 C 84.273438 10.332031 84.585938 10.332031 84.585938 10 C 84.585938 9.667969 84.273438 9.667969 84.019531 9.667969 L 79.058594 9.667969 L 79.058594 4.726562 C 79.058594 4.472656 79.058594 4.140625 78.746094 4.140625 C 78.394531 4.140625 78.394531 4.453125 78.394531 4.726562 L 78.394531 9.667969 L 73.453125 9.667969 C 73.199219 9.667969 72.886719 9.667969 72.886719 10 C 72.886719 10.332031 73.179688 10.332031 73.453125 10.332031 L 78.394531 10.332031 L 78.394531 15.273438 C 78.394531 15.527344 78.394531 15.859375 78.726562 15.859375 C 79.058594 15.859375 79.058594 15.546875 79.058594 15.273438 Z M 79.058594 10.332031 "/>
<path style=" stroke:none;fill-rule:nonzero;fill:rgb(0%,0%,0%);fill-opacity:1;" d="M 94.921875 8.769531 L 97.929688 8.769531 C 100.410156 8.769531 102.871094 6.933594 102.871094 4.902344 C 102.871094 3.496094 101.699219 2.226562 99.433594 2.226562 L 93.886719 2.226562 C 93.554688 2.226562 93.398438 2.226562 93.398438 2.558594 C 93.398438 2.753906 93.554688 2.753906 93.828125 2.753906 C 94.921875 2.753906 94.921875 2.890625 94.921875 3.085938 C 94.921875 3.125 94.921875 3.222656 94.84375 3.496094 L 92.421875 13.144531 C 92.265625 13.769531 92.226562 13.945312 90.976562 13.945312 C 90.625 13.945312 90.449219 13.945312 90.449219 14.277344 C 90.449219 14.472656 90.605469 14.472656 90.722656 14.472656 C 91.054688 14.472656 91.425781 14.433594 91.757812 14.433594 L 93.867188 14.433594 C 94.199219 14.433594 94.570312 14.472656 94.921875 14.472656 C 95.058594 14.472656 95.253906 14.472656 95.253906 14.140625 C 95.253906 13.945312 95.097656 13.945312 94.824219 13.945312 C 93.75 13.945312 93.730469 13.828125 93.730469 13.652344 C 93.730469 13.554688 93.75 13.4375 93.769531 13.339844 Z M 96.210938 3.4375 C 96.367188 2.773438 96.445312 2.753906 97.148438 2.753906 L 98.90625 2.753906 C 100.253906 2.753906 101.367188 3.183594 101.367188 4.53125 C 101.367188 4.980469 101.132812 6.503906 100.3125 7.34375 C 100 7.65625 99.140625 8.339844 97.519531 8.339844 L 94.980469 8.339844 Z M 96.210938 3.4375 "/>
<path style=" stroke:none;fill-rule:nonzero;fill:rgb(0%,0%,0%);fill-opacity:1;" d="M 112.082031 18.828125 C 112.082031 18.769531 112.082031 18.730469 111.789062 18.4375 C 109.992188 16.621094 108.996094 13.671875 108.996094 10 C 108.996094 6.523438 109.835938 3.535156 111.90625 1.425781 C 112.082031 1.25 112.082031 1.230469 112.082031 1.171875 C 112.082031 1.054688 112.003906 1.035156 111.925781 1.035156 C 111.691406 1.035156 110.226562 2.324219 109.347656 4.082031 C 108.429688 5.878906 108.019531 7.8125 108.019531 10 C 108.019531 11.601562 108.273438 13.730469 109.210938 15.664062 C 110.265625 17.8125 111.730469 18.964844 111.925781 18.964844 C 112.003906 18.964844 112.082031 18.945312 112.082031 18.828125 Z M 112.082031 18.828125 "/>
<path style=" stroke:none;fill-rule:nonzero;fill:rgb(0%,0%,0%);fill-opacity:1;" d="M 116.207031 12.480469 C 115.582031 13.535156 114.976562 13.90625 114.117188 13.945312 C 113.921875 13.964844 113.765625 13.964844 113.765625 14.296875 C 113.765625 14.394531 113.863281 14.472656 113.980469 14.472656 C 114.3125 14.472656 115.113281 14.433594 115.445312 14.433594 C 115.953125 14.433594 116.539062 14.472656 117.027344 14.472656 C 117.144531 14.472656 117.359375 14.472656 117.359375 14.140625 C 117.359375 13.964844 117.203125 13.945312 117.105469 13.945312 C 116.695312 13.925781 116.34375 13.769531 116.34375 13.339844 C 116.34375 13.085938 116.460938 12.890625 116.695312 12.5 L 118.0625 10.234375 L 122.632812 10.234375 C 122.652344 10.410156 122.652344 10.546875 122.671875 10.703125 C 122.710938 11.171875 122.925781 13.046875 122.925781 13.378906 C 122.925781 13.925781 122.007812 13.945312 121.734375 13.945312 C 121.539062 13.945312 121.34375 13.945312 121.34375 14.277344 C 121.34375 14.472656 121.5 14.472656 121.597656 14.472656 C 121.910156 14.472656 122.261719 14.433594 122.574219 14.433594 L 123.589844 14.433594 C 124.683594 14.433594 125.484375 14.472656 125.503906 14.472656 C 125.621094 14.472656 125.816406 14.472656 125.816406 14.140625 C 125.816406 13.945312 125.660156 13.945312 125.386719 13.945312 C 124.410156 13.945312 124.390625 13.789062 124.332031 13.261719 L 123.238281 2.070312 C 123.199219 1.699219 123.121094 1.679688 122.925781 1.679688 C 122.75 1.679688 122.652344 1.699219 122.476562 1.972656 Z M 118.355469 9.726562 L 121.96875 3.691406 L 122.574219 9.726562 Z M 118.355469 9.726562 "/>
<path style=" stroke:none;fill-rule:nonzero;fill:rgb(0%,0%,0%);fill-opacity:1;" d="M 129.503906 1.054688 C 129.582031 0.898438 129.621094 0.800781 129.621094 0.664062 C 129.621094 0.3125 129.308594 0 128.917969 0 C 128.566406 0 128.332031 0.234375 128.253906 0.566406 L 126.769531 6.015625 C 126.769531 6.035156 126.730469 6.171875 126.730469 6.191406 C 126.730469 6.328125 127.042969 6.40625 127.140625 6.40625 C 127.21875 6.40625 127.238281 6.367188 127.296875 6.210938 Z M 129.503906 1.054688 "/>
<path style=" stroke:none;fill-rule:nonzero;fill:rgb(0%,0%,0%);fill-opacity:1;" d="M 136.261719 1.679688 C 136.261719 1.347656 136.261719 1.035156 135.910156 1.035156 C 135.539062 1.035156 135.539062 1.347656 135.539062 1.679688 L 135.539062 18.300781 C 135.539062 18.632812 135.539062 18.945312 135.910156 18.945312 C 136.261719 18.945312 136.261719 18.632812 136.261719 18.300781 Z M 136.261719 1.679688 "/>
<path style=" stroke:none;fill-rule:nonzero;fill:rgb(0%,0%,0%);fill-opacity:1;" d="M 147.921875 3.4375 C 148.078125 2.773438 148.15625 2.753906 148.859375 2.753906 L 151.183594 2.753906 C 153.214844 2.753906 153.214844 4.472656 153.214844 4.628906 C 153.214844 6.074219 151.75 7.929688 149.386719 7.929688 L 146.808594 7.929688 Z M 150.949219 8.066406 C 152.902344 7.714844 154.679688 6.347656 154.679688 4.707031 C 154.679688 3.300781 153.449219 2.226562 151.417969 2.226562 L 145.65625 2.226562 C 145.324219 2.226562 145.167969 2.226562 145.167969 2.558594 C 145.167969 2.753906 145.324219 2.753906 145.597656 2.753906 C 146.691406 2.753906 146.691406 2.890625 146.691406 3.085938 C 146.691406 3.125 146.691406 3.222656 146.613281 3.496094 L 144.191406 13.144531 C 144.035156 13.769531 143.996094 13.945312 142.746094 13.945312 C 142.394531 13.945312 142.21875 13.945312 142.21875 14.277344 C 142.21875 14.472656 142.335938 14.472656 142.6875 14.472656 L 148.839844 14.472656 C 151.574219 14.472656 153.703125 12.402344 153.703125 10.585938 C 153.703125 9.121094 152.394531 8.222656 150.949219 8.066406 Z M 148.410156 13.945312 L 145.988281 13.945312 C 145.734375 13.945312 145.695312 13.945312 145.597656 13.925781 C 145.402344 13.925781 145.382812 13.886719 145.382812 13.730469 C 145.382812 13.613281 145.402344 13.496094 145.441406 13.339844 L 146.710938 8.28125 L 150.070312 8.28125 C 152.179688 8.28125 152.179688 10.253906 152.179688 10.410156 C 152.179688 12.128906 150.636719 13.945312 148.410156 13.945312 Z M 148.410156 13.945312 "/>
<path style=" stroke:none;fill-rule:nonzero;fill:rgb(0%,0%,0%);fill-opacity:1;" d="M 160.667969 10 C 160.667969 8.652344 160.492188 6.425781 159.476562 4.335938 C 158.421875 2.1875 156.957031 1.035156 156.761719 1.035156 C 156.683594 1.035156 156.585938 1.054688 156.585938 1.171875 C 156.585938 1.230469 156.585938 1.25 156.898438 1.5625 C 158.695312 3.378906 159.691406 6.328125 159.691406 10 C 159.691406 13.476562 158.851562 16.464844 156.78125 18.574219 C 156.585938 18.730469 156.585938 18.769531 156.585938 18.828125 C 156.585938 18.945312 156.683594 18.964844 156.761719 18.964844 C 156.996094 18.964844 158.460938 17.675781 159.339844 15.917969 C 160.257812 14.101562 160.667969 12.167969 160.667969 10 Z M 160.667969 10 "/>
<path style=" stroke:none;fill-rule:nonzero;fill:rgb(0%,0%,0%);fill-opacity:1;" d="M 179.570312 8.671875 C 179.824219 8.671875 180.136719 8.671875 180.136719 8.339844 C 180.136719 8.007812 179.824219 8.007812 179.570312 8.007812 L 169.003906 8.007812 C 168.75 8.007812 168.4375 8.007812 168.4375 8.320312 C 168.4375 8.671875 168.730469 8.671875 169.003906 8.671875 Z M 179.570312 11.992188 C 179.824219 11.992188 180.136719 11.992188 180.136719 11.679688 C 180.136719 11.328125 179.824219 11.328125 179.570312 11.328125 L 169.003906 11.328125 C 168.75 11.328125 168.4375 11.328125 168.4375 11.660156 C 168.4375 11.992188 168.730469 11.992188 169.003906 11.992188 Z M 179.570312 11.992188 "/>
<path style=" stroke:none;fill-rule:nonzero;fill:rgb(0%,0%,0%);fill-opacity:1;" d="M 185.191406 10.136719 C 185.191406 9.082031 185.621094 7.5 187.4375 6.152344 C 187.945312 5.78125 188.414062 5.214844 188.414062 4.296875 C 188.414062 3.203125 187.652344 1.855469 185.074219 1.855469 C 183.140625 1.855469 182.085938 3.105469 182.085938 4.257812 C 182.085938 4.902344 182.554688 5.039062 182.828125 5.039062 C 183.140625 5.039062 183.570312 4.824219 183.570312 4.296875 C 183.570312 3.867188 183.257812 3.554688 182.808594 3.554688 C 182.710938 3.554688 182.671875 3.554688 182.632812 3.574219 C 183.023438 2.636719 184.058594 2.207031 185.015625 2.207031 C 187.046875 2.207031 187.046875 3.515625 187.046875 4.199219 C 187.046875 5.253906 186.714844 5.605469 186.421875 5.917969 C 185.191406 7.226562 184.800781 8.90625 184.800781 10 L 184.800781 10.859375 C 184.800781 11.171875 184.800781 11.25 184.996094 11.25 C 185.191406 11.25 185.191406 11.113281 185.191406 10.800781 Z M 185.855469 13.59375 C 185.855469 13.125 185.464844 12.734375 184.996094 12.734375 C 184.46875 12.734375 184.117188 13.164062 184.117188 13.59375 C 184.117188 14.140625 184.546875 14.472656 184.976562 14.472656 C 185.484375 14.472656 185.855469 14.082031 185.855469 13.59375 Z M 185.855469 13.59375 "/>
</g>
</svg>
