<?xml version="1.0" encoding="UTF-8"?>
<svg xmlns="http://www.w3.org/2000/svg" xmlns:xlink="http://www.w3.org/1999/xlink" width="209.04837pt" height="32.184277pt" viewBox="0 0 209.04837 32.184277" version="1.1">
<g id="surface1">
<path style=" stroke:none;fill-rule:nonzero;fill:rgb(0%,0%,0%);fill-opacity:1;" d="M 6.09375 7.441406 L 4.511719 7.441406 L 0 19.882812 L 1.328125 19.882812 L 2.636719 16.25 L 7.695312 16.25 L 9.023438 19.882812 L 10.605469 19.882812 Z M 5.15625 8.730469 L 7.304688 15.234375 L 3.027344 15.234375 Z M 5.15625 8.730469 "/>
<path style=" stroke:none;fill-rule:nonzero;fill:rgb(0%,0%,0%);fill-opacity:1;" d="M 18.660156 14.492188 C 18.660156 13.398438 18.425781 11.738281 16.257812 11.738281 C 15.261719 11.738281 14.402344 12.1875 13.71875 13.046875 L 13.71875 11.835938 L 12.449219 11.835938 L 12.449219 19.882812 L 13.796875 19.882812 L 13.796875 15.410156 C 13.796875 14.316406 14.226562 12.8125 15.574219 12.8125 C 17.253906 12.8125 17.292969 13.984375 17.292969 14.609375 L 17.292969 19.882812 L 18.660156 19.882812 Z M 18.660156 14.492188 "/>
<path style=" stroke:none;fill-rule:nonzero;fill:rgb(0%,0%,0%);fill-opacity:1;" d="M 27.640625 7.441406 L 26.3125 7.441406 L 26.3125 12.675781 C 25.492188 11.992188 24.554688 11.738281 23.792969 11.738281 C 22.09375 11.738281 20.6875 13.574219 20.6875 15.898438 C 20.6875 18.222656 22.015625 20.058594 23.714844 20.058594 C 24.378906 20.058594 25.394531 19.84375 26.292969 18.964844 L 26.292969 19.882812 L 27.640625 19.882812 Z M 26.292969 17.773438 C 25.863281 18.535156 25.21875 18.984375 24.4375 18.984375 C 23.34375 18.984375 22.054688 18.144531 22.054688 15.917969 C 22.054688 13.535156 23.578125 12.8125 24.613281 12.8125 C 25.316406 12.8125 25.882812 13.183594 26.292969 13.769531 Z M 26.292969 17.773438 "/>
<path style=" stroke:none;fill-rule:nonzero;fill:rgb(0%,0%,0%);fill-opacity:1;" d="M 42.660156 14.492188 C 42.660156 13.398438 42.425781 11.738281 40.257812 11.738281 C 39.027344 11.738281 38.207031 12.441406 37.777344 12.988281 L 37.777344 7.441406 L 36.449219 7.441406 L 36.449219 19.882812 L 37.796875 19.882812 L 37.796875 15.410156 C 37.796875 14.316406 38.226562 12.8125 39.574219 12.8125 C 41.253906 12.8125 41.292969 13.984375 41.292969 14.609375 L 41.292969 19.882812 L 42.660156 19.882812 Z M 42.660156 14.492188 "/>
<path style=" stroke:none;fill-rule:nonzero;fill:rgb(0%,0%,0%);fill-opacity:1;" d="M 51.367188 15.839844 C 51.367188 15.078125 51.289062 13.984375 50.722656 13.027344 C 49.980469 11.796875 48.730469 11.660156 48.203125 11.660156 C 46.269531 11.660156 44.648438 13.515625 44.648438 15.839844 C 44.648438 18.222656 46.367188 20.058594 48.457031 20.058594 C 49.277344 20.058594 50.273438 19.824219 51.25 19.121094 C 51.25 19.042969 51.191406 18.476562 51.191406 18.457031 C 51.171875 18.4375 51.152344 18.027344 51.152344 17.96875 C 50.078125 18.867188 49.023438 18.984375 48.496094 18.984375 C 47.109375 18.984375 45.917969 17.753906 45.898438 15.839844 Z M 45.996094 14.882812 C 46.308594 13.671875 47.148438 12.734375 48.203125 12.734375 C 48.769531 12.734375 50 12.988281 50.292969 14.882812 Z M 45.996094 14.882812 "/>
<path style=" stroke:none;fill-rule:nonzero;fill:rgb(0%,0%,0%);fill-opacity:1;" d="M 59.460938 14.492188 C 59.460938 13.398438 59.226562 11.738281 57.058594 11.738281 C 56.0625 11.738281 55.203125 12.1875 54.519531 13.046875 L 54.519531 11.835938 L 53.25 11.835938 L 53.25 19.882812 L 54.597656 19.882812 L 54.597656 15.410156 C 54.597656 14.316406 55.027344 12.8125 56.375 12.8125 C 58.054688 12.8125 58.09375 13.984375 58.09375 14.609375 L 58.09375 19.882812 L 59.460938 19.882812 Z M 59.460938 14.492188 "/>
<path style=" stroke:none;fill-rule:nonzero;fill:rgb(0%,0%,0%);fill-opacity:1;" d="M 68.050781 17.949219 C 67.230469 18.613281 66.3125 18.945312 65.316406 18.945312 C 63.8125 18.945312 62.855469 17.617188 62.855469 15.878906 C 62.855469 14.394531 63.578125 12.773438 65.355469 12.773438 C 66.566406 12.773438 67.074219 13.046875 67.835938 13.574219 L 68.050781 12.402344 C 67.015625 11.796875 66.429688 11.660156 65.355469 11.660156 C 62.894531 11.660156 61.488281 13.847656 61.488281 15.878906 C 61.488281 18.183594 63.148438 20.058594 65.296875 20.058594 C 66.175781 20.058594 67.171875 19.84375 68.167969 19.121094 C 68.167969 19.082031 68.109375 18.515625 68.089844 18.457031 Z M 68.050781 17.949219 "/>
<path style=" stroke:none;fill-rule:nonzero;fill:rgb(0%,0%,0%);fill-opacity:1;" d="M 75.964844 15.839844 C 75.964844 15.078125 75.886719 13.984375 75.320312 13.027344 C 74.578125 11.796875 73.328125 11.660156 72.800781 11.660156 C 70.867188 11.660156 69.246094 13.515625 69.246094 15.839844 C 69.246094 18.222656 70.964844 20.058594 73.054688 20.058594 C 73.875 20.058594 74.871094 19.824219 75.847656 19.121094 C 75.847656 19.042969 75.789062 18.476562 75.789062 18.457031 C 75.769531 18.4375 75.75 18.027344 75.75 17.96875 C 74.675781 18.867188 73.621094 18.984375 73.09375 18.984375 C 71.707031 18.984375 70.515625 17.753906 70.496094 15.839844 Z M 70.59375 14.882812 C 70.90625 13.671875 71.746094 12.734375 72.800781 12.734375 C 73.367188 12.734375 74.597656 12.988281 74.890625 14.882812 Z M 70.59375 14.882812 "/>
<path style=" stroke:none;fill-rule:nonzero;fill:rgb(0%,0%,0%);fill-opacity:1;" d="M 79.625 19.863281 L 79.625 18.4375 L 78.160156 18.4375 L 78.160156 19.882812 L 78.609375 19.882812 L 78.160156 22.128906 L 78.882812 22.128906 Z M 79.625 19.863281 "/>
<path style=" stroke:none;fill-rule:nonzero;fill:rgb(0%,0%,0%);fill-opacity:1;" d="M 90.160156 17.890625 C 89.535156 18.945312 88.929688 19.316406 88.070312 19.355469 C 87.875 19.375 87.71875 19.375 87.71875 19.707031 C 87.71875 19.804688 87.816406 19.882812 87.933594 19.882812 C 88.265625 19.882812 89.066406 19.84375 89.398438 19.84375 C 89.90625 19.84375 90.492188 19.882812 90.980469 19.882812 C 91.097656 19.882812 91.3125 19.882812 91.3125 19.550781 C 91.3125 19.375 91.15625 19.355469 91.058594 19.355469 C 90.648438 19.335938 90.296875 19.179688 90.296875 18.75 C 90.296875 18.496094 90.414062 18.300781 90.648438 17.910156 L 92.015625 15.644531 L 96.585938 15.644531 C 96.605469 15.820312 96.605469 15.957031 96.625 16.113281 C 96.664062 16.582031 96.878906 18.457031 96.878906 18.789062 C 96.878906 19.335938 95.960938 19.355469 95.6875 19.355469 C 95.492188 19.355469 95.296875 19.355469 95.296875 19.6875 C 95.296875 19.882812 95.453125 19.882812 95.550781 19.882812 C 95.863281 19.882812 96.214844 19.84375 96.527344 19.84375 L 97.542969 19.84375 C 98.636719 19.84375 99.4375 19.882812 99.457031 19.882812 C 99.574219 19.882812 99.769531 19.882812 99.769531 19.550781 C 99.769531 19.355469 99.613281 19.355469 99.339844 19.355469 C 98.363281 19.355469 98.34375 19.199219 98.285156 18.671875 L 97.191406 7.480469 C 97.152344 7.109375 97.074219 7.089844 96.878906 7.089844 C 96.703125 7.089844 96.605469 7.109375 96.429688 7.382812 Z M 92.308594 15.136719 L 95.921875 9.101562 L 96.527344 15.136719 Z M 92.308594 15.136719 "/>
<path style=" stroke:none;fill-rule:nonzero;fill:rgb(0%,0%,0%);fill-opacity:1;" d="M 117.371094 14.082031 C 117.625 14.082031 117.9375 14.082031 117.9375 13.75 C 117.9375 13.417969 117.625 13.417969 117.371094 13.417969 L 106.804688 13.417969 C 106.550781 13.417969 106.238281 13.417969 106.238281 13.730469 C 106.238281 14.082031 106.53125 14.082031 106.804688 14.082031 Z M 117.371094 17.402344 C 117.625 17.402344 117.9375 17.402344 117.9375 17.089844 C 117.9375 16.738281 117.625 16.738281 117.371094 16.738281 L 106.804688 16.738281 C 106.550781 16.738281 106.238281 16.738281 106.238281 17.070312 C 106.238281 17.402344 106.53125 17.402344 106.804688 17.402344 Z M 117.371094 17.402344 "/>
<path style=" stroke:none;fill-rule:nonzero;fill:rgb(0%,0%,0%);fill-opacity:1;" d="M 129.324219 14.179688 L 132.332031 14.179688 C 134.8125 14.179688 137.273438 12.34375 137.273438 10.3125 C 137.273438 8.90625 136.101562 7.636719 133.835938 7.636719 L 128.289062 7.636719 C 127.957031 7.636719 127.800781 7.636719 127.800781 7.96875 C 127.800781 8.164062 127.957031 8.164062 128.230469 8.164062 C 129.324219 8.164062 129.324219 8.300781 129.324219 8.496094 C 129.324219 8.535156 129.324219 8.632812 129.246094 8.90625 L 126.824219 18.554688 C 126.667969 19.179688 126.628906 19.355469 125.378906 19.355469 C 125.027344 19.355469 124.851562 19.355469 124.851562 19.6875 C 124.851562 19.882812 125.007812 19.882812 125.125 19.882812 C 125.457031 19.882812 125.828125 19.84375 126.160156 19.84375 L 128.269531 19.84375 C 128.601562 19.84375 128.972656 19.882812 129.324219 19.882812 C 129.460938 19.882812 129.65625 19.882812 129.65625 19.550781 C 129.65625 19.355469 129.5 19.355469 129.226562 19.355469 C 128.152344 19.355469 128.132812 19.238281 128.132812 19.0625 C 128.132812 18.964844 128.152344 18.847656 128.171875 18.75 Z M 130.613281 8.847656 C 130.769531 8.183594 130.847656 8.164062 131.550781 8.164062 L 133.308594 8.164062 C 134.65625 8.164062 135.769531 8.59375 135.769531 9.941406 C 135.769531 10.390625 135.535156 11.914062 134.714844 12.753906 C 134.402344 13.066406 133.542969 13.75 131.921875 13.75 L 129.382812 13.75 Z M 130.613281 8.847656 "/>
<path style=" stroke:none;fill-rule:nonzero;fill:rgb(0%,0%,0%);fill-opacity:1;" d="M 148.859375 15.742188 L 153.820312 15.742188 C 154.074219 15.742188 154.386719 15.742188 154.386719 15.410156 C 154.386719 15.078125 154.074219 15.078125 153.820312 15.078125 L 148.859375 15.078125 L 148.859375 10.136719 C 148.859375 9.882812 148.859375 9.550781 148.546875 9.550781 C 148.195312 9.550781 148.195312 9.863281 148.195312 10.136719 L 148.195312 15.078125 L 143.253906 15.078125 C 143 15.078125 142.6875 15.078125 142.6875 15.410156 C 142.6875 15.742188 142.980469 15.742188 143.253906 15.742188 L 148.195312 15.742188 L 148.195312 20.683594 C 148.195312 20.9375 148.195312 21.269531 148.527344 21.269531 C 148.859375 21.269531 148.859375 20.957031 148.859375 20.683594 Z M 148.859375 15.742188 "/>
<path style=" stroke:none;fill-rule:nonzero;fill:rgb(0%,0%,0%);fill-opacity:1;" d="M 167.046875 19.765625 C 170.132812 18.535156 172.417969 15.273438 172.417969 12.03125 C 172.417969 9.0625 170.484375 7.265625 167.984375 7.265625 C 164.136719 7.265625 160.269531 11.386719 160.269531 15.527344 C 160.269531 18.339844 162.144531 20.253906 164.742188 20.253906 C 165.347656 20.253906 165.933594 20.175781 166.519531 20 C 166.402344 21.074219 166.402344 21.152344 166.402344 21.503906 C 166.402344 22.011719 166.402344 23.359375 167.828125 23.359375 C 169.976562 23.359375 170.757812 20 170.757812 19.902344 C 170.757812 19.785156 170.679688 19.726562 170.601562 19.726562 C 170.484375 19.726562 170.445312 19.804688 170.40625 20 C 170.015625 21.132812 169.078125 21.777344 168.277344 21.777344 C 167.378906 21.777344 167.144531 21.152344 167.046875 19.765625 Z M 163.824219 19.6875 C 162.398438 19.199219 161.714844 17.714844 161.714844 16.054688 C 161.714844 14.804688 162.183594 12.421875 163.375 10.605469 C 164.703125 8.574219 166.480469 7.65625 167.867188 7.65625 C 169.742188 7.65625 170.992188 9.160156 170.992188 11.484375 C 170.992188 12.8125 170.367188 17.265625 166.988281 19.238281 C 166.910156 18.320312 166.65625 17.246094 165.464844 17.246094 C 164.507812 17.246094 163.667969 18.222656 163.667969 19.101562 C 163.667969 19.296875 163.746094 19.550781 163.824219 19.6875 Z M 166.539062 19.472656 C 165.894531 19.765625 165.347656 19.863281 164.839844 19.863281 C 164.664062 19.863281 164.039062 19.863281 164.039062 19.082031 C 164.039062 18.4375 164.664062 17.597656 165.464844 17.597656 C 166.363281 17.597656 166.558594 18.222656 166.558594 19.121094 C 166.558594 19.21875 166.558594 19.355469 166.539062 19.472656 Z M 166.539062 19.472656 "/>
<path style=" stroke:none;fill-rule:nonzero;fill:rgb(0%,0%,0%);fill-opacity:1;" d="M 190.269531 14.082031 C 190.523438 14.082031 190.835938 14.082031 190.835938 13.75 C 190.835938 13.417969 190.523438 13.417969 190.269531 13.417969 L 179.703125 13.417969 C 179.449219 13.417969 179.136719 13.417969 179.136719 13.730469 C 179.136719 14.082031 179.429688 14.082031 179.703125 14.082031 Z M 190.269531 17.402344 C 190.523438 17.402344 190.835938 17.402344 190.835938 17.089844 C 190.835938 16.738281 190.523438 16.738281 190.269531 16.738281 L 179.703125 16.738281 C 179.449219 16.738281 179.136719 16.738281 179.136719 17.070312 C 179.136719 17.402344 179.429688 17.402344 179.703125 17.402344 Z M 190.269531 17.402344 "/>
<path style=" stroke:none;fill-rule:nonzero;fill:rgb(0%,0%,0%);fill-opacity:1;" d="M 203.058594 0.976562 L 205.070312 0.976562 C 204.601562 2.988281 204.289062 4.296875 204.289062 5.722656 C 204.289062 5.976562 204.289062 7.910156 205.03125 7.910156 C 205.402344 7.910156 205.734375 7.578125 205.734375 7.265625 C 205.734375 7.1875 205.734375 7.148438 205.597656 6.875 C 205.109375 5.644531 205.109375 4.101562 205.109375 3.964844 C 205.109375 3.867188 205.109375 2.597656 205.5 0.976562 L 207.492188 0.976562 C 207.726562 0.976562 208.332031 0.976562 208.332031 0.410156 C 208.332031 0 207.980469 0 207.667969 0 L 201.769531 0 C 201.359375 0 200.734375 0 199.914062 0.878906 C 199.445312 1.40625 198.878906 2.363281 198.878906 2.460938 C 198.878906 2.578125 198.957031 2.597656 199.074219 2.597656 C 199.191406 2.597656 199.210938 2.558594 199.308594 2.441406 C 200.246094 0.976562 201.164062 0.976562 201.613281 0.976562 L 202.648438 0.976562 C 202.238281 2.324219 201.808594 3.886719 200.324219 7.011719 C 200.1875 7.304688 200.1875 7.34375 200.1875 7.441406 C 200.1875 7.832031 200.5 7.910156 200.675781 7.910156 C 201.183594 7.910156 201.339844 7.441406 201.554688 6.699219 C 201.828125 5.78125 201.828125 5.742188 202.023438 5.019531 Z M 203.058594 0.976562 "/>
<path style=" stroke:none;fill-rule:nonzero;fill:rgb(0%,0%,0%);fill-opacity:1;" d="M 198.398438 15.097656 L 209.046875 15.097656 L 209.046875 15.851562 L 198.398438 15.851562 Z M 198.398438 15.097656 "/>
<path style=" stroke:none;fill-rule:nonzero;fill:rgb(0%,0%,0%);fill-opacity:1;" d="M 205.777344 20.503906 C 205.777344 20.171875 205.777344 20.074219 205.542969 20.074219 C 205.386719 20.074219 205.328125 20.074219 205.191406 20.289062 L 199.800781 28.667969 L 199.800781 29.195312 L 204.507812 29.195312 L 204.507812 30.816406 C 204.507812 31.480469 204.46875 31.65625 203.160156 31.65625 L 202.808594 31.65625 L 202.808594 32.183594 C 203.21875 32.144531 204.644531 32.144531 205.132812 32.144531 C 205.640625 32.144531 207.066406 32.144531 207.496094 32.183594 L 207.496094 31.65625 L 207.125 31.65625 C 205.835938 31.65625 205.777344 31.480469 205.777344 30.816406 L 205.777344 29.195312 L 207.59375 29.195312 L 207.59375 28.667969 L 205.777344 28.667969 Z M 204.605469 21.910156 L 204.605469 28.667969 L 200.25 28.667969 Z M 204.605469 21.910156 "/>
</g>
</svg>
