<?xml version="1.0" encoding="UTF-8"?>
<svg xmlns="http://www.w3.org/2000/svg" xmlns:xlink="http://www.w3.org/1999/xlink" width="333.03778pt" height="190.37194pt" viewBox="0 0 333.03778 190.37194" version="1.1">
<g id="surface1">
<path style=" stroke:none;fill-rule:nonzero;fill:rgb(0%,0%,0%);fill-opacity:1;" d="M 6.425781 1.367188 L 8.007812 1.367188 C 8.222656 1.367188 8.4375 1.386719 8.652344 1.386719 L 10.996094 1.386719 L 10.996094 0.253906 L 0.292969 0.253906 L 0.292969 1.386719 L 2.65625 1.386719 C 2.871094 1.386719 3.085938 1.367188 3.300781 1.367188 L 4.882812 1.367188 L 4.882812 12.617188 L 6.425781 12.617188 Z M 6.425781 1.367188 "/>
<path style=" stroke:none;fill-rule:nonzero;fill:rgb(0%,0%,0%);fill-opacity:1;" d="M 19.265625 7.226562 C 19.265625 6.132812 19.03125 4.472656 16.863281 4.472656 C 15.632812 4.472656 14.8125 5.175781 14.382812 5.722656 L 14.382812 0.175781 L 13.054688 0.175781 L 13.054688 12.617188 L 14.402344 12.617188 L 14.402344 8.144531 C 14.402344 7.050781 14.832031 5.546875 16.179688 5.546875 C 17.859375 5.546875 17.898438 6.71875 17.898438 7.34375 L 17.898438 12.617188 L 19.265625 12.617188 Z M 19.265625 7.226562 "/>
<path style=" stroke:none;fill-rule:nonzero;fill:rgb(0%,0%,0%);fill-opacity:1;" d="M 27.972656 8.574219 C 27.972656 7.8125 27.894531 6.71875 27.328125 5.761719 C 26.585938 4.53125 25.335938 4.394531 24.808594 4.394531 C 22.875 4.394531 21.253906 6.25 21.253906 8.574219 C 21.253906 10.957031 22.972656 12.792969 25.0625 12.792969 C 25.882812 12.792969 26.878906 12.558594 27.855469 11.855469 C 27.855469 11.777344 27.796875 11.210938 27.796875 11.191406 C 27.777344 11.171875 27.757812 10.761719 27.757812 10.703125 C 26.683594 11.601562 25.628906 11.71875 25.101562 11.71875 C 23.714844 11.71875 22.523438 10.488281 22.503906 8.574219 Z M 22.601562 7.617188 C 22.914062 6.40625 23.753906 5.46875 24.808594 5.46875 C 25.375 5.46875 26.605469 5.722656 26.898438 7.617188 Z M 22.601562 7.617188 "/>
<path style=" stroke:none;fill-rule:nonzero;fill:rgb(0%,0%,0%);fill-opacity:1;" d="M 43.421875 8.574219 C 43.421875 7.8125 43.34375 6.71875 42.777344 5.761719 C 42.035156 4.53125 40.785156 4.394531 40.257812 4.394531 C 38.324219 4.394531 36.703125 6.25 36.703125 8.574219 C 36.703125 10.957031 38.421875 12.792969 40.511719 12.792969 C 41.332031 12.792969 42.328125 12.558594 43.304688 11.855469 C 43.304688 11.777344 43.246094 11.210938 43.246094 11.191406 C 43.226562 11.171875 43.207031 10.761719 43.207031 10.703125 C 42.132812 11.601562 41.078125 11.71875 40.550781 11.71875 C 39.164062 11.71875 37.972656 10.488281 37.953125 8.574219 Z M 38.050781 7.617188 C 38.363281 6.40625 39.203125 5.46875 40.257812 5.46875 C 40.824219 5.46875 42.054688 5.722656 42.347656 7.617188 Z M 38.050781 7.617188 "/>
<path style=" stroke:none;fill-rule:nonzero;fill:rgb(0%,0%,0%);fill-opacity:1;" d="M 48.46875 8.515625 L 51.652344 4.648438 L 50.148438 4.648438 L 47.882812 7.558594 L 45.539062 4.648438 L 44.015625 4.648438 L 47.277344 8.515625 L 43.917969 12.617188 L 45.402344 12.617188 L 47.882812 9.277344 L 50.421875 12.617188 L 51.925781 12.617188 Z M 48.46875 8.515625 "/>
<path style=" stroke:none;fill-rule:nonzero;fill:rgb(0%,0%,0%);fill-opacity:1;" d="M 54.773438 11.816406 C 55.398438 12.363281 56.140625 12.792969 57.117188 12.792969 C 58.835938 12.792969 60.378906 11.054688 60.378906 8.613281 C 60.378906 6.445312 59.226562 4.472656 57.566406 4.472656 C 56.824219 4.472656 55.671875 4.707031 54.753906 5.507812 L 54.753906 4.648438 L 53.425781 4.648438 L 53.425781 16.09375 L 54.773438 16.09375 Z M 54.773438 6.601562 C 55.183594 5.976562 55.867188 5.585938 56.609375 5.585938 C 57.9375 5.585938 59.011719 6.933594 59.011719 8.632812 C 59.011719 10.429688 57.78125 11.71875 56.453125 11.71875 C 55.945312 11.71875 55.613281 11.542969 55.28125 11.289062 C 54.832031 10.898438 54.773438 10.566406 54.773438 10.292969 Z M 54.773438 6.601562 "/>
<path style=" stroke:none;fill-rule:nonzero;fill:rgb(0%,0%,0%);fill-opacity:1;" d="M 63.300781 8.691406 C 63.300781 6.875 64.648438 5.703125 66.269531 5.683594 L 66.269531 4.472656 C 64.628906 4.492188 63.691406 5.449219 63.203125 6.152344 L 63.203125 4.570312 L 61.972656 4.570312 L 61.972656 12.617188 L 63.300781 12.617188 Z M 63.300781 8.691406 "/>
<path style=" stroke:none;fill-rule:nonzero;fill:rgb(0%,0%,0%);fill-opacity:1;" d="M 73.871094 8.574219 C 73.871094 7.8125 73.792969 6.71875 73.226562 5.761719 C 72.484375 4.53125 71.234375 4.394531 70.707031 4.394531 C 68.773438 4.394531 67.152344 6.25 67.152344 8.574219 C 67.152344 10.957031 68.871094 12.792969 70.960938 12.792969 C 71.78125 12.792969 72.777344 12.558594 73.753906 11.855469 C 73.753906 11.777344 73.695312 11.210938 73.695312 11.191406 C 73.675781 11.171875 73.65625 10.761719 73.65625 10.703125 C 72.582031 11.601562 71.527344 11.71875 71 11.71875 C 69.613281 11.71875 68.421875 10.488281 68.402344 8.574219 Z M 68.5 7.617188 C 68.8125 6.40625 69.652344 5.46875 70.707031 5.46875 C 71.273438 5.46875 72.503906 5.722656 72.796875 7.617188 Z M 68.5 7.617188 "/>
<path style=" stroke:none;fill-rule:nonzero;fill:rgb(0%,0%,0%);fill-opacity:1;" d="M 80.382812 4.941406 C 79.25 4.414062 78.273438 4.394531 77.863281 4.394531 C 77.453125 4.394531 74.953125 4.394531 74.953125 6.71875 C 74.953125 7.5 75.382812 8.046875 75.65625 8.300781 C 76.300781 8.847656 76.75 8.945312 77.804688 9.160156 C 78.410156 9.277344 79.445312 9.492188 79.445312 10.449219 C 79.445312 11.679688 78.039062 11.679688 77.785156 11.679688 C 77.082031 11.679688 76.027344 11.484375 75.070312 10.78125 L 74.855469 12.011719 C 74.933594 12.070312 76.164062 12.792969 77.804688 12.792969 C 80.128906 12.792969 80.675781 11.40625 80.675781 10.332031 C 80.675781 9.433594 80.128906 8.847656 80.050781 8.769531 C 79.386719 8.085938 78.839844 7.96875 77.765625 7.753906 C 77.101562 7.636719 76.203125 7.460938 76.203125 6.5625 C 76.203125 5.449219 77.453125 5.449219 77.6875 5.449219 C 78.625 5.449219 79.386719 5.664062 80.167969 6.113281 Z M 80.382812 4.941406 "/>
<path style=" stroke:none;fill-rule:nonzero;fill:rgb(0%,0%,0%);fill-opacity:1;" d="M 87.132812 4.941406 C 86 4.414062 85.023438 4.394531 84.613281 4.394531 C 84.203125 4.394531 81.703125 4.394531 81.703125 6.71875 C 81.703125 7.5 82.132812 8.046875 82.40625 8.300781 C 83.050781 8.847656 83.5 8.945312 84.554688 9.160156 C 85.160156 9.277344 86.195312 9.492188 86.195312 10.449219 C 86.195312 11.679688 84.789062 11.679688 84.535156 11.679688 C 83.832031 11.679688 82.777344 11.484375 81.820312 10.78125 L 81.605469 12.011719 C 81.683594 12.070312 82.914062 12.792969 84.554688 12.792969 C 86.878906 12.792969 87.425781 11.40625 87.425781 10.332031 C 87.425781 9.433594 86.878906 8.847656 86.800781 8.769531 C 86.136719 8.085938 85.589844 7.96875 84.515625 7.753906 C 83.851562 7.636719 82.953125 7.460938 82.953125 6.5625 C 82.953125 5.449219 84.203125 5.449219 84.4375 5.449219 C 85.375 5.449219 86.136719 5.664062 86.917969 6.113281 Z M 87.132812 4.941406 "/>
<path style=" stroke:none;fill-rule:nonzero;fill:rgb(0%,0%,0%);fill-opacity:1;" d="M 90.699219 0.449219 L 89.15625 0.449219 L 89.15625 1.992188 L 90.699219 1.992188 Z M 90.601562 4.648438 L 89.273438 4.648438 L 89.273438 12.617188 L 90.601562 12.617188 Z M 90.601562 4.648438 "/>
<path style=" stroke:none;fill-rule:nonzero;fill:rgb(0%,0%,0%);fill-opacity:1;" d="M 100.289062 8.671875 C 100.289062 6.25 98.511719 4.394531 96.460938 4.394531 C 94.351562 4.394531 92.613281 6.289062 92.613281 8.671875 C 92.613281 11.015625 94.390625 12.792969 96.441406 12.792969 C 98.550781 12.792969 100.289062 10.976562 100.289062 8.671875 Z M 96.460938 11.679688 C 95.171875 11.679688 93.960938 10.605469 93.960938 8.496094 C 93.960938 6.328125 95.308594 5.46875 96.441406 5.46875 C 97.671875 5.46875 98.941406 6.386719 98.941406 8.496094 C 98.941406 10.703125 97.652344 11.679688 96.460938 11.679688 Z M 96.460938 11.679688 "/>
<path style=" stroke:none;fill-rule:nonzero;fill:rgb(0%,0%,0%);fill-opacity:1;" d="M 108.515625 7.226562 C 108.515625 6.132812 108.28125 4.472656 106.113281 4.472656 C 105.117188 4.472656 104.257812 4.921875 103.574219 5.78125 L 103.574219 4.570312 L 102.304688 4.570312 L 102.304688 12.617188 L 103.652344 12.617188 L 103.652344 8.144531 C 103.652344 7.050781 104.082031 5.546875 105.429688 5.546875 C 107.109375 5.546875 107.148438 6.71875 107.148438 7.34375 L 107.148438 12.617188 L 108.515625 12.617188 Z M 108.515625 7.226562 "/>
<path style=" stroke:none;fill-rule:nonzero;fill:rgb(0%,0%,0%);fill-opacity:1;" d="M 120.222656 5.703125 L 122.136719 5.703125 L 122.136719 4.648438 L 120.183594 4.648438 L 120.183594 2.5 C 120.183594 1.289062 121.199219 1.074219 121.804688 1.074219 C 122.429688 1.074219 122.976562 1.269531 123.191406 1.347656 L 123.191406 0.175781 C 123.074219 0.136719 122.46875 0 121.824219 0 C 120.105469 0 118.894531 1.308594 118.894531 3.046875 L 118.894531 4.648438 L 117.585938 4.648438 L 117.585938 5.703125 L 118.894531 5.703125 L 118.894531 12.617188 L 120.222656 12.617188 Z M 120.222656 5.703125 "/>
<path style=" stroke:none;fill-rule:nonzero;fill:rgb(0%,0%,0%);fill-opacity:1;" d="M 130.742188 8.671875 C 130.742188 6.25 128.964844 4.394531 126.914062 4.394531 C 124.804688 4.394531 123.066406 6.289062 123.066406 8.671875 C 123.066406 11.015625 124.84375 12.792969 126.894531 12.792969 C 129.003906 12.792969 130.742188 10.976562 130.742188 8.671875 Z M 126.914062 11.679688 C 125.625 11.679688 124.414062 10.605469 124.414062 8.496094 C 124.414062 6.328125 125.761719 5.46875 126.894531 5.46875 C 128.125 5.46875 129.394531 6.386719 129.394531 8.496094 C 129.394531 10.703125 128.105469 11.679688 126.914062 11.679688 Z M 126.914062 11.679688 "/>
<path style=" stroke:none;fill-rule:nonzero;fill:rgb(0%,0%,0%);fill-opacity:1;" d="M 133.652344 8.691406 C 133.652344 6.875 135 5.703125 136.621094 5.683594 L 136.621094 4.472656 C 134.980469 4.492188 134.042969 5.449219 133.554688 6.152344 L 133.554688 4.570312 L 132.324219 4.570312 L 132.324219 12.617188 L 133.652344 12.617188 Z M 133.652344 8.691406 "/>
<path style=" stroke:none;fill-rule:nonzero;fill:rgb(0%,0%,0%);fill-opacity:1;" d="M 147.484375 5.703125 L 149.964844 5.703125 L 149.964844 4.648438 L 147.484375 4.648438 L 147.484375 2.382812 L 146.253906 2.382812 L 146.253906 4.648438 L 144.75 4.648438 L 144.75 5.703125 L 146.214844 5.703125 L 146.214844 10.527344 C 146.214844 11.5625 146.449219 12.792969 147.679688 12.792969 C 148.890625 12.792969 149.710938 12.382812 150.257812 12.089844 L 149.984375 11.054688 C 149.359375 11.621094 148.695312 11.679688 148.382812 11.679688 C 147.582031 11.679688 147.484375 10.839844 147.484375 10.214844 Z M 147.484375 5.703125 "/>
<path style=" stroke:none;fill-rule:nonzero;fill:rgb(0%,0%,0%);fill-opacity:1;" d="M 158.316406 7.226562 C 158.316406 6.132812 158.082031 4.472656 155.914062 4.472656 C 154.683594 4.472656 153.863281 5.175781 153.433594 5.722656 L 153.433594 0.175781 L 152.105469 0.175781 L 152.105469 12.617188 L 153.453125 12.617188 L 153.453125 8.144531 C 153.453125 7.050781 153.882812 5.546875 155.230469 5.546875 C 156.910156 5.546875 156.949219 6.71875 156.949219 7.34375 L 156.949219 12.617188 L 158.316406 12.617188 Z M 158.316406 7.226562 "/>
<path style=" stroke:none;fill-rule:nonzero;fill:rgb(0%,0%,0%);fill-opacity:1;" d="M 167.023438 8.574219 C 167.023438 7.8125 166.945312 6.71875 166.378906 5.761719 C 165.636719 4.53125 164.386719 4.394531 163.859375 4.394531 C 161.925781 4.394531 160.304688 6.25 160.304688 8.574219 C 160.304688 10.957031 162.023438 12.792969 164.113281 12.792969 C 164.933594 12.792969 165.929688 12.558594 166.90625 11.855469 C 166.90625 11.777344 166.847656 11.210938 166.847656 11.191406 C 166.828125 11.171875 166.808594 10.761719 166.808594 10.703125 C 165.734375 11.601562 164.679688 11.71875 164.152344 11.71875 C 162.765625 11.71875 161.574219 10.488281 161.554688 8.574219 Z M 161.652344 7.617188 C 161.964844 6.40625 162.804688 5.46875 163.859375 5.46875 C 164.425781 5.46875 165.65625 5.722656 165.949219 7.617188 Z M 161.652344 7.617188 "/>
<path style=" stroke:none;fill-rule:nonzero;fill:rgb(0%,0%,0%);fill-opacity:1;" d="M 177.902344 8.691406 C 177.902344 6.875 179.25 5.703125 180.871094 5.683594 L 180.871094 4.472656 C 179.230469 4.492188 178.292969 5.449219 177.804688 6.152344 L 177.804688 4.570312 L 176.574219 4.570312 L 176.574219 12.617188 L 177.902344 12.617188 Z M 177.902344 8.691406 "/>
<path style=" stroke:none;fill-rule:nonzero;fill:rgb(0%,0%,0%);fill-opacity:1;" d="M 188.472656 8.574219 C 188.472656 7.8125 188.394531 6.71875 187.828125 5.761719 C 187.085938 4.53125 185.835938 4.394531 185.308594 4.394531 C 183.375 4.394531 181.753906 6.25 181.753906 8.574219 C 181.753906 10.957031 183.472656 12.792969 185.5625 12.792969 C 186.382812 12.792969 187.378906 12.558594 188.355469 11.855469 C 188.355469 11.777344 188.296875 11.210938 188.296875 11.191406 C 188.277344 11.171875 188.257812 10.761719 188.257812 10.703125 C 187.183594 11.601562 186.128906 11.71875 185.601562 11.71875 C 184.214844 11.71875 183.023438 10.488281 183.003906 8.574219 Z M 183.101562 7.617188 C 183.414062 6.40625 184.253906 5.46875 185.308594 5.46875 C 185.875 5.46875 187.105469 5.722656 187.398438 7.617188 Z M 183.101562 7.617188 "/>
<path style=" stroke:none;fill-rule:nonzero;fill:rgb(0%,0%,0%);fill-opacity:1;" d="M 196.546875 4.472656 L 195.21875 4.472656 L 195.21875 5.625 C 194.75 5.078125 193.96875 4.472656 192.875 4.472656 C 191.117188 4.472656 189.59375 6.25 189.59375 8.652344 C 189.59375 10.9375 190.921875 12.792969 192.601562 12.792969 C 193.988281 12.792969 194.945312 11.972656 195.199219 11.699219 L 195.199219 16.09375 L 196.546875 16.09375 Z M 195.21875 10.117188 C 195.21875 10.46875 195.21875 10.488281 195.023438 10.761719 C 194.535156 11.484375 193.890625 11.71875 193.363281 11.71875 C 192.015625 11.71875 190.960938 10.3125 190.960938 8.652344 C 190.960938 6.816406 192.25 5.585938 193.519531 5.585938 C 194.671875 5.585938 195.21875 6.757812 195.21875 7.480469 Z M 195.21875 10.117188 "/>
<path style=" stroke:none;fill-rule:nonzero;fill:rgb(0%,0%,0%);fill-opacity:1;" d="M 205.566406 4.648438 L 204.199219 4.648438 L 204.199219 9.785156 C 204.199219 11.152344 203.261719 11.816406 202.089844 11.816406 C 200.839844 11.816406 200.703125 11.347656 200.703125 10.546875 L 200.703125 4.648438 L 199.355469 4.648438 L 199.355469 10.625 C 199.355469 11.914062 199.765625 12.792969 201.230469 12.792969 C 201.738281 12.792969 203.144531 12.714844 204.238281 11.71875 L 204.238281 12.617188 L 205.566406 12.617188 Z M 205.566406 4.648438 "/>
<path style=" stroke:none;fill-rule:nonzero;fill:rgb(0%,0%,0%);fill-opacity:1;" d="M 209.800781 0.449219 L 208.257812 0.449219 L 208.257812 1.992188 L 209.800781 1.992188 Z M 209.703125 4.648438 L 208.375 4.648438 L 208.375 12.617188 L 209.703125 12.617188 Z M 209.703125 4.648438 "/>
<path style=" stroke:none;fill-rule:nonzero;fill:rgb(0%,0%,0%);fill-opacity:1;" d="M 213.902344 8.691406 C 213.902344 6.875 215.25 5.703125 216.871094 5.683594 L 216.871094 4.472656 C 215.230469 4.492188 214.292969 5.449219 213.804688 6.152344 L 213.804688 4.570312 L 212.574219 4.570312 L 212.574219 12.617188 L 213.902344 12.617188 Z M 213.902344 8.691406 "/>
<path style=" stroke:none;fill-rule:nonzero;fill:rgb(0%,0%,0%);fill-opacity:1;" d="M 224.472656 8.574219 C 224.472656 7.8125 224.394531 6.71875 223.828125 5.761719 C 223.085938 4.53125 221.835938 4.394531 221.308594 4.394531 C 219.375 4.394531 217.753906 6.25 217.753906 8.574219 C 217.753906 10.957031 219.472656 12.792969 221.5625 12.792969 C 222.382812 12.792969 223.378906 12.558594 224.355469 11.855469 C 224.355469 11.777344 224.296875 11.210938 224.296875 11.191406 C 224.277344 11.171875 224.257812 10.761719 224.257812 10.703125 C 223.183594 11.601562 222.128906 11.71875 221.601562 11.71875 C 220.214844 11.71875 219.023438 10.488281 219.003906 8.574219 Z M 219.101562 7.617188 C 219.414062 6.40625 220.253906 5.46875 221.308594 5.46875 C 221.875 5.46875 223.105469 5.722656 223.398438 7.617188 Z M 219.101562 7.617188 "/>
<path style=" stroke:none;fill-rule:nonzero;fill:rgb(0%,0%,0%);fill-opacity:1;" d="M 232.546875 0.175781 L 231.21875 0.175781 L 231.21875 5.410156 C 230.398438 4.726562 229.460938 4.472656 228.699219 4.472656 C 227 4.472656 225.59375 6.308594 225.59375 8.632812 C 225.59375 10.957031 226.921875 12.792969 228.621094 12.792969 C 229.285156 12.792969 230.300781 12.578125 231.199219 11.699219 L 231.199219 12.617188 L 232.546875 12.617188 Z M 231.199219 10.507812 C 230.769531 11.269531 230.125 11.71875 229.34375 11.71875 C 228.25 11.71875 226.960938 10.878906 226.960938 8.652344 C 226.960938 6.269531 228.484375 5.546875 229.519531 5.546875 C 230.222656 5.546875 230.789062 5.917969 231.199219 6.503906 Z M 231.199219 10.507812 "/>
<path style=" stroke:none;fill-rule:nonzero;fill:rgb(0%,0%,0%);fill-opacity:1;" d="M 248.480469 7.363281 C 248.480469 5.644531 247.25 4.394531 245.570312 4.394531 C 244.496094 4.394531 243.695312 4.628906 242.816406 5.136719 L 242.914062 6.328125 C 243.714844 5.742188 244.535156 5.429688 245.570312 5.429688 C 246.390625 5.429688 247.113281 6.09375 247.113281 7.402344 L 247.113281 8.144531 C 246.3125 8.164062 245.238281 8.222656 244.164062 8.574219 C 242.953125 9.003906 242.25 9.667969 242.25 10.546875 C 242.25 11.347656 242.71875 12.792969 244.242188 12.792969 C 245.238281 12.792969 246.488281 12.5 247.152344 11.953125 L 247.152344 12.617188 L 248.480469 12.617188 Z M 247.113281 10.214844 C 247.113281 10.566406 247.113281 10.996094 246.527344 11.367188 C 246.039062 11.660156 245.433594 11.71875 245.160156 11.71875 C 244.203125 11.71875 243.539062 11.191406 243.539062 10.546875 C 243.539062 9.316406 246.019531 9.042969 247.113281 9.042969 Z M 247.113281 10.214844 "/>
<path style=" stroke:none;fill-rule:nonzero;fill:rgb(0%,0%,0%);fill-opacity:1;" d="M 252.152344 8.691406 C 252.152344 6.875 253.5 5.703125 255.121094 5.683594 L 255.121094 4.472656 C 253.480469 4.492188 252.542969 5.449219 252.054688 6.152344 L 252.054688 4.570312 L 250.824219 4.570312 L 250.824219 12.617188 L 252.152344 12.617188 Z M 252.152344 8.691406 "/>
<path style=" stroke:none;fill-rule:nonzero;fill:rgb(0%,0%,0%);fill-opacity:1;" d="M 262.722656 8.574219 C 262.722656 7.8125 262.644531 6.71875 262.078125 5.761719 C 261.335938 4.53125 260.085938 4.394531 259.558594 4.394531 C 257.625 4.394531 256.003906 6.25 256.003906 8.574219 C 256.003906 10.957031 257.722656 12.792969 259.8125 12.792969 C 260.632812 12.792969 261.628906 12.558594 262.605469 11.855469 C 262.605469 11.777344 262.546875 11.210938 262.546875 11.191406 C 262.527344 11.171875 262.507812 10.761719 262.507812 10.703125 C 261.433594 11.601562 260.378906 11.71875 259.851562 11.71875 C 258.464844 11.71875 257.273438 10.488281 257.253906 8.574219 Z M 257.351562 7.617188 C 257.664062 6.40625 258.503906 5.46875 259.558594 5.46875 C 260.125 5.46875 261.355469 5.722656 261.648438 7.617188 Z M 257.351562 7.617188 "/>
<path style=" stroke:none;fill-rule:nonzero;fill:rgb(0%,0%,0%);fill-opacity:1;" d="M 270.230469 7.363281 C 270.230469 5.644531 269 4.394531 267.320312 4.394531 C 266.246094 4.394531 265.445312 4.628906 264.566406 5.136719 L 264.664062 6.328125 C 265.464844 5.742188 266.285156 5.429688 267.320312 5.429688 C 268.140625 5.429688 268.863281 6.09375 268.863281 7.402344 L 268.863281 8.144531 C 268.0625 8.164062 266.988281 8.222656 265.914062 8.574219 C 264.703125 9.003906 264 9.667969 264 10.546875 C 264 11.347656 264.46875 12.792969 265.992188 12.792969 C 266.988281 12.792969 268.238281 12.5 268.902344 11.953125 L 268.902344 12.617188 L 270.230469 12.617188 Z M 268.863281 10.214844 C 268.863281 10.566406 268.863281 10.996094 268.277344 11.367188 C 267.789062 11.660156 267.183594 11.71875 266.910156 11.71875 C 265.953125 11.71875 265.289062 11.191406 265.289062 10.546875 C 265.289062 9.316406 267.769531 9.042969 268.863281 9.042969 Z M 268.863281 10.214844 "/>
<path style=" stroke:none;fill-rule:nonzero;fill:rgb(0%,0%,0%);fill-opacity:1;" d="M 285.71875 1.582031 C 285.875 0.917969 285.953125 0.898438 286.65625 0.898438 L 287.945312 0.898438 C 289.488281 0.898438 290.621094 1.347656 290.621094 2.753906 C 290.621094 3.671875 290.152344 6.308594 286.558594 6.308594 L 284.527344 6.308594 Z M 288.199219 6.523438 C 290.425781 6.035156 292.164062 4.609375 292.164062 3.066406 C 292.164062 1.660156 290.757812 0.371094 288.257812 0.371094 L 283.394531 0.371094 C 283.042969 0.371094 282.886719 0.371094 282.886719 0.703125 C 282.886719 0.898438 283.003906 0.898438 283.355469 0.898438 C 284.429688 0.898438 284.429688 1.035156 284.429688 1.230469 C 284.429688 1.269531 284.429688 1.367188 284.351562 1.640625 L 281.929688 11.289062 C 281.773438 11.914062 281.734375 12.089844 280.503906 12.089844 C 280.09375 12.089844 279.957031 12.089844 279.957031 12.441406 C 279.957031 12.617188 280.152344 12.617188 280.210938 12.617188 C 280.542969 12.617188 280.914062 12.578125 281.246094 12.578125 L 283.375 12.578125 C 283.6875 12.578125 284.058594 12.617188 284.390625 12.617188 C 284.527344 12.617188 284.722656 12.617188 284.722656 12.285156 C 284.722656 12.089844 284.566406 12.089844 284.292969 12.089844 C 283.199219 12.089844 283.199219 11.953125 283.199219 11.777344 C 283.199219 11.757812 283.199219 11.640625 283.238281 11.484375 L 284.449219 6.660156 L 286.597656 6.660156 C 288.296875 6.660156 288.628906 7.734375 288.628906 8.339844 C 288.628906 8.59375 288.433594 9.296875 288.316406 9.765625 C 288.121094 10.585938 288.0625 10.78125 288.0625 11.132812 C 288.0625 12.402344 289.097656 12.988281 290.308594 12.988281 C 291.753906 12.988281 292.378906 11.210938 292.378906 10.976562 C 292.378906 10.839844 292.300781 10.78125 292.183594 10.78125 C 292.046875 10.78125 292.007812 10.898438 291.96875 11.035156 C 291.539062 12.304688 290.816406 12.636719 290.367188 12.636719 C 289.917969 12.636719 289.625 12.441406 289.625 11.640625 C 289.625 11.191406 289.839844 9.570312 289.859375 9.472656 C 289.9375 8.808594 289.9375 8.75 289.9375 8.59375 C 289.9375 7.285156 288.882812 6.738281 288.199219 6.523438 Z M 288.199219 6.523438 "/>
<path style=" stroke:none;fill-rule:nonzero;fill:rgb(0%,0%,0%);fill-opacity:1;" d="M 302.949219 0.449219 L 301.40625 0.449219 L 301.40625 1.992188 L 302.949219 1.992188 Z M 302.851562 4.648438 L 301.523438 4.648438 L 301.523438 12.617188 L 302.851562 12.617188 Z M 302.851562 4.648438 "/>
<path style=" stroke:none;fill-rule:nonzero;fill:rgb(0%,0%,0%);fill-opacity:1;" d="M 310.332031 4.941406 C 309.199219 4.414062 308.222656 4.394531 307.8125 4.394531 C 307.402344 4.394531 304.902344 4.394531 304.902344 6.71875 C 304.902344 7.5 305.332031 8.046875 305.605469 8.300781 C 306.25 8.847656 306.699219 8.945312 307.753906 9.160156 C 308.359375 9.277344 309.394531 9.492188 309.394531 10.449219 C 309.394531 11.679688 307.988281 11.679688 307.734375 11.679688 C 307.03125 11.679688 305.976562 11.484375 305.019531 10.78125 L 304.804688 12.011719 C 304.882812 12.070312 306.113281 12.792969 307.753906 12.792969 C 310.078125 12.792969 310.625 11.40625 310.625 10.332031 C 310.625 9.433594 310.078125 8.847656 310 8.769531 C 309.335938 8.085938 308.789062 7.96875 307.714844 7.753906 C 307.050781 7.636719 306.152344 7.460938 306.152344 6.5625 C 306.152344 5.449219 307.402344 5.449219 307.636719 5.449219 C 308.574219 5.449219 309.335938 5.664062 310.117188 6.113281 Z M 310.332031 4.941406 "/>
<path style=" stroke:none;fill-rule:nonzero;fill:rgb(0%,0%,0%);fill-opacity:1;" d="M 2.734375 26.851562 L 5.214844 26.851562 L 5.214844 25.796875 L 2.734375 25.796875 L 2.734375 23.53125 L 1.503906 23.53125 L 1.503906 25.796875 L 0 25.796875 L 0 26.851562 L 1.464844 26.851562 L 1.464844 31.675781 C 1.464844 32.710938 1.699219 33.941406 2.929688 33.941406 C 4.140625 33.941406 4.960938 33.53125 5.507812 33.238281 L 5.234375 32.203125 C 4.609375 32.769531 3.945312 32.828125 3.632812 32.828125 C 2.832031 32.828125 2.734375 31.988281 2.734375 31.363281 Z M 2.734375 26.851562 "/>
<path style=" stroke:none;fill-rule:nonzero;fill:rgb(0%,0%,0%);fill-opacity:1;" d="M 13.566406 28.375 C 13.566406 27.28125 13.332031 25.621094 11.164062 25.621094 C 9.933594 25.621094 9.113281 26.324219 8.683594 26.871094 L 8.683594 21.324219 L 7.355469 21.324219 L 7.355469 33.765625 L 8.703125 33.765625 L 8.703125 29.292969 C 8.703125 28.199219 9.132812 26.695312 10.480469 26.695312 C 12.160156 26.695312 12.199219 27.867188 12.199219 28.492188 L 12.199219 33.765625 L 13.566406 33.765625 Z M 13.566406 28.375 "/>
<path style=" stroke:none;fill-rule:nonzero;fill:rgb(0%,0%,0%);fill-opacity:1;" d="M 22.273438 29.722656 C 22.273438 28.960938 22.195312 27.867188 21.628906 26.910156 C 20.886719 25.679688 19.636719 25.542969 19.109375 25.542969 C 17.175781 25.542969 15.554688 27.398438 15.554688 29.722656 C 15.554688 32.105469 17.273438 33.941406 19.363281 33.941406 C 20.183594 33.941406 21.179688 33.707031 22.15625 33.003906 C 22.15625 32.925781 22.097656 32.359375 22.097656 32.339844 C 22.078125 32.320312 22.058594 31.910156 22.058594 31.851562 C 20.984375 32.75 19.929688 32.867188 19.402344 32.867188 C 18.015625 32.867188 16.824219 31.636719 16.804688 29.722656 Z M 16.902344 28.765625 C 17.214844 27.554688 18.054688 26.617188 19.109375 26.617188 C 19.675781 26.617188 20.90625 26.871094 21.199219 28.765625 Z M 16.902344 28.765625 "/>
<path style=" stroke:none;fill-rule:nonzero;fill:rgb(0%,0%,0%);fill-opacity:1;" d="M 25.503906 29.839844 C 25.503906 28.023438 26.851562 26.851562 28.472656 26.832031 L 28.472656 25.621094 C 26.832031 25.640625 25.894531 26.597656 25.40625 27.300781 L 25.40625 25.71875 L 24.175781 25.71875 L 24.175781 33.765625 L 25.503906 33.765625 Z M 25.503906 29.839844 "/>
<path style=" stroke:none;fill-rule:nonzero;fill:rgb(0%,0%,0%);fill-opacity:1;" d="M 36.074219 29.722656 C 36.074219 28.960938 35.996094 27.867188 35.429688 26.910156 C 34.6875 25.679688 33.4375 25.542969 32.910156 25.542969 C 30.976562 25.542969 29.355469 27.398438 29.355469 29.722656 C 29.355469 32.105469 31.074219 33.941406 33.164062 33.941406 C 33.984375 33.941406 34.980469 33.707031 35.957031 33.003906 C 35.957031 32.925781 35.898438 32.359375 35.898438 32.339844 C 35.878906 32.320312 35.859375 31.910156 35.859375 31.851562 C 34.785156 32.75 33.730469 32.867188 33.203125 32.867188 C 31.816406 32.867188 30.625 31.636719 30.605469 29.722656 Z M 30.703125 28.765625 C 31.015625 27.554688 31.855469 26.617188 32.910156 26.617188 C 33.476562 26.617188 34.707031 26.871094 35 28.765625 Z M 30.703125 28.765625 "/>
<path style=" stroke:none;fill-rule:nonzero;fill:rgb(0%,0%,0%);fill-opacity:1;" d="M 39.671875 26.851562 L 41.585938 26.851562 L 41.585938 25.796875 L 39.632812 25.796875 L 39.632812 23.648438 C 39.632812 22.4375 40.648438 22.222656 41.253906 22.222656 C 41.878906 22.222656 42.425781 22.417969 42.640625 22.496094 L 42.640625 21.324219 C 42.523438 21.285156 41.917969 21.148438 41.273438 21.148438 C 39.554688 21.148438 38.34375 22.457031 38.34375 24.195312 L 38.34375 25.796875 L 37.035156 25.796875 L 37.035156 26.851562 L 38.34375 26.851562 L 38.34375 33.765625 L 39.671875 33.765625 Z M 39.671875 26.851562 "/>
<path style=" stroke:none;fill-rule:nonzero;fill:rgb(0%,0%,0%);fill-opacity:1;" d="M 50.191406 29.820312 C 50.191406 27.398438 48.414062 25.542969 46.363281 25.542969 C 44.253906 25.542969 42.515625 27.4375 42.515625 29.820312 C 42.515625 32.164062 44.292969 33.941406 46.34375 33.941406 C 48.453125 33.941406 50.191406 32.125 50.191406 29.820312 Z M 46.363281 32.828125 C 45.074219 32.828125 43.863281 31.753906 43.863281 29.644531 C 43.863281 27.476562 45.210938 26.617188 46.34375 26.617188 C 47.574219 26.617188 48.84375 27.535156 48.84375 29.644531 C 48.84375 31.851562 47.554688 32.828125 46.363281 32.828125 Z M 46.363281 32.828125 "/>
<path style=" stroke:none;fill-rule:nonzero;fill:rgb(0%,0%,0%);fill-opacity:1;" d="M 53.101562 29.839844 C 53.101562 28.023438 54.449219 26.851562 56.070312 26.832031 L 56.070312 25.621094 C 54.429688 25.640625 53.492188 26.597656 53.003906 27.300781 L 53.003906 25.71875 L 51.773438 25.71875 L 51.773438 33.765625 L 53.101562 33.765625 Z M 53.101562 29.839844 "/>
<path style=" stroke:none;fill-rule:nonzero;fill:rgb(0%,0%,0%);fill-opacity:1;" d="M 63.671875 29.722656 C 63.671875 28.960938 63.59375 27.867188 63.027344 26.910156 C 62.285156 25.679688 61.035156 25.542969 60.507812 25.542969 C 58.574219 25.542969 56.953125 27.398438 56.953125 29.722656 C 56.953125 32.105469 58.671875 33.941406 60.761719 33.941406 C 61.582031 33.941406 62.578125 33.707031 63.554688 33.003906 C 63.554688 32.925781 63.496094 32.359375 63.496094 32.339844 C 63.476562 32.320312 63.457031 31.910156 63.457031 31.851562 C 62.382812 32.75 61.328125 32.867188 60.800781 32.867188 C 59.414062 32.867188 58.222656 31.636719 58.203125 29.722656 Z M 58.300781 28.765625 C 58.613281 27.554688 59.453125 26.617188 60.507812 26.617188 C 61.074219 26.617188 62.304688 26.871094 62.597656 28.765625 Z M 58.300781 28.765625 "/>
<path style=" stroke:none;fill-rule:nonzero;fill:rgb(0%,0%,0%);fill-opacity:1;" d="M 6.269531 90.230469 C 6.425781 89.566406 6.503906 89.546875 7.207031 89.546875 L 8.496094 89.546875 C 10.039062 89.546875 11.171875 89.996094 11.171875 91.402344 C 11.171875 92.320312 10.703125 94.957031 7.109375 94.957031 L 5.078125 94.957031 Z M 8.75 95.171875 C 10.976562 94.683594 12.714844 93.257812 12.714844 91.714844 C 12.714844 90.308594 11.308594 89.019531 8.808594 89.019531 L 3.945312 89.019531 C 3.59375 89.019531 3.4375 89.019531 3.4375 89.351562 C 3.4375 89.546875 3.554688 89.546875 3.90625 89.546875 C 4.980469 89.546875 4.980469 89.683594 4.980469 89.878906 C 4.980469 89.917969 4.980469 90.015625 4.902344 90.289062 L 2.480469 99.9375 C 2.324219 100.5625 2.285156 100.738281 1.054688 100.738281 C 0.644531 100.738281 0.507812 100.738281 0.507812 101.089844 C 0.507812 101.265625 0.703125 101.265625 0.761719 101.265625 C 1.09375 101.265625 1.464844 101.226562 1.796875 101.226562 L 3.925781 101.226562 C 4.238281 101.226562 4.609375 101.265625 4.941406 101.265625 C 5.078125 101.265625 5.273438 101.265625 5.273438 100.933594 C 5.273438 100.738281 5.117188 100.738281 4.84375 100.738281 C 3.75 100.738281 3.75 100.601562 3.75 100.425781 C 3.75 100.40625 3.75 100.289062 3.789062 100.132812 L 5 95.308594 L 7.148438 95.308594 C 8.847656 95.308594 9.179688 96.382812 9.179688 96.988281 C 9.179688 97.242188 8.984375 97.945312 8.867188 98.414062 C 8.671875 99.234375 8.613281 99.429688 8.613281 99.78125 C 8.613281 101.050781 9.648438 101.636719 10.859375 101.636719 C 12.304688 101.636719 12.929688 99.859375 12.929688 99.625 C 12.929688 99.488281 12.851562 99.429688 12.734375 99.429688 C 12.597656 99.429688 12.558594 99.546875 12.519531 99.683594 C 12.089844 100.953125 11.367188 101.285156 10.917969 101.285156 C 10.46875 101.285156 10.175781 101.089844 10.175781 100.289062 C 10.175781 99.839844 10.390625 98.21875 10.410156 98.121094 C 10.488281 97.457031 10.488281 97.398438 10.488281 97.242188 C 10.488281 95.933594 9.433594 95.386719 8.75 95.171875 Z M 8.75 95.171875 "/>
<path style=" stroke:none;fill-rule:nonzero;fill:rgb(0%,0%,0%);fill-opacity:1;" d="M 30.378906 95.464844 C 30.632812 95.464844 30.945312 95.464844 30.945312 95.132812 C 30.945312 94.800781 30.632812 94.800781 30.378906 94.800781 L 19.8125 94.800781 C 19.558594 94.800781 19.246094 94.800781 19.246094 95.113281 C 19.246094 95.464844 19.539062 95.464844 19.8125 95.464844 Z M 30.378906 98.785156 C 30.632812 98.785156 30.945312 98.785156 30.945312 98.472656 C 30.945312 98.121094 30.632812 98.121094 30.378906 98.121094 L 19.8125 98.121094 C 19.558594 98.121094 19.246094 98.121094 19.246094 98.453125 C 19.246094 98.785156 19.539062 98.785156 19.8125 98.785156 Z M 30.378906 98.785156 "/>
<path style=" stroke:none;fill-rule:nonzero;fill:rgb(0%,0%,0%);fill-opacity:1;" d="M 38.722656 115.839844 C 39.308594 115.820312 39.601562 115.410156 39.601562 114.980469 C 39.601562 114.375 39.171875 114.101562 38.742188 114.101562 C 38.3125 114.101562 37.863281 114.355469 37.863281 114.980469 C 37.863281 115.898438 38.761719 116.660156 39.855469 116.660156 C 42.589844 116.660156 43.605469 112.460938 44.875 107.265625 C 46.261719 101.601562 47.433594 95.878906 48.390625 90.117188 C 49.054688 86.308594 49.71875 82.714844 50.324219 80.410156 C 50.539062 79.53125 51.164062 77.207031 51.847656 77.207031 C 52.414062 77.207031 52.863281 77.558594 52.941406 77.617188 C 52.335938 77.65625 52.042969 78.046875 52.042969 78.496094 C 52.042969 79.101562 52.492188 79.375 52.902344 79.375 C 53.332031 79.375 53.78125 79.121094 53.78125 78.476562 C 53.78125 77.519531 52.804688 76.816406 51.828125 76.816406 C 50.460938 76.816406 49.445312 78.769531 48.46875 82.421875 C 48.410156 82.617188 45.96875 91.621094 43.996094 103.359375 C 43.527344 106.09375 43.019531 109.082031 42.433594 111.582031 C 42.101562 112.890625 41.28125 116.269531 39.816406 116.269531 C 39.171875 116.269531 38.742188 115.839844 38.722656 115.839844 Z M 38.722656 115.839844 "/>
<path style=" stroke:none;fill-rule:nonzero;fill:rgb(0%,0%,0%);fill-opacity:1;" d="M 56.359375 77.683594 L 56.359375 77.371094 C 56.359375 74.226562 57.902344 73.777344 58.546875 73.777344 C 58.839844 73.777344 59.367188 73.855469 59.640625 74.285156 C 59.445312 74.285156 58.957031 74.285156 58.957031 74.832031 C 58.957031 75.222656 59.25 75.417969 59.523438 75.417969 C 59.71875 75.417969 60.109375 75.300781 60.109375 74.8125 C 60.109375 74.070312 59.5625 73.464844 58.527344 73.464844 C 56.925781 73.464844 55.246094 75.066406 55.246094 77.820312 C 55.246094 81.160156 56.691406 82.039062 57.84375 82.039062 C 59.230469 82.039062 60.421875 80.867188 60.421875 79.226562 C 60.421875 77.644531 59.308594 76.453125 57.921875 76.453125 C 57.082031 76.453125 56.613281 77.078125 56.359375 77.683594 Z M 57.84375 81.6875 C 57.0625 81.6875 56.691406 80.945312 56.613281 80.75 C 56.378906 80.164062 56.378906 79.167969 56.378906 78.953125 C 56.378906 77.976562 56.789062 76.726562 57.902344 76.726562 C 58.117188 76.726562 58.683594 76.726562 59.074219 77.507812 C 59.289062 77.957031 59.289062 78.601562 59.289062 79.207031 C 59.289062 79.8125 59.289062 80.4375 59.074219 80.886719 C 58.703125 81.628906 58.136719 81.6875 57.84375 81.6875 Z M 57.84375 81.6875 "/>
<path style=" stroke:none;fill-rule:nonzero;fill:rgb(0%,0%,0%);fill-opacity:1;" d="M 50.441406 115.265625 L 50.441406 116.339844 C 50.441406 116.789062 50.402344 116.925781 49.484375 116.925781 L 49.230469 116.925781 L 49.230469 117.316406 C 49.738281 117.277344 50.382812 117.277344 50.910156 117.277344 C 51.4375 117.277344 52.082031 117.277344 52.609375 117.316406 L 52.609375 116.925781 L 52.335938 116.925781 C 51.417969 116.925781 51.398438 116.789062 51.398438 116.339844 L 51.398438 115.265625 L 52.628906 115.265625 L 52.628906 114.875 L 51.398438 114.875 L 51.398438 109.210938 C 51.398438 108.957031 51.398438 108.878906 51.183594 108.878906 C 51.085938 108.878906 51.046875 108.878906 50.949219 109.035156 L 47.121094 114.875 L 47.121094 115.265625 Z M 50.5 114.875 L 47.472656 114.875 L 50.5 110.226562 Z M 50.5 114.875 "/>
<path style=" stroke:none;fill-rule:nonzero;fill:rgb(0%,0%,0%);fill-opacity:1;" d="M 77.175781 118.175781 C 77.175781 118.117188 77.136719 118.078125 77.097656 118.019531 C 76.433594 117.355469 75.222656 116.164062 74.03125 114.230469 C 71.140625 109.601562 69.832031 103.761719 69.832031 96.867188 C 69.832031 92.042969 70.476562 85.8125 73.445312 80.480469 C 74.851562 77.921875 76.316406 76.457031 77.117188 75.675781 C 77.175781 75.617188 77.175781 75.578125 77.175781 75.519531 C 77.175781 75.34375 77.039062 75.34375 76.785156 75.34375 C 76.53125 75.34375 76.511719 75.34375 76.238281 75.617188 C 70.222656 81.085938 68.347656 89.289062 68.347656 96.847656 C 68.347656 103.898438 69.96875 110.988281 74.519531 116.359375 C 74.871094 116.769531 75.554688 117.492188 76.296875 118.15625 C 76.511719 118.371094 76.53125 118.371094 76.785156 118.371094 C 77.039062 118.371094 77.175781 118.371094 77.175781 118.175781 Z M 77.175781 118.175781 "/>
<path style=" stroke:none;fill-rule:nonzero;fill:rgb(0%,0%,0%);fill-opacity:1;" d="M 81.621094 78.84375 C 82.382812 79.097656 83.007812 79.117188 83.203125 79.117188 C 85.234375 79.117188 86.523438 77.632812 86.523438 77.378906 C 86.523438 77.300781 86.484375 77.203125 86.386719 77.203125 C 86.347656 77.203125 86.308594 77.203125 86.152344 77.28125 C 85.136719 77.710938 84.277344 77.769531 83.808594 77.769531 C 82.636719 77.769531 81.796875 77.417969 81.445312 77.261719 C 81.328125 77.203125 81.289062 77.203125 81.269531 77.203125 C 81.132812 77.203125 81.132812 77.320312 81.132812 77.613281 L 81.132812 82.925781 C 81.132812 83.257812 81.132812 83.355469 81.347656 83.355469 C 81.425781 83.355469 81.445312 83.335938 81.621094 83.121094 C 82.128906 82.398438 82.96875 81.96875 83.867188 81.96875 C 84.824219 81.96875 85.292969 82.847656 85.429688 83.140625 C 85.742188 83.84375 85.761719 84.722656 85.761719 85.40625 C 85.761719 86.089844 85.761719 87.105469 85.253906 87.90625 C 84.863281 88.570312 84.160156 89 83.359375 89 C 82.1875 89 81.015625 88.199219 80.703125 86.890625 C 80.78125 86.929688 80.898438 86.949219 80.976562 86.949219 C 81.289062 86.949219 81.777344 86.773438 81.777344 86.167969 C 81.777344 85.660156 81.425781 85.367188 80.976562 85.367188 C 80.664062 85.367188 80.195312 85.523438 80.195312 86.226562 C 80.195312 87.75 81.40625 89.488281 83.398438 89.488281 C 85.429688 89.488281 87.207031 87.789062 87.207031 85.503906 C 87.207031 83.375 85.761719 81.597656 83.886719 81.597656 C 82.871094 81.597656 82.070312 82.046875 81.621094 82.554688 Z M 81.621094 78.84375 "/>
<path style=" stroke:none;fill-rule:nonzero;fill:rgb(0%,0%,0%);fill-opacity:1;" d="M 79.300781 96.480469 L 88.148438 96.480469 L 88.148438 97.234375 L 79.300781 97.234375 Z M 79.300781 96.480469 "/>
<path style=" stroke:none;fill-rule:nonzero;fill:rgb(0%,0%,0%);fill-opacity:1;" d="M 87.207031 110.558594 L 86.816406 110.558594 C 86.757812 110.851562 86.621094 111.847656 86.425781 112.140625 C 86.308594 112.296875 85.292969 112.296875 84.746094 112.296875 L 81.425781 112.296875 C 81.914062 111.886719 83.007812 110.734375 83.476562 110.304688 C 86.210938 107.785156 87.207031 106.867188 87.207031 105.089844 C 87.207031 103.019531 85.566406 101.652344 83.496094 101.652344 C 81.40625 101.652344 80.195312 103.410156 80.195312 104.953125 C 80.195312 105.871094 80.976562 105.871094 81.035156 105.871094 C 81.40625 105.871094 81.875 105.597656 81.875 105.03125 C 81.875 104.523438 81.542969 104.191406 81.035156 104.191406 C 80.878906 104.191406 80.839844 104.191406 80.78125 104.210938 C 81.132812 102.980469 82.089844 102.160156 83.261719 102.160156 C 84.785156 102.160156 85.722656 103.429688 85.722656 105.089844 C 85.722656 106.613281 84.84375 107.941406 83.808594 109.09375 L 80.195312 113.136719 L 80.195312 113.566406 L 86.738281 113.566406 Z M 87.207031 110.558594 "/>
<path style=" stroke:none;fill-rule:nonzero;fill:rgb(0%,0%,0%);fill-opacity:1;" d="M 98.015625 93.941406 C 97.449219 94.058594 97.234375 94.488281 97.234375 94.820312 C 97.234375 95.25 97.566406 95.40625 97.820312 95.40625 C 98.367188 95.40625 98.738281 94.9375 98.738281 94.449219 C 98.738281 93.707031 97.878906 93.355469 97.117188 93.355469 C 96.023438 93.355469 95.417969 94.429688 95.261719 94.78125 C 94.851562 93.433594 93.738281 93.355469 93.40625 93.355469 C 91.589844 93.355469 90.613281 95.699219 90.613281 96.109375 C 90.613281 96.167969 90.691406 96.265625 90.808594 96.265625 C 90.945312 96.265625 90.984375 96.148438 91.023438 96.089844 C 91.628906 94.097656 92.839844 93.726562 93.347656 93.726562 C 94.167969 93.726562 94.324219 94.46875 94.324219 94.898438 C 94.324219 95.289062 94.226562 95.699219 93.992188 96.558594 L 93.386719 99.019531 C 93.132812 100.09375 92.605469 101.089844 91.648438 101.089844 C 91.570312 101.089844 91.121094 101.089844 90.730469 100.855469 C 91.375 100.71875 91.53125 100.191406 91.53125 99.976562 C 91.53125 99.625 91.257812 99.410156 90.925781 99.410156 C 90.496094 99.410156 90.027344 99.78125 90.027344 100.347656 C 90.027344 101.109375 90.867188 101.441406 91.628906 101.441406 C 92.488281 101.441406 93.113281 100.757812 93.484375 100.035156 C 93.777344 101.089844 94.65625 101.441406 95.320312 101.441406 C 97.15625 101.441406 98.132812 99.097656 98.132812 98.707031 C 98.132812 98.609375 98.054688 98.53125 97.9375 98.53125 C 97.78125 98.53125 97.761719 98.628906 97.722656 98.765625 C 97.234375 100.347656 96.179688 101.089844 95.378906 101.089844 C 94.753906 101.089844 94.421875 100.621094 94.421875 99.878906 C 94.421875 99.488281 94.480469 99.195312 94.773438 98.023438 L 95.398438 95.582031 C 95.671875 94.507812 96.277344 93.726562 97.097656 93.726562 C 97.136719 93.726562 97.644531 93.726562 98.015625 93.941406 Z M 98.015625 93.941406 "/>
<path style=" stroke:none;fill-rule:nonzero;fill:rgb(0%,0%,0%);fill-opacity:1;" d="M 115.285156 97.144531 C 115.597656 97.144531 115.910156 97.144531 115.910156 96.792969 C 115.910156 96.421875 115.597656 96.421875 115.285156 96.421875 L 105.578125 96.421875 C 105.285156 96.421875 104.953125 96.421875 104.953125 96.792969 C 104.953125 97.144531 105.285156 97.144531 105.578125 97.144531 Z M 115.285156 97.144531 "/>
<path style=" stroke:none;fill-rule:nonzero;fill:rgb(0%,0%,0%);fill-opacity:1;" d="M 128.03125 96.050781 C 128.03125 100.289062 126.15625 101.148438 125.082031 101.148438 C 124.632812 101.148438 123.695312 101.109375 123.246094 100.484375 L 123.34375 100.484375 C 123.480469 100.503906 124.125 100.40625 124.125 99.742188 C 124.125 99.351562 123.851562 99 123.382812 99 C 122.914062 99 122.640625 99.3125 122.640625 99.78125 C 122.640625 100.894531 123.539062 101.636719 125.082031 101.636719 C 127.328125 101.636719 129.496094 99.253906 129.496094 95.367188 C 129.496094 90.542969 127.484375 89.351562 125.921875 89.351562 C 123.949219 89.351562 122.210938 90.992188 122.210938 93.355469 C 122.210938 95.71875 123.871094 97.339844 125.667969 97.339844 C 126.996094 97.339844 127.679688 96.363281 128.03125 95.464844 Z M 125.726562 96.988281 C 124.613281 96.988281 124.125 96.070312 123.96875 95.71875 C 123.675781 95.035156 123.675781 94.175781 123.675781 93.375 C 123.675781 92.378906 123.675781 91.519531 124.144531 90.777344 C 124.457031 90.289062 124.945312 89.78125 125.921875 89.78125 C 126.9375 89.78125 127.464844 90.660156 127.640625 91.089844 C 127.992188 91.96875 127.992188 93.492188 127.992188 93.746094 C 127.992188 95.25 127.308594 96.988281 125.726562 96.988281 Z M 125.726562 96.988281 "/>
<path style=" stroke:none;fill-rule:nonzero;fill:rgb(0%,0%,0%);fill-opacity:1;" d="M 139.769531 96.867188 C 139.769531 89.816406 138.148438 82.726562 133.597656 77.355469 C 133.246094 76.945312 132.5625 76.203125 131.820312 75.558594 C 131.605469 75.34375 131.566406 75.34375 131.3125 75.34375 C 131.097656 75.34375 130.941406 75.34375 130.941406 75.519531 C 130.941406 75.597656 131.019531 75.675781 131.058594 75.714844 C 131.683594 76.359375 132.875 77.550781 134.085938 79.484375 C 136.976562 84.113281 138.285156 89.953125 138.285156 96.847656 C 138.285156 101.671875 137.640625 107.882812 134.671875 113.234375 C 133.265625 115.773438 131.761719 117.277344 131.019531 118.019531 C 130.980469 118.078125 130.941406 118.136719 130.941406 118.175781 C 130.941406 118.371094 131.097656 118.371094 131.3125 118.371094 C 131.566406 118.371094 131.605469 118.371094 131.878906 118.097656 C 137.875 112.628906 139.769531 104.40625 139.769531 96.867188 Z M 139.769531 96.867188 "/>
<path style=" stroke:none;fill-rule:nonzero;fill:rgb(0%,0%,0%);fill-opacity:1;" d="M 150.855469 96.792969 C 150.855469 96.265625 150.425781 95.835938 149.917969 95.835938 C 149.390625 95.835938 148.960938 96.265625 148.960938 96.792969 C 148.960938 97.300781 149.390625 97.730469 149.917969 97.730469 C 150.425781 97.730469 150.855469 97.300781 150.855469 96.792969 Z M 150.855469 96.792969 "/>
<path style=" stroke:none;fill-rule:nonzero;fill:rgb(0%,0%,0%);fill-opacity:1;" d="M 165.441406 89.273438 C 165.460938 89.195312 165.5 89.097656 165.5 89 C 165.5 88.824219 165.304688 88.824219 165.265625 88.824219 C 165.265625 88.824219 164.386719 88.902344 164.289062 88.902344 C 163.976562 88.921875 163.722656 88.960938 163.390625 88.980469 C 162.941406 89.019531 162.824219 89.039062 162.824219 89.351562 C 162.824219 89.546875 162.960938 89.546875 163.214844 89.546875 C 164.09375 89.546875 164.113281 89.703125 164.113281 89.878906 C 164.113281 89.996094 164.074219 90.132812 164.054688 90.191406 L 162.960938 94.546875 C 162.765625 94.078125 162.277344 93.355469 161.339844 93.355469 C 159.328125 93.355469 157.140625 95.972656 157.140625 98.628906 C 157.140625 100.40625 158.175781 101.441406 159.386719 101.441406 C 160.382812 101.441406 161.222656 100.679688 161.730469 100.074219 C 161.90625 101.148438 162.746094 101.441406 163.292969 101.441406 C 163.820312 101.441406 164.25 101.128906 164.582031 100.484375 C 164.855469 99.859375 165.109375 98.765625 165.109375 98.707031 C 165.109375 98.609375 165.050781 98.53125 164.933594 98.53125 C 164.777344 98.53125 164.757812 98.628906 164.679688 98.902344 C 164.40625 99.957031 164.074219 101.089844 163.332031 101.089844 C 162.824219 101.089844 162.785156 100.621094 162.785156 100.269531 C 162.785156 100.191406 162.785156 99.820312 162.902344 99.3125 Z M 161.808594 99.136719 C 161.730469 99.429688 161.730469 99.46875 161.476562 99.820312 C 161.085938 100.308594 160.285156 101.089844 159.445312 101.089844 C 158.722656 101.089844 158.292969 100.425781 158.292969 99.371094 C 158.292969 98.375 158.859375 96.363281 159.191406 95.621094 C 159.816406 94.371094 160.65625 93.726562 161.339844 93.726562 C 162.53125 93.726562 162.765625 95.191406 162.765625 95.328125 C 162.765625 95.347656 162.707031 95.582031 162.6875 95.621094 Z M 161.808594 99.136719 "/>
<path style=" stroke:none;fill-rule:nonzero;fill:rgb(0%,0%,0%);fill-opacity:1;" d="M 174.0625 93.941406 C 173.496094 94.058594 173.28125 94.488281 173.28125 94.820312 C 173.28125 95.25 173.613281 95.40625 173.867188 95.40625 C 174.414062 95.40625 174.785156 94.9375 174.785156 94.449219 C 174.785156 93.707031 173.925781 93.355469 173.164062 93.355469 C 172.070312 93.355469 171.464844 94.429688 171.308594 94.78125 C 170.898438 93.433594 169.785156 93.355469 169.453125 93.355469 C 167.636719 93.355469 166.660156 95.699219 166.660156 96.109375 C 166.660156 96.167969 166.738281 96.265625 166.855469 96.265625 C 166.992188 96.265625 167.03125 96.148438 167.070312 96.089844 C 167.675781 94.097656 168.886719 93.726562 169.394531 93.726562 C 170.214844 93.726562 170.371094 94.46875 170.371094 94.898438 C 170.371094 95.289062 170.273438 95.699219 170.039062 96.558594 L 169.433594 99.019531 C 169.179688 100.09375 168.652344 101.089844 167.695312 101.089844 C 167.617188 101.089844 167.167969 101.089844 166.777344 100.855469 C 167.421875 100.71875 167.578125 100.191406 167.578125 99.976562 C 167.578125 99.625 167.304688 99.410156 166.972656 99.410156 C 166.542969 99.410156 166.074219 99.78125 166.074219 100.347656 C 166.074219 101.109375 166.914062 101.441406 167.675781 101.441406 C 168.535156 101.441406 169.160156 100.757812 169.53125 100.035156 C 169.824219 101.089844 170.703125 101.441406 171.367188 101.441406 C 173.203125 101.441406 174.179688 99.097656 174.179688 98.707031 C 174.179688 98.609375 174.101562 98.53125 173.984375 98.53125 C 173.828125 98.53125 173.808594 98.628906 173.769531 98.765625 C 173.28125 100.347656 172.226562 101.089844 171.425781 101.089844 C 170.800781 101.089844 170.46875 100.621094 170.46875 99.878906 C 170.46875 99.488281 170.527344 99.195312 170.820312 98.023438 L 171.445312 95.582031 C 171.71875 94.507812 172.324219 93.726562 173.144531 93.726562 C 173.183594 93.726562 173.691406 93.726562 174.0625 93.941406 Z M 174.0625 93.941406 "/>
<path style=" stroke:none;fill-rule:nonzero;fill:rgb(0%,0%,0%);fill-opacity:1;" d="M 186.667969 97.125 L 191.628906 97.125 C 191.882812 97.125 192.195312 97.125 192.195312 96.792969 C 192.195312 96.460938 191.882812 96.460938 191.628906 96.460938 L 186.667969 96.460938 L 186.667969 91.519531 C 186.667969 91.265625 186.667969 90.933594 186.355469 90.933594 C 186.003906 90.933594 186.003906 91.246094 186.003906 91.519531 L 186.003906 96.460938 L 181.0625 96.460938 C 180.808594 96.460938 180.496094 96.460938 180.496094 96.792969 C 180.496094 97.125 180.789062 97.125 181.0625 97.125 L 186.003906 97.125 L 186.003906 102.066406 C 186.003906 102.320312 186.003906 102.652344 186.335938 102.652344 C 186.667969 102.652344 186.667969 102.339844 186.667969 102.066406 Z M 186.667969 97.125 "/>
<path style=" stroke:none;fill-rule:nonzero;fill:rgb(0%,0%,0%);fill-opacity:1;" d="M 198.921875 115.839844 C 199.507812 115.820312 199.800781 115.410156 199.800781 114.980469 C 199.800781 114.375 199.371094 114.101562 198.941406 114.101562 C 198.511719 114.101562 198.0625 114.355469 198.0625 114.980469 C 198.0625 115.898438 198.960938 116.660156 200.054688 116.660156 C 202.789062 116.660156 203.804688 112.460938 205.074219 107.265625 C 206.460938 101.601562 207.632812 95.878906 208.589844 90.117188 C 209.253906 86.308594 209.917969 82.714844 210.523438 80.410156 C 210.738281 79.53125 211.363281 77.207031 212.046875 77.207031 C 212.613281 77.207031 213.0625 77.558594 213.140625 77.617188 C 212.535156 77.65625 212.242188 78.046875 212.242188 78.496094 C 212.242188 79.101562 212.691406 79.375 213.101562 79.375 C 213.53125 79.375 213.980469 79.121094 213.980469 78.476562 C 213.980469 77.519531 213.003906 76.816406 212.027344 76.816406 C 210.660156 76.816406 209.644531 78.769531 208.667969 82.421875 C 208.609375 82.617188 206.167969 91.621094 204.195312 103.359375 C 203.726562 106.09375 203.21875 109.082031 202.632812 111.582031 C 202.300781 112.890625 201.480469 116.269531 200.015625 116.269531 C 199.371094 116.269531 198.941406 115.839844 198.921875 115.839844 Z M 198.921875 115.839844 "/>
<path style=" stroke:none;fill-rule:nonzero;fill:rgb(0%,0%,0%);fill-opacity:1;" d="M 217.097656 76.0625 C 216.53125 75.691406 216.472656 75.28125 216.472656 75.066406 C 216.472656 74.304688 217.292969 73.777344 218.171875 73.777344 C 219.070312 73.777344 219.871094 74.421875 219.871094 75.320312 C 219.871094 76.042969 219.382812 76.628906 218.640625 77.058594 Z M 218.914062 77.253906 C 219.8125 76.785156 220.417969 76.140625 220.417969 75.320312 C 220.417969 74.167969 219.324219 73.464844 218.191406 73.464844 C 216.941406 73.464844 215.925781 74.382812 215.925781 75.554688 C 215.925781 75.769531 215.945312 76.335938 216.472656 76.921875 C 216.609375 77.058594 217.078125 77.371094 217.390625 77.585938 C 216.667969 77.957031 215.59375 78.640625 215.59375 79.890625 C 215.59375 81.199219 216.863281 82.039062 218.171875 82.039062 C 219.578125 82.039062 220.769531 81.003906 220.769531 79.675781 C 220.769531 79.226562 220.632812 78.660156 220.144531 78.132812 C 219.910156 77.878906 219.714844 77.761719 218.914062 77.253906 Z M 217.664062 77.78125 L 219.207031 78.757812 C 219.558594 78.992188 220.144531 79.363281 220.144531 80.125 C 220.144531 81.042969 219.207031 81.6875 218.191406 81.6875 C 217.117188 81.6875 216.21875 80.925781 216.21875 79.890625 C 216.21875 79.167969 216.609375 78.367188 217.664062 77.78125 Z M 217.664062 77.78125 "/>
<path style=" stroke:none;fill-rule:nonzero;fill:rgb(0%,0%,0%);fill-opacity:1;" d="M 208.757812 113.234375 L 208.757812 112.921875 C 208.757812 109.777344 210.300781 109.328125 210.945312 109.328125 C 211.238281 109.328125 211.765625 109.40625 212.039062 109.835938 C 211.84375 109.835938 211.355469 109.835938 211.355469 110.382812 C 211.355469 110.773438 211.648438 110.96875 211.921875 110.96875 C 212.117188 110.96875 212.507812 110.851562 212.507812 110.363281 C 212.507812 109.621094 211.960938 109.015625 210.925781 109.015625 C 209.324219 109.015625 207.644531 110.617188 207.644531 113.371094 C 207.644531 116.710938 209.089844 117.589844 210.242188 117.589844 C 211.628906 117.589844 212.820312 116.417969 212.820312 114.777344 C 212.820312 113.195312 211.707031 112.003906 210.320312 112.003906 C 209.480469 112.003906 209.011719 112.628906 208.757812 113.234375 Z M 210.242188 117.238281 C 209.460938 117.238281 209.089844 116.496094 209.011719 116.300781 C 208.777344 115.714844 208.777344 114.71875 208.777344 114.503906 C 208.777344 113.527344 209.1875 112.277344 210.300781 112.277344 C 210.515625 112.277344 211.082031 112.277344 211.472656 113.058594 C 211.6875 113.507812 211.6875 114.152344 211.6875 114.757812 C 211.6875 115.363281 211.6875 115.988281 211.472656 116.4375 C 211.101562 117.179688 210.535156 117.238281 210.242188 117.238281 Z M 210.242188 117.238281 "/>
<path style=" stroke:none;fill-rule:nonzero;fill:rgb(0%,0%,0%);fill-opacity:1;" d="M 230.789062 105.621094 C 230.789062 105.5625 230.789062 105.523438 230.496094 105.230469 C 228.699219 103.414062 227.703125 100.464844 227.703125 96.792969 C 227.703125 93.316406 228.542969 90.328125 230.613281 88.21875 C 230.789062 88.042969 230.789062 88.023438 230.789062 87.964844 C 230.789062 87.847656 230.710938 87.828125 230.632812 87.828125 C 230.398438 87.828125 228.933594 89.117188 228.054688 90.875 C 227.136719 92.671875 226.726562 94.605469 226.726562 96.792969 C 226.726562 98.394531 226.980469 100.523438 227.917969 102.457031 C 228.972656 104.605469 230.4375 105.757812 230.632812 105.757812 C 230.710938 105.757812 230.789062 105.738281 230.789062 105.621094 Z M 230.789062 105.621094 "/>
<path style=" stroke:none;fill-rule:nonzero;fill:rgb(0%,0%,0%);fill-opacity:1;" d="M 243.535156 97.144531 C 243.847656 97.144531 244.160156 97.144531 244.160156 96.792969 C 244.160156 96.421875 243.847656 96.421875 243.535156 96.421875 L 233.828125 96.421875 C 233.535156 96.421875 233.203125 96.421875 233.203125 96.792969 C 233.203125 97.144531 233.535156 97.144531 233.828125 97.144531 Z M 243.535156 97.144531 "/>
<path style=" stroke:none;fill-rule:nonzero;fill:rgb(0%,0%,0%);fill-opacity:1;" d="M 254.164062 93.941406 C 253.597656 94.058594 253.382812 94.488281 253.382812 94.820312 C 253.382812 95.25 253.714844 95.40625 253.96875 95.40625 C 254.515625 95.40625 254.886719 94.9375 254.886719 94.449219 C 254.886719 93.707031 254.027344 93.355469 253.265625 93.355469 C 252.171875 93.355469 251.566406 94.429688 251.410156 94.78125 C 251 93.433594 249.886719 93.355469 249.554688 93.355469 C 247.738281 93.355469 246.761719 95.699219 246.761719 96.109375 C 246.761719 96.167969 246.839844 96.265625 246.957031 96.265625 C 247.09375 96.265625 247.132812 96.148438 247.171875 96.089844 C 247.777344 94.097656 248.988281 93.726562 249.496094 93.726562 C 250.316406 93.726562 250.472656 94.46875 250.472656 94.898438 C 250.472656 95.289062 250.375 95.699219 250.140625 96.558594 L 249.535156 99.019531 C 249.28125 100.09375 248.753906 101.089844 247.796875 101.089844 C 247.71875 101.089844 247.269531 101.089844 246.878906 100.855469 C 247.523438 100.71875 247.679688 100.191406 247.679688 99.976562 C 247.679688 99.625 247.40625 99.410156 247.074219 99.410156 C 246.644531 99.410156 246.175781 99.78125 246.175781 100.347656 C 246.175781 101.109375 247.015625 101.441406 247.777344 101.441406 C 248.636719 101.441406 249.261719 100.757812 249.632812 100.035156 C 249.925781 101.089844 250.804688 101.441406 251.46875 101.441406 C 253.304688 101.441406 254.28125 99.097656 254.28125 98.707031 C 254.28125 98.609375 254.203125 98.53125 254.085938 98.53125 C 253.929688 98.53125 253.910156 98.628906 253.871094 98.765625 C 253.382812 100.347656 252.328125 101.089844 251.527344 101.089844 C 250.902344 101.089844 250.570312 100.621094 250.570312 99.878906 C 250.570312 99.488281 250.628906 99.195312 250.921875 98.023438 L 251.546875 95.582031 C 251.820312 94.507812 252.425781 93.726562 253.246094 93.726562 C 253.285156 93.726562 253.792969 93.726562 254.164062 93.941406 Z M 254.164062 93.941406 "/>
<path style=" stroke:none;fill-rule:nonzero;fill:rgb(0%,0%,0%);fill-opacity:1;" d="M 266.765625 97.125 L 271.726562 97.125 C 271.980469 97.125 272.292969 97.125 272.292969 96.792969 C 272.292969 96.460938 271.980469 96.460938 271.726562 96.460938 L 266.765625 96.460938 L 266.765625 91.519531 C 266.765625 91.265625 266.765625 90.933594 266.453125 90.933594 C 266.101562 90.933594 266.101562 91.246094 266.101562 91.519531 L 266.101562 96.460938 L 261.160156 96.460938 C 260.90625 96.460938 260.59375 96.460938 260.59375 96.792969 C 260.59375 97.125 260.886719 97.125 261.160156 97.125 L 266.101562 97.125 L 266.101562 102.066406 C 266.101562 102.320312 266.101562 102.652344 266.433594 102.652344 C 266.765625 102.652344 266.765625 102.339844 266.765625 102.066406 Z M 266.765625 97.125 "/>
<path style=" stroke:none;fill-rule:nonzero;fill:rgb(0%,0%,0%);fill-opacity:1;" d="M 282.476562 89.78125 C 282.476562 89.351562 282.476562 89.351562 282.125 89.351562 C 281.695312 89.820312 280.796875 90.484375 278.960938 90.484375 L 278.960938 91.011719 C 279.371094 91.011719 280.269531 91.011719 281.246094 90.542969 L 281.246094 99.878906 C 281.246094 100.523438 281.1875 100.738281 279.625 100.738281 L 279.058594 100.738281 L 279.058594 101.265625 C 279.546875 101.226562 281.285156 101.226562 281.871094 101.226562 C 282.457031 101.226562 284.195312 101.226562 284.664062 101.265625 L 284.664062 100.738281 L 284.117188 100.738281 C 282.535156 100.738281 282.476562 100.523438 282.476562 99.878906 Z M 282.476562 89.78125 "/>
<path style=" stroke:none;fill-rule:nonzero;fill:rgb(0%,0%,0%);fill-opacity:1;" d="M 294.058594 98.257812 L 293.667969 98.257812 C 293.609375 98.550781 293.472656 99.546875 293.277344 99.839844 C 293.160156 99.996094 292.144531 99.996094 291.597656 99.996094 L 288.277344 99.996094 C 288.765625 99.585938 289.859375 98.433594 290.328125 98.003906 C 293.0625 95.484375 294.058594 94.566406 294.058594 92.789062 C 294.058594 90.71875 292.417969 89.351562 290.347656 89.351562 C 288.257812 89.351562 287.046875 91.109375 287.046875 92.652344 C 287.046875 93.570312 287.828125 93.570312 287.886719 93.570312 C 288.257812 93.570312 288.726562 93.296875 288.726562 92.730469 C 288.726562 92.222656 288.394531 91.890625 287.886719 91.890625 C 287.730469 91.890625 287.691406 91.890625 287.632812 91.910156 C 287.984375 90.679688 288.941406 89.859375 290.113281 89.859375 C 291.636719 89.859375 292.574219 91.128906 292.574219 92.789062 C 292.574219 94.3125 291.695312 95.640625 290.660156 96.792969 L 287.046875 100.835938 L 287.046875 101.265625 L 293.589844 101.265625 Z M 294.058594 98.257812 "/>
<path style=" stroke:none;fill-rule:nonzero;fill:rgb(0%,0%,0%);fill-opacity:1;" d="M 300.078125 96.792969 C 300.078125 95.445312 299.902344 93.21875 298.886719 91.128906 C 297.832031 88.980469 296.367188 87.828125 296.171875 87.828125 C 296.09375 87.828125 295.996094 87.847656 295.996094 87.964844 C 295.996094 88.023438 295.996094 88.042969 296.308594 88.355469 C 298.105469 90.171875 299.101562 93.121094 299.101562 96.792969 C 299.101562 100.269531 298.261719 103.257812 296.191406 105.367188 C 295.996094 105.523438 295.996094 105.5625 295.996094 105.621094 C 295.996094 105.738281 296.09375 105.757812 296.171875 105.757812 C 296.40625 105.757812 297.871094 104.46875 298.75 102.710938 C 299.667969 100.894531 300.078125 98.960938 300.078125 96.792969 Z M 300.078125 96.792969 "/>
<path style=" stroke:none;fill-rule:nonzero;fill:rgb(0%,0%,0%);fill-opacity:1;" d="M 309.105469 96.792969 C 309.105469 96.265625 308.675781 95.835938 308.167969 95.835938 C 307.640625 95.835938 307.210938 96.265625 307.210938 96.792969 C 307.210938 97.300781 307.640625 97.730469 308.167969 97.730469 C 308.675781 97.730469 309.105469 97.300781 309.105469 96.792969 Z M 309.105469 96.792969 "/>
<path style=" stroke:none;fill-rule:nonzero;fill:rgb(0%,0%,0%);fill-opacity:1;" d="M 323.691406 89.273438 C 323.710938 89.195312 323.75 89.097656 323.75 89 C 323.75 88.824219 323.554688 88.824219 323.515625 88.824219 C 323.515625 88.824219 322.636719 88.902344 322.539062 88.902344 C 322.226562 88.921875 321.972656 88.960938 321.640625 88.980469 C 321.191406 89.019531 321.074219 89.039062 321.074219 89.351562 C 321.074219 89.546875 321.210938 89.546875 321.464844 89.546875 C 322.34375 89.546875 322.363281 89.703125 322.363281 89.878906 C 322.363281 89.996094 322.324219 90.132812 322.304688 90.191406 L 321.210938 94.546875 C 321.015625 94.078125 320.527344 93.355469 319.589844 93.355469 C 317.578125 93.355469 315.390625 95.972656 315.390625 98.628906 C 315.390625 100.40625 316.425781 101.441406 317.636719 101.441406 C 318.632812 101.441406 319.472656 100.679688 319.980469 100.074219 C 320.15625 101.148438 320.996094 101.441406 321.542969 101.441406 C 322.070312 101.441406 322.5 101.128906 322.832031 100.484375 C 323.105469 99.859375 323.359375 98.765625 323.359375 98.707031 C 323.359375 98.609375 323.300781 98.53125 323.183594 98.53125 C 323.027344 98.53125 323.007812 98.628906 322.929688 98.902344 C 322.65625 99.957031 322.324219 101.089844 321.582031 101.089844 C 321.074219 101.089844 321.035156 100.621094 321.035156 100.269531 C 321.035156 100.191406 321.035156 99.820312 321.152344 99.3125 Z M 320.058594 99.136719 C 319.980469 99.429688 319.980469 99.46875 319.726562 99.820312 C 319.335938 100.308594 318.535156 101.089844 317.695312 101.089844 C 316.972656 101.089844 316.542969 100.425781 316.542969 99.371094 C 316.542969 98.375 317.109375 96.363281 317.441406 95.621094 C 318.066406 94.371094 318.90625 93.726562 319.589844 93.726562 C 320.78125 93.726562 321.015625 95.191406 321.015625 95.328125 C 321.015625 95.347656 320.957031 95.582031 320.9375 95.621094 Z M 320.058594 99.136719 "/>
<path style=" stroke:none;fill-rule:nonzero;fill:rgb(0%,0%,0%);fill-opacity:1;" d="M 332.316406 93.941406 C 331.75 94.058594 331.535156 94.488281 331.535156 94.820312 C 331.535156 95.25 331.867188 95.40625 332.121094 95.40625 C 332.667969 95.40625 333.039062 94.9375 333.039062 94.449219 C 333.039062 93.707031 332.179688 93.355469 331.417969 93.355469 C 330.324219 93.355469 329.71875 94.429688 329.5625 94.78125 C 329.152344 93.433594 328.039062 93.355469 327.707031 93.355469 C 325.890625 93.355469 324.914062 95.699219 324.914062 96.109375 C 324.914062 96.167969 324.992188 96.265625 325.109375 96.265625 C 325.246094 96.265625 325.285156 96.148438 325.324219 96.089844 C 325.929688 94.097656 327.140625 93.726562 327.648438 93.726562 C 328.46875 93.726562 328.625 94.46875 328.625 94.898438 C 328.625 95.289062 328.527344 95.699219 328.292969 96.558594 L 327.6875 99.019531 C 327.433594 100.09375 326.90625 101.089844 325.949219 101.089844 C 325.871094 101.089844 325.421875 101.089844 325.03125 100.855469 C 325.675781 100.71875 325.832031 100.191406 325.832031 99.976562 C 325.832031 99.625 325.558594 99.410156 325.226562 99.410156 C 324.796875 99.410156 324.328125 99.78125 324.328125 100.347656 C 324.328125 101.109375 325.167969 101.441406 325.929688 101.441406 C 326.789062 101.441406 327.414062 100.757812 327.785156 100.035156 C 328.078125 101.089844 328.957031 101.441406 329.621094 101.441406 C 331.457031 101.441406 332.433594 99.097656 332.433594 98.707031 C 332.433594 98.609375 332.355469 98.53125 332.238281 98.53125 C 332.082031 98.53125 332.0625 98.628906 332.023438 98.765625 C 331.535156 100.347656 330.480469 101.089844 329.679688 101.089844 C 329.054688 101.089844 328.722656 100.621094 328.722656 99.878906 C 328.722656 99.488281 328.78125 99.195312 329.074219 98.023438 L 329.699219 95.582031 C 329.972656 94.507812 330.578125 93.726562 331.398438 93.726562 C 331.4375 93.726562 331.945312 93.726562 332.316406 93.941406 Z M 332.316406 93.941406 "/>
<path style=" stroke:none;fill-rule:nonzero;fill:rgb(0%,0%,0%);fill-opacity:1;" d="M 29.035156 169.296875 C 29.347656 169.296875 29.660156 169.296875 29.660156 168.945312 C 29.660156 168.574219 29.347656 168.574219 29.035156 168.574219 L 19.328125 168.574219 C 19.035156 168.574219 18.703125 168.574219 18.703125 168.945312 C 18.703125 169.296875 19.035156 169.296875 19.328125 169.296875 Z M 29.035156 169.296875 "/>
<path style=" stroke:none;fill-rule:nonzero;fill:rgb(0%,0%,0%);fill-opacity:1;" d="M 36.921875 187.992188 C 37.507812 187.972656 37.800781 187.5625 37.800781 187.132812 C 37.800781 186.527344 37.371094 186.253906 36.941406 186.253906 C 36.511719 186.253906 36.0625 186.507812 36.0625 187.132812 C 36.0625 188.050781 36.960938 188.8125 38.054688 188.8125 C 40.789062 188.8125 41.804688 184.613281 43.074219 179.417969 C 44.460938 173.753906 45.632812 168.03125 46.589844 162.269531 C 47.253906 158.460938 47.917969 154.867188 48.523438 152.5625 C 48.738281 151.683594 49.363281 149.359375 50.046875 149.359375 C 50.613281 149.359375 51.0625 149.710938 51.140625 149.769531 C 50.535156 149.808594 50.242188 150.199219 50.242188 150.648438 C 50.242188 151.253906 50.691406 151.527344 51.101562 151.527344 C 51.53125 151.527344 51.980469 151.273438 51.980469 150.628906 C 51.980469 149.671875 51.003906 148.96875 50.027344 148.96875 C 48.660156 148.96875 47.644531 150.921875 46.667969 154.574219 C 46.609375 154.769531 44.167969 163.773438 42.195312 175.511719 C 41.726562 178.246094 41.21875 181.234375 40.632812 183.734375 C 40.300781 185.042969 39.480469 188.421875 38.015625 188.421875 C 37.371094 188.421875 36.941406 187.992188 36.921875 187.992188 Z M 36.921875 187.992188 "/>
<path style=" stroke:none;fill-rule:nonzero;fill:rgb(0%,0%,0%);fill-opacity:1;" d="M 55.097656 148.0625 C 54.53125 147.691406 54.472656 147.28125 54.472656 147.066406 C 54.472656 146.304688 55.292969 145.777344 56.171875 145.777344 C 57.070312 145.777344 57.871094 146.421875 57.871094 147.320312 C 57.871094 148.042969 57.382812 148.628906 56.640625 149.058594 Z M 56.914062 149.253906 C 57.8125 148.785156 58.417969 148.140625 58.417969 147.320312 C 58.417969 146.167969 57.324219 145.464844 56.191406 145.464844 C 54.941406 145.464844 53.925781 146.382812 53.925781 147.554688 C 53.925781 147.769531 53.945312 148.335938 54.472656 148.921875 C 54.609375 149.058594 55.078125 149.371094 55.390625 149.585938 C 54.667969 149.957031 53.59375 150.640625 53.59375 151.890625 C 53.59375 153.199219 54.863281 154.039062 56.171875 154.039062 C 57.578125 154.039062 58.769531 153.003906 58.769531 151.675781 C 58.769531 151.226562 58.632812 150.660156 58.144531 150.132812 C 57.910156 149.878906 57.714844 149.761719 56.914062 149.253906 Z M 55.664062 149.78125 L 57.207031 150.757812 C 57.558594 150.992188 58.144531 151.363281 58.144531 152.125 C 58.144531 153.042969 57.207031 153.6875 56.191406 153.6875 C 55.117188 153.6875 54.21875 152.925781 54.21875 151.890625 C 54.21875 151.167969 54.609375 150.367188 55.664062 149.78125 Z M 55.664062 149.78125 "/>
<path style=" stroke:none;fill-rule:nonzero;fill:rgb(0%,0%,0%);fill-opacity:1;" d="M 48.789062 187.417969 L 48.789062 188.492188 C 48.789062 188.941406 48.75 189.078125 47.832031 189.078125 L 47.578125 189.078125 L 47.578125 189.46875 C 48.085938 189.429688 48.730469 189.429688 49.257812 189.429688 C 49.785156 189.429688 50.429688 189.429688 50.957031 189.46875 L 50.957031 189.078125 L 50.683594 189.078125 C 49.765625 189.078125 49.746094 188.941406 49.746094 188.492188 L 49.746094 187.417969 L 50.976562 187.417969 L 50.976562 187.027344 L 49.746094 187.027344 L 49.746094 181.363281 C 49.746094 181.109375 49.746094 181.03125 49.53125 181.03125 C 49.433594 181.03125 49.394531 181.03125 49.296875 181.1875 L 45.46875 187.027344 L 45.46875 187.417969 Z M 48.847656 187.027344 L 45.820312 187.027344 L 48.847656 182.378906 Z M 48.847656 187.027344 "/>
<path style=" stroke:none;fill-rule:nonzero;fill:rgb(0%,0%,0%);fill-opacity:1;" d="M 75.527344 190.175781 C 75.527344 190.117188 75.488281 190.078125 75.449219 190.019531 C 74.785156 189.355469 73.574219 188.164062 72.382812 186.230469 C 69.492188 181.601562 68.183594 175.761719 68.183594 168.867188 C 68.183594 164.042969 68.828125 157.8125 71.796875 152.480469 C 73.203125 149.921875 74.667969 148.457031 75.46875 147.675781 C 75.527344 147.617188 75.527344 147.578125 75.527344 147.519531 C 75.527344 147.34375 75.390625 147.34375 75.136719 147.34375 C 74.882812 147.34375 74.863281 147.34375 74.589844 147.617188 C 68.574219 153.085938 66.699219 161.289062 66.699219 168.847656 C 66.699219 175.898438 68.320312 182.988281 72.871094 188.359375 C 73.222656 188.769531 73.90625 189.492188 74.648438 190.15625 C 74.863281 190.371094 74.882812 190.371094 75.136719 190.371094 C 75.390625 190.371094 75.527344 190.371094 75.527344 190.175781 Z M 75.527344 190.175781 "/>
<path style=" stroke:none;fill-rule:nonzero;fill:rgb(0%,0%,0%);fill-opacity:1;" d="M 80.96875 154.820312 C 80.65625 154.839844 80.597656 154.859375 80.597656 155.035156 C 80.597656 155.210938 80.675781 155.210938 81.007812 155.210938 L 81.828125 155.210938 C 83.351562 155.210938 84.035156 156.460938 84.035156 158.179688 C 84.035156 160.523438 82.804688 161.148438 81.925781 161.148438 C 81.066406 161.148438 79.601562 160.738281 79.09375 159.566406 C 79.660156 159.644531 80.1875 159.332031 80.1875 158.6875 C 80.1875 158.160156 79.796875 157.808594 79.308594 157.808594 C 78.878906 157.808594 78.410156 158.0625 78.410156 158.746094 C 78.410156 160.328125 79.992188 161.636719 81.984375 161.636719 C 84.113281 161.636719 85.695312 160.015625 85.695312 158.199219 C 85.695312 156.558594 84.367188 155.25 82.648438 154.957031 C 84.210938 154.507812 85.207031 153.199219 85.207031 151.792969 C 85.207031 150.386719 83.742188 149.351562 82.003906 149.351562 C 80.207031 149.351562 78.878906 150.445312 78.878906 151.753906 C 78.878906 152.457031 79.445312 152.613281 79.71875 152.613281 C 80.089844 152.613281 80.519531 152.339844 80.519531 151.792969 C 80.519531 151.226562 80.089844 150.972656 79.699219 150.972656 C 79.582031 150.972656 79.542969 150.972656 79.503906 150.992188 C 80.1875 149.78125 81.867188 149.78125 81.945312 149.78125 C 82.550781 149.78125 83.703125 150.035156 83.703125 151.792969 C 83.703125 152.144531 83.664062 153.140625 83.136719 153.921875 C 82.589844 154.703125 81.984375 154.761719 81.496094 154.78125 Z M 80.96875 154.820312 "/>
<path style=" stroke:none;fill-rule:nonzero;fill:rgb(0%,0%,0%);fill-opacity:1;" d="M 77.652344 168.484375 L 86.5 168.484375 L 86.5 169.234375 L 77.652344 169.234375 Z M 77.652344 168.484375 "/>
<path style=" stroke:none;fill-rule:nonzero;fill:rgb(0%,0%,0%);fill-opacity:1;" d="M 84.132812 174.039062 C 84.132812 173.707031 84.132812 173.609375 83.898438 173.609375 C 83.742188 173.609375 83.683594 173.609375 83.546875 173.824219 L 78.15625 182.203125 L 78.15625 182.730469 L 82.863281 182.730469 L 82.863281 184.351562 C 82.863281 185.015625 82.824219 185.191406 81.515625 185.191406 L 81.164062 185.191406 L 81.164062 185.71875 C 81.574219 185.679688 83 185.679688 83.488281 185.679688 C 83.996094 185.679688 85.421875 185.679688 85.851562 185.71875 L 85.851562 185.191406 L 85.480469 185.191406 C 84.191406 185.191406 84.132812 185.015625 84.132812 184.351562 L 84.132812 182.730469 L 85.949219 182.730469 L 85.949219 182.203125 L 84.132812 182.203125 Z M 82.960938 175.445312 L 82.960938 182.203125 L 78.605469 182.203125 Z M 82.960938 175.445312 "/>
<path style=" stroke:none;fill-rule:nonzero;fill:rgb(0%,0%,0%);fill-opacity:1;" d="M 96.363281 166.09375 C 95.796875 166.210938 95.582031 166.640625 95.582031 166.972656 C 95.582031 167.402344 95.914062 167.558594 96.167969 167.558594 C 96.714844 167.558594 97.085938 167.089844 97.085938 166.601562 C 97.085938 165.859375 96.226562 165.507812 95.464844 165.507812 C 94.371094 165.507812 93.765625 166.582031 93.609375 166.933594 C 93.199219 165.585938 92.085938 165.507812 91.753906 165.507812 C 89.9375 165.507812 88.960938 167.851562 88.960938 168.261719 C 88.960938 168.320312 89.039062 168.417969 89.15625 168.417969 C 89.292969 168.417969 89.332031 168.300781 89.371094 168.242188 C 89.976562 166.25 91.1875 165.878906 91.695312 165.878906 C 92.515625 165.878906 92.671875 166.621094 92.671875 167.050781 C 92.671875 167.441406 92.574219 167.851562 92.339844 168.710938 L 91.734375 171.171875 C 91.480469 172.246094 90.953125 173.242188 89.996094 173.242188 C 89.917969 173.242188 89.46875 173.242188 89.078125 173.007812 C 89.722656 172.871094 89.878906 172.34375 89.878906 172.128906 C 89.878906 171.777344 89.605469 171.5625 89.273438 171.5625 C 88.84375 171.5625 88.375 171.933594 88.375 172.5 C 88.375 173.261719 89.214844 173.59375 89.976562 173.59375 C 90.835938 173.59375 91.460938 172.910156 91.832031 172.1875 C 92.125 173.242188 93.003906 173.59375 93.667969 173.59375 C 95.503906 173.59375 96.480469 171.25 96.480469 170.859375 C 96.480469 170.761719 96.402344 170.683594 96.285156 170.683594 C 96.128906 170.683594 96.109375 170.78125 96.070312 170.917969 C 95.582031 172.5 94.527344 173.242188 93.726562 173.242188 C 93.101562 173.242188 92.769531 172.773438 92.769531 172.03125 C 92.769531 171.640625 92.828125 171.347656 93.121094 170.175781 L 93.746094 167.734375 C 94.019531 166.660156 94.625 165.878906 95.445312 165.878906 C 95.484375 165.878906 95.992188 165.878906 96.363281 166.09375 Z M 96.363281 166.09375 "/>
<path style=" stroke:none;fill-rule:nonzero;fill:rgb(0%,0%,0%);fill-opacity:1;" d="M 113.636719 169.296875 C 113.949219 169.296875 114.261719 169.296875 114.261719 168.945312 C 114.261719 168.574219 113.949219 168.574219 113.636719 168.574219 L 103.929688 168.574219 C 103.636719 168.574219 103.304688 168.574219 103.304688 168.945312 C 103.304688 169.296875 103.636719 169.296875 103.929688 169.296875 Z M 113.636719 169.296875 "/>
<path style=" stroke:none;fill-rule:nonzero;fill:rgb(0%,0%,0%);fill-opacity:1;" d="M 127.710938 170.410156 L 127.320312 170.410156 C 127.261719 170.703125 127.125 171.699219 126.929688 171.992188 C 126.8125 172.148438 125.796875 172.148438 125.25 172.148438 L 121.929688 172.148438 C 122.417969 171.738281 123.511719 170.585938 123.980469 170.15625 C 126.714844 167.636719 127.710938 166.71875 127.710938 164.941406 C 127.710938 162.871094 126.070312 161.503906 124 161.503906 C 121.910156 161.503906 120.699219 163.261719 120.699219 164.804688 C 120.699219 165.722656 121.480469 165.722656 121.539062 165.722656 C 121.910156 165.722656 122.378906 165.449219 122.378906 164.882812 C 122.378906 164.375 122.046875 164.042969 121.539062 164.042969 C 121.382812 164.042969 121.34375 164.042969 121.285156 164.0625 C 121.636719 162.832031 122.59375 162.011719 123.765625 162.011719 C 125.289062 162.011719 126.226562 163.28125 126.226562 164.941406 C 126.226562 166.464844 125.347656 167.792969 124.3125 168.945312 L 120.699219 172.988281 L 120.699219 173.417969 L 127.242188 173.417969 Z M 127.710938 170.410156 "/>
<path style=" stroke:none;fill-rule:nonzero;fill:rgb(0%,0%,0%);fill-opacity:1;" d="M 138.121094 168.867188 C 138.121094 161.816406 136.5 154.726562 131.949219 149.355469 C 131.597656 148.945312 130.914062 148.203125 130.171875 147.558594 C 129.957031 147.34375 129.917969 147.34375 129.664062 147.34375 C 129.449219 147.34375 129.292969 147.34375 129.292969 147.519531 C 129.292969 147.597656 129.371094 147.675781 129.410156 147.714844 C 130.035156 148.359375 131.226562 149.550781 132.4375 151.484375 C 135.328125 156.113281 136.636719 161.953125 136.636719 168.847656 C 136.636719 173.671875 135.992188 179.882812 133.023438 185.234375 C 131.617188 187.773438 130.113281 189.277344 129.371094 190.019531 C 129.332031 190.078125 129.292969 190.136719 129.292969 190.175781 C 129.292969 190.371094 129.449219 190.371094 129.664062 190.371094 C 129.917969 190.371094 129.957031 190.371094 130.230469 190.097656 C 136.226562 184.628906 138.121094 176.40625 138.121094 168.867188 Z M 138.121094 168.867188 "/>
<path style=" stroke:none;fill-rule:nonzero;fill:rgb(0%,0%,0%);fill-opacity:1;" d="M 149.207031 168.945312 C 149.207031 168.417969 148.777344 167.988281 148.269531 167.988281 C 147.742188 167.988281 147.3125 168.417969 147.3125 168.945312 C 147.3125 169.453125 147.742188 169.882812 148.269531 169.882812 C 148.777344 169.882812 149.207031 169.453125 149.207031 168.945312 Z M 149.207031 168.945312 "/>
<path style=" stroke:none;fill-rule:nonzero;fill:rgb(0%,0%,0%);fill-opacity:1;" d="M 163.792969 161.425781 C 163.8125 161.347656 163.851562 161.25 163.851562 161.152344 C 163.851562 160.976562 163.65625 160.976562 163.617188 160.976562 C 163.617188 160.976562 162.738281 161.054688 162.640625 161.054688 C 162.328125 161.074219 162.074219 161.113281 161.742188 161.132812 C 161.292969 161.171875 161.175781 161.191406 161.175781 161.503906 C 161.175781 161.699219 161.3125 161.699219 161.566406 161.699219 C 162.445312 161.699219 162.464844 161.855469 162.464844 162.03125 C 162.464844 162.148438 162.425781 162.285156 162.40625 162.34375 L 161.3125 166.699219 C 161.117188 166.230469 160.628906 165.507812 159.691406 165.507812 C 157.679688 165.507812 155.492188 168.125 155.492188 170.78125 C 155.492188 172.558594 156.527344 173.59375 157.738281 173.59375 C 158.734375 173.59375 159.574219 172.832031 160.082031 172.226562 C 160.257812 173.300781 161.097656 173.59375 161.644531 173.59375 C 162.171875 173.59375 162.601562 173.28125 162.933594 172.636719 C 163.207031 172.011719 163.460938 170.917969 163.460938 170.859375 C 163.460938 170.761719 163.402344 170.683594 163.285156 170.683594 C 163.128906 170.683594 163.109375 170.78125 163.03125 171.054688 C 162.757812 172.109375 162.425781 173.242188 161.683594 173.242188 C 161.175781 173.242188 161.136719 172.773438 161.136719 172.421875 C 161.136719 172.34375 161.136719 171.972656 161.253906 171.464844 Z M 160.160156 171.289062 C 160.082031 171.582031 160.082031 171.621094 159.828125 171.972656 C 159.4375 172.460938 158.636719 173.242188 157.796875 173.242188 C 157.074219 173.242188 156.644531 172.578125 156.644531 171.523438 C 156.644531 170.527344 157.210938 168.515625 157.542969 167.773438 C 158.167969 166.523438 159.007812 165.878906 159.691406 165.878906 C 160.882812 165.878906 161.117188 167.34375 161.117188 167.480469 C 161.117188 167.5 161.058594 167.734375 161.039062 167.773438 Z M 160.160156 171.289062 "/>
<path style=" stroke:none;fill-rule:nonzero;fill:rgb(0%,0%,0%);fill-opacity:1;" d="M 172.414062 166.09375 C 171.847656 166.210938 171.632812 166.640625 171.632812 166.972656 C 171.632812 167.402344 171.964844 167.558594 172.21875 167.558594 C 172.765625 167.558594 173.136719 167.089844 173.136719 166.601562 C 173.136719 165.859375 172.277344 165.507812 171.515625 165.507812 C 170.421875 165.507812 169.816406 166.582031 169.660156 166.933594 C 169.25 165.585938 168.136719 165.507812 167.804688 165.507812 C 165.988281 165.507812 165.011719 167.851562 165.011719 168.261719 C 165.011719 168.320312 165.089844 168.417969 165.207031 168.417969 C 165.34375 168.417969 165.382812 168.300781 165.421875 168.242188 C 166.027344 166.25 167.238281 165.878906 167.746094 165.878906 C 168.566406 165.878906 168.722656 166.621094 168.722656 167.050781 C 168.722656 167.441406 168.625 167.851562 168.390625 168.710938 L 167.785156 171.171875 C 167.53125 172.246094 167.003906 173.242188 166.046875 173.242188 C 165.96875 173.242188 165.519531 173.242188 165.128906 173.007812 C 165.773438 172.871094 165.929688 172.34375 165.929688 172.128906 C 165.929688 171.777344 165.65625 171.5625 165.324219 171.5625 C 164.894531 171.5625 164.425781 171.933594 164.425781 172.5 C 164.425781 173.261719 165.265625 173.59375 166.027344 173.59375 C 166.886719 173.59375 167.511719 172.910156 167.882812 172.1875 C 168.175781 173.242188 169.054688 173.59375 169.71875 173.59375 C 171.554688 173.59375 172.53125 171.25 172.53125 170.859375 C 172.53125 170.761719 172.453125 170.683594 172.335938 170.683594 C 172.179688 170.683594 172.160156 170.78125 172.121094 170.917969 C 171.632812 172.5 170.578125 173.242188 169.777344 173.242188 C 169.152344 173.242188 168.820312 172.773438 168.820312 172.03125 C 168.820312 171.640625 168.878906 171.347656 169.171875 170.175781 L 169.796875 167.734375 C 170.070312 166.660156 170.675781 165.878906 171.496094 165.878906 C 171.535156 165.878906 172.042969 165.878906 172.414062 166.09375 Z M 172.414062 166.09375 "/>
</g>
</svg>
