<?xml version="1.0" encoding="UTF-8"?>
<svg xmlns="http://www.w3.org/2000/svg" xmlns:xlink="http://www.w3.org/1999/xlink" width="331.80639pt" height="204.82735pt" viewBox="0 0 331.80639 204.82735" version="1.1">
<g id="surface1">
<path style=" stroke:none;fill-rule:nonzero;fill:rgb(0%,0%,0%);fill-opacity:1;" d="M 5.761719 38.066406 C 5.917969 37.402344 5.996094 37.382812 6.699219 37.382812 L 7.988281 37.382812 C 9.53125 37.382812 10.664062 37.832031 10.664062 39.238281 C 10.664062 40.15625 10.195312 42.792969 6.601562 42.792969 L 4.570312 42.792969 Z M 8.242188 43.007812 C 10.46875 42.519531 12.207031 41.09375 12.207031 39.550781 C 12.207031 38.144531 10.800781 36.855469 8.300781 36.855469 L 3.4375 36.855469 C 3.085938 36.855469 2.929688 36.855469 2.929688 37.1875 C 2.929688 37.382812 3.046875 37.382812 3.398438 37.382812 C 4.472656 37.382812 4.472656 37.519531 4.472656 37.714844 C 4.472656 37.753906 4.472656 37.851562 4.394531 38.125 L 1.972656 47.773438 C 1.816406 48.398438 1.777344 48.574219 0.546875 48.574219 C 0.136719 48.574219 0 48.574219 0 48.925781 C 0 49.101562 0.195312 49.101562 0.253906 49.101562 C 0.585938 49.101562 0.957031 49.0625 1.289062 49.0625 L 3.417969 49.0625 C 3.730469 49.0625 4.101562 49.101562 4.433594 49.101562 C 4.570312 49.101562 4.765625 49.101562 4.765625 48.769531 C 4.765625 48.574219 4.609375 48.574219 4.335938 48.574219 C 3.242188 48.574219 3.242188 48.4375 3.242188 48.261719 C 3.242188 48.242188 3.242188 48.125 3.28125 47.96875 L 4.492188 43.144531 L 6.640625 43.144531 C 8.339844 43.144531 8.671875 44.21875 8.671875 44.824219 C 8.671875 45.078125 8.476562 45.78125 8.359375 46.25 C 8.164062 47.070312 8.105469 47.265625 8.105469 47.617188 C 8.105469 48.886719 9.140625 49.472656 10.351562 49.472656 C 11.796875 49.472656 12.421875 47.695312 12.421875 47.460938 C 12.421875 47.324219 12.34375 47.265625 12.226562 47.265625 C 12.089844 47.265625 12.050781 47.382812 12.011719 47.519531 C 11.582031 48.789062 10.859375 49.121094 10.410156 49.121094 C 9.960938 49.121094 9.667969 48.925781 9.667969 48.125 C 9.667969 47.675781 9.882812 46.054688 9.902344 45.957031 C 9.980469 45.292969 9.980469 45.234375 9.980469 45.078125 C 9.980469 43.769531 8.925781 43.222656 8.242188 43.007812 Z M 8.242188 43.007812 "/>
<path style=" stroke:none;fill-rule:nonzero;fill:rgb(0%,0%,0%);fill-opacity:1;" d="M 29.871094 43.300781 C 30.125 43.300781 30.4375 43.300781 30.4375 42.96875 C 30.4375 42.636719 30.125 42.636719 29.871094 42.636719 L 19.304688 42.636719 C 19.050781 42.636719 18.738281 42.636719 18.738281 42.949219 C 18.738281 43.300781 19.03125 43.300781 19.304688 43.300781 Z M 29.871094 46.621094 C 30.125 46.621094 30.4375 46.621094 30.4375 46.308594 C 30.4375 45.957031 30.125 45.957031 29.871094 45.957031 L 19.304688 45.957031 C 19.050781 45.957031 18.738281 45.957031 18.738281 46.289062 C 18.738281 46.621094 19.03125 46.621094 19.304688 46.621094 Z M 29.871094 46.621094 "/>
<path style=" stroke:none;fill-rule:nonzero;fill:rgb(0%,0%,0%);fill-opacity:1;" d="M 106.265625 4.21875 C 106.460938 4.21875 106.695312 4.21875 106.695312 3.984375 C 106.695312 3.730469 106.460938 3.730469 106.285156 3.730469 L 98.824219 3.730469 C 98.648438 3.730469 98.414062 3.730469 98.414062 3.984375 C 98.414062 4.21875 98.648438 4.21875 98.824219 4.21875 Z M 106.285156 6.640625 C 106.460938 6.640625 106.695312 6.640625 106.695312 6.386719 C 106.695312 6.152344 106.460938 6.152344 106.265625 6.152344 L 98.824219 6.152344 C 98.648438 6.152344 98.414062 6.152344 98.414062 6.386719 C 98.414062 6.640625 98.648438 6.640625 98.824219 6.640625 Z M 106.285156 6.640625 "/>
<path style=" stroke:none;fill-rule:nonzero;fill:rgb(0%,0%,0%);fill-opacity:1;" d="M 109.492188 2.597656 C 108.925781 2.226562 108.867188 1.816406 108.867188 1.601562 C 108.867188 0.839844 109.6875 0.3125 110.566406 0.3125 C 111.464844 0.3125 112.265625 0.957031 112.265625 1.855469 C 112.265625 2.578125 111.777344 3.164062 111.035156 3.59375 Z M 111.308594 3.789062 C 112.207031 3.320312 112.8125 2.675781 112.8125 1.855469 C 112.8125 0.703125 111.71875 0 110.585938 0 C 109.335938 0 108.320312 0.917969 108.320312 2.089844 C 108.320312 2.304688 108.339844 2.871094 108.867188 3.457031 C 109.003906 3.59375 109.472656 3.90625 109.785156 4.121094 C 109.0625 4.492188 107.988281 5.175781 107.988281 6.425781 C 107.988281 7.734375 109.257812 8.574219 110.566406 8.574219 C 111.972656 8.574219 113.164062 7.539062 113.164062 6.210938 C 113.164062 5.761719 113.027344 5.195312 112.539062 4.667969 C 112.304688 4.414062 112.109375 4.296875 111.308594 3.789062 Z M 110.058594 4.316406 L 111.601562 5.292969 C 111.953125 5.527344 112.539062 5.898438 112.539062 6.660156 C 112.539062 7.578125 111.601562 8.222656 110.585938 8.222656 C 109.511719 8.222656 108.613281 7.460938 108.613281 6.425781 C 108.613281 5.703125 109.003906 4.902344 110.058594 4.316406 Z M 110.058594 4.316406 "/>
<path style=" stroke:none;fill-rule:nonzero;fill:rgb(0%,0%,0%);fill-opacity:1;" d="M 44.601562 16.109375 C 44.601562 15.621094 44.601562 15.601562 44.230469 15.601562 C 42.394531 15.601562 38.371094 16.460938 35.929688 20.835938 L 35.929688 21.128906 C 35.929688 21.578125 35.949219 21.578125 36.359375 21.578125 C 36.691406 21.578125 36.710938 21.578125 36.808594 21.441406 C 38.273438 19.097656 40.753906 17.828125 44.386719 17.75 C 44.601562 17.75 44.601562 17.632812 44.601562 17.242188 Z M 44.601562 16.109375 "/>
<path style=" stroke:none;fill-rule:nonzero;fill:rgb(0%,0%,0%);fill-opacity:1;" d="M 44.445312 15.515625 L 97.695312 15.515625 L 97.695312 17.765625 L 44.445312 17.765625 Z M 44.445312 15.515625 "/>
<path style=" stroke:none;fill-rule:nonzero;fill:rgb(0%,0%,0%);fill-opacity:1;" d="M 106.207031 12.222656 C 106.207031 11.773438 106.1875 11.753906 105.777344 11.753906 C 105.445312 11.753906 105.425781 11.773438 105.328125 11.910156 C 103.863281 14.253906 101.382812 15.523438 97.75 15.601562 C 97.535156 15.601562 97.535156 15.71875 97.535156 16.109375 L 97.535156 17.242188 C 97.535156 17.730469 97.535156 17.75 97.90625 17.75 C 99.742188 17.75 103.765625 16.890625 106.207031 12.515625 Z M 106.207031 12.222656 "/>
<path style=" stroke:none;fill-rule:nonzero;fill:rgb(0%,0%,0%);fill-opacity:1;" d="M 114.050781 16.109375 C 114.050781 15.679688 114.050781 15.601562 113.796875 15.601562 C 112.703125 15.582031 110.945312 15.445312 109.324219 14.644531 C 107.390625 13.6875 106.648438 12.554688 106.199219 11.851562 C 106.140625 11.753906 106.042969 11.753906 105.808594 11.753906 C 105.398438 11.753906 105.378906 11.773438 105.378906 12.222656 L 105.378906 12.515625 C 107.820312 16.910156 111.84375 17.75 113.679688 17.75 C 114.050781 17.75 114.050781 17.730469 114.050781 17.242188 Z M 114.050781 16.109375 "/>
<path style=" stroke:none;fill-rule:nonzero;fill:rgb(0%,0%,0%);fill-opacity:1;" d="M 113.898438 15.515625 L 167.148438 15.515625 L 167.148438 17.765625 L 113.898438 17.765625 Z M 113.898438 15.515625 "/>
<path style=" stroke:none;fill-rule:nonzero;fill:rgb(0%,0%,0%);fill-opacity:1;" d="M 175.65625 20.835938 C 173.214844 16.441406 169.191406 15.601562 167.355469 15.601562 C 166.984375 15.601562 166.984375 15.621094 166.984375 16.109375 L 166.984375 17.242188 C 166.984375 17.652344 166.984375 17.75 167.238281 17.75 C 168.332031 17.769531 170.109375 17.90625 171.710938 18.707031 C 173.644531 19.664062 174.386719 20.796875 174.835938 21.5 C 174.894531 21.578125 174.992188 21.578125 175.226562 21.578125 C 175.636719 21.578125 175.65625 21.578125 175.65625 21.128906 Z M 175.65625 20.835938 "/>
<path style=" stroke:none;fill-rule:nonzero;fill:rgb(0%,0%,0%);fill-opacity:1;" d="M 38.214844 63.824219 C 38.800781 63.804688 39.09375 63.394531 39.09375 62.964844 C 39.09375 62.359375 38.664062 62.085938 38.234375 62.085938 C 37.804688 62.085938 37.355469 62.339844 37.355469 62.964844 C 37.355469 63.882812 38.253906 64.644531 39.347656 64.644531 C 42.082031 64.644531 43.097656 60.445312 44.367188 55.25 C 45.753906 49.585938 46.925781 43.863281 47.882812 38.101562 C 48.546875 34.292969 49.210938 30.699219 49.816406 28.394531 C 50.03125 27.515625 50.65625 25.191406 51.339844 25.191406 C 51.90625 25.191406 52.355469 25.542969 52.433594 25.601562 C 51.828125 25.640625 51.535156 26.03125 51.535156 26.480469 C 51.535156 27.085938 51.984375 27.359375 52.394531 27.359375 C 52.824219 27.359375 53.273438 27.105469 53.273438 26.460938 C 53.273438 25.503906 52.296875 24.800781 51.320312 24.800781 C 49.953125 24.800781 48.9375 26.753906 47.960938 30.40625 C 47.902344 30.601562 45.460938 39.605469 43.488281 51.34375 C 43.019531 54.078125 42.511719 57.066406 41.925781 59.566406 C 41.59375 60.875 40.773438 64.253906 39.308594 64.253906 C 38.664062 64.253906 38.234375 63.824219 38.214844 63.824219 Z M 38.214844 63.824219 "/>
<path style=" stroke:none;fill-rule:nonzero;fill:rgb(0%,0%,0%);fill-opacity:1;" d="M 55.851562 25.519531 L 55.851562 25.207031 C 55.851562 22.0625 57.394531 21.613281 58.039062 21.613281 C 58.332031 21.613281 58.859375 21.691406 59.132812 22.121094 C 58.9375 22.121094 58.449219 22.121094 58.449219 22.667969 C 58.449219 23.058594 58.742188 23.253906 59.015625 23.253906 C 59.210938 23.253906 59.601562 23.136719 59.601562 22.648438 C 59.601562 21.90625 59.054688 21.300781 58.019531 21.300781 C 56.417969 21.300781 54.738281 22.902344 54.738281 25.65625 C 54.738281 28.996094 56.183594 29.875 57.335938 29.875 C 58.722656 29.875 59.914062 28.703125 59.914062 27.0625 C 59.914062 25.480469 58.800781 24.289062 57.414062 24.289062 C 56.574219 24.289062 56.105469 24.914062 55.851562 25.519531 Z M 57.335938 29.523438 C 56.554688 29.523438 56.183594 28.78125 56.105469 28.585938 C 55.871094 28 55.871094 27.003906 55.871094 26.789062 C 55.871094 25.8125 56.28125 24.5625 57.394531 24.5625 C 57.609375 24.5625 58.175781 24.5625 58.566406 25.34375 C 58.78125 25.792969 58.78125 26.4375 58.78125 27.042969 C 58.78125 27.648438 58.78125 28.273438 58.566406 28.722656 C 58.195312 29.464844 57.628906 29.523438 57.335938 29.523438 Z M 57.335938 29.523438 "/>
<path style=" stroke:none;fill-rule:nonzero;fill:rgb(0%,0%,0%);fill-opacity:1;" d="M 49.933594 63.25 L 49.933594 64.324219 C 49.933594 64.773438 49.894531 64.910156 48.976562 64.910156 L 48.722656 64.910156 L 48.722656 65.300781 C 49.230469 65.261719 49.875 65.261719 50.402344 65.261719 C 50.929688 65.261719 51.574219 65.261719 52.101562 65.300781 L 52.101562 64.910156 L 51.828125 64.910156 C 50.910156 64.910156 50.890625 64.773438 50.890625 64.324219 L 50.890625 63.25 L 52.121094 63.25 L 52.121094 62.859375 L 50.890625 62.859375 L 50.890625 57.195312 C 50.890625 56.941406 50.890625 56.863281 50.675781 56.863281 C 50.578125 56.863281 50.539062 56.863281 50.441406 57.019531 L 46.613281 62.859375 L 46.613281 63.25 Z M 49.992188 62.859375 L 46.964844 62.859375 L 49.992188 58.210938 Z M 49.992188 62.859375 "/>
<path style=" stroke:none;fill-rule:nonzero;fill:rgb(0%,0%,0%);fill-opacity:1;" d="M 76.667969 66.011719 C 76.667969 65.953125 76.628906 65.914062 76.589844 65.855469 C 75.925781 65.191406 74.714844 64 73.523438 62.066406 C 70.632812 57.4375 69.324219 51.597656 69.324219 44.703125 C 69.324219 39.878906 69.96875 33.648438 72.9375 28.316406 C 74.34375 25.757812 75.808594 24.292969 76.609375 23.511719 C 76.667969 23.453125 76.667969 23.414062 76.667969 23.355469 C 76.667969 23.179688 76.53125 23.179688 76.277344 23.179688 C 76.023438 23.179688 76.003906 23.179688 75.730469 23.453125 C 69.714844 28.921875 67.839844 37.125 67.839844 44.683594 C 67.839844 51.734375 69.460938 58.824219 74.011719 64.195312 C 74.363281 64.605469 75.046875 65.328125 75.789062 65.992188 C 76.003906 66.207031 76.023438 66.207031 76.277344 66.207031 C 76.53125 66.207031 76.667969 66.207031 76.667969 66.011719 Z M 76.667969 66.011719 "/>
<path style=" stroke:none;fill-rule:nonzero;fill:rgb(0%,0%,0%);fill-opacity:1;" d="M 81.113281 26.828125 C 81.875 27.082031 82.5 27.101562 82.695312 27.101562 C 84.726562 27.101562 86.015625 25.617188 86.015625 25.363281 C 86.015625 25.285156 85.976562 25.1875 85.878906 25.1875 C 85.839844 25.1875 85.800781 25.1875 85.644531 25.265625 C 84.628906 25.695312 83.769531 25.753906 83.300781 25.753906 C 82.128906 25.753906 81.289062 25.402344 80.9375 25.246094 C 80.820312 25.1875 80.78125 25.1875 80.761719 25.1875 C 80.625 25.1875 80.625 25.304688 80.625 25.597656 L 80.625 30.910156 C 80.625 31.242188 80.625 31.339844 80.839844 31.339844 C 80.917969 31.339844 80.9375 31.320312 81.113281 31.105469 C 81.621094 30.382812 82.460938 29.953125 83.359375 29.953125 C 84.316406 29.953125 84.785156 30.832031 84.921875 31.125 C 85.234375 31.828125 85.253906 32.707031 85.253906 33.390625 C 85.253906 34.074219 85.253906 35.089844 84.746094 35.890625 C 84.355469 36.554688 83.652344 36.984375 82.851562 36.984375 C 81.679688 36.984375 80.507812 36.183594 80.195312 34.875 C 80.273438 34.914062 80.390625 34.933594 80.46875 34.933594 C 80.78125 34.933594 81.269531 34.757812 81.269531 34.152344 C 81.269531 33.644531 80.917969 33.351562 80.46875 33.351562 C 80.15625 33.351562 79.6875 33.507812 79.6875 34.210938 C 79.6875 35.734375 80.898438 37.472656 82.890625 37.472656 C 84.921875 37.472656 86.699219 35.773438 86.699219 33.488281 C 86.699219 31.359375 85.253906 29.582031 83.378906 29.582031 C 82.363281 29.582031 81.5625 30.03125 81.113281 30.539062 Z M 81.113281 26.828125 "/>
<path style=" stroke:none;fill-rule:nonzero;fill:rgb(0%,0%,0%);fill-opacity:1;" d="M 78.792969 44.3125 L 87.640625 44.3125 L 87.640625 45.066406 L 78.792969 45.066406 Z M 78.792969 44.3125 "/>
<path style=" stroke:none;fill-rule:nonzero;fill:rgb(0%,0%,0%);fill-opacity:1;" d="M 86.699219 58.394531 L 86.308594 58.394531 C 86.25 58.6875 86.113281 59.683594 85.917969 59.976562 C 85.800781 60.132812 84.785156 60.132812 84.238281 60.132812 L 80.917969 60.132812 C 81.40625 59.722656 82.5 58.570312 82.96875 58.140625 C 85.703125 55.621094 86.699219 54.703125 86.699219 52.925781 C 86.699219 50.855469 85.058594 49.488281 82.988281 49.488281 C 80.898438 49.488281 79.6875 51.246094 79.6875 52.789062 C 79.6875 53.707031 80.46875 53.707031 80.527344 53.707031 C 80.898438 53.707031 81.367188 53.433594 81.367188 52.867188 C 81.367188 52.359375 81.035156 52.027344 80.527344 52.027344 C 80.371094 52.027344 80.332031 52.027344 80.273438 52.046875 C 80.625 50.816406 81.582031 49.996094 82.753906 49.996094 C 84.277344 49.996094 85.214844 51.265625 85.214844 52.925781 C 85.214844 54.449219 84.335938 55.777344 83.300781 56.929688 L 79.6875 60.972656 L 79.6875 61.402344 L 86.230469 61.402344 Z M 86.699219 58.394531 "/>
<path style=" stroke:none;fill-rule:nonzero;fill:rgb(0%,0%,0%);fill-opacity:1;" d="M 97.507812 41.777344 C 96.941406 41.894531 96.726562 42.324219 96.726562 42.65625 C 96.726562 43.085938 97.058594 43.242188 97.3125 43.242188 C 97.859375 43.242188 98.230469 42.773438 98.230469 42.285156 C 98.230469 41.542969 97.371094 41.191406 96.609375 41.191406 C 95.515625 41.191406 94.910156 42.265625 94.753906 42.617188 C 94.34375 41.269531 93.230469 41.191406 92.898438 41.191406 C 91.082031 41.191406 90.105469 43.535156 90.105469 43.945312 C 90.105469 44.003906 90.183594 44.101562 90.300781 44.101562 C 90.4375 44.101562 90.476562 43.984375 90.515625 43.925781 C 91.121094 41.933594 92.332031 41.5625 92.839844 41.5625 C 93.660156 41.5625 93.816406 42.304688 93.816406 42.734375 C 93.816406 43.125 93.71875 43.535156 93.484375 44.394531 L 92.878906 46.855469 C 92.625 47.929688 92.097656 48.925781 91.140625 48.925781 C 91.0625 48.925781 90.613281 48.925781 90.222656 48.691406 C 90.867188 48.554688 91.023438 48.027344 91.023438 47.8125 C 91.023438 47.460938 90.75 47.246094 90.417969 47.246094 C 89.988281 47.246094 89.519531 47.617188 89.519531 48.183594 C 89.519531 48.945312 90.359375 49.277344 91.121094 49.277344 C 91.980469 49.277344 92.605469 48.59375 92.976562 47.871094 C 93.269531 48.925781 94.148438 49.277344 94.8125 49.277344 C 96.648438 49.277344 97.625 46.933594 97.625 46.542969 C 97.625 46.445312 97.546875 46.367188 97.429688 46.367188 C 97.273438 46.367188 97.253906 46.464844 97.214844 46.601562 C 96.726562 48.183594 95.671875 48.925781 94.871094 48.925781 C 94.246094 48.925781 93.914062 48.457031 93.914062 47.714844 C 93.914062 47.324219 93.972656 47.03125 94.265625 45.859375 L 94.890625 43.417969 C 95.164062 42.34375 95.769531 41.5625 96.589844 41.5625 C 96.628906 41.5625 97.136719 41.5625 97.507812 41.777344 Z M 97.507812 41.777344 "/>
<path style=" stroke:none;fill-rule:nonzero;fill:rgb(0%,0%,0%);fill-opacity:1;" d="M 114.777344 44.980469 C 115.089844 44.980469 115.402344 44.980469 115.402344 44.628906 C 115.402344 44.257812 115.089844 44.257812 114.777344 44.257812 L 105.070312 44.257812 C 104.777344 44.257812 104.445312 44.257812 104.445312 44.628906 C 104.445312 44.980469 104.777344 44.980469 105.070312 44.980469 Z M 114.777344 44.980469 "/>
<path style=" stroke:none;fill-rule:nonzero;fill:rgb(0%,0%,0%);fill-opacity:1;" d="M 127.523438 43.886719 C 127.523438 48.125 125.648438 48.984375 124.574219 48.984375 C 124.125 48.984375 123.1875 48.945312 122.738281 48.320312 L 122.835938 48.320312 C 122.972656 48.339844 123.617188 48.242188 123.617188 47.578125 C 123.617188 47.1875 123.34375 46.835938 122.875 46.835938 C 122.40625 46.835938 122.132812 47.148438 122.132812 47.617188 C 122.132812 48.730469 123.03125 49.472656 124.574219 49.472656 C 126.820312 49.472656 128.988281 47.089844 128.988281 43.203125 C 128.988281 38.378906 126.976562 37.1875 125.414062 37.1875 C 123.441406 37.1875 121.703125 38.828125 121.703125 41.191406 C 121.703125 43.554688 123.363281 45.175781 125.160156 45.175781 C 126.488281 45.175781 127.171875 44.199219 127.523438 43.300781 Z M 125.21875 44.824219 C 124.105469 44.824219 123.617188 43.90625 123.460938 43.554688 C 123.167969 42.871094 123.167969 42.011719 123.167969 41.210938 C 123.167969 40.214844 123.167969 39.355469 123.636719 38.613281 C 123.949219 38.125 124.4375 37.617188 125.414062 37.617188 C 126.429688 37.617188 126.957031 38.496094 127.132812 38.925781 C 127.484375 39.804688 127.484375 41.328125 127.484375 41.582031 C 127.484375 43.085938 126.800781 44.824219 125.21875 44.824219 Z M 125.21875 44.824219 "/>
<path style=" stroke:none;fill-rule:nonzero;fill:rgb(0%,0%,0%);fill-opacity:1;" d="M 139.261719 44.703125 C 139.261719 37.652344 137.640625 30.5625 133.089844 25.191406 C 132.738281 24.78125 132.054688 24.039062 131.3125 23.394531 C 131.097656 23.179688 131.058594 23.179688 130.804688 23.179688 C 130.589844 23.179688 130.433594 23.179688 130.433594 23.355469 C 130.433594 23.433594 130.511719 23.511719 130.550781 23.550781 C 131.175781 24.195312 132.367188 25.386719 133.578125 27.320312 C 136.46875 31.949219 137.777344 37.789062 137.777344 44.683594 C 137.777344 49.507812 137.132812 55.71875 134.164062 61.070312 C 132.757812 63.609375 131.253906 65.113281 130.511719 65.855469 C 130.472656 65.914062 130.433594 65.972656 130.433594 66.011719 C 130.433594 66.207031 130.589844 66.207031 130.804688 66.207031 C 131.058594 66.207031 131.097656 66.207031 131.371094 65.933594 C 137.367188 60.464844 139.261719 52.242188 139.261719 44.703125 Z M 139.261719 44.703125 "/>
<path style=" stroke:none;fill-rule:nonzero;fill:rgb(0%,0%,0%);fill-opacity:1;" d="M 150.347656 44.628906 C 150.347656 44.101562 149.917969 43.671875 149.410156 43.671875 C 148.882812 43.671875 148.453125 44.101562 148.453125 44.628906 C 148.453125 45.136719 148.882812 45.566406 149.410156 45.566406 C 149.917969 45.566406 150.347656 45.136719 150.347656 44.628906 Z M 150.347656 44.628906 "/>
<path style=" stroke:none;fill-rule:nonzero;fill:rgb(0%,0%,0%);fill-opacity:1;" d="M 164.933594 37.109375 C 164.953125 37.03125 164.992188 36.933594 164.992188 36.835938 C 164.992188 36.660156 164.796875 36.660156 164.757812 36.660156 C 164.757812 36.660156 163.878906 36.738281 163.78125 36.738281 C 163.46875 36.757812 163.214844 36.796875 162.882812 36.816406 C 162.433594 36.855469 162.316406 36.875 162.316406 37.1875 C 162.316406 37.382812 162.453125 37.382812 162.707031 37.382812 C 163.585938 37.382812 163.605469 37.539062 163.605469 37.714844 C 163.605469 37.832031 163.566406 37.96875 163.546875 38.027344 L 162.453125 42.382812 C 162.257812 41.914062 161.769531 41.191406 160.832031 41.191406 C 158.820312 41.191406 156.632812 43.808594 156.632812 46.464844 C 156.632812 48.242188 157.667969 49.277344 158.878906 49.277344 C 159.875 49.277344 160.714844 48.515625 161.222656 47.910156 C 161.398438 48.984375 162.238281 49.277344 162.785156 49.277344 C 163.3125 49.277344 163.742188 48.964844 164.074219 48.320312 C 164.347656 47.695312 164.601562 46.601562 164.601562 46.542969 C 164.601562 46.445312 164.542969 46.367188 164.425781 46.367188 C 164.269531 46.367188 164.25 46.464844 164.171875 46.738281 C 163.898438 47.792969 163.566406 48.925781 162.824219 48.925781 C 162.316406 48.925781 162.277344 48.457031 162.277344 48.105469 C 162.277344 48.027344 162.277344 47.65625 162.394531 47.148438 Z M 161.300781 46.972656 C 161.222656 47.265625 161.222656 47.304688 160.96875 47.65625 C 160.578125 48.144531 159.777344 48.925781 158.9375 48.925781 C 158.214844 48.925781 157.785156 48.261719 157.785156 47.207031 C 157.785156 46.210938 158.351562 44.199219 158.683594 43.457031 C 159.308594 42.207031 160.148438 41.5625 160.832031 41.5625 C 162.023438 41.5625 162.257812 43.027344 162.257812 43.164062 C 162.257812 43.183594 162.199219 43.417969 162.179688 43.457031 Z M 161.300781 46.972656 "/>
<path style=" stroke:none;fill-rule:nonzero;fill:rgb(0%,0%,0%);fill-opacity:1;" d="M 173.554688 41.777344 C 172.988281 41.894531 172.773438 42.324219 172.773438 42.65625 C 172.773438 43.085938 173.105469 43.242188 173.359375 43.242188 C 173.90625 43.242188 174.277344 42.773438 174.277344 42.285156 C 174.277344 41.542969 173.417969 41.191406 172.65625 41.191406 C 171.5625 41.191406 170.957031 42.265625 170.800781 42.617188 C 170.390625 41.269531 169.277344 41.191406 168.945312 41.191406 C 167.128906 41.191406 166.152344 43.535156 166.152344 43.945312 C 166.152344 44.003906 166.230469 44.101562 166.347656 44.101562 C 166.484375 44.101562 166.523438 43.984375 166.5625 43.925781 C 167.167969 41.933594 168.378906 41.5625 168.886719 41.5625 C 169.707031 41.5625 169.863281 42.304688 169.863281 42.734375 C 169.863281 43.125 169.765625 43.535156 169.53125 44.394531 L 168.925781 46.855469 C 168.671875 47.929688 168.144531 48.925781 167.1875 48.925781 C 167.109375 48.925781 166.660156 48.925781 166.269531 48.691406 C 166.914062 48.554688 167.070312 48.027344 167.070312 47.8125 C 167.070312 47.460938 166.796875 47.246094 166.464844 47.246094 C 166.035156 47.246094 165.566406 47.617188 165.566406 48.183594 C 165.566406 48.945312 166.40625 49.277344 167.167969 49.277344 C 168.027344 49.277344 168.652344 48.59375 169.023438 47.871094 C 169.316406 48.925781 170.195312 49.277344 170.859375 49.277344 C 172.695312 49.277344 173.671875 46.933594 173.671875 46.542969 C 173.671875 46.445312 173.59375 46.367188 173.476562 46.367188 C 173.320312 46.367188 173.300781 46.464844 173.261719 46.601562 C 172.773438 48.183594 171.71875 48.925781 170.917969 48.925781 C 170.292969 48.925781 169.960938 48.457031 169.960938 47.714844 C 169.960938 47.324219 170.019531 47.03125 170.3125 45.859375 L 170.9375 43.417969 C 171.210938 42.34375 171.816406 41.5625 172.636719 41.5625 C 172.675781 41.5625 173.183594 41.5625 173.554688 41.777344 Z M 173.554688 41.777344 "/>
<path style=" stroke:none;fill-rule:nonzero;fill:rgb(0%,0%,0%);fill-opacity:1;" d="M 185.109375 44.960938 L 190.070312 44.960938 C 190.324219 44.960938 190.636719 44.960938 190.636719 44.628906 C 190.636719 44.296875 190.324219 44.296875 190.070312 44.296875 L 185.109375 44.296875 L 185.109375 39.355469 C 185.109375 39.101562 185.109375 38.769531 184.796875 38.769531 C 184.445312 38.769531 184.445312 39.082031 184.445312 39.355469 L 184.445312 44.296875 L 179.503906 44.296875 C 179.25 44.296875 178.9375 44.296875 178.9375 44.628906 C 178.9375 44.960938 179.230469 44.960938 179.503906 44.960938 L 184.445312 44.960938 L 184.445312 49.902344 C 184.445312 50.15625 184.445312 50.488281 184.777344 50.488281 C 185.109375 50.488281 185.109375 50.175781 185.109375 49.902344 Z M 185.109375 44.960938 "/>
<path style=" stroke:none;fill-rule:nonzero;fill:rgb(0%,0%,0%);fill-opacity:1;" d="M 260.464844 4.21875 C 260.660156 4.21875 260.894531 4.21875 260.894531 3.984375 C 260.894531 3.730469 260.660156 3.730469 260.484375 3.730469 L 253.023438 3.730469 C 252.847656 3.730469 252.613281 3.730469 252.613281 3.984375 C 252.613281 4.21875 252.847656 4.21875 253.023438 4.21875 Z M 260.484375 6.640625 C 260.660156 6.640625 260.894531 6.640625 260.894531 6.386719 C 260.894531 6.152344 260.660156 6.152344 260.464844 6.152344 L 253.023438 6.152344 C 252.847656 6.152344 252.613281 6.152344 252.613281 6.386719 C 252.613281 6.640625 252.847656 6.640625 253.023438 6.640625 Z M 260.484375 6.640625 "/>
<path style=" stroke:none;fill-rule:nonzero;fill:rgb(0%,0%,0%);fill-opacity:1;" d="M 265.332031 0.332031 C 265.332031 0.0195312 265.332031 0 265.039062 0 C 264.257812 0.800781 263.164062 0.800781 262.773438 0.800781 L 262.773438 1.191406 C 263.027344 1.191406 263.75 1.191406 264.394531 0.859375 L 264.394531 7.324219 C 264.394531 7.773438 264.355469 7.910156 263.242188 7.910156 L 262.851562 7.910156 L 262.851562 8.300781 C 263.28125 8.261719 264.355469 8.261719 264.863281 8.261719 C 265.351562 8.261719 266.445312 8.261719 266.875 8.300781 L 266.875 7.910156 L 266.484375 7.910156 C 265.351562 7.910156 265.332031 7.773438 265.332031 7.324219 Z M 265.332031 0.332031 "/>
<path style=" stroke:none;fill-rule:nonzero;fill:rgb(0%,0%,0%);fill-opacity:1;" d="M 271.632812 0.332031 C 271.632812 0.0195312 271.632812 0 271.339844 0 C 270.558594 0.800781 269.464844 0.800781 269.074219 0.800781 L 269.074219 1.191406 C 269.328125 1.191406 270.050781 1.191406 270.695312 0.859375 L 270.695312 7.324219 C 270.695312 7.773438 270.65625 7.910156 269.542969 7.910156 L 269.152344 7.910156 L 269.152344 8.300781 C 269.582031 8.261719 270.65625 8.261719 271.164062 8.261719 C 271.652344 8.261719 272.746094 8.261719 273.175781 8.300781 L 273.175781 7.910156 L 272.785156 7.910156 C 271.652344 7.910156 271.632812 7.773438 271.632812 7.324219 Z M 271.632812 0.332031 "/>
<path style=" stroke:none;fill-rule:nonzero;fill:rgb(0%,0%,0%);fill-opacity:1;" d="M 202.851562 16.109375 C 202.851562 15.621094 202.851562 15.601562 202.480469 15.601562 C 200.644531 15.601562 196.621094 16.460938 194.179688 20.835938 L 194.179688 21.128906 C 194.179688 21.578125 194.199219 21.578125 194.609375 21.578125 C 194.941406 21.578125 194.960938 21.578125 195.058594 21.441406 C 196.523438 19.097656 199.003906 17.828125 202.636719 17.75 C 202.851562 17.75 202.851562 17.632812 202.851562 17.242188 Z M 202.851562 16.109375 "/>
<path style=" stroke:none;fill-rule:nonzero;fill:rgb(0%,0%,0%);fill-opacity:1;" d="M 202.695312 15.515625 L 254.898438 15.515625 L 254.898438 17.765625 L 202.695312 17.765625 Z M 202.695312 15.515625 "/>
<path style=" stroke:none;fill-rule:nonzero;fill:rgb(0%,0%,0%);fill-opacity:1;" d="M 263.40625 12.222656 C 263.40625 11.773438 263.386719 11.753906 262.976562 11.753906 C 262.644531 11.753906 262.625 11.773438 262.527344 11.910156 C 261.0625 14.253906 258.582031 15.523438 254.949219 15.601562 C 254.734375 15.601562 254.734375 15.71875 254.734375 16.109375 L 254.734375 17.242188 C 254.734375 17.730469 254.734375 17.75 255.105469 17.75 C 256.941406 17.75 260.964844 16.890625 263.40625 12.515625 Z M 263.40625 12.222656 "/>
<path style=" stroke:none;fill-rule:nonzero;fill:rgb(0%,0%,0%);fill-opacity:1;" d="M 271.253906 16.109375 C 271.253906 15.679688 271.253906 15.601562 271 15.601562 C 269.90625 15.582031 268.148438 15.445312 266.527344 14.644531 C 264.59375 13.6875 263.851562 12.554688 263.402344 11.851562 C 263.34375 11.753906 263.246094 11.753906 263.011719 11.753906 C 262.601562 11.753906 262.582031 11.773438 262.582031 12.222656 L 262.582031 12.515625 C 265.023438 16.910156 269.046875 17.75 270.882812 17.75 C 271.253906 17.75 271.253906 17.730469 271.253906 17.242188 Z M 271.253906 16.109375 "/>
<path style=" stroke:none;fill-rule:nonzero;fill:rgb(0%,0%,0%);fill-opacity:1;" d="M 271.09375 15.515625 L 323.296875 15.515625 L 323.296875 17.765625 L 271.09375 17.765625 Z M 271.09375 15.515625 "/>
<path style=" stroke:none;fill-rule:nonzero;fill:rgb(0%,0%,0%);fill-opacity:1;" d="M 331.804688 20.835938 C 329.363281 16.441406 325.339844 15.601562 323.503906 15.601562 C 323.132812 15.601562 323.132812 15.621094 323.132812 16.109375 L 323.132812 17.242188 C 323.132812 17.652344 323.132812 17.75 323.386719 17.75 C 324.480469 17.769531 326.257812 17.90625 327.859375 18.707031 C 329.792969 19.664062 330.535156 20.796875 330.984375 21.5 C 331.042969 21.578125 331.140625 21.578125 331.375 21.578125 C 331.785156 21.578125 331.804688 21.578125 331.804688 21.128906 Z M 331.804688 20.835938 "/>
<path style=" stroke:none;fill-rule:nonzero;fill:rgb(0%,0%,0%);fill-opacity:1;" d="M 196.464844 63.824219 C 197.050781 63.804688 197.34375 63.394531 197.34375 62.964844 C 197.34375 62.359375 196.914062 62.085938 196.484375 62.085938 C 196.054688 62.085938 195.605469 62.339844 195.605469 62.964844 C 195.605469 63.882812 196.503906 64.644531 197.597656 64.644531 C 200.332031 64.644531 201.347656 60.445312 202.617188 55.25 C 204.003906 49.585938 205.175781 43.863281 206.132812 38.101562 C 206.796875 34.292969 207.460938 30.699219 208.066406 28.394531 C 208.28125 27.515625 208.90625 25.191406 209.589844 25.191406 C 210.15625 25.191406 210.605469 25.542969 210.683594 25.601562 C 210.078125 25.640625 209.785156 26.03125 209.785156 26.480469 C 209.785156 27.085938 210.234375 27.359375 210.644531 27.359375 C 211.074219 27.359375 211.523438 27.105469 211.523438 26.460938 C 211.523438 25.503906 210.546875 24.800781 209.570312 24.800781 C 208.203125 24.800781 207.1875 26.753906 206.210938 30.40625 C 206.152344 30.601562 203.710938 39.605469 201.738281 51.34375 C 201.269531 54.078125 200.761719 57.066406 200.175781 59.566406 C 199.84375 60.875 199.023438 64.253906 197.558594 64.253906 C 196.914062 64.253906 196.484375 63.824219 196.464844 63.824219 Z M 196.464844 63.824219 "/>
<path style=" stroke:none;fill-rule:nonzero;fill:rgb(0%,0%,0%);fill-opacity:1;" d="M 214.640625 23.898438 C 214.074219 23.527344 214.015625 23.117188 214.015625 22.902344 C 214.015625 22.140625 214.835938 21.613281 215.714844 21.613281 C 216.613281 21.613281 217.414062 22.257812 217.414062 23.15625 C 217.414062 23.878906 216.925781 24.464844 216.183594 24.894531 Z M 216.457031 25.089844 C 217.355469 24.621094 217.960938 23.976562 217.960938 23.15625 C 217.960938 22.003906 216.867188 21.300781 215.734375 21.300781 C 214.484375 21.300781 213.46875 22.21875 213.46875 23.390625 C 213.46875 23.605469 213.488281 24.171875 214.015625 24.757812 C 214.152344 24.894531 214.621094 25.207031 214.933594 25.421875 C 214.210938 25.792969 213.136719 26.476562 213.136719 27.726562 C 213.136719 29.035156 214.40625 29.875 215.714844 29.875 C 217.121094 29.875 218.3125 28.839844 218.3125 27.511719 C 218.3125 27.0625 218.175781 26.496094 217.6875 25.96875 C 217.453125 25.714844 217.257812 25.597656 216.457031 25.089844 Z M 215.207031 25.617188 L 216.75 26.59375 C 217.101562 26.828125 217.6875 27.199219 217.6875 27.960938 C 217.6875 28.878906 216.75 29.523438 215.734375 29.523438 C 214.660156 29.523438 213.761719 28.761719 213.761719 27.726562 C 213.761719 27.003906 214.152344 26.203125 215.207031 25.617188 Z M 215.207031 25.617188 "/>
<path style=" stroke:none;fill-rule:nonzero;fill:rgb(0%,0%,0%);fill-opacity:1;" d="M 206.300781 61.21875 L 206.300781 60.90625 C 206.300781 57.761719 207.84375 57.3125 208.488281 57.3125 C 208.78125 57.3125 209.308594 57.390625 209.582031 57.820312 C 209.386719 57.820312 208.898438 57.820312 208.898438 58.367188 C 208.898438 58.757812 209.191406 58.953125 209.464844 58.953125 C 209.660156 58.953125 210.050781 58.835938 210.050781 58.347656 C 210.050781 57.605469 209.503906 57 208.46875 57 C 206.867188 57 205.1875 58.601562 205.1875 61.355469 C 205.1875 64.695312 206.632812 65.574219 207.785156 65.574219 C 209.171875 65.574219 210.363281 64.402344 210.363281 62.761719 C 210.363281 61.179688 209.25 59.988281 207.863281 59.988281 C 207.023438 59.988281 206.554688 60.613281 206.300781 61.21875 Z M 207.785156 65.222656 C 207.003906 65.222656 206.632812 64.480469 206.554688 64.285156 C 206.320312 63.699219 206.320312 62.703125 206.320312 62.488281 C 206.320312 61.511719 206.730469 60.261719 207.84375 60.261719 C 208.058594 60.261719 208.625 60.261719 209.015625 61.042969 C 209.230469 61.492188 209.230469 62.136719 209.230469 62.742188 C 209.230469 63.347656 209.230469 63.972656 209.015625 64.421875 C 208.644531 65.164062 208.078125 65.222656 207.785156 65.222656 Z M 207.785156 65.222656 "/>
<path style=" stroke:none;fill-rule:nonzero;fill:rgb(0%,0%,0%);fill-opacity:1;" d="M 228.179688 53.457031 C 228.179688 53.398438 228.179688 53.359375 227.886719 53.066406 C 226.089844 51.25 225.09375 48.300781 225.09375 44.628906 C 225.09375 41.152344 225.933594 38.164062 228.003906 36.054688 C 228.179688 35.878906 228.179688 35.859375 228.179688 35.800781 C 228.179688 35.683594 228.101562 35.664062 228.023438 35.664062 C 227.789062 35.664062 226.324219 36.953125 225.445312 38.710938 C 224.527344 40.507812 224.117188 42.441406 224.117188 44.628906 C 224.117188 46.230469 224.371094 48.359375 225.308594 50.292969 C 226.363281 52.441406 227.828125 53.59375 228.023438 53.59375 C 228.101562 53.59375 228.179688 53.574219 228.179688 53.457031 Z M 228.179688 53.457031 "/>
<path style=" stroke:none;fill-rule:nonzero;fill:rgb(0%,0%,0%);fill-opacity:1;" d="M 241.078125 44.980469 C 241.390625 44.980469 241.703125 44.980469 241.703125 44.628906 C 241.703125 44.257812 241.390625 44.257812 241.078125 44.257812 L 231.371094 44.257812 C 231.078125 44.257812 230.746094 44.257812 230.746094 44.628906 C 230.746094 44.980469 231.078125 44.980469 231.371094 44.980469 Z M 241.078125 44.980469 "/>
<path style=" stroke:none;fill-rule:nonzero;fill:rgb(0%,0%,0%);fill-opacity:1;" d="M 251.707031 41.777344 C 251.140625 41.894531 250.925781 42.324219 250.925781 42.65625 C 250.925781 43.085938 251.257812 43.242188 251.511719 43.242188 C 252.058594 43.242188 252.429688 42.773438 252.429688 42.285156 C 252.429688 41.542969 251.570312 41.191406 250.808594 41.191406 C 249.714844 41.191406 249.109375 42.265625 248.953125 42.617188 C 248.542969 41.269531 247.429688 41.191406 247.097656 41.191406 C 245.28125 41.191406 244.304688 43.535156 244.304688 43.945312 C 244.304688 44.003906 244.382812 44.101562 244.5 44.101562 C 244.636719 44.101562 244.675781 43.984375 244.714844 43.925781 C 245.320312 41.933594 246.53125 41.5625 247.039062 41.5625 C 247.859375 41.5625 248.015625 42.304688 248.015625 42.734375 C 248.015625 43.125 247.917969 43.535156 247.683594 44.394531 L 247.078125 46.855469 C 246.824219 47.929688 246.296875 48.925781 245.339844 48.925781 C 245.261719 48.925781 244.8125 48.925781 244.421875 48.691406 C 245.066406 48.554688 245.222656 48.027344 245.222656 47.8125 C 245.222656 47.460938 244.949219 47.246094 244.617188 47.246094 C 244.1875 47.246094 243.71875 47.617188 243.71875 48.183594 C 243.71875 48.945312 244.558594 49.277344 245.320312 49.277344 C 246.179688 49.277344 246.804688 48.59375 247.175781 47.871094 C 247.46875 48.925781 248.347656 49.277344 249.011719 49.277344 C 250.847656 49.277344 251.824219 46.933594 251.824219 46.542969 C 251.824219 46.445312 251.746094 46.367188 251.628906 46.367188 C 251.472656 46.367188 251.453125 46.464844 251.414062 46.601562 C 250.925781 48.183594 249.871094 48.925781 249.070312 48.925781 C 248.445312 48.925781 248.113281 48.457031 248.113281 47.714844 C 248.113281 47.324219 248.171875 47.03125 248.464844 45.859375 L 249.089844 43.417969 C 249.363281 42.34375 249.96875 41.5625 250.789062 41.5625 C 250.828125 41.5625 251.335938 41.5625 251.707031 41.777344 Z M 251.707031 41.777344 "/>
<path style=" stroke:none;fill-rule:nonzero;fill:rgb(0%,0%,0%);fill-opacity:1;" d="M 264.308594 44.960938 L 269.269531 44.960938 C 269.523438 44.960938 269.835938 44.960938 269.835938 44.628906 C 269.835938 44.296875 269.523438 44.296875 269.269531 44.296875 L 264.308594 44.296875 L 264.308594 39.355469 C 264.308594 39.101562 264.308594 38.769531 263.996094 38.769531 C 263.644531 38.769531 263.644531 39.082031 263.644531 39.355469 L 263.644531 44.296875 L 258.703125 44.296875 C 258.449219 44.296875 258.136719 44.296875 258.136719 44.628906 C 258.136719 44.960938 258.429688 44.960938 258.703125 44.960938 L 263.644531 44.960938 L 263.644531 49.902344 C 263.644531 50.15625 263.644531 50.488281 263.976562 50.488281 C 264.308594 50.488281 264.308594 50.175781 264.308594 49.902344 Z M 264.308594 44.960938 "/>
<path style=" stroke:none;fill-rule:nonzero;fill:rgb(0%,0%,0%);fill-opacity:1;" d="M 279.867188 37.617188 C 279.867188 37.1875 279.867188 37.1875 279.515625 37.1875 C 279.085938 37.65625 278.1875 38.320312 276.351562 38.320312 L 276.351562 38.847656 C 276.761719 38.847656 277.660156 38.847656 278.636719 38.378906 L 278.636719 47.714844 C 278.636719 48.359375 278.578125 48.574219 277.015625 48.574219 L 276.449219 48.574219 L 276.449219 49.101562 C 276.9375 49.0625 278.675781 49.0625 279.261719 49.0625 C 279.847656 49.0625 281.585938 49.0625 282.054688 49.101562 L 282.054688 48.574219 L 281.507812 48.574219 C 279.925781 48.574219 279.867188 48.359375 279.867188 47.714844 Z M 279.867188 37.617188 "/>
<path style=" stroke:none;fill-rule:nonzero;fill:rgb(0%,0%,0%);fill-opacity:1;" d="M 291.449219 46.09375 L 291.058594 46.09375 C 291 46.386719 290.863281 47.382812 290.667969 47.675781 C 290.550781 47.832031 289.535156 47.832031 288.988281 47.832031 L 285.667969 47.832031 C 286.15625 47.421875 287.25 46.269531 287.71875 45.839844 C 290.453125 43.320312 291.449219 42.402344 291.449219 40.625 C 291.449219 38.554688 289.808594 37.1875 287.738281 37.1875 C 285.648438 37.1875 284.4375 38.945312 284.4375 40.488281 C 284.4375 41.40625 285.21875 41.40625 285.277344 41.40625 C 285.648438 41.40625 286.117188 41.132812 286.117188 40.566406 C 286.117188 40.058594 285.785156 39.726562 285.277344 39.726562 C 285.121094 39.726562 285.082031 39.726562 285.023438 39.746094 C 285.375 38.515625 286.332031 37.695312 287.503906 37.695312 C 289.027344 37.695312 289.964844 38.964844 289.964844 40.625 C 289.964844 42.148438 289.085938 43.476562 288.050781 44.628906 L 284.4375 48.671875 L 284.4375 49.101562 L 290.980469 49.101562 Z M 291.449219 46.09375 "/>
<path style=" stroke:none;fill-rule:nonzero;fill:rgb(0%,0%,0%);fill-opacity:1;" d="M 297.46875 44.628906 C 297.46875 43.28125 297.292969 41.054688 296.277344 38.964844 C 295.222656 36.816406 293.757812 35.664062 293.5625 35.664062 C 293.484375 35.664062 293.386719 35.683594 293.386719 35.800781 C 293.386719 35.859375 293.386719 35.878906 293.699219 36.191406 C 295.496094 38.007812 296.492188 40.957031 296.492188 44.628906 C 296.492188 48.105469 295.652344 51.09375 293.582031 53.203125 C 293.386719 53.359375 293.386719 53.398438 293.386719 53.457031 C 293.386719 53.574219 293.484375 53.59375 293.5625 53.59375 C 293.796875 53.59375 295.261719 52.304688 296.140625 50.546875 C 297.058594 48.730469 297.46875 46.796875 297.46875 44.628906 Z M 297.46875 44.628906 "/>
<path style=" stroke:none;fill-rule:nonzero;fill:rgb(0%,0%,0%);fill-opacity:1;" d="M 306.648438 44.628906 C 306.648438 44.101562 306.21875 43.671875 305.710938 43.671875 C 305.183594 43.671875 304.753906 44.101562 304.753906 44.628906 C 304.753906 45.136719 305.183594 45.566406 305.710938 45.566406 C 306.21875 45.566406 306.648438 45.136719 306.648438 44.628906 Z M 306.648438 44.628906 "/>
<path style=" stroke:none;fill-rule:nonzero;fill:rgb(0%,0%,0%);fill-opacity:1;" d="M 321.085938 37.109375 C 321.105469 37.03125 321.144531 36.933594 321.144531 36.835938 C 321.144531 36.660156 320.949219 36.660156 320.910156 36.660156 C 320.910156 36.660156 320.03125 36.738281 319.933594 36.738281 C 319.621094 36.757812 319.367188 36.796875 319.035156 36.816406 C 318.585938 36.855469 318.46875 36.875 318.46875 37.1875 C 318.46875 37.382812 318.605469 37.382812 318.859375 37.382812 C 319.738281 37.382812 319.757812 37.539062 319.757812 37.714844 C 319.757812 37.832031 319.71875 37.96875 319.699219 38.027344 L 318.605469 42.382812 C 318.410156 41.914062 317.921875 41.191406 316.984375 41.191406 C 314.972656 41.191406 312.785156 43.808594 312.785156 46.464844 C 312.785156 48.242188 313.820312 49.277344 315.03125 49.277344 C 316.027344 49.277344 316.867188 48.515625 317.375 47.910156 C 317.550781 48.984375 318.390625 49.277344 318.9375 49.277344 C 319.464844 49.277344 319.894531 48.964844 320.226562 48.320312 C 320.5 47.695312 320.753906 46.601562 320.753906 46.542969 C 320.753906 46.445312 320.695312 46.367188 320.578125 46.367188 C 320.421875 46.367188 320.402344 46.464844 320.324219 46.738281 C 320.050781 47.792969 319.71875 48.925781 318.976562 48.925781 C 318.46875 48.925781 318.429688 48.457031 318.429688 48.105469 C 318.429688 48.027344 318.429688 47.65625 318.546875 47.148438 Z M 317.453125 46.972656 C 317.375 47.265625 317.375 47.304688 317.121094 47.65625 C 316.730469 48.144531 315.929688 48.925781 315.089844 48.925781 C 314.367188 48.925781 313.9375 48.261719 313.9375 47.207031 C 313.9375 46.210938 314.503906 44.199219 314.835938 43.457031 C 315.460938 42.207031 316.300781 41.5625 316.984375 41.5625 C 318.175781 41.5625 318.410156 43.027344 318.410156 43.164062 C 318.410156 43.183594 318.351562 43.417969 318.332031 43.457031 Z M 317.453125 46.972656 "/>
<path style=" stroke:none;fill-rule:nonzero;fill:rgb(0%,0%,0%);fill-opacity:1;" d="M 329.707031 41.777344 C 329.140625 41.894531 328.925781 42.324219 328.925781 42.65625 C 328.925781 43.085938 329.257812 43.242188 329.511719 43.242188 C 330.058594 43.242188 330.429688 42.773438 330.429688 42.285156 C 330.429688 41.542969 329.570312 41.191406 328.808594 41.191406 C 327.714844 41.191406 327.109375 42.265625 326.953125 42.617188 C 326.542969 41.269531 325.429688 41.191406 325.097656 41.191406 C 323.28125 41.191406 322.304688 43.535156 322.304688 43.945312 C 322.304688 44.003906 322.382812 44.101562 322.5 44.101562 C 322.636719 44.101562 322.675781 43.984375 322.714844 43.925781 C 323.320312 41.933594 324.53125 41.5625 325.039062 41.5625 C 325.859375 41.5625 326.015625 42.304688 326.015625 42.734375 C 326.015625 43.125 325.917969 43.535156 325.683594 44.394531 L 325.078125 46.855469 C 324.824219 47.929688 324.296875 48.925781 323.339844 48.925781 C 323.261719 48.925781 322.8125 48.925781 322.421875 48.691406 C 323.066406 48.554688 323.222656 48.027344 323.222656 47.8125 C 323.222656 47.460938 322.949219 47.246094 322.617188 47.246094 C 322.1875 47.246094 321.71875 47.617188 321.71875 48.183594 C 321.71875 48.945312 322.558594 49.277344 323.320312 49.277344 C 324.179688 49.277344 324.804688 48.59375 325.175781 47.871094 C 325.46875 48.925781 326.347656 49.277344 327.011719 49.277344 C 328.847656 49.277344 329.824219 46.933594 329.824219 46.542969 C 329.824219 46.445312 329.746094 46.367188 329.628906 46.367188 C 329.472656 46.367188 329.453125 46.464844 329.414062 46.601562 C 328.925781 48.183594 327.871094 48.925781 327.070312 48.925781 C 326.445312 48.925781 326.113281 48.457031 326.113281 47.714844 C 326.113281 47.324219 326.171875 47.03125 326.464844 45.859375 L 327.089844 43.417969 C 327.363281 42.34375 327.96875 41.5625 328.789062 41.5625 C 328.828125 41.5625 329.335938 41.5625 329.707031 41.777344 Z M 329.707031 41.777344 "/>
<path style=" stroke:none;fill-rule:nonzero;fill:rgb(0%,0%,0%);fill-opacity:1;" d="M 28.527344 137.980469 C 28.839844 137.980469 29.152344 137.980469 29.152344 137.628906 C 29.152344 137.257812 28.839844 137.257812 28.527344 137.257812 L 18.820312 137.257812 C 18.527344 137.257812 18.195312 137.257812 18.195312 137.628906 C 18.195312 137.980469 18.527344 137.980469 18.820312 137.980469 Z M 28.527344 137.980469 "/>
<path style=" stroke:none;fill-rule:nonzero;fill:rgb(0%,0%,0%);fill-opacity:1;" d="M 36.414062 156.671875 C 37 156.652344 37.292969 156.242188 37.292969 155.8125 C 37.292969 155.207031 36.863281 154.933594 36.433594 154.933594 C 36.003906 154.933594 35.554688 155.1875 35.554688 155.8125 C 35.554688 156.730469 36.453125 157.492188 37.546875 157.492188 C 40.28125 157.492188 41.296875 153.292969 42.566406 148.097656 C 43.953125 142.433594 45.125 136.710938 46.082031 130.949219 C 46.746094 127.140625 47.410156 123.546875 48.015625 121.242188 C 48.230469 120.363281 48.855469 118.039062 49.539062 118.039062 C 50.105469 118.039062 50.554688 118.390625 50.632812 118.449219 C 50.027344 118.488281 49.734375 118.878906 49.734375 119.328125 C 49.734375 119.933594 50.183594 120.207031 50.59375 120.207031 C 51.023438 120.207031 51.472656 119.953125 51.472656 119.308594 C 51.472656 118.351562 50.496094 117.648438 49.519531 117.648438 C 48.152344 117.648438 47.136719 119.601562 46.160156 123.253906 C 46.101562 123.449219 43.660156 132.453125 41.6875 144.191406 C 41.21875 146.925781 40.710938 149.914062 40.125 152.414062 C 39.792969 153.722656 38.972656 157.101562 37.507812 157.101562 C 36.863281 157.101562 36.433594 156.671875 36.414062 156.671875 Z M 36.414062 156.671875 "/>
<path style=" stroke:none;fill-rule:nonzero;fill:rgb(0%,0%,0%);fill-opacity:1;" d="M 48.28125 156.097656 L 48.28125 157.171875 C 48.28125 157.621094 48.242188 157.757812 47.324219 157.757812 L 47.070312 157.757812 L 47.070312 158.148438 C 47.578125 158.109375 48.222656 158.109375 48.75 158.109375 C 49.277344 158.109375 49.921875 158.109375 50.449219 158.148438 L 50.449219 157.757812 L 50.175781 157.757812 C 49.257812 157.757812 49.238281 157.621094 49.238281 157.171875 L 49.238281 156.097656 L 50.46875 156.097656 L 50.46875 155.707031 L 49.238281 155.707031 L 49.238281 150.042969 C 49.238281 149.789062 49.238281 149.710938 49.023438 149.710938 C 48.925781 149.710938 48.886719 149.710938 48.789062 149.867188 L 44.960938 155.707031 L 44.960938 156.097656 Z M 48.339844 155.707031 L 45.3125 155.707031 L 48.339844 151.058594 Z M 48.339844 155.707031 "/>
<path style=" stroke:none;fill-rule:nonzero;fill:rgb(0%,0%,0%);fill-opacity:1;" d="M 55.007812 142.179688 C 55.007812 141.125 54.675781 140.363281 53.933594 140.363281 C 53.367188 140.363281 53.074219 140.832031 53.074219 141.222656 C 53.074219 141.613281 53.347656 142.101562 53.953125 142.101562 C 54.1875 142.101562 54.382812 142.023438 54.539062 141.867188 C 54.578125 141.828125 54.597656 141.828125 54.617188 141.828125 C 54.65625 141.828125 54.65625 142.082031 54.65625 142.179688 C 54.65625 142.765625 54.539062 143.9375 53.503906 145.089844 C 53.308594 145.304688 53.308594 145.34375 53.308594 145.382812 C 53.308594 145.480469 53.386719 145.558594 53.484375 145.558594 C 53.621094 145.558594 55.007812 144.230469 55.007812 142.179688 Z M 55.007812 142.179688 "/>
<path style=" stroke:none;fill-rule:nonzero;fill:rgb(0%,0%,0%);fill-opacity:1;" d="M 64.8125 135.636719 C 65.691406 135.148438 67 134.328125 67 132.804688 C 67 131.261719 65.496094 130.1875 63.855469 130.1875 C 62.078125 130.1875 60.671875 131.496094 60.671875 133.117188 C 60.671875 133.722656 60.867188 134.347656 61.355469 134.953125 C 61.550781 135.1875 61.570312 135.207031 62.839844 136.085938 C 61.101562 136.886719 60.203125 138.078125 60.203125 139.386719 C 60.203125 141.300781 62 142.472656 63.835938 142.472656 C 65.828125 142.472656 67.488281 141.007812 67.488281 139.132812 C 67.488281 137.296875 66.199219 136.496094 64.8125 135.636719 Z M 62.371094 134.015625 C 62.136719 133.859375 61.414062 133.390625 61.414062 132.511719 C 61.414062 131.339844 62.625 130.617188 63.835938 130.617188 C 65.125 130.617188 66.277344 131.535156 66.277344 132.824219 C 66.277344 133.917969 65.476562 134.796875 64.441406 135.382812 Z M 63.210938 136.320312 L 65.378906 137.746094 C 65.847656 138.058594 66.667969 138.605469 66.667969 139.699219 C 66.667969 141.066406 65.28125 141.984375 63.855469 141.984375 C 62.332031 141.984375 61.023438 140.890625 61.023438 139.386719 C 61.023438 138 62.039062 136.867188 63.210938 136.320312 Z M 63.210938 136.320312 "/>
<path style=" stroke:none;fill-rule:nonzero;fill:rgb(0%,0%,0%);fill-opacity:1;" d="M 83.867188 158.859375 C 83.867188 158.800781 83.828125 158.761719 83.789062 158.703125 C 83.125 158.039062 81.914062 156.847656 80.722656 154.914062 C 77.832031 150.285156 76.523438 144.445312 76.523438 137.550781 C 76.523438 132.726562 77.167969 126.496094 80.136719 121.164062 C 81.542969 118.605469 83.007812 117.140625 83.808594 116.359375 C 83.867188 116.300781 83.867188 116.261719 83.867188 116.203125 C 83.867188 116.027344 83.730469 116.027344 83.476562 116.027344 C 83.222656 116.027344 83.203125 116.027344 82.929688 116.300781 C 76.914062 121.769531 75.039062 129.972656 75.039062 137.53125 C 75.039062 144.582031 76.660156 151.671875 81.210938 157.042969 C 81.5625 157.453125 82.246094 158.175781 82.988281 158.839844 C 83.203125 159.054688 83.222656 159.054688 83.476562 159.054688 C 83.730469 159.054688 83.867188 159.054688 83.867188 158.859375 Z M 83.867188 158.859375 "/>
<path style=" stroke:none;fill-rule:nonzero;fill:rgb(0%,0%,0%);fill-opacity:1;" d="M 89.011719 123.503906 C 88.699219 123.523438 88.640625 123.542969 88.640625 123.71875 C 88.640625 123.894531 88.71875 123.894531 89.050781 123.894531 L 89.871094 123.894531 C 91.394531 123.894531 92.078125 125.144531 92.078125 126.863281 C 92.078125 129.207031 90.847656 129.832031 89.96875 129.832031 C 89.109375 129.832031 87.644531 129.421875 87.136719 128.25 C 87.703125 128.328125 88.230469 128.015625 88.230469 127.371094 C 88.230469 126.84375 87.839844 126.492188 87.351562 126.492188 C 86.921875 126.492188 86.453125 126.746094 86.453125 127.429688 C 86.453125 129.011719 88.035156 130.320312 90.027344 130.320312 C 92.15625 130.320312 93.738281 128.699219 93.738281 126.882812 C 93.738281 125.242188 92.410156 123.933594 90.691406 123.640625 C 92.253906 123.191406 93.25 121.882812 93.25 120.476562 C 93.25 119.070312 91.785156 118.035156 90.046875 118.035156 C 88.25 118.035156 86.921875 119.128906 86.921875 120.4375 C 86.921875 121.140625 87.488281 121.296875 87.761719 121.296875 C 88.132812 121.296875 88.5625 121.023438 88.5625 120.476562 C 88.5625 119.910156 88.132812 119.65625 87.742188 119.65625 C 87.625 119.65625 87.585938 119.65625 87.546875 119.675781 C 88.230469 118.464844 89.910156 118.464844 89.988281 118.464844 C 90.59375 118.464844 91.746094 118.71875 91.746094 120.476562 C 91.746094 120.828125 91.707031 121.824219 91.179688 122.605469 C 90.632812 123.386719 90.027344 123.445312 89.539062 123.464844 Z M 89.011719 123.503906 "/>
<path style=" stroke:none;fill-rule:nonzero;fill:rgb(0%,0%,0%);fill-opacity:1;" d="M 85.695312 137.164062 L 94.542969 137.164062 L 94.542969 137.917969 L 85.695312 137.917969 Z M 85.695312 137.164062 "/>
<path style=" stroke:none;fill-rule:nonzero;fill:rgb(0%,0%,0%);fill-opacity:1;" d="M 92.175781 142.722656 C 92.175781 142.390625 92.175781 142.292969 91.941406 142.292969 C 91.785156 142.292969 91.726562 142.292969 91.589844 142.507812 L 86.199219 150.886719 L 86.199219 151.414062 L 90.90625 151.414062 L 90.90625 153.035156 C 90.90625 153.699219 90.867188 153.875 89.558594 153.875 L 89.207031 153.875 L 89.207031 154.402344 C 89.617188 154.363281 91.042969 154.363281 91.53125 154.363281 C 92.039062 154.363281 93.464844 154.363281 93.894531 154.402344 L 93.894531 153.875 L 93.523438 153.875 C 92.234375 153.875 92.175781 153.699219 92.175781 153.035156 L 92.175781 151.414062 L 93.992188 151.414062 L 93.992188 150.886719 L 92.175781 150.886719 Z M 91.003906 144.128906 L 91.003906 150.886719 L 86.648438 150.886719 Z M 91.003906 144.128906 "/>
<path style=" stroke:none;fill-rule:nonzero;fill:rgb(0%,0%,0%);fill-opacity:1;" d="M 104.554688 134.777344 C 103.988281 134.894531 103.773438 135.324219 103.773438 135.65625 C 103.773438 136.085938 104.105469 136.242188 104.359375 136.242188 C 104.90625 136.242188 105.277344 135.773438 105.277344 135.285156 C 105.277344 134.542969 104.417969 134.191406 103.65625 134.191406 C 102.5625 134.191406 101.957031 135.265625 101.800781 135.617188 C 101.390625 134.269531 100.277344 134.191406 99.945312 134.191406 C 98.128906 134.191406 97.152344 136.535156 97.152344 136.945312 C 97.152344 137.003906 97.230469 137.101562 97.347656 137.101562 C 97.484375 137.101562 97.523438 136.984375 97.5625 136.925781 C 98.167969 134.933594 99.378906 134.5625 99.886719 134.5625 C 100.707031 134.5625 100.863281 135.304688 100.863281 135.734375 C 100.863281 136.125 100.765625 136.535156 100.53125 137.394531 L 99.925781 139.855469 C 99.671875 140.929688 99.144531 141.925781 98.1875 141.925781 C 98.109375 141.925781 97.660156 141.925781 97.269531 141.691406 C 97.914062 141.554688 98.070312 141.027344 98.070312 140.8125 C 98.070312 140.460938 97.796875 140.246094 97.464844 140.246094 C 97.035156 140.246094 96.566406 140.617188 96.566406 141.183594 C 96.566406 141.945312 97.40625 142.277344 98.167969 142.277344 C 99.027344 142.277344 99.652344 141.59375 100.023438 140.871094 C 100.316406 141.925781 101.195312 142.277344 101.859375 142.277344 C 103.695312 142.277344 104.671875 139.933594 104.671875 139.542969 C 104.671875 139.445312 104.59375 139.367188 104.476562 139.367188 C 104.320312 139.367188 104.300781 139.464844 104.261719 139.601562 C 103.773438 141.183594 102.71875 141.925781 101.917969 141.925781 C 101.292969 141.925781 100.960938 141.457031 100.960938 140.714844 C 100.960938 140.324219 101.019531 140.03125 101.3125 138.859375 L 101.9375 136.417969 C 102.210938 135.34375 102.816406 134.5625 103.636719 134.5625 C 103.675781 134.5625 104.183594 134.5625 104.554688 134.777344 Z M 104.554688 134.777344 "/>
<path style=" stroke:none;fill-rule:nonzero;fill:rgb(0%,0%,0%);fill-opacity:1;" d="M 121.828125 137.980469 C 122.140625 137.980469 122.453125 137.980469 122.453125 137.628906 C 122.453125 137.257812 122.140625 137.257812 121.828125 137.257812 L 112.121094 137.257812 C 111.828125 137.257812 111.496094 137.257812 111.496094 137.628906 C 111.496094 137.980469 111.828125 137.980469 112.121094 137.980469 Z M 121.828125 137.980469 "/>
<path style=" stroke:none;fill-rule:nonzero;fill:rgb(0%,0%,0%);fill-opacity:1;" d="M 135.75 139.09375 L 135.359375 139.09375 C 135.300781 139.386719 135.164062 140.382812 134.96875 140.675781 C 134.851562 140.832031 133.835938 140.832031 133.289062 140.832031 L 129.96875 140.832031 C 130.457031 140.421875 131.550781 139.269531 132.019531 138.839844 C 134.753906 136.320312 135.75 135.402344 135.75 133.625 C 135.75 131.554688 134.109375 130.1875 132.039062 130.1875 C 129.949219 130.1875 128.738281 131.945312 128.738281 133.488281 C 128.738281 134.40625 129.519531 134.40625 129.578125 134.40625 C 129.949219 134.40625 130.417969 134.132812 130.417969 133.566406 C 130.417969 133.058594 130.085938 132.726562 129.578125 132.726562 C 129.421875 132.726562 129.382812 132.726562 129.324219 132.746094 C 129.675781 131.515625 130.632812 130.695312 131.804688 130.695312 C 133.328125 130.695312 134.265625 131.964844 134.265625 133.625 C 134.265625 135.148438 133.386719 136.476562 132.351562 137.628906 L 128.738281 141.671875 L 128.738281 142.101562 L 135.28125 142.101562 Z M 135.75 139.09375 "/>
<path style=" stroke:none;fill-rule:nonzero;fill:rgb(0%,0%,0%);fill-opacity:1;" d="M 146.164062 137.550781 C 146.164062 130.5 144.542969 123.410156 139.992188 118.039062 C 139.640625 117.628906 138.957031 116.886719 138.214844 116.242188 C 138 116.027344 137.960938 116.027344 137.707031 116.027344 C 137.492188 116.027344 137.335938 116.027344 137.335938 116.203125 C 137.335938 116.28125 137.414062 116.359375 137.453125 116.398438 C 138.078125 117.042969 139.269531 118.234375 140.480469 120.167969 C 143.371094 124.796875 144.679688 130.636719 144.679688 137.53125 C 144.679688 142.355469 144.035156 148.566406 141.066406 153.917969 C 139.660156 156.457031 138.15625 157.960938 137.414062 158.703125 C 137.375 158.761719 137.335938 158.820312 137.335938 158.859375 C 137.335938 159.054688 137.492188 159.054688 137.707031 159.054688 C 137.960938 159.054688 138 159.054688 138.273438 158.78125 C 144.269531 153.3125 146.164062 145.089844 146.164062 137.550781 Z M 146.164062 137.550781 "/>
<path style=" stroke:none;fill-rule:nonzero;fill:rgb(0%,0%,0%);fill-opacity:1;" d="M 157.398438 137.628906 C 157.398438 137.101562 156.96875 136.671875 156.460938 136.671875 C 155.933594 136.671875 155.503906 137.101562 155.503906 137.628906 C 155.503906 138.136719 155.933594 138.566406 156.460938 138.566406 C 156.96875 138.566406 157.398438 138.136719 157.398438 137.628906 Z M 157.398438 137.628906 "/>
<path style=" stroke:none;fill-rule:nonzero;fill:rgb(0%,0%,0%);fill-opacity:1;" d="M 171.835938 130.109375 C 171.855469 130.03125 171.894531 129.933594 171.894531 129.835938 C 171.894531 129.660156 171.699219 129.660156 171.660156 129.660156 C 171.660156 129.660156 170.78125 129.738281 170.683594 129.738281 C 170.371094 129.757812 170.117188 129.796875 169.785156 129.816406 C 169.335938 129.855469 169.21875 129.875 169.21875 130.1875 C 169.21875 130.382812 169.355469 130.382812 169.609375 130.382812 C 170.488281 130.382812 170.507812 130.539062 170.507812 130.714844 C 170.507812 130.832031 170.46875 130.96875 170.449219 131.027344 L 169.355469 135.382812 C 169.160156 134.914062 168.671875 134.191406 167.734375 134.191406 C 165.722656 134.191406 163.535156 136.808594 163.535156 139.464844 C 163.535156 141.242188 164.570312 142.277344 165.78125 142.277344 C 166.777344 142.277344 167.617188 141.515625 168.125 140.910156 C 168.300781 141.984375 169.140625 142.277344 169.6875 142.277344 C 170.214844 142.277344 170.644531 141.964844 170.976562 141.320312 C 171.25 140.695312 171.503906 139.601562 171.503906 139.542969 C 171.503906 139.445312 171.445312 139.367188 171.328125 139.367188 C 171.171875 139.367188 171.152344 139.464844 171.074219 139.738281 C 170.800781 140.792969 170.46875 141.925781 169.726562 141.925781 C 169.21875 141.925781 169.179688 141.457031 169.179688 141.105469 C 169.179688 141.027344 169.179688 140.65625 169.296875 140.148438 Z M 168.203125 139.972656 C 168.125 140.265625 168.125 140.304688 167.871094 140.65625 C 167.480469 141.144531 166.679688 141.925781 165.839844 141.925781 C 165.117188 141.925781 164.6875 141.261719 164.6875 140.207031 C 164.6875 139.210938 165.253906 137.199219 165.585938 136.457031 C 166.210938 135.207031 167.050781 134.5625 167.734375 134.5625 C 168.925781 134.5625 169.160156 136.027344 169.160156 136.164062 C 169.160156 136.183594 169.101562 136.417969 169.082031 136.457031 Z M 168.203125 139.972656 "/>
<path style=" stroke:none;fill-rule:nonzero;fill:rgb(0%,0%,0%);fill-opacity:1;" d="M 180.457031 134.777344 C 179.890625 134.894531 179.675781 135.324219 179.675781 135.65625 C 179.675781 136.085938 180.007812 136.242188 180.261719 136.242188 C 180.808594 136.242188 181.179688 135.773438 181.179688 135.285156 C 181.179688 134.542969 180.320312 134.191406 179.558594 134.191406 C 178.464844 134.191406 177.859375 135.265625 177.703125 135.617188 C 177.292969 134.269531 176.179688 134.191406 175.847656 134.191406 C 174.03125 134.191406 173.054688 136.535156 173.054688 136.945312 C 173.054688 137.003906 173.132812 137.101562 173.25 137.101562 C 173.386719 137.101562 173.425781 136.984375 173.464844 136.925781 C 174.070312 134.933594 175.28125 134.5625 175.789062 134.5625 C 176.609375 134.5625 176.765625 135.304688 176.765625 135.734375 C 176.765625 136.125 176.667969 136.535156 176.433594 137.394531 L 175.828125 139.855469 C 175.574219 140.929688 175.046875 141.925781 174.089844 141.925781 C 174.011719 141.925781 173.5625 141.925781 173.171875 141.691406 C 173.816406 141.554688 173.972656 141.027344 173.972656 140.8125 C 173.972656 140.460938 173.699219 140.246094 173.367188 140.246094 C 172.9375 140.246094 172.46875 140.617188 172.46875 141.183594 C 172.46875 141.945312 173.308594 142.277344 174.070312 142.277344 C 174.929688 142.277344 175.554688 141.59375 175.925781 140.871094 C 176.21875 141.925781 177.097656 142.277344 177.761719 142.277344 C 179.597656 142.277344 180.574219 139.933594 180.574219 139.542969 C 180.574219 139.445312 180.496094 139.367188 180.378906 139.367188 C 180.222656 139.367188 180.203125 139.464844 180.164062 139.601562 C 179.675781 141.183594 178.621094 141.925781 177.820312 141.925781 C 177.195312 141.925781 176.863281 141.457031 176.863281 140.714844 C 176.863281 140.324219 176.921875 140.03125 177.214844 138.859375 L 177.839844 136.417969 C 178.113281 135.34375 178.71875 134.5625 179.539062 134.5625 C 179.578125 134.5625 180.085938 134.5625 180.457031 134.777344 Z M 180.457031 134.777344 "/>
<path style=" stroke:none;fill-rule:nonzero;fill:rgb(0%,0%,0%);fill-opacity:1;" d="M 42.804688 163.261719 C 42.804688 162.832031 42.804688 162.753906 42.550781 162.753906 C 41.457031 162.734375 39.699219 162.597656 38.078125 161.796875 C 36.144531 160.839844 35.402344 159.707031 34.953125 159.003906 C 34.894531 158.90625 34.796875 158.90625 34.5625 158.90625 C 34.152344 158.90625 34.132812 158.925781 34.132812 159.375 L 34.132812 159.667969 C 36.574219 164.0625 40.597656 164.902344 42.433594 164.902344 C 42.804688 164.902344 42.804688 164.882812 42.804688 164.394531 Z M 42.804688 163.261719 "/>
<path style=" stroke:none;fill-rule:nonzero;fill:rgb(0%,0%,0%);fill-opacity:1;" d="M 42.648438 162.667969 L 100.246094 162.667969 L 100.246094 164.917969 L 42.648438 164.917969 Z M 42.648438 162.667969 "/>
<path style=" stroke:none;fill-rule:nonzero;fill:rgb(0%,0%,0%);fill-opacity:1;" d="M 108.757812 167.988281 C 106.316406 163.59375 102.292969 162.753906 100.457031 162.753906 C 100.085938 162.753906 100.085938 162.773438 100.085938 163.261719 L 100.085938 164.394531 C 100.085938 164.804688 100.085938 164.902344 100.339844 164.902344 C 101.433594 164.921875 103.210938 165.058594 104.8125 165.859375 C 106.746094 166.816406 107.488281 167.949219 107.9375 168.652344 C 107.996094 168.730469 108.09375 168.730469 108.328125 168.730469 C 108.738281 168.730469 108.757812 168.730469 108.757812 168.28125 Z M 108.757812 167.988281 "/>
<path style=" stroke:none;fill-rule:nonzero;fill:rgb(0%,0%,0%);fill-opacity:1;" d="M 116.601562 163.261719 C 116.601562 162.773438 116.601562 162.753906 116.230469 162.753906 C 114.394531 162.753906 110.371094 163.613281 107.929688 167.988281 L 107.929688 168.28125 C 107.929688 168.730469 107.949219 168.730469 108.359375 168.730469 C 108.691406 168.730469 108.710938 168.730469 108.808594 168.59375 C 110.273438 166.25 112.753906 164.980469 116.386719 164.902344 C 116.601562 164.902344 116.601562 164.785156 116.601562 164.394531 Z M 116.601562 163.261719 "/>
<path style=" stroke:none;fill-rule:nonzero;fill:rgb(0%,0%,0%);fill-opacity:1;" d="M 116.445312 162.667969 L 174.042969 162.667969 L 174.042969 164.917969 L 116.445312 164.917969 Z M 116.445312 162.667969 "/>
<path style=" stroke:none;fill-rule:nonzero;fill:rgb(0%,0%,0%);fill-opacity:1;" d="M 182.554688 159.375 C 182.554688 158.925781 182.535156 158.90625 182.125 158.90625 C 181.792969 158.90625 181.773438 158.925781 181.675781 159.0625 C 180.210938 161.40625 177.730469 162.675781 174.097656 162.753906 C 173.882812 162.753906 173.882812 162.871094 173.882812 163.261719 L 173.882812 164.394531 C 173.882812 164.882812 173.882812 164.902344 174.253906 164.902344 C 176.089844 164.902344 180.113281 164.042969 182.554688 159.667969 Z M 182.554688 159.375 "/>
<path style=" stroke:none;fill-rule:nonzero;fill:rgb(0%,0%,0%);fill-opacity:1;" d="M 105.816406 175.667969 C 106.011719 175.667969 106.246094 175.667969 106.246094 175.433594 C 106.246094 175.179688 106.011719 175.179688 105.835938 175.179688 L 98.375 175.179688 C 98.199219 175.179688 97.964844 175.179688 97.964844 175.433594 C 97.964844 175.667969 98.199219 175.667969 98.375 175.667969 Z M 105.835938 178.089844 C 106.011719 178.089844 106.246094 178.089844 106.246094 177.835938 C 106.246094 177.601562 106.011719 177.601562 105.816406 177.601562 L 98.375 177.601562 C 98.199219 177.601562 97.964844 177.601562 97.964844 177.835938 C 97.964844 178.089844 98.199219 178.089844 98.375 178.089844 Z M 105.835938 178.089844 "/>
<path style=" stroke:none;fill-rule:nonzero;fill:rgb(0%,0%,0%);fill-opacity:1;" d="M 110.683594 171.78125 C 110.683594 171.46875 110.683594 171.449219 110.390625 171.449219 C 109.609375 172.25 108.515625 172.25 108.125 172.25 L 108.125 172.640625 C 108.378906 172.640625 109.101562 172.640625 109.746094 172.308594 L 109.746094 178.773438 C 109.746094 179.222656 109.707031 179.359375 108.59375 179.359375 L 108.203125 179.359375 L 108.203125 179.75 C 108.632812 179.710938 109.707031 179.710938 110.214844 179.710938 C 110.703125 179.710938 111.796875 179.710938 112.226562 179.75 L 112.226562 179.359375 L 111.835938 179.359375 C 110.703125 179.359375 110.683594 179.222656 110.683594 178.773438 Z M 110.683594 171.78125 "/>
<path style=" stroke:none;fill-rule:nonzero;fill:rgb(0%,0%,0%);fill-opacity:1;" d="M 119.03125 175.765625 C 119.03125 174.769531 118.972656 173.773438 118.542969 172.855469 C 117.976562 171.644531 116.941406 171.449219 116.433594 171.449219 C 115.671875 171.449219 114.773438 171.78125 114.246094 172.933594 C 113.855469 173.792969 113.796875 174.769531 113.796875 175.765625 C 113.796875 176.703125 113.835938 177.816406 114.363281 178.773438 C 114.890625 179.769531 115.808594 180.023438 116.414062 180.023438 C 117.078125 180.023438 118.035156 179.769531 118.582031 178.578125 C 118.972656 177.71875 119.03125 176.742188 119.03125 175.765625 Z M 116.414062 179.75 C 115.925781 179.75 115.183594 179.4375 114.96875 178.246094 C 114.832031 177.503906 114.832031 176.351562 114.832031 175.609375 C 114.832031 174.808594 114.832031 173.988281 114.929688 173.324219 C 115.164062 171.839844 116.101562 171.722656 116.414062 171.722656 C 116.824219 171.722656 117.644531 171.957031 117.878906 173.1875 C 118.015625 173.890625 118.015625 174.828125 118.015625 175.609375 C 118.015625 176.546875 118.015625 177.386719 117.878906 178.1875 C 117.683594 179.378906 116.980469 179.75 116.414062 179.75 Z M 116.414062 179.75 "/>
<path style=" stroke:none;fill-rule:nonzero;fill:rgb(0%,0%,0%);fill-opacity:1;" d="M 29.871094 195.550781 C 30.125 195.550781 30.4375 195.550781 30.4375 195.21875 C 30.4375 194.886719 30.125 194.886719 29.871094 194.886719 L 19.304688 194.886719 C 19.050781 194.886719 18.738281 194.886719 18.738281 195.199219 C 18.738281 195.550781 19.03125 195.550781 19.304688 195.550781 Z M 29.871094 198.871094 C 30.125 198.871094 30.4375 198.871094 30.4375 198.558594 C 30.4375 198.207031 30.125 198.207031 29.871094 198.207031 L 19.304688 198.207031 C 19.050781 198.207031 18.738281 198.207031 18.738281 198.539062 C 18.738281 198.871094 19.03125 198.871094 19.304688 198.871094 Z M 29.871094 198.871094 "/>
<path style=" stroke:none;fill-rule:nonzero;fill:rgb(0%,0%,0%);fill-opacity:1;" d="M 42.921875 196.136719 C 42.921875 200.375 41.046875 201.234375 39.972656 201.234375 C 39.523438 201.234375 38.585938 201.195312 38.136719 200.570312 L 38.234375 200.570312 C 38.371094 200.589844 39.015625 200.492188 39.015625 199.828125 C 39.015625 199.4375 38.742188 199.085938 38.273438 199.085938 C 37.804688 199.085938 37.53125 199.398438 37.53125 199.867188 C 37.53125 200.980469 38.429688 201.722656 39.972656 201.722656 C 42.21875 201.722656 44.386719 199.339844 44.386719 195.453125 C 44.386719 190.628906 42.375 189.4375 40.8125 189.4375 C 38.839844 189.4375 37.101562 191.078125 37.101562 193.441406 C 37.101562 195.804688 38.761719 197.425781 40.558594 197.425781 C 41.886719 197.425781 42.570312 196.449219 42.921875 195.550781 Z M 40.617188 197.074219 C 39.503906 197.074219 39.015625 196.15625 38.859375 195.804688 C 38.566406 195.121094 38.566406 194.261719 38.566406 193.460938 C 38.566406 192.464844 38.566406 191.605469 39.035156 190.863281 C 39.347656 190.375 39.835938 189.867188 40.8125 189.867188 C 41.828125 189.867188 42.355469 190.746094 42.53125 191.175781 C 42.882812 192.054688 42.882812 193.578125 42.882812 193.832031 C 42.882812 195.335938 42.199219 197.074219 40.617188 197.074219 Z M 40.617188 197.074219 "/>
<path style=" stroke:none;fill-rule:nonzero;fill:rgb(0%,0%,0%);fill-opacity:1;" d="M 56.925781 193.675781 C 55.792969 193.148438 54.816406 193.128906 54.40625 193.128906 C 53.996094 193.128906 51.496094 193.128906 51.496094 195.453125 C 51.496094 196.234375 51.925781 196.78125 52.199219 197.035156 C 52.84375 197.582031 53.292969 197.679688 54.347656 197.894531 C 54.953125 198.011719 55.988281 198.226562 55.988281 199.183594 C 55.988281 200.414062 54.582031 200.414062 54.328125 200.414062 C 53.625 200.414062 52.570312 200.21875 51.613281 199.515625 L 51.398438 200.746094 C 51.476562 200.804688 52.707031 201.527344 54.347656 201.527344 C 56.671875 201.527344 57.21875 200.140625 57.21875 199.066406 C 57.21875 198.167969 56.671875 197.582031 56.59375 197.503906 C 55.929688 196.820312 55.382812 196.703125 54.308594 196.488281 C 53.644531 196.371094 52.746094 196.195312 52.746094 195.296875 C 52.746094 194.183594 53.996094 194.183594 54.230469 194.183594 C 55.167969 194.183594 55.929688 194.398438 56.710938 194.847656 Z M 56.925781 193.675781 "/>
<path style=" stroke:none;fill-rule:nonzero;fill:rgb(0%,0%,0%);fill-opacity:1;" d="M 65.238281 193.207031 L 63.910156 193.207031 L 63.910156 194.359375 C 63.441406 193.8125 62.660156 193.207031 61.566406 193.207031 C 59.808594 193.207031 58.285156 194.984375 58.285156 197.386719 C 58.285156 199.671875 59.613281 201.527344 61.292969 201.527344 C 62.679688 201.527344 63.636719 200.707031 63.890625 200.433594 L 63.890625 204.828125 L 65.238281 204.828125 Z M 63.910156 198.851562 C 63.910156 199.203125 63.910156 199.222656 63.714844 199.496094 C 63.226562 200.21875 62.582031 200.453125 62.054688 200.453125 C 60.707031 200.453125 59.652344 199.046875 59.652344 197.386719 C 59.652344 195.550781 60.941406 194.320312 62.210938 194.320312 C 63.363281 194.320312 63.910156 195.492188 63.910156 196.214844 Z M 63.910156 198.851562 "/>
<path style=" stroke:none;fill-rule:nonzero;fill:rgb(0%,0%,0%);fill-opacity:1;" d="M 69.824219 199.90625 L 68.359375 199.90625 L 68.359375 201.351562 L 69.824219 201.351562 Z M 69.824219 199.90625 "/>
<path style=" stroke:none;fill-rule:nonzero;fill:rgb(0%,0%,0%);fill-opacity:1;" d="M 87.007812 193.382812 L 85.640625 193.382812 L 85.640625 198.519531 C 85.640625 199.886719 84.703125 200.550781 83.53125 200.550781 C 82.28125 200.550781 82.144531 200.082031 82.144531 199.28125 L 82.144531 193.382812 L 80.796875 193.382812 L 80.796875 199.359375 C 80.796875 200.648438 81.207031 201.527344 82.671875 201.527344 C 83.179688 201.527344 84.585938 201.449219 85.679688 200.453125 L 85.679688 201.351562 L 87.007812 201.351562 Z M 87.007812 193.382812 "/>
<path style=" stroke:none;fill-rule:nonzero;fill:rgb(0%,0%,0%);fill-opacity:1;" d="M 96.007812 195.960938 C 96.007812 194.867188 95.773438 193.207031 93.605469 193.207031 C 92.609375 193.207031 91.75 193.65625 91.066406 194.515625 L 91.066406 193.304688 L 89.796875 193.304688 L 89.796875 201.351562 L 91.144531 201.351562 L 91.144531 196.878906 C 91.144531 195.785156 91.574219 194.28125 92.921875 194.28125 C 94.601562 194.28125 94.640625 195.453125 94.640625 196.078125 L 94.640625 201.351562 L 96.007812 201.351562 Z M 96.007812 195.960938 "/>
<path style=" stroke:none;fill-rule:nonzero;fill:rgb(0%,0%,0%);fill-opacity:1;" d="M 100.242188 189.183594 L 98.699219 189.183594 L 98.699219 190.726562 L 100.242188 190.726562 Z M 100.144531 193.382812 L 98.816406 193.382812 L 98.816406 201.351562 L 100.144531 201.351562 Z M 100.144531 193.382812 "/>
<path style=" stroke:none;fill-rule:nonzero;fill:rgb(0%,0%,0%);fill-opacity:1;" d="M 104.675781 194.4375 L 107.15625 194.4375 L 107.15625 193.382812 L 104.675781 193.382812 L 104.675781 191.117188 L 103.445312 191.117188 L 103.445312 193.382812 L 101.941406 193.382812 L 101.941406 194.4375 L 103.40625 194.4375 L 103.40625 199.261719 C 103.40625 200.296875 103.640625 201.527344 104.871094 201.527344 C 106.082031 201.527344 106.902344 201.117188 107.449219 200.824219 L 107.175781 199.789062 C 106.550781 200.355469 105.886719 200.414062 105.574219 200.414062 C 104.773438 200.414062 104.675781 199.574219 104.675781 198.949219 Z M 104.675781 194.4375 "/>
<path style=" stroke:none;fill-rule:nonzero;fill:rgb(0%,0%,0%);fill-opacity:1;" d="M 113.925781 193.675781 C 112.792969 193.148438 111.816406 193.128906 111.40625 193.128906 C 110.996094 193.128906 108.496094 193.128906 108.496094 195.453125 C 108.496094 196.234375 108.925781 196.78125 109.199219 197.035156 C 109.84375 197.582031 110.292969 197.679688 111.347656 197.894531 C 111.953125 198.011719 112.988281 198.226562 112.988281 199.183594 C 112.988281 200.414062 111.582031 200.414062 111.328125 200.414062 C 110.625 200.414062 109.570312 200.21875 108.613281 199.515625 L 108.398438 200.746094 C 108.476562 200.804688 109.707031 201.527344 111.347656 201.527344 C 113.671875 201.527344 114.21875 200.140625 114.21875 199.066406 C 114.21875 198.167969 113.671875 197.582031 113.59375 197.503906 C 112.929688 196.820312 112.382812 196.703125 111.308594 196.488281 C 110.644531 196.371094 109.746094 196.195312 109.746094 195.296875 C 109.746094 194.183594 110.996094 194.183594 111.230469 194.183594 C 112.167969 194.183594 112.929688 194.398438 113.710938 194.847656 Z M 113.925781 193.675781 "/>
</g>
</svg>
