<?xml version="1.0" encoding="UTF-8" standalone="no"?>
<!-- Created with Inkscape (http://www.inkscape.org/) -->

<svg
   xmlns:ns0="http://www.iki.fi/pav/software/textext/"
   xmlns:dc="http://purl.org/dc/elements/1.1/"
   xmlns:cc="http://creativecommons.org/ns#"
   xmlns:rdf="http://www.w3.org/1999/02/22-rdf-syntax-ns#"
   xmlns:svg="http://www.w3.org/2000/svg"
   xmlns="http://www.w3.org/2000/svg"
   xmlns:sodipodi="http://sodipodi.sourceforge.net/DTD/sodipodi-0.dtd"
   xmlns:inkscape="http://www.inkscape.org/namespaces/inkscape"
   width="500"
   height="575.80615"
   id="svg6973"
   version="1.1"
   inkscape:version="0.48.3.1 r9886"
   sodipodi:docname="New document 9">
  <sodipodi:namedview
     id="base"
     pagecolor="#ffffff"
     bordercolor="#666666"
     borderopacity="1.0"
     inkscape:pageopacity="0.0"
     inkscape:pageshadow="2"
     inkscape:zoom="0.38579874"
     inkscape:cx="236.40438"
     inkscape:cy="149.20154"
     inkscape:document-units="px"
     inkscape:current-layer="layer1"
     showgrid="false"
     inkscape:window-width="822"
     inkscape:window-height="601"
     inkscape:window-x="133"
     inkscape:window-y="82"
     inkscape:window-maximized="0"
     fit-margin-top="0"
     fit-margin-left="0"
     fit-margin-right="0"
     fit-margin-bottom="0"
     showborder="false"
     inkscape:showpageshadow="false" />
  <defs
     id="defs6975">
    <marker
       inkscape:stockid="Arrow1Mend"
       orient="auto"
       refY="0"
       refX="0"
       id="Arrow1Mend"
       style="overflow:visible">
      <path
         id="path7553"
         d="M 0,0 5,-5 -12.5,0 5,5 0,0 z"
         style="fill-rule:evenodd;stroke:#000000;stroke-width:1pt"
         transform="matrix(-0.4,0,0,-0.4,-4,0)"
         inkscape:connector-curvature="0" />
    </marker>
    <marker
       inkscape:stockid="Arrow1Mstart"
       orient="auto"
       refY="0"
       refX="0"
       id="Arrow1Mstart"
       style="overflow:visible">
      <path
         id="path7550"
         d="M 0,0 5,-5 -12.5,0 5,5 0,0 z"
         style="fill-rule:evenodd;stroke:#000000;stroke-width:1pt"
         transform="matrix(0.4,0,0,0.4,4,0)"
         inkscape:connector-curvature="0" />
    </marker>
    <inkscape:perspective
       id="perspective6981"
       inkscape:persp3d-origin="372.04724 : 350.78739 : 1"
       inkscape:vp_z="744.09448 : 526.18109 : 1"
       inkscape:vp_y="0 : 1000 : 0"
       inkscape:vp_x="0 : 526.18109 : 1"
       sodipodi:type="inkscape:persp3d" />
  </defs>
  <metadata
     id="metadata6978">
    <rdf:RDF>
      <cc:Work
         rdf:about="">
        <dc:format>image/svg+xml</dc:format>
        <dc:type
           rdf:resource="http://purl.org/dc/dcmitype/StillImage" />
        <dc:title></dc:title>
      </cc:Work>
    </rdf:RDF>
  </metadata>
  <g
     id="layer1"
     inkscape:groupmode="layer"
     inkscape:label="Layer 1"
     transform="translate(-135.64287,-99.576476)">
    <path
       id="path7517"
       title="2*cos(t)  2*sin(t)"
       d="m 137.0051,349.57648 497.27554,0 m -248.63777,248.63777 0,-497.27554 m 165.75851,248.63777 c -1.1e-4,-3.50671 -0.11142,-7.0134 -0.33372,-10.51305 -0.2223,-3.49966 -0.55602,-6.99222 -0.99983,-10.47073 -0.44382,-3.4785 -0.99838,-6.94287 -1.66192,-10.38622 -0.66354,-3.44336 -1.43671,-6.86558 -2.3173,-10.25992 -0.8806,-3.39434 -1.86926,-6.76063 -2.96336,-10.09228 -1.09411,-3.33165 -2.29428,-6.62846 -3.59749,-9.88402 -1.30321,-3.25555 -2.71007,-6.4696 -4.21713,-9.63595 -1.50706,-3.16634 -3.11493,-6.28469 -4.81979,-9.34908 -1.70485,-3.06438 -3.50726,-6.07448 -5.40304,-9.02457 -1.89577,-2.95009 -3.88547,-5.83981 -5.96453,-8.66372 -2.07906,-2.82391 -4.24803,-5.58161 -6.50201,-8.26798 -2.25398,-2.68636 -4.59349,-5.30095 -7.01331,-7.83895 -2.41982,-2.538 -4.92045,-4.99895 -7.49637,-7.37836 -2.57592,-2.37941 -5.22759,-4.67681 -7.94924,-6.88805 -2.72164,-2.21125 -5.51369,-4.33584 -8.3701,-6.37002 -2.85641,-2.03418 -5.77758,-3.97741 -8.75726,-5.82632 -2.97968,-1.84892 -6.01821,-3.60297 -9.10916,-5.25918 -3.09094,-1.65621 -6.23461,-3.21401 -9.42438,-4.67085 -3.18976,-1.45684 -6.4259,-2.81211 -9.70164,-4.06371 -3.27574,-1.2516 -6.59132,-2.3989 -9.93985,-3.44022 -3.34853,-1.04131 -6.7302,-1.97602 -10.13803,-2.80286 -3.40783,-0.82685 -6.84198,-1.54519 -10.29539,-2.15423 -3.45341,-0.60904 -6.9262,-1.10813 -10.41128,-1.49692 -3.48509,-0.38878 -6.98254,-0.66661 -10.48527,-0.83358 -3.50273,-0.16696 -7.01076,-0.2224 -10.51703,-0.16688 -3.50626,0.0555 -7.01075,0.22269 -10.50644,0.50048 -3.49568,0.2778 -6.98251,0.66689 -10.45354,1.16584 -3.47102,0.49895 -6.92615,1.1084 -10.35855,1.82649 -3.43239,0.71809 -6.84191,1.54546 -10.22185,2.4798 -3.37994,0.93433 -6.73012,1.97628 -10.044,3.12311 -3.31388,1.14682 -6.59123,2.39916 -9.82569,3.75385 -3.23447,1.3547 -6.4258,2.81237 -9.56783,4.36948 -3.14204,1.55712 -6.23449,3.21426 -9.27144,4.96752 -3.03695,1.75325 -6.01807,3.6032 -8.93771,5.54554 -2.91963,1.94234 -5.77742,3.97763 -8.56799,6.10124 -2.79057,2.12361 -5.51352,4.33605 -8.16378,6.63237 -2.65027,2.29632 -5.22741,4.67702 -7.72669,7.1368 -2.49929,2.45979 -4.92025,4.99914 -7.2585,7.61249 -2.33824,2.61335 -4.59327,5.30114 -6.76106,8.05753 -2.16779,2.75638 -4.24781,5.58178 -6.23642,8.47011 -1.9886,2.88833 -3.88523,5.83996 -5.68665,8.8486 -1.80141,3.00864 -3.50702,6.07462 -5.11398,9.19145 -1.60697,3.11684 -3.11469,6.28482 -4.52074,9.4973 -1.40604,3.21248 -2.7098,6.46971 -3.90927,9.7649 -1.19947,3.29519 -2.29402,6.62855 -3.28208,9.99318 -0.98806,3.36463 -1.86899,6.7607 -2.64166,10.18122 -0.77267,3.42052 -1.43644,6.86563 -1.99061,10.32827 -0.55418,3.46264 -0.9981,6.94292 -1.33155,10.43373 -0.33344,3.49082 -0.55574,6.99224 -0.66711,10.49717 -0.11137,3.50494 -0.11115,7.01341 0,10.51836 0.11115,3.50494 0.33389,7.00633 0.66711,10.49717 0.33323,3.49084 0.77759,6.97105 1.33155,10.43373 0.55395,3.46267 1.21815,6.9077 1.99061,10.32827 0.77245,3.42057 1.65381,6.81653 2.64166,10.18122 0.98785,3.36469 2.08282,6.69792 3.28208,9.99318 1.19926,3.29526 2.50343,6.55233 3.90927,9.7649 1.40585,3.21257 2.91397,6.38036 4.52074,9.4973 1.60676,3.11693 3.31277,6.1827 5.11398,9.19145 1.80122,3.00875 3.69823,5.96015 5.68665,8.8486 1.98842,2.88845 4.0688,5.71359 6.23642,8.47011 2.16761,2.75653 4.42298,5.44403 6.76106,8.05753 2.33808,2.6135 4.75937,5.15254 7.2585,7.61249 2.49913,2.45994 5.07657,4.84031 7.72669,7.1368 2.65012,2.29648 5.37334,4.50859 8.16378,6.63237 2.79043,2.12378 5.64848,4.15871 8.56799,6.10124 2.91952,1.94253 5.90087,3.79209 8.93771,5.54554 3.03684,1.75345 6.1295,3.41021 9.27144,4.96752 3.14194,1.55731 6.33344,3.01458 9.56783,4.36948 3.23438,1.3549 6.51189,2.60681 9.82569,3.75385 3.3138,1.14704 6.66412,2.18856 10.044,3.12311 3.37988,0.93456 6.7895,1.76149 10.22185,2.4798 3.43235,0.7183 6.88756,1.32732 10.35855,1.82649 3.471,0.49917 6.95788,0.88782 10.45354,1.16584 3.49567,0.27801 7.00018,0.44473 10.50644,0.50048 3.50626,0.0557 7.01429,-1.4e-4 10.51703,-0.16688 3.50274,-0.16675 7.00015,-0.44502 10.48527,-0.83358 3.48511,-0.38857 6.95783,-0.8881 10.41128,-1.49692 3.45345,-0.60882 6.88751,-1.3276 10.29539,-2.15423 3.40788,-0.82663 6.78944,-1.76176 10.13803,-2.80286 3.34859,-1.04111 6.66403,-2.18883 9.93985,-3.44022 3.27582,-1.25139 6.51179,-2.60708 9.70164,-4.06371 3.18986,-1.45664 6.33333,-3.01483 9.42438,-4.67085 3.09105,-1.65602 6.12936,-3.41045 9.10916,-5.25918 2.97979,-1.84873 5.90072,-3.79232 8.75726,-5.82632 2.85654,-2.034 5.64832,-4.15894 8.3701,-6.37002 2.72179,-2.21107 5.37317,-4.5088 7.94924,-6.88805 2.57607,-2.37925 5.07638,-4.84051 7.49637,-7.37836 2.41998,-2.53784 4.75916,-5.15273 7.01331,-7.83895 2.25415,-2.68622 4.42277,-5.4442 6.50201,-8.26798 2.07924,-2.82378 4.06857,-5.71375 5.96453,-8.66372 1.89597,-2.94997 3.698,-5.96029 5.40304,-9.02457 1.70505,-3.06428 3.31253,-6.18283 4.81979,-9.34908 1.50727,-3.16625 2.91371,-6.38048 4.21713,-9.63595 1.30341,-3.25548 2.50317,-6.55244 3.59749,-9.88402 1.09431,-3.33158 2.08255,-6.698 2.96336,-10.09228 0.88081,-3.39429 1.65354,-6.8166 2.3173,-10.25992 0.66376,-3.44331 1.21788,-6.90774 1.66192,-10.38622 0.44403,-3.47848 0.77731,-6.97109 0.99983,-10.47073 0.22252,-3.49963 0.33361,-7.00634 0.33372,-10.51305"
       style="fill:none;stroke:#000000;stroke-width:2.72446895;stroke-linecap:round;stroke-linejoin:round;stroke-miterlimit:4;stroke-opacity:1;stroke-dasharray:none;stroke-dashoffset:0"
       inkscape:connector-curvature="0" />
    <path
       sodipodi:type="arc"
       style="fill:#e6e6e6;stroke:#000000;stroke-width:3;stroke-linecap:round;stroke-linejoin:round;stroke-miterlimit:4;stroke-opacity:1;stroke-dasharray:none;stroke-dashoffset:0"
       id="path7524"
       sodipodi:cx="395.71429"
       sodipodi:cy="233.79076"
       sodipodi:rx="110"
       sodipodi:ry="10"
       d="m 505.71429,233.79076 c 0,5.52284 -49.24867,10 -110,10 -60.75132,0 -110,-4.47716 -110,-10 0,-5.52285 49.24868,-10 110,-10 60.75133,0 110,4.47715 110,10 z"
       transform="matrix(1.0825523,0,0,1,-41.747866,0)" />
    <path
       transform="matrix(1.0825523,0,0,1,-41.747866,231.42857)"
       d="m 505.71429,233.79076 c 0,5.52284 -49.24867,10 -110,10 -60.75132,0 -110,-4.47716 -110,-10 0,-5.52285 49.24868,-10 110,-10 60.75133,0 110,4.47715 110,10 z"
       sodipodi:ry="10"
       sodipodi:rx="110"
       sodipodi:cy="233.79076"
       sodipodi:cx="395.71429"
       id="path7526"
       style="fill:#e6e6e6;stroke:#000000;stroke-width:3;stroke-linecap:round;stroke-linejoin:round;stroke-miterlimit:4;stroke-opacity:1;stroke-dasharray:none;stroke-dashoffset:0"
       sodipodi:type="arc" />
    <path
       style="color:#000000;fill:#000000;stroke:#000000;stroke-width:2.9677124;stroke-linecap:butt;stroke-linejoin:round;stroke-miterlimit:4;stroke-opacity:1;stroke-dasharray:none;stroke-dashoffset:0;marker:none;visibility:visible;display:inline;overflow:visible;enable-background:accumulate"
       d="m 268.47291,234.68525 2.46306,227.77544"
       id="path7532"
       inkscape:connector-curvature="0" />
    <path
       style="color:#000000;fill:none;stroke:#000000;stroke-width:3;stroke-linecap:butt;stroke-linejoin:round;stroke-miterlimit:4;stroke-opacity:1;stroke-dasharray:none;stroke-dashoffset:0;marker:none;visibility:visible;display:inline;overflow:visible;enable-background:accumulate"
       d="m 503.69459,237.09124 1.23153,231.5271"
       id="path7534"
       inkscape:connector-curvature="0" />
    <path
       style="color:#000000;fill:none;stroke:#000000;stroke-width:2;stroke-linecap:butt;stroke-linejoin:round;stroke-miterlimit:4;stroke-opacity:0.39215686;stroke-dasharray:4, 2;stroke-dashoffset:0;marker:none;marker-start:url(#Arrow1Mstart);marker-end:url(#Arrow1Mend);visibility:visible;display:inline;overflow:visible;enable-background:accumulate"
       d="m 390.3941,201.37695 112.06896,1.23152"
       id="path7538"
       inkscape:connector-curvature="0" />
    <path
       style="color:#000000;fill:none;stroke:#000000;stroke-width:2;stroke-linecap:butt;stroke-linejoin:round;stroke-miterlimit:4;stroke-opacity:0.39215686;stroke-dasharray:4, 2;stroke-dashoffset:0;marker:none;marker-start:url(#Arrow1Mstart);marker-end:url(#Arrow1Mend);visibility:visible;display:inline;overflow:visible;enable-background:accumulate"
       d="m 357.14286,235.8597 0,222.90641"
       id="path8170"
       inkscape:connector-curvature="0" />
    <path
       inkscape:connector-curvature="0"
       id="path8724"
       d="m 394.08868,366.40158 148.57831,1.23152"
       style="color:#000000;fill:none;stroke:#000000;stroke-width:2.30284667;stroke-linecap:butt;stroke-linejoin:round;stroke-miterlimit:4;stroke-opacity:0.39215686;stroke-dasharray:4.60569334, 2.30284667;stroke-dashoffset:0;marker:none;marker-start:url(#Arrow1Mstart);marker-end:url(#Arrow1Mend);visibility:visible;display:inline;overflow:visible;enable-background:accumulate" />
    <path
       style="color:#000000;fill:none;stroke:#000000;stroke-width:2;stroke-linecap:butt;stroke-linejoin:round;stroke-miterlimit:4;stroke-opacity:0.39215686;stroke-dasharray:none;stroke-dashoffset:0;marker:none;visibility:visible;display:inline;overflow:visible;enable-background:accumulate"
       d="M 386.69951,349.1602 504.92612,234.62818"
       id="path8726"
       inkscape:connector-curvature="0" />
    <g
       transform="matrix(0.64272428,0,0,0.64272428,229.25117,114.38253)"
       id="g8747">
      <g
         style="font-style:normal;font-variant:normal;font-weight:normal;font-stretch:normal;letter-spacing:normal;word-spacing:normal;text-anchor:start;fill:none;stroke:#000000;stroke-linecap:butt;stroke-linejoin:miter;stroke-miterlimit:10.43299961;stroke-opacity:1;stroke-dasharray:none;stroke-dashoffset:0"
         id="content"
         transform="matrix(1.0629921,0,0,-1.0629921,-186.02362,789.27165)"
         xml:space="preserve"
         stroke-miterlimit="10.433"
         font-style="normal"
         font-variant="normal"
         font-weight="normal"
         font-stretch="normal"
         font-size-adjust="none"
         letter-spacing="normal"
         word-spacing="normal"><path
           style="fill:#000000;stroke-width:0"
           inkscape:connector-curvature="0"
           d="m 478.19,431.11 0,0.31 -0.01,0.34 -0.02,0.36 -0.02,0.37 -0.03,0.39 -0.04,0.39 -0.04,0.41 -0.06,0.41 -0.07,0.42 -0.07,0.43 -0.09,0.42 -0.1,0.43 -0.12,0.42 -0.12,0.42 -0.14,0.41 -0.16,0.41 -0.17,0.4 -0.18,0.38 -0.2,0.37 -0.22,0.36 -0.23,0.34 -0.25,0.32 -0.28,0.3 -0.29,0.27 -0.31,0.25 -0.16,0.12 -0.17,0.1 -0.17,0.1 -0.18,0.1 -0.18,0.08 -0.19,0.08 -0.19,0.07 -0.2,0.06 -0.21,0.05 -0.21,0.05 -0.22,0.03 -0.22,0.02 -0.23,0.02 -0.23,0 -0.05,-1.09 c 2.44,0 2.73,-3.19 2.73,-6.03 0,-2.44 -0.39,-4.99 -1.59,-9.92 h -10.41 c 0.85,3.2 1.85,7.18 3.83,10.72 1.36,2.43 3.19,5.23 5.44,5.23 l 0.05,1.09 c -6.92,0 -14.6,-14.04 -14.6,-25.45 0,-4.69 1.44,-10.22 5.99,-10.22 v 1.1 c -1.66,0 -2.71,1.45 -2.71,6.07 0,2.1 0.3,4.99 1.6,9.86 h 10.37 c -0.54,-2.28 -1.59,-6.51 -3.5,-10.11 -1.73,-3.39 -3.62,-5.82 -5.76,-5.82 v -1.1 c 7.01,0 14.59,14.3 14.59,25.46 z"
           id="path8750" /></g>    </g>
    <g
       id="g8794"
       transform="matrix(0.67011739,0,0,0.67011739,253.02763,160.18198)">
      <g
         word-spacing="normal"
         letter-spacing="normal"
         font-size-adjust="none"
         font-stretch="normal"
         font-weight="normal"
         font-variant="normal"
         font-style="normal"
         stroke-miterlimit="10.433"
         xml:space="preserve"
         transform="matrix(1.0629921,0,0,-1.0629921,-186.02362,789.27165)"
         id="g8796"
         style="font-style:normal;font-variant:normal;font-weight:normal;font-stretch:normal;letter-spacing:normal;word-spacing:normal;text-anchor:start;fill:none;stroke:#000000;stroke-linecap:butt;stroke-linejoin:miter;stroke-miterlimit:10.43299961;stroke-opacity:1;stroke-dasharray:none;stroke-dashoffset:0"><path
           id="path8798"
           d="m 481.38,423.14 0.47,0.11 0.48,0.12 0.48,0.14 0.48,0.15 0.49,0.16 0.48,0.18 0.48,0.19 0.47,0.2 0.47,0.22 0.47,0.23 0.46,0.24 0.45,0.25 0.43,0.27 0.43,0.28 0.42,0.29 0.4,0.3 0.39,0.31 0.37,0.32 0.36,0.34 0.33,0.35 0.32,0.35 0.29,0.37 0.28,0.38 0.25,0.39 0.22,0.4 0.2,0.41 0.17,0.42 0.15,0.43 0.11,0.44 0.08,0.45 0.05,0.46 0.02,0.47 c 0,4.28 -4.48,7.47 -11,7.47 h -14.2 c -1,0 -1.45,0 -1.45,-1 0,-0.55 0.45,-0.55 1.4,-0.55 0.1,0 1.05,0 1.89,-0.09 0.89,-0.11 1.35,-0.16 1.35,-0.8 0,-0.2 -0.05,-0.36 -0.21,-0.95 l -6.67,-26.75 c -0.5,-1.95 -0.59,-2.34 -4.53,-2.34 -0.91,0 -1.34,0 -1.34,-1 0,-0.55 0.59,-0.55 0.68,-0.55 1.41,0 4.89,0.16 6.29,0.16 1.39,0 4.93,-0.16 6.32,-0.16 0.41,0 1,0 1,1 0,0.55 -0.45,0.55 -1.39,0.55 -1.84,0 -3.25,0 -3.25,0.89 0,0.29 0.11,0.54 0.16,0.84 l 3.28,13.2 h 5.94 l -0.05,1.11 h -5.59 l 3.25,13 c 0.29,1.19 0.43,1.69 1.39,1.85 0.45,0.04 2.04,0.04 3.03,0.04 3.55,0 9.08,0 9.08,-4.93 0,-1.69 -0.8,-5.13 -2.75,-7.07 -1.28,-1.29 -3.92,-2.89 -8.41,-2.89 l 0.05,-1.11 c 4.53,0 5.42,-2.78 5.42,-4.53 0,-0.75 -0.39,-2.28 -0.69,-3.44 -0.36,-1.39 -0.79,-3.23 -0.79,-4.23 0,-5.37 5.96,-5.37 6.62,-5.37 4.23,0 5.97,5.03 5.97,5.73 0,0.59 -0.55,0.59 -0.59,0.59 -0.46,0 -0.55,-0.36 -0.65,-0.7 -1.25,-3.69 -3.39,-4.53 -4.54,-4.53 -1.64,0 -1.99,1.09 -1.99,3.05 0,1.53 0.3,4.07 0.5,5.67 0.1,0.7 0.21,1.64 0.21,2.34 0,3.83 -3.35,5.38 -4.69,5.88 z"
           inkscape:connector-curvature="0"
           style="fill:#000000;stroke-width:0" /></g>    </g>
    <g
       id="g8917"
       transform="matrix(0.61537424,0,0,0.61537424,262.08165,-31.588077)">
      <g
         word-spacing="normal"
         letter-spacing="normal"
         font-size-adjust="none"
         font-stretch="normal"
         font-weight="normal"
         font-variant="normal"
         font-style="normal"
         stroke-miterlimit="10.433"
         xml:space="preserve"
         transform="matrix(1.0629921,0,0,-1.0629921,-186.02362,789.27165)"
         id="g8919"
         style="font-style:normal;font-variant:normal;font-weight:normal;font-stretch:normal;letter-spacing:normal;word-spacing:normal;text-anchor:start;fill:none;stroke:#000000;stroke-linecap:butt;stroke-linejoin:miter;stroke-miterlimit:10.43299961;stroke-opacity:1;stroke-dasharray:none;stroke-dashoffset:0"><path
           id="path8921"
           d="m 481.38,423.14 0.47,0.11 0.48,0.12 0.48,0.14 0.48,0.15 0.49,0.16 0.48,0.18 0.48,0.19 0.47,0.2 0.47,0.22 0.47,0.23 0.46,0.24 0.45,0.25 0.43,0.27 0.43,0.28 0.42,0.29 0.4,0.3 0.39,0.31 0.37,0.32 0.36,0.34 0.33,0.35 0.32,0.35 0.29,0.37 0.28,0.38 0.25,0.39 0.22,0.4 0.2,0.41 0.17,0.42 0.15,0.43 0.11,0.44 0.08,0.45 0.05,0.46 0.02,0.47 c 0,4.28 -4.48,7.47 -11,7.47 h -14.2 c -1,0 -1.45,0 -1.45,-1 0,-0.55 0.45,-0.55 1.4,-0.55 0.1,0 1.05,0 1.89,-0.09 0.89,-0.11 1.35,-0.16 1.35,-0.8 0,-0.2 -0.05,-0.36 -0.21,-0.95 l -6.67,-26.75 c -0.5,-1.95 -0.59,-2.34 -4.53,-2.34 -0.91,0 -1.34,0 -1.34,-1 0,-0.55 0.59,-0.55 0.68,-0.55 1.41,0 4.89,0.16 6.29,0.16 1.39,0 4.93,-0.16 6.32,-0.16 0.41,0 1,0 1,1 0,0.55 -0.45,0.55 -1.39,0.55 -1.84,0 -3.25,0 -3.25,0.89 0,0.29 0.11,0.54 0.16,0.84 l 3.28,13.2 h 5.94 l -0.05,1.11 h -5.59 l 3.25,13 c 0.29,1.19 0.43,1.69 1.39,1.85 0.45,0.04 2.04,0.04 3.03,0.04 3.55,0 9.08,0 9.08,-4.93 0,-1.69 -0.8,-5.13 -2.75,-7.07 -1.28,-1.29 -3.92,-2.89 -8.41,-2.89 l 0.05,-1.11 c 4.53,0 5.42,-2.78 5.42,-4.53 0,-0.75 -0.39,-2.28 -0.69,-3.44 -0.36,-1.39 -0.79,-3.23 -0.79,-4.23 0,-5.37 5.96,-5.37 6.62,-5.37 4.23,0 5.97,5.03 5.97,5.73 0,0.59 -0.55,0.59 -0.59,0.59 -0.46,0 -0.55,-0.36 -0.65,-0.7 -1.25,-3.69 -3.39,-4.53 -4.54,-4.53 -1.64,0 -1.99,1.09 -1.99,3.05 0,1.53 0.3,4.07 0.5,5.67 0.1,0.7 0.21,1.64 0.21,2.34 0,3.83 -3.35,5.38 -4.69,5.88 z"
           inkscape:connector-curvature="0"
           style="fill:#000000;stroke-width:0" /><path
           id="path8923"
           d="m 522.7,422.81 -0.01,0.02 0,0.01 0,0.02 0,0.02 0,0.02 -0.01,0.01 0,0.02 -0.01,0.02 0,0.02 -0.01,0.02 -0.01,0.02 -0.01,0.02 -0.01,0.02 -0.01,0.01 -0.01,0.02 -0.01,0.02 -0.02,0.02 -0.01,0.01 -0.02,0.02 -0.01,0.01 -0.02,0.02 -0.02,0.01 -0.02,0.01 -0.02,0.02 -0.02,0.01 -0.03,0 -0.02,0.01 -0.03,0.01 -0.01,0 -0.02,0 -0.01,0.01 -0.02,0 -0.01,0 -0.02,0 -0.01,0 -0.02,0 c -0.25,0 -0.31,-0.08 -0.62,-0.42 l -2.55,-2.69 c -0.31,0.42 -2.27,3.11 -6.55,3.11 -8.47,0 -16.76,-7.5 -16.76,-15.37 0,-5.68 4.47,-9.83 10.7,-9.83 1.88,0 5.22,0.39 8.81,3.42 2.75,2.33 3.52,5.36 3.52,5.64 0,0.45 -0.42,0.45 -0.59,0.45 -0.46,0 -0.52,-0.17 -0.63,-0.54 -1.42,-4.78 -6.31,-7.71 -10.52,-7.71 -3.7,0 -7.81,1.99 -7.81,7.49 0,1.01 0.25,6.51 4.25,10.9 2.41,2.69 6.06,4.29 9.38,4.29 4.04,0 6.4,-2.93 6.4,-6.83 0,-0.97 -0.09,-1.22 -0.09,-1.42 0,-0.46 0.45,-0.46 0.62,-0.46 0.57,0 0.57,0.11 0.74,0.77 z"
           inkscape:connector-curvature="0"
           style="fill:#000000;stroke-width:0" /></g>    </g>
    <g
       transform="matrix(-0.04856612,-0.64475245,0.64475245,-0.04856612,129.72883,620.16227)"
       id="g8981">
      <g
         style="font-style:normal;font-variant:normal;font-weight:normal;font-stretch:normal;letter-spacing:normal;word-spacing:normal;text-anchor:start;fill:none;stroke:#000000;stroke-linecap:butt;stroke-linejoin:miter;stroke-miterlimit:10.43299961;stroke-opacity:1;stroke-dasharray:none;stroke-dashoffset:0"
         id="g8983"
         transform="matrix(1.0629921,0,0,-1.0629921,-186.02362,789.27165)"
         xml:space="preserve"
         stroke-miterlimit="10.433"
         font-style="normal"
         font-variant="normal"
         font-weight="normal"
         font-stretch="normal"
         font-size-adjust="none"
         letter-spacing="normal"
         word-spacing="normal"><path
           style="fill:#000000;stroke-width:0"
           inkscape:connector-curvature="0"
           d="m 493.54,436.39 0.04,0.16 0.04,0.16 0.04,0.15 0.04,0.14 0.04,0.14 0.04,0.13 0.04,0.12 0.05,0.11 0.05,0.11 0.05,0.11 0.06,0.09 0.07,0.09 0.07,0.09 0.08,0.08 0.09,0.07 0.09,0.07 0.11,0.06 0.11,0.06 0.13,0.05 0.14,0.05 0.15,0.04 0.16,0.04 0.09,0.02 0.09,0.02 0.09,0.01 0.1,0.02 0.1,0.01 0.1,0.01 0.11,0.02 0.11,0.01 0.12,0.01 0.12,0 0.13,0.01 0.13,0.01 0.13,0.01 0.14,0 0.14,0 0.15,0.01 0.15,0 0.16,0 0.16,0 0.17,0 c 1.3,0 1.69,0 1.69,1 0,0.55 -0.55,0.55 -0.7,0.55 -1.39,0 -4.97,-0.16 -6.38,-0.16 -1.44,0 -4.98,0.16 -6.42,0.16 -0.39,0 -0.95,0 -0.95,-1 0,-0.55 0.45,-0.55 1.4,-0.55 0.1,0 1.05,0 1.89,-0.09 0.89,-0.11 1.35,-0.16 1.35,-0.8 0,-0.2 -0.05,-0.31 -0.21,-0.95 l -2.98,-12.16 h -15.2 l 2.95,11.71 c 0.44,1.79 0.59,2.29 4.17,2.29 1.3,0 1.71,0 1.71,1 0,0.55 -0.55,0.55 -0.71,0.55 -1.39,0 -4.98,-0.16 -6.37,-0.16 -1.44,0 -4.99,0.16 -6.42,0.16 -0.41,0 -0.96,0 -0.96,-1 0,-0.55 0.46,-0.55 1.39,-0.55 0.11,0 1.05,0 1.91,-0.09 0.89,-0.11 1.34,-0.16 1.34,-0.8 0,-0.2 -0.06,-0.36 -0.2,-0.95 l -6.67,-26.75 c -0.5,-1.95 -0.61,-2.34 -4.55,-2.34 -0.89,0 -1.34,0 -1.34,-1 0,-0.55 0.61,-0.55 0.7,-0.55 1.39,0 4.94,0.16 6.33,0.16 1.05,0 2.14,-0.07 3.19,-0.07 1.09,0 2.18,-0.09 3.23,-0.09 0.41,0 1,0 1,1 0,0.55 -0.45,0.55 -1.39,0.55 -1.84,0 -3.23,0 -3.23,0.89 0,0.29 0.09,0.54 0.14,0.84 l 3.39,13.66 H 486 c -2.09,-8.27 -3.23,-13 -3.43,-13.75 -0.49,-1.6 -1.44,-1.64 -4.53,-1.64 -0.75,0 -1.19,0 -1.19,-1 0,-0.55 0.59,-0.55 0.69,-0.55 1.4,0 4.93,0.16 6.32,0.16 1.05,0 2.14,-0.07 3.19,-0.07 1.11,0 2.2,-0.09 3.25,-0.09 0.39,0 0.99,0 0.99,1 0,0.55 -0.44,0.55 -1.4,0.55 -1.84,0 -3.23,0 -3.23,0.89 0,0.29 0.09,0.54 0.14,0.84 z"
           id="path8985" /><path
           style="fill:#000000;stroke-width:0"
           inkscape:connector-curvature="0"
           d="m 526.3,422.81 0,0.02 0,0.01 -0.01,0.02 0,0.02 0,0.02 -0.01,0.01 0,0.02 -0.01,0.02 0,0.02 -0.01,0.02 -0.01,0.02 -0.01,0.02 -0.01,0.02 -0.01,0.01 -0.01,0.02 -0.01,0.02 -0.01,0.02 -0.02,0.01 -0.01,0.02 -0.02,0.01 -0.02,0.02 -0.02,0.01 -0.02,0.01 -0.02,0.02 -0.02,0.01 -0.03,0 -0.02,0.01 -0.03,0.01 -0.01,0 -0.02,0 -0.01,0.01 -0.01,0 -0.02,0 -0.01,0 -0.02,0 -0.02,0 c -0.25,0 -0.31,-0.08 -0.62,-0.42 l -2.55,-2.69 c -0.31,0.42 -2.26,3.11 -6.55,3.11 -8.46,0 -16.76,-7.5 -16.76,-15.37 0,-5.68 4.47,-9.83 10.7,-9.83 1.88,0 5.22,0.39 8.82,3.42 2.74,2.33 3.51,5.36 3.51,5.64 0,0.45 -0.42,0.45 -0.59,0.45 -0.46,0 -0.52,-0.17 -0.63,-0.54 -1.42,-4.78 -6.31,-7.71 -10.51,-7.71 -3.71,0 -7.82,1.99 -7.82,7.49 0,1.01 0.25,6.51 4.25,10.9 2.41,2.69 6.07,4.29 9.38,4.29 4.05,0 6.41,-2.93 6.41,-6.83 0,-0.97 -0.1,-1.22 -0.1,-1.42 0,-0.46 0.45,-0.46 0.63,-0.46 0.56,0 0.56,0.11 0.73,0.77 z"
           id="path8987" /></g>    </g>
    <g
       ns0:preamble="/home/abhinavc/playpen/textext/preamble.ini"
       ns0:text="\\begin{align}\nR_C &amp;= R\\cdot\\cos\\theta \\\\\nH_C &amp;= 2\\cdot R\\sin\\theta\n\\end{align}"
       word-spacing="normal"
       letter-spacing="normal"
       font-size-adjust="none"
       font-stretch="normal"
       font-weight="normal"
       font-variant="normal"
       font-style="normal"
       stroke-miterlimit="10.433"
       xml:space="preserve"
       transform="matrix(2.954241,0,0,-2.954241,-822.63574,2185.502)"
       id="g9053"
       style="font-style:normal;font-variant:normal;font-weight:normal;font-stretch:normal;letter-spacing:normal;word-spacing:normal;text-anchor:start;fill:none;stroke:#000000;stroke-linecap:butt;stroke-linejoin:miter;stroke-miterlimit:10.43299961;stroke-opacity:1;stroke-dasharray:none;stroke-dashoffset:0">
<path
   id="path9055"
   d="m 367.59,531.97 0.09,0.03 0.1,0.02 0.09,0.03 0.1,0.03 0.09,0.03 0.1,0.04 0.1,0.03 0.09,0.04 0.1,0.05 0.09,0.04 0.09,0.05 0.09,0.05 0.09,0.06 0.08,0.05 0.09,0.06 0.08,0.06 0.07,0.06 0.08,0.07 0.07,0.06 0.07,0.07 0.06,0.07 0.06,0.08 0.05,0.07 0.05,0.08 0.05,0.08 0.04,0.08 0.03,0.08 0.03,0.09 0.02,0.09 0.02,0.09 0.01,0.09 0,0.09 c 0,0.86 -0.89,1.49 -2.19,1.49 h -2.84 c -0.2,0 -0.29,0 -0.29,-0.2 0,-0.11 0.09,-0.11 0.28,-0.11 0.02,0 0.21,0 0.38,-0.02 0.18,-0.02 0.27,-0.03 0.27,-0.15 0,-0.05 -0.01,-0.07 -0.04,-0.19 L 364,529.37 c -0.1,-0.39 -0.12,-0.46 -0.9,-0.46 -0.18,0 -0.27,0 -0.27,-0.2 0,-0.11 0.12,-0.11 0.14,-0.11 0.28,0 0.97,0.03 1.25,0.03 0.28,0 0.99,-0.03 1.27,-0.03 0.08,0 0.19,0 0.19,0.2 0,0.11 -0.08,0.11 -0.27,0.11 -0.37,0 -0.65,0 -0.65,0.17 0,0.06 0.02,0.11 0.03,0.17 l 0.66,2.64 h 1.18 l -0.01,0.21 h -1.11 l 0.64,2.6 c 0.06,0.23 0.09,0.33 0.28,0.36 0.09,0.01 0.41,0.01 0.61,0.01 0.7,0 1.81,0 1.81,-0.98 0,-0.34 -0.16,-1.02 -0.55,-1.41 -0.26,-0.26 -0.78,-0.58 -1.68,-0.58 l 0.01,-0.21 c 0.91,0 1.08,-0.56 1.08,-0.91 0,-0.15 -0.07,-0.46 -0.13,-0.68 -0.07,-0.28 -0.16,-0.65 -0.16,-0.85 0,-1.07 1.19,-1.07 1.32,-1.07 0.84,0 1.19,1 1.19,1.14 0,0.12 -0.11,0.12 -0.12,0.12 -0.08,0 -0.11,-0.07 -0.13,-0.14 -0.24,-0.73 -0.67,-0.9 -0.9,-0.9 -0.33,0 -0.4,0.22 -0.4,0.6 0,0.31 0.06,0.82 0.1,1.14 0.02,0.13 0.04,0.32 0.04,0.46 0,0.77 -0.67,1.08 -0.93,1.17 z"
   inkscape:connector-curvature="0"
   style="fill:#000000;stroke-width:0" />
<path
   id="path9057"
   d="m 375.86,531.9 0,0 0,0.01 0,0 0,0 0,0.01 -0.01,0 0,0.01 0,0 0,0 0,0.01 0,0 0,0 -0.01,0.01 0,0 0,0 0,0.01 0,0 -0.01,0 0,0.01 0,0 -0.01,0 0,0.01 -0.01,0 0,0 0,0 -0.01,0 0,0.01 -0.01,0 0,0 0,0 -0.01,0 0,0 0,0 -0.01,0 0,0 0,0 c -0.05,0 -0.07,-0.01 -0.13,-0.08 l -0.51,-0.54 c -0.06,0.09 -0.45,0.62 -1.31,0.62 -1.69,0 -3.35,-1.5 -3.35,-3.07 0,-1.13 0.89,-1.96 2.14,-1.96 0.38,0 1.05,0.08 1.76,0.68 0.55,0.47 0.71,1.08 0.71,1.13 0,0.09 -0.09,0.09 -0.12,0.09 -0.09,0 -0.11,-0.03 -0.13,-0.11 -0.28,-0.95 -1.26,-1.54 -2.1,-1.54 -0.74,0 -1.56,0.4 -1.56,1.5 0,0.2 0.05,1.3 0.85,2.18 0.48,0.53 1.21,0.85 1.87,0.85 0.81,0 1.28,-0.58 1.28,-1.36 0,-0.2 -0.02,-0.25 -0.02,-0.29 0,-0.09 0.09,-0.09 0.13,-0.09 0.11,0 0.11,0.02 0.14,0.16 z"
   inkscape:connector-curvature="0"
   style="fill:#000000;stroke-width:0" />
<path
   id="path9059"
   d="m 386.29,531.84 0.03,0.01 0.03,0 0.03,0 0.01,0 0.02,0 0.01,0 0.01,0 0.02,0 0.01,0.01 0.02,0 0.01,0 0.01,0.01 0.01,0 0.02,0 0.01,0.01 0.01,0.01 0.01,0 0.01,0.01 0.01,0.01 0.01,0.01 0.01,0.01 0,0 0,0.01 0.01,0.01 0,0 0,0.01 0.01,0 0,0.01 0,0.01 0,0.01 0,0 0,0.01 0.01,0.01 0,0.01 0,0.01 0,0 0,0.01 c 0,0.2 -0.19,0.2 -0.33,0.2 h -5.96 c -0.14,0 -0.33,0 -0.33,-0.2 0,-0.2 0.19,-0.2 0.34,-0.2 z"
   inkscape:connector-curvature="0"
   style="fill:#000000;stroke-width:0" />
<path
   id="path9061"
   d="m 386.3,529.92 0.01,0 0.02,0 0.02,0 0.03,0 0.02,0 0.01,0 0.01,0 0.02,0 0.01,0.01 0.01,0 0.02,0 0.01,0 0.01,0.01 0.02,0 0.01,0.01 0.01,0 0.01,0.01 0.01,0.01 0.01,0 0.01,0.01 0.01,0.01 0,0.01 0.01,0 0,0.01 0,0 0.01,0.01 0,0 0,0.01 0.01,0.01 0,0 0,0.01 0,0.01 0,0.01 0,0 0.01,0.01 0,0.01 0,0.01 0,0.01 0,0.01 c 0,0.2 -0.19,0.2 -0.34,0.2 h -5.94 c -0.15,0 -0.34,0 -0.34,-0.2 0,-0.2 0.19,-0.2 0.33,-0.2 z"
   inkscape:connector-curvature="0"
   style="fill:#000000;stroke-width:0" />
<path
   id="path9063"
   d="m 395.14,531.97 0.09,0.03 0.1,0.02 0.09,0.03 0.1,0.03 0.09,0.03 0.1,0.04 0.1,0.03 0.09,0.04 0.09,0.05 0.1,0.04 0.09,0.05 0.09,0.05 0.09,0.06 0.08,0.05 0.09,0.06 0.08,0.06 0.07,0.06 0.08,0.07 0.07,0.06 0.07,0.07 0.06,0.07 0.06,0.08 0.05,0.07 0.05,0.08 0.05,0.08 0.04,0.08 0.03,0.08 0.03,0.09 0.02,0.09 0.02,0.09 0.01,0.09 0,0.09 c 0,0.86 -0.89,1.49 -2.2,1.49 h -2.83 c -0.2,0 -0.29,0 -0.29,-0.2 0,-0.11 0.09,-0.11 0.28,-0.11 0.02,0 0.21,0 0.38,-0.02 0.18,-0.02 0.27,-0.03 0.27,-0.15 0,-0.05 -0.01,-0.07 -0.04,-0.19 l -1.34,-5.34 c -0.1,-0.39 -0.12,-0.46 -0.9,-0.46 -0.18,0 -0.27,0 -0.27,-0.2 0,-0.11 0.12,-0.11 0.14,-0.11 0.28,0 0.97,0.03 1.25,0.03 0.28,0 0.99,-0.03 1.27,-0.03 0.07,0 0.19,0 0.19,0.2 0,0.11 -0.09,0.11 -0.27,0.11 -0.37,0 -0.65,0 -0.65,0.17 0,0.06 0.02,0.11 0.03,0.17 l 0.66,2.64 h 1.18 l -0.01,0.21 h -1.12 l 0.65,2.6 c 0.06,0.23 0.09,0.33 0.28,0.36 0.09,0.01 0.41,0.01 0.61,0.01 0.7,0 1.81,0 1.81,-0.98 0,-0.34 -0.16,-1.02 -0.55,-1.41 -0.26,-0.26 -0.78,-0.58 -1.68,-0.58 l 0.01,-0.21 c 0.9,0 1.08,-0.56 1.08,-0.91 0,-0.15 -0.08,-0.46 -0.14,-0.68 -0.07,-0.28 -0.15,-0.65 -0.15,-0.85 0,-1.07 1.19,-1.07 1.32,-1.07 0.84,0 1.19,1 1.19,1.14 0,0.12 -0.11,0.12 -0.12,0.12 -0.09,0 -0.11,-0.07 -0.13,-0.14 -0.25,-0.73 -0.67,-0.9 -0.9,-0.9 -0.33,0 -0.4,0.22 -0.4,0.6 0,0.31 0.06,0.82 0.1,1.14 0.02,0.13 0.04,0.32 0.04,0.46 0,0.77 -0.67,1.08 -0.93,1.17 z"
   inkscape:connector-curvature="0"
   style="fill:#000000;stroke-width:0" />
<path
   id="path9065"
   d="m 401.74,531.08 0,0.03 -0.01,0.02 0,0.03 0,0.03 -0.01,0.02 -0.01,0.03 -0.01,0.02 -0.01,0.02 -0.01,0.03 -0.01,0.02 -0.01,0.02 -0.01,0.02 -0.02,0.02 -0.02,0.02 -0.01,0.02 -0.02,0.02 -0.02,0.02 -0.02,0.02 -0.02,0.01 -0.02,0.02 -0.02,0.01 -0.02,0.01 -0.02,0.01 -0.03,0.02 -0.02,0 -0.03,0.01 -0.02,0.01 -0.03,0.01 -0.02,0 -0.03,0 -0.02,0.01 -0.03,0 c -0.29,0 -0.53,-0.24 -0.53,-0.53 0,-0.29 0.24,-0.53 0.53,-0.53 0.29,0 0.53,0.24 0.53,0.53 z"
   inkscape:connector-curvature="0"
   style="fill:#000000;stroke-width:0" />
<path
   id="path9067"
   d="m 405.97,530.76 0,0.08 0,0.07 0.01,0.07 0,0.07 0.01,0.07 0,0.07 0.01,0.06 0.01,0.07 0.01,0.06 0.01,0.06 0.01,0.06 0.01,0.05 0.03,0.11 0.03,0.1 0.03,0.1 0.04,0.09 0.04,0.09 0.04,0.08 0.04,0.07 0.05,0.07 0.05,0.07 0.04,0.06 0.06,0.05 0.05,0.05 0.05,0.05 0.06,0.04 0.05,0.04 0.06,0.03 0.06,0.03 0.05,0.03 0.06,0.02 0.05,0.02 0.06,0.02 0.05,0.01 0.06,0.01 0.05,0 0.05,0.01 0.05,0 c 0.09,0 0.72,-0.01 1.07,-0.37 -0.41,-0.03 -0.47,-0.33 -0.47,-0.46 0,-0.25 0.18,-0.45 0.46,-0.45 0.26,0 0.46,0.17 0.46,0.46 0,0.68 -0.76,1.07 -1.53,1.07 -1.24,0 -2.16,-1.08 -2.16,-2.31 0,-1.27 0.99,-2.25 2.14,-2.25 1.34,0 1.66,1.19 1.66,1.29 0,0.1 -0.1,0.1 -0.13,0.1 -0.09,0 -0.11,-0.04 -0.13,-0.1 -0.29,-0.93 -0.94,-1.04 -1.31,-1.04 -0.52,0 -1.4,0.42 -1.4,2.02 z"
   inkscape:connector-curvature="0"
   style="fill:#000000;stroke-width:0" />
<path
   id="path9069"
   d="m 413.92,530.72 0,0.12 -0.01,0.12 -0.02,0.11 -0.02,0.12 -0.02,0.11 -0.03,0.11 -0.03,0.11 -0.04,0.1 -0.05,0.11 -0.05,0.1 -0.05,0.09 -0.06,0.1 -0.06,0.09 -0.07,0.09 -0.06,0.08 -0.08,0.08 -0.07,0.08 -0.08,0.07 -0.09,0.07 -0.08,0.07 -0.09,0.06 -0.09,0.05 -0.1,0.06 -0.1,0.04 -0.1,0.04 -0.1,0.04 -0.1,0.03 -0.11,0.03 -0.11,0.02 -0.1,0.01 -0.12,0.01 -0.11,0.01 -0.01,-0.22 c 0.44,0 0.87,-0.22 1.13,-0.65 0.26,-0.42 0.26,-1 0.26,-1.38 0,-0.35 0,-0.89 -0.22,-1.33 -0.22,-0.45 -0.66,-0.73 -1.16,-0.73 h 0 c -0.43,0 -0.86,0.21 -1.13,0.66 -0.25,0.44 -0.25,1.05 -0.25,1.4 0,0.39 0,0.93 0.24,1.36 0.27,0.46 0.73,0.67 1.13,0.67 l 0.01,0.22 c -1.24,0 -2.21,-1.08 -2.21,-2.33 0,-1.28 1.04,-2.23 2.2,-2.23 1.21,0 2.21,0.97 2.21,2.23 z"
   inkscape:connector-curvature="0"
   style="fill:#000000;stroke-width:0" />
<path
   id="path9071"
   d="m 416.29,530.52 0.02,0 0.02,0 0.03,-0.01 0.03,-0.01 0.04,-0.01 0.03,0 0.04,-0.01 0.04,-0.02 0.04,-0.01 0.04,-0.01 0.05,-0.02 0.04,-0.01 0.04,-0.02 0.05,-0.02 0.04,-0.03 0.04,-0.02 0.05,-0.03 0.04,-0.02 0.04,-0.03 0.04,-0.04 0.04,-0.03 0.03,-0.04 0.04,-0.04 0.03,-0.04 0.03,-0.05 0.01,-0.02 0.01,-0.02 0.01,-0.03 0.02,-0.02 0.01,-0.03 0,-0.03 0.01,-0.02 0.01,-0.03 0.01,-0.03 0,-0.03 0,-0.03 0.01,-0.03 0,-0.04 0,-0.03 c 0,-0.51 -0.35,-0.9 -1.12,-0.9 -0.84,0 -1.2,0.56 -1.39,1.41 -0.03,0.13 -0.04,0.17 -0.14,0.17 -0.13,0 -0.13,-0.07 -0.13,-0.25 v -1.31 c 0,-0.17 0,-0.24 0.11,-0.24 0.05,0 0.06,0.01 0.25,0.2 0.02,0.02 0.02,0.04 0.2,0.22 0.44,-0.41 0.89,-0.42 1.1,-0.42 1.14,0 1.6,0.66 1.6,1.38 0,0.53 -0.3,0.82 -0.42,0.94 -0.33,0.32 -0.72,0.4 -1.14,0.48 -0.55,0.11 -1.22,0.24 -1.22,0.81 0,0.35 0.26,0.76 1.12,0.76 1.09,0 1.14,-0.89 1.16,-1.2 0.01,-0.09 0.1,-0.09 0.12,-0.09 0.13,0 0.13,0.05 0.13,0.24 v 1 c 0,0.17 0,0.24 -0.11,0.24 -0.05,0 -0.07,0 -0.2,-0.12 -0.03,-0.04 -0.13,-0.13 -0.17,-0.16 -0.38,0.28 -0.78,0.28 -0.93,0.28 -1.22,0 -1.6,-0.67 -1.6,-1.22 0,-0.35 0.16,-0.63 0.43,-0.85 0.32,-0.26 0.6,-0.32 1.32,-0.46 z"
   inkscape:connector-curvature="0"
   style="fill:#000000;stroke-width:0" />
<path
   id="path9073"
   d="m 424.33,533.56 0,0.07 0,0.06 0,0.08 -0.01,0.07 0,0.08 -0.01,0.08 -0.01,0.08 -0.01,0.08 -0.01,0.08 -0.02,0.09 -0.02,0.08 -0.02,0.09 -0.02,0.08 -0.02,0.08 -0.03,0.09 -0.03,0.08 -0.04,0.08 -0.03,0.07 -0.04,0.08 -0.05,0.07 -0.04,0.07 -0.05,0.06 -0.06,0.06 -0.06,0.05 -0.06,0.05 -0.03,0.03 -0.03,0.02 -0.04,0.02 -0.03,0.02 -0.04,0.01 -0.04,0.02 -0.04,0.01 -0.04,0.02 -0.04,0.01 -0.04,0 -0.04,0.01 -0.05,0.01 -0.04,0 -0.05,0 -0.01,-0.22 c 0.49,0 0.55,-0.63 0.55,-1.2 0,-0.49 -0.08,-0.99 -0.32,-1.98 h -2.08 c 0.17,0.64 0.37,1.43 0.77,2.14 0.26,0.49 0.63,1.04 1.08,1.04 l 0.01,0.22 c -1.38,0 -2.91,-2.8 -2.91,-5.08 0,-0.93 0.28,-2.03 1.19,-2.03 v 0.22 c -0.33,0 -0.54,0.28 -0.54,1.21 0,0.42 0.06,0.99 0.32,1.97 h 2.07 c -0.11,-0.46 -0.32,-1.31 -0.7,-2.02 -0.34,-0.68 -0.72,-1.16 -1.15,-1.16 v -0.22 c 1.4,0 2.91,2.85 2.91,5.07 z"
   inkscape:connector-curvature="0"
   style="fill:#000000;stroke-width:0" />
<path
   id="path9075"
   d="m 456.83,536.05 -0.03,-0.03 -0.03,-0.03 -0.04,-0.04 -0.03,-0.03 -0.04,-0.04 -0.04,-0.04 -0.04,-0.04 -0.04,-0.04 -0.05,-0.04 -0.04,-0.05 -0.05,-0.05 -0.04,-0.05 -0.05,-0.06 -0.05,-0.06 -0.05,-0.06 -0.05,-0.06 -0.05,-0.06 -0.05,-0.07 -0.05,-0.07 -0.05,-0.08 -0.05,-0.07 -0.05,-0.08 -0.05,-0.09 -0.05,-0.08 -0.05,-0.09 -0.04,-0.09 -0.05,-0.1 -0.05,-0.1 -0.05,-0.1 -0.04,-0.11 -0.05,-0.11 -0.04,-0.11 c -0.4,-1.06 -0.47,-2.11 -0.47,-2.84 0,-3.21 1.44,-4.53 1.91,-4.97 h 0.61 c -0.48,0.48 -1.74,1.76 -1.74,4.97 0,0.56 0.03,1.72 0.44,2.89 0.4,1.15 0.97,1.75 1.3,2.08 z"
   inkscape:connector-curvature="0"
   style="fill:#000000;stroke-width:0" />
<path
   id="path9077"
   d="m 460.98,535.33 h -0.19 c -0.59,-0.6 -1.42,-0.63 -1.89,-0.65 v -0.58 c 0.32,0.01 0.8,0.03 1.3,0.24 v -5.17 h -1.24 v -0.57 h 3.27 v 0.57 h -1.25 z"
   inkscape:connector-curvature="0"
   style="fill:#000000;stroke-width:0" />
<path
   id="path9079"
   d="m 464.16,526.11 0.03,0.03 0.03,0.03 0.03,0.04 0.04,0.03 0.04,0.04 0.04,0.04 0.04,0.04 0.04,0.04 0.04,0.05 0.05,0.04 0.04,0.05 0.05,0.06 0.05,0.05 0.05,0.06 0.05,0.06 0.04,0.06 0.05,0.07 0.05,0.06 0.05,0.07 0.05,0.08 0.05,0.08 0.06,0.08 0.05,0.08 0.04,0.08 0.05,0.09 0.05,0.1 0.05,0.09 0.05,0.1 0.04,0.1 0.05,0.11 0.04,0.11 0.05,0.11 c 0.4,1.06 0.47,2.11 0.47,2.84 0,3.21 -1.44,4.53 -1.91,4.97 h -0.61 c 0.48,-0.48 1.74,-1.76 1.74,-4.97 0,-0.56 -0.03,-1.72 -0.44,-2.89 -0.41,-1.15 -0.97,-1.75 -1.3,-2.08 z"
   inkscape:connector-curvature="0"
   style="fill:#000000;stroke-width:0" />
<path
   id="path9081"
   d="m 369.3,519.67 0,0.04 0.01,0.03 0.01,0.03 0.01,0.03 0.01,0.02 0,0.03 0.01,0.02 0.01,0.03 0.01,0.02 0.01,0.02 0.02,0.02 0.01,0.01 0.01,0.02 0.02,0.02 0.02,0.01 0.02,0.02 0.02,0.01 0.02,0.01 0.02,0.01 0.03,0.01 0.03,0.01 0.03,0.01 0.02,0 0.02,0 0.02,0.01 0.02,0 0.02,0 0.02,0 0.02,0.01 0.02,0 0.03,0 0.02,0 0.03,0 0.02,0.01 0.03,0 0.03,0 0.02,0 0.03,0 0.03,0 0.04,0 0.03,0 0.03,0 c 0.26,0 0.34,0 0.34,0.2 0,0.11 -0.11,0.11 -0.14,0.11 -0.28,0 -0.99,-0.03 -1.27,-0.03 -0.29,0 -1,0.03 -1.29,0.03 -0.08,0 -0.19,0 -0.19,-0.2 0,-0.11 0.09,-0.11 0.28,-0.11 0.02,0 0.21,0 0.38,-0.02 0.18,-0.02 0.27,-0.03 0.27,-0.16 0,-0.04 -0.01,-0.06 -0.04,-0.19 l -0.6,-2.42 h -3.03 l 0.59,2.33 c 0.09,0.36 0.12,0.46 0.83,0.46 0.26,0 0.34,0 0.34,0.2 0,0.11 -0.11,0.11 -0.14,0.11 -0.28,0 -0.99,-0.03 -1.27,-0.03 -0.29,0 -1,0.03 -1.29,0.03 -0.08,0 -0.19,0 -0.19,-0.2 0,-0.11 0.09,-0.11 0.28,-0.11 0.02,0 0.21,0 0.38,-0.02 0.18,-0.02 0.27,-0.03 0.27,-0.16 0,-0.04 -0.01,-0.07 -0.04,-0.19 l -1.33,-5.33 c -0.1,-0.39 -0.12,-0.47 -0.91,-0.47 -0.18,0 -0.27,0 -0.27,-0.2 0,-0.11 0.12,-0.11 0.14,-0.11 0.28,0 0.99,0.03 1.27,0.03 0.2,0 0.42,-0.01 0.63,-0.01 0.22,0 0.44,-0.02 0.65,-0.02 0.08,0 0.2,0 0.2,0.2 0,0.11 -0.09,0.11 -0.28,0.11 -0.37,0 -0.65,0 -0.65,0.18 0,0.06 0.02,0.11 0.03,0.17 l 0.68,2.72 h 3.03 c -0.41,-1.65 -0.64,-2.59 -0.68,-2.74 -0.1,-0.32 -0.29,-0.33 -0.91,-0.33 -0.15,0 -0.24,0 -0.24,-0.2 0,-0.11 0.12,-0.11 0.14,-0.11 0.28,0 0.99,0.03 1.27,0.03 0.21,0 0.42,-0.01 0.63,-0.01 0.22,0 0.44,-0.02 0.65,-0.02 0.08,0 0.2,0 0.2,0.2 0,0.11 -0.09,0.11 -0.28,0.11 -0.37,0 -0.65,0 -0.65,0.18 0,0.06 0.02,0.11 0.03,0.17 z"
   inkscape:connector-curvature="0"
   style="fill:#000000;stroke-width:0" />
<path
   id="path9083"
   d="m 375.86,516.96 0,0 0,0 0,0.01 0,0 0,0 -0.01,0.01 0,0 0,0 0,0.01 0,0 0,0.01 0,0 -0.01,0 0,0.01 0,0 0,0 0,0.01 -0.01,0 0,0 0,0.01 -0.01,0 0,0 -0.01,0 0,0.01 0,0 -0.01,0 0,0 -0.01,0 0,0 0,0 -0.01,0.01 0,0 0,0 -0.01,0 0,0 0,0 c -0.05,0 -0.07,-0.02 -0.13,-0.09 l -0.51,-0.53 c -0.06,0.08 -0.45,0.62 -1.31,0.62 -1.69,0 -3.35,-1.5 -3.35,-3.07 0,-1.13 0.89,-1.96 2.14,-1.96 0.38,0 1.05,0.07 1.76,0.68 0.55,0.47 0.71,1.07 0.71,1.13 0,0.09 -0.09,0.09 -0.12,0.09 -0.09,0 -0.11,-0.04 -0.13,-0.11 -0.28,-0.96 -1.26,-1.54 -2.1,-1.54 -0.74,0 -1.56,0.4 -1.56,1.49 0,0.21 0.05,1.31 0.85,2.18 0.48,0.54 1.21,0.86 1.87,0.86 0.81,0 1.28,-0.59 1.28,-1.37 0,-0.19 -0.02,-0.24 -0.02,-0.28 0,-0.09 0.09,-0.09 0.13,-0.09 0.11,0 0.11,0.02 0.14,0.15 z"
   inkscape:connector-curvature="0"
   style="fill:#000000;stroke-width:0" />
<path
   id="path9085"
   d="m 386.29,516.9 0.03,0 0.03,0 0.03,0 0.01,0 0.02,0 0.01,0.01 0.01,0 0.02,0 0.01,0 0.02,0 0.01,0.01 0.01,0 0.01,0.01 0.02,0 0.01,0.01 0.01,0 0.01,0.01 0.01,0.01 0.01,0.01 0.01,0 0.01,0.01 0,0.01 0,0.01 0.01,0 0,0.01 0,0 0.01,0.01 0,0.01 0,0 0,0.01 0,0.01 0,0.01 0.01,0 0,0.01 0,0.01 0,0.01 0,0.01 c 0,0.2 -0.19,0.2 -0.33,0.2 h -5.96 c -0.14,0 -0.33,0 -0.33,-0.2 0,-0.2 0.19,-0.2 0.34,-0.2 z"
   inkscape:connector-curvature="0"
   style="fill:#000000;stroke-width:0" />
<path
   id="path9087"
   d="m 386.3,514.97 0.01,0 0.02,0 0.02,0 0.03,0.01 0.02,0 0.01,0 0.01,0 0.02,0 0.01,0 0.01,0 0.02,0.01 0.01,0 0.01,0 0.02,0.01 0.01,0 0.01,0.01 0.01,0.01 0.01,0 0.01,0.01 0.01,0.01 0.01,0.01 0,0 0.01,0.01 0,0 0,0.01 0.01,0 0,0.01 0,0.01 0.01,0 0,0.01 0,0.01 0,0 0,0.01 0,0.01 0.01,0.01 0,0.01 0,0 0,0.01 0,0.01 c 0,0.2 -0.19,0.2 -0.34,0.2 h -5.94 c -0.15,0 -0.34,0 -0.34,-0.2 0,-0.2 0.19,-0.2 0.33,-0.2 z"
   inkscape:connector-curvature="0"
   style="fill:#000000;stroke-width:0" />
<path
   id="path9089"
   d="m 391.24,514.42 1.05,1.02 c 1.55,1.37 2.15,1.91 2.15,2.9 0,1.13 -0.89,1.93 -2.11,1.93 -1.12,0 -1.86,-0.92 -1.86,-1.8 0,-0.56 0.5,-0.56 0.53,-0.56 0.17,0 0.52,0.12 0.52,0.53 0,0.26 -0.18,0.52 -0.53,0.52 -0.08,0 -0.1,0 -0.13,-0.01 0.23,0.64 0.76,1.01 1.34,1.01 0.91,0 1.34,-0.8 1.34,-1.62 0,-0.79 -0.5,-1.58 -1.05,-2.19 l -1.91,-2.13 c -0.11,-0.11 -0.11,-0.13 -0.11,-0.37 h 3.69 l 0.28,1.73 h -0.25 c -0.05,-0.3 -0.12,-0.73 -0.22,-0.88 -0.07,-0.08 -0.72,-0.08 -0.94,-0.08 z"
   inkscape:connector-curvature="0"
   style="fill:#000000;stroke-width:0" />
<path
   id="path9091"
   d="m 399.08,516.14 0,0.02 -0.01,0.03 0,0.03 0,0.02 -0.01,0.03 -0.01,0.02 -0.01,0.03 -0.01,0.02 -0.01,0.02 -0.01,0.03 -0.01,0.02 -0.01,0.02 -0.02,0.02 -0.02,0.02 -0.01,0.02 -0.02,0.02 -0.02,0.02 -0.02,0.01 -0.02,0.02 -0.02,0.01 -0.02,0.02 -0.02,0.01 -0.02,0.01 -0.03,0.01 -0.02,0.01 -0.03,0.01 -0.02,0.01 -0.03,0 -0.02,0.01 -0.03,0 -0.02,0 -0.03,0 c -0.29,0 -0.53,-0.24 -0.53,-0.52 0,-0.29 0.24,-0.53 0.53,-0.53 0.29,0 0.53,0.24 0.53,0.53 z"
   inkscape:connector-curvature="0"
   style="fill:#000000;stroke-width:0" />
<path
   id="path9093"
   d="m 407.31,517.03 0.1,0.02 0.09,0.03 0.1,0.02 0.09,0.03 0.1,0.04 0.1,0.03 0.09,0.04 0.1,0.04 0.09,0.04 0.09,0.05 0.09,0.05 0.09,0.05 0.09,0.05 0.09,0.06 0.08,0.05 0.08,0.06 0.08,0.07 0.07,0.06 0.07,0.07 0.07,0.07 0.06,0.07 0.06,0.07 0.06,0.08 0.05,0.08 0.04,0.08 0.04,0.08 0.04,0.08 0.03,0.09 0.02,0.08 0.02,0.09 0.01,0.09 0,0.1 c 0,0.85 -0.9,1.49 -2.2,1.49 h -2.84 c -0.19,0 -0.28,0 -0.28,-0.2 0,-0.11 0.09,-0.11 0.27,-0.11 0.03,0 0.21,0 0.38,-0.02 0.18,-0.02 0.27,-0.03 0.27,-0.16 0,-0.04 -0.01,-0.07 -0.04,-0.19 l -1.33,-5.33 c -0.1,-0.39 -0.12,-0.47 -0.91,-0.47 -0.18,0 -0.27,0 -0.27,-0.2 0,-0.11 0.12,-0.11 0.14,-0.11 0.28,0 0.98,0.03 1.26,0.03 0.28,0 0.98,-0.03 1.26,-0.03 0.08,0 0.2,0 0.2,0.2 0,0.11 -0.09,0.11 -0.28,0.11 -0.37,0 -0.65,0 -0.65,0.18 0,0.06 0.03,0.11 0.04,0.17 l 0.65,2.63 h 1.19 l -0.01,0.22 h -1.12 l 0.65,2.59 c 0.06,0.24 0.09,0.34 0.28,0.37 0.09,0.01 0.4,0.01 0.6,0.01 0.71,0 1.81,0 1.81,-0.98 0,-0.34 -0.15,-1.03 -0.54,-1.41 -0.26,-0.26 -0.79,-0.58 -1.68,-0.58 l 0.01,-0.22 c 0.9,0 1.08,-0.55 1.08,-0.9 0,-0.15 -0.08,-0.46 -0.14,-0.69 -0.07,-0.28 -0.16,-0.64 -0.16,-0.84 0,-1.08 1.19,-1.08 1.32,-1.08 0.85,0 1.2,1.01 1.2,1.15 0,0.12 -0.11,0.12 -0.12,0.12 -0.09,0 -0.11,-0.07 -0.13,-0.14 -0.25,-0.74 -0.68,-0.91 -0.9,-0.91 -0.33,0 -0.4,0.22 -0.4,0.61 0,0.31 0.06,0.81 0.1,1.13 0.02,0.14 0.04,0.33 0.04,0.47 0,0.76 -0.67,1.07 -0.94,1.17 z"
   inkscape:connector-curvature="0"
   style="fill:#000000;stroke-width:0" />
<path
   id="path9095"
   d="m 413.52,515.58 0.02,0 0.03,-0.01 0.02,0 0.04,-0.01 0.03,-0.01 0.03,-0.01 0.04,-0.01 0.04,-0.01 0.04,-0.01 0.05,-0.02 0.04,-0.01 0.04,-0.02 0.05,-0.02 0.04,-0.02 0.04,-0.02 0.05,-0.02 0.04,-0.03 0.04,-0.03 0.04,-0.03 0.04,-0.03 0.04,-0.04 0.04,-0.03 0.03,-0.04 0.03,-0.05 0.03,-0.04 0.01,-0.02 0.02,-0.03 0.01,-0.02 0.01,-0.03 0.01,-0.02 0.01,-0.03 0.01,-0.03 0,-0.03 0.01,-0.03 0,-0.03 0.01,-0.03 0,-0.03 0,-0.03 0,-0.03 c 0,-0.51 -0.35,-0.91 -1.12,-0.91 -0.84,0 -1.2,0.57 -1.38,1.41 -0.03,0.13 -0.04,0.17 -0.14,0.17 -0.13,0 -0.13,-0.07 -0.13,-0.25 v -1.31 c 0,-0.17 0,-0.24 0.11,-0.24 0.05,0 0.06,0.01 0.25,0.2 0.01,0.02 0.01,0.04 0.19,0.23 0.44,-0.42 0.89,-0.43 1.1,-0.43 1.14,0 1.6,0.67 1.6,1.38 0,0.53 -0.3,0.83 -0.42,0.95 -0.33,0.32 -0.71,0.4 -1.13,0.47 -0.56,0.11 -1.22,0.24 -1.22,0.82 0,0.35 0.25,0.75 1.11,0.75 1.09,0 1.14,-0.89 1.16,-1.2 0.01,-0.09 0.1,-0.09 0.12,-0.09 0.13,0 0.13,0.05 0.13,0.24 v 1 c 0,0.17 0,0.24 -0.11,0.24 -0.05,0 -0.07,0 -0.2,-0.12 -0.03,-0.04 -0.13,-0.13 -0.17,-0.15 -0.37,0.27 -0.78,0.27 -0.93,0.27 -1.22,0 -1.59,-0.66 -1.59,-1.22 0,-0.35 0.16,-0.62 0.42,-0.84 0.32,-0.26 0.6,-0.32 1.32,-0.46 z"
   inkscape:connector-curvature="0"
   style="fill:#000000;stroke-width:0" />
<path
   id="path9097"
   d="m 417.14,518.04 -1.39,-0.11 v -0.3 c 0.64,0 0.73,-0.06 0.73,-0.55 v -2.67 c 0,-0.45 -0.11,-0.45 -0.77,-0.45 v -0.31 c 0.31,0.01 0.85,0.03 1.09,0.03 0.35,0 0.7,-0.02 1.04,-0.03 v 0.31 c -0.66,0 -0.7,0.05 -0.7,0.44 z"
   inkscape:connector-curvature="0"
   style="fill:#000000;stroke-width:0" />
<path
   id="path9099"
   d="m 417.18,519.77 0,0.03 0,0.03 -0.01,0.03 0,0.03 -0.01,0.02 -0.01,0.03 0,0.02 -0.01,0.03 -0.02,0.02 -0.01,0.03 -0.01,0.02 -0.01,0.02 -0.02,0.02 -0.02,0.02 -0.01,0.02 -0.02,0.01 -0.02,0.02 -0.02,0.02 -0.02,0.01 -0.02,0.02 -0.02,0.01 -0.02,0.01 -0.03,0.01 -0.02,0.01 -0.02,0.01 -0.03,0.01 -0.02,0 -0.03,0.01 -0.02,0 -0.03,0.01 -0.02,0 -0.03,0 c -0.31,0 -0.53,-0.27 -0.53,-0.53 0,-0.27 0.22,-0.52 0.53,-0.52 0.28,0 0.53,0.2 0.53,0.52 z"
   inkscape:connector-curvature="0"
   style="fill:#000000;stroke-width:0" />
<path
   id="path9101"
   d="m 419.24,517.07 v -2.66 c 0,-0.45 -0.11,-0.45 -0.78,-0.45 v -0.31 c 0.35,0.01 0.86,0.03 1.13,0.03 0.26,0 0.77,-0.02 1.11,-0.03 v 0.31 c -0.66,0 -0.77,0 -0.77,0.45 v 1.83 c 0,1.03 0.7,1.59 1.34,1.59 0.63,0 0.74,-0.54 0.74,-1.11 v -2.31 c 0,-0.45 -0.11,-0.45 -0.78,-0.45 v -0.31 c 0.35,0.01 0.86,0.03 1.12,0.03 0.26,0 0.78,-0.02 1.12,-0.03 v 0.31 c -0.52,0 -0.77,0 -0.78,0.3 v 1.9 c 0,0.85 0,1.16 -0.31,1.52 -0.14,0.16 -0.46,0.36 -1.04,0.36 -0.73,0 -1.19,-0.42 -1.47,-1.04 v 1.04 l -1.41,-0.11 v -0.3 c 0.7,0 0.78,-0.07 0.78,-0.56 z"
   inkscape:connector-curvature="0"
   style="fill:#000000;stroke-width:0" />
<path
   id="path9103"
   d="m 429.87,518.62 0,0.06 0,0.07 -0.01,0.07 0,0.08 -0.01,0.07 -0.01,0.08 0,0.08 -0.02,0.08 -0.01,0.09 -0.01,0.08 -0.02,0.09 -0.02,0.08 -0.02,0.09 -0.03,0.08 -0.03,0.08 -0.03,0.08 -0.03,0.08 -0.04,0.08 -0.04,0.07 -0.04,0.07 -0.05,0.07 -0.05,0.07 -0.05,0.06 -0.06,0.05 -0.06,0.05 -0.04,0.02 -0.03,0.02 -0.03,0.02 -0.04,0.02 -0.04,0.02 -0.03,0.02 -0.04,0.01 -0.04,0.01 -0.04,0.01 -0.05,0.01 -0.04,0.01 -0.04,0 -0.05,0.01 -0.05,0 -0.01,-0.22 c 0.49,0 0.55,-0.64 0.55,-1.2 0,-0.49 -0.08,-1 -0.32,-1.98 h -2.08 c 0.17,0.64 0.37,1.43 0.77,2.14 0.27,0.48 0.64,1.04 1.08,1.04 l 0.01,0.22 c -1.38,0 -2.91,-2.81 -2.91,-5.08 0,-0.93 0.29,-2.04 1.19,-2.04 v 0.22 c -0.33,0 -0.53,0.29 -0.53,1.21 0,0.42 0.06,1 0.31,1.97 h 2.07 c -0.11,-0.46 -0.32,-1.3 -0.69,-2.02 -0.35,-0.67 -0.73,-1.16 -1.16,-1.16 v -0.22 c 1.41,0 2.92,2.86 2.92,5.08 z"
   inkscape:connector-curvature="0"
   style="fill:#000000;stroke-width:0" />
<path
   id="path9105"
   d="m 456.83,521.1 -0.03,-0.03 -0.03,-0.03 -0.04,-0.03 -0.03,-0.03 -0.04,-0.04 -0.04,-0.04 -0.04,-0.04 -0.04,-0.04 -0.05,-0.05 -0.04,-0.05 -0.05,-0.05 -0.04,-0.05 -0.05,-0.05 -0.05,-0.06 -0.05,-0.06 -0.05,-0.06 -0.05,-0.07 -0.05,-0.07 -0.05,-0.07 -0.05,-0.07 -0.05,-0.08 -0.05,-0.08 -0.05,-0.08 -0.05,-0.09 -0.05,-0.09 -0.04,-0.09 -0.05,-0.09 -0.05,-0.1 -0.05,-0.11 -0.04,-0.1 -0.05,-0.11 -0.04,-0.11 c -0.4,-1.07 -0.47,-2.12 -0.47,-2.84 0,-3.21 1.44,-4.53 1.91,-4.97 h 0.61 c -0.48,0.48 -1.74,1.76 -1.74,4.97 0,0.55 0.03,1.71 0.44,2.89 0.4,1.15 0.97,1.75 1.3,2.07 z"
   inkscape:connector-curvature="0"
   style="fill:#000000;stroke-width:0" />
<path
   id="path9107"
   d="m 459.74,515.52 -1.23,-1.23 v -0.64 h 3.97 v 0.71 h -1.81 c -0.12,0 -0.24,-0.01 -0.36,-0.01 h -1.09 c 0.32,0.28 1.08,1.02 1.39,1.31 0.19,0.18 0.69,0.6 0.88,0.77 0.45,0.45 0.99,0.98 0.99,1.82 0,1.15 -0.81,2.14 -2.12,2.14 -1.14,0 -1.69,-0.78 -1.93,-1.63 0.12,-0.17 0.17,-0.23 0.19,-0.26 0.02,-0.02 0.12,-0.15 0.22,-0.29 0.2,0.77 0.47,1.54 1.38,1.54 0.93,0 1.44,-0.74 1.44,-1.52 0,-0.84 -0.56,-1.41 -1.15,-2 z"
   inkscape:connector-curvature="0"
   style="fill:#000000;stroke-width:0" />
<path
   id="path9109"
   d="m 464.16,511.17 0.03,0.03 0.03,0.03 0.03,0.03 0.04,0.04 0.04,0.03 0.04,0.04 0.04,0.04 0.04,0.05 0.04,0.04 0.05,0.05 0.04,0.05 0.05,0.05 0.05,0.06 0.05,0.05 0.05,0.06 0.04,0.07 0.05,0.06 0.05,0.07 0.05,0.07 0.05,0.07 0.05,0.08 0.06,0.08 0.05,0.08 0.04,0.09 0.05,0.09 0.05,0.09 0.05,0.1 0.05,0.1 0.04,0.1 0.05,0.1 0.04,0.11 0.05,0.11 c 0.4,1.07 0.47,2.12 0.47,2.85 0,3.2 -1.44,4.53 -1.91,4.96 h -0.61 c 0.48,-0.47 1.74,-1.76 1.74,-4.96 0,-0.56 -0.03,-1.72 -0.44,-2.89 -0.41,-1.16 -0.97,-1.75 -1.3,-2.08 z"
   inkscape:connector-curvature="0"
   style="fill:#000000;stroke-width:0" />
</g>  </g>
</svg>
