<?xml version="1.0" encoding="UTF-8"?>
<svg xmlns="http://www.w3.org/2000/svg" xmlns:xlink="http://www.w3.org/1999/xlink" width="298.28325pt" height="82.701063pt" viewBox="0 0 298.28325 82.701063" version="1.1">
<g id="surface1">
<path style=" stroke:none;fill-rule:nonzero;fill:rgb(0%,0%,0%);fill-opacity:1;" d="M 5.292969 7.773438 C 5.292969 7.441406 5.292969 7.363281 5.117188 7.363281 C 4.980469 7.363281 4.628906 7.753906 4.511719 7.910156 C 3.945312 7.460938 3.398438 7.363281 2.8125 7.363281 C 0.644531 7.363281 0 8.535156 0 9.53125 C 0 9.726562 0 10.351562 0.683594 10.976562 C 1.269531 11.484375 1.875 11.601562 2.695312 11.757812 C 3.671875 11.953125 3.90625 12.011719 4.355469 12.382812 C 4.6875 12.636719 4.921875 13.046875 4.921875 13.535156 C 4.921875 14.316406 4.472656 15.175781 2.890625 15.175781 C 1.71875 15.175781 0.839844 14.492188 0.449219 12.695312 C 0.390625 12.382812 0.390625 12.363281 0.371094 12.34375 C 0.332031 12.265625 0.253906 12.265625 0.195312 12.265625 C 0 12.265625 0 12.363281 0 12.675781 L 0 15.117188 C 0 15.449219 0 15.527344 0.175781 15.527344 C 0.273438 15.527344 0.292969 15.507812 0.605469 15.136719 C 0.683594 15.019531 0.683594 14.980469 0.957031 14.6875 C 1.640625 15.527344 2.597656 15.527344 2.910156 15.527344 C 4.785156 15.527344 5.722656 14.492188 5.722656 13.066406 C 5.722656 12.109375 5.136719 11.523438 4.980469 11.367188 C 4.335938 10.820312 3.847656 10.703125 2.65625 10.488281 C 2.128906 10.390625 0.820312 10.136719 0.820312 9.0625 C 0.820312 8.496094 1.191406 7.675781 2.8125 7.675781 C 4.765625 7.675781 4.863281 9.335938 4.902344 9.902344 C 4.921875 10.039062 5.039062 10.039062 5.097656 10.039062 C 5.292969 10.039062 5.292969 9.960938 5.292969 9.628906 Z M 5.292969 7.773438 "/>
<path style=" stroke:none;fill-rule:nonzero;fill:rgb(0%,0%,0%);fill-opacity:1;" d="M 9.4375 4.316406 C 9.4375 3.847656 9.046875 3.4375 8.558594 3.4375 C 8.089844 3.4375 7.699219 3.808594 7.699219 4.296875 C 7.699219 4.824219 8.128906 5.175781 8.558594 5.175781 C 9.105469 5.175781 9.4375 4.707031 9.4375 4.316406 Z M 6.957031 7.636719 L 6.957031 8.164062 C 8.109375 8.164062 8.265625 8.261719 8.265625 9.140625 L 8.265625 14.023438 C 8.265625 14.824219 8.070312 14.824219 6.898438 14.824219 L 6.898438 15.351562 C 7.40625 15.3125 8.265625 15.3125 8.792969 15.3125 C 8.988281 15.3125 10.023438 15.3125 10.628906 15.351562 L 10.628906 14.824219 C 9.476562 14.824219 9.398438 14.746094 9.398438 14.042969 L 9.398438 7.441406 Z M 6.957031 7.636719 "/>
<path style=" stroke:none;fill-rule:nonzero;fill:rgb(0%,0%,0%);fill-opacity:1;" d="M 19.253906 10.996094 C 19.253906 9.335938 19.253906 8.828125 18.824219 8.242188 C 18.316406 7.558594 17.476562 7.441406 16.851562 7.441406 C 15.113281 7.441406 14.429688 8.925781 14.292969 9.296875 L 14.273438 9.296875 L 14.273438 7.441406 L 11.832031 7.636719 L 11.832031 8.164062 C 13.0625 8.164062 13.199219 8.28125 13.199219 9.160156 L 13.199219 14.023438 C 13.199219 14.824219 13.003906 14.824219 11.832031 14.824219 L 11.832031 15.351562 C 12.300781 15.3125 13.277344 15.3125 13.785156 15.3125 C 14.292969 15.3125 15.269531 15.3125 15.738281 15.351562 L 15.738281 14.824219 C 14.585938 14.824219 14.371094 14.824219 14.371094 14.023438 L 14.371094 10.683594 C 14.371094 8.808594 15.601562 7.8125 16.714844 7.8125 C 17.828125 7.8125 18.082031 8.710938 18.082031 9.804688 L 18.082031 14.023438 C 18.082031 14.824219 17.886719 14.824219 16.714844 14.824219 L 16.714844 15.351562 C 17.183594 15.3125 18.160156 15.3125 18.648438 15.3125 C 19.175781 15.3125 20.132812 15.3125 20.601562 15.351562 L 20.601562 14.824219 C 19.703125 14.824219 19.253906 14.824219 19.253906 14.296875 Z M 19.253906 10.996094 "/>
<path style=" stroke:none;fill-rule:nonzero;fill:rgb(0%,0%,0%);fill-opacity:1;" d="M 26.601562 5.800781 C 26.601562 4.316406 25.585938 3.066406 24.238281 3.066406 C 23.652344 3.066406 23.105469 3.261719 22.65625 3.710938 L 22.65625 1.269531 C 22.910156 1.347656 23.320312 1.425781 23.710938 1.425781 C 25.253906 1.425781 26.132812 0.292969 26.132812 0.136719 C 26.132812 0.0585938 26.09375 0 25.996094 0 C 25.996094 0 25.957031 0 25.898438 0.0390625 C 25.644531 0.15625 25.039062 0.410156 24.199219 0.410156 C 23.710938 0.410156 23.125 0.3125 22.539062 0.0585938 C 22.441406 0.0195312 22.421875 0.0195312 22.402344 0.0195312 C 22.265625 0.0195312 22.265625 0.117188 22.265625 0.3125 L 22.265625 4.003906 C 22.265625 4.21875 22.265625 4.316406 22.441406 4.316406 C 22.539062 4.316406 22.558594 4.296875 22.617188 4.21875 C 22.753906 4.023438 23.203125 3.339844 24.21875 3.339844 C 24.863281 3.339844 25.175781 3.90625 25.273438 4.140625 C 25.46875 4.609375 25.507812 5.078125 25.507812 5.703125 C 25.507812 6.152344 25.507812 6.894531 25.195312 7.421875 C 24.902344 7.910156 24.433594 8.222656 23.867188 8.222656 C 22.96875 8.222656 22.246094 7.558594 22.03125 6.835938 C 22.070312 6.835938 22.109375 6.855469 22.246094 6.855469 C 22.65625 6.855469 22.871094 6.542969 22.871094 6.25 C 22.871094 5.9375 22.65625 5.625 22.246094 5.625 C 22.070312 5.625 21.640625 5.722656 21.640625 6.289062 C 21.640625 7.363281 22.5 8.574219 23.886719 8.574219 C 25.332031 8.574219 26.601562 7.382812 26.601562 5.800781 Z M 26.601562 5.800781 "/>
<path style=" stroke:none;fill-rule:nonzero;fill:rgb(0%,0%,0%);fill-opacity:1;" d="M 39.410156 8.027344 C 38.84375 8.144531 38.628906 8.574219 38.628906 8.90625 C 38.628906 9.335938 38.960938 9.492188 39.214844 9.492188 C 39.761719 9.492188 40.132812 9.023438 40.132812 8.535156 C 40.132812 7.792969 39.273438 7.441406 38.511719 7.441406 C 37.417969 7.441406 36.8125 8.515625 36.65625 8.867188 C 36.246094 7.519531 35.132812 7.441406 34.800781 7.441406 C 32.984375 7.441406 32.007812 9.785156 32.007812 10.195312 C 32.007812 10.253906 32.085938 10.351562 32.203125 10.351562 C 32.339844 10.351562 32.378906 10.234375 32.417969 10.175781 C 33.023438 8.183594 34.234375 7.8125 34.742188 7.8125 C 35.5625 7.8125 35.71875 8.554688 35.71875 8.984375 C 35.71875 9.375 35.621094 9.785156 35.386719 10.644531 L 34.78125 13.105469 C 34.527344 14.179688 34 15.175781 33.042969 15.175781 C 32.964844 15.175781 32.515625 15.175781 32.125 14.941406 C 32.769531 14.804688 32.925781 14.277344 32.925781 14.0625 C 32.925781 13.710938 32.652344 13.496094 32.320312 13.496094 C 31.890625 13.496094 31.421875 13.867188 31.421875 14.433594 C 31.421875 15.195312 32.261719 15.527344 33.023438 15.527344 C 33.882812 15.527344 34.507812 14.84375 34.878906 14.121094 C 35.171875 15.175781 36.050781 15.527344 36.714844 15.527344 C 38.550781 15.527344 39.527344 13.183594 39.527344 12.792969 C 39.527344 12.695312 39.449219 12.617188 39.332031 12.617188 C 39.175781 12.617188 39.15625 12.714844 39.117188 12.851562 C 38.628906 14.433594 37.574219 15.175781 36.773438 15.175781 C 36.148438 15.175781 35.816406 14.707031 35.816406 13.964844 C 35.816406 13.574219 35.875 13.28125 36.167969 12.109375 L 36.792969 9.667969 C 37.066406 8.59375 37.671875 7.8125 38.492188 7.8125 C 38.53125 7.8125 39.039062 7.8125 39.410156 8.027344 Z M 39.410156 8.027344 "/>
<path style=" stroke:none;fill-rule:nonzero;fill:rgb(0%,0%,0%);fill-opacity:1;" d="M 49.496094 3.183594 L 47.953125 3.183594 L 47.953125 4.726562 L 49.496094 4.726562 Z M 49.398438 7.382812 L 48.070312 7.382812 L 48.070312 15.351562 L 49.398438 15.351562 Z M 49.398438 7.382812 "/>
<path style=" stroke:none;fill-rule:nonzero;fill:rgb(0%,0%,0%);fill-opacity:1;" d="M 56.878906 7.675781 C 55.746094 7.148438 54.769531 7.128906 54.359375 7.128906 C 53.949219 7.128906 51.449219 7.128906 51.449219 9.453125 C 51.449219 10.234375 51.878906 10.78125 52.152344 11.035156 C 52.796875 11.582031 53.246094 11.679688 54.300781 11.894531 C 54.90625 12.011719 55.941406 12.226562 55.941406 13.183594 C 55.941406 14.414062 54.535156 14.414062 54.28125 14.414062 C 53.578125 14.414062 52.523438 14.21875 51.566406 13.515625 L 51.351562 14.746094 C 51.429688 14.804688 52.660156 15.527344 54.300781 15.527344 C 56.625 15.527344 57.171875 14.140625 57.171875 13.066406 C 57.171875 12.167969 56.625 11.582031 56.546875 11.503906 C 55.882812 10.820312 55.335938 10.703125 54.261719 10.488281 C 53.597656 10.371094 52.699219 10.195312 52.699219 9.296875 C 52.699219 8.183594 53.949219 8.183594 54.183594 8.183594 C 55.121094 8.183594 55.882812 8.398438 56.664062 8.847656 Z M 56.878906 7.675781 "/>
<path style=" stroke:none;fill-rule:nonzero;fill:rgb(0%,0%,0%);fill-opacity:1;" d="M 70.324219 10.097656 C 70.324219 8.378906 69.09375 7.128906 67.414062 7.128906 C 66.339844 7.128906 65.539062 7.363281 64.660156 7.871094 L 64.757812 9.0625 C 65.558594 8.476562 66.378906 8.164062 67.414062 8.164062 C 68.234375 8.164062 68.957031 8.828125 68.957031 10.136719 L 68.957031 10.878906 C 68.15625 10.898438 67.082031 10.957031 66.007812 11.308594 C 64.796875 11.738281 64.09375 12.402344 64.09375 13.28125 C 64.09375 14.082031 64.5625 15.527344 66.085938 15.527344 C 67.082031 15.527344 68.332031 15.234375 68.996094 14.6875 L 68.996094 15.351562 L 70.324219 15.351562 Z M 68.957031 12.949219 C 68.957031 13.300781 68.957031 13.730469 68.371094 14.101562 C 67.882812 14.394531 67.277344 14.453125 67.003906 14.453125 C 66.046875 14.453125 65.382812 13.925781 65.382812 13.28125 C 65.382812 12.050781 67.863281 11.777344 68.957031 11.777344 Z M 68.957031 12.949219 "/>
<path style=" stroke:none;fill-rule:nonzero;fill:rgb(0%,0%,0%);fill-opacity:1;" d="M 79.3125 9.960938 C 79.3125 8.867188 79.078125 7.207031 76.910156 7.207031 C 75.914062 7.207031 75.054688 7.65625 74.371094 8.515625 L 74.371094 7.304688 L 73.101562 7.304688 L 73.101562 15.351562 L 74.449219 15.351562 L 74.449219 10.878906 C 74.449219 9.785156 74.878906 8.28125 76.226562 8.28125 C 77.90625 8.28125 77.945312 9.453125 77.945312 10.078125 L 77.945312 15.351562 L 79.3125 15.351562 Z M 79.3125 9.960938 "/>
<path style=" stroke:none;fill-rule:nonzero;fill:rgb(0%,0%,0%);fill-opacity:1;" d="M 94.019531 11.308594 C 94.019531 10.546875 93.941406 9.453125 93.375 8.496094 C 92.632812 7.265625 91.382812 7.128906 90.855469 7.128906 C 88.921875 7.128906 87.300781 8.984375 87.300781 11.308594 C 87.300781 13.691406 89.019531 15.527344 91.109375 15.527344 C 91.929688 15.527344 92.925781 15.292969 93.902344 14.589844 C 93.902344 14.511719 93.84375 13.945312 93.84375 13.925781 C 93.824219 13.90625 93.804688 13.496094 93.804688 13.4375 C 92.730469 14.335938 91.675781 14.453125 91.148438 14.453125 C 89.761719 14.453125 88.570312 13.222656 88.550781 11.308594 Z M 88.648438 10.351562 C 88.960938 9.140625 89.800781 8.203125 90.855469 8.203125 C 91.421875 8.203125 92.652344 8.457031 92.945312 10.351562 Z M 88.648438 10.351562 "/>
<path style=" stroke:none;fill-rule:nonzero;fill:rgb(0%,0%,0%);fill-opacity:1;" d="M 102.269531 7.382812 L 100.941406 7.382812 L 99.632812 10.957031 C 99.320312 11.816406 98.65625 13.710938 98.558594 14.375 L 98.539062 14.375 C 98.441406 13.75 98.089844 12.773438 97.816406 11.992188 L 96.15625 7.382812 L 94.769531 7.382812 L 97.71875 15.351562 L 99.320312 15.351562 Z M 102.269531 7.382812 "/>
<path style=" stroke:none;fill-rule:nonzero;fill:rgb(0%,0%,0%);fill-opacity:1;" d="M 109.917969 11.308594 C 109.917969 10.546875 109.839844 9.453125 109.273438 8.496094 C 108.53125 7.265625 107.28125 7.128906 106.753906 7.128906 C 104.820312 7.128906 103.199219 8.984375 103.199219 11.308594 C 103.199219 13.691406 104.917969 15.527344 107.007812 15.527344 C 107.828125 15.527344 108.824219 15.292969 109.800781 14.589844 C 109.800781 14.511719 109.742188 13.945312 109.742188 13.925781 C 109.722656 13.90625 109.703125 13.496094 109.703125 13.4375 C 108.628906 14.335938 107.574219 14.453125 107.046875 14.453125 C 105.660156 14.453125 104.46875 13.222656 104.449219 11.308594 Z M 104.546875 10.351562 C 104.859375 9.140625 105.699219 8.203125 106.753906 8.203125 C 107.320312 8.203125 108.550781 8.457031 108.84375 10.351562 Z M 104.546875 10.351562 "/>
<path style=" stroke:none;fill-rule:nonzero;fill:rgb(0%,0%,0%);fill-opacity:1;" d="M 118.011719 9.960938 C 118.011719 8.867188 117.777344 7.207031 115.609375 7.207031 C 114.613281 7.207031 113.753906 7.65625 113.070312 8.515625 L 113.070312 7.304688 L 111.800781 7.304688 L 111.800781 15.351562 L 113.148438 15.351562 L 113.148438 10.878906 C 113.148438 9.785156 113.578125 8.28125 114.925781 8.28125 C 116.605469 8.28125 116.644531 9.453125 116.644531 10.078125 L 116.644531 15.351562 L 118.011719 15.351562 Z M 118.011719 9.960938 "/>
<path style=" stroke:none;fill-rule:nonzero;fill:rgb(0%,0%,0%);fill-opacity:1;" d="M 128.21875 8.4375 L 130.132812 8.4375 L 130.132812 7.382812 L 128.179688 7.382812 L 128.179688 5.234375 C 128.179688 4.023438 129.195312 3.808594 129.800781 3.808594 C 130.425781 3.808594 130.972656 4.003906 131.1875 4.082031 L 131.1875 2.910156 C 131.070312 2.871094 130.464844 2.734375 129.820312 2.734375 C 128.101562 2.734375 126.890625 4.042969 126.890625 5.78125 L 126.890625 7.382812 L 125.582031 7.382812 L 125.582031 8.4375 L 126.890625 8.4375 L 126.890625 15.351562 L 128.21875 15.351562 Z M 128.21875 8.4375 "/>
<path style=" stroke:none;fill-rule:nonzero;fill:rgb(0%,0%,0%);fill-opacity:1;" d="M 138.109375 7.382812 L 136.742188 7.382812 L 136.742188 12.519531 C 136.742188 13.886719 135.804688 14.550781 134.632812 14.550781 C 133.382812 14.550781 133.246094 14.082031 133.246094 13.28125 L 133.246094 7.382812 L 131.898438 7.382812 L 131.898438 13.359375 C 131.898438 14.648438 132.308594 15.527344 133.773438 15.527344 C 134.28125 15.527344 135.6875 15.449219 136.78125 14.453125 L 136.78125 15.351562 L 138.109375 15.351562 Z M 138.109375 7.382812 "/>
<path style=" stroke:none;fill-rule:nonzero;fill:rgb(0%,0%,0%);fill-opacity:1;" d="M 147.109375 9.960938 C 147.109375 8.867188 146.875 7.207031 144.707031 7.207031 C 143.710938 7.207031 142.851562 7.65625 142.167969 8.515625 L 142.167969 7.304688 L 140.898438 7.304688 L 140.898438 15.351562 L 142.246094 15.351562 L 142.246094 10.878906 C 142.246094 9.785156 142.675781 8.28125 144.023438 8.28125 C 145.703125 8.28125 145.742188 9.453125 145.742188 10.078125 L 145.742188 15.351562 L 147.109375 15.351562 Z M 147.109375 9.960938 "/>
<path style=" stroke:none;fill-rule:nonzero;fill:rgb(0%,0%,0%);fill-opacity:1;" d="M 155.699219 13.417969 C 154.878906 14.082031 153.960938 14.414062 152.964844 14.414062 C 151.460938 14.414062 150.503906 13.085938 150.503906 11.347656 C 150.503906 9.863281 151.226562 8.242188 153.003906 8.242188 C 154.214844 8.242188 154.722656 8.515625 155.484375 9.042969 L 155.699219 7.871094 C 154.664062 7.265625 154.078125 7.128906 153.003906 7.128906 C 150.542969 7.128906 149.136719 9.316406 149.136719 11.347656 C 149.136719 13.652344 150.796875 15.527344 152.945312 15.527344 C 153.824219 15.527344 154.820312 15.3125 155.816406 14.589844 C 155.816406 14.550781 155.757812 13.984375 155.738281 13.925781 Z M 155.699219 13.417969 "/>
<path style=" stroke:none;fill-rule:nonzero;fill:rgb(0%,0%,0%);fill-opacity:1;" d="M 159.378906 8.4375 L 161.859375 8.4375 L 161.859375 7.382812 L 159.378906 7.382812 L 159.378906 5.117188 L 158.148438 5.117188 L 158.148438 7.382812 L 156.644531 7.382812 L 156.644531 8.4375 L 158.109375 8.4375 L 158.109375 13.261719 C 158.109375 14.296875 158.34375 15.527344 159.574219 15.527344 C 160.785156 15.527344 161.605469 15.117188 162.152344 14.824219 L 161.878906 13.789062 C 161.253906 14.355469 160.589844 14.414062 160.277344 14.414062 C 159.476562 14.414062 159.378906 13.574219 159.378906 12.949219 Z M 159.378906 8.4375 "/>
<path style=" stroke:none;fill-rule:nonzero;fill:rgb(0%,0%,0%);fill-opacity:1;" d="M 165.445312 3.183594 L 163.902344 3.183594 L 163.902344 4.726562 L 165.445312 4.726562 Z M 165.347656 7.382812 L 164.019531 7.382812 L 164.019531 15.351562 L 165.347656 15.351562 Z M 165.347656 7.382812 "/>
<path style=" stroke:none;fill-rule:nonzero;fill:rgb(0%,0%,0%);fill-opacity:1;" d="M 175.035156 11.40625 C 175.035156 8.984375 173.257812 7.128906 171.207031 7.128906 C 169.097656 7.128906 167.359375 9.023438 167.359375 11.40625 C 167.359375 13.75 169.136719 15.527344 171.1875 15.527344 C 173.296875 15.527344 175.035156 13.710938 175.035156 11.40625 Z M 171.207031 14.414062 C 169.917969 14.414062 168.707031 13.339844 168.707031 11.230469 C 168.707031 9.0625 170.054688 8.203125 171.1875 8.203125 C 172.417969 8.203125 173.6875 9.121094 173.6875 11.230469 C 173.6875 13.4375 172.398438 14.414062 171.207031 14.414062 Z M 171.207031 14.414062 "/>
<path style=" stroke:none;fill-rule:nonzero;fill:rgb(0%,0%,0%);fill-opacity:1;" d="M 183.261719 9.960938 C 183.261719 8.867188 183.027344 7.207031 180.859375 7.207031 C 179.863281 7.207031 179.003906 7.65625 178.320312 8.515625 L 178.320312 7.304688 L 177.050781 7.304688 L 177.050781 15.351562 L 178.398438 15.351562 L 178.398438 10.878906 C 178.398438 9.785156 178.828125 8.28125 180.175781 8.28125 C 181.855469 8.28125 181.894531 9.453125 181.894531 10.078125 L 181.894531 15.351562 L 183.261719 15.351562 Z M 183.261719 9.960938 "/>
<path style=" stroke:none;fill-rule:nonzero;fill:rgb(0%,0%,0%);fill-opacity:1;" d="M 187.828125 13.90625 L 186.363281 13.90625 L 186.363281 15.351562 L 187.828125 15.351562 Z M 187.828125 13.90625 "/>
<path style=" stroke:none;fill-rule:nonzero;fill:rgb(0%,0%,0%);fill-opacity:1;" d="M 203.84375 2.910156 L 202.261719 2.910156 L 197.75 15.351562 L 199.078125 15.351562 L 200.386719 11.71875 L 205.445312 11.71875 L 206.773438 15.351562 L 208.355469 15.351562 Z M 202.90625 4.199219 L 205.054688 10.703125 L 200.777344 10.703125 Z M 202.90625 4.199219 "/>
<path style=" stroke:none;fill-rule:nonzero;fill:rgb(0%,0%,0%);fill-opacity:1;" d="M 216.410156 9.960938 C 216.410156 8.867188 216.175781 7.207031 214.007812 7.207031 C 213.011719 7.207031 212.152344 7.65625 211.46875 8.515625 L 211.46875 7.304688 L 210.199219 7.304688 L 210.199219 15.351562 L 211.546875 15.351562 L 211.546875 10.878906 C 211.546875 9.785156 211.976562 8.28125 213.324219 8.28125 C 215.003906 8.28125 215.042969 9.453125 215.042969 10.078125 L 215.042969 15.351562 L 216.410156 15.351562 Z M 216.410156 9.960938 "/>
<path style=" stroke:none;fill-rule:nonzero;fill:rgb(0%,0%,0%);fill-opacity:1;" d="M 225.390625 2.910156 L 224.0625 2.910156 L 224.0625 8.144531 C 223.242188 7.460938 222.304688 7.207031 221.542969 7.207031 C 219.84375 7.207031 218.4375 9.042969 218.4375 11.367188 C 218.4375 13.691406 219.765625 15.527344 221.464844 15.527344 C 222.128906 15.527344 223.144531 15.3125 224.042969 14.433594 L 224.042969 15.351562 L 225.390625 15.351562 Z M 224.042969 13.242188 C 223.613281 14.003906 222.96875 14.453125 222.1875 14.453125 C 221.09375 14.453125 219.804688 13.613281 219.804688 11.386719 C 219.804688 9.003906 221.328125 8.28125 222.363281 8.28125 C 223.066406 8.28125 223.632812 8.652344 224.042969 9.238281 Z M 224.042969 13.242188 "/>
<path style=" stroke:none;fill-rule:nonzero;fill:rgb(0%,0%,0%);fill-opacity:1;" d="M 235.878906 8.4375 L 238.359375 8.4375 L 238.359375 7.382812 L 235.878906 7.382812 L 235.878906 5.117188 L 234.648438 5.117188 L 234.648438 7.382812 L 233.144531 7.382812 L 233.144531 8.4375 L 234.609375 8.4375 L 234.609375 13.261719 C 234.609375 14.296875 234.84375 15.527344 236.074219 15.527344 C 237.285156 15.527344 238.105469 15.117188 238.652344 14.824219 L 238.378906 13.789062 C 237.753906 14.355469 237.089844 14.414062 236.777344 14.414062 C 235.976562 14.414062 235.878906 13.574219 235.878906 12.949219 Z M 235.878906 8.4375 "/>
<path style=" stroke:none;fill-rule:nonzero;fill:rgb(0%,0%,0%);fill-opacity:1;" d="M 246.710938 9.960938 C 246.710938 8.867188 246.476562 7.207031 244.308594 7.207031 C 243.078125 7.207031 242.257812 7.910156 241.828125 8.457031 L 241.828125 2.910156 L 240.5 2.910156 L 240.5 15.351562 L 241.847656 15.351562 L 241.847656 10.878906 C 241.847656 9.785156 242.277344 8.28125 243.625 8.28125 C 245.304688 8.28125 245.34375 9.453125 245.34375 10.078125 L 245.34375 15.351562 L 246.710938 15.351562 Z M 246.710938 9.960938 "/>
<path style=" stroke:none;fill-rule:nonzero;fill:rgb(0%,0%,0%);fill-opacity:1;" d="M 255.417969 11.308594 C 255.417969 10.546875 255.339844 9.453125 254.773438 8.496094 C 254.03125 7.265625 252.78125 7.128906 252.253906 7.128906 C 250.320312 7.128906 248.699219 8.984375 248.699219 11.308594 C 248.699219 13.691406 250.417969 15.527344 252.507812 15.527344 C 253.328125 15.527344 254.324219 15.292969 255.300781 14.589844 C 255.300781 14.511719 255.242188 13.945312 255.242188 13.925781 C 255.222656 13.90625 255.203125 13.496094 255.203125 13.4375 C 254.128906 14.335938 253.074219 14.453125 252.546875 14.453125 C 251.160156 14.453125 249.96875 13.222656 249.949219 11.308594 Z M 250.046875 10.351562 C 250.359375 9.140625 251.199219 8.203125 252.253906 8.203125 C 252.820312 8.203125 254.050781 8.457031 254.34375 10.351562 Z M 250.046875 10.351562 "/>
<path style=" stroke:none;fill-rule:nonzero;fill:rgb(0%,0%,0%);fill-opacity:1;" d="M 258.648438 11.425781 C 258.648438 9.609375 259.996094 8.4375 261.617188 8.417969 L 261.617188 7.207031 C 259.976562 7.226562 259.039062 8.183594 258.550781 8.886719 L 258.550781 7.304688 L 257.320312 7.304688 L 257.320312 15.351562 L 258.648438 15.351562 Z M 258.648438 11.425781 "/>
<path style=" stroke:none;fill-rule:nonzero;fill:rgb(0%,0%,0%);fill-opacity:1;" d="M 269.21875 11.308594 C 269.21875 10.546875 269.140625 9.453125 268.574219 8.496094 C 267.832031 7.265625 266.582031 7.128906 266.054688 7.128906 C 264.121094 7.128906 262.5 8.984375 262.5 11.308594 C 262.5 13.691406 264.21875 15.527344 266.308594 15.527344 C 267.128906 15.527344 268.125 15.292969 269.101562 14.589844 C 269.101562 14.511719 269.042969 13.945312 269.042969 13.925781 C 269.023438 13.90625 269.003906 13.496094 269.003906 13.4375 C 267.929688 14.335938 266.875 14.453125 266.347656 14.453125 C 264.960938 14.453125 263.769531 13.222656 263.75 11.308594 Z M 263.847656 10.351562 C 264.160156 9.140625 265 8.203125 266.054688 8.203125 C 266.621094 8.203125 267.851562 8.457031 268.144531 10.351562 Z M 263.847656 10.351562 "/>
<path style=" stroke:none;fill-rule:nonzero;fill:rgb(0%,0%,0%);fill-opacity:1;" d="M 272.820312 8.4375 L 274.734375 8.4375 L 274.734375 7.382812 L 272.78125 7.382812 L 272.78125 5.234375 C 272.78125 4.023438 273.796875 3.808594 274.402344 3.808594 C 275.027344 3.808594 275.574219 4.003906 275.789062 4.082031 L 275.789062 2.910156 C 275.671875 2.871094 275.066406 2.734375 274.421875 2.734375 C 272.703125 2.734375 271.492188 4.042969 271.492188 5.78125 L 271.492188 7.382812 L 270.183594 7.382812 L 270.183594 8.4375 L 271.492188 8.4375 L 271.492188 15.351562 L 272.820312 15.351562 Z M 272.820312 8.4375 "/>
<path style=" stroke:none;fill-rule:nonzero;fill:rgb(0%,0%,0%);fill-opacity:1;" d="M 283.335938 11.40625 C 283.335938 8.984375 281.558594 7.128906 279.507812 7.128906 C 277.398438 7.128906 275.660156 9.023438 275.660156 11.40625 C 275.660156 13.75 277.4375 15.527344 279.488281 15.527344 C 281.597656 15.527344 283.335938 13.710938 283.335938 11.40625 Z M 279.507812 14.414062 C 278.21875 14.414062 277.007812 13.339844 277.007812 11.230469 C 277.007812 9.0625 278.355469 8.203125 279.488281 8.203125 C 280.71875 8.203125 281.988281 9.121094 281.988281 11.230469 C 281.988281 13.4375 280.699219 14.414062 279.507812 14.414062 Z M 279.507812 14.414062 "/>
<path style=" stroke:none;fill-rule:nonzero;fill:rgb(0%,0%,0%);fill-opacity:1;" d="M 286.246094 11.425781 C 286.246094 9.609375 287.59375 8.4375 289.214844 8.417969 L 289.214844 7.207031 C 287.574219 7.226562 286.636719 8.183594 286.148438 8.886719 L 286.148438 7.304688 L 284.917969 7.304688 L 284.917969 15.351562 L 286.246094 15.351562 Z M 286.246094 11.425781 "/>
<path style=" stroke:none;fill-rule:nonzero;fill:rgb(0%,0%,0%);fill-opacity:1;" d="M 296.816406 11.308594 C 296.816406 10.546875 296.738281 9.453125 296.171875 8.496094 C 295.429688 7.265625 294.179688 7.128906 293.652344 7.128906 C 291.71875 7.128906 290.097656 8.984375 290.097656 11.308594 C 290.097656 13.691406 291.816406 15.527344 293.90625 15.527344 C 294.726562 15.527344 295.722656 15.292969 296.699219 14.589844 C 296.699219 14.511719 296.640625 13.945312 296.640625 13.925781 C 296.621094 13.90625 296.601562 13.496094 296.601562 13.4375 C 295.527344 14.335938 294.472656 14.453125 293.945312 14.453125 C 292.558594 14.453125 291.367188 13.222656 291.347656 11.308594 Z M 291.445312 10.351562 C 291.757812 9.140625 292.597656 8.203125 293.652344 8.203125 C 294.21875 8.203125 295.449219 8.457031 295.742188 10.351562 Z M 291.445312 10.351562 "/>
<path style=" stroke:none;fill-rule:nonzero;fill:rgb(0%,0%,0%);fill-opacity:1;" d="M 20.011719 60.308594 C 19.386719 61.363281 18.78125 61.734375 17.921875 61.773438 C 17.726562 61.792969 17.570312 61.792969 17.570312 62.125 C 17.570312 62.222656 17.667969 62.300781 17.785156 62.300781 C 18.117188 62.300781 18.917969 62.261719 19.25 62.261719 C 19.757812 62.261719 20.34375 62.300781 20.832031 62.300781 C 20.949219 62.300781 21.164062 62.300781 21.164062 61.96875 C 21.164062 61.792969 21.007812 61.773438 20.910156 61.773438 C 20.5 61.753906 20.148438 61.597656 20.148438 61.167969 C 20.148438 60.914062 20.265625 60.71875 20.5 60.328125 L 21.867188 58.0625 L 26.4375 58.0625 C 26.457031 58.238281 26.457031 58.375 26.476562 58.53125 C 26.515625 59 26.730469 60.875 26.730469 61.207031 C 26.730469 61.753906 25.8125 61.773438 25.539062 61.773438 C 25.34375 61.773438 25.148438 61.773438 25.148438 62.105469 C 25.148438 62.300781 25.304688 62.300781 25.402344 62.300781 C 25.714844 62.300781 26.066406 62.261719 26.378906 62.261719 L 27.394531 62.261719 C 28.488281 62.261719 29.289062 62.300781 29.308594 62.300781 C 29.425781 62.300781 29.621094 62.300781 29.621094 61.96875 C 29.621094 61.773438 29.464844 61.773438 29.191406 61.773438 C 28.214844 61.773438 28.195312 61.617188 28.136719 61.089844 L 27.042969 49.898438 C 27.003906 49.527344 26.925781 49.507812 26.730469 49.507812 C 26.554688 49.507812 26.457031 49.527344 26.28125 49.800781 Z M 22.160156 57.554688 L 25.773438 51.519531 L 26.378906 57.554688 Z M 22.160156 57.554688 "/>
<path style=" stroke:none;fill-rule:nonzero;fill:rgb(0%,0%,0%);fill-opacity:1;" d="M 47.222656 56.5 C 47.476562 56.5 47.789062 56.5 47.789062 56.167969 C 47.789062 55.835938 47.476562 55.835938 47.222656 55.835938 L 36.65625 55.835938 C 36.402344 55.835938 36.089844 55.835938 36.089844 56.148438 C 36.089844 56.5 36.382812 56.5 36.65625 56.5 Z M 47.222656 59.820312 C 47.476562 59.820312 47.789062 59.820312 47.789062 59.507812 C 47.789062 59.15625 47.476562 59.15625 47.222656 59.15625 L 36.65625 59.15625 C 36.402344 59.15625 36.089844 59.15625 36.089844 59.488281 C 36.089844 59.820312 36.382812 59.820312 36.65625 59.820312 Z M 47.222656 59.820312 "/>
<path style=" stroke:none;fill-rule:nonzero;fill:rgb(0%,0%,0%);fill-opacity:1;" d="M 55.570312 76.875 C 56.15625 76.855469 56.449219 76.445312 56.449219 76.015625 C 56.449219 75.410156 56.019531 75.136719 55.589844 75.136719 C 55.160156 75.136719 54.710938 75.390625 54.710938 76.015625 C 54.710938 76.933594 55.609375 77.695312 56.703125 77.695312 C 59.4375 77.695312 60.453125 73.496094 61.722656 68.300781 C 63.109375 62.636719 64.28125 56.914062 65.238281 51.152344 C 65.902344 47.34375 66.566406 43.75 67.171875 41.445312 C 67.386719 40.566406 68.011719 38.242188 68.695312 38.242188 C 69.261719 38.242188 69.710938 38.59375 69.789062 38.652344 C 69.183594 38.691406 68.890625 39.082031 68.890625 39.53125 C 68.890625 40.136719 69.339844 40.410156 69.75 40.410156 C 70.179688 40.410156 70.628906 40.15625 70.628906 39.511719 C 70.628906 38.554688 69.652344 37.851562 68.675781 37.851562 C 67.308594 37.851562 66.292969 39.804688 65.316406 43.457031 C 65.257812 43.652344 62.816406 52.65625 60.84375 64.394531 C 60.375 67.128906 59.867188 70.117188 59.28125 72.617188 C 58.949219 73.925781 58.128906 77.304688 56.664062 77.304688 C 56.019531 77.304688 55.589844 76.875 55.570312 76.875 Z M 55.570312 76.875 "/>
<path style=" stroke:none;fill-rule:nonzero;fill:rgb(0%,0%,0%);fill-opacity:1;" d="M 75.929688 34.6875 L 76.964844 34.6875 C 76.828125 35.214844 76.632812 35.996094 76.632812 36.699219 C 76.632812 37.050781 76.691406 37.285156 76.730469 37.460938 C 76.867188 37.910156 76.984375 37.929688 77.121094 37.929688 C 77.335938 37.929688 77.53125 37.753906 77.53125 37.539062 C 77.53125 37.480469 77.511719 37.441406 77.472656 37.363281 C 77.296875 37.03125 77.140625 36.542969 77.140625 35.820312 C 77.140625 35.664062 77.140625 35.3125 77.257812 34.6875 L 78.351562 34.6875 C 78.507812 34.6875 78.585938 34.6875 78.683594 34.628906 C 78.800781 34.53125 78.820312 34.394531 78.820312 34.355469 C 78.820312 34.101562 78.605469 34.101562 78.449219 34.101562 L 75.167969 34.101562 C 74.816406 34.101562 74.5625 34.179688 74.171875 34.550781 C 73.9375 34.746094 73.605469 35.214844 73.605469 35.292969 C 73.605469 35.390625 73.722656 35.390625 73.761719 35.390625 C 73.859375 35.390625 73.859375 35.371094 73.917969 35.292969 C 74.347656 34.6875 74.894531 34.6875 75.089844 34.6875 L 75.617188 34.6875 C 75.34375 35.644531 74.875 36.679688 74.621094 37.207031 C 74.5625 37.304688 74.484375 37.5 74.445312 37.519531 C 74.445312 37.558594 74.425781 37.597656 74.425781 37.65625 C 74.425781 37.792969 74.523438 37.929688 74.738281 37.929688 C 75.070312 37.929688 75.167969 37.539062 75.382812 36.757812 Z M 75.929688 34.6875 "/>
<path style=" stroke:none;fill-rule:nonzero;fill:rgb(0%,0%,0%);fill-opacity:1;" d="M 73.199219 39.367188 L 79.351562 39.367188 L 79.351562 39.964844 L 73.199219 39.964844 Z M 73.199219 39.367188 "/>
<path style=" stroke:none;fill-rule:nonzero;fill:rgb(0%,0%,0%);fill-opacity:1;" d="M 78.207031 45.417969 L 77.914062 45.417969 C 77.894531 45.613281 77.796875 46.121094 77.679688 46.199219 C 77.621094 46.257812 76.957031 46.257812 76.820312 46.257812 L 75.21875 46.257812 C 76.136719 45.457031 76.449219 45.203125 76.957031 44.792969 C 77.601562 44.285156 78.207031 43.738281 78.207031 42.917969 C 78.207031 41.863281 77.289062 41.21875 76.175781 41.21875 C 75.101562 41.21875 74.359375 41.980469 74.359375 42.78125 C 74.359375 43.210938 74.730469 43.269531 74.828125 43.269531 C 75.023438 43.269531 75.277344 43.113281 75.277344 42.800781 C 75.277344 42.644531 75.21875 42.332031 74.769531 42.332031 C 75.042969 41.726562 75.628906 41.53125 76.039062 41.53125 C 76.917969 41.53125 77.367188 42.214844 77.367188 42.917969 C 77.367188 43.679688 76.820312 44.265625 76.546875 44.578125 L 74.457031 46.667969 C 74.359375 46.746094 74.359375 46.765625 74.359375 47 L 77.953125 47 Z M 78.207031 45.417969 "/>
<path style=" stroke:none;fill-rule:nonzero;fill:rgb(0%,0%,0%);fill-opacity:1;" d="M 71.96875 75.480469 C 72.183594 75.480469 72.417969 75.480469 72.417969 75.226562 C 72.417969 74.992188 72.183594 74.992188 71.96875 74.992188 L 65.230469 74.992188 C 65.015625 74.992188 64.800781 74.992188 64.800781 75.226562 C 64.800781 75.480469 65.015625 75.480469 65.230469 75.480469 Z M 71.96875 75.480469 "/>
<path style=" stroke:none;fill-rule:nonzero;fill:rgb(0%,0%,0%);fill-opacity:1;" d="M 77.730469 70.386719 L 78.765625 70.386719 C 78.628906 70.914062 78.433594 71.695312 78.433594 72.398438 C 78.433594 72.75 78.492188 72.984375 78.53125 73.160156 C 78.667969 73.609375 78.785156 73.628906 78.921875 73.628906 C 79.136719 73.628906 79.332031 73.453125 79.332031 73.238281 C 79.332031 73.179688 79.3125 73.140625 79.273438 73.0625 C 79.097656 72.730469 78.941406 72.242188 78.941406 71.519531 C 78.941406 71.363281 78.941406 71.011719 79.058594 70.386719 L 80.152344 70.386719 C 80.308594 70.386719 80.386719 70.386719 80.484375 70.328125 C 80.601562 70.230469 80.621094 70.09375 80.621094 70.054688 C 80.621094 69.800781 80.40625 69.800781 80.25 69.800781 L 76.96875 69.800781 C 76.617188 69.800781 76.363281 69.878906 75.972656 70.25 C 75.738281 70.445312 75.40625 70.914062 75.40625 70.992188 C 75.40625 71.089844 75.523438 71.089844 75.5625 71.089844 C 75.660156 71.089844 75.660156 71.070312 75.71875 70.992188 C 76.148438 70.386719 76.695312 70.386719 76.890625 70.386719 L 77.417969 70.386719 C 77.144531 71.34375 76.675781 72.378906 76.421875 72.90625 C 76.363281 73.003906 76.285156 73.199219 76.246094 73.21875 C 76.246094 73.257812 76.226562 73.296875 76.226562 73.355469 C 76.226562 73.492188 76.324219 73.628906 76.539062 73.628906 C 76.871094 73.628906 76.96875 73.238281 77.183594 72.457031 Z M 77.730469 70.386719 "/>
<path style=" stroke:none;fill-rule:nonzero;fill:rgb(0%,0%,0%);fill-opacity:1;" d="M 74.847656 75.0625 L 81 75.0625 L 81 75.664062 L 74.847656 75.664062 Z M 74.847656 75.0625 "/>
<path style=" stroke:none;fill-rule:nonzero;fill:rgb(0%,0%,0%);fill-opacity:1;" d="M 79.859375 81.117188 L 79.566406 81.117188 C 79.546875 81.3125 79.449219 81.820312 79.332031 81.898438 C 79.273438 81.957031 78.609375 81.957031 78.472656 81.957031 L 76.871094 81.957031 C 77.789062 81.15625 78.101562 80.902344 78.609375 80.492188 C 79.253906 79.984375 79.859375 79.4375 79.859375 78.617188 C 79.859375 77.5625 78.941406 76.917969 77.828125 76.917969 C 76.753906 76.917969 76.011719 77.679688 76.011719 78.480469 C 76.011719 78.910156 76.382812 78.96875 76.480469 78.96875 C 76.675781 78.96875 76.929688 78.8125 76.929688 78.5 C 76.929688 78.34375 76.871094 78.03125 76.421875 78.03125 C 76.695312 77.425781 77.28125 77.230469 77.691406 77.230469 C 78.570312 77.230469 79.019531 77.914062 79.019531 78.617188 C 79.019531 79.378906 78.472656 79.964844 78.199219 80.277344 L 76.109375 82.367188 C 76.011719 82.445312 76.011719 82.464844 76.011719 82.699219 L 79.605469 82.699219 Z M 79.859375 81.117188 "/>
<path style=" stroke:none;fill-rule:nonzero;fill:rgb(0%,0%,0%);fill-opacity:1;" d="M 91.992188 54.722656 C 91.992188 54.390625 91.992188 54.3125 91.816406 54.3125 C 91.679688 54.3125 91.328125 54.703125 91.210938 54.859375 C 90.644531 54.410156 90.097656 54.3125 89.511719 54.3125 C 87.34375 54.3125 86.699219 55.484375 86.699219 56.480469 C 86.699219 56.675781 86.699219 57.300781 87.382812 57.925781 C 87.96875 58.433594 88.574219 58.550781 89.394531 58.707031 C 90.371094 58.902344 90.605469 58.960938 91.054688 59.332031 C 91.386719 59.585938 91.621094 59.996094 91.621094 60.484375 C 91.621094 61.265625 91.171875 62.125 89.589844 62.125 C 88.417969 62.125 87.539062 61.441406 87.148438 59.644531 C 87.089844 59.332031 87.089844 59.3125 87.070312 59.292969 C 87.03125 59.214844 86.953125 59.214844 86.894531 59.214844 C 86.699219 59.214844 86.699219 59.3125 86.699219 59.625 L 86.699219 62.066406 C 86.699219 62.398438 86.699219 62.476562 86.875 62.476562 C 86.972656 62.476562 86.992188 62.457031 87.304688 62.085938 C 87.382812 61.96875 87.382812 61.929688 87.65625 61.636719 C 88.339844 62.476562 89.296875 62.476562 89.609375 62.476562 C 91.484375 62.476562 92.421875 61.441406 92.421875 60.015625 C 92.421875 59.058594 91.835938 58.472656 91.679688 58.316406 C 91.035156 57.769531 90.546875 57.652344 89.355469 57.4375 C 88.828125 57.339844 87.519531 57.085938 87.519531 56.011719 C 87.519531 55.445312 87.890625 54.625 89.511719 54.625 C 91.464844 54.625 91.5625 56.285156 91.601562 56.851562 C 91.621094 56.988281 91.738281 56.988281 91.796875 56.988281 C 91.992188 56.988281 91.992188 56.910156 91.992188 56.578125 Z M 91.992188 54.722656 "/>
<path style=" stroke:none;fill-rule:nonzero;fill:rgb(0%,0%,0%);fill-opacity:1;" d="M 96.140625 51.265625 C 96.140625 50.796875 95.75 50.386719 95.261719 50.386719 C 94.792969 50.386719 94.402344 50.757812 94.402344 51.246094 C 94.402344 51.773438 94.832031 52.125 95.261719 52.125 C 95.808594 52.125 96.140625 51.65625 96.140625 51.265625 Z M 93.660156 54.585938 L 93.660156 55.113281 C 94.8125 55.113281 94.96875 55.210938 94.96875 56.089844 L 94.96875 60.972656 C 94.96875 61.773438 94.773438 61.773438 93.601562 61.773438 L 93.601562 62.300781 C 94.109375 62.261719 94.96875 62.261719 95.496094 62.261719 C 95.691406 62.261719 96.726562 62.261719 97.332031 62.300781 L 97.332031 61.773438 C 96.179688 61.773438 96.101562 61.695312 96.101562 60.992188 L 96.101562 54.390625 Z M 93.660156 54.585938 "/>
<path style=" stroke:none;fill-rule:nonzero;fill:rgb(0%,0%,0%);fill-opacity:1;" d="M 105.953125 57.945312 C 105.953125 56.285156 105.953125 55.777344 105.523438 55.191406 C 105.015625 54.507812 104.175781 54.390625 103.550781 54.390625 C 101.8125 54.390625 101.128906 55.875 100.992188 56.246094 L 100.972656 56.246094 L 100.972656 54.390625 L 98.53125 54.585938 L 98.53125 55.113281 C 99.761719 55.113281 99.898438 55.230469 99.898438 56.109375 L 99.898438 60.972656 C 99.898438 61.773438 99.703125 61.773438 98.53125 61.773438 L 98.53125 62.300781 C 99 62.261719 99.976562 62.261719 100.484375 62.261719 C 100.992188 62.261719 101.96875 62.261719 102.4375 62.300781 L 102.4375 61.773438 C 101.285156 61.773438 101.070312 61.773438 101.070312 60.972656 L 101.070312 57.632812 C 101.070312 55.757812 102.300781 54.761719 103.414062 54.761719 C 104.527344 54.761719 104.78125 55.660156 104.78125 56.753906 L 104.78125 60.972656 C 104.78125 61.773438 104.585938 61.773438 103.414062 61.773438 L 103.414062 62.300781 C 103.882812 62.261719 104.859375 62.261719 105.347656 62.261719 C 105.875 62.261719 106.832031 62.261719 107.300781 62.300781 L 107.300781 61.773438 C 106.402344 61.773438 105.953125 61.773438 105.953125 61.246094 Z M 105.953125 57.945312 "/>
<path style=" stroke:none;fill-rule:nonzero;fill:rgb(0%,0%,0%);fill-opacity:1;" d="M 113.300781 52.449219 C 113.300781 50.964844 112.285156 49.714844 110.9375 49.714844 C 110.351562 49.714844 109.804688 49.910156 109.355469 50.359375 L 109.355469 47.917969 C 109.609375 47.996094 110.019531 48.074219 110.410156 48.074219 C 111.953125 48.074219 112.832031 46.941406 112.832031 46.785156 C 112.832031 46.707031 112.792969 46.648438 112.695312 46.648438 C 112.695312 46.648438 112.65625 46.648438 112.597656 46.6875 C 112.34375 46.804688 111.738281 47.058594 110.898438 47.058594 C 110.410156 47.058594 109.824219 46.960938 109.238281 46.707031 C 109.140625 46.667969 109.121094 46.667969 109.101562 46.667969 C 108.964844 46.667969 108.964844 46.765625 108.964844 46.960938 L 108.964844 50.652344 C 108.964844 50.867188 108.964844 50.964844 109.140625 50.964844 C 109.238281 50.964844 109.257812 50.945312 109.316406 50.867188 C 109.453125 50.671875 109.902344 49.988281 110.917969 49.988281 C 111.5625 49.988281 111.875 50.554688 111.972656 50.789062 C 112.167969 51.257812 112.207031 51.726562 112.207031 52.351562 C 112.207031 52.800781 112.207031 53.542969 111.894531 54.070312 C 111.601562 54.558594 111.132812 54.871094 110.566406 54.871094 C 109.667969 54.871094 108.945312 54.207031 108.730469 53.484375 C 108.769531 53.484375 108.808594 53.503906 108.945312 53.503906 C 109.355469 53.503906 109.570312 53.191406 109.570312 52.898438 C 109.570312 52.585938 109.355469 52.273438 108.945312 52.273438 C 108.769531 52.273438 108.339844 52.371094 108.339844 52.9375 C 108.339844 54.011719 109.199219 55.222656 110.585938 55.222656 C 112.03125 55.222656 113.300781 54.03125 113.300781 52.449219 Z M 113.300781 52.449219 "/>
<path style=" stroke:none;fill-rule:nonzero;fill:rgb(0%,0%,0%);fill-opacity:1;" d="M 126.109375 54.976562 C 125.542969 55.09375 125.328125 55.523438 125.328125 55.855469 C 125.328125 56.285156 125.660156 56.441406 125.914062 56.441406 C 126.460938 56.441406 126.832031 55.972656 126.832031 55.484375 C 126.832031 54.742188 125.972656 54.390625 125.210938 54.390625 C 124.117188 54.390625 123.511719 55.464844 123.355469 55.816406 C 122.945312 54.46875 121.832031 54.390625 121.5 54.390625 C 119.683594 54.390625 118.707031 56.734375 118.707031 57.144531 C 118.707031 57.203125 118.785156 57.300781 118.902344 57.300781 C 119.039062 57.300781 119.078125 57.183594 119.117188 57.125 C 119.722656 55.132812 120.933594 54.761719 121.441406 54.761719 C 122.261719 54.761719 122.417969 55.503906 122.417969 55.933594 C 122.417969 56.324219 122.320312 56.734375 122.085938 57.59375 L 121.480469 60.054688 C 121.226562 61.128906 120.699219 62.125 119.742188 62.125 C 119.664062 62.125 119.214844 62.125 118.824219 61.890625 C 119.46875 61.753906 119.625 61.226562 119.625 61.011719 C 119.625 60.660156 119.351562 60.445312 119.019531 60.445312 C 118.589844 60.445312 118.121094 60.816406 118.121094 61.382812 C 118.121094 62.144531 118.960938 62.476562 119.722656 62.476562 C 120.582031 62.476562 121.207031 61.792969 121.578125 61.070312 C 121.871094 62.125 122.75 62.476562 123.414062 62.476562 C 125.25 62.476562 126.226562 60.132812 126.226562 59.742188 C 126.226562 59.644531 126.148438 59.566406 126.03125 59.566406 C 125.875 59.566406 125.855469 59.664062 125.816406 59.800781 C 125.328125 61.382812 124.273438 62.125 123.472656 62.125 C 122.847656 62.125 122.515625 61.65625 122.515625 60.914062 C 122.515625 60.523438 122.574219 60.230469 122.867188 59.058594 L 123.492188 56.617188 C 123.765625 55.542969 124.371094 54.761719 125.191406 54.761719 C 125.230469 54.761719 125.738281 54.761719 126.109375 54.976562 Z M 126.109375 54.976562 "/>
<path style=" stroke:none;fill-rule:nonzero;fill:rgb(0%,0%,0%);fill-opacity:1;" d="M 135.003906 57.828125 C 135.003906 57.300781 134.574219 56.871094 134.066406 56.871094 C 133.539062 56.871094 133.109375 57.300781 133.109375 57.828125 C 133.109375 58.335938 133.539062 58.765625 134.066406 58.765625 C 134.574219 58.765625 135.003906 58.335938 135.003906 57.828125 Z M 135.003906 57.828125 "/>
<path style=" stroke:none;fill-rule:nonzero;fill:rgb(0%,0%,0%);fill-opacity:1;" d="M 149.589844 50.308594 C 149.609375 50.230469 149.648438 50.132812 149.648438 50.035156 C 149.648438 49.859375 149.453125 49.859375 149.414062 49.859375 C 149.414062 49.859375 148.535156 49.9375 148.4375 49.9375 C 148.125 49.957031 147.871094 49.996094 147.539062 50.015625 C 147.089844 50.054688 146.972656 50.074219 146.972656 50.386719 C 146.972656 50.582031 147.109375 50.582031 147.363281 50.582031 C 148.242188 50.582031 148.261719 50.738281 148.261719 50.914062 C 148.261719 51.03125 148.222656 51.167969 148.203125 51.226562 L 147.109375 55.582031 C 146.914062 55.113281 146.425781 54.390625 145.488281 54.390625 C 143.476562 54.390625 141.289062 57.007812 141.289062 59.664062 C 141.289062 61.441406 142.324219 62.476562 143.535156 62.476562 C 144.53125 62.476562 145.371094 61.714844 145.878906 61.109375 C 146.054688 62.183594 146.894531 62.476562 147.441406 62.476562 C 147.96875 62.476562 148.398438 62.164062 148.730469 61.519531 C 149.003906 60.894531 149.257812 59.800781 149.257812 59.742188 C 149.257812 59.644531 149.199219 59.566406 149.082031 59.566406 C 148.925781 59.566406 148.90625 59.664062 148.828125 59.9375 C 148.554688 60.992188 148.222656 62.125 147.480469 62.125 C 146.972656 62.125 146.933594 61.65625 146.933594 61.304688 C 146.933594 61.226562 146.933594 60.855469 147.050781 60.347656 Z M 145.957031 60.171875 C 145.878906 60.464844 145.878906 60.503906 145.625 60.855469 C 145.234375 61.34375 144.433594 62.125 143.59375 62.125 C 142.871094 62.125 142.441406 61.460938 142.441406 60.40625 C 142.441406 59.410156 143.007812 57.398438 143.339844 56.65625 C 143.964844 55.40625 144.804688 54.761719 145.488281 54.761719 C 146.679688 54.761719 146.914062 56.226562 146.914062 56.363281 C 146.914062 56.382812 146.855469 56.617188 146.835938 56.65625 Z M 145.957031 60.171875 "/>
<path style=" stroke:none;fill-rule:nonzero;fill:rgb(0%,0%,0%);fill-opacity:1;" d="M 158.210938 54.976562 C 157.644531 55.09375 157.429688 55.523438 157.429688 55.855469 C 157.429688 56.285156 157.761719 56.441406 158.015625 56.441406 C 158.5625 56.441406 158.933594 55.972656 158.933594 55.484375 C 158.933594 54.742188 158.074219 54.390625 157.3125 54.390625 C 156.21875 54.390625 155.613281 55.464844 155.457031 55.816406 C 155.046875 54.46875 153.933594 54.390625 153.601562 54.390625 C 151.785156 54.390625 150.808594 56.734375 150.808594 57.144531 C 150.808594 57.203125 150.886719 57.300781 151.003906 57.300781 C 151.140625 57.300781 151.179688 57.183594 151.21875 57.125 C 151.824219 55.132812 153.035156 54.761719 153.542969 54.761719 C 154.363281 54.761719 154.519531 55.503906 154.519531 55.933594 C 154.519531 56.324219 154.421875 56.734375 154.1875 57.59375 L 153.582031 60.054688 C 153.328125 61.128906 152.800781 62.125 151.84375 62.125 C 151.765625 62.125 151.316406 62.125 150.925781 61.890625 C 151.570312 61.753906 151.726562 61.226562 151.726562 61.011719 C 151.726562 60.660156 151.453125 60.445312 151.121094 60.445312 C 150.691406 60.445312 150.222656 60.816406 150.222656 61.382812 C 150.222656 62.144531 151.0625 62.476562 151.824219 62.476562 C 152.683594 62.476562 153.308594 61.792969 153.679688 61.070312 C 153.972656 62.125 154.851562 62.476562 155.515625 62.476562 C 157.351562 62.476562 158.328125 60.132812 158.328125 59.742188 C 158.328125 59.644531 158.25 59.566406 158.132812 59.566406 C 157.976562 59.566406 157.957031 59.664062 157.917969 59.800781 C 157.429688 61.382812 156.375 62.125 155.574219 62.125 C 154.949219 62.125 154.617188 61.65625 154.617188 60.914062 C 154.617188 60.523438 154.675781 60.230469 154.96875 59.058594 L 155.59375 56.617188 C 155.867188 55.542969 156.472656 54.761719 157.292969 54.761719 C 157.332031 54.761719 157.839844 54.761719 158.210938 54.976562 Z M 158.210938 54.976562 "/>
<path style=" stroke:none;fill-rule:nonzero;fill:rgb(0%,0%,0%);fill-opacity:1;" d="M 176.675781 56.5 C 176.929688 56.5 177.242188 56.5 177.242188 56.167969 C 177.242188 55.835938 176.929688 55.835938 176.675781 55.835938 L 166.109375 55.835938 C 165.855469 55.835938 165.542969 55.835938 165.542969 56.148438 C 165.542969 56.5 165.835938 56.5 166.109375 56.5 Z M 176.675781 59.820312 C 176.929688 59.820312 177.242188 59.820312 177.242188 59.507812 C 177.242188 59.15625 176.929688 59.15625 176.675781 59.15625 L 166.109375 59.15625 C 165.855469 59.15625 165.542969 59.15625 165.542969 59.488281 C 165.542969 59.820312 165.835938 59.820312 166.109375 59.820312 Z M 176.675781 59.820312 "/>
<path style=" stroke:none;fill-rule:nonzero;fill:rgb(0%,0%,0%);fill-opacity:1;" d="M 191.054688 59.292969 L 190.664062 59.292969 C 190.605469 59.585938 190.46875 60.582031 190.273438 60.875 C 190.15625 61.03125 189.140625 61.03125 188.59375 61.03125 L 185.273438 61.03125 C 185.761719 60.621094 186.855469 59.46875 187.324219 59.039062 C 190.058594 56.519531 191.054688 55.601562 191.054688 53.824219 C 191.054688 51.753906 189.414062 50.386719 187.34375 50.386719 C 185.253906 50.386719 184.042969 52.144531 184.042969 53.6875 C 184.042969 54.605469 184.824219 54.605469 184.882812 54.605469 C 185.253906 54.605469 185.722656 54.332031 185.722656 53.765625 C 185.722656 53.257812 185.390625 52.925781 184.882812 52.925781 C 184.726562 52.925781 184.6875 52.925781 184.628906 52.945312 C 184.980469 51.714844 185.9375 50.894531 187.109375 50.894531 C 188.632812 50.894531 189.570312 52.164062 189.570312 53.824219 C 189.570312 55.347656 188.691406 56.675781 187.65625 57.828125 L 184.042969 61.871094 L 184.042969 62.300781 L 190.585938 62.300781 Z M 191.054688 59.292969 "/>
<path style=" stroke:none;fill-rule:nonzero;fill:rgb(0%,0%,0%);fill-opacity:1;" d="M 196.871094 76.875 C 197.457031 76.855469 197.75 76.445312 197.75 76.015625 C 197.75 75.410156 197.320312 75.136719 196.890625 75.136719 C 196.460938 75.136719 196.011719 75.390625 196.011719 76.015625 C 196.011719 76.933594 196.910156 77.695312 198.003906 77.695312 C 200.738281 77.695312 201.753906 73.496094 203.023438 68.300781 C 204.410156 62.636719 205.582031 56.914062 206.539062 51.152344 C 207.203125 47.34375 207.867188 43.75 208.472656 41.445312 C 208.6875 40.566406 209.3125 38.242188 209.996094 38.242188 C 210.5625 38.242188 211.011719 38.59375 211.089844 38.652344 C 210.484375 38.691406 210.191406 39.082031 210.191406 39.53125 C 210.191406 40.136719 210.640625 40.410156 211.050781 40.410156 C 211.480469 40.410156 211.929688 40.15625 211.929688 39.511719 C 211.929688 38.554688 210.953125 37.851562 209.976562 37.851562 C 208.609375 37.851562 207.59375 39.804688 206.617188 43.457031 C 206.558594 43.652344 204.117188 52.65625 202.144531 64.394531 C 201.675781 67.128906 201.167969 70.117188 200.582031 72.617188 C 200.25 73.925781 199.429688 77.304688 197.964844 77.304688 C 197.320312 77.304688 196.890625 76.875 196.871094 76.875 Z M 196.871094 76.875 "/>
<path style=" stroke:none;fill-rule:nonzero;fill:rgb(0%,0%,0%);fill-opacity:1;" d="M 217.078125 34.6875 L 218.113281 34.6875 C 217.976562 35.214844 217.78125 35.996094 217.78125 36.699219 C 217.78125 37.050781 217.839844 37.285156 217.878906 37.460938 C 218.015625 37.910156 218.132812 37.929688 218.269531 37.929688 C 218.484375 37.929688 218.679688 37.753906 218.679688 37.539062 C 218.679688 37.480469 218.660156 37.441406 218.621094 37.363281 C 218.445312 37.03125 218.289062 36.542969 218.289062 35.820312 C 218.289062 35.664062 218.289062 35.3125 218.40625 34.6875 L 219.5 34.6875 C 219.65625 34.6875 219.734375 34.6875 219.832031 34.628906 C 219.949219 34.53125 219.96875 34.394531 219.96875 34.355469 C 219.96875 34.101562 219.753906 34.101562 219.597656 34.101562 L 216.316406 34.101562 C 215.964844 34.101562 215.710938 34.179688 215.320312 34.550781 C 215.085938 34.746094 214.753906 35.214844 214.753906 35.292969 C 214.753906 35.390625 214.871094 35.390625 214.910156 35.390625 C 215.007812 35.390625 215.007812 35.371094 215.066406 35.292969 C 215.496094 34.6875 216.042969 34.6875 216.238281 34.6875 L 216.765625 34.6875 C 216.492188 35.644531 216.023438 36.679688 215.769531 37.207031 C 215.710938 37.304688 215.632812 37.5 215.59375 37.519531 C 215.59375 37.558594 215.574219 37.597656 215.574219 37.65625 C 215.574219 37.792969 215.671875 37.929688 215.886719 37.929688 C 216.21875 37.929688 216.316406 37.539062 216.53125 36.757812 Z M 217.078125 34.6875 "/>
<path style=" stroke:none;fill-rule:nonzero;fill:rgb(0%,0%,0%);fill-opacity:1;" d="M 214.351562 39.367188 L 220.503906 39.367188 L 220.503906 39.964844 L 214.351562 39.964844 Z M 214.351562 39.367188 "/>
<path style=" stroke:none;fill-rule:nonzero;fill:rgb(0%,0%,0%);fill-opacity:1;" d="M 219.359375 45.417969 L 219.066406 45.417969 C 219.046875 45.613281 218.949219 46.121094 218.832031 46.199219 C 218.773438 46.257812 218.109375 46.257812 217.972656 46.257812 L 216.371094 46.257812 C 217.289062 45.457031 217.601562 45.203125 218.109375 44.792969 C 218.753906 44.285156 219.359375 43.738281 219.359375 42.917969 C 219.359375 41.863281 218.441406 41.21875 217.328125 41.21875 C 216.253906 41.21875 215.511719 41.980469 215.511719 42.78125 C 215.511719 43.210938 215.882812 43.269531 215.980469 43.269531 C 216.175781 43.269531 216.429688 43.113281 216.429688 42.800781 C 216.429688 42.644531 216.371094 42.332031 215.921875 42.332031 C 216.195312 41.726562 216.78125 41.53125 217.191406 41.53125 C 218.070312 41.53125 218.519531 42.214844 218.519531 42.917969 C 218.519531 43.679688 217.972656 44.265625 217.699219 44.578125 L 215.609375 46.667969 C 215.511719 46.746094 215.511719 46.765625 215.511719 47 L 219.105469 47 Z M 219.359375 45.417969 "/>
<path style=" stroke:none;fill-rule:nonzero;fill:rgb(0%,0%,0%);fill-opacity:1;" d="M 210.636719 74.367188 C 210.636719 73.371094 210.578125 72.375 210.148438 71.457031 C 209.582031 70.246094 208.546875 70.050781 208.039062 70.050781 C 207.277344 70.050781 206.378906 70.382812 205.851562 71.535156 C 205.460938 72.394531 205.402344 73.371094 205.402344 74.367188 C 205.402344 75.304688 205.441406 76.417969 205.96875 77.375 C 206.496094 78.371094 207.414062 78.625 208.019531 78.625 C 208.683594 78.625 209.640625 78.371094 210.1875 77.179688 C 210.578125 76.320312 210.636719 75.34375 210.636719 74.367188 Z M 208.019531 78.351562 C 207.53125 78.351562 206.789062 78.039062 206.574219 76.847656 C 206.4375 76.105469 206.4375 74.953125 206.4375 74.210938 C 206.4375 73.410156 206.4375 72.589844 206.535156 71.925781 C 206.769531 70.441406 207.707031 70.324219 208.019531 70.324219 C 208.429688 70.324219 209.25 70.558594 209.484375 71.789062 C 209.621094 72.492188 209.621094 73.429688 209.621094 74.210938 C 209.621094 75.148438 209.621094 75.988281 209.484375 76.789062 C 209.289062 77.980469 208.585938 78.351562 208.019531 78.351562 Z M 208.019531 78.351562 "/>
<path style=" stroke:none;fill-rule:nonzero;fill:rgb(0%,0%,0%);fill-opacity:1;" d="M 231.492188 54.722656 C 231.492188 54.390625 231.492188 54.3125 231.316406 54.3125 C 231.179688 54.3125 230.828125 54.703125 230.710938 54.859375 C 230.144531 54.410156 229.597656 54.3125 229.011719 54.3125 C 226.84375 54.3125 226.199219 55.484375 226.199219 56.480469 C 226.199219 56.675781 226.199219 57.300781 226.882812 57.925781 C 227.46875 58.433594 228.074219 58.550781 228.894531 58.707031 C 229.871094 58.902344 230.105469 58.960938 230.554688 59.332031 C 230.886719 59.585938 231.121094 59.996094 231.121094 60.484375 C 231.121094 61.265625 230.671875 62.125 229.089844 62.125 C 227.917969 62.125 227.039062 61.441406 226.648438 59.644531 C 226.589844 59.332031 226.589844 59.3125 226.570312 59.292969 C 226.53125 59.214844 226.453125 59.214844 226.394531 59.214844 C 226.199219 59.214844 226.199219 59.3125 226.199219 59.625 L 226.199219 62.066406 C 226.199219 62.398438 226.199219 62.476562 226.375 62.476562 C 226.472656 62.476562 226.492188 62.457031 226.804688 62.085938 C 226.882812 61.96875 226.882812 61.929688 227.15625 61.636719 C 227.839844 62.476562 228.796875 62.476562 229.109375 62.476562 C 230.984375 62.476562 231.921875 61.441406 231.921875 60.015625 C 231.921875 59.058594 231.335938 58.472656 231.179688 58.316406 C 230.535156 57.769531 230.046875 57.652344 228.855469 57.4375 C 228.328125 57.339844 227.019531 57.085938 227.019531 56.011719 C 227.019531 55.445312 227.390625 54.625 229.011719 54.625 C 230.964844 54.625 231.0625 56.285156 231.101562 56.851562 C 231.121094 56.988281 231.238281 56.988281 231.296875 56.988281 C 231.492188 56.988281 231.492188 56.910156 231.492188 56.578125 Z M 231.492188 54.722656 "/>
<path style=" stroke:none;fill-rule:nonzero;fill:rgb(0%,0%,0%);fill-opacity:1;" d="M 235.640625 51.265625 C 235.640625 50.796875 235.25 50.386719 234.761719 50.386719 C 234.292969 50.386719 233.902344 50.757812 233.902344 51.246094 C 233.902344 51.773438 234.332031 52.125 234.761719 52.125 C 235.308594 52.125 235.640625 51.65625 235.640625 51.265625 Z M 233.160156 54.585938 L 233.160156 55.113281 C 234.3125 55.113281 234.46875 55.210938 234.46875 56.089844 L 234.46875 60.972656 C 234.46875 61.773438 234.273438 61.773438 233.101562 61.773438 L 233.101562 62.300781 C 233.609375 62.261719 234.46875 62.261719 234.996094 62.261719 C 235.191406 62.261719 236.226562 62.261719 236.832031 62.300781 L 236.832031 61.773438 C 235.679688 61.773438 235.601562 61.695312 235.601562 60.992188 L 235.601562 54.390625 Z M 233.160156 54.585938 "/>
<path style=" stroke:none;fill-rule:nonzero;fill:rgb(0%,0%,0%);fill-opacity:1;" d="M 245.453125 57.945312 C 245.453125 56.285156 245.453125 55.777344 245.023438 55.191406 C 244.515625 54.507812 243.675781 54.390625 243.050781 54.390625 C 241.3125 54.390625 240.628906 55.875 240.492188 56.246094 L 240.472656 56.246094 L 240.472656 54.390625 L 238.03125 54.585938 L 238.03125 55.113281 C 239.261719 55.113281 239.398438 55.230469 239.398438 56.109375 L 239.398438 60.972656 C 239.398438 61.773438 239.203125 61.773438 238.03125 61.773438 L 238.03125 62.300781 C 238.5 62.261719 239.476562 62.261719 239.984375 62.261719 C 240.492188 62.261719 241.46875 62.261719 241.9375 62.300781 L 241.9375 61.773438 C 240.785156 61.773438 240.570312 61.773438 240.570312 60.972656 L 240.570312 57.632812 C 240.570312 55.757812 241.800781 54.761719 242.914062 54.761719 C 244.027344 54.761719 244.28125 55.660156 244.28125 56.753906 L 244.28125 60.972656 C 244.28125 61.773438 244.085938 61.773438 242.914062 61.773438 L 242.914062 62.300781 C 243.382812 62.261719 244.359375 62.261719 244.847656 62.261719 C 245.375 62.261719 246.332031 62.261719 246.800781 62.300781 L 246.800781 61.773438 C 245.902344 61.773438 245.453125 61.773438 245.453125 61.246094 Z M 245.453125 57.945312 "/>
<path style=" stroke:none;fill-rule:nonzero;fill:rgb(0%,0%,0%);fill-opacity:1;" d="M 252.800781 52.449219 C 252.800781 50.964844 251.785156 49.714844 250.4375 49.714844 C 249.851562 49.714844 249.304688 49.910156 248.855469 50.359375 L 248.855469 47.917969 C 249.109375 47.996094 249.519531 48.074219 249.910156 48.074219 C 251.453125 48.074219 252.332031 46.941406 252.332031 46.785156 C 252.332031 46.707031 252.292969 46.648438 252.195312 46.648438 C 252.195312 46.648438 252.15625 46.648438 252.097656 46.6875 C 251.84375 46.804688 251.238281 47.058594 250.398438 47.058594 C 249.910156 47.058594 249.324219 46.960938 248.738281 46.707031 C 248.640625 46.667969 248.621094 46.667969 248.601562 46.667969 C 248.464844 46.667969 248.464844 46.765625 248.464844 46.960938 L 248.464844 50.652344 C 248.464844 50.867188 248.464844 50.964844 248.640625 50.964844 C 248.738281 50.964844 248.757812 50.945312 248.816406 50.867188 C 248.953125 50.671875 249.402344 49.988281 250.417969 49.988281 C 251.0625 49.988281 251.375 50.554688 251.472656 50.789062 C 251.667969 51.257812 251.707031 51.726562 251.707031 52.351562 C 251.707031 52.800781 251.707031 53.542969 251.394531 54.070312 C 251.101562 54.558594 250.632812 54.871094 250.066406 54.871094 C 249.167969 54.871094 248.445312 54.207031 248.230469 53.484375 C 248.269531 53.484375 248.308594 53.503906 248.445312 53.503906 C 248.855469 53.503906 249.070312 53.191406 249.070312 52.898438 C 249.070312 52.585938 248.855469 52.273438 248.445312 52.273438 C 248.269531 52.273438 247.839844 52.371094 247.839844 52.9375 C 247.839844 54.011719 248.699219 55.222656 250.085938 55.222656 C 251.53125 55.222656 252.800781 54.03125 252.800781 52.449219 Z M 252.800781 52.449219 "/>
<path style=" stroke:none;fill-rule:nonzero;fill:rgb(0%,0%,0%);fill-opacity:1;" d="M 265.609375 54.976562 C 265.042969 55.09375 264.828125 55.523438 264.828125 55.855469 C 264.828125 56.285156 265.160156 56.441406 265.414062 56.441406 C 265.960938 56.441406 266.332031 55.972656 266.332031 55.484375 C 266.332031 54.742188 265.472656 54.390625 264.710938 54.390625 C 263.617188 54.390625 263.011719 55.464844 262.855469 55.816406 C 262.445312 54.46875 261.332031 54.390625 261 54.390625 C 259.183594 54.390625 258.207031 56.734375 258.207031 57.144531 C 258.207031 57.203125 258.285156 57.300781 258.402344 57.300781 C 258.539062 57.300781 258.578125 57.183594 258.617188 57.125 C 259.222656 55.132812 260.433594 54.761719 260.941406 54.761719 C 261.761719 54.761719 261.917969 55.503906 261.917969 55.933594 C 261.917969 56.324219 261.820312 56.734375 261.585938 57.59375 L 260.980469 60.054688 C 260.726562 61.128906 260.199219 62.125 259.242188 62.125 C 259.164062 62.125 258.714844 62.125 258.324219 61.890625 C 258.96875 61.753906 259.125 61.226562 259.125 61.011719 C 259.125 60.660156 258.851562 60.445312 258.519531 60.445312 C 258.089844 60.445312 257.621094 60.816406 257.621094 61.382812 C 257.621094 62.144531 258.460938 62.476562 259.222656 62.476562 C 260.082031 62.476562 260.707031 61.792969 261.078125 61.070312 C 261.371094 62.125 262.25 62.476562 262.914062 62.476562 C 264.75 62.476562 265.726562 60.132812 265.726562 59.742188 C 265.726562 59.644531 265.648438 59.566406 265.53125 59.566406 C 265.375 59.566406 265.355469 59.664062 265.316406 59.800781 C 264.828125 61.382812 263.773438 62.125 262.972656 62.125 C 262.347656 62.125 262.015625 61.65625 262.015625 60.914062 C 262.015625 60.523438 262.074219 60.230469 262.367188 59.058594 L 262.992188 56.617188 C 263.265625 55.542969 263.871094 54.761719 264.691406 54.761719 C 264.730469 54.761719 265.238281 54.761719 265.609375 54.976562 Z M 265.609375 54.976562 "/>
<path style=" stroke:none;fill-rule:nonzero;fill:rgb(0%,0%,0%);fill-opacity:1;" d="M 274.5 57.828125 C 274.5 57.300781 274.070312 56.871094 273.5625 56.871094 C 273.035156 56.871094 272.605469 57.300781 272.605469 57.828125 C 272.605469 58.335938 273.035156 58.765625 273.5625 58.765625 C 274.070312 58.765625 274.5 58.335938 274.5 57.828125 Z M 274.5 57.828125 "/>
<path style=" stroke:none;fill-rule:nonzero;fill:rgb(0%,0%,0%);fill-opacity:1;" d="M 288.9375 50.308594 C 288.957031 50.230469 288.996094 50.132812 288.996094 50.035156 C 288.996094 49.859375 288.800781 49.859375 288.761719 49.859375 C 288.761719 49.859375 287.882812 49.9375 287.785156 49.9375 C 287.472656 49.957031 287.21875 49.996094 286.886719 50.015625 C 286.4375 50.054688 286.320312 50.074219 286.320312 50.386719 C 286.320312 50.582031 286.457031 50.582031 286.710938 50.582031 C 287.589844 50.582031 287.609375 50.738281 287.609375 50.914062 C 287.609375 51.03125 287.570312 51.167969 287.550781 51.226562 L 286.457031 55.582031 C 286.261719 55.113281 285.773438 54.390625 284.835938 54.390625 C 282.824219 54.390625 280.636719 57.007812 280.636719 59.664062 C 280.636719 61.441406 281.671875 62.476562 282.882812 62.476562 C 283.878906 62.476562 284.71875 61.714844 285.226562 61.109375 C 285.402344 62.183594 286.242188 62.476562 286.789062 62.476562 C 287.316406 62.476562 287.746094 62.164062 288.078125 61.519531 C 288.351562 60.894531 288.605469 59.800781 288.605469 59.742188 C 288.605469 59.644531 288.546875 59.566406 288.429688 59.566406 C 288.273438 59.566406 288.253906 59.664062 288.175781 59.9375 C 287.902344 60.992188 287.570312 62.125 286.828125 62.125 C 286.320312 62.125 286.28125 61.65625 286.28125 61.304688 C 286.28125 61.226562 286.28125 60.855469 286.398438 60.347656 Z M 285.304688 60.171875 C 285.226562 60.464844 285.226562 60.503906 284.972656 60.855469 C 284.582031 61.34375 283.78125 62.125 282.941406 62.125 C 282.21875 62.125 281.789062 61.460938 281.789062 60.40625 C 281.789062 59.410156 282.355469 57.398438 282.6875 56.65625 C 283.3125 55.40625 284.152344 54.761719 284.835938 54.761719 C 286.027344 54.761719 286.261719 56.226562 286.261719 56.363281 C 286.261719 56.382812 286.203125 56.617188 286.183594 56.65625 Z M 285.304688 60.171875 "/>
<path style=" stroke:none;fill-rule:nonzero;fill:rgb(0%,0%,0%);fill-opacity:1;" d="M 297.5625 54.976562 C 296.996094 55.09375 296.78125 55.523438 296.78125 55.855469 C 296.78125 56.285156 297.113281 56.441406 297.367188 56.441406 C 297.914062 56.441406 298.285156 55.972656 298.285156 55.484375 C 298.285156 54.742188 297.425781 54.390625 296.664062 54.390625 C 295.570312 54.390625 294.964844 55.464844 294.808594 55.816406 C 294.398438 54.46875 293.285156 54.390625 292.953125 54.390625 C 291.136719 54.390625 290.160156 56.734375 290.160156 57.144531 C 290.160156 57.203125 290.238281 57.300781 290.355469 57.300781 C 290.492188 57.300781 290.53125 57.183594 290.570312 57.125 C 291.175781 55.132812 292.386719 54.761719 292.894531 54.761719 C 293.714844 54.761719 293.871094 55.503906 293.871094 55.933594 C 293.871094 56.324219 293.773438 56.734375 293.539062 57.59375 L 292.933594 60.054688 C 292.679688 61.128906 292.152344 62.125 291.195312 62.125 C 291.117188 62.125 290.667969 62.125 290.277344 61.890625 C 290.921875 61.753906 291.078125 61.226562 291.078125 61.011719 C 291.078125 60.660156 290.804688 60.445312 290.472656 60.445312 C 290.042969 60.445312 289.574219 60.816406 289.574219 61.382812 C 289.574219 62.144531 290.414062 62.476562 291.175781 62.476562 C 292.035156 62.476562 292.660156 61.792969 293.03125 61.070312 C 293.324219 62.125 294.203125 62.476562 294.867188 62.476562 C 296.703125 62.476562 297.679688 60.132812 297.679688 59.742188 C 297.679688 59.644531 297.601562 59.566406 297.484375 59.566406 C 297.328125 59.566406 297.308594 59.664062 297.269531 59.800781 C 296.78125 61.382812 295.726562 62.125 294.925781 62.125 C 294.300781 62.125 293.96875 61.65625 293.96875 60.914062 C 293.96875 60.523438 294.027344 60.230469 294.320312 59.058594 L 294.945312 56.617188 C 295.21875 55.542969 295.824219 54.761719 296.644531 54.761719 C 296.683594 54.761719 297.191406 54.761719 297.5625 54.976562 Z M 297.5625 54.976562 "/>
</g>
</svg>
