<?xml version="1.0" encoding="UTF-8"?>
<svg xmlns="http://www.w3.org/2000/svg" xmlns:xlink="http://www.w3.org/1999/xlink" width="160.64394pt" height="83.592978pt" viewBox="0 0 160.64394 83.592978" version="1.1">
<g id="surface1">
<path style=" stroke:none;fill-rule:nonzero;fill:rgb(0%,0%,0%);fill-opacity:1;" d="M 7.34375 6.699219 L 7.34375 5.625 L 1.542969 5.625 L 1.542969 1.328125 L 3.964844 1.328125 C 4.179688 1.328125 4.394531 1.347656 4.609375 1.347656 L 7.851562 1.347656 L 7.851562 0.214844 L 0 0.214844 L 0 12.617188 L 8.085938 12.617188 L 8.085938 11.40625 L 5.722656 11.40625 C 5.507812 11.40625 5.292969 11.40625 5.078125 11.40625 L 1.542969 11.40625 L 1.542969 6.699219 Z M 7.34375 6.699219 "/>
<path style=" stroke:none;fill-rule:nonzero;fill:rgb(0%,0%,0%);fill-opacity:1;" d="M 16.632812 4.648438 L 15.304688 4.648438 L 13.996094 8.222656 C 13.683594 9.082031 13.019531 10.976562 12.921875 11.640625 L 12.902344 11.640625 C 12.804688 11.015625 12.453125 10.039062 12.179688 9.257812 L 10.519531 4.648438 L 9.132812 4.648438 L 12.082031 12.617188 L 13.683594 12.617188 Z M 16.632812 4.648438 "/>
<path style=" stroke:none;fill-rule:nonzero;fill:rgb(0%,0%,0%);fill-opacity:1;" d="M 23.992188 7.363281 C 23.992188 5.644531 22.761719 4.394531 21.082031 4.394531 C 20.007812 4.394531 19.207031 4.628906 18.328125 5.136719 L 18.425781 6.328125 C 19.226562 5.742188 20.046875 5.429688 21.082031 5.429688 C 21.902344 5.429688 22.625 6.09375 22.625 7.402344 L 22.625 8.144531 C 21.824219 8.164062 20.75 8.222656 19.675781 8.574219 C 18.464844 9.003906 17.761719 9.667969 17.761719 10.546875 C 17.761719 11.347656 18.230469 12.792969 19.753906 12.792969 C 20.75 12.792969 22 12.5 22.664062 11.953125 L 22.664062 12.617188 L 23.992188 12.617188 Z M 22.625 10.214844 C 22.625 10.566406 22.625 10.996094 22.039062 11.367188 C 21.550781 11.660156 20.945312 11.71875 20.671875 11.71875 C 19.714844 11.71875 19.050781 11.191406 19.050781 10.546875 C 19.050781 9.316406 21.53125 9.042969 22.625 9.042969 Z M 22.625 10.214844 "/>
<path style=" stroke:none;fill-rule:nonzero;fill:rgb(0%,0%,0%);fill-opacity:1;" d="M 28.113281 0.175781 L 26.785156 0.175781 L 26.785156 12.617188 L 28.113281 12.617188 Z M 28.113281 0.175781 "/>
<path style=" stroke:none;fill-rule:nonzero;fill:rgb(0%,0%,0%);fill-opacity:1;" d="M 37.175781 4.648438 L 35.808594 4.648438 L 35.808594 9.785156 C 35.808594 11.152344 34.871094 11.816406 33.699219 11.816406 C 32.449219 11.816406 32.3125 11.347656 32.3125 10.546875 L 32.3125 4.648438 L 30.964844 4.648438 L 30.964844 10.625 C 30.964844 11.914062 31.375 12.792969 32.839844 12.792969 C 33.347656 12.792969 34.753906 12.714844 35.847656 11.71875 L 35.847656 12.617188 L 37.175781 12.617188 Z M 37.175781 4.648438 "/>
<path style=" stroke:none;fill-rule:nonzero;fill:rgb(0%,0%,0%);fill-opacity:1;" d="M 45.589844 7.363281 C 45.589844 5.644531 44.359375 4.394531 42.679688 4.394531 C 41.605469 4.394531 40.804688 4.628906 39.925781 5.136719 L 40.023438 6.328125 C 40.824219 5.742188 41.644531 5.429688 42.679688 5.429688 C 43.5 5.429688 44.222656 6.09375 44.222656 7.402344 L 44.222656 8.144531 C 43.421875 8.164062 42.347656 8.222656 41.273438 8.574219 C 40.0625 9.003906 39.359375 9.667969 39.359375 10.546875 C 39.359375 11.347656 39.828125 12.792969 41.351562 12.792969 C 42.347656 12.792969 43.597656 12.5 44.261719 11.953125 L 44.261719 12.617188 L 45.589844 12.617188 Z M 44.222656 10.214844 C 44.222656 10.566406 44.222656 10.996094 43.636719 11.367188 C 43.148438 11.660156 42.542969 11.71875 42.269531 11.71875 C 41.3125 11.71875 40.648438 11.191406 40.648438 10.546875 C 40.648438 9.316406 43.128906 9.042969 44.222656 9.042969 Z M 44.222656 10.214844 "/>
<path style=" stroke:none;fill-rule:nonzero;fill:rgb(0%,0%,0%);fill-opacity:1;" d="M 50.046875 5.703125 L 52.527344 5.703125 L 52.527344 4.648438 L 50.046875 4.648438 L 50.046875 2.382812 L 48.816406 2.382812 L 48.816406 4.648438 L 47.3125 4.648438 L 47.3125 5.703125 L 48.777344 5.703125 L 48.777344 10.527344 C 48.777344 11.5625 49.011719 12.792969 50.242188 12.792969 C 51.453125 12.792969 52.273438 12.382812 52.820312 12.089844 L 52.546875 11.054688 C 51.921875 11.621094 51.257812 11.679688 50.945312 11.679688 C 50.144531 11.679688 50.046875 10.839844 50.046875 10.214844 Z M 50.046875 5.703125 "/>
<path style=" stroke:none;fill-rule:nonzero;fill:rgb(0%,0%,0%);fill-opacity:1;" d="M 60.582031 8.574219 C 60.582031 7.8125 60.503906 6.71875 59.9375 5.761719 C 59.195312 4.53125 57.945312 4.394531 57.417969 4.394531 C 55.484375 4.394531 53.863281 6.25 53.863281 8.574219 C 53.863281 10.957031 55.582031 12.792969 57.671875 12.792969 C 58.492188 12.792969 59.488281 12.558594 60.464844 11.855469 C 60.464844 11.777344 60.40625 11.210938 60.40625 11.191406 C 60.386719 11.171875 60.367188 10.761719 60.367188 10.703125 C 59.292969 11.601562 58.238281 11.71875 57.710938 11.71875 C 56.324219 11.71875 55.132812 10.488281 55.113281 8.574219 Z M 55.210938 7.617188 C 55.523438 6.40625 56.363281 5.46875 57.417969 5.46875 C 57.984375 5.46875 59.214844 5.722656 59.507812 7.617188 Z M 55.210938 7.617188 "/>
<path style=" stroke:none;fill-rule:nonzero;fill:rgb(0%,0%,0%);fill-opacity:1;" d="M 69.84375 5.703125 L 72.324219 5.703125 L 72.324219 4.648438 L 69.84375 4.648438 L 69.84375 2.382812 L 68.613281 2.382812 L 68.613281 4.648438 L 67.109375 4.648438 L 67.109375 5.703125 L 68.574219 5.703125 L 68.574219 10.527344 C 68.574219 11.5625 68.808594 12.792969 70.039062 12.792969 C 71.25 12.792969 72.070312 12.382812 72.617188 12.089844 L 72.34375 11.054688 C 71.71875 11.621094 71.054688 11.679688 70.742188 11.679688 C 69.941406 11.679688 69.84375 10.839844 69.84375 10.214844 Z M 69.84375 5.703125 "/>
<path style=" stroke:none;fill-rule:nonzero;fill:rgb(0%,0%,0%);fill-opacity:1;" d="M 80.675781 7.226562 C 80.675781 6.132812 80.441406 4.472656 78.273438 4.472656 C 77.042969 4.472656 76.222656 5.175781 75.792969 5.722656 L 75.792969 0.175781 L 74.464844 0.175781 L 74.464844 12.617188 L 75.8125 12.617188 L 75.8125 8.144531 C 75.8125 7.050781 76.242188 5.546875 77.589844 5.546875 C 79.269531 5.546875 79.308594 6.71875 79.308594 7.34375 L 79.308594 12.617188 L 80.675781 12.617188 Z M 80.675781 7.226562 "/>
<path style=" stroke:none;fill-rule:nonzero;fill:rgb(0%,0%,0%);fill-opacity:1;" d="M 89.382812 8.574219 C 89.382812 7.8125 89.304688 6.71875 88.738281 5.761719 C 87.996094 4.53125 86.746094 4.394531 86.21875 4.394531 C 84.285156 4.394531 82.664062 6.25 82.664062 8.574219 C 82.664062 10.957031 84.382812 12.792969 86.472656 12.792969 C 87.292969 12.792969 88.289062 12.558594 89.265625 11.855469 C 89.265625 11.777344 89.207031 11.210938 89.207031 11.191406 C 89.1875 11.171875 89.167969 10.761719 89.167969 10.703125 C 88.09375 11.601562 87.039062 11.71875 86.511719 11.71875 C 85.125 11.71875 83.933594 10.488281 83.914062 8.574219 Z M 84.011719 7.617188 C 84.324219 6.40625 85.164062 5.46875 86.21875 5.46875 C 86.785156 5.46875 88.015625 5.722656 88.308594 7.617188 Z M 84.011719 7.617188 "/>
<path style=" stroke:none;fill-rule:nonzero;fill:rgb(0%,0%,0%);fill-opacity:1;" d="M 98.984375 5.703125 L 100.898438 5.703125 L 100.898438 4.648438 L 98.945312 4.648438 L 98.945312 2.5 C 98.945312 1.289062 99.960938 1.074219 100.566406 1.074219 C 101.191406 1.074219 101.738281 1.269531 101.953125 1.347656 L 101.953125 0.175781 C 101.835938 0.136719 101.230469 0 100.585938 0 C 98.867188 0 97.65625 1.308594 97.65625 3.046875 L 97.65625 4.648438 L 96.347656 4.648438 L 96.347656 5.703125 L 97.65625 5.703125 L 97.65625 12.617188 L 98.984375 12.617188 Z M 98.984375 5.703125 "/>
<path style=" stroke:none;fill-rule:nonzero;fill:rgb(0%,0%,0%);fill-opacity:1;" d="M 109.5 8.671875 C 109.5 6.25 107.722656 4.394531 105.671875 4.394531 C 103.5625 4.394531 101.824219 6.289062 101.824219 8.671875 C 101.824219 11.015625 103.601562 12.792969 105.652344 12.792969 C 107.761719 12.792969 109.5 10.976562 109.5 8.671875 Z M 105.671875 11.679688 C 104.382812 11.679688 103.171875 10.605469 103.171875 8.496094 C 103.171875 6.328125 104.519531 5.46875 105.652344 5.46875 C 106.882812 5.46875 108.152344 6.386719 108.152344 8.496094 C 108.152344 10.703125 106.863281 11.679688 105.671875 11.679688 Z M 105.671875 11.679688 "/>
<path style=" stroke:none;fill-rule:nonzero;fill:rgb(0%,0%,0%);fill-opacity:1;" d="M 112.863281 0.175781 L 111.535156 0.175781 L 111.535156 12.617188 L 112.863281 12.617188 Z M 112.863281 0.175781 "/>
<path style=" stroke:none;fill-rule:nonzero;fill:rgb(0%,0%,0%);fill-opacity:1;" d="M 117.0625 0.175781 L 115.734375 0.175781 L 115.734375 12.617188 L 117.0625 12.617188 Z M 117.0625 0.175781 "/>
<path style=" stroke:none;fill-rule:nonzero;fill:rgb(0%,0%,0%);fill-opacity:1;" d="M 126.75 8.671875 C 126.75 6.25 124.972656 4.394531 122.921875 4.394531 C 120.8125 4.394531 119.074219 6.289062 119.074219 8.671875 C 119.074219 11.015625 120.851562 12.792969 122.902344 12.792969 C 125.011719 12.792969 126.75 10.976562 126.75 8.671875 Z M 122.921875 11.679688 C 121.632812 11.679688 120.421875 10.605469 120.421875 8.496094 C 120.421875 6.328125 121.769531 5.46875 122.902344 5.46875 C 124.132812 5.46875 125.402344 6.386719 125.402344 8.496094 C 125.402344 10.703125 124.113281 11.679688 122.921875 11.679688 Z M 122.921875 11.679688 "/>
<path style=" stroke:none;fill-rule:nonzero;fill:rgb(0%,0%,0%);fill-opacity:1;" d="M 138.589844 4.648438 L 137.28125 4.648438 L 136.207031 8.300781 C 135.953125 9.160156 135.445312 10.839844 135.367188 11.621094 L 135.347656 11.621094 C 135.308594 11.191406 135.015625 9.980469 134.644531 8.710938 L 133.453125 4.648438 L 132.222656 4.648438 L 131.1875 8.164062 C 130.875 9.277344 130.445312 10.820312 130.386719 11.582031 L 130.367188 11.582031 C 130.347656 11.230469 130.152344 10.292969 129.820312 9.082031 L 128.550781 4.648438 L 127.183594 4.648438 L 129.585938 12.617188 L 130.972656 12.617188 C 131.636719 10.351562 132.691406 6.953125 132.789062 5.703125 L 132.808594 5.703125 C 132.847656 6.425781 133.199219 7.714844 133.335938 8.144531 L 134.605469 12.617188 L 136.1875 12.617188 Z M 138.589844 4.648438 "/>
<path style=" stroke:none;fill-rule:nonzero;fill:rgb(0%,0%,0%);fill-opacity:1;" d="M 141.761719 0.449219 L 140.21875 0.449219 L 140.21875 1.992188 L 141.761719 1.992188 Z M 141.664062 4.648438 L 140.335938 4.648438 L 140.335938 12.617188 L 141.664062 12.617188 Z M 141.664062 4.648438 "/>
<path style=" stroke:none;fill-rule:nonzero;fill:rgb(0%,0%,0%);fill-opacity:1;" d="M 150.726562 7.226562 C 150.726562 6.132812 150.492188 4.472656 148.324219 4.472656 C 147.328125 4.472656 146.46875 4.921875 145.785156 5.78125 L 145.785156 4.570312 L 144.515625 4.570312 L 144.515625 12.617188 L 145.863281 12.617188 L 145.863281 8.144531 C 145.863281 7.050781 146.292969 5.546875 147.640625 5.546875 C 149.320312 5.546875 149.359375 6.71875 149.359375 7.34375 L 149.359375 12.617188 L 150.726562 12.617188 Z M 150.726562 7.226562 "/>
<path style=" stroke:none;fill-rule:nonzero;fill:rgb(0%,0%,0%);fill-opacity:1;" d="M 158.242188 5.546875 C 158.242188 5.546875 158.28125 5.585938 158.300781 5.625 C 158.671875 5.585938 159.0625 5.527344 159.726562 5.527344 C 159.785156 5.527344 160.195312 5.527344 160.644531 5.566406 L 160.449219 4.472656 C 160.117188 4.472656 158.886719 4.492188 157.695312 5.078125 C 157.109375 4.570312 156.386719 4.472656 156.035156 4.472656 C 154.472656 4.472656 153.222656 5.78125 153.222656 7.363281 C 153.222656 8.007812 153.417969 8.59375 153.808594 9.140625 C 153.398438 9.707031 153.300781 10.253906 153.300781 10.683594 C 153.300781 11.347656 153.554688 11.796875 153.75 12.03125 C 152.832031 12.617188 152.617188 13.378906 152.617188 13.886719 C 152.617188 15.195312 154.316406 16.289062 156.503906 16.289062 C 158.691406 16.289062 160.410156 15.234375 160.410156 13.867188 C 160.410156 11.367188 157.5 11.367188 156.777344 11.367188 L 155.253906 11.367188 C 155 11.367188 154.21875 11.367188 154.21875 10.410156 C 154.21875 10.019531 154.296875 9.902344 154.414062 9.746094 C 154.707031 9.960938 155.292969 10.273438 156.015625 10.273438 C 157.558594 10.273438 158.828125 9.003906 158.828125 7.363281 C 158.828125 6.71875 158.59375 6.054688 158.222656 5.566406 Z M 156.035156 9.277344 C 155.253906 9.277344 154.453125 8.75 154.453125 7.382812 C 154.453125 5.78125 155.46875 5.46875 156.015625 5.46875 C 156.816406 5.46875 157.597656 5.996094 157.597656 7.363281 C 157.597656 8.964844 156.601562 9.277344 156.035156 9.277344 Z M 156.796875 12.65625 C 157.1875 12.65625 159.160156 12.65625 159.160156 13.886719 C 159.160156 14.707031 157.929688 15.3125 156.523438 15.3125 C 155.117188 15.3125 153.867188 14.746094 153.867188 13.867188 C 153.867188 13.828125 153.867188 12.65625 155.234375 12.65625 Z M 156.796875 12.65625 "/>
<path style=" stroke:none;fill-rule:nonzero;fill:rgb(0%,0%,0%);fill-opacity:1;" d="M 35.335938 77.742188 C 35.921875 77.722656 36.214844 77.3125 36.214844 76.882812 C 36.214844 76.277344 35.785156 76.003906 35.355469 76.003906 C 34.925781 76.003906 34.476562 76.257812 34.476562 76.882812 C 34.476562 77.800781 35.375 78.5625 36.46875 78.5625 C 39.203125 78.5625 40.21875 74.363281 41.488281 69.167969 C 42.875 63.503906 44.046875 57.78125 45.003906 52.019531 C 45.667969 48.210938 46.332031 44.617188 46.9375 42.3125 C 47.152344 41.433594 47.777344 39.109375 48.460938 39.109375 C 49.027344 39.109375 49.476562 39.460938 49.554688 39.519531 C 48.949219 39.558594 48.65625 39.949219 48.65625 40.398438 C 48.65625 41.003906 49.105469 41.277344 49.515625 41.277344 C 49.945312 41.277344 50.394531 41.023438 50.394531 40.378906 C 50.394531 39.421875 49.417969 38.71875 48.441406 38.71875 C 47.074219 38.71875 46.058594 40.671875 45.082031 44.324219 C 45.023438 44.519531 42.582031 53.523438 40.609375 65.261719 C 40.140625 67.996094 39.632812 70.984375 39.046875 73.484375 C 38.714844 74.792969 37.894531 78.171875 36.429688 78.171875 C 35.785156 78.171875 35.355469 77.742188 35.335938 77.742188 Z M 35.335938 77.742188 "/>
<path style=" stroke:none;fill-rule:nonzero;fill:rgb(0%,0%,0%);fill-opacity:1;" d="M 55.695312 35.402344 L 56.730469 35.402344 C 56.59375 35.929688 56.398438 36.710938 56.398438 37.414062 C 56.398438 37.765625 56.457031 38 56.496094 38.175781 C 56.632812 38.625 56.75 38.644531 56.886719 38.644531 C 57.101562 38.644531 57.296875 38.46875 57.296875 38.253906 C 57.296875 38.195312 57.277344 38.15625 57.238281 38.078125 C 57.0625 37.746094 56.90625 37.257812 56.90625 36.535156 C 56.90625 36.378906 56.90625 36.027344 57.023438 35.402344 L 58.117188 35.402344 C 58.273438 35.402344 58.351562 35.402344 58.449219 35.34375 C 58.566406 35.246094 58.585938 35.109375 58.585938 35.070312 C 58.585938 34.816406 58.371094 34.816406 58.214844 34.816406 L 54.933594 34.816406 C 54.582031 34.816406 54.328125 34.894531 53.9375 35.265625 C 53.703125 35.460938 53.371094 35.929688 53.371094 36.007812 C 53.371094 36.105469 53.488281 36.105469 53.527344 36.105469 C 53.625 36.105469 53.625 36.085938 53.683594 36.007812 C 54.113281 35.402344 54.660156 35.402344 54.855469 35.402344 L 55.382812 35.402344 C 55.109375 36.359375 54.640625 37.394531 54.386719 37.921875 C 54.328125 38.019531 54.25 38.214844 54.210938 38.234375 C 54.210938 38.273438 54.191406 38.3125 54.191406 38.371094 C 54.191406 38.507812 54.289062 38.644531 54.503906 38.644531 C 54.835938 38.644531 54.933594 38.253906 55.148438 37.472656 Z M 55.695312 35.402344 "/>
<path style=" stroke:none;fill-rule:nonzero;fill:rgb(0%,0%,0%);fill-opacity:1;" d="M 52.964844 40.085938 L 59.117188 40.085938 L 59.117188 40.683594 L 52.964844 40.683594 Z M 52.964844 40.085938 "/>
<path style=" stroke:none;fill-rule:nonzero;fill:rgb(0%,0%,0%);fill-opacity:1;" d="M 55.960938 44.808594 C 56.644531 44.808594 57.132812 45.277344 57.132812 46.214844 C 57.132812 47.289062 56.488281 47.621094 56 47.621094 C 55.648438 47.621094 54.867188 47.523438 54.515625 46.996094 C 54.925781 46.996094 55.023438 46.703125 55.023438 46.507812 C 55.023438 46.234375 54.808594 46.039062 54.535156 46.039062 C 54.300781 46.039062 54.046875 46.195312 54.046875 46.546875 C 54.046875 47.367188 54.945312 47.894531 56 47.894531 C 57.210938 47.894531 58.050781 47.074219 58.050781 46.214844 C 58.050781 45.53125 57.503906 44.847656 56.546875 44.652344 C 57.445312 44.320312 57.777344 43.675781 57.777344 43.128906 C 57.777344 42.445312 56.996094 41.9375 56.019531 41.9375 C 55.0625 41.9375 54.320312 42.40625 54.320312 43.109375 C 54.320312 43.402344 54.515625 43.558594 54.769531 43.558594 C 55.042969 43.558594 55.21875 43.363281 55.21875 43.128906 C 55.21875 42.875 55.042969 42.679688 54.769531 42.660156 C 55.082031 42.289062 55.667969 42.191406 56 42.191406 C 56.390625 42.191406 56.9375 42.386719 56.9375 43.128906 C 56.9375 43.5 56.820312 43.910156 56.585938 44.164062 C 56.3125 44.496094 56.058594 44.515625 55.628906 44.554688 C 55.414062 44.574219 55.394531 44.574219 55.355469 44.574219 C 55.335938 44.574219 55.257812 44.59375 55.257812 44.691406 C 55.257812 44.808594 55.335938 44.808594 55.492188 44.808594 Z M 55.960938 44.808594 "/>
<path style=" stroke:none;fill-rule:nonzero;fill:rgb(0%,0%,0%);fill-opacity:1;" d="M 47.742188 71.101562 L 48.777344 71.101562 C 48.640625 71.628906 48.445312 72.410156 48.445312 73.113281 C 48.445312 73.464844 48.503906 73.699219 48.542969 73.875 C 48.679688 74.324219 48.796875 74.34375 48.933594 74.34375 C 49.148438 74.34375 49.34375 74.167969 49.34375 73.953125 C 49.34375 73.894531 49.324219 73.855469 49.285156 73.777344 C 49.109375 73.445312 48.953125 72.957031 48.953125 72.234375 C 48.953125 72.078125 48.953125 71.726562 49.070312 71.101562 L 50.164062 71.101562 C 50.320312 71.101562 50.398438 71.101562 50.496094 71.042969 C 50.613281 70.945312 50.632812 70.808594 50.632812 70.769531 C 50.632812 70.515625 50.417969 70.515625 50.261719 70.515625 L 46.980469 70.515625 C 46.628906 70.515625 46.375 70.59375 45.984375 70.964844 C 45.75 71.160156 45.417969 71.628906 45.417969 71.707031 C 45.417969 71.804688 45.535156 71.804688 45.574219 71.804688 C 45.671875 71.804688 45.671875 71.785156 45.730469 71.707031 C 46.160156 71.101562 46.707031 71.101562 46.902344 71.101562 L 47.429688 71.101562 C 47.15625 72.058594 46.6875 73.09375 46.433594 73.621094 C 46.375 73.71875 46.296875 73.914062 46.257812 73.933594 C 46.257812 73.972656 46.238281 74.011719 46.238281 74.070312 C 46.238281 74.207031 46.335938 74.34375 46.550781 74.34375 C 46.882812 74.34375 46.980469 73.953125 47.195312 73.171875 Z M 47.742188 71.101562 "/>
<path style=" stroke:none;fill-rule:nonzero;fill:rgb(0%,0%,0%);fill-opacity:1;" d="M 45.015625 75.78125 L 51.167969 75.78125 L 51.167969 76.382812 L 45.015625 76.382812 Z M 45.015625 75.78125 "/>
<path style=" stroke:none;fill-rule:nonzero;fill:rgb(0%,0%,0%);fill-opacity:1;" d="M 46.9375 80.566406 C 46.9375 79.863281 46.996094 79.21875 47.328125 78.671875 C 47.621094 78.203125 48.089844 77.890625 48.65625 77.890625 C 48.910156 77.890625 49.261719 77.949219 49.4375 78.183594 C 49.222656 78.203125 49.027344 78.359375 49.027344 78.613281 C 49.027344 78.828125 49.183594 79.023438 49.4375 79.023438 C 49.710938 79.023438 49.867188 78.847656 49.867188 78.59375 C 49.867188 78.085938 49.496094 77.636719 48.636719 77.636719 C 47.386719 77.636719 46.097656 78.789062 46.097656 80.664062 C 46.097656 82.910156 47.152344 83.59375 48.128906 83.59375 C 49.183594 83.59375 50.101562 82.773438 50.101562 81.640625 C 50.101562 80.527344 49.222656 79.707031 48.207031 79.707031 C 47.503906 79.707031 47.132812 80.175781 46.9375 80.566406 Z M 48.128906 83.320312 C 47.679688 83.320312 47.347656 83.066406 47.152344 82.675781 C 47.035156 82.421875 46.957031 81.972656 46.957031 81.464844 C 46.957031 80.605469 47.464844 79.960938 48.167969 79.960938 C 48.558594 79.960938 48.832031 80.117188 49.046875 80.429688 C 49.261719 80.761719 49.261719 81.132812 49.261719 81.640625 C 49.261719 82.128906 49.261719 82.5 49.027344 82.851562 C 48.832031 83.144531 48.539062 83.320312 48.128906 83.320312 Z M 48.128906 83.320312 "/>
<path style=" stroke:none;fill-rule:nonzero;fill:rgb(0%,0%,0%);fill-opacity:1;" d="M 107.003906 39.023438 C 107.023438 38.945312 107.0625 38.847656 107.0625 38.75 C 107.0625 38.574219 106.867188 38.574219 106.828125 38.574219 C 106.828125 38.574219 105.949219 38.652344 105.851562 38.652344 C 105.539062 38.671875 105.285156 38.710938 104.953125 38.730469 C 104.503906 38.769531 104.386719 38.789062 104.386719 39.101562 C 104.386719 39.296875 104.523438 39.296875 104.777344 39.296875 C 105.65625 39.296875 105.675781 39.453125 105.675781 39.628906 C 105.675781 39.746094 105.636719 39.882812 105.617188 39.941406 L 104.523438 44.296875 C 104.328125 43.828125 103.839844 43.105469 102.902344 43.105469 C 100.890625 43.105469 98.703125 45.722656 98.703125 48.378906 C 98.703125 50.15625 99.738281 51.191406 100.949219 51.191406 C 101.945312 51.191406 102.785156 50.429688 103.292969 49.824219 C 103.46875 50.898438 104.308594 51.191406 104.855469 51.191406 C 105.382812 51.191406 105.8125 50.878906 106.144531 50.234375 C 106.417969 49.609375 106.671875 48.515625 106.671875 48.457031 C 106.671875 48.359375 106.613281 48.28125 106.496094 48.28125 C 106.339844 48.28125 106.320312 48.378906 106.242188 48.652344 C 105.96875 49.707031 105.636719 50.839844 104.894531 50.839844 C 104.386719 50.839844 104.347656 50.371094 104.347656 50.019531 C 104.347656 49.941406 104.347656 49.570312 104.464844 49.0625 Z M 103.371094 48.886719 C 103.292969 49.179688 103.292969 49.21875 103.039062 49.570312 C 102.648438 50.058594 101.847656 50.839844 101.007812 50.839844 C 100.285156 50.839844 99.855469 50.175781 99.855469 49.121094 C 99.855469 48.125 100.421875 46.113281 100.753906 45.371094 C 101.378906 44.121094 102.21875 43.476562 102.902344 43.476562 C 104.09375 43.476562 104.328125 44.941406 104.328125 45.078125 C 104.328125 45.097656 104.269531 45.332031 104.25 45.371094 Z M 103.371094 48.886719 "/>
<path style=" stroke:none;fill-rule:nonzero;fill:rgb(0%,0%,0%);fill-opacity:1;" d="M 115.625 43.691406 C 115.058594 43.808594 114.84375 44.238281 114.84375 44.570312 C 114.84375 45 115.175781 45.15625 115.429688 45.15625 C 115.976562 45.15625 116.347656 44.6875 116.347656 44.199219 C 116.347656 43.457031 115.488281 43.105469 114.726562 43.105469 C 113.632812 43.105469 113.027344 44.179688 112.871094 44.53125 C 112.460938 43.183594 111.347656 43.105469 111.015625 43.105469 C 109.199219 43.105469 108.222656 45.449219 108.222656 45.859375 C 108.222656 45.917969 108.300781 46.015625 108.417969 46.015625 C 108.554688 46.015625 108.59375 45.898438 108.632812 45.839844 C 109.238281 43.847656 110.449219 43.476562 110.957031 43.476562 C 111.777344 43.476562 111.933594 44.21875 111.933594 44.648438 C 111.933594 45.039062 111.835938 45.449219 111.601562 46.308594 L 110.996094 48.769531 C 110.742188 49.84375 110.214844 50.839844 109.257812 50.839844 C 109.179688 50.839844 108.730469 50.839844 108.339844 50.605469 C 108.984375 50.46875 109.140625 49.941406 109.140625 49.726562 C 109.140625 49.375 108.867188 49.160156 108.535156 49.160156 C 108.105469 49.160156 107.636719 49.53125 107.636719 50.097656 C 107.636719 50.859375 108.476562 51.191406 109.238281 51.191406 C 110.097656 51.191406 110.722656 50.507812 111.09375 49.785156 C 111.386719 50.839844 112.265625 51.191406 112.929688 51.191406 C 114.765625 51.191406 115.742188 48.847656 115.742188 48.457031 C 115.742188 48.359375 115.664062 48.28125 115.546875 48.28125 C 115.390625 48.28125 115.371094 48.378906 115.332031 48.515625 C 114.84375 50.097656 113.789062 50.839844 112.988281 50.839844 C 112.363281 50.839844 112.03125 50.371094 112.03125 49.628906 C 112.03125 49.238281 112.089844 48.945312 112.382812 47.773438 L 113.007812 45.332031 C 113.28125 44.257812 113.886719 43.476562 114.707031 43.476562 C 114.746094 43.476562 115.253906 43.476562 115.625 43.691406 Z M 115.625 43.691406 "/>
<path style=" stroke:none;fill-rule:nonzero;fill:rgb(0%,0%,0%);fill-opacity:1;" d="M 65.714844 58.234375 L 149.414062 58.234375 L 149.414062 58.984375 L 65.714844 58.984375 Z M 65.714844 58.234375 "/>
<path style=" stroke:none;fill-rule:nonzero;fill:rgb(0%,0%,0%);fill-opacity:1;" d="M 70.886719 65.632812 C 70.886719 65.203125 70.886719 65.203125 70.535156 65.203125 C 70.105469 65.671875 69.207031 66.335938 67.371094 66.335938 L 67.371094 66.863281 C 67.78125 66.863281 68.679688 66.863281 69.65625 66.394531 L 69.65625 75.730469 C 69.65625 76.375 69.597656 76.589844 68.035156 76.589844 L 67.46875 76.589844 L 67.46875 77.117188 C 67.957031 77.078125 69.695312 77.078125 70.28125 77.078125 C 70.867188 77.078125 72.605469 77.078125 73.074219 77.117188 L 73.074219 76.589844 L 72.527344 76.589844 C 70.945312 76.589844 70.886719 76.375 70.886719 75.730469 Z M 70.886719 65.632812 "/>
<path style=" stroke:none;fill-rule:nonzero;fill:rgb(0%,0%,0%);fill-opacity:1;" d="M 85.628906 72.976562 L 90.589844 72.976562 C 90.84375 72.976562 91.15625 72.976562 91.15625 72.644531 C 91.15625 72.3125 90.84375 72.3125 90.589844 72.3125 L 85.628906 72.3125 L 85.628906 67.371094 C 85.628906 67.117188 85.628906 66.785156 85.316406 66.785156 C 84.964844 66.785156 84.964844 67.097656 84.964844 67.371094 L 84.964844 72.3125 L 80.023438 72.3125 C 79.769531 72.3125 79.457031 72.3125 79.457031 72.644531 C 79.457031 72.976562 79.75 72.976562 80.023438 72.976562 L 84.964844 72.976562 L 84.964844 77.917969 C 84.964844 78.171875 84.964844 78.503906 85.296875 78.503906 C 85.628906 78.503906 85.628906 78.191406 85.628906 77.917969 Z M 85.628906 72.976562 "/>
<path style=" stroke:none;fill-rule:nonzero;fill:rgb(0%,0%,0%);fill-opacity:1;" d="M 103 77.898438 L 99.855469 70.925781 C 99.71875 70.632812 99.640625 70.632812 99.582031 70.632812 C 99.5625 70.632812 99.464844 70.632812 99.269531 70.769531 L 97.570312 72.078125 C 97.335938 72.253906 97.335938 72.292969 97.335938 72.351562 C 97.335938 72.449219 97.394531 72.546875 97.511719 72.546875 C 97.628906 72.546875 97.921875 72.292969 98.117188 72.15625 C 98.234375 72.078125 98.507812 71.863281 98.703125 71.726562 L 102.238281 79.5 C 102.355469 79.773438 102.453125 79.773438 102.609375 79.773438 C 102.882812 79.773438 102.921875 79.675781 103.058594 79.421875 L 111.203125 62.566406 C 111.320312 62.3125 111.320312 62.234375 111.320312 62.214844 C 111.320312 62.019531 111.183594 61.84375 110.96875 61.84375 C 110.8125 61.84375 110.695312 61.941406 110.558594 62.234375 Z M 103 77.898438 "/>
<path style=" stroke:none;fill-rule:nonzero;fill:rgb(0%,0%,0%);fill-opacity:1;" d="M 111.015625 61.832031 L 149.414062 61.832031 L 149.414062 62.585938 L 111.015625 62.585938 Z M 111.015625 61.832031 "/>
<path style=" stroke:none;fill-rule:nonzero;fill:rgb(0%,0%,0%);fill-opacity:1;" d="M 114.035156 69.910156 L 116.574219 69.910156 L 116.574219 69.382812 L 114.035156 69.382812 L 114.035156 66.082031 L 113.644531 66.082031 C 113.625 67.78125 112.980469 69.5 111.359375 69.558594 L 111.359375 69.910156 L 112.882812 69.910156 L 112.882812 74.890625 C 112.882812 76.882812 114.191406 77.292969 115.148438 77.292969 C 116.28125 77.292969 116.867188 76.179688 116.867188 74.890625 L 116.867188 73.875 L 116.476562 73.875 L 116.476562 74.851562 C 116.476562 76.140625 115.949219 76.902344 115.265625 76.902344 C 114.035156 76.902344 114.035156 75.242188 114.035156 74.929688 Z M 114.035156 69.910156 "/>
<path style=" stroke:none;fill-rule:nonzero;fill:rgb(0%,0%,0%);fill-opacity:1;" d="M 124.84375 72.332031 C 124.84375 71.355469 124.84375 70.652344 124.0625 69.949219 C 123.4375 69.363281 122.636719 69.128906 121.835938 69.128906 C 120.371094 69.128906 119.238281 70.085938 119.238281 71.257812 C 119.238281 71.765625 119.570312 72.019531 120 72.019531 C 120.429688 72.019531 120.722656 71.726562 120.722656 71.296875 C 120.722656 70.554688 120.078125 70.554688 119.804688 70.554688 C 120.234375 69.792969 121.09375 69.480469 121.796875 69.480469 C 122.636719 69.480469 123.691406 70.164062 123.691406 71.765625 L 123.691406 72.488281 C 120.078125 72.546875 118.710938 74.050781 118.710938 75.4375 C 118.710938 76.84375 120.371094 77.292969 121.464844 77.292969 C 122.636719 77.292969 123.457031 76.570312 123.789062 75.710938 C 123.867188 76.570312 124.414062 77.214844 125.195312 77.214844 C 125.566406 77.214844 126.601562 76.960938 126.601562 75.515625 L 126.601562 74.519531 L 126.210938 74.519531 L 126.210938 75.515625 C 126.210938 76.550781 125.78125 76.6875 125.527344 76.6875 C 124.84375 76.6875 124.84375 75.730469 124.84375 75.476562 Z M 123.691406 74.597656 C 123.691406 76.355469 122.382812 76.941406 121.601562 76.941406 C 120.722656 76.941406 120 76.296875 120 75.4375 C 120 73.074219 123.046875 72.859375 123.691406 72.820312 Z M 123.691406 74.597656 "/>
<path style=" stroke:none;fill-rule:nonzero;fill:rgb(0%,0%,0%);fill-opacity:1;" d="M 134.765625 72.761719 C 134.765625 71.101562 134.765625 70.59375 134.335938 70.007812 C 133.828125 69.324219 132.988281 69.207031 132.363281 69.207031 C 130.625 69.207031 129.941406 70.691406 129.804688 71.0625 L 129.785156 71.0625 L 129.785156 69.207031 L 127.34375 69.402344 L 127.34375 69.929688 C 128.574219 69.929688 128.710938 70.046875 128.710938 70.925781 L 128.710938 75.789062 C 128.710938 76.589844 128.515625 76.589844 127.34375 76.589844 L 127.34375 77.117188 C 127.8125 77.078125 128.789062 77.078125 129.296875 77.078125 C 129.804688 77.078125 130.78125 77.078125 131.25 77.117188 L 131.25 76.589844 C 130.097656 76.589844 129.882812 76.589844 129.882812 75.789062 L 129.882812 72.449219 C 129.882812 70.574219 131.113281 69.578125 132.226562 69.578125 C 133.339844 69.578125 133.59375 70.476562 133.59375 71.570312 L 133.59375 75.789062 C 133.59375 76.589844 133.398438 76.589844 132.226562 76.589844 L 132.226562 77.117188 C 132.695312 77.078125 133.671875 77.078125 134.160156 77.078125 C 134.6875 77.078125 135.644531 77.078125 136.113281 77.117188 L 136.113281 76.589844 C 135.214844 76.589844 134.765625 76.589844 134.765625 76.0625 Z M 134.765625 72.761719 "/>
<path style=" stroke:none;fill-rule:nonzero;fill:rgb(0%,0%,0%);fill-opacity:1;" d="M 147.875 69.792969 C 147.308594 69.910156 147.09375 70.339844 147.09375 70.671875 C 147.09375 71.101562 147.425781 71.257812 147.679688 71.257812 C 148.226562 71.257812 148.597656 70.789062 148.597656 70.300781 C 148.597656 69.558594 147.738281 69.207031 146.976562 69.207031 C 145.882812 69.207031 145.277344 70.28125 145.121094 70.632812 C 144.710938 69.285156 143.597656 69.207031 143.265625 69.207031 C 141.449219 69.207031 140.472656 71.550781 140.472656 71.960938 C 140.472656 72.019531 140.550781 72.117188 140.667969 72.117188 C 140.804688 72.117188 140.84375 72 140.882812 71.941406 C 141.488281 69.949219 142.699219 69.578125 143.207031 69.578125 C 144.027344 69.578125 144.183594 70.320312 144.183594 70.75 C 144.183594 71.140625 144.085938 71.550781 143.851562 72.410156 L 143.246094 74.871094 C 142.992188 75.945312 142.464844 76.941406 141.507812 76.941406 C 141.429688 76.941406 140.980469 76.941406 140.589844 76.707031 C 141.234375 76.570312 141.390625 76.042969 141.390625 75.828125 C 141.390625 75.476562 141.117188 75.261719 140.785156 75.261719 C 140.355469 75.261719 139.886719 75.632812 139.886719 76.199219 C 139.886719 76.960938 140.726562 77.292969 141.488281 77.292969 C 142.347656 77.292969 142.972656 76.609375 143.34375 75.886719 C 143.636719 76.941406 144.515625 77.292969 145.179688 77.292969 C 147.015625 77.292969 147.992188 74.949219 147.992188 74.558594 C 147.992188 74.460938 147.914062 74.382812 147.796875 74.382812 C 147.640625 74.382812 147.621094 74.480469 147.582031 74.617188 C 147.09375 76.199219 146.039062 76.941406 145.238281 76.941406 C 144.613281 76.941406 144.28125 76.472656 144.28125 75.730469 C 144.28125 75.339844 144.339844 75.046875 144.632812 73.875 L 145.257812 71.433594 C 145.53125 70.359375 146.136719 69.578125 146.957031 69.578125 C 146.996094 69.578125 147.503906 69.578125 147.875 69.792969 Z M 147.875 69.792969 "/>
</g>
</svg>
