<?xml version="1.0" encoding="UTF-8"?>
<svg xmlns="http://www.w3.org/2000/svg" xmlns:xlink="http://www.w3.org/1999/xlink" width="247.33431pt" height="59.559126pt" viewBox="0 0 247.33431 59.559126" version="1.1">
<g id="surface1">
<path style=" stroke:none;fill-rule:nonzero;fill:rgb(0%,0%,100%);fill-opacity:1;" d="M 2.539062 0.996094 L 0.996094 0.996094 L 0.996094 13.4375 L 2.539062 13.4375 Z M 2.539062 0.996094 "/>
<path style=" stroke:none;fill-rule:nonzero;fill:rgb(0%,0%,100%);fill-opacity:1;" d="M 11.773438 8.046875 C 11.773438 6.953125 11.539062 5.292969 9.371094 5.292969 C 8.375 5.292969 7.515625 5.742188 6.832031 6.601562 L 6.832031 5.390625 L 5.5625 5.390625 L 5.5625 13.4375 L 6.910156 13.4375 L 6.910156 8.964844 C 6.910156 7.871094 7.339844 6.367188 8.6875 6.367188 C 10.367188 6.367188 10.40625 7.539062 10.40625 8.164062 L 10.40625 13.4375 L 11.773438 13.4375 Z M 11.773438 8.046875 "/>
<path style=" stroke:none;fill-rule:nonzero;fill:rgb(0%,0%,100%);fill-opacity:1;" d="M 20.929688 5.46875 L 19.601562 5.46875 L 18.292969 9.042969 C 17.980469 9.902344 17.316406 11.796875 17.21875 12.460938 L 17.199219 12.460938 C 17.101562 11.835938 16.75 10.859375 16.476562 10.078125 L 14.816406 5.46875 L 13.429688 5.46875 L 16.378906 13.4375 L 17.980469 13.4375 Z M 20.929688 5.46875 "/>
<path style=" stroke:none;fill-rule:nonzero;fill:rgb(0%,0%,100%);fill-opacity:1;" d="M 28.578125 9.394531 C 28.578125 8.632812 28.5 7.539062 27.933594 6.582031 C 27.191406 5.351562 25.941406 5.214844 25.414062 5.214844 C 23.480469 5.214844 21.859375 7.070312 21.859375 9.394531 C 21.859375 11.777344 23.578125 13.613281 25.667969 13.613281 C 26.488281 13.613281 27.484375 13.378906 28.460938 12.675781 C 28.460938 12.597656 28.402344 12.03125 28.402344 12.011719 C 28.382812 11.992188 28.363281 11.582031 28.363281 11.523438 C 27.289062 12.421875 26.234375 12.539062 25.707031 12.539062 C 24.320312 12.539062 23.128906 11.308594 23.109375 9.394531 Z M 23.207031 8.4375 C 23.519531 7.226562 24.359375 6.289062 25.414062 6.289062 C 25.980469 6.289062 27.210938 6.542969 27.503906 8.4375 Z M 23.207031 8.4375 "/>
<path style=" stroke:none;fill-rule:nonzero;fill:rgb(0%,0%,100%);fill-opacity:1;" d="M 31.808594 9.511719 C 31.808594 7.695312 33.15625 6.523438 34.777344 6.503906 L 34.777344 5.292969 C 33.136719 5.3125 32.199219 6.269531 31.710938 6.972656 L 31.710938 5.390625 L 30.480469 5.390625 L 30.480469 13.4375 L 31.808594 13.4375 Z M 31.808594 9.511719 "/>
<path style=" stroke:none;fill-rule:nonzero;fill:rgb(0%,0%,100%);fill-opacity:1;" d="M 41.089844 5.761719 C 39.957031 5.234375 38.980469 5.214844 38.570312 5.214844 C 38.160156 5.214844 35.660156 5.214844 35.660156 7.539062 C 35.660156 8.320312 36.089844 8.867188 36.363281 9.121094 C 37.007812 9.667969 37.457031 9.765625 38.511719 9.980469 C 39.117188 10.097656 40.152344 10.3125 40.152344 11.269531 C 40.152344 12.5 38.746094 12.5 38.492188 12.5 C 37.789062 12.5 36.734375 12.304688 35.777344 11.601562 L 35.5625 12.832031 C 35.640625 12.890625 36.871094 13.613281 38.511719 13.613281 C 40.835938 13.613281 41.382812 12.226562 41.382812 11.152344 C 41.382812 10.253906 40.835938 9.667969 40.757812 9.589844 C 40.09375 8.90625 39.546875 8.789062 38.472656 8.574219 C 37.808594 8.457031 36.910156 8.28125 36.910156 7.382812 C 36.910156 6.269531 38.160156 6.269531 38.394531 6.269531 C 39.332031 6.269531 40.09375 6.484375 40.875 6.933594 Z M 41.089844 5.761719 "/>
<path style=" stroke:none;fill-rule:nonzero;fill:rgb(0%,0%,100%);fill-opacity:1;" d="M 49.128906 9.394531 C 49.128906 8.632812 49.050781 7.539062 48.484375 6.582031 C 47.742188 5.351562 46.492188 5.214844 45.964844 5.214844 C 44.03125 5.214844 42.410156 7.070312 42.410156 9.394531 C 42.410156 11.777344 44.128906 13.613281 46.21875 13.613281 C 47.039062 13.613281 48.035156 13.378906 49.011719 12.675781 C 49.011719 12.597656 48.953125 12.03125 48.953125 12.011719 C 48.933594 11.992188 48.914062 11.582031 48.914062 11.523438 C 47.839844 12.421875 46.785156 12.539062 46.257812 12.539062 C 44.871094 12.539062 43.679688 11.308594 43.660156 9.394531 Z M 43.757812 8.4375 C 44.070312 7.226562 44.910156 6.289062 45.964844 6.289062 C 46.53125 6.289062 47.761719 6.542969 48.054688 8.4375 Z M 43.757812 8.4375 "/>
<path style=" stroke:none;fill-rule:nonzero;fill:rgb(0%,0%,100%);fill-opacity:1;" d="M 65.230469 2.1875 L 66.8125 2.1875 C 67.027344 2.1875 67.242188 2.207031 67.457031 2.207031 L 69.800781 2.207031 L 69.800781 1.074219 L 59.097656 1.074219 L 59.097656 2.207031 L 61.460938 2.207031 C 61.675781 2.207031 61.890625 2.1875 62.105469 2.1875 L 63.6875 2.1875 L 63.6875 13.4375 L 65.230469 13.4375 Z M 65.230469 2.1875 "/>
<path style=" stroke:none;fill-rule:nonzero;fill:rgb(0%,0%,100%);fill-opacity:1;" d="M 71.707031 9.511719 C 71.707031 7.695312 73.054688 6.523438 74.675781 6.503906 L 74.675781 5.292969 C 73.035156 5.3125 72.097656 6.269531 71.609375 6.972656 L 71.609375 5.390625 L 70.378906 5.390625 L 70.378906 13.4375 L 71.707031 13.4375 Z M 71.707031 9.511719 "/>
<path style=" stroke:none;fill-rule:nonzero;fill:rgb(0%,0%,100%);fill-opacity:1;" d="M 77.804688 1.269531 L 76.261719 1.269531 L 76.261719 2.8125 L 77.804688 2.8125 Z M 77.707031 5.46875 L 76.378906 5.46875 L 76.378906 13.4375 L 77.707031 13.4375 Z M 77.707031 5.46875 "/>
<path style=" stroke:none;fill-rule:nonzero;fill:rgb(0%,0%,100%);fill-opacity:1;" d="M 85.289062 6.367188 C 85.289062 6.367188 85.328125 6.40625 85.347656 6.445312 C 85.71875 6.40625 86.109375 6.347656 86.773438 6.347656 C 86.832031 6.347656 87.242188 6.347656 87.691406 6.386719 L 87.496094 5.292969 C 87.164062 5.292969 85.933594 5.3125 84.742188 5.898438 C 84.15625 5.390625 83.433594 5.292969 83.082031 5.292969 C 81.519531 5.292969 80.269531 6.601562 80.269531 8.183594 C 80.269531 8.828125 80.464844 9.414062 80.855469 9.960938 C 80.445312 10.527344 80.347656 11.074219 80.347656 11.503906 C 80.347656 12.167969 80.601562 12.617188 80.796875 12.851562 C 79.878906 13.4375 79.664062 14.199219 79.664062 14.707031 C 79.664062 16.015625 81.363281 17.109375 83.550781 17.109375 C 85.738281 17.109375 87.457031 16.054688 87.457031 14.6875 C 87.457031 12.1875 84.546875 12.1875 83.824219 12.1875 L 82.300781 12.1875 C 82.046875 12.1875 81.265625 12.1875 81.265625 11.230469 C 81.265625 10.839844 81.34375 10.722656 81.460938 10.566406 C 81.753906 10.78125 82.339844 11.09375 83.0625 11.09375 C 84.605469 11.09375 85.875 9.824219 85.875 8.183594 C 85.875 7.539062 85.640625 6.875 85.269531 6.386719 Z M 83.082031 10.097656 C 82.300781 10.097656 81.5 9.570312 81.5 8.203125 C 81.5 6.601562 82.515625 6.289062 83.0625 6.289062 C 83.863281 6.289062 84.644531 6.816406 84.644531 8.183594 C 84.644531 9.785156 83.648438 10.097656 83.082031 10.097656 Z M 83.84375 13.476562 C 84.234375 13.476562 86.207031 13.476562 86.207031 14.707031 C 86.207031 15.527344 84.976562 16.132812 83.570312 16.132812 C 82.164062 16.132812 80.914062 15.566406 80.914062 14.6875 C 80.914062 14.648438 80.914062 13.476562 82.28125 13.476562 Z M 83.84375 13.476562 "/>
<path style=" stroke:none;fill-rule:nonzero;fill:rgb(0%,0%,100%);fill-opacity:1;" d="M 91.1875 11.992188 L 89.722656 11.992188 L 89.722656 13.4375 L 91.1875 13.4375 Z M 91.1875 11.992188 "/>
<path style=" stroke:none;fill-rule:nonzero;fill:rgb(0%,0%,100%);fill-opacity:1;" d="M 118.550781 7.773438 L 118.550781 6.699219 L 113.238281 6.699219 L 113.238281 2.148438 L 115.542969 2.148438 C 115.757812 2.148438 115.972656 2.167969 116.1875 2.167969 L 119.292969 2.167969 L 119.292969 1.035156 L 111.695312 1.035156 L 111.695312 13.4375 L 113.238281 13.4375 L 113.238281 7.773438 Z M 118.550781 7.773438 "/>
<path style=" stroke:none;fill-rule:nonzero;fill:rgb(0%,0%,100%);fill-opacity:1;" d="M 127.121094 5.46875 L 125.753906 5.46875 L 125.753906 10.605469 C 125.753906 11.972656 124.816406 12.636719 123.644531 12.636719 C 122.394531 12.636719 122.257812 12.167969 122.257812 11.367188 L 122.257812 5.46875 L 120.910156 5.46875 L 120.910156 11.445312 C 120.910156 12.734375 121.320312 13.613281 122.785156 13.613281 C 123.292969 13.613281 124.699219 13.535156 125.792969 12.539062 L 125.792969 13.4375 L 127.121094 13.4375 Z M 127.121094 5.46875 "/>
<path style=" stroke:none;fill-rule:nonzero;fill:rgb(0%,0%,100%);fill-opacity:1;" d="M 136.121094 8.046875 C 136.121094 6.953125 135.886719 5.292969 133.71875 5.292969 C 132.722656 5.292969 131.863281 5.742188 131.179688 6.601562 L 131.179688 5.390625 L 129.910156 5.390625 L 129.910156 13.4375 L 131.257812 13.4375 L 131.257812 8.964844 C 131.257812 7.871094 131.6875 6.367188 133.035156 6.367188 C 134.714844 6.367188 134.753906 7.539062 134.753906 8.164062 L 134.753906 13.4375 L 136.121094 13.4375 Z M 136.121094 8.046875 "/>
<path style=" stroke:none;fill-rule:nonzero;fill:rgb(0%,0%,100%);fill-opacity:1;" d="M 144.710938 11.503906 C 143.890625 12.167969 142.972656 12.5 141.976562 12.5 C 140.472656 12.5 139.515625 11.171875 139.515625 9.433594 C 139.515625 7.949219 140.238281 6.328125 142.015625 6.328125 C 143.226562 6.328125 143.734375 6.601562 144.496094 7.128906 L 144.710938 5.957031 C 143.675781 5.351562 143.089844 5.214844 142.015625 5.214844 C 139.554688 5.214844 138.148438 7.402344 138.148438 9.433594 C 138.148438 11.738281 139.808594 13.613281 141.957031 13.613281 C 142.835938 13.613281 143.832031 13.398438 144.828125 12.675781 C 144.828125 12.636719 144.769531 12.070312 144.75 12.011719 Z M 144.710938 11.503906 "/>
<path style=" stroke:none;fill-rule:nonzero;fill:rgb(0%,0%,100%);fill-opacity:1;" d="M 148.390625 6.523438 L 150.871094 6.523438 L 150.871094 5.46875 L 148.390625 5.46875 L 148.390625 3.203125 L 147.160156 3.203125 L 147.160156 5.46875 L 145.65625 5.46875 L 145.65625 6.523438 L 147.121094 6.523438 L 147.121094 11.347656 C 147.121094 12.382812 147.355469 13.613281 148.585938 13.613281 C 149.796875 13.613281 150.617188 13.203125 151.164062 12.910156 L 150.890625 11.875 C 150.265625 12.441406 149.601562 12.5 149.289062 12.5 C 148.488281 12.5 148.390625 11.660156 148.390625 11.035156 Z M 148.390625 6.523438 "/>
<path style=" stroke:none;fill-rule:nonzero;fill:rgb(0%,0%,100%);fill-opacity:1;" d="M 154.457031 1.269531 L 152.914062 1.269531 L 152.914062 2.8125 L 154.457031 2.8125 Z M 154.359375 5.46875 L 153.03125 5.46875 L 153.03125 13.4375 L 154.359375 13.4375 Z M 154.359375 5.46875 "/>
<path style=" stroke:none;fill-rule:nonzero;fill:rgb(0%,0%,100%);fill-opacity:1;" d="M 164.046875 9.492188 C 164.046875 7.070312 162.269531 5.214844 160.21875 5.214844 C 158.109375 5.214844 156.371094 7.109375 156.371094 9.492188 C 156.371094 11.835938 158.148438 13.613281 160.199219 13.613281 C 162.308594 13.613281 164.046875 11.796875 164.046875 9.492188 Z M 160.21875 12.5 C 158.929688 12.5 157.71875 11.425781 157.71875 9.316406 C 157.71875 7.148438 159.066406 6.289062 160.199219 6.289062 C 161.429688 6.289062 162.699219 7.207031 162.699219 9.316406 C 162.699219 11.523438 161.410156 12.5 160.21875 12.5 Z M 160.21875 12.5 "/>
<path style=" stroke:none;fill-rule:nonzero;fill:rgb(0%,0%,100%);fill-opacity:1;" d="M 172.273438 8.046875 C 172.273438 6.953125 172.039062 5.292969 169.871094 5.292969 C 168.875 5.292969 168.015625 5.742188 167.332031 6.601562 L 167.332031 5.390625 L 166.0625 5.390625 L 166.0625 13.4375 L 167.410156 13.4375 L 167.410156 8.964844 C 167.410156 7.871094 167.839844 6.367188 169.1875 6.367188 C 170.867188 6.367188 170.90625 7.539062 170.90625 8.164062 L 170.90625 13.4375 L 172.273438 13.4375 Z M 172.273438 8.046875 "/>
<path style=" stroke:none;fill-rule:nonzero;fill:rgb(0%,0%,100%);fill-opacity:1;" d="M 179.691406 5.761719 C 178.558594 5.234375 177.582031 5.214844 177.171875 5.214844 C 176.761719 5.214844 174.261719 5.214844 174.261719 7.539062 C 174.261719 8.320312 174.691406 8.867188 174.964844 9.121094 C 175.609375 9.667969 176.058594 9.765625 177.113281 9.980469 C 177.71875 10.097656 178.753906 10.3125 178.753906 11.269531 C 178.753906 12.5 177.347656 12.5 177.09375 12.5 C 176.390625 12.5 175.335938 12.304688 174.378906 11.601562 L 174.164062 12.832031 C 174.242188 12.890625 175.472656 13.613281 177.113281 13.613281 C 179.4375 13.613281 179.984375 12.226562 179.984375 11.152344 C 179.984375 10.253906 179.4375 9.667969 179.359375 9.589844 C 178.695312 8.90625 178.148438 8.789062 177.074219 8.574219 C 176.410156 8.457031 175.511719 8.28125 175.511719 7.382812 C 175.511719 6.269531 176.761719 6.269531 176.996094 6.269531 C 177.933594 6.269531 178.695312 6.484375 179.476562 6.933594 Z M 179.691406 5.761719 "/>
<path style=" stroke:none;fill-rule:nonzero;fill:rgb(0%,0%,100%);fill-opacity:1;" d="M 194.191406 0 C 191.496094 2.402344 190.832031 6.035156 190.832031 8.964844 C 190.832031 12.109375 191.59375 15.625 194.191406 17.929688 L 195.265625 17.929688 C 194.5625 17.285156 193.46875 15.898438 192.84375 13.867188 C 192.375 12.265625 192.179688 10.605469 192.179688 8.964844 C 192.179688 3.691406 194.074219 1.09375 195.265625 0 Z M 194.191406 0 "/>
<path style=" stroke:none;fill-rule:nonzero;fill:rgb(0%,0%,100%);fill-opacity:1;" d="M 197.984375 0.996094 L 197.984375 13.4375 L 202.613281 13.4375 C 205.152344 13.4375 206.988281 11.816406 206.988281 10.058594 C 206.988281 8.496094 205.425781 7.207031 203.589844 6.933594 C 205.679688 6.347656 206.5 5.15625 206.5 4.121094 C 206.5 2.5 204.664062 0.996094 202.125 0.996094 Z M 199.449219 6.425781 L 199.449219 1.992188 L 201.65625 1.992188 C 203.570312 1.992188 205.113281 2.949219 205.113281 4.140625 C 205.113281 5.390625 203.570312 6.425781 201.675781 6.425781 Z M 199.449219 12.441406 L 199.449219 7.5 L 201.832031 7.5 C 204.136719 7.5 205.582031 8.789062 205.582031 10.039062 C 205.582031 11.308594 204.117188 12.441406 202.125 12.441406 Z M 199.449219 12.441406 "/>
<path style=" stroke:none;fill-rule:nonzero;fill:rgb(0%,0%,100%);fill-opacity:1;" d="M 215.035156 8.183594 C 215.035156 6.464844 213.804688 5.214844 212.125 5.214844 C 211.050781 5.214844 210.25 5.449219 209.371094 5.957031 L 209.46875 7.148438 C 210.269531 6.5625 211.089844 6.25 212.125 6.25 C 212.945312 6.25 213.667969 6.914062 213.667969 8.222656 L 213.667969 8.964844 C 212.867188 8.984375 211.792969 9.042969 210.71875 9.394531 C 209.507812 9.824219 208.804688 10.488281 208.804688 11.367188 C 208.804688 12.167969 209.273438 13.613281 210.796875 13.613281 C 211.792969 13.613281 213.042969 13.320312 213.707031 12.773438 L 213.707031 13.4375 L 215.035156 13.4375 Z M 213.667969 11.035156 C 213.667969 11.386719 213.667969 11.816406 213.082031 12.1875 C 212.59375 12.480469 211.988281 12.539062 211.714844 12.539062 C 210.757812 12.539062 210.09375 12.011719 210.09375 11.367188 C 210.09375 10.136719 212.574219 9.863281 213.667969 9.863281 Z M 213.667969 11.035156 "/>
<path style=" stroke:none;fill-rule:nonzero;fill:rgb(0%,0%,100%);fill-opacity:1;" d="M 222.441406 5.761719 C 221.308594 5.234375 220.332031 5.214844 219.921875 5.214844 C 219.511719 5.214844 217.011719 5.214844 217.011719 7.539062 C 217.011719 8.320312 217.441406 8.867188 217.714844 9.121094 C 218.359375 9.667969 218.808594 9.765625 219.863281 9.980469 C 220.46875 10.097656 221.503906 10.3125 221.503906 11.269531 C 221.503906 12.5 220.097656 12.5 219.84375 12.5 C 219.140625 12.5 218.085938 12.304688 217.128906 11.601562 L 216.914062 12.832031 C 216.992188 12.890625 218.222656 13.613281 219.863281 13.613281 C 222.1875 13.613281 222.734375 12.226562 222.734375 11.152344 C 222.734375 10.253906 222.1875 9.667969 222.109375 9.589844 C 221.445312 8.90625 220.898438 8.789062 219.824219 8.574219 C 219.160156 8.457031 218.261719 8.28125 218.261719 7.382812 C 218.261719 6.269531 219.511719 6.269531 219.746094 6.269531 C 220.683594 6.269531 221.445312 6.484375 222.226562 6.933594 Z M 222.441406 5.761719 "/>
<path style=" stroke:none;fill-rule:nonzero;fill:rgb(0%,0%,100%);fill-opacity:1;" d="M 226.007812 1.269531 L 224.464844 1.269531 L 224.464844 2.8125 L 226.007812 2.8125 Z M 225.910156 5.46875 L 224.582031 5.46875 L 224.582031 13.4375 L 225.910156 13.4375 Z M 225.910156 5.46875 "/>
<path style=" stroke:none;fill-rule:nonzero;fill:rgb(0%,0%,100%);fill-opacity:1;" d="M 234.5625 11.503906 C 233.742188 12.167969 232.824219 12.5 231.828125 12.5 C 230.324219 12.5 229.367188 11.171875 229.367188 9.433594 C 229.367188 7.949219 230.089844 6.328125 231.867188 6.328125 C 233.078125 6.328125 233.585938 6.601562 234.347656 7.128906 L 234.5625 5.957031 C 233.527344 5.351562 232.941406 5.214844 231.867188 5.214844 C 229.40625 5.214844 228 7.402344 228 9.433594 C 228 11.738281 229.660156 13.613281 231.808594 13.613281 C 232.6875 13.613281 233.683594 13.398438 234.679688 12.675781 C 234.679688 12.636719 234.621094 12.070312 234.601562 12.011719 Z M 234.5625 11.503906 "/>
<path style=" stroke:none;fill-rule:nonzero;fill:rgb(0%,0%,100%);fill-opacity:1;" d="M 241.191406 5.761719 C 240.058594 5.234375 239.082031 5.214844 238.671875 5.214844 C 238.261719 5.214844 235.761719 5.214844 235.761719 7.539062 C 235.761719 8.320312 236.191406 8.867188 236.464844 9.121094 C 237.109375 9.667969 237.558594 9.765625 238.613281 9.980469 C 239.21875 10.097656 240.253906 10.3125 240.253906 11.269531 C 240.253906 12.5 238.847656 12.5 238.59375 12.5 C 237.890625 12.5 236.835938 12.304688 235.878906 11.601562 L 235.664062 12.832031 C 235.742188 12.890625 236.972656 13.613281 238.613281 13.613281 C 240.9375 13.613281 241.484375 12.226562 241.484375 11.152344 C 241.484375 10.253906 240.9375 9.667969 240.859375 9.589844 C 240.195312 8.90625 239.648438 8.789062 238.574219 8.574219 C 237.910156 8.457031 237.011719 8.28125 237.011719 7.382812 C 237.011719 6.269531 238.261719 6.269531 238.496094 6.269531 C 239.433594 6.269531 240.195312 6.484375 240.976562 6.933594 Z M 241.191406 5.761719 "/>
<path style=" stroke:none;fill-rule:nonzero;fill:rgb(0%,0%,100%);fill-opacity:1;" d="M 243.976562 17.929688 C 246.652344 15.527344 247.335938 11.894531 247.335938 8.964844 C 247.335938 5.820312 246.574219 2.304688 243.976562 0 L 242.902344 0 C 243.585938 0.644531 244.679688 2.03125 245.324219 4.0625 C 245.792969 5.664062 245.96875 7.324219 245.96875 8.964844 C 245.96875 14.238281 244.09375 16.835938 242.902344 17.929688 Z M 243.976562 17.929688 "/>
<path style=" stroke:none;fill-rule:nonzero;fill:rgb(0%,0%,0%);fill-opacity:1;" d="M 3.125 22.144531 L 1.074219 22.144531 L 1.074219 34.585938 L 2.460938 34.585938 L 2.460938 23.53125 L 2.480469 23.53125 C 2.734375 24.742188 5.625 32.417969 6.308594 34.214844 L 7.617188 34.214844 C 8.222656 32.671875 11.171875 24.859375 11.503906 23.511719 L 11.503906 34.585938 L 12.890625 34.585938 L 12.890625 22.144531 L 10.859375 22.144531 L 8.808594 27.671875 C 7.871094 30.171875 7.167969 32.066406 6.992188 32.886719 L 6.972656 32.886719 C 6.914062 32.574219 6.699219 31.910156 6.464844 31.207031 C 6.132812 30.25 6.132812 30.210938 5.839844 29.46875 Z M 3.125 22.144531 "/>
<path style=" stroke:none;fill-rule:nonzero;fill:rgb(0%,0%,0%);fill-opacity:1;" d="M 21.980469 30.542969 C 21.980469 29.78125 21.902344 28.6875 21.335938 27.730469 C 20.59375 26.5 19.34375 26.363281 18.816406 26.363281 C 16.882812 26.363281 15.261719 28.21875 15.261719 30.542969 C 15.261719 32.925781 16.980469 34.761719 19.070312 34.761719 C 19.890625 34.761719 20.886719 34.527344 21.863281 33.824219 C 21.863281 33.746094 21.804688 33.179688 21.804688 33.160156 C 21.785156 33.140625 21.765625 32.730469 21.765625 32.671875 C 20.691406 33.570312 19.636719 33.6875 19.109375 33.6875 C 17.722656 33.6875 16.53125 32.457031 16.511719 30.542969 Z M 16.609375 29.585938 C 16.921875 28.375 17.761719 27.4375 18.816406 27.4375 C 19.382812 27.4375 20.613281 27.691406 20.90625 29.585938 Z M 16.609375 29.585938 "/>
<path style=" stroke:none;fill-rule:nonzero;fill:rgb(0%,0%,0%);fill-opacity:1;" d="M 29.484375 29.332031 C 29.484375 27.613281 28.253906 26.363281 26.574219 26.363281 C 25.5 26.363281 24.699219 26.597656 23.820312 27.105469 L 23.917969 28.296875 C 24.71875 27.710938 25.539062 27.398438 26.574219 27.398438 C 27.394531 27.398438 28.117188 28.0625 28.117188 29.371094 L 28.117188 30.113281 C 27.316406 30.132812 26.242188 30.191406 25.167969 30.542969 C 23.957031 30.972656 23.253906 31.636719 23.253906 32.515625 C 23.253906 33.316406 23.722656 34.761719 25.246094 34.761719 C 26.242188 34.761719 27.492188 34.46875 28.15625 33.921875 L 28.15625 34.585938 L 29.484375 34.585938 Z M 28.117188 32.183594 C 28.117188 32.535156 28.117188 32.964844 27.53125 33.335938 C 27.042969 33.628906 26.4375 33.6875 26.164062 33.6875 C 25.207031 33.6875 24.542969 33.160156 24.542969 32.515625 C 24.542969 31.285156 27.023438 31.011719 28.117188 31.011719 Z M 28.117188 32.183594 "/>
<path style=" stroke:none;fill-rule:nonzero;fill:rgb(0%,0%,0%);fill-opacity:1;" d="M 38.472656 29.195312 C 38.472656 28.101562 38.238281 26.441406 36.070312 26.441406 C 35.074219 26.441406 34.214844 26.890625 33.53125 27.75 L 33.53125 26.539062 L 32.261719 26.539062 L 32.261719 34.585938 L 33.609375 34.585938 L 33.609375 30.113281 C 33.609375 29.019531 34.039062 27.515625 35.386719 27.515625 C 37.066406 27.515625 37.105469 28.6875 37.105469 29.3125 L 37.105469 34.585938 L 38.472656 34.585938 Z M 38.472656 29.195312 "/>
<path style=" stroke:none;fill-rule:nonzero;fill:rgb(0%,0%,0%);fill-opacity:1;" d="M 42.707031 22.417969 L 41.164062 22.417969 L 41.164062 23.960938 L 42.707031 23.960938 Z M 42.609375 26.617188 L 41.28125 26.617188 L 41.28125 34.585938 L 42.609375 34.585938 Z M 42.609375 26.617188 "/>
<path style=" stroke:none;fill-rule:nonzero;fill:rgb(0%,0%,0%);fill-opacity:1;" d="M 51.671875 29.195312 C 51.671875 28.101562 51.4375 26.441406 49.269531 26.441406 C 48.273438 26.441406 47.414062 26.890625 46.730469 27.75 L 46.730469 26.539062 L 45.460938 26.539062 L 45.460938 34.585938 L 46.808594 34.585938 L 46.808594 30.113281 C 46.808594 29.019531 47.238281 27.515625 48.585938 27.515625 C 50.265625 27.515625 50.304688 28.6875 50.304688 29.3125 L 50.304688 34.585938 L 51.671875 34.585938 Z M 51.671875 29.195312 "/>
<path style=" stroke:none;fill-rule:nonzero;fill:rgb(0%,0%,0%);fill-opacity:1;" d="M 59.1875 27.515625 C 59.1875 27.515625 59.226562 27.554688 59.246094 27.59375 C 59.617188 27.554688 60.007812 27.496094 60.671875 27.496094 C 60.730469 27.496094 61.140625 27.496094 61.589844 27.535156 L 61.394531 26.441406 C 61.0625 26.441406 59.832031 26.460938 58.640625 27.046875 C 58.054688 26.539062 57.332031 26.441406 56.980469 26.441406 C 55.417969 26.441406 54.167969 27.75 54.167969 29.332031 C 54.167969 29.976562 54.363281 30.5625 54.753906 31.109375 C 54.34375 31.675781 54.246094 32.222656 54.246094 32.652344 C 54.246094 33.316406 54.5 33.765625 54.695312 34 C 53.777344 34.585938 53.5625 35.347656 53.5625 35.855469 C 53.5625 37.164062 55.261719 38.257812 57.449219 38.257812 C 59.636719 38.257812 61.355469 37.203125 61.355469 35.835938 C 61.355469 33.335938 58.445312 33.335938 57.722656 33.335938 L 56.199219 33.335938 C 55.945312 33.335938 55.164062 33.335938 55.164062 32.378906 C 55.164062 31.988281 55.242188 31.871094 55.359375 31.714844 C 55.652344 31.929688 56.238281 32.242188 56.960938 32.242188 C 58.503906 32.242188 59.773438 30.972656 59.773438 29.332031 C 59.773438 28.6875 59.539062 28.023438 59.167969 27.535156 Z M 56.980469 31.246094 C 56.199219 31.246094 55.398438 30.71875 55.398438 29.351562 C 55.398438 27.75 56.414062 27.4375 56.960938 27.4375 C 57.761719 27.4375 58.542969 27.964844 58.542969 29.332031 C 58.542969 30.933594 57.546875 31.246094 56.980469 31.246094 Z M 57.742188 34.625 C 58.132812 34.625 60.105469 34.625 60.105469 35.855469 C 60.105469 36.675781 58.875 37.28125 57.46875 37.28125 C 56.0625 37.28125 54.8125 36.714844 54.8125 35.835938 C 54.8125 35.796875 54.8125 34.625 56.179688 34.625 Z M 57.742188 34.625 "/>
<path style=" stroke:none;fill-rule:nonzero;fill:rgb(0%,0%,0%);fill-opacity:1;" d="M 78.398438 30.640625 C 78.398438 28.21875 76.621094 26.363281 74.570312 26.363281 C 72.460938 26.363281 70.722656 28.257812 70.722656 30.640625 C 70.722656 32.984375 72.5 34.761719 74.550781 34.761719 C 76.660156 34.761719 78.398438 32.945312 78.398438 30.640625 Z M 74.570312 33.648438 C 73.28125 33.648438 72.070312 32.574219 72.070312 30.464844 C 72.070312 28.296875 73.417969 27.4375 74.550781 27.4375 C 75.78125 27.4375 77.050781 28.355469 77.050781 30.464844 C 77.050781 32.671875 75.761719 33.648438 74.570312 33.648438 Z M 74.570312 33.648438 "/>
<path style=" stroke:none;fill-rule:nonzero;fill:rgb(0%,0%,0%);fill-opacity:1;" d="M 82.128906 27.671875 L 84.042969 27.671875 L 84.042969 26.617188 L 82.089844 26.617188 L 82.089844 24.46875 C 82.089844 23.257812 83.105469 23.042969 83.710938 23.042969 C 84.335938 23.042969 84.882812 23.238281 85.097656 23.316406 L 85.097656 22.144531 C 84.980469 22.105469 84.375 21.96875 83.730469 21.96875 C 82.011719 21.96875 80.800781 23.277344 80.800781 25.015625 L 80.800781 26.617188 L 79.492188 26.617188 L 79.492188 27.671875 L 80.800781 27.671875 L 80.800781 34.585938 L 82.128906 34.585938 Z M 82.128906 27.671875 "/>
<path style=" stroke:none;fill-rule:nonzero;fill:rgb(0%,0%,0%);fill-opacity:1;" d="M 98.703125 27.007812 C 98.703125 26.675781 98.703125 26.597656 98.527344 26.597656 C 98.390625 26.597656 98.039062 26.988281 97.921875 27.144531 C 97.355469 26.695312 96.808594 26.597656 96.222656 26.597656 C 94.054688 26.597656 93.410156 27.769531 93.410156 28.765625 C 93.410156 28.960938 93.410156 29.585938 94.09375 30.210938 C 94.679688 30.71875 95.285156 30.835938 96.105469 30.992188 C 97.082031 31.1875 97.316406 31.246094 97.765625 31.617188 C 98.097656 31.871094 98.332031 32.28125 98.332031 32.769531 C 98.332031 33.550781 97.882812 34.410156 96.300781 34.410156 C 95.128906 34.410156 94.25 33.726562 93.859375 31.929688 C 93.800781 31.617188 93.800781 31.597656 93.78125 31.578125 C 93.742188 31.5 93.664062 31.5 93.605469 31.5 C 93.410156 31.5 93.410156 31.597656 93.410156 31.910156 L 93.410156 34.351562 C 93.410156 34.683594 93.410156 34.761719 93.585938 34.761719 C 93.683594 34.761719 93.703125 34.742188 94.015625 34.371094 C 94.09375 34.253906 94.09375 34.214844 94.367188 33.921875 C 95.050781 34.761719 96.007812 34.761719 96.320312 34.761719 C 98.195312 34.761719 99.132812 33.726562 99.132812 32.300781 C 99.132812 31.34375 98.546875 30.757812 98.390625 30.601562 C 97.746094 30.054688 97.257812 29.9375 96.066406 29.722656 C 95.539062 29.625 94.230469 29.371094 94.230469 28.296875 C 94.230469 27.730469 94.601562 26.910156 96.222656 26.910156 C 98.175781 26.910156 98.273438 28.570312 98.3125 29.136719 C 98.332031 29.273438 98.449219 29.273438 98.507812 29.273438 C 98.703125 29.273438 98.703125 29.195312 98.703125 28.863281 Z M 98.703125 27.007812 "/>
<path style=" stroke:none;fill-rule:nonzero;fill:rgb(0%,0%,0%);fill-opacity:1;" d="M 102.847656 23.550781 C 102.847656 23.082031 102.457031 22.671875 101.96875 22.671875 C 101.5 22.671875 101.109375 23.042969 101.109375 23.53125 C 101.109375 24.058594 101.539062 24.410156 101.96875 24.410156 C 102.515625 24.410156 102.847656 23.941406 102.847656 23.550781 Z M 100.367188 26.871094 L 100.367188 27.398438 C 101.519531 27.398438 101.675781 27.496094 101.675781 28.375 L 101.675781 33.257812 C 101.675781 34.058594 101.480469 34.058594 100.308594 34.058594 L 100.308594 34.585938 C 100.816406 34.546875 101.675781 34.546875 102.203125 34.546875 C 102.398438 34.546875 103.433594 34.546875 104.039062 34.585938 L 104.039062 34.058594 C 102.886719 34.058594 102.808594 33.980469 102.808594 33.277344 L 102.808594 26.675781 Z M 100.367188 26.871094 "/>
<path style=" stroke:none;fill-rule:nonzero;fill:rgb(0%,0%,0%);fill-opacity:1;" d="M 112.664062 30.230469 C 112.664062 28.570312 112.664062 28.0625 112.234375 27.476562 C 111.726562 26.792969 110.886719 26.675781 110.261719 26.675781 C 108.523438 26.675781 107.839844 28.160156 107.703125 28.53125 L 107.683594 28.53125 L 107.683594 26.675781 L 105.242188 26.871094 L 105.242188 27.398438 C 106.472656 27.398438 106.609375 27.515625 106.609375 28.394531 L 106.609375 33.257812 C 106.609375 34.058594 106.414062 34.058594 105.242188 34.058594 L 105.242188 34.585938 C 105.710938 34.546875 106.6875 34.546875 107.195312 34.546875 C 107.703125 34.546875 108.679688 34.546875 109.148438 34.585938 L 109.148438 34.058594 C 107.996094 34.058594 107.78125 34.058594 107.78125 33.257812 L 107.78125 29.917969 C 107.78125 28.042969 109.011719 27.046875 110.125 27.046875 C 111.238281 27.046875 111.492188 27.945312 111.492188 29.039062 L 111.492188 33.257812 C 111.492188 34.058594 111.296875 34.058594 110.125 34.058594 L 110.125 34.585938 C 110.59375 34.546875 111.570312 34.546875 112.058594 34.546875 C 112.585938 34.546875 113.542969 34.546875 114.011719 34.585938 L 114.011719 34.058594 C 113.113281 34.058594 112.664062 34.058594 112.664062 33.53125 Z M 112.664062 30.230469 "/>
<path style=" stroke:none;fill-rule:nonzero;fill:rgb(0%,0%,0%);fill-opacity:1;" d="M 122.628906 24.667969 C 122.84375 24.667969 123.078125 24.667969 123.078125 24.414062 C 123.078125 24.179688 122.84375 24.179688 122.628906 24.179688 L 115.890625 24.179688 C 115.675781 24.179688 115.460938 24.179688 115.460938 24.414062 C 115.460938 24.667969 115.675781 24.667969 115.890625 24.667969 Z M 122.628906 24.667969 "/>
<path style=" stroke:none;fill-rule:nonzero;fill:rgb(0%,0%,0%);fill-opacity:1;" d="M 127.847656 19.570312 C 127.847656 19.257812 127.847656 19.238281 127.554688 19.238281 C 126.773438 20.039062 125.679688 20.039062 125.289062 20.039062 L 125.289062 20.429688 C 125.542969 20.429688 126.265625 20.429688 126.910156 20.097656 L 126.910156 26.5625 C 126.910156 27.011719 126.871094 27.148438 125.757812 27.148438 L 125.367188 27.148438 L 125.367188 27.539062 C 125.796875 27.5 126.871094 27.5 127.378906 27.5 C 127.867188 27.5 128.960938 27.5 129.390625 27.539062 L 129.390625 27.148438 L 129 27.148438 C 127.867188 27.148438 127.847656 27.011719 127.847656 26.5625 Z M 127.847656 19.570312 "/>
<path style=" stroke:none;fill-rule:nonzero;fill:rgb(0%,0%,0%);fill-opacity:1;" d="M 142.421875 27.261719 C 141.855469 27.378906 141.640625 27.808594 141.640625 28.140625 C 141.640625 28.570312 141.972656 28.726562 142.226562 28.726562 C 142.773438 28.726562 143.144531 28.257812 143.144531 27.769531 C 143.144531 27.027344 142.285156 26.675781 141.523438 26.675781 C 140.429688 26.675781 139.824219 27.75 139.667969 28.101562 C 139.257812 26.753906 138.144531 26.675781 137.8125 26.675781 C 135.996094 26.675781 135.019531 29.019531 135.019531 29.429688 C 135.019531 29.488281 135.097656 29.585938 135.214844 29.585938 C 135.351562 29.585938 135.390625 29.46875 135.429688 29.410156 C 136.035156 27.417969 137.246094 27.046875 137.753906 27.046875 C 138.574219 27.046875 138.730469 27.789062 138.730469 28.21875 C 138.730469 28.609375 138.632812 29.019531 138.398438 29.878906 L 137.792969 32.339844 C 137.539062 33.414062 137.011719 34.410156 136.054688 34.410156 C 135.976562 34.410156 135.527344 34.410156 135.136719 34.175781 C 135.78125 34.039062 135.9375 33.511719 135.9375 33.296875 C 135.9375 32.945312 135.664062 32.730469 135.332031 32.730469 C 134.902344 32.730469 134.433594 33.101562 134.433594 33.667969 C 134.433594 34.429688 135.273438 34.761719 136.035156 34.761719 C 136.894531 34.761719 137.519531 34.078125 137.890625 33.355469 C 138.183594 34.410156 139.0625 34.761719 139.726562 34.761719 C 141.5625 34.761719 142.539062 32.417969 142.539062 32.027344 C 142.539062 31.929688 142.460938 31.851562 142.34375 31.851562 C 142.1875 31.851562 142.167969 31.949219 142.128906 32.085938 C 141.640625 33.667969 140.585938 34.410156 139.785156 34.410156 C 139.160156 34.410156 138.828125 33.941406 138.828125 33.199219 C 138.828125 32.808594 138.886719 32.515625 139.179688 31.34375 L 139.804688 28.902344 C 140.078125 27.828125 140.683594 27.046875 141.503906 27.046875 C 141.542969 27.046875 142.050781 27.046875 142.421875 27.261719 Z M 142.421875 27.261719 "/>
<path style=" stroke:none;fill-rule:nonzero;fill:rgb(0%,0%,0%);fill-opacity:1;" d="M 147.472656 34.664062 C 147.472656 33.609375 147.140625 32.847656 146.398438 32.847656 C 145.832031 32.847656 145.539062 33.316406 145.539062 33.707031 C 145.539062 34.097656 145.8125 34.585938 146.417969 34.585938 C 146.652344 34.585938 146.847656 34.507812 147.003906 34.351562 C 147.042969 34.3125 147.0625 34.3125 147.082031 34.3125 C 147.121094 34.3125 147.121094 34.566406 147.121094 34.664062 C 147.121094 35.25 147.003906 36.421875 145.96875 37.574219 C 145.773438 37.789062 145.773438 37.828125 145.773438 37.867188 C 145.773438 37.964844 145.851562 38.042969 145.949219 38.042969 C 146.085938 38.042969 147.472656 36.714844 147.472656 34.664062 Z M 147.472656 34.664062 "/>
<path style=" stroke:none;fill-rule:nonzero;fill:rgb(0%,0%,0%);fill-opacity:1;" d="M 158.410156 27.945312 C 158.195312 27.945312 157.53125 27.945312 157.53125 28.6875 C 157.53125 29.117188 157.84375 29.429688 158.273438 29.429688 C 158.683594 29.429688 159.035156 29.175781 159.035156 28.648438 C 159.035156 27.457031 157.765625 26.597656 156.320312 26.597656 C 154.230469 26.597656 152.550781 28.453125 152.550781 30.71875 C 152.550781 33.003906 154.269531 34.761719 156.300781 34.761719 C 158.664062 34.761719 159.210938 32.613281 159.210938 32.457031 C 159.210938 32.28125 159.074219 32.28125 159.035156 32.28125 C 158.859375 32.28125 158.839844 32.339844 158.800781 32.554688 C 158.390625 33.824219 157.433594 34.371094 156.457031 34.371094 C 155.363281 34.371094 153.917969 33.414062 153.917969 30.699219 C 153.917969 27.710938 155.441406 26.988281 156.339844 26.988281 C 157.023438 26.988281 158 27.261719 158.410156 27.945312 Z M 158.410156 27.945312 "/>
<path style=" stroke:none;fill-rule:nonzero;fill:rgb(0%,0%,0%);fill-opacity:1;" d="M 167.949219 30.757812 C 167.949219 28.433594 166.191406 26.597656 164.121094 26.597656 C 161.972656 26.597656 160.273438 28.492188 160.273438 30.757812 C 160.273438 33.042969 162.050781 34.761719 164.101562 34.761719 C 166.210938 34.761719 167.949219 33.003906 167.949219 30.757812 Z M 164.121094 34.371094 C 163.457031 34.371094 162.65625 34.078125 162.128906 33.199219 C 161.640625 32.398438 161.621094 31.34375 161.621094 30.582031 C 161.621094 29.898438 161.621094 28.804688 162.1875 28.003906 C 162.675781 27.242188 163.476562 26.949219 164.101562 26.949219 C 164.804688 26.949219 165.546875 27.261719 166.035156 27.964844 C 166.601562 28.785156 166.601562 29.917969 166.601562 30.582031 C 166.601562 31.207031 166.601562 32.320312 166.132812 33.160156 C 165.625 34.039062 164.804688 34.371094 164.121094 34.371094 Z M 164.121094 34.371094 "/>
<path style=" stroke:none;fill-rule:nonzero;fill:rgb(0%,0%,0%);fill-opacity:1;" d="M 174.453125 27.007812 C 174.453125 26.675781 174.453125 26.597656 174.277344 26.597656 C 174.140625 26.597656 173.789062 26.988281 173.671875 27.144531 C 173.105469 26.695312 172.558594 26.597656 171.972656 26.597656 C 169.804688 26.597656 169.160156 27.769531 169.160156 28.765625 C 169.160156 28.960938 169.160156 29.585938 169.84375 30.210938 C 170.429688 30.71875 171.035156 30.835938 171.855469 30.992188 C 172.832031 31.1875 173.066406 31.246094 173.515625 31.617188 C 173.847656 31.871094 174.082031 32.28125 174.082031 32.769531 C 174.082031 33.550781 173.632812 34.410156 172.050781 34.410156 C 170.878906 34.410156 170 33.726562 169.609375 31.929688 C 169.550781 31.617188 169.550781 31.597656 169.53125 31.578125 C 169.492188 31.5 169.414062 31.5 169.355469 31.5 C 169.160156 31.5 169.160156 31.597656 169.160156 31.910156 L 169.160156 34.351562 C 169.160156 34.683594 169.160156 34.761719 169.335938 34.761719 C 169.433594 34.761719 169.453125 34.742188 169.765625 34.371094 C 169.84375 34.253906 169.84375 34.214844 170.117188 33.921875 C 170.800781 34.761719 171.757812 34.761719 172.070312 34.761719 C 173.945312 34.761719 174.882812 33.726562 174.882812 32.300781 C 174.882812 31.34375 174.296875 30.757812 174.140625 30.601562 C 173.496094 30.054688 173.007812 29.9375 171.816406 29.722656 C 171.289062 29.625 169.980469 29.371094 169.980469 28.296875 C 169.980469 27.730469 170.351562 26.910156 171.972656 26.910156 C 173.925781 26.910156 174.023438 28.570312 174.0625 29.136719 C 174.082031 29.273438 174.199219 29.273438 174.257812 29.273438 C 174.453125 29.273438 174.453125 29.195312 174.453125 28.863281 Z M 174.453125 27.007812 "/>
<path style=" stroke:none;fill-rule:nonzero;fill:rgb(0%,0%,0%);fill-opacity:1;" d="M 183.527344 25.265625 C 183.742188 25.265625 183.976562 25.265625 183.976562 25.011719 C 183.976562 24.777344 183.742188 24.777344 183.527344 24.777344 L 176.789062 24.777344 C 176.574219 24.777344 176.359375 24.777344 176.359375 25.011719 C 176.359375 25.265625 176.574219 25.265625 176.789062 25.265625 Z M 183.527344 25.265625 "/>
<path style=" stroke:none;fill-rule:nonzero;fill:rgb(0%,0%,0%);fill-opacity:1;" d="M 188.746094 20.167969 C 188.746094 19.855469 188.746094 19.835938 188.453125 19.835938 C 187.671875 20.636719 186.578125 20.636719 186.1875 20.636719 L 186.1875 21.027344 C 186.441406 21.027344 187.164062 21.027344 187.808594 20.695312 L 187.808594 27.160156 C 187.808594 27.609375 187.769531 27.746094 186.65625 27.746094 L 186.265625 27.746094 L 186.265625 28.136719 C 186.695312 28.097656 187.769531 28.097656 188.277344 28.097656 C 188.765625 28.097656 189.859375 28.097656 190.289062 28.136719 L 190.289062 27.746094 L 189.898438 27.746094 C 188.765625 27.746094 188.746094 27.609375 188.746094 27.160156 Z M 188.746094 20.167969 "/>
<path style=" stroke:none;fill-rule:nonzero;fill:rgb(0%,0%,0%);fill-opacity:1;" d="M 203.320312 27.261719 C 202.753906 27.378906 202.539062 27.808594 202.539062 28.140625 C 202.539062 28.570312 202.871094 28.726562 203.125 28.726562 C 203.671875 28.726562 204.042969 28.257812 204.042969 27.769531 C 204.042969 27.027344 203.183594 26.675781 202.421875 26.675781 C 201.328125 26.675781 200.722656 27.75 200.566406 28.101562 C 200.15625 26.753906 199.042969 26.675781 198.710938 26.675781 C 196.894531 26.675781 195.917969 29.019531 195.917969 29.429688 C 195.917969 29.488281 195.996094 29.585938 196.113281 29.585938 C 196.25 29.585938 196.289062 29.46875 196.328125 29.410156 C 196.933594 27.417969 198.144531 27.046875 198.652344 27.046875 C 199.472656 27.046875 199.628906 27.789062 199.628906 28.21875 C 199.628906 28.609375 199.53125 29.019531 199.296875 29.878906 L 198.691406 32.339844 C 198.4375 33.414062 197.910156 34.410156 196.953125 34.410156 C 196.875 34.410156 196.425781 34.410156 196.035156 34.175781 C 196.679688 34.039062 196.835938 33.511719 196.835938 33.296875 C 196.835938 32.945312 196.5625 32.730469 196.230469 32.730469 C 195.800781 32.730469 195.332031 33.101562 195.332031 33.667969 C 195.332031 34.429688 196.171875 34.761719 196.933594 34.761719 C 197.792969 34.761719 198.417969 34.078125 198.789062 33.355469 C 199.082031 34.410156 199.960938 34.761719 200.625 34.761719 C 202.460938 34.761719 203.4375 32.417969 203.4375 32.027344 C 203.4375 31.929688 203.359375 31.851562 203.242188 31.851562 C 203.085938 31.851562 203.066406 31.949219 203.027344 32.085938 C 202.539062 33.667969 201.484375 34.410156 200.683594 34.410156 C 200.058594 34.410156 199.726562 33.941406 199.726562 33.199219 C 199.726562 32.808594 199.785156 32.515625 200.078125 31.34375 L 200.703125 28.902344 C 200.976562 27.828125 201.582031 27.046875 202.402344 27.046875 C 202.441406 27.046875 202.949219 27.046875 203.320312 27.261719 Z M 203.320312 27.261719 "/>
<path style=" stroke:none;fill-rule:nonzero;fill:rgb(0%,0%,0%);fill-opacity:1;" d="M 220.578125 30.542969 C 220.578125 29.78125 220.5 28.6875 219.933594 27.730469 C 219.191406 26.5 217.941406 26.363281 217.414062 26.363281 C 215.480469 26.363281 213.859375 28.21875 213.859375 30.542969 C 213.859375 32.925781 215.578125 34.761719 217.667969 34.761719 C 218.488281 34.761719 219.484375 34.527344 220.460938 33.824219 C 220.460938 33.746094 220.402344 33.179688 220.402344 33.160156 C 220.382812 33.140625 220.363281 32.730469 220.363281 32.671875 C 219.289062 33.570312 218.234375 33.6875 217.707031 33.6875 C 216.320312 33.6875 215.128906 32.457031 215.109375 30.542969 Z M 215.207031 29.585938 C 215.519531 28.375 216.359375 27.4375 217.414062 27.4375 C 217.980469 27.4375 219.210938 27.691406 219.503906 29.585938 Z M 215.207031 29.585938 "/>
<path style=" stroke:none;fill-rule:nonzero;fill:rgb(0%,0%,0%);fill-opacity:1;" d="M 224.140625 27.671875 L 226.621094 27.671875 L 226.621094 26.617188 L 224.140625 26.617188 L 224.140625 24.351562 L 222.910156 24.351562 L 222.910156 26.617188 L 221.40625 26.617188 L 221.40625 27.671875 L 222.871094 27.671875 L 222.871094 32.496094 C 222.871094 33.53125 223.105469 34.761719 224.335938 34.761719 C 225.546875 34.761719 226.367188 34.351562 226.914062 34.058594 L 226.640625 33.023438 C 226.015625 33.589844 225.351562 33.648438 225.039062 33.648438 C 224.238281 33.648438 224.140625 32.808594 224.140625 32.183594 Z M 224.140625 27.671875 "/>
<path style=" stroke:none;fill-rule:nonzero;fill:rgb(0%,0%,0%);fill-opacity:1;" d="M 234.5625 32.652344 C 233.742188 33.316406 232.824219 33.648438 231.828125 33.648438 C 230.324219 33.648438 229.367188 32.320312 229.367188 30.582031 C 229.367188 29.097656 230.089844 27.476562 231.867188 27.476562 C 233.078125 27.476562 233.585938 27.75 234.347656 28.277344 L 234.5625 27.105469 C 233.527344 26.5 232.941406 26.363281 231.867188 26.363281 C 229.40625 26.363281 228 28.550781 228 30.582031 C 228 32.886719 229.660156 34.761719 231.808594 34.761719 C 232.6875 34.761719 233.683594 34.546875 234.679688 33.824219 C 234.679688 33.785156 234.621094 33.21875 234.601562 33.160156 Z M 234.5625 32.652344 "/>
<path style=" stroke:none;fill-rule:nonzero;fill:rgb(0%,0%,0%);fill-opacity:1;" d="M 246.738281 26.617188 L 245.273438 26.617188 L 245.273438 28.082031 L 246.738281 28.082031 Z M 245.273438 36.832031 L 245.996094 36.832031 L 246.738281 34.566406 L 246.738281 33.140625 L 245.273438 33.140625 L 245.273438 34.585938 L 245.722656 34.585938 Z M 245.273438 36.832031 "/>
<path style=" stroke:none;fill-rule:nonzero;fill:rgb(0%,0%,0%);fill-opacity:1;" d="M 6.953125 43.445312 L 5.625 43.445312 L 5.625 48.679688 C 4.804688 47.996094 3.867188 47.742188 3.105469 47.742188 C 1.40625 47.742188 0 49.578125 0 51.902344 C 0 54.226562 1.328125 56.0625 3.027344 56.0625 C 3.691406 56.0625 4.707031 55.847656 5.605469 54.96875 L 5.605469 55.886719 L 6.953125 55.886719 Z M 5.605469 53.777344 C 5.175781 54.539062 4.53125 54.988281 3.75 54.988281 C 2.65625 54.988281 1.367188 54.148438 1.367188 51.921875 C 1.367188 49.539062 2.890625 48.816406 3.925781 48.816406 C 4.628906 48.816406 5.195312 49.1875 5.605469 49.773438 Z M 5.605469 53.777344 "/>
<path style=" stroke:none;fill-rule:nonzero;fill:rgb(0%,0%,0%);fill-opacity:1;" d="M 16.597656 51.941406 C 16.597656 49.519531 14.820312 47.664062 12.769531 47.664062 C 10.660156 47.664062 8.921875 49.558594 8.921875 51.941406 C 8.921875 54.285156 10.699219 56.0625 12.75 56.0625 C 14.859375 56.0625 16.597656 54.246094 16.597656 51.941406 Z M 12.769531 54.949219 C 11.480469 54.949219 10.269531 53.875 10.269531 51.765625 C 10.269531 49.597656 11.617188 48.738281 12.75 48.738281 C 13.980469 48.738281 15.25 49.65625 15.25 51.765625 C 15.25 53.972656 13.960938 54.949219 12.769531 54.949219 Z M 12.769531 54.949219 "/>
<path style=" stroke:none;fill-rule:nonzero;fill:rgb(0%,0%,0%);fill-opacity:1;" d="M 29.726562 50.496094 C 29.726562 49.246094 29.394531 47.742188 27.304688 47.742188 C 25.78125 47.742188 24.941406 48.796875 24.667969 49.207031 C 24.335938 48.074219 23.359375 47.742188 22.421875 47.742188 C 20.957031 47.742188 20.175781 48.699219 19.882812 49.070312 L 19.882812 47.839844 L 18.613281 47.839844 L 18.613281 55.886719 L 19.960938 55.886719 L 19.960938 51.414062 C 19.960938 50.242188 20.429688 48.816406 21.738281 48.816406 C 23.398438 48.816406 23.476562 49.949219 23.476562 50.613281 L 23.476562 55.886719 L 24.84375 55.886719 L 24.84375 51.414062 C 24.84375 50.242188 25.3125 48.816406 26.621094 48.816406 C 28.261719 48.816406 28.359375 49.949219 28.359375 50.613281 L 28.359375 55.886719 L 29.726562 55.886719 Z M 29.726562 50.496094 "/>
<path style=" stroke:none;fill-rule:nonzero;fill:rgb(0%,0%,0%);fill-opacity:1;" d="M 38.1875 50.632812 C 38.1875 48.914062 36.957031 47.664062 35.277344 47.664062 C 34.203125 47.664062 33.402344 47.898438 32.523438 48.40625 L 32.621094 49.597656 C 33.421875 49.011719 34.242188 48.699219 35.277344 48.699219 C 36.097656 48.699219 36.820312 49.363281 36.820312 50.671875 L 36.820312 51.414062 C 36.019531 51.433594 34.945312 51.492188 33.871094 51.84375 C 32.660156 52.273438 31.957031 52.9375 31.957031 53.816406 C 31.957031 54.617188 32.425781 56.0625 33.949219 56.0625 C 34.945312 56.0625 36.195312 55.769531 36.859375 55.222656 L 36.859375 55.886719 L 38.1875 55.886719 Z M 36.820312 53.484375 C 36.820312 53.835938 36.820312 54.265625 36.234375 54.636719 C 35.746094 54.929688 35.140625 54.988281 34.867188 54.988281 C 33.910156 54.988281 33.246094 54.460938 33.246094 53.816406 C 33.246094 52.585938 35.726562 52.3125 36.820312 52.3125 Z M 36.820312 53.484375 "/>
<path style=" stroke:none;fill-rule:nonzero;fill:rgb(0%,0%,0%);fill-opacity:1;" d="M 42.40625 43.71875 L 40.863281 43.71875 L 40.863281 45.261719 L 42.40625 45.261719 Z M 42.308594 47.917969 L 40.980469 47.917969 L 40.980469 55.886719 L 42.308594 55.886719 Z M 42.308594 47.917969 "/>
<path style=" stroke:none;fill-rule:nonzero;fill:rgb(0%,0%,0%);fill-opacity:1;" d="M 51.371094 50.496094 C 51.371094 49.402344 51.136719 47.742188 48.96875 47.742188 C 47.972656 47.742188 47.113281 48.191406 46.429688 49.050781 L 46.429688 47.839844 L 45.160156 47.839844 L 45.160156 55.886719 L 46.507812 55.886719 L 46.507812 51.414062 C 46.507812 50.320312 46.9375 48.816406 48.285156 48.816406 C 49.964844 48.816406 50.003906 49.988281 50.003906 50.613281 L 50.003906 55.886719 L 51.371094 55.886719 Z M 51.371094 50.496094 "/>
<path style=" stroke:none;fill-rule:nonzero;fill:rgb(0%,0%,0%);fill-opacity:1;" d="M 58.789062 48.210938 C 57.65625 47.683594 56.679688 47.664062 56.269531 47.664062 C 55.859375 47.664062 53.359375 47.664062 53.359375 49.988281 C 53.359375 50.769531 53.789062 51.316406 54.0625 51.570312 C 54.707031 52.117188 55.15625 52.214844 56.210938 52.429688 C 56.816406 52.546875 57.851562 52.761719 57.851562 53.71875 C 57.851562 54.949219 56.445312 54.949219 56.191406 54.949219 C 55.488281 54.949219 54.433594 54.753906 53.476562 54.050781 L 53.261719 55.28125 C 53.339844 55.339844 54.570312 56.0625 56.210938 56.0625 C 58.535156 56.0625 59.082031 54.675781 59.082031 53.601562 C 59.082031 52.703125 58.535156 52.117188 58.457031 52.039062 C 57.792969 51.355469 57.246094 51.238281 56.171875 51.023438 C 55.507812 50.90625 54.609375 50.730469 54.609375 49.832031 C 54.609375 48.71875 55.859375 48.71875 56.09375 48.71875 C 57.03125 48.71875 57.792969 48.933594 58.574219 49.382812 Z M 58.789062 48.210938 "/>
<path style=" stroke:none;fill-rule:nonzero;fill:rgb(0%,0%,0%);fill-opacity:1;" d="M 72.238281 50.632812 C 72.238281 48.914062 71.007812 47.664062 69.328125 47.664062 C 68.253906 47.664062 67.453125 47.898438 66.574219 48.40625 L 66.671875 49.597656 C 67.472656 49.011719 68.292969 48.699219 69.328125 48.699219 C 70.148438 48.699219 70.871094 49.363281 70.871094 50.671875 L 70.871094 51.414062 C 70.070312 51.433594 68.996094 51.492188 67.921875 51.84375 C 66.710938 52.273438 66.007812 52.9375 66.007812 53.816406 C 66.007812 54.617188 66.476562 56.0625 68 56.0625 C 68.996094 56.0625 70.246094 55.769531 70.910156 55.222656 L 70.910156 55.886719 L 72.238281 55.886719 Z M 70.871094 53.484375 C 70.871094 53.835938 70.871094 54.265625 70.285156 54.636719 C 69.796875 54.929688 69.191406 54.988281 68.917969 54.988281 C 67.960938 54.988281 67.296875 54.460938 67.296875 53.816406 C 67.296875 52.585938 69.777344 52.3125 70.871094 52.3125 Z M 70.871094 53.484375 "/>
<path style=" stroke:none;fill-rule:nonzero;fill:rgb(0%,0%,0%);fill-opacity:1;" d="M 81.222656 50.496094 C 81.222656 49.402344 80.988281 47.742188 78.820312 47.742188 C 77.824219 47.742188 76.964844 48.191406 76.28125 49.050781 L 76.28125 47.839844 L 75.011719 47.839844 L 75.011719 55.886719 L 76.359375 55.886719 L 76.359375 51.414062 C 76.359375 50.320312 76.789062 48.816406 78.136719 48.816406 C 79.816406 48.816406 79.855469 49.988281 79.855469 50.613281 L 79.855469 55.886719 L 81.222656 55.886719 Z M 81.222656 50.496094 "/>
<path style=" stroke:none;fill-rule:nonzero;fill:rgb(0%,0%,0%);fill-opacity:1;" d="M 90.203125 43.445312 L 88.875 43.445312 L 88.875 48.679688 C 88.054688 47.996094 87.117188 47.742188 86.355469 47.742188 C 84.65625 47.742188 83.25 49.578125 83.25 51.902344 C 83.25 54.226562 84.578125 56.0625 86.277344 56.0625 C 86.941406 56.0625 87.957031 55.847656 88.855469 54.96875 L 88.855469 55.886719 L 90.203125 55.886719 Z M 88.855469 53.777344 C 88.425781 54.539062 87.78125 54.988281 87 54.988281 C 85.90625 54.988281 84.617188 54.148438 84.617188 51.921875 C 84.617188 49.539062 86.140625 48.816406 87.175781 48.816406 C 87.878906 48.816406 88.445312 49.1875 88.855469 49.773438 Z M 88.855469 53.777344 "/>
<path style=" stroke:none;fill-rule:nonzero;fill:rgb(0%,0%,0%);fill-opacity:1;" d="M 100.230469 55.085938 C 100.855469 55.632812 101.597656 56.0625 102.574219 56.0625 C 104.292969 56.0625 105.835938 54.324219 105.835938 51.882812 C 105.835938 49.714844 104.683594 47.742188 103.023438 47.742188 C 102.28125 47.742188 101.128906 47.976562 100.210938 48.777344 L 100.210938 47.917969 L 98.882812 47.917969 L 98.882812 59.363281 L 100.230469 59.363281 Z M 100.230469 49.871094 C 100.640625 49.246094 101.324219 48.855469 102.066406 48.855469 C 103.394531 48.855469 104.46875 50.203125 104.46875 51.902344 C 104.46875 53.699219 103.238281 54.988281 101.910156 54.988281 C 101.402344 54.988281 101.070312 54.8125 100.738281 54.558594 C 100.289062 54.167969 100.230469 53.835938 100.230469 53.5625 Z M 100.230469 49.871094 "/>
<path style=" stroke:none;fill-rule:nonzero;fill:rgb(0%,0%,0%);fill-opacity:1;" d="M 108.757812 51.960938 C 108.757812 50.144531 110.105469 48.972656 111.726562 48.953125 L 111.726562 47.742188 C 110.085938 47.761719 109.148438 48.71875 108.660156 49.421875 L 108.660156 47.839844 L 107.429688 47.839844 L 107.429688 55.886719 L 108.757812 55.886719 Z M 108.757812 51.960938 "/>
<path style=" stroke:none;fill-rule:nonzero;fill:rgb(0%,0%,0%);fill-opacity:1;" d="M 114.855469 43.71875 L 113.3125 43.71875 L 113.3125 45.261719 L 114.855469 45.261719 Z M 114.757812 47.917969 L 113.429688 47.917969 L 113.429688 55.886719 L 114.757812 55.886719 Z M 114.757812 47.917969 "/>
<path style=" stroke:none;fill-rule:nonzero;fill:rgb(0%,0%,0%);fill-opacity:1;" d="M 123.820312 50.496094 C 123.820312 49.402344 123.585938 47.742188 121.417969 47.742188 C 120.421875 47.742188 119.5625 48.191406 118.878906 49.050781 L 118.878906 47.839844 L 117.609375 47.839844 L 117.609375 55.886719 L 118.957031 55.886719 L 118.957031 51.414062 C 118.957031 50.320312 119.386719 48.816406 120.734375 48.816406 C 122.414062 48.816406 122.453125 49.988281 122.453125 50.613281 L 122.453125 55.886719 L 123.820312 55.886719 Z M 123.820312 50.496094 "/>
<path style=" stroke:none;fill-rule:nonzero;fill:rgb(0%,0%,0%);fill-opacity:1;" d="M 132.410156 53.953125 C 131.589844 54.617188 130.671875 54.949219 129.675781 54.949219 C 128.171875 54.949219 127.214844 53.621094 127.214844 51.882812 C 127.214844 50.398438 127.9375 48.777344 129.714844 48.777344 C 130.925781 48.777344 131.433594 49.050781 132.195312 49.578125 L 132.410156 48.40625 C 131.375 47.800781 130.789062 47.664062 129.714844 47.664062 C 127.253906 47.664062 125.847656 49.851562 125.847656 51.882812 C 125.847656 54.1875 127.507812 56.0625 129.65625 56.0625 C 130.535156 56.0625 131.53125 55.847656 132.527344 55.125 C 132.527344 55.085938 132.46875 54.519531 132.449219 54.460938 Z M 132.410156 53.953125 "/>
<path style=" stroke:none;fill-rule:nonzero;fill:rgb(0%,0%,0%);fill-opacity:1;" d="M 135.855469 43.71875 L 134.3125 43.71875 L 134.3125 45.261719 L 135.855469 45.261719 Z M 135.757812 47.917969 L 134.429688 47.917969 L 134.429688 55.886719 L 135.757812 55.886719 Z M 135.757812 47.917969 "/>
<path style=" stroke:none;fill-rule:nonzero;fill:rgb(0%,0%,0%);fill-opacity:1;" d="M 139.976562 55.085938 C 140.601562 55.632812 141.34375 56.0625 142.320312 56.0625 C 144.039062 56.0625 145.582031 54.324219 145.582031 51.882812 C 145.582031 49.714844 144.429688 47.742188 142.769531 47.742188 C 142.027344 47.742188 140.875 47.976562 139.957031 48.777344 L 139.957031 47.917969 L 138.628906 47.917969 L 138.628906 59.363281 L 139.976562 59.363281 Z M 139.976562 49.871094 C 140.386719 49.246094 141.070312 48.855469 141.8125 48.855469 C 143.140625 48.855469 144.214844 50.203125 144.214844 51.902344 C 144.214844 53.699219 142.984375 54.988281 141.65625 54.988281 C 141.148438 54.988281 140.816406 54.8125 140.484375 54.558594 C 140.035156 54.167969 139.976562 53.835938 139.976562 53.5625 Z M 139.976562 49.871094 "/>
<path style=" stroke:none;fill-rule:nonzero;fill:rgb(0%,0%,0%);fill-opacity:1;" d="M 153.234375 50.632812 C 153.234375 48.914062 152.003906 47.664062 150.324219 47.664062 C 149.25 47.664062 148.449219 47.898438 147.570312 48.40625 L 147.667969 49.597656 C 148.46875 49.011719 149.289062 48.699219 150.324219 48.699219 C 151.144531 48.699219 151.867188 49.363281 151.867188 50.671875 L 151.867188 51.414062 C 151.066406 51.433594 149.992188 51.492188 148.917969 51.84375 C 147.707031 52.273438 147.003906 52.9375 147.003906 53.816406 C 147.003906 54.617188 147.472656 56.0625 148.996094 56.0625 C 149.992188 56.0625 151.242188 55.769531 151.90625 55.222656 L 151.90625 55.886719 L 153.234375 55.886719 Z M 151.867188 53.484375 C 151.867188 53.835938 151.867188 54.265625 151.28125 54.636719 C 150.792969 54.929688 150.1875 54.988281 149.914062 54.988281 C 148.957031 54.988281 148.292969 54.460938 148.292969 53.816406 C 148.292969 52.585938 150.773438 52.3125 151.867188 52.3125 Z M 151.867188 53.484375 "/>
<path style=" stroke:none;fill-rule:nonzero;fill:rgb(0%,0%,0%);fill-opacity:1;" d="M 157.359375 43.445312 L 156.03125 43.445312 L 156.03125 55.886719 L 157.359375 55.886719 Z M 157.359375 43.445312 "/>
<path style=" stroke:none;fill-rule:nonzero;fill:rgb(0%,0%,0%);fill-opacity:1;" d="M 167.109375 51.960938 C 167.109375 50.144531 168.457031 48.972656 170.078125 48.953125 L 170.078125 47.742188 C 168.4375 47.761719 167.5 48.71875 167.011719 49.421875 L 167.011719 47.839844 L 165.78125 47.839844 L 165.78125 55.886719 L 167.109375 55.886719 Z M 167.109375 51.960938 "/>
<path style=" stroke:none;fill-rule:nonzero;fill:rgb(0%,0%,0%);fill-opacity:1;" d="M 177.386719 50.632812 C 177.386719 48.914062 176.15625 47.664062 174.476562 47.664062 C 173.402344 47.664062 172.601562 47.898438 171.722656 48.40625 L 171.820312 49.597656 C 172.621094 49.011719 173.441406 48.699219 174.476562 48.699219 C 175.296875 48.699219 176.019531 49.363281 176.019531 50.671875 L 176.019531 51.414062 C 175.21875 51.433594 174.144531 51.492188 173.070312 51.84375 C 171.859375 52.273438 171.15625 52.9375 171.15625 53.816406 C 171.15625 54.617188 171.625 56.0625 173.148438 56.0625 C 174.144531 56.0625 175.394531 55.769531 176.058594 55.222656 L 176.058594 55.886719 L 177.386719 55.886719 Z M 176.019531 53.484375 C 176.019531 53.835938 176.019531 54.265625 175.433594 54.636719 C 174.945312 54.929688 174.339844 54.988281 174.066406 54.988281 C 173.109375 54.988281 172.445312 54.460938 172.445312 53.816406 C 172.445312 52.585938 174.925781 52.3125 176.019531 52.3125 Z M 176.019531 53.484375 "/>
<path style=" stroke:none;fill-rule:nonzero;fill:rgb(0%,0%,0%);fill-opacity:1;" d="M 186.371094 50.496094 C 186.371094 49.402344 186.136719 47.742188 183.96875 47.742188 C 182.972656 47.742188 182.113281 48.191406 181.429688 49.050781 L 181.429688 47.839844 L 180.160156 47.839844 L 180.160156 55.886719 L 181.507812 55.886719 L 181.507812 51.414062 C 181.507812 50.320312 181.9375 48.816406 183.285156 48.816406 C 184.964844 48.816406 185.003906 49.988281 185.003906 50.613281 L 185.003906 55.886719 L 186.371094 55.886719 Z M 186.371094 50.496094 "/>
<path style=" stroke:none;fill-rule:nonzero;fill:rgb(0%,0%,0%);fill-opacity:1;" d="M 193.886719 48.816406 C 193.886719 48.816406 193.925781 48.855469 193.945312 48.894531 C 194.316406 48.855469 194.707031 48.796875 195.371094 48.796875 C 195.429688 48.796875 195.839844 48.796875 196.289062 48.835938 L 196.09375 47.742188 C 195.761719 47.742188 194.53125 47.761719 193.339844 48.347656 C 192.753906 47.839844 192.03125 47.742188 191.679688 47.742188 C 190.117188 47.742188 188.867188 49.050781 188.867188 50.632812 C 188.867188 51.277344 189.0625 51.863281 189.453125 52.410156 C 189.042969 52.976562 188.945312 53.523438 188.945312 53.953125 C 188.945312 54.617188 189.199219 55.066406 189.394531 55.300781 C 188.476562 55.886719 188.261719 56.648438 188.261719 57.15625 C 188.261719 58.464844 189.960938 59.558594 192.148438 59.558594 C 194.335938 59.558594 196.054688 58.503906 196.054688 57.136719 C 196.054688 54.636719 193.144531 54.636719 192.421875 54.636719 L 190.898438 54.636719 C 190.644531 54.636719 189.863281 54.636719 189.863281 53.679688 C 189.863281 53.289062 189.941406 53.171875 190.058594 53.015625 C 190.351562 53.230469 190.9375 53.542969 191.660156 53.542969 C 193.203125 53.542969 194.472656 52.273438 194.472656 50.632812 C 194.472656 49.988281 194.238281 49.324219 193.867188 48.835938 Z M 191.679688 52.546875 C 190.898438 52.546875 190.097656 52.019531 190.097656 50.652344 C 190.097656 49.050781 191.113281 48.738281 191.660156 48.738281 C 192.460938 48.738281 193.242188 49.265625 193.242188 50.632812 C 193.242188 52.234375 192.246094 52.546875 191.679688 52.546875 Z M 192.441406 55.925781 C 192.832031 55.925781 194.804688 55.925781 194.804688 57.15625 C 194.804688 57.976562 193.574219 58.582031 192.167969 58.582031 C 190.761719 58.582031 189.511719 58.015625 189.511719 57.136719 C 189.511719 57.097656 189.511719 55.925781 190.878906 55.925781 Z M 192.441406 55.925781 "/>
<path style=" stroke:none;fill-rule:nonzero;fill:rgb(0%,0%,0%);fill-opacity:1;" d="M 203.929688 51.84375 C 203.929688 51.082031 203.851562 49.988281 203.285156 49.03125 C 202.542969 47.800781 201.292969 47.664062 200.765625 47.664062 C 198.832031 47.664062 197.210938 49.519531 197.210938 51.84375 C 197.210938 54.226562 198.929688 56.0625 201.019531 56.0625 C 201.839844 56.0625 202.835938 55.828125 203.8125 55.125 C 203.8125 55.046875 203.753906 54.480469 203.753906 54.460938 C 203.734375 54.441406 203.714844 54.03125 203.714844 53.972656 C 202.640625 54.871094 201.585938 54.988281 201.058594 54.988281 C 199.671875 54.988281 198.480469 53.757812 198.460938 51.84375 Z M 198.558594 50.886719 C 198.871094 49.675781 199.710938 48.738281 200.765625 48.738281 C 201.332031 48.738281 202.5625 48.992188 202.855469 50.886719 Z M 198.558594 50.886719 "/>
<path style=" stroke:none;fill-rule:nonzero;fill:rgb(0%,0%,0%);fill-opacity:1;" d="M 210.441406 48.210938 C 209.308594 47.683594 208.332031 47.664062 207.921875 47.664062 C 207.511719 47.664062 205.011719 47.664062 205.011719 49.988281 C 205.011719 50.769531 205.441406 51.316406 205.714844 51.570312 C 206.359375 52.117188 206.808594 52.214844 207.863281 52.429688 C 208.46875 52.546875 209.503906 52.761719 209.503906 53.71875 C 209.503906 54.949219 208.097656 54.949219 207.84375 54.949219 C 207.140625 54.949219 206.085938 54.753906 205.128906 54.050781 L 204.914062 55.28125 C 204.992188 55.339844 206.222656 56.0625 207.863281 56.0625 C 210.1875 56.0625 210.734375 54.675781 210.734375 53.601562 C 210.734375 52.703125 210.1875 52.117188 210.109375 52.039062 C 209.445312 51.355469 208.898438 51.238281 207.824219 51.023438 C 207.160156 50.90625 206.261719 50.730469 206.261719 49.832031 C 206.261719 48.71875 207.511719 48.71875 207.746094 48.71875 C 208.683594 48.71875 209.445312 48.933594 210.226562 49.382812 Z M 210.441406 48.210938 "/>
</g>
</svg>
