<?xml version="1.0" encoding="UTF-8"?>
<svg xmlns="http://www.w3.org/2000/svg" xmlns:xlink="http://www.w3.org/1999/xlink" width="247.83091pt" height="76.587915pt" viewBox="0 0 247.83091 76.587915" version="1.1">
<g id="surface1">
<path style=" stroke:none;fill-rule:nonzero;fill:rgb(0%,0%,100%);fill-opacity:1;" d="M 7.832031 0.878906 C 7.089844 0.46875 6.191406 0 4.589844 0 C 2.1875 0 0.644531 1.71875 0.644531 3.515625 C 0.644531 4.785156 1.40625 5.605469 1.503906 5.703125 C 2.382812 6.582031 2.988281 6.757812 4.140625 7.03125 C 5.664062 7.421875 5.898438 7.480469 6.484375 8.085938 C 6.777344 8.398438 7.050781 8.984375 7.050781 9.609375 C 7.050781 10.839844 6.035156 11.992188 4.492188 11.992188 C 3.183594 11.992188 1.777344 11.464844 0.722656 10.507812 L 0.449219 11.953125 C 2.089844 13.027344 3.671875 13.183594 4.492188 13.183594 C 6.796875 13.183594 8.4375 11.40625 8.4375 9.414062 C 8.4375 8.28125 7.871094 7.421875 7.480469 6.972656 C 6.660156 6.09375 5.996094 5.917969 4.804688 5.605469 C 3.574219 5.292969 3.125 5.195312 2.734375 4.824219 C 2.5 4.570312 2.011719 4.121094 2.011719 3.300781 C 2.011719 2.207031 3.007812 1.152344 4.589844 1.152344 C 6.113281 1.152344 6.914062 1.757812 7.558594 2.324219 Z M 7.832031 0.878906 "/>
<path style=" stroke:none;fill-rule:nonzero;fill:rgb(0%,0%,100%);fill-opacity:1;" d="M 12.484375 5.898438 L 14.964844 5.898438 L 14.964844 4.84375 L 12.484375 4.84375 L 12.484375 2.578125 L 11.253906 2.578125 L 11.253906 4.84375 L 9.75 4.84375 L 9.75 5.898438 L 11.214844 5.898438 L 11.214844 10.722656 C 11.214844 11.757812 11.449219 12.988281 12.679688 12.988281 C 13.890625 12.988281 14.710938 12.578125 15.257812 12.285156 L 14.984375 11.25 C 14.359375 11.816406 13.695312 11.875 13.382812 11.875 C 12.582031 11.875 12.484375 11.035156 12.484375 10.410156 Z M 12.484375 5.898438 "/>
<path style=" stroke:none;fill-rule:nonzero;fill:rgb(0%,0%,100%);fill-opacity:1;" d="M 22.730469 7.558594 C 22.730469 5.839844 21.5 4.589844 19.820312 4.589844 C 18.746094 4.589844 17.945312 4.824219 17.066406 5.332031 L 17.164062 6.523438 C 17.964844 5.9375 18.785156 5.625 19.820312 5.625 C 20.640625 5.625 21.363281 6.289062 21.363281 7.597656 L 21.363281 8.339844 C 20.5625 8.359375 19.488281 8.417969 18.414062 8.769531 C 17.203125 9.199219 16.5 9.863281 16.5 10.742188 C 16.5 11.542969 16.96875 12.988281 18.492188 12.988281 C 19.488281 12.988281 20.738281 12.695312 21.402344 12.148438 L 21.402344 12.8125 L 22.730469 12.8125 Z M 21.363281 10.410156 C 21.363281 10.761719 21.363281 11.191406 20.777344 11.5625 C 20.289062 11.855469 19.683594 11.914062 19.410156 11.914062 C 18.453125 11.914062 17.789062 11.386719 17.789062 10.742188 C 17.789062 9.511719 20.269531 9.238281 21.363281 9.238281 Z M 21.363281 10.410156 "/>
<path style=" stroke:none;fill-rule:nonzero;fill:rgb(0%,0%,100%);fill-opacity:1;" d="M 31.714844 7.421875 C 31.714844 6.328125 31.480469 4.667969 29.3125 4.667969 C 28.316406 4.667969 27.457031 5.117188 26.773438 5.976562 L 26.773438 4.765625 L 25.503906 4.765625 L 25.503906 12.8125 L 26.851562 12.8125 L 26.851562 8.339844 C 26.851562 7.246094 27.28125 5.742188 28.628906 5.742188 C 30.308594 5.742188 30.347656 6.914062 30.347656 7.539062 L 30.347656 12.8125 L 31.714844 12.8125 Z M 31.714844 7.421875 "/>
<path style=" stroke:none;fill-rule:nonzero;fill:rgb(0%,0%,100%);fill-opacity:1;" d="M 40.695312 0.371094 L 39.367188 0.371094 L 39.367188 5.605469 C 38.546875 4.921875 37.609375 4.667969 36.847656 4.667969 C 35.148438 4.667969 33.742188 6.503906 33.742188 8.828125 C 33.742188 11.152344 35.070312 12.988281 36.769531 12.988281 C 37.433594 12.988281 38.449219 12.773438 39.347656 11.894531 L 39.347656 12.8125 L 40.695312 12.8125 Z M 39.347656 10.703125 C 38.917969 11.464844 38.273438 11.914062 37.492188 11.914062 C 36.398438 11.914062 35.109375 11.074219 35.109375 8.847656 C 35.109375 6.464844 36.632812 5.742188 37.667969 5.742188 C 38.371094 5.742188 38.9375 6.113281 39.347656 6.699219 Z M 39.347656 10.703125 "/>
<path style=" stroke:none;fill-rule:nonzero;fill:rgb(0%,0%,100%);fill-opacity:1;" d="M 49.128906 7.558594 C 49.128906 5.839844 47.898438 4.589844 46.21875 4.589844 C 45.144531 4.589844 44.34375 4.824219 43.464844 5.332031 L 43.5625 6.523438 C 44.363281 5.9375 45.183594 5.625 46.21875 5.625 C 47.039062 5.625 47.761719 6.289062 47.761719 7.597656 L 47.761719 8.339844 C 46.960938 8.359375 45.886719 8.417969 44.8125 8.769531 C 43.601562 9.199219 42.898438 9.863281 42.898438 10.742188 C 42.898438 11.542969 43.367188 12.988281 44.890625 12.988281 C 45.886719 12.988281 47.136719 12.695312 47.800781 12.148438 L 47.800781 12.8125 L 49.128906 12.8125 Z M 47.761719 10.410156 C 47.761719 10.761719 47.761719 11.191406 47.175781 11.5625 C 46.6875 11.855469 46.082031 11.914062 45.808594 11.914062 C 44.851562 11.914062 44.1875 11.386719 44.1875 10.742188 C 44.1875 9.511719 46.667969 9.238281 47.761719 9.238281 Z M 47.761719 10.410156 "/>
<path style=" stroke:none;fill-rule:nonzero;fill:rgb(0%,0%,100%);fill-opacity:1;" d="M 52.800781 8.886719 C 52.800781 7.070312 54.148438 5.898438 55.769531 5.878906 L 55.769531 4.667969 C 54.128906 4.6875 53.191406 5.644531 52.703125 6.347656 L 52.703125 4.765625 L 51.472656 4.765625 L 51.472656 12.8125 L 52.800781 12.8125 Z M 52.800781 8.886719 "/>
<path style=" stroke:none;fill-rule:nonzero;fill:rgb(0%,0%,100%);fill-opacity:1;" d="M 63.644531 0.371094 L 62.316406 0.371094 L 62.316406 5.605469 C 61.496094 4.921875 60.558594 4.667969 59.796875 4.667969 C 58.097656 4.667969 56.691406 6.503906 56.691406 8.828125 C 56.691406 11.152344 58.019531 12.988281 59.71875 12.988281 C 60.382812 12.988281 61.398438 12.773438 62.296875 11.894531 L 62.296875 12.8125 L 63.644531 12.8125 Z M 62.296875 10.703125 C 61.867188 11.464844 61.222656 11.914062 60.441406 11.914062 C 59.347656 11.914062 58.058594 11.074219 58.058594 8.847656 C 58.058594 6.464844 59.582031 5.742188 60.617188 5.742188 C 61.320312 5.742188 61.886719 6.113281 62.296875 6.699219 Z M 62.296875 10.703125 "/>
<path style=" stroke:none;fill-rule:nonzero;fill:rgb(0%,0%,100%);fill-opacity:1;" d="M 74.082031 0.371094 L 72.539062 0.371094 L 72.539062 12.8125 L 74.082031 12.8125 Z M 74.082031 0.371094 "/>
<path style=" stroke:none;fill-rule:nonzero;fill:rgb(0%,0%,100%);fill-opacity:1;" d="M 83.316406 7.421875 C 83.316406 6.328125 83.082031 4.667969 80.914062 4.667969 C 79.917969 4.667969 79.058594 5.117188 78.375 5.976562 L 78.375 4.765625 L 77.105469 4.765625 L 77.105469 12.8125 L 78.453125 12.8125 L 78.453125 8.339844 C 78.453125 7.246094 78.882812 5.742188 80.230469 5.742188 C 81.910156 5.742188 81.949219 6.914062 81.949219 7.539062 L 81.949219 12.8125 L 83.316406 12.8125 Z M 83.316406 7.421875 "/>
<path style=" stroke:none;fill-rule:nonzero;fill:rgb(0%,0%,100%);fill-opacity:1;" d="M 87.785156 5.898438 L 90.265625 5.898438 L 90.265625 4.84375 L 87.785156 4.84375 L 87.785156 2.578125 L 86.554688 2.578125 L 86.554688 4.84375 L 85.050781 4.84375 L 85.050781 5.898438 L 86.515625 5.898438 L 86.515625 10.722656 C 86.515625 11.757812 86.75 12.988281 87.980469 12.988281 C 89.191406 12.988281 90.011719 12.578125 90.558594 12.285156 L 90.285156 11.25 C 89.660156 11.816406 88.996094 11.875 88.683594 11.875 C 87.882812 11.875 87.785156 11.035156 87.785156 10.410156 Z M 87.785156 5.898438 "/>
<path style=" stroke:none;fill-rule:nonzero;fill:rgb(0%,0%,100%);fill-opacity:1;" d="M 98.324219 8.769531 C 98.324219 8.007812 98.246094 6.914062 97.679688 5.957031 C 96.9375 4.726562 95.6875 4.589844 95.160156 4.589844 C 93.226562 4.589844 91.605469 6.445312 91.605469 8.769531 C 91.605469 11.152344 93.324219 12.988281 95.414062 12.988281 C 96.234375 12.988281 97.230469 12.753906 98.207031 12.050781 C 98.207031 11.972656 98.148438 11.40625 98.148438 11.386719 C 98.128906 11.367188 98.109375 10.957031 98.109375 10.898438 C 97.035156 11.796875 95.980469 11.914062 95.453125 11.914062 C 94.066406 11.914062 92.875 10.683594 92.855469 8.769531 Z M 92.953125 7.8125 C 93.265625 6.601562 94.105469 5.664062 95.160156 5.664062 C 95.726562 5.664062 96.957031 5.917969 97.25 7.8125 Z M 92.953125 7.8125 "/>
<path style=" stroke:none;fill-rule:nonzero;fill:rgb(0%,0%,100%);fill-opacity:1;" d="M 104.929688 5.742188 C 104.929688 5.742188 104.96875 5.78125 104.988281 5.820312 C 105.359375 5.78125 105.75 5.722656 106.414062 5.722656 C 106.472656 5.722656 106.882812 5.722656 107.332031 5.761719 L 107.136719 4.667969 C 106.804688 4.667969 105.574219 4.6875 104.382812 5.273438 C 103.796875 4.765625 103.074219 4.667969 102.722656 4.667969 C 101.160156 4.667969 99.910156 5.976562 99.910156 7.558594 C 99.910156 8.203125 100.105469 8.789062 100.496094 9.335938 C 100.085938 9.902344 99.988281 10.449219 99.988281 10.878906 C 99.988281 11.542969 100.242188 11.992188 100.4375 12.226562 C 99.519531 12.8125 99.304688 13.574219 99.304688 14.082031 C 99.304688 15.390625 101.003906 16.484375 103.191406 16.484375 C 105.378906 16.484375 107.097656 15.429688 107.097656 14.0625 C 107.097656 11.5625 104.1875 11.5625 103.464844 11.5625 L 101.941406 11.5625 C 101.6875 11.5625 100.90625 11.5625 100.90625 10.605469 C 100.90625 10.214844 100.984375 10.097656 101.101562 9.941406 C 101.394531 10.15625 101.980469 10.46875 102.703125 10.46875 C 104.246094 10.46875 105.515625 9.199219 105.515625 7.558594 C 105.515625 6.914062 105.28125 6.25 104.910156 5.761719 Z M 102.722656 9.472656 C 101.941406 9.472656 101.140625 8.945312 101.140625 7.578125 C 101.140625 5.976562 102.15625 5.664062 102.703125 5.664062 C 103.503906 5.664062 104.285156 6.191406 104.285156 7.558594 C 104.285156 9.160156 103.289062 9.472656 102.722656 9.472656 Z M 103.484375 12.851562 C 103.875 12.851562 105.847656 12.851562 105.847656 14.082031 C 105.847656 14.902344 104.617188 15.507812 103.210938 15.507812 C 101.804688 15.507812 100.554688 14.941406 100.554688 14.0625 C 100.554688 14.023438 100.554688 12.851562 101.921875 12.851562 Z M 103.484375 12.851562 "/>
<path style=" stroke:none;fill-rule:nonzero;fill:rgb(0%,0%,100%);fill-opacity:1;" d="M 110.402344 8.886719 C 110.402344 7.070312 111.75 5.898438 113.371094 5.878906 L 113.371094 4.667969 C 111.730469 4.6875 110.792969 5.644531 110.304688 6.347656 L 110.304688 4.765625 L 109.074219 4.765625 L 109.074219 12.8125 L 110.402344 12.8125 Z M 110.402344 8.886719 "/>
<path style=" stroke:none;fill-rule:nonzero;fill:rgb(0%,0%,100%);fill-opacity:1;" d="M 120.679688 7.558594 C 120.679688 5.839844 119.449219 4.589844 117.769531 4.589844 C 116.695312 4.589844 115.894531 4.824219 115.015625 5.332031 L 115.113281 6.523438 C 115.914062 5.9375 116.734375 5.625 117.769531 5.625 C 118.589844 5.625 119.3125 6.289062 119.3125 7.597656 L 119.3125 8.339844 C 118.511719 8.359375 117.4375 8.417969 116.363281 8.769531 C 115.152344 9.199219 114.449219 9.863281 114.449219 10.742188 C 114.449219 11.542969 114.917969 12.988281 116.441406 12.988281 C 117.4375 12.988281 118.6875 12.695312 119.351562 12.148438 L 119.351562 12.8125 L 120.679688 12.8125 Z M 119.3125 10.410156 C 119.3125 10.761719 119.3125 11.191406 118.726562 11.5625 C 118.238281 11.855469 117.632812 11.914062 117.359375 11.914062 C 116.402344 11.914062 115.738281 11.386719 115.738281 10.742188 C 115.738281 9.511719 118.21875 9.238281 119.3125 9.238281 Z M 119.3125 10.410156 "/>
<path style=" stroke:none;fill-rule:nonzero;fill:rgb(0%,0%,100%);fill-opacity:1;" d="M 124.800781 0.371094 L 123.472656 0.371094 L 123.472656 12.8125 L 124.800781 12.8125 Z M 124.800781 0.371094 "/>
<path style=" stroke:none;fill-rule:nonzero;fill:rgb(0%,0%,100%);fill-opacity:1;" d="M 132.285156 5.136719 C 131.152344 4.609375 130.175781 4.589844 129.765625 4.589844 C 129.355469 4.589844 126.855469 4.589844 126.855469 6.914062 C 126.855469 7.695312 127.285156 8.242188 127.558594 8.496094 C 128.203125 9.042969 128.652344 9.140625 129.707031 9.355469 C 130.3125 9.472656 131.347656 9.6875 131.347656 10.644531 C 131.347656 11.875 129.941406 11.875 129.6875 11.875 C 128.984375 11.875 127.929688 11.679688 126.972656 10.976562 L 126.757812 12.207031 C 126.835938 12.265625 128.066406 12.988281 129.707031 12.988281 C 132.03125 12.988281 132.578125 11.601562 132.578125 10.527344 C 132.578125 9.628906 132.03125 9.042969 131.953125 8.964844 C 131.289062 8.28125 130.742188 8.164062 129.667969 7.949219 C 129.003906 7.832031 128.105469 7.65625 128.105469 6.757812 C 128.105469 5.644531 129.355469 5.644531 129.589844 5.644531 C 130.527344 5.644531 131.289062 5.859375 132.070312 6.308594 Z M 132.285156 5.136719 "/>
<path style=" stroke:none;fill-rule:nonzero;fill:rgb(0%,0%,100%);fill-opacity:1;" d="M 147.839844 10.390625 L 151.785156 10.390625 C 152.039062 10.390625 152.371094 10.390625 152.371094 10.078125 C 152.371094 9.726562 152.058594 9.726562 151.785156 9.726562 L 148.015625 9.726562 L 148.757812 6.953125 L 151.785156 6.953125 C 152.039062 6.953125 152.371094 6.953125 152.371094 6.621094 C 152.371094 6.289062 152.058594 6.289062 151.785156 6.289062 L 148.953125 6.289062 L 150.339844 1.035156 C 150.417969 0.78125 150.417969 0.722656 150.417969 0.703125 C 150.417969 0.507812 150.261719 0.371094 150.066406 0.371094 C 149.8125 0.371094 149.753906 0.605469 149.714844 0.78125 L 148.25 6.289062 L 144.910156 6.289062 L 146.277344 1.035156 C 146.355469 0.78125 146.355469 0.722656 146.355469 0.703125 C 146.355469 0.507812 146.21875 0.371094 146.023438 0.371094 C 145.769531 0.371094 145.710938 0.605469 145.652344 0.78125 L 144.207031 6.289062 L 140.261719 6.289062 C 140.007812 6.289062 139.695312 6.289062 139.695312 6.601562 C 139.695312 6.953125 139.988281 6.953125 140.261719 6.953125 L 144.03125 6.953125 L 143.289062 9.726562 L 140.261719 9.726562 C 140.007812 9.726562 139.695312 9.726562 139.695312 10.058594 C 139.695312 10.390625 139.988281 10.390625 140.261719 10.390625 L 143.09375 10.390625 L 141.707031 15.625 C 141.648438 15.878906 141.648438 15.9375 141.648438 15.957031 C 141.648438 16.152344 141.785156 16.289062 141.980469 16.289062 C 142.234375 16.289062 142.292969 16.054688 142.332031 15.878906 L 143.796875 10.390625 L 147.136719 10.390625 L 145.769531 15.625 C 145.691406 15.878906 145.691406 15.9375 145.691406 15.957031 C 145.691406 16.152344 145.828125 16.289062 146.042969 16.289062 C 146.277344 16.289062 146.335938 16.054688 146.394531 15.878906 Z M 143.972656 9.726562 L 144.714844 6.953125 L 148.074219 6.953125 L 147.351562 9.726562 Z M 143.972656 9.726562 "/>
<path style=" stroke:none;fill-rule:nonzero;fill:rgb(0%,0%,100%);fill-opacity:1;" d="M 158.691406 0.683594 L 158.339844 0.683594 C 158.066406 0.976562 157.207031 1.816406 155.273438 1.855469 C 155.019531 1.855469 155 1.875 155 2.207031 L 155 2.910156 C 156.09375 2.910156 156.914062 2.636719 157.285156 2.480469 L 157.285156 11.777344 L 155.097656 11.777344 L 155.097656 12.8125 L 160.878906 12.8125 L 160.878906 11.777344 L 158.691406 11.777344 Z M 158.691406 0.683594 "/>
<path style=" stroke:none;fill-rule:nonzero;fill:rgb(0%,0%,0%);fill-opacity:1;" d="M 2.832031 21.519531 L 1.289062 21.519531 L 1.289062 33.960938 L 2.832031 33.960938 Z M 2.832031 21.519531 "/>
<path style=" stroke:none;fill-rule:nonzero;fill:rgb(0%,0%,0%);fill-opacity:1;" d="M 12.066406 28.570312 C 12.066406 27.476562 11.832031 25.816406 9.664062 25.816406 C 8.667969 25.816406 7.808594 26.265625 7.125 27.125 L 7.125 25.914062 L 5.855469 25.914062 L 5.855469 33.960938 L 7.203125 33.960938 L 7.203125 29.488281 C 7.203125 28.394531 7.632812 26.890625 8.980469 26.890625 C 10.660156 26.890625 10.699219 28.0625 10.699219 28.6875 L 10.699219 33.960938 L 12.066406 33.960938 Z M 12.066406 28.570312 "/>
<path style=" stroke:none;fill-rule:nonzero;fill:rgb(0%,0%,0%);fill-opacity:1;" d="M 16.535156 27.046875 L 19.015625 27.046875 L 19.015625 25.992188 L 16.535156 25.992188 L 16.535156 23.726562 L 15.304688 23.726562 L 15.304688 25.992188 L 13.800781 25.992188 L 13.800781 27.046875 L 15.265625 27.046875 L 15.265625 31.871094 C 15.265625 32.90625 15.5 34.136719 16.730469 34.136719 C 17.941406 34.136719 18.761719 33.726562 19.308594 33.433594 L 19.035156 32.398438 C 18.410156 32.964844 17.746094 33.023438 17.433594 33.023438 C 16.632812 33.023438 16.535156 32.183594 16.535156 31.558594 Z M 16.535156 27.046875 "/>
<path style=" stroke:none;fill-rule:nonzero;fill:rgb(0%,0%,0%);fill-opacity:1;" d="M 27.074219 29.917969 C 27.074219 29.15625 26.996094 28.0625 26.429688 27.105469 C 25.6875 25.875 24.4375 25.738281 23.910156 25.738281 C 21.976562 25.738281 20.355469 27.59375 20.355469 29.917969 C 20.355469 32.300781 22.074219 34.136719 24.164062 34.136719 C 24.984375 34.136719 25.980469 33.902344 26.957031 33.199219 C 26.957031 33.121094 26.898438 32.554688 26.898438 32.535156 C 26.878906 32.515625 26.859375 32.105469 26.859375 32.046875 C 25.785156 32.945312 24.730469 33.0625 24.203125 33.0625 C 22.816406 33.0625 21.625 31.832031 21.605469 29.917969 Z M 21.703125 28.960938 C 22.015625 27.75 22.855469 26.8125 23.910156 26.8125 C 24.476562 26.8125 25.707031 27.066406 26 28.960938 Z M 21.703125 28.960938 "/>
<path style=" stroke:none;fill-rule:nonzero;fill:rgb(0%,0%,0%);fill-opacity:1;" d="M 33.679688 26.890625 C 33.679688 26.890625 33.71875 26.929688 33.738281 26.96875 C 34.109375 26.929688 34.5 26.871094 35.164062 26.871094 C 35.222656 26.871094 35.632812 26.871094 36.082031 26.910156 L 35.886719 25.816406 C 35.554688 25.816406 34.324219 25.835938 33.132812 26.421875 C 32.546875 25.914062 31.824219 25.816406 31.472656 25.816406 C 29.910156 25.816406 28.660156 27.125 28.660156 28.707031 C 28.660156 29.351562 28.855469 29.9375 29.246094 30.484375 C 28.835938 31.050781 28.738281 31.597656 28.738281 32.027344 C 28.738281 32.691406 28.992188 33.140625 29.1875 33.375 C 28.269531 33.960938 28.054688 34.722656 28.054688 35.230469 C 28.054688 36.539062 29.753906 37.632812 31.941406 37.632812 C 34.128906 37.632812 35.847656 36.578125 35.847656 35.210938 C 35.847656 32.710938 32.9375 32.710938 32.214844 32.710938 L 30.691406 32.710938 C 30.4375 32.710938 29.65625 32.710938 29.65625 31.753906 C 29.65625 31.363281 29.734375 31.246094 29.851562 31.089844 C 30.144531 31.304688 30.730469 31.617188 31.453125 31.617188 C 32.996094 31.617188 34.265625 30.347656 34.265625 28.707031 C 34.265625 28.0625 34.03125 27.398438 33.660156 26.910156 Z M 31.472656 30.621094 C 30.691406 30.621094 29.890625 30.09375 29.890625 28.726562 C 29.890625 27.125 30.90625 26.8125 31.453125 26.8125 C 32.253906 26.8125 33.035156 27.339844 33.035156 28.707031 C 33.035156 30.308594 32.039062 30.621094 31.472656 30.621094 Z M 32.234375 34 C 32.625 34 34.597656 34 34.597656 35.230469 C 34.597656 36.050781 33.367188 36.65625 31.960938 36.65625 C 30.554688 36.65625 29.304688 36.089844 29.304688 35.210938 C 29.304688 35.171875 29.304688 34 30.671875 34 Z M 32.234375 34 "/>
<path style=" stroke:none;fill-rule:nonzero;fill:rgb(0%,0%,0%);fill-opacity:1;" d="M 39.152344 30.035156 C 39.152344 28.21875 40.5 27.046875 42.121094 27.027344 L 42.121094 25.816406 C 40.480469 25.835938 39.542969 26.792969 39.054688 27.496094 L 39.054688 25.914062 L 37.824219 25.914062 L 37.824219 33.960938 L 39.152344 33.960938 Z M 39.152344 30.035156 "/>
<path style=" stroke:none;fill-rule:nonzero;fill:rgb(0%,0%,0%);fill-opacity:1;" d="M 49.429688 28.707031 C 49.429688 26.988281 48.199219 25.738281 46.519531 25.738281 C 45.445312 25.738281 44.644531 25.972656 43.765625 26.480469 L 43.863281 27.671875 C 44.664062 27.085938 45.484375 26.773438 46.519531 26.773438 C 47.339844 26.773438 48.0625 27.4375 48.0625 28.746094 L 48.0625 29.488281 C 47.261719 29.507812 46.1875 29.566406 45.113281 29.917969 C 43.902344 30.347656 43.199219 31.011719 43.199219 31.890625 C 43.199219 32.691406 43.667969 34.136719 45.191406 34.136719 C 46.1875 34.136719 47.4375 33.84375 48.101562 33.296875 L 48.101562 33.960938 L 49.429688 33.960938 Z M 48.0625 31.558594 C 48.0625 31.910156 48.0625 32.339844 47.476562 32.710938 C 46.988281 33.003906 46.382812 33.0625 46.109375 33.0625 C 45.152344 33.0625 44.488281 32.535156 44.488281 31.890625 C 44.488281 30.660156 46.96875 30.386719 48.0625 30.386719 Z M 48.0625 31.558594 "/>
<path style=" stroke:none;fill-rule:nonzero;fill:rgb(0%,0%,0%);fill-opacity:1;" d="M 53.550781 21.519531 L 52.222656 21.519531 L 52.222656 33.960938 L 53.550781 33.960938 Z M 53.550781 21.519531 "/>
<path style=" stroke:none;fill-rule:nonzero;fill:rgb(0%,0%,0%);fill-opacity:1;" d="M 61.035156 26.285156 C 59.902344 25.757812 58.925781 25.738281 58.515625 25.738281 C 58.105469 25.738281 55.605469 25.738281 55.605469 28.0625 C 55.605469 28.84375 56.035156 29.390625 56.308594 29.644531 C 56.953125 30.191406 57.402344 30.289062 58.457031 30.503906 C 59.0625 30.621094 60.097656 30.835938 60.097656 31.792969 C 60.097656 33.023438 58.691406 33.023438 58.4375 33.023438 C 57.734375 33.023438 56.679688 32.828125 55.722656 32.125 L 55.507812 33.355469 C 55.585938 33.414062 56.816406 34.136719 58.457031 34.136719 C 60.78125 34.136719 61.328125 32.75 61.328125 31.675781 C 61.328125 30.777344 60.78125 30.191406 60.703125 30.113281 C 60.039062 29.429688 59.492188 29.3125 58.417969 29.097656 C 57.753906 28.980469 56.855469 28.804688 56.855469 27.90625 C 56.855469 26.792969 58.105469 26.792969 58.339844 26.792969 C 59.277344 26.792969 60.039062 27.007812 60.820312 27.457031 Z M 61.035156 26.285156 "/>
<path style=" stroke:none;fill-rule:nonzero;fill:rgb(0%,0%,0%);fill-opacity:1;" d="M 71.433594 27.046875 L 73.914062 27.046875 L 73.914062 25.992188 L 71.433594 25.992188 L 71.433594 23.726562 L 70.203125 23.726562 L 70.203125 25.992188 L 68.699219 25.992188 L 68.699219 27.046875 L 70.164062 27.046875 L 70.164062 31.871094 C 70.164062 32.90625 70.398438 34.136719 71.628906 34.136719 C 72.839844 34.136719 73.660156 33.726562 74.207031 33.433594 L 73.933594 32.398438 C 73.308594 32.964844 72.644531 33.023438 72.332031 33.023438 C 71.53125 33.023438 71.433594 32.183594 71.433594 31.558594 Z M 71.433594 27.046875 "/>
<path style=" stroke:none;fill-rule:nonzero;fill:rgb(0%,0%,0%);fill-opacity:1;" d="M 82.265625 28.570312 C 82.265625 27.476562 82.03125 25.816406 79.863281 25.816406 C 78.632812 25.816406 77.8125 26.519531 77.382812 27.066406 L 77.382812 21.519531 L 76.054688 21.519531 L 76.054688 33.960938 L 77.402344 33.960938 L 77.402344 29.488281 C 77.402344 28.394531 77.832031 26.890625 79.179688 26.890625 C 80.859375 26.890625 80.898438 28.0625 80.898438 28.6875 L 80.898438 33.960938 L 82.265625 33.960938 Z M 82.265625 28.570312 "/>
<path style=" stroke:none;fill-rule:nonzero;fill:rgb(0%,0%,0%);fill-opacity:1;" d="M 90.679688 28.707031 C 90.679688 26.988281 89.449219 25.738281 87.769531 25.738281 C 86.695312 25.738281 85.894531 25.972656 85.015625 26.480469 L 85.113281 27.671875 C 85.914062 27.085938 86.734375 26.773438 87.769531 26.773438 C 88.589844 26.773438 89.3125 27.4375 89.3125 28.746094 L 89.3125 29.488281 C 88.511719 29.507812 87.4375 29.566406 86.363281 29.917969 C 85.152344 30.347656 84.449219 31.011719 84.449219 31.890625 C 84.449219 32.691406 84.917969 34.136719 86.441406 34.136719 C 87.4375 34.136719 88.6875 33.84375 89.351562 33.296875 L 89.351562 33.960938 L 90.679688 33.960938 Z M 89.3125 31.558594 C 89.3125 31.910156 89.3125 32.339844 88.726562 32.710938 C 88.238281 33.003906 87.632812 33.0625 87.359375 33.0625 C 86.402344 33.0625 85.738281 32.535156 85.738281 31.890625 C 85.738281 30.660156 88.21875 30.386719 89.3125 30.386719 Z M 89.3125 31.558594 "/>
<path style=" stroke:none;fill-rule:nonzero;fill:rgb(0%,0%,0%);fill-opacity:1;" d="M 95.132812 27.046875 L 97.613281 27.046875 L 97.613281 25.992188 L 95.132812 25.992188 L 95.132812 23.726562 L 93.902344 23.726562 L 93.902344 25.992188 L 92.398438 25.992188 L 92.398438 27.046875 L 93.863281 27.046875 L 93.863281 31.871094 C 93.863281 32.90625 94.097656 34.136719 95.328125 34.136719 C 96.539062 34.136719 97.359375 33.726562 97.90625 33.433594 L 97.632812 32.398438 C 97.007812 32.964844 96.34375 33.023438 96.03125 33.023438 C 95.230469 33.023438 95.132812 32.183594 95.132812 31.558594 Z M 95.132812 27.046875 "/>
<path style=" stroke:none;fill-rule:nonzero;fill:rgb(0%,0%,0%);fill-opacity:1;" d="M 108.375 27.046875 L 110.289062 27.046875 L 110.289062 25.992188 L 108.335938 25.992188 L 108.335938 23.84375 C 108.335938 22.632812 109.351562 22.417969 109.957031 22.417969 C 110.582031 22.417969 111.128906 22.613281 111.34375 22.691406 L 111.34375 21.519531 C 111.226562 21.480469 110.621094 21.34375 109.976562 21.34375 C 108.257812 21.34375 107.046875 22.652344 107.046875 24.390625 L 107.046875 25.992188 L 105.738281 25.992188 L 105.738281 27.046875 L 107.046875 27.046875 L 107.046875 33.960938 L 108.375 33.960938 Z M 108.375 27.046875 "/>
<path style=" stroke:none;fill-rule:nonzero;fill:rgb(0%,0%,0%);fill-opacity:1;" d="M 118.890625 30.015625 C 118.890625 27.59375 117.113281 25.738281 115.0625 25.738281 C 112.953125 25.738281 111.214844 27.632812 111.214844 30.015625 C 111.214844 32.359375 112.992188 34.136719 115.042969 34.136719 C 117.152344 34.136719 118.890625 32.320312 118.890625 30.015625 Z M 115.0625 33.023438 C 113.773438 33.023438 112.5625 31.949219 112.5625 29.839844 C 112.5625 27.671875 113.910156 26.8125 115.042969 26.8125 C 116.273438 26.8125 117.542969 27.730469 117.542969 29.839844 C 117.542969 32.046875 116.253906 33.023438 115.0625 33.023438 Z M 115.0625 33.023438 "/>
<path style=" stroke:none;fill-rule:nonzero;fill:rgb(0%,0%,0%);fill-opacity:1;" d="M 122.253906 21.519531 L 120.925781 21.519531 L 120.925781 33.960938 L 122.253906 33.960938 Z M 122.253906 21.519531 "/>
<path style=" stroke:none;fill-rule:nonzero;fill:rgb(0%,0%,0%);fill-opacity:1;" d="M 126.453125 21.519531 L 125.125 21.519531 L 125.125 33.960938 L 126.453125 33.960938 Z M 126.453125 21.519531 "/>
<path style=" stroke:none;fill-rule:nonzero;fill:rgb(0%,0%,0%);fill-opacity:1;" d="M 136.140625 30.015625 C 136.140625 27.59375 134.363281 25.738281 132.3125 25.738281 C 130.203125 25.738281 128.464844 27.632812 128.464844 30.015625 C 128.464844 32.359375 130.242188 34.136719 132.292969 34.136719 C 134.402344 34.136719 136.140625 32.320312 136.140625 30.015625 Z M 132.3125 33.023438 C 131.023438 33.023438 129.8125 31.949219 129.8125 29.839844 C 129.8125 27.671875 131.160156 26.8125 132.292969 26.8125 C 133.523438 26.8125 134.792969 27.730469 134.792969 29.839844 C 134.792969 32.046875 133.503906 33.023438 132.3125 33.023438 Z M 132.3125 33.023438 "/>
<path style=" stroke:none;fill-rule:nonzero;fill:rgb(0%,0%,0%);fill-opacity:1;" d="M 147.976562 25.992188 L 146.667969 25.992188 L 145.59375 29.644531 C 145.339844 30.503906 144.832031 32.183594 144.753906 32.964844 L 144.734375 32.964844 C 144.695312 32.535156 144.402344 31.324219 144.03125 30.054688 L 142.839844 25.992188 L 141.609375 25.992188 L 140.574219 29.507812 C 140.261719 30.621094 139.832031 32.164062 139.773438 32.925781 L 139.753906 32.925781 C 139.734375 32.574219 139.539062 31.636719 139.207031 30.425781 L 137.9375 25.992188 L 136.570312 25.992188 L 138.972656 33.960938 L 140.359375 33.960938 C 141.023438 31.695312 142.078125 28.296875 142.175781 27.046875 L 142.195312 27.046875 C 142.234375 27.769531 142.585938 29.058594 142.722656 29.488281 L 143.992188 33.960938 L 145.574219 33.960938 Z M 147.976562 25.992188 "/>
<path style=" stroke:none;fill-rule:nonzero;fill:rgb(0%,0%,0%);fill-opacity:1;" d="M 162.347656 21.519531 L 161.019531 21.519531 L 161.019531 26.753906 C 160.199219 26.070312 159.261719 25.816406 158.5 25.816406 C 156.800781 25.816406 155.394531 27.652344 155.394531 29.976562 C 155.394531 32.300781 156.722656 34.136719 158.421875 34.136719 C 159.085938 34.136719 160.101562 33.921875 161 33.042969 L 161 33.960938 L 162.347656 33.960938 Z M 161 31.851562 C 160.570312 32.613281 159.925781 33.0625 159.144531 33.0625 C 158.050781 33.0625 156.761719 32.222656 156.761719 29.996094 C 156.761719 27.613281 158.285156 26.890625 159.320312 26.890625 C 160.023438 26.890625 160.589844 27.261719 161 27.847656 Z M 161 31.851562 "/>
<path style=" stroke:none;fill-rule:nonzero;fill:rgb(0%,0%,0%);fill-opacity:1;" d="M 166.601562 21.792969 L 165.058594 21.792969 L 165.058594 23.335938 L 166.601562 23.335938 Z M 166.503906 25.992188 L 165.175781 25.992188 L 165.175781 33.960938 L 166.503906 33.960938 Z M 166.503906 25.992188 "/>
<path style=" stroke:none;fill-rule:nonzero;fill:rgb(0%,0%,0%);fill-opacity:1;" d="M 170.703125 30.035156 C 170.703125 28.21875 172.050781 27.046875 173.671875 27.027344 L 173.671875 25.816406 C 172.03125 25.835938 171.09375 26.792969 170.605469 27.496094 L 170.605469 25.914062 L 169.375 25.914062 L 169.375 33.960938 L 170.703125 33.960938 Z M 170.703125 30.035156 "/>
<path style=" stroke:none;fill-rule:nonzero;fill:rgb(0%,0%,0%);fill-opacity:1;" d="M 181.273438 29.917969 C 181.273438 29.15625 181.195312 28.0625 180.628906 27.105469 C 179.886719 25.875 178.636719 25.738281 178.109375 25.738281 C 176.175781 25.738281 174.554688 27.59375 174.554688 29.917969 C 174.554688 32.300781 176.273438 34.136719 178.363281 34.136719 C 179.183594 34.136719 180.179688 33.902344 181.15625 33.199219 C 181.15625 33.121094 181.097656 32.554688 181.097656 32.535156 C 181.078125 32.515625 181.058594 32.105469 181.058594 32.046875 C 179.984375 32.945312 178.929688 33.0625 178.402344 33.0625 C 177.015625 33.0625 175.824219 31.832031 175.804688 29.917969 Z M 175.902344 28.960938 C 176.214844 27.75 177.054688 26.8125 178.109375 26.8125 C 178.675781 26.8125 179.90625 27.066406 180.199219 28.960938 Z M 175.902344 28.960938 "/>
<path style=" stroke:none;fill-rule:nonzero;fill:rgb(0%,0%,0%);fill-opacity:1;" d="M 188.957031 32.027344 C 188.136719 32.691406 187.21875 33.023438 186.222656 33.023438 C 184.71875 33.023438 183.761719 31.695312 183.761719 29.957031 C 183.761719 28.472656 184.484375 26.851562 186.261719 26.851562 C 187.472656 26.851562 187.980469 27.125 188.742188 27.652344 L 188.957031 26.480469 C 187.921875 25.875 187.335938 25.738281 186.261719 25.738281 C 183.800781 25.738281 182.394531 27.925781 182.394531 29.957031 C 182.394531 32.261719 184.054688 34.136719 186.203125 34.136719 C 187.082031 34.136719 188.078125 33.921875 189.074219 33.199219 C 189.074219 33.160156 189.015625 32.59375 188.996094 32.535156 Z M 188.957031 32.027344 "/>
<path style=" stroke:none;fill-rule:nonzero;fill:rgb(0%,0%,0%);fill-opacity:1;" d="M 192.632812 27.046875 L 195.113281 27.046875 L 195.113281 25.992188 L 192.632812 25.992188 L 192.632812 23.726562 L 191.402344 23.726562 L 191.402344 25.992188 L 189.898438 25.992188 L 189.898438 27.046875 L 191.363281 27.046875 L 191.363281 31.871094 C 191.363281 32.90625 191.597656 34.136719 192.828125 34.136719 C 194.039062 34.136719 194.859375 33.726562 195.40625 33.433594 L 195.132812 32.398438 C 194.507812 32.964844 193.84375 33.023438 193.53125 33.023438 C 192.730469 33.023438 192.632812 32.183594 192.632812 31.558594 Z M 192.632812 27.046875 "/>
<path style=" stroke:none;fill-rule:nonzero;fill:rgb(0%,0%,0%);fill-opacity:1;" d="M 198.601562 21.519531 L 197.273438 21.519531 L 197.273438 33.960938 L 198.601562 33.960938 Z M 198.601562 21.519531 "/>
<path style=" stroke:none;fill-rule:nonzero;fill:rgb(0%,0%,0%);fill-opacity:1;" d="M 207.820312 25.992188 L 206.492188 25.992188 C 205.652344 28.121094 204.285156 31.636719 204.207031 32.925781 L 204.1875 32.925781 C 204.109375 31.871094 203.152344 29.488281 203.015625 29.136719 L 201.726562 25.992188 L 200.320312 25.992188 L 203.660156 33.960938 L 203.015625 35.601562 C 202.625 36.480469 202.371094 36.578125 202.039062 36.578125 C 201.785156 36.578125 201.21875 36.519531 200.652344 36.304688 L 200.769531 37.476562 C 200.867188 37.496094 201.472656 37.613281 202.039062 37.613281 C 202.46875 37.613281 203.308594 37.613281 204.089844 35.640625 Z M 207.820312 25.992188 "/>
<path style=" stroke:none;fill-rule:nonzero;fill:rgb(0%,0%,0%);fill-opacity:1;" d="M 217.871094 27.046875 L 219.785156 27.046875 L 219.785156 25.992188 L 217.832031 25.992188 L 217.832031 23.84375 C 217.832031 22.632812 218.847656 22.417969 219.453125 22.417969 C 220.078125 22.417969 220.625 22.613281 220.839844 22.691406 L 220.839844 21.519531 C 220.722656 21.480469 220.117188 21.34375 219.472656 21.34375 C 217.753906 21.34375 216.542969 22.652344 216.542969 24.390625 L 216.542969 25.992188 L 215.234375 25.992188 L 215.234375 27.046875 L 216.542969 27.046875 L 216.542969 33.960938 L 217.871094 33.960938 Z M 217.871094 27.046875 "/>
<path style=" stroke:none;fill-rule:nonzero;fill:rgb(0%,0%,0%);fill-opacity:1;" d="M 222.902344 30.035156 C 222.902344 28.21875 224.25 27.046875 225.871094 27.027344 L 225.871094 25.816406 C 224.230469 25.835938 223.292969 26.792969 222.804688 27.496094 L 222.804688 25.914062 L 221.574219 25.914062 L 221.574219 33.960938 L 222.902344 33.960938 Z M 222.902344 30.035156 "/>
<path style=" stroke:none;fill-rule:nonzero;fill:rgb(0%,0%,0%);fill-opacity:1;" d="M 234.390625 30.015625 C 234.390625 27.59375 232.613281 25.738281 230.5625 25.738281 C 228.453125 25.738281 226.714844 27.632812 226.714844 30.015625 C 226.714844 32.359375 228.492188 34.136719 230.542969 34.136719 C 232.652344 34.136719 234.390625 32.320312 234.390625 30.015625 Z M 230.5625 33.023438 C 229.273438 33.023438 228.0625 31.949219 228.0625 29.839844 C 228.0625 27.671875 229.410156 26.8125 230.542969 26.8125 C 231.773438 26.8125 233.042969 27.730469 233.042969 29.839844 C 233.042969 32.046875 231.753906 33.023438 230.5625 33.023438 Z M 230.5625 33.023438 "/>
<path style=" stroke:none;fill-rule:nonzero;fill:rgb(0%,0%,0%);fill-opacity:1;" d="M 247.515625 28.570312 C 247.515625 27.320312 247.183594 25.816406 245.09375 25.816406 C 243.570312 25.816406 242.730469 26.871094 242.457031 27.28125 C 242.125 26.148438 241.148438 25.816406 240.210938 25.816406 C 238.746094 25.816406 237.964844 26.773438 237.671875 27.144531 L 237.671875 25.914062 L 236.402344 25.914062 L 236.402344 33.960938 L 237.75 33.960938 L 237.75 29.488281 C 237.75 28.316406 238.21875 26.890625 239.527344 26.890625 C 241.1875 26.890625 241.265625 28.023438 241.265625 28.6875 L 241.265625 33.960938 L 242.632812 33.960938 L 242.632812 29.488281 C 242.632812 28.316406 243.101562 26.890625 244.410156 26.890625 C 246.050781 26.890625 246.148438 28.023438 246.148438 28.6875 L 246.148438 33.960938 L 247.515625 33.960938 Z M 247.515625 28.570312 "/>
<path style=" stroke:none;fill-rule:nonzero;fill:rgb(0%,0%,0%);fill-opacity:1;" d="M 2.734375 48.347656 L 5.214844 48.347656 L 5.214844 47.292969 L 2.734375 47.292969 L 2.734375 45.027344 L 1.503906 45.027344 L 1.503906 47.292969 L 0 47.292969 L 0 48.347656 L 1.464844 48.347656 L 1.464844 53.171875 C 1.464844 54.207031 1.699219 55.4375 2.929688 55.4375 C 4.140625 55.4375 4.960938 55.027344 5.507812 54.734375 L 5.234375 53.699219 C 4.609375 54.265625 3.945312 54.324219 3.632812 54.324219 C 2.832031 54.324219 2.734375 53.484375 2.734375 52.859375 Z M 2.734375 48.347656 "/>
<path style=" stroke:none;fill-rule:nonzero;fill:rgb(0%,0%,0%);fill-opacity:1;" d="M 13.566406 49.871094 C 13.566406 48.777344 13.332031 47.117188 11.164062 47.117188 C 9.933594 47.117188 9.113281 47.820312 8.683594 48.367188 L 8.683594 42.820312 L 7.355469 42.820312 L 7.355469 55.261719 L 8.703125 55.261719 L 8.703125 50.789062 C 8.703125 49.695312 9.132812 48.191406 10.480469 48.191406 C 12.160156 48.191406 12.199219 49.363281 12.199219 49.988281 L 12.199219 55.261719 L 13.566406 55.261719 Z M 13.566406 49.871094 "/>
<path style=" stroke:none;fill-rule:nonzero;fill:rgb(0%,0%,0%);fill-opacity:1;" d="M 22.273438 51.21875 C 22.273438 50.457031 22.195312 49.363281 21.628906 48.40625 C 20.886719 47.175781 19.636719 47.039062 19.109375 47.039062 C 17.175781 47.039062 15.554688 48.894531 15.554688 51.21875 C 15.554688 53.601562 17.273438 55.4375 19.363281 55.4375 C 20.183594 55.4375 21.179688 55.203125 22.15625 54.5 C 22.15625 54.421875 22.097656 53.855469 22.097656 53.835938 C 22.078125 53.816406 22.058594 53.40625 22.058594 53.347656 C 20.984375 54.246094 19.929688 54.363281 19.402344 54.363281 C 18.015625 54.363281 16.824219 53.132812 16.804688 51.21875 Z M 16.902344 50.261719 C 17.214844 49.050781 18.054688 48.113281 19.109375 48.113281 C 19.675781 48.113281 20.90625 48.367188 21.199219 50.261719 Z M 16.902344 50.261719 "/>
<path style=" stroke:none;fill-rule:nonzero;fill:rgb(0%,0%,0%);fill-opacity:1;" d="M 35.804688 53.328125 C 34.984375 53.992188 34.066406 54.324219 33.070312 54.324219 C 31.566406 54.324219 30.609375 52.996094 30.609375 51.257812 C 30.609375 49.773438 31.332031 48.152344 33.109375 48.152344 C 34.320312 48.152344 34.828125 48.425781 35.589844 48.953125 L 35.804688 47.78125 C 34.769531 47.175781 34.183594 47.039062 33.109375 47.039062 C 30.648438 47.039062 29.242188 49.226562 29.242188 51.257812 C 29.242188 53.5625 30.902344 55.4375 33.050781 55.4375 C 33.929688 55.4375 34.925781 55.222656 35.921875 54.5 C 35.921875 54.460938 35.863281 53.894531 35.84375 53.835938 Z M 35.804688 53.328125 "/>
<path style=" stroke:none;fill-rule:nonzero;fill:rgb(0%,0%,0%);fill-opacity:1;" d="M 44.640625 51.316406 C 44.640625 48.894531 42.863281 47.039062 40.8125 47.039062 C 38.703125 47.039062 36.964844 48.933594 36.964844 51.316406 C 36.964844 53.660156 38.742188 55.4375 40.792969 55.4375 C 42.902344 55.4375 44.640625 53.621094 44.640625 51.316406 Z M 40.8125 54.324219 C 39.523438 54.324219 38.3125 53.25 38.3125 51.140625 C 38.3125 48.972656 39.660156 48.113281 40.792969 48.113281 C 42.023438 48.113281 43.292969 49.03125 43.292969 51.140625 C 43.292969 53.347656 42.003906 54.324219 40.8125 54.324219 Z M 40.8125 54.324219 "/>
<path style=" stroke:none;fill-rule:nonzero;fill:rgb(0%,0%,0%);fill-opacity:1;" d="M 47.550781 51.335938 C 47.550781 49.519531 48.898438 48.347656 50.519531 48.328125 L 50.519531 47.117188 C 48.878906 47.136719 47.941406 48.09375 47.453125 48.796875 L 47.453125 47.214844 L 46.222656 47.214844 L 46.222656 55.261719 L 47.550781 55.261719 Z M 47.550781 51.335938 "/>
<path style=" stroke:none;fill-rule:nonzero;fill:rgb(0%,0%,0%);fill-opacity:1;" d="M 53.550781 51.335938 C 53.550781 49.519531 54.898438 48.347656 56.519531 48.328125 L 56.519531 47.117188 C 54.878906 47.136719 53.941406 48.09375 53.453125 48.796875 L 53.453125 47.214844 L 52.222656 47.214844 L 52.222656 55.261719 L 53.550781 55.261719 Z M 53.550781 51.335938 "/>
<path style=" stroke:none;fill-rule:nonzero;fill:rgb(0%,0%,0%);fill-opacity:1;" d="M 64.121094 51.21875 C 64.121094 50.457031 64.042969 49.363281 63.476562 48.40625 C 62.734375 47.175781 61.484375 47.039062 60.957031 47.039062 C 59.023438 47.039062 57.402344 48.894531 57.402344 51.21875 C 57.402344 53.601562 59.121094 55.4375 61.210938 55.4375 C 62.03125 55.4375 63.027344 55.203125 64.003906 54.5 C 64.003906 54.421875 63.945312 53.855469 63.945312 53.835938 C 63.925781 53.816406 63.90625 53.40625 63.90625 53.347656 C 62.832031 54.246094 61.777344 54.363281 61.25 54.363281 C 59.863281 54.363281 58.671875 53.132812 58.652344 51.21875 Z M 58.75 50.261719 C 59.0625 49.050781 59.902344 48.113281 60.957031 48.113281 C 61.523438 48.113281 62.753906 48.367188 63.046875 50.261719 Z M 58.75 50.261719 "/>
<path style=" stroke:none;fill-rule:nonzero;fill:rgb(0%,0%,0%);fill-opacity:1;" d="M 70.632812 47.585938 C 69.5 47.058594 68.523438 47.039062 68.113281 47.039062 C 67.703125 47.039062 65.203125 47.039062 65.203125 49.363281 C 65.203125 50.144531 65.632812 50.691406 65.90625 50.945312 C 66.550781 51.492188 67 51.589844 68.054688 51.804688 C 68.660156 51.921875 69.695312 52.136719 69.695312 53.09375 C 69.695312 54.324219 68.289062 54.324219 68.035156 54.324219 C 67.332031 54.324219 66.277344 54.128906 65.320312 53.425781 L 65.105469 54.65625 C 65.183594 54.714844 66.414062 55.4375 68.054688 55.4375 C 70.378906 55.4375 70.925781 54.050781 70.925781 52.976562 C 70.925781 52.078125 70.378906 51.492188 70.300781 51.414062 C 69.636719 50.730469 69.089844 50.613281 68.015625 50.398438 C 67.351562 50.28125 66.453125 50.105469 66.453125 49.207031 C 66.453125 48.09375 67.703125 48.09375 67.9375 48.09375 C 68.875 48.09375 69.636719 48.308594 70.417969 48.757812 Z M 70.632812 47.585938 "/>
<path style=" stroke:none;fill-rule:nonzero;fill:rgb(0%,0%,0%);fill-opacity:1;" d="M 74.121094 54.460938 C 74.746094 55.007812 75.488281 55.4375 76.464844 55.4375 C 78.183594 55.4375 79.726562 53.699219 79.726562 51.257812 C 79.726562 49.089844 78.574219 47.117188 76.914062 47.117188 C 76.171875 47.117188 75.019531 47.351562 74.101562 48.152344 L 74.101562 47.292969 L 72.773438 47.292969 L 72.773438 58.738281 L 74.121094 58.738281 Z M 74.121094 49.246094 C 74.53125 48.621094 75.214844 48.230469 75.957031 48.230469 C 77.285156 48.230469 78.359375 49.578125 78.359375 51.277344 C 78.359375 53.074219 77.128906 54.363281 75.800781 54.363281 C 75.292969 54.363281 74.960938 54.1875 74.628906 53.933594 C 74.179688 53.542969 74.121094 53.210938 74.121094 52.9375 Z M 74.121094 49.246094 "/>
<path style=" stroke:none;fill-rule:nonzero;fill:rgb(0%,0%,0%);fill-opacity:1;" d="M 89.039062 51.316406 C 89.039062 48.894531 87.261719 47.039062 85.210938 47.039062 C 83.101562 47.039062 81.363281 48.933594 81.363281 51.316406 C 81.363281 53.660156 83.140625 55.4375 85.191406 55.4375 C 87.300781 55.4375 89.039062 53.621094 89.039062 51.316406 Z M 85.210938 54.324219 C 83.921875 54.324219 82.710938 53.25 82.710938 51.140625 C 82.710938 48.972656 84.058594 48.113281 85.191406 48.113281 C 86.421875 48.113281 87.691406 49.03125 87.691406 51.140625 C 87.691406 53.347656 86.402344 54.324219 85.210938 54.324219 Z M 85.210938 54.324219 "/>
<path style=" stroke:none;fill-rule:nonzero;fill:rgb(0%,0%,0%);fill-opacity:1;" d="M 97.265625 49.871094 C 97.265625 48.777344 97.03125 47.117188 94.863281 47.117188 C 93.867188 47.117188 93.007812 47.566406 92.324219 48.425781 L 92.324219 47.214844 L 91.054688 47.214844 L 91.054688 55.261719 L 92.402344 55.261719 L 92.402344 50.789062 C 92.402344 49.695312 92.832031 48.191406 94.179688 48.191406 C 95.859375 48.191406 95.898438 49.363281 95.898438 49.988281 L 95.898438 55.261719 L 97.265625 55.261719 Z M 97.265625 49.871094 "/>
<path style=" stroke:none;fill-rule:nonzero;fill:rgb(0%,0%,0%);fill-opacity:1;" d="M 106.246094 42.820312 L 104.917969 42.820312 L 104.917969 48.054688 C 104.097656 47.371094 103.160156 47.117188 102.398438 47.117188 C 100.699219 47.117188 99.292969 48.953125 99.292969 51.277344 C 99.292969 53.601562 100.621094 55.4375 102.320312 55.4375 C 102.984375 55.4375 104 55.222656 104.898438 54.34375 L 104.898438 55.261719 L 106.246094 55.261719 Z M 104.898438 53.152344 C 104.46875 53.914062 103.824219 54.363281 103.042969 54.363281 C 101.949219 54.363281 100.660156 53.523438 100.660156 51.296875 C 100.660156 48.914062 102.183594 48.191406 103.21875 48.191406 C 103.921875 48.191406 104.488281 48.5625 104.898438 49.148438 Z M 104.898438 53.152344 "/>
<path style=" stroke:none;fill-rule:nonzero;fill:rgb(0%,0%,0%);fill-opacity:1;" d="M 110.5 43.09375 L 108.957031 43.09375 L 108.957031 44.636719 L 110.5 44.636719 Z M 110.402344 47.292969 L 109.074219 47.292969 L 109.074219 55.261719 L 110.402344 55.261719 Z M 110.402344 47.292969 "/>
<path style=" stroke:none;fill-rule:nonzero;fill:rgb(0%,0%,0%);fill-opacity:1;" d="M 119.464844 49.871094 C 119.464844 48.777344 119.230469 47.117188 117.0625 47.117188 C 116.066406 47.117188 115.207031 47.566406 114.523438 48.425781 L 114.523438 47.214844 L 113.253906 47.214844 L 113.253906 55.261719 L 114.601562 55.261719 L 114.601562 50.789062 C 114.601562 49.695312 115.03125 48.191406 116.378906 48.191406 C 118.058594 48.191406 118.097656 49.363281 118.097656 49.988281 L 118.097656 55.261719 L 119.464844 55.261719 Z M 119.464844 49.871094 "/>
<path style=" stroke:none;fill-rule:nonzero;fill:rgb(0%,0%,0%);fill-opacity:1;" d="M 126.980469 48.191406 C 126.980469 48.191406 127.019531 48.230469 127.039062 48.269531 C 127.410156 48.230469 127.800781 48.171875 128.464844 48.171875 C 128.523438 48.171875 128.933594 48.171875 129.382812 48.210938 L 129.1875 47.117188 C 128.855469 47.117188 127.625 47.136719 126.433594 47.722656 C 125.847656 47.214844 125.125 47.117188 124.773438 47.117188 C 123.210938 47.117188 121.960938 48.425781 121.960938 50.007812 C 121.960938 50.652344 122.15625 51.238281 122.546875 51.785156 C 122.136719 52.351562 122.039062 52.898438 122.039062 53.328125 C 122.039062 53.992188 122.292969 54.441406 122.488281 54.675781 C 121.570312 55.261719 121.355469 56.023438 121.355469 56.53125 C 121.355469 57.839844 123.054688 58.933594 125.242188 58.933594 C 127.429688 58.933594 129.148438 57.878906 129.148438 56.511719 C 129.148438 54.011719 126.238281 54.011719 125.515625 54.011719 L 123.992188 54.011719 C 123.738281 54.011719 122.957031 54.011719 122.957031 53.054688 C 122.957031 52.664062 123.035156 52.546875 123.152344 52.390625 C 123.445312 52.605469 124.03125 52.917969 124.753906 52.917969 C 126.296875 52.917969 127.566406 51.648438 127.566406 50.007812 C 127.566406 49.363281 127.332031 48.699219 126.960938 48.210938 Z M 124.773438 51.921875 C 123.992188 51.921875 123.191406 51.394531 123.191406 50.027344 C 123.191406 48.425781 124.207031 48.113281 124.753906 48.113281 C 125.554688 48.113281 126.335938 48.640625 126.335938 50.007812 C 126.335938 51.609375 125.339844 51.921875 124.773438 51.921875 Z M 125.535156 55.300781 C 125.925781 55.300781 127.898438 55.300781 127.898438 56.53125 C 127.898438 57.351562 126.667969 57.957031 125.261719 57.957031 C 123.855469 57.957031 122.605469 57.390625 122.605469 56.511719 C 122.605469 56.472656 122.605469 55.300781 123.972656 55.300781 Z M 125.535156 55.300781 "/>
<path style=" stroke:none;fill-rule:nonzero;fill:rgb(0%,0%,0%);fill-opacity:1;" d="M 142.546875 42.820312 L 141.21875 42.820312 L 141.21875 48.054688 C 140.398438 47.371094 139.460938 47.117188 138.699219 47.117188 C 137 47.117188 135.59375 48.953125 135.59375 51.277344 C 135.59375 53.601562 136.921875 55.4375 138.621094 55.4375 C 139.285156 55.4375 140.300781 55.222656 141.199219 54.34375 L 141.199219 55.261719 L 142.546875 55.261719 Z M 141.199219 53.152344 C 140.769531 53.914062 140.125 54.363281 139.34375 54.363281 C 138.25 54.363281 136.960938 53.523438 136.960938 51.296875 C 136.960938 48.914062 138.484375 48.191406 139.519531 48.191406 C 140.222656 48.191406 140.789062 48.5625 141.199219 49.148438 Z M 141.199219 53.152344 "/>
<path style=" stroke:none;fill-rule:nonzero;fill:rgb(0%,0%,0%);fill-opacity:1;" d="M 151.273438 51.21875 C 151.273438 50.457031 151.195312 49.363281 150.628906 48.40625 C 149.886719 47.175781 148.636719 47.039062 148.109375 47.039062 C 146.175781 47.039062 144.554688 48.894531 144.554688 51.21875 C 144.554688 53.601562 146.273438 55.4375 148.363281 55.4375 C 149.183594 55.4375 150.179688 55.203125 151.15625 54.5 C 151.15625 54.421875 151.097656 53.855469 151.097656 53.835938 C 151.078125 53.816406 151.058594 53.40625 151.058594 53.347656 C 149.984375 54.246094 148.929688 54.363281 148.402344 54.363281 C 147.015625 54.363281 145.824219 53.132812 145.804688 51.21875 Z M 145.902344 50.261719 C 146.214844 49.050781 147.054688 48.113281 148.109375 48.113281 C 148.675781 48.113281 149.90625 48.367188 150.199219 50.261719 Z M 145.902344 50.261719 "/>
<path style=" stroke:none;fill-rule:nonzero;fill:rgb(0%,0%,0%);fill-opacity:1;" d="M 154.503906 51.335938 C 154.503906 49.519531 155.851562 48.347656 157.472656 48.328125 L 157.472656 47.117188 C 155.832031 47.136719 154.894531 48.09375 154.40625 48.796875 L 154.40625 47.214844 L 153.175781 47.214844 L 153.175781 55.261719 L 154.503906 55.261719 Z M 154.503906 51.335938 "/>
<path style=" stroke:none;fill-rule:nonzero;fill:rgb(0%,0%,0%);fill-opacity:1;" d="M 160.601562 43.09375 L 159.058594 43.09375 L 159.058594 44.636719 L 160.601562 44.636719 Z M 160.503906 47.292969 L 159.175781 47.292969 L 159.175781 55.261719 L 160.503906 55.261719 Z M 160.503906 47.292969 "/>
<path style=" stroke:none;fill-rule:nonzero;fill:rgb(0%,0%,0%);fill-opacity:1;" d="M 169.722656 47.292969 L 168.394531 47.292969 L 167.085938 50.867188 C 166.773438 51.726562 166.109375 53.621094 166.011719 54.285156 L 165.992188 54.285156 C 165.894531 53.660156 165.542969 52.683594 165.269531 51.902344 L 163.609375 47.292969 L 162.222656 47.292969 L 165.171875 55.261719 L 166.773438 55.261719 Z M 169.722656 47.292969 "/>
<path style=" stroke:none;fill-rule:nonzero;fill:rgb(0%,0%,0%);fill-opacity:1;" d="M 177.078125 50.007812 C 177.078125 48.289062 175.847656 47.039062 174.167969 47.039062 C 173.09375 47.039062 172.292969 47.273438 171.414062 47.78125 L 171.511719 48.972656 C 172.3125 48.386719 173.132812 48.074219 174.167969 48.074219 C 174.988281 48.074219 175.710938 48.738281 175.710938 50.046875 L 175.710938 50.789062 C 174.910156 50.808594 173.835938 50.867188 172.761719 51.21875 C 171.550781 51.648438 170.847656 52.3125 170.847656 53.191406 C 170.847656 53.992188 171.316406 55.4375 172.839844 55.4375 C 173.835938 55.4375 175.085938 55.144531 175.75 54.597656 L 175.75 55.261719 L 177.078125 55.261719 Z M 175.710938 52.859375 C 175.710938 53.210938 175.710938 53.640625 175.125 54.011719 C 174.636719 54.304688 174.03125 54.363281 173.757812 54.363281 C 172.800781 54.363281 172.136719 53.835938 172.136719 53.191406 C 172.136719 51.960938 174.617188 51.6875 175.710938 51.6875 Z M 175.710938 52.859375 "/>
<path style=" stroke:none;fill-rule:nonzero;fill:rgb(0%,0%,0%);fill-opacity:1;" d="M 181.535156 48.347656 L 184.015625 48.347656 L 184.015625 47.292969 L 181.535156 47.292969 L 181.535156 45.027344 L 180.304688 45.027344 L 180.304688 47.292969 L 178.800781 47.292969 L 178.800781 48.347656 L 180.265625 48.347656 L 180.265625 53.171875 C 180.265625 54.207031 180.5 55.4375 181.730469 55.4375 C 182.941406 55.4375 183.761719 55.027344 184.308594 54.734375 L 184.035156 53.699219 C 183.410156 54.265625 182.746094 54.324219 182.433594 54.324219 C 181.632812 54.324219 181.535156 53.484375 181.535156 52.859375 Z M 181.535156 48.347656 "/>
<path style=" stroke:none;fill-rule:nonzero;fill:rgb(0%,0%,0%);fill-opacity:1;" d="M 187.601562 43.09375 L 186.058594 43.09375 L 186.058594 44.636719 L 187.601562 44.636719 Z M 187.503906 47.292969 L 186.175781 47.292969 L 186.175781 55.261719 L 187.503906 55.261719 Z M 187.503906 47.292969 "/>
<path style=" stroke:none;fill-rule:nonzero;fill:rgb(0%,0%,0%);fill-opacity:1;" d="M 196.722656 47.292969 L 195.394531 47.292969 L 194.085938 50.867188 C 193.773438 51.726562 193.109375 53.621094 193.011719 54.285156 L 192.992188 54.285156 C 192.894531 53.660156 192.542969 52.683594 192.269531 51.902344 L 190.609375 47.292969 L 189.222656 47.292969 L 192.171875 55.261719 L 193.773438 55.261719 Z M 196.722656 47.292969 "/>
<path style=" stroke:none;fill-rule:nonzero;fill:rgb(0%,0%,0%);fill-opacity:1;" d="M 204.371094 51.21875 C 204.371094 50.457031 204.292969 49.363281 203.726562 48.40625 C 202.984375 47.175781 201.734375 47.039062 201.207031 47.039062 C 199.273438 47.039062 197.652344 48.894531 197.652344 51.21875 C 197.652344 53.601562 199.371094 55.4375 201.460938 55.4375 C 202.28125 55.4375 203.277344 55.203125 204.253906 54.5 C 204.253906 54.421875 204.195312 53.855469 204.195312 53.835938 C 204.175781 53.816406 204.15625 53.40625 204.15625 53.347656 C 203.082031 54.246094 202.027344 54.363281 201.5 54.363281 C 200.113281 54.363281 198.921875 53.132812 198.902344 51.21875 Z M 199 50.261719 C 199.3125 49.050781 200.152344 48.113281 201.207031 48.113281 C 201.773438 48.113281 203.003906 48.367188 203.296875 50.261719 Z M 199 50.261719 "/>
<path style=" stroke:none;fill-rule:nonzero;fill:rgb(0%,0%,0%);fill-opacity:1;" d="M 208.03125 53.816406 L 206.566406 53.816406 L 206.566406 55.261719 L 208.03125 55.261719 Z M 208.03125 53.816406 "/>
<path style=" stroke:none;fill-rule:nonzero;fill:rgb(0%,0%,0%);fill-opacity:1;" d="M 226.28125 49.34375 L 226.28125 48.269531 L 220.480469 48.269531 L 220.480469 43.972656 L 222.902344 43.972656 C 223.117188 43.972656 223.332031 43.992188 223.546875 43.992188 L 226.789062 43.992188 L 226.789062 42.859375 L 218.9375 42.859375 L 218.9375 55.261719 L 227.023438 55.261719 L 227.023438 54.050781 L 224.660156 54.050781 C 224.445312 54.050781 224.230469 54.050781 224.015625 54.050781 L 220.480469 54.050781 L 220.480469 49.34375 Z M 226.28125 49.34375 "/>
<path style=" stroke:none;fill-rule:nonzero;fill:rgb(0%,0%,0%);fill-opacity:1;" d="M 234.828125 50.007812 C 234.828125 48.289062 233.597656 47.039062 231.917969 47.039062 C 230.84375 47.039062 230.042969 47.273438 229.164062 47.78125 L 229.261719 48.972656 C 230.0625 48.386719 230.882812 48.074219 231.917969 48.074219 C 232.738281 48.074219 233.460938 48.738281 233.460938 50.046875 L 233.460938 50.789062 C 232.660156 50.808594 231.585938 50.867188 230.511719 51.21875 C 229.300781 51.648438 228.597656 52.3125 228.597656 53.191406 C 228.597656 53.992188 229.066406 55.4375 230.589844 55.4375 C 231.585938 55.4375 232.835938 55.144531 233.5 54.597656 L 233.5 55.261719 L 234.828125 55.261719 Z M 233.460938 52.859375 C 233.460938 53.210938 233.460938 53.640625 232.875 54.011719 C 232.386719 54.304688 231.78125 54.363281 231.507812 54.363281 C 230.550781 54.363281 229.886719 53.835938 229.886719 53.191406 C 229.886719 51.960938 232.367188 51.6875 233.460938 51.6875 Z M 233.460938 52.859375 "/>
<path style=" stroke:none;fill-rule:nonzero;fill:rgb(0%,0%,0%);fill-opacity:1;" d="M 242.234375 47.585938 C 241.101562 47.058594 240.125 47.039062 239.714844 47.039062 C 239.304688 47.039062 236.804688 47.039062 236.804688 49.363281 C 236.804688 50.144531 237.234375 50.691406 237.507812 50.945312 C 238.152344 51.492188 238.601562 51.589844 239.65625 51.804688 C 240.261719 51.921875 241.296875 52.136719 241.296875 53.09375 C 241.296875 54.324219 239.890625 54.324219 239.636719 54.324219 C 238.933594 54.324219 237.878906 54.128906 236.921875 53.425781 L 236.707031 54.65625 C 236.785156 54.714844 238.015625 55.4375 239.65625 55.4375 C 241.980469 55.4375 242.527344 54.050781 242.527344 52.976562 C 242.527344 52.078125 241.980469 51.492188 241.902344 51.414062 C 241.238281 50.730469 240.691406 50.613281 239.617188 50.398438 C 238.953125 50.28125 238.054688 50.105469 238.054688 49.207031 C 238.054688 48.09375 239.304688 48.09375 239.539062 48.09375 C 240.476562 48.09375 241.238281 48.308594 242.019531 48.757812 Z M 242.234375 47.585938 "/>
<path style=" stroke:none;fill-rule:nonzero;fill:rgb(0%,0%,0%);fill-opacity:1;" d="M 247.832031 51.804688 L 247.832031 50.769531 L 243.164062 50.769531 L 243.164062 51.804688 Z M 247.832031 51.804688 "/>
<path style=" stroke:none;fill-rule:nonzero;fill:rgb(0%,0%,0%);fill-opacity:1;" d="M 2.5 64.246094 L 0.957031 64.246094 L 0.957031 65.789062 L 2.5 65.789062 Z M 2.402344 68.445312 L 1.074219 68.445312 L 1.074219 76.414062 L 2.402344 76.414062 Z M 2.402344 68.445312 "/>
<path style=" stroke:none;fill-rule:nonzero;fill:rgb(0%,0%,0%);fill-opacity:1;" d="M 11.171875 72.371094 C 11.171875 71.609375 11.09375 70.515625 10.527344 69.558594 C 9.785156 68.328125 8.535156 68.191406 8.007812 68.191406 C 6.074219 68.191406 4.453125 70.046875 4.453125 72.371094 C 4.453125 74.753906 6.171875 76.589844 8.261719 76.589844 C 9.082031 76.589844 10.078125 76.355469 11.054688 75.652344 C 11.054688 75.574219 10.996094 75.007812 10.996094 74.988281 C 10.976562 74.96875 10.957031 74.558594 10.957031 74.5 C 9.882812 75.398438 8.828125 75.515625 8.300781 75.515625 C 6.914062 75.515625 5.722656 74.285156 5.703125 72.371094 Z M 5.800781 71.414062 C 6.113281 70.203125 6.953125 69.265625 8.007812 69.265625 C 8.574219 69.265625 9.804688 69.519531 10.097656 71.414062 Z M 5.800781 71.414062 "/>
<path style=" stroke:none;fill-rule:nonzero;fill:rgb(0%,0%,0%);fill-opacity:1;" d="M 17.683594 68.738281 C 16.550781 68.210938 15.574219 68.191406 15.164062 68.191406 C 14.753906 68.191406 12.253906 68.191406 12.253906 70.515625 C 12.253906 71.296875 12.683594 71.84375 12.957031 72.097656 C 13.601562 72.644531 14.050781 72.742188 15.105469 72.957031 C 15.710938 73.074219 16.746094 73.289062 16.746094 74.246094 C 16.746094 75.476562 15.339844 75.476562 15.085938 75.476562 C 14.382812 75.476562 13.328125 75.28125 12.371094 74.578125 L 12.15625 75.808594 C 12.234375 75.867188 13.464844 76.589844 15.105469 76.589844 C 17.429688 76.589844 17.976562 75.203125 17.976562 74.128906 C 17.976562 73.230469 17.429688 72.644531 17.351562 72.566406 C 16.6875 71.882812 16.140625 71.765625 15.066406 71.550781 C 14.402344 71.433594 13.503906 71.257812 13.503906 70.359375 C 13.503906 69.246094 14.753906 69.246094 14.988281 69.246094 C 15.925781 69.246094 16.6875 69.460938 17.46875 69.910156 Z M 17.683594 68.738281 "/>
<path style=" stroke:none;fill-rule:nonzero;fill:rgb(0%,0%,0%);fill-opacity:1;" d="M 21.484375 69.5 L 23.964844 69.5 L 23.964844 68.445312 L 21.484375 68.445312 L 21.484375 66.179688 L 20.253906 66.179688 L 20.253906 68.445312 L 18.75 68.445312 L 18.75 69.5 L 20.214844 69.5 L 20.214844 74.324219 C 20.214844 75.359375 20.449219 76.589844 21.679688 76.589844 C 22.890625 76.589844 23.710938 76.179688 24.257812 75.886719 L 23.984375 74.851562 C 23.359375 75.417969 22.695312 75.476562 22.382812 75.476562 C 21.582031 75.476562 21.484375 74.636719 21.484375 74.011719 Z M 21.484375 69.5 "/>
<path style=" stroke:none;fill-rule:nonzero;fill:rgb(0%,0%,0%);fill-opacity:1;" d="M 33.632812 69.5 L 36.113281 69.5 L 36.113281 68.445312 L 33.632812 68.445312 L 33.632812 66.179688 L 32.402344 66.179688 L 32.402344 68.445312 L 30.898438 68.445312 L 30.898438 69.5 L 32.363281 69.5 L 32.363281 74.324219 C 32.363281 75.359375 32.597656 76.589844 33.828125 76.589844 C 35.039062 76.589844 35.859375 76.179688 36.40625 75.886719 L 36.132812 74.851562 C 35.507812 75.417969 34.84375 75.476562 34.53125 75.476562 C 33.730469 75.476562 33.632812 74.636719 33.632812 74.011719 Z M 33.632812 69.5 "/>
<path style=" stroke:none;fill-rule:nonzero;fill:rgb(0%,0%,0%);fill-opacity:1;" d="M 45.089844 72.46875 C 45.089844 70.046875 43.3125 68.191406 41.261719 68.191406 C 39.152344 68.191406 37.414062 70.085938 37.414062 72.46875 C 37.414062 74.8125 39.191406 76.589844 41.242188 76.589844 C 43.351562 76.589844 45.089844 74.773438 45.089844 72.46875 Z M 41.261719 75.476562 C 39.972656 75.476562 38.761719 74.402344 38.761719 72.292969 C 38.761719 70.125 40.109375 69.265625 41.242188 69.265625 C 42.472656 69.265625 43.742188 70.183594 43.742188 72.292969 C 43.742188 74.5 42.453125 75.476562 41.261719 75.476562 Z M 41.261719 75.476562 "/>
<path style=" stroke:none;fill-rule:nonzero;fill:rgb(0%,0%,0%);fill-opacity:1;" d="M 54.300781 72.488281 C 54.300781 70.671875 55.648438 69.5 57.269531 69.480469 L 57.269531 68.269531 C 55.628906 68.289062 54.691406 69.246094 54.203125 69.949219 L 54.203125 68.367188 L 52.972656 68.367188 L 52.972656 76.414062 L 54.300781 76.414062 Z M 54.300781 72.488281 "/>
<path style=" stroke:none;fill-rule:nonzero;fill:rgb(0%,0%,0%);fill-opacity:1;" d="M 64.871094 72.371094 C 64.871094 71.609375 64.792969 70.515625 64.226562 69.558594 C 63.484375 68.328125 62.234375 68.191406 61.707031 68.191406 C 59.773438 68.191406 58.152344 70.046875 58.152344 72.371094 C 58.152344 74.753906 59.871094 76.589844 61.960938 76.589844 C 62.78125 76.589844 63.777344 76.355469 64.753906 75.652344 C 64.753906 75.574219 64.695312 75.007812 64.695312 74.988281 C 64.675781 74.96875 64.65625 74.558594 64.65625 74.5 C 63.582031 75.398438 62.527344 75.515625 62 75.515625 C 60.613281 75.515625 59.421875 74.285156 59.402344 72.371094 Z M 59.5 71.414062 C 59.8125 70.203125 60.652344 69.265625 61.707031 69.265625 C 62.273438 69.265625 63.503906 69.519531 63.796875 71.414062 Z M 59.5 71.414062 "/>
<path style=" stroke:none;fill-rule:nonzero;fill:rgb(0%,0%,0%);fill-opacity:1;" d="M 77.867188 71.023438 C 77.867188 69.773438 77.535156 68.269531 75.445312 68.269531 C 73.921875 68.269531 73.082031 69.324219 72.808594 69.734375 C 72.476562 68.601562 71.5 68.269531 70.5625 68.269531 C 69.097656 68.269531 68.316406 69.226562 68.023438 69.597656 L 68.023438 68.367188 L 66.753906 68.367188 L 66.753906 76.414062 L 68.101562 76.414062 L 68.101562 71.941406 C 68.101562 70.769531 68.570312 69.34375 69.878906 69.34375 C 71.539062 69.34375 71.617188 70.476562 71.617188 71.140625 L 71.617188 76.414062 L 72.984375 76.414062 L 72.984375 71.941406 C 72.984375 70.769531 73.453125 69.34375 74.761719 69.34375 C 76.402344 69.34375 76.5 70.476562 76.5 71.140625 L 76.5 76.414062 L 77.867188 76.414062 Z M 77.867188 71.023438 "/>
<path style=" stroke:none;fill-rule:nonzero;fill:rgb(0%,0%,0%);fill-opacity:1;" d="M 86.621094 72.371094 C 86.621094 71.609375 86.542969 70.515625 85.976562 69.558594 C 85.234375 68.328125 83.984375 68.191406 83.457031 68.191406 C 81.523438 68.191406 79.902344 70.046875 79.902344 72.371094 C 79.902344 74.753906 81.621094 76.589844 83.710938 76.589844 C 84.53125 76.589844 85.527344 76.355469 86.503906 75.652344 C 86.503906 75.574219 86.445312 75.007812 86.445312 74.988281 C 86.425781 74.96875 86.40625 74.558594 86.40625 74.5 C 85.332031 75.398438 84.277344 75.515625 83.75 75.515625 C 82.363281 75.515625 81.171875 74.285156 81.152344 72.371094 Z M 81.25 71.414062 C 81.5625 70.203125 82.402344 69.265625 83.457031 69.265625 C 84.023438 69.265625 85.253906 69.519531 85.546875 71.414062 Z M 81.25 71.414062 "/>
<path style=" stroke:none;fill-rule:nonzero;fill:rgb(0%,0%,0%);fill-opacity:1;" d="M 99.617188 71.023438 C 99.617188 69.773438 99.285156 68.269531 97.195312 68.269531 C 95.671875 68.269531 94.832031 69.324219 94.558594 69.734375 C 94.226562 68.601562 93.25 68.269531 92.3125 68.269531 C 90.847656 68.269531 90.066406 69.226562 89.773438 69.597656 L 89.773438 68.367188 L 88.503906 68.367188 L 88.503906 76.414062 L 89.851562 76.414062 L 89.851562 71.941406 C 89.851562 70.769531 90.320312 69.34375 91.628906 69.34375 C 93.289062 69.34375 93.367188 70.476562 93.367188 71.140625 L 93.367188 76.414062 L 94.734375 76.414062 L 94.734375 71.941406 C 94.734375 70.769531 95.203125 69.34375 96.511719 69.34375 C 98.152344 69.34375 98.25 70.476562 98.25 71.140625 L 98.25 76.414062 L 99.617188 76.414062 Z M 99.617188 71.023438 "/>
<path style=" stroke:none;fill-rule:nonzero;fill:rgb(0%,0%,0%);fill-opacity:1;" d="M 103.800781 63.972656 L 102.472656 63.972656 L 102.472656 76.414062 L 103.820312 76.414062 L 103.820312 75.613281 C 104.660156 76.394531 105.539062 76.589844 106.164062 76.589844 C 107.863281 76.589844 109.425781 74.851562 109.425781 72.410156 C 109.425781 70.203125 108.234375 68.269531 106.574219 68.269531 C 106.046875 68.269531 104.894531 68.386719 103.800781 69.285156 Z M 103.820312 70.378906 C 104.152344 69.871094 104.796875 69.34375 105.675781 69.34375 C 106.769531 69.34375 108.058594 70.183594 108.058594 72.410156 C 108.058594 74.753906 106.59375 75.515625 105.5 75.515625 C 104.992188 75.515625 104.660156 75.339844 104.328125 75.085938 C 103.898438 74.714844 103.820312 74.382812 103.820312 74.089844 Z M 103.820312 70.378906 "/>
<path style=" stroke:none;fill-rule:nonzero;fill:rgb(0%,0%,0%);fill-opacity:1;" d="M 117.824219 72.371094 C 117.824219 71.609375 117.746094 70.515625 117.179688 69.558594 C 116.4375 68.328125 115.1875 68.191406 114.660156 68.191406 C 112.726562 68.191406 111.105469 70.046875 111.105469 72.371094 C 111.105469 74.753906 112.824219 76.589844 114.914062 76.589844 C 115.734375 76.589844 116.730469 76.355469 117.707031 75.652344 C 117.707031 75.574219 117.648438 75.007812 117.648438 74.988281 C 117.628906 74.96875 117.609375 74.558594 117.609375 74.5 C 116.535156 75.398438 115.480469 75.515625 114.953125 75.515625 C 113.566406 75.515625 112.375 74.285156 112.355469 72.371094 Z M 112.453125 71.414062 C 112.765625 70.203125 113.605469 69.265625 114.660156 69.265625 C 115.226562 69.265625 116.457031 69.519531 116.75 71.414062 Z M 112.453125 71.414062 "/>
<path style=" stroke:none;fill-rule:nonzero;fill:rgb(0%,0%,0%);fill-opacity:1;" d="M 121.050781 72.488281 C 121.050781 70.671875 122.398438 69.5 124.019531 69.480469 L 124.019531 68.269531 C 122.378906 68.289062 121.441406 69.246094 120.953125 69.949219 L 120.953125 68.367188 L 119.722656 68.367188 L 119.722656 76.414062 L 121.050781 76.414062 Z M 121.050781 72.488281 "/>
</g>
</svg>
