<?xml version="1.0" encoding="UTF-8"?>
<svg xmlns="http://www.w3.org/2000/svg" xmlns:xlink="http://www.w3.org/1999/xlink" width="247.68082pt" height="58.563032pt" viewBox="0 0 247.68082 58.563032" version="1.1">
<g id="surface1">
<path style=" stroke:none;fill-rule:nonzero;fill:rgb(0%,0%,100%);fill-opacity:1;" d="M 6.972656 6.601562 C 8.925781 6.035156 9.980469 4.6875 9.980469 3.359375 C 9.980469 1.5625 8.066406 0 5.527344 0 L 1.308594 0 L 1.308594 12.441406 L 2.8125 12.441406 L 2.8125 6.757812 L 5.605469 6.757812 L 8.925781 12.441406 L 10.46875 12.441406 Z M 2.8125 5.683594 L 2.8125 0.996094 L 5.332031 0.996094 C 7.5 0.996094 8.554688 2.148438 8.554688 3.359375 C 8.554688 4.453125 7.597656 5.683594 5.332031 5.683594 Z M 2.8125 5.683594 "/>
<path style=" stroke:none;fill-rule:nonzero;fill:rgb(0%,0%,100%);fill-opacity:1;" d="M 18.222656 8.398438 C 18.222656 7.636719 18.144531 6.542969 17.578125 5.585938 C 16.835938 4.355469 15.585938 4.21875 15.058594 4.21875 C 13.125 4.21875 11.503906 6.074219 11.503906 8.398438 C 11.503906 10.78125 13.222656 12.617188 15.3125 12.617188 C 16.132812 12.617188 17.128906 12.382812 18.105469 11.679688 C 18.105469 11.601562 18.046875 11.035156 18.046875 11.015625 C 18.027344 10.996094 18.007812 10.585938 18.007812 10.527344 C 16.933594 11.425781 15.878906 11.542969 15.351562 11.542969 C 13.964844 11.542969 12.773438 10.3125 12.753906 8.398438 Z M 12.851562 7.441406 C 13.164062 6.230469 14.003906 5.292969 15.058594 5.292969 C 15.625 5.292969 16.855469 5.546875 17.148438 7.441406 Z M 12.851562 7.441406 "/>
<path style=" stroke:none;fill-rule:nonzero;fill:rgb(0%,0%,100%);fill-opacity:1;" d="M 25.90625 10.507812 C 25.085938 11.171875 24.167969 11.503906 23.171875 11.503906 C 21.667969 11.503906 20.710938 10.175781 20.710938 8.4375 C 20.710938 6.953125 21.433594 5.332031 23.210938 5.332031 C 24.421875 5.332031 24.929688 5.605469 25.691406 6.132812 L 25.90625 4.960938 C 24.871094 4.355469 24.285156 4.21875 23.210938 4.21875 C 20.75 4.21875 19.34375 6.40625 19.34375 8.4375 C 19.34375 10.742188 21.003906 12.617188 23.152344 12.617188 C 24.03125 12.617188 25.027344 12.402344 26.023438 11.679688 C 26.023438 11.640625 25.964844 11.074219 25.945312 11.015625 Z M 25.90625 10.507812 "/>
<path style=" stroke:none;fill-rule:nonzero;fill:rgb(0%,0%,100%);fill-opacity:1;" d="M 34.742188 8.496094 C 34.742188 6.074219 32.964844 4.21875 30.914062 4.21875 C 28.804688 4.21875 27.066406 6.113281 27.066406 8.496094 C 27.066406 10.839844 28.84375 12.617188 30.894531 12.617188 C 33.003906 12.617188 34.742188 10.800781 34.742188 8.496094 Z M 30.914062 11.503906 C 29.625 11.503906 28.414062 10.429688 28.414062 8.320312 C 28.414062 6.152344 29.761719 5.292969 30.894531 5.292969 C 32.125 5.292969 33.394531 6.210938 33.394531 8.320312 C 33.394531 10.527344 32.105469 11.503906 30.914062 11.503906 Z M 30.914062 11.503906 "/>
<path style=" stroke:none;fill-rule:nonzero;fill:rgb(0%,0%,100%);fill-opacity:1;" d="M 41.480469 5.371094 C 41.480469 5.371094 41.519531 5.410156 41.539062 5.449219 C 41.910156 5.410156 42.300781 5.351562 42.964844 5.351562 C 43.023438 5.351562 43.433594 5.351562 43.882812 5.390625 L 43.6875 4.296875 C 43.355469 4.296875 42.125 4.316406 40.933594 4.902344 C 40.347656 4.394531 39.625 4.296875 39.273438 4.296875 C 37.710938 4.296875 36.460938 5.605469 36.460938 7.1875 C 36.460938 7.832031 36.65625 8.417969 37.046875 8.964844 C 36.636719 9.53125 36.539062 10.078125 36.539062 10.507812 C 36.539062 11.171875 36.792969 11.621094 36.988281 11.855469 C 36.070312 12.441406 35.855469 13.203125 35.855469 13.710938 C 35.855469 15.019531 37.554688 16.113281 39.742188 16.113281 C 41.929688 16.113281 43.648438 15.058594 43.648438 13.691406 C 43.648438 11.191406 40.738281 11.191406 40.015625 11.191406 L 38.492188 11.191406 C 38.238281 11.191406 37.457031 11.191406 37.457031 10.234375 C 37.457031 9.84375 37.535156 9.726562 37.652344 9.570312 C 37.945312 9.785156 38.53125 10.097656 39.253906 10.097656 C 40.796875 10.097656 42.066406 8.828125 42.066406 7.1875 C 42.066406 6.542969 41.832031 5.878906 41.460938 5.390625 Z M 39.273438 9.101562 C 38.492188 9.101562 37.691406 8.574219 37.691406 7.207031 C 37.691406 5.605469 38.707031 5.292969 39.253906 5.292969 C 40.054688 5.292969 40.835938 5.820312 40.835938 7.1875 C 40.835938 8.789062 39.839844 9.101562 39.273438 9.101562 Z M 40.035156 12.480469 C 40.425781 12.480469 42.398438 12.480469 42.398438 13.710938 C 42.398438 14.53125 41.167969 15.136719 39.761719 15.136719 C 38.355469 15.136719 37.105469 14.570312 37.105469 13.691406 C 37.105469 13.652344 37.105469 12.480469 38.472656 12.480469 Z M 40.035156 12.480469 "/>
<path style=" stroke:none;fill-rule:nonzero;fill:rgb(0%,0%,100%);fill-opacity:1;" d="M 51.816406 7.050781 C 51.816406 5.957031 51.582031 4.296875 49.414062 4.296875 C 48.417969 4.296875 47.558594 4.746094 46.875 5.605469 L 46.875 4.394531 L 45.605469 4.394531 L 45.605469 12.441406 L 46.953125 12.441406 L 46.953125 7.96875 C 46.953125 6.875 47.382812 5.371094 48.730469 5.371094 C 50.410156 5.371094 50.449219 6.542969 50.449219 7.167969 L 50.449219 12.441406 L 51.816406 12.441406 Z M 51.816406 7.050781 "/>
<path style=" stroke:none;fill-rule:nonzero;fill:rgb(0%,0%,100%);fill-opacity:1;" d="M 56.050781 0.273438 L 54.507812 0.273438 L 54.507812 1.816406 L 56.050781 1.816406 Z M 55.953125 4.472656 L 54.625 4.472656 L 54.625 12.441406 L 55.953125 12.441406 Z M 55.953125 4.472656 "/>
<path style=" stroke:none;fill-rule:nonzero;fill:rgb(0%,0%,100%);fill-opacity:1;" d="M 64.410156 5.175781 L 64.410156 4.472656 L 58.160156 4.472656 L 58.160156 5.546875 L 60.582031 5.546875 C 60.796875 5.546875 61.011719 5.527344 61.226562 5.527344 L 62.574219 5.527344 L 57.90625 11.71875 L 57.90625 12.441406 L 64.46875 12.441406 L 64.46875 11.347656 L 61.890625 11.347656 C 61.675781 11.347656 61.460938 11.367188 61.246094 11.367188 L 59.722656 11.367188 Z M 64.410156 5.175781 "/>
<path style=" stroke:none;fill-rule:nonzero;fill:rgb(0%,0%,100%);fill-opacity:1;" d="M 67.898438 0.273438 L 66.355469 0.273438 L 66.355469 1.816406 L 67.898438 1.816406 Z M 67.800781 4.472656 L 66.472656 4.472656 L 66.472656 12.441406 L 67.800781 12.441406 Z M 67.800781 4.472656 "/>
<path style=" stroke:none;fill-rule:nonzero;fill:rgb(0%,0%,100%);fill-opacity:1;" d="M 76.867188 7.050781 C 76.867188 5.957031 76.632812 4.296875 74.464844 4.296875 C 73.46875 4.296875 72.609375 4.746094 71.925781 5.605469 L 71.925781 4.394531 L 70.65625 4.394531 L 70.65625 12.441406 L 72.003906 12.441406 L 72.003906 7.96875 C 72.003906 6.875 72.433594 5.371094 73.78125 5.371094 C 75.460938 5.371094 75.5 6.542969 75.5 7.167969 L 75.5 12.441406 L 76.867188 12.441406 Z M 76.867188 7.050781 "/>
<path style=" stroke:none;fill-rule:nonzero;fill:rgb(0%,0%,100%);fill-opacity:1;" d="M 84.382812 5.371094 C 84.382812 5.371094 84.421875 5.410156 84.441406 5.449219 C 84.8125 5.410156 85.203125 5.351562 85.867188 5.351562 C 85.925781 5.351562 86.335938 5.351562 86.785156 5.390625 L 86.589844 4.296875 C 86.257812 4.296875 85.027344 4.316406 83.835938 4.902344 C 83.25 4.394531 82.527344 4.296875 82.175781 4.296875 C 80.613281 4.296875 79.363281 5.605469 79.363281 7.1875 C 79.363281 7.832031 79.558594 8.417969 79.949219 8.964844 C 79.539062 9.53125 79.441406 10.078125 79.441406 10.507812 C 79.441406 11.171875 79.695312 11.621094 79.890625 11.855469 C 78.972656 12.441406 78.757812 13.203125 78.757812 13.710938 C 78.757812 15.019531 80.457031 16.113281 82.644531 16.113281 C 84.832031 16.113281 86.550781 15.058594 86.550781 13.691406 C 86.550781 11.191406 83.640625 11.191406 82.917969 11.191406 L 81.394531 11.191406 C 81.140625 11.191406 80.359375 11.191406 80.359375 10.234375 C 80.359375 9.84375 80.4375 9.726562 80.554688 9.570312 C 80.847656 9.785156 81.433594 10.097656 82.15625 10.097656 C 83.699219 10.097656 84.96875 8.828125 84.96875 7.1875 C 84.96875 6.542969 84.734375 5.878906 84.363281 5.390625 Z M 82.175781 9.101562 C 81.394531 9.101562 80.59375 8.574219 80.59375 7.207031 C 80.59375 5.605469 81.609375 5.292969 82.15625 5.292969 C 82.957031 5.292969 83.738281 5.820312 83.738281 7.1875 C 83.738281 8.789062 82.742188 9.101562 82.175781 9.101562 Z M 82.9375 12.480469 C 83.328125 12.480469 85.300781 12.480469 85.300781 13.710938 C 85.300781 14.53125 84.070312 15.136719 82.664062 15.136719 C 81.257812 15.136719 80.007812 14.570312 80.007812 13.691406 C 80.007812 13.652344 80.007812 12.480469 81.375 12.480469 Z M 82.9375 12.480469 "/>
<path style=" stroke:none;fill-rule:nonzero;fill:rgb(0%,0%,100%);fill-opacity:1;" d="M 95.734375 5.527344 L 98.214844 5.527344 L 98.214844 4.472656 L 95.734375 4.472656 L 95.734375 2.207031 L 94.503906 2.207031 L 94.503906 4.472656 L 93 4.472656 L 93 5.527344 L 94.464844 5.527344 L 94.464844 10.351562 C 94.464844 11.386719 94.699219 12.617188 95.929688 12.617188 C 97.140625 12.617188 97.960938 12.207031 98.507812 11.914062 L 98.234375 10.878906 C 97.609375 11.445312 96.945312 11.503906 96.632812 11.503906 C 95.832031 11.503906 95.734375 10.664062 95.734375 10.039062 Z M 95.734375 5.527344 "/>
<path style=" stroke:none;fill-rule:nonzero;fill:rgb(0%,0%,100%);fill-opacity:1;" d="M 106.566406 7.050781 C 106.566406 5.957031 106.332031 4.296875 104.164062 4.296875 C 102.933594 4.296875 102.113281 5 101.683594 5.546875 L 101.683594 0 L 100.355469 0 L 100.355469 12.441406 L 101.703125 12.441406 L 101.703125 7.96875 C 101.703125 6.875 102.132812 5.371094 103.480469 5.371094 C 105.160156 5.371094 105.199219 6.542969 105.199219 7.167969 L 105.199219 12.441406 L 106.566406 12.441406 Z M 106.566406 7.050781 "/>
<path style=" stroke:none;fill-rule:nonzero;fill:rgb(0%,0%,100%);fill-opacity:1;" d="M 115.273438 8.398438 C 115.273438 7.636719 115.195312 6.542969 114.628906 5.585938 C 113.886719 4.355469 112.636719 4.21875 112.109375 4.21875 C 110.175781 4.21875 108.554688 6.074219 108.554688 8.398438 C 108.554688 10.78125 110.273438 12.617188 112.363281 12.617188 C 113.183594 12.617188 114.179688 12.382812 115.15625 11.679688 C 115.15625 11.601562 115.097656 11.035156 115.097656 11.015625 C 115.078125 10.996094 115.058594 10.585938 115.058594 10.527344 C 113.984375 11.425781 112.929688 11.542969 112.402344 11.542969 C 111.015625 11.542969 109.824219 10.3125 109.804688 8.398438 Z M 109.902344 7.441406 C 110.214844 6.230469 111.054688 5.292969 112.109375 5.292969 C 112.675781 5.292969 113.90625 5.546875 114.199219 7.441406 Z M 109.902344 7.441406 "/>
<path style=" stroke:none;fill-rule:nonzero;fill:rgb(0%,0%,100%);fill-opacity:1;" d="M 124.835938 5.527344 L 127.316406 5.527344 L 127.316406 4.472656 L 124.835938 4.472656 L 124.835938 2.207031 L 123.605469 2.207031 L 123.605469 4.472656 L 122.101562 4.472656 L 122.101562 5.527344 L 123.566406 5.527344 L 123.566406 10.351562 C 123.566406 11.386719 123.800781 12.617188 125.03125 12.617188 C 126.242188 12.617188 127.0625 12.207031 127.609375 11.914062 L 127.335938 10.878906 C 126.710938 11.445312 126.046875 11.503906 125.734375 11.503906 C 124.933594 11.503906 124.835938 10.664062 124.835938 10.039062 Z M 124.835938 5.527344 "/>
<path style=" stroke:none;fill-rule:nonzero;fill:rgb(0%,0%,100%);fill-opacity:1;" d="M 135.371094 4.472656 L 134.042969 4.472656 C 133.203125 6.601562 131.835938 10.117188 131.757812 11.40625 L 131.738281 11.40625 C 131.660156 10.351562 130.703125 7.96875 130.566406 7.617188 L 129.277344 4.472656 L 127.871094 4.472656 L 131.210938 12.441406 L 130.566406 14.082031 C 130.175781 14.960938 129.921875 15.058594 129.589844 15.058594 C 129.335938 15.058594 128.769531 15 128.203125 14.785156 L 128.320312 15.957031 C 128.417969 15.976562 129.023438 16.09375 129.589844 16.09375 C 130.019531 16.09375 130.859375 16.09375 131.640625 14.121094 Z M 135.371094 4.472656 "/>
<path style=" stroke:none;fill-rule:nonzero;fill:rgb(0%,0%,100%);fill-opacity:1;" d="M 138.472656 11.640625 C 139.097656 12.1875 139.839844 12.617188 140.816406 12.617188 C 142.535156 12.617188 144.078125 10.878906 144.078125 8.4375 C 144.078125 6.269531 142.925781 4.296875 141.265625 4.296875 C 140.523438 4.296875 139.371094 4.53125 138.453125 5.332031 L 138.453125 4.472656 L 137.125 4.472656 L 137.125 15.917969 L 138.472656 15.917969 Z M 138.472656 6.425781 C 138.882812 5.800781 139.566406 5.410156 140.308594 5.410156 C 141.636719 5.410156 142.710938 6.757812 142.710938 8.457031 C 142.710938 10.253906 141.480469 11.542969 140.152344 11.542969 C 139.644531 11.542969 139.3125 11.367188 138.980469 11.113281 C 138.53125 10.722656 138.472656 10.390625 138.472656 10.117188 Z M 138.472656 6.425781 "/>
<path style=" stroke:none;fill-rule:nonzero;fill:rgb(0%,0%,100%);fill-opacity:1;" d="M 152.472656 8.398438 C 152.472656 7.636719 152.394531 6.542969 151.828125 5.585938 C 151.085938 4.355469 149.835938 4.21875 149.308594 4.21875 C 147.375 4.21875 145.753906 6.074219 145.753906 8.398438 C 145.753906 10.78125 147.472656 12.617188 149.5625 12.617188 C 150.382812 12.617188 151.378906 12.382812 152.355469 11.679688 C 152.355469 11.601562 152.296875 11.035156 152.296875 11.015625 C 152.277344 10.996094 152.257812 10.585938 152.257812 10.527344 C 151.183594 11.425781 150.128906 11.542969 149.601562 11.542969 C 148.214844 11.542969 147.023438 10.3125 147.003906 8.398438 Z M 147.101562 7.441406 C 147.414062 6.230469 148.253906 5.292969 149.308594 5.292969 C 149.875 5.292969 151.105469 5.546875 151.398438 7.441406 Z M 147.101562 7.441406 "/>
<path style=" stroke:none;fill-rule:nonzero;fill:rgb(0%,0%,0%);fill-opacity:1;" d="M 2.832031 21.148438 L 1.289062 21.148438 L 1.289062 33.589844 L 2.832031 33.589844 Z M 2.832031 21.148438 "/>
<path style=" stroke:none;fill-rule:nonzero;fill:rgb(0%,0%,0%);fill-opacity:1;" d="M 10.484375 25.914062 C 9.351562 25.386719 8.375 25.367188 7.964844 25.367188 C 7.554688 25.367188 5.054688 25.367188 5.054688 27.691406 C 5.054688 28.472656 5.484375 29.019531 5.757812 29.273438 C 6.402344 29.820312 6.851562 29.917969 7.90625 30.132812 C 8.511719 30.25 9.546875 30.464844 9.546875 31.421875 C 9.546875 32.652344 8.140625 32.652344 7.886719 32.652344 C 7.183594 32.652344 6.128906 32.457031 5.171875 31.753906 L 4.957031 32.984375 C 5.035156 33.042969 6.265625 33.765625 7.90625 33.765625 C 10.230469 33.765625 10.777344 32.378906 10.777344 31.304688 C 10.777344 30.40625 10.230469 29.820312 10.152344 29.742188 C 9.488281 29.058594 8.941406 28.941406 7.867188 28.726562 C 7.203125 28.609375 6.304688 28.433594 6.304688 27.535156 C 6.304688 26.421875 7.554688 26.421875 7.789062 26.421875 C 8.726562 26.421875 9.488281 26.636719 10.269531 27.085938 Z M 10.484375 25.914062 "/>
<path style=" stroke:none;fill-rule:nonzero;fill:rgb(0%,0%,0%);fill-opacity:1;" d="M 20.949219 21.421875 L 19.40625 21.421875 L 19.40625 22.964844 L 20.949219 22.964844 Z M 20.851562 25.621094 L 19.523438 25.621094 L 19.523438 33.589844 L 20.851562 33.589844 Z M 20.851562 25.621094 "/>
<path style=" stroke:none;fill-rule:nonzero;fill:rgb(0%,0%,0%);fill-opacity:1;" d="M 25.382812 26.675781 L 27.863281 26.675781 L 27.863281 25.621094 L 25.382812 25.621094 L 25.382812 23.355469 L 24.152344 23.355469 L 24.152344 25.621094 L 22.648438 25.621094 L 22.648438 26.675781 L 24.113281 26.675781 L 24.113281 31.5 C 24.113281 32.535156 24.347656 33.765625 25.578125 33.765625 C 26.789062 33.765625 27.609375 33.355469 28.15625 33.0625 L 27.882812 32.027344 C 27.257812 32.59375 26.59375 32.652344 26.28125 32.652344 C 25.480469 32.652344 25.382812 31.8125 25.382812 31.1875 Z M 25.382812 26.675781 "/>
<path style=" stroke:none;fill-rule:nonzero;fill:rgb(0%,0%,0%);fill-opacity:1;" d="M 42.378906 28.335938 C 42.378906 26.617188 41.148438 25.367188 39.46875 25.367188 C 38.394531 25.367188 37.59375 25.601562 36.714844 26.109375 L 36.8125 27.300781 C 37.613281 26.714844 38.433594 26.402344 39.46875 26.402344 C 40.289062 26.402344 41.011719 27.066406 41.011719 28.375 L 41.011719 29.117188 C 40.210938 29.136719 39.136719 29.195312 38.0625 29.546875 C 36.851562 29.976562 36.148438 30.640625 36.148438 31.519531 C 36.148438 32.320312 36.617188 33.765625 38.140625 33.765625 C 39.136719 33.765625 40.386719 33.472656 41.050781 32.925781 L 41.050781 33.589844 L 42.378906 33.589844 Z M 41.011719 31.1875 C 41.011719 31.539062 41.011719 31.96875 40.425781 32.339844 C 39.9375 32.632812 39.332031 32.691406 39.058594 32.691406 C 38.101562 32.691406 37.4375 32.164062 37.4375 31.519531 C 37.4375 30.289062 39.917969 30.015625 41.011719 30.015625 Z M 41.011719 31.1875 "/>
<path style=" stroke:none;fill-rule:nonzero;fill:rgb(0%,0%,0%);fill-opacity:1;" d="M 51.367188 28.199219 C 51.367188 27.105469 51.132812 25.445312 48.964844 25.445312 C 47.96875 25.445312 47.109375 25.894531 46.425781 26.753906 L 46.425781 25.542969 L 45.15625 25.542969 L 45.15625 33.589844 L 46.503906 33.589844 L 46.503906 29.117188 C 46.503906 28.023438 46.933594 26.519531 48.28125 26.519531 C 49.960938 26.519531 50 27.691406 50 28.316406 L 50 33.589844 L 51.367188 33.589844 Z M 51.367188 28.199219 "/>
<path style=" stroke:none;fill-rule:nonzero;fill:rgb(0%,0%,0%);fill-opacity:1;" d="M 67.890625 29.644531 C 67.890625 27.222656 66.113281 25.367188 64.0625 25.367188 C 61.953125 25.367188 60.214844 27.261719 60.214844 29.644531 C 60.214844 31.988281 61.992188 33.765625 64.042969 33.765625 C 66.152344 33.765625 67.890625 31.949219 67.890625 29.644531 Z M 64.0625 32.652344 C 62.773438 32.652344 61.5625 31.578125 61.5625 29.46875 C 61.5625 27.300781 62.910156 26.441406 64.042969 26.441406 C 65.273438 26.441406 66.542969 27.359375 66.542969 29.46875 C 66.542969 31.675781 65.253906 32.652344 64.0625 32.652344 Z M 64.0625 32.652344 "/>
<path style=" stroke:none;fill-rule:nonzero;fill:rgb(0%,0%,0%);fill-opacity:1;" d="M 70.800781 29.664062 C 70.800781 27.847656 72.148438 26.675781 73.769531 26.65625 L 73.769531 25.445312 C 72.128906 25.464844 71.191406 26.421875 70.703125 27.125 L 70.703125 25.542969 L 69.472656 25.542969 L 69.472656 33.589844 L 70.800781 33.589844 Z M 70.800781 29.664062 "/>
<path style=" stroke:none;fill-rule:nonzero;fill:rgb(0%,0%,0%);fill-opacity:1;" d="M 81.644531 21.148438 L 80.316406 21.148438 L 80.316406 26.382812 C 79.496094 25.699219 78.558594 25.445312 77.796875 25.445312 C 76.097656 25.445312 74.691406 27.28125 74.691406 29.605469 C 74.691406 31.929688 76.019531 33.765625 77.71875 33.765625 C 78.382812 33.765625 79.398438 33.550781 80.296875 32.671875 L 80.296875 33.589844 L 81.644531 33.589844 Z M 80.296875 31.480469 C 79.867188 32.242188 79.222656 32.691406 78.441406 32.691406 C 77.347656 32.691406 76.058594 31.851562 76.058594 29.625 C 76.058594 27.242188 77.582031 26.519531 78.617188 26.519531 C 79.320312 26.519531 79.886719 26.890625 80.296875 27.476562 Z M 80.296875 31.480469 "/>
<path style=" stroke:none;fill-rule:nonzero;fill:rgb(0%,0%,0%);fill-opacity:1;" d="M 85.898438 21.421875 L 84.355469 21.421875 L 84.355469 22.964844 L 85.898438 22.964844 Z M 85.800781 25.621094 L 84.472656 25.621094 L 84.472656 33.589844 L 85.800781 33.589844 Z M 85.800781 25.621094 "/>
<path style=" stroke:none;fill-rule:nonzero;fill:rgb(0%,0%,0%);fill-opacity:1;" d="M 94.867188 28.199219 C 94.867188 27.105469 94.632812 25.445312 92.464844 25.445312 C 91.46875 25.445312 90.609375 25.894531 89.925781 26.753906 L 89.925781 25.542969 L 88.65625 25.542969 L 88.65625 33.589844 L 90.003906 33.589844 L 90.003906 29.117188 C 90.003906 28.023438 90.433594 26.519531 91.78125 26.519531 C 93.460938 26.519531 93.5 27.691406 93.5 28.316406 L 93.5 33.589844 L 94.867188 33.589844 Z M 94.867188 28.199219 "/>
<path style=" stroke:none;fill-rule:nonzero;fill:rgb(0%,0%,0%);fill-opacity:1;" d="M 103.28125 28.335938 C 103.28125 26.617188 102.050781 25.367188 100.371094 25.367188 C 99.296875 25.367188 98.496094 25.601562 97.617188 26.109375 L 97.714844 27.300781 C 98.515625 26.714844 99.335938 26.402344 100.371094 26.402344 C 101.191406 26.402344 101.914062 27.066406 101.914062 28.375 L 101.914062 29.117188 C 101.113281 29.136719 100.039062 29.195312 98.964844 29.546875 C 97.753906 29.976562 97.050781 30.640625 97.050781 31.519531 C 97.050781 32.320312 97.519531 33.765625 99.042969 33.765625 C 100.039062 33.765625 101.289062 33.472656 101.953125 32.925781 L 101.953125 33.589844 L 103.28125 33.589844 Z M 101.914062 31.1875 C 101.914062 31.539062 101.914062 31.96875 101.328125 32.339844 C 100.839844 32.632812 100.234375 32.691406 99.960938 32.691406 C 99.003906 32.691406 98.339844 32.164062 98.339844 31.519531 C 98.339844 30.289062 100.820312 30.015625 101.914062 30.015625 Z M 101.914062 31.1875 "/>
<path style=" stroke:none;fill-rule:nonzero;fill:rgb(0%,0%,0%);fill-opacity:1;" d="M 106.953125 29.664062 C 106.953125 27.847656 108.300781 26.675781 109.921875 26.65625 L 109.921875 25.445312 C 108.28125 25.464844 107.34375 26.421875 106.855469 27.125 L 106.855469 25.542969 L 105.625 25.542969 L 105.625 33.589844 L 106.953125 33.589844 Z M 106.953125 29.664062 "/>
<path style=" stroke:none;fill-rule:nonzero;fill:rgb(0%,0%,0%);fill-opacity:1;" d="M 117.972656 25.621094 L 116.644531 25.621094 C 115.804688 27.75 114.4375 31.265625 114.359375 32.554688 L 114.339844 32.554688 C 114.261719 31.5 113.304688 29.117188 113.167969 28.765625 L 111.878906 25.621094 L 110.472656 25.621094 L 113.8125 33.589844 L 113.167969 35.230469 C 112.777344 36.109375 112.523438 36.207031 112.191406 36.207031 C 111.9375 36.207031 111.371094 36.148438 110.804688 35.933594 L 110.921875 37.105469 C 111.019531 37.125 111.625 37.242188 112.191406 37.242188 C 112.621094 37.242188 113.460938 37.242188 114.242188 35.269531 Z M 117.972656 25.621094 "/>
<path style=" stroke:none;fill-rule:nonzero;fill:rgb(0%,0%,0%);fill-opacity:1;" d="M 132.496094 21.148438 L 131.167969 21.148438 L 131.167969 26.382812 C 130.347656 25.699219 129.410156 25.445312 128.648438 25.445312 C 126.949219 25.445312 125.542969 27.28125 125.542969 29.605469 C 125.542969 31.929688 126.871094 33.765625 128.570312 33.765625 C 129.234375 33.765625 130.25 33.550781 131.148438 32.671875 L 131.148438 33.589844 L 132.496094 33.589844 Z M 131.148438 31.480469 C 130.71875 32.242188 130.074219 32.691406 129.292969 32.691406 C 128.199219 32.691406 126.910156 31.851562 126.910156 29.625 C 126.910156 27.242188 128.433594 26.519531 129.46875 26.519531 C 130.171875 26.519531 130.738281 26.890625 131.148438 27.476562 Z M 131.148438 31.480469 "/>
<path style=" stroke:none;fill-rule:nonzero;fill:rgb(0%,0%,0%);fill-opacity:1;" d="M 136.75 21.421875 L 135.207031 21.421875 L 135.207031 22.964844 L 136.75 22.964844 Z M 136.652344 25.621094 L 135.324219 25.621094 L 135.324219 33.589844 L 136.652344 33.589844 Z M 136.652344 25.621094 "/>
<path style=" stroke:none;fill-rule:nonzero;fill:rgb(0%,0%,0%);fill-opacity:1;" d="M 141.222656 26.675781 L 143.15625 26.675781 L 143.15625 25.621094 L 141.183594 25.621094 L 141.183594 23.472656 C 141.183594 22.222656 142.277344 22.046875 142.804688 22.046875 C 143.449219 22.046875 143.976562 22.242188 144.210938 22.320312 L 144.210938 21.148438 C 143.996094 21.089844 143.449219 20.972656 142.824219 20.972656 C 141.183594 20.972656 139.894531 22.203125 139.894531 24.019531 L 139.894531 25.621094 L 138.585938 25.621094 L 138.585938 26.675781 L 139.894531 26.675781 L 139.894531 33.589844 L 141.222656 33.589844 Z M 146.085938 26.675781 L 148.019531 26.675781 L 148.019531 25.621094 L 146.046875 25.621094 L 146.046875 23.472656 C 146.046875 22.222656 147.140625 22.046875 147.648438 22.046875 C 148.292969 22.046875 148.839844 22.242188 149.074219 22.320312 L 149.074219 21.148438 C 148.859375 21.089844 148.292969 20.972656 147.667969 20.972656 C 146.046875 20.972656 144.757812 22.203125 144.757812 24.019531 L 144.757812 33.589844 L 146.085938 33.589844 Z M 146.085938 26.675781 "/>
<path style=" stroke:none;fill-rule:nonzero;fill:rgb(0%,0%,0%);fill-opacity:1;" d="M 155.621094 29.546875 C 155.621094 28.785156 155.542969 27.691406 154.976562 26.734375 C 154.234375 25.503906 152.984375 25.367188 152.457031 25.367188 C 150.523438 25.367188 148.902344 27.222656 148.902344 29.546875 C 148.902344 31.929688 150.621094 33.765625 152.710938 33.765625 C 153.53125 33.765625 154.527344 33.53125 155.503906 32.828125 C 155.503906 32.75 155.445312 32.183594 155.445312 32.164062 C 155.425781 32.144531 155.40625 31.734375 155.40625 31.675781 C 154.332031 32.574219 153.277344 32.691406 152.75 32.691406 C 151.363281 32.691406 150.171875 31.460938 150.152344 29.546875 Z M 150.25 28.589844 C 150.5625 27.378906 151.402344 26.441406 152.457031 26.441406 C 153.023438 26.441406 154.253906 26.695312 154.546875 28.589844 Z M 150.25 28.589844 "/>
<path style=" stroke:none;fill-rule:nonzero;fill:rgb(0%,0%,0%);fill-opacity:1;" d="M 158.851562 29.664062 C 158.851562 27.847656 160.199219 26.675781 161.820312 26.65625 L 161.820312 25.445312 C 160.179688 25.464844 159.242188 26.421875 158.753906 27.125 L 158.753906 25.542969 L 157.523438 25.542969 L 157.523438 33.589844 L 158.851562 33.589844 Z M 158.851562 29.664062 "/>
<path style=" stroke:none;fill-rule:nonzero;fill:rgb(0%,0%,0%);fill-opacity:1;" d="M 169.421875 29.546875 C 169.421875 28.785156 169.34375 27.691406 168.777344 26.734375 C 168.035156 25.503906 166.785156 25.367188 166.257812 25.367188 C 164.324219 25.367188 162.703125 27.222656 162.703125 29.546875 C 162.703125 31.929688 164.421875 33.765625 166.511719 33.765625 C 167.332031 33.765625 168.328125 33.53125 169.304688 32.828125 C 169.304688 32.75 169.246094 32.183594 169.246094 32.164062 C 169.226562 32.144531 169.207031 31.734375 169.207031 31.675781 C 168.132812 32.574219 167.078125 32.691406 166.550781 32.691406 C 165.164062 32.691406 163.972656 31.460938 163.953125 29.546875 Z M 164.050781 28.589844 C 164.363281 27.378906 165.203125 26.441406 166.257812 26.441406 C 166.824219 26.441406 168.054688 26.695312 168.347656 28.589844 Z M 164.050781 28.589844 "/>
<path style=" stroke:none;fill-rule:nonzero;fill:rgb(0%,0%,0%);fill-opacity:1;" d="M 177.515625 28.199219 C 177.515625 27.105469 177.28125 25.445312 175.113281 25.445312 C 174.117188 25.445312 173.257812 25.894531 172.574219 26.753906 L 172.574219 25.542969 L 171.304688 25.542969 L 171.304688 33.589844 L 172.652344 33.589844 L 172.652344 29.117188 C 172.652344 28.023438 173.082031 26.519531 174.429688 26.519531 C 176.109375 26.519531 176.148438 27.691406 176.148438 28.316406 L 176.148438 33.589844 L 177.515625 33.589844 Z M 177.515625 28.199219 "/>
<path style=" stroke:none;fill-rule:nonzero;fill:rgb(0%,0%,0%);fill-opacity:1;" d="M 181.984375 26.675781 L 184.464844 26.675781 L 184.464844 25.621094 L 181.984375 25.621094 L 181.984375 23.355469 L 180.753906 23.355469 L 180.753906 25.621094 L 179.25 25.621094 L 179.25 26.675781 L 180.714844 26.675781 L 180.714844 31.5 C 180.714844 32.535156 180.949219 33.765625 182.179688 33.765625 C 183.390625 33.765625 184.210938 33.355469 184.757812 33.0625 L 184.484375 32.027344 C 183.859375 32.59375 183.195312 32.652344 182.882812 32.652344 C 182.082031 32.652344 181.984375 31.8125 181.984375 31.1875 Z M 181.984375 26.675781 "/>
<path style=" stroke:none;fill-rule:nonzero;fill:rgb(0%,0%,0%);fill-opacity:1;" d="M 188.050781 21.421875 L 186.507812 21.421875 L 186.507812 22.964844 L 188.050781 22.964844 Z M 187.953125 25.621094 L 186.625 25.621094 L 186.625 33.589844 L 187.953125 33.589844 Z M 187.953125 25.621094 "/>
<path style=" stroke:none;fill-rule:nonzero;fill:rgb(0%,0%,0%);fill-opacity:1;" d="M 196.429688 28.335938 C 196.429688 26.617188 195.199219 25.367188 193.519531 25.367188 C 192.445312 25.367188 191.644531 25.601562 190.765625 26.109375 L 190.863281 27.300781 C 191.664062 26.714844 192.484375 26.402344 193.519531 26.402344 C 194.339844 26.402344 195.0625 27.066406 195.0625 28.375 L 195.0625 29.117188 C 194.261719 29.136719 193.1875 29.195312 192.113281 29.546875 C 190.902344 29.976562 190.199219 30.640625 190.199219 31.519531 C 190.199219 32.320312 190.667969 33.765625 192.191406 33.765625 C 193.1875 33.765625 194.4375 33.472656 195.101562 32.925781 L 195.101562 33.589844 L 196.429688 33.589844 Z M 195.0625 31.1875 C 195.0625 31.539062 195.0625 31.96875 194.476562 32.339844 C 193.988281 32.632812 193.382812 32.691406 193.109375 32.691406 C 192.152344 32.691406 191.488281 32.164062 191.488281 31.519531 C 191.488281 30.289062 193.96875 30.015625 195.0625 30.015625 Z M 195.0625 31.1875 "/>
<path style=" stroke:none;fill-rule:nonzero;fill:rgb(0%,0%,0%);fill-opacity:1;" d="M 200.550781 21.148438 L 199.222656 21.148438 L 199.222656 33.589844 L 200.550781 33.589844 Z M 200.550781 21.148438 "/>
<path style=" stroke:none;fill-rule:nonzero;fill:rgb(0%,0%,0%);fill-opacity:1;" d="M 215.921875 29.546875 C 215.921875 28.785156 215.84375 27.691406 215.277344 26.734375 C 214.535156 25.503906 213.285156 25.367188 212.757812 25.367188 C 210.824219 25.367188 209.203125 27.222656 209.203125 29.546875 C 209.203125 31.929688 210.921875 33.765625 213.011719 33.765625 C 213.832031 33.765625 214.828125 33.53125 215.804688 32.828125 C 215.804688 32.75 215.746094 32.183594 215.746094 32.164062 C 215.726562 32.144531 215.707031 31.734375 215.707031 31.675781 C 214.632812 32.574219 213.578125 32.691406 213.050781 32.691406 C 211.664062 32.691406 210.472656 31.460938 210.453125 29.546875 Z M 210.550781 28.589844 C 210.863281 27.378906 211.703125 26.441406 212.757812 26.441406 C 213.324219 26.441406 214.554688 26.695312 214.847656 28.589844 Z M 210.550781 28.589844 "/>
<path style=" stroke:none;fill-rule:nonzero;fill:rgb(0%,0%,0%);fill-opacity:1;" d="M 223.996094 25.445312 L 222.667969 25.445312 L 222.667969 26.597656 C 222.199219 26.050781 221.417969 25.445312 220.324219 25.445312 C 218.566406 25.445312 217.042969 27.222656 217.042969 29.625 C 217.042969 31.910156 218.371094 33.765625 220.050781 33.765625 C 221.4375 33.765625 222.394531 32.945312 222.648438 32.671875 L 222.648438 37.066406 L 223.996094 37.066406 Z M 222.667969 31.089844 C 222.667969 31.441406 222.667969 31.460938 222.472656 31.734375 C 221.984375 32.457031 221.339844 32.691406 220.8125 32.691406 C 219.464844 32.691406 218.410156 31.285156 218.410156 29.625 C 218.410156 27.789062 219.699219 26.558594 220.96875 26.558594 C 222.121094 26.558594 222.667969 27.730469 222.667969 28.453125 Z M 222.667969 31.089844 "/>
<path style=" stroke:none;fill-rule:nonzero;fill:rgb(0%,0%,0%);fill-opacity:1;" d="M 233.015625 25.621094 L 231.648438 25.621094 L 231.648438 30.757812 C 231.648438 32.125 230.710938 32.789062 229.539062 32.789062 C 228.289062 32.789062 228.152344 32.320312 228.152344 31.519531 L 228.152344 25.621094 L 226.804688 25.621094 L 226.804688 31.597656 C 226.804688 32.886719 227.214844 33.765625 228.679688 33.765625 C 229.1875 33.765625 230.59375 33.6875 231.6875 32.691406 L 231.6875 33.589844 L 233.015625 33.589844 Z M 233.015625 25.621094 "/>
<path style=" stroke:none;fill-rule:nonzero;fill:rgb(0%,0%,0%);fill-opacity:1;" d="M 241.429688 28.335938 C 241.429688 26.617188 240.199219 25.367188 238.519531 25.367188 C 237.445312 25.367188 236.644531 25.601562 235.765625 26.109375 L 235.863281 27.300781 C 236.664062 26.714844 237.484375 26.402344 238.519531 26.402344 C 239.339844 26.402344 240.0625 27.066406 240.0625 28.375 L 240.0625 29.117188 C 239.261719 29.136719 238.1875 29.195312 237.113281 29.546875 C 235.902344 29.976562 235.199219 30.640625 235.199219 31.519531 C 235.199219 32.320312 235.667969 33.765625 237.191406 33.765625 C 238.1875 33.765625 239.4375 33.472656 240.101562 32.925781 L 240.101562 33.589844 L 241.429688 33.589844 Z M 240.0625 31.1875 C 240.0625 31.539062 240.0625 31.96875 239.476562 32.339844 C 238.988281 32.632812 238.382812 32.691406 238.109375 32.691406 C 237.152344 32.691406 236.488281 32.164062 236.488281 31.519531 C 236.488281 30.289062 238.96875 30.015625 240.0625 30.015625 Z M 240.0625 31.1875 "/>
<path style=" stroke:none;fill-rule:nonzero;fill:rgb(0%,0%,0%);fill-opacity:1;" d="M 247.679688 30.132812 L 247.679688 29.097656 L 243.011719 29.097656 L 243.011719 30.132812 Z M 247.679688 30.132812 "/>
<path style=" stroke:none;fill-rule:nonzero;fill:rgb(0%,0%,0%);fill-opacity:1;" d="M 2.734375 47.976562 L 5.214844 47.976562 L 5.214844 46.921875 L 2.734375 46.921875 L 2.734375 44.65625 L 1.503906 44.65625 L 1.503906 46.921875 L 0 46.921875 L 0 47.976562 L 1.464844 47.976562 L 1.464844 52.800781 C 1.464844 53.835938 1.699219 55.066406 2.929688 55.066406 C 4.140625 55.066406 4.960938 54.65625 5.507812 54.363281 L 5.234375 53.328125 C 4.609375 53.894531 3.945312 53.953125 3.632812 53.953125 C 2.832031 53.953125 2.734375 53.113281 2.734375 52.488281 Z M 2.734375 47.976562 "/>
<path style=" stroke:none;fill-rule:nonzero;fill:rgb(0%,0%,0%);fill-opacity:1;" d="M 8.800781 42.722656 L 7.257812 42.722656 L 7.257812 44.265625 L 8.800781 44.265625 Z M 8.703125 46.921875 L 7.375 46.921875 L 7.375 54.890625 L 8.703125 54.890625 Z M 8.703125 46.921875 "/>
<path style=" stroke:none;fill-rule:nonzero;fill:rgb(0%,0%,0%);fill-opacity:1;" d="M 18.390625 50.945312 C 18.390625 48.523438 16.613281 46.667969 14.5625 46.667969 C 12.453125 46.667969 10.714844 48.5625 10.714844 50.945312 C 10.714844 53.289062 12.492188 55.066406 14.542969 55.066406 C 16.652344 55.066406 18.390625 53.25 18.390625 50.945312 Z M 14.5625 53.953125 C 13.273438 53.953125 12.0625 52.878906 12.0625 50.769531 C 12.0625 48.601562 13.410156 47.742188 14.542969 47.742188 C 15.773438 47.742188 17.042969 48.660156 17.042969 50.769531 C 17.042969 52.976562 15.753906 53.953125 14.5625 53.953125 Z M 14.5625 53.953125 "/>
<path style=" stroke:none;fill-rule:nonzero;fill:rgb(0%,0%,0%);fill-opacity:1;" d="M 26.617188 49.5 C 26.617188 48.40625 26.382812 46.746094 24.214844 46.746094 C 23.21875 46.746094 22.359375 47.195312 21.675781 48.054688 L 21.675781 46.84375 L 20.40625 46.84375 L 20.40625 54.890625 L 21.753906 54.890625 L 21.753906 50.417969 C 21.753906 49.324219 22.183594 47.820312 23.53125 47.820312 C 25.210938 47.820312 25.25 48.992188 25.25 49.617188 L 25.25 54.890625 L 26.617188 54.890625 Z M 26.617188 49.5 "/>
<path style=" stroke:none;fill-rule:nonzero;fill:rgb(0%,0%,0%);fill-opacity:1;" d="M 32.492188 50.925781 C 32.492188 49.011719 33.644531 47.742188 34.328125 47.175781 C 34.679688 46.882812 35.324219 46.277344 35.324219 45.046875 C 35.324219 43.660156 34.464844 42.273438 31.925781 42.273438 C 30.539062 42.273438 29.523438 42.820312 28.996094 43.210938 L 29.386719 44.324219 C 30.382812 43.425781 31.398438 43.347656 31.945312 43.347656 C 32.921875 43.347656 33.957031 43.582031 33.957031 45.027344 C 33.957031 45.828125 33.585938 46.179688 33.273438 46.433594 C 32.277344 47.3125 31.320312 48.875 31.320312 50.867188 L 31.320312 51.785156 L 32.492188 51.785156 Z M 31.183594 54.890625 L 32.628906 54.890625 L 32.628906 53.445312 L 31.183594 53.445312 Z M 31.183594 54.890625 "/>
<path style=" stroke:none;fill-rule:nonzero;fill:rgb(0%,0%,0%);fill-opacity:1;" d="M 47.230469 42.449219 L 45.6875 42.449219 L 45.6875 54.890625 L 47.230469 54.890625 Z M 47.230469 42.449219 "/>
<path style=" stroke:none;fill-rule:nonzero;fill:rgb(0%,0%,0%);fill-opacity:1;" d="M 54.882812 47.214844 C 53.75 46.6875 52.773438 46.667969 52.363281 46.667969 C 51.953125 46.667969 49.453125 46.667969 49.453125 48.992188 C 49.453125 49.773438 49.882812 50.320312 50.15625 50.574219 C 50.800781 51.121094 51.25 51.21875 52.304688 51.433594 C 52.910156 51.550781 53.945312 51.765625 53.945312 52.722656 C 53.945312 53.953125 52.539062 53.953125 52.285156 53.953125 C 51.582031 53.953125 50.527344 53.757812 49.570312 53.054688 L 49.355469 54.285156 C 49.433594 54.34375 50.664062 55.066406 52.304688 55.066406 C 54.628906 55.066406 55.175781 53.679688 55.175781 52.605469 C 55.175781 51.707031 54.628906 51.121094 54.550781 51.042969 C 53.886719 50.359375 53.339844 50.242188 52.265625 50.027344 C 51.601562 49.910156 50.703125 49.734375 50.703125 48.835938 C 50.703125 47.722656 51.953125 47.722656 52.1875 47.722656 C 53.125 47.722656 53.886719 47.9375 54.667969 48.386719 Z M 54.882812 47.214844 "/>
<path style=" stroke:none;fill-rule:nonzero;fill:rgb(0%,0%,0%);fill-opacity:1;" d="M 64.148438 42.722656 L 62.605469 42.722656 L 62.605469 44.265625 L 64.148438 44.265625 Z M 64.050781 46.921875 L 62.722656 46.921875 L 62.722656 54.890625 L 64.050781 54.890625 Z M 64.050781 46.921875 "/>
<path style=" stroke:none;fill-rule:nonzero;fill:rgb(0%,0%,0%);fill-opacity:1;" d="M 68.585938 47.976562 L 71.066406 47.976562 L 71.066406 46.921875 L 68.585938 46.921875 L 68.585938 44.65625 L 67.355469 44.65625 L 67.355469 46.921875 L 65.851562 46.921875 L 65.851562 47.976562 L 67.316406 47.976562 L 67.316406 52.800781 C 67.316406 53.835938 67.550781 55.066406 68.78125 55.066406 C 69.992188 55.066406 70.8125 54.65625 71.359375 54.363281 L 71.085938 53.328125 C 70.460938 53.894531 69.796875 53.953125 69.484375 53.953125 C 68.683594 53.953125 68.585938 53.113281 68.585938 52.488281 Z M 68.585938 47.976562 "/>
<path style=" stroke:none;fill-rule:nonzero;fill:rgb(0%,0%,0%);fill-opacity:1;" d="M 85.117188 49.5 C 85.117188 48.40625 84.882812 46.746094 82.714844 46.746094 C 81.484375 46.746094 80.664062 47.449219 80.234375 47.996094 L 80.234375 42.449219 L 78.90625 42.449219 L 78.90625 54.890625 L 80.253906 54.890625 L 80.253906 50.417969 C 80.253906 49.324219 80.683594 47.820312 82.03125 47.820312 C 83.710938 47.820312 83.75 48.992188 83.75 49.617188 L 83.75 54.890625 L 85.117188 54.890625 Z M 85.117188 49.5 "/>
<path style=" stroke:none;fill-rule:nonzero;fill:rgb(0%,0%,0%);fill-opacity:1;" d="M 94.742188 50.945312 C 94.742188 48.523438 92.964844 46.667969 90.914062 46.667969 C 88.804688 46.667969 87.066406 48.5625 87.066406 50.945312 C 87.066406 53.289062 88.84375 55.066406 90.894531 55.066406 C 93.003906 55.066406 94.742188 53.25 94.742188 50.945312 Z M 90.914062 53.953125 C 89.625 53.953125 88.414062 52.878906 88.414062 50.769531 C 88.414062 48.601562 89.761719 47.742188 90.894531 47.742188 C 92.125 47.742188 93.394531 48.660156 93.394531 50.769531 C 93.394531 52.976562 92.105469 53.953125 90.914062 53.953125 Z M 90.914062 53.953125 "/>
<path style=" stroke:none;fill-rule:nonzero;fill:rgb(0%,0%,0%);fill-opacity:1;" d="M 107.867188 49.5 C 107.867188 48.25 107.535156 46.746094 105.445312 46.746094 C 103.921875 46.746094 103.082031 47.800781 102.808594 48.210938 C 102.476562 47.078125 101.5 46.746094 100.5625 46.746094 C 99.097656 46.746094 98.316406 47.703125 98.023438 48.074219 L 98.023438 46.84375 L 96.753906 46.84375 L 96.753906 54.890625 L 98.101562 54.890625 L 98.101562 50.417969 C 98.101562 49.246094 98.570312 47.820312 99.878906 47.820312 C 101.539062 47.820312 101.617188 48.953125 101.617188 49.617188 L 101.617188 54.890625 L 102.984375 54.890625 L 102.984375 50.417969 C 102.984375 49.246094 103.453125 47.820312 104.761719 47.820312 C 106.402344 47.820312 106.5 48.953125 106.5 49.617188 L 106.5 54.890625 L 107.867188 54.890625 Z M 107.867188 49.5 "/>
<path style=" stroke:none;fill-rule:nonzero;fill:rgb(0%,0%,0%);fill-opacity:1;" d="M 117.539062 50.945312 C 117.539062 48.523438 115.761719 46.667969 113.710938 46.667969 C 111.601562 46.667969 109.863281 48.5625 109.863281 50.945312 C 109.863281 53.289062 111.640625 55.066406 113.691406 55.066406 C 115.800781 55.066406 117.539062 53.25 117.539062 50.945312 Z M 113.710938 53.953125 C 112.421875 53.953125 111.210938 52.878906 111.210938 50.769531 C 111.210938 48.601562 112.558594 47.742188 113.691406 47.742188 C 114.921875 47.742188 116.191406 48.660156 116.191406 50.769531 C 116.191406 52.976562 114.902344 53.953125 113.710938 53.953125 Z M 113.710938 53.953125 "/>
<path style=" stroke:none;fill-rule:nonzero;fill:rgb(0%,0%,0%);fill-opacity:1;" d="M 124.28125 47.820312 C 124.28125 47.820312 124.320312 47.859375 124.339844 47.898438 C 124.710938 47.859375 125.101562 47.800781 125.765625 47.800781 C 125.824219 47.800781 126.234375 47.800781 126.683594 47.839844 L 126.488281 46.746094 C 126.15625 46.746094 124.925781 46.765625 123.734375 47.351562 C 123.148438 46.84375 122.425781 46.746094 122.074219 46.746094 C 120.511719 46.746094 119.261719 48.054688 119.261719 49.636719 C 119.261719 50.28125 119.457031 50.867188 119.847656 51.414062 C 119.4375 51.980469 119.339844 52.527344 119.339844 52.957031 C 119.339844 53.621094 119.59375 54.070312 119.789062 54.304688 C 118.871094 54.890625 118.65625 55.652344 118.65625 56.160156 C 118.65625 57.46875 120.355469 58.5625 122.542969 58.5625 C 124.730469 58.5625 126.449219 57.507812 126.449219 56.140625 C 126.449219 53.640625 123.539062 53.640625 122.816406 53.640625 L 121.292969 53.640625 C 121.039062 53.640625 120.257812 53.640625 120.257812 52.683594 C 120.257812 52.292969 120.335938 52.175781 120.453125 52.019531 C 120.746094 52.234375 121.332031 52.546875 122.054688 52.546875 C 123.597656 52.546875 124.867188 51.277344 124.867188 49.636719 C 124.867188 48.992188 124.632812 48.328125 124.261719 47.839844 Z M 122.074219 51.550781 C 121.292969 51.550781 120.492188 51.023438 120.492188 49.65625 C 120.492188 48.054688 121.507812 47.742188 122.054688 47.742188 C 122.855469 47.742188 123.636719 48.269531 123.636719 49.636719 C 123.636719 51.238281 122.640625 51.550781 122.074219 51.550781 Z M 122.835938 54.929688 C 123.226562 54.929688 125.199219 54.929688 125.199219 56.160156 C 125.199219 56.980469 123.96875 57.585938 122.5625 57.585938 C 121.15625 57.585938 119.90625 57.019531 119.90625 56.140625 C 119.90625 56.101562 119.90625 54.929688 121.273438 54.929688 Z M 122.835938 54.929688 "/>
<path style=" stroke:none;fill-rule:nonzero;fill:rgb(0%,0%,0%);fill-opacity:1;" d="M 134.324219 50.847656 C 134.324219 50.085938 134.246094 48.992188 133.679688 48.035156 C 132.9375 46.804688 131.6875 46.667969 131.160156 46.667969 C 129.226562 46.667969 127.605469 48.523438 127.605469 50.847656 C 127.605469 53.230469 129.324219 55.066406 131.414062 55.066406 C 132.234375 55.066406 133.230469 54.832031 134.207031 54.128906 C 134.207031 54.050781 134.148438 53.484375 134.148438 53.464844 C 134.128906 53.445312 134.109375 53.035156 134.109375 52.976562 C 133.035156 53.875 131.980469 53.992188 131.453125 53.992188 C 130.066406 53.992188 128.875 52.761719 128.855469 50.847656 Z M 128.953125 49.890625 C 129.265625 48.679688 130.105469 47.742188 131.160156 47.742188 C 131.726562 47.742188 132.957031 47.996094 133.25 49.890625 Z M 128.953125 49.890625 "/>
<path style=" stroke:none;fill-rule:nonzero;fill:rgb(0%,0%,0%);fill-opacity:1;" d="M 142.414062 49.5 C 142.414062 48.40625 142.179688 46.746094 140.011719 46.746094 C 139.015625 46.746094 138.15625 47.195312 137.472656 48.054688 L 137.472656 46.84375 L 136.203125 46.84375 L 136.203125 54.890625 L 137.550781 54.890625 L 137.550781 50.417969 C 137.550781 49.324219 137.980469 47.820312 139.328125 47.820312 C 141.007812 47.820312 141.046875 48.992188 141.046875 49.617188 L 141.046875 54.890625 L 142.414062 54.890625 Z M 142.414062 49.5 "/>
<path style=" stroke:none;fill-rule:nonzero;fill:rgb(0%,0%,0%);fill-opacity:1;" d="M 152.039062 50.945312 C 152.039062 48.523438 150.261719 46.667969 148.210938 46.667969 C 146.101562 46.667969 144.363281 48.5625 144.363281 50.945312 C 144.363281 53.289062 146.140625 55.066406 148.191406 55.066406 C 150.300781 55.066406 152.039062 53.25 152.039062 50.945312 Z M 148.210938 53.953125 C 146.921875 53.953125 145.710938 52.878906 145.710938 50.769531 C 145.710938 48.601562 147.058594 47.742188 148.191406 47.742188 C 149.421875 47.742188 150.691406 48.660156 150.691406 50.769531 C 150.691406 52.976562 149.402344 53.953125 148.210938 53.953125 Z M 148.210938 53.953125 "/>
<path style=" stroke:none;fill-rule:nonzero;fill:rgb(0%,0%,0%);fill-opacity:1;" d="M 160.265625 46.921875 L 158.898438 46.921875 L 158.898438 52.058594 C 158.898438 53.425781 157.960938 54.089844 156.789062 54.089844 C 155.539062 54.089844 155.402344 53.621094 155.402344 52.820312 L 155.402344 46.921875 L 154.054688 46.921875 L 154.054688 52.898438 C 154.054688 54.1875 154.464844 55.066406 155.929688 55.066406 C 156.4375 55.066406 157.84375 54.988281 158.9375 53.992188 L 158.9375 54.890625 L 160.265625 54.890625 Z M 160.265625 46.921875 "/>
<path style=" stroke:none;fill-rule:nonzero;fill:rgb(0%,0%,0%);fill-opacity:1;" d="M 167.683594 47.214844 C 166.550781 46.6875 165.574219 46.667969 165.164062 46.667969 C 164.753906 46.667969 162.253906 46.667969 162.253906 48.992188 C 162.253906 49.773438 162.683594 50.320312 162.957031 50.574219 C 163.601562 51.121094 164.050781 51.21875 165.105469 51.433594 C 165.710938 51.550781 166.746094 51.765625 166.746094 52.722656 C 166.746094 53.953125 165.339844 53.953125 165.085938 53.953125 C 164.382812 53.953125 163.328125 53.757812 162.371094 53.054688 L 162.15625 54.285156 C 162.234375 54.34375 163.464844 55.066406 165.105469 55.066406 C 167.429688 55.066406 167.976562 53.679688 167.976562 52.605469 C 167.976562 51.707031 167.429688 51.121094 167.351562 51.042969 C 166.6875 50.359375 166.140625 50.242188 165.066406 50.027344 C 164.402344 49.910156 163.503906 49.734375 163.503906 48.835938 C 163.503906 47.722656 164.753906 47.722656 164.988281 47.722656 C 165.925781 47.722656 166.6875 47.9375 167.46875 48.386719 Z M 167.683594 47.214844 "/>
<path style=" stroke:none;fill-rule:nonzero;fill:rgb(0%,0%,0%);fill-opacity:1;" d="M 182.039062 50.945312 C 182.039062 48.523438 180.261719 46.667969 178.210938 46.667969 C 176.101562 46.667969 174.363281 48.5625 174.363281 50.945312 C 174.363281 53.289062 176.140625 55.066406 178.191406 55.066406 C 180.300781 55.066406 182.039062 53.25 182.039062 50.945312 Z M 178.210938 53.953125 C 176.921875 53.953125 175.710938 52.878906 175.710938 50.769531 C 175.710938 48.601562 177.058594 47.742188 178.191406 47.742188 C 179.421875 47.742188 180.691406 48.660156 180.691406 50.769531 C 180.691406 52.976562 179.402344 53.953125 178.210938 53.953125 Z M 178.210938 53.953125 "/>
<path style=" stroke:none;fill-rule:nonzero;fill:rgb(0%,0%,0%);fill-opacity:1;" d="M 184.953125 50.964844 C 184.953125 49.148438 186.300781 47.976562 187.921875 47.957031 L 187.921875 46.746094 C 186.28125 46.765625 185.34375 47.722656 184.855469 48.425781 L 184.855469 46.84375 L 183.625 46.84375 L 183.625 54.890625 L 184.953125 54.890625 Z M 184.953125 50.964844 "/>
<path style=" stroke:none;fill-rule:nonzero;fill:rgb(0%,0%,0%);fill-opacity:1;" d="M 196.5 42.449219 L 195.171875 42.449219 L 195.171875 54.890625 L 196.5 54.890625 Z M 196.5 42.449219 "/>
<path style=" stroke:none;fill-rule:nonzero;fill:rgb(0%,0%,0%);fill-opacity:1;" d="M 200.800781 42.722656 L 199.257812 42.722656 L 199.257812 44.265625 L 200.800781 44.265625 Z M 200.703125 46.921875 L 199.375 46.921875 L 199.375 54.890625 L 200.703125 54.890625 Z M 200.703125 46.921875 "/>
<path style=" stroke:none;fill-rule:nonzero;fill:rgb(0%,0%,0%);fill-opacity:1;" d="M 209.765625 49.5 C 209.765625 48.40625 209.53125 46.746094 207.363281 46.746094 C 206.367188 46.746094 205.507812 47.195312 204.824219 48.054688 L 204.824219 46.84375 L 203.554688 46.84375 L 203.554688 54.890625 L 204.902344 54.890625 L 204.902344 50.417969 C 204.902344 49.324219 205.332031 47.820312 206.679688 47.820312 C 208.359375 47.820312 208.398438 48.992188 208.398438 49.617188 L 208.398438 54.890625 L 209.765625 54.890625 Z M 209.765625 49.5 "/>
<path style=" stroke:none;fill-rule:nonzero;fill:rgb(0%,0%,0%);fill-opacity:1;" d="M 218.472656 50.847656 C 218.472656 50.085938 218.394531 48.992188 217.828125 48.035156 C 217.085938 46.804688 215.835938 46.667969 215.308594 46.667969 C 213.375 46.667969 211.753906 48.523438 211.753906 50.847656 C 211.753906 53.230469 213.472656 55.066406 215.5625 55.066406 C 216.382812 55.066406 217.378906 54.832031 218.355469 54.128906 C 218.355469 54.050781 218.296875 53.484375 218.296875 53.464844 C 218.277344 53.445312 218.257812 53.035156 218.257812 52.976562 C 217.183594 53.875 216.128906 53.992188 215.601562 53.992188 C 214.214844 53.992188 213.023438 52.761719 213.003906 50.847656 Z M 213.101562 49.890625 C 213.414062 48.679688 214.253906 47.742188 215.308594 47.742188 C 215.875 47.742188 217.105469 47.996094 217.398438 49.890625 Z M 213.101562 49.890625 "/>
<path style=" stroke:none;fill-rule:nonzero;fill:rgb(0%,0%,0%);fill-opacity:1;" d="M 225.980469 49.636719 C 225.980469 47.917969 224.75 46.667969 223.070312 46.667969 C 221.996094 46.667969 221.195312 46.902344 220.316406 47.410156 L 220.414062 48.601562 C 221.214844 48.015625 222.035156 47.703125 223.070312 47.703125 C 223.890625 47.703125 224.613281 48.367188 224.613281 49.675781 L 224.613281 50.417969 C 223.8125 50.4375 222.738281 50.496094 221.664062 50.847656 C 220.453125 51.277344 219.75 51.941406 219.75 52.820312 C 219.75 53.621094 220.21875 55.066406 221.742188 55.066406 C 222.738281 55.066406 223.988281 54.773438 224.652344 54.226562 L 224.652344 54.890625 L 225.980469 54.890625 Z M 224.613281 52.488281 C 224.613281 52.839844 224.613281 53.269531 224.027344 53.640625 C 223.539062 53.933594 222.933594 53.992188 222.660156 53.992188 C 221.703125 53.992188 221.039062 53.464844 221.039062 52.820312 C 221.039062 51.589844 223.519531 51.316406 224.613281 51.316406 Z M 224.613281 52.488281 "/>
<path style=" stroke:none;fill-rule:nonzero;fill:rgb(0%,0%,0%);fill-opacity:1;" d="M 229.652344 50.964844 C 229.652344 49.148438 231 47.976562 232.621094 47.957031 L 232.621094 46.746094 C 230.980469 46.765625 230.042969 47.722656 229.554688 48.425781 L 229.554688 46.84375 L 228.324219 46.84375 L 228.324219 54.890625 L 229.652344 54.890625 Z M 229.652344 50.964844 "/>
<path style=" stroke:none;fill-rule:nonzero;fill:rgb(0%,0%,0%);fill-opacity:1;" d="M 237.390625 50.925781 C 237.390625 49.011719 238.542969 47.742188 239.226562 47.175781 C 239.578125 46.882812 240.222656 46.277344 240.222656 45.046875 C 240.222656 43.660156 239.363281 42.273438 236.824219 42.273438 C 235.4375 42.273438 234.421875 42.820312 233.894531 43.210938 L 234.285156 44.324219 C 235.28125 43.425781 236.296875 43.347656 236.84375 43.347656 C 237.820312 43.347656 238.855469 43.582031 238.855469 45.027344 C 238.855469 45.828125 238.484375 46.179688 238.171875 46.433594 C 237.175781 47.3125 236.21875 48.875 236.21875 50.867188 L 236.21875 51.785156 L 237.390625 51.785156 Z M 236.082031 54.890625 L 237.527344 54.890625 L 237.527344 53.445312 L 236.082031 53.445312 Z M 236.082031 54.890625 "/>
</g>
</svg>
