<?xml version="1.0" encoding="UTF-8"?>
<svg xmlns="http://www.w3.org/2000/svg" xmlns:xlink="http://www.w3.org/1999/xlink" width="283.75052pt" height="44.838543pt" viewBox="0 0 283.75052 44.838543" version="1.1">
<g id="surface1">
<path style=" stroke:none;fill-rule:nonzero;fill:rgb(0%,0%,0%);fill-opacity:1;" d="M 2.675781 20.527344 L 5.214844 20.527344 L 5.214844 20 L 2.675781 20 L 2.675781 16.699219 L 2.285156 16.699219 C 2.265625 18.398438 1.621094 20.117188 0 20.175781 L 0 20.527344 L 1.523438 20.527344 L 1.523438 25.507812 C 1.523438 27.5 2.832031 27.910156 3.789062 27.910156 C 4.921875 27.910156 5.507812 26.796875 5.507812 25.507812 L 5.507812 24.492188 L 5.117188 24.492188 L 5.117188 25.46875 C 5.117188 26.757812 4.589844 27.519531 3.90625 27.519531 C 2.675781 27.519531 2.675781 25.859375 2.675781 25.546875 Z M 2.675781 20.527344 "/>
<path style=" stroke:none;fill-rule:nonzero;fill:rgb(0%,0%,0%);fill-opacity:1;" d="M 13.480469 22.949219 C 13.480469 21.972656 13.480469 21.269531 12.699219 20.566406 C 12.074219 19.980469 11.273438 19.746094 10.472656 19.746094 C 9.007812 19.746094 7.875 20.703125 7.875 21.875 C 7.875 22.382812 8.207031 22.636719 8.636719 22.636719 C 9.066406 22.636719 9.359375 22.34375 9.359375 21.914062 C 9.359375 21.171875 8.714844 21.171875 8.441406 21.171875 C 8.871094 20.410156 9.730469 20.097656 10.433594 20.097656 C 11.273438 20.097656 12.328125 20.78125 12.328125 22.382812 L 12.328125 23.105469 C 8.714844 23.164062 7.347656 24.667969 7.347656 26.054688 C 7.347656 27.460938 9.007812 27.910156 10.101562 27.910156 C 11.273438 27.910156 12.09375 27.1875 12.425781 26.328125 C 12.503906 27.1875 13.050781 27.832031 13.832031 27.832031 C 14.203125 27.832031 15.238281 27.578125 15.238281 26.132812 L 15.238281 25.136719 L 14.847656 25.136719 L 14.847656 26.132812 C 14.847656 27.167969 14.417969 27.304688 14.164062 27.304688 C 13.480469 27.304688 13.480469 26.347656 13.480469 26.09375 Z M 12.328125 25.214844 C 12.328125 26.972656 11.019531 27.558594 10.238281 27.558594 C 9.359375 27.558594 8.636719 26.914062 8.636719 26.054688 C 8.636719 23.691406 11.683594 23.476562 12.328125 23.4375 Z M 12.328125 25.214844 "/>
<path style=" stroke:none;fill-rule:nonzero;fill:rgb(0%,0%,0%);fill-opacity:1;" d="M 23.40625 23.378906 C 23.40625 21.71875 23.40625 21.210938 22.976562 20.625 C 22.46875 19.941406 21.628906 19.824219 21.003906 19.824219 C 19.265625 19.824219 18.582031 21.308594 18.445312 21.679688 L 18.425781 21.679688 L 18.425781 19.824219 L 15.984375 20.019531 L 15.984375 20.546875 C 17.214844 20.546875 17.351562 20.664062 17.351562 21.542969 L 17.351562 26.40625 C 17.351562 27.207031 17.15625 27.207031 15.984375 27.207031 L 15.984375 27.734375 C 16.453125 27.695312 17.429688 27.695312 17.9375 27.695312 C 18.445312 27.695312 19.421875 27.695312 19.890625 27.734375 L 19.890625 27.207031 C 18.738281 27.207031 18.523438 27.207031 18.523438 26.40625 L 18.523438 23.066406 C 18.523438 21.191406 19.753906 20.195312 20.867188 20.195312 C 21.980469 20.195312 22.234375 21.09375 22.234375 22.1875 L 22.234375 26.40625 C 22.234375 27.207031 22.039062 27.207031 20.867188 27.207031 L 20.867188 27.734375 C 21.335938 27.695312 22.3125 27.695312 22.800781 27.695312 C 23.328125 27.695312 24.285156 27.695312 24.753906 27.734375 L 24.753906 27.207031 C 23.855469 27.207031 23.40625 27.207031 23.40625 26.679688 Z M 23.40625 23.378906 "/>
<path style=" stroke:none;fill-rule:nonzero;fill:rgb(0%,0%,0%);fill-opacity:1;" d="M 33.222656 17.511719 C 33.4375 17.511719 33.671875 17.511719 33.671875 17.257812 C 33.671875 17.023438 33.4375 17.023438 33.222656 17.023438 L 26.484375 17.023438 C 26.269531 17.023438 26.054688 17.023438 26.054688 17.257812 C 26.054688 17.511719 26.269531 17.511719 26.484375 17.511719 Z M 33.222656 17.511719 "/>
<path style=" stroke:none;fill-rule:nonzero;fill:rgb(0%,0%,0%);fill-opacity:1;" d="M 38.441406 12.414062 C 38.441406 12.101562 38.441406 12.082031 38.148438 12.082031 C 37.367188 12.882812 36.273438 12.882812 35.882812 12.882812 L 35.882812 13.273438 C 36.136719 13.273438 36.859375 13.273438 37.503906 12.941406 L 37.503906 19.40625 C 37.503906 19.855469 37.464844 19.992188 36.351562 19.992188 L 35.960938 19.992188 L 35.960938 20.382812 C 36.390625 20.34375 37.464844 20.34375 37.972656 20.34375 C 38.460938 20.34375 39.554688 20.34375 39.984375 20.382812 L 39.984375 19.992188 L 39.59375 19.992188 C 38.460938 19.992188 38.441406 19.855469 38.441406 19.40625 Z M 38.441406 12.414062 "/>
<path style=" stroke:none;fill-rule:nonzero;fill:rgb(0%,0%,0%);fill-opacity:1;" d="M 57.078125 44.644531 C 57.078125 44.585938 57.039062 44.546875 57 44.488281 C 56.335938 43.824219 55.125 42.632812 53.933594 40.699219 C 51.042969 36.070312 49.734375 30.230469 49.734375 23.335938 C 49.734375 18.511719 50.378906 12.28125 53.347656 6.949219 C 54.753906 4.390625 56.21875 2.925781 57.019531 2.144531 C 57.078125 2.085938 57.078125 2.046875 57.078125 1.988281 C 57.078125 1.8125 56.941406 1.8125 56.6875 1.8125 C 56.433594 1.8125 56.414062 1.8125 56.140625 2.085938 C 50.125 7.554688 48.25 15.757812 48.25 23.316406 C 48.25 30.367188 49.871094 37.457031 54.421875 42.828125 C 54.773438 43.238281 55.457031 43.960938 56.199219 44.625 C 56.414062 44.839844 56.433594 44.839844 56.6875 44.839844 C 56.941406 44.839844 57.078125 44.839844 57.078125 44.644531 Z M 57.078125 44.644531 "/>
<path style=" stroke:none;fill-rule:nonzero;fill:rgb(0%,0%,0%);fill-opacity:1;" d="M 67.109375 12.574219 L 66.71875 12.574219 C 66.660156 12.867188 66.523438 13.863281 66.328125 14.15625 C 66.210938 14.3125 65.195312 14.3125 64.648438 14.3125 L 61.328125 14.3125 C 61.816406 13.902344 62.910156 12.75 63.378906 12.320312 C 66.113281 9.800781 67.109375 8.882812 67.109375 7.105469 C 67.109375 5.035156 65.46875 3.667969 63.398438 3.667969 C 61.308594 3.667969 60.097656 5.425781 60.097656 6.96875 C 60.097656 7.886719 60.878906 7.886719 60.9375 7.886719 C 61.308594 7.886719 61.777344 7.613281 61.777344 7.046875 C 61.777344 6.539062 61.445312 6.207031 60.9375 6.207031 C 60.78125 6.207031 60.742188 6.207031 60.683594 6.226562 C 61.035156 4.996094 61.992188 4.175781 63.164062 4.175781 C 64.6875 4.175781 65.625 5.445312 65.625 7.105469 C 65.625 8.628906 64.746094 9.957031 63.710938 11.109375 L 60.097656 15.152344 L 60.097656 15.582031 L 66.640625 15.582031 Z M 67.109375 12.574219 "/>
<path style=" stroke:none;fill-rule:nonzero;fill:rgb(0%,0%,0%);fill-opacity:1;" d="M 76.566406 8.257812 C 76 8.375 75.785156 8.804688 75.785156 9.136719 C 75.785156 9.566406 76.117188 9.722656 76.371094 9.722656 C 76.917969 9.722656 77.289062 9.253906 77.289062 8.765625 C 77.289062 8.023438 76.429688 7.671875 75.667969 7.671875 C 74.574219 7.671875 73.96875 8.746094 73.8125 9.097656 C 73.402344 7.75 72.289062 7.671875 71.957031 7.671875 C 70.140625 7.671875 69.164062 10.015625 69.164062 10.425781 C 69.164062 10.484375 69.242188 10.582031 69.359375 10.582031 C 69.496094 10.582031 69.535156 10.464844 69.574219 10.40625 C 70.179688 8.414062 71.390625 8.042969 71.898438 8.042969 C 72.71875 8.042969 72.875 8.785156 72.875 9.214844 C 72.875 9.605469 72.777344 10.015625 72.542969 10.875 L 71.9375 13.335938 C 71.683594 14.410156 71.15625 15.40625 70.199219 15.40625 C 70.121094 15.40625 69.671875 15.40625 69.28125 15.171875 C 69.925781 15.035156 70.082031 14.507812 70.082031 14.292969 C 70.082031 13.941406 69.808594 13.726562 69.476562 13.726562 C 69.046875 13.726562 68.578125 14.097656 68.578125 14.664062 C 68.578125 15.425781 69.417969 15.757812 70.179688 15.757812 C 71.039062 15.757812 71.664062 15.074219 72.035156 14.351562 C 72.328125 15.40625 73.207031 15.757812 73.871094 15.757812 C 75.707031 15.757812 76.683594 13.414062 76.683594 13.023438 C 76.683594 12.925781 76.605469 12.847656 76.488281 12.847656 C 76.332031 12.847656 76.3125 12.945312 76.273438 13.082031 C 75.785156 14.664062 74.730469 15.40625 73.929688 15.40625 C 73.304688 15.40625 72.972656 14.9375 72.972656 14.195312 C 72.972656 13.804688 73.03125 13.511719 73.324219 12.339844 L 73.949219 9.898438 C 74.222656 8.824219 74.828125 8.042969 75.648438 8.042969 C 75.6875 8.042969 76.195312 8.042969 76.566406 8.257812 Z M 76.566406 8.257812 "/>
<path style=" stroke:none;fill-rule:nonzero;fill:rgb(0%,0%,0%);fill-opacity:1;" d="M 79.699219 8.175781 L 81.027344 6.886719 C 82.960938 5.167969 83.703125 4.503906 83.703125 3.253906 C 83.703125 1.828125 82.589844 0.832031 81.066406 0.832031 C 79.660156 0.832031 78.742188 1.984375 78.742188 3.097656 C 78.742188 3.78125 79.367188 3.78125 79.40625 3.78125 C 79.621094 3.78125 80.050781 3.644531 80.050781 3.117188 C 80.050781 2.804688 79.816406 2.472656 79.386719 2.472656 C 79.289062 2.472656 79.269531 2.472656 79.230469 2.492188 C 79.503906 1.671875 80.1875 1.222656 80.910156 1.222656 C 82.042969 1.222656 82.570312 2.238281 82.570312 3.253906 C 82.570312 4.25 81.964844 5.226562 81.261719 6.007812 L 78.878906 8.664062 C 78.742188 8.800781 78.742188 8.839844 78.742188 9.132812 L 83.371094 9.132812 L 83.703125 6.964844 L 83.410156 6.964844 C 83.332031 7.335938 83.253906 7.882812 83.117188 8.078125 C 83.039062 8.175781 82.21875 8.175781 81.945312 8.175781 Z M 79.699219 8.175781 "/>
<path style=" stroke:none;fill-rule:nonzero;fill:rgb(0%,0%,0%);fill-opacity:1;" d="M 100.734375 11.460938 C 101.046875 11.460938 101.359375 11.460938 101.359375 11.109375 C 101.359375 10.738281 101.046875 10.738281 100.734375 10.738281 L 91.027344 10.738281 C 90.734375 10.738281 90.402344 10.738281 90.402344 11.109375 C 90.402344 11.460938 90.734375 11.460938 91.027344 11.460938 Z M 100.734375 11.460938 "/>
<path style=" stroke:none;fill-rule:nonzero;fill:rgb(0%,0%,0%);fill-opacity:1;" d="M 111.925781 4.097656 C 111.925781 3.667969 111.925781 3.667969 111.574219 3.667969 C 111.144531 4.136719 110.246094 4.800781 108.410156 4.800781 L 108.410156 5.328125 C 108.820312 5.328125 109.71875 5.328125 110.695312 4.859375 L 110.695312 14.195312 C 110.695312 14.839844 110.636719 15.054688 109.074219 15.054688 L 108.507812 15.054688 L 108.507812 15.582031 C 108.996094 15.542969 110.734375 15.542969 111.320312 15.542969 C 111.90625 15.542969 113.644531 15.542969 114.113281 15.582031 L 114.113281 15.054688 L 113.566406 15.054688 C 111.984375 15.054688 111.925781 14.839844 111.925781 14.195312 Z M 111.925781 4.097656 "/>
<path style=" stroke:none;fill-rule:nonzero;fill:rgb(0%,0%,0%);fill-opacity:1;" d="M 123.507812 12.574219 L 123.117188 12.574219 C 123.058594 12.867188 122.921875 13.863281 122.726562 14.15625 C 122.609375 14.3125 121.59375 14.3125 121.046875 14.3125 L 117.726562 14.3125 C 118.214844 13.902344 119.308594 12.75 119.777344 12.320312 C 122.511719 9.800781 123.507812 8.882812 123.507812 7.105469 C 123.507812 5.035156 121.867188 3.667969 119.796875 3.667969 C 117.707031 3.667969 116.496094 5.425781 116.496094 6.96875 C 116.496094 7.886719 117.277344 7.886719 117.335938 7.886719 C 117.707031 7.886719 118.175781 7.613281 118.175781 7.046875 C 118.175781 6.539062 117.84375 6.207031 117.335938 6.207031 C 117.179688 6.207031 117.140625 6.207031 117.082031 6.226562 C 117.433594 4.996094 118.390625 4.175781 119.5625 4.175781 C 121.085938 4.175781 122.023438 5.445312 122.023438 7.105469 C 122.023438 8.628906 121.144531 9.957031 120.109375 11.109375 L 116.496094 15.152344 L 116.496094 15.582031 L 123.039062 15.582031 Z M 123.507812 12.574219 "/>
<path style=" stroke:none;fill-rule:nonzero;fill:rgb(0%,0%,0%);fill-opacity:1;" d="M 59.203125 22.949219 L 124.300781 22.949219 L 124.300781 23.699219 L 59.203125 23.699219 Z M 59.203125 22.949219 "/>
<path style=" stroke:none;fill-rule:nonzero;fill:rgb(0%,0%,0%);fill-opacity:1;" d="M 92.335938 35.914062 C 92.648438 35.914062 92.960938 35.914062 92.960938 35.5625 C 92.960938 35.191406 92.648438 35.191406 92.335938 35.191406 L 82.628906 35.191406 C 82.335938 35.191406 82.003906 35.191406 82.003906 35.5625 C 82.003906 35.914062 82.335938 35.914062 82.628906 35.914062 Z M 92.335938 35.914062 "/>
<path style=" stroke:none;fill-rule:nonzero;fill:rgb(0%,0%,0%);fill-opacity:1;" d="M 96.773438 29.761719 C 97.535156 30.015625 98.160156 30.035156 98.355469 30.035156 C 100.386719 30.035156 101.675781 28.550781 101.675781 28.296875 C 101.675781 28.21875 101.636719 28.121094 101.539062 28.121094 C 101.5 28.121094 101.460938 28.121094 101.304688 28.199219 C 100.289062 28.628906 99.429688 28.6875 98.960938 28.6875 C 97.789062 28.6875 96.949219 28.335938 96.597656 28.179688 C 96.480469 28.121094 96.441406 28.121094 96.421875 28.121094 C 96.285156 28.121094 96.285156 28.238281 96.285156 28.53125 L 96.285156 33.84375 C 96.285156 34.175781 96.285156 34.273438 96.5 34.273438 C 96.578125 34.273438 96.597656 34.253906 96.773438 34.039062 C 97.28125 33.316406 98.121094 32.886719 99.019531 32.886719 C 99.976562 32.886719 100.445312 33.765625 100.582031 34.058594 C 100.894531 34.761719 100.914062 35.640625 100.914062 36.324219 C 100.914062 37.007812 100.914062 38.023438 100.40625 38.824219 C 100.015625 39.488281 99.3125 39.917969 98.511719 39.917969 C 97.339844 39.917969 96.167969 39.117188 95.855469 37.808594 C 95.933594 37.847656 96.050781 37.867188 96.128906 37.867188 C 96.441406 37.867188 96.929688 37.691406 96.929688 37.085938 C 96.929688 36.578125 96.578125 36.285156 96.128906 36.285156 C 95.816406 36.285156 95.347656 36.441406 95.347656 37.144531 C 95.347656 38.667969 96.558594 40.40625 98.550781 40.40625 C 100.582031 40.40625 102.359375 38.707031 102.359375 36.421875 C 102.359375 34.292969 100.914062 32.515625 99.039062 32.515625 C 98.023438 32.515625 97.222656 32.964844 96.773438 33.472656 Z M 96.773438 29.761719 "/>
<path style=" stroke:none;fill-rule:nonzero;fill:rgb(0%,0%,0%);fill-opacity:1;" d="M 135.269531 23.335938 C 135.269531 16.285156 133.648438 9.195312 129.097656 3.824219 C 128.746094 3.414062 128.0625 2.671875 127.320312 2.027344 C 127.105469 1.8125 127.066406 1.8125 126.8125 1.8125 C 126.597656 1.8125 126.441406 1.8125 126.441406 1.988281 C 126.441406 2.066406 126.519531 2.144531 126.558594 2.183594 C 127.183594 2.828125 128.375 4.019531 129.585938 5.953125 C 132.476562 10.582031 133.785156 16.421875 133.785156 23.316406 C 133.785156 28.140625 133.140625 34.351562 130.171875 39.703125 C 128.765625 42.242188 127.261719 43.746094 126.519531 44.488281 C 126.480469 44.546875 126.441406 44.605469 126.441406 44.644531 C 126.441406 44.839844 126.597656 44.839844 126.8125 44.839844 C 127.066406 44.839844 127.105469 44.839844 127.378906 44.566406 C 133.375 39.097656 135.269531 30.875 135.269531 23.335938 Z M 135.269531 23.335938 "/>
<path style=" stroke:none;fill-rule:nonzero;fill:rgb(0%,0%,0%);fill-opacity:1;" d="M 156.078125 21.933594 C 156.332031 21.933594 156.644531 21.933594 156.644531 21.601562 C 156.644531 21.269531 156.332031 21.269531 156.078125 21.269531 L 145.511719 21.269531 C 145.257812 21.269531 144.945312 21.269531 144.945312 21.582031 C 144.945312 21.933594 145.238281 21.933594 145.511719 21.933594 Z M 156.078125 25.253906 C 156.332031 25.253906 156.644531 25.253906 156.644531 24.941406 C 156.644531 24.589844 156.332031 24.589844 156.078125 24.589844 L 145.511719 24.589844 C 145.257812 24.589844 144.945312 24.589844 144.945312 24.921875 C 144.945312 25.253906 145.238281 25.253906 145.511719 25.253906 Z M 156.078125 25.253906 "/>
<path style=" stroke:none;fill-rule:nonzero;fill:rgb(0%,0%,0%);fill-opacity:1;" d="M 168.867188 8.824219 L 170.878906 8.824219 C 170.410156 10.835938 170.097656 12.144531 170.097656 13.570312 C 170.097656 13.824219 170.097656 15.757812 170.839844 15.757812 C 171.210938 15.757812 171.542969 15.425781 171.542969 15.113281 C 171.542969 15.035156 171.542969 14.996094 171.40625 14.722656 C 170.917969 13.492188 170.917969 11.949219 170.917969 11.8125 C 170.917969 11.714844 170.917969 10.445312 171.308594 8.824219 L 173.300781 8.824219 C 173.535156 8.824219 174.140625 8.824219 174.140625 8.257812 C 174.140625 7.847656 173.789062 7.847656 173.476562 7.847656 L 167.578125 7.847656 C 167.167969 7.847656 166.542969 7.847656 165.722656 8.726562 C 165.253906 9.253906 164.6875 10.210938 164.6875 10.308594 C 164.6875 10.425781 164.765625 10.445312 164.882812 10.445312 C 165 10.445312 165.019531 10.40625 165.117188 10.289062 C 166.054688 8.824219 166.972656 8.824219 167.421875 8.824219 L 168.457031 8.824219 C 168.046875 10.171875 167.617188 11.734375 166.132812 14.859375 C 165.996094 15.152344 165.996094 15.191406 165.996094 15.289062 C 165.996094 15.679688 166.308594 15.757812 166.484375 15.757812 C 166.992188 15.757812 167.148438 15.289062 167.363281 14.546875 C 167.636719 13.628906 167.636719 13.589844 167.832031 12.867188 Z M 168.867188 8.824219 "/>
<path style=" stroke:none;fill-rule:nonzero;fill:rgb(0%,0%,0%);fill-opacity:1;" d="M 164.203125 22.949219 L 174.855469 22.949219 L 174.855469 23.699219 L 164.203125 23.699219 Z M 164.203125 22.949219 "/>
<path style=" stroke:none;fill-rule:nonzero;fill:rgb(0%,0%,0%);fill-opacity:1;" d="M 171.582031 28.355469 C 171.582031 28.023438 171.582031 27.925781 171.347656 27.925781 C 171.191406 27.925781 171.132812 27.925781 170.996094 28.140625 L 165.605469 36.519531 L 165.605469 37.046875 L 170.3125 37.046875 L 170.3125 38.667969 C 170.3125 39.332031 170.273438 39.507812 168.964844 39.507812 L 168.613281 39.507812 L 168.613281 40.035156 C 169.023438 39.996094 170.449219 39.996094 170.9375 39.996094 C 171.445312 39.996094 172.871094 39.996094 173.300781 40.035156 L 173.300781 39.507812 L 172.929688 39.507812 C 171.640625 39.507812 171.582031 39.332031 171.582031 38.667969 L 171.582031 37.046875 L 173.398438 37.046875 L 173.398438 36.519531 L 171.582031 36.519531 Z M 170.410156 29.761719 L 170.410156 36.519531 L 166.054688 36.519531 Z M 170.410156 29.761719 "/>
<path style=" stroke:none;fill-rule:nonzero;fill:rgb(0%,0%,0%);fill-opacity:1;" d="M 198.378906 21.933594 C 198.632812 21.933594 198.945312 21.933594 198.945312 21.601562 C 198.945312 21.269531 198.632812 21.269531 198.378906 21.269531 L 187.8125 21.269531 C 187.558594 21.269531 187.246094 21.269531 187.246094 21.582031 C 187.246094 21.933594 187.539062 21.933594 187.8125 21.933594 Z M 198.378906 25.253906 C 198.632812 25.253906 198.945312 25.253906 198.945312 24.941406 C 198.945312 24.589844 198.632812 24.589844 198.378906 24.589844 L 187.8125 24.589844 C 187.558594 24.589844 187.246094 24.589844 187.246094 24.921875 C 187.246094 25.253906 187.539062 25.253906 187.8125 25.253906 Z M 198.378906 25.253906 "/>
<path style=" stroke:none;fill-rule:nonzero;fill:rgb(0%,0%,0%);fill-opacity:1;" d="M 209.925781 21.875 C 210.6875 22.519531 211.605469 22.988281 212.191406 23.261719 C 211.546875 23.535156 210.667969 24.003906 209.925781 24.628906 L 198.558594 24.628906 C 198.246094 24.628906 197.894531 24.628906 197.894531 25 C 197.894531 25.351562 198.226562 25.351562 198.539062 25.351562 L 209.125 25.351562 C 208.265625 26.171875 207.328125 27.753906 207.328125 27.988281 C 207.328125 28.183594 207.5625 28.183594 207.679688 28.183594 C 207.816406 28.183594 207.953125 28.183594 208.011719 28.046875 C 208.402344 27.363281 208.890625 26.40625 210.0625 25.371094 C 211.292969 24.277344 212.503906 23.789062 213.421875 23.515625 C 213.734375 23.417969 213.753906 23.398438 213.792969 23.359375 C 213.832031 23.339844 213.832031 23.28125 213.832031 23.261719 C 213.832031 23.222656 213.832031 23.183594 213.8125 23.144531 L 213.753906 23.105469 C 213.714844 23.085938 213.695312 23.066406 213.363281 22.96875 C 210.941406 22.246094 209.144531 20.625 208.148438 18.691406 C 207.953125 18.339844 207.933594 18.320312 207.679688 18.320312 C 207.5625 18.320312 207.328125 18.320312 207.328125 18.515625 C 207.328125 18.75 208.246094 20.3125 209.125 21.152344 L 198.539062 21.152344 C 198.226562 21.152344 197.894531 21.152344 197.894531 21.503906 C 197.894531 21.875 198.246094 21.875 198.558594 21.875 Z M 209.925781 21.875 "/>
<path style=" stroke:none;fill-rule:nonzero;fill:rgb(0%,0%,0%);fill-opacity:1;" d="M 233.3125 20.410156 C 232.746094 20.527344 232.53125 20.957031 232.53125 21.289062 C 232.53125 21.71875 232.863281 21.875 233.117188 21.875 C 233.664062 21.875 234.035156 21.40625 234.035156 20.917969 C 234.035156 20.175781 233.175781 19.824219 232.414062 19.824219 C 231.320312 19.824219 230.714844 20.898438 230.558594 21.25 C 230.148438 19.902344 229.035156 19.824219 228.703125 19.824219 C 226.886719 19.824219 225.910156 22.167969 225.910156 22.578125 C 225.910156 22.636719 225.988281 22.734375 226.105469 22.734375 C 226.242188 22.734375 226.28125 22.617188 226.320312 22.558594 C 226.925781 20.566406 228.136719 20.195312 228.644531 20.195312 C 229.464844 20.195312 229.621094 20.9375 229.621094 21.367188 C 229.621094 21.757812 229.523438 22.167969 229.289062 23.027344 L 228.683594 25.488281 C 228.429688 26.5625 227.902344 27.558594 226.945312 27.558594 C 226.867188 27.558594 226.417969 27.558594 226.027344 27.324219 C 226.671875 27.1875 226.828125 26.660156 226.828125 26.445312 C 226.828125 26.09375 226.554688 25.878906 226.222656 25.878906 C 225.792969 25.878906 225.324219 26.25 225.324219 26.816406 C 225.324219 27.578125 226.164062 27.910156 226.925781 27.910156 C 227.785156 27.910156 228.410156 27.226562 228.78125 26.503906 C 229.074219 27.558594 229.953125 27.910156 230.617188 27.910156 C 232.453125 27.910156 233.429688 25.566406 233.429688 25.175781 C 233.429688 25.078125 233.351562 25 233.234375 25 C 233.078125 25 233.058594 25.097656 233.019531 25.234375 C 232.53125 26.816406 231.476562 27.558594 230.675781 27.558594 C 230.050781 27.558594 229.71875 27.089844 229.71875 26.347656 C 229.71875 25.957031 229.777344 25.664062 230.070312 24.492188 L 230.695312 22.050781 C 230.96875 20.976562 231.574219 20.195312 232.394531 20.195312 C 232.433594 20.195312 232.941406 20.195312 233.3125 20.410156 Z M 233.3125 20.410156 "/>
<path style=" stroke:none;fill-rule:nonzero;fill:rgb(0%,0%,0%);fill-opacity:1;" d="M 251.925781 21.933594 C 252.179688 21.933594 252.492188 21.933594 252.492188 21.601562 C 252.492188 21.269531 252.179688 21.269531 251.925781 21.269531 L 241.359375 21.269531 C 241.105469 21.269531 240.792969 21.269531 240.792969 21.582031 C 240.792969 21.933594 241.085938 21.933594 241.359375 21.933594 Z M 251.925781 25.253906 C 252.179688 25.253906 252.492188 25.253906 252.492188 24.941406 C 252.492188 24.589844 252.179688 24.589844 251.925781 24.589844 L 241.359375 24.589844 C 241.105469 24.589844 240.792969 24.589844 240.792969 24.921875 C 240.792969 25.253906 241.085938 25.253906 241.359375 25.253906 Z M 251.925781 25.253906 "/>
<path style=" stroke:none;fill-rule:nonzero;fill:rgb(0%,0%,0%);fill-opacity:1;" d="M 266.890625 16.066406 L 263.746094 9.09375 C 263.609375 8.800781 263.53125 8.800781 263.472656 8.800781 C 263.453125 8.800781 263.355469 8.800781 263.160156 8.9375 L 261.460938 10.246094 C 261.226562 10.421875 261.226562 10.460938 261.226562 10.519531 C 261.226562 10.617188 261.285156 10.714844 261.402344 10.714844 C 261.519531 10.714844 261.8125 10.460938 262.007812 10.324219 C 262.125 10.246094 262.398438 10.03125 262.59375 9.894531 L 266.128906 17.667969 C 266.246094 17.941406 266.34375 17.941406 266.5 17.941406 C 266.773438 17.941406 266.8125 17.84375 266.949219 17.589844 L 275.09375 0.734375 C 275.210938 0.480469 275.210938 0.402344 275.210938 0.382812 C 275.210938 0.1875 275.074219 0.0117188 274.859375 0.0117188 C 274.703125 0.0117188 274.585938 0.109375 274.449219 0.402344 Z M 266.890625 16.066406 "/>
<path style=" stroke:none;fill-rule:nonzero;fill:rgb(0%,0%,0%);fill-opacity:1;" d="M 274.75 0 L 283.597656 0 L 283.597656 0.75 L 274.75 0.75 Z M 274.75 0 "/>
<path style=" stroke:none;fill-rule:nonzero;fill:rgb(0%,0%,0%);fill-opacity:1;" d="M 278.070312 9.136719 C 277.757812 9.15625 277.699219 9.175781 277.699219 9.351562 C 277.699219 9.527344 277.777344 9.527344 278.109375 9.527344 L 278.929688 9.527344 C 280.453125 9.527344 281.136719 10.777344 281.136719 12.496094 C 281.136719 14.839844 279.90625 15.464844 279.027344 15.464844 C 278.167969 15.464844 276.703125 15.054688 276.195312 13.882812 C 276.761719 13.960938 277.289062 13.648438 277.289062 13.003906 C 277.289062 12.476562 276.898438 12.125 276.410156 12.125 C 275.980469 12.125 275.511719 12.378906 275.511719 13.0625 C 275.511719 14.644531 277.09375 15.953125 279.085938 15.953125 C 281.214844 15.953125 282.796875 14.332031 282.796875 12.515625 C 282.796875 10.875 281.46875 9.566406 279.75 9.273438 C 281.3125 8.824219 282.308594 7.515625 282.308594 6.109375 C 282.308594 4.703125 280.84375 3.667969 279.105469 3.667969 C 277.308594 3.667969 275.980469 4.761719 275.980469 6.070312 C 275.980469 6.773438 276.546875 6.929688 276.820312 6.929688 C 277.191406 6.929688 277.621094 6.65625 277.621094 6.109375 C 277.621094 5.542969 277.191406 5.289062 276.800781 5.289062 C 276.683594 5.289062 276.644531 5.289062 276.605469 5.308594 C 277.289062 4.097656 278.96875 4.097656 279.046875 4.097656 C 279.652344 4.097656 280.804688 4.351562 280.804688 6.109375 C 280.804688 6.460938 280.765625 7.457031 280.238281 8.238281 C 279.691406 9.019531 279.085938 9.078125 278.597656 9.097656 Z M 278.070312 9.136719 "/>
<path style=" stroke:none;fill-rule:nonzero;fill:rgb(0%,0%,0%);fill-opacity:1;" d="M 259.902344 22.949219 L 283.75 22.949219 L 283.75 23.699219 L 259.902344 23.699219 Z M 259.902344 22.949219 "/>
<path style=" stroke:none;fill-rule:nonzero;fill:rgb(0%,0%,0%);fill-opacity:1;" d="M 266.890625 42.617188 L 263.746094 35.644531 C 263.609375 35.351562 263.53125 35.351562 263.472656 35.351562 C 263.453125 35.351562 263.355469 35.351562 263.160156 35.488281 L 261.460938 36.796875 C 261.226562 36.972656 261.226562 37.011719 261.226562 37.070312 C 261.226562 37.167969 261.285156 37.265625 261.402344 37.265625 C 261.519531 37.265625 261.8125 37.011719 262.007812 36.875 C 262.125 36.796875 262.398438 36.582031 262.59375 36.445312 L 266.128906 44.21875 C 266.246094 44.492188 266.34375 44.492188 266.5 44.492188 C 266.773438 44.492188 266.8125 44.394531 266.949219 44.140625 L 275.09375 27.285156 C 275.210938 27.03125 275.210938 26.953125 275.210938 26.933594 C 275.210938 26.738281 275.074219 26.5625 274.859375 26.5625 C 274.703125 26.5625 274.585938 26.660156 274.449219 26.953125 Z M 266.890625 42.617188 "/>
<path style=" stroke:none;fill-rule:nonzero;fill:rgb(0%,0%,0%);fill-opacity:1;" d="M 274.75 26.546875 L 283.597656 26.546875 L 283.597656 27.300781 L 274.75 27.300781 Z M 274.75 26.546875 "/>
<path style=" stroke:none;fill-rule:nonzero;fill:rgb(0%,0%,0%);fill-opacity:1;" d="M 282.660156 38.976562 L 282.269531 38.976562 C 282.210938 39.269531 282.074219 40.265625 281.878906 40.558594 C 281.761719 40.714844 280.746094 40.714844 280.199219 40.714844 L 276.878906 40.714844 C 277.367188 40.304688 278.460938 39.152344 278.929688 38.722656 C 281.664062 36.203125 282.660156 35.285156 282.660156 33.507812 C 282.660156 31.4375 281.019531 30.070312 278.949219 30.070312 C 276.859375 30.070312 275.648438 31.828125 275.648438 33.371094 C 275.648438 34.289062 276.429688 34.289062 276.488281 34.289062 C 276.859375 34.289062 277.328125 34.015625 277.328125 33.449219 C 277.328125 32.941406 276.996094 32.609375 276.488281 32.609375 C 276.332031 32.609375 276.292969 32.609375 276.234375 32.628906 C 276.585938 31.398438 277.542969 30.578125 278.714844 30.578125 C 280.238281 30.578125 281.175781 31.847656 281.175781 33.507812 C 281.175781 35.03125 280.296875 36.359375 279.261719 37.511719 L 275.648438 41.554688 L 275.648438 41.984375 L 282.191406 41.984375 Z M 282.660156 38.976562 "/>
</g>
</svg>
