<?xml version="1.0" encoding="UTF-8"?>
<svg xmlns="http://www.w3.org/2000/svg" xmlns:xlink="http://www.w3.org/1999/xlink" width="282.7221pt" height="58.563032pt" viewBox="0 0 282.7221 58.563032" version="1.1">
<g id="surface1">
<path style=" stroke:none;fill-rule:nonzero;fill:rgb(0%,0%,100%);fill-opacity:1;" d="M 2.421875 0 L 0.878906 0 L 0.878906 12.441406 L 2.421875 12.441406 Z M 2.421875 0 "/>
<path style=" stroke:none;fill-rule:nonzero;fill:rgb(0%,0%,100%);fill-opacity:1;" d="M 11.65625 7.050781 C 11.65625 5.957031 11.421875 4.296875 9.253906 4.296875 C 8.257812 4.296875 7.398438 4.746094 6.714844 5.605469 L 6.714844 4.394531 L 5.445312 4.394531 L 5.445312 12.441406 L 6.792969 12.441406 L 6.792969 7.96875 C 6.792969 6.875 7.222656 5.371094 8.570312 5.371094 C 10.25 5.371094 10.289062 6.542969 10.289062 7.167969 L 10.289062 12.441406 L 11.65625 12.441406 Z M 11.65625 7.050781 "/>
<path style=" stroke:none;fill-rule:nonzero;fill:rgb(0%,0%,100%);fill-opacity:1;" d="M 16.125 5.527344 L 18.605469 5.527344 L 18.605469 4.472656 L 16.125 4.472656 L 16.125 2.207031 L 14.894531 2.207031 L 14.894531 4.472656 L 13.390625 4.472656 L 13.390625 5.527344 L 14.855469 5.527344 L 14.855469 10.351562 C 14.855469 11.386719 15.089844 12.617188 16.320312 12.617188 C 17.53125 12.617188 18.351562 12.207031 18.898438 11.914062 L 18.625 10.878906 C 18 11.445312 17.335938 11.503906 17.023438 11.503906 C 16.222656 11.503906 16.125 10.664062 16.125 10.039062 Z M 16.125 5.527344 "/>
<path style=" stroke:none;fill-rule:nonzero;fill:rgb(0%,0%,100%);fill-opacity:1;" d="M 26.660156 8.398438 C 26.660156 7.636719 26.582031 6.542969 26.015625 5.585938 C 25.273438 4.355469 24.023438 4.21875 23.496094 4.21875 C 21.5625 4.21875 19.941406 6.074219 19.941406 8.398438 C 19.941406 10.78125 21.660156 12.617188 23.75 12.617188 C 24.570312 12.617188 25.566406 12.382812 26.542969 11.679688 C 26.542969 11.601562 26.484375 11.035156 26.484375 11.015625 C 26.464844 10.996094 26.445312 10.585938 26.445312 10.527344 C 25.371094 11.425781 24.316406 11.542969 23.789062 11.542969 C 22.402344 11.542969 21.210938 10.3125 21.191406 8.398438 Z M 21.289062 7.441406 C 21.601562 6.230469 22.441406 5.292969 23.496094 5.292969 C 24.0625 5.292969 25.292969 5.546875 25.585938 7.441406 Z M 21.289062 7.441406 "/>
<path style=" stroke:none;fill-rule:nonzero;fill:rgb(0%,0%,100%);fill-opacity:1;" d="M 33.269531 5.371094 C 33.269531 5.371094 33.308594 5.410156 33.328125 5.449219 C 33.699219 5.410156 34.089844 5.351562 34.753906 5.351562 C 34.8125 5.351562 35.222656 5.351562 35.671875 5.390625 L 35.476562 4.296875 C 35.144531 4.296875 33.914062 4.316406 32.722656 4.902344 C 32.136719 4.394531 31.414062 4.296875 31.0625 4.296875 C 29.5 4.296875 28.25 5.605469 28.25 7.1875 C 28.25 7.832031 28.445312 8.417969 28.835938 8.964844 C 28.425781 9.53125 28.328125 10.078125 28.328125 10.507812 C 28.328125 11.171875 28.582031 11.621094 28.777344 11.855469 C 27.859375 12.441406 27.644531 13.203125 27.644531 13.710938 C 27.644531 15.019531 29.34375 16.113281 31.53125 16.113281 C 33.71875 16.113281 35.4375 15.058594 35.4375 13.691406 C 35.4375 11.191406 32.527344 11.191406 31.804688 11.191406 L 30.28125 11.191406 C 30.027344 11.191406 29.246094 11.191406 29.246094 10.234375 C 29.246094 9.84375 29.324219 9.726562 29.441406 9.570312 C 29.734375 9.785156 30.320312 10.097656 31.042969 10.097656 C 32.585938 10.097656 33.855469 8.828125 33.855469 7.1875 C 33.855469 6.542969 33.621094 5.878906 33.25 5.390625 Z M 31.0625 9.101562 C 30.28125 9.101562 29.480469 8.574219 29.480469 7.207031 C 29.480469 5.605469 30.496094 5.292969 31.042969 5.292969 C 31.84375 5.292969 32.625 5.820312 32.625 7.1875 C 32.625 8.789062 31.628906 9.101562 31.0625 9.101562 Z M 31.824219 12.480469 C 32.214844 12.480469 34.1875 12.480469 34.1875 13.710938 C 34.1875 14.53125 32.957031 15.136719 31.550781 15.136719 C 30.144531 15.136719 28.894531 14.570312 28.894531 13.691406 C 28.894531 13.652344 28.894531 12.480469 30.261719 12.480469 Z M 31.824219 12.480469 "/>
<path style=" stroke:none;fill-rule:nonzero;fill:rgb(0%,0%,100%);fill-opacity:1;" d="M 38.742188 8.515625 C 38.742188 6.699219 40.089844 5.527344 41.710938 5.507812 L 41.710938 4.296875 C 40.070312 4.316406 39.132812 5.273438 38.644531 5.976562 L 38.644531 4.394531 L 37.414062 4.394531 L 37.414062 12.441406 L 38.742188 12.441406 Z M 38.742188 8.515625 "/>
<path style=" stroke:none;fill-rule:nonzero;fill:rgb(0%,0%,100%);fill-opacity:1;" d="M 49.019531 7.1875 C 49.019531 5.46875 47.789062 4.21875 46.109375 4.21875 C 45.035156 4.21875 44.234375 4.453125 43.355469 4.960938 L 43.453125 6.152344 C 44.253906 5.566406 45.074219 5.253906 46.109375 5.253906 C 46.929688 5.253906 47.652344 5.917969 47.652344 7.226562 L 47.652344 7.96875 C 46.851562 7.988281 45.777344 8.046875 44.703125 8.398438 C 43.492188 8.828125 42.789062 9.492188 42.789062 10.371094 C 42.789062 11.171875 43.257812 12.617188 44.78125 12.617188 C 45.777344 12.617188 47.027344 12.324219 47.691406 11.777344 L 47.691406 12.441406 L 49.019531 12.441406 Z M 47.652344 10.039062 C 47.652344 10.390625 47.652344 10.820312 47.066406 11.191406 C 46.578125 11.484375 45.972656 11.542969 45.699219 11.542969 C 44.742188 11.542969 44.078125 11.015625 44.078125 10.371094 C 44.078125 9.140625 46.558594 8.867188 47.652344 8.867188 Z M 47.652344 10.039062 "/>
<path style=" stroke:none;fill-rule:nonzero;fill:rgb(0%,0%,100%);fill-opacity:1;" d="M 53.472656 5.527344 L 55.953125 5.527344 L 55.953125 4.472656 L 53.472656 4.472656 L 53.472656 2.207031 L 52.242188 2.207031 L 52.242188 4.472656 L 50.738281 4.472656 L 50.738281 5.527344 L 52.203125 5.527344 L 52.203125 10.351562 C 52.203125 11.386719 52.4375 12.617188 53.667969 12.617188 C 54.878906 12.617188 55.699219 12.207031 56.246094 11.914062 L 55.972656 10.878906 C 55.347656 11.445312 54.683594 11.503906 54.371094 11.503906 C 53.570312 11.503906 53.472656 10.664062 53.472656 10.039062 Z M 53.472656 5.527344 "/>
<path style=" stroke:none;fill-rule:nonzero;fill:rgb(0%,0%,100%);fill-opacity:1;" d="M 59.539062 0.273438 L 57.996094 0.273438 L 57.996094 1.816406 L 59.539062 1.816406 Z M 59.441406 4.472656 L 58.113281 4.472656 L 58.113281 12.441406 L 59.441406 12.441406 Z M 59.441406 4.472656 "/>
<path style=" stroke:none;fill-rule:nonzero;fill:rgb(0%,0%,100%);fill-opacity:1;" d="M 69.128906 8.496094 C 69.128906 6.074219 67.351562 4.21875 65.300781 4.21875 C 63.191406 4.21875 61.453125 6.113281 61.453125 8.496094 C 61.453125 10.839844 63.230469 12.617188 65.28125 12.617188 C 67.390625 12.617188 69.128906 10.800781 69.128906 8.496094 Z M 65.300781 11.503906 C 64.011719 11.503906 62.800781 10.429688 62.800781 8.320312 C 62.800781 6.152344 64.148438 5.292969 65.28125 5.292969 C 66.511719 5.292969 67.78125 6.210938 67.78125 8.320312 C 67.78125 10.527344 66.492188 11.503906 65.300781 11.503906 Z M 65.300781 11.503906 "/>
<path style=" stroke:none;fill-rule:nonzero;fill:rgb(0%,0%,100%);fill-opacity:1;" d="M 77.355469 7.050781 C 77.355469 5.957031 77.121094 4.296875 74.953125 4.296875 C 73.957031 4.296875 73.097656 4.746094 72.414062 5.605469 L 72.414062 4.394531 L 71.144531 4.394531 L 71.144531 12.441406 L 72.492188 12.441406 L 72.492188 7.96875 C 72.492188 6.875 72.921875 5.371094 74.269531 5.371094 C 75.949219 5.371094 75.988281 6.542969 75.988281 7.167969 L 75.988281 12.441406 L 77.355469 12.441406 Z M 77.355469 7.050781 "/>
<path style=" stroke:none;fill-rule:nonzero;fill:rgb(0%,0%,100%);fill-opacity:1;" d="M 87.191406 0 L 85.863281 0 L 85.863281 12.441406 L 87.210938 12.441406 L 87.210938 11.640625 C 88.050781 12.421875 88.929688 12.617188 89.554688 12.617188 C 91.253906 12.617188 92.816406 10.878906 92.816406 8.4375 C 92.816406 6.230469 91.625 4.296875 89.964844 4.296875 C 89.4375 4.296875 88.285156 4.414062 87.191406 5.3125 Z M 87.210938 6.40625 C 87.542969 5.898438 88.1875 5.371094 89.066406 5.371094 C 90.160156 5.371094 91.449219 6.210938 91.449219 8.4375 C 91.449219 10.78125 89.984375 11.542969 88.890625 11.542969 C 88.382812 11.542969 88.050781 11.367188 87.71875 11.113281 C 87.289062 10.742188 87.210938 10.410156 87.210938 10.117188 Z M 87.210938 6.40625 "/>
<path style=" stroke:none;fill-rule:nonzero;fill:rgb(0%,0%,100%);fill-opacity:1;" d="M 100.761719 4.472656 L 99.433594 4.472656 C 98.59375 6.601562 97.226562 10.117188 97.148438 11.40625 L 97.128906 11.40625 C 97.050781 10.351562 96.09375 7.96875 95.957031 7.617188 L 94.667969 4.472656 L 93.261719 4.472656 L 96.601562 12.441406 L 95.957031 14.082031 C 95.566406 14.960938 95.3125 15.058594 94.980469 15.058594 C 94.726562 15.058594 94.160156 15 93.59375 14.785156 L 93.710938 15.957031 C 93.808594 15.976562 94.414062 16.09375 94.980469 16.09375 C 95.410156 16.09375 96.25 16.09375 97.03125 14.121094 Z M 100.761719 4.472656 "/>
<path style=" stroke:none;fill-rule:nonzero;fill:rgb(0%,0%,100%);fill-opacity:1;" d="M 112.972656 7.265625 C 115.433594 7.265625 117.132812 5.488281 117.132812 3.613281 C 117.132812 1.71875 115.394531 0 112.972656 0 L 108.597656 0 L 108.597656 12.441406 L 110.121094 12.441406 L 110.121094 7.265625 Z M 112.582031 0.996094 C 114.691406 0.996094 115.726562 2.265625 115.726562 3.59375 C 115.726562 5.019531 114.632812 6.210938 112.582031 6.210938 L 110.101562 6.210938 L 110.101562 0.996094 Z M 112.582031 0.996094 "/>
<path style=" stroke:none;fill-rule:nonzero;fill:rgb(0%,0%,100%);fill-opacity:1;" d="M 124.617188 7.1875 C 124.617188 5.46875 123.386719 4.21875 121.707031 4.21875 C 120.632812 4.21875 119.832031 4.453125 118.953125 4.960938 L 119.050781 6.152344 C 119.851562 5.566406 120.671875 5.253906 121.707031 5.253906 C 122.527344 5.253906 123.25 5.917969 123.25 7.226562 L 123.25 7.96875 C 122.449219 7.988281 121.375 8.046875 120.300781 8.398438 C 119.089844 8.828125 118.386719 9.492188 118.386719 10.371094 C 118.386719 11.171875 118.855469 12.617188 120.378906 12.617188 C 121.375 12.617188 122.625 12.324219 123.289062 11.777344 L 123.289062 12.441406 L 124.617188 12.441406 Z M 123.25 10.039062 C 123.25 10.390625 123.25 10.820312 122.664062 11.191406 C 122.175781 11.484375 121.570312 11.542969 121.296875 11.542969 C 120.339844 11.542969 119.675781 11.015625 119.675781 10.371094 C 119.675781 9.140625 122.15625 8.867188 123.25 8.867188 Z M 123.25 10.039062 "/>
<path style=" stroke:none;fill-rule:nonzero;fill:rgb(0%,0%,100%);fill-opacity:1;" d="M 128.292969 8.515625 C 128.292969 6.699219 129.640625 5.527344 131.261719 5.507812 L 131.261719 4.296875 C 129.621094 4.316406 128.683594 5.273438 128.195312 5.976562 L 128.195312 4.394531 L 126.964844 4.394531 L 126.964844 12.441406 L 128.292969 12.441406 Z M 128.292969 8.515625 "/>
<path style=" stroke:none;fill-rule:nonzero;fill:rgb(0%,0%,100%);fill-opacity:1;" d="M 134.625 5.527344 L 137.105469 5.527344 L 137.105469 4.472656 L 134.625 4.472656 L 134.625 2.207031 L 133.394531 2.207031 L 133.394531 4.472656 L 131.890625 4.472656 L 131.890625 5.527344 L 133.355469 5.527344 L 133.355469 10.351562 C 133.355469 11.386719 133.589844 12.617188 134.820312 12.617188 C 136.03125 12.617188 136.851562 12.207031 137.398438 11.914062 L 137.125 10.878906 C 136.5 11.445312 135.835938 11.503906 135.523438 11.503906 C 134.722656 11.503906 134.625 10.664062 134.625 10.039062 Z M 134.625 5.527344 "/>
<path style=" stroke:none;fill-rule:nonzero;fill:rgb(0%,0%,100%);fill-opacity:1;" d="M 143.871094 4.765625 C 142.738281 4.238281 141.761719 4.21875 141.351562 4.21875 C 140.941406 4.21875 138.441406 4.21875 138.441406 6.542969 C 138.441406 7.324219 138.871094 7.871094 139.144531 8.125 C 139.789062 8.671875 140.238281 8.769531 141.292969 8.984375 C 141.898438 9.101562 142.933594 9.316406 142.933594 10.273438 C 142.933594 11.503906 141.527344 11.503906 141.273438 11.503906 C 140.570312 11.503906 139.515625 11.308594 138.558594 10.605469 L 138.34375 11.835938 C 138.421875 11.894531 139.652344 12.617188 141.292969 12.617188 C 143.617188 12.617188 144.164062 11.230469 144.164062 10.15625 C 144.164062 9.257812 143.617188 8.671875 143.539062 8.59375 C 142.875 7.910156 142.328125 7.792969 141.253906 7.578125 C 140.589844 7.460938 139.691406 7.285156 139.691406 6.386719 C 139.691406 5.273438 140.941406 5.273438 141.175781 5.273438 C 142.113281 5.273438 142.875 5.488281 143.65625 5.9375 Z M 143.871094 4.765625 "/>
<path style=" stroke:none;fill-rule:nonzero;fill:rgb(0%,0%,100%);fill-opacity:1;" d="M 147.769531 4.472656 L 146.304688 4.472656 L 146.304688 5.9375 L 147.769531 5.9375 Z M 146.304688 10.996094 L 146.304688 12.441406 L 147.769531 12.441406 L 147.769531 10.996094 Z M 146.304688 10.996094 "/>
<path style=" stroke:none;fill-rule:nonzero;fill:rgb(0%,0%,0%);fill-opacity:1;" d="M 8.222656 27.671875 L 8.222656 26.597656 L 2.421875 26.597656 L 2.421875 22.300781 L 4.84375 22.300781 C 5.058594 22.300781 5.273438 22.320312 5.488281 22.320312 L 8.730469 22.320312 L 8.730469 21.1875 L 0.878906 21.1875 L 0.878906 33.589844 L 8.964844 33.589844 L 8.964844 32.378906 L 6.601562 32.378906 C 6.386719 32.378906 6.171875 32.378906 5.957031 32.378906 L 2.421875 32.378906 L 2.421875 27.671875 Z M 8.222656 27.671875 "/>
<path style=" stroke:none;fill-rule:nonzero;fill:rgb(0%,0%,0%);fill-opacity:1;" d="M 17.511719 25.621094 L 16.183594 25.621094 L 14.875 29.195312 C 14.5625 30.054688 13.898438 31.949219 13.800781 32.613281 L 13.78125 32.613281 C 13.683594 31.988281 13.332031 31.011719 13.058594 30.230469 L 11.398438 25.621094 L 10.011719 25.621094 L 12.960938 33.589844 L 14.5625 33.589844 Z M 17.511719 25.621094 "/>
<path style=" stroke:none;fill-rule:nonzero;fill:rgb(0%,0%,0%);fill-opacity:1;" d="M 24.867188 28.335938 C 24.867188 26.617188 23.636719 25.367188 21.957031 25.367188 C 20.882812 25.367188 20.082031 25.601562 19.203125 26.109375 L 19.300781 27.300781 C 20.101562 26.714844 20.921875 26.402344 21.957031 26.402344 C 22.777344 26.402344 23.5 27.066406 23.5 28.375 L 23.5 29.117188 C 22.699219 29.136719 21.625 29.195312 20.550781 29.546875 C 19.339844 29.976562 18.636719 30.640625 18.636719 31.519531 C 18.636719 32.320312 19.105469 33.765625 20.628906 33.765625 C 21.625 33.765625 22.875 33.472656 23.539062 32.925781 L 23.539062 33.589844 L 24.867188 33.589844 Z M 23.5 31.1875 C 23.5 31.539062 23.5 31.96875 22.914062 32.339844 C 22.425781 32.632812 21.820312 32.691406 21.546875 32.691406 C 20.589844 32.691406 19.925781 32.164062 19.925781 31.519531 C 19.925781 30.289062 22.40625 30.015625 23.5 30.015625 Z M 23.5 31.1875 "/>
<path style=" stroke:none;fill-rule:nonzero;fill:rgb(0%,0%,0%);fill-opacity:1;" d="M 28.992188 21.148438 L 27.664062 21.148438 L 27.664062 33.589844 L 28.992188 33.589844 Z M 28.992188 21.148438 "/>
<path style=" stroke:none;fill-rule:nonzero;fill:rgb(0%,0%,0%);fill-opacity:1;" d="M 38.054688 25.621094 L 36.6875 25.621094 L 36.6875 30.757812 C 36.6875 32.125 35.75 32.789062 34.578125 32.789062 C 33.328125 32.789062 33.191406 32.320312 33.191406 31.519531 L 33.191406 25.621094 L 31.84375 25.621094 L 31.84375 31.597656 C 31.84375 32.886719 32.253906 33.765625 33.71875 33.765625 C 34.226562 33.765625 35.632812 33.6875 36.726562 32.691406 L 36.726562 33.589844 L 38.054688 33.589844 Z M 38.054688 25.621094 "/>
<path style=" stroke:none;fill-rule:nonzero;fill:rgb(0%,0%,0%);fill-opacity:1;" d="M 46.46875 28.335938 C 46.46875 26.617188 45.238281 25.367188 43.558594 25.367188 C 42.484375 25.367188 41.683594 25.601562 40.804688 26.109375 L 40.902344 27.300781 C 41.703125 26.714844 42.523438 26.402344 43.558594 26.402344 C 44.378906 26.402344 45.101562 27.066406 45.101562 28.375 L 45.101562 29.117188 C 44.300781 29.136719 43.226562 29.195312 42.152344 29.546875 C 40.941406 29.976562 40.238281 30.640625 40.238281 31.519531 C 40.238281 32.320312 40.707031 33.765625 42.230469 33.765625 C 43.226562 33.765625 44.476562 33.472656 45.140625 32.925781 L 45.140625 33.589844 L 46.46875 33.589844 Z M 45.101562 31.1875 C 45.101562 31.539062 45.101562 31.96875 44.515625 32.339844 C 44.027344 32.632812 43.421875 32.691406 43.148438 32.691406 C 42.191406 32.691406 41.527344 32.164062 41.527344 31.519531 C 41.527344 30.289062 44.007812 30.015625 45.101562 30.015625 Z M 45.101562 31.1875 "/>
<path style=" stroke:none;fill-rule:nonzero;fill:rgb(0%,0%,0%);fill-opacity:1;" d="M 50.921875 26.675781 L 53.402344 26.675781 L 53.402344 25.621094 L 50.921875 25.621094 L 50.921875 23.355469 L 49.691406 23.355469 L 49.691406 25.621094 L 48.1875 25.621094 L 48.1875 26.675781 L 49.652344 26.675781 L 49.652344 31.5 C 49.652344 32.535156 49.886719 33.765625 51.117188 33.765625 C 52.328125 33.765625 53.148438 33.355469 53.695312 33.0625 L 53.421875 32.027344 C 52.796875 32.59375 52.132812 32.652344 51.820312 32.652344 C 51.019531 32.652344 50.921875 31.8125 50.921875 31.1875 Z M 50.921875 26.675781 "/>
<path style=" stroke:none;fill-rule:nonzero;fill:rgb(0%,0%,0%);fill-opacity:1;" d="M 56.988281 21.421875 L 55.445312 21.421875 L 55.445312 22.964844 L 56.988281 22.964844 Z M 56.890625 25.621094 L 55.5625 25.621094 L 55.5625 33.589844 L 56.890625 33.589844 Z M 56.890625 25.621094 "/>
<path style=" stroke:none;fill-rule:nonzero;fill:rgb(0%,0%,0%);fill-opacity:1;" d="M 65.953125 28.199219 C 65.953125 27.105469 65.71875 25.445312 63.550781 25.445312 C 62.554688 25.445312 61.695312 25.894531 61.011719 26.753906 L 61.011719 25.542969 L 59.742188 25.542969 L 59.742188 33.589844 L 61.089844 33.589844 L 61.089844 29.117188 C 61.089844 28.023438 61.519531 26.519531 62.867188 26.519531 C 64.546875 26.519531 64.585938 27.691406 64.585938 28.316406 L 64.585938 33.589844 L 65.953125 33.589844 Z M 65.953125 28.199219 "/>
<path style=" stroke:none;fill-rule:nonzero;fill:rgb(0%,0%,0%);fill-opacity:1;" d="M 73.46875 26.519531 C 73.46875 26.519531 73.507812 26.558594 73.527344 26.597656 C 73.898438 26.558594 74.289062 26.5 74.953125 26.5 C 75.011719 26.5 75.421875 26.5 75.871094 26.539062 L 75.675781 25.445312 C 75.34375 25.445312 74.113281 25.464844 72.921875 26.050781 C 72.335938 25.542969 71.613281 25.445312 71.261719 25.445312 C 69.699219 25.445312 68.449219 26.753906 68.449219 28.335938 C 68.449219 28.980469 68.644531 29.566406 69.035156 30.113281 C 68.625 30.679688 68.527344 31.226562 68.527344 31.65625 C 68.527344 32.320312 68.78125 32.769531 68.976562 33.003906 C 68.058594 33.589844 67.84375 34.351562 67.84375 34.859375 C 67.84375 36.167969 69.542969 37.261719 71.730469 37.261719 C 73.917969 37.261719 75.636719 36.207031 75.636719 34.839844 C 75.636719 32.339844 72.726562 32.339844 72.003906 32.339844 L 70.480469 32.339844 C 70.226562 32.339844 69.445312 32.339844 69.445312 31.382812 C 69.445312 30.992188 69.523438 30.875 69.640625 30.71875 C 69.933594 30.933594 70.519531 31.246094 71.242188 31.246094 C 72.785156 31.246094 74.054688 29.976562 74.054688 28.335938 C 74.054688 27.691406 73.820312 27.027344 73.449219 26.539062 Z M 71.261719 30.25 C 70.480469 30.25 69.679688 29.722656 69.679688 28.355469 C 69.679688 26.753906 70.695312 26.441406 71.242188 26.441406 C 72.042969 26.441406 72.824219 26.96875 72.824219 28.335938 C 72.824219 29.9375 71.828125 30.25 71.261719 30.25 Z M 72.023438 33.628906 C 72.414062 33.628906 74.386719 33.628906 74.386719 34.859375 C 74.386719 35.679688 73.15625 36.285156 71.75 36.285156 C 70.34375 36.285156 69.09375 35.71875 69.09375 34.839844 C 69.09375 34.800781 69.09375 33.628906 70.460938 33.628906 Z M 72.023438 33.628906 "/>
<path style=" stroke:none;fill-rule:nonzero;fill:rgb(0%,0%,0%);fill-opacity:1;" d="M 86.191406 34.972656 C 85.957031 37.902344 85.3125 38.722656 84.277344 38.722656 C 84.042969 38.722656 83.515625 38.664062 83.144531 38.332031 C 83.652344 38.273438 83.808594 37.863281 83.808594 37.609375 C 83.808594 37.082031 83.398438 36.847656 83.066406 36.847656 C 82.714844 36.847656 82.304688 37.082031 82.304688 37.628906 C 82.304688 38.488281 83.203125 39.113281 84.277344 39.113281 C 85.996094 39.113281 86.855469 37.550781 87.246094 35.929688 C 87.480469 35.011719 88.125 29.796875 88.261719 27.804688 L 88.613281 23.332031 C 88.847656 20.03125 89.472656 19.582031 90.273438 19.582031 C 90.449219 19.582031 91.015625 19.621094 91.40625 19.953125 C 90.878906 20.03125 90.742188 20.441406 90.742188 20.695312 C 90.742188 21.222656 91.132812 21.457031 91.484375 21.457031 C 91.835938 21.457031 92.226562 21.222656 92.226562 20.675781 C 92.226562 19.816406 91.328125 19.191406 90.253906 19.191406 C 88.554688 19.191406 87.851562 20.929688 87.539062 22.296875 C 87.324219 23.273438 86.679688 28.332031 86.523438 30.5 Z M 86.191406 34.972656 "/>
<path style=" stroke:none;fill-rule:nonzero;fill:rgb(0%,0%,0%);fill-opacity:1;" d="M 104.296875 26.382812 C 104.667969 26.382812 104.804688 26.382812 104.804688 26.050781 C 104.804688 25.855469 104.667969 25.855469 104.335938 25.855469 L 102.890625 25.855469 C 103.222656 24.019531 103.476562 22.75 103.632812 22.164062 C 103.730469 21.734375 104.101562 21.324219 104.570312 21.324219 C 104.941406 21.324219 105.332031 21.480469 105.507812 21.65625 C 104.804688 21.714844 104.589844 22.242188 104.589844 22.554688 C 104.589844 22.90625 104.863281 23.121094 105.195312 23.121094 C 105.566406 23.121094 106.09375 22.808594 106.09375 22.125 C 106.09375 21.382812 105.351562 20.972656 104.550781 20.972656 C 103.789062 20.972656 103.027344 21.539062 102.675781 22.242188 C 102.34375 22.867188 102.167969 23.511719 101.757812 25.855469 L 100.566406 25.855469 C 100.214844 25.855469 100.039062 25.855469 100.039062 26.1875 C 100.039062 26.382812 100.136719 26.382812 100.507812 26.382812 L 101.660156 26.382812 C 101.328125 28.042969 100.585938 32.105469 100.175781 34.019531 C 99.882812 35.582031 99.609375 36.890625 98.710938 36.890625 C 98.652344 36.890625 98.144531 36.890625 97.8125 36.539062 C 98.730469 36.480469 98.730469 35.679688 98.730469 35.660156 C 98.730469 35.308594 98.457031 35.09375 98.125 35.09375 C 97.753906 35.09375 97.226562 35.40625 97.226562 36.089844 C 97.226562 36.851562 98.007812 37.242188 98.710938 37.242188 C 100.546875 37.242188 101.289062 33.960938 101.484375 33.0625 C 101.816406 31.695312 102.695312 26.929688 102.773438 26.382812 Z M 104.296875 26.382812 "/>
<path style=" stroke:none;fill-rule:nonzero;fill:rgb(0%,0%,0%);fill-opacity:1;" d="M 112.777344 37.945312 C 112.777344 37.886719 112.777344 37.847656 112.484375 37.554688 C 110.6875 35.738281 109.691406 32.789062 109.691406 29.117188 C 109.691406 25.640625 110.53125 22.652344 112.601562 20.542969 C 112.777344 20.367188 112.777344 20.347656 112.777344 20.289062 C 112.777344 20.171875 112.699219 20.152344 112.621094 20.152344 C 112.386719 20.152344 110.921875 21.441406 110.042969 23.199219 C 109.125 24.996094 108.714844 26.929688 108.714844 29.117188 C 108.714844 30.71875 108.96875 32.847656 109.90625 34.78125 C 110.960938 36.929688 112.425781 38.082031 112.621094 38.082031 C 112.699219 38.082031 112.777344 38.0625 112.777344 37.945312 Z M 112.777344 37.945312 "/>
<path style=" stroke:none;fill-rule:nonzero;fill:rgb(0%,0%,0%);fill-opacity:1;" d="M 122.351562 26.265625 C 121.785156 26.382812 121.570312 26.8125 121.570312 27.144531 C 121.570312 27.574219 121.902344 27.730469 122.15625 27.730469 C 122.703125 27.730469 123.074219 27.261719 123.074219 26.773438 C 123.074219 26.03125 122.214844 25.679688 121.453125 25.679688 C 120.359375 25.679688 119.753906 26.753906 119.597656 27.105469 C 119.1875 25.757812 118.074219 25.679688 117.742188 25.679688 C 115.925781 25.679688 114.949219 28.023438 114.949219 28.433594 C 114.949219 28.492188 115.027344 28.589844 115.144531 28.589844 C 115.28125 28.589844 115.320312 28.472656 115.359375 28.414062 C 115.964844 26.421875 117.175781 26.050781 117.683594 26.050781 C 118.503906 26.050781 118.660156 26.792969 118.660156 27.222656 C 118.660156 27.613281 118.5625 28.023438 118.328125 28.882812 L 117.722656 31.34375 C 117.46875 32.417969 116.941406 33.414062 115.984375 33.414062 C 115.90625 33.414062 115.457031 33.414062 115.066406 33.179688 C 115.710938 33.042969 115.867188 32.515625 115.867188 32.300781 C 115.867188 31.949219 115.59375 31.734375 115.261719 31.734375 C 114.832031 31.734375 114.363281 32.105469 114.363281 32.671875 C 114.363281 33.433594 115.203125 33.765625 115.964844 33.765625 C 116.824219 33.765625 117.449219 33.082031 117.820312 32.359375 C 118.113281 33.414062 118.992188 33.765625 119.65625 33.765625 C 121.492188 33.765625 122.46875 31.421875 122.46875 31.03125 C 122.46875 30.933594 122.390625 30.855469 122.273438 30.855469 C 122.117188 30.855469 122.097656 30.953125 122.058594 31.089844 C 121.570312 32.671875 120.515625 33.414062 119.714844 33.414062 C 119.089844 33.414062 118.757812 32.945312 118.757812 32.203125 C 118.757812 31.8125 118.816406 31.519531 119.109375 30.347656 L 119.734375 27.90625 C 120.007812 26.832031 120.613281 26.050781 121.433594 26.050781 C 121.472656 26.050781 121.980469 26.050781 122.351562 26.265625 Z M 122.351562 26.265625 "/>
<path style=" stroke:none;fill-rule:nonzero;fill:rgb(0%,0%,0%);fill-opacity:1;" d="M 128.964844 29.117188 C 128.964844 27.769531 128.789062 25.542969 127.773438 23.453125 C 126.71875 21.304688 125.253906 20.152344 125.058594 20.152344 C 124.980469 20.152344 124.882812 20.171875 124.882812 20.289062 C 124.882812 20.347656 124.882812 20.367188 125.195312 20.679688 C 126.992188 22.496094 127.988281 25.445312 127.988281 29.117188 C 127.988281 32.59375 127.148438 35.582031 125.078125 37.691406 C 124.882812 37.847656 124.882812 37.886719 124.882812 37.945312 C 124.882812 38.0625 124.980469 38.082031 125.058594 38.082031 C 125.292969 38.082031 126.757812 36.792969 127.636719 35.035156 C 128.554688 33.21875 128.964844 31.285156 128.964844 29.117188 Z M 128.964844 29.117188 "/>
<path style=" stroke:none;fill-rule:nonzero;fill:rgb(0%,0%,0%);fill-opacity:1;" d="M 137.09375 29.117188 C 137.09375 28.589844 136.664062 28.160156 136.15625 28.160156 C 135.628906 28.160156 135.199219 28.589844 135.199219 29.117188 C 135.199219 29.625 135.628906 30.054688 136.15625 30.054688 C 136.664062 30.054688 137.09375 29.625 137.09375 29.117188 Z M 137.09375 29.117188 "/>
<path style=" stroke:none;fill-rule:nonzero;fill:rgb(0%,0%,0%);fill-opacity:1;" d="M 147.511719 31.304688 C 147.453125 31.597656 147.414062 31.675781 147.179688 31.949219 C 146.4375 32.886719 145.695312 33.238281 145.128906 33.238281 C 144.542969 33.238281 143.976562 32.769531 143.976562 31.519531 C 143.976562 30.582031 144.523438 28.570312 144.914062 27.769531 C 145.441406 26.753906 146.242188 26.050781 147.003906 26.050781 C 148.175781 26.050781 148.410156 27.515625 148.410156 27.613281 L 148.351562 27.867188 Z M 148.625 26.871094 C 148.390625 26.34375 147.902344 25.679688 147.003906 25.679688 C 145.050781 25.679688 142.824219 28.140625 142.824219 30.816406 C 142.824219 32.671875 143.957031 33.589844 145.089844 33.589844 C 146.046875 33.589844 146.886719 32.828125 147.21875 32.476562 L 146.808594 34.097656 C 146.574219 35.074219 146.457031 35.523438 145.8125 36.148438 C 145.070312 36.890625 144.40625 36.890625 143.996094 36.890625 C 143.46875 36.890625 143.019531 36.851562 142.570312 36.714844 C 143.136719 36.539062 143.292969 36.050781 143.292969 35.855469 C 143.292969 35.5625 143.078125 35.269531 142.667969 35.269531 C 142.238281 35.269531 141.789062 35.640625 141.789062 36.226562 C 141.789062 36.96875 142.511719 37.242188 144.035156 37.242188 C 146.359375 37.242188 147.550781 35.757812 147.785156 34.800781 L 149.777344 26.753906 C 149.835938 26.539062 149.835938 26.5 149.835938 26.480469 C 149.835938 26.226562 149.640625 26.03125 149.367188 26.03125 C 148.9375 26.03125 148.683594 26.382812 148.625 26.871094 Z M 148.625 26.871094 "/>
<path style=" stroke:none;fill-rule:nonzero;fill:rgb(0%,0%,0%);fill-opacity:1;" d="M 156.277344 37.945312 C 156.277344 37.886719 156.277344 37.847656 155.984375 37.554688 C 154.1875 35.738281 153.191406 32.789062 153.191406 29.117188 C 153.191406 25.640625 154.03125 22.652344 156.101562 20.542969 C 156.277344 20.367188 156.277344 20.347656 156.277344 20.289062 C 156.277344 20.171875 156.199219 20.152344 156.121094 20.152344 C 155.886719 20.152344 154.421875 21.441406 153.542969 23.199219 C 152.625 24.996094 152.214844 26.929688 152.214844 29.117188 C 152.214844 30.71875 152.46875 32.847656 153.40625 34.78125 C 154.460938 36.929688 155.925781 38.082031 156.121094 38.082031 C 156.199219 38.082031 156.277344 38.0625 156.277344 37.945312 Z M 156.277344 37.945312 "/>
<path style=" stroke:none;fill-rule:nonzero;fill:rgb(0%,0%,0%);fill-opacity:1;" d="M 165.851562 26.265625 C 165.285156 26.382812 165.070312 26.8125 165.070312 27.144531 C 165.070312 27.574219 165.402344 27.730469 165.65625 27.730469 C 166.203125 27.730469 166.574219 27.261719 166.574219 26.773438 C 166.574219 26.03125 165.714844 25.679688 164.953125 25.679688 C 163.859375 25.679688 163.253906 26.753906 163.097656 27.105469 C 162.6875 25.757812 161.574219 25.679688 161.242188 25.679688 C 159.425781 25.679688 158.449219 28.023438 158.449219 28.433594 C 158.449219 28.492188 158.527344 28.589844 158.644531 28.589844 C 158.78125 28.589844 158.820312 28.472656 158.859375 28.414062 C 159.464844 26.421875 160.675781 26.050781 161.183594 26.050781 C 162.003906 26.050781 162.160156 26.792969 162.160156 27.222656 C 162.160156 27.613281 162.0625 28.023438 161.828125 28.882812 L 161.222656 31.34375 C 160.96875 32.417969 160.441406 33.414062 159.484375 33.414062 C 159.40625 33.414062 158.957031 33.414062 158.566406 33.179688 C 159.210938 33.042969 159.367188 32.515625 159.367188 32.300781 C 159.367188 31.949219 159.09375 31.734375 158.761719 31.734375 C 158.332031 31.734375 157.863281 32.105469 157.863281 32.671875 C 157.863281 33.433594 158.703125 33.765625 159.464844 33.765625 C 160.324219 33.765625 160.949219 33.082031 161.320312 32.359375 C 161.613281 33.414062 162.492188 33.765625 163.15625 33.765625 C 164.992188 33.765625 165.96875 31.421875 165.96875 31.03125 C 165.96875 30.933594 165.890625 30.855469 165.773438 30.855469 C 165.617188 30.855469 165.597656 30.953125 165.558594 31.089844 C 165.070312 32.671875 164.015625 33.414062 163.214844 33.414062 C 162.589844 33.414062 162.257812 32.945312 162.257812 32.203125 C 162.257812 31.8125 162.316406 31.519531 162.609375 30.347656 L 163.234375 27.90625 C 163.507812 26.832031 164.113281 26.050781 164.933594 26.050781 C 164.972656 26.050781 165.480469 26.050781 165.851562 26.265625 Z M 165.851562 26.265625 "/>
<path style=" stroke:none;fill-rule:nonzero;fill:rgb(0%,0%,0%);fill-opacity:1;" d="M 172.464844 29.117188 C 172.464844 27.769531 172.289062 25.542969 171.273438 23.453125 C 170.21875 21.304688 168.753906 20.152344 168.558594 20.152344 C 168.480469 20.152344 168.382812 20.171875 168.382812 20.289062 C 168.382812 20.347656 168.382812 20.367188 168.695312 20.679688 C 170.492188 22.496094 171.488281 25.445312 171.488281 29.117188 C 171.488281 32.59375 170.648438 35.582031 168.578125 37.691406 C 168.382812 37.847656 168.382812 37.886719 168.382812 37.945312 C 168.382812 38.0625 168.480469 38.082031 168.558594 38.082031 C 168.792969 38.082031 170.257812 36.792969 171.136719 35.035156 C 172.054688 33.21875 172.464844 31.285156 172.464844 29.117188 Z M 172.464844 29.117188 "/>
<path style=" stroke:none;fill-rule:nonzero;fill:rgb(0%,0%,0%);fill-opacity:1;" d="M 180.59375 29.117188 C 180.59375 28.589844 180.164062 28.160156 179.65625 28.160156 C 179.128906 28.160156 178.699219 28.589844 178.699219 29.117188 C 178.699219 29.625 179.128906 30.054688 179.65625 30.054688 C 180.164062 30.054688 180.59375 29.625 180.59375 29.117188 Z M 180.59375 29.117188 "/>
<path style=" stroke:none;fill-rule:nonzero;fill:rgb(0%,0%,0%);fill-opacity:1;" d="M 193.980469 21.597656 C 194 21.519531 194.039062 21.421875 194.039062 21.324219 C 194.039062 21.148438 193.84375 21.148438 193.804688 21.148438 C 193.804688 21.148438 192.925781 21.226562 192.828125 21.226562 C 192.515625 21.246094 192.261719 21.285156 191.929688 21.304688 C 191.480469 21.34375 191.363281 21.363281 191.363281 21.675781 C 191.363281 21.871094 191.5 21.871094 191.753906 21.871094 C 192.632812 21.871094 192.652344 22.027344 192.652344 22.203125 C 192.652344 22.320312 192.613281 22.457031 192.59375 22.515625 L 191.5 26.871094 C 191.304688 26.402344 190.816406 25.679688 189.878906 25.679688 C 187.867188 25.679688 185.679688 28.296875 185.679688 30.953125 C 185.679688 32.730469 186.714844 33.765625 187.925781 33.765625 C 188.921875 33.765625 189.761719 33.003906 190.269531 32.398438 C 190.445312 33.472656 191.285156 33.765625 191.832031 33.765625 C 192.359375 33.765625 192.789062 33.453125 193.121094 32.808594 C 193.394531 32.183594 193.648438 31.089844 193.648438 31.03125 C 193.648438 30.933594 193.589844 30.855469 193.472656 30.855469 C 193.316406 30.855469 193.296875 30.953125 193.21875 31.226562 C 192.945312 32.28125 192.613281 33.414062 191.871094 33.414062 C 191.363281 33.414062 191.324219 32.945312 191.324219 32.59375 C 191.324219 32.515625 191.324219 32.144531 191.441406 31.636719 Z M 190.347656 31.460938 C 190.269531 31.753906 190.269531 31.792969 190.015625 32.144531 C 189.625 32.632812 188.824219 33.414062 187.984375 33.414062 C 187.261719 33.414062 186.832031 32.75 186.832031 31.695312 C 186.832031 30.699219 187.398438 28.6875 187.730469 27.945312 C 188.355469 26.695312 189.195312 26.050781 189.878906 26.050781 C 191.070312 26.050781 191.304688 27.515625 191.304688 27.652344 C 191.304688 27.671875 191.246094 27.90625 191.226562 27.945312 Z M 190.347656 31.460938 "/>
<path style=" stroke:none;fill-rule:nonzero;fill:rgb(0%,0%,0%);fill-opacity:1;" d="M 202.601562 26.265625 C 202.035156 26.382812 201.820312 26.8125 201.820312 27.144531 C 201.820312 27.574219 202.152344 27.730469 202.40625 27.730469 C 202.953125 27.730469 203.324219 27.261719 203.324219 26.773438 C 203.324219 26.03125 202.464844 25.679688 201.703125 25.679688 C 200.609375 25.679688 200.003906 26.753906 199.847656 27.105469 C 199.4375 25.757812 198.324219 25.679688 197.992188 25.679688 C 196.175781 25.679688 195.199219 28.023438 195.199219 28.433594 C 195.199219 28.492188 195.277344 28.589844 195.394531 28.589844 C 195.53125 28.589844 195.570312 28.472656 195.609375 28.414062 C 196.214844 26.421875 197.425781 26.050781 197.933594 26.050781 C 198.753906 26.050781 198.910156 26.792969 198.910156 27.222656 C 198.910156 27.613281 198.8125 28.023438 198.578125 28.882812 L 197.972656 31.34375 C 197.71875 32.417969 197.191406 33.414062 196.234375 33.414062 C 196.15625 33.414062 195.707031 33.414062 195.316406 33.179688 C 195.960938 33.042969 196.117188 32.515625 196.117188 32.300781 C 196.117188 31.949219 195.84375 31.734375 195.511719 31.734375 C 195.082031 31.734375 194.613281 32.105469 194.613281 32.671875 C 194.613281 33.433594 195.453125 33.765625 196.214844 33.765625 C 197.074219 33.765625 197.699219 33.082031 198.070312 32.359375 C 198.363281 33.414062 199.242188 33.765625 199.90625 33.765625 C 201.742188 33.765625 202.71875 31.421875 202.71875 31.03125 C 202.71875 30.933594 202.640625 30.855469 202.523438 30.855469 C 202.367188 30.855469 202.347656 30.953125 202.308594 31.089844 C 201.820312 32.671875 200.765625 33.414062 199.964844 33.414062 C 199.339844 33.414062 199.007812 32.945312 199.007812 32.203125 C 199.007812 31.8125 199.066406 31.519531 199.359375 30.347656 L 199.984375 27.90625 C 200.257812 26.832031 200.863281 26.050781 201.683594 26.050781 C 201.722656 26.050781 202.230469 26.050781 202.601562 26.265625 Z M 202.601562 26.265625 "/>
<path style=" stroke:none;fill-rule:nonzero;fill:rgb(0%,0%,0%);fill-opacity:1;" d="M 211.96875 25.621094 L 210.503906 25.621094 L 210.503906 27.085938 L 211.96875 27.085938 Z M 210.503906 35.835938 L 211.226562 35.835938 L 211.96875 33.570312 L 211.96875 32.144531 L 210.503906 32.144531 L 210.503906 33.589844 L 210.953125 33.589844 Z M 210.503906 35.835938 "/>
<path style=" stroke:none;fill-rule:nonzero;fill:rgb(0%,0%,0%);fill-opacity:1;" d="M 225.738281 21.148438 L 224.15625 21.148438 L 219.644531 33.589844 L 220.972656 33.589844 L 222.28125 29.957031 L 227.339844 29.957031 L 228.667969 33.589844 L 230.25 33.589844 Z M 224.800781 22.4375 L 226.949219 28.941406 L 222.671875 28.941406 Z M 224.800781 22.4375 "/>
<path style=" stroke:none;fill-rule:nonzero;fill:rgb(0%,0%,0%);fill-opacity:1;" d="M 233.460938 32.789062 C 234.085938 33.335938 234.828125 33.765625 235.804688 33.765625 C 237.523438 33.765625 239.066406 32.027344 239.066406 29.585938 C 239.066406 27.417969 237.914062 25.445312 236.253906 25.445312 C 235.511719 25.445312 234.359375 25.679688 233.441406 26.480469 L 233.441406 25.621094 L 232.113281 25.621094 L 232.113281 37.066406 L 233.460938 37.066406 Z M 233.460938 27.574219 C 233.871094 26.949219 234.554688 26.558594 235.296875 26.558594 C 236.625 26.558594 237.699219 27.90625 237.699219 29.605469 C 237.699219 31.402344 236.46875 32.691406 235.140625 32.691406 C 234.632812 32.691406 234.300781 32.515625 233.96875 32.261719 C 233.519531 31.871094 233.460938 31.539062 233.460938 31.265625 Z M 233.460938 27.574219 "/>
<path style=" stroke:none;fill-rule:nonzero;fill:rgb(0%,0%,0%);fill-opacity:1;" d="M 242.460938 32.789062 C 243.085938 33.335938 243.828125 33.765625 244.804688 33.765625 C 246.523438 33.765625 248.066406 32.027344 248.066406 29.585938 C 248.066406 27.417969 246.914062 25.445312 245.253906 25.445312 C 244.511719 25.445312 243.359375 25.679688 242.441406 26.480469 L 242.441406 25.621094 L 241.113281 25.621094 L 241.113281 37.066406 L 242.460938 37.066406 Z M 242.460938 27.574219 C 242.871094 26.949219 243.554688 26.558594 244.296875 26.558594 C 245.625 26.558594 246.699219 27.90625 246.699219 29.605469 C 246.699219 31.402344 245.46875 32.691406 244.140625 32.691406 C 243.632812 32.691406 243.300781 32.515625 242.96875 32.261719 C 242.519531 31.871094 242.460938 31.539062 242.460938 31.265625 Z M 242.460938 27.574219 "/>
<path style=" stroke:none;fill-rule:nonzero;fill:rgb(0%,0%,0%);fill-opacity:1;" d="M 251.441406 21.148438 L 250.113281 21.148438 L 250.113281 33.589844 L 251.441406 33.589844 Z M 251.441406 21.148438 "/>
<path style=" stroke:none;fill-rule:nonzero;fill:rgb(0%,0%,0%);fill-opacity:1;" d="M 260.660156 25.621094 L 259.332031 25.621094 C 258.492188 27.75 257.125 31.265625 257.046875 32.554688 L 257.027344 32.554688 C 256.949219 31.5 255.992188 29.117188 255.855469 28.765625 L 254.566406 25.621094 L 253.160156 25.621094 L 256.5 33.589844 L 255.855469 35.230469 C 255.464844 36.109375 255.210938 36.207031 254.878906 36.207031 C 254.625 36.207031 254.058594 36.148438 253.492188 35.933594 L 253.609375 37.105469 C 253.707031 37.125 254.3125 37.242188 254.878906 37.242188 C 255.308594 37.242188 256.148438 37.242188 256.929688 35.269531 Z M 260.660156 25.621094 "/>
<path style=" stroke:none;fill-rule:nonzero;fill:rgb(0%,0%,0%);fill-opacity:1;" d="M 263.839844 21.421875 L 262.296875 21.421875 L 262.296875 22.964844 L 263.839844 22.964844 Z M 263.742188 25.621094 L 262.414062 25.621094 L 262.414062 33.589844 L 263.742188 33.589844 Z M 263.742188 25.621094 "/>
<path style=" stroke:none;fill-rule:nonzero;fill:rgb(0%,0%,0%);fill-opacity:1;" d="M 272.804688 28.199219 C 272.804688 27.105469 272.570312 25.445312 270.402344 25.445312 C 269.40625 25.445312 268.546875 25.894531 267.863281 26.753906 L 267.863281 25.542969 L 266.59375 25.542969 L 266.59375 33.589844 L 267.941406 33.589844 L 267.941406 29.117188 C 267.941406 28.023438 268.371094 26.519531 269.71875 26.519531 C 271.398438 26.519531 271.4375 27.691406 271.4375 28.316406 L 271.4375 33.589844 L 272.804688 33.589844 Z M 272.804688 28.199219 "/>
<path style=" stroke:none;fill-rule:nonzero;fill:rgb(0%,0%,0%);fill-opacity:1;" d="M 280.320312 26.519531 C 280.320312 26.519531 280.359375 26.558594 280.378906 26.597656 C 280.75 26.558594 281.140625 26.5 281.804688 26.5 C 281.863281 26.5 282.273438 26.5 282.722656 26.539062 L 282.527344 25.445312 C 282.195312 25.445312 280.964844 25.464844 279.773438 26.050781 C 279.1875 25.542969 278.464844 25.445312 278.113281 25.445312 C 276.550781 25.445312 275.300781 26.753906 275.300781 28.335938 C 275.300781 28.980469 275.496094 29.566406 275.886719 30.113281 C 275.476562 30.679688 275.378906 31.226562 275.378906 31.65625 C 275.378906 32.320312 275.632812 32.769531 275.828125 33.003906 C 274.910156 33.589844 274.695312 34.351562 274.695312 34.859375 C 274.695312 36.167969 276.394531 37.261719 278.582031 37.261719 C 280.769531 37.261719 282.488281 36.207031 282.488281 34.839844 C 282.488281 32.339844 279.578125 32.339844 278.855469 32.339844 L 277.332031 32.339844 C 277.078125 32.339844 276.296875 32.339844 276.296875 31.382812 C 276.296875 30.992188 276.375 30.875 276.492188 30.71875 C 276.785156 30.933594 277.371094 31.246094 278.09375 31.246094 C 279.636719 31.246094 280.90625 29.976562 280.90625 28.335938 C 280.90625 27.691406 280.671875 27.027344 280.300781 26.539062 Z M 278.113281 30.25 C 277.332031 30.25 276.53125 29.722656 276.53125 28.355469 C 276.53125 26.753906 277.546875 26.441406 278.09375 26.441406 C 278.894531 26.441406 279.675781 26.96875 279.675781 28.335938 C 279.675781 29.9375 278.679688 30.25 278.113281 30.25 Z M 278.875 33.628906 C 279.265625 33.628906 281.238281 33.628906 281.238281 34.859375 C 281.238281 35.679688 280.007812 36.285156 278.601562 36.285156 C 277.195312 36.285156 275.945312 35.71875 275.945312 34.839844 C 275.945312 34.800781 275.945312 33.628906 277.3125 33.628906 Z M 278.875 33.628906 "/>
<path style=" stroke:none;fill-rule:nonzero;fill:rgb(0%,0%,0%);fill-opacity:1;" d="M 5.859375 43.972656 C 6.015625 43.347656 6.054688 43.171875 7.363281 43.171875 C 7.753906 43.171875 7.890625 43.171875 7.890625 42.820312 C 7.890625 42.644531 7.695312 42.644531 7.65625 42.644531 C 7.324219 42.644531 6.933594 42.683594 6.601562 42.683594 L 4.394531 42.683594 C 4.042969 42.683594 3.632812 42.644531 3.28125 42.644531 C 3.125 42.644531 2.929688 42.644531 2.929688 42.976562 C 2.929688 43.171875 3.085938 43.171875 3.4375 43.171875 C 4.550781 43.171875 4.550781 43.308594 4.550781 43.503906 C 4.550781 43.621094 4.511719 43.738281 4.472656 43.894531 L 2.050781 53.5625 C 1.894531 54.1875 1.855469 54.363281 0.546875 54.363281 C 0.15625 54.363281 0 54.363281 0 54.714844 C 0 54.890625 0.175781 54.890625 0.253906 54.890625 C 0.585938 54.890625 0.976562 54.851562 1.308594 54.851562 L 3.515625 54.851562 C 3.867188 54.851562 4.257812 54.890625 4.609375 54.890625 C 4.765625 54.890625 4.980469 54.890625 4.980469 54.558594 C 4.980469 54.363281 4.863281 54.363281 4.472656 54.363281 C 3.359375 54.363281 3.359375 54.226562 3.359375 54.011719 C 3.359375 53.972656 3.359375 53.894531 3.4375 53.601562 Z M 5.859375 43.972656 "/>
<path style=" stroke:none;fill-rule:nonzero;fill:rgb(0%,0%,0%);fill-opacity:1;" d="M 14.988281 44.03125 C 15.144531 43.347656 15.203125 43.171875 16.785156 43.171875 C 17.253906 43.171875 17.390625 43.171875 17.390625 42.820312 C 17.390625 42.644531 17.195312 42.644531 17.117188 42.644531 C 16.765625 42.644531 16.355469 42.683594 15.984375 42.683594 L 13.582031 42.683594 C 13.25 42.683594 12.859375 42.644531 12.507812 42.644531 C 12.371094 42.644531 12.175781 42.644531 12.175781 42.976562 C 12.175781 43.171875 12.332031 43.171875 12.605469 43.171875 C 13.699219 43.171875 13.699219 43.308594 13.699219 43.503906 C 13.699219 43.542969 13.699219 43.640625 13.621094 43.914062 L 11.199219 53.5625 C 11.042969 54.1875 11.003906 54.363281 9.753906 54.363281 C 9.402344 54.363281 9.226562 54.363281 9.226562 54.695312 C 9.226562 54.890625 9.34375 54.890625 9.695312 54.890625 L 17.722656 54.890625 C 18.132812 54.890625 18.132812 54.871094 18.269531 54.558594 L 19.65625 50.730469 C 19.675781 50.632812 19.714844 50.535156 19.714844 50.476562 C 19.714844 50.378906 19.636719 50.300781 19.539062 50.300781 C 19.519531 50.300781 19.441406 50.300781 19.402344 50.378906 C 19.363281 50.398438 19.363281 50.417969 19.226562 50.769531 C 18.640625 52.351562 17.839844 54.363281 14.8125 54.363281 L 13.09375 54.363281 C 12.839844 54.363281 12.800781 54.363281 12.683594 54.34375 C 12.488281 54.34375 12.46875 54.304688 12.46875 54.148438 C 12.46875 54.03125 12.507812 53.914062 12.546875 53.757812 Z M 14.988281 44.03125 "/>
<path style=" stroke:none;fill-rule:nonzero;fill:rgb(0%,0%,0%);fill-opacity:1;" d="M 23.453125 52.898438 C 22.828125 53.953125 22.222656 54.324219 21.363281 54.363281 C 21.167969 54.382812 21.011719 54.382812 21.011719 54.714844 C 21.011719 54.8125 21.109375 54.890625 21.226562 54.890625 C 21.558594 54.890625 22.359375 54.851562 22.691406 54.851562 C 23.199219 54.851562 23.785156 54.890625 24.273438 54.890625 C 24.390625 54.890625 24.605469 54.890625 24.605469 54.558594 C 24.605469 54.382812 24.449219 54.363281 24.351562 54.363281 C 23.941406 54.34375 23.589844 54.1875 23.589844 53.757812 C 23.589844 53.503906 23.707031 53.308594 23.941406 52.917969 L 25.308594 50.652344 L 29.878906 50.652344 C 29.898438 50.828125 29.898438 50.964844 29.917969 51.121094 C 29.957031 51.589844 30.171875 53.464844 30.171875 53.796875 C 30.171875 54.34375 29.253906 54.363281 28.980469 54.363281 C 28.785156 54.363281 28.589844 54.363281 28.589844 54.695312 C 28.589844 54.890625 28.746094 54.890625 28.84375 54.890625 C 29.15625 54.890625 29.507812 54.851562 29.820312 54.851562 L 30.835938 54.851562 C 31.929688 54.851562 32.730469 54.890625 32.75 54.890625 C 32.867188 54.890625 33.0625 54.890625 33.0625 54.558594 C 33.0625 54.363281 32.90625 54.363281 32.632812 54.363281 C 31.65625 54.363281 31.636719 54.207031 31.578125 53.679688 L 30.484375 42.488281 C 30.445312 42.117188 30.367188 42.097656 30.171875 42.097656 C 29.996094 42.097656 29.898438 42.117188 29.722656 42.390625 Z M 25.601562 50.144531 L 29.214844 44.109375 L 29.820312 50.144531 Z M 25.601562 50.144531 "/>
<path style=" stroke:none;fill-rule:nonzero;fill:rgb(0%,0%,0%);fill-opacity:1;" d="M 41.089844 43.953125 C 41.1875 43.523438 41.226562 43.367188 41.5 43.289062 C 41.636719 43.25 42.242188 43.25 42.613281 43.25 C 44.410156 43.25 45.25 43.328125 45.25 44.714844 C 45.25 44.988281 45.171875 45.671875 45.074219 46.335938 L 45.054688 46.550781 C 45.054688 46.628906 45.113281 46.726562 45.230469 46.726562 C 45.40625 46.726562 45.40625 46.648438 45.464844 46.355469 L 45.972656 43.191406 C 46.011719 43.015625 46.011719 42.976562 46.011719 42.9375 C 46.011719 42.742188 45.914062 42.742188 45.542969 42.742188 L 35.738281 42.742188 C 35.328125 42.742188 35.308594 42.761719 35.210938 43.074219 L 34.117188 46.296875 C 34.097656 46.335938 34.039062 46.53125 34.039062 46.550781 C 34.039062 46.648438 34.117188 46.726562 34.214844 46.726562 C 34.371094 46.726562 34.390625 46.667969 34.46875 46.433594 C 35.230469 44.265625 35.601562 43.25 37.984375 43.25 L 39.175781 43.25 C 39.625 43.25 39.800781 43.25 39.800781 43.445312 C 39.800781 43.503906 39.800781 43.542969 39.703125 43.855469 L 37.300781 53.484375 C 37.125 54.1875 37.085938 54.363281 35.191406 54.363281 C 34.742188 54.363281 34.605469 54.363281 34.605469 54.714844 C 34.605469 54.890625 34.820312 54.890625 34.898438 54.890625 C 35.347656 54.890625 35.816406 54.851562 36.265625 54.851562 L 39.058594 54.851562 C 39.507812 54.851562 39.996094 54.890625 40.445312 54.890625 C 40.640625 54.890625 40.816406 54.890625 40.816406 54.558594 C 40.816406 54.363281 40.699219 54.363281 40.230469 54.363281 C 38.609375 54.363281 38.609375 54.207031 38.609375 53.933594 C 38.609375 53.914062 38.609375 53.796875 38.6875 53.503906 Z M 41.089844 43.953125 "/>
<path style=" stroke:none;fill-rule:nonzero;fill:rgb(0%,0%,0%);fill-opacity:1;" d="M 58.820312 50.730469 C 58.839844 50.671875 58.898438 50.554688 58.898438 50.476562 C 58.898438 50.398438 58.820312 50.300781 58.722656 50.300781 C 58.644531 50.300781 58.605469 50.320312 58.546875 50.378906 C 58.507812 50.398438 58.507812 50.417969 58.351562 50.789062 C 57.296875 53.289062 56.535156 54.363281 53.664062 54.363281 L 51.046875 54.363281 C 50.792969 54.363281 50.753906 54.363281 50.636719 54.34375 C 50.441406 54.34375 50.421875 54.304688 50.421875 54.148438 C 50.421875 54.03125 50.460938 53.914062 50.5 53.757812 L 51.730469 48.816406 L 53.507812 48.816406 C 54.914062 48.816406 55.011719 49.109375 55.011719 49.65625 C 55.011719 49.832031 55.011719 49.988281 54.894531 50.535156 C 54.855469 50.613281 54.835938 50.671875 54.835938 50.730469 C 54.835938 50.847656 54.933594 50.90625 55.03125 50.90625 C 55.207031 50.90625 55.207031 50.789062 55.285156 50.535156 L 56.300781 46.375 C 56.300781 46.277344 56.242188 46.199219 56.125 46.199219 C 55.96875 46.199219 55.949219 46.257812 55.871094 46.511719 C 55.519531 47.898438 55.167969 48.289062 53.566406 48.289062 L 51.867188 48.289062 L 52.980469 43.875 C 53.136719 43.25 53.175781 43.191406 53.898438 43.191406 L 56.476562 43.191406 C 58.683594 43.191406 59.132812 43.796875 59.132812 45.164062 C 59.132812 45.164062 59.132812 45.671875 59.054688 46.257812 C 59.035156 46.335938 59.015625 46.453125 59.015625 46.472656 C 59.015625 46.628906 59.113281 46.6875 59.210938 46.6875 C 59.347656 46.6875 59.40625 46.609375 59.445312 46.277344 L 59.816406 43.152344 C 59.816406 43.09375 59.855469 42.917969 59.855469 42.878906 C 59.855469 42.683594 59.699219 42.683594 59.367188 42.683594 L 50.617188 42.683594 C 50.285156 42.683594 50.109375 42.683594 50.109375 42.996094 C 50.109375 43.191406 50.226562 43.191406 50.539062 43.191406 C 51.652344 43.191406 51.652344 43.328125 51.652344 43.523438 C 51.652344 43.621094 51.632812 43.679688 51.574219 43.875 L 49.152344 53.5625 C 48.996094 54.1875 48.957031 54.363281 47.707031 54.363281 C 47.355469 54.363281 47.179688 54.363281 47.179688 54.695312 C 47.179688 54.890625 47.296875 54.890625 47.648438 54.890625 L 56.652344 54.890625 C 57.042969 54.890625 57.0625 54.871094 57.179688 54.578125 Z M 58.820312 50.730469 "/>
<path style=" stroke:none;fill-rule:nonzero;fill:rgb(0%,0%,0%);fill-opacity:1;" d="M 69.222656 47.976562 L 71.703125 47.976562 L 71.703125 46.921875 L 69.222656 46.921875 L 69.222656 44.65625 L 67.992188 44.65625 L 67.992188 46.921875 L 66.488281 46.921875 L 66.488281 47.976562 L 67.953125 47.976562 L 67.953125 52.800781 C 67.953125 53.835938 68.1875 55.066406 69.417969 55.066406 C 70.628906 55.066406 71.449219 54.65625 71.996094 54.363281 L 71.722656 53.328125 C 71.097656 53.894531 70.433594 53.953125 70.121094 53.953125 C 69.320312 53.953125 69.222656 53.113281 69.222656 52.488281 Z M 69.222656 47.976562 "/>
<path style=" stroke:none;fill-rule:nonzero;fill:rgb(0%,0%,0%);fill-opacity:1;" d="M 80.679688 50.945312 C 80.679688 48.523438 78.902344 46.667969 76.851562 46.667969 C 74.742188 46.667969 73.003906 48.5625 73.003906 50.945312 C 73.003906 53.289062 74.78125 55.066406 76.832031 55.066406 C 78.941406 55.066406 80.679688 53.25 80.679688 50.945312 Z M 76.851562 53.953125 C 75.5625 53.953125 74.351562 52.878906 74.351562 50.769531 C 74.351562 48.601562 75.699219 47.742188 76.832031 47.742188 C 78.0625 47.742188 79.332031 48.660156 79.332031 50.769531 C 79.332031 52.976562 78.042969 53.953125 76.851562 53.953125 Z M 76.851562 53.953125 "/>
<path style=" stroke:none;fill-rule:nonzero;fill:rgb(0%,0%,0%);fill-opacity:1;" d="M 94.460938 50.847656 C 94.460938 50.085938 94.382812 48.992188 93.816406 48.035156 C 93.074219 46.804688 91.824219 46.667969 91.296875 46.667969 C 89.363281 46.667969 87.742188 48.523438 87.742188 50.847656 C 87.742188 53.230469 89.460938 55.066406 91.550781 55.066406 C 92.371094 55.066406 93.367188 54.832031 94.34375 54.128906 C 94.34375 54.050781 94.285156 53.484375 94.285156 53.464844 C 94.265625 53.445312 94.246094 53.035156 94.246094 52.976562 C 93.171875 53.875 92.117188 53.992188 91.589844 53.992188 C 90.203125 53.992188 89.011719 52.761719 88.992188 50.847656 Z M 89.089844 49.890625 C 89.402344 48.679688 90.242188 47.742188 91.296875 47.742188 C 91.863281 47.742188 93.09375 47.996094 93.386719 49.890625 Z M 89.089844 49.890625 "/>
<path style=" stroke:none;fill-rule:nonzero;fill:rgb(0%,0%,0%);fill-opacity:1;" d="M 101.96875 49.636719 C 101.96875 47.917969 100.738281 46.667969 99.058594 46.667969 C 97.984375 46.667969 97.183594 46.902344 96.304688 47.410156 L 96.402344 48.601562 C 97.203125 48.015625 98.023438 47.703125 99.058594 47.703125 C 99.878906 47.703125 100.601562 48.367188 100.601562 49.675781 L 100.601562 50.417969 C 99.800781 50.4375 98.726562 50.496094 97.652344 50.847656 C 96.441406 51.277344 95.738281 51.941406 95.738281 52.820312 C 95.738281 53.621094 96.207031 55.066406 97.730469 55.066406 C 98.726562 55.066406 99.976562 54.773438 100.640625 54.226562 L 100.640625 54.890625 L 101.96875 54.890625 Z M 100.601562 52.488281 C 100.601562 52.839844 100.601562 53.269531 100.015625 53.640625 C 99.527344 53.933594 98.921875 53.992188 98.648438 53.992188 C 97.691406 53.992188 97.027344 53.464844 97.027344 52.820312 C 97.027344 51.589844 99.507812 51.316406 100.601562 51.316406 Z M 100.601562 52.488281 "/>
<path style=" stroke:none;fill-rule:nonzero;fill:rgb(0%,0%,0%);fill-opacity:1;" d="M 109.375 47.214844 C 108.242188 46.6875 107.265625 46.667969 106.855469 46.667969 C 106.445312 46.667969 103.945312 46.667969 103.945312 48.992188 C 103.945312 49.773438 104.375 50.320312 104.648438 50.574219 C 105.292969 51.121094 105.742188 51.21875 106.796875 51.433594 C 107.402344 51.550781 108.4375 51.765625 108.4375 52.722656 C 108.4375 53.953125 107.03125 53.953125 106.777344 53.953125 C 106.074219 53.953125 105.019531 53.757812 104.0625 53.054688 L 103.847656 54.285156 C 103.925781 54.34375 105.15625 55.066406 106.796875 55.066406 C 109.121094 55.066406 109.667969 53.679688 109.667969 52.605469 C 109.667969 51.707031 109.121094 51.121094 109.042969 51.042969 C 108.378906 50.359375 107.832031 50.242188 106.757812 50.027344 C 106.09375 49.910156 105.195312 49.734375 105.195312 48.835938 C 105.195312 47.722656 106.445312 47.722656 106.679688 47.722656 C 107.617188 47.722656 108.378906 47.9375 109.160156 48.386719 Z M 109.375 47.214844 "/>
<path style=" stroke:none;fill-rule:nonzero;fill:rgb(0%,0%,0%);fill-opacity:1;" d="M 117.414062 50.847656 C 117.414062 50.085938 117.335938 48.992188 116.769531 48.035156 C 116.027344 46.804688 114.777344 46.667969 114.25 46.667969 C 112.316406 46.667969 110.695312 48.523438 110.695312 50.847656 C 110.695312 53.230469 112.414062 55.066406 114.503906 55.066406 C 115.324219 55.066406 116.320312 54.832031 117.296875 54.128906 C 117.296875 54.050781 117.238281 53.484375 117.238281 53.464844 C 117.21875 53.445312 117.199219 53.035156 117.199219 52.976562 C 116.125 53.875 115.070312 53.992188 114.542969 53.992188 C 113.15625 53.992188 111.964844 52.761719 111.945312 50.847656 Z M 112.042969 49.890625 C 112.355469 48.679688 113.195312 47.742188 114.25 47.742188 C 114.816406 47.742188 116.046875 47.996094 116.339844 49.890625 Z M 112.042969 49.890625 "/>
<path style=" stroke:none;fill-rule:nonzero;fill:rgb(0%,0%,0%);fill-opacity:1;" d="M 126.589844 42.722656 L 125.046875 42.722656 L 125.046875 44.265625 L 126.589844 44.265625 Z M 126.492188 46.921875 L 125.164062 46.921875 L 125.164062 54.890625 L 126.492188 54.890625 Z M 126.492188 46.921875 "/>
<path style=" stroke:none;fill-rule:nonzero;fill:rgb(0%,0%,0%);fill-opacity:1;" d="M 135.554688 49.5 C 135.554688 48.40625 135.320312 46.746094 133.152344 46.746094 C 132.15625 46.746094 131.296875 47.195312 130.613281 48.054688 L 130.613281 46.84375 L 129.34375 46.84375 L 129.34375 54.890625 L 130.691406 54.890625 L 130.691406 50.417969 C 130.691406 49.324219 131.121094 47.820312 132.46875 47.820312 C 134.148438 47.820312 134.1875 48.992188 134.1875 49.617188 L 134.1875 54.890625 L 135.554688 54.890625 Z M 135.554688 49.5 "/>
<path style=" stroke:none;fill-rule:nonzero;fill:rgb(0%,0%,0%);fill-opacity:1;" d="M 140.023438 47.976562 L 142.503906 47.976562 L 142.503906 46.921875 L 140.023438 46.921875 L 140.023438 44.65625 L 138.792969 44.65625 L 138.792969 46.921875 L 137.289062 46.921875 L 137.289062 47.976562 L 138.753906 47.976562 L 138.753906 52.800781 C 138.753906 53.835938 138.988281 55.066406 140.21875 55.066406 C 141.429688 55.066406 142.25 54.65625 142.796875 54.363281 L 142.523438 53.328125 C 141.898438 53.894531 141.234375 53.953125 140.921875 53.953125 C 140.121094 53.953125 140.023438 53.113281 140.023438 52.488281 Z M 140.023438 47.976562 "/>
<path style=" stroke:none;fill-rule:nonzero;fill:rgb(0%,0%,0%);fill-opacity:1;" d="M 150.5625 50.847656 C 150.5625 50.085938 150.484375 48.992188 149.917969 48.035156 C 149.175781 46.804688 147.925781 46.667969 147.398438 46.667969 C 145.464844 46.667969 143.84375 48.523438 143.84375 50.847656 C 143.84375 53.230469 145.5625 55.066406 147.652344 55.066406 C 148.472656 55.066406 149.46875 54.832031 150.445312 54.128906 C 150.445312 54.050781 150.386719 53.484375 150.386719 53.464844 C 150.367188 53.445312 150.347656 53.035156 150.347656 52.976562 C 149.273438 53.875 148.21875 53.992188 147.691406 53.992188 C 146.304688 53.992188 145.113281 52.761719 145.09375 50.847656 Z M 145.191406 49.890625 C 145.503906 48.679688 146.34375 47.742188 147.398438 47.742188 C 147.964844 47.742188 149.195312 47.996094 149.488281 49.890625 Z M 145.191406 49.890625 "/>
<path style=" stroke:none;fill-rule:nonzero;fill:rgb(0%,0%,0%);fill-opacity:1;" d="M 157.171875 47.820312 C 157.171875 47.820312 157.210938 47.859375 157.230469 47.898438 C 157.601562 47.859375 157.992188 47.800781 158.65625 47.800781 C 158.714844 47.800781 159.125 47.800781 159.574219 47.839844 L 159.378906 46.746094 C 159.046875 46.746094 157.816406 46.765625 156.625 47.351562 C 156.039062 46.84375 155.316406 46.746094 154.964844 46.746094 C 153.402344 46.746094 152.152344 48.054688 152.152344 49.636719 C 152.152344 50.28125 152.347656 50.867188 152.738281 51.414062 C 152.328125 51.980469 152.230469 52.527344 152.230469 52.957031 C 152.230469 53.621094 152.484375 54.070312 152.679688 54.304688 C 151.761719 54.890625 151.546875 55.652344 151.546875 56.160156 C 151.546875 57.46875 153.246094 58.5625 155.433594 58.5625 C 157.621094 58.5625 159.339844 57.507812 159.339844 56.140625 C 159.339844 53.640625 156.429688 53.640625 155.707031 53.640625 L 154.183594 53.640625 C 153.929688 53.640625 153.148438 53.640625 153.148438 52.683594 C 153.148438 52.292969 153.226562 52.175781 153.34375 52.019531 C 153.636719 52.234375 154.222656 52.546875 154.945312 52.546875 C 156.488281 52.546875 157.757812 51.277344 157.757812 49.636719 C 157.757812 48.992188 157.523438 48.328125 157.152344 47.839844 Z M 154.964844 51.550781 C 154.183594 51.550781 153.382812 51.023438 153.382812 49.65625 C 153.382812 48.054688 154.398438 47.742188 154.945312 47.742188 C 155.746094 47.742188 156.527344 48.269531 156.527344 49.636719 C 156.527344 51.238281 155.53125 51.550781 154.964844 51.550781 Z M 155.726562 54.929688 C 156.117188 54.929688 158.089844 54.929688 158.089844 56.160156 C 158.089844 56.980469 156.859375 57.585938 155.453125 57.585938 C 154.046875 57.585938 152.796875 57.019531 152.796875 56.140625 C 152.796875 56.101562 152.796875 54.929688 154.164062 54.929688 Z M 155.726562 54.929688 "/>
<path style=" stroke:none;fill-rule:nonzero;fill:rgb(0%,0%,0%);fill-opacity:1;" d="M 162.640625 50.964844 C 162.640625 49.148438 163.988281 47.976562 165.609375 47.957031 L 165.609375 46.746094 C 163.96875 46.765625 163.03125 47.722656 162.542969 48.425781 L 162.542969 46.84375 L 161.3125 46.84375 L 161.3125 54.890625 L 162.640625 54.890625 Z M 162.640625 50.964844 "/>
<path style=" stroke:none;fill-rule:nonzero;fill:rgb(0%,0%,0%);fill-opacity:1;" d="M 172.917969 49.636719 C 172.917969 47.917969 171.6875 46.667969 170.007812 46.667969 C 168.933594 46.667969 168.132812 46.902344 167.253906 47.410156 L 167.351562 48.601562 C 168.152344 48.015625 168.972656 47.703125 170.007812 47.703125 C 170.828125 47.703125 171.550781 48.367188 171.550781 49.675781 L 171.550781 50.417969 C 170.75 50.4375 169.675781 50.496094 168.601562 50.847656 C 167.390625 51.277344 166.6875 51.941406 166.6875 52.820312 C 166.6875 53.621094 167.15625 55.066406 168.679688 55.066406 C 169.675781 55.066406 170.925781 54.773438 171.589844 54.226562 L 171.589844 54.890625 L 172.917969 54.890625 Z M 171.550781 52.488281 C 171.550781 52.839844 171.550781 53.269531 170.964844 53.640625 C 170.476562 53.933594 169.871094 53.992188 169.597656 53.992188 C 168.640625 53.992188 167.976562 53.464844 167.976562 52.820312 C 167.976562 51.589844 170.457031 51.316406 171.550781 51.316406 Z M 171.550781 52.488281 "/>
<path style=" stroke:none;fill-rule:nonzero;fill:rgb(0%,0%,0%);fill-opacity:1;" d="M 177.375 47.976562 L 179.855469 47.976562 L 179.855469 46.921875 L 177.375 46.921875 L 177.375 44.65625 L 176.144531 44.65625 L 176.144531 46.921875 L 174.640625 46.921875 L 174.640625 47.976562 L 176.105469 47.976562 L 176.105469 52.800781 C 176.105469 53.835938 176.339844 55.066406 177.570312 55.066406 C 178.78125 55.066406 179.601562 54.65625 180.148438 54.363281 L 179.875 53.328125 C 179.25 53.894531 178.585938 53.953125 178.273438 53.953125 C 177.472656 53.953125 177.375 53.113281 177.375 52.488281 Z M 177.375 47.976562 "/>
<path style=" stroke:none;fill-rule:nonzero;fill:rgb(0%,0%,0%);fill-opacity:1;" d="M 183.441406 42.722656 L 181.898438 42.722656 L 181.898438 44.265625 L 183.441406 44.265625 Z M 183.34375 46.921875 L 182.015625 46.921875 L 182.015625 54.890625 L 183.34375 54.890625 Z M 183.34375 46.921875 "/>
<path style=" stroke:none;fill-rule:nonzero;fill:rgb(0%,0%,0%);fill-opacity:1;" d="M 193.03125 50.945312 C 193.03125 48.523438 191.253906 46.667969 189.203125 46.667969 C 187.09375 46.667969 185.355469 48.5625 185.355469 50.945312 C 185.355469 53.289062 187.132812 55.066406 189.183594 55.066406 C 191.292969 55.066406 193.03125 53.25 193.03125 50.945312 Z M 189.203125 53.953125 C 187.914062 53.953125 186.703125 52.878906 186.703125 50.769531 C 186.703125 48.601562 188.050781 47.742188 189.183594 47.742188 C 190.414062 47.742188 191.683594 48.660156 191.683594 50.769531 C 191.683594 52.976562 190.394531 53.953125 189.203125 53.953125 Z M 189.203125 53.953125 "/>
<path style=" stroke:none;fill-rule:nonzero;fill:rgb(0%,0%,0%);fill-opacity:1;" d="M 201.253906 49.5 C 201.253906 48.40625 201.019531 46.746094 198.851562 46.746094 C 197.855469 46.746094 196.996094 47.195312 196.3125 48.054688 L 196.3125 46.84375 L 195.042969 46.84375 L 195.042969 54.890625 L 196.390625 54.890625 L 196.390625 50.417969 C 196.390625 49.324219 196.820312 47.820312 198.167969 47.820312 C 199.847656 47.820312 199.886719 48.992188 199.886719 49.617188 L 199.886719 54.890625 L 201.253906 54.890625 Z M 201.253906 49.5 "/>
</g>
</svg>
