<?xml version="1.0" encoding="UTF-8"?>
<svg width="869" height="473" xmlns="http://www.w3.org/2000/svg" xmlns:svg="http://www.w3.org/2000/svg" xmlns:xlink="http://www.w3.org/1999/xlink" class="main-svg">
 <defs>
  <g id="svg_102" class="clips">
   <clipPath id="clipa7f12ex" class="axesclip">
    <rect id="svg_103" height="473" width="709" y="0" x="80"/>
   </clipPath>
   <clipPath id="clipa7f12ey" class="axesclip">
    <rect id="svg_104" height="293" width="869" y="100" x="0"/>
   </clipPath>
   <clipPath id="clipa7f12exy" class="axesclip">
    <rect id="svg_105" height="293" width="709" y="100" x="80"/>
   </clipPath>
  </g>
 </defs>
 <g>
  <title>Layer 1</title>
  <rect id="svg_106" fill="rgb(255, 255, 255)" height="473" width="869" y="0" x="0"/>
  <g id="svg_107" class="draglayer">
   <g id="svg_108"/>
  </g>
  <g id="svg_109" class="subplot xy">
   <rect id="svg_110" stroke-width="0px" fill="rgb(255, 255, 255)" height="293" width="709" y="100" x="80"/>
   <g id="svg_111">
    <path id="svg_112" stroke="rgb(238, 238, 238)" stroke-width="1px" d="m168.630005,100l0,293" class="xgrid crisp"/>
    <path id="svg_113" stroke="rgb(238, 238, 238)" stroke-width="1px" d="m257.25,100l0,293" class="xgrid crisp"/>
    <path id="svg_114" stroke="rgb(238, 238, 238)" stroke-width="1px" d="m345.880005,100l0,293" class="xgrid crisp"/>
    <path id="svg_115" stroke="rgb(238, 238, 238)" stroke-width="1px" d="m434.5,100l0,293" class="xgrid crisp"/>
    <path id="svg_116" stroke="rgb(238, 238, 238)" stroke-width="1px" d="m523.130005,100l0,293" class="xgrid crisp"/>
    <path id="svg_117" stroke="rgb(238, 238, 238)" stroke-width="1px" d="m611.75,100l0,293" class="xgrid crisp"/>
    <path id="svg_118" stroke="rgb(238, 238, 238)" stroke-width="1px" d="m700.380005,100l0,293" class="xgrid crisp"/>
    <path id="svg_119" stroke="rgb(238, 238, 238)" stroke-width="1px" d="m80,324.350006l709,0" class="ygrid crisp"/>
    <path id="svg_120" stroke="rgb(238, 238, 238)" stroke-width="1px" d="m80,255.699997l709,0" class="ygrid crisp"/>
    <path id="svg_121" stroke="rgb(238, 238, 238)" stroke-width="1px" d="m80,187.050003l709,0" class="ygrid crisp"/>
    <path id="svg_122" stroke="rgb(238, 238, 238)" stroke-width="1px" d="m80,118.400002l709,0" class="ygrid crisp"/>
   </g>
   <g id="svg_123"/>
   <g id="svg_124">
    <path id="svg_125" stroke="rgb(68, 68, 68)" stroke-width="1px" d="m80,100l0,293" class="xzl zl crisp"/>
    <path id="svg_126" stroke="rgb(68, 68, 68)" stroke-width="1px" d="m80,393l709,0" class="yzl zl crisp"/>
   </g>
   <g id="svg_127"/>
   <g id="svg_1">
    <svg id="svg_128" viewBox="0 0 709 293" height="293" width="709" y="100" x="80" preserveAspectRatio="none">
     <g id="svg_129" class="maplayer"/>
     <g id="svg_130" class="barlayer"/>
     <g id="svg_131" class="errorlayer">
      <g id="svg_132" class="errorbars"/>
     </g>
     <g id="svg_133" class="boxlayer"/>
     <g id="svg_134" class="scatterlayer">
      <g id="svg_135" stroke-miterlimit="2" class="trace scatter">
       <path id="svg_136" stroke-width="0px" fill="rgb(31, 119, 180)" fill-opacity="0.5" d="m0,155.699997l709,-137.299997l0,274.6l-709,0l0,-137.300003z" class="js-fill"/>
       <path id="svg_137" fill="none" stroke="rgb(31, 119, 180)" stroke-width="2px" d="m0,155.699997l709,-137.299997" class="js-line"/>
       <g id="svg_138" class="points">
        <path id="svg_139" stroke-width="0px" fill="rgb(31, 119, 180)" d="m3,155.699997a3,3 0 1 1 -3,-3a3,3 0 0 1 3,3z" class="point"/>
        <path id="svg_140" stroke-width="0px" fill="rgb(31, 119, 180)" d="m180.25,121.379997a3,3 0 1 1 -3,-3a3,3 0 0 1 3,3z" class="point"/>
        <path id="svg_141" stroke-width="0px" fill="rgb(31, 119, 180)" d="m357.5,87.050003a3,3 0 1 1 -3,-3a3,3 0 0 1 3,3z" class="point"/>
        <path id="svg_142" stroke-width="0px" fill="rgb(31, 119, 180)" d="m534.75,52.73a3,3 0 1 1 -3,-3a3,3 0 0 1 3,3z" class="point"/>
        <path id="svg_143" stroke-width="0px" fill="rgb(31, 119, 180)" d="m712,18.4a3,3 0 1 1 -3,-3a3,3 0 0 1 3,3z" class="point"/>
       </g>
      </g>
     </g>
    </svg>
   </g>
   <g id="svg_144"/>
   <path id="svg_145" fill="none" stroke-width="1px" stroke="rgb(0, 0, 0)" stroke-opacity="0" d="m79,393.5l711,0" class="crisp"/>
   <path id="svg_146" fill="none" stroke="rgb(0, 0, 0)" stroke-opacity="0" stroke-width="1px" d="m79.5,99l0,294" class="crisp"/>
   <g id="svg_147"/>
   <g id="svg_148">
    <g id="svg_149" class="xtick">
     <text id="svg_150" font-family="'Open sans', verdana, arial, sans-serif" font-size="12px" fill="rgb(68, 68, 68)" transform="matrix(1, 0, 0, 1, 0, 0)" y="407" x="80" text-anchor="middle">0</text>
    </g>
    <g id="svg_151" class="xtick">
     <text id="svg_152" font-family="'Open sans', verdana, arial, sans-serif" font-size="12px" fill="rgb(68, 68, 68)" y="407" x="168.629997" text-anchor="middle">0.5</text>
    </g>
    <g id="svg_153" class="xtick">
     <text id="svg_154" font-family="'Open sans', verdana, arial, sans-serif" font-size="12px" fill="rgb(68, 68, 68)" y="407" x="257.25" text-anchor="middle">1</text>
    </g>
    <g id="svg_155" class="xtick">
     <text id="svg_156" font-family="'Open sans', verdana, arial, sans-serif" font-size="12px" fill="rgb(68, 68, 68)" y="407" x="345.880005" text-anchor="middle">1.5</text>
    </g>
    <g id="svg_157" class="xtick">
     <text id="svg_158" font-family="'Open sans', verdana, arial, sans-serif" font-size="12px" fill="rgb(68, 68, 68)" y="407" x="434.5" text-anchor="middle">2</text>
    </g>
    <g id="svg_159" class="xtick">
     <text id="svg_160" font-family="'Open sans', verdana, arial, sans-serif" font-size="12px" fill="rgb(68, 68, 68)" y="407" x="523.130005" text-anchor="middle">2.5</text>
    </g>
    <g id="svg_161" class="xtick">
     <text id="svg_162" font-family="'Open sans', verdana, arial, sans-serif" font-size="12px" fill="rgb(68, 68, 68)" y="407" x="611.75" text-anchor="middle">3</text>
    </g>
    <g id="svg_163" class="xtick">
     <text id="svg_164" font-family="'Open sans', verdana, arial, sans-serif" font-size="12px" fill="rgb(68, 68, 68)" y="407" x="700.380005" text-anchor="middle">3.5</text>
    </g>
    <g id="svg_165" class="xtick">
     <text id="svg_166" font-family="'Open sans', verdana, arial, sans-serif" font-size="12px" fill="rgb(68, 68, 68)" y="407" x="789" text-anchor="middle">4</text>
    </g>
   </g>
   <g id="svg_167">
    <g id="svg_168" class="ytick">
     <text id="svg_169" font-family="'Open sans', verdana, arial, sans-serif" font-size="12px" fill="rgb(68, 68, 68)" y="399" x="78" text-anchor="end">0</text>
    </g>
    <g id="svg_170" class="ytick">
     <text id="svg_171" font-family="'Open sans', verdana, arial, sans-serif" font-size="12px" fill="rgb(68, 68, 68)" y="330.350006" x="78" text-anchor="end">2</text>
    </g>
    <g id="svg_172" class="ytick">
     <text id="svg_173" font-family="'Open sans', verdana, arial, sans-serif" font-size="12px" fill="rgb(68, 68, 68)" y="261.699997" x="78" text-anchor="end">4</text>
    </g>
    <g id="svg_174" class="ytick">
     <text id="svg_175" font-family="'Open sans', verdana, arial, sans-serif" font-size="12px" fill="rgb(68, 68, 68)" y="193.050003" x="78" text-anchor="end">6</text>
    </g>
    <g id="svg_176" class="ytick">
     <text id="svg_177" font-family="'Open sans', verdana, arial, sans-serif" font-size="12px" fill="rgb(68, 68, 68)" y="124.4" x="78" text-anchor="end">8</text>
    </g>
   </g>
   <g id="svg_178"/>
  </g>
  <g id="svg_179" class="shapelayer"/>
  <g id="svg_180" class="glimages"/>
  <text id="svg_181" font-family="'Open Sans', Arial, sans-serif" font-size="12px" fill="rgb(68, 68, 68)" x="862" text-anchor="end" y="464" class="js-plot-link-container"/>
  <g id="svg_182" class="infolayer">
   <g id="svg_183" class="g-gtitle"/>
   <g id="svg_184" class="g-xtitle">
    <g id="svg_26" class="xtitle-math-group">
     <svg id="svg_185" width="2.021ex" y="436.381639" x="428.310006" preserveAspectRatio="xMinYMin meet" height="1.71ex" class="xtitle-math" viewBox="0 -707.941989467833 857 732.8839789356658" xmlns:xlink="http://www.w3.org/1999/xlink">
      <defs>
       <path d="m131,289q0,32 16,65t56,61t97,27q62,0 90,-27t29,-60q0,-32 -17,-47t-38,-16q-13,0 -24,8t-12,26q0,16 9,28t17,18t13,6q1,0 1,1q0,3 -7,9t-25,11t-39,6q-48,0 -70,-26t-23,-53q0,-25 19,-35t55,-17t52,-15q66,-29 66,-96q0,-28 -11,-56t-33,-56t-63,-44t-94,-17q-77,0 -109,29t-33,68q0,39 21,56t44,17q15,0 28,-9t14,-31q0,-26 -18,-44t-31,-18q-2,-1 -3,-1t-1,-2q1,-3 8,-8t31,-13t55,-7q36,0 62,11t38,28t17,31t5,25q0,28 -21,42t-48,17t-59,15t-47,35q-17,25 -17,58z" stroke-width="10" id="svg_25"/>
       <path d="m184,600q0,24 19,42t44,19q18,0 30,-12t13,-30q0,-23 -20,-42t-44,-20q-15,0 -28,10t-14,33zm-163,-313q0,8 9,31t24,51t44,51t60,22q39,0 65,-23t27,-62q0,-17 -14,-56t-40,-105t-42,-113q-5,-22 -5,-32q0,-25 17,-25q9,0 19,3t23,14t27,35t25,59q3,12 5,14t17,2q20,0 20,-10q0,-8 -9,-31t-25,-51t-45,-50t-62,-22q-32,0 -59,21t-28,64q0,17 5,32t43,114q38,101 44,121t7,39q0,24 -17,24l-2,0q-30,0 -55,-33t-38,-84q-1,-1 -2,-3t-1,-3t-2,-2t-3,-1t-4,0t-8,0l-14,0q-6,6 -6,9z" stroke-width="10" id="svg_24"/>
       <path d="m21,287q1,6 3,16t12,38t20,47t32,37t44,17t43,-7t30,-18t16,-22t8,-19l2,-7q0,-2 1,-2l11,11q60,64 141,64q17,0 31,-2t26,-7t19,-10t15,-12t10,-13t8,-13t4,-12t3,-9t2,-7l8,10q63,75 149,75q54,0 87,-27t34,-79q0,-51 -38,-158t-38,-128q1,-14 5,-19t15,-5q28,0 52,30t39,82q3,11 6,13t16,2q20,0 20,-8q0,-1 -4,-15q-8,-29 -22,-57t-46,-56t-69,-27q-47,0 -68,27t-21,56q0,19 36,120t37,152q0,59 -44,59l-5,0q-86,0 -145,-101l-7,-12l-33,-134q-33,-131 -38,-141q-13,-27 -43,-27q-13,0 -21,7t-11,12t-3,10q0,11 34,143l36,146q3,15 3,38q0,59 -44,59l-5,0q-86,0 -145,-101l-7,-12l-33,-134q-33,-131 -38,-141q-13,-27 -43,-27q-13,0 -21,6t-11,12t-2,10q0,13 38,164q39,154 39,161q3,15 3,27q0,36 -25,36q-22,0 -37,-28t-23,-61t-12,-36q-2,-2 -16,-2l-14,0q-6,6 -6,9z" stroke-width="10" id="svg_23"/>
       <path d="m21,287q0,8 9,31t25,52t44,50t59,22q46,0 69,-25t23,-59q0,-18 -34,-112t-34,-141q0,-43 14,-60t42,-18t53,17t37,34l11,17q2,4 38,152q30,120 36,140t14,29q17,15 36,15q17,0 25,-10t8,-19l-76,-318q-1,-5 -1,-16q0,-25 7,-33t21,-9q22,3 35,31t30,88q2,8 20,8q19,0 19,-9q-1,-5 -2,-14t-9,-32t-17,-43t-25,-38t-36,-25q-8,-2 -24,-2q-66,0 -91,56q-2,-1 -11,-10t-18,-15t-22,-15t-29,-12t-34,-5q-44,0 -78,18q-52,31 -52,106q0,57 35,149t35,117q0,1 0,2q0,9 0,12t-4,7t-11,4l-4,0q-23,0 -42,-19t-30,-41t-17,-42t-8,-22q-2,-2 -16,-2l-14,0q-6,6 -6,9z" stroke-width="10" id="svg_22"/>
       <path d="m117,59q0,-33 25,-33q37,0 63,105q6,20 10,21q2,1 10,1l4,0q9,0 12,0t5,-2t2,-7q-1,-6 -3,-16t-11,-38t-20,-47t-31,-37t-46,-17q-36,0 -67,22t-32,74q0,12 1,17l65,258q63,255 63,263q0,3 -1,5t-4,4t-5,2t-8,1t-8,1t-9,1t-10,0q-10,0 -13,0t-8,1t-6,3t-1,6q0,2 2,14q5,19 11,21t72,6q15,1 34,2t30,3t11,1q12,0 12,-8q0,-11 -73,-300t-75,-303q0,-2 0,-8t-1,-10l0,-6z" stroke-width="10" id="svg_21"/>
       <path d="m33,157q0,101 76,192t171,92q51,0 90,-49q16,30 46,30q13,0 23,-8t10,-20q0,-13 -37,-160t-38,-166q0,-25 7,-33t21,-9q9,1 20,9q21,20 41,96q6,20 10,21q2,1 10,1l4,0q19,0 19,-9q0,-6 -5,-27t-20,-54t-32,-50q-13,-13 -32,-21q-8,-2 -24,-2q-34,0 -57,15t-30,31l-6,15q-1,1 -4,-1q-2,-2 -4,-4q-59,-56 -120,-56q-55,0 -97,40t-42,127zm318,171q0,6 -5,22t-23,35t-46,20q-35,0 -67,-31t-50,-81q-29,-79 -41,-164q0,-3 0,-11t-1,-12q0,-45 18,-62t43,-18q38,0 75,33t44,51q2,4 27,107t26,111z" stroke-width="10" id="svg_20"/>
       <path d="m26,385q-7,7 -7,10q0,4 3,16t5,14q2,5 9,5t51,1l53,0l19,80q3,11 7,29t7,26t6,20t8,17t10,12t14,9t18,2q18,-1 25,-11t7,-19q0,-7 -9,-47t-20,-79l-10,-37q0,-2 50,-2l51,0q7,-7 7,-11q0,-22 -13,-35l-107,0l-36,-145q-39,-160 -39,-172q0,-42 27,-42q35,0 68,34t53,84q2,6 5,7t15,2l4,0q15,0 15,-8q0,-3 -3,-12q-5,-16 -18,-38t-34,-47t-51,-42t-61,-17q-30,0 -57,15t-39,52q-2,8 -2,27l0,18l35,140q35,141 36,142q0,2 -51,2l-51,0z" stroke-width="10" id="svg_19"/>
       <path d="m39,168q0,57 19,104t49,78t67,52t70,31t63,9l3,0q45,0 78,-22t33,-65q0,-90 -111,-118q-49,-13 -134,-14q-37,0 -38,-2q0,-2 -6,-35t-7,-58q0,-47 21,-74t63,-28t93,19t92,66q9,10 12,10q4,0 13,-9t10,-14t-9,-16t-30,-27t-46,-31t-63,-25t-76,-10q-79,0 -122,53t-44,126zm334,185q-6,52 -68,52q-33,0 -61,-14t-45,-34t-29,-41t-16,-36t-5,-19q0,-1 20,-1q113,0 158,24t46,69z" stroke-width="10" id="svg_18"/>
       <path d="m366,683q1,0 72,5t73,6q12,0 12,-8q0,-7 -73,-302t-75,-301t-1,-15q0,-42 28,-42q9,1 20,9q21,20 41,96q6,20 10,21q2,1 10,1l4,0l4,0q15,0 15,-8q0,-5 -3,-16q-13,-50 -30,-81t-28,-40t-28,-16q-8,-2 -24,-2q-34,0 -57,15t-30,31l-6,15q-1,1 -4,-1q-2,-2 -4,-4q-59,-56 -120,-56q-55,0 -97,40t-42,127q0,48 20,98t48,86q47,57 94,79t85,22q56,0 84,-42q5,-6 5,-4q1,4 27,109t28,111q0,13 -7,16t-39,5l-21,0q-6,6 -6,8t2,19q5,19 13,19zm-14,-357q-23,79 -75,79q-35,0 -67,-31t-50,-81q-29,-79 -41,-164q0,-3 0,-11t-1,-12q0,-45 18,-62t43,-18q54,0 111,72l8,11l54,217z" stroke-width="10" id="svg_17"/>
       <path d="m118,-162q2,0 6,-2t11,-3t12,-1q13,0 24,13t16,29q10,27 34,153t46,240t22,115l0,3l-47,0q-47,0 -50,2q-4,3 -4,10l7,28q2,5 8,5t47,1q48,0 48,1q0,2 9,50t12,58q37,165 146,165q37,-2 61,-22t24,-53q0,-36 -21,-52t-42,-17q-44,0 -44,42q0,19 11,33t24,21l9,5q-16,6 -30,6q-12,0 -23,-10t-15,-28q-7,-29 -16,-78t-16,-83t-7,-36q0,-2 55,-2q45,0 52,-1t11,-6q1,-4 -2,-17t-5,-16q-2,-5 -9,-5t-54,-1l-56,0l-23,-122q-48,-248 -67,-310q-27,-85 -70,-126q-37,-32 -73,-32q-32,0 -58,19t-26,54q0,37 21,54t42,17q44,0 44,-42q0,-19 -11,-33t-24,-21l-9,-5z" stroke-width="10" id="svg_16"/>
       <path d="m78,370q0,24 17,42t43,18q24,0 42,-16t19,-43q0,-25 -17,-43t-43,-18t-43,17t-18,43zm0,-310q0,24 17,42t43,18q24,0 42,-16t19,-43q0,-25 -17,-43t-43,-18t-43,17t-18,43z" stroke-width="10" id="svg_15"/>
       <path d="m52,289q7,42 54,97t116,56q35,0 64,-18t43,-45q42,63 101,63q37,0 64,-22t28,-59q0,-29 -14,-47t-27,-22t-23,-4q-19,0 -31,11t-12,29q0,46 50,63q-11,13 -40,13q-13,0 -19,-2q-38,-16 -56,-66q-60,-221 -60,-258q0,-28 16,-40t35,-12q37,0 73,33t49,81q3,10 6,11t16,2l4,0q15,0 15,-8q0,-1 -2,-11q-16,-57 -62,-101t-107,-44q-70,0 -106,63q-41,-62 -94,-62l-6,0q-49,0 -70,26t-22,55q0,32 19,52t45,20q43,0 43,-42q0,-20 -12,-35t-23,-20t-13,-5l-3,-1q0,-1 6,-4t16,-7t19,-3q36,0 62,45q9,16 23,68t28,108t16,66q5,27 5,39q0,28 -15,40t-34,12q-40,0 -75,-32t-49,-82q-2,-9 -5,-10t-16,-2l-14,0q-6,6 -6,11z" stroke-width="10" id="svg_14"/>
       <path d="m84,237t0,13t14,20l581,0q15,-8 15,-20t-15,-20l-581,0q-14,7 -14,20l0,-13z" stroke-width="10" id="svg_13"/>
       <path d="m213,578l-13,-5q-14,-5 -40,-10t-58,-7l-19,0l0,46l19,0q47,2 87,15t56,24t28,22q2,3 12,3q9,0 17,-6l0,-299l1,-300q7,-7 12,-9t24,-4t62,-2l26,0l0,-46l-11,0q-21,3 -159,3q-136,0 -157,-3l-12,0l0,46l26,0q22,0 38,0t25,1t16,3t8,2t6,5t6,4l0,517z" stroke-width="10" id="svg_12"/>
       <path d="m78,60q0,24 17,42t43,18q24,0 42,-16t19,-43q0,-25 -17,-43t-43,-18t-43,17t-18,43z" stroke-width="10" id="svg_11"/>
       <path d="m127,463q-27,0 -42,17t-16,44q0,55 48,98t116,43q35,0 44,-1q74,-12 113,-53t40,-89q0,-52 -34,-101t-94,-71l-3,-2q0,-1 9,-3t29,-9t38,-21q82,-53 82,-140q0,-79 -62,-138t-157,-59q-80,0 -138,43t-58,109q0,28 18,45t45,18q28,0 46,-18t18,-45q0,-11 -3,-20t-7,-16t-11,-12t-12,-8t-10,-4t-8,-3l-4,-1q51,-45 124,-45q55,0 83,53q17,33 17,101l0,20q0,95 -64,127q-15,6 -61,7l-42,1l-3,2q-2,3 -2,16q0,18 8,18q28,0 58,5q34,5 62,42t28,112l0,8q0,57 -35,79q-22,14 -47,14q-32,0 -59,-11t-38,-23t-11,-12l3,0q3,-1 8,-2t10,-5t12,-7t10,-11t8,-15t3,-20q0,-22 -14,-39t-45,-18z" stroke-width="10" id="svg_10"/>
       <path d="m42,313q0,163 81,258t180,95q69,0 99,-36t30,-80q0,-25 -14,-40t-39,-15q-23,0 -38,14t-15,39q0,44 47,53q-22,22 -62,25q-71,0 -117,-60q-47,-66 -47,-202l1,-4q5,6 8,13q41,60 107,60l4,0q46,0 81,-19q24,-14 48,-40t39,-57q21,-49 21,-107l0,-18q0,-23 -5,-43q-11,-59 -64,-115t-134,-56q-28,0 -54,8t-56,30t-51,59t-36,97t-14,141zm215,84q-30,0 -52,-17t-34,-45t-17,-57t-6,-62q0,-83 12,-119t38,-58q24,-18 53,-18q51,0 78,38q13,18 18,45t5,105q0,80 -5,107t-18,45q-27,36 -72,36z" stroke-width="10" id="svg_9"/>
       <path d="m70,417t0,77t54,124t124,48q71,0 126,-42t55,-109q0,-30 -11,-56t-26,-42t-31,-28t-26,-18t-11,-8l14,-9q14,-10 28,-20t16,-11q75,-59 75,-149q0,-79 -58,-137t-150,-59q-90,0 -148,51t-58,126q0,108 129,180l-18,13q-21,13 -27,20q-57,49 -57,126l0,-77zm216,-31l6,4q6,4 9,6t10,7t12,10t11,12t11,13t10,16t9,17t5,20t2,22q0,43 -29,73t-67,38q-7,1 -33,1q-41,0 -77,-26t-37,-65q0,-23 13,-42t26,-29t50,-32q7,-5 11,-7l58,-38zm-36,-365q58,0 100,34t42,82q0,17 -5,32t-12,25t-22,22t-23,18t-29,19t-27,17q-14,9 -30,19t-26,17l-8,5q-6,0 -29,-17t-48,-55t-26,-82q0,-59 43,-97t100,-39z" stroke-width="10" id="svg_8"/>
       <path d="m42,0l-2,0q-14,0 -14,11q0,4 3,16q4,14 7,16t19,3q86,3 135,52q10,10 116,126t105,118q-109,278 -114,283q-9,11 -63,12l-28,0q-6,6 -6,8t2,19q4,13 10,19l14,0q34,-2 121,-2q33,0 61,0t45,1t20,0q17,0 17,-11q0,-1 -2,-13q-4,-15 -7,-18t-16,-3q-31,-3 -54,-17l77,-194l53,59q105,113 105,125q0,18 -24,25q-5,0 -13,2q-15,0 -15,11q0,2 2,16q4,13 10,19l12,0q1,0 25,0t54,-2t41,-1q90,0 99,3l8,0q7,-7 7,-11q-2,-25 -12,-35l-16,0q-34,-1 -61,-9t-41,-17t-24,-18l-11,-9q0,1 -95,-104l-87,-96q0,-1 31,-80t65,-162t37,-86q10,-9 61,-10q35,0 35,-9q0,-2 -2,-14q-4,-16 -7,-19t-14,-3q-3,0 -33,0t-89,1q-61,0 -93,0t-35,-1q-17,0 -17,9q0,1 2,15q2,10 4,14t5,5t9,2t16,1t26,7q17,8 17,10q-1,0 -47,117l-47,118q-188,-204 -193,-215q-4,-8 -4,-12q0,-19 29,-25q1,0 6,0t6,-1q3,0 4,0t3,-1t3,-3t1,-7q0,-9 -2,-16q-3,-13 -6,-15t-15,-3q-3,0 -18,0t-42,1t-59,0q-78,0 -100,-2z" stroke-width="10" id="svg_2"/>
       <path d="m66,637q-12,0 -17,0t-10,1t-7,3t-2,6t3,17t9,18q2,1 14,1q48,-3 109,-3q123,0 141,3l10,0q6,-6 6,-9t-2,-18q-4,-13 -10,-19l-12,0q-56,0 -56,-13q0,-5 50,-147t51,-144l3,3q4,4 12,13t21,24t32,37t43,51q92,107 107,126t16,31q0,16 -32,19q-17,0 -17,10q0,2 2,14q3,15 5,18t14,4q2,0 29,-1t79,-2q27,0 56,1t33,1q17,0 17,-9q0,-4 -3,-16t-5,-14q-2,-6 -21,-6q-72,-5 -117,-50q-9,-9 -140,-163l-129,-151l-26,-104q-27,-107 -27,-112q0,-11 68,-11q16,0 21,-1t6,-10q0,-2 -2,-12q-4,-17 -6,-19t-16,-3q-5,0 -42,0t-92,1q-62,0 -94,0t-36,-1q-18,0 -18,8q0,5 3,15q1,3 2,6t1,5t1,4t2,3t3,2t5,1t6,0t9,1t13,0q39,1 51,4t18,13q3,5 29,108l25,103l-123,349q-1,1 -2,2t-2,2t-3,2t-4,2t-5,2t-8,1t-9,1t-13,1t-17,1z" stroke-width="10" id="svg_7"/>
       <path d="m56,237t0,13t14,20l299,0l0,150l1,150q10,13 19,13q13,0 20,-15l0,-298l298,0q15,-8 15,-20t-15,-20l-298,0l0,-298q-8,-14 -18,-14l-2,0l-2,0q-12,0 -18,14l0,298l-299,0q-14,7 -14,20l0,-13z" stroke-width="10" id="svg_6"/>
       <path d="m21,287q0,14 15,48t48,71t74,36q41,0 66,-23t26,-64q-2,-19 -3,-21q0,-3 -16,-46t-33,-97t-16,-86q0,-43 14,-60t42,-18q23,0 43,11t31,23t27,33q0,1 5,20t14,59t19,74q38,150 42,157q13,27 43,27q13,0 21,-7t11,-12t2,-9q0,-13 -49,-210t-56,-216q-28,-83 -97,-132t-138,-50q-45,0 -79,22t-34,66q0,22 7,37t19,22t20,10t17,3q44,0 44,-42q0,-20 -12,-35t-23,-20t-13,-5l-3,-1q2,-5 19,-12t34,-7l8,0q17,0 26,2q33,9 61,38t43,62t23,56t8,30l-6,-4q-6,-4 -19,-11t-26,-12q-20,-5 -39,-5q-46,0 -81,22t-46,71q-1,7 -1,31q0,57 35,149t35,117q0,1 0,2q0,9 0,12t-4,7t-11,4l-4,0q-23,0 -42,-19t-30,-41t-17,-42t-8,-22q-2,-2 -16,-2l-14,0q-6,6 -6,9z" stroke-width="10" id="svg_5"/>
       <path d="m56,347q0,13 14,20l637,0q15,-8 15,-20q0,-11 -14,-19l-318,-1l-318,0q-16,5 -16,20zm0,-194q0,15 16,20l636,0q14,-10 14,-20q0,-13 -15,-20l-637,0q-14,7 -14,20z" stroke-width="10" id="svg_4"/>
       <path d="m462,0q-18,3 -129,3q-116,0 -134,-3l-9,0l0,46l31,0q20,0 27,0t17,2t14,5t7,8q1,2 1,54l0,50l-259,0l0,46l151,231q153,232 155,233q2,2 21,2l18,0l6,-6l0,-460l92,0l0,-46l-92,0l0,-51q0,-41 0,-48t6,-12q8,-7 57,-8l29,0l0,-46l-9,0zm-169,211l0,334l-219,-333l109,-1l110,0z" stroke-width="10" id="svg_3"/>
      </defs>
      <g id="svg_186" transform="matrix(1 0 0 -1 0 0)" stroke-width="0" fill="rgb(68, 68, 68)" stroke="rgb(68, 68, 68)">
       <use id="svg_187" xlink:href="#svg_2"/>
      </g>
     </svg>
    </g>
   </g>
   <g id="svg_188" class="g-ytitle">
    <g id="svg_51" transform="rotate(-90, 36.4994, 237.882)" class="ytitle-math-group">
     <svg id="svg_189" width="1.71ex" y="237.882151" x="36.499438" preserveAspectRatio="xMinYMin meet" height="1.71ex" class="ytitle-math" viewBox="0 -707.941989467833 768 731.8839789356658" xmlns:xlink="http://www.w3.org/1999/xlink">
      <defs>
       <path d="m131,289q0,32 16,65t56,61t97,27q62,0 90,-27t29,-60q0,-32 -17,-47t-38,-16q-13,0 -24,8t-12,26q0,16 9,28t17,18t13,6q1,0 1,1q0,3 -7,9t-25,11t-39,6q-48,0 -70,-26t-23,-53q0,-25 19,-35t55,-17t52,-15q66,-29 66,-96q0,-28 -11,-56t-33,-56t-63,-44t-94,-17q-77,0 -109,29t-33,68q0,39 21,56t44,17q15,0 28,-9t14,-31q0,-26 -18,-44t-31,-18q-2,-1 -3,-1t-1,-2q1,-3 8,-8t31,-13t55,-7q36,0 62,11t38,28t17,31t5,25q0,28 -21,42t-48,17t-59,15t-47,35q-17,25 -17,58z" stroke-width="10" id="svg_50"/>
       <path d="m184,600q0,24 19,42t44,19q18,0 30,-12t13,-30q0,-23 -20,-42t-44,-20q-15,0 -28,10t-14,33zm-163,-313q0,8 9,31t24,51t44,51t60,22q39,0 65,-23t27,-62q0,-17 -14,-56t-40,-105t-42,-113q-5,-22 -5,-32q0,-25 17,-25q9,0 19,3t23,14t27,35t25,59q3,12 5,14t17,2q20,0 20,-10q0,-8 -9,-31t-25,-51t-45,-50t-62,-22q-32,0 -59,21t-28,64q0,17 5,32t43,114q38,101 44,121t7,39q0,24 -17,24l-2,0q-30,0 -55,-33t-38,-84q-1,-1 -2,-3t-1,-3t-2,-2t-3,-1t-4,0t-8,0l-14,0q-6,6 -6,9z" stroke-width="10" id="svg_49"/>
       <path d="m21,287q1,6 3,16t12,38t20,47t32,37t44,17t43,-7t30,-18t16,-22t8,-19l2,-7q0,-2 1,-2l11,11q60,64 141,64q17,0 31,-2t26,-7t19,-10t15,-12t10,-13t8,-13t4,-12t3,-9t2,-7l8,10q63,75 149,75q54,0 87,-27t34,-79q0,-51 -38,-158t-38,-128q1,-14 5,-19t15,-5q28,0 52,30t39,82q3,11 6,13t16,2q20,0 20,-8q0,-1 -4,-15q-8,-29 -22,-57t-46,-56t-69,-27q-47,0 -68,27t-21,56q0,19 36,120t37,152q0,59 -44,59l-5,0q-86,0 -145,-101l-7,-12l-33,-134q-33,-131 -38,-141q-13,-27 -43,-27q-13,0 -21,7t-11,12t-3,10q0,11 34,143l36,146q3,15 3,38q0,59 -44,59l-5,0q-86,0 -145,-101l-7,-12l-33,-134q-33,-131 -38,-141q-13,-27 -43,-27q-13,0 -21,6t-11,12t-2,10q0,13 38,164q39,154 39,161q3,15 3,27q0,36 -25,36q-22,0 -37,-28t-23,-61t-12,-36q-2,-2 -16,-2l-14,0q-6,6 -6,9z" stroke-width="10" id="svg_48"/>
       <path d="m21,287q0,8 9,31t25,52t44,50t59,22q46,0 69,-25t23,-59q0,-18 -34,-112t-34,-141q0,-43 14,-60t42,-18t53,17t37,34l11,17q2,4 38,152q30,120 36,140t14,29q17,15 36,15q17,0 25,-10t8,-19l-76,-318q-1,-5 -1,-16q0,-25 7,-33t21,-9q22,3 35,31t30,88q2,8 20,8q19,0 19,-9q-1,-5 -2,-14t-9,-32t-17,-43t-25,-38t-36,-25q-8,-2 -24,-2q-66,0 -91,56q-2,-1 -11,-10t-18,-15t-22,-15t-29,-12t-34,-5q-44,0 -78,18q-52,31 -52,106q0,57 35,149t35,117q0,1 0,2q0,9 0,12t-4,7t-11,4l-4,0q-23,0 -42,-19t-30,-41t-17,-42t-8,-22q-2,-2 -16,-2l-14,0q-6,6 -6,9z" stroke-width="10" id="svg_47"/>
       <path d="m117,59q0,-33 25,-33q37,0 63,105q6,20 10,21q2,1 10,1l4,0q9,0 12,0t5,-2t2,-7q-1,-6 -3,-16t-11,-38t-20,-47t-31,-37t-46,-17q-36,0 -67,22t-32,74q0,12 1,17l65,258q63,255 63,263q0,3 -1,5t-4,4t-5,2t-8,1t-8,1t-9,1t-10,0q-10,0 -13,0t-8,1t-6,3t-1,6q0,2 2,14q5,19 11,21t72,6q15,1 34,2t30,3t11,1q12,0 12,-8q0,-11 -73,-300t-75,-303q0,-2 0,-8t-1,-10l0,-6z" stroke-width="10" id="svg_46"/>
       <path d="m33,157q0,101 76,192t171,92q51,0 90,-49q16,30 46,30q13,0 23,-8t10,-20q0,-13 -37,-160t-38,-166q0,-25 7,-33t21,-9q9,1 20,9q21,20 41,96q6,20 10,21q2,1 10,1l4,0q19,0 19,-9q0,-6 -5,-27t-20,-54t-32,-50q-13,-13 -32,-21q-8,-2 -24,-2q-34,0 -57,15t-30,31l-6,15q-1,1 -4,-1q-2,-2 -4,-4q-59,-56 -120,-56q-55,0 -97,40t-42,127zm318,171q0,6 -5,22t-23,35t-46,20q-35,0 -67,-31t-50,-81q-29,-79 -41,-164q0,-3 0,-11t-1,-12q0,-45 18,-62t43,-18q38,0 75,33t44,51q2,4 27,107t26,111z" stroke-width="10" id="svg_45"/>
       <path d="m26,385q-7,7 -7,10q0,4 3,16t5,14q2,5 9,5t51,1l53,0l19,80q3,11 7,29t7,26t6,20t8,17t10,12t14,9t18,2q18,-1 25,-11t7,-19q0,-7 -9,-47t-20,-79l-10,-37q0,-2 50,-2l51,0q7,-7 7,-11q0,-22 -13,-35l-107,0l-36,-145q-39,-160 -39,-172q0,-42 27,-42q35,0 68,34t53,84q2,6 5,7t15,2l4,0q15,0 15,-8q0,-3 -3,-12q-5,-16 -18,-38t-34,-47t-51,-42t-61,-17q-30,0 -57,15t-39,52q-2,8 -2,27l0,18l35,140q35,141 36,142q0,2 -51,2l-51,0z" stroke-width="10" id="svg_44"/>
       <path d="m39,168q0,57 19,104t49,78t67,52t70,31t63,9l3,0q45,0 78,-22t33,-65q0,-90 -111,-118q-49,-13 -134,-14q-37,0 -38,-2q0,-2 -6,-35t-7,-58q0,-47 21,-74t63,-28t93,19t92,66q9,10 12,10q4,0 13,-9t10,-14t-9,-16t-30,-27t-46,-31t-63,-25t-76,-10q-79,0 -122,53t-44,126zm334,185q-6,52 -68,52q-33,0 -61,-14t-45,-34t-29,-41t-16,-36t-5,-19q0,-1 20,-1q113,0 158,24t46,69z" stroke-width="10" id="svg_43"/>
       <path d="m366,683q1,0 72,5t73,6q12,0 12,-8q0,-7 -73,-302t-75,-301t-1,-15q0,-42 28,-42q9,1 20,9q21,20 41,96q6,20 10,21q2,1 10,1l4,0l4,0q15,0 15,-8q0,-5 -3,-16q-13,-50 -30,-81t-28,-40t-28,-16q-8,-2 -24,-2q-34,0 -57,15t-30,31l-6,15q-1,1 -4,-1q-2,-2 -4,-4q-59,-56 -120,-56q-55,0 -97,40t-42,127q0,48 20,98t48,86q47,57 94,79t85,22q56,0 84,-42q5,-6 5,-4q1,4 27,109t28,111q0,13 -7,16t-39,5l-21,0q-6,6 -6,8t2,19q5,19 13,19zm-14,-357q-23,79 -75,79q-35,0 -67,-31t-50,-81q-29,-79 -41,-164q0,-3 0,-11t-1,-12q0,-45 18,-62t43,-18q54,0 111,72l8,11l54,217z" stroke-width="10" id="svg_42"/>
       <path d="m118,-162q2,0 6,-2t11,-3t12,-1q13,0 24,13t16,29q10,27 34,153t46,240t22,115l0,3l-47,0q-47,0 -50,2q-4,3 -4,10l7,28q2,5 8,5t47,1q48,0 48,1q0,2 9,50t12,58q37,165 146,165q37,-2 61,-22t24,-53q0,-36 -21,-52t-42,-17q-44,0 -44,42q0,19 11,33t24,21l9,5q-16,6 -30,6q-12,0 -23,-10t-15,-28q-7,-29 -16,-78t-16,-83t-7,-36q0,-2 55,-2q45,0 52,-1t11,-6q1,-4 -2,-17t-5,-16q-2,-5 -9,-5t-54,-1l-56,0l-23,-122q-48,-248 -67,-310q-27,-85 -70,-126q-37,-32 -73,-32q-32,0 -58,19t-26,54q0,37 21,54t42,17q44,0 44,-42q0,-19 -11,-33t-24,-21l-9,-5z" stroke-width="10" id="svg_41"/>
       <path d="m78,370q0,24 17,42t43,18q24,0 42,-16t19,-43q0,-25 -17,-43t-43,-18t-43,17t-18,43zm0,-310q0,24 17,42t43,18q24,0 42,-16t19,-43q0,-25 -17,-43t-43,-18t-43,17t-18,43z" stroke-width="10" id="svg_40"/>
       <path d="m52,289q7,42 54,97t116,56q35,0 64,-18t43,-45q42,63 101,63q37,0 64,-22t28,-59q0,-29 -14,-47t-27,-22t-23,-4q-19,0 -31,11t-12,29q0,46 50,63q-11,13 -40,13q-13,0 -19,-2q-38,-16 -56,-66q-60,-221 -60,-258q0,-28 16,-40t35,-12q37,0 73,33t49,81q3,10 6,11t16,2l4,0q15,0 15,-8q0,-1 -2,-11q-16,-57 -62,-101t-107,-44q-70,0 -106,63q-41,-62 -94,-62l-6,0q-49,0 -70,26t-22,55q0,32 19,52t45,20q43,0 43,-42q0,-20 -12,-35t-23,-20t-13,-5l-3,-1q0,-1 6,-4t16,-7t19,-3q36,0 62,45q9,16 23,68t28,108t16,66q5,27 5,39q0,28 -15,40t-34,12q-40,0 -75,-32t-49,-82q-2,-9 -5,-10t-16,-2l-14,0q-6,6 -6,11z" stroke-width="10" id="svg_39"/>
       <path d="m84,237t0,13t14,20l581,0q15,-8 15,-20t-15,-20l-581,0q-14,7 -14,20l0,-13z" stroke-width="10" id="svg_38"/>
       <path d="m213,578l-13,-5q-14,-5 -40,-10t-58,-7l-19,0l0,46l19,0q47,2 87,15t56,24t28,22q2,3 12,3q9,0 17,-6l0,-299l1,-300q7,-7 12,-9t24,-4t62,-2l26,0l0,-46l-11,0q-21,3 -159,3q-136,0 -157,-3l-12,0l0,46l26,0q22,0 38,0t25,1t16,3t8,2t6,5t6,4l0,517z" stroke-width="10" id="svg_37"/>
       <path d="m78,60q0,24 17,42t43,18q24,0 42,-16t19,-43q0,-25 -17,-43t-43,-18t-43,17t-18,43z" stroke-width="10" id="svg_36"/>
       <path d="m127,463q-27,0 -42,17t-16,44q0,55 48,98t116,43q35,0 44,-1q74,-12 113,-53t40,-89q0,-52 -34,-101t-94,-71l-3,-2q0,-1 9,-3t29,-9t38,-21q82,-53 82,-140q0,-79 -62,-138t-157,-59q-80,0 -138,43t-58,109q0,28 18,45t45,18q28,0 46,-18t18,-45q0,-11 -3,-20t-7,-16t-11,-12t-12,-8t-10,-4t-8,-3l-4,-1q51,-45 124,-45q55,0 83,53q17,33 17,101l0,20q0,95 -64,127q-15,6 -61,7l-42,1l-3,2q-2,3 -2,16q0,18 8,18q28,0 58,5q34,5 62,42t28,112l0,8q0,57 -35,79q-22,14 -47,14q-32,0 -59,-11t-38,-23t-11,-12l3,0q3,-1 8,-2t10,-5t12,-7t10,-11t8,-15t3,-20q0,-22 -14,-39t-45,-18z" stroke-width="10" id="svg_35"/>
       <path d="m42,313q0,163 81,258t180,95q69,0 99,-36t30,-80q0,-25 -14,-40t-39,-15q-23,0 -38,14t-15,39q0,44 47,53q-22,22 -62,25q-71,0 -117,-60q-47,-66 -47,-202l1,-4q5,6 8,13q41,60 107,60l4,0q46,0 81,-19q24,-14 48,-40t39,-57q21,-49 21,-107l0,-18q0,-23 -5,-43q-11,-59 -64,-115t-134,-56q-28,0 -54,8t-56,30t-51,59t-36,97t-14,141zm215,84q-30,0 -52,-17t-34,-45t-17,-57t-6,-62q0,-83 12,-119t38,-58q24,-18 53,-18q51,0 78,38q13,18 18,45t5,105q0,80 -5,107t-18,45q-27,36 -72,36z" stroke-width="10" id="svg_34"/>
       <path d="m70,417t0,77t54,124t124,48q71,0 126,-42t55,-109q0,-30 -11,-56t-26,-42t-31,-28t-26,-18t-11,-8l14,-9q14,-10 28,-20t16,-11q75,-59 75,-149q0,-79 -58,-137t-150,-59q-90,0 -148,51t-58,126q0,108 129,180l-18,13q-21,13 -27,20q-57,49 -57,126l0,-77zm216,-31l6,4q6,4 9,6t10,7t12,10t11,12t11,13t10,16t9,17t5,20t2,22q0,43 -29,73t-67,38q-7,1 -33,1q-41,0 -77,-26t-37,-65q0,-23 13,-42t26,-29t50,-32q7,-5 11,-7l58,-38zm-36,-365q58,0 100,34t42,82q0,17 -5,32t-12,25t-22,22t-23,18t-29,19t-27,17q-14,9 -30,19t-26,17l-8,5q-6,0 -29,-17t-48,-55t-26,-82q0,-59 43,-97t100,-39z" stroke-width="10" id="svg_33"/>
       <path d="m42,0l-2,0q-14,0 -14,11q0,4 3,16q4,14 7,16t19,3q86,3 135,52q10,10 116,126t105,118q-109,278 -114,283q-9,11 -63,12l-28,0q-6,6 -6,8t2,19q4,13 10,19l14,0q34,-2 121,-2q33,0 61,0t45,1t20,0q17,0 17,-11q0,-1 -2,-13q-4,-15 -7,-18t-16,-3q-31,-3 -54,-17l77,-194l53,59q105,113 105,125q0,18 -24,25q-5,0 -13,2q-15,0 -15,11q0,2 2,16q4,13 10,19l12,0q1,0 25,0t54,-2t41,-1q90,0 99,3l8,0q7,-7 7,-11q-2,-25 -12,-35l-16,0q-34,-1 -61,-9t-41,-17t-24,-18l-11,-9q0,1 -95,-104l-87,-96q0,-1 31,-80t65,-162t37,-86q10,-9 61,-10q35,0 35,-9q0,-2 -2,-14q-4,-16 -7,-19t-14,-3q-3,0 -33,0t-89,1q-61,0 -93,0t-35,-1q-17,0 -17,9q0,1 2,15q2,10 4,14t5,5t9,2t16,1t26,7q17,8 17,10q-1,0 -47,117l-47,118q-188,-204 -193,-215q-4,-8 -4,-12q0,-19 29,-25q1,0 6,0t6,-1q3,0 4,0t3,-1t3,-3t1,-7q0,-9 -2,-16q-3,-13 -6,-15t-15,-3q-3,0 -18,0t-42,1t-59,0q-78,0 -100,-2z" stroke-width="10" id="svg_32"/>
       <path d="m66,637q-12,0 -17,0t-10,1t-7,3t-2,6t3,17t9,18q2,1 14,1q48,-3 109,-3q123,0 141,3l10,0q6,-6 6,-9t-2,-18q-4,-13 -10,-19l-12,0q-56,0 -56,-13q0,-5 50,-147t51,-144l3,3q4,4 12,13t21,24t32,37t43,51q92,107 107,126t16,31q0,16 -32,19q-17,0 -17,10q0,2 2,14q3,15 5,18t14,4q2,0 29,-1t79,-2q27,0 56,1t33,1q17,0 17,-9q0,-4 -3,-16t-5,-14q-2,-6 -21,-6q-72,-5 -117,-50q-9,-9 -140,-163l-129,-151l-26,-104q-27,-107 -27,-112q0,-11 68,-11q16,0 21,-1t6,-10q0,-2 -2,-12q-4,-17 -6,-19t-16,-3q-5,0 -42,0t-92,1q-62,0 -94,0t-36,-1q-18,0 -18,8q0,5 3,15q1,3 2,6t1,5t1,4t2,3t3,2t5,1t6,0t9,1t13,0q39,1 51,4t18,13q3,5 29,108l25,103l-123,349q-1,1 -2,2t-2,2t-3,2t-4,2t-5,2t-8,1t-9,1t-13,1t-17,1z" stroke-width="10" id="svg_27"/>
       <path d="m56,237t0,13t14,20l299,0l0,150l1,150q10,13 19,13q13,0 20,-15l0,-298l298,0q15,-8 15,-20t-15,-20l-298,0l0,-298q-8,-14 -18,-14l-2,0l-2,0q-12,0 -18,14l0,298l-299,0q-14,7 -14,20l0,-13z" stroke-width="10" id="svg_31"/>
       <path d="m21,287q0,14 15,48t48,71t74,36q41,0 66,-23t26,-64q-2,-19 -3,-21q0,-3 -16,-46t-33,-97t-16,-86q0,-43 14,-60t42,-18q23,0 43,11t31,23t27,33q0,1 5,20t14,59t19,74q38,150 42,157q13,27 43,27q13,0 21,-7t11,-12t2,-9q0,-13 -49,-210t-56,-216q-28,-83 -97,-132t-138,-50q-45,0 -79,22t-34,66q0,22 7,37t19,22t20,10t17,3q44,0 44,-42q0,-20 -12,-35t-23,-20t-13,-5l-3,-1q2,-5 19,-12t34,-7l8,0q17,0 26,2q33,9 61,38t43,62t23,56t8,30l-6,-4q-6,-4 -19,-11t-26,-12q-20,-5 -39,-5q-46,0 -81,22t-46,71q-1,7 -1,31q0,57 35,149t35,117q0,1 0,2q0,9 0,12t-4,7t-11,4l-4,0q-23,0 -42,-19t-30,-41t-17,-42t-8,-22q-2,-2 -16,-2l-14,0q-6,6 -6,9z" stroke-width="10" id="svg_30"/>
       <path d="m56,347q0,13 14,20l637,0q15,-8 15,-20q0,-11 -14,-19l-318,-1l-318,0q-16,5 -16,20zm0,-194q0,15 16,20l636,0q14,-10 14,-20q0,-13 -15,-20l-637,0q-14,7 -14,20z" stroke-width="10" id="svg_29"/>
       <path d="m462,0q-18,3 -129,3q-116,0 -134,-3l-9,0l0,46l31,0q20,0 27,0t17,2t14,5t7,8q1,2 1,54l0,50l-259,0l0,46l151,231q153,232 155,233q2,2 21,2l18,0l6,-6l0,-460l92,0l0,-46l-92,0l0,-51q0,-41 0,-48t6,-12q8,-7 57,-8l29,0l0,-46l-9,0zm-169,211l0,334l-219,-333l109,-1l110,0z" stroke-width="10" id="svg_28"/>
      </defs>
      <g id="svg_190" transform="matrix(1 0 0 -1 0 0)" stroke-width="0" fill="rgb(68, 68, 68)" stroke="rgb(68, 68, 68)">
       <use id="svg_191" xlink:href="#svg_27"/>
      </g>
     </svg>
    </g>
   </g>
   <g id="svg_192" class="annotation">
    <g id="svg_76" class="annotation-text-g">
     <svg id="svg_193" height="15" width="57" y="150" x="396">
      <rect id="svg_194" stroke-width="1px" stroke="rgb(0, 0, 0)" stroke-opacity="0" fill="rgb(0, 0, 0)" fill-opacity="0" height="14" width="56" y="0.5" x="0.5" class="bg"/>
      <g id="svg_101" class="annotation-math-group">
       <svg id="svg_195" width="9.636ex" y="2" x="1" preserveAspectRatio="xMinYMin meet" height="2.182ex" class="annotation-math" viewBox="0 -699.7742397004789 4150 927.5484794009578" xmlns:xlink="http://www.w3.org/1999/xlink">
        <defs>
         <path d="m131,289q0,32 16,65t56,61t97,27q62,0 90,-27t29,-60q0,-32 -17,-47t-38,-16q-13,0 -24,8t-12,26q0,16 9,28t17,18t13,6q1,0 1,1q0,3 -7,9t-25,11t-39,6q-48,0 -70,-26t-23,-53q0,-25 19,-35t55,-17t52,-15q66,-29 66,-96q0,-28 -11,-56t-33,-56t-63,-44t-94,-17q-77,0 -109,29t-33,68q0,39 21,56t44,17q15,0 28,-9t14,-31q0,-26 -18,-44t-31,-18q-2,-1 -3,-1t-1,-2q1,-3 8,-8t31,-13t55,-7q36,0 62,11t38,28t17,31t5,25q0,28 -21,42t-48,17t-59,15t-47,35q-17,25 -17,58z" stroke-width="10" id="svg_100"/>
         <path d="m184,600q0,24 19,42t44,19q18,0 30,-12t13,-30q0,-23 -20,-42t-44,-20q-15,0 -28,10t-14,33zm-163,-313q0,8 9,31t24,51t44,51t60,22q39,0 65,-23t27,-62q0,-17 -14,-56t-40,-105t-42,-113q-5,-22 -5,-32q0,-25 17,-25q9,0 19,3t23,14t27,35t25,59q3,12 5,14t17,2q20,0 20,-10q0,-8 -9,-31t-25,-51t-45,-50t-62,-22q-32,0 -59,21t-28,64q0,17 5,32t43,114q38,101 44,121t7,39q0,24 -17,24l-2,0q-30,0 -55,-33t-38,-84q-1,-1 -2,-3t-1,-3t-2,-2t-3,-1t-4,0t-8,0l-14,0q-6,6 -6,9z" stroke-width="10" id="svg_99"/>
         <path d="m21,287q1,6 3,16t12,38t20,47t32,37t44,17t43,-7t30,-18t16,-22t8,-19l2,-7q0,-2 1,-2l11,11q60,64 141,64q17,0 31,-2t26,-7t19,-10t15,-12t10,-13t8,-13t4,-12t3,-9t2,-7l8,10q63,75 149,75q54,0 87,-27t34,-79q0,-51 -38,-158t-38,-128q1,-14 5,-19t15,-5q28,0 52,30t39,82q3,11 6,13t16,2q20,0 20,-8q0,-1 -4,-15q-8,-29 -22,-57t-46,-56t-69,-27q-47,0 -68,27t-21,56q0,19 36,120t37,152q0,59 -44,59l-5,0q-86,0 -145,-101l-7,-12l-33,-134q-33,-131 -38,-141q-13,-27 -43,-27q-13,0 -21,7t-11,12t-3,10q0,11 34,143l36,146q3,15 3,38q0,59 -44,59l-5,0q-86,0 -145,-101l-7,-12l-33,-134q-33,-131 -38,-141q-13,-27 -43,-27q-13,0 -21,6t-11,12t-2,10q0,13 38,164q39,154 39,161q3,15 3,27q0,36 -25,36q-22,0 -37,-28t-23,-61t-12,-36q-2,-2 -16,-2l-14,0q-6,6 -6,9z" stroke-width="10" id="svg_98"/>
         <path d="m21,287q0,8 9,31t25,52t44,50t59,22q46,0 69,-25t23,-59q0,-18 -34,-112t-34,-141q0,-43 14,-60t42,-18t53,17t37,34l11,17q2,4 38,152q30,120 36,140t14,29q17,15 36,15q17,0 25,-10t8,-19l-76,-318q-1,-5 -1,-16q0,-25 7,-33t21,-9q22,3 35,31t30,88q2,8 20,8q19,0 19,-9q-1,-5 -2,-14t-9,-32t-17,-43t-25,-38t-36,-25q-8,-2 -24,-2q-66,0 -91,56q-2,-1 -11,-10t-18,-15t-22,-15t-29,-12t-34,-5q-44,0 -78,18q-52,31 -52,106q0,57 35,149t35,117q0,1 0,2q0,9 0,12t-4,7t-11,4l-4,0q-23,0 -42,-19t-30,-41t-17,-42t-8,-22q-2,-2 -16,-2l-14,0q-6,6 -6,9z" stroke-width="10" id="svg_97"/>
         <path d="m117,59q0,-33 25,-33q37,0 63,105q6,20 10,21q2,1 10,1l4,0q9,0 12,0t5,-2t2,-7q-1,-6 -3,-16t-11,-38t-20,-47t-31,-37t-46,-17q-36,0 -67,22t-32,74q0,12 1,17l65,258q63,255 63,263q0,3 -1,5t-4,4t-5,2t-8,1t-8,1t-9,1t-10,0q-10,0 -13,0t-8,1t-6,3t-1,6q0,2 2,14q5,19 11,21t72,6q15,1 34,2t30,3t11,1q12,0 12,-8q0,-11 -73,-300t-75,-303q0,-2 0,-8t-1,-10l0,-6z" stroke-width="10" id="svg_96"/>
         <path d="m33,157q0,101 76,192t171,92q51,0 90,-49q16,30 46,30q13,0 23,-8t10,-20q0,-13 -37,-160t-38,-166q0,-25 7,-33t21,-9q9,1 20,9q21,20 41,96q6,20 10,21q2,1 10,1l4,0q19,0 19,-9q0,-6 -5,-27t-20,-54t-32,-50q-13,-13 -32,-21q-8,-2 -24,-2q-34,0 -57,15t-30,31l-6,15q-1,1 -4,-1q-2,-2 -4,-4q-59,-56 -120,-56q-55,0 -97,40t-42,127zm318,171q0,6 -5,22t-23,35t-46,20q-35,0 -67,-31t-50,-81q-29,-79 -41,-164q0,-3 0,-11t-1,-12q0,-45 18,-62t43,-18q38,0 75,33t44,51q2,4 27,107t26,111z" stroke-width="10" id="svg_95"/>
         <path d="m26,385q-7,7 -7,10q0,4 3,16t5,14q2,5 9,5t51,1l53,0l19,80q3,11 7,29t7,26t6,20t8,17t10,12t14,9t18,2q18,-1 25,-11t7,-19q0,-7 -9,-47t-20,-79l-10,-37q0,-2 50,-2l51,0q7,-7 7,-11q0,-22 -13,-35l-107,0l-36,-145q-39,-160 -39,-172q0,-42 27,-42q35,0 68,34t53,84q2,6 5,7t15,2l4,0q15,0 15,-8q0,-3 -3,-12q-5,-16 -18,-38t-34,-47t-51,-42t-61,-17q-30,0 -57,15t-39,52q-2,8 -2,27l0,18l35,140q35,141 36,142q0,2 -51,2l-51,0z" stroke-width="10" id="svg_94"/>
         <path d="m39,168q0,57 19,104t49,78t67,52t70,31t63,9l3,0q45,0 78,-22t33,-65q0,-90 -111,-118q-49,-13 -134,-14q-37,0 -38,-2q0,-2 -6,-35t-7,-58q0,-47 21,-74t63,-28t93,19t92,66q9,10 12,10q4,0 13,-9t10,-14t-9,-16t-30,-27t-46,-31t-63,-25t-76,-10q-79,0 -122,53t-44,126zm334,185q-6,52 -68,52q-33,0 -61,-14t-45,-34t-29,-41t-16,-36t-5,-19q0,-1 20,-1q113,0 158,24t46,69z" stroke-width="10" id="svg_93"/>
         <path d="m366,683q1,0 72,5t73,6q12,0 12,-8q0,-7 -73,-302t-75,-301t-1,-15q0,-42 28,-42q9,1 20,9q21,20 41,96q6,20 10,21q2,1 10,1l4,0l4,0q15,0 15,-8q0,-5 -3,-16q-13,-50 -30,-81t-28,-40t-28,-16q-8,-2 -24,-2q-34,0 -57,15t-30,31l-6,15q-1,1 -4,-1q-2,-2 -4,-4q-59,-56 -120,-56q-55,0 -97,40t-42,127q0,48 20,98t48,86q47,57 94,79t85,22q56,0 84,-42q5,-6 5,-4q1,4 27,109t28,111q0,13 -7,16t-39,5l-21,0q-6,6 -6,8t2,19q5,19 13,19zm-14,-357q-23,79 -75,79q-35,0 -67,-31t-50,-81q-29,-79 -41,-164q0,-3 0,-11t-1,-12q0,-45 18,-62t43,-18q54,0 111,72l8,11l54,217z" stroke-width="10" id="svg_92"/>
         <path d="m118,-162q2,0 6,-2t11,-3t12,-1q13,0 24,13t16,29q10,27 34,153t46,240t22,115l0,3l-47,0q-47,0 -50,2q-4,3 -4,10l7,28q2,5 8,5t47,1q48,0 48,1q0,2 9,50t12,58q37,165 146,165q37,-2 61,-22t24,-53q0,-36 -21,-52t-42,-17q-44,0 -44,42q0,19 11,33t24,21l9,5q-16,6 -30,6q-12,0 -23,-10t-15,-28q-7,-29 -16,-78t-16,-83t-7,-36q0,-2 55,-2q45,0 52,-1t11,-6q1,-4 -2,-17t-5,-16q-2,-5 -9,-5t-54,-1l-56,0l-23,-122q-48,-248 -67,-310q-27,-85 -70,-126q-37,-32 -73,-32q-32,0 -58,19t-26,54q0,37 21,54t42,17q44,0 44,-42q0,-19 -11,-33t-24,-21l-9,-5z" stroke-width="10" id="svg_91"/>
         <path d="m78,370q0,24 17,42t43,18q24,0 42,-16t19,-43q0,-25 -17,-43t-43,-18t-43,17t-18,43zm0,-310q0,24 17,42t43,18q24,0 42,-16t19,-43q0,-25 -17,-43t-43,-18t-43,17t-18,43z" stroke-width="10" id="svg_90"/>
         <path d="m52,289q7,42 54,97t116,56q35,0 64,-18t43,-45q42,63 101,63q37,0 64,-22t28,-59q0,-29 -14,-47t-27,-22t-23,-4q-19,0 -31,11t-12,29q0,46 50,63q-11,13 -40,13q-13,0 -19,-2q-38,-16 -56,-66q-60,-221 -60,-258q0,-28 16,-40t35,-12q37,0 73,33t49,81q3,10 6,11t16,2l4,0q15,0 15,-8q0,-1 -2,-11q-16,-57 -62,-101t-107,-44q-70,0 -106,63q-41,-62 -94,-62l-6,0q-49,0 -70,26t-22,55q0,32 19,52t45,20q43,0 43,-42q0,-20 -12,-35t-23,-20t-13,-5l-3,-1q0,-1 6,-4t16,-7t19,-3q36,0 62,45q9,16 23,68t28,108t16,66q5,27 5,39q0,28 -15,40t-34,12q-40,0 -75,-32t-49,-82q-2,-9 -5,-10t-16,-2l-14,0q-6,6 -6,11z" stroke-width="10" id="svg_81"/>
         <path d="m84,237t0,13t14,20l581,0q15,-8 15,-20t-15,-20l-581,0q-14,7 -14,20l0,-13z" stroke-width="10" id="svg_89"/>
         <path d="m213,578l-13,-5q-14,-5 -40,-10t-58,-7l-19,0l0,46l19,0q47,2 87,15t56,24t28,22q2,3 12,3q9,0 17,-6l0,-299l1,-300q7,-7 12,-9t24,-4t62,-2l26,0l0,-46l-11,0q-21,3 -159,3q-136,0 -157,-3l-12,0l0,46l26,0q22,0 38,0t25,1t16,3t8,2t6,5t6,4l0,517z" stroke-width="10" id="svg_88"/>
         <path d="m78,60q0,24 17,42t43,18q24,0 42,-16t19,-43q0,-25 -17,-43t-43,-18t-43,17t-18,43z" stroke-width="10" id="svg_87"/>
         <path d="m127,463q-27,0 -42,17t-16,44q0,55 48,98t116,43q35,0 44,-1q74,-12 113,-53t40,-89q0,-52 -34,-101t-94,-71l-3,-2q0,-1 9,-3t29,-9t38,-21q82,-53 82,-140q0,-79 -62,-138t-157,-59q-80,0 -138,43t-58,109q0,28 18,45t45,18q28,0 46,-18t18,-45q0,-11 -3,-20t-7,-16t-11,-12t-12,-8t-10,-4t-8,-3l-4,-1q51,-45 124,-45q55,0 83,53q17,33 17,101l0,20q0,95 -64,127q-15,6 -61,7l-42,1l-3,2q-2,3 -2,16q0,18 8,18q28,0 58,5q34,5 62,42t28,112l0,8q0,57 -35,79q-22,14 -47,14q-32,0 -59,-11t-38,-23t-11,-12l3,0q3,-1 8,-2t10,-5t12,-7t10,-11t8,-15t3,-20q0,-22 -14,-39t-45,-18z" stroke-width="10" id="svg_86"/>
         <path d="m42,313q0,163 81,258t180,95q69,0 99,-36t30,-80q0,-25 -14,-40t-39,-15q-23,0 -38,14t-15,39q0,44 47,53q-22,22 -62,25q-71,0 -117,-60q-47,-66 -47,-202l1,-4q5,6 8,13q41,60 107,60l4,0q46,0 81,-19q24,-14 48,-40t39,-57q21,-49 21,-107l0,-18q0,-23 -5,-43q-11,-59 -64,-115t-134,-56q-28,0 -54,8t-56,30t-51,59t-36,97t-14,141zm215,84q-30,0 -52,-17t-34,-45t-17,-57t-6,-62q0,-83 12,-119t38,-58q24,-18 53,-18q51,0 78,38q13,18 18,45t5,105q0,80 -5,107t-18,45q-27,36 -72,36z" stroke-width="10" id="svg_85"/>
         <path d="m70,417t0,77t54,124t124,48q71,0 126,-42t55,-109q0,-30 -11,-56t-26,-42t-31,-28t-26,-18t-11,-8l14,-9q14,-10 28,-20t16,-11q75,-59 75,-149q0,-79 -58,-137t-150,-59q-90,0 -148,51t-58,126q0,108 129,180l-18,13q-21,13 -27,20q-57,49 -57,126l0,-77zm216,-31l6,4q6,4 9,6t10,7t12,10t11,12t11,13t10,16t9,17t5,20t2,22q0,43 -29,73t-67,38q-7,1 -33,1q-41,0 -77,-26t-37,-65q0,-23 13,-42t26,-29t50,-32q7,-5 11,-7l58,-38zm-36,-365q58,0 100,34t42,82q0,17 -5,32t-12,25t-22,22t-23,18t-29,19t-27,17q-14,9 -30,19t-26,17l-8,5q-6,0 -29,-17t-48,-55t-26,-82q0,-59 43,-97t100,-39z" stroke-width="10" id="svg_84"/>
         <path d="m42,0l-2,0q-14,0 -14,11q0,4 3,16q4,14 7,16t19,3q86,3 135,52q10,10 116,126t105,118q-109,278 -114,283q-9,11 -63,12l-28,0q-6,6 -6,8t2,19q4,13 10,19l14,0q34,-2 121,-2q33,0 61,0t45,1t20,0q17,0 17,-11q0,-1 -2,-13q-4,-15 -7,-18t-16,-3q-31,-3 -54,-17l77,-194l53,59q105,113 105,125q0,18 -24,25q-5,0 -13,2q-15,0 -15,11q0,2 2,16q4,13 10,19l12,0q1,0 25,0t54,-2t41,-1q90,0 99,3l8,0q7,-7 7,-11q-2,-25 -12,-35l-16,0q-34,-1 -61,-9t-41,-17t-24,-18l-11,-9q0,1 -95,-104l-87,-96q0,-1 31,-80t65,-162t37,-86q10,-9 61,-10q35,0 35,-9q0,-2 -2,-14q-4,-16 -7,-19t-14,-3q-3,0 -33,0t-89,1q-61,0 -93,0t-35,-1q-17,0 -17,9q0,1 2,15q2,10 4,14t5,5t9,2t16,1t26,7q17,8 17,10q-1,0 -47,117l-47,118q-188,-204 -193,-215q-4,-8 -4,-12q0,-19 29,-25q1,0 6,0t6,-1q3,0 4,0t3,-1t3,-3t1,-7q0,-9 -2,-16q-3,-13 -6,-15t-15,-3q-3,0 -18,0t-42,1t-59,0q-78,0 -100,-2z" stroke-width="10" id="svg_83"/>
         <path d="m66,637q-12,0 -17,0t-10,1t-7,3t-2,6t3,17t9,18q2,1 14,1q48,-3 109,-3q123,0 141,3l10,0q6,-6 6,-9t-2,-18q-4,-13 -10,-19l-12,0q-56,0 -56,-13q0,-5 50,-147t51,-144l3,3q4,4 12,13t21,24t32,37t43,51q92,107 107,126t16,31q0,16 -32,19q-17,0 -17,10q0,2 2,14q3,15 5,18t14,4q2,0 29,-1t79,-2q27,0 56,1t33,1q17,0 17,-9q0,-4 -3,-16t-5,-14q-2,-6 -21,-6q-72,-5 -117,-50q-9,-9 -140,-163l-129,-151l-26,-104q-27,-107 -27,-112q0,-11 68,-11q16,0 21,-1t6,-10q0,-2 -2,-12q-4,-17 -6,-19t-16,-3q-5,0 -42,0t-92,1q-62,0 -94,0t-36,-1q-18,0 -18,8q0,5 3,15q1,3 2,6t1,5t1,4t2,3t3,2t5,1t6,0t9,1t13,0q39,1 51,4t18,13q3,5 29,108l25,103l-123,349q-1,1 -2,2t-2,2t-3,2t-4,2t-5,2t-8,1t-9,1t-13,1t-17,1z" stroke-width="10" id="svg_82"/>
         <path d="m56,237t0,13t14,20l299,0l0,150l1,150q10,13 19,13q13,0 20,-15l0,-298l298,0q15,-8 15,-20t-15,-20l-298,0l0,-298q-8,-14 -18,-14l-2,0l-2,0q-12,0 -18,14l0,298l-299,0q-14,7 -14,20l0,-13z" stroke-width="10" id="svg_80"/>
         <path d="m21,287q0,14 15,48t48,71t74,36q41,0 66,-23t26,-64q-2,-19 -3,-21q0,-3 -16,-46t-33,-97t-16,-86q0,-43 14,-60t42,-18q23,0 43,11t31,23t27,33q0,1 5,20t14,59t19,74q38,150 42,157q13,27 43,27q13,0 21,-7t11,-12t2,-9q0,-13 -49,-210t-56,-216q-28,-83 -97,-132t-138,-50q-45,0 -79,22t-34,66q0,22 7,37t19,22t20,10t17,3q44,0 44,-42q0,-20 -12,-35t-23,-20t-13,-5l-3,-1q2,-5 19,-12t34,-7l8,0q17,0 26,2q33,9 61,38t43,62t23,56t8,30l-6,-4q-6,-4 -19,-11t-26,-12q-20,-5 -39,-5q-46,0 -81,22t-46,71q-1,7 -1,31q0,57 35,149t35,117q0,1 0,2q0,9 0,12t-4,7t-11,4l-4,0q-23,0 -42,-19t-30,-41t-17,-42t-8,-22q-2,-2 -16,-2l-14,0q-6,6 -6,9z" stroke-width="10" id="svg_79"/>
         <path d="m56,347q0,13 14,20l637,0q15,-8 15,-20q0,-11 -14,-19l-318,-1l-318,0q-16,5 -16,20zm0,-194q0,15 16,20l636,0q14,-10 14,-20q0,-13 -15,-20l-637,0q-14,7 -14,20z" stroke-width="10" id="svg_78"/>
         <path d="m462,0q-18,3 -129,3q-116,0 -134,-3l-9,0l0,46l31,0q20,0 27,0t17,2t14,5t7,8q1,2 1,54l0,50l-259,0l0,46l151,231q153,232 155,233q2,2 21,2l18,0l6,-6l0,-460l92,0l0,-46l-92,0l0,-51q0,-41 0,-48t6,-12q8,-7 57,-8l29,0l0,-46l-9,0zm-169,211l0,334l-219,-333l109,-1l110,0z" stroke-width="10" id="svg_77"/>
        </defs>
        <g id="svg_196" transform="matrix(1 0 0 -1 0 0)" stroke-width="0" fill="rgb(68, 68, 68)" stroke="rgb(68, 68, 68)">
         <use id="svg_197" xlink:href="#svg_81"/>
         <use id="svg_198" y="0" x="799" xlink:href="#svg_80"/>
         <use id="svg_199" y="0" x="1804" xlink:href="#svg_79"/>
         <use id="svg_200" y="0" x="2584" xlink:href="#svg_78"/>
         <use id="svg_201" y="0" x="3645" xlink:href="#svg_77"/>
        </g>
       </svg>
      </g>
     </svg>
    </g>
    <g id="svg_202" class="annotation-arrow-g">
     <path id="svg_203" stroke-width="2px" stroke="rgb(68, 68, 68)" stroke-dasharray="23.0441253662109px, 24.2441253662109px" d="m426.833344,164.050003l7.666656,23"/>
     <path id="svg_204" fill="rgb(68, 68, 68)" stroke-width="0px" transform="rotate(71.5678, 433.552, 184.207) translate(434.121, 185.912) scale(2)" d="m-2.4,-3l0,6l3,-3l-3,-3z"/>
     <path id="svg_205" stroke-width="8px" stroke="rgb(0, 0, 0)" stroke-opacity="0" fill="rgb(0, 0, 0)" fill-opacity="0" d="m437.5,190.050003l-6,0l0,-6l6,0l0,6zm-3,-3l-7.666656,-23" class="annotation anndrag"/>
    </g>
   </g>
  </g>
 </g>
</svg>