<?xml version="1.0"?>
<svg width="640" height="480" xmlns="http://www.w3.org/2000/svg" xmlns:svg="http://www.w3.org/2000/svg" xmlns:se="http://svg-edit.googlecode.com" clip-path="url(#presentation_clip_path)" preserveAspectRatio="xMidYMid">
 <!-- Created with SVG-edit - http://svg-edit.googlecode.com/ -->
 <g>
  <title>Layer 1</title>
  <polyline se:connector="svg_9 svg_2" fill="none" stroke-width="3" stroke="#000000" points="41.2801 302.75 113.25 302.75 185.22 302.75" id="svg_10"/>
  <polyline se:connector="svg_6 svg_5" fill="none" stroke-width="3" stroke="#000000" points="355.28009033203125,302.75 458,302.75 560.7199096679688,302.75" id="svg_8"/>
  <polyline se:connector="svg_2 svg_6" fill="none" stroke-width="3" stroke="#000000" points="202.78012084960938,302.75 270.25,302.75 337.7198791503906,302.75" id="svg_7"/>
  <path stroke="#00007f" id="svg_11" transform="rotate(89.7911 270.226 267.533)" d="m284.348083,341.864471c-7.799194,0 -14.12146,-0.917511 -14.12146,-2.051361l0,-71.254822c0,-1.13147 -6.323578,-2.051361 -14.122772,-2.051361l0,0c7.799194,0 14.122772,-0.917572 14.122772,-2.049042l0,-71.257126l0,0c0,-1.133759 6.322266,-2.051361 14.12146,-2.051361" stroke-width="3" fill="none"/>
  <path stroke="#00007f" id="svg_13" transform="rotate(-89.8396 459.192 380.364)" d="m473.314301,494.66275c-7.799194,0 -14.12146,-1.410858 -14.12146,-3.154358l0,-109.566833c0,-1.739838 -6.323578,-3.154327 -14.122772,-3.154327l0,0c7.799194,0 14.122772,-1.41095 14.122772,-3.150787l0,-109.570374l0,0c0,-1.743378 6.322266,-3.154327 14.12146,-3.154327" stroke-width="3" fill="none"/>
  <path stroke="#00007f" id="svg_14" transform="rotate(-89.8396 109.575 376.578)" d="m123.696777,460.852539c-7.799194,0 -14.12146,-1.040253 -14.12146,-2.325775l0,-80.786011c0,-1.282806 -6.323578,-2.325745 -14.122772,-2.325745l0,0c7.799194,0 14.122772,-1.040344 14.122772,-2.323151l0,-80.788666l0,0c0,-1.285431 6.322266,-2.325775 14.12146,-2.325775" stroke-width="3" fill="none"/>
  <text style="cursor: move;" stroke="#00007f" transform="matrix(1.55738 0 0 1.74074 -78.8689 -222.963)" xml:space="preserve" text-anchor="middle" font-family="Sans-serif" font-size="24" id="svg_15" y="331.617021" x="172.642105" stroke-linecap="null" stroke-linejoin="null" stroke-dasharray="null" stroke-width="0" fill="#000000">-1</text>
  <text id="svg_16" stroke="#00007f" transform="matrix(1.55738 0 0 1.74074 -78.8689 -222.963)" xml:space="preserve" text-anchor="middle" font-family="Sans-serif" font-size="24" y="332.198283" x="269.925018" stroke-linecap="null" stroke-linejoin="null" stroke-dasharray="null" stroke-width="0" fill="#000000">0</text>
  <text style="cursor: move;" id="svg_18" stroke="#00007f" transform="matrix(1.55738 0 0 1.74074 -78.8689 -222.963)" xml:space="preserve" text-anchor="middle" font-family="Sans-serif" font-size="24" y="289.088046" x="110.039803" stroke-linecap="null" stroke-linejoin="null" stroke-dasharray="null" stroke-width="0" fill="#000000">&lt; -1</text>
  <text id="svg_19" stroke="#00007f" transform="matrix(1.55738 0 0 1.74074 -78.8689 -222.963)" xml:space="preserve" text-anchor="middle" font-family="Sans-serif" font-size="24" y="289.086048" x="345.691994" stroke-linecap="null" stroke-linejoin="null" stroke-dasharray="null" stroke-width="0" fill="#000000">&gt; 0</text>
  <g id="svg_22">
   <text transform="matrix(1.35678 0 0 1.06511 -100.292 -22.8739)" stroke="#00007f" xml:space="preserve" text-anchor="middle" font-family="Sans-serif" font-size="24" id="svg_20" y="204" x="272" stroke-linecap="null" stroke-linejoin="null" stroke-dasharray="null" stroke-width="0" fill="#00007f">|x| = -x</text>
   <text transform="matrix(1.35678 0 0 1.06511 -100.292 -22.8739)" stroke="#00007f" id="svg_21" xml:space="preserve" text-anchor="middle" font-family="Sans-serif" font-size="24" y="239" x="275.5" stroke-linecap="null" stroke-linejoin="null" stroke-dasharray="null" stroke-width="0" fill="#00007f">|x + 1| = x + 1</text>
  </g>
  <g id="svg_29">
   <text transform="matrix(1.28253 0 0 1.09719 -10.2197 -39.6325)" stroke="#00007f" id="svg_27" xml:space="preserve" text-anchor="middle" font-family="Sans-serif" font-size="24" y="429.5" x="106.220292" stroke-linecap="null" stroke-linejoin="null" stroke-dasharray="null" stroke-width="0" fill="#00007f">|x| = -x</text>
   <text transform="matrix(1.28253 0 0 1.09719 -10.2197 -39.6325)" stroke="#00007f" id="svg_28" xml:space="preserve" text-anchor="middle" font-family="Sans-serif" font-size="24" y="464.5" x="109.720292" stroke-linecap="null" stroke-linejoin="null" stroke-dasharray="null" stroke-width="0" fill="#00007f">|x + 1| = -x - 1</text>
  </g>
  <g id="svg_30">
   <text transform="matrix(1.31806 0 0 1.08136 -125.423 -33.1973)" stroke="#00007f" id="svg_24" xml:space="preserve" text-anchor="middle" font-family="Sans-serif" font-size="24" y="429.297737" x="460.241311" stroke-linecap="null" stroke-linejoin="null" stroke-dasharray="null" stroke-width="0" fill="#00007f">|x| = x</text>
   <text transform="matrix(1.31806 0 0 1.08136 -125.423 -33.1973)" stroke="#00007f" id="svg_25" xml:space="preserve" text-anchor="middle" font-family="Sans-serif" font-size="24" y="464.297737" x="462.741311" stroke-linecap="null" stroke-linejoin="null" stroke-dasharray="null" stroke-width="0" fill="#00007f">|x + 1| = x + 1</text>
  </g>
  <g id="svg_33">
   <g id="svg_32">
    <circle id="svg_2" r="7.28011" cy="302.75" cx="194" stroke-linecap="null" stroke-linejoin="null" stroke-dasharray="null" stroke-width="3" stroke="#00007f" fill="none"/>
    <circle id="svg_5" r="7.28011" cy="302.750011" cx="569.5" stroke-linecap="null" stroke-linejoin="null" stroke-dasharray="null" stroke-width="3" stroke="#00007f" fill="none"/>
    <circle id="svg_6" r="7.28011" cy="302.750011" cx="346.5" stroke-linecap="null" stroke-linejoin="null" stroke-dasharray="null" stroke-width="3" stroke="#00007f" fill="none"/>
    <circle id="svg_9" r="7.28011" cy="302.750011" cx="32.5" stroke-linecap="null" stroke-linejoin="null" stroke-dasharray="null" stroke-width="3" stroke="#00007f" fill="none"/>
   </g>
  </g>
 </g>
</svg>