<?xml version="1.0" encoding="UTF-8"?>
<svg width="869" height="473" xmlns="http://www.w3.org/2000/svg" xmlns:svg="http://www.w3.org/2000/svg" class="main-svg">
 <defs>
  <g id="svg_119" class="clips">
   <clipPath id="clipcc5c82x" class="axesclip">
    <rect id="svg_120" height="473" width="632" y="0" x="80"/>
   </clipPath>
   <clipPath id="clipcc5c82y" class="axesclip">
    <rect id="svg_121" height="293" width="869" y="100" x="0"/>
   </clipPath>
   <clipPath id="clipcc5c82xy" class="axesclip">
    <rect id="svg_122" height="293" width="632" y="100" x="80"/>
   </clipPath>
  </g>
 </defs>
 <g>
  <title>Layer 1</title>
  <rect id="svg_123" fill="rgb(255, 255, 255)" height="473" width="869" y="0" x="0"/>
  <g id="svg_124" class="draglayer">
   <g id="svg_125"/>
  </g>
  <g id="svg_126" class="subplot xy">
   <rect id="svg_127" stroke-width="0px" fill="rgb(255, 255, 255)" height="293" width="632" y="100" x="80"/>
   <g id="svg_128">
    <path id="svg_129" stroke="rgb(238, 238, 238)" stroke-width="1px" d="m229.919998,100l0,293" class="xgrid crisp"/>
    <path id="svg_130" stroke="rgb(238, 238, 238)" stroke-width="1px" d="m340.640015,100l0,293" class="xgrid crisp"/>
    <path id="svg_131" stroke="rgb(238, 238, 238)" stroke-width="1px" d="m451.359985,100l0,293" class="xgrid crisp"/>
    <path id="svg_132" stroke="rgb(238, 238, 238)" stroke-width="1px" d="m562.079956,100l0,293" class="xgrid crisp"/>
    <path id="svg_133" stroke="rgb(238, 238, 238)" stroke-width="1px" d="m672.799988,100l0,293" class="xgrid crisp"/>
    <path id="svg_134" stroke="rgb(238, 238, 238)" stroke-width="1px" d="m80,289.200012l632,0" class="ygrid crisp"/>
    <path id="svg_135" stroke="rgb(238, 238, 238)" stroke-width="1px" d="m80,203.800003l632,0" class="ygrid crisp"/>
    <path id="svg_136" stroke="rgb(238, 238, 238)" stroke-width="1px" d="m80,118.400002l632,0" class="ygrid crisp"/>
   </g>
   <g id="svg_137"/>
   <g id="svg_138">
    <path id="svg_139" stroke="rgb(68, 68, 68)" stroke-width="1px" d="m119.199997,100l0,293" class="xzl zl crisp"/>
    <path id="svg_140" stroke="rgb(68, 68, 68)" stroke-width="1px" d="m80,374.600006l632,0" class="yzl zl crisp"/>
   </g>
   <g id="svg_141"/>
   <svg id="svg_142" viewBox="0 0 632 293" height="293" width="632" y="100" x="80" preserveAspectRatio="none">
    <g id="svg_143" class="maplayer"/>
    <g id="svg_144" class="barlayer"/>
    <g id="svg_145" class="errorlayer">
     <g id="svg_146" class="errorbars"/>
     <g id="svg_147" class="errorbars"/>
     <g id="svg_148" class="errorbars"/>
    </g>
    <g id="svg_149" class="boxlayer"/>
    <g id="svg_150" class="scatterlayer">
     <g id="svg_151" stroke-miterlimit="2" class="trace scatter">
      <path id="svg_152" fill="none" stroke="rgb(31, 119, 180)" stroke-width="2px" d="m39.200001,189.199997l553.599987,42.699997" class="js-line"/>
      <g id="svg_153" class="points">
       <path id="svg_154" stroke-width="0px" fill="rgb(31, 119, 180)" d="m42.200001,189.199997a3,3 0 1 1 -3,-3a3,3 0 0 1 3,3z" class="point"/>
       <path id="svg_155" stroke-width="0px" fill="rgb(31, 119, 180)" d="m152.919998,197.740005a3,3 0 1 1 -3,-3a3,3 0 0 1 3,3z" class="point"/>
       <path id="svg_156" stroke-width="0px" fill="rgb(31, 119, 180)" d="m263.640015,206.279999a3,3 0 1 1 -3,-3a3,3 0 0 1 3,3z" class="point"/>
       <path id="svg_157" stroke-width="0px" fill="rgb(31, 119, 180)" d="m374.359985,214.820007a3,3 0 1 1 -3,-3a3,3 0 0 1 3,3z" class="point"/>
       <path id="svg_158" stroke-width="0px" fill="rgb(31, 119, 180)" d="m485.079987,223.360001a3,3 0 1 1 -3,-3a3,3 0 0 1 3,3z" class="point"/>
       <path id="svg_159" stroke-width="0px" fill="rgb(31, 119, 180)" d="m595.799988,231.899994a3,3 0 1 1 -3,-3a3,3 0 0 1 3,3z" class="point"/>
      </g>
     </g>
     <g id="svg_160" stroke-miterlimit="2" class="trace scatter">
      <path id="svg_161" fill="none" stroke="rgb(255, 127, 14)" stroke-width="2px" d="m39.200001,18.4l553.599987,256.200006" class="js-line"/>
      <g id="svg_162" class="points">
       <path id="svg_163" stroke-width="0px" fill="rgb(255, 127, 14)" d="m42.200001,18.4a3,3 0 1 1 -3,-3a3,3 0 0 1 3,3z" class="point"/>
       <path id="svg_164" stroke-width="0px" fill="rgb(255, 127, 14)" d="m152.919998,69.639999a3,3 0 1 1 -3,-3a3,3 0 0 1 3,3z" class="point"/>
       <path id="svg_165" stroke-width="0px" fill="rgb(255, 127, 14)" d="m263.640015,120.879997a3,3 0 1 1 -3,-3a3,3 0 0 1 3,3z" class="point"/>
       <path id="svg_166" stroke-width="0px" fill="rgb(255, 127, 14)" d="m374.359985,172.119995a3,3 0 1 1 -3,-3a3,3 0 0 1 3,3z" class="point"/>
       <path id="svg_167" stroke-width="0px" fill="rgb(255, 127, 14)" d="m485.079987,223.360001a3,3 0 1 1 -3,-3a3,3 0 0 1 3,3z" class="point"/>
       <path id="svg_168" stroke-width="0px" fill="rgb(255, 127, 14)" d="m595.799988,274.600006a3,3 0 1 1 -3,-3a3,3 0 0 1 3,3z" class="point"/>
      </g>
     </g>
     <g id="svg_169" stroke-miterlimit="2" class="trace scatter">
      <path id="svg_170" stroke-width="0px" fill="rgb(0, 0, 0)" fill-opacity="0.5" d="m39.200001,189.199997l442.879986,34.160004l110.720001,51.240005l0,0l-553.599987,0l0,-85.400009z" class="js-fill"/>
      <path id="svg_171" fill="none" stroke="rgb(0, 0, 0)" stroke-opacity="0" stroke-width="2px" d="m39.200001,189.199997l442.879986,34.160004l110.720001,51.240005" class="js-line"/>
      <g id="svg_172" class="points">
       <path id="svg_173" stroke-width="0px" fill="rgb(0, 0, 0)" fill-opacity="0" d="m42.200001,189.199997a3,3 0 1 1 -3,-3a3,3 0 0 1 3,3z" class="point"/>
       <path id="svg_174" stroke-width="0px" fill="rgb(0, 0, 0)" fill-opacity="0" d="m152.919998,197.740005a3,3 0 1 1 -3,-3a3,3 0 0 1 3,3z" class="point"/>
       <path id="svg_175" stroke-width="0px" fill="rgb(0, 0, 0)" fill-opacity="0" d="m263.640015,206.279999a3,3 0 1 1 -3,-3a3,3 0 0 1 3,3z" class="point"/>
       <path id="svg_176" stroke-width="0px" fill="rgb(0, 0, 0)" fill-opacity="0" d="m374.359985,214.820007a3,3 0 1 1 -3,-3a3,3 0 0 1 3,3z" class="point"/>
       <path id="svg_177" stroke-width="0px" fill="rgb(0, 0, 0)" fill-opacity="0" d="m485.079987,223.360001a3,3 0 1 1 -3,-3a3,3 0 0 1 3,3z" class="point"/>
       <path id="svg_178" stroke-width="0px" fill="rgb(0, 0, 0)" fill-opacity="0" d="m595.799988,274.600006a3,3 0 1 1 -3,-3a3,3 0 0 1 3,3z" class="point"/>
      </g>
     </g>
    </g>
   </svg>
   <g id="svg_179"/>
   <path id="svg_180" fill="none" stroke-width="1px" stroke="rgb(0, 0, 0)" stroke-opacity="0" d="m79,393.5l634,0" class="crisp"/>
   <path id="svg_181" fill="none" stroke="rgb(0, 0, 0)" stroke-opacity="0" stroke-width="1px" d="m79.5,99l0,294" class="crisp"/>
   <g id="svg_182"/>
   <g id="svg_183">
    <g id="svg_184" class="xtick">
     <text id="svg_185" font-family="'Open sans', verdana, arial, sans-serif" font-size="12px" fill="rgb(68, 68, 68)" y="407" x="119.200001" text-anchor="middle">0</text>
    </g>
    <g id="svg_186" class="xtick">
     <text id="svg_187" font-family="'Open sans', verdana, arial, sans-serif" font-size="12px" fill="rgb(68, 68, 68)" y="407" x="229.919998" text-anchor="middle">1</text>
    </g>
    <g id="svg_188" class="xtick">
     <text id="svg_189" font-family="'Open sans', verdana, arial, sans-serif" font-size="12px" fill="rgb(68, 68, 68)" y="407" x="340.640015" text-anchor="middle">2</text>
    </g>
    <g id="svg_190" class="xtick">
     <text id="svg_191" font-family="'Open sans', verdana, arial, sans-serif" font-size="12px" fill="rgb(68, 68, 68)" y="407" x="451.359985" text-anchor="middle">3</text>
    </g>
    <g id="svg_192" class="xtick">
     <text id="svg_193" font-family="'Open sans', verdana, arial, sans-serif" font-size="12px" fill="rgb(68, 68, 68)" y="407" x="562.079987" text-anchor="middle">4</text>
    </g>
    <g id="svg_194" class="xtick">
     <text id="svg_195" font-family="'Open sans', verdana, arial, sans-serif" font-size="12px" fill="rgb(68, 68, 68)" y="407" x="672.799988" text-anchor="middle">5</text>
    </g>
   </g>
   <g id="svg_196">
    <g id="svg_197" class="ytick">
     <text id="svg_198" font-family="'Open sans', verdana, arial, sans-serif" font-size="12px" fill="rgb(68, 68, 68)" y="380.600006" x="78" text-anchor="end">0</text>
    </g>
    <g id="svg_199" class="ytick">
     <text id="svg_200" font-family="'Open sans', verdana, arial, sans-serif" font-size="12px" fill="rgb(68, 68, 68)" y="295.199997" x="78" text-anchor="end">5</text>
    </g>
    <g id="svg_201" class="ytick">
     <text id="svg_202" font-family="'Open sans', verdana, arial, sans-serif" font-size="12px" fill="rgb(68, 68, 68)" y="209.800003" x="78" text-anchor="end">10</text>
    </g>
    <g id="svg_203" class="ytick">
     <text id="svg_204" font-family="'Open sans', verdana, arial, sans-serif" font-size="12px" fill="rgb(68, 68, 68)" y="124.4" x="78" text-anchor="end">15</text>
    </g>
   </g>
   <g id="svg_205"/>
  </g>
  <g id="svg_206" class="shapelayer"/>
  <g id="svg_207" class="glimages"/>
  <text id="svg_208" font-family="'Open Sans', Arial, sans-serif" font-size="12px" fill="rgb(68, 68, 68)" x="862" text-anchor="end" y="464" class="js-plot-link-container"/>
  <g id="svg_209" class="infolayer">
   <g id="svg_210" class="g-gtitle"/>
   <g id="svg_211" class="g-xtitle"/>
   <g id="svg_212" class="g-ytitle"/>
  </g>
 </g>
</svg>