<?xml version="1.0" encoding="UTF-8"?>
<svg xmlns="http://www.w3.org/2000/svg" xmlns:xlink="http://www.w3.org/1999/xlink" width="243.76516pt" height="101.27466pt" viewBox="0 0 243.76516 101.27466" version="1.1">
<g id="surface1">
<path style=" stroke:none;fill-rule:nonzero;fill:rgb(0%,0%,0%);fill-opacity:1;" d="M 1.542969 4.160156 L 0 4.160156 L 0 16.601562 L 1.542969 16.601562 Z M 1.542969 4.160156 "/>
<path style=" stroke:none;fill-rule:nonzero;fill:rgb(0%,0%,0%);fill-opacity:1;" d="M 6.285156 9.6875 L 8.199219 9.6875 L 8.199219 8.632812 L 6.246094 8.632812 L 6.246094 6.484375 C 6.246094 5.273438 7.261719 5.058594 7.867188 5.058594 C 8.492188 5.058594 9.039062 5.253906 9.253906 5.332031 L 9.253906 4.160156 C 9.136719 4.121094 8.53125 3.984375 7.886719 3.984375 C 6.167969 3.984375 4.957031 5.292969 4.957031 7.03125 L 4.957031 8.632812 L 3.648438 8.632812 L 3.648438 9.6875 L 4.957031 9.6875 L 4.957031 16.601562 L 6.285156 16.601562 Z M 6.285156 9.6875 "/>
<path style=" stroke:none;fill-rule:nonzero;fill:rgb(0%,0%,0%);fill-opacity:1;" d="M 19.136719 18.613281 C 18.667969 19.296875 17.964844 19.902344 17.085938 19.902344 C 16.871094 19.902344 16.011719 19.863281 15.738281 19.042969 C 15.796875 19.0625 15.875 19.0625 15.914062 19.0625 C 16.460938 19.0625 16.8125 18.59375 16.8125 18.183594 C 16.8125 17.773438 16.480469 17.617188 16.207031 17.617188 C 15.914062 17.617188 15.289062 17.832031 15.289062 18.710938 C 15.289062 19.628906 16.070312 20.253906 17.085938 20.253906 C 18.882812 20.253906 20.679688 18.613281 21.1875 16.621094 L 22.945312 9.628906 C 22.964844 9.53125 23.003906 9.433594 23.003906 9.316406 C 23.003906 9.0625 22.789062 8.867188 22.515625 8.867188 C 22.359375 8.867188 21.96875 8.945312 21.832031 9.492188 L 20.503906 14.746094 C 20.425781 15.078125 20.425781 15.117188 20.269531 15.3125 C 19.917969 15.820312 19.332031 16.425781 18.472656 16.425781 C 17.457031 16.425781 17.378906 15.429688 17.378906 14.960938 C 17.378906 13.925781 17.847656 12.558594 18.335938 11.25 C 18.53125 10.742188 18.648438 10.488281 18.648438 10.136719 C 18.648438 9.375 18.101562 8.691406 17.222656 8.691406 C 15.582031 8.691406 14.917969 11.289062 14.917969 11.445312 C 14.917969 11.503906 14.976562 11.601562 15.113281 11.601562 C 15.269531 11.601562 15.289062 11.523438 15.367188 11.269531 C 15.796875 9.765625 16.480469 9.0625 17.164062 9.0625 C 17.339844 9.0625 17.632812 9.0625 17.632812 9.648438 C 17.632812 10.117188 17.4375 10.625 17.164062 11.308594 C 16.285156 13.652344 16.285156 14.257812 16.285156 14.6875 C 16.285156 16.386719 17.515625 16.777344 18.414062 16.777344 C 18.921875 16.777344 19.566406 16.621094 20.210938 15.957031 L 20.230469 15.976562 C 19.957031 17.03125 19.78125 17.734375 19.136719 18.613281 Z M 19.136719 18.613281 "/>
<path style=" stroke:none;fill-rule:nonzero;fill:rgb(0%,0%,0%);fill-opacity:1;" d="M 40.636719 10.800781 C 40.890625 10.800781 41.203125 10.800781 41.203125 10.46875 C 41.203125 10.136719 40.890625 10.136719 40.636719 10.136719 L 30.070312 10.136719 C 29.816406 10.136719 29.503906 10.136719 29.503906 10.449219 C 29.503906 10.800781 29.796875 10.800781 30.070312 10.800781 Z M 40.636719 14.121094 C 40.890625 14.121094 41.203125 14.121094 41.203125 13.808594 C 41.203125 13.457031 40.890625 13.457031 40.636719 13.457031 L 30.070312 13.457031 C 29.816406 13.457031 29.503906 13.457031 29.503906 13.789062 C 29.503906 14.121094 29.796875 14.121094 30.070312 14.121094 Z M 40.636719 14.121094 "/>
<path style=" stroke:none;fill-rule:nonzero;fill:rgb(0%,0%,0%);fill-opacity:1;" d="M 50.324219 14.609375 C 49.699219 15.664062 49.09375 16.035156 48.234375 16.074219 C 48.039062 16.09375 47.882812 16.09375 47.882812 16.425781 C 47.882812 16.523438 47.980469 16.601562 48.097656 16.601562 C 48.429688 16.601562 49.230469 16.5625 49.5625 16.5625 C 50.070312 16.5625 50.65625 16.601562 51.144531 16.601562 C 51.261719 16.601562 51.476562 16.601562 51.476562 16.269531 C 51.476562 16.09375 51.320312 16.074219 51.222656 16.074219 C 50.8125 16.054688 50.460938 15.898438 50.460938 15.46875 C 50.460938 15.214844 50.578125 15.019531 50.8125 14.628906 L 52.179688 12.363281 L 56.75 12.363281 C 56.769531 12.539062 56.769531 12.675781 56.789062 12.832031 C 56.828125 13.300781 57.042969 15.175781 57.042969 15.507812 C 57.042969 16.054688 56.125 16.074219 55.851562 16.074219 C 55.65625 16.074219 55.460938 16.074219 55.460938 16.40625 C 55.460938 16.601562 55.617188 16.601562 55.714844 16.601562 C 56.027344 16.601562 56.378906 16.5625 56.691406 16.5625 L 57.707031 16.5625 C 58.800781 16.5625 59.601562 16.601562 59.621094 16.601562 C 59.738281 16.601562 59.933594 16.601562 59.933594 16.269531 C 59.933594 16.074219 59.777344 16.074219 59.503906 16.074219 C 58.527344 16.074219 58.507812 15.917969 58.449219 15.390625 L 57.355469 4.199219 C 57.316406 3.828125 57.238281 3.808594 57.042969 3.808594 C 56.867188 3.808594 56.769531 3.828125 56.59375 4.101562 Z M 52.472656 11.855469 L 56.085938 5.820312 L 56.691406 11.855469 Z M 52.472656 11.855469 "/>
<path style=" stroke:none;fill-rule:nonzero;fill:rgb(0%,0%,0%);fill-opacity:1;" d="M 71.527344 12.460938 L 76.488281 12.460938 C 76.742188 12.460938 77.054688 12.460938 77.054688 12.128906 C 77.054688 11.796875 76.742188 11.796875 76.488281 11.796875 L 71.527344 11.796875 L 71.527344 6.855469 C 71.527344 6.601562 71.527344 6.269531 71.214844 6.269531 C 70.863281 6.269531 70.863281 6.582031 70.863281 6.855469 L 70.863281 11.796875 L 65.921875 11.796875 C 65.667969 11.796875 65.355469 11.796875 65.355469 12.128906 C 65.355469 12.460938 65.648438 12.460938 65.921875 12.460938 L 70.863281 12.460938 L 70.863281 17.402344 C 70.863281 17.65625 70.863281 17.988281 71.195312 17.988281 C 71.527344 17.988281 71.527344 17.675781 71.527344 17.402344 Z M 71.527344 12.460938 "/>
<path style=" stroke:none;fill-rule:nonzero;fill:rgb(0%,0%,0%);fill-opacity:1;" d="M 88.640625 5.566406 C 88.796875 4.902344 88.875 4.882812 89.578125 4.882812 L 91.902344 4.882812 C 93.933594 4.882812 93.933594 6.601562 93.933594 6.757812 C 93.933594 8.203125 92.46875 10.058594 90.105469 10.058594 L 87.527344 10.058594 Z M 91.667969 10.195312 C 93.621094 9.84375 95.398438 8.476562 95.398438 6.835938 C 95.398438 5.429688 94.167969 4.355469 92.136719 4.355469 L 86.375 4.355469 C 86.042969 4.355469 85.886719 4.355469 85.886719 4.6875 C 85.886719 4.882812 86.042969 4.882812 86.316406 4.882812 C 87.410156 4.882812 87.410156 5.019531 87.410156 5.214844 C 87.410156 5.253906 87.410156 5.351562 87.332031 5.625 L 84.910156 15.273438 C 84.753906 15.898438 84.714844 16.074219 83.464844 16.074219 C 83.113281 16.074219 82.9375 16.074219 82.9375 16.40625 C 82.9375 16.601562 83.054688 16.601562 83.40625 16.601562 L 89.558594 16.601562 C 92.292969 16.601562 94.421875 14.53125 94.421875 12.714844 C 94.421875 11.25 93.113281 10.351562 91.667969 10.195312 Z M 89.128906 16.074219 L 86.707031 16.074219 C 86.453125 16.074219 86.414062 16.074219 86.316406 16.054688 C 86.121094 16.054688 86.101562 16.015625 86.101562 15.859375 C 86.101562 15.742188 86.121094 15.625 86.160156 15.46875 L 87.429688 10.410156 L 90.789062 10.410156 C 92.898438 10.410156 92.898438 12.382812 92.898438 12.539062 C 92.898438 14.257812 91.355469 16.074219 89.128906 16.074219 Z M 89.128906 16.074219 "/>
<path style=" stroke:none;fill-rule:nonzero;fill:rgb(0%,0%,0%);fill-opacity:1;" d="M 99.492188 16.582031 L 99.492188 15.15625 L 98.027344 15.15625 L 98.027344 16.601562 L 98.476562 16.601562 L 98.027344 18.847656 L 98.75 18.847656 Z M 99.492188 16.582031 "/>
<path style=" stroke:none;fill-rule:nonzero;fill:rgb(0%,0%,0%);fill-opacity:1;" d="M 110.046875 9.6875 L 112.527344 9.6875 L 112.527344 8.632812 L 110.046875 8.632812 L 110.046875 6.367188 L 108.816406 6.367188 L 108.816406 8.632812 L 107.3125 8.632812 L 107.3125 9.6875 L 108.777344 9.6875 L 108.777344 14.511719 C 108.777344 15.546875 109.011719 16.777344 110.242188 16.777344 C 111.453125 16.777344 112.273438 16.367188 112.820312 16.074219 L 112.546875 15.039062 C 111.921875 15.605469 111.257812 15.664062 110.945312 15.664062 C 110.144531 15.664062 110.046875 14.824219 110.046875 14.199219 Z M 110.046875 9.6875 "/>
<path style=" stroke:none;fill-rule:nonzero;fill:rgb(0%,0%,0%);fill-opacity:1;" d="M 120.875 11.210938 C 120.875 10.117188 120.640625 8.457031 118.472656 8.457031 C 117.242188 8.457031 116.421875 9.160156 115.992188 9.707031 L 115.992188 4.160156 L 114.664062 4.160156 L 114.664062 16.601562 L 116.011719 16.601562 L 116.011719 12.128906 C 116.011719 11.035156 116.441406 9.53125 117.789062 9.53125 C 119.46875 9.53125 119.507812 10.703125 119.507812 11.328125 L 119.507812 16.601562 L 120.875 16.601562 Z M 120.875 11.210938 "/>
<path style=" stroke:none;fill-rule:nonzero;fill:rgb(0%,0%,0%);fill-opacity:1;" d="M 129.582031 12.558594 C 129.582031 11.796875 129.503906 10.703125 128.9375 9.746094 C 128.195312 8.515625 126.945312 8.378906 126.417969 8.378906 C 124.484375 8.378906 122.863281 10.234375 122.863281 12.558594 C 122.863281 14.941406 124.582031 16.777344 126.671875 16.777344 C 127.492188 16.777344 128.488281 16.542969 129.464844 15.839844 C 129.464844 15.761719 129.40625 15.195312 129.40625 15.175781 C 129.386719 15.15625 129.367188 14.746094 129.367188 14.6875 C 128.292969 15.585938 127.238281 15.703125 126.710938 15.703125 C 125.324219 15.703125 124.132812 14.472656 124.113281 12.558594 Z M 124.210938 11.601562 C 124.523438 10.390625 125.363281 9.453125 126.417969 9.453125 C 126.984375 9.453125 128.214844 9.707031 128.507812 11.601562 Z M 124.210938 11.601562 "/>
<path style=" stroke:none;fill-rule:nonzero;fill:rgb(0%,0%,0%);fill-opacity:1;" d="M 137.675781 11.210938 C 137.675781 10.117188 137.441406 8.457031 135.273438 8.457031 C 134.277344 8.457031 133.417969 8.90625 132.734375 9.765625 L 132.734375 8.554688 L 131.464844 8.554688 L 131.464844 16.601562 L 132.8125 16.601562 L 132.8125 12.128906 C 132.8125 11.035156 133.242188 9.53125 134.589844 9.53125 C 136.269531 9.53125 136.308594 10.703125 136.308594 11.328125 L 136.308594 16.601562 L 137.675781 16.601562 Z M 137.675781 11.210938 "/>
<path style=" stroke:none;fill-rule:nonzero;fill:rgb(0%,0%,0%);fill-opacity:1;" d="M 153.15625 0.136719 C 153.15625 0.136719 153.15625 0 153 0 C 152.804688 0 151.632812 0.117188 151.417969 0.136719 C 151.320312 0.15625 151.242188 0.214844 151.242188 0.371094 C 151.242188 0.527344 151.359375 0.527344 151.535156 0.527344 C 152.140625 0.527344 152.160156 0.605469 152.160156 0.742188 L 152.121094 0.996094 L 151.378906 3.945312 C 151.144531 3.476562 150.792969 3.144531 150.226562 3.144531 C 148.78125 3.144531 147.238281 4.980469 147.238281 6.796875 C 147.238281 7.96875 147.921875 8.789062 148.878906 8.789062 C 149.132812 8.789062 149.757812 8.730469 150.5 7.851562 C 150.597656 8.378906 151.046875 8.789062 151.632812 8.789062 C 152.082031 8.789062 152.355469 8.496094 152.570312 8.105469 C 152.765625 7.65625 152.941406 6.894531 152.941406 6.875 C 152.941406 6.738281 152.824219 6.738281 152.785156 6.738281 C 152.667969 6.738281 152.648438 6.796875 152.609375 6.972656 C 152.394531 7.773438 152.179688 8.515625 151.671875 8.515625 C 151.320312 8.515625 151.300781 8.183594 151.300781 7.949219 C 151.300781 7.636719 151.320312 7.558594 151.359375 7.34375 Z M 150.578125 7.167969 C 150.5 7.402344 150.5 7.421875 150.324219 7.636719 C 149.777344 8.320312 149.269531 8.515625 148.917969 8.515625 C 148.292969 8.515625 148.117188 7.832031 148.117188 7.34375 C 148.117188 6.71875 148.507812 5.195312 148.800781 4.609375 C 149.191406 3.886719 149.738281 3.417969 150.246094 3.417969 C 151.046875 3.417969 151.222656 4.433594 151.222656 4.511719 C 151.222656 4.589844 151.203125 4.667969 151.183594 4.726562 Z M 150.578125 7.167969 "/>
<path style=" stroke:none;fill-rule:nonzero;fill:rgb(0%,0%,0%);fill-opacity:1;" d="M 159.234375 3.90625 C 159.292969 3.730469 159.292969 3.710938 159.292969 3.613281 C 159.292969 3.398438 159.117188 3.28125 158.921875 3.28125 C 158.804688 3.28125 158.609375 3.359375 158.492188 3.535156 C 158.472656 3.613281 158.355469 3.984375 158.316406 4.21875 C 158.21875 4.53125 158.140625 4.882812 158.0625 5.214844 L 157.496094 7.460938 C 157.457031 7.636719 156.910156 8.515625 156.089844 8.515625 C 155.464844 8.515625 155.328125 7.96875 155.328125 7.5 C 155.328125 6.933594 155.542969 6.152344 155.953125 5.058594 C 156.148438 4.550781 156.207031 4.414062 156.207031 4.160156 C 156.207031 3.613281 155.816406 3.144531 155.191406 3.144531 C 154 3.144531 153.550781 4.960938 153.550781 5.058594 C 153.550781 5.195312 153.667969 5.195312 153.6875 5.195312 C 153.824219 5.195312 153.824219 5.15625 153.882812 4.960938 C 154.234375 3.789062 154.722656 3.417969 155.152344 3.417969 C 155.25 3.417969 155.464844 3.417969 155.464844 3.808594 C 155.464844 4.121094 155.328125 4.453125 155.25 4.6875 C 154.742188 6.015625 154.527344 6.71875 154.527344 7.304688 C 154.527344 8.417969 155.308594 8.789062 156.050781 8.789062 C 156.539062 8.789062 156.949219 8.574219 157.300781 8.222656 C 157.144531 8.867188 156.988281 9.492188 156.5 10.15625 C 156.167969 10.566406 155.699219 10.9375 155.132812 10.9375 C 154.957031 10.9375 154.390625 10.898438 154.175781 10.410156 C 154.371094 10.410156 154.546875 10.410156 154.703125 10.253906 C 154.839844 10.15625 154.957031 9.980469 154.957031 9.746094 C 154.957031 9.355469 154.625 9.316406 154.507812 9.316406 C 154.214844 9.316406 153.804688 9.511719 153.804688 10.117188 C 153.804688 10.742188 154.351562 11.210938 155.132812 11.210938 C 156.402344 11.210938 157.691406 10.078125 158.042969 8.671875 Z M 159.234375 3.90625 "/>
<path style=" stroke:none;fill-rule:nonzero;fill:rgb(0%,0%,0%);fill-opacity:1;" d="M 146.410156 11.820312 L 160.0625 11.820312 L 160.0625 12.570312 L 146.410156 12.570312 Z M 146.410156 11.820312 "/>
<path style=" stroke:none;fill-rule:nonzero;fill:rgb(0%,0%,0%);fill-opacity:1;" d="M 152.855469 14.238281 C 152.855469 14.238281 152.855469 14.101562 152.699219 14.101562 C 152.503906 14.101562 151.332031 14.21875 151.117188 14.238281 C 151.019531 14.257812 150.941406 14.316406 150.941406 14.472656 C 150.941406 14.628906 151.058594 14.628906 151.234375 14.628906 C 151.839844 14.628906 151.859375 14.707031 151.859375 14.84375 L 151.820312 15.097656 L 151.078125 18.046875 C 150.84375 17.578125 150.492188 17.246094 149.925781 17.246094 C 148.480469 17.246094 146.9375 19.082031 146.9375 20.898438 C 146.9375 22.070312 147.621094 22.890625 148.578125 22.890625 C 148.832031 22.890625 149.457031 22.832031 150.199219 21.953125 C 150.296875 22.480469 150.746094 22.890625 151.332031 22.890625 C 151.78125 22.890625 152.054688 22.597656 152.269531 22.207031 C 152.464844 21.757812 152.640625 20.996094 152.640625 20.976562 C 152.640625 20.839844 152.523438 20.839844 152.484375 20.839844 C 152.367188 20.839844 152.347656 20.898438 152.308594 21.074219 C 152.09375 21.875 151.878906 22.617188 151.371094 22.617188 C 151.019531 22.617188 151 22.285156 151 22.050781 C 151 21.738281 151.019531 21.660156 151.058594 21.445312 Z M 150.277344 21.269531 C 150.199219 21.503906 150.199219 21.523438 150.023438 21.738281 C 149.476562 22.421875 148.96875 22.617188 148.617188 22.617188 C 147.992188 22.617188 147.816406 21.933594 147.816406 21.445312 C 147.816406 20.820312 148.207031 19.296875 148.5 18.710938 C 148.890625 17.988281 149.4375 17.519531 149.945312 17.519531 C 150.746094 17.519531 150.921875 18.535156 150.921875 18.613281 C 150.921875 18.691406 150.902344 18.769531 150.882812 18.828125 Z M 150.277344 21.269531 "/>
<path style=" stroke:none;fill-rule:nonzero;fill:rgb(0%,0%,0%);fill-opacity:1;" d="M 157.039062 18.984375 C 157.117188 18.671875 157.410156 17.519531 158.269531 17.519531 C 158.328125 17.519531 158.640625 17.519531 158.894531 17.675781 C 158.542969 17.753906 158.308594 18.046875 158.308594 18.359375 C 158.308594 18.554688 158.445312 18.789062 158.777344 18.789062 C 159.050781 18.789062 159.441406 18.574219 159.441406 18.066406 C 159.441406 17.421875 158.71875 17.246094 158.289062 17.246094 C 157.566406 17.246094 157.136719 17.910156 156.980469 18.183594 C 156.667969 17.363281 156.003906 17.246094 155.632812 17.246094 C 154.34375 17.246094 153.621094 18.847656 153.621094 19.160156 C 153.621094 19.296875 153.757812 19.296875 153.777344 19.296875 C 153.875 19.296875 153.914062 19.257812 153.933594 19.160156 C 154.363281 17.832031 155.183594 17.519531 155.613281 17.519531 C 155.847656 17.519531 156.277344 17.636719 156.277344 18.359375 C 156.277344 18.75 156.0625 19.570312 155.613281 21.328125 C 155.417969 22.089844 154.96875 22.617188 154.421875 22.617188 C 154.34375 22.617188 154.070312 22.617188 153.796875 22.460938 C 154.109375 22.382812 154.382812 22.128906 154.382812 21.777344 C 154.382812 21.445312 154.109375 21.347656 153.933594 21.347656 C 153.542969 21.347656 153.25 21.660156 153.25 22.070312 C 153.25 22.636719 153.855469 22.890625 154.402344 22.890625 C 155.242188 22.890625 155.691406 22.011719 155.710938 21.953125 C 155.867188 22.402344 156.316406 22.890625 157.058594 22.890625 C 158.347656 22.890625 159.050781 21.289062 159.050781 20.976562 C 159.050781 20.839844 158.953125 20.839844 158.914062 20.839844 C 158.796875 20.839844 158.777344 20.898438 158.738281 20.976562 C 158.328125 22.324219 157.488281 22.617188 157.097656 22.617188 C 156.609375 22.617188 156.414062 22.226562 156.414062 21.796875 C 156.414062 21.523438 156.472656 21.25 156.609375 20.703125 Z M 157.039062 18.984375 "/>
<path style=" stroke:none;fill-rule:nonzero;fill:rgb(0%,0%,0%);fill-opacity:1;" d="M 178.636719 10.800781 C 178.890625 10.800781 179.203125 10.800781 179.203125 10.46875 C 179.203125 10.136719 178.890625 10.136719 178.636719 10.136719 L 168.070312 10.136719 C 167.816406 10.136719 167.503906 10.136719 167.503906 10.449219 C 167.503906 10.800781 167.796875 10.800781 168.070312 10.800781 Z M 178.636719 14.121094 C 178.890625 14.121094 179.203125 14.121094 179.203125 13.808594 C 179.203125 13.457031 178.890625 13.457031 178.636719 13.457031 L 168.070312 13.457031 C 167.816406 13.457031 167.503906 13.457031 167.503906 13.789062 C 167.503906 14.121094 167.796875 14.121094 168.070312 14.121094 Z M 178.636719 14.121094 "/>
<path style=" stroke:none;fill-rule:nonzero;fill:rgb(0%,0%,0%);fill-opacity:1;" d="M 193.203125 1.035156 C 193.203125 1.035156 193.203125 0.898438 193.046875 0.898438 C 192.851562 0.898438 191.679688 1.015625 191.464844 1.035156 C 191.367188 1.054688 191.289062 1.113281 191.289062 1.269531 C 191.289062 1.425781 191.40625 1.425781 191.582031 1.425781 C 192.1875 1.425781 192.207031 1.503906 192.207031 1.640625 L 192.167969 1.894531 L 191.425781 4.84375 C 191.191406 4.375 190.839844 4.042969 190.273438 4.042969 C 188.828125 4.042969 187.285156 5.878906 187.285156 7.695312 C 187.285156 8.867188 187.96875 9.6875 188.925781 9.6875 C 189.179688 9.6875 189.804688 9.628906 190.546875 8.75 C 190.644531 9.277344 191.09375 9.6875 191.679688 9.6875 C 192.128906 9.6875 192.402344 9.394531 192.617188 9.003906 C 192.8125 8.554688 192.988281 7.792969 192.988281 7.773438 C 192.988281 7.636719 192.871094 7.636719 192.832031 7.636719 C 192.714844 7.636719 192.695312 7.695312 192.65625 7.871094 C 192.441406 8.671875 192.226562 9.414062 191.71875 9.414062 C 191.367188 9.414062 191.347656 9.082031 191.347656 8.847656 C 191.347656 8.535156 191.367188 8.457031 191.40625 8.242188 Z M 190.625 8.066406 C 190.546875 8.300781 190.546875 8.320312 190.371094 8.535156 C 189.824219 9.21875 189.316406 9.414062 188.964844 9.414062 C 188.339844 9.414062 188.164062 8.730469 188.164062 8.242188 C 188.164062 7.617188 188.554688 6.09375 188.847656 5.507812 C 189.238281 4.785156 189.785156 4.316406 190.292969 4.316406 C 191.09375 4.316406 191.269531 5.332031 191.269531 5.410156 C 191.269531 5.488281 191.25 5.566406 191.230469 5.625 Z M 190.625 8.066406 "/>
<path style=" stroke:none;fill-rule:nonzero;fill:rgb(0%,0%,0%);fill-opacity:1;" d="M 195.457031 8.125 C 194.96875 8.945312 194.480469 9.121094 193.933594 9.160156 C 193.777344 9.179688 193.660156 9.179688 193.660156 9.414062 C 193.660156 9.492188 193.738281 9.550781 193.835938 9.550781 C 194.167969 9.550781 194.558594 9.511719 194.890625 9.511719 C 195.320312 9.511719 195.75 9.550781 196.140625 9.550781 C 196.21875 9.550781 196.375 9.550781 196.375 9.316406 C 196.375 9.179688 196.277344 9.160156 196.179688 9.160156 C 195.90625 9.140625 195.59375 9.042969 195.59375 8.730469 C 195.59375 8.574219 195.671875 8.4375 195.769531 8.261719 L 196.726562 6.679688 L 199.851562 6.679688 C 199.871094 6.933594 200.046875 8.632812 200.046875 8.75 C 200.046875 9.121094 199.402344 9.160156 199.148438 9.160156 C 198.972656 9.160156 198.855469 9.160156 198.855469 9.414062 C 198.855469 9.550781 198.992188 9.550781 199.03125 9.550781 C 199.539062 9.550781 200.066406 9.511719 200.574219 9.511719 C 200.886719 9.511719 201.6875 9.550781 202 9.550781 C 202.058594 9.550781 202.214844 9.550781 202.214844 9.296875 C 202.214844 9.160156 202.097656 9.160156 201.921875 9.160156 C 201.160156 9.160156 201.160156 9.082031 201.121094 8.710938 L 200.359375 0.9375 C 200.339844 0.683594 200.339844 0.625 200.125 0.625 C 199.929688 0.625 199.871094 0.722656 199.792969 0.839844 Z M 196.960938 6.289062 L 199.402344 2.167969 L 199.8125 6.289062 Z M 196.960938 6.289062 "/>
<path style=" stroke:none;fill-rule:nonzero;fill:rgb(0%,0%,0%);fill-opacity:1;" d="M 186.761719 11.820312 L 202.660156 11.820312 L 202.660156 12.570312 L 186.761719 12.570312 Z M 186.761719 11.820312 "/>
<path style=" stroke:none;fill-rule:nonzero;fill:rgb(0%,0%,0%);fill-opacity:1;" d="M 194.253906 14.238281 C 194.253906 14.238281 194.253906 14.101562 194.097656 14.101562 C 193.902344 14.101562 192.730469 14.21875 192.515625 14.238281 C 192.417969 14.257812 192.339844 14.316406 192.339844 14.472656 C 192.339844 14.628906 192.457031 14.628906 192.632812 14.628906 C 193.238281 14.628906 193.257812 14.707031 193.257812 14.84375 L 193.21875 15.097656 L 192.476562 18.046875 C 192.242188 17.578125 191.890625 17.246094 191.324219 17.246094 C 189.878906 17.246094 188.335938 19.082031 188.335938 20.898438 C 188.335938 22.070312 189.019531 22.890625 189.976562 22.890625 C 190.230469 22.890625 190.855469 22.832031 191.597656 21.953125 C 191.695312 22.480469 192.144531 22.890625 192.730469 22.890625 C 193.179688 22.890625 193.453125 22.597656 193.667969 22.207031 C 193.863281 21.757812 194.039062 20.996094 194.039062 20.976562 C 194.039062 20.839844 193.921875 20.839844 193.882812 20.839844 C 193.765625 20.839844 193.746094 20.898438 193.707031 21.074219 C 193.492188 21.875 193.277344 22.617188 192.769531 22.617188 C 192.417969 22.617188 192.398438 22.285156 192.398438 22.050781 C 192.398438 21.738281 192.417969 21.660156 192.457031 21.445312 Z M 191.675781 21.269531 C 191.597656 21.503906 191.597656 21.523438 191.421875 21.738281 C 190.875 22.421875 190.367188 22.617188 190.015625 22.617188 C 189.390625 22.617188 189.214844 21.933594 189.214844 21.445312 C 189.214844 20.820312 189.605469 19.296875 189.898438 18.710938 C 190.289062 17.988281 190.835938 17.519531 191.34375 17.519531 C 192.144531 17.519531 192.320312 18.535156 192.320312 18.613281 C 192.320312 18.691406 192.300781 18.769531 192.28125 18.828125 Z M 191.675781 21.269531 "/>
<path style=" stroke:none;fill-rule:nonzero;fill:rgb(0%,0%,0%);fill-opacity:1;" d="M 198.4375 18.984375 C 198.515625 18.671875 198.808594 17.519531 199.667969 17.519531 C 199.726562 17.519531 200.039062 17.519531 200.292969 17.675781 C 199.941406 17.753906 199.707031 18.046875 199.707031 18.359375 C 199.707031 18.554688 199.84375 18.789062 200.175781 18.789062 C 200.449219 18.789062 200.839844 18.574219 200.839844 18.066406 C 200.839844 17.421875 200.117188 17.246094 199.6875 17.246094 C 198.964844 17.246094 198.535156 17.910156 198.378906 18.183594 C 198.066406 17.363281 197.402344 17.246094 197.03125 17.246094 C 195.742188 17.246094 195.019531 18.847656 195.019531 19.160156 C 195.019531 19.296875 195.15625 19.296875 195.175781 19.296875 C 195.273438 19.296875 195.3125 19.257812 195.332031 19.160156 C 195.761719 17.832031 196.582031 17.519531 197.011719 17.519531 C 197.246094 17.519531 197.675781 17.636719 197.675781 18.359375 C 197.675781 18.75 197.460938 19.570312 197.011719 21.328125 C 196.816406 22.089844 196.367188 22.617188 195.820312 22.617188 C 195.742188 22.617188 195.46875 22.617188 195.195312 22.460938 C 195.507812 22.382812 195.78125 22.128906 195.78125 21.777344 C 195.78125 21.445312 195.507812 21.347656 195.332031 21.347656 C 194.941406 21.347656 194.648438 21.660156 194.648438 22.070312 C 194.648438 22.636719 195.253906 22.890625 195.800781 22.890625 C 196.640625 22.890625 197.089844 22.011719 197.109375 21.953125 C 197.265625 22.402344 197.714844 22.890625 198.457031 22.890625 C 199.746094 22.890625 200.449219 21.289062 200.449219 20.976562 C 200.449219 20.839844 200.351562 20.839844 200.3125 20.839844 C 200.195312 20.839844 200.175781 20.898438 200.136719 20.976562 C 199.726562 22.324219 198.886719 22.617188 198.496094 22.617188 C 198.007812 22.617188 197.8125 22.226562 197.8125 21.796875 C 197.8125 21.523438 197.871094 21.25 198.007812 20.703125 Z M 198.4375 18.984375 "/>
<path style=" stroke:none;fill-rule:nonzero;fill:rgb(0%,0%,0%);fill-opacity:1;" d="M 215.226562 12.460938 L 220.1875 12.460938 C 220.441406 12.460938 220.753906 12.460938 220.753906 12.128906 C 220.753906 11.796875 220.441406 11.796875 220.1875 11.796875 L 215.226562 11.796875 L 215.226562 6.855469 C 215.226562 6.601562 215.226562 6.269531 214.914062 6.269531 C 214.5625 6.269531 214.5625 6.582031 214.5625 6.855469 L 214.5625 11.796875 L 209.621094 11.796875 C 209.367188 11.796875 209.054688 11.796875 209.054688 12.128906 C 209.054688 12.460938 209.347656 12.460938 209.621094 12.460938 L 214.5625 12.460938 L 214.5625 17.402344 C 214.5625 17.65625 214.5625 17.988281 214.894531 17.988281 C 215.226562 17.988281 215.226562 17.675781 215.226562 17.402344 Z M 215.226562 12.460938 "/>
<path style=" stroke:none;fill-rule:nonzero;fill:rgb(0%,0%,0%);fill-opacity:1;" d="M 233.554688 1.035156 C 233.554688 1.035156 233.554688 0.898438 233.398438 0.898438 C 233.203125 0.898438 232.03125 1.015625 231.816406 1.035156 C 231.71875 1.054688 231.640625 1.113281 231.640625 1.269531 C 231.640625 1.425781 231.757812 1.425781 231.933594 1.425781 C 232.539062 1.425781 232.558594 1.503906 232.558594 1.640625 L 232.519531 1.894531 L 231.777344 4.84375 C 231.542969 4.375 231.191406 4.042969 230.625 4.042969 C 229.179688 4.042969 227.636719 5.878906 227.636719 7.695312 C 227.636719 8.867188 228.320312 9.6875 229.277344 9.6875 C 229.53125 9.6875 230.15625 9.628906 230.898438 8.75 C 230.996094 9.277344 231.445312 9.6875 232.03125 9.6875 C 232.480469 9.6875 232.753906 9.394531 232.96875 9.003906 C 233.164062 8.554688 233.339844 7.792969 233.339844 7.773438 C 233.339844 7.636719 233.222656 7.636719 233.183594 7.636719 C 233.066406 7.636719 233.046875 7.695312 233.007812 7.871094 C 232.792969 8.671875 232.578125 9.414062 232.070312 9.414062 C 231.71875 9.414062 231.699219 9.082031 231.699219 8.847656 C 231.699219 8.535156 231.71875 8.457031 231.757812 8.242188 Z M 230.976562 8.066406 C 230.898438 8.300781 230.898438 8.320312 230.722656 8.535156 C 230.175781 9.21875 229.667969 9.414062 229.316406 9.414062 C 228.691406 9.414062 228.515625 8.730469 228.515625 8.242188 C 228.515625 7.617188 228.90625 6.09375 229.199219 5.507812 C 229.589844 4.785156 230.136719 4.316406 230.644531 4.316406 C 231.445312 4.316406 231.621094 5.332031 231.621094 5.410156 C 231.621094 5.488281 231.601562 5.566406 231.582031 5.625 Z M 230.976562 8.066406 "/>
<path style=" stroke:none;fill-rule:nonzero;fill:rgb(0%,0%,0%);fill-opacity:1;" d="M 235.570312 8.574219 C 235.453125 9.0625 235.414062 9.160156 234.4375 9.160156 C 234.222656 9.160156 234.105469 9.160156 234.105469 9.414062 C 234.105469 9.550781 234.222656 9.550781 234.4375 9.550781 L 238.890625 9.550781 C 240.863281 9.550781 242.328125 8.085938 242.328125 6.855469 C 242.328125 5.957031 241.605469 5.234375 240.394531 5.097656 C 241.683594 4.863281 242.992188 3.945312 242.992188 2.753906 C 242.992188 1.835938 242.171875 1.035156 240.6875 1.035156 L 236.488281 1.035156 C 236.253906 1.035156 236.136719 1.035156 236.136719 1.289062 C 236.136719 1.425781 236.253906 1.425781 236.488281 1.425781 C 236.507812 1.425781 236.742188 1.425781 236.957031 1.445312 C 237.171875 1.484375 237.289062 1.484375 237.289062 1.660156 C 237.289062 1.699219 237.269531 1.738281 237.25 1.894531 Z M 237.445312 4.980469 L 238.226562 1.894531 C 238.34375 1.464844 238.363281 1.425781 238.890625 1.425781 L 240.511719 1.425781 C 241.605469 1.425781 241.859375 2.167969 241.859375 2.714844 C 241.859375 3.808594 240.785156 4.980469 239.28125 4.980469 Z M 236.898438 9.160156 C 236.722656 9.160156 236.703125 9.160156 236.625 9.160156 C 236.488281 9.140625 236.449219 9.121094 236.449219 9.023438 C 236.449219 8.984375 236.449219 8.964844 236.527344 8.75 L 237.386719 5.273438 L 239.730469 5.273438 C 240.921875 5.273438 241.175781 6.191406 241.175781 6.71875 C 241.175781 7.949219 240.0625 9.160156 238.578125 9.160156 Z M 236.898438 9.160156 "/>
<path style=" stroke:none;fill-rule:nonzero;fill:rgb(0%,0%,0%);fill-opacity:1;" d="M 227.113281 11.820312 L 243.765625 11.820312 L 243.765625 12.570312 L 227.113281 12.570312 Z M 227.113281 11.820312 "/>
<path style=" stroke:none;fill-rule:nonzero;fill:rgb(0%,0%,0%);fill-opacity:1;" d="M 235.054688 14.238281 C 235.054688 14.238281 235.054688 14.101562 234.898438 14.101562 C 234.703125 14.101562 233.53125 14.21875 233.316406 14.238281 C 233.21875 14.257812 233.140625 14.316406 233.140625 14.472656 C 233.140625 14.628906 233.257812 14.628906 233.433594 14.628906 C 234.039062 14.628906 234.058594 14.707031 234.058594 14.84375 L 234.019531 15.097656 L 233.277344 18.046875 C 233.042969 17.578125 232.691406 17.246094 232.125 17.246094 C 230.679688 17.246094 229.136719 19.082031 229.136719 20.898438 C 229.136719 22.070312 229.820312 22.890625 230.777344 22.890625 C 231.03125 22.890625 231.65625 22.832031 232.398438 21.953125 C 232.496094 22.480469 232.945312 22.890625 233.53125 22.890625 C 233.980469 22.890625 234.253906 22.597656 234.46875 22.207031 C 234.664062 21.757812 234.839844 20.996094 234.839844 20.976562 C 234.839844 20.839844 234.722656 20.839844 234.683594 20.839844 C 234.566406 20.839844 234.546875 20.898438 234.507812 21.074219 C 234.292969 21.875 234.078125 22.617188 233.570312 22.617188 C 233.21875 22.617188 233.199219 22.285156 233.199219 22.050781 C 233.199219 21.738281 233.21875 21.660156 233.257812 21.445312 Z M 232.476562 21.269531 C 232.398438 21.503906 232.398438 21.523438 232.222656 21.738281 C 231.675781 22.421875 231.167969 22.617188 230.816406 22.617188 C 230.191406 22.617188 230.015625 21.933594 230.015625 21.445312 C 230.015625 20.820312 230.40625 19.296875 230.699219 18.710938 C 231.089844 17.988281 231.636719 17.519531 232.144531 17.519531 C 232.945312 17.519531 233.121094 18.535156 233.121094 18.613281 C 233.121094 18.691406 233.101562 18.769531 233.082031 18.828125 Z M 232.476562 21.269531 "/>
<path style=" stroke:none;fill-rule:nonzero;fill:rgb(0%,0%,0%);fill-opacity:1;" d="M 239.238281 18.984375 C 239.316406 18.671875 239.609375 17.519531 240.46875 17.519531 C 240.527344 17.519531 240.839844 17.519531 241.09375 17.675781 C 240.742188 17.753906 240.507812 18.046875 240.507812 18.359375 C 240.507812 18.554688 240.644531 18.789062 240.976562 18.789062 C 241.25 18.789062 241.640625 18.574219 241.640625 18.066406 C 241.640625 17.421875 240.917969 17.246094 240.488281 17.246094 C 239.765625 17.246094 239.335938 17.910156 239.179688 18.183594 C 238.867188 17.363281 238.203125 17.246094 237.832031 17.246094 C 236.542969 17.246094 235.820312 18.847656 235.820312 19.160156 C 235.820312 19.296875 235.957031 19.296875 235.976562 19.296875 C 236.074219 19.296875 236.113281 19.257812 236.132812 19.160156 C 236.5625 17.832031 237.382812 17.519531 237.8125 17.519531 C 238.046875 17.519531 238.476562 17.636719 238.476562 18.359375 C 238.476562 18.75 238.261719 19.570312 237.8125 21.328125 C 237.617188 22.089844 237.167969 22.617188 236.621094 22.617188 C 236.542969 22.617188 236.269531 22.617188 235.996094 22.460938 C 236.308594 22.382812 236.582031 22.128906 236.582031 21.777344 C 236.582031 21.445312 236.308594 21.347656 236.132812 21.347656 C 235.742188 21.347656 235.449219 21.660156 235.449219 22.070312 C 235.449219 22.636719 236.054688 22.890625 236.601562 22.890625 C 237.441406 22.890625 237.890625 22.011719 237.910156 21.953125 C 238.066406 22.402344 238.515625 22.890625 239.257812 22.890625 C 240.546875 22.890625 241.25 21.289062 241.25 20.976562 C 241.25 20.839844 241.152344 20.839844 241.113281 20.839844 C 240.996094 20.839844 240.976562 20.898438 240.9375 20.976562 C 240.527344 22.324219 239.6875 22.617188 239.296875 22.617188 C 238.808594 22.617188 238.613281 22.226562 238.613281 21.796875 C 238.613281 21.523438 238.671875 21.25 238.808594 20.703125 Z M 239.238281 18.984375 "/>
<path style=" stroke:none;fill-rule:nonzero;fill:rgb(0%,0%,0%);fill-opacity:1;" d="M 0.0390625 46.609375 L 0.0390625 59.050781 L 4.667969 59.050781 C 7.207031 59.050781 9.042969 57.429688 9.042969 55.671875 C 9.042969 54.109375 7.480469 52.820312 5.644531 52.546875 C 7.734375 51.960938 8.554688 50.769531 8.554688 49.734375 C 8.554688 48.113281 6.71875 46.609375 4.179688 46.609375 Z M 1.503906 52.039062 L 1.503906 47.605469 L 3.710938 47.605469 C 5.625 47.605469 7.167969 48.5625 7.167969 49.753906 C 7.167969 51.003906 5.625 52.039062 3.730469 52.039062 Z M 1.503906 58.054688 L 1.503906 53.113281 L 3.886719 53.113281 C 6.191406 53.113281 7.636719 54.402344 7.636719 55.652344 C 7.636719 56.921875 6.171875 58.054688 4.179688 58.054688 Z M 1.503906 58.054688 "/>
<path style=" stroke:none;fill-rule:nonzero;fill:rgb(0%,0%,0%);fill-opacity:1;" d="M 17.675781 51.082031 L 16.308594 51.082031 L 16.308594 56.21875 C 16.308594 57.585938 15.371094 58.25 14.199219 58.25 C 12.949219 58.25 12.8125 57.78125 12.8125 56.980469 L 12.8125 51.082031 L 11.464844 51.082031 L 11.464844 57.058594 C 11.464844 58.347656 11.875 59.226562 13.339844 59.226562 C 13.847656 59.226562 15.253906 59.148438 16.347656 58.152344 L 16.347656 59.050781 L 17.675781 59.050781 Z M 17.675781 51.082031 "/>
<path style=" stroke:none;fill-rule:nonzero;fill:rgb(0%,0%,0%);fill-opacity:1;" d="M 22.144531 52.136719 L 24.625 52.136719 L 24.625 51.082031 L 22.144531 51.082031 L 22.144531 48.816406 L 20.914062 48.816406 L 20.914062 51.082031 L 19.410156 51.082031 L 19.410156 52.136719 L 20.875 52.136719 L 20.875 56.960938 C 20.875 57.996094 21.109375 59.226562 22.339844 59.226562 C 23.550781 59.226562 24.371094 58.816406 24.917969 58.523438 L 24.644531 57.488281 C 24.019531 58.054688 23.355469 58.113281 23.042969 58.113281 C 22.242188 58.113281 22.144531 57.273438 22.144531 56.648438 Z M 22.144531 52.136719 "/>
<path style=" stroke:none;fill-rule:nonzero;fill:rgb(0%,0%,0%);fill-opacity:1;" d="M 34.0625 46.882812 L 32.519531 46.882812 L 32.519531 48.425781 L 34.0625 48.425781 Z M 33.964844 51.082031 L 32.636719 51.082031 L 32.636719 59.050781 L 33.964844 59.050781 Z M 33.964844 51.082031 "/>
<path style=" stroke:none;fill-rule:nonzero;fill:rgb(0%,0%,0%);fill-opacity:1;" d="M 38.496094 52.136719 L 40.976562 52.136719 L 40.976562 51.082031 L 38.496094 51.082031 L 38.496094 48.816406 L 37.265625 48.816406 L 37.265625 51.082031 L 35.761719 51.082031 L 35.761719 52.136719 L 37.226562 52.136719 L 37.226562 56.960938 C 37.226562 57.996094 37.460938 59.226562 38.691406 59.226562 C 39.902344 59.226562 40.722656 58.816406 41.269531 58.523438 L 40.996094 57.488281 C 40.371094 58.054688 39.707031 58.113281 39.394531 58.113281 C 38.59375 58.113281 38.496094 57.273438 38.496094 56.648438 Z M 38.496094 52.136719 "/>
<path style=" stroke:none;fill-rule:nonzero;fill:rgb(0%,0%,0%);fill-opacity:1;" d="M 55.15625 46.609375 L 53.828125 46.609375 L 53.828125 51.84375 C 53.007812 51.160156 52.070312 50.90625 51.308594 50.90625 C 49.609375 50.90625 48.203125 52.742188 48.203125 55.066406 C 48.203125 57.390625 49.53125 59.226562 51.230469 59.226562 C 51.894531 59.226562 52.910156 59.011719 53.808594 58.132812 L 53.808594 59.050781 L 55.15625 59.050781 Z M 53.808594 56.941406 C 53.378906 57.703125 52.734375 58.152344 51.953125 58.152344 C 50.859375 58.152344 49.570312 57.3125 49.570312 55.085938 C 49.570312 52.703125 51.09375 51.980469 52.128906 51.980469 C 52.832031 51.980469 53.398438 52.351562 53.808594 52.9375 Z M 53.808594 56.941406 "/>
<path style=" stroke:none;fill-rule:nonzero;fill:rgb(0%,0%,0%);fill-opacity:1;" d="M 64.800781 55.105469 C 64.800781 52.683594 63.023438 50.828125 60.972656 50.828125 C 58.863281 50.828125 57.125 52.722656 57.125 55.105469 C 57.125 57.449219 58.902344 59.226562 60.953125 59.226562 C 63.0625 59.226562 64.800781 57.410156 64.800781 55.105469 Z M 60.972656 58.113281 C 59.683594 58.113281 58.472656 57.039062 58.472656 54.929688 C 58.472656 52.761719 59.820312 51.902344 60.953125 51.902344 C 62.183594 51.902344 63.453125 52.820312 63.453125 54.929688 C 63.453125 57.136719 62.164062 58.113281 60.972656 58.113281 Z M 60.972656 58.113281 "/>
<path style=" stroke:none;fill-rule:nonzero;fill:rgb(0%,0%,0%);fill-opacity:1;" d="M 73.183594 55.007812 C 73.183594 54.246094 73.105469 53.152344 72.539062 52.195312 C 71.796875 50.964844 70.546875 50.828125 70.019531 50.828125 C 68.085938 50.828125 66.464844 52.683594 66.464844 55.007812 C 66.464844 57.390625 68.183594 59.226562 70.273438 59.226562 C 71.09375 59.226562 72.089844 58.992188 73.066406 58.289062 C 73.066406 58.210938 73.007812 57.644531 73.007812 57.625 C 72.988281 57.605469 72.96875 57.195312 72.96875 57.136719 C 71.894531 58.035156 70.839844 58.152344 70.3125 58.152344 C 68.925781 58.152344 67.734375 56.921875 67.714844 55.007812 Z M 67.8125 54.050781 C 68.125 52.839844 68.964844 51.902344 70.019531 51.902344 C 70.585938 51.902344 71.816406 52.15625 72.109375 54.050781 Z M 67.8125 54.050781 "/>
<path style=" stroke:none;fill-rule:nonzero;fill:rgb(0%,0%,0%);fill-opacity:1;" d="M 79.695312 51.375 C 78.5625 50.847656 77.585938 50.828125 77.175781 50.828125 C 76.765625 50.828125 74.265625 50.828125 74.265625 53.152344 C 74.265625 53.933594 74.695312 54.480469 74.96875 54.734375 C 75.613281 55.28125 76.0625 55.378906 77.117188 55.59375 C 77.722656 55.710938 78.757812 55.925781 78.757812 56.882812 C 78.757812 58.113281 77.351562 58.113281 77.097656 58.113281 C 76.394531 58.113281 75.339844 57.917969 74.382812 57.214844 L 74.167969 58.445312 C 74.246094 58.503906 75.476562 59.226562 77.117188 59.226562 C 79.441406 59.226562 79.988281 57.839844 79.988281 56.765625 C 79.988281 55.867188 79.441406 55.28125 79.363281 55.203125 C 78.699219 54.519531 78.152344 54.402344 77.078125 54.1875 C 76.414062 54.070312 75.515625 53.894531 75.515625 52.996094 C 75.515625 51.882812 76.765625 51.882812 77 51.882812 C 77.9375 51.882812 78.699219 52.097656 79.480469 52.546875 Z M 79.695312 51.375 "/>
<path style=" stroke:none;fill-rule:nonzero;fill:rgb(0%,0%,0%);fill-opacity:1;" d="M 93.875 53.660156 C 93.875 52.566406 93.640625 50.90625 91.472656 50.90625 C 90.476562 50.90625 89.617188 51.355469 88.933594 52.214844 L 88.933594 51.003906 L 87.664062 51.003906 L 87.664062 59.050781 L 89.011719 59.050781 L 89.011719 54.578125 C 89.011719 53.484375 89.441406 51.980469 90.789062 51.980469 C 92.46875 51.980469 92.507812 53.152344 92.507812 53.777344 L 92.507812 59.050781 L 93.875 59.050781 Z M 93.875 53.660156 "/>
<path style=" stroke:none;fill-rule:nonzero;fill:rgb(0%,0%,0%);fill-opacity:1;" d="M 103.5 55.105469 C 103.5 52.683594 101.722656 50.828125 99.671875 50.828125 C 97.5625 50.828125 95.824219 52.722656 95.824219 55.105469 C 95.824219 57.449219 97.601562 59.226562 99.652344 59.226562 C 101.761719 59.226562 103.5 57.410156 103.5 55.105469 Z M 99.671875 58.113281 C 98.382812 58.113281 97.171875 57.039062 97.171875 54.929688 C 97.171875 52.761719 98.519531 51.902344 99.652344 51.902344 C 100.882812 51.902344 102.152344 52.820312 102.152344 54.929688 C 102.152344 57.136719 100.863281 58.113281 99.671875 58.113281 Z M 99.671875 58.113281 "/>
<path style=" stroke:none;fill-rule:nonzero;fill:rgb(0%,0%,0%);fill-opacity:1;" d="M 107.195312 52.136719 L 109.675781 52.136719 L 109.675781 51.082031 L 107.195312 51.082031 L 107.195312 48.816406 L 105.964844 48.816406 L 105.964844 51.082031 L 104.460938 51.082031 L 104.460938 52.136719 L 105.925781 52.136719 L 105.925781 56.960938 C 105.925781 57.996094 106.160156 59.226562 107.390625 59.226562 C 108.601562 59.226562 109.421875 58.816406 109.96875 58.523438 L 109.695312 57.488281 C 109.070312 58.054688 108.40625 58.113281 108.09375 58.113281 C 107.292969 58.113281 107.195312 57.273438 107.195312 56.648438 Z M 107.195312 52.136719 "/>
<path style=" stroke:none;fill-rule:nonzero;fill:rgb(0%,0%,0%);fill-opacity:1;" d="M 86.265625 61.167969 L 110.414062 61.167969 L 110.414062 61.921875 L 86.265625 61.921875 Z M 86.265625 61.167969 "/>
<path style=" stroke:none;fill-rule:nonzero;fill:rgb(0%,0%,0%);fill-opacity:1;" d="M 128.777344 53.660156 C 128.777344 52.410156 128.445312 50.90625 126.355469 50.90625 C 124.832031 50.90625 123.992188 51.960938 123.71875 52.371094 C 123.386719 51.238281 122.410156 50.90625 121.472656 50.90625 C 120.007812 50.90625 119.226562 51.863281 118.933594 52.234375 L 118.933594 51.003906 L 117.664062 51.003906 L 117.664062 59.050781 L 119.011719 59.050781 L 119.011719 54.578125 C 119.011719 53.40625 119.480469 51.980469 120.789062 51.980469 C 122.449219 51.980469 122.527344 53.113281 122.527344 53.777344 L 122.527344 59.050781 L 123.894531 59.050781 L 123.894531 54.578125 C 123.894531 53.40625 124.363281 51.980469 125.671875 51.980469 C 127.3125 51.980469 127.410156 53.113281 127.410156 53.777344 L 127.410156 59.050781 L 128.777344 59.050781 Z M 128.777344 53.660156 "/>
<path style=" stroke:none;fill-rule:nonzero;fill:rgb(0%,0%,0%);fill-opacity:1;" d="M 137.535156 55.007812 C 137.535156 54.246094 137.457031 53.152344 136.890625 52.195312 C 136.148438 50.964844 134.898438 50.828125 134.371094 50.828125 C 132.4375 50.828125 130.816406 52.683594 130.816406 55.007812 C 130.816406 57.390625 132.535156 59.226562 134.625 59.226562 C 135.445312 59.226562 136.441406 58.992188 137.417969 58.289062 C 137.417969 58.210938 137.359375 57.644531 137.359375 57.625 C 137.339844 57.605469 137.320312 57.195312 137.320312 57.136719 C 136.246094 58.035156 135.191406 58.152344 134.664062 58.152344 C 133.277344 58.152344 132.085938 56.921875 132.066406 55.007812 Z M 132.164062 54.050781 C 132.476562 52.839844 133.316406 51.902344 134.371094 51.902344 C 134.9375 51.902344 136.167969 52.15625 136.460938 54.050781 Z M 132.164062 54.050781 "/>
<path style=" stroke:none;fill-rule:nonzero;fill:rgb(0%,0%,0%);fill-opacity:1;" d="M 145.039062 53.796875 C 145.039062 52.078125 143.808594 50.828125 142.128906 50.828125 C 141.054688 50.828125 140.253906 51.0625 139.375 51.570312 L 139.472656 52.761719 C 140.273438 52.175781 141.09375 51.863281 142.128906 51.863281 C 142.949219 51.863281 143.671875 52.527344 143.671875 53.835938 L 143.671875 54.578125 C 142.871094 54.597656 141.796875 54.65625 140.722656 55.007812 C 139.511719 55.4375 138.808594 56.101562 138.808594 56.980469 C 138.808594 57.78125 139.277344 59.226562 140.800781 59.226562 C 141.796875 59.226562 143.046875 58.933594 143.710938 58.386719 L 143.710938 59.050781 L 145.039062 59.050781 Z M 143.671875 56.648438 C 143.671875 57 143.671875 57.429688 143.085938 57.800781 C 142.597656 58.09375 141.992188 58.152344 141.71875 58.152344 C 140.761719 58.152344 140.097656 57.625 140.097656 56.980469 C 140.097656 55.75 142.578125 55.476562 143.671875 55.476562 Z M 143.671875 56.648438 "/>
<path style=" stroke:none;fill-rule:nonzero;fill:rgb(0%,0%,0%);fill-opacity:1;" d="M 154.027344 53.660156 C 154.027344 52.566406 153.792969 50.90625 151.625 50.90625 C 150.628906 50.90625 149.769531 51.355469 149.085938 52.214844 L 149.085938 51.003906 L 147.816406 51.003906 L 147.816406 59.050781 L 149.164062 59.050781 L 149.164062 54.578125 C 149.164062 53.484375 149.59375 51.980469 150.941406 51.980469 C 152.621094 51.980469 152.660156 53.152344 152.660156 53.777344 L 152.660156 59.050781 L 154.027344 59.050781 Z M 154.027344 53.660156 "/>
<path style=" stroke:none;fill-rule:nonzero;fill:rgb(0%,0%,0%);fill-opacity:1;" d="M 164.195312 52.136719 L 166.675781 52.136719 L 166.675781 51.082031 L 164.195312 51.082031 L 164.195312 48.816406 L 162.964844 48.816406 L 162.964844 51.082031 L 161.460938 51.082031 L 161.460938 52.136719 L 162.925781 52.136719 L 162.925781 56.960938 C 162.925781 57.996094 163.160156 59.226562 164.390625 59.226562 C 165.601562 59.226562 166.421875 58.816406 166.96875 58.523438 L 166.695312 57.488281 C 166.070312 58.054688 165.40625 58.113281 165.09375 58.113281 C 164.292969 58.113281 164.195312 57.273438 164.195312 56.648438 Z M 164.195312 52.136719 "/>
<path style=" stroke:none;fill-rule:nonzero;fill:rgb(0%,0%,0%);fill-opacity:1;" d="M 175.027344 53.660156 C 175.027344 52.566406 174.792969 50.90625 172.625 50.90625 C 171.394531 50.90625 170.574219 51.609375 170.144531 52.15625 L 170.144531 46.609375 L 168.816406 46.609375 L 168.816406 59.050781 L 170.164062 59.050781 L 170.164062 54.578125 C 170.164062 53.484375 170.59375 51.980469 171.941406 51.980469 C 173.621094 51.980469 173.660156 53.152344 173.660156 53.777344 L 173.660156 59.050781 L 175.027344 59.050781 Z M 175.027344 53.660156 "/>
<path style=" stroke:none;fill-rule:nonzero;fill:rgb(0%,0%,0%);fill-opacity:1;" d="M 183.441406 53.796875 C 183.441406 52.078125 182.210938 50.828125 180.53125 50.828125 C 179.457031 50.828125 178.65625 51.0625 177.777344 51.570312 L 177.875 52.761719 C 178.675781 52.175781 179.496094 51.863281 180.53125 51.863281 C 181.351562 51.863281 182.074219 52.527344 182.074219 53.835938 L 182.074219 54.578125 C 181.273438 54.597656 180.199219 54.65625 179.125 55.007812 C 177.914062 55.4375 177.210938 56.101562 177.210938 56.980469 C 177.210938 57.78125 177.679688 59.226562 179.203125 59.226562 C 180.199219 59.226562 181.449219 58.933594 182.113281 58.386719 L 182.113281 59.050781 L 183.441406 59.050781 Z M 182.074219 56.648438 C 182.074219 57 182.074219 57.429688 181.488281 57.800781 C 181 58.09375 180.394531 58.152344 180.121094 58.152344 C 179.164062 58.152344 178.5 57.625 178.5 56.980469 C 178.5 55.75 180.980469 55.476562 182.074219 55.476562 Z M 182.074219 56.648438 "/>
<path style=" stroke:none;fill-rule:nonzero;fill:rgb(0%,0%,0%);fill-opacity:1;" d="M 187.894531 52.136719 L 190.375 52.136719 L 190.375 51.082031 L 187.894531 51.082031 L 187.894531 48.816406 L 186.664062 48.816406 L 186.664062 51.082031 L 185.160156 51.082031 L 185.160156 52.136719 L 186.625 52.136719 L 186.625 56.960938 C 186.625 57.996094 186.859375 59.226562 188.089844 59.226562 C 189.300781 59.226562 190.121094 58.816406 190.667969 58.523438 L 190.394531 57.488281 C 189.769531 58.054688 189.105469 58.113281 188.792969 58.113281 C 187.992188 58.113281 187.894531 57.273438 187.894531 56.648438 Z M 187.894531 52.136719 "/>
<path style=" stroke:none;fill-rule:nonzero;fill:rgb(0%,0%,0%);fill-opacity:1;" d="M 36.566406 85.160156 L 34.066406 85.355469 L 34.066406 85.882812 C 35.296875 85.882812 35.433594 86 35.433594 86.878906 L 35.433594 96.273438 C 35.433594 97.074219 35.238281 97.074219 34.066406 97.074219 L 34.066406 97.601562 C 34.574219 97.5625 35.453125 97.5625 36 97.5625 C 36.527344 97.5625 37.425781 97.5625 37.933594 97.601562 L 37.933594 97.074219 C 36.78125 97.074219 36.566406 97.074219 36.566406 96.273438 Z M 36.566406 85.160156 "/>
<path style=" stroke:none;fill-rule:nonzero;fill:rgb(0%,0%,0%);fill-opacity:1;" d="M 46.652344 93.773438 C 46.652344 91.449219 44.894531 89.613281 42.824219 89.613281 C 40.675781 89.613281 38.976562 91.507812 38.976562 93.773438 C 38.976562 96.058594 40.753906 97.777344 42.804688 97.777344 C 44.914062 97.777344 46.652344 96.019531 46.652344 93.773438 Z M 42.824219 97.386719 C 42.160156 97.386719 41.359375 97.09375 40.832031 96.214844 C 40.34375 95.414062 40.324219 94.359375 40.324219 93.597656 C 40.324219 92.914062 40.324219 91.820312 40.890625 91.019531 C 41.378906 90.257812 42.179688 89.964844 42.804688 89.964844 C 43.507812 89.964844 44.25 90.277344 44.738281 90.980469 C 45.304688 91.800781 45.304688 92.933594 45.304688 93.597656 C 45.304688 94.222656 45.304688 95.335938 44.835938 96.175781 C 44.328125 97.054688 43.507812 97.386719 42.824219 97.386719 Z M 42.824219 97.386719 "/>
<path style=" stroke:none;fill-rule:nonzero;fill:rgb(0%,0%,0%);fill-opacity:1;" d="M 49.40625 94.359375 C 50.246094 94.90625 50.96875 94.90625 51.164062 94.90625 C 52.785156 94.90625 53.976562 93.695312 53.976562 92.308594 C 53.976562 91.820312 53.839844 91.15625 53.273438 90.570312 C 53.957031 89.847656 54.816406 89.847656 54.894531 89.847656 C 54.972656 89.847656 55.050781 89.847656 55.128906 89.886719 C 54.953125 89.964844 54.855469 90.140625 54.855469 90.335938 C 54.855469 90.589844 55.03125 90.804688 55.324219 90.804688 C 55.480469 90.804688 55.792969 90.707031 55.792969 90.316406 C 55.792969 90.003906 55.539062 89.496094 54.914062 89.496094 C 53.976562 89.496094 53.292969 90.0625 53.039062 90.335938 C 52.492188 89.925781 51.867188 89.691406 51.183594 89.691406 C 49.582031 89.691406 48.371094 90.921875 48.371094 92.289062 C 48.371094 93.324219 48.996094 93.988281 49.171875 94.144531 C 48.957031 94.417969 48.644531 94.925781 48.644531 95.628906 C 48.644531 96.664062 49.269531 97.113281 49.40625 97.210938 C 48.585938 97.445312 47.765625 98.089844 47.765625 99.027344 C 47.765625 100.257812 49.445312 101.273438 51.652344 101.273438 C 53.78125 101.273438 55.558594 100.335938 55.558594 98.988281 C 55.558594 98.539062 55.441406 97.484375 54.367188 96.917969 C 53.449219 96.449219 52.550781 96.449219 51.007812 96.449219 C 49.914062 96.449219 49.796875 96.449219 49.464844 96.117188 C 49.289062 95.941406 49.132812 95.589844 49.132812 95.21875 C 49.132812 94.90625 49.230469 94.613281 49.40625 94.359375 Z M 51.183594 94.535156 C 49.601562 94.535156 49.601562 92.71875 49.601562 92.308594 C 49.601562 91.996094 49.601562 91.253906 49.914062 90.765625 C 50.246094 90.257812 50.792969 90.0625 51.164062 90.0625 C 52.746094 90.0625 52.746094 91.878906 52.746094 92.289062 C 52.746094 92.621094 52.746094 93.34375 52.433594 93.832031 C 52.101562 94.359375 51.554688 94.535156 51.183594 94.535156 Z M 51.671875 100.902344 C 49.953125 100.902344 48.644531 100.023438 48.644531 99.007812 C 48.644531 98.851562 48.683594 98.148438 49.347656 97.699219 C 49.757812 97.445312 49.914062 97.445312 51.164062 97.445312 C 52.648438 97.445312 54.679688 97.445312 54.679688 99.007812 C 54.679688 100.0625 53.3125 100.902344 51.671875 100.902344 Z M 51.671875 100.902344 "/>
<path style=" stroke:none;fill-rule:nonzero;fill:rgb(0%,0%,0%);fill-opacity:1;" d="M 63.835938 99.613281 C 63.367188 100.296875 62.664062 100.902344 61.785156 100.902344 C 61.570312 100.902344 60.710938 100.863281 60.4375 100.042969 C 60.496094 100.0625 60.574219 100.0625 60.613281 100.0625 C 61.160156 100.0625 61.511719 99.59375 61.511719 99.183594 C 61.511719 98.773438 61.179688 98.617188 60.90625 98.617188 C 60.613281 98.617188 59.988281 98.832031 59.988281 99.710938 C 59.988281 100.628906 60.769531 101.253906 61.785156 101.253906 C 63.582031 101.253906 65.378906 99.613281 65.886719 97.621094 L 67.644531 90.628906 C 67.664062 90.53125 67.703125 90.433594 67.703125 90.316406 C 67.703125 90.0625 67.488281 89.867188 67.214844 89.867188 C 67.058594 89.867188 66.667969 89.945312 66.53125 90.492188 L 65.203125 95.746094 C 65.125 96.078125 65.125 96.117188 64.96875 96.3125 C 64.617188 96.820312 64.03125 97.425781 63.171875 97.425781 C 62.15625 97.425781 62.078125 96.429688 62.078125 95.960938 C 62.078125 94.925781 62.546875 93.558594 63.035156 92.25 C 63.230469 91.742188 63.347656 91.488281 63.347656 91.136719 C 63.347656 90.375 62.800781 89.691406 61.921875 89.691406 C 60.28125 89.691406 59.617188 92.289062 59.617188 92.445312 C 59.617188 92.503906 59.675781 92.601562 59.8125 92.601562 C 59.96875 92.601562 59.988281 92.523438 60.066406 92.269531 C 60.496094 90.765625 61.179688 90.0625 61.863281 90.0625 C 62.039062 90.0625 62.332031 90.0625 62.332031 90.648438 C 62.332031 91.117188 62.136719 91.625 61.863281 92.308594 C 60.984375 94.652344 60.984375 95.257812 60.984375 95.6875 C 60.984375 97.386719 62.214844 97.777344 63.113281 97.777344 C 63.621094 97.777344 64.265625 97.621094 64.910156 96.957031 L 64.929688 96.976562 C 64.65625 98.03125 64.480469 98.734375 63.835938 99.613281 Z M 63.835938 99.613281 "/>
<path style=" stroke:none;fill-rule:nonzero;fill:rgb(0%,0%,0%);fill-opacity:1;" d="M 85.488281 91.800781 C 85.742188 91.800781 86.054688 91.800781 86.054688 91.46875 C 86.054688 91.136719 85.742188 91.136719 85.488281 91.136719 L 74.921875 91.136719 C 74.667969 91.136719 74.355469 91.136719 74.355469 91.449219 C 74.355469 91.800781 74.648438 91.800781 74.921875 91.800781 Z M 85.488281 95.121094 C 85.742188 95.121094 86.054688 95.121094 86.054688 94.808594 C 86.054688 94.457031 85.742188 94.457031 85.488281 94.457031 L 74.921875 94.457031 C 74.667969 94.457031 74.355469 94.457031 74.355469 94.789062 C 74.355469 95.121094 74.648438 95.121094 74.921875 95.121094 Z M 85.488281 95.121094 "/>
<path style=" stroke:none;fill-rule:nonzero;fill:rgb(0%,0%,0%);fill-opacity:1;" d="M 95.066406 85.160156 L 92.566406 85.355469 L 92.566406 85.882812 C 93.796875 85.882812 93.933594 86 93.933594 86.878906 L 93.933594 96.273438 C 93.933594 97.074219 93.738281 97.074219 92.566406 97.074219 L 92.566406 97.601562 C 93.074219 97.5625 93.953125 97.5625 94.5 97.5625 C 95.027344 97.5625 95.925781 97.5625 96.433594 97.601562 L 96.433594 97.074219 C 95.28125 97.074219 95.066406 97.074219 95.066406 96.273438 Z M 95.066406 85.160156 "/>
<path style=" stroke:none;fill-rule:nonzero;fill:rgb(0%,0%,0%);fill-opacity:1;" d="M 105.152344 93.773438 C 105.152344 91.449219 103.394531 89.613281 101.324219 89.613281 C 99.175781 89.613281 97.476562 91.507812 97.476562 93.773438 C 97.476562 96.058594 99.253906 97.777344 101.304688 97.777344 C 103.414062 97.777344 105.152344 96.019531 105.152344 93.773438 Z M 101.324219 97.386719 C 100.660156 97.386719 99.859375 97.09375 99.332031 96.214844 C 98.84375 95.414062 98.824219 94.359375 98.824219 93.597656 C 98.824219 92.914062 98.824219 91.820312 99.390625 91.019531 C 99.878906 90.257812 100.679688 89.964844 101.304688 89.964844 C 102.007812 89.964844 102.75 90.277344 103.238281 90.980469 C 103.804688 91.800781 103.804688 92.933594 103.804688 93.597656 C 103.804688 94.222656 103.804688 95.335938 103.335938 96.175781 C 102.828125 97.054688 102.007812 97.386719 101.324219 97.386719 Z M 101.324219 97.386719 "/>
<path style=" stroke:none;fill-rule:nonzero;fill:rgb(0%,0%,0%);fill-opacity:1;" d="M 107.90625 94.359375 C 108.746094 94.90625 109.46875 94.90625 109.664062 94.90625 C 111.285156 94.90625 112.476562 93.695312 112.476562 92.308594 C 112.476562 91.820312 112.339844 91.15625 111.773438 90.570312 C 112.457031 89.847656 113.316406 89.847656 113.394531 89.847656 C 113.472656 89.847656 113.550781 89.847656 113.628906 89.886719 C 113.453125 89.964844 113.355469 90.140625 113.355469 90.335938 C 113.355469 90.589844 113.53125 90.804688 113.824219 90.804688 C 113.980469 90.804688 114.292969 90.707031 114.292969 90.316406 C 114.292969 90.003906 114.039062 89.496094 113.414062 89.496094 C 112.476562 89.496094 111.792969 90.0625 111.539062 90.335938 C 110.992188 89.925781 110.367188 89.691406 109.683594 89.691406 C 108.082031 89.691406 106.871094 90.921875 106.871094 92.289062 C 106.871094 93.324219 107.496094 93.988281 107.671875 94.144531 C 107.457031 94.417969 107.144531 94.925781 107.144531 95.628906 C 107.144531 96.664062 107.769531 97.113281 107.90625 97.210938 C 107.085938 97.445312 106.265625 98.089844 106.265625 99.027344 C 106.265625 100.257812 107.945312 101.273438 110.152344 101.273438 C 112.28125 101.273438 114.058594 100.335938 114.058594 98.988281 C 114.058594 98.539062 113.941406 97.484375 112.867188 96.917969 C 111.949219 96.449219 111.050781 96.449219 109.507812 96.449219 C 108.414062 96.449219 108.296875 96.449219 107.964844 96.117188 C 107.789062 95.941406 107.632812 95.589844 107.632812 95.21875 C 107.632812 94.90625 107.730469 94.613281 107.90625 94.359375 Z M 109.683594 94.535156 C 108.101562 94.535156 108.101562 92.71875 108.101562 92.308594 C 108.101562 91.996094 108.101562 91.253906 108.414062 90.765625 C 108.746094 90.257812 109.292969 90.0625 109.664062 90.0625 C 111.246094 90.0625 111.246094 91.878906 111.246094 92.289062 C 111.246094 92.621094 111.246094 93.34375 110.933594 93.832031 C 110.601562 94.359375 110.054688 94.535156 109.683594 94.535156 Z M 110.171875 100.902344 C 108.453125 100.902344 107.144531 100.023438 107.144531 99.007812 C 107.144531 98.851562 107.183594 98.148438 107.847656 97.699219 C 108.257812 97.445312 108.414062 97.445312 109.664062 97.445312 C 111.148438 97.445312 113.179688 97.445312 113.179688 99.007812 C 113.179688 100.0625 111.8125 100.902344 110.171875 100.902344 Z M 110.171875 100.902344 "/>
<path style=" stroke:none;fill-rule:nonzero;fill:rgb(0%,0%,0%);fill-opacity:1;" d="M 120.675781 95.609375 C 120.050781 96.664062 119.445312 97.035156 118.585938 97.074219 C 118.390625 97.09375 118.234375 97.09375 118.234375 97.425781 C 118.234375 97.523438 118.332031 97.601562 118.449219 97.601562 C 118.78125 97.601562 119.582031 97.5625 119.914062 97.5625 C 120.421875 97.5625 121.007812 97.601562 121.496094 97.601562 C 121.613281 97.601562 121.828125 97.601562 121.828125 97.269531 C 121.828125 97.09375 121.671875 97.074219 121.574219 97.074219 C 121.164062 97.054688 120.8125 96.898438 120.8125 96.46875 C 120.8125 96.214844 120.929688 96.019531 121.164062 95.628906 L 122.53125 93.363281 L 127.101562 93.363281 C 127.121094 93.539062 127.121094 93.675781 127.140625 93.832031 C 127.179688 94.300781 127.394531 96.175781 127.394531 96.507812 C 127.394531 97.054688 126.476562 97.074219 126.203125 97.074219 C 126.007812 97.074219 125.8125 97.074219 125.8125 97.40625 C 125.8125 97.601562 125.96875 97.601562 126.066406 97.601562 C 126.378906 97.601562 126.730469 97.5625 127.042969 97.5625 L 128.058594 97.5625 C 129.152344 97.5625 129.953125 97.601562 129.972656 97.601562 C 130.089844 97.601562 130.285156 97.601562 130.285156 97.269531 C 130.285156 97.074219 130.128906 97.074219 129.855469 97.074219 C 128.878906 97.074219 128.859375 96.917969 128.800781 96.390625 L 127.707031 85.199219 C 127.667969 84.828125 127.589844 84.808594 127.394531 84.808594 C 127.21875 84.808594 127.121094 84.828125 126.945312 85.101562 Z M 122.824219 92.855469 L 126.4375 86.820312 L 127.042969 92.855469 Z M 122.824219 92.855469 "/>
<path style=" stroke:none;fill-rule:nonzero;fill:rgb(0%,0%,0%);fill-opacity:1;" d="M 142.027344 93.460938 L 146.988281 93.460938 C 147.242188 93.460938 147.554688 93.460938 147.554688 93.128906 C 147.554688 92.796875 147.242188 92.796875 146.988281 92.796875 L 142.027344 92.796875 L 142.027344 87.855469 C 142.027344 87.601562 142.027344 87.269531 141.714844 87.269531 C 141.363281 87.269531 141.363281 87.582031 141.363281 87.855469 L 141.363281 92.796875 L 136.421875 92.796875 C 136.167969 92.796875 135.855469 92.796875 135.855469 93.128906 C 135.855469 93.460938 136.148438 93.460938 136.421875 93.460938 L 141.363281 93.460938 L 141.363281 98.402344 C 141.363281 98.65625 141.363281 98.988281 141.695312 98.988281 C 142.027344 98.988281 142.027344 98.675781 142.027344 98.402344 Z M 142.027344 93.460938 "/>
<path style=" stroke:none;fill-rule:nonzero;fill:rgb(0%,0%,0%);fill-opacity:1;" d="M 155.515625 85.160156 L 153.015625 85.355469 L 153.015625 85.882812 C 154.246094 85.882812 154.382812 86 154.382812 86.878906 L 154.382812 96.273438 C 154.382812 97.074219 154.1875 97.074219 153.015625 97.074219 L 153.015625 97.601562 C 153.523438 97.5625 154.402344 97.5625 154.949219 97.5625 C 155.476562 97.5625 156.375 97.5625 156.882812 97.601562 L 156.882812 97.074219 C 155.730469 97.074219 155.515625 97.074219 155.515625 96.273438 Z M 155.515625 85.160156 "/>
<path style=" stroke:none;fill-rule:nonzero;fill:rgb(0%,0%,0%);fill-opacity:1;" d="M 165.601562 93.773438 C 165.601562 91.449219 163.84375 89.613281 161.773438 89.613281 C 159.625 89.613281 157.925781 91.507812 157.925781 93.773438 C 157.925781 96.058594 159.703125 97.777344 161.753906 97.777344 C 163.863281 97.777344 165.601562 96.019531 165.601562 93.773438 Z M 161.773438 97.386719 C 161.109375 97.386719 160.308594 97.09375 159.78125 96.214844 C 159.292969 95.414062 159.273438 94.359375 159.273438 93.597656 C 159.273438 92.914062 159.273438 91.820312 159.839844 91.019531 C 160.328125 90.257812 161.128906 89.964844 161.753906 89.964844 C 162.457031 89.964844 163.199219 90.277344 163.6875 90.980469 C 164.253906 91.800781 164.253906 92.933594 164.253906 93.597656 C 164.253906 94.222656 164.253906 95.335938 163.785156 96.175781 C 163.277344 97.054688 162.457031 97.386719 161.773438 97.386719 Z M 161.773438 97.386719 "/>
<path style=" stroke:none;fill-rule:nonzero;fill:rgb(0%,0%,0%);fill-opacity:1;" d="M 168.359375 94.359375 C 169.199219 94.90625 169.921875 94.90625 170.117188 94.90625 C 171.738281 94.90625 172.929688 93.695312 172.929688 92.308594 C 172.929688 91.820312 172.792969 91.15625 172.226562 90.570312 C 172.910156 89.847656 173.769531 89.847656 173.847656 89.847656 C 173.925781 89.847656 174.003906 89.847656 174.082031 89.886719 C 173.90625 89.964844 173.808594 90.140625 173.808594 90.335938 C 173.808594 90.589844 173.984375 90.804688 174.277344 90.804688 C 174.433594 90.804688 174.746094 90.707031 174.746094 90.316406 C 174.746094 90.003906 174.492188 89.496094 173.867188 89.496094 C 172.929688 89.496094 172.246094 90.0625 171.992188 90.335938 C 171.445312 89.925781 170.820312 89.691406 170.136719 89.691406 C 168.535156 89.691406 167.324219 90.921875 167.324219 92.289062 C 167.324219 93.324219 167.949219 93.988281 168.125 94.144531 C 167.910156 94.417969 167.597656 94.925781 167.597656 95.628906 C 167.597656 96.664062 168.222656 97.113281 168.359375 97.210938 C 167.539062 97.445312 166.71875 98.089844 166.71875 99.027344 C 166.71875 100.257812 168.398438 101.273438 170.605469 101.273438 C 172.734375 101.273438 174.511719 100.335938 174.511719 98.988281 C 174.511719 98.539062 174.394531 97.484375 173.320312 96.917969 C 172.402344 96.449219 171.503906 96.449219 169.960938 96.449219 C 168.867188 96.449219 168.75 96.449219 168.417969 96.117188 C 168.242188 95.941406 168.085938 95.589844 168.085938 95.21875 C 168.085938 94.90625 168.183594 94.613281 168.359375 94.359375 Z M 170.136719 94.535156 C 168.554688 94.535156 168.554688 92.71875 168.554688 92.308594 C 168.554688 91.996094 168.554688 91.253906 168.867188 90.765625 C 169.199219 90.257812 169.746094 90.0625 170.117188 90.0625 C 171.699219 90.0625 171.699219 91.878906 171.699219 92.289062 C 171.699219 92.621094 171.699219 93.34375 171.386719 93.832031 C 171.054688 94.359375 170.507812 94.535156 170.136719 94.535156 Z M 170.625 100.902344 C 168.90625 100.902344 167.597656 100.023438 167.597656 99.007812 C 167.597656 98.851562 167.636719 98.148438 168.300781 97.699219 C 168.710938 97.445312 168.867188 97.445312 170.117188 97.445312 C 171.601562 97.445312 173.632812 97.445312 173.632812 99.007812 C 173.632812 100.0625 172.265625 100.902344 170.625 100.902344 Z M 170.625 100.902344 "/>
<path style=" stroke:none;fill-rule:nonzero;fill:rgb(0%,0%,0%);fill-opacity:1;" d="M 184.640625 86.566406 C 184.796875 85.902344 184.875 85.882812 185.578125 85.882812 L 187.902344 85.882812 C 189.933594 85.882812 189.933594 87.601562 189.933594 87.757812 C 189.933594 89.203125 188.46875 91.058594 186.105469 91.058594 L 183.527344 91.058594 Z M 187.667969 91.195312 C 189.621094 90.84375 191.398438 89.476562 191.398438 87.835938 C 191.398438 86.429688 190.167969 85.355469 188.136719 85.355469 L 182.375 85.355469 C 182.042969 85.355469 181.886719 85.355469 181.886719 85.6875 C 181.886719 85.882812 182.042969 85.882812 182.316406 85.882812 C 183.410156 85.882812 183.410156 86.019531 183.410156 86.214844 C 183.410156 86.253906 183.410156 86.351562 183.332031 86.625 L 180.910156 96.273438 C 180.753906 96.898438 180.714844 97.074219 179.464844 97.074219 C 179.113281 97.074219 178.9375 97.074219 178.9375 97.40625 C 178.9375 97.601562 179.054688 97.601562 179.40625 97.601562 L 185.558594 97.601562 C 188.292969 97.601562 190.421875 95.53125 190.421875 93.714844 C 190.421875 92.25 189.113281 91.351562 187.667969 91.195312 Z M 185.128906 97.074219 L 182.707031 97.074219 C 182.453125 97.074219 182.414062 97.074219 182.316406 97.054688 C 182.121094 97.054688 182.101562 97.015625 182.101562 96.859375 C 182.101562 96.742188 182.121094 96.625 182.160156 96.46875 L 183.429688 91.410156 L 186.789062 91.410156 C 188.898438 91.410156 188.898438 93.382812 188.898438 93.539062 C 188.898438 95.257812 187.355469 97.074219 185.128906 97.074219 Z M 185.128906 97.074219 "/>
</g>
</svg>
