<?xml version="1.0" encoding="UTF-8"?>
<svg xmlns="http://www.w3.org/2000/svg" xmlns:xlink="http://www.w3.org/1999/xlink" width="188.67464pt" height="55.809126pt" viewBox="0 0 188.67464 55.809126" version="1.1">
<g id="surface1">
<path style=" stroke:none;fill-rule:nonzero;fill:rgb(0%,0%,0%);fill-opacity:1;" d="M 0 0.175781 L 0 12.617188 L 4.589844 12.617188 C 7.597656 12.617188 10 9.902344 10 6.503906 C 10 3.007812 7.617188 0.175781 4.589844 0.175781 Z M 1.503906 11.621094 L 1.503906 1.171875 L 4.179688 1.171875 C 6.582031 1.171875 8.496094 3.242188 8.496094 6.484375 C 8.496094 9.765625 6.503906 11.621094 4.179688 11.621094 Z M 1.503906 11.621094 "/>
<path style=" stroke:none;fill-rule:nonzero;fill:rgb(0%,0%,0%);fill-opacity:1;" d="M 13.792969 0.449219 L 12.25 0.449219 L 12.25 1.992188 L 13.792969 1.992188 Z M 13.695312 4.648438 L 12.367188 4.648438 L 12.367188 12.617188 L 13.695312 12.617188 Z M 13.695312 4.648438 "/>
<path style=" stroke:none;fill-rule:nonzero;fill:rgb(0%,0%,0%);fill-opacity:1;" d="M 18.265625 5.703125 L 20.199219 5.703125 L 20.199219 4.648438 L 18.226562 4.648438 L 18.226562 2.5 C 18.226562 1.25 19.320312 1.074219 19.847656 1.074219 C 20.492188 1.074219 21.019531 1.269531 21.253906 1.347656 L 21.253906 0.175781 C 21.039062 0.117188 20.492188 0 19.867188 0 C 18.226562 0 16.9375 1.230469 16.9375 3.046875 L 16.9375 4.648438 L 15.628906 4.648438 L 15.628906 5.703125 L 16.9375 5.703125 L 16.9375 12.617188 L 18.265625 12.617188 Z M 23.128906 5.703125 L 25.0625 5.703125 L 25.0625 4.648438 L 23.089844 4.648438 L 23.089844 2.5 C 23.089844 1.25 24.183594 1.074219 24.691406 1.074219 C 25.335938 1.074219 25.882812 1.269531 26.117188 1.347656 L 26.117188 0.175781 C 25.902344 0.117188 25.335938 0 24.710938 0 C 23.089844 0 21.800781 1.230469 21.800781 3.046875 L 21.800781 12.617188 L 23.128906 12.617188 Z M 23.128906 5.703125 "/>
<path style=" stroke:none;fill-rule:nonzero;fill:rgb(0%,0%,0%);fill-opacity:1;" d="M 32.664062 8.574219 C 32.664062 7.8125 32.585938 6.71875 32.019531 5.761719 C 31.277344 4.53125 30.027344 4.394531 29.5 4.394531 C 27.566406 4.394531 25.945312 6.25 25.945312 8.574219 C 25.945312 10.957031 27.664062 12.792969 29.753906 12.792969 C 30.574219 12.792969 31.570312 12.558594 32.546875 11.855469 C 32.546875 11.777344 32.488281 11.210938 32.488281 11.191406 C 32.46875 11.171875 32.449219 10.761719 32.449219 10.703125 C 31.375 11.601562 30.320312 11.71875 29.792969 11.71875 C 28.40625 11.71875 27.214844 10.488281 27.195312 8.574219 Z M 27.292969 7.617188 C 27.605469 6.40625 28.445312 5.46875 29.5 5.46875 C 30.066406 5.46875 31.296875 5.722656 31.589844 7.617188 Z M 27.292969 7.617188 "/>
<path style=" stroke:none;fill-rule:nonzero;fill:rgb(0%,0%,0%);fill-opacity:1;" d="M 35.894531 8.691406 C 35.894531 6.875 37.242188 5.703125 38.863281 5.683594 L 38.863281 4.472656 C 37.222656 4.492188 36.285156 5.449219 35.796875 6.152344 L 35.796875 4.570312 L 34.566406 4.570312 L 34.566406 12.617188 L 35.894531 12.617188 Z M 35.894531 8.691406 "/>
<path style=" stroke:none;fill-rule:nonzero;fill:rgb(0%,0%,0%);fill-opacity:1;" d="M 46.464844 8.574219 C 46.464844 7.8125 46.386719 6.71875 45.820312 5.761719 C 45.078125 4.53125 43.828125 4.394531 43.300781 4.394531 C 41.367188 4.394531 39.746094 6.25 39.746094 8.574219 C 39.746094 10.957031 41.464844 12.792969 43.554688 12.792969 C 44.375 12.792969 45.371094 12.558594 46.347656 11.855469 C 46.347656 11.777344 46.289062 11.210938 46.289062 11.191406 C 46.269531 11.171875 46.25 10.761719 46.25 10.703125 C 45.175781 11.601562 44.121094 11.71875 43.59375 11.71875 C 42.207031 11.71875 41.015625 10.488281 40.996094 8.574219 Z M 41.09375 7.617188 C 41.40625 6.40625 42.246094 5.46875 43.300781 5.46875 C 43.867188 5.46875 45.097656 5.722656 45.390625 7.617188 Z M 41.09375 7.617188 "/>
<path style=" stroke:none;fill-rule:nonzero;fill:rgb(0%,0%,0%);fill-opacity:1;" d="M 54.558594 7.226562 C 54.558594 6.132812 54.324219 4.472656 52.15625 4.472656 C 51.160156 4.472656 50.300781 4.921875 49.617188 5.78125 L 49.617188 4.570312 L 48.347656 4.570312 L 48.347656 12.617188 L 49.695312 12.617188 L 49.695312 8.144531 C 49.695312 7.050781 50.125 5.546875 51.472656 5.546875 C 53.152344 5.546875 53.191406 6.71875 53.191406 7.34375 L 53.191406 12.617188 L 54.558594 12.617188 Z M 54.558594 7.226562 "/>
<path style=" stroke:none;fill-rule:nonzero;fill:rgb(0%,0%,0%);fill-opacity:1;" d="M 59.027344 5.703125 L 61.507812 5.703125 L 61.507812 4.648438 L 59.027344 4.648438 L 59.027344 2.382812 L 57.796875 2.382812 L 57.796875 4.648438 L 56.292969 4.648438 L 56.292969 5.703125 L 57.757812 5.703125 L 57.757812 10.527344 C 57.757812 11.5625 57.992188 12.792969 59.222656 12.792969 C 60.433594 12.792969 61.253906 12.382812 61.800781 12.089844 L 61.527344 11.054688 C 60.902344 11.621094 60.238281 11.679688 59.925781 11.679688 C 59.125 11.679688 59.027344 10.839844 59.027344 10.214844 Z M 59.027344 5.703125 "/>
<path style=" stroke:none;fill-rule:nonzero;fill:rgb(0%,0%,0%);fill-opacity:1;" d="M 65.089844 0.449219 L 63.546875 0.449219 L 63.546875 1.992188 L 65.089844 1.992188 Z M 64.992188 4.648438 L 63.664062 4.648438 L 63.664062 12.617188 L 64.992188 12.617188 Z M 64.992188 4.648438 "/>
<path style=" stroke:none;fill-rule:nonzero;fill:rgb(0%,0%,0%);fill-opacity:1;" d="M 73.472656 7.363281 C 73.472656 5.644531 72.242188 4.394531 70.5625 4.394531 C 69.488281 4.394531 68.6875 4.628906 67.808594 5.136719 L 67.90625 6.328125 C 68.707031 5.742188 69.527344 5.429688 70.5625 5.429688 C 71.382812 5.429688 72.105469 6.09375 72.105469 7.402344 L 72.105469 8.144531 C 71.304688 8.164062 70.230469 8.222656 69.15625 8.574219 C 67.945312 9.003906 67.242188 9.667969 67.242188 10.546875 C 67.242188 11.347656 67.710938 12.792969 69.234375 12.792969 C 70.230469 12.792969 71.480469 12.5 72.144531 11.953125 L 72.144531 12.617188 L 73.472656 12.617188 Z M 72.105469 10.214844 C 72.105469 10.566406 72.105469 10.996094 71.519531 11.367188 C 71.03125 11.660156 70.425781 11.71875 70.152344 11.71875 C 69.195312 11.71875 68.53125 11.191406 68.53125 10.546875 C 68.53125 9.316406 71.011719 9.042969 72.105469 9.042969 Z M 72.105469 10.214844 "/>
<path style=" stroke:none;fill-rule:nonzero;fill:rgb(0%,0%,0%);fill-opacity:1;" d="M 77.925781 5.703125 L 80.40625 5.703125 L 80.40625 4.648438 L 77.925781 4.648438 L 77.925781 2.382812 L 76.695312 2.382812 L 76.695312 4.648438 L 75.191406 4.648438 L 75.191406 5.703125 L 76.65625 5.703125 L 76.65625 10.527344 C 76.65625 11.5625 76.890625 12.792969 78.121094 12.792969 C 79.332031 12.792969 80.152344 12.382812 80.699219 12.089844 L 80.425781 11.054688 C 79.800781 11.621094 79.136719 11.679688 78.824219 11.679688 C 78.023438 11.679688 77.925781 10.839844 77.925781 10.214844 Z M 77.925781 5.703125 "/>
<path style=" stroke:none;fill-rule:nonzero;fill:rgb(0%,0%,0%);fill-opacity:1;" d="M 88.464844 8.574219 C 88.464844 7.8125 88.386719 6.71875 87.820312 5.761719 C 87.078125 4.53125 85.828125 4.394531 85.300781 4.394531 C 83.367188 4.394531 81.746094 6.25 81.746094 8.574219 C 81.746094 10.957031 83.464844 12.792969 85.554688 12.792969 C 86.375 12.792969 87.371094 12.558594 88.347656 11.855469 C 88.347656 11.777344 88.289062 11.210938 88.289062 11.191406 C 88.269531 11.171875 88.25 10.761719 88.25 10.703125 C 87.175781 11.601562 86.121094 11.71875 85.59375 11.71875 C 84.207031 11.71875 83.015625 10.488281 82.996094 8.574219 Z M 83.09375 7.617188 C 83.40625 6.40625 84.246094 5.46875 85.300781 5.46875 C 85.867188 5.46875 87.097656 5.722656 87.390625 7.617188 Z M 83.09375 7.617188 "/>
<path style=" stroke:none;fill-rule:nonzero;fill:rgb(0%,0%,0%);fill-opacity:1;" d="M 97.875 5.703125 L 100.355469 5.703125 L 100.355469 4.648438 L 97.875 4.648438 L 97.875 2.382812 L 96.644531 2.382812 L 96.644531 4.648438 L 95.140625 4.648438 L 95.140625 5.703125 L 96.605469 5.703125 L 96.605469 10.527344 C 96.605469 11.5625 96.839844 12.792969 98.070312 12.792969 C 99.28125 12.792969 100.101562 12.382812 100.648438 12.089844 L 100.375 11.054688 C 99.75 11.621094 99.085938 11.679688 98.773438 11.679688 C 97.972656 11.679688 97.875 10.839844 97.875 10.214844 Z M 97.875 5.703125 "/>
<path style=" stroke:none;fill-rule:nonzero;fill:rgb(0%,0%,0%);fill-opacity:1;" d="M 108.707031 7.226562 C 108.707031 6.132812 108.472656 4.472656 106.304688 4.472656 C 105.074219 4.472656 104.253906 5.175781 103.824219 5.722656 L 103.824219 0.175781 L 102.496094 0.175781 L 102.496094 12.617188 L 103.84375 12.617188 L 103.84375 8.144531 C 103.84375 7.050781 104.273438 5.546875 105.621094 5.546875 C 107.300781 5.546875 107.339844 6.71875 107.339844 7.34375 L 107.339844 12.617188 L 108.707031 12.617188 Z M 108.707031 7.226562 "/>
<path style=" stroke:none;fill-rule:nonzero;fill:rgb(0%,0%,0%);fill-opacity:1;" d="M 117.414062 8.574219 C 117.414062 7.8125 117.335938 6.71875 116.769531 5.761719 C 116.027344 4.53125 114.777344 4.394531 114.25 4.394531 C 112.316406 4.394531 110.695312 6.25 110.695312 8.574219 C 110.695312 10.957031 112.414062 12.792969 114.503906 12.792969 C 115.324219 12.792969 116.320312 12.558594 117.296875 11.855469 C 117.296875 11.777344 117.238281 11.210938 117.238281 11.191406 C 117.21875 11.171875 117.199219 10.761719 117.199219 10.703125 C 116.125 11.601562 115.070312 11.71875 114.542969 11.71875 C 113.15625 11.71875 111.964844 10.488281 111.945312 8.574219 Z M 112.042969 7.617188 C 112.355469 6.40625 113.195312 5.46875 114.25 5.46875 C 114.816406 5.46875 116.046875 5.722656 116.339844 7.617188 Z M 112.042969 7.617188 "/>
<path style=" stroke:none;fill-rule:nonzero;fill:rgb(0%,0%,0%);fill-opacity:1;" d="M 127.015625 5.703125 L 128.929688 5.703125 L 128.929688 4.648438 L 126.976562 4.648438 L 126.976562 2.5 C 126.976562 1.289062 127.992188 1.074219 128.597656 1.074219 C 129.222656 1.074219 129.769531 1.269531 129.984375 1.347656 L 129.984375 0.175781 C 129.867188 0.136719 129.261719 0 128.617188 0 C 126.898438 0 125.6875 1.308594 125.6875 3.046875 L 125.6875 4.648438 L 124.378906 4.648438 L 124.378906 5.703125 L 125.6875 5.703125 L 125.6875 12.617188 L 127.015625 12.617188 Z M 127.015625 5.703125 "/>
<path style=" stroke:none;fill-rule:nonzero;fill:rgb(0%,0%,0%);fill-opacity:1;" d="M 137.53125 8.671875 C 137.53125 6.25 135.753906 4.394531 133.703125 4.394531 C 131.59375 4.394531 129.855469 6.289062 129.855469 8.671875 C 129.855469 11.015625 131.632812 12.792969 133.683594 12.792969 C 135.792969 12.792969 137.53125 10.976562 137.53125 8.671875 Z M 133.703125 11.679688 C 132.414062 11.679688 131.203125 10.605469 131.203125 8.496094 C 131.203125 6.328125 132.550781 5.46875 133.683594 5.46875 C 134.914062 5.46875 136.183594 6.386719 136.183594 8.496094 C 136.183594 10.703125 134.894531 11.679688 133.703125 11.679688 Z M 133.703125 11.679688 "/>
<path style=" stroke:none;fill-rule:nonzero;fill:rgb(0%,0%,0%);fill-opacity:1;" d="M 140.894531 0.175781 L 139.566406 0.175781 L 139.566406 12.617188 L 140.894531 12.617188 Z M 140.894531 0.175781 "/>
<path style=" stroke:none;fill-rule:nonzero;fill:rgb(0%,0%,0%);fill-opacity:1;" d="M 145.09375 0.175781 L 143.765625 0.175781 L 143.765625 12.617188 L 145.09375 12.617188 Z M 145.09375 0.175781 "/>
<path style=" stroke:none;fill-rule:nonzero;fill:rgb(0%,0%,0%);fill-opacity:1;" d="M 154.78125 8.671875 C 154.78125 6.25 153.003906 4.394531 150.953125 4.394531 C 148.84375 4.394531 147.105469 6.289062 147.105469 8.671875 C 147.105469 11.015625 148.882812 12.792969 150.933594 12.792969 C 153.042969 12.792969 154.78125 10.976562 154.78125 8.671875 Z M 150.953125 11.679688 C 149.664062 11.679688 148.453125 10.605469 148.453125 8.496094 C 148.453125 6.328125 149.800781 5.46875 150.933594 5.46875 C 152.164062 5.46875 153.433594 6.386719 153.433594 8.496094 C 153.433594 10.703125 152.144531 11.679688 150.953125 11.679688 Z M 150.953125 11.679688 "/>
<path style=" stroke:none;fill-rule:nonzero;fill:rgb(0%,0%,0%);fill-opacity:1;" d="M 166.621094 4.648438 L 165.3125 4.648438 L 164.238281 8.300781 C 163.984375 9.160156 163.476562 10.839844 163.398438 11.621094 L 163.378906 11.621094 C 163.339844 11.191406 163.046875 9.980469 162.675781 8.710938 L 161.484375 4.648438 L 160.253906 4.648438 L 159.21875 8.164062 C 158.90625 9.277344 158.476562 10.820312 158.417969 11.582031 L 158.398438 11.582031 C 158.378906 11.230469 158.183594 10.292969 157.851562 9.082031 L 156.582031 4.648438 L 155.214844 4.648438 L 157.617188 12.617188 L 159.003906 12.617188 C 159.667969 10.351562 160.722656 6.953125 160.820312 5.703125 L 160.839844 5.703125 C 160.878906 6.425781 161.230469 7.714844 161.367188 8.144531 L 162.636719 12.617188 L 164.21875 12.617188 Z M 166.621094 4.648438 "/>
<path style=" stroke:none;fill-rule:nonzero;fill:rgb(0%,0%,0%);fill-opacity:1;" d="M 169.792969 0.449219 L 168.25 0.449219 L 168.25 1.992188 L 169.792969 1.992188 Z M 169.695312 4.648438 L 168.367188 4.648438 L 168.367188 12.617188 L 169.695312 12.617188 Z M 169.695312 4.648438 "/>
<path style=" stroke:none;fill-rule:nonzero;fill:rgb(0%,0%,0%);fill-opacity:1;" d="M 178.757812 7.226562 C 178.757812 6.132812 178.523438 4.472656 176.355469 4.472656 C 175.359375 4.472656 174.5 4.921875 173.816406 5.78125 L 173.816406 4.570312 L 172.546875 4.570312 L 172.546875 12.617188 L 173.894531 12.617188 L 173.894531 8.144531 C 173.894531 7.050781 174.324219 5.546875 175.671875 5.546875 C 177.351562 5.546875 177.390625 6.71875 177.390625 7.34375 L 177.390625 12.617188 L 178.757812 12.617188 Z M 178.757812 7.226562 "/>
<path style=" stroke:none;fill-rule:nonzero;fill:rgb(0%,0%,0%);fill-opacity:1;" d="M 186.273438 5.546875 C 186.273438 5.546875 186.3125 5.585938 186.332031 5.625 C 186.703125 5.585938 187.09375 5.527344 187.757812 5.527344 C 187.816406 5.527344 188.226562 5.527344 188.675781 5.566406 L 188.480469 4.472656 C 188.148438 4.472656 186.917969 4.492188 185.726562 5.078125 C 185.140625 4.570312 184.417969 4.472656 184.066406 4.472656 C 182.503906 4.472656 181.253906 5.78125 181.253906 7.363281 C 181.253906 8.007812 181.449219 8.59375 181.839844 9.140625 C 181.429688 9.707031 181.332031 10.253906 181.332031 10.683594 C 181.332031 11.347656 181.585938 11.796875 181.78125 12.03125 C 180.863281 12.617188 180.648438 13.378906 180.648438 13.886719 C 180.648438 15.195312 182.347656 16.289062 184.535156 16.289062 C 186.722656 16.289062 188.441406 15.234375 188.441406 13.867188 C 188.441406 11.367188 185.53125 11.367188 184.808594 11.367188 L 183.285156 11.367188 C 183.03125 11.367188 182.25 11.367188 182.25 10.410156 C 182.25 10.019531 182.328125 9.902344 182.445312 9.746094 C 182.738281 9.960938 183.324219 10.273438 184.046875 10.273438 C 185.589844 10.273438 186.859375 9.003906 186.859375 7.363281 C 186.859375 6.71875 186.625 6.054688 186.253906 5.566406 Z M 184.066406 9.277344 C 183.285156 9.277344 182.484375 8.75 182.484375 7.382812 C 182.484375 5.78125 183.5 5.46875 184.046875 5.46875 C 184.847656 5.46875 185.628906 5.996094 185.628906 7.363281 C 185.628906 8.964844 184.632812 9.277344 184.066406 9.277344 Z M 184.828125 12.65625 C 185.21875 12.65625 187.191406 12.65625 187.191406 13.886719 C 187.191406 14.707031 185.960938 15.3125 184.554688 15.3125 C 183.148438 15.3125 181.898438 14.746094 181.898438 13.867188 C 181.898438 13.828125 181.898438 12.65625 183.265625 12.65625 Z M 184.828125 12.65625 "/>
<path style=" stroke:none;fill-rule:nonzero;fill:rgb(0%,0%,0%);fill-opacity:1;" d="M 41.957031 43.992188 C 41.390625 44.109375 41.175781 44.539062 41.175781 44.871094 C 41.175781 45.300781 41.507812 45.457031 41.761719 45.457031 C 42.308594 45.457031 42.679688 44.988281 42.679688 44.5 C 42.679688 43.757812 41.820312 43.40625 41.058594 43.40625 C 39.964844 43.40625 39.359375 44.480469 39.203125 44.832031 C 38.792969 43.484375 37.679688 43.40625 37.347656 43.40625 C 35.53125 43.40625 34.554688 45.75 34.554688 46.160156 C 34.554688 46.21875 34.632812 46.316406 34.75 46.316406 C 34.886719 46.316406 34.925781 46.199219 34.964844 46.140625 C 35.570312 44.148438 36.78125 43.777344 37.289062 43.777344 C 38.109375 43.777344 38.265625 44.519531 38.265625 44.949219 C 38.265625 45.339844 38.167969 45.75 37.933594 46.609375 L 37.328125 49.070312 C 37.074219 50.144531 36.546875 51.140625 35.589844 51.140625 C 35.511719 51.140625 35.0625 51.140625 34.671875 50.90625 C 35.316406 50.769531 35.472656 50.242188 35.472656 50.027344 C 35.472656 49.675781 35.199219 49.460938 34.867188 49.460938 C 34.4375 49.460938 33.96875 49.832031 33.96875 50.398438 C 33.96875 51.160156 34.808594 51.492188 35.570312 51.492188 C 36.429688 51.492188 37.054688 50.808594 37.425781 50.085938 C 37.71875 51.140625 38.597656 51.492188 39.261719 51.492188 C 41.097656 51.492188 42.074219 49.148438 42.074219 48.757812 C 42.074219 48.660156 41.996094 48.582031 41.878906 48.582031 C 41.722656 48.582031 41.703125 48.679688 41.664062 48.816406 C 41.175781 50.398438 40.121094 51.140625 39.320312 51.140625 C 38.695312 51.140625 38.363281 50.671875 38.363281 49.929688 C 38.363281 49.539062 38.421875 49.246094 38.714844 48.074219 L 39.339844 45.632812 C 39.613281 44.558594 40.21875 43.777344 41.039062 43.777344 C 41.078125 43.777344 41.585938 43.777344 41.957031 43.992188 Z M 41.957031 43.992188 "/>
<path style=" stroke:none;fill-rule:nonzero;fill:rgb(0%,0%,0%);fill-opacity:1;" d="M 46.105469 41.394531 C 46.378906 41.453125 47.394531 41.648438 47.394531 42.546875 C 47.394531 43.171875 46.964844 43.679688 45.988281 43.679688 C 44.933594 43.679688 44.484375 42.976562 44.25 41.902344 C 44.210938 41.746094 44.210938 41.707031 44.074219 41.707031 C 43.917969 41.707031 43.917969 41.785156 43.917969 42 L 43.917969 43.660156 C 43.917969 43.875 43.917969 43.953125 44.054688 43.953125 C 44.113281 43.953125 44.132812 43.933594 44.367188 43.699219 C 44.386719 43.679688 44.386719 43.660156 44.621094 43.425781 C 45.167969 43.933594 45.734375 43.953125 45.988281 43.953125 C 47.414062 43.953125 48 43.113281 48 42.214844 C 48 41.570312 47.628906 41.179688 47.472656 41.042969 C 47.0625 40.632812 46.574219 40.535156 46.046875 40.4375 C 45.34375 40.300781 44.523438 40.144531 44.523438 39.421875 C 44.523438 38.972656 44.835938 38.464844 45.910156 38.464844 C 47.277344 38.464844 47.355469 39.597656 47.375 39.96875 C 47.375 40.085938 47.492188 40.085938 47.511719 40.085938 C 47.6875 40.085938 47.6875 40.027344 47.6875 39.792969 L 47.6875 38.523438 C 47.6875 38.328125 47.6875 38.230469 47.550781 38.230469 C 47.492188 38.230469 47.453125 38.230469 47.296875 38.386719 C 47.257812 38.425781 47.140625 38.542969 47.082031 38.582031 C 46.613281 38.230469 46.105469 38.230469 45.910156 38.230469 C 44.386719 38.230469 43.917969 39.070312 43.917969 39.773438 C 43.917969 40.203125 44.113281 40.554688 44.445312 40.828125 C 44.855469 41.140625 45.207031 41.21875 46.105469 41.394531 Z M 46.105469 41.394531 "/>
<path style=" stroke:none;fill-rule:nonzero;fill:rgb(0%,0%,0%);fill-opacity:1;" d="M 50.667969 38.308594 L 48.929688 38.445312 L 48.929688 38.835938 C 49.730469 38.835938 49.847656 38.914062 49.847656 39.519531 L 49.847656 42.878906 C 49.847656 43.425781 49.710938 43.425781 48.871094 43.425781 L 48.871094 43.816406 C 49.261719 43.796875 49.945312 43.777344 50.238281 43.777344 C 50.6875 43.777344 51.117188 43.796875 51.546875 43.816406 L 51.546875 43.425781 C 50.707031 43.425781 50.667969 43.367188 50.667969 42.878906 Z M 50.707031 36.140625 C 50.707031 35.75 50.414062 35.476562 50.0625 35.476562 C 49.671875 35.476562 49.398438 35.808594 49.398438 36.140625 C 49.398438 36.472656 49.671875 36.804688 50.0625 36.804688 C 50.414062 36.804688 50.707031 36.53125 50.707031 36.140625 Z M 50.707031 36.140625 "/>
<path style=" stroke:none;fill-rule:nonzero;fill:rgb(0%,0%,0%);fill-opacity:1;" d="M 53.277344 39.539062 L 53.277344 42.878906 C 53.277344 43.425781 53.140625 43.425781 52.300781 43.425781 L 52.300781 43.816406 C 52.75 43.796875 53.375 43.777344 53.726562 43.777344 C 54.039062 43.777344 54.683594 43.796875 55.113281 43.816406 L 55.113281 43.425781 C 54.273438 43.425781 54.136719 43.425781 54.136719 42.878906 L 54.136719 40.574219 C 54.136719 39.285156 55.035156 38.582031 55.816406 38.582031 C 56.617188 38.582031 56.753906 39.246094 56.753906 39.96875 L 56.753906 42.878906 C 56.753906 43.425781 56.617188 43.425781 55.777344 43.425781 L 55.777344 43.816406 C 56.207031 43.796875 56.851562 43.777344 57.183594 43.777344 C 57.496094 43.777344 58.160156 43.796875 58.570312 43.816406 L 58.570312 43.425781 C 57.925781 43.425781 57.613281 43.425781 57.613281 43.054688 L 57.613281 40.671875 C 57.613281 39.597656 57.613281 39.226562 57.222656 38.777344 C 57.046875 38.5625 56.636719 38.308594 55.914062 38.308594 C 54.996094 38.308594 54.410156 38.835938 54.058594 39.617188 L 54.058594 38.308594 L 52.300781 38.445312 L 52.300781 38.835938 C 53.179688 38.835938 53.277344 38.914062 53.277344 39.539062 Z M 53.277344 39.539062 "/>
<path style=" stroke:none;fill-rule:nonzero;fill:rgb(0%,0%,0%);fill-opacity:1;" d="M 65.070312 40.046875 C 65.148438 39.734375 65.441406 38.582031 66.300781 38.582031 C 66.359375 38.582031 66.671875 38.582031 66.925781 38.738281 C 66.574219 38.816406 66.339844 39.109375 66.339844 39.421875 C 66.339844 39.617188 66.476562 39.851562 66.808594 39.851562 C 67.082031 39.851562 67.472656 39.636719 67.472656 39.128906 C 67.472656 38.484375 66.75 38.308594 66.320312 38.308594 C 65.597656 38.308594 65.167969 38.972656 65.011719 39.246094 C 64.699219 38.425781 64.035156 38.308594 63.664062 38.308594 C 62.375 38.308594 61.652344 39.910156 61.652344 40.222656 C 61.652344 40.359375 61.789062 40.359375 61.808594 40.359375 C 61.90625 40.359375 61.945312 40.320312 61.964844 40.222656 C 62.394531 38.894531 63.214844 38.582031 63.644531 38.582031 C 63.878906 38.582031 64.308594 38.699219 64.308594 39.421875 C 64.308594 39.8125 64.09375 40.632812 63.644531 42.390625 C 63.449219 43.152344 63 43.679688 62.453125 43.679688 C 62.375 43.679688 62.101562 43.679688 61.828125 43.523438 C 62.140625 43.445312 62.414062 43.191406 62.414062 42.839844 C 62.414062 42.507812 62.140625 42.410156 61.964844 42.410156 C 61.574219 42.410156 61.28125 42.722656 61.28125 43.132812 C 61.28125 43.699219 61.886719 43.953125 62.433594 43.953125 C 63.273438 43.953125 63.722656 43.074219 63.742188 43.015625 C 63.898438 43.464844 64.347656 43.953125 65.089844 43.953125 C 66.378906 43.953125 67.082031 42.351562 67.082031 42.039062 C 67.082031 41.902344 66.984375 41.902344 66.945312 41.902344 C 66.828125 41.902344 66.808594 41.960938 66.769531 42.039062 C 66.359375 43.386719 65.519531 43.679688 65.128906 43.679688 C 64.640625 43.679688 64.445312 43.289062 64.445312 42.859375 C 64.445312 42.585938 64.503906 42.3125 64.640625 41.765625 Z M 65.070312 40.046875 "/>
<path style=" stroke:none;fill-rule:nonzero;fill:rgb(0%,0%,0%);fill-opacity:1;" d="M 79.757812 47.175781 L 84.71875 47.175781 C 84.972656 47.175781 85.285156 47.175781 85.285156 46.84375 C 85.285156 46.511719 84.972656 46.511719 84.71875 46.511719 L 79.757812 46.511719 L 79.757812 41.570312 C 79.757812 41.316406 79.757812 40.984375 79.445312 40.984375 C 79.09375 40.984375 79.09375 41.296875 79.09375 41.570312 L 79.09375 46.511719 L 74.152344 46.511719 C 73.898438 46.511719 73.585938 46.511719 73.585938 46.84375 C 73.585938 47.175781 73.878906 47.175781 74.152344 47.175781 L 79.09375 47.175781 L 79.09375 52.117188 C 79.09375 52.371094 79.09375 52.703125 79.425781 52.703125 C 79.757812 52.703125 79.757812 52.390625 79.757812 52.117188 Z M 79.757812 47.175781 "/>
<path style=" stroke:none;fill-rule:nonzero;fill:rgb(0%,0%,0%);fill-opacity:1;" d="M 95.980469 55.671875 C 95.980469 55.613281 95.980469 55.574219 95.6875 55.28125 C 93.890625 53.464844 92.894531 50.515625 92.894531 46.84375 C 92.894531 43.367188 93.734375 40.378906 95.804688 38.269531 C 95.980469 38.09375 95.980469 38.074219 95.980469 38.015625 C 95.980469 37.898438 95.902344 37.878906 95.824219 37.878906 C 95.589844 37.878906 94.125 39.167969 93.246094 40.925781 C 92.328125 42.722656 91.917969 44.65625 91.917969 46.84375 C 91.917969 48.445312 92.171875 50.574219 93.109375 52.507812 C 94.164062 54.65625 95.628906 55.808594 95.824219 55.808594 C 95.902344 55.808594 95.980469 55.789062 95.980469 55.671875 Z M 95.980469 55.671875 "/>
<path style=" stroke:none;fill-rule:nonzero;fill:rgb(0%,0%,0%);fill-opacity:1;" d="M 102.9375 43.738281 C 102.9375 43.40625 102.9375 43.328125 102.761719 43.328125 C 102.625 43.328125 102.273438 43.71875 102.15625 43.875 C 101.589844 43.425781 101.042969 43.328125 100.457031 43.328125 C 98.289062 43.328125 97.644531 44.5 97.644531 45.496094 C 97.644531 45.691406 97.644531 46.316406 98.328125 46.941406 C 98.914062 47.449219 99.519531 47.566406 100.339844 47.722656 C 101.316406 47.917969 101.550781 47.976562 102 48.347656 C 102.332031 48.601562 102.566406 49.011719 102.566406 49.5 C 102.566406 50.28125 102.117188 51.140625 100.535156 51.140625 C 99.363281 51.140625 98.484375 50.457031 98.09375 48.660156 C 98.035156 48.347656 98.035156 48.328125 98.015625 48.308594 C 97.976562 48.230469 97.898438 48.230469 97.839844 48.230469 C 97.644531 48.230469 97.644531 48.328125 97.644531 48.640625 L 97.644531 51.082031 C 97.644531 51.414062 97.644531 51.492188 97.820312 51.492188 C 97.917969 51.492188 97.9375 51.472656 98.25 51.101562 C 98.328125 50.984375 98.328125 50.945312 98.601562 50.652344 C 99.285156 51.492188 100.242188 51.492188 100.554688 51.492188 C 102.429688 51.492188 103.367188 50.457031 103.367188 49.03125 C 103.367188 48.074219 102.78125 47.488281 102.625 47.332031 C 101.980469 46.785156 101.492188 46.667969 100.300781 46.453125 C 99.773438 46.355469 98.464844 46.101562 98.464844 45.027344 C 98.464844 44.460938 98.835938 43.640625 100.457031 43.640625 C 102.410156 43.640625 102.507812 45.300781 102.546875 45.867188 C 102.566406 46.003906 102.683594 46.003906 102.742188 46.003906 C 102.9375 46.003906 102.9375 45.925781 102.9375 45.59375 Z M 102.9375 43.738281 "/>
<path style=" stroke:none;fill-rule:nonzero;fill:rgb(0%,0%,0%);fill-opacity:1;" d="M 107.085938 40.28125 C 107.085938 39.8125 106.695312 39.402344 106.207031 39.402344 C 105.738281 39.402344 105.347656 39.773438 105.347656 40.261719 C 105.347656 40.789062 105.777344 41.140625 106.207031 41.140625 C 106.753906 41.140625 107.085938 40.671875 107.085938 40.28125 Z M 104.605469 43.601562 L 104.605469 44.128906 C 105.757812 44.128906 105.914062 44.226562 105.914062 45.105469 L 105.914062 49.988281 C 105.914062 50.789062 105.71875 50.789062 104.546875 50.789062 L 104.546875 51.316406 C 105.054688 51.277344 105.914062 51.277344 106.441406 51.277344 C 106.636719 51.277344 107.671875 51.277344 108.277344 51.316406 L 108.277344 50.789062 C 107.125 50.789062 107.046875 50.710938 107.046875 50.007812 L 107.046875 43.40625 Z M 104.605469 43.601562 "/>
<path style=" stroke:none;fill-rule:nonzero;fill:rgb(0%,0%,0%);fill-opacity:1;" d="M 116.898438 46.960938 C 116.898438 45.300781 116.898438 44.792969 116.46875 44.207031 C 115.960938 43.523438 115.121094 43.40625 114.496094 43.40625 C 112.757812 43.40625 112.074219 44.890625 111.9375 45.261719 L 111.917969 45.261719 L 111.917969 43.40625 L 109.476562 43.601562 L 109.476562 44.128906 C 110.707031 44.128906 110.84375 44.246094 110.84375 45.125 L 110.84375 49.988281 C 110.84375 50.789062 110.648438 50.789062 109.476562 50.789062 L 109.476562 51.316406 C 109.945312 51.277344 110.921875 51.277344 111.429688 51.277344 C 111.9375 51.277344 112.914062 51.277344 113.382812 51.316406 L 113.382812 50.789062 C 112.230469 50.789062 112.015625 50.789062 112.015625 49.988281 L 112.015625 46.648438 C 112.015625 44.773438 113.246094 43.777344 114.359375 43.777344 C 115.472656 43.777344 115.726562 44.675781 115.726562 45.769531 L 115.726562 49.988281 C 115.726562 50.789062 115.53125 50.789062 114.359375 50.789062 L 114.359375 51.316406 C 114.828125 51.277344 115.804688 51.277344 116.292969 51.277344 C 116.820312 51.277344 117.777344 51.277344 118.246094 51.316406 L 118.246094 50.789062 C 117.347656 50.789062 116.898438 50.789062 116.898438 50.261719 Z M 116.898438 46.960938 "/>
<path style=" stroke:none;fill-rule:nonzero;fill:rgb(0%,0%,0%);fill-opacity:1;" d="M 130.15625 43.992188 C 129.589844 44.109375 129.375 44.539062 129.375 44.871094 C 129.375 45.300781 129.707031 45.457031 129.960938 45.457031 C 130.507812 45.457031 130.878906 44.988281 130.878906 44.5 C 130.878906 43.757812 130.019531 43.40625 129.257812 43.40625 C 128.164062 43.40625 127.558594 44.480469 127.402344 44.832031 C 126.992188 43.484375 125.878906 43.40625 125.546875 43.40625 C 123.730469 43.40625 122.753906 45.75 122.753906 46.160156 C 122.753906 46.21875 122.832031 46.316406 122.949219 46.316406 C 123.085938 46.316406 123.125 46.199219 123.164062 46.140625 C 123.769531 44.148438 124.980469 43.777344 125.488281 43.777344 C 126.308594 43.777344 126.464844 44.519531 126.464844 44.949219 C 126.464844 45.339844 126.367188 45.75 126.132812 46.609375 L 125.527344 49.070312 C 125.273438 50.144531 124.746094 51.140625 123.789062 51.140625 C 123.710938 51.140625 123.261719 51.140625 122.871094 50.90625 C 123.515625 50.769531 123.671875 50.242188 123.671875 50.027344 C 123.671875 49.675781 123.398438 49.460938 123.066406 49.460938 C 122.636719 49.460938 122.167969 49.832031 122.167969 50.398438 C 122.167969 51.160156 123.007812 51.492188 123.769531 51.492188 C 124.628906 51.492188 125.253906 50.808594 125.625 50.085938 C 125.917969 51.140625 126.796875 51.492188 127.460938 51.492188 C 129.296875 51.492188 130.273438 49.148438 130.273438 48.757812 C 130.273438 48.660156 130.195312 48.582031 130.078125 48.582031 C 129.921875 48.582031 129.902344 48.679688 129.863281 48.816406 C 129.375 50.398438 128.320312 51.140625 127.519531 51.140625 C 126.894531 51.140625 126.5625 50.671875 126.5625 49.929688 C 126.5625 49.539062 126.621094 49.246094 126.914062 48.074219 L 127.539062 45.632812 C 127.8125 44.558594 128.417969 43.777344 129.238281 43.777344 C 129.277344 43.777344 129.785156 43.777344 130.15625 43.992188 Z M 130.15625 43.992188 "/>
<path style=" stroke:none;fill-rule:nonzero;fill:rgb(0%,0%,0%);fill-opacity:1;" d="M 136.765625 46.84375 C 136.765625 45.496094 136.589844 43.269531 135.574219 41.179688 C 134.519531 39.03125 133.054688 37.878906 132.859375 37.878906 C 132.78125 37.878906 132.683594 37.898438 132.683594 38.015625 C 132.683594 38.074219 132.683594 38.09375 132.996094 38.40625 C 134.792969 40.222656 135.789062 43.171875 135.789062 46.84375 C 135.789062 50.320312 134.949219 53.308594 132.878906 55.417969 C 132.683594 55.574219 132.683594 55.613281 132.683594 55.671875 C 132.683594 55.789062 132.78125 55.808594 132.859375 55.808594 C 133.09375 55.808594 134.558594 54.519531 135.4375 52.761719 C 136.355469 50.945312 136.765625 49.011719 136.765625 46.84375 Z M 136.765625 46.84375 "/>
<path style=" stroke:none;fill-rule:nonzero;fill:rgb(0%,0%,0%);fill-opacity:1;" d="M 139.925781 39.902344 C 139.925781 37.871094 140.941406 37.34375 141.605469 37.34375 C 141.722656 37.34375 142.503906 37.363281 142.933594 37.8125 C 142.425781 37.851562 142.347656 38.222656 142.347656 38.378906 C 142.347656 38.710938 142.582031 38.945312 142.914062 38.945312 C 143.246094 38.945312 143.5 38.75 143.5 38.359375 C 143.5 37.519531 142.542969 37.03125 141.585938 37.03125 C 140.023438 37.03125 138.890625 38.378906 138.890625 39.921875 C 138.890625 41.523438 140.121094 42.753906 141.566406 42.753906 C 143.226562 42.753906 143.636719 41.25 143.636719 41.132812 C 143.636719 41.015625 143.5 41.015625 143.460938 41.015625 C 143.363281 41.015625 143.324219 41.054688 143.304688 41.132812 C 142.953125 42.285156 142.132812 42.441406 141.683594 42.441406 C 141.019531 42.441406 139.925781 41.914062 139.925781 39.902344 Z M 139.925781 39.902344 "/>
<path style=" stroke:none;fill-rule:nonzero;fill:rgb(0%,0%,0%);fill-opacity:1;" d="M 149.867188 39.941406 C 149.867188 38.359375 148.636719 37.03125 147.132812 37.03125 C 145.570312 37.03125 144.359375 38.398438 144.359375 39.941406 C 144.359375 41.5625 145.648438 42.753906 147.113281 42.753906 C 148.617188 42.753906 149.867188 41.523438 149.867188 39.941406 Z M 147.132812 42.441406 C 146.585938 42.441406 146.039062 42.1875 145.707031 41.601562 C 145.394531 41.054688 145.394531 40.292969 145.394531 39.84375 C 145.394531 39.355469 145.394531 38.691406 145.6875 38.144531 C 146.019531 37.578125 146.605469 37.304688 147.113281 37.304688 C 147.660156 37.304688 148.1875 37.578125 148.519531 38.125 C 148.851562 38.652344 148.851562 39.375 148.851562 39.84375 C 148.851562 40.292969 148.851562 40.976562 148.578125 41.523438 C 148.285156 42.089844 147.738281 42.441406 147.132812 42.441406 Z M 147.132812 42.441406 "/>
<path style=" stroke:none;fill-rule:nonzero;fill:rgb(0%,0%,0%);fill-opacity:1;" d="M 152.90625 40.195312 C 153.179688 40.253906 154.195312 40.449219 154.195312 41.347656 C 154.195312 41.972656 153.765625 42.480469 152.789062 42.480469 C 151.734375 42.480469 151.285156 41.777344 151.050781 40.703125 C 151.011719 40.546875 151.011719 40.507812 150.875 40.507812 C 150.71875 40.507812 150.71875 40.585938 150.71875 40.800781 L 150.71875 42.460938 C 150.71875 42.675781 150.71875 42.753906 150.855469 42.753906 C 150.914062 42.753906 150.933594 42.734375 151.167969 42.5 C 151.1875 42.480469 151.1875 42.460938 151.421875 42.226562 C 151.96875 42.734375 152.535156 42.753906 152.789062 42.753906 C 154.214844 42.753906 154.800781 41.914062 154.800781 41.015625 C 154.800781 40.371094 154.429688 39.980469 154.273438 39.84375 C 153.863281 39.433594 153.375 39.335938 152.847656 39.238281 C 152.144531 39.101562 151.324219 38.945312 151.324219 38.222656 C 151.324219 37.773438 151.636719 37.265625 152.710938 37.265625 C 154.078125 37.265625 154.15625 38.398438 154.175781 38.769531 C 154.175781 38.886719 154.292969 38.886719 154.3125 38.886719 C 154.488281 38.886719 154.488281 38.828125 154.488281 38.59375 L 154.488281 37.324219 C 154.488281 37.128906 154.488281 37.03125 154.351562 37.03125 C 154.292969 37.03125 154.253906 37.03125 154.097656 37.1875 C 154.058594 37.226562 153.941406 37.34375 153.882812 37.382812 C 153.414062 37.03125 152.90625 37.03125 152.710938 37.03125 C 151.1875 37.03125 150.71875 37.871094 150.71875 38.574219 C 150.71875 39.003906 150.914062 39.355469 151.246094 39.628906 C 151.65625 39.941406 152.007812 40.019531 152.90625 40.195312 Z M 152.90625 40.195312 "/>
<path style=" stroke:none;fill-rule:nonzero;fill:rgb(0%,0%,0%);fill-opacity:1;" d="M 161.371094 38.847656 C 161.449219 38.535156 161.742188 37.382812 162.601562 37.382812 C 162.660156 37.382812 162.972656 37.382812 163.226562 37.539062 C 162.875 37.617188 162.640625 37.910156 162.640625 38.222656 C 162.640625 38.417969 162.777344 38.652344 163.109375 38.652344 C 163.382812 38.652344 163.773438 38.4375 163.773438 37.929688 C 163.773438 37.285156 163.050781 37.109375 162.621094 37.109375 C 161.898438 37.109375 161.46875 37.773438 161.3125 38.046875 C 161 37.226562 160.335938 37.109375 159.964844 37.109375 C 158.675781 37.109375 157.953125 38.710938 157.953125 39.023438 C 157.953125 39.160156 158.089844 39.160156 158.109375 39.160156 C 158.207031 39.160156 158.246094 39.121094 158.265625 39.023438 C 158.695312 37.695312 159.515625 37.382812 159.945312 37.382812 C 160.179688 37.382812 160.609375 37.5 160.609375 38.222656 C 160.609375 38.613281 160.394531 39.433594 159.945312 41.191406 C 159.75 41.953125 159.300781 42.480469 158.753906 42.480469 C 158.675781 42.480469 158.402344 42.480469 158.128906 42.324219 C 158.441406 42.246094 158.714844 41.992188 158.714844 41.640625 C 158.714844 41.308594 158.441406 41.210938 158.265625 41.210938 C 157.875 41.210938 157.582031 41.523438 157.582031 41.933594 C 157.582031 42.5 158.1875 42.753906 158.734375 42.753906 C 159.574219 42.753906 160.023438 41.875 160.042969 41.816406 C 160.199219 42.265625 160.648438 42.753906 161.390625 42.753906 C 162.679688 42.753906 163.382812 41.152344 163.382812 40.839844 C 163.382812 40.703125 163.285156 40.703125 163.246094 40.703125 C 163.128906 40.703125 163.109375 40.761719 163.070312 40.839844 C 162.660156 42.1875 161.820312 42.480469 161.429688 42.480469 C 160.941406 42.480469 160.746094 42.089844 160.746094 41.660156 C 160.746094 41.386719 160.804688 41.113281 160.941406 40.566406 Z M 161.371094 38.847656 "/>
</g>
</svg>
