<?xml version="1.0" standalone="no"?>
<!DOCTYPE svg PUBLIC "-//W3C//DTD SVG 20010904//EN"
 "http://www.w3.org/TR/2001/REC-SVG-20010904/DTD/svg10.dtd">
<svg version="1.0" xmlns="http://www.w3.org/2000/svg"
 width="129.820048pt" height="94.546301pt" viewBox="0 0 129.820048 94.546301"
 preserveAspectRatio="xMidYMid meet">
<metadata>
Created by potrace 1.10, written by Peter Selinger 2001-2011
</metadata>
<g transform="translate(-4.088534,102.960000) scale(0.024000,-0.024000)"
fill="#000000" stroke="none">
<g>
<path d="M892 4238 c-45 -80 -56 -123 -47 -187 14 -98 9 -121 -60 -281 -70
-159 -91 -240 -63 -240 10 0 13 8 10 28 -2 18 8 54 28 98 18 38 50 119 71 179
20 61 39 110 42 110 2 0 25 -26 51 -58 l47 -58 -30 -35 c-34 -38 -43 -81 -15
-70 9 3 20 6 24 6 14 0 80 60 80 73 0 17 50 77 65 77 7 0 27 -25 44 -55 32
-57 59 -79 85 -69 24 9 19 32 -6 36 -35 5 -68 63 -68 119 0 55 -7 59 -39 25
-12 -13 -42 -37 -66 -55 l-44 -31 -41 42 c-46 48 -83 118 -75 140 4 9 -1 18
-11 22 -13 5 -15 14 -10 41 8 43 31 98 48 117 7 7 21 28 31 46 18 31 18 32 -2
32 -13 0 -29 -17 -49 -52z"/>
</g>
<g>
<path d="M1764 4078 c4 -23 11 -90 17 -148 10 -111 32 -173 62 -178 17 -3 17
-1 -3 38 -17 33 -24 72 -30 166 -9 121 -20 164 -42 164 -7 0 -8 -14 -4 -42z"/>
</g>
<g>
<path d="M1100 4088 c0 -7 11 -26 25 -43 18 -22 24 -26 25 -13 0 27 -22 68
-37 68 -7 0 -13 -6 -13 -12z"/>
</g>
<g>
<path d="M1610 4070 c0 -20 25 -38 36 -27 8 7 -15 47 -26 47 -6 0 -10 -9 -10
-20z"/>
</g>
<g>
<path d="M2351 4049 c-25 -100 -28 -103 -118 -130 -40 -11 -43 -10 -75 16 -27
23 -34 25 -36 12 -2 -9 12 -36 31 -59 19 -24 42 -61 51 -82 23 -54 42 -36 26
23 -14 52 -6 64 57 85 52 18 58 16 68 -21 3 -15 11 -34 17 -40 14 -17 50 -16
74 2 30 23 34 19 34 -37 0 -72 10 -86 47 -68 15 7 31 13 35 12 3 -1 9 12 13
28 10 47 25 24 25 -39 0 -116 -71 -311 -127 -348 -54 -36 -46 15 34 212 58
144 59 146 33 105 -28 -42 -115 -236 -131 -290 -14 -44 -5 -90 16 -90 9 0 33
12 55 26 78 52 157 275 148 419 -6 92 -20 101 -68 45 -44 -50 -45 -49 -54 50
-7 72 -21 96 -40 66 -6 -10 -22 -32 -35 -48 -21 -26 -26 -28 -39 -14 -15 15
-17 33 -12 129 4 75 -14 97 -29 36z"/>
</g>
<g>
<path d="M1241 3953 c1 -59 23 -146 37 -151 7 -2 22 19 37 52 14 31 27 56 29
56 3 0 12 -26 21 -57 9 -32 22 -64 27 -70 19 -23 56 -15 79 18 l22 31 24 -31
c31 -39 51 -39 88 -1 34 35 45 38 45 10 0 -11 13 -34 29 -52 26 -29 30 -31 36
-15 5 11 1 25 -9 36 -9 9 -24 50 -33 89 -10 39 -22 72 -27 74 -5 2 -14 -16
-21 -39 -7 -22 -23 -56 -35 -74 l-23 -32 -18 22 c-9 11 -20 39 -24 60 -3 22
-12 47 -19 57 -12 16 -15 12 -30 -38 -9 -31 -25 -66 -35 -79 l-20 -24 -15 36
c-8 20 -20 57 -27 82 -16 66 -34 78 -56 37 -10 -17 -23 -39 -30 -48 -11 -15
-12 -14 -13 10 0 35 -17 78 -30 78 -5 0 -10 -17 -9 -37z"/>
</g>
<g>
<path d="M1941 3944 c-23 -29 -45 -115 -39 -158 5 -47 31 -55 80 -27 23 13 43
20 45 15 12 -36 46 -74 64 -74 21 0 21 1 6 18 -22 25 -47 97 -47 138 0 41 -45
114 -71 114 -9 0 -27 -12 -38 -26z m59 -45 c6 -11 9 -33 5 -49 -8 -35 -51 -84
-66 -74 -25 15 12 144 41 144 5 0 14 -9 20 -21z"/>
</g>
<g>
<path d="M2606 3218 c-3 -13 -9 -69 -13 -126 -5 -89 -8 -102 -22 -96 -36 14
-47 14 -79 -6 -65 -40 -122 -171 -74 -170 37 1 162 83 162 107 0 7 4 13 9 13
5 0 15 -25 21 -55 11 -51 42 -106 53 -95 3 3 -3 32 -14 64 -18 51 -20 80 -17
212 2 103 -1 156 -8 164 -8 8 -13 5 -18 -12z m-73 -288 c-16 -28 -71 -70 -91
-70 -20 0 12 53 54 89 42 37 64 26 37 -19z"/>
</g>
<g>
<path d="M2843 3164 c8 -46 15 -54 31 -31 17 22 31 22 56 -3 26 -26 15 -50
-40 -86 -22 -15 -40 -31 -40 -36 0 -5 25 -34 57 -64 31 -30 53 -57 49 -61 -8
-8 -119 -32 -127 -27 -3 2 -8 67 -11 145 -4 114 -9 144 -22 157 -16 16 -17 8
-10 -124 7 -145 0 -184 -31 -184 -29 0 -15 -18 18 -23 47 -7 178 12 205 29 32
21 28 38 -28 96 l-50 52 29 30 c38 41 53 73 46 96 -8 24 -83 70 -115 70 -20 0
-22 -3 -17 -36z"/>
</g>
<g>
<path d="M1907 3170 c-3 -8 -13 -84 -21 -168 -8 -84 -16 -155 -18 -158 -3 -2
-42 -11 -86 -20 -59 -12 -82 -21 -82 -32 0 -12 8 -13 43 -7 114 20 134 22 165
18 37 -6 41 2 11 26 -20 16 -20 20 -9 141 12 126 10 228 -3 200z"/>
</g>
<g>
<path d="M2200 2901 c0 -20 27 -48 37 -37 9 8 -14 56 -27 56 -5 0 -10 -8 -10
-19z"/>
</g>
<g>
<path d="M3480 2829 c-94 -32 -180 -71 -180 -80 0 -18 41 -8 139 31 54 22 108
40 119 40 18 0 19 -11 25 -312 5 -265 21 -495 42 -610 7 -39 -9 -35 -73 17
-30 25 -61 45 -68 45 -24 0 -15 -27 19 -59 64 -62 154 -141 160 -141 4 0 7 13
7 28 0 15 14 50 32 78 38 60 101 194 94 201 -2 3 -30 -34 -61 -81 -61 -92 -70
-102 -80 -86 -3 5 -15 96 -26 202 -16 155 -20 246 -17 458 2 146 -1 271 -5
278 -11 17 -63 14 -127 -9z"/>
</g>
<g>
<path d="M1843 2733 c-9 -3 -13 -35 -13 -111 0 -59 -5 -156 -11 -215 -6 -59
-8 -111 -5 -115 12 -11 24 20 31 80 l7 58 66 0 c80 0 116 16 120 51 2 21 -6
34 -39 59 l-41 34 6 53 c8 67 -3 89 -52 103 -40 11 -50 11 -69 3z m83 -108
c-7 -67 -2 -77 50 -112 13 -8 24 -21 24 -28 0 -29 -106 -29 -131 1 -16 19 -8
186 10 207 10 13 17 14 33 6 19 -10 20 -17 14 -74z"/>
</g>
<g>
<path d="M2580 2629 c-88 -9 -133 -24 -127 -42 5 -14 29 -13 110 4 35 8 61 9
67 3 21 -22 -5 -64 -80 -132 -97 -89 -135 -162 -84 -162 24 0 66 25 125 74
l54 45 26 -59 c27 -58 68 -93 97 -83 19 7 14 20 -11 27 -13 3 -33 24 -47 48
-21 35 -25 56 -25 118 0 41 4 88 8 104 8 29 22 31 71 11 29 -12 15 17 -15 31
-38 18 -88 22 -169 13z m1 -223 c-41 -42 -101 -83 -101 -70 0 16 54 77 93 105
56 40 61 19 8 -35z"/>
</g>
<g>
<path d="M2981 2561 c-11 -11 -27 -34 -36 -50 -16 -32 -35 -41 -35 -18 0 16
-52 67 -68 67 -17 0 -15 -37 3 -43 8 -4 26 -24 41 -46 l26 -40 -56 -111 c-30
-60 -51 -110 -47 -110 15 0 55 52 86 113 17 31 34 57 38 57 5 0 23 -16 41 -35
38 -40 69 -49 42 -12 -45 63 -67 108 -61 126 10 33 46 71 66 71 15 0 20 6 17
22 -4 30 -32 34 -57 9z"/>
</g>
<g>
<path d="M5456 1731 c-12 -13 -16 -32 -14 -62 4 -53 28 -67 28 -16 0 37 21 67
46 67 30 0 36 -50 30 -250 -17 -492 -78 -788 -183 -880 -45 -40 -118 -76 -171
-85 -48 -8 -47 -25 2 -25 141 0 262 119 310 306 49 190 96 860 66 938 -8 22
-15 26 -53 26 -30 0 -49 -6 -61 -19z"/>
</g>
<g>
<path d="M755 1732 c-76 -7 -134 -24 -140 -40 -4 -9 -11 -197 -15 -417 -4
-220 -14 -470 -21 -555 -13 -171 -8 -250 21 -298 43 -70 132 -91 219 -52 24
11 42 22 40 25 -3 2 -33 0 -68 -5 -82 -11 -113 -5 -148 32 l-28 29 0 177 c0
97 5 374 9 615 8 386 11 440 25 445 9 4 50 7 91 7 l75 0 14 -32 c19 -42 31
-42 31 0 0 52 -38 76 -105 69z"/>
</g>
<g>
<path d="M1522 1654 c-17 -12 -22 -25 -22 -60 0 -33 4 -44 15 -44 11 0 14 7 9
25 -4 18 -1 32 11 45 22 24 38 25 59 5 21 -21 5 -62 -46 -119 -46 -53 -51 -49
86 -80 84 -20 91 -23 94 -47 2 -14 -15 -72 -38 -129 -22 -56 -39 -108 -37
-114 2 -6 26 33 53 87 27 53 52 97 57 97 5 0 22 -11 39 -25 54 -45 59 -32 12
32 -13 17 -24 40 -24 51 0 23 22 44 41 40 10 -2 13 6 12 26 -4 55 -26 53 -67
-6 -15 -21 -15 -21 -51 11 -39 34 -47 36 -74 20 -20 -13 -71 -4 -71 12 0 6 12
26 26 44 64 85 -2 187 -84 129z"/>
</g>
<g>
<path d="M4285 1596 c-42 -100 -60 -380 -30 -467 17 -47 50 -97 59 -88 3 3 -5
25 -17 50 -20 41 -22 57 -21 214 2 180 10 231 37 229 13 -1 17 7 17 31 0 70
-23 85 -45 31z"/>
</g>
<g>
<path d="M3604 1583 c3 -21 10 -86 16 -144 6 -59 17 -129 25 -156 17 -57 49
-92 70 -78 7 6 26 20 43 32 l30 23 26 -35 c55 -72 112 -31 104 76 -3 48 -9 65
-31 87 -25 24 -28 25 -43 10 -9 -9 -14 -24 -11 -32 7 -18 27 -22 27 -6 0 22
19 8 29 -21 15 -43 -2 -109 -28 -109 -23 0 -40 39 -50 114 -11 81 -27 91 -35
22 -8 -62 -42 -121 -71 -121 -27 0 -43 61 -56 210 -13 151 -16 165 -35 165
-13 0 -15 -8 -10 -37z"/>
</g>
<g>
<path d="M4780 1576 c0 -22 47 -66 72 -66 20 0 19 3 -17 40 -41 42 -55 49 -55
26z"/>
</g>
<g>
<path d="M2990 1564 c0 -21 54 -74 75 -74 19 0 14 9 -34 63 -28 31 -41 34 -41
11z"/>
</g>
<g>
<path d="M5270 1560 c0 -11 11 -26 24 -35 46 -30 61 -87 61 -231 l0 -131 -38
-74 c-42 -84 -46 -100 -16 -73 88 79 124 298 74 445 -27 80 -105 154 -105 99z"/>
</g>
<g>
<path d="M2745 1512 c-44 -38 -75 -84 -75 -113 0 -23 12 -42 51 -80 28 -27 55
-49 60 -49 23 0 4 -19 -56 -58 -36 -23 -65 -48 -65 -57 0 -21 13 -19 83 16 67
33 107 65 107 85 0 13 38 39 45 32 2 -2 10 -22 17 -43 16 -50 38 -55 89 -19
l39 27 33 -37 32 -38 29 23 c20 16 31 19 34 11 6 -19 40 -58 45 -52 9 9 -35
181 -46 177 -6 -2 -19 -27 -30 -55 -11 -29 -25 -51 -31 -49 -6 1 -22 26 -35
55 -14 29 -28 52 -32 52 -4 0 -12 -15 -19 -34 -13 -41 -44 -71 -65 -63 -12 5
-15 24 -16 84 0 76 0 77 -17 53 -31 -47 -80 -90 -101 -90 -27 0 -121 86 -121
111 0 25 68 99 90 99 10 0 21 -10 25 -22 7 -22 7 -22 12 -3 3 12 -3 26 -17 37
-27 22 -39 22 -65 0z"/>
</g>
<g>
<path d="M992 1493 c-13 -32 -8 -226 7 -261 25 -60 81 -69 134 -23 l33 30 30
-24 c36 -30 45 -30 77 -5 50 39 45 135 -10 200 -51 61 -103 24 -103 -74 0 -43
-4 -53 -39 -87 -21 -22 -46 -39 -55 -39 -24 0 -47 43 -53 103 -5 50 -4 55 16
62 17 5 21 14 21 48 0 64 -40 112 -58 70z m251 -102 c13 -16 27 -45 31 -64 12
-65 -31 -123 -60 -82 -16 21 -20 175 -5 175 5 0 20 -13 34 -29z"/>
</g>
<g>
<path d="M4487 1459 c-35 -26 -57 -69 -57 -109 0 -30 16 -52 60 -82 l25 -16
-30 -11 c-16 -7 -36 -14 -42 -16 -7 -2 -13 -10 -13 -16 0 -8 13 -10 41 -5 47
7 124 44 114 54 -3 4 -32 20 -63 37 -73 38 -78 61 -26 113 37 37 37 37 47 14
13 -29 27 -28 27 2 0 59 -32 73 -83 35z"/>
</g>
<g>
<path d="M1380 1418 c-40 -55 -40 -96 1 -143 l31 -35 -46 0 c-45 0 -61 -12
-30 -24 27 -10 64 -7 95 10 l30 15 -40 44 c-45 49 -48 60 -25 93 19 27 34 28
34 3 0 -11 5 -23 10 -26 13 -8 13 61 0 86 -15 28 -26 24 -60 -23z"/>
</g>
<g>
<path d="M3360 1414 c-20 -32 -24 -34 -39 -20 -39 35 -58 3 -21 -34 19 -19 20
-28 14 -120 -4 -55 -4 -100 -1 -100 3 0 13 36 23 81 l17 80 58 -57 c32 -32 61
-56 64 -53 3 3 -13 30 -36 60 -60 80 -73 107 -58 125 6 8 18 14 25 14 17 0 18
32 2 48 -18 18 -24 15 -48 -24z"/>
</g>
<g>
<path d="M5060 1420 c0 -33 14 -40 24 -13 6 15 8 15 23 0 15 -15 15 -23 -2
-110 -10 -52 -15 -101 -12 -110 11 -30 27 -18 27 22 0 38 16 99 31 115 4 5 21
-18 37 -51 29 -56 62 -97 62 -75 0 5 -16 44 -35 86 -19 43 -35 85 -35 95 0 22
29 36 44 21 19 -19 25 -10 15 20 -13 35 -38 39 -64 10 -18 -20 -18 -20 -50 0
-47 29 -65 26 -65 -10z"/>
</g>
<g>
<path d="M4000 1398 c-11 -18 -19 -44 -18 -58 3 -21 8 -25 38 -25 33 0 35 -2
43 -45 4 -25 7 -92 5 -150 -4 -124 -24 -171 -84 -190 -32 -11 -51 -10 -109 7
-19 5 -19 4 1 -17 50 -52 149 -30 195 42 19 31 20 45 16 223 -4 200 -13 245
-49 245 -10 0 -27 -15 -38 -32z"/>
</g>
<g>
<path d="M188 1393 c-21 -5 -24 -29 -5 -36 7 -2 33 -1 59 3 26 3 70 3 100 -1
85 -12 102 -11 89 5 -21 26 -182 45 -243 29z"/>
</g>
<g>
<path d="M2310 1336 c-6 -30 -16 -59 -23 -64 -7 -6 -50 -16 -97 -22 -99 -13
-115 -23 -81 -51 21 -17 26 -18 40 -5 9 8 38 20 65 27 44 11 50 10 62 -6 8
-11 14 -42 14 -69 0 -28 3 -68 6 -88 12 -71 24 -38 24 66 0 120 -4 115 98 117
37 1 78 4 92 9 l25 7 -25 7 c-14 3 -56 7 -95 8 -77 3 -75 1 -64 83 3 21 0 30
-13 33 -13 2 -19 -9 -28 -52z"/>
</g>
<g>
<path d="M4796 1338 c-13 -29 -36 -64 -50 -78 -27 -25 -28 -25 -42 -5 -11 15
-13 34 -8 74 5 43 4 53 -7 49 -10 -3 -15 -25 -17 -71 -5 -113 27 -135 98 -71
22 20 42 35 43 33 1 -2 10 -21 20 -41 19 -42 35 -46 78 -21 28 17 29 16 55 -8
l26 -24 -7 70 c-11 103 -22 108 -67 26 -20 -36 -46 -50 -58 -30 -5 7 -12 42
-16 76 -3 35 -10 66 -15 69 -5 3 -19 -19 -33 -48z"/>
</g>
<g>
<path d="M182 1258 c5 -14 184 -24 228 -12 47 12 -8 23 -123 23 -83 1 -108 -2
-105 -11z"/>
</g>
<g>
<path d="M1030 1044 c0 -7 8 -15 18 -19 20 -8 360 -6 512 4 l105 7 -65 7
c-116 13 -570 13 -570 1z"/>
</g>
<g>
<path d="M1320 921 c0 -26 27 -48 42 -33 6 6 24 8 41 5 40 -8 28 14 -19 33
-45 19 -64 18 -64 -5z"/>
</g>
<g>
<path d="M1114 834 c-22 -23 -34 -45 -34 -64 0 -33 39 -84 82 -106 41 -21 27
-31 -67 -49 -91 -18 -120 -35 -59 -35 87 0 228 34 221 53 -2 7 -26 27 -53 44
-55 37 -94 77 -94 98 0 8 10 24 22 35 21 20 23 20 35 4 7 -10 13 -29 13 -42 0
-21 2 -22 15 -12 17 14 19 47 5 84 -14 37 -46 33 -86 -10z"/>
</g>
<g>
<path d="M1324 816 c-7 -30 13 -133 32 -163 20 -31 47 -29 87 7 19 17 37 30
39 30 3 0 11 -18 18 -40 19 -58 33 -67 77 -46 24 12 39 14 47 6 7 -5 16 -7 19
-3 11 11 8 91 -4 99 -6 4 -28 -12 -50 -37 -43 -49 -53 -46 -65 21 -4 19 -11
46 -16 59 -9 24 -10 23 -58 -28 -26 -29 -54 -51 -61 -49 -17 6 -27 40 -28 95
-2 70 -24 99 -37 49z"/>
</g>
<g>
<path d="M1680 812 c0 -23 4 -28 22 -28 15 1 31 -12 51 -42 l30 -44 -28 -89
c-15 -48 -25 -94 -23 -100 2 -7 19 22 37 65 l34 76 44 -41 c24 -22 49 -39 55
-37 17 6 22 28 6 28 -24 0 -80 66 -80 94 0 32 38 93 63 101 11 4 18 12 16 18
-8 26 -37 16 -73 -27 l-37 -45 -44 50 c-51 56 -73 62 -73 21z"/>
</g>
</g>
</svg>
