<?xml version="1.0" standalone="no"?>
<!DOCTYPE svg PUBLIC "-//W3C//DTD SVG 20010904//EN"
 "http://www.w3.org/TR/2001/REC-SVG-20010904/DTD/svg10.dtd">
<svg version="1.0" xmlns="http://www.w3.org/2000/svg"
 width="122.175449pt" height="103.714153pt" viewBox="0 0 122.175449 103.714153"
 preserveAspectRatio="xMidYMid meet">
<metadata>
Created by potrace 1.10, written by Peter Selinger 2001-2011
</metadata>
<g transform="translate(-6.960000,112.834153) scale(0.024000,-0.024000)"
fill="#000000" stroke="none">
<g>
<path d="M2390 4691 c0 -14 41 -41 62 -41 25 0 23 16 -4 34 -25 18 -58 21 -58
7z"/>
</g>
<g>
<path d="M4734 4603 c4 -53 12 -108 19 -122 16 -34 52 -38 88 -12 35 26 37 26
61 -4 22 -28 59 -33 78 -10 7 8 12 42 12 80 -1 78 -26 135 -65 149 -40 15 -57
-6 -57 -71 0 -60 -19 -107 -51 -123 -39 -21 -49 2 -49 111 0 95 -1 99 -21 99
-21 0 -22 -2 -15 -97z m218 7 c22 -43 23 -113 3 -130 -28 -24 -37 -4 -50 113
-6 53 -5 58 12 55 10 -2 26 -19 35 -38z"/>
</g>
<g>
<path d="M5093 4678 c-47 -52 -55 -94 -23 -123 23 -20 26 -45 8 -63 -9 -9 -8
-12 5 -12 23 0 97 31 97 40 0 5 -19 19 -42 32 -47 25 -62 64 -34 88 13 10 16
10 16 -4 0 -10 5 -14 10 -11 6 3 10 22 10 41 0 40 -17 44 -47 12z"/>
</g>
<g>
<path d="M5210 4695 c0 -2 13 -20 30 -38 l30 -35 -35 -76 c-54 -119 -42 -148
15 -36 16 32 35 62 41 65 6 4 26 -7 44 -25 52 -51 63 -31 15 28 l-41 53 20 35
c20 33 20 34 1 34 -11 0 -25 -10 -31 -22 l-12 -22 -17 22 c-16 19 -60 32 -60
17z"/>
</g>
<g>
<path d="M2731 4628 c-12 -12 -21 -25 -21 -30 0 -4 -17 -6 -37 -5 -34 2 -38 0
-38 -23 0 -20 5 -25 23 -23 27 3 27 -9 2 -66 -24 -52 -27 -79 -6 -62 8 6 19
25 26 41 17 41 36 38 60 -10 11 -22 25 -40 30 -40 9 0 3 23 -27 102 -17 47
-17 47 5 77 12 17 22 35 22 40 0 21 -20 20 -39 -1z"/>
</g>
<g>
<path d="M2151 4624 c-26 -19 -60 -87 -61 -121 0 -12 13 -38 30 -56 26 -31 28
-36 15 -53 -23 -30 -18 -44 15 -44 32 0 90 25 90 38 0 4 -5 14 -10 22 -6 10
-4 20 7 32 20 22 33 14 33 -18 0 -90 66 -81 115 16 l18 35 18 -43 c23 -54 49
-56 79 -4 21 33 23 35 31 17 4 -11 8 -33 8 -50 1 -16 5 -37 11 -45 8 -12 10
-12 16 3 9 25 -5 122 -22 143 -13 18 -16 17 -53 -26 l-39 -44 -7 34 c-18 86
-34 85 -85 -6 -16 -30 -35 -54 -40 -54 -16 0 -23 47 -15 105 4 32 3 55 -3 55
-5 0 -22 -18 -37 -41 -16 -22 -42 -49 -58 -61 l-29 -21 -26 21 c-37 28 -36 86
3 119 30 27 45 23 45 -13 0 -30 16 -32 23 -2 7 27 -13 72 -33 76 -8 1 -26 -5
-39 -14z"/>
</g>
<g>
<path d="M3960 4481 c0 -11 81 -103 87 -97 8 8 -37 85 -56 96 -24 12 -31 13
-31 1z"/>
</g>
<g>
<path d="M4530 4420 c0 -11 11 -30 25 -42 38 -33 58 -114 57 -238 0 -91 -4
-119 -31 -200 -18 -52 -45 -117 -62 -144 -35 -57 -33 -67 4 -28 94 99 146 368
104 543 -21 85 -97 171 -97 109z"/>
</g>
<g>
<path d="M3477 4402 c-41 -45 -71 -201 -66 -344 3 -78 8 -102 25 -124 29 -40
68 -67 90 -62 15 2 11 8 -18 25 -20 12 -45 37 -54 55 -32 60 -18 268 25 382 9
22 14 26 25 17 18 -15 26 4 19 42 -6 31 -23 35 -46 9z"/>
</g>
<g>
<path d="M1963 4335 c-11 -8 -26 -28 -33 -45 -7 -16 -17 -30 -22 -30 -5 0 -22
16 -39 35 -30 34 -49 44 -49 26 0 -5 16 -32 36 -61 41 -59 42 -39 -16 -204
-22 -61 -29 -91 -21 -99 12 -12 16 -2 60 118 15 43 32 80 37 82 5 1 29 -28 54
-64 42 -63 70 -88 70 -64 0 6 -20 40 -45 76 -25 37 -48 77 -51 91 -7 29 10 75
37 100 34 31 19 65 -18 39z"/>
</g>
<g>
<path d="M4345 4294 c-12 -19 -20 -23 -28 -15 -32 32 -50 -6 -22 -46 12 -17
13 -31 5 -65 -11 -49 -13 -109 -4 -132 13 -33 22 -14 26 54 5 99 17 104 69 34
56 -76 62 -52 9 36 -41 68 -46 100 -15 100 18 0 20 31 3 48 -17 17 -24 15 -43
-14z"/>
</g>
<g>
<path d="M2890 4221 l0 -91 -30 0 c-47 0 -130 -21 -130 -33 0 -6 10 -21 22
-34 l21 -23 11 22 c22 44 116 48 116 4 0 -12 9 -33 20 -46 11 -13 20 -27 20
-32 0 -15 30 -81 35 -76 3 2 -2 42 -10 88 -8 45 -12 87 -8 93 3 6 34 7 79 3
41 -4 74 -4 74 -1 0 12 -71 35 -108 35 -61 0 -75 16 -81 100 -4 46 -11 75 -18
78 -10 3 -13 -19 -13 -87z"/>
</g>
<g>
<path d="M3692 4284 c-31 -25 -62 -71 -62 -94 0 -6 18 -30 41 -55 44 -48 44
-59 2 -70 -50 -12 -68 -45 -25 -45 29 0 122 48 122 64 0 8 -22 30 -50 50 -55
39 -61 60 -30 94 26 27 40 28 47 2 8 -31 21 -24 29 15 6 36 -7 65 -30 65 -6 0
-26 -12 -44 -26z"/>
</g>
<g>
<path d="M1038 4231 c-1 -39 0 -71 4 -71 4 0 20 -18 35 -41 27 -41 45 -46 94
-25 14 6 18 -11 29 -135 10 -119 10 -143 -1 -151 -31 -20 -141 15 -228 73 -47
31 -29 1 24 -41 94 -75 184 -100 220 -60 17 18 17 34 11 183 -8 185 -20 315
-30 325 -12 12 -26 -22 -26 -66 0 -47 -23 -112 -39 -112 -18 0 -39 42 -56 110
-9 36 -20 69 -25 74 -5 4 -10 -24 -12 -63z"/>
</g>
<g>
<path d="M3837 4283 c-11 -11 -7 -125 6 -162 7 -19 20 -39 30 -45 15 -9 23 -6
43 17 13 15 24 35 24 43 0 27 17 14 35 -27 26 -56 50 -72 84 -54 15 7 33 25
41 39 18 35 27 33 35 -11 7 -40 21 -63 37 -63 6 0 8 12 4 28 -3 15 -11 54 -16
86 -6 32 -16 68 -22 79 -9 18 -14 12 -47 -53 -20 -41 -41 -75 -48 -78 -12 -3
-53 66 -53 91 0 8 -9 25 -19 38 l-19 24 -12 -30 c-6 -16 -21 -45 -32 -63 -28
-46 -42 -28 -44 56 0 37 -1 73 -2 80 -2 13 -15 16 -25 5z"/>
</g>
<g>
<path d="M1380 4148 l-25 -10 23 -9 c26 -10 162 0 162 11 0 20 -117 26 -160 8z"/>
</g>
<g>
<path d="M1388 4063 c-10 -2 -18 -9 -18 -15 0 -14 150 -5 177 11 14 8 -1 10
-62 10 -44 -1 -88 -3 -97 -6z"/>
</g>
<g>
<path d="M1760 3850 c0 -49 33 -163 55 -188 23 -27 23 -27 162 -26 144 1 568
20 685 30 37 4 75 12 84 19 15 11 14 17 -11 74 -29 64 -42 71 -62 30 -11 -21
-10 -24 8 -27 19 -3 48 -47 37 -57 -9 -10 -216 -24 -523 -36 -366 -14 -367
-14 -384 78 -18 93 -26 116 -39 121 -7 2 -12 -5 -12 -18z"/>
</g>
<g>
<path d="M5064 3816 c-3 -9 -1 -39 6 -66 7 -28 10 -53 7 -56 -9 -9 -376 -24
-922 -36 -696 -16 -763 -16 -801 0 -32 13 -32 14 -27 76 4 43 2 66 -6 71 -7 4
-15 4 -18 1 -10 -9 -5 -120 6 -149 19 -48 102 -56 406 -37 88 6 414 15 725 20
521 10 660 16 676 32 7 8 -26 147 -37 154 -5 3 -12 -2 -15 -10z"/>
</g>
<g>
<path d="M4328 3543 c-12 -14 -17 -49 -20 -150 -4 -149 -7 -143 71 -143 57 0
107 16 115 36 7 17 -26 51 -72 76 -18 9 -32 21 -32 25 0 5 18 30 40 57 22 26
40 57 40 67 0 41 -112 66 -142 32z m98 -27 c18 -14 17 -17 -31 -65 -27 -28
-52 -51 -55 -51 -8 0 5 104 15 119 9 16 48 13 71 -3z m18 -207 c13 -12 -32
-30 -67 -27 -30 3 -32 6 -35 46 l-3 44 48 -28 c26 -15 52 -31 57 -35z"/>
</g>
<g>
<path d="M2274 3539 c-3 -6 -15 -48 -25 -92 -10 -45 -21 -92 -25 -104 -10 -34
22 -30 40 6 30 57 67 51 84 -14 16 -60 36 -60 29 0 -4 44 -3 46 27 59 l31 13
-36 16 c-27 11 -40 24 -48 49 -6 19 -23 45 -36 56 -29 25 -31 26 -41 11z m46
-99 c0 -11 -4 -20 -10 -20 -5 0 -10 9 -10 20 0 11 5 20 10 20 6 0 10 -9 10
-20z"/>
</g>
<g>
<path d="M624 2915 c-6 -11 -14 -60 -17 -108 -3 -49 -13 -101 -21 -118 -17
-34 -3 -40 16 -6 12 20 13 15 19 -51 4 -57 10 -78 27 -95 20 -19 22 -19 22 -4
0 10 -7 31 -15 47 -15 28 -14 30 18 54 48 37 63 33 76 -17 13 -54 46 -97 74
-97 11 0 31 10 44 22 23 21 23 21 58 2 31 -16 39 -17 67 -5 49 19 63 18 66 -5
2 -12 11 -29 22 -39 26 -24 57 -5 70 45 6 22 14 40 18 40 4 0 17 -18 29 -39
l22 -39 83 4 c114 5 109 5 148 -1 29 -5 41 -1 73 26 21 17 36 34 33 37 -3 2
-11 0 -18 -5 -7 -6 -27 -15 -45 -21 -47 -16 -58 3 -34 59 25 58 33 101 22 118
-5 7 -14 10 -21 6 -17 -10 -60 -105 -60 -132 0 -26 -32 -63 -54 -63 -27 0 -46
30 -46 72 0 32 4 41 21 45 28 8 23 58 -6 58 -29 0 -55 -59 -55 -122 0 -80 -22
-69 -58 27 -11 30 -26 55 -33 55 -7 0 -22 -29 -34 -64 -31 -95 -44 -90 -47 21
l-3 93 -28 -57 c-40 -81 -89 -117 -115 -85 -8 9 -6 21 8 42 25 38 28 136 4
156 -34 28 -72 -33 -73 -117 -1 -28 -7 -47 -21 -59 -11 -10 -20 -24 -20 -32 0
-37 -43 1 -60 53 -12 35 -11 53 6 202 6 44 4 52 -10 52 -22 0 -46 -57 -46
-109 0 -33 -6 -44 -37 -70 -20 -16 -41 -27 -46 -24 -6 3 -8 45 -5 102 3 53 2
112 -1 131 -6 32 -8 33 -17 15z m326 -199 c0 -33 -17 -76 -30 -76 -13 0 -13
56 0 81 15 26 30 24 30 -5z"/>
</g>
<g>
<path d="M849 2239 c-6 -12 -15 -85 -20 -163 -8 -114 -15 -159 -41 -237 -20
-62 -29 -103 -24 -115 8 -18 8 -18 16 1 5 11 16 45 24 75 24 83 28 87 64 50
25 -24 37 -30 54 -24 39 12 67 34 80 65 7 16 15 29 18 29 3 0 12 -13 22 -29 9
-16 28 -37 43 -47 25 -16 27 -16 53 3 16 11 33 39 42 66 l15 46 60 0 c33 0 76
1 95 3 33 3 35 1 38 -28 3 -26 -4 -36 -43 -68 -58 -48 -75 -82 -75 -149 0 -69
15 -111 44 -127 62 -33 99 29 117 197 12 122 7 155 -38 226 -20 32 -28 37 -61
37 -24 0 -52 -10 -81 -30 -59 -40 -54 -41 -102 23 -25 32 -36 33 -88 6 -31
-16 -43 -30 -55 -65 -15 -44 -80 -134 -97 -134 -5 0 -19 15 -30 33 -19 30 -20
42 -15 177 3 80 9 157 12 173 8 32 -10 37 -27 6z m280 -212 c6 -8 8 -17 5 -20
-10 -9 -45 13 -39 24 9 13 21 11 34 -4z m31 -82 c0 -20 -40 -75 -55 -75 -18 0
-43 46 -51 98 l-6 40 56 -26 c31 -15 56 -31 56 -37z m240 -140 c0 -76 -18
-150 -42 -171 -19 -18 -20 -18 -39 5 -14 17 -19 39 -19 86 0 60 1 64 40 99 22
20 45 36 50 36 6 0 10 -25 10 -55z"/>
</g>
<g>
<path d="M4302 2217 c-7 -8 -18 -46 -23 -83 -9 -67 -41 -137 -74 -164 -26 -22
-47 -68 -34 -76 6 -3 14 -2 18 2 4 5 25 30 45 57 21 26 42 47 46 47 5 0 17
-16 29 -35 28 -47 71 -49 118 -3 23 22 33 27 33 16 0 -8 13 -31 28 -50 l28
-36 36 19 c28 14 37 26 42 54 8 38 28 54 49 37 7 -6 30 -12 52 -14 39 -3 40
-4 49 -51 11 -57 -2 -155 -29 -211 -23 -49 -67 -72 -106 -56 -15 7 -34 18 -40
26 -21 25 -30 15 -14 -16 39 -76 137 -64 182 23 46 90 54 199 22 302 -19 62
-22 66 -45 61 -13 -4 -44 -9 -69 -13 -39 -5 -49 -2 -66 16 -15 16 -31 21 -67
21 -57 0 -61 -3 -89 -62 -27 -56 -52 -73 -79 -53 -16 11 -20 31 -24 136 -4
103 -7 120 -18 106z m255 -208 c18 -15 16 -29 -7 -59 -17 -23 -20 -24 -35 -9
-9 9 -20 33 -25 54 l-8 37 30 -6 c17 -3 37 -11 45 -17z"/>
</g>
<g>
<path d="M2541 2183 c-6 -21 -11 -65 -11 -99 0 -39 -11 -97 -30 -160 -34 -113
-38 -154 -14 -154 11 0 14 6 9 20 -5 16 28 143 41 159 2 2 15 -6 30 -18 46
-36 92 -24 120 32 16 29 18 30 28 13 27 -46 59 -76 81 -76 27 0 55 34 55 66 0
12 7 27 15 34 13 10 19 10 34 -4 10 -9 35 -21 54 -27 30 -8 38 -16 47 -47 14
-53 12 -187 -4 -226 -31 -75 -116 -100 -175 -50 -39 33 -43 9 -4 -30 44 -44
86 -46 149 -7 46 28 68 82 72 181 5 105 -11 183 -43 208 l-24 19 22 21 21 22
-28 0 c-16 0 -53 -8 -83 -17 -52 -16 -53 -16 -77 6 -19 18 -33 22 -61 19 -28
-3 -39 0 -46 14 -12 22 -29 15 -29 -13 0 -37 -60 -139 -81 -139 -5 0 -16 15
-26 33 -13 25 -16 55 -15 145 2 115 -8 143 -27 75z m266 -191 c12 -7 6 -62 -6
-62 -15 0 -53 49 -46 59 7 13 35 14 52 3z"/>
</g>
<g>
<path d="M3279 2113 c-12 -38 -32 -92 -45 -122 -13 -29 -24 -62 -24 -72 0 -25
27 -25 35 0 3 10 14 26 25 36 26 23 46 8 60 -46 16 -58 34 -50 26 11 -7 50 -6
51 24 62 34 11 30 24 -10 30 -23 3 -26 9 -37 83 -6 44 -12 81 -12 83 -1 1 -5
2 -10 2 -5 0 -19 -30 -32 -67z m31 -103 c0 -5 -4 -10 -10 -10 -5 0 -10 5 -10
10 0 6 5 10 10 10 6 0 10 -4 10 -10z"/>
</g>
<g>
<path d="M3840 2124 l0 -61 -58 -12 c-69 -13 -103 -34 -86 -51 9 -8 28 -6 77
12 36 12 68 20 71 17 3 -3 12 -41 21 -84 22 -115 36 -119 29 -8 -5 67 -4 92 6
98 6 4 41 10 76 13 92 7 78 28 -17 25 -79 -2 -89 3 -89 48 0 14 -7 34 -15 45
-13 17 -14 14 -15 -42z"/>
</g>
<g>
<path d="M4918 2147 c-22 -22 -34 -305 -14 -325 16 -17 94 -27 130 -18 37 9
33 33 -15 100 l-41 58 51 52 c64 65 69 100 17 121 -57 24 -111 29 -128 12z
m130 -55 c4 -13 -82 -102 -99 -102 -14 0 -10 95 3 108 16 16 90 11 96 -6z
m-64 -199 c42 -53 36 -72 -16 -57 -31 9 -33 13 -36 57 -2 26 1 47 6 47 5 0 26
-21 46 -47z"/>
</g>
<g>
<path d="M1600 2055 c-17 -21 -24 -89 -11 -114 14 -25 28 -27 53 -4 24 22 29
15 35 -57 6 -58 3 -66 -38 -147 -48 -94 -57 -157 -30 -221 16 -37 55 -53 77
-30 26 26 37 175 24 356 -16 239 -23 262 -56 177 -22 -58 -38 -59 -30 -1 7 47
-4 66 -24 41z m89 -392 c-1 -102 -9 -137 -31 -141 -18 -3 -38 44 -38 88 0 49
40 140 61 140 5 0 9 -39 8 -87z"/>
</g>
<g>
<path d="M2022 1979 c-30 -11 -23 -35 9 -31 13 2 54 5 92 9 65 5 83 15 51 27
-24 9 -126 6 -152 -5z"/>
</g>
<g>
<path d="M2030 1903 c-8 -2 -21 -7 -29 -9 -11 -3 -11 -8 -3 -16 13 -13 195 9
186 23 -5 9 -128 11 -154 2z"/>
</g>
<g>
<path d="M867 1279 c4 -63 8 -132 8 -154 l0 -40 -70 -3 c-88 -3 -121 -10 -108
-23 12 -12 253 -25 253 -14 0 4 -7 13 -16 20 -20 14 -32 82 -34 190 -2 91 -10
127 -28 133 -11 3 -12 -19 -5 -109z"/>
</g>
<g>
<path d="M4277 1373 c-4 -3 -7 -74 -7 -158 0 -106 -4 -156 -12 -167 -7 -9 -39
-24 -72 -33 -40 -11 -55 -20 -48 -27 7 -7 40 -5 106 7 73 12 101 13 117 5 11
-7 23 -9 26 -6 12 12 -21 36 -56 42 l-36 6 4 169 c3 156 -1 184 -22 162z"/>
</g>
<g>
<path d="M1336 1334 c-3 -9 -6 -48 -6 -88 0 -68 -2 -73 -29 -94 -39 -28 -78
-80 -86 -114 -6 -23 -4 -28 12 -28 11 0 39 14 61 30 48 35 59 36 106 13 33
-15 38 -15 77 0 30 12 46 14 55 6 7 -5 25 -9 41 -7 l28 3 3 -71 3 -72 -46 5
c-27 4 -45 2 -45 -4 0 -16 54 -35 86 -31 l29 3 -1 153 c0 167 -13 211 -34 123
-6 -27 -18 -55 -26 -61 -11 -10 -15 -3 -25 34 -6 25 -15 46 -19 46 -4 0 -15
-18 -25 -41 -52 -114 -134 -59 -116 77 5 32 7 64 6 69 -2 6 -6 22 -9 38 -7 30
-30 36 -40 11z m-50 -260 c-10 -14 -20 -23 -23 -20 -3 3 2 17 11 32 10 14 20
23 23 20 3 -3 -2 -17 -11 -32z"/>
</g>
<g>
<path d="M4880 1324 c-6 -14 -10 -46 -10 -72 0 -62 -15 -87 -29 -49 -28 72
-137 -10 -172 -130 -14 -49 -7 -73 21 -73 34 0 72 25 123 79 26 28 50 51 52
51 2 0 11 -25 20 -55 8 -30 20 -55 26 -55 6 0 7 9 3 23 -4 12 -7 86 -7 165 0
138 -7 170 -27 116z m-62 -168 c3 -33 -2 -42 -39 -77 -42 -38 -75 -56 -86 -45
-11 11 29 97 63 132 40 43 58 40 62 -10z"/>
</g>
<g>
<path d="M2689 1318 c0 -2 -4 -72 -8 -156 -5 -84 -11 -156 -15 -160 -4 -3 -41
-8 -82 -10 -71 -4 -92 -13 -58 -26 9 -3 52 -6 97 -6 l82 0 3 180 c3 126 1 180
-7 180 -6 0 -11 -1 -12 -2z"/>
</g>
<g>
<path d="M3226 1298 c-8 -13 -17 -57 -21 -98 -7 -86 -13 -110 -25 -110 -5 0
-11 9 -15 19 -24 77 -121 -22 -101 -103 9 -36 34 -33 87 9 24 19 47 35 50 35
3 0 11 -17 17 -39 12 -37 37 -69 47 -59 3 3 -2 19 -11 37 -13 26 -15 50 -11
109 3 43 9 90 13 106 5 21 4 27 -5 22 -16 -10 -14 29 3 43 14 12 11 51 -5 51
-5 0 -15 -10 -23 -22z m-66 -213 c11 -13 8 -21 -15 -45 -16 -17 -35 -30 -42
-30 -18 0 -16 41 3 68 18 26 36 28 54 7z"/>
</g>
<g>
<path d="M5040 1304 c0 -13 -3 -14 -15 -4 -21 18 -24 4 -27 -124 -3 -97 -5
-110 -23 -120 -11 -6 -22 -12 -24 -13 -2 -1 11 -17 30 -34 18 -17 35 -26 37
-20 2 6 20 13 40 17 84 15 92 39 33 105 l-39 44 29 31 c38 40 42 89 9 116 -28
22 -50 23 -50 2z m40 -53 c0 -11 -4 -23 -10 -26 -6 -4 -10 5 -10 19 0 14 5 26
10 26 6 0 10 -9 10 -19z m-34 -28 c-3 -4 -6 2 -5 13 0 11 3 14 6 6 3 -7 2 -16
-1 -19z m29 -143 c13 -15 15 -24 8 -31 -19 -19 -48 -6 -51 24 -4 33 17 36 43
7z"/>
</g>
<g>
<path d="M430 1259 c0 -6 16 -33 35 -59 19 -26 35 -51 35 -54 0 -4 -40 -4 -89
0 -49 4 -97 4 -106 0 -30 -11 3 -36 49 -37 45 -1 43 -2 -21 -19 -24 -6 -43
-15 -43 -20 0 -23 141 -2 200 30 20 11 25 10 37 -6 22 -30 15 -52 -28 -99 -31
-33 -37 -45 -24 -45 27 0 76 40 90 73 10 25 10 38 0 68 -21 59 -44 97 -82 140
-36 39 -53 48 -53 28z"/>
</g>
<g>
<path d="M3361 1248 c-16 -43 -43 -179 -37 -185 4 -4 23 -1 42 6 41 15 47 11
64 -41 18 -58 33 -58 29 -2 -4 48 -3 49 29 59 43 12 41 21 -7 29 -39 6 -40 7
-63 78 -25 76 -42 94 -57 56z m35 -124 c-3 -8 -10 -14 -16 -14 -11 0 -14 43
-3 54 10 10 26 -23 19 -40z"/>
</g>
<g>
<path d="M3817 1154 c-4 -4 -7 -20 -7 -35 0 -35 -32 -59 -81 -59 -41 0 -50 -6
-42 -27 4 -11 17 -13 59 -8 l52 7 11 -38 c6 -22 11 -48 12 -59 1 -39 18 16 18
62 l1 42 73 3 c39 2 72 8 72 13 0 6 -31 12 -70 15 l-70 5 0 39 c0 37 -13 55
-28 40z"/>
</g>
<g>
<path d="M1075 1100 c-7 -12 12 -40 27 -40 13 0 6 43 -9 47 -6 2 -14 -1 -18
-7z"/>
</g>
<g>
<path d="M4540 1067 c0 -23 11 -47 22 -47 14 0 5 53 -9 58 -7 2 -13 -3 -13
-11z"/>
</g>
<g>
<path d="M1990 1055 c10 -11 36 -15 111 -15 54 0 100 4 103 9 9 14 -33 21
-133 21 -82 0 -92 -2 -81 -15z"/>
</g>
<g>
<path d="M2914 1019 c-6 -11 13 -39 27 -39 5 0 9 9 9 19 0 21 -26 36 -36 20z"/>
</g>
<g>
<path d="M2047 1004 c-14 -15 7 -24 52 -24 60 0 111 10 111 21 0 10 -153 12
-163 3z"/>
</g>
<g>
<path d="M784 976 c-9 -23 11 -87 38 -121 19 -24 26 -26 61 -21 l40 7 -5 -93
c-5 -101 -30 -168 -69 -189 -31 -16 -102 -6 -139 21 -39 28 -54 16 -18 -15 38
-33 112 -59 144 -51 77 20 115 112 113 275 -2 170 -17 204 -53 123 -25 -55
-45 -51 -69 13 -22 61 -34 74 -43 51z"/>
</g>
<g>
<path d="M3280 899 c-80 -14 -152 -39 -147 -52 4 -13 24 -13 75 -2 l34 8 -7
-49 c-4 -27 -14 -53 -23 -59 -43 -28 -83 -70 -101 -109 -26 -53 -27 -76 -2
-76 23 0 62 36 95 89 14 22 30 41 35 41 5 0 14 -14 20 -32 13 -38 58 -88 79
-88 12 0 12 4 -2 23 -44 59 -66 122 -66 188 0 41 5 70 13 76 6 6 34 13 61 17
27 3 52 8 54 11 18 18 -49 26 -118 14z m-96 -239 c-16 -26 -44 -48 -44 -34 0
12 42 64 51 64 6 0 2 -13 -7 -30z"/>
</g>
<g>
<path d="M2536 848 c-16 -24 -53 -162 -58 -213 -2 -24 1 -30 17 -30 14 0 22
11 32 44 26 91 54 94 82 9 12 -35 25 -70 31 -78 17 -28 24 1 10 48 -23 80 -20
105 15 115 17 5 41 15 55 21 22 10 17 11 -40 14 l-66 3 -19 41 c-24 51 -39 57
-59 26z m34 -62 c0 -14 -4 -28 -10 -31 -6 -4 -10 7 -10 24 0 17 5 31 10 31 6
0 10 -11 10 -24z"/>
</g>
<g>
<path d="M4850 851 c-25 -7 -25 -8 -25 -116 l0 -109 -33 -7 c-44 -9 -88 -52
-108 -106 -16 -40 -16 -46 -2 -60 20 -19 45 -11 103 33 25 19 48 34 52 34 4 0
25 -19 47 -42 42 -46 62 -39 26 10 -30 40 -35 79 -32 220 l3 124 100 -8 c69
-4 99 -3 99 4 0 26 -162 42 -230 23z m-30 -276 c0 -19 -77 -95 -96 -95 -24 0
-15 29 22 70 37 40 74 53 74 25z"/>
</g>
<g>
<path d="M1363 839 c-36 -10 -40 -24 -18 -53 8 -11 15 -39 15 -62 0 -39 -4
-45 -50 -78 -53 -38 -89 -91 -72 -108 16 -16 46 -1 98 48 l48 46 16 -23 c30
-46 62 -79 76 -79 19 0 18 14 -4 33 -26 23 -61 97 -64 132 -1 17 -1 52 0 79
l2 48 53 -6 c63 -7 97 7 54 23 -34 13 -110 13 -154 0z"/>
</g>
<g>
<path d="M3491 784 c-29 -36 -30 -37 -55 -21 -26 17 -56 23 -56 10 0 -4 16
-24 36 -44 34 -35 35 -38 21 -65 -18 -37 -47 -135 -47 -163 0 -44 18 -18 45
64 15 47 32 88 36 91 5 3 32 -15 60 -40 28 -25 55 -46 60 -46 20 0 7 24 -41
74 -55 58 -60 80 -30 119 41 52 14 72 -29 21z"/>
</g>
<g>
<path d="M1560 787 c0 -13 11 -34 25 -47 34 -32 32 -65 -10 -183 -19 -54 -35
-106 -34 -115 0 -17 52 82 84 161 19 47 16 48 69 -40 40 -66 44 -39 7 46 -37
82 -39 117 -10 126 11 4 19 14 17 23 -5 24 -25 25 -48 2 l-22 -22 -30 36 c-34
42 -48 45 -48 13z"/>
</g>
<g>
<path d="M4174 773 c18 -116 27 -207 22 -219 -4 -10 -14 -12 -32 -8 -22 6 -25
4 -22 -12 4 -25 46 -30 118 -14 66 15 110 36 110 53 0 7 -20 29 -45 47 -42 31
-45 37 -39 65 15 62 2 88 -53 112 -55 23 -66 18 -59 -24z m75 -26 c7 -10 8
-29 2 -60 -9 -52 -8 -54 37 -86 38 -26 33 -36 -20 -46 l-36 -7 -6 69 c-4 37
-8 85 -10 106 -4 39 11 50 33 24z"/>
</g>
<g>
<path d="M4987 693 c-12 -11 -8 -20 34 -73 l42 -53 -28 -81 c-16 -44 -30 -87
-33 -93 -2 -7 1 -13 8 -13 6 0 25 32 42 70 17 39 34 70 39 70 4 0 20 -11 36
-24 35 -29 73 -49 80 -42 3 3 -18 29 -46 59 -28 30 -51 61 -51 70 0 9 14 32
30 50 35 40 38 57 11 57 -18 0 -41 -23 -66 -65 -9 -15 -15 -11 -43 29 -33 46
-42 52 -55 39z"/>
</g>
</g>
</svg>
