<?xml version="1.0" encoding="UTF-8"?>
<svg xmlns="http://www.w3.org/2000/svg" xmlns:xlink="http://www.w3.org/1999/xlink" width="221.62649pt" height="36.031933pt" viewBox="0 0 221.62649 36.031933" version="1.1">
<g id="surface1">
<path style=" stroke:none;fill-rule:nonzero;fill:rgb(0%,0%,0%);fill-opacity:1;" d="M 7.988281 12.734375 C 7.421875 12.851562 7.207031 13.28125 7.207031 13.613281 C 7.207031 14.042969 7.539062 14.199219 7.792969 14.199219 C 8.339844 14.199219 8.710938 13.730469 8.710938 13.242188 C 8.710938 12.5 7.851562 12.148438 7.089844 12.148438 C 5.996094 12.148438 5.390625 13.222656 5.234375 13.574219 C 4.824219 12.226562 3.710938 12.148438 3.378906 12.148438 C 1.5625 12.148438 0.585938 14.492188 0.585938 14.902344 C 0.585938 14.960938 0.664062 15.058594 0.78125 15.058594 C 0.917969 15.058594 0.957031 14.941406 0.996094 14.882812 C 1.601562 12.890625 2.8125 12.519531 3.320312 12.519531 C 4.140625 12.519531 4.296875 13.261719 4.296875 13.691406 C 4.296875 14.082031 4.199219 14.492188 3.964844 15.351562 L 3.359375 17.8125 C 3.105469 18.886719 2.578125 19.882812 1.621094 19.882812 C 1.542969 19.882812 1.09375 19.882812 0.703125 19.648438 C 1.347656 19.511719 1.503906 18.984375 1.503906 18.769531 C 1.503906 18.417969 1.230469 18.203125 0.898438 18.203125 C 0.46875 18.203125 0 18.574219 0 19.140625 C 0 19.902344 0.839844 20.234375 1.601562 20.234375 C 2.460938 20.234375 3.085938 19.550781 3.457031 18.828125 C 3.75 19.882812 4.628906 20.234375 5.292969 20.234375 C 7.128906 20.234375 8.105469 17.890625 8.105469 17.5 C 8.105469 17.402344 8.027344 17.324219 7.910156 17.324219 C 7.753906 17.324219 7.734375 17.421875 7.695312 17.558594 C 7.207031 19.140625 6.152344 19.882812 5.351562 19.882812 C 4.726562 19.882812 4.394531 19.414062 4.394531 18.671875 C 4.394531 18.28125 4.453125 17.988281 4.746094 16.816406 L 5.371094 14.375 C 5.644531 13.300781 6.25 12.519531 7.070312 12.519531 C 7.109375 12.519531 7.617188 12.519531 7.988281 12.734375 Z M 7.988281 12.734375 "/>
<path style=" stroke:none;fill-rule:nonzero;fill:rgb(0%,0%,0%);fill-opacity:1;" d="M 15.597656 7.8125 C 15.65625 7.636719 15.65625 7.617188 15.65625 7.519531 C 15.65625 7.304688 15.480469 7.1875 15.285156 7.1875 C 15.167969 7.1875 14.972656 7.265625 14.855469 7.441406 C 14.835938 7.519531 14.71875 7.890625 14.679688 8.125 C 14.582031 8.4375 14.503906 8.789062 14.425781 9.121094 L 13.859375 11.367188 C 13.820312 11.542969 13.273438 12.421875 12.453125 12.421875 C 11.828125 12.421875 11.691406 11.875 11.691406 11.40625 C 11.691406 10.839844 11.90625 10.058594 12.316406 8.964844 C 12.511719 8.457031 12.570312 8.320312 12.570312 8.066406 C 12.570312 7.519531 12.179688 7.050781 11.554688 7.050781 C 10.363281 7.050781 9.914062 8.867188 9.914062 8.964844 C 9.914062 9.101562 10.03125 9.101562 10.050781 9.101562 C 10.1875 9.101562 10.1875 9.0625 10.246094 8.867188 C 10.597656 7.695312 11.085938 7.324219 11.515625 7.324219 C 11.613281 7.324219 11.828125 7.324219 11.828125 7.714844 C 11.828125 8.027344 11.691406 8.359375 11.613281 8.59375 C 11.105469 9.921875 10.890625 10.625 10.890625 11.210938 C 10.890625 12.324219 11.671875 12.695312 12.414062 12.695312 C 12.902344 12.695312 13.3125 12.480469 13.664062 12.128906 C 13.507812 12.773438 13.351562 13.398438 12.863281 14.0625 C 12.53125 14.472656 12.0625 14.84375 11.496094 14.84375 C 11.320312 14.84375 10.753906 14.804688 10.539062 14.316406 C 10.734375 14.316406 10.910156 14.316406 11.066406 14.160156 C 11.203125 14.0625 11.320312 13.886719 11.320312 13.652344 C 11.320312 13.261719 10.988281 13.222656 10.871094 13.222656 C 10.578125 13.222656 10.167969 13.417969 10.167969 14.023438 C 10.167969 14.648438 10.714844 15.117188 11.496094 15.117188 C 12.765625 15.117188 14.054688 13.984375 14.40625 12.578125 Z M 15.597656 7.8125 "/>
<path style=" stroke:none;fill-rule:nonzero;fill:rgb(0%,0%,0%);fill-opacity:1;" d="M 33.800781 14.257812 C 34.054688 14.257812 34.367188 14.257812 34.367188 13.925781 C 34.367188 13.59375 34.054688 13.59375 33.800781 13.59375 L 23.234375 13.59375 C 22.980469 13.59375 22.667969 13.59375 22.667969 13.90625 C 22.667969 14.257812 22.960938 14.257812 23.234375 14.257812 Z M 33.800781 17.578125 C 34.054688 17.578125 34.367188 17.578125 34.367188 17.265625 C 34.367188 16.914062 34.054688 16.914062 33.800781 16.914062 L 23.234375 16.914062 C 22.980469 16.914062 22.667969 16.914062 22.667969 17.246094 C 22.667969 17.578125 22.960938 17.578125 23.234375 17.578125 Z M 33.800781 17.578125 "/>
<path style=" stroke:none;fill-rule:nonzero;fill:rgb(0%,0%,0%);fill-opacity:1;" d="M 43.496094 15.898438 C 43.984375 15.898438 45.214844 15.859375 46.074219 15.546875 C 47.421875 15.019531 47.558594 13.984375 47.558594 13.652344 C 47.558594 12.871094 46.875 12.148438 45.683594 12.148438 C 43.808594 12.148438 41.09375 13.847656 41.09375 17.050781 C 41.09375 18.925781 42.167969 20.234375 43.808594 20.234375 C 46.25 20.234375 47.792969 18.339844 47.792969 18.105469 C 47.792969 17.988281 47.675781 17.910156 47.617188 17.910156 C 47.558594 17.910156 47.539062 17.929688 47.382812 18.085938 C 46.230469 19.609375 44.53125 19.882812 43.847656 19.882812 C 42.8125 19.882812 42.285156 19.082031 42.285156 17.753906 C 42.285156 17.5 42.285156 17.050781 42.558594 15.898438 Z M 42.636719 15.546875 C 43.417969 12.773438 45.117188 12.519531 45.683594 12.519531 C 46.484375 12.519531 47.011719 12.96875 47.011719 13.652344 C 47.011719 15.546875 44.140625 15.546875 43.398438 15.546875 Z M 42.636719 15.546875 "/>
<path style=" stroke:none;fill-rule:nonzero;fill:rgb(0%,0%,0%);fill-opacity:1;" d="M 52.550781 8.789062 C 52.628906 8.476562 52.921875 7.324219 53.78125 7.324219 C 53.839844 7.324219 54.152344 7.324219 54.40625 7.480469 C 54.054688 7.558594 53.820312 7.851562 53.820312 8.164062 C 53.820312 8.359375 53.957031 8.59375 54.289062 8.59375 C 54.5625 8.59375 54.953125 8.378906 54.953125 7.871094 C 54.953125 7.226562 54.230469 7.050781 53.800781 7.050781 C 53.078125 7.050781 52.648438 7.714844 52.492188 7.988281 C 52.179688 7.167969 51.515625 7.050781 51.144531 7.050781 C 49.855469 7.050781 49.132812 8.652344 49.132812 8.964844 C 49.132812 9.101562 49.269531 9.101562 49.289062 9.101562 C 49.386719 9.101562 49.425781 9.0625 49.445312 8.964844 C 49.875 7.636719 50.695312 7.324219 51.125 7.324219 C 51.359375 7.324219 51.789062 7.441406 51.789062 8.164062 C 51.789062 8.554688 51.574219 9.375 51.125 11.132812 C 50.929688 11.894531 50.480469 12.421875 49.933594 12.421875 C 49.855469 12.421875 49.582031 12.421875 49.308594 12.265625 C 49.621094 12.1875 49.894531 11.933594 49.894531 11.582031 C 49.894531 11.25 49.621094 11.152344 49.445312 11.152344 C 49.054688 11.152344 48.761719 11.464844 48.761719 11.875 C 48.761719 12.441406 49.367188 12.695312 49.914062 12.695312 C 50.753906 12.695312 51.203125 11.816406 51.222656 11.757812 C 51.378906 12.207031 51.828125 12.695312 52.570312 12.695312 C 53.859375 12.695312 54.5625 11.09375 54.5625 10.78125 C 54.5625 10.644531 54.464844 10.644531 54.425781 10.644531 C 54.308594 10.644531 54.289062 10.703125 54.25 10.78125 C 53.839844 12.128906 53 12.421875 52.609375 12.421875 C 52.121094 12.421875 51.925781 12.03125 51.925781 11.601562 C 51.925781 11.328125 51.984375 11.054688 52.121094 10.507812 Z M 52.550781 8.789062 "/>
<path style=" stroke:none;fill-rule:nonzero;fill:rgb(0%,0%,0%);fill-opacity:1;" d="M 63.644531 9.6875 C 63.859375 9.6875 64.09375 9.6875 64.09375 9.433594 C 64.09375 9.199219 63.859375 9.199219 63.644531 9.199219 L 56.90625 9.199219 C 56.691406 9.199219 56.476562 9.199219 56.476562 9.433594 C 56.476562 9.6875 56.691406 9.6875 56.90625 9.6875 Z M 63.644531 9.6875 "/>
<path style=" stroke:none;fill-rule:nonzero;fill:rgb(0%,0%,0%);fill-opacity:1;" d="M 71.246094 7.8125 C 71.304688 7.636719 71.304688 7.617188 71.304688 7.519531 C 71.304688 7.304688 71.128906 7.1875 70.933594 7.1875 C 70.816406 7.1875 70.621094 7.265625 70.503906 7.441406 C 70.484375 7.519531 70.367188 7.890625 70.328125 8.125 C 70.230469 8.4375 70.152344 8.789062 70.074219 9.121094 L 69.507812 11.367188 C 69.46875 11.542969 68.921875 12.421875 68.101562 12.421875 C 67.476562 12.421875 67.339844 11.875 67.339844 11.40625 C 67.339844 10.839844 67.554688 10.058594 67.964844 8.964844 C 68.160156 8.457031 68.21875 8.320312 68.21875 8.066406 C 68.21875 7.519531 67.828125 7.050781 67.203125 7.050781 C 66.011719 7.050781 65.5625 8.867188 65.5625 8.964844 C 65.5625 9.101562 65.679688 9.101562 65.699219 9.101562 C 65.835938 9.101562 65.835938 9.0625 65.894531 8.867188 C 66.246094 7.695312 66.734375 7.324219 67.164062 7.324219 C 67.261719 7.324219 67.476562 7.324219 67.476562 7.714844 C 67.476562 8.027344 67.339844 8.359375 67.261719 8.59375 C 66.753906 9.921875 66.539062 10.625 66.539062 11.210938 C 66.539062 12.324219 67.320312 12.695312 68.0625 12.695312 C 68.550781 12.695312 68.960938 12.480469 69.3125 12.128906 C 69.15625 12.773438 69 13.398438 68.511719 14.0625 C 68.179688 14.472656 67.710938 14.84375 67.144531 14.84375 C 66.96875 14.84375 66.402344 14.804688 66.1875 14.316406 C 66.382812 14.316406 66.558594 14.316406 66.714844 14.160156 C 66.851562 14.0625 66.96875 13.886719 66.96875 13.652344 C 66.96875 13.261719 66.636719 13.222656 66.519531 13.222656 C 66.226562 13.222656 65.816406 13.417969 65.816406 14.023438 C 65.816406 14.648438 66.363281 15.117188 67.144531 15.117188 C 68.414062 15.117188 69.703125 13.984375 70.054688 12.578125 Z M 71.246094 7.8125 "/>
<path style=" stroke:none;fill-rule:nonzero;fill:rgb(0%,0%,0%);fill-opacity:1;" d="M 94.550781 14.257812 C 94.804688 14.257812 95.117188 14.257812 95.117188 13.925781 C 95.117188 13.59375 94.804688 13.59375 94.550781 13.59375 L 83.984375 13.59375 C 83.730469 13.59375 83.417969 13.59375 83.417969 13.90625 C 83.417969 14.257812 83.710938 14.257812 83.984375 14.257812 Z M 94.550781 17.578125 C 94.804688 17.578125 95.117188 17.578125 95.117188 17.265625 C 95.117188 16.914062 94.804688 16.914062 94.550781 16.914062 L 83.984375 16.914062 C 83.730469 16.914062 83.417969 16.914062 83.417969 17.246094 C 83.417969 17.578125 83.710938 17.578125 83.984375 17.578125 Z M 94.550781 17.578125 "/>
<path style=" stroke:none;fill-rule:nonzero;fill:rgb(0%,0%,0%);fill-opacity:1;" d="M 106.101562 14.199219 C 106.863281 14.84375 107.78125 15.3125 108.367188 15.585938 C 107.722656 15.859375 106.84375 16.328125 106.101562 16.953125 L 94.734375 16.953125 C 94.421875 16.953125 94.070312 16.953125 94.070312 17.324219 C 94.070312 17.675781 94.402344 17.675781 94.714844 17.675781 L 105.300781 17.675781 C 104.441406 18.496094 103.503906 20.078125 103.503906 20.3125 C 103.503906 20.507812 103.738281 20.507812 103.855469 20.507812 C 103.992188 20.507812 104.128906 20.507812 104.1875 20.371094 C 104.578125 19.6875 105.066406 18.730469 106.238281 17.695312 C 107.46875 16.601562 108.679688 16.113281 109.597656 15.839844 C 109.910156 15.742188 109.929688 15.722656 109.96875 15.683594 C 110.007812 15.664062 110.007812 15.605469 110.007812 15.585938 C 110.007812 15.546875 110.007812 15.507812 109.988281 15.46875 L 109.929688 15.429688 C 109.890625 15.410156 109.871094 15.390625 109.539062 15.292969 C 107.117188 14.570312 105.320312 12.949219 104.324219 11.015625 C 104.128906 10.664062 104.109375 10.644531 103.855469 10.644531 C 103.738281 10.644531 103.503906 10.644531 103.503906 10.839844 C 103.503906 11.074219 104.421875 12.636719 105.300781 13.476562 L 94.714844 13.476562 C 94.402344 13.476562 94.070312 13.476562 94.070312 13.828125 C 94.070312 14.199219 94.421875 14.199219 94.734375 14.199219 Z M 106.101562 14.199219 "/>
<path style=" stroke:none;fill-rule:nonzero;fill:rgb(0%,0%,0%);fill-opacity:1;" d="M 125.699219 22.070312 C 125.230469 22.753906 124.527344 23.359375 123.648438 23.359375 C 123.433594 23.359375 122.574219 23.320312 122.300781 22.5 C 122.359375 22.519531 122.4375 22.519531 122.476562 22.519531 C 123.023438 22.519531 123.375 22.050781 123.375 21.640625 C 123.375 21.230469 123.042969 21.074219 122.769531 21.074219 C 122.476562 21.074219 121.851562 21.289062 121.851562 22.167969 C 121.851562 23.085938 122.632812 23.710938 123.648438 23.710938 C 125.445312 23.710938 127.242188 22.070312 127.75 20.078125 L 129.507812 13.085938 C 129.527344 12.988281 129.566406 12.890625 129.566406 12.773438 C 129.566406 12.519531 129.351562 12.324219 129.078125 12.324219 C 128.921875 12.324219 128.53125 12.402344 128.394531 12.949219 L 127.066406 18.203125 C 126.988281 18.535156 126.988281 18.574219 126.832031 18.769531 C 126.480469 19.277344 125.894531 19.882812 125.035156 19.882812 C 124.019531 19.882812 123.941406 18.886719 123.941406 18.417969 C 123.941406 17.382812 124.410156 16.015625 124.898438 14.707031 C 125.09375 14.199219 125.210938 13.945312 125.210938 13.59375 C 125.210938 12.832031 124.664062 12.148438 123.785156 12.148438 C 122.144531 12.148438 121.480469 14.746094 121.480469 14.902344 C 121.480469 14.960938 121.539062 15.058594 121.675781 15.058594 C 121.832031 15.058594 121.851562 14.980469 121.929688 14.726562 C 122.359375 13.222656 123.042969 12.519531 123.726562 12.519531 C 123.902344 12.519531 124.195312 12.519531 124.195312 13.105469 C 124.195312 13.574219 124 14.082031 123.726562 14.765625 C 122.847656 17.109375 122.847656 17.714844 122.847656 18.144531 C 122.847656 19.84375 124.078125 20.234375 124.976562 20.234375 C 125.484375 20.234375 126.128906 20.078125 126.773438 19.414062 L 126.792969 19.433594 C 126.519531 20.488281 126.34375 21.191406 125.699219 22.070312 Z M 125.699219 22.070312 "/>
<path style=" stroke:none;fill-rule:nonzero;fill:rgb(0%,0%,0%);fill-opacity:1;" d="M 147.203125 14.257812 C 147.457031 14.257812 147.769531 14.257812 147.769531 13.925781 C 147.769531 13.59375 147.457031 13.59375 147.203125 13.59375 L 136.636719 13.59375 C 136.382812 13.59375 136.070312 13.59375 136.070312 13.90625 C 136.070312 14.257812 136.363281 14.257812 136.636719 14.257812 Z M 147.203125 17.578125 C 147.457031 17.578125 147.769531 17.578125 147.769531 17.265625 C 147.769531 16.914062 147.457031 16.914062 147.203125 16.914062 L 136.636719 16.914062 C 136.382812 16.914062 136.070312 16.914062 136.070312 17.246094 C 136.070312 17.578125 136.363281 17.578125 136.636719 17.578125 Z M 147.203125 17.578125 "/>
<path style=" stroke:none;fill-rule:nonzero;fill:rgb(0%,0%,0%);fill-opacity:1;" d="M 191.886719 0.585938 C 191.320312 0.703125 191.105469 1.132812 191.105469 1.464844 C 191.105469 1.894531 191.4375 2.050781 191.691406 2.050781 C 192.238281 2.050781 192.609375 1.582031 192.609375 1.09375 C 192.609375 0.351562 191.75 0 190.988281 0 C 189.894531 0 189.289062 1.074219 189.132812 1.425781 C 188.722656 0.078125 187.609375 0 187.277344 0 C 185.460938 0 184.484375 2.34375 184.484375 2.753906 C 184.484375 2.8125 184.5625 2.910156 184.679688 2.910156 C 184.816406 2.910156 184.855469 2.792969 184.894531 2.734375 C 185.5 0.742188 186.710938 0.371094 187.21875 0.371094 C 188.039062 0.371094 188.195312 1.113281 188.195312 1.542969 C 188.195312 1.933594 188.097656 2.34375 187.863281 3.203125 L 187.257812 5.664062 C 187.003906 6.738281 186.476562 7.734375 185.519531 7.734375 C 185.441406 7.734375 184.992188 7.734375 184.601562 7.5 C 185.246094 7.363281 185.402344 6.835938 185.402344 6.621094 C 185.402344 6.269531 185.128906 6.054688 184.796875 6.054688 C 184.367188 6.054688 183.898438 6.425781 183.898438 6.992188 C 183.898438 7.753906 184.738281 8.085938 185.5 8.085938 C 186.359375 8.085938 186.984375 7.402344 187.355469 6.679688 C 187.648438 7.734375 188.527344 8.085938 189.191406 8.085938 C 191.027344 8.085938 192.003906 5.742188 192.003906 5.351562 C 192.003906 5.253906 191.925781 5.175781 191.808594 5.175781 C 191.652344 5.175781 191.632812 5.273438 191.59375 5.410156 C 191.105469 6.992188 190.050781 7.734375 189.25 7.734375 C 188.625 7.734375 188.292969 7.265625 188.292969 6.523438 C 188.292969 6.132812 188.351562 5.839844 188.644531 4.667969 L 189.269531 2.226562 C 189.542969 1.152344 190.148438 0.371094 190.96875 0.371094 C 191.007812 0.371094 191.515625 0.371094 191.886719 0.585938 Z M 191.886719 0.585938 "/>
<path style=" stroke:none;fill-rule:nonzero;fill:rgb(0%,0%,0%);fill-opacity:1;" d="M 155.175781 15.125 L 221.625 15.125 L 221.625 15.878906 L 155.175781 15.878906 Z M 155.175781 15.125 "/>
<path style=" stroke:none;fill-rule:nonzero;fill:rgb(0%,0%,0%);fill-opacity:1;" d="M 158.277344 19.917969 L 155.777344 20.113281 L 155.777344 20.640625 C 157.007812 20.640625 157.144531 20.757812 157.144531 21.636719 L 157.144531 31.03125 C 157.144531 31.832031 156.949219 31.832031 155.777344 31.832031 L 155.777344 32.359375 C 156.285156 32.320312 157.164062 32.320312 157.710938 32.320312 C 158.238281 32.320312 159.136719 32.320312 159.644531 32.359375 L 159.644531 31.832031 C 158.492188 31.832031 158.277344 31.832031 158.277344 31.03125 Z M 158.277344 19.917969 "/>
<path style=" stroke:none;fill-rule:nonzero;fill:rgb(0%,0%,0%);fill-opacity:1;" d="M 168.363281 28.53125 C 168.363281 26.207031 166.605469 24.371094 164.535156 24.371094 C 162.386719 24.371094 160.6875 26.265625 160.6875 28.53125 C 160.6875 30.816406 162.464844 32.535156 164.515625 32.535156 C 166.625 32.535156 168.363281 30.777344 168.363281 28.53125 Z M 164.535156 32.144531 C 163.871094 32.144531 163.070312 31.851562 162.542969 30.972656 C 162.054688 30.171875 162.035156 29.117188 162.035156 28.355469 C 162.035156 27.671875 162.035156 26.578125 162.601562 25.777344 C 163.089844 25.015625 163.890625 24.722656 164.515625 24.722656 C 165.21875 24.722656 165.960938 25.035156 166.449219 25.738281 C 167.015625 26.558594 167.015625 27.691406 167.015625 28.355469 C 167.015625 28.980469 167.015625 30.09375 166.546875 30.933594 C 166.039062 31.8125 165.21875 32.144531 164.535156 32.144531 Z M 164.535156 32.144531 "/>
<path style=" stroke:none;fill-rule:nonzero;fill:rgb(0%,0%,0%);fill-opacity:1;" d="M 171.121094 29.117188 C 171.960938 29.664062 172.683594 29.664062 172.878906 29.664062 C 174.5 29.664062 175.691406 28.453125 175.691406 27.066406 C 175.691406 26.578125 175.554688 25.914062 174.988281 25.328125 C 175.671875 24.605469 176.53125 24.605469 176.609375 24.605469 C 176.6875 24.605469 176.765625 24.605469 176.84375 24.644531 C 176.667969 24.722656 176.570312 24.898438 176.570312 25.09375 C 176.570312 25.347656 176.746094 25.5625 177.039062 25.5625 C 177.195312 25.5625 177.507812 25.464844 177.507812 25.074219 C 177.507812 24.761719 177.253906 24.253906 176.628906 24.253906 C 175.691406 24.253906 175.007812 24.820312 174.753906 25.09375 C 174.207031 24.683594 173.582031 24.449219 172.898438 24.449219 C 171.296875 24.449219 170.085938 25.679688 170.085938 27.046875 C 170.085938 28.082031 170.710938 28.746094 170.886719 28.902344 C 170.671875 29.175781 170.359375 29.683594 170.359375 30.386719 C 170.359375 31.421875 170.984375 31.871094 171.121094 31.96875 C 170.300781 32.203125 169.480469 32.847656 169.480469 33.785156 C 169.480469 35.015625 171.160156 36.03125 173.367188 36.03125 C 175.496094 36.03125 177.273438 35.09375 177.273438 33.746094 C 177.273438 33.296875 177.15625 32.242188 176.082031 31.675781 C 175.164062 31.207031 174.265625 31.207031 172.722656 31.207031 C 171.628906 31.207031 171.511719 31.207031 171.179688 30.875 C 171.003906 30.699219 170.847656 30.347656 170.847656 29.976562 C 170.847656 29.664062 170.945312 29.371094 171.121094 29.117188 Z M 172.898438 29.292969 C 171.316406 29.292969 171.316406 27.476562 171.316406 27.066406 C 171.316406 26.753906 171.316406 26.011719 171.628906 25.523438 C 171.960938 25.015625 172.507812 24.820312 172.878906 24.820312 C 174.460938 24.820312 174.460938 26.636719 174.460938 27.046875 C 174.460938 27.378906 174.460938 28.101562 174.148438 28.589844 C 173.816406 29.117188 173.269531 29.292969 172.898438 29.292969 Z M 173.386719 35.660156 C 171.667969 35.660156 170.359375 34.78125 170.359375 33.765625 C 170.359375 33.609375 170.398438 32.90625 171.0625 32.457031 C 171.472656 32.203125 171.628906 32.203125 172.878906 32.203125 C 174.363281 32.203125 176.394531 32.203125 176.394531 33.765625 C 176.394531 34.820312 175.027344 35.660156 173.386719 35.660156 Z M 173.386719 35.660156 "/>
<path style=" stroke:none;fill-rule:nonzero;fill:rgb(0%,0%,0%);fill-opacity:1;" d="M 189.488281 25.035156 C 188.921875 25.152344 188.707031 25.582031 188.707031 25.914062 C 188.707031 26.34375 189.039062 26.5 189.292969 26.5 C 189.839844 26.5 190.210938 26.03125 190.210938 25.542969 C 190.210938 24.800781 189.351562 24.449219 188.589844 24.449219 C 187.496094 24.449219 186.890625 25.523438 186.734375 25.875 C 186.324219 24.527344 185.210938 24.449219 184.878906 24.449219 C 183.0625 24.449219 182.085938 26.792969 182.085938 27.203125 C 182.085938 27.261719 182.164062 27.359375 182.28125 27.359375 C 182.417969 27.359375 182.457031 27.242188 182.496094 27.183594 C 183.101562 25.191406 184.3125 24.820312 184.820312 24.820312 C 185.640625 24.820312 185.796875 25.5625 185.796875 25.992188 C 185.796875 26.382812 185.699219 26.792969 185.464844 27.652344 L 184.859375 30.113281 C 184.605469 31.1875 184.078125 32.183594 183.121094 32.183594 C 183.042969 32.183594 182.59375 32.183594 182.203125 31.949219 C 182.847656 31.8125 183.003906 31.285156 183.003906 31.070312 C 183.003906 30.71875 182.730469 30.503906 182.398438 30.503906 C 181.96875 30.503906 181.5 30.875 181.5 31.441406 C 181.5 32.203125 182.339844 32.535156 183.101562 32.535156 C 183.960938 32.535156 184.585938 31.851562 184.957031 31.128906 C 185.25 32.183594 186.128906 32.535156 186.792969 32.535156 C 188.628906 32.535156 189.605469 30.191406 189.605469 29.800781 C 189.605469 29.703125 189.527344 29.625 189.410156 29.625 C 189.253906 29.625 189.234375 29.722656 189.195312 29.859375 C 188.707031 31.441406 187.652344 32.183594 186.851562 32.183594 C 186.226562 32.183594 185.894531 31.714844 185.894531 30.972656 C 185.894531 30.582031 185.953125 30.289062 186.246094 29.117188 L 186.871094 26.675781 C 187.144531 25.601562 187.75 24.820312 188.570312 24.820312 C 188.609375 24.820312 189.117188 24.820312 189.488281 25.035156 Z M 189.488281 25.035156 "/>
<path style=" stroke:none;fill-rule:nonzero;fill:rgb(0%,0%,0%);fill-opacity:1;" d="M 206.757812 28.238281 C 207.070312 28.238281 207.382812 28.238281 207.382812 27.886719 C 207.382812 27.515625 207.070312 27.515625 206.757812 27.515625 L 197.050781 27.515625 C 196.757812 27.515625 196.425781 27.515625 196.425781 27.886719 C 196.425781 28.238281 196.757812 28.238281 197.050781 28.238281 Z M 206.757812 28.238281 "/>
<path style=" stroke:none;fill-rule:nonzero;fill:rgb(0%,0%,0%);fill-opacity:1;" d="M 217.949219 20.875 C 217.949219 20.445312 217.949219 20.445312 217.597656 20.445312 C 217.167969 20.914062 216.269531 21.578125 214.433594 21.578125 L 214.433594 22.105469 C 214.84375 22.105469 215.742188 22.105469 216.71875 21.636719 L 216.71875 30.972656 C 216.71875 31.617188 216.660156 31.832031 215.097656 31.832031 L 214.53125 31.832031 L 214.53125 32.359375 C 215.019531 32.320312 216.757812 32.320312 217.34375 32.320312 C 217.929688 32.320312 219.667969 32.320312 220.136719 32.359375 L 220.136719 31.832031 L 219.589844 31.832031 C 218.007812 31.832031 217.949219 31.617188 217.949219 30.972656 Z M 217.949219 20.875 "/>
</g>
</svg>
