<?xml version="1.0" encoding="UTF-8"?>
<svg xmlns="http://www.w3.org/2000/svg" xmlns:xlink="http://www.w3.org/1999/xlink" width="207.46872pt" height="77.409372pt" viewBox="0 0 207.46872 77.409372" version="1.1">
<g id="surface1">
<path style=" stroke:none;fill-rule:nonzero;fill:rgb(0%,0%,0%);fill-opacity:1;" d="M 1.542969 0.175781 L 0 0.175781 L 0 12.617188 L 1.542969 12.617188 Z M 1.542969 0.175781 "/>
<path style=" stroke:none;fill-rule:nonzero;fill:rgb(0%,0%,0%);fill-opacity:1;" d="M 6.285156 5.703125 L 8.199219 5.703125 L 8.199219 4.648438 L 6.246094 4.648438 L 6.246094 2.5 C 6.246094 1.289062 7.261719 1.074219 7.867188 1.074219 C 8.492188 1.074219 9.039062 1.269531 9.253906 1.347656 L 9.253906 0.175781 C 9.136719 0.136719 8.53125 0 7.886719 0 C 6.167969 0 4.957031 1.308594 4.957031 3.046875 L 4.957031 4.648438 L 3.648438 4.648438 L 3.648438 5.703125 L 4.957031 5.703125 L 4.957031 12.617188 L 6.285156 12.617188 Z M 6.285156 5.703125 "/>
<path style=" stroke:none;fill-rule:nonzero;fill:rgb(0%,0%,0%);fill-opacity:1;" d="M 22.925781 5.292969 C 22.359375 5.410156 22.144531 5.839844 22.144531 6.171875 C 22.144531 6.601562 22.476562 6.757812 22.730469 6.757812 C 23.277344 6.757812 23.648438 6.289062 23.648438 5.800781 C 23.648438 5.058594 22.789062 4.707031 22.027344 4.707031 C 20.933594 4.707031 20.328125 5.78125 20.171875 6.132812 C 19.761719 4.785156 18.648438 4.707031 18.316406 4.707031 C 16.5 4.707031 15.523438 7.050781 15.523438 7.460938 C 15.523438 7.519531 15.601562 7.617188 15.71875 7.617188 C 15.855469 7.617188 15.894531 7.5 15.933594 7.441406 C 16.539062 5.449219 17.75 5.078125 18.257812 5.078125 C 19.078125 5.078125 19.234375 5.820312 19.234375 6.25 C 19.234375 6.640625 19.136719 7.050781 18.902344 7.910156 L 18.296875 10.371094 C 18.042969 11.445312 17.515625 12.441406 16.558594 12.441406 C 16.480469 12.441406 16.03125 12.441406 15.640625 12.207031 C 16.285156 12.070312 16.441406 11.542969 16.441406 11.328125 C 16.441406 10.976562 16.167969 10.761719 15.835938 10.761719 C 15.40625 10.761719 14.9375 11.132812 14.9375 11.699219 C 14.9375 12.460938 15.777344 12.792969 16.539062 12.792969 C 17.398438 12.792969 18.023438 12.109375 18.394531 11.386719 C 18.6875 12.441406 19.566406 12.792969 20.230469 12.792969 C 22.066406 12.792969 23.042969 10.449219 23.042969 10.058594 C 23.042969 9.960938 22.964844 9.882812 22.847656 9.882812 C 22.691406 9.882812 22.671875 9.980469 22.632812 10.117188 C 22.144531 11.699219 21.089844 12.441406 20.289062 12.441406 C 19.664062 12.441406 19.332031 11.972656 19.332031 11.230469 C 19.332031 10.839844 19.390625 10.546875 19.683594 9.375 L 20.308594 6.933594 C 20.582031 5.859375 21.1875 5.078125 22.007812 5.078125 C 22.046875 5.078125 22.554688 5.078125 22.925781 5.292969 Z M 22.925781 5.292969 "/>
<path style=" stroke:none;fill-rule:nonzero;fill:rgb(0%,0%,0%);fill-opacity:1;" d="M 30.535156 1.421875 C 30.59375 1.246094 30.59375 1.226562 30.59375 1.128906 C 30.59375 0.914062 30.417969 0.796875 30.222656 0.796875 C 30.105469 0.796875 29.910156 0.875 29.792969 1.050781 C 29.773438 1.128906 29.65625 1.5 29.617188 1.734375 C 29.519531 2.046875 29.441406 2.398438 29.363281 2.730469 L 28.796875 4.976562 C 28.757812 5.152344 28.210938 6.03125 27.390625 6.03125 C 26.765625 6.03125 26.628906 5.484375 26.628906 5.015625 C 26.628906 4.449219 26.84375 3.667969 27.253906 2.574219 C 27.449219 2.066406 27.507812 1.929688 27.507812 1.675781 C 27.507812 1.128906 27.117188 0.660156 26.492188 0.660156 C 25.300781 0.660156 24.851562 2.476562 24.851562 2.574219 C 24.851562 2.710938 24.96875 2.710938 24.988281 2.710938 C 25.125 2.710938 25.125 2.671875 25.183594 2.476562 C 25.535156 1.304688 26.023438 0.933594 26.453125 0.933594 C 26.550781 0.933594 26.765625 0.933594 26.765625 1.324219 C 26.765625 1.636719 26.628906 1.96875 26.550781 2.203125 C 26.042969 3.53125 25.828125 4.234375 25.828125 4.820312 C 25.828125 5.933594 26.609375 6.304688 27.351562 6.304688 C 27.839844 6.304688 28.25 6.089844 28.601562 5.738281 C 28.445312 6.382812 28.289062 7.007812 27.800781 7.671875 C 27.46875 8.082031 27 8.453125 26.433594 8.453125 C 26.257812 8.453125 25.691406 8.414062 25.476562 7.925781 C 25.671875 7.925781 25.847656 7.925781 26.003906 7.769531 C 26.140625 7.671875 26.257812 7.496094 26.257812 7.261719 C 26.257812 6.871094 25.925781 6.832031 25.808594 6.832031 C 25.515625 6.832031 25.105469 7.027344 25.105469 7.632812 C 25.105469 8.257812 25.652344 8.726562 26.433594 8.726562 C 27.703125 8.726562 28.992188 7.59375 29.34375 6.1875 Z M 30.535156 1.421875 "/>
<path style=" stroke:none;fill-rule:nonzero;fill:rgb(0%,0%,0%);fill-opacity:1;" d="M 48.589844 6.816406 C 48.84375 6.816406 49.15625 6.816406 49.15625 6.484375 C 49.15625 6.152344 48.84375 6.152344 48.589844 6.152344 L 38.023438 6.152344 C 37.769531 6.152344 37.457031 6.152344 37.457031 6.464844 C 37.457031 6.816406 37.75 6.816406 38.023438 6.816406 Z M 48.589844 10.136719 C 48.84375 10.136719 49.15625 10.136719 49.15625 9.824219 C 49.15625 9.472656 48.84375 9.472656 48.589844 9.472656 L 38.023438 9.472656 C 37.769531 9.472656 37.457031 9.472656 37.457031 9.804688 C 37.457031 10.136719 37.75 10.136719 38.023438 10.136719 Z M 48.589844 10.136719 "/>
<path style=" stroke:none;fill-rule:nonzero;fill:rgb(0%,0%,0%);fill-opacity:1;" d="M 58.433594 8.457031 C 58.921875 8.457031 60.152344 8.417969 61.011719 8.105469 C 62.359375 7.578125 62.496094 6.542969 62.496094 6.210938 C 62.496094 5.429688 61.8125 4.707031 60.621094 4.707031 C 58.746094 4.707031 56.03125 6.40625 56.03125 9.609375 C 56.03125 11.484375 57.105469 12.792969 58.746094 12.792969 C 61.1875 12.792969 62.730469 10.898438 62.730469 10.664062 C 62.730469 10.546875 62.613281 10.46875 62.554688 10.46875 C 62.496094 10.46875 62.476562 10.488281 62.320312 10.644531 C 61.167969 12.167969 59.46875 12.441406 58.785156 12.441406 C 57.75 12.441406 57.222656 11.640625 57.222656 10.3125 C 57.222656 10.058594 57.222656 9.609375 57.496094 8.457031 Z M 57.574219 8.105469 C 58.355469 5.332031 60.054688 5.078125 60.621094 5.078125 C 61.421875 5.078125 61.949219 5.527344 61.949219 6.210938 C 61.949219 8.105469 59.078125 8.105469 58.335938 8.105469 Z M 57.574219 8.105469 "/>
<path style=" stroke:none;fill-rule:nonzero;fill:rgb(0%,0%,0%);fill-opacity:1;" d="M 67.488281 2.398438 C 67.566406 2.085938 67.859375 0.933594 68.71875 0.933594 C 68.777344 0.933594 69.089844 0.933594 69.34375 1.089844 C 68.992188 1.167969 68.757812 1.460938 68.757812 1.773438 C 68.757812 1.96875 68.894531 2.203125 69.226562 2.203125 C 69.5 2.203125 69.890625 1.988281 69.890625 1.480469 C 69.890625 0.835938 69.167969 0.660156 68.738281 0.660156 C 68.015625 0.660156 67.585938 1.324219 67.429688 1.597656 C 67.117188 0.777344 66.453125 0.660156 66.082031 0.660156 C 64.792969 0.660156 64.070312 2.261719 64.070312 2.574219 C 64.070312 2.710938 64.207031 2.710938 64.226562 2.710938 C 64.324219 2.710938 64.363281 2.671875 64.382812 2.574219 C 64.8125 1.246094 65.632812 0.933594 66.0625 0.933594 C 66.296875 0.933594 66.726562 1.050781 66.726562 1.773438 C 66.726562 2.164062 66.511719 2.984375 66.0625 4.742188 C 65.867188 5.503906 65.417969 6.03125 64.871094 6.03125 C 64.792969 6.03125 64.519531 6.03125 64.246094 5.875 C 64.558594 5.796875 64.832031 5.542969 64.832031 5.191406 C 64.832031 4.859375 64.558594 4.761719 64.382812 4.761719 C 63.992188 4.761719 63.699219 5.074219 63.699219 5.484375 C 63.699219 6.050781 64.304688 6.304688 64.851562 6.304688 C 65.691406 6.304688 66.140625 5.425781 66.160156 5.367188 C 66.316406 5.816406 66.765625 6.304688 67.507812 6.304688 C 68.796875 6.304688 69.5 4.703125 69.5 4.390625 C 69.5 4.253906 69.402344 4.253906 69.363281 4.253906 C 69.246094 4.253906 69.226562 4.3125 69.1875 4.390625 C 68.777344 5.738281 67.9375 6.03125 67.546875 6.03125 C 67.058594 6.03125 66.863281 5.640625 66.863281 5.210938 C 66.863281 4.9375 66.921875 4.664062 67.058594 4.117188 Z M 67.488281 2.398438 "/>
<path style=" stroke:none;fill-rule:nonzero;fill:rgb(0%,0%,0%);fill-opacity:1;" d="M 78.582031 3.296875 C 78.796875 3.296875 79.03125 3.296875 79.03125 3.042969 C 79.03125 2.808594 78.796875 2.808594 78.582031 2.808594 L 71.84375 2.808594 C 71.628906 2.808594 71.414062 2.808594 71.414062 3.042969 C 71.414062 3.296875 71.628906 3.296875 71.84375 3.296875 Z M 78.582031 3.296875 "/>
<path style=" stroke:none;fill-rule:nonzero;fill:rgb(0%,0%,0%);fill-opacity:1;" d="M 86.183594 1.421875 C 86.242188 1.246094 86.242188 1.226562 86.242188 1.128906 C 86.242188 0.914062 86.066406 0.796875 85.871094 0.796875 C 85.753906 0.796875 85.558594 0.875 85.441406 1.050781 C 85.421875 1.128906 85.304688 1.5 85.265625 1.734375 C 85.167969 2.046875 85.089844 2.398438 85.011719 2.730469 L 84.445312 4.976562 C 84.40625 5.152344 83.859375 6.03125 83.039062 6.03125 C 82.414062 6.03125 82.277344 5.484375 82.277344 5.015625 C 82.277344 4.449219 82.492188 3.667969 82.902344 2.574219 C 83.097656 2.066406 83.15625 1.929688 83.15625 1.675781 C 83.15625 1.128906 82.765625 0.660156 82.140625 0.660156 C 80.949219 0.660156 80.5 2.476562 80.5 2.574219 C 80.5 2.710938 80.617188 2.710938 80.636719 2.710938 C 80.773438 2.710938 80.773438 2.671875 80.832031 2.476562 C 81.183594 1.304688 81.671875 0.933594 82.101562 0.933594 C 82.199219 0.933594 82.414062 0.933594 82.414062 1.324219 C 82.414062 1.636719 82.277344 1.96875 82.199219 2.203125 C 81.691406 3.53125 81.476562 4.234375 81.476562 4.820312 C 81.476562 5.933594 82.257812 6.304688 83 6.304688 C 83.488281 6.304688 83.898438 6.089844 84.25 5.738281 C 84.09375 6.382812 83.9375 7.007812 83.449219 7.671875 C 83.117188 8.082031 82.648438 8.453125 82.082031 8.453125 C 81.90625 8.453125 81.339844 8.414062 81.125 7.925781 C 81.320312 7.925781 81.496094 7.925781 81.652344 7.769531 C 81.789062 7.671875 81.90625 7.496094 81.90625 7.261719 C 81.90625 6.871094 81.574219 6.832031 81.457031 6.832031 C 81.164062 6.832031 80.753906 7.027344 80.753906 7.632812 C 80.753906 8.257812 81.300781 8.726562 82.082031 8.726562 C 83.351562 8.726562 84.640625 7.59375 84.992188 6.1875 Z M 86.183594 1.421875 "/>
<path style=" stroke:none;fill-rule:nonzero;fill:rgb(0%,0%,0%);fill-opacity:1;" d="M 90.492188 12.597656 L 90.492188 11.171875 L 89.027344 11.171875 L 89.027344 12.617188 L 89.476562 12.617188 L 89.027344 14.863281 L 89.75 14.863281 Z M 90.492188 12.597656 "/>
<path style=" stroke:none;fill-rule:nonzero;fill:rgb(0%,0%,0%);fill-opacity:1;" d="M 101.046875 5.703125 L 103.527344 5.703125 L 103.527344 4.648438 L 101.046875 4.648438 L 101.046875 2.382812 L 99.816406 2.382812 L 99.816406 4.648438 L 98.3125 4.648438 L 98.3125 5.703125 L 99.777344 5.703125 L 99.777344 10.527344 C 99.777344 11.5625 100.011719 12.792969 101.242188 12.792969 C 102.453125 12.792969 103.273438 12.382812 103.820312 12.089844 L 103.546875 11.054688 C 102.921875 11.621094 102.257812 11.679688 101.945312 11.679688 C 101.144531 11.679688 101.046875 10.839844 101.046875 10.214844 Z M 101.046875 5.703125 "/>
<path style=" stroke:none;fill-rule:nonzero;fill:rgb(0%,0%,0%);fill-opacity:1;" d="M 111.875 7.226562 C 111.875 6.132812 111.640625 4.472656 109.472656 4.472656 C 108.242188 4.472656 107.421875 5.175781 106.992188 5.722656 L 106.992188 0.175781 L 105.664062 0.175781 L 105.664062 12.617188 L 107.011719 12.617188 L 107.011719 8.144531 C 107.011719 7.050781 107.441406 5.546875 108.789062 5.546875 C 110.46875 5.546875 110.507812 6.71875 110.507812 7.34375 L 110.507812 12.617188 L 111.875 12.617188 Z M 111.875 7.226562 "/>
<path style=" stroke:none;fill-rule:nonzero;fill:rgb(0%,0%,0%);fill-opacity:1;" d="M 120.582031 8.574219 C 120.582031 7.8125 120.503906 6.71875 119.9375 5.761719 C 119.195312 4.53125 117.945312 4.394531 117.417969 4.394531 C 115.484375 4.394531 113.863281 6.25 113.863281 8.574219 C 113.863281 10.957031 115.582031 12.792969 117.671875 12.792969 C 118.492188 12.792969 119.488281 12.558594 120.464844 11.855469 C 120.464844 11.777344 120.40625 11.210938 120.40625 11.191406 C 120.386719 11.171875 120.367188 10.761719 120.367188 10.703125 C 119.292969 11.601562 118.238281 11.71875 117.710938 11.71875 C 116.324219 11.71875 115.132812 10.488281 115.113281 8.574219 Z M 115.210938 7.617188 C 115.523438 6.40625 116.363281 5.46875 117.417969 5.46875 C 117.984375 5.46875 119.214844 5.722656 119.507812 7.617188 Z M 115.210938 7.617188 "/>
<path style=" stroke:none;fill-rule:nonzero;fill:rgb(0%,0%,0%);fill-opacity:1;" d="M 128.675781 7.226562 C 128.675781 6.132812 128.441406 4.472656 126.273438 4.472656 C 125.277344 4.472656 124.417969 4.921875 123.734375 5.78125 L 123.734375 4.570312 L 122.464844 4.570312 L 122.464844 12.617188 L 123.8125 12.617188 L 123.8125 8.144531 C 123.8125 7.050781 124.242188 5.546875 125.589844 5.546875 C 127.269531 5.546875 127.308594 6.71875 127.308594 7.34375 L 127.308594 12.617188 L 128.675781 12.617188 Z M 128.675781 7.226562 "/>
<path style=" stroke:none;fill-rule:nonzero;fill:rgb(0%,0%,0%);fill-opacity:1;" d="M 142.09375 4.941406 C 140.960938 4.414062 139.984375 4.394531 139.574219 4.394531 C 139.164062 4.394531 136.664062 4.394531 136.664062 6.71875 C 136.664062 7.5 137.09375 8.046875 137.367188 8.300781 C 138.011719 8.847656 138.460938 8.945312 139.515625 9.160156 C 140.121094 9.277344 141.15625 9.492188 141.15625 10.449219 C 141.15625 11.679688 139.75 11.679688 139.496094 11.679688 C 138.792969 11.679688 137.738281 11.484375 136.78125 10.78125 L 136.566406 12.011719 C 136.644531 12.070312 137.875 12.792969 139.515625 12.792969 C 141.839844 12.792969 142.386719 11.40625 142.386719 10.332031 C 142.386719 9.433594 141.839844 8.847656 141.761719 8.769531 C 141.097656 8.085938 140.550781 7.96875 139.476562 7.753906 C 138.8125 7.636719 137.914062 7.460938 137.914062 6.5625 C 137.914062 5.449219 139.164062 5.449219 139.398438 5.449219 C 140.335938 5.449219 141.097656 5.664062 141.878906 6.113281 Z M 142.09375 4.941406 "/>
<path style=" stroke:none;fill-rule:nonzero;fill:rgb(0%,0%,0%);fill-opacity:1;" d="M 150.425781 7.226562 C 150.425781 6.132812 150.191406 4.472656 148.023438 4.472656 C 146.792969 4.472656 145.972656 5.175781 145.542969 5.722656 L 145.542969 0.175781 L 144.214844 0.175781 L 144.214844 12.617188 L 145.5625 12.617188 L 145.5625 8.144531 C 145.5625 7.050781 145.992188 5.546875 147.339844 5.546875 C 149.019531 5.546875 149.058594 6.71875 149.058594 7.34375 L 149.058594 12.617188 L 150.425781 12.617188 Z M 150.425781 7.226562 "/>
<path style=" stroke:none;fill-rule:nonzero;fill:rgb(0%,0%,0%);fill-opacity:1;" d="M 160.050781 8.671875 C 160.050781 6.25 158.273438 4.394531 156.222656 4.394531 C 154.113281 4.394531 152.375 6.289062 152.375 8.671875 C 152.375 11.015625 154.152344 12.792969 156.203125 12.792969 C 158.3125 12.792969 160.050781 10.976562 160.050781 8.671875 Z M 156.222656 11.679688 C 154.933594 11.679688 153.722656 10.605469 153.722656 8.496094 C 153.722656 6.328125 155.070312 5.46875 156.203125 5.46875 C 157.433594 5.46875 158.703125 6.386719 158.703125 8.496094 C 158.703125 10.703125 157.414062 11.679688 156.222656 11.679688 Z M 156.222656 11.679688 "/>
<path style=" stroke:none;fill-rule:nonzero;fill:rgb(0%,0%,0%);fill-opacity:1;" d="M 171.890625 4.648438 L 170.582031 4.648438 L 169.507812 8.300781 C 169.253906 9.160156 168.746094 10.839844 168.667969 11.621094 L 168.648438 11.621094 C 168.609375 11.191406 168.316406 9.980469 167.945312 8.710938 L 166.753906 4.648438 L 165.523438 4.648438 L 164.488281 8.164062 C 164.175781 9.277344 163.746094 10.820312 163.6875 11.582031 L 163.667969 11.582031 C 163.648438 11.230469 163.453125 10.292969 163.121094 9.082031 L 161.851562 4.648438 L 160.484375 4.648438 L 162.886719 12.617188 L 164.273438 12.617188 C 164.9375 10.351562 165.992188 6.953125 166.089844 5.703125 L 166.109375 5.703125 C 166.148438 6.425781 166.5 7.714844 166.636719 8.144531 L 167.90625 12.617188 L 169.488281 12.617188 Z M 171.890625 4.648438 "/>
<path style=" stroke:none;fill-rule:nonzero;fill:rgb(0%,0%,0%);fill-opacity:1;" d="M 180.996094 5.703125 L 183.476562 5.703125 L 183.476562 4.648438 L 180.996094 4.648438 L 180.996094 2.382812 L 179.765625 2.382812 L 179.765625 4.648438 L 178.261719 4.648438 L 178.261719 5.703125 L 179.726562 5.703125 L 179.726562 10.527344 C 179.726562 11.5625 179.960938 12.792969 181.191406 12.792969 C 182.402344 12.792969 183.222656 12.382812 183.769531 12.089844 L 183.496094 11.054688 C 182.871094 11.621094 182.207031 11.679688 181.894531 11.679688 C 181.09375 11.679688 180.996094 10.839844 180.996094 10.214844 Z M 180.996094 5.703125 "/>
<path style=" stroke:none;fill-rule:nonzero;fill:rgb(0%,0%,0%);fill-opacity:1;" d="M 191.828125 7.226562 C 191.828125 6.132812 191.59375 4.472656 189.425781 4.472656 C 188.195312 4.472656 187.375 5.175781 186.945312 5.722656 L 186.945312 0.175781 L 185.617188 0.175781 L 185.617188 12.617188 L 186.964844 12.617188 L 186.964844 8.144531 C 186.964844 7.050781 187.394531 5.546875 188.742188 5.546875 C 190.421875 5.546875 190.460938 6.71875 190.460938 7.34375 L 190.460938 12.617188 L 191.828125 12.617188 Z M 191.828125 7.226562 "/>
<path style=" stroke:none;fill-rule:nonzero;fill:rgb(0%,0%,0%);fill-opacity:1;" d="M 200.242188 7.363281 C 200.242188 5.644531 199.011719 4.394531 197.332031 4.394531 C 196.257812 4.394531 195.457031 4.628906 194.578125 5.136719 L 194.675781 6.328125 C 195.476562 5.742188 196.296875 5.429688 197.332031 5.429688 C 198.152344 5.429688 198.875 6.09375 198.875 7.402344 L 198.875 8.144531 C 198.074219 8.164062 197 8.222656 195.925781 8.574219 C 194.714844 9.003906 194.011719 9.667969 194.011719 10.546875 C 194.011719 11.347656 194.480469 12.792969 196.003906 12.792969 C 197 12.792969 198.25 12.5 198.914062 11.953125 L 198.914062 12.617188 L 200.242188 12.617188 Z M 198.875 10.214844 C 198.875 10.566406 198.875 10.996094 198.289062 11.367188 C 197.800781 11.660156 197.195312 11.71875 196.921875 11.71875 C 195.964844 11.71875 195.300781 11.191406 195.300781 10.546875 C 195.300781 9.316406 197.78125 9.042969 198.875 9.042969 Z M 198.875 10.214844 "/>
<path style=" stroke:none;fill-rule:nonzero;fill:rgb(0%,0%,0%);fill-opacity:1;" d="M 204.695312 5.703125 L 207.175781 5.703125 L 207.175781 4.648438 L 204.695312 4.648438 L 204.695312 2.382812 L 203.464844 2.382812 L 203.464844 4.648438 L 201.960938 4.648438 L 201.960938 5.703125 L 203.425781 5.703125 L 203.425781 10.527344 C 203.425781 11.5625 203.660156 12.792969 204.890625 12.792969 C 206.101562 12.792969 206.921875 12.382812 207.46875 12.089844 L 207.195312 11.054688 C 206.570312 11.621094 205.90625 11.679688 205.59375 11.679688 C 204.792969 11.679688 204.695312 10.839844 204.695312 10.214844 Z M 204.695312 5.703125 "/>
<path style=" stroke:none;fill-rule:nonzero;fill:rgb(0%,0%,0%);fill-opacity:1;" d="M 44.453125 34.074219 C 44.472656 33.996094 44.511719 33.898438 44.511719 33.800781 C 44.511719 33.625 44.316406 33.625 44.277344 33.625 C 44.277344 33.625 43.398438 33.703125 43.300781 33.703125 C 42.988281 33.722656 42.734375 33.761719 42.402344 33.78125 C 41.953125 33.820312 41.835938 33.839844 41.835938 34.152344 C 41.835938 34.347656 41.972656 34.347656 42.226562 34.347656 C 43.105469 34.347656 43.125 34.503906 43.125 34.679688 C 43.125 34.796875 43.085938 34.933594 43.066406 34.992188 L 41.972656 39.347656 C 41.777344 38.878906 41.289062 38.15625 40.351562 38.15625 C 38.339844 38.15625 36.152344 40.773438 36.152344 43.429688 C 36.152344 45.207031 37.1875 46.242188 38.398438 46.242188 C 39.394531 46.242188 40.234375 45.480469 40.742188 44.875 C 40.917969 45.949219 41.757812 46.242188 42.304688 46.242188 C 42.832031 46.242188 43.261719 45.929688 43.59375 45.285156 C 43.867188 44.660156 44.121094 43.566406 44.121094 43.507812 C 44.121094 43.410156 44.0625 43.332031 43.945312 43.332031 C 43.789062 43.332031 43.769531 43.429688 43.691406 43.703125 C 43.417969 44.757812 43.085938 45.890625 42.34375 45.890625 C 41.835938 45.890625 41.796875 45.421875 41.796875 45.070312 C 41.796875 44.992188 41.796875 44.621094 41.914062 44.113281 Z M 40.820312 43.9375 C 40.742188 44.230469 40.742188 44.269531 40.488281 44.621094 C 40.097656 45.109375 39.296875 45.890625 38.457031 45.890625 C 37.734375 45.890625 37.304688 45.226562 37.304688 44.171875 C 37.304688 43.175781 37.871094 41.164062 38.203125 40.421875 C 38.828125 39.171875 39.667969 38.527344 40.351562 38.527344 C 41.542969 38.527344 41.777344 39.992188 41.777344 40.128906 C 41.777344 40.148438 41.71875 40.382812 41.699219 40.421875 Z M 40.820312 43.9375 "/>
<path style=" stroke:none;fill-rule:nonzero;fill:rgb(0%,0%,0%);fill-opacity:1;" d="M 49.285156 48.078125 C 48.816406 48.761719 48.113281 49.367188 47.234375 49.367188 C 47.019531 49.367188 46.160156 49.328125 45.886719 48.507812 C 45.945312 48.527344 46.023438 48.527344 46.0625 48.527344 C 46.609375 48.527344 46.960938 48.058594 46.960938 47.648438 C 46.960938 47.238281 46.628906 47.082031 46.355469 47.082031 C 46.0625 47.082031 45.4375 47.296875 45.4375 48.175781 C 45.4375 49.09375 46.21875 49.71875 47.234375 49.71875 C 49.03125 49.71875 50.828125 48.078125 51.335938 46.085938 L 53.09375 39.09375 C 53.113281 38.996094 53.152344 38.898438 53.152344 38.78125 C 53.152344 38.527344 52.9375 38.332031 52.664062 38.332031 C 52.507812 38.332031 52.117188 38.410156 51.980469 38.957031 L 50.652344 44.210938 C 50.574219 44.542969 50.574219 44.582031 50.417969 44.777344 C 50.066406 45.285156 49.480469 45.890625 48.621094 45.890625 C 47.605469 45.890625 47.527344 44.894531 47.527344 44.425781 C 47.527344 43.390625 47.996094 42.023438 48.484375 40.714844 C 48.679688 40.207031 48.796875 39.953125 48.796875 39.601562 C 48.796875 38.839844 48.25 38.15625 47.371094 38.15625 C 45.730469 38.15625 45.066406 40.753906 45.066406 40.910156 C 45.066406 40.96875 45.125 41.066406 45.261719 41.066406 C 45.417969 41.066406 45.4375 40.988281 45.515625 40.734375 C 45.945312 39.230469 46.628906 38.527344 47.3125 38.527344 C 47.488281 38.527344 47.78125 38.527344 47.78125 39.113281 C 47.78125 39.582031 47.585938 40.089844 47.3125 40.773438 C 46.433594 43.117188 46.433594 43.722656 46.433594 44.152344 C 46.433594 45.851562 47.664062 46.242188 48.5625 46.242188 C 49.070312 46.242188 49.714844 46.085938 50.359375 45.421875 L 50.378906 45.441406 C 50.105469 46.496094 49.929688 47.199219 49.285156 48.078125 Z M 49.285156 48.078125 "/>
<path style=" stroke:none;fill-rule:nonzero;fill:rgb(0%,0%,0%);fill-opacity:1;" d="M 34.964844 53.28125 L 54.164062 53.28125 L 54.164062 54.035156 L 34.964844 54.035156 Z M 34.964844 53.28125 "/>
<path style=" stroke:none;fill-rule:nonzero;fill:rgb(0%,0%,0%);fill-opacity:1;" d="M 44.003906 58.523438 C 44.023438 58.445312 44.0625 58.347656 44.0625 58.25 C 44.0625 58.074219 43.867188 58.074219 43.828125 58.074219 C 43.828125 58.074219 42.949219 58.152344 42.851562 58.152344 C 42.539062 58.171875 42.285156 58.210938 41.953125 58.230469 C 41.503906 58.269531 41.386719 58.289062 41.386719 58.601562 C 41.386719 58.796875 41.523438 58.796875 41.777344 58.796875 C 42.65625 58.796875 42.675781 58.953125 42.675781 59.128906 C 42.675781 59.246094 42.636719 59.382812 42.617188 59.441406 L 41.523438 63.796875 C 41.328125 63.328125 40.839844 62.605469 39.902344 62.605469 C 37.890625 62.605469 35.703125 65.222656 35.703125 67.878906 C 35.703125 69.65625 36.738281 70.691406 37.949219 70.691406 C 38.945312 70.691406 39.785156 69.929688 40.292969 69.324219 C 40.46875 70.398438 41.308594 70.691406 41.855469 70.691406 C 42.382812 70.691406 42.8125 70.378906 43.144531 69.734375 C 43.417969 69.109375 43.671875 68.015625 43.671875 67.957031 C 43.671875 67.859375 43.613281 67.78125 43.496094 67.78125 C 43.339844 67.78125 43.320312 67.878906 43.242188 68.152344 C 42.96875 69.207031 42.636719 70.339844 41.894531 70.339844 C 41.386719 70.339844 41.347656 69.871094 41.347656 69.519531 C 41.347656 69.441406 41.347656 69.070312 41.464844 68.5625 Z M 40.371094 68.386719 C 40.292969 68.679688 40.292969 68.71875 40.039062 69.070312 C 39.648438 69.558594 38.847656 70.339844 38.007812 70.339844 C 37.285156 70.339844 36.855469 69.675781 36.855469 68.621094 C 36.855469 67.625 37.421875 65.613281 37.753906 64.871094 C 38.378906 63.621094 39.21875 62.976562 39.902344 62.976562 C 41.09375 62.976562 41.328125 64.441406 41.328125 64.578125 C 41.328125 64.597656 41.269531 64.832031 41.25 64.871094 Z M 40.371094 68.386719 "/>
<path style=" stroke:none;fill-rule:nonzero;fill:rgb(0%,0%,0%);fill-opacity:1;" d="M 52.625 63.191406 C 52.058594 63.308594 51.84375 63.738281 51.84375 64.070312 C 51.84375 64.5 52.175781 64.65625 52.429688 64.65625 C 52.976562 64.65625 53.347656 64.1875 53.347656 63.699219 C 53.347656 62.957031 52.488281 62.605469 51.726562 62.605469 C 50.632812 62.605469 50.027344 63.679688 49.871094 64.03125 C 49.460938 62.683594 48.347656 62.605469 48.015625 62.605469 C 46.199219 62.605469 45.222656 64.949219 45.222656 65.359375 C 45.222656 65.417969 45.300781 65.515625 45.417969 65.515625 C 45.554688 65.515625 45.59375 65.398438 45.632812 65.339844 C 46.238281 63.347656 47.449219 62.976562 47.957031 62.976562 C 48.777344 62.976562 48.933594 63.71875 48.933594 64.148438 C 48.933594 64.539062 48.835938 64.949219 48.601562 65.808594 L 47.996094 68.269531 C 47.742188 69.34375 47.214844 70.339844 46.257812 70.339844 C 46.179688 70.339844 45.730469 70.339844 45.339844 70.105469 C 45.984375 69.96875 46.140625 69.441406 46.140625 69.226562 C 46.140625 68.875 45.867188 68.660156 45.535156 68.660156 C 45.105469 68.660156 44.636719 69.03125 44.636719 69.597656 C 44.636719 70.359375 45.476562 70.691406 46.238281 70.691406 C 47.097656 70.691406 47.722656 70.007812 48.09375 69.285156 C 48.386719 70.339844 49.265625 70.691406 49.929688 70.691406 C 51.765625 70.691406 52.742188 68.347656 52.742188 67.957031 C 52.742188 67.859375 52.664062 67.78125 52.546875 67.78125 C 52.390625 67.78125 52.371094 67.878906 52.332031 68.015625 C 51.84375 69.597656 50.789062 70.339844 49.988281 70.339844 C 49.363281 70.339844 49.03125 69.871094 49.03125 69.128906 C 49.03125 68.738281 49.089844 68.445312 49.382812 67.273438 L 50.007812 64.832031 C 50.28125 63.757812 50.886719 62.976562 51.707031 62.976562 C 51.746094 62.976562 52.253906 62.976562 52.625 63.191406 Z M 52.625 63.191406 "/>
<path style=" stroke:none;fill-rule:nonzero;fill:rgb(0%,0%,0%);fill-opacity:1;" d="M 72.738281 52.417969 C 72.992188 52.417969 73.304688 52.417969 73.304688 52.085938 C 73.304688 51.753906 72.992188 51.753906 72.738281 51.753906 L 62.171875 51.753906 C 61.917969 51.753906 61.605469 51.753906 61.605469 52.066406 C 61.605469 52.417969 61.898438 52.417969 62.171875 52.417969 Z M 72.738281 55.738281 C 72.992188 55.738281 73.304688 55.738281 73.304688 55.425781 C 73.304688 55.074219 72.992188 55.074219 72.738281 55.074219 L 62.171875 55.074219 C 61.917969 55.074219 61.605469 55.074219 61.605469 55.40625 C 61.605469 55.738281 61.898438 55.738281 62.171875 55.738281 Z M 72.738281 55.738281 "/>
<path style=" stroke:none;fill-rule:nonzero;fill:rgb(0%,0%,0%);fill-opacity:1;" d="M 109.464844 33.625 L 106.964844 33.820312 L 106.964844 34.347656 C 108.195312 34.347656 108.332031 34.464844 108.332031 35.34375 L 108.332031 44.738281 C 108.332031 45.539062 108.136719 45.539062 106.964844 45.539062 L 106.964844 46.066406 C 107.472656 46.027344 108.351562 46.027344 108.898438 46.027344 C 109.425781 46.027344 110.324219 46.027344 110.832031 46.066406 L 110.832031 45.539062 C 109.679688 45.539062 109.464844 45.539062 109.464844 44.738281 Z M 109.464844 33.625 "/>
<path style=" stroke:none;fill-rule:nonzero;fill:rgb(0%,0%,0%);fill-opacity:1;" d="M 119.550781 42.238281 C 119.550781 39.914062 117.792969 38.078125 115.722656 38.078125 C 113.574219 38.078125 111.875 39.972656 111.875 42.238281 C 111.875 44.523438 113.652344 46.242188 115.703125 46.242188 C 117.8125 46.242188 119.550781 44.484375 119.550781 42.238281 Z M 115.722656 45.851562 C 115.058594 45.851562 114.257812 45.558594 113.730469 44.679688 C 113.242188 43.878906 113.222656 42.824219 113.222656 42.0625 C 113.222656 41.378906 113.222656 40.285156 113.789062 39.484375 C 114.277344 38.722656 115.078125 38.429688 115.703125 38.429688 C 116.40625 38.429688 117.148438 38.742188 117.636719 39.445312 C 118.203125 40.265625 118.203125 41.398438 118.203125 42.0625 C 118.203125 42.6875 118.203125 43.800781 117.734375 44.640625 C 117.226562 45.519531 116.40625 45.851562 115.722656 45.851562 Z M 115.722656 45.851562 "/>
<path style=" stroke:none;fill-rule:nonzero;fill:rgb(0%,0%,0%);fill-opacity:1;" d="M 122.308594 42.824219 C 123.148438 43.371094 123.871094 43.371094 124.066406 43.371094 C 125.6875 43.371094 126.878906 42.160156 126.878906 40.773438 C 126.878906 40.285156 126.742188 39.621094 126.175781 39.035156 C 126.859375 38.3125 127.71875 38.3125 127.796875 38.3125 C 127.875 38.3125 127.953125 38.3125 128.03125 38.351562 C 127.855469 38.429688 127.757812 38.605469 127.757812 38.800781 C 127.757812 39.054688 127.933594 39.269531 128.226562 39.269531 C 128.382812 39.269531 128.695312 39.171875 128.695312 38.78125 C 128.695312 38.46875 128.441406 37.960938 127.816406 37.960938 C 126.878906 37.960938 126.195312 38.527344 125.941406 38.800781 C 125.394531 38.390625 124.769531 38.15625 124.085938 38.15625 C 122.484375 38.15625 121.273438 39.386719 121.273438 40.753906 C 121.273438 41.789062 121.898438 42.453125 122.074219 42.609375 C 121.859375 42.882812 121.546875 43.390625 121.546875 44.09375 C 121.546875 45.128906 122.171875 45.578125 122.308594 45.675781 C 121.488281 45.910156 120.667969 46.554688 120.667969 47.492188 C 120.667969 48.722656 122.347656 49.738281 124.554688 49.738281 C 126.683594 49.738281 128.460938 48.800781 128.460938 47.453125 C 128.460938 47.003906 128.34375 45.949219 127.269531 45.382812 C 126.351562 44.914062 125.453125 44.914062 123.910156 44.914062 C 122.816406 44.914062 122.699219 44.914062 122.367188 44.582031 C 122.191406 44.40625 122.035156 44.054688 122.035156 43.683594 C 122.035156 43.371094 122.132812 43.078125 122.308594 42.824219 Z M 124.085938 43 C 122.503906 43 122.503906 41.183594 122.503906 40.773438 C 122.503906 40.460938 122.503906 39.71875 122.816406 39.230469 C 123.148438 38.722656 123.695312 38.527344 124.066406 38.527344 C 125.648438 38.527344 125.648438 40.34375 125.648438 40.753906 C 125.648438 41.085938 125.648438 41.808594 125.335938 42.296875 C 125.003906 42.824219 124.457031 43 124.085938 43 Z M 124.574219 49.367188 C 122.855469 49.367188 121.546875 48.488281 121.546875 47.472656 C 121.546875 47.316406 121.585938 46.613281 122.25 46.164062 C 122.660156 45.910156 122.816406 45.910156 124.066406 45.910156 C 125.550781 45.910156 127.582031 45.910156 127.582031 47.472656 C 127.582031 48.527344 126.214844 49.367188 124.574219 49.367188 Z M 124.574219 49.367188 "/>
<path style=" stroke:none;fill-rule:nonzero;fill:rgb(0%,0%,0%);fill-opacity:1;" d="M 140.523438 38.742188 C 139.957031 38.859375 139.742188 39.289062 139.742188 39.621094 C 139.742188 40.050781 140.074219 40.207031 140.328125 40.207031 C 140.875 40.207031 141.246094 39.738281 141.246094 39.25 C 141.246094 38.507812 140.386719 38.15625 139.625 38.15625 C 138.53125 38.15625 137.925781 39.230469 137.769531 39.582031 C 137.359375 38.234375 136.246094 38.15625 135.914062 38.15625 C 134.097656 38.15625 133.121094 40.5 133.121094 40.910156 C 133.121094 40.96875 133.199219 41.066406 133.316406 41.066406 C 133.453125 41.066406 133.492188 40.949219 133.53125 40.890625 C 134.136719 38.898438 135.347656 38.527344 135.855469 38.527344 C 136.675781 38.527344 136.832031 39.269531 136.832031 39.699219 C 136.832031 40.089844 136.734375 40.5 136.5 41.359375 L 135.894531 43.820312 C 135.640625 44.894531 135.113281 45.890625 134.15625 45.890625 C 134.078125 45.890625 133.628906 45.890625 133.238281 45.65625 C 133.882812 45.519531 134.039062 44.992188 134.039062 44.777344 C 134.039062 44.425781 133.765625 44.210938 133.433594 44.210938 C 133.003906 44.210938 132.535156 44.582031 132.535156 45.148438 C 132.535156 45.910156 133.375 46.242188 134.136719 46.242188 C 134.996094 46.242188 135.621094 45.558594 135.992188 44.835938 C 136.285156 45.890625 137.164062 46.242188 137.828125 46.242188 C 139.664062 46.242188 140.640625 43.898438 140.640625 43.507812 C 140.640625 43.410156 140.5625 43.332031 140.445312 43.332031 C 140.289062 43.332031 140.269531 43.429688 140.230469 43.566406 C 139.742188 45.148438 138.6875 45.890625 137.886719 45.890625 C 137.261719 45.890625 136.929688 45.421875 136.929688 44.679688 C 136.929688 44.289062 136.988281 43.996094 137.28125 42.824219 L 137.90625 40.382812 C 138.179688 39.308594 138.785156 38.527344 139.605469 38.527344 C 139.644531 38.527344 140.152344 38.527344 140.523438 38.742188 Z M 140.523438 38.742188 "/>
<path style=" stroke:none;fill-rule:nonzero;fill:rgb(0%,0%,0%);fill-opacity:1;" d="M 80.714844 53.28125 L 167.714844 53.28125 L 167.714844 54.035156 L 80.714844 54.035156 Z M 80.714844 53.28125 "/>
<path style=" stroke:none;fill-rule:nonzero;fill:rgb(0%,0%,0%);fill-opacity:1;" d="M 85.203125 77.390625 L 85.203125 76.746094 L 83.464844 76.746094 L 83.464844 60.125 L 85.203125 60.125 L 85.203125 59.480469 L 82.800781 59.480469 L 82.800781 77.390625 Z M 85.203125 77.390625 "/>
<path style=" stroke:none;fill-rule:nonzero;fill:rgb(0%,0%,0%);fill-opacity:1;" d="M 88.765625 60.476562 L 86.265625 60.671875 L 86.265625 61.199219 C 87.496094 61.199219 87.632812 61.316406 87.632812 62.195312 L 87.632812 71.589844 C 87.632812 72.390625 87.4375 72.390625 86.265625 72.390625 L 86.265625 72.917969 C 86.773438 72.878906 87.652344 72.878906 88.199219 72.878906 C 88.726562 72.878906 89.625 72.878906 90.132812 72.917969 L 90.132812 72.390625 C 88.980469 72.390625 88.765625 72.390625 88.765625 71.589844 Z M 88.765625 60.476562 "/>
<path style=" stroke:none;fill-rule:nonzero;fill:rgb(0%,0%,0%);fill-opacity:1;" d="M 98.851562 69.089844 C 98.851562 66.765625 97.09375 64.929688 95.023438 64.929688 C 92.875 64.929688 91.175781 66.824219 91.175781 69.089844 C 91.175781 71.375 92.953125 73.09375 95.003906 73.09375 C 97.113281 73.09375 98.851562 71.335938 98.851562 69.089844 Z M 95.023438 72.703125 C 94.359375 72.703125 93.558594 72.410156 93.03125 71.53125 C 92.542969 70.730469 92.523438 69.675781 92.523438 68.914062 C 92.523438 68.230469 92.523438 67.136719 93.089844 66.335938 C 93.578125 65.574219 94.378906 65.28125 95.003906 65.28125 C 95.707031 65.28125 96.449219 65.59375 96.9375 66.296875 C 97.503906 67.117188 97.503906 68.25 97.503906 68.914062 C 97.503906 69.539062 97.503906 70.652344 97.035156 71.492188 C 96.527344 72.371094 95.707031 72.703125 95.023438 72.703125 Z M 95.023438 72.703125 "/>
<path style=" stroke:none;fill-rule:nonzero;fill:rgb(0%,0%,0%);fill-opacity:1;" d="M 101.609375 69.675781 C 102.449219 70.222656 103.171875 70.222656 103.367188 70.222656 C 104.988281 70.222656 106.179688 69.011719 106.179688 67.625 C 106.179688 67.136719 106.042969 66.472656 105.476562 65.886719 C 106.160156 65.164062 107.019531 65.164062 107.097656 65.164062 C 107.175781 65.164062 107.253906 65.164062 107.332031 65.203125 C 107.15625 65.28125 107.058594 65.457031 107.058594 65.652344 C 107.058594 65.90625 107.234375 66.121094 107.527344 66.121094 C 107.683594 66.121094 107.996094 66.023438 107.996094 65.632812 C 107.996094 65.320312 107.742188 64.8125 107.117188 64.8125 C 106.179688 64.8125 105.496094 65.378906 105.242188 65.652344 C 104.695312 65.242188 104.070312 65.007812 103.386719 65.007812 C 101.785156 65.007812 100.574219 66.238281 100.574219 67.605469 C 100.574219 68.640625 101.199219 69.304688 101.375 69.460938 C 101.160156 69.734375 100.847656 70.242188 100.847656 70.945312 C 100.847656 71.980469 101.472656 72.429688 101.609375 72.527344 C 100.789062 72.761719 99.96875 73.40625 99.96875 74.34375 C 99.96875 75.574219 101.648438 76.589844 103.855469 76.589844 C 105.984375 76.589844 107.761719 75.652344 107.761719 74.304688 C 107.761719 73.855469 107.644531 72.800781 106.570312 72.234375 C 105.652344 71.765625 104.753906 71.765625 103.210938 71.765625 C 102.117188 71.765625 102 71.765625 101.667969 71.433594 C 101.492188 71.257812 101.335938 70.90625 101.335938 70.535156 C 101.335938 70.222656 101.433594 69.929688 101.609375 69.675781 Z M 103.386719 69.851562 C 101.804688 69.851562 101.804688 68.035156 101.804688 67.625 C 101.804688 67.3125 101.804688 66.570312 102.117188 66.082031 C 102.449219 65.574219 102.996094 65.378906 103.367188 65.378906 C 104.949219 65.378906 104.949219 67.195312 104.949219 67.605469 C 104.949219 67.9375 104.949219 68.660156 104.636719 69.148438 C 104.304688 69.675781 103.757812 69.851562 103.386719 69.851562 Z M 103.875 76.21875 C 102.15625 76.21875 100.847656 75.339844 100.847656 74.324219 C 100.847656 74.167969 100.886719 73.464844 101.550781 73.015625 C 101.960938 72.761719 102.117188 72.761719 103.367188 72.761719 C 104.851562 72.761719 106.882812 72.761719 106.882812 74.324219 C 106.882812 75.378906 105.515625 76.21875 103.875 76.21875 Z M 103.875 76.21875 "/>
<path style=" stroke:none;fill-rule:nonzero;fill:rgb(0%,0%,0%);fill-opacity:1;" d="M 117.148438 77.273438 C 117.148438 77.214844 117.148438 77.175781 116.855469 76.882812 C 115.058594 75.066406 114.0625 72.117188 114.0625 68.445312 C 114.0625 64.96875 114.902344 61.980469 116.972656 59.871094 C 117.148438 59.695312 117.148438 59.675781 117.148438 59.617188 C 117.148438 59.5 117.070312 59.480469 116.992188 59.480469 C 116.757812 59.480469 115.292969 60.769531 114.414062 62.527344 C 113.496094 64.324219 113.085938 66.257812 113.085938 68.445312 C 113.085938 70.046875 113.339844 72.175781 114.277344 74.109375 C 115.332031 76.257812 116.796875 77.410156 116.992188 77.410156 C 117.070312 77.410156 117.148438 77.390625 117.148438 77.273438 Z M 117.148438 77.273438 "/>
<path style=" stroke:none;fill-rule:nonzero;fill:rgb(0%,0%,0%);fill-opacity:1;" d="M 126.574219 65.59375 C 126.007812 65.710938 125.792969 66.140625 125.792969 66.472656 C 125.792969 66.902344 126.125 67.058594 126.378906 67.058594 C 126.925781 67.058594 127.296875 66.589844 127.296875 66.101562 C 127.296875 65.359375 126.4375 65.007812 125.675781 65.007812 C 124.582031 65.007812 123.976562 66.082031 123.820312 66.433594 C 123.410156 65.085938 122.296875 65.007812 121.964844 65.007812 C 120.148438 65.007812 119.171875 67.351562 119.171875 67.761719 C 119.171875 67.820312 119.25 67.917969 119.367188 67.917969 C 119.503906 67.917969 119.542969 67.800781 119.582031 67.742188 C 120.1875 65.75 121.398438 65.378906 121.90625 65.378906 C 122.726562 65.378906 122.882812 66.121094 122.882812 66.550781 C 122.882812 66.941406 122.785156 67.351562 122.550781 68.210938 L 121.945312 70.671875 C 121.691406 71.746094 121.164062 72.742188 120.207031 72.742188 C 120.128906 72.742188 119.679688 72.742188 119.289062 72.507812 C 119.933594 72.371094 120.089844 71.84375 120.089844 71.628906 C 120.089844 71.277344 119.816406 71.0625 119.484375 71.0625 C 119.054688 71.0625 118.585938 71.433594 118.585938 72 C 118.585938 72.761719 119.425781 73.09375 120.1875 73.09375 C 121.046875 73.09375 121.671875 72.410156 122.042969 71.6875 C 122.335938 72.742188 123.214844 73.09375 123.878906 73.09375 C 125.714844 73.09375 126.691406 70.75 126.691406 70.359375 C 126.691406 70.261719 126.613281 70.183594 126.496094 70.183594 C 126.339844 70.183594 126.320312 70.28125 126.28125 70.417969 C 125.792969 72 124.738281 72.742188 123.9375 72.742188 C 123.3125 72.742188 122.980469 72.273438 122.980469 71.53125 C 122.980469 71.140625 123.039062 70.847656 123.332031 69.675781 L 123.957031 67.234375 C 124.230469 66.160156 124.835938 65.378906 125.65625 65.378906 C 125.695312 65.378906 126.203125 65.378906 126.574219 65.59375 Z M 126.574219 65.59375 "/>
<path style=" stroke:none;fill-rule:nonzero;fill:rgb(0%,0%,0%);fill-opacity:1;" d="M 135.46875 68.445312 C 135.46875 67.917969 135.039062 67.488281 134.53125 67.488281 C 134.003906 67.488281 133.574219 67.917969 133.574219 68.445312 C 133.574219 68.953125 134.003906 69.382812 134.53125 69.382812 C 135.039062 69.382812 135.46875 68.953125 135.46875 68.445312 Z M 135.46875 68.445312 "/>
<path style=" stroke:none;fill-rule:nonzero;fill:rgb(0%,0%,0%);fill-opacity:1;" d="M 144.234375 68.757812 C 144.722656 68.757812 145.953125 68.71875 146.8125 68.40625 C 148.160156 67.878906 148.296875 66.84375 148.296875 66.511719 C 148.296875 65.730469 147.613281 65.007812 146.421875 65.007812 C 144.546875 65.007812 141.832031 66.707031 141.832031 69.910156 C 141.832031 71.785156 142.90625 73.09375 144.546875 73.09375 C 146.988281 73.09375 148.53125 71.199219 148.53125 70.964844 C 148.53125 70.847656 148.414062 70.769531 148.355469 70.769531 C 148.296875 70.769531 148.277344 70.789062 148.121094 70.945312 C 146.96875 72.46875 145.269531 72.742188 144.585938 72.742188 C 143.550781 72.742188 143.023438 71.941406 143.023438 70.613281 C 143.023438 70.359375 143.023438 69.910156 143.296875 68.757812 Z M 143.375 68.40625 C 144.15625 65.632812 145.855469 65.378906 146.421875 65.378906 C 147.222656 65.378906 147.75 65.828125 147.75 66.511719 C 147.75 68.40625 144.878906 68.40625 144.136719 68.40625 Z M 143.375 68.40625 "/>
<path style=" stroke:none;fill-rule:nonzero;fill:rgb(0%,0%,0%);fill-opacity:1;" d="M 154.1875 68.445312 C 154.1875 67.097656 154.011719 64.871094 152.996094 62.78125 C 151.941406 60.632812 150.476562 59.480469 150.28125 59.480469 C 150.203125 59.480469 150.105469 59.5 150.105469 59.617188 C 150.105469 59.675781 150.105469 59.695312 150.417969 60.007812 C 152.214844 61.824219 153.210938 64.773438 153.210938 68.445312 C 153.210938 71.921875 152.371094 74.910156 150.300781 77.019531 C 150.105469 77.175781 150.105469 77.214844 150.105469 77.273438 C 150.105469 77.390625 150.203125 77.410156 150.28125 77.410156 C 150.515625 77.410156 151.980469 76.121094 152.859375 74.363281 C 153.777344 72.546875 154.1875 70.613281 154.1875 68.445312 Z M 154.1875 68.445312 "/>
<path style=" stroke:none;fill-rule:nonzero;fill:rgb(0%,0%,0%);fill-opacity:1;" d="M 158.804688 59.480469 L 156.402344 59.480469 L 156.402344 60.125 L 158.140625 60.125 L 158.140625 76.746094 L 156.402344 76.746094 L 156.402344 77.390625 L 158.804688 77.390625 Z M 158.804688 59.480469 "/>
<path style=" stroke:none;fill-rule:nonzero;fill:rgb(0%,0%,0%);fill-opacity:1;" d="M 162.410156 63.261719 L 163.738281 61.972656 C 165.671875 60.253906 166.414062 59.589844 166.414062 58.339844 C 166.414062 56.914062 165.300781 55.917969 163.777344 55.917969 C 162.371094 55.917969 161.453125 57.070312 161.453125 58.183594 C 161.453125 58.867188 162.078125 58.867188 162.117188 58.867188 C 162.332031 58.867188 162.761719 58.730469 162.761719 58.203125 C 162.761719 57.890625 162.527344 57.558594 162.097656 57.558594 C 162 57.558594 161.980469 57.558594 161.941406 57.578125 C 162.214844 56.757812 162.898438 56.308594 163.621094 56.308594 C 164.753906 56.308594 165.28125 57.324219 165.28125 58.339844 C 165.28125 59.335938 164.675781 60.3125 163.972656 61.09375 L 161.589844 63.75 C 161.453125 63.886719 161.453125 63.925781 161.453125 64.21875 L 166.082031 64.21875 L 166.414062 62.050781 L 166.121094 62.050781 C 166.042969 62.421875 165.964844 62.96875 165.828125 63.164062 C 165.75 63.261719 164.929688 63.261719 164.65625 63.261719 Z M 162.410156 63.261719 "/>
</g>
</svg>
