<?xml version="1.0" encoding="UTF-8"?>
<svg xmlns="http://www.w3.org/2000/svg" xmlns:xlink="http://www.w3.org/1999/xlink" width="286.23606pt" height="148.05779pt" viewBox="0 0 286.23606 148.05779" version="1.1">
<g id="surface1">
<path style=" stroke:none;fill-rule:nonzero;fill:rgb(0%,0%,0%);fill-opacity:1;" d="M 10.839844 16.796875 C 11.445312 15.820312 12.011719 15.390625 12.929688 15.332031 C 13.105469 15.3125 13.242188 15.3125 13.242188 14.980469 C 13.242188 14.921875 13.203125 14.804688 13.046875 14.804688 C 12.734375 14.804688 11.953125 14.84375 11.640625 14.84375 C 11.113281 14.84375 10.566406 14.804688 10.078125 14.804688 C 9.921875 14.804688 9.746094 14.804688 9.746094 15.136719 C 9.746094 15.3125 9.921875 15.332031 9.980469 15.332031 C 10.644531 15.371094 10.722656 15.703125 10.722656 15.917969 C 10.722656 16.191406 10.46875 16.601562 10.449219 16.621094 L 4.824219 25.546875 L 3.574219 15.878906 C 3.574219 15.351562 4.492188 15.332031 4.6875 15.332031 C 4.960938 15.332031 5.117188 15.332031 5.117188 14.980469 C 5.117188 14.804688 4.921875 14.804688 4.882812 14.804688 C 4.570312 14.804688 4.21875 14.84375 3.90625 14.84375 L 2.910156 14.84375 C 1.601562 14.84375 1.054688 14.804688 1.035156 14.804688 C 0.9375 14.804688 0.722656 14.804688 0.722656 15.136719 C 0.722656 15.332031 0.839844 15.332031 1.132812 15.332031 C 2.050781 15.332031 2.089844 15.488281 2.148438 15.9375 L 3.574219 26.992188 C 3.632812 27.382812 3.632812 27.421875 3.886719 27.421875 C 4.101562 27.421875 4.199219 27.382812 4.375 27.089844 Z M 10.839844 16.796875 "/>
<path style=" stroke:none;fill-rule:nonzero;fill:rgb(0%,0%,0%);fill-opacity:1;" d="M 16.992188 13.632812 C 17.070312 13.476562 17.109375 13.378906 17.109375 13.242188 C 17.109375 12.890625 16.796875 12.578125 16.40625 12.578125 C 16.054688 12.578125 15.820312 12.8125 15.742188 13.144531 L 14.257812 18.59375 C 14.257812 18.613281 14.21875 18.75 14.21875 18.769531 C 14.21875 18.90625 14.53125 18.984375 14.628906 18.984375 C 14.707031 18.984375 14.726562 18.945312 14.785156 18.789062 Z M 16.992188 13.632812 "/>
<path style=" stroke:none;fill-rule:nonzero;fill:rgb(0%,0%,0%);fill-opacity:1;" d="M 35.105469 21.25 C 35.359375 21.25 35.671875 21.25 35.671875 20.917969 C 35.671875 20.585938 35.359375 20.585938 35.105469 20.585938 L 24.539062 20.585938 C 24.285156 20.585938 23.972656 20.585938 23.972656 20.898438 C 23.972656 21.25 24.265625 21.25 24.539062 21.25 Z M 35.105469 24.570312 C 35.359375 24.570312 35.671875 24.570312 35.671875 24.257812 C 35.671875 23.90625 35.359375 23.90625 35.105469 23.90625 L 24.539062 23.90625 C 24.285156 23.90625 23.972656 23.90625 23.972656 24.238281 C 23.972656 24.570312 24.265625 24.570312 24.539062 24.570312 Z M 35.105469 24.570312 "/>
<path style=" stroke:none;fill-rule:nonzero;fill:rgb(0%,0%,0%);fill-opacity:1;" d="M 54.15625 43.808594 C 54.15625 43.75 54.117188 43.710938 54.078125 43.652344 C 53.414062 42.988281 52.203125 41.796875 51.011719 39.863281 C 48.121094 35.234375 46.8125 29.394531 46.8125 22.5 C 46.8125 17.675781 47.457031 11.445312 50.425781 6.113281 C 51.832031 3.554688 53.296875 2.089844 54.097656 1.308594 C 54.15625 1.25 54.15625 1.210938 54.15625 1.152344 C 54.15625 0.976562 54.019531 0.976562 53.765625 0.976562 C 53.511719 0.976562 53.492188 0.976562 53.21875 1.25 C 47.203125 6.71875 45.328125 14.921875 45.328125 22.480469 C 45.328125 29.53125 46.949219 36.621094 51.5 41.992188 C 51.851562 42.402344 52.535156 43.125 53.277344 43.789062 C 53.492188 44.003906 53.511719 44.003906 53.765625 44.003906 C 54.019531 44.003906 54.15625 44.003906 54.15625 43.808594 Z M 54.15625 43.808594 "/>
<path style=" stroke:none;fill-rule:nonzero;fill:rgb(0%,0%,0%);fill-opacity:1;" d="M 60.945312 8.144531 L 62.957031 8.144531 C 62.488281 10.15625 62.175781 11.464844 62.175781 12.890625 C 62.175781 13.144531 62.175781 15.078125 62.917969 15.078125 C 63.289062 15.078125 63.621094 14.746094 63.621094 14.433594 C 63.621094 14.355469 63.621094 14.316406 63.484375 14.042969 C 62.996094 12.8125 62.996094 11.269531 62.996094 11.132812 C 62.996094 11.035156 62.996094 9.765625 63.386719 8.144531 L 65.378906 8.144531 C 65.613281 8.144531 66.21875 8.144531 66.21875 7.578125 C 66.21875 7.167969 65.867188 7.167969 65.554688 7.167969 L 59.65625 7.167969 C 59.246094 7.167969 58.621094 7.167969 57.800781 8.046875 C 57.332031 8.574219 56.765625 9.53125 56.765625 9.628906 C 56.765625 9.746094 56.84375 9.765625 56.960938 9.765625 C 57.078125 9.765625 57.097656 9.726562 57.195312 9.609375 C 58.132812 8.144531 59.050781 8.144531 59.5 8.144531 L 60.535156 8.144531 C 60.125 9.492188 59.695312 11.054688 58.210938 14.179688 C 58.074219 14.472656 58.074219 14.511719 58.074219 14.609375 C 58.074219 15 58.386719 15.078125 58.5625 15.078125 C 59.070312 15.078125 59.226562 14.609375 59.441406 13.867188 C 59.714844 12.949219 59.714844 12.910156 59.910156 12.1875 Z M 60.945312 8.144531 "/>
<path style=" stroke:none;fill-rule:nonzero;fill:rgb(0%,0%,0%);fill-opacity:1;" d="M 73.378906 4.042969 C 73.535156 3.359375 73.59375 3.183594 75.175781 3.183594 C 75.644531 3.183594 75.78125 3.183594 75.78125 2.832031 C 75.78125 2.65625 75.585938 2.65625 75.507812 2.65625 C 75.15625 2.65625 74.746094 2.695312 74.375 2.695312 L 71.972656 2.695312 C 71.640625 2.695312 71.25 2.65625 70.898438 2.65625 C 70.761719 2.65625 70.566406 2.65625 70.566406 2.988281 C 70.566406 3.183594 70.722656 3.183594 70.996094 3.183594 C 72.089844 3.183594 72.089844 3.320312 72.089844 3.515625 C 72.089844 3.554688 72.089844 3.652344 72.011719 3.925781 L 69.589844 13.574219 C 69.433594 14.199219 69.394531 14.375 68.144531 14.375 C 67.792969 14.375 67.617188 14.375 67.617188 14.707031 C 67.617188 14.902344 67.734375 14.902344 68.085938 14.902344 L 76.113281 14.902344 C 76.523438 14.902344 76.523438 14.882812 76.660156 14.570312 L 78.046875 10.742188 C 78.066406 10.644531 78.105469 10.546875 78.105469 10.488281 C 78.105469 10.390625 78.027344 10.3125 77.929688 10.3125 C 77.910156 10.3125 77.832031 10.3125 77.792969 10.390625 C 77.753906 10.410156 77.753906 10.429688 77.617188 10.78125 C 77.03125 12.363281 76.230469 14.375 73.203125 14.375 L 71.484375 14.375 C 71.230469 14.375 71.191406 14.375 71.074219 14.355469 C 70.878906 14.355469 70.859375 14.316406 70.859375 14.160156 C 70.859375 14.042969 70.898438 13.925781 70.9375 13.769531 Z M 73.378906 4.042969 "/>
<path style=" stroke:none;fill-rule:nonzero;fill:rgb(0%,0%,0%);fill-opacity:1;" d="M 82.410156 3.90625 C 83.425781 3.574219 84.148438 2.714844 84.148438 1.71875 C 84.148438 0.703125 83.054688 0 81.863281 0 C 80.613281 0 79.65625 0.742188 79.65625 1.699219 C 79.65625 2.109375 79.929688 2.34375 80.300781 2.34375 C 80.671875 2.34375 80.925781 2.070312 80.925781 1.699219 C 80.925781 1.09375 80.339844 1.09375 80.164062 1.09375 C 80.535156 0.46875 81.355469 0.3125 81.804688 0.3125 C 82.332031 0.3125 83.015625 0.585938 83.015625 1.699219 C 83.015625 1.855469 82.976562 2.578125 82.664062 3.125 C 82.292969 3.730469 81.863281 3.769531 81.550781 3.769531 C 81.453125 3.789062 81.160156 3.808594 81.0625 3.808594 C 80.964844 3.828125 80.886719 3.847656 80.886719 3.964844 C 80.886719 4.101562 80.964844 4.101562 81.179688 4.101562 L 81.726562 4.101562 C 82.742188 4.101562 83.210938 4.941406 83.210938 6.171875 C 83.210938 7.871094 82.351562 8.222656 81.804688 8.222656 C 81.257812 8.222656 80.320312 8.007812 79.890625 7.285156 C 80.320312 7.34375 80.710938 7.070312 80.710938 6.601562 C 80.710938 6.152344 80.378906 5.898438 80.027344 5.898438 C 79.714844 5.898438 79.324219 6.074219 79.324219 6.621094 C 79.324219 7.753906 80.476562 8.574219 81.84375 8.574219 C 83.367188 8.574219 84.5 7.441406 84.5 6.171875 C 84.5 5.15625 83.699219 4.179688 82.410156 3.90625 Z M 82.410156 3.90625 "/>
<path style=" stroke:none;fill-rule:nonzero;fill:rgb(0%,0%,0%);fill-opacity:1;" d="M 56.28125 22.113281 L 85.679688 22.113281 L 85.679688 22.867188 L 56.28125 22.867188 Z M 56.28125 22.113281 "/>
<path style=" stroke:none;fill-rule:nonzero;fill:rgb(0%,0%,0%);fill-opacity:1;" d="M 69.945312 32.90625 C 69.632812 32.925781 69.574219 32.945312 69.574219 33.121094 C 69.574219 33.296875 69.652344 33.296875 69.984375 33.296875 L 70.804688 33.296875 C 72.328125 33.296875 73.011719 34.546875 73.011719 36.265625 C 73.011719 38.609375 71.78125 39.234375 70.902344 39.234375 C 70.042969 39.234375 68.578125 38.824219 68.070312 37.652344 C 68.636719 37.730469 69.164062 37.417969 69.164062 36.773438 C 69.164062 36.246094 68.773438 35.894531 68.285156 35.894531 C 67.855469 35.894531 67.386719 36.148438 67.386719 36.832031 C 67.386719 38.414062 68.96875 39.722656 70.960938 39.722656 C 73.089844 39.722656 74.671875 38.101562 74.671875 36.285156 C 74.671875 34.644531 73.34375 33.335938 71.625 33.042969 C 73.1875 32.59375 74.183594 31.285156 74.183594 29.878906 C 74.183594 28.472656 72.71875 27.4375 70.980469 27.4375 C 69.183594 27.4375 67.855469 28.53125 67.855469 29.839844 C 67.855469 30.542969 68.421875 30.699219 68.695312 30.699219 C 69.066406 30.699219 69.496094 30.425781 69.496094 29.878906 C 69.496094 29.3125 69.066406 29.058594 68.675781 29.058594 C 68.558594 29.058594 68.519531 29.058594 68.480469 29.078125 C 69.164062 27.867188 70.84375 27.867188 70.921875 27.867188 C 71.527344 27.867188 72.679688 28.121094 72.679688 29.878906 C 72.679688 30.230469 72.640625 31.226562 72.113281 32.007812 C 71.566406 32.789062 70.960938 32.847656 70.472656 32.867188 Z M 69.945312 32.90625 "/>
<path style=" stroke:none;fill-rule:nonzero;fill:rgb(0%,0%,0%);fill-opacity:1;" d="M 96.648438 22.5 C 96.648438 15.449219 95.027344 8.359375 90.476562 2.988281 C 90.125 2.578125 89.441406 1.835938 88.699219 1.191406 C 88.484375 0.976562 88.445312 0.976562 88.191406 0.976562 C 87.976562 0.976562 87.820312 0.976562 87.820312 1.152344 C 87.820312 1.230469 87.898438 1.308594 87.9375 1.347656 C 88.5625 1.992188 89.753906 3.183594 90.964844 5.117188 C 93.855469 9.746094 95.164062 15.585938 95.164062 22.480469 C 95.164062 27.304688 94.519531 33.515625 91.550781 38.867188 C 90.144531 41.40625 88.640625 42.910156 87.898438 43.652344 C 87.859375 43.710938 87.820312 43.769531 87.820312 43.808594 C 87.820312 44.003906 87.976562 44.003906 88.191406 44.003906 C 88.445312 44.003906 88.484375 44.003906 88.757812 43.730469 C 94.753906 38.261719 96.648438 30.039062 96.648438 22.5 Z M 96.648438 22.5 "/>
<path style=" stroke:none;fill-rule:nonzero;fill:rgb(0%,0%,0%);fill-opacity:1;" d="M 107.734375 22.578125 C 107.734375 22.050781 107.304688 21.621094 106.796875 21.621094 C 106.269531 21.621094 105.839844 22.050781 105.839844 22.578125 C 105.839844 23.085938 106.269531 23.515625 106.796875 23.515625 C 107.304688 23.515625 107.734375 23.085938 107.734375 22.578125 Z M 107.734375 22.578125 "/>
<path style=" stroke:none;fill-rule:nonzero;fill:rgb(0%,0%,0%);fill-opacity:1;" d="M 119.175781 19.472656 C 119.175781 19.140625 119.175781 19.0625 119 19.0625 C 118.863281 19.0625 118.511719 19.453125 118.394531 19.609375 C 117.828125 19.160156 117.28125 19.0625 116.695312 19.0625 C 114.527344 19.0625 113.882812 20.234375 113.882812 21.230469 C 113.882812 21.425781 113.882812 22.050781 114.566406 22.675781 C 115.152344 23.183594 115.757812 23.300781 116.578125 23.457031 C 117.554688 23.652344 117.789062 23.710938 118.238281 24.082031 C 118.570312 24.335938 118.804688 24.746094 118.804688 25.234375 C 118.804688 26.015625 118.355469 26.875 116.773438 26.875 C 115.601562 26.875 114.722656 26.191406 114.332031 24.394531 C 114.273438 24.082031 114.273438 24.0625 114.253906 24.042969 C 114.214844 23.964844 114.136719 23.964844 114.078125 23.964844 C 113.882812 23.964844 113.882812 24.0625 113.882812 24.375 L 113.882812 26.816406 C 113.882812 27.148438 113.882812 27.226562 114.058594 27.226562 C 114.15625 27.226562 114.175781 27.207031 114.488281 26.835938 C 114.566406 26.71875 114.566406 26.679688 114.839844 26.386719 C 115.523438 27.226562 116.480469 27.226562 116.792969 27.226562 C 118.667969 27.226562 119.605469 26.191406 119.605469 24.765625 C 119.605469 23.808594 119.019531 23.222656 118.863281 23.066406 C 118.21875 22.519531 117.730469 22.402344 116.539062 22.1875 C 116.011719 22.089844 114.703125 21.835938 114.703125 20.761719 C 114.703125 20.195312 115.074219 19.375 116.695312 19.375 C 118.648438 19.375 118.746094 21.035156 118.785156 21.601562 C 118.804688 21.738281 118.921875 21.738281 118.980469 21.738281 C 119.175781 21.738281 119.175781 21.660156 119.175781 21.328125 Z M 119.175781 19.472656 "/>
<path style=" stroke:none;fill-rule:nonzero;fill:rgb(0%,0%,0%);fill-opacity:1;" d="M 123.320312 16.015625 C 123.320312 15.546875 122.929688 15.136719 122.441406 15.136719 C 121.972656 15.136719 121.582031 15.507812 121.582031 15.996094 C 121.582031 16.523438 122.011719 16.875 122.441406 16.875 C 122.988281 16.875 123.320312 16.40625 123.320312 16.015625 Z M 120.839844 19.335938 L 120.839844 19.863281 C 121.992188 19.863281 122.148438 19.960938 122.148438 20.839844 L 122.148438 25.722656 C 122.148438 26.523438 121.953125 26.523438 120.78125 26.523438 L 120.78125 27.050781 C 121.289062 27.011719 122.148438 27.011719 122.675781 27.011719 C 122.871094 27.011719 123.90625 27.011719 124.511719 27.050781 L 124.511719 26.523438 C 123.359375 26.523438 123.28125 26.445312 123.28125 25.742188 L 123.28125 19.140625 Z M 120.839844 19.335938 "/>
<path style=" stroke:none;fill-rule:nonzero;fill:rgb(0%,0%,0%);fill-opacity:1;" d="M 133.132812 22.695312 C 133.132812 21.035156 133.132812 20.527344 132.703125 19.941406 C 132.195312 19.257812 131.355469 19.140625 130.730469 19.140625 C 128.992188 19.140625 128.308594 20.625 128.171875 20.996094 L 128.152344 20.996094 L 128.152344 19.140625 L 125.710938 19.335938 L 125.710938 19.863281 C 126.941406 19.863281 127.078125 19.980469 127.078125 20.859375 L 127.078125 25.722656 C 127.078125 26.523438 126.882812 26.523438 125.710938 26.523438 L 125.710938 27.050781 C 126.179688 27.011719 127.15625 27.011719 127.664062 27.011719 C 128.171875 27.011719 129.148438 27.011719 129.617188 27.050781 L 129.617188 26.523438 C 128.464844 26.523438 128.25 26.523438 128.25 25.722656 L 128.25 22.382812 C 128.25 20.507812 129.480469 19.511719 130.59375 19.511719 C 131.707031 19.511719 131.960938 20.410156 131.960938 21.503906 L 131.960938 25.722656 C 131.960938 26.523438 131.765625 26.523438 130.59375 26.523438 L 130.59375 27.050781 C 131.0625 27.011719 132.039062 27.011719 132.527344 27.011719 C 133.054688 27.011719 134.011719 27.011719 134.480469 27.050781 L 134.480469 26.523438 C 133.582031 26.523438 133.132812 26.523438 133.132812 25.996094 Z M 133.132812 22.695312 "/>
<path style=" stroke:none;fill-rule:nonzero;fill:rgb(0%,0%,0%);fill-opacity:1;" d="M 145.84375 18.027344 C 145.84375 16.210938 145.257812 14.433594 143.792969 14.433594 C 141.292969 14.433594 138.617188 19.6875 138.617188 23.632812 C 138.617188 24.453125 138.792969 27.226562 140.667969 27.226562 C 143.109375 27.226562 145.84375 22.109375 145.84375 18.027344 Z M 140.414062 20.566406 C 140.667969 19.511719 141.058594 17.988281 141.761719 16.71875 C 142.367188 15.644531 142.992188 14.785156 143.773438 14.785156 C 144.359375 14.785156 144.769531 15.292969 144.769531 17.011719 C 144.769531 17.65625 144.710938 18.554688 144.183594 20.566406 Z M 144.066406 21.09375 C 143.617188 22.851562 143.246094 23.984375 142.601562 25.117188 C 142.074219 26.035156 141.449219 26.875 140.6875 26.875 C 140.140625 26.875 139.691406 26.445312 139.691406 24.667969 C 139.691406 23.496094 139.964844 22.285156 140.257812 21.09375 Z M 144.066406 21.09375 "/>
<path style=" stroke:none;fill-rule:nonzero;fill:rgb(0%,0%,0%);fill-opacity:1;" d="M 153.933594 22.578125 C 153.933594 22.050781 153.503906 21.621094 152.996094 21.621094 C 152.46875 21.621094 152.039062 22.050781 152.039062 22.578125 C 152.039062 23.085938 152.46875 23.515625 152.996094 23.515625 C 153.503906 23.515625 153.933594 23.085938 153.933594 22.578125 Z M 153.933594 22.578125 "/>
<path style=" stroke:none;fill-rule:nonzero;fill:rgb(0%,0%,0%);fill-opacity:1;" d="M 166.898438 33.105469 C 166.898438 33.027344 166.859375 32.988281 166.820312 32.949219 C 166 32.070312 164.789062 30.605469 164.027344 27.695312 C 163.617188 26.054688 163.460938 24.199219 163.460938 22.539062 C 163.460938 17.832031 164.59375 14.53125 166.742188 12.1875 C 166.898438 12.03125 166.898438 11.992188 166.898438 11.953125 C 166.898438 11.777344 166.761719 11.777344 166.683594 11.777344 C 166.410156 11.777344 165.453125 12.851562 165.21875 13.125 C 163.382812 15.292969 162.230469 18.515625 162.230469 22.519531 C 162.230469 25.078125 162.660156 28.671875 165.023438 31.699219 C 165.199219 31.914062 166.371094 33.28125 166.683594 33.28125 C 166.761719 33.28125 166.898438 33.28125 166.898438 33.105469 Z M 166.898438 33.105469 "/>
<path style=" stroke:none;fill-rule:nonzero;fill:rgb(0%,0%,0%);fill-opacity:1;" d="M 171.046875 20.605469 C 170.734375 20.625 170.675781 20.644531 170.675781 20.820312 C 170.675781 20.996094 170.753906 20.996094 171.085938 20.996094 L 171.90625 20.996094 C 173.429688 20.996094 174.113281 22.246094 174.113281 23.964844 C 174.113281 26.308594 172.882812 26.933594 172.003906 26.933594 C 171.144531 26.933594 169.679688 26.523438 169.171875 25.351562 C 169.738281 25.429688 170.265625 25.117188 170.265625 24.472656 C 170.265625 23.945312 169.875 23.59375 169.386719 23.59375 C 168.957031 23.59375 168.488281 23.847656 168.488281 24.53125 C 168.488281 26.113281 170.070312 27.421875 172.0625 27.421875 C 174.191406 27.421875 175.773438 25.800781 175.773438 23.984375 C 175.773438 22.34375 174.445312 21.035156 172.726562 20.742188 C 174.289062 20.292969 175.285156 18.984375 175.285156 17.578125 C 175.285156 16.171875 173.820312 15.136719 172.082031 15.136719 C 170.285156 15.136719 168.957031 16.230469 168.957031 17.539062 C 168.957031 18.242188 169.523438 18.398438 169.796875 18.398438 C 170.167969 18.398438 170.597656 18.125 170.597656 17.578125 C 170.597656 17.011719 170.167969 16.757812 169.777344 16.757812 C 169.660156 16.757812 169.621094 16.757812 169.582031 16.777344 C 170.265625 15.566406 171.945312 15.566406 172.023438 15.566406 C 172.628906 15.566406 173.78125 15.820312 173.78125 17.578125 C 173.78125 17.929688 173.742188 18.925781 173.214844 19.707031 C 172.667969 20.488281 172.0625 20.546875 171.574219 20.566406 Z M 171.046875 20.605469 "/>
<path style=" stroke:none;fill-rule:nonzero;fill:rgb(0%,0%,0%);fill-opacity:1;" d="M 186.082031 20.410156 C 185.867188 20.410156 185.203125 20.410156 185.203125 21.152344 C 185.203125 21.582031 185.515625 21.894531 185.945312 21.894531 C 186.355469 21.894531 186.707031 21.640625 186.707031 21.113281 C 186.707031 19.921875 185.4375 19.0625 183.992188 19.0625 C 181.902344 19.0625 180.222656 20.917969 180.222656 23.183594 C 180.222656 25.46875 181.941406 27.226562 183.972656 27.226562 C 186.335938 27.226562 186.882812 25.078125 186.882812 24.921875 C 186.882812 24.746094 186.746094 24.746094 186.707031 24.746094 C 186.53125 24.746094 186.511719 24.804688 186.472656 25.019531 C 186.0625 26.289062 185.105469 26.835938 184.128906 26.835938 C 183.035156 26.835938 181.589844 25.878906 181.589844 23.164062 C 181.589844 20.175781 183.113281 19.453125 184.011719 19.453125 C 184.695312 19.453125 185.671875 19.726562 186.082031 20.410156 Z M 186.082031 20.410156 "/>
<path style=" stroke:none;fill-rule:nonzero;fill:rgb(0%,0%,0%);fill-opacity:1;" d="M 195.617188 23.222656 C 195.617188 20.898438 193.859375 19.0625 191.789062 19.0625 C 189.640625 19.0625 187.941406 20.957031 187.941406 23.222656 C 187.941406 25.507812 189.71875 27.226562 191.769531 27.226562 C 193.878906 27.226562 195.617188 25.46875 195.617188 23.222656 Z M 191.789062 26.835938 C 191.125 26.835938 190.324219 26.542969 189.796875 25.664062 C 189.308594 24.863281 189.289062 23.808594 189.289062 23.046875 C 189.289062 22.363281 189.289062 21.269531 189.855469 20.46875 C 190.34375 19.707031 191.144531 19.414062 191.769531 19.414062 C 192.472656 19.414062 193.214844 19.726562 193.703125 20.429688 C 194.269531 21.25 194.269531 22.382812 194.269531 23.046875 C 194.269531 23.671875 194.269531 24.785156 193.800781 25.625 C 193.292969 26.503906 192.472656 26.835938 191.789062 26.835938 Z M 191.789062 26.835938 "/>
<path style=" stroke:none;fill-rule:nonzero;fill:rgb(0%,0%,0%);fill-opacity:1;" d="M 202.125 19.472656 C 202.125 19.140625 202.125 19.0625 201.949219 19.0625 C 201.8125 19.0625 201.460938 19.453125 201.34375 19.609375 C 200.777344 19.160156 200.230469 19.0625 199.644531 19.0625 C 197.476562 19.0625 196.832031 20.234375 196.832031 21.230469 C 196.832031 21.425781 196.832031 22.050781 197.515625 22.675781 C 198.101562 23.183594 198.707031 23.300781 199.527344 23.457031 C 200.503906 23.652344 200.738281 23.710938 201.1875 24.082031 C 201.519531 24.335938 201.753906 24.746094 201.753906 25.234375 C 201.753906 26.015625 201.304688 26.875 199.722656 26.875 C 198.550781 26.875 197.671875 26.191406 197.28125 24.394531 C 197.222656 24.082031 197.222656 24.0625 197.203125 24.042969 C 197.164062 23.964844 197.085938 23.964844 197.027344 23.964844 C 196.832031 23.964844 196.832031 24.0625 196.832031 24.375 L 196.832031 26.816406 C 196.832031 27.148438 196.832031 27.226562 197.007812 27.226562 C 197.105469 27.226562 197.125 27.207031 197.4375 26.835938 C 197.515625 26.71875 197.515625 26.679688 197.789062 26.386719 C 198.472656 27.226562 199.429688 27.226562 199.742188 27.226562 C 201.617188 27.226562 202.554688 26.191406 202.554688 24.765625 C 202.554688 23.808594 201.96875 23.222656 201.8125 23.066406 C 201.167969 22.519531 200.679688 22.402344 199.488281 22.1875 C 198.960938 22.089844 197.652344 21.835938 197.652344 20.761719 C 197.652344 20.195312 198.023438 19.375 199.644531 19.375 C 201.597656 19.375 201.695312 21.035156 201.734375 21.601562 C 201.753906 21.738281 201.871094 21.738281 201.929688 21.738281 C 202.125 21.738281 202.125 21.660156 202.125 21.328125 Z M 202.125 19.472656 "/>
<path style=" stroke:none;fill-rule:nonzero;fill:rgb(0%,0%,0%);fill-opacity:1;" d="M 204.578125 18.59375 L 205.90625 17.304688 C 207.839844 15.585938 208.582031 14.921875 208.582031 13.671875 C 208.582031 12.246094 207.46875 11.25 205.945312 11.25 C 204.539062 11.25 203.621094 12.402344 203.621094 13.515625 C 203.621094 14.199219 204.246094 14.199219 204.285156 14.199219 C 204.5 14.199219 204.929688 14.0625 204.929688 13.535156 C 204.929688 13.222656 204.695312 12.890625 204.265625 12.890625 C 204.167969 12.890625 204.148438 12.890625 204.109375 12.910156 C 204.382812 12.089844 205.066406 11.640625 205.789062 11.640625 C 206.921875 11.640625 207.449219 12.65625 207.449219 13.671875 C 207.449219 14.667969 206.84375 15.644531 206.140625 16.425781 L 203.757812 19.082031 C 203.621094 19.21875 203.621094 19.257812 203.621094 19.550781 L 208.25 19.550781 L 208.582031 17.382812 L 208.289062 17.382812 C 208.210938 17.753906 208.132812 18.300781 207.996094 18.496094 C 207.917969 18.59375 207.097656 18.59375 206.824219 18.59375 Z M 204.578125 18.59375 "/>
<path style=" stroke:none;fill-rule:nonzero;fill:rgb(0%,0%,0%);fill-opacity:1;" d="M 220.84375 18.027344 C 220.84375 16.210938 220.257812 14.433594 218.792969 14.433594 C 216.292969 14.433594 213.617188 19.6875 213.617188 23.632812 C 213.617188 24.453125 213.792969 27.226562 215.667969 27.226562 C 218.109375 27.226562 220.84375 22.109375 220.84375 18.027344 Z M 215.414062 20.566406 C 215.667969 19.511719 216.058594 17.988281 216.761719 16.71875 C 217.367188 15.644531 217.992188 14.785156 218.773438 14.785156 C 219.359375 14.785156 219.769531 15.292969 219.769531 17.011719 C 219.769531 17.65625 219.710938 18.554688 219.183594 20.566406 Z M 219.066406 21.09375 C 218.617188 22.851562 218.246094 23.984375 217.601562 25.117188 C 217.074219 26.035156 216.449219 26.875 215.6875 26.875 C 215.140625 26.875 214.691406 26.445312 214.691406 24.667969 C 214.691406 23.496094 214.964844 22.285156 215.257812 21.09375 Z M 219.066406 21.09375 "/>
<path style=" stroke:none;fill-rule:nonzero;fill:rgb(0%,0%,0%);fill-opacity:1;" d="M 237.3125 22.929688 C 237.625 22.929688 237.9375 22.929688 237.9375 22.578125 C 237.9375 22.207031 237.625 22.207031 237.3125 22.207031 L 227.605469 22.207031 C 227.3125 22.207031 226.980469 22.207031 226.980469 22.578125 C 226.980469 22.929688 227.3125 22.929688 227.605469 22.929688 Z M 237.3125 22.929688 "/>
<path style=" stroke:none;fill-rule:nonzero;fill:rgb(0%,0%,0%);fill-opacity:1;" d="M 248.503906 15.566406 C 248.503906 15.136719 248.503906 15.136719 248.152344 15.136719 C 247.722656 15.605469 246.824219 16.269531 244.988281 16.269531 L 244.988281 16.796875 C 245.398438 16.796875 246.296875 16.796875 247.273438 16.328125 L 247.273438 25.664062 C 247.273438 26.308594 247.214844 26.523438 245.652344 26.523438 L 245.085938 26.523438 L 245.085938 27.050781 C 245.574219 27.011719 247.3125 27.011719 247.898438 27.011719 C 248.484375 27.011719 250.222656 27.011719 250.691406 27.050781 L 250.691406 26.523438 L 250.144531 26.523438 C 248.5625 26.523438 248.503906 26.308594 248.503906 25.664062 Z M 248.503906 15.566406 "/>
<path style=" stroke:none;fill-rule:nonzero;fill:rgb(0%,0%,0%);fill-opacity:1;" d="M 257.664062 22.539062 C 257.664062 20 257.214844 16.386719 254.871094 13.359375 C 254.695312 13.144531 253.523438 11.777344 253.191406 11.777344 C 253.113281 11.777344 252.976562 11.816406 252.976562 11.953125 C 252.976562 12.03125 253.015625 12.089844 253.09375 12.148438 C 253.953125 13.066406 255.125 14.53125 255.847656 17.382812 C 256.257812 19.003906 256.433594 20.859375 256.433594 22.519531 C 256.433594 24.335938 256.257812 26.171875 255.808594 27.910156 C 255.125 30.429688 254.050781 31.855469 253.152344 32.871094 C 252.976562 33.027344 252.976562 33.066406 252.976562 33.105469 C 252.976562 33.242188 253.113281 33.28125 253.191406 33.28125 C 253.464844 33.28125 254.460938 32.1875 254.675781 31.933594 C 256.492188 29.765625 257.664062 26.542969 257.664062 22.539062 Z M 257.664062 22.539062 "/>
<path style=" stroke:none;fill-rule:nonzero;fill:rgb(0%,0%,0%);fill-opacity:1;" d="M 15.957031 74.308594 L 14.648438 74.308594 L 13.007812 80.1875 L 12.304688 82.84375 C 12.070312 83.703125 11.796875 84.738281 11.71875 85.382812 L 11.699219 85.382812 C 11.621094 84.640625 11.230469 83.097656 10.917969 82.023438 L 8.808594 74.308594 L 7.285156 74.308594 L 5.742188 79.855469 C 5.605469 80.304688 4.53125 84.210938 4.414062 85.363281 L 4.394531 85.363281 C 4.316406 84.679688 3.867188 82.921875 3.789062 82.628906 L 3.027344 79.757812 L 1.523438 74.308594 L 0 74.308594 L 3.515625 86.75 L 5 86.75 L 6.679688 80.65625 C 7.128906 79.054688 7.8125 76.59375 7.929688 75.65625 L 7.949219 75.65625 C 7.949219 75.675781 8.066406 76.574219 8.90625 79.640625 L 10.859375 86.75 L 12.441406 86.75 Z M 15.957031 74.308594 "/>
<path style=" stroke:none;fill-rule:nonzero;fill:rgb(0%,0%,0%);fill-opacity:1;" d="M 23.84375 81.359375 C 23.84375 80.265625 23.609375 78.605469 21.441406 78.605469 C 20.210938 78.605469 19.390625 79.308594 18.960938 79.855469 L 18.960938 74.308594 L 17.632812 74.308594 L 17.632812 86.75 L 18.980469 86.75 L 18.980469 82.277344 C 18.980469 81.183594 19.410156 79.679688 20.757812 79.679688 C 22.4375 79.679688 22.476562 80.851562 22.476562 81.476562 L 22.476562 86.75 L 23.84375 86.75 Z M 23.84375 81.359375 "/>
<path style=" stroke:none;fill-rule:nonzero;fill:rgb(0%,0%,0%);fill-opacity:1;" d="M 28.078125 74.582031 L 26.535156 74.582031 L 26.535156 76.125 L 28.078125 76.125 Z M 27.980469 78.78125 L 26.652344 78.78125 L 26.652344 86.75 L 27.980469 86.75 Z M 27.980469 78.78125 "/>
<path style=" stroke:none;fill-rule:nonzero;fill:rgb(0%,0%,0%);fill-opacity:1;" d="M 36.632812 84.816406 C 35.8125 85.480469 34.894531 85.8125 33.898438 85.8125 C 32.394531 85.8125 31.4375 84.484375 31.4375 82.746094 C 31.4375 81.261719 32.160156 79.640625 33.9375 79.640625 C 35.148438 79.640625 35.65625 79.914062 36.417969 80.441406 L 36.632812 79.269531 C 35.597656 78.664062 35.011719 78.527344 33.9375 78.527344 C 31.476562 78.527344 30.070312 80.714844 30.070312 82.746094 C 30.070312 85.050781 31.730469 86.925781 33.878906 86.925781 C 34.757812 86.925781 35.753906 86.710938 36.75 85.988281 C 36.75 85.949219 36.691406 85.382812 36.671875 85.324219 Z M 36.632812 84.816406 "/>
<path style=" stroke:none;fill-rule:nonzero;fill:rgb(0%,0%,0%);fill-opacity:1;" d="M 44.84375 81.359375 C 44.84375 80.265625 44.609375 78.605469 42.441406 78.605469 C 41.210938 78.605469 40.390625 79.308594 39.960938 79.855469 L 39.960938 74.308594 L 38.632812 74.308594 L 38.632812 86.75 L 39.980469 86.75 L 39.980469 82.277344 C 39.980469 81.183594 40.410156 79.679688 41.757812 79.679688 C 43.4375 79.679688 43.476562 80.851562 43.476562 81.476562 L 43.476562 86.75 L 44.84375 86.75 Z M 44.84375 81.359375 "/>
<path style=" stroke:none;fill-rule:nonzero;fill:rgb(0%,0%,0%);fill-opacity:1;" d="M 64.597656 81.359375 C 64.597656 80.109375 64.265625 78.605469 62.175781 78.605469 C 60.652344 78.605469 59.8125 79.660156 59.539062 80.070312 C 59.207031 78.9375 58.230469 78.605469 57.292969 78.605469 C 55.828125 78.605469 55.046875 79.5625 54.753906 79.933594 L 54.753906 78.703125 L 53.484375 78.703125 L 53.484375 86.75 L 54.832031 86.75 L 54.832031 82.277344 C 54.832031 81.105469 55.300781 79.679688 56.609375 79.679688 C 58.269531 79.679688 58.347656 80.8125 58.347656 81.476562 L 58.347656 86.75 L 59.714844 86.75 L 59.714844 82.277344 C 59.714844 81.105469 60.183594 79.679688 61.492188 79.679688 C 63.132812 79.679688 63.230469 80.8125 63.230469 81.476562 L 63.230469 86.75 L 64.597656 86.75 Z M 64.597656 81.359375 "/>
<path style=" stroke:none;fill-rule:nonzero;fill:rgb(0%,0%,0%);fill-opacity:1;" d="M 73.351562 82.707031 C 73.351562 81.945312 73.273438 80.851562 72.707031 79.894531 C 71.964844 78.664062 70.714844 78.527344 70.1875 78.527344 C 68.253906 78.527344 66.632812 80.382812 66.632812 82.707031 C 66.632812 85.089844 68.351562 86.925781 70.441406 86.925781 C 71.261719 86.925781 72.257812 86.691406 73.234375 85.988281 C 73.234375 85.910156 73.175781 85.34375 73.175781 85.324219 C 73.15625 85.304688 73.136719 84.894531 73.136719 84.835938 C 72.0625 85.734375 71.007812 85.851562 70.480469 85.851562 C 69.09375 85.851562 67.902344 84.621094 67.882812 82.707031 Z M 67.980469 81.75 C 68.292969 80.539062 69.132812 79.601562 70.1875 79.601562 C 70.753906 79.601562 71.984375 79.855469 72.277344 81.75 Z M 67.980469 81.75 "/>
<path style=" stroke:none;fill-rule:nonzero;fill:rgb(0%,0%,0%);fill-opacity:1;" d="M 80.859375 81.496094 C 80.859375 79.777344 79.628906 78.527344 77.949219 78.527344 C 76.875 78.527344 76.074219 78.761719 75.195312 79.269531 L 75.292969 80.460938 C 76.09375 79.875 76.914062 79.5625 77.949219 79.5625 C 78.769531 79.5625 79.492188 80.226562 79.492188 81.535156 L 79.492188 82.277344 C 78.691406 82.296875 77.617188 82.355469 76.542969 82.707031 C 75.332031 83.136719 74.628906 83.800781 74.628906 84.679688 C 74.628906 85.480469 75.097656 86.925781 76.621094 86.925781 C 77.617188 86.925781 78.867188 86.632812 79.53125 86.085938 L 79.53125 86.75 L 80.859375 86.75 Z M 79.492188 84.347656 C 79.492188 84.699219 79.492188 85.128906 78.90625 85.5 C 78.417969 85.792969 77.8125 85.851562 77.539062 85.851562 C 76.582031 85.851562 75.917969 85.324219 75.917969 84.679688 C 75.917969 83.449219 78.398438 83.175781 79.492188 83.175781 Z M 79.492188 84.347656 "/>
<path style=" stroke:none;fill-rule:nonzero;fill:rgb(0%,0%,0%);fill-opacity:1;" d="M 89.84375 81.359375 C 89.84375 80.265625 89.609375 78.605469 87.441406 78.605469 C 86.445312 78.605469 85.585938 79.054688 84.902344 79.914062 L 84.902344 78.703125 L 83.632812 78.703125 L 83.632812 86.75 L 84.980469 86.75 L 84.980469 82.277344 C 84.980469 81.183594 85.410156 79.679688 86.757812 79.679688 C 88.4375 79.679688 88.476562 80.851562 88.476562 81.476562 L 88.476562 86.75 L 89.84375 86.75 Z M 89.84375 81.359375 "/>
<path style=" stroke:none;fill-rule:nonzero;fill:rgb(0%,0%,0%);fill-opacity:1;" d="M 97.261719 79.074219 C 96.128906 78.546875 95.152344 78.527344 94.742188 78.527344 C 94.332031 78.527344 91.832031 78.527344 91.832031 80.851562 C 91.832031 81.632812 92.261719 82.179688 92.535156 82.433594 C 93.179688 82.980469 93.628906 83.078125 94.683594 83.292969 C 95.289062 83.410156 96.324219 83.625 96.324219 84.582031 C 96.324219 85.8125 94.917969 85.8125 94.664062 85.8125 C 93.960938 85.8125 92.90625 85.617188 91.949219 84.914062 L 91.734375 86.144531 C 91.8125 86.203125 93.042969 86.925781 94.683594 86.925781 C 97.007812 86.925781 97.554688 85.539062 97.554688 84.464844 C 97.554688 83.566406 97.007812 82.980469 96.929688 82.902344 C 96.265625 82.21875 95.71875 82.101562 94.644531 81.886719 C 93.980469 81.769531 93.082031 81.59375 93.082031 80.695312 C 93.082031 79.582031 94.332031 79.582031 94.566406 79.582031 C 95.503906 79.582031 96.265625 79.796875 97.046875 80.246094 Z M 97.261719 79.074219 "/>
<path style=" stroke:none;fill-rule:nonzero;fill:rgb(0%,0%,0%);fill-opacity:1;" d="M 101.160156 86.730469 L 101.160156 85.304688 L 99.695312 85.304688 L 99.695312 86.75 L 100.144531 86.75 L 99.695312 88.996094 L 100.417969 88.996094 Z M 101.160156 86.730469 "/>
<path style=" stroke:none;fill-rule:nonzero;fill:rgb(0%,0%,0%);fill-opacity:1;" d="M 119.738281 76.496094 C 120.34375 75.519531 120.910156 75.089844 121.828125 75.03125 C 122.003906 75.011719 122.140625 75.011719 122.140625 74.679688 C 122.140625 74.621094 122.101562 74.503906 121.945312 74.503906 C 121.632812 74.503906 120.851562 74.542969 120.539062 74.542969 C 120.011719 74.542969 119.464844 74.503906 118.976562 74.503906 C 118.820312 74.503906 118.644531 74.503906 118.644531 74.835938 C 118.644531 75.011719 118.820312 75.03125 118.878906 75.03125 C 119.542969 75.070312 119.621094 75.402344 119.621094 75.617188 C 119.621094 75.890625 119.367188 76.300781 119.347656 76.320312 L 113.722656 85.246094 L 112.472656 75.578125 C 112.472656 75.050781 113.390625 75.03125 113.585938 75.03125 C 113.859375 75.03125 114.015625 75.03125 114.015625 74.679688 C 114.015625 74.503906 113.820312 74.503906 113.78125 74.503906 C 113.46875 74.503906 113.117188 74.542969 112.804688 74.542969 L 111.808594 74.542969 C 110.5 74.542969 109.953125 74.503906 109.933594 74.503906 C 109.835938 74.503906 109.621094 74.503906 109.621094 74.835938 C 109.621094 75.03125 109.738281 75.03125 110.03125 75.03125 C 110.949219 75.03125 110.988281 75.1875 111.046875 75.636719 L 112.472656 86.691406 C 112.53125 87.082031 112.53125 87.121094 112.785156 87.121094 C 113 87.121094 113.097656 87.082031 113.273438 86.789062 Z M 119.738281 76.496094 "/>
<path style=" stroke:none;fill-rule:nonzero;fill:rgb(0%,0%,0%);fill-opacity:1;" d="M 136.195312 81.359375 C 136.195312 80.265625 135.960938 78.605469 133.792969 78.605469 C 132.5625 78.605469 131.742188 79.308594 131.3125 79.855469 L 131.3125 74.308594 L 129.984375 74.308594 L 129.984375 86.75 L 131.332031 86.75 L 131.332031 82.277344 C 131.332031 81.183594 131.761719 79.679688 133.109375 79.679688 C 134.789062 79.679688 134.828125 80.851562 134.828125 81.476562 L 134.828125 86.75 L 136.195312 86.75 Z M 136.195312 81.359375 "/>
<path style=" stroke:none;fill-rule:nonzero;fill:rgb(0%,0%,0%);fill-opacity:1;" d="M 144.609375 81.496094 C 144.609375 79.777344 143.378906 78.527344 141.699219 78.527344 C 140.625 78.527344 139.824219 78.761719 138.945312 79.269531 L 139.042969 80.460938 C 139.84375 79.875 140.664062 79.5625 141.699219 79.5625 C 142.519531 79.5625 143.242188 80.226562 143.242188 81.535156 L 143.242188 82.277344 C 142.441406 82.296875 141.367188 82.355469 140.292969 82.707031 C 139.082031 83.136719 138.378906 83.800781 138.378906 84.679688 C 138.378906 85.480469 138.847656 86.925781 140.371094 86.925781 C 141.367188 86.925781 142.617188 86.632812 143.28125 86.085938 L 143.28125 86.75 L 144.609375 86.75 Z M 143.242188 84.347656 C 143.242188 84.699219 143.242188 85.128906 142.65625 85.5 C 142.167969 85.792969 141.5625 85.851562 141.289062 85.851562 C 140.332031 85.851562 139.667969 85.324219 139.667969 84.679688 C 139.667969 83.449219 142.148438 83.175781 143.242188 83.175781 Z M 143.242188 84.347656 "/>
<path style=" stroke:none;fill-rule:nonzero;fill:rgb(0%,0%,0%);fill-opacity:1;" d="M 152.011719 79.074219 C 150.878906 78.546875 149.902344 78.527344 149.492188 78.527344 C 149.082031 78.527344 146.582031 78.527344 146.582031 80.851562 C 146.582031 81.632812 147.011719 82.179688 147.285156 82.433594 C 147.929688 82.980469 148.378906 83.078125 149.433594 83.292969 C 150.039062 83.410156 151.074219 83.625 151.074219 84.582031 C 151.074219 85.8125 149.667969 85.8125 149.414062 85.8125 C 148.710938 85.8125 147.65625 85.617188 146.699219 84.914062 L 146.484375 86.144531 C 146.5625 86.203125 147.792969 86.925781 149.433594 86.925781 C 151.757812 86.925781 152.304688 85.539062 152.304688 84.464844 C 152.304688 83.566406 151.757812 82.980469 151.679688 82.902344 C 151.015625 82.21875 150.46875 82.101562 149.394531 81.886719 C 148.730469 81.769531 147.832031 81.59375 147.832031 80.695312 C 147.832031 79.582031 149.082031 79.582031 149.316406 79.582031 C 150.253906 79.582031 151.015625 79.796875 151.796875 80.246094 Z M 152.011719 79.074219 "/>
<path style=" stroke:none;fill-rule:nonzero;fill:rgb(0%,0%,0%);fill-opacity:1;" d="M 165.902344 82.707031 C 165.902344 81.945312 165.824219 80.851562 165.257812 79.894531 C 164.515625 78.664062 163.265625 78.527344 162.738281 78.527344 C 160.804688 78.527344 159.183594 80.382812 159.183594 82.707031 C 159.183594 85.089844 160.902344 86.925781 162.992188 86.925781 C 163.8125 86.925781 164.808594 86.691406 165.785156 85.988281 C 165.785156 85.910156 165.726562 85.34375 165.726562 85.324219 C 165.707031 85.304688 165.6875 84.894531 165.6875 84.835938 C 164.613281 85.734375 163.558594 85.851562 163.03125 85.851562 C 161.644531 85.851562 160.453125 84.621094 160.433594 82.707031 Z M 160.53125 81.75 C 160.84375 80.539062 161.683594 79.601562 162.738281 79.601562 C 163.304688 79.601562 164.535156 79.855469 164.828125 81.75 Z M 160.53125 81.75 "/>
<path style=" stroke:none;fill-rule:nonzero;fill:rgb(0%,0%,0%);fill-opacity:1;" d="M 170.945312 82.648438 L 174.128906 78.78125 L 172.625 78.78125 L 170.359375 81.691406 L 168.015625 78.78125 L 166.492188 78.78125 L 169.753906 82.648438 L 166.394531 86.75 L 167.878906 86.75 L 170.359375 83.410156 L 172.898438 86.75 L 174.402344 86.75 Z M 170.945312 82.648438 "/>
<path style=" stroke:none;fill-rule:nonzero;fill:rgb(0%,0%,0%);fill-opacity:1;" d="M 177.5625 79.835938 L 180.042969 79.835938 L 180.042969 78.78125 L 177.5625 78.78125 L 177.5625 76.515625 L 176.332031 76.515625 L 176.332031 78.78125 L 174.828125 78.78125 L 174.828125 79.835938 L 176.292969 79.835938 L 176.292969 84.660156 C 176.292969 85.695312 176.527344 86.925781 177.757812 86.925781 C 178.96875 86.925781 179.789062 86.515625 180.335938 86.222656 L 180.0625 85.1875 C 179.4375 85.753906 178.773438 85.8125 178.460938 85.8125 C 177.660156 85.8125 177.5625 84.972656 177.5625 84.347656 Z M 177.5625 79.835938 "/>
<path style=" stroke:none;fill-rule:nonzero;fill:rgb(0%,0%,0%);fill-opacity:1;" d="M 183.53125 82.824219 C 183.53125 81.007812 184.878906 79.835938 186.5 79.816406 L 186.5 78.605469 C 184.859375 78.625 183.921875 79.582031 183.433594 80.285156 L 183.433594 78.703125 L 182.203125 78.703125 L 182.203125 86.75 L 183.53125 86.75 Z M 183.53125 82.824219 "/>
<path style=" stroke:none;fill-rule:nonzero;fill:rgb(0%,0%,0%);fill-opacity:1;" d="M 194.101562 82.707031 C 194.101562 81.945312 194.023438 80.851562 193.457031 79.894531 C 192.714844 78.664062 191.464844 78.527344 190.9375 78.527344 C 189.003906 78.527344 187.382812 80.382812 187.382812 82.707031 C 187.382812 85.089844 189.101562 86.925781 191.191406 86.925781 C 192.011719 86.925781 193.007812 86.691406 193.984375 85.988281 C 193.984375 85.910156 193.925781 85.34375 193.925781 85.324219 C 193.90625 85.304688 193.886719 84.894531 193.886719 84.835938 C 192.8125 85.734375 191.757812 85.851562 191.230469 85.851562 C 189.84375 85.851562 188.652344 84.621094 188.632812 82.707031 Z M 188.730469 81.75 C 189.042969 80.539062 189.882812 79.601562 190.9375 79.601562 C 191.503906 79.601562 192.734375 79.855469 193.027344 81.75 Z M 188.730469 81.75 "/>
<path style=" stroke:none;fill-rule:nonzero;fill:rgb(0%,0%,0%);fill-opacity:1;" d="M 207.097656 81.359375 C 207.097656 80.109375 206.765625 78.605469 204.675781 78.605469 C 203.152344 78.605469 202.3125 79.660156 202.039062 80.070312 C 201.707031 78.9375 200.730469 78.605469 199.792969 78.605469 C 198.328125 78.605469 197.546875 79.5625 197.253906 79.933594 L 197.253906 78.703125 L 195.984375 78.703125 L 195.984375 86.75 L 197.332031 86.75 L 197.332031 82.277344 C 197.332031 81.105469 197.800781 79.679688 199.109375 79.679688 C 200.769531 79.679688 200.847656 80.8125 200.847656 81.476562 L 200.847656 86.75 L 202.214844 86.75 L 202.214844 82.277344 C 202.214844 81.105469 202.683594 79.679688 203.992188 79.679688 C 205.632812 79.679688 205.730469 80.8125 205.730469 81.476562 L 205.730469 86.75 L 207.097656 86.75 Z M 207.097656 81.359375 "/>
<path style=" stroke:none;fill-rule:nonzero;fill:rgb(0%,0%,0%);fill-opacity:1;" d="M 215.851562 82.707031 C 215.851562 81.945312 215.773438 80.851562 215.207031 79.894531 C 214.464844 78.664062 213.214844 78.527344 212.6875 78.527344 C 210.753906 78.527344 209.132812 80.382812 209.132812 82.707031 C 209.132812 85.089844 210.851562 86.925781 212.941406 86.925781 C 213.761719 86.925781 214.757812 86.691406 215.734375 85.988281 C 215.734375 85.910156 215.675781 85.34375 215.675781 85.324219 C 215.65625 85.304688 215.636719 84.894531 215.636719 84.835938 C 214.5625 85.734375 213.507812 85.851562 212.980469 85.851562 C 211.59375 85.851562 210.402344 84.621094 210.382812 82.707031 Z M 210.480469 81.75 C 210.792969 80.539062 211.632812 79.601562 212.6875 79.601562 C 213.253906 79.601562 214.484375 79.855469 214.777344 81.75 Z M 210.480469 81.75 "/>
<path style=" stroke:none;fill-rule:nonzero;fill:rgb(0%,0%,0%);fill-opacity:1;" d="M 229.800781 78.78125 L 228.472656 78.78125 L 227.164062 82.355469 C 226.851562 83.214844 226.1875 85.109375 226.089844 85.773438 L 226.070312 85.773438 C 225.972656 85.148438 225.621094 84.171875 225.347656 83.390625 L 223.6875 78.78125 L 222.300781 78.78125 L 225.25 86.75 L 226.851562 86.75 Z M 229.800781 78.78125 "/>
<path style=" stroke:none;fill-rule:nonzero;fill:rgb(0%,0%,0%);fill-opacity:1;" d="M 237.15625 81.496094 C 237.15625 79.777344 235.925781 78.527344 234.246094 78.527344 C 233.171875 78.527344 232.371094 78.761719 231.492188 79.269531 L 231.589844 80.460938 C 232.390625 79.875 233.210938 79.5625 234.246094 79.5625 C 235.066406 79.5625 235.789062 80.226562 235.789062 81.535156 L 235.789062 82.277344 C 234.988281 82.296875 233.914062 82.355469 232.839844 82.707031 C 231.628906 83.136719 230.925781 83.800781 230.925781 84.679688 C 230.925781 85.480469 231.394531 86.925781 232.917969 86.925781 C 233.914062 86.925781 235.164062 86.632812 235.828125 86.085938 L 235.828125 86.75 L 237.15625 86.75 Z M 235.789062 84.347656 C 235.789062 84.699219 235.789062 85.128906 235.203125 85.5 C 234.714844 85.792969 234.109375 85.851562 233.835938 85.851562 C 232.878906 85.851562 232.214844 85.324219 232.214844 84.679688 C 232.214844 83.449219 234.695312 83.175781 235.789062 83.175781 Z M 235.789062 84.347656 "/>
<path style=" stroke:none;fill-rule:nonzero;fill:rgb(0%,0%,0%);fill-opacity:1;" d="M 241.28125 74.308594 L 239.953125 74.308594 L 239.953125 86.75 L 241.28125 86.75 Z M 241.28125 74.308594 "/>
<path style=" stroke:none;fill-rule:nonzero;fill:rgb(0%,0%,0%);fill-opacity:1;" d="M 250.34375 78.78125 L 248.976562 78.78125 L 248.976562 83.917969 C 248.976562 85.285156 248.039062 85.949219 246.867188 85.949219 C 245.617188 85.949219 245.480469 85.480469 245.480469 84.679688 L 245.480469 78.78125 L 244.132812 78.78125 L 244.132812 84.757812 C 244.132812 86.046875 244.542969 86.925781 246.007812 86.925781 C 246.515625 86.925781 247.921875 86.847656 249.015625 85.851562 L 249.015625 86.75 L 250.34375 86.75 Z M 250.34375 78.78125 "/>
<path style=" stroke:none;fill-rule:nonzero;fill:rgb(0%,0%,0%);fill-opacity:1;" d="M 259.050781 82.707031 C 259.050781 81.945312 258.972656 80.851562 258.40625 79.894531 C 257.664062 78.664062 256.414062 78.527344 255.886719 78.527344 C 253.953125 78.527344 252.332031 80.382812 252.332031 82.707031 C 252.332031 85.089844 254.050781 86.925781 256.140625 86.925781 C 256.960938 86.925781 257.957031 86.691406 258.933594 85.988281 C 258.933594 85.910156 258.875 85.34375 258.875 85.324219 C 258.855469 85.304688 258.835938 84.894531 258.835938 84.835938 C 257.761719 85.734375 256.707031 85.851562 256.179688 85.851562 C 254.792969 85.851562 253.601562 84.621094 253.582031 82.707031 Z M 253.679688 81.75 C 253.992188 80.539062 254.832031 79.601562 255.886719 79.601562 C 256.453125 79.601562 257.683594 79.855469 257.976562 81.75 Z M 253.679688 81.75 "/>
<path style=" stroke:none;fill-rule:nonzero;fill:rgb(0%,0%,0%);fill-opacity:1;" d="M 265.5625 79.074219 C 264.429688 78.546875 263.453125 78.527344 263.042969 78.527344 C 262.632812 78.527344 260.132812 78.527344 260.132812 80.851562 C 260.132812 81.632812 260.5625 82.179688 260.835938 82.433594 C 261.480469 82.980469 261.929688 83.078125 262.984375 83.292969 C 263.589844 83.410156 264.625 83.625 264.625 84.582031 C 264.625 85.8125 263.21875 85.8125 262.964844 85.8125 C 262.261719 85.8125 261.207031 85.617188 260.25 84.914062 L 260.035156 86.144531 C 260.113281 86.203125 261.34375 86.925781 262.984375 86.925781 C 265.308594 86.925781 265.855469 85.539062 265.855469 84.464844 C 265.855469 83.566406 265.308594 82.980469 265.230469 82.902344 C 264.566406 82.21875 264.019531 82.101562 262.945312 81.886719 C 262.28125 81.769531 261.382812 81.59375 261.382812 80.695312 C 261.382812 79.582031 262.632812 79.582031 262.867188 79.582031 C 263.804688 79.582031 264.566406 79.796875 265.347656 80.246094 Z M 265.5625 79.074219 "/>
<path style=" stroke:none;fill-rule:nonzero;fill:rgb(0%,0%,0%);fill-opacity:1;" d="M 279.007812 81.496094 C 279.007812 79.777344 277.777344 78.527344 276.097656 78.527344 C 275.023438 78.527344 274.222656 78.761719 273.34375 79.269531 L 273.441406 80.460938 C 274.242188 79.875 275.0625 79.5625 276.097656 79.5625 C 276.917969 79.5625 277.640625 80.226562 277.640625 81.535156 L 277.640625 82.277344 C 276.839844 82.296875 275.765625 82.355469 274.691406 82.707031 C 273.480469 83.136719 272.777344 83.800781 272.777344 84.679688 C 272.777344 85.480469 273.246094 86.925781 274.769531 86.925781 C 275.765625 86.925781 277.015625 86.632812 277.679688 86.085938 L 277.679688 86.75 L 279.007812 86.75 Z M 277.640625 84.347656 C 277.640625 84.699219 277.640625 85.128906 277.054688 85.5 C 276.566406 85.792969 275.960938 85.851562 275.6875 85.851562 C 274.730469 85.851562 274.066406 85.324219 274.066406 84.679688 C 274.066406 83.449219 276.546875 83.175781 277.640625 83.175781 Z M 277.640625 84.347656 "/>
<path style=" stroke:none;fill-rule:nonzero;fill:rgb(0%,0%,0%);fill-opacity:1;" d="M 283.460938 79.835938 L 285.941406 79.835938 L 285.941406 78.78125 L 283.460938 78.78125 L 283.460938 76.515625 L 282.230469 76.515625 L 282.230469 78.78125 L 280.726562 78.78125 L 280.726562 79.835938 L 282.191406 79.835938 L 282.191406 84.660156 C 282.191406 85.695312 282.425781 86.925781 283.65625 86.925781 C 284.867188 86.925781 285.6875 86.515625 286.234375 86.222656 L 285.960938 85.1875 C 285.335938 85.753906 284.671875 85.8125 284.359375 85.8125 C 283.558594 85.8125 283.460938 84.972656 283.460938 84.347656 Z M 283.460938 79.835938 "/>
<path style=" stroke:none;fill-rule:nonzero;fill:rgb(0%,0%,0%);fill-opacity:1;" d="M 42.796875 122.277344 C 42.796875 120.460938 42.210938 118.683594 40.746094 118.683594 C 38.246094 118.683594 35.570312 123.9375 35.570312 127.882812 C 35.570312 128.703125 35.746094 131.476562 37.621094 131.476562 C 40.0625 131.476562 42.796875 126.359375 42.796875 122.277344 Z M 37.367188 124.816406 C 37.621094 123.761719 38.011719 122.238281 38.714844 120.96875 C 39.320312 119.894531 39.945312 119.035156 40.726562 119.035156 C 41.3125 119.035156 41.722656 119.542969 41.722656 121.261719 C 41.722656 121.90625 41.664062 122.804688 41.136719 124.816406 Z M 41.019531 125.34375 C 40.570312 127.101562 40.199219 128.234375 39.554688 129.367188 C 39.027344 130.285156 38.402344 131.125 37.640625 131.125 C 37.09375 131.125 36.644531 130.695312 36.644531 128.917969 C 36.644531 127.746094 36.917969 126.535156 37.210938 125.34375 Z M 41.019531 125.34375 "/>
<path style=" stroke:none;fill-rule:nonzero;fill:rgb(0%,0%,0%);fill-opacity:1;" d="M 60.605469 125.5 C 60.859375 125.5 61.171875 125.5 61.171875 125.167969 C 61.171875 124.835938 60.859375 124.835938 60.605469 124.835938 L 50.039062 124.835938 C 49.785156 124.835938 49.472656 124.835938 49.472656 125.148438 C 49.472656 125.5 49.765625 125.5 50.039062 125.5 Z M 60.605469 128.820312 C 60.859375 128.820312 61.171875 128.820312 61.171875 128.507812 C 61.171875 128.15625 60.859375 128.15625 60.605469 128.15625 L 50.039062 128.15625 C 49.785156 128.15625 49.472656 128.15625 49.472656 128.488281 C 49.472656 128.820312 49.765625 128.820312 50.039062 128.820312 Z M 60.605469 128.820312 "/>
<path style=" stroke:none;fill-rule:nonzero;fill:rgb(0%,0%,0%);fill-opacity:1;" d="M 73.394531 112.542969 L 75.40625 112.542969 C 74.9375 114.554688 74.625 115.863281 74.625 117.289062 C 74.625 117.542969 74.625 119.476562 75.367188 119.476562 C 75.738281 119.476562 76.070312 119.144531 76.070312 118.832031 C 76.070312 118.753906 76.070312 118.714844 75.933594 118.441406 C 75.445312 117.210938 75.445312 115.667969 75.445312 115.53125 C 75.445312 115.433594 75.445312 114.164062 75.835938 112.542969 L 77.828125 112.542969 C 78.0625 112.542969 78.667969 112.542969 78.667969 111.976562 C 78.667969 111.566406 78.316406 111.566406 78.003906 111.566406 L 72.105469 111.566406 C 71.695312 111.566406 71.070312 111.566406 70.25 112.445312 C 69.78125 112.972656 69.214844 113.929688 69.214844 114.027344 C 69.214844 114.144531 69.292969 114.164062 69.410156 114.164062 C 69.527344 114.164062 69.546875 114.125 69.644531 114.007812 C 70.582031 112.542969 71.5 112.542969 71.949219 112.542969 L 72.984375 112.542969 C 72.574219 113.890625 72.144531 115.453125 70.660156 118.578125 C 70.523438 118.871094 70.523438 118.910156 70.523438 119.007812 C 70.523438 119.398438 70.835938 119.476562 71.011719 119.476562 C 71.519531 119.476562 71.675781 119.007812 71.890625 118.265625 C 72.164062 117.347656 72.164062 117.308594 72.359375 116.585938 Z M 73.394531 112.542969 "/>
<path style=" stroke:none;fill-rule:nonzero;fill:rgb(0%,0%,0%);fill-opacity:1;" d="M 68.730469 126.515625 L 79.378906 126.515625 L 79.378906 127.265625 L 68.730469 127.265625 Z M 68.730469 126.515625 "/>
<path style=" stroke:none;fill-rule:nonzero;fill:rgb(0%,0%,0%);fill-opacity:1;" d="M 77.535156 140.59375 L 77.144531 140.59375 C 77.085938 140.886719 76.949219 141.882812 76.753906 142.175781 C 76.636719 142.332031 75.621094 142.332031 75.074219 142.332031 L 71.753906 142.332031 C 72.242188 141.921875 73.335938 140.769531 73.804688 140.339844 C 76.539062 137.820312 77.535156 136.902344 77.535156 135.125 C 77.535156 133.054688 75.894531 131.6875 73.824219 131.6875 C 71.734375 131.6875 70.523438 133.445312 70.523438 134.988281 C 70.523438 135.90625 71.304688 135.90625 71.363281 135.90625 C 71.734375 135.90625 72.203125 135.632812 72.203125 135.066406 C 72.203125 134.558594 71.871094 134.226562 71.363281 134.226562 C 71.207031 134.226562 71.167969 134.226562 71.109375 134.246094 C 71.460938 133.015625 72.417969 132.195312 73.589844 132.195312 C 75.113281 132.195312 76.050781 133.464844 76.050781 135.125 C 76.050781 136.648438 75.171875 137.976562 74.136719 139.128906 L 70.523438 143.171875 L 70.523438 143.601562 L 77.066406 143.601562 Z M 77.535156 140.59375 "/>
<path style=" stroke:none;fill-rule:nonzero;fill:rgb(0%,0%,0%);fill-opacity:1;" d="M 93.609375 126.046875 C 93.609375 124.328125 92.378906 123.078125 90.699219 123.078125 C 89.625 123.078125 88.824219 123.3125 87.945312 123.820312 L 88.042969 125.011719 C 88.84375 124.425781 89.664062 124.113281 90.699219 124.113281 C 91.519531 124.113281 92.242188 124.777344 92.242188 126.085938 L 92.242188 126.828125 C 91.441406 126.847656 90.367188 126.90625 89.292969 127.257812 C 88.082031 127.6875 87.378906 128.351562 87.378906 129.230469 C 87.378906 130.03125 87.847656 131.476562 89.371094 131.476562 C 90.367188 131.476562 91.617188 131.183594 92.28125 130.636719 L 92.28125 131.300781 L 93.609375 131.300781 Z M 92.242188 128.898438 C 92.242188 129.25 92.242188 129.679688 91.65625 130.050781 C 91.167969 130.34375 90.5625 130.402344 90.289062 130.402344 C 89.332031 130.402344 88.667969 129.875 88.667969 129.230469 C 88.667969 128 91.148438 127.726562 92.242188 127.726562 Z M 92.242188 128.898438 "/>
<path style=" stroke:none;fill-rule:nonzero;fill:rgb(0%,0%,0%);fill-opacity:1;" d="M 102.59375 125.910156 C 102.59375 124.816406 102.359375 123.15625 100.191406 123.15625 C 99.195312 123.15625 98.335938 123.605469 97.652344 124.464844 L 97.652344 123.253906 L 96.382812 123.253906 L 96.382812 131.300781 L 97.730469 131.300781 L 97.730469 126.828125 C 97.730469 125.734375 98.160156 124.230469 99.507812 124.230469 C 101.1875 124.230469 101.226562 125.402344 101.226562 126.027344 L 101.226562 131.300781 L 102.59375 131.300781 Z M 102.59375 125.910156 "/>
<path style=" stroke:none;fill-rule:nonzero;fill:rgb(0%,0%,0%);fill-opacity:1;" d="M 111.574219 118.859375 L 110.246094 118.859375 L 110.246094 124.09375 C 109.425781 123.410156 108.488281 123.15625 107.726562 123.15625 C 106.027344 123.15625 104.621094 124.992188 104.621094 127.316406 C 104.621094 129.640625 105.949219 131.476562 107.648438 131.476562 C 108.3125 131.476562 109.328125 131.261719 110.226562 130.382812 L 110.226562 131.300781 L 111.574219 131.300781 Z M 110.226562 129.191406 C 109.796875 129.953125 109.152344 130.402344 108.371094 130.402344 C 107.277344 130.402344 105.988281 129.5625 105.988281 127.335938 C 105.988281 124.953125 107.511719 124.230469 108.546875 124.230469 C 109.25 124.230469 109.816406 124.601562 110.226562 125.1875 Z M 110.226562 129.191406 "/>
<path style=" stroke:none;fill-rule:nonzero;fill:rgb(0%,0%,0%);fill-opacity:1;" d="M 126.796875 122.277344 C 126.796875 120.460938 126.210938 118.683594 124.746094 118.683594 C 122.246094 118.683594 119.570312 123.9375 119.570312 127.882812 C 119.570312 128.703125 119.746094 131.476562 121.621094 131.476562 C 124.0625 131.476562 126.796875 126.359375 126.796875 122.277344 Z M 121.367188 124.816406 C 121.621094 123.761719 122.011719 122.238281 122.714844 120.96875 C 123.320312 119.894531 123.945312 119.035156 124.726562 119.035156 C 125.3125 119.035156 125.722656 119.542969 125.722656 121.261719 C 125.722656 121.90625 125.664062 122.804688 125.136719 124.816406 Z M 125.019531 125.34375 C 124.570312 127.101562 124.199219 128.234375 123.554688 129.367188 C 123.027344 130.285156 122.402344 131.125 121.640625 131.125 C 121.09375 131.125 120.644531 130.695312 120.644531 128.917969 C 120.644531 127.746094 120.917969 126.535156 121.210938 125.34375 Z M 125.019531 125.34375 "/>
<path style=" stroke:none;fill-rule:nonzero;fill:rgb(0%,0%,0%);fill-opacity:1;" d="M 144.605469 125.5 C 144.859375 125.5 145.171875 125.5 145.171875 125.167969 C 145.171875 124.835938 144.859375 124.835938 144.605469 124.835938 L 134.039062 124.835938 C 133.785156 124.835938 133.472656 124.835938 133.472656 125.148438 C 133.472656 125.5 133.765625 125.5 134.039062 125.5 Z M 144.605469 128.820312 C 144.859375 128.820312 145.171875 128.820312 145.171875 128.507812 C 145.171875 128.15625 144.859375 128.15625 144.605469 128.15625 L 134.039062 128.15625 C 133.785156 128.15625 133.472656 128.15625 133.472656 128.488281 C 133.472656 128.820312 133.765625 128.820312 134.039062 128.820312 Z M 144.605469 128.820312 "/>
<path style=" stroke:none;fill-rule:nonzero;fill:rgb(0%,0%,0%);fill-opacity:1;" d="M 157.730469 124.660156 C 157.515625 124.660156 156.851562 124.660156 156.851562 125.402344 C 156.851562 125.832031 157.164062 126.144531 157.59375 126.144531 C 158.003906 126.144531 158.355469 125.890625 158.355469 125.363281 C 158.355469 124.171875 157.085938 123.3125 155.640625 123.3125 C 153.550781 123.3125 151.871094 125.167969 151.871094 127.433594 C 151.871094 129.71875 153.589844 131.476562 155.621094 131.476562 C 157.984375 131.476562 158.53125 129.328125 158.53125 129.171875 C 158.53125 128.996094 158.394531 128.996094 158.355469 128.996094 C 158.179688 128.996094 158.160156 129.054688 158.121094 129.269531 C 157.710938 130.539062 156.753906 131.085938 155.777344 131.085938 C 154.683594 131.085938 153.238281 130.128906 153.238281 127.414062 C 153.238281 124.425781 154.761719 123.703125 155.660156 123.703125 C 156.34375 123.703125 157.320312 123.976562 157.730469 124.660156 Z M 157.730469 124.660156 "/>
<path style=" stroke:none;fill-rule:nonzero;fill:rgb(0%,0%,0%);fill-opacity:1;" d="M 167.269531 127.472656 C 167.269531 125.148438 165.511719 123.3125 163.441406 123.3125 C 161.292969 123.3125 159.59375 125.207031 159.59375 127.472656 C 159.59375 129.757812 161.371094 131.476562 163.421875 131.476562 C 165.53125 131.476562 167.269531 129.71875 167.269531 127.472656 Z M 163.441406 131.085938 C 162.777344 131.085938 161.976562 130.792969 161.449219 129.914062 C 160.960938 129.113281 160.941406 128.058594 160.941406 127.296875 C 160.941406 126.613281 160.941406 125.519531 161.507812 124.71875 C 161.996094 123.957031 162.796875 123.664062 163.421875 123.664062 C 164.125 123.664062 164.867188 123.976562 165.355469 124.679688 C 165.921875 125.5 165.921875 126.632812 165.921875 127.296875 C 165.921875 127.921875 165.921875 129.035156 165.453125 129.875 C 164.945312 130.753906 164.125 131.085938 163.441406 131.085938 Z M 163.441406 131.085938 "/>
<path style=" stroke:none;fill-rule:nonzero;fill:rgb(0%,0%,0%);fill-opacity:1;" d="M 173.773438 123.722656 C 173.773438 123.390625 173.773438 123.3125 173.597656 123.3125 C 173.460938 123.3125 173.109375 123.703125 172.992188 123.859375 C 172.425781 123.410156 171.878906 123.3125 171.292969 123.3125 C 169.125 123.3125 168.480469 124.484375 168.480469 125.480469 C 168.480469 125.675781 168.480469 126.300781 169.164062 126.925781 C 169.75 127.433594 170.355469 127.550781 171.175781 127.707031 C 172.152344 127.902344 172.386719 127.960938 172.835938 128.332031 C 173.167969 128.585938 173.402344 128.996094 173.402344 129.484375 C 173.402344 130.265625 172.953125 131.125 171.371094 131.125 C 170.199219 131.125 169.320312 130.441406 168.929688 128.644531 C 168.871094 128.332031 168.871094 128.3125 168.851562 128.292969 C 168.8125 128.214844 168.734375 128.214844 168.675781 128.214844 C 168.480469 128.214844 168.480469 128.3125 168.480469 128.625 L 168.480469 131.066406 C 168.480469 131.398438 168.480469 131.476562 168.65625 131.476562 C 168.753906 131.476562 168.773438 131.457031 169.085938 131.085938 C 169.164062 130.96875 169.164062 130.929688 169.4375 130.636719 C 170.121094 131.476562 171.078125 131.476562 171.390625 131.476562 C 173.265625 131.476562 174.203125 130.441406 174.203125 129.015625 C 174.203125 128.058594 173.617188 127.472656 173.460938 127.316406 C 172.816406 126.769531 172.328125 126.652344 171.136719 126.4375 C 170.609375 126.339844 169.300781 126.085938 169.300781 125.011719 C 169.300781 124.445312 169.671875 123.625 171.292969 123.625 C 173.246094 123.625 173.34375 125.285156 173.382812 125.851562 C 173.402344 125.988281 173.519531 125.988281 173.578125 125.988281 C 173.773438 125.988281 173.773438 125.910156 173.773438 125.578125 Z M 173.773438 123.722656 "/>
<path style=" stroke:none;fill-rule:nonzero;fill:rgb(0%,0%,0%);fill-opacity:1;" d="M 182.847656 121.078125 C 183.0625 121.078125 183.296875 121.078125 183.296875 120.824219 C 183.296875 120.589844 183.0625 120.589844 182.847656 120.589844 L 176.109375 120.589844 C 175.894531 120.589844 175.679688 120.589844 175.679688 120.824219 C 175.679688 121.078125 175.894531 121.078125 176.109375 121.078125 Z M 182.847656 121.078125 "/>
<path style=" stroke:none;fill-rule:nonzero;fill:rgb(0%,0%,0%);fill-opacity:1;" d="M 188.066406 115.980469 C 188.066406 115.667969 188.066406 115.648438 187.773438 115.648438 C 186.992188 116.449219 185.898438 116.449219 185.507812 116.449219 L 185.507812 116.839844 C 185.761719 116.839844 186.484375 116.839844 187.128906 116.507812 L 187.128906 122.972656 C 187.128906 123.421875 187.089844 123.558594 185.976562 123.558594 L 185.585938 123.558594 L 185.585938 123.949219 C 186.015625 123.910156 187.089844 123.910156 187.597656 123.910156 C 188.085938 123.910156 189.179688 123.910156 189.609375 123.949219 L 189.609375 123.558594 L 189.21875 123.558594 C 188.085938 123.558594 188.066406 123.421875 188.066406 122.972656 Z M 188.066406 115.980469 "/>
<path style=" stroke:none;fill-rule:nonzero;fill:rgb(0%,0%,0%);fill-opacity:1;" d="M 208.300781 107.816406 C 208.300781 107.386719 208.300781 107.386719 207.949219 107.386719 C 207.519531 107.855469 206.621094 108.519531 204.785156 108.519531 L 204.785156 109.046875 C 205.195312 109.046875 206.09375 109.046875 207.070312 108.578125 L 207.070312 117.914062 C 207.070312 118.558594 207.011719 118.773438 205.449219 118.773438 L 204.882812 118.773438 L 204.882812 119.300781 C 205.371094 119.261719 207.109375 119.261719 207.695312 119.261719 C 208.28125 119.261719 210.019531 119.261719 210.488281 119.300781 L 210.488281 118.773438 L 209.941406 118.773438 C 208.359375 118.773438 208.300781 118.558594 208.300781 117.914062 Z M 208.300781 107.816406 "/>
<path style=" stroke:none;fill-rule:nonzero;fill:rgb(0%,0%,0%);fill-opacity:1;" d="M 195.78125 126.515625 L 219.628906 126.515625 L 219.628906 127.265625 L 195.78125 127.265625 Z M 195.78125 126.515625 "/>
<path style=" stroke:none;fill-rule:nonzero;fill:rgb(0%,0%,0%);fill-opacity:1;" d="M 202.769531 146.183594 L 199.625 139.210938 C 199.488281 138.917969 199.410156 138.917969 199.351562 138.917969 C 199.332031 138.917969 199.234375 138.917969 199.039062 139.054688 L 197.339844 140.363281 C 197.105469 140.539062 197.105469 140.578125 197.105469 140.636719 C 197.105469 140.734375 197.164062 140.832031 197.28125 140.832031 C 197.398438 140.832031 197.691406 140.578125 197.886719 140.441406 C 198.003906 140.363281 198.277344 140.148438 198.472656 140.011719 L 202.007812 147.785156 C 202.125 148.058594 202.222656 148.058594 202.378906 148.058594 C 202.652344 148.058594 202.691406 147.960938 202.828125 147.707031 L 210.972656 130.851562 C 211.089844 130.597656 211.089844 130.519531 211.089844 130.5 C 211.089844 130.304688 210.953125 130.128906 210.738281 130.128906 C 210.582031 130.128906 210.464844 130.226562 210.328125 130.519531 Z M 202.769531 146.183594 "/>
<path style=" stroke:none;fill-rule:nonzero;fill:rgb(0%,0%,0%);fill-opacity:1;" d="M 210.628906 130.117188 L 219.476562 130.117188 L 219.476562 130.871094 L 210.628906 130.871094 Z M 210.628906 130.117188 "/>
<path style=" stroke:none;fill-rule:nonzero;fill:rgb(0%,0%,0%);fill-opacity:1;" d="M 213.945312 139.253906 C 213.632812 139.273438 213.574219 139.292969 213.574219 139.46875 C 213.574219 139.644531 213.652344 139.644531 213.984375 139.644531 L 214.804688 139.644531 C 216.328125 139.644531 217.011719 140.894531 217.011719 142.613281 C 217.011719 144.957031 215.78125 145.582031 214.902344 145.582031 C 214.042969 145.582031 212.578125 145.171875 212.070312 144 C 212.636719 144.078125 213.164062 143.765625 213.164062 143.121094 C 213.164062 142.59375 212.773438 142.242188 212.285156 142.242188 C 211.855469 142.242188 211.386719 142.496094 211.386719 143.179688 C 211.386719 144.761719 212.96875 146.070312 214.960938 146.070312 C 217.089844 146.070312 218.671875 144.449219 218.671875 142.632812 C 218.671875 140.992188 217.34375 139.683594 215.625 139.390625 C 217.1875 138.941406 218.183594 137.632812 218.183594 136.226562 C 218.183594 134.820312 216.71875 133.785156 214.980469 133.785156 C 213.183594 133.785156 211.855469 134.878906 211.855469 136.1875 C 211.855469 136.890625 212.421875 137.046875 212.695312 137.046875 C 213.066406 137.046875 213.496094 136.773438 213.496094 136.226562 C 213.496094 135.660156 213.066406 135.40625 212.675781 135.40625 C 212.558594 135.40625 212.519531 135.40625 212.480469 135.425781 C 213.164062 134.214844 214.84375 134.214844 214.921875 134.214844 C 215.527344 134.214844 216.679688 134.46875 216.679688 136.226562 C 216.679688 136.578125 216.640625 137.574219 216.113281 138.355469 C 215.566406 139.136719 214.960938 139.195312 214.472656 139.214844 Z M 213.945312 139.253906 "/>
</g>
</svg>
