<?xml version="1.0" encoding="UTF-8" standalone="no"?>
<!-- Created with Inkscape (http://www.inkscape.org/) -->

<svg
   xmlns:ns0="http://www.iki.fi/pav/software/textext/"
   xmlns:dc="http://purl.org/dc/elements/1.1/"
   xmlns:cc="http://creativecommons.org/ns#"
   xmlns:rdf="http://www.w3.org/1999/02/22-rdf-syntax-ns#"
   xmlns:svg="http://www.w3.org/2000/svg"
   xmlns="http://www.w3.org/2000/svg"
   xmlns:xlink="http://www.w3.org/1999/xlink"
   xmlns:sodipodi="http://sodipodi.sourceforge.net/DTD/sodipodi-0.dtd"
   xmlns:inkscape="http://www.inkscape.org/namespaces/inkscape"
   width="516.93823"
   height="375.60104"
   id="svg2"
   version="1.1"
   inkscape:version="0.48.3.1 r9886"
   sodipodi:docname="1-right.svg">
  <sodipodi:namedview
     id="base"
     pagecolor="#ffffff"
     bordercolor="#666666"
     borderopacity="1.0"
     inkscape:pageopacity="0.0"
     inkscape:pageshadow="2"
     inkscape:zoom="0.50647962"
     inkscape:cx="237.02223"
     inkscape:cy="-110.44157"
     inkscape:document-units="px"
     inkscape:current-layer="layer1"
     showgrid="false"
     inkscape:window-width="1301"
     inkscape:window-height="744"
     inkscape:window-x="65"
     inkscape:window-y="24"
     inkscape:window-maximized="1"
     showguides="true"
     inkscape:guide-bbox="true"
     fit-margin-top="0"
     fit-margin-left="0"
     fit-margin-right="0"
     fit-margin-bottom="0"
     inkscape:showpageshadow="false"
     showborder="false" />
  <defs
     id="defs4" />
  <metadata
     id="metadata7">
    <rdf:RDF>
      <cc:Work
         rdf:about="">
        <dc:format>image/svg+xml</dc:format>
        <dc:type
           rdf:resource="http://purl.org/dc/dcmitype/StillImage" />
        <dc:title />
      </cc:Work>
    </rdf:RDF>
  </metadata>
  <g
     transform="translate(-100.47279,-40.138472)"
     inkscape:label="Layer 1"
     inkscape:groupmode="layer"
     id="layer1">
    <g
       transform="translate(150.0554,-5.9232393)"
       id="g4202">
      <path
         inkscape:connector-curvature="0"
         id="path3759"
         d="m 195.4669,47.385914 5.92324,244.827226"
         style="color:#000000;fill:none;stroke:#000000;stroke-width:2;stroke-linecap:butt;stroke-linejoin:round;stroke-miterlimit:4;stroke-opacity:0.39215686;stroke-dasharray:none;stroke-dashoffset:0;marker:none;visibility:visible;display:inline;overflow:visible;enable-background:accumulate" />
      <g
         id="g4185">
        <path
           sodipodi:type="star"
           style="fill:#ff6600;fill-opacity:0;stroke:#000000;stroke-width:2.80028081;stroke-linejoin:round;stroke-miterlimit:4;stroke-opacity:1;stroke-dasharray:none;stroke-dashoffset:0"
           id="path2985"
           sodipodi:sides="3"
           sodipodi:cx="179.67159"
           sodipodi:cy="134.26009"
           sodipodi:r1="136.16295"
           sodipodi:r2="68.081474"
           sodipodi:arg1="0.51554901"
           sodipodi:arg2="1.5627466"
           inkscape:flatsided="true"
           inkscape:rounded="0"
           inkscape:randomized="0"
           d="M 298.13637,201.39013 62.302867,203.28858 178.57552,-1.898451 z"
           inkscape:transform-center-x="-0.64779578"
           inkscape:transform-center-y="-39.674668"
           transform="matrix(1.1820243,0,0,1.1820243,-15.034626,49.960726)" />
        <path
           sodipodi:type="arc"
           style="fill:#ff6600;fill-opacity:0;stroke:#000000;stroke-width:3.30999994;stroke-linejoin:round;stroke-miterlimit:4;stroke-opacity:1;stroke-dasharray:none;stroke-dashoffset:0"
           id="path3755"
           sodipodi:cx="201.39014"
           sodipodi:cy="308.99564"
           sodipodi:rx="144.13216"
           sodipodi:ry="18.756924"
           d="m 345.52229,308.99564 c 0,10.35916 -64.53016,18.75692 -144.13215,18.75692 -79.602,0 -144.13216,-8.39776 -144.13216,-18.75692 0,-10.35917 64.53016,-18.75693 144.13216,-18.75693 79.60199,0 144.13215,8.39776 144.13215,18.75693 z"
           transform="matrix(0.95547751,0,0,0.95547751,4.8807221,-5.9868759)" />
        <path
           style="color:#000000;fill:#ff7f2a;fill-opacity:1;stroke:#000000;stroke-width:2;stroke-linecap:butt;stroke-linejoin:round;stroke-miterlimit:4;stroke-opacity:0.39215686;stroke-dasharray:none;stroke-dashoffset:0;marker:none;visibility:visible;display:inline;overflow:visible;enable-background:accumulate"
           d="m 193.49248,47.385914 3.94883,65.155636 29.6162,-17.769721 z"
           id="path3761"
           inkscape:connector-curvature="0" />
        <g
           id="g3772"
           transform="matrix(0.93827149,0,0,0.82910835,4.7132629,-112.91581)">
          <g
             id="content"
             transform="matrix(1.0629921,0,0,-1.0629921,-186.02362,789.27165)"
             xml:space="preserve"
             stroke-miterlimit="10.433"
             font-style="normal"
             font-variant="normal"
             font-weight="normal"
             font-stretch="normal"
             font-size-adjust="none"
             letter-spacing="normal"
             word-spacing="normal"
             style="font-style:normal;font-variant:normal;font-weight:normal;font-stretch:normal;letter-spacing:normal;word-spacing:normal;text-anchor:start;fill:none;stroke:#000000;stroke-linecap:butt;stroke-linejoin:miter;stroke-miterlimit:10.43299961;stroke-opacity:1;stroke-dasharray:none;stroke-dashoffset:0"><path
               d="m 474.16,436.34 0.04,0.16 0.04,0.16 0.04,0.15 0.04,0.15 0.04,0.13 0.05,0.13 0.05,0.13 0.05,0.11 0.06,0.12 0.06,0.1 0.08,0.1 0.08,0.09 0.09,0.09 0.1,0.08 0.11,0.08 0.12,0.07 0.13,0.06 0.15,0.06 0.16,0.06 0.18,0.05 0.09,0.02 0.1,0.02 0.1,0.02 0.11,0.02 0.11,0.02 0.11,0.02 0.12,0.02 0.13,0.01 0.13,0.01 0.14,0.02 0.14,0.01 0.14,0.01 0.15,0.01 0.16,0.01 0.16,0.01 0.17,0.01 0.17,0 0.18,0.01 0.18,0 0.19,0.01 0.2,0 0.2,0 0.21,0 0.22,0 c 1.49,0 1.89,0 1.89,0.96 0,0.59 -0.54,0.59 -0.79,0.59 -1.66,0 -5.74,-0.16 -7.38,-0.16 -1.5,0 -5.14,0.16 -6.62,0.16 -0.36,0 -0.96,0 -0.96,-1 0,-0.55 0.46,-0.55 1.39,-0.55 0.11,0 1.05,0 1.91,-0.09 0.89,-0.11 1.34,-0.16 1.34,-0.8 0,-0.2 -0.06,-0.36 -0.2,-0.95 l -6.67,-26.75 c -0.5,-1.95 -0.61,-2.34 -4.55,-2.34 -0.84,0 -1.34,0 -1.34,-1 0,-0.55 0.45,-0.55 1.34,-0.55 h 23.08 c 1.19,0 1.23,0 1.55,0.84 l 3.92,10.77 c 0.2,0.55 0.2,0.64 0.2,0.7 0,0.19 -0.14,0.55 -0.59,0.55 -0.46,0 -0.5,-0.25 -0.85,-1.05 -1.7,-4.59 -3.89,-10.26 -12.51,-10.26 h -4.67 c -0.71,0 -0.8,0 -1.1,0.04 -0.5,0.05 -0.65,0.1 -0.65,0.5 0,0.14 0,0.25 0.25,1.14 z"
               id="path3775"
               inkscape:connector-curvature="0"
               style="fill:#000000;stroke-width:0" /></g>        </g>
        <g
           id="g3799"
           transform="matrix(0.8194936,0,0,0.8194936,-34.622265,-145.57507)">
          <g
             word-spacing="normal"
             letter-spacing="normal"
             font-size-adjust="none"
             font-stretch="normal"
             font-weight="normal"
             font-variant="normal"
             font-style="normal"
             stroke-miterlimit="10.433"
             xml:space="preserve"
             transform="matrix(1.0629921,0,0,-1.0629921,-186.02362,789.27165)"
             id="g3801"
             style="font-style:normal;font-variant:normal;font-weight:normal;font-stretch:normal;letter-spacing:normal;word-spacing:normal;text-anchor:start;fill:none;stroke:#000000;stroke-linecap:butt;stroke-linejoin:miter;stroke-miterlimit:10.43299961;stroke-opacity:1;stroke-dasharray:none;stroke-dashoffset:0"><path
               id="path3803"
               d="m 478.19,431.11 0,0.31 -0.01,0.34 -0.02,0.36 -0.02,0.37 -0.03,0.39 -0.04,0.39 -0.04,0.41 -0.06,0.41 -0.07,0.42 -0.07,0.43 -0.09,0.42 -0.1,0.43 -0.12,0.42 -0.12,0.42 -0.14,0.41 -0.16,0.41 -0.17,0.4 -0.18,0.38 -0.2,0.37 -0.22,0.36 -0.23,0.34 -0.25,0.32 -0.28,0.3 -0.29,0.27 -0.31,0.25 -0.16,0.12 -0.17,0.1 -0.17,0.1 -0.18,0.1 -0.18,0.08 -0.19,0.08 -0.19,0.07 -0.2,0.06 -0.21,0.05 -0.21,0.05 -0.22,0.03 -0.22,0.02 -0.23,0.02 -0.23,0 -0.05,-1.09 c 2.44,0 2.73,-3.19 2.73,-6.03 0,-2.44 -0.39,-4.99 -1.59,-9.92 h -10.41 c 0.85,3.2 1.85,7.18 3.83,10.72 1.36,2.43 3.19,5.23 5.44,5.23 l 0.05,1.09 c -6.92,0 -14.6,-14.04 -14.6,-25.45 0,-4.69 1.44,-10.22 5.99,-10.22 v 1.1 c -1.66,0 -2.71,1.45 -2.71,6.07 0,2.1 0.3,4.99 1.6,9.86 h 10.37 c -0.54,-2.28 -1.59,-6.51 -3.5,-10.11 -1.73,-3.39 -3.62,-5.82 -5.76,-5.82 v -1.1 c 7.01,0 14.59,14.3 14.59,25.46 z"
               inkscape:connector-curvature="0"
               style="fill:#000000;stroke-width:0" /></g>        </g>
        <g
           id="g3833"
           transform="matrix(0.73883424,0,0,0.73883424,19.213882,8.8876396)">
          <g
             id="g3835"
             transform="matrix(1.0629921,0,0,-1.0629921,-186.02362,789.27165)"
             xml:space="preserve"
             stroke-miterlimit="10.433"
             font-style="normal"
             font-variant="normal"
             font-weight="normal"
             font-stretch="normal"
             font-size-adjust="none"
             letter-spacing="normal"
             word-spacing="normal"
             style="font-style:normal;font-variant:normal;font-weight:normal;font-stretch:normal;letter-spacing:normal;word-spacing:normal;text-anchor:start;fill:none;stroke:#000000;stroke-linecap:butt;stroke-linejoin:miter;stroke-miterlimit:10.43299961;stroke-opacity:1;stroke-dasharray:none;stroke-dashoffset:0"><path
               d="m 481.38,423.14 0.47,0.11 0.48,0.12 0.48,0.14 0.48,0.15 0.49,0.16 0.48,0.18 0.48,0.19 0.47,0.2 0.47,0.22 0.47,0.23 0.46,0.24 0.45,0.25 0.43,0.27 0.43,0.28 0.42,0.29 0.4,0.3 0.39,0.31 0.37,0.32 0.36,0.34 0.33,0.35 0.32,0.35 0.29,0.37 0.28,0.38 0.25,0.39 0.22,0.4 0.2,0.41 0.17,0.42 0.15,0.43 0.11,0.44 0.08,0.45 0.05,0.46 0.02,0.47 c 0,4.28 -4.48,7.47 -11,7.47 h -14.2 c -1,0 -1.45,0 -1.45,-1 0,-0.55 0.45,-0.55 1.4,-0.55 0.1,0 1.05,0 1.89,-0.09 0.89,-0.11 1.35,-0.16 1.35,-0.8 0,-0.2 -0.05,-0.36 -0.21,-0.95 l -6.67,-26.75 c -0.5,-1.95 -0.59,-2.34 -4.53,-2.34 -0.91,0 -1.34,0 -1.34,-1 0,-0.55 0.59,-0.55 0.68,-0.55 1.41,0 4.89,0.16 6.29,0.16 1.39,0 4.93,-0.16 6.32,-0.16 0.41,0 1,0 1,1 0,0.55 -0.45,0.55 -1.39,0.55 -1.84,0 -3.25,0 -3.25,0.89 0,0.29 0.11,0.54 0.16,0.84 l 3.28,13.2 h 5.94 l -0.05,1.11 h -5.59 l 3.25,13 c 0.29,1.19 0.43,1.69 1.39,1.85 0.45,0.04 2.04,0.04 3.03,0.04 3.55,0 9.08,0 9.08,-4.93 0,-1.69 -0.8,-5.13 -2.75,-7.07 -1.28,-1.29 -3.92,-2.89 -8.41,-2.89 l 0.05,-1.11 c 4.53,0 5.42,-2.78 5.42,-4.53 0,-0.75 -0.39,-2.28 -0.69,-3.44 -0.36,-1.39 -0.79,-3.23 -0.79,-4.23 0,-5.37 5.96,-5.37 6.62,-5.37 4.23,0 5.97,5.03 5.97,5.73 0,0.59 -0.55,0.59 -0.59,0.59 -0.46,0 -0.55,-0.36 -0.65,-0.7 -1.25,-3.69 -3.39,-4.53 -4.54,-4.53 -1.64,0 -1.99,1.09 -1.99,3.05 0,1.53 0.3,4.07 0.5,5.67 0.1,0.7 0.21,1.64 0.21,2.34 0,3.83 -3.35,5.38 -4.69,5.88 z"
               id="path3837"
               inkscape:connector-curvature="0"
               style="fill:#000000;stroke-width:0" /></g>        </g>
        <g
           id="g3873"
           transform="matrix(0.78167371,0,0,0.78167371,-82.527913,-58.186291)">
          <g
             word-spacing="normal"
             letter-spacing="normal"
             font-size-adjust="none"
             font-stretch="normal"
             font-weight="normal"
             font-variant="normal"
             font-style="normal"
             stroke-miterlimit="10.433"
             xml:space="preserve"
             transform="matrix(1.0629921,0,0,-1.0629921,-186.02362,789.27165)"
             id="g3875"
             style="font-style:normal;font-variant:normal;font-weight:normal;font-stretch:normal;letter-spacing:normal;word-spacing:normal;text-anchor:start;fill:none;stroke:#000000;stroke-linecap:butt;stroke-linejoin:miter;stroke-miterlimit:10.43299961;stroke-opacity:1;stroke-dasharray:none;stroke-dashoffset:0"><path
               id="path3877"
               d="m 493.54,436.39 0.04,0.16 0.04,0.16 0.04,0.15 0.04,0.14 0.04,0.14 0.04,0.13 0.04,0.12 0.05,0.11 0.05,0.11 0.05,0.11 0.06,0.09 0.07,0.09 0.07,0.09 0.08,0.08 0.09,0.07 0.09,0.07 0.11,0.06 0.11,0.06 0.13,0.05 0.14,0.05 0.15,0.04 0.16,0.04 0.09,0.02 0.09,0.02 0.09,0.01 0.1,0.02 0.1,0.01 0.1,0.01 0.11,0.02 0.11,0.01 0.12,0.01 0.12,0 0.13,0.01 0.13,0.01 0.13,0.01 0.14,0 0.14,0 0.15,0.01 0.15,0 0.16,0 0.16,0 0.17,0 c 1.3,0 1.69,0 1.69,1 0,0.55 -0.55,0.55 -0.7,0.55 -1.39,0 -4.97,-0.16 -6.38,-0.16 -1.44,0 -4.98,0.16 -6.42,0.16 -0.39,0 -0.95,0 -0.95,-1 0,-0.55 0.45,-0.55 1.4,-0.55 0.1,0 1.05,0 1.89,-0.09 0.89,-0.11 1.35,-0.16 1.35,-0.8 0,-0.2 -0.05,-0.31 -0.21,-0.95 l -2.98,-12.16 h -15.2 l 2.95,11.71 c 0.44,1.79 0.59,2.29 4.17,2.29 1.3,0 1.71,0 1.71,1 0,0.55 -0.55,0.55 -0.71,0.55 -1.39,0 -4.98,-0.16 -6.37,-0.16 -1.44,0 -4.99,0.16 -6.42,0.16 -0.41,0 -0.96,0 -0.96,-1 0,-0.55 0.46,-0.55 1.39,-0.55 0.11,0 1.05,0 1.91,-0.09 0.89,-0.11 1.34,-0.16 1.34,-0.8 0,-0.2 -0.06,-0.36 -0.2,-0.95 l -6.67,-26.75 c -0.5,-1.95 -0.61,-2.34 -4.55,-2.34 -0.89,0 -1.34,0 -1.34,-1 0,-0.55 0.61,-0.55 0.7,-0.55 1.39,0 4.94,0.16 6.33,0.16 1.05,0 2.14,-0.07 3.19,-0.07 1.09,0 2.18,-0.09 3.23,-0.09 0.41,0 1,0 1,1 0,0.55 -0.45,0.55 -1.39,0.55 -1.84,0 -3.23,0 -3.23,0.89 0,0.29 0.09,0.54 0.14,0.84 l 3.39,13.66 H 486 c -2.09,-8.27 -3.23,-13 -3.43,-13.75 -0.49,-1.6 -1.44,-1.64 -4.53,-1.64 -0.75,0 -1.19,0 -1.19,-1 0,-0.55 0.59,-0.55 0.69,-0.55 1.4,0 4.93,0.16 6.32,0.16 1.05,0 2.14,-0.07 3.19,-0.07 1.11,0 2.2,-0.09 3.25,-0.09 0.39,0 0.99,0 0.99,1 0,0.55 -0.44,0.55 -1.4,0.55 -1.84,0 -3.23,0 -3.23,0.89 0,0.29 0.09,0.54 0.14,0.84 z"
               inkscape:connector-curvature="0"
               style="fill:#000000;stroke-width:0" /></g>        </g>
      </g>
    </g>
    <g
       id="g3580"
       ns0:preamble="/home/abhinavc/playpen/textext/preamble.ini"
       ns0:text="Given the slant-height $(L)$, find the $\\theta$ for maximum volume $(V)$"
       transform="matrix(3.6462456,0,0,3.6462456,-1086.5839,58.921559)">
      <defs
         id="defs3582">
        <g
           id="g3584">
          <symbol
             id="textext-4e17f6c7-0"
             overflow="visible"
             style="overflow:visible">
            <path
               id="path3587"
               d="m 5.984375,-2.984375 -2.109375,0 0,0.625 1.3125,0 0,1.625 c -0.390625,0.140625 -0.875,0.203125 -1.296875,0.203125 -1.3125,0 -2.328125,-1.328125 -2.328125,-2.9375 0,-1.5625 0.984375,-2.921875 2.3125,-2.921875 0.796875,0 1.375,0.234375 1.875,0.65625 l 0.140625,-0.8125 c -0.5625,-0.34375 -1.328125,-0.484375 -2,-0.484375 -1.921875,0 -3.234375,1.734375 -3.234375,3.5625 0,1.8125 1.328125,3.578125 3.234375,3.578125 0.75,0 1.421875,-0.203125 2.09375,-0.484375 z m 0,0"
               style="stroke:none"
               inkscape:connector-curvature="0" />
          </symbol>
          <symbol
             id="textext-4e17f6c7-1"
             overflow="visible"
             style="overflow:visible">
            <path
               id="path3590"
               d="m 1.625,-6.78125 -0.890625,0 0,0.890625 0.890625,0 z m -0.0625,2.359375 -0.75,0 0,4.421875 0.75,0 z m 0,0"
               style="stroke:none"
               inkscape:connector-curvature="0" />
          </symbol>
          <symbol
             id="textext-4e17f6c7-2"
             overflow="visible"
             style="overflow:visible">
            <path
               id="path3593"
               d="m 4.453125,-4.421875 -0.75,0 -0.796875,2.0625 C 2.703125,-1.796875 2.390625,-1 2.3125,-0.53125 l -0.015625,0 C 2.25,-0.890625 1.984375,-1.578125 1.890625,-1.84375 l -0.96875,-2.578125 -0.78125,0 L 1.859375,0 l 0.875,0 z m 0,0"
               style="stroke:none"
               inkscape:connector-curvature="0" />
          </symbol>
          <symbol
             id="textext-4e17f6c7-3"
             overflow="visible"
             style="overflow:visible">
            <path
               id="path3596"
               d="M 4.125,-2.1875 C 4.125,-2.515625 4.109375,-3.265625 3.734375,-3.875 3.3125,-4.484375 2.71875,-4.59375 2.359375,-4.59375 1.25,-4.59375 0.34375,-3.53125 0.34375,-2.25 c 0,1.3125 0.96875,2.359375 2.15625,2.359375 0.625,0 1.203125,-0.234375 1.59375,-0.515625 L 4.03125,-1.0625 C 3.40625,-0.53125 2.734375,-0.5 2.515625,-0.5 1.71875,-0.5 1.078125,-1.203125 1.046875,-2.1875 z M 1.09375,-2.734375 c 0.15625,-0.75 0.6875,-1.25 1.265625,-1.25 0.515625,0 1.0625,0.328125 1.203125,1.25 z m 0,0"
               style="stroke:none"
               inkscape:connector-curvature="0" />
          </symbol>
          <symbol
             id="textext-4e17f6c7-4"
             overflow="visible"
             style="overflow:visible">
            <path
               id="path3599"
               d="m 4.34375,-2.96875 c 0,-0.65625 -0.15625,-1.5625 -1.375,-1.5625 -0.890625,0 -1.390625,0.671875 -1.4375,0.75 l 0,-0.703125 -0.71875,0 0,4.484375 0.765625,0 0,-2.4375 c 0,-0.65625 0.25,-1.484375 1.015625,-1.484375 0.953125,0 0.96875,0.703125 0.96875,1.015625 L 3.5625,0 4.34375,0 z m 0,0"
               style="stroke:none"
               inkscape:connector-curvature="0" />
          </symbol>
          <symbol
             id="textext-4e17f6c7-5"
             overflow="visible"
             style="overflow:visible">
            <path
               id="path3602"
               d="m 1.75,-3.84375 1.40625,0 0,-0.578125 -1.40625,0 0,-1.265625 -0.6875,0 0,1.265625 -0.875,0 0,0.578125 0.84375,0 0,2.65625 c 0,0.59375 0.140625,1.296875 0.828125,1.296875 0.6875,0 1.203125,-0.25 1.453125,-0.375 L 3.15625,-0.859375 C 2.890625,-0.640625 2.578125,-0.53125 2.25,-0.53125 c -0.359375,0 -0.5,-0.296875 -0.5,-0.828125 z m 0,0"
               style="stroke:none"
               inkscape:connector-curvature="0" />
          </symbol>
          <symbol
             id="textext-4e17f6c7-6"
             overflow="visible"
             style="overflow:visible">
            <path
               id="path3605"
               d="m 4.34375,-2.96875 c 0,-0.65625 -0.15625,-1.5625 -1.375,-1.5625 -0.609375,0 -1.09375,0.296875 -1.40625,0.71875 l 0,-3.109375 -0.75,0 0,6.921875 0.765625,0 0,-2.4375 c 0,-0.65625 0.25,-1.484375 1.015625,-1.484375 0.953125,0 0.96875,0.703125 0.96875,1.015625 L 3.5625,0 4.34375,0 z m 0,0"
               style="stroke:none"
               inkscape:connector-curvature="0" />
          </symbol>
          <symbol
             id="textext-4e17f6c7-7"
             overflow="visible"
             style="overflow:visible">
            <path
               id="path3608"
               d="M 3.421875,-4.28125 C 2.90625,-4.515625 2.5,-4.59375 1.984375,-4.59375 c -0.25,0 -1.65625,0 -1.65625,1.296875 0,0.5 0.296875,0.8125 0.546875,1 0.296875,0.21875 0.515625,0.265625 1.0625,0.375 0.359375,0.0625 0.9375,0.1875 0.9375,0.71875 0,0.6875 -0.78125,0.6875 -0.9375,0.6875 -0.796875,0 -1.359375,-0.375 -1.53125,-0.484375 l -0.125,0.671875 c 0.3125,0.15625 0.859375,0.4375 1.671875,0.4375 0.1875,0 0.734375,0 1.15625,-0.3125 0.3125,-0.25 0.484375,-0.640625 0.484375,-1.078125 0,-0.546875 -0.375,-0.875 -0.390625,-0.90625 C 2.8125,-2.546875 2.546875,-2.609375 2.046875,-2.6875 1.5,-2.796875 1.03125,-2.90625 1.03125,-3.390625 1.03125,-4 1.75,-4 1.890625,-4 c 0.3125,0 0.84375,0.03125 1.40625,0.375 z m 0,0"
               style="stroke:none"
               inkscape:connector-curvature="0" />
          </symbol>
          <symbol
             id="textext-4e17f6c7-8"
             overflow="visible"
             style="overflow:visible">
            <path
               id="path3611"
               d="m 1.5625,-6.921875 -0.75,0 0,6.921875 0.75,0 z m 0,0"
               style="stroke:none"
               inkscape:connector-curvature="0" />
          </symbol>
          <symbol
             id="textext-4e17f6c7-9"
             overflow="visible"
             style="overflow:visible">
            <path
               id="path3614"
               d="m 3.984375,-2.875 c 0,-1.015625 -0.734375,-1.71875 -1.65625,-1.71875 -0.640625,0 -1.09375,0.15625 -1.5625,0.421875 l 0.0625,0.65625 C 1.34375,-3.875 1.84375,-4 2.328125,-4 c 0.46875,0 0.875,0.390625 0.875,1.125 l 0,0.4375 C 1.703125,-2.421875 0.4375,-2 0.4375,-1.125 c 0,0.421875 0.265625,1.234375 1.140625,1.234375 0.140625,0 1.078125,-0.015625 1.65625,-0.46875 l 0,0.359375 0.75,0 z m -0.78125,1.5625 c 0,0.1875 0,0.4375 -0.34375,0.625 C 2.578125,-0.515625 2.1875,-0.5 2.078125,-0.5 1.609375,-0.5 1.15625,-0.734375 1.15625,-1.140625 c 0,-0.703125 1.609375,-0.765625 2.046875,-0.796875 z m 0,0"
               style="stroke:none"
               inkscape:connector-curvature="0" />
          </symbol>
          <symbol
             id="textext-4e17f6c7-10"
             overflow="visible"
             style="overflow:visible">
            <path
               id="path3617"
               d="m 2.75,-1.921875 0,-0.578125 -2.640625,0 0,0.578125 z m 0,0"
               style="stroke:none"
               inkscape:connector-curvature="0" />
          </symbol>
          <symbol
             id="textext-4e17f6c7-11"
             overflow="visible"
             style="overflow:visible">
            <path
               id="path3620"
               d="M 3.515625,-3.890625 C 3.734375,-3.890625 4,-3.9375 4.25,-3.9375 c 0.171875,0 0.5625,0.03125 0.578125,0.03125 l -0.109375,-0.625 c -0.6875,0 -1.265625,0.1875 -1.5625,0.3125 -0.21875,-0.171875 -0.546875,-0.3125 -0.953125,-0.3125 -0.859375,0 -1.578125,0.71875 -1.578125,1.625 0,0.359375 0.125,0.71875 0.328125,0.984375 C 0.65625,-1.515625 0.65625,-1.125 0.65625,-1.078125 0.65625,-0.8125 0.75,-0.53125 0.921875,-0.3125 0.40625,-0.015625 0.28125,0.453125 0.28125,0.703125 c 0,0.75 0.984375,1.34375 2.203125,1.34375 1.21875,0 2.203125,-0.578125 2.203125,-1.34375 C 4.6875,-0.6875 3.03125,-0.6875 2.640625,-0.6875 l -0.875,0 c -0.125,0 -0.578125,0 -0.578125,-0.53125 0,-0.109375 0.03125,-0.265625 0.109375,-0.359375 0.203125,0.15625 0.53125,0.296875 0.90625,0.296875 0.890625,0 1.59375,-0.75 1.59375,-1.625 0,-0.484375 -0.21875,-0.859375 -0.328125,-1 z m -1.3125,2.03125 c -0.375,0 -0.890625,-0.21875 -0.890625,-1.046875 0,-0.828125 0.515625,-1.0625 0.890625,-1.0625 0.421875,0 0.890625,0.28125 0.890625,1.0625 0,0.765625 -0.46875,1.046875 -0.890625,1.046875 z M 2.65625,0.03125 c 0.21875,0 1.34375,0 1.34375,0.6875 0,0.4375 -0.6875,0.765625 -1.5,0.765625 -0.8125,0 -1.515625,-0.3125 -1.515625,-0.78125 0,-0.03125 0,-0.671875 0.765625,-0.671875 z m 0,0"
               style="stroke:none"
               inkscape:connector-curvature="0" />
          </symbol>
          <symbol
             id="textext-4e17f6c7-12"
             overflow="visible"
             style="overflow:visible">
            <path
               id="path3623"
               d="m 1.796875,-0.015625 0,-0.8125 -0.828125,0 0,0.828125 0.25,0 -0.25,1.25 0.40625,0 z m 0,0"
               style="stroke:none"
               inkscape:connector-curvature="0" />
          </symbol>
          <symbol
             id="textext-4e17f6c7-13"
             overflow="visible"
             style="overflow:visible">
            <path
               id="path3626"
               d="m 4.5625,-6.921875 -0.828125,0 0,0.828125 0.828125,0 z m -0.046875,2.5 -0.75,0 0,4.421875 0.75,0 z M 1.75,-3.84375 l 1.1875,0 0,-0.578125 -1.21875,0 0,-1.203125 c 0,-0.640625 0.359375,-0.796875 0.609375,-0.796875 0.21875,0 0.4375,0.078125 0.609375,0.1875 l 0,-0.6875 C 2.875,-6.9375 2.625,-7.03125 2.328125,-7.03125 1.59375,-7.03125 1,-6.328125 1,-5.328125 l 0,0.90625 -0.734375,0 0,0.578125 L 1,-3.84375 1,0 1.75,0 z m 0,0"
               style="stroke:none"
               inkscape:connector-curvature="0" />
          </symbol>
          <symbol
             id="textext-4e17f6c7-14"
             overflow="visible"
             style="overflow:visible">
            <path
               id="path3629"
               d="m 4.328125,-6.921875 -0.75,0 0,2.9375 C 3.046875,-4.421875 2.5,-4.53125 2.125,-4.53125 c -0.984375,0 -1.765625,1.03125 -1.765625,2.3125 0,1.3125 0.765625,2.328125 1.71875,2.328125 0.328125,0 0.90625,-0.09375 1.46875,-0.625 l 0,0.515625 0.78125,0 z m -0.78125,5.53125 C 3.546875,-1.25 3.53125,-1.0625 3.21875,-0.78125 2.984375,-0.578125 2.734375,-0.5 2.484375,-0.5 c -0.625,0 -1.34375,-0.46875 -1.34375,-1.703125 0,-1.3125 0.859375,-1.71875 1.4375,-1.71875 0.453125,0 0.75,0.21875 0.96875,0.546875 z m 0,0"
               style="stroke:none"
               inkscape:connector-curvature="0" />
          </symbol>
          <symbol
             id="textext-4e17f6c7-15"
             overflow="visible"
             style="overflow:visible">
            <path
               id="path3632"
               d="m 1.75,-3.84375 1.09375,0 0,-0.578125 -1.125,0 0,-1.1875 c 0,-0.734375 0.671875,-0.8125 0.9375,-0.8125 0.1875,0 0.46875,0.015625 0.796875,0.171875 l 0,-0.671875 C 3.34375,-6.953125 3.03125,-7.03125 2.65625,-7.03125 1.71875,-7.03125 1,-6.3125 1,-5.328125 l 0,0.90625 -0.734375,0 0,0.578125 L 1,-3.84375 1,0 1.75,0 z m 0,0"
               style="stroke:none"
               inkscape:connector-curvature="0" />
          </symbol>
          <symbol
             id="textext-4e17f6c7-16"
             overflow="visible"
             style="overflow:visible">
            <path
               id="path3635"
               d="m 4.671875,-2.1875 c 0,-1.34375 -1,-2.40625 -2.171875,-2.40625 -1.234375,0 -2.203125,1.09375 -2.203125,2.40625 0,1.3125 1.015625,2.296875 2.1875,2.296875 1.1875,0 2.1875,-1 2.1875,-2.296875 z m -2.1875,1.65625 c -0.6875,0 -1.40625,-0.5625 -1.40625,-1.765625 0,-1.203125 0.75,-1.6875 1.40625,-1.6875 0.703125,0 1.40625,0.515625 1.40625,1.6875 0,1.1875 -0.671875,1.765625 -1.40625,1.765625 z m 0,0"
               style="stroke:none"
               inkscape:connector-curvature="0" />
          </symbol>
          <symbol
             id="textext-4e17f6c7-17"
             overflow="visible"
             style="overflow:visible">
            <path
               id="path3638"
               d="M 1.5625,-2.140625 C 1.5625,-3.125 2.28125,-3.84375 3.265625,-3.875 l 0,-0.65625 c -0.890625,0 -1.4375,0.5 -1.75,0.953125 l 0,-0.90625 -0.703125,0 0,4.484375 0.75,0 z m 0,0"
               style="stroke:none"
               inkscape:connector-curvature="0" />
          </symbol>
          <symbol
             id="textext-4e17f6c7-18"
             overflow="visible"
             style="overflow:visible">
            <path
               id="path3641"
               d="m 7.109375,-2.96875 c 0,-0.671875 -0.15625,-1.5625 -1.375,-1.5625 -0.59375,0 -1.109375,0.28125 -1.484375,0.8125 -0.25,-0.75 -0.953125,-0.8125 -1.265625,-0.8125 -0.71875,0 -1.1875,0.40625 -1.453125,0.765625 l 0,-0.71875 -0.71875,0 0,4.484375 0.765625,0 0,-2.4375 c 0,-0.6875 0.28125,-1.484375 1.015625,-1.484375 0.921875,0 0.96875,0.640625 0.96875,1.015625 l 0,2.90625 0.78125,0 0,-2.4375 c 0,-0.6875 0.265625,-1.484375 1.015625,-1.484375 0.921875,0 0.96875,0.640625 0.96875,1.015625 l 0,2.90625 0.78125,0 z m 0,0"
               style="stroke:none"
               inkscape:connector-curvature="0" />
          </symbol>
          <symbol
             id="textext-4e17f6c7-19"
             overflow="visible"
             style="overflow:visible">
            <path
               id="path3644"
               d="m 2.59375,-2.28125 1.828125,-2.140625 -0.828125,0 -1.328125,1.640625 -1.375,-1.640625 -0.828125,0 1.875,2.140625 L 0,0 l 0.8125,0 1.453125,-1.875 1.5,1.875 0.8125,0 z m 0,0"
               style="stroke:none"
               inkscape:connector-curvature="0" />
          </symbol>
          <symbol
             id="textext-4e17f6c7-20"
             overflow="visible"
             style="overflow:visible">
            <path
               id="path3647"
               d="m 4.34375,-4.421875 -0.78125,0 0,2.890625 c 0,0.75 -0.5625,1.09375 -1.203125,1.09375 -0.703125,0 -0.78125,-0.265625 -0.78125,-0.6875 l 0,-3.296875 -0.765625,0 0,3.328125 c 0,0.71875 0.21875,1.203125 1.046875,1.203125 0.53125,0 1.234375,-0.15625 1.734375,-0.59375 l 0,0.484375 0.75,0 z m 0,0"
               style="stroke:none"
               inkscape:connector-curvature="0" />
          </symbol>
          <symbol
             id="textext-4e17f6c7-21"
             overflow="visible"
             style="overflow:visible">
            <path
               id="path3650"
               d="m 3.296875,2.390625 c 0,-0.03125 0,-0.046875 -0.171875,-0.21875 C 1.890625,0.921875 1.5625,-0.96875 1.5625,-2.5 c 0,-1.734375 0.375,-3.46875 1.609375,-4.703125 0.125,-0.125 0.125,-0.140625 0.125,-0.171875 0,-0.078125 -0.03125,-0.109375 -0.09375,-0.109375 -0.109375,0 -1,0.6875 -1.59375,1.953125 -0.5,1.09375 -0.625,2.203125 -0.625,3.03125 0,0.78125 0.109375,1.984375 0.65625,3.125 C 2.25,1.84375 3.09375,2.5 3.203125,2.5 c 0.0625,0 0.09375,-0.03125 0.09375,-0.109375 z m 0,0"
               style="stroke:none"
               inkscape:connector-curvature="0" />
          </symbol>
          <symbol
             id="textext-4e17f6c7-22"
             overflow="visible"
             style="overflow:visible">
            <path
               id="path3653"
               d="m 2.875,-2.5 c 0,-0.765625 -0.109375,-1.96875 -0.65625,-3.109375 -0.59375,-1.21875 -1.453125,-1.875 -1.546875,-1.875 -0.0625,0 -0.109375,0.046875 -0.109375,0.109375 0,0.03125 0,0.046875 0.1875,0.234375 0.984375,0.984375 1.546875,2.5625 1.546875,4.640625 0,1.71875 -0.359375,3.46875 -1.59375,4.71875 C 0.5625,2.34375 0.5625,2.359375 0.5625,2.390625 0.5625,2.453125 0.609375,2.5 0.671875,2.5 0.765625,2.5 1.671875,1.8125 2.25,0.546875 2.765625,-0.546875 2.875,-1.65625 2.875,-2.5 z m 0,0"
               style="stroke:none"
               inkscape:connector-curvature="0" />
          </symbol>
          <symbol
             id="textext-4e17f6c7-23"
             overflow="visible"
             style="overflow:visible">
            <path
               id="path3656"
               d="M 3.734375,-6.03125 C 3.8125,-6.390625 3.84375,-6.5 4.78125,-6.5 c 0.296875,0 0.375,0 0.375,-0.1875 0,-0.125 -0.109375,-0.125 -0.15625,-0.125 -0.328125,0 -1.140625,0.03125 -1.46875,0.03125 -0.296875,0 -1.03125,-0.03125 -1.328125,-0.03125 -0.0625,0 -0.1875,0 -0.1875,0.203125 0,0.109375 0.09375,0.109375 0.28125,0.109375 0.015625,0 0.203125,0 0.375,0.015625 0.171875,0.03125 0.265625,0.03125 0.265625,0.171875 0,0.03125 0,0.0625 -0.03125,0.1875 L 1.5625,-0.78125 c -0.09375,0.390625 -0.109375,0.46875 -0.90625,0.46875 -0.171875,0 -0.265625,0 -0.265625,0.203125 C 0.390625,0 0.484375,0 0.65625,0 l 4.625,0 C 5.515625,0 5.515625,0 5.578125,-0.171875 L 6.375,-2.328125 c 0.03125,-0.109375 0.03125,-0.125 0.03125,-0.140625 0,-0.03125 -0.03125,-0.109375 -0.109375,-0.109375 -0.09375,0 -0.109375,0.0625 -0.171875,0.21875 -0.34375,0.90625 -0.78125,2.046875 -2.5,2.046875 l -0.9375,0 c -0.140625,0 -0.171875,0 -0.21875,0 -0.109375,-0.015625 -0.140625,-0.03125 -0.140625,-0.109375 0,-0.03125 0,-0.046875 0.046875,-0.21875 z m 0,0"
               style="stroke:none"
               inkscape:connector-curvature="0" />
          </symbol>
          <symbol
             id="textext-4e17f6c7-24"
             overflow="visible"
             style="overflow:visible">
            <path
               id="path3659"
               d="m 4.53125,-4.984375 c 0,-0.65625 -0.171875,-2.046875 -1.1875,-2.046875 -1.390625,0 -2.921875,2.8125 -2.921875,5.09375 0,0.9375 0.28125,2.046875 1.1875,2.046875 1.40625,0 2.921875,-2.859375 2.921875,-5.09375 z M 1.46875,-3.625 C 1.640625,-4.25 1.84375,-5.046875 2.25,-5.765625 2.515625,-6.25 2.875,-6.8125 3.328125,-6.8125 c 0.484375,0 0.546875,0.640625 0.546875,1.203125 0,0.5 -0.078125,1 -0.3125,1.984375 z m 2,0.328125 C 3.359375,-2.84375 3.15625,-2 2.765625,-1.28125 c -0.34375,0.6875 -0.71875,1.171875 -1.15625,1.171875 -0.328125,0 -0.53125,-0.296875 -0.53125,-1.21875 0,-0.421875 0.0625,-1 0.3125,-1.96875 z m 0,0"
               style="stroke:none"
               inkscape:connector-curvature="0" />
          </symbol>
          <symbol
             id="textext-4e17f6c7-25"
             overflow="visible"
             style="overflow:visible">
            <path
               id="path3662"
               d="M 6.265625,-5.671875 C 6.75,-6.453125 7.171875,-6.484375 7.53125,-6.5 c 0.125,-0.015625 0.140625,-0.171875 0.140625,-0.1875 0,-0.078125 -0.0625,-0.125 -0.140625,-0.125 -0.25,0 -0.546875,0.03125 -0.8125,0.03125 -0.328125,0 -0.671875,-0.03125 -0.984375,-0.03125 -0.0625,0 -0.1875,0 -0.1875,0.1875 0,0.109375 0.078125,0.125 0.15625,0.125 0.265625,0.015625 0.453125,0.125 0.453125,0.328125 0,0.15625 -0.140625,0.375 -0.140625,0.375 l -3.0625,4.875 -0.6875,-5.28125 C 2.265625,-6.375 2.5,-6.5 2.953125,-6.5 c 0.140625,0 0.25,0 0.25,-0.203125 0,-0.078125 -0.078125,-0.109375 -0.125,-0.109375 -0.40625,0 -0.828125,0.03125 -1.25,0.03125 -0.171875,0 -0.359375,0 -0.546875,0 -0.171875,0 -0.359375,-0.03125 -0.53125,-0.03125 -0.078125,0 -0.1875,0 -0.1875,0.1875 0,0.125 0.078125,0.125 0.25,0.125 0.546875,0 0.5625,0.09375 0.59375,0.34375 L 2.1875,-0.015625 C 2.21875,0.1875 2.265625,0.21875 2.390625,0.21875 c 0.15625,0 0.203125,-0.046875 0.28125,-0.171875 z m 0,0"
               style="stroke:none"
               inkscape:connector-curvature="0" />
          </symbol>
        </g>
      </defs>
      <g
         id="textext-4e17f6c7-26">
        <g
           id="g3665"
           style="fill:#000000;fill-opacity:1">
          <use
             id="use3667"
             y="83.403"
             x="325.134"
             xlink:href="#textext-4e17f6c7-0"
             width="597.40802"
             height="333.20209" />
          <use
             id="use3669"
             y="83.403"
             x="331.77606"
             xlink:href="#textext-4e17f6c7-1"
             width="597.40802"
             height="333.20209" />
          <use
             id="use3671"
             y="83.403"
             x="334.15613"
             xlink:href="#textext-4e17f6c7-2"
             width="597.40802"
             height="333.20209" />
          <use
             id="use3673"
             y="83.403"
             x="338.74988"
             xlink:href="#textext-4e17f6c7-3"
             width="597.40802"
             height="333.20209" />
          <use
             id="use3675"
             y="83.403"
             x="343.17728"
             xlink:href="#textext-4e17f6c7-4"
             width="597.40802"
             height="333.20209" />
        </g>
        <g
           id="g3677"
           style="fill:#000000;fill-opacity:1">
          <use
             id="use3679"
             y="83.403"
             x="350.53665"
             xlink:href="#textext-4e17f6c7-5"
             width="597.40802"
             height="333.20209" />
          <use
             id="use3681"
             y="83.403"
             x="354.13412"
             xlink:href="#textext-4e17f6c7-6"
             width="597.40802"
             height="333.20209" />
          <use
             id="use3683"
             y="83.403"
             x="359.2818"
             xlink:href="#textext-4e17f6c7-3"
             width="597.40802"
             height="333.20209" />
        </g>
        <g
           id="g3685"
           style="fill:#000000;fill-opacity:1">
          <use
             id="use3687"
             y="83.403"
             x="365.9209"
             xlink:href="#textext-4e17f6c7-7"
             width="597.40802"
             height="333.20209" />
          <use
             id="use3689"
             y="83.403"
             x="369.73956"
             xlink:href="#textext-4e17f6c7-8"
             width="597.40802"
             height="333.20209" />
          <use
             id="use3691"
             y="83.403"
             x="372.11963"
             xlink:href="#textext-4e17f6c7-9"
             width="597.40802"
             height="333.20209" />
          <use
             id="use3693"
             y="83.403"
             x="376.90765"
             xlink:href="#textext-4e17f6c7-4"
             width="597.40802"
             height="333.20209" />
          <use
             id="use3695"
             y="83.403"
             x="382.05533"
             xlink:href="#textext-4e17f6c7-5"
             width="597.40802"
             height="333.20209" />
          <use
             id="use3697"
             y="83.403"
             x="385.6528"
             xlink:href="#textext-4e17f6c7-10"
             width="597.40802"
             height="333.20209" />
          <use
             id="use3699"
             y="83.403"
             x="388.97336"
             xlink:href="#textext-4e17f6c7-6"
             width="597.40802"
             height="333.20209" />
          <use
             id="use3701"
             y="83.403"
             x="394.12103"
             xlink:href="#textext-4e17f6c7-3"
             width="597.40802"
             height="333.20209" />
          <use
             id="use3703"
             y="83.403"
             x="398.5484"
             xlink:href="#textext-4e17f6c7-1"
             width="597.40802"
             height="333.20209" />
          <use
             id="use3705"
             y="83.403"
             x="400.92847"
             xlink:href="#textext-4e17f6c7-11"
             width="597.40802"
             height="333.20209" />
          <use
             id="use3707"
             y="83.403"
             x="405.90976"
             xlink:href="#textext-4e17f6c7-6"
             width="597.40802"
             height="333.20209" />
          <use
             id="use3709"
             y="83.403"
             x="411.05743"
             xlink:href="#textext-4e17f6c7-5"
             width="597.40802"
             height="333.20209" />
        </g>
        <g
           id="g3711"
           style="fill:#000000;fill-opacity:1">
          <use
             id="use3713"
             y="83.403"
             x="416.87299"
             xlink:href="#textext-4e17f6c7-21"
             width="597.40802"
             height="333.20209" />
        </g>
        <g
           id="g3715"
           style="fill:#000000;fill-opacity:1">
          <use
             id="use3717"
             y="83.403"
             x="420.74799"
             xlink:href="#textext-4e17f6c7-23"
             width="597.40802"
             height="333.20209" />
        </g>
        <g
           id="g3719"
           style="fill:#000000;fill-opacity:1">
          <use
             id="use3721"
             y="83.403"
             x="427.52802"
             xlink:href="#textext-4e17f6c7-22"
             width="597.40802"
             height="333.20209" />
        </g>
        <g
           id="g3723"
           style="fill:#000000;fill-opacity:1">
          <use
             id="use3725"
             y="83.403"
             x="431.40201"
             xlink:href="#textext-4e17f6c7-12"
             width="597.40802"
             height="333.20209" />
        </g>
        <g
           id="g3727"
           style="fill:#000000;fill-opacity:1">
          <use
             id="use3729"
             y="83.403"
             x="436.60049"
             xlink:href="#textext-4e17f6c7-13"
             width="597.40802"
             height="333.20209" />
          <use
             id="use3731"
             y="83.403"
             x="441.94144"
             xlink:href="#textext-4e17f6c7-4"
             width="597.40802"
             height="333.20209" />
          <use
             id="use3733"
             y="83.403"
             x="447.08911"
             xlink:href="#textext-4e17f6c7-14"
             width="597.40802"
             height="333.20209" />
        </g>
        <g
           id="g3735"
           style="fill:#000000;fill-opacity:1">
          <use
             id="use3737"
             y="83.403"
             x="454.45844"
             xlink:href="#textext-4e17f6c7-5"
             width="597.40802"
             height="333.20209" />
          <use
             id="use3739"
             y="83.403"
             x="458.05594"
             xlink:href="#textext-4e17f6c7-6"
             width="597.40802"
             height="333.20209" />
          <use
             id="use3741"
             y="83.403"
             x="463.20361"
             xlink:href="#textext-4e17f6c7-3"
             width="597.40802"
             height="333.20209" />
        </g>
        <g
           id="g3743"
           style="fill:#000000;fill-opacity:1">
          <use
             id="use3745"
             y="95.359001"
             x="325.134"
             xlink:href="#textext-4e17f6c7-24"
             width="597.40802"
             height="333.20209" />
        </g>
        <g
           id="g3747"
           style="fill:#000000;fill-opacity:1">
          <use
             id="use3749"
             y="95.359001"
             x="333.40799"
             xlink:href="#textext-4e17f6c7-15"
             width="597.40802"
             height="333.20209" />
          <use
             id="use3751"
             y="95.359001"
             x="336.45258"
             xlink:href="#textext-4e17f6c7-16"
             width="597.40802"
             height="333.20209" />
        </g>
        <g
           id="g3753"
           style="fill:#000000;fill-opacity:1">
          <use
             id="use3755"
             y="95.359001"
             x="341.15491"
             xlink:href="#textext-4e17f6c7-17"
             width="597.40802"
             height="333.20209" />
        </g>
        <g
           id="g3757"
           style="fill:#000000;fill-opacity:1">
          <use
             id="use3759"
             y="95.359001"
             x="347.88666"
             xlink:href="#textext-4e17f6c7-18"
             width="597.40802"
             height="333.20209" />
          <use
             id="use3761"
             y="95.359001"
             x="355.80093"
             xlink:href="#textext-4e17f6c7-9"
             width="597.40802"
             height="333.20209" />
          <use
             id="use3763"
             y="95.359001"
             x="360.58896"
             xlink:href="#textext-4e17f6c7-19"
             width="597.40802"
             height="333.20209" />
          <use
             id="use3765"
             y="95.359001"
             x="365.18271"
             xlink:href="#textext-4e17f6c7-1"
             width="597.40802"
             height="333.20209" />
          <use
             id="use3767"
             y="95.359001"
             x="367.56277"
             xlink:href="#textext-4e17f6c7-18"
             width="597.40802"
             height="333.20209" />
          <use
             id="use3769"
             y="95.359001"
             x="375.47708"
             xlink:href="#textext-4e17f6c7-20"
             width="597.40802"
             height="333.20209" />
          <use
             id="use3771"
             y="95.359001"
             x="380.62476"
             xlink:href="#textext-4e17f6c7-18"
             width="597.40802"
             height="333.20209" />
        </g>
        <g
           id="g3773"
           style="fill:#000000;fill-opacity:1">
          <use
             id="use3775"
             y="95.359001"
             x="391.85657"
             xlink:href="#textext-4e17f6c7-2"
             width="597.40802"
             height="333.20209" />
          <use
             id="use3777"
             y="95.359001"
             x="396.45035"
             xlink:href="#textext-4e17f6c7-16"
             width="597.40802"
             height="333.20209" />
          <use
             id="use3779"
             y="95.359001"
             x="401.43164"
             xlink:href="#textext-4e17f6c7-8"
             width="597.40802"
             height="333.20209" />
          <use
             id="use3781"
             y="95.359001"
             x="403.81171"
             xlink:href="#textext-4e17f6c7-20"
             width="597.40802"
             height="333.20209" />
          <use
             id="use3783"
             y="95.359001"
             x="408.95938"
             xlink:href="#textext-4e17f6c7-18"
             width="597.40802"
             height="333.20209" />
          <use
             id="use3785"
             y="95.359001"
             x="416.87366"
             xlink:href="#textext-4e17f6c7-3"
             width="597.40802"
             height="333.20209" />
        </g>
        <g
           id="g3787"
           style="fill:#000000;fill-opacity:1">
          <use
             id="use3789"
             y="95.359001"
             x="424.62201"
             xlink:href="#textext-4e17f6c7-21"
             width="597.40802"
             height="333.20209" />
        </g>
        <g
           id="g3791"
           style="fill:#000000;fill-opacity:1">
          <use
             id="use3793"
             y="95.359001"
             x="428.496"
             xlink:href="#textext-4e17f6c7-25"
             width="597.40802"
             height="333.20209" />
        </g>
        <g
           id="g3795"
           style="fill:#000000;fill-opacity:1">
          <use
             id="use3797"
             y="95.359001"
             x="436.522"
             xlink:href="#textext-4e17f6c7-22"
             width="597.40802"
             height="333.20209" />
        </g>
      </g>
    </g>
  </g>
</svg>
