<?xml version="1.0" encoding="UTF-8" standalone="no"?>
<!-- Created with Inkscape (http://www.inkscape.org/) -->

<svg
   xmlns:dc="http://purl.org/dc/elements/1.1/"
   xmlns:cc="http://creativecommons.org/ns#"
   xmlns:rdf="http://www.w3.org/1999/02/22-rdf-syntax-ns#"
   xmlns:svg="http://www.w3.org/2000/svg"
   xmlns="http://www.w3.org/2000/svg"
   xmlns:sodipodi="http://sodipodi.sourceforge.net/DTD/sodipodi-0.dtd"
   xmlns:inkscape="http://www.inkscape.org/namespaces/inkscape"
   width="301.37247"
   height="228.4288"
   id="svg2"
   version="1.1"
   inkscape:version="0.48.3.1 r9886"
   sodipodi:docname="fig.svg">
  <sodipodi:namedview
     id="base"
     pagecolor="#ffffff"
     bordercolor="#666666"
     borderopacity="1.0"
     inkscape:pageopacity="0.0"
     inkscape:pageshadow="2"
     inkscape:zoom="2.1075627"
     inkscape:cx="130.26697"
     inkscape:cy="106.29861"
     inkscape:document-units="px"
     inkscape:current-layer="g5431"
     showgrid="false"
     inkscape:window-width="1013"
     inkscape:window-height="674"
     inkscape:window-x="155"
     inkscape:window-y="24"
     inkscape:window-maximized="0"
     fit-margin-top="0"
     fit-margin-left="0"
     fit-margin-right="0"
     fit-margin-bottom="0"
     showborder="false"
     inkscape:showpageshadow="false" />
  <defs
     id="defs4">
    <marker
       inkscape:stockid="DotS"
       orient="auto"
       refY="0"
       refX="0"
       id="DotS"
       style="overflow:visible">
      <path
         id="path4067"
         d="m -2.5,-1 c 0,2.76 -2.24,5 -5,5 -2.76,0 -5,-2.24 -5,-5 0,-2.76 2.24,-5 5,-5 2.76,0 5,2.24 5,5 z"
         style="fill-rule:evenodd;stroke:#000000;stroke-width:1pt"
         transform="matrix(0.2,0,0,0.2,1.48,0.2)"
         inkscape:connector-curvature="0" />
    </marker>
  </defs>
  <metadata
     id="metadata7">
    <rdf:RDF>
      <cc:Work
         rdf:about="">
        <dc:format>image/svg+xml</dc:format>
        <dc:type
           rdf:resource="http://purl.org/dc/dcmitype/StillImage" />
        <dc:title />
      </cc:Work>
    </rdf:RDF>
  </metadata>
  <g
     inkscape:label="Layer 1"
     inkscape:groupmode="layer"
     id="layer1"
     transform="translate(-5.8927441,-842.3659)">
    <path
       style="fill:#008080;fill-opacity:0;fill-rule:evenodd;stroke:#008080;stroke-width:1.5;stroke-linecap:butt;stroke-linejoin:miter;stroke-miterlimit:4;stroke-opacity:1;stroke-dasharray:none"
       transform="translate(0,832.6773)"
       d="m 6.6427441,99.430283 c 5.2609209,1.951577 10.5218409,3.903147 15.7827619,5.854717 5.26092,1.95157 10.521841,3.90314 15.782761,5.85472 5.260921,1.95157 10.521841,3.90314 15.782762,5.85471 5.26092,1.95157 10.521841,3.90315 15.782761,5.85472 5.260921,1.95157 10.521841,3.90314 15.782762,5.85471 5.260921,1.95158 10.521841,3.90315 15.782758,5.85472 5.26092,1.95157 10.52184,3.90314 15.78277,5.85472 5.26092,1.95157 10.52184,3.90314 15.78276,5.85471 5.26092,1.95157 10.52184,3.90315 15.78276,5.85472 5.26092,1.95157 10.52184,3.90314 15.78276,5.85471 5.26092,1.95158 10.52184,3.90315 15.78276,5.85472 5.26092,1.95157 10.52184,3.90314 15.78276,5.85472 5.26092,1.95157 10.52184,3.90314 15.78276,5.85471 5.26093,1.95157 10.52185,3.90315 15.78277,5.85472 5.26092,1.95157 10.52184,3.90314 15.78276,5.85471 5.26092,1.95158 10.52184,3.90315 15.78276,5.85472 5.26092,1.95157 10.52184,3.90314 15.78276,5.85472 5.26092,1.95157 10.52184,3.90314 15.78276,5.85471 5.26092,1.95157 10.52184,3.90315 15.78276,5.85472"
       title="10-x"
       id="path3767"
       inkscape:connector-curvature="0" />
    <path
       style="fill:#ff6600;fill-opacity:0;fill-rule:evenodd;stroke:#ff6600;stroke-width:1.5;stroke-linecap:butt;stroke-linejoin:miter;stroke-miterlimit:4;stroke-opacity:1;stroke-dasharray:none;marker-start:none;marker-mid:none"
       transform="translate(0,832.6773)"
       d="m 6.6427441,116.11622 c 5.2609209,1.46368 10.5218409,2.92736 15.7827619,4.39104 5.26092,1.46368 10.521841,2.92736 15.782761,4.39104 5.260921,1.46368 10.521841,2.92736 15.782762,4.39104 5.26092,1.46367 10.521841,2.92735 15.782761,4.39103 5.260921,1.46368 10.521841,2.92736 15.782762,4.39104 5.260921,1.46368 10.521841,2.92736 15.782758,4.39104 5.26092,1.46368 10.52184,2.92735 15.78277,4.39103 5.26092,1.46368 10.52184,2.92736 15.78276,4.39104 5.26092,1.46368 10.52184,2.92736 15.78276,4.39104 5.26092,1.46368 10.52184,2.92736 15.78276,4.39103 5.26092,1.46368 10.52184,2.92736 15.78276,4.39104 5.26092,1.46368 10.52184,2.92736 15.78276,4.39104 5.26092,1.46368 10.52184,2.92736 15.78276,4.39104 5.26093,1.46368 10.52185,2.92735 15.78277,4.39103 5.26092,1.46368 10.52184,2.92736 15.78276,4.39104 5.26092,1.46368 10.52184,2.92736 15.78276,4.39104 5.26092,1.46368 10.52184,2.92736 15.78276,4.39103 5.26092,1.46368 10.52184,2.92736 15.78276,4.39104 5.26092,1.46368 10.52184,2.92736 15.78276,4.39104"
       title="-0.75*x+8.5"
       id="path3793"
       inkscape:connector-curvature="0" />
    <path
       id="path3808"
       title="-1.6*x+13.6"
       d="m 6.6427441,210.66989 299.8724659,0 m -299.8724659,0 0,-200.231291 m 0,48.945426 c 5.2609209,3.122516 10.5218409,6.245031 15.7827619,9.367546 5.26092,3.122515 10.521841,6.245031 15.782761,9.367546 5.260921,3.122515 10.521841,6.24503 15.782762,9.367546 5.26092,3.122515 10.521841,6.24503 15.782761,9.367545 5.260921,3.122516 10.521841,6.245032 15.782762,9.367542 5.260921,3.12252 10.521841,6.24503 15.782758,9.36755 5.26092,3.12252 10.52184,6.24503 15.78277,9.36755 5.26092,3.12251 10.52184,6.24503 15.78276,9.36754 5.26092,3.12252 10.52184,6.24503 15.78276,9.36755 5.26092,3.12251 10.52184,6.24503 15.78276,9.36754 5.26092,3.12252 10.52184,6.24503 15.78276,9.36755 5.26092,3.12251 10.52184,6.24503 15.78276,9.36754 5.26092,3.12252 10.52184,6.24503 15.78276,9.36755 5.26093,3.12252 10.52185,6.24503 15.78277,9.36755 5.26092,3.12251 10.52184,6.24503 15.78276,9.36754 5.26092,3.12252 10.52184,6.24503 15.78276,9.36755 5.26092,3.12251 10.52184,6.24503 15.78276,9.36754 5.26092,3.12252 10.52184,6.24503 15.78276,9.36755 5.26092,3.12251 10.52184,6.24503 15.78276,9.36754"
       transform="translate(0,832.6773)"
       style="fill:#241c1c;fill-opacity:0;fill-rule:evenodd;stroke:#241c1c;stroke-width:1.5;stroke-linecap:butt;stroke-linejoin:miter;stroke-miterlimit:4;stroke-opacity:1;stroke-dasharray:none;stroke-dashoffset:0"
       inkscape:connector-curvature="0" />
    <g
       id="g5407"
       transform="translate(-69.274333,825.12374)" />
    <g
       transform="translate(-28.943387,810.88929)"
       id="g5431">
      <text
         sodipodi:linespacing="125%"
         id="text6056"
         y="248.99234"
         x="189.04269"
         style="font-size:18px;font-style:normal;font-variant:normal;font-weight:normal;font-stretch:normal;line-height:125%;letter-spacing:0px;word-spacing:0px;fill:#000000;fill-opacity:1;stroke:none;font-family:Ubuntu;-inkscape-font-specification:Ubuntu"
         xml:space="preserve"><tspan
           style="font-size:16px;-inkscape-font-specification:TlwgTypewriter Medium;font-family:TlwgTypewriter;font-weight:500;font-style:normal;font-stretch:normal;font-variant:normal"
           y="248.99234"
           x="189.04269"
           id="tspan6058"
           sodipodi:role="line">Men (m)</tspan></text>
      <text
         xml:space="preserve"
         style="font-size:18px;font-style:normal;font-variant:normal;font-weight:normal;font-stretch:normal;line-height:125%;letter-spacing:0px;word-spacing:0px;fill:#000000;fill-opacity:1;stroke:none;font-family:Ubuntu;-inkscape-font-specification:Ubuntu"
         x="40.529911"
         y="46.388641"
         id="text6060"
         sodipodi:linespacing="125%"><tspan
           sodipodi:role="line"
           id="tspan6062"
           x="40.529911"
           y="46.388641"
           style="font-size:16px;font-style:normal;font-variant:normal;font-weight:500;font-stretch:normal;font-family:TlwgTypewriter;-inkscape-font-specification:TlwgTypewriter Medium">Women (w)</tspan></text>
      <text
         transform="matrix(0.95805739,0.28657641,-0.28657641,0.95805739,0,0)"
         sodipodi:linespacing="125%"
         id="text6064"
         y="135.11024"
         x="97.101921"
         style="font-size:14px;font-style:normal;font-variant:normal;font-weight:normal;font-stretch:normal;line-height:125%;letter-spacing:0px;word-spacing:0px;fill:#000000;fill-opacity:1;stroke:none;font-family:Ubuntu;-inkscape-font-specification:Ubuntu"
         xml:space="preserve"><tspan
           id="tspan6076"
           style="font-size:12px;font-style:normal;font-variant:normal;font-weight:normal;font-stretch:normal;font-family:FreeSans;-inkscape-font-specification:FreeSans"
           y="135.11024"
           x="97.101921"
           sodipodi:role="line">Letters</tspan></text>
      <text
         transform="matrix(0.87232787,0.48892135,-0.48892135,0.87232787,0,0)"
         xml:space="preserve"
         style="font-size:14px;font-style:normal;font-variant:normal;font-weight:normal;font-stretch:normal;line-height:125%;letter-spacing:0px;word-spacing:0px;fill:#000000;fill-opacity:1;stroke:none;font-family:Ubuntu;-inkscape-font-specification:Ubuntu"
         x="107.21427"
         y="46.572945"
         id="text6068"
         sodipodi:linespacing="125%"><tspan
           sodipodi:role="line"
           id="tspan6070"
           x="107.21427"
           y="46.572945"
           style="font-size:12px;font-style:normal;font-variant:normal;font-weight:normal;font-stretch:normal;font-family:FreeSans;-inkscape-font-specification:FreeSans">Packages</tspan></text>
      <text
         transform="matrix(0.94020812,0.34060048,-0.34060048,0.94020812,0,0)"
         sodipodi:linespacing="125%"
         id="text6072"
         y="95.494621"
         x="98.232918"
         style="font-size:14px;font-style:normal;font-variant:normal;font-weight:normal;font-stretch:normal;line-height:125%;letter-spacing:0px;word-spacing:0px;fill:#000000;fill-opacity:1;stroke:none;font-family:Ubuntu;-inkscape-font-specification:Ubuntu"
         xml:space="preserve"><tspan
           style="font-size:12px;font-style:normal;font-variant:normal;font-weight:normal;font-stretch:normal;font-family:FreeSans;-inkscape-font-specification:FreeSans"
           y="95.494621"
           x="98.232918"
           id="tspan6074"
           sodipodi:role="line">Workers</tspan></text>
      <g
         id="g6559"
         transform="translate(122.41629,87.304639)">
        <g
           word-spacing="normal"
           letter-spacing="normal"
           font-size-adjust="none"
           font-stretch="normal"
           font-weight="normal"
           font-variant="normal"
           font-style="normal"
           stroke-miterlimit="10.433"
           xml:space="preserve"
           transform="matrix(0.32632686,0,0,-0.32632686,-57.1072,226.02935)"
           id="content"
           style="font-style:normal;font-variant:normal;font-weight:normal;font-stretch:normal;letter-spacing:normal;word-spacing:normal;text-anchor:start;fill:none;stroke:#000000;stroke-linecap:butt;stroke-linejoin:miter;stroke-miterlimit:10.43299961;stroke-opacity:1;stroke-dasharray:none;stroke-dashoffset:0"><path
             id="path6562"
             d="m 464.44,411.93 -0.19,-0.3 -0.18,-0.29 -0.19,-0.28 -0.19,-0.26 -0.18,-0.25 -0.19,-0.23 -0.19,-0.22 -0.18,-0.21 -0.19,-0.2 -0.19,-0.18 -0.18,-0.17 -0.19,-0.16 -0.19,-0.15 -0.18,-0.14 -0.19,-0.13 -0.19,-0.12 -0.19,-0.11 -0.19,-0.1 -0.19,-0.09 -0.19,-0.09 -0.19,-0.07 -0.2,-0.07 -0.19,-0.07 -0.2,-0.05 -0.19,-0.05 -0.2,-0.04 -0.2,-0.04 -0.19,-0.03 -0.41,-0.05 -0.4,-0.03 c -0.61,-0.05 -1.05,-0.05 -1.05,-1 0,-0.3 0.25,-0.55 0.64,-0.55 1.34,0 2.89,0.16 4.28,0.16 1.64,0 3.39,-0.16 4.99,-0.16 0.29,0 0.95,0 0.95,0.95 0,0.55 -0.45,0.6 -0.8,0.6 -1.15,0.09 -2.34,0.5 -2.34,1.73 0,0.61 0.3,1.16 0.69,1.84 l 3.79,6.39 h 12.5 l -0.14,1.54 h -11.42 l 9.83,16.45 1.59,-16.45 0.14,-1.54 c 0.11,-1.04 0.8,-7.82 0.8,-8.32 0,-1.5 -2.59,-1.64 -3.58,-1.64 -0.7,0 -1.2,0 -1.2,-1 0,-0.55 0.59,-0.55 0.7,-0.55 2.03,0 4.19,0.16 6.22,0.16 1.25,0 4.39,-0.16 5.64,-0.16 0.3,0 0.89,0 0.89,1 0,0.55 -0.5,0.55 -1.14,0.55 -3.09,0 -3.09,0.34 -3.25,1.79 l -3.03,31.13 c -0.11,1 -0.11,1.2 -0.95,1.2 -0.8,0 -0.99,-0.34 -1.3,-0.84 z"
             inkscape:connector-curvature="0"
             style="fill:#000000;stroke-width:0" /><path
             id="path6564"
             d="m 509.32,394.25 0,0.02 0,0.03 0,0.01 -0.01,0.02 0,0.01 0,0.02 -0.01,0.01 -0.01,0.02 0,0.02 -0.01,0.02 -0.02,0.02 -0.01,0.03 -0.02,0.02 -0.02,0.03 -0.02,0.03 -0.02,0.03 -0.03,0.03 -0.03,0.04 -0.01,0.02 -0.02,0.02 -0.02,0.02 -0.01,0.02 -0.02,0.02 -0.02,0.03 -0.02,0.02 -0.03,0.02 -0.02,0.03 -0.02,0.02 -0.03,0.03 -0.02,0.03 -0.03,0.03 -0.03,0.03 -0.03,0.03 -0.02,0.03 -0.04,0.03 -0.03,0.03 -0.03,0.04 -0.03,0.03 -0.04,0.04 -0.04,0.03 -0.03,0.04 -0.04,0.04 c -6.22,6.28 -7.82,15.69 -7.82,23.31 0,8.67 1.89,17.35 8.02,23.56 0.64,0.61 0.64,0.71 0.64,0.86 0,0.35 -0.19,0.49 -0.48,0.49 -0.5,0 -4.99,-3.38 -7.93,-9.7 -2.54,-5.49 -3.14,-11.02 -3.14,-15.21 0,-3.89 0.55,-9.9 3.28,-15.54 2.99,-6.13 7.29,-9.36 7.79,-9.36 0.29,0 0.48,0.14 0.48,0.5 z"
             inkscape:connector-curvature="0"
             style="fill:#000000;stroke-width:0" /><path
             id="path6566"
             d="m 518.73,422.54 v 1.19 c 0,12.61 6.17,14.41 8.72,14.41 1.19,0 3.28,-0.3 4.37,-2 -0.73,0 -2.73,0 -2.73,-2.24 0,-1.54 1.2,-2.29 2.3,-2.29 0.79,0 2.28,0.45 2.28,2.39 0,3 -2.19,5.39 -6.32,5.39 -6.38,0 -13.1,-6.44 -13.1,-17.44 0,-13.31 5.78,-16.84 10.4,-16.84 5.53,0 10.27,4.68 10.27,11.25 0,6.32 -4.44,11.12 -9.97,11.12 l -0.05,-1.16 c 0.8,0 3.1,0 4.64,-3.09 0.89,-1.83 0.89,-4.37 0.89,-6.81 0,-2.39 0,-4.89 -0.84,-6.69 -1.5,-2.98 -3.78,-3.23 -4.94,-3.23 h 0 c -3.14,0 -4.62,2.98 -4.92,3.73 -0.91,2.34 -0.91,6.33 -0.91,7.23 0,3.88 1.6,8.86 6.08,8.86 l 0.05,1.16 c -3.38,0 -5.22,-2.55 -6.22,-4.94 z"
             inkscape:connector-curvature="0"
             style="fill:#000000;stroke-width:0" /><path
             id="path6568"
             d="m 547.22,406.25 0,0.3 -0.02,0.3 -0.01,0.29 -0.03,0.28 -0.03,0.27 -0.04,0.26 -0.04,0.26 -0.05,0.24 -0.06,0.24 -0.07,0.23 -0.07,0.22 -0.07,0.21 -0.09,0.2 -0.09,0.19 -0.09,0.19 -0.1,0.17 -0.11,0.16 -0.11,0.16 -0.12,0.14 -0.12,0.13 -0.13,0.13 -0.13,0.11 -0.14,0.1 -0.15,0.1 -0.15,0.08 -0.15,0.07 -0.16,0.06 -0.16,0.05 -0.17,0.04 -0.17,0.03 -0.18,0.01 -0.18,0.01 c -1.64,0 -2.64,-1.25 -2.64,-2.64 0,-1.34 1,-2.64 2.64,-2.64 0.59,0 1.25,0.2 1.75,0.64 0.14,0.11 0.2,0.16 0.25,0.16 0.05,0 0.09,-0.05 0.09,-0.75 0,-3.69 -1.73,-6.68 -3.39,-8.32 -0.54,-0.54 -0.54,-0.65 -0.54,-0.79 0,-0.36 0.25,-0.55 0.5,-0.55 0.54,0 4.53,3.83 4.53,9.66 z"
             inkscape:connector-curvature="0"
             style="fill:#000000;stroke-width:0" /><path
             id="path6570"
             d="m 573.83,414.42 v -4.33 c 0,-1.8 -0.1,-2.34 -3.78,-2.34 H 569 v -1.55 c 2.05,0.16 4.64,0.16 6.73,0.16 2.1,0 4.74,0 6.77,-0.16 v 1.55 h -1.05 c -3.68,0 -3.78,0.54 -3.78,2.34 v 4.33 h 4.99 v 1.54 h -4.99 v 22.68 c 0,1 0,1.29 -0.79,1.29 -0.46,0 -0.6,0 -1,-0.61 l -15.3,-23.36 h 1.4 l 12.16,18.58 v -18.58 h -12.16 -1.4 v -1.54 z"
             inkscape:connector-curvature="0"
             style="fill:#000000;stroke-width:0" /><path
             id="path6572"
             d="m 598.53,418.65 0,0.37 0,0.39 -0.01,0.39 -0.01,0.41 -0.04,0.84 -0.06,0.88 -0.09,0.92 -0.1,0.95 -0.14,0.97 -0.16,1.01 -0.2,1.02 -0.23,1.03 -0.26,1.05 -0.31,1.06 -0.35,1.07 -0.39,1.07 -0.21,0.53 -0.23,0.53 -0.24,0.53 -0.25,0.53 c -2.98,6.12 -7.26,9.36 -7.76,9.36 -0.3,0 -0.5,-0.19 -0.5,-0.49 0,-0.15 0,-0.25 0.94,-1.15 4.89,-4.92 7.73,-12.85 7.73,-23.27 0,-8.51 -1.84,-17.28 -8.03,-23.56 -0.64,-0.59 -0.64,-0.7 -0.64,-0.84 0,-0.3 0.2,-0.5 0.5,-0.5 0.5,0 4.97,3.39 7.92,9.71 2.53,5.47 3.12,11 3.12,15.19 z"
             inkscape:connector-curvature="0"
             style="fill:#000000;stroke-width:0" /></g>      </g>
    </g>
  </g>
</svg>
