<?xml version="1.0" encoding="UTF-8"?>
<svg xmlns="http://www.w3.org/2000/svg" xmlns:xlink="http://www.w3.org/1999/xlink" width="310.96155pt" height="145.81719pt" viewBox="0 0 310.96155 145.81719" version="1.1">
<g id="surface1">
<path style=" stroke:none;fill-rule:nonzero;fill:rgb(0%,0%,0%);fill-opacity:1;" d="M 6.503906 1.367188 L 8.085938 1.367188 C 8.300781 1.367188 8.515625 1.386719 8.730469 1.386719 L 11.074219 1.386719 L 11.074219 0.253906 L 0.371094 0.253906 L 0.371094 1.386719 L 2.734375 1.386719 C 2.949219 1.386719 3.164062 1.367188 3.378906 1.367188 L 4.960938 1.367188 L 4.960938 12.617188 L 6.503906 12.617188 Z M 6.503906 1.367188 "/>
<path style=" stroke:none;fill-rule:nonzero;fill:rgb(0%,0%,0%);fill-opacity:1;" d="M 19.34375 7.226562 C 19.34375 6.132812 19.109375 4.472656 16.941406 4.472656 C 15.710938 4.472656 14.890625 5.175781 14.460938 5.722656 L 14.460938 0.175781 L 13.132812 0.175781 L 13.132812 12.617188 L 14.480469 12.617188 L 14.480469 8.144531 C 14.480469 7.050781 14.910156 5.546875 16.257812 5.546875 C 17.9375 5.546875 17.976562 6.71875 17.976562 7.34375 L 17.976562 12.617188 L 19.34375 12.617188 Z M 19.34375 7.226562 "/>
<path style=" stroke:none;fill-rule:nonzero;fill:rgb(0%,0%,0%);fill-opacity:1;" d="M 28.050781 8.574219 C 28.050781 7.8125 27.972656 6.71875 27.40625 5.761719 C 26.664062 4.53125 25.414062 4.394531 24.886719 4.394531 C 22.953125 4.394531 21.332031 6.25 21.332031 8.574219 C 21.332031 10.957031 23.050781 12.792969 25.140625 12.792969 C 25.960938 12.792969 26.957031 12.558594 27.933594 11.855469 C 27.933594 11.777344 27.875 11.210938 27.875 11.191406 C 27.855469 11.171875 27.835938 10.761719 27.835938 10.703125 C 26.761719 11.601562 25.707031 11.71875 25.179688 11.71875 C 23.792969 11.71875 22.601562 10.488281 22.582031 8.574219 Z M 22.679688 7.617188 C 22.992188 6.40625 23.832031 5.46875 24.886719 5.46875 C 25.453125 5.46875 26.683594 5.722656 26.976562 7.617188 Z M 22.679688 7.617188 "/>
<path style=" stroke:none;fill-rule:nonzero;fill:rgb(0%,0%,0%);fill-opacity:1;" d="M 31.28125 8.691406 C 31.28125 6.875 32.628906 5.703125 34.25 5.683594 L 34.25 4.472656 C 32.609375 4.492188 31.671875 5.449219 31.183594 6.152344 L 31.183594 4.570312 L 29.953125 4.570312 L 29.953125 12.617188 L 31.28125 12.617188 Z M 31.28125 8.691406 "/>
<path style=" stroke:none;fill-rule:nonzero;fill:rgb(0%,0%,0%);fill-opacity:1;" d="M 41.851562 8.574219 C 41.851562 7.8125 41.773438 6.71875 41.207031 5.761719 C 40.464844 4.53125 39.214844 4.394531 38.6875 4.394531 C 36.753906 4.394531 35.132812 6.25 35.132812 8.574219 C 35.132812 10.957031 36.851562 12.792969 38.941406 12.792969 C 39.761719 12.792969 40.757812 12.558594 41.734375 11.855469 C 41.734375 11.777344 41.675781 11.210938 41.675781 11.191406 C 41.65625 11.171875 41.636719 10.761719 41.636719 10.703125 C 40.5625 11.601562 39.507812 11.71875 38.980469 11.71875 C 37.59375 11.71875 36.402344 10.488281 36.382812 8.574219 Z M 36.480469 7.617188 C 36.792969 6.40625 37.632812 5.46875 38.6875 5.46875 C 39.253906 5.46875 40.484375 5.722656 40.777344 7.617188 Z M 36.480469 7.617188 "/>
<path style=" stroke:none;fill-rule:nonzero;fill:rgb(0%,0%,0%);fill-opacity:1;" d="M 54.90625 7.363281 C 54.90625 5.644531 53.675781 4.394531 51.996094 4.394531 C 50.921875 4.394531 50.121094 4.628906 49.242188 5.136719 L 49.339844 6.328125 C 50.140625 5.742188 50.960938 5.429688 51.996094 5.429688 C 52.816406 5.429688 53.539062 6.09375 53.539062 7.402344 L 53.539062 8.144531 C 52.738281 8.164062 51.664062 8.222656 50.589844 8.574219 C 49.378906 9.003906 48.675781 9.667969 48.675781 10.546875 C 48.675781 11.347656 49.144531 12.792969 50.667969 12.792969 C 51.664062 12.792969 52.914062 12.5 53.578125 11.953125 L 53.578125 12.617188 L 54.90625 12.617188 Z M 53.539062 10.214844 C 53.539062 10.566406 53.539062 10.996094 52.953125 11.367188 C 52.464844 11.660156 51.859375 11.71875 51.585938 11.71875 C 50.628906 11.71875 49.964844 11.191406 49.964844 10.546875 C 49.964844 9.316406 52.445312 9.042969 53.539062 9.042969 Z M 53.539062 10.214844 "/>
<path style=" stroke:none;fill-rule:nonzero;fill:rgb(0%,0%,0%);fill-opacity:1;" d="M 58.582031 8.691406 C 58.582031 6.875 59.929688 5.703125 61.550781 5.683594 L 61.550781 4.472656 C 59.910156 4.492188 58.972656 5.449219 58.484375 6.152344 L 58.484375 4.570312 L 57.253906 4.570312 L 57.253906 12.617188 L 58.582031 12.617188 Z M 58.582031 8.691406 "/>
<path style=" stroke:none;fill-rule:nonzero;fill:rgb(0%,0%,0%);fill-opacity:1;" d="M 69.152344 8.574219 C 69.152344 7.8125 69.074219 6.71875 68.507812 5.761719 C 67.765625 4.53125 66.515625 4.394531 65.988281 4.394531 C 64.054688 4.394531 62.433594 6.25 62.433594 8.574219 C 62.433594 10.957031 64.152344 12.792969 66.242188 12.792969 C 67.0625 12.792969 68.058594 12.558594 69.035156 11.855469 C 69.035156 11.777344 68.976562 11.210938 68.976562 11.191406 C 68.957031 11.171875 68.9375 10.761719 68.9375 10.703125 C 67.863281 11.601562 66.808594 11.71875 66.28125 11.71875 C 64.894531 11.71875 63.703125 10.488281 63.683594 8.574219 Z M 63.78125 7.617188 C 64.09375 6.40625 64.933594 5.46875 65.988281 5.46875 C 66.554688 5.46875 67.785156 5.722656 68.078125 7.617188 Z M 63.78125 7.617188 "/>
<path style=" stroke:none;fill-rule:nonzero;fill:rgb(0%,0%,0%);fill-opacity:1;" d="M 78.300781 5.703125 L 80.214844 5.703125 L 80.214844 4.648438 L 78.261719 4.648438 L 78.261719 2.5 C 78.261719 1.289062 79.277344 1.074219 79.882812 1.074219 C 80.507812 1.074219 81.054688 1.269531 81.269531 1.347656 L 81.269531 0.175781 C 81.152344 0.136719 80.546875 0 79.902344 0 C 78.183594 0 76.972656 1.308594 76.972656 3.046875 L 76.972656 4.648438 L 75.664062 4.648438 L 75.664062 5.703125 L 76.972656 5.703125 L 76.972656 12.617188 L 78.300781 12.617188 Z M 78.300781 5.703125 "/>
<path style=" stroke:none;fill-rule:nonzero;fill:rgb(0%,0%,0%);fill-opacity:1;" d="M 88.820312 8.671875 C 88.820312 6.25 87.042969 4.394531 84.992188 4.394531 C 82.882812 4.394531 81.144531 6.289062 81.144531 8.671875 C 81.144531 11.015625 82.921875 12.792969 84.972656 12.792969 C 87.082031 12.792969 88.820312 10.976562 88.820312 8.671875 Z M 84.992188 11.679688 C 83.703125 11.679688 82.492188 10.605469 82.492188 8.496094 C 82.492188 6.328125 83.839844 5.46875 84.972656 5.46875 C 86.203125 5.46875 87.472656 6.386719 87.472656 8.496094 C 87.472656 10.703125 86.183594 11.679688 84.992188 11.679688 Z M 84.992188 11.679688 "/>
<path style=" stroke:none;fill-rule:nonzero;fill:rgb(0%,0%,0%);fill-opacity:1;" d="M 97.042969 4.648438 L 95.675781 4.648438 L 95.675781 9.785156 C 95.675781 11.152344 94.738281 11.816406 93.566406 11.816406 C 92.316406 11.816406 92.179688 11.347656 92.179688 10.546875 L 92.179688 4.648438 L 90.832031 4.648438 L 90.832031 10.625 C 90.832031 11.914062 91.242188 12.792969 92.707031 12.792969 C 93.214844 12.792969 94.621094 12.714844 95.714844 11.71875 L 95.714844 12.617188 L 97.042969 12.617188 Z M 97.042969 4.648438 "/>
<path style=" stroke:none;fill-rule:nonzero;fill:rgb(0%,0%,0%);fill-opacity:1;" d="M 101.179688 8.691406 C 101.179688 6.875 102.527344 5.703125 104.148438 5.683594 L 104.148438 4.472656 C 102.507812 4.492188 101.570312 5.449219 101.082031 6.152344 L 101.082031 4.570312 L 99.851562 4.570312 L 99.851562 12.617188 L 101.179688 12.617188 Z M 101.179688 8.691406 "/>
<path style=" stroke:none;fill-rule:nonzero;fill:rgb(0%,0%,0%);fill-opacity:1;" d="M 115.863281 4.941406 C 114.730469 4.414062 113.753906 4.394531 113.34375 4.394531 C 112.933594 4.394531 110.433594 4.394531 110.433594 6.71875 C 110.433594 7.5 110.863281 8.046875 111.136719 8.300781 C 111.78125 8.847656 112.230469 8.945312 113.285156 9.160156 C 113.890625 9.277344 114.925781 9.492188 114.925781 10.449219 C 114.925781 11.679688 113.519531 11.679688 113.265625 11.679688 C 112.5625 11.679688 111.507812 11.484375 110.550781 10.78125 L 110.335938 12.011719 C 110.414062 12.070312 111.644531 12.792969 113.285156 12.792969 C 115.609375 12.792969 116.15625 11.40625 116.15625 10.332031 C 116.15625 9.433594 115.609375 8.847656 115.53125 8.769531 C 114.867188 8.085938 114.320312 7.96875 113.246094 7.753906 C 112.582031 7.636719 111.683594 7.460938 111.683594 6.5625 C 111.683594 5.449219 112.933594 5.449219 113.167969 5.449219 C 114.105469 5.449219 114.867188 5.664062 115.648438 6.113281 Z M 115.863281 4.941406 "/>
<path style=" stroke:none;fill-rule:nonzero;fill:rgb(0%,0%,0%);fill-opacity:1;" d="M 124.195312 4.648438 L 122.828125 4.648438 L 122.828125 9.785156 C 122.828125 11.152344 121.890625 11.816406 120.71875 11.816406 C 119.46875 11.816406 119.332031 11.347656 119.332031 10.546875 L 119.332031 4.648438 L 117.984375 4.648438 L 117.984375 10.625 C 117.984375 11.914062 118.394531 12.792969 119.859375 12.792969 C 120.367188 12.792969 121.773438 12.714844 122.867188 11.71875 L 122.867188 12.617188 L 124.195312 12.617188 Z M 124.195312 4.648438 "/>
<path style=" stroke:none;fill-rule:nonzero;fill:rgb(0%,0%,0%);fill-opacity:1;" d="M 128.429688 0.449219 L 126.886719 0.449219 L 126.886719 1.992188 L 128.429688 1.992188 Z M 128.332031 4.648438 L 127.003906 4.648438 L 127.003906 12.617188 L 128.332031 12.617188 Z M 128.332031 4.648438 "/>
<path style=" stroke:none;fill-rule:nonzero;fill:rgb(0%,0%,0%);fill-opacity:1;" d="M 132.863281 5.703125 L 135.34375 5.703125 L 135.34375 4.648438 L 132.863281 4.648438 L 132.863281 2.382812 L 131.632812 2.382812 L 131.632812 4.648438 L 130.128906 4.648438 L 130.128906 5.703125 L 131.59375 5.703125 L 131.59375 10.527344 C 131.59375 11.5625 131.828125 12.792969 133.058594 12.792969 C 134.269531 12.792969 135.089844 12.382812 135.636719 12.089844 L 135.363281 11.054688 C 134.738281 11.621094 134.074219 11.679688 133.761719 11.679688 C 132.960938 11.679688 132.863281 10.839844 132.863281 10.214844 Z M 132.863281 5.703125 "/>
<path style=" stroke:none;fill-rule:nonzero;fill:rgb(0%,0%,0%);fill-opacity:1;" d="M 143.402344 8.574219 C 143.402344 7.8125 143.324219 6.71875 142.757812 5.761719 C 142.015625 4.53125 140.765625 4.394531 140.238281 4.394531 C 138.304688 4.394531 136.683594 6.25 136.683594 8.574219 C 136.683594 10.957031 138.402344 12.792969 140.492188 12.792969 C 141.3125 12.792969 142.308594 12.558594 143.285156 11.855469 C 143.285156 11.777344 143.226562 11.210938 143.226562 11.191406 C 143.207031 11.171875 143.1875 10.761719 143.1875 10.703125 C 142.113281 11.601562 141.058594 11.71875 140.53125 11.71875 C 139.144531 11.71875 137.953125 10.488281 137.933594 8.574219 Z M 138.03125 7.617188 C 138.34375 6.40625 139.183594 5.46875 140.238281 5.46875 C 140.804688 5.46875 142.035156 5.722656 142.328125 7.617188 Z M 138.03125 7.617188 "/>
<path style=" stroke:none;fill-rule:nonzero;fill:rgb(0%,0%,0%);fill-opacity:1;" d="M 149.910156 4.941406 C 148.777344 4.414062 147.800781 4.394531 147.390625 4.394531 C 146.980469 4.394531 144.480469 4.394531 144.480469 6.71875 C 144.480469 7.5 144.910156 8.046875 145.183594 8.300781 C 145.828125 8.847656 146.277344 8.945312 147.332031 9.160156 C 147.9375 9.277344 148.972656 9.492188 148.972656 10.449219 C 148.972656 11.679688 147.566406 11.679688 147.3125 11.679688 C 146.609375 11.679688 145.554688 11.484375 144.597656 10.78125 L 144.382812 12.011719 C 144.460938 12.070312 145.691406 12.792969 147.332031 12.792969 C 149.65625 12.792969 150.203125 11.40625 150.203125 10.332031 C 150.203125 9.433594 149.65625 8.847656 149.578125 8.769531 C 148.914062 8.085938 148.367188 7.96875 147.292969 7.753906 C 146.628906 7.636719 145.730469 7.460938 145.730469 6.5625 C 145.730469 5.449219 146.980469 5.449219 147.214844 5.449219 C 148.152344 5.449219 148.914062 5.664062 149.695312 6.113281 Z M 149.910156 4.941406 "/>
<path style=" stroke:none;fill-rule:nonzero;fill:rgb(0%,0%,0%);fill-opacity:1;" d="M 167.855469 4.648438 L 166.546875 4.648438 L 165.472656 8.300781 C 165.21875 9.160156 164.710938 10.839844 164.632812 11.621094 L 164.613281 11.621094 C 164.574219 11.191406 164.28125 9.980469 163.910156 8.710938 L 162.71875 4.648438 L 161.488281 4.648438 L 160.453125 8.164062 C 160.140625 9.277344 159.710938 10.820312 159.652344 11.582031 L 159.632812 11.582031 C 159.613281 11.230469 159.417969 10.292969 159.085938 9.082031 L 157.816406 4.648438 L 156.449219 4.648438 L 158.851562 12.617188 L 160.238281 12.617188 C 160.902344 10.351562 161.957031 6.953125 162.054688 5.703125 L 162.074219 5.703125 C 162.113281 6.425781 162.464844 7.714844 162.601562 8.144531 L 163.871094 12.617188 L 165.453125 12.617188 Z M 167.855469 4.648438 "/>
<path style=" stroke:none;fill-rule:nonzero;fill:rgb(0%,0%,0%);fill-opacity:1;" d="M 171.027344 0.449219 L 169.484375 0.449219 L 169.484375 1.992188 L 171.027344 1.992188 Z M 170.929688 4.648438 L 169.601562 4.648438 L 169.601562 12.617188 L 170.929688 12.617188 Z M 170.929688 4.648438 "/>
<path style=" stroke:none;fill-rule:nonzero;fill:rgb(0%,0%,0%);fill-opacity:1;" d="M 175.460938 5.703125 L 177.941406 5.703125 L 177.941406 4.648438 L 175.460938 4.648438 L 175.460938 2.382812 L 174.230469 2.382812 L 174.230469 4.648438 L 172.726562 4.648438 L 172.726562 5.703125 L 174.191406 5.703125 L 174.191406 10.527344 C 174.191406 11.5625 174.425781 12.792969 175.65625 12.792969 C 176.867188 12.792969 177.6875 12.382812 178.234375 12.089844 L 177.960938 11.054688 C 177.335938 11.621094 176.671875 11.679688 176.359375 11.679688 C 175.558594 11.679688 175.460938 10.839844 175.460938 10.214844 Z M 175.460938 5.703125 "/>
<path style=" stroke:none;fill-rule:nonzero;fill:rgb(0%,0%,0%);fill-opacity:1;" d="M 186.292969 7.226562 C 186.292969 6.132812 186.058594 4.472656 183.890625 4.472656 C 182.660156 4.472656 181.839844 5.175781 181.410156 5.722656 L 181.410156 0.175781 L 180.082031 0.175781 L 180.082031 12.617188 L 181.429688 12.617188 L 181.429688 8.144531 C 181.429688 7.050781 181.859375 5.546875 183.207031 5.546875 C 184.886719 5.546875 184.925781 6.71875 184.925781 7.34375 L 184.925781 12.617188 L 186.292969 12.617188 Z M 186.292969 7.226562 "/>
<path style=" stroke:none;fill-rule:nonzero;fill:rgb(0%,0%,0%);fill-opacity:1;" d="M 198.519531 0.488281 L 198.167969 0.488281 C 197.894531 0.78125 197.035156 1.621094 195.101562 1.660156 C 194.847656 1.660156 194.828125 1.679688 194.828125 2.011719 L 194.828125 2.714844 C 195.921875 2.714844 196.742188 2.441406 197.113281 2.285156 L 197.113281 11.582031 L 194.925781 11.582031 L 194.925781 12.617188 L 200.707031 12.617188 L 200.707031 11.582031 L 198.519531 11.582031 Z M 198.519531 0.488281 "/>
<path style=" stroke:none;fill-rule:nonzero;fill:rgb(0%,0%,0%);fill-opacity:1;" d="M 203.695312 3.4375 C 204.144531 2.285156 205.238281 1.523438 206.429688 1.523438 C 207.347656 1.523438 208.207031 2.03125 208.207031 3.203125 C 208.207031 4.414062 207.386719 5.390625 206.410156 5.605469 C 206.332031 5.625 205.199219 5.722656 205.023438 5.722656 L 205.023438 6.816406 L 206.292969 6.816406 C 208.128906 6.816406 208.578125 8.378906 208.578125 9.375 C 208.578125 10.820312 207.699219 11.914062 206.410156 11.914062 C 205.257812 11.914062 203.851562 11.347656 203.03125 10.058594 L 202.835938 11.113281 C 203.988281 12.714844 205.570312 12.988281 206.449219 12.988281 C 208.539062 12.988281 210.121094 11.289062 210.121094 9.394531 C 210.121094 8.007812 209.203125 6.796875 207.679688 6.269531 C 208.949219 5.585938 209.632812 4.394531 209.632812 3.203125 C 209.632812 1.660156 208.1875 0.488281 206.449219 0.488281 C 205.023438 0.488281 203.734375 1.289062 203.070312 2.460938 Z M 203.695312 3.4375 "/>
<path style=" stroke:none;fill-rule:nonzero;fill:rgb(0%,0%,0%);fill-opacity:1;" d="M 223.53125 10.683594 C 222.710938 11.347656 221.792969 11.679688 220.796875 11.679688 C 219.292969 11.679688 218.335938 10.351562 218.335938 8.613281 C 218.335938 7.128906 219.058594 5.507812 220.835938 5.507812 C 222.046875 5.507812 222.554688 5.78125 223.316406 6.308594 L 223.53125 5.136719 C 222.496094 4.53125 221.910156 4.394531 220.835938 4.394531 C 218.375 4.394531 216.96875 6.582031 216.96875 8.613281 C 216.96875 10.917969 218.628906 12.792969 220.777344 12.792969 C 221.65625 12.792969 222.652344 12.578125 223.648438 11.855469 C 223.648438 11.816406 223.589844 11.25 223.570312 11.191406 Z M 223.53125 10.683594 "/>
<path style=" stroke:none;fill-rule:nonzero;fill:rgb(0%,0%,0%);fill-opacity:1;" d="M 231.15625 7.363281 C 231.15625 5.644531 229.925781 4.394531 228.246094 4.394531 C 227.171875 4.394531 226.371094 4.628906 225.492188 5.136719 L 225.589844 6.328125 C 226.390625 5.742188 227.210938 5.429688 228.246094 5.429688 C 229.066406 5.429688 229.789062 6.09375 229.789062 7.402344 L 229.789062 8.144531 C 228.988281 8.164062 227.914062 8.222656 226.839844 8.574219 C 225.628906 9.003906 224.925781 9.667969 224.925781 10.546875 C 224.925781 11.347656 225.394531 12.792969 226.917969 12.792969 C 227.914062 12.792969 229.164062 12.5 229.828125 11.953125 L 229.828125 12.617188 L 231.15625 12.617188 Z M 229.789062 10.214844 C 229.789062 10.566406 229.789062 10.996094 229.203125 11.367188 C 228.714844 11.660156 228.109375 11.71875 227.835938 11.71875 C 226.878906 11.71875 226.214844 11.191406 226.214844 10.546875 C 226.214844 9.316406 228.695312 9.042969 229.789062 9.042969 Z M 229.789062 10.214844 "/>
<path style=" stroke:none;fill-rule:nonzero;fill:rgb(0%,0%,0%);fill-opacity:1;" d="M 234.828125 8.691406 C 234.828125 6.875 236.175781 5.703125 237.796875 5.683594 L 237.796875 4.472656 C 236.15625 4.492188 235.21875 5.449219 234.730469 6.152344 L 234.730469 4.570312 L 233.5 4.570312 L 233.5 12.617188 L 234.828125 12.617188 Z M 234.828125 8.691406 "/>
<path style=" stroke:none;fill-rule:nonzero;fill:rgb(0%,0%,0%);fill-opacity:1;" d="M 245.671875 0.175781 L 244.34375 0.175781 L 244.34375 5.410156 C 243.523438 4.726562 242.585938 4.472656 241.824219 4.472656 C 240.125 4.472656 238.71875 6.308594 238.71875 8.632812 C 238.71875 10.957031 240.046875 12.792969 241.746094 12.792969 C 242.410156 12.792969 243.425781 12.578125 244.324219 11.699219 L 244.324219 12.617188 L 245.671875 12.617188 Z M 244.324219 10.507812 C 243.894531 11.269531 243.25 11.71875 242.46875 11.71875 C 241.375 11.71875 240.085938 10.878906 240.085938 8.652344 C 240.085938 6.269531 241.609375 5.546875 242.644531 5.546875 C 243.347656 5.546875 243.914062 5.917969 244.324219 6.503906 Z M 244.324219 10.507812 "/>
<path style=" stroke:none;fill-rule:nonzero;fill:rgb(0%,0%,0%);fill-opacity:1;" d="M 253.109375 4.941406 C 251.976562 4.414062 251 4.394531 250.589844 4.394531 C 250.179688 4.394531 247.679688 4.394531 247.679688 6.71875 C 247.679688 7.5 248.109375 8.046875 248.382812 8.300781 C 249.027344 8.847656 249.476562 8.945312 250.53125 9.160156 C 251.136719 9.277344 252.171875 9.492188 252.171875 10.449219 C 252.171875 11.679688 250.765625 11.679688 250.511719 11.679688 C 249.808594 11.679688 248.753906 11.484375 247.796875 10.78125 L 247.582031 12.011719 C 247.660156 12.070312 248.890625 12.792969 250.53125 12.792969 C 252.855469 12.792969 253.402344 11.40625 253.402344 10.332031 C 253.402344 9.433594 252.855469 8.847656 252.777344 8.769531 C 252.113281 8.085938 251.566406 7.96875 250.492188 7.753906 C 249.828125 7.636719 248.929688 7.460938 248.929688 6.5625 C 248.929688 5.449219 250.179688 5.449219 250.414062 5.449219 C 251.351562 5.449219 252.113281 5.664062 252.894531 6.113281 Z M 253.109375 4.941406 "/>
<path style=" stroke:none;fill-rule:nonzero;fill:rgb(0%,0%,0%);fill-opacity:1;" d="M 266.699219 8.574219 C 266.699219 7.8125 266.621094 6.71875 266.054688 5.761719 C 265.3125 4.53125 264.0625 4.394531 263.535156 4.394531 C 261.601562 4.394531 259.980469 6.25 259.980469 8.574219 C 259.980469 10.957031 261.699219 12.792969 263.789062 12.792969 C 264.609375 12.792969 265.605469 12.558594 266.582031 11.855469 C 266.582031 11.777344 266.523438 11.210938 266.523438 11.191406 C 266.503906 11.171875 266.484375 10.761719 266.484375 10.703125 C 265.410156 11.601562 264.355469 11.71875 263.828125 11.71875 C 262.441406 11.71875 261.25 10.488281 261.230469 8.574219 Z M 261.328125 7.617188 C 261.640625 6.40625 262.480469 5.46875 263.535156 5.46875 C 264.101562 5.46875 265.332031 5.722656 265.625 7.617188 Z M 261.328125 7.617188 "/>
<path style=" stroke:none;fill-rule:nonzero;fill:rgb(0%,0%,0%);fill-opacity:1;" d="M 274.207031 7.363281 C 274.207031 5.644531 272.976562 4.394531 271.296875 4.394531 C 270.222656 4.394531 269.421875 4.628906 268.542969 5.136719 L 268.640625 6.328125 C 269.441406 5.742188 270.261719 5.429688 271.296875 5.429688 C 272.117188 5.429688 272.839844 6.09375 272.839844 7.402344 L 272.839844 8.144531 C 272.039062 8.164062 270.964844 8.222656 269.890625 8.574219 C 268.679688 9.003906 267.976562 9.667969 267.976562 10.546875 C 267.976562 11.347656 268.445312 12.792969 269.96875 12.792969 C 270.964844 12.792969 272.214844 12.5 272.878906 11.953125 L 272.878906 12.617188 L 274.207031 12.617188 Z M 272.839844 10.214844 C 272.839844 10.566406 272.839844 10.996094 272.253906 11.367188 C 271.765625 11.660156 271.160156 11.71875 270.886719 11.71875 C 269.929688 11.71875 269.265625 11.191406 269.265625 10.546875 C 269.265625 9.316406 271.746094 9.042969 272.839844 9.042969 Z M 272.839844 10.214844 "/>
<path style=" stroke:none;fill-rule:nonzero;fill:rgb(0%,0%,0%);fill-opacity:1;" d="M 282.78125 10.683594 C 281.960938 11.347656 281.042969 11.679688 280.046875 11.679688 C 278.542969 11.679688 277.585938 10.351562 277.585938 8.613281 C 277.585938 7.128906 278.308594 5.507812 280.085938 5.507812 C 281.296875 5.507812 281.804688 5.78125 282.566406 6.308594 L 282.78125 5.136719 C 281.746094 4.53125 281.160156 4.394531 280.085938 4.394531 C 277.625 4.394531 276.21875 6.582031 276.21875 8.613281 C 276.21875 10.917969 277.878906 12.792969 280.027344 12.792969 C 280.90625 12.792969 281.902344 12.578125 282.898438 11.855469 C 282.898438 11.816406 282.839844 11.25 282.820312 11.191406 Z M 282.78125 10.683594 "/>
<path style=" stroke:none;fill-rule:nonzero;fill:rgb(0%,0%,0%);fill-opacity:1;" d="M 290.992188 7.226562 C 290.992188 6.132812 290.757812 4.472656 288.589844 4.472656 C 287.359375 4.472656 286.539062 5.175781 286.109375 5.722656 L 286.109375 0.175781 L 284.78125 0.175781 L 284.78125 12.617188 L 286.128906 12.617188 L 286.128906 8.144531 C 286.128906 7.050781 286.558594 5.546875 287.90625 5.546875 C 289.585938 5.546875 289.625 6.71875 289.625 7.34375 L 289.625 12.617188 L 290.992188 12.617188 Z M 290.992188 7.226562 "/>
<path style=" stroke:none;fill-rule:nonzero;fill:rgb(0%,0%,0%);fill-opacity:1;" d="M 300.777344 0.449219 L 299.234375 0.449219 L 299.234375 1.992188 L 300.777344 1.992188 Z M 300.679688 4.648438 L 299.351562 4.648438 L 299.351562 12.617188 L 300.679688 12.617188 Z M 300.679688 4.648438 "/>
<path style=" stroke:none;fill-rule:nonzero;fill:rgb(0%,0%,0%);fill-opacity:1;" d="M 309.742188 7.226562 C 309.742188 6.132812 309.507812 4.472656 307.339844 4.472656 C 306.34375 4.472656 305.484375 4.921875 304.800781 5.78125 L 304.800781 4.570312 L 303.53125 4.570312 L 303.53125 12.617188 L 304.878906 12.617188 L 304.878906 8.144531 C 304.878906 7.050781 305.308594 5.546875 306.65625 5.546875 C 308.335938 5.546875 308.375 6.71875 308.375 7.34375 L 308.375 12.617188 L 309.742188 12.617188 Z M 309.742188 7.226562 "/>
<path style=" stroke:none;fill-rule:nonzero;fill:rgb(0%,0%,0%);fill-opacity:1;" d="M 6.757812 28.511719 C 6.757812 26.792969 5.527344 25.542969 3.847656 25.542969 C 2.773438 25.542969 1.972656 25.777344 1.09375 26.285156 L 1.191406 27.476562 C 1.992188 26.890625 2.8125 26.578125 3.847656 26.578125 C 4.667969 26.578125 5.390625 27.242188 5.390625 28.550781 L 5.390625 29.292969 C 4.589844 29.3125 3.515625 29.371094 2.441406 29.722656 C 1.230469 30.152344 0.527344 30.816406 0.527344 31.695312 C 0.527344 32.496094 0.996094 33.941406 2.519531 33.941406 C 3.515625 33.941406 4.765625 33.648438 5.429688 33.101562 L 5.429688 33.765625 L 6.757812 33.765625 Z M 5.390625 31.363281 C 5.390625 31.714844 5.390625 32.144531 4.804688 32.515625 C 4.316406 32.808594 3.710938 32.867188 3.4375 32.867188 C 2.480469 32.867188 1.816406 32.339844 1.816406 31.695312 C 1.816406 30.464844 4.296875 30.191406 5.390625 30.191406 Z M 5.390625 31.363281 "/>
<path style=" stroke:none;fill-rule:nonzero;fill:rgb(0%,0%,0%);fill-opacity:1;" d="M 17.101562 26.851562 L 19.015625 26.851562 L 19.015625 25.796875 L 17.0625 25.796875 L 17.0625 23.648438 C 17.0625 22.4375 18.078125 22.222656 18.683594 22.222656 C 19.308594 22.222656 19.855469 22.417969 20.070312 22.496094 L 20.070312 21.324219 C 19.953125 21.285156 19.347656 21.148438 18.703125 21.148438 C 16.984375 21.148438 15.773438 22.457031 15.773438 24.195312 L 15.773438 25.796875 L 14.464844 25.796875 L 14.464844 26.851562 L 15.773438 26.851562 L 15.773438 33.765625 L 17.101562 33.765625 Z M 17.101562 26.851562 "/>
<path style=" stroke:none;fill-rule:nonzero;fill:rgb(0%,0%,0%);fill-opacity:1;" d="M 26.992188 25.796875 L 25.625 25.796875 L 25.625 30.933594 C 25.625 32.300781 24.6875 32.964844 23.515625 32.964844 C 22.265625 32.964844 22.128906 32.496094 22.128906 31.695312 L 22.128906 25.796875 L 20.78125 25.796875 L 20.78125 31.773438 C 20.78125 33.0625 21.191406 33.941406 22.65625 33.941406 C 23.164062 33.941406 24.570312 33.863281 25.664062 32.867188 L 25.664062 33.765625 L 26.992188 33.765625 Z M 26.992188 25.796875 "/>
<path style=" stroke:none;fill-rule:nonzero;fill:rgb(0%,0%,0%);fill-opacity:1;" d="M 31.128906 21.324219 L 29.800781 21.324219 L 29.800781 33.765625 L 31.128906 33.765625 Z M 31.128906 21.324219 "/>
<path style=" stroke:none;fill-rule:nonzero;fill:rgb(0%,0%,0%);fill-opacity:1;" d="M 35.332031 21.324219 L 34.003906 21.324219 L 34.003906 33.765625 L 35.332031 33.765625 Z M 35.332031 21.324219 "/>
<path style=" stroke:none;fill-rule:nonzero;fill:rgb(0%,0%,0%);fill-opacity:1;" d="M 50.074219 21.324219 L 48.746094 21.324219 L 48.746094 26.558594 C 47.925781 25.875 46.988281 25.621094 46.226562 25.621094 C 44.527344 25.621094 43.121094 27.457031 43.121094 29.78125 C 43.121094 32.105469 44.449219 33.941406 46.148438 33.941406 C 46.8125 33.941406 47.828125 33.726562 48.726562 32.847656 L 48.726562 33.765625 L 50.074219 33.765625 Z M 48.726562 31.65625 C 48.296875 32.417969 47.652344 32.867188 46.871094 32.867188 C 45.777344 32.867188 44.488281 32.027344 44.488281 29.800781 C 44.488281 27.417969 46.011719 26.695312 47.046875 26.695312 C 47.75 26.695312 48.316406 27.066406 48.726562 27.652344 Z M 48.726562 31.65625 "/>
<path style=" stroke:none;fill-rule:nonzero;fill:rgb(0%,0%,0%);fill-opacity:1;" d="M 58.800781 29.722656 C 58.800781 28.960938 58.722656 27.867188 58.15625 26.910156 C 57.414062 25.679688 56.164062 25.542969 55.636719 25.542969 C 53.703125 25.542969 52.082031 27.398438 52.082031 29.722656 C 52.082031 32.105469 53.800781 33.941406 55.890625 33.941406 C 56.710938 33.941406 57.707031 33.707031 58.683594 33.003906 C 58.683594 32.925781 58.625 32.359375 58.625 32.339844 C 58.605469 32.320312 58.585938 31.910156 58.585938 31.851562 C 57.511719 32.75 56.457031 32.867188 55.929688 32.867188 C 54.542969 32.867188 53.351562 31.636719 53.332031 29.722656 Z M 53.429688 28.765625 C 53.742188 27.554688 54.582031 26.617188 55.636719 26.617188 C 56.203125 26.617188 57.433594 26.871094 57.726562 28.765625 Z M 53.429688 28.765625 "/>
<path style=" stroke:none;fill-rule:nonzero;fill:rgb(0%,0%,0%);fill-opacity:1;" d="M 66.484375 31.832031 C 65.664062 32.496094 64.746094 32.828125 63.75 32.828125 C 62.246094 32.828125 61.289062 31.5 61.289062 29.761719 C 61.289062 28.277344 62.011719 26.65625 63.789062 26.65625 C 65 26.65625 65.507812 26.929688 66.269531 27.457031 L 66.484375 26.285156 C 65.449219 25.679688 64.863281 25.542969 63.789062 25.542969 C 61.328125 25.542969 59.921875 27.730469 59.921875 29.761719 C 59.921875 32.066406 61.582031 33.941406 63.730469 33.941406 C 64.609375 33.941406 65.605469 33.726562 66.601562 33.003906 C 66.601562 32.964844 66.542969 32.398438 66.523438 32.339844 Z M 66.484375 31.832031 "/>
<path style=" stroke:none;fill-rule:nonzero;fill:rgb(0%,0%,0%);fill-opacity:1;" d="M 71.980469 28.863281 L 74.910156 25.796875 L 73.269531 25.796875 L 69.8125 29.410156 L 69.8125 21.324219 L 68.503906 21.324219 L 68.503906 33.765625 L 69.753906 33.765625 L 69.753906 31.1875 L 71.121094 29.761719 L 73.835938 33.765625 L 75.300781 33.765625 Z M 71.980469 28.863281 "/>
<path style=" stroke:none;fill-rule:nonzero;fill:rgb(0%,0%,0%);fill-opacity:1;" d="M 89.71875 29.820312 C 89.71875 27.398438 87.941406 25.542969 85.890625 25.542969 C 83.78125 25.542969 82.042969 27.4375 82.042969 29.820312 C 82.042969 32.164062 83.820312 33.941406 85.871094 33.941406 C 87.980469 33.941406 89.71875 32.125 89.71875 29.820312 Z M 85.890625 32.828125 C 84.601562 32.828125 83.390625 31.753906 83.390625 29.644531 C 83.390625 27.476562 84.738281 26.617188 85.871094 26.617188 C 87.101562 26.617188 88.371094 27.535156 88.371094 29.644531 C 88.371094 31.851562 87.082031 32.828125 85.890625 32.828125 Z M 85.890625 32.828125 "/>
<path style=" stroke:none;fill-rule:nonzero;fill:rgb(0%,0%,0%);fill-opacity:1;" d="M 93.453125 26.851562 L 95.367188 26.851562 L 95.367188 25.796875 L 93.414062 25.796875 L 93.414062 23.648438 C 93.414062 22.4375 94.429688 22.222656 95.035156 22.222656 C 95.660156 22.222656 96.207031 22.417969 96.421875 22.496094 L 96.421875 21.324219 C 96.304688 21.285156 95.699219 21.148438 95.054688 21.148438 C 93.335938 21.148438 92.125 22.457031 92.125 24.195312 L 92.125 25.796875 L 90.816406 25.796875 L 90.816406 26.851562 L 92.125 26.851562 L 92.125 33.765625 L 93.453125 33.765625 Z M 93.453125 26.851562 "/>
<path style=" stroke:none;fill-rule:nonzero;fill:rgb(0%,0%,0%);fill-opacity:1;" d="M 104.140625 23.140625 L 108.75 23.140625 L 108.75 22.027344 L 102.871094 22.027344 L 102.871094 28.628906 L 104.023438 28.628906 C 104.472656 27.59375 105.273438 27.203125 105.996094 27.203125 C 106.835938 27.203125 107.792969 27.964844 107.792969 30.09375 C 107.792969 32.339844 106.503906 33.0625 105.46875 33.0625 C 104.472656 33.0625 103.300781 32.535156 102.714844 31.402344 L 102.128906 32.359375 C 103.300781 34.058594 105 34.136719 105.488281 34.136719 C 107.597656 34.136719 109.335938 32.359375 109.335938 30.132812 C 109.335938 27.886719 107.832031 26.128906 106.015625 26.128906 C 105.292969 26.128906 104.628906 26.402344 104.140625 26.851562 Z M 104.140625 23.140625 "/>
<path style=" stroke:none;fill-rule:nonzero;fill:rgb(0%,0%,0%);fill-opacity:1;" d="M 111.175781 32.632812 L 111.175781 33.765625 L 118.1875 33.765625 L 118.1875 32.554688 L 115.003906 32.554688 C 114.769531 32.554688 114.554688 32.554688 114.339844 32.554688 L 112.425781 32.554688 C 112.894531 32.085938 114.554688 30.425781 115.726562 29.390625 C 117.054688 28.21875 118.1875 27.105469 118.1875 25.464844 C 118.1875 23.472656 116.800781 21.636719 114.4375 21.636719 C 112.503906 21.636719 111.507812 22.925781 111.039062 24.585938 C 111.605469 25.308594 111.605469 25.347656 111.761719 25.5625 C 112.210938 23.628906 112.875 22.75 114.203125 22.75 C 115.746094 22.75 116.742188 23.960938 116.742188 25.503906 C 116.742188 26.441406 116.371094 27.476562 115.179688 28.648438 Z M 111.175781 32.632812 "/>
<path style=" stroke:none;fill-rule:nonzero;fill:rgb(0%,0%,0%);fill-opacity:1;" d="M 132.183594 31.832031 C 131.363281 32.496094 130.445312 32.828125 129.449219 32.828125 C 127.945312 32.828125 126.988281 31.5 126.988281 29.761719 C 126.988281 28.277344 127.710938 26.65625 129.488281 26.65625 C 130.699219 26.65625 131.207031 26.929688 131.96875 27.457031 L 132.183594 26.285156 C 131.148438 25.679688 130.5625 25.542969 129.488281 25.542969 C 127.027344 25.542969 125.621094 27.730469 125.621094 29.761719 C 125.621094 32.066406 127.28125 33.941406 129.429688 33.941406 C 130.308594 33.941406 131.304688 33.726562 132.300781 33.003906 C 132.300781 32.964844 132.242188 32.398438 132.222656 32.339844 Z M 132.183594 31.832031 "/>
<path style=" stroke:none;fill-rule:nonzero;fill:rgb(0%,0%,0%);fill-opacity:1;" d="M 139.808594 28.511719 C 139.808594 26.792969 138.578125 25.542969 136.898438 25.542969 C 135.824219 25.542969 135.023438 25.777344 134.144531 26.285156 L 134.242188 27.476562 C 135.042969 26.890625 135.863281 26.578125 136.898438 26.578125 C 137.71875 26.578125 138.441406 27.242188 138.441406 28.550781 L 138.441406 29.292969 C 137.640625 29.3125 136.566406 29.371094 135.492188 29.722656 C 134.28125 30.152344 133.578125 30.816406 133.578125 31.695312 C 133.578125 32.496094 134.046875 33.941406 135.570312 33.941406 C 136.566406 33.941406 137.816406 33.648438 138.480469 33.101562 L 138.480469 33.765625 L 139.808594 33.765625 Z M 138.441406 31.363281 C 138.441406 31.714844 138.441406 32.144531 137.855469 32.515625 C 137.367188 32.808594 136.761719 32.867188 136.488281 32.867188 C 135.53125 32.867188 134.867188 32.339844 134.867188 31.695312 C 134.867188 30.464844 137.347656 30.191406 138.441406 30.191406 Z M 138.441406 31.363281 "/>
<path style=" stroke:none;fill-rule:nonzero;fill:rgb(0%,0%,0%);fill-opacity:1;" d="M 143.480469 29.839844 C 143.480469 28.023438 144.828125 26.851562 146.449219 26.832031 L 146.449219 25.621094 C 144.808594 25.640625 143.871094 26.597656 143.382812 27.300781 L 143.382812 25.71875 L 142.152344 25.71875 L 142.152344 33.765625 L 143.480469 33.765625 Z M 143.480469 29.839844 "/>
<path style=" stroke:none;fill-rule:nonzero;fill:rgb(0%,0%,0%);fill-opacity:1;" d="M 154.324219 21.324219 L 152.996094 21.324219 L 152.996094 26.558594 C 152.175781 25.875 151.238281 25.621094 150.476562 25.621094 C 148.777344 25.621094 147.371094 27.457031 147.371094 29.78125 C 147.371094 32.105469 148.699219 33.941406 150.398438 33.941406 C 151.0625 33.941406 152.078125 33.726562 152.976562 32.847656 L 152.976562 33.765625 L 154.324219 33.765625 Z M 152.976562 31.65625 C 152.546875 32.417969 151.902344 32.867188 151.121094 32.867188 C 150.027344 32.867188 148.738281 32.027344 148.738281 29.800781 C 148.738281 27.417969 150.261719 26.695312 151.296875 26.695312 C 152 26.695312 152.566406 27.066406 152.976562 27.652344 Z M 152.976562 31.65625 "/>
<path style=" stroke:none;fill-rule:nonzero;fill:rgb(0%,0%,0%);fill-opacity:1;" d="M 161.761719 26.089844 C 160.628906 25.5625 159.652344 25.542969 159.242188 25.542969 C 158.832031 25.542969 156.332031 25.542969 156.332031 27.867188 C 156.332031 28.648438 156.761719 29.195312 157.035156 29.449219 C 157.679688 29.996094 158.128906 30.09375 159.183594 30.308594 C 159.789062 30.425781 160.824219 30.640625 160.824219 31.597656 C 160.824219 32.828125 159.417969 32.828125 159.164062 32.828125 C 158.460938 32.828125 157.40625 32.632812 156.449219 31.929688 L 156.234375 33.160156 C 156.3125 33.21875 157.542969 33.941406 159.183594 33.941406 C 161.507812 33.941406 162.054688 32.554688 162.054688 31.480469 C 162.054688 30.582031 161.507812 29.996094 161.429688 29.917969 C 160.765625 29.234375 160.21875 29.117188 159.144531 28.902344 C 158.480469 28.785156 157.582031 28.609375 157.582031 27.710938 C 157.582031 26.597656 158.832031 26.597656 159.066406 26.597656 C 160.003906 26.597656 160.765625 26.8125 161.546875 27.261719 Z M 161.761719 26.089844 "/>
<path style=" stroke:none;fill-rule:nonzero;fill:rgb(0%,0%,0%);fill-opacity:1;" d="M 10.410156 63.777344 L 8.867188 63.777344 L 8.867188 69.207031 L 2.910156 69.207031 L 2.910156 63.777344 L 1.367188 63.777344 L 1.367188 76.21875 L 2.910156 76.21875 L 2.910156 70.28125 L 8.867188 70.28125 L 8.867188 76.21875 L 10.410156 76.21875 Z M 10.410156 63.777344 "/>
<path style=" stroke:none;fill-rule:nonzero;fill:rgb(0%,0%,0%);fill-opacity:1;" d="M 19.351562 72.175781 C 19.351562 71.414062 19.273438 70.320312 18.707031 69.363281 C 17.964844 68.132812 16.714844 67.996094 16.1875 67.996094 C 14.253906 67.996094 12.632812 69.851562 12.632812 72.175781 C 12.632812 74.558594 14.351562 76.394531 16.441406 76.394531 C 17.261719 76.394531 18.257812 76.160156 19.234375 75.457031 C 19.234375 75.378906 19.175781 74.8125 19.175781 74.792969 C 19.15625 74.773438 19.136719 74.363281 19.136719 74.304688 C 18.0625 75.203125 17.007812 75.320312 16.480469 75.320312 C 15.09375 75.320312 13.902344 74.089844 13.882812 72.175781 Z M 13.980469 71.21875 C 14.292969 70.007812 15.132812 69.070312 16.1875 69.070312 C 16.753906 69.070312 17.984375 69.324219 18.277344 71.21875 Z M 13.980469 71.21875 "/>
<path style=" stroke:none;fill-rule:nonzero;fill:rgb(0%,0%,0%);fill-opacity:1;" d="M 27.445312 70.828125 C 27.445312 69.734375 27.210938 68.074219 25.042969 68.074219 C 24.046875 68.074219 23.1875 68.523438 22.503906 69.382812 L 22.503906 68.171875 L 21.234375 68.171875 L 21.234375 76.21875 L 22.582031 76.21875 L 22.582031 71.746094 C 22.582031 70.652344 23.011719 69.148438 24.359375 69.148438 C 26.039062 69.148438 26.078125 70.320312 26.078125 70.945312 L 26.078125 76.21875 L 27.445312 76.21875 Z M 27.445312 70.828125 "/>
<path style=" stroke:none;fill-rule:nonzero;fill:rgb(0%,0%,0%);fill-opacity:1;" d="M 36.035156 74.285156 C 35.214844 74.949219 34.296875 75.28125 33.300781 75.28125 C 31.796875 75.28125 30.839844 73.953125 30.839844 72.214844 C 30.839844 70.730469 31.5625 69.109375 33.339844 69.109375 C 34.550781 69.109375 35.058594 69.382812 35.820312 69.910156 L 36.035156 68.738281 C 35 68.132812 34.414062 67.996094 33.339844 67.996094 C 30.878906 67.996094 29.472656 70.183594 29.472656 72.214844 C 29.472656 74.519531 31.132812 76.394531 33.28125 76.394531 C 34.160156 76.394531 35.15625 76.179688 36.152344 75.457031 C 36.152344 75.417969 36.09375 74.851562 36.074219 74.792969 Z M 36.035156 74.285156 "/>
<path style=" stroke:none;fill-rule:nonzero;fill:rgb(0%,0%,0%);fill-opacity:1;" d="M 43.949219 72.175781 C 43.949219 71.414062 43.871094 70.320312 43.304688 69.363281 C 42.5625 68.132812 41.3125 67.996094 40.785156 67.996094 C 38.851562 67.996094 37.230469 69.851562 37.230469 72.175781 C 37.230469 74.558594 38.949219 76.394531 41.039062 76.394531 C 41.859375 76.394531 42.855469 76.160156 43.832031 75.457031 C 43.832031 75.378906 43.773438 74.8125 43.773438 74.792969 C 43.753906 74.773438 43.734375 74.363281 43.734375 74.304688 C 42.660156 75.203125 41.605469 75.320312 41.078125 75.320312 C 39.691406 75.320312 38.5 74.089844 38.480469 72.175781 Z M 38.578125 71.21875 C 38.890625 70.007812 39.730469 69.070312 40.785156 69.070312 C 41.351562 69.070312 42.582031 69.324219 42.875 71.21875 Z M 38.578125 71.21875 "/>
<path style=" stroke:none;fill-rule:nonzero;fill:rgb(0%,0%,0%);fill-opacity:1;" d="M 47.609375 76.199219 L 47.609375 74.773438 L 46.144531 74.773438 L 46.144531 76.21875 L 46.59375 76.21875 L 46.144531 78.464844 L 46.867188 78.464844 Z M 47.609375 76.199219 "/>
<path style=" stroke:none;fill-rule:nonzero;fill:rgb(0%,0%,0%);fill-opacity:1;" d="M 57.328125 64.050781 L 55.785156 64.050781 L 55.785156 65.59375 L 57.328125 65.59375 Z M 57.230469 68.25 L 55.902344 68.25 L 55.902344 76.21875 L 57.230469 76.21875 Z M 57.230469 68.25 "/>
<path style=" stroke:none;fill-rule:nonzero;fill:rgb(0%,0%,0%);fill-opacity:1;" d="M 61.800781 69.304688 L 63.714844 69.304688 L 63.714844 68.25 L 61.761719 68.25 L 61.761719 66.101562 C 61.761719 64.890625 62.777344 64.675781 63.382812 64.675781 C 64.007812 64.675781 64.554688 64.871094 64.769531 64.949219 L 64.769531 63.777344 C 64.652344 63.738281 64.046875 63.601562 63.402344 63.601562 C 61.683594 63.601562 60.472656 64.910156 60.472656 66.648438 L 60.472656 68.25 L 59.164062 68.25 L 59.164062 69.304688 L 60.472656 69.304688 L 60.472656 76.21875 L 61.800781 76.21875 Z M 61.800781 69.304688 "/>
<path style=" stroke:none;fill-rule:nonzero;fill:rgb(0%,0%,0%);fill-opacity:1;" d="M 75.90625 70.964844 C 75.90625 69.246094 74.675781 67.996094 72.996094 67.996094 C 71.921875 67.996094 71.121094 68.230469 70.242188 68.738281 L 70.339844 69.929688 C 71.140625 69.34375 71.960938 69.03125 72.996094 69.03125 C 73.816406 69.03125 74.539062 69.695312 74.539062 71.003906 L 74.539062 71.746094 C 73.738281 71.765625 72.664062 71.824219 71.589844 72.175781 C 70.378906 72.605469 69.675781 73.269531 69.675781 74.148438 C 69.675781 74.949219 70.144531 76.394531 71.667969 76.394531 C 72.664062 76.394531 73.914062 76.101562 74.578125 75.554688 L 74.578125 76.21875 L 75.90625 76.21875 Z M 74.539062 73.816406 C 74.539062 74.167969 74.539062 74.597656 73.953125 74.96875 C 73.464844 75.261719 72.859375 75.320312 72.585938 75.320312 C 71.628906 75.320312 70.964844 74.792969 70.964844 74.148438 C 70.964844 72.917969 73.445312 72.644531 74.539062 72.644531 Z M 74.539062 73.816406 "/>
<path style=" stroke:none;fill-rule:nonzero;fill:rgb(0%,0%,0%);fill-opacity:1;" d="M 89.433594 74.285156 C 88.613281 74.949219 87.695312 75.28125 86.699219 75.28125 C 85.195312 75.28125 84.238281 73.953125 84.238281 72.214844 C 84.238281 70.730469 84.960938 69.109375 86.738281 69.109375 C 87.949219 69.109375 88.457031 69.382812 89.21875 69.910156 L 89.433594 68.738281 C 88.398438 68.132812 87.8125 67.996094 86.738281 67.996094 C 84.277344 67.996094 82.871094 70.183594 82.871094 72.214844 C 82.871094 74.519531 84.53125 76.394531 86.679688 76.394531 C 87.558594 76.394531 88.554688 76.179688 89.550781 75.457031 C 89.550781 75.417969 89.492188 74.851562 89.472656 74.792969 Z M 89.433594 74.285156 "/>
<path style=" stroke:none;fill-rule:nonzero;fill:rgb(0%,0%,0%);fill-opacity:1;" d="M 97.058594 70.964844 C 97.058594 69.246094 95.828125 67.996094 94.148438 67.996094 C 93.074219 67.996094 92.273438 68.230469 91.394531 68.738281 L 91.492188 69.929688 C 92.292969 69.34375 93.113281 69.03125 94.148438 69.03125 C 94.96875 69.03125 95.691406 69.695312 95.691406 71.003906 L 95.691406 71.746094 C 94.890625 71.765625 93.816406 71.824219 92.742188 72.175781 C 91.53125 72.605469 90.828125 73.269531 90.828125 74.148438 C 90.828125 74.949219 91.296875 76.394531 92.820312 76.394531 C 93.816406 76.394531 95.066406 76.101562 95.730469 75.554688 L 95.730469 76.21875 L 97.058594 76.21875 Z M 95.691406 73.816406 C 95.691406 74.167969 95.691406 74.597656 95.105469 74.96875 C 94.617188 75.261719 94.011719 75.320312 93.738281 75.320312 C 92.78125 75.320312 92.117188 74.792969 92.117188 74.148438 C 92.117188 72.917969 94.597656 72.644531 95.691406 72.644531 Z M 95.691406 73.816406 "/>
<path style=" stroke:none;fill-rule:nonzero;fill:rgb(0%,0%,0%);fill-opacity:1;" d="M 100.730469 72.292969 C 100.730469 70.476562 102.078125 69.304688 103.699219 69.285156 L 103.699219 68.074219 C 102.058594 68.09375 101.121094 69.050781 100.632812 69.753906 L 100.632812 68.171875 L 99.402344 68.171875 L 99.402344 76.21875 L 100.730469 76.21875 Z M 100.730469 72.292969 "/>
<path style=" stroke:none;fill-rule:nonzero;fill:rgb(0%,0%,0%);fill-opacity:1;" d="M 111.574219 63.777344 L 110.246094 63.777344 L 110.246094 69.011719 C 109.425781 68.328125 108.488281 68.074219 107.726562 68.074219 C 106.027344 68.074219 104.621094 69.910156 104.621094 72.234375 C 104.621094 74.558594 105.949219 76.394531 107.648438 76.394531 C 108.3125 76.394531 109.328125 76.179688 110.226562 75.300781 L 110.226562 76.21875 L 111.574219 76.21875 Z M 110.226562 74.109375 C 109.796875 74.871094 109.152344 75.320312 108.371094 75.320312 C 107.277344 75.320312 105.988281 74.480469 105.988281 72.253906 C 105.988281 69.871094 107.511719 69.148438 108.546875 69.148438 C 109.25 69.148438 109.816406 69.519531 110.226562 70.105469 Z M 110.226562 74.109375 "/>
<path style=" stroke:none;fill-rule:nonzero;fill:rgb(0%,0%,0%);fill-opacity:1;" d="M 120.777344 64.050781 L 119.234375 64.050781 L 119.234375 65.59375 L 120.777344 65.59375 Z M 120.679688 68.25 L 119.351562 68.25 L 119.351562 76.21875 L 120.679688 76.21875 Z M 120.679688 68.25 "/>
<path style=" stroke:none;fill-rule:nonzero;fill:rgb(0%,0%,0%);fill-opacity:1;" d="M 128.160156 68.542969 C 127.027344 68.015625 126.050781 67.996094 125.640625 67.996094 C 125.230469 67.996094 122.730469 67.996094 122.730469 70.320312 C 122.730469 71.101562 123.160156 71.648438 123.433594 71.902344 C 124.078125 72.449219 124.527344 72.546875 125.582031 72.761719 C 126.1875 72.878906 127.222656 73.09375 127.222656 74.050781 C 127.222656 75.28125 125.816406 75.28125 125.5625 75.28125 C 124.859375 75.28125 123.804688 75.085938 122.847656 74.382812 L 122.632812 75.613281 C 122.710938 75.671875 123.941406 76.394531 125.582031 76.394531 C 127.90625 76.394531 128.453125 75.007812 128.453125 73.933594 C 128.453125 73.035156 127.90625 72.449219 127.828125 72.371094 C 127.164062 71.6875 126.617188 71.570312 125.542969 71.355469 C 124.878906 71.238281 123.980469 71.0625 123.980469 70.164062 C 123.980469 69.050781 125.230469 69.050781 125.464844 69.050781 C 126.402344 69.050781 127.164062 69.265625 127.945312 69.714844 Z M 128.160156 68.542969 "/>
<path style=" stroke:none;fill-rule:nonzero;fill:rgb(0%,0%,0%);fill-opacity:1;" d="M 136.429688 63.777344 L 135.101562 63.777344 L 135.101562 76.21875 L 136.429688 76.21875 Z M 136.429688 63.777344 "/>
<path style=" stroke:none;fill-rule:nonzero;fill:rgb(0%,0%,0%);fill-opacity:1;" d="M 146.117188 72.273438 C 146.117188 69.851562 144.339844 67.996094 142.289062 67.996094 C 140.179688 67.996094 138.441406 69.890625 138.441406 72.273438 C 138.441406 74.617188 140.21875 76.394531 142.269531 76.394531 C 144.378906 76.394531 146.117188 74.578125 146.117188 72.273438 Z M 142.289062 75.28125 C 141 75.28125 139.789062 74.207031 139.789062 72.097656 C 139.789062 69.929688 141.136719 69.070312 142.269531 69.070312 C 143.5 69.070312 144.769531 69.988281 144.769531 72.097656 C 144.769531 74.304688 143.480469 75.28125 142.289062 75.28125 Z M 142.289062 75.28125 "/>
<path style=" stroke:none;fill-rule:nonzero;fill:rgb(0%,0%,0%);fill-opacity:1;" d="M 152.761719 68.542969 C 151.628906 68.015625 150.652344 67.996094 150.242188 67.996094 C 149.832031 67.996094 147.332031 67.996094 147.332031 70.320312 C 147.332031 71.101562 147.761719 71.648438 148.035156 71.902344 C 148.679688 72.449219 149.128906 72.546875 150.183594 72.761719 C 150.789062 72.878906 151.824219 73.09375 151.824219 74.050781 C 151.824219 75.28125 150.417969 75.28125 150.164062 75.28125 C 149.460938 75.28125 148.40625 75.085938 147.449219 74.382812 L 147.234375 75.613281 C 147.3125 75.671875 148.542969 76.394531 150.183594 76.394531 C 152.507812 76.394531 153.054688 75.007812 153.054688 73.933594 C 153.054688 73.035156 152.507812 72.449219 152.429688 72.371094 C 151.765625 71.6875 151.21875 71.570312 150.144531 71.355469 C 149.480469 71.238281 148.582031 71.0625 148.582031 70.164062 C 148.582031 69.050781 149.832031 69.050781 150.066406 69.050781 C 151.003906 69.050781 151.765625 69.265625 152.546875 69.714844 Z M 152.761719 68.542969 "/>
<path style=" stroke:none;fill-rule:nonzero;fill:rgb(0%,0%,0%);fill-opacity:1;" d="M 156.5625 69.304688 L 159.042969 69.304688 L 159.042969 68.25 L 156.5625 68.25 L 156.5625 65.984375 L 155.332031 65.984375 L 155.332031 68.25 L 153.828125 68.25 L 153.828125 69.304688 L 155.292969 69.304688 L 155.292969 74.128906 C 155.292969 75.164062 155.527344 76.394531 156.757812 76.394531 C 157.96875 76.394531 158.789062 75.984375 159.335938 75.691406 L 159.0625 74.65625 C 158.4375 75.222656 157.773438 75.28125 157.460938 75.28125 C 156.660156 75.28125 156.5625 74.441406 156.5625 73.816406 Z M 156.5625 69.304688 "/>
<path style=" stroke:none;fill-rule:nonzero;fill:rgb(0%,0%,0%);fill-opacity:1;" d="M 162.960938 76.199219 L 162.960938 74.773438 L 161.496094 74.773438 L 161.496094 76.21875 L 161.945312 76.21875 L 161.496094 78.464844 L 162.21875 78.464844 Z M 162.960938 76.199219 "/>
<path style=" stroke:none;fill-rule:nonzero;fill:rgb(0%,0%,0%);fill-opacity:1;" d="M 172.761719 69.304688 L 175.242188 69.304688 L 175.242188 68.25 L 172.761719 68.25 L 172.761719 65.984375 L 171.53125 65.984375 L 171.53125 68.25 L 170.027344 68.25 L 170.027344 69.304688 L 171.492188 69.304688 L 171.492188 74.128906 C 171.492188 75.164062 171.726562 76.394531 172.957031 76.394531 C 174.167969 76.394531 174.988281 75.984375 175.535156 75.691406 L 175.261719 74.65625 C 174.636719 75.222656 173.972656 75.28125 173.660156 75.28125 C 172.859375 75.28125 172.761719 74.441406 172.761719 73.816406 Z M 172.761719 69.304688 "/>
<path style=" stroke:none;fill-rule:nonzero;fill:rgb(0%,0%,0%);fill-opacity:1;" d="M 183.59375 70.828125 C 183.59375 69.734375 183.359375 68.074219 181.191406 68.074219 C 179.960938 68.074219 179.140625 68.777344 178.710938 69.324219 L 178.710938 63.777344 L 177.382812 63.777344 L 177.382812 76.21875 L 178.730469 76.21875 L 178.730469 71.746094 C 178.730469 70.652344 179.160156 69.148438 180.507812 69.148438 C 182.1875 69.148438 182.226562 70.320312 182.226562 70.945312 L 182.226562 76.21875 L 183.59375 76.21875 Z M 183.59375 70.828125 "/>
<path style=" stroke:none;fill-rule:nonzero;fill:rgb(0%,0%,0%);fill-opacity:1;" d="M 192.300781 72.175781 C 192.300781 71.414062 192.222656 70.320312 191.65625 69.363281 C 190.914062 68.132812 189.664062 67.996094 189.136719 67.996094 C 187.203125 67.996094 185.582031 69.851562 185.582031 72.175781 C 185.582031 74.558594 187.300781 76.394531 189.390625 76.394531 C 190.210938 76.394531 191.207031 76.160156 192.183594 75.457031 C 192.183594 75.378906 192.125 74.8125 192.125 74.792969 C 192.105469 74.773438 192.085938 74.363281 192.085938 74.304688 C 191.011719 75.203125 189.957031 75.320312 189.429688 75.320312 C 188.042969 75.320312 186.851562 74.089844 186.832031 72.175781 Z M 186.929688 71.21875 C 187.242188 70.007812 188.082031 69.070312 189.136719 69.070312 C 189.703125 69.070312 190.933594 69.324219 191.226562 71.21875 Z M 186.929688 71.21875 "/>
<path style=" stroke:none;fill-rule:nonzero;fill:rgb(0%,0%,0%);fill-opacity:1;" d="M 200.394531 70.828125 C 200.394531 69.734375 200.160156 68.074219 197.992188 68.074219 C 196.996094 68.074219 196.136719 68.523438 195.453125 69.382812 L 195.453125 68.171875 L 194.183594 68.171875 L 194.183594 76.21875 L 195.53125 76.21875 L 195.53125 71.746094 C 195.53125 70.652344 195.960938 69.148438 197.308594 69.148438 C 198.988281 69.148438 199.027344 70.320312 199.027344 70.945312 L 199.027344 76.21875 L 200.394531 76.21875 Z M 200.394531 70.828125 "/>
<path style=" stroke:none;fill-rule:nonzero;fill:rgb(0%,0%,0%);fill-opacity:1;" d="M 209.578125 64.050781 L 208.035156 64.050781 L 208.035156 65.59375 L 209.578125 65.59375 Z M 209.480469 68.25 L 208.152344 68.25 L 208.152344 76.21875 L 209.480469 76.21875 Z M 209.480469 68.25 "/>
<path style=" stroke:none;fill-rule:nonzero;fill:rgb(0%,0%,0%);fill-opacity:1;" d="M 214.011719 69.304688 L 216.492188 69.304688 L 216.492188 68.25 L 214.011719 68.25 L 214.011719 65.984375 L 212.78125 65.984375 L 212.78125 68.25 L 211.277344 68.25 L 211.277344 69.304688 L 212.742188 69.304688 L 212.742188 74.128906 C 212.742188 75.164062 212.976562 76.394531 214.207031 76.394531 C 215.417969 76.394531 216.238281 75.984375 216.785156 75.691406 L 216.511719 74.65625 C 215.886719 75.222656 215.222656 75.28125 214.910156 75.28125 C 214.109375 75.28125 214.011719 74.441406 214.011719 73.816406 Z M 214.011719 69.304688 "/>
<path style=" stroke:none;fill-rule:nonzero;fill:rgb(0%,0%,0%);fill-opacity:1;" d="M 234.695312 70.828125 C 234.695312 69.578125 234.363281 68.074219 232.273438 68.074219 C 230.75 68.074219 229.910156 69.128906 229.636719 69.539062 C 229.304688 68.40625 228.328125 68.074219 227.390625 68.074219 C 225.925781 68.074219 225.144531 69.03125 224.851562 69.402344 L 224.851562 68.171875 L 223.582031 68.171875 L 223.582031 76.21875 L 224.929688 76.21875 L 224.929688 71.746094 C 224.929688 70.574219 225.398438 69.148438 226.707031 69.148438 C 228.367188 69.148438 228.445312 70.28125 228.445312 70.945312 L 228.445312 76.21875 L 229.8125 76.21875 L 229.8125 71.746094 C 229.8125 70.574219 230.28125 69.148438 231.589844 69.148438 C 233.230469 69.148438 233.328125 70.28125 233.328125 70.945312 L 233.328125 76.21875 L 234.695312 76.21875 Z M 234.695312 70.828125 "/>
<path style=" stroke:none;fill-rule:nonzero;fill:rgb(0%,0%,0%);fill-opacity:1;" d="M 243.742188 68.25 L 242.375 68.25 L 242.375 73.386719 C 242.375 74.753906 241.4375 75.417969 240.265625 75.417969 C 239.015625 75.417969 238.878906 74.949219 238.878906 74.148438 L 238.878906 68.25 L 237.53125 68.25 L 237.53125 74.226562 C 237.53125 75.515625 237.941406 76.394531 239.40625 76.394531 C 239.914062 76.394531 241.320312 76.316406 242.414062 75.320312 L 242.414062 76.21875 L 243.742188 76.21875 Z M 243.742188 68.25 "/>
<path style=" stroke:none;fill-rule:nonzero;fill:rgb(0%,0%,0%);fill-opacity:1;" d="M 251.160156 68.542969 C 250.027344 68.015625 249.050781 67.996094 248.640625 67.996094 C 248.230469 67.996094 245.730469 67.996094 245.730469 70.320312 C 245.730469 71.101562 246.160156 71.648438 246.433594 71.902344 C 247.078125 72.449219 247.527344 72.546875 248.582031 72.761719 C 249.1875 72.878906 250.222656 73.09375 250.222656 74.050781 C 250.222656 75.28125 248.816406 75.28125 248.5625 75.28125 C 247.859375 75.28125 246.804688 75.085938 245.847656 74.382812 L 245.632812 75.613281 C 245.710938 75.671875 246.941406 76.394531 248.582031 76.394531 C 250.90625 76.394531 251.453125 75.007812 251.453125 73.933594 C 251.453125 73.035156 250.90625 72.449219 250.828125 72.371094 C 250.164062 71.6875 249.617188 71.570312 248.542969 71.355469 C 247.878906 71.238281 246.980469 71.0625 246.980469 70.164062 C 246.980469 69.050781 248.230469 69.050781 248.464844 69.050781 C 249.402344 69.050781 250.164062 69.265625 250.945312 69.714844 Z M 251.160156 68.542969 "/>
<path style=" stroke:none;fill-rule:nonzero;fill:rgb(0%,0%,0%);fill-opacity:1;" d="M 254.960938 69.304688 L 257.441406 69.304688 L 257.441406 68.25 L 254.960938 68.25 L 254.960938 65.984375 L 253.730469 65.984375 L 253.730469 68.25 L 252.226562 68.25 L 252.226562 69.304688 L 253.691406 69.304688 L 253.691406 74.128906 C 253.691406 75.164062 253.925781 76.394531 255.15625 76.394531 C 256.367188 76.394531 257.1875 75.984375 257.734375 75.691406 L 257.460938 74.65625 C 256.835938 75.222656 256.171875 75.28125 255.859375 75.28125 C 255.058594 75.28125 254.960938 74.441406 254.960938 73.816406 Z M 254.960938 69.304688 "/>
<path style=" stroke:none;fill-rule:nonzero;fill:rgb(0%,0%,0%);fill-opacity:1;" d="M 265.878906 63.777344 L 264.550781 63.777344 L 264.550781 76.21875 L 265.898438 76.21875 L 265.898438 75.417969 C 266.738281 76.199219 267.617188 76.394531 268.242188 76.394531 C 269.941406 76.394531 271.503906 74.65625 271.503906 72.214844 C 271.503906 70.007812 270.3125 68.074219 268.652344 68.074219 C 268.125 68.074219 266.972656 68.191406 265.878906 69.089844 Z M 265.898438 70.183594 C 266.230469 69.675781 266.875 69.148438 267.753906 69.148438 C 268.847656 69.148438 270.136719 69.988281 270.136719 72.214844 C 270.136719 74.558594 268.671875 75.320312 267.578125 75.320312 C 267.070312 75.320312 266.738281 75.144531 266.40625 74.890625 C 265.976562 74.519531 265.898438 74.1875 265.898438 73.894531 Z M 265.898438 70.183594 "/>
<path style=" stroke:none;fill-rule:nonzero;fill:rgb(0%,0%,0%);fill-opacity:1;" d="M 279.902344 72.175781 C 279.902344 71.414062 279.824219 70.320312 279.257812 69.363281 C 278.515625 68.132812 277.265625 67.996094 276.738281 67.996094 C 274.804688 67.996094 273.183594 69.851562 273.183594 72.175781 C 273.183594 74.558594 274.902344 76.394531 276.992188 76.394531 C 277.8125 76.394531 278.808594 76.160156 279.785156 75.457031 C 279.785156 75.378906 279.726562 74.8125 279.726562 74.792969 C 279.707031 74.773438 279.6875 74.363281 279.6875 74.304688 C 278.613281 75.203125 277.558594 75.320312 277.03125 75.320312 C 275.644531 75.320312 274.453125 74.089844 274.433594 72.175781 Z M 274.53125 71.21875 C 274.84375 70.007812 275.683594 69.070312 276.738281 69.070312 C 277.304688 69.070312 278.535156 69.324219 278.828125 71.21875 Z M 274.53125 71.21875 "/>
<path style=" stroke:none;fill-rule:nonzero;fill:rgb(0%,0%,0%);fill-opacity:1;" d="M 283.128906 63.777344 L 281.800781 63.777344 L 281.800781 76.21875 L 283.128906 76.21875 Z M 283.128906 63.777344 "/>
<path style=" stroke:none;fill-rule:nonzero;fill:rgb(0%,0%,0%);fill-opacity:1;" d="M 292.820312 72.273438 C 292.820312 69.851562 291.042969 67.996094 288.992188 67.996094 C 286.882812 67.996094 285.144531 69.890625 285.144531 72.273438 C 285.144531 74.617188 286.921875 76.394531 288.972656 76.394531 C 291.082031 76.394531 292.820312 74.578125 292.820312 72.273438 Z M 288.992188 75.28125 C 287.703125 75.28125 286.492188 74.207031 286.492188 72.097656 C 286.492188 69.929688 287.839844 69.070312 288.972656 69.070312 C 290.203125 69.070312 291.472656 69.988281 291.472656 72.097656 C 291.472656 74.304688 290.183594 75.28125 288.992188 75.28125 Z M 288.992188 75.28125 "/>
<path style=" stroke:none;fill-rule:nonzero;fill:rgb(0%,0%,0%);fill-opacity:1;" d="M 301.042969 70.828125 C 301.042969 69.734375 300.808594 68.074219 298.640625 68.074219 C 297.644531 68.074219 296.785156 68.523438 296.101562 69.382812 L 296.101562 68.171875 L 294.832031 68.171875 L 294.832031 76.21875 L 296.179688 76.21875 L 296.179688 71.746094 C 296.179688 70.652344 296.609375 69.148438 297.957031 69.148438 C 299.636719 69.148438 299.675781 70.320312 299.675781 70.945312 L 299.675781 76.21875 L 301.042969 76.21875 Z M 301.042969 70.828125 "/>
<path style=" stroke:none;fill-rule:nonzero;fill:rgb(0%,0%,0%);fill-opacity:1;" d="M 308.558594 69.148438 C 308.558594 69.148438 308.597656 69.1875 308.617188 69.226562 C 308.988281 69.1875 309.378906 69.128906 310.042969 69.128906 C 310.101562 69.128906 310.511719 69.128906 310.960938 69.167969 L 310.765625 68.074219 C 310.433594 68.074219 309.203125 68.09375 308.011719 68.679688 C 307.425781 68.171875 306.703125 68.074219 306.351562 68.074219 C 304.789062 68.074219 303.539062 69.382812 303.539062 70.964844 C 303.539062 71.609375 303.734375 72.195312 304.125 72.742188 C 303.714844 73.308594 303.617188 73.855469 303.617188 74.285156 C 303.617188 74.949219 303.871094 75.398438 304.066406 75.632812 C 303.148438 76.21875 302.933594 76.980469 302.933594 77.488281 C 302.933594 78.796875 304.632812 79.890625 306.820312 79.890625 C 309.007812 79.890625 310.726562 78.835938 310.726562 77.46875 C 310.726562 74.96875 307.816406 74.96875 307.09375 74.96875 L 305.570312 74.96875 C 305.316406 74.96875 304.535156 74.96875 304.535156 74.011719 C 304.535156 73.621094 304.613281 73.503906 304.730469 73.347656 C 305.023438 73.5625 305.609375 73.875 306.332031 73.875 C 307.875 73.875 309.144531 72.605469 309.144531 70.964844 C 309.144531 70.320312 308.910156 69.65625 308.539062 69.167969 Z M 306.351562 72.878906 C 305.570312 72.878906 304.769531 72.351562 304.769531 70.984375 C 304.769531 69.382812 305.785156 69.070312 306.332031 69.070312 C 307.132812 69.070312 307.914062 69.597656 307.914062 70.964844 C 307.914062 72.566406 306.917969 72.878906 306.351562 72.878906 Z M 307.113281 76.257812 C 307.503906 76.257812 309.476562 76.257812 309.476562 77.488281 C 309.476562 78.308594 308.246094 78.914062 306.839844 78.914062 C 305.433594 78.914062 304.183594 78.347656 304.183594 77.46875 C 304.183594 77.429688 304.183594 76.257812 305.550781 76.257812 Z M 307.113281 76.257812 "/>
<path style=" stroke:none;fill-rule:nonzero;fill:rgb(0%,0%,0%);fill-opacity:1;" d="M 2.8125 90.453125 L 5.292969 90.453125 L 5.292969 89.398438 L 2.8125 89.398438 L 2.8125 87.132812 L 1.582031 87.132812 L 1.582031 89.398438 L 0.078125 89.398438 L 0.078125 90.453125 L 1.542969 90.453125 L 1.542969 95.277344 C 1.542969 96.3125 1.777344 97.542969 3.007812 97.542969 C 4.21875 97.542969 5.039062 97.132812 5.585938 96.839844 L 5.3125 95.804688 C 4.6875 96.371094 4.023438 96.429688 3.710938 96.429688 C 2.910156 96.429688 2.8125 95.589844 2.8125 94.964844 Z M 2.8125 90.453125 "/>
<path style=" stroke:none;fill-rule:nonzero;fill:rgb(0%,0%,0%);fill-opacity:1;" d="M 14.269531 93.421875 C 14.269531 91 12.492188 89.144531 10.441406 89.144531 C 8.332031 89.144531 6.59375 91.039062 6.59375 93.421875 C 6.59375 95.765625 8.371094 97.542969 10.421875 97.542969 C 12.53125 97.542969 14.269531 95.726562 14.269531 93.421875 Z M 10.441406 96.429688 C 9.152344 96.429688 7.941406 95.355469 7.941406 93.246094 C 7.941406 91.078125 9.289062 90.21875 10.421875 90.21875 C 11.652344 90.21875 12.921875 91.136719 12.921875 93.246094 C 12.921875 95.453125 11.632812 96.429688 10.441406 96.429688 Z M 10.441406 96.429688 "/>
<path style=" stroke:none;fill-rule:nonzero;fill:rgb(0%,0%,0%);fill-opacity:1;" d="M 28.96875 93.421875 C 28.96875 91 27.191406 89.144531 25.140625 89.144531 C 23.03125 89.144531 21.292969 91.039062 21.292969 93.421875 C 21.292969 95.765625 23.070312 97.542969 25.121094 97.542969 C 27.230469 97.542969 28.96875 95.726562 28.96875 93.421875 Z M 25.140625 96.429688 C 23.851562 96.429688 22.640625 95.355469 22.640625 93.246094 C 22.640625 91.078125 23.988281 90.21875 25.121094 90.21875 C 26.351562 90.21875 27.621094 91.136719 27.621094 93.246094 C 27.621094 95.453125 26.332031 96.429688 25.140625 96.429688 Z M 25.140625 96.429688 "/>
<path style=" stroke:none;fill-rule:nonzero;fill:rgb(0%,0%,0%);fill-opacity:1;" d="M 37.195312 91.976562 C 37.195312 90.882812 36.960938 89.222656 34.792969 89.222656 C 33.796875 89.222656 32.9375 89.671875 32.253906 90.53125 L 32.253906 89.320312 L 30.984375 89.320312 L 30.984375 97.367188 L 32.332031 97.367188 L 32.332031 92.894531 C 32.332031 91.800781 32.761719 90.296875 34.109375 90.296875 C 35.789062 90.296875 35.828125 91.46875 35.828125 92.09375 L 35.828125 97.367188 L 37.195312 97.367188 Z M 37.195312 91.976562 "/>
<path style=" stroke:none;fill-rule:nonzero;fill:rgb(0%,0%,0%);fill-opacity:1;" d="M 45.902344 93.324219 C 45.902344 92.5625 45.824219 91.46875 45.257812 90.511719 C 44.515625 89.28125 43.265625 89.144531 42.738281 89.144531 C 40.804688 89.144531 39.183594 91 39.183594 93.324219 C 39.183594 95.707031 40.902344 97.542969 42.992188 97.542969 C 43.8125 97.542969 44.808594 97.308594 45.785156 96.605469 C 45.785156 96.527344 45.726562 95.960938 45.726562 95.941406 C 45.707031 95.921875 45.6875 95.511719 45.6875 95.453125 C 44.613281 96.351562 43.558594 96.46875 43.03125 96.46875 C 41.644531 96.46875 40.453125 95.238281 40.433594 93.324219 Z M 40.53125 92.367188 C 40.84375 91.15625 41.683594 90.21875 42.738281 90.21875 C 43.304688 90.21875 44.535156 90.472656 44.828125 92.367188 Z M 40.53125 92.367188 "/>
<path style=" stroke:none;fill-rule:nonzero;fill:rgb(0%,0%,0%);fill-opacity:1;" d="M 60.46875 93.421875 C 60.46875 91 58.691406 89.144531 56.640625 89.144531 C 54.53125 89.144531 52.792969 91.039062 52.792969 93.421875 C 52.792969 95.765625 54.570312 97.542969 56.621094 97.542969 C 58.730469 97.542969 60.46875 95.726562 60.46875 93.421875 Z M 56.640625 96.429688 C 55.351562 96.429688 54.140625 95.355469 54.140625 93.246094 C 54.140625 91.078125 55.488281 90.21875 56.621094 90.21875 C 57.851562 90.21875 59.121094 91.136719 59.121094 93.246094 C 59.121094 95.453125 57.832031 96.429688 56.640625 96.429688 Z M 56.640625 96.429688 "/>
<path style=" stroke:none;fill-rule:nonzero;fill:rgb(0%,0%,0%);fill-opacity:1;" d="M 64.203125 90.453125 L 66.117188 90.453125 L 66.117188 89.398438 L 64.164062 89.398438 L 64.164062 87.25 C 64.164062 86.039062 65.179688 85.824219 65.785156 85.824219 C 66.410156 85.824219 66.957031 86.019531 67.171875 86.097656 L 67.171875 84.925781 C 67.054688 84.886719 66.449219 84.75 65.804688 84.75 C 64.085938 84.75 62.875 86.058594 62.875 87.796875 L 62.875 89.398438 L 61.566406 89.398438 L 61.566406 90.453125 L 62.875 90.453125 L 62.875 97.367188 L 64.203125 97.367188 Z M 64.203125 90.453125 "/>
<path style=" stroke:none;fill-rule:nonzero;fill:rgb(0%,0%,0%);fill-opacity:1;" d="M 75.261719 90.453125 L 77.742188 90.453125 L 77.742188 89.398438 L 75.261719 89.398438 L 75.261719 87.132812 L 74.03125 87.132812 L 74.03125 89.398438 L 72.527344 89.398438 L 72.527344 90.453125 L 73.992188 90.453125 L 73.992188 95.277344 C 73.992188 96.3125 74.226562 97.542969 75.457031 97.542969 C 76.667969 97.542969 77.488281 97.132812 78.035156 96.839844 L 77.761719 95.804688 C 77.136719 96.371094 76.472656 96.429688 76.160156 96.429688 C 75.359375 96.429688 75.261719 95.589844 75.261719 94.964844 Z M 75.261719 90.453125 "/>
<path style=" stroke:none;fill-rule:nonzero;fill:rgb(0%,0%,0%);fill-opacity:1;" d="M 86.09375 91.976562 C 86.09375 90.882812 85.859375 89.222656 83.691406 89.222656 C 82.460938 89.222656 81.640625 89.925781 81.210938 90.472656 L 81.210938 84.925781 L 79.882812 84.925781 L 79.882812 97.367188 L 81.230469 97.367188 L 81.230469 92.894531 C 81.230469 91.800781 81.660156 90.296875 83.007812 90.296875 C 84.6875 90.296875 84.726562 91.46875 84.726562 92.09375 L 84.726562 97.367188 L 86.09375 97.367188 Z M 86.09375 91.976562 "/>
<path style=" stroke:none;fill-rule:nonzero;fill:rgb(0%,0%,0%);fill-opacity:1;" d="M 94.800781 93.324219 C 94.800781 92.5625 94.722656 91.46875 94.15625 90.511719 C 93.414062 89.28125 92.164062 89.144531 91.636719 89.144531 C 89.703125 89.144531 88.082031 91 88.082031 93.324219 C 88.082031 95.707031 89.800781 97.542969 91.890625 97.542969 C 92.710938 97.542969 93.707031 97.308594 94.683594 96.605469 C 94.683594 96.527344 94.625 95.960938 94.625 95.941406 C 94.605469 95.921875 94.585938 95.511719 94.585938 95.453125 C 93.511719 96.351562 92.457031 96.46875 91.929688 96.46875 C 90.542969 96.46875 89.351562 95.238281 89.332031 93.324219 Z M 89.429688 92.367188 C 89.742188 91.15625 90.582031 90.21875 91.636719 90.21875 C 92.203125 90.21875 93.433594 90.472656 93.726562 92.367188 Z M 89.429688 92.367188 "/>
<path style=" stroke:none;fill-rule:nonzero;fill:rgb(0%,0%,0%);fill-opacity:1;" d="M 104.25 90.453125 L 106.164062 90.453125 L 106.164062 89.398438 L 104.210938 89.398438 L 104.210938 87.25 C 104.210938 86.039062 105.226562 85.824219 105.832031 85.824219 C 106.457031 85.824219 107.003906 86.019531 107.21875 86.097656 L 107.21875 84.925781 C 107.101562 84.886719 106.496094 84.75 105.851562 84.75 C 104.132812 84.75 102.921875 86.058594 102.921875 87.796875 L 102.921875 89.398438 L 101.613281 89.398438 L 101.613281 90.453125 L 102.921875 90.453125 L 102.921875 97.367188 L 104.25 97.367188 Z M 104.25 90.453125 "/>
<path style=" stroke:none;fill-rule:nonzero;fill:rgb(0%,0%,0%);fill-opacity:1;" d="M 114.769531 93.421875 C 114.769531 91 112.992188 89.144531 110.941406 89.144531 C 108.832031 89.144531 107.09375 91.039062 107.09375 93.421875 C 107.09375 95.765625 108.871094 97.542969 110.921875 97.542969 C 113.03125 97.542969 114.769531 95.726562 114.769531 93.421875 Z M 110.941406 96.429688 C 109.652344 96.429688 108.441406 95.355469 108.441406 93.246094 C 108.441406 91.078125 109.789062 90.21875 110.921875 90.21875 C 112.152344 90.21875 113.421875 91.136719 113.421875 93.246094 C 113.421875 95.453125 112.132812 96.429688 110.941406 96.429688 Z M 110.941406 96.429688 "/>
<path style=" stroke:none;fill-rule:nonzero;fill:rgb(0%,0%,0%);fill-opacity:1;" d="M 122.992188 89.398438 L 121.625 89.398438 L 121.625 94.535156 C 121.625 95.902344 120.6875 96.566406 119.515625 96.566406 C 118.265625 96.566406 118.128906 96.097656 118.128906 95.296875 L 118.128906 89.398438 L 116.78125 89.398438 L 116.78125 95.375 C 116.78125 96.664062 117.191406 97.542969 118.65625 97.542969 C 119.164062 97.542969 120.570312 97.464844 121.664062 96.46875 L 121.664062 97.367188 L 122.992188 97.367188 Z M 122.992188 89.398438 "/>
<path style=" stroke:none;fill-rule:nonzero;fill:rgb(0%,0%,0%);fill-opacity:1;" d="M 127.128906 93.441406 C 127.128906 91.625 128.476562 90.453125 130.097656 90.433594 L 130.097656 89.222656 C 128.457031 89.242188 127.519531 90.199219 127.03125 90.902344 L 127.03125 89.320312 L 125.800781 89.320312 L 125.800781 97.367188 L 127.128906 97.367188 Z M 127.128906 93.441406 "/>
<path style=" stroke:none;fill-rule:nonzero;fill:rgb(0%,0%,0%);fill-opacity:1;" d="M 142.261719 89.691406 C 141.128906 89.164062 140.152344 89.144531 139.742188 89.144531 C 139.332031 89.144531 136.832031 89.144531 136.832031 91.46875 C 136.832031 92.25 137.261719 92.796875 137.535156 93.050781 C 138.179688 93.597656 138.628906 93.695312 139.683594 93.910156 C 140.289062 94.027344 141.324219 94.242188 141.324219 95.199219 C 141.324219 96.429688 139.917969 96.429688 139.664062 96.429688 C 138.960938 96.429688 137.90625 96.234375 136.949219 95.53125 L 136.734375 96.761719 C 136.8125 96.820312 138.042969 97.542969 139.683594 97.542969 C 142.007812 97.542969 142.554688 96.15625 142.554688 95.082031 C 142.554688 94.183594 142.007812 93.597656 141.929688 93.519531 C 141.265625 92.835938 140.71875 92.71875 139.644531 92.503906 C 138.980469 92.386719 138.082031 92.210938 138.082031 91.3125 C 138.082031 90.199219 139.332031 90.199219 139.566406 90.199219 C 140.503906 90.199219 141.265625 90.414062 142.046875 90.863281 Z M 142.261719 89.691406 "/>
<path style=" stroke:none;fill-rule:nonzero;fill:rgb(0%,0%,0%);fill-opacity:1;" d="M 150.59375 89.398438 L 149.226562 89.398438 L 149.226562 94.535156 C 149.226562 95.902344 148.289062 96.566406 147.117188 96.566406 C 145.867188 96.566406 145.730469 96.097656 145.730469 95.296875 L 145.730469 89.398438 L 144.382812 89.398438 L 144.382812 95.375 C 144.382812 96.664062 144.792969 97.542969 146.257812 97.542969 C 146.765625 97.542969 148.171875 97.464844 149.265625 96.46875 L 149.265625 97.367188 L 150.59375 97.367188 Z M 150.59375 89.398438 "/>
<path style=" stroke:none;fill-rule:nonzero;fill:rgb(0%,0%,0%);fill-opacity:1;" d="M 154.828125 85.199219 L 153.285156 85.199219 L 153.285156 86.742188 L 154.828125 86.742188 Z M 154.730469 89.398438 L 153.402344 89.398438 L 153.402344 97.367188 L 154.730469 97.367188 Z M 154.730469 89.398438 "/>
<path style=" stroke:none;fill-rule:nonzero;fill:rgb(0%,0%,0%);fill-opacity:1;" d="M 159.261719 90.453125 L 161.742188 90.453125 L 161.742188 89.398438 L 159.261719 89.398438 L 159.261719 87.132812 L 158.03125 87.132812 L 158.03125 89.398438 L 156.527344 89.398438 L 156.527344 90.453125 L 157.992188 90.453125 L 157.992188 95.277344 C 157.992188 96.3125 158.226562 97.542969 159.457031 97.542969 C 160.667969 97.542969 161.488281 97.132812 162.035156 96.839844 L 161.761719 95.804688 C 161.136719 96.371094 160.472656 96.429688 160.160156 96.429688 C 159.359375 96.429688 159.261719 95.589844 159.261719 94.964844 Z M 159.261719 90.453125 "/>
<path style=" stroke:none;fill-rule:nonzero;fill:rgb(0%,0%,0%);fill-opacity:1;" d="M 169.800781 93.324219 C 169.800781 92.5625 169.722656 91.46875 169.15625 90.511719 C 168.414062 89.28125 167.164062 89.144531 166.636719 89.144531 C 164.703125 89.144531 163.082031 91 163.082031 93.324219 C 163.082031 95.707031 164.800781 97.542969 166.890625 97.542969 C 167.710938 97.542969 168.707031 97.308594 169.683594 96.605469 C 169.683594 96.527344 169.625 95.960938 169.625 95.941406 C 169.605469 95.921875 169.585938 95.511719 169.585938 95.453125 C 168.511719 96.351562 167.457031 96.46875 166.929688 96.46875 C 165.542969 96.46875 164.351562 95.238281 164.332031 93.324219 Z M 164.429688 92.367188 C 164.742188 91.15625 165.582031 90.21875 166.636719 90.21875 C 167.203125 90.21875 168.433594 90.472656 168.726562 92.367188 Z M 164.429688 92.367188 "/>
<path style=" stroke:none;fill-rule:nonzero;fill:rgb(0%,0%,0%);fill-opacity:1;" d="M 176.3125 89.691406 C 175.179688 89.164062 174.203125 89.144531 173.792969 89.144531 C 173.382812 89.144531 170.882812 89.144531 170.882812 91.46875 C 170.882812 92.25 171.3125 92.796875 171.585938 93.050781 C 172.230469 93.597656 172.679688 93.695312 173.734375 93.910156 C 174.339844 94.027344 175.375 94.242188 175.375 95.199219 C 175.375 96.429688 173.96875 96.429688 173.714844 96.429688 C 173.011719 96.429688 171.957031 96.234375 171 95.53125 L 170.785156 96.761719 C 170.863281 96.820312 172.09375 97.542969 173.734375 97.542969 C 176.058594 97.542969 176.605469 96.15625 176.605469 95.082031 C 176.605469 94.183594 176.058594 93.597656 175.980469 93.519531 C 175.316406 92.835938 174.769531 92.71875 173.695312 92.503906 C 173.03125 92.386719 172.132812 92.210938 172.132812 91.3125 C 172.132812 90.199219 173.382812 90.199219 173.617188 90.199219 C 174.554688 90.199219 175.316406 90.414062 176.097656 90.863281 Z M 176.3125 89.691406 "/>
<path style=" stroke:none;fill-rule:nonzero;fill:rgb(0%,0%,0%);fill-opacity:1;" d="M 15.957031 127.226562 L 14.648438 127.226562 L 13.007812 133.105469 L 12.304688 135.761719 C 12.070312 136.621094 11.796875 137.65625 11.71875 138.300781 L 11.699219 138.300781 C 11.621094 137.558594 11.230469 136.015625 10.917969 134.941406 L 8.808594 127.226562 L 7.285156 127.226562 L 5.742188 132.773438 C 5.605469 133.222656 4.53125 137.128906 4.414062 138.28125 L 4.394531 138.28125 C 4.316406 137.597656 3.867188 135.839844 3.789062 135.546875 L 3.027344 132.675781 L 1.523438 127.226562 L 0 127.226562 L 3.515625 139.667969 L 5 139.667969 L 6.679688 133.574219 C 7.128906 131.972656 7.8125 129.511719 7.929688 128.574219 L 7.949219 128.574219 C 7.949219 128.59375 8.066406 129.492188 8.90625 132.558594 L 10.859375 139.667969 L 12.441406 139.667969 Z M 15.957031 127.226562 "/>
<path style=" stroke:none;fill-rule:nonzero;fill:rgb(0%,0%,0%);fill-opacity:1;" d="M 23.84375 134.277344 C 23.84375 133.183594 23.609375 131.523438 21.441406 131.523438 C 20.210938 131.523438 19.390625 132.226562 18.960938 132.773438 L 18.960938 127.226562 L 17.632812 127.226562 L 17.632812 139.667969 L 18.980469 139.667969 L 18.980469 135.195312 C 18.980469 134.101562 19.410156 132.597656 20.757812 132.597656 C 22.4375 132.597656 22.476562 133.769531 22.476562 134.394531 L 22.476562 139.667969 L 23.84375 139.667969 Z M 23.84375 134.277344 "/>
<path style=" stroke:none;fill-rule:nonzero;fill:rgb(0%,0%,0%);fill-opacity:1;" d="M 28.078125 127.5 L 26.535156 127.5 L 26.535156 129.042969 L 28.078125 129.042969 Z M 27.980469 131.699219 L 26.652344 131.699219 L 26.652344 139.667969 L 27.980469 139.667969 Z M 27.980469 131.699219 "/>
<path style=" stroke:none;fill-rule:nonzero;fill:rgb(0%,0%,0%);fill-opacity:1;" d="M 36.632812 137.734375 C 35.8125 138.398438 34.894531 138.730469 33.898438 138.730469 C 32.394531 138.730469 31.4375 137.402344 31.4375 135.664062 C 31.4375 134.179688 32.160156 132.558594 33.9375 132.558594 C 35.148438 132.558594 35.65625 132.832031 36.417969 133.359375 L 36.632812 132.1875 C 35.597656 131.582031 35.011719 131.445312 33.9375 131.445312 C 31.476562 131.445312 30.070312 133.632812 30.070312 135.664062 C 30.070312 137.96875 31.730469 139.84375 33.878906 139.84375 C 34.757812 139.84375 35.753906 139.628906 36.75 138.90625 C 36.75 138.867188 36.691406 138.300781 36.671875 138.242188 Z M 36.632812 137.734375 "/>
<path style=" stroke:none;fill-rule:nonzero;fill:rgb(0%,0%,0%);fill-opacity:1;" d="M 44.84375 134.277344 C 44.84375 133.183594 44.609375 131.523438 42.441406 131.523438 C 41.210938 131.523438 40.390625 132.226562 39.960938 132.773438 L 39.960938 127.226562 L 38.632812 127.226562 L 38.632812 139.667969 L 39.980469 139.667969 L 39.980469 135.195312 C 39.980469 134.101562 40.410156 132.597656 41.757812 132.597656 C 43.4375 132.597656 43.476562 133.769531 43.476562 134.394531 L 43.476562 139.667969 L 44.84375 139.667969 Z M 44.84375 134.277344 "/>
<path style=" stroke:none;fill-rule:nonzero;fill:rgb(0%,0%,0%);fill-opacity:1;" d="M 54.929688 127.5 L 53.386719 127.5 L 53.386719 129.042969 L 54.929688 129.042969 Z M 54.832031 131.699219 L 53.503906 131.699219 L 53.503906 139.667969 L 54.832031 139.667969 Z M 54.832031 131.699219 "/>
<path style=" stroke:none;fill-rule:nonzero;fill:rgb(0%,0%,0%);fill-opacity:1;" d="M 62.3125 131.992188 C 61.179688 131.464844 60.203125 131.445312 59.792969 131.445312 C 59.382812 131.445312 56.882812 131.445312 56.882812 133.769531 C 56.882812 134.550781 57.3125 135.097656 57.585938 135.351562 C 58.230469 135.898438 58.679688 135.996094 59.734375 136.210938 C 60.339844 136.328125 61.375 136.542969 61.375 137.5 C 61.375 138.730469 59.96875 138.730469 59.714844 138.730469 C 59.011719 138.730469 57.957031 138.535156 57 137.832031 L 56.785156 139.0625 C 56.863281 139.121094 58.09375 139.84375 59.734375 139.84375 C 62.058594 139.84375 62.605469 138.457031 62.605469 137.382812 C 62.605469 136.484375 62.058594 135.898438 61.980469 135.820312 C 61.316406 135.136719 60.769531 135.019531 59.695312 134.804688 C 59.03125 134.6875 58.132812 134.511719 58.132812 133.613281 C 58.132812 132.5 59.382812 132.5 59.617188 132.5 C 60.554688 132.5 61.316406 132.714844 62.097656 133.164062 Z M 62.3125 131.992188 "/>
<path style=" stroke:none;fill-rule:nonzero;fill:rgb(0%,0%,0%);fill-opacity:1;" d="M 80.40625 131.699219 L 79.097656 131.699219 L 78.023438 135.351562 C 77.769531 136.210938 77.261719 137.890625 77.183594 138.671875 L 77.164062 138.671875 C 77.125 138.242188 76.832031 137.03125 76.460938 135.761719 L 75.269531 131.699219 L 74.039062 131.699219 L 73.003906 135.214844 C 72.691406 136.328125 72.261719 137.871094 72.203125 138.632812 L 72.183594 138.632812 C 72.164062 138.28125 71.96875 137.34375 71.636719 136.132812 L 70.367188 131.699219 L 69 131.699219 L 71.402344 139.667969 L 72.789062 139.667969 C 73.453125 137.402344 74.507812 134.003906 74.605469 132.753906 L 74.625 132.753906 C 74.664062 133.476562 75.015625 134.765625 75.152344 135.195312 L 76.421875 139.667969 L 78.003906 139.667969 Z M 80.40625 131.699219 "/>
<path style=" stroke:none;fill-rule:nonzero;fill:rgb(0%,0%,0%);fill-opacity:1;" d="M 88.34375 134.277344 C 88.34375 133.183594 88.109375 131.523438 85.941406 131.523438 C 84.710938 131.523438 83.890625 132.226562 83.460938 132.773438 L 83.460938 127.226562 L 82.132812 127.226562 L 82.132812 139.667969 L 83.480469 139.667969 L 83.480469 135.195312 C 83.480469 134.101562 83.910156 132.597656 85.257812 132.597656 C 86.9375 132.597656 86.976562 133.769531 86.976562 134.394531 L 86.976562 139.667969 L 88.34375 139.667969 Z M 88.34375 134.277344 "/>
<path style=" stroke:none;fill-rule:nonzero;fill:rgb(0%,0%,0%);fill-opacity:1;" d="M 97.5 131.699219 L 96.171875 131.699219 C 95.332031 133.828125 93.964844 137.34375 93.886719 138.632812 L 93.867188 138.632812 C 93.789062 137.578125 92.832031 135.195312 92.695312 134.84375 L 91.40625 131.699219 L 90 131.699219 L 93.339844 139.667969 L 92.695312 141.308594 C 92.304688 142.1875 92.050781 142.285156 91.71875 142.285156 C 91.464844 142.285156 90.898438 142.226562 90.332031 142.011719 L 90.449219 143.183594 C 90.546875 143.203125 91.152344 143.320312 91.71875 143.320312 C 92.148438 143.320312 92.988281 143.320312 93.769531 141.347656 Z M 97.5 131.699219 "/>
<path style=" stroke:none;fill-rule:nonzero;fill:rgb(0%,0%,0%);fill-opacity:1;" d="M 108.859375 133.964844 L 111.867188 133.964844 C 114.347656 133.964844 116.808594 132.128906 116.808594 130.097656 C 116.808594 128.691406 115.636719 127.421875 113.371094 127.421875 L 107.824219 127.421875 C 107.492188 127.421875 107.335938 127.421875 107.335938 127.753906 C 107.335938 127.949219 107.492188 127.949219 107.765625 127.949219 C 108.859375 127.949219 108.859375 128.085938 108.859375 128.28125 C 108.859375 128.320312 108.859375 128.417969 108.78125 128.691406 L 106.359375 138.339844 C 106.203125 138.964844 106.164062 139.140625 104.914062 139.140625 C 104.5625 139.140625 104.386719 139.140625 104.386719 139.472656 C 104.386719 139.667969 104.542969 139.667969 104.660156 139.667969 C 104.992188 139.667969 105.363281 139.628906 105.695312 139.628906 L 107.804688 139.628906 C 108.136719 139.628906 108.507812 139.667969 108.859375 139.667969 C 108.996094 139.667969 109.191406 139.667969 109.191406 139.335938 C 109.191406 139.140625 109.035156 139.140625 108.761719 139.140625 C 107.6875 139.140625 107.667969 139.023438 107.667969 138.847656 C 107.667969 138.75 107.6875 138.632812 107.707031 138.535156 Z M 110.148438 128.632812 C 110.304688 127.96875 110.382812 127.949219 111.085938 127.949219 L 112.84375 127.949219 C 114.191406 127.949219 115.304688 128.378906 115.304688 129.726562 C 115.304688 130.175781 115.070312 131.699219 114.25 132.539062 C 113.9375 132.851562 113.078125 133.535156 111.457031 133.535156 L 108.917969 133.535156 Z M 110.148438 128.632812 "/>
<path style=" stroke:none;fill-rule:nonzero;fill:rgb(0%,0%,0%);fill-opacity:1;" d="M 123.015625 144.023438 C 123.015625 143.964844 123.015625 143.925781 122.722656 143.632812 C 120.925781 141.816406 119.929688 138.867188 119.929688 135.195312 C 119.929688 131.71875 120.769531 128.730469 122.839844 126.621094 C 123.015625 126.445312 123.015625 126.425781 123.015625 126.367188 C 123.015625 126.25 122.9375 126.230469 122.859375 126.230469 C 122.625 126.230469 121.160156 127.519531 120.28125 129.277344 C 119.363281 131.074219 118.953125 133.007812 118.953125 135.195312 C 118.953125 136.796875 119.207031 138.925781 120.144531 140.859375 C 121.199219 143.007812 122.664062 144.160156 122.859375 144.160156 C 122.9375 144.160156 123.015625 144.140625 123.015625 144.023438 Z M 123.015625 144.023438 "/>
<path style=" stroke:none;fill-rule:nonzero;fill:rgb(0%,0%,0%);fill-opacity:1;" d="M 130.675781 128.808594 C 130.832031 128.125 130.890625 127.949219 132.472656 127.949219 C 132.941406 127.949219 133.078125 127.949219 133.078125 127.597656 C 133.078125 127.421875 132.882812 127.421875 132.804688 127.421875 C 132.453125 127.421875 132.042969 127.460938 131.671875 127.460938 L 129.269531 127.460938 C 128.9375 127.460938 128.546875 127.421875 128.195312 127.421875 C 128.058594 127.421875 127.863281 127.421875 127.863281 127.753906 C 127.863281 127.949219 128.019531 127.949219 128.292969 127.949219 C 129.386719 127.949219 129.386719 128.085938 129.386719 128.28125 C 129.386719 128.320312 129.386719 128.417969 129.308594 128.691406 L 126.886719 138.339844 C 126.730469 138.964844 126.691406 139.140625 125.441406 139.140625 C 125.089844 139.140625 124.914062 139.140625 124.914062 139.472656 C 124.914062 139.667969 125.03125 139.667969 125.382812 139.667969 L 133.410156 139.667969 C 133.820312 139.667969 133.820312 139.648438 133.957031 139.335938 L 135.34375 135.507812 C 135.363281 135.410156 135.402344 135.3125 135.402344 135.253906 C 135.402344 135.15625 135.324219 135.078125 135.226562 135.078125 C 135.207031 135.078125 135.128906 135.078125 135.089844 135.15625 C 135.050781 135.175781 135.050781 135.195312 134.914062 135.546875 C 134.328125 137.128906 133.527344 139.140625 130.5 139.140625 L 128.78125 139.140625 C 128.527344 139.140625 128.488281 139.140625 128.371094 139.121094 C 128.175781 139.121094 128.15625 139.082031 128.15625 138.925781 C 128.15625 138.808594 128.195312 138.691406 128.234375 138.535156 Z M 130.675781 128.808594 "/>
<path style=" stroke:none;fill-rule:nonzero;fill:rgb(0%,0%,0%);fill-opacity:1;" d="M 141.152344 135.195312 C 141.152344 133.847656 140.976562 131.621094 139.960938 129.53125 C 138.90625 127.382812 137.441406 126.230469 137.246094 126.230469 C 137.167969 126.230469 137.070312 126.25 137.070312 126.367188 C 137.070312 126.425781 137.070312 126.445312 137.382812 126.757812 C 139.179688 128.574219 140.175781 131.523438 140.175781 135.195312 C 140.175781 138.671875 139.335938 141.660156 137.265625 143.769531 C 137.070312 143.925781 137.070312 143.964844 137.070312 144.023438 C 137.070312 144.140625 137.167969 144.160156 137.246094 144.160156 C 137.480469 144.160156 138.945312 142.871094 139.824219 141.113281 C 140.742188 139.296875 141.152344 137.363281 141.152344 135.195312 Z M 141.152344 135.195312 "/>
<path style=" stroke:none;fill-rule:nonzero;fill:rgb(0%,0%,0%);fill-opacity:1;" d="M 160.054688 133.867188 C 160.308594 133.867188 160.621094 133.867188 160.621094 133.535156 C 160.621094 133.203125 160.308594 133.203125 160.054688 133.203125 L 149.488281 133.203125 C 149.234375 133.203125 148.921875 133.203125 148.921875 133.515625 C 148.921875 133.867188 149.214844 133.867188 149.488281 133.867188 Z M 160.054688 137.1875 C 160.308594 137.1875 160.621094 137.1875 160.621094 136.875 C 160.621094 136.523438 160.308594 136.523438 160.054688 136.523438 L 149.488281 136.523438 C 149.234375 136.523438 148.921875 136.523438 148.921875 136.855469 C 148.921875 137.1875 149.214844 137.1875 149.488281 137.1875 Z M 160.054688 137.1875 "/>
<path style=" stroke:none;fill-rule:nonzero;fill:rgb(0%,0%,0%);fill-opacity:1;" d="M 171.71875 124.648438 C 171.71875 124.335938 171.71875 124.316406 171.425781 124.316406 C 170.644531 125.117188 169.550781 125.117188 169.160156 125.117188 L 169.160156 125.507812 C 169.414062 125.507812 170.136719 125.507812 170.78125 125.175781 L 170.78125 131.640625 C 170.78125 132.089844 170.742188 132.226562 169.628906 132.226562 L 169.238281 132.226562 L 169.238281 132.617188 C 169.667969 132.578125 170.742188 132.578125 171.25 132.578125 C 171.738281 132.578125 172.832031 132.578125 173.261719 132.617188 L 173.261719 132.226562 L 172.871094 132.226562 C 171.738281 132.226562 171.71875 132.089844 171.71875 131.640625 Z M 171.71875 124.648438 "/>
<path style=" stroke:none;fill-rule:nonzero;fill:rgb(0%,0%,0%);fill-opacity:1;" d="M 168.03125 134.882812 L 174.332031 134.882812 L 174.332031 135.636719 L 168.03125 135.636719 Z M 168.03125 134.882812 "/>
<path style=" stroke:none;fill-rule:nonzero;fill:rgb(0%,0%,0%);fill-opacity:1;" d="M 171.71875 143.765625 L 171.71875 144.839844 C 171.71875 145.289062 171.679688 145.425781 170.761719 145.425781 L 170.507812 145.425781 L 170.507812 145.816406 C 171.015625 145.777344 171.660156 145.777344 172.1875 145.777344 C 172.714844 145.777344 173.359375 145.777344 173.886719 145.816406 L 173.886719 145.425781 L 173.613281 145.425781 C 172.695312 145.425781 172.675781 145.289062 172.675781 144.839844 L 172.675781 143.765625 L 173.90625 143.765625 L 173.90625 143.375 L 172.675781 143.375 L 172.675781 137.710938 C 172.675781 137.457031 172.675781 137.378906 172.460938 137.378906 C 172.363281 137.378906 172.324219 137.378906 172.226562 137.535156 L 168.398438 143.375 L 168.398438 143.765625 Z M 171.777344 143.375 L 168.75 143.375 L 171.777344 138.726562 Z M 171.777344 143.375 "/>
</g>
</svg>
