<?xml version="1.0" encoding="UTF-8"?>
<svg xmlns="http://www.w3.org/2000/svg" xmlns:xlink="http://www.w3.org/1999/xlink" width="274.53608pt" height="106.98378pt" viewBox="0 0 274.53608 106.98378" version="1.1">
<g id="surface1">
<path style=" stroke:none;fill-rule:nonzero;fill:rgb(0%,0%,0%);fill-opacity:1;" d="M 4.707031 15.707031 C 6.347656 15.238281 7.226562 14.105469 7.226562 12.992188 C 7.226562 11.507812 5.625 10.199219 3.515625 10.199219 L 0 10.199219 L 0 20.570312 L 1.25 20.570312 L 1.25 15.824219 L 3.574219 15.824219 L 6.347656 20.570312 L 7.636719 20.570312 Z M 1.25 14.945312 L 1.25 11.039062 L 3.359375 11.039062 C 5.15625 11.039062 6.035156 11.996094 6.035156 12.992188 C 6.035156 13.929688 5.234375 14.945312 3.359375 14.945312 Z M 1.25 14.945312 "/>
<path style=" stroke:none;fill-rule:nonzero;fill:rgb(0%,0%,0%);fill-opacity:1;" d="M 14.15625 17.210938 C 14.15625 16.566406 14.097656 15.648438 13.628906 14.867188 C 13.003906 13.832031 11.96875 13.714844 11.539062 13.714844 C 9.917969 13.714844 8.570312 15.257812 8.570312 17.210938 C 8.570312 19.183594 10.015625 20.726562 11.734375 20.726562 C 12.4375 20.726562 13.257812 20.53125 14.078125 19.925781 C 14.078125 19.867188 14.019531 19.398438 14.019531 19.378906 C 14.019531 19.359375 13.980469 19.027344 13.980469 18.96875 C 13.101562 19.710938 12.222656 19.828125 11.773438 19.828125 C 10.621094 19.828125 9.644531 18.792969 9.605469 17.210938 Z M 9.703125 16.410156 C 9.957031 15.394531 10.660156 14.613281 11.539062 14.613281 C 11.988281 14.613281 13.023438 14.808594 13.277344 16.410156 Z M 9.703125 16.410156 "/>
<path style=" stroke:none;fill-rule:nonzero;fill:rgb(0%,0%,0%);fill-opacity:1;" d="M 20.527344 18.949219 C 19.84375 19.515625 19.082031 19.789062 18.242188 19.789062 C 16.992188 19.789062 16.191406 18.695312 16.191406 17.230469 C 16.191406 16 16.796875 14.632812 18.28125 14.632812 C 19.277344 14.632812 19.707031 14.886719 20.351562 15.316406 L 20.527344 14.339844 C 19.648438 13.832031 19.160156 13.714844 18.28125 13.714844 C 16.210938 13.714844 15.058594 15.53125 15.058594 17.230469 C 15.058594 19.144531 16.425781 20.726562 18.222656 20.726562 C 18.945312 20.726562 19.785156 20.53125 20.605469 19.945312 C 20.605469 19.90625 20.566406 19.4375 20.546875 19.378906 Z M 20.527344 18.949219 "/>
<path style=" stroke:none;fill-rule:nonzero;fill:rgb(0%,0%,0%);fill-opacity:1;" d="M 26.824219 16.195312 C 26.824219 14.75 25.789062 13.714844 24.402344 13.714844 C 23.503906 13.714844 22.839844 13.929688 22.097656 14.339844 L 22.195312 15.316406 C 22.859375 14.847656 23.542969 14.574219 24.402344 14.574219 C 25.085938 14.574219 25.691406 15.140625 25.691406 16.214844 L 25.691406 16.839844 C 25.027344 16.859375 24.128906 16.917969 23.230469 17.210938 C 22.214844 17.542969 21.648438 18.109375 21.648438 18.851562 C 21.648438 19.515625 22.039062 20.726562 23.308594 20.726562 C 24.128906 20.726562 25.164062 20.472656 25.730469 20.023438 L 25.730469 20.570312 L 26.824219 20.570312 Z M 25.691406 18.558594 C 25.691406 18.871094 25.691406 19.222656 25.203125 19.515625 C 24.792969 19.769531 24.285156 19.828125 24.070312 19.828125 C 23.25 19.828125 22.703125 19.398438 22.703125 18.832031 C 22.703125 17.816406 24.773438 17.601562 25.691406 17.601562 Z M 25.691406 18.558594 "/>
<path style=" stroke:none;fill-rule:nonzero;fill:rgb(0%,0%,0%);fill-opacity:1;" d="M 30.296875 10.199219 L 29.203125 10.199219 L 29.203125 20.570312 L 30.296875 20.570312 Z M 30.296875 10.199219 "/>
<path style=" stroke:none;fill-rule:nonzero;fill:rgb(0%,0%,0%);fill-opacity:1;" d="M 33.75 10.199219 L 32.65625 10.199219 L 32.65625 20.570312 L 33.75 20.570312 Z M 33.75 10.199219 "/>
<path style=" stroke:none;fill-rule:nonzero;fill:rgb(0%,0%,0%);fill-opacity:1;" d="M 42.441406 14.808594 L 44.492188 14.808594 L 44.492188 13.929688 L 42.441406 13.929688 L 42.441406 12.035156 L 41.40625 12.035156 L 41.40625 13.929688 L 40.15625 13.929688 L 40.15625 14.808594 L 41.367188 14.808594 L 41.367188 18.8125 C 41.367188 19.691406 41.5625 20.726562 42.597656 20.726562 C 43.59375 20.726562 44.296875 20.375 44.746094 20.140625 L 44.53125 19.261719 C 44.003906 19.730469 43.457031 19.789062 43.183594 19.789062 C 42.519531 19.789062 42.441406 19.085938 42.441406 18.558594 Z M 42.441406 14.808594 "/>
<path style=" stroke:none;fill-rule:nonzero;fill:rgb(0%,0%,0%);fill-opacity:1;" d="M 51.460938 16.078125 C 51.460938 15.160156 51.265625 13.792969 49.46875 13.792969 C 48.433594 13.792969 47.75 14.378906 47.398438 14.808594 L 47.398438 10.199219 L 46.285156 10.199219 L 46.285156 20.570312 L 47.417969 20.570312 L 47.417969 16.859375 C 47.417969 15.921875 47.769531 14.691406 48.902344 14.691406 C 50.289062 14.691406 50.328125 15.648438 50.328125 16.175781 L 50.328125 20.570312 L 51.460938 20.570312 Z M 51.460938 16.078125 "/>
<path style=" stroke:none;fill-rule:nonzero;fill:rgb(0%,0%,0%);fill-opacity:1;" d="M 58.472656 16.195312 C 58.472656 14.75 57.4375 13.714844 56.050781 13.714844 C 55.152344 13.714844 54.488281 13.929688 53.746094 14.339844 L 53.84375 15.316406 C 54.507812 14.847656 55.191406 14.574219 56.050781 14.574219 C 56.734375 14.574219 57.339844 15.140625 57.339844 16.214844 L 57.339844 16.839844 C 56.675781 16.859375 55.777344 16.917969 54.878906 17.210938 C 53.863281 17.542969 53.296875 18.109375 53.296875 18.851562 C 53.296875 19.515625 53.6875 20.726562 54.957031 20.726562 C 55.777344 20.726562 56.8125 20.472656 57.378906 20.023438 L 57.378906 20.570312 L 58.472656 20.570312 Z M 57.339844 18.558594 C 57.339844 18.871094 57.339844 19.222656 56.851562 19.515625 C 56.441406 19.769531 55.933594 19.828125 55.71875 19.828125 C 54.898438 19.828125 54.351562 19.398438 54.351562 18.832031 C 54.351562 17.816406 56.421875 17.601562 57.339844 17.601562 Z M 57.339844 18.558594 "/>
<path style=" stroke:none;fill-rule:nonzero;fill:rgb(0%,0%,0%);fill-opacity:1;" d="M 62.242188 14.808594 L 64.292969 14.808594 L 64.292969 13.929688 L 62.242188 13.929688 L 62.242188 12.035156 L 61.207031 12.035156 L 61.207031 13.929688 L 59.957031 13.929688 L 59.957031 14.808594 L 61.167969 14.808594 L 61.167969 18.8125 C 61.167969 19.691406 61.363281 20.726562 62.398438 20.726562 C 63.394531 20.726562 64.097656 20.375 64.546875 20.140625 L 64.332031 19.261719 C 63.804688 19.730469 63.257812 19.789062 62.984375 19.789062 C 62.320312 19.789062 62.242188 19.085938 62.242188 18.558594 Z M 62.242188 14.808594 "/>
<path style=" stroke:none;fill-rule:nonzero;fill:rgb(0%,0%,0%);fill-opacity:1;" d="M 73.84375 32.691406 C 74.3125 32.671875 74.566406 32.339844 74.566406 31.96875 C 74.566406 31.480469 74.195312 31.226562 73.84375 31.226562 C 73.492188 31.226562 73.121094 31.460938 73.121094 31.988281 C 73.121094 32.75 73.863281 33.375 74.78125 33.375 C 77.046875 33.375 77.90625 29.878906 78.960938 25.542969 C 80.113281 20.816406 81.089844 16.050781 81.890625 11.265625 C 82.4375 8.082031 83.003906 5.09375 83.511719 3.160156 C 83.6875 2.4375 84.195312 0.503906 84.78125 0.503906 C 85.230469 0.503906 85.601562 0.777344 85.660156 0.835938 C 85.171875 0.875 84.917969 1.207031 84.917969 1.578125 C 84.917969 2.066406 85.289062 2.300781 85.640625 2.300781 C 85.992188 2.300781 86.363281 2.085938 86.363281 1.558594 C 86.363281 0.757812 85.5625 0.171875 84.742188 0.171875 C 83.609375 0.171875 82.769531 1.792969 81.949219 4.839844 C 81.910156 5.015625 79.878906 12.515625 78.21875 22.28125 C 77.847656 24.566406 77.398438 27.066406 76.910156 29.136719 C 76.636719 30.230469 75.953125 33.042969 74.742188 33.042969 C 74.214844 33.042969 73.84375 32.691406 73.84375 32.691406 Z M 73.84375 32.691406 "/>
<path style=" stroke:none;fill-rule:nonzero;fill:rgb(0%,0%,0%);fill-opacity:1;" d="M 98.703125 0.371094 C 98.722656 0.3125 98.742188 0.234375 98.742188 0.15625 C 98.742188 0 98.585938 0 98.566406 0 C 98.546875 0 97.824219 0.0585938 97.746094 0.078125 C 97.492188 0.0976562 97.257812 0.117188 97.003906 0.136719 C 96.613281 0.175781 96.515625 0.175781 96.515625 0.449219 C 96.515625 0.605469 96.632812 0.605469 96.847656 0.605469 C 97.570312 0.605469 97.589844 0.742188 97.589844 0.878906 C 97.589844 0.976562 97.570312 1.09375 97.550781 1.132812 L 96.632812 4.765625 C 96.476562 4.375 96.066406 3.789062 95.285156 3.789062 C 93.605469 3.789062 91.789062 5.957031 91.789062 8.183594 C 91.789062 9.648438 92.648438 10.527344 93.664062 10.527344 C 94.484375 10.527344 95.1875 9.882812 95.597656 9.394531 C 95.753906 10.273438 96.457031 10.527344 96.90625 10.527344 C 97.355469 10.527344 97.707031 10.253906 97.980469 9.707031 C 98.214844 9.199219 98.429688 8.300781 98.429688 8.242188 C 98.429688 8.164062 98.371094 8.105469 98.273438 8.105469 C 98.136719 8.105469 98.136719 8.183594 98.078125 8.398438 C 97.84375 9.277344 97.570312 10.214844 96.945312 10.214844 C 96.515625 10.214844 96.496094 9.824219 96.496094 9.53125 C 96.496094 9.472656 96.496094 9.160156 96.59375 8.75 Z M 95.675781 8.59375 C 95.597656 8.847656 95.597656 8.886719 95.402344 9.160156 C 95.070312 9.570312 94.40625 10.214844 93.703125 10.214844 C 93.097656 10.214844 92.746094 9.667969 92.746094 8.789062 C 92.746094 7.96875 93.214844 6.289062 93.507812 5.664062 C 94.015625 4.609375 94.71875 4.082031 95.285156 4.082031 C 96.28125 4.082031 96.476562 5.3125 96.476562 5.429688 C 96.476562 5.449219 96.4375 5.625 96.417969 5.664062 Z M 95.675781 8.59375 "/>
<path style=" stroke:none;fill-rule:nonzero;fill:rgb(0%,0%,0%);fill-opacity:1;" d="M 100.726562 9.160156 C 101.371094 8.4375 101.898438 7.96875 102.640625 7.285156 C 103.539062 6.523438 103.929688 6.152344 104.144531 5.917969 C 105.179688 4.882812 105.707031 4.023438 105.707031 3.90625 C 105.707031 3.789062 105.589844 3.789062 105.550781 3.789062 C 105.453125 3.789062 105.414062 3.847656 105.355469 3.945312 C 104.964844 4.589844 104.613281 4.902344 104.222656 4.902344 C 103.910156 4.902344 103.753906 4.765625 103.460938 4.414062 C 103.148438 4.042969 102.894531 3.789062 102.464844 3.789062 C 101.371094 3.789062 100.707031 5.136719 100.707031 5.449219 C 100.707031 5.507812 100.726562 5.585938 100.863281 5.585938 C 100.980469 5.585938 101 5.527344 101.039062 5.429688 C 101.292969 4.824219 102.015625 4.726562 102.289062 4.726562 C 102.621094 4.726562 102.914062 4.824219 103.226562 4.960938 C 103.792969 5.195312 104.027344 5.195312 104.183594 5.195312 C 104.28125 5.195312 104.339844 5.195312 104.417969 5.195312 C 103.929688 5.761719 103.128906 6.484375 102.445312 7.089844 L 100.941406 8.496094 C 100.023438 9.414062 99.476562 10.292969 99.476562 10.410156 C 99.476562 10.488281 99.554688 10.527344 99.632812 10.527344 C 99.730469 10.527344 99.75 10.507812 99.847656 10.332031 C 100.082031 9.960938 100.570312 9.394531 101.117188 9.394531 C 101.429688 9.394531 101.585938 9.511719 101.878906 9.882812 C 102.171875 10.214844 102.425781 10.527344 102.894531 10.527344 C 104.359375 10.527344 105.199219 8.613281 105.199219 8.28125 C 105.199219 8.222656 105.179688 8.125 105.023438 8.125 C 104.90625 8.125 104.90625 8.183594 104.847656 8.339844 C 104.515625 9.21875 103.636719 9.570312 103.050781 9.570312 C 102.738281 9.570312 102.445312 9.472656 102.132812 9.335938 C 101.527344 9.101562 101.371094 9.101562 101.175781 9.101562 C 101.019531 9.101562 100.863281 9.101562 100.726562 9.160156 Z M 100.726562 9.160156 "/>
<path style=" stroke:none;fill-rule:nonzero;fill:rgb(0%,0%,0%);fill-opacity:1;" d="M 91.167969 16.539062 L 106.320312 16.539062 L 106.320312 17.136719 L 91.167969 17.136719 Z M 91.167969 16.539062 "/>
<path style=" stroke:none;fill-rule:nonzero;fill:rgb(0%,0%,0%);fill-opacity:1;" d="M 96.976562 29.558594 C 97.621094 28.835938 98.148438 28.367188 98.890625 27.683594 C 99.789062 26.921875 100.179688 26.550781 100.394531 26.316406 C 101.429688 25.28125 101.957031 24.421875 101.957031 24.304688 C 101.957031 24.1875 101.839844 24.1875 101.800781 24.1875 C 101.703125 24.1875 101.664062 24.246094 101.605469 24.34375 C 101.214844 24.988281 100.863281 25.300781 100.472656 25.300781 C 100.160156 25.300781 100.003906 25.164062 99.710938 24.8125 C 99.398438 24.441406 99.144531 24.1875 98.714844 24.1875 C 97.621094 24.1875 96.957031 25.535156 96.957031 25.847656 C 96.957031 25.90625 96.976562 25.984375 97.113281 25.984375 C 97.230469 25.984375 97.25 25.925781 97.289062 25.828125 C 97.542969 25.222656 98.265625 25.125 98.539062 25.125 C 98.871094 25.125 99.164062 25.222656 99.476562 25.359375 C 100.042969 25.59375 100.277344 25.59375 100.433594 25.59375 C 100.53125 25.59375 100.589844 25.59375 100.667969 25.59375 C 100.179688 26.160156 99.378906 26.882812 98.695312 27.488281 L 97.191406 28.894531 C 96.273438 29.8125 95.726562 30.691406 95.726562 30.808594 C 95.726562 30.886719 95.804688 30.925781 95.882812 30.925781 C 95.980469 30.925781 96 30.90625 96.097656 30.730469 C 96.332031 30.359375 96.820312 29.792969 97.367188 29.792969 C 97.679688 29.792969 97.835938 29.910156 98.128906 30.28125 C 98.421875 30.613281 98.675781 30.925781 99.144531 30.925781 C 100.609375 30.925781 101.449219 29.011719 101.449219 28.679688 C 101.449219 28.621094 101.429688 28.523438 101.273438 28.523438 C 101.15625 28.523438 101.15625 28.582031 101.097656 28.738281 C 100.765625 29.617188 99.886719 29.96875 99.300781 29.96875 C 98.988281 29.96875 98.695312 29.871094 98.382812 29.734375 C 97.777344 29.5 97.621094 29.5 97.425781 29.5 C 97.269531 29.5 97.113281 29.5 96.976562 29.558594 Z M 96.976562 29.558594 "/>
<path style=" stroke:none;fill-rule:nonzero;fill:rgb(0%,0%,0%);fill-opacity:1;" d="M 121.960938 15.726562 C 122.175781 15.726562 122.449219 15.726562 122.449219 15.453125 C 122.449219 15.179688 122.195312 15.179688 121.960938 15.179688 L 113.171875 15.179688 C 112.957031 15.179688 112.683594 15.179688 112.683594 15.453125 C 112.683594 15.726562 112.9375 15.726562 113.171875 15.726562 Z M 121.960938 18.5 C 122.175781 18.5 122.449219 18.5 122.449219 18.246094 C 122.449219 17.953125 122.195312 17.953125 121.960938 17.953125 L 113.171875 17.953125 C 112.957031 17.953125 112.683594 17.953125 112.683594 18.226562 C 112.683594 18.5 112.9375 18.5 113.171875 18.5 Z M 121.960938 18.5 "/>
<path style=" stroke:none;fill-rule:nonzero;fill:rgb(0%,0%,0%);fill-opacity:1;" d="M 130.0625 10.199219 L 127.972656 10.375 L 127.972656 10.804688 C 128.988281 10.804688 129.105469 10.902344 129.105469 11.644531 L 129.105469 19.457031 C 129.105469 20.140625 128.949219 20.140625 127.972656 20.140625 L 127.972656 20.570312 C 128.402344 20.53125 129.125 20.53125 129.574219 20.53125 C 130.023438 20.53125 130.765625 20.53125 131.195312 20.570312 L 131.195312 20.140625 C 130.238281 20.140625 130.0625 20.140625 130.0625 19.457031 Z M 130.0625 10.199219 "/>
<path style=" stroke:none;fill-rule:nonzero;fill:rgb(0%,0%,0%);fill-opacity:1;" d="M 138.386719 17.367188 C 138.386719 15.453125 136.921875 13.910156 135.183594 13.910156 C 133.40625 13.910156 131.980469 15.492188 131.980469 17.367188 C 131.980469 19.28125 133.464844 20.726562 135.183594 20.726562 C 136.941406 20.726562 138.386719 19.261719 138.386719 17.367188 Z M 135.183594 20.394531 C 134.636719 20.394531 133.972656 20.160156 133.542969 19.417969 C 133.132812 18.753906 133.113281 17.875 133.113281 17.230469 C 133.113281 16.664062 133.113281 15.765625 133.582031 15.082031 C 133.992188 14.4375 134.65625 14.203125 135.183594 14.203125 C 135.75 14.203125 136.394531 14.476562 136.785156 15.0625 C 137.253906 15.746094 137.253906 16.683594 137.253906 17.230469 C 137.253906 17.757812 137.253906 18.695312 136.863281 19.398438 C 136.453125 20.101562 135.75 20.394531 135.183594 20.394531 Z M 135.183594 20.394531 "/>
<path style=" stroke:none;fill-rule:nonzero;fill:rgb(0%,0%,0%);fill-opacity:1;" d="M 140.660156 17.875 C 141.363281 18.324219 141.96875 18.324219 142.125 18.324219 C 143.472656 18.324219 144.46875 17.308594 144.46875 16.15625 C 144.46875 15.765625 144.351562 15.199219 143.882812 14.710938 C 144.449219 14.125 145.152344 14.125 145.230469 14.125 C 145.289062 14.125 145.367188 14.125 145.425781 14.144531 C 145.269531 14.203125 145.210938 14.359375 145.210938 14.515625 C 145.210938 14.730469 145.347656 14.90625 145.582031 14.90625 C 145.71875 14.90625 145.972656 14.828125 145.972656 14.496094 C 145.972656 14.242188 145.777344 13.8125 145.25 13.8125 C 144.46875 13.8125 143.882812 14.300781 143.6875 14.515625 C 143.238281 14.183594 142.710938 13.988281 142.144531 13.988281 C 140.796875 13.988281 139.800781 15.003906 139.800781 16.15625 C 139.800781 16.996094 140.308594 17.542969 140.464844 17.679688 C 140.289062 17.914062 140.015625 18.34375 140.015625 18.929688 C 140.015625 19.789062 140.542969 20.160156 140.660156 20.238281 C 139.976562 20.433594 139.292969 20.980469 139.292969 21.742188 C 139.292969 22.777344 140.699219 23.636719 142.535156 23.636719 C 144.3125 23.636719 145.777344 22.835938 145.777344 21.722656 C 145.777344 21.351562 145.679688 20.472656 144.78125 20.003906 C 144.019531 19.613281 143.277344 19.613281 141.988281 19.613281 C 141.070312 19.613281 140.972656 19.613281 140.699219 19.339844 C 140.5625 19.183594 140.425781 18.890625 140.425781 18.578125 C 140.425781 18.324219 140.503906 18.070312 140.660156 17.875 Z M 142.144531 18.011719 C 140.816406 18.011719 140.816406 16.507812 140.816406 16.15625 C 140.816406 15.902344 140.816406 15.277344 141.070312 14.886719 C 141.363281 14.4375 141.8125 14.300781 142.125 14.300781 C 143.433594 14.300781 143.433594 15.804688 143.433594 16.15625 C 143.433594 16.410156 143.433594 17.035156 143.179688 17.425781 C 142.90625 17.875 142.457031 18.011719 142.144531 18.011719 Z M 142.535156 23.324219 C 141.109375 23.324219 140.015625 22.582031 140.015625 21.742188 C 140.015625 21.625 140.054688 21.039062 140.621094 20.648438 C 140.953125 20.433594 141.070312 20.433594 142.125 20.433594 C 143.355469 20.433594 145.054688 20.433594 145.054688 21.742188 C 145.054688 22.621094 143.921875 23.324219 142.535156 23.324219 Z M 142.535156 23.324219 "/>
<path style=" stroke:none;fill-rule:nonzero;fill:rgb(0%,0%,0%);fill-opacity:1;" d="M 151.316406 9.90625 C 151.316406 9.632812 151.316406 9.359375 151.003906 9.359375 C 150.710938 9.359375 150.710938 9.632812 150.710938 9.90625 L 150.710938 23.773438 C 150.710938 24.027344 150.710938 24.300781 151.003906 24.300781 C 151.316406 24.300781 151.316406 24.027344 151.316406 23.773438 Z M 151.316406 9.90625 "/>
<path style=" stroke:none;fill-rule:nonzero;fill:rgb(0%,0%,0%);fill-opacity:1;" d="M 155.027344 19.359375 C 155.671875 18.636719 156.199219 18.167969 156.941406 17.484375 C 157.839844 16.722656 158.230469 16.351562 158.445312 16.117188 C 159.480469 15.082031 160.007812 14.222656 160.007812 14.105469 C 160.007812 13.988281 159.890625 13.988281 159.851562 13.988281 C 159.753906 13.988281 159.714844 14.046875 159.65625 14.144531 C 159.265625 14.789062 158.914062 15.101562 158.523438 15.101562 C 158.210938 15.101562 158.054688 14.964844 157.761719 14.613281 C 157.449219 14.242188 157.195312 13.988281 156.765625 13.988281 C 155.671875 13.988281 155.007812 15.335938 155.007812 15.648438 C 155.007812 15.707031 155.027344 15.785156 155.164062 15.785156 C 155.28125 15.785156 155.300781 15.726562 155.339844 15.628906 C 155.59375 15.023438 156.316406 14.925781 156.589844 14.925781 C 156.921875 14.925781 157.214844 15.023438 157.527344 15.160156 C 158.09375 15.394531 158.328125 15.394531 158.484375 15.394531 C 158.582031 15.394531 158.640625 15.394531 158.71875 15.394531 C 158.230469 15.960938 157.429688 16.683594 156.746094 17.289062 L 155.242188 18.695312 C 154.324219 19.613281 153.777344 20.492188 153.777344 20.609375 C 153.777344 20.6875 153.855469 20.726562 153.933594 20.726562 C 154.03125 20.726562 154.050781 20.707031 154.148438 20.53125 C 154.382812 20.160156 154.871094 19.59375 155.417969 19.59375 C 155.730469 19.59375 155.886719 19.710938 156.179688 20.082031 C 156.472656 20.414062 156.726562 20.726562 157.195312 20.726562 C 158.660156 20.726562 159.5 18.8125 159.5 18.480469 C 159.5 18.421875 159.480469 18.324219 159.324219 18.324219 C 159.207031 18.324219 159.207031 18.382812 159.148438 18.539062 C 158.816406 19.417969 157.9375 19.769531 157.351562 19.769531 C 157.039062 19.769531 156.746094 19.671875 156.433594 19.535156 C 155.828125 19.300781 155.671875 19.300781 155.476562 19.300781 C 155.320312 19.300781 155.164062 19.300781 155.027344 19.359375 Z M 155.027344 19.359375 "/>
<path style=" stroke:none;fill-rule:nonzero;fill:rgb(0%,0%,0%);fill-opacity:1;" d="M 162.867188 9.90625 C 162.867188 9.632812 162.867188 9.359375 162.554688 9.359375 C 162.261719 9.359375 162.261719 9.632812 162.261719 9.90625 L 162.261719 23.773438 C 162.261719 24.027344 162.261719 24.300781 162.554688 24.300781 C 162.867188 24.300781 162.867188 24.027344 162.867188 23.773438 Z M 162.867188 9.90625 "/>
<path style=" stroke:none;fill-rule:nonzero;fill:rgb(0%,0%,0%);fill-opacity:1;" d="M 173.941406 17.113281 L 178.0625 17.113281 C 178.277344 17.113281 178.550781 17.113281 178.550781 16.859375 C 178.550781 16.566406 178.296875 16.566406 178.0625 16.566406 L 173.941406 16.566406 L 173.941406 12.445312 C 173.941406 12.230469 173.941406 11.957031 173.667969 11.957031 C 173.394531 11.957031 173.394531 12.210938 173.394531 12.445312 L 173.394531 16.566406 L 169.273438 16.566406 C 169.058594 16.566406 168.785156 16.566406 168.785156 16.839844 C 168.785156 17.113281 169.039062 17.113281 169.273438 17.113281 L 173.394531 17.113281 L 173.394531 21.234375 C 173.394531 21.449219 173.394531 21.722656 173.667969 21.722656 C 173.941406 21.722656 173.941406 21.46875 173.941406 21.234375 Z M 173.941406 17.113281 "/>
<path style=" stroke:none;fill-rule:nonzero;fill:rgb(0%,0%,0%);fill-opacity:1;" d="M 193.835938 10.179688 C 193.835938 10.042969 193.738281 10.042969 193.71875 10.042969 C 193.679688 10.042969 193.621094 10.042969 193.503906 10.199219 L 192.46875 11.449219 C 191.941406 10.550781 191.121094 10.042969 190.007812 10.042969 C 186.785156 10.042969 183.425781 13.324219 183.425781 16.839844 C 183.425781 19.339844 185.183594 20.882812 187.351562 20.882812 C 188.5625 20.882812 189.597656 20.375 190.476562 19.652344 C 191.765625 18.558594 192.15625 17.113281 192.15625 16.976562 C 192.15625 16.859375 192.039062 16.859375 192 16.859375 C 191.863281 16.859375 191.84375 16.9375 191.804688 16.996094 C 191.121094 19.339844 189.109375 20.453125 187.605469 20.453125 C 186.023438 20.453125 184.65625 19.4375 184.65625 17.308594 C 184.65625 16.839844 184.8125 14.242188 186.492188 12.269531 C 187.3125 11.3125 188.71875 10.492188 190.144531 10.492188 C 191.785156 10.492188 192.507812 11.839844 192.507812 13.363281 C 192.507812 13.753906 192.46875 14.085938 192.46875 14.144531 C 192.46875 14.28125 192.625 14.28125 192.664062 14.28125 C 192.820312 14.28125 192.839844 14.261719 192.898438 13.988281 Z M 193.835938 10.179688 "/>
<path style=" stroke:none;fill-rule:nonzero;fill:rgb(0%,0%,0%);fill-opacity:1;" d="M 91.84375 52.6875 C 91.84375 52.238281 91.492188 51.886719 91.0625 51.886719 C 90.632812 51.886719 90.261719 52.238281 90.261719 52.6875 C 90.261719 53.117188 90.632812 53.46875 91.0625 53.46875 C 91.472656 53.46875 91.84375 53.136719 91.84375 52.6875 Z M 95.59375 59.152344 C 95.59375 58.722656 95.222656 58.351562 94.792969 58.351562 C 94.363281 58.351562 93.992188 58.722656 93.992188 59.152344 C 93.992188 59.582031 94.363281 59.933594 94.792969 59.933594 C 95.222656 59.933594 95.59375 59.582031 95.59375 59.152344 Z M 88.113281 59.152344 C 88.113281 58.722656 87.761719 58.351562 87.3125 58.351562 C 86.882812 58.351562 86.53125 58.722656 86.53125 59.152344 C 86.53125 59.582031 86.882812 59.933594 87.3125 59.933594 C 87.761719 59.933594 88.113281 59.582031 88.113281 59.152344 Z M 88.113281 59.152344 "/>
<path style=" stroke:none;fill-rule:nonzero;fill:rgb(0%,0%,0%);fill-opacity:1;" d="M 105.691406 49.71875 C 105.808594 49.191406 105.847656 49.054688 106.941406 49.054688 C 107.273438 49.054688 107.390625 49.054688 107.390625 48.761719 C 107.390625 48.625 107.214844 48.625 107.175781 48.625 C 106.902344 48.625 106.570312 48.644531 106.316406 48.644531 L 104.480469 48.644531 C 104.167969 48.644531 103.835938 48.625 103.523438 48.625 C 103.40625 48.625 103.25 48.625 103.25 48.898438 C 103.25 49.054688 103.367188 49.054688 103.660156 49.054688 C 104.597656 49.054688 104.597656 49.171875 104.597656 49.328125 C 104.597656 49.445312 104.558594 49.523438 104.539062 49.660156 L 102.507812 57.707031 C 102.371094 58.234375 102.351562 58.390625 101.257812 58.390625 C 100.925781 58.390625 100.789062 58.390625 100.789062 58.664062 C 100.789062 58.820312 100.945312 58.820312 101.023438 58.820312 C 101.296875 58.820312 101.609375 58.78125 101.882812 58.78125 L 103.71875 58.78125 C 104.03125 58.78125 104.34375 58.820312 104.65625 58.820312 C 104.773438 58.820312 104.949219 58.820312 104.949219 58.546875 C 104.949219 58.390625 104.851562 58.390625 104.539062 58.390625 C 103.601562 58.390625 103.601562 58.273438 103.601562 58.097656 C 103.601562 58.058594 103.601562 57.980469 103.660156 57.746094 Z M 105.691406 49.71875 "/>
<path style=" stroke:none;fill-rule:nonzero;fill:rgb(0%,0%,0%);fill-opacity:1;" d="M 121.960938 53.976562 C 122.175781 53.976562 122.449219 53.976562 122.449219 53.703125 C 122.449219 53.429688 122.195312 53.429688 121.960938 53.429688 L 113.171875 53.429688 C 112.957031 53.429688 112.683594 53.429688 112.683594 53.703125 C 112.683594 53.976562 112.9375 53.976562 113.171875 53.976562 Z M 121.960938 56.75 C 122.175781 56.75 122.449219 56.75 122.449219 56.496094 C 122.449219 56.203125 122.195312 56.203125 121.960938 56.203125 L 113.171875 56.203125 C 112.957031 56.203125 112.683594 56.203125 112.683594 56.476562 C 112.683594 56.75 112.9375 56.75 113.171875 56.75 Z M 121.960938 56.75 "/>
<path style=" stroke:none;fill-rule:nonzero;fill:rgb(0%,0%,0%);fill-opacity:1;" d="M 133.28125 39.199219 C 133.28125 38.847656 133.28125 38.828125 132.988281 38.828125 C 132.636719 39.238281 131.875 39.785156 130.351562 39.785156 L 130.351562 40.214844 C 130.683594 40.214844 131.425781 40.214844 132.265625 39.84375 L 132.265625 47.617188 C 132.265625 48.164062 132.207031 48.339844 130.898438 48.339844 L 130.429688 48.339844 L 130.429688 48.769531 C 130.839844 48.730469 132.285156 48.730469 132.773438 48.730469 C 133.28125 48.730469 134.707031 48.730469 135.117188 48.769531 L 135.117188 48.339844 L 134.648438 48.339844 C 133.339844 48.339844 133.28125 48.164062 133.28125 47.617188 Z M 133.28125 39.199219 "/>
<path style=" stroke:none;fill-rule:nonzero;fill:rgb(0%,0%,0%);fill-opacity:1;" d="M 128.96875 54.785156 L 136.320312 54.785156 L 136.320312 55.386719 L 128.96875 55.386719 Z M 128.96875 54.785156 "/>
<path style=" stroke:none;fill-rule:nonzero;fill:rgb(0%,0%,0%);fill-opacity:1;" d="M 131.738281 63.800781 C 131.484375 63.820312 131.425781 63.839844 131.425781 63.976562 C 131.425781 64.113281 131.503906 64.113281 131.757812 64.113281 L 132.441406 64.113281 C 133.730469 64.113281 134.296875 65.167969 134.296875 66.59375 C 134.296875 68.566406 133.28125 69.074219 132.539062 69.074219 C 131.816406 69.074219 130.605469 68.742188 130.15625 67.746094 C 130.644531 67.824219 131.074219 67.550781 131.074219 67.023438 C 131.074219 66.59375 130.761719 66.28125 130.351562 66.28125 C 129.980469 66.28125 129.589844 66.496094 129.589844 67.0625 C 129.589844 68.390625 130.917969 69.484375 132.578125 69.484375 C 134.355469 69.484375 135.683594 68.117188 135.683594 66.613281 C 135.683594 65.246094 134.570312 64.171875 133.144531 63.917969 C 134.433594 63.546875 135.273438 62.453125 135.273438 61.28125 C 135.273438 60.109375 134.042969 59.230469 132.597656 59.230469 C 131.113281 59.230469 130 60.148438 130 61.242188 C 130 61.828125 130.46875 61.964844 130.683594 61.964844 C 130.996094 61.964844 131.367188 61.730469 131.367188 61.28125 C 131.367188 60.8125 130.996094 60.597656 130.664062 60.597656 C 130.585938 60.597656 130.546875 60.597656 130.507812 60.617188 C 131.074219 59.601562 132.480469 59.601562 132.558594 59.601562 C 133.046875 59.601562 134.023438 59.816406 134.023438 61.28125 C 134.023438 61.574219 133.984375 62.394531 133.535156 63.039062 C 133.085938 63.703125 132.578125 63.742188 132.1875 63.761719 Z M 131.738281 63.800781 "/>
<path style=" stroke:none;fill-rule:nonzero;fill:rgb(0%,0%,0%);fill-opacity:1;" d="M 141.796875 71.089844 C 142.265625 71.070312 142.519531 70.738281 142.519531 70.367188 C 142.519531 69.878906 142.148438 69.625 141.796875 69.625 C 141.445312 69.625 141.074219 69.859375 141.074219 70.386719 C 141.074219 71.148438 141.816406 71.773438 142.734375 71.773438 C 145 71.773438 145.859375 68.277344 146.914062 63.941406 C 148.066406 59.214844 149.042969 54.449219 149.84375 49.664062 C 150.390625 46.480469 150.957031 43.492188 151.464844 41.558594 C 151.640625 40.835938 152.148438 38.902344 152.734375 38.902344 C 153.183594 38.902344 153.554688 39.175781 153.613281 39.234375 C 153.125 39.273438 152.871094 39.605469 152.871094 39.976562 C 152.871094 40.464844 153.242188 40.699219 153.59375 40.699219 C 153.945312 40.699219 154.316406 40.484375 154.316406 39.957031 C 154.316406 39.15625 153.515625 38.570312 152.695312 38.570312 C 151.5625 38.570312 150.722656 40.191406 149.902344 43.238281 C 149.863281 43.414062 147.832031 50.914062 146.171875 60.679688 C 145.800781 62.964844 145.351562 65.464844 144.863281 67.535156 C 144.589844 68.628906 143.90625 71.441406 142.695312 71.441406 C 142.167969 71.441406 141.796875 71.089844 141.796875 71.089844 Z M 141.796875 71.089844 "/>
<path style=" stroke:none;fill-rule:nonzero;fill:rgb(0%,0%,0%);fill-opacity:1;" d="M 166.652344 38.769531 C 166.671875 38.710938 166.691406 38.632812 166.691406 38.554688 C 166.691406 38.398438 166.535156 38.398438 166.515625 38.398438 C 166.496094 38.398438 165.773438 38.457031 165.695312 38.476562 C 165.441406 38.496094 165.207031 38.515625 164.953125 38.535156 C 164.5625 38.574219 164.464844 38.574219 164.464844 38.847656 C 164.464844 39.003906 164.582031 39.003906 164.796875 39.003906 C 165.519531 39.003906 165.539062 39.140625 165.539062 39.277344 C 165.539062 39.375 165.519531 39.492188 165.5 39.53125 L 164.582031 43.164062 C 164.425781 42.773438 164.015625 42.1875 163.234375 42.1875 C 161.554688 42.1875 159.738281 44.355469 159.738281 46.582031 C 159.738281 48.046875 160.597656 48.925781 161.613281 48.925781 C 162.433594 48.925781 163.136719 48.28125 163.546875 47.792969 C 163.703125 48.671875 164.40625 48.925781 164.855469 48.925781 C 165.304688 48.925781 165.65625 48.652344 165.929688 48.105469 C 166.164062 47.597656 166.378906 46.699219 166.378906 46.640625 C 166.378906 46.5625 166.320312 46.503906 166.222656 46.503906 C 166.085938 46.503906 166.085938 46.582031 166.027344 46.796875 C 165.792969 47.675781 165.519531 48.613281 164.894531 48.613281 C 164.464844 48.613281 164.445312 48.222656 164.445312 47.929688 C 164.445312 47.871094 164.445312 47.558594 164.542969 47.148438 Z M 163.625 46.992188 C 163.546875 47.246094 163.546875 47.285156 163.351562 47.558594 C 163.019531 47.96875 162.355469 48.613281 161.652344 48.613281 C 161.046875 48.613281 160.695312 48.066406 160.695312 47.1875 C 160.695312 46.367188 161.164062 44.6875 161.457031 44.0625 C 161.964844 43.007812 162.667969 42.480469 163.234375 42.480469 C 164.230469 42.480469 164.425781 43.710938 164.425781 43.828125 C 164.425781 43.847656 164.386719 44.023438 164.367188 44.0625 Z M 163.625 46.992188 "/>
<path style=" stroke:none;fill-rule:nonzero;fill:rgb(0%,0%,0%);fill-opacity:1;" d="M 168.675781 47.558594 C 169.320312 46.835938 169.847656 46.367188 170.589844 45.683594 C 171.488281 44.921875 171.878906 44.550781 172.09375 44.316406 C 173.128906 43.28125 173.65625 42.421875 173.65625 42.304688 C 173.65625 42.1875 173.539062 42.1875 173.5 42.1875 C 173.402344 42.1875 173.363281 42.246094 173.304688 42.34375 C 172.914062 42.988281 172.5625 43.300781 172.171875 43.300781 C 171.859375 43.300781 171.703125 43.164062 171.410156 42.8125 C 171.097656 42.441406 170.84375 42.1875 170.414062 42.1875 C 169.320312 42.1875 168.65625 43.535156 168.65625 43.847656 C 168.65625 43.90625 168.675781 43.984375 168.8125 43.984375 C 168.929688 43.984375 168.949219 43.925781 168.988281 43.828125 C 169.242188 43.222656 169.964844 43.125 170.238281 43.125 C 170.570312 43.125 170.863281 43.222656 171.175781 43.359375 C 171.742188 43.59375 171.976562 43.59375 172.132812 43.59375 C 172.230469 43.59375 172.289062 43.59375 172.367188 43.59375 C 171.878906 44.160156 171.078125 44.882812 170.394531 45.488281 L 168.890625 46.894531 C 167.972656 47.8125 167.425781 48.691406 167.425781 48.808594 C 167.425781 48.886719 167.503906 48.925781 167.582031 48.925781 C 167.679688 48.925781 167.699219 48.90625 167.796875 48.730469 C 168.03125 48.359375 168.519531 47.792969 169.066406 47.792969 C 169.378906 47.792969 169.535156 47.910156 169.828125 48.28125 C 170.121094 48.613281 170.375 48.925781 170.84375 48.925781 C 172.308594 48.925781 173.148438 47.011719 173.148438 46.679688 C 173.148438 46.621094 173.128906 46.523438 172.972656 46.523438 C 172.855469 46.523438 172.855469 46.582031 172.796875 46.738281 C 172.464844 47.617188 171.585938 47.96875 171 47.96875 C 170.6875 47.96875 170.394531 47.871094 170.082031 47.734375 C 169.476562 47.5 169.320312 47.5 169.125 47.5 C 168.96875 47.5 168.8125 47.5 168.675781 47.558594 Z M 168.675781 47.558594 "/>
<path style=" stroke:none;fill-rule:nonzero;fill:rgb(0%,0%,0%);fill-opacity:1;" d="M 159.117188 54.785156 L 174.269531 54.785156 L 174.269531 55.386719 L 159.117188 55.386719 Z M 159.117188 54.785156 "/>
<path style=" stroke:none;fill-rule:nonzero;fill:rgb(0%,0%,0%);fill-opacity:1;" d="M 164.925781 67.960938 C 165.570312 67.238281 166.097656 66.769531 166.839844 66.085938 C 167.738281 65.324219 168.128906 64.953125 168.34375 64.71875 C 169.378906 63.683594 169.90625 62.824219 169.90625 62.707031 C 169.90625 62.589844 169.789062 62.589844 169.75 62.589844 C 169.652344 62.589844 169.613281 62.648438 169.554688 62.746094 C 169.164062 63.390625 168.8125 63.703125 168.421875 63.703125 C 168.109375 63.703125 167.953125 63.566406 167.660156 63.214844 C 167.347656 62.84375 167.09375 62.589844 166.664062 62.589844 C 165.570312 62.589844 164.90625 63.9375 164.90625 64.25 C 164.90625 64.308594 164.925781 64.386719 165.0625 64.386719 C 165.179688 64.386719 165.199219 64.328125 165.238281 64.230469 C 165.492188 63.625 166.214844 63.527344 166.488281 63.527344 C 166.820312 63.527344 167.113281 63.625 167.425781 63.761719 C 167.992188 63.996094 168.226562 63.996094 168.382812 63.996094 C 168.480469 63.996094 168.539062 63.996094 168.617188 63.996094 C 168.128906 64.5625 167.328125 65.285156 166.644531 65.890625 L 165.140625 67.296875 C 164.222656 68.214844 163.675781 69.09375 163.675781 69.210938 C 163.675781 69.289062 163.753906 69.328125 163.832031 69.328125 C 163.929688 69.328125 163.949219 69.308594 164.046875 69.132812 C 164.28125 68.761719 164.769531 68.195312 165.316406 68.195312 C 165.628906 68.195312 165.785156 68.3125 166.078125 68.683594 C 166.371094 69.015625 166.625 69.328125 167.09375 69.328125 C 168.558594 69.328125 169.398438 67.414062 169.398438 67.082031 C 169.398438 67.023438 169.378906 66.925781 169.222656 66.925781 C 169.105469 66.925781 169.105469 66.984375 169.046875 67.140625 C 168.714844 68.019531 167.835938 68.371094 167.25 68.371094 C 166.9375 68.371094 166.644531 68.273438 166.332031 68.136719 C 165.726562 67.902344 165.570312 67.902344 165.375 67.902344 C 165.21875 67.902344 165.0625 67.902344 164.925781 67.960938 Z M 164.925781 67.960938 "/>
<path style=" stroke:none;fill-rule:nonzero;fill:rgb(0%,0%,0%);fill-opacity:1;" d="M 190.0625 53.976562 C 190.277344 53.976562 190.550781 53.976562 190.550781 53.703125 C 190.550781 53.429688 190.296875 53.429688 190.0625 53.429688 L 181.273438 53.429688 C 181.058594 53.429688 180.785156 53.429688 180.785156 53.703125 C 180.785156 53.976562 181.039062 53.976562 181.273438 53.976562 Z M 190.0625 56.75 C 190.277344 56.75 190.550781 56.75 190.550781 56.496094 C 190.550781 56.203125 190.296875 56.203125 190.0625 56.203125 L 181.273438 56.203125 C 181.058594 56.203125 180.785156 56.203125 180.785156 56.476562 C 180.785156 56.75 181.039062 56.75 181.273438 56.75 Z M 190.0625 56.75 "/>
<path style=" stroke:none;fill-rule:nonzero;fill:rgb(0%,0%,0%);fill-opacity:1;" d="M 201.230469 39.199219 C 201.230469 38.847656 201.230469 38.828125 200.9375 38.828125 C 200.585938 39.238281 199.824219 39.785156 198.300781 39.785156 L 198.300781 40.214844 C 198.632812 40.214844 199.375 40.214844 200.214844 39.84375 L 200.214844 47.617188 C 200.214844 48.164062 200.15625 48.339844 198.847656 48.339844 L 198.378906 48.339844 L 198.378906 48.769531 C 198.789062 48.730469 200.234375 48.730469 200.722656 48.730469 C 201.230469 48.730469 202.65625 48.730469 203.066406 48.769531 L 203.066406 48.339844 L 202.597656 48.339844 C 201.289062 48.339844 201.230469 48.164062 201.230469 47.617188 Z M 201.230469 39.199219 "/>
<path style=" stroke:none;fill-rule:nonzero;fill:rgb(0%,0%,0%);fill-opacity:1;" d="M 196.917969 54.785156 L 204.269531 54.785156 L 204.269531 55.386719 L 196.917969 55.386719 Z M 196.917969 54.785156 "/>
<path style=" stroke:none;fill-rule:nonzero;fill:rgb(0%,0%,0%);fill-opacity:1;" d="M 199.6875 63.800781 C 199.433594 63.820312 199.375 63.839844 199.375 63.976562 C 199.375 64.113281 199.453125 64.113281 199.707031 64.113281 L 200.390625 64.113281 C 201.679688 64.113281 202.246094 65.167969 202.246094 66.59375 C 202.246094 68.566406 201.230469 69.074219 200.488281 69.074219 C 199.765625 69.074219 198.554688 68.742188 198.105469 67.746094 C 198.59375 67.824219 199.023438 67.550781 199.023438 67.023438 C 199.023438 66.59375 198.710938 66.28125 198.300781 66.28125 C 197.929688 66.28125 197.539062 66.496094 197.539062 67.0625 C 197.539062 68.390625 198.867188 69.484375 200.527344 69.484375 C 202.304688 69.484375 203.632812 68.117188 203.632812 66.613281 C 203.632812 65.246094 202.519531 64.171875 201.09375 63.917969 C 202.382812 63.546875 203.222656 62.453125 203.222656 61.28125 C 203.222656 60.109375 201.992188 59.230469 200.546875 59.230469 C 199.0625 59.230469 197.949219 60.148438 197.949219 61.242188 C 197.949219 61.828125 198.417969 61.964844 198.632812 61.964844 C 198.945312 61.964844 199.316406 61.730469 199.316406 61.28125 C 199.316406 60.8125 198.945312 60.597656 198.613281 60.597656 C 198.535156 60.597656 198.496094 60.597656 198.457031 60.617188 C 199.023438 59.601562 200.429688 59.601562 200.507812 59.601562 C 200.996094 59.601562 201.972656 59.816406 201.972656 61.28125 C 201.972656 61.574219 201.933594 62.394531 201.484375 63.039062 C 201.035156 63.703125 200.527344 63.742188 200.136719 63.761719 Z M 199.6875 63.800781 "/>
<path style=" stroke:none;fill-rule:nonzero;fill:rgb(0%,0%,0%);fill-opacity:1;" d="M 210.761719 48.449219 L 208.671875 48.625 L 208.671875 49.054688 C 209.6875 49.054688 209.804688 49.152344 209.804688 49.894531 L 209.804688 57.707031 C 209.804688 58.390625 209.648438 58.390625 208.671875 58.390625 L 208.671875 58.820312 C 209.101562 58.78125 209.824219 58.78125 210.273438 58.78125 C 210.722656 58.78125 211.464844 58.78125 211.894531 58.820312 L 211.894531 58.390625 C 210.9375 58.390625 210.761719 58.390625 210.761719 57.707031 Z M 210.761719 48.449219 "/>
<path style=" stroke:none;fill-rule:nonzero;fill:rgb(0%,0%,0%);fill-opacity:1;" d="M 219.089844 55.617188 C 219.089844 53.703125 217.625 52.160156 215.886719 52.160156 C 214.109375 52.160156 212.683594 53.742188 212.683594 55.617188 C 212.683594 57.53125 214.167969 58.976562 215.886719 58.976562 C 217.644531 58.976562 219.089844 57.511719 219.089844 55.617188 Z M 215.886719 58.644531 C 215.339844 58.644531 214.675781 58.410156 214.246094 57.667969 C 213.835938 57.003906 213.816406 56.125 213.816406 55.480469 C 213.816406 54.914062 213.816406 54.015625 214.285156 53.332031 C 214.695312 52.6875 215.359375 52.453125 215.886719 52.453125 C 216.453125 52.453125 217.097656 52.726562 217.488281 53.3125 C 217.957031 53.996094 217.957031 54.933594 217.957031 55.480469 C 217.957031 56.007812 217.957031 56.945312 217.566406 57.648438 C 217.15625 58.351562 216.453125 58.644531 215.886719 58.644531 Z M 215.886719 58.644531 "/>
<path style=" stroke:none;fill-rule:nonzero;fill:rgb(0%,0%,0%);fill-opacity:1;" d="M 221.359375 56.125 C 222.0625 56.574219 222.667969 56.574219 222.824219 56.574219 C 224.171875 56.574219 225.167969 55.558594 225.167969 54.40625 C 225.167969 54.015625 225.050781 53.449219 224.582031 52.960938 C 225.148438 52.375 225.851562 52.375 225.929688 52.375 C 225.988281 52.375 226.066406 52.375 226.125 52.394531 C 225.96875 52.453125 225.910156 52.609375 225.910156 52.765625 C 225.910156 52.980469 226.046875 53.15625 226.28125 53.15625 C 226.417969 53.15625 226.671875 53.078125 226.671875 52.746094 C 226.671875 52.492188 226.476562 52.0625 225.949219 52.0625 C 225.167969 52.0625 224.582031 52.550781 224.386719 52.765625 C 223.9375 52.433594 223.410156 52.238281 222.84375 52.238281 C 221.496094 52.238281 220.5 53.253906 220.5 54.40625 C 220.5 55.246094 221.007812 55.792969 221.164062 55.929688 C 220.988281 56.164062 220.714844 56.59375 220.714844 57.179688 C 220.714844 58.039062 221.242188 58.410156 221.359375 58.488281 C 220.675781 58.683594 219.992188 59.230469 219.992188 59.992188 C 219.992188 61.027344 221.398438 61.886719 223.234375 61.886719 C 225.011719 61.886719 226.476562 61.085938 226.476562 59.972656 C 226.476562 59.601562 226.378906 58.722656 225.480469 58.253906 C 224.71875 57.863281 223.976562 57.863281 222.6875 57.863281 C 221.769531 57.863281 221.671875 57.863281 221.398438 57.589844 C 221.261719 57.433594 221.125 57.140625 221.125 56.828125 C 221.125 56.574219 221.203125 56.320312 221.359375 56.125 Z M 222.84375 56.261719 C 221.515625 56.261719 221.515625 54.757812 221.515625 54.40625 C 221.515625 54.152344 221.515625 53.527344 221.769531 53.136719 C 222.0625 52.6875 222.511719 52.550781 222.824219 52.550781 C 224.132812 52.550781 224.132812 54.054688 224.132812 54.40625 C 224.132812 54.660156 224.132812 55.285156 223.878906 55.675781 C 223.605469 56.125 223.15625 56.261719 222.84375 56.261719 Z M 223.234375 61.574219 C 221.808594 61.574219 220.714844 60.832031 220.714844 59.992188 C 220.714844 59.875 220.753906 59.289062 221.320312 58.898438 C 221.652344 58.683594 221.769531 58.683594 222.824219 58.683594 C 224.054688 58.683594 225.753906 58.683594 225.753906 59.992188 C 225.753906 60.871094 224.621094 61.574219 223.234375 61.574219 Z M 223.234375 61.574219 "/>
<path style=" stroke:none;fill-rule:nonzero;fill:rgb(0%,0%,0%);fill-opacity:1;" d="M 232.015625 48.15625 C 232.015625 47.882812 232.015625 47.609375 231.703125 47.609375 C 231.410156 47.609375 231.410156 47.882812 231.410156 48.15625 L 231.410156 62.023438 C 231.410156 62.277344 231.410156 62.550781 231.703125 62.550781 C 232.015625 62.550781 232.015625 62.277344 232.015625 62.023438 Z M 232.015625 48.15625 "/>
<path style=" stroke:none;fill-rule:nonzero;fill:rgb(0%,0%,0%);fill-opacity:1;" d="M 235.726562 57.609375 C 236.371094 56.886719 236.898438 56.417969 237.640625 55.734375 C 238.539062 54.972656 238.929688 54.601562 239.144531 54.367188 C 240.179688 53.332031 240.707031 52.472656 240.707031 52.355469 C 240.707031 52.238281 240.589844 52.238281 240.550781 52.238281 C 240.453125 52.238281 240.414062 52.296875 240.355469 52.394531 C 239.964844 53.039062 239.613281 53.351562 239.222656 53.351562 C 238.910156 53.351562 238.753906 53.214844 238.460938 52.863281 C 238.148438 52.492188 237.894531 52.238281 237.464844 52.238281 C 236.371094 52.238281 235.707031 53.585938 235.707031 53.898438 C 235.707031 53.957031 235.726562 54.035156 235.863281 54.035156 C 235.980469 54.035156 236 53.976562 236.039062 53.878906 C 236.292969 53.273438 237.015625 53.175781 237.289062 53.175781 C 237.621094 53.175781 237.914062 53.273438 238.226562 53.410156 C 238.792969 53.644531 239.027344 53.644531 239.183594 53.644531 C 239.28125 53.644531 239.339844 53.644531 239.417969 53.644531 C 238.929688 54.210938 238.128906 54.933594 237.445312 55.539062 L 235.941406 56.945312 C 235.023438 57.863281 234.476562 58.742188 234.476562 58.859375 C 234.476562 58.9375 234.554688 58.976562 234.632812 58.976562 C 234.730469 58.976562 234.75 58.957031 234.847656 58.78125 C 235.082031 58.410156 235.570312 57.84375 236.117188 57.84375 C 236.429688 57.84375 236.585938 57.960938 236.878906 58.332031 C 237.171875 58.664062 237.425781 58.976562 237.894531 58.976562 C 239.359375 58.976562 240.199219 57.0625 240.199219 56.730469 C 240.199219 56.671875 240.179688 56.574219 240.023438 56.574219 C 239.90625 56.574219 239.90625 56.632812 239.847656 56.789062 C 239.515625 57.667969 238.636719 58.019531 238.050781 58.019531 C 237.738281 58.019531 237.445312 57.921875 237.132812 57.785156 C 236.527344 57.550781 236.371094 57.550781 236.175781 57.550781 C 236.019531 57.550781 235.863281 57.550781 235.726562 57.609375 Z M 235.726562 57.609375 "/>
<path style=" stroke:none;fill-rule:nonzero;fill:rgb(0%,0%,0%);fill-opacity:1;" d="M 243.566406 48.15625 C 243.566406 47.882812 243.566406 47.609375 243.253906 47.609375 C 242.960938 47.609375 242.960938 47.882812 242.960938 48.15625 L 242.960938 62.023438 C 242.960938 62.277344 242.960938 62.550781 243.253906 62.550781 C 243.566406 62.550781 243.566406 62.277344 243.566406 62.023438 Z M 243.566406 48.15625 "/>
<path style=" stroke:none;fill-rule:nonzero;fill:rgb(0%,0%,0%);fill-opacity:1;" d="M 254.640625 55.363281 L 258.761719 55.363281 C 258.976562 55.363281 259.25 55.363281 259.25 55.109375 C 259.25 54.816406 258.996094 54.816406 258.761719 54.816406 L 254.640625 54.816406 L 254.640625 50.695312 C 254.640625 50.480469 254.640625 50.207031 254.367188 50.207031 C 254.09375 50.207031 254.09375 50.460938 254.09375 50.695312 L 254.09375 54.816406 L 249.972656 54.816406 C 249.757812 54.816406 249.484375 54.816406 249.484375 55.089844 C 249.484375 55.363281 249.738281 55.363281 249.972656 55.363281 L 254.09375 55.363281 L 254.09375 59.484375 C 254.09375 59.699219 254.09375 59.972656 254.367188 59.972656 C 254.640625 59.972656 254.640625 59.71875 254.640625 59.484375 Z M 254.640625 55.363281 "/>
<path style=" stroke:none;fill-rule:nonzero;fill:rgb(0%,0%,0%);fill-opacity:1;" d="M 274.535156 48.429688 C 274.535156 48.292969 274.4375 48.292969 274.417969 48.292969 C 274.378906 48.292969 274.320312 48.292969 274.203125 48.449219 L 273.167969 49.699219 C 272.640625 48.800781 271.820312 48.292969 270.707031 48.292969 C 267.484375 48.292969 264.125 51.574219 264.125 55.089844 C 264.125 57.589844 265.882812 59.132812 268.050781 59.132812 C 269.261719 59.132812 270.296875 58.625 271.175781 57.902344 C 272.464844 56.808594 272.855469 55.363281 272.855469 55.226562 C 272.855469 55.109375 272.738281 55.109375 272.699219 55.109375 C 272.5625 55.109375 272.542969 55.1875 272.503906 55.246094 C 271.820312 57.589844 269.808594 58.703125 268.304688 58.703125 C 266.722656 58.703125 265.355469 57.6875 265.355469 55.558594 C 265.355469 55.089844 265.511719 52.492188 267.191406 50.519531 C 268.011719 49.5625 269.417969 48.742188 270.84375 48.742188 C 272.484375 48.742188 273.207031 50.089844 273.207031 51.613281 C 273.207031 52.003906 273.167969 52.335938 273.167969 52.394531 C 273.167969 52.53125 273.324219 52.53125 273.363281 52.53125 C 273.519531 52.53125 273.539062 52.511719 273.597656 52.238281 Z M 274.535156 48.429688 "/>
<path style=" stroke:none;fill-rule:nonzero;fill:rgb(0%,0%,0%);fill-opacity:1;" d="M 121.960938 91.628906 C 122.175781 91.628906 122.449219 91.628906 122.449219 91.355469 C 122.449219 91.082031 122.195312 91.082031 121.960938 91.082031 L 113.171875 91.082031 C 112.957031 91.082031 112.683594 91.082031 112.683594 91.355469 C 112.683594 91.628906 112.9375 91.628906 113.171875 91.628906 Z M 121.960938 94.402344 C 122.175781 94.402344 122.449219 94.402344 122.449219 94.148438 C 122.449219 93.855469 122.195312 93.855469 121.960938 93.855469 L 113.171875 93.855469 C 112.957031 93.855469 112.683594 93.855469 112.683594 94.128906 C 112.683594 94.402344 112.9375 94.402344 113.171875 94.402344 Z M 121.960938 94.402344 "/>
<path style=" stroke:none;fill-rule:nonzero;fill:rgb(0%,0%,0%);fill-opacity:1;" d="M 133.28125 76.851562 C 133.28125 76.5 133.28125 76.480469 132.988281 76.480469 C 132.636719 76.890625 131.875 77.4375 130.351562 77.4375 L 130.351562 77.867188 C 130.683594 77.867188 131.425781 77.867188 132.265625 77.496094 L 132.265625 85.269531 C 132.265625 85.816406 132.207031 85.992188 130.898438 85.992188 L 130.429688 85.992188 L 130.429688 86.421875 C 130.839844 86.382812 132.285156 86.382812 132.773438 86.382812 C 133.28125 86.382812 134.707031 86.382812 135.117188 86.421875 L 135.117188 85.992188 L 134.648438 85.992188 C 133.339844 85.992188 133.28125 85.816406 133.28125 85.269531 Z M 133.28125 76.851562 "/>
<path style=" stroke:none;fill-rule:nonzero;fill:rgb(0%,0%,0%);fill-opacity:1;" d="M 128.96875 92.4375 L 136.320312 92.4375 L 136.320312 93.035156 L 128.96875 93.035156 Z M 128.96875 92.4375 "/>
<path style=" stroke:none;fill-rule:nonzero;fill:rgb(0%,0%,0%);fill-opacity:1;" d="M 131.738281 101.300781 C 131.484375 101.320312 131.425781 101.339844 131.425781 101.476562 C 131.425781 101.613281 131.503906 101.613281 131.757812 101.613281 L 132.441406 101.613281 C 133.730469 101.613281 134.296875 102.667969 134.296875 104.09375 C 134.296875 106.066406 133.28125 106.574219 132.539062 106.574219 C 131.816406 106.574219 130.605469 106.242188 130.15625 105.246094 C 130.644531 105.324219 131.074219 105.050781 131.074219 104.523438 C 131.074219 104.09375 130.761719 103.78125 130.351562 103.78125 C 129.980469 103.78125 129.589844 103.996094 129.589844 104.5625 C 129.589844 105.890625 130.917969 106.984375 132.578125 106.984375 C 134.355469 106.984375 135.683594 105.617188 135.683594 104.113281 C 135.683594 102.746094 134.570312 101.671875 133.144531 101.417969 C 134.433594 101.046875 135.273438 99.953125 135.273438 98.78125 C 135.273438 97.609375 134.042969 96.730469 132.597656 96.730469 C 131.113281 96.730469 130 97.648438 130 98.742188 C 130 99.328125 130.46875 99.464844 130.683594 99.464844 C 130.996094 99.464844 131.367188 99.230469 131.367188 98.78125 C 131.367188 98.3125 130.996094 98.097656 130.664062 98.097656 C 130.585938 98.097656 130.546875 98.097656 130.507812 98.117188 C 131.074219 97.101562 132.480469 97.101562 132.558594 97.101562 C 133.046875 97.101562 134.023438 97.316406 134.023438 98.78125 C 134.023438 99.074219 133.984375 99.894531 133.535156 100.539062 C 133.085938 101.203125 132.578125 101.242188 132.1875 101.261719 Z M 131.738281 101.300781 "/>
<path style=" stroke:none;fill-rule:nonzero;fill:rgb(0%,0%,0%);fill-opacity:1;" d="M 142.8125 86.101562 L 140.722656 86.277344 L 140.722656 86.707031 C 141.738281 86.707031 141.855469 86.804688 141.855469 87.546875 L 141.855469 95.359375 C 141.855469 96.042969 141.699219 96.042969 140.722656 96.042969 L 140.722656 96.472656 C 141.152344 96.433594 141.875 96.433594 142.324219 96.433594 C 142.773438 96.433594 143.515625 96.433594 143.945312 96.472656 L 143.945312 96.042969 C 142.988281 96.042969 142.8125 96.042969 142.8125 95.359375 Z M 142.8125 86.101562 "/>
<path style=" stroke:none;fill-rule:nonzero;fill:rgb(0%,0%,0%);fill-opacity:1;" d="M 151.136719 93.269531 C 151.136719 91.355469 149.671875 89.8125 147.933594 89.8125 C 146.15625 89.8125 144.730469 91.394531 144.730469 93.269531 C 144.730469 95.183594 146.214844 96.628906 147.933594 96.628906 C 149.691406 96.628906 151.136719 95.164062 151.136719 93.269531 Z M 147.933594 96.296875 C 147.386719 96.296875 146.722656 96.0625 146.292969 95.320312 C 145.882812 94.65625 145.863281 93.777344 145.863281 93.132812 C 145.863281 92.566406 145.863281 91.667969 146.332031 90.984375 C 146.742188 90.339844 147.40625 90.105469 147.933594 90.105469 C 148.5 90.105469 149.144531 90.378906 149.535156 90.964844 C 150.003906 91.648438 150.003906 92.585938 150.003906 93.132812 C 150.003906 93.660156 150.003906 94.597656 149.613281 95.300781 C 149.203125 96.003906 148.5 96.296875 147.933594 96.296875 Z M 147.933594 96.296875 "/>
<path style=" stroke:none;fill-rule:nonzero;fill:rgb(0%,0%,0%);fill-opacity:1;" d="M 153.410156 93.777344 C 154.113281 94.226562 154.71875 94.226562 154.875 94.226562 C 156.222656 94.226562 157.21875 93.210938 157.21875 92.058594 C 157.21875 91.667969 157.101562 91.101562 156.632812 90.613281 C 157.199219 90.027344 157.902344 90.027344 157.980469 90.027344 C 158.039062 90.027344 158.117188 90.027344 158.175781 90.046875 C 158.019531 90.105469 157.960938 90.261719 157.960938 90.417969 C 157.960938 90.632812 158.097656 90.808594 158.332031 90.808594 C 158.46875 90.808594 158.722656 90.730469 158.722656 90.398438 C 158.722656 90.144531 158.527344 89.714844 158 89.714844 C 157.21875 89.714844 156.632812 90.203125 156.4375 90.417969 C 155.988281 90.085938 155.460938 89.890625 154.894531 89.890625 C 153.546875 89.890625 152.550781 90.90625 152.550781 92.058594 C 152.550781 92.898438 153.058594 93.445312 153.214844 93.582031 C 153.039062 93.816406 152.765625 94.246094 152.765625 94.832031 C 152.765625 95.691406 153.292969 96.0625 153.410156 96.140625 C 152.726562 96.335938 152.042969 96.882812 152.042969 97.644531 C 152.042969 98.679688 153.449219 99.539062 155.285156 99.539062 C 157.0625 99.539062 158.527344 98.738281 158.527344 97.625 C 158.527344 97.253906 158.429688 96.375 157.53125 95.90625 C 156.769531 95.515625 156.027344 95.515625 154.738281 95.515625 C 153.820312 95.515625 153.722656 95.515625 153.449219 95.242188 C 153.3125 95.085938 153.175781 94.792969 153.175781 94.480469 C 153.175781 94.226562 153.253906 93.972656 153.410156 93.777344 Z M 154.894531 93.914062 C 153.566406 93.914062 153.566406 92.410156 153.566406 92.058594 C 153.566406 91.804688 153.566406 91.179688 153.820312 90.789062 C 154.113281 90.339844 154.5625 90.203125 154.875 90.203125 C 156.183594 90.203125 156.183594 91.707031 156.183594 92.058594 C 156.183594 92.3125 156.183594 92.9375 155.929688 93.328125 C 155.65625 93.777344 155.207031 93.914062 154.894531 93.914062 Z M 155.285156 99.226562 C 153.859375 99.226562 152.765625 98.484375 152.765625 97.644531 C 152.765625 97.527344 152.804688 96.941406 153.371094 96.550781 C 153.703125 96.335938 153.820312 96.335938 154.875 96.335938 C 156.105469 96.335938 157.804688 96.335938 157.804688 97.644531 C 157.804688 98.523438 156.671875 99.226562 155.285156 99.226562 Z M 155.285156 99.226562 "/>
<path style=" stroke:none;fill-rule:nonzero;fill:rgb(0%,0%,0%);fill-opacity:1;" d="M 164.066406 85.808594 C 164.066406 85.535156 164.066406 85.261719 163.753906 85.261719 C 163.460938 85.261719 163.460938 85.535156 163.460938 85.808594 L 163.460938 99.675781 C 163.460938 99.929688 163.460938 100.203125 163.753906 100.203125 C 164.066406 100.203125 164.066406 99.929688 164.066406 99.675781 Z M 164.066406 85.808594 "/>
<path style=" stroke:none;fill-rule:nonzero;fill:rgb(0%,0%,0%);fill-opacity:1;" d="M 170.179688 86.902344 C 170.179688 86.550781 170.179688 86.53125 169.886719 86.53125 C 169.535156 86.941406 168.773438 87.488281 167.25 87.488281 L 167.25 87.917969 C 167.582031 87.917969 168.324219 87.917969 169.164062 87.546875 L 169.164062 95.320312 C 169.164062 95.867188 169.105469 96.042969 167.796875 96.042969 L 167.328125 96.042969 L 167.328125 96.472656 C 167.738281 96.433594 169.183594 96.433594 169.671875 96.433594 C 170.179688 96.433594 171.605469 96.433594 172.015625 96.472656 L 172.015625 96.042969 L 171.546875 96.042969 C 170.238281 96.042969 170.179688 95.867188 170.179688 95.320312 Z M 170.179688 86.902344 "/>
<path style=" stroke:none;fill-rule:nonzero;fill:rgb(0%,0%,0%);fill-opacity:1;" d="M 182.339844 93.015625 L 186.460938 93.015625 C 186.675781 93.015625 186.949219 93.015625 186.949219 92.761719 C 186.949219 92.46875 186.695312 92.46875 186.460938 92.46875 L 182.339844 92.46875 L 182.339844 88.347656 C 182.339844 88.132812 182.339844 87.859375 182.066406 87.859375 C 181.792969 87.859375 181.792969 88.113281 181.792969 88.347656 L 181.792969 92.46875 L 177.671875 92.46875 C 177.457031 92.46875 177.183594 92.46875 177.183594 92.742188 C 177.183594 93.015625 177.4375 93.015625 177.671875 93.015625 L 181.792969 93.015625 L 181.792969 97.136719 C 181.792969 97.351562 181.792969 97.625 182.066406 97.625 C 182.339844 97.625 182.339844 97.371094 182.339844 97.136719 Z M 182.339844 93.015625 "/>
<path style=" stroke:none;fill-rule:nonzero;fill:rgb(0%,0%,0%);fill-opacity:1;" d="M 198.171875 90.378906 C 197.683594 90.457031 197.507812 90.828125 197.507812 91.101562 C 197.507812 91.472656 197.78125 91.589844 197.996094 91.589844 C 198.445312 91.589844 198.757812 91.199219 198.757812 90.789062 C 198.757812 90.164062 198.035156 89.890625 197.410156 89.890625 C 196.511719 89.890625 196.003906 90.789062 195.867188 91.0625 C 195.515625 89.949219 194.597656 89.890625 194.324219 89.890625 C 192.800781 89.890625 192 91.84375 192 92.175781 C 192 92.234375 192.058594 92.3125 192.15625 92.3125 C 192.273438 92.3125 192.3125 92.214844 192.332031 92.15625 C 192.839844 90.496094 193.855469 90.183594 194.285156 90.183594 C 194.949219 90.183594 195.085938 90.808594 195.085938 91.160156 C 195.085938 91.492188 194.988281 91.84375 194.8125 92.566406 L 194.304688 94.597656 C 194.089844 95.496094 193.660156 96.316406 192.859375 96.316406 C 192.78125 96.316406 192.410156 96.316406 192.097656 96.121094 C 192.644531 96.023438 192.761719 95.574219 192.761719 95.398438 C 192.761719 95.105469 192.527344 94.910156 192.253906 94.910156 C 191.882812 94.910156 191.492188 95.242188 191.492188 95.710938 C 191.492188 96.335938 192.195312 96.628906 192.839844 96.628906 C 193.5625 96.628906 194.070312 96.0625 194.382812 95.4375 C 194.617188 96.316406 195.378906 96.628906 195.925781 96.628906 C 197.449219 96.628906 198.25 94.65625 198.25 94.34375 C 198.25 94.265625 198.191406 94.207031 198.113281 94.207031 C 197.976562 94.207031 197.957031 94.285156 197.917969 94.402344 C 197.507812 95.710938 196.648438 96.316406 195.964844 96.316406 C 195.4375 96.316406 195.164062 95.925781 195.164062 95.320312 C 195.164062 94.988281 195.222656 94.753906 195.457031 93.777344 L 195.984375 91.726562 C 196.199219 90.847656 196.707031 90.183594 197.410156 90.183594 C 197.429688 90.183594 197.859375 90.183594 198.171875 90.378906 Z M 198.171875 90.378906 "/>
<path style=" stroke:none;fill-rule:nonzero;fill:rgb(0%,0%,0%);fill-opacity:1;" d="M 201.851562 87 C 202.632812 87 203.140625 87.566406 203.140625 88.621094 C 203.140625 89.871094 202.4375 90.222656 201.910156 90.222656 C 201.363281 90.222656 200.601562 90.027344 200.25 89.5 C 200.621094 89.5 200.875 89.265625 200.875 88.953125 C 200.875 88.621094 200.640625 88.40625 200.308594 88.40625 C 200.054688 88.40625 199.761719 88.5625 199.761719 88.972656 C 199.761719 89.910156 200.777344 90.535156 201.929688 90.535156 C 203.238281 90.535156 204.175781 89.617188 204.175781 88.621094 C 204.175781 87.78125 203.511719 87.039062 202.496094 86.804688 C 203.277344 86.53125 203.882812 85.867188 203.882812 85.066406 C 203.882812 84.265625 202.984375 83.699219 201.949219 83.699219 C 200.875 83.699219 200.074219 84.265625 200.074219 85.027344 C 200.074219 85.398438 200.308594 85.554688 200.582031 85.554688 C 200.894531 85.554688 201.089844 85.339844 201.089844 85.046875 C 201.089844 84.675781 200.757812 84.539062 200.542969 84.539062 C 200.972656 83.992188 201.734375 83.953125 201.910156 83.953125 C 202.164062 83.953125 202.925781 84.03125 202.925781 85.066406 C 202.925781 85.75 202.632812 86.179688 202.496094 86.335938 C 202.203125 86.648438 201.96875 86.667969 201.363281 86.707031 C 201.167969 86.707031 201.089844 86.726562 201.089844 86.863281 C 201.089844 87 201.1875 87 201.363281 87 Z M 201.851562 87 "/>
<path style=" stroke:none;fill-rule:nonzero;fill:rgb(0%,0%,0%);fill-opacity:1;" d="M 207.714844 85.808594 C 207.714844 85.535156 207.714844 85.261719 207.402344 85.261719 C 207.109375 85.261719 207.109375 85.535156 207.109375 85.808594 L 207.109375 99.675781 C 207.109375 99.929688 207.109375 100.203125 207.402344 100.203125 C 207.714844 100.203125 207.714844 99.929688 207.714844 99.675781 Z M 207.714844 85.808594 "/>
<path style=" stroke:none;fill-rule:nonzero;fill:rgb(0%,0%,0%);fill-opacity:1;" d="M 218.789062 93.015625 L 222.910156 93.015625 C 223.125 93.015625 223.398438 93.015625 223.398438 92.761719 C 223.398438 92.46875 223.144531 92.46875 222.910156 92.46875 L 218.789062 92.46875 L 218.789062 88.347656 C 218.789062 88.132812 218.789062 87.859375 218.515625 87.859375 C 218.242188 87.859375 218.242188 88.113281 218.242188 88.347656 L 218.242188 92.46875 L 214.121094 92.46875 C 213.90625 92.46875 213.632812 92.46875 213.632812 92.742188 C 213.632812 93.015625 213.886719 93.015625 214.121094 93.015625 L 218.242188 93.015625 L 218.242188 97.136719 C 218.242188 97.351562 218.242188 97.625 218.515625 97.625 C 218.789062 97.625 218.789062 97.371094 218.789062 97.136719 Z M 218.789062 93.015625 "/>
<path style=" stroke:none;fill-rule:nonzero;fill:rgb(0%,0%,0%);fill-opacity:1;" d="M 238.6875 86.082031 C 238.6875 85.945312 238.589844 85.945312 238.570312 85.945312 C 238.53125 85.945312 238.472656 85.945312 238.355469 86.101562 L 237.320312 87.351562 C 236.792969 86.453125 235.972656 85.945312 234.859375 85.945312 C 231.636719 85.945312 228.277344 89.226562 228.277344 92.742188 C 228.277344 95.242188 230.035156 96.785156 232.203125 96.785156 C 233.414062 96.785156 234.449219 96.277344 235.328125 95.554688 C 236.617188 94.460938 237.007812 93.015625 237.007812 92.878906 C 237.007812 92.761719 236.890625 92.761719 236.851562 92.761719 C 236.714844 92.761719 236.695312 92.839844 236.65625 92.898438 C 235.972656 95.242188 233.960938 96.355469 232.457031 96.355469 C 230.875 96.355469 229.507812 95.339844 229.507812 93.210938 C 229.507812 92.742188 229.664062 90.144531 231.34375 88.171875 C 232.164062 87.214844 233.570312 86.394531 234.996094 86.394531 C 236.636719 86.394531 237.359375 87.742188 237.359375 89.265625 C 237.359375 89.65625 237.320312 89.988281 237.320312 90.046875 C 237.320312 90.183594 237.476562 90.183594 237.515625 90.183594 C 237.671875 90.183594 237.691406 90.164062 237.75 89.890625 Z M 238.6875 86.082031 "/>
</g>
</svg>
