<?xml version="1.0" encoding="UTF-8"?>
<svg xmlns="http://www.w3.org/2000/svg" xmlns:xlink="http://www.w3.org/1999/xlink" width="323.70081pt" height="69.32107pt" viewBox="0 0 323.70081 69.32107" version="1.1">
<g id="surface1">
<path style=" stroke:none;fill-rule:nonzero;fill:rgb(0%,0%,0%);fill-opacity:1;" d="M 6.132812 1.367188 L 7.714844 1.367188 C 7.929688 1.367188 8.144531 1.386719 8.359375 1.386719 L 10.703125 1.386719 L 10.703125 0.253906 L 0 0.253906 L 0 1.386719 L 2.363281 1.386719 C 2.578125 1.386719 2.792969 1.367188 3.007812 1.367188 L 4.589844 1.367188 L 4.589844 12.617188 L 6.132812 12.617188 Z M 6.132812 1.367188 "/>
<path style=" stroke:none;fill-rule:nonzero;fill:rgb(0%,0%,0%);fill-opacity:1;" d="M 18.972656 7.226562 C 18.972656 6.132812 18.738281 4.472656 16.570312 4.472656 C 15.339844 4.472656 14.519531 5.175781 14.089844 5.722656 L 14.089844 0.175781 L 12.761719 0.175781 L 12.761719 12.617188 L 14.109375 12.617188 L 14.109375 8.144531 C 14.109375 7.050781 14.539062 5.546875 15.886719 5.546875 C 17.566406 5.546875 17.605469 6.71875 17.605469 7.34375 L 17.605469 12.617188 L 18.972656 12.617188 Z M 18.972656 7.226562 "/>
<path style=" stroke:none;fill-rule:nonzero;fill:rgb(0%,0%,0%);fill-opacity:1;" d="M 27.679688 8.574219 C 27.679688 7.8125 27.601562 6.71875 27.035156 5.761719 C 26.292969 4.53125 25.042969 4.394531 24.515625 4.394531 C 22.582031 4.394531 20.960938 6.25 20.960938 8.574219 C 20.960938 10.957031 22.679688 12.792969 24.769531 12.792969 C 25.589844 12.792969 26.585938 12.558594 27.5625 11.855469 C 27.5625 11.777344 27.503906 11.210938 27.503906 11.191406 C 27.484375 11.171875 27.464844 10.761719 27.464844 10.703125 C 26.390625 11.601562 25.335938 11.71875 24.808594 11.71875 C 23.421875 11.71875 22.230469 10.488281 22.210938 8.574219 Z M 22.308594 7.617188 C 22.621094 6.40625 23.460938 5.46875 24.515625 5.46875 C 25.082031 5.46875 26.3125 5.722656 26.605469 7.617188 Z M 22.308594 7.617188 "/>
<path style=" stroke:none;fill-rule:nonzero;fill:rgb(0%,0%,0%);fill-opacity:1;" d="M 36.757812 8.691406 C 36.757812 6.875 38.105469 5.703125 39.726562 5.683594 L 39.726562 4.472656 C 38.085938 4.492188 37.148438 5.449219 36.660156 6.152344 L 36.660156 4.570312 L 35.429688 4.570312 L 35.429688 12.617188 L 36.757812 12.617188 Z M 36.757812 8.691406 "/>
<path style=" stroke:none;fill-rule:nonzero;fill:rgb(0%,0%,0%);fill-opacity:1;" d="M 47.328125 8.574219 C 47.328125 7.8125 47.25 6.71875 46.683594 5.761719 C 45.941406 4.53125 44.691406 4.394531 44.164062 4.394531 C 42.230469 4.394531 40.609375 6.25 40.609375 8.574219 C 40.609375 10.957031 42.328125 12.792969 44.417969 12.792969 C 45.238281 12.792969 46.234375 12.558594 47.210938 11.855469 C 47.210938 11.777344 47.152344 11.210938 47.152344 11.191406 C 47.132812 11.171875 47.113281 10.761719 47.113281 10.703125 C 46.039062 11.601562 44.984375 11.71875 44.457031 11.71875 C 43.070312 11.71875 41.878906 10.488281 41.859375 8.574219 Z M 41.957031 7.617188 C 42.269531 6.40625 43.109375 5.46875 44.164062 5.46875 C 44.730469 5.46875 45.960938 5.722656 46.253906 7.617188 Z M 41.957031 7.617188 "/>
<path style=" stroke:none;fill-rule:nonzero;fill:rgb(0%,0%,0%);fill-opacity:1;" d="M 55.402344 4.472656 L 54.074219 4.472656 L 54.074219 5.625 C 53.605469 5.078125 52.824219 4.472656 51.730469 4.472656 C 49.972656 4.472656 48.449219 6.25 48.449219 8.652344 C 48.449219 10.9375 49.777344 12.792969 51.457031 12.792969 C 52.84375 12.792969 53.800781 11.972656 54.054688 11.699219 L 54.054688 16.09375 L 55.402344 16.09375 Z M 54.074219 10.117188 C 54.074219 10.46875 54.074219 10.488281 53.878906 10.761719 C 53.390625 11.484375 52.746094 11.71875 52.21875 11.71875 C 50.871094 11.71875 49.816406 10.3125 49.816406 8.652344 C 49.816406 6.816406 51.105469 5.585938 52.375 5.585938 C 53.527344 5.585938 54.074219 6.757812 54.074219 7.480469 Z M 54.074219 10.117188 "/>
<path style=" stroke:none;fill-rule:nonzero;fill:rgb(0%,0%,0%);fill-opacity:1;" d="M 64.421875 4.648438 L 63.054688 4.648438 L 63.054688 9.785156 C 63.054688 11.152344 62.117188 11.816406 60.945312 11.816406 C 59.695312 11.816406 59.558594 11.347656 59.558594 10.546875 L 59.558594 4.648438 L 58.210938 4.648438 L 58.210938 10.625 C 58.210938 11.914062 58.621094 12.792969 60.085938 12.792969 C 60.59375 12.792969 62 12.714844 63.09375 11.71875 L 63.09375 12.617188 L 64.421875 12.617188 Z M 64.421875 4.648438 "/>
<path style=" stroke:none;fill-rule:nonzero;fill:rgb(0%,0%,0%);fill-opacity:1;" d="M 68.65625 0.449219 L 67.113281 0.449219 L 67.113281 1.992188 L 68.65625 1.992188 Z M 68.558594 4.648438 L 67.230469 4.648438 L 67.230469 12.617188 L 68.558594 12.617188 Z M 68.558594 4.648438 "/>
<path style=" stroke:none;fill-rule:nonzero;fill:rgb(0%,0%,0%);fill-opacity:1;" d="M 72.757812 8.691406 C 72.757812 6.875 74.105469 5.703125 75.726562 5.683594 L 75.726562 4.472656 C 74.085938 4.492188 73.148438 5.449219 72.660156 6.152344 L 72.660156 4.570312 L 71.429688 4.570312 L 71.429688 12.617188 L 72.757812 12.617188 Z M 72.757812 8.691406 "/>
<path style=" stroke:none;fill-rule:nonzero;fill:rgb(0%,0%,0%);fill-opacity:1;" d="M 83.328125 8.574219 C 83.328125 7.8125 83.25 6.71875 82.683594 5.761719 C 81.941406 4.53125 80.691406 4.394531 80.164062 4.394531 C 78.230469 4.394531 76.609375 6.25 76.609375 8.574219 C 76.609375 10.957031 78.328125 12.792969 80.417969 12.792969 C 81.238281 12.792969 82.234375 12.558594 83.210938 11.855469 C 83.210938 11.777344 83.152344 11.210938 83.152344 11.191406 C 83.132812 11.171875 83.113281 10.761719 83.113281 10.703125 C 82.039062 11.601562 80.984375 11.71875 80.457031 11.71875 C 79.070312 11.71875 77.878906 10.488281 77.859375 8.574219 Z M 77.957031 7.617188 C 78.269531 6.40625 79.109375 5.46875 80.164062 5.46875 C 80.730469 5.46875 81.960938 5.722656 82.253906 7.617188 Z M 77.957031 7.617188 "/>
<path style=" stroke:none;fill-rule:nonzero;fill:rgb(0%,0%,0%);fill-opacity:1;" d="M 91.402344 0.175781 L 90.074219 0.175781 L 90.074219 5.410156 C 89.253906 4.726562 88.316406 4.472656 87.554688 4.472656 C 85.855469 4.472656 84.449219 6.308594 84.449219 8.632812 C 84.449219 10.957031 85.777344 12.792969 87.476562 12.792969 C 88.140625 12.792969 89.15625 12.578125 90.054688 11.699219 L 90.054688 12.617188 L 91.402344 12.617188 Z M 90.054688 10.507812 C 89.625 11.269531 88.980469 11.71875 88.199219 11.71875 C 87.105469 11.71875 85.816406 10.878906 85.816406 8.652344 C 85.816406 6.269531 87.339844 5.546875 88.375 5.546875 C 89.078125 5.546875 89.644531 5.917969 90.054688 6.503906 Z M 90.054688 10.507812 "/>
<path style=" stroke:none;fill-rule:nonzero;fill:rgb(0%,0%,0%);fill-opacity:1;" d="M 105.535156 7.363281 C 105.535156 5.644531 104.304688 4.394531 102.625 4.394531 C 101.550781 4.394531 100.75 4.628906 99.871094 5.136719 L 99.96875 6.328125 C 100.769531 5.742188 101.589844 5.429688 102.625 5.429688 C 103.445312 5.429688 104.167969 6.09375 104.167969 7.402344 L 104.167969 8.144531 C 103.367188 8.164062 102.292969 8.222656 101.21875 8.574219 C 100.007812 9.003906 99.304688 9.667969 99.304688 10.546875 C 99.304688 11.347656 99.773438 12.792969 101.296875 12.792969 C 102.292969 12.792969 103.542969 12.5 104.207031 11.953125 L 104.207031 12.617188 L 105.535156 12.617188 Z M 104.167969 10.214844 C 104.167969 10.566406 104.167969 10.996094 103.582031 11.367188 C 103.09375 11.660156 102.488281 11.71875 102.214844 11.71875 C 101.257812 11.71875 100.59375 11.191406 100.59375 10.546875 C 100.59375 9.316406 103.074219 9.042969 104.167969 9.042969 Z M 104.167969 10.214844 "/>
<path style=" stroke:none;fill-rule:nonzero;fill:rgb(0%,0%,0%);fill-opacity:1;" d="M 109.210938 8.691406 C 109.210938 6.875 110.558594 5.703125 112.179688 5.683594 L 112.179688 4.472656 C 110.539062 4.492188 109.601562 5.449219 109.113281 6.152344 L 109.113281 4.570312 L 107.882812 4.570312 L 107.882812 12.617188 L 109.210938 12.617188 Z M 109.210938 8.691406 "/>
<path style=" stroke:none;fill-rule:nonzero;fill:rgb(0%,0%,0%);fill-opacity:1;" d="M 119.78125 8.574219 C 119.78125 7.8125 119.703125 6.71875 119.136719 5.761719 C 118.394531 4.53125 117.144531 4.394531 116.617188 4.394531 C 114.683594 4.394531 113.0625 6.25 113.0625 8.574219 C 113.0625 10.957031 114.78125 12.792969 116.871094 12.792969 C 117.691406 12.792969 118.6875 12.558594 119.664062 11.855469 C 119.664062 11.777344 119.605469 11.210938 119.605469 11.191406 C 119.585938 11.171875 119.566406 10.761719 119.566406 10.703125 C 118.492188 11.601562 117.4375 11.71875 116.910156 11.71875 C 115.523438 11.71875 114.332031 10.488281 114.3125 8.574219 Z M 114.410156 7.617188 C 114.722656 6.40625 115.5625 5.46875 116.617188 5.46875 C 117.183594 5.46875 118.414062 5.722656 118.707031 7.617188 Z M 114.410156 7.617188 "/>
<path style=" stroke:none;fill-rule:nonzero;fill:rgb(0%,0%,0%);fill-opacity:1;" d="M 127.285156 7.363281 C 127.285156 5.644531 126.054688 4.394531 124.375 4.394531 C 123.300781 4.394531 122.5 4.628906 121.621094 5.136719 L 121.71875 6.328125 C 122.519531 5.742188 123.339844 5.429688 124.375 5.429688 C 125.195312 5.429688 125.917969 6.09375 125.917969 7.402344 L 125.917969 8.144531 C 125.117188 8.164062 124.042969 8.222656 122.96875 8.574219 C 121.757812 9.003906 121.054688 9.667969 121.054688 10.546875 C 121.054688 11.347656 121.523438 12.792969 123.046875 12.792969 C 124.042969 12.792969 125.292969 12.5 125.957031 11.953125 L 125.957031 12.617188 L 127.285156 12.617188 Z M 125.917969 10.214844 C 125.917969 10.566406 125.917969 10.996094 125.332031 11.367188 C 124.84375 11.660156 124.238281 11.71875 123.964844 11.71875 C 123.007812 11.71875 122.34375 11.191406 122.34375 10.546875 C 122.34375 9.316406 124.824219 9.042969 125.917969 9.042969 Z M 125.917969 10.214844 "/>
<path style=" stroke:none;fill-rule:nonzero;fill:rgb(0%,0%,0%);fill-opacity:1;" d="M 141.125 1.582031 C 141.28125 0.917969 141.359375 0.898438 142.0625 0.898438 L 143.351562 0.898438 C 144.894531 0.898438 146.027344 1.347656 146.027344 2.753906 C 146.027344 3.671875 145.558594 6.308594 141.964844 6.308594 L 139.933594 6.308594 Z M 143.605469 6.523438 C 145.832031 6.035156 147.570312 4.609375 147.570312 3.066406 C 147.570312 1.660156 146.164062 0.371094 143.664062 0.371094 L 138.800781 0.371094 C 138.449219 0.371094 138.292969 0.371094 138.292969 0.703125 C 138.292969 0.898438 138.410156 0.898438 138.761719 0.898438 C 139.835938 0.898438 139.835938 1.035156 139.835938 1.230469 C 139.835938 1.269531 139.835938 1.367188 139.757812 1.640625 L 137.335938 11.289062 C 137.179688 11.914062 137.140625 12.089844 135.910156 12.089844 C 135.5 12.089844 135.363281 12.089844 135.363281 12.441406 C 135.363281 12.617188 135.558594 12.617188 135.617188 12.617188 C 135.949219 12.617188 136.320312 12.578125 136.652344 12.578125 L 138.78125 12.578125 C 139.09375 12.578125 139.464844 12.617188 139.796875 12.617188 C 139.933594 12.617188 140.128906 12.617188 140.128906 12.285156 C 140.128906 12.089844 139.972656 12.089844 139.699219 12.089844 C 138.605469 12.089844 138.605469 11.953125 138.605469 11.777344 C 138.605469 11.757812 138.605469 11.640625 138.644531 11.484375 L 139.855469 6.660156 L 142.003906 6.660156 C 143.703125 6.660156 144.035156 7.734375 144.035156 8.339844 C 144.035156 8.59375 143.839844 9.296875 143.722656 9.765625 C 143.527344 10.585938 143.46875 10.78125 143.46875 11.132812 C 143.46875 12.402344 144.503906 12.988281 145.714844 12.988281 C 147.160156 12.988281 147.785156 11.210938 147.785156 10.976562 C 147.785156 10.839844 147.707031 10.78125 147.589844 10.78125 C 147.453125 10.78125 147.414062 10.898438 147.375 11.035156 C 146.945312 12.304688 146.222656 12.636719 145.773438 12.636719 C 145.324219 12.636719 145.03125 12.441406 145.03125 11.640625 C 145.03125 11.191406 145.246094 9.570312 145.265625 9.472656 C 145.34375 8.808594 145.34375 8.75 145.34375 8.59375 C 145.34375 7.285156 144.289062 6.738281 143.605469 6.523438 Z M 143.605469 6.523438 "/>
<path style=" stroke:none;fill-rule:nonzero;fill:rgb(0%,0%,0%);fill-opacity:1;" d="M 156.707031 0.449219 L 155.164062 0.449219 L 155.164062 1.992188 L 156.707031 1.992188 Z M 156.609375 4.648438 L 155.28125 4.648438 L 155.28125 12.617188 L 156.609375 12.617188 Z M 156.609375 4.648438 "/>
<path style=" stroke:none;fill-rule:nonzero;fill:rgb(0%,0%,0%);fill-opacity:1;" d="M 164.089844 4.941406 C 162.957031 4.414062 161.980469 4.394531 161.570312 4.394531 C 161.160156 4.394531 158.660156 4.394531 158.660156 6.71875 C 158.660156 7.5 159.089844 8.046875 159.363281 8.300781 C 160.007812 8.847656 160.457031 8.945312 161.511719 9.160156 C 162.117188 9.277344 163.152344 9.492188 163.152344 10.449219 C 163.152344 11.679688 161.746094 11.679688 161.492188 11.679688 C 160.789062 11.679688 159.734375 11.484375 158.777344 10.78125 L 158.5625 12.011719 C 158.640625 12.070312 159.871094 12.792969 161.511719 12.792969 C 163.835938 12.792969 164.382812 11.40625 164.382812 10.332031 C 164.382812 9.433594 163.835938 8.847656 163.757812 8.769531 C 163.09375 8.085938 162.546875 7.96875 161.472656 7.753906 C 160.808594 7.636719 159.910156 7.460938 159.910156 6.5625 C 159.910156 5.449219 161.160156 5.449219 161.394531 5.449219 C 162.332031 5.449219 163.09375 5.664062 163.875 6.113281 Z M 164.089844 4.941406 "/>
<path style=" stroke:none;fill-rule:nonzero;fill:rgb(0%,0%,0%);fill-opacity:1;" d="M 173.742188 5.703125 L 176.222656 5.703125 L 176.222656 4.648438 L 173.742188 4.648438 L 173.742188 2.382812 L 172.511719 2.382812 L 172.511719 4.648438 L 171.007812 4.648438 L 171.007812 5.703125 L 172.472656 5.703125 L 172.472656 10.527344 C 172.472656 11.5625 172.707031 12.792969 173.9375 12.792969 C 175.148438 12.792969 175.96875 12.382812 176.515625 12.089844 L 176.242188 11.054688 C 175.617188 11.621094 174.953125 11.679688 174.640625 11.679688 C 173.839844 11.679688 173.742188 10.839844 173.742188 10.214844 Z M 173.742188 5.703125 "/>
<path style=" stroke:none;fill-rule:nonzero;fill:rgb(0%,0%,0%);fill-opacity:1;" d="M 184.574219 7.226562 C 184.574219 6.132812 184.339844 4.472656 182.171875 4.472656 C 180.941406 4.472656 180.121094 5.175781 179.691406 5.722656 L 179.691406 0.175781 L 178.363281 0.175781 L 178.363281 12.617188 L 179.710938 12.617188 L 179.710938 8.144531 C 179.710938 7.050781 180.140625 5.546875 181.488281 5.546875 C 183.167969 5.546875 183.207031 6.71875 183.207031 7.34375 L 183.207031 12.617188 L 184.574219 12.617188 Z M 184.574219 7.226562 "/>
<path style=" stroke:none;fill-rule:nonzero;fill:rgb(0%,0%,0%);fill-opacity:1;" d="M 193.28125 8.574219 C 193.28125 7.8125 193.203125 6.71875 192.636719 5.761719 C 191.894531 4.53125 190.644531 4.394531 190.117188 4.394531 C 188.183594 4.394531 186.5625 6.25 186.5625 8.574219 C 186.5625 10.957031 188.28125 12.792969 190.371094 12.792969 C 191.191406 12.792969 192.1875 12.558594 193.164062 11.855469 C 193.164062 11.777344 193.105469 11.210938 193.105469 11.191406 C 193.085938 11.171875 193.066406 10.761719 193.066406 10.703125 C 191.992188 11.601562 190.9375 11.71875 190.410156 11.71875 C 189.023438 11.71875 187.832031 10.488281 187.8125 8.574219 Z M 187.910156 7.617188 C 188.222656 6.40625 189.0625 5.46875 190.117188 5.46875 C 190.683594 5.46875 191.914062 5.722656 192.207031 7.617188 Z M 187.910156 7.617188 "/>
<path style=" stroke:none;fill-rule:nonzero;fill:rgb(0%,0%,0%);fill-opacity:1;" d="M 196.507812 8.691406 C 196.507812 6.875 197.855469 5.703125 199.476562 5.683594 L 199.476562 4.472656 C 197.835938 4.492188 196.898438 5.449219 196.410156 6.152344 L 196.410156 4.570312 L 195.179688 4.570312 L 195.179688 12.617188 L 196.507812 12.617188 Z M 196.507812 8.691406 "/>
<path style=" stroke:none;fill-rule:nonzero;fill:rgb(0%,0%,0%);fill-opacity:1;" d="M 207.078125 8.574219 C 207.078125 7.8125 207 6.71875 206.433594 5.761719 C 205.691406 4.53125 204.441406 4.394531 203.914062 4.394531 C 201.980469 4.394531 200.359375 6.25 200.359375 8.574219 C 200.359375 10.957031 202.078125 12.792969 204.167969 12.792969 C 204.988281 12.792969 205.984375 12.558594 206.960938 11.855469 C 206.960938 11.777344 206.902344 11.210938 206.902344 11.191406 C 206.882812 11.171875 206.863281 10.761719 206.863281 10.703125 C 205.789062 11.601562 204.734375 11.71875 204.207031 11.71875 C 202.820312 11.71875 201.628906 10.488281 201.609375 8.574219 Z M 201.707031 7.617188 C 202.019531 6.40625 202.859375 5.46875 203.914062 5.46875 C 204.480469 5.46875 205.710938 5.722656 206.003906 7.617188 Z M 201.707031 7.617188 "/>
<path style=" stroke:none;fill-rule:nonzero;fill:rgb(0%,0%,0%);fill-opacity:1;" d="M 210.679688 5.703125 L 212.59375 5.703125 L 212.59375 4.648438 L 210.640625 4.648438 L 210.640625 2.5 C 210.640625 1.289062 211.65625 1.074219 212.261719 1.074219 C 212.886719 1.074219 213.433594 1.269531 213.648438 1.347656 L 213.648438 0.175781 C 213.53125 0.136719 212.925781 0 212.28125 0 C 210.5625 0 209.351562 1.308594 209.351562 3.046875 L 209.351562 4.648438 L 208.042969 4.648438 L 208.042969 5.703125 L 209.351562 5.703125 L 209.351562 12.617188 L 210.679688 12.617188 Z M 210.679688 5.703125 "/>
<path style=" stroke:none;fill-rule:nonzero;fill:rgb(0%,0%,0%);fill-opacity:1;" d="M 221.199219 8.671875 C 221.199219 6.25 219.421875 4.394531 217.371094 4.394531 C 215.261719 4.394531 213.523438 6.289062 213.523438 8.671875 C 213.523438 11.015625 215.300781 12.792969 217.351562 12.792969 C 219.460938 12.792969 221.199219 10.976562 221.199219 8.671875 Z M 217.371094 11.679688 C 216.082031 11.679688 214.871094 10.605469 214.871094 8.496094 C 214.871094 6.328125 216.21875 5.46875 217.351562 5.46875 C 218.582031 5.46875 219.851562 6.386719 219.851562 8.496094 C 219.851562 10.703125 218.5625 11.679688 217.371094 11.679688 Z M 217.371094 11.679688 "/>
<path style=" stroke:none;fill-rule:nonzero;fill:rgb(0%,0%,0%);fill-opacity:1;" d="M 224.109375 8.691406 C 224.109375 6.875 225.457031 5.703125 227.078125 5.683594 L 227.078125 4.472656 C 225.4375 4.492188 224.5 5.449219 224.011719 6.152344 L 224.011719 4.570312 L 222.78125 4.570312 L 222.78125 12.617188 L 224.109375 12.617188 Z M 224.109375 8.691406 "/>
<path style=" stroke:none;fill-rule:nonzero;fill:rgb(0%,0%,0%);fill-opacity:1;" d="M 234.679688 8.574219 C 234.679688 7.8125 234.601562 6.71875 234.035156 5.761719 C 233.292969 4.53125 232.042969 4.394531 231.515625 4.394531 C 229.582031 4.394531 227.960938 6.25 227.960938 8.574219 C 227.960938 10.957031 229.679688 12.792969 231.769531 12.792969 C 232.589844 12.792969 233.585938 12.558594 234.5625 11.855469 C 234.5625 11.777344 234.503906 11.210938 234.503906 11.191406 C 234.484375 11.171875 234.464844 10.761719 234.464844 10.703125 C 233.390625 11.601562 232.335938 11.71875 231.808594 11.71875 C 230.421875 11.71875 229.230469 10.488281 229.210938 8.574219 Z M 229.308594 7.617188 C 229.621094 6.40625 230.460938 5.46875 231.515625 5.46875 C 232.082031 5.46875 233.3125 5.722656 233.605469 7.617188 Z M 229.308594 7.617188 "/>
<path style=" stroke:none;fill-rule:nonzero;fill:rgb(0%,0%,0%);fill-opacity:1;" d="M 4.882812 46.039062 C 5 45.472656 5.058594 45.453125 5.644531 45.453125 L 6.71875 45.453125 C 8.007812 45.453125 8.964844 45.84375 8.964844 46.996094 C 8.964844 47.757812 8.574219 49.964844 5.566406 49.964844 L 3.886719 49.964844 Z M 6.953125 50.140625 C 8.808594 49.730469 10.253906 48.539062 10.253906 47.25 C 10.253906 46.097656 9.0625 45.023438 6.992188 45.023438 L 2.949219 45.023438 C 2.65625 45.023438 2.519531 45.023438 2.519531 45.296875 C 2.519531 45.453125 2.617188 45.453125 2.910156 45.453125 C 3.789062 45.453125 3.789062 45.570312 3.789062 45.726562 C 3.789062 45.765625 3.789062 45.84375 3.730469 46.078125 L 1.71875 54.105469 C 1.582031 54.632812 1.5625 54.789062 0.527344 54.789062 C 0.175781 54.789062 0.078125 54.789062 0.078125 55.0625 C 0.078125 55.21875 0.234375 55.21875 0.292969 55.21875 C 0.546875 55.21875 0.859375 55.179688 1.152344 55.179688 L 2.910156 55.179688 C 3.183594 55.179688 3.496094 55.21875 3.769531 55.21875 C 3.886719 55.21875 4.042969 55.21875 4.042969 54.925781 C 4.042969 54.789062 3.925781 54.789062 3.691406 54.789062 C 2.773438 54.789062 2.773438 54.671875 2.773438 54.515625 C 2.773438 54.496094 2.773438 54.398438 2.8125 54.28125 L 3.808594 50.257812 L 5.605469 50.257812 C 7.03125 50.257812 7.285156 51.15625 7.285156 51.644531 C 7.285156 51.878906 7.148438 52.445312 7.03125 52.835938 C 6.875 53.539062 6.835938 53.695312 6.835938 53.988281 C 6.835938 55.042969 7.695312 55.53125 8.691406 55.53125 C 9.902344 55.53125 10.429688 54.046875 10.429688 53.851562 C 10.429688 53.734375 10.351562 53.695312 10.273438 53.695312 C 10.15625 53.695312 10.117188 53.792969 10.097656 53.910156 C 9.726562 54.964844 9.121094 55.238281 8.75 55.238281 C 8.378906 55.238281 8.125 55.0625 8.125 54.398438 C 8.125 54.046875 8.300781 52.679688 8.320312 52.601562 C 8.398438 52.054688 8.398438 51.996094 8.398438 51.878906 C 8.398438 50.785156 7.519531 50.316406 6.953125 50.140625 Z M 6.953125 50.140625 "/>
<path style=" stroke:none;fill-rule:nonzero;fill:rgb(0%,0%,0%);fill-opacity:1;" d="M 24.902344 50.375 C 25.117188 50.375 25.390625 50.375 25.390625 50.101562 C 25.390625 49.828125 25.136719 49.828125 24.902344 49.828125 L 16.113281 49.828125 C 15.898438 49.828125 15.625 49.828125 15.625 50.101562 C 15.625 50.375 15.878906 50.375 16.113281 50.375 Z M 24.902344 53.148438 C 25.117188 53.148438 25.390625 53.148438 25.390625 52.894531 C 25.390625 52.601562 25.136719 52.601562 24.902344 52.601562 L 16.113281 52.601562 C 15.898438 52.601562 15.625 52.601562 15.625 52.875 C 15.625 53.148438 15.878906 53.148438 16.113281 53.148438 Z M 24.902344 53.148438 "/>
<path style=" stroke:none;fill-rule:nonzero;fill:rgb(0%,0%,0%);fill-opacity:1;" d="M 31.988281 67.335938 C 32.457031 67.316406 32.710938 66.984375 32.710938 66.613281 C 32.710938 66.125 32.339844 65.871094 31.988281 65.871094 C 31.636719 65.871094 31.265625 66.105469 31.265625 66.632812 C 31.265625 67.394531 32.007812 68.019531 32.925781 68.019531 C 35.191406 68.019531 36.050781 64.523438 37.105469 60.1875 C 38.257812 55.460938 39.234375 50.695312 40.035156 45.910156 C 40.582031 42.726562 41.148438 39.738281 41.65625 37.804688 C 41.832031 37.082031 42.339844 35.148438 42.925781 35.148438 C 43.375 35.148438 43.746094 35.421875 43.804688 35.480469 C 43.316406 35.519531 43.0625 35.851562 43.0625 36.222656 C 43.0625 36.710938 43.433594 36.945312 43.785156 36.945312 C 44.136719 36.945312 44.507812 36.730469 44.507812 36.203125 C 44.507812 35.402344 43.707031 34.816406 42.886719 34.816406 C 41.753906 34.816406 40.914062 36.4375 40.09375 39.484375 C 40.054688 39.660156 38.023438 47.160156 36.363281 56.925781 C 35.992188 59.210938 35.542969 61.710938 35.054688 63.78125 C 34.78125 64.875 34.097656 67.6875 32.886719 67.6875 C 32.359375 67.6875 31.988281 67.335938 31.988281 67.335938 Z M 31.988281 67.335938 "/>
<path style=" stroke:none;fill-rule:nonzero;fill:rgb(0%,0%,0%);fill-opacity:1;" d="M 49.199219 32.273438 C 49.199219 32.078125 49.199219 32 48.984375 32 C 48.867188 32 48.847656 32 48.75 32.136719 L 45.566406 36.765625 L 45.566406 37.078125 L 48.378906 37.078125 L 48.378906 37.917969 C 48.378906 38.289062 48.359375 38.386719 47.578125 38.386719 L 47.363281 38.386719 L 47.363281 38.71875 C 48.203125 38.679688 48.222656 38.679688 48.789062 38.679688 C 49.355469 38.679688 49.375 38.679688 50.214844 38.71875 L 50.214844 38.386719 L 50 38.386719 C 49.21875 38.386719 49.199219 38.289062 49.199219 37.917969 L 49.199219 37.078125 L 50.253906 37.078125 L 50.253906 36.765625 L 49.199219 36.765625 Z M 48.457031 33.074219 L 48.457031 36.765625 L 45.917969 36.765625 Z M 48.457031 33.074219 "/>
<path style=" stroke:none;fill-rule:nonzero;fill:rgb(0%,0%,0%);fill-opacity:1;" d="M 41.800781 62.21875 C 41.800781 61.945312 41.78125 61.945312 41.507812 61.945312 C 41.097656 62.335938 40.570312 62.570312 39.632812 62.570312 L 39.632812 62.902344 C 39.90625 62.902344 40.433594 62.902344 41.019531 62.648438 L 41.019531 67.746094 C 41.019531 68.117188 40.980469 68.234375 40.042969 68.234375 L 39.691406 68.234375 L 39.691406 68.566406 C 40.101562 68.527344 40.960938 68.527344 41.410156 68.527344 C 41.859375 68.527344 42.71875 68.527344 43.128906 68.566406 L 43.128906 68.234375 L 42.777344 68.234375 C 41.839844 68.234375 41.800781 68.117188 41.800781 67.746094 Z M 41.800781 62.21875 "/>
<path style=" stroke:none;fill-rule:nonzero;fill:rgb(0%,0%,0%);fill-opacity:1;" d="M 62.265625 38.921875 C 61.777344 39 61.601562 39.371094 61.601562 39.644531 C 61.601562 40.015625 61.875 40.132812 62.089844 40.132812 C 62.539062 40.132812 62.851562 39.742188 62.851562 39.332031 C 62.851562 38.707031 62.128906 38.433594 61.503906 38.433594 C 60.605469 38.433594 60.097656 39.332031 59.960938 39.605469 C 59.609375 38.492188 58.691406 38.433594 58.417969 38.433594 C 56.894531 38.433594 56.09375 40.386719 56.09375 40.71875 C 56.09375 40.777344 56.152344 40.855469 56.25 40.855469 C 56.367188 40.855469 56.40625 40.757812 56.425781 40.699219 C 56.933594 39.039062 57.949219 38.726562 58.378906 38.726562 C 59.042969 38.726562 59.179688 39.351562 59.179688 39.703125 C 59.179688 40.035156 59.082031 40.386719 58.90625 41.109375 L 58.398438 43.140625 C 58.183594 44.039062 57.753906 44.859375 56.953125 44.859375 C 56.875 44.859375 56.503906 44.859375 56.191406 44.664062 C 56.738281 44.566406 56.855469 44.117188 56.855469 43.941406 C 56.855469 43.648438 56.621094 43.453125 56.347656 43.453125 C 55.976562 43.453125 55.585938 43.785156 55.585938 44.253906 C 55.585938 44.878906 56.289062 45.171875 56.933594 45.171875 C 57.65625 45.171875 58.164062 44.605469 58.476562 43.980469 C 58.710938 44.859375 59.472656 45.171875 60.019531 45.171875 C 61.542969 45.171875 62.34375 43.199219 62.34375 42.886719 C 62.34375 42.808594 62.285156 42.75 62.207031 42.75 C 62.070312 42.75 62.050781 42.828125 62.011719 42.945312 C 61.601562 44.253906 60.742188 44.859375 60.058594 44.859375 C 59.53125 44.859375 59.257812 44.46875 59.257812 43.863281 C 59.257812 43.53125 59.316406 43.296875 59.550781 42.320312 L 60.078125 40.269531 C 60.292969 39.390625 60.800781 38.726562 61.503906 38.726562 C 61.523438 38.726562 61.953125 38.726562 62.265625 38.921875 Z M 62.265625 38.921875 "/>
<path style=" stroke:none;fill-rule:nonzero;fill:rgb(0%,0%,0%);fill-opacity:1;" d="M 72.832031 41.558594 L 76.953125 41.558594 C 77.167969 41.558594 77.441406 41.558594 77.441406 41.304688 C 77.441406 41.011719 77.1875 41.011719 76.953125 41.011719 L 72.832031 41.011719 L 72.832031 36.890625 C 72.832031 36.675781 72.832031 36.402344 72.558594 36.402344 C 72.285156 36.402344 72.285156 36.65625 72.285156 36.890625 L 72.285156 41.011719 L 68.164062 41.011719 C 67.949219 41.011719 67.675781 41.011719 67.675781 41.285156 C 67.675781 41.558594 67.929688 41.558594 68.164062 41.558594 L 72.285156 41.558594 L 72.285156 45.679688 C 72.285156 45.894531 72.285156 46.167969 72.558594 46.167969 C 72.832031 46.167969 72.832031 45.914062 72.832031 45.679688 Z M 72.832031 41.558594 "/>
<path style=" stroke:none;fill-rule:nonzero;fill:rgb(0%,0%,0%);fill-opacity:1;" d="M 83.488281 36.460938 C 84.132812 36.65625 84.660156 36.675781 84.816406 36.675781 C 86.496094 36.675781 87.589844 35.445312 87.589844 35.230469 C 87.589844 35.171875 87.550781 35.09375 87.453125 35.09375 C 87.433594 35.09375 87.394531 35.09375 87.257812 35.152344 C 86.4375 35.503906 85.714844 35.5625 85.324219 35.5625 C 84.347656 35.5625 83.644531 35.25 83.351562 35.132812 C 83.253906 35.09375 83.214844 35.09375 83.195312 35.09375 C 83.078125 35.09375 83.078125 35.191406 83.078125 35.425781 L 83.078125 39.859375 C 83.078125 40.132812 83.078125 40.210938 83.253906 40.210938 C 83.332031 40.210938 83.351562 40.210938 83.507812 40.015625 C 83.917969 39.410156 84.621094 39.058594 85.363281 39.058594 C 86.164062 39.058594 86.554688 39.78125 86.671875 40.035156 C 86.925781 40.621094 86.945312 41.363281 86.945312 41.929688 C 86.945312 42.496094 86.945312 43.335938 86.515625 44.019531 C 86.183594 44.546875 85.617188 44.917969 84.953125 44.917969 C 83.957031 44.917969 83 44.253906 82.726562 43.160156 C 82.804688 43.199219 82.882812 43.199219 82.960938 43.199219 C 83.214844 43.199219 83.625 43.0625 83.625 42.554688 C 83.625 42.125 83.332031 41.890625 82.960938 41.890625 C 82.6875 41.890625 82.296875 42.027344 82.296875 42.613281 C 82.296875 43.882812 83.332031 45.328125 84.972656 45.328125 C 86.671875 45.328125 88.15625 43.902344 88.15625 42.007812 C 88.15625 40.230469 86.945312 38.746094 85.382812 38.746094 C 84.523438 38.746094 83.878906 39.136719 83.488281 39.546875 Z M 83.488281 36.460938 "/>
<path style=" stroke:none;fill-rule:nonzero;fill:rgb(0%,0%,0%);fill-opacity:1;" d="M 55.160156 51.183594 L 88.910156 51.183594 L 88.910156 51.785156 L 55.160156 51.785156 Z M 55.160156 51.183594 "/>
<path style=" stroke:none;fill-rule:nonzero;fill:rgb(0%,0%,0%);fill-opacity:1;" d="M 71.128906 60.046875 C 70.875 60.066406 70.816406 60.085938 70.816406 60.222656 C 70.816406 60.359375 70.894531 60.359375 71.148438 60.359375 L 71.832031 60.359375 C 73.121094 60.359375 73.6875 61.414062 73.6875 62.839844 C 73.6875 64.8125 72.671875 65.320312 71.929688 65.320312 C 71.207031 65.320312 69.996094 64.988281 69.546875 63.992188 C 70.035156 64.070312 70.464844 63.796875 70.464844 63.269531 C 70.464844 62.839844 70.152344 62.527344 69.742188 62.527344 C 69.371094 62.527344 68.980469 62.742188 68.980469 63.308594 C 68.980469 64.636719 70.308594 65.730469 71.96875 65.730469 C 73.746094 65.730469 75.074219 64.363281 75.074219 62.859375 C 75.074219 61.492188 73.960938 60.417969 72.535156 60.164062 C 73.824219 59.792969 74.664062 58.699219 74.664062 57.527344 C 74.664062 56.355469 73.433594 55.476562 71.988281 55.476562 C 70.503906 55.476562 69.390625 56.394531 69.390625 57.488281 C 69.390625 58.074219 69.859375 58.210938 70.074219 58.210938 C 70.386719 58.210938 70.757812 57.976562 70.757812 57.527344 C 70.757812 57.058594 70.386719 56.84375 70.054688 56.84375 C 69.976562 56.84375 69.9375 56.84375 69.898438 56.863281 C 70.464844 55.847656 71.871094 55.847656 71.949219 55.847656 C 72.4375 55.847656 73.414062 56.0625 73.414062 57.527344 C 73.414062 57.820312 73.375 58.640625 72.925781 59.285156 C 72.476562 59.949219 71.96875 59.988281 71.578125 60.007812 Z M 71.128906 60.046875 "/>
<path style=" stroke:none;fill-rule:nonzero;fill:rgb(0%,0%,0%);fill-opacity:1;" d="M 97.792969 45.21875 C 97.8125 45.160156 97.832031 45.082031 97.832031 45.003906 C 97.832031 44.847656 97.675781 44.847656 97.65625 44.847656 C 97.636719 44.847656 96.914062 44.90625 96.835938 44.925781 C 96.582031 44.945312 96.347656 44.964844 96.09375 44.984375 C 95.703125 45.023438 95.605469 45.023438 95.605469 45.296875 C 95.605469 45.453125 95.722656 45.453125 95.9375 45.453125 C 96.660156 45.453125 96.679688 45.589844 96.679688 45.726562 C 96.679688 45.824219 96.660156 45.941406 96.640625 45.980469 L 95.722656 49.613281 C 95.566406 49.222656 95.15625 48.636719 94.375 48.636719 C 92.695312 48.636719 90.878906 50.804688 90.878906 53.03125 C 90.878906 54.496094 91.738281 55.375 92.753906 55.375 C 93.574219 55.375 94.277344 54.730469 94.6875 54.242188 C 94.84375 55.121094 95.546875 55.375 95.996094 55.375 C 96.445312 55.375 96.796875 55.101562 97.070312 54.554688 C 97.304688 54.046875 97.519531 53.148438 97.519531 53.089844 C 97.519531 53.011719 97.460938 52.953125 97.363281 52.953125 C 97.226562 52.953125 97.226562 53.03125 97.167969 53.246094 C 96.933594 54.125 96.660156 55.0625 96.035156 55.0625 C 95.605469 55.0625 95.585938 54.671875 95.585938 54.378906 C 95.585938 54.320312 95.585938 54.007812 95.683594 53.597656 Z M 94.765625 53.441406 C 94.6875 53.695312 94.6875 53.734375 94.492188 54.007812 C 94.160156 54.417969 93.496094 55.0625 92.792969 55.0625 C 92.1875 55.0625 91.835938 54.515625 91.835938 53.636719 C 91.835938 52.816406 92.304688 51.136719 92.597656 50.511719 C 93.105469 49.457031 93.808594 48.929688 94.375 48.929688 C 95.371094 48.929688 95.566406 50.160156 95.566406 50.277344 C 95.566406 50.296875 95.527344 50.472656 95.507812 50.511719 Z M 94.765625 53.441406 "/>
<path style=" stroke:none;fill-rule:nonzero;fill:rgb(0%,0%,0%);fill-opacity:1;" d="M 105.015625 49.125 C 104.527344 49.203125 104.351562 49.574219 104.351562 49.847656 C 104.351562 50.21875 104.625 50.335938 104.839844 50.335938 C 105.289062 50.335938 105.601562 49.945312 105.601562 49.535156 C 105.601562 48.910156 104.878906 48.636719 104.253906 48.636719 C 103.355469 48.636719 102.847656 49.535156 102.710938 49.808594 C 102.359375 48.695312 101.441406 48.636719 101.167969 48.636719 C 99.644531 48.636719 98.84375 50.589844 98.84375 50.921875 C 98.84375 50.980469 98.902344 51.058594 99 51.058594 C 99.117188 51.058594 99.15625 50.960938 99.175781 50.902344 C 99.683594 49.242188 100.699219 48.929688 101.128906 48.929688 C 101.792969 48.929688 101.929688 49.554688 101.929688 49.90625 C 101.929688 50.238281 101.832031 50.589844 101.65625 51.3125 L 101.148438 53.34375 C 100.933594 54.242188 100.503906 55.0625 99.703125 55.0625 C 99.625 55.0625 99.253906 55.0625 98.941406 54.867188 C 99.488281 54.769531 99.605469 54.320312 99.605469 54.144531 C 99.605469 53.851562 99.371094 53.65625 99.097656 53.65625 C 98.726562 53.65625 98.335938 53.988281 98.335938 54.457031 C 98.335938 55.082031 99.039062 55.375 99.683594 55.375 C 100.40625 55.375 100.914062 54.808594 101.226562 54.183594 C 101.460938 55.0625 102.222656 55.375 102.769531 55.375 C 104.292969 55.375 105.09375 53.402344 105.09375 53.089844 C 105.09375 53.011719 105.035156 52.953125 104.957031 52.953125 C 104.820312 52.953125 104.800781 53.03125 104.761719 53.148438 C 104.351562 54.457031 103.492188 55.0625 102.808594 55.0625 C 102.28125 55.0625 102.007812 54.671875 102.007812 54.066406 C 102.007812 53.734375 102.066406 53.5 102.300781 52.523438 L 102.828125 50.472656 C 103.042969 49.59375 103.550781 48.929688 104.253906 48.929688 C 104.273438 48.929688 104.703125 48.929688 105.015625 49.125 Z M 105.015625 49.125 "/>
<path style=" stroke:none;fill-rule:nonzero;fill:rgb(0%,0%,0%);fill-opacity:1;" d="M 116.019531 51.78125 C 116.273438 51.78125 116.546875 51.78125 116.546875 51.488281 C 116.546875 51.175781 116.273438 51.175781 116.019531 51.175781 L 107.933594 51.175781 C 107.679688 51.175781 107.40625 51.175781 107.40625 51.488281 C 107.40625 51.78125 107.679688 51.78125 107.933594 51.78125 Z M 116.019531 51.78125 "/>
<path style=" stroke:none;fill-rule:nonzero;fill:rgb(0%,0%,0%);fill-opacity:1;" d="M 119.289062 67.335938 C 119.757812 67.316406 120.011719 66.984375 120.011719 66.613281 C 120.011719 66.125 119.640625 65.871094 119.289062 65.871094 C 118.9375 65.871094 118.566406 66.105469 118.566406 66.632812 C 118.566406 67.394531 119.308594 68.019531 120.226562 68.019531 C 122.492188 68.019531 123.351562 64.523438 124.40625 60.1875 C 125.558594 55.460938 126.535156 50.695312 127.335938 45.910156 C 127.882812 42.726562 128.449219 39.738281 128.957031 37.804688 C 129.132812 37.082031 129.640625 35.148438 130.226562 35.148438 C 130.675781 35.148438 131.046875 35.421875 131.105469 35.480469 C 130.617188 35.519531 130.363281 35.851562 130.363281 36.222656 C 130.363281 36.710938 130.734375 36.945312 131.085938 36.945312 C 131.4375 36.945312 131.808594 36.730469 131.808594 36.203125 C 131.808594 35.402344 131.007812 34.816406 130.1875 34.816406 C 129.054688 34.816406 128.214844 36.4375 127.394531 39.484375 C 127.355469 39.660156 125.324219 47.160156 123.664062 56.925781 C 123.292969 59.210938 122.84375 61.710938 122.355469 63.78125 C 122.082031 64.875 121.398438 67.6875 120.1875 67.6875 C 119.660156 67.6875 119.289062 67.335938 119.289062 67.335938 Z M 119.289062 67.335938 "/>
<path style=" stroke:none;fill-rule:nonzero;fill:rgb(0%,0%,0%);fill-opacity:1;" d="M 135.6875 36.6875 C 135.84375 36.53125 136.253906 36.199219 136.429688 36.0625 C 137.035156 35.496094 137.621094 34.949219 137.621094 34.050781 C 137.621094 32.859375 136.625 32.097656 135.394531 32.097656 C 134.183594 32.097656 133.402344 32.996094 133.402344 33.894531 C 133.402344 34.382812 133.792969 34.441406 133.929688 34.441406 C 134.144531 34.441406 134.457031 34.304688 134.457031 33.914062 C 134.457031 33.40625 133.949219 33.40625 133.832031 33.40625 C 134.125 32.664062 134.789062 32.429688 135.277344 32.429688 C 136.195312 32.429688 136.683594 33.210938 136.683594 34.050781 C 136.683594 35.085938 135.960938 35.847656 134.769531 37.039062 L 133.519531 38.347656 C 133.402344 38.445312 133.402344 38.464844 133.402344 38.71875 L 137.328125 38.71875 L 137.621094 36.941406 L 137.308594 36.941406 C 137.289062 37.136719 137.210938 37.625 137.09375 37.820312 C 137.035156 37.898438 136.273438 37.898438 136.117188 37.898438 L 134.339844 37.898438 Z M 135.6875 36.6875 "/>
<path style=" stroke:none;fill-rule:nonzero;fill:rgb(0%,0%,0%);fill-opacity:1;" d="M 129.25 62.21875 C 129.25 61.945312 129.230469 61.945312 128.957031 61.945312 C 128.546875 62.335938 128.019531 62.570312 127.082031 62.570312 L 127.082031 62.902344 C 127.355469 62.902344 127.882812 62.902344 128.46875 62.648438 L 128.46875 67.746094 C 128.46875 68.117188 128.429688 68.234375 127.492188 68.234375 L 127.140625 68.234375 L 127.140625 68.566406 C 127.550781 68.527344 128.410156 68.527344 128.859375 68.527344 C 129.308594 68.527344 130.167969 68.527344 130.578125 68.566406 L 130.578125 68.234375 L 130.226562 68.234375 C 129.289062 68.234375 129.25 68.117188 129.25 67.746094 Z M 129.25 62.21875 "/>
<path style=" stroke:none;fill-rule:nonzero;fill:rgb(0%,0%,0%);fill-opacity:1;" d="M 143.589844 58.851562 C 143.589844 58.8125 143.589844 58.773438 143.335938 58.519531 C 141.832031 57.015625 140.992188 54.554688 140.992188 51.507812 C 140.992188 48.597656 141.695312 46.097656 143.433594 44.339844 C 143.589844 44.203125 143.589844 44.183594 143.589844 44.125 C 143.589844 44.046875 143.511719 44.007812 143.453125 44.007812 C 143.257812 44.007812 142.027344 45.082031 141.304688 46.546875 C 140.542969 48.070312 140.191406 49.652344 140.191406 51.507812 C 140.191406 52.835938 140.40625 54.613281 141.167969 56.195312 C 142.066406 57.992188 143.277344 58.96875 143.453125 58.96875 C 143.511719 58.96875 143.589844 58.929688 143.589844 58.851562 Z M 143.589844 58.851562 "/>
<path style=" stroke:none;fill-rule:nonzero;fill:rgb(0%,0%,0%);fill-opacity:1;" d="M 149.816406 45.492188 C 149.816406 45.199219 149.816406 45.140625 149.601562 45.140625 C 149.484375 45.140625 149.445312 45.140625 149.328125 45.316406 L 144.835938 52.289062 L 144.835938 52.71875 L 148.761719 52.71875 L 148.761719 54.085938 C 148.761719 54.632812 148.722656 54.789062 147.628906 54.789062 L 147.335938 54.789062 L 147.335938 55.21875 C 147.6875 55.179688 148.859375 55.179688 149.289062 55.179688 C 149.699219 55.179688 150.890625 55.179688 151.242188 55.21875 L 151.242188 54.789062 L 150.949219 54.789062 C 149.855469 54.789062 149.816406 54.632812 149.816406 54.085938 L 149.816406 52.71875 L 151.320312 52.71875 L 151.320312 52.289062 L 149.816406 52.289062 Z M 148.839844 46.664062 L 148.839844 52.289062 L 145.207031 52.289062 Z M 148.839844 46.664062 "/>
<path style=" stroke:none;fill-rule:nonzero;fill:rgb(0%,0%,0%);fill-opacity:1;" d="M 161.617188 51.78125 C 161.871094 51.78125 162.144531 51.78125 162.144531 51.488281 C 162.144531 51.175781 161.871094 51.175781 161.617188 51.175781 L 153.53125 51.175781 C 153.277344 51.175781 153.003906 51.175781 153.003906 51.488281 C 153.003906 51.78125 153.277344 51.78125 153.53125 51.78125 Z M 161.617188 51.78125 "/>
<path style=" stroke:none;fill-rule:nonzero;fill:rgb(0%,0%,0%);fill-opacity:1;" d="M 169.90625 52.699219 L 169.574219 52.699219 C 169.515625 52.953125 169.398438 53.792969 169.261719 54.027344 C 169.144531 54.164062 168.304688 54.164062 167.855469 54.164062 L 165.082031 54.164062 C 165.492188 53.8125 166.410156 52.855469 166.78125 52.503906 C 169.066406 50.414062 169.90625 49.632812 169.90625 48.148438 C 169.90625 46.429688 168.539062 45.277344 166.800781 45.277344 C 165.082031 45.277344 164.046875 46.761719 164.046875 48.050781 C 164.046875 48.8125 164.710938 48.8125 164.75 48.8125 C 165.082031 48.8125 165.453125 48.578125 165.453125 48.109375 C 165.453125 47.679688 165.179688 47.40625 164.75 47.40625 C 164.632812 47.40625 164.59375 47.40625 164.554688 47.425781 C 164.828125 46.410156 165.648438 45.707031 166.605469 45.707031 C 167.875 45.707031 168.65625 46.78125 168.65625 48.148438 C 168.65625 49.417969 167.933594 50.53125 167.074219 51.488281 L 164.046875 54.867188 L 164.046875 55.21875 L 169.515625 55.21875 Z M 169.90625 52.699219 "/>
<path style=" stroke:none;fill-rule:nonzero;fill:rgb(0%,0%,0%);fill-opacity:1;" d="M 177.765625 49.125 C 177.277344 49.203125 177.101562 49.574219 177.101562 49.847656 C 177.101562 50.21875 177.375 50.335938 177.589844 50.335938 C 178.039062 50.335938 178.351562 49.945312 178.351562 49.535156 C 178.351562 48.910156 177.628906 48.636719 177.003906 48.636719 C 176.105469 48.636719 175.597656 49.535156 175.460938 49.808594 C 175.109375 48.695312 174.191406 48.636719 173.917969 48.636719 C 172.394531 48.636719 171.59375 50.589844 171.59375 50.921875 C 171.59375 50.980469 171.652344 51.058594 171.75 51.058594 C 171.867188 51.058594 171.90625 50.960938 171.925781 50.902344 C 172.433594 49.242188 173.449219 48.929688 173.878906 48.929688 C 174.542969 48.929688 174.679688 49.554688 174.679688 49.90625 C 174.679688 50.238281 174.582031 50.589844 174.40625 51.3125 L 173.898438 53.34375 C 173.683594 54.242188 173.253906 55.0625 172.453125 55.0625 C 172.375 55.0625 172.003906 55.0625 171.691406 54.867188 C 172.238281 54.769531 172.355469 54.320312 172.355469 54.144531 C 172.355469 53.851562 172.121094 53.65625 171.847656 53.65625 C 171.476562 53.65625 171.085938 53.988281 171.085938 54.457031 C 171.085938 55.082031 171.789062 55.375 172.433594 55.375 C 173.15625 55.375 173.664062 54.808594 173.976562 54.183594 C 174.210938 55.0625 174.972656 55.375 175.519531 55.375 C 177.042969 55.375 177.84375 53.402344 177.84375 53.089844 C 177.84375 53.011719 177.785156 52.953125 177.707031 52.953125 C 177.570312 52.953125 177.550781 53.03125 177.511719 53.148438 C 177.101562 54.457031 176.242188 55.0625 175.558594 55.0625 C 175.03125 55.0625 174.757812 54.671875 174.757812 54.066406 C 174.757812 53.734375 174.816406 53.5 175.050781 52.523438 L 175.578125 50.472656 C 175.792969 49.59375 176.300781 48.929688 177.003906 48.929688 C 177.023438 48.929688 177.453125 48.929688 177.765625 49.125 Z M 177.765625 49.125 "/>
<path style=" stroke:none;fill-rule:nonzero;fill:rgb(0%,0%,0%);fill-opacity:1;" d="M 183.144531 51.507812 C 183.144531 50.355469 182.988281 48.519531 182.148438 46.78125 C 181.269531 44.984375 180.039062 44.007812 179.882812 44.007812 C 179.824219 44.007812 179.746094 44.046875 179.746094 44.125 C 179.746094 44.183594 179.746094 44.203125 180 44.457031 C 181.503906 45.960938 182.324219 48.441406 182.324219 51.488281 C 182.324219 54.378906 181.621094 56.878906 179.902344 58.636719 C 179.746094 58.773438 179.746094 58.8125 179.746094 58.851562 C 179.746094 58.929688 179.824219 58.96875 179.882812 58.96875 C 180.078125 58.96875 181.308594 57.894531 182.03125 56.429688 C 182.792969 54.90625 183.144531 53.285156 183.144531 51.507812 Z M 183.144531 51.507812 "/>
<path style=" stroke:none;fill-rule:nonzero;fill:rgb(0%,0%,0%);fill-opacity:1;" d="M 187.496094 51.488281 C 187.496094 51.058594 187.144531 50.6875 186.695312 50.6875 C 186.265625 50.6875 185.914062 51.058594 185.914062 51.488281 C 185.914062 51.917969 186.265625 52.269531 186.695312 52.269531 C 187.144531 52.269531 187.496094 51.917969 187.496094 51.488281 Z M 187.496094 51.488281 "/>
<path style=" stroke:none;fill-rule:nonzero;fill:rgb(0%,0%,0%);fill-opacity:1;" d="M 196.34375 45.21875 C 196.363281 45.160156 196.382812 45.082031 196.382812 45.003906 C 196.382812 44.847656 196.226562 44.847656 196.207031 44.847656 C 196.1875 44.847656 195.464844 44.90625 195.386719 44.925781 C 195.132812 44.945312 194.898438 44.964844 194.644531 44.984375 C 194.253906 45.023438 194.15625 45.023438 194.15625 45.296875 C 194.15625 45.453125 194.273438 45.453125 194.488281 45.453125 C 195.210938 45.453125 195.230469 45.589844 195.230469 45.726562 C 195.230469 45.824219 195.210938 45.941406 195.191406 45.980469 L 194.273438 49.613281 C 194.117188 49.222656 193.707031 48.636719 192.925781 48.636719 C 191.246094 48.636719 189.429688 50.804688 189.429688 53.03125 C 189.429688 54.496094 190.289062 55.375 191.304688 55.375 C 192.125 55.375 192.828125 54.730469 193.238281 54.242188 C 193.394531 55.121094 194.097656 55.375 194.546875 55.375 C 194.996094 55.375 195.347656 55.101562 195.621094 54.554688 C 195.855469 54.046875 196.070312 53.148438 196.070312 53.089844 C 196.070312 53.011719 196.011719 52.953125 195.914062 52.953125 C 195.777344 52.953125 195.777344 53.03125 195.71875 53.246094 C 195.484375 54.125 195.210938 55.0625 194.585938 55.0625 C 194.15625 55.0625 194.136719 54.671875 194.136719 54.378906 C 194.136719 54.320312 194.136719 54.007812 194.234375 53.597656 Z M 193.316406 53.441406 C 193.238281 53.695312 193.238281 53.734375 193.042969 54.007812 C 192.710938 54.417969 192.046875 55.0625 191.34375 55.0625 C 190.738281 55.0625 190.386719 54.515625 190.386719 53.636719 C 190.386719 52.816406 190.855469 51.136719 191.148438 50.511719 C 191.65625 49.457031 192.359375 48.929688 192.925781 48.929688 C 193.921875 48.929688 194.117188 50.160156 194.117188 50.277344 C 194.117188 50.296875 194.078125 50.472656 194.058594 50.511719 Z M 193.316406 53.441406 "/>
<path style=" stroke:none;fill-rule:nonzero;fill:rgb(0%,0%,0%);fill-opacity:1;" d="M 203.566406 49.125 C 203.078125 49.203125 202.902344 49.574219 202.902344 49.847656 C 202.902344 50.21875 203.175781 50.335938 203.390625 50.335938 C 203.839844 50.335938 204.152344 49.945312 204.152344 49.535156 C 204.152344 48.910156 203.429688 48.636719 202.804688 48.636719 C 201.90625 48.636719 201.398438 49.535156 201.261719 49.808594 C 200.910156 48.695312 199.992188 48.636719 199.71875 48.636719 C 198.195312 48.636719 197.394531 50.589844 197.394531 50.921875 C 197.394531 50.980469 197.453125 51.058594 197.550781 51.058594 C 197.667969 51.058594 197.707031 50.960938 197.726562 50.902344 C 198.234375 49.242188 199.25 48.929688 199.679688 48.929688 C 200.34375 48.929688 200.480469 49.554688 200.480469 49.90625 C 200.480469 50.238281 200.382812 50.589844 200.207031 51.3125 L 199.699219 53.34375 C 199.484375 54.242188 199.054688 55.0625 198.253906 55.0625 C 198.175781 55.0625 197.804688 55.0625 197.492188 54.867188 C 198.039062 54.769531 198.15625 54.320312 198.15625 54.144531 C 198.15625 53.851562 197.921875 53.65625 197.648438 53.65625 C 197.277344 53.65625 196.886719 53.988281 196.886719 54.457031 C 196.886719 55.082031 197.589844 55.375 198.234375 55.375 C 198.957031 55.375 199.464844 54.808594 199.777344 54.183594 C 200.011719 55.0625 200.773438 55.375 201.320312 55.375 C 202.84375 55.375 203.644531 53.402344 203.644531 53.089844 C 203.644531 53.011719 203.585938 52.953125 203.507812 52.953125 C 203.371094 52.953125 203.351562 53.03125 203.3125 53.148438 C 202.902344 54.457031 202.042969 55.0625 201.359375 55.0625 C 200.832031 55.0625 200.558594 54.671875 200.558594 54.066406 C 200.558594 53.734375 200.617188 53.5 200.851562 52.523438 L 201.378906 50.472656 C 201.59375 49.59375 202.101562 48.929688 202.804688 48.929688 C 202.824219 48.929688 203.253906 48.929688 203.566406 49.125 Z M 203.566406 49.125 "/>
<path style=" stroke:none;fill-rule:nonzero;fill:rgb(0%,0%,0%);fill-opacity:1;" d="M 214.570312 51.78125 C 214.824219 51.78125 215.097656 51.78125 215.097656 51.488281 C 215.097656 51.175781 214.824219 51.175781 214.570312 51.175781 L 206.484375 51.175781 C 206.230469 51.175781 205.957031 51.175781 205.957031 51.488281 C 205.957031 51.78125 206.230469 51.78125 206.484375 51.78125 Z M 214.570312 51.78125 "/>
<path style=" stroke:none;fill-rule:nonzero;fill:rgb(0%,0%,0%);fill-opacity:1;" d="M 217.835938 67.335938 C 218.304688 67.316406 218.558594 66.984375 218.558594 66.613281 C 218.558594 66.125 218.1875 65.871094 217.835938 65.871094 C 217.484375 65.871094 217.113281 66.105469 217.113281 66.632812 C 217.113281 67.394531 217.855469 68.019531 218.773438 68.019531 C 221.039062 68.019531 221.898438 64.523438 222.953125 60.1875 C 224.105469 55.460938 225.082031 50.695312 225.882812 45.910156 C 226.429688 42.726562 226.996094 39.738281 227.503906 37.804688 C 227.679688 37.082031 228.1875 35.148438 228.773438 35.148438 C 229.222656 35.148438 229.59375 35.421875 229.652344 35.480469 C 229.164062 35.519531 228.910156 35.851562 228.910156 36.222656 C 228.910156 36.710938 229.28125 36.945312 229.632812 36.945312 C 229.984375 36.945312 230.355469 36.730469 230.355469 36.203125 C 230.355469 35.402344 229.554688 34.816406 228.734375 34.816406 C 227.601562 34.816406 226.761719 36.4375 225.941406 39.484375 C 225.902344 39.660156 223.871094 47.160156 222.210938 56.925781 C 221.839844 59.210938 221.390625 61.710938 220.902344 63.78125 C 220.628906 64.875 219.945312 67.6875 218.734375 67.6875 C 218.207031 67.6875 217.835938 67.335938 217.835938 67.335938 Z M 217.835938 67.335938 "/>
<path style=" stroke:none;fill-rule:nonzero;fill:rgb(0%,0%,0%);fill-opacity:1;" d="M 235.199219 32.273438 C 235.199219 32.078125 235.199219 32 234.984375 32 C 234.867188 32 234.847656 32 234.75 32.136719 L 231.566406 36.765625 L 231.566406 37.078125 L 234.378906 37.078125 L 234.378906 37.917969 C 234.378906 38.289062 234.359375 38.386719 233.578125 38.386719 L 233.363281 38.386719 L 233.363281 38.71875 C 234.203125 38.679688 234.222656 38.679688 234.789062 38.679688 C 235.355469 38.679688 235.375 38.679688 236.214844 38.71875 L 236.214844 38.386719 L 236 38.386719 C 235.21875 38.386719 235.199219 38.289062 235.199219 37.917969 L 235.199219 37.078125 L 236.253906 37.078125 L 236.253906 36.765625 L 235.199219 36.765625 Z M 234.457031 33.074219 L 234.457031 36.765625 L 231.917969 36.765625 Z M 234.457031 33.074219 "/>
<path style=" stroke:none;fill-rule:nonzero;fill:rgb(0%,0%,0%);fill-opacity:1;" d="M 227.488281 66.535156 C 227.644531 66.378906 228.054688 66.046875 228.230469 65.910156 C 228.835938 65.34375 229.421875 64.796875 229.421875 63.898438 C 229.421875 62.707031 228.425781 61.945312 227.195312 61.945312 C 225.984375 61.945312 225.203125 62.84375 225.203125 63.742188 C 225.203125 64.230469 225.59375 64.289062 225.730469 64.289062 C 225.945312 64.289062 226.257812 64.152344 226.257812 63.761719 C 226.257812 63.253906 225.75 63.253906 225.632812 63.253906 C 225.925781 62.511719 226.589844 62.277344 227.078125 62.277344 C 227.996094 62.277344 228.484375 63.058594 228.484375 63.898438 C 228.484375 64.933594 227.761719 65.695312 226.570312 66.886719 L 225.320312 68.195312 C 225.203125 68.292969 225.203125 68.3125 225.203125 68.566406 L 229.128906 68.566406 L 229.421875 66.789062 L 229.109375 66.789062 C 229.089844 66.984375 229.011719 67.472656 228.894531 67.667969 C 228.835938 67.746094 228.074219 67.746094 227.917969 67.746094 L 226.140625 67.746094 Z M 227.488281 66.535156 "/>
<path style=" stroke:none;fill-rule:nonzero;fill:rgb(0%,0%,0%);fill-opacity:1;" d="M 250.125 69.164062 C 250.125 69.105469 250.105469 69.066406 250.066406 69.027344 C 249.519531 68.480469 248.523438 67.484375 247.527344 65.863281 C 245.105469 62.015625 244.03125 57.152344 244.03125 51.390625 C 244.03125 47.386719 244.558594 42.191406 247.019531 37.738281 C 248.210938 35.628906 249.441406 34.398438 250.085938 33.734375 C 250.125 33.695312 250.125 33.65625 250.125 33.617188 C 250.125 33.460938 250.027344 33.460938 249.8125 33.460938 C 249.617188 33.460938 249.578125 33.460938 249.363281 33.695312 C 244.34375 38.246094 242.78125 45.101562 242.78125 51.390625 C 242.78125 57.25 244.128906 63.167969 247.917969 67.640625 C 248.230469 67.992188 248.796875 68.597656 249.402344 69.125 C 249.578125 69.320312 249.617188 69.320312 249.8125 69.320312 C 250.027344 69.320312 250.125 69.320312 250.125 69.164062 Z M 250.125 69.164062 "/>
<path style=" stroke:none;fill-rule:nonzero;fill:rgb(0%,0%,0%);fill-opacity:1;" d="M 255.027344 39.644531 C 254.773438 39.664062 254.714844 39.683594 254.714844 39.820312 C 254.714844 39.957031 254.792969 39.957031 255.046875 39.957031 L 255.730469 39.957031 C 257.019531 39.957031 257.585938 41.011719 257.585938 42.4375 C 257.585938 44.410156 256.570312 44.917969 255.828125 44.917969 C 255.105469 44.917969 253.894531 44.585938 253.445312 43.589844 C 253.933594 43.667969 254.363281 43.394531 254.363281 42.867188 C 254.363281 42.4375 254.050781 42.125 253.640625 42.125 C 253.269531 42.125 252.878906 42.339844 252.878906 42.90625 C 252.878906 44.234375 254.207031 45.328125 255.867188 45.328125 C 257.644531 45.328125 258.972656 43.960938 258.972656 42.457031 C 258.972656 41.089844 257.859375 40.015625 256.433594 39.761719 C 257.722656 39.390625 258.5625 38.296875 258.5625 37.125 C 258.5625 35.953125 257.332031 35.074219 255.886719 35.074219 C 254.402344 35.074219 253.289062 35.992188 253.289062 37.085938 C 253.289062 37.671875 253.757812 37.808594 253.972656 37.808594 C 254.285156 37.808594 254.65625 37.574219 254.65625 37.125 C 254.65625 36.65625 254.285156 36.441406 253.953125 36.441406 C 253.875 36.441406 253.835938 36.441406 253.796875 36.460938 C 254.363281 35.445312 255.769531 35.445312 255.847656 35.445312 C 256.335938 35.445312 257.3125 35.660156 257.3125 37.125 C 257.3125 37.417969 257.273438 38.238281 256.824219 38.882812 C 256.375 39.546875 255.867188 39.585938 255.476562 39.605469 Z M 255.027344 39.644531 "/>
<path style=" stroke:none;fill-rule:nonzero;fill:rgb(0%,0%,0%);fill-opacity:1;" d="M 266.714844 38.921875 C 266.226562 39 266.050781 39.371094 266.050781 39.644531 C 266.050781 40.015625 266.324219 40.132812 266.539062 40.132812 C 266.988281 40.132812 267.300781 39.742188 267.300781 39.332031 C 267.300781 38.707031 266.578125 38.433594 265.953125 38.433594 C 265.054688 38.433594 264.546875 39.332031 264.410156 39.605469 C 264.058594 38.492188 263.140625 38.433594 262.867188 38.433594 C 261.34375 38.433594 260.542969 40.386719 260.542969 40.71875 C 260.542969 40.777344 260.601562 40.855469 260.699219 40.855469 C 260.816406 40.855469 260.855469 40.757812 260.875 40.699219 C 261.382812 39.039062 262.398438 38.726562 262.828125 38.726562 C 263.492188 38.726562 263.628906 39.351562 263.628906 39.703125 C 263.628906 40.035156 263.53125 40.386719 263.355469 41.109375 L 262.847656 43.140625 C 262.632812 44.039062 262.203125 44.859375 261.402344 44.859375 C 261.324219 44.859375 260.953125 44.859375 260.640625 44.664062 C 261.1875 44.566406 261.304688 44.117188 261.304688 43.941406 C 261.304688 43.648438 261.070312 43.453125 260.796875 43.453125 C 260.425781 43.453125 260.035156 43.785156 260.035156 44.253906 C 260.035156 44.878906 260.738281 45.171875 261.382812 45.171875 C 262.105469 45.171875 262.613281 44.605469 262.925781 43.980469 C 263.160156 44.859375 263.921875 45.171875 264.46875 45.171875 C 265.992188 45.171875 266.792969 43.199219 266.792969 42.886719 C 266.792969 42.808594 266.734375 42.75 266.65625 42.75 C 266.519531 42.75 266.5 42.828125 266.460938 42.945312 C 266.050781 44.253906 265.191406 44.859375 264.507812 44.859375 C 263.980469 44.859375 263.707031 44.46875 263.707031 43.863281 C 263.707031 43.53125 263.765625 43.296875 264 42.320312 L 264.527344 40.269531 C 264.742188 39.390625 265.25 38.726562 265.953125 38.726562 C 265.972656 38.726562 266.402344 38.726562 266.714844 38.921875 Z M 266.714844 38.921875 "/>
<path style=" stroke:none;fill-rule:nonzero;fill:rgb(0%,0%,0%);fill-opacity:1;" d="M 252.261719 51.183594 L 268.011719 51.183594 L 268.011719 51.785156 L 252.261719 51.785156 Z M 252.261719 51.183594 "/>
<path style=" stroke:none;fill-rule:nonzero;fill:rgb(0%,0%,0%);fill-opacity:1;" d="M 262.90625 62.898438 L 262.574219 62.898438 C 262.515625 63.152344 262.398438 63.992188 262.261719 64.226562 C 262.144531 64.363281 261.304688 64.363281 260.855469 64.363281 L 258.082031 64.363281 C 258.492188 64.011719 259.410156 63.054688 259.78125 62.703125 C 262.066406 60.613281 262.90625 59.832031 262.90625 58.347656 C 262.90625 56.628906 261.539062 55.476562 259.800781 55.476562 C 258.082031 55.476562 257.046875 56.960938 257.046875 58.25 C 257.046875 59.011719 257.710938 59.011719 257.75 59.011719 C 258.082031 59.011719 258.453125 58.777344 258.453125 58.308594 C 258.453125 57.878906 258.179688 57.605469 257.75 57.605469 C 257.632812 57.605469 257.59375 57.605469 257.554688 57.625 C 257.828125 56.609375 258.648438 55.90625 259.605469 55.90625 C 260.875 55.90625 261.65625 56.980469 261.65625 58.347656 C 261.65625 59.617188 260.933594 60.730469 260.074219 61.6875 L 257.046875 65.066406 L 257.046875 65.417969 L 262.515625 65.417969 Z M 262.90625 62.898438 "/>
<path style=" stroke:none;fill-rule:nonzero;fill:rgb(0%,0%,0%);fill-opacity:1;" d="M 282.519531 51.78125 C 282.773438 51.78125 283.046875 51.78125 283.046875 51.488281 C 283.046875 51.175781 282.773438 51.175781 282.519531 51.175781 L 274.433594 51.175781 C 274.179688 51.175781 273.90625 51.175781 273.90625 51.488281 C 273.90625 51.78125 274.179688 51.78125 274.433594 51.78125 Z M 282.519531 51.78125 "/>
<path style=" stroke:none;fill-rule:nonzero;fill:rgb(0%,0%,0%);fill-opacity:1;" d="M 290.429688 49.847656 C 290.175781 49.867188 290.117188 49.886719 290.117188 50.023438 C 290.117188 50.160156 290.195312 50.160156 290.449219 50.160156 L 291.132812 50.160156 C 292.421875 50.160156 292.988281 51.214844 292.988281 52.640625 C 292.988281 54.613281 291.972656 55.121094 291.230469 55.121094 C 290.507812 55.121094 289.296875 54.789062 288.847656 53.792969 C 289.335938 53.871094 289.765625 53.597656 289.765625 53.070312 C 289.765625 52.640625 289.453125 52.328125 289.042969 52.328125 C 288.671875 52.328125 288.28125 52.542969 288.28125 53.109375 C 288.28125 54.4375 289.609375 55.53125 291.269531 55.53125 C 293.046875 55.53125 294.375 54.164062 294.375 52.660156 C 294.375 51.292969 293.261719 50.21875 291.835938 49.964844 C 293.125 49.59375 293.964844 48.5 293.964844 47.328125 C 293.964844 46.15625 292.734375 45.277344 291.289062 45.277344 C 289.804688 45.277344 288.691406 46.195312 288.691406 47.289062 C 288.691406 47.875 289.160156 48.011719 289.375 48.011719 C 289.6875 48.011719 290.058594 47.777344 290.058594 47.328125 C 290.058594 46.859375 289.6875 46.644531 289.355469 46.644531 C 289.277344 46.644531 289.238281 46.644531 289.199219 46.664062 C 289.765625 45.648438 291.171875 45.648438 291.25 45.648438 C 291.738281 45.648438 292.714844 45.863281 292.714844 47.328125 C 292.714844 47.621094 292.675781 48.441406 292.226562 49.085938 C 291.777344 49.75 291.269531 49.789062 290.878906 49.808594 Z M 290.429688 49.847656 "/>
<path style=" stroke:none;fill-rule:nonzero;fill:rgb(0%,0%,0%);fill-opacity:1;" d="M 302.894531 51.390625 C 302.894531 45.53125 301.546875 39.613281 297.757812 35.140625 C 297.464844 34.789062 296.898438 34.183594 296.273438 33.65625 C 296.097656 33.460938 296.078125 33.460938 295.863281 33.460938 C 295.6875 33.460938 295.550781 33.460938 295.550781 33.617188 C 295.550781 33.675781 295.609375 33.734375 295.628906 33.773438 C 296.15625 34.300781 297.152344 35.296875 298.167969 36.917969 C 300.570312 40.765625 301.664062 45.628906 301.664062 51.390625 C 301.664062 55.394531 301.117188 60.589844 298.65625 65.042969 C 297.464844 67.152344 296.234375 68.402344 295.609375 69.027344 C 295.570312 69.066406 295.550781 69.125 295.550781 69.164062 C 295.550781 69.320312 295.6875 69.320312 295.863281 69.320312 C 296.078125 69.320312 296.097656 69.320312 296.332031 69.085938 C 301.332031 64.535156 302.894531 57.679688 302.894531 51.390625 Z M 302.894531 51.390625 "/>
<path style=" stroke:none;fill-rule:nonzero;fill:rgb(0%,0%,0%);fill-opacity:1;" d="M 315.894531 45.21875 C 315.914062 45.160156 315.933594 45.082031 315.933594 45.003906 C 315.933594 44.847656 315.777344 44.847656 315.757812 44.847656 C 315.738281 44.847656 315.015625 44.90625 314.9375 44.925781 C 314.683594 44.945312 314.449219 44.964844 314.195312 44.984375 C 313.804688 45.023438 313.707031 45.023438 313.707031 45.296875 C 313.707031 45.453125 313.824219 45.453125 314.039062 45.453125 C 314.761719 45.453125 314.78125 45.589844 314.78125 45.726562 C 314.78125 45.824219 314.761719 45.941406 314.742188 45.980469 L 313.824219 49.613281 C 313.667969 49.222656 313.257812 48.636719 312.476562 48.636719 C 310.796875 48.636719 308.980469 50.804688 308.980469 53.03125 C 308.980469 54.496094 309.839844 55.375 310.855469 55.375 C 311.675781 55.375 312.378906 54.730469 312.789062 54.242188 C 312.945312 55.121094 313.648438 55.375 314.097656 55.375 C 314.546875 55.375 314.898438 55.101562 315.171875 54.554688 C 315.40625 54.046875 315.621094 53.148438 315.621094 53.089844 C 315.621094 53.011719 315.5625 52.953125 315.464844 52.953125 C 315.328125 52.953125 315.328125 53.03125 315.269531 53.246094 C 315.035156 54.125 314.761719 55.0625 314.136719 55.0625 C 313.707031 55.0625 313.6875 54.671875 313.6875 54.378906 C 313.6875 54.320312 313.6875 54.007812 313.785156 53.597656 Z M 312.867188 53.441406 C 312.789062 53.695312 312.789062 53.734375 312.59375 54.007812 C 312.261719 54.417969 311.597656 55.0625 310.894531 55.0625 C 310.289062 55.0625 309.9375 54.515625 309.9375 53.636719 C 309.9375 52.816406 310.40625 51.136719 310.699219 50.511719 C 311.207031 49.457031 311.910156 48.929688 312.476562 48.929688 C 313.472656 48.929688 313.667969 50.160156 313.667969 50.277344 C 313.667969 50.296875 313.628906 50.472656 313.609375 50.511719 Z M 312.867188 53.441406 "/>
<path style=" stroke:none;fill-rule:nonzero;fill:rgb(0%,0%,0%);fill-opacity:1;" d="M 323.113281 49.125 C 322.625 49.203125 322.449219 49.574219 322.449219 49.847656 C 322.449219 50.21875 322.722656 50.335938 322.9375 50.335938 C 323.386719 50.335938 323.699219 49.945312 323.699219 49.535156 C 323.699219 48.910156 322.976562 48.636719 322.351562 48.636719 C 321.453125 48.636719 320.945312 49.535156 320.808594 49.808594 C 320.457031 48.695312 319.539062 48.636719 319.265625 48.636719 C 317.742188 48.636719 316.941406 50.589844 316.941406 50.921875 C 316.941406 50.980469 317 51.058594 317.097656 51.058594 C 317.214844 51.058594 317.253906 50.960938 317.273438 50.902344 C 317.78125 49.242188 318.796875 48.929688 319.226562 48.929688 C 319.890625 48.929688 320.027344 49.554688 320.027344 49.90625 C 320.027344 50.238281 319.929688 50.589844 319.753906 51.3125 L 319.246094 53.34375 C 319.03125 54.242188 318.601562 55.0625 317.800781 55.0625 C 317.722656 55.0625 317.351562 55.0625 317.039062 54.867188 C 317.585938 54.769531 317.703125 54.320312 317.703125 54.144531 C 317.703125 53.851562 317.46875 53.65625 317.195312 53.65625 C 316.824219 53.65625 316.433594 53.988281 316.433594 54.457031 C 316.433594 55.082031 317.136719 55.375 317.78125 55.375 C 318.503906 55.375 319.011719 54.808594 319.324219 54.183594 C 319.558594 55.0625 320.320312 55.375 320.867188 55.375 C 322.390625 55.375 323.191406 53.402344 323.191406 53.089844 C 323.191406 53.011719 323.132812 52.953125 323.054688 52.953125 C 322.917969 52.953125 322.898438 53.03125 322.859375 53.148438 C 322.449219 54.457031 321.589844 55.0625 320.90625 55.0625 C 320.378906 55.0625 320.105469 54.671875 320.105469 54.066406 C 320.105469 53.734375 320.164062 53.5 320.398438 52.523438 L 320.925781 50.472656 C 321.140625 49.59375 321.648438 48.929688 322.351562 48.929688 C 322.371094 48.929688 322.800781 48.929688 323.113281 49.125 Z M 323.113281 49.125 "/>
</g>
</svg>
