<?xml version="1.0"?>
<svg width="779" height="430" xmlns="http://www.w3.org/2000/svg" xmlns:svg="http://www.w3.org/2000/svg" xmlns:xlink="http://www.w3.org/1999/xlink" class="main-svg">
 <defs>
  <g id="svg_138" class="clips">
   <clipPath id="clip507fdbx" class="axesclip">
    <rect id="svg_139" height="430" width="779" y="0" x="0"/>
   </clipPath>
   <clipPath id="clip507fdby" class="axesclip">
    <rect id="svg_140" height="430" width="779" y="0" x="0"/>
   </clipPath>
   <clipPath id="clip507fdbxy" class="axesclip">
    <rect id="svg_141" height="430" width="779" y="0" x="0"/>
   </clipPath>
  </g>
 </defs>
 <g>
  <title>Layer 1</title>
  <rect id="svg_142" fill="rgb(255, 255, 255)" height="430" width="779" y="0" x="0"/>
  <g id="svg_143" class="draglayer">
   <g id="svg_144"/>
  </g>
  <g id="svg_145" class="subplot xy">
   <rect id="svg_146" stroke-width="0px" fill="rgb(0, 0, 0)" fill-opacity="0" height="430" width="779" y="-1" x="0"/>
   <g id="svg_147">
    <path id="svg_148" stroke="rgb(238, 238, 238)" stroke-width="1px" d="m97.379997,-1l0,430" class="xgrid crisp"/>
    <path id="svg_149" stroke="rgb(238, 238, 238)" stroke-width="1px" d="m194.75,-1l0,430" class="xgrid crisp"/>
    <path id="svg_150" stroke="rgb(238, 238, 238)" stroke-width="1px" d="m292.130005,-1l0,430" class="xgrid crisp"/>
    <path id="svg_151" stroke="rgb(238, 238, 238)" stroke-width="1px" d="m486.880005,-1l0,430" class="xgrid crisp"/>
    <path id="svg_152" stroke="rgb(238, 238, 238)" stroke-width="1px" d="m584.25,-1l0,430" class="xgrid crisp"/>
    <path id="svg_153" stroke="rgb(238, 238, 238)" stroke-width="1px" d="m681.630005,-1l0,430" class="xgrid crisp"/>
    <path id="svg_154" stroke="rgb(238, 238, 238)" stroke-width="1px" d="m0,375.25l779,0" class="ygrid crisp"/>
    <path id="svg_155" stroke="rgb(238, 238, 238)" stroke-width="1px" d="m0,321.5l779,0" class="ygrid crisp"/>
    <path id="svg_156" stroke="rgb(238, 238, 238)" stroke-width="1px" d="m0,267.75l779,0" class="ygrid crisp"/>
    <path id="svg_157" stroke="rgb(238, 238, 238)" stroke-width="1px" d="m0,160.25l779,0" class="ygrid crisp"/>
    <path id="svg_158" stroke="rgb(238, 238, 238)" stroke-width="1px" d="m0,106.5l779,0" class="ygrid crisp"/>
    <path id="svg_159" stroke="rgb(238, 238, 238)" stroke-width="1px" d="m0,52.75l779,0" class="ygrid crisp"/>
   </g>
   <g id="svg_160"/>
   <g id="svg_161">
    <path id="svg_162" stroke="rgb(68, 68, 68)" stroke-width="2px" d="m389.5,-1l0,430" class="xzl zl crisp"/>
    <path id="svg_163" stroke="rgb(68, 68, 68)" stroke-width="2px" d="m0,214l779,0" class="yzl zl crisp"/>
   </g>
   <g id="svg_164"/>
   <svg id="svg_165" viewBox="0 0 779 430" height="430" width="779" y="-1" x="0" preserveAspectRatio="none">
    <g id="svg_166" class="maplayer"/>
    <g id="svg_167" class="barlayer"/>
    <g id="svg_168" class="errorlayer">
     <g id="svg_169" class="errorbars"/>
    </g>
    <g id="svg_170" class="boxlayer"/>
    <g id="svg_171" class="scatterlayer">
     <g id="svg_172" stroke-miterlimit="2" class="trace scatter">
      <g id="svg_173" class="points">
       <path id="svg_174" stroke-width="0px" fill="rgb(31, 119, 180)" d="m589.25,107.5a5,5 0 1 1 -5,-5a5,5 0 0 1 5,5z" class="point"/>
       <path id="svg_175" stroke-width="0px" fill="rgb(31, 119, 180)" d="m589.25,322.5a5,5 0 1 1 -5,-5a5,5 0 0 1 5,5z" class="point"/>
       <path id="svg_176" stroke-width="0px" fill="rgb(31, 119, 180)" d="m199.75,107.5a5,5 0 1 1 -5,-5a5,5 0 0 1 5,5z" class="point"/>
       <path id="svg_177" stroke-width="0px" fill="rgb(31, 119, 180)" d="m199.75,322.5a5,5 0 1 1 -5,-5a5,5 0 0 1 5,5z" class="point"/>
      </g>
     </g>
    </g>
   </svg>
   <g id="svg_178"/>
   <path id="svg_179" fill="none" stroke-width="1px" stroke="rgb(0, 0, 0)" stroke-opacity="0" d="m-1,429.5l781,0" class="crisp"/>
   <path id="svg_180" fill="none" stroke="rgb(0, 0, 0)" stroke-opacity="0" stroke-width="1px" d="m-0.5,-2l0,431" class="crisp"/>
   <g id="svg_181"/>
   <g id="svg_182">
    <g id="svg_183" class="xtick">
     <text id="svg_184" font-family="&#x27;Droid Sans', sans-serif" font-size="28px" fill="rgb(68, 68, 68)" y="459" x="0" text-anchor="middle">−4</text>
    </g>
    <g id="svg_185" class="xtick">
     <text id="svg_186" font-family="&#x27;Droid Sans', sans-serif" font-size="28px" fill="rgb(68, 68, 68)" y="459" x="97.379997" text-anchor="middle">−3</text>
    </g>
    <g id="svg_187" class="xtick">
     <text id="svg_188" font-family="&#x27;Droid Sans', sans-serif" font-size="28px" fill="rgb(68, 68, 68)" y="459" x="194.75" text-anchor="middle">−2</text>
    </g>
    <g id="svg_189" class="xtick">
     <text id="svg_190" font-family="&#x27;Droid Sans', sans-serif" font-size="28px" fill="rgb(68, 68, 68)" y="459" x="292.130005" text-anchor="middle">−1</text>
    </g>
    <g id="svg_191" class="xtick">
     <text id="svg_192" font-family="&#x27;Droid Sans', sans-serif" font-size="28px" fill="rgb(68, 68, 68)" y="459" x="389.5" text-anchor="middle">0</text>
    </g>
    <g id="svg_193" class="xtick">
     <text id="svg_194" font-family="&#x27;Droid Sans', sans-serif" font-size="28px" fill="rgb(68, 68, 68)" y="459" x="486.880005" text-anchor="middle">1</text>
    </g>
    <g id="svg_195" class="xtick">
     <text id="svg_196" font-family="&#x27;Droid Sans', sans-serif" font-size="28px" fill="rgb(68, 68, 68)" y="459" x="584.25" text-anchor="middle">2</text>
    </g>
    <g id="svg_197" class="xtick">
     <text id="svg_198" font-family="&#x27;Droid Sans', sans-serif" font-size="28px" fill="rgb(68, 68, 68)" y="459" x="681.630005" text-anchor="middle">3</text>
    </g>
    <g id="svg_199" class="xtick">
     <text id="svg_200" font-family="&#x27;Droid Sans', sans-serif" font-size="28px" fill="rgb(68, 68, 68)" y="459" x="779" text-anchor="middle">4</text>
    </g>
   </g>
   <g id="svg_201">
    <g id="svg_202" class="ytick">
     <text id="svg_203" font-family="&#x27;Droid Sans', sans-serif" font-size="28px" fill="rgb(68, 68, 68)" y="443" x="-2" text-anchor="end">−4</text>
    </g>
    <g id="svg_204" class="ytick">
     <text id="svg_205" font-family="&#x27;Droid Sans', sans-serif" font-size="28px" fill="rgb(68, 68, 68)" y="389.25" x="-2" text-anchor="end">−3</text>
    </g>
    <g id="svg_206" class="ytick">
     <text id="svg_207" font-family="&#x27;Droid Sans', sans-serif" font-size="28px" fill="rgb(68, 68, 68)" y="335.5" x="-2" text-anchor="end">−2</text>
    </g>
    <g id="svg_208" class="ytick">
     <text id="svg_209" font-family="&#x27;Droid Sans', sans-serif" font-size="28px" fill="rgb(68, 68, 68)" y="281.75" x="-2" text-anchor="end">−1</text>
    </g>
    <g id="svg_210" class="ytick">
     <text id="svg_211" font-family="&#x27;Droid Sans', sans-serif" font-size="28px" fill="rgb(68, 68, 68)" y="228" x="-2" text-anchor="end">0</text>
    </g>
    <g id="svg_212" class="ytick">
     <text id="svg_213" font-family="&#x27;Droid Sans', sans-serif" font-size="28px" fill="rgb(68, 68, 68)" y="174.25" x="-2" text-anchor="end">1</text>
    </g>
    <g id="svg_214" class="ytick">
     <text id="svg_215" font-family="&#x27;Droid Sans', sans-serif" font-size="28px" fill="rgb(68, 68, 68)" y="120.5" x="-2" text-anchor="end">2</text>
    </g>
    <g id="svg_216" class="ytick">
     <text id="svg_217" font-family="&#x27;Droid Sans', sans-serif" font-size="28px" fill="rgb(68, 68, 68)" y="66.75" x="-2" text-anchor="end">3</text>
    </g>
    <g id="svg_218" class="ytick">
     <text id="svg_219" font-family="&#x27;Droid Sans', sans-serif" font-size="28px" fill="rgb(68, 68, 68)" y="13" x="-2" text-anchor="end">4</text>
    </g>
   </g>
   <g id="svg_220"/>
  </g>
  <g id="svg_221" class="shapelayer"/>
  <g id="svg_222" class="pielayer"/>
  <g id="svg_223" class="glimages"/>
  <g id="svg_224" class="geoimages"/>
  <text id="svg_225" font-family="&#x27;Open Sans', Arial, sans-serif" font-size="12px" fill="rgb(68, 68, 68)" x="772" text-anchor="end" y="421" class="js-plot-link-container"/>
  <g id="svg_227" class="g-gtitle"/>
  <g id="svg_228" class="g-xtitle"/>
  <g id="svg_229" class="g-ytitle"/>
  <g id="svg_230" class="annotation">
   <g transform="matrix(1.60766 0 0 1.60766 -343.629 -20.9641)" id="svg_18" class="annotation-text-g">
    <svg id="svg_231" height="94" width="210" y="80.651785" x="540.741072">
     <rect stroke="rgb(0, 0, 0)" id="svg_232" stroke-width="1px" stroke-opacity="0" fill="rgb(0, 0, 0)" fill-opacity="0" height="93" width="209" y="0.5" x="0.5" class="bg"/>
     <g id="svg_35" class="annotation-math-group">
      <svg id="svg_233" width="16.654ex" y="2" x="1" preserveAspectRatio="xMinYMin meet" height="7.16ex" class="annotation-math" viewBox="0 -1789.8452691183916 7166.111111111111 3079.690538236783" xmlns:xlink="http://www.w3.org/1999/xlink">
       <defs>
        <path d="m208,74q0,-24 46,-28q18,0 18,-11q0,-1 -2,-13q-3,-14 -6,-18t-13,-4q-2,0 -12,0t-34,1t-64,1q-71,0 -91,-2l-8,0q-7,7 -7,11q2,27 13,35l14,0q70,3 102,50q6,6 181,305t178,303q7,12 24,12l8,0l17,0q6,-9 6,-10l28,-323q28,-323 30,-326q5,-11 65,-11q25,0 25,-10q0,-2 -3,-14q-3,-15 -5,-18t-14,-4q-3,0 -14,0t-39,1t-73,1q-94,0 -123,-2l-12,0q-6,6 -6,9t2,18q4,13 6,16l4,3l20,0q54,3 64,17l-12,150l-238,0l-34,-58q-41,-69 -41,-81zm308,186q0,11 -12,156t-14,146l-27,-43q-16,-27 -63,-107l-90,-152l103,-1q103,0 103,1z" stroke-width="10" id="svg_28"/>
        <path d="m94,250q0,69 10,131t23,107t37,88t38,67t42,52t33,34t25,21l13,0l4,0q14,0 14,-9q0,-3 -17,-21t-41,-53t-49,-86t-42,-138t-17,-193t17,-192t41,-139t49,-86t42,-53t17,-21q0,-9 -15,-9l-3,0l-13,0l-28,24q-94,85 -137,212t-43,264z" stroke-width="10" id="svg_34"/>
        <path d="m109,429q-27,0 -43,18t-16,44q0,71 53,123t132,52q91,0 152,-56t62,-145q0,-43 -20,-82t-48,-68t-80,-74q-36,-31 -100,-92l-59,-56l76,-1q157,0 167,5q7,2 24,89l0,3l40,0l0,-3q-1,-3 -13,-91t-15,-92l0,-3l-371,0l0,19l0,12q0,7 6,15t30,35q29,32 50,56q9,10 34,37t34,37t29,33t28,34t23,30t21,32t15,29t13,32t7,30t3,33q0,63 -34,109t-97,46q-33,0 -58,-17t-35,-33t-10,-19q0,-1 5,-1q18,0 37,-14t19,-46q0,-25 -16,-42t-45,-18z" stroke-width="10" id="svg_22"/>
        <path d="m127,463q-27,0 -42,17t-16,44q0,55 48,98t116,43q35,0 44,-1q74,-12 113,-53t40,-89q0,-52 -34,-101t-94,-71l-3,-2q0,-1 9,-3t29,-9t38,-21q82,-53 82,-140q0,-79 -62,-138t-157,-59q-80,0 -138,43t-58,109q0,28 18,45t45,18q28,0 46,-18t18,-45q0,-11 -3,-20t-7,-16t-11,-12t-12,-8t-10,-4t-8,-3l-4,-1q51,-45 124,-45q55,0 83,53q17,33 17,101l0,20q0,95 -64,127q-15,6 -61,7l-42,1l-3,2q-2,3 -2,16q0,18 8,18q28,0 58,5q34,5 62,42t28,112l0,8q0,57 -35,79q-22,14 -47,14q-32,0 -59,-11t-38,-23t-11,-12l3,0q3,-1 8,-2t10,-5t12,-7t10,-11t8,-15t3,-20q0,-22 -14,-39t-45,-18z" stroke-width="10" id="svg_26"/>
        <path d="m56,237t0,13t14,20l299,0l0,150l1,150q10,13 19,13q13,0 20,-15l0,-298l298,0q15,-8 15,-20t-15,-20l-298,0l0,-298q-8,-14 -18,-14l-2,0l-2,0q-12,0 -18,14l0,298l-299,0q-14,7 -14,20l0,-13z" stroke-width="10" id="svg_25"/>
        <path d="m213,578l-13,-5q-14,-5 -40,-10t-58,-7l-19,0l0,46l19,0q47,2 87,15t56,24t28,22q2,3 12,3q9,0 17,-6l0,-299l1,-300q7,-7 12,-9t24,-4t62,-2l26,0l0,-46l-11,0q-21,3 -159,3q-136,0 -157,-3l-12,0l0,46l26,0q22,0 38,0t25,1t16,3t8,2t6,5t6,4l0,517z" stroke-width="10" id="svg_21"/>
        <path d="m462,0q-18,3 -129,3q-116,0 -134,-3l-9,0l0,46l31,0q20,0 27,0t17,2t14,5t7,8q1,2 1,54l0,50l-259,0l0,46l151,231q153,232 155,233q2,2 21,2l18,0l6,-6l0,-460l92,0l0,-46l-92,0l0,-51q0,-41 0,-48t6,-12q8,-7 57,-8l29,0l0,-46l-9,0zm-169,211l0,334l-219,-333l109,-1l110,0z" stroke-width="10" id="svg_23"/>
        <path d="m95,178q-6,0 -14,8t-9,14t31,30t66,50t38,29q2,2 5,2l1,0q6,0 14,-17t54,-117q19,-43 31,-69l85,-185q1,0 104,213t206,429t107,221q6,14 20,14q7,0 12,-6t7,-12l0,-6l-233,-483l-235,-486q-4,-7 -19,-7q-9,0 -12,3q-2,2 -98,212l-96,210l-16,-11q-15,-12 -31,-24t-18,-12z" stroke-width="10" id="svg_24"/>
        <path d="m184,600q0,24 19,42t44,19q18,0 30,-12t13,-30q0,-23 -20,-42t-44,-20q-15,0 -28,10t-14,33zm-163,-313q0,8 9,31t24,51t44,51t60,22q39,0 65,-23t27,-62q0,-17 -14,-56t-40,-105t-42,-113q-5,-22 -5,-32q0,-25 17,-25q9,0 19,3t23,14t27,35t25,59q3,12 5,14t17,2q20,0 20,-10q0,-8 -9,-31t-25,-51t-45,-50t-62,-22q-32,0 -59,21t-28,64q0,17 5,32t43,114q38,101 44,121t7,39q0,24 -17,24l-2,0q-30,0 -55,-33t-38,-84q-1,-1 -2,-3t-1,-3t-2,-2t-3,-1t-4,0t-8,0l-14,0q-6,6 -6,9z" stroke-width="10" id="svg_20"/>
        <path d="m60,749l4,1q5,0 10,0l12,0l28,-24q94,-85 137,-212t43,-264q0,-68 -10,-131t-23,-107t-37,-88t-38,-67t-41,-51t-32,-33t-23,-19q-3,-3 -4,-4l-12,0q-8,0 -11,0t-5,3t-3,9q1,1 11,13q155,161 155,475t-155,475q-10,12 -11,13q0,8 5,11z" stroke-width="10" id="svg_33"/>
        <path d="m758,-1237t0,-3t-6,-9l-16,0q-18,0 -19,1q-6,3 -45,49q-435,493 -435,1450t435,1449q25,30 44,49q2,1 19,1l17,0q6,-6 6,-9q0,-4 -18,-28t-51,-69t-70,-107t-79,-157t-77,-204q-115,-374 -115,-925q0,-493 93,-850t303,-619q14,-19 14,-22l0,3z" stroke-width="10" id="svg_27"/>
        <path d="m33,1741q0,9 18,9l9,0l5,0q8,0 16,-7t38,-43q435,-493 435,-1449q0,-958 -435,-1450q-43,-51 -53,-51q-1,0 -4,0t-6,1q-1,0 -3,0t-4,-1q-16,0 -16,11q0,3 17,25t48,64t65,98t75,142t73,183q132,392 132,978q0,151 -7,281t-31,299t-66,311t-115,296t-174,278q-17,21 -17,25z" stroke-width="10" id="svg_19"/>
        <path d="m231,637q-27,0 -32,1t-5,11q0,27 11,33q1,1 130,1q259,0 273,-2q63,-10 105,-45t43,-92q0,-64 -58,-115t-133,-69l-10,-3q64,-9 105,-46t42,-92q0,-73 -72,-141t-177,-77q-7,-1 -211,-1q-200,0 -203,2q-4,3 -4,8q0,7 2,14q5,19 10,21q4,1 15,1l6,0q27,0 60,3q14,3 19,12q3,4 72,278t69,289q0,7 -57,9zm418,-93q0,30 -15,56t-49,34q-7,2 -92,3q-20,0 -42,0t-35,-1l-13,0q-15,-1 -19,-10q-2,-4 -32,-120q0,-3 -1,-6l-31,-126l81,0q81,0 93,2q60,10 107,58t48,110zm-54,-315q0,44 -23,73t-60,34q-6,1 -83,1q-118,0 -119,-1q0,-2 -17,-73t-35,-141l-18,-70q0,-4 12,-4t81,-2q89,0 96,1q62,7 114,58t52,124z" stroke-width="10" id="svg_32"/>
        <path d="m84,237t0,13t14,20l581,0q15,-8 15,-20t-15,-20l-581,0q-14,7 -14,20l0,-13z" stroke-width="10" id="svg_31"/>
        <path d="m50,252q0,115 67,221t169,168t204,63q90,0 143,-51q9,-10 15,-17t8,-10l1,-3q3,0 27,26q7,6 15,14t16,16t10,11l15,15l6,0q14,0 14,-7q0,-4 -32,-137q-36,-139 -36,-140q-2,-5 -5,-6t-18,-2l-16,0q-6,6 -6,9q0,1 1,7t2,20t1,32q0,71 -32,124t-109,54q-26,0 -56,-7t-72,-24t-83,-56t-73,-93q-32,-57 -51,-133t-19,-124q0,-114 76,-164q48,-34 118,-34q91,0 162,68t94,148q4,13 6,15t16,2q20,0 20,-9q0,-5 -1,-9q-29,-107 -124,-184t-204,-77q-113,0 -191,75t-78,199z" stroke-width="10" id="svg_30"/>
        <path d="m287,628q0,7 -57,9q-23,0 -30,1t-7,9q0,8 4,20t7,15q2,1 199,1q167,-1 187,-1t40,-6q72,-17 122,-79t51,-166q0,-156 -107,-280t-252,-148l-14,-2l-194,-1l-111,0l-53,0q-24,0 -31,2t-8,9q0,2 3,14q4,16 8,18t23,3q27,0 60,3q14,3 19,12q3,4 72,278t69,289zm416,-159q0,38 -11,68t-26,47t-37,29t-39,16t-35,7q-2,0 -14,0t-29,0t-33,1l-43,0q-44,0 -50,-10q-2,-4 -73,-288t-71,-287q0,-4 11,-4t77,-1q5,0 19,0t24,-1q126,0 208,82q36,36 59,84t43,127t20,130z" stroke-width="10" id="svg_29"/>
       </defs>
       <g stroke="rgb(68, 68, 68)" id="svg_234" transform="matrix(1 0 0 -1 0 0)" stroke-width="0" fill="rgb(68, 68, 68)">
        <use id="svg_235" xlink:href="#svg_28"/>
        <g id="svg_236">
         <use id="svg_237" x="755" y="0" xlink:href="#svg_27"/>
         <g id="svg_238">
          <g id="svg_239">
           <rect id="svg_240" y="220" x="1672" height="60" width="625"/>
           <use id="svg_241" y="676" x="1732" xlink:href="#svg_22"/>
           <use id="svg_242" y="-686" x="1732" xlink:href="#svg_26"/>
          </g>
         </g>
         <use id="svg_243" y="0" x="2639" xlink:href="#svg_25"/>
         <g id="svg_244">
          <g id="svg_245">
           <rect id="svg_246" y="220" x="3764" height="60" width="1968"/>
           <g id="svg_247">
            <use id="svg_248" y="737" x="3824" xlink:href="#svg_24"/>
            <rect id="svg_249" y="1487" x="4662" height="60" width="1010"/>
            <g id="svg_250">
             <use id="svg_251" x="4662" y="676" xlink:href="#svg_21"/>
             <use id="svg_252" y="676" x="5167" xlink:href="#svg_23"/>
            </g>
           </g>
           <g id="svg_253">
            <use id="svg_254" x="4243" y="-686" xlink:href="#svg_22"/>
            <use id="svg_255" y="-686" x="4748" xlink:href="#svg_21"/>
           </g>
          </g>
         </g>
         <use id="svg_256" y="0" x="6019" xlink:href="#svg_20"/>
         <use id="svg_257" y="0" x="6369" xlink:href="#svg_19"/>
        </g>
       </g>
      </svg>
     </g>
    </svg>
   </g>
  </g>
  <g id="svg_258" class="annotation">
   <g transform="matrix(1.62201 0 0 1.62201 -354.234 -157.679)" id="svg_52" class="annotation-text-g">
    <svg id="svg_259" height="94" width="210" y="301.705016" x="549.887905">
     <rect stroke="rgb(0, 0, 0)" id="svg_260" stroke-width="1px" stroke-opacity="0" fill="rgb(0, 0, 0)" fill-opacity="0" height="93" width="209" y="0.5" x="0.5" class="bg"/>
     <g id="svg_69" class="annotation-math-group">
      <svg id="svg_261" width="16.654ex" y="2" x="1" preserveAspectRatio="xMinYMin meet" height="7.16ex" class="annotation-math" viewBox="0 -1789.8452691183916 7175.111111111111 3079.690538236783" xmlns:xlink="http://www.w3.org/1999/xlink">
       <defs>
        <path d="m208,74q0,-24 46,-28q18,0 18,-11q0,-1 -2,-13q-3,-14 -6,-18t-13,-4q-2,0 -12,0t-34,1t-64,1q-71,0 -91,-2l-8,0q-7,7 -7,11q2,27 13,35l14,0q70,3 102,50q6,6 181,305t178,303q7,12 24,12l8,0l17,0q6,-9 6,-10l28,-323q28,-323 30,-326q5,-11 65,-11q25,0 25,-10q0,-2 -3,-14q-3,-15 -5,-18t-14,-4q-3,0 -14,0t-39,1t-73,1q-94,0 -123,-2l-12,0q-6,6 -6,9t2,18q4,13 6,16l4,3l20,0q54,3 64,17l-12,150l-238,0l-34,-58q-41,-69 -41,-81zm308,186q0,11 -12,156t-14,146l-27,-43q-16,-27 -63,-107l-90,-152l103,-1q103,0 103,1z" stroke-width="10" id="svg_68"/>
        <path d="m94,250q0,69 10,131t23,107t37,88t38,67t42,52t33,34t25,21l13,0l4,0q14,0 14,-9q0,-3 -17,-21t-41,-53t-49,-86t-42,-138t-17,-193t17,-192t41,-139t49,-86t42,-53t17,-21q0,-9 -15,-9l-3,0l-13,0l-28,24q-94,85 -137,212t-43,264z" stroke-width="10" id="svg_67"/>
        <path d="m109,429q-27,0 -43,18t-16,44q0,71 53,123t132,52q91,0 152,-56t62,-145q0,-43 -20,-82t-48,-68t-80,-74q-36,-31 -100,-92l-59,-56l76,-1q157,0 167,5q7,2 24,89l0,3l40,0l0,-3q-1,-3 -13,-91t-15,-92l0,-3l-371,0l0,19l0,12q0,7 6,15t30,35q29,32 50,56q9,10 34,37t34,37t29,33t28,34t23,30t21,32t15,29t13,32t7,30t3,33q0,63 -34,109t-97,46q-33,0 -58,-17t-35,-33t-10,-19q0,-1 5,-1q18,0 37,-14t19,-46q0,-25 -16,-42t-45,-18z" stroke-width="10" id="svg_56"/>
        <path d="m127,463q-27,0 -42,17t-16,44q0,55 48,98t116,43q35,0 44,-1q74,-12 113,-53t40,-89q0,-52 -34,-101t-94,-71l-3,-2q0,-1 9,-3t29,-9t38,-21q82,-53 82,-140q0,-79 -62,-138t-157,-59q-80,0 -138,43t-58,109q0,28 18,45t45,18q28,0 46,-18t18,-45q0,-11 -3,-20t-7,-16t-11,-12t-12,-8t-10,-4t-8,-3l-4,-1q51,-45 124,-45q55,0 83,53q17,33 17,101l0,20q0,95 -64,127q-15,6 -61,7l-42,1l-3,2q-2,3 -2,16q0,18 8,18q28,0 58,5q34,5 62,42t28,112l0,8q0,57 -35,79q-22,14 -47,14q-32,0 -59,-11t-38,-23t-11,-12l3,0q3,-1 8,-2t10,-5t12,-7t10,-11t8,-15t3,-20q0,-22 -14,-39t-45,-18z" stroke-width="10" id="svg_60"/>
        <path d="m56,237t0,13t14,20l299,0l0,150l1,150q10,13 19,13q13,0 20,-15l0,-298l298,0q15,-8 15,-20t-15,-20l-298,0l0,-298q-8,-14 -18,-14l-2,0l-2,0q-12,0 -18,14l0,298l-299,0q-14,7 -14,20l0,-13z" stroke-width="10" id="svg_66"/>
        <path d="m213,578l-13,-5q-14,-5 -40,-10t-58,-7l-19,0l0,46l19,0q47,2 87,15t56,24t28,22q2,3 12,3q9,0 17,-6l0,-299l1,-300q7,-7 12,-9t24,-4t62,-2l26,0l0,-46l-11,0q-21,3 -159,3q-136,0 -157,-3l-12,0l0,46l26,0q22,0 38,0t25,1t16,3t8,2t6,5t6,4l0,517z" stroke-width="10" id="svg_55"/>
        <path d="m462,0q-18,3 -129,3q-116,0 -134,-3l-9,0l0,46l31,0q20,0 27,0t17,2t14,5t7,8q1,2 1,54l0,50l-259,0l0,46l151,231q153,232 155,233q2,2 21,2l18,0l6,-6l0,-460l92,0l0,-46l-92,0l0,-51q0,-41 0,-48t6,-12q8,-7 57,-8l29,0l0,-46l-9,0zm-169,211l0,334l-219,-333l109,-1l110,0z" stroke-width="10" id="svg_57"/>
        <path d="m95,178q-6,0 -14,8t-9,14t31,30t66,50t38,29q2,2 5,2l1,0q6,0 14,-17t54,-117q19,-43 31,-69l85,-185q1,0 104,213t206,429t107,221q6,14 20,14q7,0 12,-6t7,-12l0,-6l-233,-483l-235,-486q-4,-7 -19,-7q-9,0 -12,3q-2,2 -98,212l-96,210l-16,-11q-15,-12 -31,-24t-18,-12z" stroke-width="10" id="svg_58"/>
        <path d="m184,600q0,24 19,42t44,19q18,0 30,-12t13,-30q0,-23 -20,-42t-44,-20q-15,0 -28,10t-14,33zm-163,-313q0,8 9,31t24,51t44,51t60,22q39,0 65,-23t27,-62q0,-17 -14,-56t-40,-105t-42,-113q-5,-22 -5,-32q0,-25 17,-25q9,0 19,3t23,14t27,35t25,59q3,12 5,14t17,2q20,0 20,-10q0,-8 -9,-31t-25,-51t-45,-50t-62,-22q-32,0 -59,21t-28,64q0,17 5,32t43,114q38,101 44,121t7,39q0,24 -17,24l-2,0q-30,0 -55,-33t-38,-84q-1,-1 -2,-3t-1,-3t-2,-2t-3,-1t-4,0t-8,0l-14,0q-6,6 -6,9z" stroke-width="10" id="svg_54"/>
        <path d="m60,749l4,1q5,0 10,0l12,0l28,-24q94,-85 137,-212t43,-264q0,-68 -10,-131t-23,-107t-37,-88t-38,-67t-41,-51t-32,-33t-23,-19q-3,-3 -4,-4l-12,0q-8,0 -11,0t-5,3t-3,9q1,1 11,13q155,161 155,475t-155,475q-10,12 -11,13q0,8 5,11z" stroke-width="10" id="svg_65"/>
        <path d="m758,-1237t0,-3t-6,-9l-16,0q-18,0 -19,1q-6,3 -45,49q-435,493 -435,1450t435,1449q25,30 44,49q2,1 19,1l17,0q6,-6 6,-9q0,-4 -18,-28t-51,-69t-70,-107t-79,-157t-77,-204q-115,-374 -115,-925q0,-493 93,-850t303,-619q14,-19 14,-22l0,3z" stroke-width="10" id="svg_61"/>
        <path d="m33,1741q0,9 18,9l9,0l5,0q8,0 16,-7t38,-43q435,-493 435,-1449q0,-958 -435,-1450q-43,-51 -53,-51q-1,0 -4,0t-6,1q-1,0 -3,0t-4,-1q-16,0 -16,11q0,3 17,25t48,64t65,98t75,142t73,183q132,392 132,978q0,151 -7,281t-31,299t-66,311t-115,296t-174,278q-17,21 -17,25z" stroke-width="10" id="svg_53"/>
        <path d="m231,637q-27,0 -32,1t-5,11q0,27 11,33q1,1 130,1q259,0 273,-2q63,-10 105,-45t43,-92q0,-64 -58,-115t-133,-69l-10,-3q64,-9 105,-46t42,-92q0,-73 -72,-141t-177,-77q-7,-1 -211,-1q-200,0 -203,2q-4,3 -4,8q0,7 2,14q5,19 10,21q4,1 15,1l6,0q27,0 60,3q14,3 19,12q3,4 72,278t69,289q0,7 -57,9zm418,-93q0,30 -15,56t-49,34q-7,2 -92,3q-20,0 -42,0t-35,-1l-13,0q-15,-1 -19,-10q-2,-4 -32,-120q0,-3 -1,-6l-31,-126l81,0q81,0 93,2q60,10 107,58t48,110zm-54,-315q0,44 -23,73t-60,34q-6,1 -83,1q-118,0 -119,-1q0,-2 -17,-73t-35,-141l-18,-70q0,-4 12,-4t81,-2q89,0 96,1q62,7 114,58t52,124z" stroke-width="10" id="svg_62"/>
        <path d="m84,237t0,13t14,20l581,0q15,-8 15,-20t-15,-20l-581,0q-14,7 -14,20l0,-13z" stroke-width="10" id="svg_59"/>
        <path d="m50,252q0,115 67,221t169,168t204,63q90,0 143,-51q9,-10 15,-17t8,-10l1,-3q3,0 27,26q7,6 15,14t16,16t10,11l15,15l6,0q14,0 14,-7q0,-4 -32,-137q-36,-139 -36,-140q-2,-5 -5,-6t-18,-2l-16,0q-6,6 -6,9q0,1 1,7t2,20t1,32q0,71 -32,124t-109,54q-26,0 -56,-7t-72,-24t-83,-56t-73,-93q-32,-57 -51,-133t-19,-124q0,-114 76,-164q48,-34 118,-34q91,0 162,68t94,148q4,13 6,15t16,2q20,0 20,-9q0,-5 -1,-9q-29,-107 -124,-184t-204,-77q-113,0 -191,75t-78,199z" stroke-width="10" id="svg_64"/>
        <path d="m287,628q0,7 -57,9q-23,0 -30,1t-7,9q0,8 4,20t7,15q2,1 199,1q167,-1 187,-1t40,-6q72,-17 122,-79t51,-166q0,-156 -107,-280t-252,-148l-14,-2l-194,-1l-111,0l-53,0q-24,0 -31,2t-8,9q0,2 3,14q4,16 8,18t23,3q27,0 60,3q14,3 19,12q3,4 72,278t69,289zm416,-159q0,38 -11,68t-26,47t-37,29t-39,16t-35,7q-2,0 -14,0t-29,0t-33,1l-43,0q-44,0 -50,-10q-2,-4 -73,-288t-71,-287q0,-4 11,-4t77,-1q5,0 19,0t24,-1q126,0 208,82q36,36 59,84t43,127t20,130z" stroke-width="10" id="svg_63"/>
       </defs>
       <g stroke="rgb(68, 68, 68)" id="svg_262" transform="matrix(1 0 0 -1 0 0)" stroke-width="0" fill="rgb(68, 68, 68)">
        <use id="svg_263" xlink:href="#svg_62"/>
        <g id="svg_264">
         <use id="svg_265" x="764" y="0" xlink:href="#svg_61"/>
         <g id="svg_266">
          <g id="svg_267">
           <rect id="svg_268" y="220" x="1681" height="60" width="625"/>
           <use id="svg_269" y="676" x="1741" xlink:href="#svg_56"/>
           <use id="svg_270" y="-686" x="1741" xlink:href="#svg_60"/>
          </g>
         </g>
         <use id="svg_271" y="0" x="2648" xlink:href="#svg_59"/>
         <g id="svg_272">
          <g id="svg_273">
           <rect id="svg_274" y="220" x="3773" height="60" width="1968"/>
           <g id="svg_275">
            <use id="svg_276" y="737" x="3833" xlink:href="#svg_58"/>
            <rect id="svg_277" y="1487" x="4671" height="60" width="1010"/>
            <g id="svg_278">
             <use id="svg_279" x="4671" y="676" xlink:href="#svg_55"/>
             <use id="svg_280" y="676" x="5176" xlink:href="#svg_57"/>
            </g>
           </g>
           <g id="svg_281">
            <use id="svg_282" x="4252" y="-686" xlink:href="#svg_56"/>
            <use id="svg_283" y="-686" x="4757" xlink:href="#svg_55"/>
           </g>
          </g>
         </g>
         <use id="svg_284" y="0" x="6028" xlink:href="#svg_54"/>
         <use id="svg_285" y="0" x="6378" xlink:href="#svg_53"/>
        </g>
       </g>
      </svg>
     </g>
    </svg>
   </g>
  </g>
  <g id="svg_286" class="annotation">
   <g transform="matrix(1.50211 0 0 1.50211 -89.226 -23.0917)" id="svg_86" class="annotation-text-g">
    <svg id="svg_287" height="94" width="238" y="96.424779" x="166.415929">
     <rect stroke="rgb(0, 0, 0)" id="svg_288" stroke-width="1px" stroke-opacity="0" fill="rgb(0, 0, 0)" fill-opacity="0" height="93" width="237" y="0.5" x="0.5" class="bg"/>
     <g id="svg_103" class="annotation-math-group">
      <svg id="svg_289" width="18.911ex" y="2" x="1" preserveAspectRatio="xMinYMin meet" height="7.16ex" class="annotation-math" viewBox="0 -1789.8452691183916 8125.777777777778 3079.690538236783" xmlns:xlink="http://www.w3.org/1999/xlink">
       <defs>
        <path d="m208,74q0,-24 46,-28q18,0 18,-11q0,-1 -2,-13q-3,-14 -6,-18t-13,-4q-2,0 -12,0t-34,1t-64,1q-71,0 -91,-2l-8,0q-7,7 -7,11q2,27 13,35l14,0q70,3 102,50q6,6 181,305t178,303q7,12 24,12l8,0l17,0q6,-9 6,-10l28,-323q28,-323 30,-326q5,-11 65,-11q25,0 25,-10q0,-2 -3,-14q-3,-15 -5,-18t-14,-4q-3,0 -14,0t-39,1t-73,1q-94,0 -123,-2l-12,0q-6,6 -6,9t2,18q4,13 6,16l4,3l20,0q54,3 64,17l-12,150l-238,0l-34,-58q-41,-69 -41,-81zm308,186q0,11 -12,156t-14,146l-27,-43q-16,-27 -63,-107l-90,-152l103,-1q103,0 103,1z" stroke-width="10" id="svg_102"/>
        <path d="m94,250q0,69 10,131t23,107t37,88t38,67t42,52t33,34t25,21l13,0l4,0q14,0 14,-9q0,-3 -17,-21t-41,-53t-49,-86t-42,-138t-17,-193t17,-192t41,-139t49,-86t42,-53t17,-21q0,-9 -15,-9l-3,0l-13,0l-28,24q-94,85 -137,212t-43,264z" stroke-width="10" id="svg_101"/>
        <path d="m109,429q-27,0 -43,18t-16,44q0,71 53,123t132,52q91,0 152,-56t62,-145q0,-43 -20,-82t-48,-68t-80,-74q-36,-31 -100,-92l-59,-56l76,-1q157,0 167,5q7,2 24,89l0,3l40,0l0,-3q-1,-3 -13,-91t-15,-92l0,-3l-371,0l0,19l0,12q0,7 6,15t30,35q29,32 50,56q9,10 34,37t34,37t29,33t28,34t23,30t21,32t15,29t13,32t7,30t3,33q0,63 -34,109t-97,46q-33,0 -58,-17t-35,-33t-10,-19q0,-1 5,-1q18,0 37,-14t19,-46q0,-25 -16,-42t-45,-18z" stroke-width="10" id="svg_90"/>
        <path d="m127,463q-27,0 -42,17t-16,44q0,55 48,98t116,43q35,0 44,-1q74,-12 113,-53t40,-89q0,-52 -34,-101t-94,-71l-3,-2q0,-1 9,-3t29,-9t38,-21q82,-53 82,-140q0,-79 -62,-138t-157,-59q-80,0 -138,43t-58,109q0,28 18,45t45,18q28,0 46,-18t18,-45q0,-11 -3,-20t-7,-16t-11,-12t-12,-8t-10,-4t-8,-3l-4,-1q51,-45 124,-45q55,0 83,53q17,33 17,101l0,20q0,95 -64,127q-15,6 -61,7l-42,1l-3,2q-2,3 -2,16q0,18 8,18q28,0 58,5q34,5 62,42t28,112l0,8q0,57 -35,79q-22,14 -47,14q-32,0 -59,-11t-38,-23t-11,-12l3,0q3,-1 8,-2t10,-5t12,-7t10,-11t8,-15t3,-20q0,-22 -14,-39t-45,-18z" stroke-width="10" id="svg_94"/>
        <path d="m56,237t0,13t14,20l299,0l0,150l1,150q10,13 19,13q13,0 20,-15l0,-298l298,0q15,-8 15,-20t-15,-20l-298,0l0,-298q-8,-14 -18,-14l-2,0l-2,0q-12,0 -18,14l0,298l-299,0q-14,7 -14,20l0,-13z" stroke-width="10" id="svg_93"/>
        <path d="m213,578l-13,-5q-14,-5 -40,-10t-58,-7l-19,0l0,46l19,0q47,2 87,15t56,24t28,22q2,3 12,3q9,0 17,-6l0,-299l1,-300q7,-7 12,-9t24,-4t62,-2l26,0l0,-46l-11,0q-21,3 -159,3q-136,0 -157,-3l-12,0l0,46l26,0q22,0 38,0t25,1t16,3t8,2t6,5t6,4l0,517z" stroke-width="10" id="svg_89"/>
        <path d="m462,0q-18,3 -129,3q-116,0 -134,-3l-9,0l0,46l31,0q20,0 27,0t17,2t14,5t7,8q1,2 1,54l0,50l-259,0l0,46l151,231q153,232 155,233q2,2 21,2l18,0l6,-6l0,-460l92,0l0,-46l-92,0l0,-51q0,-41 0,-48t6,-12q8,-7 57,-8l29,0l0,-46l-9,0zm-169,211l0,334l-219,-333l109,-1l110,0z" stroke-width="10" id="svg_91"/>
        <path d="m95,178q-6,0 -14,8t-9,14t31,30t66,50t38,29q2,2 5,2l1,0q6,0 14,-17t54,-117q19,-43 31,-69l85,-185q1,0 104,213t206,429t107,221q6,14 20,14q7,0 12,-6t7,-12l0,-6l-233,-483l-235,-486q-4,-7 -19,-7q-9,0 -12,3q-2,2 -98,212l-96,210l-16,-11q-15,-12 -31,-24t-18,-12z" stroke-width="10" id="svg_92"/>
        <path d="m184,600q0,24 19,42t44,19q18,0 30,-12t13,-30q0,-23 -20,-42t-44,-20q-15,0 -28,10t-14,33zm-163,-313q0,8 9,31t24,51t44,51t60,22q39,0 65,-23t27,-62q0,-17 -14,-56t-40,-105t-42,-113q-5,-22 -5,-32q0,-25 17,-25q9,0 19,3t23,14t27,35t25,59q3,12 5,14t17,2q20,0 20,-10q0,-8 -9,-31t-25,-51t-45,-50t-62,-22q-32,0 -59,21t-28,64q0,17 5,32t43,114q38,101 44,121t7,39q0,24 -17,24l-2,0q-30,0 -55,-33t-38,-84q-1,-1 -2,-3t-1,-3t-2,-2t-3,-1t-4,0t-8,0l-14,0q-6,6 -6,9z" stroke-width="10" id="svg_88"/>
        <path d="m60,749l4,1q5,0 10,0l12,0l28,-24q94,-85 137,-212t43,-264q0,-68 -10,-131t-23,-107t-37,-88t-38,-67t-41,-51t-32,-33t-23,-19q-3,-3 -4,-4l-12,0q-8,0 -11,0t-5,3t-3,9q1,1 11,13q155,161 155,475t-155,475q-10,12 -11,13q0,8 5,11z" stroke-width="10" id="svg_100"/>
        <path d="m758,-1237t0,-3t-6,-9l-16,0q-18,0 -19,1q-6,3 -45,49q-435,493 -435,1450t435,1449q25,30 44,49q2,1 19,1l17,0q6,-6 6,-9q0,-4 -18,-28t-51,-69t-70,-107t-79,-157t-77,-204q-115,-374 -115,-925q0,-493 93,-850t303,-619q14,-19 14,-22l0,3z" stroke-width="10" id="svg_96"/>
        <path d="m33,1741q0,9 18,9l9,0l5,0q8,0 16,-7t38,-43q435,-493 435,-1449q0,-958 -435,-1450q-43,-51 -53,-51q-1,0 -4,0t-6,1q-1,0 -3,0t-4,-1q-16,0 -16,11q0,3 17,25t48,64t65,98t75,142t73,183q132,392 132,978q0,151 -7,281t-31,299t-66,311t-115,296t-174,278q-17,21 -17,25z" stroke-width="10" id="svg_87"/>
        <path d="m231,637q-27,0 -32,1t-5,11q0,27 11,33q1,1 130,1q259,0 273,-2q63,-10 105,-45t43,-92q0,-64 -58,-115t-133,-69l-10,-3q64,-9 105,-46t42,-92q0,-73 -72,-141t-177,-77q-7,-1 -211,-1q-200,0 -203,2q-4,3 -4,8q0,7 2,14q5,19 10,21q4,1 15,1l6,0q27,0 60,3q14,3 19,12q3,4 72,278t69,289q0,7 -57,9zm418,-93q0,30 -15,56t-49,34q-7,2 -92,3q-20,0 -42,0t-35,-1l-13,0q-15,-1 -19,-10q-2,-4 -32,-120q0,-3 -1,-6l-31,-126l81,0q81,0 93,2q60,10 107,58t48,110zm-54,-315q0,44 -23,73t-60,34q-6,1 -83,1q-118,0 -119,-1q0,-2 -17,-73t-35,-141l-18,-70q0,-4 12,-4t81,-2q89,0 96,1q62,7 114,58t52,124z" stroke-width="10" id="svg_99"/>
        <path d="m84,237t0,13t14,20l581,0q15,-8 15,-20t-15,-20l-581,0q-14,7 -14,20l0,-13z" stroke-width="10" id="svg_95"/>
        <path d="m50,252q0,115 67,221t169,168t204,63q90,0 143,-51q9,-10 15,-17t8,-10l1,-3q3,0 27,26q7,6 15,14t16,16t10,11l15,15l6,0q14,0 14,-7q0,-4 -32,-137q-36,-139 -36,-140q-2,-5 -5,-6t-18,-2l-16,0q-6,6 -6,9q0,1 1,7t2,20t1,32q0,71 -32,124t-109,54q-26,0 -56,-7t-72,-24t-83,-56t-73,-93q-32,-57 -51,-133t-19,-124q0,-114 76,-164q48,-34 118,-34q91,0 162,68t94,148q4,13 6,15t16,2q20,0 20,-9q0,-5 -1,-9q-29,-107 -124,-184t-204,-77q-113,0 -191,75t-78,199z" stroke-width="10" id="svg_97"/>
        <path d="m287,628q0,7 -57,9q-23,0 -30,1t-7,9q0,8 4,20t7,15q2,1 199,1q167,-1 187,-1t40,-6q72,-17 122,-79t51,-166q0,-156 -107,-280t-252,-148l-14,-2l-194,-1l-111,0l-53,0q-24,0 -31,2t-8,9q0,2 3,14q4,16 8,18t23,3q27,0 60,3q14,3 19,12q3,4 72,278t69,289zm416,-159q0,38 -11,68t-26,47t-37,29t-39,16t-35,7q-2,0 -14,0t-29,0t-33,1l-43,0q-44,0 -50,-10q-2,-4 -73,-288t-71,-287q0,-4 11,-4t77,-1q5,0 19,0t24,-1q126,0 208,82q36,36 59,84t43,127t20,130z" stroke-width="10" id="svg_98"/>
       </defs>
       <g stroke="rgb(68, 68, 68)" id="svg_290" transform="matrix(1 0 0 -1 0 0)" stroke-width="0" fill="rgb(68, 68, 68)">
        <use id="svg_291" xlink:href="#svg_97"/>
        <g id="svg_292">
         <use id="svg_293" x="765" y="0" xlink:href="#svg_96"/>
         <use id="svg_294" y="0" x="1562" xlink:href="#svg_95"/>
         <g id="svg_295">
          <g id="svg_296">
           <rect id="svg_297" y="220" x="2631" height="60" width="625"/>
           <use id="svg_298" y="676" x="2691" xlink:href="#svg_90"/>
           <use id="svg_299" y="-686" x="2691" xlink:href="#svg_94"/>
          </g>
         </g>
         <use id="svg_300" y="0" x="3598" xlink:href="#svg_93"/>
         <g id="svg_301">
          <g id="svg_302">
           <rect id="svg_303" y="220" x="4724" height="60" width="1968"/>
           <g id="svg_304">
            <use id="svg_305" y="737" x="4784" xlink:href="#svg_92"/>
            <rect id="svg_306" y="1487" x="5622" height="60" width="1010"/>
            <g id="svg_307">
             <use id="svg_308" x="5622" y="676" xlink:href="#svg_89"/>
             <use id="svg_309" y="676" x="6127" xlink:href="#svg_91"/>
            </g>
           </g>
           <g id="svg_310">
            <use id="svg_311" x="5203" y="-686" xlink:href="#svg_90"/>
            <use id="svg_312" y="-686" x="5708" xlink:href="#svg_89"/>
           </g>
          </g>
         </g>
         <use id="svg_313" y="0" x="6978" xlink:href="#svg_88"/>
         <use id="svg_314" y="0" x="7328" xlink:href="#svg_87"/>
        </g>
       </g>
      </svg>
     </g>
    </svg>
   </g>
  </g>
  <g id="svg_315" class="annotation">
   <g transform="matrix(1.53148 0 0 1.53148 -110.932 -52.1361)" id="svg_120" class="annotation-text-g">
    <svg id="svg_316" height="94" width="241" y="253.482467" x="177.678356">
     <rect stroke="rgb(0, 0, 0)" id="svg_317" stroke-width="1px" stroke-opacity="0" fill="rgb(0, 0, 0)" fill-opacity="0" height="93" width="240" y="0.5" x="0.5" class="bg"/>
     <g id="svg_137" class="annotation-math-group">
      <svg id="svg_318" width="19.066ex" y="2" x="1" preserveAspectRatio="xMinYMin meet" height="7.16ex" class="annotation-math" viewBox="0 -1789.8452691183916 8193.777777777777 3079.690538236783" xmlns:xlink="http://www.w3.org/1999/xlink">
       <defs>
        <path d="m208,74q0,-24 46,-28q18,0 18,-11q0,-1 -2,-13q-3,-14 -6,-18t-13,-4q-2,0 -12,0t-34,1t-64,1q-71,0 -91,-2l-8,0q-7,7 -7,11q2,27 13,35l14,0q70,3 102,50q6,6 181,305t178,303q7,12 24,12l8,0l17,0q6,-9 6,-10l28,-323q28,-323 30,-326q5,-11 65,-11q25,0 25,-10q0,-2 -3,-14q-3,-15 -5,-18t-14,-4q-3,0 -14,0t-39,1t-73,1q-94,0 -123,-2l-12,0q-6,6 -6,9t2,18q4,13 6,16l4,3l20,0q54,3 64,17l-12,150l-238,0l-34,-58q-41,-69 -41,-81zm308,186q0,11 -12,156t-14,146l-27,-43q-16,-27 -63,-107l-90,-152l103,-1q103,0 103,1z" stroke-width="10" id="svg_136"/>
        <path d="m94,250q0,69 10,131t23,107t37,88t38,67t42,52t33,34t25,21l13,0l4,0q14,0 14,-9q0,-3 -17,-21t-41,-53t-49,-86t-42,-138t-17,-193t17,-192t41,-139t49,-86t42,-53t17,-21q0,-9 -15,-9l-3,0l-13,0l-28,24q-94,85 -137,212t-43,264z" stroke-width="10" id="svg_135"/>
        <path d="m109,429q-27,0 -43,18t-16,44q0,71 53,123t132,52q91,0 152,-56t62,-145q0,-43 -20,-82t-48,-68t-80,-74q-36,-31 -100,-92l-59,-56l76,-1q157,0 167,5q7,2 24,89l0,3l40,0l0,-3q-1,-3 -13,-91t-15,-92l0,-3l-371,0l0,19l0,12q0,7 6,15t30,35q29,32 50,56q9,10 34,37t34,37t29,33t28,34t23,30t21,32t15,29t13,32t7,30t3,33q0,63 -34,109t-97,46q-33,0 -58,-17t-35,-33t-10,-19q0,-1 5,-1q18,0 37,-14t19,-46q0,-25 -16,-42t-45,-18z" stroke-width="10" id="svg_124"/>
        <path d="m127,463q-27,0 -42,17t-16,44q0,55 48,98t116,43q35,0 44,-1q74,-12 113,-53t40,-89q0,-52 -34,-101t-94,-71l-3,-2q0,-1 9,-3t29,-9t38,-21q82,-53 82,-140q0,-79 -62,-138t-157,-59q-80,0 -138,43t-58,109q0,28 18,45t45,18q28,0 46,-18t18,-45q0,-11 -3,-20t-7,-16t-11,-12t-12,-8t-10,-4t-8,-3l-4,-1q51,-45 124,-45q55,0 83,53q17,33 17,101l0,20q0,95 -64,127q-15,6 -61,7l-42,1l-3,2q-2,3 -2,16q0,18 8,18q28,0 58,5q34,5 62,42t28,112l0,8q0,57 -35,79q-22,14 -47,14q-32,0 -59,-11t-38,-23t-11,-12l3,0q3,-1 8,-2t10,-5t12,-7t10,-11t8,-15t3,-20q0,-22 -14,-39t-45,-18z" stroke-width="10" id="svg_128"/>
        <path d="m56,237t0,13t14,20l299,0l0,150l1,150q10,13 19,13q13,0 20,-15l0,-298l298,0q15,-8 15,-20t-15,-20l-298,0l0,-298q-8,-14 -18,-14l-2,0l-2,0q-12,0 -18,14l0,298l-299,0q-14,7 -14,20l0,-13z" stroke-width="10" id="svg_134"/>
        <path d="m213,578l-13,-5q-14,-5 -40,-10t-58,-7l-19,0l0,46l19,0q47,2 87,15t56,24t28,22q2,3 12,3q9,0 17,-6l0,-299l1,-300q7,-7 12,-9t24,-4t62,-2l26,0l0,-46l-11,0q-21,3 -159,3q-136,0 -157,-3l-12,0l0,46l26,0q22,0 38,0t25,1t16,3t8,2t6,5t6,4l0,517z" stroke-width="10" id="svg_123"/>
        <path d="m462,0q-18,3 -129,3q-116,0 -134,-3l-9,0l0,46l31,0q20,0 27,0t17,2t14,5t7,8q1,2 1,54l0,50l-259,0l0,46l151,231q153,232 155,233q2,2 21,2l18,0l6,-6l0,-460l92,0l0,-46l-92,0l0,-51q0,-41 0,-48t6,-12q8,-7 57,-8l29,0l0,-46l-9,0zm-169,211l0,334l-219,-333l109,-1l110,0z" stroke-width="10" id="svg_125"/>
        <path d="m95,178q-6,0 -14,8t-9,14t31,30t66,50t38,29q2,2 5,2l1,0q6,0 14,-17t54,-117q19,-43 31,-69l85,-185q1,0 104,213t206,429t107,221q6,14 20,14q7,0 12,-6t7,-12l0,-6l-233,-483l-235,-486q-4,-7 -19,-7q-9,0 -12,3q-2,2 -98,212l-96,210l-16,-11q-15,-12 -31,-24t-18,-12z" stroke-width="10" id="svg_126"/>
        <path d="m184,600q0,24 19,42t44,19q18,0 30,-12t13,-30q0,-23 -20,-42t-44,-20q-15,0 -28,10t-14,33zm-163,-313q0,8 9,31t24,51t44,51t60,22q39,0 65,-23t27,-62q0,-17 -14,-56t-40,-105t-42,-113q-5,-22 -5,-32q0,-25 17,-25q9,0 19,3t23,14t27,35t25,59q3,12 5,14t17,2q20,0 20,-10q0,-8 -9,-31t-25,-51t-45,-50t-62,-22q-32,0 -59,21t-28,64q0,17 5,32t43,114q38,101 44,121t7,39q0,24 -17,24l-2,0q-30,0 -55,-33t-38,-84q-1,-1 -2,-3t-1,-3t-2,-2t-3,-1t-4,0t-8,0l-14,0q-6,6 -6,9z" stroke-width="10" id="svg_122"/>
        <path d="m60,749l4,1q5,0 10,0l12,0l28,-24q94,-85 137,-212t43,-264q0,-68 -10,-131t-23,-107t-37,-88t-38,-67t-41,-51t-32,-33t-23,-19q-3,-3 -4,-4l-12,0q-8,0 -11,0t-5,3t-3,9q1,1 11,13q155,161 155,475t-155,475q-10,12 -11,13q0,8 5,11z" stroke-width="10" id="svg_133"/>
        <path d="m758,-1237t0,-3t-6,-9l-16,0q-18,0 -19,1q-6,3 -45,49q-435,493 -435,1450t435,1449q25,30 44,49q2,1 19,1l17,0q6,-6 6,-9q0,-4 -18,-28t-51,-69t-70,-107t-79,-157t-77,-204q-115,-374 -115,-925q0,-493 93,-850t303,-619q14,-19 14,-22l0,3z" stroke-width="10" id="svg_129"/>
        <path d="m33,1741q0,9 18,9l9,0l5,0q8,0 16,-7t38,-43q435,-493 435,-1449q0,-958 -435,-1450q-43,-51 -53,-51q-1,0 -4,0t-6,1q-1,0 -3,0t-4,-1q-16,0 -16,11q0,3 17,25t48,64t65,98t75,142t73,183q132,392 132,978q0,151 -7,281t-31,299t-66,311t-115,296t-174,278q-17,21 -17,25z" stroke-width="10" id="svg_121"/>
        <path d="m231,637q-27,0 -32,1t-5,11q0,27 11,33q1,1 130,1q259,0 273,-2q63,-10 105,-45t43,-92q0,-64 -58,-115t-133,-69l-10,-3q64,-9 105,-46t42,-92q0,-73 -72,-141t-177,-77q-7,-1 -211,-1q-200,0 -203,2q-4,3 -4,8q0,7 2,14q5,19 10,21q4,1 15,1l6,0q27,0 60,3q14,3 19,12q3,4 72,278t69,289q0,7 -57,9zm418,-93q0,30 -15,56t-49,34q-7,2 -92,3q-20,0 -42,0t-35,-1l-13,0q-15,-1 -19,-10q-2,-4 -32,-120q0,-3 -1,-6l-31,-126l81,0q81,0 93,2q60,10 107,58t48,110zm-54,-315q0,44 -23,73t-60,34q-6,1 -83,1q-118,0 -119,-1q0,-2 -17,-73t-35,-141l-18,-70q0,-4 12,-4t81,-2q89,0 96,1q62,7 114,58t52,124z" stroke-width="10" id="svg_132"/>
        <path d="m84,237t0,13t14,20l581,0q15,-8 15,-20t-15,-20l-581,0q-14,7 -14,20l0,-13z" stroke-width="10" id="svg_127"/>
        <path d="m50,252q0,115 67,221t169,168t204,63q90,0 143,-51q9,-10 15,-17t8,-10l1,-3q3,0 27,26q7,6 15,14t16,16t10,11l15,15l6,0q14,0 14,-7q0,-4 -32,-137q-36,-139 -36,-140q-2,-5 -5,-6t-18,-2l-16,0q-6,6 -6,9q0,1 1,7t2,20t1,32q0,71 -32,124t-109,54q-26,0 -56,-7t-72,-24t-83,-56t-73,-93q-32,-57 -51,-133t-19,-124q0,-114 76,-164q48,-34 118,-34q91,0 162,68t94,148q4,13 6,15t16,2q20,0 20,-9q0,-5 -1,-9q-29,-107 -124,-184t-204,-77q-113,0 -191,75t-78,199z" stroke-width="10" id="svg_131"/>
        <path d="m287,628q0,7 -57,9q-23,0 -30,1t-7,9q0,8 4,20t7,15q2,1 199,1q167,-1 187,-1t40,-6q72,-17 122,-79t51,-166q0,-156 -107,-280t-252,-148l-14,-2l-194,-1l-111,0l-53,0q-24,0 -31,2t-8,9q0,2 3,14q4,16 8,18t23,3q27,0 60,3q14,3 19,12q3,4 72,278t69,289zm416,-159q0,38 -11,68t-26,47t-37,29t-39,16t-35,7q-2,0 -14,0t-29,0t-33,1l-43,0q-44,0 -50,-10q-2,-4 -73,-288t-71,-287q0,-4 11,-4t77,-1q5,0 19,0t24,-1q126,0 208,82q36,36 59,84t43,127t20,130z" stroke-width="10" id="svg_130"/>
       </defs>
       <g stroke="rgb(68, 68, 68)" id="svg_319" transform="matrix(1 0 0 -1 0 0)" stroke-width="0" fill="rgb(68, 68, 68)">
        <use id="svg_320" xlink:href="#svg_130"/>
        <g id="svg_321">
         <use id="svg_322" x="833" y="0" xlink:href="#svg_129"/>
         <use id="svg_323" y="0" x="1630" xlink:href="#svg_127"/>
         <g id="svg_324">
          <g id="svg_325">
           <rect id="svg_326" y="220" x="2699" height="60" width="625"/>
           <use id="svg_327" y="676" x="2759" xlink:href="#svg_124"/>
           <use id="svg_328" y="-686" x="2759" xlink:href="#svg_128"/>
          </g>
         </g>
         <use id="svg_329" y="0" x="3666" xlink:href="#svg_127"/>
         <g id="svg_330">
          <g id="svg_331">
           <rect id="svg_332" y="220" x="4792" height="60" width="1968"/>
           <g id="svg_333">
            <use id="svg_334" y="737" x="4852" xlink:href="#svg_126"/>
            <rect id="svg_335" y="1487" x="5690" height="60" width="1010"/>
            <g id="svg_336">
             <use id="svg_337" x="5690" y="676" xlink:href="#svg_123"/>
             <use id="svg_338" y="676" x="6195" xlink:href="#svg_125"/>
            </g>
           </g>
           <g id="svg_339">
            <use id="svg_340" x="5271" y="-686" xlink:href="#svg_124"/>
            <use id="svg_341" y="-686" x="5776" xlink:href="#svg_123"/>
           </g>
          </g>
         </g>
         <use id="svg_342" y="0" x="7046" xlink:href="#svg_122"/>
         <use id="svg_343" y="0" x="7396" xlink:href="#svg_121"/>
        </g>
       </g>
      </svg>
     </g>
    </svg>
   </g>
  </g>
 </g>
</svg>