<?xml version="1.0"?>
<svg width="640" height="480" xmlns="http://www.w3.org/2000/svg" xmlns:svg="http://www.w3.org/2000/svg" xmlns:se="http://svg-edit.googlecode.com" clip-path="url(#presentation_clip_path)" preserveAspectRatio="xMidYMid">
 <!-- Created with SVG-edit - http://svg-edit.googlecode.com/ -->
 <g>
  <title>Layer 1</title>
  <polyline se:connector="svg_9 svg_2" fill="none" stroke-width="3" stroke="#000000" points="19.788084030151367,131.05880737304688 91.75798034667969,131.05880737304688 163.72787475585938,131.0587921142578" id="svg_10"/>
  <polyline se:connector="svg_6 svg_5" fill="none" stroke-width="3" stroke="#000000" points="333.7880554199219,131.05880737304688 436.50799560546875,131.05880737304688 539.2279052734375,131.05880737304688" id="svg_8"/>
  <polyline se:connector="svg_2 svg_6" fill="none" stroke-width="3" stroke="#000000" points="181.28810119628906,131.0587921142578 248.75796508789062,131.05880737304688 316.22784423828125,131.05880737304688" id="svg_7"/>
  <path stroke="#00007f" id="svg_13" transform="rotate(-90.1008 377.031 206.212)" d="m391.15332,390.512817c-7.799194,0 -14.12146,-2.274933 -14.12146,-5.086273l0,-176.67157c0,-2.805405 -6.323578,-5.086197 -14.122772,-5.086197l0,0c7.799194,0 14.122772,-2.275101 14.122772,-5.080505l0,-176.677235l0,0c0,-2.811119 6.322266,-5.086205 14.12146,-5.086205" stroke-width="3" fill="none"/>
  <path stroke="#00007f" id="svg_14" transform="rotate(-89.8396 88.0826 206.22)" d="m102.20475,290.49469c-7.799194,0 -14.12146,-1.040253 -14.12146,-2.325775l0,-80.786041c0,-1.282806 -6.323578,-2.325745 -14.122772,-2.325745l0,0c7.799194,0 14.122772,-1.040344 14.122772,-2.323151l0,-80.788658l0,0c0,-1.285431 6.322266,-2.325775 14.12146,-2.325775" stroke-width="3" fill="none"/>
  <text style="cursor: move;" stroke="#00007f" transform="matrix(1.55738 0 0 1.74074 -78.8689 -222.963)" xml:space="preserve" text-anchor="middle" font-family="Sans-serif" font-size="24" id="svg_15" y="232.985904" x="158.841963" stroke-linecap="null" stroke-linejoin="null" stroke-dasharray="null" stroke-width="0" fill="#000000">-1</text>
  <text id="svg_16" stroke="#00007f" transform="matrix(1.55738 0 0 1.74074 -78.8689 -222.963)" xml:space="preserve" text-anchor="middle" font-family="Sans-serif" font-size="24" y="233.567125" x="256.124901" stroke-linecap="null" stroke-linejoin="null" stroke-dasharray="null" stroke-width="0" fill="#000000">0</text>
  <text style="cursor: move;" id="svg_18" stroke="#00007f" transform="matrix(1.55738 0 0 1.74074 -78.8689 -222.963)" xml:space="preserve" text-anchor="middle" font-family="Sans-serif" font-size="24" y="190.456888" x="96.239686" stroke-linecap="null" stroke-linejoin="null" stroke-dasharray="null" stroke-width="0" fill="#000000">&lt; -1</text>
  <text id="svg_19" stroke="#00007f" transform="matrix(1.55738 0 0 1.74074 -78.8689 -222.963)" xml:space="preserve" text-anchor="middle" font-family="Sans-serif" font-size="24" y="190.461541" x="327.397149" stroke-linecap="null" stroke-linejoin="null" stroke-dasharray="null" stroke-width="0" fill="#000000">&gt; 0</text>
  <g id="svg_29">
   <text transform="matrix(1.28253 0 0 1.09719 -10.2197 -39.6325)" stroke="#00007f" id="svg_27" xml:space="preserve" text-anchor="middle" font-family="Sans-serif" font-size="24" y="273.064965" x="89.462783" stroke-linecap="null" stroke-linejoin="null" stroke-dasharray="null" stroke-width="0" fill="#00007f">|x| = -x</text>
   <text transform="matrix(1.28253 0 0 1.09719 -10.2197 -39.6325)" stroke="#00007f" id="svg_28" xml:space="preserve" text-anchor="middle" font-family="Sans-serif" font-size="24" y="308.064965" x="92.962783" stroke-linecap="null" stroke-linejoin="null" stroke-dasharray="null" stroke-width="0" fill="#00007f">|x + 1| = -x - 1</text>
  </g>
  <g id="svg_30">
   <text transform="matrix(1.31806 0 0 1.08136 -125.423 -33.1973)" stroke="#00007f" id="svg_24" xml:space="preserve" text-anchor="middle" font-family="Sans-serif" font-size="24" y="271.757763" x="391.333157" stroke-linecap="null" stroke-linejoin="null" stroke-dasharray="null" stroke-width="0" fill="#00007f">|x| = x</text>
   <text transform="matrix(1.31806 0 0 1.08136 -125.423 -33.1973)" stroke="#00007f" id="svg_25" xml:space="preserve" text-anchor="middle" font-family="Sans-serif" font-size="24" y="306.757763" x="393.833157" stroke-linecap="null" stroke-linejoin="null" stroke-dasharray="null" stroke-width="0" fill="#00007f">|x + 1| = x + 1</text>
  </g>
  <g id="svg_33">
   <g id="svg_32">
    <circle id="svg_2" r="7.28011" cy="131.058792" cx="172.507975" stroke-linecap="null" stroke-linejoin="null" stroke-dasharray="null" stroke-width="3" stroke="#00007f" fill="none"/>
    <circle id="svg_5" r="7.28011" cy="131.058804" cx="548.007975" stroke-linecap="null" stroke-linejoin="null" stroke-dasharray="null" stroke-width="3" stroke="#00007f" fill="none"/>
    <circle id="svg_6" r="7.28011" cy="131.058804" cx="325.007975" stroke-linecap="null" stroke-linejoin="null" stroke-dasharray="null" stroke-width="3" stroke="#00007f" fill="none"/>
    <circle id="svg_9" r="7.28011" cy="131.058804" cx="11.007975" stroke-linecap="null" stroke-linejoin="null" stroke-dasharray="null" stroke-width="3" stroke="#00007f" fill="none"/>
   </g>
  </g>
 </g>
</svg>