<?xml version="1.0" encoding="UTF-8"?>
<svg xmlns="http://www.w3.org/2000/svg" xmlns:xlink="http://www.w3.org/1999/xlink" width="267.11546pt" height="66.778336pt" viewBox="0 0 267.11546 66.778336" version="1.1">
<g id="surface1">
<path style=" stroke:none;fill-rule:nonzero;fill:rgb(0%,0%,0%);fill-opacity:1;" d="M 3.515625 21.800781 C 3.125 22.367188 2.539062 22.875 1.796875 22.875 C 1.621094 22.875 0.898438 22.835938 0.683594 22.152344 C 0.722656 22.171875 0.800781 22.171875 0.820312 22.171875 C 1.269531 22.171875 1.582031 21.78125 1.582031 21.429688 C 1.582031 21.097656 1.289062 20.980469 1.074219 20.980469 C 0.820312 20.980469 0.3125 21.15625 0.3125 21.878906 C 0.3125 22.640625 0.957031 23.167969 1.796875 23.167969 C 3.300781 23.167969 4.804688 21.800781 5.214844 20.140625 L 6.679688 14.300781 C 6.699219 14.242188 6.738281 14.144531 6.738281 14.046875 C 6.738281 13.832031 6.542969 13.675781 6.328125 13.675781 C 6.191406 13.675781 5.878906 13.734375 5.761719 14.183594 L 4.648438 18.578125 C 4.589844 18.851562 4.589844 18.890625 4.453125 19.046875 C 4.160156 19.457031 3.671875 19.964844 2.949219 19.964844 C 2.109375 19.964844 2.03125 19.144531 2.03125 18.753906 C 2.03125 17.894531 2.441406 16.742188 2.851562 15.667969 C 3.007812 15.238281 3.105469 15.023438 3.105469 14.730469 C 3.105469 14.105469 2.65625 13.539062 1.914062 13.539062 C 0.546875 13.539062 0 15.707031 0 15.824219 C 0 15.882812 0.0585938 15.960938 0.15625 15.960938 C 0.292969 15.960938 0.3125 15.902344 0.371094 15.6875 C 0.722656 14.4375 1.289062 13.832031 1.875 13.832031 C 2.011719 13.832031 2.265625 13.832031 2.265625 14.320312 C 2.265625 14.710938 2.109375 15.140625 1.875 15.707031 C 1.152344 17.679688 1.152344 18.167969 1.152344 18.519531 C 1.152344 19.945312 2.167969 20.277344 2.910156 20.277344 C 3.339844 20.277344 3.886719 20.140625 4.394531 19.574219 L 4.414062 19.59375 C 4.199219 20.472656 4.042969 21.058594 3.515625 21.800781 Z M 3.515625 21.800781 "/>
<path style=" stroke:none;fill-rule:nonzero;fill:rgb(0%,0%,0%);fill-opacity:1;" d="M 10.027344 9.246094 C 10.085938 9.128906 10.125 9.050781 10.125 8.953125 C 10.125 8.621094 9.8125 8.40625 9.539062 8.40625 C 9.148438 8.40625 9.03125 8.757812 8.992188 8.894531 L 7.722656 13.191406 C 7.683594 13.308594 7.683594 13.328125 7.683594 13.347656 C 7.683594 13.425781 7.742188 13.445312 7.839844 13.484375 C 8.035156 13.5625 8.054688 13.5625 8.074219 13.5625 C 8.09375 13.5625 8.152344 13.5625 8.230469 13.386719 Z M 10.027344 9.246094 "/>
<path style=" stroke:none;fill-rule:nonzero;fill:rgb(0%,0%,0%);fill-opacity:1;" d="M 12.875 9.246094 C 12.933594 9.128906 12.972656 9.050781 12.972656 8.953125 C 12.972656 8.621094 12.660156 8.40625 12.386719 8.40625 C 11.996094 8.40625 11.878906 8.757812 11.839844 8.894531 L 10.570312 13.191406 C 10.53125 13.308594 10.53125 13.328125 10.53125 13.347656 C 10.53125 13.425781 10.589844 13.445312 10.6875 13.484375 C 10.882812 13.5625 10.902344 13.5625 10.921875 13.5625 C 10.941406 13.5625 11 13.5625 11.078125 13.386719 Z M 12.875 9.246094 "/>
<path style=" stroke:none;fill-rule:nonzero;fill:rgb(0%,0%,0%);fill-opacity:1;" d="M 27.816406 15.277344 C 28.03125 15.277344 28.304688 15.277344 28.304688 15.003906 C 28.304688 14.730469 28.050781 14.730469 27.816406 14.730469 L 19.027344 14.730469 C 18.8125 14.730469 18.539062 14.730469 18.539062 15.003906 C 18.539062 15.277344 18.792969 15.277344 19.027344 15.277344 Z M 27.816406 18.050781 C 28.03125 18.050781 28.304688 18.050781 28.304688 17.796875 C 28.304688 17.503906 28.050781 17.503906 27.816406 17.503906 L 19.027344 17.503906 C 18.8125 17.503906 18.539062 17.503906 18.539062 17.777344 C 18.539062 18.050781 18.792969 18.050781 19.027344 18.050781 Z M 27.816406 18.050781 "/>
<path style=" stroke:none;fill-rule:nonzero;fill:rgb(0%,0%,0%);fill-opacity:1;" d="M 43.183594 16.683594 C 43.4375 16.683594 43.710938 16.683594 43.710938 16.390625 C 43.710938 16.078125 43.4375 16.078125 43.183594 16.078125 L 35.097656 16.078125 C 34.84375 16.078125 34.570312 16.078125 34.570312 16.390625 C 34.570312 16.683594 34.84375 16.683594 35.097656 16.683594 Z M 43.183594 16.683594 "/>
<path style=" stroke:none;fill-rule:nonzero;fill:rgb(0%,0%,0%);fill-opacity:1;" d="M 51.902344 1.367188 C 52.546875 1.5625 53.074219 1.582031 53.230469 1.582031 C 54.910156 1.582031 56.003906 0.351562 56.003906 0.136719 C 56.003906 0.078125 55.964844 0 55.867188 0 C 55.847656 0 55.808594 0 55.671875 0.0585938 C 54.851562 0.410156 54.128906 0.46875 53.738281 0.46875 C 52.761719 0.46875 52.058594 0.15625 51.765625 0.0390625 C 51.667969 0 51.628906 0 51.609375 0 C 51.492188 0 51.492188 0.0976562 51.492188 0.332031 L 51.492188 4.765625 C 51.492188 5.039062 51.492188 5.117188 51.667969 5.117188 C 51.746094 5.117188 51.765625 5.117188 51.921875 4.921875 C 52.332031 4.316406 53.035156 3.964844 53.777344 3.964844 C 54.578125 3.964844 54.96875 4.6875 55.085938 4.941406 C 55.339844 5.527344 55.359375 6.269531 55.359375 6.835938 C 55.359375 7.402344 55.359375 8.242188 54.929688 8.925781 C 54.597656 9.453125 54.03125 9.824219 53.367188 9.824219 C 52.371094 9.824219 51.414062 9.160156 51.140625 8.066406 C 51.21875 8.105469 51.296875 8.105469 51.375 8.105469 C 51.628906 8.105469 52.039062 7.96875 52.039062 7.460938 C 52.039062 7.03125 51.746094 6.796875 51.375 6.796875 C 51.101562 6.796875 50.710938 6.933594 50.710938 7.519531 C 50.710938 8.789062 51.746094 10.234375 53.386719 10.234375 C 55.085938 10.234375 56.570312 8.808594 56.570312 6.914062 C 56.570312 5.136719 55.359375 3.652344 53.796875 3.652344 C 52.9375 3.652344 52.292969 4.042969 51.902344 4.453125 Z M 51.902344 1.367188 "/>
<path style=" stroke:none;fill-rule:nonzero;fill:rgb(0%,0%,0%);fill-opacity:1;" d="M 46.371094 16.085938 L 60.621094 16.085938 L 60.621094 16.6875 L 46.371094 16.6875 Z M 46.371094 16.085938 "/>
<path style=" stroke:none;fill-rule:nonzero;fill:rgb(0%,0%,0%);fill-opacity:1;" d="M 53.480469 24.226562 C 52.992188 24.304688 52.816406 24.675781 52.816406 24.949219 C 52.816406 25.320312 53.089844 25.4375 53.304688 25.4375 C 53.753906 25.4375 54.066406 25.046875 54.066406 24.636719 C 54.066406 24.011719 53.34375 23.738281 52.71875 23.738281 C 51.820312 23.738281 51.3125 24.636719 51.175781 24.910156 C 50.824219 23.796875 49.90625 23.738281 49.632812 23.738281 C 48.109375 23.738281 47.308594 25.691406 47.308594 26.023438 C 47.308594 26.082031 47.367188 26.160156 47.464844 26.160156 C 47.582031 26.160156 47.621094 26.0625 47.640625 26.003906 C 48.148438 24.34375 49.164062 24.03125 49.59375 24.03125 C 50.257812 24.03125 50.394531 24.65625 50.394531 25.007812 C 50.394531 25.339844 50.296875 25.691406 50.121094 26.414062 L 49.613281 28.445312 C 49.398438 29.34375 48.96875 30.164062 48.167969 30.164062 C 48.089844 30.164062 47.71875 30.164062 47.40625 29.96875 C 47.953125 29.871094 48.070312 29.421875 48.070312 29.246094 C 48.070312 28.953125 47.835938 28.757812 47.5625 28.757812 C 47.191406 28.757812 46.800781 29.089844 46.800781 29.558594 C 46.800781 30.183594 47.503906 30.476562 48.148438 30.476562 C 48.871094 30.476562 49.378906 29.910156 49.691406 29.285156 C 49.925781 30.164062 50.6875 30.476562 51.234375 30.476562 C 52.757812 30.476562 53.558594 28.503906 53.558594 28.191406 C 53.558594 28.113281 53.5 28.054688 53.421875 28.054688 C 53.285156 28.054688 53.265625 28.132812 53.226562 28.25 C 52.816406 29.558594 51.957031 30.164062 51.273438 30.164062 C 50.746094 30.164062 50.472656 29.773438 50.472656 29.167969 C 50.472656 28.835938 50.53125 28.601562 50.765625 27.625 L 51.292969 25.574219 C 51.507812 24.695312 52.015625 24.03125 52.71875 24.03125 C 52.738281 24.03125 53.167969 24.03125 53.480469 24.226562 Z M 53.480469 24.226562 "/>
<path style=" stroke:none;fill-rule:nonzero;fill:rgb(0%,0%,0%);fill-opacity:1;" d="M 57.453125 23.941406 C 57.609375 23.785156 58.019531 23.453125 58.195312 23.316406 C 58.800781 22.75 59.386719 22.203125 59.386719 21.304688 C 59.386719 20.113281 58.390625 19.351562 57.160156 19.351562 C 55.949219 19.351562 55.167969 20.25 55.167969 21.148438 C 55.167969 21.636719 55.558594 21.695312 55.695312 21.695312 C 55.910156 21.695312 56.222656 21.558594 56.222656 21.167969 C 56.222656 20.660156 55.714844 20.660156 55.597656 20.660156 C 55.890625 19.917969 56.554688 19.683594 57.042969 19.683594 C 57.960938 19.683594 58.449219 20.464844 58.449219 21.304688 C 58.449219 22.339844 57.726562 23.101562 56.535156 24.292969 L 55.285156 25.601562 C 55.167969 25.699219 55.167969 25.71875 55.167969 25.972656 L 59.09375 25.972656 L 59.386719 24.195312 L 59.074219 24.195312 C 59.054688 24.390625 58.976562 24.878906 58.859375 25.074219 C 58.800781 25.152344 58.039062 25.152344 57.882812 25.152344 L 56.105469 25.152344 Z M 57.453125 23.941406 "/>
<path style=" stroke:none;fill-rule:nonzero;fill:rgb(0%,0%,0%);fill-opacity:1;" d="M 68.421875 23.851562 L 68.421875 23.304688 L 66.976562 23.304688 L 66.976562 9.476562 L 68.421875 9.476562 L 68.421875 8.910156 L 66.429688 8.910156 L 66.429688 23.851562 Z M 68.421875 23.851562 "/>
<path style=" stroke:none;fill-rule:nonzero;fill:rgb(0%,0%,0%);fill-opacity:1;" d="M 73.640625 13.792969 C 73.640625 13.539062 73.640625 13.460938 73.484375 13.460938 C 73.367188 13.460938 73.09375 13.792969 72.976562 13.929688 C 72.527344 13.539062 72.058594 13.460938 71.570312 13.460938 C 69.773438 13.460938 69.226562 14.4375 69.226562 15.257812 C 69.226562 15.433594 69.226562 15.960938 69.792969 16.46875 C 70.28125 16.898438 70.789062 16.996094 71.472656 17.132812 C 72.292969 17.289062 72.488281 17.347656 72.859375 17.640625 C 73.132812 17.855469 73.328125 18.1875 73.328125 18.617188 C 73.328125 19.261719 72.957031 19.964844 71.628906 19.964844 C 70.652344 19.964844 69.929688 19.398438 69.597656 17.914062 C 69.539062 17.640625 69.539062 17.621094 69.539062 17.601562 C 69.5 17.542969 69.441406 17.542969 69.402344 17.542969 C 69.226562 17.542969 69.226562 17.621094 69.226562 17.894531 L 69.226562 19.925781 C 69.226562 20.199219 69.226562 20.277344 69.382812 20.277344 C 69.460938 20.277344 69.460938 20.257812 69.714844 19.945312 C 69.792969 19.828125 69.792969 19.808594 70.027344 19.574219 C 70.59375 20.277344 71.394531 20.277344 71.648438 20.277344 C 73.210938 20.277344 73.992188 19.398438 73.992188 18.226562 C 73.992188 17.425781 73.503906 16.9375 73.367188 16.800781 C 72.839844 16.332031 72.429688 16.253906 71.433594 16.078125 C 71.003906 15.980469 69.910156 15.765625 69.910156 14.867188 C 69.910156 14.417969 70.222656 13.734375 71.570312 13.734375 C 73.191406 13.734375 73.289062 15.121094 73.308594 15.570312 C 73.328125 15.707031 73.425781 15.707031 73.484375 15.707031 C 73.640625 15.707031 73.640625 15.628906 73.640625 15.355469 Z M 73.640625 13.792969 "/>
<path style=" stroke:none;fill-rule:nonzero;fill:rgb(0%,0%,0%);fill-opacity:1;" d="M 77.039062 10.921875 C 77.039062 10.53125 76.726562 10.179688 76.316406 10.179688 C 75.925781 10.179688 75.59375 10.492188 75.59375 10.902344 C 75.59375 11.351562 75.945312 11.625 76.316406 11.625 C 76.765625 11.625 77.039062 11.253906 77.039062 10.921875 Z M 74.988281 13.695312 L 74.988281 14.125 C 75.925781 14.125 76.0625 14.222656 76.0625 14.945312 L 76.0625 19.007812 C 76.0625 19.691406 75.90625 19.691406 74.929688 19.691406 L 74.929688 20.121094 C 75.359375 20.082031 76.0625 20.082031 76.511719 20.082031 C 76.667969 20.082031 77.527344 20.082031 78.035156 20.121094 L 78.035156 19.691406 C 77.078125 19.691406 77.019531 19.613281 77.019531 19.027344 L 77.019531 13.539062 Z M 74.988281 13.695312 "/>
<path style=" stroke:none;fill-rule:nonzero;fill:rgb(0%,0%,0%);fill-opacity:1;" d="M 85.128906 16.488281 C 85.128906 15.101562 85.128906 14.691406 84.796875 14.203125 C 84.367188 13.617188 83.664062 13.539062 83.15625 13.539062 C 81.691406 13.539062 81.125 14.769531 81.007812 15.0625 L 81.007812 13.539062 L 78.957031 13.695312 L 78.957031 14.125 C 79.972656 14.125 80.109375 14.242188 80.109375 14.964844 L 80.109375 19.007812 C 80.109375 19.691406 79.933594 19.691406 78.957031 19.691406 L 78.957031 20.121094 C 79.347656 20.082031 80.167969 20.082031 80.578125 20.082031 C 81.007812 20.082031 81.828125 20.082031 82.199219 20.121094 L 82.199219 19.691406 C 81.261719 19.691406 81.066406 19.691406 81.066406 19.007812 L 81.066406 16.234375 C 81.066406 14.671875 82.101562 13.832031 83.039062 13.832031 C 83.957031 13.832031 84.171875 14.59375 84.171875 15.511719 L 84.171875 19.007812 C 84.171875 19.691406 83.996094 19.691406 83.039062 19.691406 L 83.039062 20.121094 C 83.410156 20.082031 84.230469 20.082031 84.640625 20.082031 C 85.070312 20.082031 85.890625 20.082031 86.28125 20.121094 L 86.28125 19.691406 C 85.519531 19.691406 85.148438 19.691406 85.128906 19.242188 Z M 85.128906 16.488281 "/>
<path style=" stroke:none;fill-rule:nonzero;fill:rgb(0%,0%,0%);fill-opacity:1;" d="M 94.003906 23.753906 C 94.003906 23.714844 94.003906 23.675781 93.75 23.421875 C 92.246094 21.917969 91.40625 19.457031 91.40625 16.410156 C 91.40625 13.5 92.109375 11 93.847656 9.242188 C 94.003906 9.105469 94.003906 9.085938 94.003906 9.027344 C 94.003906 8.949219 93.925781 8.910156 93.867188 8.910156 C 93.671875 8.910156 92.441406 9.984375 91.71875 11.449219 C 90.957031 12.972656 90.605469 14.554688 90.605469 16.410156 C 90.605469 17.738281 90.820312 19.515625 91.582031 21.097656 C 92.480469 22.894531 93.691406 23.871094 93.867188 23.871094 C 93.925781 23.871094 94.003906 23.832031 94.003906 23.753906 Z M 94.003906 23.753906 "/>
<path style=" stroke:none;fill-rule:nonzero;fill:rgb(0%,0%,0%);fill-opacity:1;" d="M 97.417969 9.75 L 95.328125 9.925781 L 95.328125 10.355469 C 96.34375 10.355469 96.460938 10.453125 96.460938 11.195312 L 96.460938 19.007812 C 96.460938 19.691406 96.304688 19.691406 95.328125 19.691406 L 95.328125 20.121094 C 95.757812 20.082031 96.480469 20.082031 96.929688 20.082031 C 97.378906 20.082031 98.121094 20.082031 98.550781 20.121094 L 98.550781 19.691406 C 97.59375 19.691406 97.417969 19.691406 97.417969 19.007812 Z M 97.417969 9.75 "/>
<path style=" stroke:none;fill-rule:nonzero;fill:rgb(0%,0%,0%);fill-opacity:1;" d="M 105.746094 16.917969 C 105.746094 15.003906 104.28125 13.460938 102.542969 13.460938 C 100.765625 13.460938 99.339844 15.042969 99.339844 16.917969 C 99.339844 18.832031 100.824219 20.277344 102.542969 20.277344 C 104.300781 20.277344 105.746094 18.8125 105.746094 16.917969 Z M 102.542969 19.945312 C 101.996094 19.945312 101.332031 19.710938 100.902344 18.96875 C 100.492188 18.304688 100.472656 17.425781 100.472656 16.78125 C 100.472656 16.214844 100.472656 15.316406 100.941406 14.632812 C 101.351562 13.988281 102.015625 13.753906 102.542969 13.753906 C 103.109375 13.753906 103.753906 14.027344 104.144531 14.613281 C 104.613281 15.296875 104.613281 16.234375 104.613281 16.78125 C 104.613281 17.308594 104.613281 18.246094 104.222656 18.949219 C 103.8125 19.652344 103.109375 19.945312 102.542969 19.945312 Z M 102.542969 19.945312 "/>
<path style=" stroke:none;fill-rule:nonzero;fill:rgb(0%,0%,0%);fill-opacity:1;" d="M 108.015625 17.425781 C 108.71875 17.875 109.324219 17.875 109.480469 17.875 C 110.828125 17.875 111.824219 16.859375 111.824219 15.707031 C 111.824219 15.316406 111.707031 14.75 111.238281 14.261719 C 111.804688 13.675781 112.507812 13.675781 112.585938 13.675781 C 112.644531 13.675781 112.722656 13.675781 112.78125 13.695312 C 112.625 13.753906 112.566406 13.910156 112.566406 14.066406 C 112.566406 14.28125 112.703125 14.457031 112.9375 14.457031 C 113.074219 14.457031 113.328125 14.378906 113.328125 14.046875 C 113.328125 13.792969 113.132812 13.363281 112.605469 13.363281 C 111.824219 13.363281 111.238281 13.851562 111.042969 14.066406 C 110.59375 13.734375 110.066406 13.539062 109.5 13.539062 C 108.152344 13.539062 107.15625 14.554688 107.15625 15.707031 C 107.15625 16.546875 107.664062 17.09375 107.820312 17.230469 C 107.644531 17.464844 107.371094 17.894531 107.371094 18.480469 C 107.371094 19.339844 107.898438 19.710938 108.015625 19.789062 C 107.332031 19.984375 106.648438 20.53125 106.648438 21.292969 C 106.648438 22.328125 108.054688 23.1875 109.890625 23.1875 C 111.667969 23.1875 113.132812 22.386719 113.132812 21.273438 C 113.132812 20.902344 113.035156 20.023438 112.136719 19.554688 C 111.375 19.164062 110.632812 19.164062 109.34375 19.164062 C 108.425781 19.164062 108.328125 19.164062 108.054688 18.890625 C 107.917969 18.734375 107.78125 18.441406 107.78125 18.128906 C 107.78125 17.875 107.859375 17.621094 108.015625 17.425781 Z M 109.5 17.5625 C 108.171875 17.5625 108.171875 16.058594 108.171875 15.707031 C 108.171875 15.453125 108.171875 14.828125 108.425781 14.4375 C 108.71875 13.988281 109.167969 13.851562 109.480469 13.851562 C 110.789062 13.851562 110.789062 15.355469 110.789062 15.707031 C 110.789062 15.960938 110.789062 16.585938 110.535156 16.976562 C 110.261719 17.425781 109.8125 17.5625 109.5 17.5625 Z M 109.890625 22.875 C 108.464844 22.875 107.371094 22.132812 107.371094 21.292969 C 107.371094 21.175781 107.410156 20.589844 107.976562 20.199219 C 108.308594 19.984375 108.425781 19.984375 109.480469 19.984375 C 110.710938 19.984375 112.410156 19.984375 112.410156 21.292969 C 112.410156 22.171875 111.277344 22.875 109.890625 22.875 Z M 109.890625 22.875 "/>
<path style=" stroke:none;fill-rule:nonzero;fill:rgb(0%,0%,0%);fill-opacity:1;" d="M 123.378906 14.027344 C 122.890625 14.105469 122.714844 14.476562 122.714844 14.75 C 122.714844 15.121094 122.988281 15.238281 123.203125 15.238281 C 123.652344 15.238281 123.964844 14.847656 123.964844 14.4375 C 123.964844 13.8125 123.242188 13.539062 122.617188 13.539062 C 121.71875 13.539062 121.210938 14.4375 121.074219 14.710938 C 120.722656 13.597656 119.804688 13.539062 119.53125 13.539062 C 118.007812 13.539062 117.207031 15.492188 117.207031 15.824219 C 117.207031 15.882812 117.265625 15.960938 117.363281 15.960938 C 117.480469 15.960938 117.519531 15.863281 117.539062 15.804688 C 118.046875 14.144531 119.0625 13.832031 119.492188 13.832031 C 120.15625 13.832031 120.292969 14.457031 120.292969 14.808594 C 120.292969 15.140625 120.195312 15.492188 120.019531 16.214844 L 119.511719 18.246094 C 119.296875 19.144531 118.867188 19.964844 118.066406 19.964844 C 117.988281 19.964844 117.617188 19.964844 117.304688 19.769531 C 117.851562 19.671875 117.96875 19.222656 117.96875 19.046875 C 117.96875 18.753906 117.734375 18.558594 117.460938 18.558594 C 117.089844 18.558594 116.699219 18.890625 116.699219 19.359375 C 116.699219 19.984375 117.402344 20.277344 118.046875 20.277344 C 118.769531 20.277344 119.277344 19.710938 119.589844 19.085938 C 119.824219 19.964844 120.585938 20.277344 121.132812 20.277344 C 122.65625 20.277344 123.457031 18.304688 123.457031 17.992188 C 123.457031 17.914062 123.398438 17.855469 123.320312 17.855469 C 123.183594 17.855469 123.164062 17.933594 123.125 18.050781 C 122.714844 19.359375 121.855469 19.964844 121.171875 19.964844 C 120.644531 19.964844 120.371094 19.574219 120.371094 18.96875 C 120.371094 18.636719 120.429688 18.402344 120.664062 17.425781 L 121.191406 15.375 C 121.40625 14.496094 121.914062 13.832031 122.617188 13.832031 C 122.636719 13.832031 123.066406 13.832031 123.378906 14.027344 Z M 123.378906 14.027344 "/>
<path style=" stroke:none;fill-rule:nonzero;fill:rgb(0%,0%,0%);fill-opacity:1;" d="M 133.796875 16.664062 L 137.917969 16.664062 C 138.132812 16.664062 138.40625 16.664062 138.40625 16.410156 C 138.40625 16.117188 138.152344 16.117188 137.917969 16.117188 L 133.796875 16.117188 L 133.796875 11.996094 C 133.796875 11.78125 133.796875 11.507812 133.523438 11.507812 C 133.25 11.507812 133.25 11.761719 133.25 11.996094 L 133.25 16.117188 L 129.128906 16.117188 C 128.914062 16.117188 128.640625 16.117188 128.640625 16.390625 C 128.640625 16.664062 128.894531 16.664062 129.128906 16.664062 L 133.25 16.664062 L 133.25 20.785156 C 133.25 21 133.25 21.273438 133.523438 21.273438 C 133.796875 21.273438 133.796875 21.019531 133.796875 20.785156 Z M 133.796875 16.664062 "/>
<path style=" stroke:none;fill-rule:nonzero;fill:rgb(0%,0%,0%);fill-opacity:1;" d="M 148.964844 9.886719 C 148.964844 9.75 148.867188 9.75 148.808594 9.75 C 148.671875 9.75 148.671875 9.789062 148.613281 10.042969 L 147.792969 13.246094 C 147.753906 13.441406 147.734375 13.460938 147.714844 13.480469 C 147.714844 13.5 147.597656 13.519531 147.578125 13.519531 C 145.117188 13.734375 143.242188 15.746094 143.242188 17.601562 C 143.242188 19.222656 144.472656 20.21875 146.035156 20.296875 C 145.917969 20.765625 145.820312 21.234375 145.683594 21.703125 C 145.488281 22.503906 145.371094 22.992188 145.371094 23.050781 C 145.371094 23.070312 145.371094 23.167969 145.507812 23.167969 C 145.566406 23.167969 145.625 23.167969 145.644531 23.109375 C 145.683594 23.070312 145.761719 22.71875 145.820312 22.523438 L 146.386719 20.296875 C 148.925781 20.160156 150.878906 18.070312 150.878906 16.195312 C 150.878906 14.691406 149.746094 13.597656 148.085938 13.5 Z M 147.988281 13.792969 C 148.984375 13.851562 149.960938 14.417969 149.960938 15.882812 C 149.960938 17.5625 148.789062 19.808594 146.445312 19.984375 Z M 146.113281 20.003906 C 145.371094 19.964844 144.160156 19.574219 144.160156 17.933594 C 144.160156 16.039062 145.507812 13.949219 147.65625 13.8125 Z M 146.113281 20.003906 "/>
<path style=" stroke:none;fill-rule:nonzero;fill:rgb(0%,0%,0%);fill-opacity:1;" d="M 155.460938 16.410156 C 155.460938 15.257812 155.304688 13.421875 154.464844 11.683594 C 153.585938 9.886719 152.355469 8.910156 152.199219 8.910156 C 152.140625 8.910156 152.0625 8.949219 152.0625 9.027344 C 152.0625 9.085938 152.0625 9.105469 152.316406 9.359375 C 153.820312 10.863281 154.640625 13.34375 154.640625 16.390625 C 154.640625 19.28125 153.9375 21.78125 152.21875 23.539062 C 152.0625 23.675781 152.0625 23.714844 152.0625 23.753906 C 152.0625 23.832031 152.140625 23.871094 152.199219 23.871094 C 152.394531 23.871094 153.625 22.796875 154.347656 21.332031 C 155.109375 19.808594 155.460938 18.1875 155.460938 16.410156 Z M 155.460938 16.410156 "/>
<path style=" stroke:none;fill-rule:nonzero;fill:rgb(0%,0%,0%);fill-opacity:1;" d="M 166.199219 16.664062 L 170.320312 16.664062 C 170.535156 16.664062 170.808594 16.664062 170.808594 16.410156 C 170.808594 16.117188 170.554688 16.117188 170.320312 16.117188 L 166.199219 16.117188 L 166.199219 11.996094 C 166.199219 11.78125 166.199219 11.507812 165.925781 11.507812 C 165.652344 11.507812 165.652344 11.761719 165.652344 11.996094 L 165.652344 16.117188 L 161.53125 16.117188 C 161.316406 16.117188 161.042969 16.117188 161.042969 16.390625 C 161.042969 16.664062 161.296875 16.664062 161.53125 16.664062 L 165.652344 16.664062 L 165.652344 20.785156 C 165.652344 21 165.652344 21.273438 165.925781 21.273438 C 166.199219 21.273438 166.199219 21.019531 166.199219 20.785156 Z M 166.199219 16.664062 "/>
<path style=" stroke:none;fill-rule:nonzero;fill:rgb(0%,0%,0%);fill-opacity:1;" d="M 180.351562 14.59375 C 180.175781 14.59375 179.609375 14.59375 179.609375 15.199219 C 179.609375 15.570312 179.863281 15.824219 180.234375 15.824219 C 180.566406 15.824219 180.859375 15.609375 180.859375 15.179688 C 180.859375 14.183594 179.804688 13.460938 178.59375 13.460938 C 176.855469 13.460938 175.46875 15.003906 175.46875 16.898438 C 175.46875 18.8125 176.894531 20.277344 178.59375 20.277344 C 180.566406 20.277344 181.015625 18.480469 181.015625 18.34375 C 181.015625 18.207031 180.898438 18.207031 180.859375 18.207031 C 180.722656 18.207031 180.703125 18.246094 180.664062 18.441406 C 180.332031 19.496094 179.53125 19.945312 178.730469 19.945312 C 177.8125 19.945312 176.601562 19.144531 176.601562 16.878906 C 176.601562 14.398438 177.871094 13.792969 178.613281 13.792969 C 179.179688 13.792969 180 14.007812 180.351562 14.59375 Z M 180.351562 14.59375 "/>
<path style=" stroke:none;fill-rule:nonzero;fill:rgb(0%,0%,0%);fill-opacity:1;" d="M 188.246094 16.917969 C 188.246094 15.003906 186.78125 13.460938 185.042969 13.460938 C 183.265625 13.460938 181.839844 15.042969 181.839844 16.917969 C 181.839844 18.832031 183.324219 20.277344 185.042969 20.277344 C 186.800781 20.277344 188.246094 18.8125 188.246094 16.917969 Z M 185.042969 19.945312 C 184.496094 19.945312 183.832031 19.710938 183.402344 18.96875 C 182.992188 18.304688 182.972656 17.425781 182.972656 16.78125 C 182.972656 16.214844 182.972656 15.316406 183.441406 14.632812 C 183.851562 13.988281 184.515625 13.753906 185.042969 13.753906 C 185.609375 13.753906 186.253906 14.027344 186.644531 14.613281 C 187.113281 15.296875 187.113281 16.234375 187.113281 16.78125 C 187.113281 17.308594 187.113281 18.246094 186.722656 18.949219 C 186.3125 19.652344 185.609375 19.945312 185.042969 19.945312 Z M 185.042969 19.945312 "/>
<path style=" stroke:none;fill-rule:nonzero;fill:rgb(0%,0%,0%);fill-opacity:1;" d="M 193.644531 13.792969 C 193.644531 13.539062 193.644531 13.460938 193.488281 13.460938 C 193.371094 13.460938 193.097656 13.792969 192.980469 13.929688 C 192.53125 13.539062 192.0625 13.460938 191.574219 13.460938 C 189.777344 13.460938 189.230469 14.4375 189.230469 15.257812 C 189.230469 15.433594 189.230469 15.960938 189.796875 16.46875 C 190.285156 16.898438 190.792969 16.996094 191.476562 17.132812 C 192.296875 17.289062 192.492188 17.347656 192.863281 17.640625 C 193.136719 17.855469 193.332031 18.1875 193.332031 18.617188 C 193.332031 19.261719 192.960938 19.964844 191.632812 19.964844 C 190.65625 19.964844 189.933594 19.398438 189.601562 17.914062 C 189.542969 17.640625 189.542969 17.621094 189.542969 17.601562 C 189.503906 17.542969 189.445312 17.542969 189.40625 17.542969 C 189.230469 17.542969 189.230469 17.621094 189.230469 17.894531 L 189.230469 19.925781 C 189.230469 20.199219 189.230469 20.277344 189.386719 20.277344 C 189.464844 20.277344 189.464844 20.257812 189.71875 19.945312 C 189.796875 19.828125 189.796875 19.808594 190.03125 19.574219 C 190.597656 20.277344 191.398438 20.277344 191.652344 20.277344 C 193.214844 20.277344 193.996094 19.398438 193.996094 18.226562 C 193.996094 17.425781 193.507812 16.9375 193.371094 16.800781 C 192.84375 16.332031 192.433594 16.253906 191.4375 16.078125 C 191.007812 15.980469 189.914062 15.765625 189.914062 14.867188 C 189.914062 14.417969 190.226562 13.734375 191.574219 13.734375 C 193.195312 13.734375 193.292969 15.121094 193.3125 15.570312 C 193.332031 15.707031 193.429688 15.707031 193.488281 15.707031 C 193.644531 15.707031 193.644531 15.628906 193.644531 15.355469 Z M 193.644531 13.792969 "/>
<path style=" stroke:none;fill-rule:nonzero;fill:rgb(0%,0%,0%);fill-opacity:1;" d="M 202.003906 23.753906 C 202.003906 23.714844 202.003906 23.675781 201.75 23.421875 C 200.246094 21.917969 199.40625 19.457031 199.40625 16.410156 C 199.40625 13.5 200.109375 11 201.847656 9.242188 C 202.003906 9.105469 202.003906 9.085938 202.003906 9.027344 C 202.003906 8.949219 201.925781 8.910156 201.867188 8.910156 C 201.671875 8.910156 200.441406 9.984375 199.71875 11.449219 C 198.957031 12.972656 198.605469 14.554688 198.605469 16.410156 C 198.605469 17.738281 198.820312 19.515625 199.582031 21.097656 C 200.480469 22.894531 201.691406 23.871094 201.867188 23.871094 C 201.925781 23.871094 202.003906 23.832031 202.003906 23.753906 Z M 202.003906 23.753906 "/>
<path style=" stroke:none;fill-rule:nonzero;fill:rgb(0%,0%,0%);fill-opacity:1;" d="M 205.269531 9.75 L 203.179688 9.925781 L 203.179688 10.355469 C 204.195312 10.355469 204.3125 10.453125 204.3125 11.195312 L 204.3125 19.007812 C 204.3125 19.691406 204.15625 19.691406 203.179688 19.691406 L 203.179688 20.121094 C 203.609375 20.082031 204.332031 20.082031 204.78125 20.082031 C 205.230469 20.082031 205.972656 20.082031 206.402344 20.121094 L 206.402344 19.691406 C 205.445312 19.691406 205.269531 19.691406 205.269531 19.007812 Z M 205.269531 9.75 "/>
<path style=" stroke:none;fill-rule:nonzero;fill:rgb(0%,0%,0%);fill-opacity:1;" d="M 213.597656 16.917969 C 213.597656 15.003906 212.132812 13.460938 210.394531 13.460938 C 208.617188 13.460938 207.191406 15.042969 207.191406 16.917969 C 207.191406 18.832031 208.675781 20.277344 210.394531 20.277344 C 212.152344 20.277344 213.597656 18.8125 213.597656 16.917969 Z M 210.394531 19.945312 C 209.847656 19.945312 209.183594 19.710938 208.753906 18.96875 C 208.34375 18.304688 208.324219 17.425781 208.324219 16.78125 C 208.324219 16.214844 208.324219 15.316406 208.792969 14.632812 C 209.203125 13.988281 209.867188 13.753906 210.394531 13.753906 C 210.960938 13.753906 211.605469 14.027344 211.996094 14.613281 C 212.464844 15.296875 212.464844 16.234375 212.464844 16.78125 C 212.464844 17.308594 212.464844 18.246094 212.074219 18.949219 C 211.664062 19.652344 210.960938 19.945312 210.394531 19.945312 Z M 210.394531 19.945312 "/>
<path style=" stroke:none;fill-rule:nonzero;fill:rgb(0%,0%,0%);fill-opacity:1;" d="M 215.867188 17.425781 C 216.570312 17.875 217.175781 17.875 217.332031 17.875 C 218.679688 17.875 219.675781 16.859375 219.675781 15.707031 C 219.675781 15.316406 219.558594 14.75 219.089844 14.261719 C 219.65625 13.675781 220.359375 13.675781 220.4375 13.675781 C 220.496094 13.675781 220.574219 13.675781 220.632812 13.695312 C 220.476562 13.753906 220.417969 13.910156 220.417969 14.066406 C 220.417969 14.28125 220.554688 14.457031 220.789062 14.457031 C 220.925781 14.457031 221.179688 14.378906 221.179688 14.046875 C 221.179688 13.792969 220.984375 13.363281 220.457031 13.363281 C 219.675781 13.363281 219.089844 13.851562 218.894531 14.066406 C 218.445312 13.734375 217.917969 13.539062 217.351562 13.539062 C 216.003906 13.539062 215.007812 14.554688 215.007812 15.707031 C 215.007812 16.546875 215.515625 17.09375 215.671875 17.230469 C 215.496094 17.464844 215.222656 17.894531 215.222656 18.480469 C 215.222656 19.339844 215.75 19.710938 215.867188 19.789062 C 215.183594 19.984375 214.5 20.53125 214.5 21.292969 C 214.5 22.328125 215.90625 23.1875 217.742188 23.1875 C 219.519531 23.1875 220.984375 22.386719 220.984375 21.273438 C 220.984375 20.902344 220.886719 20.023438 219.988281 19.554688 C 219.226562 19.164062 218.484375 19.164062 217.195312 19.164062 C 216.277344 19.164062 216.179688 19.164062 215.90625 18.890625 C 215.769531 18.734375 215.632812 18.441406 215.632812 18.128906 C 215.632812 17.875 215.710938 17.621094 215.867188 17.425781 Z M 217.351562 17.5625 C 216.023438 17.5625 216.023438 16.058594 216.023438 15.707031 C 216.023438 15.453125 216.023438 14.828125 216.277344 14.4375 C 216.570312 13.988281 217.019531 13.851562 217.332031 13.851562 C 218.640625 13.851562 218.640625 15.355469 218.640625 15.707031 C 218.640625 15.960938 218.640625 16.585938 218.386719 16.976562 C 218.113281 17.425781 217.664062 17.5625 217.351562 17.5625 Z M 217.742188 22.875 C 216.316406 22.875 215.222656 22.132812 215.222656 21.292969 C 215.222656 21.175781 215.261719 20.589844 215.828125 20.199219 C 216.160156 19.984375 216.277344 19.984375 217.332031 19.984375 C 218.5625 19.984375 220.261719 19.984375 220.261719 21.292969 C 220.261719 22.171875 219.128906 22.875 217.742188 22.875 Z M 217.742188 22.875 "/>
<path style=" stroke:none;fill-rule:nonzero;fill:rgb(0%,0%,0%);fill-opacity:1;" d="M 231.230469 14.027344 C 230.742188 14.105469 230.566406 14.476562 230.566406 14.75 C 230.566406 15.121094 230.839844 15.238281 231.054688 15.238281 C 231.503906 15.238281 231.816406 14.847656 231.816406 14.4375 C 231.816406 13.8125 231.09375 13.539062 230.46875 13.539062 C 229.570312 13.539062 229.0625 14.4375 228.925781 14.710938 C 228.574219 13.597656 227.65625 13.539062 227.382812 13.539062 C 225.859375 13.539062 225.058594 15.492188 225.058594 15.824219 C 225.058594 15.882812 225.117188 15.960938 225.214844 15.960938 C 225.332031 15.960938 225.371094 15.863281 225.390625 15.804688 C 225.898438 14.144531 226.914062 13.832031 227.34375 13.832031 C 228.007812 13.832031 228.144531 14.457031 228.144531 14.808594 C 228.144531 15.140625 228.046875 15.492188 227.871094 16.214844 L 227.363281 18.246094 C 227.148438 19.144531 226.71875 19.964844 225.917969 19.964844 C 225.839844 19.964844 225.46875 19.964844 225.15625 19.769531 C 225.703125 19.671875 225.820312 19.222656 225.820312 19.046875 C 225.820312 18.753906 225.585938 18.558594 225.3125 18.558594 C 224.941406 18.558594 224.550781 18.890625 224.550781 19.359375 C 224.550781 19.984375 225.253906 20.277344 225.898438 20.277344 C 226.621094 20.277344 227.128906 19.710938 227.441406 19.085938 C 227.675781 19.964844 228.4375 20.277344 228.984375 20.277344 C 230.507812 20.277344 231.308594 18.304688 231.308594 17.992188 C 231.308594 17.914062 231.25 17.855469 231.171875 17.855469 C 231.035156 17.855469 231.015625 17.933594 230.976562 18.050781 C 230.566406 19.359375 229.707031 19.964844 229.023438 19.964844 C 228.496094 19.964844 228.222656 19.574219 228.222656 18.96875 C 228.222656 18.636719 228.28125 18.402344 228.515625 17.425781 L 229.042969 15.375 C 229.257812 14.496094 229.765625 13.832031 230.46875 13.832031 C 230.488281 13.832031 230.917969 13.832031 231.230469 14.027344 Z M 231.230469 14.027344 "/>
<path style=" stroke:none;fill-rule:nonzero;fill:rgb(0%,0%,0%);fill-opacity:1;" d="M 241.796875 16.664062 L 245.917969 16.664062 C 246.132812 16.664062 246.40625 16.664062 246.40625 16.410156 C 246.40625 16.117188 246.152344 16.117188 245.917969 16.117188 L 241.796875 16.117188 L 241.796875 11.996094 C 241.796875 11.78125 241.796875 11.507812 241.523438 11.507812 C 241.25 11.507812 241.25 11.761719 241.25 11.996094 L 241.25 16.117188 L 237.128906 16.117188 C 236.914062 16.117188 236.640625 16.117188 236.640625 16.390625 C 236.640625 16.664062 236.894531 16.664062 237.128906 16.664062 L 241.25 16.664062 L 241.25 20.785156 C 241.25 21 241.25 21.273438 241.523438 21.273438 C 241.796875 21.273438 241.796875 21.019531 241.796875 20.785156 Z M 241.796875 16.664062 "/>
<path style=" stroke:none;fill-rule:nonzero;fill:rgb(0%,0%,0%);fill-opacity:1;" d="M 256.96875 9.886719 C 256.96875 9.75 256.871094 9.75 256.8125 9.75 C 256.675781 9.75 256.675781 9.789062 256.617188 10.042969 L 255.796875 13.246094 C 255.757812 13.441406 255.738281 13.460938 255.71875 13.480469 C 255.71875 13.5 255.601562 13.519531 255.582031 13.519531 C 253.121094 13.734375 251.246094 15.746094 251.246094 17.601562 C 251.246094 19.222656 252.476562 20.21875 254.039062 20.296875 C 253.921875 20.765625 253.824219 21.234375 253.6875 21.703125 C 253.492188 22.503906 253.375 22.992188 253.375 23.050781 C 253.375 23.070312 253.375 23.167969 253.511719 23.167969 C 253.570312 23.167969 253.628906 23.167969 253.648438 23.109375 C 253.6875 23.070312 253.765625 22.71875 253.824219 22.523438 L 254.390625 20.296875 C 256.929688 20.160156 258.882812 18.070312 258.882812 16.195312 C 258.882812 14.691406 257.75 13.597656 256.089844 13.5 Z M 255.992188 13.792969 C 256.988281 13.851562 257.964844 14.417969 257.964844 15.882812 C 257.964844 17.5625 256.792969 19.808594 254.449219 19.984375 Z M 254.117188 20.003906 C 253.375 19.964844 252.164062 19.574219 252.164062 17.933594 C 252.164062 16.039062 253.511719 13.949219 255.660156 13.8125 Z M 254.117188 20.003906 "/>
<path style=" stroke:none;fill-rule:nonzero;fill:rgb(0%,0%,0%);fill-opacity:1;" d="M 263.460938 16.410156 C 263.460938 15.257812 263.304688 13.421875 262.464844 11.683594 C 261.585938 9.886719 260.355469 8.910156 260.199219 8.910156 C 260.140625 8.910156 260.0625 8.949219 260.0625 9.027344 C 260.0625 9.085938 260.0625 9.105469 260.316406 9.359375 C 261.820312 10.863281 262.640625 13.34375 262.640625 16.390625 C 262.640625 19.28125 261.9375 21.78125 260.21875 23.539062 C 260.0625 23.675781 260.0625 23.714844 260.0625 23.753906 C 260.0625 23.832031 260.140625 23.871094 260.199219 23.871094 C 260.394531 23.871094 261.625 22.796875 262.347656 21.332031 C 263.109375 19.808594 263.460938 18.1875 263.460938 16.410156 Z M 263.460938 16.410156 "/>
<path style=" stroke:none;fill-rule:nonzero;fill:rgb(0%,0%,0%);fill-opacity:1;" d="M 267.117188 8.910156 L 265.105469 8.910156 L 265.105469 9.476562 L 266.550781 9.476562 L 266.550781 23.304688 L 265.105469 23.304688 L 265.105469 23.851562 L 267.117188 23.851562 Z M 267.117188 8.910156 "/>
<path style=" stroke:none;fill-rule:nonzero;fill:rgb(0%,0%,0%);fill-opacity:1;" d="M 27.816406 51.578125 C 28.03125 51.578125 28.304688 51.578125 28.304688 51.304688 C 28.304688 51.03125 28.050781 51.03125 27.816406 51.03125 L 19.027344 51.03125 C 18.8125 51.03125 18.539062 51.03125 18.539062 51.304688 C 18.539062 51.578125 18.792969 51.578125 19.027344 51.578125 Z M 27.816406 54.351562 C 28.03125 54.351562 28.304688 54.351562 28.304688 54.097656 C 28.304688 53.804688 28.050781 53.804688 27.816406 53.804688 L 19.027344 53.804688 C 18.8125 53.804688 18.539062 53.804688 18.539062 54.078125 C 18.539062 54.351562 18.792969 54.351562 19.027344 54.351562 Z M 27.816406 54.351562 "/>
<path style=" stroke:none;fill-rule:nonzero;fill:rgb(0%,0%,0%);fill-opacity:1;" d="M 43.183594 52.984375 C 43.4375 52.984375 43.710938 52.984375 43.710938 52.691406 C 43.710938 52.378906 43.4375 52.378906 43.183594 52.378906 L 35.097656 52.378906 C 34.84375 52.378906 34.570312 52.378906 34.570312 52.691406 C 34.570312 52.984375 34.84375 52.984375 35.097656 52.984375 Z M 43.183594 52.984375 "/>
<path style=" stroke:none;fill-rule:nonzero;fill:rgb(0%,0%,0%);fill-opacity:1;" d="M 53.617188 47.902344 C 53.226562 48.46875 52.640625 48.976562 51.898438 48.976562 C 51.722656 48.976562 51 48.9375 50.785156 48.253906 C 50.824219 48.273438 50.902344 48.273438 50.921875 48.273438 C 51.371094 48.273438 51.683594 47.882812 51.683594 47.53125 C 51.683594 47.199219 51.390625 47.082031 51.175781 47.082031 C 50.921875 47.082031 50.414062 47.257812 50.414062 47.980469 C 50.414062 48.742188 51.058594 49.269531 51.898438 49.269531 C 53.402344 49.269531 54.90625 47.902344 55.316406 46.242188 L 56.78125 40.402344 C 56.800781 40.34375 56.839844 40.246094 56.839844 40.148438 C 56.839844 39.933594 56.644531 39.777344 56.429688 39.777344 C 56.292969 39.777344 55.980469 39.835938 55.863281 40.285156 L 54.75 44.679688 C 54.691406 44.953125 54.691406 44.992188 54.554688 45.148438 C 54.261719 45.558594 53.773438 46.066406 53.050781 46.066406 C 52.210938 46.066406 52.132812 45.246094 52.132812 44.855469 C 52.132812 43.996094 52.542969 42.84375 52.953125 41.769531 C 53.109375 41.339844 53.207031 41.125 53.207031 40.832031 C 53.207031 40.207031 52.757812 39.640625 52.015625 39.640625 C 50.648438 39.640625 50.101562 41.808594 50.101562 41.925781 C 50.101562 41.984375 50.160156 42.0625 50.257812 42.0625 C 50.394531 42.0625 50.414062 42.003906 50.472656 41.789062 C 50.824219 40.539062 51.390625 39.933594 51.976562 39.933594 C 52.113281 39.933594 52.367188 39.933594 52.367188 40.421875 C 52.367188 40.8125 52.210938 41.242188 51.976562 41.808594 C 51.253906 43.78125 51.253906 44.269531 51.253906 44.621094 C 51.253906 46.046875 52.269531 46.378906 53.011719 46.378906 C 53.441406 46.378906 53.988281 46.242188 54.496094 45.675781 L 54.515625 45.695312 C 54.300781 46.574219 54.144531 47.160156 53.617188 47.902344 Z M 53.617188 47.902344 "/>
<path style=" stroke:none;fill-rule:nonzero;fill:rgb(0%,0%,0%);fill-opacity:1;" d="M 46.371094 52.386719 L 60.621094 52.386719 L 60.621094 52.984375 L 46.371094 52.984375 Z M 46.371094 52.386719 "/>
<path style=" stroke:none;fill-rule:nonzero;fill:rgb(0%,0%,0%);fill-opacity:1;" d="M 53.480469 60.527344 C 52.992188 60.605469 52.816406 60.976562 52.816406 61.25 C 52.816406 61.621094 53.089844 61.738281 53.304688 61.738281 C 53.753906 61.738281 54.066406 61.347656 54.066406 60.9375 C 54.066406 60.3125 53.34375 60.039062 52.71875 60.039062 C 51.820312 60.039062 51.3125 60.9375 51.175781 61.210938 C 50.824219 60.097656 49.90625 60.039062 49.632812 60.039062 C 48.109375 60.039062 47.308594 61.992188 47.308594 62.324219 C 47.308594 62.382812 47.367188 62.460938 47.464844 62.460938 C 47.582031 62.460938 47.621094 62.363281 47.640625 62.304688 C 48.148438 60.644531 49.164062 60.332031 49.59375 60.332031 C 50.257812 60.332031 50.394531 60.957031 50.394531 61.308594 C 50.394531 61.640625 50.296875 61.992188 50.121094 62.714844 L 49.613281 64.746094 C 49.398438 65.644531 48.96875 66.464844 48.167969 66.464844 C 48.089844 66.464844 47.71875 66.464844 47.40625 66.269531 C 47.953125 66.171875 48.070312 65.722656 48.070312 65.546875 C 48.070312 65.253906 47.835938 65.058594 47.5625 65.058594 C 47.191406 65.058594 46.800781 65.390625 46.800781 65.859375 C 46.800781 66.484375 47.503906 66.777344 48.148438 66.777344 C 48.871094 66.777344 49.378906 66.210938 49.691406 65.585938 C 49.925781 66.464844 50.6875 66.777344 51.234375 66.777344 C 52.757812 66.777344 53.558594 64.804688 53.558594 64.492188 C 53.558594 64.414062 53.5 64.355469 53.421875 64.355469 C 53.285156 64.355469 53.265625 64.433594 53.226562 64.550781 C 52.816406 65.859375 51.957031 66.464844 51.273438 66.464844 C 50.746094 66.464844 50.472656 66.074219 50.472656 65.46875 C 50.472656 65.136719 50.53125 64.902344 50.765625 63.925781 L 51.292969 61.875 C 51.507812 60.996094 52.015625 60.332031 52.71875 60.332031 C 52.738281 60.332031 53.167969 60.332031 53.480469 60.527344 Z M 53.480469 60.527344 "/>
<path style=" stroke:none;fill-rule:nonzero;fill:rgb(0%,0%,0%);fill-opacity:1;" d="M 57.453125 60.242188 C 57.609375 60.085938 58.019531 59.753906 58.195312 59.617188 C 58.800781 59.050781 59.386719 58.503906 59.386719 57.605469 C 59.386719 56.414062 58.390625 55.652344 57.160156 55.652344 C 55.949219 55.652344 55.167969 56.550781 55.167969 57.449219 C 55.167969 57.9375 55.558594 57.996094 55.695312 57.996094 C 55.910156 57.996094 56.222656 57.859375 56.222656 57.46875 C 56.222656 56.960938 55.714844 56.960938 55.597656 56.960938 C 55.890625 56.21875 56.554688 55.984375 57.042969 55.984375 C 57.960938 55.984375 58.449219 56.765625 58.449219 57.605469 C 58.449219 58.640625 57.726562 59.402344 56.535156 60.59375 L 55.285156 61.902344 C 55.167969 62 55.167969 62.019531 55.167969 62.273438 L 59.09375 62.273438 L 59.386719 60.496094 L 59.074219 60.496094 C 59.054688 60.691406 58.976562 61.179688 58.859375 61.375 C 58.800781 61.453125 58.039062 61.453125 57.882812 61.453125 L 56.105469 61.453125 Z M 57.453125 60.242188 "/>
<path style=" stroke:none;fill-rule:nonzero;fill:rgb(0%,0%,0%);fill-opacity:1;" d="M 75.285156 52.984375 C 75.539062 52.984375 75.8125 52.984375 75.8125 52.691406 C 75.8125 52.378906 75.539062 52.378906 75.285156 52.378906 L 67.199219 52.378906 C 66.945312 52.378906 66.671875 52.378906 66.671875 52.691406 C 66.671875 52.984375 66.945312 52.984375 67.199219 52.984375 Z M 75.285156 52.984375 "/>
<path style=" stroke:none;fill-rule:nonzero;fill:rgb(0%,0%,0%);fill-opacity:1;" d="M 85.867188 47.902344 C 85.476562 48.46875 84.890625 48.976562 84.148438 48.976562 C 83.972656 48.976562 83.25 48.9375 83.035156 48.253906 C 83.074219 48.273438 83.152344 48.273438 83.171875 48.273438 C 83.621094 48.273438 83.933594 47.882812 83.933594 47.53125 C 83.933594 47.199219 83.640625 47.082031 83.425781 47.082031 C 83.171875 47.082031 82.664062 47.257812 82.664062 47.980469 C 82.664062 48.742188 83.308594 49.269531 84.148438 49.269531 C 85.652344 49.269531 87.15625 47.902344 87.566406 46.242188 L 89.03125 40.402344 C 89.050781 40.34375 89.089844 40.246094 89.089844 40.148438 C 89.089844 39.933594 88.894531 39.777344 88.679688 39.777344 C 88.542969 39.777344 88.230469 39.835938 88.113281 40.285156 L 87 44.679688 C 86.941406 44.953125 86.941406 44.992188 86.804688 45.148438 C 86.511719 45.558594 86.023438 46.066406 85.300781 46.066406 C 84.460938 46.066406 84.382812 45.246094 84.382812 44.855469 C 84.382812 43.996094 84.792969 42.84375 85.203125 41.769531 C 85.359375 41.339844 85.457031 41.125 85.457031 40.832031 C 85.457031 40.207031 85.007812 39.640625 84.265625 39.640625 C 82.898438 39.640625 82.351562 41.808594 82.351562 41.925781 C 82.351562 41.984375 82.410156 42.0625 82.507812 42.0625 C 82.644531 42.0625 82.664062 42.003906 82.722656 41.789062 C 83.074219 40.539062 83.640625 39.933594 84.226562 39.933594 C 84.363281 39.933594 84.617188 39.933594 84.617188 40.421875 C 84.617188 40.8125 84.460938 41.242188 84.226562 41.808594 C 83.503906 43.78125 83.503906 44.269531 83.503906 44.621094 C 83.503906 46.046875 84.519531 46.378906 85.261719 46.378906 C 85.691406 46.378906 86.238281 46.242188 86.746094 45.675781 L 86.765625 45.695312 C 86.550781 46.574219 86.394531 47.160156 85.867188 47.902344 Z M 85.867188 47.902344 "/>
<path style=" stroke:none;fill-rule:nonzero;fill:rgb(0%,0%,0%);fill-opacity:1;" d="M 92.375 36.09375 C 92.433594 35.976562 92.472656 35.898438 92.472656 35.800781 C 92.472656 35.46875 92.160156 35.253906 91.886719 35.253906 C 91.496094 35.253906 91.378906 35.605469 91.339844 35.742188 L 90.070312 40.039062 C 90.03125 40.15625 90.03125 40.175781 90.03125 40.195312 C 90.03125 40.273438 90.089844 40.292969 90.1875 40.332031 C 90.382812 40.410156 90.402344 40.410156 90.421875 40.410156 C 90.441406 40.410156 90.5 40.410156 90.578125 40.234375 Z M 92.375 36.09375 "/>
<path style=" stroke:none;fill-rule:nonzero;fill:rgb(0%,0%,0%);fill-opacity:1;" d="M 81.925781 52.386719 L 93.175781 52.386719 L 93.175781 52.984375 L 81.925781 52.984375 Z M 81.925781 52.386719 "/>
<path style=" stroke:none;fill-rule:nonzero;fill:rgb(0%,0%,0%);fill-opacity:1;" d="M 90.378906 60.527344 C 89.890625 60.605469 89.714844 60.976562 89.714844 61.25 C 89.714844 61.621094 89.988281 61.738281 90.203125 61.738281 C 90.652344 61.738281 90.964844 61.347656 90.964844 60.9375 C 90.964844 60.3125 90.242188 60.039062 89.617188 60.039062 C 88.71875 60.039062 88.210938 60.9375 88.074219 61.210938 C 87.722656 60.097656 86.804688 60.039062 86.53125 60.039062 C 85.007812 60.039062 84.207031 61.992188 84.207031 62.324219 C 84.207031 62.382812 84.265625 62.460938 84.363281 62.460938 C 84.480469 62.460938 84.519531 62.363281 84.539062 62.304688 C 85.046875 60.644531 86.0625 60.332031 86.492188 60.332031 C 87.15625 60.332031 87.292969 60.957031 87.292969 61.308594 C 87.292969 61.640625 87.195312 61.992188 87.019531 62.714844 L 86.511719 64.746094 C 86.296875 65.644531 85.867188 66.464844 85.066406 66.464844 C 84.988281 66.464844 84.617188 66.464844 84.304688 66.269531 C 84.851562 66.171875 84.96875 65.722656 84.96875 65.546875 C 84.96875 65.253906 84.734375 65.058594 84.460938 65.058594 C 84.089844 65.058594 83.699219 65.390625 83.699219 65.859375 C 83.699219 66.484375 84.402344 66.777344 85.046875 66.777344 C 85.769531 66.777344 86.277344 66.210938 86.589844 65.585938 C 86.824219 66.464844 87.585938 66.777344 88.132812 66.777344 C 89.65625 66.777344 90.457031 64.804688 90.457031 64.492188 C 90.457031 64.414062 90.398438 64.355469 90.320312 64.355469 C 90.183594 64.355469 90.164062 64.433594 90.125 64.550781 C 89.714844 65.859375 88.855469 66.464844 88.171875 66.464844 C 87.644531 66.464844 87.371094 66.074219 87.371094 65.46875 C 87.371094 65.136719 87.429688 64.902344 87.664062 63.925781 L 88.191406 61.875 C 88.40625 60.996094 88.914062 60.332031 89.617188 60.332031 C 89.636719 60.332031 90.066406 60.332031 90.378906 60.527344 Z M 90.378906 60.527344 "/>
<path style=" stroke:none;fill-rule:nonzero;fill:rgb(0%,0%,0%);fill-opacity:1;" d="M 118.003906 45.210938 C 115.777344 47.222656 115.210938 50.25 115.210938 52.691406 C 115.210938 55.308594 115.855469 58.238281 118.003906 60.171875 L 118.902344 60.171875 C 118.335938 59.625 117.417969 58.472656 116.890625 56.773438 C 116.480469 55.445312 116.34375 54.058594 116.34375 52.710938 C 116.34375 48.296875 117.90625 46.148438 118.902344 45.210938 Z M 118.003906 45.210938 "/>
<path style=" stroke:none;fill-rule:nonzero;fill:rgb(0%,0%,0%);fill-opacity:1;" d="M 126.066406 51.929688 C 126.066406 51.011719 125.871094 49.644531 124.074219 49.644531 C 123.039062 49.644531 122.355469 50.230469 122.003906 50.660156 L 122.003906 46.050781 L 120.890625 46.050781 L 120.890625 56.421875 L 122.023438 56.421875 L 122.023438 52.710938 C 122.023438 51.773438 122.375 50.542969 123.507812 50.542969 C 124.894531 50.542969 124.933594 51.5 124.933594 52.027344 L 124.933594 56.421875 L 126.066406 56.421875 Z M 126.066406 51.929688 "/>
<path style=" stroke:none;fill-rule:nonzero;fill:rgb(0%,0%,0%);fill-opacity:1;" d="M 133.3125 53.0625 C 133.3125 52.417969 133.253906 51.5 132.785156 50.71875 C 132.160156 49.683594 131.125 49.566406 130.695312 49.566406 C 129.074219 49.566406 127.726562 51.109375 127.726562 53.0625 C 127.726562 55.035156 129.171875 56.578125 130.890625 56.578125 C 131.59375 56.578125 132.414062 56.382812 133.234375 55.777344 C 133.234375 55.71875 133.175781 55.25 133.175781 55.230469 C 133.175781 55.210938 133.136719 54.878906 133.136719 54.820312 C 132.257812 55.5625 131.378906 55.679688 130.929688 55.679688 C 129.777344 55.679688 128.800781 54.644531 128.761719 53.0625 Z M 128.859375 52.261719 C 129.113281 51.246094 129.816406 50.464844 130.695312 50.464844 C 131.144531 50.464844 132.179688 50.660156 132.433594 52.261719 Z M 128.859375 52.261719 "/>
<path style=" stroke:none;fill-rule:nonzero;fill:rgb(0%,0%,0%);fill-opacity:1;" d="M 140.019531 51.929688 C 140.019531 51.011719 139.824219 49.644531 138.027344 49.644531 C 137.1875 49.644531 136.464844 50.015625 135.898438 50.738281 L 135.898438 49.722656 L 134.84375 49.722656 L 134.84375 56.421875 L 135.976562 56.421875 L 135.976562 52.710938 C 135.976562 51.773438 136.328125 50.542969 137.460938 50.542969 C 138.847656 50.542969 138.886719 51.5 138.886719 52.027344 L 138.886719 56.421875 L 140.019531 56.421875 Z M 140.019531 51.929688 "/>
<path style=" stroke:none;fill-rule:nonzero;fill:rgb(0%,0%,0%);fill-opacity:1;" d="M 147.1875 54.800781 C 146.503906 55.367188 145.742188 55.640625 144.902344 55.640625 C 143.652344 55.640625 142.851562 54.546875 142.851562 53.082031 C 142.851562 51.851562 143.457031 50.484375 144.941406 50.484375 C 145.9375 50.484375 146.367188 50.738281 147.011719 51.167969 L 147.1875 50.191406 C 146.308594 49.683594 145.820312 49.566406 144.941406 49.566406 C 142.871094 49.566406 141.71875 51.382812 141.71875 53.082031 C 141.71875 54.996094 143.085938 56.578125 144.882812 56.578125 C 145.605469 56.578125 146.445312 56.382812 147.265625 55.796875 C 147.265625 55.757812 147.226562 55.289062 147.207031 55.230469 Z M 147.1875 54.800781 "/>
<path style=" stroke:none;fill-rule:nonzero;fill:rgb(0%,0%,0%);fill-opacity:1;" d="M 153.714844 53.0625 C 153.714844 52.417969 153.65625 51.5 153.1875 50.71875 C 152.5625 49.683594 151.527344 49.566406 151.097656 49.566406 C 149.476562 49.566406 148.128906 51.109375 148.128906 53.0625 C 148.128906 55.035156 149.574219 56.578125 151.292969 56.578125 C 151.996094 56.578125 152.816406 56.382812 153.636719 55.777344 C 153.636719 55.71875 153.578125 55.25 153.578125 55.230469 C 153.578125 55.210938 153.539062 54.878906 153.539062 54.820312 C 152.660156 55.5625 151.78125 55.679688 151.332031 55.679688 C 150.179688 55.679688 149.203125 54.644531 149.164062 53.0625 Z M 149.261719 52.261719 C 149.515625 51.246094 150.21875 50.464844 151.097656 50.464844 C 151.546875 50.464844 152.582031 50.660156 152.835938 52.261719 Z M 149.261719 52.261719 "/>
<path style=" stroke:none;fill-rule:nonzero;fill:rgb(0%,0%,0%);fill-opacity:1;" d="M 161.496094 55.757812 C 162.003906 56.207031 162.628906 56.578125 163.429688 56.578125 C 164.875 56.578125 166.144531 55.113281 166.144531 53.082031 C 166.144531 51.285156 165.207031 49.644531 163.800781 49.644531 C 163.195312 49.644531 162.238281 49.839844 161.457031 50.484375 L 161.457031 49.78125 L 160.363281 49.78125 L 160.363281 59.3125 L 161.496094 59.3125 Z M 161.496094 51.402344 C 161.828125 50.894531 162.394531 50.5625 163.019531 50.5625 C 164.113281 50.5625 165.011719 51.675781 165.011719 53.101562 C 165.011719 54.605469 163.996094 55.679688 162.882812 55.679688 C 162.472656 55.679688 162.179688 55.523438 161.90625 55.308594 C 161.535156 54.996094 161.496094 54.722656 161.496094 54.488281 Z M 161.496094 51.402344 "/>
<path style=" stroke:none;fill-rule:nonzero;fill:rgb(0%,0%,0%);fill-opacity:1;" d="M 168.503906 53.140625 C 168.503906 51.636719 169.636719 50.660156 170.984375 50.640625 L 170.984375 49.644531 C 169.636719 49.644531 168.835938 50.445312 168.425781 51.03125 L 168.425781 49.722656 L 167.410156 49.722656 L 167.410156 56.421875 L 168.503906 56.421875 Z M 168.503906 53.140625 "/>
<path style=" stroke:none;fill-rule:nonzero;fill:rgb(0%,0%,0%);fill-opacity:1;" d="M 178.046875 53.140625 C 178.046875 51.109375 176.5625 49.566406 174.84375 49.566406 C 173.085938 49.566406 171.640625 51.148438 171.640625 53.140625 C 171.640625 55.09375 173.125 56.578125 174.84375 56.578125 C 176.601562 56.578125 178.046875 55.054688 178.046875 53.140625 Z M 174.84375 55.640625 C 173.769531 55.640625 172.773438 54.742188 172.773438 52.984375 C 172.773438 51.167969 173.886719 50.464844 174.84375 50.464844 C 175.859375 50.464844 176.914062 51.246094 176.914062 52.984375 C 176.914062 54.820312 175.859375 55.640625 174.84375 55.640625 Z M 174.84375 55.640625 "/>
<path style=" stroke:none;fill-rule:nonzero;fill:rgb(0%,0%,0%);fill-opacity:1;" d="M 185.003906 49.78125 L 183.890625 49.78125 L 182.796875 52.769531 C 182.542969 53.472656 181.996094 55.054688 181.898438 55.621094 L 181.878906 55.621094 C 181.820312 55.09375 181.507812 54.273438 181.292969 53.628906 L 179.90625 49.78125 L 178.753906 49.78125 L 181.214844 56.421875 L 182.542969 56.421875 Z M 185.003906 49.78125 "/>
<path style=" stroke:none;fill-rule:nonzero;fill:rgb(0%,0%,0%);fill-opacity:1;" d="M 191.363281 53.0625 C 191.363281 52.417969 191.304688 51.5 190.835938 50.71875 C 190.210938 49.683594 189.175781 49.566406 188.746094 49.566406 C 187.125 49.566406 185.777344 51.109375 185.777344 53.0625 C 185.777344 55.035156 187.222656 56.578125 188.941406 56.578125 C 189.644531 56.578125 190.464844 56.382812 191.285156 55.777344 C 191.285156 55.71875 191.226562 55.25 191.226562 55.230469 C 191.226562 55.210938 191.1875 54.878906 191.1875 54.820312 C 190.308594 55.5625 189.429688 55.679688 188.980469 55.679688 C 187.828125 55.679688 186.851562 54.644531 186.8125 53.0625 Z M 186.910156 52.261719 C 187.164062 51.246094 187.867188 50.464844 188.746094 50.464844 C 189.195312 50.464844 190.230469 50.660156 190.484375 52.261719 Z M 186.910156 52.261719 "/>
<path style=" stroke:none;fill-rule:nonzero;fill:rgb(0%,0%,0%);fill-opacity:1;" d="M 198.066406 46.050781 L 196.953125 46.050781 L 196.953125 50.40625 C 196.269531 49.839844 195.488281 49.644531 194.84375 49.644531 C 193.417969 49.644531 192.265625 51.167969 192.265625 53.101562 C 192.265625 55.035156 193.359375 56.578125 194.785156 56.578125 C 195.332031 56.578125 196.171875 56.382812 196.914062 55.660156 L 196.914062 56.421875 L 198.066406 56.421875 Z M 196.914062 54.664062 C 196.5625 55.308594 196.035156 55.679688 195.390625 55.679688 C 194.472656 55.679688 193.398438 54.976562 193.398438 53.121094 C 193.398438 51.128906 194.667969 50.542969 195.527344 50.542969 C 196.113281 50.542969 196.601562 50.835938 196.914062 51.324219 Z M 196.914062 54.664062 "/>
<path style=" stroke:none;fill-rule:nonzero;fill:rgb(0%,0%,0%);fill-opacity:1;" d="M 200.9375 60.171875 C 203.183594 58.179688 203.75 55.132812 203.75 52.710938 C 203.75 50.074219 203.105469 47.144531 200.9375 45.210938 L 200.039062 45.210938 C 200.625 45.757812 201.542969 46.910156 202.070312 48.609375 C 202.460938 49.9375 202.617188 51.324219 202.617188 52.691406 C 202.617188 57.085938 201.054688 59.253906 200.039062 60.171875 Z M 200.9375 60.171875 "/>
</g>
</svg>
