<?xml version="1.0" encoding="UTF-8"?>
<svg xmlns="http://www.w3.org/2000/svg" xmlns:xlink="http://www.w3.org/1999/xlink" width="309.358pt" height="92.513285pt" viewBox="0 0 309.358 92.513285" version="1.1">
<g id="surface1">
<path style=" stroke:none;fill-rule:nonzero;fill:rgb(0%,0%,0%);fill-opacity:1;" d="M 2.675781 0.996094 L 1.132812 0.996094 L 1.132812 13.4375 L 2.675781 13.4375 Z M 2.675781 0.996094 "/>
<path style=" stroke:none;fill-rule:nonzero;fill:rgb(0%,0%,0%);fill-opacity:1;" d="M 7.417969 6.523438 L 9.332031 6.523438 L 9.332031 5.46875 L 7.378906 5.46875 L 7.378906 3.320312 C 7.378906 2.109375 8.394531 1.894531 9 1.894531 C 9.625 1.894531 10.171875 2.089844 10.386719 2.167969 L 10.386719 0.996094 C 10.269531 0.957031 9.664062 0.820312 9.019531 0.820312 C 7.300781 0.820312 6.089844 2.128906 6.089844 3.867188 L 6.089844 5.46875 L 4.78125 5.46875 L 4.78125 6.523438 L 6.089844 6.523438 L 6.089844 13.4375 L 7.417969 13.4375 Z M 7.417969 6.523438 "/>
<path style=" stroke:none;fill-rule:nonzero;fill:rgb(0%,0%,0%);fill-opacity:1;" d="M 20.71875 15.449219 C 20.25 16.132812 19.546875 16.738281 18.667969 16.738281 C 18.453125 16.738281 17.59375 16.699219 17.320312 15.878906 C 17.378906 15.898438 17.457031 15.898438 17.496094 15.898438 C 18.042969 15.898438 18.394531 15.429688 18.394531 15.019531 C 18.394531 14.609375 18.0625 14.453125 17.789062 14.453125 C 17.496094 14.453125 16.871094 14.667969 16.871094 15.546875 C 16.871094 16.464844 17.652344 17.089844 18.667969 17.089844 C 20.464844 17.089844 22.261719 15.449219 22.769531 13.457031 L 24.527344 6.464844 C 24.546875 6.367188 24.585938 6.269531 24.585938 6.152344 C 24.585938 5.898438 24.371094 5.703125 24.097656 5.703125 C 23.941406 5.703125 23.550781 5.78125 23.414062 6.328125 L 22.085938 11.582031 C 22.007812 11.914062 22.007812 11.953125 21.851562 12.148438 C 21.5 12.65625 20.914062 13.261719 20.054688 13.261719 C 19.039062 13.261719 18.960938 12.265625 18.960938 11.796875 C 18.960938 10.761719 19.429688 9.394531 19.917969 8.085938 C 20.113281 7.578125 20.230469 7.324219 20.230469 6.972656 C 20.230469 6.210938 19.683594 5.527344 18.804688 5.527344 C 17.164062 5.527344 16.5 8.125 16.5 8.28125 C 16.5 8.339844 16.558594 8.4375 16.695312 8.4375 C 16.851562 8.4375 16.871094 8.359375 16.949219 8.105469 C 17.378906 6.601562 18.0625 5.898438 18.746094 5.898438 C 18.921875 5.898438 19.214844 5.898438 19.214844 6.484375 C 19.214844 6.953125 19.019531 7.460938 18.746094 8.144531 C 17.867188 10.488281 17.867188 11.09375 17.867188 11.523438 C 17.867188 13.222656 19.097656 13.613281 19.996094 13.613281 C 20.503906 13.613281 21.148438 13.457031 21.792969 12.792969 L 21.8125 12.8125 C 21.539062 13.867188 21.363281 14.570312 20.71875 15.449219 Z M 20.71875 15.449219 "/>
<path style=" stroke:none;fill-rule:nonzero;fill:rgb(0%,0%,0%);fill-opacity:1;" d="M 43.121094 7.636719 C 43.375 7.636719 43.6875 7.636719 43.6875 7.304688 C 43.6875 6.972656 43.375 6.972656 43.121094 6.972656 L 32.554688 6.972656 C 32.300781 6.972656 31.988281 6.972656 31.988281 7.285156 C 31.988281 7.636719 32.28125 7.636719 32.554688 7.636719 Z M 43.121094 10.957031 C 43.375 10.957031 43.6875 10.957031 43.6875 10.644531 C 43.6875 10.292969 43.375 10.292969 43.121094 10.292969 L 32.554688 10.292969 C 32.300781 10.292969 31.988281 10.292969 31.988281 10.625 C 31.988281 10.957031 32.28125 10.957031 32.554688 10.957031 Z M 43.121094 10.957031 "/>
<path style=" stroke:none;fill-rule:nonzero;fill:rgb(0%,0%,0%);fill-opacity:1;" d="M 53.8125 6.992188 C 53.5 7.011719 53.441406 7.03125 53.441406 7.207031 C 53.441406 7.382812 53.519531 7.382812 53.851562 7.382812 L 54.671875 7.382812 C 56.195312 7.382812 56.878906 8.632812 56.878906 10.351562 C 56.878906 12.695312 55.648438 13.320312 54.769531 13.320312 C 53.910156 13.320312 52.445312 12.910156 51.9375 11.738281 C 52.503906 11.816406 53.03125 11.503906 53.03125 10.859375 C 53.03125 10.332031 52.640625 9.980469 52.152344 9.980469 C 51.722656 9.980469 51.253906 10.234375 51.253906 10.917969 C 51.253906 12.5 52.835938 13.808594 54.828125 13.808594 C 56.957031 13.808594 58.539062 12.1875 58.539062 10.371094 C 58.539062 8.730469 57.210938 7.421875 55.492188 7.128906 C 57.054688 6.679688 58.050781 5.371094 58.050781 3.964844 C 58.050781 2.558594 56.585938 1.523438 54.847656 1.523438 C 53.050781 1.523438 51.722656 2.617188 51.722656 3.925781 C 51.722656 4.628906 52.289062 4.785156 52.5625 4.785156 C 52.933594 4.785156 53.363281 4.511719 53.363281 3.964844 C 53.363281 3.398438 52.933594 3.144531 52.542969 3.144531 C 52.425781 3.144531 52.386719 3.144531 52.347656 3.164062 C 53.03125 1.953125 54.710938 1.953125 54.789062 1.953125 C 55.394531 1.953125 56.546875 2.207031 56.546875 3.964844 C 56.546875 4.316406 56.507812 5.3125 55.980469 6.09375 C 55.433594 6.875 54.828125 6.933594 54.339844 6.953125 Z M 53.8125 6.992188 "/>
<path style=" stroke:none;fill-rule:nonzero;fill:rgb(0%,0%,0%);fill-opacity:1;" d="M 67.148438 8.964844 C 67.148438 8.4375 66.71875 8.007812 66.210938 8.007812 C 65.683594 8.007812 65.253906 8.4375 65.253906 8.964844 C 65.253906 9.472656 65.683594 9.902344 66.210938 9.902344 C 66.71875 9.902344 67.148438 9.472656 67.148438 8.964844 Z M 67.148438 8.964844 "/>
<path style=" stroke:none;fill-rule:nonzero;fill:rgb(0%,0%,0%);fill-opacity:1;" d="M 79.496094 6.796875 C 79.28125 6.796875 78.617188 6.796875 78.617188 7.539062 C 78.617188 7.96875 78.929688 8.28125 79.359375 8.28125 C 79.769531 8.28125 80.121094 8.027344 80.121094 7.5 C 80.121094 6.308594 78.851562 5.449219 77.40625 5.449219 C 75.316406 5.449219 73.636719 7.304688 73.636719 9.570312 C 73.636719 11.855469 75.355469 13.613281 77.386719 13.613281 C 79.75 13.613281 80.296875 11.464844 80.296875 11.308594 C 80.296875 11.132812 80.160156 11.132812 80.121094 11.132812 C 79.945312 11.132812 79.925781 11.191406 79.886719 11.40625 C 79.476562 12.675781 78.519531 13.222656 77.542969 13.222656 C 76.449219 13.222656 75.003906 12.265625 75.003906 9.550781 C 75.003906 6.5625 76.527344 5.839844 77.425781 5.839844 C 78.109375 5.839844 79.085938 6.113281 79.496094 6.796875 Z M 79.496094 6.796875 "/>
<path style=" stroke:none;fill-rule:nonzero;fill:rgb(0%,0%,0%);fill-opacity:1;" d="M 89.035156 9.609375 C 89.035156 7.285156 87.277344 5.449219 85.207031 5.449219 C 83.058594 5.449219 81.359375 7.34375 81.359375 9.609375 C 81.359375 11.894531 83.136719 13.613281 85.1875 13.613281 C 87.296875 13.613281 89.035156 11.855469 89.035156 9.609375 Z M 85.207031 13.222656 C 84.542969 13.222656 83.742188 12.929688 83.214844 12.050781 C 82.726562 11.25 82.707031 10.195312 82.707031 9.433594 C 82.707031 8.75 82.707031 7.65625 83.273438 6.855469 C 83.761719 6.09375 84.5625 5.800781 85.1875 5.800781 C 85.890625 5.800781 86.632812 6.113281 87.121094 6.816406 C 87.6875 7.636719 87.6875 8.769531 87.6875 9.433594 C 87.6875 10.058594 87.6875 11.171875 87.21875 12.011719 C 86.710938 12.890625 85.890625 13.222656 85.207031 13.222656 Z M 85.207031 13.222656 "/>
<path style=" stroke:none;fill-rule:nonzero;fill:rgb(0%,0%,0%);fill-opacity:1;" d="M 95.539062 5.859375 C 95.539062 5.527344 95.539062 5.449219 95.363281 5.449219 C 95.226562 5.449219 94.875 5.839844 94.757812 5.996094 C 94.191406 5.546875 93.644531 5.449219 93.058594 5.449219 C 90.890625 5.449219 90.246094 6.621094 90.246094 7.617188 C 90.246094 7.8125 90.246094 8.4375 90.929688 9.0625 C 91.515625 9.570312 92.121094 9.6875 92.941406 9.84375 C 93.917969 10.039062 94.152344 10.097656 94.601562 10.46875 C 94.933594 10.722656 95.167969 11.132812 95.167969 11.621094 C 95.167969 12.402344 94.71875 13.261719 93.136719 13.261719 C 91.964844 13.261719 91.085938 12.578125 90.695312 10.78125 C 90.636719 10.46875 90.636719 10.449219 90.617188 10.429688 C 90.578125 10.351562 90.5 10.351562 90.441406 10.351562 C 90.246094 10.351562 90.246094 10.449219 90.246094 10.761719 L 90.246094 13.203125 C 90.246094 13.535156 90.246094 13.613281 90.421875 13.613281 C 90.519531 13.613281 90.539062 13.59375 90.851562 13.222656 C 90.929688 13.105469 90.929688 13.066406 91.203125 12.773438 C 91.886719 13.613281 92.84375 13.613281 93.15625 13.613281 C 95.03125 13.613281 95.96875 12.578125 95.96875 11.152344 C 95.96875 10.195312 95.382812 9.609375 95.226562 9.453125 C 94.582031 8.90625 94.09375 8.789062 92.902344 8.574219 C 92.375 8.476562 91.066406 8.222656 91.066406 7.148438 C 91.066406 6.582031 91.4375 5.761719 93.058594 5.761719 C 95.011719 5.761719 95.109375 7.421875 95.148438 7.988281 C 95.167969 8.125 95.285156 8.125 95.34375 8.125 C 95.539062 8.125 95.539062 8.046875 95.539062 7.714844 Z M 95.539062 5.859375 "/>
<path style=" stroke:none;fill-rule:nonzero;fill:rgb(0%,0%,0%);fill-opacity:1;" d="M 105.230469 17.792969 C 105.230469 17.734375 105.230469 17.695312 104.9375 17.402344 C 103.140625 15.585938 102.144531 12.636719 102.144531 8.964844 C 102.144531 5.488281 102.984375 2.5 105.054688 0.390625 C 105.230469 0.214844 105.230469 0.195312 105.230469 0.136719 C 105.230469 0.0195312 105.152344 0 105.074219 0 C 104.839844 0 103.375 1.289062 102.496094 3.046875 C 101.578125 4.84375 101.167969 6.777344 101.167969 8.964844 C 101.167969 10.566406 101.421875 12.695312 102.359375 14.628906 C 103.414062 16.777344 104.878906 17.929688 105.074219 17.929688 C 105.152344 17.929688 105.230469 17.910156 105.230469 17.792969 Z M 105.230469 17.792969 "/>
<path style=" stroke:none;fill-rule:nonzero;fill:rgb(0%,0%,0%);fill-opacity:1;" d="M 109.398438 0.996094 L 106.898438 1.191406 L 106.898438 1.71875 C 108.128906 1.71875 108.265625 1.835938 108.265625 2.714844 L 108.265625 12.109375 C 108.265625 12.910156 108.070312 12.910156 106.898438 12.910156 L 106.898438 13.4375 C 107.40625 13.398438 108.285156 13.398438 108.832031 13.398438 C 109.359375 13.398438 110.257812 13.398438 110.765625 13.4375 L 110.765625 12.910156 C 109.613281 12.910156 109.398438 12.910156 109.398438 12.109375 Z M 109.398438 0.996094 "/>
<path style=" stroke:none;fill-rule:nonzero;fill:rgb(0%,0%,0%);fill-opacity:1;" d="M 119.484375 9.609375 C 119.484375 7.285156 117.726562 5.449219 115.65625 5.449219 C 113.507812 5.449219 111.808594 7.34375 111.808594 9.609375 C 111.808594 11.894531 113.585938 13.613281 115.636719 13.613281 C 117.746094 13.613281 119.484375 11.855469 119.484375 9.609375 Z M 115.65625 13.222656 C 114.992188 13.222656 114.191406 12.929688 113.664062 12.050781 C 113.175781 11.25 113.15625 10.195312 113.15625 9.433594 C 113.15625 8.75 113.15625 7.65625 113.722656 6.855469 C 114.210938 6.09375 115.011719 5.800781 115.636719 5.800781 C 116.339844 5.800781 117.082031 6.113281 117.570312 6.816406 C 118.136719 7.636719 118.136719 8.769531 118.136719 9.433594 C 118.136719 10.058594 118.136719 11.171875 117.667969 12.011719 C 117.160156 12.890625 116.339844 13.222656 115.65625 13.222656 Z M 115.65625 13.222656 "/>
<path style=" stroke:none;fill-rule:nonzero;fill:rgb(0%,0%,0%);fill-opacity:1;" d="M 122.242188 10.195312 C 123.082031 10.742188 123.804688 10.742188 124 10.742188 C 125.621094 10.742188 126.8125 9.53125 126.8125 8.144531 C 126.8125 7.65625 126.675781 6.992188 126.109375 6.40625 C 126.792969 5.683594 127.652344 5.683594 127.730469 5.683594 C 127.808594 5.683594 127.886719 5.683594 127.964844 5.722656 C 127.789062 5.800781 127.691406 5.976562 127.691406 6.171875 C 127.691406 6.425781 127.867188 6.640625 128.160156 6.640625 C 128.316406 6.640625 128.628906 6.542969 128.628906 6.152344 C 128.628906 5.839844 128.375 5.332031 127.75 5.332031 C 126.8125 5.332031 126.128906 5.898438 125.875 6.171875 C 125.328125 5.761719 124.703125 5.527344 124.019531 5.527344 C 122.417969 5.527344 121.207031 6.757812 121.207031 8.125 C 121.207031 9.160156 121.832031 9.824219 122.007812 9.980469 C 121.792969 10.253906 121.480469 10.761719 121.480469 11.464844 C 121.480469 12.5 122.105469 12.949219 122.242188 13.046875 C 121.421875 13.28125 120.601562 13.925781 120.601562 14.863281 C 120.601562 16.09375 122.28125 17.109375 124.488281 17.109375 C 126.617188 17.109375 128.394531 16.171875 128.394531 14.824219 C 128.394531 14.375 128.277344 13.320312 127.203125 12.753906 C 126.285156 12.285156 125.386719 12.285156 123.84375 12.285156 C 122.75 12.285156 122.632812 12.285156 122.300781 11.953125 C 122.125 11.777344 121.96875 11.425781 121.96875 11.054688 C 121.96875 10.742188 122.066406 10.449219 122.242188 10.195312 Z M 124.019531 10.371094 C 122.4375 10.371094 122.4375 8.554688 122.4375 8.144531 C 122.4375 7.832031 122.4375 7.089844 122.75 6.601562 C 123.082031 6.09375 123.628906 5.898438 124 5.898438 C 125.582031 5.898438 125.582031 7.714844 125.582031 8.125 C 125.582031 8.457031 125.582031 9.179688 125.269531 9.667969 C 124.9375 10.195312 124.390625 10.371094 124.019531 10.371094 Z M 124.507812 16.738281 C 122.789062 16.738281 121.480469 15.859375 121.480469 14.84375 C 121.480469 14.6875 121.519531 13.984375 122.183594 13.535156 C 122.59375 13.28125 122.75 13.28125 124 13.28125 C 125.484375 13.28125 127.515625 13.28125 127.515625 14.84375 C 127.515625 15.898438 126.148438 16.738281 124.507812 16.738281 Z M 124.507812 16.738281 "/>
<path style=" stroke:none;fill-rule:nonzero;fill:rgb(0%,0%,0%);fill-opacity:1;" d="M 140.457031 6.113281 C 139.890625 6.230469 139.675781 6.660156 139.675781 6.992188 C 139.675781 7.421875 140.007812 7.578125 140.261719 7.578125 C 140.808594 7.578125 141.179688 7.109375 141.179688 6.621094 C 141.179688 5.878906 140.320312 5.527344 139.558594 5.527344 C 138.464844 5.527344 137.859375 6.601562 137.703125 6.953125 C 137.292969 5.605469 136.179688 5.527344 135.847656 5.527344 C 134.03125 5.527344 133.054688 7.871094 133.054688 8.28125 C 133.054688 8.339844 133.132812 8.4375 133.25 8.4375 C 133.386719 8.4375 133.425781 8.320312 133.464844 8.261719 C 134.070312 6.269531 135.28125 5.898438 135.789062 5.898438 C 136.609375 5.898438 136.765625 6.640625 136.765625 7.070312 C 136.765625 7.460938 136.667969 7.871094 136.433594 8.730469 L 135.828125 11.191406 C 135.574219 12.265625 135.046875 13.261719 134.089844 13.261719 C 134.011719 13.261719 133.5625 13.261719 133.171875 13.027344 C 133.816406 12.890625 133.972656 12.363281 133.972656 12.148438 C 133.972656 11.796875 133.699219 11.582031 133.367188 11.582031 C 132.9375 11.582031 132.46875 11.953125 132.46875 12.519531 C 132.46875 13.28125 133.308594 13.613281 134.070312 13.613281 C 134.929688 13.613281 135.554688 12.929688 135.925781 12.207031 C 136.21875 13.261719 137.097656 13.613281 137.761719 13.613281 C 139.597656 13.613281 140.574219 11.269531 140.574219 10.878906 C 140.574219 10.78125 140.496094 10.703125 140.378906 10.703125 C 140.222656 10.703125 140.203125 10.800781 140.164062 10.9375 C 139.675781 12.519531 138.621094 13.261719 137.820312 13.261719 C 137.195312 13.261719 136.863281 12.792969 136.863281 12.050781 C 136.863281 11.660156 136.921875 11.367188 137.214844 10.195312 L 137.839844 7.753906 C 138.113281 6.679688 138.71875 5.898438 139.539062 5.898438 C 139.578125 5.898438 140.085938 5.898438 140.457031 6.113281 Z M 140.457031 6.113281 "/>
<path style=" stroke:none;fill-rule:nonzero;fill:rgb(0%,0%,0%);fill-opacity:1;" d="M 147.070312 8.964844 C 147.070312 7.617188 146.894531 5.390625 145.878906 3.300781 C 144.824219 1.152344 143.359375 0 143.164062 0 C 143.085938 0 142.988281 0.0195312 142.988281 0.136719 C 142.988281 0.195312 142.988281 0.214844 143.300781 0.527344 C 145.097656 2.34375 146.09375 5.292969 146.09375 8.964844 C 146.09375 12.441406 145.253906 15.429688 143.183594 17.539062 C 142.988281 17.695312 142.988281 17.734375 142.988281 17.792969 C 142.988281 17.910156 143.085938 17.929688 143.164062 17.929688 C 143.398438 17.929688 144.863281 16.640625 145.742188 14.882812 C 146.660156 13.066406 147.070312 11.132812 147.070312 8.964844 Z M 147.070312 8.964844 "/>
<path style=" stroke:none;fill-rule:nonzero;fill:rgb(0%,0%,0%);fill-opacity:1;" d="M 160.257812 9.296875 L 165.21875 9.296875 C 165.472656 9.296875 165.785156 9.296875 165.785156 8.964844 C 165.785156 8.632812 165.472656 8.632812 165.21875 8.632812 L 160.257812 8.632812 L 160.257812 3.691406 C 160.257812 3.4375 160.257812 3.105469 159.945312 3.105469 C 159.59375 3.105469 159.59375 3.417969 159.59375 3.691406 L 159.59375 8.632812 L 154.652344 8.632812 C 154.398438 8.632812 154.085938 8.632812 154.085938 8.964844 C 154.085938 9.296875 154.378906 9.296875 154.652344 9.296875 L 159.59375 9.296875 L 159.59375 14.238281 C 159.59375 14.492188 159.59375 14.824219 159.925781 14.824219 C 160.257812 14.824219 160.257812 14.511719 160.257812 14.238281 Z M 160.257812 9.296875 "/>
<path style=" stroke:none;fill-rule:nonzero;fill:rgb(0%,0%,0%);fill-opacity:1;" d="M 177.574219 1.757812 C 177.574219 1.425781 177.574219 1.328125 177.339844 1.328125 C 177.183594 1.328125 177.125 1.328125 176.988281 1.542969 L 171.597656 9.921875 L 171.597656 10.449219 L 176.304688 10.449219 L 176.304688 12.070312 C 176.304688 12.734375 176.265625 12.910156 174.957031 12.910156 L 174.605469 12.910156 L 174.605469 13.4375 C 175.015625 13.398438 176.441406 13.398438 176.929688 13.398438 C 177.4375 13.398438 178.863281 13.398438 179.292969 13.4375 L 179.292969 12.910156 L 178.921875 12.910156 C 177.632812 12.910156 177.574219 12.734375 177.574219 12.070312 L 177.574219 10.449219 L 179.390625 10.449219 L 179.390625 9.921875 L 177.574219 9.921875 Z M 176.402344 3.164062 L 176.402344 9.921875 L 172.046875 9.921875 Z M 176.402344 3.164062 "/>
<path style=" stroke:none;fill-rule:nonzero;fill:rgb(0%,0%,0%);fill-opacity:1;" d="M 187.597656 8.964844 C 187.597656 8.4375 187.167969 8.007812 186.660156 8.007812 C 186.132812 8.007812 185.703125 8.4375 185.703125 8.964844 C 185.703125 9.472656 186.132812 9.902344 186.660156 9.902344 C 187.167969 9.902344 187.597656 9.472656 187.597656 8.964844 Z M 187.597656 8.964844 "/>
<path style=" stroke:none;fill-rule:nonzero;fill:rgb(0%,0%,0%);fill-opacity:1;" d="M 199.339844 5.859375 C 199.339844 5.527344 199.339844 5.449219 199.164062 5.449219 C 199.027344 5.449219 198.675781 5.839844 198.558594 5.996094 C 197.992188 5.546875 197.445312 5.449219 196.859375 5.449219 C 194.691406 5.449219 194.046875 6.621094 194.046875 7.617188 C 194.046875 7.8125 194.046875 8.4375 194.730469 9.0625 C 195.316406 9.570312 195.921875 9.6875 196.742188 9.84375 C 197.71875 10.039062 197.953125 10.097656 198.402344 10.46875 C 198.734375 10.722656 198.96875 11.132812 198.96875 11.621094 C 198.96875 12.402344 198.519531 13.261719 196.9375 13.261719 C 195.765625 13.261719 194.886719 12.578125 194.496094 10.78125 C 194.4375 10.46875 194.4375 10.449219 194.417969 10.429688 C 194.378906 10.351562 194.300781 10.351562 194.242188 10.351562 C 194.046875 10.351562 194.046875 10.449219 194.046875 10.761719 L 194.046875 13.203125 C 194.046875 13.535156 194.046875 13.613281 194.222656 13.613281 C 194.320312 13.613281 194.339844 13.59375 194.652344 13.222656 C 194.730469 13.105469 194.730469 13.066406 195.003906 12.773438 C 195.6875 13.613281 196.644531 13.613281 196.957031 13.613281 C 198.832031 13.613281 199.769531 12.578125 199.769531 11.152344 C 199.769531 10.195312 199.183594 9.609375 199.027344 9.453125 C 198.382812 8.90625 197.894531 8.789062 196.703125 8.574219 C 196.175781 8.476562 194.867188 8.222656 194.867188 7.148438 C 194.867188 6.582031 195.238281 5.761719 196.859375 5.761719 C 198.8125 5.761719 198.910156 7.421875 198.949219 7.988281 C 198.96875 8.125 199.085938 8.125 199.144531 8.125 C 199.339844 8.125 199.339844 8.046875 199.339844 7.714844 Z M 199.339844 5.859375 "/>
<path style=" stroke:none;fill-rule:nonzero;fill:rgb(0%,0%,0%);fill-opacity:1;" d="M 203.484375 2.402344 C 203.484375 1.933594 203.09375 1.523438 202.605469 1.523438 C 202.136719 1.523438 201.746094 1.894531 201.746094 2.382812 C 201.746094 2.910156 202.175781 3.261719 202.605469 3.261719 C 203.152344 3.261719 203.484375 2.792969 203.484375 2.402344 Z M 201.003906 5.722656 L 201.003906 6.25 C 202.15625 6.25 202.3125 6.347656 202.3125 7.226562 L 202.3125 12.109375 C 202.3125 12.910156 202.117188 12.910156 200.945312 12.910156 L 200.945312 13.4375 C 201.453125 13.398438 202.3125 13.398438 202.839844 13.398438 C 203.035156 13.398438 204.070312 13.398438 204.675781 13.4375 L 204.675781 12.910156 C 203.523438 12.910156 203.445312 12.832031 203.445312 12.128906 L 203.445312 5.527344 Z M 201.003906 5.722656 "/>
<path style=" stroke:none;fill-rule:nonzero;fill:rgb(0%,0%,0%);fill-opacity:1;" d="M 213.300781 9.082031 C 213.300781 7.421875 213.300781 6.914062 212.871094 6.328125 C 212.363281 5.644531 211.523438 5.527344 210.898438 5.527344 C 209.160156 5.527344 208.476562 7.011719 208.339844 7.382812 L 208.320312 7.382812 L 208.320312 5.527344 L 205.878906 5.722656 L 205.878906 6.25 C 207.109375 6.25 207.246094 6.367188 207.246094 7.246094 L 207.246094 12.109375 C 207.246094 12.910156 207.050781 12.910156 205.878906 12.910156 L 205.878906 13.4375 C 206.347656 13.398438 207.324219 13.398438 207.832031 13.398438 C 208.339844 13.398438 209.316406 13.398438 209.785156 13.4375 L 209.785156 12.910156 C 208.632812 12.910156 208.417969 12.910156 208.417969 12.109375 L 208.417969 8.769531 C 208.417969 6.894531 209.648438 5.898438 210.761719 5.898438 C 211.875 5.898438 212.128906 6.796875 212.128906 7.890625 L 212.128906 12.109375 C 212.128906 12.910156 211.933594 12.910156 210.761719 12.910156 L 210.761719 13.4375 C 211.230469 13.398438 212.207031 13.398438 212.695312 13.398438 C 213.222656 13.398438 214.179688 13.398438 214.648438 13.4375 L 214.648438 12.910156 C 213.75 12.910156 213.300781 12.910156 213.300781 12.382812 Z M 213.300781 9.082031 "/>
<path style=" stroke:none;fill-rule:nonzero;fill:rgb(0%,0%,0%);fill-opacity:1;" d="M 223.882812 17.792969 C 223.882812 17.734375 223.882812 17.695312 223.589844 17.402344 C 221.792969 15.585938 220.796875 12.636719 220.796875 8.964844 C 220.796875 5.488281 221.636719 2.5 223.707031 0.390625 C 223.882812 0.214844 223.882812 0.195312 223.882812 0.136719 C 223.882812 0.0195312 223.804688 0 223.726562 0 C 223.492188 0 222.027344 1.289062 221.148438 3.046875 C 220.230469 4.84375 219.820312 6.777344 219.820312 8.964844 C 219.820312 10.566406 220.074219 12.695312 221.011719 14.628906 C 222.066406 16.777344 223.53125 17.929688 223.726562 17.929688 C 223.804688 17.929688 223.882812 17.910156 223.882812 17.792969 Z M 223.882812 17.792969 "/>
<path style=" stroke:none;fill-rule:nonzero;fill:rgb(0%,0%,0%);fill-opacity:1;" d="M 227.898438 0.996094 L 225.398438 1.191406 L 225.398438 1.71875 C 226.628906 1.71875 226.765625 1.835938 226.765625 2.714844 L 226.765625 12.109375 C 226.765625 12.910156 226.570312 12.910156 225.398438 12.910156 L 225.398438 13.4375 C 225.90625 13.398438 226.785156 13.398438 227.332031 13.398438 C 227.859375 13.398438 228.757812 13.398438 229.265625 13.4375 L 229.265625 12.910156 C 228.113281 12.910156 227.898438 12.910156 227.898438 12.109375 Z M 227.898438 0.996094 "/>
<path style=" stroke:none;fill-rule:nonzero;fill:rgb(0%,0%,0%);fill-opacity:1;" d="M 237.984375 9.609375 C 237.984375 7.285156 236.226562 5.449219 234.15625 5.449219 C 232.007812 5.449219 230.308594 7.34375 230.308594 9.609375 C 230.308594 11.894531 232.085938 13.613281 234.136719 13.613281 C 236.246094 13.613281 237.984375 11.855469 237.984375 9.609375 Z M 234.15625 13.222656 C 233.492188 13.222656 232.691406 12.929688 232.164062 12.050781 C 231.675781 11.25 231.65625 10.195312 231.65625 9.433594 C 231.65625 8.75 231.65625 7.65625 232.222656 6.855469 C 232.710938 6.09375 233.511719 5.800781 234.136719 5.800781 C 234.839844 5.800781 235.582031 6.113281 236.070312 6.816406 C 236.636719 7.636719 236.636719 8.769531 236.636719 9.433594 C 236.636719 10.058594 236.636719 11.171875 236.167969 12.011719 C 235.660156 12.890625 234.839844 13.222656 234.15625 13.222656 Z M 234.15625 13.222656 "/>
<path style=" stroke:none;fill-rule:nonzero;fill:rgb(0%,0%,0%);fill-opacity:1;" d="M 240.738281 10.195312 C 241.578125 10.742188 242.300781 10.742188 242.496094 10.742188 C 244.117188 10.742188 245.308594 9.53125 245.308594 8.144531 C 245.308594 7.65625 245.171875 6.992188 244.605469 6.40625 C 245.289062 5.683594 246.148438 5.683594 246.226562 5.683594 C 246.304688 5.683594 246.382812 5.683594 246.460938 5.722656 C 246.285156 5.800781 246.1875 5.976562 246.1875 6.171875 C 246.1875 6.425781 246.363281 6.640625 246.65625 6.640625 C 246.8125 6.640625 247.125 6.542969 247.125 6.152344 C 247.125 5.839844 246.871094 5.332031 246.246094 5.332031 C 245.308594 5.332031 244.625 5.898438 244.371094 6.171875 C 243.824219 5.761719 243.199219 5.527344 242.515625 5.527344 C 240.914062 5.527344 239.703125 6.757812 239.703125 8.125 C 239.703125 9.160156 240.328125 9.824219 240.503906 9.980469 C 240.289062 10.253906 239.976562 10.761719 239.976562 11.464844 C 239.976562 12.5 240.601562 12.949219 240.738281 13.046875 C 239.917969 13.28125 239.097656 13.925781 239.097656 14.863281 C 239.097656 16.09375 240.777344 17.109375 242.984375 17.109375 C 245.113281 17.109375 246.890625 16.171875 246.890625 14.824219 C 246.890625 14.375 246.773438 13.320312 245.699219 12.753906 C 244.78125 12.285156 243.882812 12.285156 242.339844 12.285156 C 241.246094 12.285156 241.128906 12.285156 240.796875 11.953125 C 240.621094 11.777344 240.464844 11.425781 240.464844 11.054688 C 240.464844 10.742188 240.5625 10.449219 240.738281 10.195312 Z M 242.515625 10.371094 C 240.933594 10.371094 240.933594 8.554688 240.933594 8.144531 C 240.933594 7.832031 240.933594 7.089844 241.246094 6.601562 C 241.578125 6.09375 242.125 5.898438 242.496094 5.898438 C 244.078125 5.898438 244.078125 7.714844 244.078125 8.125 C 244.078125 8.457031 244.078125 9.179688 243.765625 9.667969 C 243.433594 10.195312 242.886719 10.371094 242.515625 10.371094 Z M 243.003906 16.738281 C 241.285156 16.738281 239.976562 15.859375 239.976562 14.84375 C 239.976562 14.6875 240.015625 13.984375 240.679688 13.535156 C 241.089844 13.28125 241.246094 13.28125 242.496094 13.28125 C 243.980469 13.28125 246.011719 13.28125 246.011719 14.84375 C 246.011719 15.898438 244.644531 16.738281 243.003906 16.738281 Z M 243.003906 16.738281 "/>
<path style=" stroke:none;fill-rule:nonzero;fill:rgb(0%,0%,0%);fill-opacity:1;" d="M 259.105469 6.113281 C 258.539062 6.230469 258.324219 6.660156 258.324219 6.992188 C 258.324219 7.421875 258.65625 7.578125 258.910156 7.578125 C 259.457031 7.578125 259.828125 7.109375 259.828125 6.621094 C 259.828125 5.878906 258.96875 5.527344 258.207031 5.527344 C 257.113281 5.527344 256.507812 6.601562 256.351562 6.953125 C 255.941406 5.605469 254.828125 5.527344 254.496094 5.527344 C 252.679688 5.527344 251.703125 7.871094 251.703125 8.28125 C 251.703125 8.339844 251.78125 8.4375 251.898438 8.4375 C 252.035156 8.4375 252.074219 8.320312 252.113281 8.261719 C 252.71875 6.269531 253.929688 5.898438 254.4375 5.898438 C 255.257812 5.898438 255.414062 6.640625 255.414062 7.070312 C 255.414062 7.460938 255.316406 7.871094 255.082031 8.730469 L 254.476562 11.191406 C 254.222656 12.265625 253.695312 13.261719 252.738281 13.261719 C 252.660156 13.261719 252.210938 13.261719 251.820312 13.027344 C 252.464844 12.890625 252.621094 12.363281 252.621094 12.148438 C 252.621094 11.796875 252.347656 11.582031 252.015625 11.582031 C 251.585938 11.582031 251.117188 11.953125 251.117188 12.519531 C 251.117188 13.28125 251.957031 13.613281 252.71875 13.613281 C 253.578125 13.613281 254.203125 12.929688 254.574219 12.207031 C 254.867188 13.261719 255.746094 13.613281 256.410156 13.613281 C 258.246094 13.613281 259.222656 11.269531 259.222656 10.878906 C 259.222656 10.78125 259.144531 10.703125 259.027344 10.703125 C 258.871094 10.703125 258.851562 10.800781 258.8125 10.9375 C 258.324219 12.519531 257.269531 13.261719 256.46875 13.261719 C 255.84375 13.261719 255.511719 12.792969 255.511719 12.050781 C 255.511719 11.660156 255.570312 11.367188 255.863281 10.195312 L 256.488281 7.753906 C 256.761719 6.679688 257.367188 5.898438 258.1875 5.898438 C 258.226562 5.898438 258.734375 5.898438 259.105469 6.113281 Z M 259.105469 6.113281 "/>
<path style=" stroke:none;fill-rule:nonzero;fill:rgb(0%,0%,0%);fill-opacity:1;" d="M 265.71875 8.964844 C 265.71875 7.617188 265.542969 5.390625 264.527344 3.300781 C 263.472656 1.152344 262.007812 0 261.8125 0 C 261.734375 0 261.636719 0.0195312 261.636719 0.136719 C 261.636719 0.195312 261.636719 0.214844 261.949219 0.527344 C 263.746094 2.34375 264.742188 5.292969 264.742188 8.964844 C 264.742188 12.441406 263.902344 15.429688 261.832031 17.539062 C 261.636719 17.695312 261.636719 17.734375 261.636719 17.792969 C 261.636719 17.910156 261.734375 17.929688 261.8125 17.929688 C 262.046875 17.929688 263.511719 16.640625 264.390625 14.882812 C 265.308594 13.066406 265.71875 11.132812 265.71875 8.964844 Z M 265.71875 8.964844 "/>
<path style=" stroke:none;fill-rule:nonzero;fill:rgb(0%,0%,0%);fill-opacity:1;" d="M 270.574219 13.417969 L 270.574219 11.992188 L 269.109375 11.992188 L 269.109375 13.4375 L 269.558594 13.4375 L 269.109375 15.683594 L 269.832031 15.683594 Z M 270.574219 13.417969 "/>
<path style=" stroke:none;fill-rule:nonzero;fill:rgb(0%,0%,0%);fill-opacity:1;" d="M 281.726562 6.523438 L 284.207031 6.523438 L 284.207031 5.46875 L 281.726562 5.46875 L 281.726562 3.203125 L 280.496094 3.203125 L 280.496094 5.46875 L 278.992188 5.46875 L 278.992188 6.523438 L 280.457031 6.523438 L 280.457031 11.347656 C 280.457031 12.382812 280.691406 13.613281 281.921875 13.613281 C 283.132812 13.613281 283.953125 13.203125 284.5 12.910156 L 284.226562 11.875 C 283.601562 12.441406 282.9375 12.5 282.625 12.5 C 281.824219 12.5 281.726562 11.660156 281.726562 11.035156 Z M 281.726562 6.523438 "/>
<path style=" stroke:none;fill-rule:nonzero;fill:rgb(0%,0%,0%);fill-opacity:1;" d="M 292.558594 8.046875 C 292.558594 6.953125 292.324219 5.292969 290.15625 5.292969 C 288.925781 5.292969 288.105469 5.996094 287.675781 6.542969 L 287.675781 0.996094 L 286.347656 0.996094 L 286.347656 13.4375 L 287.695312 13.4375 L 287.695312 8.964844 C 287.695312 7.871094 288.125 6.367188 289.472656 6.367188 C 291.152344 6.367188 291.191406 7.539062 291.191406 8.164062 L 291.191406 13.4375 L 292.558594 13.4375 Z M 292.558594 8.046875 "/>
<path style=" stroke:none;fill-rule:nonzero;fill:rgb(0%,0%,0%);fill-opacity:1;" d="M 301.265625 9.394531 C 301.265625 8.632812 301.1875 7.539062 300.621094 6.582031 C 299.878906 5.351562 298.628906 5.214844 298.101562 5.214844 C 296.167969 5.214844 294.546875 7.070312 294.546875 9.394531 C 294.546875 11.777344 296.265625 13.613281 298.355469 13.613281 C 299.175781 13.613281 300.171875 13.378906 301.148438 12.675781 C 301.148438 12.597656 301.089844 12.03125 301.089844 12.011719 C 301.070312 11.992188 301.050781 11.582031 301.050781 11.523438 C 299.976562 12.421875 298.921875 12.539062 298.394531 12.539062 C 297.007812 12.539062 295.816406 11.308594 295.796875 9.394531 Z M 295.894531 8.4375 C 296.207031 7.226562 297.046875 6.289062 298.101562 6.289062 C 298.667969 6.289062 299.898438 6.542969 300.191406 8.4375 Z M 295.894531 8.4375 "/>
<path style=" stroke:none;fill-rule:nonzero;fill:rgb(0%,0%,0%);fill-opacity:1;" d="M 309.359375 8.046875 C 309.359375 6.953125 309.125 5.292969 306.957031 5.292969 C 305.960938 5.292969 305.101562 5.742188 304.417969 6.601562 L 304.417969 5.390625 L 303.148438 5.390625 L 303.148438 13.4375 L 304.496094 13.4375 L 304.496094 8.964844 C 304.496094 7.871094 304.925781 6.367188 306.273438 6.367188 C 307.953125 6.367188 307.992188 7.539062 307.992188 8.164062 L 307.992188 13.4375 L 309.359375 13.4375 Z M 309.359375 8.046875 "/>
<path style=" stroke:none;fill-rule:nonzero;fill:rgb(0%,0%,0%);fill-opacity:1;" d="M 5.527344 26.910156 C 4.394531 26.382812 3.417969 26.363281 3.007812 26.363281 C 2.597656 26.363281 0.0976562 26.363281 0.0976562 28.6875 C 0.0976562 29.46875 0.527344 30.015625 0.800781 30.269531 C 1.445312 30.816406 1.894531 30.914062 2.949219 31.128906 C 3.554688 31.246094 4.589844 31.460938 4.589844 32.417969 C 4.589844 33.648438 3.183594 33.648438 2.929688 33.648438 C 2.226562 33.648438 1.171875 33.453125 0.214844 32.75 L 0 33.980469 C 0.078125 34.039062 1.308594 34.761719 2.949219 34.761719 C 5.273438 34.761719 5.820312 33.375 5.820312 32.300781 C 5.820312 31.402344 5.273438 30.816406 5.195312 30.738281 C 4.53125 30.054688 3.984375 29.9375 2.910156 29.722656 C 2.246094 29.605469 1.347656 29.429688 1.347656 28.53125 C 1.347656 27.417969 2.597656 27.417969 2.832031 27.417969 C 3.769531 27.417969 4.53125 27.632812 5.3125 28.082031 Z M 5.527344 26.910156 "/>
<path style=" stroke:none;fill-rule:nonzero;fill:rgb(0%,0%,0%);fill-opacity:1;" d="M 13.859375 29.195312 C 13.859375 28.101562 13.625 26.441406 11.457031 26.441406 C 10.226562 26.441406 9.40625 27.144531 8.976562 27.691406 L 8.976562 22.144531 L 7.648438 22.144531 L 7.648438 34.585938 L 8.996094 34.585938 L 8.996094 30.113281 C 8.996094 29.019531 9.425781 27.515625 10.773438 27.515625 C 12.453125 27.515625 12.492188 28.6875 12.492188 29.3125 L 12.492188 34.585938 L 13.859375 34.585938 Z M 13.859375 29.195312 "/>
<path style=" stroke:none;fill-rule:nonzero;fill:rgb(0%,0%,0%);fill-opacity:1;" d="M 23.484375 30.640625 C 23.484375 28.21875 21.707031 26.363281 19.65625 26.363281 C 17.546875 26.363281 15.808594 28.257812 15.808594 30.640625 C 15.808594 32.984375 17.585938 34.761719 19.636719 34.761719 C 21.746094 34.761719 23.484375 32.945312 23.484375 30.640625 Z M 19.65625 33.648438 C 18.367188 33.648438 17.15625 32.574219 17.15625 30.464844 C 17.15625 28.296875 18.503906 27.4375 19.636719 27.4375 C 20.867188 27.4375 22.136719 28.355469 22.136719 30.464844 C 22.136719 32.671875 20.847656 33.648438 19.65625 33.648438 Z M 19.65625 33.648438 "/>
<path style=" stroke:none;fill-rule:nonzero;fill:rgb(0%,0%,0%);fill-opacity:1;" d="M 35.320312 26.617188 L 34.011719 26.617188 L 32.9375 30.269531 C 32.683594 31.128906 32.175781 32.808594 32.097656 33.589844 L 32.078125 33.589844 C 32.039062 33.160156 31.746094 31.949219 31.375 30.679688 L 30.183594 26.617188 L 28.953125 26.617188 L 27.917969 30.132812 C 27.605469 31.246094 27.175781 32.789062 27.117188 33.550781 L 27.097656 33.550781 C 27.078125 33.199219 26.882812 32.261719 26.550781 31.050781 L 25.28125 26.617188 L 23.914062 26.617188 L 26.316406 34.585938 L 27.703125 34.585938 C 28.367188 32.320312 29.421875 28.921875 29.519531 27.671875 L 29.539062 27.671875 C 29.578125 28.394531 29.929688 29.683594 30.066406 30.113281 L 31.335938 34.585938 L 32.917969 34.585938 Z M 35.320312 26.617188 "/>
<path style=" stroke:none;fill-rule:nonzero;fill:rgb(0%,0%,0%);fill-opacity:1;" d="M 44.429688 27.671875 L 46.910156 27.671875 L 46.910156 26.617188 L 44.429688 26.617188 L 44.429688 24.351562 L 43.199219 24.351562 L 43.199219 26.617188 L 41.695312 26.617188 L 41.695312 27.671875 L 43.160156 27.671875 L 43.160156 32.496094 C 43.160156 33.53125 43.394531 34.761719 44.625 34.761719 C 45.835938 34.761719 46.65625 34.351562 47.203125 34.058594 L 46.929688 33.023438 C 46.304688 33.589844 45.640625 33.648438 45.328125 33.648438 C 44.527344 33.648438 44.429688 32.808594 44.429688 32.183594 Z M 44.429688 27.671875 "/>
<path style=" stroke:none;fill-rule:nonzero;fill:rgb(0%,0%,0%);fill-opacity:1;" d="M 55.257812 29.195312 C 55.257812 28.101562 55.023438 26.441406 52.855469 26.441406 C 51.625 26.441406 50.804688 27.144531 50.375 27.691406 L 50.375 22.144531 L 49.046875 22.144531 L 49.046875 34.585938 L 50.394531 34.585938 L 50.394531 30.113281 C 50.394531 29.019531 50.824219 27.515625 52.171875 27.515625 C 53.851562 27.515625 53.890625 28.6875 53.890625 29.3125 L 53.890625 34.585938 L 55.257812 34.585938 Z M 55.257812 29.195312 "/>
<path style=" stroke:none;fill-rule:nonzero;fill:rgb(0%,0%,0%);fill-opacity:1;" d="M 63.671875 29.332031 C 63.671875 27.613281 62.441406 26.363281 60.761719 26.363281 C 59.6875 26.363281 58.886719 26.597656 58.007812 27.105469 L 58.105469 28.296875 C 58.90625 27.710938 59.726562 27.398438 60.761719 27.398438 C 61.582031 27.398438 62.304688 28.0625 62.304688 29.371094 L 62.304688 30.113281 C 61.503906 30.132812 60.429688 30.191406 59.355469 30.542969 C 58.144531 30.972656 57.441406 31.636719 57.441406 32.515625 C 57.441406 33.316406 57.910156 34.761719 59.433594 34.761719 C 60.429688 34.761719 61.679688 34.46875 62.34375 33.921875 L 62.34375 34.585938 L 63.671875 34.585938 Z M 62.304688 32.183594 C 62.304688 32.535156 62.304688 32.964844 61.71875 33.335938 C 61.230469 33.628906 60.625 33.6875 60.351562 33.6875 C 59.394531 33.6875 58.730469 33.160156 58.730469 32.515625 C 58.730469 31.285156 61.210938 31.011719 62.304688 31.011719 Z M 62.304688 32.183594 "/>
<path style=" stroke:none;fill-rule:nonzero;fill:rgb(0%,0%,0%);fill-opacity:1;" d="M 68.128906 27.671875 L 70.609375 27.671875 L 70.609375 26.617188 L 68.128906 26.617188 L 68.128906 24.351562 L 66.898438 24.351562 L 66.898438 26.617188 L 65.394531 26.617188 L 65.394531 27.671875 L 66.859375 27.671875 L 66.859375 32.496094 C 66.859375 33.53125 67.09375 34.761719 68.324219 34.761719 C 69.535156 34.761719 70.355469 34.351562 70.902344 34.058594 L 70.628906 33.023438 C 70.003906 33.589844 69.339844 33.648438 69.027344 33.648438 C 68.226562 33.648438 68.128906 32.808594 68.128906 32.183594 Z M 68.128906 27.671875 "/>
<path style=" stroke:none;fill-rule:nonzero;fill:rgb(0%,0%,0%);fill-opacity:1;" d="M 78.207031 72.714844 C 77.640625 72.832031 77.425781 73.261719 77.425781 73.59375 C 77.425781 74.023438 77.757812 74.179688 78.011719 74.179688 C 78.558594 74.179688 78.929688 73.710938 78.929688 73.222656 C 78.929688 72.480469 78.070312 72.128906 77.308594 72.128906 C 76.214844 72.128906 75.609375 73.203125 75.453125 73.554688 C 75.042969 72.207031 73.929688 72.128906 73.597656 72.128906 C 71.78125 72.128906 70.804688 74.472656 70.804688 74.882812 C 70.804688 74.941406 70.882812 75.039062 71 75.039062 C 71.136719 75.039062 71.175781 74.921875 71.214844 74.863281 C 71.820312 72.871094 73.03125 72.5 73.539062 72.5 C 74.359375 72.5 74.515625 73.242188 74.515625 73.671875 C 74.515625 74.0625 74.417969 74.472656 74.183594 75.332031 L 73.578125 77.792969 C 73.324219 78.867188 72.796875 79.863281 71.839844 79.863281 C 71.761719 79.863281 71.3125 79.863281 70.921875 79.628906 C 71.566406 79.492188 71.722656 78.964844 71.722656 78.75 C 71.722656 78.398438 71.449219 78.183594 71.117188 78.183594 C 70.6875 78.183594 70.21875 78.554688 70.21875 79.121094 C 70.21875 79.882812 71.058594 80.214844 71.820312 80.214844 C 72.679688 80.214844 73.304688 79.53125 73.675781 78.808594 C 73.96875 79.863281 74.847656 80.214844 75.511719 80.214844 C 77.347656 80.214844 78.324219 77.871094 78.324219 77.480469 C 78.324219 77.382812 78.246094 77.304688 78.128906 77.304688 C 77.972656 77.304688 77.953125 77.402344 77.914062 77.539062 C 77.425781 79.121094 76.371094 79.863281 75.570312 79.863281 C 74.945312 79.863281 74.613281 79.394531 74.613281 78.652344 C 74.613281 78.261719 74.671875 77.96875 74.964844 76.796875 L 75.589844 74.355469 C 75.863281 73.28125 76.46875 72.5 77.289062 72.5 C 77.328125 72.5 77.835938 72.5 78.207031 72.714844 Z M 78.207031 72.714844 "/>
<path style=" stroke:none;fill-rule:nonzero;fill:rgb(0%,0%,0%);fill-opacity:1;" d="M 81.34375 71.582031 L 82.671875 70.292969 C 84.605469 68.574219 85.347656 67.910156 85.347656 66.660156 C 85.347656 65.234375 84.234375 64.238281 82.710938 64.238281 C 81.304688 64.238281 80.386719 65.390625 80.386719 66.503906 C 80.386719 67.1875 81.011719 67.1875 81.050781 67.1875 C 81.265625 67.1875 81.695312 67.050781 81.695312 66.523438 C 81.695312 66.210938 81.460938 65.878906 81.03125 65.878906 C 80.933594 65.878906 80.914062 65.878906 80.875 65.898438 C 81.148438 65.078125 81.832031 64.628906 82.554688 64.628906 C 83.6875 64.628906 84.214844 65.644531 84.214844 66.660156 C 84.214844 67.65625 83.609375 68.632812 82.90625 69.414062 L 80.523438 72.070312 C 80.386719 72.207031 80.386719 72.246094 80.386719 72.539062 L 85.015625 72.539062 L 85.347656 70.371094 L 85.054688 70.371094 C 84.976562 70.742188 84.898438 71.289062 84.761719 71.484375 C 84.683594 71.582031 83.863281 71.582031 83.589844 71.582031 Z M 81.34375 71.582031 "/>
<path style=" stroke:none;fill-rule:nonzero;fill:rgb(0%,0%,0%);fill-opacity:1;" d="M 94 75.566406 C 94 75.039062 93.570312 74.609375 93.0625 74.609375 C 92.535156 74.609375 92.105469 75.039062 92.105469 75.566406 C 92.105469 76.074219 92.535156 76.503906 93.0625 76.503906 C 93.570312 76.503906 94 76.074219 94 75.566406 Z M 94 75.566406 "/>
<path style=" stroke:none;fill-rule:nonzero;fill:rgb(0%,0%,0%);fill-opacity:1;" d="M 110.535156 55.894531 C 110.554688 55.816406 110.59375 55.71875 110.59375 55.621094 C 110.59375 55.445312 110.398438 55.445312 110.359375 55.445312 C 110.359375 55.445312 109.480469 55.523438 109.382812 55.523438 C 109.070312 55.542969 108.816406 55.582031 108.484375 55.601562 C 108.035156 55.640625 107.917969 55.660156 107.917969 55.972656 C 107.917969 56.167969 108.054688 56.167969 108.308594 56.167969 C 109.1875 56.167969 109.207031 56.324219 109.207031 56.5 C 109.207031 56.617188 109.167969 56.753906 109.148438 56.8125 L 108.054688 61.167969 C 107.859375 60.699219 107.371094 59.976562 106.433594 59.976562 C 104.421875 59.976562 102.234375 62.59375 102.234375 65.25 C 102.234375 67.027344 103.269531 68.0625 104.480469 68.0625 C 105.476562 68.0625 106.316406 67.300781 106.824219 66.695312 C 107 67.769531 107.839844 68.0625 108.386719 68.0625 C 108.914062 68.0625 109.34375 67.75 109.675781 67.105469 C 109.949219 66.480469 110.203125 65.386719 110.203125 65.328125 C 110.203125 65.230469 110.144531 65.152344 110.027344 65.152344 C 109.871094 65.152344 109.851562 65.25 109.773438 65.523438 C 109.5 66.578125 109.167969 67.710938 108.425781 67.710938 C 107.917969 67.710938 107.878906 67.242188 107.878906 66.890625 C 107.878906 66.8125 107.878906 66.441406 107.996094 65.933594 Z M 106.902344 65.757812 C 106.824219 66.050781 106.824219 66.089844 106.570312 66.441406 C 106.179688 66.929688 105.378906 67.710938 104.539062 67.710938 C 103.816406 67.710938 103.386719 67.046875 103.386719 65.992188 C 103.386719 64.996094 103.953125 62.984375 104.285156 62.242188 C 104.910156 60.992188 105.75 60.347656 106.433594 60.347656 C 107.625 60.347656 107.859375 61.8125 107.859375 61.949219 C 107.859375 61.96875 107.800781 62.203125 107.78125 62.242188 Z M 106.902344 65.757812 "/>
<path style=" stroke:none;fill-rule:nonzero;fill:rgb(0%,0%,0%);fill-opacity:1;" d="M 112.242188 60.332031 L 113.570312 59.042969 C 115.503906 57.324219 116.246094 56.660156 116.246094 55.410156 C 116.246094 53.984375 115.132812 52.988281 113.609375 52.988281 C 112.203125 52.988281 111.285156 54.140625 111.285156 55.253906 C 111.285156 55.9375 111.910156 55.9375 111.949219 55.9375 C 112.164062 55.9375 112.59375 55.800781 112.59375 55.273438 C 112.59375 54.960938 112.359375 54.628906 111.929688 54.628906 C 111.832031 54.628906 111.8125 54.628906 111.773438 54.648438 C 112.046875 53.828125 112.730469 53.378906 113.453125 53.378906 C 114.585938 53.378906 115.113281 54.394531 115.113281 55.410156 C 115.113281 56.40625 114.507812 57.382812 113.804688 58.164062 L 111.421875 60.820312 C 111.285156 60.957031 111.285156 60.996094 111.285156 61.289062 L 115.914062 61.289062 L 116.246094 59.121094 L 115.953125 59.121094 C 115.875 59.492188 115.796875 60.039062 115.660156 60.234375 C 115.582031 60.332031 114.761719 60.332031 114.488281 60.332031 Z M 112.242188 60.332031 "/>
<path style=" stroke:none;fill-rule:nonzero;fill:rgb(0%,0%,0%);fill-opacity:1;" d="M 122.117188 69.898438 C 121.648438 70.582031 120.945312 71.1875 120.066406 71.1875 C 119.851562 71.1875 118.992188 71.148438 118.71875 70.328125 C 118.777344 70.347656 118.855469 70.347656 118.894531 70.347656 C 119.441406 70.347656 119.792969 69.878906 119.792969 69.46875 C 119.792969 69.058594 119.460938 68.902344 119.1875 68.902344 C 118.894531 68.902344 118.269531 69.117188 118.269531 69.996094 C 118.269531 70.914062 119.050781 71.539062 120.066406 71.539062 C 121.863281 71.539062 123.660156 69.898438 124.167969 67.90625 L 125.925781 60.914062 C 125.945312 60.816406 125.984375 60.71875 125.984375 60.601562 C 125.984375 60.347656 125.769531 60.152344 125.496094 60.152344 C 125.339844 60.152344 124.949219 60.230469 124.8125 60.777344 L 123.484375 66.03125 C 123.40625 66.363281 123.40625 66.402344 123.25 66.597656 C 122.898438 67.105469 122.3125 67.710938 121.453125 67.710938 C 120.4375 67.710938 120.359375 66.714844 120.359375 66.246094 C 120.359375 65.210938 120.828125 63.84375 121.316406 62.535156 C 121.511719 62.027344 121.628906 61.773438 121.628906 61.421875 C 121.628906 60.660156 121.082031 59.976562 120.203125 59.976562 C 118.5625 59.976562 117.898438 62.574219 117.898438 62.730469 C 117.898438 62.789062 117.957031 62.886719 118.09375 62.886719 C 118.25 62.886719 118.269531 62.808594 118.347656 62.554688 C 118.777344 61.050781 119.460938 60.347656 120.144531 60.347656 C 120.320312 60.347656 120.613281 60.347656 120.613281 60.933594 C 120.613281 61.402344 120.417969 61.910156 120.144531 62.59375 C 119.265625 64.9375 119.265625 65.542969 119.265625 65.972656 C 119.265625 67.671875 120.496094 68.0625 121.394531 68.0625 C 121.902344 68.0625 122.546875 67.90625 123.191406 67.242188 L 123.210938 67.261719 C 122.9375 68.316406 122.761719 69.019531 122.117188 69.898438 Z M 122.117188 69.898438 "/>
<path style=" stroke:none;fill-rule:nonzero;fill:rgb(0%,0%,0%);fill-opacity:1;" d="M 101.046875 75.105469 L 127.144531 75.105469 L 127.144531 75.855469 L 101.046875 75.855469 Z M 101.046875 75.105469 "/>
<path style=" stroke:none;fill-rule:nonzero;fill:rgb(0%,0%,0%);fill-opacity:1;" d="M 110.085938 80.34375 C 110.105469 80.265625 110.144531 80.167969 110.144531 80.070312 C 110.144531 79.894531 109.949219 79.894531 109.910156 79.894531 C 109.910156 79.894531 109.03125 79.972656 108.933594 79.972656 C 108.621094 79.992188 108.367188 80.03125 108.035156 80.050781 C 107.585938 80.089844 107.46875 80.109375 107.46875 80.421875 C 107.46875 80.617188 107.605469 80.617188 107.859375 80.617188 C 108.738281 80.617188 108.757812 80.773438 108.757812 80.949219 C 108.757812 81.066406 108.71875 81.203125 108.699219 81.261719 L 107.605469 85.617188 C 107.410156 85.148438 106.921875 84.425781 105.984375 84.425781 C 103.972656 84.425781 101.785156 87.042969 101.785156 89.699219 C 101.785156 91.476562 102.820312 92.511719 104.03125 92.511719 C 105.027344 92.511719 105.867188 91.75 106.375 91.144531 C 106.550781 92.21875 107.390625 92.511719 107.9375 92.511719 C 108.464844 92.511719 108.894531 92.199219 109.226562 91.554688 C 109.5 90.929688 109.753906 89.835938 109.753906 89.777344 C 109.753906 89.679688 109.695312 89.601562 109.578125 89.601562 C 109.421875 89.601562 109.402344 89.699219 109.324219 89.972656 C 109.050781 91.027344 108.71875 92.160156 107.976562 92.160156 C 107.46875 92.160156 107.429688 91.691406 107.429688 91.339844 C 107.429688 91.261719 107.429688 90.890625 107.546875 90.382812 Z M 106.453125 90.207031 C 106.375 90.5 106.375 90.539062 106.121094 90.890625 C 105.730469 91.378906 104.929688 92.160156 104.089844 92.160156 C 103.367188 92.160156 102.9375 91.496094 102.9375 90.441406 C 102.9375 89.445312 103.503906 87.433594 103.835938 86.691406 C 104.460938 85.441406 105.300781 84.796875 105.984375 84.796875 C 107.175781 84.796875 107.410156 86.261719 107.410156 86.398438 C 107.410156 86.417969 107.351562 86.652344 107.332031 86.691406 Z M 106.453125 90.207031 "/>
<path style=" stroke:none;fill-rule:nonzero;fill:rgb(0%,0%,0%);fill-opacity:1;" d="M 118.707031 85.011719 C 118.140625 85.128906 117.925781 85.558594 117.925781 85.890625 C 117.925781 86.320312 118.257812 86.476562 118.511719 86.476562 C 119.058594 86.476562 119.429688 86.007812 119.429688 85.519531 C 119.429688 84.777344 118.570312 84.425781 117.808594 84.425781 C 116.714844 84.425781 116.109375 85.5 115.953125 85.851562 C 115.542969 84.503906 114.429688 84.425781 114.097656 84.425781 C 112.28125 84.425781 111.304688 86.769531 111.304688 87.179688 C 111.304688 87.238281 111.382812 87.335938 111.5 87.335938 C 111.636719 87.335938 111.675781 87.21875 111.714844 87.160156 C 112.320312 85.167969 113.53125 84.796875 114.039062 84.796875 C 114.859375 84.796875 115.015625 85.539062 115.015625 85.96875 C 115.015625 86.359375 114.917969 86.769531 114.683594 87.628906 L 114.078125 90.089844 C 113.824219 91.164062 113.296875 92.160156 112.339844 92.160156 C 112.261719 92.160156 111.8125 92.160156 111.421875 91.925781 C 112.066406 91.789062 112.222656 91.261719 112.222656 91.046875 C 112.222656 90.695312 111.949219 90.480469 111.617188 90.480469 C 111.1875 90.480469 110.71875 90.851562 110.71875 91.417969 C 110.71875 92.179688 111.558594 92.511719 112.320312 92.511719 C 113.179688 92.511719 113.804688 91.828125 114.175781 91.105469 C 114.46875 92.160156 115.347656 92.511719 116.011719 92.511719 C 117.847656 92.511719 118.824219 90.167969 118.824219 89.777344 C 118.824219 89.679688 118.746094 89.601562 118.628906 89.601562 C 118.472656 89.601562 118.453125 89.699219 118.414062 89.835938 C 117.925781 91.417969 116.871094 92.160156 116.070312 92.160156 C 115.445312 92.160156 115.113281 91.691406 115.113281 90.949219 C 115.113281 90.558594 115.171875 90.265625 115.464844 89.09375 L 116.089844 86.652344 C 116.363281 85.578125 116.96875 84.796875 117.789062 84.796875 C 117.828125 84.796875 118.335938 84.796875 118.707031 85.011719 Z M 118.707031 85.011719 "/>
<path style=" stroke:none;fill-rule:nonzero;fill:rgb(0%,0%,0%);fill-opacity:1;" d="M 121.84375 86.128906 L 123.171875 84.839844 C 125.105469 83.121094 125.847656 82.457031 125.847656 81.207031 C 125.847656 79.78125 124.734375 78.785156 123.210938 78.785156 C 121.804688 78.785156 120.886719 79.9375 120.886719 81.050781 C 120.886719 81.734375 121.511719 81.734375 121.550781 81.734375 C 121.765625 81.734375 122.195312 81.597656 122.195312 81.070312 C 122.195312 80.757812 121.960938 80.425781 121.53125 80.425781 C 121.433594 80.425781 121.414062 80.425781 121.375 80.445312 C 121.648438 79.625 122.332031 79.175781 123.054688 79.175781 C 124.1875 79.175781 124.714844 80.191406 124.714844 81.207031 C 124.714844 82.203125 124.109375 83.179688 123.40625 83.960938 L 121.023438 86.617188 C 120.886719 86.753906 120.886719 86.792969 120.886719 87.085938 L 125.515625 87.085938 L 125.847656 84.917969 L 125.554688 84.917969 C 125.476562 85.289062 125.398438 85.835938 125.261719 86.03125 C 125.183594 86.128906 124.363281 86.128906 124.089844 86.128906 Z M 121.84375 86.128906 "/>
<path style=" stroke:none;fill-rule:nonzero;fill:rgb(0%,0%,0%);fill-opacity:1;" d="M 139.558594 75.898438 L 144.519531 75.898438 C 144.773438 75.898438 145.085938 75.898438 145.085938 75.566406 C 145.085938 75.234375 144.773438 75.234375 144.519531 75.234375 L 139.558594 75.234375 L 139.558594 70.292969 C 139.558594 70.039062 139.558594 69.707031 139.246094 69.707031 C 138.894531 69.707031 138.894531 70.019531 138.894531 70.292969 L 138.894531 75.234375 L 133.953125 75.234375 C 133.699219 75.234375 133.386719 75.234375 133.386719 75.566406 C 133.386719 75.898438 133.679688 75.898438 133.953125 75.898438 L 138.894531 75.898438 L 138.894531 80.839844 C 138.894531 81.09375 138.894531 81.425781 139.226562 81.425781 C 139.558594 81.425781 139.558594 81.113281 139.558594 80.839844 Z M 139.558594 75.898438 "/>
<path style=" stroke:none;fill-rule:nonzero;fill:rgb(0%,0%,0%);fill-opacity:1;" d="M 158.609375 72.714844 C 158.042969 72.832031 157.828125 73.261719 157.828125 73.59375 C 157.828125 74.023438 158.160156 74.179688 158.414062 74.179688 C 158.960938 74.179688 159.332031 73.710938 159.332031 73.222656 C 159.332031 72.480469 158.472656 72.128906 157.710938 72.128906 C 156.617188 72.128906 156.011719 73.203125 155.855469 73.554688 C 155.445312 72.207031 154.332031 72.128906 154 72.128906 C 152.183594 72.128906 151.207031 74.472656 151.207031 74.882812 C 151.207031 74.941406 151.285156 75.039062 151.402344 75.039062 C 151.539062 75.039062 151.578125 74.921875 151.617188 74.863281 C 152.222656 72.871094 153.433594 72.5 153.941406 72.5 C 154.761719 72.5 154.917969 73.242188 154.917969 73.671875 C 154.917969 74.0625 154.820312 74.472656 154.585938 75.332031 L 153.980469 77.792969 C 153.726562 78.867188 153.199219 79.863281 152.242188 79.863281 C 152.164062 79.863281 151.714844 79.863281 151.324219 79.628906 C 151.96875 79.492188 152.125 78.964844 152.125 78.75 C 152.125 78.398438 151.851562 78.183594 151.519531 78.183594 C 151.089844 78.183594 150.621094 78.554688 150.621094 79.121094 C 150.621094 79.882812 151.460938 80.214844 152.222656 80.214844 C 153.082031 80.214844 153.707031 79.53125 154.078125 78.808594 C 154.371094 79.863281 155.25 80.214844 155.914062 80.214844 C 157.75 80.214844 158.726562 77.871094 158.726562 77.480469 C 158.726562 77.382812 158.648438 77.304688 158.53125 77.304688 C 158.375 77.304688 158.355469 77.402344 158.316406 77.539062 C 157.828125 79.121094 156.773438 79.863281 155.972656 79.863281 C 155.347656 79.863281 155.015625 79.394531 155.015625 78.652344 C 155.015625 78.261719 155.074219 77.96875 155.367188 76.796875 L 155.992188 74.355469 C 156.265625 73.28125 156.871094 72.5 157.691406 72.5 C 157.730469 72.5 158.238281 72.5 158.609375 72.714844 Z M 158.609375 72.714844 "/>
<path style=" stroke:none;fill-rule:nonzero;fill:rgb(0%,0%,0%);fill-opacity:1;" d="M 167.5 75.566406 C 167.5 75.039062 167.070312 74.609375 166.5625 74.609375 C 166.035156 74.609375 165.605469 75.039062 165.605469 75.566406 C 165.605469 76.074219 166.035156 76.503906 166.5625 76.503906 C 167.070312 76.503906 167.5 76.074219 167.5 75.566406 Z M 167.5 75.566406 "/>
<path style=" stroke:none;fill-rule:nonzero;fill:rgb(0%,0%,0%);fill-opacity:1;" d="M 184.035156 55.894531 C 184.054688 55.816406 184.09375 55.71875 184.09375 55.621094 C 184.09375 55.445312 183.898438 55.445312 183.859375 55.445312 C 183.859375 55.445312 182.980469 55.523438 182.882812 55.523438 C 182.570312 55.542969 182.316406 55.582031 181.984375 55.601562 C 181.535156 55.640625 181.417969 55.660156 181.417969 55.972656 C 181.417969 56.167969 181.554688 56.167969 181.808594 56.167969 C 182.6875 56.167969 182.707031 56.324219 182.707031 56.5 C 182.707031 56.617188 182.667969 56.753906 182.648438 56.8125 L 181.554688 61.167969 C 181.359375 60.699219 180.871094 59.976562 179.933594 59.976562 C 177.921875 59.976562 175.734375 62.59375 175.734375 65.25 C 175.734375 67.027344 176.769531 68.0625 177.980469 68.0625 C 178.976562 68.0625 179.816406 67.300781 180.324219 66.695312 C 180.5 67.769531 181.339844 68.0625 181.886719 68.0625 C 182.414062 68.0625 182.84375 67.75 183.175781 67.105469 C 183.449219 66.480469 183.703125 65.386719 183.703125 65.328125 C 183.703125 65.230469 183.644531 65.152344 183.527344 65.152344 C 183.371094 65.152344 183.351562 65.25 183.273438 65.523438 C 183 66.578125 182.667969 67.710938 181.925781 67.710938 C 181.417969 67.710938 181.378906 67.242188 181.378906 66.890625 C 181.378906 66.8125 181.378906 66.441406 181.496094 65.933594 Z M 180.402344 65.757812 C 180.324219 66.050781 180.324219 66.089844 180.070312 66.441406 C 179.679688 66.929688 178.878906 67.710938 178.039062 67.710938 C 177.316406 67.710938 176.886719 67.046875 176.886719 65.992188 C 176.886719 64.996094 177.453125 62.984375 177.785156 62.242188 C 178.410156 60.992188 179.25 60.347656 179.933594 60.347656 C 181.125 60.347656 181.359375 61.8125 181.359375 61.949219 C 181.359375 61.96875 181.300781 62.203125 181.28125 62.242188 Z M 180.402344 65.757812 "/>
<path style=" stroke:none;fill-rule:nonzero;fill:rgb(0%,0%,0%);fill-opacity:1;" d="M 188.867188 69.898438 C 188.398438 70.582031 187.695312 71.1875 186.816406 71.1875 C 186.601562 71.1875 185.742188 71.148438 185.46875 70.328125 C 185.527344 70.347656 185.605469 70.347656 185.644531 70.347656 C 186.191406 70.347656 186.542969 69.878906 186.542969 69.46875 C 186.542969 69.058594 186.210938 68.902344 185.9375 68.902344 C 185.644531 68.902344 185.019531 69.117188 185.019531 69.996094 C 185.019531 70.914062 185.800781 71.539062 186.816406 71.539062 C 188.613281 71.539062 190.410156 69.898438 190.917969 67.90625 L 192.675781 60.914062 C 192.695312 60.816406 192.734375 60.71875 192.734375 60.601562 C 192.734375 60.347656 192.519531 60.152344 192.246094 60.152344 C 192.089844 60.152344 191.699219 60.230469 191.5625 60.777344 L 190.234375 66.03125 C 190.15625 66.363281 190.15625 66.402344 190 66.597656 C 189.648438 67.105469 189.0625 67.710938 188.203125 67.710938 C 187.1875 67.710938 187.109375 66.714844 187.109375 66.246094 C 187.109375 65.210938 187.578125 63.84375 188.066406 62.535156 C 188.261719 62.027344 188.378906 61.773438 188.378906 61.421875 C 188.378906 60.660156 187.832031 59.976562 186.953125 59.976562 C 185.3125 59.976562 184.648438 62.574219 184.648438 62.730469 C 184.648438 62.789062 184.707031 62.886719 184.84375 62.886719 C 185 62.886719 185.019531 62.808594 185.097656 62.554688 C 185.527344 61.050781 186.210938 60.347656 186.894531 60.347656 C 187.070312 60.347656 187.363281 60.347656 187.363281 60.933594 C 187.363281 61.402344 187.167969 61.910156 186.894531 62.59375 C 186.015625 64.9375 186.015625 65.542969 186.015625 65.972656 C 186.015625 67.671875 187.246094 68.0625 188.144531 68.0625 C 188.652344 68.0625 189.296875 67.90625 189.941406 67.242188 L 189.960938 67.261719 C 189.6875 68.316406 189.511719 69.019531 188.867188 69.898438 Z M 188.867188 69.898438 "/>
<path style=" stroke:none;fill-rule:nonzero;fill:rgb(0%,0%,0%);fill-opacity:1;" d="M 174.546875 75.105469 L 193.746094 75.105469 L 193.746094 75.855469 L 174.546875 75.855469 Z M 174.546875 75.105469 "/>
<path style=" stroke:none;fill-rule:nonzero;fill:rgb(0%,0%,0%);fill-opacity:1;" d="M 183.585938 80.34375 C 183.605469 80.265625 183.644531 80.167969 183.644531 80.070312 C 183.644531 79.894531 183.449219 79.894531 183.410156 79.894531 C 183.410156 79.894531 182.53125 79.972656 182.433594 79.972656 C 182.121094 79.992188 181.867188 80.03125 181.535156 80.050781 C 181.085938 80.089844 180.96875 80.109375 180.96875 80.421875 C 180.96875 80.617188 181.105469 80.617188 181.359375 80.617188 C 182.238281 80.617188 182.257812 80.773438 182.257812 80.949219 C 182.257812 81.066406 182.21875 81.203125 182.199219 81.261719 L 181.105469 85.617188 C 180.910156 85.148438 180.421875 84.425781 179.484375 84.425781 C 177.472656 84.425781 175.285156 87.042969 175.285156 89.699219 C 175.285156 91.476562 176.320312 92.511719 177.53125 92.511719 C 178.527344 92.511719 179.367188 91.75 179.875 91.144531 C 180.050781 92.21875 180.890625 92.511719 181.4375 92.511719 C 181.964844 92.511719 182.394531 92.199219 182.726562 91.554688 C 183 90.929688 183.253906 89.835938 183.253906 89.777344 C 183.253906 89.679688 183.195312 89.601562 183.078125 89.601562 C 182.921875 89.601562 182.902344 89.699219 182.824219 89.972656 C 182.550781 91.027344 182.21875 92.160156 181.476562 92.160156 C 180.96875 92.160156 180.929688 91.691406 180.929688 91.339844 C 180.929688 91.261719 180.929688 90.890625 181.046875 90.382812 Z M 179.953125 90.207031 C 179.875 90.5 179.875 90.539062 179.621094 90.890625 C 179.230469 91.378906 178.429688 92.160156 177.589844 92.160156 C 176.867188 92.160156 176.4375 91.496094 176.4375 90.441406 C 176.4375 89.445312 177.003906 87.433594 177.335938 86.691406 C 177.960938 85.441406 178.800781 84.796875 179.484375 84.796875 C 180.675781 84.796875 180.910156 86.261719 180.910156 86.398438 C 180.910156 86.417969 180.851562 86.652344 180.832031 86.691406 Z M 179.953125 90.207031 "/>
<path style=" stroke:none;fill-rule:nonzero;fill:rgb(0%,0%,0%);fill-opacity:1;" d="M 192.207031 85.011719 C 191.640625 85.128906 191.425781 85.558594 191.425781 85.890625 C 191.425781 86.320312 191.757812 86.476562 192.011719 86.476562 C 192.558594 86.476562 192.929688 86.007812 192.929688 85.519531 C 192.929688 84.777344 192.070312 84.425781 191.308594 84.425781 C 190.214844 84.425781 189.609375 85.5 189.453125 85.851562 C 189.042969 84.503906 187.929688 84.425781 187.597656 84.425781 C 185.78125 84.425781 184.804688 86.769531 184.804688 87.179688 C 184.804688 87.238281 184.882812 87.335938 185 87.335938 C 185.136719 87.335938 185.175781 87.21875 185.214844 87.160156 C 185.820312 85.167969 187.03125 84.796875 187.539062 84.796875 C 188.359375 84.796875 188.515625 85.539062 188.515625 85.96875 C 188.515625 86.359375 188.417969 86.769531 188.183594 87.628906 L 187.578125 90.089844 C 187.324219 91.164062 186.796875 92.160156 185.839844 92.160156 C 185.761719 92.160156 185.3125 92.160156 184.921875 91.925781 C 185.566406 91.789062 185.722656 91.261719 185.722656 91.046875 C 185.722656 90.695312 185.449219 90.480469 185.117188 90.480469 C 184.6875 90.480469 184.21875 90.851562 184.21875 91.417969 C 184.21875 92.179688 185.058594 92.511719 185.820312 92.511719 C 186.679688 92.511719 187.304688 91.828125 187.675781 91.105469 C 187.96875 92.160156 188.847656 92.511719 189.511719 92.511719 C 191.347656 92.511719 192.324219 90.167969 192.324219 89.777344 C 192.324219 89.679688 192.246094 89.601562 192.128906 89.601562 C 191.972656 89.601562 191.953125 89.699219 191.914062 89.835938 C 191.425781 91.417969 190.371094 92.160156 189.570312 92.160156 C 188.945312 92.160156 188.613281 91.691406 188.613281 90.949219 C 188.613281 90.558594 188.671875 90.265625 188.964844 89.09375 L 189.589844 86.652344 C 189.863281 85.578125 190.46875 84.796875 191.289062 84.796875 C 191.328125 84.796875 191.835938 84.796875 192.207031 85.011719 Z M 192.207031 85.011719 "/>
<path style=" stroke:none;fill-rule:nonzero;fill:rgb(0%,0%,0%);fill-opacity:1;" d="M 206.308594 75.898438 L 211.269531 75.898438 C 211.523438 75.898438 211.835938 75.898438 211.835938 75.566406 C 211.835938 75.234375 211.523438 75.234375 211.269531 75.234375 L 206.308594 75.234375 L 206.308594 70.292969 C 206.308594 70.039062 206.308594 69.707031 205.996094 69.707031 C 205.644531 69.707031 205.644531 70.019531 205.644531 70.292969 L 205.644531 75.234375 L 200.703125 75.234375 C 200.449219 75.234375 200.136719 75.234375 200.136719 75.566406 C 200.136719 75.898438 200.429688 75.898438 200.703125 75.898438 L 205.644531 75.898438 L 205.644531 80.839844 C 205.644531 81.09375 205.644531 81.425781 205.976562 81.425781 C 206.308594 81.425781 206.308594 81.113281 206.308594 80.839844 Z M 206.308594 75.898438 "/>
<path style=" stroke:none;fill-rule:nonzero;fill:rgb(0%,0%,0%);fill-opacity:1;" d="M 221.417969 82.050781 C 220.949219 82.734375 220.246094 83.339844 219.367188 83.339844 C 219.152344 83.339844 218.292969 83.300781 218.019531 82.480469 C 218.078125 82.5 218.15625 82.5 218.195312 82.5 C 218.742188 82.5 219.09375 82.03125 219.09375 81.621094 C 219.09375 81.210938 218.761719 81.054688 218.488281 81.054688 C 218.195312 81.054688 217.570312 81.269531 217.570312 82.148438 C 217.570312 83.066406 218.351562 83.691406 219.367188 83.691406 C 221.164062 83.691406 222.960938 82.050781 223.46875 80.058594 L 225.226562 73.066406 C 225.246094 72.96875 225.285156 72.871094 225.285156 72.753906 C 225.285156 72.5 225.070312 72.304688 224.796875 72.304688 C 224.640625 72.304688 224.25 72.382812 224.113281 72.929688 L 222.785156 78.183594 C 222.707031 78.515625 222.707031 78.554688 222.550781 78.75 C 222.199219 79.257812 221.613281 79.863281 220.753906 79.863281 C 219.738281 79.863281 219.660156 78.867188 219.660156 78.398438 C 219.660156 77.363281 220.128906 75.996094 220.617188 74.6875 C 220.8125 74.179688 220.929688 73.925781 220.929688 73.574219 C 220.929688 72.8125 220.382812 72.128906 219.503906 72.128906 C 217.863281 72.128906 217.199219 74.726562 217.199219 74.882812 C 217.199219 74.941406 217.257812 75.039062 217.394531 75.039062 C 217.550781 75.039062 217.570312 74.960938 217.648438 74.707031 C 218.078125 73.203125 218.761719 72.5 219.445312 72.5 C 219.621094 72.5 219.914062 72.5 219.914062 73.085938 C 219.914062 73.554688 219.71875 74.0625 219.445312 74.746094 C 218.566406 77.089844 218.566406 77.695312 218.566406 78.125 C 218.566406 79.824219 219.796875 80.214844 220.695312 80.214844 C 221.203125 80.214844 221.847656 80.058594 222.492188 79.394531 L 222.511719 79.414062 C 222.238281 80.46875 222.0625 81.171875 221.417969 82.050781 Z M 221.417969 82.050781 "/>
<path style=" stroke:none;fill-rule:nonzero;fill:rgb(0%,0%,0%);fill-opacity:1;" d="M 243.070312 74.238281 C 243.324219 74.238281 243.636719 74.238281 243.636719 73.90625 C 243.636719 73.574219 243.324219 73.574219 243.070312 73.574219 L 232.503906 73.574219 C 232.25 73.574219 231.9375 73.574219 231.9375 73.886719 C 231.9375 74.238281 232.230469 74.238281 232.503906 74.238281 Z M 243.070312 77.558594 C 243.324219 77.558594 243.636719 77.558594 243.636719 77.246094 C 243.636719 76.894531 243.324219 76.894531 243.070312 76.894531 L 232.503906 76.894531 C 232.25 76.894531 231.9375 76.894531 231.9375 77.226562 C 231.9375 77.558594 232.230469 77.558594 232.503906 77.558594 Z M 243.070312 77.558594 "/>
<path style=" stroke:none;fill-rule:nonzero;fill:rgb(0%,0%,0%);fill-opacity:1;" d="M 257.589844 74.296875 C 257.589844 72.8125 257.511719 71.367188 256.867188 70 C 256.125 68.515625 254.835938 68.125 253.957031 68.125 C 252.921875 68.125 251.632812 68.632812 250.988281 70.117188 C 250.480469 71.25 250.304688 72.363281 250.304688 74.296875 C 250.304688 76.035156 250.421875 77.34375 251.066406 78.613281 C 251.769531 79.980469 253 80.410156 253.9375 80.410156 C 255.5 80.410156 256.398438 79.492188 256.90625 78.4375 C 257.550781 77.089844 257.589844 75.332031 257.589844 74.296875 Z M 253.9375 80.058594 C 253.371094 80.058594 252.199219 79.726562 251.867188 77.773438 C 251.652344 76.699219 251.652344 75.332031 251.652344 74.082031 C 251.652344 72.617188 251.652344 71.289062 251.945312 70.234375 C 252.257812 69.023438 253.175781 68.476562 253.9375 68.476562 C 254.621094 68.476562 255.65625 68.886719 256.007812 70.429688 C 256.222656 71.445312 256.222656 72.871094 256.222656 74.082031 C 256.222656 75.292969 256.222656 76.640625 256.027344 77.734375 C 255.695312 79.707031 254.5625 80.058594 253.9375 80.058594 Z M 253.9375 80.058594 "/>
</g>
</svg>
