<?xml version="1.0" encoding="UTF-8"?>
<svg xmlns="http://www.w3.org/2000/svg" xmlns:xlink="http://www.w3.org/1999/xlink" width="295.11529pt" height="209.36328pt" viewBox="0 0 295.11529 209.36328" version="1.1">
<g id="surface1">
<path style=" stroke:none;fill-rule:nonzero;fill:rgb(0%,0%,0%);fill-opacity:1;" d="M 6.269531 2.1875 L 7.851562 2.1875 C 8.066406 2.1875 8.28125 2.207031 8.496094 2.207031 L 10.839844 2.207031 L 10.839844 1.074219 L 0.136719 1.074219 L 0.136719 2.207031 L 2.5 2.207031 C 2.714844 2.207031 2.929688 2.1875 3.144531 2.1875 L 4.726562 2.1875 L 4.726562 13.4375 L 6.269531 13.4375 Z M 6.269531 2.1875 "/>
<path style=" stroke:none;fill-rule:nonzero;fill:rgb(0%,0%,0%);fill-opacity:1;" d="M 19.109375 8.046875 C 19.109375 6.953125 18.875 5.292969 16.707031 5.292969 C 15.476562 5.292969 14.65625 5.996094 14.226562 6.542969 L 14.226562 0.996094 L 12.898438 0.996094 L 12.898438 13.4375 L 14.246094 13.4375 L 14.246094 8.964844 C 14.246094 7.871094 14.675781 6.367188 16.023438 6.367188 C 17.703125 6.367188 17.742188 7.539062 17.742188 8.164062 L 17.742188 13.4375 L 19.109375 13.4375 Z M 19.109375 8.046875 "/>
<path style=" stroke:none;fill-rule:nonzero;fill:rgb(0%,0%,0%);fill-opacity:1;" d="M 27.816406 9.394531 C 27.816406 8.632812 27.738281 7.539062 27.171875 6.582031 C 26.429688 5.351562 25.179688 5.214844 24.652344 5.214844 C 22.71875 5.214844 21.097656 7.070312 21.097656 9.394531 C 21.097656 11.777344 22.816406 13.613281 24.90625 13.613281 C 25.726562 13.613281 26.722656 13.378906 27.699219 12.675781 C 27.699219 12.597656 27.640625 12.03125 27.640625 12.011719 C 27.621094 11.992188 27.601562 11.582031 27.601562 11.523438 C 26.527344 12.421875 25.472656 12.539062 24.945312 12.539062 C 23.558594 12.539062 22.367188 11.308594 22.347656 9.394531 Z M 22.445312 8.4375 C 22.757812 7.226562 23.597656 6.289062 24.652344 6.289062 C 25.21875 6.289062 26.449219 6.542969 26.742188 8.4375 Z M 22.445312 8.4375 "/>
<path style=" stroke:none;fill-rule:nonzero;fill:rgb(0%,0%,0%);fill-opacity:1;" d="M 41.269531 0.976562 L 39.824219 0.976562 L 39.824219 2.421875 L 41.269531 2.421875 Z M 41.230469 5.46875 L 39.902344 5.46875 L 39.902344 13.4375 L 41.230469 13.4375 Z M 36.367188 6.523438 L 38.417969 6.523438 L 38.417969 5.46875 L 36.328125 5.46875 L 36.328125 3.28125 C 36.328125 2.207031 36.894531 1.894531 37.382812 1.894531 C 37.773438 1.894531 38.183594 2.03125 38.417969 2.207031 L 38.417969 0.996094 C 38.066406 0.859375 37.949219 0.820312 37.382812 0.820312 C 36.054688 0.820312 35.039062 2.089844 35.039062 3.828125 L 35.039062 5.46875 L 33.730469 5.46875 L 33.730469 6.523438 L 35.039062 6.523438 L 35.039062 13.4375 L 36.367188 13.4375 Z M 36.367188 6.523438 "/>
<path style=" stroke:none;fill-rule:nonzero;fill:rgb(0%,0%,0%);fill-opacity:1;" d="M 45.445312 9.511719 C 45.445312 7.695312 46.792969 6.523438 48.414062 6.503906 L 48.414062 5.292969 C 46.773438 5.3125 45.835938 6.269531 45.347656 6.972656 L 45.347656 5.390625 L 44.117188 5.390625 L 44.117188 13.4375 L 45.445312 13.4375 Z M 45.445312 9.511719 "/>
<path style=" stroke:none;fill-rule:nonzero;fill:rgb(0%,0%,0%);fill-opacity:1;" d="M 54.726562 5.761719 C 53.59375 5.234375 52.617188 5.214844 52.207031 5.214844 C 51.796875 5.214844 49.296875 5.214844 49.296875 7.539062 C 49.296875 8.320312 49.726562 8.867188 50 9.121094 C 50.644531 9.667969 51.09375 9.765625 52.148438 9.980469 C 52.753906 10.097656 53.789062 10.3125 53.789062 11.269531 C 53.789062 12.5 52.382812 12.5 52.128906 12.5 C 51.425781 12.5 50.371094 12.304688 49.414062 11.601562 L 49.199219 12.832031 C 49.277344 12.890625 50.507812 13.613281 52.148438 13.613281 C 54.472656 13.613281 55.019531 12.226562 55.019531 11.152344 C 55.019531 10.253906 54.472656 9.667969 54.394531 9.589844 C 53.730469 8.90625 53.183594 8.789062 52.109375 8.574219 C 51.445312 8.457031 50.546875 8.28125 50.546875 7.382812 C 50.546875 6.269531 51.796875 6.269531 52.03125 6.269531 C 52.96875 6.269531 53.730469 6.484375 54.511719 6.933594 Z M 54.726562 5.761719 "/>
<path style=" stroke:none;fill-rule:nonzero;fill:rgb(0%,0%,0%);fill-opacity:1;" d="M 58.527344 6.523438 L 61.007812 6.523438 L 61.007812 5.46875 L 58.527344 5.46875 L 58.527344 3.203125 L 57.296875 3.203125 L 57.296875 5.46875 L 55.792969 5.46875 L 55.792969 6.523438 L 57.257812 6.523438 L 57.257812 11.347656 C 57.257812 12.382812 57.492188 13.613281 58.722656 13.613281 C 59.933594 13.613281 60.753906 13.203125 61.300781 12.910156 L 61.027344 11.875 C 60.402344 12.441406 59.738281 12.5 59.425781 12.5 C 58.625 12.5 58.527344 11.660156 58.527344 11.035156 Z M 58.527344 6.523438 "/>
<path style=" stroke:none;fill-rule:nonzero;fill:rgb(0%,0%,0%);fill-opacity:1;" d="M 74.140625 5.292969 L 72.8125 5.292969 L 72.8125 6.445312 C 72.34375 5.898438 71.5625 5.292969 70.46875 5.292969 C 68.710938 5.292969 67.1875 7.070312 67.1875 9.472656 C 67.1875 11.757812 68.515625 13.613281 70.195312 13.613281 C 71.582031 13.613281 72.539062 12.792969 72.792969 12.519531 L 72.792969 16.914062 L 74.140625 16.914062 Z M 72.8125 10.9375 C 72.8125 11.289062 72.8125 11.308594 72.617188 11.582031 C 72.128906 12.304688 71.484375 12.539062 70.957031 12.539062 C 69.609375 12.539062 68.554688 11.132812 68.554688 9.472656 C 68.554688 7.636719 69.84375 6.40625 71.113281 6.40625 C 72.265625 6.40625 72.8125 7.578125 72.8125 8.300781 Z M 72.8125 10.9375 "/>
<path style=" stroke:none;fill-rule:nonzero;fill:rgb(0%,0%,0%);fill-opacity:1;" d="M 83.160156 5.46875 L 81.792969 5.46875 L 81.792969 10.605469 C 81.792969 11.972656 80.855469 12.636719 79.683594 12.636719 C 78.433594 12.636719 78.296875 12.167969 78.296875 11.367188 L 78.296875 5.46875 L 76.949219 5.46875 L 76.949219 11.445312 C 76.949219 12.734375 77.359375 13.613281 78.824219 13.613281 C 79.332031 13.613281 80.738281 13.535156 81.832031 12.539062 L 81.832031 13.4375 L 83.160156 13.4375 Z M 83.160156 5.46875 "/>
<path style=" stroke:none;fill-rule:nonzero;fill:rgb(0%,0%,0%);fill-opacity:1;" d="M 91.867188 9.394531 C 91.867188 8.632812 91.789062 7.539062 91.222656 6.582031 C 90.480469 5.351562 89.230469 5.214844 88.703125 5.214844 C 86.769531 5.214844 85.148438 7.070312 85.148438 9.394531 C 85.148438 11.777344 86.867188 13.613281 88.957031 13.613281 C 89.777344 13.613281 90.773438 13.378906 91.75 12.675781 C 91.75 12.597656 91.691406 12.03125 91.691406 12.011719 C 91.671875 11.992188 91.652344 11.582031 91.652344 11.523438 C 90.578125 12.421875 89.523438 12.539062 88.996094 12.539062 C 87.609375 12.539062 86.417969 11.308594 86.398438 9.394531 Z M 86.496094 8.4375 C 86.808594 7.226562 87.648438 6.289062 88.703125 6.289062 C 89.269531 6.289062 90.5 6.542969 90.792969 8.4375 Z M 86.496094 8.4375 "/>
<path style=" stroke:none;fill-rule:nonzero;fill:rgb(0%,0%,0%);fill-opacity:1;" d="M 98.375 5.761719 C 97.242188 5.234375 96.265625 5.214844 95.855469 5.214844 C 95.445312 5.214844 92.945312 5.214844 92.945312 7.539062 C 92.945312 8.320312 93.375 8.867188 93.648438 9.121094 C 94.292969 9.667969 94.742188 9.765625 95.796875 9.980469 C 96.402344 10.097656 97.4375 10.3125 97.4375 11.269531 C 97.4375 12.5 96.03125 12.5 95.777344 12.5 C 95.074219 12.5 94.019531 12.304688 93.0625 11.601562 L 92.847656 12.832031 C 92.925781 12.890625 94.15625 13.613281 95.796875 13.613281 C 98.121094 13.613281 98.667969 12.226562 98.667969 11.152344 C 98.667969 10.253906 98.121094 9.667969 98.042969 9.589844 C 97.378906 8.90625 96.832031 8.789062 95.757812 8.574219 C 95.09375 8.457031 94.195312 8.28125 94.195312 7.382812 C 94.195312 6.269531 95.445312 6.269531 95.679688 6.269531 C 96.617188 6.269531 97.378906 6.484375 98.160156 6.933594 Z M 98.375 5.761719 "/>
<path style=" stroke:none;fill-rule:nonzero;fill:rgb(0%,0%,0%);fill-opacity:1;" d="M 102.175781 6.523438 L 104.65625 6.523438 L 104.65625 5.46875 L 102.175781 5.46875 L 102.175781 3.203125 L 100.945312 3.203125 L 100.945312 5.46875 L 99.441406 5.46875 L 99.441406 6.523438 L 100.90625 6.523438 L 100.90625 11.347656 C 100.90625 12.382812 101.140625 13.613281 102.371094 13.613281 C 103.582031 13.613281 104.402344 13.203125 104.949219 12.910156 L 104.675781 11.875 C 104.050781 12.441406 103.386719 12.5 103.074219 12.5 C 102.273438 12.5 102.175781 11.660156 102.175781 11.035156 Z M 102.175781 6.523438 "/>
<path style=" stroke:none;fill-rule:nonzero;fill:rgb(0%,0%,0%);fill-opacity:1;" d="M 108.242188 1.269531 L 106.699219 1.269531 L 106.699219 2.8125 L 108.242188 2.8125 Z M 108.144531 5.46875 L 106.816406 5.46875 L 106.816406 13.4375 L 108.144531 13.4375 Z M 108.144531 5.46875 "/>
<path style=" stroke:none;fill-rule:nonzero;fill:rgb(0%,0%,0%);fill-opacity:1;" d="M 117.832031 9.492188 C 117.832031 7.070312 116.054688 5.214844 114.003906 5.214844 C 111.894531 5.214844 110.15625 7.109375 110.15625 9.492188 C 110.15625 11.835938 111.933594 13.613281 113.984375 13.613281 C 116.09375 13.613281 117.832031 11.796875 117.832031 9.492188 Z M 114.003906 12.5 C 112.714844 12.5 111.503906 11.425781 111.503906 9.316406 C 111.503906 7.148438 112.851562 6.289062 113.984375 6.289062 C 115.214844 6.289062 116.484375 7.207031 116.484375 9.316406 C 116.484375 11.523438 115.195312 12.5 114.003906 12.5 Z M 114.003906 12.5 "/>
<path style=" stroke:none;fill-rule:nonzero;fill:rgb(0%,0%,0%);fill-opacity:1;" d="M 126.058594 8.046875 C 126.058594 6.953125 125.824219 5.292969 123.65625 5.292969 C 122.660156 5.292969 121.800781 5.742188 121.117188 6.601562 L 121.117188 5.390625 L 119.847656 5.390625 L 119.847656 13.4375 L 121.195312 13.4375 L 121.195312 8.964844 C 121.195312 7.871094 121.625 6.367188 122.972656 6.367188 C 124.652344 6.367188 124.691406 7.539062 124.691406 8.164062 L 124.691406 13.4375 L 126.058594 13.4375 Z M 126.058594 8.046875 "/>
<path style=" stroke:none;fill-rule:nonzero;fill:rgb(0%,0%,0%);fill-opacity:1;" d="M 134.941406 1.269531 L 133.398438 1.269531 L 133.398438 2.8125 L 134.941406 2.8125 Z M 134.84375 5.46875 L 133.515625 5.46875 L 133.515625 13.4375 L 134.84375 13.4375 Z M 134.84375 5.46875 "/>
<path style=" stroke:none;fill-rule:nonzero;fill:rgb(0%,0%,0%);fill-opacity:1;" d="M 142.328125 5.761719 C 141.195312 5.234375 140.21875 5.214844 139.808594 5.214844 C 139.398438 5.214844 136.898438 5.214844 136.898438 7.539062 C 136.898438 8.320312 137.328125 8.867188 137.601562 9.121094 C 138.246094 9.667969 138.695312 9.765625 139.75 9.980469 C 140.355469 10.097656 141.390625 10.3125 141.390625 11.269531 C 141.390625 12.5 139.984375 12.5 139.730469 12.5 C 139.027344 12.5 137.972656 12.304688 137.015625 11.601562 L 136.800781 12.832031 C 136.878906 12.890625 138.109375 13.613281 139.75 13.613281 C 142.074219 13.613281 142.621094 12.226562 142.621094 11.152344 C 142.621094 10.253906 142.074219 9.667969 141.996094 9.589844 C 141.332031 8.90625 140.785156 8.789062 139.710938 8.574219 C 139.046875 8.457031 138.148438 8.28125 138.148438 7.382812 C 138.148438 6.269531 139.398438 6.269531 139.632812 6.269531 C 140.570312 6.269531 141.332031 6.484375 142.113281 6.933594 Z M 142.328125 5.761719 "/>
<path style=" stroke:none;fill-rule:nonzero;fill:rgb(0%,0%,0%);fill-opacity:1;" d="M 146.226562 13.417969 L 146.226562 11.992188 L 144.761719 11.992188 L 144.761719 13.4375 L 145.210938 13.4375 L 144.761719 15.683594 L 145.484375 15.683594 Z M 146.226562 13.417969 "/>
<path style=" stroke:none;fill-rule:nonzero;fill:rgb(0%,0%,0%);fill-opacity:1;" d="M 164.621094 5.46875 L 163.3125 5.46875 L 162.238281 9.121094 C 161.984375 9.980469 161.476562 11.660156 161.398438 12.441406 L 161.378906 12.441406 C 161.339844 12.011719 161.046875 10.800781 160.675781 9.53125 L 159.484375 5.46875 L 158.253906 5.46875 L 157.21875 8.984375 C 156.90625 10.097656 156.476562 11.640625 156.417969 12.402344 L 156.398438 12.402344 C 156.378906 12.050781 156.183594 11.113281 155.851562 9.902344 L 154.582031 5.46875 L 153.214844 5.46875 L 155.617188 13.4375 L 157.003906 13.4375 C 157.667969 11.171875 158.722656 7.773438 158.820312 6.523438 L 158.839844 6.523438 C 158.878906 7.246094 159.230469 8.535156 159.367188 8.964844 L 160.636719 13.4375 L 162.21875 13.4375 Z M 164.621094 5.46875 "/>
<path style=" stroke:none;fill-rule:nonzero;fill:rgb(0%,0%,0%);fill-opacity:1;" d="M 172.558594 8.046875 C 172.558594 6.953125 172.324219 5.292969 170.15625 5.292969 C 168.925781 5.292969 168.105469 5.996094 167.675781 6.542969 L 167.675781 0.996094 L 166.347656 0.996094 L 166.347656 13.4375 L 167.695312 13.4375 L 167.695312 8.964844 C 167.695312 7.871094 168.125 6.367188 169.472656 6.367188 C 171.152344 6.367188 171.191406 7.539062 171.191406 8.164062 L 171.191406 13.4375 L 172.558594 13.4375 Z M 172.558594 8.046875 "/>
<path style=" stroke:none;fill-rule:nonzero;fill:rgb(0%,0%,0%);fill-opacity:1;" d="M 180.972656 8.183594 C 180.972656 6.464844 179.742188 5.214844 178.0625 5.214844 C 176.988281 5.214844 176.1875 5.449219 175.308594 5.957031 L 175.40625 7.148438 C 176.207031 6.5625 177.027344 6.25 178.0625 6.25 C 178.882812 6.25 179.605469 6.914062 179.605469 8.222656 L 179.605469 8.964844 C 178.804688 8.984375 177.730469 9.042969 176.65625 9.394531 C 175.445312 9.824219 174.742188 10.488281 174.742188 11.367188 C 174.742188 12.167969 175.210938 13.613281 176.734375 13.613281 C 177.730469 13.613281 178.980469 13.320312 179.644531 12.773438 L 179.644531 13.4375 L 180.972656 13.4375 Z M 179.605469 11.035156 C 179.605469 11.386719 179.605469 11.816406 179.019531 12.1875 C 178.53125 12.480469 177.925781 12.539062 177.652344 12.539062 C 176.695312 12.539062 176.03125 12.011719 176.03125 11.367188 C 176.03125 10.136719 178.511719 9.863281 179.605469 9.863281 Z M 179.605469 11.035156 "/>
<path style=" stroke:none;fill-rule:nonzero;fill:rgb(0%,0%,0%);fill-opacity:1;" d="M 185.425781 6.523438 L 187.90625 6.523438 L 187.90625 5.46875 L 185.425781 5.46875 L 185.425781 3.203125 L 184.195312 3.203125 L 184.195312 5.46875 L 182.691406 5.46875 L 182.691406 6.523438 L 184.15625 6.523438 L 184.15625 11.347656 C 184.15625 12.382812 184.390625 13.613281 185.621094 13.613281 C 186.832031 13.613281 187.652344 13.203125 188.199219 12.910156 L 187.925781 11.875 C 187.300781 12.441406 186.636719 12.5 186.324219 12.5 C 185.523438 12.5 185.425781 11.660156 185.425781 11.035156 Z M 185.425781 6.523438 "/>
<path style=" stroke:none;fill-rule:nonzero;fill:rgb(0%,0%,0%);fill-opacity:1;" d="M 196.441406 1.269531 L 194.898438 1.269531 L 194.898438 2.8125 L 196.441406 2.8125 Z M 196.34375 5.46875 L 195.015625 5.46875 L 195.015625 13.4375 L 196.34375 13.4375 Z M 196.34375 5.46875 "/>
<path style=" stroke:none;fill-rule:nonzero;fill:rgb(0%,0%,0%);fill-opacity:1;" d="M 203.828125 5.761719 C 202.695312 5.234375 201.71875 5.214844 201.308594 5.214844 C 200.898438 5.214844 198.398438 5.214844 198.398438 7.539062 C 198.398438 8.320312 198.828125 8.867188 199.101562 9.121094 C 199.746094 9.667969 200.195312 9.765625 201.25 9.980469 C 201.855469 10.097656 202.890625 10.3125 202.890625 11.269531 C 202.890625 12.5 201.484375 12.5 201.230469 12.5 C 200.527344 12.5 199.472656 12.304688 198.515625 11.601562 L 198.300781 12.832031 C 198.378906 12.890625 199.609375 13.613281 201.25 13.613281 C 203.574219 13.613281 204.121094 12.226562 204.121094 11.152344 C 204.121094 10.253906 203.574219 9.667969 203.496094 9.589844 C 202.832031 8.90625 202.285156 8.789062 201.210938 8.574219 C 200.546875 8.457031 199.648438 8.28125 199.648438 7.382812 C 199.648438 6.269531 200.898438 6.269531 201.132812 6.269531 C 202.070312 6.269531 202.832031 6.484375 203.613281 6.933594 Z M 203.828125 5.761719 "/>
<path style=" stroke:none;fill-rule:nonzero;fill:rgb(0%,0%,0%);fill-opacity:1;" d="M 215.03125 17.792969 C 215.03125 17.734375 215.03125 17.695312 214.738281 17.402344 C 212.941406 15.585938 211.945312 12.636719 211.945312 8.964844 C 211.945312 5.488281 212.785156 2.5 214.855469 0.390625 C 215.03125 0.214844 215.03125 0.195312 215.03125 0.136719 C 215.03125 0.0195312 214.953125 0 214.875 0 C 214.640625 0 213.175781 1.289062 212.296875 3.046875 C 211.378906 4.84375 210.96875 6.777344 210.96875 8.964844 C 210.96875 10.566406 211.222656 12.695312 212.160156 14.628906 C 213.214844 16.777344 214.679688 17.929688 214.875 17.929688 C 214.953125 17.929688 215.03125 17.910156 215.03125 17.792969 Z M 215.03125 17.792969 "/>
<path style=" stroke:none;fill-rule:nonzero;fill:rgb(0%,0%,0%);fill-opacity:1;" d="M 224.101562 6.230469 C 224.472656 6.230469 224.609375 6.230469 224.609375 5.898438 C 224.609375 5.703125 224.472656 5.703125 224.140625 5.703125 L 222.695312 5.703125 C 223.027344 3.867188 223.28125 2.597656 223.4375 2.011719 C 223.535156 1.582031 223.90625 1.171875 224.375 1.171875 C 224.746094 1.171875 225.136719 1.328125 225.3125 1.503906 C 224.609375 1.5625 224.394531 2.089844 224.394531 2.402344 C 224.394531 2.753906 224.667969 2.96875 225 2.96875 C 225.371094 2.96875 225.898438 2.65625 225.898438 1.972656 C 225.898438 1.230469 225.15625 0.820312 224.355469 0.820312 C 223.59375 0.820312 222.832031 1.386719 222.480469 2.089844 C 222.148438 2.714844 221.972656 3.359375 221.5625 5.703125 L 220.371094 5.703125 C 220.019531 5.703125 219.84375 5.703125 219.84375 6.035156 C 219.84375 6.230469 219.941406 6.230469 220.3125 6.230469 L 221.464844 6.230469 C 221.132812 7.890625 220.390625 11.953125 219.980469 13.867188 C 219.6875 15.429688 219.414062 16.738281 218.515625 16.738281 C 218.457031 16.738281 217.949219 16.738281 217.617188 16.386719 C 218.535156 16.328125 218.535156 15.527344 218.535156 15.507812 C 218.535156 15.15625 218.261719 14.941406 217.929688 14.941406 C 217.558594 14.941406 217.03125 15.253906 217.03125 15.9375 C 217.03125 16.699219 217.8125 17.089844 218.515625 17.089844 C 220.351562 17.089844 221.09375 13.808594 221.289062 12.910156 C 221.621094 11.542969 222.5 6.777344 222.578125 6.230469 Z M 224.101562 6.230469 "/>
<path style=" stroke:none;fill-rule:nonzero;fill:rgb(0%,0%,0%);fill-opacity:1;" d="M 238.628906 8.964844 C 238.628906 7.03125 237.027344 5.46875 235.132812 5.46875 C 233.199219 5.46875 231.636719 7.070312 231.636719 8.964844 C 231.636719 10.859375 233.199219 12.441406 235.132812 12.441406 C 237.027344 12.441406 238.628906 10.878906 238.628906 8.964844 Z M 235.132812 11.71875 C 233.589844 11.71875 232.359375 10.46875 232.359375 8.964844 C 232.359375 7.441406 233.609375 6.191406 235.132812 6.191406 C 236.636719 6.191406 237.90625 7.421875 237.90625 8.964844 C 237.90625 10.488281 236.636719 11.71875 235.132812 11.71875 Z M 235.132812 11.71875 "/>
<path style=" stroke:none;fill-rule:nonzero;fill:rgb(0%,0%,0%);fill-opacity:1;" d="M 251.550781 6.230469 C 251.921875 6.230469 252.058594 6.230469 252.058594 5.898438 C 252.058594 5.703125 251.921875 5.703125 251.589844 5.703125 L 250.144531 5.703125 C 250.476562 3.867188 250.730469 2.597656 250.886719 2.011719 C 250.984375 1.582031 251.355469 1.171875 251.824219 1.171875 C 252.195312 1.171875 252.585938 1.328125 252.761719 1.503906 C 252.058594 1.5625 251.84375 2.089844 251.84375 2.402344 C 251.84375 2.753906 252.117188 2.96875 252.449219 2.96875 C 252.820312 2.96875 253.347656 2.65625 253.347656 1.972656 C 253.347656 1.230469 252.605469 0.820312 251.804688 0.820312 C 251.042969 0.820312 250.28125 1.386719 249.929688 2.089844 C 249.597656 2.714844 249.421875 3.359375 249.011719 5.703125 L 247.820312 5.703125 C 247.46875 5.703125 247.292969 5.703125 247.292969 6.035156 C 247.292969 6.230469 247.390625 6.230469 247.761719 6.230469 L 248.914062 6.230469 C 248.582031 7.890625 247.839844 11.953125 247.429688 13.867188 C 247.136719 15.429688 246.863281 16.738281 245.964844 16.738281 C 245.90625 16.738281 245.398438 16.738281 245.066406 16.386719 C 245.984375 16.328125 245.984375 15.527344 245.984375 15.507812 C 245.984375 15.15625 245.710938 14.941406 245.378906 14.941406 C 245.007812 14.941406 244.480469 15.253906 244.480469 15.9375 C 244.480469 16.699219 245.261719 17.089844 245.964844 17.089844 C 247.800781 17.089844 248.542969 13.808594 248.738281 12.910156 C 249.070312 11.542969 249.949219 6.777344 250.027344 6.230469 Z M 251.550781 6.230469 "/>
<path style=" stroke:none;fill-rule:nonzero;fill:rgb(0%,0%,0%);fill-opacity:1;" d="M 259.269531 8.964844 C 259.269531 7.617188 259.09375 5.390625 258.078125 3.300781 C 257.023438 1.152344 255.558594 0 255.363281 0 C 255.285156 0 255.1875 0.0195312 255.1875 0.136719 C 255.1875 0.195312 255.1875 0.214844 255.5 0.527344 C 257.296875 2.34375 258.292969 5.292969 258.292969 8.964844 C 258.292969 12.441406 257.453125 15.429688 255.382812 17.539062 C 255.1875 17.695312 255.1875 17.734375 255.1875 17.792969 C 255.1875 17.910156 255.285156 17.929688 255.363281 17.929688 C 255.597656 17.929688 257.0625 16.640625 257.941406 14.882812 C 258.859375 13.066406 259.269531 11.132812 259.269531 8.964844 Z M 259.269531 8.964844 "/>
<path style=" stroke:none;fill-rule:nonzero;fill:rgb(0%,0%,0%);fill-opacity:1;" d="M 269.78125 17.792969 C 269.78125 17.734375 269.78125 17.695312 269.488281 17.402344 C 267.691406 15.585938 266.695312 12.636719 266.695312 8.964844 C 266.695312 5.488281 267.535156 2.5 269.605469 0.390625 C 269.78125 0.214844 269.78125 0.195312 269.78125 0.136719 C 269.78125 0.0195312 269.703125 0 269.625 0 C 269.390625 0 267.925781 1.289062 267.046875 3.046875 C 266.128906 4.84375 265.71875 6.777344 265.71875 8.964844 C 265.71875 10.566406 265.972656 12.695312 266.910156 14.628906 C 267.964844 16.777344 269.429688 17.929688 269.625 17.929688 C 269.703125 17.929688 269.78125 17.910156 269.78125 17.792969 Z M 269.78125 17.792969 "/>
<path style=" stroke:none;fill-rule:nonzero;fill:rgb(0%,0%,0%);fill-opacity:1;" d="M 279.355469 6.113281 C 278.789062 6.230469 278.574219 6.660156 278.574219 6.992188 C 278.574219 7.421875 278.90625 7.578125 279.160156 7.578125 C 279.707031 7.578125 280.078125 7.109375 280.078125 6.621094 C 280.078125 5.878906 279.21875 5.527344 278.457031 5.527344 C 277.363281 5.527344 276.757812 6.601562 276.601562 6.953125 C 276.191406 5.605469 275.078125 5.527344 274.746094 5.527344 C 272.929688 5.527344 271.953125 7.871094 271.953125 8.28125 C 271.953125 8.339844 272.03125 8.4375 272.148438 8.4375 C 272.285156 8.4375 272.324219 8.320312 272.363281 8.261719 C 272.96875 6.269531 274.179688 5.898438 274.6875 5.898438 C 275.507812 5.898438 275.664062 6.640625 275.664062 7.070312 C 275.664062 7.460938 275.566406 7.871094 275.332031 8.730469 L 274.726562 11.191406 C 274.472656 12.265625 273.945312 13.261719 272.988281 13.261719 C 272.910156 13.261719 272.460938 13.261719 272.070312 13.027344 C 272.714844 12.890625 272.871094 12.363281 272.871094 12.148438 C 272.871094 11.796875 272.597656 11.582031 272.265625 11.582031 C 271.835938 11.582031 271.367188 11.953125 271.367188 12.519531 C 271.367188 13.28125 272.207031 13.613281 272.96875 13.613281 C 273.828125 13.613281 274.453125 12.929688 274.824219 12.207031 C 275.117188 13.261719 275.996094 13.613281 276.660156 13.613281 C 278.496094 13.613281 279.472656 11.269531 279.472656 10.878906 C 279.472656 10.78125 279.394531 10.703125 279.277344 10.703125 C 279.121094 10.703125 279.101562 10.800781 279.0625 10.9375 C 278.574219 12.519531 277.519531 13.261719 276.71875 13.261719 C 276.09375 13.261719 275.761719 12.792969 275.761719 12.050781 C 275.761719 11.660156 275.820312 11.367188 276.113281 10.195312 L 276.738281 7.753906 C 277.011719 6.679688 277.617188 5.898438 278.4375 5.898438 C 278.476562 5.898438 278.984375 5.898438 279.355469 6.113281 Z M 279.355469 6.113281 "/>
<path style=" stroke:none;fill-rule:nonzero;fill:rgb(0%,0%,0%);fill-opacity:1;" d="M 285.96875 8.964844 C 285.96875 7.617188 285.792969 5.390625 284.777344 3.300781 C 283.722656 1.152344 282.257812 0 282.0625 0 C 281.984375 0 281.886719 0.0195312 281.886719 0.136719 C 281.886719 0.195312 281.886719 0.214844 282.199219 0.527344 C 283.996094 2.34375 284.992188 5.292969 284.992188 8.964844 C 284.992188 12.441406 284.152344 15.429688 282.082031 17.539062 C 281.886719 17.695312 281.886719 17.734375 281.886719 17.792969 C 281.886719 17.910156 281.984375 17.929688 282.0625 17.929688 C 282.296875 17.929688 283.761719 16.640625 284.640625 14.882812 C 285.558594 13.066406 285.96875 11.132812 285.96875 8.964844 Z M 285.96875 8.964844 "/>
<path style=" stroke:none;fill-rule:nonzero;fill:rgb(0%,0%,0%);fill-opacity:1;" d="M 292.285156 9.472656 C 292.285156 7.558594 293.4375 6.289062 294.121094 5.722656 C 294.472656 5.429688 295.117188 4.824219 295.117188 3.59375 C 295.117188 2.207031 294.257812 0.820312 291.71875 0.820312 C 290.332031 0.820312 289.316406 1.367188 288.789062 1.757812 L 289.179688 2.871094 C 290.175781 1.972656 291.191406 1.894531 291.738281 1.894531 C 292.714844 1.894531 293.75 2.128906 293.75 3.574219 C 293.75 4.375 293.378906 4.726562 293.066406 4.980469 C 292.070312 5.859375 291.113281 7.421875 291.113281 9.414062 L 291.113281 10.332031 L 292.285156 10.332031 Z M 290.976562 13.4375 L 292.421875 13.4375 L 292.421875 11.992188 L 290.976562 11.992188 Z M 290.976562 13.4375 "/>
<path style=" stroke:none;fill-rule:nonzero;fill:rgb(0%,0%,0%);fill-opacity:1;" d="M 5.332031 56.492188 C 5.332031 56.433594 5.332031 56.394531 5.039062 56.101562 C 3.242188 54.285156 2.246094 51.335938 2.246094 47.664062 C 2.246094 44.1875 3.085938 41.199219 5.15625 39.089844 C 5.332031 38.914062 5.332031 38.894531 5.332031 38.835938 C 5.332031 38.71875 5.253906 38.699219 5.175781 38.699219 C 4.941406 38.699219 3.476562 39.988281 2.597656 41.746094 C 1.679688 43.542969 1.269531 45.476562 1.269531 47.664062 C 1.269531 49.265625 1.523438 51.394531 2.460938 53.328125 C 3.515625 55.476562 4.980469 56.628906 5.175781 56.628906 C 5.253906 56.628906 5.332031 56.609375 5.332031 56.492188 Z M 5.332031 56.492188 "/>
<path style=" stroke:none;fill-rule:nonzero;fill:rgb(0%,0%,0%);fill-opacity:1;" d="M 14.398438 44.929688 C 14.769531 44.929688 14.90625 44.929688 14.90625 44.597656 C 14.90625 44.402344 14.769531 44.402344 14.4375 44.402344 L 12.992188 44.402344 C 13.324219 42.566406 13.578125 41.296875 13.734375 40.710938 C 13.832031 40.28125 14.203125 39.871094 14.671875 39.871094 C 15.042969 39.871094 15.433594 40.027344 15.609375 40.203125 C 14.90625 40.261719 14.691406 40.789062 14.691406 41.101562 C 14.691406 41.453125 14.964844 41.667969 15.296875 41.667969 C 15.667969 41.667969 16.195312 41.355469 16.195312 40.671875 C 16.195312 39.929688 15.453125 39.519531 14.652344 39.519531 C 13.890625 39.519531 13.128906 40.085938 12.777344 40.789062 C 12.445312 41.414062 12.269531 42.058594 11.859375 44.402344 L 10.667969 44.402344 C 10.316406 44.402344 10.140625 44.402344 10.140625 44.734375 C 10.140625 44.929688 10.238281 44.929688 10.609375 44.929688 L 11.761719 44.929688 C 11.429688 46.589844 10.6875 50.652344 10.277344 52.566406 C 9.984375 54.128906 9.710938 55.4375 8.8125 55.4375 C 8.753906 55.4375 8.246094 55.4375 7.914062 55.085938 C 8.832031 55.027344 8.832031 54.226562 8.832031 54.207031 C 8.832031 53.855469 8.558594 53.640625 8.226562 53.640625 C 7.855469 53.640625 7.328125 53.953125 7.328125 54.636719 C 7.328125 55.398438 8.109375 55.789062 8.8125 55.789062 C 10.648438 55.789062 11.390625 52.507812 11.585938 51.609375 C 11.917969 50.242188 12.796875 45.476562 12.875 44.929688 Z M 14.398438 44.929688 "/>
<path style=" stroke:none;fill-rule:nonzero;fill:rgb(0%,0%,0%);fill-opacity:1;" d="M 28.929688 47.664062 C 28.929688 45.730469 27.328125 44.167969 25.433594 44.167969 C 23.5 44.167969 21.9375 45.769531 21.9375 47.664062 C 21.9375 49.558594 23.5 51.140625 25.433594 51.140625 C 27.328125 51.140625 28.929688 49.578125 28.929688 47.664062 Z M 25.433594 50.417969 C 23.890625 50.417969 22.660156 49.167969 22.660156 47.664062 C 22.660156 46.140625 23.910156 44.890625 25.433594 44.890625 C 26.9375 44.890625 28.207031 46.121094 28.207031 47.664062 C 28.207031 49.1875 26.9375 50.417969 25.433594 50.417969 Z M 25.433594 50.417969 "/>
<path style=" stroke:none;fill-rule:nonzero;fill:rgb(0%,0%,0%);fill-opacity:1;" d="M 41.851562 44.929688 C 42.222656 44.929688 42.359375 44.929688 42.359375 44.597656 C 42.359375 44.402344 42.222656 44.402344 41.890625 44.402344 L 40.445312 44.402344 C 40.777344 42.566406 41.03125 41.296875 41.1875 40.710938 C 41.285156 40.28125 41.65625 39.871094 42.125 39.871094 C 42.496094 39.871094 42.886719 40.027344 43.0625 40.203125 C 42.359375 40.261719 42.144531 40.789062 42.144531 41.101562 C 42.144531 41.453125 42.417969 41.667969 42.75 41.667969 C 43.121094 41.667969 43.648438 41.355469 43.648438 40.671875 C 43.648438 39.929688 42.90625 39.519531 42.105469 39.519531 C 41.34375 39.519531 40.582031 40.085938 40.230469 40.789062 C 39.898438 41.414062 39.722656 42.058594 39.3125 44.402344 L 38.121094 44.402344 C 37.769531 44.402344 37.59375 44.402344 37.59375 44.734375 C 37.59375 44.929688 37.691406 44.929688 38.0625 44.929688 L 39.214844 44.929688 C 38.882812 46.589844 38.140625 50.652344 37.730469 52.566406 C 37.4375 54.128906 37.164062 55.4375 36.265625 55.4375 C 36.207031 55.4375 35.699219 55.4375 35.367188 55.085938 C 36.285156 55.027344 36.285156 54.226562 36.285156 54.207031 C 36.285156 53.855469 36.011719 53.640625 35.679688 53.640625 C 35.308594 53.640625 34.78125 53.953125 34.78125 54.636719 C 34.78125 55.398438 35.5625 55.789062 36.265625 55.789062 C 38.101562 55.789062 38.84375 52.507812 39.039062 51.609375 C 39.371094 50.242188 40.25 45.476562 40.328125 44.929688 Z M 41.851562 44.929688 "/>
<path style=" stroke:none;fill-rule:nonzero;fill:rgb(0%,0%,0%);fill-opacity:1;" d="M 49.570312 47.664062 C 49.570312 46.316406 49.394531 44.089844 48.378906 42 C 47.324219 39.851562 45.859375 38.699219 45.664062 38.699219 C 45.585938 38.699219 45.488281 38.71875 45.488281 38.835938 C 45.488281 38.894531 45.488281 38.914062 45.800781 39.226562 C 47.597656 41.042969 48.59375 43.992188 48.59375 47.664062 C 48.59375 51.140625 47.753906 54.128906 45.683594 56.238281 C 45.488281 56.394531 45.488281 56.433594 45.488281 56.492188 C 45.488281 56.609375 45.585938 56.628906 45.664062 56.628906 C 45.898438 56.628906 47.363281 55.339844 48.242188 53.582031 C 49.160156 51.765625 49.570312 49.832031 49.570312 47.664062 Z M 49.570312 47.664062 "/>
<path style=" stroke:none;fill-rule:nonzero;fill:rgb(0%,0%,0%);fill-opacity:1;" d="M 60.082031 56.492188 C 60.082031 56.433594 60.082031 56.394531 59.789062 56.101562 C 57.992188 54.285156 56.996094 51.335938 56.996094 47.664062 C 56.996094 44.1875 57.835938 41.199219 59.90625 39.089844 C 60.082031 38.914062 60.082031 38.894531 60.082031 38.835938 C 60.082031 38.71875 60.003906 38.699219 59.925781 38.699219 C 59.691406 38.699219 58.226562 39.988281 57.347656 41.746094 C 56.429688 43.542969 56.019531 45.476562 56.019531 47.664062 C 56.019531 49.265625 56.273438 51.394531 57.210938 53.328125 C 58.265625 55.476562 59.730469 56.628906 59.925781 56.628906 C 60.003906 56.628906 60.082031 56.609375 60.082031 56.492188 Z M 60.082031 56.492188 "/>
<path style=" stroke:none;fill-rule:nonzero;fill:rgb(0%,0%,0%);fill-opacity:1;" d="M 69.65625 44.8125 C 69.089844 44.929688 68.875 45.359375 68.875 45.691406 C 68.875 46.121094 69.207031 46.277344 69.460938 46.277344 C 70.007812 46.277344 70.378906 45.808594 70.378906 45.320312 C 70.378906 44.578125 69.519531 44.226562 68.757812 44.226562 C 67.664062 44.226562 67.058594 45.300781 66.902344 45.652344 C 66.492188 44.304688 65.378906 44.226562 65.046875 44.226562 C 63.230469 44.226562 62.253906 46.570312 62.253906 46.980469 C 62.253906 47.039062 62.332031 47.136719 62.449219 47.136719 C 62.585938 47.136719 62.625 47.019531 62.664062 46.960938 C 63.269531 44.96875 64.480469 44.597656 64.988281 44.597656 C 65.808594 44.597656 65.964844 45.339844 65.964844 45.769531 C 65.964844 46.160156 65.867188 46.570312 65.632812 47.429688 L 65.027344 49.890625 C 64.773438 50.964844 64.246094 51.960938 63.289062 51.960938 C 63.210938 51.960938 62.761719 51.960938 62.371094 51.726562 C 63.015625 51.589844 63.171875 51.0625 63.171875 50.847656 C 63.171875 50.496094 62.898438 50.28125 62.566406 50.28125 C 62.136719 50.28125 61.667969 50.652344 61.667969 51.21875 C 61.667969 51.980469 62.507812 52.3125 63.269531 52.3125 C 64.128906 52.3125 64.753906 51.628906 65.125 50.90625 C 65.417969 51.960938 66.296875 52.3125 66.960938 52.3125 C 68.796875 52.3125 69.773438 49.96875 69.773438 49.578125 C 69.773438 49.480469 69.695312 49.402344 69.578125 49.402344 C 69.421875 49.402344 69.402344 49.5 69.363281 49.636719 C 68.875 51.21875 67.820312 51.960938 67.019531 51.960938 C 66.394531 51.960938 66.0625 51.492188 66.0625 50.75 C 66.0625 50.359375 66.121094 50.066406 66.414062 48.894531 L 67.039062 46.453125 C 67.3125 45.378906 67.917969 44.597656 68.738281 44.597656 C 68.777344 44.597656 69.285156 44.597656 69.65625 44.8125 Z M 69.65625 44.8125 "/>
<path style=" stroke:none;fill-rule:nonzero;fill:rgb(0%,0%,0%);fill-opacity:1;" d="M 76.269531 47.664062 C 76.269531 46.316406 76.09375 44.089844 75.078125 42 C 74.023438 39.851562 72.558594 38.699219 72.363281 38.699219 C 72.285156 38.699219 72.1875 38.71875 72.1875 38.835938 C 72.1875 38.894531 72.1875 38.914062 72.5 39.226562 C 74.296875 41.042969 75.292969 43.992188 75.292969 47.664062 C 75.292969 51.140625 74.453125 54.128906 72.382812 56.238281 C 72.1875 56.394531 72.1875 56.433594 72.1875 56.492188 C 72.1875 56.609375 72.285156 56.628906 72.363281 56.628906 C 72.597656 56.628906 74.0625 55.339844 74.941406 53.582031 C 75.859375 51.765625 76.269531 49.832031 76.269531 47.664062 Z M 76.269531 47.664062 "/>
<path style=" stroke:none;fill-rule:nonzero;fill:rgb(0%,0%,0%);fill-opacity:1;" d="M 95.019531 46.335938 C 95.273438 46.335938 95.585938 46.335938 95.585938 46.003906 C 95.585938 45.671875 95.273438 45.671875 95.019531 45.671875 L 84.453125 45.671875 C 84.199219 45.671875 83.886719 45.671875 83.886719 45.984375 C 83.886719 46.335938 84.179688 46.335938 84.453125 46.335938 Z M 95.019531 49.65625 C 95.273438 49.65625 95.585938 49.65625 95.585938 49.34375 C 95.585938 48.992188 95.273438 48.992188 95.019531 48.992188 L 84.453125 48.992188 C 84.199219 48.992188 83.886719 48.992188 83.886719 49.324219 C 83.886719 49.65625 84.179688 49.65625 84.453125 49.65625 Z M 95.019531 49.65625 "/>
<path style=" stroke:none;fill-rule:nonzero;fill:rgb(0%,0%,0%);fill-opacity:1;" d="M 109.5 44.929688 C 109.871094 44.929688 110.007812 44.929688 110.007812 44.597656 C 110.007812 44.402344 109.871094 44.402344 109.539062 44.402344 L 108.09375 44.402344 C 108.425781 42.566406 108.679688 41.296875 108.835938 40.710938 C 108.933594 40.28125 109.304688 39.871094 109.773438 39.871094 C 110.144531 39.871094 110.535156 40.027344 110.710938 40.203125 C 110.007812 40.261719 109.792969 40.789062 109.792969 41.101562 C 109.792969 41.453125 110.066406 41.667969 110.398438 41.667969 C 110.769531 41.667969 111.296875 41.355469 111.296875 40.671875 C 111.296875 39.929688 110.554688 39.519531 109.753906 39.519531 C 108.992188 39.519531 108.230469 40.085938 107.878906 40.789062 C 107.546875 41.414062 107.371094 42.058594 106.960938 44.402344 L 105.769531 44.402344 C 105.417969 44.402344 105.242188 44.402344 105.242188 44.734375 C 105.242188 44.929688 105.339844 44.929688 105.710938 44.929688 L 106.863281 44.929688 C 106.53125 46.589844 105.789062 50.652344 105.378906 52.566406 C 105.085938 54.128906 104.8125 55.4375 103.914062 55.4375 C 103.855469 55.4375 103.347656 55.4375 103.015625 55.085938 C 103.933594 55.027344 103.933594 54.226562 103.933594 54.207031 C 103.933594 53.855469 103.660156 53.640625 103.328125 53.640625 C 102.957031 53.640625 102.429688 53.953125 102.429688 54.636719 C 102.429688 55.398438 103.210938 55.789062 103.914062 55.789062 C 105.75 55.789062 106.492188 52.507812 106.6875 51.609375 C 107.019531 50.242188 107.898438 45.476562 107.976562 44.929688 Z M 109.5 44.929688 "/>
<path style=" stroke:none;fill-rule:nonzero;fill:rgb(0%,0%,0%);fill-opacity:1;" d="M 120.832031 56.492188 C 120.832031 56.433594 120.832031 56.394531 120.539062 56.101562 C 118.742188 54.285156 117.746094 51.335938 117.746094 47.664062 C 117.746094 44.1875 118.585938 41.199219 120.65625 39.089844 C 120.832031 38.914062 120.832031 38.894531 120.832031 38.835938 C 120.832031 38.71875 120.753906 38.699219 120.675781 38.699219 C 120.441406 38.699219 118.976562 39.988281 118.097656 41.746094 C 117.179688 43.542969 116.769531 45.476562 116.769531 47.664062 C 116.769531 49.265625 117.023438 51.394531 117.960938 53.328125 C 119.015625 55.476562 120.480469 56.628906 120.675781 56.628906 C 120.753906 56.628906 120.832031 56.609375 120.832031 56.492188 Z M 120.832031 56.492188 "/>
<path style=" stroke:none;fill-rule:nonzero;fill:rgb(0%,0%,0%);fill-opacity:1;" d="M 132.898438 44.929688 C 133.269531 44.929688 133.40625 44.929688 133.40625 44.597656 C 133.40625 44.402344 133.269531 44.402344 132.9375 44.402344 L 131.492188 44.402344 C 131.824219 42.566406 132.078125 41.296875 132.234375 40.710938 C 132.332031 40.28125 132.703125 39.871094 133.171875 39.871094 C 133.542969 39.871094 133.933594 40.027344 134.109375 40.203125 C 133.40625 40.261719 133.191406 40.789062 133.191406 41.101562 C 133.191406 41.453125 133.464844 41.667969 133.796875 41.667969 C 134.167969 41.667969 134.695312 41.355469 134.695312 40.671875 C 134.695312 39.929688 133.953125 39.519531 133.152344 39.519531 C 132.390625 39.519531 131.628906 40.085938 131.277344 40.789062 C 130.945312 41.414062 130.769531 42.058594 130.359375 44.402344 L 129.167969 44.402344 C 128.816406 44.402344 128.640625 44.402344 128.640625 44.734375 C 128.640625 44.929688 128.738281 44.929688 129.109375 44.929688 L 130.261719 44.929688 C 129.929688 46.589844 129.1875 50.652344 128.777344 52.566406 C 128.484375 54.128906 128.210938 55.4375 127.3125 55.4375 C 127.253906 55.4375 126.746094 55.4375 126.414062 55.085938 C 127.332031 55.027344 127.332031 54.226562 127.332031 54.207031 C 127.332031 53.855469 127.058594 53.640625 126.726562 53.640625 C 126.355469 53.640625 125.828125 53.953125 125.828125 54.636719 C 125.828125 55.398438 126.609375 55.789062 127.3125 55.789062 C 129.148438 55.789062 129.890625 52.507812 130.085938 51.609375 C 130.417969 50.242188 131.296875 45.476562 131.375 44.929688 Z M 132.898438 44.929688 "/>
<path style=" stroke:none;fill-rule:nonzero;fill:rgb(0%,0%,0%);fill-opacity:1;" d="M 141.382812 56.492188 C 141.382812 56.433594 141.382812 56.394531 141.089844 56.101562 C 139.292969 54.285156 138.296875 51.335938 138.296875 47.664062 C 138.296875 44.1875 139.136719 41.199219 141.207031 39.089844 C 141.382812 38.914062 141.382812 38.894531 141.382812 38.835938 C 141.382812 38.71875 141.304688 38.699219 141.226562 38.699219 C 140.992188 38.699219 139.527344 39.988281 138.648438 41.746094 C 137.730469 43.542969 137.320312 45.476562 137.320312 47.664062 C 137.320312 49.265625 137.574219 51.394531 138.511719 53.328125 C 139.566406 55.476562 141.03125 56.628906 141.226562 56.628906 C 141.304688 56.628906 141.382812 56.609375 141.382812 56.492188 Z M 141.382812 56.492188 "/>
<path style=" stroke:none;fill-rule:nonzero;fill:rgb(0%,0%,0%);fill-opacity:1;" d="M 150.957031 44.8125 C 150.390625 44.929688 150.175781 45.359375 150.175781 45.691406 C 150.175781 46.121094 150.507812 46.277344 150.761719 46.277344 C 151.308594 46.277344 151.679688 45.808594 151.679688 45.320312 C 151.679688 44.578125 150.820312 44.226562 150.058594 44.226562 C 148.964844 44.226562 148.359375 45.300781 148.203125 45.652344 C 147.792969 44.304688 146.679688 44.226562 146.347656 44.226562 C 144.53125 44.226562 143.554688 46.570312 143.554688 46.980469 C 143.554688 47.039062 143.632812 47.136719 143.75 47.136719 C 143.886719 47.136719 143.925781 47.019531 143.964844 46.960938 C 144.570312 44.96875 145.78125 44.597656 146.289062 44.597656 C 147.109375 44.597656 147.265625 45.339844 147.265625 45.769531 C 147.265625 46.160156 147.167969 46.570312 146.933594 47.429688 L 146.328125 49.890625 C 146.074219 50.964844 145.546875 51.960938 144.589844 51.960938 C 144.511719 51.960938 144.0625 51.960938 143.671875 51.726562 C 144.316406 51.589844 144.472656 51.0625 144.472656 50.847656 C 144.472656 50.496094 144.199219 50.28125 143.867188 50.28125 C 143.4375 50.28125 142.96875 50.652344 142.96875 51.21875 C 142.96875 51.980469 143.808594 52.3125 144.570312 52.3125 C 145.429688 52.3125 146.054688 51.628906 146.425781 50.90625 C 146.71875 51.960938 147.597656 52.3125 148.261719 52.3125 C 150.097656 52.3125 151.074219 49.96875 151.074219 49.578125 C 151.074219 49.480469 150.996094 49.402344 150.878906 49.402344 C 150.722656 49.402344 150.703125 49.5 150.664062 49.636719 C 150.175781 51.21875 149.121094 51.960938 148.320312 51.960938 C 147.695312 51.960938 147.363281 51.492188 147.363281 50.75 C 147.363281 50.359375 147.421875 50.066406 147.714844 48.894531 L 148.339844 46.453125 C 148.613281 45.378906 149.21875 44.597656 150.039062 44.597656 C 150.078125 44.597656 150.585938 44.597656 150.957031 44.8125 Z M 150.957031 44.8125 "/>
<path style=" stroke:none;fill-rule:nonzero;fill:rgb(0%,0%,0%);fill-opacity:1;" d="M 157.570312 47.664062 C 157.570312 46.316406 157.394531 44.089844 156.378906 42 C 155.324219 39.851562 153.859375 38.699219 153.664062 38.699219 C 153.585938 38.699219 153.488281 38.71875 153.488281 38.835938 C 153.488281 38.894531 153.488281 38.914062 153.800781 39.226562 C 155.597656 41.042969 156.59375 43.992188 156.59375 47.664062 C 156.59375 51.140625 155.753906 54.128906 153.683594 56.238281 C 153.488281 56.394531 153.488281 56.433594 153.488281 56.492188 C 153.488281 56.609375 153.585938 56.628906 153.664062 56.628906 C 153.898438 56.628906 155.363281 55.339844 156.242188 53.582031 C 157.160156 51.765625 157.570312 49.832031 157.570312 47.664062 Z M 157.570312 47.664062 "/>
<path style=" stroke:none;fill-rule:nonzero;fill:rgb(0%,0%,0%);fill-opacity:1;" d="M 167.46875 47.664062 C 167.46875 46.316406 167.292969 44.089844 166.277344 42 C 165.222656 39.851562 163.757812 38.699219 163.5625 38.699219 C 163.484375 38.699219 163.386719 38.71875 163.386719 38.835938 C 163.386719 38.894531 163.386719 38.914062 163.699219 39.226562 C 165.496094 41.042969 166.492188 43.992188 166.492188 47.664062 C 166.492188 51.140625 165.652344 54.128906 163.582031 56.238281 C 163.386719 56.394531 163.386719 56.433594 163.386719 56.492188 C 163.386719 56.609375 163.484375 56.628906 163.5625 56.628906 C 163.796875 56.628906 165.261719 55.339844 166.140625 53.582031 C 167.058594 51.765625 167.46875 49.832031 167.46875 47.664062 Z M 167.46875 47.664062 "/>
<path style=" stroke:none;fill-rule:nonzero;fill:rgb(0%,0%,0%);fill-opacity:1;" d="M 95.019531 83.6875 C 95.273438 83.6875 95.585938 83.6875 95.585938 83.355469 C 95.585938 83.023438 95.273438 83.023438 95.019531 83.023438 L 84.453125 83.023438 C 84.199219 83.023438 83.886719 83.023438 83.886719 83.335938 C 83.886719 83.6875 84.179688 83.6875 84.453125 83.6875 Z M 95.019531 87.007812 C 95.273438 87.007812 95.585938 87.007812 95.585938 86.695312 C 95.585938 86.34375 95.273438 86.34375 95.019531 86.34375 L 84.453125 86.34375 C 84.199219 86.34375 83.886719 86.34375 83.886719 86.675781 C 83.886719 87.007812 84.179688 87.007812 84.453125 87.007812 Z M 95.019531 87.007812 "/>
<path style=" stroke:none;fill-rule:nonzero;fill:rgb(0%,0%,0%);fill-opacity:1;" d="M 109.5 82.28125 C 109.871094 82.28125 110.007812 82.28125 110.007812 81.949219 C 110.007812 81.753906 109.871094 81.753906 109.539062 81.753906 L 108.09375 81.753906 C 108.425781 79.917969 108.679688 78.648438 108.835938 78.0625 C 108.933594 77.632812 109.304688 77.222656 109.773438 77.222656 C 110.144531 77.222656 110.535156 77.378906 110.710938 77.554688 C 110.007812 77.613281 109.792969 78.140625 109.792969 78.453125 C 109.792969 78.804688 110.066406 79.019531 110.398438 79.019531 C 110.769531 79.019531 111.296875 78.707031 111.296875 78.023438 C 111.296875 77.28125 110.554688 76.871094 109.753906 76.871094 C 108.992188 76.871094 108.230469 77.4375 107.878906 78.140625 C 107.546875 78.765625 107.371094 79.410156 106.960938 81.753906 L 105.769531 81.753906 C 105.417969 81.753906 105.242188 81.753906 105.242188 82.085938 C 105.242188 82.28125 105.339844 82.28125 105.710938 82.28125 L 106.863281 82.28125 C 106.53125 83.941406 105.789062 88.003906 105.378906 89.917969 C 105.085938 91.480469 104.8125 92.789062 103.914062 92.789062 C 103.855469 92.789062 103.347656 92.789062 103.015625 92.4375 C 103.933594 92.378906 103.933594 91.578125 103.933594 91.558594 C 103.933594 91.207031 103.660156 90.992188 103.328125 90.992188 C 102.957031 90.992188 102.429688 91.304688 102.429688 91.988281 C 102.429688 92.75 103.210938 93.140625 103.914062 93.140625 C 105.75 93.140625 106.492188 89.859375 106.6875 88.960938 C 107.019531 87.59375 107.898438 82.828125 107.976562 82.28125 Z M 109.5 82.28125 "/>
<path style=" stroke:none;fill-rule:nonzero;fill:rgb(0%,0%,0%);fill-opacity:1;" d="M 127.570312 106.246094 C 127.570312 106.1875 127.53125 106.148438 127.492188 106.089844 C 126.828125 105.425781 125.617188 104.234375 124.425781 102.300781 C 121.535156 97.671875 120.226562 91.832031 120.226562 84.9375 C 120.226562 80.113281 120.871094 73.882812 123.839844 68.550781 C 125.246094 65.992188 126.710938 64.527344 127.511719 63.746094 C 127.570312 63.6875 127.570312 63.648438 127.570312 63.589844 C 127.570312 63.414062 127.433594 63.414062 127.179688 63.414062 C 126.925781 63.414062 126.90625 63.414062 126.632812 63.6875 C 120.617188 69.15625 118.742188 77.359375 118.742188 84.917969 C 118.742188 91.96875 120.363281 99.058594 124.914062 104.429688 C 125.265625 104.839844 125.949219 105.5625 126.691406 106.226562 C 126.90625 106.441406 126.925781 106.441406 127.179688 106.441406 C 127.433594 106.441406 127.570312 106.441406 127.570312 106.246094 Z M 127.570312 106.246094 "/>
<path style=" stroke:none;fill-rule:nonzero;fill:rgb(0%,0%,0%);fill-opacity:1;" d="M 135.46875 65.851562 C 135.46875 65.421875 135.46875 65.421875 135.117188 65.421875 C 134.6875 65.890625 133.789062 66.554688 131.953125 66.554688 L 131.953125 67.082031 C 132.363281 67.082031 133.261719 67.082031 134.238281 66.613281 L 134.238281 75.949219 C 134.238281 76.59375 134.179688 76.808594 132.617188 76.808594 L 132.050781 76.808594 L 132.050781 77.335938 C 132.539062 77.296875 134.277344 77.296875 134.863281 77.296875 C 135.449219 77.296875 137.1875 77.296875 137.65625 77.335938 L 137.65625 76.808594 L 137.109375 76.808594 C 135.527344 76.808594 135.46875 76.59375 135.46875 75.949219 Z M 135.46875 65.851562 "/>
<path style=" stroke:none;fill-rule:nonzero;fill:rgb(0%,0%,0%);fill-opacity:1;" d="M 129.699219 84.550781 L 139.746094 84.550781 L 139.746094 85.304688 L 129.699219 85.304688 Z M 129.699219 84.550781 "/>
<path style=" stroke:none;fill-rule:nonzero;fill:rgb(0%,0%,0%);fill-opacity:1;" d="M 138.207031 94.464844 C 137.640625 94.582031 137.425781 95.011719 137.425781 95.34375 C 137.425781 95.773438 137.757812 95.929688 138.011719 95.929688 C 138.558594 95.929688 138.929688 95.460938 138.929688 94.972656 C 138.929688 94.230469 138.070312 93.878906 137.308594 93.878906 C 136.214844 93.878906 135.609375 94.953125 135.453125 95.304688 C 135.042969 93.957031 133.929688 93.878906 133.597656 93.878906 C 131.78125 93.878906 130.804688 96.222656 130.804688 96.632812 C 130.804688 96.691406 130.882812 96.789062 131 96.789062 C 131.136719 96.789062 131.175781 96.671875 131.214844 96.613281 C 131.820312 94.621094 133.03125 94.25 133.539062 94.25 C 134.359375 94.25 134.515625 94.992188 134.515625 95.421875 C 134.515625 95.8125 134.417969 96.222656 134.183594 97.082031 L 133.578125 99.542969 C 133.324219 100.617188 132.796875 101.613281 131.839844 101.613281 C 131.761719 101.613281 131.3125 101.613281 130.921875 101.378906 C 131.566406 101.242188 131.722656 100.714844 131.722656 100.5 C 131.722656 100.148438 131.449219 99.933594 131.117188 99.933594 C 130.6875 99.933594 130.21875 100.304688 130.21875 100.871094 C 130.21875 101.632812 131.058594 101.964844 131.820312 101.964844 C 132.679688 101.964844 133.304688 101.28125 133.675781 100.558594 C 133.96875 101.613281 134.847656 101.964844 135.511719 101.964844 C 137.347656 101.964844 138.324219 99.621094 138.324219 99.230469 C 138.324219 99.132812 138.246094 99.054688 138.128906 99.054688 C 137.972656 99.054688 137.953125 99.152344 137.914062 99.289062 C 137.425781 100.871094 136.371094 101.613281 135.570312 101.613281 C 134.945312 101.613281 134.613281 101.144531 134.613281 100.402344 C 134.613281 100.011719 134.671875 99.71875 134.964844 98.546875 L 135.589844 96.105469 C 135.863281 95.03125 136.46875 94.25 137.289062 94.25 C 137.328125 94.25 137.835938 94.25 138.207031 94.464844 Z M 138.207031 94.464844 "/>
<path style=" stroke:none;fill-rule:nonzero;fill:rgb(0%,0%,0%);fill-opacity:1;" d="M 150.714844 84.9375 C 150.714844 77.886719 149.09375 70.796875 144.542969 65.425781 C 144.191406 65.015625 143.507812 64.273438 142.765625 63.628906 C 142.550781 63.414062 142.511719 63.414062 142.257812 63.414062 C 142.042969 63.414062 141.886719 63.414062 141.886719 63.589844 C 141.886719 63.667969 141.964844 63.746094 142.003906 63.785156 C 142.628906 64.429688 143.820312 65.621094 145.03125 67.554688 C 147.921875 72.183594 149.230469 78.023438 149.230469 84.917969 C 149.230469 89.742188 148.585938 95.953125 145.617188 101.304688 C 144.210938 103.84375 142.707031 105.347656 141.964844 106.089844 C 141.925781 106.148438 141.886719 106.207031 141.886719 106.246094 C 141.886719 106.441406 142.042969 106.441406 142.257812 106.441406 C 142.511719 106.441406 142.550781 106.441406 142.824219 106.167969 C 148.820312 100.699219 150.714844 92.476562 150.714844 84.9375 Z M 150.714844 84.9375 "/>
<path style=" stroke:none;fill-rule:nonzero;fill:rgb(0%,0%,0%);fill-opacity:1;" d="M 171.519531 83.6875 C 171.773438 83.6875 172.085938 83.6875 172.085938 83.355469 C 172.085938 83.023438 171.773438 83.023438 171.519531 83.023438 L 160.953125 83.023438 C 160.699219 83.023438 160.386719 83.023438 160.386719 83.335938 C 160.386719 83.6875 160.679688 83.6875 160.953125 83.6875 Z M 171.519531 87.007812 C 171.773438 87.007812 172.085938 87.007812 172.085938 86.695312 C 172.085938 86.34375 171.773438 86.34375 171.519531 86.34375 L 160.953125 86.34375 C 160.699219 86.34375 160.386719 86.34375 160.386719 86.675781 C 160.386719 87.007812 160.679688 87.007812 160.953125 87.007812 Z M 171.519531 87.007812 "/>
<path style=" stroke:none;fill-rule:nonzero;fill:rgb(0%,0%,0%);fill-opacity:1;" d="M 185.417969 65.851562 C 185.417969 65.421875 185.417969 65.421875 185.066406 65.421875 C 184.636719 65.890625 183.738281 66.554688 181.902344 66.554688 L 181.902344 67.082031 C 182.3125 67.082031 183.210938 67.082031 184.1875 66.613281 L 184.1875 75.949219 C 184.1875 76.59375 184.128906 76.808594 182.566406 76.808594 L 182 76.808594 L 182 77.335938 C 182.488281 77.296875 184.226562 77.296875 184.8125 77.296875 C 185.398438 77.296875 187.136719 77.296875 187.605469 77.335938 L 187.605469 76.808594 L 187.058594 76.808594 C 185.476562 76.808594 185.417969 76.59375 185.417969 75.949219 Z M 185.417969 65.851562 "/>
<path style=" stroke:none;fill-rule:nonzero;fill:rgb(0%,0%,0%);fill-opacity:1;" d="M 179.496094 84.550781 L 189.699219 84.550781 L 189.699219 85.304688 L 179.496094 85.304688 Z M 179.496094 84.550781 "/>
<path style=" stroke:none;fill-rule:nonzero;fill:rgb(0%,0%,0%);fill-opacity:1;" d="M 185.132812 87.519531 C 185.132812 87.207031 185.132812 87.1875 184.839844 87.1875 C 184.058594 87.988281 182.964844 87.988281 182.574219 87.988281 L 182.574219 88.378906 C 182.828125 88.378906 183.550781 88.378906 184.195312 88.046875 L 184.195312 94.511719 C 184.195312 94.960938 184.15625 95.097656 183.042969 95.097656 L 182.652344 95.097656 L 182.652344 95.488281 C 183.082031 95.449219 184.15625 95.449219 184.664062 95.449219 C 185.152344 95.449219 186.246094 95.449219 186.675781 95.488281 L 186.675781 95.097656 L 186.285156 95.097656 C 185.152344 95.097656 185.132812 94.960938 185.132812 94.511719 Z M 185.132812 87.519531 "/>
<path style=" stroke:none;fill-rule:nonzero;fill:rgb(0%,0%,0%);fill-opacity:1;" d="M 180.996094 97.605469 L 188.199219 97.605469 L 188.199219 98.355469 L 180.996094 98.355469 Z M 180.996094 97.605469 "/>
<path style=" stroke:none;fill-rule:nonzero;fill:rgb(0%,0%,0%);fill-opacity:1;" d="M 185.171875 104.917969 C 185.25 104.605469 185.542969 103.453125 186.402344 103.453125 C 186.460938 103.453125 186.773438 103.453125 187.027344 103.609375 C 186.675781 103.6875 186.441406 103.980469 186.441406 104.292969 C 186.441406 104.488281 186.578125 104.722656 186.910156 104.722656 C 187.183594 104.722656 187.574219 104.507812 187.574219 104 C 187.574219 103.355469 186.851562 103.179688 186.421875 103.179688 C 185.699219 103.179688 185.269531 103.84375 185.113281 104.117188 C 184.800781 103.296875 184.136719 103.179688 183.765625 103.179688 C 182.476562 103.179688 181.753906 104.78125 181.753906 105.09375 C 181.753906 105.230469 181.890625 105.230469 181.910156 105.230469 C 182.007812 105.230469 182.046875 105.191406 182.066406 105.09375 C 182.496094 103.765625 183.316406 103.453125 183.746094 103.453125 C 183.980469 103.453125 184.410156 103.570312 184.410156 104.292969 C 184.410156 104.683594 184.195312 105.503906 183.746094 107.261719 C 183.550781 108.023438 183.101562 108.550781 182.554688 108.550781 C 182.476562 108.550781 182.203125 108.550781 181.929688 108.394531 C 182.242188 108.316406 182.515625 108.0625 182.515625 107.710938 C 182.515625 107.378906 182.242188 107.28125 182.066406 107.28125 C 181.675781 107.28125 181.382812 107.59375 181.382812 108.003906 C 181.382812 108.570312 181.988281 108.824219 182.535156 108.824219 C 183.375 108.824219 183.824219 107.945312 183.84375 107.886719 C 184 108.335938 184.449219 108.824219 185.191406 108.824219 C 186.480469 108.824219 187.183594 107.222656 187.183594 106.910156 C 187.183594 106.773438 187.085938 106.773438 187.046875 106.773438 C 186.929688 106.773438 186.910156 106.832031 186.871094 106.910156 C 186.460938 108.257812 185.621094 108.550781 185.230469 108.550781 C 184.742188 108.550781 184.546875 108.160156 184.546875 107.730469 C 184.546875 107.457031 184.605469 107.183594 184.742188 106.636719 Z M 185.171875 104.917969 "/>
<path style=" stroke:none;fill-rule:nonzero;fill:rgb(0%,0%,0%);fill-opacity:1;" d="M 208.269531 83.6875 C 208.523438 83.6875 208.835938 83.6875 208.835938 83.355469 C 208.835938 83.023438 208.523438 83.023438 208.269531 83.023438 L 197.703125 83.023438 C 197.449219 83.023438 197.136719 83.023438 197.136719 83.335938 C 197.136719 83.6875 197.429688 83.6875 197.703125 83.6875 Z M 208.269531 87.007812 C 208.523438 87.007812 208.835938 87.007812 208.835938 86.695312 C 208.835938 86.34375 208.523438 86.34375 208.269531 86.34375 L 197.703125 86.34375 C 197.449219 86.34375 197.136719 86.34375 197.136719 86.675781 C 197.136719 87.007812 197.429688 87.007812 197.703125 87.007812 Z M 208.269531 87.007812 "/>
<path style=" stroke:none;fill-rule:nonzero;fill:rgb(0%,0%,0%);fill-opacity:1;" d="M 223.257812 82.164062 C 222.691406 82.28125 222.476562 82.710938 222.476562 83.042969 C 222.476562 83.472656 222.808594 83.628906 223.0625 83.628906 C 223.609375 83.628906 223.980469 83.160156 223.980469 82.671875 C 223.980469 81.929688 223.121094 81.578125 222.359375 81.578125 C 221.265625 81.578125 220.660156 82.652344 220.503906 83.003906 C 220.09375 81.65625 218.980469 81.578125 218.648438 81.578125 C 216.832031 81.578125 215.855469 83.921875 215.855469 84.332031 C 215.855469 84.390625 215.933594 84.488281 216.050781 84.488281 C 216.1875 84.488281 216.226562 84.371094 216.265625 84.3125 C 216.871094 82.320312 218.082031 81.949219 218.589844 81.949219 C 219.410156 81.949219 219.566406 82.691406 219.566406 83.121094 C 219.566406 83.511719 219.46875 83.921875 219.234375 84.78125 L 218.628906 87.242188 C 218.375 88.316406 217.847656 89.3125 216.890625 89.3125 C 216.8125 89.3125 216.363281 89.3125 215.972656 89.078125 C 216.617188 88.941406 216.773438 88.414062 216.773438 88.199219 C 216.773438 87.847656 216.5 87.632812 216.167969 87.632812 C 215.738281 87.632812 215.269531 88.003906 215.269531 88.570312 C 215.269531 89.332031 216.109375 89.664062 216.871094 89.664062 C 217.730469 89.664062 218.355469 88.980469 218.726562 88.257812 C 219.019531 89.3125 219.898438 89.664062 220.5625 89.664062 C 222.398438 89.664062 223.375 87.320312 223.375 86.929688 C 223.375 86.832031 223.296875 86.753906 223.179688 86.753906 C 223.023438 86.753906 223.003906 86.851562 222.964844 86.988281 C 222.476562 88.570312 221.421875 89.3125 220.621094 89.3125 C 219.996094 89.3125 219.664062 88.84375 219.664062 88.101562 C 219.664062 87.710938 219.722656 87.417969 220.015625 86.246094 L 220.640625 83.804688 C 220.914062 82.730469 221.519531 81.949219 222.339844 81.949219 C 222.378906 81.949219 222.886719 81.949219 223.257812 82.164062 Z M 223.257812 82.164062 "/>
<path style=" stroke:none;fill-rule:nonzero;fill:rgb(0%,0%,0%);fill-opacity:1;" d="M 6.09375 136.746094 L 4.511719 136.746094 L 0 149.1875 L 1.328125 149.1875 L 2.636719 145.554688 L 7.695312 145.554688 L 9.023438 149.1875 L 10.605469 149.1875 Z M 5.15625 138.035156 L 7.304688 144.539062 L 3.027344 144.539062 Z M 5.15625 138.035156 "/>
<path style=" stroke:none;fill-rule:nonzero;fill:rgb(0%,0%,0%);fill-opacity:1;" d="M 18.660156 143.796875 C 18.660156 142.703125 18.425781 141.042969 16.257812 141.042969 C 15.261719 141.042969 14.402344 141.492188 13.71875 142.351562 L 13.71875 141.140625 L 12.449219 141.140625 L 12.449219 149.1875 L 13.796875 149.1875 L 13.796875 144.714844 C 13.796875 143.621094 14.226562 142.117188 15.574219 142.117188 C 17.253906 142.117188 17.292969 143.289062 17.292969 143.914062 L 17.292969 149.1875 L 18.660156 149.1875 Z M 18.660156 143.796875 "/>
<path style=" stroke:none;fill-rule:nonzero;fill:rgb(0%,0%,0%);fill-opacity:1;" d="M 27.640625 136.746094 L 26.3125 136.746094 L 26.3125 141.980469 C 25.492188 141.296875 24.554688 141.042969 23.792969 141.042969 C 22.09375 141.042969 20.6875 142.878906 20.6875 145.203125 C 20.6875 147.527344 22.015625 149.363281 23.714844 149.363281 C 24.378906 149.363281 25.394531 149.148438 26.292969 148.269531 L 26.292969 149.1875 L 27.640625 149.1875 Z M 26.292969 147.078125 C 25.863281 147.839844 25.21875 148.289062 24.4375 148.289062 C 23.34375 148.289062 22.054688 147.449219 22.054688 145.222656 C 22.054688 142.839844 23.578125 142.117188 24.613281 142.117188 C 25.316406 142.117188 25.882812 142.488281 26.292969 143.074219 Z M 26.292969 147.078125 "/>
<path style=" stroke:none;fill-rule:nonzero;fill:rgb(0%,0%,0%);fill-opacity:1;" d="M 41.078125 141.511719 C 39.945312 140.984375 38.96875 140.964844 38.558594 140.964844 C 38.148438 140.964844 35.648438 140.964844 35.648438 143.289062 C 35.648438 144.070312 36.078125 144.617188 36.351562 144.871094 C 36.996094 145.417969 37.445312 145.515625 38.5 145.730469 C 39.105469 145.847656 40.140625 146.0625 40.140625 147.019531 C 40.140625 148.25 38.734375 148.25 38.480469 148.25 C 37.777344 148.25 36.722656 148.054688 35.765625 147.351562 L 35.550781 148.582031 C 35.628906 148.640625 36.859375 149.363281 38.5 149.363281 C 40.824219 149.363281 41.371094 147.976562 41.371094 146.902344 C 41.371094 146.003906 40.824219 145.417969 40.746094 145.339844 C 40.082031 144.65625 39.535156 144.539062 38.460938 144.324219 C 37.796875 144.207031 36.898438 144.03125 36.898438 143.132812 C 36.898438 142.019531 38.148438 142.019531 38.382812 142.019531 C 39.320312 142.019531 40.082031 142.234375 40.863281 142.683594 Z M 41.078125 141.511719 "/>
<path style=" stroke:none;fill-rule:nonzero;fill:rgb(0%,0%,0%);fill-opacity:1;" d="M 50.035156 145.242188 C 50.035156 142.820312 48.257812 140.964844 46.207031 140.964844 C 44.097656 140.964844 42.359375 142.859375 42.359375 145.242188 C 42.359375 147.585938 44.136719 149.363281 46.1875 149.363281 C 48.296875 149.363281 50.035156 147.546875 50.035156 145.242188 Z M 46.207031 148.25 C 44.917969 148.25 43.707031 147.175781 43.707031 145.066406 C 43.707031 142.898438 45.054688 142.039062 46.1875 142.039062 C 47.417969 142.039062 48.6875 142.957031 48.6875 145.066406 C 48.6875 147.273438 47.398438 148.25 46.207031 148.25 Z M 46.207031 148.25 "/>
<path style=" stroke:none;fill-rule:nonzero;fill:rgb(0%,0%,0%);fill-opacity:1;" d="M 53.824219 149.167969 L 53.824219 147.742188 L 52.359375 147.742188 L 52.359375 149.1875 L 52.808594 149.1875 L 52.359375 151.433594 L 53.082031 151.433594 Z M 53.824219 149.167969 "/>
<path style=" stroke:none;fill-rule:nonzero;fill:rgb(0%,0%,0%);fill-opacity:1;" d="M 64.144531 137.019531 L 62.601562 137.019531 L 62.601562 138.5625 L 64.144531 138.5625 Z M 64.046875 141.21875 L 62.71875 141.21875 L 62.71875 149.1875 L 64.046875 149.1875 Z M 64.046875 141.21875 "/>
<path style=" stroke:none;fill-rule:nonzero;fill:rgb(0%,0%,0%);fill-opacity:1;" d="M 68.617188 142.273438 L 70.53125 142.273438 L 70.53125 141.21875 L 68.578125 141.21875 L 68.578125 139.070312 C 68.578125 137.859375 69.59375 137.644531 70.199219 137.644531 C 70.824219 137.644531 71.371094 137.839844 71.585938 137.917969 L 71.585938 136.746094 C 71.46875 136.707031 70.863281 136.570312 70.21875 136.570312 C 68.5 136.570312 67.289062 137.878906 67.289062 139.617188 L 67.289062 141.21875 L 65.980469 141.21875 L 65.980469 142.273438 L 67.289062 142.273438 L 67.289062 149.1875 L 68.617188 149.1875 Z M 68.617188 142.273438 "/>
<path style=" stroke:none;fill-rule:nonzero;fill:rgb(0%,0%,0%);fill-opacity:1;" d="M 82.433594 153.542969 C 82.433594 153.484375 82.433594 153.445312 82.140625 153.152344 C 80.34375 151.335938 79.347656 148.386719 79.347656 144.714844 C 79.347656 141.238281 80.1875 138.25 82.257812 136.140625 C 82.433594 135.964844 82.433594 135.945312 82.433594 135.886719 C 82.433594 135.769531 82.355469 135.75 82.277344 135.75 C 82.042969 135.75 80.578125 137.039062 79.699219 138.796875 C 78.78125 140.59375 78.371094 142.527344 78.371094 144.714844 C 78.371094 146.316406 78.625 148.445312 79.5625 150.378906 C 80.617188 152.527344 82.082031 153.679688 82.277344 153.679688 C 82.355469 153.679688 82.433594 153.660156 82.433594 153.542969 Z M 82.433594 153.542969 "/>
<path style=" stroke:none;fill-rule:nonzero;fill:rgb(0%,0%,0%);fill-opacity:1;" d="M 91.351562 141.980469 C 91.722656 141.980469 91.859375 141.980469 91.859375 141.648438 C 91.859375 141.453125 91.722656 141.453125 91.390625 141.453125 L 89.945312 141.453125 C 90.277344 139.617188 90.53125 138.347656 90.6875 137.761719 C 90.785156 137.332031 91.15625 136.921875 91.625 136.921875 C 91.996094 136.921875 92.386719 137.078125 92.5625 137.253906 C 91.859375 137.3125 91.644531 137.839844 91.644531 138.152344 C 91.644531 138.503906 91.917969 138.71875 92.25 138.71875 C 92.621094 138.71875 93.148438 138.40625 93.148438 137.722656 C 93.148438 136.980469 92.40625 136.570312 91.605469 136.570312 C 90.84375 136.570312 90.082031 137.136719 89.730469 137.839844 C 89.398438 138.464844 89.222656 139.109375 88.8125 141.453125 L 87.621094 141.453125 C 87.269531 141.453125 87.09375 141.453125 87.09375 141.785156 C 87.09375 141.980469 87.191406 141.980469 87.5625 141.980469 L 88.714844 141.980469 C 88.382812 143.640625 87.640625 147.703125 87.230469 149.617188 C 86.9375 151.179688 86.664062 152.488281 85.765625 152.488281 C 85.707031 152.488281 85.199219 152.488281 84.867188 152.136719 C 85.785156 152.078125 85.785156 151.277344 85.785156 151.257812 C 85.785156 150.90625 85.511719 150.691406 85.179688 150.691406 C 84.808594 150.691406 84.28125 151.003906 84.28125 151.6875 C 84.28125 152.449219 85.0625 152.839844 85.765625 152.839844 C 87.601562 152.839844 88.34375 149.558594 88.539062 148.660156 C 88.871094 147.292969 89.75 142.527344 89.828125 141.980469 Z M 91.351562 141.980469 "/>
<path style=" stroke:none;fill-rule:nonzero;fill:rgb(0%,0%,0%);fill-opacity:1;" d="M 106.03125 144.714844 C 106.03125 142.78125 104.429688 141.21875 102.535156 141.21875 C 100.601562 141.21875 99.039062 142.820312 99.039062 144.714844 C 99.039062 146.609375 100.601562 148.191406 102.535156 148.191406 C 104.429688 148.191406 106.03125 146.628906 106.03125 144.714844 Z M 102.535156 147.46875 C 100.992188 147.46875 99.761719 146.21875 99.761719 144.714844 C 99.761719 143.191406 101.011719 141.941406 102.535156 141.941406 C 104.039062 141.941406 105.308594 143.171875 105.308594 144.714844 C 105.308594 146.238281 104.039062 147.46875 102.535156 147.46875 Z M 102.535156 147.46875 "/>
<path style=" stroke:none;fill-rule:nonzero;fill:rgb(0%,0%,0%);fill-opacity:1;" d="M 118.949219 141.980469 C 119.320312 141.980469 119.457031 141.980469 119.457031 141.648438 C 119.457031 141.453125 119.320312 141.453125 118.988281 141.453125 L 117.542969 141.453125 C 117.875 139.617188 118.128906 138.347656 118.285156 137.761719 C 118.382812 137.332031 118.753906 136.921875 119.222656 136.921875 C 119.59375 136.921875 119.984375 137.078125 120.160156 137.253906 C 119.457031 137.3125 119.242188 137.839844 119.242188 138.152344 C 119.242188 138.503906 119.515625 138.71875 119.847656 138.71875 C 120.21875 138.71875 120.746094 138.40625 120.746094 137.722656 C 120.746094 136.980469 120.003906 136.570312 119.203125 136.570312 C 118.441406 136.570312 117.679688 137.136719 117.328125 137.839844 C 116.996094 138.464844 116.820312 139.109375 116.410156 141.453125 L 115.21875 141.453125 C 114.867188 141.453125 114.691406 141.453125 114.691406 141.785156 C 114.691406 141.980469 114.789062 141.980469 115.160156 141.980469 L 116.3125 141.980469 C 115.980469 143.640625 115.238281 147.703125 114.828125 149.617188 C 114.535156 151.179688 114.261719 152.488281 113.363281 152.488281 C 113.304688 152.488281 112.796875 152.488281 112.464844 152.136719 C 113.382812 152.078125 113.382812 151.277344 113.382812 151.257812 C 113.382812 150.90625 113.109375 150.691406 112.777344 150.691406 C 112.40625 150.691406 111.878906 151.003906 111.878906 151.6875 C 111.878906 152.449219 112.660156 152.839844 113.363281 152.839844 C 115.199219 152.839844 115.941406 149.558594 116.136719 148.660156 C 116.46875 147.292969 117.347656 142.527344 117.425781 141.980469 Z M 118.949219 141.980469 "/>
<path style=" stroke:none;fill-rule:nonzero;fill:rgb(0%,0%,0%);fill-opacity:1;" d="M 126.671875 144.714844 C 126.671875 143.367188 126.496094 141.140625 125.480469 139.050781 C 124.425781 136.902344 122.960938 135.75 122.765625 135.75 C 122.6875 135.75 122.589844 135.769531 122.589844 135.886719 C 122.589844 135.945312 122.589844 135.964844 122.902344 136.277344 C 124.699219 138.09375 125.695312 141.042969 125.695312 144.714844 C 125.695312 148.191406 124.855469 151.179688 122.785156 153.289062 C 122.589844 153.445312 122.589844 153.484375 122.589844 153.542969 C 122.589844 153.660156 122.6875 153.679688 122.765625 153.679688 C 123 153.679688 124.464844 152.390625 125.34375 150.632812 C 126.261719 148.816406 126.671875 146.882812 126.671875 144.714844 Z M 126.671875 144.714844 "/>
<path style=" stroke:none;fill-rule:nonzero;fill:rgb(0%,0%,0%);fill-opacity:1;" d="M 137.183594 153.542969 C 137.183594 153.484375 137.183594 153.445312 136.890625 153.152344 C 135.09375 151.335938 134.097656 148.386719 134.097656 144.714844 C 134.097656 141.238281 134.9375 138.25 137.007812 136.140625 C 137.183594 135.964844 137.183594 135.945312 137.183594 135.886719 C 137.183594 135.769531 137.105469 135.75 137.027344 135.75 C 136.792969 135.75 135.328125 137.039062 134.449219 138.796875 C 133.53125 140.59375 133.121094 142.527344 133.121094 144.714844 C 133.121094 146.316406 133.375 148.445312 134.3125 150.378906 C 135.367188 152.527344 136.832031 153.679688 137.027344 153.679688 C 137.105469 153.679688 137.183594 153.660156 137.183594 153.542969 Z M 137.183594 153.542969 "/>
<path style=" stroke:none;fill-rule:nonzero;fill:rgb(0%,0%,0%);fill-opacity:1;" d="M 146.757812 141.863281 C 146.191406 141.980469 145.976562 142.410156 145.976562 142.742188 C 145.976562 143.171875 146.308594 143.328125 146.5625 143.328125 C 147.109375 143.328125 147.480469 142.859375 147.480469 142.371094 C 147.480469 141.628906 146.621094 141.277344 145.859375 141.277344 C 144.765625 141.277344 144.160156 142.351562 144.003906 142.703125 C 143.59375 141.355469 142.480469 141.277344 142.148438 141.277344 C 140.332031 141.277344 139.355469 143.621094 139.355469 144.03125 C 139.355469 144.089844 139.433594 144.1875 139.550781 144.1875 C 139.6875 144.1875 139.726562 144.070312 139.765625 144.011719 C 140.371094 142.019531 141.582031 141.648438 142.089844 141.648438 C 142.910156 141.648438 143.066406 142.390625 143.066406 142.820312 C 143.066406 143.210938 142.96875 143.621094 142.734375 144.480469 L 142.128906 146.941406 C 141.875 148.015625 141.347656 149.011719 140.390625 149.011719 C 140.3125 149.011719 139.863281 149.011719 139.472656 148.777344 C 140.117188 148.640625 140.273438 148.113281 140.273438 147.898438 C 140.273438 147.546875 140 147.332031 139.667969 147.332031 C 139.238281 147.332031 138.769531 147.703125 138.769531 148.269531 C 138.769531 149.03125 139.609375 149.363281 140.371094 149.363281 C 141.230469 149.363281 141.855469 148.679688 142.226562 147.957031 C 142.519531 149.011719 143.398438 149.363281 144.0625 149.363281 C 145.898438 149.363281 146.875 147.019531 146.875 146.628906 C 146.875 146.53125 146.796875 146.453125 146.679688 146.453125 C 146.523438 146.453125 146.503906 146.550781 146.464844 146.6875 C 145.976562 148.269531 144.921875 149.011719 144.121094 149.011719 C 143.496094 149.011719 143.164062 148.542969 143.164062 147.800781 C 143.164062 147.410156 143.222656 147.117188 143.515625 145.945312 L 144.140625 143.503906 C 144.414062 142.429688 145.019531 141.648438 145.839844 141.648438 C 145.878906 141.648438 146.386719 141.648438 146.757812 141.863281 Z M 146.757812 141.863281 "/>
<path style=" stroke:none;fill-rule:nonzero;fill:rgb(0%,0%,0%);fill-opacity:1;" d="M 153.371094 144.714844 C 153.371094 143.367188 153.195312 141.140625 152.179688 139.050781 C 151.125 136.902344 149.660156 135.75 149.464844 135.75 C 149.386719 135.75 149.289062 135.769531 149.289062 135.886719 C 149.289062 135.945312 149.289062 135.964844 149.601562 136.277344 C 151.398438 138.09375 152.394531 141.042969 152.394531 144.714844 C 152.394531 148.191406 151.554688 151.179688 149.484375 153.289062 C 149.289062 153.445312 149.289062 153.484375 149.289062 153.542969 C 149.289062 153.660156 149.386719 153.679688 149.464844 153.679688 C 149.699219 153.679688 151.164062 152.390625 152.042969 150.632812 C 152.960938 148.816406 153.371094 146.882812 153.371094 144.714844 Z M 153.371094 144.714844 "/>
<path style=" stroke:none;fill-rule:nonzero;fill:rgb(0%,0%,0%);fill-opacity:1;" d="M 172.121094 143.386719 C 172.375 143.386719 172.6875 143.386719 172.6875 143.054688 C 172.6875 142.722656 172.375 142.722656 172.121094 142.722656 L 161.554688 142.722656 C 161.300781 142.722656 160.988281 142.722656 160.988281 143.035156 C 160.988281 143.386719 161.28125 143.386719 161.554688 143.386719 Z M 172.121094 146.707031 C 172.375 146.707031 172.6875 146.707031 172.6875 146.394531 C 172.6875 146.042969 172.375 146.042969 172.121094 146.042969 L 161.554688 146.042969 C 161.300781 146.042969 160.988281 146.042969 160.988281 146.375 C 160.988281 146.707031 161.28125 146.707031 161.554688 146.707031 Z M 172.121094 146.707031 "/>
<path style=" stroke:none;fill-rule:nonzero;fill:rgb(0%,0%,0%);fill-opacity:1;" d="M 187.105469 141.863281 C 186.539062 141.980469 186.324219 142.410156 186.324219 142.742188 C 186.324219 143.171875 186.65625 143.328125 186.910156 143.328125 C 187.457031 143.328125 187.828125 142.859375 187.828125 142.371094 C 187.828125 141.628906 186.96875 141.277344 186.207031 141.277344 C 185.113281 141.277344 184.507812 142.351562 184.351562 142.703125 C 183.941406 141.355469 182.828125 141.277344 182.496094 141.277344 C 180.679688 141.277344 179.703125 143.621094 179.703125 144.03125 C 179.703125 144.089844 179.78125 144.1875 179.898438 144.1875 C 180.035156 144.1875 180.074219 144.070312 180.113281 144.011719 C 180.71875 142.019531 181.929688 141.648438 182.4375 141.648438 C 183.257812 141.648438 183.414062 142.390625 183.414062 142.820312 C 183.414062 143.210938 183.316406 143.621094 183.082031 144.480469 L 182.476562 146.941406 C 182.222656 148.015625 181.695312 149.011719 180.738281 149.011719 C 180.660156 149.011719 180.210938 149.011719 179.820312 148.777344 C 180.464844 148.640625 180.621094 148.113281 180.621094 147.898438 C 180.621094 147.546875 180.347656 147.332031 180.015625 147.332031 C 179.585938 147.332031 179.117188 147.703125 179.117188 148.269531 C 179.117188 149.03125 179.957031 149.363281 180.71875 149.363281 C 181.578125 149.363281 182.203125 148.679688 182.574219 147.957031 C 182.867188 149.011719 183.746094 149.363281 184.410156 149.363281 C 186.246094 149.363281 187.222656 147.019531 187.222656 146.628906 C 187.222656 146.53125 187.144531 146.453125 187.027344 146.453125 C 186.871094 146.453125 186.851562 146.550781 186.8125 146.6875 C 186.324219 148.269531 185.269531 149.011719 184.46875 149.011719 C 183.84375 149.011719 183.511719 148.542969 183.511719 147.800781 C 183.511719 147.410156 183.570312 147.117188 183.863281 145.945312 L 184.488281 143.503906 C 184.761719 142.429688 185.367188 141.648438 186.1875 141.648438 C 186.226562 141.648438 186.734375 141.648438 187.105469 141.863281 Z M 187.105469 141.863281 "/>
<path style=" stroke:none;fill-rule:nonzero;fill:rgb(0%,0%,0%);fill-opacity:1;" d="M 191.824219 149.167969 L 191.824219 147.742188 L 190.359375 147.742188 L 190.359375 149.1875 L 190.808594 149.1875 L 190.359375 151.433594 L 191.082031 151.433594 Z M 191.824219 149.167969 "/>
<path style=" stroke:none;fill-rule:nonzero;fill:rgb(0%,0%,0%);fill-opacity:1;" d="M 202.378906 142.273438 L 204.859375 142.273438 L 204.859375 141.21875 L 202.378906 141.21875 L 202.378906 138.953125 L 201.148438 138.953125 L 201.148438 141.21875 L 199.644531 141.21875 L 199.644531 142.273438 L 201.109375 142.273438 L 201.109375 147.097656 C 201.109375 148.132812 201.34375 149.363281 202.574219 149.363281 C 203.785156 149.363281 204.605469 148.953125 205.152344 148.660156 L 204.878906 147.625 C 204.253906 148.191406 203.589844 148.25 203.277344 148.25 C 202.476562 148.25 202.378906 147.410156 202.378906 146.785156 Z M 202.378906 142.273438 "/>
<path style=" stroke:none;fill-rule:nonzero;fill:rgb(0%,0%,0%);fill-opacity:1;" d="M 213.207031 143.796875 C 213.207031 142.703125 212.972656 141.042969 210.804688 141.042969 C 209.574219 141.042969 208.753906 141.746094 208.324219 142.292969 L 208.324219 136.746094 L 206.996094 136.746094 L 206.996094 149.1875 L 208.34375 149.1875 L 208.34375 144.714844 C 208.34375 143.621094 208.773438 142.117188 210.121094 142.117188 C 211.800781 142.117188 211.839844 143.289062 211.839844 143.914062 L 211.839844 149.1875 L 213.207031 149.1875 Z M 213.207031 143.796875 "/>
<path style=" stroke:none;fill-rule:nonzero;fill:rgb(0%,0%,0%);fill-opacity:1;" d="M 221.914062 145.144531 C 221.914062 144.382812 221.835938 143.289062 221.269531 142.332031 C 220.527344 141.101562 219.277344 140.964844 218.75 140.964844 C 216.816406 140.964844 215.195312 142.820312 215.195312 145.144531 C 215.195312 147.527344 216.914062 149.363281 219.003906 149.363281 C 219.824219 149.363281 220.820312 149.128906 221.796875 148.425781 C 221.796875 148.347656 221.738281 147.78125 221.738281 147.761719 C 221.71875 147.742188 221.699219 147.332031 221.699219 147.273438 C 220.625 148.171875 219.570312 148.289062 219.042969 148.289062 C 217.65625 148.289062 216.464844 147.058594 216.445312 145.144531 Z M 216.542969 144.1875 C 216.855469 142.976562 217.695312 142.039062 218.75 142.039062 C 219.316406 142.039062 220.546875 142.292969 220.839844 144.1875 Z M 216.542969 144.1875 "/>
<path style=" stroke:none;fill-rule:nonzero;fill:rgb(0%,0%,0%);fill-opacity:1;" d="M 230.007812 143.796875 C 230.007812 142.703125 229.773438 141.042969 227.605469 141.042969 C 226.609375 141.042969 225.75 141.492188 225.066406 142.351562 L 225.066406 141.140625 L 223.796875 141.140625 L 223.796875 149.1875 L 225.144531 149.1875 L 225.144531 144.714844 C 225.144531 143.621094 225.574219 142.117188 226.921875 142.117188 C 228.601562 142.117188 228.640625 143.289062 228.640625 143.914062 L 228.640625 149.1875 L 230.007812 149.1875 Z M 230.007812 143.796875 "/>
<path style=" stroke:none;fill-rule:nonzero;fill:rgb(0%,0%,0%);fill-opacity:1;" d="M 67.785156 172.746094 C 67.804688 172.667969 67.84375 172.570312 67.84375 172.472656 C 67.84375 172.296875 67.648438 172.296875 67.609375 172.296875 C 67.609375 172.296875 66.730469 172.375 66.632812 172.375 C 66.320312 172.394531 66.066406 172.433594 65.734375 172.453125 C 65.285156 172.492188 65.167969 172.511719 65.167969 172.824219 C 65.167969 173.019531 65.304688 173.019531 65.558594 173.019531 C 66.4375 173.019531 66.457031 173.175781 66.457031 173.351562 C 66.457031 173.46875 66.417969 173.605469 66.398438 173.664062 L 65.304688 178.019531 C 65.109375 177.550781 64.621094 176.828125 63.683594 176.828125 C 61.671875 176.828125 59.484375 179.445312 59.484375 182.101562 C 59.484375 183.878906 60.519531 184.914062 61.730469 184.914062 C 62.726562 184.914062 63.566406 184.152344 64.074219 183.546875 C 64.25 184.621094 65.089844 184.914062 65.636719 184.914062 C 66.164062 184.914062 66.59375 184.601562 66.925781 183.957031 C 67.199219 183.332031 67.453125 182.238281 67.453125 182.179688 C 67.453125 182.082031 67.394531 182.003906 67.277344 182.003906 C 67.121094 182.003906 67.101562 182.101562 67.023438 182.375 C 66.75 183.429688 66.417969 184.5625 65.675781 184.5625 C 65.167969 184.5625 65.128906 184.09375 65.128906 183.742188 C 65.128906 183.664062 65.128906 183.292969 65.246094 182.785156 Z M 64.152344 182.609375 C 64.074219 182.902344 64.074219 182.941406 63.820312 183.292969 C 63.429688 183.78125 62.628906 184.5625 61.789062 184.5625 C 61.066406 184.5625 60.636719 183.898438 60.636719 182.84375 C 60.636719 181.847656 61.203125 179.835938 61.535156 179.09375 C 62.160156 177.84375 63 177.199219 63.683594 177.199219 C 64.875 177.199219 65.109375 178.664062 65.109375 178.800781 C 65.109375 178.820312 65.050781 179.054688 65.03125 179.09375 Z M 64.152344 182.609375 "/>
<path style=" stroke:none;fill-rule:nonzero;fill:rgb(0%,0%,0%);fill-opacity:1;" d="M 53.648438 192.101562 L 72.847656 192.101562 L 72.847656 192.851562 L 53.648438 192.851562 Z M 53.648438 192.101562 "/>
<path style=" stroke:none;fill-rule:nonzero;fill:rgb(0%,0%,0%);fill-opacity:1;" d="M 62.683594 197.195312 C 62.703125 197.117188 62.742188 197.019531 62.742188 196.921875 C 62.742188 196.746094 62.546875 196.746094 62.507812 196.746094 C 62.507812 196.746094 61.628906 196.824219 61.53125 196.824219 C 61.21875 196.84375 60.964844 196.882812 60.632812 196.902344 C 60.183594 196.941406 60.066406 196.960938 60.066406 197.273438 C 60.066406 197.46875 60.203125 197.46875 60.457031 197.46875 C 61.335938 197.46875 61.355469 197.625 61.355469 197.800781 C 61.355469 197.917969 61.316406 198.054688 61.296875 198.113281 L 60.203125 202.46875 C 60.007812 202 59.519531 201.277344 58.582031 201.277344 C 56.570312 201.277344 54.382812 203.894531 54.382812 206.550781 C 54.382812 208.328125 55.417969 209.363281 56.628906 209.363281 C 57.625 209.363281 58.464844 208.601562 58.972656 207.996094 C 59.148438 209.070312 59.988281 209.363281 60.535156 209.363281 C 61.0625 209.363281 61.492188 209.050781 61.824219 208.40625 C 62.097656 207.78125 62.351562 206.6875 62.351562 206.628906 C 62.351562 206.53125 62.292969 206.453125 62.175781 206.453125 C 62.019531 206.453125 62 206.550781 61.921875 206.824219 C 61.648438 207.878906 61.316406 209.011719 60.574219 209.011719 C 60.066406 209.011719 60.027344 208.542969 60.027344 208.191406 C 60.027344 208.113281 60.027344 207.742188 60.144531 207.234375 Z M 59.050781 207.058594 C 58.972656 207.351562 58.972656 207.390625 58.71875 207.742188 C 58.328125 208.230469 57.527344 209.011719 56.6875 209.011719 C 55.964844 209.011719 55.535156 208.347656 55.535156 207.292969 C 55.535156 206.296875 56.101562 204.285156 56.433594 203.542969 C 57.058594 202.292969 57.898438 201.648438 58.582031 201.648438 C 59.773438 201.648438 60.007812 203.113281 60.007812 203.25 C 60.007812 203.269531 59.949219 203.503906 59.929688 203.542969 Z M 59.050781 207.058594 "/>
<path style=" stroke:none;fill-rule:nonzero;fill:rgb(0%,0%,0%);fill-opacity:1;" d="M 71.308594 201.863281 C 70.742188 201.980469 70.527344 202.410156 70.527344 202.742188 C 70.527344 203.171875 70.859375 203.328125 71.113281 203.328125 C 71.660156 203.328125 72.03125 202.859375 72.03125 202.371094 C 72.03125 201.628906 71.171875 201.277344 70.410156 201.277344 C 69.316406 201.277344 68.710938 202.351562 68.554688 202.703125 C 68.144531 201.355469 67.03125 201.277344 66.699219 201.277344 C 64.882812 201.277344 63.90625 203.621094 63.90625 204.03125 C 63.90625 204.089844 63.984375 204.1875 64.101562 204.1875 C 64.238281 204.1875 64.277344 204.070312 64.316406 204.011719 C 64.921875 202.019531 66.132812 201.648438 66.640625 201.648438 C 67.460938 201.648438 67.617188 202.390625 67.617188 202.820312 C 67.617188 203.210938 67.519531 203.621094 67.285156 204.480469 L 66.679688 206.941406 C 66.425781 208.015625 65.898438 209.011719 64.941406 209.011719 C 64.863281 209.011719 64.414062 209.011719 64.023438 208.777344 C 64.667969 208.640625 64.824219 208.113281 64.824219 207.898438 C 64.824219 207.546875 64.550781 207.332031 64.21875 207.332031 C 63.789062 207.332031 63.320312 207.703125 63.320312 208.269531 C 63.320312 209.03125 64.160156 209.363281 64.921875 209.363281 C 65.78125 209.363281 66.40625 208.679688 66.777344 207.957031 C 67.070312 209.011719 67.949219 209.363281 68.613281 209.363281 C 70.449219 209.363281 71.425781 207.019531 71.425781 206.628906 C 71.425781 206.53125 71.347656 206.453125 71.230469 206.453125 C 71.074219 206.453125 71.054688 206.550781 71.015625 206.6875 C 70.527344 208.269531 69.472656 209.011719 68.671875 209.011719 C 68.046875 209.011719 67.714844 208.542969 67.714844 207.800781 C 67.714844 207.410156 67.773438 207.117188 68.066406 205.945312 L 68.691406 203.503906 C 68.964844 202.429688 69.570312 201.648438 70.390625 201.648438 C 70.429688 201.648438 70.9375 201.648438 71.308594 201.863281 Z M 71.308594 201.863281 "/>
<path style=" stroke:none;fill-rule:nonzero;fill:rgb(0%,0%,0%);fill-opacity:1;" d="M 83.183594 201.242188 C 83.183594 201.183594 83.183594 201.144531 82.890625 200.851562 C 81.09375 199.035156 80.097656 196.085938 80.097656 192.414062 C 80.097656 188.9375 80.9375 185.949219 83.007812 183.839844 C 83.183594 183.664062 83.183594 183.644531 83.183594 183.585938 C 83.183594 183.46875 83.105469 183.449219 83.027344 183.449219 C 82.792969 183.449219 81.328125 184.738281 80.449219 186.496094 C 79.53125 188.292969 79.121094 190.226562 79.121094 192.414062 C 79.121094 194.015625 79.375 196.144531 80.3125 198.078125 C 81.367188 200.226562 82.832031 201.378906 83.027344 201.378906 C 83.105469 201.378906 83.183594 201.359375 83.183594 201.242188 Z M 83.183594 201.242188 "/>
<path style=" stroke:none;fill-rule:nonzero;fill:rgb(0%,0%,0%);fill-opacity:1;" d="M 92.101562 189.679688 C 92.472656 189.679688 92.609375 189.679688 92.609375 189.347656 C 92.609375 189.152344 92.472656 189.152344 92.140625 189.152344 L 90.695312 189.152344 C 91.027344 187.316406 91.28125 186.046875 91.4375 185.460938 C 91.535156 185.03125 91.90625 184.621094 92.375 184.621094 C 92.746094 184.621094 93.136719 184.777344 93.3125 184.953125 C 92.609375 185.011719 92.394531 185.539062 92.394531 185.851562 C 92.394531 186.203125 92.667969 186.417969 93 186.417969 C 93.371094 186.417969 93.898438 186.105469 93.898438 185.421875 C 93.898438 184.679688 93.15625 184.269531 92.355469 184.269531 C 91.59375 184.269531 90.832031 184.835938 90.480469 185.539062 C 90.148438 186.164062 89.972656 186.808594 89.5625 189.152344 L 88.371094 189.152344 C 88.019531 189.152344 87.84375 189.152344 87.84375 189.484375 C 87.84375 189.679688 87.941406 189.679688 88.3125 189.679688 L 89.464844 189.679688 C 89.132812 191.339844 88.390625 195.402344 87.980469 197.316406 C 87.6875 198.878906 87.414062 200.1875 86.515625 200.1875 C 86.457031 200.1875 85.949219 200.1875 85.617188 199.835938 C 86.535156 199.777344 86.535156 198.976562 86.535156 198.957031 C 86.535156 198.605469 86.261719 198.390625 85.929688 198.390625 C 85.558594 198.390625 85.03125 198.703125 85.03125 199.386719 C 85.03125 200.148438 85.8125 200.539062 86.515625 200.539062 C 88.351562 200.539062 89.09375 197.257812 89.289062 196.359375 C 89.621094 194.992188 90.5 190.226562 90.578125 189.679688 Z M 92.101562 189.679688 "/>
<path style=" stroke:none;fill-rule:nonzero;fill:rgb(0%,0%,0%);fill-opacity:1;" d="M 106.628906 192.414062 C 106.628906 190.480469 105.027344 188.917969 103.132812 188.917969 C 101.199219 188.917969 99.636719 190.519531 99.636719 192.414062 C 99.636719 194.308594 101.199219 195.890625 103.132812 195.890625 C 105.027344 195.890625 106.628906 194.328125 106.628906 192.414062 Z M 103.132812 195.167969 C 101.589844 195.167969 100.359375 193.917969 100.359375 192.414062 C 100.359375 190.890625 101.609375 189.640625 103.132812 189.640625 C 104.636719 189.640625 105.90625 190.871094 105.90625 192.414062 C 105.90625 193.9375 104.636719 195.167969 103.132812 195.167969 Z M 103.132812 195.167969 "/>
<path style=" stroke:none;fill-rule:nonzero;fill:rgb(0%,0%,0%);fill-opacity:1;" d="M 119.550781 189.679688 C 119.921875 189.679688 120.058594 189.679688 120.058594 189.347656 C 120.058594 189.152344 119.921875 189.152344 119.589844 189.152344 L 118.144531 189.152344 C 118.476562 187.316406 118.730469 186.046875 118.886719 185.460938 C 118.984375 185.03125 119.355469 184.621094 119.824219 184.621094 C 120.195312 184.621094 120.585938 184.777344 120.761719 184.953125 C 120.058594 185.011719 119.84375 185.539062 119.84375 185.851562 C 119.84375 186.203125 120.117188 186.417969 120.449219 186.417969 C 120.820312 186.417969 121.347656 186.105469 121.347656 185.421875 C 121.347656 184.679688 120.605469 184.269531 119.804688 184.269531 C 119.042969 184.269531 118.28125 184.835938 117.929688 185.539062 C 117.597656 186.164062 117.421875 186.808594 117.011719 189.152344 L 115.820312 189.152344 C 115.46875 189.152344 115.292969 189.152344 115.292969 189.484375 C 115.292969 189.679688 115.390625 189.679688 115.761719 189.679688 L 116.914062 189.679688 C 116.582031 191.339844 115.839844 195.402344 115.429688 197.316406 C 115.136719 198.878906 114.863281 200.1875 113.964844 200.1875 C 113.90625 200.1875 113.398438 200.1875 113.066406 199.835938 C 113.984375 199.777344 113.984375 198.976562 113.984375 198.957031 C 113.984375 198.605469 113.710938 198.390625 113.378906 198.390625 C 113.007812 198.390625 112.480469 198.703125 112.480469 199.386719 C 112.480469 200.148438 113.261719 200.539062 113.964844 200.539062 C 115.800781 200.539062 116.542969 197.257812 116.738281 196.359375 C 117.070312 194.992188 117.949219 190.226562 118.027344 189.679688 Z M 119.550781 189.679688 "/>
<path style=" stroke:none;fill-rule:nonzero;fill:rgb(0%,0%,0%);fill-opacity:1;" d="M 127.269531 192.414062 C 127.269531 191.066406 127.09375 188.839844 126.078125 186.75 C 125.023438 184.601562 123.558594 183.449219 123.363281 183.449219 C 123.285156 183.449219 123.1875 183.46875 123.1875 183.585938 C 123.1875 183.644531 123.1875 183.664062 123.5 183.976562 C 125.296875 185.792969 126.292969 188.742188 126.292969 192.414062 C 126.292969 195.890625 125.453125 198.878906 123.382812 200.988281 C 123.1875 201.144531 123.1875 201.183594 123.1875 201.242188 C 123.1875 201.359375 123.285156 201.378906 123.363281 201.378906 C 123.597656 201.378906 125.0625 200.089844 125.941406 198.332031 C 126.859375 196.515625 127.269531 194.582031 127.269531 192.414062 Z M 127.269531 192.414062 "/>
<path style=" stroke:none;fill-rule:nonzero;fill:rgb(0%,0%,0%);fill-opacity:1;" d="M 137.78125 201.242188 C 137.78125 201.183594 137.78125 201.144531 137.488281 200.851562 C 135.691406 199.035156 134.695312 196.085938 134.695312 192.414062 C 134.695312 188.9375 135.535156 185.949219 137.605469 183.839844 C 137.78125 183.664062 137.78125 183.644531 137.78125 183.585938 C 137.78125 183.46875 137.703125 183.449219 137.625 183.449219 C 137.390625 183.449219 135.925781 184.738281 135.046875 186.496094 C 134.128906 188.292969 133.71875 190.226562 133.71875 192.414062 C 133.71875 194.015625 133.972656 196.144531 134.910156 198.078125 C 135.964844 200.226562 137.429688 201.378906 137.625 201.378906 C 137.703125 201.378906 137.78125 201.359375 137.78125 201.242188 Z M 137.78125 201.242188 "/>
<path style=" stroke:none;fill-rule:nonzero;fill:rgb(0%,0%,0%);fill-opacity:1;" d="M 147.355469 189.5625 C 146.789062 189.679688 146.574219 190.109375 146.574219 190.441406 C 146.574219 190.871094 146.90625 191.027344 147.160156 191.027344 C 147.707031 191.027344 148.078125 190.558594 148.078125 190.070312 C 148.078125 189.328125 147.21875 188.976562 146.457031 188.976562 C 145.363281 188.976562 144.757812 190.050781 144.601562 190.402344 C 144.191406 189.054688 143.078125 188.976562 142.746094 188.976562 C 140.929688 188.976562 139.953125 191.320312 139.953125 191.730469 C 139.953125 191.789062 140.03125 191.886719 140.148438 191.886719 C 140.285156 191.886719 140.324219 191.769531 140.363281 191.710938 C 140.96875 189.71875 142.179688 189.347656 142.6875 189.347656 C 143.507812 189.347656 143.664062 190.089844 143.664062 190.519531 C 143.664062 190.910156 143.566406 191.320312 143.332031 192.179688 L 142.726562 194.640625 C 142.472656 195.714844 141.945312 196.710938 140.988281 196.710938 C 140.910156 196.710938 140.460938 196.710938 140.070312 196.476562 C 140.714844 196.339844 140.871094 195.8125 140.871094 195.597656 C 140.871094 195.246094 140.597656 195.03125 140.265625 195.03125 C 139.835938 195.03125 139.367188 195.402344 139.367188 195.96875 C 139.367188 196.730469 140.207031 197.0625 140.96875 197.0625 C 141.828125 197.0625 142.453125 196.378906 142.824219 195.65625 C 143.117188 196.710938 143.996094 197.0625 144.660156 197.0625 C 146.496094 197.0625 147.472656 194.71875 147.472656 194.328125 C 147.472656 194.230469 147.394531 194.152344 147.277344 194.152344 C 147.121094 194.152344 147.101562 194.25 147.0625 194.386719 C 146.574219 195.96875 145.519531 196.710938 144.71875 196.710938 C 144.09375 196.710938 143.761719 196.242188 143.761719 195.5 C 143.761719 195.109375 143.820312 194.816406 144.113281 193.644531 L 144.738281 191.203125 C 145.011719 190.128906 145.617188 189.347656 146.4375 189.347656 C 146.476562 189.347656 146.984375 189.347656 147.355469 189.5625 Z M 147.355469 189.5625 "/>
<path style=" stroke:none;fill-rule:nonzero;fill:rgb(0%,0%,0%);fill-opacity:1;" d="M 153.96875 192.414062 C 153.96875 191.066406 153.792969 188.839844 152.777344 186.75 C 151.722656 184.601562 150.257812 183.449219 150.0625 183.449219 C 149.984375 183.449219 149.886719 183.46875 149.886719 183.585938 C 149.886719 183.644531 149.886719 183.664062 150.199219 183.976562 C 151.996094 185.792969 152.992188 188.742188 152.992188 192.414062 C 152.992188 195.890625 152.152344 198.878906 150.082031 200.988281 C 149.886719 201.144531 149.886719 201.183594 149.886719 201.242188 C 149.886719 201.359375 149.984375 201.378906 150.0625 201.378906 C 150.296875 201.378906 151.761719 200.089844 152.640625 198.332031 C 153.558594 196.515625 153.96875 194.582031 153.96875 192.414062 Z M 153.96875 192.414062 "/>
<path style=" stroke:none;fill-rule:nonzero;fill:rgb(0%,0%,0%);fill-opacity:1;" d="M 172.71875 191.085938 C 172.972656 191.085938 173.285156 191.085938 173.285156 190.753906 C 173.285156 190.421875 172.972656 190.421875 172.71875 190.421875 L 162.152344 190.421875 C 161.898438 190.421875 161.585938 190.421875 161.585938 190.734375 C 161.585938 191.085938 161.878906 191.085938 162.152344 191.085938 Z M 172.71875 194.40625 C 172.972656 194.40625 173.285156 194.40625 173.285156 194.09375 C 173.285156 193.742188 172.972656 193.742188 172.71875 193.742188 L 162.152344 193.742188 C 161.898438 193.742188 161.585938 193.742188 161.585938 194.074219 C 161.585938 194.40625 161.878906 194.40625 162.152344 194.40625 Z M 172.71875 194.40625 "/>
<path style=" stroke:none;fill-rule:nonzero;fill:rgb(0%,0%,0%);fill-opacity:1;" d="M 184.367188 185.402344 C 184.367188 184.972656 184.367188 184.972656 184.015625 184.972656 C 183.585938 185.441406 182.6875 186.105469 180.851562 186.105469 L 180.851562 186.632812 C 181.261719 186.632812 182.160156 186.632812 183.136719 186.164062 L 183.136719 195.5 C 183.136719 196.144531 183.078125 196.359375 181.515625 196.359375 L 180.949219 196.359375 L 180.949219 196.886719 C 181.4375 196.847656 183.175781 196.847656 183.761719 196.847656 C 184.347656 196.847656 186.085938 196.847656 186.554688 196.886719 L 186.554688 196.359375 L 186.007812 196.359375 C 184.425781 196.359375 184.367188 196.144531 184.367188 195.5 Z M 184.367188 185.402344 "/>
</g>
</svg>
