<?xml version="1.0" encoding="UTF-8"?>
<svg xmlns="http://www.w3.org/2000/svg" xmlns:xlink="http://www.w3.org/1999/xlink" width="265.0223pt" height="58.758345pt" viewBox="0 0 265.0223 58.758345" version="1.1">
<g id="surface1">
<path style=" stroke:none;fill-rule:nonzero;fill:rgb(0%,0%,100%);fill-opacity:1;" d="M 9.882812 10.566406 C 8.789062 11.386719 8.046875 11.679688 6.484375 11.679688 C 4.140625 11.679688 2.382812 9.257812 2.382812 6.386719 C 2.382812 3.964844 3.828125 1.113281 6.5625 1.113281 C 7.734375 1.113281 8.632812 1.464844 9.53125 2.070312 L 9.804688 0.605469 C 8.632812 0.15625 7.753906 0 6.523438 0 C 3.476562 0 0.859375 2.695312 0.859375 6.40625 C 0.859375 10.332031 3.730469 12.792969 6.347656 12.792969 C 8.144531 12.792969 8.535156 12.695312 10 11.816406 Z M 9.882812 10.566406 "/>
<path style=" stroke:none;fill-rule:nonzero;fill:rgb(0%,0%,100%);fill-opacity:1;" d="M 19.140625 8.691406 C 19.140625 6.269531 17.363281 4.414062 15.3125 4.414062 C 13.203125 4.414062 11.464844 6.308594 11.464844 8.691406 C 11.464844 11.035156 13.242188 12.8125 15.292969 12.8125 C 17.402344 12.8125 19.140625 10.996094 19.140625 8.691406 Z M 15.3125 11.699219 C 14.023438 11.699219 12.8125 10.625 12.8125 8.515625 C 12.8125 6.347656 14.160156 5.488281 15.292969 5.488281 C 16.523438 5.488281 17.792969 6.40625 17.792969 8.515625 C 17.792969 10.722656 16.503906 11.699219 15.3125 11.699219 Z M 15.3125 11.699219 "/>
<path style=" stroke:none;fill-rule:nonzero;fill:rgb(0%,0%,100%);fill-opacity:1;" d="M 32.269531 7.246094 C 32.269531 5.996094 31.9375 4.492188 29.847656 4.492188 C 28.324219 4.492188 27.484375 5.546875 27.210938 5.957031 C 26.878906 4.824219 25.902344 4.492188 24.964844 4.492188 C 23.5 4.492188 22.71875 5.449219 22.425781 5.820312 L 22.425781 4.589844 L 21.15625 4.589844 L 21.15625 12.636719 L 22.503906 12.636719 L 22.503906 8.164062 C 22.503906 6.992188 22.972656 5.566406 24.28125 5.566406 C 25.941406 5.566406 26.019531 6.699219 26.019531 7.363281 L 26.019531 12.636719 L 27.386719 12.636719 L 27.386719 8.164062 C 27.386719 6.992188 27.855469 5.566406 29.164062 5.566406 C 30.804688 5.566406 30.902344 6.699219 30.902344 7.363281 L 30.902344 12.636719 L 32.269531 12.636719 Z M 32.269531 7.246094 "/>
<path style=" stroke:none;fill-rule:nonzero;fill:rgb(0%,0%,100%);fill-opacity:1;" d="M 46.21875 7.246094 C 46.21875 5.996094 45.886719 4.492188 43.796875 4.492188 C 42.273438 4.492188 41.433594 5.546875 41.160156 5.957031 C 40.828125 4.824219 39.851562 4.492188 38.914062 4.492188 C 37.449219 4.492188 36.667969 5.449219 36.375 5.820312 L 36.375 4.589844 L 35.105469 4.589844 L 35.105469 12.636719 L 36.453125 12.636719 L 36.453125 8.164062 C 36.453125 6.992188 36.921875 5.566406 38.230469 5.566406 C 39.890625 5.566406 39.96875 6.699219 39.96875 7.363281 L 39.96875 12.636719 L 41.335938 12.636719 L 41.335938 8.164062 C 41.335938 6.992188 41.804688 5.566406 43.113281 5.566406 C 44.753906 5.566406 44.851562 6.699219 44.851562 7.363281 L 44.851562 12.636719 L 46.21875 12.636719 Z M 46.21875 7.246094 "/>
<path style=" stroke:none;fill-rule:nonzero;fill:rgb(0%,0%,100%);fill-opacity:1;" d="M 55.890625 8.691406 C 55.890625 6.269531 54.113281 4.414062 52.0625 4.414062 C 49.953125 4.414062 48.214844 6.308594 48.214844 8.691406 C 48.214844 11.035156 49.992188 12.8125 52.042969 12.8125 C 54.152344 12.8125 55.890625 10.996094 55.890625 8.691406 Z M 52.0625 11.699219 C 50.773438 11.699219 49.5625 10.625 49.5625 8.515625 C 49.5625 6.347656 50.910156 5.488281 52.042969 5.488281 C 53.273438 5.488281 54.542969 6.40625 54.542969 8.515625 C 54.542969 10.722656 53.253906 11.699219 52.0625 11.699219 Z M 52.0625 11.699219 "/>
<path style=" stroke:none;fill-rule:nonzero;fill:rgb(0%,0%,100%);fill-opacity:1;" d="M 64.117188 7.246094 C 64.117188 6.152344 63.882812 4.492188 61.714844 4.492188 C 60.71875 4.492188 59.859375 4.941406 59.175781 5.800781 L 59.175781 4.589844 L 57.90625 4.589844 L 57.90625 12.636719 L 59.253906 12.636719 L 59.253906 8.164062 C 59.253906 7.070312 59.683594 5.566406 61.03125 5.566406 C 62.710938 5.566406 62.75 6.738281 62.75 7.363281 L 62.75 12.636719 L 64.117188 12.636719 Z M 64.117188 7.246094 "/>
<path style=" stroke:none;fill-rule:nonzero;fill:rgb(0%,0%,100%);fill-opacity:1;" d="M 72.707031 0.195312 L 72.707031 12.636719 L 77.296875 12.636719 C 80.304688 12.636719 82.707031 9.921875 82.707031 6.523438 C 82.707031 3.027344 80.324219 0.195312 77.296875 0.195312 Z M 74.210938 11.640625 L 74.210938 1.191406 L 76.886719 1.191406 C 79.289062 1.191406 81.203125 3.261719 81.203125 6.503906 C 81.203125 9.785156 79.210938 11.640625 76.886719 11.640625 Z M 74.210938 11.640625 "/>
<path style=" stroke:none;fill-rule:nonzero;fill:rgb(0%,0%,100%);fill-opacity:1;" d="M 90.972656 8.59375 C 90.972656 7.832031 90.894531 6.738281 90.328125 5.78125 C 89.585938 4.550781 88.335938 4.414062 87.808594 4.414062 C 85.875 4.414062 84.253906 6.269531 84.253906 8.59375 C 84.253906 10.976562 85.972656 12.8125 88.0625 12.8125 C 88.882812 12.8125 89.878906 12.578125 90.855469 11.875 C 90.855469 11.796875 90.796875 11.230469 90.796875 11.210938 C 90.777344 11.191406 90.757812 10.78125 90.757812 10.722656 C 89.683594 11.621094 88.628906 11.738281 88.101562 11.738281 C 86.714844 11.738281 85.523438 10.507812 85.503906 8.59375 Z M 85.601562 7.636719 C 85.914062 6.425781 86.753906 5.488281 87.808594 5.488281 C 88.375 5.488281 89.605469 5.742188 89.898438 7.636719 Z M 85.601562 7.636719 "/>
<path style=" stroke:none;fill-rule:nonzero;fill:rgb(0%,0%,100%);fill-opacity:1;" d="M 94.203125 8.710938 C 94.203125 6.894531 95.550781 5.722656 97.171875 5.703125 L 97.171875 4.492188 C 95.53125 4.511719 94.59375 5.46875 94.105469 6.171875 L 94.105469 4.589844 L 92.875 4.589844 L 92.875 12.636719 L 94.203125 12.636719 Z M 94.203125 8.710938 "/>
<path style=" stroke:none;fill-rule:nonzero;fill:rgb(0%,0%,100%);fill-opacity:1;" d="M 100.300781 0.46875 L 98.757812 0.46875 L 98.757812 2.011719 L 100.300781 2.011719 Z M 100.203125 4.667969 L 98.875 4.667969 L 98.875 12.636719 L 100.203125 12.636719 Z M 100.203125 4.667969 "/>
<path style=" stroke:none;fill-rule:nonzero;fill:rgb(0%,0%,100%);fill-opacity:1;" d="M 109.421875 4.667969 L 108.09375 4.667969 L 106.785156 8.242188 C 106.472656 9.101562 105.808594 10.996094 105.710938 11.660156 L 105.691406 11.660156 C 105.59375 11.035156 105.242188 10.058594 104.96875 9.277344 L 103.308594 4.667969 L 101.921875 4.667969 L 104.871094 12.636719 L 106.472656 12.636719 Z M 109.421875 4.667969 "/>
<path style=" stroke:none;fill-rule:nonzero;fill:rgb(0%,0%,100%);fill-opacity:1;" d="M 116.777344 7.382812 C 116.777344 5.664062 115.546875 4.414062 113.867188 4.414062 C 112.792969 4.414062 111.992188 4.648438 111.113281 5.15625 L 111.210938 6.347656 C 112.011719 5.761719 112.832031 5.449219 113.867188 5.449219 C 114.6875 5.449219 115.410156 6.113281 115.410156 7.421875 L 115.410156 8.164062 C 114.609375 8.183594 113.535156 8.242188 112.460938 8.59375 C 111.25 9.023438 110.546875 9.6875 110.546875 10.566406 C 110.546875 11.367188 111.015625 12.8125 112.539062 12.8125 C 113.535156 12.8125 114.785156 12.519531 115.449219 11.972656 L 115.449219 12.636719 L 116.777344 12.636719 Z M 115.410156 10.234375 C 115.410156 10.585938 115.410156 11.015625 114.824219 11.386719 C 114.335938 11.679688 113.730469 11.738281 113.457031 11.738281 C 112.5 11.738281 111.835938 11.210938 111.835938 10.566406 C 111.835938 9.335938 114.316406 9.0625 115.410156 9.0625 Z M 115.410156 10.234375 "/>
<path style=" stroke:none;fill-rule:nonzero;fill:rgb(0%,0%,100%);fill-opacity:1;" d="M 121.234375 5.722656 L 123.714844 5.722656 L 123.714844 4.667969 L 121.234375 4.667969 L 121.234375 2.402344 L 120.003906 2.402344 L 120.003906 4.667969 L 118.5 4.667969 L 118.5 5.722656 L 119.964844 5.722656 L 119.964844 10.546875 C 119.964844 11.582031 120.199219 12.8125 121.429688 12.8125 C 122.640625 12.8125 123.460938 12.402344 124.007812 12.109375 L 123.734375 11.074219 C 123.109375 11.640625 122.445312 11.699219 122.132812 11.699219 C 121.332031 11.699219 121.234375 10.859375 121.234375 10.234375 Z M 121.234375 5.722656 "/>
<path style=" stroke:none;fill-rule:nonzero;fill:rgb(0%,0%,100%);fill-opacity:1;" d="M 127.300781 0.46875 L 125.757812 0.46875 L 125.757812 2.011719 L 127.300781 2.011719 Z M 127.203125 4.667969 L 125.875 4.667969 L 125.875 12.636719 L 127.203125 12.636719 Z M 127.203125 4.667969 "/>
<path style=" stroke:none;fill-rule:nonzero;fill:rgb(0%,0%,100%);fill-opacity:1;" d="M 136.421875 4.667969 L 135.09375 4.667969 L 133.785156 8.242188 C 133.472656 9.101562 132.808594 10.996094 132.710938 11.660156 L 132.691406 11.660156 C 132.59375 11.035156 132.242188 10.058594 131.96875 9.277344 L 130.308594 4.667969 L 128.921875 4.667969 L 131.871094 12.636719 L 133.472656 12.636719 Z M 136.421875 4.667969 "/>
<path style=" stroke:none;fill-rule:nonzero;fill:rgb(0%,0%,100%);fill-opacity:1;" d="M 144.070312 8.59375 C 144.070312 7.832031 143.992188 6.738281 143.425781 5.78125 C 142.683594 4.550781 141.433594 4.414062 140.90625 4.414062 C 138.972656 4.414062 137.351562 6.269531 137.351562 8.59375 C 137.351562 10.976562 139.070312 12.8125 141.160156 12.8125 C 141.980469 12.8125 142.976562 12.578125 143.953125 11.875 C 143.953125 11.796875 143.894531 11.230469 143.894531 11.210938 C 143.875 11.191406 143.855469 10.78125 143.855469 10.722656 C 142.78125 11.621094 141.726562 11.738281 141.199219 11.738281 C 139.8125 11.738281 138.621094 10.507812 138.601562 8.59375 Z M 138.699219 7.636719 C 139.011719 6.425781 139.851562 5.488281 140.90625 5.488281 C 141.472656 5.488281 142.703125 5.742188 142.996094 7.636719 Z M 138.699219 7.636719 "/>
<path style=" stroke:none;fill-rule:nonzero;fill:rgb(0%,0%,100%);fill-opacity:1;" d="M 150.582031 4.960938 C 149.449219 4.433594 148.472656 4.414062 148.0625 4.414062 C 147.652344 4.414062 145.152344 4.414062 145.152344 6.738281 C 145.152344 7.519531 145.582031 8.066406 145.855469 8.320312 C 146.5 8.867188 146.949219 8.964844 148.003906 9.179688 C 148.609375 9.296875 149.644531 9.511719 149.644531 10.46875 C 149.644531 11.699219 148.238281 11.699219 147.984375 11.699219 C 147.28125 11.699219 146.226562 11.503906 145.269531 10.800781 L 145.054688 12.03125 C 145.132812 12.089844 146.363281 12.8125 148.003906 12.8125 C 150.328125 12.8125 150.875 11.425781 150.875 10.351562 C 150.875 9.453125 150.328125 8.867188 150.25 8.789062 C 149.585938 8.105469 149.039062 7.988281 147.964844 7.773438 C 147.300781 7.65625 146.402344 7.480469 146.402344 6.582031 C 146.402344 5.46875 147.652344 5.46875 147.886719 5.46875 C 148.824219 5.46875 149.585938 5.683594 150.367188 6.132812 Z M 150.582031 4.960938 "/>
<path style=" stroke:none;fill-rule:nonzero;fill:rgb(0%,0%,0%);fill-opacity:1;" d="M 1.308594 21.34375 L 1.308594 33.785156 L 5.898438 33.785156 C 8.90625 33.785156 11.308594 31.070312 11.308594 27.671875 C 11.308594 24.175781 8.925781 21.34375 5.898438 21.34375 Z M 2.8125 32.789062 L 2.8125 22.339844 L 5.488281 22.339844 C 7.890625 22.339844 9.804688 24.410156 9.804688 27.652344 C 9.804688 30.933594 7.8125 32.789062 5.488281 32.789062 Z M 2.8125 32.789062 "/>
<path style=" stroke:none;fill-rule:nonzero;fill:rgb(0%,0%,0%);fill-opacity:1;" d="M 19.574219 29.742188 C 19.574219 28.980469 19.496094 27.886719 18.929688 26.929688 C 18.1875 25.699219 16.9375 25.5625 16.410156 25.5625 C 14.476562 25.5625 12.855469 27.417969 12.855469 29.742188 C 12.855469 32.125 14.574219 33.960938 16.664062 33.960938 C 17.484375 33.960938 18.480469 33.726562 19.457031 33.023438 C 19.457031 32.945312 19.398438 32.378906 19.398438 32.359375 C 19.378906 32.339844 19.359375 31.929688 19.359375 31.871094 C 18.285156 32.769531 17.230469 32.886719 16.703125 32.886719 C 15.316406 32.886719 14.125 31.65625 14.105469 29.742188 Z M 14.203125 28.785156 C 14.515625 27.574219 15.355469 26.636719 16.410156 26.636719 C 16.976562 26.636719 18.207031 26.890625 18.5 28.785156 Z M 14.203125 28.785156 "/>
<path style=" stroke:none;fill-rule:nonzero;fill:rgb(0%,0%,0%);fill-opacity:1;" d="M 22.800781 29.859375 C 22.800781 28.042969 24.148438 26.871094 25.769531 26.851562 L 25.769531 25.640625 C 24.128906 25.660156 23.191406 26.617188 22.703125 27.320312 L 22.703125 25.738281 L 21.472656 25.738281 L 21.472656 33.785156 L 22.800781 33.785156 Z M 22.800781 29.859375 "/>
<path style=" stroke:none;fill-rule:nonzero;fill:rgb(0%,0%,0%);fill-opacity:1;" d="M 28.898438 21.617188 L 27.355469 21.617188 L 27.355469 23.160156 L 28.898438 23.160156 Z M 28.800781 25.816406 L 27.472656 25.816406 L 27.472656 33.785156 L 28.800781 33.785156 Z M 28.800781 25.816406 "/>
<path style=" stroke:none;fill-rule:nonzero;fill:rgb(0%,0%,0%);fill-opacity:1;" d="M 38.023438 25.816406 L 36.695312 25.816406 L 35.386719 29.390625 C 35.074219 30.25 34.410156 32.144531 34.3125 32.808594 L 34.292969 32.808594 C 34.195312 32.183594 33.84375 31.207031 33.570312 30.425781 L 31.910156 25.816406 L 30.523438 25.816406 L 33.472656 33.785156 L 35.074219 33.785156 Z M 38.023438 25.816406 "/>
<path style=" stroke:none;fill-rule:nonzero;fill:rgb(0%,0%,0%);fill-opacity:1;" d="M 45.378906 28.53125 C 45.378906 26.8125 44.148438 25.5625 42.46875 25.5625 C 41.394531 25.5625 40.59375 25.796875 39.714844 26.304688 L 39.8125 27.496094 C 40.613281 26.910156 41.433594 26.597656 42.46875 26.597656 C 43.289062 26.597656 44.011719 27.261719 44.011719 28.570312 L 44.011719 29.3125 C 43.210938 29.332031 42.136719 29.390625 41.0625 29.742188 C 39.851562 30.171875 39.148438 30.835938 39.148438 31.714844 C 39.148438 32.515625 39.617188 33.960938 41.140625 33.960938 C 42.136719 33.960938 43.386719 33.667969 44.050781 33.121094 L 44.050781 33.785156 L 45.378906 33.785156 Z M 44.011719 31.382812 C 44.011719 31.734375 44.011719 32.164062 43.425781 32.535156 C 42.9375 32.828125 42.332031 32.886719 42.058594 32.886719 C 41.101562 32.886719 40.4375 32.359375 40.4375 31.714844 C 40.4375 30.484375 42.917969 30.210938 44.011719 30.210938 Z M 44.011719 31.382812 "/>
<path style=" stroke:none;fill-rule:nonzero;fill:rgb(0%,0%,0%);fill-opacity:1;" d="M 49.835938 26.871094 L 52.316406 26.871094 L 52.316406 25.816406 L 49.835938 25.816406 L 49.835938 23.550781 L 48.605469 23.550781 L 48.605469 25.816406 L 47.101562 25.816406 L 47.101562 26.871094 L 48.566406 26.871094 L 48.566406 31.695312 C 48.566406 32.730469 48.800781 33.960938 50.03125 33.960938 C 51.242188 33.960938 52.0625 33.550781 52.609375 33.257812 L 52.335938 32.222656 C 51.710938 32.789062 51.046875 32.847656 50.734375 32.847656 C 49.933594 32.847656 49.835938 32.007812 49.835938 31.382812 Z M 49.835938 26.871094 "/>
<path style=" stroke:none;fill-rule:nonzero;fill:rgb(0%,0%,0%);fill-opacity:1;" d="M 55.898438 21.617188 L 54.355469 21.617188 L 54.355469 23.160156 L 55.898438 23.160156 Z M 55.800781 25.816406 L 54.472656 25.816406 L 54.472656 33.785156 L 55.800781 33.785156 Z M 55.800781 25.816406 "/>
<path style=" stroke:none;fill-rule:nonzero;fill:rgb(0%,0%,0%);fill-opacity:1;" d="M 65.023438 25.816406 L 63.695312 25.816406 L 62.386719 29.390625 C 62.074219 30.25 61.410156 32.144531 61.3125 32.808594 L 61.292969 32.808594 C 61.195312 32.183594 60.84375 31.207031 60.570312 30.425781 L 58.910156 25.816406 L 57.523438 25.816406 L 60.472656 33.785156 L 62.074219 33.785156 Z M 65.023438 25.816406 "/>
<path style=" stroke:none;fill-rule:nonzero;fill:rgb(0%,0%,0%);fill-opacity:1;" d="M 72.671875 29.742188 C 72.671875 28.980469 72.59375 27.886719 72.027344 26.929688 C 71.285156 25.699219 70.035156 25.5625 69.507812 25.5625 C 67.574219 25.5625 65.953125 27.417969 65.953125 29.742188 C 65.953125 32.125 67.671875 33.960938 69.761719 33.960938 C 70.582031 33.960938 71.578125 33.726562 72.554688 33.023438 C 72.554688 32.945312 72.496094 32.378906 72.496094 32.359375 C 72.476562 32.339844 72.457031 31.929688 72.457031 31.871094 C 71.382812 32.769531 70.328125 32.886719 69.800781 32.886719 C 68.414062 32.886719 67.222656 31.65625 67.203125 29.742188 Z M 67.300781 28.785156 C 67.613281 27.574219 68.453125 26.636719 69.507812 26.636719 C 70.074219 26.636719 71.304688 26.890625 71.597656 28.785156 Z M 67.300781 28.785156 "/>
<path style=" stroke:none;fill-rule:nonzero;fill:rgb(0%,0%,0%);fill-opacity:1;" d="M 79.183594 26.109375 C 78.050781 25.582031 77.074219 25.5625 76.664062 25.5625 C 76.253906 25.5625 73.753906 25.5625 73.753906 27.886719 C 73.753906 28.667969 74.183594 29.214844 74.457031 29.46875 C 75.101562 30.015625 75.550781 30.113281 76.605469 30.328125 C 77.210938 30.445312 78.246094 30.660156 78.246094 31.617188 C 78.246094 32.847656 76.839844 32.847656 76.585938 32.847656 C 75.882812 32.847656 74.828125 32.652344 73.871094 31.949219 L 73.65625 33.179688 C 73.734375 33.238281 74.964844 33.960938 76.605469 33.960938 C 78.929688 33.960938 79.476562 32.574219 79.476562 31.5 C 79.476562 30.601562 78.929688 30.015625 78.851562 29.9375 C 78.1875 29.253906 77.640625 29.136719 76.566406 28.921875 C 75.902344 28.804688 75.003906 28.628906 75.003906 27.730469 C 75.003906 26.617188 76.253906 26.617188 76.488281 26.617188 C 77.425781 26.617188 78.1875 26.832031 78.96875 27.28125 Z M 79.183594 26.109375 "/>
<path style=" stroke:none;fill-rule:nonzero;fill:rgb(0%,0%,0%);fill-opacity:1;" d="M 93.839844 29.839844 C 93.839844 27.417969 92.0625 25.5625 90.011719 25.5625 C 87.902344 25.5625 86.164062 27.457031 86.164062 29.839844 C 86.164062 32.183594 87.941406 33.960938 89.992188 33.960938 C 92.101562 33.960938 93.839844 32.144531 93.839844 29.839844 Z M 90.011719 32.847656 C 88.722656 32.847656 87.511719 31.773438 87.511719 29.664062 C 87.511719 27.496094 88.859375 26.636719 89.992188 26.636719 C 91.222656 26.636719 92.492188 27.554688 92.492188 29.664062 C 92.492188 31.871094 91.203125 32.847656 90.011719 32.847656 Z M 90.011719 32.847656 "/>
<path style=" stroke:none;fill-rule:nonzero;fill:rgb(0%,0%,0%);fill-opacity:1;" d="M 97.574219 26.871094 L 99.488281 26.871094 L 99.488281 25.816406 L 97.535156 25.816406 L 97.535156 23.667969 C 97.535156 22.457031 98.550781 22.242188 99.15625 22.242188 C 99.78125 22.242188 100.328125 22.4375 100.542969 22.515625 L 100.542969 21.34375 C 100.425781 21.304688 99.820312 21.167969 99.175781 21.167969 C 97.457031 21.167969 96.246094 22.476562 96.246094 24.214844 L 96.246094 25.816406 L 94.9375 25.816406 L 94.9375 26.871094 L 96.246094 26.871094 L 96.246094 33.785156 L 97.574219 33.785156 Z M 97.574219 26.871094 "/>
<path style=" stroke:none;fill-rule:nonzero;fill:rgb(0%,0%,0%);fill-opacity:1;" d="M 108.320312 32.984375 C 108.945312 33.53125 109.6875 33.960938 110.664062 33.960938 C 112.382812 33.960938 113.925781 32.222656 113.925781 29.78125 C 113.925781 27.613281 112.773438 25.640625 111.113281 25.640625 C 110.371094 25.640625 109.21875 25.875 108.300781 26.675781 L 108.300781 25.816406 L 106.972656 25.816406 L 106.972656 37.261719 L 108.320312 37.261719 Z M 108.320312 27.769531 C 108.730469 27.144531 109.414062 26.753906 110.15625 26.753906 C 111.484375 26.753906 112.558594 28.101562 112.558594 29.800781 C 112.558594 31.597656 111.328125 32.886719 110 32.886719 C 109.492188 32.886719 109.160156 32.710938 108.828125 32.457031 C 108.378906 32.066406 108.320312 31.734375 108.320312 31.460938 Z M 108.320312 27.769531 "/>
<path style=" stroke:none;fill-rule:nonzero;fill:rgb(0%,0%,0%);fill-opacity:1;" d="M 123.242188 29.839844 C 123.242188 27.417969 121.464844 25.5625 119.414062 25.5625 C 117.304688 25.5625 115.566406 27.457031 115.566406 29.839844 C 115.566406 32.183594 117.34375 33.960938 119.394531 33.960938 C 121.503906 33.960938 123.242188 32.144531 123.242188 29.839844 Z M 119.414062 32.847656 C 118.125 32.847656 116.914062 31.773438 116.914062 29.664062 C 116.914062 27.496094 118.261719 26.636719 119.394531 26.636719 C 120.625 26.636719 121.894531 27.554688 121.894531 29.664062 C 121.894531 31.871094 120.605469 32.847656 119.414062 32.847656 Z M 119.414062 32.847656 "/>
<path style=" stroke:none;fill-rule:nonzero;fill:rgb(0%,0%,0%);fill-opacity:1;" d="M 135.078125 25.816406 L 133.769531 25.816406 L 132.695312 29.46875 C 132.441406 30.328125 131.933594 32.007812 131.855469 32.789062 L 131.835938 32.789062 C 131.796875 32.359375 131.503906 31.148438 131.132812 29.878906 L 129.941406 25.816406 L 128.710938 25.816406 L 127.675781 29.332031 C 127.363281 30.445312 126.933594 31.988281 126.875 32.75 L 126.855469 32.75 C 126.835938 32.398438 126.640625 31.460938 126.308594 30.25 L 125.039062 25.816406 L 123.671875 25.816406 L 126.074219 33.785156 L 127.460938 33.785156 C 128.125 31.519531 129.179688 28.121094 129.277344 26.871094 L 129.296875 26.871094 C 129.335938 27.59375 129.6875 28.882812 129.824219 29.3125 L 131.09375 33.785156 L 132.675781 33.785156 Z M 135.078125 25.816406 "/>
<path style=" stroke:none;fill-rule:nonzero;fill:rgb(0%,0%,0%);fill-opacity:1;" d="M 142.273438 29.742188 C 142.273438 28.980469 142.195312 27.886719 141.628906 26.929688 C 140.886719 25.699219 139.636719 25.5625 139.109375 25.5625 C 137.175781 25.5625 135.554688 27.417969 135.554688 29.742188 C 135.554688 32.125 137.273438 33.960938 139.363281 33.960938 C 140.183594 33.960938 141.179688 33.726562 142.15625 33.023438 C 142.15625 32.945312 142.097656 32.378906 142.097656 32.359375 C 142.078125 32.339844 142.058594 31.929688 142.058594 31.871094 C 140.984375 32.769531 139.929688 32.886719 139.402344 32.886719 C 138.015625 32.886719 136.824219 31.65625 136.804688 29.742188 Z M 136.902344 28.785156 C 137.214844 27.574219 138.054688 26.636719 139.109375 26.636719 C 139.675781 26.636719 140.90625 26.890625 141.199219 28.785156 Z M 136.902344 28.785156 "/>
<path style=" stroke:none;fill-rule:nonzero;fill:rgb(0%,0%,0%);fill-opacity:1;" d="M 145.503906 29.859375 C 145.503906 28.042969 146.851562 26.871094 148.472656 26.851562 L 148.472656 25.640625 C 146.832031 25.660156 145.894531 26.617188 145.40625 27.320312 L 145.40625 25.738281 L 144.175781 25.738281 L 144.175781 33.785156 L 145.503906 33.785156 Z M 145.503906 29.859375 "/>
<path style=" stroke:none;fill-rule:nonzero;fill:rgb(0%,0%,0%);fill-opacity:1;" d="M 154.785156 26.109375 C 153.652344 25.582031 152.675781 25.5625 152.265625 25.5625 C 151.855469 25.5625 149.355469 25.5625 149.355469 27.886719 C 149.355469 28.667969 149.785156 29.214844 150.058594 29.46875 C 150.703125 30.015625 151.152344 30.113281 152.207031 30.328125 C 152.8125 30.445312 153.847656 30.660156 153.847656 31.617188 C 153.847656 32.847656 152.441406 32.847656 152.1875 32.847656 C 151.484375 32.847656 150.429688 32.652344 149.472656 31.949219 L 149.257812 33.179688 C 149.335938 33.238281 150.566406 33.960938 152.207031 33.960938 C 154.53125 33.960938 155.078125 32.574219 155.078125 31.5 C 155.078125 30.601562 154.53125 30.015625 154.453125 29.9375 C 153.789062 29.253906 153.242188 29.136719 152.167969 28.921875 C 151.503906 28.804688 150.605469 28.628906 150.605469 27.730469 C 150.605469 26.617188 151.855469 26.617188 152.089844 26.617188 C 153.027344 26.617188 153.789062 26.832031 154.570312 27.28125 Z M 154.785156 26.109375 "/>
<path style=" stroke:none;fill-rule:nonzero;fill:rgb(0%,0%,0%);fill-opacity:1;" d="M 158.683594 33.765625 L 158.683594 32.339844 L 157.21875 32.339844 L 157.21875 33.785156 L 157.667969 33.785156 L 157.21875 36.03125 L 157.941406 36.03125 Z M 158.683594 33.765625 "/>
<path style=" stroke:none;fill-rule:nonzero;fill:rgb(0%,0%,0%);fill-opacity:1;" d="M 168.753906 21.34375 L 167.425781 21.34375 L 167.425781 33.785156 L 168.753906 33.785156 Z M 168.753906 21.34375 "/>
<path style=" stroke:none;fill-rule:nonzero;fill:rgb(0%,0%,0%);fill-opacity:1;" d="M 178.441406 29.839844 C 178.441406 27.417969 176.664062 25.5625 174.613281 25.5625 C 172.503906 25.5625 170.765625 27.457031 170.765625 29.839844 C 170.765625 32.183594 172.542969 33.960938 174.59375 33.960938 C 176.703125 33.960938 178.441406 32.144531 178.441406 29.839844 Z M 174.613281 32.847656 C 173.324219 32.847656 172.113281 31.773438 172.113281 29.664062 C 172.113281 27.496094 173.460938 26.636719 174.59375 26.636719 C 175.824219 26.636719 177.09375 27.554688 177.09375 29.664062 C 177.09375 31.871094 175.804688 32.847656 174.613281 32.847656 Z M 174.613281 32.847656 "/>
<path style=" stroke:none;fill-rule:nonzero;fill:rgb(0%,0%,0%);fill-opacity:1;" d="M 185.179688 26.714844 C 185.179688 26.714844 185.21875 26.753906 185.238281 26.792969 C 185.609375 26.753906 186 26.695312 186.664062 26.695312 C 186.722656 26.695312 187.132812 26.695312 187.582031 26.734375 L 187.386719 25.640625 C 187.054688 25.640625 185.824219 25.660156 184.632812 26.246094 C 184.046875 25.738281 183.324219 25.640625 182.972656 25.640625 C 181.410156 25.640625 180.160156 26.949219 180.160156 28.53125 C 180.160156 29.175781 180.355469 29.761719 180.746094 30.308594 C 180.335938 30.875 180.238281 31.421875 180.238281 31.851562 C 180.238281 32.515625 180.492188 32.964844 180.6875 33.199219 C 179.769531 33.785156 179.554688 34.546875 179.554688 35.054688 C 179.554688 36.363281 181.253906 37.457031 183.441406 37.457031 C 185.628906 37.457031 187.347656 36.402344 187.347656 35.035156 C 187.347656 32.535156 184.4375 32.535156 183.714844 32.535156 L 182.191406 32.535156 C 181.9375 32.535156 181.15625 32.535156 181.15625 31.578125 C 181.15625 31.1875 181.234375 31.070312 181.351562 30.914062 C 181.644531 31.128906 182.230469 31.441406 182.953125 31.441406 C 184.496094 31.441406 185.765625 30.171875 185.765625 28.53125 C 185.765625 27.886719 185.53125 27.222656 185.160156 26.734375 Z M 182.972656 30.445312 C 182.191406 30.445312 181.390625 29.917969 181.390625 28.550781 C 181.390625 26.949219 182.40625 26.636719 182.953125 26.636719 C 183.753906 26.636719 184.535156 27.164062 184.535156 28.53125 C 184.535156 30.132812 183.539062 30.445312 182.972656 30.445312 Z M 183.734375 33.824219 C 184.125 33.824219 186.097656 33.824219 186.097656 35.054688 C 186.097656 35.875 184.867188 36.480469 183.460938 36.480469 C 182.054688 36.480469 180.804688 35.914062 180.804688 35.035156 C 180.804688 34.996094 180.804688 33.824219 182.171875 33.824219 Z M 183.734375 33.824219 "/>
<path style=" stroke:none;fill-rule:nonzero;fill:rgb(0%,0%,0%);fill-opacity:1;" d="M 194.929688 28.53125 C 194.929688 26.8125 193.699219 25.5625 192.019531 25.5625 C 190.945312 25.5625 190.144531 25.796875 189.265625 26.304688 L 189.363281 27.496094 C 190.164062 26.910156 190.984375 26.597656 192.019531 26.597656 C 192.839844 26.597656 193.5625 27.261719 193.5625 28.570312 L 193.5625 29.3125 C 192.761719 29.332031 191.6875 29.390625 190.613281 29.742188 C 189.402344 30.171875 188.699219 30.835938 188.699219 31.714844 C 188.699219 32.515625 189.167969 33.960938 190.691406 33.960938 C 191.6875 33.960938 192.9375 33.667969 193.601562 33.121094 L 193.601562 33.785156 L 194.929688 33.785156 Z M 193.5625 31.382812 C 193.5625 31.734375 193.5625 32.164062 192.976562 32.535156 C 192.488281 32.828125 191.882812 32.886719 191.609375 32.886719 C 190.652344 32.886719 189.988281 32.359375 189.988281 31.714844 C 189.988281 30.484375 192.46875 30.210938 193.5625 30.210938 Z M 193.5625 31.382812 "/>
<path style=" stroke:none;fill-rule:nonzero;fill:rgb(0%,0%,0%);fill-opacity:1;" d="M 198.601562 29.859375 C 198.601562 28.042969 199.949219 26.871094 201.570312 26.851562 L 201.570312 25.640625 C 199.929688 25.660156 198.992188 26.617188 198.503906 27.320312 L 198.503906 25.738281 L 197.273438 25.738281 L 197.273438 33.785156 L 198.601562 33.785156 Z M 198.601562 29.859375 "/>
<path style=" stroke:none;fill-rule:nonzero;fill:rgb(0%,0%,0%);fill-opacity:1;" d="M 204.699219 21.617188 L 203.15625 21.617188 L 203.15625 23.160156 L 204.699219 23.160156 Z M 204.601562 25.816406 L 203.273438 25.816406 L 203.273438 33.785156 L 204.601562 33.785156 Z M 204.601562 25.816406 "/>
<path style=" stroke:none;fill-rule:nonzero;fill:rgb(0%,0%,0%);fill-opacity:1;" d="M 209.132812 26.871094 L 211.613281 26.871094 L 211.613281 25.816406 L 209.132812 25.816406 L 209.132812 23.550781 L 207.902344 23.550781 L 207.902344 25.816406 L 206.398438 25.816406 L 206.398438 26.871094 L 207.863281 26.871094 L 207.863281 31.695312 C 207.863281 32.730469 208.097656 33.960938 209.328125 33.960938 C 210.539062 33.960938 211.359375 33.550781 211.90625 33.257812 L 211.632812 32.222656 C 211.007812 32.789062 210.34375 32.847656 210.03125 32.847656 C 209.230469 32.847656 209.132812 32.007812 209.132812 31.382812 Z M 209.132812 26.871094 "/>
<path style=" stroke:none;fill-rule:nonzero;fill:rgb(0%,0%,0%);fill-opacity:1;" d="M 219.964844 28.394531 C 219.964844 27.300781 219.730469 25.640625 217.5625 25.640625 C 216.332031 25.640625 215.511719 26.34375 215.082031 26.890625 L 215.082031 21.34375 L 213.753906 21.34375 L 213.753906 33.785156 L 215.101562 33.785156 L 215.101562 29.3125 C 215.101562 28.21875 215.53125 26.714844 216.878906 26.714844 C 218.558594 26.714844 218.597656 27.886719 218.597656 28.511719 L 218.597656 33.785156 L 219.964844 33.785156 Z M 219.964844 28.394531 "/>
<path style=" stroke:none;fill-rule:nonzero;fill:rgb(0%,0%,0%);fill-opacity:1;" d="M 233.867188 28.394531 C 233.867188 27.144531 233.535156 25.640625 231.445312 25.640625 C 229.921875 25.640625 229.082031 26.695312 228.808594 27.105469 C 228.476562 25.972656 227.5 25.640625 226.5625 25.640625 C 225.097656 25.640625 224.316406 26.597656 224.023438 26.96875 L 224.023438 25.738281 L 222.753906 25.738281 L 222.753906 33.785156 L 224.101562 33.785156 L 224.101562 29.3125 C 224.101562 28.140625 224.570312 26.714844 225.878906 26.714844 C 227.539062 26.714844 227.617188 27.847656 227.617188 28.511719 L 227.617188 33.785156 L 228.984375 33.785156 L 228.984375 29.3125 C 228.984375 28.140625 229.453125 26.714844 230.761719 26.714844 C 232.402344 26.714844 232.5 27.847656 232.5 28.511719 L 232.5 33.785156 L 233.867188 33.785156 Z M 233.867188 28.394531 "/>
<path style=" stroke:none;fill-rule:nonzero;fill:rgb(0%,0%,0%);fill-opacity:1;" d="M 238.148438 21.617188 L 236.605469 21.617188 L 236.605469 23.160156 L 238.148438 23.160156 Z M 238.050781 25.816406 L 236.722656 25.816406 L 236.722656 33.785156 L 238.050781 33.785156 Z M 238.050781 25.816406 "/>
<path style=" stroke:none;fill-rule:nonzero;fill:rgb(0%,0%,0%);fill-opacity:1;" d="M 246.703125 31.851562 C 245.882812 32.515625 244.964844 32.847656 243.96875 32.847656 C 242.464844 32.847656 241.507812 31.519531 241.507812 29.78125 C 241.507812 28.296875 242.230469 26.675781 244.007812 26.675781 C 245.21875 26.675781 245.726562 26.949219 246.488281 27.476562 L 246.703125 26.304688 C 245.667969 25.699219 245.082031 25.5625 244.007812 25.5625 C 241.546875 25.5625 240.140625 27.75 240.140625 29.78125 C 240.140625 32.085938 241.800781 33.960938 243.949219 33.960938 C 244.828125 33.960938 245.824219 33.746094 246.820312 33.023438 C 246.820312 32.984375 246.761719 32.417969 246.742188 32.359375 Z M 246.703125 31.851562 "/>
<path style=" stroke:none;fill-rule:nonzero;fill:rgb(0%,0%,0%);fill-opacity:1;" d="M 263.324219 26.5 C 262.699219 28.746094 261.703125 30.425781 260.355469 31.597656 C 260.140625 31.363281 258.304688 29.195312 257.621094 27.613281 C 259.359375 26.070312 260.296875 24.898438 260.296875 23.746094 C 260.296875 22.4375 259.457031 20.972656 257.992188 20.972656 C 256.507812 20.972656 255.550781 22.554688 255.550781 24.488281 C 255.550781 26.050781 256.097656 27.4375 256.117188 27.535156 L 254.691406 28.824219 C 254.183594 29.273438 253.460938 29.9375 253.460938 31.1875 C 253.460938 32.75 254.769531 34.15625 256.683594 34.15625 C 257.230469 34.15625 258.636719 34.097656 260.160156 33.121094 C 261.390625 34.078125 262.386719 34.15625 263.011719 34.15625 C 263.1875 34.15625 263.96875 34.15625 265.023438 33.882812 L 265.023438 32.691406 C 264.320312 32.945312 263.539062 33.042969 263.03125 33.042969 C 262.777344 33.042969 262.054688 33.042969 261.175781 32.359375 C 263.109375 30.542969 263.988281 28.433594 264.417969 26.8125 Z M 257.191406 26.558594 C 256.820312 25.503906 256.722656 24.488281 256.722656 23.882812 C 256.722656 22.574219 257.40625 22.046875 257.992188 22.046875 C 258.910156 22.046875 259.046875 23.277344 259.046875 23.726562 C 259.046875 24.742188 258.128906 25.621094 257.191406 26.558594 Z M 256.566406 28.570312 C 257.503906 30.289062 258.578125 31.578125 259.300781 32.359375 C 258.753906 32.671875 257.757812 33.042969 256.703125 33.042969 C 255.414062 33.042969 254.808594 31.949219 254.808594 31.070312 C 254.808594 30.074219 255.257812 29.683594 256.566406 28.570312 Z M 256.566406 28.570312 "/>
<path style=" stroke:none;fill-rule:nonzero;fill:rgb(0%,0%,0%);fill-opacity:1;" d="M 2.734375 48.171875 L 5.214844 48.171875 L 5.214844 47.117188 L 2.734375 47.117188 L 2.734375 44.851562 L 1.503906 44.851562 L 1.503906 47.117188 L 0 47.117188 L 0 48.171875 L 1.464844 48.171875 L 1.464844 52.996094 C 1.464844 54.03125 1.699219 55.261719 2.929688 55.261719 C 4.140625 55.261719 4.960938 54.851562 5.507812 54.558594 L 5.234375 53.523438 C 4.609375 54.089844 3.945312 54.148438 3.632812 54.148438 C 2.832031 54.148438 2.734375 53.308594 2.734375 52.683594 Z M 2.734375 48.171875 "/>
<path style=" stroke:none;fill-rule:nonzero;fill:rgb(0%,0%,0%);fill-opacity:1;" d="M 8.703125 51.160156 C 8.703125 49.34375 10.050781 48.171875 11.671875 48.152344 L 11.671875 46.941406 C 10.03125 46.960938 9.09375 47.917969 8.605469 48.621094 L 8.605469 47.039062 L 7.375 47.039062 L 7.375 55.085938 L 8.703125 55.085938 Z M 8.703125 51.160156 "/>
<path style=" stroke:none;fill-rule:nonzero;fill:rgb(0%,0%,0%);fill-opacity:1;" d="M 14.800781 42.917969 L 13.257812 42.917969 L 13.257812 44.460938 L 14.800781 44.460938 Z M 14.703125 47.117188 L 13.375 47.117188 L 13.375 55.085938 L 14.703125 55.085938 Z M 14.703125 47.117188 "/>
<path style=" stroke:none;fill-rule:nonzero;fill:rgb(0%,0%,0%);fill-opacity:1;" d="M 22.28125 48.015625 C 22.28125 48.015625 22.320312 48.054688 22.339844 48.09375 C 22.710938 48.054688 23.101562 47.996094 23.765625 47.996094 C 23.824219 47.996094 24.234375 47.996094 24.683594 48.035156 L 24.488281 46.941406 C 24.15625 46.941406 22.925781 46.960938 21.734375 47.546875 C 21.148438 47.039062 20.425781 46.941406 20.074219 46.941406 C 18.511719 46.941406 17.261719 48.25 17.261719 49.832031 C 17.261719 50.476562 17.457031 51.0625 17.847656 51.609375 C 17.4375 52.175781 17.339844 52.722656 17.339844 53.152344 C 17.339844 53.816406 17.59375 54.265625 17.789062 54.5 C 16.871094 55.085938 16.65625 55.847656 16.65625 56.355469 C 16.65625 57.664062 18.355469 58.757812 20.542969 58.757812 C 22.730469 58.757812 24.449219 57.703125 24.449219 56.335938 C 24.449219 53.835938 21.539062 53.835938 20.816406 53.835938 L 19.292969 53.835938 C 19.039062 53.835938 18.257812 53.835938 18.257812 52.878906 C 18.257812 52.488281 18.335938 52.371094 18.453125 52.214844 C 18.746094 52.429688 19.332031 52.742188 20.054688 52.742188 C 21.597656 52.742188 22.867188 51.472656 22.867188 49.832031 C 22.867188 49.1875 22.632812 48.523438 22.261719 48.035156 Z M 20.074219 51.746094 C 19.292969 51.746094 18.492188 51.21875 18.492188 49.851562 C 18.492188 48.25 19.507812 47.9375 20.054688 47.9375 C 20.855469 47.9375 21.636719 48.464844 21.636719 49.832031 C 21.636719 51.433594 20.640625 51.746094 20.074219 51.746094 Z M 20.835938 55.125 C 21.226562 55.125 23.199219 55.125 23.199219 56.355469 C 23.199219 57.175781 21.96875 57.78125 20.5625 57.78125 C 19.15625 57.78125 17.90625 57.214844 17.90625 56.335938 C 17.90625 56.296875 17.90625 55.125 19.273438 55.125 Z M 20.835938 55.125 "/>
<path style=" stroke:none;fill-rule:nonzero;fill:rgb(0%,0%,0%);fill-opacity:1;" d="M 33.242188 51.140625 C 33.242188 48.71875 31.464844 46.863281 29.414062 46.863281 C 27.304688 46.863281 25.566406 48.757812 25.566406 51.140625 C 25.566406 53.484375 27.34375 55.261719 29.394531 55.261719 C 31.503906 55.261719 33.242188 53.445312 33.242188 51.140625 Z M 29.414062 54.148438 C 28.125 54.148438 26.914062 53.074219 26.914062 50.964844 C 26.914062 48.796875 28.261719 47.9375 29.394531 47.9375 C 30.625 47.9375 31.894531 48.855469 31.894531 50.964844 C 31.894531 53.171875 30.605469 54.148438 29.414062 54.148438 Z M 29.414062 54.148438 "/>
<path style=" stroke:none;fill-rule:nonzero;fill:rgb(0%,0%,0%);fill-opacity:1;" d="M 41.464844 49.695312 C 41.464844 48.601562 41.230469 46.941406 39.0625 46.941406 C 38.066406 46.941406 37.207031 47.390625 36.523438 48.25 L 36.523438 47.039062 L 35.253906 47.039062 L 35.253906 55.085938 L 36.601562 55.085938 L 36.601562 50.613281 C 36.601562 49.519531 37.03125 48.015625 38.378906 48.015625 C 40.058594 48.015625 40.097656 49.1875 40.097656 49.8125 L 40.097656 55.085938 L 41.464844 55.085938 Z M 41.464844 49.695312 "/>
<path style=" stroke:none;fill-rule:nonzero;fill:rgb(0%,0%,0%);fill-opacity:1;" d="M 51.089844 51.140625 C 51.089844 48.71875 49.3125 46.863281 47.261719 46.863281 C 45.152344 46.863281 43.414062 48.757812 43.414062 51.140625 C 43.414062 53.484375 45.191406 55.261719 47.242188 55.261719 C 49.351562 55.261719 51.089844 53.445312 51.089844 51.140625 Z M 47.261719 54.148438 C 45.972656 54.148438 44.761719 53.074219 44.761719 50.964844 C 44.761719 48.796875 46.109375 47.9375 47.242188 47.9375 C 48.472656 47.9375 49.742188 48.855469 49.742188 50.964844 C 49.742188 53.171875 48.453125 54.148438 47.261719 54.148438 Z M 47.261719 54.148438 "/>
<path style=" stroke:none;fill-rule:nonzero;fill:rgb(0%,0%,0%);fill-opacity:1;" d="M 64.21875 49.695312 C 64.21875 48.445312 63.886719 46.941406 61.796875 46.941406 C 60.273438 46.941406 59.433594 47.996094 59.160156 48.40625 C 58.828125 47.273438 57.851562 46.941406 56.914062 46.941406 C 55.449219 46.941406 54.667969 47.898438 54.375 48.269531 L 54.375 47.039062 L 53.105469 47.039062 L 53.105469 55.085938 L 54.453125 55.085938 L 54.453125 50.613281 C 54.453125 49.441406 54.921875 48.015625 56.230469 48.015625 C 57.890625 48.015625 57.96875 49.148438 57.96875 49.8125 L 57.96875 55.085938 L 59.335938 55.085938 L 59.335938 50.613281 C 59.335938 49.441406 59.804688 48.015625 61.113281 48.015625 C 62.753906 48.015625 62.851562 49.148438 62.851562 49.8125 L 62.851562 55.085938 L 64.21875 55.085938 Z M 64.21875 49.695312 "/>
<path style=" stroke:none;fill-rule:nonzero;fill:rgb(0%,0%,0%);fill-opacity:1;" d="M 72.972656 51.042969 C 72.972656 50.28125 72.894531 49.1875 72.328125 48.230469 C 71.585938 47 70.335938 46.863281 69.808594 46.863281 C 67.875 46.863281 66.253906 48.71875 66.253906 51.042969 C 66.253906 53.425781 67.972656 55.261719 70.0625 55.261719 C 70.882812 55.261719 71.878906 55.027344 72.855469 54.324219 C 72.855469 54.246094 72.796875 53.679688 72.796875 53.660156 C 72.777344 53.640625 72.757812 53.230469 72.757812 53.171875 C 71.683594 54.070312 70.628906 54.1875 70.101562 54.1875 C 68.714844 54.1875 67.523438 52.957031 67.503906 51.042969 Z M 67.601562 50.085938 C 67.914062 48.875 68.753906 47.9375 69.808594 47.9375 C 70.375 47.9375 71.605469 48.191406 71.898438 50.085938 Z M 67.601562 50.085938 "/>
<path style=" stroke:none;fill-rule:nonzero;fill:rgb(0%,0%,0%);fill-opacity:1;" d="M 76.535156 48.171875 L 79.015625 48.171875 L 79.015625 47.117188 L 76.535156 47.117188 L 76.535156 44.851562 L 75.304688 44.851562 L 75.304688 47.117188 L 73.800781 47.117188 L 73.800781 48.171875 L 75.265625 48.171875 L 75.265625 52.996094 C 75.265625 54.03125 75.5 55.261719 76.730469 55.261719 C 77.941406 55.261719 78.761719 54.851562 79.308594 54.558594 L 79.035156 53.523438 C 78.410156 54.089844 77.746094 54.148438 77.433594 54.148438 C 76.632812 54.148438 76.535156 53.308594 76.535156 52.683594 Z M 76.535156 48.171875 "/>
<path style=" stroke:none;fill-rule:nonzero;fill:rgb(0%,0%,0%);fill-opacity:1;" d="M 82.503906 51.160156 C 82.503906 49.34375 83.851562 48.171875 85.472656 48.152344 L 85.472656 46.941406 C 83.832031 46.960938 82.894531 47.917969 82.40625 48.621094 L 82.40625 47.039062 L 81.175781 47.039062 L 81.175781 55.085938 L 82.503906 55.085938 Z M 82.503906 51.160156 "/>
<path style=" stroke:none;fill-rule:nonzero;fill:rgb(0%,0%,0%);fill-opacity:1;" d="M 88.601562 42.917969 L 87.058594 42.917969 L 87.058594 44.460938 L 88.601562 44.460938 Z M 88.503906 47.117188 L 87.175781 47.117188 L 87.175781 55.085938 L 88.503906 55.085938 Z M 88.503906 47.117188 "/>
<path style=" stroke:none;fill-rule:nonzero;fill:rgb(0%,0%,0%);fill-opacity:1;" d="M 97.15625 53.152344 C 96.335938 53.816406 95.417969 54.148438 94.421875 54.148438 C 92.917969 54.148438 91.960938 52.820312 91.960938 51.082031 C 91.960938 49.597656 92.683594 47.976562 94.460938 47.976562 C 95.671875 47.976562 96.179688 48.25 96.941406 48.777344 L 97.15625 47.605469 C 96.121094 47 95.535156 46.863281 94.460938 46.863281 C 92 46.863281 90.59375 49.050781 90.59375 51.082031 C 90.59375 53.386719 92.253906 55.261719 94.402344 55.261719 C 95.28125 55.261719 96.277344 55.046875 97.273438 54.324219 C 97.273438 54.285156 97.214844 53.71875 97.195312 53.660156 Z M 97.15625 53.152344 "/>
<path style=" stroke:none;fill-rule:nonzero;fill:rgb(0%,0%,0%);fill-opacity:1;" d="M 106.421875 48.171875 L 108.335938 48.171875 L 108.335938 47.117188 L 106.382812 47.117188 L 106.382812 44.96875 C 106.382812 43.757812 107.398438 43.542969 108.003906 43.542969 C 108.628906 43.542969 109.175781 43.738281 109.390625 43.816406 L 109.390625 42.644531 C 109.273438 42.605469 108.667969 42.46875 108.023438 42.46875 C 106.304688 42.46875 105.09375 43.777344 105.09375 45.515625 L 105.09375 47.117188 L 103.785156 47.117188 L 103.785156 48.171875 L 105.09375 48.171875 L 105.09375 55.085938 L 106.421875 55.085938 Z M 106.421875 48.171875 "/>
<path style=" stroke:none;fill-rule:nonzero;fill:rgb(0%,0%,0%);fill-opacity:1;" d="M 116.316406 47.117188 L 114.949219 47.117188 L 114.949219 52.253906 C 114.949219 53.621094 114.011719 54.285156 112.839844 54.285156 C 111.589844 54.285156 111.453125 53.816406 111.453125 53.015625 L 111.453125 47.117188 L 110.105469 47.117188 L 110.105469 53.09375 C 110.105469 54.382812 110.515625 55.261719 111.980469 55.261719 C 112.488281 55.261719 113.894531 55.183594 114.988281 54.1875 L 114.988281 55.085938 L 116.316406 55.085938 Z M 116.316406 47.117188 "/>
<path style=" stroke:none;fill-rule:nonzero;fill:rgb(0%,0%,0%);fill-opacity:1;" d="M 125.316406 49.695312 C 125.316406 48.601562 125.082031 46.941406 122.914062 46.941406 C 121.917969 46.941406 121.058594 47.390625 120.375 48.25 L 120.375 47.039062 L 119.105469 47.039062 L 119.105469 55.085938 L 120.453125 55.085938 L 120.453125 50.613281 C 120.453125 49.519531 120.882812 48.015625 122.230469 48.015625 C 123.910156 48.015625 123.949219 49.1875 123.949219 49.8125 L 123.949219 55.085938 L 125.316406 55.085938 Z M 125.316406 49.695312 "/>
<path style=" stroke:none;fill-rule:nonzero;fill:rgb(0%,0%,0%);fill-opacity:1;" d="M 133.90625 53.152344 C 133.085938 53.816406 132.167969 54.148438 131.171875 54.148438 C 129.667969 54.148438 128.710938 52.820312 128.710938 51.082031 C 128.710938 49.597656 129.433594 47.976562 131.210938 47.976562 C 132.421875 47.976562 132.929688 48.25 133.691406 48.777344 L 133.90625 47.605469 C 132.871094 47 132.285156 46.863281 131.210938 46.863281 C 128.75 46.863281 127.34375 49.050781 127.34375 51.082031 C 127.34375 53.386719 129.003906 55.261719 131.152344 55.261719 C 132.03125 55.261719 133.027344 55.046875 134.023438 54.324219 C 134.023438 54.285156 133.964844 53.71875 133.945312 53.660156 Z M 133.90625 53.152344 "/>
<path style=" stroke:none;fill-rule:nonzero;fill:rgb(0%,0%,0%);fill-opacity:1;" d="M 137.582031 48.171875 L 140.0625 48.171875 L 140.0625 47.117188 L 137.582031 47.117188 L 137.582031 44.851562 L 136.351562 44.851562 L 136.351562 47.117188 L 134.847656 47.117188 L 134.847656 48.171875 L 136.3125 48.171875 L 136.3125 52.996094 C 136.3125 54.03125 136.546875 55.261719 137.777344 55.261719 C 138.988281 55.261719 139.808594 54.851562 140.355469 54.558594 L 140.082031 53.523438 C 139.457031 54.089844 138.792969 54.148438 138.480469 54.148438 C 137.679688 54.148438 137.582031 53.308594 137.582031 52.683594 Z M 137.582031 48.171875 "/>
<path style=" stroke:none;fill-rule:nonzero;fill:rgb(0%,0%,0%);fill-opacity:1;" d="M 143.648438 42.917969 L 142.105469 42.917969 L 142.105469 44.460938 L 143.648438 44.460938 Z M 143.550781 47.117188 L 142.222656 47.117188 L 142.222656 55.085938 L 143.550781 55.085938 Z M 143.550781 47.117188 "/>
<path style=" stroke:none;fill-rule:nonzero;fill:rgb(0%,0%,0%);fill-opacity:1;" d="M 153.238281 51.140625 C 153.238281 48.71875 151.460938 46.863281 149.410156 46.863281 C 147.300781 46.863281 145.5625 48.757812 145.5625 51.140625 C 145.5625 53.484375 147.339844 55.261719 149.390625 55.261719 C 151.5 55.261719 153.238281 53.445312 153.238281 51.140625 Z M 149.410156 54.148438 C 148.121094 54.148438 146.910156 53.074219 146.910156 50.964844 C 146.910156 48.796875 148.257812 47.9375 149.390625 47.9375 C 150.621094 47.9375 151.890625 48.855469 151.890625 50.964844 C 151.890625 53.171875 150.601562 54.148438 149.410156 54.148438 Z M 149.410156 54.148438 "/>
<path style=" stroke:none;fill-rule:nonzero;fill:rgb(0%,0%,0%);fill-opacity:1;" d="M 161.464844 49.695312 C 161.464844 48.601562 161.230469 46.941406 159.0625 46.941406 C 158.066406 46.941406 157.207031 47.390625 156.523438 48.25 L 156.523438 47.039062 L 155.253906 47.039062 L 155.253906 55.085938 L 156.601562 55.085938 L 156.601562 50.613281 C 156.601562 49.519531 157.03125 48.015625 158.378906 48.015625 C 160.058594 48.015625 160.097656 49.1875 160.097656 49.8125 L 160.097656 55.085938 L 161.464844 55.085938 Z M 161.464844 49.695312 "/>
<path style=" stroke:none;fill-rule:nonzero;fill:rgb(0%,0%,0%);fill-opacity:1;" d="M 168.882812 47.410156 C 167.75 46.882812 166.773438 46.863281 166.363281 46.863281 C 165.953125 46.863281 163.453125 46.863281 163.453125 49.1875 C 163.453125 49.96875 163.882812 50.515625 164.15625 50.769531 C 164.800781 51.316406 165.25 51.414062 166.304688 51.628906 C 166.910156 51.746094 167.945312 51.960938 167.945312 52.917969 C 167.945312 54.148438 166.539062 54.148438 166.285156 54.148438 C 165.582031 54.148438 164.527344 53.953125 163.570312 53.25 L 163.355469 54.480469 C 163.433594 54.539062 164.664062 55.261719 166.304688 55.261719 C 168.628906 55.261719 169.175781 53.875 169.175781 52.800781 C 169.175781 51.902344 168.628906 51.316406 168.550781 51.238281 C 167.886719 50.554688 167.339844 50.4375 166.265625 50.222656 C 165.601562 50.105469 164.703125 49.929688 164.703125 49.03125 C 164.703125 47.917969 165.953125 47.917969 166.1875 47.917969 C 167.125 47.917969 167.886719 48.132812 168.667969 48.582031 Z M 168.882812 47.410156 "/>
<path style=" stroke:none;fill-rule:nonzero;fill:rgb(0%,0%,0%);fill-opacity:1;" d="M 182.621094 51.042969 C 182.621094 50.28125 182.542969 49.1875 181.976562 48.230469 C 181.234375 47 179.984375 46.863281 179.457031 46.863281 C 177.523438 46.863281 175.902344 48.71875 175.902344 51.042969 C 175.902344 53.425781 177.621094 55.261719 179.710938 55.261719 C 180.53125 55.261719 181.527344 55.027344 182.503906 54.324219 C 182.503906 54.246094 182.445312 53.679688 182.445312 53.660156 C 182.425781 53.640625 182.40625 53.230469 182.40625 53.171875 C 181.332031 54.070312 180.277344 54.1875 179.75 54.1875 C 178.363281 54.1875 177.171875 52.957031 177.152344 51.042969 Z M 177.25 50.085938 C 177.5625 48.875 178.402344 47.9375 179.457031 47.9375 C 180.023438 47.9375 181.253906 48.191406 181.546875 50.085938 Z M 177.25 50.085938 "/>
<path style=" stroke:none;fill-rule:nonzero;fill:rgb(0%,0%,0%);fill-opacity:1;" d="M 186.183594 48.171875 L 188.664062 48.171875 L 188.664062 47.117188 L 186.183594 47.117188 L 186.183594 44.851562 L 184.953125 44.851562 L 184.953125 47.117188 L 183.449219 47.117188 L 183.449219 48.171875 L 184.914062 48.171875 L 184.914062 52.996094 C 184.914062 54.03125 185.148438 55.261719 186.378906 55.261719 C 187.589844 55.261719 188.410156 54.851562 188.957031 54.558594 L 188.683594 53.523438 C 188.058594 54.089844 187.394531 54.148438 187.082031 54.148438 C 186.28125 54.148438 186.183594 53.308594 186.183594 52.683594 Z M 186.183594 48.171875 "/>
<path style=" stroke:none;fill-rule:nonzero;fill:rgb(0%,0%,0%);fill-opacity:1;" d="M 196.605469 53.152344 C 195.785156 53.816406 194.867188 54.148438 193.871094 54.148438 C 192.367188 54.148438 191.410156 52.820312 191.410156 51.082031 C 191.410156 49.597656 192.132812 47.976562 193.910156 47.976562 C 195.121094 47.976562 195.628906 48.25 196.390625 48.777344 L 196.605469 47.605469 C 195.570312 47 194.984375 46.863281 193.910156 46.863281 C 191.449219 46.863281 190.042969 49.050781 190.042969 51.082031 C 190.042969 53.386719 191.703125 55.261719 193.851562 55.261719 C 194.730469 55.261719 195.726562 55.046875 196.722656 54.324219 C 196.722656 54.285156 196.664062 53.71875 196.644531 53.660156 Z M 196.605469 53.152344 "/>
<path style=" stroke:none;fill-rule:nonzero;fill:rgb(0%,0%,0%);fill-opacity:1;" d="M 200.382812 53.640625 L 198.917969 53.640625 L 198.917969 55.085938 L 200.382812 55.085938 Z M 200.382812 53.640625 "/>
</g>
</svg>
