<?xml version="1.0" encoding="UTF-8"?>
<svg width="869" height="473" xmlns="http://www.w3.org/2000/svg" xmlns:svg="http://www.w3.org/2000/svg" class="main-svg">
 <defs>
  <g id="svg_137" class="clips">
   <clipPath id="clipb78675x" class="axesclip">
    <rect id="svg_138" height="473" width="632" y="0" x="80"/>
   </clipPath>
   <clipPath id="clipb78675y" class="axesclip">
    <rect id="svg_139" height="293" width="869" y="100" x="0"/>
   </clipPath>
   <clipPath id="clipb78675xy" class="axesclip">
    <rect id="svg_140" height="293" width="632" y="100" x="80"/>
   </clipPath>
  </g>
 </defs>
 <g>
  <title>Layer 1</title>
  <rect id="svg_141" fill="rgb(255, 255, 255)" height="473" width="708.77814" y="0" x="31.22967"/>
  <g id="svg_142" class="draglayer">
   <g id="svg_143"/>
  </g>
  <g id="svg_144" class="subplot xy">
   <rect id="svg_145" stroke-width="0px" fill="rgb(255, 255, 255)" height="293" width="632" y="100" x="80"/>
   <g id="svg_146">
    <path id="svg_147" stroke="rgb(238, 238, 238)" stroke-width="1px" d="m211.470001,100l0,293" class="xgrid crisp"/>
    <path id="svg_148" stroke="rgb(238, 238, 238)" stroke-width="1px" d="m303.72998,100l0,293" class="xgrid crisp"/>
    <path id="svg_149" stroke="rgb(238, 238, 238)" stroke-width="1px" d="m396,100l0,293" class="xgrid crisp"/>
    <path id="svg_150" stroke="rgb(238, 238, 238)" stroke-width="1px" d="m488.269989,100l0,293" class="xgrid crisp"/>
    <path id="svg_151" stroke="rgb(238, 238, 238)" stroke-width="1px" d="m580.530029,100l0,293" class="xgrid crisp"/>
    <path id="svg_152" stroke="rgb(238, 238, 238)" stroke-width="1px" d="m672.799988,100l0,293" class="xgrid crisp"/>
    <path id="svg_153" stroke="rgb(238, 238, 238)" stroke-width="1px" d="m80,374.600006l632,0" class="ygrid crisp"/>
    <path id="svg_154" stroke="rgb(238, 238, 238)" stroke-width="1px" d="m80,272.119995l632,0" class="ygrid crisp"/>
    <path id="svg_155" stroke="rgb(238, 238, 238)" stroke-width="1px" d="m80,220.880005l632,0" class="ygrid crisp"/>
    <path id="svg_156" stroke="rgb(238, 238, 238)" stroke-width="1px" d="m80,169.639999l632,0" class="ygrid crisp"/>
    <path id="svg_157" stroke="rgb(238, 238, 238)" stroke-width="1px" d="m80,118.400002l632,0" class="ygrid crisp"/>
   </g>
   <g id="svg_158"/>
   <g id="svg_159">
    <path id="svg_160" stroke="rgb(68, 68, 68)" stroke-width="1px" d="m119.199997,100l0,293" class="xzl zl crisp"/>
    <path id="svg_161" stroke="rgb(68, 68, 68)" stroke-width="1px" d="m80,323.359985l632,0" class="yzl zl crisp"/>
   </g>
   <g id="svg_162"/>
   <g id="svg_44">
    <svg id="svg_45" viewBox="0 0 632 293" height="293" width="632" y="100" x="80" preserveAspectRatio="none">
     <g id="svg_87" class="maplayer"/>
     <g id="svg_86" class="barlayer"/>
     <g id="svg_81" class="errorlayer">
      <g id="svg_85" class="errorbars"/>
      <g id="svg_84" class="errorbars"/>
      <g id="svg_83" class="errorbars"/>
      <g id="svg_82" class="errorbars"/>
     </g>
     <g id="svg_80" class="boxlayer"/>
     <g id="svg_46" class="scatterlayer">
      <g id="svg_72" stroke-miterlimit="2" class="trace scatter">
       <path id="svg_79" fill="none" stroke="rgb(31, 119, 180)" stroke-width="2px" d="m39.200001,172.119995l553.599987,51.240005" class="js-line"/>
       <g id="svg_73" class="points">
        <path id="svg_78" stroke-width="0px" fill="rgb(31, 119, 180)" d="m42.200001,172.119995a3,3 0 1 1 -3,-3a3,3 0 0 1 3,3z" class="point"/>
        <path id="svg_77" stroke-width="0px" fill="rgb(31, 119, 180)" d="m226.729996,189.199997a3,3 0 1 1 -3,-3a3,3 0 0 1 3,3z" class="point"/>
        <path id="svg_76" stroke-width="0px" fill="rgb(31, 119, 180)" d="m319,197.740005a3,3 0 1 1 -3,-3a3,3 0 0 1 3,3z" class="point"/>
        <path id="svg_75" stroke-width="0px" fill="rgb(31, 119, 180)" d="m411.269989,206.279999a3,3 0 1 1 -3,-3a3,3 0 0 1 3,3z" class="point"/>
        <path id="svg_74" stroke-width="0px" fill="rgb(31, 119, 180)" d="m595.799988,223.360001a3,3 0 1 1 -3,-3a3,3 0 0 1 3,3z" class="point"/>
       </g>
      </g>
      <g id="svg_64" stroke-miterlimit="2" class="trace scatter">
       <path id="svg_71" fill="none" stroke="rgb(255, 127, 14)" stroke-width="2px" d="m39.200001,120.879997l553.599987,153.720009" class="js-line"/>
       <g id="svg_65" class="points">
        <path id="svg_70" stroke-width="0px" fill="rgb(255, 127, 14)" d="m42.200001,120.879997a3,3 0 1 1 -3,-3a3,3 0 0 1 3,3z" class="point"/>
        <path id="svg_69" stroke-width="0px" fill="rgb(255, 127, 14)" d="m226.729996,172.119995a3,3 0 1 1 -3,-3a3,3 0 0 1 3,3z" class="point"/>
        <path id="svg_68" stroke-width="0px" fill="rgb(255, 127, 14)" d="m319,197.740005a3,3 0 1 1 -3,-3a3,3 0 0 1 3,3z" class="point"/>
        <path id="svg_67" stroke-width="0px" fill="rgb(255, 127, 14)" d="m411.269989,223.360001a3,3 0 1 1 -3,-3a3,3 0 0 1 3,3z" class="point"/>
        <path id="svg_66" stroke-width="0px" fill="rgb(255, 127, 14)" d="m595.799988,274.600006a3,3 0 1 1 -3,-3a3,3 0 0 1 3,3z" class="point"/>
       </g>
      </g>
      <g id="svg_55" stroke-miterlimit="2" class="trace scatter">
       <path id="svg_63" stroke-width="0px" fill="rgb(0, 0, 0)" fill-opacity="0.5" d="m39.200001,18.4l553.599987,0l0,204.960016l-184.529999,-17.080002l-92.269989,-8.539978l-276.799999,-76.860016l0,-102.480011l0,-0.00001z" class="js-fill"/>
       <path id="svg_62" fill="none" stroke="rgb(0, 0, 0)" stroke-opacity="0" stroke-width="2px" d="m39.200001,120.879997l276.799999,76.860008l92.269989,8.539993l184.529999,17.080002" class="js-line"/>
       <g id="svg_56" class="points">
        <path id="svg_61" stroke-width="0px" fill="rgb(0, 0, 0)" fill-opacity="0" d="m42.200001,120.879997a3,3 0 1 1 -3,-3a3,3 0 0 1 3,3z" class="point"/>
        <path id="svg_60" stroke-width="0px" fill="rgb(0, 0, 0)" fill-opacity="0" d="m226.729996,172.119995a3,3 0 1 1 -3,-3a3,3 0 0 1 3,3z" class="point"/>
        <path id="svg_59" stroke-width="0px" fill="rgb(0, 0, 0)" fill-opacity="0" d="m319,197.740005a3,3 0 1 1 -3,-3a3,3 0 0 1 3,3z" class="point"/>
        <path id="svg_58" stroke-width="0px" fill="rgb(0, 0, 0)" fill-opacity="0" d="m411.269989,206.279999a3,3 0 1 1 -3,-3a3,3 0 0 1 3,3z" class="point"/>
        <path id="svg_57" stroke-width="0px" fill="rgb(0, 0, 0)" fill-opacity="0" d="m595.799988,223.360001a3,3 0 1 1 -3,-3a3,3 0 0 1 3,3z" class="point"/>
       </g>
      </g>
      <g id="svg_47" stroke-miterlimit="2" class="trace scatter">
       <path id="svg_54" fill="none" stroke="rgb(0, 0, 0)" stroke-opacity="0" stroke-width="2px" d="m39.200001,18.4l553.599987,0" class="js-line"/>
       <g id="svg_48" class="points">
        <path id="svg_53" stroke-width="0px" fill="rgb(0, 0, 0)" fill-opacity="0" d="m42.200001,18.4a3,3 0 1 1 -3,-3a3,3 0 0 1 3,3z" class="point"/>
        <path id="svg_52" stroke-width="0px" fill="rgb(0, 0, 0)" fill-opacity="0" d="m226.729996,18.4a3,3 0 1 1 -3,-3a3,3 0 0 1 3,3z" class="point"/>
        <path id="svg_51" stroke-width="0px" fill="rgb(0, 0, 0)" fill-opacity="0" d="m319,18.4a3,3 0 1 1 -3,-3a3,3 0 0 1 3,3z" class="point"/>
        <path id="svg_50" stroke-width="0px" fill="rgb(0, 0, 0)" fill-opacity="0" d="m411.269989,18.4a3,3 0 1 1 -3,-3a3,3 0 0 1 3,3z" class="point"/>
        <path id="svg_49" stroke-width="0px" fill="rgb(0, 0, 0)" fill-opacity="0" d="m595.799988,18.4a3,3 0 1 1 -3,-3a3,3 0 0 1 3,3z" class="point"/>
       </g>
      </g>
     </g>
    </svg>
   </g>
   <g id="svg_206"/>
   <path id="svg_207" fill="none" stroke-width="1px" stroke="rgb(0, 0, 0)" stroke-opacity="0" d="m79,393.5l634,0" class="crisp"/>
   <path id="svg_208" fill="none" stroke="rgb(0, 0, 0)" stroke-opacity="0" stroke-width="1px" d="m79.5,99l0,294" class="crisp"/>
   <g id="svg_209"/>
   <g id="svg_210">
    <g id="svg_211" class="xtick">
     <text id="svg_212" font-family="'Open sans', verdana, arial, sans-serif" font-size="12px" fill="rgb(68, 68, 68)" y="407" x="119.2" text-anchor="middle">0</text>
    </g>
    <g id="svg_213" class="xtick">
     <text id="svg_214" font-family="'Open sans', verdana, arial, sans-serif" font-size="12px" fill="rgb(68, 68, 68)" y="407" x="211.47" text-anchor="middle">0.5</text>
    </g>
    <g id="svg_215" class="xtick">
     <text id="svg_216" font-family="'Open sans', verdana, arial, sans-serif" font-size="12px" fill="rgb(68, 68, 68)" y="407" x="303.73" text-anchor="middle">1</text>
    </g>
    <g id="svg_217" class="xtick">
     <text id="svg_218" font-family="'Open sans', verdana, arial, sans-serif" font-size="12px" fill="rgb(68, 68, 68)" y="407" x="396" text-anchor="middle">1.5</text>
    </g>
    <g id="svg_219" class="xtick">
     <text id="svg_220" font-family="'Open sans', verdana, arial, sans-serif" font-size="12px" fill="rgb(68, 68, 68)" y="407" x="488.26999" text-anchor="middle">2</text>
    </g>
    <g id="svg_221" class="xtick">
     <text id="svg_222" font-family="'Open sans', verdana, arial, sans-serif" font-size="12px" fill="rgb(68, 68, 68)" y="407" x="580.53" text-anchor="middle">2.5</text>
    </g>
    <g id="svg_223" class="xtick">
     <text id="svg_224" font-family="'Open sans', verdana, arial, sans-serif" font-size="12px" fill="rgb(68, 68, 68)" y="407" x="672.79999" text-anchor="middle">3</text>
    </g>
   </g>
   <g id="svg_225">
    <g id="svg_226" class="ytick">
     <text id="svg_227" font-family="'Open sans', verdana, arial, sans-serif" font-size="12px" fill="rgb(68, 68, 68)" y="380.60001" x="78" text-anchor="end">−1</text>
    </g>
    <g id="svg_228" class="ytick">
     <text id="svg_229" font-family="'Open sans', verdana, arial, sans-serif" font-size="12px" fill="rgb(68, 68, 68)" y="329.36" x="78" text-anchor="end">0</text>
    </g>
    <g id="svg_230" class="ytick">
     <text id="svg_231" font-family="'Open sans', verdana, arial, sans-serif" font-size="12px" fill="rgb(68, 68, 68)" y="278.12" x="78" text-anchor="end">1</text>
    </g>
    <g id="svg_232" class="ytick">
     <text id="svg_233" font-family="'Open sans', verdana, arial, sans-serif" font-size="12px" fill="rgb(68, 68, 68)" y="226.88" x="78" text-anchor="end">2</text>
    </g>
    <g id="svg_234" class="ytick">
     <text id="svg_235" font-family="'Open sans', verdana, arial, sans-serif" font-size="12px" fill="rgb(68, 68, 68)" y="175.64" x="78" text-anchor="end">3</text>
    </g>
    <g id="svg_236" class="ytick">
     <text id="svg_237" font-family="'Open sans', verdana, arial, sans-serif" font-size="12px" fill="rgb(68, 68, 68)" y="124.4" x="78" text-anchor="end">4</text>
    </g>
   </g>
   <g id="svg_238"/>
  </g>
  <g id="svg_239" class="shapelayer"/>
  <g id="svg_240" class="glimages"/>
  <text id="svg_241" font-family="'Open Sans', Arial, sans-serif" font-size="12px" fill="rgb(68, 68, 68)" x="862" text-anchor="end" y="464" class="js-plot-link-container"/>
 </g>
</svg>