<?xml version="1.0" encoding="UTF-8"?>
<svg width="300" height="200" xmlns="http://www.w3.org/2000/svg" xmlns:svg="http://www.w3.org/2000/svg" class="main-svg">
 <!-- Created with SVG-edit - http://svg-edit.googlecode.com/ -->

 <g>
  <title>Layer 1</title>
  <line fill="none" stroke="#ff7f00" x1="50" y1="150" x2="180" y2="35" id="svg_4"/>
  <line fill="none" stroke="#ff7f00" x1="175" y1="35" x2="180" y2="35" id="svg_41"/>
  <line fill="none" stroke="#ff7f00" x1="180" y1="40" x2="180" y2="35" id="svg_42"/>
  <text fill="#000000" stroke-width="0" x="100" y="80" id="svg_5" font-size="24" font-family="sans-serif" text-anchor="middle" xml:space="preserve">v</text>
  <line fill="none" stroke="#000000" x1="92" y1="63" x2="108" y2="63" id="svg_51"/>
  <line fill="none" stroke="#000000" x1="105" y1="60" x2="108" y2="63" id="svg_52"/>
  <line fill="none" stroke="#000000" x1="105" y1="66" x2="108" y2="63" id="svg_53"/>
  <line fill="none" stroke="#676767" x1="50" y1="150" x2="240" y2="150" id="svg_6"/>
  <line fill="none" stroke="#ff7f00" stroke-dasharray="5,5" x1="180" y1="35" x2="180" y2="150" id="svg_8"/>
  <text fill="#000000" stroke-width="0" x="268" y="155" id="svg_7" font-size="14" font-family="sans-serif" text-anchor="middle" xml:space="preserve">x-axis</text>
  <line fill="none" stroke="#000000" x1="235" y1="145" x2="240" y2="150" id="svg_10"/>
  <line fill="none" stroke="#000000" x1="235" y1="155" x2="240" y2="150" id="svg_11"/>
  <text fill="#000000" stroke-width="0" x="115" y="178" id="svg_13" font-size="14" font-family="sans-serif" text-anchor="middle" xml:space="preserve">|v|cosθ</text>
  <line fill="none" stroke="#000000" x1="50" y1="172" x2="80" y2="172" id="svg_14"/>
  <line fill="none" stroke="#000000" x1="50" y1="172" x2="55" y2="167" id="svg_141"/>
  <line fill="none" stroke="#000000" x1="50" y1="172" x2="55" y2="177" id="svg_142"/>
  <line fill="none" stroke="#000000" x1="150" y1="172" x2="180" y2="172" id="svg_15"/>
  <line fill="none" stroke="#000000" x1="175" y1="167" x2="180" y2="172" id="svg_151"/>
  <line fill="none" stroke="#000000" x1="175" y1="177" x2="180" y2="172" id="svg_152"/>
  <text fill="#000000" stroke-width="0" x="75" y="145" font-size="14" font-family="sans-serif" text-anchor="middle" xml:space="preserve">θ</text>
 </g>
</svg>
