<?xml version="1.0" encoding="UTF-8"?>
<svg xmlns="http://www.w3.org/2000/svg" xmlns:xlink="http://www.w3.org/1999/xlink" width="306.76321pt" height="64.450006pt" viewBox="0 0 306.76321 64.450006" version="1.1">
<g id="surface1">
<path style=" stroke:none;fill-rule:nonzero;fill:rgb(0%,0%,0%);fill-opacity:1;" d="M 6.855469 7.773438 L 6.855469 6.699219 L 1.542969 6.699219 L 1.542969 2.148438 L 3.847656 2.148438 C 4.0625 2.148438 4.277344 2.167969 4.492188 2.167969 L 7.597656 2.167969 L 7.597656 1.035156 L 0 1.035156 L 0 13.4375 L 1.542969 13.4375 L 1.542969 7.773438 Z M 6.855469 7.773438 "/>
<path style=" stroke:none;fill-rule:nonzero;fill:rgb(0%,0%,0%);fill-opacity:1;" d="M 16.050781 9.492188 C 16.050781 7.070312 14.273438 5.214844 12.222656 5.214844 C 10.113281 5.214844 8.375 7.109375 8.375 9.492188 C 8.375 11.835938 10.152344 13.613281 12.203125 13.613281 C 14.3125 13.613281 16.050781 11.796875 16.050781 9.492188 Z M 12.222656 12.5 C 10.933594 12.5 9.722656 11.425781 9.722656 9.316406 C 9.722656 7.148438 11.070312 6.289062 12.203125 6.289062 C 13.433594 6.289062 14.703125 7.207031 14.703125 9.316406 C 14.703125 11.523438 13.414062 12.5 12.222656 12.5 Z M 12.222656 12.5 "/>
<path style=" stroke:none;fill-rule:nonzero;fill:rgb(0%,0%,0%);fill-opacity:1;" d="M 18.964844 9.511719 C 18.964844 7.695312 20.3125 6.523438 21.933594 6.503906 L 21.933594 5.292969 C 20.292969 5.3125 19.355469 6.269531 18.867188 6.972656 L 18.867188 5.390625 L 17.636719 5.390625 L 17.636719 13.4375 L 18.964844 13.4375 Z M 18.964844 9.511719 "/>
<path style=" stroke:none;fill-rule:nonzero;fill:rgb(0%,0%,0%);fill-opacity:1;" d="M 36.066406 6.230469 C 36.4375 6.230469 36.574219 6.230469 36.574219 5.898438 C 36.574219 5.703125 36.4375 5.703125 36.105469 5.703125 L 34.660156 5.703125 C 34.992188 3.867188 35.246094 2.597656 35.402344 2.011719 C 35.5 1.582031 35.871094 1.171875 36.339844 1.171875 C 36.710938 1.171875 37.101562 1.328125 37.277344 1.503906 C 36.574219 1.5625 36.359375 2.089844 36.359375 2.402344 C 36.359375 2.753906 36.632812 2.96875 36.964844 2.96875 C 37.335938 2.96875 37.863281 2.65625 37.863281 1.972656 C 37.863281 1.230469 37.121094 0.820312 36.320312 0.820312 C 35.558594 0.820312 34.796875 1.386719 34.445312 2.089844 C 34.113281 2.714844 33.9375 3.359375 33.527344 5.703125 L 32.335938 5.703125 C 31.984375 5.703125 31.808594 5.703125 31.808594 6.035156 C 31.808594 6.230469 31.90625 6.230469 32.277344 6.230469 L 33.429688 6.230469 C 33.097656 7.890625 32.355469 11.953125 31.945312 13.867188 C 31.652344 15.429688 31.378906 16.738281 30.480469 16.738281 C 30.421875 16.738281 29.914062 16.738281 29.582031 16.386719 C 30.5 16.328125 30.5 15.527344 30.5 15.507812 C 30.5 15.15625 30.226562 14.941406 29.894531 14.941406 C 29.523438 14.941406 28.996094 15.253906 28.996094 15.9375 C 28.996094 16.699219 29.777344 17.089844 30.480469 17.089844 C 32.316406 17.089844 33.058594 13.808594 33.253906 12.910156 C 33.585938 11.542969 34.464844 6.777344 34.542969 6.230469 Z M 36.066406 6.230469 "/>
<path style=" stroke:none;fill-rule:nonzero;fill:rgb(0%,0%,0%);fill-opacity:1;" d="M 44.550781 17.792969 C 44.550781 17.734375 44.550781 17.695312 44.257812 17.402344 C 42.460938 15.585938 41.464844 12.636719 41.464844 8.964844 C 41.464844 5.488281 42.304688 2.5 44.375 0.390625 C 44.550781 0.214844 44.550781 0.195312 44.550781 0.136719 C 44.550781 0.0195312 44.472656 0 44.394531 0 C 44.160156 0 42.695312 1.289062 41.816406 3.046875 C 40.898438 4.84375 40.488281 6.777344 40.488281 8.964844 C 40.488281 10.566406 40.742188 12.695312 41.679688 14.628906 C 42.734375 16.777344 44.199219 17.929688 44.394531 17.929688 C 44.472656 17.929688 44.550781 17.910156 44.550781 17.792969 Z M 44.550781 17.792969 "/>
<path style=" stroke:none;fill-rule:nonzero;fill:rgb(0%,0%,0%);fill-opacity:1;" d="M 54.125 6.113281 C 53.558594 6.230469 53.34375 6.660156 53.34375 6.992188 C 53.34375 7.421875 53.675781 7.578125 53.929688 7.578125 C 54.476562 7.578125 54.847656 7.109375 54.847656 6.621094 C 54.847656 5.878906 53.988281 5.527344 53.226562 5.527344 C 52.132812 5.527344 51.527344 6.601562 51.371094 6.953125 C 50.960938 5.605469 49.847656 5.527344 49.515625 5.527344 C 47.699219 5.527344 46.722656 7.871094 46.722656 8.28125 C 46.722656 8.339844 46.800781 8.4375 46.917969 8.4375 C 47.054688 8.4375 47.09375 8.320312 47.132812 8.261719 C 47.738281 6.269531 48.949219 5.898438 49.457031 5.898438 C 50.277344 5.898438 50.433594 6.640625 50.433594 7.070312 C 50.433594 7.460938 50.335938 7.871094 50.101562 8.730469 L 49.496094 11.191406 C 49.242188 12.265625 48.714844 13.261719 47.757812 13.261719 C 47.679688 13.261719 47.230469 13.261719 46.839844 13.027344 C 47.484375 12.890625 47.640625 12.363281 47.640625 12.148438 C 47.640625 11.796875 47.367188 11.582031 47.035156 11.582031 C 46.605469 11.582031 46.136719 11.953125 46.136719 12.519531 C 46.136719 13.28125 46.976562 13.613281 47.738281 13.613281 C 48.597656 13.613281 49.222656 12.929688 49.59375 12.207031 C 49.886719 13.261719 50.765625 13.613281 51.429688 13.613281 C 53.265625 13.613281 54.242188 11.269531 54.242188 10.878906 C 54.242188 10.78125 54.164062 10.703125 54.046875 10.703125 C 53.890625 10.703125 53.871094 10.800781 53.832031 10.9375 C 53.34375 12.519531 52.289062 13.261719 51.488281 13.261719 C 50.863281 13.261719 50.53125 12.792969 50.53125 12.050781 C 50.53125 11.660156 50.589844 11.367188 50.882812 10.195312 L 51.507812 7.753906 C 51.78125 6.679688 52.386719 5.898438 53.207031 5.898438 C 53.246094 5.898438 53.753906 5.898438 54.125 6.113281 Z M 54.125 6.113281 "/>
<path style=" stroke:none;fill-rule:nonzero;fill:rgb(0%,0%,0%);fill-opacity:1;" d="M 60.738281 8.964844 C 60.738281 7.617188 60.5625 5.390625 59.546875 3.300781 C 58.492188 1.152344 57.027344 0 56.832031 0 C 56.753906 0 56.65625 0.0195312 56.65625 0.136719 C 56.65625 0.195312 56.65625 0.214844 56.96875 0.527344 C 58.765625 2.34375 59.761719 5.292969 59.761719 8.964844 C 59.761719 12.441406 58.921875 15.429688 56.851562 17.539062 C 56.65625 17.695312 56.65625 17.734375 56.65625 17.792969 C 56.65625 17.910156 56.753906 17.929688 56.832031 17.929688 C 57.066406 17.929688 58.53125 16.640625 59.410156 14.882812 C 60.328125 13.066406 60.738281 11.132812 60.738281 8.964844 Z M 60.738281 8.964844 "/>
<path style=" stroke:none;fill-rule:nonzero;fill:rgb(0%,0%,0%);fill-opacity:1;" d="M 71.195312 6.523438 L 73.675781 6.523438 L 73.675781 5.46875 L 71.195312 5.46875 L 71.195312 3.203125 L 69.964844 3.203125 L 69.964844 5.46875 L 68.460938 5.46875 L 68.460938 6.523438 L 69.925781 6.523438 L 69.925781 11.347656 C 69.925781 12.382812 70.160156 13.613281 71.390625 13.613281 C 72.601562 13.613281 73.421875 13.203125 73.96875 12.910156 L 73.695312 11.875 C 73.070312 12.441406 72.40625 12.5 72.09375 12.5 C 71.292969 12.5 71.195312 11.660156 71.195312 11.035156 Z M 71.195312 6.523438 "/>
<path style=" stroke:none;fill-rule:nonzero;fill:rgb(0%,0%,0%);fill-opacity:1;" d="M 82.652344 9.492188 C 82.652344 7.070312 80.875 5.214844 78.824219 5.214844 C 76.714844 5.214844 74.976562 7.109375 74.976562 9.492188 C 74.976562 11.835938 76.753906 13.613281 78.804688 13.613281 C 80.914062 13.613281 82.652344 11.796875 82.652344 9.492188 Z M 78.824219 12.5 C 77.535156 12.5 76.324219 11.425781 76.324219 9.316406 C 76.324219 7.148438 77.671875 6.289062 78.804688 6.289062 C 80.035156 6.289062 81.304688 7.207031 81.304688 9.316406 C 81.304688 11.523438 80.015625 12.5 78.824219 12.5 Z M 78.824219 12.5 "/>
<path style=" stroke:none;fill-rule:nonzero;fill:rgb(0%,0%,0%);fill-opacity:1;" d="M 91.714844 0.996094 L 90.386719 0.996094 L 90.386719 13.4375 L 91.734375 13.4375 L 91.734375 12.636719 C 92.574219 13.417969 93.453125 13.613281 94.078125 13.613281 C 95.777344 13.613281 97.339844 11.875 97.339844 9.433594 C 97.339844 7.226562 96.148438 5.292969 94.488281 5.292969 C 93.960938 5.292969 92.808594 5.410156 91.714844 6.308594 Z M 91.734375 7.402344 C 92.066406 6.894531 92.710938 6.367188 93.589844 6.367188 C 94.683594 6.367188 95.972656 7.207031 95.972656 9.433594 C 95.972656 11.777344 94.507812 12.539062 93.414062 12.539062 C 92.90625 12.539062 92.574219 12.363281 92.242188 12.109375 C 91.8125 11.738281 91.734375 11.40625 91.734375 11.113281 Z M 91.734375 7.402344 "/>
<path style=" stroke:none;fill-rule:nonzero;fill:rgb(0%,0%,0%);fill-opacity:1;" d="M 105.734375 9.394531 C 105.734375 8.632812 105.65625 7.539062 105.089844 6.582031 C 104.347656 5.351562 103.097656 5.214844 102.570312 5.214844 C 100.636719 5.214844 99.015625 7.070312 99.015625 9.394531 C 99.015625 11.777344 100.734375 13.613281 102.824219 13.613281 C 103.644531 13.613281 104.640625 13.378906 105.617188 12.675781 C 105.617188 12.597656 105.558594 12.03125 105.558594 12.011719 C 105.539062 11.992188 105.519531 11.582031 105.519531 11.523438 C 104.445312 12.421875 103.390625 12.539062 102.863281 12.539062 C 101.476562 12.539062 100.285156 11.308594 100.265625 9.394531 Z M 100.363281 8.4375 C 100.675781 7.226562 101.515625 6.289062 102.570312 6.289062 C 103.136719 6.289062 104.367188 6.542969 104.660156 8.4375 Z M 100.363281 8.4375 "/>
<path style=" stroke:none;fill-rule:nonzero;fill:rgb(0%,0%,0%);fill-opacity:1;" d="M 119.417969 11.503906 C 118.597656 12.167969 117.679688 12.5 116.683594 12.5 C 115.179688 12.5 114.222656 11.171875 114.222656 9.433594 C 114.222656 7.949219 114.945312 6.328125 116.722656 6.328125 C 117.933594 6.328125 118.441406 6.601562 119.203125 7.128906 L 119.417969 5.957031 C 118.382812 5.351562 117.796875 5.214844 116.722656 5.214844 C 114.261719 5.214844 112.855469 7.402344 112.855469 9.433594 C 112.855469 11.738281 114.515625 13.613281 116.664062 13.613281 C 117.542969 13.613281 118.539062 13.398438 119.535156 12.675781 C 119.535156 12.636719 119.476562 12.070312 119.457031 12.011719 Z M 119.417969 11.503906 "/>
<path style=" stroke:none;fill-rule:nonzero;fill:rgb(0%,0%,0%);fill-opacity:1;" d="M 128.25 9.492188 C 128.25 7.070312 126.472656 5.214844 124.421875 5.214844 C 122.3125 5.214844 120.574219 7.109375 120.574219 9.492188 C 120.574219 11.835938 122.351562 13.613281 124.402344 13.613281 C 126.511719 13.613281 128.25 11.796875 128.25 9.492188 Z M 124.421875 12.5 C 123.132812 12.5 121.921875 11.425781 121.921875 9.316406 C 121.921875 7.148438 123.269531 6.289062 124.402344 6.289062 C 125.632812 6.289062 126.902344 7.207031 126.902344 9.316406 C 126.902344 11.523438 125.613281 12.5 124.421875 12.5 Z M 124.421875 12.5 "/>
<path style=" stroke:none;fill-rule:nonzero;fill:rgb(0%,0%,0%);fill-opacity:1;" d="M 136.476562 8.046875 C 136.476562 6.953125 136.242188 5.292969 134.074219 5.292969 C 133.078125 5.292969 132.21875 5.742188 131.535156 6.601562 L 131.535156 5.390625 L 130.265625 5.390625 L 130.265625 13.4375 L 131.613281 13.4375 L 131.613281 8.964844 C 131.613281 7.871094 132.042969 6.367188 133.390625 6.367188 C 135.070312 6.367188 135.109375 7.539062 135.109375 8.164062 L 135.109375 13.4375 L 136.476562 13.4375 Z M 136.476562 8.046875 "/>
<path style=" stroke:none;fill-rule:nonzero;fill:rgb(0%,0%,0%);fill-opacity:1;" d="M 140.945312 6.523438 L 143.425781 6.523438 L 143.425781 5.46875 L 140.945312 5.46875 L 140.945312 3.203125 L 139.714844 3.203125 L 139.714844 5.46875 L 138.210938 5.46875 L 138.210938 6.523438 L 139.675781 6.523438 L 139.675781 11.347656 C 139.675781 12.382812 139.910156 13.613281 141.140625 13.613281 C 142.351562 13.613281 143.171875 13.203125 143.71875 12.910156 L 143.445312 11.875 C 142.820312 12.441406 142.15625 12.5 141.84375 12.5 C 141.042969 12.5 140.945312 11.660156 140.945312 11.035156 Z M 140.945312 6.523438 "/>
<path style=" stroke:none;fill-rule:nonzero;fill:rgb(0%,0%,0%);fill-opacity:1;" d="M 147.011719 1.269531 L 145.46875 1.269531 L 145.46875 2.8125 L 147.011719 2.8125 Z M 146.914062 5.46875 L 145.585938 5.46875 L 145.585938 13.4375 L 146.914062 13.4375 Z M 146.914062 5.46875 "/>
<path style=" stroke:none;fill-rule:nonzero;fill:rgb(0%,0%,0%);fill-opacity:1;" d="M 155.976562 8.046875 C 155.976562 6.953125 155.742188 5.292969 153.574219 5.292969 C 152.578125 5.292969 151.71875 5.742188 151.035156 6.601562 L 151.035156 5.390625 L 149.765625 5.390625 L 149.765625 13.4375 L 151.113281 13.4375 L 151.113281 8.964844 C 151.113281 7.871094 151.542969 6.367188 152.890625 6.367188 C 154.570312 6.367188 154.609375 7.539062 154.609375 8.164062 L 154.609375 13.4375 L 155.976562 13.4375 Z M 155.976562 8.046875 "/>
<path style=" stroke:none;fill-rule:nonzero;fill:rgb(0%,0%,0%);fill-opacity:1;" d="M 164.976562 5.46875 L 163.609375 5.46875 L 163.609375 10.605469 C 163.609375 11.972656 162.671875 12.636719 161.5 12.636719 C 160.25 12.636719 160.113281 12.167969 160.113281 11.367188 L 160.113281 5.46875 L 158.765625 5.46875 L 158.765625 11.445312 C 158.765625 12.734375 159.175781 13.613281 160.640625 13.613281 C 161.148438 13.613281 162.554688 13.535156 163.648438 12.539062 L 163.648438 13.4375 L 164.976562 13.4375 Z M 164.976562 5.46875 "/>
<path style=" stroke:none;fill-rule:nonzero;fill:rgb(0%,0%,0%);fill-opacity:1;" d="M 174.601562 9.492188 C 174.601562 7.070312 172.824219 5.214844 170.773438 5.214844 C 168.664062 5.214844 166.925781 7.109375 166.925781 9.492188 C 166.925781 11.835938 168.703125 13.613281 170.753906 13.613281 C 172.863281 13.613281 174.601562 11.796875 174.601562 9.492188 Z M 170.773438 12.5 C 169.484375 12.5 168.273438 11.425781 168.273438 9.316406 C 168.273438 7.148438 169.621094 6.289062 170.753906 6.289062 C 171.984375 6.289062 173.253906 7.207031 173.253906 9.316406 C 173.253906 11.523438 171.964844 12.5 170.773438 12.5 Z M 170.773438 12.5 "/>
<path style=" stroke:none;fill-rule:nonzero;fill:rgb(0%,0%,0%);fill-opacity:1;" d="M 182.828125 5.46875 L 181.460938 5.46875 L 181.460938 10.605469 C 181.460938 11.972656 180.523438 12.636719 179.351562 12.636719 C 178.101562 12.636719 177.964844 12.167969 177.964844 11.367188 L 177.964844 5.46875 L 176.617188 5.46875 L 176.617188 11.445312 C 176.617188 12.734375 177.027344 13.613281 178.492188 13.613281 C 179 13.613281 180.40625 13.535156 181.5 12.539062 L 181.5 13.4375 L 182.828125 13.4375 Z M 182.828125 5.46875 "/>
<path style=" stroke:none;fill-rule:nonzero;fill:rgb(0%,0%,0%);fill-opacity:1;" d="M 190.246094 5.761719 C 189.113281 5.234375 188.136719 5.214844 187.726562 5.214844 C 187.316406 5.214844 184.816406 5.214844 184.816406 7.539062 C 184.816406 8.320312 185.246094 8.867188 185.519531 9.121094 C 186.164062 9.667969 186.613281 9.765625 187.667969 9.980469 C 188.273438 10.097656 189.308594 10.3125 189.308594 11.269531 C 189.308594 12.5 187.902344 12.5 187.648438 12.5 C 186.945312 12.5 185.890625 12.304688 184.933594 11.601562 L 184.71875 12.832031 C 184.796875 12.890625 186.027344 13.613281 187.667969 13.613281 C 189.992188 13.613281 190.539062 12.226562 190.539062 11.152344 C 190.539062 10.253906 189.992188 9.667969 189.914062 9.589844 C 189.25 8.90625 188.703125 8.789062 187.628906 8.574219 C 186.964844 8.457031 186.066406 8.28125 186.066406 7.382812 C 186.066406 6.269531 187.316406 6.269531 187.550781 6.269531 C 188.488281 6.269531 189.25 6.484375 190.03125 6.933594 Z M 190.246094 5.761719 "/>
<path style=" stroke:none;fill-rule:nonzero;fill:rgb(0%,0%,0%);fill-opacity:1;" d="M 203.691406 8.183594 C 203.691406 6.464844 202.460938 5.214844 200.78125 5.214844 C 199.707031 5.214844 198.90625 5.449219 198.027344 5.957031 L 198.125 7.148438 C 198.925781 6.5625 199.746094 6.25 200.78125 6.25 C 201.601562 6.25 202.324219 6.914062 202.324219 8.222656 L 202.324219 8.964844 C 201.523438 8.984375 200.449219 9.042969 199.375 9.394531 C 198.164062 9.824219 197.460938 10.488281 197.460938 11.367188 C 197.460938 12.167969 197.929688 13.613281 199.453125 13.613281 C 200.449219 13.613281 201.699219 13.320312 202.363281 12.773438 L 202.363281 13.4375 L 203.691406 13.4375 Z M 202.324219 11.035156 C 202.324219 11.386719 202.324219 11.816406 201.738281 12.1875 C 201.25 12.480469 200.644531 12.539062 200.371094 12.539062 C 199.414062 12.539062 198.75 12.011719 198.75 11.367188 C 198.75 10.136719 201.230469 9.863281 202.324219 9.863281 Z M 202.324219 11.035156 "/>
<path style=" stroke:none;fill-rule:nonzero;fill:rgb(0%,0%,0%);fill-opacity:1;" d="M 208.144531 6.523438 L 210.625 6.523438 L 210.625 5.46875 L 208.144531 5.46875 L 208.144531 3.203125 L 206.914062 3.203125 L 206.914062 5.46875 L 205.410156 5.46875 L 205.410156 6.523438 L 206.875 6.523438 L 206.875 11.347656 C 206.875 12.382812 207.109375 13.613281 208.339844 13.613281 C 209.550781 13.613281 210.371094 13.203125 210.917969 12.910156 L 210.644531 11.875 C 210.019531 12.441406 209.355469 12.5 209.042969 12.5 C 208.242188 12.5 208.144531 11.660156 208.144531 11.035156 Z M 208.144531 6.523438 "/>
<path style=" stroke:none;fill-rule:nonzero;fill:rgb(0%,0%,0%);fill-opacity:1;" d="M 225.726562 6.113281 C 225.160156 6.230469 224.945312 6.660156 224.945312 6.992188 C 224.945312 7.421875 225.277344 7.578125 225.53125 7.578125 C 226.078125 7.578125 226.449219 7.109375 226.449219 6.621094 C 226.449219 5.878906 225.589844 5.527344 224.828125 5.527344 C 223.734375 5.527344 223.128906 6.601562 222.972656 6.953125 C 222.5625 5.605469 221.449219 5.527344 221.117188 5.527344 C 219.300781 5.527344 218.324219 7.871094 218.324219 8.28125 C 218.324219 8.339844 218.402344 8.4375 218.519531 8.4375 C 218.65625 8.4375 218.695312 8.320312 218.734375 8.261719 C 219.339844 6.269531 220.550781 5.898438 221.058594 5.898438 C 221.878906 5.898438 222.035156 6.640625 222.035156 7.070312 C 222.035156 7.460938 221.9375 7.871094 221.703125 8.730469 L 221.097656 11.191406 C 220.84375 12.265625 220.316406 13.261719 219.359375 13.261719 C 219.28125 13.261719 218.832031 13.261719 218.441406 13.027344 C 219.085938 12.890625 219.242188 12.363281 219.242188 12.148438 C 219.242188 11.796875 218.96875 11.582031 218.636719 11.582031 C 218.207031 11.582031 217.738281 11.953125 217.738281 12.519531 C 217.738281 13.28125 218.578125 13.613281 219.339844 13.613281 C 220.199219 13.613281 220.824219 12.929688 221.195312 12.207031 C 221.488281 13.261719 222.367188 13.613281 223.03125 13.613281 C 224.867188 13.613281 225.84375 11.269531 225.84375 10.878906 C 225.84375 10.78125 225.765625 10.703125 225.648438 10.703125 C 225.492188 10.703125 225.472656 10.800781 225.433594 10.9375 C 224.945312 12.519531 223.890625 13.261719 223.089844 13.261719 C 222.464844 13.261719 222.132812 12.792969 222.132812 12.050781 C 222.132812 11.660156 222.191406 11.367188 222.484375 10.195312 L 223.109375 7.753906 C 223.382812 6.679688 223.988281 5.898438 224.808594 5.898438 C 224.847656 5.898438 225.355469 5.898438 225.726562 6.113281 Z M 225.726562 6.113281 "/>
<path style=" stroke:none;fill-rule:nonzero;fill:rgb(0%,0%,0%);fill-opacity:1;" d="M 244.339844 7.636719 C 244.59375 7.636719 244.90625 7.636719 244.90625 7.304688 C 244.90625 6.972656 244.59375 6.972656 244.339844 6.972656 L 233.773438 6.972656 C 233.519531 6.972656 233.207031 6.972656 233.207031 7.285156 C 233.207031 7.636719 233.5 7.636719 233.773438 7.636719 Z M 244.339844 10.957031 C 244.59375 10.957031 244.90625 10.957031 244.90625 10.644531 C 244.90625 10.292969 244.59375 10.292969 244.339844 10.292969 L 233.773438 10.292969 C 233.519531 10.292969 233.207031 10.292969 233.207031 10.625 C 233.207031 10.957031 233.5 10.957031 233.773438 10.957031 Z M 244.339844 10.957031 "/>
<path style=" stroke:none;fill-rule:nonzero;fill:rgb(0%,0%,0%);fill-opacity:1;" d="M 254.128906 6.992188 C 253.816406 7.011719 253.757812 7.03125 253.757812 7.207031 C 253.757812 7.382812 253.835938 7.382812 254.167969 7.382812 L 254.988281 7.382812 C 256.511719 7.382812 257.195312 8.632812 257.195312 10.351562 C 257.195312 12.695312 255.964844 13.320312 255.085938 13.320312 C 254.226562 13.320312 252.761719 12.910156 252.253906 11.738281 C 252.820312 11.816406 253.347656 11.503906 253.347656 10.859375 C 253.347656 10.332031 252.957031 9.980469 252.46875 9.980469 C 252.039062 9.980469 251.570312 10.234375 251.570312 10.917969 C 251.570312 12.5 253.152344 13.808594 255.144531 13.808594 C 257.273438 13.808594 258.855469 12.1875 258.855469 10.371094 C 258.855469 8.730469 257.527344 7.421875 255.808594 7.128906 C 257.371094 6.679688 258.367188 5.371094 258.367188 3.964844 C 258.367188 2.558594 256.902344 1.523438 255.164062 1.523438 C 253.367188 1.523438 252.039062 2.617188 252.039062 3.925781 C 252.039062 4.628906 252.605469 4.785156 252.878906 4.785156 C 253.25 4.785156 253.679688 4.511719 253.679688 3.964844 C 253.679688 3.398438 253.25 3.144531 252.859375 3.144531 C 252.742188 3.144531 252.703125 3.144531 252.664062 3.164062 C 253.347656 1.953125 255.027344 1.953125 255.105469 1.953125 C 255.710938 1.953125 256.863281 2.207031 256.863281 3.964844 C 256.863281 4.316406 256.824219 5.3125 256.296875 6.09375 C 255.75 6.875 255.144531 6.933594 254.65625 6.953125 Z M 254.128906 6.992188 "/>
<path style=" stroke:none;fill-rule:nonzero;fill:rgb(0%,0%,0%);fill-opacity:1;" d="M 20.308594 43.566406 L 18.21875 43.742188 L 18.21875 44.171875 C 19.234375 44.171875 19.351562 44.269531 19.351562 45.011719 L 19.351562 52.824219 C 19.351562 53.507812 19.195312 53.507812 18.21875 53.507812 L 18.21875 53.9375 C 18.648438 53.898438 19.371094 53.898438 19.820312 53.898438 C 20.269531 53.898438 21.011719 53.898438 21.441406 53.9375 L 21.441406 53.507812 C 20.484375 53.507812 20.308594 53.507812 20.308594 52.824219 Z M 20.308594 43.566406 "/>
<path style=" stroke:none;fill-rule:nonzero;fill:rgb(0%,0%,0%);fill-opacity:1;" d="M 24.375 44.738281 C 24.375 44.347656 24.0625 43.996094 23.652344 43.996094 C 23.261719 43.996094 22.929688 44.308594 22.929688 44.71875 C 22.929688 45.167969 23.28125 45.441406 23.652344 45.441406 C 24.101562 45.441406 24.375 45.070312 24.375 44.738281 Z M 22.324219 47.511719 L 22.324219 47.941406 C 23.261719 47.941406 23.398438 48.039062 23.398438 48.761719 L 23.398438 52.824219 C 23.398438 53.507812 23.242188 53.507812 22.265625 53.507812 L 22.265625 53.9375 C 22.695312 53.898438 23.398438 53.898438 23.847656 53.898438 C 24.003906 53.898438 24.863281 53.898438 25.371094 53.9375 L 25.371094 53.507812 C 24.414062 53.507812 24.355469 53.429688 24.355469 52.84375 L 24.355469 47.355469 Z M 22.324219 47.511719 "/>
<path style=" stroke:none;fill-rule:nonzero;fill:rgb(0%,0%,0%);fill-opacity:1;" d="M 36.550781 50.304688 C 36.550781 48.917969 36.550781 48.507812 36.199219 48.019531 C 35.769531 47.433594 35.066406 47.355469 34.558594 47.355469 C 33.308594 47.355469 32.683594 48.253906 32.449219 48.820312 C 32.234375 47.667969 31.433594 47.355469 30.496094 47.355469 C 29.03125 47.355469 28.464844 48.585938 28.347656 48.878906 L 28.347656 47.355469 L 26.296875 47.511719 L 26.296875 47.941406 C 27.3125 47.941406 27.449219 48.058594 27.449219 48.78125 L 27.449219 52.824219 C 27.449219 53.507812 27.273438 53.507812 26.296875 53.507812 L 26.296875 53.9375 C 26.6875 53.898438 27.507812 53.898438 27.917969 53.898438 C 28.347656 53.898438 29.167969 53.898438 29.539062 53.9375 L 29.539062 53.507812 C 28.601562 53.507812 28.40625 53.507812 28.40625 52.824219 L 28.40625 50.050781 C 28.40625 48.488281 29.441406 47.648438 30.378906 47.648438 C 31.296875 47.648438 31.511719 48.410156 31.511719 49.328125 L 31.511719 52.824219 C 31.511719 53.507812 31.335938 53.507812 30.378906 53.507812 L 30.378906 53.9375 C 30.75 53.898438 31.570312 53.898438 31.980469 53.898438 C 32.410156 53.898438 33.230469 53.898438 33.621094 53.9375 L 33.621094 53.507812 C 32.664062 53.507812 32.46875 53.507812 32.46875 52.824219 L 32.46875 50.050781 C 32.46875 48.488281 33.503906 47.648438 34.441406 47.648438 C 35.359375 47.648438 35.574219 48.410156 35.574219 49.328125 L 35.574219 52.824219 C 35.574219 53.507812 35.398438 53.507812 34.441406 53.507812 L 34.441406 53.9375 C 34.832031 53.898438 35.632812 53.898438 36.042969 53.898438 C 36.472656 53.898438 37.292969 53.898438 37.683594 53.9375 L 37.683594 53.507812 C 36.921875 53.507812 36.550781 53.507812 36.550781 53.058594 Z M 36.550781 50.304688 "/>
<path style=" stroke:none;fill-rule:nonzero;fill:rgb(0%,0%,0%);fill-opacity:1;" d="M 18.078125 60.023438 C 17.628906 60.121094 17.609375 60.511719 17.609375 60.550781 C 17.609375 60.765625 17.785156 60.921875 18 60.921875 C 18.214844 60.921875 18.546875 60.746094 18.546875 60.316406 C 18.546875 59.75 17.921875 59.59375 17.550781 59.59375 C 17.101562 59.59375 16.710938 59.925781 16.476562 60.316406 C 16.261719 59.789062 15.753906 59.59375 15.34375 59.59375 C 14.25 59.59375 13.644531 60.84375 13.644531 61.117188 C 13.644531 61.214844 13.722656 61.253906 13.800781 61.253906 C 13.917969 61.253906 13.9375 61.195312 13.957031 61.078125 C 14.191406 60.355469 14.796875 59.867188 15.304688 59.867188 C 15.695312 59.867188 15.890625 60.160156 15.890625 60.511719 C 15.890625 60.707031 15.773438 61.175781 15.695312 61.488281 C 15.617188 61.78125 15.402344 62.660156 15.34375 62.855469 C 15.207031 63.382812 14.855469 63.8125 14.40625 63.8125 C 14.367188 63.8125 14.113281 63.8125 13.898438 63.675781 C 14.347656 63.558594 14.347656 63.148438 14.347656 63.128906 C 14.347656 62.894531 14.171875 62.757812 13.957031 62.757812 C 13.683594 62.757812 13.390625 62.992188 13.390625 63.363281 C 13.390625 63.832031 13.878906 64.085938 14.386719 64.085938 C 14.914062 64.085938 15.285156 63.695312 15.460938 63.363281 C 15.695312 63.851562 16.144531 64.085938 16.632812 64.085938 C 17.707031 64.085938 18.3125 62.835938 18.3125 62.5625 C 18.3125 62.464844 18.234375 62.425781 18.15625 62.425781 C 18.039062 62.425781 18.019531 62.503906 17.980469 62.601562 C 17.785156 63.265625 17.21875 63.8125 16.652344 63.8125 C 16.320312 63.8125 16.085938 63.597656 16.085938 63.167969 C 16.085938 62.972656 16.144531 62.738281 16.28125 62.191406 C 16.339844 61.878906 16.554688 61.019531 16.613281 60.824219 C 16.75 60.296875 17.101562 59.867188 17.550781 59.867188 C 17.609375 59.867188 17.863281 59.867188 18.078125 60.023438 Z M 18.078125 60.023438 "/>
<path style=" stroke:none;fill-rule:nonzero;fill:rgb(0%,0%,0%);fill-opacity:1;" d="M 27.769531 61.722656 C 27.4375 61.976562 27.125 62.289062 26.890625 62.660156 C 26.460938 63.304688 26.34375 63.929688 26.34375 63.96875 C 26.34375 64.125 26.480469 64.125 26.578125 64.125 C 26.695312 64.125 26.773438 64.125 26.8125 64.007812 C 27.066406 62.894531 27.710938 62.054688 28.902344 61.644531 C 28.980469 61.625 29.078125 61.605469 29.078125 61.507812 C 29.078125 61.390625 28.980469 61.371094 28.941406 61.351562 C 27.613281 60.902344 27.027344 59.964844 26.832031 59.105469 C 26.773438 58.890625 26.773438 58.871094 26.578125 58.871094 C 26.480469 58.871094 26.34375 58.871094 26.34375 59.027344 C 26.34375 59.046875 26.441406 59.691406 26.890625 60.355469 C 27.183594 60.765625 27.515625 61.078125 27.769531 61.273438 L 20.035156 61.273438 C 19.878906 61.273438 19.664062 61.273438 19.664062 61.507812 C 19.664062 61.722656 19.878906 61.722656 20.035156 61.722656 Z M 27.769531 61.722656 "/>
<path style=" stroke:none;fill-rule:nonzero;fill:rgb(0%,0%,0%);fill-opacity:1;" d="M 32.25 60.667969 C 33.03125 60.667969 33.539062 61.234375 33.539062 62.289062 C 33.539062 63.539062 32.835938 63.890625 32.308594 63.890625 C 31.761719 63.890625 31 63.695312 30.648438 63.167969 C 31.019531 63.167969 31.273438 62.933594 31.273438 62.621094 C 31.273438 62.289062 31.039062 62.074219 30.707031 62.074219 C 30.453125 62.074219 30.160156 62.230469 30.160156 62.640625 C 30.160156 63.578125 31.175781 64.203125 32.328125 64.203125 C 33.636719 64.203125 34.574219 63.285156 34.574219 62.289062 C 34.574219 61.449219 33.910156 60.707031 32.894531 60.472656 C 33.675781 60.199219 34.28125 59.535156 34.28125 58.734375 C 34.28125 57.933594 33.382812 57.367188 32.347656 57.367188 C 31.273438 57.367188 30.472656 57.933594 30.472656 58.695312 C 30.472656 59.066406 30.707031 59.222656 30.980469 59.222656 C 31.292969 59.222656 31.488281 59.007812 31.488281 58.714844 C 31.488281 58.34375 31.15625 58.207031 30.941406 58.207031 C 31.371094 57.660156 32.132812 57.621094 32.308594 57.621094 C 32.5625 57.621094 33.324219 57.699219 33.324219 58.734375 C 33.324219 59.417969 33.03125 59.847656 32.894531 60.003906 C 32.601562 60.316406 32.367188 60.335938 31.761719 60.375 C 31.566406 60.375 31.488281 60.394531 31.488281 60.53125 C 31.488281 60.667969 31.585938 60.667969 31.761719 60.667969 Z M 32.25 60.667969 "/>
<path style=" stroke:none;fill-rule:nonzero;fill:rgb(0%,0%,0%);fill-opacity:1;" d="M 40.9375 59.457031 C 41.054688 59.457031 41.25 59.457031 41.25 59.261719 C 41.25 59.066406 41.054688 59.066406 40.9375 59.066406 L 36.230469 59.066406 C 36.09375 59.066406 35.917969 59.066406 35.917969 59.261719 C 35.917969 59.457031 36.09375 59.457031 36.230469 59.457031 Z M 40.9375 59.457031 "/>
<path style=" stroke:none;fill-rule:nonzero;fill:rgb(0%,0%,0%);fill-opacity:1;" d="M 51.839844 47.921875 C 52.132812 47.921875 52.269531 47.921875 52.269531 47.648438 C 52.269531 47.492188 52.132812 47.492188 51.878906 47.492188 L 50.667969 47.492188 C 50.941406 45.949219 51.15625 44.894531 51.273438 44.425781 C 51.371094 44.054688 51.683594 43.722656 52.074219 43.722656 C 52.386719 43.722656 52.699219 43.859375 52.835938 43.996094 C 52.269531 44.054688 52.074219 44.484375 52.074219 44.738281 C 52.074219 45.03125 52.308594 45.207031 52.582031 45.207031 C 52.894531 45.207031 53.34375 44.953125 53.34375 44.386719 C 53.34375 43.761719 52.71875 43.410156 52.054688 43.410156 C 51.410156 43.410156 50.785156 43.898438 50.492188 44.484375 C 50.21875 45.011719 50.0625 45.539062 49.730469 47.492188 L 48.714844 47.492188 C 48.441406 47.492188 48.285156 47.492188 48.285156 47.765625 C 48.285156 47.921875 48.382812 47.921875 48.675781 47.921875 L 49.632812 47.921875 C 49.359375 49.328125 48.753906 52.707031 48.402344 54.289062 C 48.148438 55.597656 47.933594 56.691406 47.191406 56.691406 C 47.132812 56.691406 46.703125 56.691406 46.429688 56.398438 C 47.191406 56.339844 47.191406 55.695312 47.191406 55.675781 C 47.191406 55.363281 46.976562 55.1875 46.683594 55.1875 C 46.390625 55.1875 45.941406 55.441406 45.941406 56.007812 C 45.941406 56.652344 46.605469 56.984375 47.191406 56.984375 C 48.714844 56.984375 49.339844 54.25 49.496094 53.507812 C 49.769531 52.355469 50.492188 48.371094 50.570312 47.921875 Z M 51.839844 47.921875 "/>
<path style=" stroke:none;fill-rule:nonzero;fill:rgb(0%,0%,0%);fill-opacity:1;" d="M 58.890625 57.570312 C 58.890625 57.53125 58.890625 57.492188 58.636719 57.238281 C 57.132812 55.734375 56.292969 53.273438 56.292969 50.226562 C 56.292969 47.316406 56.996094 44.816406 58.734375 43.058594 C 58.890625 42.921875 58.890625 42.902344 58.890625 42.84375 C 58.890625 42.765625 58.8125 42.726562 58.753906 42.726562 C 58.558594 42.726562 57.328125 43.800781 56.605469 45.265625 C 55.84375 46.789062 55.492188 48.371094 55.492188 50.226562 C 55.492188 51.554688 55.707031 53.332031 56.46875 54.914062 C 57.367188 56.710938 58.578125 57.6875 58.753906 57.6875 C 58.8125 57.6875 58.890625 57.648438 58.890625 57.570312 Z M 58.890625 57.570312 "/>
<path style=" stroke:none;fill-rule:nonzero;fill:rgb(0%,0%,0%);fill-opacity:1;" d="M 66.820312 47.84375 C 66.332031 47.921875 66.15625 48.292969 66.15625 48.566406 C 66.15625 48.9375 66.429688 49.054688 66.644531 49.054688 C 67.09375 49.054688 67.40625 48.664062 67.40625 48.253906 C 67.40625 47.628906 66.683594 47.355469 66.058594 47.355469 C 65.160156 47.355469 64.652344 48.253906 64.515625 48.527344 C 64.164062 47.414062 63.246094 47.355469 62.972656 47.355469 C 61.449219 47.355469 60.648438 49.308594 60.648438 49.640625 C 60.648438 49.699219 60.707031 49.777344 60.804688 49.777344 C 60.921875 49.777344 60.960938 49.679688 60.980469 49.621094 C 61.488281 47.960938 62.503906 47.648438 62.933594 47.648438 C 63.597656 47.648438 63.734375 48.273438 63.734375 48.625 C 63.734375 48.957031 63.636719 49.308594 63.460938 50.03125 L 62.953125 52.0625 C 62.738281 52.960938 62.308594 53.78125 61.507812 53.78125 C 61.429688 53.78125 61.058594 53.78125 60.746094 53.585938 C 61.292969 53.488281 61.410156 53.039062 61.410156 52.863281 C 61.410156 52.570312 61.175781 52.375 60.902344 52.375 C 60.53125 52.375 60.140625 52.707031 60.140625 53.175781 C 60.140625 53.800781 60.84375 54.09375 61.488281 54.09375 C 62.210938 54.09375 62.71875 53.527344 63.03125 52.902344 C 63.265625 53.78125 64.027344 54.09375 64.574219 54.09375 C 66.097656 54.09375 66.898438 52.121094 66.898438 51.808594 C 66.898438 51.730469 66.839844 51.671875 66.761719 51.671875 C 66.625 51.671875 66.605469 51.75 66.566406 51.867188 C 66.15625 53.175781 65.296875 53.78125 64.613281 53.78125 C 64.085938 53.78125 63.8125 53.390625 63.8125 52.785156 C 63.8125 52.453125 63.871094 52.21875 64.105469 51.242188 L 64.632812 49.191406 C 64.847656 48.3125 65.355469 47.648438 66.058594 47.648438 C 66.078125 47.648438 66.507812 47.648438 66.820312 47.84375 Z M 66.820312 47.84375 "/>
<path style=" stroke:none;fill-rule:nonzero;fill:rgb(0%,0%,0%);fill-opacity:1;" d="M 72.199219 50.226562 C 72.199219 49.074219 72.042969 47.238281 71.203125 45.5 C 70.324219 43.703125 69.09375 42.726562 68.9375 42.726562 C 68.878906 42.726562 68.800781 42.765625 68.800781 42.84375 C 68.800781 42.902344 68.800781 42.921875 69.054688 43.175781 C 70.558594 44.679688 71.378906 47.160156 71.378906 50.207031 C 71.378906 53.097656 70.675781 55.597656 68.957031 57.355469 C 68.800781 57.492188 68.800781 57.53125 68.800781 57.570312 C 68.800781 57.648438 68.878906 57.6875 68.9375 57.6875 C 69.132812 57.6875 70.363281 56.613281 71.085938 55.148438 C 71.847656 53.625 72.199219 52.003906 72.199219 50.226562 Z M 72.199219 50.226562 "/>
<path style=" stroke:none;fill-rule:nonzero;fill:rgb(0%,0%,0%);fill-opacity:1;" d="M 87.957031 49.09375 C 88.171875 49.09375 88.445312 49.09375 88.445312 48.820312 C 88.445312 48.546875 88.191406 48.546875 87.957031 48.546875 L 79.167969 48.546875 C 78.953125 48.546875 78.679688 48.546875 78.679688 48.820312 C 78.679688 49.09375 78.933594 49.09375 79.167969 49.09375 Z M 87.957031 51.867188 C 88.171875 51.867188 88.445312 51.867188 88.445312 51.613281 C 88.445312 51.320312 88.191406 51.320312 87.957031 51.320312 L 79.167969 51.320312 C 78.953125 51.320312 78.679688 51.320312 78.679688 51.59375 C 78.679688 51.867188 78.933594 51.867188 79.167969 51.867188 Z M 87.957031 51.867188 "/>
<path style=" stroke:none;fill-rule:nonzero;fill:rgb(0%,0%,0%);fill-opacity:1;" d="M 100.558594 43.566406 L 98.46875 43.742188 L 98.46875 44.171875 C 99.484375 44.171875 99.601562 44.269531 99.601562 45.011719 L 99.601562 52.824219 C 99.601562 53.507812 99.445312 53.507812 98.46875 53.507812 L 98.46875 53.9375 C 98.898438 53.898438 99.621094 53.898438 100.070312 53.898438 C 100.519531 53.898438 101.261719 53.898438 101.691406 53.9375 L 101.691406 53.507812 C 100.734375 53.507812 100.558594 53.507812 100.558594 52.824219 Z M 100.558594 43.566406 "/>
<path style=" stroke:none;fill-rule:nonzero;fill:rgb(0%,0%,0%);fill-opacity:1;" d="M 104.628906 44.738281 C 104.628906 44.347656 104.316406 43.996094 103.90625 43.996094 C 103.515625 43.996094 103.183594 44.308594 103.183594 44.71875 C 103.183594 45.167969 103.535156 45.441406 103.90625 45.441406 C 104.355469 45.441406 104.628906 45.070312 104.628906 44.738281 Z M 102.578125 47.511719 L 102.578125 47.941406 C 103.515625 47.941406 103.652344 48.039062 103.652344 48.761719 L 103.652344 52.824219 C 103.652344 53.507812 103.496094 53.507812 102.519531 53.507812 L 102.519531 53.9375 C 102.949219 53.898438 103.652344 53.898438 104.101562 53.898438 C 104.257812 53.898438 105.117188 53.898438 105.625 53.9375 L 105.625 53.507812 C 104.667969 53.507812 104.609375 53.429688 104.609375 52.84375 L 104.609375 47.355469 Z M 102.578125 47.511719 "/>
<path style=" stroke:none;fill-rule:nonzero;fill:rgb(0%,0%,0%);fill-opacity:1;" d="M 116.800781 50.304688 C 116.800781 48.917969 116.800781 48.507812 116.449219 48.019531 C 116.019531 47.433594 115.316406 47.355469 114.808594 47.355469 C 113.558594 47.355469 112.933594 48.253906 112.699219 48.820312 C 112.484375 47.667969 111.683594 47.355469 110.746094 47.355469 C 109.28125 47.355469 108.714844 48.585938 108.597656 48.878906 L 108.597656 47.355469 L 106.546875 47.511719 L 106.546875 47.941406 C 107.5625 47.941406 107.699219 48.058594 107.699219 48.78125 L 107.699219 52.824219 C 107.699219 53.507812 107.523438 53.507812 106.546875 53.507812 L 106.546875 53.9375 C 106.9375 53.898438 107.757812 53.898438 108.167969 53.898438 C 108.597656 53.898438 109.417969 53.898438 109.789062 53.9375 L 109.789062 53.507812 C 108.851562 53.507812 108.65625 53.507812 108.65625 52.824219 L 108.65625 50.050781 C 108.65625 48.488281 109.691406 47.648438 110.628906 47.648438 C 111.546875 47.648438 111.761719 48.410156 111.761719 49.328125 L 111.761719 52.824219 C 111.761719 53.507812 111.585938 53.507812 110.628906 53.507812 L 110.628906 53.9375 C 111 53.898438 111.820312 53.898438 112.230469 53.898438 C 112.660156 53.898438 113.480469 53.898438 113.871094 53.9375 L 113.871094 53.507812 C 112.914062 53.507812 112.71875 53.507812 112.71875 52.824219 L 112.71875 50.050781 C 112.71875 48.488281 113.753906 47.648438 114.691406 47.648438 C 115.609375 47.648438 115.824219 48.410156 115.824219 49.328125 L 115.824219 52.824219 C 115.824219 53.507812 115.648438 53.507812 114.691406 53.507812 L 114.691406 53.9375 C 115.082031 53.898438 115.882812 53.898438 116.292969 53.898438 C 116.722656 53.898438 117.542969 53.898438 117.933594 53.9375 L 117.933594 53.507812 C 117.171875 53.507812 116.800781 53.507812 116.800781 53.058594 Z M 116.800781 50.304688 "/>
<path style=" stroke:none;fill-rule:nonzero;fill:rgb(0%,0%,0%);fill-opacity:1;" d="M 98.328125 60.023438 C 97.878906 60.121094 97.859375 60.511719 97.859375 60.550781 C 97.859375 60.765625 98.035156 60.921875 98.25 60.921875 C 98.464844 60.921875 98.796875 60.746094 98.796875 60.316406 C 98.796875 59.75 98.171875 59.59375 97.800781 59.59375 C 97.351562 59.59375 96.960938 59.925781 96.726562 60.316406 C 96.511719 59.789062 96.003906 59.59375 95.59375 59.59375 C 94.5 59.59375 93.894531 60.84375 93.894531 61.117188 C 93.894531 61.214844 93.972656 61.253906 94.050781 61.253906 C 94.167969 61.253906 94.1875 61.195312 94.207031 61.078125 C 94.441406 60.355469 95.046875 59.867188 95.554688 59.867188 C 95.945312 59.867188 96.140625 60.160156 96.140625 60.511719 C 96.140625 60.707031 96.023438 61.175781 95.945312 61.488281 C 95.867188 61.78125 95.652344 62.660156 95.59375 62.855469 C 95.457031 63.382812 95.105469 63.8125 94.65625 63.8125 C 94.617188 63.8125 94.363281 63.8125 94.148438 63.675781 C 94.597656 63.558594 94.597656 63.148438 94.597656 63.128906 C 94.597656 62.894531 94.421875 62.757812 94.207031 62.757812 C 93.933594 62.757812 93.640625 62.992188 93.640625 63.363281 C 93.640625 63.832031 94.128906 64.085938 94.636719 64.085938 C 95.164062 64.085938 95.535156 63.695312 95.710938 63.363281 C 95.945312 63.851562 96.394531 64.085938 96.882812 64.085938 C 97.957031 64.085938 98.5625 62.835938 98.5625 62.5625 C 98.5625 62.464844 98.484375 62.425781 98.40625 62.425781 C 98.289062 62.425781 98.269531 62.503906 98.230469 62.601562 C 98.035156 63.265625 97.46875 63.8125 96.902344 63.8125 C 96.570312 63.8125 96.335938 63.597656 96.335938 63.167969 C 96.335938 62.972656 96.394531 62.738281 96.53125 62.191406 C 96.589844 61.878906 96.804688 61.019531 96.863281 60.824219 C 97 60.296875 97.351562 59.867188 97.800781 59.867188 C 97.859375 59.867188 98.113281 59.867188 98.328125 60.023438 Z M 98.328125 60.023438 "/>
<path style=" stroke:none;fill-rule:nonzero;fill:rgb(0%,0%,0%);fill-opacity:1;" d="M 108.019531 61.722656 C 107.6875 61.976562 107.375 62.289062 107.140625 62.660156 C 106.710938 63.304688 106.59375 63.929688 106.59375 63.96875 C 106.59375 64.125 106.730469 64.125 106.828125 64.125 C 106.945312 64.125 107.023438 64.125 107.0625 64.007812 C 107.316406 62.894531 107.960938 62.054688 109.152344 61.644531 C 109.230469 61.625 109.328125 61.605469 109.328125 61.507812 C 109.328125 61.390625 109.230469 61.371094 109.191406 61.351562 C 107.863281 60.902344 107.277344 59.964844 107.082031 59.105469 C 107.023438 58.890625 107.023438 58.871094 106.828125 58.871094 C 106.730469 58.871094 106.59375 58.871094 106.59375 59.027344 C 106.59375 59.046875 106.691406 59.691406 107.140625 60.355469 C 107.433594 60.765625 107.765625 61.078125 108.019531 61.273438 L 100.285156 61.273438 C 100.128906 61.273438 99.914062 61.273438 99.914062 61.507812 C 99.914062 61.722656 100.128906 61.722656 100.285156 61.722656 Z M 108.019531 61.722656 "/>
<path style=" stroke:none;fill-rule:nonzero;fill:rgb(0%,0%,0%);fill-opacity:1;" d="M 112.5 60.667969 C 113.28125 60.667969 113.789062 61.234375 113.789062 62.289062 C 113.789062 63.539062 113.085938 63.890625 112.558594 63.890625 C 112.011719 63.890625 111.25 63.695312 110.898438 63.167969 C 111.269531 63.167969 111.523438 62.933594 111.523438 62.621094 C 111.523438 62.289062 111.289062 62.074219 110.957031 62.074219 C 110.703125 62.074219 110.410156 62.230469 110.410156 62.640625 C 110.410156 63.578125 111.425781 64.203125 112.578125 64.203125 C 113.886719 64.203125 114.824219 63.285156 114.824219 62.289062 C 114.824219 61.449219 114.160156 60.707031 113.144531 60.472656 C 113.925781 60.199219 114.53125 59.535156 114.53125 58.734375 C 114.53125 57.933594 113.632812 57.367188 112.597656 57.367188 C 111.523438 57.367188 110.722656 57.933594 110.722656 58.695312 C 110.722656 59.066406 110.957031 59.222656 111.230469 59.222656 C 111.542969 59.222656 111.738281 59.007812 111.738281 58.714844 C 111.738281 58.34375 111.40625 58.207031 111.191406 58.207031 C 111.621094 57.660156 112.382812 57.621094 112.558594 57.621094 C 112.8125 57.621094 113.574219 57.699219 113.574219 58.734375 C 113.574219 59.417969 113.28125 59.847656 113.144531 60.003906 C 112.851562 60.316406 112.617188 60.335938 112.011719 60.375 C 111.816406 60.375 111.738281 60.394531 111.738281 60.53125 C 111.738281 60.667969 111.835938 60.667969 112.011719 60.667969 Z M 112.5 60.667969 "/>
<path style=" stroke:none;fill-rule:nonzero;fill:rgb(0%,0%,0%);fill-opacity:1;" d="M 118.921875 59.457031 L 121.34375 59.457031 C 121.441406 59.457031 121.617188 59.457031 121.617188 59.261719 C 121.617188 59.066406 121.441406 59.066406 121.34375 59.066406 L 118.921875 59.066406 L 118.921875 56.644531 C 118.921875 56.546875 118.921875 56.351562 118.726562 56.351562 C 118.53125 56.351562 118.53125 56.546875 118.53125 56.644531 L 118.53125 59.066406 L 116.109375 59.066406 C 116.011719 59.066406 115.816406 59.066406 115.816406 59.261719 C 115.816406 59.457031 116.011719 59.457031 116.109375 59.457031 L 118.53125 59.457031 L 118.53125 61.878906 C 118.53125 61.996094 118.53125 62.171875 118.726562 62.171875 C 118.921875 62.171875 118.921875 61.996094 118.921875 61.878906 Z M 118.921875 59.457031 "/>
<path style=" stroke:none;fill-rule:nonzero;fill:rgb(0%,0%,0%);fill-opacity:1;" d="M 131.9375 47.921875 C 132.230469 47.921875 132.367188 47.921875 132.367188 47.648438 C 132.367188 47.492188 132.230469 47.492188 131.976562 47.492188 L 130.765625 47.492188 C 131.039062 45.949219 131.253906 44.894531 131.371094 44.425781 C 131.46875 44.054688 131.78125 43.722656 132.171875 43.722656 C 132.484375 43.722656 132.796875 43.859375 132.933594 43.996094 C 132.367188 44.054688 132.171875 44.484375 132.171875 44.738281 C 132.171875 45.03125 132.40625 45.207031 132.679688 45.207031 C 132.992188 45.207031 133.441406 44.953125 133.441406 44.386719 C 133.441406 43.761719 132.816406 43.410156 132.152344 43.410156 C 131.507812 43.410156 130.882812 43.898438 130.589844 44.484375 C 130.316406 45.011719 130.160156 45.539062 129.828125 47.492188 L 128.8125 47.492188 C 128.539062 47.492188 128.382812 47.492188 128.382812 47.765625 C 128.382812 47.921875 128.480469 47.921875 128.773438 47.921875 L 129.730469 47.921875 C 129.457031 49.328125 128.851562 52.707031 128.5 54.289062 C 128.246094 55.597656 128.03125 56.691406 127.289062 56.691406 C 127.230469 56.691406 126.800781 56.691406 126.527344 56.398438 C 127.289062 56.339844 127.289062 55.695312 127.289062 55.675781 C 127.289062 55.363281 127.074219 55.1875 126.78125 55.1875 C 126.488281 55.1875 126.039062 55.441406 126.039062 56.007812 C 126.039062 56.652344 126.703125 56.984375 127.289062 56.984375 C 128.8125 56.984375 129.4375 54.25 129.59375 53.507812 C 129.867188 52.355469 130.589844 48.371094 130.667969 47.921875 Z M 131.9375 47.921875 "/>
<path style=" stroke:none;fill-rule:nonzero;fill:rgb(0%,0%,0%);fill-opacity:1;" d="M 138.992188 57.570312 C 138.992188 57.53125 138.992188 57.492188 138.738281 57.238281 C 137.234375 55.734375 136.394531 53.273438 136.394531 50.226562 C 136.394531 47.316406 137.097656 44.816406 138.835938 43.058594 C 138.992188 42.921875 138.992188 42.902344 138.992188 42.84375 C 138.992188 42.765625 138.914062 42.726562 138.855469 42.726562 C 138.660156 42.726562 137.429688 43.800781 136.707031 45.265625 C 135.945312 46.789062 135.59375 48.371094 135.59375 50.226562 C 135.59375 51.554688 135.808594 53.332031 136.570312 54.914062 C 137.46875 56.710938 138.679688 57.6875 138.855469 57.6875 C 138.914062 57.6875 138.992188 57.648438 138.992188 57.570312 Z M 138.992188 57.570312 "/>
<path style=" stroke:none;fill-rule:nonzero;fill:rgb(0%,0%,0%);fill-opacity:1;" d="M 146.917969 47.84375 C 146.429688 47.921875 146.253906 48.292969 146.253906 48.566406 C 146.253906 48.9375 146.527344 49.054688 146.742188 49.054688 C 147.191406 49.054688 147.503906 48.664062 147.503906 48.253906 C 147.503906 47.628906 146.78125 47.355469 146.15625 47.355469 C 145.257812 47.355469 144.75 48.253906 144.613281 48.527344 C 144.261719 47.414062 143.34375 47.355469 143.070312 47.355469 C 141.546875 47.355469 140.746094 49.308594 140.746094 49.640625 C 140.746094 49.699219 140.804688 49.777344 140.902344 49.777344 C 141.019531 49.777344 141.058594 49.679688 141.078125 49.621094 C 141.585938 47.960938 142.601562 47.648438 143.03125 47.648438 C 143.695312 47.648438 143.832031 48.273438 143.832031 48.625 C 143.832031 48.957031 143.734375 49.308594 143.558594 50.03125 L 143.050781 52.0625 C 142.835938 52.960938 142.40625 53.78125 141.605469 53.78125 C 141.527344 53.78125 141.15625 53.78125 140.84375 53.585938 C 141.390625 53.488281 141.507812 53.039062 141.507812 52.863281 C 141.507812 52.570312 141.273438 52.375 141 52.375 C 140.628906 52.375 140.238281 52.707031 140.238281 53.175781 C 140.238281 53.800781 140.941406 54.09375 141.585938 54.09375 C 142.308594 54.09375 142.816406 53.527344 143.128906 52.902344 C 143.363281 53.78125 144.125 54.09375 144.671875 54.09375 C 146.195312 54.09375 146.996094 52.121094 146.996094 51.808594 C 146.996094 51.730469 146.9375 51.671875 146.859375 51.671875 C 146.722656 51.671875 146.703125 51.75 146.664062 51.867188 C 146.253906 53.175781 145.394531 53.78125 144.710938 53.78125 C 144.183594 53.78125 143.910156 53.390625 143.910156 52.785156 C 143.910156 52.453125 143.96875 52.21875 144.203125 51.242188 L 144.730469 49.191406 C 144.945312 48.3125 145.453125 47.648438 146.15625 47.648438 C 146.175781 47.648438 146.605469 47.648438 146.917969 47.84375 Z M 146.917969 47.84375 "/>
<path style=" stroke:none;fill-rule:nonzero;fill:rgb(0%,0%,0%);fill-opacity:1;" d="M 152.296875 50.226562 C 152.296875 49.074219 152.140625 47.238281 151.300781 45.5 C 150.421875 43.703125 149.191406 42.726562 149.035156 42.726562 C 148.976562 42.726562 148.898438 42.765625 148.898438 42.84375 C 148.898438 42.902344 148.898438 42.921875 149.152344 43.175781 C 150.65625 44.679688 151.476562 47.160156 151.476562 50.207031 C 151.476562 53.097656 150.773438 55.597656 149.054688 57.355469 C 148.898438 57.492188 148.898438 57.53125 148.898438 57.570312 C 148.898438 57.648438 148.976562 57.6875 149.035156 57.6875 C 149.230469 57.6875 150.460938 56.613281 151.183594 55.148438 C 151.945312 53.625 152.296875 52.003906 152.296875 50.226562 Z M 152.296875 50.226562 "/>
<path style=" stroke:none;fill-rule:nonzero;fill:rgb(0%,0%,0%);fill-opacity:1;" d="M 168.058594 49.09375 C 168.273438 49.09375 168.546875 49.09375 168.546875 48.820312 C 168.546875 48.546875 168.292969 48.546875 168.058594 48.546875 L 159.269531 48.546875 C 159.054688 48.546875 158.78125 48.546875 158.78125 48.820312 C 158.78125 49.09375 159.035156 49.09375 159.269531 49.09375 Z M 168.058594 51.867188 C 168.273438 51.867188 168.546875 51.867188 168.546875 51.613281 C 168.546875 51.320312 168.292969 51.320312 168.058594 51.320312 L 159.269531 51.320312 C 159.054688 51.320312 158.78125 51.320312 158.78125 51.59375 C 158.78125 51.867188 159.035156 51.867188 159.269531 51.867188 Z M 168.058594 51.867188 "/>
<path style=" stroke:none;fill-rule:nonzero;fill:rgb(0%,0%,0%);fill-opacity:1;" d="M 180.089844 47.921875 C 180.382812 47.921875 180.519531 47.921875 180.519531 47.648438 C 180.519531 47.492188 180.382812 47.492188 180.128906 47.492188 L 178.917969 47.492188 C 179.191406 45.949219 179.40625 44.894531 179.523438 44.425781 C 179.621094 44.054688 179.933594 43.722656 180.324219 43.722656 C 180.636719 43.722656 180.949219 43.859375 181.085938 43.996094 C 180.519531 44.054688 180.324219 44.484375 180.324219 44.738281 C 180.324219 45.03125 180.558594 45.207031 180.832031 45.207031 C 181.144531 45.207031 181.59375 44.953125 181.59375 44.386719 C 181.59375 43.761719 180.96875 43.410156 180.304688 43.410156 C 179.660156 43.410156 179.035156 43.898438 178.742188 44.484375 C 178.46875 45.011719 178.3125 45.539062 177.980469 47.492188 L 176.964844 47.492188 C 176.691406 47.492188 176.535156 47.492188 176.535156 47.765625 C 176.535156 47.921875 176.632812 47.921875 176.925781 47.921875 L 177.882812 47.921875 C 177.609375 49.328125 177.003906 52.707031 176.652344 54.289062 C 176.398438 55.597656 176.183594 56.691406 175.441406 56.691406 C 175.382812 56.691406 174.953125 56.691406 174.679688 56.398438 C 175.441406 56.339844 175.441406 55.695312 175.441406 55.675781 C 175.441406 55.363281 175.226562 55.1875 174.933594 55.1875 C 174.640625 55.1875 174.191406 55.441406 174.191406 56.007812 C 174.191406 56.652344 174.855469 56.984375 175.441406 56.984375 C 176.964844 56.984375 177.589844 54.25 177.746094 53.507812 C 178.019531 52.355469 178.742188 48.371094 178.820312 47.921875 Z M 180.089844 47.921875 "/>
<path style=" stroke:none;fill-rule:nonzero;fill:rgb(0%,0%,0%);fill-opacity:1;" d="M 187.144531 57.570312 C 187.144531 57.53125 187.144531 57.492188 186.890625 57.238281 C 185.386719 55.734375 184.546875 53.273438 184.546875 50.226562 C 184.546875 47.316406 185.25 44.816406 186.988281 43.058594 C 187.144531 42.921875 187.144531 42.902344 187.144531 42.84375 C 187.144531 42.765625 187.066406 42.726562 187.007812 42.726562 C 186.8125 42.726562 185.582031 43.800781 184.859375 45.265625 C 184.097656 46.789062 183.746094 48.371094 183.746094 50.226562 C 183.746094 51.554688 183.960938 53.332031 184.722656 54.914062 C 185.621094 56.710938 186.832031 57.6875 187.007812 57.6875 C 187.066406 57.6875 187.144531 57.648438 187.144531 57.570312 Z M 187.144531 57.570312 "/>
<path style=" stroke:none;fill-rule:nonzero;fill:rgb(0%,0%,0%);fill-opacity:1;" d="M 190.734375 48.566406 C 190.480469 48.585938 190.421875 48.605469 190.421875 48.742188 C 190.421875 48.878906 190.5 48.878906 190.753906 48.878906 L 191.4375 48.878906 C 192.726562 48.878906 193.292969 49.933594 193.292969 51.359375 C 193.292969 53.332031 192.277344 53.839844 191.535156 53.839844 C 190.8125 53.839844 189.601562 53.507812 189.152344 52.511719 C 189.640625 52.589844 190.070312 52.316406 190.070312 51.789062 C 190.070312 51.359375 189.757812 51.046875 189.347656 51.046875 C 188.976562 51.046875 188.585938 51.261719 188.585938 51.828125 C 188.585938 53.15625 189.914062 54.25 191.574219 54.25 C 193.351562 54.25 194.679688 52.882812 194.679688 51.378906 C 194.679688 50.011719 193.566406 48.9375 192.140625 48.683594 C 193.429688 48.3125 194.269531 47.21875 194.269531 46.046875 C 194.269531 44.875 193.039062 43.996094 191.59375 43.996094 C 190.109375 43.996094 188.996094 44.914062 188.996094 46.007812 C 188.996094 46.59375 189.464844 46.730469 189.679688 46.730469 C 189.992188 46.730469 190.363281 46.496094 190.363281 46.046875 C 190.363281 45.578125 189.992188 45.363281 189.660156 45.363281 C 189.582031 45.363281 189.542969 45.363281 189.503906 45.382812 C 190.070312 44.367188 191.476562 44.367188 191.554688 44.367188 C 192.042969 44.367188 193.019531 44.582031 193.019531 46.046875 C 193.019531 46.339844 192.980469 47.160156 192.53125 47.804688 C 192.082031 48.46875 191.574219 48.507812 191.183594 48.527344 Z M 190.734375 48.566406 "/>
<path style=" stroke:none;fill-rule:nonzero;fill:rgb(0%,0%,0%);fill-opacity:1;" d="M 199.546875 50.226562 C 199.546875 49.074219 199.390625 47.238281 198.550781 45.5 C 197.671875 43.703125 196.441406 42.726562 196.285156 42.726562 C 196.226562 42.726562 196.148438 42.765625 196.148438 42.84375 C 196.148438 42.902344 196.148438 42.921875 196.402344 43.175781 C 197.90625 44.679688 198.726562 47.160156 198.726562 50.207031 C 198.726562 53.097656 198.023438 55.597656 196.304688 57.355469 C 196.148438 57.492188 196.148438 57.53125 196.148438 57.570312 C 196.148438 57.648438 196.226562 57.6875 196.285156 57.6875 C 196.480469 57.6875 197.710938 56.613281 198.433594 55.148438 C 199.195312 53.625 199.546875 52.003906 199.546875 50.226562 Z M 199.546875 50.226562 "/>
<path style=" stroke:none;fill-rule:nonzero;fill:rgb(0%,0%,0%);fill-opacity:1;" d="M 219.359375 49.09375 C 219.574219 49.09375 219.847656 49.09375 219.847656 48.820312 C 219.847656 48.546875 219.59375 48.546875 219.359375 48.546875 L 210.570312 48.546875 C 210.355469 48.546875 210.082031 48.546875 210.082031 48.820312 C 210.082031 49.09375 210.335938 49.09375 210.570312 49.09375 Z M 219.359375 51.867188 C 219.574219 51.867188 219.847656 51.867188 219.847656 51.613281 C 219.847656 51.320312 219.59375 51.320312 219.359375 51.320312 L 210.570312 51.320312 C 210.355469 51.320312 210.082031 51.320312 210.082031 51.59375 C 210.082031 51.867188 210.335938 51.867188 210.570312 51.867188 Z M 219.359375 51.867188 "/>
<path style=" stroke:none;fill-rule:nonzero;fill:rgb(0%,0%,0%);fill-opacity:1;" d="M 228.96875 49.054688 C 229.613281 49.582031 230.375 49.972656 230.863281 50.207031 C 230.316406 50.441406 229.59375 50.832031 228.96875 51.359375 L 219.496094 51.359375 C 219.242188 51.359375 218.949219 51.359375 218.949219 51.652344 C 218.949219 51.945312 219.222656 51.945312 219.476562 51.945312 L 228.304688 51.945312 C 227.582031 52.628906 226.800781 53.957031 226.800781 54.152344 C 226.800781 54.308594 226.996094 54.308594 227.09375 54.308594 C 227.210938 54.308594 227.308594 54.308594 227.386719 54.191406 C 227.699219 53.625 228.109375 52.824219 229.085938 51.964844 C 230.121094 51.046875 231.117188 50.65625 231.898438 50.421875 C 232.152344 50.34375 232.152344 50.324219 232.191406 50.285156 C 232.210938 50.285156 232.210938 50.226562 232.210938 50.207031 C 232.210938 50.167969 232.210938 50.148438 232.210938 50.109375 L 232.152344 50.089844 C 232.132812 50.070312 232.113281 50.050781 231.839844 49.972656 C 229.808594 49.367188 228.324219 48 227.484375 46.398438 C 227.308594 46.105469 227.308594 46.085938 227.09375 46.085938 C 226.996094 46.085938 226.800781 46.085938 226.800781 46.261719 C 226.800781 46.457031 227.5625 47.746094 228.304688 48.449219 L 219.476562 48.449219 C 219.222656 48.449219 218.949219 48.449219 218.949219 48.761719 C 218.949219 49.054688 219.242188 49.054688 219.496094 49.054688 Z M 228.96875 49.054688 "/>
<path style=" stroke:none;fill-rule:nonzero;fill:rgb(0%,0%,0%);fill-opacity:1;" d="M 248.292969 50.148438 C 248.292969 48.703125 247.472656 47.355469 245.890625 47.355469 C 243.9375 47.355469 241.984375 49.484375 241.984375 51.613281 C 241.984375 52.902344 242.785156 54.09375 244.308594 54.09375 C 245.226562 54.09375 246.339844 53.722656 247.394531 52.824219 C 247.609375 53.664062 248.078125 54.09375 248.722656 54.09375 C 249.523438 54.09375 249.933594 53.253906 249.933594 53.058594 C 249.933594 52.921875 249.816406 52.921875 249.777344 52.921875 C 249.660156 52.921875 249.640625 52.960938 249.601562 53.078125 C 249.464844 53.46875 249.113281 53.78125 248.761719 53.78125 C 248.292969 53.78125 248.292969 52.824219 248.292969 51.925781 C 249.816406 50.089844 250.1875 48.214844 250.1875 48.195312 C 250.1875 48.058594 250.050781 48.058594 250.011719 48.058594 C 249.875 48.058594 249.875 48.117188 249.796875 48.371094 C 249.621094 49.035156 249.230469 50.207031 248.292969 51.417969 Z M 247.355469 52.472656 C 246.046875 53.644531 244.855469 53.78125 244.328125 53.78125 C 243.273438 53.78125 242.980469 52.84375 242.980469 52.140625 C 242.980469 51.496094 243.3125 49.972656 243.761719 49.152344 C 244.386719 48.117188 245.226562 47.648438 245.890625 47.648438 C 247.335938 47.648438 247.335938 49.542969 247.335938 50.792969 C 247.335938 51.164062 247.316406 51.554688 247.316406 51.925781 C 247.316406 52.238281 247.335938 52.316406 247.355469 52.472656 Z M 247.355469 52.472656 "/>
<path style=" stroke:none;fill-rule:nonzero;fill:rgb(0%,0%,0%);fill-opacity:1;" d="M 263.972656 50.5 C 264.226562 50.5 264.5 50.5 264.5 50.207031 C 264.5 49.894531 264.226562 49.894531 263.972656 49.894531 L 255.886719 49.894531 C 255.632812 49.894531 255.359375 49.894531 255.359375 50.207031 C 255.359375 50.5 255.632812 50.5 255.886719 50.5 Z M 263.972656 50.5 "/>
<path style=" stroke:none;fill-rule:nonzero;fill:rgb(0%,0%,0%);fill-opacity:1;" d="M 277.566406 45.246094 C 277.566406 44.347656 276.804688 43.410156 275.457031 43.410156 C 273.523438 43.410156 272.292969 45.773438 271.902344 47.316406 L 269.539062 56.691406 C 269.519531 56.808594 269.597656 56.828125 269.675781 56.828125 C 269.792969 56.828125 269.851562 56.828125 269.871094 56.75 L 270.925781 52.570312 C 271.0625 53.390625 271.902344 54.09375 272.78125 54.09375 C 274.910156 54.09375 276.921875 52.414062 276.921875 50.1875 C 276.921875 49.621094 276.785156 49.054688 276.472656 48.566406 C 276.296875 48.292969 276.082031 48.078125 275.828125 47.902344 C 276.921875 47.335938 277.566406 46.417969 277.566406 45.246094 Z M 274.96875 47.882812 C 274.734375 47.980469 274.5 48 274.207031 48 C 273.992188 48 273.796875 48.019531 273.542969 47.921875 C 273.679688 47.824219 273.914062 47.804688 274.226562 47.804688 C 274.5 47.804688 274.753906 47.824219 274.96875 47.882812 Z M 276.785156 45.109375 C 276.785156 45.929688 276.394531 47.121094 275.417969 47.667969 C 275.144531 47.570312 274.753906 47.492188 274.421875 47.492188 C 274.109375 47.492188 273.210938 47.472656 273.210938 47.941406 C 273.210938 48.351562 274.03125 48.3125 274.285156 48.3125 C 274.675781 48.3125 275.007812 48.214844 275.378906 48.117188 C 275.847656 48.507812 276.0625 49.015625 276.0625 49.757812 C 276.0625 50.617188 275.828125 51.320312 275.535156 51.964844 C 275.046875 53.078125 273.875 53.78125 272.839844 53.78125 C 271.765625 53.78125 271.199219 52.921875 271.199219 51.90625 C 271.199219 51.769531 271.199219 51.574219 271.257812 51.359375 L 272.214844 47.414062 C 272.722656 45.460938 273.972656 43.703125 275.417969 43.703125 C 276.492188 43.703125 276.785156 44.445312 276.785156 45.109375 Z M 276.785156 45.109375 "/>
<path style=" stroke:none;fill-rule:nonzero;fill:rgb(0%,0%,0%);fill-opacity:1;" d="M 292.40625 49.09375 C 292.621094 49.09375 292.894531 49.09375 292.894531 48.820312 C 292.894531 48.546875 292.640625 48.546875 292.40625 48.546875 L 283.617188 48.546875 C 283.402344 48.546875 283.128906 48.546875 283.128906 48.820312 C 283.128906 49.09375 283.382812 49.09375 283.617188 49.09375 Z M 292.40625 51.867188 C 292.621094 51.867188 292.894531 51.867188 292.894531 51.613281 C 292.894531 51.320312 292.640625 51.320312 292.40625 51.320312 L 283.617188 51.320312 C 283.402344 51.320312 283.128906 51.320312 283.128906 51.59375 C 283.128906 51.867188 283.382812 51.867188 283.617188 51.867188 Z M 292.40625 51.867188 "/>
<path style=" stroke:none;fill-rule:nonzero;fill:rgb(0%,0%,0%);fill-opacity:1;" d="M 306.011719 41.21875 L 305.679688 41.21875 C 305.621094 41.472656 305.503906 42.3125 305.367188 42.546875 C 305.25 42.683594 304.410156 42.683594 303.960938 42.683594 L 301.1875 42.683594 C 301.597656 42.332031 302.515625 41.375 302.886719 41.023438 C 305.171875 38.933594 306.011719 38.152344 306.011719 36.667969 C 306.011719 34.949219 304.644531 33.796875 302.90625 33.796875 C 301.1875 33.796875 300.152344 35.28125 300.152344 36.570312 C 300.152344 37.332031 300.816406 37.332031 300.855469 37.332031 C 301.1875 37.332031 301.558594 37.097656 301.558594 36.628906 C 301.558594 36.199219 301.285156 35.925781 300.855469 35.925781 C 300.738281 35.925781 300.699219 35.925781 300.660156 35.945312 C 300.933594 34.929688 301.753906 34.226562 302.710938 34.226562 C 303.980469 34.226562 304.761719 35.300781 304.761719 36.667969 C 304.761719 37.9375 304.039062 39.050781 303.179688 40.007812 L 300.152344 43.386719 L 300.152344 43.738281 L 305.621094 43.738281 Z M 306.011719 41.21875 "/>
<path style=" stroke:none;fill-rule:nonzero;fill:rgb(0%,0%,0%);fill-opacity:1;" d="M 299.414062 49.902344 L 306.761719 49.902344 L 306.761719 50.503906 L 299.414062 50.503906 Z M 299.414062 49.902344 "/>
<path style=" stroke:none;fill-rule:nonzero;fill:rgb(0%,0%,0%);fill-opacity:1;" d="M 302.183594 58.765625 C 301.929688 58.785156 301.871094 58.804688 301.871094 58.941406 C 301.871094 59.078125 301.949219 59.078125 302.203125 59.078125 L 302.886719 59.078125 C 304.175781 59.078125 304.742188 60.132812 304.742188 61.558594 C 304.742188 63.53125 303.726562 64.039062 302.984375 64.039062 C 302.261719 64.039062 301.050781 63.707031 300.601562 62.710938 C 301.089844 62.789062 301.519531 62.515625 301.519531 61.988281 C 301.519531 61.558594 301.207031 61.246094 300.796875 61.246094 C 300.425781 61.246094 300.035156 61.460938 300.035156 62.027344 C 300.035156 63.355469 301.363281 64.449219 303.023438 64.449219 C 304.800781 64.449219 306.128906 63.082031 306.128906 61.578125 C 306.128906 60.210938 305.015625 59.136719 303.589844 58.882812 C 304.878906 58.511719 305.71875 57.417969 305.71875 56.246094 C 305.71875 55.074219 304.488281 54.195312 303.042969 54.195312 C 301.558594 54.195312 300.445312 55.113281 300.445312 56.207031 C 300.445312 56.792969 300.914062 56.929688 301.128906 56.929688 C 301.441406 56.929688 301.8125 56.695312 301.8125 56.246094 C 301.8125 55.777344 301.441406 55.5625 301.109375 55.5625 C 301.03125 55.5625 300.992188 55.5625 300.953125 55.582031 C 301.519531 54.566406 302.925781 54.566406 303.003906 54.566406 C 303.492188 54.566406 304.46875 54.78125 304.46875 56.246094 C 304.46875 56.539062 304.429688 57.359375 303.980469 58.003906 C 303.53125 58.667969 303.023438 58.707031 302.632812 58.726562 Z M 302.183594 58.765625 "/>
</g>
</svg>
