<?xml version="1.0" encoding="UTF-8" standalone="no"?>
<!-- Created with Inkscape (http://www.inkscape.org/) -->

<svg
   xmlns:ns0="http://www.iki.fi/pav/software/textext/"
   xmlns:osb="http://www.openswatchbook.org/uri/2009/osb"
   xmlns:dc="http://purl.org/dc/elements/1.1/"
   xmlns:cc="http://creativecommons.org/ns#"
   xmlns:rdf="http://www.w3.org/1999/02/22-rdf-syntax-ns#"
   xmlns:svg="http://www.w3.org/2000/svg"
   xmlns="http://www.w3.org/2000/svg"
   xmlns:sodipodi="http://sodipodi.sourceforge.net/DTD/sodipodi-0.dtd"
   xmlns:inkscape="http://www.inkscape.org/namespaces/inkscape"
   width="576.92883"
   height="401.06537"
   id="svg2"
   version="1.1"
   inkscape:version="0.48.3.1 r9886"
   sodipodi:docname="wrong.svg">
  <sodipodi:namedview
     id="base"
     pagecolor="#ffffff"
     bordercolor="#666666"
     borderopacity="1.0"
     inkscape:pageopacity="0.0"
     inkscape:pageshadow="2"
     inkscape:zoom="0.41620652"
     inkscape:cx="210.47244"
     inkscape:cy="268.13611"
     inkscape:document-units="px"
     inkscape:current-layer="layer1"
     showgrid="false"
     inkscape:window-width="1096"
     inkscape:window-height="662"
     inkscape:window-x="97"
     inkscape:window-y="38"
     inkscape:window-maximized="0"
     fit-margin-top="0"
     fit-margin-left="0"
     fit-margin-right="0"
     fit-margin-bottom="0"
     showborder="false"
     inkscape:showpageshadow="false">
    <inkscape:grid
       originy="-598.50001px"
       originx="-118.5px"
       snapvisiblegridlinesonly="true"
       enabled="true"
       visible="true"
       empspacing="5"
       type="xygrid"
       id="grid2985" />
  </sodipodi:namedview>
  <defs
     id="defs4">
    <linearGradient
       id="linearGradient6959"
       osb:paint="solid">
      <stop
         style="stop-color:#cccccc;stop-opacity:1;"
         offset="0"
         id="stop6961" />
    </linearGradient>
    <marker
       inkscape:stockid="DotS"
       orient="auto"
       refY="0"
       refX="0"
       id="DotS"
       style="overflow:visible">
      <path
         inkscape:connector-curvature="0"
         id="path3830"
         d="m -2.5,-1 c 0,2.76 -2.24,5 -5,5 -2.76,0 -5,-2.24 -5,-5 0,-2.76 2.24,-5 5,-5 2.76,0 5,2.24 5,5 z"
         style="fill-rule:evenodd;stroke:#000000;stroke-width:1pt"
         transform="matrix(0.2,0,0,0.2,1.48,0.2)" />
    </marker>
    <marker
       inkscape:stockid="Arrow1Mstart"
       orient="auto"
       refY="0"
       refX="0"
       id="Arrow1Mstart"
       style="overflow:visible">
      <path
         inkscape:connector-curvature="0"
         id="path3769"
         d="M 0,0 5,-5 -12.5,0 5,5 0,0 z"
         style="fill-rule:evenodd;stroke:#000000;stroke-width:1pt"
         transform="matrix(0.4,0,0,0.4,4,0)" />
    </marker>
    <marker
       inkscape:stockid="Arrow1Mend"
       orient="auto"
       refY="0"
       refX="0"
       id="Arrow1Mend"
       style="overflow:visible">
      <path
         inkscape:connector-curvature="0"
         id="path3772"
         d="M 0,0 5,-5 -12.5,0 5,5 0,0 z"
         style="fill-rule:evenodd;stroke:#000000;stroke-width:1pt"
         transform="matrix(-0.4,0,0,-0.4,-4,0)" />
    </marker>
  </defs>
  <metadata
     id="metadata7">
    <rdf:RDF>
      <cc:Work
         rdf:about="">
        <dc:format>image/svg+xml</dc:format>
        <dc:type
           rdf:resource="http://purl.org/dc/dcmitype/StillImage" />
        <dc:title></dc:title>
      </cc:Work>
    </rdf:RDF>
  </metadata>
  <g
     transform="translate(-118.5,-52.796826)"
     inkscape:label="Layer 1"
     inkscape:groupmode="layer"
     id="layer1">
    <path
       style="color:#000000;fill:none;stroke:#000000;stroke-width:3;stroke-linecap:butt;stroke-linejoin:round;stroke-miterlimit:4;stroke-opacity:1;stroke-dasharray:none;stroke-dashoffset:0;marker:none;marker-start:url(#Arrow1Mstart);visibility:visible;display:inline;overflow:visible;enable-background:accumulate"
       d="m 160,92.362183 0,359.999997"
       id="path2987"
       inkscape:connector-curvature="0" />
    <path
       style="color:#000000;fill:none;stroke:#000000;stroke-width:3;stroke-linecap:butt;stroke-linejoin:round;stroke-miterlimit:4;stroke-opacity:1;stroke-dasharray:none;stroke-dashoffset:0;marker:none;marker-end:url(#Arrow1Mend);visibility:visible;display:inline;overflow:visible;enable-background:accumulate"
       d="m 120,412.36218 520,0"
       id="path2989"
       inkscape:connector-curvature="0" />
    <path
       style="color:#000000;fill:none;stroke:#000000;stroke-width:3;stroke-linecap:butt;stroke-linejoin:round;stroke-miterlimit:4;stroke-opacity:1;stroke-dasharray:none;stroke-dashoffset:0;marker:none;marker-start:url(#DotS);marker-end:url(#DotS);visibility:visible;display:inline;overflow:visible;enable-background:accumulate"
       d="m 160,252.36218 440,160"
       id="path4389"
       inkscape:connector-curvature="0" />
    <path
       style="color:#000000;fill:none;stroke:#000000;stroke-width:3;stroke-linecap:butt;stroke-linejoin:round;stroke-miterlimit:4;stroke-opacity:1;stroke-dasharray:none;stroke-dashoffset:0;marker:none;marker-start:url(#DotS);marker-end:url(#DotS);visibility:visible;display:inline;overflow:visible;enable-background:accumulate"
       d="m 160,172.36218 320,240"
       id="path4391"
       inkscape:connector-curvature="0" />
    <g
       id="g5155"
       transform="matrix(0.79396978,0,0,0.79396978,410.93043,147.6859)">
      <g
         id="content"
         transform="matrix(1.0629921,0,0,-1.0629921,-186.02362,789.27165)"
         xml:space="preserve"
         stroke-miterlimit="10.433"
         font-style="normal"
         font-variant="normal"
         font-weight="normal"
         font-stretch="normal"
         font-size-adjust="none"
         letter-spacing="normal"
         word-spacing="normal"
         style="font-style:normal;font-variant:normal;font-weight:normal;font-stretch:normal;letter-spacing:normal;word-spacing:normal;text-anchor:start;fill:none;stroke:#000000;stroke-linecap:butt;stroke-linejoin:miter;stroke-miterlimit:10.43299961;stroke-opacity:1;stroke-dasharray:none;stroke-dashoffset:0"><path
           d="m 493.19,435 0.1,0.37 0.05,0.18 0.06,0.17 0.06,0.18 0.07,0.17 0.07,0.16 0.08,0.16 0.08,0.16 0.09,0.16 0.1,0.15 0.1,0.14 0.12,0.14 0.12,0.14 0.13,0.13 0.15,0.12 0.15,0.12 0.16,0.11 0.18,0.11 0.18,0.11 0.2,0.09 0.21,0.09 0.23,0.09 0.23,0.07 0.26,0.07 0.26,0.07 0.28,0.05 0.3,0.05 0.31,0.04 0.33,0.04 0.35,0.03 0.18,0.01 0.19,0 c 0.25,0 0.84,0.05 0.84,1 0,0.05 0,0.55 -0.64,0.55 -1.66,0 -3.39,-0.16 -5.03,-0.16 -1.7,0 -3.44,0.16 -5.1,0.16 -0.29,0 -0.89,0 -0.89,-1 0,-0.55 0.5,-0.55 0.89,-0.55 2.85,-0.04 3.4,-1.09 3.4,-2.18 0,-0.16 -0.1,-0.91 -0.15,-1.05 l -5.57,-22.17 -11.02,26 c -0.41,0.9 -0.45,0.95 -1.59,0.95 h -6.67 c -1,0 -1.46,0 -1.46,-1 0,-0.55 0.46,-0.55 1.39,-0.55 0.25,0 3.39,0 3.39,-0.45 l -6.67,-26.75 c -0.5,-2 -1.34,-3.59 -5.37,-3.73 -0.32,0 -0.86,-0.05 -0.86,-1 0,-0.35 0.25,-0.55 0.65,-0.55 1.6,0 3.33,0.16 4.99,0.16 1.69,0 3.48,-0.16 5.12,-0.16 0.25,0 0.89,0 0.89,1 0,0.5 -0.43,0.55 -0.98,0.55 -2.89,0.09 -3.3,1.18 -3.3,2.18 0,0.35 0.05,0.6 0.21,1.14 l 6.57,26.32 c 0.21,-0.3 0.21,-0.39 0.46,-0.89 l 12.4,-29.35 c 0.35,-0.86 0.49,-0.95 0.94,-0.95 0.55,0 0.55,0.16 0.8,1.05 z"
           id="path5158"
           inkscape:connector-curvature="0"
           style="fill:#000000;stroke-width:0" /><path
           d="m 507.27,420.92 0,0.04 0,0.04 0,0.05 0,0.04 0,0.03 0,0.04 0,0.04 0,0.03 0,0.04 0,0.03 -0.01,0.03 0,0.03 0,0.03 0,0.03 -0.01,0.03 0,0.02 -0.01,0.03 0,0.02 -0.01,0.03 0,0.02 -0.01,0.04 -0.02,0.04 -0.02,0.03 -0.01,0.03 -0.03,0.03 -0.02,0.03 -0.03,0.02 -0.03,0.02 -0.03,0.02 -0.04,0.01 -0.04,0.01 -0.04,0.02 -0.03,0 -0.02,0 -0.03,0.01 -0.02,0 -0.03,0.01 -0.03,0 -0.03,0 -0.03,0 -0.03,0 -0.04,0.01 -0.03,0 -0.04,0 -0.03,0 -0.04,0 -0.04,0 -0.04,0 -0.04,0 -0.04,0 -0.05,0 -0.04,0 c -2.24,-2.2 -5.39,-2.23 -6.83,-2.23 v -1.25 c 0.84,0 3.14,0 5.05,0.97 v -17.77 c 0,-1.16 0,-1.61 -3.49,-1.61 h -1.31 v -1.25 c 0.62,0.03 4.9,0.14 6.2,0.14 1.08,0 5.47,-0.11 6.24,-0.14 v 1.25 h -1.33 c -3.49,0 -3.49,0.45 -3.49,1.61 z"
           id="path5160"
           inkscape:connector-curvature="0"
           style="fill:#000000;stroke-width:0" /></g>    </g>
    <g
       id="g5200"
       transform="matrix(0.79396978,0,0,0.79396978,-99.06957,-202.31411)">
      <g
         word-spacing="normal"
         letter-spacing="normal"
         font-size-adjust="none"
         font-stretch="normal"
         font-weight="normal"
         font-variant="normal"
         font-style="normal"
         stroke-miterlimit="10.433"
         xml:space="preserve"
         transform="matrix(1.0629921,0,0,-1.0629921,-186.02362,789.27165)"
         id="g5202"
         style="font-style:normal;font-variant:normal;font-weight:normal;font-stretch:normal;letter-spacing:normal;word-spacing:normal;text-anchor:start;fill:none;stroke:#000000;stroke-linecap:butt;stroke-linejoin:miter;stroke-miterlimit:10.43299961;stroke-opacity:1;stroke-dasharray:none;stroke-dashoffset:0"><path
           id="path5204"
           d="m 493.19,435 0.1,0.37 0.05,0.18 0.06,0.17 0.06,0.18 0.07,0.17 0.07,0.16 0.08,0.16 0.08,0.16 0.09,0.16 0.1,0.15 0.1,0.14 0.12,0.14 0.12,0.14 0.13,0.13 0.15,0.12 0.15,0.12 0.16,0.11 0.18,0.11 0.18,0.11 0.2,0.09 0.21,0.09 0.23,0.09 0.23,0.07 0.26,0.07 0.26,0.07 0.28,0.05 0.3,0.05 0.31,0.04 0.33,0.04 0.35,0.03 0.18,0.01 0.19,0 c 0.25,0 0.84,0.05 0.84,1 0,0.05 0,0.55 -0.64,0.55 -1.66,0 -3.39,-0.16 -5.03,-0.16 -1.7,0 -3.44,0.16 -5.1,0.16 -0.29,0 -0.89,0 -0.89,-1 0,-0.55 0.5,-0.55 0.89,-0.55 2.85,-0.04 3.4,-1.09 3.4,-2.18 0,-0.16 -0.1,-0.91 -0.15,-1.05 l -5.57,-22.17 -11.02,26 c -0.41,0.9 -0.45,0.95 -1.59,0.95 h -6.67 c -1,0 -1.46,0 -1.46,-1 0,-0.55 0.46,-0.55 1.39,-0.55 0.25,0 3.39,0 3.39,-0.45 l -6.67,-26.75 c -0.5,-2 -1.34,-3.59 -5.37,-3.73 -0.32,0 -0.86,-0.05 -0.86,-1 0,-0.35 0.25,-0.55 0.65,-0.55 1.6,0 3.33,0.16 4.99,0.16 1.69,0 3.48,-0.16 5.12,-0.16 0.25,0 0.89,0 0.89,1 0,0.5 -0.43,0.55 -0.98,0.55 -2.89,0.09 -3.3,1.18 -3.3,2.18 0,0.35 0.05,0.6 0.21,1.14 l 6.57,26.32 c 0.21,-0.3 0.21,-0.39 0.46,-0.89 l 12.4,-29.35 c 0.35,-0.86 0.49,-0.95 0.94,-0.95 0.55,0 0.55,0.16 0.8,1.05 z"
           inkscape:connector-curvature="0"
           style="fill:#000000;stroke-width:0" /><path
           id="path5206"
           d="m 513.2,405.11 h -1.19 c -0.1,-0.77 -0.46,-2.83 -0.91,-3.18 -0.26,-0.2 -2.95,-0.2 -3.44,-0.2 h -6.42 c 3.66,3.23 4.88,4.2 6.97,5.84 2.58,2.07 4.99,4.22 4.99,7.54 0,4.21 -3.69,6.79 -8.16,6.79 -4.31,0 -7.25,-3.03 -7.25,-6.23 0,-1.78 1.5,-1.96 1.86,-1.96 0.83,0 1.84,0.6 1.84,1.85 0,0.62 -0.25,1.84 -2.06,1.84 1.08,2.47 3.45,3.24 5.09,3.24 3.49,0 5.3,-2.71 5.3,-5.53 0,-3.04 -2.16,-5.44 -3.28,-6.69 l -8.39,-8.3 c -0.36,-0.31 -0.36,-0.39 -0.36,-1.36 h 14.36 z"
           inkscape:connector-curvature="0"
           style="fill:#000000;stroke-width:0" /></g>    </g>
    <g
       id="g7009"
       transform="matrix(0.49237605,0.17259932,-0.17259932,0.49237605,312.55284,100.00186)">
      <g
         id="g7011"
         transform="matrix(1.0629921,0,0,-1.0629921,-186.02362,789.27165)"
         xml:space="preserve"
         stroke-miterlimit="10.433"
         font-style="normal"
         font-variant="normal"
         font-weight="normal"
         font-stretch="normal"
         font-size-adjust="none"
         letter-spacing="normal"
         word-spacing="normal"
         style="font-style:normal;font-variant:normal;font-weight:normal;font-stretch:normal;letter-spacing:normal;word-spacing:normal;text-anchor:start;fill:none;stroke:#000000;stroke-linecap:butt;stroke-linejoin:miter;stroke-miterlimit:10.43299961;stroke-opacity:1;stroke-dasharray:none;stroke-dashoffset:0"><path
           d="m 469.97,423.73 0.38,0.13 0.37,0.15 0.37,0.15 0.35,0.17 0.35,0.18 0.34,0.19 0.33,0.2 0.32,0.22 0.31,0.22 0.31,0.23 0.29,0.24 0.28,0.25 0.27,0.26 0.26,0.27 0.25,0.27 0.24,0.29 0.22,0.29 0.21,0.3 0.2,0.3 0.19,0.32 0.18,0.32 0.16,0.32 0.14,0.33 0.14,0.34 0.11,0.34 0.11,0.34 0.09,0.35 0.07,0.36 0.06,0.36 0.04,0.36 0.02,0.36 0.01,0.37 c 0,4.08 -4.39,6.88 -9.17,6.88 -5.03,0 -8.81,-3 -8.81,-6.78 0,-1.65 1.09,-2.6 2.54,-2.6 1.54,0 2.54,1.1 2.54,2.55 0,2.48 -2.35,2.48 -3.08,2.48 1.53,2.44 4.83,3.1 6.62,3.1 2.03,0 4.78,-1.1 4.78,-5.58 0,-0.61 -0.11,-3.49 -1.4,-5.69 -1.49,-2.39 -3.19,-2.53 -4.42,-2.59 -0.41,-0.05 -1.6,-0.14 -1.96,-0.14 -0.39,-0.05 -0.75,-0.1 -0.75,-0.6 0,-0.54 0.36,-0.54 1.21,-0.54 h 2.18 c 4.1,0 5.94,-3.39 5.94,-8.29 0,-6.76 -3.44,-8.21 -5.64,-8.21 -2.14,0 -5.88,0.84 -7.61,3.78 1.73,-0.24 3.28,0.86 3.28,2.75 0,1.79 -1.34,2.78 -2.8,2.78 -1.18,0 -2.78,-0.69 -2.78,-2.89 0,-4.53 4.63,-7.81 10.07,-7.81 6.07,0 10.61,4.53 10.61,9.6 0,4.1 -3.15,7.97 -8.32,9.02 z"
           id="path7013"
           inkscape:connector-curvature="0"
           style="fill:#000000;stroke-width:0" /><path
           d="m 518.15,435 0.09,0.37 0.06,0.18 0.05,0.17 0.07,0.18 0.06,0.17 0.07,0.16 0.08,0.16 0.09,0.16 0.09,0.16 0.1,0.15 0.1,0.14 0.12,0.14 0.12,0.14 0.13,0.13 0.14,0.12 0.16,0.12 0.16,0.11 0.17,0.11 0.19,0.11 0.2,0.09 0.21,0.09 0.22,0.09 0.24,0.07 0.25,0.07 0.27,0.07 0.28,0.05 0.3,0.05 0.31,0.04 0.33,0.04 0.35,0.03 0.18,0.01 0.18,0 c 0.25,0 0.85,0.05 0.85,1 0,0.05 0,0.55 -0.64,0.55 -1.66,0 -3.39,-0.16 -5.03,-0.16 -1.71,0 -3.44,0.16 -5.1,0.16 -0.3,0 -0.89,0 -0.89,-1 0,-0.55 0.5,-0.55 0.89,-0.55 2.85,-0.04 3.39,-1.09 3.39,-2.18 0,-0.16 -0.09,-0.91 -0.14,-1.05 l -5.58,-22.17 -11.01,26 c -0.41,0.9 -0.46,0.95 -1.6,0.95 h -6.67 c -1,0 -1.45,0 -1.45,-1 0,-0.55 0.45,-0.55 1.39,-0.55 0.25,0 3.39,0 3.39,-0.45 l -6.67,-26.75 c -0.5,-2 -1.35,-3.59 -5.38,-3.73 -0.31,0 -0.86,-0.05 -0.86,-1 0,-0.35 0.25,-0.55 0.66,-0.55 1.59,0 3.33,0.16 4.98,0.16 1.69,0 3.49,-0.16 5.13,-0.16 0.25,0 0.89,0 0.89,1 0,0.5 -0.44,0.55 -0.98,0.55 -2.89,0.09 -3.3,1.18 -3.3,2.18 0,0.35 0.05,0.6 0.2,1.14 l 6.58,26.32 c 0.2,-0.3 0.2,-0.39 0.45,-0.89 l 12.41,-29.35 c 0.34,-0.86 0.48,-0.95 0.94,-0.95 0.54,0 0.54,0.16 0.79,1.05 z"
           id="path7015"
           inkscape:connector-curvature="0"
           style="fill:#000000;stroke-width:0" /><path
           d="m 532.23,420.92 0,0.04 0,0.04 0,0.05 0,0.04 0,0.03 0,0.04 0,0.04 0,0.03 -0.01,0.04 0,0.03 0,0.03 0,0.03 0,0.03 -0.01,0.03 0,0.03 -0.01,0.02 0,0.03 0,0.02 -0.01,0.03 0,0.02 -0.02,0.04 -0.01,0.04 -0.02,0.03 -0.02,0.03 -0.02,0.03 -0.02,0.03 -0.03,0.02 -0.03,0.02 -0.04,0.02 -0.03,0.01 -0.04,0.01 -0.05,0.02 -0.02,0 -0.03,0 -0.02,0.01 -0.03,0 -0.02,0.01 -0.03,0 -0.03,0 -0.03,0 -0.04,0 -0.03,0.01 -0.03,0 -0.04,0 -0.04,0 -0.03,0 -0.04,0 -0.04,0 -0.04,0 -0.05,0 -0.04,0 -0.05,0 c -2.23,-2.2 -5.39,-2.23 -6.83,-2.23 v -1.25 c 0.85,0 3.15,0 5.05,0.97 v -17.77 c 0,-1.16 0,-1.61 -3.48,-1.61 h -1.32 v -1.25 c 0.63,0.03 4.91,0.14 6.21,0.14 1.08,0 5.47,-0.11 6.23,-0.14 v 1.25 h -1.32 c -3.49,0 -3.49,0.45 -3.49,1.61 z"
           id="path7017"
           inkscape:connector-curvature="0"
           style="fill:#000000;stroke-width:0" /><path
           d="m 574.3,417.65 h 13.9 c 0.69,0 1.64,0 1.64,1 0,1 -0.95,1 -1.64,1 h -13.9 v 13.96 c 0,0.68 0,1.64 -1,1.64 -0.99,0 -0.99,-0.96 -0.99,-1.64 v -13.96 h -13.95 c -0.7,0 -1.64,0 -1.64,-1 0,-1 0.94,-1 1.64,-1 h 13.95 v -13.94 c 0,-0.7 0,-1.65 0.99,-1.65 1,0 1,0.95 1,1.65 z"
           id="path7019"
           inkscape:connector-curvature="0"
           style="fill:#000000;stroke-width:0" /><path
           d="m 610.3,422.54 v 1.19 c 0,12.61 6.17,14.41 8.72,14.41 1.18,0 3.28,-0.3 4.37,-2 -0.73,0 -2.73,0 -2.73,-2.24 0,-1.54 1.2,-2.29 2.29,-2.29 0.8,0 2.28,0.45 2.28,2.39 0,3 -2.18,5.39 -6.31,5.39 -6.39,0 -13.11,-6.44 -13.11,-17.44 0,-13.31 5.78,-16.84 10.41,-16.84 5.53,0 10.26,4.68 10.26,11.25 0,6.32 -4.43,11.12 -9.96,11.12 l -0.05,-1.16 c 0.8,0 3.09,0 4.64,-3.09 0.89,-1.83 0.89,-4.37 0.89,-6.81 0,-2.39 0,-4.89 -0.84,-6.69 -1.5,-2.98 -3.78,-3.23 -4.94,-3.23 h 0 c -3.14,0 -4.63,2.98 -4.92,3.73 -0.91,2.34 -0.91,6.33 -0.91,7.23 0,3.88 1.59,8.86 6.08,8.86 l 0.05,1.16 c -3.38,0 -5.22,-2.55 -6.22,-4.94 z"
           id="path7021"
           inkscape:connector-curvature="0"
           style="fill:#000000;stroke-width:0" /><path
           d="m 666.35,435 0.09,0.37 0.06,0.18 0.05,0.17 0.07,0.18 0.06,0.17 0.07,0.16 0.08,0.16 0.09,0.16 0.09,0.16 0.09,0.15 0.11,0.14 0.11,0.14 0.13,0.14 0.13,0.13 0.14,0.12 0.16,0.12 0.16,0.11 0.17,0.11 0.19,0.11 0.2,0.09 0.21,0.09 0.22,0.09 0.24,0.07 0.25,0.07 0.27,0.07 0.28,0.05 0.3,0.05 0.31,0.04 0.33,0.04 0.35,0.03 0.18,0.01 0.18,0 c 0.25,0 0.85,0.05 0.85,1 0,0.05 0,0.55 -0.64,0.55 -1.66,0 -3.4,-0.16 -5.03,-0.16 -1.71,0 -3.44,0.16 -5.1,0.16 -0.3,0 -0.89,0 -0.89,-1 0,-0.55 0.5,-0.55 0.89,-0.55 2.85,-0.04 3.39,-1.09 3.39,-2.18 0,-0.16 -0.09,-0.91 -0.14,-1.05 l -5.58,-22.17 -11.01,26 c -0.41,0.9 -0.46,0.95 -1.6,0.95 h -6.67 c -1,0 -1.45,0 -1.45,-1 0,-0.55 0.45,-0.55 1.39,-0.55 0.25,0 3.39,0 3.39,-0.45 l -6.67,-26.75 c -0.5,-2 -1.35,-3.59 -5.38,-3.73 -0.31,0 -0.86,-0.05 -0.86,-1 0,-0.35 0.25,-0.55 0.66,-0.55 1.59,0 3.33,0.16 4.98,0.16 1.69,0 3.49,-0.16 5.13,-0.16 0.25,0 0.89,0 0.89,1 0,0.5 -0.44,0.55 -0.99,0.55 -2.88,0.09 -3.29,1.18 -3.29,2.18 0,0.35 0.04,0.6 0.2,1.14 l 6.58,26.32 c 0.2,-0.3 0.2,-0.39 0.45,-0.89 l 12.41,-29.35 c 0.34,-0.86 0.48,-0.95 0.94,-0.95 0.54,0 0.54,0.16 0.79,1.05 z"
           id="path7023"
           inkscape:connector-curvature="0"
           style="fill:#000000;stroke-width:0" /><path
           d="m 686.35,405.11 h -1.18 c -0.1,-0.77 -0.45,-2.83 -0.91,-3.18 -0.26,-0.2 -2.95,-0.2 -3.44,-0.2 h -6.42 c 3.66,3.23 4.88,4.2 6.97,5.84 2.58,2.07 4.98,4.22 4.98,7.54 0,4.21 -3.68,6.79 -8.15,6.79 -4.31,0 -7.25,-3.03 -7.25,-6.23 0,-1.78 1.5,-1.96 1.86,-1.96 0.83,0 1.84,0.6 1.84,1.85 0,0.62 -0.25,1.84 -2.06,1.84 1.08,2.47 3.45,3.24 5.09,3.24 3.49,0 5.3,-2.71 5.3,-5.53 0,-3.04 -2.16,-5.44 -3.28,-6.69 l -8.39,-8.3 c -0.36,-0.31 -0.36,-0.39 -0.36,-1.36 h 14.36 z"
           id="path7025"
           inkscape:connector-curvature="0"
           style="fill:#000000;stroke-width:0" /><path
           d="m 739.11,422.5 0.14,0 0.15,0 0.14,0 0.07,0.01 0.08,0 0.07,0.01 0.07,0.01 0.07,0.01 0.07,0.01 0.07,0.01 0.06,0.02 0.07,0.02 0.06,0.02 0.06,0.02 0.06,0.03 0.06,0.03 0.05,0.04 0.05,0.03 0.05,0.05 0.04,0.04 0.04,0.05 0.02,0.03 0.02,0.03 0.01,0.02 0.02,0.03 0.01,0.03 0.02,0.04 0.01,0.03 0.01,0.04 0.01,0.03 0.01,0.04 0,0.04 0.01,0.04 0,0.04 0.01,0.04 0,0.04 0,0.05 c 0,1 -0.95,1 -1.64,1 h -29.84 c -0.71,0 -1.64,0 -1.64,-1 0,-0.98 0.93,-0.98 1.68,-0.98 z"
           id="path7027"
           inkscape:connector-curvature="0"
           style="fill:#000000;stroke-width:0" /><path
           d="m 739.16,412.82 0.07,0 0.06,0 0.14,0.01 0.14,0 0.07,0 0.07,0.01 0.07,0.01 0.07,0 0.06,0.01 0.07,0.02 0.07,0.01 0.06,0.02 0.07,0.02 0.06,0.02 0.06,0.02 0.06,0.03 0.05,0.03 0.05,0.04 0.05,0.04 0.05,0.04 0.04,0.05 0.02,0.02 0.02,0.03 0.02,0.02 0.02,0.03 0.01,0.03 0.02,0.03 0.01,0.03 0.02,0.03 0.01,0.04 0.01,0.03 0.01,0.04 0.01,0.04 0,0.04 0.01,0.04 0,0.04 0.01,0.04 0,0.05 0,0.04 c 0,1 -0.95,1 -1.69,1 h -29.75 c -0.75,0 -1.68,0 -1.68,-1 0,-1 0.93,-1 1.64,-1 z"
           id="path7029"
           inkscape:connector-curvature="0"
           style="fill:#000000;stroke-width:0" /><path
           d="m 772.83,424.23 0.33,0.18 0.33,0.17 0.32,0.19 0.31,0.19 0.3,0.19 0.3,0.2 0.29,0.2 0.28,0.2 0.27,0.21 0.26,0.22 0.25,0.21 0.25,0.23 0.23,0.22 0.22,0.24 0.22,0.23 0.2,0.24 0.19,0.24 0.19,0.25 0.17,0.25 0.16,0.26 0.15,0.26 0.13,0.27 0.13,0.27 0.11,0.27 0.1,0.28 0.09,0.28 0.08,0.28 0.06,0.29 0.05,0.29 0.03,0.3 0.02,0.3 0.01,0.31 c 0,4.59 -4.44,7.44 -8.97,7.44 l -0.05,-1.25 c 3.64,0 6.83,-2.6 6.83,-6.19 0,-2.83 -1.95,-5.22 -4.94,-6.97 l -6.17,3.98 c -2.29,1.5 -2.5,3.19 -2.5,4.04 0,3.04 3.25,5.14 6.78,5.14 l 0.05,1.25 c -4.98,0 -9.01,-3.69 -9.01,-8.33 0,-0.89 0.09,-3.14 2.18,-5.49 0.55,-0.59 2.39,-1.84 3.64,-2.68 l 1.14,-0.75 6.14,-3.88 c 1.4,-0.95 3.74,-2.45 3.74,-5.48 0,-3.69 -3.74,-6.28 -7.83,-6.28 -4.28,0 -7.87,3.09 -7.87,7.21 0,2.9 1.59,6.08 5.82,8.43 h 0 l -1.14,0.75 c -2.89,-1.44 -7.17,-4.24 -7.17,-9.18 0,-5.28 5.08,-8.6 10.31,-8.6 5.63,0 10.36,4.14 10.36,9.46 0,1.79 -0.54,4.04 -2.43,6.13 -0.96,1.05 -1.75,1.55 -4.94,3.53 z"
           id="path7031"
           inkscape:connector-curvature="0"
           style="fill:#000000;stroke-width:0" /><path
           d="m 805.32,422.14 -0.01,0.74 -0.01,0.75 -0.02,0.75 -0.03,0.74 -0.05,0.75 -0.06,0.74 -0.07,0.74 -0.1,0.73 -0.11,0.73 -0.14,0.73 -0.16,0.72 -0.19,0.72 -0.22,0.72 -0.25,0.7 -0.27,0.7 -0.15,0.35 -0.16,0.34 c -2.29,4.8 -6.38,5.6 -8.47,5.6 -2.99,0 -6.63,-1.3 -8.67,-5.94 -1.6,-3.44 -1.85,-7.33 -1.85,-11.31 0,-3.74 0.2,-8.22 2.25,-12 2.14,-4.03 5.78,-5.03 8.22,-5.03 v 1.09 c -1.94,0 -4.89,1.25 -5.78,6.03 -0.55,2.98 -0.55,7.56 -0.55,10.52 0,3.18 0,6.46 0.41,9.15 0.94,5.94 4.67,6.38 5.92,6.38 1.64,0 4.94,-0.89 5.88,-5.83 0.5,-2.78 0.5,-6.58 0.5,-9.7 0,-3.75 0,-7.13 -0.55,-10.32 -0.75,-4.73 -3.6,-6.23 -5.83,-6.23 h 0 v -1.09 c 2.69,0 6.47,1.04 8.67,5.78 1.6,3.43 1.85,7.31 1.85,11.25 z"
           id="path7033"
           inkscape:connector-curvature="0"
           style="fill:#000000;stroke-width:0" /></g>    </g>
    <g
       id="g7147"
       transform="matrix(0.51601392,-0.01585766,0.01585766,0.51601392,-7.189561,49.53714)"
       style="stroke:#1531ed;stroke-opacity:1">
      <g
         word-spacing="normal"
         letter-spacing="normal"
         font-size-adjust="none"
         font-stretch="normal"
         font-weight="normal"
         font-variant="normal"
         font-style="normal"
         stroke-miterlimit="10.433"
         xml:space="preserve"
         transform="matrix(0.81740777,0.67955628,0.67955628,-0.81740777,-313.03846,248.89463)"
         id="g7149"
         style="font-style:normal;font-variant:normal;font-weight:normal;font-stretch:normal;letter-spacing:normal;word-spacing:normal;text-anchor:start;fill:none;stroke:#1531ed;stroke-linecap:butt;stroke-linejoin:miter;stroke-miterlimit:10.43299961;stroke-opacity:1;stroke-dasharray:none;stroke-dashoffset:0"><path
           id="path7151"
           d="m 470.16,414.42 v -4.33 c 0,-1.8 -0.09,-2.34 -3.78,-2.34 h -1.05 v -1.55 c 2.05,0.16 4.64,0.16 6.74,0.16 2.09,0 4.73,0 6.76,-0.16 v 1.55 h -1.04 c -3.69,0 -3.79,0.54 -3.79,2.34 v 4.33 h 4.99 v 1.54 H 474 v 22.68 c 0,1 0,1.29 -0.79,1.29 -0.46,0 -0.6,0 -1,-0.61 l -15.3,-23.36 h 1.41 l 12.15,18.58 v -18.58 h -12.15 -1.41 v -1.54 z"
           inkscape:connector-curvature="0"
           style="fill:#000000;stroke:#1531ed;stroke-width:0;stroke-opacity:1" /><path
           id="path7153"
           d="m 518.15,435 0.09,0.37 0.06,0.18 0.05,0.17 0.07,0.18 0.06,0.17 0.07,0.16 0.08,0.16 0.09,0.16 0.09,0.16 0.1,0.15 0.1,0.14 0.12,0.14 0.12,0.14 0.13,0.13 0.14,0.12 0.16,0.12 0.16,0.11 0.17,0.11 0.19,0.11 0.2,0.09 0.21,0.09 0.22,0.09 0.24,0.07 0.25,0.07 0.27,0.07 0.28,0.05 0.3,0.05 0.31,0.04 0.33,0.04 0.35,0.03 0.18,0.01 0.18,0 c 0.25,0 0.85,0.05 0.85,1 0,0.05 0,0.55 -0.64,0.55 -1.66,0 -3.39,-0.16 -5.03,-0.16 -1.71,0 -3.44,0.16 -5.1,0.16 -0.3,0 -0.89,0 -0.89,-1 0,-0.55 0.5,-0.55 0.89,-0.55 2.85,-0.04 3.39,-1.09 3.39,-2.18 0,-0.16 -0.09,-0.91 -0.14,-1.05 l -5.58,-22.17 -11.01,26 c -0.41,0.9 -0.46,0.95 -1.6,0.95 h -6.67 c -1,0 -1.45,0 -1.45,-1 0,-0.55 0.45,-0.55 1.39,-0.55 0.25,0 3.39,0 3.39,-0.45 l -6.67,-26.75 c -0.5,-2 -1.35,-3.59 -5.38,-3.73 -0.31,0 -0.86,-0.05 -0.86,-1 0,-0.35 0.25,-0.55 0.66,-0.55 1.59,0 3.33,0.16 4.98,0.16 1.69,0 3.49,-0.16 5.13,-0.16 0.25,0 0.89,0 0.89,1 0,0.5 -0.44,0.55 -0.98,0.55 -2.89,0.09 -3.3,1.18 -3.3,2.18 0,0.35 0.05,0.6 0.2,1.14 l 6.58,26.32 c 0.2,-0.3 0.2,-0.39 0.45,-0.89 l 12.41,-29.35 c 0.34,-0.86 0.48,-0.95 0.94,-0.95 0.54,0 0.54,0.16 0.79,1.05 z"
           inkscape:connector-curvature="0"
           style="fill:#000000;stroke:#1531ed;stroke-width:0;stroke-opacity:1" /><path
           id="path7155"
           d="m 532.23,420.92 0,0.04 0,0.04 0,0.05 0,0.04 0,0.03 0,0.04 0,0.04 0,0.03 -0.01,0.04 0,0.03 0,0.03 0,0.03 0,0.03 -0.01,0.03 0,0.03 -0.01,0.02 0,0.03 0,0.02 -0.01,0.03 0,0.02 -0.02,0.04 -0.01,0.04 -0.02,0.03 -0.02,0.03 -0.02,0.03 -0.02,0.03 -0.03,0.02 -0.03,0.02 -0.04,0.02 -0.03,0.01 -0.04,0.01 -0.05,0.02 -0.02,0 -0.03,0 -0.02,0.01 -0.03,0 -0.02,0.01 -0.03,0 -0.03,0 -0.03,0 -0.04,0 -0.03,0.01 -0.03,0 -0.04,0 -0.04,0 -0.03,0 -0.04,0 -0.04,0 -0.04,0 -0.05,0 -0.04,0 -0.05,0 c -2.23,-2.2 -5.39,-2.23 -6.83,-2.23 v -1.25 c 0.85,0 3.15,0 5.05,0.97 v -17.77 c 0,-1.16 0,-1.61 -3.48,-1.61 h -1.32 v -1.25 c 0.63,0.03 4.91,0.14 6.21,0.14 1.08,0 5.47,-0.11 6.23,-0.14 v 1.25 h -1.32 c -3.49,0 -3.49,0.45 -3.49,1.61 z"
           inkscape:connector-curvature="0"
           style="fill:#000000;stroke:#1531ed;stroke-width:0;stroke-opacity:1" /><path
           id="path7157"
           d="m 574.3,417.65 h 13.9 c 0.69,0 1.64,0 1.64,1 0,1 -0.95,1 -1.64,1 h -13.9 v 13.96 c 0,0.68 0,1.64 -1,1.64 -0.99,0 -0.99,-0.96 -0.99,-1.64 v -13.96 h -13.95 c -0.7,0 -1.64,0 -1.64,-1 0,-1 0.94,-1 1.64,-1 h 13.95 v -13.94 c 0,-0.7 0,-1.65 0.99,-1.65 1,0 1,0.95 1,1.65 z"
           inkscape:connector-curvature="0"
           style="fill:#000000;stroke:#1531ed;stroke-width:0;stroke-opacity:1" /><path
           id="path7159"
           d="m 618.17,423.73 0.38,0.13 0.37,0.15 0.37,0.15 0.35,0.17 0.35,0.18 0.34,0.19 0.33,0.2 0.32,0.22 0.31,0.22 0.31,0.23 0.29,0.24 0.28,0.25 0.27,0.26 0.26,0.27 0.25,0.27 0.24,0.29 0.22,0.29 0.21,0.3 0.2,0.3 0.19,0.32 0.18,0.32 0.16,0.32 0.14,0.33 0.14,0.34 0.11,0.34 0.11,0.34 0.09,0.35 0.07,0.36 0.06,0.36 0.04,0.36 0.02,0.36 0.01,0.37 c 0,4.08 -4.39,6.88 -9.17,6.88 -5.03,0 -8.81,-3 -8.81,-6.78 0,-1.65 1.09,-2.6 2.54,-2.6 1.53,0 2.53,1.1 2.53,2.55 0,2.48 -2.34,2.48 -3.07,2.48 1.53,2.44 4.82,3.1 6.62,3.1 2.03,0 4.78,-1.1 4.78,-5.58 0,-0.61 -0.11,-3.49 -1.4,-5.69 -1.49,-2.39 -3.19,-2.53 -4.43,-2.59 -0.4,-0.05 -1.59,-0.14 -1.95,-0.14 -0.39,-0.05 -0.75,-0.1 -0.75,-0.6 0,-0.54 0.36,-0.54 1.2,-0.54 h 2.19 c 4.1,0 5.94,-3.39 5.94,-8.29 0,-6.76 -3.44,-8.21 -5.64,-8.21 -2.14,0 -5.88,0.84 -7.61,3.78 1.73,-0.24 3.28,0.86 3.28,2.75 0,1.79 -1.34,2.78 -2.8,2.78 -1.18,0 -2.78,-0.69 -2.78,-2.89 0,-4.53 4.63,-7.81 10.07,-7.81 6.07,0 10.6,4.53 10.6,9.6 0,4.1 -3.14,7.97 -8.31,9.02 z"
           inkscape:connector-curvature="0"
           style="fill:#000000;stroke:#1531ed;stroke-width:0;stroke-opacity:1" /><path
           id="path7161"
           d="m 666.35,435 0.09,0.37 0.06,0.18 0.05,0.17 0.07,0.18 0.06,0.17 0.07,0.16 0.08,0.16 0.09,0.16 0.09,0.16 0.09,0.15 0.11,0.14 0.11,0.14 0.13,0.14 0.13,0.13 0.14,0.12 0.16,0.12 0.16,0.11 0.17,0.11 0.19,0.11 0.2,0.09 0.21,0.09 0.22,0.09 0.24,0.07 0.25,0.07 0.27,0.07 0.28,0.05 0.3,0.05 0.31,0.04 0.33,0.04 0.35,0.03 0.18,0.01 0.18,0 c 0.25,0 0.85,0.05 0.85,1 0,0.05 0,0.55 -0.64,0.55 -1.66,0 -3.4,-0.16 -5.03,-0.16 -1.71,0 -3.44,0.16 -5.1,0.16 -0.3,0 -0.89,0 -0.89,-1 0,-0.55 0.5,-0.55 0.89,-0.55 2.85,-0.04 3.39,-1.09 3.39,-2.18 0,-0.16 -0.09,-0.91 -0.14,-1.05 l -5.58,-22.17 -11.01,26 c -0.41,0.9 -0.46,0.95 -1.6,0.95 h -6.67 c -1,0 -1.45,0 -1.45,-1 0,-0.55 0.45,-0.55 1.39,-0.55 0.25,0 3.39,0 3.39,-0.45 l -6.67,-26.75 c -0.5,-2 -1.35,-3.59 -5.38,-3.73 -0.31,0 -0.86,-0.05 -0.86,-1 0,-0.35 0.25,-0.55 0.66,-0.55 1.59,0 3.33,0.16 4.98,0.16 1.69,0 3.49,-0.16 5.13,-0.16 0.25,0 0.89,0 0.89,1 0,0.5 -0.44,0.55 -0.99,0.55 -2.88,0.09 -3.29,1.18 -3.29,2.18 0,0.35 0.04,0.6 0.2,1.14 l 6.58,26.32 c 0.2,-0.3 0.2,-0.39 0.45,-0.89 l 12.41,-29.35 c 0.34,-0.86 0.48,-0.95 0.94,-0.95 0.54,0 0.54,0.16 0.79,1.05 z"
           inkscape:connector-curvature="0"
           style="fill:#000000;stroke:#1531ed;stroke-width:0;stroke-opacity:1" /><path
           id="path7163"
           d="m 686.35,405.11 h -1.18 c -0.1,-0.77 -0.45,-2.83 -0.91,-3.18 -0.26,-0.2 -2.95,-0.2 -3.44,-0.2 h -6.42 c 3.66,3.23 4.88,4.2 6.97,5.84 2.58,2.07 4.98,4.22 4.98,7.54 0,4.21 -3.68,6.79 -8.15,6.79 -4.31,0 -7.25,-3.03 -7.25,-6.23 0,-1.78 1.5,-1.96 1.86,-1.96 0.83,0 1.84,0.6 1.84,1.85 0,0.62 -0.25,1.84 -2.06,1.84 1.08,2.47 3.45,3.24 5.09,3.24 3.49,0 5.3,-2.71 5.3,-5.53 0,-3.04 -2.16,-5.44 -3.28,-6.69 l -8.39,-8.3 c -0.36,-0.31 -0.36,-0.39 -0.36,-1.36 h 14.36 z"
           inkscape:connector-curvature="0"
           style="fill:#000000;stroke:#1531ed;stroke-width:0;stroke-opacity:1" /><path
           id="path7165"
           d="m 739.11,422.5 0.14,0 0.15,0 0.14,0 0.07,0.01 0.08,0 0.07,0.01 0.07,0.01 0.07,0.01 0.07,0.01 0.07,0.01 0.06,0.02 0.07,0.02 0.06,0.02 0.06,0.02 0.06,0.03 0.06,0.03 0.05,0.04 0.05,0.03 0.05,0.05 0.04,0.04 0.04,0.05 0.02,0.03 0.02,0.03 0.01,0.02 0.02,0.03 0.01,0.03 0.02,0.04 0.01,0.03 0.01,0.04 0.01,0.03 0.01,0.04 0,0.04 0.01,0.04 0,0.04 0.01,0.04 0,0.04 0,0.05 c 0,1 -0.95,1 -1.64,1 h -29.84 c -0.71,0 -1.64,0 -1.64,-1 0,-0.98 0.93,-0.98 1.68,-0.98 z"
           inkscape:connector-curvature="0"
           style="fill:#000000;stroke:#1531ed;stroke-width:0;stroke-opacity:1" /><path
           id="path7167"
           d="m 739.16,412.82 0.07,0 0.06,0 0.14,0.01 0.14,0 0.07,0 0.07,0.01 0.07,0.01 0.07,0 0.06,0.01 0.07,0.02 0.07,0.01 0.06,0.02 0.07,0.02 0.06,0.02 0.06,0.02 0.06,0.03 0.05,0.03 0.05,0.04 0.05,0.04 0.05,0.04 0.04,0.05 0.02,0.02 0.02,0.03 0.02,0.02 0.02,0.03 0.01,0.03 0.02,0.03 0.01,0.03 0.02,0.03 0.01,0.04 0.01,0.03 0.01,0.04 0.01,0.04 0,0.04 0.01,0.04 0,0.04 0.01,0.04 0,0.05 0,0.04 c 0,1 -0.95,1 -1.69,1 h -29.75 c -0.75,0 -1.68,0 -1.68,-1 0,-1 0.93,-1 1.64,-1 z"
           inkscape:connector-curvature="0"
           style="fill:#000000;stroke:#1531ed;stroke-width:0;stroke-opacity:1" /><path
           id="path7169"
           d="m 772.08,438.09 0,0.05 0,0.06 0,0.05 0,0.05 0,0.05 0,0.05 0,0.04 0,0.05 -0.01,0.04 0,0.04 0,0.04 0,0.04 0,0.04 0,0.03 -0.01,0.04 0,0.03 -0.01,0.07 -0.01,0.06 -0.01,0.05 -0.01,0.05 -0.02,0.05 -0.02,0.04 -0.02,0.04 -0.02,0.03 -0.03,0.03 -0.03,0.03 -0.04,0.03 -0.04,0.02 -0.04,0.02 -0.03,0.01 -0.02,0.01 -0.03,0 -0.03,0.01 -0.02,0.01 -0.03,0 -0.03,0.01 -0.04,0 -0.03,0.01 -0.03,0 -0.04,0 -0.04,0.01 -0.04,0 -0.04,0 -0.04,0 -0.04,0 -0.05,0 -0.04,0.01 -0.05,0 -0.05,0 -0.05,0 -0.05,0 c -3.1,-3.19 -7.47,-3.19 -9.06,-3.19 v -1.55 c 1,0 3.93,0 6.51,1.3 v -25.81 c 0,-1.8 -0.14,-2.39 -4.62,-2.39 h -1.6 v -1.55 c 1.75,0.16 6.08,0.16 8.06,0.16 2,0 6.33,0 8.08,-0.16 v 1.55 h -1.59 c -4.49,0 -4.64,0.54 -4.64,2.39 z"
           inkscape:connector-curvature="0"
           style="fill:#000000;stroke:#1531ed;stroke-width:0;stroke-opacity:1" /><path
           id="path7171"
           d="m 805.32,422.14 -0.01,0.74 -0.01,0.75 -0.02,0.75 -0.03,0.74 -0.05,0.75 -0.06,0.74 -0.07,0.74 -0.1,0.73 -0.11,0.73 -0.14,0.73 -0.16,0.72 -0.19,0.72 -0.22,0.72 -0.25,0.7 -0.27,0.7 -0.15,0.35 -0.16,0.34 c -2.29,4.8 -6.38,5.6 -8.47,5.6 -2.99,0 -6.63,-1.3 -8.67,-5.94 -1.6,-3.44 -1.85,-7.33 -1.85,-11.31 0,-3.74 0.2,-8.22 2.25,-12 2.14,-4.03 5.78,-5.03 8.22,-5.03 v 1.09 c -1.94,0 -4.89,1.25 -5.78,6.03 -0.55,2.98 -0.55,7.56 -0.55,10.52 0,3.18 0,6.46 0.41,9.15 0.94,5.94 4.67,6.38 5.92,6.38 1.64,0 4.94,-0.89 5.88,-5.83 0.5,-2.78 0.5,-6.58 0.5,-9.7 0,-3.75 0,-7.13 -0.55,-10.32 -0.75,-4.73 -3.6,-6.23 -5.83,-6.23 h 0 v -1.09 c 2.69,0 6.47,1.04 8.67,5.78 1.6,3.43 1.85,7.31 1.85,11.25 z"
           inkscape:connector-curvature="0"
           style="fill:#000000;stroke:#1531ed;stroke-width:0;stroke-opacity:1" /><path
           id="path7173"
           d="m 830.27,422.14 0,0.74 -0.01,0.75 -0.02,0.75 -0.03,0.74 -0.05,0.75 -0.06,0.74 -0.08,0.74 -0.09,0.73 -0.12,0.73 -0.14,0.73 -0.16,0.72 -0.19,0.72 -0.21,0.72 -0.25,0.7 -0.28,0.7 -0.15,0.35 -0.16,0.34 c -2.28,4.8 -6.37,5.6 -8.47,5.6 -2.98,0 -6.62,-1.3 -8.67,-5.94 -1.59,-3.44 -1.84,-7.33 -1.84,-11.31 0,-3.74 0.2,-8.22 2.25,-12 2.14,-4.03 5.78,-5.03 8.22,-5.03 v 1.09 c -1.94,0 -4.89,1.25 -5.78,6.03 -0.55,2.98 -0.55,7.56 -0.55,10.52 0,3.18 0,6.46 0.41,9.15 0.93,5.94 4.67,6.38 5.92,6.38 1.64,0 4.94,-0.89 5.87,-5.83 0.5,-2.78 0.5,-6.58 0.5,-9.7 0,-3.75 0,-7.13 -0.54,-10.32 -0.75,-4.73 -3.6,-6.23 -5.83,-6.23 h 0 v -1.09 c 2.69,0 6.47,1.04 8.67,5.78 1.59,3.43 1.84,7.31 1.84,11.25 z"
           inkscape:connector-curvature="0"
           style="fill:#000000;stroke:#1531ed;stroke-width:0;stroke-opacity:1" /></g>    </g>
    <g
       transform="matrix(0.65933611,0,0,0.65933611,-75.145779,24.726905)"
       id="g7303">
      <g
         style="font-style:normal;font-variant:normal;font-weight:normal;font-stretch:normal;letter-spacing:normal;word-spacing:normal;text-anchor:start;fill:none;stroke:#000000;stroke-linecap:butt;stroke-linejoin:miter;stroke-miterlimit:10.43299961;stroke-opacity:1;stroke-dasharray:none;stroke-dashoffset:0"
         id="g7305"
         transform="matrix(1.0629921,0,0,-1.0629921,-186.02362,789.27165)"
         xml:space="preserve"
         stroke-miterlimit="10.433"
         font-style="normal"
         font-variant="normal"
         font-weight="normal"
         font-stretch="normal"
         font-size-adjust="none"
         letter-spacing="normal"
         word-spacing="normal"><path
           style="fill:#000000;stroke-width:0"
           inkscape:connector-curvature="0"
           d="m 464.44,411.93 -0.19,-0.3 -0.18,-0.29 -0.19,-0.28 -0.19,-0.26 -0.18,-0.25 -0.19,-0.23 -0.19,-0.22 -0.18,-0.21 -0.19,-0.2 -0.19,-0.18 -0.18,-0.17 -0.19,-0.16 -0.19,-0.15 -0.18,-0.14 -0.19,-0.13 -0.19,-0.12 -0.19,-0.11 -0.19,-0.1 -0.19,-0.09 -0.19,-0.09 -0.19,-0.07 -0.2,-0.07 -0.19,-0.07 -0.2,-0.05 -0.19,-0.05 -0.2,-0.04 -0.2,-0.04 -0.19,-0.03 -0.41,-0.05 -0.4,-0.03 c -0.61,-0.05 -1.05,-0.05 -1.05,-1 0,-0.3 0.25,-0.55 0.64,-0.55 1.34,0 2.89,0.16 4.28,0.16 1.64,0 3.39,-0.16 4.99,-0.16 0.29,0 0.95,0 0.95,0.95 0,0.55 -0.45,0.6 -0.8,0.6 -1.15,0.09 -2.34,0.5 -2.34,1.73 0,0.61 0.3,1.16 0.69,1.84 l 3.79,6.39 h 12.5 l -0.14,1.54 h -11.42 l 9.83,16.45 1.59,-16.45 0.14,-1.54 c 0.11,-1.04 0.8,-7.82 0.8,-8.32 0,-1.5 -2.59,-1.64 -3.58,-1.64 -0.7,0 -1.2,0 -1.2,-1 0,-0.55 0.59,-0.55 0.7,-0.55 2.03,0 4.19,0.16 6.22,0.16 1.25,0 4.39,-0.16 5.64,-0.16 0.3,0 0.89,0 0.89,1 0,0.55 -0.5,0.55 -1.14,0.55 -3.09,0 -3.09,0.34 -3.25,1.79 l -3.03,31.13 c -0.11,1 -0.11,1.2 -0.95,1.2 -0.8,0 -0.99,-0.34 -1.3,-0.84 z"
           id="path7307" /></g>    </g>
    <g
       transform="matrix(0.69111135,0,0,0.69111135,-88.372024,-56.390401)"
       id="g7423">
      <g
         style="font-style:normal;font-variant:normal;font-weight:normal;font-stretch:normal;letter-spacing:normal;word-spacing:normal;text-anchor:start;fill:none;stroke:#000000;stroke-linecap:butt;stroke-linejoin:miter;stroke-miterlimit:10.43299961;stroke-opacity:1;stroke-dasharray:none;stroke-dashoffset:0"
         word-spacing="normal"
         letter-spacing="normal"
         font-size-adjust="none"
         font-stretch="normal"
         font-weight="normal"
         font-variant="normal"
         font-style="normal"
         stroke-miterlimit="10.433"
         xml:space="preserve"
         transform="matrix(1.0629921,0,0,-1.0629921,-186.02362,789.27165)"
         id="g7425"><path
           style="fill:#000000;stroke-width:0"
           inkscape:connector-curvature="0"
           id="path7427"
           d="m 463.49,410.09 -0.05,-0.18 -0.04,-0.17 -0.05,-0.16 -0.04,-0.15 -0.04,-0.15 -0.05,-0.13 -0.05,-0.13 -0.05,-0.12 -0.05,-0.11 -0.06,-0.11 -0.07,-0.1 -0.07,-0.09 -0.07,-0.09 -0.09,-0.07 -0.09,-0.08 -0.11,-0.06 -0.11,-0.07 -0.13,-0.05 -0.13,-0.05 -0.15,-0.05 -0.16,-0.04 -0.09,-0.02 -0.09,-0.01 -0.09,-0.02 -0.1,-0.02 -0.1,-0.01 -0.1,-0.01 -0.11,-0.01 -0.12,-0.02 -0.11,-0.01 -0.13,-0.01 -0.12,0 -0.13,-0.01 -0.14,-0.01 -0.14,0 -0.14,-0.01 -0.15,0 -0.16,-0.01 -0.16,0 -0.16,0 -0.17,0 -0.18,0 -0.18,0 c -0.85,0 -1.35,0 -1.35,-1 0,-0.55 0.46,-0.55 1.35,-0.55 h 17.78 c 7.87,0 13.75,5.87 13.75,10.76 0,3.58 -2.89,6.47 -7.72,7.02 5.19,0.95 10.42,4.64 10.42,9.38 0,3.68 -3.3,6.87 -9.28,6.87 l -0.69,-1.55 c 4.38,0 5.42,-2.93 5.42,-5.12 0,-4.39 -4.28,-9.13 -10.35,-9.13 h -7.27 l -0.3,-1.09 h 9.41 c 4.78,0 5.73,-3.69 5.73,-5.83 0,-4.94 -4.43,-9.76 -10.31,-9.76 h -6.78 c -0.69,0 -0.8,0 -1.09,0.04 -0.5,0.05 -0.64,0.1 -0.64,0.5 0,0.14 0,0.25 0.25,1.14 l 3.43,13.91 0.3,1.09 3.08,12.36 c 0.45,1.74 0.54,1.89 2.7,1.89 h 6.42 l 0.69,1.55 h -16.73 c -0.94,0 -1.44,0 -1.44,-1 0,-0.55 0.44,-0.55 1.39,-0.55 0.09,0 1.05,0 1.89,-0.09 0.89,-0.11 1.34,-0.16 1.34,-0.8 0,-0.2 -0.04,-0.36 -0.2,-0.95 z" /></g>    </g>
    <g
       transform="matrix(0.64950343,0,0,0.64950343,147.31428,129.19592)"
       id="g7549">
      <g
         style="font-style:normal;font-variant:normal;font-weight:normal;font-stretch:normal;letter-spacing:normal;word-spacing:normal;text-anchor:start;fill:none;stroke:#000000;stroke-linecap:butt;stroke-linejoin:miter;stroke-miterlimit:10.43299961;stroke-opacity:1;stroke-dasharray:none;stroke-dashoffset:0"
         id="g7551"
         transform="matrix(1.0629921,0,0,-1.0629921,-186.02362,789.27165)"
         xml:space="preserve"
         stroke-miterlimit="10.433"
         font-style="normal"
         font-variant="normal"
         font-weight="normal"
         font-stretch="normal"
         font-size-adjust="none"
         letter-spacing="normal"
         word-spacing="normal"><path
           style="fill:#000000;stroke-width:0"
           inkscape:connector-curvature="0"
           d="m 493.38,440.82 0,0.02 0,0.02 0,0.01 -0.01,0.02 0,0.02 0,0.02 -0.01,0.02 0,0.02 -0.01,0.02 -0.01,0.02 -0.01,0.02 0,0.02 -0.02,0.02 -0.01,0.02 -0.01,0.02 -0.01,0.02 -0.02,0.02 -0.02,0.02 -0.02,0.02 -0.02,0.02 -0.02,0.01 -0.02,0.02 -0.03,0.01 -0.02,0.02 -0.03,0.01 -0.01,0.01 -0.02,0 -0.01,0.01 -0.02,0 -0.02,0.01 -0.01,0 -0.02,0 -0.02,0.01 -0.02,0 -0.02,0 -0.02,0 -0.02,0 -0.02,0 -0.02,0 c -0.14,0 -0.2,-0.04 -0.75,-0.59 l -3.48,-3.84 c -0.44,0.7 -2.74,4.43 -8.27,4.43 -11.11,0 -22.33,-11.01 -22.33,-22.56 0,-8.23 5.89,-13.65 13.52,-13.65 4.33,0 8.11,1.98 10.75,4.28 4.64,4.09 5.48,8.62 5.48,8.76 0,0.5 -0.5,0.5 -0.59,0.5 -0.3,0 -0.55,-0.09 -0.66,-0.5 -0.43,-1.44 -1.59,-4.98 -5.03,-7.87 -3.43,-2.78 -6.58,-3.63 -9.15,-3.63 -4.49,0 -9.77,2.6 -9.77,10.36 0,2.85 1.05,10.91 6.02,16.74 3.04,3.54 7.73,6.03 12.15,6.03 5.1,0 8.03,-3.83 8.03,-9.61 0,-2 -0.15,-2.05 -0.15,-2.55 0,-0.5 0.54,-0.5 0.75,-0.5 0.64,0 0.64,0.11 0.89,1 z"
           id="path7553" /></g>    </g>
    <g
       transform="matrix(0.69111135,0,0,0.69111135,264.48722,201.03687)"
       id="g7681">
      <g
         style="font-style:normal;font-variant:normal;font-weight:normal;font-stretch:normal;letter-spacing:normal;word-spacing:normal;text-anchor:start;fill:none;stroke:#000000;stroke-linecap:butt;stroke-linejoin:miter;stroke-miterlimit:10.43299961;stroke-opacity:1;stroke-dasharray:none;stroke-dashoffset:0"
         word-spacing="normal"
         letter-spacing="normal"
         font-size-adjust="none"
         font-stretch="normal"
         font-weight="normal"
         font-variant="normal"
         font-style="normal"
         stroke-miterlimit="10.433"
         xml:space="preserve"
         transform="matrix(1.0629921,0,0,-1.0629921,-186.02362,789.27165)"
         id="g7683"><path
           style="fill:#000000;stroke-width:0"
           inkscape:connector-curvature="0"
           id="path7685"
           d="m 463.44,410.09 -0.04,-0.18 -0.05,-0.17 -0.04,-0.16 -0.05,-0.15 -0.04,-0.15 -0.05,-0.13 -0.04,-0.13 -0.05,-0.12 -0.06,-0.11 -0.06,-0.11 -0.06,-0.1 -0.07,-0.09 -0.08,-0.09 -0.09,-0.07 -0.09,-0.08 -0.11,-0.06 -0.11,-0.07 -0.12,-0.05 -0.14,-0.05 -0.15,-0.05 -0.16,-0.04 -0.09,-0.02 -0.08,-0.01 -0.1,-0.02 -0.1,-0.02 -0.1,-0.01 -0.1,-0.01 -0.11,-0.01 -0.11,-0.02 -0.12,-0.01 -0.12,-0.01 -0.13,0 -0.13,-0.01 -0.13,-0.01 -0.15,0 -0.14,-0.01 -0.15,0 -0.16,-0.01 -0.16,0 -0.16,0 -0.17,0 -0.18,0 -0.18,0 c -0.84,0 -1.39,0 -1.39,-0.96 0,-0.59 0.44,-0.59 1.39,-0.59 h 16.48 l -0.89,1.55 h -5.62 c -0.7,0 -0.8,0 -1.11,0.04 -0.48,0.05 -0.64,0.1 -0.64,0.5 0,0.14 0,0.25 0.25,1.14 l 6.83,27.36 c 0.43,1.74 0.54,1.89 2.68,1.89 h 5.33 c 4.89,0 9.02,-2.64 9.02,-9.22 0,-2.43 -1,-10.6 -5.24,-16.09 -1.43,-1.84 -5.37,-5.62 -11.5,-5.62 l 0.89,-1.55 c 10.36,0 20.19,10.51 20.19,21.42 0,7.03 -4.23,12.61 -11.72,12.61 h -16.73 c -0.95,0 -1.5,0 -1.5,-0.95 0,-0.6 0.45,-0.6 1.45,-0.6 0.64,0 1.55,-0.04 2.14,-0.09 0.8,-0.11 1.1,-0.25 1.1,-0.8 0,-0.2 -0.05,-0.36 -0.21,-0.95 z" /></g>    </g>
    <g
       transform="matrix(0.69437612,0,0,0.69437612,373.0809,201.33914)"
       id="g7819">
      <g
         style="font-style:normal;font-variant:normal;font-weight:normal;font-stretch:normal;letter-spacing:normal;word-spacing:normal;text-anchor:start;fill:none;stroke:#000000;stroke-linecap:butt;stroke-linejoin:miter;stroke-miterlimit:10.43299961;stroke-opacity:1;stroke-dasharray:none;stroke-dashoffset:0"
         id="g7821"
         transform="matrix(1.0629921,0,0,-1.0629921,-186.02362,789.27165)"
         xml:space="preserve"
         stroke-miterlimit="10.433"
         font-style="normal"
         font-variant="normal"
         font-weight="normal"
         font-stretch="normal"
         font-size-adjust="none"
         letter-spacing="normal"
         word-spacing="normal"><path
           style="fill:#000000;stroke-width:0"
           inkscape:connector-curvature="0"
           d="m 490.8,417.81 0.01,0.02 0.01,0.03 0.02,0.05 0.02,0.05 0.02,0.05 0.02,0.05 0.02,0.05 0.02,0.05 0.01,0.05 0.01,0.03 0.01,0.02 0.01,0.02 0.01,0.03 0,0.02 0.01,0.02 0.01,0.02 0,0.02 0.01,0.02 0,0.02 0.01,0.01 0,0.02 0,0.02 0,0.01 0,0.01 0.01,0.01 c 0,0.05 0,0.55 -0.6,0.55 -0.45,0 -0.55,-0.3 -0.64,-0.61 -3.25,-7.38 -5.08,-10.7 -13.61,-10.7 h -7.26 c -0.71,0 -0.8,0 -1.1,0.04 -0.5,0.05 -0.65,0.1 -0.65,0.5 0,0.14 0,0.25 0.25,1.14 l 3.39,13.61 h 4.93 c 4.24,0 4.24,-1.04 4.24,-2.29 0,-0.35 0,-0.96 -0.36,-2.44 -0.09,-0.25 -0.14,-0.41 -0.14,-0.55 0,-0.25 0.19,-0.55 0.64,-0.55 0.41,0 0.55,0.25 0.75,0.99 l 2.84,11.67 c 0,0.3 -0.25,0.55 -0.61,0.55 -0.43,0 -0.54,-0.3 -0.68,-0.91 -1.05,-3.78 -1.96,-4.92 -6.54,-4.92 h -4.68 l 3,12 c 0.43,1.75 0.5,1.94 2.68,1.94 h 7.02 c 6.08,0 7.58,-1.44 7.58,-5.53 0,-1.19 0,-1.29 -0.2,-2.64 0,-0.3 -0.05,-0.65 -0.05,-0.9 0,-0.25 0.15,-0.59 0.59,-0.59 0.56,0 0.61,0.3 0.71,1.25 l 1,8.61 c 0.14,1.34 -0.1,1.34 -1.35,1.34 h -25.15 c -1,0 -1.5,0 -1.5,-1 0,-0.54 0.45,-0.54 1.39,-0.54 1.84,0 3.23,0 3.23,-0.89 0,-0.21 0,-0.3 -0.25,-1.21 l -6.56,-26.34 c -0.5,-1.95 -0.61,-2.34 -4.55,-2.34 -0.84,0 -1.39,0 -1.39,-0.96 0,-0.59 0.45,-0.59 1.39,-0.59 h 25.86 c 1.16,0 1.2,0.05 1.55,0.84 z"
           id="path7823" /></g>    </g>
    <g
       style="font-style:normal;font-variant:normal;font-weight:normal;font-stretch:normal;letter-spacing:normal;word-spacing:normal;text-anchor:start;fill:none;stroke:#000000;stroke-linecap:butt;stroke-linejoin:miter;stroke-miterlimit:10.43299961;stroke-opacity:1;stroke-dasharray:none;stroke-dashoffset:0"
       ns0:preamble="/home/abhinavc/playpen/textext/preamble.ini"
       ns0:text="\\begin{tabular}{|c|c|}\n\\hline \n\\text{Pt.} &amp; \\text{Coordinates} \\\\\n\\hline \nA &amp; $(0,\\frac{40}{3})$ \\\\\n\\hline \nB &amp; $(0,\\frac{100}{3})$ \\\\\n\\hline \nC &amp; $(24,\\frac{4}{3})$ \\\\\n\\hline \nD &amp; $(25,0)$ \\\\\n\\hline \nE &amp; $(\\frac{80}{3},0)$ \\\\\n\\hline\n\\end{tabular}"
       text-anchor="start"
       word-spacing="normal"
       letter-spacing="normal"
       font-size-adjust="none"
       font-stretch="normal"
       font-weight="normal"
       font-variant="normal"
       font-style="normal"
       fill-opacity="1"
       fill-rule="evenodd"
       fill="none"
       stroke-opacity="1"
       stroke-dashoffset="0"
       stroke-dasharray="none"
       stroke-miterlimit="10.433"
       stroke-linejoin="miter"
       stroke-linecap="butt"
       stroke="black"
       xml:space="preserve"
       transform="matrix(3.540039,0,0,-3.540039,-749.03227,1894.5141)"
       id="g8715">
<line
   id="line8717"
   stroke-width="0.398"
   y2="538.36"
   x2="410.81"
   y1="538.36"
   x1="325.13" />
<line
   id="line8719"
   stroke-width="0.398"
   y2="538.16"
   x2="325.13"
   y1="526.21"
   x1="325.13" />
<path
   id="path8721"
   fill="black"
   stroke-width="0"
   d="M334.61,532.66 L334.73,532.67 L334.84,532.67 L334.95,532.69 L335.07,532.7 L335.17,532.73 L335.28,532.75 L335.39,532.79 L335.49,532.82 L335.59,532.86 L335.69,532.91 L335.79,532.96 L335.88,533.01 L335.97,533.06 L336.06,533.12 L336.14,533.19 L336.22,533.25 L336.3,533.32 L336.37,533.4 L336.44,533.47 L336.5,533.55 L336.56,533.63 L336.62,533.72 L336.67,533.81 L336.72,533.89 L336.76,533.99 L336.8,534.08 L336.83,534.18 L336.85,534.27 L336.87,534.37 L336.89,534.47 L336.9,534.58 L336.9,534.68 C336.9,535.74,335.92,536.69,334.54,536.69 H332.07 V529.79 H332.95 V532.66 L332.92,533.24 V536.13 H334.33 C335.42,536.13,336.1,535.52,336.1,534.68 C336.1,533.9,335.47,533.24,334.33,533.24 H332.92 L332.95,532.66 Z " />
<path
   id="path8723"
   fill="black"
   stroke-width="0"
   d="M339.22,533.63 H340.62 V534.2 H339.22 V535.46 H338.53 V534.2 H337.67 V533.63 H338.5 V530.97 C338.5,530.38,338.64,529.68,339.33,529.68 C340.02,529.68,340.53,529.93,340.78,530.06 L340.62,530.65 C340.36,530.44,340.04,530.32,339.73,530.32 C339.36,530.32,339.22,530.62,339.22,531.14 Z " />
<polygon
   id="polygon8725"
   fill="black"
   stroke-width="0"
   points="342.86,530.62 342.04,530.62 342.04,529.79 342.86,529.79 " />
<line
   id="line8727"
   stroke-width="0.398"
   y2="538.16"
   x2="349.82"
   y1="526.21"
   x1="349.82" />
<path
   id="path8729"
   fill="black"
   stroke-width="0"
   d="M361.59,530.92 L361.53,530.89 L361.48,530.85 L361.43,530.82 L361.38,530.79 L361.28,530.73 L361.18,530.67 L361.08,530.61 L360.98,530.57 L360.88,530.52 L360.83,530.5 L360.78,530.48 L360.73,530.46 L360.67,530.45 L360.62,530.43 L360.56,530.41 L360.5,530.4 L360.44,530.39 L360.37,530.38 L360.31,530.37 L360.24,530.36 L360.17,530.35 L360.09,530.34 L360.02,530.34 L359.94,530.33 L359.85,530.33 L359.77,530.33 L359.68,530.33 C358.24,530.33,357.35,531.82,357.35,533.25 C357.35,534.6,358.17,536.16,359.7,536.16 C360.4,536.16,360.85,535.99,361.4,535.64 L361.54,536.46 C361.11,536.67,360.34,536.79,359.71,536.79 C357.87,536.79,356.45,535.25,356.45,533.16 C356.45,531.59,357.64,529.68,359.71,529.68 C360.62,529.68,361,529.84,361.65,530.24 Z " />
<path
   id="path8731"
   fill="black"
   stroke-width="0"
   d="M366.83,531.98 L366.83,532.1 L366.82,532.22 L366.8,532.34 L366.78,532.46 L366.76,532.58 L366.73,532.69 L366.69,532.8 L366.65,532.91 L366.61,533.02 L366.56,533.12 L366.51,533.22 L366.45,533.32 L366.39,533.41 L366.32,533.5 L366.26,533.59 L366.18,533.67 L366.11,533.75 L366.03,533.83 L365.94,533.9 L365.86,533.97 L365.77,534.03 L365.68,534.08 L365.59,534.14 L365.49,534.19 L365.39,534.23 L365.29,534.27 L365.19,534.3 L365.08,534.32 L364.98,534.34 L364.87,534.36 L364.76,534.37 L364.65,534.37 L364.64,533.77 C365.34,533.77,366.05,533.25,366.05,532.08 C366.05,530.91,365.38,530.32,364.64,530.32 H364.64 C363.95,530.32,363.24,530.88,363.24,532.08 C363.24,533.28,363.99,533.77,364.64,533.77 L364.65,534.37 C363.43,534.37,362.46,533.28,362.46,531.98 C362.46,530.67,363.48,529.68,364.64,529.68 C365.83,529.68,366.83,530.69,366.83,531.98 Z " />
<path
   id="path8733"
   fill="black"
   stroke-width="0"
   d="M372.09,531.98 L372.09,532.1 L372.08,532.22 L372.06,532.34 L372.04,532.46 L372.02,532.58 L371.99,532.69 L371.95,532.8 L371.92,532.91 L371.87,533.02 L371.82,533.12 L371.77,533.22 L371.71,533.32 L371.65,533.41 L371.59,533.5 L371.52,533.59 L371.44,533.67 L371.37,533.75 L371.29,533.83 L371.21,533.9 L371.12,533.97 L371.03,534.03 L370.94,534.08 L370.85,534.14 L370.75,534.19 L370.65,534.23 L370.55,534.27 L370.45,534.3 L370.34,534.32 L370.24,534.34 L370.13,534.36 L370.02,534.37 L369.91,534.37 L369.9,533.77 C370.6,533.77,371.31,533.25,371.31,532.08 C371.31,530.91,370.64,530.32,369.9,530.32 H369.9 C369.21,530.32,368.5,530.88,368.5,532.08 C368.5,533.28,369.25,533.77,369.9,533.77 L369.91,534.37 C368.69,534.37,367.72,533.28,367.72,531.98 C367.72,530.67,368.74,529.68,369.9,529.68 C371.09,529.68,372.09,530.69,372.09,531.98 Z " />
<path
   id="path8735"
   fill="black"
   stroke-width="0"
   d="M373.69,531.92 L373.69,532.01 L373.7,532.1 L373.71,532.19 L373.72,532.28 L373.74,532.36 L373.76,532.44 L373.79,532.53 L373.81,532.6 L373.85,532.68 L373.88,532.75 L373.92,532.83 L373.96,532.9 L374.01,532.96 L374.06,533.03 L374.11,533.09 L374.17,533.15 L374.22,533.2 L374.29,533.26 L374.35,533.31 L374.41,533.35 L374.48,533.4 L374.55,533.44 L374.63,533.47 L374.7,533.51 L374.78,533.54 L374.86,533.56 L374.94,533.59 L375.03,533.61 L375.11,533.62 L375.2,533.63 L375.29,533.64 L375.38,533.65 V534.31 C374.49,534.3,373.95,533.82,373.64,533.36 V534.26 H372.94 V529.79 H373.69 Z " />
<path
   id="path8737"
   fill="black"
   stroke-width="0"
   d="M379.85,536.69 H379.1 V533.77 C378.57,534.2,378.02,534.31,377.65,534.31 C376.66,534.31,375.89,533.28,375.89,532 C375.89,530.7,376.65,529.68,377.6,529.68 C377.93,529.68,378.51,529.77,379.07,530.31 L378.74,530.57 C378.51,530.37,378.27,530.29,378.01,530.29 C377.39,530.29,376.66,530.76,376.66,531.99 C376.66,533.3,377.52,533.71,378.11,533.71 C378.55,533.71,378.85,533.48,379.07,533.16 V531.17 C379.07,531.03,379.06,530.85,378.74,530.57 L379.07,530.31 V529.79 H379.85 Z " />
<polygon
   id="polygon8739"
   fill="black"
   stroke-width="0"
   points="382.3,536.55 381.41,536.55 381.41,535.66 382.3,535.66 " />
<polygon
   id="polygon8741"
   fill="black"
   stroke-width="0"
   points="382.23,534.2 381.48,534.2 381.48,529.79 382.23,529.79 " />
<path
   id="path8743"
   fill="black"
   stroke-width="0"
   d="M387.38,532.75 L387.38,532.81 L387.38,532.88 L387.38,532.94 L387.38,533.01 L387.37,533.07 L387.36,533.14 L387.35,533.21 L387.34,533.27 L387.33,533.34 L387.31,533.4 L387.29,533.47 L387.27,533.53 L387.25,533.6 L387.22,533.66 L387.19,533.72 L387.16,533.78 L387.12,533.83 L387.08,533.89 L387.03,533.94 L386.99,533.99 L386.93,534.04 L386.88,534.08 L386.81,534.12 L386.75,534.16 L386.71,534.18 L386.67,534.19 L386.64,534.21 L386.6,534.22 L386.56,534.24 L386.52,534.25 L386.47,534.26 L386.43,534.27 L386.38,534.28 L386.34,534.29 L386.29,534.3 L386.24,534.3 L386.18,534.31 L386.13,534.31 L386.08,534.31 L386.02,534.31 C385.13,534.31,384.64,533.64,384.58,533.56 V534.26 H383.86 V529.79 H384.64 V532.23 C384.64,532.88,384.89,533.71,385.64,533.71 C386.6,533.71,386.61,533,386.61,532.68 V529.79 H387.38 Z " />
<path
   id="path8745"
   fill="black"
   stroke-width="0"
   d="M392.17,532.66 L392.17,532.76 L392.17,532.85 L392.16,532.94 L392.14,533.03 L392.12,533.11 L392.1,533.2 L392.08,533.28 L392.05,533.36 L392.01,533.43 L391.98,533.51 L391.94,533.58 L391.9,533.65 L391.85,533.72 L391.8,533.78 L391.75,533.84 L391.7,533.9 L391.64,533.95 L391.58,534 L391.52,534.05 L391.45,534.1 L391.39,534.14 L391.32,534.18 L391.25,534.22 L391.18,534.25 L391.1,534.28 L391.02,534.3 L390.95,534.32 L390.87,534.34 L390.78,534.35 L390.7,534.36 L390.62,534.37 L390.53,534.37 C389.89,534.37,389.44,534.21,388.97,533.94 L389.03,533.29 C389.55,533.66,390.05,533.78,390.53,533.78 C391,533.78,391.4,533.39,391.4,532.65 V532.23 C389.91,532.21,388.64,531.79,388.64,530.91 C388.64,530.49,388.91,529.68,389.78,529.68 C389.92,529.68,390.85,529.7,391.43,530.15 L391.06,530.48 C390.77,530.3,390.39,530.29,390.28,530.29 C389.81,530.29,389.36,530.52,389.36,530.93 C389.36,531.63,390.97,531.7,391.4,531.72 V531.1 C391.4,530.91,391.4,530.67,391.06,530.48 L391.43,530.15 V529.79 H392.17 Z " />
<path
   id="path8747"
   fill="black"
   stroke-width="0"
   d="M394.73,533.63 H396.14 V534.2 H394.73 V535.46 H394.05 V534.2 H393.18 V533.63 H394.02 V530.97 C394.02,530.38,394.16,529.68,394.84,529.68 C395.54,529.68,396.05,529.93,396.3,530.06 L396.14,530.65 C395.88,530.44,395.56,530.32,395.24,530.32 C394.87,530.32,394.73,530.62,394.73,531.14 Z " />
<path
   id="path8749"
   fill="black"
   stroke-width="0"
   d="M400.71,531.97 L400.71,532 L400.71,532.03 L400.71,532.07 L400.71,532.11 L400.71,532.15 L400.71,532.2 L400.7,532.24 L400.7,532.29 L400.7,532.34 L400.69,532.39 L400.69,532.44 L400.69,532.49 L400.68,532.54 L400.67,532.6 L400.66,532.65 L400.66,532.71 L400.65,532.77 L400.63,532.82 L400.62,532.88 L400.61,532.94 L400.59,533 L400.58,533.06 L400.56,533.12 L400.54,533.18 L400.52,533.24 L400.49,533.3 L400.47,533.36 L400.44,533.42 L400.41,533.47 L400.38,533.53 L400.35,533.59 L400.31,533.65 C399.9,534.26,399.3,534.37,398.94,534.37 C397.83,534.37,396.94,533.32,396.94,532.04 C396.94,530.73,397.89,529.68,399.09,529.68 C399.71,529.68,400.28,529.92,400.67,530.2 L400.61,530.84 C399.98,530.33,399.33,530.29,399.1,530.29 C398.3,530.29,397.66,530.99,397.63,531.97 L397.68,532.51 C397.84,533.27,398.37,533.77,398.94,533.77 C399.45,533.77,400.01,533.43,400.14,532.51 H397.68 L397.63,531.97 Z " />
<path
   id="path8751"
   fill="black"
   stroke-width="0"
   d="M404.43,534.05 L404.38,534.08 L404.33,534.1 L404.24,534.14 L404.15,534.17 L404.06,534.2 L403.97,534.23 L403.88,534.26 L403.8,534.28 L403.71,534.3 L403.62,534.32 L403.54,534.33 L403.45,534.35 L403.36,534.36 L403.27,534.36 L403.18,534.37 L403.09,534.37 L403,534.37 C402.75,534.37,401.35,534.37,401.35,533.07 C401.35,532.58,401.63,532.27,401.88,532.08 C402.19,531.86,402.41,531.82,402.96,531.71 C403.32,531.64,403.89,531.52,403.89,530.99 C403.89,530.31,403.11,530.31,402.96,530.31 C402.15,530.31,401.59,530.68,401.42,530.79 L401.3,530.12 C401.61,529.96,402.16,529.68,402.97,529.68 C403.15,529.68,403.69,529.68,404.12,530 C404.43,530.24,404.6,530.64,404.6,531.06 C404.6,531.61,404.23,531.95,404.21,531.98 C403.82,532.33,403.55,532.39,403.06,532.47 C402.51,532.58,402.05,532.68,402.05,533.17 C402.05,533.78,402.77,533.78,402.9,533.78 C403.22,533.78,403.74,533.75,404.31,533.41 Z " />
<line
   id="line8753"
   stroke-width="0.398"
   y2="538.16"
   x2="410.81"
   y1="526.21"
   x1="410.81" />
<line
   id="line8755"
   stroke-width="0.398"
   y2="526.01"
   x2="410.81"
   y1="526.01"
   x1="325.13" />
<line
   id="line8757"
   stroke-width="0.398"
   y2="525.81"
   x2="325.13"
   y1="513.8"
   x1="325.13" />
<path
   id="path8759"
   fill="black"
   stroke-width="0"
   d="M337.91,524.28 H337.03 L334.43,517.39 H335.17 L335.94,519.42 L336.15,519.97 L336.79,521.77 C337,522.36,337.31,523.2,337.38,523.57 H337.39 C337.41,523.43,337.48,523.18,337.71,522.53 L338.61,519.97 H336.15 L335.94,519.42 H338.83 L339.59,517.39 H340.5 Z " />
<line
   id="line8761"
   stroke-width="0.398"
   y2="525.81"
   x2="349.82"
   y1="513.8"
   x1="349.82" />
<path
   id="path8763"
   fill="black"
   stroke-width="0"
   d="M369.86,515.01 L369.86,515.01 L369.86,515.02 L369.86,515.02 L369.86,515.02 L369.86,515.03 L369.86,515.03 L369.86,515.03 L369.86,515.04 L369.86,515.04 L369.85,515.04 L369.85,515.05 L369.85,515.05 L369.85,515.06 L369.84,515.06 L369.84,515.07 L369.83,515.08 L369.83,515.08 L369.82,515.09 L369.82,515.09 L369.82,515.1 L369.81,515.1 L369.81,515.11 L369.8,515.11 L369.8,515.11 L369.8,515.12 L369.79,515.12 L369.79,515.13 L369.78,515.13 L369.78,515.14 L369.77,515.14 L369.77,515.15 L369.76,515.16 L369.76,515.16 L369.75,515.17 L369.74,515.17 L369.74,515.18 L369.73,515.19 L369.72,515.19 L369.72,515.2 L369.71,515.21 L369.7,515.22 L369.69,515.22 C368.45,516.48,368.13,518.35,368.13,519.87 C368.13,521.6,368.51,523.33,369.73,524.57 C369.86,524.69,369.86,524.71,369.86,524.74 C369.86,524.81,369.82,524.84,369.76,524.84 C369.66,524.84,368.77,524.16,368.18,522.9 C367.67,521.81,367.55,520.71,367.55,519.87 C367.55,519.1,367.66,517.9,368.21,516.77 C368.81,515.55,369.66,514.91,369.76,514.91 C369.82,514.91,369.86,514.94,369.86,515.01 Z " />
<path
   id="path8765"
   fill="black"
   stroke-width="0"
   d="M375.02,520.57 L375.02,520.72 L375.02,520.87 L375.01,521.02 L375.01,521.16 L375,521.31 L374.99,521.46 L374.97,521.61 L374.95,521.75 L374.93,521.9 L374.9,522.04 L374.87,522.19 L374.83,522.33 L374.79,522.47 L374.74,522.61 L374.68,522.75 L374.65,522.82 L374.62,522.89 C374.17,523.85,373.35,524.01,372.93,524.01 C372.33,524.01,371.61,523.75,371.2,522.82 C370.88,522.14,370.83,521.36,370.83,520.57 C370.83,519.82,370.87,518.93,371.28,518.17 C371.71,517.37,372.43,517.17,372.92,517.17 V517.39 C372.53,517.39,371.95,517.64,371.77,518.59 C371.66,519.19,371.66,520.1,371.66,520.69 C371.66,521.32,371.66,521.98,371.74,522.52 C371.93,523.7,372.67,523.79,372.92,523.79 C373.25,523.79,373.91,523.61,374.1,522.62 C374.2,522.07,374.2,521.31,374.2,520.69 C374.2,519.94,374.2,519.27,374.09,518.63 C373.94,517.69,373.37,517.39,372.92,517.39 H372.92 V517.17 C373.46,517.17,374.21,517.38,374.65,518.32 C374.97,519.01,375.02,519.78,375.02,520.57 Z " />
<path
   id="path8767"
   fill="black"
   stroke-width="0"
   d="M377.45,517.4 L377.45,517.46 L377.44,517.52 L377.44,517.58 L377.43,517.63 L377.43,517.69 L377.42,517.74 L377.41,517.79 L377.4,517.84 L377.39,517.89 L377.38,517.93 L377.36,517.98 L377.35,518.02 L377.33,518.06 L377.31,518.1 L377.29,518.13 L377.27,518.17 L377.25,518.2 L377.23,518.23 L377.21,518.26 L377.18,518.29 L377.16,518.31 L377.13,518.33 L377.1,518.35 L377.07,518.37 L377.04,518.39 L377.01,518.4 L376.98,518.42 L376.95,518.43 L376.91,518.43 L376.88,518.44 L376.84,518.44 L376.81,518.44 C376.48,518.44,376.28,518.2,376.28,517.92 C376.28,517.65,376.48,517.39,376.81,517.39 C376.93,517.39,377.06,517.43,377.16,517.52 C377.19,517.54,377.2,517.55,377.21,517.55 C377.22,517.55,377.23,517.54,377.23,517.4 C377.23,516.66,376.88,516.07,376.55,515.74 C376.44,515.63,376.44,515.61,376.44,515.58 C376.44,515.51,376.49,515.47,376.54,515.47 C376.65,515.47,377.45,516.24,377.45,517.4 Z " />
<path
   id="path8769"
   fill="black"
   stroke-width="0"
   d="M384.73,522.45 V522.7 H383.96 V525.8 C383.96,525.95,383.96,526,383.81,526 C383.72,526,383.7,526,383.63,525.9 L381.32,522.7 V522.45 H383.37 L383.42,522.7 H381.58 L383.42,525.25 V522.7 L383.37,522.45 V521.88 C383.37,521.65,383.37,521.56,382.8,521.56 H382.62 V521.31 C382.96,521.33,383.41,521.34,383.66,521.34 C383.92,521.34,384.36,521.33,384.71,521.31 V521.56 H384.52 C383.96,521.56,383.96,521.65,383.96,521.88 V522.45 Z " />
<path
   id="path8771"
   fill="black"
   stroke-width="0"
   d="M388.61,523.53 L388.61,523.67 L388.61,523.81 L388.6,523.94 L388.59,524.07 L388.58,524.19 L388.57,524.31 L388.55,524.42 L388.53,524.54 L388.5,524.64 L388.47,524.75 L388.44,524.85 L388.4,524.95 L388.36,525.05 L388.31,525.15 L388.26,525.24 L388.23,525.29 L388.2,525.33 C387.99,525.65,387.56,525.93,387,525.93 V525.74 C387.37,525.74,387.74,525.51,387.86,525.1 C387.97,524.73,387.98,524.23,387.98,523.62 C387.98,523.11,387.98,522.59,387.89,522.15 C387.75,521.52,387.28,521.37,387,521.37 H387 C386.68,521.37,386.25,521.56,386.11,522.13 C386.02,522.54,386.02,523.11,386.02,523.62 C386.02,524.13,386.02,524.66,386.12,525.04 C386.27,525.59,386.71,525.74,387,525.74 V525.93 C385.38,525.93,385.38,524.03,385.38,523.53 C385.38,523.03,385.38,521.17,387,521.17 C388.61,521.17,388.61,523.03,388.61,523.53 Z " />
<line
   id="line8773"
   stroke-width="0.398"
   y2="519.88"
   x2="388.99"
   y1="519.88"
   x1="381.05" />
<path
   id="path8775"
   fill="black"
   stroke-width="0"
   d="M384.94,516.28 L384.99,516.28 L385.04,516.27 L385.08,516.27 L385.13,516.26 L385.18,516.25 L385.22,516.24 L385.27,516.22 L385.31,516.21 L385.35,516.19 L385.39,516.17 L385.43,516.15 L385.47,516.12 L385.51,516.09 L385.54,516.06 L385.58,516.03 L385.61,516 L385.64,515.96 L385.67,515.92 L385.69,515.88 L385.72,515.84 L385.74,515.79 L385.76,515.75 L385.78,515.7 L385.8,515.65 L385.82,515.59 L385.83,515.54 L385.84,515.48 L385.85,515.42 L385.86,515.36 L385.87,515.29 L385.87,515.23 L385.87,515.16 C385.87,514.3,385.37,514.04,384.96,514.04 C384.69,514.04,384.07,514.11,383.78,514.53 C384.11,514.54,384.18,514.77,384.18,514.91 C384.18,515.14,384.02,515.3,383.8,515.3 C383.61,515.3,383.41,515.18,383.41,514.89 C383.41,514.24,384.14,513.82,384.98,513.82 C385.95,513.82,386.61,514.46,386.61,515.16 C386.61,515.7,386.17,516.24,385.4,516.4 C386.13,516.67,386.4,517.19,386.4,517.61 C386.4,518.16,385.77,518.57,384.99,518.57 C384.22,518.57,383.63,518.2,383.63,517.64 C383.63,517.4,383.78,517.27,383.99,517.27 C384.2,517.27,384.34,517.43,384.34,517.63 C384.34,517.83,384.2,517.97,383.99,517.99 C384.23,518.29,384.71,518.37,384.97,518.37 C385.29,518.37,385.72,518.22,385.72,517.61 C385.72,517.32,385.63,517,385.45,516.78 C385.21,516.52,385.02,516.51,384.67,516.49 C384.5,516.47,384.48,516.47,384.45,516.47 C384.43,516.47,384.38,516.45,384.38,516.38 C384.38,516.28,384.44,516.28,384.56,516.28 Z " />
<path
   id="path8777"
   fill="black"
   stroke-width="0"
   d="M393.06,519.87 L393.06,519.95 L393.06,520.02 L393.06,520.1 L393.06,520.18 L393.05,520.35 L393.04,520.53 L393.02,520.71 L393,520.9 L392.97,521.09 L392.94,521.29 L392.9,521.5 L392.85,521.7 L392.8,521.91 L392.74,522.12 L392.67,522.34 L392.59,522.55 L392.55,522.66 L392.5,522.76 L392.46,522.87 L392.41,522.97 C391.81,524.2,390.95,524.84,390.85,524.84 C390.79,524.84,390.75,524.8,390.75,524.74 C390.75,524.71,390.75,524.69,390.94,524.51 C391.92,523.53,392.48,521.95,392.48,519.87 C392.48,518.17,392.12,516.43,390.88,515.17 C390.75,515.06,390.75,515.04,390.75,515.01 C390.75,514.95,390.79,514.91,390.85,514.91 C390.95,514.91,391.85,515.58,392.43,516.84 C392.94,517.94,393.06,519.04,393.06,519.87 Z " />
<line
   id="line8779"
   stroke-width="0.398"
   y2="525.81"
   x2="410.81"
   y1="513.8"
   x1="410.81" />
<line
   id="line8781"
   stroke-width="0.398"
   y2="513.6"
   x2="410.81"
   y1="513.6"
   x1="325.13" />
<line
   id="line8783"
   stroke-width="0.398"
   y2="513.41"
   x2="325.13"
   y1="501.4"
   x1="325.13" />
<path
   id="path8785"
   fill="black"
   stroke-width="0"
   d="M335.12,511.88 V504.99 H337.75 C339.18,504.99,340.23,505.88,340.23,506.86 C340.23,507.72,339.36,508.42,338.3,508.59 C339.21,508.82,339.96,509.4,339.96,510.15 C339.96,511.07,338.89,511.88,337.48,511.88 L337.2,511.33 C338.3,511.33,339.18,510.8,339.18,510.14 C339.18,509.55,338.47,508.87,337.1,508.87 H335.95 V508.27 H337.39 C338.44,508.27,339.42,507.66,339.42,506.86 C339.42,506.12,338.54,505.54,337.47,505.54 H335.95 V508.27 V508.87 V511.33 H337.2 L337.48,511.88 Z " />
<line
   id="line8787"
   stroke-width="0.398"
   y2="513.41"
   x2="349.82"
   y1="501.4"
   x1="349.82" />
<path
   id="path8789"
   fill="black"
   stroke-width="0"
   d="M367.88,502.6 L367.88,502.61 L367.88,502.62 L367.88,502.62 L367.88,502.62 L367.88,502.62 L367.88,502.63 L367.87,502.63 L367.87,502.63 L367.87,502.64 L367.87,502.64 L367.87,502.65 L367.86,502.65 L367.86,502.66 L367.86,502.66 L367.85,502.67 L367.85,502.67 L367.84,502.68 L367.84,502.69 L367.83,502.69 L367.83,502.69 L367.83,502.7 L367.82,502.7 L367.82,502.71 L367.82,502.71 L367.81,502.72 L367.81,502.72 L367.8,502.73 L367.8,502.73 L367.79,502.74 L367.79,502.74 L367.78,502.75 L367.78,502.75 L367.77,502.76 L367.76,502.77 L367.76,502.77 L367.75,502.78 L367.75,502.79 L367.74,502.79 L367.73,502.8 L367.72,502.81 L367.72,502.81 L367.71,502.82 C366.46,504.07,366.15,505.95,366.15,507.47 C366.15,509.2,366.52,510.93,367.75,512.17 C367.88,512.29,367.88,512.31,367.88,512.34 C367.88,512.41,367.84,512.44,367.78,512.44 C367.68,512.44,366.78,511.76,366.2,510.5 C365.69,509.41,365.57,508.31,365.57,507.47 C365.57,506.7,365.68,505.49,366.23,504.37 C366.82,503.15,367.68,502.51,367.78,502.51 C367.84,502.51,367.88,502.53,367.88,502.6 Z " />
<path
   id="path8791"
   fill="black"
   stroke-width="0"
   d="M373.04,508.17 L373.04,508.32 L373.03,508.46 L373.03,508.61 L373.02,508.76 L373.01,508.91 L373,509.06 L372.99,509.21 L372.97,509.35 L372.94,509.5 L372.92,509.64 L372.88,509.79 L372.85,509.93 L372.8,510.07 L372.76,510.21 L372.7,510.35 L372.67,510.42 L372.64,510.49 C372.18,511.45,371.36,511.6,370.95,511.6 C370.35,511.6,369.62,511.35,369.22,510.42 C368.9,509.74,368.85,508.96,368.85,508.17 C368.85,507.42,368.89,506.53,369.3,505.77 C369.72,504.97,370.45,504.77,370.94,504.77 V504.99 C370.55,504.99,369.96,505.24,369.78,506.19 C369.67,506.79,369.67,507.7,369.67,508.29 C369.67,508.92,369.67,509.58,369.75,510.11 C369.94,511.3,370.69,511.39,370.94,511.39 C371.27,511.39,371.92,511.21,372.11,510.22 C372.21,509.67,372.21,508.91,372.21,508.29 C372.21,507.54,372.21,506.86,372.1,506.23 C371.95,505.29,371.39,504.99,370.94,504.99 H370.94 V504.77 C371.47,504.77,372.23,504.98,372.67,505.92 C372.99,506.61,373.04,507.38,373.04,508.17 Z " />
<path
   id="path8793"
   fill="black"
   stroke-width="0"
   d="M375.46,505 L375.46,505.06 L375.46,505.12 L375.45,505.18 L375.45,505.23 L375.44,505.29 L375.43,505.34 L375.43,505.39 L375.42,505.44 L375.4,505.49 L375.39,505.53 L375.38,505.57 L375.36,505.62 L375.34,505.66 L375.33,505.69 L375.31,505.73 L375.29,505.77 L375.27,505.8 L375.24,505.83 L375.22,505.86 L375.2,505.88 L375.17,505.91 L375.14,505.93 L375.11,505.95 L375.09,505.97 L375.06,505.99 L375.03,506 L374.99,506.01 L374.96,506.02 L374.93,506.03 L374.89,506.04 L374.86,506.04 L374.82,506.04 C374.49,506.04,374.3,505.79,374.3,505.52 C374.3,505.25,374.49,504.99,374.82,504.99 C374.94,504.99,375.07,505.03,375.17,505.12 C375.2,505.14,375.21,505.15,375.22,505.15 C375.23,505.15,375.24,505.14,375.24,505 C375.24,504.26,374.89,503.67,374.56,503.34 C374.45,503.23,374.45,503.21,374.45,503.18 C374.45,503.11,374.51,503.07,374.55,503.07 C374.66,503.07,375.46,503.84,375.46,505 Z " />
<path
   id="path8795"
   fill="black"
   stroke-width="0"
   d="M381.4,513.33 L381.4,513.34 L381.4,513.35 L381.4,513.36 L381.4,513.37 L381.4,513.37 L381.4,513.38 L381.4,513.39 L381.4,513.4 L381.4,513.4 L381.4,513.41 L381.39,513.42 L381.39,513.42 L381.39,513.43 L381.39,513.43 L381.39,513.44 L381.39,513.44 L381.39,513.45 L381.39,513.45 L381.39,513.46 L381.39,513.47 L381.38,513.48 L381.38,513.48 L381.37,513.49 L381.37,513.5 L381.37,513.5 L381.36,513.51 L381.35,513.51 L381.35,513.51 L381.34,513.52 L381.33,513.52 L381.32,513.52 L381.31,513.52 L381.31,513.52 L381.3,513.52 L381.3,513.52 L381.29,513.53 L381.29,513.53 L381.28,513.53 L381.27,513.53 L381.27,513.53 L381.26,513.53 L381.25,513.53 L381.25,513.53 L381.24,513.53 L381.23,513.53 L381.22,513.53 L381.21,513.53 L381.21,513.53 L381.2,513.53 L381.19,513.53 C380.74,513.09,380.11,513.08,379.82,513.08 V512.83 C379.99,512.83,380.45,512.83,380.83,513.03 V509.48 C380.83,509.25,380.83,509.16,380.14,509.16 H379.87 V508.91 C380,508.92,380.85,508.94,381.11,508.94 C381.33,508.94,382.2,508.92,382.36,508.91 V509.16 H382.09 C381.4,509.16,381.4,509.25,381.4,509.48 Z " />
<path
   id="path8797"
   fill="black"
   stroke-width="0"
   d="M386.63,511.13 L386.63,511.27 L386.62,511.41 L386.62,511.54 L386.61,511.66 L386.6,511.79 L386.58,511.91 L386.57,512.02 L386.54,512.13 L386.52,512.24 L386.49,512.35 L386.46,512.45 L386.42,512.55 L386.38,512.65 L386.33,512.74 L386.28,512.84 L386.25,512.88 L386.22,512.93 C386,513.25,385.57,513.53,385.01,513.53 V513.33 C385.39,513.33,385.75,513.1,385.88,512.7 C385.99,512.33,385.99,511.83,385.99,511.22 C385.99,510.7,385.99,510.19,385.9,509.75 C385.77,509.12,385.29,508.97,385.01,508.97 H385.01 C384.69,508.97,384.27,509.15,384.13,509.73 C384.03,510.14,384.03,510.7,384.03,511.22 C384.03,511.73,384.03,512.26,384.14,512.64 C384.28,513.19,384.73,513.33,385.01,513.33 V513.53 C383.4,513.53,383.4,511.63,383.4,511.13 C383.4,510.63,383.4,508.77,385.01,508.77 C386.63,508.77,386.63,510.63,386.63,511.13 Z " />
<path
   id="path8799"
   fill="black"
   stroke-width="0"
   d="M390.6,511.13 L390.6,511.27 L390.6,511.41 L390.59,511.54 L390.58,511.66 L390.57,511.79 L390.56,511.91 L390.54,512.02 L390.52,512.13 L390.49,512.24 L390.46,512.35 L390.43,512.45 L390.39,512.55 L390.35,512.65 L390.3,512.74 L390.25,512.84 L390.22,512.88 L390.19,512.93 C389.97,513.25,389.54,513.53,388.98,513.53 V513.33 C389.36,513.33,389.72,513.1,389.85,512.7 C389.96,512.33,389.97,511.83,389.97,511.22 C389.97,510.7,389.97,510.19,389.88,509.75 C389.74,509.12,389.26,508.97,388.98,508.97 H388.98 C388.67,508.97,388.24,509.15,388.1,509.73 C388,510.14,388,510.7,388,511.22 C388,511.73,388,512.26,388.11,512.64 C388.25,513.19,388.7,513.33,388.98,513.33 V513.53 C387.37,513.53,387.37,511.63,387.37,511.13 C387.37,510.63,387.37,508.77,388.98,508.77 C390.6,508.77,390.6,510.63,390.6,511.13 Z " />
<line
   id="line8801"
   stroke-width="0.398"
   y2="507.48"
   x2="390.98"
   y1="507.48"
   x1="379.06" />
<path
   id="path8803"
   fill="black"
   stroke-width="0"
   d="M384.94,503.88 L384.99,503.87 L385.04,503.87 L385.08,503.87 L385.13,503.86 L385.18,503.85 L385.22,503.84 L385.27,503.82 L385.31,503.81 L385.35,503.79 L385.39,503.77 L385.43,503.74 L385.47,503.72 L385.51,503.69 L385.54,503.66 L385.58,503.63 L385.61,503.6 L385.64,503.56 L385.67,503.52 L385.69,503.48 L385.72,503.44 L385.74,503.39 L385.76,503.35 L385.78,503.3 L385.8,503.24 L385.82,503.19 L385.83,503.14 L385.84,503.08 L385.85,503.02 L385.86,502.96 L385.87,502.89 L385.87,502.82 L385.87,502.76 C385.87,501.89,385.37,501.64,384.96,501.64 C384.69,501.64,384.07,501.71,383.78,502.12 C384.11,502.14,384.18,502.37,384.18,502.51 C384.18,502.73,384.02,502.89,383.8,502.89 C383.61,502.89,383.41,502.78,383.41,502.49 C383.41,501.84,384.14,501.41,384.98,501.41 C385.95,501.41,386.61,502.06,386.61,502.76 C386.61,503.3,386.17,503.84,385.4,504 C386.13,504.27,386.4,504.79,386.4,505.21 C386.4,505.76,385.77,506.17,384.99,506.17 C384.22,506.17,383.63,505.8,383.63,505.24 C383.63,505,383.78,504.87,383.99,504.87 C384.2,504.87,384.34,505.03,384.34,505.23 C384.34,505.43,384.2,505.57,383.99,505.59 C384.23,505.89,384.71,505.97,384.97,505.97 C385.29,505.97,385.72,505.82,385.72,505.21 C385.72,504.92,385.63,504.6,385.45,504.38 C385.21,504.12,385.02,504.11,384.67,504.08 C384.5,504.07,384.48,504.07,384.45,504.06 C384.43,504.06,384.38,504.05,384.38,503.97 C384.38,503.88,384.44,503.88,384.56,503.88 Z " />
<path
   id="path8805"
   fill="black"
   stroke-width="0"
   d="M395.05,507.47 L395.05,507.54 L395.05,507.62 L395.04,507.7 L395.04,507.78 L395.03,507.95 L395.02,508.12 L395.01,508.31 L394.98,508.5 L394.96,508.69 L394.93,508.89 L394.89,509.09 L394.84,509.3 L394.79,509.51 L394.73,509.72 L394.66,509.93 L394.58,510.15 L394.53,510.25 L394.49,510.36 L394.44,510.47 L394.39,510.57 C393.8,511.79,392.94,512.44,392.84,512.44 C392.78,512.44,392.74,512.4,392.74,512.34 C392.74,512.31,392.74,512.29,392.93,512.11 C393.9,511.13,394.47,509.55,394.47,507.47 C394.47,505.77,394.1,504.02,392.87,502.77 C392.74,502.65,392.74,502.63,392.74,502.6 C392.74,502.54,392.78,502.51,392.84,502.51 C392.94,502.51,393.83,503.18,394.42,504.44 C394.93,505.53,395.05,506.64,395.05,507.47 Z " />
<line
   id="line8807"
   stroke-width="0.398"
   y2="513.41"
   x2="410.81"
   y1="501.4"
   x1="410.81" />
<line
   id="line8809"
   stroke-width="0.398"
   y2="501.2"
   x2="410.81"
   y1="501.2"
   x1="325.13" />
<line
   id="line8811"
   stroke-width="0.398"
   y2="501"
   x2="325.13"
   y1="489"
   x1="325.13" />
<path
   id="path8813"
   fill="black"
   stroke-width="0"
   d="M340.08,493.72 L340.03,493.68 L339.98,493.65 L339.92,493.61 L339.87,493.58 L339.77,493.52 L339.68,493.46 L339.58,493.41 L339.48,493.36 L339.38,493.31 L339.33,493.29 L339.28,493.27 L339.22,493.26 L339.17,493.24 L339.11,493.22 L339.06,493.21 L339,493.19 L338.94,493.18 L338.87,493.17 L338.81,493.16 L338.74,493.15 L338.67,493.14 L338.59,493.14 L338.51,493.13 L338.43,493.13 L338.35,493.12 L338.26,493.12 L338.17,493.12 C336.74,493.12,335.85,494.61,335.85,496.04 C335.85,497.39,336.67,498.95,338.19,498.95 C338.9,498.95,339.35,498.79,339.89,498.44 L340.04,499.25 C339.61,499.46,338.84,499.59,338.2,499.59 C336.36,499.59,334.95,498.04,334.95,495.95 C334.95,494.38,336.14,492.48,338.2,492.48 C339.12,492.48,339.5,492.64,340.14,493.03 Z " />
<line
   id="line8815"
   stroke-width="0.398"
   y2="501"
   x2="349.82"
   y1="489"
   x1="349.82" />
<path
   id="path8817"
   fill="black"
   stroke-width="0"
   d="M369.36,490.2 L369.36,490.21 L369.36,490.21 L369.36,490.22 L369.36,490.22 L369.36,490.22 L369.36,490.22 L369.35,490.23 L369.35,490.23 L369.35,490.24 L369.35,490.24 L369.35,490.24 L369.34,490.25 L369.34,490.25 L369.34,490.26 L369.33,490.26 L369.33,490.27 L369.32,490.28 L369.32,490.28 L369.31,490.29 L369.31,490.29 L369.31,490.3 L369.3,490.3 L369.3,490.3 L369.3,490.31 L369.29,490.31 L369.29,490.32 L369.28,490.32 L369.28,490.33 L369.27,490.33 L369.27,490.34 L369.26,490.35 L369.26,490.35 L369.25,490.36 L369.24,490.36 L369.24,490.37 L369.23,490.38 L369.23,490.38 L369.22,490.39 L369.21,490.4 L369.2,490.4 L369.2,490.41 L369.19,490.42 C367.95,491.67,367.63,493.55,367.63,495.07 C367.63,496.8,368.01,498.53,369.23,499.77 C369.36,499.89,369.36,499.91,369.36,499.94 C369.36,500.01,369.32,500.04,369.26,500.04 C369.16,500.04,368.26,499.36,367.68,498.1 C367.17,497.01,367.05,495.9,367.05,495.07 C367.05,494.3,367.16,493.09,367.71,491.97 C368.3,490.75,369.16,490.1,369.26,490.1 C369.32,490.1,369.36,490.13,369.36,490.2 Z " />
<path
   id="path8819"
   fill="black"
   stroke-width="0"
   d="M371.2,493.35 L372.26,494.37 C373.81,495.74,374.41,496.28,374.41,497.27 C374.41,498.41,373.51,499.2,372.3,499.2 C371.17,499.2,370.44,498.29,370.44,497.4 C370.44,496.85,370.93,496.85,370.96,496.85 C371.13,496.85,371.48,496.97,371.48,497.37 C371.48,497.63,371.3,497.89,370.95,497.89 C370.88,497.89,370.86,497.89,370.83,497.88 C371.05,498.53,371.59,498.89,372.17,498.89 C373.07,498.89,373.5,498.09,373.5,497.27 C373.5,496.48,373,495.7,372.46,495.08 L370.55,492.95 C370.44,492.84,370.44,492.82,370.44,492.59 H374.13 L374.41,494.32 H374.16 C374.11,494.02,374.04,493.58,373.94,493.43 C373.87,493.35,373.21,493.35,372.99,493.35 Z " />
<path
   id="path8821"
   fill="black"
   stroke-width="0"
   d="M377.85,494.23 V493.36 C377.85,493,377.83,492.89,377.09,492.89 H376.88 V492.59 C377.29,492.62,377.81,492.62,378.22,492.62 C378.64,492.62,379.17,492.62,379.58,492.59 V492.89 H379.37 C378.63,492.89,378.61,493,378.61,493.36 V494.23 H379.61 V494.53 H378.61 V499.05 C378.61,499.25,378.61,499.31,378.45,499.31 C378.36,499.31,378.33,499.31,378.25,499.19 L375.2,494.53 H375.48 L377.91,498.24 V494.53 H375.48 H375.2 V494.23 Z " />
<path
   id="path8823"
   fill="black"
   stroke-width="0"
   d="M381.92,492.6 L381.92,492.66 L381.92,492.72 L381.92,492.77 L381.91,492.83 L381.9,492.88 L381.9,492.94 L381.89,492.99 L381.88,493.04 L381.87,493.08 L381.85,493.13 L381.84,493.17 L381.82,493.21 L381.81,493.25 L381.79,493.29 L381.77,493.33 L381.75,493.36 L381.73,493.4 L381.71,493.43 L381.68,493.46 L381.66,493.48 L381.63,493.51 L381.6,493.53 L381.58,493.55 L381.55,493.57 L381.52,493.58 L381.49,493.6 L381.46,493.61 L381.42,493.62 L381.39,493.63 L381.36,493.63 L381.32,493.64 L381.29,493.64 C380.96,493.64,380.76,493.39,380.76,493.11 C380.76,492.84,380.96,492.59,381.29,492.59 C381.4,492.59,381.53,492.63,381.63,492.71 C381.66,492.73,381.67,492.74,381.68,492.74 C381.69,492.74,381.7,492.73,381.7,492.6 C381.7,491.86,381.36,491.27,381.03,490.94 C380.92,490.83,380.92,490.81,380.92,490.78 C380.92,490.71,380.97,490.67,381.02,490.67 C381.13,490.67,381.92,491.43,381.92,492.6 Z " />
<path
   id="path8825"
   fill="black"
   stroke-width="0"
   d="M389.21,497.65 V497.9 H388.44 V501 C388.44,501.15,388.44,501.2,388.28,501.2 C388.2,501.2,388.17,501.2,388.1,501.1 L385.8,497.9 V497.65 H387.84 L387.89,497.9 H386.05 L387.89,500.45 V497.9 L387.84,497.65 V497.08 C387.84,496.84,387.84,496.76,387.28,496.76 H387.09 V496.51 C387.44,496.52,387.89,496.54,388.14,496.54 C388.39,496.54,388.84,496.52,389.19,496.51 V496.76 H389 C388.44,496.76,388.44,496.84,388.44,497.08 V497.65 Z " />
<line
   id="line8827"
   stroke-width="0.398"
   y2="495.08"
   x2="389.5"
   y1="495.08"
   x1="385.53" />
<path
   id="path8829"
   fill="black"
   stroke-width="0"
   d="M387.43,491.47 L387.48,491.47 L387.53,491.47 L387.58,491.46 L387.62,491.46 L387.67,491.45 L387.72,491.43 L387.76,491.42 L387.8,491.4 L387.84,491.38 L387.88,491.36 L387.92,491.34 L387.96,491.32 L388,491.29 L388.03,491.26 L388.07,491.23 L388.1,491.19 L388.13,491.16 L388.16,491.12 L388.18,491.08 L388.21,491.04 L388.23,490.99 L388.25,490.94 L388.27,490.89 L388.29,490.84 L388.31,490.79 L388.32,490.73 L388.33,490.68 L388.34,490.62 L388.35,490.55 L388.36,490.49 L388.36,490.42 L388.36,490.35 C388.36,489.49,387.86,489.23,387.45,489.23 C387.18,489.23,386.56,489.31,386.27,489.72 C386.6,489.73,386.67,489.96,386.67,490.11 C386.67,490.33,386.51,490.49,386.29,490.49 C386.1,490.49,385.9,490.38,385.9,490.09 C385.9,489.44,386.63,489.01,387.47,489.01 C388.44,489.01,389.11,489.66,389.11,490.35 C389.11,490.9,388.66,491.44,387.89,491.6 C388.62,491.86,388.89,492.38,388.89,492.81 C388.89,493.36,388.26,493.77,387.48,493.77 C386.71,493.77,386.12,493.39,386.12,492.84 C386.12,492.6,386.27,492.47,386.48,492.47 C386.7,492.47,386.83,492.63,386.83,492.82 C386.83,493.02,386.7,493.17,386.48,493.18 C386.72,493.49,387.2,493.57,387.46,493.57 C387.78,493.57,388.21,493.41,388.21,492.81 C388.21,492.52,388.12,492.2,387.94,491.98 C387.71,491.72,387.51,491.7,387.16,491.68 C386.99,491.67,386.98,491.67,386.94,491.66 C386.93,491.66,386.87,491.65,386.87,491.57 C386.87,491.47,386.93,491.47,387.05,491.47 Z " />
<path
   id="path8831"
   fill="black"
   stroke-width="0"
   d="M393.57,495.07 L393.57,495.14 L393.57,495.22 L393.56,495.3 L393.56,495.38 L393.55,495.55 L393.54,495.72 L393.53,495.91 L393.5,496.09 L393.48,496.29 L393.44,496.49 L393.4,496.69 L393.36,496.9 L393.31,497.11 L393.24,497.32 L393.17,497.53 L393.1,497.75 L393.05,497.85 L393.01,497.96 L392.96,498.06 L392.91,498.17 C392.31,499.39,391.46,500.04,391.36,500.04 C391.3,500.04,391.26,500,391.26,499.94 C391.26,499.91,391.26,499.89,391.45,499.71 C392.42,498.73,392.99,497.15,392.99,495.07 C392.99,493.37,392.62,491.62,391.39,490.37 C391.26,490.25,391.26,490.23,391.26,490.2 C391.26,490.14,391.3,490.1,391.36,490.1 C391.46,490.1,392.35,490.78,392.94,492.04 C393.45,493.13,393.57,494.23,393.57,495.07 Z " />
<line
   id="line8833"
   stroke-width="0.398"
   y2="501"
   x2="410.81"
   y1="489"
   x1="410.81" />
<line
   id="line8835"
   stroke-width="0.398"
   y2="488.8"
   x2="410.81"
   y1="488.8"
   x1="325.13" />
<line
   id="line8837"
   stroke-width="0.398"
   y2="488.6"
   x2="325.13"
   y1="476.65"
   x1="325.13" />
<path
   id="path8839"
   fill="black"
   stroke-width="0"
   d="M334.83,487.13 V480.23 H337.45 C339.14,480.23,340.49,481.74,340.49,483.62 C340.49,485.55,339.15,487.13,337.44,487.13 L337.21,486.57 C338.61,486.57,339.64,485.37,339.64,483.62 C339.64,481.93,338.61,480.79,337.21,480.79 H335.69 V486.57 H337.21 L337.44,487.13 Z " />
<line
   id="line8841"
   stroke-width="0.398"
   y2="488.6"
   x2="349.82"
   y1="476.65"
   x1="349.82" />
<path
   id="path8843"
   fill="black"
   stroke-width="0"
   d="M370.05,477.85 L370.05,477.85 L370.05,477.86 L370.05,477.86 L370.05,477.87 L370.05,477.87 L370.05,477.87 L370.05,477.88 L370.04,477.88 L370.04,477.88 L370.04,477.89 L370.04,477.89 L370.03,477.9 L370.03,477.9 L370.03,477.91 L370.02,477.91 L370.02,477.92 L370.01,477.92 L370.01,477.93 L370,477.94 L370,477.94 L370,477.94 L369.99,477.95 L369.99,477.95 L369.99,477.96 L369.98,477.96 L369.98,477.97 L369.97,477.97 L369.97,477.98 L369.96,477.98 L369.96,477.99 L369.95,477.99 L369.95,478 L369.94,478 L369.94,478.01 L369.93,478.02 L369.92,478.02 L369.92,478.03 L369.91,478.04 L369.9,478.04 L369.9,478.05 L369.89,478.06 L369.88,478.07 C368.64,479.32,368.32,481.2,368.32,482.72 C368.32,484.45,368.7,486.17,369.92,487.42 C370.05,487.53,370.05,487.55,370.05,487.58 C370.05,487.65,370.01,487.68,369.95,487.68 C369.85,487.68,368.95,487.01,368.37,485.75 C367.86,484.65,367.74,483.55,367.74,482.72 C367.74,481.94,367.85,480.74,368.4,479.62 C368.99,478.39,369.85,477.75,369.95,477.75 C370.01,477.75,370.05,477.78,370.05,477.85 Z " />
<path
   id="path8845"
   fill="black"
   stroke-width="0"
   d="M371.89,481 L372.95,482.02 C374.5,483.39,375.1,483.93,375.1,484.92 C375.1,486.05,374.2,486.85,372.99,486.85 C371.86,486.85,371.13,485.93,371.13,485.05 C371.13,484.49,371.62,484.49,371.65,484.49 C371.82,484.49,372.17,484.61,372.17,485.02 C372.17,485.28,371.99,485.54,371.64,485.54 C371.57,485.54,371.55,485.54,371.52,485.53 C371.74,486.17,372.28,486.54,372.86,486.54 C373.76,486.54,374.19,485.74,374.19,484.92 C374.19,484.13,373.7,483.34,373.15,482.73 L371.24,480.6 C371.13,480.49,371.13,480.47,371.13,480.23 H374.82 L375.1,481.96 H374.85 C374.8,481.66,374.73,481.23,374.63,481.08 C374.56,481,373.9,481,373.68,481 Z " />
<path
   id="path8847"
   fill="black"
   stroke-width="0"
   d="M380.08,482.23 L380.08,482.34 L380.07,482.45 L380.06,482.56 L380.04,482.66 L380.02,482.77 L380,482.87 L379.97,482.97 L379.93,483.07 L379.9,483.16 L379.86,483.26 L379.81,483.35 L379.76,483.44 L379.71,483.52 L379.66,483.61 L379.6,483.68 L379.54,483.76 L379.47,483.83 L379.4,483.9 L379.33,483.97 L379.26,484.03 L379.18,484.09 L379.1,484.14 L379.02,484.19 L378.94,484.23 L378.85,484.27 L378.76,484.31 L378.67,484.34 L378.58,484.36 L378.48,484.38 L378.39,484.39 L378.29,484.4 L378.19,484.4 C377.71,484.4,377.28,484.25,376.92,483.9 V485.84 C377.12,485.78,377.45,485.71,377.77,485.71 C378.99,485.71,379.69,486.61,379.69,486.74 C379.69,486.8,379.66,486.85,379.59,486.85 C379.58,486.85,379.56,486.85,379.51,486.82 C379.31,486.73,378.83,486.53,378.16,486.53 C377.76,486.53,377.3,486.6,376.84,486.81 C376.76,486.84,376.74,486.84,376.72,486.84 C376.62,486.84,376.62,486.76,376.62,486.6 V483.66 C376.62,483.48,376.62,483.4,376.76,483.4 C376.83,483.4,376.85,483.43,376.89,483.49 C376.99,483.65,377.36,484.19,378.17,484.19 C378.69,484.19,378.93,483.73,379.01,483.55 C379.17,483.18,379.19,482.8,379.19,482.3 C379.19,481.95,379.19,481.36,378.95,480.94 C378.72,480.55,378.35,480.29,377.89,480.29 C377.16,480.29,376.6,480.82,376.43,481.4 C376.46,481.39,376.49,481.39,376.6,481.39 C376.92,481.39,377.09,481.63,377.09,481.87 C377.09,482.11,376.92,482.36,376.6,482.36 C376.46,482.36,376.11,482.29,376.11,481.83 C376.11,480.98,376.8,480.01,377.91,480.01 C379.06,480.01,380.08,480.97,380.08,482.23 Z " />
<path
   id="path8849"
   fill="black"
   stroke-width="0"
   d="M382.61,480.24 L382.61,480.3 L382.61,480.36 L382.61,480.42 L382.6,480.48 L382.6,480.53 L382.59,480.58 L382.58,480.63 L382.57,480.68 L382.56,480.73 L382.54,480.78 L382.53,480.82 L382.51,480.86 L382.5,480.9 L382.48,480.94 L382.46,480.98 L382.44,481.01 L382.42,481.04 L382.4,481.07 L382.37,481.1 L382.35,481.13 L382.32,481.15 L382.3,481.18 L382.27,481.2 L382.24,481.22 L382.21,481.23 L382.18,481.25 L382.15,481.26 L382.11,481.27 L382.08,481.28 L382.05,481.28 L382.01,481.28 L381.98,481.29 C381.65,481.29,381.45,481.04,381.45,480.76 C381.45,480.49,381.65,480.23,381.98,480.23 C382.1,480.23,382.23,480.27,382.32,480.36 C382.35,480.38,382.36,480.39,382.37,480.39 C382.38,480.39,382.39,480.38,382.39,480.24 C382.39,479.51,382.05,478.91,381.72,478.58 C381.61,478.48,381.61,478.45,381.61,478.42 C381.61,478.36,381.66,478.32,381.71,478.32 C381.82,478.32,382.61,479.08,382.61,480.24 Z " />
<path
   id="path8851"
   fill="black"
   stroke-width="0"
   d="M389.6,483.41 L389.6,483.56 L389.59,483.71 L389.59,483.86 L389.58,484.01 L389.57,484.16 L389.56,484.3 L389.55,484.45 L389.53,484.6 L389.51,484.74 L389.48,484.89 L389.45,485.03 L389.41,485.17 L389.36,485.32 L389.32,485.46 L389.26,485.6 L389.23,485.67 L389.2,485.74 C388.74,486.69,387.92,486.85,387.51,486.85 C386.91,486.85,386.18,486.59,385.78,485.67 C385.46,484.98,385.41,484.21,385.41,483.41 C385.41,482.67,385.45,481.77,385.86,481.02 C386.28,480.21,387.01,480.01,387.5,480.01 V480.23 C387.11,480.23,386.52,480.48,386.34,481.43 C386.23,482.03,386.23,482.95,386.23,483.53 C386.23,484.17,386.23,484.82,386.31,485.36 C386.5,486.54,387.25,486.63,387.5,486.63 C387.83,486.63,388.48,486.45,388.67,485.47 C388.77,484.91,388.77,484.16,388.77,483.53 C388.77,482.79,388.77,482.11,388.66,481.48 C388.51,480.53,387.95,480.23,387.5,480.23 H387.5 V480.01 C388.04,480.01,388.79,480.22,389.23,481.17 C389.55,481.85,389.6,482.63,389.6,483.41 Z " />
<path
   id="path8853"
   fill="black"
   stroke-width="0"
   d="M392.88,482.72 L392.88,482.79 L392.88,482.87 L392.87,482.94 L392.87,483.03 L392.86,483.19 L392.85,483.37 L392.83,483.55 L392.81,483.74 L392.79,483.94 L392.75,484.14 L392.71,484.34 L392.67,484.55 L392.61,484.76 L392.55,484.97 L392.48,485.18 L392.41,485.39 L392.36,485.5 L392.32,485.6 L392.27,485.71 L392.22,485.82 C391.62,487.04,390.77,487.68,390.67,487.68 C390.61,487.68,390.57,487.64,390.57,487.58 C390.57,487.55,390.57,487.53,390.76,487.36 C391.73,486.37,392.3,484.79,392.3,482.72 C392.3,481.02,391.93,479.27,390.7,478.02 C390.57,477.9,390.57,477.88,390.57,477.85 C390.57,477.79,390.61,477.75,390.67,477.75 C390.77,477.75,391.66,478.42,392.25,479.69 C392.76,480.78,392.88,481.88,392.88,482.72 Z " />
<line
   id="line8855"
   stroke-width="0.398"
   y2="488.6"
   x2="410.81"
   y1="476.65"
   x1="410.81" />
<line
   id="line8857"
   stroke-width="0.398"
   y2="476.45"
   x2="410.81"
   y1="476.45"
   x1="325.13" />
<line
   id="line8859"
   stroke-width="0.398"
   y2="476.25"
   x2="325.13"
   y1="464.24"
   x1="325.13" />
<path
   id="path8861"
   fill="black"
   stroke-width="0"
   d="M339.61,471.1 V471.7 H336.32 V474.06 H337.7 C337.82,474.06,337.93,474.05,338.05,474.05 H339.88 V474.7 H335.44 V467.83 H340.01 V468.54 H338.76 C338.64,468.54,338.52,468.53,338.4,468.53 H336.32 V471.1 Z " />
<line
   id="line8863"
   stroke-width="0.398"
   y2="476.25"
   x2="349.82"
   y1="464.24"
   x1="349.82" />
<path
   id="path8865"
   fill="black"
   stroke-width="0"
   d="M369.86,465.45 L369.86,465.45 L369.86,465.46 L369.86,465.46 L369.86,465.46 L369.86,465.47 L369.86,465.47 L369.86,465.47 L369.86,465.48 L369.86,465.48 L369.85,465.48 L369.85,465.49 L369.85,465.49 L369.85,465.5 L369.84,465.5 L369.84,465.51 L369.83,465.52 L369.83,465.52 L369.82,465.53 L369.82,465.53 L369.82,465.54 L369.81,465.54 L369.81,465.55 L369.8,465.55 L369.8,465.55 L369.8,465.56 L369.79,465.56 L369.79,465.57 L369.78,465.57 L369.78,465.58 L369.77,465.58 L369.77,465.59 L369.76,465.6 L369.76,465.6 L369.75,465.61 L369.74,465.61 L369.74,465.62 L369.73,465.63 L369.72,465.64 L369.72,465.64 L369.71,465.65 L369.7,465.66 L369.69,465.67 C368.45,466.92,368.13,468.8,368.13,470.31 C368.13,472.04,368.51,473.77,369.73,475.01 C369.86,475.13,369.86,475.15,369.86,475.18 C369.86,475.25,369.82,475.28,369.76,475.28 C369.66,475.28,368.77,474.61,368.18,473.34 C367.67,472.25,367.55,471.15,367.55,470.31 C367.55,469.54,367.66,468.34,368.21,467.21 C368.81,465.99,369.66,465.35,369.76,465.35 C369.82,465.35,369.86,465.38,369.86,465.45 Z " />
<path
   id="path8867"
   fill="black"
   stroke-width="0"
   d="M374.11,474.26 L374.16,474.29 L374.21,474.31 L374.26,474.34 L374.31,474.37 L374.35,474.39 L374.4,474.42 L374.44,474.45 L374.48,474.47 L374.52,474.5 L374.56,474.53 L374.6,474.56 L374.63,474.59 L374.67,474.62 L374.7,474.65 L374.73,474.69 L374.76,474.72 L374.79,474.75 L374.82,474.78 L374.84,474.82 L374.87,474.85 L374.89,474.89 L374.91,474.93 L374.92,474.96 L374.94,475 L374.96,475.04 L374.97,475.08 L374.98,475.12 L374.99,475.16 L374.99,475.2 L375,475.25 L375,475.29 L375,475.33 C375,476.01,374.3,476.37,373.62,476.37 L373.61,476.17 C374.15,476.17,374.64,475.83,374.64,475.33 C374.64,474.71,373.91,474.4,373.9,474.4 C373.88,474.4,373.87,474.41,373.82,474.44 L372.98,474.92 C372.8,475.03,372.6,475.22,372.6,475.47 C372.6,475.91,373.11,476.17,373.61,476.17 L373.62,476.37 C372.86,476.37,372.23,475.87,372.23,475.21 C372.23,474.88,372.39,474.65,372.51,474.51 C372.64,474.36,372.68,474.33,373.1,474.09 C372.71,473.92,372.02,473.55,372.02,472.82 C372.02,472.05,372.82,471.61,373.61,471.61 L373.62,471.84 C372.98,471.84,372.43,472.25,372.43,472.82 C372.43,473.33,372.82,473.73,373.32,473.96 H373.32 L374.27,473.41 C374.45,473.3,374.8,473.1,374.8,472.68 C374.8,472.16,374.22,471.84,373.62,471.84 L373.61,471.61 C374.49,471.61,375.22,472.18,375.22,472.93 C375.22,473.39,374.95,473.78,374.54,474.01 C374.45,474.07,374.21,474.21,374.11,474.26 Z " />
<path
   id="path8869"
   fill="black"
   stroke-width="0"
   d="M379.2,473.97 L379.2,474.11 L379.2,474.25 L379.19,474.38 L379.19,474.51 L379.17,474.63 L379.16,474.75 L379.14,474.86 L379.12,474.98 L379.09,475.08 L379.07,475.19 L379.03,475.29 L378.99,475.39 L378.95,475.49 L378.9,475.59 L378.85,475.68 L378.82,475.73 L378.79,475.77 C378.58,476.09,378.15,476.37,377.59,476.37 V476.18 C377.97,476.18,378.33,475.95,378.45,475.54 C378.56,475.17,378.57,474.67,378.57,474.06 C378.57,473.55,378.57,473.03,378.48,472.59 C378.34,471.96,377.87,471.81,377.59,471.81 H377.59 C377.27,471.81,376.84,472,376.7,472.57 C376.61,472.98,376.61,473.55,376.61,474.06 C376.61,474.57,376.61,475.1,376.71,475.48 C376.86,476.03,377.3,476.18,377.59,476.18 V476.37 C375.97,476.37,375.97,474.47,375.97,473.97 C375.97,473.47,375.97,471.61,377.59,471.61 C379.2,471.61,379.2,473.47,379.2,473.97 Z " />
<line
   id="line8871"
   stroke-width="0.398"
   y2="470.32"
   x2="379.58"
   y1="470.32"
   x1="371.64" />
<path
   id="path8873"
   fill="black"
   stroke-width="0"
   d="M375.53,466.72 L375.58,466.72 L375.63,466.71 L375.68,466.71 L375.72,466.7 L375.77,466.69 L375.82,466.68 L375.86,466.66 L375.9,466.65 L375.94,466.63 L375.98,466.61 L376.02,466.59 L376.06,466.56 L376.1,466.53 L376.13,466.5 L376.17,466.47 L376.2,466.44 L376.23,466.4 L376.26,466.36 L376.28,466.32 L376.31,466.28 L376.33,466.23 L376.35,466.19 L376.37,466.14 L376.39,466.09 L376.41,466.03 L376.42,465.98 L376.43,465.92 L376.44,465.86 L376.45,465.8 L376.46,465.73 L376.46,465.67 L376.46,465.6 C376.46,464.74,375.96,464.48,375.55,464.48 C375.28,464.48,374.66,464.55,374.37,464.96 C374.7,464.98,374.77,465.21,374.77,465.36 C374.77,465.58,374.61,465.74,374.39,465.74 C374.2,465.74,374,465.62,374,465.33 C374,464.68,374.73,464.26,375.57,464.26 C376.54,464.26,377.21,464.9,377.21,465.6 C377.21,466.14,376.76,466.68,375.99,466.84 C376.73,467.11,376.99,467.63,376.99,468.05 C376.99,468.6,376.36,469.01,375.58,469.01 C374.81,469.01,374.22,468.64,374.22,468.08 C374.22,467.84,374.37,467.71,374.58,467.71 C374.8,467.71,374.93,467.87,374.93,468.07 C374.93,468.27,374.8,468.41,374.58,468.43 C374.82,468.73,375.3,468.81,375.56,468.81 C375.88,468.81,376.31,468.66,376.31,468.05 C376.31,467.76,376.22,467.44,376.04,467.23 C375.81,466.96,375.61,466.95,375.26,466.93 C375.09,466.91,375.08,466.91,375.04,466.9 C375.03,466.9,374.97,466.89,374.97,466.82 C374.97,466.72,375.03,466.72,375.15,466.72 Z " />
<path
   id="path8875"
   fill="black"
   stroke-width="0"
   d="M382.8,467.84 L382.8,467.9 L382.8,467.96 L382.79,468.02 L382.79,468.07 L382.78,468.13 L382.77,468.18 L382.76,468.23 L382.75,468.28 L382.74,468.33 L382.73,468.37 L382.71,468.42 L382.7,468.46 L382.68,468.5 L382.66,468.54 L382.65,468.57 L382.63,468.61 L382.6,468.64 L382.58,468.67 L382.56,468.7 L382.53,468.73 L382.51,468.75 L382.48,468.77 L382.45,468.79 L382.42,468.81 L382.39,468.83 L382.36,468.84 L382.33,468.86 L382.3,468.87 L382.27,468.87 L382.23,468.88 L382.2,468.88 L382.16,468.88 C381.83,468.88,381.63,468.64,381.63,468.36 C381.63,468.09,381.83,467.83,382.16,467.83 C382.28,467.83,382.41,467.87,382.51,467.96 C382.54,467.98,382.55,467.99,382.56,467.99 C382.57,467.99,382.58,467.98,382.58,467.84 C382.58,467.11,382.23,466.51,381.9,466.18 C381.79,466.07,381.79,466.05,381.79,466.02 C381.79,465.95,381.84,465.91,381.89,465.91 C382,465.91,382.8,466.68,382.8,467.84 Z " />
<path
   id="path8877"
   fill="black"
   stroke-width="0"
   d="M389.78,471.01 L389.78,471.16 L389.78,471.31 L389.78,471.46 L389.77,471.61 L389.76,471.75 L389.75,471.9 L389.73,472.05 L389.71,472.19 L389.69,472.34 L389.66,472.49 L389.63,472.63 L389.59,472.77 L389.55,472.91 L389.5,473.06 L389.45,473.2 L389.42,473.26 L389.39,473.33 C388.93,474.29,388.11,474.45,387.69,474.45 C387.1,474.45,386.37,474.19,385.96,473.27 C385.64,472.58,385.59,471.8,385.59,471.01 C385.59,470.27,385.63,469.37,386.04,468.62 C386.47,467.81,387.2,467.61,387.68,467.61 V467.83 C387.3,467.83,386.71,468.08,386.53,469.03 C386.42,469.63,386.42,470.54,386.42,471.13 C386.42,471.77,386.42,472.42,386.5,472.96 C386.69,474.14,387.43,474.23,387.68,474.23 C388.01,474.23,388.67,474.05,388.86,473.07 C388.96,472.51,388.96,471.76,388.96,471.13 C388.96,470.38,388.96,469.71,388.85,469.07 C388.7,468.13,388.13,467.83,387.68,467.83 H387.68 V467.61 C388.22,467.61,388.98,467.82,389.42,468.77 C389.73,469.45,389.78,470.23,389.78,471.01 Z " />
<path
   id="path8879"
   fill="black"
   stroke-width="0"
   d="M393.06,470.31 L393.06,470.39 L393.06,470.46 L393.06,470.54 L393.06,470.62 L393.05,470.79 L393.04,470.97 L393.02,471.15 L393,471.34 L392.97,471.53 L392.94,471.73 L392.9,471.94 L392.85,472.14 L392.8,472.35 L392.74,472.56 L392.67,472.78 L392.59,472.99 L392.55,473.1 L392.5,473.2 L392.46,473.31 L392.41,473.41 C391.81,474.64,390.95,475.28,390.85,475.28 C390.79,475.28,390.75,475.24,390.75,475.18 C390.75,475.15,390.75,475.13,390.94,474.95 C391.92,473.97,392.49,472.39,392.49,470.31 C392.49,468.62,392.12,466.87,390.88,465.62 C390.75,465.5,390.75,465.48,390.75,465.45 C390.75,465.39,390.79,465.35,390.85,465.35 C390.95,465.35,391.85,466.02,392.44,467.29 C392.94,468.38,393.06,469.48,393.06,470.31 Z " />
<line
   id="line8881"
   stroke-width="0.398"
   y2="476.25"
   x2="410.81"
   y1="464.24"
   x1="410.81" />
<line
   id="line8883"
   stroke-width="0.398"
   y2="464.05"
   x2="410.81"
   y1="464.05"
   x1="325.13" />
</g>  </g>
</svg>
