<?xml version="1.0" encoding="UTF-8"?>
<svg xmlns="http://www.w3.org/2000/svg" xmlns:xlink="http://www.w3.org/1999/xlink" width="270.69924pt" height="78.642912pt" viewBox="0 0 270.69924 78.642912" version="1.1">
<g id="surface1">
<path style=" stroke:none;fill-rule:nonzero;fill:rgb(0%,0%,0%);fill-opacity:1;" d="M 6.152344 1.542969 L 7.734375 1.542969 C 7.949219 1.542969 8.164062 1.5625 8.378906 1.5625 L 10.722656 1.5625 L 10.722656 0.429688 L 0.0195312 0.429688 L 0.0195312 1.5625 L 2.382812 1.5625 C 2.597656 1.5625 2.8125 1.542969 3.027344 1.542969 L 4.609375 1.542969 L 4.609375 12.792969 L 6.152344 12.792969 Z M 6.152344 1.542969 "/>
<path style=" stroke:none;fill-rule:nonzero;fill:rgb(0%,0%,0%);fill-opacity:1;" d="M 18.992188 7.402344 C 18.992188 6.308594 18.757812 4.648438 16.589844 4.648438 C 15.359375 4.648438 14.539062 5.351562 14.109375 5.898438 L 14.109375 0.351562 L 12.78125 0.351562 L 12.78125 12.792969 L 14.128906 12.792969 L 14.128906 8.320312 C 14.128906 7.226562 14.558594 5.722656 15.90625 5.722656 C 17.585938 5.722656 17.625 6.894531 17.625 7.519531 L 17.625 12.792969 L 18.992188 12.792969 Z M 18.992188 7.402344 "/>
<path style=" stroke:none;fill-rule:nonzero;fill:rgb(0%,0%,0%);fill-opacity:1;" d="M 27.699219 8.75 C 27.699219 7.988281 27.621094 6.894531 27.054688 5.9375 C 26.3125 4.707031 25.0625 4.570312 24.535156 4.570312 C 22.601562 4.570312 20.980469 6.425781 20.980469 8.75 C 20.980469 11.132812 22.699219 12.96875 24.789062 12.96875 C 25.609375 12.96875 26.605469 12.734375 27.582031 12.03125 C 27.582031 11.953125 27.523438 11.386719 27.523438 11.367188 C 27.503906 11.347656 27.484375 10.9375 27.484375 10.878906 C 26.410156 11.777344 25.355469 11.894531 24.828125 11.894531 C 23.441406 11.894531 22.25 10.664062 22.230469 8.75 Z M 22.328125 7.792969 C 22.640625 6.582031 23.480469 5.644531 24.535156 5.644531 C 25.101562 5.644531 26.332031 5.898438 26.625 7.792969 Z M 22.328125 7.792969 "/>
<path style=" stroke:none;fill-rule:nonzero;fill:rgb(0%,0%,0%);fill-opacity:1;" d="M 36.777344 8.867188 C 36.777344 7.050781 38.125 5.878906 39.746094 5.859375 L 39.746094 4.648438 C 38.105469 4.667969 37.167969 5.625 36.679688 6.328125 L 36.679688 4.746094 L 35.449219 4.746094 L 35.449219 12.792969 L 36.777344 12.792969 Z M 36.777344 8.867188 "/>
<path style=" stroke:none;fill-rule:nonzero;fill:rgb(0%,0%,0%);fill-opacity:1;" d="M 47.347656 8.75 C 47.347656 7.988281 47.269531 6.894531 46.703125 5.9375 C 45.960938 4.707031 44.710938 4.570312 44.183594 4.570312 C 42.25 4.570312 40.628906 6.425781 40.628906 8.75 C 40.628906 11.132812 42.347656 12.96875 44.4375 12.96875 C 45.257812 12.96875 46.253906 12.734375 47.230469 12.03125 C 47.230469 11.953125 47.171875 11.386719 47.171875 11.367188 C 47.152344 11.347656 47.132812 10.9375 47.132812 10.878906 C 46.058594 11.777344 45.003906 11.894531 44.476562 11.894531 C 43.089844 11.894531 41.898438 10.664062 41.878906 8.75 Z M 41.976562 7.792969 C 42.289062 6.582031 43.128906 5.644531 44.183594 5.644531 C 44.75 5.644531 45.980469 5.898438 46.273438 7.792969 Z M 41.976562 7.792969 "/>
<path style=" stroke:none;fill-rule:nonzero;fill:rgb(0%,0%,0%);fill-opacity:1;" d="M 55.421875 4.648438 L 54.09375 4.648438 L 54.09375 5.800781 C 53.625 5.253906 52.84375 4.648438 51.75 4.648438 C 49.992188 4.648438 48.46875 6.425781 48.46875 8.828125 C 48.46875 11.113281 49.796875 12.96875 51.476562 12.96875 C 52.863281 12.96875 53.820312 12.148438 54.074219 11.875 L 54.074219 16.269531 L 55.421875 16.269531 Z M 54.09375 10.292969 C 54.09375 10.644531 54.09375 10.664062 53.898438 10.9375 C 53.410156 11.660156 52.765625 11.894531 52.238281 11.894531 C 50.890625 11.894531 49.835938 10.488281 49.835938 8.828125 C 49.835938 6.992188 51.125 5.761719 52.394531 5.761719 C 53.546875 5.761719 54.09375 6.933594 54.09375 7.65625 Z M 54.09375 10.292969 "/>
<path style=" stroke:none;fill-rule:nonzero;fill:rgb(0%,0%,0%);fill-opacity:1;" d="M 64.441406 4.824219 L 63.074219 4.824219 L 63.074219 9.960938 C 63.074219 11.328125 62.136719 11.992188 60.964844 11.992188 C 59.714844 11.992188 59.578125 11.523438 59.578125 10.722656 L 59.578125 4.824219 L 58.230469 4.824219 L 58.230469 10.800781 C 58.230469 12.089844 58.640625 12.96875 60.105469 12.96875 C 60.613281 12.96875 62.019531 12.890625 63.113281 11.894531 L 63.113281 12.792969 L 64.441406 12.792969 Z M 64.441406 4.824219 "/>
<path style=" stroke:none;fill-rule:nonzero;fill:rgb(0%,0%,0%);fill-opacity:1;" d="M 68.675781 0.625 L 67.132812 0.625 L 67.132812 2.167969 L 68.675781 2.167969 Z M 68.578125 4.824219 L 67.25 4.824219 L 67.25 12.792969 L 68.578125 12.792969 Z M 68.578125 4.824219 "/>
<path style=" stroke:none;fill-rule:nonzero;fill:rgb(0%,0%,0%);fill-opacity:1;" d="M 72.777344 8.867188 C 72.777344 7.050781 74.125 5.878906 75.746094 5.859375 L 75.746094 4.648438 C 74.105469 4.667969 73.167969 5.625 72.679688 6.328125 L 72.679688 4.746094 L 71.449219 4.746094 L 71.449219 12.792969 L 72.777344 12.792969 Z M 72.777344 8.867188 "/>
<path style=" stroke:none;fill-rule:nonzero;fill:rgb(0%,0%,0%);fill-opacity:1;" d="M 83.347656 8.75 C 83.347656 7.988281 83.269531 6.894531 82.703125 5.9375 C 81.960938 4.707031 80.710938 4.570312 80.183594 4.570312 C 78.25 4.570312 76.628906 6.425781 76.628906 8.75 C 76.628906 11.132812 78.347656 12.96875 80.4375 12.96875 C 81.257812 12.96875 82.253906 12.734375 83.230469 12.03125 C 83.230469 11.953125 83.171875 11.386719 83.171875 11.367188 C 83.152344 11.347656 83.132812 10.9375 83.132812 10.878906 C 82.058594 11.777344 81.003906 11.894531 80.476562 11.894531 C 79.089844 11.894531 77.898438 10.664062 77.878906 8.75 Z M 77.976562 7.792969 C 78.289062 6.582031 79.128906 5.644531 80.183594 5.644531 C 80.75 5.644531 81.980469 5.898438 82.273438 7.792969 Z M 77.976562 7.792969 "/>
<path style=" stroke:none;fill-rule:nonzero;fill:rgb(0%,0%,0%);fill-opacity:1;" d="M 91.421875 0.351562 L 90.09375 0.351562 L 90.09375 5.585938 C 89.273438 4.902344 88.335938 4.648438 87.574219 4.648438 C 85.875 4.648438 84.46875 6.484375 84.46875 8.808594 C 84.46875 11.132812 85.796875 12.96875 87.496094 12.96875 C 88.160156 12.96875 89.175781 12.753906 90.074219 11.875 L 90.074219 12.792969 L 91.421875 12.792969 Z M 90.074219 10.683594 C 89.644531 11.445312 89 11.894531 88.21875 11.894531 C 87.125 11.894531 85.835938 11.054688 85.835938 8.828125 C 85.835938 6.445312 87.359375 5.722656 88.394531 5.722656 C 89.097656 5.722656 89.664062 6.09375 90.074219 6.679688 Z M 90.074219 10.683594 "/>
<path style=" stroke:none;fill-rule:nonzero;fill:rgb(0%,0%,0%);fill-opacity:1;" d="M 105.554688 7.539062 C 105.554688 5.820312 104.324219 4.570312 102.644531 4.570312 C 101.570312 4.570312 100.769531 4.804688 99.890625 5.3125 L 99.988281 6.503906 C 100.789062 5.917969 101.609375 5.605469 102.644531 5.605469 C 103.464844 5.605469 104.1875 6.269531 104.1875 7.578125 L 104.1875 8.320312 C 103.386719 8.339844 102.3125 8.398438 101.238281 8.75 C 100.027344 9.179688 99.324219 9.84375 99.324219 10.722656 C 99.324219 11.523438 99.792969 12.96875 101.316406 12.96875 C 102.3125 12.96875 103.5625 12.675781 104.226562 12.128906 L 104.226562 12.792969 L 105.554688 12.792969 Z M 104.1875 10.390625 C 104.1875 10.742188 104.1875 11.171875 103.601562 11.542969 C 103.113281 11.835938 102.507812 11.894531 102.234375 11.894531 C 101.277344 11.894531 100.613281 11.367188 100.613281 10.722656 C 100.613281 9.492188 103.09375 9.21875 104.1875 9.21875 Z M 104.1875 10.390625 "/>
<path style=" stroke:none;fill-rule:nonzero;fill:rgb(0%,0%,0%);fill-opacity:1;" d="M 109.230469 8.867188 C 109.230469 7.050781 110.578125 5.878906 112.199219 5.859375 L 112.199219 4.648438 C 110.558594 4.667969 109.621094 5.625 109.132812 6.328125 L 109.132812 4.746094 L 107.902344 4.746094 L 107.902344 12.792969 L 109.230469 12.792969 Z M 109.230469 8.867188 "/>
<path style=" stroke:none;fill-rule:nonzero;fill:rgb(0%,0%,0%);fill-opacity:1;" d="M 119.800781 8.75 C 119.800781 7.988281 119.722656 6.894531 119.15625 5.9375 C 118.414062 4.707031 117.164062 4.570312 116.636719 4.570312 C 114.703125 4.570312 113.082031 6.425781 113.082031 8.75 C 113.082031 11.132812 114.800781 12.96875 116.890625 12.96875 C 117.710938 12.96875 118.707031 12.734375 119.683594 12.03125 C 119.683594 11.953125 119.625 11.386719 119.625 11.367188 C 119.605469 11.347656 119.585938 10.9375 119.585938 10.878906 C 118.511719 11.777344 117.457031 11.894531 116.929688 11.894531 C 115.542969 11.894531 114.351562 10.664062 114.332031 8.75 Z M 114.429688 7.792969 C 114.742188 6.582031 115.582031 5.644531 116.636719 5.644531 C 117.203125 5.644531 118.433594 5.898438 118.726562 7.792969 Z M 114.429688 7.792969 "/>
<path style=" stroke:none;fill-rule:nonzero;fill:rgb(0%,0%,0%);fill-opacity:1;" d="M 127.304688 7.539062 C 127.304688 5.820312 126.074219 4.570312 124.394531 4.570312 C 123.320312 4.570312 122.519531 4.804688 121.640625 5.3125 L 121.738281 6.503906 C 122.539062 5.917969 123.359375 5.605469 124.394531 5.605469 C 125.214844 5.605469 125.9375 6.269531 125.9375 7.578125 L 125.9375 8.320312 C 125.136719 8.339844 124.0625 8.398438 122.988281 8.75 C 121.777344 9.179688 121.074219 9.84375 121.074219 10.722656 C 121.074219 11.523438 121.542969 12.96875 123.066406 12.96875 C 124.0625 12.96875 125.3125 12.675781 125.976562 12.128906 L 125.976562 12.792969 L 127.304688 12.792969 Z M 125.9375 10.390625 C 125.9375 10.742188 125.9375 11.171875 125.351562 11.542969 C 124.863281 11.835938 124.257812 11.894531 123.984375 11.894531 C 123.027344 11.894531 122.363281 11.367188 122.363281 10.722656 C 122.363281 9.492188 124.84375 9.21875 125.9375 9.21875 Z M 125.9375 10.390625 "/>
<path style=" stroke:none;fill-rule:nonzero;fill:rgb(0%,0%,0%);fill-opacity:1;" d="M 137.589844 10.800781 C 136.964844 11.855469 136.359375 12.226562 135.5 12.265625 C 135.304688 12.285156 135.148438 12.285156 135.148438 12.617188 C 135.148438 12.714844 135.246094 12.792969 135.363281 12.792969 C 135.695312 12.792969 136.496094 12.753906 136.828125 12.753906 C 137.335938 12.753906 137.921875 12.792969 138.410156 12.792969 C 138.527344 12.792969 138.742188 12.792969 138.742188 12.460938 C 138.742188 12.285156 138.585938 12.265625 138.488281 12.265625 C 138.078125 12.246094 137.726562 12.089844 137.726562 11.660156 C 137.726562 11.40625 137.84375 11.210938 138.078125 10.820312 L 139.445312 8.554688 L 144.015625 8.554688 C 144.035156 8.730469 144.035156 8.867188 144.054688 9.023438 C 144.09375 9.492188 144.308594 11.367188 144.308594 11.699219 C 144.308594 12.246094 143.390625 12.265625 143.117188 12.265625 C 142.921875 12.265625 142.726562 12.265625 142.726562 12.597656 C 142.726562 12.792969 142.882812 12.792969 142.980469 12.792969 C 143.292969 12.792969 143.644531 12.753906 143.957031 12.753906 L 144.972656 12.753906 C 146.066406 12.753906 146.867188 12.792969 146.886719 12.792969 C 147.003906 12.792969 147.199219 12.792969 147.199219 12.460938 C 147.199219 12.265625 147.042969 12.265625 146.769531 12.265625 C 145.792969 12.265625 145.773438 12.109375 145.714844 11.582031 L 144.621094 0.390625 C 144.582031 0.0195312 144.503906 0 144.308594 0 C 144.132812 0 144.035156 0.0195312 143.859375 0.292969 Z M 139.738281 8.046875 L 143.351562 2.011719 L 143.957031 8.046875 Z M 139.738281 8.046875 "/>
<path style=" stroke:none;fill-rule:nonzero;fill:rgb(0%,0%,0%);fill-opacity:1;" d="M 165.253906 4.824219 L 163.945312 4.824219 L 162.871094 8.476562 C 162.617188 9.335938 162.109375 11.015625 162.03125 11.796875 L 162.011719 11.796875 C 161.972656 11.367188 161.679688 10.15625 161.308594 8.886719 L 160.117188 4.824219 L 158.886719 4.824219 L 157.851562 8.339844 C 157.539062 9.453125 157.109375 10.996094 157.050781 11.757812 L 157.03125 11.757812 C 157.011719 11.40625 156.816406 10.46875 156.484375 9.257812 L 155.214844 4.824219 L 153.847656 4.824219 L 156.25 12.792969 L 157.636719 12.792969 C 158.300781 10.527344 159.355469 7.128906 159.453125 5.878906 L 159.472656 5.878906 C 159.511719 6.601562 159.863281 7.890625 160 8.320312 L 161.269531 12.792969 L 162.851562 12.792969 Z M 165.253906 4.824219 "/>
<path style=" stroke:none;fill-rule:nonzero;fill:rgb(0%,0%,0%);fill-opacity:1;" d="M 168.425781 0.625 L 166.882812 0.625 L 166.882812 2.167969 L 168.425781 2.167969 Z M 168.328125 4.824219 L 167 4.824219 L 167 12.792969 L 168.328125 12.792969 Z M 168.328125 4.824219 "/>
<path style=" stroke:none;fill-rule:nonzero;fill:rgb(0%,0%,0%);fill-opacity:1;" d="M 172.527344 0.351562 L 171.199219 0.351562 L 171.199219 12.792969 L 172.527344 12.792969 Z M 172.527344 0.351562 "/>
<path style=" stroke:none;fill-rule:nonzero;fill:rgb(0%,0%,0%);fill-opacity:1;" d="M 176.730469 0.351562 L 175.402344 0.351562 L 175.402344 12.792969 L 176.730469 12.792969 Z M 176.730469 0.351562 "/>
<path style=" stroke:none;fill-rule:nonzero;fill:rgb(0%,0%,0%);fill-opacity:1;" d="M 186.8125 5.878906 L 189.292969 5.878906 L 189.292969 4.824219 L 186.8125 4.824219 L 186.8125 2.558594 L 185.582031 2.558594 L 185.582031 4.824219 L 184.078125 4.824219 L 184.078125 5.878906 L 185.542969 5.878906 L 185.542969 10.703125 C 185.542969 11.738281 185.777344 12.96875 187.007812 12.96875 C 188.21875 12.96875 189.039062 12.558594 189.585938 12.265625 L 189.3125 11.230469 C 188.6875 11.796875 188.023438 11.855469 187.710938 11.855469 C 186.910156 11.855469 186.8125 11.015625 186.8125 10.390625 Z M 186.8125 5.878906 "/>
<path style=" stroke:none;fill-rule:nonzero;fill:rgb(0%,0%,0%);fill-opacity:1;" d="M 197.640625 7.402344 C 197.640625 6.308594 197.40625 4.648438 195.238281 4.648438 C 194.007812 4.648438 193.1875 5.351562 192.757812 5.898438 L 192.757812 0.351562 L 191.429688 0.351562 L 191.429688 12.792969 L 192.777344 12.792969 L 192.777344 8.320312 C 192.777344 7.226562 193.207031 5.722656 194.554688 5.722656 C 196.234375 5.722656 196.273438 6.894531 196.273438 7.519531 L 196.273438 12.792969 L 197.640625 12.792969 Z M 197.640625 7.402344 "/>
<path style=" stroke:none;fill-rule:nonzero;fill:rgb(0%,0%,0%);fill-opacity:1;" d="M 206.347656 8.75 C 206.347656 7.988281 206.269531 6.894531 205.703125 5.9375 C 204.960938 4.707031 203.710938 4.570312 203.183594 4.570312 C 201.25 4.570312 199.628906 6.425781 199.628906 8.75 C 199.628906 11.132812 201.347656 12.96875 203.4375 12.96875 C 204.257812 12.96875 205.253906 12.734375 206.230469 12.03125 C 206.230469 11.953125 206.171875 11.386719 206.171875 11.367188 C 206.152344 11.347656 206.132812 10.9375 206.132812 10.878906 C 205.058594 11.777344 204.003906 11.894531 203.476562 11.894531 C 202.089844 11.894531 200.898438 10.664062 200.878906 8.75 Z M 200.976562 7.792969 C 201.289062 6.582031 202.128906 5.644531 203.183594 5.644531 C 203.75 5.644531 204.980469 5.898438 205.273438 7.792969 Z M 200.976562 7.792969 "/>
<path style=" stroke:none;fill-rule:nonzero;fill:rgb(0%,0%,0%);fill-opacity:1;" d="M 209.578125 8.867188 C 209.578125 7.050781 210.925781 5.878906 212.546875 5.859375 L 212.546875 4.648438 C 210.90625 4.667969 209.96875 5.625 209.480469 6.328125 L 209.480469 4.746094 L 208.25 4.746094 L 208.25 12.792969 L 209.578125 12.792969 Z M 209.578125 8.867188 "/>
<path style=" stroke:none;fill-rule:nonzero;fill:rgb(0%,0%,0%);fill-opacity:1;" d="M 220.148438 8.75 C 220.148438 7.988281 220.070312 6.894531 219.503906 5.9375 C 218.761719 4.707031 217.511719 4.570312 216.984375 4.570312 C 215.050781 4.570312 213.429688 6.425781 213.429688 8.75 C 213.429688 11.132812 215.148438 12.96875 217.238281 12.96875 C 218.058594 12.96875 219.054688 12.734375 220.03125 12.03125 C 220.03125 11.953125 219.972656 11.386719 219.972656 11.367188 C 219.953125 11.347656 219.933594 10.9375 219.933594 10.878906 C 218.859375 11.777344 217.804688 11.894531 217.277344 11.894531 C 215.890625 11.894531 214.699219 10.664062 214.679688 8.75 Z M 214.777344 7.792969 C 215.089844 6.582031 215.929688 5.644531 216.984375 5.644531 C 217.550781 5.644531 218.78125 5.898438 219.074219 7.792969 Z M 214.777344 7.792969 "/>
<path style=" stroke:none;fill-rule:nonzero;fill:rgb(0%,0%,0%);fill-opacity:1;" d="M 223.75 5.878906 L 225.664062 5.878906 L 225.664062 4.824219 L 223.710938 4.824219 L 223.710938 2.675781 C 223.710938 1.464844 224.726562 1.25 225.332031 1.25 C 225.957031 1.25 226.503906 1.445312 226.71875 1.523438 L 226.71875 0.351562 C 226.601562 0.3125 225.996094 0.175781 225.351562 0.175781 C 223.632812 0.175781 222.421875 1.484375 222.421875 3.222656 L 222.421875 4.824219 L 221.113281 4.824219 L 221.113281 5.878906 L 222.421875 5.878906 L 222.421875 12.792969 L 223.75 12.792969 Z M 223.75 5.878906 "/>
<path style=" stroke:none;fill-rule:nonzero;fill:rgb(0%,0%,0%);fill-opacity:1;" d="M 234.265625 8.847656 C 234.265625 6.425781 232.488281 4.570312 230.4375 4.570312 C 228.328125 4.570312 226.589844 6.464844 226.589844 8.847656 C 226.589844 11.191406 228.367188 12.96875 230.417969 12.96875 C 232.527344 12.96875 234.265625 11.152344 234.265625 8.847656 Z M 230.4375 11.855469 C 229.148438 11.855469 227.9375 10.78125 227.9375 8.671875 C 227.9375 6.503906 229.285156 5.644531 230.417969 5.644531 C 231.648438 5.644531 232.917969 6.5625 232.917969 8.671875 C 232.917969 10.878906 231.628906 11.855469 230.4375 11.855469 Z M 230.4375 11.855469 "/>
<path style=" stroke:none;fill-rule:nonzero;fill:rgb(0%,0%,0%);fill-opacity:1;" d="M 237.179688 8.867188 C 237.179688 7.050781 238.527344 5.878906 240.148438 5.859375 L 240.148438 4.648438 C 238.507812 4.667969 237.570312 5.625 237.082031 6.328125 L 237.082031 4.746094 L 235.851562 4.746094 L 235.851562 12.792969 L 237.179688 12.792969 Z M 237.179688 8.867188 "/>
<path style=" stroke:none;fill-rule:nonzero;fill:rgb(0%,0%,0%);fill-opacity:1;" d="M 247.75 8.75 C 247.75 7.988281 247.671875 6.894531 247.105469 5.9375 C 246.363281 4.707031 245.113281 4.570312 244.585938 4.570312 C 242.652344 4.570312 241.03125 6.425781 241.03125 8.75 C 241.03125 11.132812 242.75 12.96875 244.839844 12.96875 C 245.660156 12.96875 246.65625 12.734375 247.632812 12.03125 C 247.632812 11.953125 247.574219 11.386719 247.574219 11.367188 C 247.554688 11.347656 247.535156 10.9375 247.535156 10.878906 C 246.460938 11.777344 245.40625 11.894531 244.878906 11.894531 C 243.492188 11.894531 242.300781 10.664062 242.28125 8.75 Z M 242.378906 7.792969 C 242.691406 6.582031 243.53125 5.644531 244.585938 5.644531 C 245.152344 5.644531 246.382812 5.898438 246.675781 7.792969 Z M 242.378906 7.792969 "/>
<path style=" stroke:none;fill-rule:nonzero;fill:rgb(0%,0%,0%);fill-opacity:1;" d="M 256.679688 0.351562 L 255.351562 0.351562 L 255.351562 12.792969 L 256.699219 12.792969 L 256.699219 11.992188 C 257.539062 12.773438 258.417969 12.96875 259.042969 12.96875 C 260.742188 12.96875 262.304688 11.230469 262.304688 8.789062 C 262.304688 6.582031 261.113281 4.648438 259.453125 4.648438 C 258.925781 4.648438 257.773438 4.765625 256.679688 5.664062 Z M 256.699219 6.757812 C 257.03125 6.25 257.675781 5.722656 258.554688 5.722656 C 259.648438 5.722656 260.9375 6.5625 260.9375 8.789062 C 260.9375 11.132812 259.472656 11.894531 258.378906 11.894531 C 257.871094 11.894531 257.539062 11.71875 257.207031 11.464844 C 256.777344 11.09375 256.699219 10.761719 256.699219 10.46875 Z M 256.699219 6.757812 "/>
<path style=" stroke:none;fill-rule:nonzero;fill:rgb(0%,0%,0%);fill-opacity:1;" d="M 270.699219 8.75 C 270.699219 7.988281 270.621094 6.894531 270.054688 5.9375 C 269.3125 4.707031 268.0625 4.570312 267.535156 4.570312 C 265.601562 4.570312 263.980469 6.425781 263.980469 8.75 C 263.980469 11.132812 265.699219 12.96875 267.789062 12.96875 C 268.609375 12.96875 269.605469 12.734375 270.582031 12.03125 C 270.582031 11.953125 270.523438 11.386719 270.523438 11.367188 C 270.503906 11.347656 270.484375 10.9375 270.484375 10.878906 C 269.410156 11.777344 268.355469 11.894531 267.828125 11.894531 C 266.441406 11.894531 265.25 10.664062 265.230469 8.75 Z M 265.328125 7.792969 C 265.640625 6.582031 266.480469 5.644531 267.535156 5.644531 C 268.101562 5.644531 269.332031 5.898438 269.625 7.792969 Z M 265.328125 7.792969 "/>
<path style=" stroke:none;fill-rule:nonzero;fill:rgb(0%,0%,0%);fill-opacity:1;" d="M 2.441406 60.601562 C 1.816406 61.65625 1.210938 62.027344 0.351562 62.066406 C 0.15625 62.085938 0 62.085938 0 62.417969 C 0 62.515625 0.0976562 62.59375 0.214844 62.59375 C 0.546875 62.59375 1.347656 62.554688 1.679688 62.554688 C 2.1875 62.554688 2.773438 62.59375 3.261719 62.59375 C 3.378906 62.59375 3.59375 62.59375 3.59375 62.261719 C 3.59375 62.085938 3.4375 62.066406 3.339844 62.066406 C 2.929688 62.046875 2.578125 61.890625 2.578125 61.460938 C 2.578125 61.207031 2.695312 61.011719 2.929688 60.621094 L 4.296875 58.355469 L 8.867188 58.355469 C 8.886719 58.53125 8.886719 58.667969 8.90625 58.824219 C 8.945312 59.292969 9.160156 61.167969 9.160156 61.5 C 9.160156 62.046875 8.242188 62.066406 7.96875 62.066406 C 7.773438 62.066406 7.578125 62.066406 7.578125 62.398438 C 7.578125 62.59375 7.734375 62.59375 7.832031 62.59375 C 8.144531 62.59375 8.496094 62.554688 8.808594 62.554688 L 9.824219 62.554688 C 10.917969 62.554688 11.71875 62.59375 11.738281 62.59375 C 11.855469 62.59375 12.050781 62.59375 12.050781 62.261719 C 12.050781 62.066406 11.894531 62.066406 11.621094 62.066406 C 10.644531 62.066406 10.625 61.910156 10.566406 61.382812 L 9.472656 50.191406 C 9.433594 49.820312 9.355469 49.800781 9.160156 49.800781 C 8.984375 49.800781 8.886719 49.820312 8.710938 50.09375 Z M 4.589844 57.847656 L 8.203125 51.8125 L 8.808594 57.847656 Z M 4.589844 57.847656 "/>
<path style=" stroke:none;fill-rule:nonzero;fill:rgb(0%,0%,0%);fill-opacity:1;" d="M 29.652344 56.792969 C 29.90625 56.792969 30.21875 56.792969 30.21875 56.460938 C 30.21875 56.128906 29.90625 56.128906 29.652344 56.128906 L 19.085938 56.128906 C 18.832031 56.128906 18.519531 56.128906 18.519531 56.441406 C 18.519531 56.792969 18.8125 56.792969 19.085938 56.792969 Z M 29.652344 60.113281 C 29.90625 60.113281 30.21875 60.113281 30.21875 59.800781 C 30.21875 59.449219 29.90625 59.449219 29.652344 59.449219 L 19.085938 59.449219 C 18.832031 59.449219 18.519531 59.449219 18.519531 59.78125 C 18.519531 60.113281 18.8125 60.113281 19.085938 60.113281 Z M 29.652344 60.113281 "/>
<path style=" stroke:none;fill-rule:nonzero;fill:rgb(0%,0%,0%);fill-opacity:1;" d="M 42.800781 38.957031 C 42.800781 38.527344 42.800781 38.527344 42.449219 38.527344 C 42.019531 38.996094 41.121094 39.660156 39.285156 39.660156 L 39.285156 40.1875 C 39.695312 40.1875 40.59375 40.1875 41.570312 39.71875 L 41.570312 49.054688 C 41.570312 49.699219 41.511719 49.914062 39.949219 49.914062 L 39.382812 49.914062 L 39.382812 50.441406 C 39.871094 50.402344 41.609375 50.402344 42.195312 50.402344 C 42.78125 50.402344 44.519531 50.402344 44.988281 50.441406 L 44.988281 49.914062 L 44.441406 49.914062 C 42.859375 49.914062 42.800781 49.699219 42.800781 49.054688 Z M 42.800781 38.957031 "/>
<path style=" stroke:none;fill-rule:nonzero;fill:rgb(0%,0%,0%);fill-opacity:1;" d="M 37.628906 57.808594 L 46.476562 57.808594 L 46.476562 58.5625 L 37.628906 58.5625 Z M 37.628906 57.808594 "/>
<path style=" stroke:none;fill-rule:nonzero;fill:rgb(0%,0%,0%);fill-opacity:1;" d="M 44.109375 63.214844 C 44.109375 62.882812 44.109375 62.785156 43.875 62.785156 C 43.71875 62.785156 43.660156 62.785156 43.523438 63 L 38.132812 71.378906 L 38.132812 71.90625 L 42.839844 71.90625 L 42.839844 73.527344 C 42.839844 74.191406 42.800781 74.367188 41.492188 74.367188 L 41.140625 74.367188 L 41.140625 74.894531 C 41.550781 74.855469 42.976562 74.855469 43.464844 74.855469 C 43.972656 74.855469 45.398438 74.855469 45.828125 74.894531 L 45.828125 74.367188 L 45.457031 74.367188 C 44.167969 74.367188 44.109375 74.191406 44.109375 73.527344 L 44.109375 71.90625 L 45.925781 71.90625 L 45.925781 71.378906 L 44.109375 71.378906 Z M 42.9375 64.621094 L 42.9375 71.378906 L 38.582031 71.378906 Z M 42.9375 64.621094 "/>
<path style=" stroke:none;fill-rule:nonzero;fill:rgb(0%,0%,0%);fill-opacity:1;" d="M 52.851562 77.167969 C 53.4375 77.148438 53.730469 76.738281 53.730469 76.308594 C 53.730469 75.703125 53.300781 75.429688 52.871094 75.429688 C 52.441406 75.429688 51.992188 75.683594 51.992188 76.308594 C 51.992188 77.226562 52.890625 77.988281 53.984375 77.988281 C 56.71875 77.988281 57.734375 73.789062 59.003906 68.59375 C 60.390625 62.929688 61.5625 57.207031 62.519531 51.445312 C 63.183594 47.636719 63.847656 44.042969 64.453125 41.738281 C 64.667969 40.859375 65.292969 38.535156 65.976562 38.535156 C 66.542969 38.535156 66.992188 38.886719 67.070312 38.945312 C 66.464844 38.984375 66.171875 39.375 66.171875 39.824219 C 66.171875 40.429688 66.621094 40.703125 67.03125 40.703125 C 67.460938 40.703125 67.910156 40.449219 67.910156 39.804688 C 67.910156 38.847656 66.933594 38.144531 65.957031 38.144531 C 64.589844 38.144531 63.574219 40.097656 62.597656 43.75 C 62.539062 43.945312 60.097656 52.949219 58.125 64.6875 C 57.65625 67.421875 57.148438 70.410156 56.5625 72.910156 C 56.230469 74.21875 55.410156 77.597656 53.945312 77.597656 C 53.300781 77.597656 52.871094 77.167969 52.851562 77.167969 Z M 52.851562 77.167969 "/>
<path style=" stroke:none;fill-rule:nonzero;fill:rgb(0%,0%,0%);fill-opacity:1;" d="M 70.425781 42.136719 L 71.753906 40.847656 C 73.6875 39.128906 74.429688 38.464844 74.429688 37.214844 C 74.429688 35.789062 73.316406 34.792969 71.792969 34.792969 C 70.386719 34.792969 69.46875 35.945312 69.46875 37.058594 C 69.46875 37.742188 70.09375 37.742188 70.132812 37.742188 C 70.347656 37.742188 70.777344 37.605469 70.777344 37.078125 C 70.777344 36.765625 70.542969 36.433594 70.113281 36.433594 C 70.015625 36.433594 69.996094 36.433594 69.957031 36.453125 C 70.230469 35.632812 70.914062 35.183594 71.636719 35.183594 C 72.769531 35.183594 73.296875 36.199219 73.296875 37.214844 C 73.296875 38.210938 72.691406 39.1875 71.988281 39.96875 L 69.605469 42.625 C 69.46875 42.761719 69.46875 42.800781 69.46875 43.09375 L 74.097656 43.09375 L 74.429688 40.925781 L 74.136719 40.925781 C 74.058594 41.296875 73.980469 41.84375 73.84375 42.039062 C 73.765625 42.136719 72.945312 42.136719 72.671875 42.136719 Z M 70.425781 42.136719 "/>
<path style=" stroke:none;fill-rule:nonzero;fill:rgb(0%,0%,0%);fill-opacity:1;" d="M 69.097656 75.773438 C 69.3125 75.773438 69.546875 75.773438 69.546875 75.519531 C 69.546875 75.285156 69.3125 75.285156 69.097656 75.285156 L 62.359375 75.285156 C 62.144531 75.285156 61.929688 75.285156 61.929688 75.519531 C 61.929688 75.773438 62.144531 75.773438 62.359375 75.773438 Z M 69.097656 75.773438 "/>
<path style=" stroke:none;fill-rule:nonzero;fill:rgb(0%,0%,0%);fill-opacity:1;" d="M 74.316406 70.675781 C 74.316406 70.363281 74.316406 70.34375 74.023438 70.34375 C 73.242188 71.144531 72.148438 71.144531 71.757812 71.144531 L 71.757812 71.535156 C 72.011719 71.535156 72.734375 71.535156 73.378906 71.203125 L 73.378906 77.667969 C 73.378906 78.117188 73.339844 78.253906 72.226562 78.253906 L 71.835938 78.253906 L 71.835938 78.644531 C 72.265625 78.605469 73.339844 78.605469 73.847656 78.605469 C 74.335938 78.605469 75.429688 78.605469 75.859375 78.644531 L 75.859375 78.253906 L 75.46875 78.253906 C 74.335938 78.253906 74.316406 78.117188 74.316406 77.667969 Z M 74.316406 70.675781 "/>
<path style=" stroke:none;fill-rule:nonzero;fill:rgb(0%,0%,0%);fill-opacity:1;" d="M 84.007812 68.824219 L 87.464844 68.824219 L 87.464844 68.101562 L 84.730469 68.101562 L 84.730469 48.042969 L 87.464844 48.042969 L 87.464844 47.320312 L 84.007812 47.320312 Z M 84.007812 68.824219 "/>
<path style=" stroke:none;fill-rule:nonzero;fill:rgb(0%,0%,0%);fill-opacity:1;" d="M 93.714844 66.949219 C 93.714844 66.890625 93.714844 66.851562 93.421875 66.558594 C 91.625 64.742188 90.628906 61.792969 90.628906 58.121094 C 90.628906 54.644531 91.46875 51.65625 93.539062 49.546875 C 93.714844 49.371094 93.714844 49.351562 93.714844 49.292969 C 93.714844 49.175781 93.636719 49.15625 93.558594 49.15625 C 93.324219 49.15625 91.859375 50.445312 90.980469 52.203125 C 90.0625 54 89.652344 55.933594 89.652344 58.121094 C 89.652344 59.722656 89.90625 61.851562 90.84375 63.785156 C 91.898438 65.933594 93.363281 67.085938 93.558594 67.085938 C 93.636719 67.085938 93.714844 67.066406 93.714844 66.949219 Z M 93.714844 66.949219 "/>
<path style=" stroke:none;fill-rule:nonzero;fill:rgb(0%,0%,0%);fill-opacity:1;" d="M 103.289062 55.269531 C 102.722656 55.386719 102.507812 55.816406 102.507812 56.148438 C 102.507812 56.578125 102.839844 56.734375 103.09375 56.734375 C 103.640625 56.734375 104.011719 56.265625 104.011719 55.777344 C 104.011719 55.035156 103.152344 54.683594 102.390625 54.683594 C 101.296875 54.683594 100.691406 55.757812 100.535156 56.109375 C 100.125 54.761719 99.011719 54.683594 98.679688 54.683594 C 96.863281 54.683594 95.886719 57.027344 95.886719 57.4375 C 95.886719 57.496094 95.964844 57.59375 96.082031 57.59375 C 96.21875 57.59375 96.257812 57.476562 96.296875 57.417969 C 96.902344 55.425781 98.113281 55.054688 98.621094 55.054688 C 99.441406 55.054688 99.597656 55.796875 99.597656 56.226562 C 99.597656 56.617188 99.5 57.027344 99.265625 57.886719 L 98.660156 60.347656 C 98.40625 61.421875 97.878906 62.417969 96.921875 62.417969 C 96.84375 62.417969 96.394531 62.417969 96.003906 62.183594 C 96.648438 62.046875 96.804688 61.519531 96.804688 61.304688 C 96.804688 60.953125 96.53125 60.738281 96.199219 60.738281 C 95.769531 60.738281 95.300781 61.109375 95.300781 61.675781 C 95.300781 62.4375 96.140625 62.769531 96.902344 62.769531 C 97.761719 62.769531 98.386719 62.085938 98.757812 61.363281 C 99.050781 62.417969 99.929688 62.769531 100.59375 62.769531 C 102.429688 62.769531 103.40625 60.425781 103.40625 60.035156 C 103.40625 59.9375 103.328125 59.859375 103.210938 59.859375 C 103.054688 59.859375 103.035156 59.957031 102.996094 60.09375 C 102.507812 61.675781 101.453125 62.417969 100.652344 62.417969 C 100.027344 62.417969 99.695312 61.949219 99.695312 61.207031 C 99.695312 60.816406 99.753906 60.523438 100.046875 59.351562 L 100.671875 56.910156 C 100.945312 55.835938 101.550781 55.054688 102.371094 55.054688 C 102.410156 55.054688 102.917969 55.054688 103.289062 55.269531 Z M 103.289062 55.269531 "/>
<path style=" stroke:none;fill-rule:nonzero;fill:rgb(0%,0%,0%);fill-opacity:1;" d="M 115.894531 58.453125 L 120.855469 58.453125 C 121.109375 58.453125 121.421875 58.453125 121.421875 58.121094 C 121.421875 57.789062 121.109375 57.789062 120.855469 57.789062 L 115.894531 57.789062 L 115.894531 52.847656 C 115.894531 52.59375 115.894531 52.261719 115.582031 52.261719 C 115.230469 52.261719 115.230469 52.574219 115.230469 52.847656 L 115.230469 57.789062 L 110.289062 57.789062 C 110.035156 57.789062 109.722656 57.789062 109.722656 58.121094 C 109.722656 58.453125 110.015625 58.453125 110.289062 58.453125 L 115.230469 58.453125 L 115.230469 63.394531 C 115.230469 63.648438 115.230469 63.980469 115.5625 63.980469 C 115.894531 63.980469 115.894531 63.667969 115.894531 63.394531 Z M 115.894531 58.453125 "/>
<path style=" stroke:none;fill-rule:nonzero;fill:rgb(0%,0%,0%);fill-opacity:1;" d="M 134.183594 59.585938 L 133.792969 59.585938 C 133.734375 59.878906 133.597656 60.875 133.402344 61.167969 C 133.285156 61.324219 132.269531 61.324219 131.722656 61.324219 L 128.402344 61.324219 C 128.890625 60.914062 129.984375 59.761719 130.453125 59.332031 C 133.1875 56.8125 134.183594 55.894531 134.183594 54.117188 C 134.183594 52.046875 132.542969 50.679688 130.472656 50.679688 C 128.382812 50.679688 127.171875 52.4375 127.171875 53.980469 C 127.171875 54.898438 127.953125 54.898438 128.011719 54.898438 C 128.382812 54.898438 128.851562 54.625 128.851562 54.058594 C 128.851562 53.550781 128.519531 53.21875 128.011719 53.21875 C 127.855469 53.21875 127.816406 53.21875 127.757812 53.238281 C 128.109375 52.007812 129.066406 51.1875 130.238281 51.1875 C 131.761719 51.1875 132.699219 52.457031 132.699219 54.117188 C 132.699219 55.640625 131.820312 56.96875 130.785156 58.121094 L 127.171875 62.164062 L 127.171875 62.59375 L 133.714844 62.59375 Z M 134.183594 59.585938 "/>
<path style=" stroke:none;fill-rule:nonzero;fill:rgb(0%,0%,0%);fill-opacity:1;" d="M 140.203125 58.121094 C 140.203125 56.773438 140.027344 54.546875 139.011719 52.457031 C 137.957031 50.308594 136.492188 49.15625 136.296875 49.15625 C 136.21875 49.15625 136.121094 49.175781 136.121094 49.292969 C 136.121094 49.351562 136.121094 49.371094 136.433594 49.683594 C 138.230469 51.5 139.226562 54.449219 139.226562 58.121094 C 139.226562 61.597656 138.386719 64.585938 136.316406 66.695312 C 136.121094 66.851562 136.121094 66.890625 136.121094 66.949219 C 136.121094 67.066406 136.21875 67.085938 136.296875 67.085938 C 136.53125 67.085938 137.996094 65.796875 138.875 64.039062 C 139.792969 62.222656 140.203125 60.289062 140.203125 58.121094 Z M 140.203125 58.121094 "/>
<path style=" stroke:none;fill-rule:nonzero;fill:rgb(0%,0%,0%);fill-opacity:1;" d="M 157.761719 58.472656 C 158.074219 58.472656 158.386719 58.472656 158.386719 58.121094 C 158.386719 57.75 158.074219 57.75 157.761719 57.75 L 148.054688 57.75 C 147.761719 57.75 147.429688 57.75 147.429688 58.121094 C 147.429688 58.472656 147.761719 58.472656 148.054688 58.472656 Z M 157.761719 58.472656 "/>
<path style=" stroke:none;fill-rule:nonzero;fill:rgb(0%,0%,0%);fill-opacity:1;" d="M 172.441406 55.269531 C 171.875 55.386719 171.660156 55.816406 171.660156 56.148438 C 171.660156 56.578125 171.992188 56.734375 172.246094 56.734375 C 172.792969 56.734375 173.164062 56.265625 173.164062 55.777344 C 173.164062 55.035156 172.304688 54.683594 171.542969 54.683594 C 170.449219 54.683594 169.84375 55.757812 169.6875 56.109375 C 169.277344 54.761719 168.164062 54.683594 167.832031 54.683594 C 166.015625 54.683594 165.039062 57.027344 165.039062 57.4375 C 165.039062 57.496094 165.117188 57.59375 165.234375 57.59375 C 165.371094 57.59375 165.410156 57.476562 165.449219 57.417969 C 166.054688 55.425781 167.265625 55.054688 167.773438 55.054688 C 168.59375 55.054688 168.75 55.796875 168.75 56.226562 C 168.75 56.617188 168.652344 57.027344 168.417969 57.886719 L 167.8125 60.347656 C 167.558594 61.421875 167.03125 62.417969 166.074219 62.417969 C 165.996094 62.417969 165.546875 62.417969 165.15625 62.183594 C 165.800781 62.046875 165.957031 61.519531 165.957031 61.304688 C 165.957031 60.953125 165.683594 60.738281 165.351562 60.738281 C 164.921875 60.738281 164.453125 61.109375 164.453125 61.675781 C 164.453125 62.4375 165.292969 62.769531 166.054688 62.769531 C 166.914062 62.769531 167.539062 62.085938 167.910156 61.363281 C 168.203125 62.417969 169.082031 62.769531 169.746094 62.769531 C 171.582031 62.769531 172.558594 60.425781 172.558594 60.035156 C 172.558594 59.9375 172.480469 59.859375 172.363281 59.859375 C 172.207031 59.859375 172.1875 59.957031 172.148438 60.09375 C 171.660156 61.675781 170.605469 62.417969 169.804688 62.417969 C 169.179688 62.417969 168.847656 61.949219 168.847656 61.207031 C 168.847656 60.816406 168.90625 60.523438 169.199219 59.351562 L 169.824219 56.910156 C 170.097656 55.835938 170.703125 55.054688 171.523438 55.054688 C 171.5625 55.054688 172.070312 55.054688 172.441406 55.269531 Z M 172.441406 55.269531 "/>
<path style=" stroke:none;fill-rule:nonzero;fill:rgb(0%,0%,0%);fill-opacity:1;" d="M 175.578125 54.285156 L 176.90625 52.996094 C 178.839844 51.277344 179.582031 50.613281 179.582031 49.363281 C 179.582031 47.9375 178.46875 46.941406 176.945312 46.941406 C 175.539062 46.941406 174.621094 48.09375 174.621094 49.207031 C 174.621094 49.890625 175.246094 49.890625 175.285156 49.890625 C 175.5 49.890625 175.929688 49.753906 175.929688 49.226562 C 175.929688 48.914062 175.695312 48.582031 175.265625 48.582031 C 175.167969 48.582031 175.148438 48.582031 175.109375 48.601562 C 175.382812 47.78125 176.066406 47.332031 176.789062 47.332031 C 177.921875 47.332031 178.449219 48.347656 178.449219 49.363281 C 178.449219 50.359375 177.84375 51.335938 177.140625 52.117188 L 174.757812 54.773438 C 174.621094 54.910156 174.621094 54.949219 174.621094 55.242188 L 179.25 55.242188 L 179.582031 53.074219 L 179.289062 53.074219 C 179.210938 53.445312 179.132812 53.992188 178.996094 54.1875 C 178.917969 54.285156 178.097656 54.285156 177.824219 54.285156 Z M 175.578125 54.285156 "/>
<path style=" stroke:none;fill-rule:nonzero;fill:rgb(0%,0%,0%);fill-opacity:1;" d="M 184.574219 68.824219 L 184.574219 47.320312 L 181.136719 47.320312 L 181.136719 48.042969 L 183.871094 48.042969 L 183.871094 68.101562 L 181.136719 68.101562 L 181.136719 68.824219 Z M 184.574219 68.824219 "/>
<path style=" stroke:none;fill-rule:nonzero;fill:rgb(0%,0%,0%);fill-opacity:1;" d="M 195.582031 58.121094 C 195.582031 57.59375 195.152344 57.164062 194.644531 57.164062 C 194.117188 57.164062 193.6875 57.59375 193.6875 58.121094 C 193.6875 58.628906 194.117188 59.058594 194.644531 59.058594 C 195.152344 59.058594 195.582031 58.628906 195.582031 58.121094 Z M 195.582031 58.121094 "/>
<path style=" stroke:none;fill-rule:nonzero;fill:rgb(0%,0%,0%);fill-opacity:1;" d="M 210.167969 50.601562 C 210.1875 50.523438 210.226562 50.425781 210.226562 50.328125 C 210.226562 50.152344 210.03125 50.152344 209.992188 50.152344 C 209.992188 50.152344 209.113281 50.230469 209.015625 50.230469 C 208.703125 50.25 208.449219 50.289062 208.117188 50.308594 C 207.667969 50.347656 207.550781 50.367188 207.550781 50.679688 C 207.550781 50.875 207.6875 50.875 207.941406 50.875 C 208.820312 50.875 208.839844 51.03125 208.839844 51.207031 C 208.839844 51.324219 208.800781 51.460938 208.78125 51.519531 L 207.6875 55.875 C 207.492188 55.40625 207.003906 54.683594 206.066406 54.683594 C 204.054688 54.683594 201.867188 57.300781 201.867188 59.957031 C 201.867188 61.734375 202.902344 62.769531 204.113281 62.769531 C 205.109375 62.769531 205.949219 62.007812 206.457031 61.402344 C 206.632812 62.476562 207.472656 62.769531 208.019531 62.769531 C 208.546875 62.769531 208.976562 62.457031 209.308594 61.8125 C 209.582031 61.1875 209.835938 60.09375 209.835938 60.035156 C 209.835938 59.9375 209.777344 59.859375 209.660156 59.859375 C 209.503906 59.859375 209.484375 59.957031 209.40625 60.230469 C 209.132812 61.285156 208.800781 62.417969 208.058594 62.417969 C 207.550781 62.417969 207.511719 61.949219 207.511719 61.597656 C 207.511719 61.519531 207.511719 61.148438 207.628906 60.640625 Z M 206.535156 60.464844 C 206.457031 60.757812 206.457031 60.796875 206.203125 61.148438 C 205.8125 61.636719 205.011719 62.417969 204.171875 62.417969 C 203.449219 62.417969 203.019531 61.753906 203.019531 60.699219 C 203.019531 59.703125 203.585938 57.691406 203.917969 56.949219 C 204.542969 55.699219 205.382812 55.054688 206.066406 55.054688 C 207.257812 55.054688 207.492188 56.519531 207.492188 56.65625 C 207.492188 56.675781 207.433594 56.910156 207.414062 56.949219 Z M 206.535156 60.464844 "/>
<path style=" stroke:none;fill-rule:nonzero;fill:rgb(0%,0%,0%);fill-opacity:1;" d="M 218.789062 55.269531 C 218.222656 55.386719 218.007812 55.816406 218.007812 56.148438 C 218.007812 56.578125 218.339844 56.734375 218.59375 56.734375 C 219.140625 56.734375 219.511719 56.265625 219.511719 55.777344 C 219.511719 55.035156 218.652344 54.683594 217.890625 54.683594 C 216.796875 54.683594 216.191406 55.757812 216.035156 56.109375 C 215.625 54.761719 214.511719 54.683594 214.179688 54.683594 C 212.363281 54.683594 211.386719 57.027344 211.386719 57.4375 C 211.386719 57.496094 211.464844 57.59375 211.582031 57.59375 C 211.71875 57.59375 211.757812 57.476562 211.796875 57.417969 C 212.402344 55.425781 213.613281 55.054688 214.121094 55.054688 C 214.941406 55.054688 215.097656 55.796875 215.097656 56.226562 C 215.097656 56.617188 215 57.027344 214.765625 57.886719 L 214.160156 60.347656 C 213.90625 61.421875 213.378906 62.417969 212.421875 62.417969 C 212.34375 62.417969 211.894531 62.417969 211.503906 62.183594 C 212.148438 62.046875 212.304688 61.519531 212.304688 61.304688 C 212.304688 60.953125 212.03125 60.738281 211.699219 60.738281 C 211.269531 60.738281 210.800781 61.109375 210.800781 61.675781 C 210.800781 62.4375 211.640625 62.769531 212.402344 62.769531 C 213.261719 62.769531 213.886719 62.085938 214.257812 61.363281 C 214.550781 62.417969 215.429688 62.769531 216.09375 62.769531 C 217.929688 62.769531 218.90625 60.425781 218.90625 60.035156 C 218.90625 59.9375 218.828125 59.859375 218.710938 59.859375 C 218.554688 59.859375 218.535156 59.957031 218.496094 60.09375 C 218.007812 61.675781 216.953125 62.417969 216.152344 62.417969 C 215.527344 62.417969 215.195312 61.949219 215.195312 61.207031 C 215.195312 60.816406 215.253906 60.523438 215.546875 59.351562 L 216.171875 56.910156 C 216.445312 55.835938 217.050781 55.054688 217.871094 55.054688 C 217.910156 55.054688 218.417969 55.054688 218.789062 55.269531 Z M 218.789062 55.269531 "/>
<path style=" stroke:none;fill-rule:nonzero;fill:rgb(0%,0%,0%);fill-opacity:1;" d="M 237.253906 56.792969 C 237.507812 56.792969 237.820312 56.792969 237.820312 56.460938 C 237.820312 56.128906 237.507812 56.128906 237.253906 56.128906 L 226.6875 56.128906 C 226.433594 56.128906 226.121094 56.128906 226.121094 56.441406 C 226.121094 56.792969 226.414062 56.792969 226.6875 56.792969 Z M 237.253906 60.113281 C 237.507812 60.113281 237.820312 60.113281 237.820312 59.800781 C 237.820312 59.449219 237.507812 59.449219 237.253906 59.449219 L 226.6875 59.449219 C 226.433594 59.449219 226.121094 59.449219 226.121094 59.78125 C 226.121094 60.113281 226.414062 60.113281 226.6875 60.113281 Z M 237.253906 60.113281 "/>
<path style=" stroke:none;fill-rule:nonzero;fill:rgb(0%,0%,0%);fill-opacity:1;" d="M 251.957031 45.226562 C 251.957031 49.464844 250.082031 50.324219 249.007812 50.324219 C 248.558594 50.324219 247.621094 50.285156 247.171875 49.660156 L 247.269531 49.660156 C 247.40625 49.679688 248.050781 49.582031 248.050781 48.917969 C 248.050781 48.527344 247.777344 48.175781 247.308594 48.175781 C 246.839844 48.175781 246.566406 48.488281 246.566406 48.957031 C 246.566406 50.070312 247.464844 50.8125 249.007812 50.8125 C 251.253906 50.8125 253.421875 48.429688 253.421875 44.542969 C 253.421875 39.71875 251.410156 38.527344 249.847656 38.527344 C 247.875 38.527344 246.136719 40.167969 246.136719 42.53125 C 246.136719 44.894531 247.796875 46.515625 249.59375 46.515625 C 250.921875 46.515625 251.605469 45.539062 251.957031 44.640625 Z M 249.652344 46.164062 C 248.539062 46.164062 248.050781 45.246094 247.894531 44.894531 C 247.601562 44.210938 247.601562 43.351562 247.601562 42.550781 C 247.601562 41.554688 247.601562 40.695312 248.070312 39.953125 C 248.382812 39.464844 248.871094 38.957031 249.847656 38.957031 C 250.863281 38.957031 251.390625 39.835938 251.566406 40.265625 C 251.917969 41.144531 251.917969 42.667969 251.917969 42.921875 C 251.917969 44.425781 251.234375 46.164062 249.652344 46.164062 Z M 249.652344 46.164062 "/>
<path style=" stroke:none;fill-rule:nonzero;fill:rgb(0%,0%,0%);fill-opacity:1;" d="M 245.382812 57.808594 L 254.230469 57.808594 L 254.230469 58.5625 L 245.382812 58.5625 Z M 245.382812 57.808594 "/>
<path style=" stroke:none;fill-rule:nonzero;fill:rgb(0%,0%,0%);fill-opacity:1;" d="M 250.746094 68.429688 C 251.625 67.941406 252.933594 67.121094 252.933594 65.597656 C 252.933594 64.054688 251.429688 62.980469 249.789062 62.980469 C 248.011719 62.980469 246.605469 64.289062 246.605469 65.910156 C 246.605469 66.515625 246.800781 67.140625 247.289062 67.746094 C 247.484375 67.980469 247.503906 68 248.773438 68.878906 C 247.035156 69.679688 246.136719 70.871094 246.136719 72.179688 C 246.136719 74.09375 247.933594 75.265625 249.769531 75.265625 C 251.761719 75.265625 253.421875 73.800781 253.421875 71.925781 C 253.421875 70.089844 252.132812 69.289062 250.746094 68.429688 Z M 248.304688 66.808594 C 248.070312 66.652344 247.347656 66.183594 247.347656 65.304688 C 247.347656 64.132812 248.558594 63.410156 249.769531 63.410156 C 251.058594 63.410156 252.210938 64.328125 252.210938 65.617188 C 252.210938 66.710938 251.410156 67.589844 250.375 68.175781 Z M 249.144531 69.113281 L 251.3125 70.539062 C 251.78125 70.851562 252.601562 71.398438 252.601562 72.492188 C 252.601562 73.859375 251.214844 74.777344 249.789062 74.777344 C 248.265625 74.777344 246.957031 73.683594 246.957031 72.179688 C 246.957031 70.792969 247.972656 69.660156 249.144531 69.113281 Z M 249.144531 69.113281 "/>
</g>
</svg>
