<?xml version="1.0" encoding="UTF-8" standalone="no"?>
<!-- Created with Inkscape (http://www.inkscape.org/) -->

<svg
   xmlns:dc="http://purl.org/dc/elements/1.1/"
   xmlns:cc="http://creativecommons.org/ns#"
   xmlns:rdf="http://www.w3.org/1999/02/22-rdf-syntax-ns#"
   xmlns:svg="http://www.w3.org/2000/svg"
   xmlns="http://www.w3.org/2000/svg"
   xmlns:sodipodi="http://sodipodi.sourceforge.net/DTD/sodipodi-0.dtd"
   xmlns:inkscape="http://www.inkscape.org/namespaces/inkscape"
   width="547.26172"
   height="504"
   id="svg2"
   version="1.1"
   inkscape:version="0.48.3.1 r9886"
   sodipodi:docname="right.svg">
  <sodipodi:namedview
     id="base"
     pagecolor="#ffffff"
     bordercolor="#666666"
     borderopacity="1.0"
     inkscape:pageopacity="0.0"
     inkscape:pageshadow="2"
     inkscape:zoom="0.42285822"
     inkscape:cx="347.26958"
     inkscape:cy="15.985405"
     inkscape:document-units="px"
     inkscape:current-layer="layer1"
     showgrid="false"
     inkscape:window-width="1130"
     inkscape:window-height="640"
     inkscape:window-x="107"
     inkscape:window-y="63"
     inkscape:window-maximized="0"
     fit-margin-top="0"
     fit-margin-left="0"
     fit-margin-right="0"
     fit-margin-bottom="0"
     showborder="false"
     inkscape:showpageshadow="false" />
  <defs
     id="defs4" />
  <metadata
     id="metadata7">
    <rdf:RDF>
      <cc:Work
         rdf:about="">
        <dc:format>image/svg+xml</dc:format>
        <dc:type
           rdf:resource="http://purl.org/dc/dcmitype/StillImage" />
        <dc:title></dc:title>
      </cc:Work>
    </rdf:RDF>
  </metadata>
  <g
     id="layer1"
     inkscape:groupmode="layer"
     inkscape:label="Layer 1"
     transform="translate(-24.777664,-38.166496)">
    <path
       id="path3046"
       title="(x/4)+0.5"
       d="m 26.777664,394.33316 c 1.683502,-0.70146 3.367003,-1.40292 5.050505,-2.10437 1.683502,-0.70146 3.367003,-1.40292 5.050505,-2.10438 1.683502,-0.70146 3.367003,-1.40292 5.050505,-2.10438 1.683502,-0.70146 3.367004,-1.40292 5.050505,-2.10438 1.683502,-0.70145 3.367004,-1.40291 5.050505,-2.10437 1.683502,-0.70146 3.367004,-1.40292 5.050505,-2.10438 1.683502,-0.70146 3.367004,-1.40292 5.050505,-2.10438 1.683502,-0.70146 3.367004,-1.40292 5.050505,-2.10437 1.683502,-0.70146 3.367004,-1.40292 5.050505,-2.10438 1.683502,-0.70146 3.367004,-1.40292 5.050506,-2.10438 1.683501,-0.70146 3.367003,-1.40292 5.050505,-2.10438 1.683501,-0.70145 3.367003,-1.40291 5.050505,-2.10437 1.683501,-0.70146 3.367003,-1.40292 5.050505,-2.10438 1.683501,-0.70146 3.367003,-1.40292 5.050505,-2.10438 1.683501,-0.70146 3.367005,-1.40291 5.050505,-2.10437 1.6835,-0.70146 3.367,-1.40292 5.0505,-2.10438 1.68351,-0.70146 3.36701,-1.40292 5.05051,-2.10438 1.6835,-0.70146 3.367,-1.40292 5.0505,-2.10438 1.68351,-0.70145 3.36701,-1.40291 5.05051,-2.10437 1.6835,-0.70146 3.367,-1.40292 5.05051,-2.10438 1.6835,-0.70146 3.367,-1.40292 5.0505,-2.10438 1.6835,-0.70146 3.367,-1.40291 5.05051,-2.10437 1.6835,-0.70146 3.367,-1.40292 5.0505,-2.10438 1.6835,-0.70146 3.367,-1.40292 5.05051,-2.10438 1.6835,-0.70146 3.367,-1.40292 5.0505,-2.10437 1.6835,-0.70146 3.367,-1.40292 5.05051,-2.10438 1.6835,-0.70146 3.367,-1.40292 5.0505,-2.10438 1.6835,-0.70146 3.367,-1.40292 5.05051,-2.10438 1.6835,-0.70146 3.367,-1.40291 5.0505,-2.10437 1.6835,-0.70146 3.367,-1.40292 5.05051,-2.10438 1.6835,-0.70146 3.367,-1.40292 5.0505,-2.10438 1.6835,-0.70146 3.367,-1.40292 5.05051,-2.10437 1.6835,-0.70146 3.367,-1.40292 5.0505,-2.10438 1.6835,-0.70146 3.367,-1.40292 5.05051,-2.10438 1.6835,-0.70146 3.367,-1.40292 5.0505,-2.10438 1.6835,-0.70146 3.367,-1.40291 5.05051,-2.10437 1.6835,-0.70146 3.367,-1.40292 5.0505,-2.10438 1.6835,-0.70146 3.367,-1.40292 5.05051,-2.10438 1.6835,-0.70146 3.367,-1.40292 5.0505,-2.10437 1.6835,-0.70146 3.367,-1.40292 5.05051,-2.10438 1.6835,-0.70146 3.367,-1.40292 5.0505,-2.10438 1.6835,-0.70146 3.367,-1.40292 5.05051,-2.10438 1.6835,-0.70145 3.367,-1.40291 5.0505,-2.10437 1.6835,-0.70146 3.367,-1.40292 5.05051,-2.10438 1.6835,-0.70146 3.367,-1.40292 5.0505,-2.10438 1.6835,-0.70146 3.367,-1.40292 5.05051,-2.10437 1.6835,-0.70146 3.367,-1.40292 5.0505,-2.10438 1.6835,-0.70146 3.367,-1.40292 5.05051,-2.10438 1.6835,-0.70146 3.367,-1.40292 5.0505,-2.10438 1.6835,-0.70145 3.367,-1.40291 5.05051,-2.10437 1.6835,-0.70146 3.367,-1.40292 5.0505,-2.10438 1.6835,-0.70146 3.367,-1.40292 5.05051,-2.10438 1.6835,-0.70146 3.367,-1.40291 5.0505,-2.10437 1.6835,-0.70146 3.36701,-1.40292 5.05051,-2.10438 1.6835,-0.70146 3.367,-1.40292 5.0505,-2.10438 1.6835,-0.70146 3.36701,-1.40292 5.05051,-2.10438 1.6835,-0.70145 3.367,-1.40291 5.0505,-2.10437 1.6835,-0.70146 3.36701,-1.40292 5.05051,-2.10438 1.6835,-0.70146 3.367,-1.40292 5.0505,-2.10438 1.6835,-0.70146 3.36701,-1.40291 5.05051,-2.10437 1.6835,-0.70146 3.367,-1.40292 5.0505,-2.10438 1.6835,-0.70146 3.36701,-1.40292 5.05051,-2.10438 1.6835,-0.70146 3.367,-1.40292 5.0505,-2.10437 1.6835,-0.70146 3.36701,-1.40292 5.05051,-2.10438 1.6835,-0.70146 3.367,-1.40292 5.0505,-2.10438 1.6835,-0.70146 3.36701,-1.40292 5.05051,-2.10438 1.6835,-0.70146 3.367,-1.40291 5.0505,-2.10437 1.6835,-0.70146 3.36701,-1.40292 5.05051,-2.10438 1.6835,-0.70146 3.367,-1.40292 5.0505,-2.10438 1.6835,-0.70146 3.36701,-1.40292 5.05051,-2.10437 1.6835,-0.70146 3.367,-1.40292 5.0505,-2.10438 1.6835,-0.70146 3.36701,-1.40292 5.05051,-2.10438 1.6835,-0.70146 3.367,-1.40292 5.0505,-2.10438 1.6835,-0.70145 3.36701,-1.40291 5.05051,-2.10437 1.6835,-0.70146 3.367,-1.40292 5.0505,-2.10438 1.6835,-0.70146 3.36701,-1.40292 5.05051,-2.10438 1.6835,-0.70146 3.367,-1.40292 5.0505,-2.10437 1.6835,-0.70146 3.36701,-1.40292 5.05051,-2.10438 1.6835,-0.70146 3.367,-1.40292 5.0505,-2.10438 1.6835,-0.70146 3.36701,-1.40292 5.05051,-2.10438 1.6835,-0.70145 3.367,-1.40291 5.0505,-2.10437 1.6835,-0.70146 3.36701,-1.40292 5.05051,-2.10438 1.6835,-0.70146 3.367,-1.40292 5.0505,-2.10438 1.6835,-0.70146 3.36701,-1.40292 5.05051,-2.10437 1.6835,-0.70146 3.367,-1.40292 5.0505,-2.10438 1.6835,-0.70146 3.36701,-1.40292 5.05051,-2.10438 1.6835,-0.70146 3.367,-1.40292 5.0505,-2.10438 1.68351,-0.70145 3.36701,-1.40291 5.05051,-2.10437 1.6835,-0.70146 3.367,-1.40292 5.0505,-2.10438 1.68351,-0.70146 3.36701,-1.40292 5.05051,-2.10438 1.6835,-0.70146 3.367,-1.40291 5.0505,-2.10437 1.68351,-0.70146 3.36701,-1.40292 5.05051,-2.10438 1.6835,-0.70146 3.367,-1.40292 5.0505,-2.10438 1.68351,-0.70146 3.36701,-1.40292 5.05051,-2.10438 1.6835,-0.70145 3.367,-1.40291 5.0505,-2.10437 1.68351,-0.70146 3.36701,-1.40292 5.05051,-2.10438 1.6835,-0.70146 3.367,-1.40292 5.0505,-2.10438 1.68351,-0.70146 3.36701,-1.40291 5.05051,-2.10437 1.6835,-0.70146 3.367,-1.40292 5.0505,-2.10438"
       style="fill:none;stroke:#000000;stroke-width:4;stroke-linecap:round;stroke-linejoin:round;stroke-miterlimit:4;stroke-opacity:1;stroke-dasharray:none;stroke-dashoffset:0"
       inkscape:connector-curvature="0" />
    <path
       id="path3071"
       title="pow(x,2)/4"
       d="m 26.777664,440.1665 499.999996,0 m -250,100 0,-500.000004 M 26.777664,127.6665 c 1.683502,4.20871 3.367003,8.37495 5.050505,12.49872 1.683502,4.12377 3.367003,8.2049 5.050505,12.24365 1.683502,4.03875 3.367003,8.03485 5.050505,11.98857 1.683502,3.95372 3.367004,7.8648 5.050505,11.7335 1.683502,3.86869 3.367004,7.69475 5.050505,11.47842 1.683502,3.78367 3.367004,7.5247 5.050505,11.22334 1.683502,3.69865 3.367004,7.35465 5.050505,10.96827 1.683502,3.61362 3.367004,7.1846 5.050505,10.71319 1.683502,3.5286 3.367004,7.01455 5.050505,10.45812 1.683502,3.44357 3.367004,6.8445 5.050506,10.20304 1.683501,3.35854 3.367003,6.67445 5.050505,9.94797 1.683501,3.27351 3.367003,6.50439 5.050505,9.69288 1.683501,3.1885 3.367003,6.33435 5.050505,9.43782 1.683501,3.10346 3.367003,6.16429 5.050505,9.18273 1.683501,3.01845 3.367005,5.99425 5.050505,8.92766 1.6835,2.93342 3.367,5.8242 5.0505,8.67259 1.68351,2.84839 3.36701,5.65414 5.05051,8.41751 1.6835,2.76336 3.367,5.48409 5.0505,8.16243 1.68351,2.67834 3.36701,5.31404 5.05051,7.90736 1.6835,2.59331 3.367,5.14399 5.05051,7.65228 1.6835,2.50829 3.367,4.97394 5.0505,7.3972 1.6835,2.42326 3.367,4.80389 5.05051,7.14213 1.6835,2.33824 3.367,4.63384 5.0505,6.88705 1.6835,2.25322 3.367,4.46379 5.05051,6.63198 1.6835,2.16819 3.367,4.29373 5.0505,6.3769 1.6835,2.08316 3.367,4.12368 5.05051,6.12182 1.6835,1.99814 3.367,3.95364 5.0505,5.86675 1.6835,1.91311 3.367,3.78359 5.05051,5.61167 1.6835,1.82809 3.367,3.61354 5.0505,5.3566 1.6835,1.74306 3.367,3.44348 5.05051,5.10152 1.6835,1.65804 3.367,3.27343 5.0505,4.84644 1.6835,1.57301 3.367,3.10339 5.05051,4.59137 1.6835,1.48799 3.367,2.93333 5.0505,4.33629 1.6835,1.40296 3.367,2.76328 5.05051,4.08122 1.6835,1.31794 3.367,2.59323 5.0505,3.82614 1.6835,1.23291 3.367,2.42318 5.05051,3.57106 1.6835,1.14789 3.367,2.25313 5.0505,3.31599 1.6835,1.06286 3.367,2.08308 5.05051,3.06091 1.6835,0.97784 3.367,1.91303 5.0505,2.80584 1.6835,0.89281 3.367,1.74298 5.05051,2.55076 1.6835,0.80778 3.367,1.57293 5.0505,2.29569 1.6835,0.72275 3.367,1.40287 5.05051,2.0406 1.6835,0.63774 3.367,1.23283 5.0505,1.78554 1.6835,0.5527 3.367,1.06277 5.05051,1.53045 1.6835,0.46768 3.367,0.89272 5.0505,1.27538 1.6835,0.38266 3.367,0.72267 5.05051,1.02031 1.6835,0.29763 3.367,0.55262 5.0505,0.76522 1.6835,0.21261 3.367,0.38257 5.05051,0.51016 1.6835,0.12758 3.367,0.21252 5.0505,0.25507 1.6835,0.0426 3.367,0.0425 5.05051,0 1.6835,-0.0425 3.367,-0.12758 5.0505,-0.25507 1.6835,-0.1275 3.367,-0.29764 5.05051,-0.51016 1.6835,-0.21252 3.367,-0.46768 5.0505,-0.76522 1.6835,-0.29755 3.36701,-0.63774 5.05051,-1.02031 1.6835,-0.38257 3.367,-0.80778 5.0505,-1.27538 1.6835,-0.4676 3.36701,-0.97783 5.05051,-1.53045 1.6835,-0.55263 3.367,-1.14789 5.0505,-1.78554 1.6835,-0.63764 3.36701,-1.31793 5.05051,-2.0406 1.6835,-0.72268 3.367,-1.48799 5.0505,-2.29569 1.6835,-0.8077 3.36701,-1.65804 5.05051,-2.55076 1.6835,-0.89272 3.367,-1.82809 5.0505,-2.80584 1.6835,-0.97774 3.36701,-1.99813 5.05051,-3.06091 1.6835,-1.06277 3.367,-2.16819 5.0505,-3.31599 1.6835,-1.1478 3.36701,-2.33823 5.05051,-3.57106 1.6835,-1.23282 3.367,-2.50829 5.0505,-3.82614 1.6835,-1.31785 3.36701,-2.67834 5.05051,-4.08122 1.6835,-1.40287 3.367,-2.84839 5.0505,-4.33629 1.6835,-1.4879 3.36701,-3.01844 5.05051,-4.59137 1.6835,-1.57292 3.367,-3.18849 5.0505,-4.84644 1.6835,-1.65795 3.36701,-3.35854 5.05051,-5.10152 1.6835,-1.74298 3.367,-3.5286 5.0505,-5.3566 1.6835,-1.828 3.36701,-3.69864 5.05051,-5.61167 1.6835,-1.91303 3.367,-3.8687 5.0505,-5.86675 1.6835,-1.99805 3.36701,-4.03874 5.05051,-6.12182 1.6835,-2.08308 3.367,-4.2088 5.0505,-6.3769 1.6835,-2.16811 3.36701,-4.37885 5.05051,-6.63198 1.6835,-2.25313 3.367,-4.5489 5.0505,-6.88705 1.6835,-2.33816 3.36701,-4.71895 5.05051,-7.14213 1.6835,-2.42318 3.367,-4.889 5.0505,-7.3972 1.6835,-2.50821 3.36701,-5.05905 5.05051,-7.65228 1.6835,-2.59323 3.367,-5.22911 5.0505,-7.90736 1.6835,-2.67826 3.36701,-5.39915 5.05051,-8.16243 1.6835,-2.76328 3.367,-5.56921 5.0505,-8.41751 1.6835,-2.84831 3.36701,-5.73925 5.05051,-8.67259 1.6835,-2.93333 3.367,-5.9093 5.0505,-8.92766 1.6835,-3.01835 3.36701,-6.07935 5.05051,-9.18273 1.6835,-3.10339 3.367,-6.24941 5.0505,-9.43782 1.68351,-3.1884 3.36701,-6.41945 5.05051,-9.69288 1.6835,-3.27344 3.367,-6.58951 5.0505,-9.94797 1.68351,-3.35846 3.36701,-6.75956 5.05051,-10.20304 1.6835,-3.44348 3.367,-6.92961 5.0505,-10.45812 1.68351,-3.5285 3.36701,-7.09965 5.05051,-10.71319 1.6835,-3.61353 3.367,-7.26971 5.0505,-10.96827 1.68351,-3.69856 3.36701,-7.43976 5.05051,-11.22334 1.6835,-3.78359 3.367,-7.60981 5.0505,-11.47842 1.68351,-3.86861 3.36701,-7.77986 5.05051,-11.7335 1.6835,-3.95363 3.367,-7.94991 5.0505,-11.98857 1.68351,-4.03866 3.36701,-8.11996 5.05051,-12.24365 1.6835,-4.12369 3.367,-8.29001 5.0505,-12.49872"
       style="fill:none;stroke:#000000;stroke-width:4;stroke-linecap:round;stroke-linejoin:round;stroke-miterlimit:4;stroke-opacity:1;stroke-dasharray:none;stroke-dashoffset:0"
       inkscape:connector-curvature="0" />
    <path
       style="fill:#e6e6e6;fill-opacity:1;stroke:none"
       d="m 280.46763,364.77375 0,-71.96994 12.71939,-5.44196 c 39.76082,-17.01159 193.73202,-80.90606 194.96527,-80.90606 3.70568,0 -42.72375,85.31239 -63.47451,116.63211 -39.07569,58.97804 -78.02171,95.04482 -116.67857,108.05264 -30.10825,10.13125 -27.53158,16.34248 -27.53158,-66.36679 z"
       id="path3080"
       inkscape:connector-curvature="0" />
    <path
       style="fill:#e6e6e6;fill-opacity:1;stroke:none"
       d="m 253.00961,433.83652 c -15.259,-3.59627 -36.25431,-15.03325 -55.24954,-30.0966 -19.15205,-15.18772 -52.41677,-52.65668 -49.23087,-55.45303 2.49967,-2.19401 119.18618,-50.78705 121.95501,-50.78705 1.07257,0 1.95012,31.32987 1.95012,69.62193 0,77.76651 1.76385,71.70852 -19.42472,66.71475 l 0,0 z"
       id="path3082"
       inkscape:connector-curvature="0" />
    <g
       transform="translate(245.94532,96.959212)"
       id="g3861">
      <g
         style="font-style:normal;font-variant:normal;font-weight:normal;font-stretch:normal;letter-spacing:normal;word-spacing:normal;text-anchor:start;fill:none;stroke:#000000;stroke-linecap:butt;stroke-linejoin:miter;stroke-miterlimit:10.43299961;stroke-opacity:1;stroke-dasharray:none;stroke-dashoffset:0"
         id="content"
         transform="matrix(1.0629921,0,0,-1.0629921,-186.02362,789.27165)"
         xml:space="preserve"
         stroke-miterlimit="10.433"
         font-style="normal"
         font-variant="normal"
         font-weight="normal"
         font-stretch="normal"
         font-size-adjust="none"
         letter-spacing="normal"
         word-spacing="normal"><path
           style="fill:#000000;stroke-width:0"
           inkscape:connector-curvature="0"
           d="m 472.16,421.25 0.03,0.13 0.04,0.15 0.04,0.16 0.04,0.18 0.06,0.19 0.06,0.21 0.06,0.22 0.07,0.22 0.08,0.23 0.09,0.24 0.1,0.25 0.1,0.24 0.11,0.25 0.12,0.25 0.13,0.25 0.14,0.25 0.15,0.24 0.15,0.24 0.17,0.23 0.18,0.22 0.18,0.22 0.2,0.2 0.21,0.19 0.22,0.18 0.23,0.16 0.25,0.14 0.12,0.07 0.13,0.06 0.14,0.05 0.13,0.05 0.14,0.05 0.14,0.04 0.15,0.03 0.15,0.03 0.15,0.02 0.16,0.02 0.16,0.01 0.16,0 c 0.25,0 1.44,0 2.48,-0.64 -1.39,-0.25 -2.39,-1.5 -2.39,-2.69 0,-0.79 0.55,-1.75 1.89,-1.75 1.1,0 2.69,0.89 2.69,2.89 0,2.6 -2.94,3.28 -4.63,3.28 -2.89,0 -4.64,-2.64 -5.23,-3.78 -1.25,3.28 -3.94,3.78 -5.37,3.78 -5.19,0 -8.04,-6.42 -8.04,-7.67 0,-0.5 0.5,-0.5 0.61,-0.5 0.39,0 0.55,0.11 0.64,0.55 1.69,5.28 4.99,6.53 6.68,6.53 0.95,0 2.68,-0.44 2.68,-3.33 0,-1.54 -0.84,-4.89 -2.68,-11.86 -0.8,-3.09 -2.54,-5.18 -4.74,-5.18 -0.3,0 -1.44,0 -2.48,0.65 1.25,0.24 2.34,1.28 2.34,2.69 0,1.34 -1.09,1.73 -1.84,1.73 -1.5,0 -2.75,-1.29 -2.75,-2.89 0,-2.28 2.5,-3.28 4.68,-3.28 3.3,0 5.08,3.49 5.24,3.78 0.59,-1.84 2.39,-3.78 5.37,-3.78 5.14,0 7.99,6.42 7.99,7.67 0,0.5 -0.45,0.5 -0.61,0.5 -0.44,0 -0.55,-0.2 -0.64,-0.54 -1.64,-5.33 -5.03,-6.53 -6.63,-6.53 -1.95,0 -2.75,1.59 -2.75,3.29 0,1.1 0.3,2.19 0.86,4.38 z"
           id="path3864" /></g>    </g>
    <g
       transform="translate(-61.48633,-283.78306)"
       id="g3888">
      <g
         style="font-style:normal;font-variant:normal;font-weight:normal;font-stretch:normal;letter-spacing:normal;word-spacing:normal;text-anchor:start;fill:none;stroke:#000000;stroke-linecap:butt;stroke-linejoin:miter;stroke-miterlimit:10.43299961;stroke-opacity:1;stroke-dasharray:none;stroke-dashoffset:0"
         word-spacing="normal"
         letter-spacing="normal"
         font-size-adjust="none"
         font-stretch="normal"
         font-weight="normal"
         font-variant="normal"
         font-style="normal"
         stroke-miterlimit="10.433"
         xml:space="preserve"
         transform="matrix(1.0629921,0,0,-1.0629921,-186.02362,789.27165)"
         id="g3890"><path
           style="fill:#000000;stroke-width:0"
           inkscape:connector-curvature="0"
           id="path3892"
           d="m 479.74,425.18 0.01,0.04 0.01,0.03 0.01,0.06 0.02,0.05 0.01,0.06 0.01,0.05 0.02,0.04 0.01,0.05 0.01,0.04 0.01,0.04 0,0.04 0.01,0.04 0.01,0.04 0.01,0.03 0,0.03 0.01,0.03 0,0.03 0.01,0.03 0,0.03 0.01,0.05 0,0.06 0,0.05 0,0.05 0.01,0.05 0,0.03 0,0.03 0,0.03 0,0.03 c 0,0.91 -0.69,1.35 -1.44,1.35 -0.5,0 -1.3,-0.3 -1.75,-1.05 -0.1,-0.25 -0.5,-1.78 -0.69,-2.69 -0.36,-1.29 -0.7,-2.64 -1,-3.98 l -2.25,-8.97 c -0.19,-0.75 -2.33,-4.23 -5.62,-4.23 -2.54,0 -3.1,2.18 -3.1,4.03 0,2.29 0.86,5.39 2.55,9.76 0.8,2.05 1,2.6 1,3.6 0,2.23 -1.59,4.07 -4.09,4.07 -4.74,0 -6.58,-7.21 -6.58,-7.67 0,-0.5 0.5,-0.5 0.61,-0.5 0.5,0 0.54,0.11 0.79,0.91 1.35,4.69 3.33,6.17 5.03,6.17 0.4,0 1.25,0 1.25,-1.59 0,-1.25 -0.5,-2.53 -0.85,-3.49 -1.99,-5.28 -2.9,-8.12 -2.9,-10.47 0,-4.42 3.15,-5.92 6.08,-5.92 1.96,0 3.64,0.85 5.03,2.24 -0.64,-2.58 -1.23,-5.03 -3.23,-7.68 -1.3,-1.68 -3.19,-3.14 -5.48,-3.14 -0.69,0 -2.94,0.16 -3.79,2.1 0.8,0 1.46,0 2.14,0.61 0.5,0.43 1,1.09 1,2.03 0,1.55 -1.34,1.75 -1.84,1.75 -1.14,0 -2.8,-0.8 -2.8,-3.24 0,-2.5 2.21,-4.34 5.29,-4.34 5.14,0 10.26,4.55 11.67,10.17 z" /></g>    </g>
    <g
       transform="translate(87.499777,-257.76961)"
       id="g3922">
      <g
         style="font-style:normal;font-variant:normal;font-weight:normal;font-stretch:normal;letter-spacing:normal;word-spacing:normal;text-anchor:start;fill:none;stroke:#000000;stroke-linecap:butt;stroke-linejoin:miter;stroke-miterlimit:10.43299961;stroke-opacity:1;stroke-dasharray:none;stroke-dashoffset:0"
         id="g3924"
         transform="matrix(1.0629921,0,0,-1.0629921,-186.02362,789.27165)"
         xml:space="preserve"
         stroke-miterlimit="10.433"
         font-style="normal"
         font-variant="normal"
         font-weight="normal"
         font-stretch="normal"
         font-size-adjust="none"
         letter-spacing="normal"
         word-spacing="normal"><path
           style="fill:#000000;stroke-width:0"
           inkscape:connector-curvature="0"
           d="m 472.16,421.25 0.03,0.13 0.04,0.15 0.04,0.16 0.04,0.18 0.06,0.19 0.06,0.21 0.06,0.22 0.07,0.22 0.08,0.23 0.09,0.24 0.1,0.25 0.1,0.24 0.11,0.25 0.12,0.25 0.13,0.25 0.14,0.25 0.15,0.24 0.15,0.24 0.17,0.23 0.18,0.22 0.18,0.22 0.2,0.2 0.21,0.19 0.22,0.18 0.23,0.16 0.25,0.14 0.12,0.07 0.13,0.06 0.14,0.05 0.13,0.05 0.14,0.05 0.14,0.04 0.15,0.03 0.15,0.03 0.15,0.02 0.16,0.02 0.16,0.01 0.16,0 c 0.25,0 1.44,0 2.48,-0.64 -1.39,-0.25 -2.39,-1.5 -2.39,-2.69 0,-0.79 0.55,-1.75 1.89,-1.75 1.1,0 2.69,0.89 2.69,2.89 0,2.6 -2.94,3.28 -4.63,3.28 -2.89,0 -4.64,-2.64 -5.23,-3.78 -1.25,3.28 -3.94,3.78 -5.37,3.78 -5.19,0 -8.04,-6.42 -8.04,-7.67 0,-0.5 0.5,-0.5 0.61,-0.5 0.39,0 0.55,0.11 0.64,0.55 1.69,5.28 4.99,6.53 6.68,6.53 0.95,0 2.68,-0.44 2.68,-3.33 0,-1.54 -0.84,-4.89 -2.68,-11.86 -0.8,-3.09 -2.54,-5.18 -4.74,-5.18 -0.3,0 -1.44,0 -2.48,0.65 1.25,0.24 2.34,1.28 2.34,2.69 0,1.34 -1.09,1.73 -1.84,1.73 -1.5,0 -2.75,-1.29 -2.75,-2.89 0,-2.28 2.5,-3.28 4.68,-3.28 3.3,0 5.08,3.49 5.24,3.78 0.59,-1.84 2.39,-3.78 5.37,-3.78 5.14,0 7.99,6.42 7.99,7.67 0,0.5 -0.45,0.5 -0.61,0.5 -0.44,0 -0.55,-0.2 -0.64,-0.54 -1.64,-5.33 -5.03,-6.53 -6.63,-6.53 -1.95,0 -2.75,1.59 -2.75,3.29 0,1.1 0.3,2.19 0.86,4.38 z"
           id="path3926" /><path
           style="fill:#000000;stroke-width:0"
           inkscape:connector-curvature="0"
           d="m 501.55,430.54 h -1.18 c -0.1,-0.76 -0.46,-2.83 -0.91,-3.17 -0.26,-0.2 -2.95,-0.2 -3.44,-0.2 h -6.42 c 3.66,3.23 4.88,4.2 6.97,5.84 2.58,2.06 4.98,4.22 4.98,7.53 0,4.22 -3.68,6.8 -8.15,6.8 -4.31,0 -7.25,-3.03 -7.25,-6.23 0,-1.79 1.5,-1.96 1.86,-1.96 0.83,0 1.84,0.6 1.84,1.85 0,0.62 -0.25,1.84 -2.06,1.84 1.08,2.47 3.45,3.23 5.09,3.23 3.49,0 5.3,-2.7 5.3,-5.53 0,-3.03 -2.16,-5.43 -3.28,-6.68 l -8.39,-8.3 c -0.36,-0.31 -0.36,-0.39 -0.36,-1.36 h 14.36 z"
           id="path3928" /><path
           style="fill:#000000;stroke-width:0"
           inkscape:connector-curvature="0"
           d="m 554.43,422.5 0.14,0 0.15,0 0.14,0 0.07,0.01 0.08,0 0.07,0.01 0.07,0.01 0.07,0.01 0.07,0.01 0.07,0.01 0.06,0.02 0.07,0.02 0.06,0.02 0.06,0.02 0.06,0.03 0.06,0.03 0.05,0.04 0.05,0.03 0.05,0.05 0.04,0.04 0.04,0.05 0.02,0.03 0.02,0.03 0.01,0.02 0.02,0.03 0.01,0.03 0.02,0.04 0.01,0.03 0.01,0.04 0.01,0.03 0.01,0.04 0,0.04 0.01,0.04 0,0.04 0.01,0.04 0,0.04 0,0.05 c 0,1 -0.95,1 -1.64,1 h -29.84 c -0.71,0 -1.64,0 -1.64,-1 0,-0.98 0.93,-0.98 1.68,-0.98 z"
           id="path3930" /><path
           style="fill:#000000;stroke-width:0"
           inkscape:connector-curvature="0"
           d="m 554.48,412.82 0.07,0 0.06,0 0.14,0.01 0.14,0 0.07,0 0.07,0.01 0.07,0.01 0.07,0 0.06,0.01 0.07,0.02 0.07,0.01 0.06,0.02 0.07,0.02 0.06,0.02 0.06,0.02 0.06,0.03 0.05,0.03 0.05,0.04 0.05,0.04 0.05,0.04 0.04,0.05 0.02,0.02 0.02,0.03 0.02,0.02 0.02,0.03 0.01,0.03 0.02,0.03 0.01,0.03 0.02,0.03 0.01,0.04 0.01,0.03 0.01,0.04 0.01,0.04 0,0.04 0.01,0.04 0,0.04 0.01,0.04 0,0.05 0,0.04 c 0,1 -0.95,1 -1.69,1 h -29.75 c -0.75,0 -1.68,0 -1.68,-1 0,-1 0.93,-1 1.64,-1 z"
           id="path3932" /><path
           style="fill:#000000;stroke-width:0"
           inkscape:connector-curvature="0"
           d="m 587.4,414.42 v -4.33 c 0,-1.8 -0.1,-2.34 -3.78,-2.34 h -1.05 v -1.55 c 2.05,0.16 4.64,0.16 6.73,0.16 2.1,0 4.74,0 6.77,-0.16 v 1.55 h -1.05 c -3.68,0 -3.78,0.54 -3.78,2.34 v 4.33 h 4.99 v 1.54 h -4.99 v 22.68 c 0,1 0,1.29 -0.79,1.29 -0.46,0 -0.6,0 -1,-0.61 l -15.3,-23.36 h 1.4 l 12.16,18.58 v -18.58 h -12.16 -1.4 v -1.54 z"
           id="path3934" /><path
           style="fill:#000000;stroke-width:0"
           inkscape:connector-curvature="0"
           d="m 621.93,425.18 0.01,0.04 0.01,0.03 0.02,0.06 0.01,0.05 0.02,0.06 0.01,0.05 0.01,0.04 0.01,0.05 0.01,0.04 0.01,0.04 0.01,0.04 0.01,0.04 0.01,0.04 0,0.03 0.01,0.03 0,0.03 0.01,0.03 0,0.03 0.01,0.03 0,0.05 0.01,0.06 0,0.05 0,0.05 0,0.05 0,0.03 0,0.03 0,0.03 0,0.03 c 0,0.91 -0.69,1.35 -1.44,1.35 -0.5,0 -1.29,-0.3 -1.75,-1.05 -0.09,-0.25 -0.5,-1.78 -0.68,-2.69 -0.36,-1.29 -0.71,-2.64 -1,-3.98 L 615,410.98 c -0.19,-0.75 -2.33,-4.23 -5.63,-4.23 -2.53,0 -3.09,2.18 -3.09,4.03 0,2.29 0.86,5.39 2.54,9.76 0.8,2.05 1,2.6 1,3.6 0,2.23 -1.59,4.07 -4.09,4.07 -4.73,0 -6.58,-7.21 -6.58,-7.67 0,-0.5 0.5,-0.5 0.61,-0.5 0.5,0 0.55,0.11 0.8,0.91 1.34,4.69 3.33,6.17 5.03,6.17 0.39,0 1.25,0 1.25,-1.59 0,-1.25 -0.5,-2.53 -0.86,-3.49 -1.98,-5.28 -2.89,-8.12 -2.89,-10.47 0,-4.42 3.14,-5.92 6.08,-5.92 1.95,0 3.64,0.85 5.03,2.24 -0.64,-2.58 -1.23,-5.03 -3.23,-7.68 -1.3,-1.68 -3.19,-3.14 -5.49,-3.14 -0.69,0 -2.94,0.16 -3.78,2.1 0.8,0 1.45,0 2.14,0.61 0.5,0.43 1,1.09 1,2.03 0,1.55 -1.34,1.75 -1.84,1.75 -1.15,0 -2.8,-0.8 -2.8,-3.24 0,-2.5 2.2,-4.34 5.28,-4.34 5.14,0 10.27,4.55 11.67,10.17 z"
           id="path3936" /></g>    </g>
    <g
       transform="matrix(0.93561159,-0.35303109,0.35303109,0.93561159,-203.48088,61.983864)"
       id="g3982">
      <g
         style="font-style:normal;font-variant:normal;font-weight:normal;font-stretch:normal;letter-spacing:normal;word-spacing:normal;text-anchor:start;fill:none;stroke:#000000;stroke-linecap:butt;stroke-linejoin:miter;stroke-miterlimit:10.43299961;stroke-opacity:1;stroke-dasharray:none;stroke-dashoffset:0"
         word-spacing="normal"
         letter-spacing="normal"
         font-size-adjust="none"
         font-stretch="normal"
         font-weight="normal"
         font-variant="normal"
         font-style="normal"
         stroke-miterlimit="10.433"
         xml:space="preserve"
         transform="matrix(1.0629921,0,0,-1.0629921,-186.02362,789.27165)"
         id="g3984"><path
           style="fill:#000000;stroke-width:0"
           inkscape:connector-curvature="0"
           id="path3986"
           d="m 472.16,421.25 0.03,0.13 0.04,0.15 0.04,0.16 0.04,0.18 0.06,0.19 0.06,0.21 0.06,0.22 0.07,0.22 0.08,0.23 0.09,0.24 0.1,0.25 0.1,0.24 0.11,0.25 0.12,0.25 0.13,0.25 0.14,0.25 0.15,0.24 0.15,0.24 0.17,0.23 0.18,0.22 0.18,0.22 0.2,0.2 0.21,0.19 0.22,0.18 0.23,0.16 0.25,0.14 0.12,0.07 0.13,0.06 0.14,0.05 0.13,0.05 0.14,0.05 0.14,0.04 0.15,0.03 0.15,0.03 0.15,0.02 0.16,0.02 0.16,0.01 0.16,0 c 0.25,0 1.44,0 2.48,-0.64 -1.39,-0.25 -2.39,-1.5 -2.39,-2.69 0,-0.79 0.55,-1.75 1.89,-1.75 1.1,0 2.69,0.89 2.69,2.89 0,2.6 -2.94,3.28 -4.63,3.28 -2.89,0 -4.64,-2.64 -5.23,-3.78 -1.25,3.28 -3.94,3.78 -5.37,3.78 -5.19,0 -8.04,-6.42 -8.04,-7.67 0,-0.5 0.5,-0.5 0.61,-0.5 0.39,0 0.55,0.11 0.64,0.55 1.69,5.28 4.99,6.53 6.68,6.53 0.95,0 2.68,-0.44 2.68,-3.33 0,-1.54 -0.84,-4.89 -2.68,-11.86 -0.8,-3.09 -2.54,-5.18 -4.74,-5.18 -0.3,0 -1.44,0 -2.48,0.65 1.25,0.24 2.34,1.28 2.34,2.69 0,1.34 -1.09,1.73 -1.84,1.73 -1.5,0 -2.75,-1.29 -2.75,-2.89 0,-2.28 2.5,-3.28 4.68,-3.28 3.3,0 5.08,3.49 5.24,3.78 0.59,-1.84 2.39,-3.78 5.37,-3.78 5.14,0 7.99,6.42 7.99,7.67 0,0.5 -0.45,0.5 -0.61,0.5 -0.44,0 -0.55,-0.2 -0.64,-0.54 -1.64,-5.33 -5.03,-6.53 -6.63,-6.53 -1.95,0 -2.75,1.59 -2.75,3.29 0,1.1 0.3,2.19 0.86,4.38 z" /><path
           style="fill:#000000;stroke-width:0"
           inkscape:connector-curvature="0"
           id="path3988"
           d="m 532.11,422.5 0.14,0 0.15,0 0.14,0 0.07,0.01 0.08,0 0.07,0.01 0.07,0.01 0.07,0.01 0.07,0.01 0.07,0.01 0.06,0.02 0.07,0.02 0.06,0.02 0.06,0.02 0.06,0.03 0.06,0.03 0.05,0.04 0.05,0.03 0.05,0.05 0.04,0.04 0.04,0.05 0.02,0.03 0.02,0.03 0.01,0.02 0.02,0.03 0.01,0.03 0.02,0.04 0.01,0.03 0.01,0.04 0.01,0.03 0.01,0.04 0,0.04 0.01,0.04 0,0.04 0.01,0.04 0,0.04 0,0.05 c 0,1 -0.95,1 -1.64,1 h -29.84 c -0.71,0 -1.64,0 -1.64,-1 0,-0.98 0.93,-0.98 1.68,-0.98 z" /><path
           style="fill:#000000;stroke-width:0"
           inkscape:connector-curvature="0"
           id="path3990"
           d="m 532.16,412.82 0.07,0 0.06,0 0.14,0.01 0.14,0 0.07,0 0.07,0.01 0.07,0.01 0.07,0 0.06,0.01 0.07,0.02 0.07,0.01 0.06,0.02 0.07,0.02 0.06,0.02 0.06,0.02 0.06,0.03 0.05,0.03 0.05,0.04 0.05,0.04 0.05,0.04 0.04,0.05 0.02,0.02 0.02,0.03 0.02,0.02 0.02,0.03 0.01,0.03 0.02,0.03 0.01,0.03 0.02,0.03 0.01,0.04 0.01,0.03 0.01,0.04 0.01,0.04 0,0.04 0.01,0.04 0,0.04 0.01,0.04 0,0.05 0,0.04 c 0,1 -0.95,1 -1.69,1 h -29.75 c -0.75,0 -1.68,0 -1.68,-1 0,-1 0.93,-1 1.64,-1 z" /><path
           style="fill:#000000;stroke-width:0"
           inkscape:connector-curvature="0"
           id="path3992"
           d="m 565.07,414.42 v -4.33 c 0,-1.8 -0.09,-2.34 -3.78,-2.34 h -1.04 v -1.55 c 2.04,0.16 4.64,0.16 6.73,0.16 2.09,0 4.74,0 6.77,-0.16 v 1.55 h -1.05 c -3.69,0 -3.78,0.54 -3.78,2.34 v 4.33 h 4.98 v 1.54 h -4.98 v 22.68 c 0,1 0,1.29 -0.8,1.29 -0.45,0 -0.59,0 -1,-0.61 l -15.3,-23.36 h 1.41 l 12.16,18.58 v -18.58 h -12.16 -1.41 v -1.54 z" /><path
           style="fill:#000000;stroke-width:0"
           inkscape:connector-curvature="0"
           id="path3994"
           d="m 599.61,425.18 0.01,0.04 0.01,0.03 0.01,0.06 0.02,0.05 0.01,0.06 0.01,0.05 0.02,0.04 0.01,0.05 0.01,0.04 0.01,0.04 0.01,0.04 0,0.04 0.01,0.04 0.01,0.03 0,0.03 0.01,0.03 0,0.03 0.01,0.03 0,0.03 0.01,0.05 0,0.06 0,0.05 0.01,0.05 0,0.05 0,0.03 0,0.03 0,0.03 0,0.03 c 0,0.91 -0.69,1.35 -1.44,1.35 -0.5,0 -1.3,-0.3 -1.75,-1.05 -0.09,-0.25 -0.5,-1.78 -0.69,-2.69 -0.36,-1.29 -0.7,-2.64 -1,-3.98 l -2.25,-8.97 c -0.19,-0.75 -2.33,-4.23 -5.62,-4.23 -2.53,0 -3.1,2.18 -3.1,4.03 0,2.29 0.86,5.39 2.55,9.76 0.8,2.05 1,2.6 1,3.6 0,2.23 -1.59,4.07 -4.09,4.07 -4.74,0 -6.58,-7.21 -6.58,-7.67 0,-0.5 0.5,-0.5 0.61,-0.5 0.5,0 0.54,0.11 0.79,0.91 1.35,4.69 3.33,6.17 5.04,6.17 0.39,0 1.25,0 1.25,-1.59 0,-1.25 -0.5,-2.53 -0.86,-3.49 -1.99,-5.28 -2.89,-8.12 -2.89,-10.47 0,-4.42 3.14,-5.92 6.07,-5.92 1.96,0 3.64,0.85 5.04,2.24 -0.65,-2.58 -1.24,-5.03 -3.24,-7.68 -1.3,-1.68 -3.19,-3.14 -5.48,-3.14 -0.69,0 -2.94,0.16 -3.78,2.1 0.79,0 1.45,0 2.14,0.61 0.5,0.43 1,1.09 1,2.03 0,1.55 -1.35,1.75 -1.85,1.75 -1.14,0 -2.79,-0.8 -2.79,-3.24 0,-2.5 2.2,-4.34 5.28,-4.34 5.14,0 10.26,4.55 11.67,10.17 z" /><path
           style="fill:#000000;stroke-width:0"
           inkscape:connector-curvature="0"
           id="path3996"
           d="m 645.42,417.65 0.16,0 0.16,0 0.15,0.01 0.08,0 0.08,0.01 0.07,0 0.08,0.01 0.07,0.01 0.07,0.01 0.07,0.02 0.07,0.02 0.07,0.02 0.06,0.02 0.06,0.02 0.06,0.03 0.05,0.03 0.06,0.04 0.05,0.03 0.04,0.05 0.04,0.04 0.04,0.05 0.02,0.03 0.02,0.03 0.01,0.03 0.02,0.03 0.01,0.03 0.02,0.03 0.01,0.04 0.01,0.03 0.01,0.04 0,0.04 0.01,0.04 0.01,0.04 0,0.04 0.01,0.04 0,0.05 0,0.04 c 0,1 -0.91,1 -1.75,1 h -26.95 c -0.85,0 -1.74,0 -1.74,-1 0,-1 0.89,-1 1.74,-1 z" /><path
           style="fill:#000000;stroke-width:0"
           inkscape:connector-curvature="0"
           id="path3998"
           d="m 668.72,410.04 5.28,5.13 c 7.76,6.87 10.76,9.56 10.76,14.54 0,5.69 -4.48,9.68 -10.56,9.68 -5.64,0 -9.33,-4.6 -9.33,-9.03 0,-2.79 2.5,-2.79 2.64,-2.79 0.86,0 2.59,0.6 2.59,2.64 0,1.3 -0.88,2.6 -2.63,2.6 -0.4,0 -0.5,0 -0.65,-0.05 1.15,3.24 3.83,5.08 6.72,5.08 4.53,0 6.69,-4.05 6.69,-8.13 0,-3.98 -2.5,-7.92 -5.23,-11.01 l -9.57,-10.66 c -0.56,-0.54 -0.56,-0.64 -0.56,-1.84 h 18.48 l 1.41,8.67 h -1.25 c -0.25,-1.5 -0.59,-3.69 -1.09,-4.44 -0.36,-0.39 -3.64,-0.39 -4.74,-0.39 z" /></g>    </g>
    <g
       transform="translate(-73.310624,134.79695)"
       id="g4062">
      <g
         style="font-style:normal;font-variant:normal;font-weight:normal;font-stretch:normal;letter-spacing:normal;word-spacing:normal;text-anchor:start;fill:none;stroke:#000000;stroke-linecap:butt;stroke-linejoin:miter;stroke-miterlimit:10.43299961;stroke-opacity:1;stroke-dasharray:none;stroke-dashoffset:0"
         id="g4064"
         transform="matrix(1.0629921,0,0,-1.0629921,-186.02362,789.27165)"
         xml:space="preserve"
         stroke-miterlimit="10.433"
         font-style="normal"
         font-variant="normal"
         font-weight="normal"
         font-stretch="normal"
         font-size-adjust="none"
         letter-spacing="normal"
         word-spacing="normal"><path
           style="fill:#000000;stroke-width:0"
           inkscape:connector-curvature="0"
           d="m 492.39,427.92 -0.01,0.74 -0.05,0.73 -0.07,0.71 -0.11,0.7 -0.13,0.68 -0.16,0.66 -0.19,0.64 -0.22,0.62 -0.24,0.6 -0.27,0.59 -0.29,0.56 -0.32,0.54 -0.34,0.52 -0.37,0.5 -0.38,0.47 -0.42,0.45 -0.43,0.43 -0.45,0.41 -0.48,0.38 -0.49,0.35 -0.52,0.33 -0.53,0.3 -0.55,0.28 -0.57,0.25 -0.59,0.22 -0.6,0.2 -0.62,0.16 -0.63,0.14 -0.65,0.1 -0.67,0.08 -0.67,0.05 -0.69,0.01 -0.3,-1.25 c 4.09,0 8.58,-2.78 8.58,-10.2 0,-3.59 -1.35,-11.36 -6.28,-17.5 -2.39,-3.03 -6.49,-5.97 -10.66,-5.97 h 0 c -4.94,0 -8.42,4.03 -8.42,10.61 0,2.19 0.69,9.47 4.53,15.3 3.44,5.17 8.31,7.76 12.25,7.76 l 0.3,1.25 c -10.75,0 -21.72,-11.31 -21.72,-22.92 0,-8.26 5.58,-13.29 12.76,-13.29 10.55,0 21.67,10.9 21.67,22.81 z"
           id="path4066" /></g>    </g>
    <g
       id="g4136">
      <g
         word-spacing="normal"
         letter-spacing="normal"
         font-size-adjust="none"
         font-stretch="normal"
         font-weight="normal"
         font-variant="normal"
         font-style="normal"
         stroke-miterlimit="10.433"
         xml:space="preserve"
         transform="matrix(1.0629921,0,0,-1.0629921,-186.02362,789.27165)"
         id="g4138"
         style="font-style:normal;font-variant:normal;font-weight:normal;font-stretch:normal;letter-spacing:normal;word-spacing:normal;text-anchor:start;fill:none;stroke:#000000;stroke-linecap:butt;stroke-linejoin:miter;stroke-miterlimit:10.43299961;stroke-opacity:1;stroke-dasharray:none;stroke-dashoffset:0"><path
           id="path4140"
           d="m 464.44,411.93 -0.19,-0.3 -0.18,-0.29 -0.19,-0.28 -0.19,-0.26 -0.18,-0.25 -0.19,-0.23 -0.19,-0.22 -0.18,-0.21 -0.19,-0.2 -0.19,-0.18 -0.18,-0.17 -0.19,-0.16 -0.19,-0.15 -0.18,-0.14 -0.19,-0.13 -0.19,-0.12 -0.19,-0.11 -0.19,-0.1 -0.19,-0.09 -0.19,-0.09 -0.19,-0.07 -0.2,-0.07 -0.19,-0.07 -0.2,-0.05 -0.19,-0.05 -0.2,-0.04 -0.2,-0.04 -0.19,-0.03 -0.41,-0.05 -0.4,-0.03 c -0.61,-0.05 -1.05,-0.05 -1.05,-1 0,-0.3 0.25,-0.55 0.64,-0.55 1.34,0 2.89,0.16 4.28,0.16 1.64,0 3.39,-0.16 4.99,-0.16 0.29,0 0.95,0 0.95,0.95 0,0.55 -0.45,0.6 -0.8,0.6 -1.15,0.09 -2.34,0.5 -2.34,1.73 0,0.61 0.3,1.16 0.69,1.84 l 3.79,6.39 h 12.5 l -0.14,1.54 h -11.42 l 9.83,16.45 1.59,-16.45 0.14,-1.54 c 0.11,-1.04 0.8,-7.82 0.8,-8.32 0,-1.5 -2.59,-1.64 -3.58,-1.64 -0.7,0 -1.2,0 -1.2,-1 0,-0.55 0.59,-0.55 0.7,-0.55 2.03,0 4.19,0.16 6.22,0.16 1.25,0 4.39,-0.16 5.64,-0.16 0.3,0 0.89,0 0.89,1 0,0.55 -0.5,0.55 -1.14,0.55 -3.09,0 -3.09,0.34 -3.25,1.79 l -3.03,31.13 c -0.11,1 -0.11,1.2 -0.95,1.2 -0.8,0 -0.99,-0.34 -1.3,-0.84 z"
           inkscape:connector-curvature="0"
           style="fill:#000000;stroke-width:0" /></g>    </g>
    <g
       transform="translate(201.013,-115.87808)"
       id="g4216">
      <g
         style="font-style:normal;font-variant:normal;font-weight:normal;font-stretch:normal;letter-spacing:normal;word-spacing:normal;text-anchor:start;fill:none;stroke:#000000;stroke-linecap:butt;stroke-linejoin:miter;stroke-miterlimit:10.43299961;stroke-opacity:1;stroke-dasharray:none;stroke-dashoffset:0"
         id="g4218"
         transform="matrix(1.0629921,0,0,-1.0629921,-186.02362,789.27165)"
         xml:space="preserve"
         stroke-miterlimit="10.433"
         font-style="normal"
         font-variant="normal"
         font-weight="normal"
         font-stretch="normal"
         font-size-adjust="none"
         letter-spacing="normal"
         word-spacing="normal"><path
           style="fill:#000000;stroke-width:0"
           inkscape:connector-curvature="0"
           d="m 477.35,406.5 0.72,0.29 0.72,0.33 0.71,0.35 0.71,0.4 0.7,0.42 0.69,0.45 0.68,0.48 0.68,0.51 0.65,0.54 0.65,0.56 0.63,0.59 0.61,0.61 0.6,0.64 0.57,0.66 0.56,0.68 0.54,0.7 0.51,0.72 0.49,0.73 0.46,0.76 0.44,0.77 0.41,0.79 0.38,0.8 0.35,0.82 0.32,0.83 0.29,0.84 0.25,0.85 0.21,0.87 0.18,0.87 0.15,0.88 0.1,0.89 0.06,0.89 0.02,0.9 c 0,8.03 -5.28,13.4 -12.71,13.4 l -0.3,-1.25 c 4.98,0 8.62,-3.87 8.62,-10.56 0,-4.98 -2.54,-16.64 -10.9,-21.31 -0.25,1.73 -0.75,5.37 -4.39,5.37 v -1.09 c 2.09,0 3.04,-1.2 3.04,-4.23 0,-0.75 -0.06,-0.8 -0.56,-1 -1.28,-0.55 -2.78,-0.89 -4.17,-0.89 h 0 c -0.7,0 -2.3,0 -2.3,2.14 0,1.98 1.89,3.98 3.99,3.98 v 1.09 c -2.64,0 -5.08,-2.5 -5.08,-5.07 0,-1 0.3,-1.55 0.3,-1.6 h 0 c -3.89,1.53 -5.58,5.42 -5.58,9.91 0,3.44 1.29,10.51 5.08,15.89 3.64,5.09 8.32,7.37 11.95,7.37 l 0.3,1.25 c -10.75,0 -21.72,-11.31 -21.72,-22.92 0,-8.26 5.58,-13.29 12.76,-13.29 1.24,0 2.94,0.2 4.88,0.75 -0.21,-3.1 -0.21,-3.19 -0.21,-3.85 0,-1.59 0,-5.48 4.15,-5.48 5.92,0 8.31,9.12 8.31,9.67 0,0.34 -0.35,0.5 -0.55,0.5 -0.39,0 -0.5,-0.25 -0.59,-0.55 -1.19,-3.54 -4.08,-4.78 -5.83,-4.78 -2.3,0 -3.05,1.34 -3.53,5.13 z"
           id="path4220" /></g>    </g>
    <g
       id="g4302"
       transform="translate(-191.55357,44.932318)">
      <g
         word-spacing="normal"
         letter-spacing="normal"
         font-size-adjust="none"
         font-stretch="normal"
         font-weight="normal"
         font-variant="normal"
         font-style="normal"
         stroke-miterlimit="10.433"
         xml:space="preserve"
         transform="matrix(1.0629921,0,0,-1.0629921,-186.02362,789.27165)"
         id="g4304"
         style="font-style:normal;font-variant:normal;font-weight:normal;font-stretch:normal;letter-spacing:normal;word-spacing:normal;text-anchor:start;fill:none;stroke:#000000;stroke-linecap:butt;stroke-linejoin:miter;stroke-miterlimit:10.43299961;stroke-opacity:1;stroke-dasharray:none;stroke-dashoffset:0"><path
           id="path4306"
           d="m 470.61,421.95 0.21,1.28 3.39,13.56 c 0.43,1.74 0.54,1.89 2.68,1.89 h 4.79 c 4.14,0 6.78,-1.34 6.78,-4.78 0,-1.95 -1,-6.23 -2.94,-8.03 -2.5,-2.23 -5.48,-2.64 -7.69,-2.64 h -7.01 l -0.21,-1.28 h 8.47 c 7.08,0 14,5.17 14,10.75 0,3.84 -3.28,7.53 -9.81,7.53 h -16.14 c -0.95,0 -1.5,0 -1.5,-0.95 0,-0.6 0.45,-0.6 1.45,-0.6 0.64,0 1.55,-0.04 2.14,-0.09 0.8,-0.11 1.1,-0.25 1.1,-0.8 0,-0.2 -0.05,-0.36 -0.21,-0.95 l -6.67,-26.75 c -0.5,-1.95 -0.59,-2.34 -4.53,-2.34 -0.84,0 -1.39,0 -1.39,-0.96 0,-0.59 0.59,-0.59 0.73,-0.59 1.41,0 4.94,0.16 6.33,0.16 1.05,0 2.14,-0.07 3.19,-0.07 1.11,0 2.2,-0.09 3.25,-0.09 0.34,0 0.98,0 0.98,1 0,0.55 -0.43,0.55 -1.39,0.55 -1.84,0 -3.23,0 -3.23,0.89 0,0.29 0.09,0.54 0.14,0.84 z"
           inkscape:connector-curvature="0"
           style="fill:#000000;stroke-width:0" /></g>    </g>
  </g>
</svg>
