<?xml version="1.0" encoding="UTF-8" standalone="no"?>
<!-- Created with Inkscape (http://www.inkscape.org/) -->

<svg
   xmlns:dc="http://purl.org/dc/elements/1.1/"
   xmlns:cc="http://creativecommons.org/ns#"
   xmlns:rdf="http://www.w3.org/1999/02/22-rdf-syntax-ns#"
   xmlns:svg="http://www.w3.org/2000/svg"
   xmlns="http://www.w3.org/2000/svg"
   xmlns:sodipodi="http://sodipodi.sourceforge.net/DTD/sodipodi-0.dtd"
   xmlns:inkscape="http://www.inkscape.org/namespaces/inkscape"
   width="571.86548"
   height="660.82739"
   id="svg4413"
   version="1.1"
   inkscape:version="0.48.3.1 r9886"
   sodipodi:docname="New document 5">
  <sodipodi:namedview
     id="base"
     pagecolor="#ffffff"
     bordercolor="#666666"
     borderopacity="1.0"
     inkscape:pageopacity="0.0"
     inkscape:pageshadow="2"
     inkscape:zoom="0.41050506"
     inkscape:cx="55.018811"
     inkscape:cy="311.45553"
     inkscape:document-units="px"
     inkscape:current-layer="layer1"
     showgrid="false"
     inkscape:window-width="831"
     inkscape:window-height="627"
     inkscape:window-x="115"
     inkscape:window-y="48"
     inkscape:window-maximized="0"
     fit-margin-top="0"
     fit-margin-left="0"
     fit-margin-right="0"
     fit-margin-bottom="0"
     showborder="false"
     inkscape:showpageshadow="false" />
  <defs
     id="defs4415" />
  <metadata
     id="metadata4418">
    <rdf:RDF>
      <cc:Work
         rdf:about="">
        <dc:format>image/svg+xml</dc:format>
        <dc:type
           rdf:resource="http://purl.org/dc/dcmitype/StillImage" />
        <dc:title></dc:title>
      </cc:Work>
    </rdf:RDF>
  </metadata>
  <g
     inkscape:label="Layer 1"
     inkscape:groupmode="layer"
     id="layer1"
     transform="translate(-136.72947,-44.710321)">
    <path
       inkscape:connector-curvature="0"
       style="fill:none;stroke:#000000;stroke-width:2.75860381;stroke-linecap:round;stroke-linejoin:round;stroke-miterlimit:4;stroke-opacity:1;stroke-dasharray:none;stroke-dashoffset:0"
       d="m 150.51491,704.1485 c 4.14245,-1.77804 8.24268,-3.55502 12.30069,-5.33095 4.058,-1.77593 8.07362,-3.5508 12.0471,-5.32463 3.97347,-1.77382 7.90456,-3.54658 11.79351,-5.3183 3.88894,-1.77171 7.7355,-3.54237 11.53992,-5.31198 3.80441,-1.7696 7.56644,-3.53815 11.28633,-5.30565 3.71989,-1.7675 7.39738,-3.53394 11.03274,-5.29933 3.63536,-1.76539 7.22832,-3.52973 10.77915,-5.29301 3.55083,-1.76328 7.05926,-3.52551 10.52556,-5.28668 3.4663,-1.76118 6.8902,-3.5213 10.27197,-5.28036 3.38177,-1.75907 6.72115,-3.51708 10.01838,-5.27404 3.29724,-1.75696 6.55209,-3.51286 9.76479,-5.26771 3.21271,-1.75485 6.38303,-3.50864 9.51121,-5.26139 3.12817,-1.75274 6.21396,-3.50443 9.25761,-5.25506 3.04365,-1.75064 6.0449,-3.50021 9.00402,-5.24874 2.95912,-1.74853 5.87584,-3.496 8.75043,-5.24242 2.87459,-1.74641 5.70679,-3.49178 8.49684,-5.23609 2.79006,-1.74431 5.53773,-3.48756 8.24326,-5.22977 2.70552,-1.7422 5.36866,-3.48334 7.98966,-5.22344 2.621,-1.74009 5.1996,-3.47913 7.73607,-5.21712 2.53647,-1.73799 5.03055,-3.47492 7.48248,-5.2108 2.45194,-1.73588 4.86149,-3.4707 7.2289,-5.20447 2.3674,-1.73377 4.69242,-3.46648 6.9753,-5.19815 2.28288,-1.73166 4.52336,-3.46227 6.72171,-5.19182 2.19835,-1.72956 4.35431,-3.45806 6.46813,-5.1855 2.11381,-1.72745 4.18524,-3.45384 6.21453,-5.17918 2.02929,-1.72534 4.01618,-3.44962 5.96094,-5.17285 1.94476,-1.72323 3.84713,-3.44541 5.70736,-5.16653 1.86022,-1.72112 3.67806,-3.44119 5.45376,-5.16021 1.7757,-1.71901 3.50901,-3.43697 5.20017,-5.15388 1.69117,-1.71691 3.33995,-3.43276 4.94659,-5.14755 1.60664,-1.7148 3.17088,-3.42855 4.69299,-5.14124 1.52211,-1.71269 3.00183,-3.42432 4.43941,-5.13491 1.43758,-1.71058 2.83276,-3.42011 4.18581,-5.12858 1.35305,-1.70848 2.66371,-3.4159 3.93223,-5.12227 1.26851,-1.70636 2.49464,-3.41167 3.67863,-5.11593 1.18399,-1.70426 2.32559,-3.40747 3.42504,-5.10962 1.09946,-1.70215 2.15653,-3.40324 3.17146,-5.10329 1.01493,-1.70004 1.98747,-3.39903 2.91787,-5.09696 0.93039,-1.69794 1.8184,-3.39482 2.66427,-5.09065 0.84587,-1.69582 1.64935,-3.39059 2.41069,-5.08431 0.76133,-1.69372 1.48028,-3.38639 2.15709,-5.078 0.67681,-1.69161 1.31123,-3.38216 1.90351,-5.07167 0.59228,-1.6895 1.14216,-3.37795 1.64991,-5.06534 0.50775,-1.6874 0.97311,-3.37374 1.39633,-5.05903 0.42322,-1.68529 0.80405,-3.36952 1.14273,-5.0527 0.33869,-1.68318 0.63499,-3.3653 0.88915,-5.04637 0.25416,-1.68107 0.46593,-3.36109 0.63556,-5.04005 0.16963,-1.67897 0.29686,-3.35687 0.38196,-5.03373 0.0851,-1.67686 0.12781,-3.35265 0.12838,-5.0274 5.7e-4,-1.67475 -0.0412,-3.34844 -0.12521,-5.02108 -0.084,-1.67264 -0.21032,-3.34423 -0.37881,-5.01476 -0.16849,-1.67053 -0.37937,-3.34 -0.63239,-5.00843 -0.25302,-1.66842 -0.54843,-3.33579 -0.88598,-5.00211 -0.33755,-1.66631 -0.71749,-3.33157 -1.13957,-4.99578 -0.42208,-1.66421 -0.88656,-3.32736 -1.39317,-4.98946 -0.50661,-1.6621 -1.05561,-3.32314 -1.64675,-4.98314 -0.59114,-1.65999 -1.22467,-3.31892 -1.90034,-4.97681 -0.67567,-1.65788 -1.39373,-3.31471 -2.15393,-4.97049 -0.7602,-1.65577 -1.5628,-3.31049 -2.40753,-4.96416 -0.84473,-1.65367 -1.73185,-3.30628 -2.66111,-4.95784 -0.92926,-1.65156 -1.90091,-3.30206 -2.9147,-4.95152 -1.01379,-1.64945 -2.06997,-3.29784 -3.16829,-4.94519 -1.09832,-1.64734 -2.23903,-3.29363 -3.42188,-4.93887 -1.18285,-1.64523 -2.40809,-3.28941 -3.67547,-4.93254 -1.26738,-1.64313 -2.57716,-3.2852 -3.92906,-4.92622 -1.35191,-1.64102 -2.74622,-3.28099 -4.18266,-4.9199 -1.43644,-1.63891 -2.91527,-3.27677 -4.43624,-4.91357 -1.52097,-1.63681 -3.08433,-3.27256 -4.68983,-4.90725 -1.6055,-1.6347 -3.25339,-3.26834 -4.94342,-4.90093 -1.69003,-1.63259 -3.42245,-3.26412 -5.19701,-4.8946 -1.77456,-1.63048 -3.59151,-3.2599 -5.4506,-4.88828 -1.85909,-1.62837 -3.76057,-3.25568 -5.70419,-4.88195 -1.94362,-1.62626 -3.92963,-3.25147 -5.95778,-4.87563 -2.02815,-1.62416 -4.09869,-3.24726 -6.21137,-4.8693 -2.11268,-1.62205 -4.26775,-3.24305 -6.46496,-4.86299 -2.19721,-1.61994 -4.43681,-3.23882 -6.71855,-4.85665 -2.28174,-1.61784 -4.60587,-3.23461 -6.97214,-4.85034 -2.36627,-1.61572 -4.77493,-3.23039 -7.22573,-4.84401 -2.4508,-1.61362 -4.94399,-3.22618 -7.47932,-4.83768 -2.53533,-1.61151 -5.11305,-3.22197 -7.73291,-4.83137 -2.61986,-1.6094 -5.28211,-3.21774 -7.9865,-4.82504 -2.70438,-1.60729 -5.45116,-3.21352 -8.24008,-4.81871 -2.78892,-1.60518 -5.62023,-3.20931 -8.49368,-4.81239 -2.87345,-1.60308 -5.78929,-3.2051 -8.74727,-4.80607 -2.95798,-1.60097 -5.95835,-3.20088 -9.00086,-4.79974 -3.04251,-1.59886 -6.12741,-3.19667 -9.25445,-4.79342 -3.12704,-1.59675 -6.29647,-3.19245 -9.50804,-4.78709 -3.21156,-1.59465 -6.46553,-3.18824 -9.76162,-4.78078 -3.2961,-1.59253 -6.63459,-3.18401 -10.01522,-4.77444 -3.38063,-1.59043 -6.80365,-3.1798 -10.26881,-4.76813 -3.46516,-1.58832 -6.97271,-3.17558 -10.5224,-4.76179 -3.54969,-1.58622 -7.14177,-3.17137 -10.77598,-4.75548 -3.63422,-1.58411 -7.31083,-3.16715 -11.02958,-4.74915 -3.71875,-1.582 -7.47989,-3.16294 -11.28317,-4.74283 -3.80328,-1.57989 -7.64895,-3.15872 -11.53676,-4.7365 -3.88781,-1.57779 -7.81801,-3.15451 -11.79034,-4.73018 -3.97234,-1.57568 -7.98707,-3.15029 -12.04394,-4.72386 -4.05687,-1.57356 -8.15613,-3.14607 -12.29753,-4.71753 -4.1414,-1.57146 -8.32519,-3.14186 -12.55111,-4.71121"
       title="pow(x,2)/4"
       id="path4967" />
    <path
       id="path4980"
       title="(x/4) + 0.5"
       d="m 209.37733,443.90565 497.24139,0 m -248.62069,99.44827 0,-497.241386 M 209.37733,468.76772 c 1.67421,-0.83711 3.34843,-1.67422 5.02264,-2.51132 1.67421,-0.83711 3.34843,-1.67422 5.02264,-2.51132 1.67421,-0.83711 3.34843,-1.67422 5.02264,-2.51132 1.67421,-0.83711 3.34843,-1.67422 5.02264,-2.51133 1.67422,-0.8371 3.34843,-1.67421 5.02264,-2.51132 1.67422,-0.8371 3.34843,-1.67421 5.02264,-2.51132 1.67422,-0.8371 3.34843,-1.67421 5.02264,-2.51132 1.67422,-0.8371 3.34843,-1.67421 5.02264,-2.51132 1.67422,-0.8371 3.34843,-1.67421 5.02264,-2.51132 1.67422,-0.8371 3.34843,-1.67421 5.02264,-2.51132 1.67422,-0.8371 3.34843,-1.67421 5.02264,-2.51132 1.67422,-0.8371 3.34843,-1.67421 5.02264,-2.51132 1.67422,-0.8371 3.34843,-1.67421 5.02264,-2.51132 1.67422,-0.8371 3.34843,-1.67421 5.02264,-2.51132 1.67422,-0.8371 3.34843,-1.67421 5.02265,-2.51132 1.67421,-0.8371 3.34842,-1.67421 5.02264,-2.51132 1.67421,-0.8371 3.34842,-1.67421 5.02264,-2.51132 1.67421,-0.8371 3.34842,-1.67421 5.02264,-2.51132 1.67421,-0.8371 3.34842,-1.67421 5.02264,-2.51132 1.67421,-0.8371 3.34842,-1.67421 5.02264,-2.51132 1.67421,-0.8371 3.34842,-1.67421 5.02264,-2.51132 1.67421,-0.8371 3.34842,-1.67421 5.02264,-2.51132 1.67421,-0.8371 3.34842,-1.67421 5.02264,-2.51132 1.67421,-0.8371 3.34842,-1.67421 5.02264,-2.51132 1.67421,-0.8371 3.34842,-1.67421 5.02264,-2.51132 1.67421,-0.83711 3.34842,-1.67421 5.02264,-2.51132 1.67421,-0.83711 3.34843,-1.67421 5.02264,-2.51132 1.67421,-0.83711 3.34843,-1.67421 5.02264,-2.51132 1.67421,-0.83711 3.34843,-1.67421 5.02264,-2.51132 1.67421,-0.83711 3.34843,-1.67421 5.02264,-2.51132 1.67421,-0.83711 3.34843,-1.67421 5.02264,-2.51132 1.67421,-0.83711 3.34843,-1.67421 5.02264,-2.51132 1.67421,-0.83711 3.34843,-1.67421 5.02264,-2.51132 1.67421,-0.83711 3.34843,-1.67421 5.02264,-2.51132 1.67421,-0.83711 3.34843,-1.67421 5.02264,-2.51132 1.67421,-0.83711 3.34843,-1.67421 5.02264,-2.51132 1.67421,-0.83711 3.34843,-1.67421 5.02264,-2.51132 1.67422,-0.83711 3.34843,-1.67421 5.02264,-2.51132 1.67422,-0.83711 3.34843,-1.67421 5.02264,-2.51132 1.67422,-0.83711 3.34843,-1.67421 5.02264,-2.51132 1.67422,-0.83711 3.34843,-1.67421 5.02264,-2.51132 1.67422,-0.83711 3.34843,-1.67421 5.02264,-2.51132 1.67422,-0.83711 3.34843,-1.67421 5.02264,-2.51132 1.67422,-0.83711 3.34843,-1.67421 5.02264,-2.51132 1.67422,-0.83711 3.34843,-1.67421 5.02264,-2.51132 1.67422,-0.83711 3.34843,-1.67421 5.02264,-2.51132 1.67422,-0.83711 3.34843,-1.67421 5.02264,-2.51132 1.67422,-0.83711 3.34843,-1.67422 5.02265,-2.51132 1.67421,-0.83711 3.34842,-1.67422 5.02264,-2.51132 1.67421,-0.83711 3.34842,-1.67422 5.02264,-2.51132 1.67421,-0.83711 3.34842,-1.67422 5.02264,-2.51132 1.67421,-0.83711 3.34842,-1.67422 5.02264,-2.51132 1.67421,-0.83711 3.34842,-1.67422 5.02264,-2.51132 1.67421,-0.83711 3.34842,-1.67422 5.02264,-2.51132 1.67421,-0.83711 3.34842,-1.67422 5.02264,-2.51132 1.67421,-0.83711 3.34842,-1.67422 5.02264,-2.51132 1.67421,-0.83711 3.34842,-1.67422 5.02264,-2.51132 1.67421,-0.83711 3.34842,-1.67422 5.02264,-2.51132 1.67421,-0.83711 3.34842,-1.67422 5.02264,-2.51132 1.67421,-0.83711 3.34843,-1.67422 5.02264,-2.51132 1.67421,-0.83711 3.34843,-1.67422 5.02264,-2.51132 1.67421,-0.83711 3.34843,-1.67422 5.02264,-2.51132 1.67421,-0.83711 3.34843,-1.67422 5.02264,-2.51132 1.67421,-0.83711 3.34843,-1.67422 5.02264,-2.51132 1.67421,-0.83711 3.34843,-1.67422 5.02264,-2.51132 1.67421,-0.83711 3.34843,-1.67422 5.02264,-2.51132 1.67421,-0.83711 3.34843,-1.67422 5.02264,-2.51132 1.67421,-0.83711 3.34843,-1.67422 5.02264,-2.51132 1.67421,-0.83711 3.34843,-1.67422 5.02264,-2.51132 1.67421,-0.83711 3.34843,-1.67422 5.02264,-2.51133 1.67422,-0.8371 3.34843,-1.67421 5.02264,-2.51132 1.67422,-0.8371 3.34843,-1.67421 5.02264,-2.51132 1.67422,-0.8371 3.34843,-1.67421 5.02264,-2.51132 1.67422,-0.8371 3.34843,-1.67421 5.02264,-2.51132 1.67422,-0.8371 3.34843,-1.67421 5.02264,-2.51132 1.67422,-0.8371 3.34843,-1.67421 5.02264,-2.51132 1.67422,-0.8371 3.34843,-1.67421 5.02264,-2.51132 1.67422,-0.8371 3.34843,-1.67421 5.02264,-2.51132 1.67422,-0.8371 3.34843,-1.67421 5.02264,-2.51132 1.67422,-0.8371 3.34843,-1.67421 5.02264,-2.51132 1.67422,-0.8371 3.34843,-1.67421 5.02265,-2.51132 1.67421,-0.8371 3.34842,-1.67421 5.02264,-2.51132 1.67421,-0.8371 3.34842,-1.67421 5.02264,-2.51132 1.67421,-0.8371 3.34842,-1.67421 5.02264,-2.51132 1.67421,-0.8371 3.34842,-1.67421 5.02264,-2.51132 1.67421,-0.8371 3.34842,-1.67421 5.02264,-2.51132 1.67421,-0.8371 3.34842,-1.67421 5.02264,-2.51132 1.67421,-0.8371 3.34842,-1.67421 5.02264,-2.51132 1.67421,-0.8371 3.34842,-1.67421 5.02264,-2.51132 1.67421,-0.8371 3.34842,-1.67421 5.02264,-2.51132 1.67421,-0.8371 3.34842,-1.67421 5.02264,-2.51132 1.67421,-0.83711 3.34842,-1.67421 5.02264,-2.51132 1.67421,-0.83711 3.34843,-1.67421 5.02264,-2.51132 1.67421,-0.83711 3.34843,-1.67421 5.02264,-2.51132 1.67421,-0.83711 3.34843,-1.67421 5.02264,-2.51132 1.67421,-0.83711 3.34843,-1.67421 5.02264,-2.51132 1.67421,-0.83711 3.34843,-1.67421 5.02264,-2.51132 1.67421,-0.83711 3.34843,-1.67421 5.02264,-2.51132 1.67421,-0.83711 3.34843,-1.67421 5.02264,-2.51132"
       style="fill:none;stroke:#000000;stroke-width:2.75860381;stroke-linecap:round;stroke-linejoin:round;stroke-miterlimit:4;stroke-opacity:1;stroke-dasharray:none;stroke-dashoffset:0"
       inkscape:connector-curvature="0" />
    <path
       style="fill:none;stroke:none"
       d="m 451.94881,416.5638 c 0,-5.04215 -13.80152,-30.53526 -22.31158,-41.21223 -4.07538,-5.1131 -7.02569,-9.64207 -6.55624,-10.06438 0.46946,-0.42231 7.70487,-4.20217 16.0787,-8.39969 l 15.22515,-7.63185 0,35.35741 c 0,19.44657 -0.54811,35.3574 -1.21801,35.3574 -0.66991,0 -1.21802,-1.533 -1.21802,-3.40666 z"
       id="path4987"
       inkscape:connector-curvature="0" />
    <path
       style="fill:#f2f2f2;fill-opacity:1;stroke:none"
       d="m 343.65272,404.97827 72.94405,-36.65294 6.86614,8.1614 c 8.97491,10.66796 25.55222,44.64522 27.45521,56.27286 l 1.49506,9.13509 -90.85226,-0.13173 -90.85226,-0.13174 72.94406,-36.65294 z"
       id="path4989"
       inkscape:connector-curvature="0" />
    <g
       transform="translate(-56.028542,141.28937)"
       id="g5000">
      <g
         style="font-style:normal;font-variant:normal;font-weight:normal;font-stretch:normal;letter-spacing:normal;word-spacing:normal;text-anchor:start;fill:none;stroke:#000000;stroke-linecap:butt;stroke-linejoin:miter;stroke-miterlimit:10.43299961;stroke-opacity:1;stroke-dasharray:none;stroke-dashoffset:0"
         id="content"
         transform="matrix(1.0629921,0,0,-1.0629921,-186.02362,789.27165)"
         xml:space="preserve"
         stroke-miterlimit="10.433"
         font-style="normal"
         font-variant="normal"
         font-weight="normal"
         font-stretch="normal"
         font-size-adjust="none"
         letter-spacing="normal"
         word-spacing="normal"><path
           style="fill:#000000;stroke-width:0"
           inkscape:connector-curvature="0"
           d="m 470.61,421.95 0.21,1.28 3.39,13.56 c 0.43,1.74 0.54,1.89 2.68,1.89 h 4.79 c 4.14,0 6.78,-1.34 6.78,-4.78 0,-1.95 -1,-6.23 -2.94,-8.03 -2.5,-2.23 -5.48,-2.64 -7.69,-2.64 h -7.01 l -0.21,-1.28 h 8.47 c 7.08,0 14,5.17 14,10.75 0,3.84 -3.28,7.53 -9.81,7.53 h -16.14 c -0.95,0 -1.5,0 -1.5,-0.95 0,-0.6 0.45,-0.6 1.45,-0.6 0.64,0 1.55,-0.04 2.14,-0.09 0.8,-0.11 1.1,-0.25 1.1,-0.8 0,-0.2 -0.05,-0.36 -0.21,-0.95 l -6.67,-26.75 c -0.5,-1.95 -0.59,-2.34 -4.53,-2.34 -0.84,0 -1.39,0 -1.39,-0.96 0,-0.59 0.59,-0.59 0.73,-0.59 1.41,0 4.94,0.16 6.33,0.16 1.05,0 2.14,-0.07 3.19,-0.07 1.11,0 2.2,-0.09 3.25,-0.09 0.34,0 0.98,0 0.98,1 0,0.55 -0.43,0.55 -1.39,0.55 -1.84,0 -3.23,0 -3.23,0.89 0,0.29 0.09,0.54 0.14,0.84 z"
           id="path5003" /></g>    </g>
    <g
       transform="translate(102.31299,-17.052165)"
       id="g5027">
      <g
         style="font-style:normal;font-variant:normal;font-weight:normal;font-stretch:normal;letter-spacing:normal;word-spacing:normal;text-anchor:start;fill:none;stroke:#000000;stroke-linecap:butt;stroke-linejoin:miter;stroke-miterlimit:10.43299961;stroke-opacity:1;stroke-dasharray:none;stroke-dashoffset:0"
         word-spacing="normal"
         letter-spacing="normal"
         font-size-adjust="none"
         font-stretch="normal"
         font-weight="normal"
         font-variant="normal"
         font-style="normal"
         stroke-miterlimit="10.433"
         xml:space="preserve"
         transform="matrix(1.0629921,0,0,-1.0629921,-186.02362,789.27165)"
         id="g5029"><path
           style="fill:#000000;stroke-width:0"
           inkscape:connector-curvature="0"
           id="path5031"
           d="m 477.35,406.5 0.72,0.29 0.72,0.33 0.71,0.35 0.71,0.4 0.7,0.42 0.69,0.45 0.68,0.48 0.68,0.51 0.65,0.54 0.65,0.56 0.63,0.59 0.61,0.61 0.6,0.64 0.57,0.66 0.56,0.68 0.54,0.7 0.51,0.72 0.49,0.73 0.46,0.76 0.44,0.77 0.41,0.79 0.38,0.8 0.35,0.82 0.32,0.83 0.29,0.84 0.25,0.85 0.21,0.87 0.18,0.87 0.15,0.88 0.1,0.89 0.06,0.89 0.02,0.9 c 0,8.03 -5.28,13.4 -12.71,13.4 l -0.3,-1.25 c 4.98,0 8.62,-3.87 8.62,-10.56 0,-4.98 -2.54,-16.64 -10.9,-21.31 -0.25,1.73 -0.75,5.37 -4.39,5.37 v -1.09 c 2.09,0 3.04,-1.2 3.04,-4.23 0,-0.75 -0.06,-0.8 -0.56,-1 -1.28,-0.55 -2.78,-0.89 -4.17,-0.89 h 0 c -0.7,0 -2.3,0 -2.3,2.14 0,1.98 1.89,3.98 3.99,3.98 v 1.09 c -2.64,0 -5.08,-2.5 -5.08,-5.07 0,-1 0.3,-1.55 0.3,-1.6 h 0 c -3.89,1.53 -5.58,5.42 -5.58,9.91 0,3.44 1.29,10.51 5.08,15.89 3.64,5.09 8.32,7.37 11.95,7.37 l 0.3,1.25 c -10.75,0 -21.72,-11.31 -21.72,-22.92 0,-8.26 5.58,-13.29 12.76,-13.29 1.24,0 2.94,0.2 4.88,0.75 -0.21,-3.1 -0.21,-3.19 -0.21,-3.85 0,-1.59 0,-5.48 4.15,-5.48 5.92,0 8.31,9.12 8.31,9.67 0,0.34 -0.35,0.5 -0.55,0.5 -0.39,0 -0.5,-0.25 -0.59,-0.55 -1.19,-3.54 -4.08,-4.78 -5.83,-4.78 -2.3,0 -3.05,1.34 -3.53,5.13 z" /></g>    </g>
    <g
       transform="translate(175.3937,141.28937)"
       id="g5061">
      <g
         style="font-style:normal;font-variant:normal;font-weight:normal;font-stretch:normal;letter-spacing:normal;word-spacing:normal;text-anchor:start;fill:none;stroke:#000000;stroke-linecap:butt;stroke-linejoin:miter;stroke-miterlimit:10.43299961;stroke-opacity:1;stroke-dasharray:none;stroke-dashoffset:0"
         id="g5063"
         transform="matrix(1.0629921,0,0,-1.0629921,-186.02362,789.27165)"
         xml:space="preserve"
         stroke-miterlimit="10.433"
         font-style="normal"
         font-variant="normal"
         font-weight="normal"
         font-stretch="normal"
         font-size-adjust="none"
         letter-spacing="normal"
         word-spacing="normal"><path
           style="fill:#000000;stroke-width:0"
           inkscape:connector-curvature="0"
           d="m 492.39,427.92 -0.01,0.74 -0.05,0.73 -0.07,0.71 -0.11,0.7 -0.13,0.68 -0.16,0.66 -0.19,0.64 -0.22,0.62 -0.24,0.6 -0.27,0.59 -0.29,0.56 -0.32,0.54 -0.34,0.52 -0.37,0.5 -0.38,0.47 -0.42,0.45 -0.43,0.43 -0.45,0.41 -0.48,0.38 -0.49,0.35 -0.52,0.33 -0.53,0.3 -0.55,0.28 -0.57,0.25 -0.59,0.22 -0.6,0.2 -0.62,0.16 -0.63,0.14 -0.65,0.1 -0.67,0.08 -0.67,0.05 -0.69,0.01 -0.3,-1.25 c 4.09,0 8.58,-2.78 8.58,-10.2 0,-3.59 -1.35,-11.36 -6.28,-17.5 -2.39,-3.03 -6.49,-5.97 -10.66,-5.97 h 0 c -4.94,0 -8.42,4.03 -8.42,10.61 0,2.19 0.69,9.47 4.53,15.3 3.44,5.17 8.31,7.76 12.25,7.76 l 0.3,1.25 c -10.75,0 -21.72,-11.31 -21.72,-22.92 0,-8.26 5.58,-13.29 12.76,-13.29 10.55,0 21.67,10.9 21.67,22.81 z"
           id="path5065" /></g>    </g>
    <g
       transform="translate(-119.36515,-158.34153)"
       id="g5101">
      <g
         style="font-style:normal;font-variant:normal;font-weight:normal;font-stretch:normal;letter-spacing:normal;word-spacing:normal;text-anchor:start;fill:none;stroke:#000000;stroke-linecap:butt;stroke-linejoin:miter;stroke-miterlimit:10.43299961;stroke-opacity:1;stroke-dasharray:none;stroke-dashoffset:0"
         word-spacing="normal"
         letter-spacing="normal"
         font-size-adjust="none"
         font-stretch="normal"
         font-weight="normal"
         font-variant="normal"
         font-style="normal"
         stroke-miterlimit="10.433"
         xml:space="preserve"
         transform="matrix(1.0629921,0,0,-1.0629921,-186.02362,789.27165)"
         id="g5103"><path
           style="fill:#000000;stroke-width:0"
           inkscape:connector-curvature="0"
           id="path5105"
           d="m 472.16,421.25 0.03,0.13 0.04,0.15 0.04,0.16 0.04,0.18 0.06,0.19 0.06,0.21 0.06,0.22 0.07,0.22 0.08,0.23 0.09,0.24 0.1,0.25 0.1,0.24 0.11,0.25 0.12,0.25 0.13,0.25 0.14,0.25 0.15,0.24 0.15,0.24 0.17,0.23 0.18,0.22 0.18,0.22 0.2,0.2 0.21,0.19 0.22,0.18 0.23,0.16 0.25,0.14 0.12,0.07 0.13,0.06 0.14,0.05 0.13,0.05 0.14,0.05 0.14,0.04 0.15,0.03 0.15,0.03 0.15,0.02 0.16,0.02 0.16,0.01 0.16,0 c 0.25,0 1.44,0 2.48,-0.64 -1.39,-0.25 -2.39,-1.5 -2.39,-2.69 0,-0.79 0.55,-1.75 1.89,-1.75 1.1,0 2.69,0.89 2.69,2.89 0,2.6 -2.94,3.28 -4.63,3.28 -2.89,0 -4.64,-2.64 -5.23,-3.78 -1.25,3.28 -3.94,3.78 -5.37,3.78 -5.19,0 -8.04,-6.42 -8.04,-7.67 0,-0.5 0.5,-0.5 0.61,-0.5 0.39,0 0.55,0.11 0.64,0.55 1.69,5.28 4.99,6.53 6.68,6.53 0.95,0 2.68,-0.44 2.68,-3.33 0,-1.54 -0.84,-4.89 -2.68,-11.86 -0.8,-3.09 -2.54,-5.18 -4.74,-5.18 -0.3,0 -1.44,0 -2.48,0.65 1.25,0.24 2.34,1.28 2.34,2.69 0,1.34 -1.09,1.73 -1.84,1.73 -1.5,0 -2.75,-1.29 -2.75,-2.89 0,-2.28 2.5,-3.28 4.68,-3.28 3.3,0 5.08,3.49 5.24,3.78 0.59,-1.84 2.39,-3.78 5.37,-3.78 5.14,0 7.99,6.42 7.99,7.67 0,0.5 -0.45,0.5 -0.61,0.5 -0.44,0 -0.55,-0.2 -0.64,-0.54 -1.64,-5.33 -5.03,-6.53 -6.63,-6.53 -1.95,0 -2.75,1.59 -2.75,3.29 0,1.1 0.3,2.19 0.86,4.38 z" /><path
           style="fill:#000000;stroke-width:0"
           inkscape:connector-curvature="0"
           id="path5107"
           d="m 501.55,430.54 h -1.18 c -0.1,-0.76 -0.46,-2.83 -0.91,-3.17 -0.26,-0.2 -2.95,-0.2 -3.44,-0.2 h -6.42 c 3.66,3.23 4.88,4.2 6.97,5.84 2.58,2.06 4.98,4.22 4.98,7.53 0,4.22 -3.68,6.8 -8.15,6.8 -4.31,0 -7.25,-3.03 -7.25,-6.23 0,-1.79 1.5,-1.96 1.86,-1.96 0.83,0 1.84,0.6 1.84,1.85 0,0.62 -0.25,1.84 -2.06,1.84 1.08,2.47 3.45,3.23 5.09,3.23 3.49,0 5.3,-2.7 5.3,-5.53 0,-3.03 -2.16,-5.43 -3.28,-6.68 l -8.39,-8.3 c -0.36,-0.31 -0.36,-0.39 -0.36,-1.36 h 14.36 z" /><path
           style="fill:#000000;stroke-width:0"
           inkscape:connector-curvature="0"
           id="path5109"
           d="m 554.43,422.5 0.14,0 0.15,0 0.14,0 0.07,0.01 0.08,0 0.07,0.01 0.07,0.01 0.07,0.01 0.07,0.01 0.07,0.01 0.06,0.02 0.07,0.02 0.06,0.02 0.06,0.02 0.06,0.03 0.06,0.03 0.05,0.04 0.05,0.03 0.05,0.05 0.04,0.04 0.04,0.05 0.02,0.03 0.02,0.03 0.01,0.02 0.02,0.03 0.01,0.03 0.02,0.04 0.01,0.03 0.01,0.04 0.01,0.03 0.01,0.04 0,0.04 0.01,0.04 0,0.04 0.01,0.04 0,0.04 0,0.05 c 0,1 -0.95,1 -1.64,1 h -29.84 c -0.71,0 -1.64,0 -1.64,-1 0,-0.98 0.93,-0.98 1.68,-0.98 z" /><path
           style="fill:#000000;stroke-width:0"
           inkscape:connector-curvature="0"
           id="path5111"
           d="m 554.48,412.82 0.07,0 0.06,0 0.14,0.01 0.14,0 0.07,0 0.07,0.01 0.07,0.01 0.07,0 0.06,0.01 0.07,0.02 0.07,0.01 0.06,0.02 0.07,0.02 0.06,0.02 0.06,0.02 0.06,0.03 0.05,0.03 0.05,0.04 0.05,0.04 0.05,0.04 0.04,0.05 0.02,0.02 0.02,0.03 0.02,0.02 0.02,0.03 0.01,0.03 0.02,0.03 0.01,0.03 0.02,0.03 0.01,0.04 0.01,0.03 0.01,0.04 0.01,0.04 0,0.04 0.01,0.04 0,0.04 0.01,0.04 0,0.05 0,0.04 c 0,1 -0.95,1 -1.69,1 h -29.75 c -0.75,0 -1.68,0 -1.68,-1 0,-1 0.93,-1 1.64,-1 z" /><path
           style="fill:#000000;stroke-width:0"
           inkscape:connector-curvature="0"
           id="path5113"
           d="m 587.4,414.42 v -4.33 c 0,-1.8 -0.1,-2.34 -3.78,-2.34 h -1.05 v -1.55 c 2.05,0.16 4.64,0.16 6.73,0.16 2.1,0 4.74,0 6.77,-0.16 v 1.55 h -1.05 c -3.68,0 -3.78,0.54 -3.78,2.34 v 4.33 h 4.99 v 1.54 h -4.99 v 22.68 c 0,1 0,1.29 -0.79,1.29 -0.46,0 -0.6,0 -1,-0.61 l -15.3,-23.36 h 1.4 l 12.16,18.58 v -18.58 h -12.16 -1.4 v -1.54 z" /><path
           style="fill:#000000;stroke-width:0"
           inkscape:connector-curvature="0"
           id="path5115"
           d="m 621.93,425.18 0.01,0.04 0.01,0.03 0.02,0.06 0.01,0.05 0.02,0.06 0.01,0.05 0.01,0.04 0.01,0.05 0.01,0.04 0.01,0.04 0.01,0.04 0.01,0.04 0.01,0.04 0,0.03 0.01,0.03 0,0.03 0.01,0.03 0,0.03 0.01,0.03 0,0.05 0.01,0.06 0,0.05 0,0.05 0,0.05 0,0.03 0,0.03 0,0.03 0,0.03 c 0,0.91 -0.69,1.35 -1.44,1.35 -0.5,0 -1.29,-0.3 -1.75,-1.05 -0.09,-0.25 -0.5,-1.78 -0.68,-2.69 -0.36,-1.29 -0.71,-2.64 -1,-3.98 L 615,410.98 c -0.19,-0.75 -2.33,-4.23 -5.63,-4.23 -2.53,0 -3.09,2.18 -3.09,4.03 0,2.29 0.86,5.39 2.54,9.76 0.8,2.05 1,2.6 1,3.6 0,2.23 -1.59,4.07 -4.09,4.07 -4.73,0 -6.58,-7.21 -6.58,-7.67 0,-0.5 0.5,-0.5 0.61,-0.5 0.5,0 0.55,0.11 0.8,0.91 1.34,4.69 3.33,6.17 5.03,6.17 0.39,0 1.25,0 1.25,-1.59 0,-1.25 -0.5,-2.53 -0.86,-3.49 -1.98,-5.28 -2.89,-8.12 -2.89,-10.47 0,-4.42 3.14,-5.92 6.08,-5.92 1.95,0 3.64,0.85 5.03,2.24 -0.64,-2.58 -1.23,-5.03 -3.23,-7.68 -1.3,-1.68 -3.19,-3.14 -5.49,-3.14 -0.69,0 -2.94,0.16 -3.78,2.1 0.8,0 1.45,0 2.14,0.61 0.5,0.43 1,1.09 1,2.03 0,1.55 -1.34,1.75 -1.84,1.75 -1.15,0 -2.8,-0.8 -2.8,-3.24 0,-2.5 2.2,-4.34 5.28,-4.34 5.14,0 10.27,4.55 11.67,10.17 z" /></g>    </g>
    <g
       transform="matrix(0.90129108,-0.43321403,0.43321403,0.90129108,55.024137,108.93164)"
       id="g5167">
      <g
         style="font-style:normal;font-variant:normal;font-weight:normal;font-stretch:normal;letter-spacing:normal;word-spacing:normal;text-anchor:start;fill:none;stroke:#000000;stroke-linecap:butt;stroke-linejoin:miter;stroke-miterlimit:10.43299961;stroke-opacity:1;stroke-dasharray:none;stroke-dashoffset:0"
         id="g5169"
         transform="matrix(1.0629921,0,0,-1.0629921,-186.02362,789.27165)"
         xml:space="preserve"
         stroke-miterlimit="10.433"
         font-style="normal"
         font-variant="normal"
         font-weight="normal"
         font-stretch="normal"
         font-size-adjust="none"
         letter-spacing="normal"
         word-spacing="normal"><path
           style="fill:#000000;stroke-width:0"
           inkscape:connector-curvature="0"
           d="m 472.16,421.25 0.03,0.13 0.04,0.15 0.04,0.16 0.04,0.18 0.06,0.19 0.06,0.21 0.06,0.22 0.07,0.22 0.08,0.23 0.09,0.24 0.1,0.25 0.1,0.24 0.11,0.25 0.12,0.25 0.13,0.25 0.14,0.25 0.15,0.24 0.15,0.24 0.17,0.23 0.18,0.22 0.18,0.22 0.2,0.2 0.21,0.19 0.22,0.18 0.23,0.16 0.25,0.14 0.12,0.07 0.13,0.06 0.14,0.05 0.13,0.05 0.14,0.05 0.14,0.04 0.15,0.03 0.15,0.03 0.15,0.02 0.16,0.02 0.16,0.01 0.16,0 c 0.25,0 1.44,0 2.48,-0.64 -1.39,-0.25 -2.39,-1.5 -2.39,-2.69 0,-0.79 0.55,-1.75 1.89,-1.75 1.1,0 2.69,0.89 2.69,2.89 0,2.6 -2.94,3.28 -4.63,3.28 -2.89,0 -4.64,-2.64 -5.23,-3.78 -1.25,3.28 -3.94,3.78 -5.37,3.78 -5.19,0 -8.04,-6.42 -8.04,-7.67 0,-0.5 0.5,-0.5 0.61,-0.5 0.39,0 0.55,0.11 0.64,0.55 1.69,5.28 4.99,6.53 6.68,6.53 0.95,0 2.68,-0.44 2.68,-3.33 0,-1.54 -0.84,-4.89 -2.68,-11.86 -0.8,-3.09 -2.54,-5.18 -4.74,-5.18 -0.3,0 -1.44,0 -2.48,0.65 1.25,0.24 2.34,1.28 2.34,2.69 0,1.34 -1.09,1.73 -1.84,1.73 -1.5,0 -2.75,-1.29 -2.75,-2.89 0,-2.28 2.5,-3.28 4.68,-3.28 3.3,0 5.08,3.49 5.24,3.78 0.59,-1.84 2.39,-3.78 5.37,-3.78 5.14,0 7.99,6.42 7.99,7.67 0,0.5 -0.45,0.5 -0.61,0.5 -0.44,0 -0.55,-0.2 -0.64,-0.54 -1.64,-5.33 -5.03,-6.53 -6.63,-6.53 -1.95,0 -2.75,1.59 -2.75,3.29 0,1.1 0.3,2.19 0.86,4.38 z"
           id="path5171" /><path
           style="fill:#000000;stroke-width:0"
           inkscape:connector-curvature="0"
           d="m 532.11,422.5 0.14,0 0.15,0 0.14,0 0.07,0.01 0.08,0 0.07,0.01 0.07,0.01 0.07,0.01 0.07,0.01 0.07,0.01 0.06,0.02 0.07,0.02 0.06,0.02 0.06,0.02 0.06,0.03 0.06,0.03 0.05,0.04 0.05,0.03 0.05,0.05 0.04,0.04 0.04,0.05 0.02,0.03 0.02,0.03 0.01,0.02 0.02,0.03 0.01,0.03 0.02,0.04 0.01,0.03 0.01,0.04 0.01,0.03 0.01,0.04 0,0.04 0.01,0.04 0,0.04 0.01,0.04 0,0.04 0,0.05 c 0,1 -0.95,1 -1.64,1 h -29.84 c -0.71,0 -1.64,0 -1.64,-1 0,-0.98 0.93,-0.98 1.68,-0.98 z"
           id="path5173" /><path
           style="fill:#000000;stroke-width:0"
           inkscape:connector-curvature="0"
           d="m 532.16,412.82 0.07,0 0.06,0 0.14,0.01 0.14,0 0.07,0 0.07,0.01 0.07,0.01 0.07,0 0.06,0.01 0.07,0.02 0.07,0.01 0.06,0.02 0.07,0.02 0.06,0.02 0.06,0.02 0.06,0.03 0.05,0.03 0.05,0.04 0.05,0.04 0.05,0.04 0.04,0.05 0.02,0.02 0.02,0.03 0.02,0.02 0.02,0.03 0.01,0.03 0.02,0.03 0.01,0.03 0.02,0.03 0.01,0.04 0.01,0.03 0.01,0.04 0.01,0.04 0,0.04 0.01,0.04 0,0.04 0.01,0.04 0,0.05 0,0.04 c 0,1 -0.95,1 -1.69,1 h -29.75 c -0.75,0 -1.68,0 -1.68,-1 0,-1 0.93,-1 1.64,-1 z"
           id="path5175" /><path
           style="fill:#000000;stroke-width:0"
           inkscape:connector-curvature="0"
           d="m 565.07,414.42 v -4.33 c 0,-1.8 -0.09,-2.34 -3.78,-2.34 h -1.04 v -1.55 c 2.04,0.16 4.64,0.16 6.73,0.16 2.09,0 4.74,0 6.77,-0.16 v 1.55 h -1.05 c -3.69,0 -3.78,0.54 -3.78,2.34 v 4.33 h 4.98 v 1.54 h -4.98 v 22.68 c 0,1 0,1.29 -0.8,1.29 -0.45,0 -0.59,0 -1,-0.61 l -15.3,-23.36 h 1.41 l 12.16,18.58 v -18.58 h -12.16 -1.41 v -1.54 z"
           id="path5177" /><path
           style="fill:#000000;stroke-width:0"
           inkscape:connector-curvature="0"
           d="m 599.61,425.18 0.01,0.04 0.01,0.03 0.01,0.06 0.02,0.05 0.01,0.06 0.01,0.05 0.02,0.04 0.01,0.05 0.01,0.04 0.01,0.04 0.01,0.04 0,0.04 0.01,0.04 0.01,0.03 0,0.03 0.01,0.03 0,0.03 0.01,0.03 0,0.03 0.01,0.05 0,0.06 0,0.05 0.01,0.05 0,0.05 0,0.03 0,0.03 0,0.03 0,0.03 c 0,0.91 -0.69,1.35 -1.44,1.35 -0.5,0 -1.3,-0.3 -1.75,-1.05 -0.09,-0.25 -0.5,-1.78 -0.69,-2.69 -0.36,-1.29 -0.7,-2.64 -1,-3.98 l -2.25,-8.97 c -0.19,-0.75 -2.33,-4.23 -5.62,-4.23 -2.53,0 -3.1,2.18 -3.1,4.03 0,2.29 0.86,5.39 2.55,9.76 0.8,2.05 1,2.6 1,3.6 0,2.23 -1.59,4.07 -4.09,4.07 -4.74,0 -6.58,-7.21 -6.58,-7.67 0,-0.5 0.5,-0.5 0.61,-0.5 0.5,0 0.54,0.11 0.79,0.91 1.35,4.69 3.33,6.17 5.04,6.17 0.39,0 1.25,0 1.25,-1.59 0,-1.25 -0.5,-2.53 -0.86,-3.49 -1.99,-5.28 -2.89,-8.12 -2.89,-10.47 0,-4.42 3.14,-5.92 6.07,-5.92 1.96,0 3.64,0.85 5.04,2.24 -0.65,-2.58 -1.24,-5.03 -3.24,-7.68 -1.3,-1.68 -3.19,-3.14 -5.48,-3.14 -0.69,0 -2.94,0.16 -3.78,2.1 0.79,0 1.45,0 2.14,0.61 0.5,0.43 1,1.09 1,2.03 0,1.55 -1.35,1.75 -1.85,1.75 -1.14,0 -2.79,-0.8 -2.79,-3.24 0,-2.5 2.2,-4.34 5.28,-4.34 5.14,0 10.26,4.55 11.67,10.17 z"
           id="path5179" /><path
           style="fill:#000000;stroke-width:0"
           inkscape:connector-curvature="0"
           d="m 645.42,417.65 0.16,0 0.16,0 0.15,0.01 0.08,0 0.08,0.01 0.07,0 0.08,0.01 0.07,0.01 0.07,0.01 0.07,0.02 0.07,0.02 0.07,0.02 0.06,0.02 0.06,0.02 0.06,0.03 0.05,0.03 0.06,0.04 0.05,0.03 0.04,0.05 0.04,0.04 0.04,0.05 0.02,0.03 0.02,0.03 0.01,0.03 0.02,0.03 0.01,0.03 0.02,0.03 0.01,0.04 0.01,0.03 0.01,0.04 0,0.04 0.01,0.04 0.01,0.04 0,0.04 0.01,0.04 0,0.05 0,0.04 c 0,1 -0.91,1 -1.75,1 h -26.95 c -0.85,0 -1.74,0 -1.74,-1 0,-1 0.89,-1 1.74,-1 z"
           id="path5181" /><path
           style="fill:#000000;stroke-width:0"
           inkscape:connector-curvature="0"
           d="m 668.72,410.04 5.28,5.13 c 7.76,6.87 10.76,9.56 10.76,14.54 0,5.69 -4.48,9.68 -10.56,9.68 -5.64,0 -9.33,-4.6 -9.33,-9.03 0,-2.79 2.5,-2.79 2.64,-2.79 0.86,0 2.59,0.6 2.59,2.64 0,1.3 -0.88,2.6 -2.63,2.6 -0.4,0 -0.5,0 -0.65,-0.05 1.15,3.24 3.83,5.08 6.72,5.08 4.53,0 6.69,-4.05 6.69,-8.13 0,-3.98 -2.5,-7.92 -5.23,-11.01 l -9.57,-10.66 c -0.56,-0.54 -0.56,-0.64 -0.56,-1.84 h 18.48 l 1.41,8.67 h -1.25 c -0.25,-1.5 -0.59,-3.69 -1.09,-4.44 -0.36,-0.39 -3.64,-0.39 -4.74,-0.39 z"
           id="path5183" /></g>    </g>
    <g
       transform="translate(382.4557,126.67323)"
       id="g5253">
      <g
         style="font-style:normal;font-variant:normal;font-weight:normal;font-stretch:normal;letter-spacing:normal;word-spacing:normal;text-anchor:start;fill:none;stroke:#000000;stroke-linecap:butt;stroke-linejoin:miter;stroke-miterlimit:10.43299961;stroke-opacity:1;stroke-dasharray:none;stroke-dashoffset:0"
         word-spacing="normal"
         letter-spacing="normal"
         font-size-adjust="none"
         font-stretch="normal"
         font-weight="normal"
         font-variant="normal"
         font-style="normal"
         stroke-miterlimit="10.433"
         xml:space="preserve"
         transform="matrix(1.0629921,0,0,-1.0629921,-186.02362,789.27165)"
         id="g5255"><path
           style="fill:#000000;stroke-width:0"
           inkscape:connector-curvature="0"
           id="path5257"
           d="m 472.16,421.25 0.03,0.13 0.04,0.15 0.04,0.16 0.04,0.18 0.06,0.19 0.06,0.21 0.06,0.22 0.07,0.22 0.08,0.23 0.09,0.24 0.1,0.25 0.1,0.24 0.11,0.25 0.12,0.25 0.13,0.25 0.14,0.25 0.15,0.24 0.15,0.24 0.17,0.23 0.18,0.22 0.18,0.22 0.2,0.2 0.21,0.19 0.22,0.18 0.23,0.16 0.25,0.14 0.12,0.07 0.13,0.06 0.14,0.05 0.13,0.05 0.14,0.05 0.14,0.04 0.15,0.03 0.15,0.03 0.15,0.02 0.16,0.02 0.16,0.01 0.16,0 c 0.25,0 1.44,0 2.48,-0.64 -1.39,-0.25 -2.39,-1.5 -2.39,-2.69 0,-0.79 0.55,-1.75 1.89,-1.75 1.1,0 2.69,0.89 2.69,2.89 0,2.6 -2.94,3.28 -4.63,3.28 -2.89,0 -4.64,-2.64 -5.23,-3.78 -1.25,3.28 -3.94,3.78 -5.37,3.78 -5.19,0 -8.04,-6.42 -8.04,-7.67 0,-0.5 0.5,-0.5 0.61,-0.5 0.39,0 0.55,0.11 0.64,0.55 1.69,5.28 4.99,6.53 6.68,6.53 0.95,0 2.68,-0.44 2.68,-3.33 0,-1.54 -0.84,-4.89 -2.68,-11.86 -0.8,-3.09 -2.54,-5.18 -4.74,-5.18 -0.3,0 -1.44,0 -2.48,0.65 1.25,0.24 2.34,1.28 2.34,2.69 0,1.34 -1.09,1.73 -1.84,1.73 -1.5,0 -2.75,-1.29 -2.75,-2.89 0,-2.28 2.5,-3.28 4.68,-3.28 3.3,0 5.08,3.49 5.24,3.78 0.59,-1.84 2.39,-3.78 5.37,-3.78 5.14,0 7.99,6.42 7.99,7.67 0,0.5 -0.45,0.5 -0.61,0.5 -0.44,0 -0.55,-0.2 -0.64,-0.54 -1.64,-5.33 -5.03,-6.53 -6.63,-6.53 -1.95,0 -2.75,1.59 -2.75,3.29 0,1.1 0.3,2.19 0.86,4.38 z" /></g>    </g>
    <g
       transform="translate(107.18504,-265.52657)"
       id="g5333">
      <g
         style="font-style:normal;font-variant:normal;font-weight:normal;font-stretch:normal;letter-spacing:normal;word-spacing:normal;text-anchor:start;fill:none;stroke:#000000;stroke-linecap:butt;stroke-linejoin:miter;stroke-miterlimit:10.43299961;stroke-opacity:1;stroke-dasharray:none;stroke-dashoffset:0"
         id="g5335"
         transform="matrix(1.0629921,0,0,-1.0629921,-186.02362,789.27165)"
         xml:space="preserve"
         stroke-miterlimit="10.433"
         font-style="normal"
         font-variant="normal"
         font-weight="normal"
         font-stretch="normal"
         font-size-adjust="none"
         letter-spacing="normal"
         word-spacing="normal"><path
           style="fill:#000000;stroke-width:0"
           inkscape:connector-curvature="0"
           d="m 479.74,425.18 0.01,0.04 0.01,0.03 0.01,0.06 0.02,0.05 0.01,0.06 0.01,0.05 0.02,0.04 0.01,0.05 0.01,0.04 0.01,0.04 0,0.04 0.01,0.04 0.01,0.04 0.01,0.03 0,0.03 0.01,0.03 0,0.03 0.01,0.03 0,0.03 0.01,0.05 0,0.06 0,0.05 0,0.05 0.01,0.05 0,0.03 0,0.03 0,0.03 0,0.03 c 0,0.91 -0.69,1.35 -1.44,1.35 -0.5,0 -1.3,-0.3 -1.75,-1.05 -0.1,-0.25 -0.5,-1.78 -0.69,-2.69 -0.36,-1.29 -0.7,-2.64 -1,-3.98 l -2.25,-8.97 c -0.19,-0.75 -2.33,-4.23 -5.62,-4.23 -2.54,0 -3.1,2.18 -3.1,4.03 0,2.29 0.86,5.39 2.55,9.76 0.8,2.05 1,2.6 1,3.6 0,2.23 -1.59,4.07 -4.09,4.07 -4.74,0 -6.58,-7.21 -6.58,-7.67 0,-0.5 0.5,-0.5 0.61,-0.5 0.5,0 0.54,0.11 0.79,0.91 1.35,4.69 3.33,6.17 5.03,6.17 0.4,0 1.25,0 1.25,-1.59 0,-1.25 -0.5,-2.53 -0.85,-3.49 -1.99,-5.28 -2.9,-8.12 -2.9,-10.47 0,-4.42 3.15,-5.92 6.08,-5.92 1.96,0 3.64,0.85 5.03,2.24 -0.64,-2.58 -1.23,-5.03 -3.23,-7.68 -1.3,-1.68 -3.19,-3.14 -5.48,-3.14 -0.69,0 -2.94,0.16 -3.79,2.1 0.8,0 1.46,0 2.14,0.61 0.5,0.43 1,1.09 1,2.03 0,1.55 -1.34,1.75 -1.84,1.75 -1.14,0 -2.8,-0.8 -2.8,-3.24 0,-2.5 2.21,-4.34 5.29,-4.34 5.14,0 10.26,4.55 11.67,10.17 z"
           id="path5337" /></g>    </g>
    <g
       id="g5419"
       transform="translate(85.260825,65.772636)">
      <g
         word-spacing="normal"
         letter-spacing="normal"
         font-size-adjust="none"
         font-stretch="normal"
         font-weight="normal"
         font-variant="normal"
         font-style="normal"
         stroke-miterlimit="10.433"
         xml:space="preserve"
         transform="matrix(1.0629921,0,0,-1.0629921,-186.02362,789.27165)"
         id="g5421"
         style="font-style:normal;font-variant:normal;font-weight:normal;font-stretch:normal;letter-spacing:normal;word-spacing:normal;text-anchor:start;fill:none;stroke:#000000;stroke-linecap:butt;stroke-linejoin:miter;stroke-miterlimit:10.43299961;stroke-opacity:1;stroke-dasharray:none;stroke-dashoffset:0"><path
           id="path5423"
           d="m 464.44,411.93 -0.19,-0.3 -0.18,-0.29 -0.19,-0.28 -0.19,-0.26 -0.18,-0.25 -0.19,-0.23 -0.19,-0.22 -0.18,-0.21 -0.19,-0.2 -0.19,-0.18 -0.18,-0.17 -0.19,-0.16 -0.19,-0.15 -0.18,-0.14 -0.19,-0.13 -0.19,-0.12 -0.19,-0.11 -0.19,-0.1 -0.19,-0.09 -0.19,-0.09 -0.19,-0.07 -0.2,-0.07 -0.19,-0.07 -0.2,-0.05 -0.19,-0.05 -0.2,-0.04 -0.2,-0.04 -0.19,-0.03 -0.41,-0.05 -0.4,-0.03 c -0.61,-0.05 -1.05,-0.05 -1.05,-1 0,-0.3 0.25,-0.55 0.64,-0.55 1.34,0 2.89,0.16 4.28,0.16 1.64,0 3.39,-0.16 4.99,-0.16 0.29,0 0.95,0 0.95,0.95 0,0.55 -0.45,0.6 -0.8,0.6 -1.15,0.09 -2.34,0.5 -2.34,1.73 0,0.61 0.3,1.16 0.69,1.84 l 3.79,6.39 h 12.5 l -0.14,1.54 h -11.42 l 9.83,16.45 1.59,-16.45 0.14,-1.54 c 0.11,-1.04 0.8,-7.82 0.8,-8.32 0,-1.5 -2.59,-1.64 -3.58,-1.64 -0.7,0 -1.2,0 -1.2,-1 0,-0.55 0.59,-0.55 0.7,-0.55 2.03,0 4.19,0.16 6.22,0.16 1.25,0 4.39,-0.16 5.64,-0.16 0.3,0 0.89,0 0.89,1 0,0.55 -0.5,0.55 -1.14,0.55 -3.09,0 -3.09,0.34 -3.25,1.79 l -3.03,31.13 c -0.11,1 -0.11,1.2 -0.95,1.2 -0.8,0 -0.99,-0.34 -1.3,-0.84 z"
           inkscape:connector-curvature="0"
           style="fill:#000000;stroke-width:0" /></g>    </g>
  </g>
</svg>
