<?xml version="1.0" encoding="UTF-8"?>
<svg xmlns="http://www.w3.org/2000/svg" xmlns:xlink="http://www.w3.org/1999/xlink" width="256.83548pt" height="55.809126pt" viewBox="0 0 256.83548 55.809126" version="1.1">
<g id="surface1">
<path style=" stroke:none;fill-rule:nonzero;fill:rgb(0%,0%,0%);fill-opacity:1;" d="M 6.855469 6.953125 L 6.855469 5.878906 L 1.542969 5.878906 L 1.542969 1.328125 L 3.847656 1.328125 C 4.0625 1.328125 4.277344 1.347656 4.492188 1.347656 L 7.597656 1.347656 L 7.597656 0.214844 L 0 0.214844 L 0 12.617188 L 1.542969 12.617188 L 1.542969 6.953125 Z M 6.855469 6.953125 "/>
<path style=" stroke:none;fill-rule:nonzero;fill:rgb(0%,0%,0%);fill-opacity:1;" d="M 11.109375 0.449219 L 9.566406 0.449219 L 9.566406 1.992188 L 11.109375 1.992188 Z M 11.011719 4.648438 L 9.683594 4.648438 L 9.683594 12.617188 L 11.011719 12.617188 Z M 11.011719 4.648438 "/>
<path style=" stroke:none;fill-rule:nonzero;fill:rgb(0%,0%,0%);fill-opacity:1;" d="M 20.078125 7.226562 C 20.078125 6.132812 19.84375 4.472656 17.675781 4.472656 C 16.679688 4.472656 15.820312 4.921875 15.136719 5.78125 L 15.136719 4.570312 L 13.867188 4.570312 L 13.867188 12.617188 L 15.214844 12.617188 L 15.214844 8.144531 C 15.214844 7.050781 15.644531 5.546875 16.992188 5.546875 C 18.671875 5.546875 18.710938 6.71875 18.710938 7.34375 L 18.710938 12.617188 L 20.078125 12.617188 Z M 20.078125 7.226562 "/>
<path style=" stroke:none;fill-rule:nonzero;fill:rgb(0%,0%,0%);fill-opacity:1;" d="M 29.058594 0.175781 L 27.730469 0.175781 L 27.730469 5.410156 C 26.910156 4.726562 25.972656 4.472656 25.210938 4.472656 C 23.511719 4.472656 22.105469 6.308594 22.105469 8.632812 C 22.105469 10.957031 23.433594 12.792969 25.132812 12.792969 C 25.796875 12.792969 26.8125 12.578125 27.710938 11.699219 L 27.710938 12.617188 L 29.058594 12.617188 Z M 27.710938 10.507812 C 27.28125 11.269531 26.636719 11.71875 25.855469 11.71875 C 24.761719 11.71875 23.472656 10.878906 23.472656 8.652344 C 23.472656 6.269531 24.996094 5.546875 26.03125 5.546875 C 26.734375 5.546875 27.300781 5.917969 27.710938 6.503906 Z M 27.710938 10.507812 "/>
<path style=" stroke:none;fill-rule:nonzero;fill:rgb(0%,0%,0%);fill-opacity:1;" d="M 39.394531 5.703125 L 41.875 5.703125 L 41.875 4.648438 L 39.394531 4.648438 L 39.394531 2.382812 L 38.164062 2.382812 L 38.164062 4.648438 L 36.660156 4.648438 L 36.660156 5.703125 L 38.125 5.703125 L 38.125 10.527344 C 38.125 11.5625 38.359375 12.792969 39.589844 12.792969 C 40.800781 12.792969 41.621094 12.382812 42.167969 12.089844 L 41.894531 11.054688 C 41.269531 11.621094 40.605469 11.679688 40.292969 11.679688 C 39.492188 11.679688 39.394531 10.839844 39.394531 10.214844 Z M 39.394531 5.703125 "/>
<path style=" stroke:none;fill-rule:nonzero;fill:rgb(0%,0%,0%);fill-opacity:1;" d="M 50.226562 7.226562 C 50.226562 6.132812 49.992188 4.472656 47.824219 4.472656 C 46.59375 4.472656 45.773438 5.175781 45.34375 5.722656 L 45.34375 0.175781 L 44.015625 0.175781 L 44.015625 12.617188 L 45.363281 12.617188 L 45.363281 8.144531 C 45.363281 7.050781 45.792969 5.546875 47.140625 5.546875 C 48.820312 5.546875 48.859375 6.71875 48.859375 7.34375 L 48.859375 12.617188 L 50.226562 12.617188 Z M 50.226562 7.226562 "/>
<path style=" stroke:none;fill-rule:nonzero;fill:rgb(0%,0%,0%);fill-opacity:1;" d="M 58.933594 8.574219 C 58.933594 7.8125 58.855469 6.71875 58.289062 5.761719 C 57.546875 4.53125 56.296875 4.394531 55.769531 4.394531 C 53.835938 4.394531 52.214844 6.25 52.214844 8.574219 C 52.214844 10.957031 53.933594 12.792969 56.023438 12.792969 C 56.84375 12.792969 57.839844 12.558594 58.816406 11.855469 C 58.816406 11.777344 58.757812 11.210938 58.757812 11.191406 C 58.738281 11.171875 58.71875 10.761719 58.71875 10.703125 C 57.644531 11.601562 56.589844 11.71875 56.0625 11.71875 C 54.675781 11.71875 53.484375 10.488281 53.464844 8.574219 Z M 53.5625 7.617188 C 53.875 6.40625 54.714844 5.46875 55.769531 5.46875 C 56.335938 5.46875 57.566406 5.722656 57.859375 7.617188 Z M 53.5625 7.617188 "/>
<path style=" stroke:none;fill-rule:nonzero;fill:rgb(0%,0%,0%);fill-opacity:1;" d="M 72.441406 7.363281 C 72.441406 5.644531 71.210938 4.394531 69.53125 4.394531 C 68.457031 4.394531 67.65625 4.628906 66.777344 5.136719 L 66.875 6.328125 C 67.675781 5.742188 68.496094 5.429688 69.53125 5.429688 C 70.351562 5.429688 71.074219 6.09375 71.074219 7.402344 L 71.074219 8.144531 C 70.273438 8.164062 69.199219 8.222656 68.125 8.574219 C 66.914062 9.003906 66.210938 9.667969 66.210938 10.546875 C 66.210938 11.347656 66.679688 12.792969 68.203125 12.792969 C 69.199219 12.792969 70.449219 12.5 71.113281 11.953125 L 71.113281 12.617188 L 72.441406 12.617188 Z M 71.074219 10.214844 C 71.074219 10.566406 71.074219 10.996094 70.488281 11.367188 C 70 11.660156 69.394531 11.71875 69.121094 11.71875 C 68.164062 11.71875 67.5 11.191406 67.5 10.546875 C 67.5 9.316406 69.980469 9.042969 71.074219 9.042969 Z M 71.074219 10.214844 "/>
<path style=" stroke:none;fill-rule:nonzero;fill:rgb(0%,0%,0%);fill-opacity:1;" d="M 76.113281 8.691406 C 76.113281 6.875 77.460938 5.703125 79.082031 5.683594 L 79.082031 4.472656 C 77.441406 4.492188 76.503906 5.449219 76.015625 6.152344 L 76.015625 4.570312 L 74.785156 4.570312 L 74.785156 12.617188 L 76.113281 12.617188 Z M 76.113281 8.691406 "/>
<path style=" stroke:none;fill-rule:nonzero;fill:rgb(0%,0%,0%);fill-opacity:1;" d="M 86.683594 8.574219 C 86.683594 7.8125 86.605469 6.71875 86.039062 5.761719 C 85.296875 4.53125 84.046875 4.394531 83.519531 4.394531 C 81.585938 4.394531 79.964844 6.25 79.964844 8.574219 C 79.964844 10.957031 81.683594 12.792969 83.773438 12.792969 C 84.59375 12.792969 85.589844 12.558594 86.566406 11.855469 C 86.566406 11.777344 86.507812 11.210938 86.507812 11.191406 C 86.488281 11.171875 86.46875 10.761719 86.46875 10.703125 C 85.394531 11.601562 84.339844 11.71875 83.8125 11.71875 C 82.425781 11.71875 81.234375 10.488281 81.214844 8.574219 Z M 81.3125 7.617188 C 81.625 6.40625 82.464844 5.46875 83.519531 5.46875 C 84.085938 5.46875 85.316406 5.722656 85.609375 7.617188 Z M 81.3125 7.617188 "/>
<path style=" stroke:none;fill-rule:nonzero;fill:rgb(0%,0%,0%);fill-opacity:1;" d="M 94.191406 7.363281 C 94.191406 5.644531 92.960938 4.394531 91.28125 4.394531 C 90.207031 4.394531 89.40625 4.628906 88.527344 5.136719 L 88.625 6.328125 C 89.425781 5.742188 90.246094 5.429688 91.28125 5.429688 C 92.101562 5.429688 92.824219 6.09375 92.824219 7.402344 L 92.824219 8.144531 C 92.023438 8.164062 90.949219 8.222656 89.875 8.574219 C 88.664062 9.003906 87.960938 9.667969 87.960938 10.546875 C 87.960938 11.347656 88.429688 12.792969 89.953125 12.792969 C 90.949219 12.792969 92.199219 12.5 92.863281 11.953125 L 92.863281 12.617188 L 94.191406 12.617188 Z M 92.824219 10.214844 C 92.824219 10.566406 92.824219 10.996094 92.238281 11.367188 C 91.75 11.660156 91.144531 11.71875 90.871094 11.71875 C 89.914062 11.71875 89.25 11.191406 89.25 10.546875 C 89.25 9.316406 91.730469 9.042969 92.824219 9.042969 Z M 92.824219 10.214844 "/>
<path style=" stroke:none;fill-rule:nonzero;fill:rgb(0%,0%,0%);fill-opacity:1;" d="M 109.5 8.671875 C 109.5 6.25 107.722656 4.394531 105.671875 4.394531 C 103.5625 4.394531 101.824219 6.289062 101.824219 8.671875 C 101.824219 11.015625 103.601562 12.792969 105.652344 12.792969 C 107.761719 12.792969 109.5 10.976562 109.5 8.671875 Z M 105.671875 11.679688 C 104.382812 11.679688 103.171875 10.605469 103.171875 8.496094 C 103.171875 6.328125 104.519531 5.46875 105.652344 5.46875 C 106.882812 5.46875 108.152344 6.386719 108.152344 8.496094 C 108.152344 10.703125 106.863281 11.679688 105.671875 11.679688 Z M 105.671875 11.679688 "/>
<path style=" stroke:none;fill-rule:nonzero;fill:rgb(0%,0%,0%);fill-opacity:1;" d="M 113.234375 5.703125 L 115.148438 5.703125 L 115.148438 4.648438 L 113.195312 4.648438 L 113.195312 2.5 C 113.195312 1.289062 114.210938 1.074219 114.816406 1.074219 C 115.441406 1.074219 115.988281 1.269531 116.203125 1.347656 L 116.203125 0.175781 C 116.085938 0.136719 115.480469 0 114.835938 0 C 113.117188 0 111.90625 1.308594 111.90625 3.046875 L 111.90625 4.648438 L 110.597656 4.648438 L 110.597656 5.703125 L 111.90625 5.703125 L 111.90625 12.617188 L 113.234375 12.617188 Z M 113.234375 5.703125 "/>
<path style=" stroke:none;fill-rule:nonzero;fill:rgb(0%,0%,0%);fill-opacity:1;" d="M 124.445312 5.703125 L 126.925781 5.703125 L 126.925781 4.648438 L 124.445312 4.648438 L 124.445312 2.382812 L 123.214844 2.382812 L 123.214844 4.648438 L 121.710938 4.648438 L 121.710938 5.703125 L 123.175781 5.703125 L 123.175781 10.527344 C 123.175781 11.5625 123.410156 12.792969 124.640625 12.792969 C 125.851562 12.792969 126.671875 12.382812 127.21875 12.089844 L 126.945312 11.054688 C 126.320312 11.621094 125.65625 11.679688 125.34375 11.679688 C 124.542969 11.679688 124.445312 10.839844 124.445312 10.214844 Z M 124.445312 5.703125 "/>
<path style=" stroke:none;fill-rule:nonzero;fill:rgb(0%,0%,0%);fill-opacity:1;" d="M 135.277344 7.226562 C 135.277344 6.132812 135.042969 4.472656 132.875 4.472656 C 131.644531 4.472656 130.824219 5.175781 130.394531 5.722656 L 130.394531 0.175781 L 129.066406 0.175781 L 129.066406 12.617188 L 130.414062 12.617188 L 130.414062 8.144531 C 130.414062 7.050781 130.84375 5.546875 132.191406 5.546875 C 133.871094 5.546875 133.910156 6.71875 133.910156 7.34375 L 133.910156 12.617188 L 135.277344 12.617188 Z M 135.277344 7.226562 "/>
<path style=" stroke:none;fill-rule:nonzero;fill:rgb(0%,0%,0%);fill-opacity:1;" d="M 143.984375 8.574219 C 143.984375 7.8125 143.90625 6.71875 143.339844 5.761719 C 142.597656 4.53125 141.347656 4.394531 140.820312 4.394531 C 138.886719 4.394531 137.265625 6.25 137.265625 8.574219 C 137.265625 10.957031 138.984375 12.792969 141.074219 12.792969 C 141.894531 12.792969 142.890625 12.558594 143.867188 11.855469 C 143.867188 11.777344 143.808594 11.210938 143.808594 11.191406 C 143.789062 11.171875 143.769531 10.761719 143.769531 10.703125 C 142.695312 11.601562 141.640625 11.71875 141.113281 11.71875 C 139.726562 11.71875 138.535156 10.488281 138.515625 8.574219 Z M 138.613281 7.617188 C 138.925781 6.40625 139.765625 5.46875 140.820312 5.46875 C 141.386719 5.46875 142.617188 5.722656 142.910156 7.617188 Z M 138.613281 7.617188 "/>
<path style=" stroke:none;fill-rule:nonzero;fill:rgb(0%,0%,0%);fill-opacity:1;" d="M 153.0625 8.691406 C 153.0625 6.875 154.410156 5.703125 156.03125 5.683594 L 156.03125 4.472656 C 154.390625 4.492188 153.453125 5.449219 152.964844 6.152344 L 152.964844 4.570312 L 151.734375 4.570312 L 151.734375 12.617188 L 153.0625 12.617188 Z M 153.0625 8.691406 "/>
<path style=" stroke:none;fill-rule:nonzero;fill:rgb(0%,0%,0%);fill-opacity:1;" d="M 163.632812 8.574219 C 163.632812 7.8125 163.554688 6.71875 162.988281 5.761719 C 162.246094 4.53125 160.996094 4.394531 160.46875 4.394531 C 158.535156 4.394531 156.914062 6.25 156.914062 8.574219 C 156.914062 10.957031 158.632812 12.792969 160.722656 12.792969 C 161.542969 12.792969 162.539062 12.558594 163.515625 11.855469 C 163.515625 11.777344 163.457031 11.210938 163.457031 11.191406 C 163.4375 11.171875 163.417969 10.761719 163.417969 10.703125 C 162.34375 11.601562 161.289062 11.71875 160.761719 11.71875 C 159.375 11.71875 158.183594 10.488281 158.164062 8.574219 Z M 158.261719 7.617188 C 158.574219 6.40625 159.414062 5.46875 160.46875 5.46875 C 161.035156 5.46875 162.265625 5.722656 162.558594 7.617188 Z M 158.261719 7.617188 "/>
<path style=" stroke:none;fill-rule:nonzero;fill:rgb(0%,0%,0%);fill-opacity:1;" d="M 170.242188 5.546875 C 170.242188 5.546875 170.28125 5.585938 170.300781 5.625 C 170.671875 5.585938 171.0625 5.527344 171.726562 5.527344 C 171.785156 5.527344 172.195312 5.527344 172.644531 5.566406 L 172.449219 4.472656 C 172.117188 4.472656 170.886719 4.492188 169.695312 5.078125 C 169.109375 4.570312 168.386719 4.472656 168.035156 4.472656 C 166.472656 4.472656 165.222656 5.78125 165.222656 7.363281 C 165.222656 8.007812 165.417969 8.59375 165.808594 9.140625 C 165.398438 9.707031 165.300781 10.253906 165.300781 10.683594 C 165.300781 11.347656 165.554688 11.796875 165.75 12.03125 C 164.832031 12.617188 164.617188 13.378906 164.617188 13.886719 C 164.617188 15.195312 166.316406 16.289062 168.503906 16.289062 C 170.691406 16.289062 172.410156 15.234375 172.410156 13.867188 C 172.410156 11.367188 169.5 11.367188 168.777344 11.367188 L 167.253906 11.367188 C 167 11.367188 166.21875 11.367188 166.21875 10.410156 C 166.21875 10.019531 166.296875 9.902344 166.414062 9.746094 C 166.707031 9.960938 167.292969 10.273438 168.015625 10.273438 C 169.558594 10.273438 170.828125 9.003906 170.828125 7.363281 C 170.828125 6.71875 170.59375 6.054688 170.222656 5.566406 Z M 168.035156 9.277344 C 167.253906 9.277344 166.453125 8.75 166.453125 7.382812 C 166.453125 5.78125 167.46875 5.46875 168.015625 5.46875 C 168.816406 5.46875 169.597656 5.996094 169.597656 7.363281 C 169.597656 8.964844 168.601562 9.277344 168.035156 9.277344 Z M 168.796875 12.65625 C 169.1875 12.65625 171.160156 12.65625 171.160156 13.886719 C 171.160156 14.707031 169.929688 15.3125 168.523438 15.3125 C 167.117188 15.3125 165.867188 14.746094 165.867188 13.867188 C 165.867188 13.828125 165.867188 12.65625 167.234375 12.65625 Z M 168.796875 12.65625 "/>
<path style=" stroke:none;fill-rule:nonzero;fill:rgb(0%,0%,0%);fill-opacity:1;" d="M 175.8125 0.449219 L 174.269531 0.449219 L 174.269531 1.992188 L 175.8125 1.992188 Z M 175.714844 4.648438 L 174.386719 4.648438 L 174.386719 12.617188 L 175.714844 12.617188 Z M 175.714844 4.648438 "/>
<path style=" stroke:none;fill-rule:nonzero;fill:rgb(0%,0%,0%);fill-opacity:1;" d="M 185.402344 8.671875 C 185.402344 6.25 183.625 4.394531 181.574219 4.394531 C 179.464844 4.394531 177.726562 6.289062 177.726562 8.671875 C 177.726562 11.015625 179.503906 12.792969 181.554688 12.792969 C 183.664062 12.792969 185.402344 10.976562 185.402344 8.671875 Z M 181.574219 11.679688 C 180.285156 11.679688 179.074219 10.605469 179.074219 8.496094 C 179.074219 6.328125 180.421875 5.46875 181.554688 5.46875 C 182.785156 5.46875 184.054688 6.386719 184.054688 8.496094 C 184.054688 10.703125 182.765625 11.679688 181.574219 11.679688 Z M 181.574219 11.679688 "/>
<path style=" stroke:none;fill-rule:nonzero;fill:rgb(0%,0%,0%);fill-opacity:1;" d="M 193.625 7.226562 C 193.625 6.132812 193.390625 4.472656 191.222656 4.472656 C 190.226562 4.472656 189.367188 4.921875 188.683594 5.78125 L 188.683594 4.570312 L 187.414062 4.570312 L 187.414062 12.617188 L 188.761719 12.617188 L 188.761719 8.144531 C 188.761719 7.050781 189.191406 5.546875 190.539062 5.546875 C 192.21875 5.546875 192.257812 6.71875 192.257812 7.34375 L 192.257812 12.617188 L 193.625 12.617188 Z M 193.625 7.226562 "/>
<path style=" stroke:none;fill-rule:nonzero;fill:rgb(0%,0%,0%);fill-opacity:1;" d="M 21.007812 40.261719 C 21.007812 39.539062 21.476562 38.386719 23.429688 38.269531 C 23.507812 38.25 23.585938 38.171875 23.585938 38.074219 C 23.585938 37.878906 23.449219 37.878906 23.253906 37.878906 C 21.457031 37.878906 19.816406 38.777344 19.796875 40.105469 L 19.796875 44.207031 C 19.796875 44.890625 19.796875 45.476562 19.09375 46.0625 C 18.449219 46.589844 17.785156 46.609375 17.375 46.628906 C 17.296875 46.648438 17.21875 46.726562 17.21875 46.84375 C 17.21875 47.019531 17.335938 47.019531 17.511719 47.039062 C 18.683594 47.097656 19.542969 47.742188 19.757812 48.621094 C 19.796875 48.816406 19.796875 48.855469 19.796875 49.5 L 19.796875 53.054688 C 19.796875 53.816406 19.796875 54.382812 20.65625 55.066406 C 21.359375 55.59375 22.550781 55.789062 23.253906 55.789062 C 23.449219 55.789062 23.585938 55.789062 23.585938 55.59375 C 23.585938 55.417969 23.46875 55.417969 23.292969 55.398438 C 22.160156 55.339844 21.28125 54.753906 21.066406 53.835938 C 21.007812 53.679688 21.007812 53.640625 21.007812 52.996094 L 21.007812 49.246094 C 21.007812 48.40625 20.851562 48.113281 20.285156 47.527344 C 19.914062 47.15625 19.386719 46.980469 18.878906 46.84375 C 20.363281 46.414062 21.007812 45.59375 21.007812 44.558594 Z M 21.007812 40.261719 "/>
<path style=" stroke:none;fill-rule:nonzero;fill:rgb(0%,0%,0%);fill-opacity:1;" d="M 30.75 55.671875 C 30.75 55.613281 30.75 55.574219 30.457031 55.28125 C 28.660156 53.464844 27.664062 50.515625 27.664062 46.84375 C 27.664062 43.367188 28.503906 40.378906 30.574219 38.269531 C 30.75 38.09375 30.75 38.074219 30.75 38.015625 C 30.75 37.898438 30.671875 37.878906 30.59375 37.878906 C 30.359375 37.878906 28.894531 39.167969 28.015625 40.925781 C 27.097656 42.722656 26.6875 44.65625 26.6875 46.84375 C 26.6875 48.445312 26.941406 50.574219 27.878906 52.507812 C 28.933594 54.65625 30.398438 55.808594 30.59375 55.808594 C 30.671875 55.808594 30.75 55.789062 30.75 55.671875 Z M 30.75 55.671875 "/>
<path style=" stroke:none;fill-rule:nonzero;fill:rgb(0%,0%,0%);fill-opacity:1;" d="M 40.324219 43.992188 C 39.757812 44.109375 39.542969 44.539062 39.542969 44.871094 C 39.542969 45.300781 39.875 45.457031 40.128906 45.457031 C 40.675781 45.457031 41.046875 44.988281 41.046875 44.5 C 41.046875 43.757812 40.1875 43.40625 39.425781 43.40625 C 38.332031 43.40625 37.726562 44.480469 37.570312 44.832031 C 37.160156 43.484375 36.046875 43.40625 35.714844 43.40625 C 33.898438 43.40625 32.921875 45.75 32.921875 46.160156 C 32.921875 46.21875 33 46.316406 33.117188 46.316406 C 33.253906 46.316406 33.292969 46.199219 33.332031 46.140625 C 33.9375 44.148438 35.148438 43.777344 35.65625 43.777344 C 36.476562 43.777344 36.632812 44.519531 36.632812 44.949219 C 36.632812 45.339844 36.535156 45.75 36.300781 46.609375 L 35.695312 49.070312 C 35.441406 50.144531 34.914062 51.140625 33.957031 51.140625 C 33.878906 51.140625 33.429688 51.140625 33.039062 50.90625 C 33.683594 50.769531 33.839844 50.242188 33.839844 50.027344 C 33.839844 49.675781 33.566406 49.460938 33.234375 49.460938 C 32.804688 49.460938 32.335938 49.832031 32.335938 50.398438 C 32.335938 51.160156 33.175781 51.492188 33.9375 51.492188 C 34.796875 51.492188 35.421875 50.808594 35.792969 50.085938 C 36.085938 51.140625 36.964844 51.492188 37.628906 51.492188 C 39.464844 51.492188 40.441406 49.148438 40.441406 48.757812 C 40.441406 48.660156 40.363281 48.582031 40.246094 48.582031 C 40.089844 48.582031 40.070312 48.679688 40.03125 48.816406 C 39.542969 50.398438 38.488281 51.140625 37.6875 51.140625 C 37.0625 51.140625 36.730469 50.671875 36.730469 49.929688 C 36.730469 49.539062 36.789062 49.246094 37.082031 48.074219 L 37.707031 45.632812 C 37.980469 44.558594 38.585938 43.777344 39.40625 43.777344 C 39.445312 43.777344 39.953125 43.777344 40.324219 43.992188 Z M 40.324219 43.992188 "/>
<path style=" stroke:none;fill-rule:nonzero;fill:rgb(0%,0%,0%);fill-opacity:1;" d="M 45.375 51.394531 C 45.375 50.339844 45.042969 49.578125 44.300781 49.578125 C 43.734375 49.578125 43.441406 50.046875 43.441406 50.4375 C 43.441406 50.828125 43.714844 51.316406 44.320312 51.316406 C 44.554688 51.316406 44.75 51.238281 44.90625 51.082031 C 44.945312 51.042969 44.964844 51.042969 44.984375 51.042969 C 45.023438 51.042969 45.023438 51.296875 45.023438 51.394531 C 45.023438 51.980469 44.90625 53.152344 43.871094 54.304688 C 43.675781 54.519531 43.675781 54.558594 43.675781 54.597656 C 43.675781 54.695312 43.753906 54.773438 43.851562 54.773438 C 43.988281 54.773438 45.375 53.445312 45.375 51.394531 Z M 45.375 51.394531 "/>
<path style=" stroke:none;fill-rule:nonzero;fill:rgb(0%,0%,0%);fill-opacity:1;" d="M 54.535156 53.328125 C 54.066406 54.011719 53.363281 54.617188 52.484375 54.617188 C 52.269531 54.617188 51.410156 54.578125 51.136719 53.757812 C 51.195312 53.777344 51.273438 53.777344 51.3125 53.777344 C 51.859375 53.777344 52.210938 53.308594 52.210938 52.898438 C 52.210938 52.488281 51.878906 52.332031 51.605469 52.332031 C 51.3125 52.332031 50.6875 52.546875 50.6875 53.425781 C 50.6875 54.34375 51.46875 54.96875 52.484375 54.96875 C 54.28125 54.96875 56.078125 53.328125 56.585938 51.335938 L 58.34375 44.34375 C 58.363281 44.246094 58.402344 44.148438 58.402344 44.03125 C 58.402344 43.777344 58.1875 43.582031 57.914062 43.582031 C 57.757812 43.582031 57.367188 43.660156 57.230469 44.207031 L 55.902344 49.460938 C 55.824219 49.792969 55.824219 49.832031 55.667969 50.027344 C 55.316406 50.535156 54.730469 51.140625 53.871094 51.140625 C 52.855469 51.140625 52.777344 50.144531 52.777344 49.675781 C 52.777344 48.640625 53.246094 47.273438 53.734375 45.964844 C 53.929688 45.457031 54.046875 45.203125 54.046875 44.851562 C 54.046875 44.089844 53.5 43.40625 52.621094 43.40625 C 50.980469 43.40625 50.316406 46.003906 50.316406 46.160156 C 50.316406 46.21875 50.375 46.316406 50.511719 46.316406 C 50.667969 46.316406 50.6875 46.238281 50.765625 45.984375 C 51.195312 44.480469 51.878906 43.777344 52.5625 43.777344 C 52.738281 43.777344 53.03125 43.777344 53.03125 44.363281 C 53.03125 44.832031 52.835938 45.339844 52.5625 46.023438 C 51.683594 48.367188 51.683594 48.972656 51.683594 49.402344 C 51.683594 51.101562 52.914062 51.492188 53.8125 51.492188 C 54.320312 51.492188 54.964844 51.335938 55.609375 50.671875 L 55.628906 50.691406 C 55.355469 51.746094 55.179688 52.449219 54.535156 53.328125 Z M 54.535156 53.328125 "/>
<path style=" stroke:none;fill-rule:nonzero;fill:rgb(0%,0%,0%);fill-opacity:1;" d="M 64.039062 46.84375 C 64.039062 45.496094 63.863281 43.269531 62.847656 41.179688 C 61.792969 39.03125 60.328125 37.878906 60.132812 37.878906 C 60.054688 37.878906 59.957031 37.898438 59.957031 38.015625 C 59.957031 38.074219 59.957031 38.09375 60.269531 38.40625 C 62.066406 40.222656 63.0625 43.171875 63.0625 46.84375 C 63.0625 50.320312 62.222656 53.308594 60.152344 55.417969 C 59.957031 55.574219 59.957031 55.613281 59.957031 55.671875 C 59.957031 55.789062 60.054688 55.808594 60.132812 55.808594 C 60.367188 55.808594 61.832031 54.519531 62.710938 52.761719 C 63.628906 50.945312 64.039062 49.011719 64.039062 46.84375 Z M 64.039062 46.84375 "/>
<path style=" stroke:none;fill-rule:nonzero;fill:rgb(0%,0%,0%);fill-opacity:1;" d="M 73.980469 44.441406 C 73.980469 43.972656 73.570312 43.582031 73.121094 43.582031 C 72.59375 43.582031 72.242188 43.992188 72.242188 44.441406 C 72.242188 44.988281 72.691406 45.320312 73.101562 45.320312 C 73.589844 45.320312 73.980469 44.949219 73.980469 44.441406 Z M 73.980469 50.4375 C 73.980469 49.949219 73.570312 49.578125 73.121094 49.578125 C 72.59375 49.578125 72.242188 49.988281 72.242188 50.4375 C 72.242188 50.984375 72.691406 51.316406 73.101562 51.316406 C 73.589844 51.316406 73.980469 50.945312 73.980469 50.4375 Z M 73.980469 50.4375 "/>
<path style=" stroke:none;fill-rule:nonzero;fill:rgb(0%,0%,0%);fill-opacity:1;" d="M 88.925781 43.992188 C 88.359375 44.109375 88.144531 44.539062 88.144531 44.871094 C 88.144531 45.300781 88.476562 45.457031 88.730469 45.457031 C 89.277344 45.457031 89.648438 44.988281 89.648438 44.5 C 89.648438 43.757812 88.789062 43.40625 88.027344 43.40625 C 86.933594 43.40625 86.328125 44.480469 86.171875 44.832031 C 85.761719 43.484375 84.648438 43.40625 84.316406 43.40625 C 82.5 43.40625 81.523438 45.75 81.523438 46.160156 C 81.523438 46.21875 81.601562 46.316406 81.71875 46.316406 C 81.855469 46.316406 81.894531 46.199219 81.933594 46.140625 C 82.539062 44.148438 83.75 43.777344 84.257812 43.777344 C 85.078125 43.777344 85.234375 44.519531 85.234375 44.949219 C 85.234375 45.339844 85.136719 45.75 84.902344 46.609375 L 84.296875 49.070312 C 84.042969 50.144531 83.515625 51.140625 82.558594 51.140625 C 82.480469 51.140625 82.03125 51.140625 81.640625 50.90625 C 82.285156 50.769531 82.441406 50.242188 82.441406 50.027344 C 82.441406 49.675781 82.167969 49.460938 81.835938 49.460938 C 81.40625 49.460938 80.9375 49.832031 80.9375 50.398438 C 80.9375 51.160156 81.777344 51.492188 82.539062 51.492188 C 83.398438 51.492188 84.023438 50.808594 84.394531 50.085938 C 84.6875 51.140625 85.566406 51.492188 86.230469 51.492188 C 88.066406 51.492188 89.042969 49.148438 89.042969 48.757812 C 89.042969 48.660156 88.964844 48.582031 88.847656 48.582031 C 88.691406 48.582031 88.671875 48.679688 88.632812 48.816406 C 88.144531 50.398438 87.089844 51.140625 86.289062 51.140625 C 85.664062 51.140625 85.332031 50.671875 85.332031 49.929688 C 85.332031 49.539062 85.390625 49.246094 85.683594 48.074219 L 86.308594 45.632812 C 86.582031 44.558594 87.1875 43.777344 88.007812 43.777344 C 88.046875 43.777344 88.554688 43.777344 88.925781 43.992188 Z M 88.925781 43.992188 "/>
<path style=" stroke:none;fill-rule:nonzero;fill:rgb(0%,0%,0%);fill-opacity:1;" d="M 92.0625 42.859375 L 93.390625 41.570312 C 95.324219 39.851562 96.066406 39.1875 96.066406 37.9375 C 96.066406 36.511719 94.953125 35.515625 93.429688 35.515625 C 92.023438 35.515625 91.105469 36.667969 91.105469 37.78125 C 91.105469 38.464844 91.730469 38.464844 91.769531 38.464844 C 91.984375 38.464844 92.414062 38.328125 92.414062 37.800781 C 92.414062 37.488281 92.179688 37.15625 91.75 37.15625 C 91.652344 37.15625 91.632812 37.15625 91.59375 37.175781 C 91.867188 36.355469 92.550781 35.90625 93.273438 35.90625 C 94.40625 35.90625 94.933594 36.921875 94.933594 37.9375 C 94.933594 38.933594 94.328125 39.910156 93.625 40.691406 L 91.242188 43.347656 C 91.105469 43.484375 91.105469 43.523438 91.105469 43.816406 L 95.734375 43.816406 L 96.066406 41.648438 L 95.773438 41.648438 C 95.695312 42.019531 95.617188 42.566406 95.480469 42.761719 C 95.402344 42.859375 94.582031 42.859375 94.308594 42.859375 Z M 92.0625 42.859375 "/>
<path style=" stroke:none;fill-rule:nonzero;fill:rgb(0%,0%,0%);fill-opacity:1;" d="M 108.425781 47.175781 L 113.386719 47.175781 C 113.640625 47.175781 113.953125 47.175781 113.953125 46.84375 C 113.953125 46.511719 113.640625 46.511719 113.386719 46.511719 L 108.425781 46.511719 L 108.425781 41.570312 C 108.425781 41.316406 108.425781 40.984375 108.113281 40.984375 C 107.761719 40.984375 107.761719 41.296875 107.761719 41.570312 L 107.761719 46.511719 L 102.820312 46.511719 C 102.566406 46.511719 102.253906 46.511719 102.253906 46.84375 C 102.253906 47.175781 102.546875 47.175781 102.820312 47.175781 L 107.761719 47.175781 L 107.761719 52.117188 C 107.761719 52.371094 107.761719 52.703125 108.09375 52.703125 C 108.425781 52.703125 108.425781 52.390625 108.425781 52.117188 Z M 108.425781 47.175781 "/>
<path style=" stroke:none;fill-rule:nonzero;fill:rgb(0%,0%,0%);fill-opacity:1;" d="M 123.6875 53.328125 C 123.21875 54.011719 122.515625 54.617188 121.636719 54.617188 C 121.421875 54.617188 120.5625 54.578125 120.289062 53.757812 C 120.347656 53.777344 120.425781 53.777344 120.464844 53.777344 C 121.011719 53.777344 121.363281 53.308594 121.363281 52.898438 C 121.363281 52.488281 121.03125 52.332031 120.757812 52.332031 C 120.464844 52.332031 119.839844 52.546875 119.839844 53.425781 C 119.839844 54.34375 120.621094 54.96875 121.636719 54.96875 C 123.433594 54.96875 125.230469 53.328125 125.738281 51.335938 L 127.496094 44.34375 C 127.515625 44.246094 127.554688 44.148438 127.554688 44.03125 C 127.554688 43.777344 127.339844 43.582031 127.066406 43.582031 C 126.910156 43.582031 126.519531 43.660156 126.382812 44.207031 L 125.054688 49.460938 C 124.976562 49.792969 124.976562 49.832031 124.820312 50.027344 C 124.46875 50.535156 123.882812 51.140625 123.023438 51.140625 C 122.007812 51.140625 121.929688 50.144531 121.929688 49.675781 C 121.929688 48.640625 122.398438 47.273438 122.886719 45.964844 C 123.082031 45.457031 123.199219 45.203125 123.199219 44.851562 C 123.199219 44.089844 122.652344 43.40625 121.773438 43.40625 C 120.132812 43.40625 119.46875 46.003906 119.46875 46.160156 C 119.46875 46.21875 119.527344 46.316406 119.664062 46.316406 C 119.820312 46.316406 119.839844 46.238281 119.917969 45.984375 C 120.347656 44.480469 121.03125 43.777344 121.714844 43.777344 C 121.890625 43.777344 122.183594 43.777344 122.183594 44.363281 C 122.183594 44.832031 121.988281 45.339844 121.714844 46.023438 C 120.835938 48.367188 120.835938 48.972656 120.835938 49.402344 C 120.835938 51.101562 122.066406 51.492188 122.964844 51.492188 C 123.472656 51.492188 124.117188 51.335938 124.761719 50.671875 L 124.78125 50.691406 C 124.507812 51.746094 124.332031 52.449219 123.6875 53.328125 Z M 123.6875 53.328125 "/>
<path style=" stroke:none;fill-rule:nonzero;fill:rgb(0%,0%,0%);fill-opacity:1;" d="M 129.710938 42.859375 L 131.039062 41.570312 C 132.972656 39.851562 133.714844 39.1875 133.714844 37.9375 C 133.714844 36.511719 132.601562 35.515625 131.078125 35.515625 C 129.671875 35.515625 128.753906 36.667969 128.753906 37.78125 C 128.753906 38.464844 129.378906 38.464844 129.417969 38.464844 C 129.632812 38.464844 130.0625 38.328125 130.0625 37.800781 C 130.0625 37.488281 129.828125 37.15625 129.398438 37.15625 C 129.300781 37.15625 129.28125 37.15625 129.242188 37.175781 C 129.515625 36.355469 130.199219 35.90625 130.921875 35.90625 C 132.054688 35.90625 132.582031 36.921875 132.582031 37.9375 C 132.582031 38.933594 131.976562 39.910156 131.273438 40.691406 L 128.890625 43.347656 C 128.753906 43.484375 128.753906 43.523438 128.753906 43.816406 L 133.382812 43.816406 L 133.714844 41.648438 L 133.421875 41.648438 C 133.34375 42.019531 133.265625 42.566406 133.128906 42.761719 C 133.050781 42.859375 132.230469 42.859375 131.957031 42.859375 Z M 129.710938 42.859375 "/>
<path style=" stroke:none;fill-rule:nonzero;fill:rgb(0%,0%,0%);fill-opacity:1;" d="M 152.089844 40.671875 C 152.285156 40.574219 152.421875 40.496094 152.421875 40.28125 C 152.421875 40.066406 152.285156 39.910156 152.070312 39.910156 C 151.972656 39.910156 151.816406 39.988281 151.738281 40.027344 L 141.835938 44.695312 C 141.523438 44.851562 141.464844 44.96875 141.464844 45.105469 C 141.464844 45.28125 141.582031 45.398438 141.835938 45.515625 L 151.738281 50.164062 C 151.972656 50.300781 152.011719 50.300781 152.070312 50.300781 C 152.265625 50.300781 152.421875 50.125 152.421875 49.929688 C 152.421875 49.773438 152.34375 49.675781 152.050781 49.519531 L 142.675781 45.105469 Z M 151.796875 53.777344 C 152.109375 53.777344 152.421875 53.777344 152.421875 53.40625 C 152.421875 53.054688 152.050781 53.054688 151.777344 53.054688 L 142.109375 53.054688 C 141.835938 53.054688 141.464844 53.054688 141.464844 53.40625 C 141.464844 53.777344 141.796875 53.777344 142.089844 53.777344 Z M 151.796875 53.777344 "/>
<path style=" stroke:none;fill-rule:nonzero;fill:rgb(0%,0%,0%);fill-opacity:1;" d="M 165.34375 39.636719 C 165.34375 39.304688 165.34375 39.207031 165.109375 39.207031 C 164.953125 39.207031 164.894531 39.207031 164.757812 39.421875 L 159.367188 47.800781 L 159.367188 48.328125 L 164.074219 48.328125 L 164.074219 49.949219 C 164.074219 50.613281 164.035156 50.789062 162.726562 50.789062 L 162.375 50.789062 L 162.375 51.316406 C 162.785156 51.277344 164.210938 51.277344 164.699219 51.277344 C 165.207031 51.277344 166.632812 51.277344 167.0625 51.316406 L 167.0625 50.789062 L 166.691406 50.789062 C 165.402344 50.789062 165.34375 50.613281 165.34375 49.949219 L 165.34375 48.328125 L 167.160156 48.328125 L 167.160156 47.800781 L 165.34375 47.800781 Z M 164.171875 41.042969 L 164.171875 47.800781 L 159.816406 47.800781 Z M 164.171875 41.042969 "/>
<path style=" stroke:none;fill-rule:nonzero;fill:rgb(0%,0%,0%);fill-opacity:1;" d="M 171.226562 51.394531 C 171.226562 50.339844 170.894531 49.578125 170.152344 49.578125 C 169.585938 49.578125 169.292969 50.046875 169.292969 50.4375 C 169.292969 50.828125 169.566406 51.316406 170.171875 51.316406 C 170.40625 51.316406 170.601562 51.238281 170.757812 51.082031 C 170.796875 51.042969 170.816406 51.042969 170.835938 51.042969 C 170.875 51.042969 170.875 51.296875 170.875 51.394531 C 170.875 51.980469 170.757812 53.152344 169.722656 54.304688 C 169.527344 54.519531 169.527344 54.558594 169.527344 54.597656 C 169.527344 54.695312 169.605469 54.773438 169.703125 54.773438 C 169.839844 54.773438 171.226562 53.445312 171.226562 51.394531 Z M 171.226562 51.394531 "/>
<path style=" stroke:none;fill-rule:nonzero;fill:rgb(0%,0%,0%);fill-opacity:1;" d="M 184.175781 43.992188 C 183.609375 44.109375 183.394531 44.539062 183.394531 44.871094 C 183.394531 45.300781 183.726562 45.457031 183.980469 45.457031 C 184.527344 45.457031 184.898438 44.988281 184.898438 44.5 C 184.898438 43.757812 184.039062 43.40625 183.277344 43.40625 C 182.183594 43.40625 181.578125 44.480469 181.421875 44.832031 C 181.011719 43.484375 179.898438 43.40625 179.566406 43.40625 C 177.75 43.40625 176.773438 45.75 176.773438 46.160156 C 176.773438 46.21875 176.851562 46.316406 176.96875 46.316406 C 177.105469 46.316406 177.144531 46.199219 177.183594 46.140625 C 177.789062 44.148438 179 43.777344 179.507812 43.777344 C 180.328125 43.777344 180.484375 44.519531 180.484375 44.949219 C 180.484375 45.339844 180.386719 45.75 180.152344 46.609375 L 179.546875 49.070312 C 179.292969 50.144531 178.765625 51.140625 177.808594 51.140625 C 177.730469 51.140625 177.28125 51.140625 176.890625 50.90625 C 177.535156 50.769531 177.691406 50.242188 177.691406 50.027344 C 177.691406 49.675781 177.417969 49.460938 177.085938 49.460938 C 176.65625 49.460938 176.1875 49.832031 176.1875 50.398438 C 176.1875 51.160156 177.027344 51.492188 177.789062 51.492188 C 178.648438 51.492188 179.273438 50.808594 179.644531 50.085938 C 179.9375 51.140625 180.816406 51.492188 181.480469 51.492188 C 183.316406 51.492188 184.292969 49.148438 184.292969 48.757812 C 184.292969 48.660156 184.214844 48.582031 184.097656 48.582031 C 183.941406 48.582031 183.921875 48.679688 183.882812 48.816406 C 183.394531 50.398438 182.339844 51.140625 181.539062 51.140625 C 180.914062 51.140625 180.582031 50.671875 180.582031 49.929688 C 180.582031 49.539062 180.640625 49.246094 180.933594 48.074219 L 181.558594 45.632812 C 181.832031 44.558594 182.4375 43.777344 183.257812 43.777344 C 183.296875 43.777344 183.804688 43.777344 184.175781 43.992188 Z M 184.175781 43.992188 "/>
<path style=" stroke:none;fill-rule:nonzero;fill:rgb(0%,0%,0%);fill-opacity:1;" d="M 196.628906 47.175781 L 201.589844 47.175781 C 201.84375 47.175781 202.15625 47.175781 202.15625 46.84375 C 202.15625 46.511719 201.84375 46.511719 201.589844 46.511719 L 196.628906 46.511719 L 196.628906 41.570312 C 196.628906 41.316406 196.628906 40.984375 196.316406 40.984375 C 195.964844 40.984375 195.964844 41.296875 195.964844 41.570312 L 195.964844 46.511719 L 191.023438 46.511719 C 190.769531 46.511719 190.457031 46.511719 190.457031 46.84375 C 190.457031 47.175781 190.75 47.175781 191.023438 47.175781 L 195.964844 47.175781 L 195.964844 52.117188 C 195.964844 52.371094 195.964844 52.703125 196.296875 52.703125 C 196.628906 52.703125 196.628906 52.390625 196.628906 52.117188 Z M 196.628906 47.175781 "/>
<path style=" stroke:none;fill-rule:nonzero;fill:rgb(0%,0%,0%);fill-opacity:1;" d="M 211.886719 53.328125 C 211.417969 54.011719 210.714844 54.617188 209.835938 54.617188 C 209.621094 54.617188 208.761719 54.578125 208.488281 53.757812 C 208.546875 53.777344 208.625 53.777344 208.664062 53.777344 C 209.210938 53.777344 209.5625 53.308594 209.5625 52.898438 C 209.5625 52.488281 209.230469 52.332031 208.957031 52.332031 C 208.664062 52.332031 208.039062 52.546875 208.039062 53.425781 C 208.039062 54.34375 208.820312 54.96875 209.835938 54.96875 C 211.632812 54.96875 213.429688 53.328125 213.9375 51.335938 L 215.695312 44.34375 C 215.714844 44.246094 215.753906 44.148438 215.753906 44.03125 C 215.753906 43.777344 215.539062 43.582031 215.265625 43.582031 C 215.109375 43.582031 214.71875 43.660156 214.582031 44.207031 L 213.253906 49.460938 C 213.175781 49.792969 213.175781 49.832031 213.019531 50.027344 C 212.667969 50.535156 212.082031 51.140625 211.222656 51.140625 C 210.207031 51.140625 210.128906 50.144531 210.128906 49.675781 C 210.128906 48.640625 210.597656 47.273438 211.085938 45.964844 C 211.28125 45.457031 211.398438 45.203125 211.398438 44.851562 C 211.398438 44.089844 210.851562 43.40625 209.972656 43.40625 C 208.332031 43.40625 207.667969 46.003906 207.667969 46.160156 C 207.667969 46.21875 207.726562 46.316406 207.863281 46.316406 C 208.019531 46.316406 208.039062 46.238281 208.117188 45.984375 C 208.546875 44.480469 209.230469 43.777344 209.914062 43.777344 C 210.089844 43.777344 210.382812 43.777344 210.382812 44.363281 C 210.382812 44.832031 210.1875 45.339844 209.914062 46.023438 C 209.035156 48.367188 209.035156 48.972656 209.035156 49.402344 C 209.035156 51.101562 210.265625 51.492188 211.164062 51.492188 C 211.671875 51.492188 212.316406 51.335938 212.960938 50.671875 L 212.980469 50.691406 C 212.707031 51.746094 212.53125 52.449219 211.886719 53.328125 Z M 211.886719 53.328125 "/>
<path style=" stroke:none;fill-rule:nonzero;fill:rgb(0%,0%,0%);fill-opacity:1;" d="M 233.371094 45.515625 C 233.625 45.398438 233.722656 45.28125 233.722656 45.105469 C 233.722656 44.929688 233.644531 44.832031 233.371094 44.695312 L 223.488281 40.046875 C 223.234375 39.910156 223.15625 39.910156 223.136719 39.910156 C 222.921875 39.910156 222.765625 40.066406 222.765625 40.28125 C 222.765625 40.496094 222.921875 40.574219 223.117188 40.671875 L 232.53125 45.085938 L 223.136719 49.519531 C 222.785156 49.675781 222.765625 49.832031 222.765625 49.929688 C 222.765625 50.125 222.921875 50.300781 223.136719 50.300781 C 223.175781 50.300781 223.214844 50.300781 223.449219 50.164062 Z M 233.097656 53.777344 C 233.410156 53.777344 233.722656 53.777344 233.722656 53.40625 C 233.722656 53.054688 233.351562 53.054688 233.078125 53.054688 L 223.410156 53.054688 C 223.136719 53.054688 222.765625 53.054688 222.765625 53.40625 C 222.765625 53.777344 223.097656 53.777344 223.390625 53.777344 Z M 233.097656 53.777344 "/>
<path style=" stroke:none;fill-rule:nonzero;fill:rgb(0%,0%,0%);fill-opacity:1;" d="M 248.21875 48.308594 L 247.828125 48.308594 C 247.769531 48.601562 247.632812 49.597656 247.4375 49.890625 C 247.320312 50.046875 246.304688 50.046875 245.757812 50.046875 L 242.4375 50.046875 C 242.925781 49.636719 244.019531 48.484375 244.488281 48.054688 C 247.222656 45.535156 248.21875 44.617188 248.21875 42.839844 C 248.21875 40.769531 246.578125 39.402344 244.507812 39.402344 C 242.417969 39.402344 241.207031 41.160156 241.207031 42.703125 C 241.207031 43.621094 241.988281 43.621094 242.046875 43.621094 C 242.417969 43.621094 242.886719 43.347656 242.886719 42.78125 C 242.886719 42.273438 242.554688 41.941406 242.046875 41.941406 C 241.890625 41.941406 241.851562 41.941406 241.792969 41.960938 C 242.144531 40.730469 243.101562 39.910156 244.273438 39.910156 C 245.796875 39.910156 246.734375 41.179688 246.734375 42.839844 C 246.734375 44.363281 245.855469 45.691406 244.820312 46.84375 L 241.207031 50.886719 L 241.207031 51.316406 L 247.75 51.316406 Z M 248.21875 48.308594 "/>
<path style=" stroke:none;fill-rule:nonzero;fill:rgb(0%,0%,0%);fill-opacity:1;" d="M 253.046875 53.40625 C 253.046875 54.128906 252.578125 55.28125 250.625 55.398438 C 250.546875 55.417969 250.46875 55.496094 250.46875 55.59375 C 250.46875 55.789062 250.664062 55.789062 250.820312 55.789062 C 252.578125 55.789062 254.238281 54.929688 254.257812 53.5625 L 254.257812 49.460938 C 254.257812 48.777344 254.257812 48.191406 254.980469 47.605469 C 255.605469 47.078125 256.289062 47.058594 256.679688 47.039062 C 256.757812 47.019531 256.835938 46.941406 256.835938 46.84375 C 256.835938 46.648438 256.71875 46.648438 256.542969 46.628906 C 255.371094 46.570312 254.511719 45.925781 254.316406 45.046875 C 254.257812 44.851562 254.257812 44.8125 254.257812 44.167969 L 254.257812 40.613281 C 254.257812 39.851562 254.257812 39.285156 253.398438 38.601562 C 252.675781 38.054688 251.445312 37.878906 250.820312 37.878906 C 250.664062 37.878906 250.46875 37.878906 250.46875 38.074219 C 250.46875 38.25 250.585938 38.25 250.761719 38.269531 C 251.894531 38.328125 252.773438 38.914062 253.007812 39.832031 C 253.046875 39.988281 253.046875 40.027344 253.046875 40.671875 L 253.046875 44.421875 C 253.046875 45.261719 253.203125 45.554688 253.769531 46.140625 C 254.140625 46.511719 254.667969 46.6875 255.175781 46.84375 C 253.691406 47.253906 253.046875 48.074219 253.046875 49.109375 Z M 253.046875 53.40625 "/>
</g>
</svg>
