<?xml version="1.0" encoding="UTF-8"?>
<svg xmlns="http://www.w3.org/2000/svg" xmlns:xlink="http://www.w3.org/1999/xlink" width="275.85089pt" height="68.606424pt" viewBox="0 0 275.85089 68.606424" version="1.1">
<g id="surface1">
<path style=" stroke:none;fill-rule:nonzero;fill:rgb(0%,0%,0%);fill-opacity:1;" d="M 6.132812 1.191406 L 7.714844 1.191406 C 7.929688 1.191406 8.144531 1.210938 8.359375 1.210938 L 10.703125 1.210938 L 10.703125 0.078125 L 0 0.078125 L 0 1.210938 L 2.363281 1.210938 C 2.578125 1.210938 2.792969 1.191406 3.007812 1.191406 L 4.589844 1.191406 L 4.589844 12.441406 L 6.132812 12.441406 Z M 6.132812 1.191406 "/>
<path style=" stroke:none;fill-rule:nonzero;fill:rgb(0%,0%,0%);fill-opacity:1;" d="M 18.972656 7.050781 C 18.972656 5.957031 18.738281 4.296875 16.570312 4.296875 C 15.339844 4.296875 14.519531 5 14.089844 5.546875 L 14.089844 0 L 12.761719 0 L 12.761719 12.441406 L 14.109375 12.441406 L 14.109375 7.96875 C 14.109375 6.875 14.539062 5.371094 15.886719 5.371094 C 17.566406 5.371094 17.605469 6.542969 17.605469 7.167969 L 17.605469 12.441406 L 18.972656 12.441406 Z M 18.972656 7.050781 "/>
<path style=" stroke:none;fill-rule:nonzero;fill:rgb(0%,0%,0%);fill-opacity:1;" d="M 27.679688 8.398438 C 27.679688 7.636719 27.601562 6.542969 27.035156 5.585938 C 26.292969 4.355469 25.042969 4.21875 24.515625 4.21875 C 22.582031 4.21875 20.960938 6.074219 20.960938 8.398438 C 20.960938 10.78125 22.679688 12.617188 24.769531 12.617188 C 25.589844 12.617188 26.585938 12.382812 27.5625 11.679688 C 27.5625 11.601562 27.503906 11.035156 27.503906 11.015625 C 27.484375 10.996094 27.464844 10.585938 27.464844 10.527344 C 26.390625 11.425781 25.335938 11.542969 24.808594 11.542969 C 23.421875 11.542969 22.230469 10.3125 22.210938 8.398438 Z M 22.308594 7.441406 C 22.621094 6.230469 23.460938 5.292969 24.515625 5.292969 C 25.082031 5.292969 26.3125 5.546875 26.605469 7.441406 Z M 22.308594 7.441406 "/>
<path style=" stroke:none;fill-rule:nonzero;fill:rgb(0%,0%,0%);fill-opacity:1;" d="M 36.757812 8.515625 C 36.757812 6.699219 38.105469 5.527344 39.726562 5.507812 L 39.726562 4.296875 C 38.085938 4.316406 37.148438 5.273438 36.660156 5.976562 L 36.660156 4.394531 L 35.429688 4.394531 L 35.429688 12.441406 L 36.757812 12.441406 Z M 36.757812 8.515625 "/>
<path style=" stroke:none;fill-rule:nonzero;fill:rgb(0%,0%,0%);fill-opacity:1;" d="M 47.328125 8.398438 C 47.328125 7.636719 47.25 6.542969 46.683594 5.585938 C 45.941406 4.355469 44.691406 4.21875 44.164062 4.21875 C 42.230469 4.21875 40.609375 6.074219 40.609375 8.398438 C 40.609375 10.78125 42.328125 12.617188 44.417969 12.617188 C 45.238281 12.617188 46.234375 12.382812 47.210938 11.679688 C 47.210938 11.601562 47.152344 11.035156 47.152344 11.015625 C 47.132812 10.996094 47.113281 10.585938 47.113281 10.527344 C 46.039062 11.425781 44.984375 11.542969 44.457031 11.542969 C 43.070312 11.542969 41.878906 10.3125 41.859375 8.398438 Z M 41.957031 7.441406 C 42.269531 6.230469 43.109375 5.292969 44.164062 5.292969 C 44.730469 5.292969 45.960938 5.546875 46.253906 7.441406 Z M 41.957031 7.441406 "/>
<path style=" stroke:none;fill-rule:nonzero;fill:rgb(0%,0%,0%);fill-opacity:1;" d="M 55.402344 4.296875 L 54.074219 4.296875 L 54.074219 5.449219 C 53.605469 4.902344 52.824219 4.296875 51.730469 4.296875 C 49.972656 4.296875 48.449219 6.074219 48.449219 8.476562 C 48.449219 10.761719 49.777344 12.617188 51.457031 12.617188 C 52.84375 12.617188 53.800781 11.796875 54.054688 11.523438 L 54.054688 15.917969 L 55.402344 15.917969 Z M 54.074219 9.941406 C 54.074219 10.292969 54.074219 10.3125 53.878906 10.585938 C 53.390625 11.308594 52.746094 11.542969 52.21875 11.542969 C 50.871094 11.542969 49.816406 10.136719 49.816406 8.476562 C 49.816406 6.640625 51.105469 5.410156 52.375 5.410156 C 53.527344 5.410156 54.074219 6.582031 54.074219 7.304688 Z M 54.074219 9.941406 "/>
<path style=" stroke:none;fill-rule:nonzero;fill:rgb(0%,0%,0%);fill-opacity:1;" d="M 64.421875 4.472656 L 63.054688 4.472656 L 63.054688 9.609375 C 63.054688 10.976562 62.117188 11.640625 60.945312 11.640625 C 59.695312 11.640625 59.558594 11.171875 59.558594 10.371094 L 59.558594 4.472656 L 58.210938 4.472656 L 58.210938 10.449219 C 58.210938 11.738281 58.621094 12.617188 60.085938 12.617188 C 60.59375 12.617188 62 12.539062 63.09375 11.542969 L 63.09375 12.441406 L 64.421875 12.441406 Z M 64.421875 4.472656 "/>
<path style=" stroke:none;fill-rule:nonzero;fill:rgb(0%,0%,0%);fill-opacity:1;" d="M 68.65625 0.273438 L 67.113281 0.273438 L 67.113281 1.816406 L 68.65625 1.816406 Z M 68.558594 4.472656 L 67.230469 4.472656 L 67.230469 12.441406 L 68.558594 12.441406 Z M 68.558594 4.472656 "/>
<path style=" stroke:none;fill-rule:nonzero;fill:rgb(0%,0%,0%);fill-opacity:1;" d="M 72.757812 8.515625 C 72.757812 6.699219 74.105469 5.527344 75.726562 5.507812 L 75.726562 4.296875 C 74.085938 4.316406 73.148438 5.273438 72.660156 5.976562 L 72.660156 4.394531 L 71.429688 4.394531 L 71.429688 12.441406 L 72.757812 12.441406 Z M 72.757812 8.515625 "/>
<path style=" stroke:none;fill-rule:nonzero;fill:rgb(0%,0%,0%);fill-opacity:1;" d="M 83.328125 8.398438 C 83.328125 7.636719 83.25 6.542969 82.683594 5.585938 C 81.941406 4.355469 80.691406 4.21875 80.164062 4.21875 C 78.230469 4.21875 76.609375 6.074219 76.609375 8.398438 C 76.609375 10.78125 78.328125 12.617188 80.417969 12.617188 C 81.238281 12.617188 82.234375 12.382812 83.210938 11.679688 C 83.210938 11.601562 83.152344 11.035156 83.152344 11.015625 C 83.132812 10.996094 83.113281 10.585938 83.113281 10.527344 C 82.039062 11.425781 80.984375 11.542969 80.457031 11.542969 C 79.070312 11.542969 77.878906 10.3125 77.859375 8.398438 Z M 77.957031 7.441406 C 78.269531 6.230469 79.109375 5.292969 80.164062 5.292969 C 80.730469 5.292969 81.960938 5.546875 82.253906 7.441406 Z M 77.957031 7.441406 "/>
<path style=" stroke:none;fill-rule:nonzero;fill:rgb(0%,0%,0%);fill-opacity:1;" d="M 91.402344 0 L 90.074219 0 L 90.074219 5.234375 C 89.253906 4.550781 88.316406 4.296875 87.554688 4.296875 C 85.855469 4.296875 84.449219 6.132812 84.449219 8.457031 C 84.449219 10.78125 85.777344 12.617188 87.476562 12.617188 C 88.140625 12.617188 89.15625 12.402344 90.054688 11.523438 L 90.054688 12.441406 L 91.402344 12.441406 Z M 90.054688 10.332031 C 89.625 11.09375 88.980469 11.542969 88.199219 11.542969 C 87.105469 11.542969 85.816406 10.703125 85.816406 8.476562 C 85.816406 6.09375 87.339844 5.371094 88.375 5.371094 C 89.078125 5.371094 89.644531 5.742188 90.054688 6.328125 Z M 90.054688 10.332031 "/>
<path style=" stroke:none;fill-rule:nonzero;fill:rgb(0%,0%,0%);fill-opacity:1;" d="M 105.535156 7.1875 C 105.535156 5.46875 104.304688 4.21875 102.625 4.21875 C 101.550781 4.21875 100.75 4.453125 99.871094 4.960938 L 99.96875 6.152344 C 100.769531 5.566406 101.589844 5.253906 102.625 5.253906 C 103.445312 5.253906 104.167969 5.917969 104.167969 7.226562 L 104.167969 7.96875 C 103.367188 7.988281 102.292969 8.046875 101.21875 8.398438 C 100.007812 8.828125 99.304688 9.492188 99.304688 10.371094 C 99.304688 11.171875 99.773438 12.617188 101.296875 12.617188 C 102.292969 12.617188 103.542969 12.324219 104.207031 11.777344 L 104.207031 12.441406 L 105.535156 12.441406 Z M 104.167969 10.039062 C 104.167969 10.390625 104.167969 10.820312 103.582031 11.191406 C 103.09375 11.484375 102.488281 11.542969 102.214844 11.542969 C 101.257812 11.542969 100.59375 11.015625 100.59375 10.371094 C 100.59375 9.140625 103.074219 8.867188 104.167969 8.867188 Z M 104.167969 10.039062 "/>
<path style=" stroke:none;fill-rule:nonzero;fill:rgb(0%,0%,0%);fill-opacity:1;" d="M 109.210938 8.515625 C 109.210938 6.699219 110.558594 5.527344 112.179688 5.507812 L 112.179688 4.296875 C 110.539062 4.316406 109.601562 5.273438 109.113281 5.976562 L 109.113281 4.394531 L 107.882812 4.394531 L 107.882812 12.441406 L 109.210938 12.441406 Z M 109.210938 8.515625 "/>
<path style=" stroke:none;fill-rule:nonzero;fill:rgb(0%,0%,0%);fill-opacity:1;" d="M 119.78125 8.398438 C 119.78125 7.636719 119.703125 6.542969 119.136719 5.585938 C 118.394531 4.355469 117.144531 4.21875 116.617188 4.21875 C 114.683594 4.21875 113.0625 6.074219 113.0625 8.398438 C 113.0625 10.78125 114.78125 12.617188 116.871094 12.617188 C 117.691406 12.617188 118.6875 12.382812 119.664062 11.679688 C 119.664062 11.601562 119.605469 11.035156 119.605469 11.015625 C 119.585938 10.996094 119.566406 10.585938 119.566406 10.527344 C 118.492188 11.425781 117.4375 11.542969 116.910156 11.542969 C 115.523438 11.542969 114.332031 10.3125 114.3125 8.398438 Z M 114.410156 7.441406 C 114.722656 6.230469 115.5625 5.292969 116.617188 5.292969 C 117.183594 5.292969 118.414062 5.546875 118.707031 7.441406 Z M 114.410156 7.441406 "/>
<path style=" stroke:none;fill-rule:nonzero;fill:rgb(0%,0%,0%);fill-opacity:1;" d="M 127.285156 7.1875 C 127.285156 5.46875 126.054688 4.21875 124.375 4.21875 C 123.300781 4.21875 122.5 4.453125 121.621094 4.960938 L 121.71875 6.152344 C 122.519531 5.566406 123.339844 5.253906 124.375 5.253906 C 125.195312 5.253906 125.917969 5.917969 125.917969 7.226562 L 125.917969 7.96875 C 125.117188 7.988281 124.042969 8.046875 122.96875 8.398438 C 121.757812 8.828125 121.054688 9.492188 121.054688 10.371094 C 121.054688 11.171875 121.523438 12.617188 123.046875 12.617188 C 124.042969 12.617188 125.292969 12.324219 125.957031 11.777344 L 125.957031 12.441406 L 127.285156 12.441406 Z M 125.917969 10.039062 C 125.917969 10.390625 125.917969 10.820312 125.332031 11.191406 C 124.84375 11.484375 124.238281 11.542969 123.964844 11.542969 C 123.007812 11.542969 122.34375 11.015625 122.34375 10.371094 C 122.34375 9.140625 124.824219 8.867188 125.917969 8.867188 Z M 125.917969 10.039062 "/>
<path style=" stroke:none;fill-rule:nonzero;fill:rgb(0%,0%,0%);fill-opacity:1;" d="M 141.125 1.40625 C 141.28125 0.742188 141.359375 0.722656 142.0625 0.722656 L 143.351562 0.722656 C 144.894531 0.722656 146.027344 1.171875 146.027344 2.578125 C 146.027344 3.496094 145.558594 6.132812 141.964844 6.132812 L 139.933594 6.132812 Z M 143.605469 6.347656 C 145.832031 5.859375 147.570312 4.433594 147.570312 2.890625 C 147.570312 1.484375 146.164062 0.195312 143.664062 0.195312 L 138.800781 0.195312 C 138.449219 0.195312 138.292969 0.195312 138.292969 0.527344 C 138.292969 0.722656 138.410156 0.722656 138.761719 0.722656 C 139.835938 0.722656 139.835938 0.859375 139.835938 1.054688 C 139.835938 1.09375 139.835938 1.191406 139.757812 1.464844 L 137.335938 11.113281 C 137.179688 11.738281 137.140625 11.914062 135.910156 11.914062 C 135.5 11.914062 135.363281 11.914062 135.363281 12.265625 C 135.363281 12.441406 135.558594 12.441406 135.617188 12.441406 C 135.949219 12.441406 136.320312 12.402344 136.652344 12.402344 L 138.78125 12.402344 C 139.09375 12.402344 139.464844 12.441406 139.796875 12.441406 C 139.933594 12.441406 140.128906 12.441406 140.128906 12.109375 C 140.128906 11.914062 139.972656 11.914062 139.699219 11.914062 C 138.605469 11.914062 138.605469 11.777344 138.605469 11.601562 C 138.605469 11.582031 138.605469 11.464844 138.644531 11.308594 L 139.855469 6.484375 L 142.003906 6.484375 C 143.703125 6.484375 144.035156 7.558594 144.035156 8.164062 C 144.035156 8.417969 143.839844 9.121094 143.722656 9.589844 C 143.527344 10.410156 143.46875 10.605469 143.46875 10.957031 C 143.46875 12.226562 144.503906 12.8125 145.714844 12.8125 C 147.160156 12.8125 147.785156 11.035156 147.785156 10.800781 C 147.785156 10.664062 147.707031 10.605469 147.589844 10.605469 C 147.453125 10.605469 147.414062 10.722656 147.375 10.859375 C 146.945312 12.128906 146.222656 12.460938 145.773438 12.460938 C 145.324219 12.460938 145.03125 12.265625 145.03125 11.464844 C 145.03125 11.015625 145.246094 9.394531 145.265625 9.296875 C 145.34375 8.632812 145.34375 8.574219 145.34375 8.417969 C 145.34375 7.109375 144.289062 6.5625 143.605469 6.347656 Z M 143.605469 6.347656 "/>
<path style=" stroke:none;fill-rule:nonzero;fill:rgb(0%,0%,0%);fill-opacity:1;" d="M 165.535156 4.472656 L 164.226562 4.472656 L 163.152344 8.125 C 162.898438 8.984375 162.390625 10.664062 162.3125 11.445312 L 162.292969 11.445312 C 162.253906 11.015625 161.960938 9.804688 161.589844 8.535156 L 160.398438 4.472656 L 159.167969 4.472656 L 158.132812 7.988281 C 157.820312 9.101562 157.390625 10.644531 157.332031 11.40625 L 157.3125 11.40625 C 157.292969 11.054688 157.097656 10.117188 156.765625 8.90625 L 155.496094 4.472656 L 154.128906 4.472656 L 156.53125 12.441406 L 157.917969 12.441406 C 158.582031 10.175781 159.636719 6.777344 159.734375 5.527344 L 159.753906 5.527344 C 159.792969 6.25 160.144531 7.539062 160.28125 7.96875 L 161.550781 12.441406 L 163.132812 12.441406 Z M 165.535156 4.472656 "/>
<path style=" stroke:none;fill-rule:nonzero;fill:rgb(0%,0%,0%);fill-opacity:1;" d="M 168.707031 0.273438 L 167.164062 0.273438 L 167.164062 1.816406 L 168.707031 1.816406 Z M 168.609375 4.472656 L 167.28125 4.472656 L 167.28125 12.441406 L 168.609375 12.441406 Z M 168.609375 4.472656 "/>
<path style=" stroke:none;fill-rule:nonzero;fill:rgb(0%,0%,0%);fill-opacity:1;" d="M 172.808594 0 L 171.480469 0 L 171.480469 12.441406 L 172.808594 12.441406 Z M 172.808594 0 "/>
<path style=" stroke:none;fill-rule:nonzero;fill:rgb(0%,0%,0%);fill-opacity:1;" d="M 177.007812 0 L 175.679688 0 L 175.679688 12.441406 L 177.007812 12.441406 Z M 177.007812 0 "/>
<path style=" stroke:none;fill-rule:nonzero;fill:rgb(0%,0%,0%);fill-opacity:1;" d="M 186.757812 0 L 185.429688 0 L 185.429688 12.441406 L 186.777344 12.441406 L 186.777344 11.640625 C 187.617188 12.421875 188.496094 12.617188 189.121094 12.617188 C 190.820312 12.617188 192.382812 10.878906 192.382812 8.4375 C 192.382812 6.230469 191.191406 4.296875 189.53125 4.296875 C 189.003906 4.296875 187.851562 4.414062 186.757812 5.3125 Z M 186.777344 6.40625 C 187.109375 5.898438 187.753906 5.371094 188.632812 5.371094 C 189.726562 5.371094 191.015625 6.210938 191.015625 8.4375 C 191.015625 10.78125 189.550781 11.542969 188.457031 11.542969 C 187.949219 11.542969 187.617188 11.367188 187.285156 11.113281 C 186.855469 10.742188 186.777344 10.410156 186.777344 10.117188 Z M 186.777344 6.40625 "/>
<path style=" stroke:none;fill-rule:nonzero;fill:rgb(0%,0%,0%);fill-opacity:1;" d="M 200.78125 8.398438 C 200.78125 7.636719 200.703125 6.542969 200.136719 5.585938 C 199.394531 4.355469 198.144531 4.21875 197.617188 4.21875 C 195.683594 4.21875 194.0625 6.074219 194.0625 8.398438 C 194.0625 10.78125 195.78125 12.617188 197.871094 12.617188 C 198.691406 12.617188 199.6875 12.382812 200.664062 11.679688 C 200.664062 11.601562 200.605469 11.035156 200.605469 11.015625 C 200.585938 10.996094 200.566406 10.585938 200.566406 10.527344 C 199.492188 11.425781 198.4375 11.542969 197.910156 11.542969 C 196.523438 11.542969 195.332031 10.3125 195.3125 8.398438 Z M 195.410156 7.441406 C 195.722656 6.230469 196.5625 5.292969 197.617188 5.292969 C 198.183594 5.292969 199.414062 5.546875 199.707031 7.441406 Z M 195.410156 7.441406 "/>
<path style=" stroke:none;fill-rule:nonzero;fill:rgb(0%,0%,0%);fill-opacity:1;" d="M 213.386719 5.371094 C 213.386719 5.371094 213.425781 5.410156 213.445312 5.449219 C 213.816406 5.410156 214.207031 5.351562 214.871094 5.351562 C 214.929688 5.351562 215.339844 5.351562 215.789062 5.390625 L 215.59375 4.296875 C 215.261719 4.296875 214.03125 4.316406 212.839844 4.902344 C 212.253906 4.394531 211.53125 4.296875 211.179688 4.296875 C 209.617188 4.296875 208.367188 5.605469 208.367188 7.1875 C 208.367188 7.832031 208.5625 8.417969 208.953125 8.964844 C 208.542969 9.53125 208.445312 10.078125 208.445312 10.507812 C 208.445312 11.171875 208.699219 11.621094 208.894531 11.855469 C 207.976562 12.441406 207.761719 13.203125 207.761719 13.710938 C 207.761719 15.019531 209.460938 16.113281 211.648438 16.113281 C 213.835938 16.113281 215.554688 15.058594 215.554688 13.691406 C 215.554688 11.191406 212.644531 11.191406 211.921875 11.191406 L 210.398438 11.191406 C 210.144531 11.191406 209.363281 11.191406 209.363281 10.234375 C 209.363281 9.84375 209.441406 9.726562 209.558594 9.570312 C 209.851562 9.785156 210.4375 10.097656 211.160156 10.097656 C 212.703125 10.097656 213.972656 8.828125 213.972656 7.1875 C 213.972656 6.542969 213.738281 5.878906 213.367188 5.390625 Z M 211.179688 9.101562 C 210.398438 9.101562 209.597656 8.574219 209.597656 7.207031 C 209.597656 5.605469 210.613281 5.292969 211.160156 5.292969 C 211.960938 5.292969 212.742188 5.820312 212.742188 7.1875 C 212.742188 8.789062 211.746094 9.101562 211.179688 9.101562 Z M 211.941406 12.480469 C 212.332031 12.480469 214.304688 12.480469 214.304688 13.710938 C 214.304688 14.53125 213.074219 15.136719 211.667969 15.136719 C 210.261719 15.136719 209.011719 14.570312 209.011719 13.691406 C 209.011719 13.652344 209.011719 12.480469 210.378906 12.480469 Z M 211.941406 12.480469 "/>
<path style=" stroke:none;fill-rule:nonzero;fill:rgb(0%,0%,0%);fill-opacity:1;" d="M 218.957031 0.273438 L 217.414062 0.273438 L 217.414062 1.816406 L 218.957031 1.816406 Z M 218.859375 4.472656 L 217.53125 4.472656 L 217.53125 12.441406 L 218.859375 12.441406 Z M 218.859375 4.472656 "/>
<path style=" stroke:none;fill-rule:nonzero;fill:rgb(0%,0%,0%);fill-opacity:1;" d="M 228.078125 4.472656 L 226.75 4.472656 L 225.441406 8.046875 C 225.128906 8.90625 224.464844 10.800781 224.367188 11.464844 L 224.347656 11.464844 C 224.25 10.839844 223.898438 9.863281 223.625 9.082031 L 221.964844 4.472656 L 220.578125 4.472656 L 223.527344 12.441406 L 225.128906 12.441406 Z M 228.078125 4.472656 "/>
<path style=" stroke:none;fill-rule:nonzero;fill:rgb(0%,0%,0%);fill-opacity:1;" d="M 235.730469 8.398438 C 235.730469 7.636719 235.652344 6.542969 235.085938 5.585938 C 234.34375 4.355469 233.09375 4.21875 232.566406 4.21875 C 230.632812 4.21875 229.011719 6.074219 229.011719 8.398438 C 229.011719 10.78125 230.730469 12.617188 232.820312 12.617188 C 233.640625 12.617188 234.636719 12.382812 235.613281 11.679688 C 235.613281 11.601562 235.554688 11.035156 235.554688 11.015625 C 235.535156 10.996094 235.515625 10.585938 235.515625 10.527344 C 234.441406 11.425781 233.386719 11.542969 232.859375 11.542969 C 231.472656 11.542969 230.28125 10.3125 230.261719 8.398438 Z M 230.359375 7.441406 C 230.671875 6.230469 231.511719 5.292969 232.566406 5.292969 C 233.132812 5.292969 234.363281 5.546875 234.65625 7.441406 Z M 230.359375 7.441406 "/>
<path style=" stroke:none;fill-rule:nonzero;fill:rgb(0%,0%,0%);fill-opacity:1;" d="M 243.824219 7.050781 C 243.824219 5.957031 243.589844 4.296875 241.421875 4.296875 C 240.425781 4.296875 239.566406 4.746094 238.882812 5.605469 L 238.882812 4.394531 L 237.613281 4.394531 L 237.613281 12.441406 L 238.960938 12.441406 L 238.960938 7.96875 C 238.960938 6.875 239.390625 5.371094 240.738281 5.371094 C 242.417969 5.371094 242.457031 6.542969 242.457031 7.167969 L 242.457031 12.441406 L 243.824219 12.441406 Z M 243.824219 7.050781 "/>
<path style=" stroke:none;fill-rule:nonzero;fill:rgb(0%,0%,0%);fill-opacity:1;" d="M 253.507812 0 L 252.179688 0 L 252.179688 12.441406 L 253.527344 12.441406 L 253.527344 11.640625 C 254.367188 12.421875 255.246094 12.617188 255.871094 12.617188 C 257.570312 12.617188 259.132812 10.878906 259.132812 8.4375 C 259.132812 6.230469 257.941406 4.296875 256.28125 4.296875 C 255.753906 4.296875 254.601562 4.414062 253.507812 5.3125 Z M 253.527344 6.40625 C 253.859375 5.898438 254.503906 5.371094 255.382812 5.371094 C 256.476562 5.371094 257.765625 6.210938 257.765625 8.4375 C 257.765625 10.78125 256.300781 11.542969 255.207031 11.542969 C 254.699219 11.542969 254.367188 11.367188 254.035156 11.113281 C 253.605469 10.742188 253.527344 10.410156 253.527344 10.117188 Z M 253.527344 6.40625 "/>
<path style=" stroke:none;fill-rule:nonzero;fill:rgb(0%,0%,0%);fill-opacity:1;" d="M 267.078125 4.472656 L 265.75 4.472656 C 264.910156 6.601562 263.542969 10.117188 263.464844 11.40625 L 263.445312 11.40625 C 263.367188 10.351562 262.410156 7.96875 262.273438 7.617188 L 260.984375 4.472656 L 259.578125 4.472656 L 262.917969 12.441406 L 262.273438 14.082031 C 261.882812 14.960938 261.628906 15.058594 261.296875 15.058594 C 261.042969 15.058594 260.476562 15 259.910156 14.785156 L 260.027344 15.957031 C 260.125 15.976562 260.730469 16.09375 261.296875 16.09375 C 261.726562 16.09375 262.566406 16.09375 263.347656 14.121094 Z M 267.078125 4.472656 "/>
<path style=" stroke:none;fill-rule:nonzero;fill:rgb(0%,0%,0%);fill-opacity:1;" d="M 4.882812 45.863281 C 5 45.296875 5.058594 45.277344 5.644531 45.277344 L 6.71875 45.277344 C 8.007812 45.277344 8.964844 45.667969 8.964844 46.820312 C 8.964844 47.582031 8.574219 49.789062 5.566406 49.789062 L 3.886719 49.789062 Z M 6.953125 49.964844 C 8.808594 49.554688 10.253906 48.363281 10.253906 47.074219 C 10.253906 45.921875 9.0625 44.847656 6.992188 44.847656 L 2.949219 44.847656 C 2.65625 44.847656 2.519531 44.847656 2.519531 45.121094 C 2.519531 45.277344 2.617188 45.277344 2.910156 45.277344 C 3.789062 45.277344 3.789062 45.394531 3.789062 45.550781 C 3.789062 45.589844 3.789062 45.667969 3.730469 45.902344 L 1.71875 53.929688 C 1.582031 54.457031 1.5625 54.613281 0.527344 54.613281 C 0.175781 54.613281 0.078125 54.613281 0.078125 54.886719 C 0.078125 55.042969 0.234375 55.042969 0.292969 55.042969 C 0.546875 55.042969 0.859375 55.003906 1.152344 55.003906 L 2.910156 55.003906 C 3.183594 55.003906 3.496094 55.042969 3.769531 55.042969 C 3.886719 55.042969 4.042969 55.042969 4.042969 54.75 C 4.042969 54.613281 3.925781 54.613281 3.691406 54.613281 C 2.773438 54.613281 2.773438 54.496094 2.773438 54.339844 C 2.773438 54.320312 2.773438 54.222656 2.8125 54.105469 L 3.808594 50.082031 L 5.605469 50.082031 C 7.03125 50.082031 7.285156 50.980469 7.285156 51.46875 C 7.285156 51.703125 7.148438 52.269531 7.03125 52.660156 C 6.875 53.363281 6.835938 53.519531 6.835938 53.8125 C 6.835938 54.867188 7.695312 55.355469 8.691406 55.355469 C 9.902344 55.355469 10.429688 53.871094 10.429688 53.675781 C 10.429688 53.558594 10.351562 53.519531 10.273438 53.519531 C 10.15625 53.519531 10.117188 53.617188 10.097656 53.734375 C 9.726562 54.789062 9.121094 55.0625 8.75 55.0625 C 8.378906 55.0625 8.125 54.886719 8.125 54.222656 C 8.125 53.871094 8.300781 52.503906 8.320312 52.425781 C 8.398438 51.878906 8.398438 51.820312 8.398438 51.703125 C 8.398438 50.609375 7.519531 50.140625 6.953125 49.964844 Z M 6.953125 49.964844 "/>
<path style=" stroke:none;fill-rule:nonzero;fill:rgb(0%,0%,0%);fill-opacity:1;" d="M 24.902344 50.199219 C 25.117188 50.199219 25.390625 50.199219 25.390625 49.925781 C 25.390625 49.652344 25.136719 49.652344 24.902344 49.652344 L 16.113281 49.652344 C 15.898438 49.652344 15.625 49.652344 15.625 49.925781 C 15.625 50.199219 15.878906 50.199219 16.113281 50.199219 Z M 24.902344 52.972656 C 25.117188 52.972656 25.390625 52.972656 25.390625 52.71875 C 25.390625 52.425781 25.136719 52.425781 24.902344 52.425781 L 16.113281 52.425781 C 15.898438 52.425781 15.625 52.425781 15.625 52.699219 C 15.625 52.972656 15.878906 52.972656 16.113281 52.972656 Z M 24.902344 52.972656 "/>
<path style=" stroke:none;fill-rule:nonzero;fill:rgb(0%,0%,0%);fill-opacity:1;" d="M 31.988281 67.160156 C 32.457031 67.140625 32.710938 66.808594 32.710938 66.4375 C 32.710938 65.949219 32.339844 65.695312 31.988281 65.695312 C 31.636719 65.695312 31.265625 65.929688 31.265625 66.457031 C 31.265625 67.21875 32.007812 67.84375 32.925781 67.84375 C 35.191406 67.84375 36.050781 64.347656 37.105469 60.011719 C 38.257812 55.285156 39.234375 50.519531 40.035156 45.734375 C 40.582031 42.550781 41.148438 39.5625 41.65625 37.628906 C 41.832031 36.90625 42.339844 34.972656 42.925781 34.972656 C 43.375 34.972656 43.746094 35.246094 43.804688 35.304688 C 43.316406 35.34375 43.0625 35.675781 43.0625 36.046875 C 43.0625 36.535156 43.433594 36.769531 43.785156 36.769531 C 44.136719 36.769531 44.507812 36.554688 44.507812 36.027344 C 44.507812 35.226562 43.707031 34.640625 42.886719 34.640625 C 41.753906 34.640625 40.914062 36.261719 40.09375 39.308594 C 40.054688 39.484375 38.023438 46.984375 36.363281 56.75 C 35.992188 59.035156 35.542969 61.535156 35.054688 63.605469 C 34.78125 64.699219 34.097656 67.511719 32.886719 67.511719 C 32.359375 67.511719 31.988281 67.160156 31.988281 67.160156 Z M 31.988281 67.160156 "/>
<path style=" stroke:none;fill-rule:nonzero;fill:rgb(0%,0%,0%);fill-opacity:1;" d="M 48.085938 36.511719 C 48.242188 36.355469 48.652344 36.023438 48.828125 35.886719 C 49.433594 35.320312 50.019531 34.773438 50.019531 33.875 C 50.019531 32.683594 49.023438 31.921875 47.792969 31.921875 C 46.582031 31.921875 45.800781 32.820312 45.800781 33.71875 C 45.800781 34.207031 46.191406 34.265625 46.328125 34.265625 C 46.542969 34.265625 46.855469 34.128906 46.855469 33.738281 C 46.855469 33.230469 46.347656 33.230469 46.230469 33.230469 C 46.523438 32.488281 47.1875 32.253906 47.675781 32.253906 C 48.59375 32.253906 49.082031 33.035156 49.082031 33.875 C 49.082031 34.910156 48.359375 35.671875 47.167969 36.863281 L 45.917969 38.171875 C 45.800781 38.269531 45.800781 38.289062 45.800781 38.542969 L 49.726562 38.542969 L 50.019531 36.765625 L 49.707031 36.765625 C 49.6875 36.960938 49.609375 37.449219 49.492188 37.644531 C 49.433594 37.722656 48.671875 37.722656 48.515625 37.722656 L 46.738281 37.722656 Z M 48.085938 36.511719 "/>
<path style=" stroke:none;fill-rule:nonzero;fill:rgb(0%,0%,0%);fill-opacity:1;" d="M 43.539062 65.207031 C 43.539062 64.152344 43.441406 63.507812 43.109375 62.863281 C 42.679688 61.984375 41.859375 61.769531 41.3125 61.769531 C 40.0625 61.769531 39.59375 62.707031 39.457031 62.980469 C 39.105469 63.703125 39.085938 64.699219 39.085938 65.207031 C 39.085938 65.871094 39.105469 66.867188 39.59375 67.667969 C 40.042969 68.410156 40.785156 68.605469 41.3125 68.605469 C 41.800781 68.605469 42.640625 68.449219 43.148438 67.472656 C 43.519531 66.75 43.539062 65.851562 43.539062 65.207031 Z M 41.3125 68.3125 C 40.980469 68.3125 40.296875 68.15625 40.082031 67.121094 C 39.964844 66.554688 39.964844 65.617188 39.964844 65.089844 C 39.964844 64.40625 39.964844 63.703125 40.082031 63.15625 C 40.296875 62.140625 41.058594 62.042969 41.3125 62.042969 C 41.644531 62.042969 42.347656 62.21875 42.542969 63.117188 C 42.660156 63.664062 42.660156 64.425781 42.660156 65.089844 C 42.660156 65.675781 42.660156 66.574219 42.542969 67.140625 C 42.328125 68.175781 41.644531 68.3125 41.3125 68.3125 Z M 41.3125 68.3125 "/>
<path style=" stroke:none;fill-rule:nonzero;fill:rgb(0%,0%,0%);fill-opacity:1;" d="M 59.496094 54.765625 L 56.859375 48.945312 C 56.761719 48.710938 56.683594 48.710938 56.625 48.710938 C 56.625 48.710938 56.546875 48.710938 56.371094 48.828125 L 54.964844 49.902344 C 54.769531 50.058594 54.769531 50.097656 54.769531 50.15625 C 54.769531 50.234375 54.808594 50.3125 54.90625 50.3125 C 55.003906 50.3125 55.257812 50.097656 55.433594 49.980469 C 55.511719 49.902344 55.746094 49.746094 55.902344 49.628906 L 58.851562 56.09375 C 58.949219 56.328125 59.027344 56.328125 59.164062 56.328125 C 59.378906 56.328125 59.4375 56.25 59.535156 56.035156 L 66.3125 41.992188 C 66.429688 41.777344 66.429688 41.71875 66.429688 41.699219 C 66.429688 41.542969 66.292969 41.386719 66.117188 41.386719 C 66 41.386719 65.902344 41.464844 65.785156 41.699219 Z M 59.496094 54.765625 "/>
<path style=" stroke:none;fill-rule:nonzero;fill:rgb(0%,0%,0%);fill-opacity:1;" d="M 66.109375 41.40625 L 106.011719 41.40625 L 106.011719 42.007812 L 66.109375 42.007812 Z M 66.109375 41.40625 "/>
<path style=" stroke:none;fill-rule:nonzero;fill:rgb(0%,0%,0%);fill-opacity:1;" d="M 71.515625 45.316406 C 71.515625 45.023438 71.515625 44.964844 71.300781 44.964844 C 71.183594 44.964844 71.144531 44.964844 71.027344 45.140625 L 66.535156 52.113281 L 66.535156 52.542969 L 70.460938 52.542969 L 70.460938 53.910156 C 70.460938 54.457031 70.421875 54.613281 69.328125 54.613281 L 69.035156 54.613281 L 69.035156 55.042969 C 69.386719 55.003906 70.558594 55.003906 70.988281 55.003906 C 71.398438 55.003906 72.589844 55.003906 72.941406 55.042969 L 72.941406 54.613281 L 72.648438 54.613281 C 71.554688 54.613281 71.515625 54.457031 71.515625 53.910156 L 71.515625 52.542969 L 73.019531 52.542969 L 73.019531 52.113281 L 71.515625 52.113281 Z M 70.539062 46.488281 L 70.539062 52.113281 L 66.90625 52.113281 Z M 70.539062 46.488281 "/>
<path style=" stroke:none;fill-rule:nonzero;fill:rgb(0%,0%,0%);fill-opacity:1;" d="M 86.621094 51.605469 C 86.875 51.605469 87.148438 51.605469 87.148438 51.3125 C 87.148438 51 86.875 51 86.621094 51 L 78.535156 51 C 78.28125 51 78.007812 51 78.007812 51.3125 C 78.007812 51.605469 78.28125 51.605469 78.535156 51.605469 Z M 86.621094 51.605469 "/>
<path style=" stroke:none;fill-rule:nonzero;fill:rgb(0%,0%,0%);fill-opacity:1;" d="M 98.867188 48.949219 C 98.378906 49.027344 98.203125 49.398438 98.203125 49.671875 C 98.203125 50.042969 98.476562 50.160156 98.691406 50.160156 C 99.140625 50.160156 99.453125 49.769531 99.453125 49.359375 C 99.453125 48.734375 98.730469 48.460938 98.105469 48.460938 C 97.207031 48.460938 96.699219 49.359375 96.5625 49.632812 C 96.210938 48.519531 95.292969 48.460938 95.019531 48.460938 C 93.496094 48.460938 92.695312 50.414062 92.695312 50.746094 C 92.695312 50.804688 92.753906 50.882812 92.851562 50.882812 C 92.96875 50.882812 93.007812 50.785156 93.027344 50.726562 C 93.535156 49.066406 94.550781 48.753906 94.980469 48.753906 C 95.644531 48.753906 95.78125 49.378906 95.78125 49.730469 C 95.78125 50.0625 95.683594 50.414062 95.507812 51.136719 L 95 53.167969 C 94.785156 54.066406 94.355469 54.886719 93.554688 54.886719 C 93.476562 54.886719 93.105469 54.886719 92.792969 54.691406 C 93.339844 54.59375 93.457031 54.144531 93.457031 53.96875 C 93.457031 53.675781 93.222656 53.480469 92.949219 53.480469 C 92.578125 53.480469 92.1875 53.8125 92.1875 54.28125 C 92.1875 54.90625 92.890625 55.199219 93.535156 55.199219 C 94.257812 55.199219 94.765625 54.632812 95.078125 54.007812 C 95.3125 54.886719 96.074219 55.199219 96.621094 55.199219 C 98.144531 55.199219 98.945312 53.226562 98.945312 52.914062 C 98.945312 52.835938 98.886719 52.777344 98.808594 52.777344 C 98.671875 52.777344 98.652344 52.855469 98.613281 52.972656 C 98.203125 54.28125 97.34375 54.886719 96.660156 54.886719 C 96.132812 54.886719 95.859375 54.496094 95.859375 53.890625 C 95.859375 53.558594 95.917969 53.324219 96.152344 52.347656 L 96.679688 50.296875 C 96.894531 49.417969 97.402344 48.753906 98.105469 48.753906 C 98.125 48.753906 98.554688 48.753906 98.867188 48.949219 Z M 98.867188 48.949219 "/>
<path style=" stroke:none;fill-rule:nonzero;fill:rgb(0%,0%,0%);fill-opacity:1;" d="M 102.835938 48.660156 C 102.992188 48.503906 103.402344 48.171875 103.578125 48.035156 C 104.183594 47.46875 104.769531 46.921875 104.769531 46.023438 C 104.769531 44.832031 103.773438 44.070312 102.542969 44.070312 C 101.332031 44.070312 100.550781 44.96875 100.550781 45.867188 C 100.550781 46.355469 100.941406 46.414062 101.078125 46.414062 C 101.292969 46.414062 101.605469 46.277344 101.605469 45.886719 C 101.605469 45.378906 101.097656 45.378906 100.980469 45.378906 C 101.273438 44.636719 101.9375 44.402344 102.425781 44.402344 C 103.34375 44.402344 103.832031 45.183594 103.832031 46.023438 C 103.832031 47.058594 103.109375 47.820312 101.917969 49.011719 L 100.667969 50.320312 C 100.550781 50.417969 100.550781 50.4375 100.550781 50.691406 L 104.476562 50.691406 L 104.769531 48.914062 L 104.457031 48.914062 C 104.4375 49.109375 104.359375 49.597656 104.242188 49.792969 C 104.183594 49.871094 103.421875 49.871094 103.265625 49.871094 L 101.488281 49.871094 Z M 102.835938 48.660156 "/>
<path style=" stroke:none;fill-rule:nonzero;fill:rgb(0%,0%,0%);fill-opacity:1;" d="M 112.195312 51.3125 C 112.195312 50.882812 111.84375 50.511719 111.394531 50.511719 C 110.964844 50.511719 110.613281 50.882812 110.613281 51.3125 C 110.613281 51.742188 110.964844 52.09375 111.394531 52.09375 C 111.84375 52.09375 112.195312 51.742188 112.195312 51.3125 Z M 112.195312 51.3125 "/>
<path style=" stroke:none;fill-rule:nonzero;fill:rgb(0%,0%,0%);fill-opacity:1;" d="M 124.34375 45.042969 C 124.363281 44.984375 124.382812 44.90625 124.382812 44.828125 C 124.382812 44.671875 124.226562 44.671875 124.207031 44.671875 C 124.1875 44.671875 123.464844 44.730469 123.386719 44.75 C 123.132812 44.769531 122.898438 44.789062 122.644531 44.808594 C 122.253906 44.847656 122.15625 44.847656 122.15625 45.121094 C 122.15625 45.277344 122.273438 45.277344 122.488281 45.277344 C 123.210938 45.277344 123.230469 45.414062 123.230469 45.550781 C 123.230469 45.648438 123.210938 45.765625 123.191406 45.804688 L 122.273438 49.4375 C 122.117188 49.046875 121.707031 48.460938 120.925781 48.460938 C 119.246094 48.460938 117.429688 50.628906 117.429688 52.855469 C 117.429688 54.320312 118.289062 55.199219 119.304688 55.199219 C 120.125 55.199219 120.828125 54.554688 121.238281 54.066406 C 121.394531 54.945312 122.097656 55.199219 122.546875 55.199219 C 122.996094 55.199219 123.347656 54.925781 123.621094 54.378906 C 123.855469 53.871094 124.070312 52.972656 124.070312 52.914062 C 124.070312 52.835938 124.011719 52.777344 123.914062 52.777344 C 123.777344 52.777344 123.777344 52.855469 123.71875 53.070312 C 123.484375 53.949219 123.210938 54.886719 122.585938 54.886719 C 122.15625 54.886719 122.136719 54.496094 122.136719 54.203125 C 122.136719 54.144531 122.136719 53.832031 122.234375 53.421875 Z M 121.316406 53.265625 C 121.238281 53.519531 121.238281 53.558594 121.042969 53.832031 C 120.710938 54.242188 120.046875 54.886719 119.34375 54.886719 C 118.738281 54.886719 118.386719 54.339844 118.386719 53.460938 C 118.386719 52.640625 118.855469 50.960938 119.148438 50.335938 C 119.65625 49.28125 120.359375 48.753906 120.925781 48.753906 C 121.921875 48.753906 122.117188 49.984375 122.117188 50.101562 C 122.117188 50.121094 122.078125 50.296875 122.058594 50.335938 Z M 121.316406 53.265625 "/>
<path style=" stroke:none;fill-rule:nonzero;fill:rgb(0%,0%,0%);fill-opacity:1;" d="M 131.566406 48.949219 C 131.078125 49.027344 130.902344 49.398438 130.902344 49.671875 C 130.902344 50.042969 131.175781 50.160156 131.390625 50.160156 C 131.839844 50.160156 132.152344 49.769531 132.152344 49.359375 C 132.152344 48.734375 131.429688 48.460938 130.804688 48.460938 C 129.90625 48.460938 129.398438 49.359375 129.261719 49.632812 C 128.910156 48.519531 127.992188 48.460938 127.71875 48.460938 C 126.195312 48.460938 125.394531 50.414062 125.394531 50.746094 C 125.394531 50.804688 125.453125 50.882812 125.550781 50.882812 C 125.667969 50.882812 125.707031 50.785156 125.726562 50.726562 C 126.234375 49.066406 127.25 48.753906 127.679688 48.753906 C 128.34375 48.753906 128.480469 49.378906 128.480469 49.730469 C 128.480469 50.0625 128.382812 50.414062 128.207031 51.136719 L 127.699219 53.167969 C 127.484375 54.066406 127.054688 54.886719 126.253906 54.886719 C 126.175781 54.886719 125.804688 54.886719 125.492188 54.691406 C 126.039062 54.59375 126.15625 54.144531 126.15625 53.96875 C 126.15625 53.675781 125.921875 53.480469 125.648438 53.480469 C 125.277344 53.480469 124.886719 53.8125 124.886719 54.28125 C 124.886719 54.90625 125.589844 55.199219 126.234375 55.199219 C 126.957031 55.199219 127.464844 54.632812 127.777344 54.007812 C 128.011719 54.886719 128.773438 55.199219 129.320312 55.199219 C 130.84375 55.199219 131.644531 53.226562 131.644531 52.914062 C 131.644531 52.835938 131.585938 52.777344 131.507812 52.777344 C 131.371094 52.777344 131.351562 52.855469 131.3125 52.972656 C 130.902344 54.28125 130.042969 54.886719 129.359375 54.886719 C 128.832031 54.886719 128.558594 54.496094 128.558594 53.890625 C 128.558594 53.558594 128.617188 53.324219 128.851562 52.347656 L 129.378906 50.296875 C 129.59375 49.417969 130.101562 48.753906 130.804688 48.753906 C 130.824219 48.753906 131.253906 48.753906 131.566406 48.949219 Z M 131.566406 48.949219 "/>
<path style=" stroke:none;fill-rule:nonzero;fill:rgb(0%,0%,0%);fill-opacity:1;" d="M 145.871094 51.605469 C 146.125 51.605469 146.398438 51.605469 146.398438 51.3125 C 146.398438 51 146.125 51 145.871094 51 L 137.785156 51 C 137.53125 51 137.257812 51 137.257812 51.3125 C 137.257812 51.605469 137.53125 51.605469 137.785156 51.605469 Z M 145.871094 51.605469 "/>
<path style=" stroke:none;fill-rule:nonzero;fill:rgb(0%,0%,0%);fill-opacity:1;" d="M 152.4375 67.160156 C 152.90625 67.140625 153.160156 66.808594 153.160156 66.4375 C 153.160156 65.949219 152.789062 65.695312 152.4375 65.695312 C 152.085938 65.695312 151.714844 65.929688 151.714844 66.457031 C 151.714844 67.21875 152.457031 67.84375 153.375 67.84375 C 155.640625 67.84375 156.5 64.347656 157.554688 60.011719 C 158.707031 55.285156 159.683594 50.519531 160.484375 45.734375 C 161.03125 42.550781 161.597656 39.5625 162.105469 37.628906 C 162.28125 36.90625 162.789062 34.972656 163.375 34.972656 C 163.824219 34.972656 164.195312 35.246094 164.253906 35.304688 C 163.765625 35.34375 163.511719 35.675781 163.511719 36.046875 C 163.511719 36.535156 163.882812 36.769531 164.234375 36.769531 C 164.585938 36.769531 164.957031 36.554688 164.957031 36.027344 C 164.957031 35.226562 164.15625 34.640625 163.335938 34.640625 C 162.203125 34.640625 161.363281 36.261719 160.542969 39.308594 C 160.503906 39.484375 158.472656 46.984375 156.8125 56.75 C 156.441406 59.035156 155.992188 61.535156 155.503906 63.605469 C 155.230469 64.699219 154.546875 67.511719 153.335938 67.511719 C 152.808594 67.511719 152.4375 67.160156 152.4375 67.160156 Z M 152.4375 67.160156 "/>
<path style=" stroke:none;fill-rule:nonzero;fill:rgb(0%,0%,0%);fill-opacity:1;" d="M 168.6875 36.511719 C 168.84375 36.355469 169.253906 36.023438 169.429688 35.886719 C 170.035156 35.320312 170.621094 34.773438 170.621094 33.875 C 170.621094 32.683594 169.625 31.921875 168.394531 31.921875 C 167.183594 31.921875 166.402344 32.820312 166.402344 33.71875 C 166.402344 34.207031 166.792969 34.265625 166.929688 34.265625 C 167.144531 34.265625 167.457031 34.128906 167.457031 33.738281 C 167.457031 33.230469 166.949219 33.230469 166.832031 33.230469 C 167.125 32.488281 167.789062 32.253906 168.277344 32.253906 C 169.195312 32.253906 169.683594 33.035156 169.683594 33.875 C 169.683594 34.910156 168.960938 35.671875 167.769531 36.863281 L 166.519531 38.171875 C 166.402344 38.269531 166.402344 38.289062 166.402344 38.542969 L 170.328125 38.542969 L 170.621094 36.765625 L 170.308594 36.765625 C 170.289062 36.960938 170.210938 37.449219 170.09375 37.644531 C 170.035156 37.722656 169.273438 37.722656 169.117188 37.722656 L 167.339844 37.722656 Z M 168.6875 36.511719 "/>
<path style=" stroke:none;fill-rule:nonzero;fill:rgb(0%,0%,0%);fill-opacity:1;" d="M 164.136719 65.207031 C 164.136719 64.152344 164.039062 63.507812 163.707031 62.863281 C 163.277344 61.984375 162.457031 61.769531 161.910156 61.769531 C 160.660156 61.769531 160.191406 62.707031 160.054688 62.980469 C 159.703125 63.703125 159.683594 64.699219 159.683594 65.207031 C 159.683594 65.871094 159.703125 66.867188 160.191406 67.667969 C 160.640625 68.410156 161.382812 68.605469 161.910156 68.605469 C 162.398438 68.605469 163.238281 68.449219 163.746094 67.472656 C 164.117188 66.75 164.136719 65.851562 164.136719 65.207031 Z M 161.910156 68.3125 C 161.578125 68.3125 160.894531 68.15625 160.679688 67.121094 C 160.5625 66.554688 160.5625 65.617188 160.5625 65.089844 C 160.5625 64.40625 160.5625 63.703125 160.679688 63.15625 C 160.894531 62.140625 161.65625 62.042969 161.910156 62.042969 C 162.242188 62.042969 162.945312 62.21875 163.140625 63.117188 C 163.257812 63.664062 163.257812 64.425781 163.257812 65.089844 C 163.257812 65.675781 163.257812 66.574219 163.140625 67.140625 C 162.925781 68.175781 162.242188 68.3125 161.910156 68.3125 Z M 161.910156 68.3125 "/>
<path style=" stroke:none;fill-rule:nonzero;fill:rgb(0%,0%,0%);fill-opacity:1;" d="M 181.363281 48.949219 C 180.875 49.027344 180.699219 49.398438 180.699219 49.671875 C 180.699219 50.042969 180.972656 50.160156 181.1875 50.160156 C 181.636719 50.160156 181.949219 49.769531 181.949219 49.359375 C 181.949219 48.734375 181.226562 48.460938 180.601562 48.460938 C 179.703125 48.460938 179.195312 49.359375 179.058594 49.632812 C 178.707031 48.519531 177.789062 48.460938 177.515625 48.460938 C 175.992188 48.460938 175.191406 50.414062 175.191406 50.746094 C 175.191406 50.804688 175.25 50.882812 175.347656 50.882812 C 175.464844 50.882812 175.503906 50.785156 175.523438 50.726562 C 176.03125 49.066406 177.046875 48.753906 177.476562 48.753906 C 178.140625 48.753906 178.277344 49.378906 178.277344 49.730469 C 178.277344 50.0625 178.179688 50.414062 178.003906 51.136719 L 177.496094 53.167969 C 177.28125 54.066406 176.851562 54.886719 176.050781 54.886719 C 175.972656 54.886719 175.601562 54.886719 175.289062 54.691406 C 175.835938 54.59375 175.953125 54.144531 175.953125 53.96875 C 175.953125 53.675781 175.71875 53.480469 175.445312 53.480469 C 175.074219 53.480469 174.683594 53.8125 174.683594 54.28125 C 174.683594 54.90625 175.386719 55.199219 176.03125 55.199219 C 176.753906 55.199219 177.261719 54.632812 177.574219 54.007812 C 177.808594 54.886719 178.570312 55.199219 179.117188 55.199219 C 180.640625 55.199219 181.441406 53.226562 181.441406 52.914062 C 181.441406 52.835938 181.382812 52.777344 181.304688 52.777344 C 181.167969 52.777344 181.148438 52.855469 181.109375 52.972656 C 180.699219 54.28125 179.839844 54.886719 179.15625 54.886719 C 178.628906 54.886719 178.355469 54.496094 178.355469 53.890625 C 178.355469 53.558594 178.414062 53.324219 178.648438 52.347656 L 179.175781 50.296875 C 179.390625 49.417969 179.898438 48.753906 180.601562 48.753906 C 180.621094 48.753906 181.050781 48.753906 181.363281 48.949219 Z M 181.363281 48.949219 "/>
<path style=" stroke:none;fill-rule:nonzero;fill:rgb(0%,0%,0%);fill-opacity:1;" d="M 188.847656 51.3125 C 188.847656 50.882812 188.496094 50.511719 188.046875 50.511719 C 187.617188 50.511719 187.265625 50.882812 187.265625 51.3125 C 187.265625 51.742188 187.617188 52.09375 188.046875 52.09375 C 188.496094 52.09375 188.847656 51.742188 188.847656 51.3125 Z M 188.847656 51.3125 "/>
<path style=" stroke:none;fill-rule:nonzero;fill:rgb(0%,0%,0%);fill-opacity:1;" d="M 200.996094 45.042969 C 201.015625 44.984375 201.035156 44.90625 201.035156 44.828125 C 201.035156 44.671875 200.878906 44.671875 200.859375 44.671875 C 200.839844 44.671875 200.117188 44.730469 200.039062 44.75 C 199.785156 44.769531 199.550781 44.789062 199.296875 44.808594 C 198.90625 44.847656 198.808594 44.847656 198.808594 45.121094 C 198.808594 45.277344 198.925781 45.277344 199.140625 45.277344 C 199.863281 45.277344 199.882812 45.414062 199.882812 45.550781 C 199.882812 45.648438 199.863281 45.765625 199.84375 45.804688 L 198.925781 49.4375 C 198.769531 49.046875 198.359375 48.460938 197.578125 48.460938 C 195.898438 48.460938 194.082031 50.628906 194.082031 52.855469 C 194.082031 54.320312 194.941406 55.199219 195.957031 55.199219 C 196.777344 55.199219 197.480469 54.554688 197.890625 54.066406 C 198.046875 54.945312 198.75 55.199219 199.199219 55.199219 C 199.648438 55.199219 200 54.925781 200.273438 54.378906 C 200.507812 53.871094 200.722656 52.972656 200.722656 52.914062 C 200.722656 52.835938 200.664062 52.777344 200.566406 52.777344 C 200.429688 52.777344 200.429688 52.855469 200.371094 53.070312 C 200.136719 53.949219 199.863281 54.886719 199.238281 54.886719 C 198.808594 54.886719 198.789062 54.496094 198.789062 54.203125 C 198.789062 54.144531 198.789062 53.832031 198.886719 53.421875 Z M 197.96875 53.265625 C 197.890625 53.519531 197.890625 53.558594 197.695312 53.832031 C 197.363281 54.242188 196.699219 54.886719 195.996094 54.886719 C 195.390625 54.886719 195.039062 54.339844 195.039062 53.460938 C 195.039062 52.640625 195.507812 50.960938 195.800781 50.335938 C 196.308594 49.28125 197.011719 48.753906 197.578125 48.753906 C 198.574219 48.753906 198.769531 49.984375 198.769531 50.101562 C 198.769531 50.121094 198.730469 50.296875 198.710938 50.335938 Z M 197.96875 53.265625 "/>
<path style=" stroke:none;fill-rule:nonzero;fill:rgb(0%,0%,0%);fill-opacity:1;" d="M 208.214844 48.949219 C 207.726562 49.027344 207.550781 49.398438 207.550781 49.671875 C 207.550781 50.042969 207.824219 50.160156 208.039062 50.160156 C 208.488281 50.160156 208.800781 49.769531 208.800781 49.359375 C 208.800781 48.734375 208.078125 48.460938 207.453125 48.460938 C 206.554688 48.460938 206.046875 49.359375 205.910156 49.632812 C 205.558594 48.519531 204.640625 48.460938 204.367188 48.460938 C 202.84375 48.460938 202.042969 50.414062 202.042969 50.746094 C 202.042969 50.804688 202.101562 50.882812 202.199219 50.882812 C 202.316406 50.882812 202.355469 50.785156 202.375 50.726562 C 202.882812 49.066406 203.898438 48.753906 204.328125 48.753906 C 204.992188 48.753906 205.128906 49.378906 205.128906 49.730469 C 205.128906 50.0625 205.03125 50.414062 204.855469 51.136719 L 204.347656 53.167969 C 204.132812 54.066406 203.703125 54.886719 202.902344 54.886719 C 202.824219 54.886719 202.453125 54.886719 202.140625 54.691406 C 202.6875 54.59375 202.804688 54.144531 202.804688 53.96875 C 202.804688 53.675781 202.570312 53.480469 202.296875 53.480469 C 201.925781 53.480469 201.535156 53.8125 201.535156 54.28125 C 201.535156 54.90625 202.238281 55.199219 202.882812 55.199219 C 203.605469 55.199219 204.113281 54.632812 204.425781 54.007812 C 204.660156 54.886719 205.421875 55.199219 205.96875 55.199219 C 207.492188 55.199219 208.292969 53.226562 208.292969 52.914062 C 208.292969 52.835938 208.234375 52.777344 208.15625 52.777344 C 208.019531 52.777344 208 52.855469 207.960938 52.972656 C 207.550781 54.28125 206.691406 54.886719 206.007812 54.886719 C 205.480469 54.886719 205.207031 54.496094 205.207031 53.890625 C 205.207031 53.558594 205.265625 53.324219 205.5 52.347656 L 206.027344 50.296875 C 206.242188 49.417969 206.75 48.753906 207.453125 48.753906 C 207.472656 48.753906 207.902344 48.753906 208.214844 48.949219 Z M 208.214844 48.949219 "/>
<path style=" stroke:none;fill-rule:nonzero;fill:rgb(0%,0%,0%);fill-opacity:1;" d="M 218.632812 51.585938 L 222.753906 51.585938 C 222.96875 51.585938 223.242188 51.585938 223.242188 51.332031 C 223.242188 51.039062 222.988281 51.039062 222.753906 51.039062 L 218.632812 51.039062 L 218.632812 46.917969 C 218.632812 46.703125 218.632812 46.429688 218.359375 46.429688 C 218.085938 46.429688 218.085938 46.683594 218.085938 46.917969 L 218.085938 51.039062 L 213.964844 51.039062 C 213.75 51.039062 213.476562 51.039062 213.476562 51.3125 C 213.476562 51.585938 213.730469 51.585938 213.964844 51.585938 L 218.085938 51.585938 L 218.085938 55.707031 C 218.085938 55.921875 218.085938 56.195312 218.359375 56.195312 C 218.632812 56.195312 218.632812 55.941406 218.632812 55.707031 Z M 218.632812 51.585938 "/>
<path style=" stroke:none;fill-rule:nonzero;fill:rgb(0%,0%,0%);fill-opacity:1;" d="M 233.957031 52.523438 L 233.625 52.523438 C 233.566406 52.777344 233.449219 53.617188 233.3125 53.851562 C 233.195312 53.988281 232.355469 53.988281 231.90625 53.988281 L 229.132812 53.988281 C 229.542969 53.636719 230.460938 52.679688 230.832031 52.328125 C 233.117188 50.238281 233.957031 49.457031 233.957031 47.972656 C 233.957031 46.253906 232.589844 45.101562 230.851562 45.101562 C 229.132812 45.101562 228.097656 46.585938 228.097656 47.875 C 228.097656 48.636719 228.761719 48.636719 228.800781 48.636719 C 229.132812 48.636719 229.503906 48.402344 229.503906 47.933594 C 229.503906 47.503906 229.230469 47.230469 228.800781 47.230469 C 228.683594 47.230469 228.644531 47.230469 228.605469 47.25 C 228.878906 46.234375 229.699219 45.53125 230.65625 45.53125 C 231.925781 45.53125 232.707031 46.605469 232.707031 47.972656 C 232.707031 49.242188 231.984375 50.355469 231.125 51.3125 L 228.097656 54.691406 L 228.097656 55.042969 L 233.566406 55.042969 Z M 233.957031 52.523438 "/>
<path style=" stroke:none;fill-rule:nonzero;fill:rgb(0%,0%,0%);fill-opacity:1;" d="M 238.835938 67.160156 C 239.304688 67.140625 239.558594 66.808594 239.558594 66.4375 C 239.558594 65.949219 239.1875 65.695312 238.835938 65.695312 C 238.484375 65.695312 238.113281 65.929688 238.113281 66.457031 C 238.113281 67.21875 238.855469 67.84375 239.773438 67.84375 C 242.039062 67.84375 242.898438 64.347656 243.953125 60.011719 C 245.105469 55.285156 246.082031 50.519531 246.882812 45.734375 C 247.429688 42.550781 247.996094 39.5625 248.503906 37.628906 C 248.679688 36.90625 249.1875 34.972656 249.773438 34.972656 C 250.222656 34.972656 250.59375 35.246094 250.652344 35.304688 C 250.164062 35.34375 249.910156 35.675781 249.910156 36.046875 C 249.910156 36.535156 250.28125 36.769531 250.632812 36.769531 C 250.984375 36.769531 251.355469 36.554688 251.355469 36.027344 C 251.355469 35.226562 250.554688 34.640625 249.734375 34.640625 C 248.601562 34.640625 247.761719 36.261719 246.941406 39.308594 C 246.902344 39.484375 244.871094 46.984375 243.210938 56.75 C 242.839844 59.035156 242.390625 61.535156 241.902344 63.605469 C 241.628906 64.699219 240.945312 67.511719 239.734375 67.511719 C 239.207031 67.511719 238.835938 67.160156 238.835938 67.160156 Z M 238.835938 67.160156 "/>
<path style=" stroke:none;fill-rule:nonzero;fill:rgb(0%,0%,0%);fill-opacity:1;" d="M 254.9375 36.511719 C 255.09375 36.355469 255.503906 36.023438 255.679688 35.886719 C 256.285156 35.320312 256.871094 34.773438 256.871094 33.875 C 256.871094 32.683594 255.875 31.921875 254.644531 31.921875 C 253.433594 31.921875 252.652344 32.820312 252.652344 33.71875 C 252.652344 34.207031 253.042969 34.265625 253.179688 34.265625 C 253.394531 34.265625 253.707031 34.128906 253.707031 33.738281 C 253.707031 33.230469 253.199219 33.230469 253.082031 33.230469 C 253.375 32.488281 254.039062 32.253906 254.527344 32.253906 C 255.445312 32.253906 255.933594 33.035156 255.933594 33.875 C 255.933594 34.910156 255.210938 35.671875 254.019531 36.863281 L 252.769531 38.171875 C 252.652344 38.269531 252.652344 38.289062 252.652344 38.542969 L 256.578125 38.542969 L 256.871094 36.765625 L 256.558594 36.765625 C 256.539062 36.960938 256.460938 37.449219 256.34375 37.644531 C 256.285156 37.722656 255.523438 37.722656 255.367188 37.722656 L 253.589844 37.722656 Z M 254.9375 36.511719 "/>
<path style=" stroke:none;fill-rule:nonzero;fill:rgb(0%,0%,0%);fill-opacity:1;" d="M 250.386719 65.207031 C 250.386719 64.152344 250.289062 63.507812 249.957031 62.863281 C 249.527344 61.984375 248.707031 61.769531 248.160156 61.769531 C 246.910156 61.769531 246.441406 62.707031 246.304688 62.980469 C 245.953125 63.703125 245.933594 64.699219 245.933594 65.207031 C 245.933594 65.871094 245.953125 66.867188 246.441406 67.667969 C 246.890625 68.410156 247.632812 68.605469 248.160156 68.605469 C 248.648438 68.605469 249.488281 68.449219 249.996094 67.472656 C 250.367188 66.75 250.386719 65.851562 250.386719 65.207031 Z M 248.160156 68.3125 C 247.828125 68.3125 247.144531 68.15625 246.929688 67.121094 C 246.8125 66.554688 246.8125 65.617188 246.8125 65.089844 C 246.8125 64.40625 246.8125 63.703125 246.929688 63.15625 C 247.144531 62.140625 247.90625 62.042969 248.160156 62.042969 C 248.492188 62.042969 249.195312 62.21875 249.390625 63.117188 C 249.507812 63.664062 249.507812 64.425781 249.507812 65.089844 C 249.507812 65.675781 249.507812 66.574219 249.390625 67.140625 C 249.175781 68.175781 248.492188 68.3125 248.160156 68.3125 Z M 248.160156 68.3125 "/>
<path style=" stroke:none;fill-rule:nonzero;fill:rgb(0%,0%,0%);fill-opacity:1;" d="M 268.042969 45.042969 C 268.0625 44.984375 268.082031 44.90625 268.082031 44.828125 C 268.082031 44.671875 267.925781 44.671875 267.90625 44.671875 C 267.886719 44.671875 267.164062 44.730469 267.085938 44.75 C 266.832031 44.769531 266.597656 44.789062 266.34375 44.808594 C 265.953125 44.847656 265.855469 44.847656 265.855469 45.121094 C 265.855469 45.277344 265.972656 45.277344 266.1875 45.277344 C 266.910156 45.277344 266.929688 45.414062 266.929688 45.550781 C 266.929688 45.648438 266.910156 45.765625 266.890625 45.804688 L 265.972656 49.4375 C 265.816406 49.046875 265.40625 48.460938 264.625 48.460938 C 262.945312 48.460938 261.128906 50.628906 261.128906 52.855469 C 261.128906 54.320312 261.988281 55.199219 263.003906 55.199219 C 263.824219 55.199219 264.527344 54.554688 264.9375 54.066406 C 265.09375 54.945312 265.796875 55.199219 266.246094 55.199219 C 266.695312 55.199219 267.046875 54.925781 267.320312 54.378906 C 267.554688 53.871094 267.769531 52.972656 267.769531 52.914062 C 267.769531 52.835938 267.710938 52.777344 267.613281 52.777344 C 267.476562 52.777344 267.476562 52.855469 267.417969 53.070312 C 267.183594 53.949219 266.910156 54.886719 266.285156 54.886719 C 265.855469 54.886719 265.835938 54.496094 265.835938 54.203125 C 265.835938 54.144531 265.835938 53.832031 265.933594 53.421875 Z M 265.015625 53.265625 C 264.9375 53.519531 264.9375 53.558594 264.742188 53.832031 C 264.410156 54.242188 263.746094 54.886719 263.042969 54.886719 C 262.4375 54.886719 262.085938 54.339844 262.085938 53.460938 C 262.085938 52.640625 262.554688 50.960938 262.847656 50.335938 C 263.355469 49.28125 264.058594 48.753906 264.625 48.753906 C 265.621094 48.753906 265.816406 49.984375 265.816406 50.101562 C 265.816406 50.121094 265.777344 50.296875 265.757812 50.335938 Z M 265.015625 53.265625 "/>
<path style=" stroke:none;fill-rule:nonzero;fill:rgb(0%,0%,0%);fill-opacity:1;" d="M 275.265625 48.949219 C 274.777344 49.027344 274.601562 49.398438 274.601562 49.671875 C 274.601562 50.042969 274.875 50.160156 275.089844 50.160156 C 275.539062 50.160156 275.851562 49.769531 275.851562 49.359375 C 275.851562 48.734375 275.128906 48.460938 274.503906 48.460938 C 273.605469 48.460938 273.097656 49.359375 272.960938 49.632812 C 272.609375 48.519531 271.691406 48.460938 271.417969 48.460938 C 269.894531 48.460938 269.09375 50.414062 269.09375 50.746094 C 269.09375 50.804688 269.152344 50.882812 269.25 50.882812 C 269.367188 50.882812 269.40625 50.785156 269.425781 50.726562 C 269.933594 49.066406 270.949219 48.753906 271.378906 48.753906 C 272.042969 48.753906 272.179688 49.378906 272.179688 49.730469 C 272.179688 50.0625 272.082031 50.414062 271.90625 51.136719 L 271.398438 53.167969 C 271.183594 54.066406 270.753906 54.886719 269.953125 54.886719 C 269.875 54.886719 269.503906 54.886719 269.191406 54.691406 C 269.738281 54.59375 269.855469 54.144531 269.855469 53.96875 C 269.855469 53.675781 269.621094 53.480469 269.347656 53.480469 C 268.976562 53.480469 268.585938 53.8125 268.585938 54.28125 C 268.585938 54.90625 269.289062 55.199219 269.933594 55.199219 C 270.65625 55.199219 271.164062 54.632812 271.476562 54.007812 C 271.710938 54.886719 272.472656 55.199219 273.019531 55.199219 C 274.542969 55.199219 275.34375 53.226562 275.34375 52.914062 C 275.34375 52.835938 275.285156 52.777344 275.207031 52.777344 C 275.070312 52.777344 275.050781 52.855469 275.011719 52.972656 C 274.601562 54.28125 273.742188 54.886719 273.058594 54.886719 C 272.53125 54.886719 272.257812 54.496094 272.257812 53.890625 C 272.257812 53.558594 272.316406 53.324219 272.550781 52.347656 L 273.078125 50.296875 C 273.292969 49.417969 273.800781 48.753906 274.503906 48.753906 C 274.523438 48.753906 274.953125 48.753906 275.265625 48.949219 Z M 275.265625 48.949219 "/>
</g>
</svg>
