<?xml version="1.0" encoding="UTF-8"?>
<svg xmlns="http://www.w3.org/2000/svg" xmlns:xlink="http://www.w3.org/1999/xlink" width="263.84945pt" height="200.4944pt" viewBox="0 0 263.84945 200.4944" version="1.1">
<g id="surface1">
<path style=" stroke:none;fill-rule:nonzero;fill:rgb(0%,0%,0%);fill-opacity:1;" d="M 26.792969 7.265625 C 27.164062 7.265625 27.300781 7.265625 27.300781 6.933594 C 27.300781 6.738281 27.164062 6.738281 26.832031 6.738281 L 25.386719 6.738281 C 25.71875 4.902344 25.972656 3.632812 26.128906 3.046875 C 26.226562 2.617188 26.597656 2.207031 27.066406 2.207031 C 27.4375 2.207031 27.828125 2.363281 28.003906 2.539062 C 27.300781 2.597656 27.085938 3.125 27.085938 3.4375 C 27.085938 3.789062 27.359375 4.003906 27.691406 4.003906 C 28.0625 4.003906 28.589844 3.691406 28.589844 3.007812 C 28.589844 2.265625 27.847656 1.855469 27.046875 1.855469 C 26.285156 1.855469 25.523438 2.421875 25.171875 3.125 C 24.839844 3.75 24.664062 4.394531 24.253906 6.738281 L 23.0625 6.738281 C 22.710938 6.738281 22.535156 6.738281 22.535156 7.070312 C 22.535156 7.265625 22.632812 7.265625 23.003906 7.265625 L 24.15625 7.265625 C 23.824219 8.925781 23.082031 12.988281 22.671875 14.902344 C 22.378906 16.464844 22.105469 17.773438 21.207031 17.773438 C 21.148438 17.773438 20.640625 17.773438 20.308594 17.421875 C 21.226562 17.363281 21.226562 16.5625 21.226562 16.542969 C 21.226562 16.191406 20.953125 15.976562 20.621094 15.976562 C 20.25 15.976562 19.722656 16.289062 19.722656 16.972656 C 19.722656 17.734375 20.503906 18.125 21.207031 18.125 C 23.042969 18.125 23.785156 14.84375 23.980469 13.945312 C 24.3125 12.578125 25.191406 7.8125 25.269531 7.265625 Z M 26.792969 7.265625 "/>
<path style=" stroke:none;fill-rule:nonzero;fill:rgb(0%,0%,0%);fill-opacity:1;" d="M 32.597656 1.054688 C 32.675781 0.898438 32.714844 0.800781 32.714844 0.664062 C 32.714844 0.3125 32.402344 0 32.011719 0 C 31.660156 0 31.425781 0.234375 31.347656 0.566406 L 29.863281 6.015625 C 29.863281 6.035156 29.824219 6.171875 29.824219 6.191406 C 29.824219 6.328125 30.136719 6.40625 30.234375 6.40625 C 30.3125 6.40625 30.332031 6.367188 30.390625 6.210938 Z M 32.597656 1.054688 "/>
<path style=" stroke:none;fill-rule:nonzero;fill:rgb(0%,0%,0%);fill-opacity:1;" d="M 39.324219 18.828125 C 39.324219 18.769531 39.324219 18.730469 39.03125 18.4375 C 37.234375 16.621094 36.238281 13.671875 36.238281 10 C 36.238281 6.523438 37.078125 3.535156 39.148438 1.425781 C 39.324219 1.25 39.324219 1.230469 39.324219 1.171875 C 39.324219 1.054688 39.246094 1.035156 39.167969 1.035156 C 38.933594 1.035156 37.46875 2.324219 36.589844 4.082031 C 35.671875 5.878906 35.261719 7.8125 35.261719 10 C 35.261719 11.601562 35.515625 13.730469 36.453125 15.664062 C 37.507812 17.8125 38.972656 18.964844 39.167969 18.964844 C 39.246094 18.964844 39.324219 18.945312 39.324219 18.828125 Z M 39.324219 18.828125 "/>
<path style=" stroke:none;fill-rule:nonzero;fill:rgb(0%,0%,0%);fill-opacity:1;" d="M 48.898438 7.148438 C 48.332031 7.265625 48.117188 7.695312 48.117188 8.027344 C 48.117188 8.457031 48.449219 8.613281 48.703125 8.613281 C 49.25 8.613281 49.621094 8.144531 49.621094 7.65625 C 49.621094 6.914062 48.761719 6.5625 48 6.5625 C 46.90625 6.5625 46.300781 7.636719 46.144531 7.988281 C 45.734375 6.640625 44.621094 6.5625 44.289062 6.5625 C 42.472656 6.5625 41.496094 8.90625 41.496094 9.316406 C 41.496094 9.375 41.574219 9.472656 41.691406 9.472656 C 41.828125 9.472656 41.867188 9.355469 41.90625 9.296875 C 42.511719 7.304688 43.722656 6.933594 44.230469 6.933594 C 45.050781 6.933594 45.207031 7.675781 45.207031 8.105469 C 45.207031 8.496094 45.109375 8.90625 44.875 9.765625 L 44.269531 12.226562 C 44.015625 13.300781 43.488281 14.296875 42.53125 14.296875 C 42.453125 14.296875 42.003906 14.296875 41.613281 14.0625 C 42.257812 13.925781 42.414062 13.398438 42.414062 13.183594 C 42.414062 12.832031 42.140625 12.617188 41.808594 12.617188 C 41.378906 12.617188 40.910156 12.988281 40.910156 13.554688 C 40.910156 14.316406 41.75 14.648438 42.511719 14.648438 C 43.371094 14.648438 43.996094 13.964844 44.367188 13.242188 C 44.660156 14.296875 45.539062 14.648438 46.203125 14.648438 C 48.039062 14.648438 49.015625 12.304688 49.015625 11.914062 C 49.015625 11.816406 48.9375 11.738281 48.820312 11.738281 C 48.664062 11.738281 48.644531 11.835938 48.605469 11.972656 C 48.117188 13.554688 47.0625 14.296875 46.261719 14.296875 C 45.636719 14.296875 45.304688 13.828125 45.304688 13.085938 C 45.304688 12.695312 45.363281 12.402344 45.65625 11.230469 L 46.28125 8.789062 C 46.554688 7.714844 47.160156 6.933594 47.980469 6.933594 C 48.019531 6.933594 48.527344 6.933594 48.898438 7.148438 Z M 48.898438 7.148438 "/>
<path style=" stroke:none;fill-rule:nonzero;fill:rgb(0%,0%,0%);fill-opacity:1;" d="M 55.511719 10 C 55.511719 8.652344 55.335938 6.425781 54.320312 4.335938 C 53.265625 2.1875 51.800781 1.035156 51.605469 1.035156 C 51.527344 1.035156 51.429688 1.054688 51.429688 1.171875 C 51.429688 1.230469 51.429688 1.25 51.742188 1.5625 C 53.539062 3.378906 54.535156 6.328125 54.535156 10 C 54.535156 13.476562 53.695312 16.464844 51.625 18.574219 C 51.429688 18.730469 51.429688 18.769531 51.429688 18.828125 C 51.429688 18.945312 51.527344 18.964844 51.605469 18.964844 C 51.839844 18.964844 53.304688 17.675781 54.183594 15.917969 C 55.101562 14.101562 55.511719 12.167969 55.511719 10 Z M 55.511719 10 "/>
<path style=" stroke:none;fill-rule:nonzero;fill:rgb(0%,0%,0%);fill-opacity:1;" d="M 74.261719 8.671875 C 74.515625 8.671875 74.828125 8.671875 74.828125 8.339844 C 74.828125 8.007812 74.515625 8.007812 74.261719 8.007812 L 63.695312 8.007812 C 63.441406 8.007812 63.128906 8.007812 63.128906 8.320312 C 63.128906 8.671875 63.421875 8.671875 63.695312 8.671875 Z M 74.261719 11.992188 C 74.515625 11.992188 74.828125 11.992188 74.828125 11.679688 C 74.828125 11.328125 74.515625 11.328125 74.261719 11.328125 L 63.695312 11.328125 C 63.441406 11.328125 63.128906 11.328125 63.128906 11.660156 C 63.128906 11.992188 63.421875 11.992188 63.695312 11.992188 Z M 74.261719 11.992188 "/>
<path style=" stroke:none;fill-rule:nonzero;fill:rgb(0%,0%,0%);fill-opacity:1;" d="M 88.644531 11.464844 L 88.253906 11.464844 C 88.195312 11.757812 88.058594 12.753906 87.863281 13.046875 C 87.746094 13.203125 86.730469 13.203125 86.183594 13.203125 L 82.863281 13.203125 C 83.351562 12.792969 84.445312 11.640625 84.914062 11.210938 C 87.648438 8.691406 88.644531 7.773438 88.644531 5.996094 C 88.644531 3.925781 87.003906 2.558594 84.933594 2.558594 C 82.84375 2.558594 81.632812 4.316406 81.632812 5.859375 C 81.632812 6.777344 82.414062 6.777344 82.472656 6.777344 C 82.84375 6.777344 83.3125 6.503906 83.3125 5.9375 C 83.3125 5.429688 82.980469 5.097656 82.472656 5.097656 C 82.316406 5.097656 82.277344 5.097656 82.21875 5.117188 C 82.570312 3.886719 83.527344 3.066406 84.699219 3.066406 C 86.222656 3.066406 87.160156 4.335938 87.160156 5.996094 C 87.160156 7.519531 86.28125 8.847656 85.246094 10 L 81.632812 14.042969 L 81.632812 14.472656 L 88.175781 14.472656 Z M 88.644531 11.464844 "/>
<path style=" stroke:none;fill-rule:nonzero;fill:rgb(0%,0%,0%);fill-opacity:1;" d="M 98.101562 7.148438 C 97.535156 7.265625 97.320312 7.695312 97.320312 8.027344 C 97.320312 8.457031 97.652344 8.613281 97.90625 8.613281 C 98.453125 8.613281 98.824219 8.144531 98.824219 7.65625 C 98.824219 6.914062 97.964844 6.5625 97.203125 6.5625 C 96.109375 6.5625 95.503906 7.636719 95.347656 7.988281 C 94.9375 6.640625 93.824219 6.5625 93.492188 6.5625 C 91.675781 6.5625 90.699219 8.90625 90.699219 9.316406 C 90.699219 9.375 90.777344 9.472656 90.894531 9.472656 C 91.03125 9.472656 91.070312 9.355469 91.109375 9.296875 C 91.714844 7.304688 92.925781 6.933594 93.433594 6.933594 C 94.253906 6.933594 94.410156 7.675781 94.410156 8.105469 C 94.410156 8.496094 94.3125 8.90625 94.078125 9.765625 L 93.472656 12.226562 C 93.21875 13.300781 92.691406 14.296875 91.734375 14.296875 C 91.65625 14.296875 91.207031 14.296875 90.816406 14.0625 C 91.460938 13.925781 91.617188 13.398438 91.617188 13.183594 C 91.617188 12.832031 91.34375 12.617188 91.011719 12.617188 C 90.582031 12.617188 90.113281 12.988281 90.113281 13.554688 C 90.113281 14.316406 90.953125 14.648438 91.714844 14.648438 C 92.574219 14.648438 93.199219 13.964844 93.570312 13.242188 C 93.863281 14.296875 94.742188 14.648438 95.40625 14.648438 C 97.242188 14.648438 98.21875 12.304688 98.21875 11.914062 C 98.21875 11.816406 98.140625 11.738281 98.023438 11.738281 C 97.867188 11.738281 97.847656 11.835938 97.808594 11.972656 C 97.320312 13.554688 96.265625 14.296875 95.464844 14.296875 C 94.839844 14.296875 94.507812 13.828125 94.507812 13.085938 C 94.507812 12.695312 94.566406 12.402344 94.859375 11.230469 L 95.484375 8.789062 C 95.757812 7.714844 96.363281 6.933594 97.183594 6.933594 C 97.222656 6.933594 97.730469 6.933594 98.101562 7.148438 Z M 98.101562 7.148438 "/>
<path style=" stroke:none;fill-rule:nonzero;fill:rgb(0%,0%,0%);fill-opacity:1;" d="M 110.550781 10.332031 L 115.511719 10.332031 C 115.765625 10.332031 116.078125 10.332031 116.078125 10 C 116.078125 9.667969 115.765625 9.667969 115.511719 9.667969 L 110.550781 9.667969 L 110.550781 4.726562 C 110.550781 4.472656 110.550781 4.140625 110.238281 4.140625 C 109.886719 4.140625 109.886719 4.453125 109.886719 4.726562 L 109.886719 9.667969 L 104.945312 9.667969 C 104.691406 9.667969 104.378906 9.667969 104.378906 10 C 104.378906 10.332031 104.671875 10.332031 104.945312 10.332031 L 109.886719 10.332031 L 109.886719 15.273438 C 109.886719 15.527344 109.886719 15.859375 110.21875 15.859375 C 110.550781 15.859375 110.550781 15.546875 110.550781 15.273438 Z M 110.550781 10.332031 "/>
<path style=" stroke:none;fill-rule:nonzero;fill:rgb(0%,0%,0%);fill-opacity:1;" d="M 124.40625 8.027344 C 124.09375 8.046875 124.035156 8.066406 124.035156 8.242188 C 124.035156 8.417969 124.113281 8.417969 124.445312 8.417969 L 125.265625 8.417969 C 126.789062 8.417969 127.472656 9.667969 127.472656 11.386719 C 127.472656 13.730469 126.242188 14.355469 125.363281 14.355469 C 124.503906 14.355469 123.039062 13.945312 122.53125 12.773438 C 123.097656 12.851562 123.625 12.539062 123.625 11.894531 C 123.625 11.367188 123.234375 11.015625 122.746094 11.015625 C 122.316406 11.015625 121.847656 11.269531 121.847656 11.953125 C 121.847656 13.535156 123.429688 14.84375 125.421875 14.84375 C 127.550781 14.84375 129.132812 13.222656 129.132812 11.40625 C 129.132812 9.765625 127.804688 8.457031 126.085938 8.164062 C 127.648438 7.714844 128.644531 6.40625 128.644531 5 C 128.644531 3.59375 127.179688 2.558594 125.441406 2.558594 C 123.644531 2.558594 122.316406 3.652344 122.316406 4.960938 C 122.316406 5.664062 122.882812 5.820312 123.15625 5.820312 C 123.527344 5.820312 123.957031 5.546875 123.957031 5 C 123.957031 4.433594 123.527344 4.179688 123.136719 4.179688 C 123.019531 4.179688 122.980469 4.179688 122.941406 4.199219 C 123.625 2.988281 125.304688 2.988281 125.382812 2.988281 C 125.988281 2.988281 127.140625 3.242188 127.140625 5 C 127.140625 5.351562 127.101562 6.347656 126.574219 7.128906 C 126.027344 7.910156 125.421875 7.96875 124.933594 7.988281 Z M 124.40625 8.027344 "/>
<path style=" stroke:none;fill-rule:nonzero;fill:rgb(0%,0%,0%);fill-opacity:1;" d="M 6.367188 42.058594 C 6.367188 41.53125 5.9375 41.101562 5.429688 41.101562 C 4.902344 41.101562 4.472656 41.53125 4.472656 42.058594 C 4.472656 42.566406 4.902344 42.996094 5.429688 42.996094 C 5.917969 42.996094 6.367188 42.585938 6.367188 42.058594 Z M 10.859375 49.8125 C 10.859375 49.304688 10.429688 48.875 9.902344 48.875 C 9.394531 48.875 8.964844 49.304688 8.964844 49.8125 C 8.964844 50.339844 9.394531 50.769531 9.902344 50.769531 C 10.429688 50.769531 10.859375 50.339844 10.859375 49.8125 Z M 1.894531 49.8125 C 1.894531 49.304688 1.464844 48.875 0.9375 48.875 C 0.429688 48.875 0 49.304688 0 49.8125 C 0 50.339844 0.429688 50.769531 0.9375 50.769531 C 1.464844 50.769531 1.894531 50.339844 1.894531 49.8125 Z M 1.894531 49.8125 "/>
<path style=" stroke:none;fill-rule:nonzero;fill:rgb(0%,0%,0%);fill-opacity:1;" d="M 24.898438 42.097656 C 24.332031 42.214844 24.117188 42.644531 24.117188 42.976562 C 24.117188 43.40625 24.449219 43.5625 24.703125 43.5625 C 25.25 43.5625 25.621094 43.09375 25.621094 42.605469 C 25.621094 41.863281 24.761719 41.511719 24 41.511719 C 22.90625 41.511719 22.300781 42.585938 22.144531 42.9375 C 21.734375 41.589844 20.621094 41.511719 20.289062 41.511719 C 18.472656 41.511719 17.496094 43.855469 17.496094 44.265625 C 17.496094 44.324219 17.574219 44.421875 17.691406 44.421875 C 17.828125 44.421875 17.867188 44.304688 17.90625 44.246094 C 18.511719 42.253906 19.722656 41.882812 20.230469 41.882812 C 21.050781 41.882812 21.207031 42.625 21.207031 43.054688 C 21.207031 43.445312 21.109375 43.855469 20.875 44.714844 L 20.269531 47.175781 C 20.015625 48.25 19.488281 49.246094 18.53125 49.246094 C 18.453125 49.246094 18.003906 49.246094 17.613281 49.011719 C 18.257812 48.875 18.414062 48.347656 18.414062 48.132812 C 18.414062 47.78125 18.140625 47.566406 17.808594 47.566406 C 17.378906 47.566406 16.910156 47.9375 16.910156 48.503906 C 16.910156 49.265625 17.75 49.597656 18.511719 49.597656 C 19.371094 49.597656 19.996094 48.914062 20.367188 48.191406 C 20.660156 49.246094 21.539062 49.597656 22.203125 49.597656 C 24.039062 49.597656 25.015625 47.253906 25.015625 46.863281 C 25.015625 46.765625 24.9375 46.6875 24.820312 46.6875 C 24.664062 46.6875 24.644531 46.785156 24.605469 46.921875 C 24.117188 48.503906 23.0625 49.246094 22.261719 49.246094 C 21.636719 49.246094 21.304688 48.777344 21.304688 48.035156 C 21.304688 47.644531 21.363281 47.351562 21.65625 46.179688 L 22.28125 43.738281 C 22.554688 42.664062 23.160156 41.882812 23.980469 41.882812 C 24.019531 41.882812 24.527344 41.882812 24.898438 42.097656 Z M 24.898438 42.097656 "/>
<path style=" stroke:none;fill-rule:nonzero;fill:rgb(0%,0%,0%);fill-opacity:1;" d="M 42.171875 45.300781 C 42.484375 45.300781 42.796875 45.300781 42.796875 44.949219 C 42.796875 44.578125 42.484375 44.578125 42.171875 44.578125 L 32.464844 44.578125 C 32.171875 44.578125 31.839844 44.578125 31.839844 44.949219 C 31.839844 45.300781 32.171875 45.300781 32.464844 45.300781 Z M 42.171875 45.300781 "/>
<path style=" stroke:none;fill-rule:nonzero;fill:rgb(0%,0%,0%);fill-opacity:1;" d="M 51.65625 42.976562 C 51.34375 42.996094 51.285156 43.015625 51.285156 43.191406 C 51.285156 43.367188 51.363281 43.367188 51.695312 43.367188 L 52.515625 43.367188 C 54.039062 43.367188 54.722656 44.617188 54.722656 46.335938 C 54.722656 48.679688 53.492188 49.304688 52.613281 49.304688 C 51.753906 49.304688 50.289062 48.894531 49.78125 47.722656 C 50.347656 47.800781 50.875 47.488281 50.875 46.84375 C 50.875 46.316406 50.484375 45.964844 49.996094 45.964844 C 49.566406 45.964844 49.097656 46.21875 49.097656 46.902344 C 49.097656 48.484375 50.679688 49.792969 52.671875 49.792969 C 54.800781 49.792969 56.382812 48.171875 56.382812 46.355469 C 56.382812 44.714844 55.054688 43.40625 53.335938 43.113281 C 54.898438 42.664062 55.894531 41.355469 55.894531 39.949219 C 55.894531 38.542969 54.429688 37.507812 52.691406 37.507812 C 50.894531 37.507812 49.566406 38.601562 49.566406 39.910156 C 49.566406 40.613281 50.132812 40.769531 50.40625 40.769531 C 50.777344 40.769531 51.207031 40.496094 51.207031 39.949219 C 51.207031 39.382812 50.777344 39.128906 50.386719 39.128906 C 50.269531 39.128906 50.230469 39.128906 50.191406 39.148438 C 50.875 37.9375 52.554688 37.9375 52.632812 37.9375 C 53.238281 37.9375 54.390625 38.191406 54.390625 39.949219 C 54.390625 40.300781 54.351562 41.296875 53.824219 42.078125 C 53.277344 42.859375 52.671875 42.917969 52.183594 42.9375 Z M 51.65625 42.976562 "/>
<path style=" stroke:none;fill-rule:nonzero;fill:rgb(0%,0%,0%);fill-opacity:1;" d="M 74.261719 43.621094 C 74.515625 43.621094 74.828125 43.621094 74.828125 43.289062 C 74.828125 42.957031 74.515625 42.957031 74.261719 42.957031 L 63.695312 42.957031 C 63.441406 42.957031 63.128906 42.957031 63.128906 43.269531 C 63.128906 43.621094 63.421875 43.621094 63.695312 43.621094 Z M 74.261719 46.941406 C 74.515625 46.941406 74.828125 46.941406 74.828125 46.628906 C 74.828125 46.277344 74.515625 46.277344 74.261719 46.277344 L 63.695312 46.277344 C 63.441406 46.277344 63.128906 46.277344 63.128906 46.609375 C 63.128906 46.941406 63.421875 46.941406 63.695312 46.941406 Z M 74.261719 46.941406 "/>
<path style=" stroke:none;fill-rule:nonzero;fill:rgb(0%,0%,0%);fill-opacity:1;" d="M 87.410156 25.789062 C 87.410156 25.359375 87.410156 25.359375 87.058594 25.359375 C 86.628906 25.828125 85.730469 26.492188 83.894531 26.492188 L 83.894531 27.019531 C 84.304688 27.019531 85.203125 27.019531 86.179688 26.550781 L 86.179688 35.886719 C 86.179688 36.53125 86.121094 36.746094 84.558594 36.746094 L 83.992188 36.746094 L 83.992188 37.273438 C 84.480469 37.234375 86.21875 37.234375 86.804688 37.234375 C 87.390625 37.234375 89.128906 37.234375 89.597656 37.273438 L 89.597656 36.746094 L 89.050781 36.746094 C 87.46875 36.746094 87.410156 36.53125 87.410156 35.886719 Z M 87.410156 25.789062 "/>
<path style=" stroke:none;fill-rule:nonzero;fill:rgb(0%,0%,0%);fill-opacity:1;" d="M 82.238281 44.636719 L 91.085938 44.636719 L 91.085938 45.386719 L 82.238281 45.386719 Z M 82.238281 44.636719 "/>
<path style=" stroke:none;fill-rule:nonzero;fill:rgb(0%,0%,0%);fill-opacity:1;" d="M 90.144531 58.714844 L 89.753906 58.714844 C 89.695312 59.007812 89.558594 60.003906 89.363281 60.296875 C 89.246094 60.453125 88.230469 60.453125 87.683594 60.453125 L 84.363281 60.453125 C 84.851562 60.042969 85.945312 58.890625 86.414062 58.460938 C 89.148438 55.941406 90.144531 55.023438 90.144531 53.246094 C 90.144531 51.175781 88.503906 49.808594 86.433594 49.808594 C 84.34375 49.808594 83.132812 51.566406 83.132812 53.109375 C 83.132812 54.027344 83.914062 54.027344 83.972656 54.027344 C 84.34375 54.027344 84.8125 53.753906 84.8125 53.1875 C 84.8125 52.679688 84.480469 52.347656 83.972656 52.347656 C 83.816406 52.347656 83.777344 52.347656 83.71875 52.367188 C 84.070312 51.136719 85.027344 50.316406 86.199219 50.316406 C 87.722656 50.316406 88.660156 51.585938 88.660156 53.246094 C 88.660156 54.769531 87.78125 56.097656 86.746094 57.25 L 83.132812 61.292969 L 83.132812 61.722656 L 89.675781 61.722656 Z M 90.144531 58.714844 "/>
<path style=" stroke:none;fill-rule:nonzero;fill:rgb(0%,0%,0%);fill-opacity:1;" d="M 99.941406 44.949219 C 99.941406 44.421875 99.511719 43.992188 99.003906 43.992188 C 98.476562 43.992188 98.046875 44.421875 98.046875 44.949219 C 98.046875 45.457031 98.476562 45.886719 99.003906 45.886719 C 99.511719 45.886719 99.941406 45.457031 99.941406 44.949219 Z M 99.941406 44.949219 "/>
<path style=" stroke:none;fill-rule:nonzero;fill:rgb(0%,0%,0%);fill-opacity:1;" d="M 111.324219 53.777344 C 111.324219 53.71875 111.324219 53.679688 111.03125 53.386719 C 109.234375 51.570312 108.238281 48.621094 108.238281 44.949219 C 108.238281 41.472656 109.078125 38.484375 111.148438 36.375 C 111.324219 36.199219 111.324219 36.179688 111.324219 36.121094 C 111.324219 36.003906 111.246094 35.984375 111.167969 35.984375 C 110.933594 35.984375 109.46875 37.273438 108.589844 39.03125 C 107.671875 40.828125 107.261719 42.761719 107.261719 44.949219 C 107.261719 46.550781 107.515625 48.679688 108.453125 50.613281 C 109.507812 52.761719 110.972656 53.914062 111.167969 53.914062 C 111.246094 53.914062 111.324219 53.894531 111.324219 53.777344 Z M 111.324219 53.777344 "/>
<path style=" stroke:none;fill-rule:nonzero;fill:rgb(0%,0%,0%);fill-opacity:1;" d="M 120.144531 46.414062 L 119.753906 46.414062 C 119.695312 46.707031 119.558594 47.703125 119.363281 47.996094 C 119.246094 48.152344 118.230469 48.152344 117.683594 48.152344 L 114.363281 48.152344 C 114.851562 47.742188 115.945312 46.589844 116.414062 46.160156 C 119.148438 43.640625 120.144531 42.722656 120.144531 40.945312 C 120.144531 38.875 118.503906 37.507812 116.433594 37.507812 C 114.34375 37.507812 113.132812 39.265625 113.132812 40.808594 C 113.132812 41.726562 113.914062 41.726562 113.972656 41.726562 C 114.34375 41.726562 114.8125 41.453125 114.8125 40.886719 C 114.8125 40.378906 114.480469 40.046875 113.972656 40.046875 C 113.816406 40.046875 113.777344 40.046875 113.71875 40.066406 C 114.070312 38.835938 115.027344 38.015625 116.199219 38.015625 C 117.722656 38.015625 118.660156 39.285156 118.660156 40.945312 C 118.660156 42.46875 117.78125 43.796875 116.746094 44.949219 L 113.132812 48.992188 L 113.132812 49.421875 L 119.675781 49.421875 Z M 120.144531 46.414062 "/>
<path style=" stroke:none;fill-rule:nonzero;fill:rgb(0%,0%,0%);fill-opacity:1;" d="M 129.601562 42.097656 C 129.035156 42.214844 128.820312 42.644531 128.820312 42.976562 C 128.820312 43.40625 129.152344 43.5625 129.40625 43.5625 C 129.953125 43.5625 130.324219 43.09375 130.324219 42.605469 C 130.324219 41.863281 129.464844 41.511719 128.703125 41.511719 C 127.609375 41.511719 127.003906 42.585938 126.847656 42.9375 C 126.4375 41.589844 125.324219 41.511719 124.992188 41.511719 C 123.175781 41.511719 122.199219 43.855469 122.199219 44.265625 C 122.199219 44.324219 122.277344 44.421875 122.394531 44.421875 C 122.53125 44.421875 122.570312 44.304688 122.609375 44.246094 C 123.214844 42.253906 124.425781 41.882812 124.933594 41.882812 C 125.753906 41.882812 125.910156 42.625 125.910156 43.054688 C 125.910156 43.445312 125.8125 43.855469 125.578125 44.714844 L 124.972656 47.175781 C 124.71875 48.25 124.191406 49.246094 123.234375 49.246094 C 123.15625 49.246094 122.707031 49.246094 122.316406 49.011719 C 122.960938 48.875 123.117188 48.347656 123.117188 48.132812 C 123.117188 47.78125 122.84375 47.566406 122.511719 47.566406 C 122.082031 47.566406 121.613281 47.9375 121.613281 48.503906 C 121.613281 49.265625 122.453125 49.597656 123.214844 49.597656 C 124.074219 49.597656 124.699219 48.914062 125.070312 48.191406 C 125.363281 49.246094 126.242188 49.597656 126.90625 49.597656 C 128.742188 49.597656 129.71875 47.253906 129.71875 46.863281 C 129.71875 46.765625 129.640625 46.6875 129.523438 46.6875 C 129.367188 46.6875 129.347656 46.785156 129.308594 46.921875 C 128.820312 48.503906 127.765625 49.246094 126.964844 49.246094 C 126.339844 49.246094 126.007812 48.777344 126.007812 48.035156 C 126.007812 47.644531 126.066406 47.351562 126.359375 46.179688 L 126.984375 43.738281 C 127.257812 42.664062 127.863281 41.882812 128.683594 41.882812 C 128.722656 41.882812 129.230469 41.882812 129.601562 42.097656 Z M 129.601562 42.097656 "/>
<path style=" stroke:none;fill-rule:nonzero;fill:rgb(0%,0%,0%);fill-opacity:1;" d="M 142.203125 45.28125 L 147.164062 45.28125 C 147.417969 45.28125 147.730469 45.28125 147.730469 44.949219 C 147.730469 44.617188 147.417969 44.617188 147.164062 44.617188 L 142.203125 44.617188 L 142.203125 39.675781 C 142.203125 39.421875 142.203125 39.089844 141.890625 39.089844 C 141.539062 39.089844 141.539062 39.402344 141.539062 39.675781 L 141.539062 44.617188 L 136.597656 44.617188 C 136.34375 44.617188 136.03125 44.617188 136.03125 44.949219 C 136.03125 45.28125 136.324219 45.28125 136.597656 45.28125 L 141.539062 45.28125 L 141.539062 50.222656 C 141.539062 50.476562 141.539062 50.808594 141.871094 50.808594 C 142.203125 50.808594 142.203125 50.496094 142.203125 50.222656 Z M 142.203125 45.28125 "/>
<path style=" stroke:none;fill-rule:nonzero;fill:rgb(0%,0%,0%);fill-opacity:1;" d="M 155.90625 42.976562 C 155.59375 42.996094 155.535156 43.015625 155.535156 43.191406 C 155.535156 43.367188 155.613281 43.367188 155.945312 43.367188 L 156.765625 43.367188 C 158.289062 43.367188 158.972656 44.617188 158.972656 46.335938 C 158.972656 48.679688 157.742188 49.304688 156.863281 49.304688 C 156.003906 49.304688 154.539062 48.894531 154.03125 47.722656 C 154.597656 47.800781 155.125 47.488281 155.125 46.84375 C 155.125 46.316406 154.734375 45.964844 154.246094 45.964844 C 153.816406 45.964844 153.347656 46.21875 153.347656 46.902344 C 153.347656 48.484375 154.929688 49.792969 156.921875 49.792969 C 159.050781 49.792969 160.632812 48.171875 160.632812 46.355469 C 160.632812 44.714844 159.304688 43.40625 157.585938 43.113281 C 159.148438 42.664062 160.144531 41.355469 160.144531 39.949219 C 160.144531 38.542969 158.679688 37.507812 156.941406 37.507812 C 155.144531 37.507812 153.816406 38.601562 153.816406 39.910156 C 153.816406 40.613281 154.382812 40.769531 154.65625 40.769531 C 155.027344 40.769531 155.457031 40.496094 155.457031 39.949219 C 155.457031 39.382812 155.027344 39.128906 154.636719 39.128906 C 154.519531 39.128906 154.480469 39.128906 154.441406 39.148438 C 155.125 37.9375 156.804688 37.9375 156.882812 37.9375 C 157.488281 37.9375 158.640625 38.191406 158.640625 39.949219 C 158.640625 40.300781 158.601562 41.296875 158.074219 42.078125 C 157.527344 42.859375 156.921875 42.917969 156.433594 42.9375 Z M 155.90625 42.976562 "/>
<path style=" stroke:none;fill-rule:nonzero;fill:rgb(0%,0%,0%);fill-opacity:1;" d="M 166.511719 44.949219 C 166.511719 43.601562 166.335938 41.375 165.320312 39.285156 C 164.265625 37.136719 162.800781 35.984375 162.605469 35.984375 C 162.527344 35.984375 162.429688 36.003906 162.429688 36.121094 C 162.429688 36.179688 162.429688 36.199219 162.742188 36.511719 C 164.539062 38.328125 165.535156 41.277344 165.535156 44.949219 C 165.535156 48.425781 164.695312 51.414062 162.625 53.523438 C 162.429688 53.679688 162.429688 53.71875 162.429688 53.777344 C 162.429688 53.894531 162.527344 53.914062 162.605469 53.914062 C 162.839844 53.914062 164.304688 52.625 165.183594 50.867188 C 166.101562 49.050781 166.511719 47.117188 166.511719 44.949219 Z M 166.511719 44.949219 "/>
<path style=" stroke:none;fill-rule:nonzero;fill:rgb(0%,0%,0%);fill-opacity:1;" d="M 184.070312 45.300781 C 184.382812 45.300781 184.695312 45.300781 184.695312 44.949219 C 184.695312 44.578125 184.382812 44.578125 184.070312 44.578125 L 174.363281 44.578125 C 174.070312 44.578125 173.738281 44.578125 173.738281 44.949219 C 173.738281 45.300781 174.070312 45.300781 174.363281 45.300781 Z M 184.070312 45.300781 "/>
<path style=" stroke:none;fill-rule:nonzero;fill:rgb(0%,0%,0%);fill-opacity:1;" d="M 198.164062 32.058594 C 198.164062 36.296875 196.289062 37.15625 195.214844 37.15625 C 194.765625 37.15625 193.828125 37.117188 193.378906 36.492188 L 193.476562 36.492188 C 193.613281 36.511719 194.257812 36.414062 194.257812 35.75 C 194.257812 35.359375 193.984375 35.007812 193.515625 35.007812 C 193.046875 35.007812 192.773438 35.320312 192.773438 35.789062 C 192.773438 36.902344 193.671875 37.644531 195.214844 37.644531 C 197.460938 37.644531 199.628906 35.261719 199.628906 31.375 C 199.628906 26.550781 197.617188 25.359375 196.054688 25.359375 C 194.082031 25.359375 192.34375 27 192.34375 29.363281 C 192.34375 31.726562 194.003906 33.347656 195.800781 33.347656 C 197.128906 33.347656 197.8125 32.371094 198.164062 31.472656 Z M 195.859375 32.996094 C 194.746094 32.996094 194.257812 32.078125 194.101562 31.726562 C 193.808594 31.042969 193.808594 30.183594 193.808594 29.382812 C 193.808594 28.386719 193.808594 27.527344 194.277344 26.785156 C 194.589844 26.296875 195.078125 25.789062 196.054688 25.789062 C 197.070312 25.789062 197.597656 26.667969 197.773438 27.097656 C 198.125 27.976562 198.125 29.5 198.125 29.753906 C 198.125 31.257812 197.441406 32.996094 195.859375 32.996094 Z M 195.859375 32.996094 "/>
<path style=" stroke:none;fill-rule:nonzero;fill:rgb(0%,0%,0%);fill-opacity:1;" d="M 191.585938 44.636719 L 200.433594 44.636719 L 200.433594 45.386719 L 191.585938 45.386719 Z M 191.585938 44.636719 "/>
<path style=" stroke:none;fill-rule:nonzero;fill:rgb(0%,0%,0%);fill-opacity:1;" d="M 199.492188 58.714844 L 199.101562 58.714844 C 199.042969 59.007812 198.90625 60.003906 198.710938 60.296875 C 198.59375 60.453125 197.578125 60.453125 197.03125 60.453125 L 193.710938 60.453125 C 194.199219 60.042969 195.292969 58.890625 195.761719 58.460938 C 198.496094 55.941406 199.492188 55.023438 199.492188 53.246094 C 199.492188 51.175781 197.851562 49.808594 195.78125 49.808594 C 193.691406 49.808594 192.480469 51.566406 192.480469 53.109375 C 192.480469 54.027344 193.261719 54.027344 193.320312 54.027344 C 193.691406 54.027344 194.160156 53.753906 194.160156 53.1875 C 194.160156 52.679688 193.828125 52.347656 193.320312 52.347656 C 193.164062 52.347656 193.125 52.347656 193.066406 52.367188 C 193.417969 51.136719 194.375 50.316406 195.546875 50.316406 C 197.070312 50.316406 198.007812 51.585938 198.007812 53.246094 C 198.007812 54.769531 197.128906 56.097656 196.09375 57.25 L 192.480469 61.292969 L 192.480469 61.722656 L 199.023438 61.722656 Z M 199.492188 58.714844 "/>
<path style=" stroke:none;fill-rule:nonzero;fill:rgb(0%,0%,0%);fill-opacity:1;" d="M 54.503906 80.203125 C 54.660156 79.578125 54.699219 79.402344 56.007812 79.402344 C 56.398438 79.402344 56.535156 79.402344 56.535156 79.050781 C 56.535156 78.875 56.339844 78.875 56.300781 78.875 C 55.96875 78.875 55.578125 78.914062 55.246094 78.914062 L 53.039062 78.914062 C 52.6875 78.914062 52.277344 78.875 51.925781 78.875 C 51.769531 78.875 51.574219 78.875 51.574219 79.207031 C 51.574219 79.402344 51.730469 79.402344 52.082031 79.402344 C 53.195312 79.402344 53.195312 79.539062 53.195312 79.734375 C 53.195312 79.851562 53.15625 79.96875 53.117188 80.125 L 50.695312 89.792969 C 50.539062 90.417969 50.5 90.59375 49.191406 90.59375 C 48.800781 90.59375 48.644531 90.59375 48.644531 90.945312 C 48.644531 91.121094 48.820312 91.121094 48.898438 91.121094 C 49.230469 91.121094 49.621094 91.082031 49.953125 91.082031 L 52.160156 91.082031 C 52.511719 91.082031 52.902344 91.121094 53.253906 91.121094 C 53.410156 91.121094 53.625 91.121094 53.625 90.789062 C 53.625 90.59375 53.507812 90.59375 53.117188 90.59375 C 52.003906 90.59375 52.003906 90.457031 52.003906 90.242188 C 52.003906 90.203125 52.003906 90.125 52.082031 89.832031 Z M 54.503906 80.203125 "/>
<path style=" stroke:none;fill-rule:nonzero;fill:rgb(0%,0%,0%);fill-opacity:1;" d="M 74.261719 85.320312 C 74.515625 85.320312 74.828125 85.320312 74.828125 84.988281 C 74.828125 84.65625 74.515625 84.65625 74.261719 84.65625 L 63.695312 84.65625 C 63.441406 84.65625 63.128906 84.65625 63.128906 84.96875 C 63.128906 85.320312 63.421875 85.320312 63.695312 85.320312 Z M 74.261719 88.640625 C 74.515625 88.640625 74.828125 88.640625 74.828125 88.328125 C 74.828125 87.976562 74.515625 87.976562 74.261719 87.976562 L 63.695312 87.976562 C 63.441406 87.976562 63.128906 87.976562 63.128906 88.308594 C 63.128906 88.640625 63.421875 88.640625 63.695312 88.640625 Z M 74.261719 88.640625 "/>
<path style=" stroke:none;fill-rule:nonzero;fill:rgb(0%,0%,0%);fill-opacity:1;" d="M 87.410156 67.488281 C 87.410156 67.058594 87.410156 67.058594 87.058594 67.058594 C 86.628906 67.527344 85.730469 68.191406 83.894531 68.191406 L 83.894531 68.71875 C 84.304688 68.71875 85.203125 68.71875 86.179688 68.25 L 86.179688 77.585938 C 86.179688 78.230469 86.121094 78.445312 84.558594 78.445312 L 83.992188 78.445312 L 83.992188 78.972656 C 84.480469 78.933594 86.21875 78.933594 86.804688 78.933594 C 87.390625 78.933594 89.128906 78.933594 89.597656 78.972656 L 89.597656 78.445312 L 89.050781 78.445312 C 87.46875 78.445312 87.410156 78.230469 87.410156 77.585938 Z M 87.410156 67.488281 "/>
<path style=" stroke:none;fill-rule:nonzero;fill:rgb(0%,0%,0%);fill-opacity:1;" d="M 82.238281 86.335938 L 91.085938 86.335938 L 91.085938 87.085938 L 82.238281 87.085938 Z M 82.238281 86.335938 "/>
<path style=" stroke:none;fill-rule:nonzero;fill:rgb(0%,0%,0%);fill-opacity:1;" d="M 90.144531 100.414062 L 89.753906 100.414062 C 89.695312 100.707031 89.558594 101.703125 89.363281 101.996094 C 89.246094 102.152344 88.230469 102.152344 87.683594 102.152344 L 84.363281 102.152344 C 84.851562 101.742188 85.945312 100.589844 86.414062 100.160156 C 89.148438 97.640625 90.144531 96.722656 90.144531 94.945312 C 90.144531 92.875 88.503906 91.507812 86.433594 91.507812 C 84.34375 91.507812 83.132812 93.265625 83.132812 94.808594 C 83.132812 95.726562 83.914062 95.726562 83.972656 95.726562 C 84.34375 95.726562 84.8125 95.453125 84.8125 94.886719 C 84.8125 94.378906 84.480469 94.046875 83.972656 94.046875 C 83.816406 94.046875 83.777344 94.046875 83.71875 94.066406 C 84.070312 92.835938 85.027344 92.015625 86.199219 92.015625 C 87.722656 92.015625 88.660156 93.285156 88.660156 94.945312 C 88.660156 96.46875 87.78125 97.796875 86.746094 98.949219 L 83.132812 102.992188 L 83.132812 103.421875 L 89.675781 103.421875 Z M 90.144531 100.414062 "/>
<path style=" stroke:none;fill-rule:nonzero;fill:rgb(0%,0%,0%);fill-opacity:1;" d="M 97.308594 105.695312 C 97.894531 105.675781 98.1875 105.265625 98.1875 104.835938 C 98.1875 104.230469 97.757812 103.957031 97.328125 103.957031 C 96.898438 103.957031 96.449219 104.210938 96.449219 104.835938 C 96.449219 105.753906 97.347656 106.515625 98.441406 106.515625 C 101.175781 106.515625 102.191406 102.316406 103.460938 97.121094 C 104.847656 91.457031 106.019531 85.734375 106.976562 79.972656 C 107.640625 76.164062 108.304688 72.570312 108.910156 70.265625 C 109.125 69.386719 109.75 67.0625 110.433594 67.0625 C 111 67.0625 111.449219 67.414062 111.527344 67.472656 C 110.921875 67.511719 110.628906 67.902344 110.628906 68.351562 C 110.628906 68.957031 111.078125 69.230469 111.488281 69.230469 C 111.917969 69.230469 112.367188 68.976562 112.367188 68.332031 C 112.367188 67.375 111.390625 66.671875 110.414062 66.671875 C 109.046875 66.671875 108.03125 68.625 107.054688 72.277344 C 106.996094 72.472656 104.554688 81.476562 102.582031 93.214844 C 102.113281 95.949219 101.605469 98.9375 101.019531 101.4375 C 100.6875 102.746094 99.867188 106.125 98.402344 106.125 C 97.757812 106.125 97.328125 105.695312 97.308594 105.695312 Z M 97.308594 105.695312 "/>
<path style=" stroke:none;fill-rule:nonzero;fill:rgb(0%,0%,0%);fill-opacity:1;" d="M 157.042969 75.964844 L 156.652344 75.964844 C 156.59375 76.257812 156.457031 77.253906 156.261719 77.546875 C 156.144531 77.703125 155.128906 77.703125 154.582031 77.703125 L 151.261719 77.703125 C 151.75 77.292969 152.84375 76.140625 153.3125 75.710938 C 156.046875 73.191406 157.042969 72.273438 157.042969 70.496094 C 157.042969 68.425781 155.402344 67.058594 153.332031 67.058594 C 151.242188 67.058594 150.03125 68.816406 150.03125 70.359375 C 150.03125 71.277344 150.8125 71.277344 150.871094 71.277344 C 151.242188 71.277344 151.710938 71.003906 151.710938 70.4375 C 151.710938 69.929688 151.378906 69.597656 150.871094 69.597656 C 150.714844 69.597656 150.675781 69.597656 150.617188 69.617188 C 150.96875 68.386719 151.925781 67.566406 153.097656 67.566406 C 154.621094 67.566406 155.558594 68.835938 155.558594 70.496094 C 155.558594 72.019531 154.679688 73.347656 153.644531 74.5 L 150.03125 78.542969 L 150.03125 78.972656 L 156.574219 78.972656 Z M 157.042969 75.964844 "/>
<path style=" stroke:none;fill-rule:nonzero;fill:rgb(0%,0%,0%);fill-opacity:1;" d="M 166.5 71.648438 C 165.933594 71.765625 165.71875 72.195312 165.71875 72.527344 C 165.71875 72.957031 166.050781 73.113281 166.304688 73.113281 C 166.851562 73.113281 167.222656 72.644531 167.222656 72.15625 C 167.222656 71.414062 166.363281 71.0625 165.601562 71.0625 C 164.507812 71.0625 163.902344 72.136719 163.746094 72.488281 C 163.335938 71.140625 162.222656 71.0625 161.890625 71.0625 C 160.074219 71.0625 159.097656 73.40625 159.097656 73.816406 C 159.097656 73.875 159.175781 73.972656 159.292969 73.972656 C 159.429688 73.972656 159.46875 73.855469 159.507812 73.796875 C 160.113281 71.804688 161.324219 71.433594 161.832031 71.433594 C 162.652344 71.433594 162.808594 72.175781 162.808594 72.605469 C 162.808594 72.996094 162.710938 73.40625 162.476562 74.265625 L 161.871094 76.726562 C 161.617188 77.800781 161.089844 78.796875 160.132812 78.796875 C 160.054688 78.796875 159.605469 78.796875 159.214844 78.5625 C 159.859375 78.425781 160.015625 77.898438 160.015625 77.683594 C 160.015625 77.332031 159.742188 77.117188 159.410156 77.117188 C 158.980469 77.117188 158.511719 77.488281 158.511719 78.054688 C 158.511719 78.816406 159.351562 79.148438 160.113281 79.148438 C 160.972656 79.148438 161.597656 78.464844 161.96875 77.742188 C 162.261719 78.796875 163.140625 79.148438 163.804688 79.148438 C 165.640625 79.148438 166.617188 76.804688 166.617188 76.414062 C 166.617188 76.316406 166.539062 76.238281 166.421875 76.238281 C 166.265625 76.238281 166.246094 76.335938 166.207031 76.472656 C 165.71875 78.054688 164.664062 78.796875 163.863281 78.796875 C 163.238281 78.796875 162.90625 78.328125 162.90625 77.585938 C 162.90625 77.195312 162.964844 76.902344 163.257812 75.730469 L 163.882812 73.289062 C 164.15625 72.214844 164.761719 71.433594 165.582031 71.433594 C 165.621094 71.433594 166.128906 71.433594 166.5 71.648438 Z M 166.5 71.648438 "/>
<path style=" stroke:none;fill-rule:nonzero;fill:rgb(0%,0%,0%);fill-opacity:1;" d="M 178.953125 74.832031 L 183.914062 74.832031 C 184.167969 74.832031 184.480469 74.832031 184.480469 74.5 C 184.480469 74.167969 184.167969 74.167969 183.914062 74.167969 L 178.953125 74.167969 L 178.953125 69.226562 C 178.953125 68.972656 178.953125 68.640625 178.640625 68.640625 C 178.289062 68.640625 178.289062 68.953125 178.289062 69.226562 L 178.289062 74.167969 L 173.347656 74.167969 C 173.09375 74.167969 172.78125 74.167969 172.78125 74.5 C 172.78125 74.832031 173.074219 74.832031 173.347656 74.832031 L 178.289062 74.832031 L 178.289062 79.773438 C 178.289062 80.027344 178.289062 80.359375 178.621094 80.359375 C 178.953125 80.359375 178.953125 80.046875 178.953125 79.773438 Z M 178.953125 74.832031 "/>
<path style=" stroke:none;fill-rule:nonzero;fill:rgb(0%,0%,0%);fill-opacity:1;" d="M 192.804688 72.527344 C 192.492188 72.546875 192.433594 72.566406 192.433594 72.742188 C 192.433594 72.917969 192.511719 72.917969 192.84375 72.917969 L 193.664062 72.917969 C 195.1875 72.917969 195.871094 74.167969 195.871094 75.886719 C 195.871094 78.230469 194.640625 78.855469 193.761719 78.855469 C 192.902344 78.855469 191.4375 78.445312 190.929688 77.273438 C 191.496094 77.351562 192.023438 77.039062 192.023438 76.394531 C 192.023438 75.867188 191.632812 75.515625 191.144531 75.515625 C 190.714844 75.515625 190.246094 75.769531 190.246094 76.453125 C 190.246094 78.035156 191.828125 79.34375 193.820312 79.34375 C 195.949219 79.34375 197.53125 77.722656 197.53125 75.90625 C 197.53125 74.265625 196.203125 72.957031 194.484375 72.664062 C 196.046875 72.214844 197.042969 70.90625 197.042969 69.5 C 197.042969 68.09375 195.578125 67.058594 193.839844 67.058594 C 192.042969 67.058594 190.714844 68.152344 190.714844 69.460938 C 190.714844 70.164062 191.28125 70.320312 191.554688 70.320312 C 191.925781 70.320312 192.355469 70.046875 192.355469 69.5 C 192.355469 68.933594 191.925781 68.679688 191.535156 68.679688 C 191.417969 68.679688 191.378906 68.679688 191.339844 68.699219 C 192.023438 67.488281 193.703125 67.488281 193.78125 67.488281 C 194.386719 67.488281 195.539062 67.742188 195.539062 69.5 C 195.539062 69.851562 195.5 70.847656 194.972656 71.628906 C 194.425781 72.410156 193.820312 72.46875 193.332031 72.488281 Z M 192.804688 72.527344 "/>
<path style=" stroke:none;fill-rule:nonzero;fill:rgb(0%,0%,0%);fill-opacity:1;" d="M 117.941406 86.335938 L 229.6875 86.335938 L 229.6875 87.085938 L 117.941406 87.085938 Z M 117.941406 86.335938 "/>
<path style=" stroke:none;fill-rule:nonzero;fill:rgb(0%,0%,0%);fill-opacity:1;" d="M 124.925781 105.855469 L 121.78125 98.882812 C 121.644531 98.589844 121.566406 98.589844 121.507812 98.589844 C 121.488281 98.589844 121.390625 98.589844 121.195312 98.726562 L 119.496094 100.035156 C 119.261719 100.210938 119.261719 100.25 119.261719 100.308594 C 119.261719 100.40625 119.320312 100.503906 119.4375 100.503906 C 119.554688 100.503906 119.847656 100.25 120.042969 100.113281 C 120.160156 100.035156 120.433594 99.820312 120.628906 99.683594 L 124.164062 107.457031 C 124.28125 107.730469 124.378906 107.730469 124.535156 107.730469 C 124.808594 107.730469 124.847656 107.632812 124.984375 107.378906 L 133.128906 90.523438 C 133.246094 90.269531 133.246094 90.191406 133.246094 90.171875 C 133.246094 89.976562 133.109375 89.800781 132.894531 89.800781 C 132.738281 89.800781 132.621094 89.898438 132.484375 90.191406 Z M 124.925781 105.855469 "/>
<path style=" stroke:none;fill-rule:nonzero;fill:rgb(0%,0%,0%);fill-opacity:1;" d="M 132.789062 89.789062 L 229.535156 89.789062 L 229.535156 90.539062 L 132.789062 90.539062 Z M 132.789062 89.789062 "/>
<path style=" stroke:none;fill-rule:nonzero;fill:rgb(0%,0%,0%);fill-opacity:1;" d="M 141.300781 98.199219 C 140.734375 98.316406 140.519531 98.746094 140.519531 99.078125 C 140.519531 99.507812 140.851562 99.664062 141.105469 99.664062 C 141.652344 99.664062 142.023438 99.195312 142.023438 98.707031 C 142.023438 97.964844 141.164062 97.613281 140.402344 97.613281 C 139.308594 97.613281 138.703125 98.6875 138.546875 99.039062 C 138.136719 97.691406 137.023438 97.613281 136.691406 97.613281 C 134.875 97.613281 133.898438 99.957031 133.898438 100.367188 C 133.898438 100.425781 133.976562 100.523438 134.09375 100.523438 C 134.230469 100.523438 134.269531 100.40625 134.308594 100.347656 C 134.914062 98.355469 136.125 97.984375 136.632812 97.984375 C 137.453125 97.984375 137.609375 98.726562 137.609375 99.15625 C 137.609375 99.546875 137.511719 99.957031 137.277344 100.816406 L 136.671875 103.277344 C 136.417969 104.351562 135.890625 105.347656 134.933594 105.347656 C 134.855469 105.347656 134.40625 105.347656 134.015625 105.113281 C 134.660156 104.976562 134.816406 104.449219 134.816406 104.234375 C 134.816406 103.882812 134.542969 103.667969 134.210938 103.667969 C 133.78125 103.667969 133.3125 104.039062 133.3125 104.605469 C 133.3125 105.367188 134.152344 105.699219 134.914062 105.699219 C 135.773438 105.699219 136.398438 105.015625 136.769531 104.292969 C 137.0625 105.347656 137.941406 105.699219 138.605469 105.699219 C 140.441406 105.699219 141.417969 103.355469 141.417969 102.964844 C 141.417969 102.867188 141.339844 102.789062 141.222656 102.789062 C 141.066406 102.789062 141.046875 102.886719 141.007812 103.023438 C 140.519531 104.605469 139.464844 105.347656 138.664062 105.347656 C 138.039062 105.347656 137.707031 104.878906 137.707031 104.136719 C 137.707031 103.746094 137.765625 103.453125 138.058594 102.28125 L 138.683594 99.839844 C 138.957031 98.765625 139.5625 97.984375 140.382812 97.984375 C 140.421875 97.984375 140.929688 97.984375 141.300781 98.199219 Z M 141.300781 98.199219 "/>
<path style=" stroke:none;fill-rule:nonzero;fill:rgb(0%,0%,0%);fill-opacity:1;" d="M 144.433594 99.316406 L 145.761719 98.027344 C 147.695312 96.308594 148.4375 95.644531 148.4375 94.394531 C 148.4375 92.96875 147.324219 91.972656 145.800781 91.972656 C 144.394531 91.972656 143.476562 93.125 143.476562 94.238281 C 143.476562 94.921875 144.101562 94.921875 144.140625 94.921875 C 144.355469 94.921875 144.785156 94.785156 144.785156 94.257812 C 144.785156 93.945312 144.550781 93.613281 144.121094 93.613281 C 144.023438 93.613281 144.003906 93.613281 143.964844 93.632812 C 144.238281 92.8125 144.921875 92.363281 145.644531 92.363281 C 146.777344 92.363281 147.304688 93.378906 147.304688 94.394531 C 147.304688 95.390625 146.699219 96.367188 145.996094 97.148438 L 143.613281 99.804688 C 143.476562 99.941406 143.476562 99.980469 143.476562 100.273438 L 148.105469 100.273438 L 148.4375 98.105469 L 148.144531 98.105469 C 148.066406 98.476562 147.988281 99.023438 147.851562 99.21875 C 147.773438 99.316406 146.953125 99.316406 146.679688 99.316406 Z M 144.433594 99.316406 "/>
<path style=" stroke:none;fill-rule:nonzero;fill:rgb(0%,0%,0%);fill-opacity:1;" d="M 160.800781 101.382812 L 165.761719 101.382812 C 166.015625 101.382812 166.328125 101.382812 166.328125 101.050781 C 166.328125 100.71875 166.015625 100.71875 165.761719 100.71875 L 160.800781 100.71875 L 160.800781 95.777344 C 160.800781 95.523438 160.800781 95.191406 160.488281 95.191406 C 160.136719 95.191406 160.136719 95.503906 160.136719 95.777344 L 160.136719 100.71875 L 155.195312 100.71875 C 154.941406 100.71875 154.628906 100.71875 154.628906 101.050781 C 154.628906 101.382812 154.921875 101.382812 155.195312 101.382812 L 160.136719 101.382812 L 160.136719 106.324219 C 160.136719 106.578125 160.136719 106.910156 160.46875 106.910156 C 160.800781 106.910156 160.800781 106.597656 160.800781 106.324219 Z M 160.800781 101.382812 "/>
<path style=" stroke:none;fill-rule:nonzero;fill:rgb(0%,0%,0%);fill-opacity:1;" d="M 174.65625 99.078125 C 174.34375 99.097656 174.285156 99.117188 174.285156 99.292969 C 174.285156 99.46875 174.363281 99.46875 174.695312 99.46875 L 175.515625 99.46875 C 177.039062 99.46875 177.722656 100.71875 177.722656 102.4375 C 177.722656 104.78125 176.492188 105.40625 175.613281 105.40625 C 174.753906 105.40625 173.289062 104.996094 172.78125 103.824219 C 173.347656 103.902344 173.875 103.589844 173.875 102.945312 C 173.875 102.417969 173.484375 102.066406 172.996094 102.066406 C 172.566406 102.066406 172.097656 102.320312 172.097656 103.003906 C 172.097656 104.585938 173.679688 105.894531 175.671875 105.894531 C 177.800781 105.894531 179.382812 104.273438 179.382812 102.457031 C 179.382812 100.816406 178.054688 99.507812 176.335938 99.214844 C 177.898438 98.765625 178.894531 97.457031 178.894531 96.050781 C 178.894531 94.644531 177.429688 93.609375 175.691406 93.609375 C 173.894531 93.609375 172.566406 94.703125 172.566406 96.011719 C 172.566406 96.714844 173.132812 96.871094 173.40625 96.871094 C 173.777344 96.871094 174.207031 96.597656 174.207031 96.050781 C 174.207031 95.484375 173.777344 95.230469 173.386719 95.230469 C 173.269531 95.230469 173.230469 95.230469 173.191406 95.25 C 173.875 94.039062 175.554688 94.039062 175.632812 94.039062 C 176.238281 94.039062 177.390625 94.292969 177.390625 96.050781 C 177.390625 96.402344 177.351562 97.398438 176.824219 98.179688 C 176.277344 98.960938 175.671875 99.019531 175.183594 99.039062 Z M 174.65625 99.078125 "/>
<path style=" stroke:none;fill-rule:nonzero;fill:rgb(0%,0%,0%);fill-opacity:1;" d="M 188.699219 98.199219 C 188.132812 98.316406 187.917969 98.746094 187.917969 99.078125 C 187.917969 99.507812 188.25 99.664062 188.503906 99.664062 C 189.050781 99.664062 189.421875 99.195312 189.421875 98.707031 C 189.421875 97.964844 188.5625 97.613281 187.800781 97.613281 C 186.707031 97.613281 186.101562 98.6875 185.945312 99.039062 C 185.535156 97.691406 184.421875 97.613281 184.089844 97.613281 C 182.273438 97.613281 181.296875 99.957031 181.296875 100.367188 C 181.296875 100.425781 181.375 100.523438 181.492188 100.523438 C 181.628906 100.523438 181.667969 100.40625 181.707031 100.347656 C 182.3125 98.355469 183.523438 97.984375 184.03125 97.984375 C 184.851562 97.984375 185.007812 98.726562 185.007812 99.15625 C 185.007812 99.546875 184.910156 99.957031 184.675781 100.816406 L 184.070312 103.277344 C 183.816406 104.351562 183.289062 105.347656 182.332031 105.347656 C 182.253906 105.347656 181.804688 105.347656 181.414062 105.113281 C 182.058594 104.976562 182.214844 104.449219 182.214844 104.234375 C 182.214844 103.882812 181.941406 103.667969 181.609375 103.667969 C 181.179688 103.667969 180.710938 104.039062 180.710938 104.605469 C 180.710938 105.367188 181.550781 105.699219 182.3125 105.699219 C 183.171875 105.699219 183.796875 105.015625 184.167969 104.292969 C 184.460938 105.347656 185.339844 105.699219 186.003906 105.699219 C 187.839844 105.699219 188.816406 103.355469 188.816406 102.964844 C 188.816406 102.867188 188.738281 102.789062 188.621094 102.789062 C 188.464844 102.789062 188.445312 102.886719 188.40625 103.023438 C 187.917969 104.605469 186.863281 105.347656 186.0625 105.347656 C 185.4375 105.347656 185.105469 104.878906 185.105469 104.136719 C 185.105469 103.746094 185.164062 103.453125 185.457031 102.28125 L 186.082031 99.839844 C 186.355469 98.765625 186.960938 97.984375 187.78125 97.984375 C 187.820312 97.984375 188.328125 97.984375 188.699219 98.199219 Z M 188.699219 98.199219 "/>
<path style=" stroke:none;fill-rule:nonzero;fill:rgb(0%,0%,0%);fill-opacity:1;" d="M 205.820312 101.402344 C 206.132812 101.402344 206.445312 101.402344 206.445312 101.050781 C 206.445312 100.679688 206.132812 100.679688 205.820312 100.679688 L 196.113281 100.679688 C 195.820312 100.679688 195.488281 100.679688 195.488281 101.050781 C 195.488281 101.402344 195.820312 101.402344 196.113281 101.402344 Z M 205.820312 101.402344 "/>
<path style=" stroke:none;fill-rule:nonzero;fill:rgb(0%,0%,0%);fill-opacity:1;" d="M 217.160156 94.039062 C 217.160156 93.609375 217.160156 93.609375 216.808594 93.609375 C 216.378906 94.078125 215.480469 94.742188 213.644531 94.742188 L 213.644531 95.269531 C 214.054688 95.269531 214.953125 95.269531 215.929688 94.800781 L 215.929688 104.136719 C 215.929688 104.78125 215.871094 104.996094 214.308594 104.996094 L 213.742188 104.996094 L 213.742188 105.523438 C 214.230469 105.484375 215.96875 105.484375 216.554688 105.484375 C 217.140625 105.484375 218.878906 105.484375 219.347656 105.523438 L 219.347656 104.996094 L 218.800781 104.996094 C 217.21875 104.996094 217.160156 104.78125 217.160156 104.136719 Z M 217.160156 94.039062 "/>
<path style=" stroke:none;fill-rule:nonzero;fill:rgb(0%,0%,0%);fill-opacity:1;" d="M 226.203125 99.058594 C 227.082031 98.570312 228.390625 97.75 228.390625 96.226562 C 228.390625 94.683594 226.886719 93.609375 225.246094 93.609375 C 223.46875 93.609375 222.0625 94.917969 222.0625 96.539062 C 222.0625 97.144531 222.257812 97.769531 222.746094 98.375 C 222.941406 98.609375 222.960938 98.628906 224.230469 99.507812 C 222.492188 100.308594 221.59375 101.5 221.59375 102.808594 C 221.59375 104.722656 223.390625 105.894531 225.226562 105.894531 C 227.21875 105.894531 228.878906 104.429688 228.878906 102.554688 C 228.878906 100.71875 227.589844 99.917969 226.203125 99.058594 Z M 223.761719 97.4375 C 223.527344 97.28125 222.804688 96.8125 222.804688 95.933594 C 222.804688 94.761719 224.015625 94.039062 225.226562 94.039062 C 226.515625 94.039062 227.667969 94.957031 227.667969 96.246094 C 227.667969 97.339844 226.867188 98.21875 225.832031 98.804688 Z M 224.601562 99.742188 L 226.769531 101.167969 C 227.238281 101.480469 228.058594 102.027344 228.058594 103.121094 C 228.058594 104.488281 226.671875 105.40625 225.246094 105.40625 C 223.722656 105.40625 222.414062 104.3125 222.414062 102.808594 C 222.414062 101.421875 223.429688 100.289062 224.601562 99.742188 Z M 224.601562 99.742188 "/>
<path style=" stroke:none;fill-rule:nonzero;fill:rgb(0%,0%,0%);fill-opacity:1;" d="M 238.390625 86.648438 C 238.390625 86.121094 237.960938 85.691406 237.453125 85.691406 C 236.925781 85.691406 236.496094 86.121094 236.496094 86.648438 C 236.496094 87.15625 236.925781 87.585938 237.453125 87.585938 C 237.960938 87.585938 238.390625 87.15625 238.390625 86.648438 Z M 238.390625 86.648438 "/>
<path style=" stroke:none;fill-rule:nonzero;fill:rgb(0%,0%,0%);fill-opacity:1;" d="M 252.976562 79.128906 C 252.996094 79.050781 253.035156 78.953125 253.035156 78.855469 C 253.035156 78.679688 252.839844 78.679688 252.800781 78.679688 C 252.800781 78.679688 251.921875 78.757812 251.824219 78.757812 C 251.511719 78.777344 251.257812 78.816406 250.925781 78.835938 C 250.476562 78.875 250.359375 78.894531 250.359375 79.207031 C 250.359375 79.402344 250.496094 79.402344 250.75 79.402344 C 251.628906 79.402344 251.648438 79.558594 251.648438 79.734375 C 251.648438 79.851562 251.609375 79.988281 251.589844 80.046875 L 250.496094 84.402344 C 250.300781 83.933594 249.8125 83.210938 248.875 83.210938 C 246.863281 83.210938 244.675781 85.828125 244.675781 88.484375 C 244.675781 90.261719 245.710938 91.296875 246.921875 91.296875 C 247.917969 91.296875 248.757812 90.535156 249.265625 89.929688 C 249.441406 91.003906 250.28125 91.296875 250.828125 91.296875 C 251.355469 91.296875 251.785156 90.984375 252.117188 90.339844 C 252.390625 89.714844 252.644531 88.621094 252.644531 88.5625 C 252.644531 88.464844 252.585938 88.386719 252.46875 88.386719 C 252.3125 88.386719 252.292969 88.484375 252.214844 88.757812 C 251.941406 89.8125 251.609375 90.945312 250.867188 90.945312 C 250.359375 90.945312 250.320312 90.476562 250.320312 90.125 C 250.320312 90.046875 250.320312 89.675781 250.4375 89.167969 Z M 249.34375 88.992188 C 249.265625 89.285156 249.265625 89.324219 249.011719 89.675781 C 248.621094 90.164062 247.820312 90.945312 246.980469 90.945312 C 246.257812 90.945312 245.828125 90.28125 245.828125 89.226562 C 245.828125 88.230469 246.394531 86.21875 246.726562 85.476562 C 247.351562 84.226562 248.191406 83.582031 248.875 83.582031 C 250.066406 83.582031 250.300781 85.046875 250.300781 85.183594 C 250.300781 85.203125 250.242188 85.4375 250.222656 85.476562 Z M 249.34375 88.992188 "/>
<path style=" stroke:none;fill-rule:nonzero;fill:rgb(0%,0%,0%);fill-opacity:1;" d="M 261.597656 83.796875 C 261.03125 83.914062 260.816406 84.34375 260.816406 84.675781 C 260.816406 85.105469 261.148438 85.261719 261.402344 85.261719 C 261.949219 85.261719 262.320312 84.792969 262.320312 84.304688 C 262.320312 83.5625 261.460938 83.210938 260.699219 83.210938 C 259.605469 83.210938 259 84.285156 258.84375 84.636719 C 258.433594 83.289062 257.320312 83.210938 256.988281 83.210938 C 255.171875 83.210938 254.195312 85.554688 254.195312 85.964844 C 254.195312 86.023438 254.273438 86.121094 254.390625 86.121094 C 254.527344 86.121094 254.566406 86.003906 254.605469 85.945312 C 255.210938 83.953125 256.421875 83.582031 256.929688 83.582031 C 257.75 83.582031 257.90625 84.324219 257.90625 84.753906 C 257.90625 85.144531 257.808594 85.554688 257.574219 86.414062 L 256.96875 88.875 C 256.714844 89.949219 256.1875 90.945312 255.230469 90.945312 C 255.152344 90.945312 254.703125 90.945312 254.3125 90.710938 C 254.957031 90.574219 255.113281 90.046875 255.113281 89.832031 C 255.113281 89.480469 254.839844 89.265625 254.507812 89.265625 C 254.078125 89.265625 253.609375 89.636719 253.609375 90.203125 C 253.609375 90.964844 254.449219 91.296875 255.210938 91.296875 C 256.070312 91.296875 256.695312 90.613281 257.066406 89.890625 C 257.359375 90.945312 258.238281 91.296875 258.902344 91.296875 C 260.738281 91.296875 261.714844 88.953125 261.714844 88.5625 C 261.714844 88.464844 261.636719 88.386719 261.519531 88.386719 C 261.363281 88.386719 261.34375 88.484375 261.304688 88.621094 C 260.816406 90.203125 259.761719 90.945312 258.960938 90.945312 C 258.335938 90.945312 258.003906 90.476562 258.003906 89.734375 C 258.003906 89.34375 258.0625 89.050781 258.355469 87.878906 L 258.980469 85.4375 C 259.253906 84.363281 259.859375 83.582031 260.679688 83.582031 C 260.71875 83.582031 261.226562 83.582031 261.597656 83.796875 Z M 261.597656 83.796875 "/>
<path style=" stroke:none;fill-rule:nonzero;fill:rgb(0%,0%,0%);fill-opacity:1;" d="M 88.996094 111.980469 C 88.996094 111.550781 88.996094 111.472656 88.742188 111.472656 C 87.648438 111.453125 85.890625 111.316406 84.269531 110.515625 C 82.335938 109.558594 81.59375 108.425781 81.144531 107.722656 C 81.085938 107.625 80.988281 107.625 80.753906 107.625 C 80.34375 107.625 80.324219 107.644531 80.324219 108.09375 L 80.324219 108.386719 C 82.765625 112.78125 86.789062 113.621094 88.625 113.621094 C 88.996094 113.621094 88.996094 113.601562 88.996094 113.113281 Z M 88.996094 111.980469 "/>
<path style=" stroke:none;fill-rule:nonzero;fill:rgb(0%,0%,0%);fill-opacity:1;" d="M 88.839844 111.390625 L 163.988281 111.390625 L 163.988281 113.640625 L 88.839844 113.640625 Z M 88.839844 111.390625 "/>
<path style=" stroke:none;fill-rule:nonzero;fill:rgb(0%,0%,0%);fill-opacity:1;" d="M 172.5 116.707031 C 170.058594 112.3125 166.035156 111.472656 164.199219 111.472656 C 163.828125 111.472656 163.828125 111.492188 163.828125 111.980469 L 163.828125 113.113281 C 163.828125 113.523438 163.828125 113.621094 164.082031 113.621094 C 165.175781 113.640625 166.953125 113.777344 168.554688 114.578125 C 170.488281 115.535156 171.230469 116.667969 171.679688 117.371094 C 171.738281 117.449219 171.835938 117.449219 172.070312 117.449219 C 172.480469 117.449219 172.5 117.449219 172.5 117 Z M 172.5 116.707031 "/>
<path style=" stroke:none;fill-rule:nonzero;fill:rgb(0%,0%,0%);fill-opacity:1;" d="M 180.34375 111.980469 C 180.34375 111.492188 180.34375 111.472656 179.972656 111.472656 C 178.136719 111.472656 174.113281 112.332031 171.671875 116.707031 L 171.671875 117 C 171.671875 117.449219 171.691406 117.449219 172.101562 117.449219 C 172.433594 117.449219 172.453125 117.449219 172.550781 117.3125 C 174.015625 114.96875 176.496094 113.699219 180.128906 113.621094 C 180.34375 113.621094 180.34375 113.503906 180.34375 113.113281 Z M 180.34375 111.980469 "/>
<path style=" stroke:none;fill-rule:nonzero;fill:rgb(0%,0%,0%);fill-opacity:1;" d="M 180.1875 111.390625 L 255.335938 111.390625 L 255.335938 113.640625 L 180.1875 113.640625 Z M 180.1875 111.390625 "/>
<path style=" stroke:none;fill-rule:nonzero;fill:rgb(0%,0%,0%);fill-opacity:1;" d="M 263.847656 108.09375 C 263.847656 107.644531 263.828125 107.625 263.417969 107.625 C 263.085938 107.625 263.066406 107.644531 262.96875 107.78125 C 261.503906 110.125 259.023438 111.394531 255.390625 111.472656 C 255.175781 111.472656 255.175781 111.589844 255.175781 111.980469 L 255.175781 113.113281 C 255.175781 113.601562 255.175781 113.621094 255.546875 113.621094 C 257.382812 113.621094 261.40625 112.761719 263.847656 108.386719 Z M 263.847656 108.09375 "/>
<path style=" stroke:none;fill-rule:nonzero;fill:rgb(0%,0%,0%);fill-opacity:1;" d="M 170.773438 124.976562 L 172.902344 124.976562 C 174.660156 124.976562 176.398438 123.6875 176.398438 122.300781 C 176.398438 121.324219 175.578125 120.40625 173.9375 120.40625 L 169.914062 120.40625 C 169.679688 120.40625 169.542969 120.40625 169.542969 120.640625 C 169.542969 120.796875 169.640625 120.796875 169.894531 120.796875 C 170.050781 120.796875 170.285156 120.816406 170.421875 120.816406 C 170.636719 120.855469 170.695312 120.875 170.695312 121.03125 C 170.695312 121.070312 170.695312 121.109375 170.65625 121.265625 L 168.976562 127.945312 C 168.859375 128.433594 168.839844 128.53125 167.84375 128.53125 C 167.648438 128.53125 167.511719 128.53125 167.511719 128.765625 C 167.511719 128.921875 167.648438 128.921875 167.6875 128.921875 C 168.039062 128.921875 168.917969 128.882812 169.269531 128.882812 C 169.542969 128.882812 169.816406 128.902344 170.070312 128.902344 C 170.34375 128.902344 170.617188 128.921875 170.871094 128.921875 C 170.96875 128.921875 171.125 128.921875 171.125 128.667969 C 171.125 128.53125 171.007812 128.53125 170.773438 128.53125 C 170.324219 128.53125 169.972656 128.53125 169.972656 128.316406 C 169.972656 128.238281 169.992188 128.179688 170.011719 128.101562 Z M 171.671875 121.265625 C 171.789062 120.835938 171.808594 120.796875 172.355469 120.796875 L 173.546875 120.796875 C 174.582031 120.796875 175.246094 121.128906 175.246094 121.988281 C 175.246094 122.476562 174.992188 123.550781 174.503906 124 C 173.878906 124.566406 173.136719 124.664062 172.589844 124.664062 L 170.832031 124.664062 Z M 171.671875 121.265625 "/>
<path style=" stroke:none;fill-rule:nonzero;fill:rgb(0%,0%,0%);fill-opacity:1;" d="M 72.917969 156.152344 C 73.230469 156.152344 73.542969 156.152344 73.542969 155.800781 C 73.542969 155.429688 73.230469 155.429688 72.917969 155.429688 L 63.210938 155.429688 C 62.917969 155.429688 62.585938 155.429688 62.585938 155.800781 C 62.585938 156.152344 62.917969 156.152344 63.210938 156.152344 Z M 72.917969 156.152344 "/>
<path style=" stroke:none;fill-rule:nonzero;fill:rgb(0%,0%,0%);fill-opacity:1;" d="M 87.015625 142.90625 C 87.015625 147.144531 85.140625 148.003906 84.066406 148.003906 C 83.617188 148.003906 82.679688 147.964844 82.230469 147.339844 L 82.328125 147.339844 C 82.464844 147.359375 83.109375 147.261719 83.109375 146.597656 C 83.109375 146.207031 82.835938 145.855469 82.367188 145.855469 C 81.898438 145.855469 81.625 146.167969 81.625 146.636719 C 81.625 147.75 82.523438 148.492188 84.066406 148.492188 C 86.3125 148.492188 88.480469 146.109375 88.480469 142.222656 C 88.480469 137.398438 86.46875 136.207031 84.90625 136.207031 C 82.933594 136.207031 81.195312 137.847656 81.195312 140.210938 C 81.195312 142.574219 82.855469 144.195312 84.652344 144.195312 C 85.980469 144.195312 86.664062 143.21875 87.015625 142.320312 Z M 84.710938 143.84375 C 83.597656 143.84375 83.109375 142.925781 82.953125 142.574219 C 82.660156 141.890625 82.660156 141.03125 82.660156 140.230469 C 82.660156 139.234375 82.660156 138.375 83.128906 137.632812 C 83.441406 137.144531 83.929688 136.636719 84.90625 136.636719 C 85.921875 136.636719 86.449219 137.515625 86.625 137.945312 C 86.976562 138.824219 86.976562 140.347656 86.976562 140.601562 C 86.976562 142.105469 86.292969 143.84375 84.710938 143.84375 Z M 84.710938 143.84375 "/>
<path style=" stroke:none;fill-rule:nonzero;fill:rgb(0%,0%,0%);fill-opacity:1;" d="M 80.441406 155.484375 L 89.289062 155.484375 L 89.289062 156.238281 L 80.441406 156.238281 Z M 80.441406 155.484375 "/>
<path style=" stroke:none;fill-rule:nonzero;fill:rgb(0%,0%,0%);fill-opacity:1;" d="M 88.34375 169.566406 L 87.953125 169.566406 C 87.894531 169.859375 87.757812 170.855469 87.5625 171.148438 C 87.445312 171.304688 86.429688 171.304688 85.882812 171.304688 L 82.5625 171.304688 C 83.050781 170.894531 84.144531 169.742188 84.613281 169.3125 C 87.347656 166.792969 88.34375 165.875 88.34375 164.097656 C 88.34375 162.027344 86.703125 160.660156 84.632812 160.660156 C 82.542969 160.660156 81.332031 162.417969 81.332031 163.960938 C 81.332031 164.878906 82.113281 164.878906 82.171875 164.878906 C 82.542969 164.878906 83.011719 164.605469 83.011719 164.039062 C 83.011719 163.53125 82.679688 163.199219 82.171875 163.199219 C 82.015625 163.199219 81.976562 163.199219 81.917969 163.21875 C 82.269531 161.988281 83.226562 161.167969 84.398438 161.167969 C 85.921875 161.167969 86.859375 162.4375 86.859375 164.097656 C 86.859375 165.621094 85.980469 166.949219 84.945312 168.101562 L 81.332031 172.144531 L 81.332031 172.574219 L 87.875 172.574219 Z M 88.34375 169.566406 "/>
<path style=" stroke:none;fill-rule:nonzero;fill:rgb(0%,0%,0%);fill-opacity:1;" d="M 95.660156 174.847656 C 96.246094 174.828125 96.539062 174.417969 96.539062 173.988281 C 96.539062 173.382812 96.109375 173.109375 95.679688 173.109375 C 95.25 173.109375 94.800781 173.363281 94.800781 173.988281 C 94.800781 174.90625 95.699219 175.667969 96.792969 175.667969 C 99.527344 175.667969 100.542969 171.46875 101.8125 166.273438 C 103.199219 160.609375 104.371094 154.886719 105.328125 149.125 C 105.992188 145.316406 106.65625 141.722656 107.261719 139.417969 C 107.476562 138.539062 108.101562 136.214844 108.785156 136.214844 C 109.351562 136.214844 109.800781 136.566406 109.878906 136.625 C 109.273438 136.664062 108.980469 137.054688 108.980469 137.503906 C 108.980469 138.109375 109.429688 138.382812 109.839844 138.382812 C 110.269531 138.382812 110.71875 138.128906 110.71875 137.484375 C 110.71875 136.527344 109.742188 135.824219 108.765625 135.824219 C 107.398438 135.824219 106.382812 137.777344 105.40625 141.429688 C 105.347656 141.625 102.90625 150.628906 100.933594 162.367188 C 100.464844 165.101562 99.957031 168.089844 99.371094 170.589844 C 99.039062 171.898438 98.21875 175.277344 96.753906 175.277344 C 96.109375 175.277344 95.679688 174.847656 95.660156 174.847656 Z M 95.660156 174.847656 "/>
<path style=" stroke:none;fill-rule:nonzero;fill:rgb(0%,0%,0%);fill-opacity:1;" d="M 171.527344 136.128906 C 171.546875 136.050781 171.585938 135.953125 171.585938 135.855469 C 171.585938 135.679688 171.390625 135.679688 171.351562 135.679688 C 171.351562 135.679688 170.472656 135.757812 170.375 135.757812 C 170.0625 135.777344 169.808594 135.816406 169.476562 135.835938 C 169.027344 135.875 168.910156 135.894531 168.910156 136.207031 C 168.910156 136.402344 169.046875 136.402344 169.300781 136.402344 C 170.179688 136.402344 170.199219 136.558594 170.199219 136.734375 C 170.199219 136.851562 170.160156 136.988281 170.140625 137.046875 L 169.046875 141.402344 C 168.851562 140.933594 168.363281 140.210938 167.425781 140.210938 C 165.414062 140.210938 163.226562 142.828125 163.226562 145.484375 C 163.226562 147.261719 164.261719 148.296875 165.472656 148.296875 C 166.46875 148.296875 167.308594 147.535156 167.816406 146.929688 C 167.992188 148.003906 168.832031 148.296875 169.378906 148.296875 C 169.90625 148.296875 170.335938 147.984375 170.667969 147.339844 C 170.941406 146.714844 171.195312 145.621094 171.195312 145.5625 C 171.195312 145.464844 171.136719 145.386719 171.019531 145.386719 C 170.863281 145.386719 170.84375 145.484375 170.765625 145.757812 C 170.492188 146.8125 170.160156 147.945312 169.417969 147.945312 C 168.910156 147.945312 168.871094 147.476562 168.871094 147.125 C 168.871094 147.046875 168.871094 146.675781 168.988281 146.167969 Z M 167.894531 145.992188 C 167.816406 146.285156 167.816406 146.324219 167.5625 146.675781 C 167.171875 147.164062 166.371094 147.945312 165.53125 147.945312 C 164.808594 147.945312 164.378906 147.28125 164.378906 146.226562 C 164.378906 145.230469 164.945312 143.21875 165.277344 142.476562 C 165.902344 141.226562 166.742188 140.582031 167.425781 140.582031 C 168.617188 140.582031 168.851562 142.046875 168.851562 142.183594 C 168.851562 142.203125 168.792969 142.4375 168.773438 142.476562 Z M 167.894531 145.992188 "/>
<path style=" stroke:none;fill-rule:nonzero;fill:rgb(0%,0%,0%);fill-opacity:1;" d="M 180.148438 140.796875 C 179.582031 140.914062 179.367188 141.34375 179.367188 141.675781 C 179.367188 142.105469 179.699219 142.261719 179.953125 142.261719 C 180.5 142.261719 180.871094 141.792969 180.871094 141.304688 C 180.871094 140.5625 180.011719 140.210938 179.25 140.210938 C 178.15625 140.210938 177.550781 141.285156 177.394531 141.636719 C 176.984375 140.289062 175.871094 140.210938 175.539062 140.210938 C 173.722656 140.210938 172.746094 142.554688 172.746094 142.964844 C 172.746094 143.023438 172.824219 143.121094 172.941406 143.121094 C 173.078125 143.121094 173.117188 143.003906 173.15625 142.945312 C 173.761719 140.953125 174.972656 140.582031 175.480469 140.582031 C 176.300781 140.582031 176.457031 141.324219 176.457031 141.753906 C 176.457031 142.144531 176.359375 142.554688 176.125 143.414062 L 175.519531 145.875 C 175.265625 146.949219 174.738281 147.945312 173.78125 147.945312 C 173.703125 147.945312 173.253906 147.945312 172.863281 147.710938 C 173.507812 147.574219 173.664062 147.046875 173.664062 146.832031 C 173.664062 146.480469 173.390625 146.265625 173.058594 146.265625 C 172.628906 146.265625 172.160156 146.636719 172.160156 147.203125 C 172.160156 147.964844 173 148.296875 173.761719 148.296875 C 174.621094 148.296875 175.246094 147.613281 175.617188 146.890625 C 175.910156 147.945312 176.789062 148.296875 177.453125 148.296875 C 179.289062 148.296875 180.265625 145.953125 180.265625 145.5625 C 180.265625 145.464844 180.1875 145.386719 180.070312 145.386719 C 179.914062 145.386719 179.894531 145.484375 179.855469 145.621094 C 179.367188 147.203125 178.3125 147.945312 177.511719 147.945312 C 176.886719 147.945312 176.554688 147.476562 176.554688 146.734375 C 176.554688 146.34375 176.613281 146.050781 176.90625 144.878906 L 177.53125 142.4375 C 177.804688 141.363281 178.410156 140.582031 179.230469 140.582031 C 179.269531 140.582031 179.777344 140.582031 180.148438 140.796875 Z M 180.148438 140.796875 "/>
<path style=" stroke:none;fill-rule:nonzero;fill:rgb(0%,0%,0%);fill-opacity:1;" d="M 116.136719 155.484375 L 227.886719 155.484375 L 227.886719 156.238281 L 116.136719 156.238281 Z M 116.136719 155.484375 "/>
<path style=" stroke:none;fill-rule:nonzero;fill:rgb(0%,0%,0%);fill-opacity:1;" d="M 123.125 175.003906 L 119.980469 168.03125 C 119.84375 167.738281 119.765625 167.738281 119.707031 167.738281 C 119.6875 167.738281 119.589844 167.738281 119.394531 167.875 L 117.695312 169.183594 C 117.460938 169.359375 117.460938 169.398438 117.460938 169.457031 C 117.460938 169.554688 117.519531 169.652344 117.636719 169.652344 C 117.753906 169.652344 118.046875 169.398438 118.242188 169.261719 C 118.359375 169.183594 118.632812 168.96875 118.828125 168.832031 L 122.363281 176.605469 C 122.480469 176.878906 122.578125 176.878906 122.734375 176.878906 C 123.007812 176.878906 123.046875 176.78125 123.183594 176.527344 L 131.328125 159.671875 C 131.445312 159.417969 131.445312 159.339844 131.445312 159.320312 C 131.445312 159.125 131.308594 158.949219 131.09375 158.949219 C 130.9375 158.949219 130.820312 159.046875 130.683594 159.339844 Z M 123.125 175.003906 "/>
<path style=" stroke:none;fill-rule:nonzero;fill:rgb(0%,0%,0%);fill-opacity:1;" d="M 131.136719 158.9375 L 227.886719 158.9375 L 227.886719 159.691406 L 131.136719 159.691406 Z M 131.136719 158.9375 "/>
<path style=" stroke:none;fill-rule:nonzero;fill:rgb(0%,0%,0%);fill-opacity:1;" d="M 139.648438 167.347656 C 139.082031 167.464844 138.867188 167.894531 138.867188 168.226562 C 138.867188 168.65625 139.199219 168.8125 139.453125 168.8125 C 140 168.8125 140.371094 168.34375 140.371094 167.855469 C 140.371094 167.113281 139.511719 166.761719 138.75 166.761719 C 137.65625 166.761719 137.050781 167.835938 136.894531 168.1875 C 136.484375 166.839844 135.371094 166.761719 135.039062 166.761719 C 133.222656 166.761719 132.246094 169.105469 132.246094 169.515625 C 132.246094 169.574219 132.324219 169.671875 132.441406 169.671875 C 132.578125 169.671875 132.617188 169.554688 132.65625 169.496094 C 133.261719 167.503906 134.472656 167.132812 134.980469 167.132812 C 135.800781 167.132812 135.957031 167.875 135.957031 168.304688 C 135.957031 168.695312 135.859375 169.105469 135.625 169.964844 L 135.019531 172.425781 C 134.765625 173.5 134.238281 174.496094 133.28125 174.496094 C 133.203125 174.496094 132.753906 174.496094 132.363281 174.261719 C 133.007812 174.125 133.164062 173.597656 133.164062 173.382812 C 133.164062 173.03125 132.890625 172.816406 132.558594 172.816406 C 132.128906 172.816406 131.660156 173.1875 131.660156 173.753906 C 131.660156 174.515625 132.5 174.847656 133.261719 174.847656 C 134.121094 174.847656 134.746094 174.164062 135.117188 173.441406 C 135.410156 174.496094 136.289062 174.847656 136.953125 174.847656 C 138.789062 174.847656 139.765625 172.503906 139.765625 172.113281 C 139.765625 172.015625 139.6875 171.9375 139.570312 171.9375 C 139.414062 171.9375 139.394531 172.035156 139.355469 172.171875 C 138.867188 173.753906 137.8125 174.496094 137.011719 174.496094 C 136.386719 174.496094 136.054688 174.027344 136.054688 173.285156 C 136.054688 172.894531 136.113281 172.601562 136.40625 171.429688 L 137.03125 168.988281 C 137.304688 167.914062 137.910156 167.132812 138.730469 167.132812 C 138.769531 167.132812 139.277344 167.132812 139.648438 167.347656 Z M 139.648438 167.347656 "/>
<path style=" stroke:none;fill-rule:nonzero;fill:rgb(0%,0%,0%);fill-opacity:1;" d="M 142.785156 168.464844 L 144.113281 167.175781 C 146.046875 165.457031 146.789062 164.792969 146.789062 163.542969 C 146.789062 162.117188 145.675781 161.121094 144.152344 161.121094 C 142.746094 161.121094 141.828125 162.273438 141.828125 163.386719 C 141.828125 164.070312 142.453125 164.070312 142.492188 164.070312 C 142.707031 164.070312 143.136719 163.933594 143.136719 163.40625 C 143.136719 163.09375 142.902344 162.761719 142.472656 162.761719 C 142.375 162.761719 142.355469 162.761719 142.316406 162.78125 C 142.589844 161.960938 143.273438 161.511719 143.996094 161.511719 C 145.128906 161.511719 145.65625 162.527344 145.65625 163.542969 C 145.65625 164.539062 145.050781 165.515625 144.347656 166.296875 L 141.964844 168.953125 C 141.828125 169.089844 141.828125 169.128906 141.828125 169.421875 L 146.457031 169.421875 L 146.789062 167.253906 L 146.496094 167.253906 C 146.417969 167.625 146.339844 168.171875 146.203125 168.367188 C 146.125 168.464844 145.304688 168.464844 145.03125 168.464844 Z M 142.785156 168.464844 "/>
<path style=" stroke:none;fill-rule:nonzero;fill:rgb(0%,0%,0%);fill-opacity:1;" d="M 159.152344 170.53125 L 164.113281 170.53125 C 164.367188 170.53125 164.679688 170.53125 164.679688 170.199219 C 164.679688 169.867188 164.367188 169.867188 164.113281 169.867188 L 159.152344 169.867188 L 159.152344 164.925781 C 159.152344 164.671875 159.152344 164.339844 158.839844 164.339844 C 158.488281 164.339844 158.488281 164.652344 158.488281 164.925781 L 158.488281 169.867188 L 153.546875 169.867188 C 153.292969 169.867188 152.980469 169.867188 152.980469 170.199219 C 152.980469 170.53125 153.273438 170.53125 153.546875 170.53125 L 158.488281 170.53125 L 158.488281 175.472656 C 158.488281 175.726562 158.488281 176.058594 158.820312 176.058594 C 159.152344 176.058594 159.152344 175.746094 159.152344 175.472656 Z M 159.152344 170.53125 "/>
<path style=" stroke:none;fill-rule:nonzero;fill:rgb(0%,0%,0%);fill-opacity:1;" d="M 172.855469 168.226562 C 172.542969 168.246094 172.484375 168.265625 172.484375 168.441406 C 172.484375 168.617188 172.5625 168.617188 172.894531 168.617188 L 173.714844 168.617188 C 175.238281 168.617188 175.921875 169.867188 175.921875 171.585938 C 175.921875 173.929688 174.691406 174.554688 173.8125 174.554688 C 172.953125 174.554688 171.488281 174.144531 170.980469 172.972656 C 171.546875 173.050781 172.074219 172.738281 172.074219 172.09375 C 172.074219 171.566406 171.683594 171.214844 171.195312 171.214844 C 170.765625 171.214844 170.296875 171.46875 170.296875 172.152344 C 170.296875 173.734375 171.878906 175.042969 173.871094 175.042969 C 176 175.042969 177.582031 173.421875 177.582031 171.605469 C 177.582031 169.964844 176.253906 168.65625 174.535156 168.363281 C 176.097656 167.914062 177.09375 166.605469 177.09375 165.199219 C 177.09375 163.792969 175.628906 162.757812 173.890625 162.757812 C 172.09375 162.757812 170.765625 163.851562 170.765625 165.160156 C 170.765625 165.863281 171.332031 166.019531 171.605469 166.019531 C 171.976562 166.019531 172.40625 165.746094 172.40625 165.199219 C 172.40625 164.632812 171.976562 164.378906 171.585938 164.378906 C 171.46875 164.378906 171.429688 164.378906 171.390625 164.398438 C 172.074219 163.1875 173.753906 163.1875 173.832031 163.1875 C 174.4375 163.1875 175.589844 163.441406 175.589844 165.199219 C 175.589844 165.550781 175.550781 166.546875 175.023438 167.328125 C 174.476562 168.109375 173.871094 168.167969 173.382812 168.1875 Z M 172.855469 168.226562 "/>
<path style=" stroke:none;fill-rule:nonzero;fill:rgb(0%,0%,0%);fill-opacity:1;" d="M 186.898438 167.347656 C 186.332031 167.464844 186.117188 167.894531 186.117188 168.226562 C 186.117188 168.65625 186.449219 168.8125 186.703125 168.8125 C 187.25 168.8125 187.621094 168.34375 187.621094 167.855469 C 187.621094 167.113281 186.761719 166.761719 186 166.761719 C 184.90625 166.761719 184.300781 167.835938 184.144531 168.1875 C 183.734375 166.839844 182.621094 166.761719 182.289062 166.761719 C 180.472656 166.761719 179.496094 169.105469 179.496094 169.515625 C 179.496094 169.574219 179.574219 169.671875 179.691406 169.671875 C 179.828125 169.671875 179.867188 169.554688 179.90625 169.496094 C 180.511719 167.503906 181.722656 167.132812 182.230469 167.132812 C 183.050781 167.132812 183.207031 167.875 183.207031 168.304688 C 183.207031 168.695312 183.109375 169.105469 182.875 169.964844 L 182.269531 172.425781 C 182.015625 173.5 181.488281 174.496094 180.53125 174.496094 C 180.453125 174.496094 180.003906 174.496094 179.613281 174.261719 C 180.257812 174.125 180.414062 173.597656 180.414062 173.382812 C 180.414062 173.03125 180.140625 172.816406 179.808594 172.816406 C 179.378906 172.816406 178.910156 173.1875 178.910156 173.753906 C 178.910156 174.515625 179.75 174.847656 180.511719 174.847656 C 181.371094 174.847656 181.996094 174.164062 182.367188 173.441406 C 182.660156 174.496094 183.539062 174.847656 184.203125 174.847656 C 186.039062 174.847656 187.015625 172.503906 187.015625 172.113281 C 187.015625 172.015625 186.9375 171.9375 186.820312 171.9375 C 186.664062 171.9375 186.644531 172.035156 186.605469 172.171875 C 186.117188 173.753906 185.0625 174.496094 184.261719 174.496094 C 183.636719 174.496094 183.304688 174.027344 183.304688 173.285156 C 183.304688 172.894531 183.363281 172.601562 183.65625 171.429688 L 184.28125 168.988281 C 184.554688 167.914062 185.160156 167.132812 185.980469 167.132812 C 186.019531 167.132812 186.527344 167.132812 186.898438 167.347656 Z M 186.898438 167.347656 "/>
<path style=" stroke:none;fill-rule:nonzero;fill:rgb(0%,0%,0%);fill-opacity:1;" d="M 204.171875 170.550781 C 204.484375 170.550781 204.796875 170.550781 204.796875 170.199219 C 204.796875 169.828125 204.484375 169.828125 204.171875 169.828125 L 194.464844 169.828125 C 194.171875 169.828125 193.839844 169.828125 193.839844 170.199219 C 193.839844 170.550781 194.171875 170.550781 194.464844 170.550781 Z M 204.171875 170.550781 "/>
<path style=" stroke:none;fill-rule:nonzero;fill:rgb(0%,0%,0%);fill-opacity:1;" d="M 215.359375 163.1875 C 215.359375 162.757812 215.359375 162.757812 215.007812 162.757812 C 214.578125 163.226562 213.679688 163.890625 211.84375 163.890625 L 211.84375 164.417969 C 212.253906 164.417969 213.152344 164.417969 214.128906 163.949219 L 214.128906 173.285156 C 214.128906 173.929688 214.070312 174.144531 212.507812 174.144531 L 211.941406 174.144531 L 211.941406 174.671875 C 212.429688 174.632812 214.167969 174.632812 214.753906 174.632812 C 215.339844 174.632812 217.078125 174.632812 217.546875 174.671875 L 217.546875 174.144531 L 217 174.144531 C 215.417969 174.144531 215.359375 173.929688 215.359375 173.285156 Z M 215.359375 163.1875 "/>
<path style=" stroke:none;fill-rule:nonzero;fill:rgb(0%,0%,0%);fill-opacity:1;" d="M 224.40625 168.207031 C 225.285156 167.71875 226.59375 166.898438 226.59375 165.375 C 226.59375 163.832031 225.089844 162.757812 223.449219 162.757812 C 221.671875 162.757812 220.265625 164.066406 220.265625 165.6875 C 220.265625 166.292969 220.460938 166.917969 220.949219 167.523438 C 221.144531 167.757812 221.164062 167.777344 222.433594 168.65625 C 220.695312 169.457031 219.796875 170.648438 219.796875 171.957031 C 219.796875 173.871094 221.59375 175.042969 223.429688 175.042969 C 225.421875 175.042969 227.082031 173.578125 227.082031 171.703125 C 227.082031 169.867188 225.792969 169.066406 224.40625 168.207031 Z M 221.964844 166.585938 C 221.730469 166.429688 221.007812 165.960938 221.007812 165.082031 C 221.007812 163.910156 222.21875 163.1875 223.429688 163.1875 C 224.71875 163.1875 225.871094 164.105469 225.871094 165.394531 C 225.871094 166.488281 225.070312 167.367188 224.035156 167.953125 Z M 222.804688 168.890625 L 224.972656 170.316406 C 225.441406 170.628906 226.261719 171.175781 226.261719 172.269531 C 226.261719 173.636719 224.875 174.554688 223.449219 174.554688 C 221.925781 174.554688 220.617188 173.460938 220.617188 171.957031 C 220.617188 170.570312 221.632812 169.4375 222.804688 168.890625 Z M 222.804688 168.890625 "/>
<path style=" stroke:none;fill-rule:nonzero;fill:rgb(0%,0%,0%);fill-opacity:1;" d="M 87.195312 181.28125 C 87.195312 180.851562 87.195312 180.773438 86.941406 180.773438 C 85.847656 180.753906 84.089844 180.617188 82.46875 179.816406 C 80.535156 178.859375 79.792969 177.726562 79.34375 177.023438 C 79.285156 176.925781 79.1875 176.925781 78.953125 176.925781 C 78.542969 176.925781 78.523438 176.945312 78.523438 177.394531 L 78.523438 177.6875 C 80.964844 182.082031 84.988281 182.921875 86.824219 182.921875 C 87.195312 182.921875 87.195312 182.902344 87.195312 182.414062 Z M 87.195312 181.28125 "/>
<path style=" stroke:none;fill-rule:nonzero;fill:rgb(0%,0%,0%);fill-opacity:1;" d="M 87.035156 180.6875 L 146.136719 180.6875 L 146.136719 182.9375 L 87.035156 182.9375 Z M 87.035156 180.6875 "/>
<path style=" stroke:none;fill-rule:nonzero;fill:rgb(0%,0%,0%);fill-opacity:1;" d="M 154.648438 186.007812 C 152.207031 181.613281 148.183594 180.773438 146.347656 180.773438 C 145.976562 180.773438 145.976562 180.792969 145.976562 181.28125 L 145.976562 182.414062 C 145.976562 182.824219 145.976562 182.921875 146.230469 182.921875 C 147.324219 182.941406 149.101562 183.078125 150.703125 183.878906 C 152.636719 184.835938 153.378906 185.96875 153.828125 186.671875 C 153.886719 186.75 153.984375 186.75 154.21875 186.75 C 154.628906 186.75 154.648438 186.75 154.648438 186.300781 Z M 154.648438 186.007812 "/>
<path style=" stroke:none;fill-rule:nonzero;fill:rgb(0%,0%,0%);fill-opacity:1;" d="M 162.496094 181.28125 C 162.496094 180.792969 162.496094 180.773438 162.125 180.773438 C 160.289062 180.773438 156.265625 181.632812 153.824219 186.007812 L 153.824219 186.300781 C 153.824219 186.75 153.84375 186.75 154.253906 186.75 C 154.585938 186.75 154.605469 186.75 154.703125 186.613281 C 156.167969 184.269531 158.648438 183 162.28125 182.921875 C 162.496094 182.921875 162.496094 182.804688 162.496094 182.414062 Z M 162.496094 181.28125 "/>
<path style=" stroke:none;fill-rule:nonzero;fill:rgb(0%,0%,0%);fill-opacity:1;" d="M 162.339844 180.6875 L 221.441406 180.6875 L 221.441406 182.9375 L 162.339844 182.9375 Z M 162.339844 180.6875 "/>
<path style=" stroke:none;fill-rule:nonzero;fill:rgb(0%,0%,0%);fill-opacity:1;" d="M 229.949219 177.394531 C 229.949219 176.945312 229.929688 176.925781 229.519531 176.925781 C 229.1875 176.925781 229.167969 176.945312 229.070312 177.082031 C 227.605469 179.425781 225.125 180.695312 221.492188 180.773438 C 221.277344 180.773438 221.277344 180.890625 221.277344 181.28125 L 221.277344 182.414062 C 221.277344 182.902344 221.277344 182.921875 221.648438 182.921875 C 223.484375 182.921875 227.507812 182.0625 229.949219 177.6875 Z M 229.949219 177.394531 "/>
<path style=" stroke:none;fill-rule:nonzero;fill:rgb(0%,0%,0%);fill-opacity:1;" d="M 154.753906 197.996094 C 156.6875 197.273438 158.523438 195.046875 158.523438 192.644531 C 158.523438 190.632812 157.195312 189.285156 155.339844 189.285156 C 152.664062 189.285156 149.910156 192.117188 149.910156 195.027344 C 149.910156 197.097656 151.316406 198.347656 153.113281 198.347656 C 153.425781 198.347656 153.835938 198.289062 154.324219 198.152344 C 154.285156 198.933594 154.285156 198.953125 154.285156 199.128906 C 154.285156 199.519531 154.285156 200.496094 155.320312 200.496094 C 156.785156 200.496094 157.390625 198.210938 157.390625 198.074219 C 157.390625 197.996094 157.3125 197.957031 157.253906 197.957031 C 157.15625 197.957031 157.136719 198.015625 157.097656 198.09375 C 156.804688 198.972656 156.082031 199.285156 155.652344 199.285156 C 155.066406 199.285156 154.890625 198.953125 154.753906 197.996094 Z M 152.410156 197.898438 C 151.433594 197.507812 151.003906 196.550781 151.003906 195.417969 C 151.003906 194.558594 151.335938 192.78125 152.273438 191.453125 C 153.191406 190.183594 154.363281 189.597656 155.28125 189.597656 C 156.511719 189.597656 157.429688 190.574219 157.429688 192.234375 C 157.429688 193.484375 156.785156 196.414062 154.695312 197.566406 C 154.636719 197.136719 154.519531 196.238281 153.601562 196.238281 C 152.9375 196.238281 152.332031 196.84375 152.332031 197.507812 C 152.332031 197.742188 152.410156 197.878906 152.410156 197.898438 Z M 153.171875 198.035156 C 152.996094 198.035156 152.605469 198.035156 152.605469 197.507812 C 152.605469 197 153.074219 196.511719 153.601562 196.511719 C 154.128906 196.511719 154.363281 196.804688 154.363281 197.566406 C 154.363281 197.742188 154.34375 197.761719 154.226562 197.820312 C 153.894531 197.957031 153.523438 198.035156 153.171875 198.035156 Z M 153.171875 198.035156 "/>
</g>
</svg>
