<?xml version="1.0" encoding="UTF-8"?>
<svg xmlns="http://www.w3.org/2000/svg" xmlns:xlink="http://www.w3.org/1999/xlink" width="190.67533pt" height="21.536188pt" viewBox="0 0 190.67533 21.536188" version="1.1">
<g id="surface1">
<path style=" stroke:none;fill-rule:nonzero;fill:rgb(0%,0%,0%);fill-opacity:1;" d="M 4.472656 12.730469 L 7.480469 12.730469 C 9.960938 12.730469 12.421875 10.894531 12.421875 8.863281 C 12.421875 7.457031 11.25 6.1875 8.984375 6.1875 L 3.4375 6.1875 C 3.105469 6.1875 2.949219 6.1875 2.949219 6.519531 C 2.949219 6.714844 3.105469 6.714844 3.378906 6.714844 C 4.472656 6.714844 4.472656 6.851562 4.472656 7.046875 C 4.472656 7.085938 4.472656 7.183594 4.394531 7.457031 L 1.972656 17.105469 C 1.816406 17.730469 1.777344 17.90625 0.527344 17.90625 C 0.175781 17.90625 0 17.90625 0 18.238281 C 0 18.433594 0.15625 18.433594 0.273438 18.433594 C 0.605469 18.433594 0.976562 18.394531 1.308594 18.394531 L 3.417969 18.394531 C 3.75 18.394531 4.121094 18.433594 4.472656 18.433594 C 4.609375 18.433594 4.804688 18.433594 4.804688 18.101562 C 4.804688 17.90625 4.648438 17.90625 4.375 17.90625 C 3.300781 17.90625 3.28125 17.789062 3.28125 17.613281 C 3.28125 17.515625 3.300781 17.398438 3.320312 17.300781 Z M 5.761719 7.398438 C 5.917969 6.734375 5.996094 6.714844 6.699219 6.714844 L 8.457031 6.714844 C 9.804688 6.714844 10.917969 7.144531 10.917969 8.492188 C 10.917969 8.941406 10.683594 10.464844 9.863281 11.304688 C 9.550781 11.617188 8.691406 12.300781 7.070312 12.300781 L 4.53125 12.300781 Z M 5.761719 7.398438 "/>
<path style=" stroke:none;fill-rule:nonzero;fill:rgb(0%,0%,0%);fill-opacity:1;" d="M 30.019531 12.632812 C 30.273438 12.632812 30.585938 12.632812 30.585938 12.300781 C 30.585938 11.96875 30.273438 11.96875 30.019531 11.96875 L 19.453125 11.96875 C 19.199219 11.96875 18.886719 11.96875 18.886719 12.28125 C 18.886719 12.632812 19.179688 12.632812 19.453125 12.632812 Z M 30.019531 15.953125 C 30.273438 15.953125 30.585938 15.953125 30.585938 15.640625 C 30.585938 15.289062 30.273438 15.289062 30.019531 15.289062 L 19.453125 15.289062 C 19.199219 15.289062 18.886719 15.289062 18.886719 15.621094 C 18.886719 15.953125 19.179688 15.953125 19.453125 15.953125 Z M 30.019531 15.953125 "/>
<path style=" stroke:none;fill-rule:nonzero;fill:rgb(0%,0%,0%);fill-opacity:1;" d="M 44.109375 21.535156 C 44.675781 21.535156 44.695312 21.515625 44.871094 21.183594 L 54.675781 0.695312 C 54.792969 0.460938 54.792969 0.421875 54.792969 0.382812 C 54.792969 0.1875 54.65625 0.0117188 54.441406 0.0117188 C 54.207031 0.0117188 54.128906 0.1875 54.050781 0.382812 L 44.792969 19.660156 L 40.984375 10.773438 L 38.484375 12.6875 L 38.757812 12.980469 L 40.027344 12.003906 Z M 44.109375 21.535156 "/>
<path style=" stroke:none;fill-rule:nonzero;fill:rgb(0%,0%,0%);fill-opacity:1;" d="M 54.496094 0 L 151.246094 0 L 151.246094 0.753906 L 54.496094 0.753906 Z M 54.496094 0 "/>
<path style=" stroke:none;fill-rule:nonzero;fill:rgb(0%,0%,0%);fill-opacity:1;" d="M 63.007812 11.109375 C 62.441406 11.226562 62.226562 11.65625 62.226562 11.988281 C 62.226562 12.417969 62.558594 12.574219 62.8125 12.574219 C 63.359375 12.574219 63.730469 12.105469 63.730469 11.617188 C 63.730469 10.875 62.871094 10.523438 62.109375 10.523438 C 61.015625 10.523438 60.410156 11.597656 60.253906 11.949219 C 59.84375 10.601562 58.730469 10.523438 58.398438 10.523438 C 56.582031 10.523438 55.605469 12.867188 55.605469 13.277344 C 55.605469 13.335938 55.683594 13.433594 55.800781 13.433594 C 55.9375 13.433594 55.976562 13.316406 56.015625 13.257812 C 56.621094 11.265625 57.832031 10.894531 58.339844 10.894531 C 59.160156 10.894531 59.316406 11.636719 59.316406 12.066406 C 59.316406 12.457031 59.21875 12.867188 58.984375 13.726562 L 58.378906 16.1875 C 58.125 17.261719 57.597656 18.257812 56.640625 18.257812 C 56.5625 18.257812 56.113281 18.257812 55.722656 18.023438 C 56.367188 17.886719 56.523438 17.359375 56.523438 17.144531 C 56.523438 16.792969 56.25 16.578125 55.917969 16.578125 C 55.488281 16.578125 55.019531 16.949219 55.019531 17.515625 C 55.019531 18.277344 55.859375 18.609375 56.621094 18.609375 C 57.480469 18.609375 58.105469 17.925781 58.476562 17.203125 C 58.769531 18.257812 59.648438 18.609375 60.3125 18.609375 C 62.148438 18.609375 63.125 16.265625 63.125 15.875 C 63.125 15.777344 63.046875 15.699219 62.929688 15.699219 C 62.773438 15.699219 62.753906 15.796875 62.714844 15.933594 C 62.226562 17.515625 61.171875 18.257812 60.371094 18.257812 C 59.746094 18.257812 59.414062 17.789062 59.414062 17.046875 C 59.414062 16.65625 59.472656 16.363281 59.765625 15.191406 L 60.390625 12.75 C 60.664062 11.675781 61.269531 10.894531 62.089844 10.894531 C 62.128906 10.894531 62.636719 10.894531 63.007812 11.109375 Z M 63.007812 11.109375 "/>
<path style=" stroke:none;fill-rule:nonzero;fill:rgb(0%,0%,0%);fill-opacity:1;" d="M 66.140625 12.226562 L 67.46875 10.9375 C 69.402344 9.21875 70.144531 8.554688 70.144531 7.304688 C 70.144531 5.878906 69.03125 4.882812 67.507812 4.882812 C 66.101562 4.882812 65.183594 6.035156 65.183594 7.148438 C 65.183594 7.832031 65.808594 7.832031 65.847656 7.832031 C 66.0625 7.832031 66.492188 7.695312 66.492188 7.167969 C 66.492188 6.855469 66.257812 6.523438 65.828125 6.523438 C 65.730469 6.523438 65.710938 6.523438 65.671875 6.542969 C 65.945312 5.722656 66.628906 5.273438 67.351562 5.273438 C 68.484375 5.273438 69.011719 6.289062 69.011719 7.304688 C 69.011719 8.300781 68.40625 9.277344 67.703125 10.058594 L 65.320312 12.714844 C 65.183594 12.851562 65.183594 12.890625 65.183594 13.183594 L 69.8125 13.183594 L 70.144531 11.015625 L 69.851562 11.015625 C 69.773438 11.386719 69.695312 11.933594 69.558594 12.128906 C 69.480469 12.226562 68.660156 12.226562 68.386719 12.226562 Z M 66.140625 12.226562 "/>
<path style=" stroke:none;fill-rule:nonzero;fill:rgb(0%,0%,0%);fill-opacity:1;" d="M 82.507812 14.292969 L 87.46875 14.292969 C 87.722656 14.292969 88.035156 14.292969 88.035156 13.960938 C 88.035156 13.628906 87.722656 13.628906 87.46875 13.628906 L 82.507812 13.628906 L 82.507812 8.6875 C 82.507812 8.433594 82.507812 8.101562 82.195312 8.101562 C 81.84375 8.101562 81.84375 8.414062 81.84375 8.6875 L 81.84375 13.628906 L 76.902344 13.628906 C 76.648438 13.628906 76.335938 13.628906 76.335938 13.960938 C 76.335938 14.292969 76.628906 14.292969 76.902344 14.292969 L 81.84375 14.292969 L 81.84375 19.234375 C 81.84375 19.488281 81.84375 19.820312 82.175781 19.820312 C 82.507812 19.820312 82.507812 19.507812 82.507812 19.234375 Z M 82.507812 14.292969 "/>
<path style=" stroke:none;fill-rule:nonzero;fill:rgb(0%,0%,0%);fill-opacity:1;" d="M 96.210938 11.988281 C 95.898438 12.007812 95.839844 12.027344 95.839844 12.203125 C 95.839844 12.378906 95.917969 12.378906 96.25 12.378906 L 97.070312 12.378906 C 98.59375 12.378906 99.277344 13.628906 99.277344 15.347656 C 99.277344 17.691406 98.046875 18.316406 97.167969 18.316406 C 96.308594 18.316406 94.84375 17.90625 94.335938 16.734375 C 94.902344 16.8125 95.429688 16.5 95.429688 15.855469 C 95.429688 15.328125 95.039062 14.976562 94.550781 14.976562 C 94.121094 14.976562 93.652344 15.230469 93.652344 15.914062 C 93.652344 17.496094 95.234375 18.804688 97.226562 18.804688 C 99.355469 18.804688 100.9375 17.183594 100.9375 15.367188 C 100.9375 13.726562 99.609375 12.417969 97.890625 12.125 C 99.453125 11.675781 100.449219 10.367188 100.449219 8.960938 C 100.449219 7.554688 98.984375 6.519531 97.246094 6.519531 C 95.449219 6.519531 94.121094 7.613281 94.121094 8.921875 C 94.121094 9.625 94.6875 9.78125 94.960938 9.78125 C 95.332031 9.78125 95.761719 9.507812 95.761719 8.960938 C 95.761719 8.394531 95.332031 8.140625 94.941406 8.140625 C 94.824219 8.140625 94.785156 8.140625 94.746094 8.160156 C 95.429688 6.949219 97.109375 6.949219 97.1875 6.949219 C 97.792969 6.949219 98.945312 7.203125 98.945312 8.960938 C 98.945312 9.3125 98.90625 10.308594 98.378906 11.089844 C 97.832031 11.871094 97.226562 11.929688 96.738281 11.949219 Z M 96.210938 11.988281 "/>
<path style=" stroke:none;fill-rule:nonzero;fill:rgb(0%,0%,0%);fill-opacity:1;" d="M 110.257812 11.109375 C 109.691406 11.226562 109.476562 11.65625 109.476562 11.988281 C 109.476562 12.417969 109.808594 12.574219 110.0625 12.574219 C 110.609375 12.574219 110.980469 12.105469 110.980469 11.617188 C 110.980469 10.875 110.121094 10.523438 109.359375 10.523438 C 108.265625 10.523438 107.660156 11.597656 107.503906 11.949219 C 107.09375 10.601562 105.980469 10.523438 105.648438 10.523438 C 103.832031 10.523438 102.855469 12.867188 102.855469 13.277344 C 102.855469 13.335938 102.933594 13.433594 103.050781 13.433594 C 103.1875 13.433594 103.226562 13.316406 103.265625 13.257812 C 103.871094 11.265625 105.082031 10.894531 105.589844 10.894531 C 106.410156 10.894531 106.566406 11.636719 106.566406 12.066406 C 106.566406 12.457031 106.46875 12.867188 106.234375 13.726562 L 105.628906 16.1875 C 105.375 17.261719 104.847656 18.257812 103.890625 18.257812 C 103.8125 18.257812 103.363281 18.257812 102.972656 18.023438 C 103.617188 17.886719 103.773438 17.359375 103.773438 17.144531 C 103.773438 16.792969 103.5 16.578125 103.167969 16.578125 C 102.738281 16.578125 102.269531 16.949219 102.269531 17.515625 C 102.269531 18.277344 103.109375 18.609375 103.871094 18.609375 C 104.730469 18.609375 105.355469 17.925781 105.726562 17.203125 C 106.019531 18.257812 106.898438 18.609375 107.5625 18.609375 C 109.398438 18.609375 110.375 16.265625 110.375 15.875 C 110.375 15.777344 110.296875 15.699219 110.179688 15.699219 C 110.023438 15.699219 110.003906 15.796875 109.964844 15.933594 C 109.476562 17.515625 108.421875 18.257812 107.621094 18.257812 C 106.996094 18.257812 106.664062 17.789062 106.664062 17.046875 C 106.664062 16.65625 106.722656 16.363281 107.015625 15.191406 L 107.640625 12.75 C 107.914062 11.675781 108.519531 10.894531 109.339844 10.894531 C 109.378906 10.894531 109.886719 10.894531 110.257812 11.109375 Z M 110.257812 11.109375 "/>
<path style=" stroke:none;fill-rule:nonzero;fill:rgb(0%,0%,0%);fill-opacity:1;" d="M 127.527344 14.3125 C 127.839844 14.3125 128.152344 14.3125 128.152344 13.960938 C 128.152344 13.589844 127.839844 13.589844 127.527344 13.589844 L 117.820312 13.589844 C 117.527344 13.589844 117.195312 13.589844 117.195312 13.960938 C 117.195312 14.3125 117.527344 14.3125 117.820312 14.3125 Z M 127.527344 14.3125 "/>
<path style=" stroke:none;fill-rule:nonzero;fill:rgb(0%,0%,0%);fill-opacity:1;" d="M 138.71875 6.949219 C 138.71875 6.519531 138.71875 6.519531 138.367188 6.519531 C 137.9375 6.988281 137.039062 7.652344 135.203125 7.652344 L 135.203125 8.179688 C 135.613281 8.179688 136.511719 8.179688 137.488281 7.710938 L 137.488281 17.046875 C 137.488281 17.691406 137.429688 17.90625 135.867188 17.90625 L 135.300781 17.90625 L 135.300781 18.433594 C 135.789062 18.394531 137.527344 18.394531 138.113281 18.394531 C 138.699219 18.394531 140.4375 18.394531 140.90625 18.433594 L 140.90625 17.90625 L 140.359375 17.90625 C 138.777344 17.90625 138.71875 17.691406 138.71875 17.046875 Z M 138.71875 6.949219 "/>
<path style=" stroke:none;fill-rule:nonzero;fill:rgb(0%,0%,0%);fill-opacity:1;" d="M 147.761719 11.96875 C 148.640625 11.480469 149.949219 10.660156 149.949219 9.136719 C 149.949219 7.59375 148.445312 6.519531 146.804688 6.519531 C 145.027344 6.519531 143.621094 7.828125 143.621094 9.449219 C 143.621094 10.054688 143.816406 10.679688 144.304688 11.285156 C 144.5 11.519531 144.519531 11.539062 145.789062 12.417969 C 144.050781 13.21875 143.152344 14.410156 143.152344 15.71875 C 143.152344 17.632812 144.949219 18.804688 146.785156 18.804688 C 148.777344 18.804688 150.4375 17.339844 150.4375 15.464844 C 150.4375 13.628906 149.148438 12.828125 147.761719 11.96875 Z M 145.320312 10.347656 C 145.085938 10.191406 144.363281 9.722656 144.363281 8.84375 C 144.363281 7.671875 145.574219 6.949219 146.785156 6.949219 C 148.074219 6.949219 149.226562 7.867188 149.226562 9.15625 C 149.226562 10.25 148.425781 11.128906 147.390625 11.714844 Z M 146.160156 12.652344 L 148.328125 14.078125 C 148.796875 14.390625 149.617188 14.9375 149.617188 16.03125 C 149.617188 17.398438 148.230469 18.316406 146.804688 18.316406 C 145.28125 18.316406 143.972656 17.222656 143.972656 15.71875 C 143.972656 14.332031 144.988281 13.199219 146.160156 12.652344 Z M 146.160156 12.652344 "/>
<path style=" stroke:none;fill-rule:nonzero;fill:rgb(0%,0%,0%);fill-opacity:1;" d="M 162.308594 14.292969 L 167.269531 14.292969 C 167.523438 14.292969 167.835938 14.292969 167.835938 13.960938 C 167.835938 13.628906 167.523438 13.628906 167.269531 13.628906 L 162.308594 13.628906 L 162.308594 8.6875 C 162.308594 8.433594 162.308594 8.101562 161.996094 8.101562 C 161.644531 8.101562 161.644531 8.414062 161.644531 8.6875 L 161.644531 13.628906 L 156.703125 13.628906 C 156.449219 13.628906 156.136719 13.628906 156.136719 13.960938 C 156.136719 14.292969 156.429688 14.292969 156.703125 14.292969 L 161.644531 14.292969 L 161.644531 19.234375 C 161.644531 19.488281 161.644531 19.820312 161.976562 19.820312 C 162.308594 19.820312 162.308594 19.507812 162.308594 19.234375 Z M 162.308594 14.292969 "/>
<path style=" stroke:none;fill-rule:nonzero;fill:rgb(0%,0%,0%);fill-opacity:1;" d="M 186.257812 5.972656 C 186.257812 5.816406 186.121094 5.816406 186.082031 5.816406 C 186.0625 5.816406 185.984375 5.816406 185.847656 5.992188 L 184.597656 7.496094 C 183.972656 6.421875 182.996094 5.816406 181.648438 5.816406 C 177.78125 5.816406 173.757812 9.742188 173.757812 13.960938 C 173.757812 16.949219 175.847656 18.804688 178.464844 18.804688 C 179.910156 18.804688 181.160156 18.199219 182.195312 17.320312 C 183.757812 16.011719 184.226562 14.273438 184.226562 14.136719 C 184.226562 13.960938 184.089844 13.960938 184.03125 13.960938 C 183.875 13.960938 183.855469 14.078125 183.816406 14.15625 C 182.996094 16.949219 180.574219 18.296875 178.777344 18.296875 C 176.882812 18.296875 175.222656 17.066406 175.222656 14.527344 C 175.222656 13.960938 175.398438 10.835938 177.429688 8.492188 C 178.425781 7.339844 180.105469 6.324219 181.804688 6.324219 C 183.777344 6.324219 184.65625 7.964844 184.65625 9.800781 C 184.65625 10.25 184.597656 10.660156 184.597656 10.71875 C 184.597656 10.894531 184.773438 10.894531 184.832031 10.894531 C 185.027344 10.894531 185.046875 10.875 185.125 10.542969 Z M 186.257812 5.972656 "/>
<path style=" stroke:none;fill-rule:nonzero;fill:rgb(0%,0%,0%);fill-opacity:1;" d="M 189.132812 13.167969 C 189.132812 12.855469 189.132812 12.835938 188.839844 12.835938 C 188.058594 13.636719 186.964844 13.636719 186.574219 13.636719 L 186.574219 14.027344 C 186.828125 14.027344 187.550781 14.027344 188.195312 13.695312 L 188.195312 20.160156 C 188.195312 20.609375 188.15625 20.746094 187.042969 20.746094 L 186.652344 20.746094 L 186.652344 21.136719 C 187.082031 21.097656 188.15625 21.097656 188.664062 21.097656 C 189.152344 21.097656 190.246094 21.097656 190.675781 21.136719 L 190.675781 20.746094 L 190.285156 20.746094 C 189.152344 20.746094 189.132812 20.609375 189.132812 20.160156 Z M 189.132812 13.167969 "/>
</g>
</svg>
