<?xml version="1.0" encoding="UTF-8"?>
<svg xmlns="http://www.w3.org/2000/svg" xmlns:xlink="http://www.w3.org/1999/xlink" width="233.19773pt" height="75.874224pt" viewBox="0 0 233.19773 75.874224" version="1.1">
<g id="surface1">
<path style=" stroke:none;fill-rule:nonzero;fill:rgb(0%,0%,0%);fill-opacity:1;" d="M 7.34375 6.699219 L 7.34375 5.625 L 1.542969 5.625 L 1.542969 1.328125 L 3.964844 1.328125 C 4.179688 1.328125 4.394531 1.347656 4.609375 1.347656 L 7.851562 1.347656 L 7.851562 0.214844 L 0 0.214844 L 0 12.617188 L 8.085938 12.617188 L 8.085938 11.40625 L 5.722656 11.40625 C 5.507812 11.40625 5.292969 11.40625 5.078125 11.40625 L 1.542969 11.40625 L 1.542969 6.699219 Z M 7.34375 6.699219 "/>
<path style=" stroke:none;fill-rule:nonzero;fill:rgb(0%,0%,0%);fill-opacity:1;" d="M 16.632812 4.648438 L 15.304688 4.648438 L 13.996094 8.222656 C 13.683594 9.082031 13.019531 10.976562 12.921875 11.640625 L 12.902344 11.640625 C 12.804688 11.015625 12.453125 10.039062 12.179688 9.257812 L 10.519531 4.648438 L 9.132812 4.648438 L 12.082031 12.617188 L 13.683594 12.617188 Z M 16.632812 4.648438 "/>
<path style=" stroke:none;fill-rule:nonzero;fill:rgb(0%,0%,0%);fill-opacity:1;" d="M 23.992188 7.363281 C 23.992188 5.644531 22.761719 4.394531 21.082031 4.394531 C 20.007812 4.394531 19.207031 4.628906 18.328125 5.136719 L 18.425781 6.328125 C 19.226562 5.742188 20.046875 5.429688 21.082031 5.429688 C 21.902344 5.429688 22.625 6.09375 22.625 7.402344 L 22.625 8.144531 C 21.824219 8.164062 20.75 8.222656 19.675781 8.574219 C 18.464844 9.003906 17.761719 9.667969 17.761719 10.546875 C 17.761719 11.347656 18.230469 12.792969 19.753906 12.792969 C 20.75 12.792969 22 12.5 22.664062 11.953125 L 22.664062 12.617188 L 23.992188 12.617188 Z M 22.625 10.214844 C 22.625 10.566406 22.625 10.996094 22.039062 11.367188 C 21.550781 11.660156 20.945312 11.71875 20.671875 11.71875 C 19.714844 11.71875 19.050781 11.191406 19.050781 10.546875 C 19.050781 9.316406 21.53125 9.042969 22.625 9.042969 Z M 22.625 10.214844 "/>
<path style=" stroke:none;fill-rule:nonzero;fill:rgb(0%,0%,0%);fill-opacity:1;" d="M 28.113281 0.175781 L 26.785156 0.175781 L 26.785156 12.617188 L 28.113281 12.617188 Z M 28.113281 0.175781 "/>
<path style=" stroke:none;fill-rule:nonzero;fill:rgb(0%,0%,0%);fill-opacity:1;" d="M 37.175781 4.648438 L 35.808594 4.648438 L 35.808594 9.785156 C 35.808594 11.152344 34.871094 11.816406 33.699219 11.816406 C 32.449219 11.816406 32.3125 11.347656 32.3125 10.546875 L 32.3125 4.648438 L 30.964844 4.648438 L 30.964844 10.625 C 30.964844 11.914062 31.375 12.792969 32.839844 12.792969 C 33.347656 12.792969 34.753906 12.714844 35.847656 11.71875 L 35.847656 12.617188 L 37.175781 12.617188 Z M 37.175781 4.648438 "/>
<path style=" stroke:none;fill-rule:nonzero;fill:rgb(0%,0%,0%);fill-opacity:1;" d="M 45.589844 7.363281 C 45.589844 5.644531 44.359375 4.394531 42.679688 4.394531 C 41.605469 4.394531 40.804688 4.628906 39.925781 5.136719 L 40.023438 6.328125 C 40.824219 5.742188 41.644531 5.429688 42.679688 5.429688 C 43.5 5.429688 44.222656 6.09375 44.222656 7.402344 L 44.222656 8.144531 C 43.421875 8.164062 42.347656 8.222656 41.273438 8.574219 C 40.0625 9.003906 39.359375 9.667969 39.359375 10.546875 C 39.359375 11.347656 39.828125 12.792969 41.351562 12.792969 C 42.347656 12.792969 43.597656 12.5 44.261719 11.953125 L 44.261719 12.617188 L 45.589844 12.617188 Z M 44.222656 10.214844 C 44.222656 10.566406 44.222656 10.996094 43.636719 11.367188 C 43.148438 11.660156 42.542969 11.71875 42.269531 11.71875 C 41.3125 11.71875 40.648438 11.191406 40.648438 10.546875 C 40.648438 9.316406 43.128906 9.042969 44.222656 9.042969 Z M 44.222656 10.214844 "/>
<path style=" stroke:none;fill-rule:nonzero;fill:rgb(0%,0%,0%);fill-opacity:1;" d="M 50.046875 5.703125 L 52.527344 5.703125 L 52.527344 4.648438 L 50.046875 4.648438 L 50.046875 2.382812 L 48.816406 2.382812 L 48.816406 4.648438 L 47.3125 4.648438 L 47.3125 5.703125 L 48.777344 5.703125 L 48.777344 10.527344 C 48.777344 11.5625 49.011719 12.792969 50.242188 12.792969 C 51.453125 12.792969 52.273438 12.382812 52.820312 12.089844 L 52.546875 11.054688 C 51.921875 11.621094 51.257812 11.679688 50.945312 11.679688 C 50.144531 11.679688 50.046875 10.839844 50.046875 10.214844 Z M 50.046875 5.703125 "/>
<path style=" stroke:none;fill-rule:nonzero;fill:rgb(0%,0%,0%);fill-opacity:1;" d="M 60.582031 8.574219 C 60.582031 7.8125 60.503906 6.71875 59.9375 5.761719 C 59.195312 4.53125 57.945312 4.394531 57.417969 4.394531 C 55.484375 4.394531 53.863281 6.25 53.863281 8.574219 C 53.863281 10.957031 55.582031 12.792969 57.671875 12.792969 C 58.492188 12.792969 59.488281 12.558594 60.464844 11.855469 C 60.464844 11.777344 60.40625 11.210938 60.40625 11.191406 C 60.386719 11.171875 60.367188 10.761719 60.367188 10.703125 C 59.292969 11.601562 58.238281 11.71875 57.710938 11.71875 C 56.324219 11.71875 55.132812 10.488281 55.113281 8.574219 Z M 55.210938 7.617188 C 55.523438 6.40625 56.363281 5.46875 57.417969 5.46875 C 57.984375 5.46875 59.214844 5.722656 59.507812 7.617188 Z M 55.210938 7.617188 "/>
<path style=" stroke:none;fill-rule:nonzero;fill:rgb(0%,0%,0%);fill-opacity:1;" d="M 69.84375 5.703125 L 72.324219 5.703125 L 72.324219 4.648438 L 69.84375 4.648438 L 69.84375 2.382812 L 68.613281 2.382812 L 68.613281 4.648438 L 67.109375 4.648438 L 67.109375 5.703125 L 68.574219 5.703125 L 68.574219 10.527344 C 68.574219 11.5625 68.808594 12.792969 70.039062 12.792969 C 71.25 12.792969 72.070312 12.382812 72.617188 12.089844 L 72.34375 11.054688 C 71.71875 11.621094 71.054688 11.679688 70.742188 11.679688 C 69.941406 11.679688 69.84375 10.839844 69.84375 10.214844 Z M 69.84375 5.703125 "/>
<path style=" stroke:none;fill-rule:nonzero;fill:rgb(0%,0%,0%);fill-opacity:1;" d="M 80.675781 7.226562 C 80.675781 6.132812 80.441406 4.472656 78.273438 4.472656 C 77.042969 4.472656 76.222656 5.175781 75.792969 5.722656 L 75.792969 0.175781 L 74.464844 0.175781 L 74.464844 12.617188 L 75.8125 12.617188 L 75.8125 8.144531 C 75.8125 7.050781 76.242188 5.546875 77.589844 5.546875 C 79.269531 5.546875 79.308594 6.71875 79.308594 7.34375 L 79.308594 12.617188 L 80.675781 12.617188 Z M 80.675781 7.226562 "/>
<path style=" stroke:none;fill-rule:nonzero;fill:rgb(0%,0%,0%);fill-opacity:1;" d="M 89.382812 8.574219 C 89.382812 7.8125 89.304688 6.71875 88.738281 5.761719 C 87.996094 4.53125 86.746094 4.394531 86.21875 4.394531 C 84.285156 4.394531 82.664062 6.25 82.664062 8.574219 C 82.664062 10.957031 84.382812 12.792969 86.472656 12.792969 C 87.292969 12.792969 88.289062 12.558594 89.265625 11.855469 C 89.265625 11.777344 89.207031 11.210938 89.207031 11.191406 C 89.1875 11.171875 89.167969 10.761719 89.167969 10.703125 C 88.09375 11.601562 87.039062 11.71875 86.511719 11.71875 C 85.125 11.71875 83.933594 10.488281 83.914062 8.574219 Z M 84.011719 7.617188 C 84.324219 6.40625 85.164062 5.46875 86.21875 5.46875 C 86.785156 5.46875 88.015625 5.722656 88.308594 7.617188 Z M 84.011719 7.617188 "/>
<path style=" stroke:none;fill-rule:nonzero;fill:rgb(0%,0%,0%);fill-opacity:1;" d="M 98.984375 5.703125 L 100.898438 5.703125 L 100.898438 4.648438 L 98.945312 4.648438 L 98.945312 2.5 C 98.945312 1.289062 99.960938 1.074219 100.566406 1.074219 C 101.191406 1.074219 101.738281 1.269531 101.953125 1.347656 L 101.953125 0.175781 C 101.835938 0.136719 101.230469 0 100.585938 0 C 98.867188 0 97.65625 1.308594 97.65625 3.046875 L 97.65625 4.648438 L 96.347656 4.648438 L 96.347656 5.703125 L 97.65625 5.703125 L 97.65625 12.617188 L 98.984375 12.617188 Z M 98.984375 5.703125 "/>
<path style=" stroke:none;fill-rule:nonzero;fill:rgb(0%,0%,0%);fill-opacity:1;" d="M 109.5 8.671875 C 109.5 6.25 107.722656 4.394531 105.671875 4.394531 C 103.5625 4.394531 101.824219 6.289062 101.824219 8.671875 C 101.824219 11.015625 103.601562 12.792969 105.652344 12.792969 C 107.761719 12.792969 109.5 10.976562 109.5 8.671875 Z M 105.671875 11.679688 C 104.382812 11.679688 103.171875 10.605469 103.171875 8.496094 C 103.171875 6.328125 104.519531 5.46875 105.652344 5.46875 C 106.882812 5.46875 108.152344 6.386719 108.152344 8.496094 C 108.152344 10.703125 106.863281 11.679688 105.671875 11.679688 Z M 105.671875 11.679688 "/>
<path style=" stroke:none;fill-rule:nonzero;fill:rgb(0%,0%,0%);fill-opacity:1;" d="M 112.863281 0.175781 L 111.535156 0.175781 L 111.535156 12.617188 L 112.863281 12.617188 Z M 112.863281 0.175781 "/>
<path style=" stroke:none;fill-rule:nonzero;fill:rgb(0%,0%,0%);fill-opacity:1;" d="M 117.0625 0.175781 L 115.734375 0.175781 L 115.734375 12.617188 L 117.0625 12.617188 Z M 117.0625 0.175781 "/>
<path style=" stroke:none;fill-rule:nonzero;fill:rgb(0%,0%,0%);fill-opacity:1;" d="M 126.75 8.671875 C 126.75 6.25 124.972656 4.394531 122.921875 4.394531 C 120.8125 4.394531 119.074219 6.289062 119.074219 8.671875 C 119.074219 11.015625 120.851562 12.792969 122.902344 12.792969 C 125.011719 12.792969 126.75 10.976562 126.75 8.671875 Z M 122.921875 11.679688 C 121.632812 11.679688 120.421875 10.605469 120.421875 8.496094 C 120.421875 6.328125 121.769531 5.46875 122.902344 5.46875 C 124.132812 5.46875 125.402344 6.386719 125.402344 8.496094 C 125.402344 10.703125 124.113281 11.679688 122.921875 11.679688 Z M 122.921875 11.679688 "/>
<path style=" stroke:none;fill-rule:nonzero;fill:rgb(0%,0%,0%);fill-opacity:1;" d="M 138.589844 4.648438 L 137.28125 4.648438 L 136.207031 8.300781 C 135.953125 9.160156 135.445312 10.839844 135.367188 11.621094 L 135.347656 11.621094 C 135.308594 11.191406 135.015625 9.980469 134.644531 8.710938 L 133.453125 4.648438 L 132.222656 4.648438 L 131.1875 8.164062 C 130.875 9.277344 130.445312 10.820312 130.386719 11.582031 L 130.367188 11.582031 C 130.347656 11.230469 130.152344 10.292969 129.820312 9.082031 L 128.550781 4.648438 L 127.183594 4.648438 L 129.585938 12.617188 L 130.972656 12.617188 C 131.636719 10.351562 132.691406 6.953125 132.789062 5.703125 L 132.808594 5.703125 C 132.847656 6.425781 133.199219 7.714844 133.335938 8.144531 L 134.605469 12.617188 L 136.1875 12.617188 Z M 138.589844 4.648438 "/>
<path style=" stroke:none;fill-rule:nonzero;fill:rgb(0%,0%,0%);fill-opacity:1;" d="M 141.761719 0.449219 L 140.21875 0.449219 L 140.21875 1.992188 L 141.761719 1.992188 Z M 141.664062 4.648438 L 140.335938 4.648438 L 140.335938 12.617188 L 141.664062 12.617188 Z M 141.664062 4.648438 "/>
<path style=" stroke:none;fill-rule:nonzero;fill:rgb(0%,0%,0%);fill-opacity:1;" d="M 150.726562 7.226562 C 150.726562 6.132812 150.492188 4.472656 148.324219 4.472656 C 147.328125 4.472656 146.46875 4.921875 145.785156 5.78125 L 145.785156 4.570312 L 144.515625 4.570312 L 144.515625 12.617188 L 145.863281 12.617188 L 145.863281 8.144531 C 145.863281 7.050781 146.292969 5.546875 147.640625 5.546875 C 149.320312 5.546875 149.359375 6.71875 149.359375 7.34375 L 149.359375 12.617188 L 150.726562 12.617188 Z M 150.726562 7.226562 "/>
<path style=" stroke:none;fill-rule:nonzero;fill:rgb(0%,0%,0%);fill-opacity:1;" d="M 158.242188 5.546875 C 158.242188 5.546875 158.28125 5.585938 158.300781 5.625 C 158.671875 5.585938 159.0625 5.527344 159.726562 5.527344 C 159.785156 5.527344 160.195312 5.527344 160.644531 5.566406 L 160.449219 4.472656 C 160.117188 4.472656 158.886719 4.492188 157.695312 5.078125 C 157.109375 4.570312 156.386719 4.472656 156.035156 4.472656 C 154.472656 4.472656 153.222656 5.78125 153.222656 7.363281 C 153.222656 8.007812 153.417969 8.59375 153.808594 9.140625 C 153.398438 9.707031 153.300781 10.253906 153.300781 10.683594 C 153.300781 11.347656 153.554688 11.796875 153.75 12.03125 C 152.832031 12.617188 152.617188 13.378906 152.617188 13.886719 C 152.617188 15.195312 154.316406 16.289062 156.503906 16.289062 C 158.691406 16.289062 160.410156 15.234375 160.410156 13.867188 C 160.410156 11.367188 157.5 11.367188 156.777344 11.367188 L 155.253906 11.367188 C 155 11.367188 154.21875 11.367188 154.21875 10.410156 C 154.21875 10.019531 154.296875 9.902344 154.414062 9.746094 C 154.707031 9.960938 155.292969 10.273438 156.015625 10.273438 C 157.558594 10.273438 158.828125 9.003906 158.828125 7.363281 C 158.828125 6.71875 158.59375 6.054688 158.222656 5.566406 Z M 156.035156 9.277344 C 155.253906 9.277344 154.453125 8.75 154.453125 7.382812 C 154.453125 5.78125 155.46875 5.46875 156.015625 5.46875 C 156.816406 5.46875 157.597656 5.996094 157.597656 7.363281 C 157.597656 8.964844 156.601562 9.277344 156.035156 9.277344 Z M 156.796875 12.65625 C 157.1875 12.65625 159.160156 12.65625 159.160156 13.886719 C 159.160156 14.707031 157.929688 15.3125 156.523438 15.3125 C 155.117188 15.3125 153.867188 14.746094 153.867188 13.867188 C 153.867188 13.828125 153.867188 12.65625 155.234375 12.65625 Z M 156.796875 12.65625 "/>
<path style=" stroke:none;fill-rule:nonzero;fill:rgb(0%,0%,0%);fill-opacity:1;" d="M 169.058594 0.449219 L 167.515625 0.449219 L 167.515625 1.992188 L 169.058594 1.992188 Z M 168.960938 4.648438 L 167.632812 4.648438 L 167.632812 12.617188 L 168.960938 12.617188 Z M 168.960938 4.648438 "/>
<path style=" stroke:none;fill-rule:nonzero;fill:rgb(0%,0%,0%);fill-opacity:1;" d="M 178.027344 7.226562 C 178.027344 6.132812 177.792969 4.472656 175.625 4.472656 C 174.628906 4.472656 173.769531 4.921875 173.085938 5.78125 L 173.085938 4.570312 L 171.816406 4.570312 L 171.816406 12.617188 L 173.164062 12.617188 L 173.164062 8.144531 C 173.164062 7.050781 173.59375 5.546875 174.941406 5.546875 C 176.621094 5.546875 176.660156 6.71875 176.660156 7.34375 L 176.660156 12.617188 L 178.027344 12.617188 Z M 178.027344 7.226562 "/>
<path style=" stroke:none;fill-rule:nonzero;fill:rgb(0%,0%,0%);fill-opacity:1;" d="M 182.496094 5.703125 L 184.976562 5.703125 L 184.976562 4.648438 L 182.496094 4.648438 L 182.496094 2.382812 L 181.265625 2.382812 L 181.265625 4.648438 L 179.761719 4.648438 L 179.761719 5.703125 L 181.226562 5.703125 L 181.226562 10.527344 C 181.226562 11.5625 181.460938 12.792969 182.691406 12.792969 C 183.902344 12.792969 184.722656 12.382812 185.269531 12.089844 L 184.996094 11.054688 C 184.371094 11.621094 183.707031 11.679688 183.394531 11.679688 C 182.59375 11.679688 182.496094 10.839844 182.496094 10.214844 Z M 182.496094 5.703125 "/>
<path style=" stroke:none;fill-rule:nonzero;fill:rgb(0%,0%,0%);fill-opacity:1;" d="M 193.03125 8.574219 C 193.03125 7.8125 192.953125 6.71875 192.386719 5.761719 C 191.644531 4.53125 190.394531 4.394531 189.867188 4.394531 C 187.933594 4.394531 186.3125 6.25 186.3125 8.574219 C 186.3125 10.957031 188.03125 12.792969 190.121094 12.792969 C 190.941406 12.792969 191.9375 12.558594 192.914062 11.855469 C 192.914062 11.777344 192.855469 11.210938 192.855469 11.191406 C 192.835938 11.171875 192.816406 10.761719 192.816406 10.703125 C 191.742188 11.601562 190.6875 11.71875 190.160156 11.71875 C 188.773438 11.71875 187.582031 10.488281 187.5625 8.574219 Z M 187.660156 7.617188 C 187.972656 6.40625 188.8125 5.46875 189.867188 5.46875 C 190.433594 5.46875 191.664062 5.722656 191.957031 7.617188 Z M 187.660156 7.617188 "/>
<path style=" stroke:none;fill-rule:nonzero;fill:rgb(0%,0%,0%);fill-opacity:1;" d="M 199.640625 5.546875 C 199.640625 5.546875 199.679688 5.585938 199.699219 5.625 C 200.070312 5.585938 200.460938 5.527344 201.125 5.527344 C 201.183594 5.527344 201.59375 5.527344 202.042969 5.566406 L 201.847656 4.472656 C 201.515625 4.472656 200.285156 4.492188 199.09375 5.078125 C 198.507812 4.570312 197.785156 4.472656 197.433594 4.472656 C 195.871094 4.472656 194.621094 5.78125 194.621094 7.363281 C 194.621094 8.007812 194.816406 8.59375 195.207031 9.140625 C 194.796875 9.707031 194.699219 10.253906 194.699219 10.683594 C 194.699219 11.347656 194.953125 11.796875 195.148438 12.03125 C 194.230469 12.617188 194.015625 13.378906 194.015625 13.886719 C 194.015625 15.195312 195.714844 16.289062 197.902344 16.289062 C 200.089844 16.289062 201.808594 15.234375 201.808594 13.867188 C 201.808594 11.367188 198.898438 11.367188 198.175781 11.367188 L 196.652344 11.367188 C 196.398438 11.367188 195.617188 11.367188 195.617188 10.410156 C 195.617188 10.019531 195.695312 9.902344 195.8125 9.746094 C 196.105469 9.960938 196.691406 10.273438 197.414062 10.273438 C 198.957031 10.273438 200.226562 9.003906 200.226562 7.363281 C 200.226562 6.71875 199.992188 6.054688 199.621094 5.566406 Z M 197.433594 9.277344 C 196.652344 9.277344 195.851562 8.75 195.851562 7.382812 C 195.851562 5.78125 196.867188 5.46875 197.414062 5.46875 C 198.214844 5.46875 198.996094 5.996094 198.996094 7.363281 C 198.996094 8.964844 198 9.277344 197.433594 9.277344 Z M 198.195312 12.65625 C 198.585938 12.65625 200.558594 12.65625 200.558594 13.886719 C 200.558594 14.707031 199.328125 15.3125 197.921875 15.3125 C 196.515625 15.3125 195.265625 14.746094 195.265625 13.867188 C 195.265625 13.828125 195.265625 12.65625 196.632812 12.65625 Z M 198.195312 12.65625 "/>
<path style=" stroke:none;fill-rule:nonzero;fill:rgb(0%,0%,0%);fill-opacity:1;" d="M 205.113281 8.691406 C 205.113281 6.875 206.460938 5.703125 208.082031 5.683594 L 208.082031 4.472656 C 206.441406 4.492188 205.503906 5.449219 205.015625 6.152344 L 205.015625 4.570312 L 203.785156 4.570312 L 203.785156 12.617188 L 205.113281 12.617188 Z M 205.113281 8.691406 "/>
<path style=" stroke:none;fill-rule:nonzero;fill:rgb(0%,0%,0%);fill-opacity:1;" d="M 215.390625 7.363281 C 215.390625 5.644531 214.160156 4.394531 212.480469 4.394531 C 211.40625 4.394531 210.605469 4.628906 209.726562 5.136719 L 209.824219 6.328125 C 210.625 5.742188 211.445312 5.429688 212.480469 5.429688 C 213.300781 5.429688 214.023438 6.09375 214.023438 7.402344 L 214.023438 8.144531 C 213.222656 8.164062 212.148438 8.222656 211.074219 8.574219 C 209.863281 9.003906 209.160156 9.667969 209.160156 10.546875 C 209.160156 11.347656 209.628906 12.792969 211.152344 12.792969 C 212.148438 12.792969 213.398438 12.5 214.0625 11.953125 L 214.0625 12.617188 L 215.390625 12.617188 Z M 214.023438 10.214844 C 214.023438 10.566406 214.023438 10.996094 213.4375 11.367188 C 212.949219 11.660156 212.34375 11.71875 212.070312 11.71875 C 211.113281 11.71875 210.449219 11.191406 210.449219 10.546875 C 210.449219 9.316406 212.929688 9.042969 214.023438 9.042969 Z M 214.023438 10.214844 "/>
<path style=" stroke:none;fill-rule:nonzero;fill:rgb(0%,0%,0%);fill-opacity:1;" d="M 219.511719 0.175781 L 218.183594 0.175781 L 218.183594 12.617188 L 219.511719 12.617188 Z M 219.511719 0.175781 "/>
<path style=" stroke:none;fill-rule:nonzero;fill:rgb(0%,0%,0%);fill-opacity:1;" d="M 40.082031 48.347656 C 40.238281 47.722656 40.277344 47.546875 41.585938 47.546875 C 41.976562 47.546875 42.113281 47.546875 42.113281 47.195312 C 42.113281 47.019531 41.917969 47.019531 41.878906 47.019531 C 41.546875 47.019531 41.15625 47.058594 40.824219 47.058594 L 38.617188 47.058594 C 38.265625 47.058594 37.855469 47.019531 37.503906 47.019531 C 37.347656 47.019531 37.152344 47.019531 37.152344 47.351562 C 37.152344 47.546875 37.308594 47.546875 37.660156 47.546875 C 38.773438 47.546875 38.773438 47.683594 38.773438 47.878906 C 38.773438 47.996094 38.734375 48.113281 38.695312 48.269531 L 36.273438 57.9375 C 36.117188 58.5625 36.078125 58.738281 34.769531 58.738281 C 34.378906 58.738281 34.222656 58.738281 34.222656 59.089844 C 34.222656 59.265625 34.398438 59.265625 34.476562 59.265625 C 34.808594 59.265625 35.199219 59.226562 35.53125 59.226562 L 37.738281 59.226562 C 38.089844 59.226562 38.480469 59.265625 38.832031 59.265625 C 38.988281 59.265625 39.203125 59.265625 39.203125 58.933594 C 39.203125 58.738281 39.085938 58.738281 38.695312 58.738281 C 37.582031 58.738281 37.582031 58.601562 37.582031 58.386719 C 37.582031 58.347656 37.582031 58.269531 37.660156 57.976562 Z M 40.082031 48.347656 "/>
<path style=" stroke:none;fill-rule:nonzero;fill:rgb(0%,0%,0%);fill-opacity:1;" d="M 59.839844 53.464844 C 60.09375 53.464844 60.40625 53.464844 60.40625 53.132812 C 60.40625 52.800781 60.09375 52.800781 59.839844 52.800781 L 49.273438 52.800781 C 49.019531 52.800781 48.707031 52.800781 48.707031 53.113281 C 48.707031 53.464844 49 53.464844 49.273438 53.464844 Z M 59.839844 56.785156 C 60.09375 56.785156 60.40625 56.785156 60.40625 56.472656 C 60.40625 56.121094 60.09375 56.121094 59.839844 56.121094 L 49.273438 56.121094 C 49.019531 56.121094 48.707031 56.121094 48.707031 56.453125 C 48.707031 56.785156 49 56.785156 49.273438 56.785156 Z M 59.839844 56.785156 "/>
<path style=" stroke:none;fill-rule:nonzero;fill:rgb(0%,0%,0%);fill-opacity:1;" d="M 68.183594 73.839844 C 68.769531 73.820312 69.0625 73.410156 69.0625 72.980469 C 69.0625 72.375 68.632812 72.101562 68.203125 72.101562 C 67.773438 72.101562 67.324219 72.355469 67.324219 72.980469 C 67.324219 73.898438 68.222656 74.660156 69.316406 74.660156 C 72.050781 74.660156 73.066406 70.460938 74.335938 65.265625 C 75.722656 59.601562 76.894531 53.878906 77.851562 48.117188 C 78.515625 44.308594 79.179688 40.714844 79.785156 38.410156 C 80 37.53125 80.625 35.207031 81.308594 35.207031 C 81.875 35.207031 82.324219 35.558594 82.402344 35.617188 C 81.796875 35.65625 81.503906 36.046875 81.503906 36.496094 C 81.503906 37.101562 81.953125 37.375 82.363281 37.375 C 82.792969 37.375 83.242188 37.121094 83.242188 36.476562 C 83.242188 35.519531 82.265625 34.816406 81.289062 34.816406 C 79.921875 34.816406 78.90625 36.769531 77.929688 40.421875 C 77.871094 40.617188 75.429688 49.621094 73.457031 61.359375 C 72.988281 64.09375 72.480469 67.082031 71.894531 69.582031 C 71.5625 70.890625 70.742188 74.269531 69.277344 74.269531 C 68.632812 74.269531 68.203125 73.839844 68.183594 73.839844 Z M 68.183594 73.839844 "/>
<path style=" stroke:none;fill-rule:nonzero;fill:rgb(0%,0%,0%);fill-opacity:1;" d="M 132.726562 39.792969 C 132.160156 39.910156 131.945312 40.339844 131.945312 40.671875 C 131.945312 41.101562 132.277344 41.257812 132.53125 41.257812 C 133.078125 41.257812 133.449219 40.789062 133.449219 40.300781 C 133.449219 39.558594 132.589844 39.207031 131.828125 39.207031 C 130.734375 39.207031 130.128906 40.28125 129.972656 40.632812 C 129.5625 39.285156 128.449219 39.207031 128.117188 39.207031 C 126.300781 39.207031 125.324219 41.550781 125.324219 41.960938 C 125.324219 42.019531 125.402344 42.117188 125.519531 42.117188 C 125.65625 42.117188 125.695312 42 125.734375 41.941406 C 126.339844 39.949219 127.550781 39.578125 128.058594 39.578125 C 128.878906 39.578125 129.035156 40.320312 129.035156 40.75 C 129.035156 41.140625 128.9375 41.550781 128.703125 42.410156 L 128.097656 44.871094 C 127.84375 45.945312 127.316406 46.941406 126.359375 46.941406 C 126.28125 46.941406 125.832031 46.941406 125.441406 46.707031 C 126.085938 46.570312 126.242188 46.042969 126.242188 45.828125 C 126.242188 45.476562 125.96875 45.261719 125.636719 45.261719 C 125.207031 45.261719 124.738281 45.632812 124.738281 46.199219 C 124.738281 46.960938 125.578125 47.292969 126.339844 47.292969 C 127.199219 47.292969 127.824219 46.609375 128.195312 45.886719 C 128.488281 46.941406 129.367188 47.292969 130.03125 47.292969 C 131.867188 47.292969 132.84375 44.949219 132.84375 44.558594 C 132.84375 44.460938 132.765625 44.382812 132.648438 44.382812 C 132.492188 44.382812 132.472656 44.480469 132.433594 44.617188 C 131.945312 46.199219 130.890625 46.941406 130.089844 46.941406 C 129.464844 46.941406 129.132812 46.472656 129.132812 45.730469 C 129.132812 45.339844 129.191406 45.046875 129.484375 43.875 L 130.109375 41.433594 C 130.382812 40.359375 130.988281 39.578125 131.808594 39.578125 C 131.847656 39.578125 132.355469 39.578125 132.726562 39.792969 Z M 132.726562 39.792969 "/>
<path style=" stroke:none;fill-rule:nonzero;fill:rgb(0%,0%,0%);fill-opacity:1;" d="M 149.996094 42.996094 C 150.308594 42.996094 150.621094 42.996094 150.621094 42.644531 C 150.621094 42.273438 150.308594 42.273438 149.996094 42.273438 L 140.289062 42.273438 C 139.996094 42.273438 139.664062 42.273438 139.664062 42.644531 C 139.664062 42.996094 139.996094 42.996094 140.289062 42.996094 Z M 149.996094 42.996094 "/>
<path style=" stroke:none;fill-rule:nonzero;fill:rgb(0%,0%,0%);fill-opacity:1;" d="M 159.332031 40.671875 C 159.019531 40.691406 158.960938 40.710938 158.960938 40.886719 C 158.960938 41.0625 159.039062 41.0625 159.371094 41.0625 L 160.191406 41.0625 C 161.714844 41.0625 162.398438 42.3125 162.398438 44.03125 C 162.398438 46.375 161.167969 47 160.289062 47 C 159.429688 47 157.964844 46.589844 157.457031 45.417969 C 158.023438 45.496094 158.550781 45.183594 158.550781 44.539062 C 158.550781 44.011719 158.160156 43.660156 157.671875 43.660156 C 157.242188 43.660156 156.773438 43.914062 156.773438 44.597656 C 156.773438 46.179688 158.355469 47.488281 160.347656 47.488281 C 162.476562 47.488281 164.058594 45.867188 164.058594 44.050781 C 164.058594 42.410156 162.730469 41.101562 161.011719 40.808594 C 162.574219 40.359375 163.570312 39.050781 163.570312 37.644531 C 163.570312 36.238281 162.105469 35.203125 160.367188 35.203125 C 158.570312 35.203125 157.242188 36.296875 157.242188 37.605469 C 157.242188 38.308594 157.808594 38.464844 158.082031 38.464844 C 158.453125 38.464844 158.882812 38.191406 158.882812 37.644531 C 158.882812 37.078125 158.453125 36.824219 158.0625 36.824219 C 157.945312 36.824219 157.90625 36.824219 157.867188 36.84375 C 158.550781 35.632812 160.230469 35.632812 160.308594 35.632812 C 160.914062 35.632812 162.066406 35.886719 162.066406 37.644531 C 162.066406 37.996094 162.027344 38.992188 161.5 39.773438 C 160.953125 40.554688 160.347656 40.613281 159.859375 40.632812 Z M 159.332031 40.671875 "/>
<path style=" stroke:none;fill-rule:nonzero;fill:rgb(0%,0%,0%);fill-opacity:1;" d="M 88.664062 54.332031 L 200.410156 54.332031 L 200.410156 55.085938 L 88.664062 55.085938 Z M 88.664062 54.332031 "/>
<path style=" stroke:none;fill-rule:nonzero;fill:rgb(0%,0%,0%);fill-opacity:1;" d="M 95.652344 74 L 92.507812 67.027344 C 92.371094 66.734375 92.292969 66.734375 92.234375 66.734375 C 92.214844 66.734375 92.117188 66.734375 91.921875 66.871094 L 90.222656 68.179688 C 89.988281 68.355469 89.988281 68.394531 89.988281 68.453125 C 89.988281 68.550781 90.046875 68.648438 90.164062 68.648438 C 90.28125 68.648438 90.574219 68.394531 90.769531 68.257812 C 90.886719 68.179688 91.160156 67.964844 91.355469 67.828125 L 94.890625 75.601562 C 95.007812 75.875 95.105469 75.875 95.261719 75.875 C 95.535156 75.875 95.574219 75.777344 95.710938 75.523438 L 103.855469 58.667969 C 103.972656 58.414062 103.972656 58.335938 103.972656 58.316406 C 103.972656 58.121094 103.835938 57.945312 103.621094 57.945312 C 103.464844 57.945312 103.347656 58.042969 103.210938 58.335938 Z M 95.652344 74 "/>
<path style=" stroke:none;fill-rule:nonzero;fill:rgb(0%,0%,0%);fill-opacity:1;" d="M 103.664062 57.929688 L 200.410156 57.929688 L 200.410156 58.683594 L 103.664062 58.683594 Z M 103.664062 57.929688 "/>
<path style=" stroke:none;fill-rule:nonzero;fill:rgb(0%,0%,0%);fill-opacity:1;" d="M 112.175781 66.34375 C 111.609375 66.460938 111.394531 66.890625 111.394531 67.222656 C 111.394531 67.652344 111.726562 67.808594 111.980469 67.808594 C 112.527344 67.808594 112.898438 67.339844 112.898438 66.851562 C 112.898438 66.109375 112.039062 65.757812 111.277344 65.757812 C 110.183594 65.757812 109.578125 66.832031 109.421875 67.183594 C 109.011719 65.835938 107.898438 65.757812 107.566406 65.757812 C 105.75 65.757812 104.773438 68.101562 104.773438 68.511719 C 104.773438 68.570312 104.851562 68.667969 104.96875 68.667969 C 105.105469 68.667969 105.144531 68.550781 105.183594 68.492188 C 105.789062 66.5 107 66.128906 107.507812 66.128906 C 108.328125 66.128906 108.484375 66.871094 108.484375 67.300781 C 108.484375 67.691406 108.386719 68.101562 108.152344 68.960938 L 107.546875 71.421875 C 107.292969 72.496094 106.765625 73.492188 105.808594 73.492188 C 105.730469 73.492188 105.28125 73.492188 104.890625 73.257812 C 105.535156 73.121094 105.691406 72.59375 105.691406 72.378906 C 105.691406 72.027344 105.417969 71.8125 105.085938 71.8125 C 104.65625 71.8125 104.1875 72.183594 104.1875 72.75 C 104.1875 73.511719 105.027344 73.84375 105.789062 73.84375 C 106.648438 73.84375 107.273438 73.160156 107.644531 72.4375 C 107.9375 73.492188 108.816406 73.84375 109.480469 73.84375 C 111.316406 73.84375 112.292969 71.5 112.292969 71.109375 C 112.292969 71.011719 112.214844 70.933594 112.097656 70.933594 C 111.941406 70.933594 111.921875 71.03125 111.882812 71.167969 C 111.394531 72.75 110.339844 73.492188 109.539062 73.492188 C 108.914062 73.492188 108.582031 73.023438 108.582031 72.28125 C 108.582031 71.890625 108.640625 71.597656 108.933594 70.425781 L 109.558594 67.984375 C 109.832031 66.910156 110.4375 66.128906 111.257812 66.128906 C 111.296875 66.128906 111.804688 66.128906 112.175781 66.34375 Z M 112.175781 66.34375 "/>
<path style=" stroke:none;fill-rule:nonzero;fill:rgb(0%,0%,0%);fill-opacity:1;" d="M 115.3125 67.460938 L 116.640625 66.171875 C 118.574219 64.453125 119.316406 63.789062 119.316406 62.539062 C 119.316406 61.113281 118.203125 60.117188 116.679688 60.117188 C 115.273438 60.117188 114.355469 61.269531 114.355469 62.382812 C 114.355469 63.066406 114.980469 63.066406 115.019531 63.066406 C 115.234375 63.066406 115.664062 62.929688 115.664062 62.402344 C 115.664062 62.089844 115.429688 61.757812 115 61.757812 C 114.902344 61.757812 114.882812 61.757812 114.84375 61.777344 C 115.117188 60.957031 115.800781 60.507812 116.523438 60.507812 C 117.65625 60.507812 118.183594 61.523438 118.183594 62.539062 C 118.183594 63.535156 117.578125 64.511719 116.875 65.292969 L 114.492188 67.949219 C 114.355469 68.085938 114.355469 68.125 114.355469 68.417969 L 118.984375 68.417969 L 119.316406 66.25 L 119.023438 66.25 C 118.945312 66.621094 118.867188 67.167969 118.730469 67.363281 C 118.652344 67.460938 117.832031 67.460938 117.558594 67.460938 Z M 115.3125 67.460938 "/>
<path style=" stroke:none;fill-rule:nonzero;fill:rgb(0%,0%,0%);fill-opacity:1;" d="M 131.675781 69.527344 L 136.636719 69.527344 C 136.890625 69.527344 137.203125 69.527344 137.203125 69.195312 C 137.203125 68.863281 136.890625 68.863281 136.636719 68.863281 L 131.675781 68.863281 L 131.675781 63.921875 C 131.675781 63.667969 131.675781 63.335938 131.363281 63.335938 C 131.011719 63.335938 131.011719 63.648438 131.011719 63.921875 L 131.011719 68.863281 L 126.070312 68.863281 C 125.816406 68.863281 125.503906 68.863281 125.503906 69.195312 C 125.503906 69.527344 125.796875 69.527344 126.070312 69.527344 L 131.011719 69.527344 L 131.011719 74.46875 C 131.011719 74.722656 131.011719 75.054688 131.34375 75.054688 C 131.675781 75.054688 131.675781 74.742188 131.675781 74.46875 Z M 131.675781 69.527344 "/>
<path style=" stroke:none;fill-rule:nonzero;fill:rgb(0%,0%,0%);fill-opacity:1;" d="M 145.378906 67.222656 C 145.066406 67.242188 145.007812 67.261719 145.007812 67.4375 C 145.007812 67.613281 145.085938 67.613281 145.417969 67.613281 L 146.238281 67.613281 C 147.761719 67.613281 148.445312 68.863281 148.445312 70.582031 C 148.445312 72.925781 147.214844 73.550781 146.335938 73.550781 C 145.476562 73.550781 144.011719 73.140625 143.503906 71.96875 C 144.070312 72.046875 144.597656 71.734375 144.597656 71.089844 C 144.597656 70.5625 144.207031 70.210938 143.71875 70.210938 C 143.289062 70.210938 142.820312 70.464844 142.820312 71.148438 C 142.820312 72.730469 144.402344 74.039062 146.394531 74.039062 C 148.523438 74.039062 150.105469 72.417969 150.105469 70.601562 C 150.105469 68.960938 148.777344 67.652344 147.058594 67.359375 C 148.621094 66.910156 149.617188 65.601562 149.617188 64.195312 C 149.617188 62.789062 148.152344 61.753906 146.414062 61.753906 C 144.617188 61.753906 143.289062 62.847656 143.289062 64.15625 C 143.289062 64.859375 143.855469 65.015625 144.128906 65.015625 C 144.5 65.015625 144.929688 64.742188 144.929688 64.195312 C 144.929688 63.628906 144.5 63.375 144.109375 63.375 C 143.992188 63.375 143.953125 63.375 143.914062 63.394531 C 144.597656 62.183594 146.277344 62.183594 146.355469 62.183594 C 146.960938 62.183594 148.113281 62.4375 148.113281 64.195312 C 148.113281 64.546875 148.074219 65.542969 147.546875 66.324219 C 147 67.105469 146.394531 67.164062 145.90625 67.183594 Z M 145.378906 67.222656 "/>
<path style=" stroke:none;fill-rule:nonzero;fill:rgb(0%,0%,0%);fill-opacity:1;" d="M 159.425781 66.34375 C 158.859375 66.460938 158.644531 66.890625 158.644531 67.222656 C 158.644531 67.652344 158.976562 67.808594 159.230469 67.808594 C 159.777344 67.808594 160.148438 67.339844 160.148438 66.851562 C 160.148438 66.109375 159.289062 65.757812 158.527344 65.757812 C 157.433594 65.757812 156.828125 66.832031 156.671875 67.183594 C 156.261719 65.835938 155.148438 65.757812 154.816406 65.757812 C 153 65.757812 152.023438 68.101562 152.023438 68.511719 C 152.023438 68.570312 152.101562 68.667969 152.21875 68.667969 C 152.355469 68.667969 152.394531 68.550781 152.433594 68.492188 C 153.039062 66.5 154.25 66.128906 154.757812 66.128906 C 155.578125 66.128906 155.734375 66.871094 155.734375 67.300781 C 155.734375 67.691406 155.636719 68.101562 155.402344 68.960938 L 154.796875 71.421875 C 154.542969 72.496094 154.015625 73.492188 153.058594 73.492188 C 152.980469 73.492188 152.53125 73.492188 152.140625 73.257812 C 152.785156 73.121094 152.941406 72.59375 152.941406 72.378906 C 152.941406 72.027344 152.667969 71.8125 152.335938 71.8125 C 151.90625 71.8125 151.4375 72.183594 151.4375 72.75 C 151.4375 73.511719 152.277344 73.84375 153.039062 73.84375 C 153.898438 73.84375 154.523438 73.160156 154.894531 72.4375 C 155.1875 73.492188 156.066406 73.84375 156.730469 73.84375 C 158.566406 73.84375 159.542969 71.5 159.542969 71.109375 C 159.542969 71.011719 159.464844 70.933594 159.347656 70.933594 C 159.191406 70.933594 159.171875 71.03125 159.132812 71.167969 C 158.644531 72.75 157.589844 73.492188 156.789062 73.492188 C 156.164062 73.492188 155.832031 73.023438 155.832031 72.28125 C 155.832031 71.890625 155.890625 71.597656 156.183594 70.425781 L 156.808594 67.984375 C 157.082031 66.910156 157.6875 66.128906 158.507812 66.128906 C 158.546875 66.128906 159.054688 66.128906 159.425781 66.34375 Z M 159.425781 66.34375 "/>
<path style=" stroke:none;fill-rule:nonzero;fill:rgb(0%,0%,0%);fill-opacity:1;" d="M 176.695312 69.546875 C 177.007812 69.546875 177.320312 69.546875 177.320312 69.195312 C 177.320312 68.824219 177.007812 68.824219 176.695312 68.824219 L 166.988281 68.824219 C 166.695312 68.824219 166.363281 68.824219 166.363281 69.195312 C 166.363281 69.546875 166.695312 69.546875 166.988281 69.546875 Z M 176.695312 69.546875 "/>
<path style=" stroke:none;fill-rule:nonzero;fill:rgb(0%,0%,0%);fill-opacity:1;" d="M 187.886719 62.183594 C 187.886719 61.753906 187.886719 61.753906 187.535156 61.753906 C 187.105469 62.222656 186.207031 62.886719 184.371094 62.886719 L 184.371094 63.414062 C 184.78125 63.414062 185.679688 63.414062 186.65625 62.945312 L 186.65625 72.28125 C 186.65625 72.925781 186.597656 73.140625 185.035156 73.140625 L 184.46875 73.140625 L 184.46875 73.667969 C 184.957031 73.628906 186.695312 73.628906 187.28125 73.628906 C 187.867188 73.628906 189.605469 73.628906 190.074219 73.667969 L 190.074219 73.140625 L 189.527344 73.140625 C 187.945312 73.140625 187.886719 72.925781 187.886719 72.28125 Z M 187.886719 62.183594 "/>
<path style=" stroke:none;fill-rule:nonzero;fill:rgb(0%,0%,0%);fill-opacity:1;" d="M 196.929688 67.203125 C 197.808594 66.714844 199.117188 65.894531 199.117188 64.371094 C 199.117188 62.828125 197.613281 61.753906 195.972656 61.753906 C 194.195312 61.753906 192.789062 63.0625 192.789062 64.683594 C 192.789062 65.289062 192.984375 65.914062 193.472656 66.519531 C 193.667969 66.753906 193.6875 66.773438 194.957031 67.652344 C 193.21875 68.453125 192.320312 69.644531 192.320312 70.953125 C 192.320312 72.867188 194.117188 74.039062 195.953125 74.039062 C 197.945312 74.039062 199.605469 72.574219 199.605469 70.699219 C 199.605469 68.863281 198.316406 68.0625 196.929688 67.203125 Z M 194.488281 65.582031 C 194.253906 65.425781 193.53125 64.957031 193.53125 64.078125 C 193.53125 62.90625 194.742188 62.183594 195.953125 62.183594 C 197.242188 62.183594 198.394531 63.101562 198.394531 64.390625 C 198.394531 65.484375 197.59375 66.363281 196.558594 66.949219 Z M 195.328125 67.886719 L 197.496094 69.3125 C 197.964844 69.625 198.785156 70.171875 198.785156 71.265625 C 198.785156 72.632812 197.398438 73.550781 195.972656 73.550781 C 194.449219 73.550781 193.140625 72.457031 193.140625 70.953125 C 193.140625 69.566406 194.15625 68.433594 195.328125 67.886719 Z M 195.328125 67.886719 "/>
<path style=" stroke:none;fill-rule:nonzero;fill:rgb(0%,0%,0%);fill-opacity:1;" d="M 209.265625 54.792969 C 209.265625 54.265625 208.835938 53.835938 208.328125 53.835938 C 207.800781 53.835938 207.371094 54.265625 207.371094 54.792969 C 207.371094 55.300781 207.800781 55.730469 208.328125 55.730469 C 208.835938 55.730469 209.265625 55.300781 209.265625 54.792969 Z M 209.265625 54.792969 "/>
<path style=" stroke:none;fill-rule:nonzero;fill:rgb(0%,0%,0%);fill-opacity:1;" d="M 223.851562 47.273438 C 223.871094 47.195312 223.910156 47.097656 223.910156 47 C 223.910156 46.824219 223.714844 46.824219 223.675781 46.824219 C 223.675781 46.824219 222.796875 46.902344 222.699219 46.902344 C 222.386719 46.921875 222.132812 46.960938 221.800781 46.980469 C 221.351562 47.019531 221.234375 47.039062 221.234375 47.351562 C 221.234375 47.546875 221.371094 47.546875 221.625 47.546875 C 222.503906 47.546875 222.523438 47.703125 222.523438 47.878906 C 222.523438 47.996094 222.484375 48.132812 222.464844 48.191406 L 221.371094 52.546875 C 221.175781 52.078125 220.6875 51.355469 219.75 51.355469 C 217.738281 51.355469 215.550781 53.972656 215.550781 56.628906 C 215.550781 58.40625 216.585938 59.441406 217.796875 59.441406 C 218.792969 59.441406 219.632812 58.679688 220.140625 58.074219 C 220.316406 59.148438 221.15625 59.441406 221.703125 59.441406 C 222.230469 59.441406 222.660156 59.128906 222.992188 58.484375 C 223.265625 57.859375 223.519531 56.765625 223.519531 56.707031 C 223.519531 56.609375 223.460938 56.53125 223.34375 56.53125 C 223.1875 56.53125 223.167969 56.628906 223.089844 56.902344 C 222.816406 57.957031 222.484375 59.089844 221.742188 59.089844 C 221.234375 59.089844 221.195312 58.621094 221.195312 58.269531 C 221.195312 58.191406 221.195312 57.820312 221.3125 57.3125 Z M 220.21875 57.136719 C 220.140625 57.429688 220.140625 57.46875 219.886719 57.820312 C 219.496094 58.308594 218.695312 59.089844 217.855469 59.089844 C 217.132812 59.089844 216.703125 58.425781 216.703125 57.371094 C 216.703125 56.375 217.269531 54.363281 217.601562 53.621094 C 218.226562 52.371094 219.066406 51.726562 219.75 51.726562 C 220.941406 51.726562 221.175781 53.191406 221.175781 53.328125 C 221.175781 53.347656 221.117188 53.582031 221.097656 53.621094 Z M 220.21875 57.136719 "/>
<path style=" stroke:none;fill-rule:nonzero;fill:rgb(0%,0%,0%);fill-opacity:1;" d="M 232.476562 51.941406 C 231.910156 52.058594 231.695312 52.488281 231.695312 52.820312 C 231.695312 53.25 232.027344 53.40625 232.28125 53.40625 C 232.828125 53.40625 233.199219 52.9375 233.199219 52.449219 C 233.199219 51.707031 232.339844 51.355469 231.578125 51.355469 C 230.484375 51.355469 229.878906 52.429688 229.722656 52.78125 C 229.3125 51.433594 228.199219 51.355469 227.867188 51.355469 C 226.050781 51.355469 225.074219 53.699219 225.074219 54.109375 C 225.074219 54.167969 225.152344 54.265625 225.269531 54.265625 C 225.40625 54.265625 225.445312 54.148438 225.484375 54.089844 C 226.089844 52.097656 227.300781 51.726562 227.808594 51.726562 C 228.628906 51.726562 228.785156 52.46875 228.785156 52.898438 C 228.785156 53.289062 228.6875 53.699219 228.453125 54.558594 L 227.847656 57.019531 C 227.59375 58.09375 227.066406 59.089844 226.109375 59.089844 C 226.03125 59.089844 225.582031 59.089844 225.191406 58.855469 C 225.835938 58.71875 225.992188 58.191406 225.992188 57.976562 C 225.992188 57.625 225.71875 57.410156 225.386719 57.410156 C 224.957031 57.410156 224.488281 57.78125 224.488281 58.347656 C 224.488281 59.109375 225.328125 59.441406 226.089844 59.441406 C 226.949219 59.441406 227.574219 58.757812 227.945312 58.035156 C 228.238281 59.089844 229.117188 59.441406 229.78125 59.441406 C 231.617188 59.441406 232.59375 57.097656 232.59375 56.707031 C 232.59375 56.609375 232.515625 56.53125 232.398438 56.53125 C 232.242188 56.53125 232.222656 56.628906 232.183594 56.765625 C 231.695312 58.347656 230.640625 59.089844 229.839844 59.089844 C 229.214844 59.089844 228.882812 58.621094 228.882812 57.878906 C 228.882812 57.488281 228.941406 57.195312 229.234375 56.023438 L 229.859375 53.582031 C 230.132812 52.507812 230.738281 51.726562 231.558594 51.726562 C 231.597656 51.726562 232.105469 51.726562 232.476562 51.941406 Z M 232.476562 51.941406 "/>
</g>
</svg>
