<?xml version="1.0" encoding="UTF-8"?>
<svg width="869" height="473" xmlns="http://www.w3.org/2000/svg" xmlns:svg="http://www.w3.org/2000/svg" class="main-svg">
 <defs>
  <g class="clips" id="svg_137">
   <clipPath class="axesclip" id="clip6d90e9x">
    <rect x="80" y="0" width="632" height="473" id="svg_138"/>
   </clipPath>
   <clipPath class="axesclip" id="clip6d90e9y">
    <rect x="0" y="100" width="869" height="293" id="svg_139"/>
   </clipPath>
   <clipPath class="axesclip" id="clip6d90e9xy">
    <rect x="80" y="100" width="632" height="293" id="svg_140"/>
   </clipPath>
  </g>
 </defs>
 <g>
  <title>Layer 1</title>
  <rect x="32.587513" y="67.890625" width="689.768712" height="367.090626" fill="rgb(255, 255, 255)" id="svg_141"/>
  <g class="draglayer" id="svg_142">
   <g id="svg_143"/>
  </g>
  <g class="subplot xy" id="svg_144">
   <rect x="80" y="100" width="632" height="293" fill="rgb(255, 255, 255)" stroke-width="0px" id="svg_145"/>
   <g id="svg_146">
    <path class="xgrid crisp" d="m211.470001,100l0,293" stroke-width="1px" stroke="rgb(238, 238, 238)" id="svg_147"/>
    <path class="xgrid crisp" d="m303.72998,100l0,293" stroke-width="1px" stroke="rgb(238, 238, 238)" id="svg_148"/>
    <path class="xgrid crisp" d="m396,100l0,293" stroke-width="1px" stroke="rgb(238, 238, 238)" id="svg_149"/>
    <path class="xgrid crisp" d="m488.269989,100l0,293" stroke-width="1px" stroke="rgb(238, 238, 238)" id="svg_150"/>
    <path class="xgrid crisp" d="m580.530029,100l0,293" stroke-width="1px" stroke="rgb(238, 238, 238)" id="svg_151"/>
    <path class="xgrid crisp" d="m672.799988,100l0,293" stroke-width="1px" stroke="rgb(238, 238, 238)" id="svg_152"/>
    <path class="ygrid crisp" d="m80,374.600006l632,0" stroke-width="1px" stroke="rgb(238, 238, 238)" id="svg_153"/>
    <path class="ygrid crisp" d="m80,331.899994l632,0" stroke-width="1px" stroke="rgb(238, 238, 238)" id="svg_154"/>
    <path class="ygrid crisp" d="m80,246.5l632,0" stroke-width="1px" stroke="rgb(238, 238, 238)" id="svg_155"/>
    <path class="ygrid crisp" d="m80,203.800003l632,0" stroke-width="1px" stroke="rgb(238, 238, 238)" id="svg_156"/>
    <path class="ygrid crisp" d="m80,161.100006l632,0" stroke-width="1px" stroke="rgb(238, 238, 238)" id="svg_157"/>
    <path class="ygrid crisp" d="m80,118.400002l632,0" stroke-width="1px" stroke="rgb(238, 238, 238)" id="svg_158"/>
   </g>
   <g id="svg_159"/>
   <g id="svg_160">
    <path class="xzl zl crisp" d="m119.199997,100l0,293" stroke-width="1px" stroke="rgb(68, 68, 68)" id="svg_161"/>
    <path class="yzl zl crisp" d="m80,289.200012l632,0" stroke-width="1px" stroke="rgb(68, 68, 68)" id="svg_162"/>
   </g>
   <g id="svg_163"/>
   <g id="svg_34">
    <svg preserveAspectRatio="none" x="80" y="100" width="632" height="293" viewBox="0 0 632 293" id="svg_1">
     <g class="maplayer" id="svg_33"/>
     <g class="barlayer" id="svg_32"/>
     <g class="errorlayer" id="svg_28">
      <g class="errorbars" id="svg_31"/>
      <g class="errorbars" id="svg_30"/>
      <g class="errorbars" id="svg_29"/>
     </g>
     <g class="boxlayer" id="svg_27"/>
     <g class="scatterlayer" id="svg_2">
      <g class="trace scatter" stroke-miterlimit="2" id="svg_19">
       <path class="js-line" d="m39.200001,103.800003l553.599987,85.399994" stroke-width="2px" stroke="rgb(31, 119, 180)" fill="none" id="svg_26"/>
       <g class="points" id="svg_20">
        <path class="point" d="m42.200001,103.800003a3,3 0 1 1 -3,-3a3,3 0 0 1 3,3z" fill="rgb(31, 119, 180)" stroke-width="0px" id="svg_25"/>
        <path class="point" d="m226.729996,132.270004a3,3 0 1 1 -3,-3a3,3 0 0 1 3,3z" fill="rgb(31, 119, 180)" stroke-width="0px" id="svg_24"/>
        <path class="point" d="m319,146.5a3,3 0 1 1 -3,-3a3,3 0 0 1 3,3z" fill="rgb(31, 119, 180)" stroke-width="0px" id="svg_23"/>
        <path class="point" d="m411.269989,160.729996a3,3 0 1 1 -3,-3a3,3 0 0 1 3,3z" fill="rgb(31, 119, 180)" stroke-width="0px" id="svg_22"/>
        <path class="point" d="m595.799988,189.199997a3,3 0 1 1 -3,-3a3,3 0 0 1 3,3z" fill="rgb(31, 119, 180)" stroke-width="0px" id="svg_21"/>
       </g>
      </g>
      <g class="trace scatter" stroke-miterlimit="2" id="svg_11">
       <path class="js-line" d="m39.200001,18.4l553.599987,256.200006" stroke-width="2px" stroke="rgb(255, 127, 14)" fill="none" id="svg_18"/>
       <g class="points" id="svg_12">
        <path class="point" d="m42.200001,18.4a3,3 0 1 1 -3,-3a3,3 0 0 1 3,3z" fill="rgb(255, 127, 14)" stroke-width="0px" id="svg_17"/>
        <path class="point" d="m226.729996,103.800003a3,3 0 1 1 -3,-3a3,3 0 0 1 3,3z" fill="rgb(255, 127, 14)" stroke-width="0px" id="svg_16"/>
        <path class="point" d="m319,146.5a3,3 0 1 1 -3,-3a3,3 0 0 1 3,3z" fill="rgb(255, 127, 14)" stroke-width="0px" id="svg_15"/>
        <path class="point" d="m411.269989,189.199997a3,3 0 1 1 -3,-3a3,3 0 0 1 3,3z" fill="rgb(255, 127, 14)" stroke-width="0px" id="svg_14"/>
        <path class="point" d="m595.799988,274.600006a3,3 0 1 1 -3,-3a3,3 0 0 1 3,3z" fill="rgb(255, 127, 14)" stroke-width="0px" id="svg_13"/>
       </g>
      </g>
      <g class="trace scatter" stroke-miterlimit="2" id="svg_3">
       <path class="js-fill" d="m39.200001,103.800003l276.799999,42.699997l92.269989,42.699997l0,0l-369.069988,0l0,-85.399994z" fill-opacity="0.5" fill="rgb(0, 0, 0)" stroke-width="0px" id="svg_10"/>
       <path class="js-line" d="m39.200001,103.800003l276.799999,42.699997l92.269989,42.699997" stroke-width="2px" stroke-opacity="0" stroke="rgb(0, 0, 0)" fill="none" id="svg_9"/>
       <g class="points" id="svg_4">
        <path class="point" d="m42.200001,103.800003a3,3 0 1 1 -3,-3a3,3 0 0 1 3,3z" fill-opacity="0" fill="rgb(0, 0, 0)" stroke-width="0px" id="svg_8"/>
        <path class="point" d="m226.729996,132.270004a3,3 0 1 1 -3,-3a3,3 0 0 1 3,3z" fill-opacity="0" fill="rgb(0, 0, 0)" stroke-width="0px" id="svg_7"/>
        <path class="point" d="m319,146.5a3,3 0 1 1 -3,-3a3,3 0 0 1 3,3z" fill-opacity="0" fill="rgb(0, 0, 0)" stroke-width="0px" id="svg_6"/>
        <path class="point" d="m411.269989,189.199997a3,3 0 1 1 -3,-3a3,3 0 0 1 3,3z" fill-opacity="0" fill="rgb(0, 0, 0)" stroke-width="0px" id="svg_5"/>
       </g>
      </g>
     </g>
    </svg>
   </g>
   <g id="svg_197"/>
   <path class="crisp" d="m79,393.5l634,0" stroke-opacity="0" stroke="rgb(0, 0, 0)" stroke-width="1px" fill="none" id="svg_198"/>
   <path class="crisp" d="m79.5,99l0,294" stroke-width="1px" stroke-opacity="0" stroke="rgb(0, 0, 0)" fill="none" id="svg_199"/>
   <g id="svg_200"/>
   <g id="svg_201">
    <g class="xtick" id="svg_202">
     <text text-anchor="middle" x="119.200001" y="407" fill="rgb(68, 68, 68)" font-size="12px" font-family="'Open sans', verdana, arial, sans-serif" id="svg_203">0</text>
    </g>
    <g class="xtick" id="svg_204">
     <text text-anchor="middle" x="211.470001" y="407" fill="rgb(68, 68, 68)" font-size="12px" font-family="'Open sans', verdana, arial, sans-serif" id="svg_205">0.5</text>
    </g>
    <g class="xtick" id="svg_206">
     <text text-anchor="middle" x="303.729996" y="407" fill="rgb(68, 68, 68)" font-size="12px" font-family="'Open sans', verdana, arial, sans-serif" id="svg_207">1</text>
    </g>
    <g class="xtick" id="svg_208">
     <text text-anchor="middle" x="396" y="407" fill="rgb(68, 68, 68)" font-size="12px" font-family="'Open sans', verdana, arial, sans-serif" id="svg_209">1.5</text>
    </g>
    <g class="xtick" id="svg_210">
     <text text-anchor="middle" x="488.269989" y="407" fill="rgb(68, 68, 68)" font-size="12px" font-family="'Open sans', verdana, arial, sans-serif" id="svg_211">2</text>
    </g>
    <g class="xtick" id="svg_212">
     <text text-anchor="middle" x="580.529999" y="407" fill="rgb(68, 68, 68)" font-size="12px" font-family="'Open sans', verdana, arial, sans-serif" id="svg_213">2.5</text>
    </g>
    <g class="xtick" id="svg_214">
     <text text-anchor="middle" x="672.799988" y="407" fill="rgb(68, 68, 68)" font-size="12px" font-family="'Open sans', verdana, arial, sans-serif" id="svg_215">3</text>
    </g>
   </g>
   <g id="svg_216">
    <g class="ytick" id="svg_217">
     <text text-anchor="end" x="78" y="380.600006" fill="rgb(68, 68, 68)" font-size="12px" font-family="'Open sans', verdana, arial, sans-serif" id="svg_218">−1</text>
    </g>
    <g class="ytick" id="svg_219">
     <text text-anchor="end" x="78" y="337.899994" fill="rgb(68, 68, 68)" font-size="12px" font-family="'Open sans', verdana, arial, sans-serif" id="svg_220">−0.5</text>
    </g>
    <g class="ytick" id="svg_221">
     <text text-anchor="end" x="78" y="295.199997" fill="rgb(68, 68, 68)" font-size="12px" font-family="'Open sans', verdana, arial, sans-serif" id="svg_222">0</text>
    </g>
    <g class="ytick" id="svg_223">
     <text text-anchor="end" x="78" y="252.5" fill="rgb(68, 68, 68)" font-size="12px" font-family="'Open sans', verdana, arial, sans-serif" id="svg_224">0.5</text>
    </g>
    <g class="ytick" id="svg_225">
     <text text-anchor="end" x="78" y="209.800003" fill="rgb(68, 68, 68)" font-size="12px" font-family="'Open sans', verdana, arial, sans-serif" id="svg_226">1</text>
    </g>
    <g class="ytick" id="svg_227">
     <text text-anchor="end" x="78" y="167.099998" fill="rgb(68, 68, 68)" font-size="12px" font-family="'Open sans', verdana, arial, sans-serif" id="svg_228">1.5</text>
    </g>
    <g class="ytick" id="svg_229">
     <text text-anchor="end" x="78" y="124.4" fill="rgb(68, 68, 68)" font-size="12px" font-family="'Open sans', verdana, arial, sans-serif" id="svg_230">2</text>
    </g>
   </g>
   <g id="svg_231"/>
  </g>
  <g class="shapelayer" id="svg_232"/>
  <g class="glimages" id="svg_233"/>
  <text class="js-plot-link-container" y="464" text-anchor="end" x="862" fill="rgb(68, 68, 68)" font-size="12px" font-family="'Open Sans', Arial, sans-serif" id="svg_234"/>
 </g>
</svg>