<?xml version="1.0" encoding="UTF-8"?>
<svg xmlns="http://www.w3.org/2000/svg" xmlns:xlink="http://www.w3.org/1999/xlink" width="310.7226pt" height="113.43894pt" viewBox="0 0 310.7226 113.43894" version="1.1">
<g id="surface1">
<path style=" stroke:none;fill-rule:nonzero;fill:rgb(0%,0%,0%);fill-opacity:1;" d="M 2.832031 0.351562 L 1.289062 0.351562 L 1.289062 12.792969 L 2.832031 12.792969 Z M 2.832031 0.351562 "/>
<path style=" stroke:none;fill-rule:nonzero;fill:rgb(0%,0%,0%);fill-opacity:1;" d="M 12.066406 7.402344 C 12.066406 6.308594 11.832031 4.648438 9.664062 4.648438 C 8.667969 4.648438 7.808594 5.097656 7.125 5.957031 L 7.125 4.746094 L 5.855469 4.746094 L 5.855469 12.792969 L 7.203125 12.792969 L 7.203125 8.320312 C 7.203125 7.226562 7.632812 5.722656 8.980469 5.722656 C 10.660156 5.722656 10.699219 6.894531 10.699219 7.519531 L 10.699219 12.792969 L 12.066406 12.792969 Z M 12.066406 7.402344 "/>
<path style=" stroke:none;fill-rule:nonzero;fill:rgb(0%,0%,0%);fill-opacity:1;" d="M 24.707031 10.859375 C 23.886719 11.523438 22.96875 11.855469 21.972656 11.855469 C 20.46875 11.855469 19.511719 10.527344 19.511719 8.789062 C 19.511719 7.304688 20.234375 5.683594 22.011719 5.683594 C 23.222656 5.683594 23.730469 5.957031 24.492188 6.484375 L 24.707031 5.3125 C 23.671875 4.707031 23.085938 4.570312 22.011719 4.570312 C 19.550781 4.570312 18.144531 6.757812 18.144531 8.789062 C 18.144531 11.09375 19.804688 12.96875 21.953125 12.96875 C 22.832031 12.96875 23.828125 12.753906 24.824219 12.03125 C 24.824219 11.992188 24.765625 11.425781 24.746094 11.367188 Z M 24.707031 10.859375 "/>
<path style=" stroke:none;fill-rule:nonzero;fill:rgb(0%,0%,0%);fill-opacity:1;" d="M 32.328125 7.539062 C 32.328125 5.820312 31.097656 4.570312 29.417969 4.570312 C 28.34375 4.570312 27.542969 4.804688 26.664062 5.3125 L 26.761719 6.503906 C 27.5625 5.917969 28.382812 5.605469 29.417969 5.605469 C 30.238281 5.605469 30.960938 6.269531 30.960938 7.578125 L 30.960938 8.320312 C 30.160156 8.339844 29.085938 8.398438 28.011719 8.75 C 26.800781 9.179688 26.097656 9.84375 26.097656 10.722656 C 26.097656 11.523438 26.566406 12.96875 28.089844 12.96875 C 29.085938 12.96875 30.335938 12.675781 31 12.128906 L 31 12.792969 L 32.328125 12.792969 Z M 30.960938 10.390625 C 30.960938 10.742188 30.960938 11.171875 30.375 11.542969 C 29.886719 11.835938 29.28125 11.894531 29.007812 11.894531 C 28.050781 11.894531 27.386719 11.367188 27.386719 10.722656 C 27.386719 9.492188 29.867188 9.21875 30.960938 9.21875 Z M 30.960938 10.390625 "/>
<path style=" stroke:none;fill-rule:nonzero;fill:rgb(0%,0%,0%);fill-opacity:1;" d="M 39.734375 5.117188 C 38.601562 4.589844 37.625 4.570312 37.214844 4.570312 C 36.804688 4.570312 34.304688 4.570312 34.304688 6.894531 C 34.304688 7.675781 34.734375 8.222656 35.007812 8.476562 C 35.652344 9.023438 36.101562 9.121094 37.15625 9.335938 C 37.761719 9.453125 38.796875 9.667969 38.796875 10.625 C 38.796875 11.855469 37.390625 11.855469 37.136719 11.855469 C 36.433594 11.855469 35.378906 11.660156 34.421875 10.957031 L 34.207031 12.1875 C 34.285156 12.246094 35.515625 12.96875 37.15625 12.96875 C 39.480469 12.96875 40.027344 11.582031 40.027344 10.507812 C 40.027344 9.609375 39.480469 9.023438 39.402344 8.945312 C 38.738281 8.261719 38.191406 8.144531 37.117188 7.929688 C 36.453125 7.8125 35.554688 7.636719 35.554688 6.738281 C 35.554688 5.625 36.804688 5.625 37.039062 5.625 C 37.976562 5.625 38.738281 5.839844 39.519531 6.289062 Z M 39.734375 5.117188 "/>
<path style=" stroke:none;fill-rule:nonzero;fill:rgb(0%,0%,0%);fill-opacity:1;" d="M 47.773438 8.75 C 47.773438 7.988281 47.695312 6.894531 47.128906 5.9375 C 46.386719 4.707031 45.136719 4.570312 44.609375 4.570312 C 42.675781 4.570312 41.054688 6.425781 41.054688 8.75 C 41.054688 11.132812 42.773438 12.96875 44.863281 12.96875 C 45.683594 12.96875 46.679688 12.734375 47.65625 12.03125 C 47.65625 11.953125 47.597656 11.386719 47.597656 11.367188 C 47.578125 11.347656 47.558594 10.9375 47.558594 10.878906 C 46.484375 11.777344 45.429688 11.894531 44.902344 11.894531 C 43.515625 11.894531 42.324219 10.664062 42.304688 8.75 Z M 42.402344 7.792969 C 42.714844 6.582031 43.554688 5.644531 44.609375 5.644531 C 45.175781 5.644531 46.40625 5.898438 46.699219 7.792969 Z M 42.402344 7.792969 "/>
<path style=" stroke:none;fill-rule:nonzero;fill:rgb(0%,0%,0%);fill-opacity:1;" d="M 60.539062 8.847656 C 60.539062 6.425781 58.761719 4.570312 56.710938 4.570312 C 54.601562 4.570312 52.863281 6.464844 52.863281 8.847656 C 52.863281 11.191406 54.640625 12.96875 56.691406 12.96875 C 58.800781 12.96875 60.539062 11.152344 60.539062 8.847656 Z M 56.710938 11.855469 C 55.421875 11.855469 54.210938 10.78125 54.210938 8.671875 C 54.210938 6.503906 55.558594 5.644531 56.691406 5.644531 C 57.921875 5.644531 59.191406 6.5625 59.191406 8.671875 C 59.191406 10.878906 57.902344 11.855469 56.710938 11.855469 Z M 56.710938 11.855469 "/>
<path style=" stroke:none;fill-rule:nonzero;fill:rgb(0%,0%,0%);fill-opacity:1;" d="M 64.273438 5.878906 L 66.1875 5.878906 L 66.1875 4.824219 L 64.234375 4.824219 L 64.234375 2.675781 C 64.234375 1.464844 65.25 1.25 65.855469 1.25 C 66.480469 1.25 67.027344 1.445312 67.242188 1.523438 L 67.242188 0.351562 C 67.125 0.3125 66.519531 0.175781 65.875 0.175781 C 64.15625 0.175781 62.945312 1.484375 62.945312 3.222656 L 62.945312 4.824219 L 61.636719 4.824219 L 61.636719 5.878906 L 62.945312 5.878906 L 62.945312 12.792969 L 64.273438 12.792969 Z M 64.273438 5.878906 "/>
<path style=" stroke:none;fill-rule:nonzero;fill:rgb(0%,0%,0%);fill-opacity:1;" d="M 77.480469 7.539062 C 77.480469 5.820312 76.25 4.570312 74.570312 4.570312 C 73.496094 4.570312 72.695312 4.804688 71.816406 5.3125 L 71.914062 6.503906 C 72.714844 5.917969 73.535156 5.605469 74.570312 5.605469 C 75.390625 5.605469 76.113281 6.269531 76.113281 7.578125 L 76.113281 8.320312 C 75.3125 8.339844 74.238281 8.398438 73.164062 8.75 C 71.953125 9.179688 71.25 9.84375 71.25 10.722656 C 71.25 11.523438 71.71875 12.96875 73.242188 12.96875 C 74.238281 12.96875 75.488281 12.675781 76.152344 12.128906 L 76.152344 12.792969 L 77.480469 12.792969 Z M 76.113281 10.390625 C 76.113281 10.742188 76.113281 11.171875 75.527344 11.542969 C 75.039062 11.835938 74.433594 11.894531 74.160156 11.894531 C 73.203125 11.894531 72.539062 11.367188 72.539062 10.722656 C 72.539062 9.492188 75.019531 9.21875 76.113281 9.21875 Z M 76.113281 10.390625 "/>
<path style=" stroke:none;fill-rule:nonzero;fill:rgb(0%,0%,0%);fill-opacity:1;" d="M 90.105469 10.859375 C 89.285156 11.523438 88.367188 11.855469 87.371094 11.855469 C 85.867188 11.855469 84.910156 10.527344 84.910156 8.789062 C 84.910156 7.304688 85.632812 5.683594 87.410156 5.683594 C 88.621094 5.683594 89.128906 5.957031 89.890625 6.484375 L 90.105469 5.3125 C 89.070312 4.707031 88.484375 4.570312 87.410156 4.570312 C 84.949219 4.570312 83.542969 6.757812 83.542969 8.789062 C 83.542969 11.09375 85.203125 12.96875 87.351562 12.96875 C 88.230469 12.96875 89.226562 12.753906 90.222656 12.03125 C 90.222656 11.992188 90.164062 11.425781 90.144531 11.367188 Z M 90.105469 10.859375 "/>
<path style=" stroke:none;fill-rule:nonzero;fill:rgb(0%,0%,0%);fill-opacity:1;" d="M 98.941406 8.847656 C 98.941406 6.425781 97.164062 4.570312 95.113281 4.570312 C 93.003906 4.570312 91.265625 6.464844 91.265625 8.847656 C 91.265625 11.191406 93.042969 12.96875 95.09375 12.96875 C 97.203125 12.96875 98.941406 11.152344 98.941406 8.847656 Z M 95.113281 11.855469 C 93.824219 11.855469 92.613281 10.78125 92.613281 8.671875 C 92.613281 6.503906 93.960938 5.644531 95.09375 5.644531 C 96.324219 5.644531 97.59375 6.5625 97.59375 8.671875 C 97.59375 10.878906 96.304688 11.855469 95.113281 11.855469 Z M 95.113281 11.855469 "/>
<path style=" stroke:none;fill-rule:nonzero;fill:rgb(0%,0%,0%);fill-opacity:1;" d="M 107.164062 7.402344 C 107.164062 6.308594 106.929688 4.648438 104.761719 4.648438 C 103.765625 4.648438 102.90625 5.097656 102.222656 5.957031 L 102.222656 4.746094 L 100.953125 4.746094 L 100.953125 12.792969 L 102.300781 12.792969 L 102.300781 8.320312 C 102.300781 7.226562 102.730469 5.722656 104.078125 5.722656 C 105.757812 5.722656 105.796875 6.894531 105.796875 7.519531 L 105.796875 12.792969 L 107.164062 12.792969 Z M 107.164062 7.402344 "/>
<path style=" stroke:none;fill-rule:nonzero;fill:rgb(0%,0%,0%);fill-opacity:1;" d="M 111.632812 5.878906 L 114.113281 5.878906 L 114.113281 4.824219 L 111.632812 4.824219 L 111.632812 2.558594 L 110.402344 2.558594 L 110.402344 4.824219 L 108.898438 4.824219 L 108.898438 5.878906 L 110.363281 5.878906 L 110.363281 10.703125 C 110.363281 11.738281 110.597656 12.96875 111.828125 12.96875 C 113.039062 12.96875 113.859375 12.558594 114.40625 12.265625 L 114.132812 11.230469 C 113.507812 11.796875 112.84375 11.855469 112.53125 11.855469 C 111.730469 11.855469 111.632812 11.015625 111.632812 10.390625 Z M 111.632812 5.878906 "/>
<path style=" stroke:none;fill-rule:nonzero;fill:rgb(0%,0%,0%);fill-opacity:1;" d="M 117.601562 8.867188 C 117.601562 7.050781 118.949219 5.878906 120.570312 5.859375 L 120.570312 4.648438 C 118.929688 4.667969 117.992188 5.625 117.503906 6.328125 L 117.503906 4.746094 L 116.273438 4.746094 L 116.273438 12.792969 L 117.601562 12.792969 Z M 117.601562 8.867188 "/>
<path style=" stroke:none;fill-rule:nonzero;fill:rgb(0%,0%,0%);fill-opacity:1;" d="M 127.878906 7.539062 C 127.878906 5.820312 126.648438 4.570312 124.96875 4.570312 C 123.894531 4.570312 123.09375 4.804688 122.214844 5.3125 L 122.3125 6.503906 C 123.113281 5.917969 123.933594 5.605469 124.96875 5.605469 C 125.789062 5.605469 126.511719 6.269531 126.511719 7.578125 L 126.511719 8.320312 C 125.710938 8.339844 124.636719 8.398438 123.5625 8.75 C 122.351562 9.179688 121.648438 9.84375 121.648438 10.722656 C 121.648438 11.523438 122.117188 12.96875 123.640625 12.96875 C 124.636719 12.96875 125.886719 12.675781 126.550781 12.128906 L 126.550781 12.792969 L 127.878906 12.792969 Z M 126.511719 10.390625 C 126.511719 10.742188 126.511719 11.171875 125.925781 11.542969 C 125.4375 11.835938 124.832031 11.894531 124.558594 11.894531 C 123.601562 11.894531 122.9375 11.367188 122.9375 10.722656 C 122.9375 9.492188 125.417969 9.21875 126.511719 9.21875 Z M 126.511719 10.390625 "/>
<path style=" stroke:none;fill-rule:nonzero;fill:rgb(0%,0%,0%);fill-opacity:1;" d="M 136.847656 0.351562 L 135.519531 0.351562 L 135.519531 5.585938 C 134.699219 4.902344 133.761719 4.648438 133 4.648438 C 131.300781 4.648438 129.894531 6.484375 129.894531 8.808594 C 129.894531 11.132812 131.222656 12.96875 132.921875 12.96875 C 133.585938 12.96875 134.601562 12.753906 135.5 11.875 L 135.5 12.792969 L 136.847656 12.792969 Z M 135.5 10.683594 C 135.070312 11.445312 134.425781 11.894531 133.644531 11.894531 C 132.550781 11.894531 131.261719 11.054688 131.261719 8.828125 C 131.261719 6.445312 132.785156 5.722656 133.820312 5.722656 C 134.523438 5.722656 135.089844 6.09375 135.5 6.679688 Z M 135.5 10.683594 "/>
<path style=" stroke:none;fill-rule:nonzero;fill:rgb(0%,0%,0%);fill-opacity:1;" d="M 141.101562 0.625 L 139.558594 0.625 L 139.558594 2.167969 L 141.101562 2.167969 Z M 141.003906 4.824219 L 139.675781 4.824219 L 139.675781 12.792969 L 141.003906 12.792969 Z M 141.003906 4.824219 "/>
<path style=" stroke:none;fill-rule:nonzero;fill:rgb(0%,0%,0%);fill-opacity:1;" d="M 149.65625 10.859375 C 148.835938 11.523438 147.917969 11.855469 146.921875 11.855469 C 145.417969 11.855469 144.460938 10.527344 144.460938 8.789062 C 144.460938 7.304688 145.183594 5.683594 146.960938 5.683594 C 148.171875 5.683594 148.679688 5.957031 149.441406 6.484375 L 149.65625 5.3125 C 148.621094 4.707031 148.035156 4.570312 146.960938 4.570312 C 144.5 4.570312 143.09375 6.757812 143.09375 8.789062 C 143.09375 11.09375 144.753906 12.96875 146.902344 12.96875 C 147.78125 12.96875 148.777344 12.753906 149.773438 12.03125 C 149.773438 11.992188 149.714844 11.425781 149.695312 11.367188 Z M 149.65625 10.859375 "/>
<path style=" stroke:none;fill-rule:nonzero;fill:rgb(0%,0%,0%);fill-opacity:1;" d="M 153.332031 5.878906 L 155.8125 5.878906 L 155.8125 4.824219 L 153.332031 4.824219 L 153.332031 2.558594 L 152.101562 2.558594 L 152.101562 4.824219 L 150.597656 4.824219 L 150.597656 5.878906 L 152.0625 5.878906 L 152.0625 10.703125 C 152.0625 11.738281 152.296875 12.96875 153.527344 12.96875 C 154.738281 12.96875 155.558594 12.558594 156.105469 12.265625 L 155.832031 11.230469 C 155.207031 11.796875 154.542969 11.855469 154.230469 11.855469 C 153.429688 11.855469 153.332031 11.015625 153.332031 10.390625 Z M 153.332031 5.878906 "/>
<path style=" stroke:none;fill-rule:nonzero;fill:rgb(0%,0%,0%);fill-opacity:1;" d="M 159.398438 0.625 L 157.855469 0.625 L 157.855469 2.167969 L 159.398438 2.167969 Z M 159.300781 4.824219 L 157.972656 4.824219 L 157.972656 12.792969 L 159.300781 12.792969 Z M 159.300781 4.824219 "/>
<path style=" stroke:none;fill-rule:nonzero;fill:rgb(0%,0%,0%);fill-opacity:1;" d="M 168.988281 8.847656 C 168.988281 6.425781 167.210938 4.570312 165.160156 4.570312 C 163.050781 4.570312 161.3125 6.464844 161.3125 8.847656 C 161.3125 11.191406 163.089844 12.96875 165.140625 12.96875 C 167.25 12.96875 168.988281 11.152344 168.988281 8.847656 Z M 165.160156 11.855469 C 163.871094 11.855469 162.660156 10.78125 162.660156 8.671875 C 162.660156 6.503906 164.007812 5.644531 165.140625 5.644531 C 166.371094 5.644531 167.640625 6.5625 167.640625 8.671875 C 167.640625 10.878906 166.351562 11.855469 165.160156 11.855469 Z M 165.160156 11.855469 "/>
<path style=" stroke:none;fill-rule:nonzero;fill:rgb(0%,0%,0%);fill-opacity:1;" d="M 177.214844 7.402344 C 177.214844 6.308594 176.980469 4.648438 174.8125 4.648438 C 173.816406 4.648438 172.957031 5.097656 172.273438 5.957031 L 172.273438 4.746094 L 171.003906 4.746094 L 171.003906 12.792969 L 172.351562 12.792969 L 172.351562 8.320312 C 172.351562 7.226562 172.78125 5.722656 174.128906 5.722656 C 175.808594 5.722656 175.847656 6.894531 175.847656 7.519531 L 175.847656 12.792969 L 177.214844 12.792969 Z M 177.214844 7.402344 "/>
<path style=" stroke:none;fill-rule:nonzero;fill:rgb(0%,0%,0%);fill-opacity:1;" d="M 181.78125 12.773438 L 181.78125 11.347656 L 180.316406 11.347656 L 180.316406 12.792969 L 180.765625 12.792969 L 180.316406 15.039062 L 181.039062 15.039062 Z M 181.78125 12.773438 "/>
<path style=" stroke:none;fill-rule:nonzero;fill:rgb(0%,0%,0%);fill-opacity:1;" d="M 190.664062 10.800781 C 190.039062 11.855469 189.433594 12.226562 188.574219 12.265625 C 188.378906 12.285156 188.222656 12.285156 188.222656 12.617188 C 188.222656 12.714844 188.320312 12.792969 188.4375 12.792969 C 188.769531 12.792969 189.570312 12.753906 189.902344 12.753906 C 190.410156 12.753906 190.996094 12.792969 191.484375 12.792969 C 191.601562 12.792969 191.816406 12.792969 191.816406 12.460938 C 191.816406 12.285156 191.660156 12.265625 191.5625 12.265625 C 191.152344 12.246094 190.800781 12.089844 190.800781 11.660156 C 190.800781 11.40625 190.917969 11.210938 191.152344 10.820312 L 192.519531 8.554688 L 197.089844 8.554688 C 197.109375 8.730469 197.109375 8.867188 197.128906 9.023438 C 197.167969 9.492188 197.382812 11.367188 197.382812 11.699219 C 197.382812 12.246094 196.464844 12.265625 196.191406 12.265625 C 195.996094 12.265625 195.800781 12.265625 195.800781 12.597656 C 195.800781 12.792969 195.957031 12.792969 196.054688 12.792969 C 196.367188 12.792969 196.71875 12.753906 197.03125 12.753906 L 198.046875 12.753906 C 199.140625 12.753906 199.941406 12.792969 199.960938 12.792969 C 200.078125 12.792969 200.273438 12.792969 200.273438 12.460938 C 200.273438 12.265625 200.117188 12.265625 199.84375 12.265625 C 198.867188 12.265625 198.847656 12.109375 198.789062 11.582031 L 197.695312 0.390625 C 197.65625 0.0195312 197.578125 0 197.382812 0 C 197.207031 0 197.109375 0.0195312 196.933594 0.292969 Z M 192.8125 8.046875 L 196.425781 2.011719 L 197.03125 8.046875 Z M 192.8125 8.046875 "/>
<path style=" stroke:none;fill-rule:nonzero;fill:rgb(0%,0%,0%);fill-opacity:1;" d="M 207.699219 0.625 L 206.15625 0.625 L 206.15625 2.167969 L 207.699219 2.167969 Z M 207.601562 4.824219 L 206.273438 4.824219 L 206.273438 12.792969 L 207.601562 12.792969 Z M 207.601562 4.824219 "/>
<path style=" stroke:none;fill-rule:nonzero;fill:rgb(0%,0%,0%);fill-opacity:1;" d="M 215.082031 5.117188 C 213.949219 4.589844 212.972656 4.570312 212.5625 4.570312 C 212.152344 4.570312 209.652344 4.570312 209.652344 6.894531 C 209.652344 7.675781 210.082031 8.222656 210.355469 8.476562 C 211 9.023438 211.449219 9.121094 212.503906 9.335938 C 213.109375 9.453125 214.144531 9.667969 214.144531 10.625 C 214.144531 11.855469 212.738281 11.855469 212.484375 11.855469 C 211.78125 11.855469 210.726562 11.660156 209.769531 10.957031 L 209.554688 12.1875 C 209.632812 12.246094 210.863281 12.96875 212.503906 12.96875 C 214.828125 12.96875 215.375 11.582031 215.375 10.507812 C 215.375 9.609375 214.828125 9.023438 214.75 8.945312 C 214.085938 8.261719 213.539062 8.144531 212.464844 7.929688 C 211.800781 7.8125 210.902344 7.636719 210.902344 6.738281 C 210.902344 5.625 212.152344 5.625 212.386719 5.625 C 213.324219 5.625 214.085938 5.839844 214.867188 6.289062 Z M 215.082031 5.117188 "/>
<path style=" stroke:none;fill-rule:nonzero;fill:rgb(0%,0%,0%);fill-opacity:1;" d="M 232.21875 7.402344 C 232.21875 6.152344 231.886719 4.648438 229.796875 4.648438 C 228.273438 4.648438 227.433594 5.703125 227.160156 6.113281 C 226.828125 4.980469 225.851562 4.648438 224.914062 4.648438 C 223.449219 4.648438 222.667969 5.605469 222.375 5.976562 L 222.375 4.746094 L 221.105469 4.746094 L 221.105469 12.792969 L 222.453125 12.792969 L 222.453125 8.320312 C 222.453125 7.148438 222.921875 5.722656 224.230469 5.722656 C 225.890625 5.722656 225.96875 6.855469 225.96875 7.519531 L 225.96875 12.792969 L 227.335938 12.792969 L 227.335938 8.320312 C 227.335938 7.148438 227.804688 5.722656 229.113281 5.722656 C 230.753906 5.722656 230.851562 6.855469 230.851562 7.519531 L 230.851562 12.792969 L 232.21875 12.792969 Z M 232.21875 7.402344 "/>
<path style=" stroke:none;fill-rule:nonzero;fill:rgb(0%,0%,0%);fill-opacity:1;" d="M 241.890625 8.847656 C 241.890625 6.425781 240.113281 4.570312 238.0625 4.570312 C 235.953125 4.570312 234.214844 6.464844 234.214844 8.847656 C 234.214844 11.191406 235.992188 12.96875 238.042969 12.96875 C 240.152344 12.96875 241.890625 11.152344 241.890625 8.847656 Z M 238.0625 11.855469 C 236.773438 11.855469 235.5625 10.78125 235.5625 8.671875 C 235.5625 6.503906 236.910156 5.644531 238.042969 5.644531 C 239.273438 5.644531 240.542969 6.5625 240.542969 8.671875 C 240.542969 10.878906 239.253906 11.855469 238.0625 11.855469 Z M 238.0625 11.855469 "/>
<path style=" stroke:none;fill-rule:nonzero;fill:rgb(0%,0%,0%);fill-opacity:1;" d="M 244.800781 8.867188 C 244.800781 7.050781 246.148438 5.878906 247.769531 5.859375 L 247.769531 4.648438 C 246.128906 4.667969 245.191406 5.625 244.703125 6.328125 L 244.703125 4.746094 L 243.472656 4.746094 L 243.472656 12.792969 L 244.800781 12.792969 Z M 244.800781 8.867188 "/>
<path style=" stroke:none;fill-rule:nonzero;fill:rgb(0%,0%,0%);fill-opacity:1;" d="M 255.371094 8.75 C 255.371094 7.988281 255.292969 6.894531 254.726562 5.9375 C 253.984375 4.707031 252.734375 4.570312 252.207031 4.570312 C 250.273438 4.570312 248.652344 6.425781 248.652344 8.75 C 248.652344 11.132812 250.371094 12.96875 252.460938 12.96875 C 253.28125 12.96875 254.277344 12.734375 255.253906 12.03125 C 255.253906 11.953125 255.195312 11.386719 255.195312 11.367188 C 255.175781 11.347656 255.15625 10.9375 255.15625 10.878906 C 254.082031 11.777344 253.027344 11.894531 252.5 11.894531 C 251.113281 11.894531 249.921875 10.664062 249.902344 8.75 Z M 250 7.792969 C 250.3125 6.582031 251.152344 5.644531 252.207031 5.644531 C 252.773438 5.644531 254.003906 5.898438 254.296875 7.792969 Z M 250 7.792969 "/>
<path style=" stroke:none;fill-rule:nonzero;fill:rgb(0%,0%,0%);fill-opacity:1;" d="M 262.351562 8.867188 C 262.351562 7.050781 263.699219 5.878906 265.320312 5.859375 L 265.320312 4.648438 C 263.679688 4.667969 262.742188 5.625 262.253906 6.328125 L 262.253906 4.746094 L 261.023438 4.746094 L 261.023438 12.792969 L 262.351562 12.792969 Z M 262.351562 8.867188 "/>
<path style=" stroke:none;fill-rule:nonzero;fill:rgb(0%,0%,0%);fill-opacity:1;" d="M 272.921875 8.75 C 272.921875 7.988281 272.84375 6.894531 272.277344 5.9375 C 271.535156 4.707031 270.285156 4.570312 269.757812 4.570312 C 267.824219 4.570312 266.203125 6.425781 266.203125 8.75 C 266.203125 11.132812 267.921875 12.96875 270.011719 12.96875 C 270.832031 12.96875 271.828125 12.734375 272.804688 12.03125 C 272.804688 11.953125 272.746094 11.386719 272.746094 11.367188 C 272.726562 11.347656 272.707031 10.9375 272.707031 10.878906 C 271.632812 11.777344 270.578125 11.894531 270.050781 11.894531 C 268.664062 11.894531 267.472656 10.664062 267.453125 8.75 Z M 267.550781 7.792969 C 267.863281 6.582031 268.703125 5.644531 269.757812 5.644531 C 270.324219 5.644531 271.554688 5.898438 271.847656 7.792969 Z M 267.550781 7.792969 "/>
<path style=" stroke:none;fill-rule:nonzero;fill:rgb(0%,0%,0%);fill-opacity:1;" d="M 276.152344 0.351562 L 274.824219 0.351562 L 274.824219 12.792969 L 276.152344 12.792969 Z M 276.152344 0.351562 "/>
<path style=" stroke:none;fill-rule:nonzero;fill:rgb(0%,0%,0%);fill-opacity:1;" d="M 280.449219 0.625 L 278.90625 0.625 L 278.90625 2.167969 L 280.449219 2.167969 Z M 280.351562 4.824219 L 279.023438 4.824219 L 279.023438 12.792969 L 280.351562 12.792969 Z M 280.351562 4.824219 "/>
<path style=" stroke:none;fill-rule:nonzero;fill:rgb(0%,0%,0%);fill-opacity:1;" d="M 288.828125 7.539062 C 288.828125 5.820312 287.597656 4.570312 285.917969 4.570312 C 284.84375 4.570312 284.042969 4.804688 283.164062 5.3125 L 283.261719 6.503906 C 284.0625 5.917969 284.882812 5.605469 285.917969 5.605469 C 286.738281 5.605469 287.460938 6.269531 287.460938 7.578125 L 287.460938 8.320312 C 286.660156 8.339844 285.585938 8.398438 284.511719 8.75 C 283.300781 9.179688 282.597656 9.84375 282.597656 10.722656 C 282.597656 11.523438 283.066406 12.96875 284.589844 12.96875 C 285.585938 12.96875 286.835938 12.675781 287.5 12.128906 L 287.5 12.792969 L 288.828125 12.792969 Z M 287.460938 10.390625 C 287.460938 10.742188 287.460938 11.171875 286.875 11.542969 C 286.386719 11.835938 285.78125 11.894531 285.507812 11.894531 C 284.550781 11.894531 283.886719 11.367188 283.886719 10.722656 C 283.886719 9.492188 286.367188 9.21875 287.460938 9.21875 Z M 287.460938 10.390625 "/>
<path style=" stroke:none;fill-rule:nonzero;fill:rgb(0%,0%,0%);fill-opacity:1;" d="M 292.953125 0.351562 L 291.625 0.351562 L 291.625 12.792969 L 292.972656 12.792969 L 292.972656 11.992188 C 293.8125 12.773438 294.691406 12.96875 295.316406 12.96875 C 297.015625 12.96875 298.578125 11.230469 298.578125 8.789062 C 298.578125 6.582031 297.386719 4.648438 295.726562 4.648438 C 295.199219 4.648438 294.046875 4.765625 292.953125 5.664062 Z M 292.972656 6.757812 C 293.304688 6.25 293.949219 5.722656 294.828125 5.722656 C 295.921875 5.722656 297.210938 6.5625 297.210938 8.789062 C 297.210938 11.132812 295.746094 11.894531 294.652344 11.894531 C 294.144531 11.894531 293.8125 11.71875 293.480469 11.464844 C 293.050781 11.09375 292.972656 10.761719 292.972656 10.46875 Z M 292.972656 6.757812 "/>
<path style=" stroke:none;fill-rule:nonzero;fill:rgb(0%,0%,0%);fill-opacity:1;" d="M 301.953125 0.351562 L 300.625 0.351562 L 300.625 12.792969 L 301.953125 12.792969 Z M 301.953125 0.351562 "/>
<path style=" stroke:none;fill-rule:nonzero;fill:rgb(0%,0%,0%);fill-opacity:1;" d="M 310.722656 8.75 C 310.722656 7.988281 310.644531 6.894531 310.078125 5.9375 C 309.335938 4.707031 308.085938 4.570312 307.558594 4.570312 C 305.625 4.570312 304.003906 6.425781 304.003906 8.75 C 304.003906 11.132812 305.722656 12.96875 307.8125 12.96875 C 308.632812 12.96875 309.628906 12.734375 310.605469 12.03125 C 310.605469 11.953125 310.546875 11.386719 310.546875 11.367188 C 310.527344 11.347656 310.507812 10.9375 310.507812 10.878906 C 309.433594 11.777344 308.378906 11.894531 307.851562 11.894531 C 306.464844 11.894531 305.273438 10.664062 305.253906 8.75 Z M 305.351562 7.792969 C 305.664062 6.582031 306.503906 5.644531 307.558594 5.644531 C 308.125 5.644531 309.355469 5.898438 309.648438 7.792969 Z M 305.351562 7.792969 "/>
<path style=" stroke:none;fill-rule:nonzero;fill:rgb(0%,0%,0%);fill-opacity:1;" d="M 2.734375 27.027344 L 5.214844 27.027344 L 5.214844 25.972656 L 2.734375 25.972656 L 2.734375 23.707031 L 1.503906 23.707031 L 1.503906 25.972656 L 0 25.972656 L 0 27.027344 L 1.464844 27.027344 L 1.464844 31.851562 C 1.464844 32.886719 1.699219 34.117188 2.929688 34.117188 C 4.140625 34.117188 4.960938 33.707031 5.507812 33.414062 L 5.234375 32.378906 C 4.609375 32.945312 3.945312 33.003906 3.632812 33.003906 C 2.832031 33.003906 2.734375 32.164062 2.734375 31.539062 Z M 2.734375 27.027344 "/>
<path style=" stroke:none;fill-rule:nonzero;fill:rgb(0%,0%,0%);fill-opacity:1;" d="M 13.566406 28.550781 C 13.566406 27.457031 13.332031 25.796875 11.164062 25.796875 C 9.933594 25.796875 9.113281 26.5 8.683594 27.046875 L 8.683594 21.5 L 7.355469 21.5 L 7.355469 33.941406 L 8.703125 33.941406 L 8.703125 29.46875 C 8.703125 28.375 9.132812 26.871094 10.480469 26.871094 C 12.160156 26.871094 12.199219 28.042969 12.199219 28.667969 L 12.199219 33.941406 L 13.566406 33.941406 Z M 13.566406 28.550781 "/>
<path style=" stroke:none;fill-rule:nonzero;fill:rgb(0%,0%,0%);fill-opacity:1;" d="M 21.980469 28.6875 C 21.980469 26.96875 20.75 25.71875 19.070312 25.71875 C 17.996094 25.71875 17.195312 25.953125 16.316406 26.460938 L 16.414062 27.652344 C 17.214844 27.066406 18.035156 26.753906 19.070312 26.753906 C 19.890625 26.753906 20.613281 27.417969 20.613281 28.726562 L 20.613281 29.46875 C 19.8125 29.488281 18.738281 29.546875 17.664062 29.898438 C 16.453125 30.328125 15.75 30.992188 15.75 31.871094 C 15.75 32.671875 16.21875 34.117188 17.742188 34.117188 C 18.738281 34.117188 19.988281 33.824219 20.652344 33.277344 L 20.652344 33.941406 L 21.980469 33.941406 Z M 20.613281 31.539062 C 20.613281 31.890625 20.613281 32.320312 20.027344 32.691406 C 19.539062 32.984375 18.933594 33.042969 18.660156 33.042969 C 17.703125 33.042969 17.039062 32.515625 17.039062 31.871094 C 17.039062 30.640625 19.519531 30.367188 20.613281 30.367188 Z M 20.613281 31.539062 "/>
<path style=" stroke:none;fill-rule:nonzero;fill:rgb(0%,0%,0%);fill-opacity:1;" d="M 30.964844 28.550781 C 30.964844 27.457031 30.730469 25.796875 28.5625 25.796875 C 27.566406 25.796875 26.707031 26.246094 26.023438 27.105469 L 26.023438 25.894531 L 24.753906 25.894531 L 24.753906 33.941406 L 26.101562 33.941406 L 26.101562 29.46875 C 26.101562 28.375 26.53125 26.871094 27.878906 26.871094 C 29.558594 26.871094 29.597656 28.042969 29.597656 28.667969 L 29.597656 33.941406 L 30.964844 33.941406 Z M 30.964844 28.550781 "/>
<path style=" stroke:none;fill-rule:nonzero;fill:rgb(0%,0%,0%);fill-opacity:1;" d="M 44.929688 22.90625 C 45.085938 22.242188 45.164062 22.222656 45.867188 22.222656 L 48.191406 22.222656 C 50.222656 22.222656 50.222656 23.941406 50.222656 24.097656 C 50.222656 25.542969 48.757812 27.398438 46.394531 27.398438 L 43.816406 27.398438 Z M 47.957031 27.535156 C 49.910156 27.183594 51.6875 25.816406 51.6875 24.175781 C 51.6875 22.769531 50.457031 21.695312 48.425781 21.695312 L 42.664062 21.695312 C 42.332031 21.695312 42.175781 21.695312 42.175781 22.027344 C 42.175781 22.222656 42.332031 22.222656 42.605469 22.222656 C 43.699219 22.222656 43.699219 22.359375 43.699219 22.554688 C 43.699219 22.59375 43.699219 22.691406 43.621094 22.964844 L 41.199219 32.613281 C 41.042969 33.238281 41.003906 33.414062 39.753906 33.414062 C 39.402344 33.414062 39.226562 33.414062 39.226562 33.746094 C 39.226562 33.941406 39.34375 33.941406 39.695312 33.941406 L 45.847656 33.941406 C 48.582031 33.941406 50.710938 31.871094 50.710938 30.054688 C 50.710938 28.589844 49.402344 27.691406 47.957031 27.535156 Z M 45.417969 33.414062 L 42.996094 33.414062 C 42.742188 33.414062 42.703125 33.414062 42.605469 33.394531 C 42.410156 33.394531 42.390625 33.355469 42.390625 33.199219 C 42.390625 33.082031 42.410156 32.964844 42.449219 32.808594 L 43.71875 27.75 L 47.078125 27.75 C 49.1875 27.75 49.1875 29.722656 49.1875 29.878906 C 49.1875 31.597656 47.644531 33.414062 45.417969 33.414062 Z M 45.417969 33.414062 "/>
<path style=" stroke:none;fill-rule:nonzero;fill:rgb(0%,0%,0%);fill-opacity:1;" d="M 61.300781 21.773438 L 59.757812 21.773438 L 59.757812 23.316406 L 61.300781 23.316406 Z M 61.203125 25.972656 L 59.875 25.972656 L 59.875 33.941406 L 61.203125 33.941406 Z M 61.203125 25.972656 "/>
<path style=" stroke:none;fill-rule:nonzero;fill:rgb(0%,0%,0%);fill-opacity:1;" d="M 65.773438 27.027344 L 67.6875 27.027344 L 67.6875 25.972656 L 65.734375 25.972656 L 65.734375 23.824219 C 65.734375 22.613281 66.75 22.398438 67.355469 22.398438 C 67.980469 22.398438 68.527344 22.59375 68.742188 22.671875 L 68.742188 21.5 C 68.625 21.460938 68.019531 21.324219 67.375 21.324219 C 65.65625 21.324219 64.445312 22.632812 64.445312 24.371094 L 64.445312 25.972656 L 63.136719 25.972656 L 63.136719 27.027344 L 64.445312 27.027344 L 64.445312 33.941406 L 65.773438 33.941406 Z M 65.773438 27.027344 "/>
<path style=" stroke:none;fill-rule:nonzero;fill:rgb(0%,0%,0%);fill-opacity:1;" d="M 40.082031 66.941406 L 43.089844 66.941406 C 45.570312 66.941406 48.03125 65.105469 48.03125 63.074219 C 48.03125 61.667969 46.859375 60.398438 44.59375 60.398438 L 39.046875 60.398438 C 38.714844 60.398438 38.558594 60.398438 38.558594 60.730469 C 38.558594 60.925781 38.714844 60.925781 38.988281 60.925781 C 40.082031 60.925781 40.082031 61.0625 40.082031 61.257812 C 40.082031 61.296875 40.082031 61.394531 40.003906 61.667969 L 37.582031 71.316406 C 37.425781 71.941406 37.386719 72.117188 36.136719 72.117188 C 35.785156 72.117188 35.609375 72.117188 35.609375 72.449219 C 35.609375 72.644531 35.765625 72.644531 35.882812 72.644531 C 36.214844 72.644531 36.585938 72.605469 36.917969 72.605469 L 39.027344 72.605469 C 39.359375 72.605469 39.730469 72.644531 40.082031 72.644531 C 40.21875 72.644531 40.414062 72.644531 40.414062 72.3125 C 40.414062 72.117188 40.257812 72.117188 39.984375 72.117188 C 38.910156 72.117188 38.890625 72 38.890625 71.824219 C 38.890625 71.726562 38.910156 71.609375 38.929688 71.511719 Z M 41.371094 61.609375 C 41.527344 60.945312 41.605469 60.925781 42.308594 60.925781 L 44.066406 60.925781 C 45.414062 60.925781 46.527344 61.355469 46.527344 62.703125 C 46.527344 63.152344 46.292969 64.675781 45.472656 65.515625 C 45.160156 65.828125 44.300781 66.511719 42.679688 66.511719 L 40.140625 66.511719 Z M 41.371094 61.609375 "/>
<path style=" stroke:none;fill-rule:nonzero;fill:rgb(0%,0%,0%);fill-opacity:1;" d="M 57.386719 77 C 57.386719 76.941406 57.386719 76.902344 57.09375 76.609375 C 55.296875 74.792969 54.300781 71.84375 54.300781 68.171875 C 54.300781 64.695312 55.140625 61.707031 57.210938 59.597656 C 57.386719 59.421875 57.386719 59.402344 57.386719 59.34375 C 57.386719 59.226562 57.308594 59.207031 57.230469 59.207031 C 56.996094 59.207031 55.53125 60.496094 54.652344 62.253906 C 53.734375 64.050781 53.324219 65.984375 53.324219 68.171875 C 53.324219 69.773438 53.578125 71.902344 54.515625 73.835938 C 55.570312 75.984375 57.035156 77.136719 57.230469 77.136719 C 57.308594 77.136719 57.386719 77.117188 57.386719 77 Z M 57.386719 77 "/>
<path style=" stroke:none;fill-rule:nonzero;fill:rgb(0%,0%,0%);fill-opacity:1;" d="M 61.363281 70.652344 C 60.738281 71.707031 60.132812 72.078125 59.273438 72.117188 C 59.078125 72.136719 58.921875 72.136719 58.921875 72.46875 C 58.921875 72.566406 59.019531 72.644531 59.136719 72.644531 C 59.46875 72.644531 60.269531 72.605469 60.601562 72.605469 C 61.109375 72.605469 61.695312 72.644531 62.183594 72.644531 C 62.300781 72.644531 62.515625 72.644531 62.515625 72.3125 C 62.515625 72.136719 62.359375 72.117188 62.261719 72.117188 C 61.851562 72.097656 61.5 71.941406 61.5 71.511719 C 61.5 71.257812 61.617188 71.0625 61.851562 70.671875 L 63.21875 68.40625 L 67.789062 68.40625 C 67.808594 68.582031 67.808594 68.71875 67.828125 68.875 C 67.867188 69.34375 68.082031 71.21875 68.082031 71.550781 C 68.082031 72.097656 67.164062 72.117188 66.890625 72.117188 C 66.695312 72.117188 66.5 72.117188 66.5 72.449219 C 66.5 72.644531 66.65625 72.644531 66.753906 72.644531 C 67.066406 72.644531 67.417969 72.605469 67.730469 72.605469 L 68.746094 72.605469 C 69.839844 72.605469 70.640625 72.644531 70.660156 72.644531 C 70.777344 72.644531 70.972656 72.644531 70.972656 72.3125 C 70.972656 72.117188 70.816406 72.117188 70.542969 72.117188 C 69.566406 72.117188 69.546875 71.960938 69.488281 71.433594 L 68.394531 60.242188 C 68.355469 59.871094 68.277344 59.851562 68.082031 59.851562 C 67.90625 59.851562 67.808594 59.871094 67.632812 60.144531 Z M 63.511719 67.898438 L 67.125 61.863281 L 67.730469 67.898438 Z M 63.511719 67.898438 "/>
<path style=" stroke:none;fill-rule:nonzero;fill:rgb(0%,0%,0%);fill-opacity:1;" d="M 77.371094 59.851562 C 77.371094 59.519531 77.371094 59.207031 77.019531 59.207031 C 76.648438 59.207031 76.648438 59.519531 76.648438 59.851562 L 76.648438 76.472656 C 76.648438 76.804688 76.648438 77.117188 77.019531 77.117188 C 77.371094 77.117188 77.371094 76.804688 77.371094 76.472656 Z M 77.371094 59.851562 "/>
<path style=" stroke:none;fill-rule:nonzero;fill:rgb(0%,0%,0%);fill-opacity:1;" d="M 95.867188 60.183594 C 95.867188 60.027344 95.730469 60.027344 95.691406 60.027344 C 95.671875 60.027344 95.59375 60.027344 95.457031 60.203125 L 94.207031 61.707031 C 93.582031 60.632812 92.605469 60.027344 91.257812 60.027344 C 87.390625 60.027344 83.367188 63.953125 83.367188 68.171875 C 83.367188 71.160156 85.457031 73.015625 88.074219 73.015625 C 89.519531 73.015625 90.769531 72.410156 91.804688 71.53125 C 93.367188 70.222656 93.835938 68.484375 93.835938 68.347656 C 93.835938 68.171875 93.699219 68.171875 93.640625 68.171875 C 93.484375 68.171875 93.464844 68.289062 93.425781 68.367188 C 92.605469 71.160156 90.183594 72.507812 88.386719 72.507812 C 86.492188 72.507812 84.832031 71.277344 84.832031 68.738281 C 84.832031 68.171875 85.007812 65.046875 87.039062 62.703125 C 88.035156 61.550781 89.714844 60.535156 91.414062 60.535156 C 93.386719 60.535156 94.265625 62.175781 94.265625 64.011719 C 94.265625 64.460938 94.207031 64.871094 94.207031 64.929688 C 94.207031 65.105469 94.382812 65.105469 94.441406 65.105469 C 94.636719 65.105469 94.65625 65.085938 94.734375 64.753906 Z M 95.867188 60.183594 "/>
<path style=" stroke:none;fill-rule:nonzero;fill:rgb(0%,0%,0%);fill-opacity:1;" d="M 101.476562 68.171875 C 101.476562 66.824219 101.300781 64.597656 100.285156 62.507812 C 99.230469 60.359375 97.765625 59.207031 97.570312 59.207031 C 97.492188 59.207031 97.394531 59.226562 97.394531 59.34375 C 97.394531 59.402344 97.394531 59.421875 97.707031 59.734375 C 99.503906 61.550781 100.5 64.5 100.5 68.171875 C 100.5 71.648438 99.660156 74.636719 97.589844 76.746094 C 97.394531 76.902344 97.394531 76.941406 97.394531 77 C 97.394531 77.117188 97.492188 77.136719 97.570312 77.136719 C 97.804688 77.136719 99.269531 75.847656 100.148438 74.089844 C 101.066406 72.273438 101.476562 70.339844 101.476562 68.171875 Z M 101.476562 68.171875 "/>
<path style=" stroke:none;fill-rule:nonzero;fill:rgb(0%,0%,0%);fill-opacity:1;" d="M 119.933594 68.5625 C 120.265625 68.386719 120.285156 68.289062 120.285156 68.171875 C 120.285156 68.054688 120.246094 67.9375 119.933594 67.78125 L 110.226562 63.328125 C 109.992188 63.210938 109.972656 63.191406 109.933594 63.191406 C 109.71875 63.191406 109.582031 63.367188 109.582031 63.523438 C 109.582031 63.738281 109.738281 63.796875 109.972656 63.914062 L 119.171875 68.171875 L 109.953125 72.429688 C 109.582031 72.585938 109.582031 72.722656 109.582031 72.820312 C 109.582031 72.976562 109.71875 73.152344 109.933594 73.152344 C 109.972656 73.152344 109.972656 73.132812 110.226562 73.015625 Z M 119.933594 68.5625 "/>
<path style=" stroke:none;fill-rule:nonzero;fill:rgb(0%,0%,0%);fill-opacity:1;" d="M 132.179688 66.941406 L 135.1875 66.941406 C 137.667969 66.941406 140.128906 65.105469 140.128906 63.074219 C 140.128906 61.667969 138.957031 60.398438 136.691406 60.398438 L 131.144531 60.398438 C 130.8125 60.398438 130.65625 60.398438 130.65625 60.730469 C 130.65625 60.925781 130.8125 60.925781 131.085938 60.925781 C 132.179688 60.925781 132.179688 61.0625 132.179688 61.257812 C 132.179688 61.296875 132.179688 61.394531 132.101562 61.667969 L 129.679688 71.316406 C 129.523438 71.941406 129.484375 72.117188 128.234375 72.117188 C 127.882812 72.117188 127.707031 72.117188 127.707031 72.449219 C 127.707031 72.644531 127.863281 72.644531 127.980469 72.644531 C 128.3125 72.644531 128.683594 72.605469 129.015625 72.605469 L 131.125 72.605469 C 131.457031 72.605469 131.828125 72.644531 132.179688 72.644531 C 132.316406 72.644531 132.511719 72.644531 132.511719 72.3125 C 132.511719 72.117188 132.355469 72.117188 132.082031 72.117188 C 131.007812 72.117188 130.988281 72 130.988281 71.824219 C 130.988281 71.726562 131.007812 71.609375 131.027344 71.511719 Z M 133.46875 61.609375 C 133.625 60.945312 133.703125 60.925781 134.40625 60.925781 L 136.164062 60.925781 C 137.511719 60.925781 138.625 61.355469 138.625 62.703125 C 138.625 63.152344 138.390625 64.675781 137.570312 65.515625 C 137.257812 65.828125 136.398438 66.511719 134.777344 66.511719 L 132.238281 66.511719 Z M 133.46875 61.609375 "/>
<path style=" stroke:none;fill-rule:nonzero;fill:rgb(0%,0%,0%);fill-opacity:1;" d="M 149.339844 77 C 149.339844 76.941406 149.339844 76.902344 149.046875 76.609375 C 147.25 74.792969 146.253906 71.84375 146.253906 68.171875 C 146.253906 64.695312 147.09375 61.707031 149.164062 59.597656 C 149.339844 59.421875 149.339844 59.402344 149.339844 59.34375 C 149.339844 59.226562 149.261719 59.207031 149.183594 59.207031 C 148.949219 59.207031 147.484375 60.496094 146.605469 62.253906 C 145.6875 64.050781 145.277344 65.984375 145.277344 68.171875 C 145.277344 69.773438 145.53125 71.902344 146.46875 73.835938 C 147.523438 75.984375 148.988281 77.136719 149.183594 77.136719 C 149.261719 77.136719 149.339844 77.117188 149.339844 77 Z M 149.339844 77 "/>
<path style=" stroke:none;fill-rule:nonzero;fill:rgb(0%,0%,0%);fill-opacity:1;" d="M 156.980469 61.609375 C 157.136719 60.945312 157.214844 60.925781 157.917969 60.925781 L 160.242188 60.925781 C 162.273438 60.925781 162.273438 62.644531 162.273438 62.800781 C 162.273438 64.246094 160.808594 66.101562 158.445312 66.101562 L 155.867188 66.101562 Z M 160.007812 66.238281 C 161.960938 65.886719 163.738281 64.519531 163.738281 62.878906 C 163.738281 61.472656 162.507812 60.398438 160.476562 60.398438 L 154.714844 60.398438 C 154.382812 60.398438 154.226562 60.398438 154.226562 60.730469 C 154.226562 60.925781 154.382812 60.925781 154.65625 60.925781 C 155.75 60.925781 155.75 61.0625 155.75 61.257812 C 155.75 61.296875 155.75 61.394531 155.671875 61.667969 L 153.25 71.316406 C 153.09375 71.941406 153.054688 72.117188 151.804688 72.117188 C 151.453125 72.117188 151.277344 72.117188 151.277344 72.449219 C 151.277344 72.644531 151.394531 72.644531 151.746094 72.644531 L 157.898438 72.644531 C 160.632812 72.644531 162.761719 70.574219 162.761719 68.757812 C 162.761719 67.292969 161.453125 66.394531 160.007812 66.238281 Z M 157.46875 72.117188 L 155.046875 72.117188 C 154.792969 72.117188 154.753906 72.117188 154.65625 72.097656 C 154.460938 72.097656 154.441406 72.058594 154.441406 71.902344 C 154.441406 71.785156 154.460938 71.667969 154.5 71.511719 L 155.769531 66.453125 L 159.128906 66.453125 C 161.238281 66.453125 161.238281 68.425781 161.238281 68.582031 C 161.238281 70.300781 159.695312 72.117188 157.46875 72.117188 Z M 157.46875 72.117188 "/>
<path style=" stroke:none;fill-rule:nonzero;fill:rgb(0%,0%,0%);fill-opacity:1;" d="M 170.519531 59.851562 C 170.519531 59.519531 170.519531 59.207031 170.167969 59.207031 C 169.796875 59.207031 169.796875 59.519531 169.796875 59.851562 L 169.796875 76.472656 C 169.796875 76.804688 169.796875 77.117188 170.167969 77.117188 C 170.519531 77.117188 170.519531 76.804688 170.519531 76.472656 Z M 170.519531 59.851562 "/>
<path style=" stroke:none;fill-rule:nonzero;fill:rgb(0%,0%,0%);fill-opacity:1;" d="M 189.015625 60.183594 C 189.015625 60.027344 188.878906 60.027344 188.839844 60.027344 C 188.820312 60.027344 188.742188 60.027344 188.605469 60.203125 L 187.355469 61.707031 C 186.730469 60.632812 185.753906 60.027344 184.40625 60.027344 C 180.539062 60.027344 176.515625 63.953125 176.515625 68.171875 C 176.515625 71.160156 178.605469 73.015625 181.222656 73.015625 C 182.667969 73.015625 183.917969 72.410156 184.953125 71.53125 C 186.515625 70.222656 186.984375 68.484375 186.984375 68.347656 C 186.984375 68.171875 186.847656 68.171875 186.789062 68.171875 C 186.632812 68.171875 186.613281 68.289062 186.574219 68.367188 C 185.753906 71.160156 183.332031 72.507812 181.535156 72.507812 C 179.640625 72.507812 177.980469 71.277344 177.980469 68.738281 C 177.980469 68.171875 178.15625 65.046875 180.1875 62.703125 C 181.183594 61.550781 182.863281 60.535156 184.5625 60.535156 C 186.535156 60.535156 187.414062 62.175781 187.414062 64.011719 C 187.414062 64.460938 187.355469 64.871094 187.355469 64.929688 C 187.355469 65.105469 187.53125 65.105469 187.589844 65.105469 C 187.785156 65.105469 187.804688 65.085938 187.882812 64.753906 Z M 189.015625 60.183594 "/>
<path style=" stroke:none;fill-rule:nonzero;fill:rgb(0%,0%,0%);fill-opacity:1;" d="M 194.628906 68.171875 C 194.628906 66.824219 194.453125 64.597656 193.4375 62.507812 C 192.382812 60.359375 190.917969 59.207031 190.722656 59.207031 C 190.644531 59.207031 190.546875 59.226562 190.546875 59.34375 C 190.546875 59.402344 190.546875 59.421875 190.859375 59.734375 C 192.65625 61.550781 193.652344 64.5 193.652344 68.171875 C 193.652344 71.648438 192.8125 74.636719 190.742188 76.746094 C 190.546875 76.902344 190.546875 76.941406 190.546875 77 C 190.546875 77.117188 190.644531 77.136719 190.722656 77.136719 C 190.957031 77.136719 192.421875 75.847656 193.300781 74.089844 C 194.21875 72.273438 194.628906 70.339844 194.628906 68.171875 Z M 194.628906 68.171875 "/>
<path style=" stroke:none;fill-rule:nonzero;fill:rgb(0%,0%,0%);fill-opacity:1;" d="M 11.621094 105 C 11.621094 101.210938 9.042969 98.378906 6.132812 98.378906 C 3.164062 98.378906 0.644531 101.25 0.644531 105 C 0.644531 108.789062 3.242188 111.5625 6.113281 111.5625 C 9.082031 111.5625 11.621094 108.75 11.621094 105 Z M 6.132812 110.429688 C 4.0625 110.429688 2.1875 108.203125 2.1875 104.746094 C 2.1875 101.445312 4.140625 99.492188 6.113281 99.492188 C 8.164062 99.492188 10.078125 101.484375 10.078125 104.746094 C 10.078125 108.242188 8.144531 110.429688 6.132812 110.429688 Z M 6.132812 110.429688 "/>
<path style=" stroke:none;fill-rule:nonzero;fill:rgb(0%,0%,0%);fill-opacity:1;" d="M 15.632812 104.277344 L 18.113281 104.277344 L 18.113281 103.222656 L 15.632812 103.222656 L 15.632812 100.957031 L 14.402344 100.957031 L 14.402344 103.222656 L 12.898438 103.222656 L 12.898438 104.277344 L 14.363281 104.277344 L 14.363281 109.101562 C 14.363281 110.136719 14.597656 111.367188 15.828125 111.367188 C 17.039062 111.367188 17.859375 110.957031 18.40625 110.664062 L 18.132812 109.628906 C 17.507812 110.195312 16.84375 110.253906 16.53125 110.253906 C 15.730469 110.253906 15.632812 109.414062 15.632812 108.789062 Z M 15.632812 104.277344 "/>
<path style=" stroke:none;fill-rule:nonzero;fill:rgb(0%,0%,0%);fill-opacity:1;" d="M 26.464844 105.800781 C 26.464844 104.707031 26.230469 103.046875 24.0625 103.046875 C 22.832031 103.046875 22.011719 103.75 21.582031 104.296875 L 21.582031 98.75 L 20.253906 98.75 L 20.253906 111.191406 L 21.601562 111.191406 L 21.601562 106.71875 C 21.601562 105.625 22.03125 104.121094 23.378906 104.121094 C 25.058594 104.121094 25.097656 105.292969 25.097656 105.917969 L 25.097656 111.191406 L 26.464844 111.191406 Z M 26.464844 105.800781 "/>
<path style=" stroke:none;fill-rule:nonzero;fill:rgb(0%,0%,0%);fill-opacity:1;" d="M 35.171875 107.148438 C 35.171875 106.386719 35.09375 105.292969 34.527344 104.335938 C 33.785156 103.105469 32.535156 102.96875 32.007812 102.96875 C 30.074219 102.96875 28.453125 104.824219 28.453125 107.148438 C 28.453125 109.53125 30.171875 111.367188 32.261719 111.367188 C 33.082031 111.367188 34.078125 111.132812 35.054688 110.429688 C 35.054688 110.351562 34.996094 109.785156 34.996094 109.765625 C 34.976562 109.746094 34.957031 109.335938 34.957031 109.277344 C 33.882812 110.175781 32.828125 110.292969 32.300781 110.292969 C 30.914062 110.292969 29.722656 109.0625 29.703125 107.148438 Z M 29.800781 106.191406 C 30.113281 104.980469 30.953125 104.042969 32.007812 104.042969 C 32.574219 104.042969 33.804688 104.296875 34.097656 106.191406 Z M 29.800781 106.191406 "/>
<path style=" stroke:none;fill-rule:nonzero;fill:rgb(0%,0%,0%);fill-opacity:1;" d="M 38.402344 107.265625 C 38.402344 105.449219 39.75 104.277344 41.371094 104.257812 L 41.371094 103.046875 C 39.730469 103.066406 38.792969 104.023438 38.304688 104.726562 L 38.304688 103.144531 L 37.074219 103.144531 L 37.074219 111.191406 L 38.402344 111.191406 Z M 38.402344 107.265625 "/>
<path style=" stroke:none;fill-rule:nonzero;fill:rgb(0%,0%,0%);fill-opacity:1;" d="M 53.328125 103.222656 L 52.019531 103.222656 L 50.945312 106.875 C 50.691406 107.734375 50.183594 109.414062 50.105469 110.195312 L 50.085938 110.195312 C 50.046875 109.765625 49.753906 108.554688 49.382812 107.285156 L 48.191406 103.222656 L 46.960938 103.222656 L 45.925781 106.738281 C 45.613281 107.851562 45.183594 109.394531 45.125 110.15625 L 45.105469 110.15625 C 45.085938 109.804688 44.890625 108.867188 44.558594 107.65625 L 43.289062 103.222656 L 41.921875 103.222656 L 44.324219 111.191406 L 45.710938 111.191406 C 46.375 108.925781 47.429688 105.527344 47.527344 104.277344 L 47.546875 104.277344 C 47.585938 105 47.9375 106.289062 48.074219 106.71875 L 49.34375 111.191406 L 50.925781 111.191406 Z M 53.328125 103.222656 "/>
<path style=" stroke:none;fill-rule:nonzero;fill:rgb(0%,0%,0%);fill-opacity:1;" d="M 56.5 99.023438 L 54.957031 99.023438 L 54.957031 100.566406 L 56.5 100.566406 Z M 56.402344 103.222656 L 55.074219 103.222656 L 55.074219 111.191406 L 56.402344 111.191406 Z M 56.402344 103.222656 "/>
<path style=" stroke:none;fill-rule:nonzero;fill:rgb(0%,0%,0%);fill-opacity:1;" d="M 63.882812 103.515625 C 62.75 102.988281 61.773438 102.96875 61.363281 102.96875 C 60.953125 102.96875 58.453125 102.96875 58.453125 105.292969 C 58.453125 106.074219 58.882812 106.621094 59.15625 106.875 C 59.800781 107.421875 60.25 107.519531 61.304688 107.734375 C 61.910156 107.851562 62.945312 108.066406 62.945312 109.023438 C 62.945312 110.253906 61.539062 110.253906 61.285156 110.253906 C 60.582031 110.253906 59.527344 110.058594 58.570312 109.355469 L 58.355469 110.585938 C 58.433594 110.644531 59.664062 111.367188 61.304688 111.367188 C 63.628906 111.367188 64.175781 109.980469 64.175781 108.90625 C 64.175781 108.007812 63.628906 107.421875 63.550781 107.34375 C 62.886719 106.660156 62.339844 106.542969 61.265625 106.328125 C 60.601562 106.210938 59.703125 106.035156 59.703125 105.136719 C 59.703125 104.023438 60.953125 104.023438 61.1875 104.023438 C 62.125 104.023438 62.886719 104.238281 63.667969 104.6875 Z M 63.882812 103.515625 "/>
<path style=" stroke:none;fill-rule:nonzero;fill:rgb(0%,0%,0%);fill-opacity:1;" d="M 71.921875 107.148438 C 71.921875 106.386719 71.84375 105.292969 71.277344 104.335938 C 70.535156 103.105469 69.285156 102.96875 68.757812 102.96875 C 66.824219 102.96875 65.203125 104.824219 65.203125 107.148438 C 65.203125 109.53125 66.921875 111.367188 69.011719 111.367188 C 69.832031 111.367188 70.828125 111.132812 71.804688 110.429688 C 71.804688 110.351562 71.746094 109.785156 71.746094 109.765625 C 71.726562 109.746094 71.707031 109.335938 71.707031 109.277344 C 70.632812 110.175781 69.578125 110.292969 69.050781 110.292969 C 67.664062 110.292969 66.472656 109.0625 66.453125 107.148438 Z M 66.550781 106.191406 C 66.863281 104.980469 67.703125 104.042969 68.757812 104.042969 C 69.324219 104.042969 70.554688 104.296875 70.847656 106.191406 Z M 66.550781 106.191406 "/>
<path style=" stroke:none;fill-rule:nonzero;fill:rgb(0%,0%,0%);fill-opacity:1;" d="M 75.582031 111.171875 L 75.582031 109.746094 L 74.117188 109.746094 L 74.117188 111.191406 L 74.566406 111.191406 L 74.117188 113.4375 L 74.839844 113.4375 Z M 75.582031 111.171875 "/>
<path style=" stroke:none;fill-rule:nonzero;fill:rgb(0%,0%,0%);fill-opacity:1;" d="M 89.628906 100.15625 C 89.785156 99.492188 89.863281 99.472656 90.566406 99.472656 L 92.890625 99.472656 C 94.921875 99.472656 94.921875 101.191406 94.921875 101.347656 C 94.921875 102.792969 93.457031 104.648438 91.09375 104.648438 L 88.515625 104.648438 Z M 92.65625 104.785156 C 94.609375 104.433594 96.386719 103.066406 96.386719 101.425781 C 96.386719 100.019531 95.15625 98.945312 93.125 98.945312 L 87.363281 98.945312 C 87.03125 98.945312 86.875 98.945312 86.875 99.277344 C 86.875 99.472656 87.03125 99.472656 87.304688 99.472656 C 88.398438 99.472656 88.398438 99.609375 88.398438 99.804688 C 88.398438 99.84375 88.398438 99.941406 88.320312 100.214844 L 85.898438 109.863281 C 85.742188 110.488281 85.703125 110.664062 84.453125 110.664062 C 84.101562 110.664062 83.925781 110.664062 83.925781 110.996094 C 83.925781 111.191406 84.042969 111.191406 84.394531 111.191406 L 90.546875 111.191406 C 93.28125 111.191406 95.410156 109.121094 95.410156 107.304688 C 95.410156 105.839844 94.101562 104.941406 92.65625 104.785156 Z M 90.117188 110.664062 L 87.695312 110.664062 C 87.441406 110.664062 87.402344 110.664062 87.304688 110.644531 C 87.109375 110.644531 87.089844 110.605469 87.089844 110.449219 C 87.089844 110.332031 87.109375 110.214844 87.148438 110.058594 L 88.417969 105 L 91.777344 105 C 93.886719 105 93.886719 106.972656 93.886719 107.128906 C 93.886719 108.847656 92.34375 110.664062 90.117188 110.664062 Z M 90.117188 110.664062 "/>
<path style=" stroke:none;fill-rule:nonzero;fill:rgb(0%,0%,0%);fill-opacity:1;" d="M 106 99.023438 L 104.457031 99.023438 L 104.457031 100.566406 L 106 100.566406 Z M 105.902344 103.222656 L 104.574219 103.222656 L 104.574219 111.191406 L 105.902344 111.191406 Z M 105.902344 103.222656 "/>
<path style=" stroke:none;fill-rule:nonzero;fill:rgb(0%,0%,0%);fill-opacity:1;" d="M 113.382812 103.515625 C 112.25 102.988281 111.273438 102.96875 110.863281 102.96875 C 110.453125 102.96875 107.953125 102.96875 107.953125 105.292969 C 107.953125 106.074219 108.382812 106.621094 108.65625 106.875 C 109.300781 107.421875 109.75 107.519531 110.804688 107.734375 C 111.410156 107.851562 112.445312 108.066406 112.445312 109.023438 C 112.445312 110.253906 111.039062 110.253906 110.785156 110.253906 C 110.082031 110.253906 109.027344 110.058594 108.070312 109.355469 L 107.855469 110.585938 C 107.933594 110.644531 109.164062 111.367188 110.804688 111.367188 C 113.128906 111.367188 113.675781 109.980469 113.675781 108.90625 C 113.675781 108.007812 113.128906 107.421875 113.050781 107.34375 C 112.386719 106.660156 111.839844 106.542969 110.765625 106.328125 C 110.101562 106.210938 109.203125 106.035156 109.203125 105.136719 C 109.203125 104.023438 110.453125 104.023438 110.6875 104.023438 C 111.625 104.023438 112.386719 104.238281 113.167969 104.6875 Z M 113.382812 103.515625 "/>
<path style=" stroke:none;fill-rule:nonzero;fill:rgb(0%,0%,0%);fill-opacity:1;" d="M 132.46875 105.800781 C 132.46875 104.550781 132.136719 103.046875 130.046875 103.046875 C 128.523438 103.046875 127.683594 104.101562 127.410156 104.511719 C 127.078125 103.378906 126.101562 103.046875 125.164062 103.046875 C 123.699219 103.046875 122.917969 104.003906 122.625 104.375 L 122.625 103.144531 L 121.355469 103.144531 L 121.355469 111.191406 L 122.703125 111.191406 L 122.703125 106.71875 C 122.703125 105.546875 123.171875 104.121094 124.480469 104.121094 C 126.140625 104.121094 126.21875 105.253906 126.21875 105.917969 L 126.21875 111.191406 L 127.585938 111.191406 L 127.585938 106.71875 C 127.585938 105.546875 128.054688 104.121094 129.363281 104.121094 C 131.003906 104.121094 131.101562 105.253906 131.101562 105.917969 L 131.101562 111.191406 L 132.46875 111.191406 Z M 132.46875 105.800781 "/>
<path style=" stroke:none;fill-rule:nonzero;fill:rgb(0%,0%,0%);fill-opacity:1;" d="M 142.140625 107.246094 C 142.140625 104.824219 140.363281 102.96875 138.3125 102.96875 C 136.203125 102.96875 134.464844 104.863281 134.464844 107.246094 C 134.464844 109.589844 136.242188 111.367188 138.292969 111.367188 C 140.402344 111.367188 142.140625 109.550781 142.140625 107.246094 Z M 138.3125 110.253906 C 137.023438 110.253906 135.8125 109.179688 135.8125 107.070312 C 135.8125 104.902344 137.160156 104.042969 138.292969 104.042969 C 139.523438 104.042969 140.792969 104.960938 140.792969 107.070312 C 140.792969 109.277344 139.503906 110.253906 138.3125 110.253906 Z M 138.3125 110.253906 "/>
<path style=" stroke:none;fill-rule:nonzero;fill:rgb(0%,0%,0%);fill-opacity:1;" d="M 145.050781 107.265625 C 145.050781 105.449219 146.398438 104.277344 148.019531 104.257812 L 148.019531 103.046875 C 146.378906 103.066406 145.441406 104.023438 144.953125 104.726562 L 144.953125 103.144531 L 143.722656 103.144531 L 143.722656 111.191406 L 145.050781 111.191406 Z M 145.050781 107.265625 "/>
<path style=" stroke:none;fill-rule:nonzero;fill:rgb(0%,0%,0%);fill-opacity:1;" d="M 155.621094 107.148438 C 155.621094 106.386719 155.542969 105.292969 154.976562 104.335938 C 154.234375 103.105469 152.984375 102.96875 152.457031 102.96875 C 150.523438 102.96875 148.902344 104.824219 148.902344 107.148438 C 148.902344 109.53125 150.621094 111.367188 152.710938 111.367188 C 153.53125 111.367188 154.527344 111.132812 155.503906 110.429688 C 155.503906 110.351562 155.445312 109.785156 155.445312 109.765625 C 155.425781 109.746094 155.40625 109.335938 155.40625 109.277344 C 154.332031 110.175781 153.277344 110.292969 152.75 110.292969 C 151.363281 110.292969 150.171875 109.0625 150.152344 107.148438 Z M 150.25 106.191406 C 150.5625 104.980469 151.402344 104.042969 152.457031 104.042969 C 153.023438 104.042969 154.253906 104.296875 154.546875 106.191406 Z M 150.25 106.191406 "/>
<path style=" stroke:none;fill-rule:nonzero;fill:rgb(0%,0%,0%);fill-opacity:1;" d="M 164.402344 107.265625 C 164.402344 105.449219 165.75 104.277344 167.371094 104.257812 L 167.371094 103.046875 C 165.730469 103.066406 164.792969 104.023438 164.304688 104.726562 L 164.304688 103.144531 L 163.074219 103.144531 L 163.074219 111.191406 L 164.402344 111.191406 Z M 164.402344 107.265625 "/>
<path style=" stroke:none;fill-rule:nonzero;fill:rgb(0%,0%,0%);fill-opacity:1;" d="M 174.972656 107.148438 C 174.972656 106.386719 174.894531 105.292969 174.328125 104.335938 C 173.585938 103.105469 172.335938 102.96875 171.808594 102.96875 C 169.875 102.96875 168.253906 104.824219 168.253906 107.148438 C 168.253906 109.53125 169.972656 111.367188 172.0625 111.367188 C 172.882812 111.367188 173.878906 111.132812 174.855469 110.429688 C 174.855469 110.351562 174.796875 109.785156 174.796875 109.765625 C 174.777344 109.746094 174.757812 109.335938 174.757812 109.277344 C 173.683594 110.175781 172.628906 110.292969 172.101562 110.292969 C 170.714844 110.292969 169.523438 109.0625 169.503906 107.148438 Z M 169.601562 106.191406 C 169.914062 104.980469 170.753906 104.042969 171.808594 104.042969 C 172.375 104.042969 173.605469 104.296875 173.898438 106.191406 Z M 169.601562 106.191406 "/>
<path style=" stroke:none;fill-rule:nonzero;fill:rgb(0%,0%,0%);fill-opacity:1;" d="M 178.203125 98.75 L 176.875 98.75 L 176.875 111.191406 L 178.203125 111.191406 Z M 178.203125 98.75 "/>
<path style=" stroke:none;fill-rule:nonzero;fill:rgb(0%,0%,0%);fill-opacity:1;" d="M 182.5 99.023438 L 180.957031 99.023438 L 180.957031 100.566406 L 182.5 100.566406 Z M 182.402344 103.222656 L 181.074219 103.222656 L 181.074219 111.191406 L 182.402344 111.191406 Z M 182.402344 103.222656 "/>
<path style=" stroke:none;fill-rule:nonzero;fill:rgb(0%,0%,0%);fill-opacity:1;" d="M 190.878906 105.9375 C 190.878906 104.21875 189.648438 102.96875 187.96875 102.96875 C 186.894531 102.96875 186.09375 103.203125 185.214844 103.710938 L 185.3125 104.902344 C 186.113281 104.316406 186.933594 104.003906 187.96875 104.003906 C 188.789062 104.003906 189.511719 104.667969 189.511719 105.976562 L 189.511719 106.71875 C 188.710938 106.738281 187.636719 106.796875 186.5625 107.148438 C 185.351562 107.578125 184.648438 108.242188 184.648438 109.121094 C 184.648438 109.921875 185.117188 111.367188 186.640625 111.367188 C 187.636719 111.367188 188.886719 111.074219 189.550781 110.527344 L 189.550781 111.191406 L 190.878906 111.191406 Z M 189.511719 108.789062 C 189.511719 109.140625 189.511719 109.570312 188.925781 109.941406 C 188.4375 110.234375 187.832031 110.292969 187.558594 110.292969 C 186.601562 110.292969 185.9375 109.765625 185.9375 109.121094 C 185.9375 107.890625 188.417969 107.617188 189.511719 107.617188 Z M 189.511719 108.789062 "/>
<path style=" stroke:none;fill-rule:nonzero;fill:rgb(0%,0%,0%);fill-opacity:1;" d="M 195 98.75 L 193.671875 98.75 L 193.671875 111.191406 L 195.019531 111.191406 L 195.019531 110.390625 C 195.859375 111.171875 196.738281 111.367188 197.363281 111.367188 C 199.0625 111.367188 200.625 109.628906 200.625 107.1875 C 200.625 104.980469 199.433594 103.046875 197.773438 103.046875 C 197.246094 103.046875 196.09375 103.164062 195 104.0625 Z M 195.019531 105.15625 C 195.351562 104.648438 195.996094 104.121094 196.875 104.121094 C 197.96875 104.121094 199.257812 104.960938 199.257812 107.1875 C 199.257812 109.53125 197.792969 110.292969 196.699219 110.292969 C 196.191406 110.292969 195.859375 110.117188 195.527344 109.863281 C 195.097656 109.492188 195.019531 109.160156 195.019531 108.867188 Z M 195.019531 105.15625 "/>
<path style=" stroke:none;fill-rule:nonzero;fill:rgb(0%,0%,0%);fill-opacity:1;" d="M 204 98.75 L 202.671875 98.75 L 202.671875 111.191406 L 204 111.191406 Z M 204 98.75 "/>
<path style=" stroke:none;fill-rule:nonzero;fill:rgb(0%,0%,0%);fill-opacity:1;" d="M 212.773438 107.148438 C 212.773438 106.386719 212.695312 105.292969 212.128906 104.335938 C 211.386719 103.105469 210.136719 102.96875 209.609375 102.96875 C 207.675781 102.96875 206.054688 104.824219 206.054688 107.148438 C 206.054688 109.53125 207.773438 111.367188 209.863281 111.367188 C 210.683594 111.367188 211.679688 111.132812 212.65625 110.429688 C 212.65625 110.351562 212.597656 109.785156 212.597656 109.765625 C 212.578125 109.746094 212.558594 109.335938 212.558594 109.277344 C 211.484375 110.175781 210.429688 110.292969 209.902344 110.292969 C 208.515625 110.292969 207.324219 109.0625 207.304688 107.148438 Z M 207.402344 106.191406 C 207.714844 104.980469 208.554688 104.042969 209.609375 104.042969 C 210.175781 104.042969 211.40625 104.296875 211.699219 106.191406 Z M 207.402344 106.191406 "/>
</g>
</svg>
