<?xml version="1.0"?>
<svg width="781" height="431" xmlns="http://www.w3.org/2000/svg" xmlns:svg="http://www.w3.org/2000/svg" xmlns:xlink="http://www.w3.org/1999/xlink" class="main-svg">
 <defs>
  <g id="svg_442" class="clips">
   <clipPath id="clipad940ax" class="axesclip">
    <rect id="svg_443" height="431" width="781" y="0" x="0"/>
   </clipPath>
   <clipPath id="clipad940ay" class="axesclip">
    <rect id="svg_444" height="431" width="781" y="0" x="0"/>
   </clipPath>
   <clipPath id="clipad940axy" class="axesclip">
    <rect id="svg_445" height="431" width="781" y="0" x="0"/>
   </clipPath>
  </g>
 </defs>
 <g>
  <title>Layer 1</title>
  <rect id="svg_446" fill="rgb(0, 0, 0)" fill-opacity="0" height="431" width="781" y="0" x="0"/>
  <g id="svg_447" class="draglayer">
   <g id="svg_448"/>
  </g>
  <g id="svg_449" class="subplot xy">
   <rect id="svg_450" stroke-width="0px" fill="rgb(0, 0, 0)" fill-opacity="0" height="431" width="781" y="2" x="1"/>
   <g id="svg_451">
    <path id="svg_452" stroke="rgb(238, 238, 238)" stroke-width="1px" d="m149.759995,2l0,431" class="xgrid crisp"/>
    <path id="svg_453" stroke="rgb(238, 238, 238)" stroke-width="1px" d="m447.290009,2l0,431" class="xgrid crisp"/>
    <path id="svg_454" stroke="rgb(238, 238, 238)" stroke-width="1px" d="m596.049988,2l0,431" class="xgrid crisp"/>
    <path id="svg_455" stroke="rgb(238, 238, 238)" stroke-width="1px" d="m744.809998,2l0,431" class="xgrid crisp"/>
    <path id="svg_456" stroke="rgb(238, 238, 238)" stroke-width="1px" d="m1,411.450012l781,0" class="ygrid crisp"/>
    <path id="svg_457" stroke="rgb(238, 238, 238)" stroke-width="1px" d="m1,248.119995l781,0" class="ygrid crisp"/>
    <path id="svg_458" stroke="rgb(238, 238, 238)" stroke-width="1px" d="m1,166.460007l781,0" class="ygrid crisp"/>
    <path id="svg_459" stroke="rgb(238, 238, 238)" stroke-width="1px" d="m1,84.800003l781,0" class="ygrid crisp"/>
    <path id="svg_460" stroke="rgb(238, 238, 238)" stroke-width="1px" d="m1,3.13l781,0" class="ygrid crisp"/>
   </g>
   <g id="svg_461"/>
   <g id="svg_462">
    <path id="svg_463" stroke="rgb(68, 68, 68)" stroke-width="2px" d="m298.519989,2l0,431" class="xzl zl crisp"/>
    <path id="svg_464" stroke="rgb(68, 68, 68)" stroke-width="2px" d="m1,329.790009l781,0" class="yzl zl crisp"/>
   </g>
   <g id="svg_465"/>
   <svg id="svg_466" viewBox="0 0 781 431" height="431" width="781" y="2" x="1" preserveAspectRatio="none">
    <g id="svg_467" class="maplayer"/>
    <g id="svg_468" class="barlayer"/>
    <g id="svg_469" class="errorlayer">
     <g id="svg_470" class="errorbars"/>
     <g id="svg_471" class="errorbars"/>
     <g id="svg_472" class="errorbars"/>
    </g>
    <g id="svg_473" class="boxlayer"/>
    <g id="svg_474" class="scatterlayer">
     <g id="svg_475" stroke-miterlimit="2" class="trace scatter">
      <path id="svg_476" fill="none" stroke="rgb(19, 27, 88)" stroke-width="6px" d="m0,164.460007l781,214.36998" class="js-line"/>
     </g>
     <g id="svg_477" stroke-miterlimit="2" class="trace scatter">
      <path id="svg_478" fill="none" stroke="rgb(0, 167, 141)" stroke-width="6px" d="m595.049988,409.450012l0,-387.900013" class="js-line"/>
     </g>
     <g id="svg_479" stroke-miterlimit="2" class="trace scatter">
      <path id="svg_480" fill="none" stroke="rgb(252, 185, 37)" stroke-width="6px" d="m0,246.119995l781,-214.359995" class="js-line"/>
     </g>
    </g>
   </svg>
   <g id="svg_481"/>
   <path id="svg_482" fill="none" stroke-width="1px" stroke="rgb(0, 0, 0)" stroke-opacity="0" d="m0,433.5l783,0" class="crisp"/>
   <path id="svg_483" fill="none" stroke="rgb(0, 0, 0)" stroke-opacity="0" stroke-width="1px" d="m0.5,1l0,432" class="crisp"/>
   <g id="svg_484"/>
   <g id="svg_485">
    <g id="svg_486" class="xtick">
     <text id="svg_487" font-family="&#x27;Droid Sans', sans-serif" font-size="28px" fill="rgb(68, 68, 68)" y="463" x="1" text-anchor="middle">−2</text>
    </g>
    <g id="svg_488" class="xtick">
     <text id="svg_489" font-family="&#x27;Droid Sans', sans-serif" font-size="28px" fill="rgb(68, 68, 68)" y="463" x="149.759995" text-anchor="middle">−1</text>
    </g>
    <g id="svg_490" class="xtick">
     <text id="svg_491" font-family="&#x27;Droid Sans', sans-serif" font-size="28px" fill="rgb(68, 68, 68)" y="463" x="298.519989" text-anchor="middle">0</text>
    </g>
    <g id="svg_492" class="xtick">
     <text id="svg_493" font-family="&#x27;Droid Sans', sans-serif" font-size="28px" fill="rgb(68, 68, 68)" y="463" x="447.290009" text-anchor="middle">1</text>
    </g>
    <g id="svg_494" class="xtick">
     <text id="svg_495" font-family="&#x27;Droid Sans', sans-serif" font-size="28px" fill="rgb(68, 68, 68)" y="463" x="596.049988" text-anchor="middle">2</text>
    </g>
    <g id="svg_496" class="xtick">
     <text id="svg_497" font-family="&#x27;Droid Sans', sans-serif" font-size="28px" fill="rgb(68, 68, 68)" y="463" x="744.809998" text-anchor="middle">3</text>
    </g>
   </g>
   <g id="svg_498">
    <g id="svg_499" class="ytick">
     <text id="svg_500" font-family="&#x27;Droid Sans', sans-serif" font-size="28px" fill="rgb(68, 68, 68)" y="425.450012" x="-1" text-anchor="end">−2</text>
    </g>
    <g id="svg_501" class="ytick">
     <text id="svg_502" font-family="&#x27;Droid Sans', sans-serif" font-size="28px" fill="rgb(68, 68, 68)" y="343.790009" x="-1" text-anchor="end">0</text>
    </g>
    <g id="svg_503" class="ytick">
     <text id="svg_504" font-family="&#x27;Droid Sans', sans-serif" font-size="28px" fill="rgb(68, 68, 68)" y="262.119995" x="-1" text-anchor="end">2</text>
    </g>
    <g id="svg_505" class="ytick">
     <text id="svg_506" font-family="&#x27;Droid Sans', sans-serif" font-size="28px" fill="rgb(68, 68, 68)" y="180.460007" x="-1" text-anchor="end">4</text>
    </g>
    <g id="svg_507" class="ytick">
     <text id="svg_508" font-family="&#x27;Droid Sans', sans-serif" font-size="28px" fill="rgb(68, 68, 68)" y="98.800003" x="-1" text-anchor="end">6</text>
    </g>
    <g id="svg_509" class="ytick">
     <text id="svg_510" font-family="&#x27;Droid Sans', sans-serif" font-size="28px" fill="rgb(68, 68, 68)" y="17.13" x="-1" text-anchor="end">8</text>
    </g>
   </g>
   <g id="svg_511"/>
  </g>
  <g id="svg_512" class="shapelayer"/>
  <g id="svg_513" class="pielayer"/>
  <g id="svg_514" class="glimages"/>
  <g id="svg_515" class="geoimages"/>
  <text id="svg_516" font-family="&#x27;Open Sans', Arial, sans-serif" font-size="12px" fill="rgb(68, 68, 68)" x="774" text-anchor="end" y="422" class="js-plot-link-container"/>
  <g id="svg_518" class="g-gtitle"/>
  <g id="svg_519" class="g-xtitle"/>
  <g id="svg_520" class="g-ytitle"/>
  <g transform="rotate(-16.1245 477 83.9675)" id="svg_521" class="annotation">
   <g transform="matrix(1.89431 0 0 1.89431 -41.5854 -218.659)" id="svg_45" class="annotation-text-g">
    <svg id="svg_522" height="30" width="124" y="144.755364" x="211.759658">
     <rect stroke="rgb(0, 0, 0)" id="svg_523" stroke-width="1px" stroke-opacity="0" fill="rgb(0, 0, 0)" fill-opacity="0" height="29" width="123" y="0.5" x="0.5" class="bg"/>
     <g id="svg_89" class="annotation-math-group">
      <svg id="svg_524" width="9.65ex" y="2" x="1" preserveAspectRatio="xMinYMin meet" height="2.179ex" class="annotation-math" viewBox="0 -705.8452691183917 4150 950.6905382367834" xmlns:xlink="http://www.w3.org/1999/xlink">
       <defs>
        <path d="m52,289q7,42 54,97t116,56q35,0 64,-18t43,-45q42,63 101,63q37,0 64,-22t28,-59q0,-29 -14,-47t-27,-22t-23,-4q-19,0 -31,11t-12,29q0,46 50,63q-11,13 -40,13q-13,0 -19,-2q-38,-16 -56,-66q-60,-221 -60,-258q0,-28 16,-40t35,-12q37,0 73,33t49,81q3,10 6,11t16,2l4,0q15,0 15,-8q0,-1 -2,-11q-16,-57 -62,-101t-107,-44q-70,0 -106,63q-41,-62 -94,-62l-6,0q-49,0 -70,26t-22,55q0,32 19,52t45,20q43,0 43,-42q0,-20 -12,-35t-23,-20t-13,-5l-3,-1q0,-1 6,-4t16,-7t19,-3q36,0 62,45q9,16 23,68t28,108t16,66q5,27 5,39q0,28 -15,40t-34,12q-40,0 -75,-32t-49,-82q-2,-9 -5,-10t-16,-2l-14,0q-6,6 -6,11z" stroke-width="10" id="svg_46"/>
        <path d="m21,287q0,14 15,48t48,71t74,36q41,0 66,-23t26,-64q-2,-19 -3,-21q0,-3 -16,-46t-33,-97t-16,-86q0,-43 14,-60t42,-18q23,0 43,11t31,23t27,33q0,1 5,20t14,59t19,74q38,150 42,157q13,27 43,27q13,0 21,-7t11,-12t2,-9q0,-13 -49,-210t-56,-216q-28,-83 -97,-132t-138,-50q-45,0 -79,22t-34,66q0,22 7,37t19,22t20,10t17,3q44,0 44,-42q0,-20 -12,-35t-23,-20t-13,-5l-3,-1q2,-5 19,-12t34,-7l8,0q17,0 26,2q33,9 61,38t43,62t23,56t8,30l-6,-4q-6,-4 -19,-11t-26,-12q-20,-5 -39,-5q-46,0 -81,22t-46,71q-1,7 -1,31q0,57 35,149t35,117q0,1 0,2q0,9 0,12t-4,7t-11,4l-4,0q-23,0 -42,-19t-30,-41t-17,-42t-8,-22q-2,-2 -16,-2l-14,0q-6,6 -6,9z" stroke-width="10" id="svg_50"/>
        <path d="m56,347q0,13 14,20l637,0q15,-8 15,-20q0,-11 -14,-19l-318,-1l-318,0q-16,5 -16,20zm0,-194q0,15 16,20l636,0q14,-10 14,-20q0,-13 -15,-20l-637,0q-14,7 -14,20z" stroke-width="10" id="svg_49"/>
        <path d="m109,429q-27,0 -43,18t-16,44q0,71 53,123t132,52q91,0 152,-56t62,-145q0,-43 -20,-82t-48,-68t-80,-74q-36,-31 -100,-92l-59,-56l76,-1q157,0 167,5q7,2 24,89l0,3l40,0l0,-3q-1,-3 -13,-91t-15,-92l0,-3l-371,0l0,19l0,12q0,7 6,15t30,35q29,32 50,56q9,10 34,37t34,37t29,33t28,34t23,30t21,32t15,29t13,32t7,30t3,33q0,63 -34,109t-97,46q-33,0 -58,-17t-35,-33t-10,-19q0,-1 5,-1q18,0 37,-14t19,-46q0,-25 -16,-42t-45,-18z" stroke-width="10" id="svg_48"/>
        <path d="m34,159q0,109 86,196t186,87q56,0 88,-24t33,-63q0,-29 -19,-49t-48,-21q-19,0 -30,10t-11,30t11,34t22,21t14,6l1,0q0,2 -6,6t-21,8t-34,4q-30,0 -57,-14q-21,-9 -43,-31q-44,-44 -64,-124t-21,-116q0,-46 26,-69q22,-24 58,-24l4,0q112,0 185,85q9,10 12,10q4,0 13,-9t10,-14t-9,-15t-29,-28t-45,-30t-64,-25t-80,-11q-75,0 -121,48t-47,122z" stroke-width="10" id="svg_88"/>
        <path d="m201,-11q-75,0 -121,49t-46,118q0,65 30,123t82,101q76,61 155,61q32,0 40,-1q13,-3 26,-7t35,-16t36,-30t26,-49t12,-70q0,-107 -86,-193t-189,-86zm-80,131q0,-50 26,-72t59,-22q44,0 83,32t62,84q9,21 23,74t14,92q0,44 -18,67q-24,30 -64,30q-63,0 -111,-58q-37,-44 -55,-117t-19,-110z" stroke-width="10" id="svg_87"/>
        <path d="m131,289q0,32 16,65t56,61t97,27q62,0 90,-27t29,-60q0,-32 -17,-47t-38,-16q-13,0 -24,8t-12,26q0,16 9,28t17,18t13,6q1,0 1,1q0,3 -7,9t-25,11t-39,6q-48,0 -70,-26t-23,-53q0,-25 19,-35t55,-17t52,-15q66,-29 66,-96q0,-28 -11,-56t-33,-56t-63,-44t-94,-17q-77,0 -109,29t-33,68q0,39 21,56t44,17q15,0 28,-9t14,-31q0,-26 -18,-44t-31,-18q-2,-1 -3,-1t-1,-2q1,-3 8,-8t31,-13t55,-7q36,0 62,11t38,28t17,31t5,25q0,28 -21,42t-48,17t-59,15t-47,35q-17,25 -17,58z" stroke-width="10" id="svg_86"/>
        <path d="m94,250q0,69 10,131t23,107t37,88t38,67t42,52t33,34t25,21l13,0l4,0q14,0 14,-9q0,-3 -17,-21t-41,-53t-49,-86t-42,-138t-17,-193t17,-192t41,-139t49,-86t42,-53t17,-21q0,-9 -15,-9l-3,0l-13,0l-28,24q-94,85 -137,212t-43,264z" stroke-width="10" id="svg_85"/>
        <path d="m127,463q-27,0 -42,17t-16,44q0,55 48,98t116,43q35,0 44,-1q74,-12 113,-53t40,-89q0,-52 -34,-101t-94,-71l-3,-2q0,-1 9,-3t29,-9t38,-21q82,-53 82,-140q0,-79 -62,-138t-157,-59q-80,0 -138,43t-58,109q0,28 18,45t45,18q28,0 46,-18t18,-45q0,-11 -3,-20t-7,-16t-11,-12t-12,-8t-10,-4t-8,-3l-4,-1q51,-45 124,-45q55,0 83,53q17,33 17,101l0,20q0,95 -64,127q-15,6 -61,7l-42,1l-3,2q-2,3 -2,16q0,18 8,18q28,0 58,5q34,5 62,42t28,112l0,8q0,57 -35,79q-22,14 -47,14q-32,0 -59,-11t-38,-23t-11,-12l3,0q3,-1 8,-2t10,-5t12,-7t10,-11t8,-15t3,-20q0,-22 -14,-39t-45,-18z" stroke-width="10" id="svg_84"/>
        <path d="m60,749l4,1q5,0 10,0l12,0l28,-24q94,-85 137,-212t43,-264q0,-68 -10,-131t-23,-107t-37,-88t-38,-67t-41,-51t-32,-33t-23,-19q-3,-3 -4,-4l-12,0q-8,0 -11,0t-5,3t-3,9q1,1 11,13q155,161 155,475t-155,475q-10,12 -11,13q0,8 5,11z" stroke-width="10" id="svg_83"/>
        <path d="m56,237t0,13t14,20l299,0l0,150l1,150q10,13 19,13q13,0 20,-15l0,-298l298,0q15,-8 15,-20t-15,-20l-298,0l0,-298q-8,-14 -18,-14l-2,0l-2,0q-12,0 -18,14l0,298l-299,0q-14,7 -14,20l0,-13z" stroke-width="10" id="svg_47"/>
        <path d="m213,578l-13,-5q-14,-5 -40,-10t-58,-7l-19,0l0,46l19,0q47,2 87,15t56,24t28,22q2,3 12,3q9,0 17,-6l0,-299l1,-300q7,-7 12,-9t24,-4t62,-2l26,0l0,-46l-11,0q-21,3 -159,3q-136,0 -157,-3l-12,0l0,46l26,0q22,0 38,0t25,1t16,3t8,2t6,5t6,4l0,517z" stroke-width="10" id="svg_82"/>
        <path d="m118,-162q2,0 6,-2t11,-3t12,-1q13,0 24,13t16,29q10,27 34,153t46,240t22,115l0,3l-47,0q-47,0 -50,2q-4,3 -4,10l7,28q2,5 8,5t47,1q48,0 48,1q0,2 9,50t12,58q37,165 146,165q37,-2 61,-22t24,-53q0,-36 -21,-52t-42,-17q-44,0 -44,42q0,19 11,33t24,21l9,5q-16,6 -30,6q-12,0 -23,-10t-15,-28q-7,-29 -16,-78t-16,-83t-7,-36q0,-2 55,-2q45,0 52,-1t11,-6q1,-4 -2,-17t-5,-16q-2,-5 -9,-5t-54,-1l-56,0l-23,-122q-48,-248 -67,-310q-27,-85 -70,-126q-37,-32 -73,-32q-32,0 -58,19t-26,54q0,37 21,54t42,17q44,0 44,-42q0,-19 -11,-33t-24,-21l-9,-5z" stroke-width="10" id="svg_81"/>
        <path d="m70,417t0,77t54,124t124,48q71,0 126,-42t55,-109q0,-30 -11,-56t-26,-42t-31,-28t-26,-18t-11,-8l14,-9q14,-10 28,-20t16,-11q75,-59 75,-149q0,-79 -58,-137t-150,-59q-90,0 -148,51t-58,126q0,108 129,180l-18,13q-21,13 -27,20q-57,49 -57,126l0,-77zm216,-31l6,4q6,4 9,6t10,7t12,10t11,12t11,13t10,16t9,17t5,20t2,22q0,43 -29,73t-67,38q-7,1 -33,1q-41,0 -77,-26t-37,-65q0,-23 13,-42t26,-29t50,-32q7,-5 11,-7l58,-38zm-36,-365q58,0 100,34t42,82q0,17 -5,32t-12,25t-22,22t-23,18t-29,19t-27,17q-14,9 -30,19t-26,17l-8,5q-6,0 -29,-17t-48,-55t-26,-82q0,-59 43,-97t100,-39z" stroke-width="10" id="svg_80"/>
        <path d="m78,60q0,24 17,42t43,18q24,0 42,-16t19,-43q0,-25 -17,-43t-43,-18t-43,17t-18,43z" stroke-width="10" id="svg_79"/>
        <path d="m84,237t0,13t14,20l581,0q15,-8 15,-20t-15,-20l-581,0q-14,7 -14,20l0,-13z" stroke-width="10" id="svg_78"/>
        <path d="m55,458q1,2 17,109l16,107q0,2 20,2l20,0l0,-4q0,-10 15,-17t52,-9t169,-2l121,0l0,-39l-68,-93q-9,-12 -30,-40t-27,-37t-21,-32t-20,-36t-14,-37t-13,-46t-8,-54t-6,-68t-3,-82q0,-14 0,-28t-1,-24l0,-9q-4,-17 -19,-29t-34,-12q-11,0 -21,3t-21,19t-11,40q0,158 97,328q20,32 84,121l46,63l-93,0q-174,0 -183,-6q-6,-3 -11,-24t-10,-43l-3,-21l0,-3l-40,0l0,3z" stroke-width="10" id="svg_77"/>
        <path d="m229,286q-13,134 -13,150q0,18 24,28q1,0 5,0t6,1q12,-1 22,-9t10,-20q0,-17 -6,-80t-7,-70l58,42q56,41 61,44t10,3q13,0 24,-10t12,-27q0,-13 -10,-23q-5,-3 -68,-33t-68,-32l66,-31l70,-35q9,-9 9,-23q0,-15 -9,-25t-24,-11q-8,0 -18,6t-55,40l-58,42q13,-134 13,-150q0,-10 -7,-19t-26,-9q-19,0 -26,9t-8,19q0,17 6,80t7,70l-58,-42q-56,-41 -61,-44q-4,-3 -10,-3q-13,0 -24,10t-12,27q0,5 0,8t3,6t5,6t9,7t13,7t19,9t25,11t32,15t40,20l-136,65q-9,9 -9,23q0,15 9,25t24,11q8,0 18,-6t55,-40l58,-42z" stroke-width="10" id="svg_76"/>
        <path d="m39,168q0,57 19,104t49,78t67,52t70,31t63,9l3,0q45,0 78,-22t33,-65q0,-90 -111,-118q-49,-13 -134,-14q-37,0 -38,-2q0,-2 -6,-35t-7,-58q0,-47 21,-74t63,-28t93,19t92,66q9,10 12,10q4,0 13,-9t10,-14t-9,-16t-30,-27t-46,-31t-63,-25t-76,-10q-79,0 -122,53t-44,126zm334,185q-6,52 -68,52q-33,0 -61,-14t-45,-34t-29,-41t-16,-36t-5,-19q0,-1 20,-1q113,0 158,24t46,69z" stroke-width="10" id="svg_75"/>
        <path d="m96,585q56,81 153,81q48,0 96,-26t78,-92q37,-83 37,-228q0,-155 -43,-237q-20,-42 -55,-67t-61,-31t-51,-7q-26,0 -52,6t-61,32t-55,67q-43,82 -43,237q0,174 57,265zm225,12q-30,32 -71,32q-42,0 -72,-32q-25,-26 -33,-72t-8,-192q0,-158 8,-208t36,-79q28,-30 69,-30q40,0 68,30q29,30 36,84t8,203q0,145 -8,191t-33,73z" stroke-width="10" id="svg_74"/>
        <path d="m132,622q-7,7 -11,9t-16,3t-43,3l-33,0l0,46l106,0q86,0 97,-1t17,-7q1,-1 105,-277l104,-274l104,274q104,276 106,277q3,6 15,7t98,1l106,0l0,-46l-33,0q-40,-1 -51,-3t-18,-12l0,-561q6,-10 17,-12t52,-3l33,0l0,-46l-11,0q-21,3 -140,3q-131,0 -140,-3l-11,0l0,46l33,0q42,1 51,3t19,12l0,286q0,77 0,114t0,85t0,67l-1,19q-233,-618 -237,-625q-4,-6 -20,-6t-20,6q-1,2 -118,309l-116,308l0,-18q-1,-18 -1,-63t0,-80t0,-107l1,-270q11,-36 85,-40l17,0l0,-46l-9,0q-15,3 -115,3q-102,0 -117,-3l-8,0l0,46l17,0q32,2 52,10t24,13t10,17l0,536z" stroke-width="10" id="svg_73"/>
        <path d="m347,338q-10,0 -53,11t-63,11q-20,0 -34,-4t-23,-10t-12,-11t-7,-11l-2,-4q-3,-3 -15,-3q-21,0 -21,8q0,5 3,14q13,39 43,67t66,34q12,2 17,2q25,0 45,-17t38,-33t38,-17q22,0 44,33t23,33q1,1 15,1l13,0q6,-6 6,-8q0,-4 -5,-14t-14,-21t-17,-22t-14,-19l-7,-9q-43,-51 -136,-135t-115,-108l-12,-12l15,-1q22,0 64,-11t63,-11q38,0 70,19t42,50q4,9 7,11t15,2q19,0 19,-10q0,-5 -1,-9q-17,-62 -66,-103t-98,-42q-26,0 -46,17t-39,34t-38,17q-44,0 -79,-60q-6,-8 -17,-8l-5,0l-13,0q-6,6 -6,9q0,15 58,86q39,45 132,130t115,108q12,16 7,16z" stroke-width="10" id="svg_72"/>
        <path d="m56,342q0,86 33,158t85,115t109,66t108,24q3,0 9,0t8,-1q91,0 161,-68l13,-12l30,39q27,37 31,41q1,0 4,0t6,1l4,0q3,0 9,-6l0,-280l-6,-6l-34,0q-6,6 -7,17q-9,82 -48,142t-95,79q-19,7 -50,7q-104,0 -174,-70q-79,-79 -79,-246q0,-121 38,-191q21,-40 52,-67t65,-39t56,-16t44,-5q89,0 143,69t55,151q0,7 6,13l28,0l6,-6l0,-15q-5,-103 -76,-180t-187,-77q-141,0 -244,104t-103,259z" stroke-width="10" id="svg_71"/>
        <path d="m117,59q0,-33 25,-33q37,0 63,105q6,20 10,21q2,1 10,1l4,0q9,0 12,0t5,-2t2,-7q-1,-6 -3,-16t-11,-38t-20,-47t-31,-37t-46,-17q-36,0 -67,22t-32,74q0,12 1,17l65,258q63,255 63,263q0,3 -1,5t-4,4t-5,2t-8,1t-8,1t-9,1t-10,0q-10,0 -13,0t-8,1t-6,3t-1,6q0,2 2,14q5,19 11,21t72,6q15,1 34,2t30,3t11,1q12,0 12,-8q0,-11 -73,-300t-75,-303q0,-2 0,-8t-1,-10l0,-6z" stroke-width="10" id="svg_70"/>
        <path d="m128,619q-7,7 -11,9t-16,3t-43,3l-33,0l0,46l572,0l0,-4q2,-6 14,-116t14,-116l0,-4l-40,0l0,4q-1,3 -3,21q-4,35 -12,61t-17,45t-25,30t-30,18t-41,10t-46,4t-58,1q-87,0 -102,-1t-18,-11q0,0 0,-1q-1,-2 -1,-124l0,-121l54,0q73,2 91,9q36,16 39,84q0,2 0,4l0,20l40,0l0,-280l-40,0l0,20q-1,35 -8,55t-25,29t-34,11t-52,2q-7,0 -11,0l-54,0l0,-134l0,-82q0,-57 5,-62q6,-5 52,-5l51,0l51,0q37,0 61,3t53,12t47,30t32,54q10,26 15,54t8,47t5,23l0,3l40,0l0,-3q-1,-3 -20,-133t-22,-134l0,-3l-585,0l0,46l33,0q42,1 51,3t19,12l0,558z" stroke-width="10" id="svg_69"/>
        <path d="m41,46l14,0q39,0 47,14l0,8q0,9 0,23t0,31t1,39t0,42q0,31 0,66t-1,59l0,23q-3,19 -14,25t-45,9l-18,0l0,23q0,23 2,23l10,1q10,1 28,2t37,2q17,1 36,2t29,3t11,1l3,0l0,-40q0,-38 1,-38t5,5t12,15t19,18t29,19t38,16q20,5 51,5q114,-4 127,-113q1,-7 1,-139l0,-86q0,-38 2,-45t11,-10q21,-3 49,-3l16,0l0,-46l-8,0l-24,1q-23,1 -50,1t-38,1q-103,0 -112,-3l-8,0l0,46l16,0q61,0 61,16q1,2 1,138q-1,135 -2,143q-6,28 -20,42t-24,17t-26,2q-45,0 -79,-34q-27,-27 -34,-55t-8,-83l0,-64l0,-60q0,-30 1,-40t3,-13t9,-6q21,-3 49,-3l16,0l0,-46l-8,0l-23,1q-24,1 -51,1t-38,1q-103,0 -112,-3l-8,0l0,46l16,0z" stroke-width="10" id="svg_68"/>
        <path stroke-width="10" id="svg_67"/>
        <path d="m128,619q-7,7 -11,9t-16,3t-43,3l-33,0l0,46l557,0l0,-4q2,-6 14,-116t14,-116l0,-4l-40,0l0,4q-7,49 -9,57q-6,37 -18,62t-27,38t-39,21t-46,9t-57,2l-40,0l-48,0q-34,0 -42,-2t-11,-10q-1,-2 -1,-131l0,-127l52,0q3,0 19,0t24,1t22,3t23,6t17,12q18,18 21,74l0,21l40,0l0,-280l-40,0l0,21q-3,55 -21,75q-8,7 -18,11t-23,6t-21,3t-24,1t-19,0l-52,0l0,-128l1,-128q7,-7 12,-9t25,-4t63,-2l27,0l0,-46l-12,0q-24,3 -166,3q-131,0 -146,-3l-11,0l0,46l33,0q42,1 51,3t19,12l0,558z" stroke-width="10" id="svg_66"/>
        <path d="m131,622q-7,7 -11,9t-16,3t-43,3l-33,0l0,46l201,0l38,0l79,0q77,0 113,-5t72,-27q43,-24 68,-61t25,-78q0,-51 -41,-93t-107,-59l-10,-3q73,-9 129,-55t56,-115q0,-68 -51,-120t-131,-64q-13,-2 -227,-3l-214,0l0,46l33,0q42,1 51,3t19,12l0,561zm380,-109q0,47 -26,81t-69,42q-1,0 -13,0t-32,0t-38,1q-67,0 -82,-1t-19,-8q-3,-4 -3,-129l0,-125l83,0l84,1l10,2q4,1 11,3t25,13t32,24t25,39t12,57zm26,-325q0,51 -28,94t-79,54l-101,1l-100,0l0,-137l0,-84q0,-59 5,-64q6,-5 100,-5l49,0q42,0 60,6q43,14 68,51t26,84z" stroke-width="10" id="svg_65"/>
        <path d="m328,0q-21,3 -148,3t-148,-3l-11,0l0,46l22,0q49,0 63,3t20,11q2,3 2,282q0,278 -2,281q-4,5 -8,7t-22,5t-53,2l-22,0l0,46l11,0q21,-3 148,-3t148,3l11,0l0,-46l-22,0q-49,0 -63,-3t-20,-11q-2,-3 -2,-281q0,-279 2,-282q4,-5 8,-7t22,-5t53,-2l22,0l0,-46l-11,0z" stroke-width="10" id="svg_64"/>
        <path d="m295,316q0,40 -27,69t-78,29q-36,0 -62,-13q-30,-19 -30,-52q-1,-5 0,-13t16,-24t43,-25q18,-5 44,-9t44,-9t32,-13q17,-8 33,-20t32,-41t17,-62q0,-62 -38,-102t-123,-41l-8,0q-52,0 -96,36l-8,-7l-9,-9q-6,-6 -12,-11l-11,-10l-8,0l-4,0q-3,0 -9,6l0,79l0,58q0,21 2,25t10,5l9,0q12,0 16,-4t5,-12t7,-27t19,-42q35,-51 97,-51q97,0 97,78q0,29 -18,47q-20,24 -83,36t-83,23q-36,17 -57,46t-21,62q0,39 17,66t43,40t50,18t44,5l11,0q40,0 70,-15l15,-8l9,7q10,9 22,17l8,0l4,0q3,0 9,-6l0,-132l-6,-6l-28,0q-6,6 -6,12z" stroke-width="10" id="svg_63"/>
        <path d="m27,422q53,4 82,56t32,122l0,15l40,0l0,-184l135,0l0,-46l-135,0l0,-144q1,-125 1,-141t7,-32q14,-39 49,-39q44,0 54,71q1,8 1,46l0,35l40,0l0,-35l0,-12q0,-77 -42,-117q-27,-27 -70,-27q-34,0 -59,12t-38,31t-19,35t-7,32q-1,7 -1,148l0,137l-79,0l0,37l9,0z" stroke-width="10" id="svg_62"/>
        <path d="m137,305t-22,0t-37,15t-15,39q0,35 34,62t121,27q73,0 118,-32t60,-76q5,-14 5,-31t1,-115l0,-70q0,-48 5,-66t21,-18q15,0 20,16t5,53l0,36l40,0l0,-39q-1,-40 -3,-47q-9,-30 -35,-47t-55,-18t-47,18t-24,42l0,4l-2,-3q-2,-3 -5,-6t-8,-9t-12,-11t-15,-12t-18,-11t-22,-8t-26,-6t-31,-3q-60,0 -108,31t-48,87q0,21 7,40t27,41t48,37t78,28t110,15l14,0l0,22q0,34 -6,50q-22,71 -97,71q-18,0 -34,-1t-25,-4t-8,-3q22,-15 22,-44q0,-25 -16,-39l-17,-15zm-11,-199q0,-31 24,-55t59,-25q38,0 67,23t39,60q2,7 3,66q0,58 -1,58q-8,0 -21,-1t-45,-9t-58,-20t-46,-37t-21,-60z" stroke-width="10" id="svg_61"/>
        <path d="m370,305t-21,0t-36,15t-16,38q0,23 15,38q5,5 5,6t-10,2q-26,4 -49,4q-49,0 -80,-32q-47,-47 -47,-157q0,-82 31,-129q41,-61 110,-61q41,0 66,26t36,62q2,8 5,10t16,2l14,0q6,-6 6,-9q0,-4 -4,-16t-16,-33t-29,-38t-48,-31t-69,-13q-86,0 -150,64t-65,161q0,104 65,169t151,65t120,-27t34,-64q0,-23 -17,-37l-17,-15z" stroke-width="10" id="svg_60"/>
        <path d="m69,609q0,28 18,44t44,16q23,-2 40,-17t17,-43q0,-30 -17,-45t-42,-15q-25,0 -42,15t-18,45zm178,-609q-15,3 -104,3q-11,0 -37,0t-50,-2l-22,-1l-8,0l0,46l16,0q28,0 49,3q9,4 11,11t2,42l0,103l0,88q0,52 -2,66t-14,19q-14,7 -47,7l-11,0l0,23q0,23 2,23l10,1q10,1 28,2t36,2q17,1 36,2t29,3t11,1l3,0l0,-380q5,-10 12,-12t35,-4l23,0l0,-46l-8,0z" stroke-width="10" id="svg_59"/>
        <path d="m28,214q0,95 65,164t157,70q90,0 155,-68t66,-165q0,-95 -64,-160t-157,-65q-97,0 -159,67t-63,157zm222,-184q122,0 122,163l0,32l0,25q0,22 -1,38t-7,38t-16,36t-31,28t-49,20q-5,1 -16,1q-30,0 -57,-12q-43,-22 -56,-61t-13,-92l0,-20q0,-96 19,-135q32,-61 105,-61z" stroke-width="10" id="svg_58"/>
        <path d="m42,46l14,0q39,0 47,14l0,8q0,9 0,23t0,33t1,43t0,50t0,55t0,57q0,37 0,78t0,75t0,60t-1,44t0,17q-3,19 -14,25t-45,9l-18,0l0,23q0,23 2,23l10,1q10,1 29,2t37,2q17,1 37,2t30,3t11,1l3,0l0,-315q0,-317 1,-319q4,-8 12,-11q21,-3 49,-3l16,0l0,-46l-8,0l-23,1q-23,1 -49,1t-38,1t-38,0t-50,-2l-23,-1l-8,0l0,46l16,0z" stroke-width="10" id="svg_57"/>
        <path d="m128,622q-7,7 -11,9t-16,3t-43,3l-33,0l0,46l11,0q21,-3 144,-3q135,0 144,3l11,0l0,-46l-33,0q-40,-1 -51,-3t-18,-12l-1,-122l0,-122l285,0l0,244q-7,7 -11,9t-16,3t-43,3l-33,0l0,46l11,0q21,-3 144,-3q135,0 144,3l11,0l0,-46l-33,0q-40,-1 -51,-3t-18,-12l0,-561q6,-10 17,-12t52,-3l33,0l0,-46l-11,0q-21,3 -144,3q-135,0 -144,-3l-11,0l0,46l33,0q42,1 51,3t19,12l0,271l-285,0l0,-135l1,-136q6,-10 17,-12t52,-3l33,0l0,-46l-11,0q-21,3 -144,3q-135,0 -144,-3l-11,0l0,46l33,0q42,1 51,3t19,12l0,561z" stroke-width="10" id="svg_56"/>
        <path d="m11,179l0,73l266,0l0,-73l-266,0z" stroke-width="10" id="svg_55"/>
        <path d="m55,507q0,83 57,140t131,57l14,0q85,0 148,-63l21,31q5,7 10,15t10,13l3,4q1,0 4,0t6,1l4,0q3,0 9,-6l0,-237l-6,-6l-18,0q-11,0 -13,3t-5,20q-17,126 -101,167q-37,16 -75,16q-53,0 -86,-36t-33,-84q0,-34 17,-62t48,-45q10,-4 86,-23t84,-23q57,-22 93,-75t37,-123q0,-81 -52,-146t-147,-66q-56,0 -100,17t-61,31l-18,14q-4,-5 -15,-20t-20,-28t-9,-14q-2,-1 -10,-1l-4,0q-3,0 -9,6l0,117q0,119 1,121q2,5 20,5l13,0q6,-6 6,-13q0,-32 10,-63t34,-61t66,-48t100,-18q47,0 81,38t34,93q0,43 -22,78t-58,48q-56,14 -74,19q-5,1 -27,6t-33,8t-32,11t-33,18t-29,24t-27,35q-30,49 -30,105z" stroke-width="10" id="svg_54"/>
        <path d="m130,622q-7,7 -11,9t-16,3t-43,3l-33,0l0,46l187,0q23,0 62,0t55,1q88,0 140,-13t96,-55q57,-53 57,-127q0,-68 -51,-117t-122,-65q-22,-5 -123,-6l-94,0l0,-120q0,-119 3,-123q8,-11 67,-12l33,0l0,-46l-11,0q-21,3 -144,3q-135,0 -144,-3l-11,0l0,46l33,0q42,1 51,3t19,12l0,561zm377,-134q0,26 -1,40t-6,36t-17,33t-33,23t-53,15q-12,2 -90,2l-21,0q-49,0 -52,-9q-3,-4 -3,-145l0,-141l71,0l37,0q51,0 84,7t58,33q26,29 26,106z" stroke-width="10" id="svg_53"/>
        <path d="m740,435q0,-115 -64,-222t-165,-171t-207,-64q-97,0 -166,57t-87,166q-1,8 -1,43q0,102 48,194t129,163q124,103 249,103q38,0 48,-1q97,-14 156,-86t60,-182zm-103,41q0,89 -46,139t-115,50q-80,0 -154,-60q-80,-63 -122,-177t-43,-212q0,-90 43,-143t114,-54q90,0 171,79t123,215q29,95 29,163z" stroke-width="10" id="svg_52"/>
        <path d="m208,74q0,-24 46,-28q18,0 18,-11q0,-1 -2,-13q-3,-14 -6,-18t-13,-4q-2,0 -12,0t-34,1t-64,1q-71,0 -91,-2l-8,0q-7,7 -7,11q2,27 13,35l14,0q70,3 102,50q6,6 181,305t178,303q7,12 24,12l8,0l17,0q6,-9 6,-10l28,-323q28,-323 30,-326q5,-11 65,-11q25,0 25,-10q0,-2 -3,-14q-3,-15 -5,-18t-14,-4q-3,0 -14,0t-39,1t-73,1q-94,0 -123,-2l-12,0q-6,6 -6,9t2,18q4,13 6,16l4,3l20,0q54,3 64,17l-12,150l-238,0l-34,-58q-41,-69 -41,-81zm308,186q0,11 -12,156t-14,146l-27,-43q-16,-27 -63,-107l-90,-152l103,-1q103,0 103,1z" stroke-width="10" id="svg_51"/>
       </defs>
       <g stroke="rgb(68, 68, 68)" id="svg_525" transform="matrix(1 0 0 -1 0 0)" stroke-width="0" fill="rgb(68, 68, 68)">
        <use id="svg_526" xlink:href="#svg_50"/>
        <use id="svg_527" y="0" x="779" xlink:href="#svg_49"/>
        <use id="svg_528" y="0" x="1840" xlink:href="#svg_48"/>
        <use id="svg_529" y="0" x="2567" xlink:href="#svg_47"/>
        <use id="svg_530" y="0" x="3573" xlink:href="#svg_46"/>
       </g>
      </svg>
     </g>
    </svg>
   </g>
  </g>
  <g transform="rotate(16.8538 240.5 283.378)" id="svg_531" class="annotation">
   <g transform="matrix(1.85366 0 0 1.85366 -39.6951 -111.402)" id="svg_133" class="annotation-text-g">
    <svg id="svg_532" height="30" width="124" y="197.973683" x="89.157894">
     <rect stroke="rgb(0, 0, 0)" id="svg_533" stroke-width="1px" stroke-opacity="0" fill="rgb(0, 0, 0)" fill-opacity="0" height="29" width="123" y="0.5" x="0.5" class="bg"/>
     <g id="svg_177" class="annotation-math-group">
      <svg id="svg_534" width="9.65ex" y="2" x="1" preserveAspectRatio="xMinYMin meet" height="2.179ex" class="annotation-math" viewBox="0 -705.8452691183917 4150 950.6905382367834" xmlns:xlink="http://www.w3.org/1999/xlink">
       <defs>
        <path d="m52,289q7,42 54,97t116,56q35,0 64,-18t43,-45q42,63 101,63q37,0 64,-22t28,-59q0,-29 -14,-47t-27,-22t-23,-4q-19,0 -31,11t-12,29q0,46 50,63q-11,13 -40,13q-13,0 -19,-2q-38,-16 -56,-66q-60,-221 -60,-258q0,-28 16,-40t35,-12q37,0 73,33t49,81q3,10 6,11t16,2l4,0q15,0 15,-8q0,-1 -2,-11q-16,-57 -62,-101t-107,-44q-70,0 -106,63q-41,-62 -94,-62l-6,0q-49,0 -70,26t-22,55q0,32 19,52t45,20q43,0 43,-42q0,-20 -12,-35t-23,-20t-13,-5l-3,-1q0,-1 6,-4t16,-7t19,-3q36,0 62,45q9,16 23,68t28,108t16,66q5,27 5,39q0,28 -15,40t-34,12q-40,0 -75,-32t-49,-82q-2,-9 -5,-10t-16,-2l-14,0q-6,6 -6,11z" stroke-width="10" id="svg_134"/>
        <path d="m21,287q0,14 15,48t48,71t74,36q41,0 66,-23t26,-64q-2,-19 -3,-21q0,-3 -16,-46t-33,-97t-16,-86q0,-43 14,-60t42,-18q23,0 43,11t31,23t27,33q0,1 5,20t14,59t19,74q38,150 42,157q13,27 43,27q13,0 21,-7t11,-12t2,-9q0,-13 -49,-210t-56,-216q-28,-83 -97,-132t-138,-50q-45,0 -79,22t-34,66q0,22 7,37t19,22t20,10t17,3q44,0 44,-42q0,-20 -12,-35t-23,-20t-13,-5l-3,-1q2,-5 19,-12t34,-7l8,0q17,0 26,2q33,9 61,38t43,62t23,56t8,30l-6,-4q-6,-4 -19,-11t-26,-12q-20,-5 -39,-5q-46,0 -81,22t-46,71q-1,7 -1,31q0,57 35,149t35,117q0,1 0,2q0,9 0,12t-4,7t-11,4l-4,0q-23,0 -42,-19t-30,-41t-17,-42t-8,-22q-2,-2 -16,-2l-14,0q-6,6 -6,9z" stroke-width="10" id="svg_138"/>
        <path d="m56,347q0,13 14,20l637,0q15,-8 15,-20q0,-11 -14,-19l-318,-1l-318,0q-16,5 -16,20zm0,-194q0,15 16,20l636,0q14,-10 14,-20q0,-13 -15,-20l-637,0q-14,7 -14,20z" stroke-width="10" id="svg_137"/>
        <path d="m109,429q-27,0 -43,18t-16,44q0,71 53,123t132,52q91,0 152,-56t62,-145q0,-43 -20,-82t-48,-68t-80,-74q-36,-31 -100,-92l-59,-56l76,-1q157,0 167,5q7,2 24,89l0,3l40,0l0,-3q-1,-3 -13,-91t-15,-92l0,-3l-371,0l0,19l0,12q0,7 6,15t30,35q29,32 50,56q9,10 34,37t34,37t29,33t28,34t23,30t21,32t15,29t13,32t7,30t3,33q0,63 -34,109t-97,46q-33,0 -58,-17t-35,-33t-10,-19q0,-1 5,-1q18,0 37,-14t19,-46q0,-25 -16,-42t-45,-18z" stroke-width="10" id="svg_136"/>
        <path d="m34,159q0,109 86,196t186,87q56,0 88,-24t33,-63q0,-29 -19,-49t-48,-21q-19,0 -30,10t-11,30t11,34t22,21t14,6l1,0q0,2 -6,6t-21,8t-34,4q-30,0 -57,-14q-21,-9 -43,-31q-44,-44 -64,-124t-21,-116q0,-46 26,-69q22,-24 58,-24l4,0q112,0 185,85q9,10 12,10q4,0 13,-9t10,-14t-9,-15t-29,-28t-45,-30t-64,-25t-80,-11q-75,0 -121,48t-47,122z" stroke-width="10" id="svg_176"/>
        <path d="m201,-11q-75,0 -121,49t-46,118q0,65 30,123t82,101q76,61 155,61q32,0 40,-1q13,-3 26,-7t35,-16t36,-30t26,-49t12,-70q0,-107 -86,-193t-189,-86zm-80,131q0,-50 26,-72t59,-22q44,0 83,32t62,84q9,21 23,74t14,92q0,44 -18,67q-24,30 -64,30q-63,0 -111,-58q-37,-44 -55,-117t-19,-110z" stroke-width="10" id="svg_175"/>
        <path d="m131,289q0,32 16,65t56,61t97,27q62,0 90,-27t29,-60q0,-32 -17,-47t-38,-16q-13,0 -24,8t-12,26q0,16 9,28t17,18t13,6q1,0 1,1q0,3 -7,9t-25,11t-39,6q-48,0 -70,-26t-23,-53q0,-25 19,-35t55,-17t52,-15q66,-29 66,-96q0,-28 -11,-56t-33,-56t-63,-44t-94,-17q-77,0 -109,29t-33,68q0,39 21,56t44,17q15,0 28,-9t14,-31q0,-26 -18,-44t-31,-18q-2,-1 -3,-1t-1,-2q1,-3 8,-8t31,-13t55,-7q36,0 62,11t38,28t17,31t5,25q0,28 -21,42t-48,17t-59,15t-47,35q-17,25 -17,58z" stroke-width="10" id="svg_174"/>
        <path d="m94,250q0,69 10,131t23,107t37,88t38,67t42,52t33,34t25,21l13,0l4,0q14,0 14,-9q0,-3 -17,-21t-41,-53t-49,-86t-42,-138t-17,-193t17,-192t41,-139t49,-86t42,-53t17,-21q0,-9 -15,-9l-3,0l-13,0l-28,24q-94,85 -137,212t-43,264z" stroke-width="10" id="svg_173"/>
        <path d="m127,463q-27,0 -42,17t-16,44q0,55 48,98t116,43q35,0 44,-1q74,-12 113,-53t40,-89q0,-52 -34,-101t-94,-71l-3,-2q0,-1 9,-3t29,-9t38,-21q82,-53 82,-140q0,-79 -62,-138t-157,-59q-80,0 -138,43t-58,109q0,28 18,45t45,18q28,0 46,-18t18,-45q0,-11 -3,-20t-7,-16t-11,-12t-12,-8t-10,-4t-8,-3l-4,-1q51,-45 124,-45q55,0 83,53q17,33 17,101l0,20q0,95 -64,127q-15,6 -61,7l-42,1l-3,2q-2,3 -2,16q0,18 8,18q28,0 58,5q34,5 62,42t28,112l0,8q0,57 -35,79q-22,14 -47,14q-32,0 -59,-11t-38,-23t-11,-12l3,0q3,-1 8,-2t10,-5t12,-7t10,-11t8,-15t3,-20q0,-22 -14,-39t-45,-18z" stroke-width="10" id="svg_172"/>
        <path d="m60,749l4,1q5,0 10,0l12,0l28,-24q94,-85 137,-212t43,-264q0,-68 -10,-131t-23,-107t-37,-88t-38,-67t-41,-51t-32,-33t-23,-19q-3,-3 -4,-4l-12,0q-8,0 -11,0t-5,3t-3,9q1,1 11,13q155,161 155,475t-155,475q-10,12 -11,13q0,8 5,11z" stroke-width="10" id="svg_171"/>
        <path d="m56,237t0,13t14,20l299,0l0,150l1,150q10,13 19,13q13,0 20,-15l0,-298l298,0q15,-8 15,-20t-15,-20l-298,0l0,-298q-8,-14 -18,-14l-2,0l-2,0q-12,0 -18,14l0,298l-299,0q-14,7 -14,20l0,-13z" stroke-width="10" id="svg_170"/>
        <path d="m213,578l-13,-5q-14,-5 -40,-10t-58,-7l-19,0l0,46l19,0q47,2 87,15t56,24t28,22q2,3 12,3q9,0 17,-6l0,-299l1,-300q7,-7 12,-9t24,-4t62,-2l26,0l0,-46l-11,0q-21,3 -159,3q-136,0 -157,-3l-12,0l0,46l26,0q22,0 38,0t25,1t16,3t8,2t6,5t6,4l0,517z" stroke-width="10" id="svg_169"/>
        <path d="m118,-162q2,0 6,-2t11,-3t12,-1q13,0 24,13t16,29q10,27 34,153t46,240t22,115l0,3l-47,0q-47,0 -50,2q-4,3 -4,10l7,28q2,5 8,5t47,1q48,0 48,1q0,2 9,50t12,58q37,165 146,165q37,-2 61,-22t24,-53q0,-36 -21,-52t-42,-17q-44,0 -44,42q0,19 11,33t24,21l9,5q-16,6 -30,6q-12,0 -23,-10t-15,-28q-7,-29 -16,-78t-16,-83t-7,-36q0,-2 55,-2q45,0 52,-1t11,-6q1,-4 -2,-17t-5,-16q-2,-5 -9,-5t-54,-1l-56,0l-23,-122q-48,-248 -67,-310q-27,-85 -70,-126q-37,-32 -73,-32q-32,0 -58,19t-26,54q0,37 21,54t42,17q44,0 44,-42q0,-19 -11,-33t-24,-21l-9,-5z" stroke-width="10" id="svg_168"/>
        <path d="m70,417t0,77t54,124t124,48q71,0 126,-42t55,-109q0,-30 -11,-56t-26,-42t-31,-28t-26,-18t-11,-8l14,-9q14,-10 28,-20t16,-11q75,-59 75,-149q0,-79 -58,-137t-150,-59q-90,0 -148,51t-58,126q0,108 129,180l-18,13q-21,13 -27,20q-57,49 -57,126l0,-77zm216,-31l6,4q6,4 9,6t10,7t12,10t11,12t11,13t10,16t9,17t5,20t2,22q0,43 -29,73t-67,38q-7,1 -33,1q-41,0 -77,-26t-37,-65q0,-23 13,-42t26,-29t50,-32q7,-5 11,-7l58,-38zm-36,-365q58,0 100,34t42,82q0,17 -5,32t-12,25t-22,22t-23,18t-29,19t-27,17q-14,9 -30,19t-26,17l-8,5q-6,0 -29,-17t-48,-55t-26,-82q0,-59 43,-97t100,-39z" stroke-width="10" id="svg_167"/>
        <path d="m78,60q0,24 17,42t43,18q24,0 42,-16t19,-43q0,-25 -17,-43t-43,-18t-43,17t-18,43z" stroke-width="10" id="svg_166"/>
        <path d="m84,237t0,13t14,20l581,0q15,-8 15,-20t-15,-20l-581,0q-14,7 -14,20l0,-13z" stroke-width="10" id="svg_135"/>
        <path d="m55,458q1,2 17,109l16,107q0,2 20,2l20,0l0,-4q0,-10 15,-17t52,-9t169,-2l121,0l0,-39l-68,-93q-9,-12 -30,-40t-27,-37t-21,-32t-20,-36t-14,-37t-13,-46t-8,-54t-6,-68t-3,-82q0,-14 0,-28t-1,-24l0,-9q-4,-17 -19,-29t-34,-12q-11,0 -21,3t-21,19t-11,40q0,158 97,328q20,32 84,121l46,63l-93,0q-174,0 -183,-6q-6,-3 -11,-24t-10,-43l-3,-21l0,-3l-40,0l0,3z" stroke-width="10" id="svg_165"/>
        <path d="m229,286q-13,134 -13,150q0,18 24,28q1,0 5,0t6,1q12,-1 22,-9t10,-20q0,-17 -6,-80t-7,-70l58,42q56,41 61,44t10,3q13,0 24,-10t12,-27q0,-13 -10,-23q-5,-3 -68,-33t-68,-32l66,-31l70,-35q9,-9 9,-23q0,-15 -9,-25t-24,-11q-8,0 -18,6t-55,40l-58,42q13,-134 13,-150q0,-10 -7,-19t-26,-9q-19,0 -26,9t-8,19q0,17 6,80t7,70l-58,-42q-56,-41 -61,-44q-4,-3 -10,-3q-13,0 -24,10t-12,27q0,5 0,8t3,6t5,6t9,7t13,7t19,9t25,11t32,15t40,20l-136,65q-9,9 -9,23q0,15 9,25t24,11q8,0 18,-6t55,-40l58,-42z" stroke-width="10" id="svg_164"/>
        <path d="m39,168q0,57 19,104t49,78t67,52t70,31t63,9l3,0q45,0 78,-22t33,-65q0,-90 -111,-118q-49,-13 -134,-14q-37,0 -38,-2q0,-2 -6,-35t-7,-58q0,-47 21,-74t63,-28t93,19t92,66q9,10 12,10q4,0 13,-9t10,-14t-9,-16t-30,-27t-46,-31t-63,-25t-76,-10q-79,0 -122,53t-44,126zm334,185q-6,52 -68,52q-33,0 -61,-14t-45,-34t-29,-41t-16,-36t-5,-19q0,-1 20,-1q113,0 158,24t46,69z" stroke-width="10" id="svg_163"/>
        <path d="m96,585q56,81 153,81q48,0 96,-26t78,-92q37,-83 37,-228q0,-155 -43,-237q-20,-42 -55,-67t-61,-31t-51,-7q-26,0 -52,6t-61,32t-55,67q-43,82 -43,237q0,174 57,265zm225,12q-30,32 -71,32q-42,0 -72,-32q-25,-26 -33,-72t-8,-192q0,-158 8,-208t36,-79q28,-30 69,-30q40,0 68,30q29,30 36,84t8,203q0,145 -8,191t-33,73z" stroke-width="10" id="svg_162"/>
        <path d="m132,622q-7,7 -11,9t-16,3t-43,3l-33,0l0,46l106,0q86,0 97,-1t17,-7q1,-1 105,-277l104,-274l104,274q104,276 106,277q3,6 15,7t98,1l106,0l0,-46l-33,0q-40,-1 -51,-3t-18,-12l0,-561q6,-10 17,-12t52,-3l33,0l0,-46l-11,0q-21,3 -140,3q-131,0 -140,-3l-11,0l0,46l33,0q42,1 51,3t19,12l0,286q0,77 0,114t0,85t0,67l-1,19q-233,-618 -237,-625q-4,-6 -20,-6t-20,6q-1,2 -118,309l-116,308l0,-18q-1,-18 -1,-63t0,-80t0,-107l1,-270q11,-36 85,-40l17,0l0,-46l-9,0q-15,3 -115,3q-102,0 -117,-3l-8,0l0,46l17,0q32,2 52,10t24,13t10,17l0,536z" stroke-width="10" id="svg_161"/>
        <path d="m347,338q-10,0 -53,11t-63,11q-20,0 -34,-4t-23,-10t-12,-11t-7,-11l-2,-4q-3,-3 -15,-3q-21,0 -21,8q0,5 3,14q13,39 43,67t66,34q12,2 17,2q25,0 45,-17t38,-33t38,-17q22,0 44,33t23,33q1,1 15,1l13,0q6,-6 6,-8q0,-4 -5,-14t-14,-21t-17,-22t-14,-19l-7,-9q-43,-51 -136,-135t-115,-108l-12,-12l15,-1q22,0 64,-11t63,-11q38,0 70,19t42,50q4,9 7,11t15,2q19,0 19,-10q0,-5 -1,-9q-17,-62 -66,-103t-98,-42q-26,0 -46,17t-39,34t-38,17q-44,0 -79,-60q-6,-8 -17,-8l-5,0l-13,0q-6,6 -6,9q0,15 58,86q39,45 132,130t115,108q12,16 7,16z" stroke-width="10" id="svg_160"/>
        <path d="m56,342q0,86 33,158t85,115t109,66t108,24q3,0 9,0t8,-1q91,0 161,-68l13,-12l30,39q27,37 31,41q1,0 4,0t6,1l4,0q3,0 9,-6l0,-280l-6,-6l-34,0q-6,6 -7,17q-9,82 -48,142t-95,79q-19,7 -50,7q-104,0 -174,-70q-79,-79 -79,-246q0,-121 38,-191q21,-40 52,-67t65,-39t56,-16t44,-5q89,0 143,69t55,151q0,7 6,13l28,0l6,-6l0,-15q-5,-103 -76,-180t-187,-77q-141,0 -244,104t-103,259z" stroke-width="10" id="svg_159"/>
        <path d="m117,59q0,-33 25,-33q37,0 63,105q6,20 10,21q2,1 10,1l4,0q9,0 12,0t5,-2t2,-7q-1,-6 -3,-16t-11,-38t-20,-47t-31,-37t-46,-17q-36,0 -67,22t-32,74q0,12 1,17l65,258q63,255 63,263q0,3 -1,5t-4,4t-5,2t-8,1t-8,1t-9,1t-10,0q-10,0 -13,0t-8,1t-6,3t-1,6q0,2 2,14q5,19 11,21t72,6q15,1 34,2t30,3t11,1q12,0 12,-8q0,-11 -73,-300t-75,-303q0,-2 0,-8t-1,-10l0,-6z" stroke-width="10" id="svg_158"/>
        <path d="m128,619q-7,7 -11,9t-16,3t-43,3l-33,0l0,46l572,0l0,-4q2,-6 14,-116t14,-116l0,-4l-40,0l0,4q-1,3 -3,21q-4,35 -12,61t-17,45t-25,30t-30,18t-41,10t-46,4t-58,1q-87,0 -102,-1t-18,-11q0,0 0,-1q-1,-2 -1,-124l0,-121l54,0q73,2 91,9q36,16 39,84q0,2 0,4l0,20l40,0l0,-280l-40,0l0,20q-1,35 -8,55t-25,29t-34,11t-52,2q-7,0 -11,0l-54,0l0,-134l0,-82q0,-57 5,-62q6,-5 52,-5l51,0l51,0q37,0 61,3t53,12t47,30t32,54q10,26 15,54t8,47t5,23l0,3l40,0l0,-3q-1,-3 -20,-133t-22,-134l0,-3l-585,0l0,46l33,0q42,1 51,3t19,12l0,558z" stroke-width="10" id="svg_157"/>
        <path d="m41,46l14,0q39,0 47,14l0,8q0,9 0,23t0,31t1,39t0,42q0,31 0,66t-1,59l0,23q-3,19 -14,25t-45,9l-18,0l0,23q0,23 2,23l10,1q10,1 28,2t37,2q17,1 36,2t29,3t11,1l3,0l0,-40q0,-38 1,-38t5,5t12,15t19,18t29,19t38,16q20,5 51,5q114,-4 127,-113q1,-7 1,-139l0,-86q0,-38 2,-45t11,-10q21,-3 49,-3l16,0l0,-46l-8,0l-24,1q-23,1 -50,1t-38,1q-103,0 -112,-3l-8,0l0,46l16,0q61,0 61,16q1,2 1,138q-1,135 -2,143q-6,28 -20,42t-24,17t-26,2q-45,0 -79,-34q-27,-27 -34,-55t-8,-83l0,-64l0,-60q0,-30 1,-40t3,-13t9,-6q21,-3 49,-3l16,0l0,-46l-8,0l-23,1q-24,1 -51,1t-38,1q-103,0 -112,-3l-8,0l0,46l16,0z" stroke-width="10" id="svg_156"/>
        <path stroke-width="10" id="svg_155"/>
        <path d="m128,619q-7,7 -11,9t-16,3t-43,3l-33,0l0,46l557,0l0,-4q2,-6 14,-116t14,-116l0,-4l-40,0l0,4q-7,49 -9,57q-6,37 -18,62t-27,38t-39,21t-46,9t-57,2l-40,0l-48,0q-34,0 -42,-2t-11,-10q-1,-2 -1,-131l0,-127l52,0q3,0 19,0t24,1t22,3t23,6t17,12q18,18 21,74l0,21l40,0l0,-280l-40,0l0,21q-3,55 -21,75q-8,7 -18,11t-23,6t-21,3t-24,1t-19,0l-52,0l0,-128l1,-128q7,-7 12,-9t25,-4t63,-2l27,0l0,-46l-12,0q-24,3 -166,3q-131,0 -146,-3l-11,0l0,46l33,0q42,1 51,3t19,12l0,558z" stroke-width="10" id="svg_154"/>
        <path d="m131,622q-7,7 -11,9t-16,3t-43,3l-33,0l0,46l201,0l38,0l79,0q77,0 113,-5t72,-27q43,-24 68,-61t25,-78q0,-51 -41,-93t-107,-59l-10,-3q73,-9 129,-55t56,-115q0,-68 -51,-120t-131,-64q-13,-2 -227,-3l-214,0l0,46l33,0q42,1 51,3t19,12l0,561zm380,-109q0,47 -26,81t-69,42q-1,0 -13,0t-32,0t-38,1q-67,0 -82,-1t-19,-8q-3,-4 -3,-129l0,-125l83,0l84,1l10,2q4,1 11,3t25,13t32,24t25,39t12,57zm26,-325q0,51 -28,94t-79,54l-101,1l-100,0l0,-137l0,-84q0,-59 5,-64q6,-5 100,-5l49,0q42,0 60,6q43,14 68,51t26,84z" stroke-width="10" id="svg_153"/>
        <path d="m328,0q-21,3 -148,3t-148,-3l-11,0l0,46l22,0q49,0 63,3t20,11q2,3 2,282q0,278 -2,281q-4,5 -8,7t-22,5t-53,2l-22,0l0,46l11,0q21,-3 148,-3t148,3l11,0l0,-46l-22,0q-49,0 -63,-3t-20,-11q-2,-3 -2,-281q0,-279 2,-282q4,-5 8,-7t22,-5t53,-2l22,0l0,-46l-11,0z" stroke-width="10" id="svg_152"/>
        <path d="m295,316q0,40 -27,69t-78,29q-36,0 -62,-13q-30,-19 -30,-52q-1,-5 0,-13t16,-24t43,-25q18,-5 44,-9t44,-9t32,-13q17,-8 33,-20t32,-41t17,-62q0,-62 -38,-102t-123,-41l-8,0q-52,0 -96,36l-8,-7l-9,-9q-6,-6 -12,-11l-11,-10l-8,0l-4,0q-3,0 -9,6l0,79l0,58q0,21 2,25t10,5l9,0q12,0 16,-4t5,-12t7,-27t19,-42q35,-51 97,-51q97,0 97,78q0,29 -18,47q-20,24 -83,36t-83,23q-36,17 -57,46t-21,62q0,39 17,66t43,40t50,18t44,5l11,0q40,0 70,-15l15,-8l9,7q10,9 22,17l8,0l4,0q3,0 9,-6l0,-132l-6,-6l-28,0q-6,6 -6,12z" stroke-width="10" id="svg_151"/>
        <path d="m27,422q53,4 82,56t32,122l0,15l40,0l0,-184l135,0l0,-46l-135,0l0,-144q1,-125 1,-141t7,-32q14,-39 49,-39q44,0 54,71q1,8 1,46l0,35l40,0l0,-35l0,-12q0,-77 -42,-117q-27,-27 -70,-27q-34,0 -59,12t-38,31t-19,35t-7,32q-1,7 -1,148l0,137l-79,0l0,37l9,0z" stroke-width="10" id="svg_150"/>
        <path d="m137,305t-22,0t-37,15t-15,39q0,35 34,62t121,27q73,0 118,-32t60,-76q5,-14 5,-31t1,-115l0,-70q0,-48 5,-66t21,-18q15,0 20,16t5,53l0,36l40,0l0,-39q-1,-40 -3,-47q-9,-30 -35,-47t-55,-18t-47,18t-24,42l0,4l-2,-3q-2,-3 -5,-6t-8,-9t-12,-11t-15,-12t-18,-11t-22,-8t-26,-6t-31,-3q-60,0 -108,31t-48,87q0,21 7,40t27,41t48,37t78,28t110,15l14,0l0,22q0,34 -6,50q-22,71 -97,71q-18,0 -34,-1t-25,-4t-8,-3q22,-15 22,-44q0,-25 -16,-39l-17,-15zm-11,-199q0,-31 24,-55t59,-25q38,0 67,23t39,60q2,7 3,66q0,58 -1,58q-8,0 -21,-1t-45,-9t-58,-20t-46,-37t-21,-60z" stroke-width="10" id="svg_149"/>
        <path d="m370,305t-21,0t-36,15t-16,38q0,23 15,38q5,5 5,6t-10,2q-26,4 -49,4q-49,0 -80,-32q-47,-47 -47,-157q0,-82 31,-129q41,-61 110,-61q41,0 66,26t36,62q2,8 5,10t16,2l14,0q6,-6 6,-9q0,-4 -4,-16t-16,-33t-29,-38t-48,-31t-69,-13q-86,0 -150,64t-65,161q0,104 65,169t151,65t120,-27t34,-64q0,-23 -17,-37l-17,-15z" stroke-width="10" id="svg_148"/>
        <path d="m69,609q0,28 18,44t44,16q23,-2 40,-17t17,-43q0,-30 -17,-45t-42,-15q-25,0 -42,15t-18,45zm178,-609q-15,3 -104,3q-11,0 -37,0t-50,-2l-22,-1l-8,0l0,46l16,0q28,0 49,3q9,4 11,11t2,42l0,103l0,88q0,52 -2,66t-14,19q-14,7 -47,7l-11,0l0,23q0,23 2,23l10,1q10,1 28,2t36,2q17,1 36,2t29,3t11,1l3,0l0,-380q5,-10 12,-12t35,-4l23,0l0,-46l-8,0z" stroke-width="10" id="svg_147"/>
        <path d="m28,214q0,95 65,164t157,70q90,0 155,-68t66,-165q0,-95 -64,-160t-157,-65q-97,0 -159,67t-63,157zm222,-184q122,0 122,163l0,32l0,25q0,22 -1,38t-7,38t-16,36t-31,28t-49,20q-5,1 -16,1q-30,0 -57,-12q-43,-22 -56,-61t-13,-92l0,-20q0,-96 19,-135q32,-61 105,-61z" stroke-width="10" id="svg_146"/>
        <path d="m42,46l14,0q39,0 47,14l0,8q0,9 0,23t0,33t1,43t0,50t0,55t0,57q0,37 0,78t0,75t0,60t-1,44t0,17q-3,19 -14,25t-45,9l-18,0l0,23q0,23 2,23l10,1q10,1 29,2t37,2q17,1 37,2t30,3t11,1l3,0l0,-315q0,-317 1,-319q4,-8 12,-11q21,-3 49,-3l16,0l0,-46l-8,0l-23,1q-23,1 -49,1t-38,1t-38,0t-50,-2l-23,-1l-8,0l0,46l16,0z" stroke-width="10" id="svg_145"/>
        <path d="m128,622q-7,7 -11,9t-16,3t-43,3l-33,0l0,46l11,0q21,-3 144,-3q135,0 144,3l11,0l0,-46l-33,0q-40,-1 -51,-3t-18,-12l-1,-122l0,-122l285,0l0,244q-7,7 -11,9t-16,3t-43,3l-33,0l0,46l11,0q21,-3 144,-3q135,0 144,3l11,0l0,-46l-33,0q-40,-1 -51,-3t-18,-12l0,-561q6,-10 17,-12t52,-3l33,0l0,-46l-11,0q-21,3 -144,3q-135,0 -144,-3l-11,0l0,46l33,0q42,1 51,3t19,12l0,271l-285,0l0,-135l1,-136q6,-10 17,-12t52,-3l33,0l0,-46l-11,0q-21,3 -144,3q-135,0 -144,-3l-11,0l0,46l33,0q42,1 51,3t19,12l0,561z" stroke-width="10" id="svg_144"/>
        <path d="m11,179l0,73l266,0l0,-73l-266,0z" stroke-width="10" id="svg_143"/>
        <path d="m55,507q0,83 57,140t131,57l14,0q85,0 148,-63l21,31q5,7 10,15t10,13l3,4q1,0 4,0t6,1l4,0q3,0 9,-6l0,-237l-6,-6l-18,0q-11,0 -13,3t-5,20q-17,126 -101,167q-37,16 -75,16q-53,0 -86,-36t-33,-84q0,-34 17,-62t48,-45q10,-4 86,-23t84,-23q57,-22 93,-75t37,-123q0,-81 -52,-146t-147,-66q-56,0 -100,17t-61,31l-18,14q-4,-5 -15,-20t-20,-28t-9,-14q-2,-1 -10,-1l-4,0q-3,0 -9,6l0,117q0,119 1,121q2,5 20,5l13,0q6,-6 6,-13q0,-32 10,-63t34,-61t66,-48t100,-18q47,0 81,38t34,93q0,43 -22,78t-58,48q-56,14 -74,19q-5,1 -27,6t-33,8t-32,11t-33,18t-29,24t-27,35q-30,49 -30,105z" stroke-width="10" id="svg_142"/>
        <path d="m130,622q-7,7 -11,9t-16,3t-43,3l-33,0l0,46l187,0q23,0 62,0t55,1q88,0 140,-13t96,-55q57,-53 57,-127q0,-68 -51,-117t-122,-65q-22,-5 -123,-6l-94,0l0,-120q0,-119 3,-123q8,-11 67,-12l33,0l0,-46l-11,0q-21,3 -144,3q-135,0 -144,-3l-11,0l0,46l33,0q42,1 51,3t19,12l0,561zm377,-134q0,26 -1,40t-6,36t-17,33t-33,23t-53,15q-12,2 -90,2l-21,0q-49,0 -52,-9q-3,-4 -3,-145l0,-141l71,0l37,0q51,0 84,7t58,33q26,29 26,106z" stroke-width="10" id="svg_141"/>
        <path d="m740,435q0,-115 -64,-222t-165,-171t-207,-64q-97,0 -166,57t-87,166q-1,8 -1,43q0,102 48,194t129,163q124,103 249,103q38,0 48,-1q97,-14 156,-86t60,-182zm-103,41q0,89 -46,139t-115,50q-80,0 -154,-60q-80,-63 -122,-177t-43,-212q0,-90 43,-143t114,-54q90,0 171,79t123,215q29,95 29,163z" stroke-width="10" id="svg_140"/>
        <path d="m208,74q0,-24 46,-28q18,0 18,-11q0,-1 -2,-13q-3,-14 -6,-18t-13,-4q-2,0 -12,0t-34,1t-64,1q-71,0 -91,-2l-8,0q-7,7 -7,11q2,27 13,35l14,0q70,3 102,50q6,6 181,305t178,303q7,12 24,12l8,0l17,0q6,-9 6,-10l28,-323q28,-323 30,-326q5,-11 65,-11q25,0 25,-10q0,-2 -3,-14q-3,-15 -5,-18t-14,-4q-3,0 -14,0t-39,1t-73,1q-94,0 -123,-2l-12,0q-6,6 -6,9t2,18q4,13 6,16l4,3l20,0q54,3 64,17l-12,150l-238,0l-34,-58q-41,-69 -41,-81zm308,186q0,11 -12,156t-14,146l-27,-43q-16,-27 -63,-107l-90,-152l103,-1q103,0 103,1z" stroke-width="10" id="svg_139"/>
       </defs>
       <g stroke="rgb(68, 68, 68)" id="svg_535" transform="matrix(1 0 0 -1 0 0)" stroke-width="0" fill="rgb(68, 68, 68)">
        <use id="svg_536" xlink:href="#svg_138"/>
        <use id="svg_537" y="0" x="779" xlink:href="#svg_137"/>
        <use id="svg_538" y="0" x="1840" xlink:href="#svg_136"/>
        <use id="svg_539" y="0" x="2567" xlink:href="#svg_135"/>
        <use id="svg_540" y="0" x="3573" xlink:href="#svg_134"/>
       </g>
      </svg>
     </g>
    </svg>
   </g>
  </g>
  <g id="svg_541" class="annotation">
   <g transform="matrix(2.05405 0 0 2.05405 -649.824 -200.797)" id="svg_221" class="annotation-text-g">
    <svg id="svg_542" height="25" width="75" y="190" x="616">
     <rect stroke="rgb(0, 0, 0)" id="svg_543" stroke-width="1px" stroke-opacity="0" fill="rgb(0, 0, 0)" fill-opacity="0" height="24" width="74" y="0.5" x="0.5" class="bg"/>
     <g id="svg_265" class="annotation-math-group">
      <svg id="svg_544" width="5.603ex" y="2" x="1" preserveAspectRatio="xMinYMin meet" height="1.79ex" class="annotation-math" viewBox="0 -705.8452691183917 2420.5555555555557 756.6905382367834" xmlns:xlink="http://www.w3.org/1999/xlink">
       <defs>
        <path d="m52,289q7,42 54,97t116,56q35,0 64,-18t43,-45q42,63 101,63q37,0 64,-22t28,-59q0,-29 -14,-47t-27,-22t-23,-4q-19,0 -31,11t-12,29q0,46 50,63q-11,13 -40,13q-13,0 -19,-2q-38,-16 -56,-66q-60,-221 -60,-258q0,-28 16,-40t35,-12q37,0 73,33t49,81q3,10 6,11t16,2l4,0q15,0 15,-8q0,-1 -2,-11q-16,-57 -62,-101t-107,-44q-70,0 -106,63q-41,-62 -94,-62l-6,0q-49,0 -70,26t-22,55q0,32 19,52t45,20q43,0 43,-42q0,-20 -12,-35t-23,-20t-13,-5l-3,-1q0,-1 6,-4t16,-7t19,-3q36,0 62,45q9,16 23,68t28,108t16,66q5,27 5,39q0,28 -15,40t-34,12q-40,0 -75,-32t-49,-82q-2,-9 -5,-10t-16,-2l-14,0q-6,6 -6,11z" stroke-width="10" id="svg_224"/>
        <path d="m21,287q0,14 15,48t48,71t74,36q41,0 66,-23t26,-64q-2,-19 -3,-21q0,-3 -16,-46t-33,-97t-16,-86q0,-43 14,-60t42,-18q23,0 43,11t31,23t27,33q0,1 5,20t14,59t19,74q38,150 42,157q13,27 43,27q13,0 21,-7t11,-12t2,-9q0,-13 -49,-210t-56,-216q-28,-83 -97,-132t-138,-50q-45,0 -79,22t-34,66q0,22 7,37t19,22t20,10t17,3q44,0 44,-42q0,-20 -12,-35t-23,-20t-13,-5l-3,-1q2,-5 19,-12t34,-7l8,0q17,0 26,2q33,9 61,38t43,62t23,56t8,30l-6,-4q-6,-4 -19,-11t-26,-12q-20,-5 -39,-5q-46,0 -81,22t-46,71q-1,7 -1,31q0,57 35,149t35,117q0,1 0,2q0,9 0,12t-4,7t-11,4l-4,0q-23,0 -42,-19t-30,-41t-17,-42t-8,-22q-2,-2 -16,-2l-14,0q-6,6 -6,9z" stroke-width="10" id="svg_264"/>
        <path d="m56,347q0,13 14,20l637,0q15,-8 15,-20q0,-11 -14,-19l-318,-1l-318,0q-16,5 -16,20zm0,-194q0,15 16,20l636,0q14,-10 14,-20q0,-13 -15,-20l-637,0q-14,7 -14,20z" stroke-width="10" id="svg_223"/>
        <path d="m109,429q-27,0 -43,18t-16,44q0,71 53,123t132,52q91,0 152,-56t62,-145q0,-43 -20,-82t-48,-68t-80,-74q-36,-31 -100,-92l-59,-56l76,-1q157,0 167,5q7,2 24,89l0,3l40,0l0,-3q-1,-3 -13,-91t-15,-92l0,-3l-371,0l0,19l0,12q0,7 6,15t30,35q29,32 50,56q9,10 34,37t34,37t29,33t28,34t23,30t21,32t15,29t13,32t7,30t3,33q0,63 -34,109t-97,46q-33,0 -58,-17t-35,-33t-10,-19q0,-1 5,-1q18,0 37,-14t19,-46q0,-25 -16,-42t-45,-18z" stroke-width="10" id="svg_222"/>
        <path d="m34,159q0,109 86,196t186,87q56,0 88,-24t33,-63q0,-29 -19,-49t-48,-21q-19,0 -30,10t-11,30t11,34t22,21t14,6l1,0q0,2 -6,6t-21,8t-34,4q-30,0 -57,-14q-21,-9 -43,-31q-44,-44 -64,-124t-21,-116q0,-46 26,-69q22,-24 58,-24l4,0q112,0 185,85q9,10 12,10q4,0 13,-9t10,-14t-9,-15t-29,-28t-45,-30t-64,-25t-80,-11q-75,0 -121,48t-47,122z" stroke-width="10" id="svg_263"/>
        <path d="m201,-11q-75,0 -121,49t-46,118q0,65 30,123t82,101q76,61 155,61q32,0 40,-1q13,-3 26,-7t35,-16t36,-30t26,-49t12,-70q0,-107 -86,-193t-189,-86zm-80,131q0,-50 26,-72t59,-22q44,0 83,32t62,84q9,21 23,74t14,92q0,44 -18,67q-24,30 -64,30q-63,0 -111,-58q-37,-44 -55,-117t-19,-110z" stroke-width="10" id="svg_262"/>
        <path d="m131,289q0,32 16,65t56,61t97,27q62,0 90,-27t29,-60q0,-32 -17,-47t-38,-16q-13,0 -24,8t-12,26q0,16 9,28t17,18t13,6q1,0 1,1q0,3 -7,9t-25,11t-39,6q-48,0 -70,-26t-23,-53q0,-25 19,-35t55,-17t52,-15q66,-29 66,-96q0,-28 -11,-56t-33,-56t-63,-44t-94,-17q-77,0 -109,29t-33,68q0,39 21,56t44,17q15,0 28,-9t14,-31q0,-26 -18,-44t-31,-18q-2,-1 -3,-1t-1,-2q1,-3 8,-8t31,-13t55,-7q36,0 62,11t38,28t17,31t5,25q0,28 -21,42t-48,17t-59,15t-47,35q-17,25 -17,58z" stroke-width="10" id="svg_261"/>
        <path d="m94,250q0,69 10,131t23,107t37,88t38,67t42,52t33,34t25,21l13,0l4,0q14,0 14,-9q0,-3 -17,-21t-41,-53t-49,-86t-42,-138t-17,-193t17,-192t41,-139t49,-86t42,-53t17,-21q0,-9 -15,-9l-3,0l-13,0l-28,24q-94,85 -137,212t-43,264z" stroke-width="10" id="svg_260"/>
        <path d="m127,463q-27,0 -42,17t-16,44q0,55 48,98t116,43q35,0 44,-1q74,-12 113,-53t40,-89q0,-52 -34,-101t-94,-71l-3,-2q0,-1 9,-3t29,-9t38,-21q82,-53 82,-140q0,-79 -62,-138t-157,-59q-80,0 -138,43t-58,109q0,28 18,45t45,18q28,0 46,-18t18,-45q0,-11 -3,-20t-7,-16t-11,-12t-12,-8t-10,-4t-8,-3l-4,-1q51,-45 124,-45q55,0 83,53q17,33 17,101l0,20q0,95 -64,127q-15,6 -61,7l-42,1l-3,2q-2,3 -2,16q0,18 8,18q28,0 58,5q34,5 62,42t28,112l0,8q0,57 -35,79q-22,14 -47,14q-32,0 -59,-11t-38,-23t-11,-12l3,0q3,-1 8,-2t10,-5t12,-7t10,-11t8,-15t3,-20q0,-22 -14,-39t-45,-18z" stroke-width="10" id="svg_259"/>
        <path d="m60,749l4,1q5,0 10,0l12,0l28,-24q94,-85 137,-212t43,-264q0,-68 -10,-131t-23,-107t-37,-88t-38,-67t-41,-51t-32,-33t-23,-19q-3,-3 -4,-4l-12,0q-8,0 -11,0t-5,3t-3,9q1,1 11,13q155,161 155,475t-155,475q-10,12 -11,13q0,8 5,11z" stroke-width="10" id="svg_258"/>
        <path d="m56,237t0,13t14,20l299,0l0,150l1,150q10,13 19,13q13,0 20,-15l0,-298l298,0q15,-8 15,-20t-15,-20l-298,0l0,-298q-8,-14 -18,-14l-2,0l-2,0q-12,0 -18,14l0,298l-299,0q-14,7 -14,20l0,-13z" stroke-width="10" id="svg_257"/>
        <path d="m213,578l-13,-5q-14,-5 -40,-10t-58,-7l-19,0l0,46l19,0q47,2 87,15t56,24t28,22q2,3 12,3q9,0 17,-6l0,-299l1,-300q7,-7 12,-9t24,-4t62,-2l26,0l0,-46l-11,0q-21,3 -159,3q-136,0 -157,-3l-12,0l0,46l26,0q22,0 38,0t25,1t16,3t8,2t6,5t6,4l0,517z" stroke-width="10" id="svg_256"/>
        <path d="m118,-162q2,0 6,-2t11,-3t12,-1q13,0 24,13t16,29q10,27 34,153t46,240t22,115l0,3l-47,0q-47,0 -50,2q-4,3 -4,10l7,28q2,5 8,5t47,1q48,0 48,1q0,2 9,50t12,58q37,165 146,165q37,-2 61,-22t24,-53q0,-36 -21,-52t-42,-17q-44,0 -44,42q0,19 11,33t24,21l9,5q-16,6 -30,6q-12,0 -23,-10t-15,-28q-7,-29 -16,-78t-16,-83t-7,-36q0,-2 55,-2q45,0 52,-1t11,-6q1,-4 -2,-17t-5,-16q-2,-5 -9,-5t-54,-1l-56,0l-23,-122q-48,-248 -67,-310q-27,-85 -70,-126q-37,-32 -73,-32q-32,0 -58,19t-26,54q0,37 21,54t42,17q44,0 44,-42q0,-19 -11,-33t-24,-21l-9,-5z" stroke-width="10" id="svg_255"/>
        <path d="m70,417t0,77t54,124t124,48q71,0 126,-42t55,-109q0,-30 -11,-56t-26,-42t-31,-28t-26,-18t-11,-8l14,-9q14,-10 28,-20t16,-11q75,-59 75,-149q0,-79 -58,-137t-150,-59q-90,0 -148,51t-58,126q0,108 129,180l-18,13q-21,13 -27,20q-57,49 -57,126l0,-77zm216,-31l6,4q6,4 9,6t10,7t12,10t11,12t11,13t10,16t9,17t5,20t2,22q0,43 -29,73t-67,38q-7,1 -33,1q-41,0 -77,-26t-37,-65q0,-23 13,-42t26,-29t50,-32q7,-5 11,-7l58,-38zm-36,-365q58,0 100,34t42,82q0,17 -5,32t-12,25t-22,22t-23,18t-29,19t-27,17q-14,9 -30,19t-26,17l-8,5q-6,0 -29,-17t-48,-55t-26,-82q0,-59 43,-97t100,-39z" stroke-width="10" id="svg_254"/>
        <path d="m78,60q0,24 17,42t43,18q24,0 42,-16t19,-43q0,-25 -17,-43t-43,-18t-43,17t-18,43z" stroke-width="10" id="svg_253"/>
        <path d="m84,237t0,13t14,20l581,0q15,-8 15,-20t-15,-20l-581,0q-14,7 -14,20l0,-13z" stroke-width="10" id="svg_252"/>
        <path d="m55,458q1,2 17,109l16,107q0,2 20,2l20,0l0,-4q0,-10 15,-17t52,-9t169,-2l121,0l0,-39l-68,-93q-9,-12 -30,-40t-27,-37t-21,-32t-20,-36t-14,-37t-13,-46t-8,-54t-6,-68t-3,-82q0,-14 0,-28t-1,-24l0,-9q-4,-17 -19,-29t-34,-12q-11,0 -21,3t-21,19t-11,40q0,158 97,328q20,32 84,121l46,63l-93,0q-174,0 -183,-6q-6,-3 -11,-24t-10,-43l-3,-21l0,-3l-40,0l0,3z" stroke-width="10" id="svg_251"/>
        <path d="m229,286q-13,134 -13,150q0,18 24,28q1,0 5,0t6,1q12,-1 22,-9t10,-20q0,-17 -6,-80t-7,-70l58,42q56,41 61,44t10,3q13,0 24,-10t12,-27q0,-13 -10,-23q-5,-3 -68,-33t-68,-32l66,-31l70,-35q9,-9 9,-23q0,-15 -9,-25t-24,-11q-8,0 -18,6t-55,40l-58,42q13,-134 13,-150q0,-10 -7,-19t-26,-9q-19,0 -26,9t-8,19q0,17 6,80t7,70l-58,-42q-56,-41 -61,-44q-4,-3 -10,-3q-13,0 -24,10t-12,27q0,5 0,8t3,6t5,6t9,7t13,7t19,9t25,11t32,15t40,20l-136,65q-9,9 -9,23q0,15 9,25t24,11q8,0 18,-6t55,-40l58,-42z" stroke-width="10" id="svg_250"/>
        <path d="m39,168q0,57 19,104t49,78t67,52t70,31t63,9l3,0q45,0 78,-22t33,-65q0,-90 -111,-118q-49,-13 -134,-14q-37,0 -38,-2q0,-2 -6,-35t-7,-58q0,-47 21,-74t63,-28t93,19t92,66q9,10 12,10q4,0 13,-9t10,-14t-9,-16t-30,-27t-46,-31t-63,-25t-76,-10q-79,0 -122,53t-44,126zm334,185q-6,52 -68,52q-33,0 -61,-14t-45,-34t-29,-41t-16,-36t-5,-19q0,-1 20,-1q113,0 158,24t46,69z" stroke-width="10" id="svg_249"/>
        <path d="m96,585q56,81 153,81q48,0 96,-26t78,-92q37,-83 37,-228q0,-155 -43,-237q-20,-42 -55,-67t-61,-31t-51,-7q-26,0 -52,6t-61,32t-55,67q-43,82 -43,237q0,174 57,265zm225,12q-30,32 -71,32q-42,0 -72,-32q-25,-26 -33,-72t-8,-192q0,-158 8,-208t36,-79q28,-30 69,-30q40,0 68,30q29,30 36,84t8,203q0,145 -8,191t-33,73z" stroke-width="10" id="svg_248"/>
        <path d="m132,622q-7,7 -11,9t-16,3t-43,3l-33,0l0,46l106,0q86,0 97,-1t17,-7q1,-1 105,-277l104,-274l104,274q104,276 106,277q3,6 15,7t98,1l106,0l0,-46l-33,0q-40,-1 -51,-3t-18,-12l0,-561q6,-10 17,-12t52,-3l33,0l0,-46l-11,0q-21,3 -140,3q-131,0 -140,-3l-11,0l0,46l33,0q42,1 51,3t19,12l0,286q0,77 0,114t0,85t0,67l-1,19q-233,-618 -237,-625q-4,-6 -20,-6t-20,6q-1,2 -118,309l-116,308l0,-18q-1,-18 -1,-63t0,-80t0,-107l1,-270q11,-36 85,-40l17,0l0,-46l-9,0q-15,3 -115,3q-102,0 -117,-3l-8,0l0,46l17,0q32,2 52,10t24,13t10,17l0,536z" stroke-width="10" id="svg_247"/>
        <path d="m347,338q-10,0 -53,11t-63,11q-20,0 -34,-4t-23,-10t-12,-11t-7,-11l-2,-4q-3,-3 -15,-3q-21,0 -21,8q0,5 3,14q13,39 43,67t66,34q12,2 17,2q25,0 45,-17t38,-33t38,-17q22,0 44,33t23,33q1,1 15,1l13,0q6,-6 6,-8q0,-4 -5,-14t-14,-21t-17,-22t-14,-19l-7,-9q-43,-51 -136,-135t-115,-108l-12,-12l15,-1q22,0 64,-11t63,-11q38,0 70,19t42,50q4,9 7,11t15,2q19,0 19,-10q0,-5 -1,-9q-17,-62 -66,-103t-98,-42q-26,0 -46,17t-39,34t-38,17q-44,0 -79,-60q-6,-8 -17,-8l-5,0l-13,0q-6,6 -6,9q0,15 58,86q39,45 132,130t115,108q12,16 7,16z" stroke-width="10" id="svg_246"/>
        <path d="m56,342q0,86 33,158t85,115t109,66t108,24q3,0 9,0t8,-1q91,0 161,-68l13,-12l30,39q27,37 31,41q1,0 4,0t6,1l4,0q3,0 9,-6l0,-280l-6,-6l-34,0q-6,6 -7,17q-9,82 -48,142t-95,79q-19,7 -50,7q-104,0 -174,-70q-79,-79 -79,-246q0,-121 38,-191q21,-40 52,-67t65,-39t56,-16t44,-5q89,0 143,69t55,151q0,7 6,13l28,0l6,-6l0,-15q-5,-103 -76,-180t-187,-77q-141,0 -244,104t-103,259z" stroke-width="10" id="svg_245"/>
        <path d="m117,59q0,-33 25,-33q37,0 63,105q6,20 10,21q2,1 10,1l4,0q9,0 12,0t5,-2t2,-7q-1,-6 -3,-16t-11,-38t-20,-47t-31,-37t-46,-17q-36,0 -67,22t-32,74q0,12 1,17l65,258q63,255 63,263q0,3 -1,5t-4,4t-5,2t-8,1t-8,1t-9,1t-10,0q-10,0 -13,0t-8,1t-6,3t-1,6q0,2 2,14q5,19 11,21t72,6q15,1 34,2t30,3t11,1q12,0 12,-8q0,-11 -73,-300t-75,-303q0,-2 0,-8t-1,-10l0,-6z" stroke-width="10" id="svg_244"/>
        <path d="m128,619q-7,7 -11,9t-16,3t-43,3l-33,0l0,46l572,0l0,-4q2,-6 14,-116t14,-116l0,-4l-40,0l0,4q-1,3 -3,21q-4,35 -12,61t-17,45t-25,30t-30,18t-41,10t-46,4t-58,1q-87,0 -102,-1t-18,-11q0,0 0,-1q-1,-2 -1,-124l0,-121l54,0q73,2 91,9q36,16 39,84q0,2 0,4l0,20l40,0l0,-280l-40,0l0,20q-1,35 -8,55t-25,29t-34,11t-52,2q-7,0 -11,0l-54,0l0,-134l0,-82q0,-57 5,-62q6,-5 52,-5l51,0l51,0q37,0 61,3t53,12t47,30t32,54q10,26 15,54t8,47t5,23l0,3l40,0l0,-3q-1,-3 -20,-133t-22,-134l0,-3l-585,0l0,46l33,0q42,1 51,3t19,12l0,558z" stroke-width="10" id="svg_243"/>
        <path d="m41,46l14,0q39,0 47,14l0,8q0,9 0,23t0,31t1,39t0,42q0,31 0,66t-1,59l0,23q-3,19 -14,25t-45,9l-18,0l0,23q0,23 2,23l10,1q10,1 28,2t37,2q17,1 36,2t29,3t11,1l3,0l0,-40q0,-38 1,-38t5,5t12,15t19,18t29,19t38,16q20,5 51,5q114,-4 127,-113q1,-7 1,-139l0,-86q0,-38 2,-45t11,-10q21,-3 49,-3l16,0l0,-46l-8,0l-24,1q-23,1 -50,1t-38,1q-103,0 -112,-3l-8,0l0,46l16,0q61,0 61,16q1,2 1,138q-1,135 -2,143q-6,28 -20,42t-24,17t-26,2q-45,0 -79,-34q-27,-27 -34,-55t-8,-83l0,-64l0,-60q0,-30 1,-40t3,-13t9,-6q21,-3 49,-3l16,0l0,-46l-8,0l-23,1q-24,1 -51,1t-38,1q-103,0 -112,-3l-8,0l0,46l16,0z" stroke-width="10" id="svg_242"/>
        <path stroke-width="10" id="svg_241"/>
        <path d="m128,619q-7,7 -11,9t-16,3t-43,3l-33,0l0,46l557,0l0,-4q2,-6 14,-116t14,-116l0,-4l-40,0l0,4q-7,49 -9,57q-6,37 -18,62t-27,38t-39,21t-46,9t-57,2l-40,0l-48,0q-34,0 -42,-2t-11,-10q-1,-2 -1,-131l0,-127l52,0q3,0 19,0t24,1t22,3t23,6t17,12q18,18 21,74l0,21l40,0l0,-280l-40,0l0,21q-3,55 -21,75q-8,7 -18,11t-23,6t-21,3t-24,1t-19,0l-52,0l0,-128l1,-128q7,-7 12,-9t25,-4t63,-2l27,0l0,-46l-12,0q-24,3 -166,3q-131,0 -146,-3l-11,0l0,46l33,0q42,1 51,3t19,12l0,558z" stroke-width="10" id="svg_240"/>
        <path d="m131,622q-7,7 -11,9t-16,3t-43,3l-33,0l0,46l201,0l38,0l79,0q77,0 113,-5t72,-27q43,-24 68,-61t25,-78q0,-51 -41,-93t-107,-59l-10,-3q73,-9 129,-55t56,-115q0,-68 -51,-120t-131,-64q-13,-2 -227,-3l-214,0l0,46l33,0q42,1 51,3t19,12l0,561zm380,-109q0,47 -26,81t-69,42q-1,0 -13,0t-32,0t-38,1q-67,0 -82,-1t-19,-8q-3,-4 -3,-129l0,-125l83,0l84,1l10,2q4,1 11,3t25,13t32,24t25,39t12,57zm26,-325q0,51 -28,94t-79,54l-101,1l-100,0l0,-137l0,-84q0,-59 5,-64q6,-5 100,-5l49,0q42,0 60,6q43,14 68,51t26,84z" stroke-width="10" id="svg_239"/>
        <path d="m328,0q-21,3 -148,3t-148,-3l-11,0l0,46l22,0q49,0 63,3t20,11q2,3 2,282q0,278 -2,281q-4,5 -8,7t-22,5t-53,2l-22,0l0,46l11,0q21,-3 148,-3t148,3l11,0l0,-46l-22,0q-49,0 -63,-3t-20,-11q-2,-3 -2,-281q0,-279 2,-282q4,-5 8,-7t22,-5t53,-2l22,0l0,-46l-11,0z" stroke-width="10" id="svg_238"/>
        <path d="m295,316q0,40 -27,69t-78,29q-36,0 -62,-13q-30,-19 -30,-52q-1,-5 0,-13t16,-24t43,-25q18,-5 44,-9t44,-9t32,-13q17,-8 33,-20t32,-41t17,-62q0,-62 -38,-102t-123,-41l-8,0q-52,0 -96,36l-8,-7l-9,-9q-6,-6 -12,-11l-11,-10l-8,0l-4,0q-3,0 -9,6l0,79l0,58q0,21 2,25t10,5l9,0q12,0 16,-4t5,-12t7,-27t19,-42q35,-51 97,-51q97,0 97,78q0,29 -18,47q-20,24 -83,36t-83,23q-36,17 -57,46t-21,62q0,39 17,66t43,40t50,18t44,5l11,0q40,0 70,-15l15,-8l9,7q10,9 22,17l8,0l4,0q3,0 9,-6l0,-132l-6,-6l-28,0q-6,6 -6,12z" stroke-width="10" id="svg_237"/>
        <path d="m27,422q53,4 82,56t32,122l0,15l40,0l0,-184l135,0l0,-46l-135,0l0,-144q1,-125 1,-141t7,-32q14,-39 49,-39q44,0 54,71q1,8 1,46l0,35l40,0l0,-35l0,-12q0,-77 -42,-117q-27,-27 -70,-27q-34,0 -59,12t-38,31t-19,35t-7,32q-1,7 -1,148l0,137l-79,0l0,37l9,0z" stroke-width="10" id="svg_236"/>
        <path d="m137,305t-22,0t-37,15t-15,39q0,35 34,62t121,27q73,0 118,-32t60,-76q5,-14 5,-31t1,-115l0,-70q0,-48 5,-66t21,-18q15,0 20,16t5,53l0,36l40,0l0,-39q-1,-40 -3,-47q-9,-30 -35,-47t-55,-18t-47,18t-24,42l0,4l-2,-3q-2,-3 -5,-6t-8,-9t-12,-11t-15,-12t-18,-11t-22,-8t-26,-6t-31,-3q-60,0 -108,31t-48,87q0,21 7,40t27,41t48,37t78,28t110,15l14,0l0,22q0,34 -6,50q-22,71 -97,71q-18,0 -34,-1t-25,-4t-8,-3q22,-15 22,-44q0,-25 -16,-39l-17,-15zm-11,-199q0,-31 24,-55t59,-25q38,0 67,23t39,60q2,7 3,66q0,58 -1,58q-8,0 -21,-1t-45,-9t-58,-20t-46,-37t-21,-60z" stroke-width="10" id="svg_235"/>
        <path d="m370,305t-21,0t-36,15t-16,38q0,23 15,38q5,5 5,6t-10,2q-26,4 -49,4q-49,0 -80,-32q-47,-47 -47,-157q0,-82 31,-129q41,-61 110,-61q41,0 66,26t36,62q2,8 5,10t16,2l14,0q6,-6 6,-9q0,-4 -4,-16t-16,-33t-29,-38t-48,-31t-69,-13q-86,0 -150,64t-65,161q0,104 65,169t151,65t120,-27t34,-64q0,-23 -17,-37l-17,-15z" stroke-width="10" id="svg_234"/>
        <path d="m69,609q0,28 18,44t44,16q23,-2 40,-17t17,-43q0,-30 -17,-45t-42,-15q-25,0 -42,15t-18,45zm178,-609q-15,3 -104,3q-11,0 -37,0t-50,-2l-22,-1l-8,0l0,46l16,0q28,0 49,3q9,4 11,11t2,42l0,103l0,88q0,52 -2,66t-14,19q-14,7 -47,7l-11,0l0,23q0,23 2,23l10,1q10,1 28,2t36,2q17,1 36,2t29,3t11,1l3,0l0,-380q5,-10 12,-12t35,-4l23,0l0,-46l-8,0z" stroke-width="10" id="svg_233"/>
        <path d="m28,214q0,95 65,164t157,70q90,0 155,-68t66,-165q0,-95 -64,-160t-157,-65q-97,0 -159,67t-63,157zm222,-184q122,0 122,163l0,32l0,25q0,22 -1,38t-7,38t-16,36t-31,28t-49,20q-5,1 -16,1q-30,0 -57,-12q-43,-22 -56,-61t-13,-92l0,-20q0,-96 19,-135q32,-61 105,-61z" stroke-width="10" id="svg_232"/>
        <path d="m42,46l14,0q39,0 47,14l0,8q0,9 0,23t0,33t1,43t0,50t0,55t0,57q0,37 0,78t0,75t0,60t-1,44t0,17q-3,19 -14,25t-45,9l-18,0l0,23q0,23 2,23l10,1q10,1 29,2t37,2q17,1 37,2t30,3t11,1l3,0l0,-315q0,-317 1,-319q4,-8 12,-11q21,-3 49,-3l16,0l0,-46l-8,0l-23,1q-23,1 -49,1t-38,1t-38,0t-50,-2l-23,-1l-8,0l0,46l16,0z" stroke-width="10" id="svg_231"/>
        <path d="m128,622q-7,7 -11,9t-16,3t-43,3l-33,0l0,46l11,0q21,-3 144,-3q135,0 144,3l11,0l0,-46l-33,0q-40,-1 -51,-3t-18,-12l-1,-122l0,-122l285,0l0,244q-7,7 -11,9t-16,3t-43,3l-33,0l0,46l11,0q21,-3 144,-3q135,0 144,3l11,0l0,-46l-33,0q-40,-1 -51,-3t-18,-12l0,-561q6,-10 17,-12t52,-3l33,0l0,-46l-11,0q-21,3 -144,3q-135,0 -144,-3l-11,0l0,46l33,0q42,1 51,3t19,12l0,271l-285,0l0,-135l1,-136q6,-10 17,-12t52,-3l33,0l0,-46l-11,0q-21,3 -144,3q-135,0 -144,-3l-11,0l0,46l33,0q42,1 51,3t19,12l0,561z" stroke-width="10" id="svg_230"/>
        <path d="m11,179l0,73l266,0l0,-73l-266,0z" stroke-width="10" id="svg_229"/>
        <path d="m55,507q0,83 57,140t131,57l14,0q85,0 148,-63l21,31q5,7 10,15t10,13l3,4q1,0 4,0t6,1l4,0q3,0 9,-6l0,-237l-6,-6l-18,0q-11,0 -13,3t-5,20q-17,126 -101,167q-37,16 -75,16q-53,0 -86,-36t-33,-84q0,-34 17,-62t48,-45q10,-4 86,-23t84,-23q57,-22 93,-75t37,-123q0,-81 -52,-146t-147,-66q-56,0 -100,17t-61,31l-18,14q-4,-5 -15,-20t-20,-28t-9,-14q-2,-1 -10,-1l-4,0q-3,0 -9,6l0,117q0,119 1,121q2,5 20,5l13,0q6,-6 6,-13q0,-32 10,-63t34,-61t66,-48t100,-18q47,0 81,38t34,93q0,43 -22,78t-58,48q-56,14 -74,19q-5,1 -27,6t-33,8t-32,11t-33,18t-29,24t-27,35q-30,49 -30,105z" stroke-width="10" id="svg_228"/>
        <path d="m130,622q-7,7 -11,9t-16,3t-43,3l-33,0l0,46l187,0q23,0 62,0t55,1q88,0 140,-13t96,-55q57,-53 57,-127q0,-68 -51,-117t-122,-65q-22,-5 -123,-6l-94,0l0,-120q0,-119 3,-123q8,-11 67,-12l33,0l0,-46l-11,0q-21,3 -144,3q-135,0 -144,-3l-11,0l0,46l33,0q42,1 51,3t19,12l0,561zm377,-134q0,26 -1,40t-6,36t-17,33t-33,23t-53,15q-12,2 -90,2l-21,0q-49,0 -52,-9q-3,-4 -3,-145l0,-141l71,0l37,0q51,0 84,7t58,33q26,29 26,106z" stroke-width="10" id="svg_227"/>
        <path d="m740,435q0,-115 -64,-222t-165,-171t-207,-64q-97,0 -166,57t-87,166q-1,8 -1,43q0,102 48,194t129,163q124,103 249,103q38,0 48,-1q97,-14 156,-86t60,-182zm-103,41q0,89 -46,139t-115,50q-80,0 -154,-60q-80,-63 -122,-177t-43,-212q0,-90 43,-143t114,-54q90,0 171,79t123,215q29,95 29,163z" stroke-width="10" id="svg_226"/>
        <path d="m208,74q0,-24 46,-28q18,0 18,-11q0,-1 -2,-13q-3,-14 -6,-18t-13,-4q-2,0 -12,0t-34,1t-64,1q-71,0 -91,-2l-8,0q-7,7 -7,11q2,27 13,35l14,0q70,3 102,50q6,6 181,305t178,303q7,12 24,12l8,0l17,0q6,-9 6,-10l28,-323q28,-323 30,-326q5,-11 65,-11q25,0 25,-10q0,-2 -3,-14q-3,-15 -5,-18t-14,-4q-3,0 -14,0t-39,1t-73,1q-94,0 -123,-2l-12,0q-6,6 -6,9t2,18q4,13 6,16l4,3l20,0q54,3 64,17l-12,150l-238,0l-34,-58q-41,-69 -41,-81zm308,186q0,11 -12,156t-14,146l-27,-43q-16,-27 -63,-107l-90,-152l103,-1q103,0 103,1z" stroke-width="10" id="svg_225"/>
       </defs>
       <g stroke="rgb(68, 68, 68)" id="svg_545" transform="matrix(1 0 0 -1 0 0)" stroke-width="0" fill="rgb(68, 68, 68)">
        <use id="svg_546" xlink:href="#svg_224"/>
        <use id="svg_547" y="0" x="854" xlink:href="#svg_223"/>
        <use id="svg_548" y="0" x="1915" xlink:href="#svg_222"/>
       </g>
      </svg>
     </g>
    </svg>
   </g>
  </g>
  <g id="svg_549" class="annotation">
   <g transform="matrix(2.25 0 0 2.25 -384.375 -421.875)" id="svg_309" class="annotation-text-g">
    <svg id="svg_550" height="26" width="25" y="337" x="307">
     <rect stroke="rgb(0, 0, 0)" id="svg_551" stroke-width="1px" stroke-opacity="0" fill="rgb(0, 0, 0)" fill-opacity="0" height="25" width="24" y="0.5" x="0.5" class="bg"/>
     <g id="svg_353" class="annotation-math-group">
      <svg id="svg_552" width="1.79ex" y="2" x="1" preserveAspectRatio="xMinYMin meet" height="1.868ex" class="annotation-math" viewBox="0 -743.8452691183917 768 805.6905382367834" xmlns:xlink="http://www.w3.org/1999/xlink">
       <defs>
        <path d="m52,289q7,42 54,97t116,56q35,0 64,-18t43,-45q42,63 101,63q37,0 64,-22t28,-59q0,-29 -14,-47t-27,-22t-23,-4q-19,0 -31,11t-12,29q0,46 50,63q-11,13 -40,13q-13,0 -19,-2q-38,-16 -56,-66q-60,-221 -60,-258q0,-28 16,-40t35,-12q37,0 73,33t49,81q3,10 6,11t16,2l4,0q15,0 15,-8q0,-1 -2,-11q-16,-57 -62,-101t-107,-44q-70,0 -106,63q-41,-62 -94,-62l-6,0q-49,0 -70,26t-22,55q0,32 19,52t45,20q43,0 43,-42q0,-20 -12,-35t-23,-20t-13,-5l-3,-1q0,-1 6,-4t16,-7t19,-3q36,0 62,45q9,16 23,68t28,108t16,66q5,27 5,39q0,28 -15,40t-34,12q-40,0 -75,-32t-49,-82q-2,-9 -5,-10t-16,-2l-14,0q-6,6 -6,11z" stroke-width="10" id="svg_352"/>
        <path d="m21,287q0,14 15,48t48,71t74,36q41,0 66,-23t26,-64q-2,-19 -3,-21q0,-3 -16,-46t-33,-97t-16,-86q0,-43 14,-60t42,-18q23,0 43,11t31,23t27,33q0,1 5,20t14,59t19,74q38,150 42,157q13,27 43,27q13,0 21,-7t11,-12t2,-9q0,-13 -49,-210t-56,-216q-28,-83 -97,-132t-138,-50q-45,0 -79,22t-34,66q0,22 7,37t19,22t20,10t17,3q44,0 44,-42q0,-20 -12,-35t-23,-20t-13,-5l-3,-1q2,-5 19,-12t34,-7l8,0q17,0 26,2q33,9 61,38t43,62t23,56t8,30l-6,-4q-6,-4 -19,-11t-26,-12q-20,-5 -39,-5q-46,0 -81,22t-46,71q-1,7 -1,31q0,57 35,149t35,117q0,1 0,2q0,9 0,12t-4,7t-11,4l-4,0q-23,0 -42,-19t-30,-41t-17,-42t-8,-22q-2,-2 -16,-2l-14,0q-6,6 -6,9z" stroke-width="10" id="svg_351"/>
        <path d="m56,347q0,13 14,20l637,0q15,-8 15,-20q0,-11 -14,-19l-318,-1l-318,0q-16,5 -16,20zm0,-194q0,15 16,20l636,0q14,-10 14,-20q0,-13 -15,-20l-637,0q-14,7 -14,20z" stroke-width="10" id="svg_350"/>
        <path d="m109,429q-27,0 -43,18t-16,44q0,71 53,123t132,52q91,0 152,-56t62,-145q0,-43 -20,-82t-48,-68t-80,-74q-36,-31 -100,-92l-59,-56l76,-1q157,0 167,5q7,2 24,89l0,3l40,0l0,-3q-1,-3 -13,-91t-15,-92l0,-3l-371,0l0,19l0,12q0,7 6,15t30,35q29,32 50,56q9,10 34,37t34,37t29,33t28,34t23,30t21,32t15,29t13,32t7,30t3,33q0,63 -34,109t-97,46q-33,0 -58,-17t-35,-33t-10,-19q0,-1 5,-1q18,0 37,-14t19,-46q0,-25 -16,-42t-45,-18z" stroke-width="10" id="svg_349"/>
        <path d="m34,159q0,109 86,196t186,87q56,0 88,-24t33,-63q0,-29 -19,-49t-48,-21q-19,0 -30,10t-11,30t11,34t22,21t14,6l1,0q0,2 -6,6t-21,8t-34,4q-30,0 -57,-14q-21,-9 -43,-31q-44,-44 -64,-124t-21,-116q0,-46 26,-69q22,-24 58,-24l4,0q112,0 185,85q9,10 12,10q4,0 13,-9t10,-14t-9,-15t-29,-28t-45,-30t-64,-25t-80,-11q-75,0 -121,48t-47,122z" stroke-width="10" id="svg_348"/>
        <path d="m201,-11q-75,0 -121,49t-46,118q0,65 30,123t82,101q76,61 155,61q32,0 40,-1q13,-3 26,-7t35,-16t36,-30t26,-49t12,-70q0,-107 -86,-193t-189,-86zm-80,131q0,-50 26,-72t59,-22q44,0 83,32t62,84q9,21 23,74t14,92q0,44 -18,67q-24,30 -64,30q-63,0 -111,-58q-37,-44 -55,-117t-19,-110z" stroke-width="10" id="svg_347"/>
        <path d="m131,289q0,32 16,65t56,61t97,27q62,0 90,-27t29,-60q0,-32 -17,-47t-38,-16q-13,0 -24,8t-12,26q0,16 9,28t17,18t13,6q1,0 1,1q0,3 -7,9t-25,11t-39,6q-48,0 -70,-26t-23,-53q0,-25 19,-35t55,-17t52,-15q66,-29 66,-96q0,-28 -11,-56t-33,-56t-63,-44t-94,-17q-77,0 -109,29t-33,68q0,39 21,56t44,17q15,0 28,-9t14,-31q0,-26 -18,-44t-31,-18q-2,-1 -3,-1t-1,-2q1,-3 8,-8t31,-13t55,-7q36,0 62,11t38,28t17,31t5,25q0,28 -21,42t-48,17t-59,15t-47,35q-17,25 -17,58z" stroke-width="10" id="svg_346"/>
        <path d="m94,250q0,69 10,131t23,107t37,88t38,67t42,52t33,34t25,21l13,0l4,0q14,0 14,-9q0,-3 -17,-21t-41,-53t-49,-86t-42,-138t-17,-193t17,-192t41,-139t49,-86t42,-53t17,-21q0,-9 -15,-9l-3,0l-13,0l-28,24q-94,85 -137,212t-43,264z" stroke-width="10" id="svg_345"/>
        <path d="m127,463q-27,0 -42,17t-16,44q0,55 48,98t116,43q35,0 44,-1q74,-12 113,-53t40,-89q0,-52 -34,-101t-94,-71l-3,-2q0,-1 9,-3t29,-9t38,-21q82,-53 82,-140q0,-79 -62,-138t-157,-59q-80,0 -138,43t-58,109q0,28 18,45t45,18q28,0 46,-18t18,-45q0,-11 -3,-20t-7,-16t-11,-12t-12,-8t-10,-4t-8,-3l-4,-1q51,-45 124,-45q55,0 83,53q17,33 17,101l0,20q0,95 -64,127q-15,6 -61,7l-42,1l-3,2q-2,3 -2,16q0,18 8,18q28,0 58,5q34,5 62,42t28,112l0,8q0,57 -35,79q-22,14 -47,14q-32,0 -59,-11t-38,-23t-11,-12l3,0q3,-1 8,-2t10,-5t12,-7t10,-11t8,-15t3,-20q0,-22 -14,-39t-45,-18z" stroke-width="10" id="svg_344"/>
        <path d="m60,749l4,1q5,0 10,0l12,0l28,-24q94,-85 137,-212t43,-264q0,-68 -10,-131t-23,-107t-37,-88t-38,-67t-41,-51t-32,-33t-23,-19q-3,-3 -4,-4l-12,0q-8,0 -11,0t-5,3t-3,9q1,1 11,13q155,161 155,475t-155,475q-10,12 -11,13q0,8 5,11z" stroke-width="10" id="svg_343"/>
        <path d="m56,237t0,13t14,20l299,0l0,150l1,150q10,13 19,13q13,0 20,-15l0,-298l298,0q15,-8 15,-20t-15,-20l-298,0l0,-298q-8,-14 -18,-14l-2,0l-2,0q-12,0 -18,14l0,298l-299,0q-14,7 -14,20l0,-13z" stroke-width="10" id="svg_342"/>
        <path d="m213,578l-13,-5q-14,-5 -40,-10t-58,-7l-19,0l0,46l19,0q47,2 87,15t56,24t28,22q2,3 12,3q9,0 17,-6l0,-299l1,-300q7,-7 12,-9t24,-4t62,-2l26,0l0,-46l-11,0q-21,3 -159,3q-136,0 -157,-3l-12,0l0,46l26,0q22,0 38,0t25,1t16,3t8,2t6,5t6,4l0,517z" stroke-width="10" id="svg_341"/>
        <path d="m118,-162q2,0 6,-2t11,-3t12,-1q13,0 24,13t16,29q10,27 34,153t46,240t22,115l0,3l-47,0q-47,0 -50,2q-4,3 -4,10l7,28q2,5 8,5t47,1q48,0 48,1q0,2 9,50t12,58q37,165 146,165q37,-2 61,-22t24,-53q0,-36 -21,-52t-42,-17q-44,0 -44,42q0,19 11,33t24,21l9,5q-16,6 -30,6q-12,0 -23,-10t-15,-28q-7,-29 -16,-78t-16,-83t-7,-36q0,-2 55,-2q45,0 52,-1t11,-6q1,-4 -2,-17t-5,-16q-2,-5 -9,-5t-54,-1l-56,0l-23,-122q-48,-248 -67,-310q-27,-85 -70,-126q-37,-32 -73,-32q-32,0 -58,19t-26,54q0,37 21,54t42,17q44,0 44,-42q0,-19 -11,-33t-24,-21l-9,-5z" stroke-width="10" id="svg_340"/>
        <path d="m70,417t0,77t54,124t124,48q71,0 126,-42t55,-109q0,-30 -11,-56t-26,-42t-31,-28t-26,-18t-11,-8l14,-9q14,-10 28,-20t16,-11q75,-59 75,-149q0,-79 -58,-137t-150,-59q-90,0 -148,51t-58,126q0,108 129,180l-18,13q-21,13 -27,20q-57,49 -57,126l0,-77zm216,-31l6,4q6,4 9,6t10,7t12,10t11,12t11,13t10,16t9,17t5,20t2,22q0,43 -29,73t-67,38q-7,1 -33,1q-41,0 -77,-26t-37,-65q0,-23 13,-42t26,-29t50,-32q7,-5 11,-7l58,-38zm-36,-365q58,0 100,34t42,82q0,17 -5,32t-12,25t-22,22t-23,18t-29,19t-27,17q-14,9 -30,19t-26,17l-8,5q-6,0 -29,-17t-48,-55t-26,-82q0,-59 43,-97t100,-39z" stroke-width="10" id="svg_339"/>
        <path d="m78,60q0,24 17,42t43,18q24,0 42,-16t19,-43q0,-25 -17,-43t-43,-18t-43,17t-18,43z" stroke-width="10" id="svg_338"/>
        <path d="m84,237t0,13t14,20l581,0q15,-8 15,-20t-15,-20l-581,0q-14,7 -14,20l0,-13z" stroke-width="10" id="svg_337"/>
        <path d="m55,458q1,2 17,109l16,107q0,2 20,2l20,0l0,-4q0,-10 15,-17t52,-9t169,-2l121,0l0,-39l-68,-93q-9,-12 -30,-40t-27,-37t-21,-32t-20,-36t-14,-37t-13,-46t-8,-54t-6,-68t-3,-82q0,-14 0,-28t-1,-24l0,-9q-4,-17 -19,-29t-34,-12q-11,0 -21,3t-21,19t-11,40q0,158 97,328q20,32 84,121l46,63l-93,0q-174,0 -183,-6q-6,-3 -11,-24t-10,-43l-3,-21l0,-3l-40,0l0,3z" stroke-width="10" id="svg_336"/>
        <path d="m229,286q-13,134 -13,150q0,18 24,28q1,0 5,0t6,1q12,-1 22,-9t10,-20q0,-17 -6,-80t-7,-70l58,42q56,41 61,44t10,3q13,0 24,-10t12,-27q0,-13 -10,-23q-5,-3 -68,-33t-68,-32l66,-31l70,-35q9,-9 9,-23q0,-15 -9,-25t-24,-11q-8,0 -18,6t-55,40l-58,42q13,-134 13,-150q0,-10 -7,-19t-26,-9q-19,0 -26,9t-8,19q0,17 6,80t7,70l-58,-42q-56,-41 -61,-44q-4,-3 -10,-3q-13,0 -24,10t-12,27q0,5 0,8t3,6t5,6t9,7t13,7t19,9t25,11t32,15t40,20l-136,65q-9,9 -9,23q0,15 9,25t24,11q8,0 18,-6t55,-40l58,-42z" stroke-width="10" id="svg_335"/>
        <path d="m39,168q0,57 19,104t49,78t67,52t70,31t63,9l3,0q45,0 78,-22t33,-65q0,-90 -111,-118q-49,-13 -134,-14q-37,0 -38,-2q0,-2 -6,-35t-7,-58q0,-47 21,-74t63,-28t93,19t92,66q9,10 12,10q4,0 13,-9t10,-14t-9,-16t-30,-27t-46,-31t-63,-25t-76,-10q-79,0 -122,53t-44,126zm334,185q-6,52 -68,52q-33,0 -61,-14t-45,-34t-29,-41t-16,-36t-5,-19q0,-1 20,-1q113,0 158,24t46,69z" stroke-width="10" id="svg_334"/>
        <path d="m96,585q56,81 153,81q48,0 96,-26t78,-92q37,-83 37,-228q0,-155 -43,-237q-20,-42 -55,-67t-61,-31t-51,-7q-26,0 -52,6t-61,32t-55,67q-43,82 -43,237q0,174 57,265zm225,12q-30,32 -71,32q-42,0 -72,-32q-25,-26 -33,-72t-8,-192q0,-158 8,-208t36,-79q28,-30 69,-30q40,0 68,30q29,30 36,84t8,203q0,145 -8,191t-33,73z" stroke-width="10" id="svg_333"/>
        <path d="m132,622q-7,7 -11,9t-16,3t-43,3l-33,0l0,46l106,0q86,0 97,-1t17,-7q1,-1 105,-277l104,-274l104,274q104,276 106,277q3,6 15,7t98,1l106,0l0,-46l-33,0q-40,-1 -51,-3t-18,-12l0,-561q6,-10 17,-12t52,-3l33,0l0,-46l-11,0q-21,3 -140,3q-131,0 -140,-3l-11,0l0,46l33,0q42,1 51,3t19,12l0,286q0,77 0,114t0,85t0,67l-1,19q-233,-618 -237,-625q-4,-6 -20,-6t-20,6q-1,2 -118,309l-116,308l0,-18q-1,-18 -1,-63t0,-80t0,-107l1,-270q11,-36 85,-40l17,0l0,-46l-9,0q-15,3 -115,3q-102,0 -117,-3l-8,0l0,46l17,0q32,2 52,10t24,13t10,17l0,536z" stroke-width="10" id="svg_332"/>
        <path d="m347,338q-10,0 -53,11t-63,11q-20,0 -34,-4t-23,-10t-12,-11t-7,-11l-2,-4q-3,-3 -15,-3q-21,0 -21,8q0,5 3,14q13,39 43,67t66,34q12,2 17,2q25,0 45,-17t38,-33t38,-17q22,0 44,33t23,33q1,1 15,1l13,0q6,-6 6,-8q0,-4 -5,-14t-14,-21t-17,-22t-14,-19l-7,-9q-43,-51 -136,-135t-115,-108l-12,-12l15,-1q22,0 64,-11t63,-11q38,0 70,19t42,50q4,9 7,11t15,2q19,0 19,-10q0,-5 -1,-9q-17,-62 -66,-103t-98,-42q-26,0 -46,17t-39,34t-38,17q-44,0 -79,-60q-6,-8 -17,-8l-5,0l-13,0q-6,6 -6,9q0,15 58,86q39,45 132,130t115,108q12,16 7,16z" stroke-width="10" id="svg_331"/>
        <path d="m56,342q0,86 33,158t85,115t109,66t108,24q3,0 9,0t8,-1q91,0 161,-68l13,-12l30,39q27,37 31,41q1,0 4,0t6,1l4,0q3,0 9,-6l0,-280l-6,-6l-34,0q-6,6 -7,17q-9,82 -48,142t-95,79q-19,7 -50,7q-104,0 -174,-70q-79,-79 -79,-246q0,-121 38,-191q21,-40 52,-67t65,-39t56,-16t44,-5q89,0 143,69t55,151q0,7 6,13l28,0l6,-6l0,-15q-5,-103 -76,-180t-187,-77q-141,0 -244,104t-103,259z" stroke-width="10" id="svg_330"/>
        <path d="m117,59q0,-33 25,-33q37,0 63,105q6,20 10,21q2,1 10,1l4,0q9,0 12,0t5,-2t2,-7q-1,-6 -3,-16t-11,-38t-20,-47t-31,-37t-46,-17q-36,0 -67,22t-32,74q0,12 1,17l65,258q63,255 63,263q0,3 -1,5t-4,4t-5,2t-8,1t-8,1t-9,1t-10,0q-10,0 -13,0t-8,1t-6,3t-1,6q0,2 2,14q5,19 11,21t72,6q15,1 34,2t30,3t11,1q12,0 12,-8q0,-11 -73,-300t-75,-303q0,-2 0,-8t-1,-10l0,-6z" stroke-width="10" id="svg_329"/>
        <path d="m128,619q-7,7 -11,9t-16,3t-43,3l-33,0l0,46l572,0l0,-4q2,-6 14,-116t14,-116l0,-4l-40,0l0,4q-1,3 -3,21q-4,35 -12,61t-17,45t-25,30t-30,18t-41,10t-46,4t-58,1q-87,0 -102,-1t-18,-11q0,0 0,-1q-1,-2 -1,-124l0,-121l54,0q73,2 91,9q36,16 39,84q0,2 0,4l0,20l40,0l0,-280l-40,0l0,20q-1,35 -8,55t-25,29t-34,11t-52,2q-7,0 -11,0l-54,0l0,-134l0,-82q0,-57 5,-62q6,-5 52,-5l51,0l51,0q37,0 61,3t53,12t47,30t32,54q10,26 15,54t8,47t5,23l0,3l40,0l0,-3q-1,-3 -20,-133t-22,-134l0,-3l-585,0l0,46l33,0q42,1 51,3t19,12l0,558z" stroke-width="10" id="svg_328"/>
        <path d="m41,46l14,0q39,0 47,14l0,8q0,9 0,23t0,31t1,39t0,42q0,31 0,66t-1,59l0,23q-3,19 -14,25t-45,9l-18,0l0,23q0,23 2,23l10,1q10,1 28,2t37,2q17,1 36,2t29,3t11,1l3,0l0,-40q0,-38 1,-38t5,5t12,15t19,18t29,19t38,16q20,5 51,5q114,-4 127,-113q1,-7 1,-139l0,-86q0,-38 2,-45t11,-10q21,-3 49,-3l16,0l0,-46l-8,0l-24,1q-23,1 -50,1t-38,1q-103,0 -112,-3l-8,0l0,46l16,0q61,0 61,16q1,2 1,138q-1,135 -2,143q-6,28 -20,42t-24,17t-26,2q-45,0 -79,-34q-27,-27 -34,-55t-8,-83l0,-64l0,-60q0,-30 1,-40t3,-13t9,-6q21,-3 49,-3l16,0l0,-46l-8,0l-23,1q-24,1 -51,1t-38,1q-103,0 -112,-3l-8,0l0,46l16,0z" stroke-width="10" id="svg_327"/>
        <path stroke-width="10" id="svg_326"/>
        <path d="m128,619q-7,7 -11,9t-16,3t-43,3l-33,0l0,46l557,0l0,-4q2,-6 14,-116t14,-116l0,-4l-40,0l0,4q-7,49 -9,57q-6,37 -18,62t-27,38t-39,21t-46,9t-57,2l-40,0l-48,0q-34,0 -42,-2t-11,-10q-1,-2 -1,-131l0,-127l52,0q3,0 19,0t24,1t22,3t23,6t17,12q18,18 21,74l0,21l40,0l0,-280l-40,0l0,21q-3,55 -21,75q-8,7 -18,11t-23,6t-21,3t-24,1t-19,0l-52,0l0,-128l1,-128q7,-7 12,-9t25,-4t63,-2l27,0l0,-46l-12,0q-24,3 -166,3q-131,0 -146,-3l-11,0l0,46l33,0q42,1 51,3t19,12l0,558z" stroke-width="10" id="svg_325"/>
        <path d="m131,622q-7,7 -11,9t-16,3t-43,3l-33,0l0,46l201,0l38,0l79,0q77,0 113,-5t72,-27q43,-24 68,-61t25,-78q0,-51 -41,-93t-107,-59l-10,-3q73,-9 129,-55t56,-115q0,-68 -51,-120t-131,-64q-13,-2 -227,-3l-214,0l0,46l33,0q42,1 51,3t19,12l0,561zm380,-109q0,47 -26,81t-69,42q-1,0 -13,0t-32,0t-38,1q-67,0 -82,-1t-19,-8q-3,-4 -3,-129l0,-125l83,0l84,1l10,2q4,1 11,3t25,13t32,24t25,39t12,57zm26,-325q0,51 -28,94t-79,54l-101,1l-100,0l0,-137l0,-84q0,-59 5,-64q6,-5 100,-5l49,0q42,0 60,6q43,14 68,51t26,84z" stroke-width="10" id="svg_324"/>
        <path d="m328,0q-21,3 -148,3t-148,-3l-11,0l0,46l22,0q49,0 63,3t20,11q2,3 2,282q0,278 -2,281q-4,5 -8,7t-22,5t-53,2l-22,0l0,46l11,0q21,-3 148,-3t148,3l11,0l0,-46l-22,0q-49,0 -63,-3t-20,-11q-2,-3 -2,-281q0,-279 2,-282q4,-5 8,-7t22,-5t53,-2l22,0l0,-46l-11,0z" stroke-width="10" id="svg_323"/>
        <path d="m295,316q0,40 -27,69t-78,29q-36,0 -62,-13q-30,-19 -30,-52q-1,-5 0,-13t16,-24t43,-25q18,-5 44,-9t44,-9t32,-13q17,-8 33,-20t32,-41t17,-62q0,-62 -38,-102t-123,-41l-8,0q-52,0 -96,36l-8,-7l-9,-9q-6,-6 -12,-11l-11,-10l-8,0l-4,0q-3,0 -9,6l0,79l0,58q0,21 2,25t10,5l9,0q12,0 16,-4t5,-12t7,-27t19,-42q35,-51 97,-51q97,0 97,78q0,29 -18,47q-20,24 -83,36t-83,23q-36,17 -57,46t-21,62q0,39 17,66t43,40t50,18t44,5l11,0q40,0 70,-15l15,-8l9,7q10,9 22,17l8,0l4,0q3,0 9,-6l0,-132l-6,-6l-28,0q-6,6 -6,12z" stroke-width="10" id="svg_322"/>
        <path d="m27,422q53,4 82,56t32,122l0,15l40,0l0,-184l135,0l0,-46l-135,0l0,-144q1,-125 1,-141t7,-32q14,-39 49,-39q44,0 54,71q1,8 1,46l0,35l40,0l0,-35l0,-12q0,-77 -42,-117q-27,-27 -70,-27q-34,0 -59,12t-38,31t-19,35t-7,32q-1,7 -1,148l0,137l-79,0l0,37l9,0z" stroke-width="10" id="svg_321"/>
        <path d="m137,305t-22,0t-37,15t-15,39q0,35 34,62t121,27q73,0 118,-32t60,-76q5,-14 5,-31t1,-115l0,-70q0,-48 5,-66t21,-18q15,0 20,16t5,53l0,36l40,0l0,-39q-1,-40 -3,-47q-9,-30 -35,-47t-55,-18t-47,18t-24,42l0,4l-2,-3q-2,-3 -5,-6t-8,-9t-12,-11t-15,-12t-18,-11t-22,-8t-26,-6t-31,-3q-60,0 -108,31t-48,87q0,21 7,40t27,41t48,37t78,28t110,15l14,0l0,22q0,34 -6,50q-22,71 -97,71q-18,0 -34,-1t-25,-4t-8,-3q22,-15 22,-44q0,-25 -16,-39l-17,-15zm-11,-199q0,-31 24,-55t59,-25q38,0 67,23t39,60q2,7 3,66q0,58 -1,58q-8,0 -21,-1t-45,-9t-58,-20t-46,-37t-21,-60z" stroke-width="10" id="svg_320"/>
        <path d="m370,305t-21,0t-36,15t-16,38q0,23 15,38q5,5 5,6t-10,2q-26,4 -49,4q-49,0 -80,-32q-47,-47 -47,-157q0,-82 31,-129q41,-61 110,-61q41,0 66,26t36,62q2,8 5,10t16,2l14,0q6,-6 6,-9q0,-4 -4,-16t-16,-33t-29,-38t-48,-31t-69,-13q-86,0 -150,64t-65,161q0,104 65,169t151,65t120,-27t34,-64q0,-23 -17,-37l-17,-15z" stroke-width="10" id="svg_319"/>
        <path d="m69,609q0,28 18,44t44,16q23,-2 40,-17t17,-43q0,-30 -17,-45t-42,-15q-25,0 -42,15t-18,45zm178,-609q-15,3 -104,3q-11,0 -37,0t-50,-2l-22,-1l-8,0l0,46l16,0q28,0 49,3q9,4 11,11t2,42l0,103l0,88q0,52 -2,66t-14,19q-14,7 -47,7l-11,0l0,23q0,23 2,23l10,1q10,1 28,2t36,2q17,1 36,2t29,3t11,1l3,0l0,-380q5,-10 12,-12t35,-4l23,0l0,-46l-8,0z" stroke-width="10" id="svg_318"/>
        <path d="m28,214q0,95 65,164t157,70q90,0 155,-68t66,-165q0,-95 -64,-160t-157,-65q-97,0 -159,67t-63,157zm222,-184q122,0 122,163l0,32l0,25q0,22 -1,38t-7,38t-16,36t-31,28t-49,20q-5,1 -16,1q-30,0 -57,-12q-43,-22 -56,-61t-13,-92l0,-20q0,-96 19,-135q32,-61 105,-61z" stroke-width="10" id="svg_317"/>
        <path d="m42,46l14,0q39,0 47,14l0,8q0,9 0,23t0,33t1,43t0,50t0,55t0,57q0,37 0,78t0,75t0,60t-1,44t0,17q-3,19 -14,25t-45,9l-18,0l0,23q0,23 2,23l10,1q10,1 29,2t37,2q17,1 37,2t30,3t11,1l3,0l0,-315q0,-317 1,-319q4,-8 12,-11q21,-3 49,-3l16,0l0,-46l-8,0l-23,1q-23,1 -49,1t-38,1t-38,0t-50,-2l-23,-1l-8,0l0,46l16,0z" stroke-width="10" id="svg_316"/>
        <path d="m128,622q-7,7 -11,9t-16,3t-43,3l-33,0l0,46l11,0q21,-3 144,-3q135,0 144,3l11,0l0,-46l-33,0q-40,-1 -51,-3t-18,-12l-1,-122l0,-122l285,0l0,244q-7,7 -11,9t-16,3t-43,3l-33,0l0,46l11,0q21,-3 144,-3q135,0 144,3l11,0l0,-46l-33,0q-40,-1 -51,-3t-18,-12l0,-561q6,-10 17,-12t52,-3l33,0l0,-46l-11,0q-21,3 -144,3q-135,0 -144,-3l-11,0l0,46l33,0q42,1 51,3t19,12l0,271l-285,0l0,-135l1,-136q6,-10 17,-12t52,-3l33,0l0,-46l-11,0q-21,3 -144,3q-135,0 -144,-3l-11,0l0,46l33,0q42,1 51,3t19,12l0,561z" stroke-width="10" id="svg_315"/>
        <path d="m11,179l0,73l266,0l0,-73l-266,0z" stroke-width="10" id="svg_314"/>
        <path d="m55,507q0,83 57,140t131,57l14,0q85,0 148,-63l21,31q5,7 10,15t10,13l3,4q1,0 4,0t6,1l4,0q3,0 9,-6l0,-237l-6,-6l-18,0q-11,0 -13,3t-5,20q-17,126 -101,167q-37,16 -75,16q-53,0 -86,-36t-33,-84q0,-34 17,-62t48,-45q10,-4 86,-23t84,-23q57,-22 93,-75t37,-123q0,-81 -52,-146t-147,-66q-56,0 -100,17t-61,31l-18,14q-4,-5 -15,-20t-20,-28t-9,-14q-2,-1 -10,-1l-4,0q-3,0 -9,6l0,117q0,119 1,121q2,5 20,5l13,0q6,-6 6,-13q0,-32 10,-63t34,-61t66,-48t100,-18q47,0 81,38t34,93q0,43 -22,78t-58,48q-56,14 -74,19q-5,1 -27,6t-33,8t-32,11t-33,18t-29,24t-27,35q-30,49 -30,105z" stroke-width="10" id="svg_313"/>
        <path d="m130,622q-7,7 -11,9t-16,3t-43,3l-33,0l0,46l187,0q23,0 62,0t55,1q88,0 140,-13t96,-55q57,-53 57,-127q0,-68 -51,-117t-122,-65q-22,-5 -123,-6l-94,0l0,-120q0,-119 3,-123q8,-11 67,-12l33,0l0,-46l-11,0q-21,3 -144,3q-135,0 -144,-3l-11,0l0,46l33,0q42,1 51,3t19,12l0,561zm377,-134q0,26 -1,40t-6,36t-17,33t-33,23t-53,15q-12,2 -90,2l-21,0q-49,0 -52,-9q-3,-4 -3,-145l0,-141l71,0l37,0q51,0 84,7t58,33q26,29 26,106z" stroke-width="10" id="svg_312"/>
        <path d="m740,435q0,-115 -64,-222t-165,-171t-207,-64q-97,0 -166,57t-87,166q-1,8 -1,43q0,102 48,194t129,163q124,103 249,103q38,0 48,-1q97,-14 156,-86t60,-182zm-103,41q0,89 -46,139t-115,50q-80,0 -154,-60q-80,-63 -122,-177t-43,-212q0,-90 43,-143t114,-54q90,0 171,79t123,215q29,95 29,163z" stroke-width="10" id="svg_310"/>
        <path d="m208,74q0,-24 46,-28q18,0 18,-11q0,-1 -2,-13q-3,-14 -6,-18t-13,-4q-2,0 -12,0t-34,1t-64,1q-71,0 -91,-2l-8,0q-7,7 -7,11q2,27 13,35l14,0q70,3 102,50q6,6 181,305t178,303q7,12 24,12l8,0l17,0q6,-9 6,-10l28,-323q28,-323 30,-326q5,-11 65,-11q25,0 25,-10q0,-2 -3,-14q-3,-15 -5,-18t-14,-4q-3,0 -14,0t-39,1t-73,1q-94,0 -123,-2l-12,0q-6,6 -6,9t2,18q4,13 6,16l4,3l20,0q54,3 64,17l-12,150l-238,0l-34,-58q-41,-69 -41,-81zm308,186q0,11 -12,156t-14,146l-27,-43q-16,-27 -63,-107l-90,-152l103,-1q103,0 103,1z" stroke-width="10" id="svg_311"/>
       </defs>
       <g stroke="rgb(68, 68, 68)" id="svg_553" transform="matrix(1 0 0 -1 0 0)" stroke-width="0" fill="rgb(68, 68, 68)">
        <use id="svg_554" xlink:href="#svg_310"/>
       </g>
      </svg>
     </g>
    </svg>
   </g>
  </g>
  <g id="svg_555" class="annotation">
   <g transform="matrix(2.16667 0 0 2.16667 -548.917 -221.083)" id="svg_397" class="annotation-text-g">
    <svg id="svg_556" height="26" width="25" y="189" x="470">
     <rect stroke="rgb(0, 0, 0)" id="svg_557" stroke-width="1px" stroke-opacity="0" fill="rgb(0, 0, 0)" fill-opacity="0" height="25" width="24" y="0.5" x="0.5" class="bg"/>
     <g id="svg_441" class="annotation-math-group">
      <svg id="svg_558" width="1.79ex" y="2" x="1" preserveAspectRatio="xMinYMin meet" height="1.868ex" class="annotation-math" viewBox="0 -755.8452691183917 755 795.6905382367834" xmlns:xlink="http://www.w3.org/1999/xlink">
       <defs>
        <path d="m52,289q7,42 54,97t116,56q35,0 64,-18t43,-45q42,63 101,63q37,0 64,-22t28,-59q0,-29 -14,-47t-27,-22t-23,-4q-19,0 -31,11t-12,29q0,46 50,63q-11,13 -40,13q-13,0 -19,-2q-38,-16 -56,-66q-60,-221 -60,-258q0,-28 16,-40t35,-12q37,0 73,33t49,81q3,10 6,11t16,2l4,0q15,0 15,-8q0,-1 -2,-11q-16,-57 -62,-101t-107,-44q-70,0 -106,63q-41,-62 -94,-62l-6,0q-49,0 -70,26t-22,55q0,32 19,52t45,20q43,0 43,-42q0,-20 -12,-35t-23,-20t-13,-5l-3,-1q0,-1 6,-4t16,-7t19,-3q36,0 62,45q9,16 23,68t28,108t16,66q5,27 5,39q0,28 -15,40t-34,12q-40,0 -75,-32t-49,-82q-2,-9 -5,-10t-16,-2l-14,0q-6,6 -6,11z" stroke-width="10" id="svg_440"/>
        <path d="m21,287q0,14 15,48t48,71t74,36q41,0 66,-23t26,-64q-2,-19 -3,-21q0,-3 -16,-46t-33,-97t-16,-86q0,-43 14,-60t42,-18q23,0 43,11t31,23t27,33q0,1 5,20t14,59t19,74q38,150 42,157q13,27 43,27q13,0 21,-7t11,-12t2,-9q0,-13 -49,-210t-56,-216q-28,-83 -97,-132t-138,-50q-45,0 -79,22t-34,66q0,22 7,37t19,22t20,10t17,3q44,0 44,-42q0,-20 -12,-35t-23,-20t-13,-5l-3,-1q2,-5 19,-12t34,-7l8,0q17,0 26,2q33,9 61,38t43,62t23,56t8,30l-6,-4q-6,-4 -19,-11t-26,-12q-20,-5 -39,-5q-46,0 -81,22t-46,71q-1,7 -1,31q0,57 35,149t35,117q0,1 0,2q0,9 0,12t-4,7t-11,4l-4,0q-23,0 -42,-19t-30,-41t-17,-42t-8,-22q-2,-2 -16,-2l-14,0q-6,6 -6,9z" stroke-width="10" id="svg_439"/>
        <path d="m56,347q0,13 14,20l637,0q15,-8 15,-20q0,-11 -14,-19l-318,-1l-318,0q-16,5 -16,20zm0,-194q0,15 16,20l636,0q14,-10 14,-20q0,-13 -15,-20l-637,0q-14,7 -14,20z" stroke-width="10" id="svg_438"/>
        <path d="m109,429q-27,0 -43,18t-16,44q0,71 53,123t132,52q91,0 152,-56t62,-145q0,-43 -20,-82t-48,-68t-80,-74q-36,-31 -100,-92l-59,-56l76,-1q157,0 167,5q7,2 24,89l0,3l40,0l0,-3q-1,-3 -13,-91t-15,-92l0,-3l-371,0l0,19l0,12q0,7 6,15t30,35q29,32 50,56q9,10 34,37t34,37t29,33t28,34t23,30t21,32t15,29t13,32t7,30t3,33q0,63 -34,109t-97,46q-33,0 -58,-17t-35,-33t-10,-19q0,-1 5,-1q18,0 37,-14t19,-46q0,-25 -16,-42t-45,-18z" stroke-width="10" id="svg_437"/>
        <path d="m34,159q0,109 86,196t186,87q56,0 88,-24t33,-63q0,-29 -19,-49t-48,-21q-19,0 -30,10t-11,30t11,34t22,21t14,6l1,0q0,2 -6,6t-21,8t-34,4q-30,0 -57,-14q-21,-9 -43,-31q-44,-44 -64,-124t-21,-116q0,-46 26,-69q22,-24 58,-24l4,0q112,0 185,85q9,10 12,10q4,0 13,-9t10,-14t-9,-15t-29,-28t-45,-30t-64,-25t-80,-11q-75,0 -121,48t-47,122z" stroke-width="10" id="svg_436"/>
        <path d="m201,-11q-75,0 -121,49t-46,118q0,65 30,123t82,101q76,61 155,61q32,0 40,-1q13,-3 26,-7t35,-16t36,-30t26,-49t12,-70q0,-107 -86,-193t-189,-86zm-80,131q0,-50 26,-72t59,-22q44,0 83,32t62,84q9,21 23,74t14,92q0,44 -18,67q-24,30 -64,30q-63,0 -111,-58q-37,-44 -55,-117t-19,-110z" stroke-width="10" id="svg_435"/>
        <path d="m131,289q0,32 16,65t56,61t97,27q62,0 90,-27t29,-60q0,-32 -17,-47t-38,-16q-13,0 -24,8t-12,26q0,16 9,28t17,18t13,6q1,0 1,1q0,3 -7,9t-25,11t-39,6q-48,0 -70,-26t-23,-53q0,-25 19,-35t55,-17t52,-15q66,-29 66,-96q0,-28 -11,-56t-33,-56t-63,-44t-94,-17q-77,0 -109,29t-33,68q0,39 21,56t44,17q15,0 28,-9t14,-31q0,-26 -18,-44t-31,-18q-2,-1 -3,-1t-1,-2q1,-3 8,-8t31,-13t55,-7q36,0 62,11t38,28t17,31t5,25q0,28 -21,42t-48,17t-59,15t-47,35q-17,25 -17,58z" stroke-width="10" id="svg_434"/>
        <path d="m94,250q0,69 10,131t23,107t37,88t38,67t42,52t33,34t25,21l13,0l4,0q14,0 14,-9q0,-3 -17,-21t-41,-53t-49,-86t-42,-138t-17,-193t17,-192t41,-139t49,-86t42,-53t17,-21q0,-9 -15,-9l-3,0l-13,0l-28,24q-94,85 -137,212t-43,264z" stroke-width="10" id="svg_433"/>
        <path d="m127,463q-27,0 -42,17t-16,44q0,55 48,98t116,43q35,0 44,-1q74,-12 113,-53t40,-89q0,-52 -34,-101t-94,-71l-3,-2q0,-1 9,-3t29,-9t38,-21q82,-53 82,-140q0,-79 -62,-138t-157,-59q-80,0 -138,43t-58,109q0,28 18,45t45,18q28,0 46,-18t18,-45q0,-11 -3,-20t-7,-16t-11,-12t-12,-8t-10,-4t-8,-3l-4,-1q51,-45 124,-45q55,0 83,53q17,33 17,101l0,20q0,95 -64,127q-15,6 -61,7l-42,1l-3,2q-2,3 -2,16q0,18 8,18q28,0 58,5q34,5 62,42t28,112l0,8q0,57 -35,79q-22,14 -47,14q-32,0 -59,-11t-38,-23t-11,-12l3,0q3,-1 8,-2t10,-5t12,-7t10,-11t8,-15t3,-20q0,-22 -14,-39t-45,-18z" stroke-width="10" id="svg_432"/>
        <path d="m60,749l4,1q5,0 10,0l12,0l28,-24q94,-85 137,-212t43,-264q0,-68 -10,-131t-23,-107t-37,-88t-38,-67t-41,-51t-32,-33t-23,-19q-3,-3 -4,-4l-12,0q-8,0 -11,0t-5,3t-3,9q1,1 11,13q155,161 155,475t-155,475q-10,12 -11,13q0,8 5,11z" stroke-width="10" id="svg_431"/>
        <path d="m56,237t0,13t14,20l299,0l0,150l1,150q10,13 19,13q13,0 20,-15l0,-298l298,0q15,-8 15,-20t-15,-20l-298,0l0,-298q-8,-14 -18,-14l-2,0l-2,0q-12,0 -18,14l0,298l-299,0q-14,7 -14,20l0,-13z" stroke-width="10" id="svg_430"/>
        <path d="m213,578l-13,-5q-14,-5 -40,-10t-58,-7l-19,0l0,46l19,0q47,2 87,15t56,24t28,22q2,3 12,3q9,0 17,-6l0,-299l1,-300q7,-7 12,-9t24,-4t62,-2l26,0l0,-46l-11,0q-21,3 -159,3q-136,0 -157,-3l-12,0l0,46l26,0q22,0 38,0t25,1t16,3t8,2t6,5t6,4l0,517z" stroke-width="10" id="svg_429"/>
        <path d="m118,-162q2,0 6,-2t11,-3t12,-1q13,0 24,13t16,29q10,27 34,153t46,240t22,115l0,3l-47,0q-47,0 -50,2q-4,3 -4,10l7,28q2,5 8,5t47,1q48,0 48,1q0,2 9,50t12,58q37,165 146,165q37,-2 61,-22t24,-53q0,-36 -21,-52t-42,-17q-44,0 -44,42q0,19 11,33t24,21l9,5q-16,6 -30,6q-12,0 -23,-10t-15,-28q-7,-29 -16,-78t-16,-83t-7,-36q0,-2 55,-2q45,0 52,-1t11,-6q1,-4 -2,-17t-5,-16q-2,-5 -9,-5t-54,-1l-56,0l-23,-122q-48,-248 -67,-310q-27,-85 -70,-126q-37,-32 -73,-32q-32,0 -58,19t-26,54q0,37 21,54t42,17q44,0 44,-42q0,-19 -11,-33t-24,-21l-9,-5z" stroke-width="10" id="svg_428"/>
        <path d="m70,417t0,77t54,124t124,48q71,0 126,-42t55,-109q0,-30 -11,-56t-26,-42t-31,-28t-26,-18t-11,-8l14,-9q14,-10 28,-20t16,-11q75,-59 75,-149q0,-79 -58,-137t-150,-59q-90,0 -148,51t-58,126q0,108 129,180l-18,13q-21,13 -27,20q-57,49 -57,126l0,-77zm216,-31l6,4q6,4 9,6t10,7t12,10t11,12t11,13t10,16t9,17t5,20t2,22q0,43 -29,73t-67,38q-7,1 -33,1q-41,0 -77,-26t-37,-65q0,-23 13,-42t26,-29t50,-32q7,-5 11,-7l58,-38zm-36,-365q58,0 100,34t42,82q0,17 -5,32t-12,25t-22,22t-23,18t-29,19t-27,17q-14,9 -30,19t-26,17l-8,5q-6,0 -29,-17t-48,-55t-26,-82q0,-59 43,-97t100,-39z" stroke-width="10" id="svg_427"/>
        <path d="m78,60q0,24 17,42t43,18q24,0 42,-16t19,-43q0,-25 -17,-43t-43,-18t-43,17t-18,43z" stroke-width="10" id="svg_426"/>
        <path d="m84,237t0,13t14,20l581,0q15,-8 15,-20t-15,-20l-581,0q-14,7 -14,20l0,-13z" stroke-width="10" id="svg_425"/>
        <path d="m55,458q1,2 17,109l16,107q0,2 20,2l20,0l0,-4q0,-10 15,-17t52,-9t169,-2l121,0l0,-39l-68,-93q-9,-12 -30,-40t-27,-37t-21,-32t-20,-36t-14,-37t-13,-46t-8,-54t-6,-68t-3,-82q0,-14 0,-28t-1,-24l0,-9q-4,-17 -19,-29t-34,-12q-11,0 -21,3t-21,19t-11,40q0,158 97,328q20,32 84,121l46,63l-93,0q-174,0 -183,-6q-6,-3 -11,-24t-10,-43l-3,-21l0,-3l-40,0l0,3z" stroke-width="10" id="svg_424"/>
        <path d="m229,286q-13,134 -13,150q0,18 24,28q1,0 5,0t6,1q12,-1 22,-9t10,-20q0,-17 -6,-80t-7,-70l58,42q56,41 61,44t10,3q13,0 24,-10t12,-27q0,-13 -10,-23q-5,-3 -68,-33t-68,-32l66,-31l70,-35q9,-9 9,-23q0,-15 -9,-25t-24,-11q-8,0 -18,6t-55,40l-58,42q13,-134 13,-150q0,-10 -7,-19t-26,-9q-19,0 -26,9t-8,19q0,17 6,80t7,70l-58,-42q-56,-41 -61,-44q-4,-3 -10,-3q-13,0 -24,10t-12,27q0,5 0,8t3,6t5,6t9,7t13,7t19,9t25,11t32,15t40,20l-136,65q-9,9 -9,23q0,15 9,25t24,11q8,0 18,-6t55,-40l58,-42z" stroke-width="10" id="svg_423"/>
        <path d="m39,168q0,57 19,104t49,78t67,52t70,31t63,9l3,0q45,0 78,-22t33,-65q0,-90 -111,-118q-49,-13 -134,-14q-37,0 -38,-2q0,-2 -6,-35t-7,-58q0,-47 21,-74t63,-28t93,19t92,66q9,10 12,10q4,0 13,-9t10,-14t-9,-16t-30,-27t-46,-31t-63,-25t-76,-10q-79,0 -122,53t-44,126zm334,185q-6,52 -68,52q-33,0 -61,-14t-45,-34t-29,-41t-16,-36t-5,-19q0,-1 20,-1q113,0 158,24t46,69z" stroke-width="10" id="svg_422"/>
        <path d="m96,585q56,81 153,81q48,0 96,-26t78,-92q37,-83 37,-228q0,-155 -43,-237q-20,-42 -55,-67t-61,-31t-51,-7q-26,0 -52,6t-61,32t-55,67q-43,82 -43,237q0,174 57,265zm225,12q-30,32 -71,32q-42,0 -72,-32q-25,-26 -33,-72t-8,-192q0,-158 8,-208t36,-79q28,-30 69,-30q40,0 68,30q29,30 36,84t8,203q0,145 -8,191t-33,73z" stroke-width="10" id="svg_421"/>
        <path d="m132,622q-7,7 -11,9t-16,3t-43,3l-33,0l0,46l106,0q86,0 97,-1t17,-7q1,-1 105,-277l104,-274l104,274q104,276 106,277q3,6 15,7t98,1l106,0l0,-46l-33,0q-40,-1 -51,-3t-18,-12l0,-561q6,-10 17,-12t52,-3l33,0l0,-46l-11,0q-21,3 -140,3q-131,0 -140,-3l-11,0l0,46l33,0q42,1 51,3t19,12l0,286q0,77 0,114t0,85t0,67l-1,19q-233,-618 -237,-625q-4,-6 -20,-6t-20,6q-1,2 -118,309l-116,308l0,-18q-1,-18 -1,-63t0,-80t0,-107l1,-270q11,-36 85,-40l17,0l0,-46l-9,0q-15,3 -115,3q-102,0 -117,-3l-8,0l0,46l17,0q32,2 52,10t24,13t10,17l0,536z" stroke-width="10" id="svg_420"/>
        <path d="m347,338q-10,0 -53,11t-63,11q-20,0 -34,-4t-23,-10t-12,-11t-7,-11l-2,-4q-3,-3 -15,-3q-21,0 -21,8q0,5 3,14q13,39 43,67t66,34q12,2 17,2q25,0 45,-17t38,-33t38,-17q22,0 44,33t23,33q1,1 15,1l13,0q6,-6 6,-8q0,-4 -5,-14t-14,-21t-17,-22t-14,-19l-7,-9q-43,-51 -136,-135t-115,-108l-12,-12l15,-1q22,0 64,-11t63,-11q38,0 70,19t42,50q4,9 7,11t15,2q19,0 19,-10q0,-5 -1,-9q-17,-62 -66,-103t-98,-42q-26,0 -46,17t-39,34t-38,17q-44,0 -79,-60q-6,-8 -17,-8l-5,0l-13,0q-6,6 -6,9q0,15 58,86q39,45 132,130t115,108q12,16 7,16z" stroke-width="10" id="svg_419"/>
        <path d="m56,342q0,86 33,158t85,115t109,66t108,24q3,0 9,0t8,-1q91,0 161,-68l13,-12l30,39q27,37 31,41q1,0 4,0t6,1l4,0q3,0 9,-6l0,-280l-6,-6l-34,0q-6,6 -7,17q-9,82 -48,142t-95,79q-19,7 -50,7q-104,0 -174,-70q-79,-79 -79,-246q0,-121 38,-191q21,-40 52,-67t65,-39t56,-16t44,-5q89,0 143,69t55,151q0,7 6,13l28,0l6,-6l0,-15q-5,-103 -76,-180t-187,-77q-141,0 -244,104t-103,259z" stroke-width="10" id="svg_418"/>
        <path d="m117,59q0,-33 25,-33q37,0 63,105q6,20 10,21q2,1 10,1l4,0q9,0 12,0t5,-2t2,-7q-1,-6 -3,-16t-11,-38t-20,-47t-31,-37t-46,-17q-36,0 -67,22t-32,74q0,12 1,17l65,258q63,255 63,263q0,3 -1,5t-4,4t-5,2t-8,1t-8,1t-9,1t-10,0q-10,0 -13,0t-8,1t-6,3t-1,6q0,2 2,14q5,19 11,21t72,6q15,1 34,2t30,3t11,1q12,0 12,-8q0,-11 -73,-300t-75,-303q0,-2 0,-8t-1,-10l0,-6z" stroke-width="10" id="svg_417"/>
        <path d="m128,619q-7,7 -11,9t-16,3t-43,3l-33,0l0,46l572,0l0,-4q2,-6 14,-116t14,-116l0,-4l-40,0l0,4q-1,3 -3,21q-4,35 -12,61t-17,45t-25,30t-30,18t-41,10t-46,4t-58,1q-87,0 -102,-1t-18,-11q0,0 0,-1q-1,-2 -1,-124l0,-121l54,0q73,2 91,9q36,16 39,84q0,2 0,4l0,20l40,0l0,-280l-40,0l0,20q-1,35 -8,55t-25,29t-34,11t-52,2q-7,0 -11,0l-54,0l0,-134l0,-82q0,-57 5,-62q6,-5 52,-5l51,0l51,0q37,0 61,3t53,12t47,30t32,54q10,26 15,54t8,47t5,23l0,3l40,0l0,-3q-1,-3 -20,-133t-22,-134l0,-3l-585,0l0,46l33,0q42,1 51,3t19,12l0,558z" stroke-width="10" id="svg_416"/>
        <path d="m41,46l14,0q39,0 47,14l0,8q0,9 0,23t0,31t1,39t0,42q0,31 0,66t-1,59l0,23q-3,19 -14,25t-45,9l-18,0l0,23q0,23 2,23l10,1q10,1 28,2t37,2q17,1 36,2t29,3t11,1l3,0l0,-40q0,-38 1,-38t5,5t12,15t19,18t29,19t38,16q20,5 51,5q114,-4 127,-113q1,-7 1,-139l0,-86q0,-38 2,-45t11,-10q21,-3 49,-3l16,0l0,-46l-8,0l-24,1q-23,1 -50,1t-38,1q-103,0 -112,-3l-8,0l0,46l16,0q61,0 61,16q1,2 1,138q-1,135 -2,143q-6,28 -20,42t-24,17t-26,2q-45,0 -79,-34q-27,-27 -34,-55t-8,-83l0,-64l0,-60q0,-30 1,-40t3,-13t9,-6q21,-3 49,-3l16,0l0,-46l-8,0l-23,1q-24,1 -51,1t-38,1q-103,0 -112,-3l-8,0l0,46l16,0z" stroke-width="10" id="svg_415"/>
        <path stroke-width="10" id="svg_414"/>
        <path d="m128,619q-7,7 -11,9t-16,3t-43,3l-33,0l0,46l557,0l0,-4q2,-6 14,-116t14,-116l0,-4l-40,0l0,4q-7,49 -9,57q-6,37 -18,62t-27,38t-39,21t-46,9t-57,2l-40,0l-48,0q-34,0 -42,-2t-11,-10q-1,-2 -1,-131l0,-127l52,0q3,0 19,0t24,1t22,3t23,6t17,12q18,18 21,74l0,21l40,0l0,-280l-40,0l0,21q-3,55 -21,75q-8,7 -18,11t-23,6t-21,3t-24,1t-19,0l-52,0l0,-128l1,-128q7,-7 12,-9t25,-4t63,-2l27,0l0,-46l-12,0q-24,3 -166,3q-131,0 -146,-3l-11,0l0,46l33,0q42,1 51,3t19,12l0,558z" stroke-width="10" id="svg_413"/>
        <path d="m131,622q-7,7 -11,9t-16,3t-43,3l-33,0l0,46l201,0l38,0l79,0q77,0 113,-5t72,-27q43,-24 68,-61t25,-78q0,-51 -41,-93t-107,-59l-10,-3q73,-9 129,-55t56,-115q0,-68 -51,-120t-131,-64q-13,-2 -227,-3l-214,0l0,46l33,0q42,1 51,3t19,12l0,561zm380,-109q0,47 -26,81t-69,42q-1,0 -13,0t-32,0t-38,1q-67,0 -82,-1t-19,-8q-3,-4 -3,-129l0,-125l83,0l84,1l10,2q4,1 11,3t25,13t32,24t25,39t12,57zm26,-325q0,51 -28,94t-79,54l-101,1l-100,0l0,-137l0,-84q0,-59 5,-64q6,-5 100,-5l49,0q42,0 60,6q43,14 68,51t26,84z" stroke-width="10" id="svg_412"/>
        <path d="m328,0q-21,3 -148,3t-148,-3l-11,0l0,46l22,0q49,0 63,3t20,11q2,3 2,282q0,278 -2,281q-4,5 -8,7t-22,5t-53,2l-22,0l0,46l11,0q21,-3 148,-3t148,3l11,0l0,-46l-22,0q-49,0 -63,-3t-20,-11q-2,-3 -2,-281q0,-279 2,-282q4,-5 8,-7t22,-5t53,-2l22,0l0,-46l-11,0z" stroke-width="10" id="svg_411"/>
        <path d="m295,316q0,40 -27,69t-78,29q-36,0 -62,-13q-30,-19 -30,-52q-1,-5 0,-13t16,-24t43,-25q18,-5 44,-9t44,-9t32,-13q17,-8 33,-20t32,-41t17,-62q0,-62 -38,-102t-123,-41l-8,0q-52,0 -96,36l-8,-7l-9,-9q-6,-6 -12,-11l-11,-10l-8,0l-4,0q-3,0 -9,6l0,79l0,58q0,21 2,25t10,5l9,0q12,0 16,-4t5,-12t7,-27t19,-42q35,-51 97,-51q97,0 97,78q0,29 -18,47q-20,24 -83,36t-83,23q-36,17 -57,46t-21,62q0,39 17,66t43,40t50,18t44,5l11,0q40,0 70,-15l15,-8l9,7q10,9 22,17l8,0l4,0q3,0 9,-6l0,-132l-6,-6l-28,0q-6,6 -6,12z" stroke-width="10" id="svg_410"/>
        <path d="m27,422q53,4 82,56t32,122l0,15l40,0l0,-184l135,0l0,-46l-135,0l0,-144q1,-125 1,-141t7,-32q14,-39 49,-39q44,0 54,71q1,8 1,46l0,35l40,0l0,-35l0,-12q0,-77 -42,-117q-27,-27 -70,-27q-34,0 -59,12t-38,31t-19,35t-7,32q-1,7 -1,148l0,137l-79,0l0,37l9,0z" stroke-width="10" id="svg_409"/>
        <path d="m137,305t-22,0t-37,15t-15,39q0,35 34,62t121,27q73,0 118,-32t60,-76q5,-14 5,-31t1,-115l0,-70q0,-48 5,-66t21,-18q15,0 20,16t5,53l0,36l40,0l0,-39q-1,-40 -3,-47q-9,-30 -35,-47t-55,-18t-47,18t-24,42l0,4l-2,-3q-2,-3 -5,-6t-8,-9t-12,-11t-15,-12t-18,-11t-22,-8t-26,-6t-31,-3q-60,0 -108,31t-48,87q0,21 7,40t27,41t48,37t78,28t110,15l14,0l0,22q0,34 -6,50q-22,71 -97,71q-18,0 -34,-1t-25,-4t-8,-3q22,-15 22,-44q0,-25 -16,-39l-17,-15zm-11,-199q0,-31 24,-55t59,-25q38,0 67,23t39,60q2,7 3,66q0,58 -1,58q-8,0 -21,-1t-45,-9t-58,-20t-46,-37t-21,-60z" stroke-width="10" id="svg_408"/>
        <path d="m370,305t-21,0t-36,15t-16,38q0,23 15,38q5,5 5,6t-10,2q-26,4 -49,4q-49,0 -80,-32q-47,-47 -47,-157q0,-82 31,-129q41,-61 110,-61q41,0 66,26t36,62q2,8 5,10t16,2l14,0q6,-6 6,-9q0,-4 -4,-16t-16,-33t-29,-38t-48,-31t-69,-13q-86,0 -150,64t-65,161q0,104 65,169t151,65t120,-27t34,-64q0,-23 -17,-37l-17,-15z" stroke-width="10" id="svg_407"/>
        <path d="m69,609q0,28 18,44t44,16q23,-2 40,-17t17,-43q0,-30 -17,-45t-42,-15q-25,0 -42,15t-18,45zm178,-609q-15,3 -104,3q-11,0 -37,0t-50,-2l-22,-1l-8,0l0,46l16,0q28,0 49,3q9,4 11,11t2,42l0,103l0,88q0,52 -2,66t-14,19q-14,7 -47,7l-11,0l0,23q0,23 2,23l10,1q10,1 28,2t36,2q17,1 36,2t29,3t11,1l3,0l0,-380q5,-10 12,-12t35,-4l23,0l0,-46l-8,0z" stroke-width="10" id="svg_406"/>
        <path d="m28,214q0,95 65,164t157,70q90,0 155,-68t66,-165q0,-95 -64,-160t-157,-65q-97,0 -159,67t-63,157zm222,-184q122,0 122,163l0,32l0,25q0,22 -1,38t-7,38t-16,36t-31,28t-49,20q-5,1 -16,1q-30,0 -57,-12q-43,-22 -56,-61t-13,-92l0,-20q0,-96 19,-135q32,-61 105,-61z" stroke-width="10" id="svg_405"/>
        <path d="m42,46l14,0q39,0 47,14l0,8q0,9 0,23t0,33t1,43t0,50t0,55t0,57q0,37 0,78t0,75t0,60t-1,44t0,17q-3,19 -14,25t-45,9l-18,0l0,23q0,23 2,23l10,1q10,1 29,2t37,2q17,1 37,2t30,3t11,1l3,0l0,-315q0,-317 1,-319q4,-8 12,-11q21,-3 49,-3l16,0l0,-46l-8,0l-23,1q-23,1 -49,1t-38,1t-38,0t-50,-2l-23,-1l-8,0l0,46l16,0z" stroke-width="10" id="svg_404"/>
        <path d="m128,622q-7,7 -11,9t-16,3t-43,3l-33,0l0,46l11,0q21,-3 144,-3q135,0 144,3l11,0l0,-46l-33,0q-40,-1 -51,-3t-18,-12l-1,-122l0,-122l285,0l0,244q-7,7 -11,9t-16,3t-43,3l-33,0l0,46l11,0q21,-3 144,-3q135,0 144,3l11,0l0,-46l-33,0q-40,-1 -51,-3t-18,-12l0,-561q6,-10 17,-12t52,-3l33,0l0,-46l-11,0q-21,3 -144,3q-135,0 -144,-3l-11,0l0,46l33,0q42,1 51,3t19,12l0,271l-285,0l0,-135l1,-136q6,-10 17,-12t52,-3l33,0l0,-46l-11,0q-21,3 -144,3q-135,0 -144,-3l-11,0l0,46l33,0q42,1 51,3t19,12l0,561z" stroke-width="10" id="svg_403"/>
        <path d="m11,179l0,73l266,0l0,-73l-266,0z" stroke-width="10" id="svg_402"/>
        <path d="m55,507q0,83 57,140t131,57l14,0q85,0 148,-63l21,31q5,7 10,15t10,13l3,4q1,0 4,0t6,1l4,0q3,0 9,-6l0,-237l-6,-6l-18,0q-11,0 -13,3t-5,20q-17,126 -101,167q-37,16 -75,16q-53,0 -86,-36t-33,-84q0,-34 17,-62t48,-45q10,-4 86,-23t84,-23q57,-22 93,-75t37,-123q0,-81 -52,-146t-147,-66q-56,0 -100,17t-61,31l-18,14q-4,-5 -15,-20t-20,-28t-9,-14q-2,-1 -10,-1l-4,0q-3,0 -9,6l0,117q0,119 1,121q2,5 20,5l13,0q6,-6 6,-13q0,-32 10,-63t34,-61t66,-48t100,-18q47,0 81,38t34,93q0,43 -22,78t-58,48q-56,14 -74,19q-5,1 -27,6t-33,8t-32,11t-33,18t-29,24t-27,35q-30,49 -30,105z" stroke-width="10" id="svg_401"/>
        <path d="m130,622q-7,7 -11,9t-16,3t-43,3l-33,0l0,46l187,0q23,0 62,0t55,1q88,0 140,-13t96,-55q57,-53 57,-127q0,-68 -51,-117t-122,-65q-22,-5 -123,-6l-94,0l0,-120q0,-119 3,-123q8,-11 67,-12l33,0l0,-46l-11,0q-21,3 -144,3q-135,0 -144,-3l-11,0l0,46l33,0q42,1 51,3t19,12l0,561zm377,-134q0,26 -1,40t-6,36t-17,33t-33,23t-53,15q-12,2 -90,2l-21,0q-49,0 -52,-9q-3,-4 -3,-145l0,-141l71,0l37,0q51,0 84,7t58,33q26,29 26,106z" stroke-width="10" id="svg_400"/>
        <path d="m740,435q0,-115 -64,-222t-165,-171t-207,-64q-97,0 -166,57t-87,166q-1,8 -1,43q0,102 48,194t129,163q124,103 249,103q38,0 48,-1q97,-14 156,-86t60,-182zm-103,41q0,89 -46,139t-115,50q-80,0 -154,-60q-80,-63 -122,-177t-43,-212q0,-90 43,-143t114,-54q90,0 171,79t123,215q29,95 29,163z" stroke-width="10" id="svg_399"/>
        <path d="m208,74q0,-24 46,-28q18,0 18,-11q0,-1 -2,-13q-3,-14 -6,-18t-13,-4q-2,0 -12,0t-34,1t-64,1q-71,0 -91,-2l-8,0q-7,7 -7,11q2,27 13,35l14,0q70,3 102,50q6,6 181,305t178,303q7,12 24,12l8,0l17,0q6,-9 6,-10l28,-323q28,-323 30,-326q5,-11 65,-11q25,0 25,-10q0,-2 -3,-14q-3,-15 -5,-18t-14,-4q-3,0 -14,0t-39,1t-73,1q-94,0 -123,-2l-12,0q-6,6 -6,9t2,18q4,13 6,16l4,3l20,0q54,3 64,17l-12,150l-238,0l-34,-58q-41,-69 -41,-81zm308,186q0,11 -12,156t-14,146l-27,-43q-16,-27 -63,-107l-90,-152l103,-1q103,0 103,1z" stroke-width="10" id="svg_398"/>
       </defs>
       <g stroke="rgb(68, 68, 68)" id="svg_559" transform="matrix(1 0 0 -1 0 0)" stroke-width="0" fill="rgb(68, 68, 68)">
        <use id="svg_560" xlink:href="#svg_398"/>
       </g>
      </svg>
     </g>
    </svg>
   </g>
  </g>
 </g>
</svg>