<?xml version="1.0" encoding="UTF-8" standalone="no"?>
<!-- Created with Inkscape (http://www.inkscape.org/) -->

<svg
   xmlns:dc="http://purl.org/dc/elements/1.1/"
   xmlns:cc="http://creativecommons.org/ns#"
   xmlns:rdf="http://www.w3.org/1999/02/22-rdf-syntax-ns#"
   xmlns:svg="http://www.w3.org/2000/svg"
   xmlns="http://www.w3.org/2000/svg"
   xmlns:sodipodi="http://sodipodi.sourceforge.net/DTD/sodipodi-0.dtd"
   xmlns:inkscape="http://www.inkscape.org/namespaces/inkscape"
   sodipodi:docname="New document 1"
   inkscape:version="0.48.3.1 r9886"
   version="1.1"
   id="svg2"
   height="541.58899"
   width="660.10565">
  <sodipodi:namedview
     id="base"
     pagecolor="#ffffff"
     bordercolor="#666666"
     borderopacity="1.0"
     inkscape:pageopacity="0.0"
     inkscape:pageshadow="2"
     inkscape:zoom="0.43141041"
     inkscape:cx="311.07776"
     inkscape:cy="84.947245"
     inkscape:document-units="px"
     inkscape:current-layer="layer1"
     showgrid="false"
     inkscape:window-width="959"
     inkscape:window-height="649"
     inkscape:window-x="104"
     inkscape:window-y="57"
     inkscape:window-maximized="0"
     fit-margin-top="0"
     fit-margin-left="0"
     fit-margin-right="0"
     fit-margin-bottom="0"
     showborder="false"
     inkscape:showpageshadow="false" />
  <defs
     id="defs4" />
  <metadata
     id="metadata7">
    <rdf:RDF>
      <cc:Work
         rdf:about="">
        <dc:format>image/svg+xml</dc:format>
        <dc:type
           rdf:resource="http://purl.org/dc/dcmitype/StillImage" />
        <dc:title></dc:title>
      </cc:Work>
    </rdf:RDF>
  </metadata>
  <g
     inkscape:label="Layer 1"
     inkscape:groupmode="layer"
     id="layer1"
     transform="translate(-60.969482,-69.539352)">
    <path
       style="fill:none;stroke:none"
       d="m 90.401154,254.97762 394.056336,0 m -197.02817,185.43826 0,-370.876528 M 418.78144,254.97762 c -9e-5,-2.61536 -0.0883,-5.23072 -0.26446,-7.84082 -0.17615,-2.6101 -0.4406,-5.21491 -0.7923,-7.80924 -0.35169,-2.59433 -0.79114,-5.17811 -1.31695,-7.74622 -0.52581,-2.56812 -1.13849,-5.12047 -1.8363,-7.65202 -0.69781,-2.53156 -1.48126,-5.04219 -2.34826,-7.527 -0.867,-2.4848 -1.81805,-4.94362 -2.85076,-7.37166 -1.0327,-2.42805 -2.14753,-4.82514 -3.34178,-7.18666 -1.19424,-2.36151 -2.46837,-4.68723 -3.81934,-6.9727 -1.35098,-2.28547 -2.77927,-4.53045 -4.28154,-6.73068 -1.50227,-2.20023 -3.07896,-4.35543 -4.72648,-6.46155 -1.64751,-2.10612 -3.36627,-4.16286 -5.15239,-6.1664 -1.78612,-2.00353 -3.64002,-3.95354 -5.55756,-5.84642 -1.91754,-1.89289 -3.89911,-3.7283 -5.94035,-5.50291 -2.04124,-1.77461 -4.1425,-3.48804 -6.29922,-5.13723 -2.15672,-1.64918 -4.36922,-3.23374 -6.63273,-4.75086 -2.2635,-1.51713 -4.57833,-2.96642 -6.93952,-4.34537 -2.36118,-1.37896 -4.76901,-2.68715 -7.21837,-3.92238 -2.44936,-1.23524 -4.9405,-2.39707 -7.46817,-3.4836 -2.52766,-1.08654 -5.09208,-2.09733 -7.68788,-3.03079 -2.59579,-0.93346 -5.22316,-1.78914 -7.87664,-2.56577 -2.65347,-0.77663 -5.33321,-1.47375 -8.03368,-2.09042 -2.70047,-0.61668 -5.42179,-1.15243 -8.15838,-1.60666 -2.73659,-0.45424 -5.48854,-0.82647 -8.25022,-1.11643 -2.76169,-0.28996 -5.53318,-0.49717 -8.30885,-0.6217 -2.77567,-0.12452 -5.55554,-0.16587 -8.33401,-0.12446 -2.77848,0.0414 -5.55554,0.16608 -8.32563,0.37327 -2.77008,0.20718 -5.53315,0.49737 -8.2837,0.8695 -2.75055,0.37212 -5.4885,0.82666 -8.20843,1.36223 -2.71994,0.53556 -5.42175,1.15262 -8.10011,1.84947 -2.67837,0.69684 -5.33316,1.47395 -7.95917,2.32927 -2.62602,0.85532 -5.22309,1.78933 -7.78618,2.79969 -2.5631,1.01035 -5.092,2.09751 -7.58184,3.25883 -2.48985,1.16132 -4.9404,2.39725 -7.34697,3.70485 -2.40658,1.30761 -4.76891,2.68733 -7.08252,4.13596 -2.31361,1.44864 -4.57821,2.96659 -6.78954,4.55041 -2.21133,1.58383 -4.36908,3.23391 -6.46923,4.94654 -2.10015,1.71263 -4.14235,3.4882 -6.12286,5.32275 -1.98052,1.83455 -3.89896,3.72844 -5.75186,5.67752 -1.85289,1.94908 -3.63985,3.95368 -5.35767,6.00944 -1.71782,2.05576 -3.3661,4.16299 -4.94193,6.31715 -1.57583,2.15417 -3.07878,4.35554 -4.50627,6.59944 -1.42749,2.24389 -2.77907,4.53055 -4.05248,6.85514 -1.27341,2.32459 -2.46817,4.68732 -3.58237,7.08325 -1.11419,2.39592 -2.14733,4.82522 -3.09783,7.28282 -0.95049,2.45761 -1.81785,4.94369 -2.60082,7.45309 -0.78296,2.50939 -1.48104,5.04224 -2.09333,7.59333 -0.61229,2.55108 -1.13828,5.1205 -1.57742,7.70299 -0.43915,2.5825 -0.79093,5.17815 -1.05516,7.78166 -0.26423,2.6035 -0.44038,5.21492 -0.52864,7.82897 -0.0882,2.61404 -0.0881,5.23071 0,7.84476 0.0881,2.61405 0.26459,5.22544 0.52864,7.82897 0.26406,2.60352 0.61619,5.19913 1.05516,7.78165 0.43897,2.58252 0.9653,5.15188 1.57742,7.703 0.61212,2.55112 1.31053,5.08388 2.09333,7.59333 0.7828,2.50944 1.65049,4.99542 2.60082,7.45308 0.95033,2.45766 1.9838,4.88684 3.09783,7.28283 1.11404,2.39599 2.30912,4.75858 3.58237,7.08324 1.27325,2.32467 2.62514,4.61117 4.05248,6.85515 1.42734,2.24397 2.93059,4.44517 4.50627,6.59943 1.57569,2.15426 3.22425,4.26129 4.94193,6.31716 1.71768,2.05586 3.50491,4.06024 5.35767,6.00943 1.85277,1.9492 3.77147,3.84286 5.75186,5.67753 1.98038,1.83467 4.02283,3.60998 6.12286,5.32274 2.10004,1.71276 4.25801,3.36259 6.46923,4.94654 2.21123,1.58395 4.47603,3.10164 6.78954,4.55041 2.31352,1.44877 4.67603,2.82821 7.08252,4.13596 2.40648,1.30775 4.8572,2.54339 7.34697,3.70485 2.48976,1.16147 5.01881,2.24833 7.58184,3.25884 2.56302,1.01051 5.16022,1.94421 7.78618,2.79969 2.62595,0.85547 5.28084,1.63226 7.95917,2.32927 2.67832,0.697 5.38021,1.31374 8.10011,1.84947 2.71989,0.53572 5.45791,0.98994 8.20843,1.36223 2.75052,0.37228 5.51363,0.66215 8.2837,0.8695 2.77008,0.20735 5.54716,0.33169 8.32563,0.37327 2.77847,0.0416 5.55833,-1.1e-4 8.33401,-0.12447 2.77568,-0.12436 5.54714,-0.3319 8.30885,-0.6217 2.7617,-0.2898 5.5136,-0.66235 8.25022,-1.11642 2.73662,-0.45407 5.45787,-0.99015 8.15838,-1.60666 2.70051,-0.61652 5.38015,-1.31395 8.03368,-2.09043 2.65353,-0.77647 5.28078,-1.63246 7.87664,-2.56577 2.59586,-0.93331 5.16014,-1.9444 7.68788,-3.03078 2.52774,-1.08639 5.01873,-2.24852 7.46817,-3.4836 2.44944,-1.23509 4.85709,-2.54357 7.21837,-3.92238 2.36128,-1.37882 4.67591,-2.82839 6.93952,-4.34538 2.26362,-1.51699 4.4759,-3.1018 6.63273,-4.75086 2.15683,-1.64906 4.25786,-3.36274 6.29922,-5.13723 2.04136,-1.77448 4.02268,-3.61014 5.94035,-5.5029 1.91767,-1.89277 3.7713,-3.843 5.55756,-5.84643 1.78626,-2.00343 3.50474,-4.06038 5.15239,-6.1664 1.64766,-2.10602 3.22407,-4.26141 4.72648,-6.46155 1.50242,-2.20013 2.93041,-4.44528 4.28154,-6.73067 1.35113,-2.28539 2.62494,-4.61127 3.81934,-6.97271 1.19441,-2.36144 2.30892,-4.75867 3.34178,-7.18665 1.03287,-2.42799 1.98359,-4.88692 2.85076,-7.37167 0.86717,-2.48475 1.65028,-4.99548 2.34826,-7.52699 0.69798,-2.53152 1.31032,-5.08394 1.8363,-7.65202 0.52599,-2.56808 0.96509,-5.15192 1.31695,-7.74623 0.35187,-2.59431 0.61597,-5.19915 0.7923,-7.80924 0.17633,-2.61009 0.26437,-5.22545 0.26446,-7.84081"
       title="2*cos(t) 2*sin(t)"
       id="path2992"
       inkscape:connector-curvature="0" />
    <path
       style="fill:none;stroke:#000000;stroke-width:2.63473272;stroke-linecap:round;stroke-linejoin:round;stroke-miterlimit:4;stroke-opacity:1;stroke-dasharray:none;stroke-dashoffset:0"
       d="m 452.63507,361.12834 c -8e-5,-2.45514 -0.078,-4.91027 -0.23365,-7.36047 -0.15564,-2.45019 -0.38929,-4.89543 -0.70001,-7.33082 -0.31073,-2.4354 -0.69899,-4.86089 -1.16355,-7.27168 -0.46456,-2.41078 -1.00588,-4.80676 -1.62241,-7.18323 -0.61652,-2.37647 -1.30871,-4.73329 -2.07472,-7.06587 -0.76602,-2.33258 -1.60629,-4.64076 -2.5187,-6.92006 -0.91241,-2.2793 -1.89739,-4.52954 -2.95252,-6.74638 -1.05514,-2.21685 -2.18085,-4.40008 -3.37446,-6.54554 -1.19361,-2.14546 -2.45553,-4.25291 -3.78281,-6.31834 -1.32728,-2.06544 -2.72032,-4.0886 -4.17593,-6.0657 -1.45561,-1.97709 -2.97416,-3.90784 -4.55223,-5.78863 -1.57807,-1.88079 -3.21602,-3.71134 -4.9102,-5.48826 -1.69418,-1.77692 -3.44493,-3.49989 -5.2484,-5.16578 -1.80347,-1.66589 -3.65998,-3.27435 -5.56548,-4.82251 -1.90549,-1.54815 -3.86027,-3.03563 -5.86012,-4.45981 -1.99985,-1.42418 -4.04504,-2.78469 -6.13119,-4.07917 -2.08615,-1.29447 -4.21351,-2.52252 -6.37756,-3.68208 -2.16406,-1.15956 -4.36502,-2.25021 -6.59826,-3.27019 -2.23324,-1.01997 -4.49894,-1.96883 -6.79238,-2.84511 -2.29343,-0.87628 -4.61475,-1.67953 -6.95915,-2.40858 -2.34439,-0.72906 -4.71198,-1.38347 -7.0979,-1.96236 -2.38591,-0.5789 -4.79024,-1.08183 -7.20807,-1.50823 -2.41782,-0.42641 -4.84921,-0.77584 -7.28921,-1.04804 -2.44,-0.2722 -4.88866,-0.46671 -7.34102,-0.58361 -2.45235,-0.11689 -4.90841,-0.15571 -7.36324,-0.11684 -2.45483,0.0389 -4.90841,0.15591 -7.35583,0.35041 -2.44743,0.19449 -4.88865,0.4669 -7.3188,0.81623 -2.43016,0.34932 -4.84919,0.77602 -7.2523,1.27877 -2.40311,0.50275 -4.7902,1.08202 -7.15659,1.73617 -2.36638,0.65416 -4.71193,1.38365 -7.03206,2.18658 -2.32014,0.80292 -4.61469,1.67971 -6.87923,2.62817 -2.26454,0.94846 -4.49887,1.96901 -6.69869,3.05919 -2.19982,1.09017 -4.36492,2.25038 -6.49117,3.47788 -2.12625,1.2275 -4.21341,2.5227 -6.25753,3.88258 -2.04412,1.35989 -4.04493,2.78485 -5.99868,4.27164 -1.95375,1.48679 -3.86016,3.03579 -5.71568,4.6435 -1.85551,1.60771 -3.65984,3.2745 -5.40966,4.99666 -1.74981,1.72216 -3.44479,3.50003 -5.08186,5.3297 -1.63706,1.82968 -3.21587,3.71147 -4.7336,5.64129 -1.51772,1.92982 -2.974,3.90795 -4.36627,5.93015 -1.39228,2.02219 -2.72016,4.08871 -3.98138,6.19514 -1.26121,2.10642 -2.45536,4.253 -3.58043,6.43517 -1.12508,2.18218 -2.18068,4.40017 -3.16509,6.64931 -0.98441,2.24914 -1.89721,4.52962 -2.73699,6.83666 -0.83977,2.30705 -1.6061,4.64083 -2.29786,6.99649 -0.69177,2.35567 -1.30853,4.73335 -1.8495,7.12815 -0.54097,2.39479 -1.00569,4.8068 -1.39368,7.23109 -0.38799,2.42428 -0.6988,4.86091 -0.93225,7.30493 -0.23345,2.44401 -0.38909,4.89545 -0.46706,7.34934 -0.078,2.4539 -0.0778,4.91027 0,7.36418 0.0778,2.4539 0.23376,4.90532 0.46706,7.34934 0.2333,2.44403 0.54441,4.88062 0.93225,7.30493 0.38784,2.42431 0.85286,4.83626 1.39368,7.23109 0.54082,2.39484 1.15788,4.77244 1.8495,7.12815 0.69161,2.35571 1.45823,4.68939 2.29786,6.99649 0.83964,2.3071 1.75272,4.58746 2.73699,6.83666 0.98427,2.2492 2.04015,4.46706 3.16509,6.64931 1.12494,2.18224 2.31935,4.32867 3.58043,6.43517 1.26108,2.10651 2.58923,4.17286 3.98138,6.19514 1.39214,2.02228 2.84867,4.00024 4.36627,5.93015 1.51761,1.92992 3.09665,3.81151 4.7336,5.64129 1.63695,1.82977 3.33216,3.60743 5.08186,5.3297 1.74971,1.72227 3.55425,3.38883 5.40966,4.99666 1.85542,1.60783 3.76202,3.15658 5.71568,4.6435 1.95366,1.48692 3.95465,2.91162 5.99868,4.27164 2.04403,1.36001 4.13135,2.65494 6.25753,3.88258 2.12617,1.22763 4.29142,2.38757 6.49117,3.47788 2.19975,1.09032 4.43421,2.11059 6.69869,3.05919 2.26448,0.9486 4.55915,1.8251 6.87923,2.62817 2.32008,0.80307 4.66572,1.53227 7.03206,2.18658 2.36635,0.6543 4.75351,1.23326 7.15659,1.73617 2.40308,0.5029 4.82216,0.92929 7.2523,1.27877 2.43013,0.34948 4.87139,0.62159 7.3188,0.81623 2.4474,0.19465 4.901,0.31138 7.35583,0.35041 2.45482,0.039 4.91089,-1e-4 7.36324,-0.11684 2.45236,-0.11675 4.901,-0.31157 7.34102,-0.58361 2.44001,-0.27205 4.87136,-0.62178 7.28921,-1.04804 2.41785,-0.42625 4.82213,-0.92948 7.20807,-1.50823 2.38595,-0.57874 4.75347,-1.23345 7.0979,-1.96236 2.34444,-0.7289 4.66567,-1.53245 6.95915,-2.40858 2.29349,-0.87613 4.55908,-1.82528 6.79238,-2.84511 2.23331,-1.01983 4.43413,-2.11077 6.59826,-3.27019 2.16412,-1.15942 4.29132,-2.38774 6.37756,-3.68208 2.08623,-1.29435 4.13125,-2.65511 6.13119,-4.07917 1.99994,-1.42405 3.95453,-2.91178 5.86012,-4.45981 1.9056,-1.54804 3.7619,-3.15673 5.56548,-4.82251 1.80357,-1.66578 3.5541,-3.38897 5.2484,-5.16578 1.69429,-1.77682 3.33201,-3.60757 4.9102,-5.48826 1.57819,-1.88069 3.0965,-3.81163 4.55223,-5.78863 1.45573,-1.977 2.84852,-4.00035 4.17593,-6.0657 1.32741,-2.06535 2.58906,-4.17296 3.78281,-6.31834 1.19375,-2.14538 2.31918,-4.32876 3.37446,-6.54554 1.05527,-2.21677 2.03997,-4.46714 2.95252,-6.74638 0.91255,-2.27924 1.75254,-4.58753 2.5187,-6.92006 0.76615,-2.33253 1.45805,-4.68944 2.07472,-7.06587 0.61668,-2.37643 1.15769,-4.77248 1.62241,-7.18323 0.46471,-2.41076 0.85267,-4.8363 1.16355,-7.27168 0.31088,-2.43537 0.54421,-4.88064 0.70001,-7.33082 0.15579,-2.45019 0.23357,-4.90533 0.23365,-7.36047"
       title="1.4*cos(t)  1.4*sin(t)"
       id="path3881"
       inkscape:connector-curvature="0" />
    <path
       id="path3911"
       title="1.4*cos(t) + 1.4 1.4*sin(t)"
       d="m 87.900543,361.12834 497.365257,0 m -248.68263,248.68263 0,-497.36526 m 232.10379,248.68263 c -8e-5,-2.45514 -0.078,-4.91027 -0.23365,-7.36047 -0.15564,-2.45019 -0.38928,-4.89543 -0.70001,-7.33082 -0.31072,-2.4354 -0.69899,-4.86089 -1.16355,-7.27168 -0.46456,-2.41078 -1.00588,-4.80676 -1.6224,-7.18323 -0.61653,-2.37647 -1.30872,-4.73329 -2.07473,-7.06587 -0.76601,-2.33258 -1.60629,-4.64076 -2.5187,-6.92006 -0.91241,-2.2793 -1.89738,-4.52954 -2.95252,-6.74638 -1.05513,-2.21685 -2.18085,-4.40008 -3.37446,-6.54554 -1.19361,-2.14546 -2.45553,-4.25291 -3.78281,-6.31834 -1.32728,-2.06544 -2.72032,-4.0886 -4.17592,-6.0657 -1.45561,-1.97709 -2.97416,-3.90784 -4.55223,-5.78863 -1.57808,-1.88079 -3.21603,-3.71134 -4.91021,-5.48826 -1.69418,-1.77692 -3.44493,-3.49989 -5.2484,-5.16578 -1.80347,-1.66589 -3.65998,-3.27435 -5.56547,-4.82251 -1.9055,-1.54815 -3.86028,-3.03563 -5.86013,-4.45981 -1.99985,-1.42418 -4.04504,-2.78469 -6.13119,-4.07917 -2.08615,-1.29447 -4.21351,-2.52252 -6.37756,-3.68208 -2.16405,-1.15956 -4.36502,-2.25021 -6.59825,-3.27019 -2.23324,-1.01997 -4.49895,-1.96883 -6.79238,-2.84511 -2.29343,-0.87628 -4.61476,-1.67953 -6.95915,-2.40858 -2.34439,-0.72906 -4.71199,-1.38347 -7.0979,-1.96236 -2.38591,-0.5789 -4.79025,-1.08183 -7.20807,-1.50823 -2.41783,-0.42641 -4.84922,-0.77584 -7.28922,-1.04804 -2.44,-0.2722 -4.88866,-0.46671 -7.34101,-0.58361 -2.45235,-0.11689 -4.90842,-0.15571 -7.36325,-0.11684 -2.45483,0.0389 -4.90841,0.15591 -7.35583,0.35041 -2.44742,0.19449 -4.88864,0.4669 -7.3188,0.81623 -2.43016,0.34932 -4.84919,0.77602 -7.25229,1.27877 -2.40311,0.50275 -4.79021,1.08202 -7.15659,1.73617 -2.36639,0.65416 -4.71194,1.38365 -7.03207,2.18658 -2.32013,0.80292 -4.61469,1.67971 -6.87923,2.62817 -2.26453,0.94846 -4.49886,1.96901 -6.69868,3.05919 -2.19983,1.09017 -4.36493,2.25038 -6.49118,3.47788 -2.12625,1.2275 -4.21341,2.5227 -6.25753,3.88258 -2.04411,1.35989 -4.04492,2.78485 -5.99867,4.27164 -1.95376,1.48679 -3.86016,3.03579 -5.71568,4.6435 -1.85552,1.60771 -3.65985,3.2745 -5.40966,4.99666 -1.74982,1.72216 -3.4448,3.50003 -5.08186,5.3297 -1.63707,1.82968 -3.21588,3.71147 -4.7336,5.64129 -1.51773,1.92982 -2.97401,3.90795 -4.36628,5.93015 -1.39227,2.02219 -2.72016,4.08871 -3.98137,6.19514 -1.26122,2.10642 -2.45536,4.253 -3.58044,6.43517 -1.12508,2.18218 -2.18067,4.40017 -3.16508,6.64931 -0.98442,2.24914 -1.89721,4.52962 -2.73699,6.83666 -0.83978,2.30705 -1.6061,4.64083 -2.29787,6.99649 -0.69177,2.35567 -1.30853,4.73335 -1.8495,7.12815 -0.54097,2.39479 -1.00568,4.8068 -1.39368,7.23109 -0.38799,2.42428 -0.69879,4.86091 -0.93225,7.30493 -0.23345,2.44401 -0.38909,4.89545 -0.46706,7.34934 -0.078,2.4539 -0.0778,4.91027 0,7.36418 0.0778,2.4539 0.23377,4.90532 0.46706,7.34934 0.2333,2.44403 0.54442,4.88062 0.93225,7.30493 0.38784,2.42431 0.85287,4.83626 1.39368,7.23109 0.54082,2.39484 1.15788,4.77244 1.8495,7.12815 0.69162,2.35571 1.45824,4.68939 2.29787,6.99649 0.83963,2.3071 1.75272,4.58746 2.73699,6.83666 0.98426,2.2492 2.04014,4.46706 3.16508,6.64931 1.12494,2.18224 2.31936,4.32867 3.58044,6.43517 1.26108,2.10651 2.58922,4.17286 3.98137,6.19514 1.39214,2.02228 2.84867,4.00024 4.36628,5.93015 1.5176,1.92992 3.09665,3.81151 4.7336,5.64129 1.63695,1.82977 3.33215,3.60743 5.08186,5.3297 1.7497,1.72227 3.55424,3.38883 5.40966,4.99666 1.85542,1.60783 3.76202,3.15658 5.71568,4.6435 1.95365,1.48692 3.95464,2.91162 5.99867,4.27164 2.04403,1.36001 4.13136,2.65494 6.25753,3.88258 2.12617,1.22763 4.29142,2.38757 6.49118,3.47788 2.19975,1.09032 4.43421,2.11059 6.69868,3.05919 2.26448,0.9486 4.55915,1.8251 6.87923,2.62817 2.32008,0.80307 4.66572,1.53227 7.03207,2.18658 2.36634,0.6543 4.75351,1.23326 7.15659,1.73617 2.40307,0.5029 4.82215,0.92929 7.25229,1.27877 2.43014,0.34948 4.87139,0.62159 7.3188,0.81623 2.44741,0.19465 4.90101,0.31138 7.35583,0.35041 2.45483,0.039 4.91089,-1e-4 7.36325,-0.11684 2.45236,-0.11675 4.90099,-0.31157 7.34101,-0.58361 2.44002,-0.27205 4.87137,-0.62178 7.28922,-1.04804 2.41785,-0.42625 4.82212,-0.92948 7.20807,-1.50823 2.38595,-0.57874 4.75346,-1.23345 7.0979,-1.96236 2.34444,-0.7289 4.66566,-1.53245 6.95915,-2.40858 2.29349,-0.87613 4.55907,-1.82528 6.79238,-2.84511 2.2333,-1.01983 4.43412,-2.11077 6.59825,-3.27019 2.16412,-1.15942 4.29133,-2.38774 6.37756,-3.68208 2.08623,-1.29435 4.13125,-2.65511 6.13119,-4.07917 1.99994,-1.42405 3.95453,-2.91178 5.86013,-4.45981 1.90559,-1.54804 3.76189,-3.15673 5.56547,-4.82251 1.80358,-1.66578 3.55411,-3.38897 5.2484,-5.16578 1.6943,-1.77682 3.33201,-3.60757 4.91021,-5.48826 1.57819,-1.88069 3.09649,-3.81163 4.55223,-5.78863 1.45573,-1.977 2.84851,-4.00035 4.17592,-6.0657 1.32742,-2.06535 2.58906,-4.17296 3.78281,-6.31834 1.19375,-2.14538 2.31919,-4.32876 3.37446,-6.54554 1.05528,-2.21677 2.03997,-4.46714 2.95252,-6.74638 0.91256,-2.27924 1.75254,-4.58753 2.5187,-6.92006 0.76616,-2.33253 1.45805,-4.68944 2.07473,-7.06587 0.61668,-2.37643 1.15769,-4.77248 1.6224,-7.18323 0.46472,-2.41076 0.85267,-4.8363 1.16355,-7.27168 0.31088,-2.43537 0.54422,-4.88064 0.70001,-7.33082 0.15579,-2.45019 0.23357,-4.90533 0.23365,-7.36047"
       style="fill:none;stroke:#000000;stroke-width:2.63473272;stroke-linecap:round;stroke-linejoin:round;stroke-miterlimit:4;stroke-opacity:1;stroke-dasharray:none;stroke-dashoffset:0"
       inkscape:connector-curvature="0" />
    <g
       transform="translate(78.811265,-13.90787)"
       id="g3927">
      <g
         style="font-style:normal;font-variant:normal;font-weight:normal;font-stretch:normal;letter-spacing:normal;word-spacing:normal;text-anchor:start;fill:none;stroke:#000000;stroke-linecap:butt;stroke-linejoin:miter;stroke-miterlimit:10.43299961;stroke-opacity:1;stroke-dasharray:none;stroke-dashoffset:0"
         id="content"
         transform="matrix(1.0629921,0,0,-1.0629921,-186.02362,789.27165)"
         xml:space="preserve"
         stroke-miterlimit="10.433"
         font-style="normal"
         font-variant="normal"
         font-weight="normal"
         font-stretch="normal"
         font-size-adjust="none"
         letter-spacing="normal"
         word-spacing="normal"><path
           style="fill:#000000;stroke-width:0"
           inkscape:connector-curvature="0"
           d="m 464.44,411.93 -0.19,-0.3 -0.18,-0.29 -0.19,-0.28 -0.19,-0.26 -0.18,-0.25 -0.19,-0.23 -0.19,-0.22 -0.18,-0.21 -0.19,-0.2 -0.19,-0.18 -0.18,-0.17 -0.19,-0.16 -0.19,-0.15 -0.18,-0.14 -0.19,-0.13 -0.19,-0.12 -0.19,-0.11 -0.19,-0.1 -0.19,-0.09 -0.19,-0.09 -0.19,-0.07 -0.2,-0.07 -0.19,-0.07 -0.2,-0.05 -0.19,-0.05 -0.2,-0.04 -0.2,-0.04 -0.19,-0.03 -0.41,-0.05 -0.4,-0.03 c -0.61,-0.05 -1.05,-0.05 -1.05,-1 0,-0.3 0.25,-0.55 0.64,-0.55 1.34,0 2.89,0.16 4.28,0.16 1.64,0 3.39,-0.16 4.99,-0.16 0.29,0 0.95,0 0.95,0.95 0,0.55 -0.45,0.6 -0.8,0.6 -1.15,0.09 -2.34,0.5 -2.34,1.73 0,0.61 0.3,1.16 0.69,1.84 l 3.79,6.39 h 12.5 l -0.14,1.54 h -11.42 l 9.83,16.45 1.59,-16.45 0.14,-1.54 c 0.11,-1.04 0.8,-7.82 0.8,-8.32 0,-1.5 -2.59,-1.64 -3.58,-1.64 -0.7,0 -1.2,0 -1.2,-1 0,-0.55 0.59,-0.55 0.7,-0.55 2.03,0 4.19,0.16 6.22,0.16 1.25,0 4.39,-0.16 5.64,-0.16 0.3,0 0.89,0 0.89,1 0,0.55 -0.5,0.55 -1.14,0.55 -3.09,0 -3.09,0.34 -3.25,1.79 l -3.03,31.13 c -0.11,1 -0.11,1.2 -0.95,1.2 -0.8,0 -0.99,-0.34 -1.3,-0.84 z"
           id="path3930" /></g>    </g>
    <g
       transform="matrix(0.81603346,0,0,0.81603346,141.01339,-54.470533)"
       id="g3952">
      <g
         style="font-style:normal;font-variant:normal;font-weight:normal;font-stretch:normal;letter-spacing:normal;word-spacing:normal;text-anchor:start;fill:none;stroke:#000000;stroke-linecap:butt;stroke-linejoin:miter;stroke-miterlimit:10.43299961;stroke-opacity:1;stroke-dasharray:none;stroke-dashoffset:0"
         word-spacing="normal"
         letter-spacing="normal"
         font-size-adjust="none"
         font-stretch="normal"
         font-weight="normal"
         font-variant="normal"
         font-style="normal"
         stroke-miterlimit="10.433"
         xml:space="preserve"
         transform="matrix(1.0629921,0,0,-1.0629921,-186.02362,789.27165)"
         id="g3954"><path
           style="fill:#000000;stroke-width:0"
           inkscape:connector-curvature="0"
           id="path3956"
           d="m 470.61,421.95 0.21,1.28 3.39,13.56 c 0.43,1.74 0.54,1.89 2.68,1.89 h 4.79 c 4.14,0 6.78,-1.34 6.78,-4.78 0,-1.95 -1,-6.23 -2.94,-8.03 -2.5,-2.23 -5.48,-2.64 -7.69,-2.64 h -7.01 l -0.21,-1.28 h 8.47 c 7.08,0 14,5.17 14,10.75 0,3.84 -3.28,7.53 -9.81,7.53 h -16.14 c -0.95,0 -1.5,0 -1.5,-0.95 0,-0.6 0.45,-0.6 1.45,-0.6 0.64,0 1.55,-0.04 2.14,-0.09 0.8,-0.11 1.1,-0.25 1.1,-0.8 0,-0.2 -0.05,-0.36 -0.21,-0.95 l -6.67,-26.75 c -0.5,-1.95 -0.59,-2.34 -4.53,-2.34 -0.84,0 -1.39,0 -1.39,-0.96 0,-0.59 0.59,-0.59 0.73,-0.59 1.41,0 4.94,0.16 6.33,0.16 1.05,0 2.14,-0.07 3.19,-0.07 1.11,0 2.2,-0.09 3.25,-0.09 0.34,0 0.98,0 0.98,1 0,0.55 -0.43,0.55 -1.39,0.55 -1.84,0 -3.23,0 -3.23,0.89 0,0.29 0.09,0.54 0.14,0.84 z" /></g>    </g>
    <g
       transform="matrix(0.85394396,0,0,0.85394396,120.42464,204.38266)"
       id="g3984">
      <g
         style="font-style:normal;font-variant:normal;font-weight:normal;font-stretch:normal;letter-spacing:normal;word-spacing:normal;text-anchor:start;fill:none;stroke:#000000;stroke-linecap:butt;stroke-linejoin:miter;stroke-miterlimit:10.43299961;stroke-opacity:1;stroke-dasharray:none;stroke-dashoffset:0"
         id="g3986"
         transform="matrix(1.0629921,0,0,-1.0629921,-186.02362,789.27165)"
         xml:space="preserve"
         stroke-miterlimit="10.433"
         font-style="normal"
         font-variant="normal"
         font-weight="normal"
         font-stretch="normal"
         font-size-adjust="none"
         letter-spacing="normal"
         word-spacing="normal"><path
           style="fill:#000000;stroke-width:0"
           inkscape:connector-curvature="0"
           d="m 477.35,406.5 0.72,0.29 0.72,0.33 0.71,0.35 0.71,0.4 0.7,0.42 0.69,0.45 0.68,0.48 0.68,0.51 0.65,0.54 0.65,0.56 0.63,0.59 0.61,0.61 0.6,0.64 0.57,0.66 0.56,0.68 0.54,0.7 0.51,0.72 0.49,0.73 0.46,0.76 0.44,0.77 0.41,0.79 0.38,0.8 0.35,0.82 0.32,0.83 0.29,0.84 0.25,0.85 0.21,0.87 0.18,0.87 0.15,0.88 0.1,0.89 0.06,0.89 0.02,0.9 c 0,8.03 -5.28,13.4 -12.71,13.4 l -0.3,-1.25 c 4.98,0 8.62,-3.87 8.62,-10.56 0,-4.98 -2.54,-16.64 -10.9,-21.31 -0.25,1.73 -0.75,5.37 -4.39,5.37 v -1.09 c 2.09,0 3.04,-1.2 3.04,-4.23 0,-0.75 -0.06,-0.8 -0.56,-1 -1.28,-0.55 -2.78,-0.89 -4.17,-0.89 h 0 c -0.7,0 -2.3,0 -2.3,2.14 0,1.98 1.89,3.98 3.99,3.98 v 1.09 c -2.64,0 -5.08,-2.5 -5.08,-5.07 0,-1 0.3,-1.55 0.3,-1.6 h 0 c -3.89,1.53 -5.58,5.42 -5.58,9.91 0,3.44 1.29,10.51 5.08,15.89 3.64,5.09 8.32,7.37 11.95,7.37 l 0.3,1.25 c -10.75,0 -21.72,-11.31 -21.72,-22.92 0,-8.26 5.58,-13.29 12.76,-13.29 1.24,0 2.94,0.2 4.88,0.75 -0.21,-3.1 -0.21,-3.19 -0.21,-3.85 0,-1.59 0,-5.48 4.15,-5.48 5.92,0 8.31,9.12 8.31,9.67 0,0.34 -0.35,0.5 -0.55,0.5 -0.39,0 -0.5,-0.25 -0.59,-0.55 -1.19,-3.54 -4.08,-4.78 -5.83,-4.78 -2.3,0 -3.05,1.34 -3.53,5.13 z"
           id="path3988" /></g>    </g>
    <g
       id="g4022"
       transform="translate(-11.589892,55.631481)">
      <g
         word-spacing="normal"
         letter-spacing="normal"
         font-size-adjust="none"
         font-stretch="normal"
         font-weight="normal"
         font-variant="normal"
         font-style="normal"
         stroke-miterlimit="10.433"
         xml:space="preserve"
         transform="matrix(1.0629921,0,0,-1.0629921,-186.02362,789.27165)"
         id="g4024"
         style="font-style:normal;font-variant:normal;font-weight:normal;font-stretch:normal;letter-spacing:normal;word-spacing:normal;text-anchor:start;fill:none;stroke:#000000;stroke-linecap:butt;stroke-linejoin:miter;stroke-miterlimit:10.43299961;stroke-opacity:1;stroke-dasharray:none;stroke-dashoffset:0"><path
           id="path4026"
           d="m 492.39,427.92 -0.01,0.74 -0.05,0.73 -0.07,0.71 -0.11,0.7 -0.13,0.68 -0.16,0.66 -0.19,0.64 -0.22,0.62 -0.24,0.6 -0.27,0.59 -0.29,0.56 -0.32,0.54 -0.34,0.52 -0.37,0.5 -0.38,0.47 -0.42,0.45 -0.43,0.43 -0.45,0.41 -0.48,0.38 -0.49,0.35 -0.52,0.33 -0.53,0.3 -0.55,0.28 -0.57,0.25 -0.59,0.22 -0.6,0.2 -0.62,0.16 -0.63,0.14 -0.65,0.1 -0.67,0.08 -0.67,0.05 -0.69,0.01 -0.3,-1.25 c 4.09,0 8.58,-2.78 8.58,-10.2 0,-3.59 -1.35,-11.36 -6.28,-17.5 -2.39,-3.03 -6.49,-5.97 -10.66,-5.97 h 0 c -4.94,0 -8.42,4.03 -8.42,10.61 0,2.19 0.69,9.47 4.53,15.3 3.44,5.17 8.31,7.76 12.25,7.76 l 0.3,1.25 c -10.75,0 -21.72,-11.31 -21.72,-22.92 0,-8.26 5.58,-13.29 12.76,-13.29 10.55,0 21.67,10.9 21.67,22.81 z"
           inkscape:connector-curvature="0"
           style="fill:#000000;stroke-width:0" /></g>    </g>
    <g
       transform="translate(301.33719,16.225849)"
       id="g4066">
      <g
         style="font-style:normal;font-variant:normal;font-weight:normal;font-stretch:normal;letter-spacing:normal;word-spacing:normal;text-anchor:start;fill:none;stroke:#000000;stroke-linecap:butt;stroke-linejoin:miter;stroke-miterlimit:10.43299961;stroke-opacity:1;stroke-dasharray:none;stroke-dashoffset:0"
         id="g4068"
         transform="matrix(1.0629921,0,0,-1.0629921,-186.02362,789.27165)"
         xml:space="preserve"
         stroke-miterlimit="10.433"
         font-style="normal"
         font-variant="normal"
         font-weight="normal"
         font-stretch="normal"
         font-size-adjust="none"
         letter-spacing="normal"
         word-spacing="normal"><path
           style="fill:#000000;stroke-width:0"
           inkscape:connector-curvature="0"
           d="m 472.16,421.25 0.03,0.13 0.04,0.15 0.04,0.16 0.04,0.18 0.06,0.19 0.06,0.21 0.06,0.22 0.07,0.22 0.08,0.23 0.09,0.24 0.1,0.25 0.1,0.24 0.11,0.25 0.12,0.25 0.13,0.25 0.14,0.25 0.15,0.24 0.15,0.24 0.17,0.23 0.18,0.22 0.18,0.22 0.2,0.2 0.21,0.19 0.22,0.18 0.23,0.16 0.25,0.14 0.12,0.07 0.13,0.06 0.14,0.05 0.13,0.05 0.14,0.05 0.14,0.04 0.15,0.03 0.15,0.03 0.15,0.02 0.16,0.02 0.16,0.01 0.16,0 c 0.25,0 1.44,0 2.48,-0.64 -1.39,-0.25 -2.39,-1.5 -2.39,-2.69 0,-0.79 0.55,-1.75 1.89,-1.75 1.1,0 2.69,0.89 2.69,2.89 0,2.6 -2.94,3.28 -4.63,3.28 -2.89,0 -4.64,-2.64 -5.23,-3.78 -1.25,3.28 -3.94,3.78 -5.37,3.78 -5.19,0 -8.04,-6.42 -8.04,-7.67 0,-0.5 0.5,-0.5 0.61,-0.5 0.39,0 0.55,0.11 0.64,0.55 1.69,5.28 4.99,6.53 6.68,6.53 0.95,0 2.68,-0.44 2.68,-3.33 0,-1.54 -0.84,-4.89 -2.68,-11.86 -0.8,-3.09 -2.54,-5.18 -4.74,-5.18 -0.3,0 -1.44,0 -2.48,0.65 1.25,0.24 2.34,1.28 2.34,2.69 0,1.34 -1.09,1.73 -1.84,1.73 -1.5,0 -2.75,-1.29 -2.75,-2.89 0,-2.28 2.5,-3.28 4.68,-3.28 3.3,0 5.08,3.49 5.24,3.78 0.59,-1.84 2.39,-3.78 5.37,-3.78 5.14,0 7.99,6.42 7.99,7.67 0,0.5 -0.45,0.5 -0.61,0.5 -0.44,0 -0.55,-0.2 -0.64,-0.54 -1.64,-5.33 -5.03,-6.53 -6.63,-6.53 -1.95,0 -2.75,1.59 -2.75,3.29 0,1.1 0.3,2.19 0.86,4.38 z"
           id="path4070" /></g>    </g>
    <g
       id="g4116"
       transform="translate(-4.6359568,-213.25401)">
      <g
         word-spacing="normal"
         letter-spacing="normal"
         font-size-adjust="none"
         font-stretch="normal"
         font-weight="normal"
         font-variant="normal"
         font-style="normal"
         stroke-miterlimit="10.433"
         xml:space="preserve"
         transform="matrix(1.0629921,0,0,-1.0629921,-186.02362,789.27165)"
         id="g4118"
         style="font-style:normal;font-variant:normal;font-weight:normal;font-stretch:normal;letter-spacing:normal;word-spacing:normal;text-anchor:start;fill:none;stroke:#000000;stroke-linecap:butt;stroke-linejoin:miter;stroke-miterlimit:10.43299961;stroke-opacity:1;stroke-dasharray:none;stroke-dashoffset:0"><path
           id="path4120"
           d="m 479.74,425.18 0.01,0.04 0.01,0.03 0.01,0.06 0.02,0.05 0.01,0.06 0.01,0.05 0.02,0.04 0.01,0.05 0.01,0.04 0.01,0.04 0,0.04 0.01,0.04 0.01,0.04 0.01,0.03 0,0.03 0.01,0.03 0,0.03 0.01,0.03 0,0.03 0.01,0.05 0,0.06 0,0.05 0,0.05 0.01,0.05 0,0.03 0,0.03 0,0.03 0,0.03 c 0,0.91 -0.69,1.35 -1.44,1.35 -0.5,0 -1.3,-0.3 -1.75,-1.05 -0.1,-0.25 -0.5,-1.78 -0.69,-2.69 -0.36,-1.29 -0.7,-2.64 -1,-3.98 l -2.25,-8.97 c -0.19,-0.75 -2.33,-4.23 -5.62,-4.23 -2.54,0 -3.1,2.18 -3.1,4.03 0,2.29 0.86,5.39 2.55,9.76 0.8,2.05 1,2.6 1,3.6 0,2.23 -1.59,4.07 -4.09,4.07 -4.74,0 -6.58,-7.21 -6.58,-7.67 0,-0.5 0.5,-0.5 0.61,-0.5 0.5,0 0.54,0.11 0.79,0.91 1.35,4.69 3.33,6.17 5.03,6.17 0.4,0 1.25,0 1.25,-1.59 0,-1.25 -0.5,-2.53 -0.85,-3.49 -1.99,-5.28 -2.9,-8.12 -2.9,-10.47 0,-4.42 3.15,-5.92 6.08,-5.92 1.96,0 3.64,0.85 5.03,2.24 -0.64,-2.58 -1.23,-5.03 -3.23,-7.68 -1.3,-1.68 -3.19,-3.14 -5.48,-3.14 -0.69,0 -2.94,0.16 -3.79,2.1 0.8,0 1.46,0 2.14,0.61 0.5,0.43 1,1.09 1,2.03 0,1.55 -1.34,1.75 -1.84,1.75 -1.14,0 -2.8,-0.8 -2.8,-3.24 0,-2.5 2.21,-4.34 5.29,-4.34 5.14,0 10.26,4.55 11.67,10.17 z"
           inkscape:connector-curvature="0"
           style="fill:#000000;stroke-width:0" /></g>    </g>
    <g
       transform="matrix(0.83017004,0,0,0.83017004,-187.85012,-55.66037)"
       id="g4172">
      <g
         style="font-style:normal;font-variant:normal;font-weight:normal;font-stretch:normal;letter-spacing:normal;word-spacing:normal;text-anchor:start;fill:none;stroke:#000000;stroke-linecap:butt;stroke-linejoin:miter;stroke-miterlimit:10.43299961;stroke-opacity:1;stroke-dasharray:none;stroke-dashoffset:0"
         id="g4174"
         transform="matrix(1.0629921,0,0,-1.0629921,-186.02362,789.27165)"
         xml:space="preserve"
         stroke-miterlimit="10.433"
         font-style="normal"
         font-variant="normal"
         font-weight="normal"
         font-stretch="normal"
         font-size-adjust="none"
         letter-spacing="normal"
         word-spacing="normal"><path
           style="fill:#000000;stroke-width:0"
           inkscape:connector-curvature="0"
           d="m 472.16,421.25 0.03,0.13 0.04,0.15 0.04,0.16 0.04,0.18 0.06,0.19 0.06,0.21 0.06,0.22 0.07,0.22 0.08,0.23 0.09,0.24 0.1,0.25 0.1,0.24 0.11,0.25 0.12,0.25 0.13,0.25 0.14,0.25 0.15,0.24 0.15,0.24 0.17,0.23 0.18,0.22 0.18,0.22 0.2,0.2 0.21,0.19 0.22,0.18 0.23,0.16 0.25,0.14 0.12,0.07 0.13,0.06 0.14,0.05 0.13,0.05 0.14,0.05 0.14,0.04 0.15,0.03 0.15,0.03 0.15,0.02 0.16,0.02 0.16,0.01 0.16,0 c 0.25,0 1.44,0 2.48,-0.64 -1.39,-0.25 -2.39,-1.5 -2.39,-2.69 0,-0.79 0.55,-1.75 1.89,-1.75 1.1,0 2.69,0.89 2.69,2.89 0,2.6 -2.94,3.28 -4.63,3.28 -2.89,0 -4.64,-2.64 -5.23,-3.78 -1.25,3.28 -3.94,3.78 -5.37,3.78 -5.19,0 -8.04,-6.42 -8.04,-7.67 0,-0.5 0.5,-0.5 0.61,-0.5 0.39,0 0.55,0.11 0.64,0.55 1.69,5.28 4.99,6.53 6.68,6.53 0.95,0 2.68,-0.44 2.68,-3.33 0,-1.54 -0.84,-4.89 -2.68,-11.86 -0.8,-3.09 -2.54,-5.18 -4.74,-5.18 -0.3,0 -1.44,0 -2.48,0.65 1.25,0.24 2.34,1.28 2.34,2.69 0,1.34 -1.09,1.73 -1.84,1.73 -1.5,0 -2.75,-1.29 -2.75,-2.89 0,-2.28 2.5,-3.28 4.68,-3.28 3.3,0 5.08,3.49 5.24,3.78 0.59,-1.84 2.39,-3.78 5.37,-3.78 5.14,0 7.99,6.42 7.99,7.67 0,0.5 -0.45,0.5 -0.61,0.5 -0.44,0 -0.55,-0.2 -0.64,-0.54 -1.64,-5.33 -5.03,-6.53 -6.63,-6.53 -1.95,0 -2.75,1.59 -2.75,3.29 0,1.1 0.3,2.19 0.86,4.38 z"
           id="path4176" /><path
           style="fill:#000000;stroke-width:0"
           inkscape:connector-curvature="0"
           d="m 501.55,430.54 h -1.18 c -0.1,-0.76 -0.46,-2.83 -0.91,-3.17 -0.26,-0.2 -2.95,-0.2 -3.44,-0.2 h -6.42 c 3.66,3.23 4.88,4.2 6.97,5.84 2.58,2.06 4.98,4.22 4.98,7.53 0,4.22 -3.68,6.8 -8.15,6.8 -4.31,0 -7.25,-3.03 -7.25,-6.23 0,-1.79 1.5,-1.96 1.86,-1.96 0.83,0 1.84,0.6 1.84,1.85 0,0.62 -0.25,1.84 -2.06,1.84 1.08,2.47 3.45,3.23 5.09,3.23 3.49,0 5.3,-2.7 5.3,-5.53 0,-3.03 -2.16,-5.43 -3.28,-6.68 l -8.39,-8.3 c -0.36,-0.31 -0.36,-0.39 -0.36,-1.36 h 14.36 z"
           id="path4178" /><path
           style="fill:#000000;stroke-width:0"
           inkscape:connector-curvature="0"
           d="m 537.82,417.65 h 13.9 c 0.69,0 1.64,0 1.64,1 0,1 -0.95,1 -1.64,1 h -13.9 v 13.96 c 0,0.68 0,1.64 -1,1.64 -0.99,0 -0.99,-0.96 -0.99,-1.64 v -13.96 h -13.95 c -0.7,0 -1.64,0 -1.64,-1 0,-1 0.94,-1 1.64,-1 h 13.95 v -13.94 c 0,-0.7 0,-1.65 0.99,-1.65 1,0 1,0.95 1,1.65 z"
           id="path4180" /><path
           style="fill:#000000;stroke-width:0"
           inkscape:connector-curvature="0"
           d="m 591.46,425.18 0.01,0.04 0,0.03 0.02,0.06 0.02,0.05 0.01,0.06 0.01,0.05 0.01,0.04 0.02,0.05 0.01,0.04 0.01,0.04 0,0.04 0.01,0.04 0.01,0.04 0.01,0.03 0,0.03 0.01,0.03 0,0.03 0.01,0.03 0,0.03 0.01,0.05 0,0.06 0,0.05 0,0.05 0,0.05 0,0.03 0,0.03 0.01,0.03 0,0.03 c 0,0.91 -0.69,1.35 -1.44,1.35 -0.5,0 -1.3,-0.3 -1.75,-1.05 -0.1,-0.25 -0.5,-1.78 -0.69,-2.69 -0.36,-1.29 -0.7,-2.64 -1,-3.98 l -2.25,-8.97 c -0.19,-0.75 -2.33,-4.23 -5.62,-4.23 -2.54,0 -3.1,2.18 -3.1,4.03 0,2.29 0.86,5.39 2.55,9.76 0.8,2.05 1,2.6 1,3.6 0,2.23 -1.6,4.07 -4.1,4.07 -4.73,0 -6.57,-7.21 -6.57,-7.67 0,-0.5 0.5,-0.5 0.6,-0.5 0.5,0 0.55,0.11 0.8,0.91 1.35,4.69 3.33,6.17 5.03,6.17 0.39,0 1.25,0 1.25,-1.59 0,-1.25 -0.5,-2.53 -0.86,-3.49 -1.98,-5.28 -2.89,-8.12 -2.89,-10.47 0,-4.42 3.14,-5.92 6.08,-5.92 1.96,0 3.64,0.85 5.03,2.24 -0.64,-2.58 -1.23,-5.03 -3.23,-7.68 -1.3,-1.68 -3.19,-3.14 -5.49,-3.14 -0.68,0 -2.93,0.16 -3.78,2.1 0.8,0 1.46,0 2.14,0.61 0.5,0.43 1,1.09 1,2.03 0,1.55 -1.34,1.75 -1.84,1.75 -1.14,0 -2.8,-0.8 -2.8,-3.24 0,-2.5 2.21,-4.34 5.28,-4.34 5.15,0 10.27,4.55 11.68,10.17 z"
           id="path4182" /><path
           style="fill:#000000;stroke-width:0"
           inkscape:connector-curvature="0"
           d="m 611.11,430.54 h -1.18 c -0.1,-0.76 -0.46,-2.83 -0.91,-3.17 -0.27,-0.2 -2.95,-0.2 -3.44,-0.2 h -6.42 c 3.66,3.23 4.87,4.2 6.97,5.84 2.58,2.06 4.98,4.22 4.98,7.53 0,4.22 -3.68,6.8 -8.15,6.8 -4.31,0 -7.25,-3.03 -7.25,-6.23 0,-1.79 1.5,-1.96 1.86,-1.96 0.83,0 1.84,0.6 1.84,1.85 0,0.62 -0.25,1.84 -2.06,1.84 1.08,2.47 3.45,3.23 5.09,3.23 3.49,0 5.3,-2.7 5.3,-5.53 0,-3.03 -2.16,-5.43 -3.28,-6.68 l -8.39,-8.3 c -0.36,-0.31 -0.36,-0.39 -0.36,-1.36 h 14.36 z"
           id="path4184" /><path
           style="fill:#000000;stroke-width:0"
           inkscape:connector-curvature="0"
           d="m 663.88,422.5 0.13,0 0.15,0 0.14,0 0.08,0.01 0.07,0 0.07,0.01 0.07,0.01 0.07,0.01 0.07,0.01 0.07,0.01 0.07,0.02 0.06,0.02 0.06,0.02 0.06,0.02 0.06,0.03 0.06,0.03 0.05,0.04 0.05,0.03 0.05,0.05 0.04,0.04 0.04,0.05 0.02,0.03 0.02,0.03 0.01,0.02 0.02,0.03 0.01,0.03 0.02,0.04 0.01,0.03 0.01,0.04 0.01,0.03 0.01,0.04 0.01,0.04 0,0.04 0.01,0.04 0,0.04 0,0.04 0,0.05 c 0,1 -0.95,1 -1.64,1 h -29.84 c -0.7,0 -1.64,0 -1.64,-1 0,-0.98 0.94,-0.98 1.68,-0.98 z"
           id="path4186" /><path
           style="fill:#000000;stroke-width:0"
           inkscape:connector-curvature="0"
           d="m 663.92,412.82 0.07,0 0.06,0 0.14,0.01 0.14,0 0.07,0 0.07,0.01 0.07,0.01 0.07,0 0.07,0.01 0.06,0.02 0.07,0.01 0.06,0.02 0.07,0.02 0.06,0.02 0.06,0.02 0.06,0.03 0.05,0.03 0.05,0.04 0.05,0.04 0.05,0.04 0.04,0.05 0.02,0.02 0.02,0.03 0.02,0.02 0.02,0.03 0.01,0.03 0.02,0.03 0.01,0.03 0.02,0.03 0.01,0.04 0.01,0.03 0.01,0.04 0.01,0.04 0.01,0.04 0,0.04 0.01,0.04 0,0.04 0,0.05 0,0.04 c 0,1 -0.95,1 -1.68,1 h -29.76 c -0.74,0 -1.68,0 -1.68,-1 0,-1 0.94,-1 1.64,-1 z"
           id="path4188" /><path
           style="fill:#000000;stroke-width:0"
           inkscape:connector-curvature="0"
           d="m 696.84,414.42 v -4.33 c 0,-1.8 -0.09,-2.34 -3.78,-2.34 h -1.05 v -1.55 c 2.05,0.16 4.64,0.16 6.74,0.16 2.09,0 4.73,0 6.76,-0.16 v 1.55 h -1.04 c -3.69,0 -3.79,0.54 -3.79,2.34 v 4.33 h 4.99 v 1.54 h -4.99 v 22.68 c 0,1 0,1.29 -0.79,1.29 -0.46,0 -0.6,0 -1,-0.61 l -15.3,-23.36 H 685 l 12.15,18.58 V 415.96 H 685 683.59 v -1.54 z"
           id="path4190" /></g>    </g>
    <g
       id="g4262"
       transform="matrix(0.75585556,0,0,0.75585556,194.61849,250.44936)">
      <g
         word-spacing="normal"
         letter-spacing="normal"
         font-size-adjust="none"
         font-stretch="normal"
         font-weight="normal"
         font-variant="normal"
         font-style="normal"
         stroke-miterlimit="10.433"
         xml:space="preserve"
         transform="matrix(1.0629921,0,0,-1.0629921,-186.02362,789.27165)"
         id="g4264"
         style="font-style:normal;font-variant:normal;font-weight:normal;font-stretch:normal;letter-spacing:normal;word-spacing:normal;text-anchor:start;fill:none;stroke:#000000;stroke-linecap:butt;stroke-linejoin:miter;stroke-miterlimit:10.43299961;stroke-opacity:1;stroke-dasharray:none;stroke-dashoffset:0"><path
           id="path4266"
           d="m 472,394.25 0,0.02 0,0.03 0,0.01 0,0.02 0,0.01 -0.01,0.02 0,0.01 -0.01,0.02 -0.01,0.02 -0.01,0.02 -0.01,0.02 -0.02,0.03 -0.01,0.02 -0.02,0.03 -0.02,0.03 -0.03,0.03 -0.02,0.03 -0.03,0.04 -0.02,0.02 -0.01,0.02 -0.02,0.02 -0.02,0.02 -0.02,0.02 -0.02,0.03 -0.02,0.02 -0.02,0.02 -0.02,0.03 -0.03,0.02 -0.02,0.03 -0.03,0.03 -0.03,0.03 -0.02,0.03 -0.03,0.03 -0.03,0.03 -0.03,0.03 -0.03,0.03 -0.04,0.04 -0.03,0.03 -0.04,0.04 -0.03,0.03 -0.04,0.04 -0.04,0.04 c -6.22,6.28 -7.81,15.69 -7.81,23.31 0,8.67 1.89,17.35 8.01,23.56 0.64,0.61 0.64,0.71 0.64,0.86 0,0.35 -0.18,0.49 -0.48,0.49 -0.5,0 -4.98,-3.38 -7.92,-9.7 -2.55,-5.49 -3.14,-11.02 -3.14,-15.21 0,-3.89 0.54,-9.9 3.28,-15.54 2.98,-6.13 7.28,-9.36 7.78,-9.36 0.3,0 0.48,0.14 0.48,0.5 z"
           inkscape:connector-curvature="0"
           style="fill:#000000;stroke-width:0" /><path
           id="path4268"
           d="m 491.48,421.25 0.03,0.13 0.03,0.15 0.04,0.16 0.05,0.18 0.05,0.19 0.06,0.21 0.07,0.22 0.07,0.22 0.08,0.23 0.09,0.24 0.09,0.25 0.11,0.24 0.11,0.25 0.12,0.25 0.13,0.25 0.13,0.25 0.15,0.24 0.16,0.24 0.16,0.23 0.18,0.22 0.19,0.22 0.2,0.2 0.21,0.19 0.22,0.18 0.23,0.16 0.24,0.14 0.13,0.07 0.13,0.06 0.13,0.05 0.14,0.05 0.14,0.05 0.14,0.04 0.15,0.03 0.15,0.03 0.15,0.02 0.15,0.02 0.16,0.01 0.16,0 c 0.25,0 1.44,0 2.49,-0.64 -1.39,-0.25 -2.39,-1.5 -2.39,-2.69 0,-0.79 0.54,-1.75 1.89,-1.75 1.09,0 2.69,0.89 2.69,2.89 0,2.6 -2.94,3.28 -4.63,3.28 -2.89,0 -4.64,-2.64 -5.23,-3.78 -1.25,3.28 -3.94,3.78 -5.38,3.78 -5.19,0 -8.03,-6.42 -8.03,-7.67 0,-0.5 0.5,-0.5 0.61,-0.5 0.39,0 0.55,0.11 0.64,0.55 1.69,5.28 4.98,6.53 6.67,6.53 0.96,0 2.69,-0.44 2.69,-3.33 0,-1.54 -0.84,-4.89 -2.69,-11.86 -0.79,-3.09 -2.53,-5.18 -4.73,-5.18 -0.3,0 -1.44,0 -2.49,0.65 1.25,0.24 2.35,1.28 2.35,2.69 0,1.34 -1.1,1.73 -1.85,1.73 -1.5,0 -2.75,-1.29 -2.75,-2.89 0,-2.28 2.5,-3.28 4.69,-3.28 3.3,0 5.08,3.49 5.24,3.78 0.59,-1.84 2.39,-3.78 5.37,-3.78 5.14,0 7.98,6.42 7.98,7.67 0,0.5 -0.45,0.5 -0.6,0.5 -0.44,0 -0.55,-0.2 -0.65,-0.54 -1.64,-5.33 -5.03,-6.53 -6.62,-6.53 -1.95,0 -2.75,1.59 -2.75,3.29 0,1.1 0.3,2.19 0.86,4.38 z"
           inkscape:connector-curvature="0"
           style="fill:#000000;stroke-width:0" /><path
           id="path4270"
           d="m 547.26,417.65 0.16,0 0.16,0 0.16,0.01 0.07,0 0.08,0.01 0.08,0 0.07,0.01 0.07,0.01 0.08,0.01 0.07,0.02 0.06,0.02 0.07,0.02 0.06,0.02 0.06,0.02 0.06,0.03 0.06,0.03 0.05,0.04 0.05,0.03 0.05,0.05 0.04,0.04 0.04,0.05 0.02,0.03 0.01,0.03 0.02,0.03 0.01,0.03 0.02,0.03 0.01,0.03 0.01,0.04 0.01,0.03 0.01,0.04 0.01,0.04 0.01,0.04 0,0.04 0.01,0.04 0,0.04 0,0.05 0,0.04 c 0,1 -0.91,1 -1.75,1 h -26.95 c -0.84,0 -1.74,0 -1.74,-1 0,-1 0.9,-1 1.74,-1 z"
           inkscape:connector-curvature="0"
           style="fill:#000000;stroke-width:0" /><path
           id="path4272"
           d="m 570.56,410.04 5.28,5.13 c 7.76,6.87 10.76,9.56 10.76,14.54 0,5.69 -4.48,9.68 -10.56,9.68 -5.64,0 -9.32,-4.6 -9.32,-9.03 0,-2.79 2.5,-2.79 2.63,-2.79 0.87,0 2.6,0.6 2.6,2.64 0,1.3 -0.89,2.6 -2.64,2.6 -0.39,0 -0.5,0 -0.64,-0.05 1.14,3.24 3.83,5.08 6.72,5.08 4.53,0 6.68,-4.05 6.68,-8.13 0,-3.98 -2.5,-7.92 -5.23,-11.01 l -9.56,-10.66 c -0.56,-0.54 -0.56,-0.64 -0.56,-1.84 h 18.48 l 1.4,8.67 h -1.25 c -0.25,-1.5 -0.59,-3.69 -1.09,-4.44 -0.36,-0.39 -3.64,-0.39 -4.73,-0.39 z"
           inkscape:connector-curvature="0"
           style="fill:#000000;stroke-width:0" /><path
           id="path4274"
           d="m 603.58,418.65 0,0.37 -0.01,0.39 -0.01,0.39 -0.01,0.41 -0.04,0.84 -0.06,0.88 -0.08,0.92 -0.11,0.95 -0.13,0.97 -0.17,1.01 -0.19,1.02 -0.23,1.03 -0.27,1.05 -0.31,1.06 -0.34,1.07 -0.4,1.07 -0.21,0.53 -0.23,0.53 -0.23,0.53 -0.25,0.53 c -2.99,6.12 -7.27,9.36 -7.77,9.36 -0.3,0 -0.5,-0.19 -0.5,-0.49 0,-0.15 0,-0.25 0.94,-1.15 4.89,-4.92 7.73,-12.85 7.73,-23.27 0,-8.51 -1.84,-17.28 -8.03,-23.56 -0.64,-0.59 -0.64,-0.7 -0.64,-0.84 0,-0.3 0.2,-0.5 0.5,-0.5 0.5,0 4.97,3.39 7.92,9.71 2.53,5.47 3.13,11 3.13,15.19 z"
           inkscape:connector-curvature="0"
           style="fill:#000000;stroke-width:0" /><path
           id="path4276"
           d="m 626.11,430.54 h -1.18 c -0.1,-0.76 -0.46,-2.83 -0.91,-3.17 -0.27,-0.2 -2.95,-0.2 -3.44,-0.2 h -6.42 c 3.66,3.23 4.87,4.2 6.97,5.84 2.58,2.06 4.98,4.22 4.98,7.53 0,4.22 -3.68,6.8 -8.15,6.8 -4.31,0 -7.25,-3.03 -7.25,-6.23 0,-1.79 1.5,-1.96 1.86,-1.96 0.83,0 1.84,0.6 1.84,1.85 0,0.62 -0.25,1.84 -2.06,1.84 1.08,2.47 3.45,3.23 5.09,3.23 3.49,0 5.3,-2.7 5.3,-5.53 0,-3.03 -2.16,-5.43 -3.28,-6.68 l -8.39,-8.3 c -0.36,-0.31 -0.36,-0.39 -0.36,-1.36 h 14.36 z"
           inkscape:connector-curvature="0"
           style="fill:#000000;stroke-width:0" /><path
           id="path4278"
           d="m 662.38,417.65 h 13.9 c 0.69,0 1.64,0 1.64,1 0,1 -0.95,1 -1.64,1 h -13.9 v 13.96 c 0,0.68 0,1.64 -1,1.64 -0.99,0 -0.99,-0.96 -0.99,-1.64 v -13.96 h -13.95 c -0.71,0 -1.64,0 -1.64,-1 0,-1 0.93,-1 1.64,-1 h 13.95 v -13.94 c 0,-0.7 0,-1.65 0.99,-1.65 1,0 1,0.95 1,1.65 z"
           inkscape:connector-curvature="0"
           style="fill:#000000;stroke-width:0" /><path
           id="path4280"
           d="m 716.02,425.18 0,0.04 0.01,0.03 0.02,0.06 0.01,0.05 0.02,0.06 0.01,0.05 0.01,0.04 0.01,0.05 0.01,0.04 0.01,0.04 0.01,0.04 0.01,0.04 0.01,0.04 0,0.03 0.01,0.03 0,0.03 0.01,0.03 0,0.03 0.01,0.03 0,0.05 0.01,0.06 0,0.05 0,0.05 0,0.05 0,0.03 0,0.03 0,0.03 0,0.03 c 0,0.91 -0.68,1.35 -1.43,1.35 -0.5,0 -1.3,-0.3 -1.75,-1.05 -0.1,-0.25 -0.5,-1.78 -0.69,-2.69 -0.36,-1.29 -0.71,-2.64 -1,-3.98 l -2.25,-8.97 c -0.19,-0.75 -2.33,-4.23 -5.63,-4.23 -2.53,0 -3.09,2.18 -3.09,4.03 0,2.29 0.86,5.39 2.55,9.76 0.79,2.05 1,2.6 1,3.6 0,2.23 -1.6,4.07 -4.1,4.07 -4.73,0 -6.58,-7.21 -6.58,-7.67 0,-0.5 0.5,-0.5 0.61,-0.5 0.5,0 0.55,0.11 0.8,0.91 1.34,4.69 3.33,6.17 5.03,6.17 0.39,0 1.25,0 1.25,-1.59 0,-1.25 -0.5,-2.53 -0.86,-3.49 -1.98,-5.28 -2.89,-8.12 -2.89,-10.47 0,-4.42 3.14,-5.92 6.08,-5.92 1.95,0 3.64,0.85 5.03,2.24 -0.64,-2.58 -1.23,-5.03 -3.23,-7.68 -1.3,-1.68 -3.19,-3.14 -5.49,-3.14 -0.68,0 -2.94,0.16 -3.78,2.1 0.8,0 1.45,0 2.14,0.61 0.5,0.43 1,1.09 1,2.03 0,1.55 -1.34,1.75 -1.84,1.75 -1.14,0 -2.8,-0.8 -2.8,-3.24 0,-2.5 2.2,-4.34 5.28,-4.34 5.14,0 10.27,4.55 11.67,10.17 z"
           inkscape:connector-curvature="0"
           style="fill:#000000;stroke-width:0" /><path
           id="path4282"
           d="m 735.67,430.54 h -1.19 c -0.09,-0.76 -0.45,-2.83 -0.9,-3.17 -0.27,-0.2 -2.96,-0.2 -3.44,-0.2 h -6.42 c 3.66,3.23 4.87,4.2 6.97,5.84 2.58,2.06 4.98,4.22 4.98,7.53 0,4.22 -3.69,6.8 -8.15,6.8 -4.32,0 -7.25,-3.03 -7.25,-6.23 0,-1.79 1.5,-1.96 1.85,-1.96 0.83,0 1.85,0.6 1.85,1.85 0,0.62 -0.25,1.84 -2.06,1.84 1.07,2.47 3.45,3.23 5.09,3.23 3.48,0 5.3,-2.7 5.3,-5.53 0,-3.03 -2.16,-5.43 -3.28,-6.68 l -8.4,-8.3 c -0.35,-0.31 -0.35,-0.39 -0.35,-1.36 h 14.35 z"
           inkscape:connector-curvature="0"
           style="fill:#000000;stroke-width:0" /><path
           id="path4284"
           d="m 788.43,422.5 0.14,0 0.15,0 0.14,0 0.07,0.01 0.08,0 0.07,0.01 0.07,0.01 0.07,0.01 0.07,0.01 0.07,0.01 0.06,0.02 0.07,0.02 0.06,0.02 0.06,0.02 0.06,0.03 0.06,0.03 0.05,0.04 0.05,0.03 0.05,0.05 0.04,0.04 0.04,0.05 0.02,0.03 0.02,0.03 0.01,0.02 0.02,0.03 0.01,0.03 0.02,0.04 0.01,0.03 0.01,0.04 0.01,0.03 0.01,0.04 0,0.04 0.01,0.04 0,0.04 0.01,0.04 0,0.04 0,0.05 c 0,1 -0.95,1 -1.64,1 h -29.84 c -0.71,0 -1.64,0 -1.64,-1 0,-0.98 0.93,-0.98 1.68,-0.98 z"
           inkscape:connector-curvature="0"
           style="fill:#000000;stroke-width:0" /><path
           id="path4286"
           d="m 788.48,412.82 0.07,0 0.06,0 0.14,0.01 0.14,0 0.07,0 0.07,0.01 0.07,0.01 0.07,0 0.06,0.01 0.07,0.02 0.07,0.01 0.06,0.02 0.07,0.02 0.06,0.02 0.06,0.02 0.06,0.03 0.05,0.03 0.05,0.04 0.05,0.04 0.05,0.04 0.04,0.05 0.02,0.02 0.02,0.03 0.02,0.02 0.02,0.03 0.01,0.03 0.02,0.03 0.01,0.03 0.02,0.03 0.01,0.04 0.01,0.03 0.01,0.04 0.01,0.04 0,0.04 0.01,0.04 0,0.04 0.01,0.04 0,0.05 0,0.04 c 0,1 -0.95,1 -1.69,1 h -29.75 c -0.75,0 -1.68,0 -1.68,-1 0,-1 0.93,-1 1.64,-1 z"
           inkscape:connector-curvature="0"
           style="fill:#000000;stroke-width:0" /><path
           id="path4288"
           d="m 821.4,414.42 v -4.33 c 0,-1.8 -0.1,-2.34 -3.78,-2.34 h -1.05 v -1.55 c 2.05,0.16 4.64,0.16 6.73,0.16 2.1,0 4.74,0 6.77,-0.16 v 1.55 h -1.05 c -3.68,0 -3.78,0.54 -3.78,2.34 v 4.33 h 4.99 v 1.54 h -4.99 v 22.68 c 0,1 0,1.29 -0.79,1.29 -0.46,0 -0.6,0 -1,-0.61 l -15.3,-23.36 h 1.4 l 12.16,18.58 v -18.58 h -12.16 -1.4 v -1.54 z"
           inkscape:connector-curvature="0"
           style="fill:#000000;stroke-width:0" /></g>    </g>
    <path
       style="fill:#f2f2f2;fill-opacity:1;stroke:none"
       d="M 385.40858,451.76983 C 360.6031,433.47554 343.71303,404.37794 339.86583,373.31042 l -1.21993,-9.85141 55.41091,0 55.41091,0 0,7.86876 c 0,21.75545 -18.22983,57.6874 -37.83329,74.57142 -15.19081,13.0835 -16.1536,13.29902 -26.22585,5.87064 l 0,0 z"
       id="path4338"
       inkscape:connector-curvature="0" />
    <path
       style="fill:#ececec;fill-opacity:1;stroke:none"
       d="m 339.86583,348.97164 c 3.21351,-25.9502 17.10561,-53.21683 35.88742,-70.43779 17.05747,-15.63991 18.24595,-15.88436 30.76254,-6.32722 21.84504,16.67993 39.52815,47.78393 42.32431,74.44704 l 1.2762,12.16938 -55.7352,0 -55.7352,0 1.21993,-9.85141 z m 51.04561,-9.26441 c -0.41472,-3.91156 0.81264,-5.40292 4.93063,-5.9912 6.16481,-0.88067 12.7752,4.07959 7.84558,5.88712 -5.81195,2.13105 -2.68881,5.31203 5.21545,5.31203 8.99282,0 9.75495,-1.00709 4.63595,-6.12608 -2.13413,-2.13414 -3.47696,-7.81591 -3.47696,-14.71171 0,-11.92199 -1.65353,-18.56784 -4.61979,-18.56784 -0.99319,0 -6.18257,7.36719 -11.53196,16.37153 -5.34938,9.00435 -11.20525,16.93912 -13.01305,17.63284 -5.71887,2.19454 -3.55798,5.40126 3.63971,5.40126 5.79871,0 6.83669,-0.84803 6.37444,-5.20795 l 0,0 z"
       id="path4342"
       inkscape:connector-curvature="0" />
  </g>
</svg>
