<?xml version="1.0" encoding="UTF-8"?>
<svg xmlns="http://www.w3.org/2000/svg" xmlns:xlink="http://www.w3.org/1999/xlink" width="257.76485pt" height="79.869165pt" viewBox="0 0 257.76485 79.869165" version="1.1">
<g id="surface1">
<path style=" stroke:none;fill-rule:nonzero;fill:rgb(0%,0%,100%);fill-opacity:1;" d="M 6.25 0.175781 L 4.667969 0.175781 L 0.15625 12.617188 L 1.484375 12.617188 L 2.792969 8.984375 L 7.851562 8.984375 L 9.179688 12.617188 L 10.761719 12.617188 Z M 5.3125 1.464844 L 7.460938 7.96875 L 3.183594 7.96875 Z M 5.3125 1.464844 "/>
<path style=" stroke:none;fill-rule:nonzero;fill:rgb(0%,0%,100%);fill-opacity:1;" d="M 18.816406 7.226562 C 18.816406 6.132812 18.582031 4.472656 16.414062 4.472656 C 15.417969 4.472656 14.558594 4.921875 13.875 5.78125 L 13.875 4.570312 L 12.605469 4.570312 L 12.605469 12.617188 L 13.953125 12.617188 L 13.953125 8.144531 C 13.953125 7.050781 14.382812 5.546875 15.730469 5.546875 C 17.410156 5.546875 17.449219 6.71875 17.449219 7.34375 L 17.449219 12.617188 L 18.816406 12.617188 Z M 18.816406 7.226562 "/>
<path style=" stroke:none;fill-rule:nonzero;fill:rgb(0%,0%,100%);fill-opacity:1;" d="M 26.332031 5.546875 C 26.332031 5.546875 26.371094 5.585938 26.390625 5.625 C 26.761719 5.585938 27.152344 5.527344 27.816406 5.527344 C 27.875 5.527344 28.285156 5.527344 28.734375 5.566406 L 28.539062 4.472656 C 28.207031 4.472656 26.976562 4.492188 25.785156 5.078125 C 25.199219 4.570312 24.476562 4.472656 24.125 4.472656 C 22.5625 4.472656 21.3125 5.78125 21.3125 7.363281 C 21.3125 8.007812 21.507812 8.59375 21.898438 9.140625 C 21.488281 9.707031 21.390625 10.253906 21.390625 10.683594 C 21.390625 11.347656 21.644531 11.796875 21.839844 12.03125 C 20.921875 12.617188 20.707031 13.378906 20.707031 13.886719 C 20.707031 15.195312 22.40625 16.289062 24.59375 16.289062 C 26.78125 16.289062 28.5 15.234375 28.5 13.867188 C 28.5 11.367188 25.589844 11.367188 24.867188 11.367188 L 23.34375 11.367188 C 23.089844 11.367188 22.308594 11.367188 22.308594 10.410156 C 22.308594 10.019531 22.386719 9.902344 22.503906 9.746094 C 22.796875 9.960938 23.382812 10.273438 24.105469 10.273438 C 25.648438 10.273438 26.917969 9.003906 26.917969 7.363281 C 26.917969 6.71875 26.683594 6.054688 26.3125 5.566406 Z M 24.125 9.277344 C 23.34375 9.277344 22.542969 8.75 22.542969 7.382812 C 22.542969 5.78125 23.558594 5.46875 24.105469 5.46875 C 24.90625 5.46875 25.6875 5.996094 25.6875 7.363281 C 25.6875 8.964844 24.691406 9.277344 24.125 9.277344 Z M 24.886719 12.65625 C 25.277344 12.65625 27.25 12.65625 27.25 13.886719 C 27.25 14.707031 26.019531 15.3125 24.613281 15.3125 C 23.207031 15.3125 21.957031 14.746094 21.957031 13.867188 C 21.957031 13.828125 21.957031 12.65625 23.324219 12.65625 Z M 24.886719 12.65625 "/>
<path style=" stroke:none;fill-rule:nonzero;fill:rgb(0%,0%,100%);fill-opacity:1;" d="M 31.800781 0.175781 L 30.472656 0.175781 L 30.472656 12.617188 L 31.800781 12.617188 Z M 31.800781 0.175781 "/>
<path style=" stroke:none;fill-rule:nonzero;fill:rgb(0%,0%,100%);fill-opacity:1;" d="M 40.574219 8.574219 C 40.574219 7.8125 40.496094 6.71875 39.929688 5.761719 C 39.1875 4.53125 37.9375 4.394531 37.410156 4.394531 C 35.476562 4.394531 33.855469 6.25 33.855469 8.574219 C 33.855469 10.957031 35.574219 12.792969 37.664062 12.792969 C 38.484375 12.792969 39.480469 12.558594 40.457031 11.855469 C 40.457031 11.777344 40.398438 11.210938 40.398438 11.191406 C 40.378906 11.171875 40.359375 10.761719 40.359375 10.703125 C 39.285156 11.601562 38.230469 11.71875 37.703125 11.71875 C 36.316406 11.71875 35.125 10.488281 35.105469 8.574219 Z M 35.203125 7.617188 C 35.515625 6.40625 36.355469 5.46875 37.410156 5.46875 C 37.976562 5.46875 39.207031 5.722656 39.5 7.617188 Z M 35.203125 7.617188 "/>
<path style=" stroke:none;fill-rule:nonzero;fill:rgb(0%,0%,100%);fill-opacity:1;" d="M 47.082031 4.941406 C 45.949219 4.414062 44.972656 4.394531 44.5625 4.394531 C 44.152344 4.394531 41.652344 4.394531 41.652344 6.71875 C 41.652344 7.5 42.082031 8.046875 42.355469 8.300781 C 43 8.847656 43.449219 8.945312 44.503906 9.160156 C 45.109375 9.277344 46.144531 9.492188 46.144531 10.449219 C 46.144531 11.679688 44.738281 11.679688 44.484375 11.679688 C 43.78125 11.679688 42.726562 11.484375 41.769531 10.78125 L 41.554688 12.011719 C 41.632812 12.070312 42.863281 12.792969 44.503906 12.792969 C 46.828125 12.792969 47.375 11.40625 47.375 10.332031 C 47.375 9.433594 46.828125 8.847656 46.75 8.769531 C 46.085938 8.085938 45.539062 7.96875 44.464844 7.753906 C 43.800781 7.636719 42.902344 7.460938 42.902344 6.5625 C 42.902344 5.449219 44.152344 5.449219 44.386719 5.449219 C 45.324219 5.449219 46.085938 5.664062 46.867188 6.113281 Z M 47.082031 4.941406 "/>
<path style=" stroke:none;fill-rule:nonzero;fill:rgb(0%,0%,100%);fill-opacity:1;" d="M 61.890625 8.671875 C 61.890625 6.25 60.113281 4.394531 58.0625 4.394531 C 55.953125 4.394531 54.214844 6.289062 54.214844 8.671875 C 54.214844 11.015625 55.992188 12.792969 58.042969 12.792969 C 60.152344 12.792969 61.890625 10.976562 61.890625 8.671875 Z M 58.0625 11.679688 C 56.773438 11.679688 55.5625 10.605469 55.5625 8.496094 C 55.5625 6.328125 56.910156 5.46875 58.042969 5.46875 C 59.273438 5.46875 60.542969 6.386719 60.542969 8.496094 C 60.542969 10.703125 59.253906 11.679688 58.0625 11.679688 Z M 58.0625 11.679688 "/>
<path style=" stroke:none;fill-rule:nonzero;fill:rgb(0%,0%,100%);fill-opacity:1;" d="M 65.625 5.703125 L 67.539062 5.703125 L 67.539062 4.648438 L 65.585938 4.648438 L 65.585938 2.5 C 65.585938 1.289062 66.601562 1.074219 67.207031 1.074219 C 67.832031 1.074219 68.378906 1.269531 68.59375 1.347656 L 68.59375 0.175781 C 68.476562 0.136719 67.871094 0 67.226562 0 C 65.507812 0 64.296875 1.308594 64.296875 3.046875 L 64.296875 4.648438 L 62.988281 4.648438 L 62.988281 5.703125 L 64.296875 5.703125 L 64.296875 12.617188 L 65.625 12.617188 Z M 65.625 5.703125 "/>
<path style=" stroke:none;fill-rule:nonzero;fill:rgb(0%,0%,100%);fill-opacity:1;" d="M 76.449219 0.449219 L 74.90625 0.449219 L 74.90625 1.992188 L 76.449219 1.992188 Z M 76.351562 4.648438 L 75.023438 4.648438 L 75.023438 12.617188 L 76.351562 12.617188 Z M 76.351562 4.648438 "/>
<path style=" stroke:none;fill-rule:nonzero;fill:rgb(0%,0%,100%);fill-opacity:1;" d="M 85.414062 7.226562 C 85.414062 6.132812 85.179688 4.472656 83.011719 4.472656 C 82.015625 4.472656 81.15625 4.921875 80.472656 5.78125 L 80.472656 4.570312 L 79.203125 4.570312 L 79.203125 12.617188 L 80.550781 12.617188 L 80.550781 8.144531 C 80.550781 7.050781 80.980469 5.546875 82.328125 5.546875 C 84.007812 5.546875 84.046875 6.71875 84.046875 7.34375 L 84.046875 12.617188 L 85.414062 12.617188 Z M 85.414062 7.226562 "/>
<path style=" stroke:none;fill-rule:nonzero;fill:rgb(0%,0%,100%);fill-opacity:1;" d="M 89.882812 5.703125 L 92.363281 5.703125 L 92.363281 4.648438 L 89.882812 4.648438 L 89.882812 2.382812 L 88.652344 2.382812 L 88.652344 4.648438 L 87.148438 4.648438 L 87.148438 5.703125 L 88.613281 5.703125 L 88.613281 10.527344 C 88.613281 11.5625 88.847656 12.792969 90.078125 12.792969 C 91.289062 12.792969 92.109375 12.382812 92.65625 12.089844 L 92.382812 11.054688 C 91.757812 11.621094 91.09375 11.679688 90.78125 11.679688 C 89.980469 11.679688 89.882812 10.839844 89.882812 10.214844 Z M 89.882812 5.703125 "/>
<path style=" stroke:none;fill-rule:nonzero;fill:rgb(0%,0%,100%);fill-opacity:1;" d="M 100.421875 8.574219 C 100.421875 7.8125 100.34375 6.71875 99.777344 5.761719 C 99.035156 4.53125 97.785156 4.394531 97.257812 4.394531 C 95.324219 4.394531 93.703125 6.25 93.703125 8.574219 C 93.703125 10.957031 95.421875 12.792969 97.511719 12.792969 C 98.332031 12.792969 99.328125 12.558594 100.304688 11.855469 C 100.304688 11.777344 100.246094 11.210938 100.246094 11.191406 C 100.226562 11.171875 100.207031 10.761719 100.207031 10.703125 C 99.132812 11.601562 98.078125 11.71875 97.550781 11.71875 C 96.164062 11.71875 94.972656 10.488281 94.953125 8.574219 Z M 95.050781 7.617188 C 95.363281 6.40625 96.203125 5.46875 97.257812 5.46875 C 97.824219 5.46875 99.054688 5.722656 99.347656 7.617188 Z M 95.050781 7.617188 "/>
<path style=" stroke:none;fill-rule:nonzero;fill:rgb(0%,0%,100%);fill-opacity:1;" d="M 103.652344 8.691406 C 103.652344 6.875 105 5.703125 106.621094 5.683594 L 106.621094 4.472656 C 104.980469 4.492188 104.042969 5.449219 103.554688 6.152344 L 103.554688 4.570312 L 102.324219 4.570312 L 102.324219 12.617188 L 103.652344 12.617188 Z M 103.652344 8.691406 "/>
<path style=" stroke:none;fill-rule:nonzero;fill:rgb(0%,0%,100%);fill-opacity:1;" d="M 112.933594 4.941406 C 111.800781 4.414062 110.824219 4.394531 110.414062 4.394531 C 110.003906 4.394531 107.503906 4.394531 107.503906 6.71875 C 107.503906 7.5 107.933594 8.046875 108.207031 8.300781 C 108.851562 8.847656 109.300781 8.945312 110.355469 9.160156 C 110.960938 9.277344 111.996094 9.492188 111.996094 10.449219 C 111.996094 11.679688 110.589844 11.679688 110.335938 11.679688 C 109.632812 11.679688 108.578125 11.484375 107.621094 10.78125 L 107.40625 12.011719 C 107.484375 12.070312 108.714844 12.792969 110.355469 12.792969 C 112.679688 12.792969 113.226562 11.40625 113.226562 10.332031 C 113.226562 9.433594 112.679688 8.847656 112.601562 8.769531 C 111.9375 8.085938 111.390625 7.96875 110.316406 7.753906 C 109.652344 7.636719 108.753906 7.460938 108.753906 6.5625 C 108.753906 5.449219 110.003906 5.449219 110.238281 5.449219 C 111.175781 5.449219 111.9375 5.664062 112.71875 6.113281 Z M 112.933594 4.941406 "/>
<path style=" stroke:none;fill-rule:nonzero;fill:rgb(0%,0%,100%);fill-opacity:1;" d="M 120.972656 8.574219 C 120.972656 7.8125 120.894531 6.71875 120.328125 5.761719 C 119.585938 4.53125 118.335938 4.394531 117.808594 4.394531 C 115.875 4.394531 114.253906 6.25 114.253906 8.574219 C 114.253906 10.957031 115.972656 12.792969 118.0625 12.792969 C 118.882812 12.792969 119.878906 12.558594 120.855469 11.855469 C 120.855469 11.777344 120.796875 11.210938 120.796875 11.191406 C 120.777344 11.171875 120.757812 10.761719 120.757812 10.703125 C 119.683594 11.601562 118.628906 11.71875 118.101562 11.71875 C 116.714844 11.71875 115.523438 10.488281 115.503906 8.574219 Z M 115.601562 7.617188 C 115.914062 6.40625 116.753906 5.46875 117.808594 5.46875 C 118.375 5.46875 119.605469 5.722656 119.898438 7.617188 Z M 115.601562 7.617188 "/>
<path style=" stroke:none;fill-rule:nonzero;fill:rgb(0%,0%,100%);fill-opacity:1;" d="M 128.65625 10.683594 C 127.835938 11.347656 126.917969 11.679688 125.921875 11.679688 C 124.417969 11.679688 123.460938 10.351562 123.460938 8.613281 C 123.460938 7.128906 124.183594 5.507812 125.960938 5.507812 C 127.171875 5.507812 127.679688 5.78125 128.441406 6.308594 L 128.65625 5.136719 C 127.621094 4.53125 127.035156 4.394531 125.960938 4.394531 C 123.5 4.394531 122.09375 6.582031 122.09375 8.613281 C 122.09375 10.917969 123.753906 12.792969 125.902344 12.792969 C 126.78125 12.792969 127.777344 12.578125 128.773438 11.855469 C 128.773438 11.816406 128.714844 11.25 128.695312 11.191406 Z M 128.65625 10.683594 "/>
<path style=" stroke:none;fill-rule:nonzero;fill:rgb(0%,0%,100%);fill-opacity:1;" d="M 132.335938 5.703125 L 134.816406 5.703125 L 134.816406 4.648438 L 132.335938 4.648438 L 132.335938 2.382812 L 131.105469 2.382812 L 131.105469 4.648438 L 129.601562 4.648438 L 129.601562 5.703125 L 131.066406 5.703125 L 131.066406 10.527344 C 131.066406 11.5625 131.300781 12.792969 132.53125 12.792969 C 133.742188 12.792969 134.5625 12.382812 135.109375 12.089844 L 134.835938 11.054688 C 134.210938 11.621094 133.546875 11.679688 133.234375 11.679688 C 132.433594 11.679688 132.335938 10.839844 132.335938 10.214844 Z M 132.335938 5.703125 "/>
<path style=" stroke:none;fill-rule:nonzero;fill:rgb(0%,0%,100%);fill-opacity:1;" d="M 138.398438 0.449219 L 136.855469 0.449219 L 136.855469 1.992188 L 138.398438 1.992188 Z M 138.300781 4.648438 L 136.972656 4.648438 L 136.972656 12.617188 L 138.300781 12.617188 Z M 138.300781 4.648438 "/>
<path style=" stroke:none;fill-rule:nonzero;fill:rgb(0%,0%,100%);fill-opacity:1;" d="M 147.992188 8.671875 C 147.992188 6.25 146.214844 4.394531 144.164062 4.394531 C 142.054688 4.394531 140.316406 6.289062 140.316406 8.671875 C 140.316406 11.015625 142.09375 12.792969 144.144531 12.792969 C 146.253906 12.792969 147.992188 10.976562 147.992188 8.671875 Z M 144.164062 11.679688 C 142.875 11.679688 141.664062 10.605469 141.664062 8.496094 C 141.664062 6.328125 143.011719 5.46875 144.144531 5.46875 C 145.375 5.46875 146.644531 6.386719 146.644531 8.496094 C 146.644531 10.703125 145.355469 11.679688 144.164062 11.679688 Z M 144.164062 11.679688 "/>
<path style=" stroke:none;fill-rule:nonzero;fill:rgb(0%,0%,100%);fill-opacity:1;" d="M 156.214844 7.226562 C 156.214844 6.132812 155.980469 4.472656 153.8125 4.472656 C 152.816406 4.472656 151.957031 4.921875 151.273438 5.78125 L 151.273438 4.570312 L 150.003906 4.570312 L 150.003906 12.617188 L 151.351562 12.617188 L 151.351562 8.144531 C 151.351562 7.050781 151.78125 5.546875 153.128906 5.546875 C 154.808594 5.546875 154.847656 6.71875 154.847656 7.34375 L 154.847656 12.617188 L 156.214844 12.617188 Z M 156.214844 7.226562 "/>
<path style=" stroke:none;fill-rule:nonzero;fill:rgb(0%,0%,0%);fill-opacity:1;" d="M 8.144531 28.101562 L 8.144531 27.027344 L 2.832031 27.027344 L 2.832031 22.476562 L 5.136719 22.476562 C 5.351562 22.476562 5.566406 22.496094 5.78125 22.496094 L 8.886719 22.496094 L 8.886719 21.363281 L 1.289062 21.363281 L 1.289062 33.765625 L 2.832031 33.765625 L 2.832031 28.101562 Z M 8.144531 28.101562 "/>
<path style=" stroke:none;fill-rule:nonzero;fill:rgb(0%,0%,0%);fill-opacity:1;" d="M 12.398438 21.597656 L 10.855469 21.597656 L 10.855469 23.140625 L 12.398438 23.140625 Z M 12.300781 25.796875 L 10.972656 25.796875 L 10.972656 33.765625 L 12.300781 33.765625 Z M 12.300781 25.796875 "/>
<path style=" stroke:none;fill-rule:nonzero;fill:rgb(0%,0%,0%);fill-opacity:1;" d="M 21.367188 28.375 C 21.367188 27.28125 21.132812 25.621094 18.964844 25.621094 C 17.96875 25.621094 17.109375 26.070312 16.425781 26.929688 L 16.425781 25.71875 L 15.15625 25.71875 L 15.15625 33.765625 L 16.503906 33.765625 L 16.503906 29.292969 C 16.503906 28.199219 16.933594 26.695312 18.28125 26.695312 C 19.960938 26.695312 20 27.867188 20 28.492188 L 20 33.765625 L 21.367188 33.765625 Z M 21.367188 28.375 "/>
<path style=" stroke:none;fill-rule:nonzero;fill:rgb(0%,0%,0%);fill-opacity:1;" d="M 30.347656 21.324219 L 29.019531 21.324219 L 29.019531 26.558594 C 28.199219 25.875 27.261719 25.621094 26.5 25.621094 C 24.800781 25.621094 23.394531 27.457031 23.394531 29.78125 C 23.394531 32.105469 24.722656 33.941406 26.421875 33.941406 C 27.085938 33.941406 28.101562 33.726562 29 32.847656 L 29 33.765625 L 30.347656 33.765625 Z M 29 31.65625 C 28.570312 32.417969 27.925781 32.867188 27.144531 32.867188 C 26.050781 32.867188 24.761719 32.027344 24.761719 29.800781 C 24.761719 27.417969 26.285156 26.695312 27.320312 26.695312 C 28.023438 26.695312 28.589844 27.066406 29 27.652344 Z M 29 31.65625 "/>
<path style=" stroke:none;fill-rule:nonzero;fill:rgb(0%,0%,0%);fill-opacity:1;" d="M 34.601562 21.597656 L 33.058594 21.597656 L 33.058594 23.140625 L 34.601562 23.140625 Z M 34.503906 25.796875 L 33.175781 25.796875 L 33.175781 33.765625 L 34.503906 33.765625 Z M 34.503906 25.796875 "/>
<path style=" stroke:none;fill-rule:nonzero;fill:rgb(0%,0%,0%);fill-opacity:1;" d="M 43.566406 28.375 C 43.566406 27.28125 43.332031 25.621094 41.164062 25.621094 C 40.167969 25.621094 39.308594 26.070312 38.625 26.929688 L 38.625 25.71875 L 37.355469 25.71875 L 37.355469 33.765625 L 38.703125 33.765625 L 38.703125 29.292969 C 38.703125 28.199219 39.132812 26.695312 40.480469 26.695312 C 42.160156 26.695312 42.199219 27.867188 42.199219 28.492188 L 42.199219 33.765625 L 43.566406 33.765625 Z M 43.566406 28.375 "/>
<path style=" stroke:none;fill-rule:nonzero;fill:rgb(0%,0%,0%);fill-opacity:1;" d="M 51.082031 26.695312 C 51.082031 26.695312 51.121094 26.734375 51.140625 26.773438 C 51.511719 26.734375 51.902344 26.675781 52.566406 26.675781 C 52.625 26.675781 53.035156 26.675781 53.484375 26.714844 L 53.289062 25.621094 C 52.957031 25.621094 51.726562 25.640625 50.535156 26.226562 C 49.949219 25.71875 49.226562 25.621094 48.875 25.621094 C 47.3125 25.621094 46.0625 26.929688 46.0625 28.511719 C 46.0625 29.15625 46.257812 29.742188 46.648438 30.289062 C 46.238281 30.855469 46.140625 31.402344 46.140625 31.832031 C 46.140625 32.496094 46.394531 32.945312 46.589844 33.179688 C 45.671875 33.765625 45.457031 34.527344 45.457031 35.035156 C 45.457031 36.34375 47.15625 37.4375 49.34375 37.4375 C 51.53125 37.4375 53.25 36.382812 53.25 35.015625 C 53.25 32.515625 50.339844 32.515625 49.617188 32.515625 L 48.09375 32.515625 C 47.839844 32.515625 47.058594 32.515625 47.058594 31.558594 C 47.058594 31.167969 47.136719 31.050781 47.253906 30.894531 C 47.546875 31.109375 48.132812 31.421875 48.855469 31.421875 C 50.398438 31.421875 51.667969 30.152344 51.667969 28.511719 C 51.667969 27.867188 51.433594 27.203125 51.0625 26.714844 Z M 48.875 30.425781 C 48.09375 30.425781 47.292969 29.898438 47.292969 28.53125 C 47.292969 26.929688 48.308594 26.617188 48.855469 26.617188 C 49.65625 26.617188 50.4375 27.144531 50.4375 28.511719 C 50.4375 30.113281 49.441406 30.425781 48.875 30.425781 Z M 49.636719 33.804688 C 50.027344 33.804688 52 33.804688 52 35.035156 C 52 35.855469 50.769531 36.460938 49.363281 36.460938 C 47.957031 36.460938 46.707031 35.894531 46.707031 35.015625 C 46.707031 34.976562 46.707031 33.804688 48.074219 33.804688 Z M 49.636719 33.804688 "/>
<path style=" stroke:none;fill-rule:nonzero;fill:rgb(0%,0%,0%);fill-opacity:1;" d="M 60.632812 26.851562 L 63.113281 26.851562 L 63.113281 25.796875 L 60.632812 25.796875 L 60.632812 23.53125 L 59.402344 23.53125 L 59.402344 25.796875 L 57.898438 25.796875 L 57.898438 26.851562 L 59.363281 26.851562 L 59.363281 31.675781 C 59.363281 32.710938 59.597656 33.941406 60.828125 33.941406 C 62.039062 33.941406 62.859375 33.53125 63.40625 33.238281 L 63.132812 32.203125 C 62.507812 32.769531 61.84375 32.828125 61.53125 32.828125 C 60.730469 32.828125 60.632812 31.988281 60.632812 31.363281 Z M 60.632812 26.851562 "/>
<path style=" stroke:none;fill-rule:nonzero;fill:rgb(0%,0%,0%);fill-opacity:1;" d="M 71.464844 28.375 C 71.464844 27.28125 71.230469 25.621094 69.0625 25.621094 C 67.832031 25.621094 67.011719 26.324219 66.582031 26.871094 L 66.582031 21.324219 L 65.253906 21.324219 L 65.253906 33.765625 L 66.601562 33.765625 L 66.601562 29.292969 C 66.601562 28.199219 67.03125 26.695312 68.378906 26.695312 C 70.058594 26.695312 70.097656 27.867188 70.097656 28.492188 L 70.097656 33.765625 L 71.464844 33.765625 Z M 71.464844 28.375 "/>
<path style=" stroke:none;fill-rule:nonzero;fill:rgb(0%,0%,0%);fill-opacity:1;" d="M 80.171875 29.722656 C 80.171875 28.960938 80.09375 27.867188 79.527344 26.910156 C 78.785156 25.679688 77.535156 25.542969 77.007812 25.542969 C 75.074219 25.542969 73.453125 27.398438 73.453125 29.722656 C 73.453125 32.105469 75.171875 33.941406 77.261719 33.941406 C 78.082031 33.941406 79.078125 33.707031 80.054688 33.003906 C 80.054688 32.925781 79.996094 32.359375 79.996094 32.339844 C 79.976562 32.320312 79.957031 31.910156 79.957031 31.851562 C 78.882812 32.75 77.828125 32.867188 77.300781 32.867188 C 75.914062 32.867188 74.722656 31.636719 74.703125 29.722656 Z M 74.800781 28.765625 C 75.113281 27.554688 75.953125 26.617188 77.007812 26.617188 C 77.574219 26.617188 78.804688 26.871094 79.097656 28.765625 Z M 74.800781 28.765625 "/>
<path style=" stroke:none;fill-rule:nonzero;fill:rgb(0%,0%,0%);fill-opacity:1;" d="M 87.550781 21.597656 L 86.007812 21.597656 L 86.007812 23.140625 L 87.550781 23.140625 Z M 87.453125 25.796875 L 86.125 25.796875 L 86.125 33.765625 L 87.453125 33.765625 Z M 87.453125 25.796875 "/>
<path style=" stroke:none;fill-rule:nonzero;fill:rgb(0%,0%,0%);fill-opacity:1;" d="M 96.515625 28.375 C 96.515625 27.28125 96.28125 25.621094 94.113281 25.621094 C 93.117188 25.621094 92.257812 26.070312 91.574219 26.929688 L 91.574219 25.71875 L 90.304688 25.71875 L 90.304688 33.765625 L 91.652344 33.765625 L 91.652344 29.292969 C 91.652344 28.199219 92.082031 26.695312 93.429688 26.695312 C 95.109375 26.695312 95.148438 27.867188 95.148438 28.492188 L 95.148438 33.765625 L 96.515625 33.765625 Z M 96.515625 28.375 "/>
<path style=" stroke:none;fill-rule:nonzero;fill:rgb(0%,0%,0%);fill-opacity:1;" d="M 100.984375 26.851562 L 103.464844 26.851562 L 103.464844 25.796875 L 100.984375 25.796875 L 100.984375 23.53125 L 99.753906 23.53125 L 99.753906 25.796875 L 98.25 25.796875 L 98.25 26.851562 L 99.714844 26.851562 L 99.714844 31.675781 C 99.714844 32.710938 99.949219 33.941406 101.179688 33.941406 C 102.390625 33.941406 103.210938 33.53125 103.757812 33.238281 L 103.484375 32.203125 C 102.859375 32.769531 102.195312 32.828125 101.882812 32.828125 C 101.082031 32.828125 100.984375 31.988281 100.984375 31.363281 Z M 100.984375 26.851562 "/>
<path style=" stroke:none;fill-rule:nonzero;fill:rgb(0%,0%,0%);fill-opacity:1;" d="M 111.523438 29.722656 C 111.523438 28.960938 111.445312 27.867188 110.878906 26.910156 C 110.136719 25.679688 108.886719 25.542969 108.359375 25.542969 C 106.425781 25.542969 104.804688 27.398438 104.804688 29.722656 C 104.804688 32.105469 106.523438 33.941406 108.613281 33.941406 C 109.433594 33.941406 110.429688 33.707031 111.40625 33.003906 C 111.40625 32.925781 111.347656 32.359375 111.347656 32.339844 C 111.328125 32.320312 111.308594 31.910156 111.308594 31.851562 C 110.234375 32.75 109.179688 32.867188 108.652344 32.867188 C 107.265625 32.867188 106.074219 31.636719 106.054688 29.722656 Z M 106.152344 28.765625 C 106.464844 27.554688 107.304688 26.617188 108.359375 26.617188 C 108.925781 26.617188 110.15625 26.871094 110.449219 28.765625 Z M 106.152344 28.765625 "/>
<path style=" stroke:none;fill-rule:nonzero;fill:rgb(0%,0%,0%);fill-opacity:1;" d="M 114.75 29.839844 C 114.75 28.023438 116.097656 26.851562 117.71875 26.832031 L 117.71875 25.621094 C 116.078125 25.640625 115.140625 26.597656 114.652344 27.300781 L 114.652344 25.71875 L 113.421875 25.71875 L 113.421875 33.765625 L 114.75 33.765625 Z M 114.75 29.839844 "/>
<path style=" stroke:none;fill-rule:nonzero;fill:rgb(0%,0%,0%);fill-opacity:1;" d="M 124.03125 26.089844 C 122.898438 25.5625 121.921875 25.542969 121.511719 25.542969 C 121.101562 25.542969 118.601562 25.542969 118.601562 27.867188 C 118.601562 28.648438 119.03125 29.195312 119.304688 29.449219 C 119.949219 29.996094 120.398438 30.09375 121.453125 30.308594 C 122.058594 30.425781 123.09375 30.640625 123.09375 31.597656 C 123.09375 32.828125 121.6875 32.828125 121.433594 32.828125 C 120.730469 32.828125 119.675781 32.632812 118.71875 31.929688 L 118.503906 33.160156 C 118.582031 33.21875 119.8125 33.941406 121.453125 33.941406 C 123.777344 33.941406 124.324219 32.554688 124.324219 31.480469 C 124.324219 30.582031 123.777344 29.996094 123.699219 29.917969 C 123.035156 29.234375 122.488281 29.117188 121.414062 28.902344 C 120.75 28.785156 119.851562 28.609375 119.851562 27.710938 C 119.851562 26.597656 121.101562 26.597656 121.335938 26.597656 C 122.273438 26.597656 123.035156 26.8125 123.816406 27.261719 Z M 124.03125 26.089844 "/>
<path style=" stroke:none;fill-rule:nonzero;fill:rgb(0%,0%,0%);fill-opacity:1;" d="M 132.070312 29.722656 C 132.070312 28.960938 131.992188 27.867188 131.425781 26.910156 C 130.683594 25.679688 129.433594 25.542969 128.90625 25.542969 C 126.972656 25.542969 125.351562 27.398438 125.351562 29.722656 C 125.351562 32.105469 127.070312 33.941406 129.160156 33.941406 C 129.980469 33.941406 130.976562 33.707031 131.953125 33.003906 C 131.953125 32.925781 131.894531 32.359375 131.894531 32.339844 C 131.875 32.320312 131.855469 31.910156 131.855469 31.851562 C 130.78125 32.75 129.726562 32.867188 129.199219 32.867188 C 127.8125 32.867188 126.621094 31.636719 126.601562 29.722656 Z M 126.699219 28.765625 C 127.011719 27.554688 127.851562 26.617188 128.90625 26.617188 C 129.472656 26.617188 130.703125 26.871094 130.996094 28.765625 Z M 126.699219 28.765625 "/>
<path style=" stroke:none;fill-rule:nonzero;fill:rgb(0%,0%,0%);fill-opacity:1;" d="M 139.753906 31.832031 C 138.933594 32.496094 138.015625 32.828125 137.019531 32.828125 C 135.515625 32.828125 134.558594 31.5 134.558594 29.761719 C 134.558594 28.277344 135.28125 26.65625 137.058594 26.65625 C 138.269531 26.65625 138.777344 26.929688 139.539062 27.457031 L 139.753906 26.285156 C 138.71875 25.679688 138.132812 25.542969 137.058594 25.542969 C 134.597656 25.542969 133.191406 27.730469 133.191406 29.761719 C 133.191406 32.066406 134.851562 33.941406 137 33.941406 C 137.878906 33.941406 138.875 33.726562 139.871094 33.003906 C 139.871094 32.964844 139.8125 32.398438 139.792969 32.339844 Z M 139.753906 31.832031 "/>
<path style=" stroke:none;fill-rule:nonzero;fill:rgb(0%,0%,0%);fill-opacity:1;" d="M 143.433594 26.851562 L 145.914062 26.851562 L 145.914062 25.796875 L 143.433594 25.796875 L 143.433594 23.53125 L 142.203125 23.53125 L 142.203125 25.796875 L 140.699219 25.796875 L 140.699219 26.851562 L 142.164062 26.851562 L 142.164062 31.675781 C 142.164062 32.710938 142.398438 33.941406 143.628906 33.941406 C 144.839844 33.941406 145.660156 33.53125 146.207031 33.238281 L 145.933594 32.203125 C 145.308594 32.769531 144.644531 32.828125 144.332031 32.828125 C 143.53125 32.828125 143.433594 31.988281 143.433594 31.363281 Z M 143.433594 26.851562 "/>
<path style=" stroke:none;fill-rule:nonzero;fill:rgb(0%,0%,0%);fill-opacity:1;" d="M 149.5 21.597656 L 147.957031 21.597656 L 147.957031 23.140625 L 149.5 23.140625 Z M 149.402344 25.796875 L 148.074219 25.796875 L 148.074219 33.765625 L 149.402344 33.765625 Z M 149.402344 25.796875 "/>
<path style=" stroke:none;fill-rule:nonzero;fill:rgb(0%,0%,0%);fill-opacity:1;" d="M 159.089844 29.820312 C 159.089844 27.398438 157.3125 25.542969 155.261719 25.542969 C 153.152344 25.542969 151.414062 27.4375 151.414062 29.820312 C 151.414062 32.164062 153.191406 33.941406 155.242188 33.941406 C 157.351562 33.941406 159.089844 32.125 159.089844 29.820312 Z M 155.261719 32.828125 C 153.972656 32.828125 152.761719 31.753906 152.761719 29.644531 C 152.761719 27.476562 154.109375 26.617188 155.242188 26.617188 C 156.472656 26.617188 157.742188 27.535156 157.742188 29.644531 C 157.742188 31.851562 156.453125 32.828125 155.261719 32.828125 Z M 155.261719 32.828125 "/>
<path style=" stroke:none;fill-rule:nonzero;fill:rgb(0%,0%,0%);fill-opacity:1;" d="M 167.316406 28.375 C 167.316406 27.28125 167.082031 25.621094 164.914062 25.621094 C 163.917969 25.621094 163.058594 26.070312 162.375 26.929688 L 162.375 25.71875 L 161.105469 25.71875 L 161.105469 33.765625 L 162.453125 33.765625 L 162.453125 29.292969 C 162.453125 28.199219 162.882812 26.695312 164.230469 26.695312 C 165.910156 26.695312 165.949219 27.867188 165.949219 28.492188 L 165.949219 33.765625 L 167.316406 33.765625 Z M 167.316406 28.375 "/>
<path style=" stroke:none;fill-rule:nonzero;fill:rgb(0%,0%,0%);fill-opacity:1;" d="M 179.480469 28.511719 C 179.480469 26.792969 178.25 25.542969 176.570312 25.542969 C 175.496094 25.542969 174.695312 25.777344 173.816406 26.285156 L 173.914062 27.476562 C 174.714844 26.890625 175.535156 26.578125 176.570312 26.578125 C 177.390625 26.578125 178.113281 27.242188 178.113281 28.550781 L 178.113281 29.292969 C 177.3125 29.3125 176.238281 29.371094 175.164062 29.722656 C 173.953125 30.152344 173.25 30.816406 173.25 31.695312 C 173.25 32.496094 173.71875 33.941406 175.242188 33.941406 C 176.238281 33.941406 177.488281 33.648438 178.152344 33.101562 L 178.152344 33.765625 L 179.480469 33.765625 Z M 178.113281 31.363281 C 178.113281 31.714844 178.113281 32.144531 177.527344 32.515625 C 177.039062 32.808594 176.433594 32.867188 176.160156 32.867188 C 175.203125 32.867188 174.539062 32.339844 174.539062 31.695312 C 174.539062 30.464844 177.019531 30.191406 178.113281 30.191406 Z M 178.113281 31.363281 "/>
<path style=" stroke:none;fill-rule:nonzero;fill:rgb(0%,0%,0%);fill-opacity:1;" d="M 188.464844 28.375 C 188.464844 27.28125 188.230469 25.621094 186.0625 25.621094 C 185.066406 25.621094 184.207031 26.070312 183.523438 26.929688 L 183.523438 25.71875 L 182.253906 25.71875 L 182.253906 33.765625 L 183.601562 33.765625 L 183.601562 29.292969 C 183.601562 28.199219 184.03125 26.695312 185.378906 26.695312 C 187.058594 26.695312 187.097656 27.867188 187.097656 28.492188 L 187.097656 33.765625 L 188.464844 33.765625 Z M 188.464844 28.375 "/>
<path style=" stroke:none;fill-rule:nonzero;fill:rgb(0%,0%,0%);fill-opacity:1;" d="M 195.980469 26.695312 C 195.980469 26.695312 196.019531 26.734375 196.039062 26.773438 C 196.410156 26.734375 196.800781 26.675781 197.464844 26.675781 C 197.523438 26.675781 197.933594 26.675781 198.382812 26.714844 L 198.1875 25.621094 C 197.855469 25.621094 196.625 25.640625 195.433594 26.226562 C 194.847656 25.71875 194.125 25.621094 193.773438 25.621094 C 192.210938 25.621094 190.960938 26.929688 190.960938 28.511719 C 190.960938 29.15625 191.15625 29.742188 191.546875 30.289062 C 191.136719 30.855469 191.039062 31.402344 191.039062 31.832031 C 191.039062 32.496094 191.292969 32.945312 191.488281 33.179688 C 190.570312 33.765625 190.355469 34.527344 190.355469 35.035156 C 190.355469 36.34375 192.054688 37.4375 194.242188 37.4375 C 196.429688 37.4375 198.148438 36.382812 198.148438 35.015625 C 198.148438 32.515625 195.238281 32.515625 194.515625 32.515625 L 192.992188 32.515625 C 192.738281 32.515625 191.957031 32.515625 191.957031 31.558594 C 191.957031 31.167969 192.035156 31.050781 192.152344 30.894531 C 192.445312 31.109375 193.03125 31.421875 193.753906 31.421875 C 195.296875 31.421875 196.566406 30.152344 196.566406 28.511719 C 196.566406 27.867188 196.332031 27.203125 195.960938 26.714844 Z M 193.773438 30.425781 C 192.992188 30.425781 192.191406 29.898438 192.191406 28.53125 C 192.191406 26.929688 193.207031 26.617188 193.753906 26.617188 C 194.554688 26.617188 195.335938 27.144531 195.335938 28.511719 C 195.335938 30.113281 194.339844 30.425781 193.773438 30.425781 Z M 194.535156 33.804688 C 194.925781 33.804688 196.898438 33.804688 196.898438 35.035156 C 196.898438 35.855469 195.667969 36.460938 194.261719 36.460938 C 192.855469 36.460938 191.605469 35.894531 191.605469 35.015625 C 191.605469 34.976562 191.605469 33.804688 192.972656 33.804688 Z M 194.535156 33.804688 "/>
<path style=" stroke:none;fill-rule:nonzero;fill:rgb(0%,0%,0%);fill-opacity:1;" d="M 201.453125 21.324219 L 200.125 21.324219 L 200.125 33.765625 L 201.453125 33.765625 Z M 201.453125 21.324219 "/>
<path style=" stroke:none;fill-rule:nonzero;fill:rgb(0%,0%,0%);fill-opacity:1;" d="M 210.222656 29.722656 C 210.222656 28.960938 210.144531 27.867188 209.578125 26.910156 C 208.835938 25.679688 207.585938 25.542969 207.058594 25.542969 C 205.125 25.542969 203.503906 27.398438 203.503906 29.722656 C 203.503906 32.105469 205.222656 33.941406 207.3125 33.941406 C 208.132812 33.941406 209.128906 33.707031 210.105469 33.003906 C 210.105469 32.925781 210.046875 32.359375 210.046875 32.339844 C 210.027344 32.320312 210.007812 31.910156 210.007812 31.851562 C 208.933594 32.75 207.878906 32.867188 207.351562 32.867188 C 205.964844 32.867188 204.773438 31.636719 204.753906 29.722656 Z M 204.851562 28.765625 C 205.164062 27.554688 206.003906 26.617188 207.058594 26.617188 C 207.625 26.617188 208.855469 26.871094 209.148438 28.765625 Z M 204.851562 28.765625 "/>
<path style=" stroke:none;fill-rule:nonzero;fill:rgb(0%,0%,0%);fill-opacity:1;" d="M 216.734375 26.089844 C 215.601562 25.5625 214.625 25.542969 214.214844 25.542969 C 213.804688 25.542969 211.304688 25.542969 211.304688 27.867188 C 211.304688 28.648438 211.734375 29.195312 212.007812 29.449219 C 212.652344 29.996094 213.101562 30.09375 214.15625 30.308594 C 214.761719 30.425781 215.796875 30.640625 215.796875 31.597656 C 215.796875 32.828125 214.390625 32.828125 214.136719 32.828125 C 213.433594 32.828125 212.378906 32.632812 211.421875 31.929688 L 211.207031 33.160156 C 211.285156 33.21875 212.515625 33.941406 214.15625 33.941406 C 216.480469 33.941406 217.027344 32.554688 217.027344 31.480469 C 217.027344 30.582031 216.480469 29.996094 216.402344 29.917969 C 215.738281 29.234375 215.191406 29.117188 214.117188 28.902344 C 213.453125 28.785156 212.554688 28.609375 212.554688 27.710938 C 212.554688 26.597656 213.804688 26.597656 214.039062 26.597656 C 214.976562 26.597656 215.738281 26.8125 216.519531 27.261719 Z M 216.734375 26.089844 "/>
<path style=" stroke:none;fill-rule:nonzero;fill:rgb(0%,0%,0%);fill-opacity:1;" d="M 227.332031 26.695312 C 227.332031 26.695312 227.371094 26.734375 227.390625 26.773438 C 227.761719 26.734375 228.152344 26.675781 228.816406 26.675781 C 228.875 26.675781 229.285156 26.675781 229.734375 26.714844 L 229.539062 25.621094 C 229.207031 25.621094 227.976562 25.640625 226.785156 26.226562 C 226.199219 25.71875 225.476562 25.621094 225.125 25.621094 C 223.5625 25.621094 222.3125 26.929688 222.3125 28.511719 C 222.3125 29.15625 222.507812 29.742188 222.898438 30.289062 C 222.488281 30.855469 222.390625 31.402344 222.390625 31.832031 C 222.390625 32.496094 222.644531 32.945312 222.839844 33.179688 C 221.921875 33.765625 221.707031 34.527344 221.707031 35.035156 C 221.707031 36.34375 223.40625 37.4375 225.59375 37.4375 C 227.78125 37.4375 229.5 36.382812 229.5 35.015625 C 229.5 32.515625 226.589844 32.515625 225.867188 32.515625 L 224.34375 32.515625 C 224.089844 32.515625 223.308594 32.515625 223.308594 31.558594 C 223.308594 31.167969 223.386719 31.050781 223.503906 30.894531 C 223.796875 31.109375 224.382812 31.421875 225.105469 31.421875 C 226.648438 31.421875 227.917969 30.152344 227.917969 28.511719 C 227.917969 27.867188 227.683594 27.203125 227.3125 26.714844 Z M 225.125 30.425781 C 224.34375 30.425781 223.542969 29.898438 223.542969 28.53125 C 223.542969 26.929688 224.558594 26.617188 225.105469 26.617188 C 225.90625 26.617188 226.6875 27.144531 226.6875 28.511719 C 226.6875 30.113281 225.691406 30.425781 225.125 30.425781 Z M 225.886719 33.804688 C 226.277344 33.804688 228.25 33.804688 228.25 35.035156 C 228.25 35.855469 227.019531 36.460938 225.613281 36.460938 C 224.207031 36.460938 222.957031 35.894531 222.957031 35.015625 C 222.957031 34.976562 222.957031 33.804688 224.324219 33.804688 Z M 225.886719 33.804688 "/>
<path style=" stroke:none;fill-rule:nonzero;fill:rgb(0%,0%,0%);fill-opacity:1;" d="M 232.898438 21.597656 L 231.355469 21.597656 L 231.355469 23.140625 L 232.898438 23.140625 Z M 232.800781 25.796875 L 231.472656 25.796875 L 231.472656 33.765625 L 232.800781 33.765625 Z M 232.800781 25.796875 "/>
<path style=" stroke:none;fill-rule:nonzero;fill:rgb(0%,0%,0%);fill-opacity:1;" d="M 242.019531 25.796875 L 240.691406 25.796875 L 239.382812 29.371094 C 239.070312 30.230469 238.40625 32.125 238.308594 32.789062 L 238.289062 32.789062 C 238.191406 32.164062 237.839844 31.1875 237.566406 30.40625 L 235.90625 25.796875 L 234.519531 25.796875 L 237.46875 33.765625 L 239.070312 33.765625 Z M 242.019531 25.796875 "/>
<path style=" stroke:none;fill-rule:nonzero;fill:rgb(0%,0%,0%);fill-opacity:1;" d="M 249.671875 29.722656 C 249.671875 28.960938 249.59375 27.867188 249.027344 26.910156 C 248.285156 25.679688 247.035156 25.542969 246.507812 25.542969 C 244.574219 25.542969 242.953125 27.398438 242.953125 29.722656 C 242.953125 32.105469 244.671875 33.941406 246.761719 33.941406 C 247.582031 33.941406 248.578125 33.707031 249.554688 33.003906 C 249.554688 32.925781 249.496094 32.359375 249.496094 32.339844 C 249.476562 32.320312 249.457031 31.910156 249.457031 31.851562 C 248.382812 32.75 247.328125 32.867188 246.800781 32.867188 C 245.414062 32.867188 244.222656 31.636719 244.203125 29.722656 Z M 244.300781 28.765625 C 244.613281 27.554688 245.453125 26.617188 246.507812 26.617188 C 247.074219 26.617188 248.304688 26.871094 248.597656 28.765625 Z M 244.300781 28.765625 "/>
<path style=" stroke:none;fill-rule:nonzero;fill:rgb(0%,0%,0%);fill-opacity:1;" d="M 257.765625 28.375 C 257.765625 27.28125 257.53125 25.621094 255.363281 25.621094 C 254.367188 25.621094 253.507812 26.070312 252.824219 26.929688 L 252.824219 25.71875 L 251.554688 25.71875 L 251.554688 33.765625 L 252.902344 33.765625 L 252.902344 29.292969 C 252.902344 28.199219 253.332031 26.695312 254.679688 26.695312 C 256.359375 26.695312 256.398438 27.867188 256.398438 28.492188 L 256.398438 33.765625 L 257.765625 33.765625 Z M 257.765625 28.375 "/>
<path style=" stroke:none;fill-rule:nonzero;fill:rgb(0%,0%,0%);fill-opacity:1;" d="M 2.734375 48.152344 L 5.214844 48.152344 L 5.214844 47.097656 L 2.734375 47.097656 L 2.734375 44.832031 L 1.503906 44.832031 L 1.503906 47.097656 L 0 47.097656 L 0 48.152344 L 1.464844 48.152344 L 1.464844 52.976562 C 1.464844 54.011719 1.699219 55.242188 2.929688 55.242188 C 4.140625 55.242188 4.960938 54.832031 5.507812 54.539062 L 5.234375 53.503906 C 4.609375 54.070312 3.945312 54.128906 3.632812 54.128906 C 2.832031 54.128906 2.734375 53.289062 2.734375 52.664062 Z M 2.734375 48.152344 "/>
<path style=" stroke:none;fill-rule:nonzero;fill:rgb(0%,0%,0%);fill-opacity:1;" d="M 13.566406 49.675781 C 13.566406 48.582031 13.332031 46.921875 11.164062 46.921875 C 9.933594 46.921875 9.113281 47.625 8.683594 48.171875 L 8.683594 42.625 L 7.355469 42.625 L 7.355469 55.066406 L 8.703125 55.066406 L 8.703125 50.59375 C 8.703125 49.5 9.132812 47.996094 10.480469 47.996094 C 12.160156 47.996094 12.199219 49.167969 12.199219 49.792969 L 12.199219 55.066406 L 13.566406 55.066406 Z M 13.566406 49.675781 "/>
<path style=" stroke:none;fill-rule:nonzero;fill:rgb(0%,0%,0%);fill-opacity:1;" d="M 22.273438 51.023438 C 22.273438 50.261719 22.195312 49.167969 21.628906 48.210938 C 20.886719 46.980469 19.636719 46.84375 19.109375 46.84375 C 17.175781 46.84375 15.554688 48.699219 15.554688 51.023438 C 15.554688 53.40625 17.273438 55.242188 19.363281 55.242188 C 20.183594 55.242188 21.179688 55.007812 22.15625 54.304688 C 22.15625 54.226562 22.097656 53.660156 22.097656 53.640625 C 22.078125 53.621094 22.058594 53.210938 22.058594 53.152344 C 20.984375 54.050781 19.929688 54.167969 19.402344 54.167969 C 18.015625 54.167969 16.824219 52.9375 16.804688 51.023438 Z M 16.902344 50.066406 C 17.214844 48.855469 18.054688 47.917969 19.109375 47.917969 C 19.675781 47.917969 20.90625 48.171875 21.199219 50.066406 Z M 16.902344 50.066406 "/>
<path style=" stroke:none;fill-rule:nonzero;fill:rgb(0%,0%,0%);fill-opacity:1;" d="M 35.683594 47.390625 C 34.550781 46.863281 33.574219 46.84375 33.164062 46.84375 C 32.753906 46.84375 30.253906 46.84375 30.253906 49.167969 C 30.253906 49.949219 30.683594 50.496094 30.957031 50.75 C 31.601562 51.296875 32.050781 51.394531 33.105469 51.609375 C 33.710938 51.726562 34.746094 51.941406 34.746094 52.898438 C 34.746094 54.128906 33.339844 54.128906 33.085938 54.128906 C 32.382812 54.128906 31.328125 53.933594 30.371094 53.230469 L 30.15625 54.460938 C 30.234375 54.519531 31.464844 55.242188 33.105469 55.242188 C 35.429688 55.242188 35.976562 53.855469 35.976562 52.78125 C 35.976562 51.882812 35.429688 51.296875 35.351562 51.21875 C 34.6875 50.535156 34.140625 50.417969 33.066406 50.203125 C 32.402344 50.085938 31.503906 49.910156 31.503906 49.011719 C 31.503906 47.898438 32.753906 47.898438 32.988281 47.898438 C 33.925781 47.898438 34.6875 48.113281 35.46875 48.5625 Z M 35.683594 47.390625 "/>
<path style=" stroke:none;fill-rule:nonzero;fill:rgb(0%,0%,0%);fill-opacity:1;" d="M 39.152344 42.625 L 37.824219 42.625 L 37.824219 55.066406 L 39.152344 55.066406 Z M 39.152344 42.625 "/>
<path style=" stroke:none;fill-rule:nonzero;fill:rgb(0%,0%,0%);fill-opacity:1;" d="M 48.839844 51.121094 C 48.839844 48.699219 47.0625 46.84375 45.011719 46.84375 C 42.902344 46.84375 41.164062 48.738281 41.164062 51.121094 C 41.164062 53.464844 42.941406 55.242188 44.992188 55.242188 C 47.101562 55.242188 48.839844 53.425781 48.839844 51.121094 Z M 45.011719 54.128906 C 43.722656 54.128906 42.511719 53.054688 42.511719 50.945312 C 42.511719 48.777344 43.859375 47.917969 44.992188 47.917969 C 46.222656 47.917969 47.492188 48.835938 47.492188 50.945312 C 47.492188 53.152344 46.203125 54.128906 45.011719 54.128906 Z M 45.011719 54.128906 "/>
<path style=" stroke:none;fill-rule:nonzero;fill:rgb(0%,0%,0%);fill-opacity:1;" d="M 52.222656 54.265625 C 52.847656 54.8125 53.589844 55.242188 54.566406 55.242188 C 56.285156 55.242188 57.828125 53.503906 57.828125 51.0625 C 57.828125 48.894531 56.675781 46.921875 55.015625 46.921875 C 54.273438 46.921875 53.121094 47.15625 52.203125 47.957031 L 52.203125 47.097656 L 50.875 47.097656 L 50.875 58.542969 L 52.222656 58.542969 Z M 52.222656 49.050781 C 52.632812 48.425781 53.316406 48.035156 54.058594 48.035156 C 55.386719 48.035156 56.460938 49.382812 56.460938 51.082031 C 56.460938 52.878906 55.230469 54.167969 53.902344 54.167969 C 53.394531 54.167969 53.0625 53.992188 52.730469 53.738281 C 52.28125 53.347656 52.222656 53.015625 52.222656 52.742188 Z M 52.222656 49.050781 "/>
<path style=" stroke:none;fill-rule:nonzero;fill:rgb(0%,0%,0%);fill-opacity:1;" d="M 66.222656 51.023438 C 66.222656 50.261719 66.144531 49.167969 65.578125 48.210938 C 64.835938 46.980469 63.585938 46.84375 63.058594 46.84375 C 61.125 46.84375 59.503906 48.699219 59.503906 51.023438 C 59.503906 53.40625 61.222656 55.242188 63.3125 55.242188 C 64.132812 55.242188 65.128906 55.007812 66.105469 54.304688 C 66.105469 54.226562 66.046875 53.660156 66.046875 53.640625 C 66.027344 53.621094 66.007812 53.210938 66.007812 53.152344 C 64.933594 54.050781 63.878906 54.167969 63.351562 54.167969 C 61.964844 54.167969 60.773438 52.9375 60.753906 51.023438 Z M 60.851562 50.066406 C 61.164062 48.855469 62.003906 47.917969 63.058594 47.917969 C 63.625 47.917969 64.855469 48.171875 65.148438 50.066406 Z M 60.851562 50.066406 "/>
<path style=" stroke:none;fill-rule:nonzero;fill:rgb(0%,0%,0%);fill-opacity:1;" d="M 72.734375 47.390625 C 71.601562 46.863281 70.625 46.84375 70.214844 46.84375 C 69.804688 46.84375 67.304688 46.84375 67.304688 49.167969 C 67.304688 49.949219 67.734375 50.496094 68.007812 50.75 C 68.652344 51.296875 69.101562 51.394531 70.15625 51.609375 C 70.761719 51.726562 71.796875 51.941406 71.796875 52.898438 C 71.796875 54.128906 70.390625 54.128906 70.136719 54.128906 C 69.433594 54.128906 68.378906 53.933594 67.421875 53.230469 L 67.207031 54.460938 C 67.285156 54.519531 68.515625 55.242188 70.15625 55.242188 C 72.480469 55.242188 73.027344 53.855469 73.027344 52.78125 C 73.027344 51.882812 72.480469 51.296875 72.402344 51.21875 C 71.738281 50.535156 71.191406 50.417969 70.117188 50.203125 C 69.453125 50.085938 68.554688 49.910156 68.554688 49.011719 C 68.554688 47.898438 69.804688 47.898438 70.039062 47.898438 C 70.976562 47.898438 71.738281 48.113281 72.519531 48.5625 Z M 72.734375 47.390625 "/>
<path style=" stroke:none;fill-rule:nonzero;fill:rgb(0%,0%,0%);fill-opacity:1;" d="M 88.441406 51.121094 C 88.441406 48.699219 86.664062 46.84375 84.613281 46.84375 C 82.503906 46.84375 80.765625 48.738281 80.765625 51.121094 C 80.765625 53.464844 82.542969 55.242188 84.59375 55.242188 C 86.703125 55.242188 88.441406 53.425781 88.441406 51.121094 Z M 84.613281 54.128906 C 83.324219 54.128906 82.113281 53.054688 82.113281 50.945312 C 82.113281 48.777344 83.460938 47.917969 84.59375 47.917969 C 85.824219 47.917969 87.09375 48.835938 87.09375 50.945312 C 87.09375 53.152344 85.804688 54.128906 84.613281 54.128906 Z M 84.613281 54.128906 "/>
<path style=" stroke:none;fill-rule:nonzero;fill:rgb(0%,0%,0%);fill-opacity:1;" d="M 92.171875 48.152344 L 94.085938 48.152344 L 94.085938 47.097656 L 92.132812 47.097656 L 92.132812 44.949219 C 92.132812 43.738281 93.148438 43.523438 93.753906 43.523438 C 94.378906 43.523438 94.925781 43.71875 95.140625 43.796875 L 95.140625 42.625 C 95.023438 42.585938 94.417969 42.449219 93.773438 42.449219 C 92.054688 42.449219 90.84375 43.757812 90.84375 45.496094 L 90.84375 47.097656 L 89.535156 47.097656 L 89.535156 48.152344 L 90.84375 48.152344 L 90.84375 55.066406 L 92.171875 55.066406 Z M 92.171875 48.152344 "/>
<path style=" stroke:none;fill-rule:nonzero;fill:rgb(0%,0%,0%);fill-opacity:1;" d="M 104.433594 48.152344 L 106.914062 48.152344 L 106.914062 47.097656 L 104.433594 47.097656 L 104.433594 44.832031 L 103.203125 44.832031 L 103.203125 47.097656 L 101.699219 47.097656 L 101.699219 48.152344 L 103.164062 48.152344 L 103.164062 52.976562 C 103.164062 54.011719 103.398438 55.242188 104.628906 55.242188 C 105.839844 55.242188 106.660156 54.832031 107.207031 54.539062 L 106.933594 53.503906 C 106.308594 54.070312 105.644531 54.128906 105.332031 54.128906 C 104.53125 54.128906 104.433594 53.289062 104.433594 52.664062 Z M 104.433594 48.152344 "/>
<path style=" stroke:none;fill-rule:nonzero;fill:rgb(0%,0%,0%);fill-opacity:1;" d="M 118.878906 47.097656 L 117.570312 47.097656 L 116.496094 50.75 C 116.242188 51.609375 115.734375 53.289062 115.65625 54.070312 L 115.636719 54.070312 C 115.597656 53.640625 115.304688 52.429688 114.933594 51.160156 L 113.742188 47.097656 L 112.511719 47.097656 L 111.476562 50.613281 C 111.164062 51.726562 110.734375 53.269531 110.675781 54.03125 L 110.65625 54.03125 C 110.636719 53.679688 110.441406 52.742188 110.109375 51.53125 L 108.839844 47.097656 L 107.472656 47.097656 L 109.875 55.066406 L 111.261719 55.066406 C 111.925781 52.800781 112.980469 49.402344 113.078125 48.152344 L 113.097656 48.152344 C 113.136719 48.875 113.488281 50.164062 113.625 50.59375 L 114.894531 55.066406 L 116.476562 55.066406 Z M 118.878906 47.097656 "/>
<path style=" stroke:none;fill-rule:nonzero;fill:rgb(0%,0%,0%);fill-opacity:1;" d="M 126.988281 51.121094 C 126.988281 48.699219 125.210938 46.84375 123.160156 46.84375 C 121.050781 46.84375 119.3125 48.738281 119.3125 51.121094 C 119.3125 53.464844 121.089844 55.242188 123.140625 55.242188 C 125.25 55.242188 126.988281 53.425781 126.988281 51.121094 Z M 123.160156 54.128906 C 121.871094 54.128906 120.660156 53.054688 120.660156 50.945312 C 120.660156 48.777344 122.007812 47.917969 123.140625 47.917969 C 124.371094 47.917969 125.640625 48.835938 125.640625 50.945312 C 125.640625 53.152344 124.351562 54.128906 123.160156 54.128906 Z M 123.160156 54.128906 "/>
<path style=" stroke:none;fill-rule:nonzero;fill:rgb(0%,0%,0%);fill-opacity:1;" d="M 136.953125 42.625 L 135.625 42.625 L 135.625 55.066406 L 136.953125 55.066406 Z M 136.953125 42.625 "/>
<path style=" stroke:none;fill-rule:nonzero;fill:rgb(0%,0%,0%);fill-opacity:1;" d="M 141.25 42.898438 L 139.707031 42.898438 L 139.707031 44.441406 L 141.25 44.441406 Z M 141.152344 47.097656 L 139.824219 47.097656 L 139.824219 55.066406 L 141.152344 55.066406 Z M 141.152344 47.097656 "/>
<path style=" stroke:none;fill-rule:nonzero;fill:rgb(0%,0%,0%);fill-opacity:1;" d="M 150.214844 49.675781 C 150.214844 48.582031 149.980469 46.921875 147.8125 46.921875 C 146.816406 46.921875 145.957031 47.371094 145.273438 48.230469 L 145.273438 47.019531 L 144.003906 47.019531 L 144.003906 55.066406 L 145.351562 55.066406 L 145.351562 50.59375 C 145.351562 49.5 145.78125 47.996094 147.128906 47.996094 C 148.808594 47.996094 148.847656 49.167969 148.847656 49.792969 L 148.847656 55.066406 L 150.214844 55.066406 Z M 150.214844 49.675781 "/>
<path style=" stroke:none;fill-rule:nonzero;fill:rgb(0%,0%,0%);fill-opacity:1;" d="M 158.921875 51.023438 C 158.921875 50.261719 158.84375 49.167969 158.277344 48.210938 C 157.535156 46.980469 156.285156 46.84375 155.757812 46.84375 C 153.824219 46.84375 152.203125 48.699219 152.203125 51.023438 C 152.203125 53.40625 153.921875 55.242188 156.011719 55.242188 C 156.832031 55.242188 157.828125 55.007812 158.804688 54.304688 C 158.804688 54.226562 158.746094 53.660156 158.746094 53.640625 C 158.726562 53.621094 158.707031 53.210938 158.707031 53.152344 C 157.632812 54.050781 156.578125 54.167969 156.050781 54.167969 C 154.664062 54.167969 153.472656 52.9375 153.453125 51.023438 Z M 153.550781 50.066406 C 153.863281 48.855469 154.703125 47.917969 155.757812 47.917969 C 156.324219 47.917969 157.554688 48.171875 157.847656 50.066406 Z M 153.550781 50.066406 "/>
<path style=" stroke:none;fill-rule:nonzero;fill:rgb(0%,0%,0%);fill-opacity:1;" d="M 165.433594 47.390625 C 164.300781 46.863281 163.324219 46.84375 162.914062 46.84375 C 162.503906 46.84375 160.003906 46.84375 160.003906 49.167969 C 160.003906 49.949219 160.433594 50.496094 160.707031 50.75 C 161.351562 51.296875 161.800781 51.394531 162.855469 51.609375 C 163.460938 51.726562 164.496094 51.941406 164.496094 52.898438 C 164.496094 54.128906 163.089844 54.128906 162.835938 54.128906 C 162.132812 54.128906 161.078125 53.933594 160.121094 53.230469 L 159.90625 54.460938 C 159.984375 54.519531 161.214844 55.242188 162.855469 55.242188 C 165.179688 55.242188 165.726562 53.855469 165.726562 52.78125 C 165.726562 51.882812 165.179688 51.296875 165.101562 51.21875 C 164.4375 50.535156 163.890625 50.417969 162.816406 50.203125 C 162.152344 50.085938 161.253906 49.910156 161.253906 49.011719 C 161.253906 47.898438 162.503906 47.898438 162.738281 47.898438 C 163.675781 47.898438 164.4375 48.113281 165.21875 48.5625 Z M 165.433594 47.390625 "/>
<path style=" stroke:none;fill-rule:nonzero;fill:rgb(0%,0%,0%);fill-opacity:1;" d="M 169.332031 47.097656 L 167.867188 47.097656 L 167.867188 48.5625 L 169.332031 48.5625 Z M 167.867188 57.3125 L 168.589844 57.3125 L 169.332031 55.046875 L 169.332031 53.621094 L 167.867188 53.621094 L 167.867188 55.066406 L 168.316406 55.066406 Z M 167.867188 57.3125 "/>
<path style=" stroke:none;fill-rule:nonzero;fill:rgb(0%,0%,0%);fill-opacity:1;" d="M 188.53125 52.996094 C 187.4375 53.816406 186.695312 54.109375 185.132812 54.109375 C 182.789062 54.109375 181.03125 51.6875 181.03125 48.816406 C 181.03125 46.394531 182.476562 43.542969 185.210938 43.542969 C 186.382812 43.542969 187.28125 43.894531 188.179688 44.5 L 188.453125 43.035156 C 187.28125 42.585938 186.402344 42.429688 185.171875 42.429688 C 182.125 42.429688 179.507812 45.125 179.507812 48.835938 C 179.507812 52.761719 182.378906 55.222656 184.996094 55.222656 C 186.792969 55.222656 187.183594 55.125 188.648438 54.246094 Z M 188.53125 52.996094 "/>
<path style=" stroke:none;fill-rule:nonzero;fill:rgb(0%,0%,0%);fill-opacity:1;" d="M 197.789062 51.121094 C 197.789062 48.699219 196.011719 46.84375 193.960938 46.84375 C 191.851562 46.84375 190.113281 48.738281 190.113281 51.121094 C 190.113281 53.464844 191.890625 55.242188 193.941406 55.242188 C 196.050781 55.242188 197.789062 53.425781 197.789062 51.121094 Z M 193.960938 54.128906 C 192.671875 54.128906 191.460938 53.054688 191.460938 50.945312 C 191.460938 48.777344 192.808594 47.917969 193.941406 47.917969 C 195.171875 47.917969 196.441406 48.835938 196.441406 50.945312 C 196.441406 53.152344 195.152344 54.128906 193.960938 54.128906 Z M 193.960938 54.128906 "/>
<path style=" stroke:none;fill-rule:nonzero;fill:rgb(0%,0%,0%);fill-opacity:1;" d="M 206.015625 49.675781 C 206.015625 48.582031 205.78125 46.921875 203.613281 46.921875 C 202.617188 46.921875 201.757812 47.371094 201.074219 48.230469 L 201.074219 47.019531 L 199.804688 47.019531 L 199.804688 55.066406 L 201.152344 55.066406 L 201.152344 50.59375 C 201.152344 49.5 201.582031 47.996094 202.929688 47.996094 C 204.609375 47.996094 204.648438 49.167969 204.648438 49.792969 L 204.648438 55.066406 L 206.015625 55.066406 Z M 206.015625 49.675781 "/>
<path style=" stroke:none;fill-rule:nonzero;fill:rgb(0%,0%,0%);fill-opacity:1;" d="M 214.996094 42.625 L 213.667969 42.625 L 213.667969 47.859375 C 212.847656 47.175781 211.910156 46.921875 211.148438 46.921875 C 209.449219 46.921875 208.042969 48.757812 208.042969 51.082031 C 208.042969 53.40625 209.371094 55.242188 211.070312 55.242188 C 211.734375 55.242188 212.75 55.027344 213.648438 54.148438 L 213.648438 55.066406 L 214.996094 55.066406 Z M 213.648438 52.957031 C 213.21875 53.71875 212.574219 54.167969 211.792969 54.167969 C 210.699219 54.167969 209.410156 53.328125 209.410156 51.101562 C 209.410156 48.71875 210.933594 47.996094 211.96875 47.996094 C 212.671875 47.996094 213.238281 48.367188 213.648438 48.953125 Z M 213.648438 52.957031 "/>
<path style=" stroke:none;fill-rule:nonzero;fill:rgb(0%,0%,0%);fill-opacity:1;" d="M 219.25 42.898438 L 217.707031 42.898438 L 217.707031 44.441406 L 219.25 44.441406 Z M 219.152344 47.097656 L 217.824219 47.097656 L 217.824219 55.066406 L 219.152344 55.066406 Z M 219.152344 47.097656 "/>
<path style=" stroke:none;fill-rule:nonzero;fill:rgb(0%,0%,0%);fill-opacity:1;" d="M 223.683594 48.152344 L 226.164062 48.152344 L 226.164062 47.097656 L 223.683594 47.097656 L 223.683594 44.832031 L 222.453125 44.832031 L 222.453125 47.097656 L 220.949219 47.097656 L 220.949219 48.152344 L 222.414062 48.152344 L 222.414062 52.976562 C 222.414062 54.011719 222.648438 55.242188 223.878906 55.242188 C 225.089844 55.242188 225.910156 54.832031 226.457031 54.539062 L 226.183594 53.503906 C 225.558594 54.070312 224.894531 54.128906 224.582031 54.128906 C 223.78125 54.128906 223.683594 53.289062 223.683594 52.664062 Z M 223.683594 48.152344 "/>
<path style=" stroke:none;fill-rule:nonzero;fill:rgb(0%,0%,0%);fill-opacity:1;" d="M 229.75 42.898438 L 228.207031 42.898438 L 228.207031 44.441406 L 229.75 44.441406 Z M 229.652344 47.097656 L 228.324219 47.097656 L 228.324219 55.066406 L 229.652344 55.066406 Z M 229.652344 47.097656 "/>
<path style=" stroke:none;fill-rule:nonzero;fill:rgb(0%,0%,0%);fill-opacity:1;" d="M 239.339844 51.121094 C 239.339844 48.699219 237.5625 46.84375 235.511719 46.84375 C 233.402344 46.84375 231.664062 48.738281 231.664062 51.121094 C 231.664062 53.464844 233.441406 55.242188 235.492188 55.242188 C 237.601562 55.242188 239.339844 53.425781 239.339844 51.121094 Z M 235.511719 54.128906 C 234.222656 54.128906 233.011719 53.054688 233.011719 50.945312 C 233.011719 48.777344 234.359375 47.917969 235.492188 47.917969 C 236.722656 47.917969 237.992188 48.835938 237.992188 50.945312 C 237.992188 53.152344 236.703125 54.128906 235.511719 54.128906 Z M 235.511719 54.128906 "/>
<path style=" stroke:none;fill-rule:nonzero;fill:rgb(0%,0%,0%);fill-opacity:1;" d="M 247.566406 49.675781 C 247.566406 48.582031 247.332031 46.921875 245.164062 46.921875 C 244.167969 46.921875 243.308594 47.371094 242.625 48.230469 L 242.625 47.019531 L 241.355469 47.019531 L 241.355469 55.066406 L 242.703125 55.066406 L 242.703125 50.59375 C 242.703125 49.5 243.132812 47.996094 244.480469 47.996094 C 246.160156 47.996094 246.199219 49.167969 246.199219 49.792969 L 246.199219 55.066406 L 247.566406 55.066406 Z M 247.566406 49.675781 "/>
<path style=" stroke:none;fill-rule:nonzero;fill:rgb(0%,0%,0%);fill-opacity:1;" d="M 2.773438 69.304688 L 4.6875 69.304688 L 4.6875 68.25 L 2.734375 68.25 L 2.734375 66.101562 C 2.734375 64.890625 3.75 64.675781 4.355469 64.675781 C 4.980469 64.675781 5.527344 64.871094 5.742188 64.949219 L 5.742188 63.777344 C 5.625 63.738281 5.019531 63.601562 4.375 63.601562 C 2.65625 63.601562 1.445312 64.910156 1.445312 66.648438 L 1.445312 68.25 L 0.136719 68.25 L 0.136719 69.304688 L 1.445312 69.304688 L 1.445312 76.21875 L 2.773438 76.21875 Z M 2.773438 69.304688 "/>
<path style=" stroke:none;fill-rule:nonzero;fill:rgb(0%,0%,0%);fill-opacity:1;" d="M 13.289062 72.273438 C 13.289062 69.851562 11.511719 67.996094 9.460938 67.996094 C 7.351562 67.996094 5.613281 69.890625 5.613281 72.273438 C 5.613281 74.617188 7.390625 76.394531 9.441406 76.394531 C 11.550781 76.394531 13.289062 74.578125 13.289062 72.273438 Z M 9.460938 75.28125 C 8.171875 75.28125 6.960938 74.207031 6.960938 72.097656 C 6.960938 69.929688 8.308594 69.070312 9.441406 69.070312 C 10.671875 69.070312 11.941406 69.988281 11.941406 72.097656 C 11.941406 74.304688 10.652344 75.28125 9.460938 75.28125 Z M 9.460938 75.28125 "/>
<path style=" stroke:none;fill-rule:nonzero;fill:rgb(0%,0%,0%);fill-opacity:1;" d="M 16.203125 72.292969 C 16.203125 70.476562 17.550781 69.304688 19.171875 69.285156 L 19.171875 68.074219 C 17.53125 68.09375 16.59375 69.050781 16.105469 69.753906 L 16.105469 68.171875 L 14.875 68.171875 L 14.875 76.21875 L 16.203125 76.21875 Z M 16.203125 72.292969 "/>
<path style=" stroke:none;fill-rule:nonzero;fill:rgb(0%,0%,0%);fill-opacity:1;" d="M 27.921875 75.417969 C 28.546875 75.964844 29.289062 76.394531 30.265625 76.394531 C 31.984375 76.394531 33.527344 74.65625 33.527344 72.214844 C 33.527344 70.046875 32.375 68.074219 30.714844 68.074219 C 29.972656 68.074219 28.820312 68.308594 27.902344 69.109375 L 27.902344 68.25 L 26.574219 68.25 L 26.574219 79.695312 L 27.921875 79.695312 Z M 27.921875 70.203125 C 28.332031 69.578125 29.015625 69.1875 29.757812 69.1875 C 31.085938 69.1875 32.160156 70.535156 32.160156 72.234375 C 32.160156 74.03125 30.929688 75.320312 29.601562 75.320312 C 29.09375 75.320312 28.761719 75.144531 28.429688 74.890625 C 27.980469 74.5 27.921875 74.167969 27.921875 73.894531 Z M 27.921875 70.203125 "/>
<path style=" stroke:none;fill-rule:nonzero;fill:rgb(0%,0%,0%);fill-opacity:1;" d="M 41.921875 72.175781 C 41.921875 71.414062 41.84375 70.320312 41.277344 69.363281 C 40.535156 68.132812 39.285156 67.996094 38.757812 67.996094 C 36.824219 67.996094 35.203125 69.851562 35.203125 72.175781 C 35.203125 74.558594 36.921875 76.394531 39.011719 76.394531 C 39.832031 76.394531 40.828125 76.160156 41.804688 75.457031 C 41.804688 75.378906 41.746094 74.8125 41.746094 74.792969 C 41.726562 74.773438 41.707031 74.363281 41.707031 74.304688 C 40.632812 75.203125 39.578125 75.320312 39.050781 75.320312 C 37.664062 75.320312 36.472656 74.089844 36.453125 72.175781 Z M 36.550781 71.21875 C 36.863281 70.007812 37.703125 69.070312 38.757812 69.070312 C 39.324219 69.070312 40.554688 69.324219 40.847656 71.21875 Z M 36.550781 71.21875 "/>
<path style=" stroke:none;fill-rule:nonzero;fill:rgb(0%,0%,0%);fill-opacity:1;" d="M 45.152344 72.292969 C 45.152344 70.476562 46.5 69.304688 48.121094 69.285156 L 48.121094 68.074219 C 46.480469 68.09375 45.542969 69.050781 45.054688 69.753906 L 45.054688 68.171875 L 43.824219 68.171875 L 43.824219 76.21875 L 45.152344 76.21875 Z M 45.152344 72.292969 "/>
<path style=" stroke:none;fill-rule:nonzero;fill:rgb(0%,0%,0%);fill-opacity:1;" d="M 51.171875 75.417969 C 51.796875 75.964844 52.539062 76.394531 53.515625 76.394531 C 55.234375 76.394531 56.777344 74.65625 56.777344 72.214844 C 56.777344 70.046875 55.625 68.074219 53.964844 68.074219 C 53.222656 68.074219 52.070312 68.308594 51.152344 69.109375 L 51.152344 68.25 L 49.824219 68.25 L 49.824219 79.695312 L 51.171875 79.695312 Z M 51.171875 70.203125 C 51.582031 69.578125 52.265625 69.1875 53.007812 69.1875 C 54.335938 69.1875 55.410156 70.535156 55.410156 72.234375 C 55.410156 74.03125 54.179688 75.320312 52.851562 75.320312 C 52.34375 75.320312 52.011719 75.144531 51.679688 74.890625 C 51.230469 74.5 51.171875 74.167969 51.171875 73.894531 Z M 51.171875 70.203125 "/>
<path style=" stroke:none;fill-rule:nonzero;fill:rgb(0%,0%,0%);fill-opacity:1;" d="M 65.171875 72.175781 C 65.171875 71.414062 65.09375 70.320312 64.527344 69.363281 C 63.785156 68.132812 62.535156 67.996094 62.007812 67.996094 C 60.074219 67.996094 58.453125 69.851562 58.453125 72.175781 C 58.453125 74.558594 60.171875 76.394531 62.261719 76.394531 C 63.082031 76.394531 64.078125 76.160156 65.054688 75.457031 C 65.054688 75.378906 64.996094 74.8125 64.996094 74.792969 C 64.976562 74.773438 64.957031 74.363281 64.957031 74.304688 C 63.882812 75.203125 62.828125 75.320312 62.300781 75.320312 C 60.914062 75.320312 59.722656 74.089844 59.703125 72.175781 Z M 59.800781 71.21875 C 60.113281 70.007812 60.953125 69.070312 62.007812 69.070312 C 62.574219 69.070312 63.804688 69.324219 64.097656 71.21875 Z M 59.800781 71.21875 "/>
<path style=" stroke:none;fill-rule:nonzero;fill:rgb(0%,0%,0%);fill-opacity:1;" d="M 73.265625 70.828125 C 73.265625 69.734375 73.03125 68.074219 70.863281 68.074219 C 69.867188 68.074219 69.007812 68.523438 68.324219 69.382812 L 68.324219 68.171875 L 67.054688 68.171875 L 67.054688 76.21875 L 68.402344 76.21875 L 68.402344 71.746094 C 68.402344 70.652344 68.832031 69.148438 70.179688 69.148438 C 71.859375 69.148438 71.898438 70.320312 71.898438 70.945312 L 71.898438 76.21875 L 73.265625 76.21875 Z M 73.265625 70.828125 "/>
<path style=" stroke:none;fill-rule:nonzero;fill:rgb(0%,0%,0%);fill-opacity:1;" d="M 82.246094 63.777344 L 80.917969 63.777344 L 80.917969 69.011719 C 80.097656 68.328125 79.160156 68.074219 78.398438 68.074219 C 76.699219 68.074219 75.292969 69.910156 75.292969 72.234375 C 75.292969 74.558594 76.621094 76.394531 78.320312 76.394531 C 78.984375 76.394531 80 76.179688 80.898438 75.300781 L 80.898438 76.21875 L 82.246094 76.21875 Z M 80.898438 74.109375 C 80.46875 74.871094 79.824219 75.320312 79.042969 75.320312 C 77.949219 75.320312 76.660156 74.480469 76.660156 72.253906 C 76.660156 69.871094 78.183594 69.148438 79.21875 69.148438 C 79.921875 69.148438 80.488281 69.519531 80.898438 70.105469 Z M 80.898438 74.109375 "/>
<path style=" stroke:none;fill-rule:nonzero;fill:rgb(0%,0%,0%);fill-opacity:1;" d="M 86.5 64.050781 L 84.957031 64.050781 L 84.957031 65.59375 L 86.5 65.59375 Z M 86.402344 68.25 L 85.074219 68.25 L 85.074219 76.21875 L 86.402344 76.21875 Z M 86.402344 68.25 "/>
<path style=" stroke:none;fill-rule:nonzero;fill:rgb(0%,0%,0%);fill-opacity:1;" d="M 95.054688 74.285156 C 94.234375 74.949219 93.316406 75.28125 92.320312 75.28125 C 90.816406 75.28125 89.859375 73.953125 89.859375 72.214844 C 89.859375 70.730469 90.582031 69.109375 92.359375 69.109375 C 93.570312 69.109375 94.078125 69.382812 94.839844 69.910156 L 95.054688 68.738281 C 94.019531 68.132812 93.433594 67.996094 92.359375 67.996094 C 89.898438 67.996094 88.492188 70.183594 88.492188 72.214844 C 88.492188 74.519531 90.152344 76.394531 92.300781 76.394531 C 93.179688 76.394531 94.175781 76.179688 95.171875 75.457031 C 95.171875 75.417969 95.113281 74.851562 95.09375 74.792969 Z M 95.054688 74.285156 "/>
<path style=" stroke:none;fill-rule:nonzero;fill:rgb(0%,0%,0%);fill-opacity:1;" d="M 103.265625 68.25 L 101.898438 68.25 L 101.898438 73.386719 C 101.898438 74.753906 100.960938 75.417969 99.789062 75.417969 C 98.539062 75.417969 98.402344 74.949219 98.402344 74.148438 L 98.402344 68.25 L 97.054688 68.25 L 97.054688 74.226562 C 97.054688 75.515625 97.464844 76.394531 98.929688 76.394531 C 99.4375 76.394531 100.84375 76.316406 101.9375 75.320312 L 101.9375 76.21875 L 103.265625 76.21875 Z M 103.265625 68.25 "/>
<path style=" stroke:none;fill-rule:nonzero;fill:rgb(0%,0%,0%);fill-opacity:1;" d="M 107.402344 63.777344 L 106.074219 63.777344 L 106.074219 76.21875 L 107.402344 76.21875 Z M 107.402344 63.777344 "/>
<path style=" stroke:none;fill-rule:nonzero;fill:rgb(0%,0%,0%);fill-opacity:1;" d="M 115.878906 70.964844 C 115.878906 69.246094 114.648438 67.996094 112.96875 67.996094 C 111.894531 67.996094 111.09375 68.230469 110.214844 68.738281 L 110.3125 69.929688 C 111.113281 69.34375 111.933594 69.03125 112.96875 69.03125 C 113.789062 69.03125 114.511719 69.695312 114.511719 71.003906 L 114.511719 71.746094 C 113.710938 71.765625 112.636719 71.824219 111.5625 72.175781 C 110.351562 72.605469 109.648438 73.269531 109.648438 74.148438 C 109.648438 74.949219 110.117188 76.394531 111.640625 76.394531 C 112.636719 76.394531 113.886719 76.101562 114.550781 75.554688 L 114.550781 76.21875 L 115.878906 76.21875 Z M 114.511719 73.816406 C 114.511719 74.167969 114.511719 74.597656 113.925781 74.96875 C 113.4375 75.261719 112.832031 75.320312 112.558594 75.320312 C 111.601562 75.320312 110.9375 74.792969 110.9375 74.148438 C 110.9375 72.917969 113.417969 72.644531 114.511719 72.644531 Z M 114.511719 73.816406 "/>
<path style=" stroke:none;fill-rule:nonzero;fill:rgb(0%,0%,0%);fill-opacity:1;" d="M 119.550781 72.292969 C 119.550781 70.476562 120.898438 69.304688 122.519531 69.285156 L 122.519531 68.074219 C 120.878906 68.09375 119.941406 69.050781 119.453125 69.753906 L 119.453125 68.171875 L 118.222656 68.171875 L 118.222656 76.21875 L 119.550781 76.21875 Z M 119.550781 72.292969 "/>
<path style=" stroke:none;fill-rule:nonzero;fill:rgb(0%,0%,0%);fill-opacity:1;" d="M 125.648438 64.050781 L 124.105469 64.050781 L 124.105469 65.59375 L 125.648438 65.59375 Z M 125.550781 68.25 L 124.222656 68.25 L 124.222656 76.21875 L 125.550781 76.21875 Z M 125.550781 68.25 "/>
<path style=" stroke:none;fill-rule:nonzero;fill:rgb(0%,0%,0%);fill-opacity:1;" d="M 130.085938 69.304688 L 132.566406 69.304688 L 132.566406 68.25 L 130.085938 68.25 L 130.085938 65.984375 L 128.855469 65.984375 L 128.855469 68.25 L 127.351562 68.25 L 127.351562 69.304688 L 128.816406 69.304688 L 128.816406 74.128906 C 128.816406 75.164062 129.050781 76.394531 130.28125 76.394531 C 131.492188 76.394531 132.3125 75.984375 132.859375 75.691406 L 132.585938 74.65625 C 131.960938 75.222656 131.296875 75.28125 130.984375 75.28125 C 130.183594 75.28125 130.085938 74.441406 130.085938 73.816406 Z M 130.085938 69.304688 "/>
<path style=" stroke:none;fill-rule:nonzero;fill:rgb(0%,0%,0%);fill-opacity:1;" d="M 140.621094 68.25 L 139.292969 68.25 C 138.453125 70.378906 137.085938 73.894531 137.007812 75.183594 L 136.988281 75.183594 C 136.910156 74.128906 135.953125 71.746094 135.816406 71.394531 L 134.527344 68.25 L 133.121094 68.25 L 136.460938 76.21875 L 135.816406 77.859375 C 135.425781 78.738281 135.171875 78.835938 134.839844 78.835938 C 134.585938 78.835938 134.019531 78.777344 133.453125 78.5625 L 133.570312 79.734375 C 133.667969 79.753906 134.273438 79.871094 134.839844 79.871094 C 135.269531 79.871094 136.109375 79.871094 136.890625 77.898438 Z M 140.621094 68.25 "/>
</g>
</svg>
