<?xml version="1.0" encoding="UTF-8"?>
<svg width="220" height="240" xmlns="http://www.w3.org/2000/svg" xmlns:svg="http://www.w3.org/2000/svg" class="main-svg">
 <!-- Created with SVG-edit - http://svg-edit.googlecode.com/ -->

 <g>
  <title>Layer 1</title>
  <line fill="none" stroke="#000000" x1="50" y1="150" x2="180" y2="20" id="svg_4"/>
  <text fill="#000000" stroke-width="0" x="105" y="75" font-size="14" font-family="sans-serif" text-anchor="middle" xml:space="preserve">h</text>
  <line fill="none" stroke="#676767" x1="40" y1="140" x2="90" y2="90"/>
  <line fill="none" stroke="#676767" x1="40" y1="140" x2="40" y2="135"/>
  <line fill="none" stroke="#676767" x1="40" y1="140" x2="45" y2="140"/>
  <line fill="none" stroke="#676767" x1="120" y1="60" x2="170" y2="10"/>
  <line fill="none" stroke="#676767" x1="165" y1="10" x2="170" y2="10"/>
  <line fill="none" stroke="#676767" x1="170" y1="10" x2="170" y2="15"/>

  <line fill="none" stroke="#000000" x1="180" y1="20" x2="180" y2="150" id="svg_8"/>
  <text fill="#000000" stroke-width="0" x="202" y="98" font-size="14" font-family="sans-serif" text-anchor="middle" xml:space="preserve">a</text>
  <line fill="none" stroke="#676767" x1="202" y1="20" x2="202" y2="75" id="svg_18"/>
  <line fill="none" stroke="#676767" x1="202" y1="20" x2="197" y2="25" id="svg_181"/>
  <line fill="none" stroke="#676767" x1="202" y1="20" x2="207" y2="25" id="svg_182"/>
  <line fill="none" stroke="#676767" x1="202" y1="110" x2="202" y2="150" id="svg_19"/>
  <line fill="none" stroke="#676767" x1="207" y1="145" x2="202" y2="150" id="svg_191"/>
  <line fill="none" stroke="#676767" x1="197" y1="145" x2="202" y2="150" id="svg_192"/>

  <line fill="none" stroke="#000000" x1="50" y1="150" x2="180" y2="150" id="svg_6"/>
  <text fill="#000000" stroke-width="0" x="115" y="178" font-size="14" font-family="sans-serif" text-anchor="middle" xml:space="preserve">b</text>
  <line fill="none" stroke="#676767" x1="50" y1="172" x2="100" y2="172" id="svg_14"/>
  <line fill="none" stroke="#676767" x1="50" y1="172" x2="55" y2="167" id="svg_141"/>
  <line fill="none" stroke="#676767" x1="50" y1="172" x2="55" y2="177" id="svg_142"/>
  <line fill="none" stroke="#676767" x1="130" y1="172" x2="180" y2="172" id="svg_15"/>
  <line fill="none" stroke="#676767" x1="175" y1="167" x2="180" y2="172" id="svg_151"/>
  <line fill="none" stroke="#676767" x1="175" y1="177" x2="180" y2="172" id="svg_152"/>
  <text fill="#000000" stroke-width="0" x="75" y="145" font-size="14" font-family="sans-serif" text-anchor="middle" xml:space="preserve">θ</text>

  <text fill="#000000" stroke-width="0" x="110" y="198" font-size="12" font-family="sans-serif" text-anchor="middle" xml:space="preserve">tan θ = a/b => θ = tan-1(a/b) </text>
 </g>
</svg>
