<?xml version="1.0" encoding="UTF-8"?>
<svg xmlns="http://www.w3.org/2000/svg" xmlns:xlink="http://www.w3.org/1999/xlink" width="309.49822pt" height="53.717842pt" viewBox="0 0 309.49822 53.717842" version="1.1">
<g id="surface1">
<path style=" stroke:none;fill-rule:nonzero;fill:rgb(0%,0%,0%);fill-opacity:1;" d="M 10.386719 0.449219 C 10.40625 0.371094 10.445312 0.273438 10.445312 0.175781 C 10.445312 0 10.25 0 10.210938 0 C 10.210938 0 9.332031 0.078125 9.234375 0.078125 C 8.921875 0.0976562 8.667969 0.136719 8.335938 0.15625 C 7.886719 0.195312 7.769531 0.214844 7.769531 0.527344 C 7.769531 0.722656 7.90625 0.722656 8.160156 0.722656 C 9.039062 0.722656 9.058594 0.878906 9.058594 1.054688 C 9.058594 1.171875 9.019531 1.308594 9 1.367188 L 7.90625 5.722656 C 7.710938 5.253906 7.222656 4.53125 6.285156 4.53125 C 4.273438 4.53125 2.085938 7.148438 2.085938 9.804688 C 2.085938 11.582031 3.121094 12.617188 4.332031 12.617188 C 5.328125 12.617188 6.167969 11.855469 6.675781 11.25 C 6.851562 12.324219 7.691406 12.617188 8.238281 12.617188 C 8.765625 12.617188 9.195312 12.304688 9.527344 11.660156 C 9.800781 11.035156 10.054688 9.941406 10.054688 9.882812 C 10.054688 9.785156 9.996094 9.707031 9.878906 9.707031 C 9.722656 9.707031 9.703125 9.804688 9.625 10.078125 C 9.351562 11.132812 9.019531 12.265625 8.277344 12.265625 C 7.769531 12.265625 7.730469 11.796875 7.730469 11.445312 C 7.730469 11.367188 7.730469 10.996094 7.847656 10.488281 Z M 6.753906 10.3125 C 6.675781 10.605469 6.675781 10.644531 6.421875 10.996094 C 6.03125 11.484375 5.230469 12.265625 4.390625 12.265625 C 3.667969 12.265625 3.238281 11.601562 3.238281 10.546875 C 3.238281 9.550781 3.804688 7.539062 4.136719 6.796875 C 4.761719 5.546875 5.601562 4.902344 6.285156 4.902344 C 7.476562 4.902344 7.710938 6.367188 7.710938 6.503906 C 7.710938 6.523438 7.652344 6.757812 7.632812 6.796875 Z M 6.753906 10.3125 "/>
<path style=" stroke:none;fill-rule:nonzero;fill:rgb(0%,0%,0%);fill-opacity:1;" d="M 15.222656 14.453125 C 14.753906 15.136719 14.050781 15.742188 13.171875 15.742188 C 12.957031 15.742188 12.097656 15.703125 11.824219 14.882812 C 11.882812 14.902344 11.960938 14.902344 12 14.902344 C 12.546875 14.902344 12.898438 14.433594 12.898438 14.023438 C 12.898438 13.613281 12.566406 13.457031 12.292969 13.457031 C 12 13.457031 11.375 13.671875 11.375 14.550781 C 11.375 15.46875 12.15625 16.09375 13.171875 16.09375 C 14.96875 16.09375 16.765625 14.453125 17.273438 12.460938 L 19.03125 5.46875 C 19.050781 5.371094 19.089844 5.273438 19.089844 5.15625 C 19.089844 4.902344 18.875 4.707031 18.601562 4.707031 C 18.445312 4.707031 18.054688 4.785156 17.917969 5.332031 L 16.589844 10.585938 C 16.511719 10.917969 16.511719 10.957031 16.355469 11.152344 C 16.003906 11.660156 15.417969 12.265625 14.558594 12.265625 C 13.542969 12.265625 13.464844 11.269531 13.464844 10.800781 C 13.464844 9.765625 13.933594 8.398438 14.421875 7.089844 C 14.617188 6.582031 14.734375 6.328125 14.734375 5.976562 C 14.734375 5.214844 14.1875 4.53125 13.308594 4.53125 C 11.667969 4.53125 11.003906 7.128906 11.003906 7.285156 C 11.003906 7.34375 11.0625 7.441406 11.199219 7.441406 C 11.355469 7.441406 11.375 7.363281 11.453125 7.109375 C 11.882812 5.605469 12.566406 4.902344 13.25 4.902344 C 13.425781 4.902344 13.71875 4.902344 13.71875 5.488281 C 13.71875 5.957031 13.523438 6.464844 13.25 7.148438 C 12.371094 9.492188 12.371094 10.097656 12.371094 10.527344 C 12.371094 12.226562 13.601562 12.617188 14.5 12.617188 C 15.007812 12.617188 15.652344 12.460938 16.296875 11.796875 L 16.316406 11.816406 C 16.042969 12.871094 15.867188 13.574219 15.222656 14.453125 Z M 15.222656 14.453125 "/>
<path style=" stroke:none;fill-rule:nonzero;fill:rgb(0%,0%,0%);fill-opacity:1;" d="M 0.898438 19.660156 L 20.097656 19.660156 L 20.097656 20.410156 L 0.898438 20.410156 Z M 0.898438 19.660156 "/>
<path style=" stroke:none;fill-rule:nonzero;fill:rgb(0%,0%,0%);fill-opacity:1;" d="M 9.9375 24.898438 C 9.957031 24.820312 9.996094 24.722656 9.996094 24.625 C 9.996094 24.449219 9.800781 24.449219 9.761719 24.449219 C 9.761719 24.449219 8.882812 24.527344 8.785156 24.527344 C 8.472656 24.546875 8.21875 24.585938 7.886719 24.605469 C 7.4375 24.644531 7.320312 24.664062 7.320312 24.976562 C 7.320312 25.171875 7.457031 25.171875 7.710938 25.171875 C 8.589844 25.171875 8.609375 25.328125 8.609375 25.503906 C 8.609375 25.621094 8.570312 25.757812 8.550781 25.816406 L 7.457031 30.171875 C 7.261719 29.703125 6.773438 28.980469 5.835938 28.980469 C 3.824219 28.980469 1.636719 31.597656 1.636719 34.253906 C 1.636719 36.03125 2.671875 37.066406 3.882812 37.066406 C 4.878906 37.066406 5.71875 36.304688 6.226562 35.699219 C 6.402344 36.773438 7.242188 37.066406 7.789062 37.066406 C 8.316406 37.066406 8.746094 36.753906 9.078125 36.109375 C 9.351562 35.484375 9.605469 34.390625 9.605469 34.332031 C 9.605469 34.234375 9.546875 34.15625 9.429688 34.15625 C 9.273438 34.15625 9.253906 34.253906 9.175781 34.527344 C 8.902344 35.582031 8.570312 36.714844 7.828125 36.714844 C 7.320312 36.714844 7.28125 36.246094 7.28125 35.894531 C 7.28125 35.816406 7.28125 35.445312 7.398438 34.9375 Z M 6.304688 34.761719 C 6.226562 35.054688 6.226562 35.09375 5.972656 35.445312 C 5.582031 35.933594 4.78125 36.714844 3.941406 36.714844 C 3.21875 36.714844 2.789062 36.050781 2.789062 34.996094 C 2.789062 34 3.355469 31.988281 3.6875 31.246094 C 4.3125 29.996094 5.152344 29.351562 5.835938 29.351562 C 7.027344 29.351562 7.261719 30.816406 7.261719 30.953125 C 7.261719 30.972656 7.203125 31.207031 7.183594 31.246094 Z M 6.304688 34.761719 "/>
<path style=" stroke:none;fill-rule:nonzero;fill:rgb(0%,0%,0%);fill-opacity:1;" d="M 18.558594 29.566406 C 17.992188 29.683594 17.777344 30.113281 17.777344 30.445312 C 17.777344 30.875 18.109375 31.03125 18.363281 31.03125 C 18.910156 31.03125 19.28125 30.5625 19.28125 30.074219 C 19.28125 29.332031 18.421875 28.980469 17.660156 28.980469 C 16.566406 28.980469 15.960938 30.054688 15.804688 30.40625 C 15.394531 29.058594 14.28125 28.980469 13.949219 28.980469 C 12.132812 28.980469 11.15625 31.324219 11.15625 31.734375 C 11.15625 31.792969 11.234375 31.890625 11.351562 31.890625 C 11.488281 31.890625 11.527344 31.773438 11.566406 31.714844 C 12.171875 29.722656 13.382812 29.351562 13.890625 29.351562 C 14.710938 29.351562 14.867188 30.09375 14.867188 30.523438 C 14.867188 30.914062 14.769531 31.324219 14.535156 32.183594 L 13.929688 34.644531 C 13.675781 35.71875 13.148438 36.714844 12.191406 36.714844 C 12.113281 36.714844 11.664062 36.714844 11.273438 36.480469 C 11.917969 36.34375 12.074219 35.816406 12.074219 35.601562 C 12.074219 35.25 11.800781 35.035156 11.46875 35.035156 C 11.039062 35.035156 10.570312 35.40625 10.570312 35.972656 C 10.570312 36.734375 11.410156 37.066406 12.171875 37.066406 C 13.03125 37.066406 13.65625 36.382812 14.027344 35.660156 C 14.320312 36.714844 15.199219 37.066406 15.863281 37.066406 C 17.699219 37.066406 18.675781 34.722656 18.675781 34.332031 C 18.675781 34.234375 18.597656 34.15625 18.480469 34.15625 C 18.324219 34.15625 18.304688 34.253906 18.265625 34.390625 C 17.777344 35.972656 16.722656 36.714844 15.921875 36.714844 C 15.296875 36.714844 14.964844 36.246094 14.964844 35.503906 C 14.964844 35.113281 15.023438 34.820312 15.316406 33.648438 L 15.941406 31.207031 C 16.214844 30.132812 16.820312 29.351562 17.640625 29.351562 C 17.679688 29.351562 18.1875 29.351562 18.558594 29.566406 Z M 18.558594 29.566406 "/>
<path style=" stroke:none;fill-rule:nonzero;fill:rgb(0%,0%,0%);fill-opacity:1;" d="M 29.8125 20.449219 L 34.773438 20.449219 C 35.027344 20.449219 35.339844 20.449219 35.339844 20.117188 C 35.339844 19.785156 35.027344 19.785156 34.773438 19.785156 L 29.8125 19.785156 L 29.8125 14.84375 C 29.8125 14.589844 29.8125 14.257812 29.5 14.257812 C 29.148438 14.257812 29.148438 14.570312 29.148438 14.84375 L 29.148438 19.785156 L 24.207031 19.785156 C 23.953125 19.785156 23.640625 19.785156 23.640625 20.117188 C 23.640625 20.449219 23.933594 20.449219 24.207031 20.449219 L 29.148438 20.449219 L 29.148438 25.390625 C 29.148438 25.644531 29.148438 25.976562 29.480469 25.976562 C 29.8125 25.976562 29.8125 25.664062 29.8125 25.390625 Z M 29.8125 20.449219 "/>
<path style=" stroke:none;fill-rule:nonzero;fill:rgb(0%,0%,0%);fill-opacity:1;" d="M 42.222656 26.601562 C 41.753906 27.285156 41.050781 27.890625 40.171875 27.890625 C 39.957031 27.890625 39.097656 27.851562 38.824219 27.03125 C 38.882812 27.050781 38.960938 27.050781 39 27.050781 C 39.546875 27.050781 39.898438 26.582031 39.898438 26.171875 C 39.898438 25.761719 39.566406 25.605469 39.292969 25.605469 C 39 25.605469 38.375 25.820312 38.375 26.699219 C 38.375 27.617188 39.15625 28.242188 40.171875 28.242188 C 41.96875 28.242188 43.765625 26.601562 44.273438 24.609375 L 46.03125 17.617188 C 46.050781 17.519531 46.089844 17.421875 46.089844 17.304688 C 46.089844 17.050781 45.875 16.855469 45.601562 16.855469 C 45.445312 16.855469 45.054688 16.933594 44.917969 17.480469 L 43.589844 22.734375 C 43.511719 23.066406 43.511719 23.105469 43.355469 23.300781 C 43.003906 23.808594 42.417969 24.414062 41.558594 24.414062 C 40.542969 24.414062 40.464844 23.417969 40.464844 22.949219 C 40.464844 21.914062 40.933594 20.546875 41.421875 19.238281 C 41.617188 18.730469 41.734375 18.476562 41.734375 18.125 C 41.734375 17.363281 41.1875 16.679688 40.308594 16.679688 C 38.667969 16.679688 38.003906 19.277344 38.003906 19.433594 C 38.003906 19.492188 38.0625 19.589844 38.199219 19.589844 C 38.355469 19.589844 38.375 19.511719 38.453125 19.257812 C 38.882812 17.753906 39.566406 17.050781 40.25 17.050781 C 40.425781 17.050781 40.71875 17.050781 40.71875 17.636719 C 40.71875 18.105469 40.523438 18.613281 40.25 19.296875 C 39.371094 21.640625 39.371094 22.246094 39.371094 22.675781 C 39.371094 24.375 40.601562 24.765625 41.5 24.765625 C 42.007812 24.765625 42.652344 24.609375 43.296875 23.945312 L 43.316406 23.964844 C 43.042969 25.019531 42.867188 25.722656 42.222656 26.601562 Z M 42.222656 26.601562 "/>
<path style=" stroke:none;fill-rule:nonzero;fill:rgb(0%,0%,0%);fill-opacity:1;" d="M 63.875 18.789062 C 64.128906 18.789062 64.441406 18.789062 64.441406 18.457031 C 64.441406 18.125 64.128906 18.125 63.875 18.125 L 53.308594 18.125 C 53.054688 18.125 52.742188 18.125 52.742188 18.4375 C 52.742188 18.789062 53.035156 18.789062 53.308594 18.789062 Z M 63.875 22.109375 C 64.128906 22.109375 64.441406 22.109375 64.441406 21.796875 C 64.441406 21.445312 64.128906 21.445312 63.875 21.445312 L 53.308594 21.445312 C 53.054688 21.445312 52.742188 21.445312 52.742188 21.777344 C 52.742188 22.109375 53.035156 22.109375 53.308594 22.109375 Z M 63.875 22.109375 "/>
<path style=" stroke:none;fill-rule:nonzero;fill:rgb(0%,0%,0%);fill-opacity:1;" d="M 76.847656 17.949219 C 76.632812 17.949219 75.96875 17.949219 75.96875 18.691406 C 75.96875 19.121094 76.28125 19.433594 76.710938 19.433594 C 77.121094 19.433594 77.472656 19.179688 77.472656 18.652344 C 77.472656 17.460938 76.203125 16.601562 74.757812 16.601562 C 72.667969 16.601562 70.988281 18.457031 70.988281 20.722656 C 70.988281 23.007812 72.707031 24.765625 74.738281 24.765625 C 77.101562 24.765625 77.648438 22.617188 77.648438 22.460938 C 77.648438 22.285156 77.511719 22.285156 77.472656 22.285156 C 77.296875 22.285156 77.277344 22.34375 77.238281 22.558594 C 76.828125 23.828125 75.871094 24.375 74.894531 24.375 C 73.800781 24.375 72.355469 23.417969 72.355469 20.703125 C 72.355469 17.714844 73.878906 16.992188 74.777344 16.992188 C 75.460938 16.992188 76.4375 17.265625 76.847656 17.949219 Z M 76.847656 17.949219 "/>
<path style=" stroke:none;fill-rule:nonzero;fill:rgb(0%,0%,0%);fill-opacity:1;" d="M 86.386719 20.761719 C 86.386719 18.4375 84.628906 16.601562 82.558594 16.601562 C 80.410156 16.601562 78.710938 18.496094 78.710938 20.761719 C 78.710938 23.046875 80.488281 24.765625 82.539062 24.765625 C 84.648438 24.765625 86.386719 23.007812 86.386719 20.761719 Z M 82.558594 24.375 C 81.894531 24.375 81.09375 24.082031 80.566406 23.203125 C 80.078125 22.402344 80.058594 21.347656 80.058594 20.585938 C 80.058594 19.902344 80.058594 18.808594 80.625 18.007812 C 81.113281 17.246094 81.914062 16.953125 82.539062 16.953125 C 83.242188 16.953125 83.984375 17.265625 84.472656 17.96875 C 85.039062 18.789062 85.039062 19.921875 85.039062 20.585938 C 85.039062 21.210938 85.039062 22.324219 84.570312 23.164062 C 84.0625 24.042969 83.242188 24.375 82.558594 24.375 Z M 82.558594 24.375 "/>
<path style=" stroke:none;fill-rule:nonzero;fill:rgb(0%,0%,0%);fill-opacity:1;" d="M 92.894531 17.011719 C 92.894531 16.679688 92.894531 16.601562 92.71875 16.601562 C 92.582031 16.601562 92.230469 16.992188 92.113281 17.148438 C 91.546875 16.699219 91 16.601562 90.414062 16.601562 C 88.246094 16.601562 87.601562 17.773438 87.601562 18.769531 C 87.601562 18.964844 87.601562 19.589844 88.285156 20.214844 C 88.871094 20.722656 89.476562 20.839844 90.296875 20.996094 C 91.273438 21.191406 91.507812 21.25 91.957031 21.621094 C 92.289062 21.875 92.523438 22.285156 92.523438 22.773438 C 92.523438 23.554688 92.074219 24.414062 90.492188 24.414062 C 89.320312 24.414062 88.441406 23.730469 88.050781 21.933594 C 87.992188 21.621094 87.992188 21.601562 87.972656 21.582031 C 87.933594 21.503906 87.855469 21.503906 87.796875 21.503906 C 87.601562 21.503906 87.601562 21.601562 87.601562 21.914062 L 87.601562 24.355469 C 87.601562 24.6875 87.601562 24.765625 87.777344 24.765625 C 87.875 24.765625 87.894531 24.746094 88.207031 24.375 C 88.285156 24.257812 88.285156 24.21875 88.558594 23.925781 C 89.242188 24.765625 90.199219 24.765625 90.511719 24.765625 C 92.386719 24.765625 93.324219 23.730469 93.324219 22.304688 C 93.324219 21.347656 92.738281 20.761719 92.582031 20.605469 C 91.9375 20.058594 91.449219 19.941406 90.257812 19.726562 C 89.730469 19.628906 88.421875 19.375 88.421875 18.300781 C 88.421875 17.734375 88.792969 16.914062 90.414062 16.914062 C 92.367188 16.914062 92.464844 18.574219 92.503906 19.140625 C 92.523438 19.277344 92.640625 19.277344 92.699219 19.277344 C 92.894531 19.277344 92.894531 19.199219 92.894531 18.867188 Z M 92.894531 17.011719 "/>
<path style=" stroke:none;fill-rule:nonzero;fill:rgb(0%,0%,0%);fill-opacity:1;" d="M 105.410156 17.265625 C 104.84375 17.382812 104.628906 17.8125 104.628906 18.144531 C 104.628906 18.574219 104.960938 18.730469 105.214844 18.730469 C 105.761719 18.730469 106.132812 18.261719 106.132812 17.773438 C 106.132812 17.03125 105.273438 16.679688 104.511719 16.679688 C 103.417969 16.679688 102.8125 17.753906 102.65625 18.105469 C 102.246094 16.757812 101.132812 16.679688 100.800781 16.679688 C 98.984375 16.679688 98.007812 19.023438 98.007812 19.433594 C 98.007812 19.492188 98.085938 19.589844 98.203125 19.589844 C 98.339844 19.589844 98.378906 19.472656 98.417969 19.414062 C 99.023438 17.421875 100.234375 17.050781 100.742188 17.050781 C 101.5625 17.050781 101.71875 17.792969 101.71875 18.222656 C 101.71875 18.613281 101.621094 19.023438 101.386719 19.882812 L 100.78125 22.34375 C 100.527344 23.417969 100 24.414062 99.042969 24.414062 C 98.964844 24.414062 98.515625 24.414062 98.125 24.179688 C 98.769531 24.042969 98.925781 23.515625 98.925781 23.300781 C 98.925781 22.949219 98.652344 22.734375 98.320312 22.734375 C 97.890625 22.734375 97.421875 23.105469 97.421875 23.671875 C 97.421875 24.433594 98.261719 24.765625 99.023438 24.765625 C 99.882812 24.765625 100.507812 24.082031 100.878906 23.359375 C 101.171875 24.414062 102.050781 24.765625 102.714844 24.765625 C 104.550781 24.765625 105.527344 22.421875 105.527344 22.03125 C 105.527344 21.933594 105.449219 21.855469 105.332031 21.855469 C 105.175781 21.855469 105.15625 21.953125 105.117188 22.089844 C 104.628906 23.671875 103.574219 24.414062 102.773438 24.414062 C 102.148438 24.414062 101.816406 23.945312 101.816406 23.203125 C 101.816406 22.8125 101.875 22.519531 102.167969 21.347656 L 102.792969 18.90625 C 103.066406 17.832031 103.671875 17.050781 104.492188 17.050781 C 104.53125 17.050781 105.039062 17.050781 105.410156 17.265625 Z M 105.410156 17.265625 "/>
<path style=" stroke:none;fill-rule:nonzero;fill:rgb(0%,0%,0%);fill-opacity:1;" d="M 119.980469 20.46875 C 120.292969 20.46875 120.605469 20.46875 120.605469 20.117188 C 120.605469 19.746094 120.292969 19.746094 119.980469 19.746094 L 110.273438 19.746094 C 109.980469 19.746094 109.648438 19.746094 109.648438 20.117188 C 109.648438 20.46875 109.980469 20.46875 110.273438 20.46875 Z M 119.980469 20.46875 "/>
<path style=" stroke:none;fill-rule:nonzero;fill:rgb(0%,0%,0%);fill-opacity:1;" d="M 129.191406 17.011719 C 129.191406 16.679688 129.191406 16.601562 129.015625 16.601562 C 128.878906 16.601562 128.527344 16.992188 128.410156 17.148438 C 127.84375 16.699219 127.296875 16.601562 126.710938 16.601562 C 124.542969 16.601562 123.898438 17.773438 123.898438 18.769531 C 123.898438 18.964844 123.898438 19.589844 124.582031 20.214844 C 125.167969 20.722656 125.773438 20.839844 126.59375 20.996094 C 127.570312 21.191406 127.804688 21.25 128.253906 21.621094 C 128.585938 21.875 128.820312 22.285156 128.820312 22.773438 C 128.820312 23.554688 128.371094 24.414062 126.789062 24.414062 C 125.617188 24.414062 124.738281 23.730469 124.347656 21.933594 C 124.289062 21.621094 124.289062 21.601562 124.269531 21.582031 C 124.230469 21.503906 124.152344 21.503906 124.09375 21.503906 C 123.898438 21.503906 123.898438 21.601562 123.898438 21.914062 L 123.898438 24.355469 C 123.898438 24.6875 123.898438 24.765625 124.074219 24.765625 C 124.171875 24.765625 124.191406 24.746094 124.503906 24.375 C 124.582031 24.257812 124.582031 24.21875 124.855469 23.925781 C 125.539062 24.765625 126.496094 24.765625 126.808594 24.765625 C 128.683594 24.765625 129.621094 23.730469 129.621094 22.304688 C 129.621094 21.347656 129.035156 20.761719 128.878906 20.605469 C 128.234375 20.058594 127.746094 19.941406 126.554688 19.726562 C 126.027344 19.628906 124.71875 19.375 124.71875 18.300781 C 124.71875 17.734375 125.089844 16.914062 126.710938 16.914062 C 128.664062 16.914062 128.761719 18.574219 128.800781 19.140625 C 128.820312 19.277344 128.9375 19.277344 128.996094 19.277344 C 129.191406 19.277344 129.191406 19.199219 129.191406 18.867188 Z M 129.191406 17.011719 "/>
<path style=" stroke:none;fill-rule:nonzero;fill:rgb(0%,0%,0%);fill-opacity:1;" d="M 133.339844 13.554688 C 133.339844 13.085938 132.949219 12.675781 132.460938 12.675781 C 131.992188 12.675781 131.601562 13.046875 131.601562 13.535156 C 131.601562 14.0625 132.03125 14.414062 132.460938 14.414062 C 133.007812 14.414062 133.339844 13.945312 133.339844 13.554688 Z M 130.859375 16.875 L 130.859375 17.402344 C 132.011719 17.402344 132.167969 17.5 132.167969 18.378906 L 132.167969 23.261719 C 132.167969 24.0625 131.972656 24.0625 130.800781 24.0625 L 130.800781 24.589844 C 131.308594 24.550781 132.167969 24.550781 132.695312 24.550781 C 132.890625 24.550781 133.925781 24.550781 134.53125 24.589844 L 134.53125 24.0625 C 133.378906 24.0625 133.300781 23.984375 133.300781 23.28125 L 133.300781 16.679688 Z M 130.859375 16.875 "/>
<path style=" stroke:none;fill-rule:nonzero;fill:rgb(0%,0%,0%);fill-opacity:1;" d="M 143.152344 20.234375 C 143.152344 18.574219 143.152344 18.066406 142.722656 17.480469 C 142.214844 16.796875 141.375 16.679688 140.75 16.679688 C 139.011719 16.679688 138.328125 18.164062 138.191406 18.535156 L 138.171875 18.535156 L 138.171875 16.679688 L 135.730469 16.875 L 135.730469 17.402344 C 136.960938 17.402344 137.097656 17.519531 137.097656 18.398438 L 137.097656 23.261719 C 137.097656 24.0625 136.902344 24.0625 135.730469 24.0625 L 135.730469 24.589844 C 136.199219 24.550781 137.175781 24.550781 137.683594 24.550781 C 138.191406 24.550781 139.167969 24.550781 139.636719 24.589844 L 139.636719 24.0625 C 138.484375 24.0625 138.269531 24.0625 138.269531 23.261719 L 138.269531 19.921875 C 138.269531 18.046875 139.5 17.050781 140.613281 17.050781 C 141.726562 17.050781 141.980469 17.949219 141.980469 19.042969 L 141.980469 23.261719 C 141.980469 24.0625 141.785156 24.0625 140.613281 24.0625 L 140.613281 24.589844 C 141.082031 24.550781 142.058594 24.550781 142.546875 24.550781 C 143.074219 24.550781 144.03125 24.550781 144.5 24.589844 L 144.5 24.0625 C 143.601562 24.0625 143.152344 24.0625 143.152344 23.535156 Z M 143.152344 20.234375 "/>
<path style=" stroke:none;fill-rule:nonzero;fill:rgb(0%,0%,0%);fill-opacity:1;" d="M 156.261719 17.265625 C 155.695312 17.382812 155.480469 17.8125 155.480469 18.144531 C 155.480469 18.574219 155.8125 18.730469 156.066406 18.730469 C 156.613281 18.730469 156.984375 18.261719 156.984375 17.773438 C 156.984375 17.03125 156.125 16.679688 155.363281 16.679688 C 154.269531 16.679688 153.664062 17.753906 153.507812 18.105469 C 153.097656 16.757812 151.984375 16.679688 151.652344 16.679688 C 149.835938 16.679688 148.859375 19.023438 148.859375 19.433594 C 148.859375 19.492188 148.9375 19.589844 149.054688 19.589844 C 149.191406 19.589844 149.230469 19.472656 149.269531 19.414062 C 149.875 17.421875 151.085938 17.050781 151.59375 17.050781 C 152.414062 17.050781 152.570312 17.792969 152.570312 18.222656 C 152.570312 18.613281 152.472656 19.023438 152.238281 19.882812 L 151.632812 22.34375 C 151.378906 23.417969 150.851562 24.414062 149.894531 24.414062 C 149.816406 24.414062 149.367188 24.414062 148.976562 24.179688 C 149.621094 24.042969 149.777344 23.515625 149.777344 23.300781 C 149.777344 22.949219 149.503906 22.734375 149.171875 22.734375 C 148.742188 22.734375 148.273438 23.105469 148.273438 23.671875 C 148.273438 24.433594 149.113281 24.765625 149.875 24.765625 C 150.734375 24.765625 151.359375 24.082031 151.730469 23.359375 C 152.023438 24.414062 152.902344 24.765625 153.566406 24.765625 C 155.402344 24.765625 156.378906 22.421875 156.378906 22.03125 C 156.378906 21.933594 156.300781 21.855469 156.183594 21.855469 C 156.027344 21.855469 156.007812 21.953125 155.96875 22.089844 C 155.480469 23.671875 154.425781 24.414062 153.625 24.414062 C 153 24.414062 152.667969 23.945312 152.667969 23.203125 C 152.667969 22.8125 152.726562 22.519531 153.019531 21.347656 L 153.644531 18.90625 C 153.917969 17.832031 154.523438 17.050781 155.34375 17.050781 C 155.382812 17.050781 155.890625 17.050781 156.261719 17.265625 Z M 156.261719 17.265625 "/>
<path style=" stroke:none;fill-rule:nonzero;fill:rgb(0%,0%,0%);fill-opacity:1;" d="M 164.996094 12.421875 L 163.453125 12.421875 L 163.453125 13.964844 L 164.996094 13.964844 Z M 164.898438 16.621094 L 163.570312 16.621094 L 163.570312 24.589844 L 164.898438 24.589844 Z M 164.898438 16.621094 "/>
<path style=" stroke:none;fill-rule:nonzero;fill:rgb(0%,0%,0%);fill-opacity:1;" d="M 172.378906 16.914062 C 171.246094 16.386719 170.269531 16.367188 169.859375 16.367188 C 169.449219 16.367188 166.949219 16.367188 166.949219 18.691406 C 166.949219 19.472656 167.378906 20.019531 167.652344 20.273438 C 168.296875 20.820312 168.746094 20.917969 169.800781 21.132812 C 170.40625 21.25 171.441406 21.464844 171.441406 22.421875 C 171.441406 23.652344 170.035156 23.652344 169.78125 23.652344 C 169.078125 23.652344 168.023438 23.457031 167.066406 22.753906 L 166.851562 23.984375 C 166.929688 24.042969 168.160156 24.765625 169.800781 24.765625 C 172.125 24.765625 172.671875 23.378906 172.671875 22.304688 C 172.671875 21.40625 172.125 20.820312 172.046875 20.742188 C 171.382812 20.058594 170.835938 19.941406 169.761719 19.726562 C 169.097656 19.609375 168.199219 19.433594 168.199219 18.535156 C 168.199219 17.421875 169.449219 17.421875 169.683594 17.421875 C 170.621094 17.421875 171.382812 17.636719 172.164062 18.085938 Z M 172.378906 16.914062 "/>
<path style=" stroke:none;fill-rule:nonzero;fill:rgb(0%,0%,0%);fill-opacity:1;" d="M 184.476562 19.335938 C 184.476562 17.617188 183.246094 16.367188 181.566406 16.367188 C 180.492188 16.367188 179.691406 16.601562 178.8125 17.109375 L 178.910156 18.300781 C 179.710938 17.714844 180.53125 17.402344 181.566406 17.402344 C 182.386719 17.402344 183.109375 18.066406 183.109375 19.375 L 183.109375 20.117188 C 182.308594 20.136719 181.234375 20.195312 180.160156 20.546875 C 178.949219 20.976562 178.246094 21.640625 178.246094 22.519531 C 178.246094 23.320312 178.714844 24.765625 180.238281 24.765625 C 181.234375 24.765625 182.484375 24.472656 183.148438 23.925781 L 183.148438 24.589844 L 184.476562 24.589844 Z M 183.109375 22.1875 C 183.109375 22.539062 183.109375 22.96875 182.523438 23.339844 C 182.035156 23.632812 181.429688 23.691406 181.15625 23.691406 C 180.199219 23.691406 179.535156 23.164062 179.535156 22.519531 C 179.535156 21.289062 182.015625 21.015625 183.109375 21.015625 Z M 183.109375 22.1875 "/>
<path style=" stroke:none;fill-rule:nonzero;fill:rgb(0%,0%,0%);fill-opacity:1;" d="M 193.097656 12.148438 L 191.769531 12.148438 L 191.769531 24.589844 L 193.097656 24.589844 Z M 193.097656 12.148438 "/>
<path style=" stroke:none;fill-rule:nonzero;fill:rgb(0%,0%,0%);fill-opacity:1;" d="M 197.394531 12.421875 L 195.851562 12.421875 L 195.851562 13.964844 L 197.394531 13.964844 Z M 197.296875 16.621094 L 195.96875 16.621094 L 195.96875 24.589844 L 197.296875 24.589844 Z M 197.296875 16.621094 "/>
<path style=" stroke:none;fill-rule:nonzero;fill:rgb(0%,0%,0%);fill-opacity:1;" d="M 206.359375 19.199219 C 206.359375 18.105469 206.125 16.445312 203.957031 16.445312 C 202.960938 16.445312 202.101562 16.894531 201.417969 17.753906 L 201.417969 16.542969 L 200.148438 16.542969 L 200.148438 24.589844 L 201.496094 24.589844 L 201.496094 20.117188 C 201.496094 19.023438 201.925781 17.519531 203.273438 17.519531 C 204.953125 17.519531 204.992188 18.691406 204.992188 19.316406 L 204.992188 24.589844 L 206.359375 24.589844 Z M 206.359375 19.199219 "/>
<path style=" stroke:none;fill-rule:nonzero;fill:rgb(0%,0%,0%);fill-opacity:1;" d="M 215.066406 20.546875 C 215.066406 19.785156 214.988281 18.691406 214.421875 17.734375 C 213.679688 16.503906 212.429688 16.367188 211.902344 16.367188 C 209.96875 16.367188 208.347656 18.222656 208.347656 20.546875 C 208.347656 22.929688 210.066406 24.765625 212.15625 24.765625 C 212.976562 24.765625 213.972656 24.53125 214.949219 23.828125 C 214.949219 23.75 214.890625 23.183594 214.890625 23.164062 C 214.871094 23.144531 214.851562 22.734375 214.851562 22.675781 C 213.777344 23.574219 212.722656 23.691406 212.195312 23.691406 C 210.808594 23.691406 209.617188 22.460938 209.597656 20.546875 Z M 209.695312 19.589844 C 210.007812 18.378906 210.847656 17.441406 211.902344 17.441406 C 212.46875 17.441406 213.699219 17.695312 213.992188 19.589844 Z M 209.695312 19.589844 "/>
<path style=" stroke:none;fill-rule:nonzero;fill:rgb(0%,0%,0%);fill-opacity:1;" d="M 222.574219 19.335938 C 222.574219 17.617188 221.34375 16.367188 219.664062 16.367188 C 218.589844 16.367188 217.789062 16.601562 216.910156 17.109375 L 217.007812 18.300781 C 217.808594 17.714844 218.628906 17.402344 219.664062 17.402344 C 220.484375 17.402344 221.207031 18.066406 221.207031 19.375 L 221.207031 20.117188 C 220.40625 20.136719 219.332031 20.195312 218.257812 20.546875 C 217.046875 20.976562 216.34375 21.640625 216.34375 22.519531 C 216.34375 23.320312 216.8125 24.765625 218.335938 24.765625 C 219.332031 24.765625 220.582031 24.472656 221.246094 23.925781 L 221.246094 24.589844 L 222.574219 24.589844 Z M 221.207031 22.1875 C 221.207031 22.539062 221.207031 22.96875 220.621094 23.339844 C 220.132812 23.632812 219.527344 23.691406 219.253906 23.691406 C 218.296875 23.691406 217.632812 23.164062 217.632812 22.519531 C 217.632812 21.289062 220.113281 21.015625 221.207031 21.015625 Z M 221.207031 22.1875 "/>
<path style=" stroke:none;fill-rule:nonzero;fill:rgb(0%,0%,0%);fill-opacity:1;" d="M 226.246094 20.664062 C 226.246094 18.847656 227.59375 17.675781 229.214844 17.65625 L 229.214844 16.445312 C 227.574219 16.464844 226.636719 17.421875 226.148438 18.125 L 226.148438 16.542969 L 224.917969 16.542969 L 224.917969 24.589844 L 226.246094 24.589844 Z M 226.246094 20.664062 "/>
<path style=" stroke:none;fill-rule:nonzero;fill:rgb(0%,0%,0%);fill-opacity:1;" d="M 190.347656 26.703125 L 229.347656 26.703125 L 229.347656 27.457031 L 190.347656 27.457031 Z M 190.347656 26.703125 "/>
<path style=" stroke:none;fill-rule:nonzero;fill:rgb(0%,0%,0%);fill-opacity:1;" d="M 241.441406 12.148438 L 240.113281 12.148438 L 240.113281 17.382812 C 239.292969 16.699219 238.355469 16.445312 237.59375 16.445312 C 235.894531 16.445312 234.488281 18.28125 234.488281 20.605469 C 234.488281 22.929688 235.816406 24.765625 237.515625 24.765625 C 238.179688 24.765625 239.195312 24.550781 240.09375 23.671875 L 240.09375 24.589844 L 241.441406 24.589844 Z M 240.09375 22.480469 C 239.664062 23.242188 239.019531 23.691406 238.238281 23.691406 C 237.144531 23.691406 235.855469 22.851562 235.855469 20.625 C 235.855469 18.242188 237.378906 17.519531 238.414062 17.519531 C 239.117188 17.519531 239.683594 17.890625 240.09375 18.476562 Z M 240.09375 22.480469 "/>
<path style=" stroke:none;fill-rule:nonzero;fill:rgb(0%,0%,0%);fill-opacity:1;" d="M 245.695312 12.421875 L 244.152344 12.421875 L 244.152344 13.964844 L 245.695312 13.964844 Z M 245.597656 16.621094 L 244.269531 16.621094 L 244.269531 24.589844 L 245.597656 24.589844 Z M 245.597656 16.621094 "/>
<path style=" stroke:none;fill-rule:nonzero;fill:rgb(0%,0%,0%);fill-opacity:1;" d="M 250.167969 17.675781 L 252.101562 17.675781 L 252.101562 16.621094 L 250.128906 16.621094 L 250.128906 14.472656 C 250.128906 13.222656 251.222656 13.046875 251.75 13.046875 C 252.394531 13.046875 252.921875 13.242188 253.15625 13.320312 L 253.15625 12.148438 C 252.941406 12.089844 252.394531 11.972656 251.769531 11.972656 C 250.128906 11.972656 248.839844 13.203125 248.839844 15.019531 L 248.839844 16.621094 L 247.53125 16.621094 L 247.53125 17.675781 L 248.839844 17.675781 L 248.839844 24.589844 L 250.167969 24.589844 Z M 255.03125 17.675781 L 256.964844 17.675781 L 256.964844 16.621094 L 254.992188 16.621094 L 254.992188 14.472656 C 254.992188 13.222656 256.085938 13.046875 256.59375 13.046875 C 257.238281 13.046875 257.785156 13.242188 258.019531 13.320312 L 258.019531 12.148438 C 257.804688 12.089844 257.238281 11.972656 256.613281 11.972656 C 254.992188 11.972656 253.703125 13.203125 253.703125 15.019531 L 253.703125 24.589844 L 255.03125 24.589844 Z M 255.03125 17.675781 "/>
<path style=" stroke:none;fill-rule:nonzero;fill:rgb(0%,0%,0%);fill-opacity:1;" d="M 264.570312 20.546875 C 264.570312 19.785156 264.492188 18.691406 263.925781 17.734375 C 263.183594 16.503906 261.933594 16.367188 261.40625 16.367188 C 259.472656 16.367188 257.851562 18.222656 257.851562 20.546875 C 257.851562 22.929688 259.570312 24.765625 261.660156 24.765625 C 262.480469 24.765625 263.476562 24.53125 264.453125 23.828125 C 264.453125 23.75 264.394531 23.183594 264.394531 23.164062 C 264.375 23.144531 264.355469 22.734375 264.355469 22.675781 C 263.28125 23.574219 262.226562 23.691406 261.699219 23.691406 C 260.3125 23.691406 259.121094 22.460938 259.101562 20.546875 Z M 259.199219 19.589844 C 259.511719 18.378906 260.351562 17.441406 261.40625 17.441406 C 261.972656 17.441406 263.203125 17.695312 263.496094 19.589844 Z M 259.199219 19.589844 "/>
<path style=" stroke:none;fill-rule:nonzero;fill:rgb(0%,0%,0%);fill-opacity:1;" d="M 267.796875 20.664062 C 267.796875 18.847656 269.144531 17.675781 270.765625 17.65625 L 270.765625 16.445312 C 269.125 16.464844 268.1875 17.421875 267.699219 18.125 L 267.699219 16.542969 L 266.46875 16.542969 L 266.46875 24.589844 L 267.796875 24.589844 Z M 267.796875 20.664062 "/>
<path style=" stroke:none;fill-rule:nonzero;fill:rgb(0%,0%,0%);fill-opacity:1;" d="M 278.367188 20.546875 C 278.367188 19.785156 278.289062 18.691406 277.722656 17.734375 C 276.980469 16.503906 275.730469 16.367188 275.203125 16.367188 C 273.269531 16.367188 271.648438 18.222656 271.648438 20.546875 C 271.648438 22.929688 273.367188 24.765625 275.457031 24.765625 C 276.277344 24.765625 277.273438 24.53125 278.25 23.828125 C 278.25 23.75 278.191406 23.183594 278.191406 23.164062 C 278.171875 23.144531 278.152344 22.734375 278.152344 22.675781 C 277.078125 23.574219 276.023438 23.691406 275.496094 23.691406 C 274.109375 23.691406 272.917969 22.460938 272.898438 20.546875 Z M 272.996094 19.589844 C 273.308594 18.378906 274.148438 17.441406 275.203125 17.441406 C 275.769531 17.441406 277 17.695312 277.292969 19.589844 Z M 272.996094 19.589844 "/>
<path style=" stroke:none;fill-rule:nonzero;fill:rgb(0%,0%,0%);fill-opacity:1;" d="M 286.460938 19.199219 C 286.460938 18.105469 286.226562 16.445312 284.058594 16.445312 C 283.0625 16.445312 282.203125 16.894531 281.519531 17.753906 L 281.519531 16.542969 L 280.25 16.542969 L 280.25 24.589844 L 281.597656 24.589844 L 281.597656 20.117188 C 281.597656 19.023438 282.027344 17.519531 283.375 17.519531 C 285.054688 17.519531 285.09375 18.691406 285.09375 19.316406 L 285.09375 24.589844 L 286.460938 24.589844 Z M 286.460938 19.199219 "/>
<path style=" stroke:none;fill-rule:nonzero;fill:rgb(0%,0%,0%);fill-opacity:1;" d="M 290.929688 17.675781 L 293.410156 17.675781 L 293.410156 16.621094 L 290.929688 16.621094 L 290.929688 14.355469 L 289.699219 14.355469 L 289.699219 16.621094 L 288.195312 16.621094 L 288.195312 17.675781 L 289.660156 17.675781 L 289.660156 22.5 C 289.660156 23.535156 289.894531 24.765625 291.125 24.765625 C 292.335938 24.765625 293.15625 24.355469 293.703125 24.0625 L 293.429688 23.027344 C 292.804688 23.59375 292.140625 23.652344 291.828125 23.652344 C 291.027344 23.652344 290.929688 22.8125 290.929688 22.1875 Z M 290.929688 17.675781 "/>
<path style=" stroke:none;fill-rule:nonzero;fill:rgb(0%,0%,0%);fill-opacity:1;" d="M 296.996094 12.421875 L 295.453125 12.421875 L 295.453125 13.964844 L 296.996094 13.964844 Z M 296.898438 16.621094 L 295.570312 16.621094 L 295.570312 24.589844 L 296.898438 24.589844 Z M 296.898438 16.621094 "/>
<path style=" stroke:none;fill-rule:nonzero;fill:rgb(0%,0%,0%);fill-opacity:1;" d="M 305.375 19.335938 C 305.375 17.617188 304.144531 16.367188 302.464844 16.367188 C 301.390625 16.367188 300.589844 16.601562 299.710938 17.109375 L 299.808594 18.300781 C 300.609375 17.714844 301.429688 17.402344 302.464844 17.402344 C 303.285156 17.402344 304.007812 18.066406 304.007812 19.375 L 304.007812 20.117188 C 303.207031 20.136719 302.132812 20.195312 301.058594 20.546875 C 299.847656 20.976562 299.144531 21.640625 299.144531 22.519531 C 299.144531 23.320312 299.613281 24.765625 301.136719 24.765625 C 302.132812 24.765625 303.382812 24.472656 304.046875 23.925781 L 304.046875 24.589844 L 305.375 24.589844 Z M 304.007812 22.1875 C 304.007812 22.539062 304.007812 22.96875 303.421875 23.339844 C 302.933594 23.632812 302.328125 23.691406 302.054688 23.691406 C 301.097656 23.691406 300.433594 23.164062 300.433594 22.519531 C 300.433594 21.289062 302.914062 21.015625 304.007812 21.015625 Z M 304.007812 22.1875 "/>
<path style=" stroke:none;fill-rule:nonzero;fill:rgb(0%,0%,0%);fill-opacity:1;" d="M 309.5 12.148438 L 308.171875 12.148438 L 308.171875 24.589844 L 309.5 24.589844 Z M 309.5 12.148438 "/>
<path style=" stroke:none;fill-rule:nonzero;fill:rgb(0%,0%,0%);fill-opacity:1;" d="M 6.71875 46.199219 C 6.71875 45.4375 6.640625 44.34375 6.074219 43.386719 C 5.332031 42.15625 4.082031 42.019531 3.554688 42.019531 C 1.621094 42.019531 0 43.875 0 46.199219 C 0 48.582031 1.71875 50.417969 3.808594 50.417969 C 4.628906 50.417969 5.625 50.183594 6.601562 49.480469 C 6.601562 49.402344 6.542969 48.835938 6.542969 48.816406 C 6.523438 48.796875 6.503906 48.386719 6.503906 48.328125 C 5.429688 49.226562 4.375 49.34375 3.847656 49.34375 C 2.460938 49.34375 1.269531 48.113281 1.25 46.199219 Z M 1.347656 45.242188 C 1.660156 44.03125 2.5 43.09375 3.554688 43.09375 C 4.121094 43.09375 5.351562 43.347656 5.644531 45.242188 Z M 1.347656 45.242188 "/>
<path style=" stroke:none;fill-rule:nonzero;fill:rgb(0%,0%,0%);fill-opacity:1;" d="M 14.792969 42.097656 L 13.464844 42.097656 L 13.464844 43.25 C 12.996094 42.703125 12.214844 42.097656 11.121094 42.097656 C 9.363281 42.097656 7.839844 43.875 7.839844 46.277344 C 7.839844 48.5625 9.167969 50.417969 10.847656 50.417969 C 12.234375 50.417969 13.191406 49.597656 13.445312 49.324219 L 13.445312 53.71875 L 14.792969 53.71875 Z M 13.464844 47.742188 C 13.464844 48.09375 13.464844 48.113281 13.269531 48.386719 C 12.78125 49.109375 12.136719 49.34375 11.609375 49.34375 C 10.261719 49.34375 9.207031 47.9375 9.207031 46.277344 C 9.207031 44.441406 10.496094 43.210938 11.765625 43.210938 C 12.917969 43.210938 13.464844 44.382812 13.464844 45.105469 Z M 13.464844 47.742188 "/>
<path style=" stroke:none;fill-rule:nonzero;fill:rgb(0%,0%,0%);fill-opacity:1;" d="M 23.8125 42.273438 L 22.445312 42.273438 L 22.445312 47.410156 C 22.445312 48.777344 21.507812 49.441406 20.335938 49.441406 C 19.085938 49.441406 18.949219 48.972656 18.949219 48.171875 L 18.949219 42.273438 L 17.601562 42.273438 L 17.601562 48.25 C 17.601562 49.539062 18.011719 50.417969 19.476562 50.417969 C 19.984375 50.417969 21.390625 50.339844 22.484375 49.34375 L 22.484375 50.242188 L 23.8125 50.242188 Z M 23.8125 42.273438 "/>
<path style=" stroke:none;fill-rule:nonzero;fill:rgb(0%,0%,0%);fill-opacity:1;" d="M 32.226562 44.988281 C 32.226562 43.269531 30.996094 42.019531 29.316406 42.019531 C 28.242188 42.019531 27.441406 42.253906 26.5625 42.761719 L 26.660156 43.953125 C 27.460938 43.367188 28.28125 43.054688 29.316406 43.054688 C 30.136719 43.054688 30.859375 43.71875 30.859375 45.027344 L 30.859375 45.769531 C 30.058594 45.789062 28.984375 45.847656 27.910156 46.199219 C 26.699219 46.628906 25.996094 47.292969 25.996094 48.171875 C 25.996094 48.972656 26.464844 50.417969 27.988281 50.417969 C 28.984375 50.417969 30.234375 50.125 30.898438 49.578125 L 30.898438 50.242188 L 32.226562 50.242188 Z M 30.859375 47.839844 C 30.859375 48.191406 30.859375 48.621094 30.273438 48.992188 C 29.785156 49.285156 29.179688 49.34375 28.90625 49.34375 C 27.949219 49.34375 27.285156 48.816406 27.285156 48.171875 C 27.285156 46.941406 29.765625 46.667969 30.859375 46.667969 Z M 30.859375 47.839844 "/>
<path style=" stroke:none;fill-rule:nonzero;fill:rgb(0%,0%,0%);fill-opacity:1;" d="M 36.679688 43.328125 L 39.160156 43.328125 L 39.160156 42.273438 L 36.679688 42.273438 L 36.679688 40.007812 L 35.449219 40.007812 L 35.449219 42.273438 L 33.945312 42.273438 L 33.945312 43.328125 L 35.410156 43.328125 L 35.410156 48.152344 C 35.410156 49.1875 35.644531 50.417969 36.875 50.417969 C 38.085938 50.417969 38.90625 50.007812 39.453125 49.714844 L 39.179688 48.679688 C 38.554688 49.246094 37.890625 49.304688 37.578125 49.304688 C 36.777344 49.304688 36.679688 48.464844 36.679688 47.839844 Z M 36.679688 43.328125 "/>
<path style=" stroke:none;fill-rule:nonzero;fill:rgb(0%,0%,0%);fill-opacity:1;" d="M 42.746094 38.074219 L 41.203125 38.074219 L 41.203125 39.617188 L 42.746094 39.617188 Z M 42.648438 42.273438 L 41.320312 42.273438 L 41.320312 50.242188 L 42.648438 50.242188 Z M 42.648438 42.273438 "/>
<path style=" stroke:none;fill-rule:nonzero;fill:rgb(0%,0%,0%);fill-opacity:1;" d="M 52.335938 46.296875 C 52.335938 43.875 50.558594 42.019531 48.507812 42.019531 C 46.398438 42.019531 44.660156 43.914062 44.660156 46.296875 C 44.660156 48.640625 46.4375 50.417969 48.488281 50.417969 C 50.597656 50.417969 52.335938 48.601562 52.335938 46.296875 Z M 48.507812 49.304688 C 47.21875 49.304688 46.007812 48.230469 46.007812 46.121094 C 46.007812 43.953125 47.355469 43.09375 48.488281 43.09375 C 49.71875 43.09375 50.988281 44.011719 50.988281 46.121094 C 50.988281 48.328125 49.699219 49.304688 48.507812 49.304688 Z M 48.507812 49.304688 "/>
<path style=" stroke:none;fill-rule:nonzero;fill:rgb(0%,0%,0%);fill-opacity:1;" d="M 60.5625 44.851562 C 60.5625 43.757812 60.328125 42.097656 58.160156 42.097656 C 57.164062 42.097656 56.304688 42.546875 55.621094 43.40625 L 55.621094 42.195312 L 54.351562 42.195312 L 54.351562 50.242188 L 55.699219 50.242188 L 55.699219 45.769531 C 55.699219 44.675781 56.128906 43.171875 57.476562 43.171875 C 59.15625 43.171875 59.195312 44.34375 59.195312 44.96875 L 59.195312 50.242188 L 60.5625 50.242188 Z M 60.5625 44.851562 "/>
</g>
</svg>
