<?xml version="1.0" encoding="UTF-8"?>
<svg xmlns="http://www.w3.org/2000/svg" xmlns:xlink="http://www.w3.org/1999/xlink" width="309.80078pt" height="38.083467pt" viewBox="0 0 309.80078 38.083467" version="1.1">
<g id="surface1">
<path style=" stroke:none;fill-rule:nonzero;fill:rgb(0%,0%,0%);fill-opacity:1;" d="M 6.132812 1.191406 L 7.714844 1.191406 C 7.929688 1.191406 8.144531 1.210938 8.359375 1.210938 L 10.703125 1.210938 L 10.703125 0.078125 L 0 0.078125 L 0 1.210938 L 2.363281 1.210938 C 2.578125 1.210938 2.792969 1.191406 3.007812 1.191406 L 4.589844 1.191406 L 4.589844 12.441406 L 6.132812 12.441406 Z M 6.132812 1.191406 "/>
<path style=" stroke:none;fill-rule:nonzero;fill:rgb(0%,0%,0%);fill-opacity:1;" d="M 18.972656 7.050781 C 18.972656 5.957031 18.738281 4.296875 16.570312 4.296875 C 15.339844 4.296875 14.519531 5 14.089844 5.546875 L 14.089844 0 L 12.761719 0 L 12.761719 12.441406 L 14.109375 12.441406 L 14.109375 7.96875 C 14.109375 6.875 14.539062 5.371094 15.886719 5.371094 C 17.566406 5.371094 17.605469 6.542969 17.605469 7.167969 L 17.605469 12.441406 L 18.972656 12.441406 Z M 18.972656 7.050781 "/>
<path style=" stroke:none;fill-rule:nonzero;fill:rgb(0%,0%,0%);fill-opacity:1;" d="M 27.679688 8.398438 C 27.679688 7.636719 27.601562 6.542969 27.035156 5.585938 C 26.292969 4.355469 25.042969 4.21875 24.515625 4.21875 C 22.582031 4.21875 20.960938 6.074219 20.960938 8.398438 C 20.960938 10.78125 22.679688 12.617188 24.769531 12.617188 C 25.589844 12.617188 26.585938 12.382812 27.5625 11.679688 C 27.5625 11.601562 27.503906 11.035156 27.503906 11.015625 C 27.484375 10.996094 27.464844 10.585938 27.464844 10.527344 C 26.390625 11.425781 25.335938 11.542969 24.808594 11.542969 C 23.421875 11.542969 22.230469 10.3125 22.210938 8.398438 Z M 22.308594 7.441406 C 22.621094 6.230469 23.460938 5.292969 24.515625 5.292969 C 25.082031 5.292969 26.3125 5.546875 26.605469 7.441406 Z M 22.308594 7.441406 "/>
<path style=" stroke:none;fill-rule:nonzero;fill:rgb(0%,0%,0%);fill-opacity:1;" d="M 34.960938 0 L 33.632812 0 L 33.632812 12.441406 L 34.960938 12.441406 Z M 34.960938 0 "/>
<path style=" stroke:none;fill-rule:nonzero;fill:rgb(0%,0%,0%);fill-opacity:1;" d="M 39.257812 0.273438 L 37.714844 0.273438 L 37.714844 1.816406 L 39.257812 1.816406 Z M 39.160156 4.472656 L 37.832031 4.472656 L 37.832031 12.441406 L 39.160156 12.441406 Z M 39.160156 4.472656 "/>
<path style=" stroke:none;fill-rule:nonzero;fill:rgb(0%,0%,0%);fill-opacity:1;" d="M 48.222656 7.050781 C 48.222656 5.957031 47.988281 4.296875 45.820312 4.296875 C 44.824219 4.296875 43.964844 4.746094 43.28125 5.605469 L 43.28125 4.394531 L 42.011719 4.394531 L 42.011719 12.441406 L 43.359375 12.441406 L 43.359375 7.96875 C 43.359375 6.875 43.789062 5.371094 45.136719 5.371094 C 46.816406 5.371094 46.855469 6.542969 46.855469 7.167969 L 46.855469 12.441406 L 48.222656 12.441406 Z M 48.222656 7.050781 "/>
<path style=" stroke:none;fill-rule:nonzero;fill:rgb(0%,0%,0%);fill-opacity:1;" d="M 56.929688 8.398438 C 56.929688 7.636719 56.851562 6.542969 56.285156 5.585938 C 55.542969 4.355469 54.292969 4.21875 53.765625 4.21875 C 51.832031 4.21875 50.210938 6.074219 50.210938 8.398438 C 50.210938 10.78125 51.929688 12.617188 54.019531 12.617188 C 54.839844 12.617188 55.835938 12.382812 56.8125 11.679688 C 56.8125 11.601562 56.753906 11.035156 56.753906 11.015625 C 56.734375 10.996094 56.714844 10.585938 56.714844 10.527344 C 55.640625 11.425781 54.585938 11.542969 54.058594 11.542969 C 52.671875 11.542969 51.480469 10.3125 51.460938 8.398438 Z M 51.558594 7.441406 C 51.871094 6.230469 52.710938 5.292969 53.765625 5.292969 C 54.332031 5.292969 55.5625 5.546875 55.855469 7.441406 Z M 51.558594 7.441406 "/>
<path style=" stroke:none;fill-rule:nonzero;fill:rgb(0%,0%,0%);fill-opacity:1;" d="M 68.335938 7.1875 C 68.335938 5.46875 67.105469 4.21875 65.425781 4.21875 C 64.351562 4.21875 63.550781 4.453125 62.671875 4.960938 L 62.769531 6.152344 C 63.570312 5.566406 64.390625 5.253906 65.425781 5.253906 C 66.246094 5.253906 66.96875 5.917969 66.96875 7.226562 L 66.96875 7.96875 C 66.167969 7.988281 65.09375 8.046875 64.019531 8.398438 C 62.808594 8.828125 62.105469 9.492188 62.105469 10.371094 C 62.105469 11.171875 62.574219 12.617188 64.097656 12.617188 C 65.09375 12.617188 66.34375 12.324219 67.007812 11.777344 L 67.007812 12.441406 L 68.335938 12.441406 Z M 66.96875 10.039062 C 66.96875 10.390625 66.96875 10.820312 66.382812 11.191406 C 65.894531 11.484375 65.289062 11.542969 65.015625 11.542969 C 64.058594 11.542969 63.394531 11.015625 63.394531 10.371094 C 63.394531 9.140625 65.875 8.867188 66.96875 8.867188 Z M 66.96875 10.039062 "/>
<path style=" stroke:none;fill-rule:nonzero;fill:rgb(0%,0%,0%);fill-opacity:1;" d="M 77.324219 7.050781 C 77.324219 5.957031 77.089844 4.296875 74.921875 4.296875 C 73.925781 4.296875 73.066406 4.746094 72.382812 5.605469 L 72.382812 4.394531 L 71.113281 4.394531 L 71.113281 12.441406 L 72.460938 12.441406 L 72.460938 7.96875 C 72.460938 6.875 72.890625 5.371094 74.238281 5.371094 C 75.917969 5.371094 75.957031 6.542969 75.957031 7.167969 L 75.957031 12.441406 L 77.324219 12.441406 Z M 77.324219 7.050781 "/>
<path style=" stroke:none;fill-rule:nonzero;fill:rgb(0%,0%,0%);fill-opacity:1;" d="M 86.304688 0 L 84.976562 0 L 84.976562 5.234375 C 84.15625 4.550781 83.21875 4.296875 82.457031 4.296875 C 80.757812 4.296875 79.351562 6.132812 79.351562 8.457031 C 79.351562 10.78125 80.679688 12.617188 82.378906 12.617188 C 83.042969 12.617188 84.058594 12.402344 84.957031 11.523438 L 84.957031 12.441406 L 86.304688 12.441406 Z M 84.957031 10.332031 C 84.527344 11.09375 83.882812 11.542969 83.101562 11.542969 C 82.007812 11.542969 80.71875 10.703125 80.71875 8.476562 C 80.71875 6.09375 82.242188 5.371094 83.277344 5.371094 C 83.980469 5.371094 84.546875 5.742188 84.957031 6.328125 Z M 84.957031 10.332031 "/>
<path style=" stroke:none;fill-rule:nonzero;fill:rgb(0%,0%,0%);fill-opacity:1;" d="M 94.992188 5.527344 L 97.472656 5.527344 L 97.472656 4.472656 L 94.992188 4.472656 L 94.992188 2.207031 L 93.761719 2.207031 L 93.761719 4.472656 L 92.257812 4.472656 L 92.257812 5.527344 L 93.722656 5.527344 L 93.722656 10.351562 C 93.722656 11.386719 93.957031 12.617188 95.1875 12.617188 C 96.398438 12.617188 97.21875 12.207031 97.765625 11.914062 L 97.492188 10.878906 C 96.867188 11.445312 96.203125 11.503906 95.890625 11.503906 C 95.089844 11.503906 94.992188 10.664062 94.992188 10.039062 Z M 94.992188 5.527344 "/>
<path style=" stroke:none;fill-rule:nonzero;fill:rgb(0%,0%,0%);fill-opacity:1;" d="M 105.824219 7.050781 C 105.824219 5.957031 105.589844 4.296875 103.421875 4.296875 C 102.191406 4.296875 101.371094 5 100.941406 5.546875 L 100.941406 0 L 99.613281 0 L 99.613281 12.441406 L 100.960938 12.441406 L 100.960938 7.96875 C 100.960938 6.875 101.390625 5.371094 102.738281 5.371094 C 104.417969 5.371094 104.457031 6.542969 104.457031 7.167969 L 104.457031 12.441406 L 105.824219 12.441406 Z M 105.824219 7.050781 "/>
<path style=" stroke:none;fill-rule:nonzero;fill:rgb(0%,0%,0%);fill-opacity:1;" d="M 114.53125 8.398438 C 114.53125 7.636719 114.453125 6.542969 113.886719 5.585938 C 113.144531 4.355469 111.894531 4.21875 111.367188 4.21875 C 109.433594 4.21875 107.8125 6.074219 107.8125 8.398438 C 107.8125 10.78125 109.53125 12.617188 111.621094 12.617188 C 112.441406 12.617188 113.4375 12.382812 114.414062 11.679688 C 114.414062 11.601562 114.355469 11.035156 114.355469 11.015625 C 114.335938 10.996094 114.316406 10.585938 114.316406 10.527344 C 113.242188 11.425781 112.1875 11.542969 111.660156 11.542969 C 110.273438 11.542969 109.082031 10.3125 109.0625 8.398438 Z M 109.160156 7.441406 C 109.472656 6.230469 110.3125 5.292969 111.367188 5.292969 C 111.933594 5.292969 113.164062 5.546875 113.457031 7.441406 Z M 109.160156 7.441406 "/>
<path style=" stroke:none;fill-rule:nonzero;fill:rgb(0%,0%,0%);fill-opacity:1;" d="M 126.261719 10.507812 C 125.441406 11.171875 124.523438 11.503906 123.527344 11.503906 C 122.023438 11.503906 121.066406 10.175781 121.066406 8.4375 C 121.066406 6.953125 121.789062 5.332031 123.566406 5.332031 C 124.777344 5.332031 125.285156 5.605469 126.046875 6.132812 L 126.261719 4.960938 C 125.226562 4.355469 124.640625 4.21875 123.566406 4.21875 C 121.105469 4.21875 119.699219 6.40625 119.699219 8.4375 C 119.699219 10.742188 121.359375 12.617188 123.507812 12.617188 C 124.386719 12.617188 125.382812 12.402344 126.378906 11.679688 C 126.378906 11.640625 126.320312 11.074219 126.300781 11.015625 Z M 126.261719 10.507812 "/>
<path style=" stroke:none;fill-rule:nonzero;fill:rgb(0%,0%,0%);fill-opacity:1;" d="M 129.707031 0.273438 L 128.164062 0.273438 L 128.164062 1.816406 L 129.707031 1.816406 Z M 129.609375 4.472656 L 128.28125 4.472656 L 128.28125 12.441406 L 129.609375 12.441406 Z M 129.609375 4.472656 "/>
<path style=" stroke:none;fill-rule:nonzero;fill:rgb(0%,0%,0%);fill-opacity:1;" d="M 133.808594 8.515625 C 133.808594 6.699219 135.15625 5.527344 136.777344 5.507812 L 136.777344 4.296875 C 135.136719 4.316406 134.199219 5.273438 133.710938 5.976562 L 133.710938 4.394531 L 132.480469 4.394531 L 132.480469 12.441406 L 133.808594 12.441406 Z M 133.808594 8.515625 "/>
<path style=" stroke:none;fill-rule:nonzero;fill:rgb(0%,0%,0%);fill-opacity:1;" d="M 144.261719 10.507812 C 143.441406 11.171875 142.523438 11.503906 141.527344 11.503906 C 140.023438 11.503906 139.066406 10.175781 139.066406 8.4375 C 139.066406 6.953125 139.789062 5.332031 141.566406 5.332031 C 142.777344 5.332031 143.285156 5.605469 144.046875 6.132812 L 144.261719 4.960938 C 143.226562 4.355469 142.640625 4.21875 141.566406 4.21875 C 139.105469 4.21875 137.699219 6.40625 137.699219 8.4375 C 137.699219 10.742188 139.359375 12.617188 141.507812 12.617188 C 142.386719 12.617188 143.382812 12.402344 144.378906 11.679688 C 144.378906 11.640625 144.320312 11.074219 144.300781 11.015625 Z M 144.261719 10.507812 "/>
<path style=" stroke:none;fill-rule:nonzero;fill:rgb(0%,0%,0%);fill-opacity:1;" d="M 147.609375 0 L 146.28125 0 L 146.28125 12.441406 L 147.609375 12.441406 Z M 147.609375 0 "/>
<path style=" stroke:none;fill-rule:nonzero;fill:rgb(0%,0%,0%);fill-opacity:1;" d="M 156.378906 8.398438 C 156.378906 7.636719 156.300781 6.542969 155.734375 5.585938 C 154.992188 4.355469 153.742188 4.21875 153.214844 4.21875 C 151.28125 4.21875 149.660156 6.074219 149.660156 8.398438 C 149.660156 10.78125 151.378906 12.617188 153.46875 12.617188 C 154.289062 12.617188 155.285156 12.382812 156.261719 11.679688 C 156.261719 11.601562 156.203125 11.035156 156.203125 11.015625 C 156.183594 10.996094 156.164062 10.585938 156.164062 10.527344 C 155.089844 11.425781 154.035156 11.542969 153.507812 11.542969 C 152.121094 11.542969 150.929688 10.3125 150.910156 8.398438 Z M 151.007812 7.441406 C 151.320312 6.230469 152.160156 5.292969 153.214844 5.292969 C 153.78125 5.292969 155.011719 5.546875 155.304688 7.441406 Z M 151.007812 7.441406 "/>
<path style=" stroke:none;fill-rule:nonzero;fill:rgb(0%,0%,0%);fill-opacity:1;" d="M 172.433594 4.472656 L 171.125 4.472656 L 170.050781 8.125 C 169.796875 8.984375 169.289062 10.664062 169.210938 11.445312 L 169.191406 11.445312 C 169.152344 11.015625 168.859375 9.804688 168.488281 8.535156 L 167.296875 4.472656 L 166.066406 4.472656 L 165.03125 7.988281 C 164.71875 9.101562 164.289062 10.644531 164.230469 11.40625 L 164.210938 11.40625 C 164.191406 11.054688 163.996094 10.117188 163.664062 8.90625 L 162.394531 4.472656 L 161.027344 4.472656 L 163.429688 12.441406 L 164.816406 12.441406 C 165.480469 10.175781 166.535156 6.777344 166.632812 5.527344 L 166.652344 5.527344 C 166.691406 6.25 167.042969 7.539062 167.179688 7.96875 L 168.449219 12.441406 L 170.03125 12.441406 Z M 172.433594 4.472656 "/>
<path style=" stroke:none;fill-rule:nonzero;fill:rgb(0%,0%,0%);fill-opacity:1;" d="M 175.605469 0.273438 L 174.0625 0.273438 L 174.0625 1.816406 L 175.605469 1.816406 Z M 175.507812 4.472656 L 174.179688 4.472656 L 174.179688 12.441406 L 175.507812 12.441406 Z M 175.507812 4.472656 "/>
<path style=" stroke:none;fill-rule:nonzero;fill:rgb(0%,0%,0%);fill-opacity:1;" d="M 179.710938 0 L 178.382812 0 L 178.382812 12.441406 L 179.710938 12.441406 Z M 179.710938 0 "/>
<path style=" stroke:none;fill-rule:nonzero;fill:rgb(0%,0%,0%);fill-opacity:1;" d="M 183.910156 0 L 182.582031 0 L 182.582031 12.441406 L 183.910156 12.441406 Z M 183.910156 0 "/>
<path style=" stroke:none;fill-rule:nonzero;fill:rgb(0%,0%,0%);fill-opacity:1;" d="M 191.957031 0.273438 L 190.414062 0.273438 L 190.414062 1.816406 L 191.957031 1.816406 Z M 191.859375 4.472656 L 190.53125 4.472656 L 190.53125 12.441406 L 191.859375 12.441406 Z M 191.859375 4.472656 "/>
<path style=" stroke:none;fill-rule:nonzero;fill:rgb(0%,0%,0%);fill-opacity:1;" d="M 200.921875 7.050781 C 200.921875 5.957031 200.6875 4.296875 198.519531 4.296875 C 197.523438 4.296875 196.664062 4.746094 195.980469 5.605469 L 195.980469 4.394531 L 194.710938 4.394531 L 194.710938 12.441406 L 196.058594 12.441406 L 196.058594 7.96875 C 196.058594 6.875 196.488281 5.371094 197.835938 5.371094 C 199.515625 5.371094 199.554688 6.542969 199.554688 7.167969 L 199.554688 12.441406 L 200.921875 12.441406 Z M 200.921875 7.050781 "/>
<path style=" stroke:none;fill-rule:nonzero;fill:rgb(0%,0%,0%);fill-opacity:1;" d="M 205.390625 5.527344 L 207.871094 5.527344 L 207.871094 4.472656 L 205.390625 4.472656 L 205.390625 2.207031 L 204.160156 2.207031 L 204.160156 4.472656 L 202.65625 4.472656 L 202.65625 5.527344 L 204.121094 5.527344 L 204.121094 10.351562 C 204.121094 11.386719 204.355469 12.617188 205.585938 12.617188 C 206.796875 12.617188 207.617188 12.207031 208.164062 11.914062 L 207.890625 10.878906 C 207.265625 11.445312 206.601562 11.503906 206.289062 11.503906 C 205.488281 11.503906 205.390625 10.664062 205.390625 10.039062 Z M 205.390625 5.527344 "/>
<path style=" stroke:none;fill-rule:nonzero;fill:rgb(0%,0%,0%);fill-opacity:1;" d="M 215.929688 8.398438 C 215.929688 7.636719 215.851562 6.542969 215.285156 5.585938 C 214.542969 4.355469 213.292969 4.21875 212.765625 4.21875 C 210.832031 4.21875 209.210938 6.074219 209.210938 8.398438 C 209.210938 10.78125 210.929688 12.617188 213.019531 12.617188 C 213.839844 12.617188 214.835938 12.382812 215.8125 11.679688 C 215.8125 11.601562 215.753906 11.035156 215.753906 11.015625 C 215.734375 10.996094 215.714844 10.585938 215.714844 10.527344 C 214.640625 11.425781 213.585938 11.542969 213.058594 11.542969 C 211.671875 11.542969 210.480469 10.3125 210.460938 8.398438 Z M 210.558594 7.441406 C 210.871094 6.230469 211.710938 5.292969 212.765625 5.292969 C 213.332031 5.292969 214.5625 5.546875 214.855469 7.441406 Z M 210.558594 7.441406 "/>
<path style=" stroke:none;fill-rule:nonzero;fill:rgb(0%,0%,0%);fill-opacity:1;" d="M 219.160156 8.515625 C 219.160156 6.699219 220.507812 5.527344 222.128906 5.507812 L 222.128906 4.296875 C 220.488281 4.316406 219.550781 5.273438 219.0625 5.976562 L 219.0625 4.394531 L 217.832031 4.394531 L 217.832031 12.441406 L 219.160156 12.441406 Z M 219.160156 8.515625 "/>
<path style=" stroke:none;fill-rule:nonzero;fill:rgb(0%,0%,0%);fill-opacity:1;" d="M 228.441406 4.765625 C 227.308594 4.238281 226.332031 4.21875 225.921875 4.21875 C 225.511719 4.21875 223.011719 4.21875 223.011719 6.542969 C 223.011719 7.324219 223.441406 7.871094 223.714844 8.125 C 224.359375 8.671875 224.808594 8.769531 225.863281 8.984375 C 226.46875 9.101562 227.503906 9.316406 227.503906 10.273438 C 227.503906 11.503906 226.097656 11.503906 225.84375 11.503906 C 225.140625 11.503906 224.085938 11.308594 223.128906 10.605469 L 222.914062 11.835938 C 222.992188 11.894531 224.222656 12.617188 225.863281 12.617188 C 228.1875 12.617188 228.734375 11.230469 228.734375 10.15625 C 228.734375 9.257812 228.1875 8.671875 228.109375 8.59375 C 227.445312 7.910156 226.898438 7.792969 225.824219 7.578125 C 225.160156 7.460938 224.261719 7.285156 224.261719 6.386719 C 224.261719 5.273438 225.511719 5.273438 225.746094 5.273438 C 226.683594 5.273438 227.445312 5.488281 228.226562 5.9375 Z M 228.441406 4.765625 "/>
<path style=" stroke:none;fill-rule:nonzero;fill:rgb(0%,0%,0%);fill-opacity:1;" d="M 236.480469 8.398438 C 236.480469 7.636719 236.402344 6.542969 235.835938 5.585938 C 235.09375 4.355469 233.84375 4.21875 233.316406 4.21875 C 231.382812 4.21875 229.761719 6.074219 229.761719 8.398438 C 229.761719 10.78125 231.480469 12.617188 233.570312 12.617188 C 234.390625 12.617188 235.386719 12.382812 236.363281 11.679688 C 236.363281 11.601562 236.304688 11.035156 236.304688 11.015625 C 236.285156 10.996094 236.265625 10.585938 236.265625 10.527344 C 235.191406 11.425781 234.136719 11.542969 233.609375 11.542969 C 232.222656 11.542969 231.03125 10.3125 231.011719 8.398438 Z M 231.109375 7.441406 C 231.421875 6.230469 232.261719 5.292969 233.316406 5.292969 C 233.882812 5.292969 235.113281 5.546875 235.40625 7.441406 Z M 231.109375 7.441406 "/>
<path style=" stroke:none;fill-rule:nonzero;fill:rgb(0%,0%,0%);fill-opacity:1;" d="M 244.164062 10.507812 C 243.34375 11.171875 242.425781 11.503906 241.429688 11.503906 C 239.925781 11.503906 238.96875 10.175781 238.96875 8.4375 C 238.96875 6.953125 239.691406 5.332031 241.46875 5.332031 C 242.679688 5.332031 243.1875 5.605469 243.949219 6.132812 L 244.164062 4.960938 C 243.128906 4.355469 242.542969 4.21875 241.46875 4.21875 C 239.007812 4.21875 237.601562 6.40625 237.601562 8.4375 C 237.601562 10.742188 239.261719 12.617188 241.410156 12.617188 C 242.289062 12.617188 243.285156 12.402344 244.28125 11.679688 C 244.28125 11.640625 244.222656 11.074219 244.203125 11.015625 Z M 244.164062 10.507812 "/>
<path style=" stroke:none;fill-rule:nonzero;fill:rgb(0%,0%,0%);fill-opacity:1;" d="M 247.839844 5.527344 L 250.320312 5.527344 L 250.320312 4.472656 L 247.839844 4.472656 L 247.839844 2.207031 L 246.609375 2.207031 L 246.609375 4.472656 L 245.105469 4.472656 L 245.105469 5.527344 L 246.570312 5.527344 L 246.570312 10.351562 C 246.570312 11.386719 246.804688 12.617188 248.035156 12.617188 C 249.246094 12.617188 250.066406 12.207031 250.613281 11.914062 L 250.339844 10.878906 C 249.714844 11.445312 249.050781 11.503906 248.738281 11.503906 C 247.9375 11.503906 247.839844 10.664062 247.839844 10.039062 Z M 247.839844 5.527344 "/>
<path style=" stroke:none;fill-rule:nonzero;fill:rgb(0%,0%,0%);fill-opacity:1;" d="M 262.136719 7.1875 C 262.136719 5.46875 260.90625 4.21875 259.226562 4.21875 C 258.152344 4.21875 257.351562 4.453125 256.472656 4.960938 L 256.570312 6.152344 C 257.371094 5.566406 258.191406 5.253906 259.226562 5.253906 C 260.046875 5.253906 260.769531 5.917969 260.769531 7.226562 L 260.769531 7.96875 C 259.96875 7.988281 258.894531 8.046875 257.820312 8.398438 C 256.609375 8.828125 255.90625 9.492188 255.90625 10.371094 C 255.90625 11.171875 256.375 12.617188 257.898438 12.617188 C 258.894531 12.617188 260.144531 12.324219 260.808594 11.777344 L 260.808594 12.441406 L 262.136719 12.441406 Z M 260.769531 10.039062 C 260.769531 10.390625 260.769531 10.820312 260.183594 11.191406 C 259.695312 11.484375 259.089844 11.542969 258.816406 11.542969 C 257.859375 11.542969 257.195312 11.015625 257.195312 10.371094 C 257.195312 9.140625 259.675781 8.867188 260.769531 8.867188 Z M 260.769531 10.039062 "/>
<path style=" stroke:none;fill-rule:nonzero;fill:rgb(0%,0%,0%);fill-opacity:1;" d="M 266.589844 5.527344 L 269.070312 5.527344 L 269.070312 4.472656 L 266.589844 4.472656 L 266.589844 2.207031 L 265.359375 2.207031 L 265.359375 4.472656 L 263.855469 4.472656 L 263.855469 5.527344 L 265.320312 5.527344 L 265.320312 10.351562 C 265.320312 11.386719 265.554688 12.617188 266.785156 12.617188 C 267.996094 12.617188 268.816406 12.207031 269.363281 11.914062 L 269.089844 10.878906 C 268.464844 11.445312 267.800781 11.503906 267.488281 11.503906 C 266.6875 11.503906 266.589844 10.664062 266.589844 10.039062 Z M 266.589844 5.527344 "/>
<path style=" stroke:none;fill-rule:nonzero;fill:rgb(0%,0%,0%);fill-opacity:1;" d="M 279.1875 6.738281 L 282.195312 6.738281 C 284.675781 6.738281 287.136719 4.902344 287.136719 2.871094 C 287.136719 1.464844 285.964844 0.195312 283.699219 0.195312 L 278.152344 0.195312 C 277.820312 0.195312 277.664062 0.195312 277.664062 0.527344 C 277.664062 0.722656 277.820312 0.722656 278.09375 0.722656 C 279.1875 0.722656 279.1875 0.859375 279.1875 1.054688 C 279.1875 1.09375 279.1875 1.191406 279.109375 1.464844 L 276.6875 11.113281 C 276.53125 11.738281 276.492188 11.914062 275.242188 11.914062 C 274.890625 11.914062 274.714844 11.914062 274.714844 12.246094 C 274.714844 12.441406 274.871094 12.441406 274.988281 12.441406 C 275.320312 12.441406 275.691406 12.402344 276.023438 12.402344 L 278.132812 12.402344 C 278.464844 12.402344 278.835938 12.441406 279.1875 12.441406 C 279.324219 12.441406 279.519531 12.441406 279.519531 12.109375 C 279.519531 11.914062 279.363281 11.914062 279.089844 11.914062 C 278.015625 11.914062 277.996094 11.796875 277.996094 11.621094 C 277.996094 11.523438 278.015625 11.40625 278.035156 11.308594 Z M 280.476562 1.40625 C 280.632812 0.742188 280.710938 0.722656 281.414062 0.722656 L 283.171875 0.722656 C 284.519531 0.722656 285.632812 1.152344 285.632812 2.5 C 285.632812 2.949219 285.398438 4.472656 284.578125 5.3125 C 284.265625 5.625 283.40625 6.308594 281.785156 6.308594 L 279.246094 6.308594 Z M 280.476562 1.40625 "/>
<path style=" stroke:none;fill-rule:nonzero;fill:rgb(0%,0%,0%);fill-opacity:1;" d="M 288.796875 7.171875 C 288.796875 6.859375 288.796875 6.839844 288.503906 6.839844 C 287.722656 7.640625 286.628906 7.640625 286.238281 7.640625 L 286.238281 8.03125 C 286.492188 8.03125 287.214844 8.03125 287.859375 7.699219 L 287.859375 14.164062 C 287.859375 14.613281 287.820312 14.75 286.707031 14.75 L 286.316406 14.75 L 286.316406 15.140625 C 286.746094 15.101562 287.820312 15.101562 288.328125 15.101562 C 288.816406 15.101562 289.910156 15.101562 290.339844 15.140625 L 290.339844 14.75 L 289.949219 14.75 C 288.816406 14.75 288.796875 14.613281 288.796875 14.164062 Z M 288.796875 7.171875 "/>
<path style=" stroke:none;fill-rule:nonzero;fill:rgb(0%,0%,0%);fill-opacity:1;" d="M 309.234375 6.640625 C 309.488281 6.640625 309.800781 6.640625 309.800781 6.308594 C 309.800781 5.976562 309.488281 5.976562 309.234375 5.976562 L 298.667969 5.976562 C 298.414062 5.976562 298.101562 5.976562 298.101562 6.289062 C 298.101562 6.640625 298.394531 6.640625 298.667969 6.640625 Z M 309.234375 9.960938 C 309.488281 9.960938 309.800781 9.960938 309.800781 9.648438 C 309.800781 9.296875 309.488281 9.296875 309.234375 9.296875 L 298.667969 9.296875 C 298.414062 9.296875 298.101562 9.296875 298.101562 9.628906 C 298.101562 9.960938 298.394531 9.960938 298.667969 9.960938 Z M 309.234375 9.960938 "/>
<path style=" stroke:none;fill-rule:nonzero;fill:rgb(0%,0%,0%);fill-opacity:1;" d="M 5.195312 37.945312 C 5.195312 37.886719 5.195312 37.847656 4.902344 37.554688 C 3.105469 35.738281 2.109375 32.789062 2.109375 29.117188 C 2.109375 25.640625 2.949219 22.652344 5.019531 20.542969 C 5.195312 20.367188 5.195312 20.347656 5.195312 20.289062 C 5.195312 20.171875 5.117188 20.152344 5.039062 20.152344 C 4.804688 20.152344 3.339844 21.441406 2.460938 23.199219 C 1.542969 24.996094 1.132812 26.929688 1.132812 29.117188 C 1.132812 30.71875 1.386719 32.847656 2.324219 34.78125 C 3.378906 36.929688 4.84375 38.082031 5.039062 38.082031 C 5.117188 38.082031 5.195312 38.0625 5.195312 37.945312 Z M 5.195312 37.945312 "/>
<path style=" stroke:none;fill-rule:nonzero;fill:rgb(0%,0%,0%);fill-opacity:1;" d="M 12.738281 21.910156 C 12.738281 21.578125 12.738281 21.480469 12.503906 21.480469 C 12.347656 21.480469 12.289062 21.480469 12.152344 21.695312 L 6.761719 30.074219 L 6.761719 30.601562 L 11.46875 30.601562 L 11.46875 32.222656 C 11.46875 32.886719 11.429688 33.0625 10.121094 33.0625 L 9.769531 33.0625 L 9.769531 33.589844 C 10.179688 33.550781 11.605469 33.550781 12.09375 33.550781 C 12.601562 33.550781 14.027344 33.550781 14.457031 33.589844 L 14.457031 33.0625 L 14.085938 33.0625 C 12.796875 33.0625 12.738281 32.886719 12.738281 32.222656 L 12.738281 30.601562 L 14.554688 30.601562 L 14.554688 30.074219 L 12.738281 30.074219 Z M 11.566406 23.316406 L 11.566406 30.074219 L 7.210938 30.074219 Z M 11.566406 23.316406 "/>
<path style=" stroke:none;fill-rule:nonzero;fill:rgb(0%,0%,0%);fill-opacity:1;" d="M 18.621094 33.667969 C 18.621094 32.613281 18.289062 31.851562 17.546875 31.851562 C 16.980469 31.851562 16.6875 32.320312 16.6875 32.710938 C 16.6875 33.101562 16.960938 33.589844 17.566406 33.589844 C 17.800781 33.589844 17.996094 33.511719 18.152344 33.355469 C 18.191406 33.316406 18.210938 33.316406 18.230469 33.316406 C 18.269531 33.316406 18.269531 33.570312 18.269531 33.667969 C 18.269531 34.253906 18.152344 35.425781 17.117188 36.578125 C 16.921875 36.792969 16.921875 36.832031 16.921875 36.871094 C 16.921875 36.96875 17 37.046875 17.097656 37.046875 C 17.234375 37.046875 18.621094 35.71875 18.621094 33.667969 Z M 18.621094 33.667969 "/>
<path style=" stroke:none;fill-rule:nonzero;fill:rgb(0%,0%,0%);fill-opacity:1;" d="M 29.539062 21.910156 C 29.539062 21.578125 29.539062 21.480469 29.304688 21.480469 C 29.148438 21.480469 29.089844 21.480469 28.953125 21.695312 L 23.5625 30.074219 L 23.5625 30.601562 L 28.269531 30.601562 L 28.269531 32.222656 C 28.269531 32.886719 28.230469 33.0625 26.921875 33.0625 L 26.570312 33.0625 L 26.570312 33.589844 C 26.980469 33.550781 28.40625 33.550781 28.894531 33.550781 C 29.402344 33.550781 30.828125 33.550781 31.257812 33.589844 L 31.257812 33.0625 L 30.886719 33.0625 C 29.597656 33.0625 29.539062 32.886719 29.539062 32.222656 L 29.539062 30.601562 L 31.355469 30.601562 L 31.355469 30.074219 L 29.539062 30.074219 Z M 28.367188 23.316406 L 28.367188 30.074219 L 24.011719 30.074219 Z M 28.367188 23.316406 "/>
<path style=" stroke:none;fill-rule:nonzero;fill:rgb(0%,0%,0%);fill-opacity:1;" d="M 36.984375 29.117188 C 36.984375 27.769531 36.808594 25.542969 35.792969 23.453125 C 34.738281 21.304688 33.273438 20.152344 33.078125 20.152344 C 33 20.152344 32.902344 20.171875 32.902344 20.289062 C 32.902344 20.347656 32.902344 20.367188 33.214844 20.679688 C 35.011719 22.496094 36.007812 25.445312 36.007812 29.117188 C 36.007812 32.59375 35.167969 35.582031 33.097656 37.691406 C 32.902344 37.847656 32.902344 37.886719 32.902344 37.945312 C 32.902344 38.0625 33 38.082031 33.078125 38.082031 C 33.3125 38.082031 34.777344 36.792969 35.65625 35.035156 C 36.574219 33.21875 36.984375 31.285156 36.984375 29.117188 Z M 36.984375 29.117188 "/>
<path style=" stroke:none;fill-rule:nonzero;fill:rgb(0%,0%,0%);fill-opacity:1;" d="M 47.207031 21.421875 L 45.664062 21.421875 L 45.664062 22.964844 L 47.207031 22.964844 Z M 47.109375 25.621094 L 45.78125 25.621094 L 45.78125 33.589844 L 47.109375 33.589844 Z M 47.109375 25.621094 "/>
<path style=" stroke:none;fill-rule:nonzero;fill:rgb(0%,0%,0%);fill-opacity:1;" d="M 56.171875 28.199219 C 56.171875 27.105469 55.9375 25.445312 53.769531 25.445312 C 52.773438 25.445312 51.914062 25.894531 51.230469 26.753906 L 51.230469 25.542969 L 49.960938 25.542969 L 49.960938 33.589844 L 51.308594 33.589844 L 51.308594 29.117188 C 51.308594 28.023438 51.738281 26.519531 53.085938 26.519531 C 54.765625 26.519531 54.804688 27.691406 54.804688 28.316406 L 54.804688 33.589844 L 56.171875 33.589844 Z M 56.171875 28.199219 "/>
<path style=" stroke:none;fill-rule:nonzero;fill:rgb(0%,0%,0%);fill-opacity:1;" d="M 66.339844 26.675781 L 68.820312 26.675781 L 68.820312 25.621094 L 66.339844 25.621094 L 66.339844 23.355469 L 65.109375 23.355469 L 65.109375 25.621094 L 63.605469 25.621094 L 63.605469 26.675781 L 65.070312 26.675781 L 65.070312 31.5 C 65.070312 32.535156 65.304688 33.765625 66.535156 33.765625 C 67.746094 33.765625 68.566406 33.355469 69.113281 33.0625 L 68.839844 32.027344 C 68.214844 32.59375 67.550781 32.652344 67.238281 32.652344 C 66.4375 32.652344 66.339844 31.8125 66.339844 31.1875 Z M 66.339844 26.675781 "/>
<path style=" stroke:none;fill-rule:nonzero;fill:rgb(0%,0%,0%);fill-opacity:1;" d="M 77.171875 28.199219 C 77.171875 27.105469 76.9375 25.445312 74.769531 25.445312 C 73.539062 25.445312 72.71875 26.148438 72.289062 26.695312 L 72.289062 21.148438 L 70.960938 21.148438 L 70.960938 33.589844 L 72.308594 33.589844 L 72.308594 29.117188 C 72.308594 28.023438 72.738281 26.519531 74.085938 26.519531 C 75.765625 26.519531 75.804688 27.691406 75.804688 28.316406 L 75.804688 33.589844 L 77.171875 33.589844 Z M 77.171875 28.199219 "/>
<path style=" stroke:none;fill-rule:nonzero;fill:rgb(0%,0%,0%);fill-opacity:1;" d="M 85.878906 29.546875 C 85.878906 28.785156 85.800781 27.691406 85.234375 26.734375 C 84.492188 25.503906 83.242188 25.367188 82.714844 25.367188 C 80.78125 25.367188 79.160156 27.222656 79.160156 29.546875 C 79.160156 31.929688 80.878906 33.765625 82.96875 33.765625 C 83.789062 33.765625 84.785156 33.53125 85.761719 32.828125 C 85.761719 32.75 85.703125 32.183594 85.703125 32.164062 C 85.683594 32.144531 85.664062 31.734375 85.664062 31.675781 C 84.589844 32.574219 83.535156 32.691406 83.007812 32.691406 C 81.621094 32.691406 80.429688 31.460938 80.410156 29.546875 Z M 80.507812 28.589844 C 80.820312 27.378906 81.660156 26.441406 82.714844 26.441406 C 83.28125 26.441406 84.511719 26.695312 84.804688 28.589844 Z M 80.507812 28.589844 "/>
<path style=" stroke:none;fill-rule:nonzero;fill:rgb(0%,0%,0%);fill-opacity:1;" d="M 100.382812 21.128906 L 98.9375 21.128906 L 98.9375 22.574219 L 100.382812 22.574219 Z M 100.34375 25.621094 L 99.015625 25.621094 L 99.015625 33.589844 L 100.34375 33.589844 Z M 95.480469 26.675781 L 97.53125 26.675781 L 97.53125 25.621094 L 95.441406 25.621094 L 95.441406 23.433594 C 95.441406 22.359375 96.007812 22.046875 96.496094 22.046875 C 96.886719 22.046875 97.296875 22.183594 97.53125 22.359375 L 97.53125 21.148438 C 97.179688 21.011719 97.0625 20.972656 96.496094 20.972656 C 95.167969 20.972656 94.152344 22.242188 94.152344 23.980469 L 94.152344 25.621094 L 92.84375 25.621094 L 92.84375 26.675781 L 94.152344 26.675781 L 94.152344 33.589844 L 95.480469 33.589844 Z M 95.480469 26.675781 "/>
<path style=" stroke:none;fill-rule:nonzero;fill:rgb(0%,0%,0%);fill-opacity:1;" d="M 104.558594 29.664062 C 104.558594 27.847656 105.90625 26.675781 107.527344 26.65625 L 107.527344 25.445312 C 105.886719 25.464844 104.949219 26.421875 104.460938 27.125 L 104.460938 25.542969 L 103.230469 25.542969 L 103.230469 33.589844 L 104.558594 33.589844 Z M 104.558594 29.664062 "/>
<path style=" stroke:none;fill-rule:nonzero;fill:rgb(0%,0%,0%);fill-opacity:1;" d="M 113.839844 25.914062 C 112.707031 25.386719 111.730469 25.367188 111.320312 25.367188 C 110.910156 25.367188 108.410156 25.367188 108.410156 27.691406 C 108.410156 28.472656 108.839844 29.019531 109.113281 29.273438 C 109.757812 29.820312 110.207031 29.917969 111.261719 30.132812 C 111.867188 30.25 112.902344 30.464844 112.902344 31.421875 C 112.902344 32.652344 111.496094 32.652344 111.242188 32.652344 C 110.539062 32.652344 109.484375 32.457031 108.527344 31.753906 L 108.3125 32.984375 C 108.390625 33.042969 109.621094 33.765625 111.261719 33.765625 C 113.585938 33.765625 114.132812 32.378906 114.132812 31.304688 C 114.132812 30.40625 113.585938 29.820312 113.507812 29.742188 C 112.84375 29.058594 112.296875 28.941406 111.222656 28.726562 C 110.558594 28.609375 109.660156 28.433594 109.660156 27.535156 C 109.660156 26.421875 110.910156 26.421875 111.144531 26.421875 C 112.082031 26.421875 112.84375 26.636719 113.625 27.085938 Z M 113.839844 25.914062 "/>
<path style=" stroke:none;fill-rule:nonzero;fill:rgb(0%,0%,0%);fill-opacity:1;" d="M 117.640625 26.675781 L 120.121094 26.675781 L 120.121094 25.621094 L 117.640625 25.621094 L 117.640625 23.355469 L 116.410156 23.355469 L 116.410156 25.621094 L 114.90625 25.621094 L 114.90625 26.675781 L 116.371094 26.675781 L 116.371094 31.5 C 116.371094 32.535156 116.605469 33.765625 117.835938 33.765625 C 119.046875 33.765625 119.867188 33.355469 120.414062 33.0625 L 120.140625 32.027344 C 119.515625 32.59375 118.851562 32.652344 118.539062 32.652344 C 117.738281 32.652344 117.640625 31.8125 117.640625 31.1875 Z M 117.640625 26.675781 "/>
<path style=" stroke:none;fill-rule:nonzero;fill:rgb(0%,0%,0%);fill-opacity:1;" d="M 134.152344 25.445312 L 132.824219 25.445312 L 132.824219 26.597656 C 132.355469 26.050781 131.574219 25.445312 130.480469 25.445312 C 128.722656 25.445312 127.199219 27.222656 127.199219 29.625 C 127.199219 31.910156 128.527344 33.765625 130.207031 33.765625 C 131.59375 33.765625 132.550781 32.945312 132.804688 32.671875 L 132.804688 37.066406 L 134.152344 37.066406 Z M 132.824219 31.089844 C 132.824219 31.441406 132.824219 31.460938 132.628906 31.734375 C 132.140625 32.457031 131.496094 32.691406 130.96875 32.691406 C 129.621094 32.691406 128.566406 31.285156 128.566406 29.625 C 128.566406 27.789062 129.855469 26.558594 131.125 26.558594 C 132.277344 26.558594 132.824219 27.730469 132.824219 28.453125 Z M 132.824219 31.089844 "/>
<path style=" stroke:none;fill-rule:nonzero;fill:rgb(0%,0%,0%);fill-opacity:1;" d="M 143.171875 25.621094 L 141.804688 25.621094 L 141.804688 30.757812 C 141.804688 32.125 140.867188 32.789062 139.695312 32.789062 C 138.445312 32.789062 138.308594 32.320312 138.308594 31.519531 L 138.308594 25.621094 L 136.960938 25.621094 L 136.960938 31.597656 C 136.960938 32.886719 137.371094 33.765625 138.835938 33.765625 C 139.34375 33.765625 140.75 33.6875 141.84375 32.691406 L 141.84375 33.589844 L 143.171875 33.589844 Z M 143.171875 25.621094 "/>
<path style=" stroke:none;fill-rule:nonzero;fill:rgb(0%,0%,0%);fill-opacity:1;" d="M 151.585938 28.335938 C 151.585938 26.617188 150.355469 25.367188 148.675781 25.367188 C 147.601562 25.367188 146.800781 25.601562 145.921875 26.109375 L 146.019531 27.300781 C 146.820312 26.714844 147.640625 26.402344 148.675781 26.402344 C 149.496094 26.402344 150.21875 27.066406 150.21875 28.375 L 150.21875 29.117188 C 149.417969 29.136719 148.34375 29.195312 147.269531 29.546875 C 146.058594 29.976562 145.355469 30.640625 145.355469 31.519531 C 145.355469 32.320312 145.824219 33.765625 147.347656 33.765625 C 148.34375 33.765625 149.59375 33.472656 150.257812 32.925781 L 150.257812 33.589844 L 151.585938 33.589844 Z M 150.21875 31.1875 C 150.21875 31.539062 150.21875 31.96875 149.632812 32.339844 C 149.144531 32.632812 148.539062 32.691406 148.265625 32.691406 C 147.308594 32.691406 146.644531 32.164062 146.644531 31.519531 C 146.644531 30.289062 149.125 30.015625 150.21875 30.015625 Z M 150.21875 31.1875 "/>
<path style=" stroke:none;fill-rule:nonzero;fill:rgb(0%,0%,0%);fill-opacity:1;" d="M 160.554688 21.148438 L 159.226562 21.148438 L 159.226562 26.382812 C 158.40625 25.699219 157.46875 25.445312 156.707031 25.445312 C 155.007812 25.445312 153.601562 27.28125 153.601562 29.605469 C 153.601562 31.929688 154.929688 33.765625 156.628906 33.765625 C 157.292969 33.765625 158.308594 33.550781 159.207031 32.671875 L 159.207031 33.589844 L 160.554688 33.589844 Z M 159.207031 31.480469 C 158.777344 32.242188 158.132812 32.691406 157.351562 32.691406 C 156.257812 32.691406 154.96875 31.851562 154.96875 29.625 C 154.96875 27.242188 156.492188 26.519531 157.527344 26.519531 C 158.230469 26.519531 158.796875 26.890625 159.207031 27.476562 Z M 159.207031 31.480469 "/>
<path style=" stroke:none;fill-rule:nonzero;fill:rgb(0%,0%,0%);fill-opacity:1;" d="M 164.710938 29.664062 C 164.710938 27.847656 166.058594 26.675781 167.679688 26.65625 L 167.679688 25.445312 C 166.039062 25.464844 165.101562 26.421875 164.613281 27.125 L 164.613281 25.542969 L 163.382812 25.542969 L 163.382812 33.589844 L 164.710938 33.589844 Z M 164.710938 29.664062 "/>
<path style=" stroke:none;fill-rule:nonzero;fill:rgb(0%,0%,0%);fill-opacity:1;" d="M 174.988281 28.335938 C 174.988281 26.617188 173.757812 25.367188 172.078125 25.367188 C 171.003906 25.367188 170.203125 25.601562 169.324219 26.109375 L 169.421875 27.300781 C 170.222656 26.714844 171.042969 26.402344 172.078125 26.402344 C 172.898438 26.402344 173.621094 27.066406 173.621094 28.375 L 173.621094 29.117188 C 172.820312 29.136719 171.746094 29.195312 170.671875 29.546875 C 169.460938 29.976562 168.757812 30.640625 168.757812 31.519531 C 168.757812 32.320312 169.226562 33.765625 170.75 33.765625 C 171.746094 33.765625 172.996094 33.472656 173.660156 32.925781 L 173.660156 33.589844 L 174.988281 33.589844 Z M 173.621094 31.1875 C 173.621094 31.539062 173.621094 31.96875 173.035156 32.339844 C 172.546875 32.632812 171.941406 32.691406 171.667969 32.691406 C 170.710938 32.691406 170.046875 32.164062 170.046875 31.519531 C 170.046875 30.289062 172.527344 30.015625 173.621094 30.015625 Z M 173.621094 31.1875 "/>
<path style=" stroke:none;fill-rule:nonzero;fill:rgb(0%,0%,0%);fill-opacity:1;" d="M 183.972656 28.199219 C 183.972656 27.105469 183.738281 25.445312 181.570312 25.445312 C 180.574219 25.445312 179.714844 25.894531 179.03125 26.753906 L 179.03125 25.542969 L 177.761719 25.542969 L 177.761719 33.589844 L 179.109375 33.589844 L 179.109375 29.117188 C 179.109375 28.023438 179.539062 26.519531 180.886719 26.519531 C 182.566406 26.519531 182.605469 27.691406 182.605469 28.316406 L 182.605469 33.589844 L 183.972656 33.589844 Z M 183.972656 28.199219 "/>
<path style=" stroke:none;fill-rule:nonzero;fill:rgb(0%,0%,0%);fill-opacity:1;" d="M 188.441406 26.675781 L 190.921875 26.675781 L 190.921875 25.621094 L 188.441406 25.621094 L 188.441406 23.355469 L 187.210938 23.355469 L 187.210938 25.621094 L 185.707031 25.621094 L 185.707031 26.675781 L 187.171875 26.675781 L 187.171875 31.5 C 187.171875 32.535156 187.40625 33.765625 188.636719 33.765625 C 189.847656 33.765625 190.667969 33.355469 191.214844 33.0625 L 190.941406 32.027344 C 190.316406 32.59375 189.652344 32.652344 189.339844 32.652344 C 188.539062 32.652344 188.441406 31.8125 188.441406 31.1875 Z M 188.441406 26.675781 "/>
</g>
</svg>
