<?xml version="1.0" encoding="UTF-8" standalone="no"?>
<!-- Created with Inkscape (http://www.inkscape.org/) -->

<svg
   xmlns:dc="http://purl.org/dc/elements/1.1/"
   xmlns:cc="http://creativecommons.org/ns#"
   xmlns:rdf="http://www.w3.org/1999/02/22-rdf-syntax-ns#"
   xmlns:svg="http://www.w3.org/2000/svg"
   xmlns="http://www.w3.org/2000/svg"
   xmlns:sodipodi="http://sodipodi.sourceforge.net/DTD/sodipodi-0.dtd"
   xmlns:inkscape="http://www.inkscape.org/namespaces/inkscape"
   width="544.93451"
   height="527.86353"
   id="svg2"
   version="1.1"
   inkscape:version="0.48.3.1 r9886"
   sodipodi:docname="wrong.svg">
  <sodipodi:namedview
     id="base"
     pagecolor="#ffffff"
     bordercolor="#666666"
     borderopacity="1.0"
     inkscape:pageopacity="0.0"
     inkscape:pageshadow="2"
     inkscape:zoom="0.50647962"
     inkscape:cx="118.68351"
     inkscape:cy="165.10347"
     inkscape:document-units="px"
     inkscape:current-layer="svg2"
     showgrid="false"
     inkscape:window-width="1301"
     inkscape:window-height="744"
     inkscape:window-x="65"
     inkscape:window-y="24"
     inkscape:window-maximized="1"
     inkscape:showpageshadow="false"
     showborder="false"
     fit-margin-top="0"
     fit-margin-left="0"
     fit-margin-right="0"
     fit-margin-bottom="0" />
  <defs
     id="defs4" />
  <metadata
     id="metadata7">
    <rdf:RDF>
      <cc:Work
         rdf:about="">
        <dc:format>image/svg+xml</dc:format>
        <dc:type
           rdf:resource="http://purl.org/dc/dcmitype/StillImage" />
        <dc:title></dc:title>
      </cc:Work>
    </rdf:RDF>
  </metadata>
  <g
     inkscape:label="Layer 1"
     inkscape:groupmode="layer"
     id="layer1"
     transform="translate(-126.68186,-28.053773)" />
  <path
     id="path3074"
     title="x"
     d="m 1.5364168,517.00281 c 5.71181,-5.71181 11.4236102,-11.42361 17.1354202,-17.13542 5.71181,-5.71181 11.42361,-11.42361 17.13542,-17.13542 5.71181,-5.71181 11.42361,-11.42361 17.13542,-17.13542 5.71181,-5.7118 11.42361,-11.42361 17.13542,-17.13542 5.71181,-5.7118 11.42361,-11.42361 17.13542,-17.13542 5.71181,-5.7118 11.42362,-11.42361 17.135423,-17.13541 5.71181,-5.71181 11.42362,-11.42362 17.13542,-17.13542 5.71181,-5.71181 11.42362,-11.42362 17.13542,-17.13542 5.71181,-5.71181 11.42362,-11.42362 17.13542,-17.13542 5.71181,-5.71181 11.42362,-11.42361 17.13542,-17.13542 5.71181,-5.71181 11.42362,-11.42361 17.13542,-17.13542 5.71181,-5.71181 11.42362,-11.42361 17.13542,-17.13542 5.71181,-5.7118 11.42362,-11.42361 17.13542,-17.13542 5.71181,-5.7118 11.42362,-11.42361 17.13542,-17.13542 5.71181,-5.7118 11.42362,-11.42361 17.13543,-17.13542 5.7118,-5.7118 11.42361,-11.42361 17.13542,-17.13541 5.7118,-5.71181 11.42361,-11.42362 17.13542,-17.13542 5.7118,-5.71181 11.42361,-11.42362 17.13542,-17.13542 5.7118,-5.71181 11.42361,-11.42362 17.13542,-17.13542 5.7118,-5.71181 11.42361,-11.42361 17.13542,-17.13542 5.7118,-5.71181 11.42361,-11.42361 17.13542,-17.13542 5.7118,-5.71181 11.42361,-11.42361 17.13542,-17.13542 5.7118,-5.7118 11.42361,-11.42361 17.13542,-17.13542 5.7118,-5.7118 11.42361,-11.42361 17.13542,-17.13542 5.71181,-5.7118 11.42361,-11.423613 17.13542,-17.135423 5.71181,-5.7118 11.42361,-11.42361 17.13542,-17.135414 5.71181,-5.711806 11.42361,-11.423613 17.13542,-17.135419 5.71181,-5.711806 11.42361,-11.423613 17.13542,-17.135419 5.71181,-5.711806 11.42361,-11.423613 17.13542,-17.135419"
     style="fill:#ff7f2a;fill-opacity:1;stroke:#000000;stroke-width:3.07283354;stroke-linejoin:round;stroke-miterlimit:4;stroke-opacity:1;stroke-dasharray:none;stroke-dashoffset:0"
     inkscape:connector-curvature="0" />
  <path
     style="fill:none;stroke:#000000;stroke-width:3.07283354;stroke-linejoin:round;stroke-miterlimit:4;stroke-opacity:1;stroke-dasharray:none;stroke-dashoffset:0"
     d="m 1.5364168,268.53923 496.9271932,0 m -248.4636,248.46358 0,-496.927154 m 207.053,248.463574 c -0.002,-14.95347 -1.62781,-29.90605 -4.84078,-44.51027 -3.21298,-14.60421 -8.01867,-28.85693 -14.29601,-42.42902 -6.27733,-13.57208 -14.03458,-26.45849 -23.08275,-38.36383 -9.04817,-11.90534 -19.39426,-22.82289 -30.79019,-32.5048 -11.39592,-9.68191 -23.84708,-18.120113 -37.05789,-25.125883 -13.21082,-7.00576 -27.18484,-12.57005 -41.59283,-16.572093 -14.40799,-4.002038 -29.25146,-6.432239 -44.18292,-7.243421 -14.93146,-0.811182 -29.95032,0.0063 -44.70707,2.423947 -14.75675,2.417604 -29.24874,6.444627 -43.14077,11.977977 -13.89203,5.53334 -27.17951,12.58157 -39.55725,20.97192 -12.37773,8.390363 -23.8394,18.130213 -34.124083,28.985253 -10.28467,10.85504 -19.38459,22.83111 -27.0953,35.64326 -7.71071,12.81216 -14.02338,26.46444 -18.79958,40.63463 -4.77621,14.17019 -8.00645,28.86033 -9.62482,43.72597 -1.61836,14.86564 -1.61514,29.90674 0,44.77273 1.61515,14.86599 4.85168,29.55474 9.62482,43.72597 4.77313,14.17122 11.09165,27.8208 18.79958,40.63463 7.70793,12.81382 16.81298,24.78599 27.0953,35.64326 10.282323,10.85726 21.748163,20.59221 34.124083,28.98525 12.37592,8.39303 25.66642,15.43557 39.55725,20.97192 13.89083,5.53636 28.38454,9.55717 43.14077,11.97798 14.75622,2.4208 29.77544,3.23189 44.70707,2.42394 14.93163,-0.80795 29.77406,-3.2445 44.18292,-7.24342 14.40885,-3.99892 28.38049,-9.56919 41.59283,-16.5721 13.21233,-7.0029 25.65987,-15.44643 37.05789,-25.12587 11.39802,-9.67944 21.73944,-20.60143 30.79019,-32.5048 9.05075,-11.90338 16.80248,-24.79311 23.08275,-38.36384 6.28028,-13.57072 11.07987,-27.82549 14.29601,-42.42902 3.21613,-14.60352 4.83916,-29.55679 4.84078,-44.51027"
     title="5*cos(t) 5*sin(t)"
     id="path3087"
     inkscape:connector-curvature="0" />
  <g
     id="g3869"
     transform="translate(-251.06989,159.51547)">
    <g
       word-spacing="normal"
       letter-spacing="normal"
       font-size-adjust="none"
       font-stretch="normal"
       font-weight="normal"
       font-variant="normal"
       font-style="normal"
       stroke-miterlimit="10.433"
       xml:space="preserve"
       transform="matrix(1.0629921,0,0,-1.0629921,-186.02362,789.27165)"
       id="content"
       style="font-style:normal;font-variant:normal;font-weight:normal;font-stretch:normal;letter-spacing:normal;word-spacing:normal;text-anchor:start;fill:none;stroke:#000000;stroke-linecap:butt;stroke-linejoin:miter;stroke-miterlimit:10.43299961;stroke-opacity:1;stroke-dasharray:none;stroke-dashoffset:0"><path
         id="path3872"
         d="m 479.74,425.18 0.01,0.04 0.01,0.03 0.01,0.06 0.02,0.05 0.01,0.06 0.01,0.05 0.02,0.04 0.01,0.05 0.01,0.04 0.01,0.04 0,0.04 0.01,0.04 0.01,0.04 0.01,0.03 0,0.03 0.01,0.03 0,0.03 0.01,0.03 0,0.03 0.01,0.05 0,0.06 0,0.05 0,0.05 0.01,0.05 0,0.03 0,0.03 0,0.03 0,0.03 c 0,0.91 -0.69,1.35 -1.44,1.35 -0.5,0 -1.3,-0.3 -1.75,-1.05 -0.1,-0.25 -0.5,-1.78 -0.69,-2.69 -0.36,-1.29 -0.7,-2.64 -1,-3.98 l -2.25,-8.97 c -0.19,-0.75 -2.33,-4.23 -5.62,-4.23 -2.54,0 -3.1,2.18 -3.1,4.03 0,2.29 0.86,5.39 2.55,9.76 0.8,2.05 1,2.6 1,3.6 0,2.23 -1.59,4.07 -4.09,4.07 -4.74,0 -6.58,-7.21 -6.58,-7.67 0,-0.5 0.5,-0.5 0.61,-0.5 0.5,0 0.54,0.11 0.79,0.91 1.35,4.69 3.33,6.17 5.03,6.17 0.4,0 1.25,0 1.25,-1.59 0,-1.25 -0.5,-2.53 -0.85,-3.49 -1.99,-5.28 -2.9,-8.12 -2.9,-10.47 0,-4.42 3.15,-5.92 6.08,-5.92 1.96,0 3.64,0.85 5.03,2.24 -0.64,-2.58 -1.23,-5.03 -3.23,-7.68 -1.3,-1.68 -3.19,-3.14 -5.48,-3.14 -0.69,0 -2.94,0.16 -3.79,2.1 0.8,0 1.46,0 2.14,0.61 0.5,0.43 1,1.09 1,2.03 0,1.55 -1.34,1.75 -1.84,1.75 -1.14,0 -2.8,-0.8 -2.8,-3.24 0,-2.5 2.21,-4.34 5.29,-4.34 5.14,0 10.26,4.55 11.67,10.17 z"
         inkscape:connector-curvature="0"
         style="fill:#000000;stroke-width:0" /><path
         id="path3874"
         d="m 529.83,422.5 0.14,0 0.15,0 0.14,0 0.07,0.01 0.08,0 0.07,0.01 0.07,0.01 0.07,0.01 0.07,0.01 0.07,0.01 0.06,0.02 0.07,0.02 0.06,0.02 0.06,0.02 0.06,0.03 0.06,0.03 0.05,0.04 0.05,0.03 0.05,0.05 0.04,0.04 0.04,0.05 0.02,0.03 0.02,0.03 0.01,0.02 0.02,0.03 0.01,0.03 0.01,0.04 0.02,0.03 0.01,0.04 0.01,0.03 0.01,0.04 0,0.04 0.01,0.04 0,0.04 0.01,0.04 0,0.04 0,0.05 c 0,1 -0.95,1 -1.64,1 h -29.84 c -0.71,0 -1.65,0 -1.65,-1 0,-0.98 0.94,-0.98 1.69,-0.98 z"
         inkscape:connector-curvature="0"
         style="fill:#000000;stroke-width:0" /><path
         id="path3876"
         d="m 529.88,412.82 0.06,0 0.07,0 0.14,0.01 0.14,0 0.07,0 0.07,0.01 0.06,0.01 0.07,0 0.07,0.01 0.07,0.02 0.07,0.01 0.06,0.02 0.07,0.02 0.06,0.02 0.06,0.02 0.05,0.03 0.06,0.03 0.05,0.04 0.05,0.04 0.05,0.04 0.04,0.05 0.02,0.02 0.02,0.03 0.02,0.02 0.02,0.03 0.01,0.03 0.02,0.03 0.01,0.03 0.01,0.03 0.02,0.04 0.01,0.03 0.01,0.04 0.01,0.04 0,0.04 0.01,0.04 0,0.04 0.01,0.04 0,0.05 0,0.04 c 0,1 -0.95,1 -1.69,1 h -29.75 c -0.75,0 -1.69,0 -1.69,-1 0,-1 0.94,-1 1.65,-1 z"
         inkscape:connector-curvature="0"
         style="fill:#000000;stroke-width:0" /><path
         id="path3878"
         d="m 564.8,421.25 0.03,0.13 0.03,0.15 0.04,0.16 0.05,0.18 0.05,0.19 0.06,0.21 0.07,0.22 0.07,0.22 0.08,0.23 0.09,0.24 0.09,0.25 0.11,0.24 0.11,0.25 0.12,0.25 0.13,0.25 0.13,0.25 0.15,0.24 0.16,0.24 0.17,0.23 0.17,0.22 0.19,0.22 0.2,0.2 0.21,0.19 0.22,0.18 0.23,0.16 0.24,0.14 0.13,0.07 0.13,0.06 0.13,0.05 0.14,0.05 0.14,0.05 0.14,0.04 0.15,0.03 0.15,0.03 0.15,0.02 0.15,0.02 0.16,0.01 0.16,0 c 0.25,0 1.44,0 2.49,-0.64 -1.39,-0.25 -2.39,-1.5 -2.39,-2.69 0,-0.79 0.55,-1.75 1.89,-1.75 1.09,0 2.69,0.89 2.69,2.89 0,2.6 -2.94,3.28 -4.63,3.28 -2.89,0 -4.64,-2.64 -5.23,-3.78 -1.25,3.28 -3.94,3.78 -5.38,3.78 -5.19,0 -8.03,-6.42 -8.03,-7.67 0,-0.5 0.5,-0.5 0.61,-0.5 0.39,0 0.55,0.11 0.64,0.55 1.69,5.28 4.99,6.53 6.67,6.53 0.96,0 2.69,-0.44 2.69,-3.33 0,-1.54 -0.84,-4.89 -2.69,-11.86 -0.79,-3.09 -2.53,-5.18 -4.73,-5.18 -0.3,0 -1.44,0 -2.49,0.65 1.25,0.24 2.35,1.28 2.35,2.69 0,1.34 -1.1,1.73 -1.85,1.73 -1.5,0 -2.75,-1.29 -2.75,-2.89 0,-2.28 2.5,-3.28 4.69,-3.28 3.3,0 5.08,3.49 5.24,3.78 0.59,-1.84 2.39,-3.78 5.37,-3.78 5.14,0 7.99,6.42 7.99,7.67 0,0.5 -0.46,0.5 -0.61,0.5 -0.44,0 -0.55,-0.2 -0.65,-0.54 -1.64,-5.33 -5.03,-6.53 -6.62,-6.53 -1.95,0 -2.75,1.59 -2.75,3.29 0,1.1 0.3,2.19 0.86,4.38 z"
         inkscape:connector-curvature="0"
         style="fill:#000000;stroke-width:0" /></g>  </g>
  <g
     id="g3904"
     transform="translate(218.84043,-77.414101)">
    <g
       id="g3906"
       transform="matrix(1.0629921,0,0,-1.0629921,-186.02362,789.27165)"
       xml:space="preserve"
       stroke-miterlimit="10.433"
       font-style="normal"
       font-variant="normal"
       font-weight="normal"
       font-stretch="normal"
       font-size-adjust="none"
       letter-spacing="normal"
       word-spacing="normal"
       style="font-style:normal;font-variant:normal;font-weight:normal;font-stretch:normal;letter-spacing:normal;word-spacing:normal;text-anchor:start;fill:none;stroke:#000000;stroke-linecap:butt;stroke-linejoin:miter;stroke-miterlimit:10.43299961;stroke-opacity:1;stroke-dasharray:none;stroke-dashoffset:0"><path
         d="m 472.16,421.25 0.03,0.13 0.04,0.15 0.04,0.16 0.04,0.18 0.06,0.19 0.06,0.21 0.06,0.22 0.07,0.22 0.08,0.23 0.09,0.24 0.1,0.25 0.1,0.24 0.11,0.25 0.12,0.25 0.13,0.25 0.14,0.25 0.15,0.24 0.15,0.24 0.17,0.23 0.18,0.22 0.18,0.22 0.2,0.2 0.21,0.19 0.22,0.18 0.23,0.16 0.25,0.14 0.12,0.07 0.13,0.06 0.14,0.05 0.13,0.05 0.14,0.05 0.14,0.04 0.15,0.03 0.15,0.03 0.15,0.02 0.16,0.02 0.16,0.01 0.16,0 c 0.25,0 1.44,0 2.48,-0.64 -1.39,-0.25 -2.39,-1.5 -2.39,-2.69 0,-0.79 0.55,-1.75 1.89,-1.75 1.1,0 2.69,0.89 2.69,2.89 0,2.6 -2.94,3.28 -4.63,3.28 -2.89,0 -4.64,-2.64 -5.23,-3.78 -1.25,3.28 -3.94,3.78 -5.37,3.78 -5.19,0 -8.04,-6.42 -8.04,-7.67 0,-0.5 0.5,-0.5 0.61,-0.5 0.39,0 0.55,0.11 0.64,0.55 1.69,5.28 4.99,6.53 6.68,6.53 0.95,0 2.68,-0.44 2.68,-3.33 0,-1.54 -0.84,-4.89 -2.68,-11.86 -0.8,-3.09 -2.54,-5.18 -4.74,-5.18 -0.3,0 -1.44,0 -2.48,0.65 1.25,0.24 2.34,1.28 2.34,2.69 0,1.34 -1.09,1.73 -1.84,1.73 -1.5,0 -2.75,-1.29 -2.75,-2.89 0,-2.28 2.5,-3.28 4.68,-3.28 3.3,0 5.08,3.49 5.24,3.78 0.59,-1.84 2.39,-3.78 5.37,-3.78 5.14,0 7.99,6.42 7.99,7.67 0,0.5 -0.45,0.5 -0.61,0.5 -0.44,0 -0.55,-0.2 -0.64,-0.54 -1.64,-5.33 -5.03,-6.53 -6.63,-6.53 -1.95,0 -2.75,1.59 -2.75,3.29 0,1.1 0.3,2.19 0.86,4.38 z"
         id="path3908"
         inkscape:connector-curvature="0"
         style="fill:#000000;stroke-width:0" /></g>  </g>
  <g
     id="g3940"
     transform="translate(-31.910034,-334.0878)">
    <g
       word-spacing="normal"
       letter-spacing="normal"
       font-size-adjust="none"
       font-stretch="normal"
       font-weight="normal"
       font-variant="normal"
       font-style="normal"
       stroke-miterlimit="10.433"
       xml:space="preserve"
       transform="matrix(1.0629921,0,0,-1.0629921,-186.02362,789.27165)"
       id="g3942"
       style="font-style:normal;font-variant:normal;font-weight:normal;font-stretch:normal;letter-spacing:normal;word-spacing:normal;text-anchor:start;fill:none;stroke:#000000;stroke-linecap:butt;stroke-linejoin:miter;stroke-miterlimit:10.43299961;stroke-opacity:1;stroke-dasharray:none;stroke-dashoffset:0"><path
         id="path3944"
         d="m 479.74,425.18 0.01,0.04 0.01,0.03 0.01,0.06 0.02,0.05 0.01,0.06 0.01,0.05 0.02,0.04 0.01,0.05 0.01,0.04 0.01,0.04 0,0.04 0.01,0.04 0.01,0.04 0.01,0.03 0,0.03 0.01,0.03 0,0.03 0.01,0.03 0,0.03 0.01,0.05 0,0.06 0,0.05 0,0.05 0.01,0.05 0,0.03 0,0.03 0,0.03 0,0.03 c 0,0.91 -0.69,1.35 -1.44,1.35 -0.5,0 -1.3,-0.3 -1.75,-1.05 -0.1,-0.25 -0.5,-1.78 -0.69,-2.69 -0.36,-1.29 -0.7,-2.64 -1,-3.98 l -2.25,-8.97 c -0.19,-0.75 -2.33,-4.23 -5.62,-4.23 -2.54,0 -3.1,2.18 -3.1,4.03 0,2.29 0.86,5.39 2.55,9.76 0.8,2.05 1,2.6 1,3.6 0,2.23 -1.59,4.07 -4.09,4.07 -4.74,0 -6.58,-7.21 -6.58,-7.67 0,-0.5 0.5,-0.5 0.61,-0.5 0.5,0 0.54,0.11 0.79,0.91 1.35,4.69 3.33,6.17 5.03,6.17 0.4,0 1.25,0 1.25,-1.59 0,-1.25 -0.5,-2.53 -0.85,-3.49 -1.99,-5.28 -2.9,-8.12 -2.9,-10.47 0,-4.42 3.15,-5.92 6.08,-5.92 1.96,0 3.64,0.85 5.03,2.24 -0.64,-2.58 -1.23,-5.03 -3.23,-7.68 -1.3,-1.68 -3.19,-3.14 -5.48,-3.14 -0.69,0 -2.94,0.16 -3.79,2.1 0.8,0 1.46,0 2.14,0.61 0.5,0.43 1,1.09 1,2.03 0,1.55 -1.34,1.75 -1.84,1.75 -1.14,0 -2.8,-0.8 -2.8,-3.24 0,-2.5 2.21,-4.34 5.29,-4.34 5.14,0 10.26,4.55 11.67,10.17 z"
         inkscape:connector-curvature="0"
         style="fill:#000000;stroke-width:0" /></g>  </g>
  <g
     id="g3982"
     transform="translate(122.09419,-213.6486)">
    <g
       id="g3984"
       transform="matrix(1.0629921,0,0,-1.0629921,-186.02362,789.27165)"
       xml:space="preserve"
       stroke-miterlimit="10.433"
       font-style="normal"
       font-variant="normal"
       font-weight="normal"
       font-stretch="normal"
       font-size-adjust="none"
       letter-spacing="normal"
       word-spacing="normal"
       style="font-style:normal;font-variant:normal;font-weight:normal;font-stretch:normal;letter-spacing:normal;word-spacing:normal;text-anchor:start;fill:none;stroke:#000000;stroke-linecap:butt;stroke-linejoin:miter;stroke-miterlimit:10.43299961;stroke-opacity:1;stroke-dasharray:none;stroke-dashoffset:0"><path
         d="m 470.61,421.95 0.21,1.28 3.39,13.56 c 0.43,1.74 0.54,1.89 2.68,1.89 h 4.79 c 4.14,0 6.78,-1.34 6.78,-4.78 0,-1.95 -1,-6.23 -2.94,-8.03 -2.5,-2.23 -5.48,-2.64 -7.69,-2.64 h -7.01 l -0.21,-1.28 h 8.47 c 7.08,0 14,5.17 14,10.75 0,3.84 -3.28,7.53 -9.81,7.53 h -16.14 c -0.95,0 -1.5,0 -1.5,-0.95 0,-0.6 0.45,-0.6 1.45,-0.6 0.64,0 1.55,-0.04 2.14,-0.09 0.8,-0.11 1.1,-0.25 1.1,-0.8 0,-0.2 -0.05,-0.36 -0.21,-0.95 l -6.67,-26.75 c -0.5,-1.95 -0.59,-2.34 -4.53,-2.34 -0.84,0 -1.39,0 -1.39,-0.96 0,-0.59 0.59,-0.59 0.73,-0.59 1.41,0 4.94,0.16 6.33,0.16 1.05,0 2.14,-0.07 3.19,-0.07 1.11,0 2.2,-0.09 3.25,-0.09 0.34,0 0.98,0 0.98,1 0,0.55 -0.43,0.55 -1.39,0.55 -1.84,0 -3.23,0 -3.23,0.89 0,0.29 0.09,0.54 0.14,0.84 z"
         id="path3986"
         inkscape:connector-curvature="0"
         style="fill:#000000;stroke-width:0" /><path
         d="m 499.23,420.92 0,0.04 0,0.04 0,0.05 0,0.04 0,0.03 0,0.04 0,0.04 0,0.03 -0.01,0.04 0,0.03 0,0.03 0,0.03 0,0.03 -0.01,0.03 0,0.03 -0.01,0.02 0,0.03 0,0.02 -0.01,0.03 0,0.02 -0.02,0.04 -0.01,0.04 -0.02,0.03 -0.02,0.03 -0.02,0.03 -0.02,0.03 -0.03,0.02 -0.03,0.02 -0.04,0.02 -0.03,0.01 -0.04,0.01 -0.05,0.02 -0.02,0 -0.03,0 -0.02,0.01 -0.03,0 -0.02,0.01 -0.03,0 -0.03,0 -0.03,0 -0.04,0 -0.03,0.01 -0.03,0 -0.04,0 -0.04,0 -0.03,0 -0.04,0 -0.04,0 -0.04,0 -0.05,0 -0.04,0 -0.05,0 c -2.23,-2.2 -5.39,-2.23 -6.82,-2.23 v -1.25 c 0.84,0 3.14,0 5.04,0.97 v -17.77 c 0,-1.16 0,-1.61 -3.48,-1.61 h -1.31 v -1.25 c 0.62,0.03 4.9,0.14 6.2,0.14 1.08,0 5.47,-0.11 6.23,-0.14 v 1.25 h -1.33 c -3.48,0 -3.48,0.45 -3.48,1.61 z"
         id="path3988"
         inkscape:connector-curvature="0"
         style="fill:#000000;stroke-width:0" /></g>  </g>
  <g
     id="g4034"
     transform="translate(-278.71167,64.743643)">
    <g
       word-spacing="normal"
       letter-spacing="normal"
       font-size-adjust="none"
       font-stretch="normal"
       font-weight="normal"
       font-variant="normal"
       font-style="normal"
       stroke-miterlimit="10.433"
       xml:space="preserve"
       transform="matrix(1.0629921,0,0,-1.0629921,-186.02362,789.27165)"
       id="g4036"
       style="font-style:normal;font-variant:normal;font-weight:normal;font-stretch:normal;letter-spacing:normal;word-spacing:normal;text-anchor:start;fill:none;stroke:#000000;stroke-linecap:butt;stroke-linejoin:miter;stroke-miterlimit:10.43299961;stroke-opacity:1;stroke-dasharray:none;stroke-dashoffset:0"><path
         id="path4038"
         d="m 470.61,421.95 0.21,1.28 3.39,13.56 c 0.43,1.74 0.54,1.89 2.68,1.89 h 4.79 c 4.14,0 6.78,-1.34 6.78,-4.78 0,-1.95 -1,-6.23 -2.94,-8.03 -2.5,-2.23 -5.48,-2.64 -7.69,-2.64 h -7.01 l -0.21,-1.28 h 8.47 c 7.08,0 14,5.17 14,10.75 0,3.84 -3.28,7.53 -9.81,7.53 h -16.14 c -0.95,0 -1.5,0 -1.5,-0.95 0,-0.6 0.45,-0.6 1.45,-0.6 0.64,0 1.55,-0.04 2.14,-0.09 0.8,-0.11 1.1,-0.25 1.1,-0.8 0,-0.2 -0.05,-0.36 -0.21,-0.95 l -6.67,-26.75 c -0.5,-1.95 -0.59,-2.34 -4.53,-2.34 -0.84,0 -1.39,0 -1.39,-0.96 0,-0.59 0.59,-0.59 0.73,-0.59 1.41,0 4.94,0.16 6.33,0.16 1.05,0 2.14,-0.07 3.19,-0.07 1.11,0 2.2,-0.09 3.25,-0.09 0.34,0 0.98,0 0.98,1 0,0.55 -0.43,0.55 -1.39,0.55 -1.84,0 -3.23,0 -3.23,0.89 0,0.29 0.09,0.54 0.14,0.84 z"
         inkscape:connector-curvature="0"
         style="fill:#000000;stroke-width:0" /><path
         id="path4040"
         d="m 505.15,405.11 h -1.19 c -0.09,-0.77 -0.45,-2.83 -0.9,-3.18 -0.27,-0.2 -2.95,-0.2 -3.44,-0.2 h -6.42 c 3.66,3.23 4.87,4.2 6.97,5.84 2.58,2.07 4.98,4.22 4.98,7.54 0,4.21 -3.69,6.79 -8.15,6.79 -4.32,0 -7.25,-3.03 -7.25,-6.23 0,-1.78 1.5,-1.96 1.86,-1.96 0.82,0 1.84,0.6 1.84,1.85 0,0.62 -0.25,1.84 -2.06,1.84 1.07,2.47 3.45,3.24 5.09,3.24 3.48,0 5.3,-2.71 5.3,-5.53 0,-3.04 -2.16,-5.44 -3.28,-6.69 l -8.39,-8.3 c -0.36,-0.31 -0.36,-0.39 -0.36,-1.36 h 14.36 z"
         inkscape:connector-curvature="0"
         style="fill:#000000;stroke-width:0" /></g>  </g>
  <path
     style="color:#000000;fill:none;stroke:#000000;stroke-width:2;stroke-linecap:butt;stroke-linejoin:round;stroke-miterlimit:4;stroke-opacity:0.39215686;stroke-dasharray:none;stroke-dashoffset:0;marker:none;visibility:visible;display:inline;overflow:visible;enable-background:accumulate"
     d="m 283.99606,268.1082 c 0,1.17997 -0.46537,3.94882 1.97442,3.94882 0.65814,0 0,-1.31627 0,-1.97441 0,-6.35554 0.46537,3.37053 -1.97442,-3.94883 -0.41624,-1.24873 0.41625,-2.7001 0,-3.94882 -0.29432,-0.88299 -1.68008,-1.09143 -1.97441,-1.97442 -0.41624,-1.24873 0.25814,-2.65811 0,-3.94882 -2.20307,-11.01536 -3.29988,-0.62137 0,-13.8209 0.50163,0.66884 7.2711,8.71371 7.89765,11.84648 0.38722,1.93607 -0.47886,4.00778 0,5.92324 0.22574,0.90296 1.68009,1.09143 1.97442,1.97442 0.41624,1.24872 -0.41625,2.70009 0,3.94882 0.43384,1.30154 5.67414,3.94883 1.97441,3.94883 -0.65814,0 0,-1.31628 0,-1.97441"
     id="path4133"
     inkscape:connector-curvature="0" />
  <path
     style="color:#000000;fill:none;stroke:#000000;stroke-width:2;stroke-linecap:butt;stroke-linejoin:round;stroke-miterlimit:4;stroke-opacity:0.39215686;stroke-dasharray:none;stroke-dashoffset:0;marker:none;visibility:visible;display:inline;overflow:visible;enable-background:accumulate"
     d="m 301.76578,224.67111 c 0.65814,2.63255 1.31628,5.2651 1.97442,7.89765 0,1.97441 -0.38722,3.98717 0,5.92324 0.28861,1.44306 1.6858,2.50576 1.97441,3.94882 0.38721,1.93608 -0.32459,3.97569 0,5.92324 0.34215,2.0529 1.56625,3.88245 1.97441,5.92324 0.25814,1.29072 -0.31924,2.67185 0,3.94883 0.35693,1.4277 1.61749,2.52112 1.97442,3.94883 1.12851,4.51404 -2.52816,5.92324 1.97441,5.92324"
     id="path4135"
     inkscape:connector-curvature="0" />
  <path
     style="color:#000000;fill:none;stroke:#000000;stroke-width:2;stroke-linecap:butt;stroke-linejoin:round;stroke-miterlimit:4;stroke-opacity:0.39215686;stroke-dasharray:none;stroke-dashoffset:0;marker:none;visibility:visible;display:inline;overflow:visible;enable-background:accumulate"
     d="m 309.66344,214.79904 c 4.61883,23.09416 -1.6629,1.17734 5.92323,13.82089 1.07078,1.78463 1.04367,4.06175 1.97442,5.92324 1.06121,2.12243 2.88761,3.80081 3.94882,5.92324 0.93075,1.8615 1.20147,3.99088 1.97442,5.92324 0.54655,1.36639 1.61748,2.52113 1.97441,3.94883 0,8.98809 -0.93075,0.11292 1.97441,5.92324 0.29433,0.58865 -0.46537,1.50904 0,1.97441 2.70998,2.70998 1.97442,-3.48426 1.97442,-3.94883"
     id="path4137"
     inkscape:connector-curvature="0" />
  <path
     style="color:#000000;fill:none;stroke:#000000;stroke-width:2;stroke-linecap:butt;stroke-linejoin:round;stroke-miterlimit:4;stroke-opacity:0.39215686;stroke-dasharray:none;stroke-dashoffset:0;marker:none;visibility:visible;display:inline;overflow:visible;enable-background:accumulate"
     d="m 325.45874,199.00374 c -0.011,6.18568 3.19622,11.74884 3.94883,17.76971 0.32652,2.61223 -0.3723,5.29156 0,7.89766 0.29432,2.06029 1.40266,3.9221 1.97441,5.92324 1.49095,5.21832 3.05661,10.442 3.94883,15.7953 0.21639,1.29837 0,2.63255 0,3.94883 0.65813,1.97441 1.56625,3.88244 1.97441,5.92324 0.25814,1.29071 -0.41624,2.70009 0,3.94882 0.29433,0.88299 1.55817,1.14193 1.97441,1.97442 0.29433,0.58865 -0.46537,1.50904 0,1.97441 0.46538,0.46537 1.68009,0.58866 1.97441,0 0.58866,-1.17731 0,-2.63255 0,-3.94883"
     id="path4139"
     inkscape:connector-curvature="0" />
  <path
     style="color:#000000;fill:none;stroke:#000000;stroke-width:2;stroke-linecap:butt;stroke-linejoin:round;stroke-miterlimit:4;stroke-opacity:0.39215686;stroke-dasharray:none;stroke-dashoffset:0;marker:none;visibility:visible;display:inline;overflow:visible;enable-background:accumulate"
     d="m 341.25404,193.0805 c 4.01418,20.07087 -0.0987,1.62904 3.94883,15.7953 1.49095,5.21833 2.63255,10.53021 3.94883,15.79531 0.65813,2.63255 1.59065,5.21135 1.97441,7.89765 0.27922,1.95457 -0.27922,3.96867 0,5.92324 3.91887,27.43209 -0.10009,-4.3492 3.94883,11.84648 0.31924,1.27697 0,2.63255 0,3.94882 0.65813,1.31628 1.50904,2.55271 1.97441,3.94883 0.20812,0.62436 -0.46537,1.50904 0,1.97441 0.46537,0.46538 1.50904,0.46538 1.97441,0 0.46538,-0.46537 0,-1.31627 0,-1.97441"
     id="path4141"
     inkscape:connector-curvature="0" />
  <path
     style="color:#000000;fill:none;stroke:#000000;stroke-width:2;stroke-linecap:butt;stroke-linejoin:round;stroke-miterlimit:4;stroke-opacity:0.39215686;stroke-dasharray:none;stroke-dashoffset:0;marker:none;visibility:visible;display:inline;overflow:visible;enable-background:accumulate"
     d="m 359.02376,185.18284 c -1.31627,-2.63255 -6.58137,-6.58137 -3.94882,-7.89765 2.63255,-1.31627 3.3716,5.01153 3.94882,7.89765 0.77443,3.87215 -0.39292,7.91725 0,11.84648 0.27001,2.70011 1.38576,5.2487 1.97442,7.89766 0.72798,3.27594 1.60382,6.53673 1.97441,9.87206 0.29072,2.61645 -0.29072,5.2812 0,7.89765 0.37059,3.33534 1.60382,6.53674 1.97441,9.87207 0.29072,2.61645 -0.3723,5.29156 0,7.89765 0.58866,4.1206 3.13251,7.76488 3.94883,11.84648 0.25814,1.29071 -0.31925,2.67185 0,3.94883 0.35692,1.4277 1.61749,2.52112 1.97441,3.94882 0.59841,2.39362 -1.67459,9.57225 3.94883,3.94883"
     id="path4143"
     inkscape:connector-curvature="0" />
  <path
     style="color:#000000;fill:none;stroke:#000000;stroke-width:2;stroke-linecap:butt;stroke-linejoin:round;stroke-miterlimit:4;stroke-opacity:0.39215686;stroke-dasharray:none;stroke-dashoffset:0;marker:none;visibility:visible;display:inline;overflow:visible;enable-background:accumulate"
     d="m 372.84465,181.23402 c -4.03119,-0.11913 -0.92067,-13.68782 -1.97441,-15.79531 -0.41624,-0.83248 -2.63255,-1.31627 -1.97441,-1.97441 0.65814,-0.65814 1.68008,1.09143 1.97441,1.97441 0.41624,1.24873 -0.16326,2.64272 0,3.94883 0.49655,3.97238 1.31628,7.89765 1.97441,11.84648 2.52714,15.16279 5.14857,30.2915 7.89766,45.4115 0.80285,4.41569 2.09998,14.81388 3.94882,19.74413 1.03346,2.75588 2.91537,5.14177 3.94883,7.89765 4.2953,3.44634 1.00347,7.96272 1.97441,11.84648 3.32479,13.29914 0.0305,0.0305 3.94883,3.94883 0.46537,0.46537 0.65814,1.97441 0,1.97441 -0.65814,0 0,-1.31627 0,-1.97441 0,-1.31628 0,-2.63255 0,-3.94883"
     id="path4145"
     inkscape:connector-curvature="0" />
  <path
     style="color:#000000;fill:none;stroke:#000000;stroke-width:2;stroke-linecap:butt;stroke-linejoin:round;stroke-miterlimit:4;stroke-opacity:0.39215686;stroke-dasharray:none;stroke-dashoffset:0;marker:none;visibility:visible;display:inline;overflow:visible;enable-background:accumulate"
     d="m 388.63996,149.64341 c -1.31628,-3.94883 -2.63255,-7.89765 -3.94883,-11.84648 0,-1.31627 0.31925,-2.67185 0,-3.94883 -0.35692,-1.4277 -1.50904,-2.5527 -1.97441,-3.94882 -0.20812,-0.62437 -0.65814,-1.97442 0,-1.97442 0.66581,0 -0.40425,2.33184 0,3.94883 2.46802,9.87207 2.96162,3.94883 5.92324,17.76972 1.11178,5.18829 1.22402,10.54256 1.97441,15.7953 1.13231,7.92612 2.63255,15.79531 3.94883,23.69296 2.41921,14.51524 4.70378,29.06467 7.89765,43.43709 0.65814,2.63255 1.31628,5.2651 1.97441,7.89765 0,1.97441 -0.32459,3.97569 0,5.92324 0.34215,2.0529 1.46965,3.90417 1.97442,5.92324 0.15962,0.63849 -0.20812,1.35005 0,1.97441 0.46537,1.39612 1.97441,2.47719 1.97441,3.94883 0,0.65814 -1.68008,0.58866 -1.97441,0 -0.58866,-1.17731 0,-2.63255 0,-3.94883"
     id="path4147"
     inkscape:connector-curvature="0" />
  <path
     style="color:#000000;fill:none;stroke:#000000;stroke-width:2;stroke-linecap:butt;stroke-linejoin:round;stroke-miterlimit:4;stroke-opacity:0.39215686;stroke-dasharray:none;stroke-dashoffset:0;marker:none;visibility:visible;display:inline;overflow:visible;enable-background:accumulate"
     d="m 402.46085,157.54106 c -0.0112,-4.96306 -3.00917,-9.12262 -3.94883,-13.82089 -0.25814,-1.29071 0.25815,-2.65811 0,-3.94883 -0.40815,-2.04079 -1.46964,-3.90416 -1.97441,-5.92324 -0.14542,-0.58169 -0.37195,-5.55128 0,-5.92324 0.46538,-0.46537 1.68009,-0.58865 1.97441,0 0.58866,1.17732 -0.25814,2.65812 0,3.94883 2.77228,13.86135 1.99091,-3.78391 3.94883,15.79531 0.32744,3.27435 -0.54098,6.62615 0,9.87206 0.78769,4.72613 3.00917,9.12262 3.94883,13.82089 1.0406,5.20304 1.27314,10.53578 1.97441,15.79531 1.69371,12.70282 1.93784,13.60142 3.94883,25.66737 1.31627,7.89765 2.3786,15.84185 3.94882,23.69296 0.53218,2.66087 1.63784,5.20503 1.97442,7.89765 0.32652,2.61222 -0.43279,5.30092 0,7.89765 0.24193,1.45162 1.61748,2.52113 1.97441,3.94883 0.19276,0.77105 -1.06705,5.92324 1.97441,5.92324 0.65814,0 0,-1.31628 0,-1.97442"
     id="path4149"
     inkscape:connector-curvature="0" />
  <path
     style="color:#000000;fill:none;stroke:#000000;stroke-width:2;stroke-linecap:butt;stroke-linejoin:round;stroke-miterlimit:4;stroke-opacity:0.39215686;stroke-dasharray:none;stroke-dashoffset:0;marker:none;visibility:visible;display:inline;overflow:visible;enable-background:accumulate"
     d="m 416.28174,169.38754 c -0.65814,-2.63255 -1.31627,-5.2651 -1.97441,-7.89765 0,-0.65814 -0.15962,-2.6129 0,-1.97442 8.26146,33.04586 -6.08104,-15.20259 7.89765,19.74414 1.24634,3.11583 1.31628,6.58137 1.97442,9.87206 0.65813,3.29069 1.31627,6.58138 1.97441,9.87207 1.31627,6.58137 2.49285,13.19224 3.94882,19.74413 0.58866,2.64895 1.63784,5.20503 1.97442,7.89765 0,17.07982 -0.83249,-0.2136 1.97441,13.82089 0.29431,1.47157 -0.57512,7.32253 0,7.89765 2.70998,2.70998 1.97441,-3.48425 1.97441,-3.94882"
     id="path4151"
     inkscape:connector-curvature="0" />
  <path
     style="color:#000000;fill:none;stroke:#000000;stroke-width:2;stroke-linecap:butt;stroke-linejoin:round;stroke-miterlimit:4;stroke-opacity:0.39215686;stroke-dasharray:none;stroke-dashoffset:0;marker:none;visibility:visible;display:inline;overflow:visible;enable-background:accumulate"
     d="m 434.05146,200.97815 c 13.16275,9.87207 -3.29069,-9.87207 0,-9.87207 0.93075,0 1.97441,1.04367 1.97441,1.97442 0,2.71357 -2.50658,5.23677 -1.97441,7.89765 0.86584,4.32919 4.65462,7.61775 5.92324,11.84648 0.75646,2.52152 -0.3723,5.29156 0,7.89765 0.29433,2.0603 1.63226,3.87034 1.97441,5.92324 0.32459,1.94755 -0.38721,3.98717 0,5.92324 0.28862,1.44306 1.61749,2.52112 1.97442,3.94883 0.27482,1.09929 -0.34088,9.53119 0,9.87206 0.46537,0.46537 1.31627,0 1.97441,0"
     id="path4153"
     inkscape:connector-curvature="0" />
</svg>
