<?xml version="1.0" encoding="UTF-8"?>
<svg width="869" height="473" xmlns="http://www.w3.org/2000/svg" xmlns:svg="http://www.w3.org/2000/svg" xmlns:xlink="http://www.w3.org/1999/xlink" class="main-svg">
 <defs>
  <g class="clips" id="svg_50">
   <clipPath class="axesclip" id="clip016ca2x">
    <rect x="80" y="0" width="632" height="473" id="svg_51"/>
   </clipPath>
   <clipPath class="axesclip" id="clip016ca2y">
    <rect x="0" y="100" width="869" height="293" id="svg_52"/>
   </clipPath>
   <clipPath class="axesclip" id="clip016ca2xy">
    <rect x="80" y="100" width="632" height="293" id="svg_53"/>
   </clipPath>
  </g>
 </defs>
 <g>
  <title>Layer 1</title>
  <rect x="0" y="0" width="869" height="473" fill="rgb(255, 255, 255)" id="svg_54"/>
  <g class="draglayer" id="svg_55">
   <g id="svg_56"/>
  </g>
  <g class="subplot xy" id="svg_57">
   <rect x="80" y="100" width="632" height="293" fill="rgb(255, 255, 255)" stroke-width="0px" id="svg_58"/>
   <g id="svg_59">
    <path class="xgrid crisp" d="m119.199997,100l0,293" stroke-width="1px" stroke="rgb(238, 238, 238)" id="svg_60"/>
    <path class="xgrid crisp" d="m396,100l0,293" stroke-width="1px" stroke="rgb(238, 238, 238)" id="svg_61"/>
    <path class="xgrid crisp" d="m534.400024,100l0,293" stroke-width="1px" stroke="rgb(238, 238, 238)" id="svg_62"/>
    <path class="xgrid crisp" d="m672.799988,100l0,293" stroke-width="1px" stroke="rgb(238, 238, 238)" id="svg_63"/>
    <path class="ygrid crisp" d="m80,390.609985l632,0" stroke-width="1px" stroke="rgb(238, 238, 238)" id="svg_64"/>
    <path class="ygrid crisp" d="m80,310.549988l632,0" stroke-width="1px" stroke="rgb(238, 238, 238)" id="svg_65"/>
    <path class="ygrid crisp" d="m80,150.419998l632,0" stroke-width="1px" stroke="rgb(238, 238, 238)" id="svg_66"/>
   </g>
   <g id="svg_67"/>
   <g id="svg_68">
    <path class="xzl zl crisp" d="m257.600006,100l0,293" stroke-width="1px" stroke="rgb(68, 68, 68)" id="svg_69"/>
    <path class="yzl zl crisp" d="m80,230.490005l632,0" stroke-width="1px" stroke="rgb(68, 68, 68)" id="svg_70"/>
   </g>
   <g id="svg_71"/>
   <g id="svg_1">
    <svg preserveAspectRatio="none" x="80" y="100" width="632" height="293" viewBox="0 0 632 293" id="svg_2">
     <g class="maplayer" id="svg_231"/>
     <g class="barlayer" id="svg_230"/>
     <g class="errorlayer" id="svg_225">
      <g class="errorbars" id="svg_229"/>
      <g class="errorbars" id="svg_228"/>
      <g class="errorbars" id="svg_227"/>
      <g class="errorbars" id="svg_226"/>
     </g>
     <g class="boxlayer" id="svg_224"/>
     <g class="scatterlayer" id="svg_3">
      <g class="trace scatter" stroke-miterlimit="2" id="svg_211">
       <path class="js-line" d="m39.200001,66.440002l553.599987,64.050003" stroke-width="2px" stroke="rgb(31, 119, 180)" fill="none" id="svg_223"/>
       <g class="points" id="svg_212">
        <path class="point" d="m42.200001,66.440002a3,3 0 1 1 -3,-3.000004a3,3 0 0 1 3,3.000004z" fill="rgb(31, 119, 180)" stroke-width="0px" id="svg_222"/>
        <path class="point" d="m111.400002,74.440002a3,3 0 1 1 -3,-3a3,3 0 0 1 3,3z" fill="rgb(31, 119, 180)" stroke-width="0px" id="svg_221"/>
        <path class="point" d="m180.600006,82.449997a3,3 0 1 1 -3,-3a3,3 0 0 1 3,3z" fill="rgb(31, 119, 180)" stroke-width="0px" id="svg_220"/>
        <path class="point" d="m249.800003,90.459999a3,3 0 1 1 -3,-3a3,3 0 0 1 3,3z" fill="rgb(31, 119, 180)" stroke-width="0px" id="svg_219"/>
        <path class="point" d="m284.399994,94.459999a3,3 0 1 1 -3,-3a3,3 0 0 1 3,3z" fill="rgb(31, 119, 180)" stroke-width="0px" id="svg_218"/>
        <path class="point" d="m319,98.459999a3,3 0 1 1 -3,-3a3,3 0 0 1 3,3z" fill="rgb(31, 119, 180)" stroke-width="0px" id="svg_217"/>
        <path class="point" d="m388.200012,106.470001a3,3 0 1 1 -3,-3a3,3 0 0 1 3,3z" fill="rgb(31, 119, 180)" stroke-width="0px" id="svg_216"/>
        <path class="point" d="m457.399994,114.470001a3,3 0 1 1 -3,-3a3,3 0 0 1 3,3z" fill="rgb(31, 119, 180)" stroke-width="0px" id="svg_215"/>
        <path class="point" d="m526.599976,122.480003a3,3 0 1 1 -3,-3a3,3 0 0 1 3,3z" fill="rgb(31, 119, 180)" stroke-width="0px" id="svg_214"/>
        <path class="point" d="m595.799988,130.490005a3,3 0 1 1 -3,-2.999992a3,3 0 0 1 3,2.999992z" fill="rgb(31, 119, 180)" stroke-width="0px" id="svg_213"/>
       </g>
      </g>
      <g class="trace scatter" stroke-miterlimit="2" id="svg_122">
       <path class="js-line" d="m39.200001,18.4l553.599987,256.200006" stroke-width="2px" stroke="rgb(255, 127, 14)" fill="none" id="svg_210"/>
       <g class="points" id="svg_123">
        <path class="point" d="m42.200001,18.4a3,3 0 1 1 -3,-3a3,3 0 0 1 3,3z" fill="rgb(255, 127, 14)" stroke-width="0px" id="svg_209"/>
        <path class="point" d="m111.400002,50.419998a3,3 0 1 1 -3,-3a3,3 0 0 1 3,3z" fill="rgb(255, 127, 14)" stroke-width="0px" id="svg_208"/>
        <path class="point" d="m180.600006,82.449997a3,3 0 1 1 -3,-3a3,3 0 0 1 3,3z" fill="rgb(255, 127, 14)" stroke-width="0px" id="svg_207"/>
        <path class="point" d="m249.800003,114.470001a3,3 0 1 1 -3,-3a3,3 0 0 1 3,3z" fill="rgb(255, 127, 14)" stroke-width="0px" id="svg_130"/>
        <path class="point" d="m284.399994,130.490005a3,3 0 1 1 -3,-2.999992a3,3 0 0 1 3,2.999992z" fill="rgb(255, 127, 14)" stroke-width="0px" id="svg_129"/>
        <path class="point" d="m319,146.5a3,3 0 1 1 -3,-3a3,3 0 0 1 3,3z" fill="rgb(255, 127, 14)" stroke-width="0px" id="svg_128"/>
        <path class="point" d="m388.200012,178.520004a3,3 0 1 1 -3,-3a3,3 0 0 1 3,3z" fill="rgb(255, 127, 14)" stroke-width="0px" id="svg_127"/>
        <path class="point" d="m457.399994,210.550003a3,3 0 1 1 -3,-3a3,3 0 0 1 3,3z" fill="rgb(255, 127, 14)" stroke-width="0px" id="svg_126"/>
        <path class="point" d="m526.599976,242.580002a3,3 0 1 1 -3,-3a3,3 0 0 1 3,3z" fill="rgb(255, 127, 14)" stroke-width="0px" id="svg_125"/>
        <path class="point" d="m595.799988,274.600006a3,3 0 1 1 -3,-3a3,3 0 0 1 3,3z" fill="rgb(255, 127, 14)" stroke-width="0px" id="svg_124"/>
       </g>
      </g>
      <g class="trace scatter" stroke-miterlimit="2" id="svg_15">
       <path class="js-fill" d="m177.600006,18.4l415.199982,0l0,112.090006l-415.199982,-48.040009l0,-64.049997z" fill-opacity="0.5" fill="rgb(0, 0, 0)" stroke-width="0px" id="svg_121"/>
       <path class="js-line" d="m177.600006,82.449997l415.199982,48.040009" stroke-width="2px" stroke-opacity="0" stroke="rgb(0, 0, 0)" fill="none" id="svg_120"/>
       <g class="points" id="svg_16">
        <path class="point" d="m180.600006,82.449997a3,3 0 1 1 -3,-3a3,3 0 0 1 3,3z" fill-opacity="0" fill="rgb(0, 0, 0)" stroke-width="0px" id="svg_119"/>
        <path class="point" d="m249.800003,90.459999a3,3 0 1 1 -3,-3a3,3 0 0 1 3,3z" fill-opacity="0" fill="rgb(0, 0, 0)" stroke-width="0px" id="svg_118"/>
        <path class="point" d="m284.399994,94.459999a3,3 0 1 1 -3,-3a3,3 0 0 1 3,3z" fill-opacity="0" fill="rgb(0, 0, 0)" stroke-width="0px" id="svg_117"/>
        <path class="point" d="m319,98.459999a3,3 0 1 1 -3,-3a3,3 0 0 1 3,3z" fill-opacity="0" fill="rgb(0, 0, 0)" stroke-width="0px" id="svg_116"/>
        <path class="point" d="m388.200012,106.470001a3,3 0 1 1 -3,-3a3,3 0 0 1 3,3z" fill-opacity="0" fill="rgb(0, 0, 0)" stroke-width="0px" id="svg_111"/>
        <path class="point" d="m457.399994,114.470001a3,3 0 1 1 -3,-3a3,3 0 0 1 3,3z" fill-opacity="0" fill="rgb(0, 0, 0)" stroke-width="0px" id="svg_108"/>
        <path class="point" d="m526.599976,122.480003a3,3 0 1 1 -3,-3a3,3 0 0 1 3,3z" fill-opacity="0" fill="rgb(0, 0, 0)" stroke-width="0px" id="svg_81"/>
        <path class="point" d="m595.799988,130.490005a3,3 0 1 1 -3,-2.999992a3,3 0 0 1 3,2.999992z" fill-opacity="0" fill="rgb(0, 0, 0)" stroke-width="0px" id="svg_72"/>
       </g>
      </g>
      <g class="trace scatter" stroke-miterlimit="2" id="svg_4">
       <path class="js-line" d="m177.600006,18.4l415.199982,0" stroke-width="2px" stroke-opacity="0" stroke="rgb(0, 0, 0)" fill="none" id="svg_14"/>
       <g class="points" id="svg_5">
        <path class="point" d="m180.600006,18.4a3,3 0 1 1 -3,-3a3,3 0 0 1 3,3z" fill-opacity="0" fill="rgb(0, 0, 0)" stroke-width="0px" id="svg_13"/>
        <path class="point" d="m249.800003,18.4a3,3 0 1 1 -3,-3a3,3 0 0 1 3,3z" fill-opacity="0" fill="rgb(0, 0, 0)" stroke-width="0px" id="svg_12"/>
        <path class="point" d="m284.399994,18.4a3,3 0 1 1 -3,-3a3,3 0 0 1 3,3z" fill-opacity="0" fill="rgb(0, 0, 0)" stroke-width="0px" id="svg_11"/>
        <path class="point" d="m319,18.4a3,3 0 1 1 -3,-3a3,3 0 0 1 3,3z" fill-opacity="0" fill="rgb(0, 0, 0)" stroke-width="0px" id="svg_10"/>
        <path class="point" d="m388.200012,18.4a3,3 0 1 1 -3,-3a3,3 0 0 1 3,3z" fill-opacity="0" fill="rgb(0, 0, 0)" stroke-width="0px" id="svg_9"/>
        <path class="point" d="m457.399994,18.4a3,3 0 1 1 -3,-3a3,3 0 0 1 3,3z" fill-opacity="0" fill="rgb(0, 0, 0)" stroke-width="0px" id="svg_8"/>
        <path class="point" d="m526.599976,18.4a3,3 0 1 1 -3,-3a3,3 0 0 1 3,3z" fill-opacity="0" fill="rgb(0, 0, 0)" stroke-width="0px" id="svg_7"/>
        <path class="point" d="m595.799988,18.4a3,3 0 1 1 -3,-3a3,3 0 0 1 3,3z" fill-opacity="0" fill="rgb(0, 0, 0)" stroke-width="0px" id="svg_6"/>
       </g>
      </g>
     </g>
    </svg>
   </g>
   <g id="svg_131"/>
   <path class="crisp" d="m79,393.5l634,0" stroke-opacity="0" stroke="rgb(0, 0, 0)" stroke-width="1px" fill="none" id="svg_132"/>
   <path class="crisp" d="m79.5,99l0,294" stroke-width="1px" stroke-opacity="0" stroke="rgb(0, 0, 0)" fill="none" id="svg_133"/>
   <g id="svg_134"/>
   <g id="svg_135">
    <g class="xtick" id="svg_136">
     <text text-anchor="middle" x="119.2" y="407" fill="rgb(68, 68, 68)" font-size="12px" font-family="'Open sans', verdana, arial, sans-serif" id="svg_137">−2</text>
    </g>
    <g class="xtick" id="svg_138">
     <text text-anchor="middle" x="257.60001" y="407" fill="rgb(68, 68, 68)" font-size="12px" font-family="'Open sans', verdana, arial, sans-serif" id="svg_139">0</text>
    </g>
    <g class="xtick" id="svg_140">
     <text text-anchor="middle" x="396" y="407" fill="rgb(68, 68, 68)" font-size="12px" font-family="'Open sans', verdana, arial, sans-serif" id="svg_141">2</text>
    </g>
    <g class="xtick" id="svg_142">
     <text text-anchor="middle" x="534.39999" y="407" fill="rgb(68, 68, 68)" font-size="12px" font-family="'Open sans', verdana, arial, sans-serif" id="svg_143">4</text>
    </g>
    <g class="xtick" id="svg_144">
     <text text-anchor="middle" x="672.79999" y="407" fill="rgb(68, 68, 68)" font-size="12px" font-family="'Open sans', verdana, arial, sans-serif" id="svg_145">6</text>
    </g>
   </g>
   <g id="svg_146">
    <g class="ytick" id="svg_147">
     <text text-anchor="end" x="78" y="396.60999" fill="rgb(68, 68, 68)" font-size="12px" font-family="'Open sans', verdana, arial, sans-serif" id="svg_148">−10</text>
    </g>
    <g class="ytick" id="svg_149">
     <text text-anchor="end" x="78" y="316.55" fill="rgb(68, 68, 68)" font-size="12px" font-family="'Open sans', verdana, arial, sans-serif" id="svg_150">−5</text>
    </g>
    <g class="ytick" id="svg_151">
     <text text-anchor="end" x="78" y="236.49001" fill="rgb(68, 68, 68)" font-size="12px" font-family="'Open sans', verdana, arial, sans-serif" id="svg_152">0</text>
    </g>
    <g class="ytick" id="svg_153">
     <text text-anchor="end" x="78" y="156.42" fill="rgb(68, 68, 68)" font-size="12px" font-family="'Open sans', verdana, arial, sans-serif" id="svg_154">5</text>
    </g>
   </g>
   <g id="svg_155"/>
  </g>
  <g class="shapelayer" id="svg_156"/>
  <g class="glimages" id="svg_157"/>
  <text class="js-plot-link-container" y="464" text-anchor="end" x="862" fill="rgb(68, 68, 68)" font-size="12px" font-family="'Open Sans', Arial, sans-serif" id="svg_158"/>
  <g class="infolayer" id="svg_159">
   <g class="g-gtitle" id="svg_160"/>
   <g class="g-xtitle" id="svg_161"/>
   <g class="g-ytitle" id="svg_162"/>
   <g id="svg_17">
    <svg class="legend" x="725" y="100" width="132" height="67" id="svg_232">
     <rect class="bg" x="0" y="0" width="132" height="67" stroke-width="0px" fill="rgb(255, 255, 255)" stroke="rgb(68, 68, 68)" id="svg_307"/>
     <g class="traces" id="svg_297">
      <g class="legendfill" id="svg_305">
       <path class="js-fill" d="m5,14.5l30,0l0,6l-30,0l0,-6z" fill-opacity="0.5" fill="rgb(0, 0, 0)" stroke-width="0px" id="svg_306"/>
      </g>
      <g class="legendlines" id="svg_303">
       <path class="js-line" d="m5,14.5l30,0" stroke-width="2px" stroke-opacity="0" stroke="rgb(0, 0, 0)" fill="none" id="svg_304"/>
      </g>
      <g class="legendsymbols" id="svg_300">
       <g class="legendpoints" id="svg_301">
        <path class="scatterpts" d="m23,14.5a3,3 0 1 1 -3,-3a3,3 0 0 1 3,3z" fill-opacity="0" fill="rgb(0, 0, 0)" stroke-width="0px" id="svg_302"/>
       </g>
      </g>
      <text class="legendtext" x="40" y="19.18" fill="rgb(68, 68, 68)" font-size="12px" font-family="'Open sans', verdana, arial, sans-serif" text-anchor="start" id="svg_299">Feasible Region</text>
      <rect class="legendtoggle" x="0" y="5" height="19" width="126.98438" fill-opacity="0" fill="rgb(0, 0, 0)" id="svg_298"/>
     </g>
     <g class="traces" id="svg_265">
      <g class="legendfill" id="svg_296"/>
      <g class="legendlines" id="svg_294">
       <path class="js-line" d="m5,33.5l30,0" stroke-width="2px" stroke="rgb(255, 127, 14)" fill="none" id="svg_295"/>
      </g>
      <g class="legendsymbols" id="svg_291">
       <g class="legendpoints" id="svg_292">
        <path class="scatterpts" d="m23,33.5a3,3 0 1 1 -3,-3a3,3 0 0 1 3,3z" fill="rgb(255, 127, 14)" stroke-width="0px" id="svg_293"/>
       </g>
      </g>
      <rect class="legendtoggle" x="0" y="24" height="19" width="126.98438" fill-opacity="0" fill="rgb(0, 0, 0)" id="svg_290"/>
      <g class="legendtext-math-group" id="svg_266">
       <svg xmlns:xlink="http://www.w3.org/1999/xlink" viewBox="0 -688.7742397004789 4655 916.5484794009578" class="legendtext-math" height="2.182ex" preserveAspectRatio="xMinYMin meet" x="40" y="27.64548" width="10.727ex" id="svg_308">
        <defs>
         <path id="svg_330" stroke-width="10" d="m33,157q0,101 76,192t171,92q60,0 92,-52q1,1 5,6t11,11t16,12q34,24 46,24q4,0 7,-3t3,-5q0,-9 -69,-285q-71,-284 -71,-288q0,-8 45,-9l25,0q6,-8 6,-9t-3,-18q-4,-13 -10,-19l-13,0q-31,2 -108,2q-28,0 -51,0t-37,0t-17,-1q-14,0 -14,8q0,3 2,15q4,16 7,19t20,3q48,0 58,7q8,5 28,88t21,85q0,1 -7,-3q-48,-39 -100,-39q-55,0 -97,40t-42,127zm319,169q-23,79 -75,79q-35,0 -67,-31t-50,-81q-29,-79 -41,-164q0,-3 0,-11t-1,-12q0,-45 18,-62t43,-18q54,0 111,72l8,11l54,217z"/>
         <path id="svg_321" stroke-width="10" d="m109,429q-27,0 -43,18t-16,44q0,71 53,123t132,52q91,0 152,-56t62,-145q0,-43 -20,-82t-48,-68t-80,-74q-36,-31 -100,-92l-59,-56l76,-1q157,0 167,5q7,2 24,89l0,3l40,0l0,-3q-1,-3 -13,-91t-15,-92l0,-3l-371,0l0,19l0,12q0,7 6,15t30,35q29,32 50,56q9,10 34,37t34,37t29,33t28,34t23,30t21,32t15,29t13,32t7,30t3,33q0,63 -34,109t-97,46q-33,0 -58,-17t-35,-33t-10,-19q0,-1 5,-1q18,0 37,-14t19,-46q0,-25 -16,-42t-45,-18z"/>
         <path id="svg_329" stroke-width="10" d="m94,250q0,69 10,131t23,107t37,88t38,67t42,52t33,34t25,21l13,0l4,0q14,0 14,-9q0,-3 -17,-21t-41,-53t-49,-86t-42,-138t-17,-193t17,-192t41,-139t49,-86t42,-53t17,-21q0,-9 -15,-9l-3,0l-13,0l-28,24q-94,85 -137,212t-43,264z"/>
         <path id="svg_328" stroke-width="10" d="m84,237t0,13t14,20l581,0q15,-8 15,-20t-15,-20l-581,0q-14,7 -14,20l0,-13z"/>
         <path id="svg_327" stroke-width="10" d="m213,578l-13,-5q-14,-5 -40,-10t-58,-7l-19,0l0,46l19,0q47,2 87,15t56,24t28,22q2,3 12,3q9,0 17,-6l0,-299l1,-300q7,-7 12,-9t24,-4t62,-2l26,0l0,-46l-11,0q-21,3 -159,3q-136,0 -157,-3l-12,0l0,46l26,0q22,0 38,0t25,1t16,3t8,2t6,5t6,4l0,517z"/>
         <path id="svg_326" stroke-width="10" d="m60,749l4,1q5,0 10,0l12,0l28,-24q94,-85 137,-212t43,-264q0,-68 -10,-131t-23,-107t-37,-88t-38,-67t-41,-51t-32,-33t-23,-19q-3,-3 -4,-4l-12,0q-8,0 -11,0t-5,3t-3,9q1,1 11,13q155,161 155,475t-155,475q-10,12 -11,13q0,8 5,11z"/>
         <path id="svg_325" stroke-width="10" d="m308,24q59,0 108,52t50,121q0,63 -52,87q-106,27 -136,37t-42,20q-60,42 -60,121q0,61 32,111t65,75q29,25 70,40t64,16l11,0l7,0q96,0 139,-64q1,0 13,13t26,29t20,22q1,0 4,0t5,1q13,0 13,-7t-28,-121t-32,-118t-16,-3q-20,0 -20,9q0,6 1,10q0,3 1,19t2,26q0,34 -9,59t-18,37t-25,25q-36,21 -82,21q-57,0 -106,-46t-50,-106q0,-30 15,-52t41,-31q4,-2 70,-19t67,-18q34,-11 66,-48t32,-100q0,-26 -8,-56q-5,-22 -18,-49t-36,-59t-66,-60t-94,-38q-12,-2 -34,-2q-99,0 -154,55l-10,11l-28,-31q-23,-27 -28,-31t-13,-4q-13,0 -13,8q0,3 58,235q2,6 20,6l13,0q6,-6 6,-11q0,-2 -1,-9t-4,-21t-2,-33q2,-39 18,-66t43,-40t52,-18t53,-5z"/>
         <path id="svg_324" stroke-width="10" d="m66,637q-12,0 -17,0t-10,1t-7,3t-2,6t3,17t9,18q2,1 14,1q48,-3 109,-3q123,0 141,3l10,0q6,-6 6,-9t-2,-18q-4,-13 -10,-19l-12,0q-56,0 -56,-13q0,-5 50,-147t51,-144l3,3q4,4 12,13t21,24t32,37t43,51q92,107 107,126t16,31q0,16 -32,19q-17,0 -17,10q0,2 2,14q3,15 5,18t14,4q2,0 29,-1t79,-2q27,0 56,1t33,1q17,0 17,-9q0,-4 -3,-16t-5,-14q-2,-6 -21,-6q-72,-5 -117,-50q-9,-9 -140,-163l-129,-151l-26,-104q-27,-107 -27,-112q0,-11 68,-11q16,0 21,-1t6,-10q0,-2 -2,-12q-4,-17 -6,-19t-16,-3q-5,0 -42,0t-92,1q-62,0 -94,0t-36,-1q-18,0 -18,8q0,5 3,15q1,3 2,6t1,5t1,4t2,3t3,2t5,1t6,0t9,1t13,0q39,1 51,4t18,13q3,5 29,108l25,103l-123,349q-1,1 -2,2t-2,2t-3,2t-4,2t-5,2t-8,1t-9,1t-13,1t-17,1z"/>
         <path id="svg_323" stroke-width="10" d="m42,0l-2,0q-14,0 -14,11q0,4 3,16q4,14 7,16t19,3q86,3 135,52q10,10 116,126t105,118q-109,278 -114,283q-9,11 -63,12l-28,0q-6,6 -6,8t2,19q4,13 10,19l14,0q34,-2 121,-2q33,0 61,0t45,1t20,0q17,0 17,-11q0,-1 -2,-13q-4,-15 -7,-18t-16,-3q-31,-3 -54,-17l77,-194l53,59q105,113 105,125q0,18 -24,25q-5,0 -13,2q-15,0 -15,11q0,2 2,16q4,13 10,19l12,0q1,0 25,0t54,-2t41,-1q90,0 99,3l8,0q7,-7 7,-11q-2,-25 -12,-35l-16,0q-34,-1 -61,-9t-41,-17t-24,-18l-11,-9q0,1 -95,-104l-87,-96q0,-1 31,-80t65,-162t37,-86q10,-9 61,-10q35,0 35,-9q0,-2 -2,-14q-4,-16 -7,-19t-14,-3q-3,0 -33,0t-89,1q-61,0 -93,0t-35,-1q-17,0 -17,9q0,1 2,15q2,10 4,14t5,5t9,2t16,1t26,7q17,8 17,10q-1,0 -47,117l-47,118q-188,-204 -193,-215q-4,-8 -4,-12q0,-19 29,-25q1,0 6,0t6,-1q3,0 4,0t3,-1t3,-3t1,-7q0,-9 -2,-16q-3,-13 -6,-15t-15,-3q-3,0 -18,0t-42,1t-59,0q-78,0 -100,-2z"/>
         <path id="svg_319" stroke-width="10" d="m52,289q7,42 54,97t116,56q35,0 64,-18t43,-45q42,63 101,63q37,0 64,-22t28,-59q0,-29 -14,-47t-27,-22t-23,-4q-19,0 -31,11t-12,29q0,46 50,63q-11,13 -40,13q-13,0 -19,-2q-38,-16 -56,-66q-60,-221 -60,-258q0,-28 16,-40t35,-12q37,0 73,33t49,81q3,10 6,11t16,2l4,0q15,0 15,-8q0,-1 -2,-11q-16,-57 -62,-101t-107,-44q-70,0 -106,63q-41,-62 -94,-62l-6,0q-49,0 -70,26t-22,55q0,32 19,52t45,20q43,0 43,-42q0,-20 -12,-35t-23,-20t-13,-5l-3,-1q0,-1 6,-4t16,-7t19,-3q36,0 62,45q9,16 23,68t28,108t16,66q5,27 5,39q0,28 -15,40t-34,12q-40,0 -75,-32t-49,-82q-2,-9 -5,-10t-16,-2l-14,0q-6,6 -6,11z"/>
         <path id="svg_317" stroke-width="10" d="m56,237t0,13t14,20l299,0l0,150l1,150q10,13 19,13q13,0 20,-15l0,-298l298,0q15,-8 15,-20t-15,-20l-298,0l0,-298q-8,-14 -18,-14l-2,0l-2,0q-12,0 -18,14l0,298l-299,0q-14,7 -14,20l0,-13z"/>
         <path id="svg_315" stroke-width="10" d="m21,287q0,14 15,48t48,71t74,36q41,0 66,-23t26,-64q-2,-19 -3,-21q0,-3 -16,-46t-33,-97t-16,-86q0,-43 14,-60t42,-18q23,0 43,11t31,23t27,33q0,1 5,20t14,59t19,74q38,150 42,157q13,27 43,27q13,0 21,-7t11,-12t2,-9q0,-13 -49,-210t-56,-216q-28,-83 -97,-132t-138,-50q-45,0 -79,22t-34,66q0,22 7,37t19,22t20,10t17,3q44,0 44,-42q0,-20 -12,-35t-23,-20t-13,-5l-3,-1q2,-5 19,-12t34,-7l8,0q17,0 26,2q33,9 61,38t43,62t23,56t8,30l-6,-4q-6,-4 -19,-11t-26,-12q-20,-5 -39,-5q-46,0 -81,22t-46,71q-1,7 -1,31q0,57 35,149t35,117q0,1 0,2q0,9 0,12t-4,7t-11,4l-4,0q-23,0 -42,-19t-30,-41t-17,-42t-8,-22q-2,-2 -16,-2l-14,0q-6,6 -6,9z"/>
         <path id="svg_313" stroke-width="10" d="m56,347q0,13 14,20l637,0q15,-8 15,-20q0,-11 -14,-19l-318,-1l-318,0q-16,5 -16,20zm0,-194q0,15 16,20l636,0q14,-10 14,-20q0,-13 -15,-20l-637,0q-14,7 -14,20z"/>
         <path id="svg_311" stroke-width="10" d="m127,463q-27,0 -42,17t-16,44q0,55 48,98t116,43q35,0 44,-1q74,-12 113,-53t40,-89q0,-52 -34,-101t-94,-71l-3,-2q0,-1 9,-3t29,-9t38,-21q82,-53 82,-140q0,-79 -62,-138t-157,-59q-80,0 -138,43t-58,109q0,28 18,45t45,18q28,0 46,-18t18,-45q0,-11 -3,-20t-7,-16t-11,-12t-12,-8t-10,-4t-8,-3l-4,-1q51,-45 124,-45q55,0 83,53q17,33 17,101l0,20q0,95 -64,127q-15,6 -61,7l-42,1l-3,2q-2,3 -2,16q0,18 8,18q28,0 58,5q34,5 62,42t28,112l0,8q0,57 -35,79q-22,14 -47,14q-32,0 -59,-11t-38,-23t-11,-12l3,0q3,-1 8,-2t10,-5t12,-7t10,-11t8,-15t3,-20q0,-22 -14,-39t-45,-18z"/>
         <path id="svg_322" stroke-width="10" d="m42,313q0,163 81,258t180,95q69,0 99,-36t30,-80q0,-25 -14,-40t-39,-15q-23,0 -38,14t-15,39q0,44 47,53q-22,22 -62,25q-71,0 -117,-60q-47,-66 -47,-202l1,-4q5,6 8,13q41,60 107,60l4,0q46,0 81,-19q24,-14 48,-40t39,-57q21,-49 21,-107l0,-18q0,-23 -5,-43q-11,-59 -64,-115t-134,-56q-28,0 -54,8t-56,30t-51,59t-36,97t-14,141zm215,84q-30,0 -52,-17t-34,-45t-17,-57t-6,-62q0,-83 12,-119t38,-58q24,-18 53,-18q51,0 78,38q13,18 18,45t5,105q0,80 -5,107t-18,45q-27,36 -72,36z"/>
        </defs>
        <g stroke="rgb(68, 68, 68)" fill="rgb(68, 68, 68)" stroke-width="0" transform="matrix(1 0 0 -1 0 0)" id="svg_309">
         <use xlink:href="#svg_321" id="svg_320"/>
         <use xlink:href="#svg_319" x="505" y="0" id="svg_318"/>
         <use xlink:href="#svg_317" x="1304" y="0" id="svg_316"/>
         <use xlink:href="#svg_315" x="2309" y="0" id="svg_314"/>
         <use xlink:href="#svg_313" x="3089" y="0" id="svg_312"/>
         <use xlink:href="#svg_311" x="4150" y="0" id="svg_310"/>
        </g>
       </svg>
      </g>
     </g>
     <g class="traces" id="svg_233">
      <g class="legendfill" id="svg_264"/>
      <g class="legendlines" id="svg_262">
       <path class="js-line" d="m5,52.5l30,0" stroke-width="2px" stroke="rgb(31, 119, 180)" fill="none" id="svg_263"/>
      </g>
      <g class="legendsymbols" id="svg_259">
       <g class="legendpoints" id="svg_260">
        <path class="scatterpts" d="m23,52.5a3,3 0 1 1 -3,-3a3,3 0 0 1 3,3z" fill="rgb(31, 119, 180)" stroke-width="0px" id="svg_261"/>
       </g>
      </g>
      <rect class="legendtoggle" x="0" y="43" height="19" width="126.98438" fill-opacity="0" fill="rgb(0, 0, 0)" id="svg_258"/>
      <g class="legendtext-math-group" id="svg_234">
       <svg xmlns:xlink="http://www.w3.org/1999/xlink" viewBox="0 -688.7742397004789 4655 916.5484794009578" class="legendtext-math" height="2.182ex" preserveAspectRatio="xMinYMin meet" x="40" y="46.64548" width="10.727ex" id="svg_331">
        <defs>
         <path id="svg_353" stroke-width="10" d="m33,157q0,101 76,192t171,92q60,0 92,-52q1,1 5,6t11,11t16,12q34,24 46,24q4,0 7,-3t3,-5q0,-9 -69,-285q-71,-284 -71,-288q0,-8 45,-9l25,0q6,-8 6,-9t-3,-18q-4,-13 -10,-19l-13,0q-31,2 -108,2q-28,0 -51,0t-37,0t-17,-1q-14,0 -14,8q0,3 2,15q4,16 7,19t20,3q48,0 58,7q8,5 28,88t21,85q0,1 -7,-3q-48,-39 -100,-39q-55,0 -97,40t-42,127zm319,169q-23,79 -75,79q-35,0 -67,-31t-50,-81q-29,-79 -41,-164q0,-3 0,-11t-1,-12q0,-45 18,-62t43,-18q54,0 111,72l8,11l54,217z"/>
         <path id="svg_340" stroke-width="10" d="m109,429q-27,0 -43,18t-16,44q0,71 53,123t132,52q91,0 152,-56t62,-145q0,-43 -20,-82t-48,-68t-80,-74q-36,-31 -100,-92l-59,-56l76,-1q157,0 167,5q7,2 24,89l0,3l40,0l0,-3q-1,-3 -13,-91t-15,-92l0,-3l-371,0l0,19l0,12q0,7 6,15t30,35q29,32 50,56q9,10 34,37t34,37t29,33t28,34t23,30t21,32t15,29t13,32t7,30t3,33q0,63 -34,109t-97,46q-33,0 -58,-17t-35,-33t-10,-19q0,-1 5,-1q18,0 37,-14t19,-46q0,-25 -16,-42t-45,-18z"/>
         <path id="svg_352" stroke-width="10" d="m94,250q0,69 10,131t23,107t37,88t38,67t42,52t33,34t25,21l13,0l4,0q14,0 14,-9q0,-3 -17,-21t-41,-53t-49,-86t-42,-138t-17,-193t17,-192t41,-139t49,-86t42,-53t17,-21q0,-9 -15,-9l-3,0l-13,0l-28,24q-94,85 -137,212t-43,264z"/>
         <path id="svg_351" stroke-width="10" d="m84,237t0,13t14,20l581,0q15,-8 15,-20t-15,-20l-581,0q-14,7 -14,20l0,-13z"/>
         <path id="svg_350" stroke-width="10" d="m213,578l-13,-5q-14,-5 -40,-10t-58,-7l-19,0l0,46l19,0q47,2 87,15t56,24t28,22q2,3 12,3q9,0 17,-6l0,-299l1,-300q7,-7 12,-9t24,-4t62,-2l26,0l0,-46l-11,0q-21,3 -159,3q-136,0 -157,-3l-12,0l0,46l26,0q22,0 38,0t25,1t16,3t8,2t6,5t6,4l0,517z"/>
         <path id="svg_349" stroke-width="10" d="m60,749l4,1q5,0 10,0l12,0l28,-24q94,-85 137,-212t43,-264q0,-68 -10,-131t-23,-107t-37,-88t-38,-67t-41,-51t-32,-33t-23,-19q-3,-3 -4,-4l-12,0q-8,0 -11,0t-5,3t-3,9q1,1 11,13q155,161 155,475t-155,475q-10,12 -11,13q0,8 5,11z"/>
         <path id="svg_348" stroke-width="10" d="m308,24q59,0 108,52t50,121q0,63 -52,87q-106,27 -136,37t-42,20q-60,42 -60,121q0,61 32,111t65,75q29,25 70,40t64,16l11,0l7,0q96,0 139,-64q1,0 13,13t26,29t20,22q1,0 4,0t5,1q13,0 13,-7t-28,-121t-32,-118t-16,-3q-20,0 -20,9q0,6 1,10q0,3 1,19t2,26q0,34 -9,59t-18,37t-25,25q-36,21 -82,21q-57,0 -106,-46t-50,-106q0,-30 15,-52t41,-31q4,-2 70,-19t67,-18q34,-11 66,-48t32,-100q0,-26 -8,-56q-5,-22 -18,-49t-36,-59t-66,-60t-94,-38q-12,-2 -34,-2q-99,0 -154,55l-10,11l-28,-31q-23,-27 -28,-31t-13,-4q-13,0 -13,8q0,3 58,235q2,6 20,6l13,0q6,-6 6,-11q0,-2 -1,-9t-4,-21t-2,-33q2,-39 18,-66t43,-40t52,-18t53,-5z"/>
         <path id="svg_347" stroke-width="10" d="m66,637q-12,0 -17,0t-10,1t-7,3t-2,6t3,17t9,18q2,1 14,1q48,-3 109,-3q123,0 141,3l10,0q6,-6 6,-9t-2,-18q-4,-13 -10,-19l-12,0q-56,0 -56,-13q0,-5 50,-147t51,-144l3,3q4,4 12,13t21,24t32,37t43,51q92,107 107,126t16,31q0,16 -32,19q-17,0 -17,10q0,2 2,14q3,15 5,18t14,4q2,0 29,-1t79,-2q27,0 56,1t33,1q17,0 17,-9q0,-4 -3,-16t-5,-14q-2,-6 -21,-6q-72,-5 -117,-50q-9,-9 -140,-163l-129,-151l-26,-104q-27,-107 -27,-112q0,-11 68,-11q16,0 21,-1t6,-10q0,-2 -2,-12q-4,-17 -6,-19t-16,-3q-5,0 -42,0t-92,1q-62,0 -94,0t-36,-1q-18,0 -18,8q0,5 3,15q1,3 2,6t1,5t1,4t2,3t3,2t5,1t6,0t9,1t13,0q39,1 51,4t18,13q3,5 29,108l25,103l-123,349q-1,1 -2,2t-2,2t-3,2t-4,2t-5,2t-8,1t-9,1t-13,1t-17,1z"/>
         <path id="svg_346" stroke-width="10" d="m42,0l-2,0q-14,0 -14,11q0,4 3,16q4,14 7,16t19,3q86,3 135,52q10,10 116,126t105,118q-109,278 -114,283q-9,11 -63,12l-28,0q-6,6 -6,8t2,19q4,13 10,19l14,0q34,-2 121,-2q33,0 61,0t45,1t20,0q17,0 17,-11q0,-1 -2,-13q-4,-15 -7,-18t-16,-3q-31,-3 -54,-17l77,-194l53,59q105,113 105,125q0,18 -24,25q-5,0 -13,2q-15,0 -15,11q0,2 2,16q4,13 10,19l12,0q1,0 25,0t54,-2t41,-1q90,0 99,3l8,0q7,-7 7,-11q-2,-25 -12,-35l-16,0q-34,-1 -61,-9t-41,-17t-24,-18l-11,-9q0,1 -95,-104l-87,-96q0,-1 31,-80t65,-162t37,-86q10,-9 61,-10q35,0 35,-9q0,-2 -2,-14q-4,-16 -7,-19t-14,-3q-3,0 -33,0t-89,1q-61,0 -93,0t-35,-1q-17,0 -17,9q0,1 2,15q2,10 4,14t5,5t9,2t16,1t26,7q17,8 17,10q-1,0 -47,117l-47,118q-188,-204 -193,-215q-4,-8 -4,-12q0,-19 29,-25q1,0 6,0t6,-1q3,0 4,0t3,-1t3,-3t1,-7q0,-9 -2,-16q-3,-13 -6,-15t-15,-3q-3,0 -18,0t-42,1t-59,0q-78,0 -100,-2z"/>
         <path id="svg_344" stroke-width="10" d="m52,289q7,42 54,97t116,56q35,0 64,-18t43,-45q42,63 101,63q37,0 64,-22t28,-59q0,-29 -14,-47t-27,-22t-23,-4q-19,0 -31,11t-12,29q0,46 50,63q-11,13 -40,13q-13,0 -19,-2q-38,-16 -56,-66q-60,-221 -60,-258q0,-28 16,-40t35,-12q37,0 73,33t49,81q3,10 6,11t16,2l4,0q15,0 15,-8q0,-1 -2,-11q-16,-57 -62,-101t-107,-44q-70,0 -106,63q-41,-62 -94,-62l-6,0q-49,0 -70,26t-22,55q0,32 19,52t45,20q43,0 43,-42q0,-20 -12,-35t-23,-20t-13,-5l-3,-1q0,-1 6,-4t16,-7t19,-3q36,0 62,45q9,16 23,68t28,108t16,66q5,27 5,39q0,28 -15,40t-34,12q-40,0 -75,-32t-49,-82q-2,-9 -5,-10t-16,-2l-14,0q-6,6 -6,11z"/>
         <path id="svg_342" stroke-width="10" d="m56,237t0,13t14,20l299,0l0,150l1,150q10,13 19,13q13,0 20,-15l0,-298l298,0q15,-8 15,-20t-15,-20l-298,0l0,-298q-8,-14 -18,-14l-2,0l-2,0q-12,0 -18,14l0,298l-299,0q-14,7 -14,20l0,-13z"/>
         <path id="svg_338" stroke-width="10" d="m21,287q0,14 15,48t48,71t74,36q41,0 66,-23t26,-64q-2,-19 -3,-21q0,-3 -16,-46t-33,-97t-16,-86q0,-43 14,-60t42,-18q23,0 43,11t31,23t27,33q0,1 5,20t14,59t19,74q38,150 42,157q13,27 43,27q13,0 21,-7t11,-12t2,-9q0,-13 -49,-210t-56,-216q-28,-83 -97,-132t-138,-50q-45,0 -79,22t-34,66q0,22 7,37t19,22t20,10t17,3q44,0 44,-42q0,-20 -12,-35t-23,-20t-13,-5l-3,-1q2,-5 19,-12t34,-7l8,0q17,0 26,2q33,9 61,38t43,62t23,56t8,30l-6,-4q-6,-4 -19,-11t-26,-12q-20,-5 -39,-5q-46,0 -81,22t-46,71q-1,7 -1,31q0,57 35,149t35,117q0,1 0,2q0,9 0,12t-4,7t-11,4l-4,0q-23,0 -42,-19t-30,-41t-17,-42t-8,-22q-2,-2 -16,-2l-14,0q-6,6 -6,9z"/>
         <path id="svg_336" stroke-width="10" d="m56,347q0,13 14,20l637,0q15,-8 15,-20q0,-11 -14,-19l-318,-1l-318,0q-16,5 -16,20zm0,-194q0,15 16,20l636,0q14,-10 14,-20q0,-13 -15,-20l-637,0q-14,7 -14,20z"/>
         <path id="svg_345" stroke-width="10" d="m127,463q-27,0 -42,17t-16,44q0,55 48,98t116,43q35,0 44,-1q74,-12 113,-53t40,-89q0,-52 -34,-101t-94,-71l-3,-2q0,-1 9,-3t29,-9t38,-21q82,-53 82,-140q0,-79 -62,-138t-157,-59q-80,0 -138,43t-58,109q0,28 18,45t45,18q28,0 46,-18t18,-45q0,-11 -3,-20t-7,-16t-11,-12t-12,-8t-10,-4t-8,-3l-4,-1q51,-45 124,-45q55,0 83,53q17,33 17,101l0,20q0,95 -64,127q-15,6 -61,7l-42,1l-3,2q-2,3 -2,16q0,18 8,18q28,0 58,5q34,5 62,42t28,112l0,8q0,57 -35,79q-22,14 -47,14q-32,0 -59,-11t-38,-23t-11,-12l3,0q3,-1 8,-2t10,-5t12,-7t10,-11t8,-15t3,-20q0,-22 -14,-39t-45,-18z"/>
         <path id="svg_334" stroke-width="10" d="m42,313q0,163 81,258t180,95q69,0 99,-36t30,-80q0,-25 -14,-40t-39,-15q-23,0 -38,14t-15,39q0,44 47,53q-22,22 -62,25q-71,0 -117,-60q-47,-66 -47,-202l1,-4q5,6 8,13q41,60 107,60l4,0q46,0 81,-19q24,-14 48,-40t39,-57q21,-49 21,-107l0,-18q0,-23 -5,-43q-11,-59 -64,-115t-134,-56q-28,0 -54,8t-56,30t-51,59t-36,97t-14,141zm215,84q-30,0 -52,-17t-34,-45t-17,-57t-6,-62q0,-83 12,-119t38,-58q24,-18 53,-18q51,0 78,38q13,18 18,45t5,105q0,80 -5,107t-18,45q-27,36 -72,36z"/>
        </defs>
        <g stroke="rgb(68, 68, 68)" fill="rgb(68, 68, 68)" stroke-width="0" transform="matrix(1 0 0 -1 0 0)" id="svg_332">
         <use xlink:href="#svg_344" id="svg_343"/>
         <use xlink:href="#svg_342" x="799" y="0" id="svg_341"/>
         <use xlink:href="#svg_340" x="1804" y="0" id="svg_339"/>
         <use xlink:href="#svg_338" x="2309" y="0" id="svg_337"/>
         <use xlink:href="#svg_336" x="3089" y="0" id="svg_335"/>
         <use xlink:href="#svg_334" x="4150" y="0" id="svg_333"/>
        </g>
       </svg>
      </g>
     </g>
    </svg>
   </g>
  </g>
 </g>
</svg>