<?xml version="1.0" encoding="UTF-8"?>
<svg xmlns="http://www.w3.org/2000/svg" xmlns:xlink="http://www.w3.org/1999/xlink" width="255.60059pt" height="141.29883pt" viewBox="0 0 255.60059 141.29883" version="1.1">
<g id="surface1">
<path style=" stroke:none;fill-rule:nonzero;fill:rgb(0%,0%,0%);fill-opacity:1;" d="M 0 0 L 255.601562 0 L 255.601562 1.5 L 0 1.5 Z M 0 0 "/>
<path style=" stroke:none;fill-rule:nonzero;fill:rgb(0%,0%,0%);fill-opacity:1;" d="M 12.511719 14.417969 C 14.582031 14.417969 16.007812 12.933594 16.007812 11.390625 C 16.007812 9.808594 14.542969 8.363281 12.511719 8.363281 L 8.878906 8.363281 L 8.878906 18.734375 L 10.148438 18.734375 L 10.148438 14.417969 Z M 12.199219 9.203125 C 13.957031 9.203125 14.816406 10.238281 14.816406 11.371094 C 14.816406 12.542969 13.898438 13.558594 12.199219 13.558594 L 10.128906 13.558594 L 10.128906 9.203125 Z M 12.199219 9.203125 "/>
<path style=" stroke:none;fill-rule:nonzero;fill:rgb(0%,0%,0%);fill-opacity:1;" d="M 19.078125 15.453125 C 19.078125 13.949219 20.210938 12.972656 21.558594 12.953125 L 21.558594 11.957031 C 20.210938 11.957031 19.410156 12.757812 19 13.34375 L 19 12.035156 L 17.984375 12.035156 L 17.984375 18.734375 L 19.078125 18.734375 Z M 19.078125 15.453125 "/>
<path style=" stroke:none;fill-rule:nonzero;fill:rgb(0%,0%,0%);fill-opacity:1;" d="M 28.617188 15.453125 C 28.617188 13.421875 27.132812 11.878906 25.414062 11.878906 C 23.65625 11.878906 22.210938 13.460938 22.210938 15.453125 C 22.210938 17.40625 23.695312 18.890625 25.414062 18.890625 C 27.171875 18.890625 28.617188 17.367188 28.617188 15.453125 Z M 25.414062 17.953125 C 24.339844 17.953125 23.34375 17.054688 23.34375 15.296875 C 23.34375 13.480469 24.457031 12.777344 25.414062 12.777344 C 26.429688 12.777344 27.484375 13.558594 27.484375 15.296875 C 27.484375 17.132812 26.429688 17.953125 25.414062 17.953125 Z M 25.414062 17.953125 "/>
<path style=" stroke:none;fill-rule:nonzero;fill:rgb(0%,0%,0%);fill-opacity:1;" d="M 31.378906 8.363281 L 30.285156 8.363281 L 30.285156 18.734375 L 31.417969 18.734375 L 31.417969 18.070312 C 32.101562 18.714844 32.824219 18.890625 33.351562 18.890625 C 34.777344 18.890625 36.066406 17.425781 36.066406 15.394531 C 36.066406 13.558594 35.089844 11.957031 33.703125 11.957031 C 33.273438 11.957031 32.316406 12.035156 31.378906 12.796875 Z M 31.417969 13.695312 C 31.691406 13.285156 32.21875 12.855469 32.960938 12.855469 C 33.859375 12.855469 34.933594 13.539062 34.933594 15.394531 C 34.933594 17.347656 33.722656 17.992188 32.804688 17.992188 C 32.394531 17.992188 32.101562 17.835938 31.828125 17.621094 C 31.476562 17.308594 31.417969 17.054688 31.417969 16.800781 Z M 31.417969 13.695312 "/>
<path style=" stroke:none;fill-rule:nonzero;fill:rgb(0%,0%,0%);fill-opacity:1;" d="M 42.453125 14.359375 C 42.453125 12.914062 41.417969 11.878906 40.03125 11.878906 C 39.132812 11.878906 38.46875 12.09375 37.726562 12.503906 L 37.824219 13.480469 C 38.488281 13.011719 39.171875 12.738281 40.03125 12.738281 C 40.714844 12.738281 41.320312 13.304688 41.320312 14.378906 L 41.320312 15.003906 C 40.65625 15.023438 39.757812 15.082031 38.859375 15.375 C 37.84375 15.707031 37.277344 16.273438 37.277344 17.015625 C 37.277344 17.679688 37.667969 18.890625 38.9375 18.890625 C 39.757812 18.890625 40.792969 18.636719 41.359375 18.1875 L 41.359375 18.734375 L 42.453125 18.734375 Z M 41.320312 16.722656 C 41.320312 17.035156 41.320312 17.386719 40.832031 17.679688 C 40.421875 17.933594 39.914062 17.992188 39.699219 17.992188 C 38.878906 17.992188 38.332031 17.5625 38.332031 16.996094 C 38.332031 15.980469 40.402344 15.765625 41.320312 15.765625 Z M 41.320312 16.722656 "/>
<path style=" stroke:none;fill-rule:nonzero;fill:rgb(0%,0%,0%);fill-opacity:1;" d="M 45.929688 8.363281 L 44.835938 8.363281 L 44.835938 18.734375 L 45.96875 18.734375 L 45.96875 18.070312 C 46.652344 18.714844 47.375 18.890625 47.902344 18.890625 C 49.328125 18.890625 50.617188 17.425781 50.617188 15.394531 C 50.617188 13.558594 49.640625 11.957031 48.253906 11.957031 C 47.824219 11.957031 46.867188 12.035156 45.929688 12.796875 Z M 45.96875 13.695312 C 46.242188 13.285156 46.769531 12.855469 47.511719 12.855469 C 48.410156 12.855469 49.484375 13.539062 49.484375 15.394531 C 49.484375 17.347656 48.273438 17.992188 47.355469 17.992188 C 46.945312 17.992188 46.652344 17.835938 46.378906 17.621094 C 46.027344 17.308594 45.96875 17.054688 45.96875 16.800781 Z M 45.96875 13.695312 "/>
<path style=" stroke:none;fill-rule:nonzero;fill:rgb(0%,0%,0%);fill-opacity:1;" d="M 53.527344 8.597656 L 52.238281 8.597656 L 52.238281 9.867188 L 53.527344 9.867188 Z M 53.429688 12.09375 L 52.335938 12.09375 L 52.335938 18.734375 L 53.429688 18.734375 Z M 53.429688 12.09375 "/>
<path style=" stroke:none;fill-rule:nonzero;fill:rgb(0%,0%,0%);fill-opacity:1;" d="M 56.878906 8.363281 L 55.785156 8.363281 L 55.785156 18.734375 L 56.878906 18.734375 Z M 56.878906 8.363281 "/>
<path style=" stroke:none;fill-rule:nonzero;fill:rgb(0%,0%,0%);fill-opacity:1;" d="M 60.425781 8.597656 L 59.136719 8.597656 L 59.136719 9.867188 L 60.425781 9.867188 Z M 60.328125 12.09375 L 59.234375 12.09375 L 59.234375 18.734375 L 60.328125 18.734375 Z M 60.328125 12.09375 "/>
<path style=" stroke:none;fill-rule:nonzero;fill:rgb(0%,0%,0%);fill-opacity:1;" d="M 64.074219 12.972656 L 66.125 12.972656 L 66.125 12.09375 L 64.074219 12.09375 L 64.074219 10.199219 L 63.039062 10.199219 L 63.039062 12.09375 L 61.789062 12.09375 L 61.789062 12.972656 L 63 12.972656 L 63 16.976562 C 63 17.855469 63.195312 18.890625 64.230469 18.890625 C 65.226562 18.890625 65.929688 18.539062 66.378906 18.304688 L 66.164062 17.425781 C 65.636719 17.894531 65.089844 17.953125 64.816406 17.953125 C 64.152344 17.953125 64.074219 17.25 64.074219 16.722656 Z M 64.074219 12.972656 "/>
<path style=" stroke:none;fill-rule:nonzero;fill:rgb(0%,0%,0%);fill-opacity:1;" d="M 72.777344 12.09375 L 71.664062 12.09375 C 70.980469 13.871094 69.828125 16.800781 69.769531 17.875 L 69.75 17.875 C 69.671875 16.976562 68.890625 15.023438 68.753906 14.710938 L 67.699219 12.09375 L 66.527344 12.09375 L 69.300781 18.734375 L 68.773438 20.101562 C 68.441406 20.84375 68.226562 20.921875 67.953125 20.921875 C 67.738281 20.921875 67.269531 20.863281 66.800781 20.6875 L 66.898438 21.664062 C 66.976562 21.683594 67.484375 21.78125 67.953125 21.78125 C 68.324219 21.78125 69.007812 21.78125 69.652344 20.140625 Z M 72.777344 12.09375 "/>
<path style=" stroke:none;fill-rule:nonzero;fill:rgb(0%,0%,0%);fill-opacity:1;" d="M 97.875 13.578125 C 97.875 10.414062 95.726562 8.050781 93.304688 8.050781 C 90.824219 8.050781 88.714844 10.453125 88.714844 13.578125 C 88.714844 16.722656 90.882812 19.046875 93.285156 19.046875 C 95.765625 19.046875 97.875 16.703125 97.875 13.578125 Z M 93.304688 18.109375 C 91.566406 18.109375 90.003906 16.234375 90.003906 13.363281 C 90.003906 10.609375 91.625 8.96875 93.285156 8.96875 C 95.003906 8.96875 96.585938 10.648438 96.585938 13.363281 C 96.585938 16.292969 94.984375 18.109375 93.304688 18.109375 Z M 93.304688 18.109375 "/>
<path style=" stroke:none;fill-rule:nonzero;fill:rgb(0%,0%,0%);fill-opacity:1;" d="M 101.292969 12.972656 L 102.894531 12.972656 L 102.894531 12.09375 L 101.273438 12.09375 L 101.273438 10.316406 C 101.273438 9.300781 102.113281 9.105469 102.621094 9.105469 C 103.128906 9.105469 103.597656 9.28125 103.773438 9.359375 L 103.773438 8.363281 C 103.675781 8.34375 103.1875 8.207031 102.621094 8.207031 C 101.214844 8.207031 100.199219 9.300781 100.199219 10.746094 L 100.199219 12.09375 L 99.105469 12.09375 L 99.105469 12.972656 L 100.199219 12.972656 L 100.199219 18.734375 L 101.292969 18.734375 Z M 101.292969 12.972656 "/>
<path style=" stroke:none;fill-rule:nonzero;fill:rgb(0%,0%,0%);fill-opacity:1;" d="M 223.796875 8.363281 L 222.664062 8.363281 L 220.808594 13.324219 C 220.203125 14.925781 219.460938 16.898438 219.285156 17.621094 C 219.148438 16.976562 218.660156 15.726562 218.308594 14.769531 L 215.925781 8.363281 L 214.578125 8.363281 L 218.523438 18.734375 L 219.871094 18.734375 Z M 223.796875 8.363281 "/>
<path style=" stroke:none;fill-rule:nonzero;fill:rgb(0%,0%,0%);fill-opacity:1;" d="M 229.355469 14.359375 C 229.355469 12.914062 228.320312 11.878906 226.933594 11.878906 C 226.035156 11.878906 225.371094 12.09375 224.628906 12.503906 L 224.726562 13.480469 C 225.390625 13.011719 226.074219 12.738281 226.933594 12.738281 C 227.617188 12.738281 228.222656 13.304688 228.222656 14.378906 L 228.222656 15.003906 C 227.558594 15.023438 226.660156 15.082031 225.761719 15.375 C 224.746094 15.707031 224.179688 16.273438 224.179688 17.015625 C 224.179688 17.679688 224.570312 18.890625 225.839844 18.890625 C 226.660156 18.890625 227.695312 18.636719 228.261719 18.1875 L 228.261719 18.734375 L 229.355469 18.734375 Z M 228.222656 16.722656 C 228.222656 17.035156 228.222656 17.386719 227.734375 17.679688 C 227.324219 17.933594 226.816406 17.992188 226.601562 17.992188 C 225.78125 17.992188 225.234375 17.5625 225.234375 16.996094 C 225.234375 15.980469 227.304688 15.765625 228.222656 15.765625 Z M 228.222656 16.722656 "/>
<path style=" stroke:none;fill-rule:nonzero;fill:rgb(0%,0%,0%);fill-opacity:1;" d="M 232.828125 8.363281 L 231.734375 8.363281 L 231.734375 18.734375 L 232.828125 18.734375 Z M 232.828125 8.363281 "/>
<path style=" stroke:none;fill-rule:nonzero;fill:rgb(0%,0%,0%);fill-opacity:1;" d="M 240.34375 12.09375 L 239.210938 12.09375 L 239.210938 16.371094 C 239.210938 17.503906 238.429688 18.070312 237.453125 18.070312 C 236.398438 18.070312 236.300781 17.679688 236.300781 17.015625 L 236.300781 12.09375 L 235.167969 12.09375 L 235.167969 17.074219 C 235.167969 18.148438 235.5 18.890625 236.730469 18.890625 C 237.160156 18.890625 238.332031 18.8125 239.25 17.992188 L 239.25 18.734375 L 240.34375 18.734375 Z M 240.34375 12.09375 "/>
<path style=" stroke:none;fill-rule:nonzero;fill:rgb(0%,0%,0%);fill-opacity:1;" d="M 247.589844 15.375 C 247.589844 14.730469 247.53125 13.8125 247.0625 13.03125 C 246.4375 11.996094 245.402344 11.878906 244.972656 11.878906 C 243.351562 11.878906 242.003906 13.421875 242.003906 15.375 C 242.003906 17.347656 243.449219 18.890625 245.167969 18.890625 C 245.871094 18.890625 246.691406 18.695312 247.511719 18.089844 C 247.511719 18.03125 247.453125 17.5625 247.453125 17.542969 C 247.453125 17.523438 247.414062 17.191406 247.414062 17.132812 C 246.535156 17.875 245.65625 17.992188 245.207031 17.992188 C 244.054688 17.992188 243.078125 16.957031 243.039062 15.375 Z M 243.136719 14.574219 C 243.390625 13.558594 244.09375 12.777344 244.972656 12.777344 C 245.421875 12.777344 246.457031 12.972656 246.710938 14.574219 Z M 243.136719 14.574219 "/>
<path style=" stroke:none;fill-rule:nonzero;fill:rgb(0%,0%,0%);fill-opacity:1;" d="M 0 27.148438 L 255.601562 27.148438 L 255.601562 28.046875 L 0 28.046875 Z M 0 27.148438 "/>
<path style=" stroke:none;fill-rule:nonzero;fill:rgb(0%,0%,0%);fill-opacity:1;" d="M 37.257812 54.675781 C 37.160156 55.125 37.082031 55.242188 36.476562 55.242188 C 36.300781 55.242188 36.144531 55.242188 36.144531 55.535156 C 36.144531 55.554688 36.164062 55.671875 36.320312 55.671875 C 36.515625 55.671875 36.730469 55.652344 36.925781 55.652344 L 37.570312 55.652344 C 37.882812 55.652344 38.644531 55.671875 38.957031 55.671875 C 39.054688 55.671875 39.230469 55.671875 39.230469 55.417969 C 39.230469 55.242188 39.132812 55.242188 38.878906 55.242188 C 38.175781 55.242188 38.136719 55.144531 38.136719 55.027344 C 38.136719 54.851562 38.800781 52.273438 38.898438 51.921875 C 39.054688 52.351562 39.464844 52.9375 40.246094 52.9375 C 41.925781 52.9375 43.761719 50.730469 43.761719 48.542969 C 43.761719 47.15625 42.980469 46.199219 41.867188 46.199219 C 40.910156 46.199219 40.089844 47.117188 39.933594 47.332031 C 39.816406 46.589844 39.230469 46.199219 38.625 46.199219 C 38.195312 46.199219 37.84375 46.394531 37.570312 46.960938 C 37.296875 47.507812 37.082031 48.425781 37.082031 48.484375 C 37.082031 48.542969 37.160156 48.621094 37.257812 48.621094 C 37.375 48.621094 37.394531 48.601562 37.472656 48.25 C 37.707031 47.371094 37.980469 46.492188 38.585938 46.492188 C 38.9375 46.492188 39.054688 46.726562 39.054688 47.175781 C 39.054688 47.527344 38.996094 47.683594 38.9375 47.957031 Z M 39.835938 48.113281 C 39.953125 47.703125 40.363281 47.273438 40.597656 47.058594 C 40.773438 46.902344 41.261719 46.492188 41.828125 46.492188 C 42.492188 46.492188 42.785156 47.15625 42.785156 47.917969 C 42.785156 48.640625 42.375 50.339844 41.984375 51.101562 C 41.613281 51.921875 40.929688 52.625 40.246094 52.625 C 39.230469 52.625 39.054688 51.355469 39.054688 51.296875 C 39.054688 51.238281 39.09375 51.121094 39.113281 51.042969 Z M 39.835938 48.113281 "/>
<path style=" stroke:none;fill-rule:nonzero;fill:rgb(0%,0%,0%);fill-opacity:1;" d="M 89.28125 42.410156 L 89.28125 52.78125 L 93.109375 52.78125 C 95.609375 52.78125 97.601562 50.515625 97.601562 47.683594 C 97.601562 44.773438 95.628906 42.410156 93.109375 42.410156 Z M 90.53125 51.941406 L 90.53125 43.25 L 92.777344 43.25 C 94.769531 43.25 96.351562 44.96875 96.351562 47.664062 C 96.351562 50.398438 94.691406 51.941406 92.777344 51.941406 Z M 90.53125 51.941406 "/>
<path style=" stroke:none;fill-rule:nonzero;fill:rgb(0%,0%,0%);fill-opacity:1;" d="M 100.679688 49.5 C 100.679688 47.996094 101.8125 47.019531 103.160156 47 L 103.160156 46.003906 C 101.8125 46.003906 101.011719 46.804688 100.601562 47.390625 L 100.601562 46.082031 L 99.585938 46.082031 L 99.585938 52.78125 L 100.679688 52.78125 Z M 100.679688 49.5 "/>
<path style=" stroke:none;fill-rule:nonzero;fill:rgb(0%,0%,0%);fill-opacity:1;" d="M 109.203125 48.40625 C 109.203125 46.960938 108.167969 45.925781 106.78125 45.925781 C 105.882812 45.925781 105.21875 46.140625 104.476562 46.550781 L 104.574219 47.527344 C 105.238281 47.058594 105.921875 46.785156 106.78125 46.785156 C 107.464844 46.785156 108.070312 47.351562 108.070312 48.425781 L 108.070312 49.050781 C 107.40625 49.070312 106.507812 49.128906 105.609375 49.421875 C 104.59375 49.753906 104.027344 50.320312 104.027344 51.0625 C 104.027344 51.726562 104.417969 52.9375 105.6875 52.9375 C 106.507812 52.9375 107.542969 52.683594 108.109375 52.234375 L 108.109375 52.78125 L 109.203125 52.78125 Z M 108.070312 50.769531 C 108.070312 51.082031 108.070312 51.433594 107.582031 51.726562 C 107.171875 51.980469 106.664062 52.039062 106.449219 52.039062 C 105.628906 52.039062 105.082031 51.609375 105.082031 51.042969 C 105.082031 50.027344 107.152344 49.8125 108.070312 49.8125 Z M 108.070312 50.769531 "/>
<path style=" stroke:none;fill-rule:nonzero;fill:rgb(0%,0%,0%);fill-opacity:1;" d="M 119.671875 46.140625 L 118.578125 46.140625 L 117.699219 49.1875 C 117.484375 49.890625 117.054688 51.296875 116.996094 51.941406 C 116.9375 51.589844 116.703125 50.59375 116.390625 49.519531 L 115.394531 46.140625 L 114.378906 46.140625 L 113.519531 49.070312 C 113.246094 50.007812 112.894531 51.296875 112.855469 51.921875 L 112.835938 51.921875 C 112.816406 51.628906 112.660156 50.847656 112.367188 49.832031 L 111.3125 46.140625 L 110.179688 46.140625 L 112.171875 52.78125 L 113.324219 52.78125 C 113.890625 50.90625 114.769531 48.054688 114.847656 47.019531 L 114.867188 47.019531 C 114.886719 47.625 115.199219 48.699219 115.296875 49.050781 L 116.351562 52.78125 L 117.679688 52.78125 Z M 119.671875 46.140625 "/>
<path style=" stroke:none;fill-rule:nonzero;fill:rgb(0%,0%,0%);fill-opacity:1;" d="M 122.226562 42.644531 L 120.9375 42.644531 L 120.9375 43.914062 L 122.226562 43.914062 Z M 122.128906 46.140625 L 121.035156 46.140625 L 121.035156 52.78125 L 122.128906 52.78125 Z M 122.128906 46.140625 "/>
<path style=" stroke:none;fill-rule:nonzero;fill:rgb(0%,0%,0%);fill-opacity:1;" d="M 129.640625 48.289062 C 129.640625 47.371094 129.445312 46.003906 127.648438 46.003906 C 126.808594 46.003906 126.085938 46.375 125.519531 47.097656 L 125.519531 46.082031 L 124.464844 46.082031 L 124.464844 52.78125 L 125.597656 52.78125 L 125.597656 49.070312 C 125.597656 48.132812 125.949219 46.902344 127.082031 46.902344 C 128.46875 46.902344 128.507812 47.859375 128.507812 48.386719 L 128.507812 52.78125 L 129.640625 52.78125 Z M 129.640625 48.289062 "/>
<path style=" stroke:none;fill-rule:nonzero;fill:rgb(0%,0%,0%);fill-opacity:1;" d="M 135.910156 46.902344 C 135.910156 46.902344 135.929688 46.921875 135.949219 46.960938 C 136.261719 46.921875 136.59375 46.882812 137.140625 46.882812 C 137.199219 46.882812 137.53125 46.882812 137.902344 46.902344 L 137.746094 46.003906 C 137.453125 46.003906 136.4375 46.003906 135.460938 46.492188 C 134.972656 46.082031 134.367188 46.003906 134.074219 46.003906 C 132.765625 46.003906 131.730469 47.097656 131.730469 48.40625 C 131.730469 48.933594 131.886719 49.441406 132.21875 49.890625 C 131.867188 50.359375 131.789062 50.808594 131.789062 51.160156 C 131.789062 51.726562 131.984375 52.097656 132.160156 52.292969 C 131.398438 52.78125 131.222656 53.425781 131.222656 53.835938 C 131.222656 54.929688 132.628906 55.847656 134.464844 55.847656 C 136.28125 55.847656 137.707031 54.96875 137.707031 53.835938 C 137.707031 51.726562 135.285156 51.726562 134.679688 51.726562 L 133.410156 51.726562 C 133.195312 51.726562 132.570312 51.726562 132.570312 50.945312 C 132.570312 50.613281 132.628906 50.515625 132.707031 50.398438 C 132.960938 50.574219 133.449219 50.828125 134.054688 50.828125 C 135.34375 50.828125 136.398438 49.753906 136.398438 48.40625 C 136.398438 47.859375 136.203125 47.3125 135.890625 46.902344 Z M 134.074219 50.007812 C 133.410156 50.007812 132.746094 49.558594 132.746094 48.425781 C 132.746094 47.097656 133.585938 46.824219 134.054688 46.824219 C 134.71875 46.824219 135.363281 47.273438 135.363281 48.40625 C 135.363281 49.734375 134.523438 50.007812 134.074219 50.007812 Z M 134.699219 52.820312 C 135.03125 52.820312 136.671875 52.820312 136.671875 53.835938 C 136.671875 54.539062 135.636719 55.027344 134.464844 55.027344 C 133.3125 55.027344 132.257812 54.558594 132.257812 53.835938 C 132.257812 53.777344 132.257812 52.820312 133.390625 52.820312 Z M 134.699219 52.820312 "/>
<path style=" stroke:none;fill-rule:nonzero;fill:rgb(0%,0%,0%);fill-opacity:1;" d="M 148.953125 48.40625 C 148.953125 46.960938 147.917969 45.925781 146.53125 45.925781 C 145.632812 45.925781 144.96875 46.140625 144.226562 46.550781 L 144.324219 47.527344 C 144.988281 47.058594 145.671875 46.785156 146.53125 46.785156 C 147.214844 46.785156 147.820312 47.351562 147.820312 48.425781 L 147.820312 49.050781 C 147.15625 49.070312 146.257812 49.128906 145.359375 49.421875 C 144.34375 49.753906 143.777344 50.320312 143.777344 51.0625 C 143.777344 51.726562 144.167969 52.9375 145.4375 52.9375 C 146.257812 52.9375 147.292969 52.683594 147.859375 52.234375 L 147.859375 52.78125 L 148.953125 52.78125 Z M 147.820312 50.769531 C 147.820312 51.082031 147.820312 51.433594 147.332031 51.726562 C 146.921875 51.980469 146.414062 52.039062 146.199219 52.039062 C 145.378906 52.039062 144.832031 51.609375 144.832031 51.042969 C 144.832031 50.027344 146.902344 49.8125 147.820312 49.8125 Z M 147.820312 50.769531 "/>
<path style=" stroke:none;fill-rule:nonzero;fill:rgb(0%,0%,0%);fill-opacity:1;" d="M 160.132812 46.394531 C 159.175781 45.945312 158.375 45.925781 158.023438 45.925781 C 157.691406 45.925781 155.601562 45.925781 155.601562 47.859375 C 155.601562 48.523438 155.972656 48.972656 156.1875 49.1875 C 156.734375 49.636719 157.105469 49.714844 157.984375 49.890625 C 158.472656 50.007812 159.332031 50.183594 159.332031 50.964844 C 159.332031 52 158.179688 52 157.964844 52 C 157.378906 52 156.5 51.84375 155.699219 51.257812 L 155.523438 52.273438 C 155.582031 52.3125 156.597656 52.9375 157.984375 52.9375 C 159.917969 52.9375 160.367188 51.765625 160.367188 50.886719 C 160.367188 50.125 159.917969 49.636719 159.859375 49.578125 C 159.292969 48.992188 158.84375 48.914062 157.945312 48.738281 C 157.398438 48.621094 156.636719 48.484375 156.636719 47.722656 C 156.636719 46.804688 157.691406 46.804688 157.886719 46.804688 C 158.667969 46.804688 159.292969 46.980469 159.957031 47.351562 Z M 160.132812 46.394531 "/>
<path style=" stroke:none;fill-rule:nonzero;fill:rgb(0%,0%,0%);fill-opacity:1;" d="M 163.027344 42.644531 L 161.738281 42.644531 L 161.738281 43.914062 L 163.027344 43.914062 Z M 162.929688 46.140625 L 161.835938 46.140625 L 161.835938 52.78125 L 162.929688 52.78125 Z M 162.929688 46.140625 "/>
<path style=" stroke:none;fill-rule:nonzero;fill:rgb(0%,0%,0%);fill-opacity:1;" d="M 170.441406 48.289062 C 170.441406 47.371094 170.246094 46.003906 168.449219 46.003906 C 167.609375 46.003906 166.886719 46.375 166.320312 47.097656 L 166.320312 46.082031 L 165.265625 46.082031 L 165.265625 52.78125 L 166.398438 52.78125 L 166.398438 49.070312 C 166.398438 48.132812 166.75 46.902344 167.882812 46.902344 C 169.269531 46.902344 169.308594 47.859375 169.308594 48.386719 L 169.308594 52.78125 L 170.441406 52.78125 Z M 170.441406 48.289062 "/>
<path style=" stroke:none;fill-rule:nonzero;fill:rgb(0%,0%,0%);fill-opacity:1;" d="M 176.710938 46.902344 C 176.710938 46.902344 176.730469 46.921875 176.75 46.960938 C 177.0625 46.921875 177.394531 46.882812 177.941406 46.882812 C 178 46.882812 178.332031 46.882812 178.703125 46.902344 L 178.546875 46.003906 C 178.253906 46.003906 177.238281 46.003906 176.261719 46.492188 C 175.773438 46.082031 175.167969 46.003906 174.875 46.003906 C 173.566406 46.003906 172.53125 47.097656 172.53125 48.40625 C 172.53125 48.933594 172.6875 49.441406 173.019531 49.890625 C 172.667969 50.359375 172.589844 50.808594 172.589844 51.160156 C 172.589844 51.726562 172.785156 52.097656 172.960938 52.292969 C 172.199219 52.78125 172.023438 53.425781 172.023438 53.835938 C 172.023438 54.929688 173.429688 55.847656 175.265625 55.847656 C 177.082031 55.847656 178.507812 54.96875 178.507812 53.835938 C 178.507812 51.726562 176.085938 51.726562 175.480469 51.726562 L 174.210938 51.726562 C 173.996094 51.726562 173.371094 51.726562 173.371094 50.945312 C 173.371094 50.613281 173.429688 50.515625 173.507812 50.398438 C 173.761719 50.574219 174.25 50.828125 174.855469 50.828125 C 176.144531 50.828125 177.199219 49.753906 177.199219 48.40625 C 177.199219 47.859375 177.003906 47.3125 176.691406 46.902344 Z M 174.875 50.007812 C 174.210938 50.007812 173.546875 49.558594 173.546875 48.425781 C 173.546875 47.097656 174.386719 46.824219 174.855469 46.824219 C 175.519531 46.824219 176.164062 47.273438 176.164062 48.40625 C 176.164062 49.734375 175.324219 50.007812 174.875 50.007812 Z M 175.5 52.820312 C 175.832031 52.820312 177.472656 52.820312 177.472656 53.835938 C 177.472656 54.539062 176.4375 55.027344 175.265625 55.027344 C 174.113281 55.027344 173.058594 54.558594 173.058594 53.835938 C 173.058594 53.777344 173.058594 52.820312 174.191406 52.820312 Z M 175.5 52.820312 "/>
<path style=" stroke:none;fill-rule:nonzero;fill:rgb(0%,0%,0%);fill-opacity:1;" d="M 181.230469 42.410156 L 180.136719 42.410156 L 180.136719 52.78125 L 181.230469 52.78125 Z M 181.230469 42.410156 "/>
<path style=" stroke:none;fill-rule:nonzero;fill:rgb(0%,0%,0%);fill-opacity:1;" d="M 188.488281 49.421875 C 188.488281 48.777344 188.429688 47.859375 187.960938 47.078125 C 187.335938 46.042969 186.300781 45.925781 185.871094 45.925781 C 184.25 45.925781 182.902344 47.46875 182.902344 49.421875 C 182.902344 51.394531 184.347656 52.9375 186.066406 52.9375 C 186.769531 52.9375 187.589844 52.742188 188.410156 52.136719 C 188.410156 52.078125 188.351562 51.609375 188.351562 51.589844 C 188.351562 51.570312 188.3125 51.238281 188.3125 51.179688 C 187.433594 51.921875 186.554688 52.039062 186.105469 52.039062 C 184.953125 52.039062 183.976562 51.003906 183.9375 49.421875 Z M 184.035156 48.621094 C 184.289062 47.605469 184.992188 46.824219 185.871094 46.824219 C 186.320312 46.824219 187.355469 47.019531 187.609375 48.621094 Z M 184.035156 48.621094 "/>
<path style=" stroke:none;fill-rule:nonzero;fill:rgb(0%,0%,0%);fill-opacity:1;" d="M 231.859375 33.011719 C 231.859375 32.660156 231.859375 32.640625 231.566406 32.640625 C 231.214844 33.050781 230.453125 33.597656 228.929688 33.597656 L 228.929688 34.027344 C 229.261719 34.027344 230.003906 34.027344 230.84375 33.65625 L 230.84375 41.429688 C 230.84375 41.976562 230.785156 42.152344 229.476562 42.152344 L 229.007812 42.152344 L 229.007812 42.582031 C 229.417969 42.542969 230.863281 42.542969 231.351562 42.542969 C 231.859375 42.542969 233.285156 42.542969 233.695312 42.582031 L 233.695312 42.152344 L 233.226562 42.152344 C 231.917969 42.152344 231.859375 41.976562 231.859375 41.429688 Z M 231.859375 33.011719 "/>
<path style=" stroke:none;fill-rule:nonzero;fill:rgb(0%,0%,0%);fill-opacity:1;" d="M 227.546875 48.75 L 234.898438 48.75 L 234.898438 49.351562 L 227.546875 49.351562 Z M 227.546875 48.75 "/>
<path style=" stroke:none;fill-rule:nonzero;fill:rgb(0%,0%,0%);fill-opacity:1;" d="M 230.316406 57.613281 C 230.0625 57.632812 230.003906 57.652344 230.003906 57.789062 C 230.003906 57.925781 230.082031 57.925781 230.335938 57.925781 L 231.019531 57.925781 C 232.308594 57.925781 232.875 58.980469 232.875 60.40625 C 232.875 62.378906 231.859375 62.886719 231.117188 62.886719 C 230.394531 62.886719 229.183594 62.554688 228.734375 61.558594 C 229.222656 61.636719 229.652344 61.363281 229.652344 60.835938 C 229.652344 60.40625 229.339844 60.09375 228.929688 60.09375 C 228.558594 60.09375 228.167969 60.308594 228.167969 60.875 C 228.167969 62.203125 229.496094 63.296875 231.15625 63.296875 C 232.933594 63.296875 234.261719 61.929688 234.261719 60.425781 C 234.261719 59.058594 233.148438 57.984375 231.722656 57.730469 C 233.011719 57.359375 233.851562 56.265625 233.851562 55.09375 C 233.851562 53.921875 232.621094 53.042969 231.175781 53.042969 C 229.691406 53.042969 228.578125 53.960938 228.578125 55.054688 C 228.578125 55.640625 229.046875 55.777344 229.261719 55.777344 C 229.574219 55.777344 229.945312 55.542969 229.945312 55.09375 C 229.945312 54.625 229.574219 54.410156 229.242188 54.410156 C 229.164062 54.410156 229.125 54.410156 229.085938 54.429688 C 229.652344 53.414062 231.058594 53.414062 231.136719 53.414062 C 231.625 53.414062 232.601562 53.628906 232.601562 55.09375 C 232.601562 55.386719 232.5625 56.207031 232.113281 56.851562 C 231.664062 57.515625 231.15625 57.554688 230.765625 57.574219 Z M 230.316406 57.613281 "/>
<path style=" stroke:none;fill-rule:nonzero;fill:rgb(0%,0%,0%);fill-opacity:1;" d="M 94.242188 64.761719 L 93.128906 64.761719 L 93.128906 69.117188 C 92.445312 68.550781 91.664062 68.355469 91.019531 68.355469 C 89.59375 68.355469 88.441406 69.878906 88.441406 71.8125 C 88.441406 73.746094 89.535156 75.289062 90.960938 75.289062 C 91.507812 75.289062 92.347656 75.09375 93.089844 74.371094 L 93.089844 75.132812 L 94.242188 75.132812 Z M 93.089844 73.375 C 92.738281 74.019531 92.210938 74.390625 91.566406 74.390625 C 90.648438 74.390625 89.574219 73.6875 89.574219 71.832031 C 89.574219 69.839844 90.84375 69.253906 91.703125 69.253906 C 92.289062 69.253906 92.777344 69.546875 93.089844 70.035156 Z M 93.089844 73.375 "/>
<path style=" stroke:none;fill-rule:nonzero;fill:rgb(0%,0%,0%);fill-opacity:1;" d="M 101.488281 71.773438 C 101.488281 71.128906 101.429688 70.210938 100.960938 69.429688 C 100.335938 68.394531 99.300781 68.277344 98.871094 68.277344 C 97.25 68.277344 95.902344 69.820312 95.902344 71.773438 C 95.902344 73.746094 97.347656 75.289062 99.066406 75.289062 C 99.769531 75.289062 100.589844 75.09375 101.410156 74.488281 C 101.410156 74.429688 101.351562 73.960938 101.351562 73.941406 C 101.351562 73.921875 101.3125 73.589844 101.3125 73.53125 C 100.433594 74.273438 99.554688 74.390625 99.105469 74.390625 C 97.953125 74.390625 96.976562 73.355469 96.9375 71.773438 Z M 97.035156 70.972656 C 97.289062 69.957031 97.992188 69.175781 98.871094 69.175781 C 99.320312 69.175781 100.355469 69.371094 100.609375 70.972656 Z M 97.035156 70.972656 "/>
<path style=" stroke:none;fill-rule:nonzero;fill:rgb(0%,0%,0%);fill-opacity:1;" d="M 104.441406 69.371094 L 106.042969 69.371094 L 106.042969 68.492188 L 104.421875 68.492188 L 104.421875 66.714844 C 104.421875 65.699219 105.261719 65.503906 105.769531 65.503906 C 106.277344 65.503906 106.746094 65.679688 106.921875 65.757812 L 106.921875 64.761719 C 106.824219 64.742188 106.335938 64.605469 105.769531 64.605469 C 104.363281 64.605469 103.347656 65.699219 103.347656 67.144531 L 103.347656 68.492188 L 102.253906 68.492188 L 102.253906 69.371094 L 103.347656 69.371094 L 103.347656 75.132812 L 104.441406 75.132812 Z M 104.441406 69.371094 "/>
<path style=" stroke:none;fill-rule:nonzero;fill:rgb(0%,0%,0%);fill-opacity:1;" d="M 112.4375 71.773438 C 112.4375 71.128906 112.378906 70.210938 111.910156 69.429688 C 111.285156 68.394531 110.25 68.277344 109.820312 68.277344 C 108.199219 68.277344 106.851562 69.820312 106.851562 71.773438 C 106.851562 73.746094 108.296875 75.289062 110.015625 75.289062 C 110.71875 75.289062 111.539062 75.09375 112.359375 74.488281 C 112.359375 74.429688 112.300781 73.960938 112.300781 73.941406 C 112.300781 73.921875 112.261719 73.589844 112.261719 73.53125 C 111.382812 74.273438 110.503906 74.390625 110.054688 74.390625 C 108.902344 74.390625 107.925781 73.355469 107.886719 71.773438 Z M 107.984375 70.972656 C 108.238281 69.957031 108.941406 69.175781 109.820312 69.175781 C 110.269531 69.175781 111.304688 69.371094 111.558594 70.972656 Z M 107.984375 70.972656 "/>
<path style=" stroke:none;fill-rule:nonzero;fill:rgb(0%,0%,0%);fill-opacity:1;" d="M 118.808594 73.511719 C 118.125 74.078125 117.363281 74.351562 116.523438 74.351562 C 115.273438 74.351562 114.472656 73.257812 114.472656 71.792969 C 114.472656 70.5625 115.078125 69.195312 116.5625 69.195312 C 117.558594 69.195312 117.988281 69.449219 118.632812 69.878906 L 118.808594 68.902344 C 117.929688 68.394531 117.441406 68.277344 116.5625 68.277344 C 114.492188 68.277344 113.339844 70.09375 113.339844 71.792969 C 113.339844 73.707031 114.707031 75.289062 116.503906 75.289062 C 117.226562 75.289062 118.066406 75.09375 118.886719 74.507812 C 118.886719 74.46875 118.847656 74 118.828125 73.941406 Z M 118.808594 73.511719 "/>
<path style=" stroke:none;fill-rule:nonzero;fill:rgb(0%,0%,0%);fill-opacity:1;" d="M 121.824219 69.371094 L 123.875 69.371094 L 123.875 68.492188 L 121.824219 68.492188 L 121.824219 66.597656 L 120.789062 66.597656 L 120.789062 68.492188 L 119.539062 68.492188 L 119.539062 69.371094 L 120.75 69.371094 L 120.75 73.375 C 120.75 74.253906 120.945312 75.289062 121.980469 75.289062 C 122.976562 75.289062 123.679688 74.9375 124.128906 74.703125 L 123.914062 73.824219 C 123.386719 74.292969 122.839844 74.351562 122.566406 74.351562 C 121.902344 74.351562 121.824219 73.648438 121.824219 73.121094 Z M 121.824219 69.371094 "/>
<path style=" stroke:none;fill-rule:nonzero;fill:rgb(0%,0%,0%);fill-opacity:1;" d="M 126.878906 64.996094 L 125.589844 64.996094 L 125.589844 66.265625 L 126.878906 66.265625 Z M 126.78125 68.492188 L 125.6875 68.492188 L 125.6875 75.132812 L 126.78125 75.132812 Z M 126.78125 68.492188 "/>
<path style=" stroke:none;fill-rule:nonzero;fill:rgb(0%,0%,0%);fill-opacity:1;" d="M 134.429688 68.492188 L 133.316406 68.492188 L 132.222656 71.480469 C 131.96875 72.183594 131.421875 73.765625 131.324219 74.332031 L 131.304688 74.332031 C 131.246094 73.804688 130.933594 72.984375 130.71875 72.339844 L 129.332031 68.492188 L 128.179688 68.492188 L 130.640625 75.132812 L 131.96875 75.132812 Z M 134.429688 68.492188 "/>
<path style=" stroke:none;fill-rule:nonzero;fill:rgb(0%,0%,0%);fill-opacity:1;" d="M 140.789062 71.773438 C 140.789062 71.128906 140.730469 70.210938 140.261719 69.429688 C 139.636719 68.394531 138.601562 68.277344 138.171875 68.277344 C 136.550781 68.277344 135.203125 69.820312 135.203125 71.773438 C 135.203125 73.746094 136.648438 75.289062 138.367188 75.289062 C 139.070312 75.289062 139.890625 75.09375 140.710938 74.488281 C 140.710938 74.429688 140.652344 73.960938 140.652344 73.941406 C 140.652344 73.921875 140.613281 73.589844 140.613281 73.53125 C 139.734375 74.273438 138.855469 74.390625 138.40625 74.390625 C 137.253906 74.390625 136.277344 73.355469 136.238281 71.773438 Z M 136.335938 70.972656 C 136.589844 69.957031 137.292969 69.175781 138.171875 69.175781 C 138.621094 69.175781 139.65625 69.371094 139.910156 70.972656 Z M 136.335938 70.972656 "/>
<path style=" stroke:none;fill-rule:nonzero;fill:rgb(0%,0%,0%);fill-opacity:1;" d="M 148.53125 64.761719 L 147.4375 64.761719 L 147.4375 75.132812 L 148.570312 75.132812 L 148.570312 74.46875 C 149.253906 75.113281 149.976562 75.289062 150.503906 75.289062 C 151.929688 75.289062 153.21875 73.824219 153.21875 71.792969 C 153.21875 69.957031 152.242188 68.355469 150.855469 68.355469 C 150.425781 68.355469 149.46875 68.433594 148.53125 69.195312 Z M 148.570312 70.09375 C 148.84375 69.683594 149.371094 69.253906 150.113281 69.253906 C 151.011719 69.253906 152.085938 69.9375 152.085938 71.792969 C 152.085938 73.746094 150.875 74.390625 149.957031 74.390625 C 149.546875 74.390625 149.253906 74.234375 148.980469 74.019531 C 148.628906 73.707031 148.570312 73.453125 148.570312 73.199219 Z M 148.570312 70.09375 "/>
<path style=" stroke:none;fill-rule:nonzero;fill:rgb(0%,0%,0%);fill-opacity:1;" d="M 160.09375 68.492188 L 158.960938 68.492188 L 158.960938 72.769531 C 158.960938 73.902344 158.179688 74.46875 157.203125 74.46875 C 156.148438 74.46875 156.050781 74.078125 156.050781 73.414062 L 156.050781 68.492188 L 154.917969 68.492188 L 154.917969 73.472656 C 154.917969 74.546875 155.25 75.289062 156.480469 75.289062 C 156.910156 75.289062 158.082031 75.210938 159 74.390625 L 159 75.132812 L 160.09375 75.132812 Z M 160.09375 68.492188 "/>
<path style=" stroke:none;fill-rule:nonzero;fill:rgb(0%,0%,0%);fill-opacity:1;" d="M 163.53125 64.761719 L 162.4375 64.761719 L 162.4375 75.132812 L 163.53125 75.132812 Z M 163.53125 64.761719 "/>
<path style=" stroke:none;fill-rule:nonzero;fill:rgb(0%,0%,0%);fill-opacity:1;" d="M 166.980469 64.761719 L 165.886719 64.761719 L 165.886719 75.132812 L 167.019531 75.132812 L 167.019531 74.46875 C 167.703125 75.113281 168.425781 75.289062 168.953125 75.289062 C 170.378906 75.289062 171.667969 73.824219 171.667969 71.792969 C 171.667969 69.957031 170.691406 68.355469 169.304688 68.355469 C 168.875 68.355469 167.917969 68.433594 166.980469 69.195312 Z M 167.019531 70.09375 C 167.292969 69.683594 167.820312 69.253906 168.5625 69.253906 C 169.460938 69.253906 170.535156 69.9375 170.535156 71.792969 C 170.535156 73.746094 169.324219 74.390625 168.40625 74.390625 C 167.996094 74.390625 167.703125 74.234375 167.429688 74.019531 C 167.078125 73.707031 167.019531 73.453125 167.019531 73.199219 Z M 167.019531 70.09375 "/>
<path style=" stroke:none;fill-rule:nonzero;fill:rgb(0%,0%,0%);fill-opacity:1;" d="M 0 83.550781 L 255.601562 83.550781 L 255.601562 84.449219 L 0 84.449219 Z M 0 83.550781 "/>
<path style=" stroke:none;fill-rule:nonzero;fill:rgb(0%,0%,0%);fill-opacity:1;" d="M 43.34375 102.738281 C 43.34375 102.660156 43.285156 102.601562 43.207031 102.601562 C 43.089844 102.601562 42.523438 103.148438 42.230469 103.675781 C 41.957031 102.992188 41.507812 102.601562 40.863281 102.601562 C 39.164062 102.601562 37.347656 104.769531 37.347656 106.996094 C 37.347656 108.460938 38.207031 109.339844 39.222656 109.339844 C 40.023438 109.339844 40.667969 108.734375 40.980469 108.382812 L 41 108.402344 L 40.433594 110.648438 L 40.296875 111.195312 C 40.160156 111.625 39.945312 111.625 39.242188 111.644531 C 39.085938 111.644531 38.929688 111.644531 38.929688 111.9375 C 38.929688 112.035156 39.027344 112.074219 39.125 112.074219 C 39.339844 112.074219 39.59375 112.054688 39.808594 112.054688 L 41.332031 112.054688 C 41.566406 112.054688 41.820312 112.074219 42.035156 112.074219 C 42.132812 112.074219 42.308594 112.074219 42.308594 111.800781 C 42.308594 111.644531 42.191406 111.644531 41.957031 111.644531 C 41.253906 111.644531 41.214844 111.546875 41.214844 111.429688 C 41.214844 111.351562 41.234375 111.332031 41.273438 111.136719 Z M 41.234375 107.40625 C 41.175781 107.660156 41.175781 107.699219 40.960938 107.972656 C 40.628906 108.382812 39.964844 109.027344 39.28125 109.027344 C 38.65625 109.027344 38.324219 108.480469 38.324219 107.601562 C 38.324219 106.78125 38.773438 105.101562 39.066406 104.476562 C 39.574219 103.421875 40.277344 102.894531 40.863281 102.894531 C 41.839844 102.894531 42.035156 104.125 42.035156 104.242188 C 42.035156 104.261719 41.996094 104.4375 41.976562 104.476562 Z M 41.234375 107.40625 "/>
<path style=" stroke:none;fill-rule:nonzero;fill:rgb(0%,0%,0%);fill-opacity:1;" d="M 89.28125 98.8125 L 89.28125 109.183594 L 93.109375 109.183594 C 95.609375 109.183594 97.601562 106.917969 97.601562 104.085938 C 97.601562 101.175781 95.628906 98.8125 93.109375 98.8125 Z M 90.53125 108.34375 L 90.53125 99.652344 L 92.777344 99.652344 C 94.769531 99.652344 96.351562 101.371094 96.351562 104.066406 C 96.351562 106.800781 94.691406 108.34375 92.777344 108.34375 Z M 90.53125 108.34375 "/>
<path style=" stroke:none;fill-rule:nonzero;fill:rgb(0%,0%,0%);fill-opacity:1;" d="M 100.679688 105.902344 C 100.679688 104.398438 101.8125 103.421875 103.160156 103.402344 L 103.160156 102.40625 C 101.8125 102.40625 101.011719 103.207031 100.601562 103.792969 L 100.601562 102.484375 L 99.585938 102.484375 L 99.585938 109.183594 L 100.679688 109.183594 Z M 100.679688 105.902344 "/>
<path style=" stroke:none;fill-rule:nonzero;fill:rgb(0%,0%,0%);fill-opacity:1;" d="M 109.203125 104.808594 C 109.203125 103.363281 108.167969 102.328125 106.78125 102.328125 C 105.882812 102.328125 105.21875 102.542969 104.476562 102.953125 L 104.574219 103.929688 C 105.238281 103.460938 105.921875 103.1875 106.78125 103.1875 C 107.464844 103.1875 108.070312 103.753906 108.070312 104.828125 L 108.070312 105.453125 C 107.40625 105.472656 106.507812 105.53125 105.609375 105.824219 C 104.59375 106.15625 104.027344 106.722656 104.027344 107.464844 C 104.027344 108.128906 104.417969 109.339844 105.6875 109.339844 C 106.507812 109.339844 107.542969 109.085938 108.109375 108.636719 L 108.109375 109.183594 L 109.203125 109.183594 Z M 108.070312 107.171875 C 108.070312 107.484375 108.070312 107.835938 107.582031 108.128906 C 107.171875 108.382812 106.664062 108.441406 106.449219 108.441406 C 105.628906 108.441406 105.082031 108.011719 105.082031 107.445312 C 105.082031 106.429688 107.152344 106.214844 108.070312 106.214844 Z M 108.070312 107.171875 "/>
<path style=" stroke:none;fill-rule:nonzero;fill:rgb(0%,0%,0%);fill-opacity:1;" d="M 119.671875 102.542969 L 118.578125 102.542969 L 117.699219 105.589844 C 117.484375 106.292969 117.054688 107.699219 116.996094 108.34375 C 116.9375 107.992188 116.703125 106.996094 116.390625 105.921875 L 115.394531 102.542969 L 114.378906 102.542969 L 113.519531 105.472656 C 113.246094 106.410156 112.894531 107.699219 112.855469 108.324219 L 112.835938 108.324219 C 112.816406 108.03125 112.660156 107.25 112.367188 106.234375 L 111.3125 102.542969 L 110.179688 102.542969 L 112.171875 109.183594 L 113.324219 109.183594 C 113.890625 107.308594 114.769531 104.457031 114.847656 103.421875 L 114.867188 103.421875 C 114.886719 104.027344 115.199219 105.101562 115.296875 105.453125 L 116.351562 109.183594 L 117.679688 109.183594 Z M 119.671875 102.542969 "/>
<path style=" stroke:none;fill-rule:nonzero;fill:rgb(0%,0%,0%);fill-opacity:1;" d="M 122.226562 99.046875 L 120.9375 99.046875 L 120.9375 100.316406 L 122.226562 100.316406 Z M 122.128906 102.542969 L 121.035156 102.542969 L 121.035156 109.183594 L 122.128906 109.183594 Z M 122.128906 102.542969 "/>
<path style=" stroke:none;fill-rule:nonzero;fill:rgb(0%,0%,0%);fill-opacity:1;" d="M 129.640625 104.691406 C 129.640625 103.773438 129.445312 102.40625 127.648438 102.40625 C 126.808594 102.40625 126.085938 102.777344 125.519531 103.5 L 125.519531 102.484375 L 124.464844 102.484375 L 124.464844 109.183594 L 125.597656 109.183594 L 125.597656 105.472656 C 125.597656 104.535156 125.949219 103.304688 127.082031 103.304688 C 128.46875 103.304688 128.507812 104.261719 128.507812 104.789062 L 128.507812 109.183594 L 129.640625 109.183594 Z M 129.640625 104.691406 "/>
<path style=" stroke:none;fill-rule:nonzero;fill:rgb(0%,0%,0%);fill-opacity:1;" d="M 135.910156 103.304688 C 135.910156 103.304688 135.929688 103.324219 135.949219 103.363281 C 136.261719 103.324219 136.59375 103.285156 137.140625 103.285156 C 137.199219 103.285156 137.53125 103.285156 137.902344 103.304688 L 137.746094 102.40625 C 137.453125 102.40625 136.4375 102.40625 135.460938 102.894531 C 134.972656 102.484375 134.367188 102.40625 134.074219 102.40625 C 132.765625 102.40625 131.730469 103.5 131.730469 104.808594 C 131.730469 105.335938 131.886719 105.84375 132.21875 106.292969 C 131.867188 106.761719 131.789062 107.210938 131.789062 107.5625 C 131.789062 108.128906 131.984375 108.5 132.160156 108.695312 C 131.398438 109.183594 131.222656 109.828125 131.222656 110.238281 C 131.222656 111.332031 132.628906 112.25 134.464844 112.25 C 136.28125 112.25 137.707031 111.371094 137.707031 110.238281 C 137.707031 108.128906 135.285156 108.128906 134.679688 108.128906 L 133.410156 108.128906 C 133.195312 108.128906 132.570312 108.128906 132.570312 107.347656 C 132.570312 107.015625 132.628906 106.917969 132.707031 106.800781 C 132.960938 106.976562 133.449219 107.230469 134.054688 107.230469 C 135.34375 107.230469 136.398438 106.15625 136.398438 104.808594 C 136.398438 104.261719 136.203125 103.714844 135.890625 103.304688 Z M 134.074219 106.410156 C 133.410156 106.410156 132.746094 105.960938 132.746094 104.828125 C 132.746094 103.5 133.585938 103.226562 134.054688 103.226562 C 134.71875 103.226562 135.363281 103.675781 135.363281 104.808594 C 135.363281 106.136719 134.523438 106.410156 134.074219 106.410156 Z M 134.699219 109.222656 C 135.03125 109.222656 136.671875 109.222656 136.671875 110.238281 C 136.671875 110.941406 135.636719 111.429688 134.464844 111.429688 C 133.3125 111.429688 132.257812 110.960938 132.257812 110.238281 C 132.257812 110.179688 132.257812 109.222656 133.390625 109.222656 Z M 134.699219 109.222656 "/>
<path style=" stroke:none;fill-rule:nonzero;fill:rgb(0%,0%,0%);fill-opacity:1;" d="M 148.953125 104.808594 C 148.953125 103.363281 147.917969 102.328125 146.53125 102.328125 C 145.632812 102.328125 144.96875 102.542969 144.226562 102.953125 L 144.324219 103.929688 C 144.988281 103.460938 145.671875 103.1875 146.53125 103.1875 C 147.214844 103.1875 147.820312 103.753906 147.820312 104.828125 L 147.820312 105.453125 C 147.15625 105.472656 146.257812 105.53125 145.359375 105.824219 C 144.34375 106.15625 143.777344 106.722656 143.777344 107.464844 C 143.777344 108.128906 144.167969 109.339844 145.4375 109.339844 C 146.257812 109.339844 147.292969 109.085938 147.859375 108.636719 L 147.859375 109.183594 L 148.953125 109.183594 Z M 147.820312 107.171875 C 147.820312 107.484375 147.820312 107.835938 147.332031 108.128906 C 146.921875 108.382812 146.414062 108.441406 146.199219 108.441406 C 145.378906 108.441406 144.832031 108.011719 144.832031 107.445312 C 144.832031 106.429688 146.902344 106.214844 147.820312 106.214844 Z M 147.820312 107.171875 "/>
<path style=" stroke:none;fill-rule:nonzero;fill:rgb(0%,0%,0%);fill-opacity:1;" d="M 160.132812 102.796875 C 159.175781 102.347656 158.375 102.328125 158.023438 102.328125 C 157.691406 102.328125 155.601562 102.328125 155.601562 104.261719 C 155.601562 104.925781 155.972656 105.375 156.1875 105.589844 C 156.734375 106.039062 157.105469 106.117188 157.984375 106.292969 C 158.472656 106.410156 159.332031 106.585938 159.332031 107.367188 C 159.332031 108.402344 158.179688 108.402344 157.964844 108.402344 C 157.378906 108.402344 156.5 108.246094 155.699219 107.660156 L 155.523438 108.675781 C 155.582031 108.714844 156.597656 109.339844 157.984375 109.339844 C 159.917969 109.339844 160.367188 108.167969 160.367188 107.289062 C 160.367188 106.527344 159.917969 106.039062 159.859375 105.980469 C 159.292969 105.394531 158.84375 105.316406 157.945312 105.140625 C 157.398438 105.023438 156.636719 104.886719 156.636719 104.125 C 156.636719 103.207031 157.691406 103.207031 157.886719 103.207031 C 158.667969 103.207031 159.292969 103.382812 159.957031 103.753906 Z M 160.132812 102.796875 "/>
<path style=" stroke:none;fill-rule:nonzero;fill:rgb(0%,0%,0%);fill-opacity:1;" d="M 163.027344 99.046875 L 161.738281 99.046875 L 161.738281 100.316406 L 163.027344 100.316406 Z M 162.929688 102.542969 L 161.835938 102.542969 L 161.835938 109.183594 L 162.929688 109.183594 Z M 162.929688 102.542969 "/>
<path style=" stroke:none;fill-rule:nonzero;fill:rgb(0%,0%,0%);fill-opacity:1;" d="M 170.441406 104.691406 C 170.441406 103.773438 170.246094 102.40625 168.449219 102.40625 C 167.609375 102.40625 166.886719 102.777344 166.320312 103.5 L 166.320312 102.484375 L 165.265625 102.484375 L 165.265625 109.183594 L 166.398438 109.183594 L 166.398438 105.472656 C 166.398438 104.535156 166.75 103.304688 167.882812 103.304688 C 169.269531 103.304688 169.308594 104.261719 169.308594 104.789062 L 169.308594 109.183594 L 170.441406 109.183594 Z M 170.441406 104.691406 "/>
<path style=" stroke:none;fill-rule:nonzero;fill:rgb(0%,0%,0%);fill-opacity:1;" d="M 176.710938 103.304688 C 176.710938 103.304688 176.730469 103.324219 176.75 103.363281 C 177.0625 103.324219 177.394531 103.285156 177.941406 103.285156 C 178 103.285156 178.332031 103.285156 178.703125 103.304688 L 178.546875 102.40625 C 178.253906 102.40625 177.238281 102.40625 176.261719 102.894531 C 175.773438 102.484375 175.167969 102.40625 174.875 102.40625 C 173.566406 102.40625 172.53125 103.5 172.53125 104.808594 C 172.53125 105.335938 172.6875 105.84375 173.019531 106.292969 C 172.667969 106.761719 172.589844 107.210938 172.589844 107.5625 C 172.589844 108.128906 172.785156 108.5 172.960938 108.695312 C 172.199219 109.183594 172.023438 109.828125 172.023438 110.238281 C 172.023438 111.332031 173.429688 112.25 175.265625 112.25 C 177.082031 112.25 178.507812 111.371094 178.507812 110.238281 C 178.507812 108.128906 176.085938 108.128906 175.480469 108.128906 L 174.210938 108.128906 C 173.996094 108.128906 173.371094 108.128906 173.371094 107.347656 C 173.371094 107.015625 173.429688 106.917969 173.507812 106.800781 C 173.761719 106.976562 174.25 107.230469 174.855469 107.230469 C 176.144531 107.230469 177.199219 106.15625 177.199219 104.808594 C 177.199219 104.261719 177.003906 103.714844 176.691406 103.304688 Z M 174.875 106.410156 C 174.210938 106.410156 173.546875 105.960938 173.546875 104.828125 C 173.546875 103.5 174.386719 103.226562 174.855469 103.226562 C 175.519531 103.226562 176.164062 103.675781 176.164062 104.808594 C 176.164062 106.136719 175.324219 106.410156 174.875 106.410156 Z M 175.5 109.222656 C 175.832031 109.222656 177.472656 109.222656 177.472656 110.238281 C 177.472656 110.941406 176.4375 111.429688 175.265625 111.429688 C 174.113281 111.429688 173.058594 110.960938 173.058594 110.238281 C 173.058594 110.179688 173.058594 109.222656 174.191406 109.222656 Z M 175.5 109.222656 "/>
<path style=" stroke:none;fill-rule:nonzero;fill:rgb(0%,0%,0%);fill-opacity:1;" d="M 181.230469 98.8125 L 180.136719 98.8125 L 180.136719 109.183594 L 181.230469 109.183594 Z M 181.230469 98.8125 "/>
<path style=" stroke:none;fill-rule:nonzero;fill:rgb(0%,0%,0%);fill-opacity:1;" d="M 188.488281 105.824219 C 188.488281 105.179688 188.429688 104.261719 187.960938 103.480469 C 187.335938 102.445312 186.300781 102.328125 185.871094 102.328125 C 184.25 102.328125 182.902344 103.871094 182.902344 105.824219 C 182.902344 107.796875 184.347656 109.339844 186.066406 109.339844 C 186.769531 109.339844 187.589844 109.144531 188.410156 108.539062 C 188.410156 108.480469 188.351562 108.011719 188.351562 107.992188 C 188.351562 107.972656 188.3125 107.640625 188.3125 107.582031 C 187.433594 108.324219 186.554688 108.441406 186.105469 108.441406 C 184.953125 108.441406 183.976562 107.40625 183.9375 105.824219 Z M 184.035156 105.023438 C 184.289062 104.007812 184.992188 103.226562 185.871094 103.226562 C 186.320312 103.226562 187.355469 103.421875 187.609375 105.023438 Z M 184.035156 105.023438 "/>
<path style=" stroke:none;fill-rule:nonzero;fill:rgb(0%,0%,0%);fill-opacity:1;" d="M 234.144531 96.464844 L 233.8125 96.464844 C 233.753906 96.71875 233.636719 97.558594 233.5 97.792969 C 233.382812 97.929688 232.542969 97.929688 232.09375 97.929688 L 229.320312 97.929688 C 229.730469 97.578125 230.648438 96.621094 231.019531 96.269531 C 233.304688 94.179688 234.144531 93.398438 234.144531 91.914062 C 234.144531 90.195312 232.777344 89.042969 231.039062 89.042969 C 229.320312 89.042969 228.285156 90.527344 228.285156 91.816406 C 228.285156 92.578125 228.949219 92.578125 228.988281 92.578125 C 229.320312 92.578125 229.691406 92.34375 229.691406 91.875 C 229.691406 91.445312 229.417969 91.171875 228.988281 91.171875 C 228.871094 91.171875 228.832031 91.171875 228.792969 91.191406 C 229.066406 90.175781 229.886719 89.472656 230.84375 89.472656 C 232.113281 89.472656 232.894531 90.546875 232.894531 91.914062 C 232.894531 93.183594 232.171875 94.296875 231.3125 95.253906 L 228.285156 98.632812 L 228.285156 98.984375 L 233.753906 98.984375 Z M 234.144531 96.464844 "/>
<path style=" stroke:none;fill-rule:nonzero;fill:rgb(0%,0%,0%);fill-opacity:1;" d="M 227.546875 105.148438 L 234.898438 105.148438 L 234.898438 105.746094 L 227.546875 105.746094 Z M 227.546875 105.148438 "/>
<path style=" stroke:none;fill-rule:nonzero;fill:rgb(0%,0%,0%);fill-opacity:1;" d="M 230.316406 114.011719 C 230.0625 114.03125 230.003906 114.050781 230.003906 114.1875 C 230.003906 114.324219 230.082031 114.324219 230.335938 114.324219 L 231.019531 114.324219 C 232.308594 114.324219 232.875 115.378906 232.875 116.804688 C 232.875 118.777344 231.859375 119.285156 231.117188 119.285156 C 230.394531 119.285156 229.183594 118.953125 228.734375 117.957031 C 229.222656 118.035156 229.652344 117.761719 229.652344 117.234375 C 229.652344 116.804688 229.339844 116.492188 228.929688 116.492188 C 228.558594 116.492188 228.167969 116.707031 228.167969 117.273438 C 228.167969 118.601562 229.496094 119.695312 231.15625 119.695312 C 232.933594 119.695312 234.261719 118.328125 234.261719 116.824219 C 234.261719 115.457031 233.148438 114.382812 231.722656 114.128906 C 233.011719 113.757812 233.851562 112.664062 233.851562 111.492188 C 233.851562 110.320312 232.621094 109.441406 231.175781 109.441406 C 229.691406 109.441406 228.578125 110.359375 228.578125 111.453125 C 228.578125 112.039062 229.046875 112.175781 229.261719 112.175781 C 229.574219 112.175781 229.945312 111.941406 229.945312 111.492188 C 229.945312 111.023438 229.574219 110.808594 229.242188 110.808594 C 229.164062 110.808594 229.125 110.808594 229.085938 110.828125 C 229.652344 109.8125 231.058594 109.8125 231.136719 109.8125 C 231.625 109.8125 232.601562 110.027344 232.601562 111.492188 C 232.601562 111.785156 232.5625 112.605469 232.113281 113.25 C 231.664062 113.914062 231.15625 113.953125 230.765625 113.972656 Z M 230.316406 114.011719 "/>
<path style=" stroke:none;fill-rule:nonzero;fill:rgb(0%,0%,0%);fill-opacity:1;" d="M 94.242188 127.042969 C 94.242188 126.125 94.046875 124.757812 92.25 124.757812 C 91.410156 124.757812 90.6875 125.128906 90.121094 125.851562 L 90.121094 124.835938 L 89.066406 124.835938 L 89.066406 131.535156 L 90.199219 131.535156 L 90.199219 127.824219 C 90.199219 126.886719 90.550781 125.65625 91.683594 125.65625 C 93.070312 125.65625 93.109375 126.613281 93.109375 127.140625 L 93.109375 131.535156 L 94.242188 131.535156 Z M 94.242188 127.042969 "/>
<path style=" stroke:none;fill-rule:nonzero;fill:rgb(0%,0%,0%);fill-opacity:1;" d="M 102.269531 128.253906 C 102.269531 126.222656 100.785156 124.679688 99.066406 124.679688 C 97.308594 124.679688 95.863281 126.261719 95.863281 128.253906 C 95.863281 130.207031 97.347656 131.691406 99.066406 131.691406 C 100.824219 131.691406 102.269531 130.167969 102.269531 128.253906 Z M 99.066406 130.753906 C 97.992188 130.753906 96.996094 129.855469 96.996094 128.097656 C 96.996094 126.28125 98.109375 125.578125 99.066406 125.578125 C 100.082031 125.578125 101.136719 126.359375 101.136719 128.097656 C 101.136719 129.933594 100.082031 130.753906 99.066406 130.753906 Z M 99.066406 130.753906 "/>
<path style=" stroke:none;fill-rule:nonzero;fill:rgb(0%,0%,0%);fill-opacity:1;" d="M 109.09375 127.042969 C 109.09375 126.125 108.898438 124.757812 107.101562 124.757812 C 106.261719 124.757812 105.539062 125.128906 104.972656 125.851562 L 104.972656 124.835938 L 103.917969 124.835938 L 103.917969 131.535156 L 105.050781 131.535156 L 105.050781 127.824219 C 105.050781 126.886719 105.402344 125.65625 106.535156 125.65625 C 107.921875 125.65625 107.960938 126.613281 107.960938 127.140625 L 107.960938 131.535156 L 109.09375 131.535156 Z M 109.09375 127.042969 "/>
<path style=" stroke:none;fill-rule:nonzero;fill:rgb(0%,0%,0%);fill-opacity:1;" d="M 114.308594 128.644531 L 114.308594 127.785156 L 110.421875 127.785156 L 110.421875 128.644531 Z M 114.308594 128.644531 "/>
<path style=" stroke:none;fill-rule:nonzero;fill:rgb(0%,0%,0%);fill-opacity:1;" d="M 121.542969 121.164062 L 120.429688 121.164062 L 120.429688 125.519531 C 119.746094 124.953125 118.964844 124.757812 118.320312 124.757812 C 116.894531 124.757812 115.742188 126.28125 115.742188 128.214844 C 115.742188 130.148438 116.835938 131.691406 118.261719 131.691406 C 118.808594 131.691406 119.648438 131.496094 120.390625 130.773438 L 120.390625 131.535156 L 121.542969 131.535156 Z M 120.390625 129.777344 C 120.039062 130.421875 119.511719 130.792969 118.867188 130.792969 C 117.949219 130.792969 116.875 130.089844 116.875 128.234375 C 116.875 126.242188 118.144531 125.65625 119.003906 125.65625 C 119.589844 125.65625 120.078125 125.949219 120.390625 126.4375 Z M 120.390625 129.777344 "/>
<path style=" stroke:none;fill-rule:nonzero;fill:rgb(0%,0%,0%);fill-opacity:1;" d="M 128.789062 128.175781 C 128.789062 127.53125 128.730469 126.613281 128.261719 125.832031 C 127.636719 124.796875 126.601562 124.679688 126.171875 124.679688 C 124.550781 124.679688 123.203125 126.222656 123.203125 128.175781 C 123.203125 130.148438 124.648438 131.691406 126.367188 131.691406 C 127.070312 131.691406 127.890625 131.496094 128.710938 130.890625 C 128.710938 130.832031 128.652344 130.363281 128.652344 130.34375 C 128.652344 130.324219 128.613281 129.992188 128.613281 129.933594 C 127.734375 130.675781 126.855469 130.792969 126.40625 130.792969 C 125.253906 130.792969 124.277344 129.757812 124.238281 128.175781 Z M 124.335938 127.375 C 124.589844 126.359375 125.292969 125.578125 126.171875 125.578125 C 126.621094 125.578125 127.65625 125.773438 127.910156 127.375 Z M 124.335938 127.375 "/>
<path style=" stroke:none;fill-rule:nonzero;fill:rgb(0%,0%,0%);fill-opacity:1;" d="M 131.742188 125.773438 L 133.34375 125.773438 L 133.34375 124.894531 L 131.722656 124.894531 L 131.722656 123.117188 C 131.722656 122.101562 132.5625 121.90625 133.070312 121.90625 C 133.578125 121.90625 134.046875 122.082031 134.222656 122.160156 L 134.222656 121.164062 C 134.125 121.144531 133.636719 121.007812 133.070312 121.007812 C 131.664062 121.007812 130.648438 122.101562 130.648438 123.546875 L 130.648438 124.894531 L 129.554688 124.894531 L 129.554688 125.773438 L 130.648438 125.773438 L 130.648438 131.535156 L 131.742188 131.535156 Z M 131.742188 125.773438 "/>
<path style=" stroke:none;fill-rule:nonzero;fill:rgb(0%,0%,0%);fill-opacity:1;" d="M 139.738281 128.175781 C 139.738281 127.53125 139.679688 126.613281 139.210938 125.832031 C 138.585938 124.796875 137.550781 124.679688 137.121094 124.679688 C 135.5 124.679688 134.152344 126.222656 134.152344 128.175781 C 134.152344 130.148438 135.597656 131.691406 137.316406 131.691406 C 138.019531 131.691406 138.839844 131.496094 139.660156 130.890625 C 139.660156 130.832031 139.601562 130.363281 139.601562 130.34375 C 139.601562 130.324219 139.5625 129.992188 139.5625 129.933594 C 138.683594 130.675781 137.804688 130.792969 137.355469 130.792969 C 136.203125 130.792969 135.226562 129.757812 135.1875 128.175781 Z M 135.285156 127.375 C 135.539062 126.359375 136.242188 125.578125 137.121094 125.578125 C 137.570312 125.578125 138.605469 125.773438 138.859375 127.375 Z M 135.285156 127.375 "/>
<path style=" stroke:none;fill-rule:nonzero;fill:rgb(0%,0%,0%);fill-opacity:1;" d="M 146.109375 129.914062 C 145.425781 130.480469 144.664062 130.753906 143.824219 130.753906 C 142.574219 130.753906 141.773438 129.660156 141.773438 128.195312 C 141.773438 126.964844 142.378906 125.597656 143.863281 125.597656 C 144.859375 125.597656 145.289062 125.851562 145.933594 126.28125 L 146.109375 125.304688 C 145.230469 124.796875 144.742188 124.679688 143.863281 124.679688 C 141.792969 124.679688 140.640625 126.496094 140.640625 128.195312 C 140.640625 130.109375 142.007812 131.691406 143.804688 131.691406 C 144.527344 131.691406 145.367188 131.496094 146.1875 130.910156 C 146.1875 130.871094 146.148438 130.402344 146.128906 130.34375 Z M 146.109375 129.914062 "/>
<path style=" stroke:none;fill-rule:nonzero;fill:rgb(0%,0%,0%);fill-opacity:1;" d="M 149.121094 125.773438 L 151.171875 125.773438 L 151.171875 124.894531 L 149.121094 124.894531 L 149.121094 123 L 148.085938 123 L 148.085938 124.894531 L 146.835938 124.894531 L 146.835938 125.773438 L 148.046875 125.773438 L 148.046875 129.777344 C 148.046875 130.65625 148.242188 131.691406 149.277344 131.691406 C 150.273438 131.691406 150.976562 131.339844 151.425781 131.105469 L 151.210938 130.226562 C 150.683594 130.695312 150.136719 130.753906 149.863281 130.753906 C 149.199219 130.753906 149.121094 130.050781 149.121094 129.523438 Z M 149.121094 125.773438 "/>
<path style=" stroke:none;fill-rule:nonzero;fill:rgb(0%,0%,0%);fill-opacity:1;" d="M 154.175781 121.398438 L 152.886719 121.398438 L 152.886719 122.667969 L 154.175781 122.667969 Z M 154.078125 124.894531 L 152.984375 124.894531 L 152.984375 131.535156 L 154.078125 131.535156 Z M 154.078125 124.894531 "/>
<path style=" stroke:none;fill-rule:nonzero;fill:rgb(0%,0%,0%);fill-opacity:1;" d="M 161.730469 124.894531 L 160.617188 124.894531 L 159.523438 127.882812 C 159.269531 128.585938 158.722656 130.167969 158.625 130.734375 L 158.605469 130.734375 C 158.546875 130.207031 158.234375 129.386719 158.019531 128.742188 L 156.632812 124.894531 L 155.480469 124.894531 L 157.941406 131.535156 L 159.269531 131.535156 Z M 161.730469 124.894531 "/>
<path style=" stroke:none;fill-rule:nonzero;fill:rgb(0%,0%,0%);fill-opacity:1;" d="M 168.089844 128.175781 C 168.089844 127.53125 168.03125 126.613281 167.5625 125.832031 C 166.9375 124.796875 165.902344 124.679688 165.472656 124.679688 C 163.851562 124.679688 162.503906 126.222656 162.503906 128.175781 C 162.503906 130.148438 163.949219 131.691406 165.667969 131.691406 C 166.371094 131.691406 167.191406 131.496094 168.011719 130.890625 C 168.011719 130.832031 167.953125 130.363281 167.953125 130.34375 C 167.953125 130.324219 167.914062 129.992188 167.914062 129.933594 C 167.035156 130.675781 166.15625 130.792969 165.707031 130.792969 C 164.554688 130.792969 163.578125 129.757812 163.539062 128.175781 Z M 163.636719 127.375 C 163.890625 126.359375 164.59375 125.578125 165.472656 125.578125 C 165.921875 125.578125 166.957031 125.773438 167.210938 127.375 Z M 163.636719 127.375 "/>
<path style=" stroke:none;fill-rule:nonzero;fill:rgb(0%,0%,0%);fill-opacity:1;" d="M 175.679688 121.164062 L 174.585938 121.164062 L 174.585938 131.535156 L 175.71875 131.535156 L 175.71875 130.871094 C 176.402344 131.515625 177.125 131.691406 177.652344 131.691406 C 179.078125 131.691406 180.367188 130.226562 180.367188 128.195312 C 180.367188 126.359375 179.390625 124.757812 178.003906 124.757812 C 177.574219 124.757812 176.617188 124.835938 175.679688 125.597656 Z M 175.71875 126.496094 C 175.992188 126.085938 176.519531 125.65625 177.261719 125.65625 C 178.160156 125.65625 179.234375 126.339844 179.234375 128.195312 C 179.234375 130.148438 178.023438 130.792969 177.105469 130.792969 C 176.695312 130.792969 176.402344 130.636719 176.128906 130.421875 C 175.777344 130.109375 175.71875 129.855469 175.71875 129.601562 Z M 175.71875 126.496094 "/>
<path style=" stroke:none;fill-rule:nonzero;fill:rgb(0%,0%,0%);fill-opacity:1;" d="M 187.242188 124.894531 L 186.109375 124.894531 L 186.109375 129.171875 C 186.109375 130.304688 185.328125 130.871094 184.351562 130.871094 C 183.296875 130.871094 183.199219 130.480469 183.199219 129.816406 L 183.199219 124.894531 L 182.066406 124.894531 L 182.066406 129.875 C 182.066406 130.949219 182.398438 131.691406 183.628906 131.691406 C 184.058594 131.691406 185.230469 131.613281 186.148438 130.792969 L 186.148438 131.535156 L 187.242188 131.535156 Z M 187.242188 124.894531 "/>
<path style=" stroke:none;fill-rule:nonzero;fill:rgb(0%,0%,0%);fill-opacity:1;" d="M 190.679688 121.164062 L 189.585938 121.164062 L 189.585938 131.535156 L 190.679688 131.535156 Z M 190.679688 121.164062 "/>
<path style=" stroke:none;fill-rule:nonzero;fill:rgb(0%,0%,0%);fill-opacity:1;" d="M 194.128906 121.164062 L 193.035156 121.164062 L 193.035156 131.535156 L 194.167969 131.535156 L 194.167969 130.871094 C 194.851562 131.515625 195.574219 131.691406 196.101562 131.691406 C 197.527344 131.691406 198.816406 130.226562 198.816406 128.195312 C 198.816406 126.359375 197.839844 124.757812 196.453125 124.757812 C 196.023438 124.757812 195.066406 124.835938 194.128906 125.597656 Z M 194.167969 126.496094 C 194.441406 126.085938 194.96875 125.65625 195.710938 125.65625 C 196.609375 125.65625 197.683594 126.339844 197.683594 128.195312 C 197.683594 130.148438 196.472656 130.792969 195.554688 130.792969 C 195.144531 130.792969 194.851562 130.636719 194.578125 130.421875 C 194.226562 130.109375 194.167969 129.855469 194.167969 129.601562 Z M 194.167969 126.496094 "/>
<path style=" stroke:none;fill-rule:nonzero;fill:rgb(0%,0%,0%);fill-opacity:1;" d="M 0 139.800781 L 255.601562 139.800781 L 255.601562 141.300781 L 0 141.300781 Z M 0 139.800781 "/>
</g>
</svg>
