<?xml version="1.0" encoding="UTF-8" standalone="no"?>
<!-- Created with Inkscape (http://www.inkscape.org/) -->

<svg
   xmlns:ns0="http://www.iki.fi/pav/software/textext/"
   xmlns:dc="http://purl.org/dc/elements/1.1/"
   xmlns:cc="http://creativecommons.org/ns#"
   xmlns:rdf="http://www.w3.org/1999/02/22-rdf-syntax-ns#"
   xmlns:svg="http://www.w3.org/2000/svg"
   xmlns="http://www.w3.org/2000/svg"
   xmlns:sodipodi="http://sodipodi.sourceforge.net/DTD/sodipodi-0.dtd"
   xmlns:inkscape="http://www.inkscape.org/namespaces/inkscape"
   width="490.60086"
   height="204.72986"
   id="svg2"
   version="1.1"
   inkscape:version="0.48.3.1 r9886"
   sodipodi:docname="right.svg">
  <sodipodi:namedview
     id="base"
     pagecolor="#ffffff"
     bordercolor="#666666"
     borderopacity="1.0"
     inkscape:pageopacity="0.0"
     inkscape:pageshadow="2"
     inkscape:zoom="0.46942014"
     inkscape:cx="210.49219"
     inkscape:cy="-196.24674"
     inkscape:document-units="px"
     inkscape:current-layer="layer1"
     showgrid="false"
     inkscape:window-width="1062"
     inkscape:window-height="689"
     inkscape:window-x="65"
     inkscape:window-y="24"
     inkscape:window-maximized="0"
     fit-margin-top="0"
     fit-margin-left="0"
     fit-margin-right="0"
     fit-margin-bottom="0"
     showborder="false"
     inkscape:showpageshadow="false">
    <inkscape:grid
       originy="-722.42783px"
       originx="-161.55505px"
       snapvisiblegridlinesonly="true"
       enabled="true"
       visible="true"
       empspacing="5"
       type="xygrid"
       id="grid2985" />
  </sodipodi:namedview>
  <defs
     id="defs4" />
  <metadata
     id="metadata7">
    <rdf:RDF>
      <cc:Work
         rdf:about="">
        <dc:format>image/svg+xml</dc:format>
        <dc:type
           rdf:resource="http://purl.org/dc/dcmitype/StillImage" />
        <dc:title></dc:title>
      </cc:Work>
    </rdf:RDF>
  </metadata>
  <g
     transform="translate(-161.55505,-125.20449)"
     inkscape:label="Layer 1"
     inkscape:groupmode="layer"
     id="layer1">
    <path
       style="color:#000000;fill:none;stroke:#000000;stroke-width:3;stroke-linecap:butt;stroke-linejoin:round;stroke-miterlimit:4;stroke-opacity:1;stroke-dasharray:none;stroke-dashoffset:0;marker:none;visibility:visible;display:inline;overflow:visible;enable-background:accumulate"
       d="m 200,132.36218 0,160"
       id="path2987"
       inkscape:connector-curvature="0" />
    <path
       style="color:#000000;fill:none;stroke:#000000;stroke-width:3;stroke-linecap:butt;stroke-linejoin:round;stroke-miterlimit:4;stroke-opacity:1;stroke-dasharray:none;stroke-dashoffset:0;marker:none;visibility:visible;display:inline;overflow:visible;enable-background:accumulate"
       d="m 440,292.36218 -240,-160"
       id="path2989"
       inkscape:connector-curvature="0" />
    <path
       style="color:#000000;fill:none;stroke:#000000;stroke-width:3;stroke-linecap:butt;stroke-linejoin:round;stroke-miterlimit:4;stroke-opacity:1;stroke-dasharray:none;stroke-dashoffset:0;marker:none;visibility:visible;display:inline;overflow:visible;enable-background:accumulate"
       d="m 200,292.36218 240,0"
       id="path2991"
       inkscape:connector-curvature="0" />
    <path
       style="color:#000000;fill:none;stroke:#000000;stroke-width:2;stroke-linecap:butt;stroke-linejoin:round;stroke-miterlimit:4;stroke-opacity:0.39215686;stroke-dasharray:none;stroke-dashoffset:0;marker:none;visibility:visible;display:inline;overflow:visible;enable-background:accumulate"
       d="m 200,272.36218 20,0"
       id="path3763"
       inkscape:connector-curvature="0" />
    <path
       style="color:#000000;fill:none;stroke:#000000;stroke-width:2;stroke-linecap:butt;stroke-linejoin:round;stroke-miterlimit:4;stroke-opacity:0.39215686;stroke-dasharray:none;stroke-dashoffset:0;marker:none;visibility:visible;display:inline;overflow:visible;enable-background:accumulate"
       d="m 220,292.36218 0,-20"
       id="path3765"
       inkscape:connector-curvature="0" />
    <g
       transform="matrix(0.82328538,0,0,0.82328538,-85.769914,-66.251843)"
       id="g3778">
      <g
         style="font-style:normal;font-variant:normal;font-weight:normal;font-stretch:normal;letter-spacing:normal;word-spacing:normal;text-anchor:start;fill:none;stroke:#000000;stroke-linecap:butt;stroke-linejoin:miter;stroke-miterlimit:10.43299961;stroke-opacity:1;stroke-dasharray:none;stroke-dashoffset:0"
         id="content"
         transform="matrix(1.0629921,0,0,-1.0629921,-186.02362,789.27165)"
         xml:space="preserve"
         stroke-miterlimit="10.433"
         font-style="normal"
         font-variant="normal"
         font-weight="normal"
         font-stretch="normal"
         font-size-adjust="none"
         letter-spacing="normal"
         word-spacing="normal"><path
           style="fill:#000000;stroke-width:0"
           inkscape:connector-curvature="0"
           d="m 469.97,423.73 0.38,0.13 0.37,0.15 0.37,0.15 0.35,0.17 0.35,0.18 0.34,0.19 0.33,0.2 0.32,0.22 0.31,0.22 0.31,0.23 0.29,0.24 0.28,0.25 0.27,0.26 0.26,0.27 0.25,0.27 0.24,0.29 0.22,0.29 0.21,0.3 0.2,0.3 0.19,0.32 0.18,0.32 0.16,0.32 0.14,0.33 0.14,0.34 0.11,0.34 0.11,0.34 0.09,0.35 0.07,0.36 0.06,0.36 0.04,0.36 0.02,0.36 0.01,0.37 c 0,4.08 -4.39,6.88 -9.17,6.88 -5.03,0 -8.81,-3 -8.81,-6.78 0,-1.65 1.09,-2.6 2.54,-2.6 1.54,0 2.54,1.1 2.54,2.55 0,2.48 -2.35,2.48 -3.08,2.48 1.53,2.44 4.83,3.1 6.62,3.1 2.03,0 4.78,-1.1 4.78,-5.58 0,-0.61 -0.11,-3.49 -1.4,-5.69 -1.49,-2.39 -3.19,-2.53 -4.42,-2.59 -0.41,-0.05 -1.6,-0.14 -1.96,-0.14 -0.39,-0.05 -0.75,-0.1 -0.75,-0.6 0,-0.54 0.36,-0.54 1.21,-0.54 h 2.18 c 4.1,0 5.94,-3.39 5.94,-8.29 0,-6.76 -3.44,-8.21 -5.64,-8.21 -2.14,0 -5.88,0.84 -7.61,3.78 1.73,-0.24 3.28,0.86 3.28,2.75 0,1.79 -1.34,2.78 -2.8,2.78 -1.18,0 -2.78,-0.69 -2.78,-2.89 0,-4.53 4.63,-7.81 10.07,-7.81 6.07,0 10.61,4.53 10.61,9.6 0,4.1 -3.15,7.97 -8.32,9.02 z"
           id="path3781" /></g>    </g>
    <g
       transform="matrix(0.83670984,0,0,0.83670984,53.021282,30.823756)"
       id="g3809">
      <g
         style="font-style:normal;font-variant:normal;font-weight:normal;font-stretch:normal;letter-spacing:normal;word-spacing:normal;text-anchor:start;fill:none;stroke:#000000;stroke-linecap:butt;stroke-linejoin:miter;stroke-miterlimit:10.43299961;stroke-opacity:1;stroke-dasharray:none;stroke-dashoffset:0"
         word-spacing="normal"
         letter-spacing="normal"
         font-size-adjust="none"
         font-stretch="normal"
         font-weight="normal"
         font-variant="normal"
         font-style="normal"
         stroke-miterlimit="10.433"
         xml:space="preserve"
         transform="matrix(1.0629921,0,0,-1.0629921,-186.02362,789.27165)"
         id="g3811"><path
           style="fill:#000000;stroke-width:0"
           inkscape:connector-curvature="0"
           id="path3813"
           d="m 470.16,414.42 v -4.33 c 0,-1.8 -0.09,-2.34 -3.78,-2.34 h -1.05 v -1.55 c 2.05,0.16 4.64,0.16 6.74,0.16 2.09,0 4.73,0 6.76,-0.16 v 1.55 h -1.04 c -3.69,0 -3.79,0.54 -3.79,2.34 v 4.33 h 4.99 v 1.54 H 474 v 22.68 c 0,1 0,1.29 -0.79,1.29 -0.46,0 -0.6,0 -1,-0.61 l -15.3,-23.36 h 1.41 l 12.15,18.58 v -18.58 h -12.15 -1.41 v -1.54 z" /></g>    </g>
    <g
       transform="matrix(0.61250835,0,0,0.61250835,27.788273,-32.597326)"
       id="g3847">
      <g
         style="font-style:normal;font-variant:normal;font-weight:normal;font-stretch:normal;letter-spacing:normal;word-spacing:normal;text-anchor:start;fill:none;stroke:#000000;stroke-linecap:butt;stroke-linejoin:miter;stroke-miterlimit:10.43299961;stroke-opacity:1;stroke-dasharray:none;stroke-dashoffset:0"
         id="g3849"
         transform="matrix(1.0629921,0,0,-1.0629921,-186.02362,789.27165)"
         xml:space="preserve"
         stroke-miterlimit="10.433"
         font-style="normal"
         font-variant="normal"
         font-weight="normal"
         font-stretch="normal"
         font-size-adjust="none"
         letter-spacing="normal"
         word-spacing="normal"><path
           style="fill:#000000;stroke-width:0"
           inkscape:connector-curvature="0"
           d="m 477.29,439.57 0,0.01 0,0.01 0,0 0,0.01 0,0.01 0,0.01 0,0 0,0.01 0.01,0.02 0,0.03 0,0.02 0.01,0.02 0.01,0.03 0,0.03 0.01,0.02 0,0.03 0.01,0.03 0.01,0.03 0.01,0.06 0.02,0.06 0,0.03 0.01,0.02 0.01,0.03 0,0.03 0.01,0.02 0.01,0.02 0,0.02 0.01,0.02 0,0.01 0,0.01 0,0.01 0,0.01 0.01,0 0,0.01 0,0.01 0,0 0,0.01 0,0 0,0 0,0.01 c 0,0.04 0,0.5 -0.59,0.5 -0.5,0 -0.55,-0.16 -0.75,-1 l -2.89,-11.5 c -7.92,-0.25 -15.25,-6.88 -15.25,-13.66 0,-4.73 3.48,-8.67 9.56,-9.01 l 0.25,1.09 c -2.98,0.14 -6.58,1.89 -6.58,6.87 0,5.99 4.3,12.96 11.72,13.6 l -5.14,-20.47 -0.25,-1.09 c -0.39,-1.55 -0.73,-3.15 -1.14,-4.69 -0.59,-2.35 -1.09,-4.24 -1.09,-4.39 0,-0.49 0.34,-0.55 0.59,-0.55 0.25,0 0.36,0.06 0.5,0.2 0.09,0.1 0.41,1.3 0.55,2 l 1.89,7.43 0.25,1.09 5.14,20.47 c 3.78,-0.19 6.62,-2.49 6.62,-6.88 0,-5.87 -4.28,-13 -11.76,-13.59 l -0.25,-1.09 c 8.03,0.25 15.25,6.96 15.25,13.64 0,3.93 -2.64,8.53 -9.57,9.03 z"
           id="path3851" /></g>    </g>
    <path
       inkscape:connector-curvature="0"
       id="path3871"
       d="m 200,167.36218 25,-20"
       style="color:#000000;fill:none;stroke:#000000;stroke-width:2;stroke-linecap:butt;stroke-linejoin:round;stroke-miterlimit:4;stroke-opacity:0.39215686;stroke-dasharray:none;stroke-dashoffset:0;marker:none;visibility:visible;display:inline;overflow:visible;enable-background:accumulate" />
    <path
       inkscape:connector-curvature="0"
       id="path3873"
       d="m 201.79566,149.85053 c 0,-11.15137 0.11448,-14.01927 0.54928,-13.76044 0.3021,0.17984 4.6764,3.07708 9.72067,6.4383 7.57104,5.04494 9.06623,6.20849 8.56871,6.66811 -1.31643,1.21616 -18.38656,14.74145 -18.60503,14.74145 -0.1285,0 -0.23363,-6.33934 -0.23363,-14.08742 z"
       style="fill:#008080;fill-opacity:1;stroke:none" />
    <g
       style="font-style:normal;font-variant:normal;font-weight:normal;font-stretch:normal;letter-spacing:normal;word-spacing:normal;text-anchor:start;fill:none;stroke:#000000;stroke-linecap:butt;stroke-linejoin:miter;stroke-miterlimit:10.43299961;stroke-opacity:1;stroke-dasharray:none;stroke-dashoffset:0"
       ns0:preamble="/home/abhinavc/playpen/textext/preamble.ini"
       ns0:text="$\\cos\\phi = \\frac{3}{7}\\text{ and }\\sin\\phi=\\frac{4}{7}$"
       text-anchor="start"
       word-spacing="normal"
       letter-spacing="normal"
       font-size-adjust="none"
       font-stretch="normal"
       font-weight="normal"
       font-variant="normal"
       font-style="normal"
       fill-opacity="1"
       fill-rule="evenodd"
       fill="none"
       stroke-opacity="1"
       stroke-dashoffset="0"
       stroke-dasharray="none"
       stroke-miterlimit="10.433"
       stroke-linejoin="miter"
       stroke-linecap="butt"
       stroke="black"
       xml:space="preserve"
       transform="matrix(3.5914743,0,0,-3.5914743,-883.48309,2054.5804)"
       id="g4190">
<path
   id="path4192"
   fill="black"
   stroke-width="0"
   d="M326.3,530.76 L326.3,530.84 L326.3,530.91 L326.3,530.98 L326.31,531.05 L326.31,531.12 L326.32,531.19 L326.33,531.25 L326.33,531.32 L326.34,531.38 L326.35,531.44 L326.36,531.5 L326.38,531.55 L326.4,531.66 L326.43,531.76 L326.47,531.86 L326.5,531.95 L326.54,532.04 L326.58,532.12 L326.63,532.19 L326.67,532.26 L326.72,532.33 L326.77,532.39 L326.82,532.44 L326.88,532.49 L326.93,532.54 L326.98,532.58 L327.04,532.62 L327.1,532.65 L327.15,532.68 L327.21,532.71 L327.27,532.73 L327.32,532.75 L327.38,532.77 L327.43,532.78 L327.49,532.79 L327.54,532.79 L327.59,532.8 L327.64,532.8 C327.73,532.8,328.36,532.79,328.71,532.43 C328.3,532.4,328.24,532.1,328.24,531.97 C328.24,531.72,328.42,531.52,328.7,531.52 C328.95,531.52,329.15,531.69,329.15,531.98 C329.15,532.66,328.4,533.05,327.63,533.05 C326.39,533.05,325.47,531.97,325.47,530.74 C325.47,529.47,326.46,528.49,327.61,528.49 C328.95,528.49,329.26,529.68,329.26,529.78 C329.26,529.88,329.16,529.88,329.13,529.88 C329.04,529.88,329.02,529.84,329,529.78 C328.72,528.85,328.07,528.74,327.7,528.74 C327.17,528.74,326.3,529.16,326.3,530.76 Z " />
<path
   id="path4194"
   fill="black"
   stroke-width="0"
   d="M334.25,530.72 L334.24,530.84 L334.24,530.96 L334.22,531.07 L334.2,531.19 L334.18,531.3 L334.15,531.41 L334.11,531.52 L334.07,531.62 L334.03,531.73 L333.98,531.83 L333.93,531.92 L333.87,532.02 L333.81,532.11 L333.74,532.2 L333.67,532.28 L333.6,532.36 L333.52,532.44 L333.44,532.51 L333.36,532.58 L333.27,532.65 L333.18,532.71 L333.09,532.76 L333,532.82 L332.9,532.86 L332.8,532.9 L332.7,532.94 L332.6,532.97 L332.49,533 L332.38,533.02 L332.27,533.03 L332.16,533.04 L332.05,533.05 L332.04,532.83 C332.48,532.83,332.9,532.61,333.16,532.18 C333.42,531.76,333.42,531.18,333.42,530.8 C333.42,530.45,333.42,529.91,333.2,529.47 C332.98,529.02,332.55,528.74,332.05,528.74 H332.05 C331.62,528.74,331.18,528.95,330.91,529.4 C330.67,529.84,330.67,530.45,330.67,530.8 C330.67,531.19,330.67,531.73,330.9,532.16 C331.17,532.62,331.64,532.83,332.04,532.83 L332.05,533.05 C330.8,533.05,329.84,531.97,329.84,530.72 C329.84,529.44,330.88,528.49,332.04,528.49 C333.24,528.49,334.25,529.46,334.25,530.72 Z " />
<path
   id="path4196"
   fill="black"
   stroke-width="0"
   d="M336.61,530.52 L336.63,530.52 L336.66,530.52 L336.69,530.51 L336.72,530.5 L336.75,530.49 L336.79,530.49 L336.83,530.48 L336.87,530.46 L336.91,530.45 L336.95,530.44 L336.99,530.42 L337.04,530.41 L337.08,530.39 L337.12,530.37 L337.17,530.34 L337.21,530.32 L337.25,530.29 L337.3,530.27 L337.34,530.24 L337.38,530.2 L337.42,530.17 L337.45,530.13 L337.48,530.09 L337.52,530.05 L337.54,530 L337.56,529.98 L337.57,529.96 L337.58,529.93 L337.59,529.91 L337.6,529.88 L337.61,529.85 L337.62,529.83 L337.63,529.8 L337.63,529.77 L337.64,529.74 L337.64,529.71 L337.64,529.68 L337.65,529.64 L337.65,529.61 C337.65,529.1,337.3,528.71,336.52,528.71 C335.69,528.71,335.33,529.27,335.14,530.12 C335.11,530.25,335.1,530.29,335,530.29 C334.87,530.29,334.87,530.22,334.87,530.04 V528.73 C334.87,528.56,334.87,528.49,334.98,528.49 C335.03,528.49,335.04,528.5,335.23,528.69 C335.25,528.71,335.25,528.73,335.43,528.91 C335.87,528.5,336.31,528.49,336.52,528.49 C337.67,528.49,338.12,529.15,338.12,529.87 C338.12,530.4,337.83,530.69,337.71,530.81 C337.38,531.13,336.99,531.21,336.57,531.29 C336.02,531.4,335.35,531.53,335.35,532.1 C335.35,532.45,335.61,532.86,336.46,532.86 C337.56,532.86,337.61,531.97,337.63,531.66 C337.64,531.57,337.73,531.57,337.75,531.57 C337.88,531.57,337.88,531.62,337.88,531.81 V532.81 C337.88,532.98,337.88,533.05,337.77,533.05 C337.72,533.05,337.7,533.05,337.57,532.93 C337.54,532.89,337.44,532.8,337.4,532.77 C337.02,533.05,336.61,533.05,336.46,533.05 C335.25,533.05,334.87,532.38,334.87,531.83 C334.87,531.48,335.03,531.2,335.3,530.98 C335.62,530.72,335.9,530.66,336.61,530.52 Z " />
<path
   id="path4198"
   fill="black"
   stroke-width="0"
   d="M344.48,535.25 L344.48,535.25 L344.48,535.26 L344.48,535.26 L344.48,535.26 L344.48,535.26 L344.48,535.26 L344.48,535.26 L344.48,535.26 L344.48,535.27 L344.48,535.27 L344.48,535.28 L344.49,535.28 L344.49,535.29 L344.49,535.29 L344.49,535.3 L344.49,535.3 L344.49,535.31 L344.49,535.31 L344.5,535.33 L344.5,535.34 L344.5,535.34 L344.5,535.35 L344.5,535.35 L344.5,535.36 L344.51,535.36 L344.51,535.37 L344.51,535.37 L344.51,535.38 L344.51,535.38 L344.51,535.38 L344.51,535.38 L344.51,535.39 L344.51,535.39 L344.51,535.39 L344.51,535.39 L344.51,535.39 L344.51,535.39 L344.51,535.39 L344.51,535.39 C344.51,535.4,344.51,535.49,344.39,535.49 C344.29,535.49,344.28,535.46,344.24,535.29 L343.67,533 C342.08,532.95,340.62,531.63,340.62,530.28 C340.62,529.33,341.32,528.55,342.53,528.48 L342.58,528.7 C341.98,528.73,341.27,529.07,341.27,530.07 C341.27,531.26,342.12,532.65,343.61,532.78 L342.58,528.7 L342.53,528.48 C342.45,528.17,342.38,527.85,342.3,527.54 C342.18,527.08,342.08,526.7,342.08,526.67 C342.08,526.57,342.15,526.56,342.2,526.56 C342.25,526.56,342.27,526.57,342.3,526.6 C342.32,526.62,342.38,526.86,342.41,527 L342.79,528.48 L342.84,528.7 L343.86,532.78 C344.62,532.74,345.19,532.28,345.19,531.41 C345.19,530.24,344.33,528.82,342.84,528.7 L342.79,528.48 C344.39,528.53,345.83,529.87,345.83,531.2 C345.83,531.98,345.31,532.9,343.92,533 Z " />
<path
   id="path4200"
   fill="black"
   stroke-width="0"
   d="M355.67,531.84 L355.7,531.85 L355.73,531.85 L355.76,531.85 L355.77,531.85 L355.79,531.85 L355.8,531.85 L355.82,531.85 L355.83,531.85 L355.84,531.86 L355.86,531.86 L355.87,531.86 L355.88,531.87 L355.9,531.87 L355.91,531.87 L355.92,531.88 L355.93,531.89 L355.94,531.89 L355.95,531.9 L355.96,531.91 L355.97,531.92 L355.98,531.93 L355.98,531.93 L355.99,531.94 L355.99,531.95 L355.99,531.95 L355.99,531.96 L356,531.96 L356,531.97 L356,531.98 L356,531.99 L356.01,531.99 L356.01,532 L356.01,532.01 L356.01,532.02 L356.01,532.03 L356.01,532.03 L356.01,532.04 C356.01,532.24,355.82,532.24,355.68,532.24 H349.72 C349.58,532.24,349.39,532.24,349.39,532.04 C349.39,531.84,349.58,531.84,349.73,531.84 Z " />
<path
   id="path4202"
   fill="black"
   stroke-width="0"
   d="M355.68,529.92 L355.7,529.92 L355.71,529.92 L355.74,529.92 L355.76,529.92 L355.78,529.92 L355.79,529.92 L355.81,529.92 L355.82,529.92 L355.83,529.93 L355.85,529.93 L355.86,529.93 L355.87,529.93 L355.89,529.94 L355.9,529.94 L355.91,529.95 L355.92,529.95 L355.93,529.96 L355.94,529.97 L355.95,529.97 L355.96,529.98 L355.97,529.99 L355.97,530 L355.98,530 L355.98,530.01 L355.99,530.01 L355.99,530.02 L355.99,530.02 L355.99,530.03 L356,530.04 L356,530.04 L356,530.05 L356,530.06 L356.01,530.07 L356.01,530.07 L356.01,530.08 L356.01,530.09 L356.01,530.1 L356.01,530.11 L356.01,530.12 C356.01,530.32,355.82,530.32,355.67,530.32 H349.73 C349.58,530.32,349.39,530.32,349.39,530.12 C349.39,529.92,349.58,529.92,349.72,529.92 Z " />
<path
   id="path4204"
   fill="black"
   stroke-width="0"
   d="M362.45,534.84 L362.5,534.84 L362.55,534.84 L362.6,534.83 L362.65,534.82 L362.69,534.81 L362.74,534.8 L362.78,534.79 L362.82,534.77 L362.87,534.75 L362.91,534.73 L362.95,534.71 L362.98,534.68 L363.02,534.66 L363.05,534.63 L363.09,534.59 L363.12,534.56 L363.15,534.52 L363.18,534.49 L363.21,534.45 L363.23,534.4 L363.25,534.36 L363.28,534.31 L363.3,534.26 L363.31,534.21 L363.33,534.16 L363.34,534.1 L363.36,534.04 L363.37,533.98 L363.37,533.92 L363.38,533.86 L363.38,533.79 L363.38,533.72 C363.38,532.86,362.88,532.6,362.48,532.6 C362.2,532.6,361.59,532.68,361.29,533.09 C361.62,533.1,361.7,533.33,361.7,533.48 C361.7,533.7,361.53,533.86,361.31,533.86 C361.12,533.86,360.92,533.74,360.92,533.46 C360.92,532.8,361.65,532.38,362.49,532.38 C363.46,532.38,364.13,533.03,364.13,533.72 C364.13,534.26,363.68,534.81,362.92,534.97 C363.65,535.23,363.91,535.75,363.91,536.18 C363.91,536.73,363.28,537.14,362.51,537.14 C361.73,537.14,361.14,536.76,361.14,536.2 C361.14,535.97,361.29,535.84,361.5,535.84 C361.72,535.84,361.86,536,361.86,536.19 C361.86,536.39,361.72,536.54,361.5,536.55 C361.75,536.86,362.23,536.93,362.48,536.93 C362.8,536.93,363.24,536.78,363.24,536.18 C363.24,535.89,363.14,535.57,362.96,535.35 C362.73,535.09,362.53,535.07,362.18,535.05 C362.01,535.04,362,535.04,361.96,535.03 C361.95,535.03,361.89,535.02,361.89,534.94 C361.89,534.84,361.95,534.84,362.07,534.84 Z " />
<line
   id="line4206"
   stroke-width="0.398"
   y2="531.09"
   x2="364.52"
   y1="531.09"
   x1="360.55" />
<path
   id="path4208"
   fill="black"
   stroke-width="0"
   d="M364.27,529.36 L364.28,529.37 L364.29,529.38 L364.29,529.38 L364.3,529.39 L364.3,529.4 L364.31,529.4 L364.31,529.41 L364.31,529.41 L364.32,529.42 L364.32,529.43 L364.32,529.43 L364.33,529.44 L364.33,529.44 L364.33,529.45 L364.33,529.46 L364.34,529.46 L364.34,529.47 L364.34,529.48 L364.34,529.49 L364.34,529.49 L364.34,529.5 L364.34,529.51 L364.34,529.52 L364.34,529.53 L364.34,529.54 L364.34,529.55 L364.34,529.57 L364.34,529.58 L364.34,529.59 L364.34,529.6 L364.34,529.61 L364.34,529.61 L364.34,529.62 L364.34,529.63 L364.34,529.64 H362.52 C362.24,529.64,362.16,529.65,361.91,529.67 C361.55,529.7,361.54,529.74,361.52,529.86 H361.28 L361.04,528.37 H361.27 C361.29,528.48,361.36,528.94,361.47,529.01 C361.52,529.05,362.09,529.05,362.19,529.05 H363.71 C363.49,528.76,363.13,528.33,362.99,528.13 C362.07,526.93,361.99,525.83,361.99,525.42 C361.99,525.34,361.99,525.02,362.32,525.02 C362.65,525.02,362.65,525.34,362.65,525.42 V525.7 C362.65,527.05,362.93,527.67,363.23,528.05 Z " />
<path
   id="path4210"
   fill="black"
   stroke-width="0"
   d="M373.01,531.47 L373,531.56 L373,531.65 L372.99,531.74 L372.97,531.83 L372.95,531.92 L372.93,532 L372.91,532.08 L372.88,532.16 L372.85,532.24 L372.81,532.31 L372.77,532.38 L372.73,532.45 L372.68,532.52 L372.63,532.58 L372.58,532.64 L372.53,532.7 L372.47,532.76 L372.41,532.81 L372.35,532.86 L372.29,532.9 L372.22,532.95 L372.15,532.98 L372.08,533.02 L372.01,533.05 L371.93,533.08 L371.86,533.11 L371.78,533.13 L371.7,533.15 L371.62,533.16 L371.53,533.17 L371.45,533.17 L371.36,533.18 C370.72,533.18,370.27,533.02,369.8,532.75 L369.86,532.09 C370.38,532.46,370.88,532.59,371.36,532.59 C371.83,532.59,372.23,532.19,372.23,531.46 V531.03 C370.74,531.01,369.47,530.59,369.47,529.72 C369.47,529.29,369.74,528.49,370.61,528.49 C370.75,528.49,371.68,528.51,372.26,528.96 L371.89,529.28 C371.6,529.1,371.23,529.09,371.11,529.09 C370.64,529.09,370.19,529.32,370.19,529.74 C370.19,530.43,371.8,530.5,372.23,530.52 V529.91 C372.23,529.72,372.23,529.47,371.89,529.28 L372.26,528.96 V528.6 H373.01 Z " />
<path
   id="path4212"
   fill="black"
   stroke-width="0"
   d="M378.15,531.56 L378.15,531.62 L378.15,531.68 L378.15,531.75 L378.14,531.81 L378.14,531.88 L378.13,531.94 L378.12,532.01 L378.11,532.08 L378.1,532.14 L378.08,532.21 L378.06,532.27 L378.04,532.34 L378.02,532.4 L377.99,532.46 L377.96,532.52 L377.93,532.58 L377.89,532.64 L377.85,532.69 L377.8,532.75 L377.75,532.8 L377.7,532.84 L377.64,532.89 L377.58,532.93 L377.51,532.97 L377.48,532.98 L377.44,533 L377.4,533.01 L377.37,533.03 L377.33,533.04 L377.28,533.06 L377.24,533.07 L377.2,533.08 L377.15,533.09 L377.1,533.09 L377.05,533.1 L377,533.11 L376.95,533.11 L376.9,533.11 L376.85,533.12 L376.79,533.12 C375.89,533.12,375.41,532.44,375.35,532.36 V533.07 H374.63 V528.6 H375.41 V531.03 C375.41,531.69,375.65,532.51,376.41,532.51 C377.37,532.51,377.38,531.81,377.38,531.49 V528.6 H378.15 Z " />
<path
   id="path4214"
   fill="black"
   stroke-width="0"
   d="M383.29,535.49 H382.54 V532.57 C382.02,533.01,381.46,533.12,381.09,533.12 C380.11,533.12,379.33,532.08,379.33,530.8 C379.33,529.5,380.1,528.49,381.04,528.49 C381.37,528.49,381.96,528.58,382.51,529.11 L382.18,529.37 C381.96,529.17,381.71,529.09,381.45,529.09 C380.83,529.09,380.11,529.56,380.11,530.79 C380.11,532.1,380.96,532.51,381.55,532.51 C382,532.51,382.3,532.28,382.51,531.97 V529.98 C382.51,529.84,382.5,529.66,382.18,529.37 L382.51,529.11 V528.6 H383.29 Z " />
<path
   id="path4216"
   fill="black"
   stroke-width="0"
   d="M391.17,530.52 L391.19,530.52 L391.22,530.52 L391.24,530.51 L391.28,530.5 L391.31,530.49 L391.34,530.49 L391.38,530.48 L391.42,530.46 L391.46,530.45 L391.51,530.44 L391.55,530.42 L391.59,530.41 L391.64,530.39 L391.68,530.37 L391.72,530.34 L391.77,530.32 L391.81,530.29 L391.85,530.27 L391.89,530.24 L391.93,530.2 L391.97,530.17 L392.01,530.13 L392.04,530.09 L392.07,530.05 L392.1,530 L392.11,529.98 L392.13,529.96 L392.14,529.93 L392.15,529.91 L392.16,529.88 L392.17,529.85 L392.18,529.83 L392.18,529.8 L392.19,529.77 L392.19,529.74 L392.2,529.71 L392.2,529.68 L392.2,529.64 L392.2,529.61 C392.2,529.1,391.86,528.71,391.08,528.71 C390.24,528.71,389.89,529.27,389.7,530.12 C389.67,530.25,389.66,530.29,389.56,530.29 C389.43,530.29,389.43,530.22,389.43,530.04 V528.73 C389.43,528.56,389.43,528.49,389.54,528.49 C389.59,528.49,389.6,528.5,389.79,528.69 C389.8,528.71,389.8,528.73,389.98,528.91 C390.42,528.5,390.87,528.49,391.08,528.49 C392.22,528.49,392.68,529.15,392.68,529.87 C392.68,530.4,392.38,530.69,392.26,530.81 C391.93,531.13,391.55,531.21,391.13,531.29 C390.57,531.4,389.9,531.53,389.9,532.1 C389.9,532.45,390.16,532.86,391.02,532.86 C392.11,532.86,392.16,531.97,392.18,531.66 C392.19,531.57,392.28,531.57,392.3,531.57 C392.43,531.57,392.43,531.62,392.43,531.81 V532.81 C392.43,532.98,392.43,533.05,392.32,533.05 C392.27,533.05,392.25,533.05,392.12,532.93 C392.09,532.89,391.99,532.8,391.95,532.77 C391.58,533.05,391.17,533.05,391.02,533.05 C389.8,533.05,389.43,532.38,389.43,531.83 C389.43,531.48,389.59,531.2,389.86,530.98 C390.17,530.72,390.45,530.66,391.17,530.52 Z " />
<path
   id="path4218"
   fill="black"
   stroke-width="0"
   d="M394.79,532.99 L393.4,532.88 V532.57 C394.04,532.57,394.13,532.51,394.13,532.02 V529.35 C394.13,528.91,394.02,528.91,393.36,528.91 V528.6 C393.67,528.61,394.21,528.63,394.45,528.63 C394.8,528.63,395.15,528.61,395.49,528.6 V528.91 C394.83,528.91,394.79,528.96,394.79,529.34 Z " />
<path
   id="path4220"
   fill="black"
   stroke-width="0"
   d="M394.83,534.72 L394.83,534.75 L394.83,534.77 L394.82,534.8 L394.82,534.83 L394.81,534.86 L394.8,534.88 L394.8,534.91 L394.79,534.93 L394.77,534.96 L394.76,534.98 L394.75,535 L394.74,535.02 L394.72,535.04 L394.7,535.06 L394.69,535.08 L394.67,535.1 L394.65,535.12 L394.63,535.13 L394.61,535.15 L394.59,535.16 L394.57,535.17 L394.55,535.18 L394.52,535.2 L394.5,535.21 L394.48,535.21 L394.45,535.22 L394.43,535.23 L394.4,535.23 L394.38,535.24 L394.35,535.24 L394.33,535.24 L394.3,535.24 C393.99,535.24,393.77,534.97,393.77,534.72 C393.77,534.45,393.99,534.19,394.3,534.19 C394.58,534.19,394.83,534.4,394.83,534.72 Z " />
<path
   id="path4222"
   fill="black"
   stroke-width="0"
   d="M396.89,532.01 V529.35 C396.89,528.91,396.78,528.91,396.11,528.91 V528.6 C396.46,528.61,396.97,528.63,397.24,528.63 C397.5,528.63,398.02,528.61,398.35,528.6 V528.91 C397.69,528.91,397.58,528.91,397.58,529.35 V531.18 C397.58,532.21,398.28,532.77,398.92,532.77 C399.55,532.77,399.66,532.23,399.66,531.67 V529.35 C399.66,528.91,399.55,528.91,398.88,528.91 V528.6 C399.23,528.61,399.74,528.63,400,528.63 C400.26,528.63,400.78,528.61,401.12,528.6 V528.91 C400.6,528.91,400.35,528.91,400.34,529.2 V531.1 C400.34,531.96,400.34,532.26,400.03,532.62 C399.89,532.79,399.57,532.99,398.99,532.99 C398.26,532.99,397.8,532.56,397.52,531.95 V532.99 L396.11,532.88 V532.57 C396.81,532.57,396.89,532.5,396.89,532.01 Z " />
<path
   id="path4224"
   fill="black"
   stroke-width="0"
   d="M407.34,535.25 L407.34,535.25 L407.34,535.26 L407.34,535.26 L407.34,535.26 L407.34,535.26 L407.34,535.26 L407.34,535.26 L407.34,535.26 L407.34,535.27 L407.34,535.27 L407.34,535.28 L407.34,535.28 L407.35,535.29 L407.35,535.29 L407.35,535.3 L407.35,535.3 L407.35,535.31 L407.35,535.31 L407.35,535.33 L407.36,535.34 L407.36,535.34 L407.36,535.35 L407.36,535.35 L407.36,535.36 L407.36,535.36 L407.37,535.37 L407.37,535.37 L407.37,535.38 L407.37,535.38 L407.37,535.38 L407.37,535.38 L407.37,535.39 L407.37,535.39 L407.37,535.39 L407.37,535.39 L407.37,535.39 L407.37,535.39 L407.37,535.39 L407.37,535.39 C407.37,535.4,407.37,535.49,407.25,535.49 C407.15,535.49,407.14,535.46,407.1,535.29 L406.52,533 C404.94,532.95,403.48,531.63,403.48,530.28 C403.48,529.33,404.18,528.55,405.39,528.48 L405.44,528.7 C404.84,528.73,404.13,529.07,404.13,530.07 C404.13,531.26,404.98,532.65,406.46,532.78 L405.44,528.7 L405.39,528.48 C405.31,528.17,405.24,527.85,405.16,527.54 C405.04,527.08,404.94,526.7,404.94,526.67 C404.94,526.57,405.01,526.56,405.06,526.56 C405.11,526.56,405.13,526.57,405.16,526.6 C405.18,526.62,405.24,526.86,405.27,527 L405.65,528.48 L405.7,528.7 L406.72,532.78 C407.48,532.74,408.05,532.28,408.05,531.41 C408.05,530.24,407.19,528.82,405.7,528.7 L405.65,528.48 C407.25,528.53,408.69,529.87,408.69,531.2 C408.69,531.98,408.17,532.9,406.78,533 Z " />
<path
   id="path4226"
   fill="black"
   stroke-width="0"
   d="M418.53,531.84 L418.56,531.85 L418.59,531.85 L418.62,531.85 L418.63,531.85 L418.65,531.85 L418.66,531.85 L418.67,531.85 L418.69,531.85 L418.7,531.86 L418.72,531.86 L418.73,531.86 L418.74,531.87 L418.75,531.87 L418.77,531.87 L418.78,531.88 L418.79,531.89 L418.8,531.89 L418.81,531.9 L418.82,531.91 L418.83,531.92 L418.84,531.93 L418.84,531.93 L418.84,531.94 L418.85,531.95 L418.85,531.95 L418.85,531.96 L418.86,531.96 L418.86,531.97 L418.86,531.98 L418.86,531.99 L418.86,531.99 L418.86,532 L418.87,532.01 L418.87,532.02 L418.87,532.03 L418.87,532.03 L418.87,532.04 C418.87,532.24,418.68,532.24,418.54,532.24 H412.58 C412.44,532.24,412.25,532.24,412.25,532.04 C412.25,531.84,412.44,531.84,412.59,531.84 Z " />
<path
   id="path4228"
   fill="black"
   stroke-width="0"
   d="M418.54,529.92 L418.55,529.92 L418.57,529.92 L418.59,529.92 L418.62,529.92 L418.64,529.92 L418.65,529.92 L418.66,529.92 L418.68,529.92 L418.69,529.93 L418.7,529.93 L418.72,529.93 L418.73,529.93 L418.74,529.94 L418.76,529.94 L418.77,529.95 L418.78,529.95 L418.79,529.96 L418.8,529.97 L418.81,529.97 L418.82,529.98 L418.83,529.99 L418.83,530 L418.84,530 L418.84,530.01 L418.84,530.01 L418.85,530.02 L418.85,530.02 L418.85,530.03 L418.86,530.04 L418.86,530.04 L418.86,530.05 L418.86,530.06 L418.86,530.07 L418.86,530.07 L418.87,530.08 L418.87,530.09 L418.87,530.1 L418.87,530.11 L418.87,530.12 C418.87,530.32,418.68,530.32,418.53,530.32 H412.59 C412.44,530.32,412.25,530.32,412.25,530.12 C412.25,529.92,412.44,529.92,412.58,529.92 Z " />
<path
   id="path4230"
   fill="black"
   stroke-width="0"
   d="M427.09,533.66 V533.91 H426.32 V537.01 C426.32,537.16,426.32,537.21,426.17,537.21 C426.08,537.21,426.05,537.21,425.98,537.11 L423.68,533.91 V533.66 H425.73 L425.77,533.91 H423.94 L425.77,536.46 V533.91 L425.73,533.66 V533.09 C425.73,532.85,425.73,532.77,425.16,532.77 H424.97 V532.52 C425.32,532.53,425.77,532.55,426.02,532.55 C426.28,532.55,426.72,532.53,427.07,532.52 V532.77 H426.88 C426.32,532.77,426.32,532.85,426.32,533.09 V533.66 Z " />
<line
   id="line4232"
   stroke-width="0.398"
   y2="531.09"
   x2="427.38"
   y1="531.09"
   x1="423.41" />
<path
   id="path4234"
   fill="black"
   stroke-width="0"
   d="M427.13,529.36 L427.14,529.37 L427.15,529.38 L427.15,529.38 L427.16,529.39 L427.16,529.4 L427.17,529.4 L427.17,529.41 L427.17,529.41 L427.18,529.42 L427.18,529.43 L427.18,529.43 L427.19,529.44 L427.19,529.44 L427.19,529.45 L427.19,529.46 L427.19,529.46 L427.2,529.47 L427.2,529.48 L427.2,529.49 L427.2,529.49 L427.2,529.5 L427.2,529.51 L427.2,529.52 L427.2,529.53 L427.2,529.54 L427.2,529.55 L427.2,529.57 L427.2,529.58 L427.2,529.59 L427.2,529.6 L427.2,529.61 L427.2,529.61 L427.2,529.62 L427.2,529.63 L427.2,529.64 H425.38 C425.1,529.64,425.02,529.65,424.77,529.67 C424.41,529.7,424.4,529.74,424.38,529.86 H424.14 L423.89,528.37 H424.13 C424.14,528.48,424.21,528.94,424.33,529.01 C424.38,529.05,424.95,529.05,425.05,529.05 H426.57 C426.35,528.76,425.99,528.33,425.85,528.13 C424.93,526.93,424.85,525.83,424.85,525.42 C424.85,525.34,424.85,525.02,425.18,525.02 C425.51,525.02,425.51,525.34,425.51,525.42 V525.7 C425.51,527.05,425.79,527.67,426.09,528.05 Z " />
</g>  </g>
</svg>
