<?xml version="1.0" encoding="UTF-8"?>
<svg width="869" height="473" xmlns="http://www.w3.org/2000/svg" xmlns:svg="http://www.w3.org/2000/svg" xmlns:xlink="http://www.w3.org/1999/xlink" class="main-svg">
 <defs>
  <g id="svg_192" class="clips">
   <clipPath id="clip3efd2fx" class="axesclip">
    <rect id="svg_193" height="473" width="646" y="0" x="80"/>
   </clipPath>
   <clipPath id="clip3efd2fy" class="axesclip">
    <rect id="svg_194" height="293" width="869" y="100" x="0"/>
   </clipPath>
   <clipPath id="clip3efd2fxy" class="axesclip">
    <rect id="svg_195" height="293" width="646" y="100" x="80"/>
   </clipPath>
  </g>
 </defs>
 <g>
  <title>Layer 1</title>
  <rect id="svg_196" fill="rgb(255, 255, 255)" height="473" width="869" y="0" x="0"/>
  <g id="svg_197" class="draglayer">
   <g id="svg_198"/>
  </g>
  <g id="svg_199" class="subplot xy">
   <rect id="svg_200" stroke-width="0px" fill="rgb(255, 255, 255)" height="293" width="646" y="100" x="80"/>
   <g id="svg_201">
    <path id="svg_202" stroke="rgb(238, 238, 238)" stroke-width="1px" d="m187.669998,100l0,293" class="xgrid crisp"/>
    <path id="svg_203" stroke="rgb(238, 238, 238)" stroke-width="1px" d="m403,100l0,293" class="xgrid crisp"/>
    <path id="svg_204" stroke="rgb(238, 238, 238)" stroke-width="1px" d="m510.670013,100l0,293" class="xgrid crisp"/>
    <path id="svg_205" stroke="rgb(238, 238, 238)" stroke-width="1px" d="m618.330017,100l0,293" class="xgrid crisp"/>
    <path id="svg_206" stroke="rgb(238, 238, 238)" stroke-width="1px" d="m80,331.97998l646,0" class="ygrid crisp"/>
    <path id="svg_207" stroke="rgb(238, 238, 238)" stroke-width="1px" d="m80,270.960022l646,0" class="ygrid crisp"/>
    <path id="svg_208" stroke="rgb(238, 238, 238)" stroke-width="1px" d="m80,209.929993l646,0" class="ygrid crisp"/>
    <path id="svg_209" stroke="rgb(238, 238, 238)" stroke-width="1px" d="m80,148.910004l646,0" class="ygrid crisp"/>
   </g>
   <g id="svg_210"/>
   <g id="svg_211">
    <path id="svg_212" stroke="rgb(68, 68, 68)" stroke-width="1px" d="m295.330017,100l0,293" class="xzl zl crisp"/>
    <path id="svg_213" stroke="rgb(68, 68, 68)" stroke-width="1px" d="m80,393l646,0" class="yzl zl crisp"/>
   </g>
   <g id="svg_214"/>
   <g id="svg_1">
    <svg id="svg_215" viewBox="0 0 646 293" height="293" width="646" y="100" x="80" preserveAspectRatio="none">
     <g id="svg_216" class="maplayer"/>
     <g id="svg_217" class="barlayer"/>
     <g id="svg_218" class="errorlayer">
      <g id="svg_219" class="errorbars"/>
      <g id="svg_220" class="errorbars"/>
     </g>
     <g id="svg_221" class="boxlayer"/>
     <g id="svg_222" class="scatterlayer">
      <g id="svg_223" stroke-miterlimit="2" class="trace scatter">
       <path id="svg_224" stroke-width="0px" fill="rgb(31, 119, 180)" fill-opacity="0.5" d="m0,18.4l646,274.6l0,0l-646,0l0,-274.6z" class="js-fill"/>
       <path id="svg_225" fill="none" stroke="rgb(31, 119, 180)" stroke-width="2px" d="m0,18.4l646,274.6" class="js-line"/>
       <g id="svg_226" class="points">
        <path id="svg_227" stroke-width="0px" fill="rgb(31, 119, 180)" d="m3,18.4a3,3 0 1 1 -3,-3a3,3 0 0 1 3,3z" class="point"/>
        <path id="svg_228" stroke-width="0px" fill="rgb(31, 119, 180)" d="m110.669998,64.169998a3,3 0 1 1 -3,-3a3,3 0 0 1 3,3z" class="point"/>
        <path id="svg_229" stroke-width="0px" fill="rgb(31, 119, 180)" d="m218.330002,109.93a3,3 0 1 1 -3,-3a3,3 0 0 1 3,3z" class="point"/>
        <path id="svg_230" stroke-width="0px" fill="rgb(31, 119, 180)" d="m326,155.699997a3,3 0 1 1 -3,-3a3,3 0 0 1 3,3z" class="point"/>
        <path id="svg_231" stroke-width="0px" fill="rgb(31, 119, 180)" d="m433.670013,201.470001a3,3 0 1 1 -3,-3a3,3 0 0 1 3,3z" class="point"/>
        <path id="svg_232" stroke-width="0px" fill="rgb(31, 119, 180)" d="m541.330017,247.229996a3,3 0 1 1 -3,-3a3,3 0 0 1 3,3z" class="point"/>
        <path id="svg_233" stroke-width="0px" fill="rgb(31, 119, 180)" d="m649,293a3,3 0 1 1 -3,-3a3,3 0 0 1 3,3z" class="point"/>
       </g>
      </g>
      <g id="svg_234" stroke-miterlimit="2" class="trace scatter">
       <path id="svg_235" stroke-width="0px" fill="rgb(255, 127, 14)" fill-opacity="0.5" d="m0,201.470001l646,-91.540001l0,183.07l-646,0l0,-91.529999z" class="js-fill"/>
       <path id="svg_236" fill="none" stroke="rgb(255, 127, 14)" stroke-width="2px" d="m0,201.470001l646,-91.540001" class="js-line"/>
       <g id="svg_237" class="points">
        <path id="svg_238" stroke-width="0px" fill="rgb(255, 127, 14)" d="m3,201.470001a3,3 0 1 1 -3,-3a3,3 0 0 1 3,3z" class="point"/>
        <path id="svg_239" stroke-width="0px" fill="rgb(255, 127, 14)" d="m110.669998,186.210007a3,3 0 1 1 -3,-3a3,3 0 0 1 3,3z" class="point"/>
        <path id="svg_240" stroke-width="0px" fill="rgb(255, 127, 14)" d="m218.330002,170.960007a3,3 0 1 1 -3,-3a3,3 0 0 1 3,3z" class="point"/>
        <path id="svg_241" stroke-width="0px" fill="rgb(255, 127, 14)" d="m326,155.699997a3,3 0 1 1 -3,-3a3,3 0 0 1 3,3z" class="point"/>
        <path id="svg_242" stroke-width="0px" fill="rgb(255, 127, 14)" d="m433.670013,140.440002a3,3 0 1 1 -3,-3a3,3 0 0 1 3,3z" class="point"/>
        <path id="svg_243" stroke-width="0px" fill="rgb(255, 127, 14)" d="m541.330017,125.190002a3,3 0 1 1 -3,-3a3,3 0 0 1 3,3z" class="point"/>
        <path id="svg_244" stroke-width="0px" fill="rgb(255, 127, 14)" d="m649,109.93a3,3 0 1 1 -3,-3a3,3 0 0 1 3,3z" class="point"/>
       </g>
      </g>
     </g>
    </svg>
   </g>
   <g id="svg_245"/>
   <path id="svg_246" fill="none" stroke-width="1px" stroke="rgb(0, 0, 0)" stroke-opacity="0" d="m79,393.5l648,0" class="crisp"/>
   <path id="svg_247" fill="none" stroke="rgb(0, 0, 0)" stroke-opacity="0" stroke-width="1px" d="m79.5,99l0,294" class="crisp"/>
   <g id="svg_248"/>
   <g id="svg_249">
    <g id="svg_250" class="xtick">
     <text id="svg_251" font-family="'Open sans', verdana, arial, sans-serif" font-size="12px" fill="rgb(68, 68, 68)" transform="matrix(1, 0, 0, 1, 0, 0)" y="407" x="80" text-anchor="middle">−2</text>
    </g>
    <g id="svg_252" class="xtick">
     <text id="svg_253" font-family="'Open sans', verdana, arial, sans-serif" font-size="12px" fill="rgb(68, 68, 68)" y="407" x="187.669998" text-anchor="middle">−1</text>
    </g>
    <g id="svg_254" class="xtick">
     <text id="svg_255" font-family="'Open sans', verdana, arial, sans-serif" font-size="12px" fill="rgb(68, 68, 68)" y="407" x="295.330002" text-anchor="middle">0</text>
    </g>
    <g id="svg_256" class="xtick">
     <text id="svg_257" font-family="'Open sans', verdana, arial, sans-serif" font-size="12px" fill="rgb(68, 68, 68)" y="407" x="403" text-anchor="middle">1</text>
    </g>
    <g id="svg_258" class="xtick">
     <text id="svg_259" font-family="'Open sans', verdana, arial, sans-serif" font-size="12px" fill="rgb(68, 68, 68)" y="407" x="510.670013" text-anchor="middle">2</text>
    </g>
    <g id="svg_260" class="xtick">
     <text id="svg_261" font-family="'Open sans', verdana, arial, sans-serif" font-size="12px" fill="rgb(68, 68, 68)" y="407" x="618.330017" text-anchor="middle">3</text>
    </g>
    <g id="svg_262" class="xtick">
     <text id="svg_263" font-family="'Open sans', verdana, arial, sans-serif" font-size="12px" fill="rgb(68, 68, 68)" y="407" x="726" text-anchor="middle">4</text>
    </g>
   </g>
   <g id="svg_264">
    <g id="svg_265" class="ytick">
     <text id="svg_266" font-family="'Open sans', verdana, arial, sans-serif" font-size="12px" fill="rgb(68, 68, 68)" y="399" x="78" text-anchor="end">0</text>
    </g>
    <g id="svg_267" class="ytick">
     <text id="svg_268" font-family="'Open sans', verdana, arial, sans-serif" font-size="12px" fill="rgb(68, 68, 68)" y="337.979996" x="78" text-anchor="end">2</text>
    </g>
    <g id="svg_269" class="ytick">
     <text id="svg_270" font-family="'Open sans', verdana, arial, sans-serif" font-size="12px" fill="rgb(68, 68, 68)" y="276.960007" x="78" text-anchor="end">4</text>
    </g>
    <g id="svg_271" class="ytick">
     <text id="svg_272" font-family="'Open sans', verdana, arial, sans-serif" font-size="12px" fill="rgb(68, 68, 68)" y="215.93" x="78" text-anchor="end">6</text>
    </g>
    <g id="svg_273" class="ytick">
     <text id="svg_274" font-family="'Open sans', verdana, arial, sans-serif" font-size="12px" fill="rgb(68, 68, 68)" y="154.91" x="78" text-anchor="end">8</text>
    </g>
   </g>
   <g id="svg_275"/>
  </g>
  <g id="svg_276" class="shapelayer"/>
  <g id="svg_277" class="glimages"/>
  <text id="svg_278" font-family="'Open Sans', Arial, sans-serif" font-size="12px" fill="rgb(68, 68, 68)" x="862" text-anchor="end" y="464" class="js-plot-link-container"/>
  <g id="svg_279" class="infolayer">
   <g id="svg_280" class="g-gtitle"/>
   <g id="svg_281" class="g-xtitle">
    <g id="svg_39" class="xtitle-math-group">
     <svg id="svg_282" width="2.021ex" y="436.381639" x="396.810006" preserveAspectRatio="xMinYMin meet" height="1.71ex" class="xtitle-math" viewBox="0 -707.941989467833 857 732.8839789356658" xmlns:xlink="http://www.w3.org/1999/xlink">
      <defs>
       <path d="m366,683q1,0 72,5t73,6q12,0 12,-8q0,-7 -73,-302t-75,-301t-1,-15q0,-42 28,-42q9,1 20,9q21,20 41,96q6,20 10,21q2,1 10,1l4,0l4,0q15,0 15,-8q0,-5 -3,-16q-13,-50 -30,-81t-28,-40t-28,-16q-8,-2 -24,-2q-34,0 -57,15t-30,31l-6,15q-1,1 -4,-1q-2,-2 -4,-4q-59,-56 -120,-56q-55,0 -97,40t-42,127q0,48 20,98t48,86q47,57 94,79t85,22q56,0 84,-42q5,-6 5,-4q1,4 27,109t28,111q0,13 -7,16t-39,5l-21,0q-6,6 -6,8t2,19q5,19 13,19zm-14,-357q-23,79 -75,79q-35,0 -67,-31t-50,-81q-29,-79 -41,-164q0,-3 0,-11t-1,-12q0,-45 18,-62t43,-18q54,0 111,72l8,11l54,217z" stroke-width="10" id="svg_38"/>
       <path d="m184,-11q-68,0 -110,45t-43,113q0,100 73,186t170,97q1,1 140,1l138,0q1,-1 3,-2t4,-2t3,-2t3,-3t2,-2t2,-4t1,-4t1,-5t1,-6q0,-44 -65,-44q-7,0 -17,0t-14,1l-60,0l5,-10q18,-38 18,-85q0,-110 -80,-192t-175,-82zm177,289q0,80 -85,80q-124,0 -161,-174q-1,-4 -1,-6q-8,-37 -8,-61q0,-50 25,-70t57,-21q54,0 99,47q29,30 47,80t22,80t5,45z" stroke-width="10" id="svg_37"/>
       <path d="m48,1q-17,0 -17,10q0,2 3,14q4,16 8,18t23,3q27,0 60,3q14,3 19,12q2,5 71,281t70,280q0,7 -4,7q-8,3 -53,5l-31,0q-6,6 -6,8t2,17q4,17 10,21l539,0q7,-4 7,-11q0,-5 -13,-112t-14,-110q-2,-7 -20,-7l-12,0q-7,5 -7,13q0,1 3,24t3,53q0,30 -7,49t-19,31t-37,16t-51,7t-72,1l-23,0q-82,-1 -87,-3q-5,-2 -7,-8q-1,-1 -34,-131l-32,-129l55,0q3,0 23,0t28,1t22,3t24,7t17,12q13,12 22,33t13,38t5,18q3,5 19,5l12,0q7,-5 7,-10q0,-3 -31,-131t-34,-132q-2,-7 -20,-7l-12,0q-7,6 -7,12q0,3 5,22t5,40q0,29 -20,36t-89,7l-55,0l-32,-127q-32,-124 -32,-130q0,-14 89,-14l25,0q6,-6 6,-7t-2,-20q-4,-13 -10,-19l-17,0q-41,2 -151,2q-65,0 -99,0t-38,-1z" stroke-width="10" id="svg_36"/>
       <path d="m94,250q0,69 10,131t23,107t37,88t38,67t42,52t33,34t25,21l13,0l4,0q14,0 14,-9q0,-3 -17,-21t-41,-53t-49,-86t-42,-138t-17,-193t17,-192t41,-139t49,-86t42,-53t17,-21q0,-9 -15,-9l-3,0l-13,0l-28,24q-94,85 -137,212t-43,264z" stroke-width="10" id="svg_35"/>
       <path d="m96,585q56,81 153,81q48,0 96,-26t78,-92q37,-83 37,-228q0,-155 -43,-237q-20,-42 -55,-67t-61,-31t-51,-7q-26,0 -52,6t-61,32t-55,67q-43,82 -43,237q0,174 57,265zm225,12q-30,32 -71,32q-42,0 -72,-32q-25,-26 -33,-72t-8,-192q0,-158 8,-208t36,-79q28,-30 69,-30q40,0 68,30q29,30 36,84t8,203q0,145 -8,191t-33,73z" stroke-width="10" id="svg_34"/>
       <path d="m78,60q0,24 17,42t43,18q24,0 42,-16t19,-43q0,-25 -17,-43t-43,-18t-43,17t-18,43z" stroke-width="10" id="svg_33"/>
       <path d="m213,578l-13,-5q-14,-5 -40,-10t-58,-7l-19,0l0,46l19,0q47,2 87,15t56,24t28,22q2,3 12,3q9,0 17,-6l0,-299l1,-300q7,-7 12,-9t24,-4t62,-2l26,0l0,-46l-11,0q-21,3 -159,3q-136,0 -157,-3l-12,0l0,46l26,0q22,0 38,0t25,1t16,3t8,2t6,5t6,4l0,517z" stroke-width="10" id="svg_32"/>
       <path d="m60,749l4,1q5,0 10,0l12,0l28,-24q94,-85 137,-212t43,-264q0,-68 -10,-131t-23,-107t-37,-88t-38,-67t-41,-51t-32,-33t-23,-19q-3,-3 -4,-4l-12,0q-8,0 -11,0t-5,3t-3,9q1,1 11,13q155,161 155,475t-155,475q-10,12 -11,13q0,8 5,11z" stroke-width="10" id="svg_31"/>
       <path d="m56,347q0,13 14,20l637,0q15,-8 15,-20q0,-11 -14,-19l-318,-1l-318,0q-16,5 -16,20zm0,-194q0,15 16,20l636,0q14,-10 14,-20q0,-13 -15,-20l-637,0q-14,7 -14,20z" stroke-width="10" id="svg_30"/>
       <path d="m109,429q-27,0 -43,18t-16,44q0,71 53,123t132,52q91,0 152,-56t62,-145q0,-43 -20,-82t-48,-68t-80,-74q-36,-31 -100,-92l-59,-56l76,-1q157,0 167,5q7,2 24,89l0,3l40,0l0,-3q-1,-3 -13,-91t-15,-92l0,-3l-371,0l0,19l0,12q0,7 6,15t30,35q29,32 50,56q9,10 34,37t34,37t29,33t28,34t23,30t21,32t15,29t13,32t7,30t3,33q0,63 -34,109t-97,46q-33,0 -58,-17t-35,-33t-10,-19q0,-1 5,-1q18,0 37,-14t19,-46q0,-25 -16,-42t-45,-18z" stroke-width="10" id="svg_29"/>
       <path d="m130,622q-7,7 -11,9t-16,3t-43,3l-33,0l0,46l175,0l34,0l64,0q76,0 117,-6t83,-29q95,-48 109,-131q1,-5 1,-16q0,-33 -16,-62t-38,-47t-45,-31t-39,-18l-16,-5q3,-3 11,-6q30,-16 49,-34t29,-44t14,-43t9,-56t10,-61q10,-48 24,-63t38,-15l5,0q15,0 29,16t18,55q0,11 4,14t16,4t16,-2t4,-13q0,-31 -16,-63t-44,-43q-16,-6 -42,-6q-149,6 -172,112q-2,11 -2,73t-7,83q-19,58 -76,74l-10,2l-66,1l-66,0l0,-131l1,-131q6,-10 17,-12t52,-3l33,0l0,-46l-11,0q-21,3 -142,3q-122,0 -143,-3l-11,0l0,46l33,0q42,1 51,3t19,12l0,561zm361,-123l0,10q0,18 -1,30t-9,31t-19,31t-38,22t-62,13q-2,0 -22,0t-36,1l-21,0q-45,0 -49,-9q-3,-4 -3,-136l0,-132l58,0q101,0 145,18t55,78q2,11 2,43z" stroke-width="10" id="svg_28"/>
       <path d="m28,218q0,55 20,100t50,73t65,42t66,15q53,0 91,-18t58,-50t28,-64t9,-71q0,-7 -7,-14l-282,0l0,-15q0,-148 100,-180q20,-6 44,-6q42,0 72,32q17,17 27,42l10,24q3,3 16,3l3,0q17,0 17,-10q0,-4 -3,-13q-19,-55 -63,-87t-99,-32q-95,0 -158,69t-64,160zm305,57q-11,128 -95,136l-2,0q-8,0 -16,-1t-25,-8t-29,-21t-23,-41t-16,-66l0,-7l206,0l0,8z" stroke-width="10" id="svg_27"/>
       <path d="m370,305t-21,0t-36,15t-16,38q0,23 15,38q5,5 5,6t-10,2q-26,4 -49,4q-49,0 -80,-32q-47,-47 -47,-157q0,-82 31,-129q41,-61 110,-61q41,0 66,26t36,62q2,8 5,10t16,2l14,0q6,-6 6,-9q0,-4 -4,-16t-16,-33t-29,-38t-48,-31t-69,-13q-86,0 -150,64t-65,161q0,104 65,169t151,65t120,-27t34,-64q0,-23 -17,-37l-17,-15z" stroke-width="10" id="svg_26"/>
       <path d="m28,214q0,95 65,164t157,70q90,0 155,-68t66,-165q0,-95 -64,-160t-157,-65q-97,0 -159,67t-63,157zm222,-184q122,0 122,163l0,32l0,25q0,22 -1,38t-7,38t-16,36t-31,28t-49,20q-5,1 -16,1q-30,0 -57,-12q-43,-22 -56,-61t-13,-92l0,-20q0,-96 19,-135q32,-61 105,-61z" stroke-width="10" id="svg_25"/>
       <path d="m338,431q6,-2 84,-2q57,0 81,2l5,0l0,-46l-11,0q-58,-4 -74,-40q-2,-4 -67,-173t-68,-174q-5,-9 -25,-9q-19,0 -24,9q-140,361 -141,366q-5,14 -16,17t-39,4l-24,0l0,46l6,0l8,-1q8,0 20,0t26,0t25,-1t18,-1q95,0 110,3l8,0l0,-46l-14,0q-39,-1 -42,-15q0,-4 51,-136l51,-132l91,239l0,8q0,14 -10,23t-18,11t-14,2l-4,0l0,46l7,0z" stroke-width="10" id="svg_24"/>
       <path d="m36,46l14,0q39,0 47,14l0,8q0,9 0,23t1,31t0,39t0,42q0,31 0,66t0,59l-1,23q-3,19 -14,25t-45,9l-18,0l0,23q0,23 2,23l10,1q10,1 28,2t36,2q16,1 35,2t29,3t11,1l3,0l0,-69q39,68 97,68l6,0q45,0 66,-22t21,-46q0,-21 -13,-36t-38,-15q-25,0 -37,16t-13,34q0,9 2,16t5,12t3,5q-2,2 -23,-4q-16,-8 -24,-15q-47,-45 -47,-179l0,-53q0,-13 0,-27t0,-26t1,-20t0,-15l0,-5q1,-2 3,-4t5,-3t5,-3t7,-2t7,-1t9,-1t9,0t10,-1t10,0l31,0l0,-46l-9,0q-18,3 -127,3q-103,0 -112,-3l-8,0l0,46l16,0z" stroke-width="10" id="svg_23"/>
       <path d="m69,-66q22,0 35,-14t14,-36q0,-18 -9,-29t-18,-15q-7,-3 6,-6q7,-2 14,-2q20,0 37,9t27,21t22,32t16,31t12,32l17,43l-72,183q-20,50 -45,114q-24,61 -29,71t-16,13q-1,1 -2,1q-12,3 -44,3l-15,0l0,46l7,0l20,-1q19,0 42,-1t34,-1q7,0 20,0t29,1t29,1t24,0l9,1l8,0l0,-46l-9,0q-49,0 -47,-19l101,-254q0,1 46,115l44,114l0,9q0,15 -10,23t-18,10t-14,2l-3,0l0,46l6,0l7,0q7,0 17,0t21,-1t23,-1t17,0q55,0 81,2l5,0l0,-46l-11,0q-56,-5 -75,-40q-2,-2 -44,-110t-89,-226t-62,-140q-47,-73 -114,-73q-44,0 -69,27t-25,61q0,27 16,38t34,12z" stroke-width="10" id="svg_22"/>
       <path stroke-width="10" id="svg_21"/>
       <path d="m273,0q-18,3 -127,3q-103,0 -112,-3l-8,0l0,46l16,0q28,0 49,3q8,3 12,11q1,2 1,164l0,161l-71,0l0,46l71,0l0,66l1,67l2,10q19,65 64,94t95,36q1,0 9,0t14,1q41,-3 62,-26t21,-52q0,-23 -14,-37t-37,-14t-37,14t-14,37q0,20 18,40l-4,0q-4,1 -11,1q-28,0 -50,-21t-34,-55q-6,-20 -7,-95l0,-66l111,0l0,-46l-108,0l0,-160q0,-162 1,-164t3,-4t5,-3t5,-3t7,-2t7,-1t9,-1t9,0t10,-1t10,0l31,0l0,-46l-9,0z" stroke-width="10" id="svg_20"/>
       <path d="m21,287q1,3 2,8t5,22t10,31t15,33t20,30t26,22t33,9q29,0 51,-12t31,-22t11,-20q2,-6 3,-6t8,7q48,52 111,52l3,0q48,0 72,-41q8,-19 8,-37q0,-30 -13,-48t-26,-23t-25,-4q-20,0 -32,11t-12,29q0,48 56,64q-22,13 -36,13q-56,0 -103,-74q-10,-16 -15,-33t-34,-133q-34,-140 -39,-149q-13,-27 -43,-27q-13,0 -21,6t-11,12t-2,10q0,13 40,172t40,177q0,39 -26,39q-21,0 -36,-28t-24,-61t-11,-36q-2,-2 -16,-2l-14,0q-6,6 -6,9z" stroke-width="10" id="svg_19"/>
       <path d="m130,622q-7,7 -11,9t-16,3t-43,3l-33,0l0,46l187,0q23,0 62,0t55,1q88,0 140,-13t96,-55q57,-53 57,-127q0,-68 -51,-117t-122,-65q-22,-5 -123,-6l-94,0l0,-120q0,-119 3,-123q8,-11 67,-12l33,0l0,-46l-11,0q-21,3 -144,3q-135,0 -144,-3l-11,0l0,46l33,0q42,1 51,3t19,12l0,561zm377,-134q0,26 -1,40t-6,36t-17,33t-33,23t-53,15q-12,2 -90,2l-21,0q-49,0 -52,-9q-3,-4 -3,-145l0,-141l71,0l37,0q51,0 84,7t58,33q26,29 26,106z" stroke-width="10" id="svg_18"/>
       <path d="m41,46l14,0q39,0 47,14l0,8q0,9 0,23t0,31t1,39t0,42q0,31 0,66t-1,59l0,23q-3,19 -14,25t-45,9l-18,0l0,23q0,23 2,23l10,1q10,1 28,2t37,2q17,1 36,2t29,3t11,1l3,0l0,-40q0,-38 1,-38t5,5t12,15t19,18t29,19t38,16q20,5 51,5q15,0 28,-2t23,-6t19,-8t15,-9t11,-11t9,-11t7,-11t4,-10t3,-8l2,-5l3,4q3,4 6,8t9,11t13,13t15,13t20,12t23,10t26,7t31,3q126,0 137,-113q1,-7 1,-139l0,-86q0,-38 2,-45t11,-10q21,-3 49,-3l16,0l0,-46l-8,0l-23,1q-24,1 -51,1t-38,1q-103,0 -112,-3l-8,0l0,46l16,0q61,0 61,16q1,2 1,138q-1,135 -2,143q-6,28 -20,42t-24,17t-26,2q-45,0 -79,-34q-27,-27 -34,-55t-8,-83l0,-64l0,-60q0,-30 1,-40t3,-13t9,-6q21,-3 49,-3l16,0l0,-46l-8,0l-24,1q-23,1 -50,1t-38,1q-103,0 -112,-3l-8,0l0,46l16,0q61,0 61,16q1,2 1,138q-1,135 -2,143q-6,28 -20,42t-24,17t-26,2q-45,0 -79,-34q-27,-27 -34,-55t-8,-83l0,-64l0,-60q0,-30 1,-40t3,-13t9,-6q21,-3 49,-3l16,0l0,-46l-8,0l-23,1q-24,1 -51,1t-38,1q-103,0 -112,-3l-8,0l0,46l16,0z" stroke-width="10" id="svg_17"/>
       <path d="m137,305t-22,0t-37,15t-15,39q0,35 34,62t121,27q73,0 118,-32t60,-76q5,-14 5,-31t1,-115l0,-70q0,-48 5,-66t21,-18q15,0 20,16t5,53l0,36l40,0l0,-39q-1,-40 -3,-47q-9,-30 -35,-47t-55,-18t-47,18t-24,42l0,4l-2,-3q-2,-3 -5,-6t-8,-9t-12,-11t-15,-12t-18,-11t-22,-8t-26,-6t-31,-3q-60,0 -108,31t-48,87q0,21 7,40t27,41t48,37t78,28t110,15l14,0l0,22q0,34 -6,50q-22,71 -97,71q-18,0 -34,-1t-25,-4t-8,-3q22,-15 22,-44q0,-25 -16,-39l-17,-15zm-11,-199q0,-31 24,-55t59,-25q38,0 67,23t39,60q2,7 3,66q0,58 -1,58q-8,0 -21,-1t-45,-9t-58,-20t-46,-37t-21,-60z" stroke-width="10" id="svg_16"/>
       <path d="m41,46l14,0q39,0 47,14l0,8q0,9 0,23t0,31t1,39t0,42q0,31 0,66t-1,59l0,23q-3,19 -14,25t-45,9l-18,0l0,23q0,23 2,23l10,1q10,1 28,2t37,2q17,1 36,2t29,3t11,1l3,0l0,-40q0,-38 1,-38t5,5t12,15t19,18t29,19t38,16q20,5 51,5q114,-4 127,-113q1,-7 1,-139l0,-86q0,-38 2,-45t11,-10q21,-3 49,-3l16,0l0,-46l-8,0l-24,1q-23,1 -50,1t-38,1q-103,0 -112,-3l-8,0l0,46l16,0q61,0 61,16q1,2 1,138q-1,135 -2,143q-6,28 -20,42t-24,17t-26,2q-45,0 -79,-34q-27,-27 -34,-55t-8,-83l0,-64l0,-60q0,-30 1,-40t3,-13t9,-6q21,-3 49,-3l16,0l0,-46l-8,0l-23,1q-24,1 -51,1t-38,1q-103,0 -112,-3l-8,0l0,46l16,0z" stroke-width="10" id="svg_15"/>
       <path d="m90,368q-6,10 -14,12t-36,5l-22,0l0,46l6,0l19,-1q19,0 41,-1t32,-1q90,0 105,3l8,0l0,-46l-14,0q-38,-2 -38,-17q0,-1 44,-129l44,-126l74,215l-6,17q-10,29 -17,34q-8,5 -38,6l-20,0l0,46l6,0q6,-3 84,-3q91,0 106,3l7,0l0,-46l-9,0q-48,0 -48,-16q0,-3 14,-45t31,-90t32,-91l15,-43l41,119q42,122 42,128q0,16 -15,26t-34,12l-8,0l0,46l7,0q12,-3 95,-3q68,0 74,3l5,0l0,-46l-6,0q-1,0 -6,0t-9,-1q-47,-7 -63,-50l-60,-173q-13,-37 -31,-90q-20,-59 -25,-70t-16,-12l-8,0q-19,0 -23,7q-1,1 -49,137l-46,134q-2,-4 -95,-271q-5,-7 -23,-7l-5,0q-13,0 -18,8l-130,371z" stroke-width="10" id="svg_14"/>
       <path d="m307,-11q-73,0 -139,66l-10,-18q-2,-3 -5,-9t-6,-11t-4,-7l-5,-9l-20,-1l-20,0l0,298q0,301 -1,305q-3,19 -14,25t-45,9l-18,0l0,23q0,23 2,23l10,1q10,1 29,2t37,2q17,1 37,2t30,3t11,1l3,0l0,-151q0,-152 1,-152l3,3q3,3 9,7t15,10t21,10t26,10t32,8t37,3q78,0 138,-63t61,-163q0,-101 -64,-164t-151,-63zm-125,109q0,-1 5,-8t9,-11t10,-12t12,-12t15,-11t17,-9t21,-6t24,-3q35,0 68,20t49,67q12,35 12,99q0,75 -12,111q-27,82 -112,82q-30,0 -61,-15t-51,-43l-6,-8l0,-241z" stroke-width="10" id="svg_13"/>
       <path d="m383,58q-56,-68 -127,-68l-7,0q-125,0 -144,99q-1,7 -2,137q-1,109 -1,122t-6,21q-10,16 -60,16l-11,0l0,23q0,23 2,23l11,1q10,1 29,2t38,2q17,1 37,2t30,3t12,1l3,0l0,-181q1,-184 3,-197q3,-15 14,-24q20,-14 60,-14q26,0 47,9t32,23t20,32t12,30t4,24q0,1 0,17t1,40t0,47l0,67q0,46 -10,57t-50,13l-18,0l0,46q2,0 76,5t79,6l7,0l0,-178q0,-180 1,-183q3,-20 14,-26t45,-9l18,0l0,-46q-2,0 -75,-5t-77,-6l-7,0l0,69z" stroke-width="10" id="svg_12"/>
       <path d="m376,495q0,16 0,40t1,33q0,45 -10,56t-51,13l-18,0l0,23q0,23 2,23l10,1q10,1 29,2t37,2q17,1 37,2t30,3t11,1l3,0l0,-304q0,-306 1,-309q3,-20 14,-26t45,-9l18,0l0,-46q-2,0 -76,-5t-79,-6l-7,0l0,55l-8,-7q-58,-48 -130,-48q-77,0 -139,61t-62,165q0,100 63,163t147,64q75,0 132,-49l0,102zm-3,-153q-45,63 -113,63q-49,0 -87,-36q-27,-28 -34,-64t-8,-94q0,-56 7,-91t35,-61q30,-33 78,-33q71,0 122,77l0,239z" stroke-width="10" id="svg_11"/>
       <path d="m42,0l-2,0q-14,0 -14,11q0,4 3,16q4,14 7,16t19,3q86,3 135,52q10,10 116,126t105,118q-109,278 -114,283q-9,11 -63,12l-28,0q-6,6 -6,8t2,19q4,13 10,19l14,0q34,-2 121,-2q33,0 61,0t45,1t20,0q17,0 17,-11q0,-1 -2,-13q-4,-15 -7,-18t-16,-3q-31,-3 -54,-17l77,-194l53,59q105,113 105,125q0,18 -24,25q-5,0 -13,2q-15,0 -15,11q0,2 2,16q4,13 10,19l12,0q1,0 25,0t54,-2t41,-1q90,0 99,3l8,0q7,-7 7,-11q-2,-25 -12,-35l-16,0q-34,-1 -61,-9t-41,-17t-24,-18l-11,-9q0,1 -95,-104l-87,-96q0,-1 31,-80t65,-162t37,-86q10,-9 61,-10q35,0 35,-9q0,-2 -2,-14q-4,-16 -7,-19t-14,-3q-3,0 -33,0t-89,1q-61,0 -93,0t-35,-1q-17,0 -17,9q0,1 2,15q2,10 4,14t5,5t9,2t16,1t26,7q17,8 17,10q-1,0 -47,117l-47,118q-188,-204 -193,-215q-4,-8 -4,-12q0,-19 29,-25q1,0 6,0t6,-1q3,0 4,0t3,-1t3,-3t1,-7q0,-9 -2,-16q-3,-13 -6,-15t-15,-3q-3,0 -18,0t-42,1t-59,0q-78,0 -100,-2z" stroke-width="10" id="svg_2"/>
       <path d="m66,637q-12,0 -17,0t-10,1t-7,3t-2,6t3,17t9,18q2,1 14,1q48,-3 109,-3q123,0 141,3l10,0q6,-6 6,-9t-2,-18q-4,-13 -10,-19l-12,0q-56,0 -56,-13q0,-5 50,-147t51,-144l3,3q4,4 12,13t21,24t32,37t43,51q92,107 107,126t16,31q0,16 -32,19q-17,0 -17,10q0,2 2,14q3,15 5,18t14,4q2,0 29,-1t79,-2q27,0 56,1t33,1q17,0 17,-9q0,-4 -3,-16t-5,-14q-2,-6 -21,-6q-72,-5 -117,-50q-9,-9 -140,-163l-129,-151l-26,-104q-27,-107 -27,-112q0,-11 68,-11q16,0 21,-1t6,-10q0,-2 -2,-12q-4,-17 -6,-19t-16,-3q-5,0 -42,0t-92,1q-62,0 -94,0t-36,-1q-18,0 -18,8q0,5 3,15q1,3 2,6t1,5t1,4t2,3t3,2t5,1t6,0t9,1t13,0q39,1 51,4t18,13q3,5 29,108l25,103l-123,349q-1,1 -2,2t-2,2t-3,2t-4,2t-5,2t-8,1t-9,1t-13,1t-17,1z" stroke-width="10" id="svg_10"/>
       <path d="m52,289q7,42 54,97t116,56q35,0 64,-18t43,-45q42,63 101,63q37,0 64,-22t28,-59q0,-29 -14,-47t-27,-22t-23,-4q-19,0 -31,11t-12,29q0,46 50,63q-11,13 -40,13q-13,0 -19,-2q-38,-16 -56,-66q-60,-221 -60,-258q0,-28 16,-40t35,-12q37,0 73,33t49,81q3,10 6,11t16,2l4,0q15,0 15,-8q0,-1 -2,-11q-16,-57 -62,-101t-107,-44q-70,0 -106,63q-41,-62 -94,-62l-6,0q-49,0 -70,26t-22,55q0,32 19,52t45,20q43,0 43,-42q0,-20 -12,-35t-23,-20t-13,-5l-3,-1q0,-1 6,-4t16,-7t19,-3q36,0 62,45q9,16 23,68t28,108t16,66q5,27 5,39q0,28 -15,40t-34,12q-40,0 -75,-32t-49,-82q-2,-9 -5,-10t-16,-2l-14,0q-6,6 -6,11z" stroke-width="10" id="svg_9"/>
       <path d="m56,237t0,13t14,20l299,0l0,150l1,150q10,13 19,13q13,0 20,-15l0,-298l298,0q15,-8 15,-20t-15,-20l-298,0l0,-298q-8,-14 -18,-14l-2,0l-2,0q-12,0 -18,14l0,298l-299,0q-14,7 -14,20l0,-13z" stroke-width="10" id="svg_8"/>
       <path d="m21,287q0,14 15,48t48,71t74,36q41,0 66,-23t26,-64q-2,-19 -3,-21q0,-3 -16,-46t-33,-97t-16,-86q0,-43 14,-60t42,-18q23,0 43,11t31,23t27,33q0,1 5,20t14,59t19,74q38,150 42,157q13,27 43,27q13,0 21,-7t11,-12t2,-9q0,-13 -49,-210t-56,-216q-28,-83 -97,-132t-138,-50q-45,0 -79,22t-34,66q0,22 7,37t19,22t20,10t17,3q44,0 44,-42q0,-20 -12,-35t-23,-20t-13,-5l-3,-1q2,-5 19,-12t34,-7l8,0q17,0 26,2q33,9 61,38t43,62t23,56t8,30l-6,-4q-6,-4 -19,-11t-26,-12q-20,-5 -39,-5q-46,0 -81,22t-46,71q-1,7 -1,31q0,57 35,149t35,117q0,1 0,2q0,9 0,12t-4,7t-11,4l-4,0q-23,0 -42,-19t-30,-41t-17,-42t-8,-22q-2,-2 -16,-2l-14,0q-6,6 -6,9z" stroke-width="10" id="svg_7"/>
       <path d="m462,0q-18,3 -129,3q-116,0 -134,-3l-9,0l0,46l31,0q20,0 27,0t17,2t14,5t7,8q1,2 1,54l0,50l-259,0l0,46l151,231q153,232 155,233q2,2 21,2l18,0l6,-6l0,-460l92,0l0,-46l-92,0l0,-51q0,-41 0,-48t6,-12q8,-7 57,-8l29,0l0,-46l-9,0zm-169,211l0,334l-219,-333l109,-1l110,0z" stroke-width="10" id="svg_6"/>
       <path d="m127,463q-27,0 -42,17t-16,44q0,55 48,98t116,43q35,0 44,-1q74,-12 113,-53t40,-89q0,-52 -34,-101t-94,-71l-3,-2q0,-1 9,-3t29,-9t38,-21q82,-53 82,-140q0,-79 -62,-138t-157,-59q-80,0 -138,43t-58,109q0,28 18,45t45,18q28,0 46,-18t18,-45q0,-11 -3,-20t-7,-16t-11,-12t-12,-8t-10,-4t-8,-3l-4,-1q51,-45 124,-45q55,0 83,53q17,33 17,101l0,20q0,95 -64,127q-15,6 -61,7l-42,1l-3,2q-2,3 -2,16q0,18 8,18q28,0 58,5q34,5 62,42t28,112l0,8q0,57 -35,79q-22,14 -47,14q-32,0 -59,-11t-38,-23t-11,-12l3,0q3,-1 8,-2t10,-5t12,-7t10,-11t8,-15t3,-20q0,-22 -14,-39t-45,-18z" stroke-width="10" id="svg_5"/>
       <path d="m674,636q8,0 14,-6t6,-15t-7,-14q-1,-1 -270,-129l-266,-126l248,-118q288,-136 292,-141q3,-6 3,-11q0,-18 -18,-20l-6,0l-288,136q-290,137 -292,139q-7,5 -7,17q1,11 13,17q8,4 286,135t283,134q4,2 9,2zm-590,-754q0,10 15,20l579,0q16,-6 16,-20q0,-12 -15,-20l-581,0q-14,7 -14,20z" stroke-width="10" id="svg_4"/>
       <path d="m70,417t0,77t54,124t124,48q71,0 126,-42t55,-109q0,-30 -11,-56t-26,-42t-31,-28t-26,-18t-11,-8l14,-9q14,-10 28,-20t16,-11q75,-59 75,-149q0,-79 -58,-137t-150,-59q-90,0 -148,51t-58,126q0,108 129,180l-18,13q-21,13 -27,20q-57,49 -57,126l0,-77zm216,-31l6,4q6,4 9,6t10,7t12,10t11,12t11,13t10,16t9,17t5,20t2,22q0,43 -29,73t-67,38q-7,1 -33,1q-41,0 -77,-26t-37,-65q0,-23 13,-42t26,-29t50,-32q7,-5 11,-7l58,-38zm-36,-365q58,0 100,34t42,82q0,17 -5,32t-12,25t-22,22t-23,18t-29,19t-27,17q-14,9 -30,19t-26,17l-8,5q-6,0 -29,-17t-48,-55t-26,-82q0,-59 43,-97t100,-39z" stroke-width="10" id="svg_3"/>
      </defs>
      <g id="svg_283" transform="matrix(1 0 0 -1 0 0)" stroke-width="0" fill="rgb(68, 68, 68)" stroke="rgb(68, 68, 68)">
       <use id="svg_284" xlink:href="#svg_2"/>
      </g>
     </svg>
    </g>
   </g>
   <g id="svg_285" class="g-ytitle">
    <g id="svg_77" transform="rotate(-90, 36.4994, 237.882)" class="ytitle-math-group">
     <svg id="svg_286" width="1.71ex" y="237.882151" x="36.499438" preserveAspectRatio="xMinYMin meet" height="1.71ex" class="ytitle-math" viewBox="0 -707.941989467833 768 731.8839789356658" xmlns:xlink="http://www.w3.org/1999/xlink">
      <defs>
       <path d="m366,683q1,0 72,5t73,6q12,0 12,-8q0,-7 -73,-302t-75,-301t-1,-15q0,-42 28,-42q9,1 20,9q21,20 41,96q6,20 10,21q2,1 10,1l4,0l4,0q15,0 15,-8q0,-5 -3,-16q-13,-50 -30,-81t-28,-40t-28,-16q-8,-2 -24,-2q-34,0 -57,15t-30,31l-6,15q-1,1 -4,-1q-2,-2 -4,-4q-59,-56 -120,-56q-55,0 -97,40t-42,127q0,48 20,98t48,86q47,57 94,79t85,22q56,0 84,-42q5,-6 5,-4q1,4 27,109t28,111q0,13 -7,16t-39,5l-21,0q-6,6 -6,8t2,19q5,19 13,19zm-14,-357q-23,79 -75,79q-35,0 -67,-31t-50,-81q-29,-79 -41,-164q0,-3 0,-11t-1,-12q0,-45 18,-62t43,-18q54,0 111,72l8,11l54,217z" stroke-width="10" id="svg_76"/>
       <path d="m184,-11q-68,0 -110,45t-43,113q0,100 73,186t170,97q1,1 140,1l138,0q1,-1 3,-2t4,-2t3,-2t3,-3t2,-2t2,-4t1,-4t1,-5t1,-6q0,-44 -65,-44q-7,0 -17,0t-14,1l-60,0l5,-10q18,-38 18,-85q0,-110 -80,-192t-175,-82zm177,289q0,80 -85,80q-124,0 -161,-174q-1,-4 -1,-6q-8,-37 -8,-61q0,-50 25,-70t57,-21q54,0 99,47q29,30 47,80t22,80t5,45z" stroke-width="10" id="svg_75"/>
       <path d="m48,1q-17,0 -17,10q0,2 3,14q4,16 8,18t23,3q27,0 60,3q14,3 19,12q2,5 71,281t70,280q0,7 -4,7q-8,3 -53,5l-31,0q-6,6 -6,8t2,17q4,17 10,21l539,0q7,-4 7,-11q0,-5 -13,-112t-14,-110q-2,-7 -20,-7l-12,0q-7,5 -7,13q0,1 3,24t3,53q0,30 -7,49t-19,31t-37,16t-51,7t-72,1l-23,0q-82,-1 -87,-3q-5,-2 -7,-8q-1,-1 -34,-131l-32,-129l55,0q3,0 23,0t28,1t22,3t24,7t17,12q13,12 22,33t13,38t5,18q3,5 19,5l12,0q7,-5 7,-10q0,-3 -31,-131t-34,-132q-2,-7 -20,-7l-12,0q-7,6 -7,12q0,3 5,22t5,40q0,29 -20,36t-89,7l-55,0l-32,-127q-32,-124 -32,-130q0,-14 89,-14l25,0q6,-6 6,-7t-2,-20q-4,-13 -10,-19l-17,0q-41,2 -151,2q-65,0 -99,0t-38,-1z" stroke-width="10" id="svg_74"/>
       <path d="m94,250q0,69 10,131t23,107t37,88t38,67t42,52t33,34t25,21l13,0l4,0q14,0 14,-9q0,-3 -17,-21t-41,-53t-49,-86t-42,-138t-17,-193t17,-192t41,-139t49,-86t42,-53t17,-21q0,-9 -15,-9l-3,0l-13,0l-28,24q-94,85 -137,212t-43,264z" stroke-width="10" id="svg_73"/>
       <path d="m96,585q56,81 153,81q48,0 96,-26t78,-92q37,-83 37,-228q0,-155 -43,-237q-20,-42 -55,-67t-61,-31t-51,-7q-26,0 -52,6t-61,32t-55,67q-43,82 -43,237q0,174 57,265zm225,12q-30,32 -71,32q-42,0 -72,-32q-25,-26 -33,-72t-8,-192q0,-158 8,-208t36,-79q28,-30 69,-30q40,0 68,30q29,30 36,84t8,203q0,145 -8,191t-33,73z" stroke-width="10" id="svg_72"/>
       <path d="m78,60q0,24 17,42t43,18q24,0 42,-16t19,-43q0,-25 -17,-43t-43,-18t-43,17t-18,43z" stroke-width="10" id="svg_71"/>
       <path d="m213,578l-13,-5q-14,-5 -40,-10t-58,-7l-19,0l0,46l19,0q47,2 87,15t56,24t28,22q2,3 12,3q9,0 17,-6l0,-299l1,-300q7,-7 12,-9t24,-4t62,-2l26,0l0,-46l-11,0q-21,3 -159,3q-136,0 -157,-3l-12,0l0,46l26,0q22,0 38,0t25,1t16,3t8,2t6,5t6,4l0,517z" stroke-width="10" id="svg_70"/>
       <path d="m60,749l4,1q5,0 10,0l12,0l28,-24q94,-85 137,-212t43,-264q0,-68 -10,-131t-23,-107t-37,-88t-38,-67t-41,-51t-32,-33t-23,-19q-3,-3 -4,-4l-12,0q-8,0 -11,0t-5,3t-3,9q1,1 11,13q155,161 155,475t-155,475q-10,12 -11,13q0,8 5,11z" stroke-width="10" id="svg_69"/>
       <path d="m56,347q0,13 14,20l637,0q15,-8 15,-20q0,-11 -14,-19l-318,-1l-318,0q-16,5 -16,20zm0,-194q0,15 16,20l636,0q14,-10 14,-20q0,-13 -15,-20l-637,0q-14,7 -14,20z" stroke-width="10" id="svg_68"/>
       <path d="m109,429q-27,0 -43,18t-16,44q0,71 53,123t132,52q91,0 152,-56t62,-145q0,-43 -20,-82t-48,-68t-80,-74q-36,-31 -100,-92l-59,-56l76,-1q157,0 167,5q7,2 24,89l0,3l40,0l0,-3q-1,-3 -13,-91t-15,-92l0,-3l-371,0l0,19l0,12q0,7 6,15t30,35q29,32 50,56q9,10 34,37t34,37t29,33t28,34t23,30t21,32t15,29t13,32t7,30t3,33q0,63 -34,109t-97,46q-33,0 -58,-17t-35,-33t-10,-19q0,-1 5,-1q18,0 37,-14t19,-46q0,-25 -16,-42t-45,-18z" stroke-width="10" id="svg_67"/>
       <path d="m130,622q-7,7 -11,9t-16,3t-43,3l-33,0l0,46l175,0l34,0l64,0q76,0 117,-6t83,-29q95,-48 109,-131q1,-5 1,-16q0,-33 -16,-62t-38,-47t-45,-31t-39,-18l-16,-5q3,-3 11,-6q30,-16 49,-34t29,-44t14,-43t9,-56t10,-61q10,-48 24,-63t38,-15l5,0q15,0 29,16t18,55q0,11 4,14t16,4t16,-2t4,-13q0,-31 -16,-63t-44,-43q-16,-6 -42,-6q-149,6 -172,112q-2,11 -2,73t-7,83q-19,58 -76,74l-10,2l-66,1l-66,0l0,-131l1,-131q6,-10 17,-12t52,-3l33,0l0,-46l-11,0q-21,3 -142,3q-122,0 -143,-3l-11,0l0,46l33,0q42,1 51,3t19,12l0,561zm361,-123l0,10q0,18 -1,30t-9,31t-19,31t-38,22t-62,13q-2,0 -22,0t-36,1l-21,0q-45,0 -49,-9q-3,-4 -3,-136l0,-132l58,0q101,0 145,18t55,78q2,11 2,43z" stroke-width="10" id="svg_66"/>
       <path d="m28,218q0,55 20,100t50,73t65,42t66,15q53,0 91,-18t58,-50t28,-64t9,-71q0,-7 -7,-14l-282,0l0,-15q0,-148 100,-180q20,-6 44,-6q42,0 72,32q17,17 27,42l10,24q3,3 16,3l3,0q17,0 17,-10q0,-4 -3,-13q-19,-55 -63,-87t-99,-32q-95,0 -158,69t-64,160zm305,57q-11,128 -95,136l-2,0q-8,0 -16,-1t-25,-8t-29,-21t-23,-41t-16,-66l0,-7l206,0l0,8z" stroke-width="10" id="svg_65"/>
       <path d="m370,305t-21,0t-36,15t-16,38q0,23 15,38q5,5 5,6t-10,2q-26,4 -49,4q-49,0 -80,-32q-47,-47 -47,-157q0,-82 31,-129q41,-61 110,-61q41,0 66,26t36,62q2,8 5,10t16,2l14,0q6,-6 6,-9q0,-4 -4,-16t-16,-33t-29,-38t-48,-31t-69,-13q-86,0 -150,64t-65,161q0,104 65,169t151,65t120,-27t34,-64q0,-23 -17,-37l-17,-15z" stroke-width="10" id="svg_64"/>
       <path d="m28,214q0,95 65,164t157,70q90,0 155,-68t66,-165q0,-95 -64,-160t-157,-65q-97,0 -159,67t-63,157zm222,-184q122,0 122,163l0,32l0,25q0,22 -1,38t-7,38t-16,36t-31,28t-49,20q-5,1 -16,1q-30,0 -57,-12q-43,-22 -56,-61t-13,-92l0,-20q0,-96 19,-135q32,-61 105,-61z" stroke-width="10" id="svg_63"/>
       <path d="m338,431q6,-2 84,-2q57,0 81,2l5,0l0,-46l-11,0q-58,-4 -74,-40q-2,-4 -67,-173t-68,-174q-5,-9 -25,-9q-19,0 -24,9q-140,361 -141,366q-5,14 -16,17t-39,4l-24,0l0,46l6,0l8,-1q8,0 20,0t26,0t25,-1t18,-1q95,0 110,3l8,0l0,-46l-14,0q-39,-1 -42,-15q0,-4 51,-136l51,-132l91,239l0,8q0,14 -10,23t-18,11t-14,2l-4,0l0,46l7,0z" stroke-width="10" id="svg_62"/>
       <path d="m36,46l14,0q39,0 47,14l0,8q0,9 0,23t1,31t0,39t0,42q0,31 0,66t0,59l-1,23q-3,19 -14,25t-45,9l-18,0l0,23q0,23 2,23l10,1q10,1 28,2t36,2q16,1 35,2t29,3t11,1l3,0l0,-69q39,68 97,68l6,0q45,0 66,-22t21,-46q0,-21 -13,-36t-38,-15q-25,0 -37,16t-13,34q0,9 2,16t5,12t3,5q-2,2 -23,-4q-16,-8 -24,-15q-47,-45 -47,-179l0,-53q0,-13 0,-27t0,-26t1,-20t0,-15l0,-5q1,-2 3,-4t5,-3t5,-3t7,-2t7,-1t9,-1t9,0t10,-1t10,0l31,0l0,-46l-9,0q-18,3 -127,3q-103,0 -112,-3l-8,0l0,46l16,0z" stroke-width="10" id="svg_61"/>
       <path d="m69,-66q22,0 35,-14t14,-36q0,-18 -9,-29t-18,-15q-7,-3 6,-6q7,-2 14,-2q20,0 37,9t27,21t22,32t16,31t12,32l17,43l-72,183q-20,50 -45,114q-24,61 -29,71t-16,13q-1,1 -2,1q-12,3 -44,3l-15,0l0,46l7,0l20,-1q19,0 42,-1t34,-1q7,0 20,0t29,1t29,1t24,0l9,1l8,0l0,-46l-9,0q-49,0 -47,-19l101,-254q0,1 46,115l44,114l0,9q0,15 -10,23t-18,10t-14,2l-3,0l0,46l6,0l7,0q7,0 17,0t21,-1t23,-1t17,0q55,0 81,2l5,0l0,-46l-11,0q-56,-5 -75,-40q-2,-2 -44,-110t-89,-226t-62,-140q-47,-73 -114,-73q-44,0 -69,27t-25,61q0,27 16,38t34,12z" stroke-width="10" id="svg_60"/>
       <path stroke-width="10" id="svg_59"/>
       <path d="m273,0q-18,3 -127,3q-103,0 -112,-3l-8,0l0,46l16,0q28,0 49,3q8,3 12,11q1,2 1,164l0,161l-71,0l0,46l71,0l0,66l1,67l2,10q19,65 64,94t95,36q1,0 9,0t14,1q41,-3 62,-26t21,-52q0,-23 -14,-37t-37,-14t-37,14t-14,37q0,20 18,40l-4,0q-4,1 -11,1q-28,0 -50,-21t-34,-55q-6,-20 -7,-95l0,-66l111,0l0,-46l-108,0l0,-160q0,-162 1,-164t3,-4t5,-3t5,-3t7,-2t7,-1t9,-1t9,0t10,-1t10,0l31,0l0,-46l-9,0z" stroke-width="10" id="svg_58"/>
       <path d="m21,287q1,3 2,8t5,22t10,31t15,33t20,30t26,22t33,9q29,0 51,-12t31,-22t11,-20q2,-6 3,-6t8,7q48,52 111,52l3,0q48,0 72,-41q8,-19 8,-37q0,-30 -13,-48t-26,-23t-25,-4q-20,0 -32,11t-12,29q0,48 56,64q-22,13 -36,13q-56,0 -103,-74q-10,-16 -15,-33t-34,-133q-34,-140 -39,-149q-13,-27 -43,-27q-13,0 -21,6t-11,12t-2,10q0,13 40,172t40,177q0,39 -26,39q-21,0 -36,-28t-24,-61t-11,-36q-2,-2 -16,-2l-14,0q-6,6 -6,9z" stroke-width="10" id="svg_57"/>
       <path d="m130,622q-7,7 -11,9t-16,3t-43,3l-33,0l0,46l187,0q23,0 62,0t55,1q88,0 140,-13t96,-55q57,-53 57,-127q0,-68 -51,-117t-122,-65q-22,-5 -123,-6l-94,0l0,-120q0,-119 3,-123q8,-11 67,-12l33,0l0,-46l-11,0q-21,3 -144,3q-135,0 -144,-3l-11,0l0,46l33,0q42,1 51,3t19,12l0,561zm377,-134q0,26 -1,40t-6,36t-17,33t-33,23t-53,15q-12,2 -90,2l-21,0q-49,0 -52,-9q-3,-4 -3,-145l0,-141l71,0l37,0q51,0 84,7t58,33q26,29 26,106z" stroke-width="10" id="svg_56"/>
       <path d="m41,46l14,0q39,0 47,14l0,8q0,9 0,23t0,31t1,39t0,42q0,31 0,66t-1,59l0,23q-3,19 -14,25t-45,9l-18,0l0,23q0,23 2,23l10,1q10,1 28,2t37,2q17,1 36,2t29,3t11,1l3,0l0,-40q0,-38 1,-38t5,5t12,15t19,18t29,19t38,16q20,5 51,5q15,0 28,-2t23,-6t19,-8t15,-9t11,-11t9,-11t7,-11t4,-10t3,-8l2,-5l3,4q3,4 6,8t9,11t13,13t15,13t20,12t23,10t26,7t31,3q126,0 137,-113q1,-7 1,-139l0,-86q0,-38 2,-45t11,-10q21,-3 49,-3l16,0l0,-46l-8,0l-23,1q-24,1 -51,1t-38,1q-103,0 -112,-3l-8,0l0,46l16,0q61,0 61,16q1,2 1,138q-1,135 -2,143q-6,28 -20,42t-24,17t-26,2q-45,0 -79,-34q-27,-27 -34,-55t-8,-83l0,-64l0,-60q0,-30 1,-40t3,-13t9,-6q21,-3 49,-3l16,0l0,-46l-8,0l-24,1q-23,1 -50,1t-38,1q-103,0 -112,-3l-8,0l0,46l16,0q61,0 61,16q1,2 1,138q-1,135 -2,143q-6,28 -20,42t-24,17t-26,2q-45,0 -79,-34q-27,-27 -34,-55t-8,-83l0,-64l0,-60q0,-30 1,-40t3,-13t9,-6q21,-3 49,-3l16,0l0,-46l-8,0l-23,1q-24,1 -51,1t-38,1q-103,0 -112,-3l-8,0l0,46l16,0z" stroke-width="10" id="svg_55"/>
       <path d="m137,305t-22,0t-37,15t-15,39q0,35 34,62t121,27q73,0 118,-32t60,-76q5,-14 5,-31t1,-115l0,-70q0,-48 5,-66t21,-18q15,0 20,16t5,53l0,36l40,0l0,-39q-1,-40 -3,-47q-9,-30 -35,-47t-55,-18t-47,18t-24,42l0,4l-2,-3q-2,-3 -5,-6t-8,-9t-12,-11t-15,-12t-18,-11t-22,-8t-26,-6t-31,-3q-60,0 -108,31t-48,87q0,21 7,40t27,41t48,37t78,28t110,15l14,0l0,22q0,34 -6,50q-22,71 -97,71q-18,0 -34,-1t-25,-4t-8,-3q22,-15 22,-44q0,-25 -16,-39l-17,-15zm-11,-199q0,-31 24,-55t59,-25q38,0 67,23t39,60q2,7 3,66q0,58 -1,58q-8,0 -21,-1t-45,-9t-58,-20t-46,-37t-21,-60z" stroke-width="10" id="svg_54"/>
       <path d="m41,46l14,0q39,0 47,14l0,8q0,9 0,23t0,31t1,39t0,42q0,31 0,66t-1,59l0,23q-3,19 -14,25t-45,9l-18,0l0,23q0,23 2,23l10,1q10,1 28,2t37,2q17,1 36,2t29,3t11,1l3,0l0,-40q0,-38 1,-38t5,5t12,15t19,18t29,19t38,16q20,5 51,5q114,-4 127,-113q1,-7 1,-139l0,-86q0,-38 2,-45t11,-10q21,-3 49,-3l16,0l0,-46l-8,0l-24,1q-23,1 -50,1t-38,1q-103,0 -112,-3l-8,0l0,46l16,0q61,0 61,16q1,2 1,138q-1,135 -2,143q-6,28 -20,42t-24,17t-26,2q-45,0 -79,-34q-27,-27 -34,-55t-8,-83l0,-64l0,-60q0,-30 1,-40t3,-13t9,-6q21,-3 49,-3l16,0l0,-46l-8,0l-23,1q-24,1 -51,1t-38,1q-103,0 -112,-3l-8,0l0,46l16,0z" stroke-width="10" id="svg_53"/>
       <path d="m90,368q-6,10 -14,12t-36,5l-22,0l0,46l6,0l19,-1q19,0 41,-1t32,-1q90,0 105,3l8,0l0,-46l-14,0q-38,-2 -38,-17q0,-1 44,-129l44,-126l74,215l-6,17q-10,29 -17,34q-8,5 -38,6l-20,0l0,46l6,0q6,-3 84,-3q91,0 106,3l7,0l0,-46l-9,0q-48,0 -48,-16q0,-3 14,-45t31,-90t32,-91l15,-43l41,119q42,122 42,128q0,16 -15,26t-34,12l-8,0l0,46l7,0q12,-3 95,-3q68,0 74,3l5,0l0,-46l-6,0q-1,0 -6,0t-9,-1q-47,-7 -63,-50l-60,-173q-13,-37 -31,-90q-20,-59 -25,-70t-16,-12l-8,0q-19,0 -23,7q-1,1 -49,137l-46,134q-2,-4 -95,-271q-5,-7 -23,-7l-5,0q-13,0 -18,8l-130,371z" stroke-width="10" id="svg_52"/>
       <path d="m307,-11q-73,0 -139,66l-10,-18q-2,-3 -5,-9t-6,-11t-4,-7l-5,-9l-20,-1l-20,0l0,298q0,301 -1,305q-3,19 -14,25t-45,9l-18,0l0,23q0,23 2,23l10,1q10,1 29,2t37,2q17,1 37,2t30,3t11,1l3,0l0,-151q0,-152 1,-152l3,3q3,3 9,7t15,10t21,10t26,10t32,8t37,3q78,0 138,-63t61,-163q0,-101 -64,-164t-151,-63zm-125,109q0,-1 5,-8t9,-11t10,-12t12,-12t15,-11t17,-9t21,-6t24,-3q35,0 68,20t49,67q12,35 12,99q0,75 -12,111q-27,82 -112,82q-30,0 -61,-15t-51,-43l-6,-8l0,-241z" stroke-width="10" id="svg_51"/>
       <path d="m383,58q-56,-68 -127,-68l-7,0q-125,0 -144,99q-1,7 -2,137q-1,109 -1,122t-6,21q-10,16 -60,16l-11,0l0,23q0,23 2,23l11,1q10,1 29,2t38,2q17,1 37,2t30,3t12,1l3,0l0,-181q1,-184 3,-197q3,-15 14,-24q20,-14 60,-14q26,0 47,9t32,23t20,32t12,30t4,24q0,1 0,17t1,40t0,47l0,67q0,46 -10,57t-50,13l-18,0l0,46q2,0 76,5t79,6l7,0l0,-178q0,-180 1,-183q3,-20 14,-26t45,-9l18,0l0,-46q-2,0 -75,-5t-77,-6l-7,0l0,69z" stroke-width="10" id="svg_50"/>
       <path d="m376,495q0,16 0,40t1,33q0,45 -10,56t-51,13l-18,0l0,23q0,23 2,23l10,1q10,1 29,2t37,2q17,1 37,2t30,3t11,1l3,0l0,-304q0,-306 1,-309q3,-20 14,-26t45,-9l18,0l0,-46q-2,0 -76,-5t-79,-6l-7,0l0,55l-8,-7q-58,-48 -130,-48q-77,0 -139,61t-62,165q0,100 63,163t147,64q75,0 132,-49l0,102zm-3,-153q-45,63 -113,63q-49,0 -87,-36q-27,-28 -34,-64t-8,-94q0,-56 7,-91t35,-61q30,-33 78,-33q71,0 122,77l0,239z" stroke-width="10" id="svg_49"/>
       <path d="m42,0l-2,0q-14,0 -14,11q0,4 3,16q4,14 7,16t19,3q86,3 135,52q10,10 116,126t105,118q-109,278 -114,283q-9,11 -63,12l-28,0q-6,6 -6,8t2,19q4,13 10,19l14,0q34,-2 121,-2q33,0 61,0t45,1t20,0q17,0 17,-11q0,-1 -2,-13q-4,-15 -7,-18t-16,-3q-31,-3 -54,-17l77,-194l53,59q105,113 105,125q0,18 -24,25q-5,0 -13,2q-15,0 -15,11q0,2 2,16q4,13 10,19l12,0q1,0 25,0t54,-2t41,-1q90,0 99,3l8,0q7,-7 7,-11q-2,-25 -12,-35l-16,0q-34,-1 -61,-9t-41,-17t-24,-18l-11,-9q0,1 -95,-104l-87,-96q0,-1 31,-80t65,-162t37,-86q10,-9 61,-10q35,0 35,-9q0,-2 -2,-14q-4,-16 -7,-19t-14,-3q-3,0 -33,0t-89,1q-61,0 -93,0t-35,-1q-17,0 -17,9q0,1 2,15q2,10 4,14t5,5t9,2t16,1t26,7q17,8 17,10q-1,0 -47,117l-47,118q-188,-204 -193,-215q-4,-8 -4,-12q0,-19 29,-25q1,0 6,0t6,-1q3,0 4,0t3,-1t3,-3t1,-7q0,-9 -2,-16q-3,-13 -6,-15t-15,-3q-3,0 -18,0t-42,1t-59,0q-78,0 -100,-2z" stroke-width="10" id="svg_48"/>
       <path d="m66,637q-12,0 -17,0t-10,1t-7,3t-2,6t3,17t9,18q2,1 14,1q48,-3 109,-3q123,0 141,3l10,0q6,-6 6,-9t-2,-18q-4,-13 -10,-19l-12,0q-56,0 -56,-13q0,-5 50,-147t51,-144l3,3q4,4 12,13t21,24t32,37t43,51q92,107 107,126t16,31q0,16 -32,19q-17,0 -17,10q0,2 2,14q3,15 5,18t14,4q2,0 29,-1t79,-2q27,0 56,1t33,1q17,0 17,-9q0,-4 -3,-16t-5,-14q-2,-6 -21,-6q-72,-5 -117,-50q-9,-9 -140,-163l-129,-151l-26,-104q-27,-107 -27,-112q0,-11 68,-11q16,0 21,-1t6,-10q0,-2 -2,-12q-4,-17 -6,-19t-16,-3q-5,0 -42,0t-92,1q-62,0 -94,0t-36,-1q-18,0 -18,8q0,5 3,15q1,3 2,6t1,5t1,4t2,3t3,2t5,1t6,0t9,1t13,0q39,1 51,4t18,13q3,5 29,108l25,103l-123,349q-1,1 -2,2t-2,2t-3,2t-4,2t-5,2t-8,1t-9,1t-13,1t-17,1z" stroke-width="10" id="svg_40"/>
       <path d="m52,289q7,42 54,97t116,56q35,0 64,-18t43,-45q42,63 101,63q37,0 64,-22t28,-59q0,-29 -14,-47t-27,-22t-23,-4q-19,0 -31,11t-12,29q0,46 50,63q-11,13 -40,13q-13,0 -19,-2q-38,-16 -56,-66q-60,-221 -60,-258q0,-28 16,-40t35,-12q37,0 73,33t49,81q3,10 6,11t16,2l4,0q15,0 15,-8q0,-1 -2,-11q-16,-57 -62,-101t-107,-44q-70,0 -106,63q-41,-62 -94,-62l-6,0q-49,0 -70,26t-22,55q0,32 19,52t45,20q43,0 43,-42q0,-20 -12,-35t-23,-20t-13,-5l-3,-1q0,-1 6,-4t16,-7t19,-3q36,0 62,45q9,16 23,68t28,108t16,66q5,27 5,39q0,28 -15,40t-34,12q-40,0 -75,-32t-49,-82q-2,-9 -5,-10t-16,-2l-14,0q-6,6 -6,11z" stroke-width="10" id="svg_47"/>
       <path d="m56,237t0,13t14,20l299,0l0,150l1,150q10,13 19,13q13,0 20,-15l0,-298l298,0q15,-8 15,-20t-15,-20l-298,0l0,-298q-8,-14 -18,-14l-2,0l-2,0q-12,0 -18,14l0,298l-299,0q-14,7 -14,20l0,-13z" stroke-width="10" id="svg_46"/>
       <path d="m21,287q0,14 15,48t48,71t74,36q41,0 66,-23t26,-64q-2,-19 -3,-21q0,-3 -16,-46t-33,-97t-16,-86q0,-43 14,-60t42,-18q23,0 43,11t31,23t27,33q0,1 5,20t14,59t19,74q38,150 42,157q13,27 43,27q13,0 21,-7t11,-12t2,-9q0,-13 -49,-210t-56,-216q-28,-83 -97,-132t-138,-50q-45,0 -79,22t-34,66q0,22 7,37t19,22t20,10t17,3q44,0 44,-42q0,-20 -12,-35t-23,-20t-13,-5l-3,-1q2,-5 19,-12t34,-7l8,0q17,0 26,2q33,9 61,38t43,62t23,56t8,30l-6,-4q-6,-4 -19,-11t-26,-12q-20,-5 -39,-5q-46,0 -81,22t-46,71q-1,7 -1,31q0,57 35,149t35,117q0,1 0,2q0,9 0,12t-4,7t-11,4l-4,0q-23,0 -42,-19t-30,-41t-17,-42t-8,-22q-2,-2 -16,-2l-14,0q-6,6 -6,9z" stroke-width="10" id="svg_45"/>
       <path d="m462,0q-18,3 -129,3q-116,0 -134,-3l-9,0l0,46l31,0q20,0 27,0t17,2t14,5t7,8q1,2 1,54l0,50l-259,0l0,46l151,231q153,232 155,233q2,2 21,2l18,0l6,-6l0,-460l92,0l0,-46l-92,0l0,-51q0,-41 0,-48t6,-12q8,-7 57,-8l29,0l0,-46l-9,0zm-169,211l0,334l-219,-333l109,-1l110,0z" stroke-width="10" id="svg_44"/>
       <path d="m127,463q-27,0 -42,17t-16,44q0,55 48,98t116,43q35,0 44,-1q74,-12 113,-53t40,-89q0,-52 -34,-101t-94,-71l-3,-2q0,-1 9,-3t29,-9t38,-21q82,-53 82,-140q0,-79 -62,-138t-157,-59q-80,0 -138,43t-58,109q0,28 18,45t45,18q28,0 46,-18t18,-45q0,-11 -3,-20t-7,-16t-11,-12t-12,-8t-10,-4t-8,-3l-4,-1q51,-45 124,-45q55,0 83,53q17,33 17,101l0,20q0,95 -64,127q-15,6 -61,7l-42,1l-3,2q-2,3 -2,16q0,18 8,18q28,0 58,5q34,5 62,42t28,112l0,8q0,57 -35,79q-22,14 -47,14q-32,0 -59,-11t-38,-23t-11,-12l3,0q3,-1 8,-2t10,-5t12,-7t10,-11t8,-15t3,-20q0,-22 -14,-39t-45,-18z" stroke-width="10" id="svg_43"/>
       <path d="m674,636q8,0 14,-6t6,-15t-7,-14q-1,-1 -270,-129l-266,-126l248,-118q288,-136 292,-141q3,-6 3,-11q0,-18 -18,-20l-6,0l-288,136q-290,137 -292,139q-7,5 -7,17q1,11 13,17q8,4 286,135t283,134q4,2 9,2zm-590,-754q0,10 15,20l579,0q16,-6 16,-20q0,-12 -15,-20l-581,0q-14,7 -14,20z" stroke-width="10" id="svg_42"/>
       <path d="m70,417t0,77t54,124t124,48q71,0 126,-42t55,-109q0,-30 -11,-56t-26,-42t-31,-28t-26,-18t-11,-8l14,-9q14,-10 28,-20t16,-11q75,-59 75,-149q0,-79 -58,-137t-150,-59q-90,0 -148,51t-58,126q0,108 129,180l-18,13q-21,13 -27,20q-57,49 -57,126l0,-77zm216,-31l6,4q6,4 9,6t10,7t12,10t11,12t11,13t10,16t9,17t5,20t2,22q0,43 -29,73t-67,38q-7,1 -33,1q-41,0 -77,-26t-37,-65q0,-23 13,-42t26,-29t50,-32q7,-5 11,-7l58,-38zm-36,-365q58,0 100,34t42,82q0,17 -5,32t-12,25t-22,22t-23,18t-29,19t-27,17q-14,9 -30,19t-26,17l-8,5q-6,0 -29,-17t-48,-55t-26,-82q0,-59 43,-97t100,-39z" stroke-width="10" id="svg_41"/>
      </defs>
      <g id="svg_287" transform="matrix(1 0 0 -1 0 0)" stroke-width="0" fill="rgb(68, 68, 68)" stroke="rgb(68, 68, 68)">
       <use id="svg_288" xlink:href="#svg_40"/>
      </g>
     </svg>
    </g>
   </g>
   <g id="svg_115">
    <svg id="svg_289" height="48" width="118" y="100" x="739" class="legend">
     <rect id="svg_290" stroke="rgb(68, 68, 68)" fill="rgb(255, 255, 255)" stroke-width="0px" height="48" width="118" y="0" x="0" class="bg"/>
     <g id="svg_291" class="traces">
      <g id="svg_292" class="legendfill">
       <path id="svg_293" stroke-width="0px" fill="rgb(31, 119, 180)" fill-opacity="0.5" d="m5,14.5l30,0l0,6l-30,0l0,-6z" class="js-fill"/>
      </g>
      <g id="svg_294" class="legendlines">
       <path id="svg_295" fill="none" stroke="rgb(31, 119, 180)" stroke-width="2px" d="m5,14.5l30,0" class="js-line"/>
      </g>
      <g id="svg_296" class="legendsymbols">
       <g id="svg_297" class="legendpoints">
        <path id="svg_298" stroke-width="0px" fill="rgb(31, 119, 180)" d="m23,14.5a3,3 0 1 1 -3,-3a3,3 0 0 1 3,3z" class="scatterpts"/>
       </g>
      </g>
      <rect id="svg_299" fill="rgb(0, 0, 0)" fill-opacity="0" width="112.981445" height="19" y="5" x="0" class="legendtoggle"/>
      <g id="svg_153" class="legendtext-math-group">
       <svg id="svg_300" width="13.091ex" y="8.645485" x="40" preserveAspectRatio="xMinYMin meet" height="2.182ex" class="legendtext-math" viewBox="0 -688.7742397004789 5665 916.5484794009578" xmlns:xlink="http://www.w3.org/1999/xlink">
        <defs>
         <path d="m366,683q1,0 72,5t73,6q12,0 12,-8q0,-7 -73,-302t-75,-301t-1,-15q0,-42 28,-42q9,1 20,9q21,20 41,96q6,20 10,21q2,1 10,1l4,0l4,0q15,0 15,-8q0,-5 -3,-16q-13,-50 -30,-81t-28,-40t-28,-16q-8,-2 -24,-2q-34,0 -57,15t-30,31l-6,15q-1,1 -4,-1q-2,-2 -4,-4q-59,-56 -120,-56q-55,0 -97,40t-42,127q0,48 20,98t48,86q47,57 94,79t85,22q56,0 84,-42q5,-6 5,-4q1,4 27,109t28,111q0,13 -7,16t-39,5l-21,0q-6,6 -6,8t2,19q5,19 13,19zm-14,-357q-23,79 -75,79q-35,0 -67,-31t-50,-81q-29,-79 -41,-164q0,-3 0,-11t-1,-12q0,-45 18,-62t43,-18q54,0 111,72l8,11l54,217z" stroke-width="10" id="svg_152"/>
         <path d="m184,-11q-68,0 -110,45t-43,113q0,100 73,186t170,97q1,1 140,1l138,0q1,-1 3,-2t4,-2t3,-2t3,-3t2,-2t2,-4t1,-4t1,-5t1,-6q0,-44 -65,-44q-7,0 -17,0t-14,1l-60,0l5,-10q18,-38 18,-85q0,-110 -80,-192t-175,-82zm177,289q0,80 -85,80q-124,0 -161,-174q-1,-4 -1,-6q-8,-37 -8,-61q0,-50 25,-70t57,-21q54,0 99,47q29,30 47,80t22,80t5,45z" stroke-width="10" id="svg_151"/>
         <path d="m48,1q-17,0 -17,10q0,2 3,14q4,16 8,18t23,3q27,0 60,3q14,3 19,12q2,5 71,281t70,280q0,7 -4,7q-8,3 -53,5l-31,0q-6,6 -6,8t2,17q4,17 10,21l539,0q7,-4 7,-11q0,-5 -13,-112t-14,-110q-2,-7 -20,-7l-12,0q-7,5 -7,13q0,1 3,24t3,53q0,30 -7,49t-19,31t-37,16t-51,7t-72,1l-23,0q-82,-1 -87,-3q-5,-2 -7,-8q-1,-1 -34,-131l-32,-129l55,0q3,0 23,0t28,1t22,3t24,7t17,12q13,12 22,33t13,38t5,18q3,5 19,5l12,0q7,-5 7,-10q0,-3 -31,-131t-34,-132q-2,-7 -20,-7l-12,0q-7,6 -7,12q0,3 5,22t5,40q0,29 -20,36t-89,7l-55,0l-32,-127q-32,-124 -32,-130q0,-14 89,-14l25,0q6,-6 6,-7t-2,-20q-4,-13 -10,-19l-17,0q-41,2 -151,2q-65,0 -99,0t-38,-1z" stroke-width="10" id="svg_150"/>
         <path d="m94,250q0,69 10,131t23,107t37,88t38,67t42,52t33,34t25,21l13,0l4,0q14,0 14,-9q0,-3 -17,-21t-41,-53t-49,-86t-42,-138t-17,-193t17,-192t41,-139t49,-86t42,-53t17,-21q0,-9 -15,-9l-3,0l-13,0l-28,24q-94,85 -137,212t-43,264z" stroke-width="10" id="svg_149"/>
         <path d="m96,585q56,81 153,81q48,0 96,-26t78,-92q37,-83 37,-228q0,-155 -43,-237q-20,-42 -55,-67t-61,-31t-51,-7q-26,0 -52,6t-61,32t-55,67q-43,82 -43,237q0,174 57,265zm225,12q-30,32 -71,32q-42,0 -72,-32q-25,-26 -33,-72t-8,-192q0,-158 8,-208t36,-79q28,-30 69,-30q40,0 68,30q29,30 36,84t8,203q0,145 -8,191t-33,73z" stroke-width="10" id="svg_148"/>
         <path d="m78,60q0,24 17,42t43,18q24,0 42,-16t19,-43q0,-25 -17,-43t-43,-18t-43,17t-18,43z" stroke-width="10" id="svg_147"/>
         <path d="m213,578l-13,-5q-14,-5 -40,-10t-58,-7l-19,0l0,46l19,0q47,2 87,15t56,24t28,22q2,3 12,3q9,0 17,-6l0,-299l1,-300q7,-7 12,-9t24,-4t62,-2l26,0l0,-46l-11,0q-21,3 -159,3q-136,0 -157,-3l-12,0l0,46l26,0q22,0 38,0t25,1t16,3t8,2t6,5t6,4l0,517z" stroke-width="10" id="svg_117"/>
         <path d="m60,749l4,1q5,0 10,0l12,0l28,-24q94,-85 137,-212t43,-264q0,-68 -10,-131t-23,-107t-37,-88t-38,-67t-41,-51t-32,-33t-23,-19q-3,-3 -4,-4l-12,0q-8,0 -11,0t-5,3t-3,9q1,1 11,13q155,161 155,475t-155,475q-10,12 -11,13q0,8 5,11z" stroke-width="10" id="svg_146"/>
         <path d="m56,347q0,13 14,20l637,0q15,-8 15,-20q0,-11 -14,-19l-318,-1l-318,0q-16,5 -16,20zm0,-194q0,15 16,20l636,0q14,-10 14,-20q0,-13 -15,-20l-637,0q-14,7 -14,20z" stroke-width="10" id="svg_145"/>
         <path d="m109,429q-27,0 -43,18t-16,44q0,71 53,123t132,52q91,0 152,-56t62,-145q0,-43 -20,-82t-48,-68t-80,-74q-36,-31 -100,-92l-59,-56l76,-1q157,0 167,5q7,2 24,89l0,3l40,0l0,-3q-1,-3 -13,-91t-15,-92l0,-3l-371,0l0,19l0,12q0,7 6,15t30,35q29,32 50,56q9,10 34,37t34,37t29,33t28,34t23,30t21,32t15,29t13,32t7,30t3,33q0,63 -34,109t-97,46q-33,0 -58,-17t-35,-33t-10,-19q0,-1 5,-1q18,0 37,-14t19,-46q0,-25 -16,-42t-45,-18z" stroke-width="10" id="svg_116"/>
         <path d="m130,622q-7,7 -11,9t-16,3t-43,3l-33,0l0,46l175,0l34,0l64,0q76,0 117,-6t83,-29q95,-48 109,-131q1,-5 1,-16q0,-33 -16,-62t-38,-47t-45,-31t-39,-18l-16,-5q3,-3 11,-6q30,-16 49,-34t29,-44t14,-43t9,-56t10,-61q10,-48 24,-63t38,-15l5,0q15,0 29,16t18,55q0,11 4,14t16,4t16,-2t4,-13q0,-31 -16,-63t-44,-43q-16,-6 -42,-6q-149,6 -172,112q-2,11 -2,73t-7,83q-19,58 -76,74l-10,2l-66,1l-66,0l0,-131l1,-131q6,-10 17,-12t52,-3l33,0l0,-46l-11,0q-21,3 -142,3q-122,0 -143,-3l-11,0l0,46l33,0q42,1 51,3t19,12l0,561zm361,-123l0,10q0,18 -1,30t-9,31t-19,31t-38,22t-62,13q-2,0 -22,0t-36,1l-21,0q-45,0 -49,-9q-3,-4 -3,-136l0,-132l58,0q101,0 145,18t55,78q2,11 2,43z" stroke-width="10" id="svg_144"/>
         <path d="m28,218q0,55 20,100t50,73t65,42t66,15q53,0 91,-18t58,-50t28,-64t9,-71q0,-7 -7,-14l-282,0l0,-15q0,-148 100,-180q20,-6 44,-6q42,0 72,32q17,17 27,42l10,24q3,3 16,3l3,0q17,0 17,-10q0,-4 -3,-13q-19,-55 -63,-87t-99,-32q-95,0 -158,69t-64,160zm305,57q-11,128 -95,136l-2,0q-8,0 -16,-1t-25,-8t-29,-21t-23,-41t-16,-66l0,-7l206,0l0,8z" stroke-width="10" id="svg_143"/>
         <path d="m370,305t-21,0t-36,15t-16,38q0,23 15,38q5,5 5,6t-10,2q-26,4 -49,4q-49,0 -80,-32q-47,-47 -47,-157q0,-82 31,-129q41,-61 110,-61q41,0 66,26t36,62q2,8 5,10t16,2l14,0q6,-6 6,-9q0,-4 -4,-16t-16,-33t-29,-38t-48,-31t-69,-13q-86,0 -150,64t-65,161q0,104 65,169t151,65t120,-27t34,-64q0,-23 -17,-37l-17,-15z" stroke-width="10" id="svg_142"/>
         <path d="m28,214q0,95 65,164t157,70q90,0 155,-68t66,-165q0,-95 -64,-160t-157,-65q-97,0 -159,67t-63,157zm222,-184q122,0 122,163l0,32l0,25q0,22 -1,38t-7,38t-16,36t-31,28t-49,20q-5,1 -16,1q-30,0 -57,-12q-43,-22 -56,-61t-13,-92l0,-20q0,-96 19,-135q32,-61 105,-61z" stroke-width="10" id="svg_141"/>
         <path d="m338,431q6,-2 84,-2q57,0 81,2l5,0l0,-46l-11,0q-58,-4 -74,-40q-2,-4 -67,-173t-68,-174q-5,-9 -25,-9q-19,0 -24,9q-140,361 -141,366q-5,14 -16,17t-39,4l-24,0l0,46l6,0l8,-1q8,0 20,0t26,0t25,-1t18,-1q95,0 110,3l8,0l0,-46l-14,0q-39,-1 -42,-15q0,-4 51,-136l51,-132l91,239l0,8q0,14 -10,23t-18,11t-14,2l-4,0l0,46l7,0z" stroke-width="10" id="svg_140"/>
         <path d="m36,46l14,0q39,0 47,14l0,8q0,9 0,23t1,31t0,39t0,42q0,31 0,66t0,59l-1,23q-3,19 -14,25t-45,9l-18,0l0,23q0,23 2,23l10,1q10,1 28,2t36,2q16,1 35,2t29,3t11,1l3,0l0,-69q39,68 97,68l6,0q45,0 66,-22t21,-46q0,-21 -13,-36t-38,-15q-25,0 -37,16t-13,34q0,9 2,16t5,12t3,5q-2,2 -23,-4q-16,-8 -24,-15q-47,-45 -47,-179l0,-53q0,-13 0,-27t0,-26t1,-20t0,-15l0,-5q1,-2 3,-4t5,-3t5,-3t7,-2t7,-1t9,-1t9,0t10,-1t10,0l31,0l0,-46l-9,0q-18,3 -127,3q-103,0 -112,-3l-8,0l0,46l16,0z" stroke-width="10" id="svg_139"/>
         <path d="m69,-66q22,0 35,-14t14,-36q0,-18 -9,-29t-18,-15q-7,-3 6,-6q7,-2 14,-2q20,0 37,9t27,21t22,32t16,31t12,32l17,43l-72,183q-20,50 -45,114q-24,61 -29,71t-16,13q-1,1 -2,1q-12,3 -44,3l-15,0l0,46l7,0l20,-1q19,0 42,-1t34,-1q7,0 20,0t29,1t29,1t24,0l9,1l8,0l0,-46l-9,0q-49,0 -47,-19l101,-254q0,1 46,115l44,114l0,9q0,15 -10,23t-18,10t-14,2l-3,0l0,46l6,0l7,0q7,0 17,0t21,-1t23,-1t17,0q55,0 81,2l5,0l0,-46l-11,0q-56,-5 -75,-40q-2,-2 -44,-110t-89,-226t-62,-140q-47,-73 -114,-73q-44,0 -69,27t-25,61q0,27 16,38t34,12z" stroke-width="10" id="svg_138"/>
         <path stroke-width="10" id="svg_137"/>
         <path d="m273,0q-18,3 -127,3q-103,0 -112,-3l-8,0l0,46l16,0q28,0 49,3q8,3 12,11q1,2 1,164l0,161l-71,0l0,46l71,0l0,66l1,67l2,10q19,65 64,94t95,36q1,0 9,0t14,1q41,-3 62,-26t21,-52q0,-23 -14,-37t-37,-14t-37,14t-14,37q0,20 18,40l-4,0q-4,1 -11,1q-28,0 -50,-21t-34,-55q-6,-20 -7,-95l0,-66l111,0l0,-46l-108,0l0,-160q0,-162 1,-164t3,-4t5,-3t5,-3t7,-2t7,-1t9,-1t9,0t10,-1t10,0l31,0l0,-46l-9,0z" stroke-width="10" id="svg_136"/>
         <path d="m21,287q1,3 2,8t5,22t10,31t15,33t20,30t26,22t33,9q29,0 51,-12t31,-22t11,-20q2,-6 3,-6t8,7q48,52 111,52l3,0q48,0 72,-41q8,-19 8,-37q0,-30 -13,-48t-26,-23t-25,-4q-20,0 -32,11t-12,29q0,48 56,64q-22,13 -36,13q-56,0 -103,-74q-10,-16 -15,-33t-34,-133q-34,-140 -39,-149q-13,-27 -43,-27q-13,0 -21,6t-11,12t-2,10q0,13 40,172t40,177q0,39 -26,39q-21,0 -36,-28t-24,-61t-11,-36q-2,-2 -16,-2l-14,0q-6,6 -6,9z" stroke-width="10" id="svg_135"/>
         <path d="m130,622q-7,7 -11,9t-16,3t-43,3l-33,0l0,46l187,0q23,0 62,0t55,1q88,0 140,-13t96,-55q57,-53 57,-127q0,-68 -51,-117t-122,-65q-22,-5 -123,-6l-94,0l0,-120q0,-119 3,-123q8,-11 67,-12l33,0l0,-46l-11,0q-21,3 -144,3q-135,0 -144,-3l-11,0l0,46l33,0q42,1 51,3t19,12l0,561zm377,-134q0,26 -1,40t-6,36t-17,33t-33,23t-53,15q-12,2 -90,2l-21,0q-49,0 -52,-9q-3,-4 -3,-145l0,-141l71,0l37,0q51,0 84,7t58,33q26,29 26,106z" stroke-width="10" id="svg_134"/>
         <path d="m41,46l14,0q39,0 47,14l0,8q0,9 0,23t0,31t1,39t0,42q0,31 0,66t-1,59l0,23q-3,19 -14,25t-45,9l-18,0l0,23q0,23 2,23l10,1q10,1 28,2t37,2q17,1 36,2t29,3t11,1l3,0l0,-40q0,-38 1,-38t5,5t12,15t19,18t29,19t38,16q20,5 51,5q15,0 28,-2t23,-6t19,-8t15,-9t11,-11t9,-11t7,-11t4,-10t3,-8l2,-5l3,4q3,4 6,8t9,11t13,13t15,13t20,12t23,10t26,7t31,3q126,0 137,-113q1,-7 1,-139l0,-86q0,-38 2,-45t11,-10q21,-3 49,-3l16,0l0,-46l-8,0l-23,1q-24,1 -51,1t-38,1q-103,0 -112,-3l-8,0l0,46l16,0q61,0 61,16q1,2 1,138q-1,135 -2,143q-6,28 -20,42t-24,17t-26,2q-45,0 -79,-34q-27,-27 -34,-55t-8,-83l0,-64l0,-60q0,-30 1,-40t3,-13t9,-6q21,-3 49,-3l16,0l0,-46l-8,0l-24,1q-23,1 -50,1t-38,1q-103,0 -112,-3l-8,0l0,46l16,0q61,0 61,16q1,2 1,138q-1,135 -2,143q-6,28 -20,42t-24,17t-26,2q-45,0 -79,-34q-27,-27 -34,-55t-8,-83l0,-64l0,-60q0,-30 1,-40t3,-13t9,-6q21,-3 49,-3l16,0l0,-46l-8,0l-23,1q-24,1 -51,1t-38,1q-103,0 -112,-3l-8,0l0,46l16,0z" stroke-width="10" id="svg_133"/>
         <path d="m137,305t-22,0t-37,15t-15,39q0,35 34,62t121,27q73,0 118,-32t60,-76q5,-14 5,-31t1,-115l0,-70q0,-48 5,-66t21,-18q15,0 20,16t5,53l0,36l40,0l0,-39q-1,-40 -3,-47q-9,-30 -35,-47t-55,-18t-47,18t-24,42l0,4l-2,-3q-2,-3 -5,-6t-8,-9t-12,-11t-15,-12t-18,-11t-22,-8t-26,-6t-31,-3q-60,0 -108,31t-48,87q0,21 7,40t27,41t48,37t78,28t110,15l14,0l0,22q0,34 -6,50q-22,71 -97,71q-18,0 -34,-1t-25,-4t-8,-3q22,-15 22,-44q0,-25 -16,-39l-17,-15zm-11,-199q0,-31 24,-55t59,-25q38,0 67,23t39,60q2,7 3,66q0,58 -1,58q-8,0 -21,-1t-45,-9t-58,-20t-46,-37t-21,-60z" stroke-width="10" id="svg_132"/>
         <path d="m41,46l14,0q39,0 47,14l0,8q0,9 0,23t0,31t1,39t0,42q0,31 0,66t-1,59l0,23q-3,19 -14,25t-45,9l-18,0l0,23q0,23 2,23l10,1q10,1 28,2t37,2q17,1 36,2t29,3t11,1l3,0l0,-40q0,-38 1,-38t5,5t12,15t19,18t29,19t38,16q20,5 51,5q114,-4 127,-113q1,-7 1,-139l0,-86q0,-38 2,-45t11,-10q21,-3 49,-3l16,0l0,-46l-8,0l-24,1q-23,1 -50,1t-38,1q-103,0 -112,-3l-8,0l0,46l16,0q61,0 61,16q1,2 1,138q-1,135 -2,143q-6,28 -20,42t-24,17t-26,2q-45,0 -79,-34q-27,-27 -34,-55t-8,-83l0,-64l0,-60q0,-30 1,-40t3,-13t9,-6q21,-3 49,-3l16,0l0,-46l-8,0l-23,1q-24,1 -51,1t-38,1q-103,0 -112,-3l-8,0l0,46l16,0z" stroke-width="10" id="svg_131"/>
         <path d="m90,368q-6,10 -14,12t-36,5l-22,0l0,46l6,0l19,-1q19,0 41,-1t32,-1q90,0 105,3l8,0l0,-46l-14,0q-38,-2 -38,-17q0,-1 44,-129l44,-126l74,215l-6,17q-10,29 -17,34q-8,5 -38,6l-20,0l0,46l6,0q6,-3 84,-3q91,0 106,3l7,0l0,-46l-9,0q-48,0 -48,-16q0,-3 14,-45t31,-90t32,-91l15,-43l41,119q42,122 42,128q0,16 -15,26t-34,12l-8,0l0,46l7,0q12,-3 95,-3q68,0 74,3l5,0l0,-46l-6,0q-1,0 -6,0t-9,-1q-47,-7 -63,-50l-60,-173q-13,-37 -31,-90q-20,-59 -25,-70t-16,-12l-8,0q-19,0 -23,7q-1,1 -49,137l-46,134q-2,-4 -95,-271q-5,-7 -23,-7l-5,0q-13,0 -18,8l-130,371z" stroke-width="10" id="svg_130"/>
         <path d="m307,-11q-73,0 -139,66l-10,-18q-2,-3 -5,-9t-6,-11t-4,-7l-5,-9l-20,-1l-20,0l0,298q0,301 -1,305q-3,19 -14,25t-45,9l-18,0l0,23q0,23 2,23l10,1q10,1 29,2t37,2q17,1 37,2t30,3t11,1l3,0l0,-151q0,-152 1,-152l3,3q3,3 9,7t15,10t21,10t26,10t32,8t37,3q78,0 138,-63t61,-163q0,-101 -64,-164t-151,-63zm-125,109q0,-1 5,-8t9,-11t10,-12t12,-12t15,-11t17,-9t21,-6t24,-3q35,0 68,20t49,67q12,35 12,99q0,75 -12,111q-27,82 -112,82q-30,0 -61,-15t-51,-43l-6,-8l0,-241z" stroke-width="10" id="svg_129"/>
         <path d="m383,58q-56,-68 -127,-68l-7,0q-125,0 -144,99q-1,7 -2,137q-1,109 -1,122t-6,21q-10,16 -60,16l-11,0l0,23q0,23 2,23l11,1q10,1 29,2t38,2q17,1 37,2t30,3t12,1l3,0l0,-181q1,-184 3,-197q3,-15 14,-24q20,-14 60,-14q26,0 47,9t32,23t20,32t12,30t4,24q0,1 0,17t1,40t0,47l0,67q0,46 -10,57t-50,13l-18,0l0,46q2,0 76,5t79,6l7,0l0,-178q0,-180 1,-183q3,-20 14,-26t45,-9l18,0l0,-46q-2,0 -75,-5t-77,-6l-7,0l0,69z" stroke-width="10" id="svg_128"/>
         <path d="m376,495q0,16 0,40t1,33q0,45 -10,56t-51,13l-18,0l0,23q0,23 2,23l10,1q10,1 29,2t37,2q17,1 37,2t30,3t11,1l3,0l0,-304q0,-306 1,-309q3,-20 14,-26t45,-9l18,0l0,-46q-2,0 -76,-5t-79,-6l-7,0l0,55l-8,-7q-58,-48 -130,-48q-77,0 -139,61t-62,165q0,100 63,163t147,64q75,0 132,-49l0,102zm-3,-153q-45,63 -113,63q-49,0 -87,-36q-27,-28 -34,-64t-8,-94q0,-56 7,-91t35,-61q30,-33 78,-33q71,0 122,77l0,239z" stroke-width="10" id="svg_127"/>
         <path d="m42,0l-2,0q-14,0 -14,11q0,4 3,16q4,14 7,16t19,3q86,3 135,52q10,10 116,126t105,118q-109,278 -114,283q-9,11 -63,12l-28,0q-6,6 -6,8t2,19q4,13 10,19l14,0q34,-2 121,-2q33,0 61,0t45,1t20,0q17,0 17,-11q0,-1 -2,-13q-4,-15 -7,-18t-16,-3q-31,-3 -54,-17l77,-194l53,59q105,113 105,125q0,18 -24,25q-5,0 -13,2q-15,0 -15,11q0,2 2,16q4,13 10,19l12,0q1,0 25,0t54,-2t41,-1q90,0 99,3l8,0q7,-7 7,-11q-2,-25 -12,-35l-16,0q-34,-1 -61,-9t-41,-17t-24,-18l-11,-9q0,1 -95,-104l-87,-96q0,-1 31,-80t65,-162t37,-86q10,-9 61,-10q35,0 35,-9q0,-2 -2,-14q-4,-16 -7,-19t-14,-3q-3,0 -33,0t-89,1q-61,0 -93,0t-35,-1q-17,0 -17,9q0,1 2,15q2,10 4,14t5,5t9,2t16,1t26,7q17,8 17,10q-1,0 -47,117l-47,118q-188,-204 -193,-215q-4,-8 -4,-12q0,-19 29,-25q1,0 6,0t6,-1q3,0 4,0t3,-1t3,-3t1,-7q0,-9 -2,-16q-3,-13 -6,-15t-15,-3q-3,0 -18,0t-42,1t-59,0q-78,0 -100,-2z" stroke-width="10" id="svg_126"/>
         <path d="m66,637q-12,0 -17,0t-10,1t-7,3t-2,6t3,17t9,18q2,1 14,1q48,-3 109,-3q123,0 141,3l10,0q6,-6 6,-9t-2,-18q-4,-13 -10,-19l-12,0q-56,0 -56,-13q0,-5 50,-147t51,-144l3,3q4,4 12,13t21,24t32,37t43,51q92,107 107,126t16,31q0,16 -32,19q-17,0 -17,10q0,2 2,14q3,15 5,18t14,4q2,0 29,-1t79,-2q27,0 56,1t33,1q17,0 17,-9q0,-4 -3,-16t-5,-14q-2,-6 -21,-6q-72,-5 -117,-50q-9,-9 -140,-163l-129,-151l-26,-104q-27,-107 -27,-112q0,-11 68,-11q16,0 21,-1t6,-10q0,-2 -2,-12q-4,-17 -6,-19t-16,-3q-5,0 -42,0t-92,1q-62,0 -94,0t-36,-1q-18,0 -18,8q0,5 3,15q1,3 2,6t1,5t1,4t2,3t3,2t5,1t6,0t9,1t13,0q39,1 51,4t18,13q3,5 29,108l25,103l-123,349q-1,1 -2,2t-2,2t-3,2t-4,2t-5,2t-8,1t-9,1t-13,1t-17,1z" stroke-width="10" id="svg_125"/>
         <path d="m52,289q7,42 54,97t116,56q35,0 64,-18t43,-45q42,63 101,63q37,0 64,-22t28,-59q0,-29 -14,-47t-27,-22t-23,-4q-19,0 -31,11t-12,29q0,46 50,63q-11,13 -40,13q-13,0 -19,-2q-38,-16 -56,-66q-60,-221 -60,-258q0,-28 16,-40t35,-12q37,0 73,33t49,81q3,10 6,11t16,2l4,0q15,0 15,-8q0,-1 -2,-11q-16,-57 -62,-101t-107,-44q-70,0 -106,63q-41,-62 -94,-62l-6,0q-49,0 -70,26t-22,55q0,32 19,52t45,20q43,0 43,-42q0,-20 -12,-35t-23,-20t-13,-5l-3,-1q0,-1 6,-4t16,-7t19,-3q36,0 62,45q9,16 23,68t28,108t16,66q5,27 5,39q0,28 -15,40t-34,12q-40,0 -75,-32t-49,-82q-2,-9 -5,-10t-16,-2l-14,0q-6,6 -6,11z" stroke-width="10" id="svg_121"/>
         <path d="m56,237t0,13t14,20l299,0l0,150l1,150q10,13 19,13q13,0 20,-15l0,-298l298,0q15,-8 15,-20t-15,-20l-298,0l0,-298q-8,-14 -18,-14l-2,0l-2,0q-12,0 -18,14l0,298l-299,0q-14,7 -14,20l0,-13z" stroke-width="10" id="svg_120"/>
         <path d="m21,287q0,14 15,48t48,71t74,36q41,0 66,-23t26,-64q-2,-19 -3,-21q0,-3 -16,-46t-33,-97t-16,-86q0,-43 14,-60t42,-18q23,0 43,11t31,23t27,33q0,1 5,20t14,59t19,74q38,150 42,157q13,27 43,27q13,0 21,-7t11,-12t2,-9q0,-13 -49,-210t-56,-216q-28,-83 -97,-132t-138,-50q-45,0 -79,22t-34,66q0,22 7,37t19,22t20,10t17,3q44,0 44,-42q0,-20 -12,-35t-23,-20t-13,-5l-3,-1q2,-5 19,-12t34,-7l8,0q17,0 26,2q33,9 61,38t43,62t23,56t8,30l-6,-4q-6,-4 -19,-11t-26,-12q-20,-5 -39,-5q-46,0 -81,22t-46,71q-1,7 -1,31q0,57 35,149t35,117q0,1 0,2q0,9 0,12t-4,7t-11,4l-4,0q-23,0 -42,-19t-30,-41t-17,-42t-8,-22q-2,-2 -16,-2l-14,0q-6,6 -6,9z" stroke-width="10" id="svg_119"/>
         <path d="m462,0q-18,3 -129,3q-116,0 -134,-3l-9,0l0,46l31,0q20,0 27,0t17,2t14,5t7,8q1,2 1,54l0,50l-259,0l0,46l151,231q153,232 155,233q2,2 21,2l18,0l6,-6l0,-460l92,0l0,-46l-92,0l0,-51q0,-41 0,-48t6,-12q8,-7 57,-8l29,0l0,-46l-9,0zm-169,211l0,334l-219,-333l109,-1l110,0z" stroke-width="10" id="svg_124"/>
         <path d="m127,463q-27,0 -42,17t-16,44q0,55 48,98t116,43q35,0 44,-1q74,-12 113,-53t40,-89q0,-52 -34,-101t-94,-71l-3,-2q0,-1 9,-3t29,-9t38,-21q82,-53 82,-140q0,-79 -62,-138t-157,-59q-80,0 -138,43t-58,109q0,28 18,45t45,18q28,0 46,-18t18,-45q0,-11 -3,-20t-7,-16t-11,-12t-12,-8t-10,-4t-8,-3l-4,-1q51,-45 124,-45q55,0 83,53q17,33 17,101l0,20q0,95 -64,127q-15,6 -61,7l-42,1l-3,2q-2,3 -2,16q0,18 8,18q28,0 58,5q34,5 62,42t28,112l0,8q0,57 -35,79q-22,14 -47,14q-32,0 -59,-11t-38,-23t-11,-12l3,0q3,-1 8,-2t10,-5t12,-7t10,-11t8,-15t3,-20q0,-22 -14,-39t-45,-18z" stroke-width="10" id="svg_122"/>
         <path d="m674,636q8,0 14,-6t6,-15t-7,-14q-1,-1 -270,-129l-266,-126l248,-118q288,-136 292,-141q3,-6 3,-11q0,-18 -18,-20l-6,0l-288,136q-290,137 -292,139q-7,5 -7,17q1,11 13,17q8,4 286,135t283,134q4,2 9,2zm-590,-754q0,10 15,20l579,0q16,-6 16,-20q0,-12 -15,-20l-581,0q-14,7 -14,20z" stroke-width="10" id="svg_118"/>
         <path d="m70,417t0,77t54,124t124,48q71,0 126,-42t55,-109q0,-30 -11,-56t-26,-42t-31,-28t-26,-18t-11,-8l14,-9q14,-10 28,-20t16,-11q75,-59 75,-149q0,-79 -58,-137t-150,-59q-90,0 -148,51t-58,126q0,108 129,180l-18,13q-21,13 -27,20q-57,49 -57,126l0,-77zm216,-31l6,4q6,4 9,6t10,7t12,10t11,12t11,13t10,16t9,17t5,20t2,22q0,43 -29,73t-67,38q-7,1 -33,1q-41,0 -77,-26t-37,-65q0,-23 13,-42t26,-29t50,-32q7,-5 11,-7l58,-38zm-36,-365q58,0 100,34t42,82q0,17 -5,32t-12,25t-22,22t-23,18t-29,19t-27,17q-14,9 -30,19t-26,17l-8,5q-6,0 -29,-17t-48,-55t-26,-82q0,-59 43,-97t100,-39z" stroke-width="10" id="svg_123"/>
        </defs>
        <g id="svg_301" transform="matrix(1 0 0 -1 0 0)" stroke-width="0" fill="rgb(68, 68, 68)" stroke="rgb(68, 68, 68)">
         <use id="svg_302" xlink:href="#svg_122"/>
         <use id="svg_303" y="0" x="505" xlink:href="#svg_121"/>
         <use id="svg_304" y="0" x="1304" xlink:href="#svg_120"/>
         <use id="svg_305" y="0" x="2309" xlink:href="#svg_116"/>
         <use id="svg_306" y="0" x="2814" xlink:href="#svg_119"/>
         <use id="svg_307" y="0" x="3594" xlink:href="#svg_118"/>
         <g id="svg_308">
          <use id="svg_309" x="4655" y="0" xlink:href="#svg_117"/>
          <use id="svg_310" y="0" x="5160" xlink:href="#svg_116"/>
         </g>
        </g>
       </svg>
      </g>
     </g>
     <g id="svg_311" class="traces">
      <g id="svg_312" class="legendfill">
       <path id="svg_313" stroke-width="0px" fill="rgb(255, 127, 14)" fill-opacity="0.5" d="m5,33.5l30,0l0,6l-30,0l0,-6z" class="js-fill"/>
      </g>
      <g id="svg_314" class="legendlines">
       <path id="svg_315" fill="none" stroke="rgb(255, 127, 14)" stroke-width="2px" d="m5,33.5l30,0" class="js-line"/>
      </g>
      <g id="svg_316" class="legendsymbols">
       <g id="svg_317" class="legendpoints">
        <path id="svg_318" stroke-width="0px" fill="rgb(255, 127, 14)" d="m23,33.5a3,3 0 1 1 -3,-3a3,3 0 0 1 3,3z" class="scatterpts"/>
       </g>
      </g>
      <rect id="svg_319" fill="rgb(0, 0, 0)" fill-opacity="0" width="112.981445" height="19" y="24" x="0" class="legendtoggle"/>
      <g id="svg_191" class="legendtext-math-group">
       <svg id="svg_320" width="10.727ex" y="27.645477" x="40" preserveAspectRatio="xMinYMin meet" height="2.182ex" class="legendtext-math" viewBox="0 -688.7742397004789 4655 916.5484794009578" xmlns:xlink="http://www.w3.org/1999/xlink">
        <defs>
         <path d="m366,683q1,0 72,5t73,6q12,0 12,-8q0,-7 -73,-302t-75,-301t-1,-15q0,-42 28,-42q9,1 20,9q21,20 41,96q6,20 10,21q2,1 10,1l4,0l4,0q15,0 15,-8q0,-5 -3,-16q-13,-50 -30,-81t-28,-40t-28,-16q-8,-2 -24,-2q-34,0 -57,15t-30,31l-6,15q-1,1 -4,-1q-2,-2 -4,-4q-59,-56 -120,-56q-55,0 -97,40t-42,127q0,48 20,98t48,86q47,57 94,79t85,22q56,0 84,-42q5,-6 5,-4q1,4 27,109t28,111q0,13 -7,16t-39,5l-21,0q-6,6 -6,8t2,19q5,19 13,19zm-14,-357q-23,79 -75,79q-35,0 -67,-31t-50,-81q-29,-79 -41,-164q0,-3 0,-11t-1,-12q0,-45 18,-62t43,-18q54,0 111,72l8,11l54,217z" stroke-width="10" id="svg_190"/>
         <path d="m184,-11q-68,0 -110,45t-43,113q0,100 73,186t170,97q1,1 140,1l138,0q1,-1 3,-2t4,-2t3,-2t3,-3t2,-2t2,-4t1,-4t1,-5t1,-6q0,-44 -65,-44q-7,0 -17,0t-14,1l-60,0l5,-10q18,-38 18,-85q0,-110 -80,-192t-175,-82zm177,289q0,80 -85,80q-124,0 -161,-174q-1,-4 -1,-6q-8,-37 -8,-61q0,-50 25,-70t57,-21q54,0 99,47q29,30 47,80t22,80t5,45z" stroke-width="10" id="svg_189"/>
         <path d="m48,1q-17,0 -17,10q0,2 3,14q4,16 8,18t23,3q27,0 60,3q14,3 19,12q2,5 71,281t70,280q0,7 -4,7q-8,3 -53,5l-31,0q-6,6 -6,8t2,17q4,17 10,21l539,0q7,-4 7,-11q0,-5 -13,-112t-14,-110q-2,-7 -20,-7l-12,0q-7,5 -7,13q0,1 3,24t3,53q0,30 -7,49t-19,31t-37,16t-51,7t-72,1l-23,0q-82,-1 -87,-3q-5,-2 -7,-8q-1,-1 -34,-131l-32,-129l55,0q3,0 23,0t28,1t22,3t24,7t17,12q13,12 22,33t13,38t5,18q3,5 19,5l12,0q7,-5 7,-10q0,-3 -31,-131t-34,-132q-2,-7 -20,-7l-12,0q-7,6 -7,12q0,3 5,22t5,40q0,29 -20,36t-89,7l-55,0l-32,-127q-32,-124 -32,-130q0,-14 89,-14l25,0q6,-6 6,-7t-2,-20q-4,-13 -10,-19l-17,0q-41,2 -151,2q-65,0 -99,0t-38,-1z" stroke-width="10" id="svg_188"/>
         <path d="m94,250q0,69 10,131t23,107t37,88t38,67t42,52t33,34t25,21l13,0l4,0q14,0 14,-9q0,-3 -17,-21t-41,-53t-49,-86t-42,-138t-17,-193t17,-192t41,-139t49,-86t42,-53t17,-21q0,-9 -15,-9l-3,0l-13,0l-28,24q-94,85 -137,212t-43,264z" stroke-width="10" id="svg_187"/>
         <path d="m96,585q56,81 153,81q48,0 96,-26t78,-92q37,-83 37,-228q0,-155 -43,-237q-20,-42 -55,-67t-61,-31t-51,-7q-26,0 -52,6t-61,32t-55,67q-43,82 -43,237q0,174 57,265zm225,12q-30,32 -71,32q-42,0 -72,-32q-25,-26 -33,-72t-8,-192q0,-158 8,-208t36,-79q28,-30 69,-30q40,0 68,30q29,30 36,84t8,203q0,145 -8,191t-33,73z" stroke-width="10" id="svg_186"/>
         <path d="m78,60q0,24 17,42t43,18q24,0 42,-16t19,-43q0,-25 -17,-43t-43,-18t-43,17t-18,43z" stroke-width="10" id="svg_185"/>
         <path d="m213,578l-13,-5q-14,-5 -40,-10t-58,-7l-19,0l0,46l19,0q47,2 87,15t56,24t28,22q2,3 12,3q9,0 17,-6l0,-299l1,-300q7,-7 12,-9t24,-4t62,-2l26,0l0,-46l-11,0q-21,3 -159,3q-136,0 -157,-3l-12,0l0,46l26,0q22,0 38,0t25,1t16,3t8,2t6,5t6,4l0,517z" stroke-width="10" id="svg_184"/>
         <path d="m60,749l4,1q5,0 10,0l12,0l28,-24q94,-85 137,-212t43,-264q0,-68 -10,-131t-23,-107t-37,-88t-38,-67t-41,-51t-32,-33t-23,-19q-3,-3 -4,-4l-12,0q-8,0 -11,0t-5,3t-3,9q1,1 11,13q155,161 155,475t-155,475q-10,12 -11,13q0,8 5,11z" stroke-width="10" id="svg_183"/>
         <path d="m56,347q0,13 14,20l637,0q15,-8 15,-20q0,-11 -14,-19l-318,-1l-318,0q-16,5 -16,20zm0,-194q0,15 16,20l636,0q14,-10 14,-20q0,-13 -15,-20l-637,0q-14,7 -14,20z" stroke-width="10" id="svg_182"/>
         <path d="m109,429q-27,0 -43,18t-16,44q0,71 53,123t132,52q91,0 152,-56t62,-145q0,-43 -20,-82t-48,-68t-80,-74q-36,-31 -100,-92l-59,-56l76,-1q157,0 167,5q7,2 24,89l0,3l40,0l0,-3q-1,-3 -13,-91t-15,-92l0,-3l-371,0l0,19l0,12q0,7 6,15t30,35q29,32 50,56q9,10 34,37t34,37t29,33t28,34t23,30t21,32t15,29t13,32t7,30t3,33q0,63 -34,109t-97,46q-33,0 -58,-17t-35,-33t-10,-19q0,-1 5,-1q18,0 37,-14t19,-46q0,-25 -16,-42t-45,-18z" stroke-width="10" id="svg_181"/>
         <path d="m130,622q-7,7 -11,9t-16,3t-43,3l-33,0l0,46l175,0l34,0l64,0q76,0 117,-6t83,-29q95,-48 109,-131q1,-5 1,-16q0,-33 -16,-62t-38,-47t-45,-31t-39,-18l-16,-5q3,-3 11,-6q30,-16 49,-34t29,-44t14,-43t9,-56t10,-61q10,-48 24,-63t38,-15l5,0q15,0 29,16t18,55q0,11 4,14t16,4t16,-2t4,-13q0,-31 -16,-63t-44,-43q-16,-6 -42,-6q-149,6 -172,112q-2,11 -2,73t-7,83q-19,58 -76,74l-10,2l-66,1l-66,0l0,-131l1,-131q6,-10 17,-12t52,-3l33,0l0,-46l-11,0q-21,3 -142,3q-122,0 -143,-3l-11,0l0,46l33,0q42,1 51,3t19,12l0,561zm361,-123l0,10q0,18 -1,30t-9,31t-19,31t-38,22t-62,13q-2,0 -22,0t-36,1l-21,0q-45,0 -49,-9q-3,-4 -3,-136l0,-132l58,0q101,0 145,18t55,78q2,11 2,43z" stroke-width="10" id="svg_180"/>
         <path d="m28,218q0,55 20,100t50,73t65,42t66,15q53,0 91,-18t58,-50t28,-64t9,-71q0,-7 -7,-14l-282,0l0,-15q0,-148 100,-180q20,-6 44,-6q42,0 72,32q17,17 27,42l10,24q3,3 16,3l3,0q17,0 17,-10q0,-4 -3,-13q-19,-55 -63,-87t-99,-32q-95,0 -158,69t-64,160zm305,57q-11,128 -95,136l-2,0q-8,0 -16,-1t-25,-8t-29,-21t-23,-41t-16,-66l0,-7l206,0l0,8z" stroke-width="10" id="svg_179"/>
         <path d="m370,305t-21,0t-36,15t-16,38q0,23 15,38q5,5 5,6t-10,2q-26,4 -49,4q-49,0 -80,-32q-47,-47 -47,-157q0,-82 31,-129q41,-61 110,-61q41,0 66,26t36,62q2,8 5,10t16,2l14,0q6,-6 6,-9q0,-4 -4,-16t-16,-33t-29,-38t-48,-31t-69,-13q-86,0 -150,64t-65,161q0,104 65,169t151,65t120,-27t34,-64q0,-23 -17,-37l-17,-15z" stroke-width="10" id="svg_178"/>
         <path d="m28,214q0,95 65,164t157,70q90,0 155,-68t66,-165q0,-95 -64,-160t-157,-65q-97,0 -159,67t-63,157zm222,-184q122,0 122,163l0,32l0,25q0,22 -1,38t-7,38t-16,36t-31,28t-49,20q-5,1 -16,1q-30,0 -57,-12q-43,-22 -56,-61t-13,-92l0,-20q0,-96 19,-135q32,-61 105,-61z" stroke-width="10" id="svg_177"/>
         <path d="m338,431q6,-2 84,-2q57,0 81,2l5,0l0,-46l-11,0q-58,-4 -74,-40q-2,-4 -67,-173t-68,-174q-5,-9 -25,-9q-19,0 -24,9q-140,361 -141,366q-5,14 -16,17t-39,4l-24,0l0,46l6,0l8,-1q8,0 20,0t26,0t25,-1t18,-1q95,0 110,3l8,0l0,-46l-14,0q-39,-1 -42,-15q0,-4 51,-136l51,-132l91,239l0,8q0,14 -10,23t-18,11t-14,2l-4,0l0,46l7,0z" stroke-width="10" id="svg_176"/>
         <path d="m36,46l14,0q39,0 47,14l0,8q0,9 0,23t1,31t0,39t0,42q0,31 0,66t0,59l-1,23q-3,19 -14,25t-45,9l-18,0l0,23q0,23 2,23l10,1q10,1 28,2t36,2q16,1 35,2t29,3t11,1l3,0l0,-69q39,68 97,68l6,0q45,0 66,-22t21,-46q0,-21 -13,-36t-38,-15q-25,0 -37,16t-13,34q0,9 2,16t5,12t3,5q-2,2 -23,-4q-16,-8 -24,-15q-47,-45 -47,-179l0,-53q0,-13 0,-27t0,-26t1,-20t0,-15l0,-5q1,-2 3,-4t5,-3t5,-3t7,-2t7,-1t9,-1t9,0t10,-1t10,0l31,0l0,-46l-9,0q-18,3 -127,3q-103,0 -112,-3l-8,0l0,46l16,0z" stroke-width="10" id="svg_175"/>
         <path d="m69,-66q22,0 35,-14t14,-36q0,-18 -9,-29t-18,-15q-7,-3 6,-6q7,-2 14,-2q20,0 37,9t27,21t22,32t16,31t12,32l17,43l-72,183q-20,50 -45,114q-24,61 -29,71t-16,13q-1,1 -2,1q-12,3 -44,3l-15,0l0,46l7,0l20,-1q19,0 42,-1t34,-1q7,0 20,0t29,1t29,1t24,0l9,1l8,0l0,-46l-9,0q-49,0 -47,-19l101,-254q0,1 46,115l44,114l0,9q0,15 -10,23t-18,10t-14,2l-3,0l0,46l6,0l7,0q7,0 17,0t21,-1t23,-1t17,0q55,0 81,2l5,0l0,-46l-11,0q-56,-5 -75,-40q-2,-2 -44,-110t-89,-226t-62,-140q-47,-73 -114,-73q-44,0 -69,27t-25,61q0,27 16,38t34,12z" stroke-width="10" id="svg_174"/>
         <path stroke-width="10" id="svg_173"/>
         <path d="m273,0q-18,3 -127,3q-103,0 -112,-3l-8,0l0,46l16,0q28,0 49,3q8,3 12,11q1,2 1,164l0,161l-71,0l0,46l71,0l0,66l1,67l2,10q19,65 64,94t95,36q1,0 9,0t14,1q41,-3 62,-26t21,-52q0,-23 -14,-37t-37,-14t-37,14t-14,37q0,20 18,40l-4,0q-4,1 -11,1q-28,0 -50,-21t-34,-55q-6,-20 -7,-95l0,-66l111,0l0,-46l-108,0l0,-160q0,-162 1,-164t3,-4t5,-3t5,-3t7,-2t7,-1t9,-1t9,0t10,-1t10,0l31,0l0,-46l-9,0z" stroke-width="10" id="svg_172"/>
         <path d="m21,287q1,3 2,8t5,22t10,31t15,33t20,30t26,22t33,9q29,0 51,-12t31,-22t11,-20q2,-6 3,-6t8,7q48,52 111,52l3,0q48,0 72,-41q8,-19 8,-37q0,-30 -13,-48t-26,-23t-25,-4q-20,0 -32,11t-12,29q0,48 56,64q-22,13 -36,13q-56,0 -103,-74q-10,-16 -15,-33t-34,-133q-34,-140 -39,-149q-13,-27 -43,-27q-13,0 -21,6t-11,12t-2,10q0,13 40,172t40,177q0,39 -26,39q-21,0 -36,-28t-24,-61t-11,-36q-2,-2 -16,-2l-14,0q-6,6 -6,9z" stroke-width="10" id="svg_171"/>
         <path d="m130,622q-7,7 -11,9t-16,3t-43,3l-33,0l0,46l187,0q23,0 62,0t55,1q88,0 140,-13t96,-55q57,-53 57,-127q0,-68 -51,-117t-122,-65q-22,-5 -123,-6l-94,0l0,-120q0,-119 3,-123q8,-11 67,-12l33,0l0,-46l-11,0q-21,3 -144,3q-135,0 -144,-3l-11,0l0,46l33,0q42,1 51,3t19,12l0,561zm377,-134q0,26 -1,40t-6,36t-17,33t-33,23t-53,15q-12,2 -90,2l-21,0q-49,0 -52,-9q-3,-4 -3,-145l0,-141l71,0l37,0q51,0 84,7t58,33q26,29 26,106z" stroke-width="10" id="svg_170"/>
         <path d="m41,46l14,0q39,0 47,14l0,8q0,9 0,23t0,31t1,39t0,42q0,31 0,66t-1,59l0,23q-3,19 -14,25t-45,9l-18,0l0,23q0,23 2,23l10,1q10,1 28,2t37,2q17,1 36,2t29,3t11,1l3,0l0,-40q0,-38 1,-38t5,5t12,15t19,18t29,19t38,16q20,5 51,5q15,0 28,-2t23,-6t19,-8t15,-9t11,-11t9,-11t7,-11t4,-10t3,-8l2,-5l3,4q3,4 6,8t9,11t13,13t15,13t20,12t23,10t26,7t31,3q126,0 137,-113q1,-7 1,-139l0,-86q0,-38 2,-45t11,-10q21,-3 49,-3l16,0l0,-46l-8,0l-23,1q-24,1 -51,1t-38,1q-103,0 -112,-3l-8,0l0,46l16,0q61,0 61,16q1,2 1,138q-1,135 -2,143q-6,28 -20,42t-24,17t-26,2q-45,0 -79,-34q-27,-27 -34,-55t-8,-83l0,-64l0,-60q0,-30 1,-40t3,-13t9,-6q21,-3 49,-3l16,0l0,-46l-8,0l-24,1q-23,1 -50,1t-38,1q-103,0 -112,-3l-8,0l0,46l16,0q61,0 61,16q1,2 1,138q-1,135 -2,143q-6,28 -20,42t-24,17t-26,2q-45,0 -79,-34q-27,-27 -34,-55t-8,-83l0,-64l0,-60q0,-30 1,-40t3,-13t9,-6q21,-3 49,-3l16,0l0,-46l-8,0l-23,1q-24,1 -51,1t-38,1q-103,0 -112,-3l-8,0l0,46l16,0z" stroke-width="10" id="svg_169"/>
         <path d="m137,305t-22,0t-37,15t-15,39q0,35 34,62t121,27q73,0 118,-32t60,-76q5,-14 5,-31t1,-115l0,-70q0,-48 5,-66t21,-18q15,0 20,16t5,53l0,36l40,0l0,-39q-1,-40 -3,-47q-9,-30 -35,-47t-55,-18t-47,18t-24,42l0,4l-2,-3q-2,-3 -5,-6t-8,-9t-12,-11t-15,-12t-18,-11t-22,-8t-26,-6t-31,-3q-60,0 -108,31t-48,87q0,21 7,40t27,41t48,37t78,28t110,15l14,0l0,22q0,34 -6,50q-22,71 -97,71q-18,0 -34,-1t-25,-4t-8,-3q22,-15 22,-44q0,-25 -16,-39l-17,-15zm-11,-199q0,-31 24,-55t59,-25q38,0 67,23t39,60q2,7 3,66q0,58 -1,58q-8,0 -21,-1t-45,-9t-58,-20t-46,-37t-21,-60z" stroke-width="10" id="svg_168"/>
         <path d="m41,46l14,0q39,0 47,14l0,8q0,9 0,23t0,31t1,39t0,42q0,31 0,66t-1,59l0,23q-3,19 -14,25t-45,9l-18,0l0,23q0,23 2,23l10,1q10,1 28,2t37,2q17,1 36,2t29,3t11,1l3,0l0,-40q0,-38 1,-38t5,5t12,15t19,18t29,19t38,16q20,5 51,5q114,-4 127,-113q1,-7 1,-139l0,-86q0,-38 2,-45t11,-10q21,-3 49,-3l16,0l0,-46l-8,0l-24,1q-23,1 -50,1t-38,1q-103,0 -112,-3l-8,0l0,46l16,0q61,0 61,16q1,2 1,138q-1,135 -2,143q-6,28 -20,42t-24,17t-26,2q-45,0 -79,-34q-27,-27 -34,-55t-8,-83l0,-64l0,-60q0,-30 1,-40t3,-13t9,-6q21,-3 49,-3l16,0l0,-46l-8,0l-23,1q-24,1 -51,1t-38,1q-103,0 -112,-3l-8,0l0,46l16,0z" stroke-width="10" id="svg_167"/>
         <path d="m90,368q-6,10 -14,12t-36,5l-22,0l0,46l6,0l19,-1q19,0 41,-1t32,-1q90,0 105,3l8,0l0,-46l-14,0q-38,-2 -38,-17q0,-1 44,-129l44,-126l74,215l-6,17q-10,29 -17,34q-8,5 -38,6l-20,0l0,46l6,0q6,-3 84,-3q91,0 106,3l7,0l0,-46l-9,0q-48,0 -48,-16q0,-3 14,-45t31,-90t32,-91l15,-43l41,119q42,122 42,128q0,16 -15,26t-34,12l-8,0l0,46l7,0q12,-3 95,-3q68,0 74,3l5,0l0,-46l-6,0q-1,0 -6,0t-9,-1q-47,-7 -63,-50l-60,-173q-13,-37 -31,-90q-20,-59 -25,-70t-16,-12l-8,0q-19,0 -23,7q-1,1 -49,137l-46,134q-2,-4 -95,-271q-5,-7 -23,-7l-5,0q-13,0 -18,8l-130,371z" stroke-width="10" id="svg_166"/>
         <path d="m307,-11q-73,0 -139,66l-10,-18q-2,-3 -5,-9t-6,-11t-4,-7l-5,-9l-20,-1l-20,0l0,298q0,301 -1,305q-3,19 -14,25t-45,9l-18,0l0,23q0,23 2,23l10,1q10,1 29,2t37,2q17,1 37,2t30,3t11,1l3,0l0,-151q0,-152 1,-152l3,3q3,3 9,7t15,10t21,10t26,10t32,8t37,3q78,0 138,-63t61,-163q0,-101 -64,-164t-151,-63zm-125,109q0,-1 5,-8t9,-11t10,-12t12,-12t15,-11t17,-9t21,-6t24,-3q35,0 68,20t49,67q12,35 12,99q0,75 -12,111q-27,82 -112,82q-30,0 -61,-15t-51,-43l-6,-8l0,-241z" stroke-width="10" id="svg_165"/>
         <path d="m383,58q-56,-68 -127,-68l-7,0q-125,0 -144,99q-1,7 -2,137q-1,109 -1,122t-6,21q-10,16 -60,16l-11,0l0,23q0,23 2,23l11,1q10,1 29,2t38,2q17,1 37,2t30,3t12,1l3,0l0,-181q1,-184 3,-197q3,-15 14,-24q20,-14 60,-14q26,0 47,9t32,23t20,32t12,30t4,24q0,1 0,17t1,40t0,47l0,67q0,46 -10,57t-50,13l-18,0l0,46q2,0 76,5t79,6l7,0l0,-178q0,-180 1,-183q3,-20 14,-26t45,-9l18,0l0,-46q-2,0 -75,-5t-77,-6l-7,0l0,69z" stroke-width="10" id="svg_164"/>
         <path d="m376,495q0,16 0,40t1,33q0,45 -10,56t-51,13l-18,0l0,23q0,23 2,23l10,1q10,1 29,2t37,2q17,1 37,2t30,3t11,1l3,0l0,-304q0,-306 1,-309q3,-20 14,-26t45,-9l18,0l0,-46q-2,0 -76,-5t-79,-6l-7,0l0,55l-8,-7q-58,-48 -130,-48q-77,0 -139,61t-62,165q0,100 63,163t147,64q75,0 132,-49l0,102zm-3,-153q-45,63 -113,63q-49,0 -87,-36q-27,-28 -34,-64t-8,-94q0,-56 7,-91t35,-61q30,-33 78,-33q71,0 122,77l0,239z" stroke-width="10" id="svg_163"/>
         <path d="m42,0l-2,0q-14,0 -14,11q0,4 3,16q4,14 7,16t19,3q86,3 135,52q10,10 116,126t105,118q-109,278 -114,283q-9,11 -63,12l-28,0q-6,6 -6,8t2,19q4,13 10,19l14,0q34,-2 121,-2q33,0 61,0t45,1t20,0q17,0 17,-11q0,-1 -2,-13q-4,-15 -7,-18t-16,-3q-31,-3 -54,-17l77,-194l53,59q105,113 105,125q0,18 -24,25q-5,0 -13,2q-15,0 -15,11q0,2 2,16q4,13 10,19l12,0q1,0 25,0t54,-2t41,-1q90,0 99,3l8,0q7,-7 7,-11q-2,-25 -12,-35l-16,0q-34,-1 -61,-9t-41,-17t-24,-18l-11,-9q0,1 -95,-104l-87,-96q0,-1 31,-80t65,-162t37,-86q10,-9 61,-10q35,0 35,-9q0,-2 -2,-14q-4,-16 -7,-19t-14,-3q-3,0 -33,0t-89,1q-61,0 -93,0t-35,-1q-17,0 -17,9q0,1 2,15q2,10 4,14t5,5t9,2t16,1t26,7q17,8 17,10q-1,0 -47,117l-47,118q-188,-204 -193,-215q-4,-8 -4,-12q0,-19 29,-25q1,0 6,0t6,-1q3,0 4,0t3,-1t3,-3t1,-7q0,-9 -2,-16q-3,-13 -6,-15t-15,-3q-3,0 -18,0t-42,1t-59,0q-78,0 -100,-2z" stroke-width="10" id="svg_162"/>
         <path d="m66,637q-12,0 -17,0t-10,1t-7,3t-2,6t3,17t9,18q2,1 14,1q48,-3 109,-3q123,0 141,3l10,0q6,-6 6,-9t-2,-18q-4,-13 -10,-19l-12,0q-56,0 -56,-13q0,-5 50,-147t51,-144l3,3q4,4 12,13t21,24t32,37t43,51q92,107 107,126t16,31q0,16 -32,19q-17,0 -17,10q0,2 2,14q3,15 5,18t14,4q2,0 29,-1t79,-2q27,0 56,1t33,1q17,0 17,-9q0,-4 -3,-16t-5,-14q-2,-6 -21,-6q-72,-5 -117,-50q-9,-9 -140,-163l-129,-151l-26,-104q-27,-107 -27,-112q0,-11 68,-11q16,0 21,-1t6,-10q0,-2 -2,-12q-4,-17 -6,-19t-16,-3q-5,0 -42,0t-92,1q-62,0 -94,0t-36,-1q-18,0 -18,8q0,5 3,15q1,3 2,6t1,5t1,4t2,3t3,2t5,1t6,0t9,1t13,0q39,1 51,4t18,13q3,5 29,108l25,103l-123,349q-1,1 -2,2t-2,2t-3,2t-4,2t-5,2t-8,1t-9,1t-13,1t-17,1z" stroke-width="10" id="svg_161"/>
         <path d="m52,289q7,42 54,97t116,56q35,0 64,-18t43,-45q42,63 101,63q37,0 64,-22t28,-59q0,-29 -14,-47t-27,-22t-23,-4q-19,0 -31,11t-12,29q0,46 50,63q-11,13 -40,13q-13,0 -19,-2q-38,-16 -56,-66q-60,-221 -60,-258q0,-28 16,-40t35,-12q37,0 73,33t49,81q3,10 6,11t16,2l4,0q15,0 15,-8q0,-1 -2,-11q-16,-57 -62,-101t-107,-44q-70,0 -106,63q-41,-62 -94,-62l-6,0q-49,0 -70,26t-22,55q0,32 19,52t45,20q43,0 43,-42q0,-20 -12,-35t-23,-20t-13,-5l-3,-1q0,-1 6,-4t16,-7t19,-3q36,0 62,45q9,16 23,68t28,108t16,66q5,27 5,39q0,28 -15,40t-34,12q-40,0 -75,-32t-49,-82q-2,-9 -5,-10t-16,-2l-14,0q-6,6 -6,11z" stroke-width="10" id="svg_160"/>
         <path d="m56,237t0,13t14,20l299,0l0,150l1,150q10,13 19,13q13,0 20,-15l0,-298l298,0q15,-8 15,-20t-15,-20l-298,0l0,-298q-8,-14 -18,-14l-2,0l-2,0q-12,0 -18,14l0,298l-299,0q-14,7 -14,20l0,-13z" stroke-width="10" id="svg_159"/>
         <path d="m21,287q0,14 15,48t48,71t74,36q41,0 66,-23t26,-64q-2,-19 -3,-21q0,-3 -16,-46t-33,-97t-16,-86q0,-43 14,-60t42,-18q23,0 43,11t31,23t27,33q0,1 5,20t14,59t19,74q38,150 42,157q13,27 43,27q13,0 21,-7t11,-12t2,-9q0,-13 -49,-210t-56,-216q-28,-83 -97,-132t-138,-50q-45,0 -79,22t-34,66q0,22 7,37t19,22t20,10t17,3q44,0 44,-42q0,-20 -12,-35t-23,-20t-13,-5l-3,-1q2,-5 19,-12t34,-7l8,0q17,0 26,2q33,9 61,38t43,62t23,56t8,30l-6,-4q-6,-4 -19,-11t-26,-12q-20,-5 -39,-5q-46,0 -81,22t-46,71q-1,7 -1,31q0,57 35,149t35,117q0,1 0,2q0,9 0,12t-4,7t-11,4l-4,0q-23,0 -42,-19t-30,-41t-17,-42t-8,-22q-2,-2 -16,-2l-14,0q-6,6 -6,9z" stroke-width="10" id="svg_158"/>
         <path d="m462,0q-18,3 -129,3q-116,0 -134,-3l-9,0l0,46l31,0q20,0 27,0t17,2t14,5t7,8q1,2 1,54l0,50l-259,0l0,46l151,231q153,232 155,233q2,2 21,2l18,0l6,-6l0,-460l92,0l0,-46l-92,0l0,-51q0,-41 0,-48t6,-12q8,-7 57,-8l29,0l0,-46l-9,0zm-169,211l0,334l-219,-333l109,-1l110,0z" stroke-width="10" id="svg_157"/>
         <path d="m127,463q-27,0 -42,17t-16,44q0,55 48,98t116,43q35,0 44,-1q74,-12 113,-53t40,-89q0,-52 -34,-101t-94,-71l-3,-2q0,-1 9,-3t29,-9t38,-21q82,-53 82,-140q0,-79 -62,-138t-157,-59q-80,0 -138,43t-58,109q0,28 18,45t45,18q28,0 46,-18t18,-45q0,-11 -3,-20t-7,-16t-11,-12t-12,-8t-10,-4t-8,-3l-4,-1q51,-45 124,-45q55,0 83,53q17,33 17,101l0,20q0,95 -64,127q-15,6 -61,7l-42,1l-3,2q-2,3 -2,16q0,18 8,18q28,0 58,5q34,5 62,42t28,112l0,8q0,57 -35,79q-22,14 -47,14q-32,0 -59,-11t-38,-23t-11,-12l3,0q3,-1 8,-2t10,-5t12,-7t10,-11t8,-15t3,-20q0,-22 -14,-39t-45,-18z" stroke-width="10" id="svg_156"/>
         <path d="m674,636q8,0 14,-6t6,-15t-7,-14q-1,-1 -270,-129l-266,-126l248,-118q288,-136 292,-141q3,-6 3,-11q0,-18 -18,-20l-6,0l-288,136q-290,137 -292,139q-7,5 -7,17q1,11 13,17q8,4 286,135t283,134q4,2 9,2zm-590,-754q0,10 15,20l579,0q16,-6 16,-20q0,-12 -15,-20l-581,0q-14,7 -14,20z" stroke-width="10" id="svg_155"/>
         <path d="m70,417t0,77t54,124t124,48q71,0 126,-42t55,-109q0,-30 -11,-56t-26,-42t-31,-28t-26,-18t-11,-8l14,-9q14,-10 28,-20t16,-11q75,-59 75,-149q0,-79 -58,-137t-150,-59q-90,0 -148,51t-58,126q0,108 129,180l-18,13q-21,13 -27,20q-57,49 -57,126l0,-77zm216,-31l6,4q6,4 9,6t10,7t12,10t11,12t11,13t10,16t9,17t5,20t2,22q0,43 -29,73t-67,38q-7,1 -33,1q-41,0 -77,-26t-37,-65q0,-23 13,-42t26,-29t50,-32q7,-5 11,-7l58,-38zm-36,-365q58,0 100,34t42,82q0,17 -5,32t-12,25t-22,22t-23,18t-29,19t-27,17q-14,9 -30,19t-26,17l-8,5q-6,0 -29,-17t-48,-55t-26,-82q0,-59 43,-97t100,-39z" stroke-width="10" id="svg_154"/>
        </defs>
        <!--g id="svg_321" transform="matrix(1 0 0 -1 0 0)" stroke-width="0" fill="rgb(68, 68, 68)" stroke="rgb(68, 68, 68)">
         <use id="svg_322" xlink:href="#svg_83"/>
         <use id="svg_323" y="0" x="799" xlink:href="#svg_82"/>
         <use id="svg_324" y="0" x="1804" xlink:href="#svg_81"/>
         <use id="svg_325" y="0" x="2309" xlink:href="#svg_80"/>
         <use id="svg_326" y="0" x="3089" xlink:href="#svg_79"/>
         <use id="svg_327" y="0" x="4150" xlink:href="#svg_78"/>
        </g-->
       </svg>
      </g>
     </g>
    </svg>
   </g>
  </g>
 </g>
</svg>
