<?xml version="1.0"?>
<svg width="766" height="411" xmlns="http://www.w3.org/2000/svg" xmlns:svg="http://www.w3.org/2000/svg" class="main-svg">
 <defs>
  <g id="svg_3" class="clips">
   <clipPath id="clipcc8d1ex" class="axesclip">
    <rect id="svg_4" height="411" width="766" y="0" x="0"/>
   </clipPath>
   <clipPath id="clipcc8d1ey" class="axesclip">
    <rect id="svg_5" height="411" width="766" y="0" x="0"/>
   </clipPath>
   <clipPath id="clipcc8d1exy" class="axesclip">
    <rect id="svg_6" height="411" width="766" y="0" x="0"/>
   </clipPath>
  </g>
 </defs>
 <g>
  <title>Layer 1</title>
  <rect id="svg_7" fill="rgb(0, 0, 0)" fill-opacity="0" height="411" width="766" y="0" x="0"/>
  <g id="svg_8" class="draglayer">
   <g id="svg_9"/>
  </g>
  <g id="svg_10" class="subplot xy">
   <rect id="svg_11" stroke-width="0px" fill="rgb(0, 0, 0)" fill-opacity="0" height="411" width="766" y="0" x="0"/>
   <g id="svg_12">
    <path id="svg_13" stroke="rgb(238, 238, 238)" stroke-width="1px" d="m44.549999,0l0,411" class="xgrid crisp"/>
    <path id="svg_14" stroke="rgb(238, 238, 238)" stroke-width="1px" d="m134.800003,0l0,411" class="xgrid crisp"/>
    <path id="svg_15" stroke="rgb(238, 238, 238)" stroke-width="1px" d="m315.309998,0l0,411" class="xgrid crisp"/>
    <path id="svg_16" stroke="rgb(238, 238, 238)" stroke-width="1px" d="m405.559998,0l0,411" class="xgrid crisp"/>
    <path id="svg_17" stroke="rgb(238, 238, 238)" stroke-width="1px" d="m495.820007,0l0,411" class="xgrid crisp"/>
    <path id="svg_18" stroke="rgb(238, 238, 238)" stroke-width="1px" d="m586.070007,0l0,411" class="xgrid crisp"/>
    <path id="svg_19" stroke="rgb(238, 238, 238)" stroke-width="1px" d="m676.320007,0l0,411" class="xgrid crisp"/>
    <path id="svg_20" stroke="rgb(238, 238, 238)" stroke-width="1px" d="m0,351.859985l766,0" class="ygrid crisp"/>
    <path id="svg_21" stroke="rgb(238, 238, 238)" stroke-width="1px" d="m0,197.490005l766,0" class="ygrid crisp"/>
    <path id="svg_22" stroke="rgb(238, 238, 238)" stroke-width="1px" d="m0,120.309998l766,0" class="ygrid crisp"/>
    <path id="svg_23" stroke="rgb(238, 238, 238)" stroke-width="1px" d="m0,43.119999l766,0" class="ygrid crisp"/>
   </g>
   <g id="svg_24"/>
   <g id="svg_25">
    <path id="svg_26" stroke="rgb(68, 68, 68)" stroke-width="1px" d="m225.059998,0l0,411" class="xzl zl crisp"/>
    <path id="svg_27" stroke="rgb(68, 68, 68)" stroke-width="1px" d="m0,274.670013l766,0" class="yzl zl crisp"/>
   </g>
   <g id="svg_28"/>
   <g id="svg_1">
    <svg id="svg_29" viewBox="0 0 766 411" height="411" width="766" y="0" x="0" preserveAspectRatio="none">
     <g id="svg_30" class="maplayer"/>
     <g id="svg_31" class="barlayer"/>
     <g id="svg_32" class="errorlayer">
      <g id="svg_33" class="errorbars"/>
      <g id="svg_34" class="errorbars"/>
     </g>
     <g id="svg_35" class="boxlayer"/>
     <g id="svg_36" class="scatterlayer">
      <g id="svg_37" stroke-miterlimit="2" class="trace scatter">
       <path id="svg_38" fill="none" stroke="rgb(31, 119, 180)" stroke-width="4px" d="m44.549999,263.869995l45.130001,4.709991l45.120003,2.720001l135.37999,4.900024l45.130005,1.269989l45.130005,0.369995l45.119995,-1.619995l45.130005,-5.130005l45.130005,-10.600006l45.119995,-18.439987l45.130005,-29.12001l45.130005,-43.049988l45.119995,-60.670006l45.130005,-82.41" class="js-line"/>
       <g id="svg_39" class="points">
        <path id="svg_40" stroke-width="0px" fill="rgb(31, 119, 180)" d="m49.549999,263.869995a5,5 0 1 1 -5,-5a5,5 0 0 1 5,5z" class="point"/>
        <path id="svg_41" stroke-width="0px" fill="rgb(31, 119, 180)" d="m94.68,268.579987a5,5 0 1 1 -5,-5a5,5 0 0 1 5,5z" class="point"/>
        <path id="svg_42" stroke-width="0px" fill="rgb(31, 119, 180)" d="m139.800003,271.299988a5,5 0 1 1 -5,-5a5,5 0 0 1 5,5z" class="point"/>
        <path id="svg_43" stroke-width="0px" fill="rgb(31, 119, 180)" d="m184.929993,273.109985a5,5 0 1 1 -5,-5a5,5 0 0 1 5,5z" class="point"/>
        <path id="svg_44" stroke-width="0px" fill="rgb(31, 119, 180)" d="m230.059998,274.670013a5,5 0 1 1 -5,-5a5,5 0 0 1 5,5z" class="point"/>
        <path id="svg_45" stroke-width="0px" fill="rgb(31, 119, 180)" d="m275.179993,276.200012a5,5 0 1 1 -5,-5a5,5 0 0 1 5,5z" class="point"/>
        <path id="svg_46" stroke-width="0px" fill="rgb(31, 119, 180)" d="m320.309998,277.470001a5,5 0 1 1 -5,-5a5,5 0 0 1 5,5z" class="point"/>
        <path id="svg_47" stroke-width="0px" fill="rgb(31, 119, 180)" d="m365.440002,277.839996a5,5 0 1 1 -5,-5a5,5 0 0 1 5,5z" class="point"/>
        <path id="svg_48" stroke-width="0px" fill="rgb(31, 119, 180)" d="m410.559998,276.220001a5,5 0 1 1 -5,-5a5,5 0 0 1 5,5z" class="point"/>
        <path id="svg_49" stroke-width="0px" fill="rgb(31, 119, 180)" d="m455.690002,271.089996a5,5 0 1 1 -5,-5a5,5 0 0 1 5,5z" class="point"/>
        <path id="svg_50" stroke-width="0px" fill="rgb(31, 119, 180)" d="m500.820007,260.48999a5,5 0 1 1 -5,-5a5,5 0 0 1 5,5z" class="point"/>
        <path id="svg_51" stroke-width="0px" fill="rgb(31, 119, 180)" d="m545.940002,242.050003a5,5 0 1 1 -5,-5a5,5 0 0 1 5,5z" class="point"/>
        <path id="svg_52" stroke-width="0px" fill="rgb(31, 119, 180)" d="m591.070007,212.929993a5,5 0 1 1 -5,-5a5,5 0 0 1 5,5z" class="point"/>
        <path id="svg_53" stroke-width="0px" fill="rgb(31, 119, 180)" d="m636.200012,169.880005a5,5 0 1 1 -5,-5a5,5 0 0 1 5,5z" class="point"/>
        <path id="svg_54" stroke-width="0px" fill="rgb(31, 119, 180)" d="m681.320007,109.209999a5,5 0 1 1 -5,-5a5,5 0 0 1 5,5z" class="point"/>
        <path id="svg_55" stroke-width="0px" fill="rgb(31, 119, 180)" d="m726.450012,26.799999a5,5 0 1 1 -5,-5a5,5 0 0 1 5,5z" class="point"/>
       </g>
      </g>
      <g id="svg_56" stroke-miterlimit="2" class="trace scatter">
       <path id="svg_57" fill="none" stroke="rgb(255, 127, 14)" stroke-dasharray="4px, 4px" stroke-width="4px" d="m360.440002,390.450012l361.01001,-284.040009" class="js-line"/>
      </g>
     </g>
    </svg>
   </g>
   <g id="svg_58"/>
   <path id="svg_59" fill="none" stroke-width="1px" stroke="rgb(0, 0, 0)" stroke-opacity="0" d="m-1,411.5l768,0" class="crisp"/>
   <path id="svg_60" fill="none" stroke="rgb(0, 0, 0)" stroke-opacity="0" stroke-width="1px" d="m-0.5,-1l0,412" class="crisp"/>
   <g id="svg_61"/>
   <g id="svg_62">
    <g id="svg_63" class="xtick">
     <text id="svg_64" font-family="&#x27;Open sans', verdana, arial, sans-serif" font-size="12px" fill="rgb(68, 68, 68)" y="425" x="44.549999" text-anchor="middle">−1</text>
    </g>
    <g id="svg_65" class="xtick">
     <text id="svg_66" font-family="&#x27;Open sans', verdana, arial, sans-serif" font-size="12px" fill="rgb(68, 68, 68)" y="425" x="134.800003" text-anchor="middle">−0.5</text>
    </g>
    <g id="svg_67" class="xtick">
     <text id="svg_68" font-family="&#x27;Open sans', verdana, arial, sans-serif" font-size="12px" fill="rgb(68, 68, 68)" y="425" x="225.059998" text-anchor="middle">0</text>
    </g>
    <g id="svg_69" class="xtick">
     <text id="svg_70" font-family="&#x27;Open sans', verdana, arial, sans-serif" font-size="12px" fill="rgb(68, 68, 68)" y="425" x="315.309998" text-anchor="middle">0.5</text>
    </g>
    <g id="svg_71" class="xtick">
     <text id="svg_72" font-family="&#x27;Open sans', verdana, arial, sans-serif" font-size="12px" fill="rgb(68, 68, 68)" y="425" x="405.559998" text-anchor="middle">1</text>
    </g>
    <g id="svg_73" class="xtick">
     <text id="svg_74" font-family="&#x27;Open sans', verdana, arial, sans-serif" font-size="12px" fill="rgb(68, 68, 68)" y="425" x="495.820007" text-anchor="middle">1.5</text>
    </g>
    <g id="svg_75" class="xtick">
     <text id="svg_76" font-family="&#x27;Open sans', verdana, arial, sans-serif" font-size="12px" fill="rgb(68, 68, 68)" y="425" x="586.070007" text-anchor="middle">2</text>
    </g>
    <g id="svg_77" class="xtick">
     <text id="svg_78" font-family="&#x27;Open sans', verdana, arial, sans-serif" font-size="12px" fill="rgb(68, 68, 68)" y="425" x="676.320007" text-anchor="middle">2.5</text>
    </g>
   </g>
   <g id="svg_79">
    <g id="svg_80" class="ytick">
     <text id="svg_81" font-family="&#x27;Open sans', verdana, arial, sans-serif" font-size="12px" fill="rgb(68, 68, 68)" y="357.859985" x="-2" text-anchor="end">−50</text>
    </g>
    <g id="svg_82" class="ytick">
     <text id="svg_83" font-family="&#x27;Open sans', verdana, arial, sans-serif" font-size="12px" fill="rgb(68, 68, 68)" y="280.670013" x="-2" text-anchor="end">0</text>
    </g>
    <g id="svg_84" class="ytick">
     <text id="svg_85" font-family="&#x27;Open sans', verdana, arial, sans-serif" font-size="12px" fill="rgb(68, 68, 68)" y="203.490005" x="-2" text-anchor="end">50</text>
    </g>
    <g id="svg_86" class="ytick">
     <text id="svg_87" font-family="&#x27;Open sans', verdana, arial, sans-serif" font-size="12px" fill="rgb(68, 68, 68)" y="126.309998" x="-2" text-anchor="end">100</text>
    </g>
    <g id="svg_88" class="ytick">
     <text id="svg_89" font-family="&#x27;Open sans', verdana, arial, sans-serif" font-size="12px" fill="rgb(68, 68, 68)" y="49.119999" x="-2" text-anchor="end">150</text>
    </g>
   </g>
   <g id="svg_90"/>
  </g>
  <g id="svg_91" class="shapelayer"/>
  <g id="svg_92" class="glimages"/>
  <text id="svg_93" font-family="&#x27;Open Sans', Arial, sans-serif" font-size="12px" fill="rgb(68, 68, 68)" x="759" text-anchor="end" y="402" class="js-plot-link-container"/>
  <g id="svg_94" class="infolayer">
   <g id="svg_95" class="g-gtitle"/>
   <g id="svg_96" class="g-xtitle"/>
   <g id="svg_97" class="g-ytitle"/>
   <g id="svg_98" class="annotation">
    <g id="svg_2" class="annotation-text-g">
     <svg id="svg_99" height="42" width="22" y="169" x="568">
      <rect id="svg_100" stroke-width="1px" stroke="rgb(0, 0, 0)" stroke-opacity="0" fill="rgb(0, 0, 0)" fill-opacity="0" height="41" width="21" y="0.5" x="0.5" class="bg"/>
      <text id="svg_101" font-family="&#x27;Droid Sans', sans-serif" font-size="32px" fill="rgb(68, 68, 68)" y="32" x="11.21875" text-anchor="middle" class="annotation">P</text>
     </svg>
    </g>
   </g>
  </g>
 </g>
</svg>