<?xml version="1.0"?>
<svg width="766" height="454" xmlns="http://www.w3.org/2000/svg" xmlns:svg="http://www.w3.org/2000/svg" class="main-svg">
 <defs>
  <g id="svg_3" class="clips">
   <clipPath id="clip353c61x" class="axesclip">
    <rect id="svg_4" height="454" width="766" y="0" x="0"/>
   </clipPath>
   <clipPath id="clip353c61y" class="axesclip">
    <rect id="svg_5" height="454" width="766" y="0" x="0"/>
   </clipPath>
   <clipPath id="clip353c61xy" class="axesclip">
    <rect id="svg_6" height="454" width="766" y="0" x="0"/>
   </clipPath>
  </g>
 </defs>
 <g>
  <title>Layer 1</title>
  <rect id="svg_7" fill="rgb(0, 0, 0)" fill-opacity="0" height="454" width="766" y="0" x="0"/>
  <g id="svg_8" class="draglayer">
   <g id="svg_9"/>
  </g>
  <g id="svg_10" class="subplot xy">
   <rect id="svg_11" stroke-width="0px" fill="rgb(0, 0, 0)" fill-opacity="0" height="454" width="766" y="0" x="0"/>
   <g id="svg_12">
    <path id="svg_13" stroke="rgb(238, 238, 238)" stroke-width="1px" d="m44.549999,0l0,454" class="xgrid crisp"/>
    <path id="svg_14" stroke="rgb(238, 238, 238)" stroke-width="1px" d="m134.800003,0l0,454" class="xgrid crisp"/>
    <path id="svg_15" stroke="rgb(238, 238, 238)" stroke-width="1px" d="m315.309998,0l0,454" class="xgrid crisp"/>
    <path id="svg_16" stroke="rgb(238, 238, 238)" stroke-width="1px" d="m405.559998,0l0,454" class="xgrid crisp"/>
    <path id="svg_17" stroke="rgb(238, 238, 238)" stroke-width="1px" d="m495.820007,0l0,454" class="xgrid crisp"/>
    <path id="svg_18" stroke="rgb(238, 238, 238)" stroke-width="1px" d="m586.070007,0l0,454" class="xgrid crisp"/>
    <path id="svg_19" stroke="rgb(238, 238, 238)" stroke-width="1px" d="m676.320007,0l0,454" class="xgrid crisp"/>
    <path id="svg_20" stroke="rgb(238, 238, 238)" stroke-width="1px" d="m0,275.329987l766,0" class="ygrid crisp"/>
    <path id="svg_21" stroke="rgb(238, 238, 238)" stroke-width="1px" d="m0,163.919998l766,0" class="ygrid crisp"/>
    <path id="svg_22" stroke="rgb(238, 238, 238)" stroke-width="1px" d="m0,52.509998l766,0" class="ygrid crisp"/>
   </g>
   <g id="svg_23"/>
   <g id="svg_24">
    <path id="svg_25" stroke="rgb(68, 68, 68)" stroke-width="1px" d="m225.059998,0l0,454" class="xzl zl crisp"/>
    <path id="svg_26" stroke="rgb(68, 68, 68)" stroke-width="1px" d="m0,386.73999l766,0" class="yzl zl crisp"/>
   </g>
   <g id="svg_27"/>
   <g id="svg_1">
    <svg id="svg_28" viewBox="0 0 766 454" height="454" width="766" y="0" x="0" preserveAspectRatio="none">
     <g id="svg_29" class="maplayer"/>
     <g id="svg_30" class="barlayer"/>
     <g id="svg_31" class="errorlayer">
      <g id="svg_32" class="errorbars"/>
      <g id="svg_33" class="errorbars"/>
     </g>
     <g id="svg_34" class="boxlayer"/>
     <g id="svg_35" class="scatterlayer">
      <g id="svg_36" stroke-miterlimit="2" class="trace scatter">
       <path id="svg_37" fill="none" stroke="rgb(31, 119, 180)" stroke-width="4px" d="m44.549999,371.140015l45.130001,6.799988l45.120003,3.919983l135.37999,7.080017l45.130005,1.839996l45.130005,0.529999l45.119995,-2.350006l45.130005,-7.399994l45.130005,-15.290009l45.119995,-26.629974l45.130005,-42.030029l45.130005,-62.139984l45.119995,-87.570007l45.130005,-118.949993" class="js-line"/>
       <g id="svg_38" class="points">
        <path id="svg_39" stroke-width="0px" fill="rgb(31, 119, 180)" d="m49.549999,371.140015a5,5 0 1 1 -5,-5a5,5 0 0 1 5,5z" class="point"/>
        <path id="svg_40" stroke-width="0px" fill="rgb(31, 119, 180)" d="m94.68,377.940002a5,5 0 1 1 -5,-5a5,5 0 0 1 5,5z" class="point"/>
        <path id="svg_41" stroke-width="0px" fill="rgb(31, 119, 180)" d="m139.800003,381.859985a5,5 0 1 1 -5,-5a5,5 0 0 1 5,5z" class="point"/>
        <path id="svg_42" stroke-width="0px" fill="rgb(31, 119, 180)" d="m184.929993,384.480011a5,5 0 1 1 -5,-5a5,5 0 0 1 5,5z" class="point"/>
        <path id="svg_43" stroke-width="0px" fill="rgb(31, 119, 180)" d="m230.059998,386.73999a5,5 0 1 1 -5,-5a5,5 0 0 1 5,5z" class="point"/>
        <path id="svg_44" stroke-width="0px" fill="rgb(31, 119, 180)" d="m275.179993,388.940002a5,5 0 1 1 -5,-5a5,5 0 0 1 5,5z" class="point"/>
        <path id="svg_45" stroke-width="0px" fill="rgb(31, 119, 180)" d="m320.309998,390.779999a5,5 0 1 1 -5,-5a5,5 0 0 1 5,5z" class="point"/>
        <path id="svg_46" stroke-width="0px" fill="rgb(31, 119, 180)" d="m365.440002,391.309998a5,5 0 1 1 -5,-5a5,5 0 0 1 5,5z" class="point"/>
        <path id="svg_47" stroke-width="0px" fill="rgb(31, 119, 180)" d="m410.559998,388.959991a5,5 0 1 1 -5,-5a5,5 0 0 1 5,5z" class="point"/>
        <path id="svg_48" stroke-width="0px" fill="rgb(31, 119, 180)" d="m455.690002,381.559998a5,5 0 1 1 -5,-5a5,5 0 0 1 5,5z" class="point"/>
        <path id="svg_49" stroke-width="0px" fill="rgb(31, 119, 180)" d="m500.820007,366.269989a5,5 0 1 1 -5,-5a5,5 0 0 1 5,5z" class="point"/>
        <path id="svg_50" stroke-width="0px" fill="rgb(31, 119, 180)" d="m545.940002,339.640015a5,5 0 1 1 -5,-5a5,5 0 0 1 5,5z" class="point"/>
        <path id="svg_51" stroke-width="0px" fill="rgb(31, 119, 180)" d="m591.070007,297.609985a5,5 0 1 1 -5,-5a5,5 0 0 1 5,5z" class="point"/>
        <path id="svg_52" stroke-width="0px" fill="rgb(31, 119, 180)" d="m636.200012,235.470001a5,5 0 1 1 -5,-5a5,5 0 0 1 5,5z" class="point"/>
        <path id="svg_53" stroke-width="0px" fill="rgb(31, 119, 180)" d="m681.320007,147.899994a5,5 0 1 1 -5,-5a5,5 0 0 1 5,5z" class="point"/>
        <path id="svg_54" stroke-width="0px" fill="rgb(31, 119, 180)" d="m726.450012,28.950001a5,5 0 1 1 -5,-5a5,5 0 0 1 5,5z" class="point"/>
       </g>
      </g>
      <g id="svg_55" stroke-miterlimit="2" class="trace scatter">
       <path id="svg_56" fill="none" stroke="rgb(255, 127, 14)" stroke-dasharray="4px, 4px" stroke-width="4px" d="m44.549999,431.299988l676.900013,-167.109985" class="js-line"/>
      </g>
     </g>
    </svg>
   </g>
   <g id="svg_57"/>
   <path id="svg_58" fill="none" stroke-width="1px" stroke="rgb(0, 0, 0)" stroke-opacity="0" d="m-1,454.5l768,0" class="crisp"/>
   <path id="svg_59" fill="none" stroke="rgb(0, 0, 0)" stroke-opacity="0" stroke-width="1px" d="m-0.5,-1l0,455" class="crisp"/>
   <g id="svg_60"/>
   <g id="svg_61">
    <g id="svg_62" class="xtick">
     <text id="svg_63" font-family="&#x27;Open sans', verdana, arial, sans-serif" font-size="12px" fill="rgb(68, 68, 68)" y="468" x="44.549999" text-anchor="middle">−1</text>
    </g>
    <g id="svg_64" class="xtick">
     <text id="svg_65" font-family="&#x27;Open sans', verdana, arial, sans-serif" font-size="12px" fill="rgb(68, 68, 68)" y="468" x="134.800003" text-anchor="middle">−0.5</text>
    </g>
    <g id="svg_66" class="xtick">
     <text id="svg_67" font-family="&#x27;Open sans', verdana, arial, sans-serif" font-size="12px" fill="rgb(68, 68, 68)" y="468" x="225.059998" text-anchor="middle">0</text>
    </g>
    <g id="svg_68" class="xtick">
     <text id="svg_69" font-family="&#x27;Open sans', verdana, arial, sans-serif" font-size="12px" fill="rgb(68, 68, 68)" y="468" x="315.309998" text-anchor="middle">0.5</text>
    </g>
    <g id="svg_70" class="xtick">
     <text id="svg_71" font-family="&#x27;Open sans', verdana, arial, sans-serif" font-size="12px" fill="rgb(68, 68, 68)" y="468" x="405.559998" text-anchor="middle">1</text>
    </g>
    <g id="svg_72" class="xtick">
     <text id="svg_73" font-family="&#x27;Open sans', verdana, arial, sans-serif" font-size="12px" fill="rgb(68, 68, 68)" y="468" x="495.820007" text-anchor="middle">1.5</text>
    </g>
    <g id="svg_74" class="xtick">
     <text id="svg_75" font-family="&#x27;Open sans', verdana, arial, sans-serif" font-size="12px" fill="rgb(68, 68, 68)" y="468" x="586.070007" text-anchor="middle">2</text>
    </g>
    <g id="svg_76" class="xtick">
     <text id="svg_77" font-family="&#x27;Open sans', verdana, arial, sans-serif" font-size="12px" fill="rgb(68, 68, 68)" y="468" x="676.320007" text-anchor="middle">2.5</text>
    </g>
   </g>
   <g id="svg_78">
    <g id="svg_79" class="ytick">
     <text id="svg_80" font-family="&#x27;Open sans', verdana, arial, sans-serif" font-size="12px" fill="rgb(68, 68, 68)" y="392.73999" x="-2" text-anchor="end">0</text>
    </g>
    <g id="svg_81" class="ytick">
     <text id="svg_82" font-family="&#x27;Open sans', verdana, arial, sans-serif" font-size="12px" fill="rgb(68, 68, 68)" y="281.329987" x="-2" text-anchor="end">50</text>
    </g>
    <g id="svg_83" class="ytick">
     <text id="svg_84" font-family="&#x27;Open sans', verdana, arial, sans-serif" font-size="12px" fill="rgb(68, 68, 68)" y="169.919998" x="-2" text-anchor="end">100</text>
    </g>
    <g id="svg_85" class="ytick">
     <text id="svg_86" font-family="&#x27;Open sans', verdana, arial, sans-serif" font-size="12px" fill="rgb(68, 68, 68)" y="58.509998" x="-2" text-anchor="end">150</text>
    </g>
   </g>
   <g id="svg_87"/>
  </g>
  <g id="svg_88" class="shapelayer"/>
  <g id="svg_89" class="glimages"/>
  <text id="svg_90" font-family="&#x27;Open Sans', Arial, sans-serif" font-size="12px" fill="rgb(68, 68, 68)" x="759" text-anchor="end" y="445" class="js-plot-link-container"/>
  <g id="svg_91" class="infolayer">
   <g id="svg_92" class="g-gtitle"/>
   <g id="svg_93" class="g-xtitle"/>
   <g id="svg_94" class="g-ytitle"/>
   <g id="svg_95" class="annotation">
    <g id="svg_2" class="annotation-text-g">
     <svg id="svg_96" height="42" width="22" y="254" x="570">
      <rect id="svg_97" stroke-width="1px" stroke="rgb(0, 0, 0)" stroke-opacity="0" fill="rgb(0, 0, 0)" fill-opacity="0" height="41" width="21" y="0.5" x="0.5" class="bg"/>
      <text id="svg_98" font-family="&#x27;Droid Sans', sans-serif" font-size="32px" fill="rgb(68, 68, 68)" y="32" x="11.21875" text-anchor="middle" class="annotation">P</text>
     </svg>
    </g>
   </g>
  </g>
 </g>
</svg>