<?xml version="1.0" encoding="UTF-8"?>
<svg width="869" height="473" xmlns="http://www.w3.org/2000/svg" xmlns:svg="http://www.w3.org/2000/svg" xmlns:xlink="http://www.w3.org/1999/xlink" class="main-svg">
 <defs>
  <g class="clips" id="svg_52">
   <clipPath class="axesclip" id="clip710b92x">
    <rect x="80" y="0" width="655" height="473" id="svg_53"/>
   </clipPath>
   <clipPath class="axesclip" id="clip710b92y">
    <rect x="0" y="100" width="869" height="293" id="svg_54"/>
   </clipPath>
   <clipPath class="axesclip" id="clip710b92xy">
    <rect x="80" y="100" width="655" height="293" id="svg_55"/>
   </clipPath>
  </g>
 </defs>
 <g>
  <title>Layer 1</title>
  <rect x="0" y="0" width="869" height="473" fill="rgb(255, 255, 255)" id="svg_56"/>
  <g class="draglayer" id="svg_57">
   <g id="svg_58"/>
  </g>
  <g class="subplot xy" id="svg_59">
   <rect x="80" y="100" width="655" height="293" fill="rgb(255, 255, 255)" stroke-width="0px" id="svg_60"/>
   <g id="svg_61">
    <path class="xgrid crisp" d="m191.279999,100l0,293" stroke-width="1px" stroke="rgb(238, 238, 238)" id="svg_62"/>
    <path class="xgrid crisp" d="m263.350006,100l0,293" stroke-width="1px" stroke="rgb(238, 238, 238)" id="svg_63"/>
    <path class="xgrid crisp" d="m335.429993,100l0,293" stroke-width="1px" stroke="rgb(238, 238, 238)" id="svg_64"/>
    <path class="xgrid crisp" d="m407.5,100l0,293" stroke-width="1px" stroke="rgb(238, 238, 238)" id="svg_65"/>
    <path class="xgrid crisp" d="m479.579987,100l0,293" stroke-width="1px" stroke="rgb(238, 238, 238)" id="svg_66"/>
    <path class="xgrid crisp" d="m551.650024,100l0,293" stroke-width="1px" stroke="rgb(238, 238, 238)" id="svg_67"/>
    <path class="xgrid crisp" d="m623.72998,100l0,293" stroke-width="1px" stroke="rgb(238, 238, 238)" id="svg_68"/>
    <path class="xgrid crisp" d="m695.799988,100l0,293" stroke-width="1px" stroke="rgb(238, 238, 238)" id="svg_69"/>
    <path class="ygrid crisp" d="m80,323.359985l655,0" stroke-width="1px" stroke="rgb(238, 238, 238)" id="svg_70"/>
    <path class="ygrid crisp" d="m80,272.119995l655,0" stroke-width="1px" stroke="rgb(238, 238, 238)" id="svg_71"/>
    <path class="ygrid crisp" d="m80,220.880005l655,0" stroke-width="1px" stroke="rgb(238, 238, 238)" id="svg_72"/>
    <path class="ygrid crisp" d="m80,169.639999l655,0" stroke-width="1px" stroke="rgb(238, 238, 238)" id="svg_73"/>
    <path class="ygrid crisp" d="m80,118.400002l655,0" stroke-width="1px" stroke="rgb(238, 238, 238)" id="svg_74"/>
   </g>
   <g id="svg_75"/>
   <g id="svg_76">
    <path class="xzl zl crisp" d="m119.199997,100l0,293" stroke-width="1px" stroke="rgb(68, 68, 68)" id="svg_77"/>
    <path class="yzl zl crisp" d="m80,374.600006l655,0" stroke-width="1px" stroke="rgb(68, 68, 68)" id="svg_78"/>
   </g>
   <g id="svg_79"/>
   <g id="svg_1">
    <svg preserveAspectRatio="none" x="80" y="100" width="655" height="293" viewBox="0 0 655 293" id="svg_22">
     <g class="maplayer" id="svg_87"/>
     <g class="barlayer" id="svg_86"/>
     <g class="errorlayer" id="svg_51">
      <g class="errorbars" id="svg_85"/>
      <g class="errorbars" id="svg_83"/>
      <g class="errorbars" id="svg_80"/>
     </g>
     <g class="boxlayer" id="svg_50"/>
     <g class="scatterlayer" id="svg_23">
      <g class="trace scatter" stroke-miterlimit="2" id="svg_41">
       <path class="js-fill" d="m39.200001,223.360001l576.599987,-204.960007l0,51.240005l-576.599987,204.960007l0,-51.240005z" fill-opacity="0.5" fill="rgb(0, 0, 0)" stroke-width="0px" id="svg_49"/>
       <path class="js-line" d="m39.200001,274.600006l576.599987,-204.960007" stroke-width="2px" stroke="rgb(31, 119, 180)" fill="none" id="svg_48"/>
       <g class="points" id="svg_42">
        <path class="point" d="m42.200001,274.600006a3,3 0 1 1 -3,-3a3,3 0 0 1 3,3z" fill="rgb(31, 119, 180)" stroke-width="0px" id="svg_47"/>
        <path class="point" d="m186.350006,223.360001a3,3 0 1 1 -3,-3a3,3 0 0 1 3,3z" fill="rgb(31, 119, 180)" stroke-width="0px" id="svg_46"/>
        <path class="point" d="m330.5,172.119995a3,3 0 1 1 -3,-3a3,3 0 0 1 3,3z" fill="rgb(31, 119, 180)" stroke-width="0px" id="svg_45"/>
        <path class="point" d="m474.649994,120.879997a3,3 0 1 1 -3,-3a3,3 0 0 1 3,3z" fill="rgb(31, 119, 180)" stroke-width="0px" id="svg_44"/>
        <path class="point" d="m618.799988,69.639999a3,3 0 1 1 -3,-3a3,3 0 0 1 3,3z" fill="rgb(31, 119, 180)" stroke-width="0px" id="svg_43"/>
       </g>
      </g>
      <g class="trace scatter" stroke-miterlimit="2" id="svg_33">
       <path class="js-line" d="m39.200001,223.360001l576.599987,-204.960007" stroke-width="2px" stroke-opacity="0" stroke="rgb(0, 0, 0)" fill="none" id="svg_40"/>
       <g class="points" id="svg_34">
        <path class="point" d="m42.200001,223.360001a3,3 0 1 1 -3,-3a3,3 0 0 1 3,3z" fill-opacity="0" fill="rgb(0, 0, 0)" stroke-width="0px" id="svg_39"/>
        <path class="point" d="m186.350006,172.119995a3,3 0 1 1 -3,-3a3,3 0 0 1 3,3z" fill-opacity="0" fill="rgb(0, 0, 0)" stroke-width="0px" id="svg_38"/>
        <path class="point" d="m330.5,120.879997a3,3 0 1 1 -3,-3a3,3 0 0 1 3,3z" fill-opacity="0" fill="rgb(0, 0, 0)" stroke-width="0px" id="svg_37"/>
        <path class="point" d="m474.649994,69.639999a3,3 0 1 1 -3,-3a3,3 0 0 1 3,3z" fill-opacity="0" fill="rgb(0, 0, 0)" stroke-width="0px" id="svg_36"/>
        <path class="point" d="m618.799988,18.4a3,3 0 1 1 -3,-3a3,3 0 0 1 3,3z" fill-opacity="0" fill="rgb(0, 0, 0)" stroke-width="0px" id="svg_35"/>
       </g>
      </g>
      <g class="trace scatter" stroke-miterlimit="2" id="svg_24">
       <path class="js-line" d="m39.200001,223.360001l576.599987,-204.960007" stroke-width="2px" stroke="rgb(255, 127, 14)" fill="none" id="svg_32"/>
       <g class="points" id="svg_25">
        <path class="point" d="m42.200001,223.360001a3,3 0 1 1 -3,-3a3,3 0 0 1 3,3z" fill="rgb(255, 127, 14)" stroke-width="0px" id="svg_30"/>
        <path class="point" d="m186.350006,172.119995a3,3 0 1 1 -3,-3a3,3 0 0 1 3,3z" fill="rgb(255, 127, 14)" stroke-width="0px" id="svg_29"/>
        <path class="point" d="m330.5,120.879997a3,3 0 1 1 -3,-3a3,3 0 0 1 3,3z" fill="rgb(255, 127, 14)" stroke-width="0px" id="svg_28"/>
        <path class="point" d="m474.649994,69.639999a3,3 0 1 1 -3,-3a3,3 0 0 1 3,3z" fill="rgb(255, 127, 14)" stroke-width="0px" id="svg_27"/>
        <path class="point" d="m618.799988,18.4a3,3 0 1 1 -3,-3a3,3 0 0 1 3,3z" fill="rgb(255, 127, 14)" stroke-width="0px" id="svg_26"/>
       </g>
      </g>
     </g>
    </svg>
   </g>
   <g id="svg_114"/>
   <path class="crisp" d="m79,393.5l657,0" stroke-opacity="0" stroke="rgb(0, 0, 0)" stroke-width="1px" fill="none" id="svg_115"/>
   <path class="crisp" d="m79.5,99l0,294" stroke-width="1px" stroke-opacity="0" stroke="rgb(0, 0, 0)" fill="none" id="svg_116"/>
   <g id="svg_117"/>
   <g id="svg_118">
    <g class="xtick" id="svg_119">
     <text text-anchor="middle" x="119.200001" y="407" fill="rgb(68, 68, 68)" font-size="12px" font-family="'Open sans', verdana, arial, sans-serif" id="svg_120">0</text>
    </g>
    <g class="xtick" id="svg_121">
     <text text-anchor="middle" x="191.279999" y="407" fill="rgb(68, 68, 68)" font-size="12px" font-family="'Open sans', verdana, arial, sans-serif" id="svg_122">0.5</text>
    </g>
    <g class="xtick" id="svg_123">
     <text text-anchor="middle" x="263.350006" y="407" fill="rgb(68, 68, 68)" font-size="12px" font-family="'Open sans', verdana, arial, sans-serif" id="svg_124">1</text>
    </g>
    <g class="xtick" id="svg_125">
     <text text-anchor="middle" x="335.429993" y="407" fill="rgb(68, 68, 68)" font-size="12px" font-family="'Open sans', verdana, arial, sans-serif" id="svg_126">1.5</text>
    </g>
    <g class="xtick" id="svg_127">
     <text text-anchor="middle" x="407.5" y="407" fill="rgb(68, 68, 68)" font-size="12px" font-family="'Open sans', verdana, arial, sans-serif" id="svg_128">2</text>
    </g>
    <g class="xtick" id="svg_129">
     <text text-anchor="middle" x="479.579987" y="407" fill="rgb(68, 68, 68)" font-size="12px" font-family="'Open sans', verdana, arial, sans-serif" id="svg_130">2.5</text>
    </g>
    <g class="xtick" id="svg_131">
     <text text-anchor="middle" x="551.649994" y="407" fill="rgb(68, 68, 68)" font-size="12px" font-family="'Open sans', verdana, arial, sans-serif" id="svg_132">3</text>
    </g>
    <g class="xtick" id="svg_133">
     <text text-anchor="middle" x="623.72998" y="407" fill="rgb(68, 68, 68)" font-size="12px" font-family="'Open sans', verdana, arial, sans-serif" id="svg_134">3.5</text>
    </g>
    <g class="xtick" id="svg_135">
     <text text-anchor="middle" x="695.799988" y="407" fill="rgb(68, 68, 68)" font-size="12px" font-family="'Open sans', verdana, arial, sans-serif" id="svg_136">4</text>
    </g>
   </g>
   <g id="svg_137">
    <g class="ytick" id="svg_138">
     <text text-anchor="end" x="78" y="380.600006" fill="rgb(68, 68, 68)" font-size="12px" font-family="'Open sans', verdana, arial, sans-serif" id="svg_139">0</text>
    </g>
    <g class="ytick" id="svg_140">
     <text text-anchor="end" x="78" y="329.360001" fill="rgb(68, 68, 68)" font-size="12px" font-family="'Open sans', verdana, arial, sans-serif" id="svg_141">1</text>
    </g>
    <g class="ytick" id="svg_142">
     <text text-anchor="end" x="78" y="278.119995" fill="rgb(68, 68, 68)" font-size="12px" font-family="'Open sans', verdana, arial, sans-serif" id="svg_143">2</text>
    </g>
    <g class="ytick" id="svg_144">
     <text text-anchor="end" x="78" y="226.879997" fill="rgb(68, 68, 68)" font-size="12px" font-family="'Open sans', verdana, arial, sans-serif" id="svg_145">3</text>
    </g>
    <g class="ytick" id="svg_146">
     <text text-anchor="end" x="78" y="175.639999" fill="rgb(68, 68, 68)" font-size="12px" font-family="'Open sans', verdana, arial, sans-serif" id="svg_147">4</text>
    </g>
    <g class="ytick" id="svg_148">
     <text text-anchor="end" x="78" y="124.4" fill="rgb(68, 68, 68)" font-size="12px" font-family="'Open sans', verdana, arial, sans-serif" id="svg_149">5</text>
    </g>
   </g>
   <g id="svg_150"/>
  </g>
  <g class="shapelayer" id="svg_151"/>
  <g class="glimages" id="svg_152"/>
  <text class="js-plot-link-container" y="464" text-anchor="end" x="862" fill="rgb(68, 68, 68)" font-size="12px" font-family="'Open Sans', Arial, sans-serif" id="svg_153"/>
  <g class="infolayer" id="svg_154">
   <g class="g-gtitle" id="svg_155"/>
   <g class="g-xtitle" id="svg_156">
    <g class="xtitle-math-group" id="svg_11">
     <svg xmlns:xlink="http://www.w3.org/1999/xlink" viewBox="0 -707.941989467833 857 732.8839789356658" class="xtitle-math" height="1.71ex" preserveAspectRatio="xMinYMin meet" x="401.310006" y="436.381639" width="2.021ex" id="svg_88">
      <defs>
       <path id="svg_91" stroke-width="10" d="m42,0l-2,0q-14,0 -14,11q0,4 3,16q4,14 7,16t19,3q86,3 135,52q10,10 116,126t105,118q-109,278 -114,283q-9,11 -63,12l-28,0q-6,6 -6,8t2,19q4,13 10,19l14,0q34,-2 121,-2q33,0 61,0t45,1t20,0q17,0 17,-11q0,-1 -2,-13q-4,-15 -7,-18t-16,-3q-31,-3 -54,-17l77,-194l53,59q105,113 105,125q0,18 -24,25q-5,0 -13,2q-15,0 -15,11q0,2 2,16q4,13 10,19l12,0q1,0 25,0t54,-2t41,-1q90,0 99,3l8,0q7,-7 7,-11q-2,-25 -12,-35l-16,0q-34,-1 -61,-9t-41,-17t-24,-18l-11,-9q0,1 -95,-104l-87,-96q0,-1 31,-80t65,-162t37,-86q10,-9 61,-10q35,0 35,-9q0,-2 -2,-14q-4,-16 -7,-19t-14,-3q-3,0 -33,0t-89,1q-61,0 -93,0t-35,-1q-17,0 -17,9q0,1 2,15q2,10 4,14t5,5t9,2t16,1t26,7q17,8 17,10q-1,0 -47,117l-47,118q-188,-204 -193,-215q-4,-8 -4,-12q0,-19 29,-25q1,0 6,0t6,-1q3,0 4,0t3,-1t3,-3t1,-7q0,-9 -2,-16q-3,-13 -6,-15t-15,-3q-3,0 -18,0t-42,1t-59,0q-78,0 -100,-2z"/>
       <path id="svg_99" stroke-width="10" d="m66,637q-12,0 -17,0t-10,1t-7,3t-2,6t3,17t9,18q2,1 14,1q48,-3 109,-3q123,0 141,3l10,0q6,-6 6,-9t-2,-18q-4,-13 -10,-19l-12,0q-56,0 -56,-13q0,-5 50,-147t51,-144l3,3q4,4 12,13t21,24t32,37t43,51q92,107 107,126t16,31q0,16 -32,19q-17,0 -17,10q0,2 2,14q3,15 5,18t14,4q2,0 29,-1t79,-2q27,0 56,1t33,1q17,0 17,-9q0,-4 -3,-16t-5,-14q-2,-6 -21,-6q-72,-5 -117,-50q-9,-9 -140,-163l-129,-151l-26,-104q-27,-107 -27,-112q0,-11 68,-11q16,0 21,-1t6,-10q0,-2 -2,-12q-4,-17 -6,-19t-16,-3q-5,0 -42,0t-92,1q-62,0 -94,0t-36,-1q-18,0 -18,8q0,5 3,15q1,3 2,6t1,5t1,4t2,3t3,2t5,1t6,0t9,1t13,0q39,1 51,4t18,13q3,5 29,108l25,103l-123,349q-1,1 -2,2t-2,2t-3,2t-4,2t-5,2t-8,1t-9,1t-13,1t-17,1z"/>
       <path id="svg_98" stroke-width="10" d="m52,289q7,42 54,97t116,56q35,0 64,-18t43,-45q42,63 101,63q37,0 64,-22t28,-59q0,-29 -14,-47t-27,-22t-23,-4q-19,0 -31,11t-12,29q0,46 50,63q-11,13 -40,13q-13,0 -19,-2q-38,-16 -56,-66q-60,-221 -60,-258q0,-28 16,-40t35,-12q37,0 73,33t49,81q3,10 6,11t16,2l4,0q15,0 15,-8q0,-1 -2,-11q-16,-57 -62,-101t-107,-44q-70,0 -106,63q-41,-62 -94,-62l-6,0q-49,0 -70,26t-22,55q0,32 19,52t45,20q43,0 43,-42q0,-20 -12,-35t-23,-20t-13,-5l-3,-1q0,-1 6,-4t16,-7t19,-3q36,0 62,45q9,16 23,68t28,108t16,66q5,27 5,39q0,28 -15,40t-34,12q-40,0 -75,-32t-49,-82q-2,-9 -5,-10t-16,-2l-14,0q-6,6 -6,11z"/>
       <path id="svg_97" stroke-width="10" d="m84,237t0,13t14,20l581,0q15,-8 15,-20t-15,-20l-581,0q-14,7 -14,20l0,-13z"/>
       <path id="svg_96" stroke-width="10" d="m21,287q0,14 15,48t48,71t74,36q41,0 66,-23t26,-64q-2,-19 -3,-21q0,-3 -16,-46t-33,-97t-16,-86q0,-43 14,-60t42,-18q23,0 43,11t31,23t27,33q0,1 5,20t14,59t19,74q38,150 42,157q13,27 43,27q13,0 21,-7t11,-12t2,-9q0,-13 -49,-210t-56,-216q-28,-83 -97,-132t-138,-50q-45,0 -79,22t-34,66q0,22 7,37t19,22t20,10t17,3q44,0 44,-42q0,-20 -12,-35t-23,-20t-13,-5l-3,-1q2,-5 19,-12t34,-7l8,0q17,0 26,2q33,9 61,38t43,62t23,56t8,30l-6,-4q-6,-4 -19,-11t-26,-12q-20,-5 -39,-5q-46,0 -81,22t-46,71q-1,7 -1,31q0,57 35,149t35,117q0,1 0,2q0,9 0,12t-4,7t-11,4l-4,0q-23,0 -42,-19t-30,-41t-17,-42t-8,-22q-2,-2 -16,-2l-14,0q-6,6 -6,9z"/>
       <path id="svg_95" stroke-width="10" d="m56,347q0,13 14,20l637,0q15,-8 15,-20q0,-11 -14,-19l-318,-1l-318,0q-16,5 -16,20zm0,-194q0,15 16,20l636,0q14,-10 14,-20q0,-13 -15,-20l-637,0q-14,7 -14,20z"/>
       <path id="svg_94" stroke-width="10" d="m213,578l-13,-5q-14,-5 -40,-10t-58,-7l-19,0l0,46l19,0q47,2 87,15t56,24t28,22q2,3 12,3q9,0 17,-6l0,-299l1,-300q7,-7 12,-9t24,-4t62,-2l26,0l0,-46l-11,0q-21,3 -159,3q-136,0 -157,-3l-12,0l0,46l26,0q22,0 38,0t25,1t16,3t8,2t6,5t6,4l0,517z"/>
       <path id="svg_93" stroke-width="10" d="m56,237t0,13t14,20l299,0l0,150l1,150q10,13 19,13q13,0 20,-15l0,-298l298,0q15,-8 15,-20t-15,-20l-298,0l0,-298q-8,-14 -18,-14l-2,0l-2,0q-12,0 -18,14l0,298l-299,0q-14,7 -14,20l0,-13z"/>
       <path id="svg_92" stroke-width="10" d="m96,585q56,81 153,81q48,0 96,-26t78,-92q37,-83 37,-228q0,-155 -43,-237q-20,-42 -55,-67t-61,-31t-51,-7q-26,0 -52,6t-61,32t-55,67q-43,82 -43,237q0,174 57,265zm225,12q-30,32 -71,32q-42,0 -72,-32q-25,-26 -33,-72t-8,-192q0,-158 8,-208t36,-79q28,-30 69,-30q40,0 68,30q29,30 36,84t8,203q0,145 -8,191t-33,73z"/>
      </defs>
      <g stroke="rgb(68, 68, 68)" fill="rgb(68, 68, 68)" stroke-width="0" transform="matrix(1 0 0 -1 0 0)" id="svg_89">
       <use xlink:href="#svg_91" id="svg_90"/>
      </g>
     </svg>
    </g>
   </g>
   <g class="g-ytitle" id="svg_160">
    <g class="ytitle-math-group" transform="rotate(-90, 36.4994, 237.882)" id="svg_21">
     <svg xmlns:xlink="http://www.w3.org/1999/xlink" viewBox="0 -707.941989467833 768 731.8839789356658" class="ytitle-math" height="1.71ex" preserveAspectRatio="xMinYMin meet" x="36.499438" y="237.882151" width="1.71ex" id="svg_100">
      <defs>
       <path id="svg_111" stroke-width="10" d="m42,0l-2,0q-14,0 -14,11q0,4 3,16q4,14 7,16t19,3q86,3 135,52q10,10 116,126t105,118q-109,278 -114,283q-9,11 -63,12l-28,0q-6,6 -6,8t2,19q4,13 10,19l14,0q34,-2 121,-2q33,0 61,0t45,1t20,0q17,0 17,-11q0,-1 -2,-13q-4,-15 -7,-18t-16,-3q-31,-3 -54,-17l77,-194l53,59q105,113 105,125q0,18 -24,25q-5,0 -13,2q-15,0 -15,11q0,2 2,16q4,13 10,19l12,0q1,0 25,0t54,-2t41,-1q90,0 99,3l8,0q7,-7 7,-11q-2,-25 -12,-35l-16,0q-34,-1 -61,-9t-41,-17t-24,-18l-11,-9q0,1 -95,-104l-87,-96q0,-1 31,-80t65,-162t37,-86q10,-9 61,-10q35,0 35,-9q0,-2 -2,-14q-4,-16 -7,-19t-14,-3q-3,0 -33,0t-89,1q-61,0 -93,0t-35,-1q-17,0 -17,9q0,1 2,15q2,10 4,14t5,5t9,2t16,1t26,7q17,8 17,10q-1,0 -47,117l-47,118q-188,-204 -193,-215q-4,-8 -4,-12q0,-19 29,-25q1,0 6,0t6,-1q3,0 4,0t3,-1t3,-3t1,-7q0,-9 -2,-16q-3,-13 -6,-15t-15,-3q-3,0 -18,0t-42,1t-59,0q-78,0 -100,-2z"/>
       <path id="svg_103" stroke-width="10" d="m66,637q-12,0 -17,0t-10,1t-7,3t-2,6t3,17t9,18q2,1 14,1q48,-3 109,-3q123,0 141,3l10,0q6,-6 6,-9t-2,-18q-4,-13 -10,-19l-12,0q-56,0 -56,-13q0,-5 50,-147t51,-144l3,3q4,4 12,13t21,24t32,37t43,51q92,107 107,126t16,31q0,16 -32,19q-17,0 -17,10q0,2 2,14q3,15 5,18t14,4q2,0 29,-1t79,-2q27,0 56,1t33,1q17,0 17,-9q0,-4 -3,-16t-5,-14q-2,-6 -21,-6q-72,-5 -117,-50q-9,-9 -140,-163l-129,-151l-26,-104q-27,-107 -27,-112q0,-11 68,-11q16,0 21,-1t6,-10q0,-2 -2,-12q-4,-17 -6,-19t-16,-3q-5,0 -42,0t-92,1q-62,0 -94,0t-36,-1q-18,0 -18,8q0,5 3,15q1,3 2,6t1,5t1,4t2,3t3,2t5,1t6,0t9,1t13,0q39,1 51,4t18,13q3,5 29,108l25,103l-123,349q-1,1 -2,2t-2,2t-3,2t-4,2t-5,2t-8,1t-9,1t-13,1t-17,1z"/>
       <path id="svg_110" stroke-width="10" d="m52,289q7,42 54,97t116,56q35,0 64,-18t43,-45q42,63 101,63q37,0 64,-22t28,-59q0,-29 -14,-47t-27,-22t-23,-4q-19,0 -31,11t-12,29q0,46 50,63q-11,13 -40,13q-13,0 -19,-2q-38,-16 -56,-66q-60,-221 -60,-258q0,-28 16,-40t35,-12q37,0 73,33t49,81q3,10 6,11t16,2l4,0q15,0 15,-8q0,-1 -2,-11q-16,-57 -62,-101t-107,-44q-70,0 -106,63q-41,-62 -94,-62l-6,0q-49,0 -70,26t-22,55q0,32 19,52t45,20q43,0 43,-42q0,-20 -12,-35t-23,-20t-13,-5l-3,-1q0,-1 6,-4t16,-7t19,-3q36,0 62,45q9,16 23,68t28,108t16,66q5,27 5,39q0,28 -15,40t-34,12q-40,0 -75,-32t-49,-82q-2,-9 -5,-10t-16,-2l-14,0q-6,6 -6,11z"/>
       <path id="svg_109" stroke-width="10" d="m84,237t0,13t14,20l581,0q15,-8 15,-20t-15,-20l-581,0q-14,7 -14,20l0,-13z"/>
       <path id="svg_108" stroke-width="10" d="m21,287q0,14 15,48t48,71t74,36q41,0 66,-23t26,-64q-2,-19 -3,-21q0,-3 -16,-46t-33,-97t-16,-86q0,-43 14,-60t42,-18q23,0 43,11t31,23t27,33q0,1 5,20t14,59t19,74q38,150 42,157q13,27 43,27q13,0 21,-7t11,-12t2,-9q0,-13 -49,-210t-56,-216q-28,-83 -97,-132t-138,-50q-45,0 -79,22t-34,66q0,22 7,37t19,22t20,10t17,3q44,0 44,-42q0,-20 -12,-35t-23,-20t-13,-5l-3,-1q2,-5 19,-12t34,-7l8,0q17,0 26,2q33,9 61,38t43,62t23,56t8,30l-6,-4q-6,-4 -19,-11t-26,-12q-20,-5 -39,-5q-46,0 -81,22t-46,71q-1,7 -1,31q0,57 35,149t35,117q0,1 0,2q0,9 0,12t-4,7t-11,4l-4,0q-23,0 -42,-19t-30,-41t-17,-42t-8,-22q-2,-2 -16,-2l-14,0q-6,6 -6,9z"/>
       <path id="svg_107" stroke-width="10" d="m56,347q0,13 14,20l637,0q15,-8 15,-20q0,-11 -14,-19l-318,-1l-318,0q-16,5 -16,20zm0,-194q0,15 16,20l636,0q14,-10 14,-20q0,-13 -15,-20l-637,0q-14,7 -14,20z"/>
       <path id="svg_106" stroke-width="10" d="m213,578l-13,-5q-14,-5 -40,-10t-58,-7l-19,0l0,46l19,0q47,2 87,15t56,24t28,22q2,3 12,3q9,0 17,-6l0,-299l1,-300q7,-7 12,-9t24,-4t62,-2l26,0l0,-46l-11,0q-21,3 -159,3q-136,0 -157,-3l-12,0l0,46l26,0q22,0 38,0t25,1t16,3t8,2t6,5t6,4l0,517z"/>
       <path id="svg_105" stroke-width="10" d="m56,237t0,13t14,20l299,0l0,150l1,150q10,13 19,13q13,0 20,-15l0,-298l298,0q15,-8 15,-20t-15,-20l-298,0l0,-298q-8,-14 -18,-14l-2,0l-2,0q-12,0 -18,14l0,298l-299,0q-14,7 -14,20l0,-13z"/>
       <path id="svg_104" stroke-width="10" d="m96,585q56,81 153,81q48,0 96,-26t78,-92q37,-83 37,-228q0,-155 -43,-237q-20,-42 -55,-67t-61,-31t-51,-7q-26,0 -52,6t-61,32t-55,67q-43,82 -43,237q0,174 57,265zm225,12q-30,32 -71,32q-42,0 -72,-32q-25,-26 -33,-72t-8,-192q0,-158 8,-208t36,-79q28,-30 69,-30q40,0 68,30q29,30 36,84t8,203q0,145 -8,191t-33,73z"/>
      </defs>
      <g stroke="rgb(68, 68, 68)" fill="rgb(68, 68, 68)" stroke-width="0" transform="matrix(1 0 0 -1 0 0)" id="svg_101">
       <use xlink:href="#svg_103" id="svg_102"/>
      </g>
     </svg>
    </g>
   </g>
   <g id="svg_31">
    <svg id="svg_112" height="48" width="109" y="100" x="748" class="legend">
     <rect id="svg_237" stroke="rgb(68, 68, 68)" fill="rgb(255, 255, 255)" stroke-width="0px" height="48" width="109" y="0" x="0" class="bg"/>
     <g id="svg_197" class="traces">
      <g id="svg_236" class="legendfill"/>
      <g id="svg_234" class="legendlines">
       <path id="svg_235" fill="none" stroke="rgb(44, 160, 44)" stroke-width="2px" d="m5,14.5l30,0" class="js-line"/>
      </g>
      <g id="svg_231" class="legendsymbols">
       <g id="svg_232" class="legendpoints">
        <path id="svg_233" stroke-width="0px" fill="rgb(44, 160, 44)" d="m23,14.5a3,3 0 1 1 -3,-3a3,3 0 0 1 3,3z" class="scatterpts"/>
       </g>
      </g>
      <rect id="svg_230" fill="rgb(0, 0, 0)" fill-opacity="0" width="103.188477" height="19" y="5" x="0" class="legendtoggle"/>
      <g id="svg_198" class="legendtext-math-group">
       <svg id="svg_238" width="11.455ex" y="8.645485" x="40" preserveAspectRatio="xMinYMin meet" height="2.182ex" class="legendtext-math" viewBox="0 -688.7742397004789 4933 916.5484794009578" xmlns:xlink="http://www.w3.org/1999/xlink">
        <defs>
         <path d="m42,0l-2,0q-14,0 -14,11q0,4 3,16q4,14 7,16t19,3q86,3 135,52q10,10 116,126t105,118q-109,278 -114,283q-9,11 -63,12l-28,0q-6,6 -6,8t2,19q4,13 10,19l14,0q34,-2 121,-2q33,0 61,0t45,1t20,0q17,0 17,-11q0,-1 -2,-13q-4,-15 -7,-18t-16,-3q-31,-3 -54,-17l77,-194l53,59q105,113 105,125q0,18 -24,25q-5,0 -13,2q-15,0 -15,11q0,2 2,16q4,13 10,19l12,0q1,0 25,0t54,-2t41,-1q90,0 99,3l8,0q7,-7 7,-11q-2,-25 -12,-35l-16,0q-34,-1 -61,-9t-41,-17t-24,-18l-11,-9q0,1 -95,-104l-87,-96q0,-1 31,-80t65,-162t37,-86q10,-9 61,-10q35,0 35,-9q0,-2 -2,-14q-4,-16 -7,-19t-14,-3q-3,0 -33,0t-89,1q-61,0 -93,0t-35,-1q-17,0 -17,9q0,1 2,15q2,10 4,14t5,5t9,2t16,1t26,7q17,8 17,10q-1,0 -47,117l-47,118q-188,-204 -193,-215q-4,-8 -4,-12q0,-19 29,-25q1,0 6,0t6,-1q3,0 4,0t3,-1t3,-3t1,-7q0,-9 -2,-16q-3,-13 -6,-15t-15,-3q-3,0 -18,0t-42,1t-59,0q-78,0 -100,-2z" stroke-width="10" id="svg_268"/>
         <path d="m66,637q-12,0 -17,0t-10,1t-7,3t-2,6t3,17t9,18q2,1 14,1q48,-3 109,-3q123,0 141,3l10,0q6,-6 6,-9t-2,-18q-4,-13 -10,-19l-12,0q-56,0 -56,-13q0,-5 50,-147t51,-144l3,3q4,4 12,13t21,24t32,37t43,51q92,107 107,126t16,31q0,16 -32,19q-17,0 -17,10q0,2 2,14q3,15 5,18t14,4q2,0 29,-1t79,-2q27,0 56,1t33,1q17,0 17,-9q0,-4 -3,-16t-5,-14q-2,-6 -21,-6q-72,-5 -117,-50q-9,-9 -140,-163l-129,-151l-26,-104q-27,-107 -27,-112q0,-11 68,-11q16,0 21,-1t6,-10q0,-2 -2,-12q-4,-17 -6,-19t-16,-3q-5,0 -42,0t-92,1q-62,0 -94,0t-36,-1q-18,0 -18,8q0,5 3,15q1,3 2,6t1,5t1,4t2,3t3,2t5,1t6,0t9,1t13,0q39,1 51,4t18,13q3,5 29,108l25,103l-123,349q-1,1 -2,2t-2,2t-3,2t-4,2t-5,2t-8,1t-9,1t-13,1t-17,1z" stroke-width="10" id="svg_267"/>
         <path d="m52,289q7,42 54,97t116,56q35,0 64,-18t43,-45q42,63 101,63q37,0 64,-22t28,-59q0,-29 -14,-47t-27,-22t-23,-4q-19,0 -31,11t-12,29q0,46 50,63q-11,13 -40,13q-13,0 -19,-2q-38,-16 -56,-66q-60,-221 -60,-258q0,-28 16,-40t35,-12q37,0 73,33t49,81q3,10 6,11t16,2l4,0q15,0 15,-8q0,-1 -2,-11q-16,-57 -62,-101t-107,-44q-70,0 -106,63q-41,-62 -94,-62l-6,0q-49,0 -70,26t-22,55q0,32 19,52t45,20q43,0 43,-42q0,-20 -12,-35t-23,-20t-13,-5l-3,-1q0,-1 6,-4t16,-7t19,-3q36,0 62,45q9,16 23,68t28,108t16,66q5,27 5,39q0,28 -15,40t-34,12q-40,0 -75,-32t-49,-82q-2,-9 -5,-10t-16,-2l-14,0q-6,6 -6,11z" stroke-width="10" id="svg_249"/>
         <path d="m56,237t0,13t14,20l299,0l0,150l1,150q10,13 19,13q13,0 20,-15l0,-298l298,0q15,-8 15,-20t-15,-20l-298,0l0,-298q-8,-14 -18,-14l-2,0l-2,0q-12,0 -18,14l0,298l-299,0q-14,7 -14,20l0,-13z" stroke-width="10" id="svg_247"/>
         <path d="m109,429q-27,0 -43,18t-16,44q0,71 53,123t132,52q91,0 152,-56t62,-145q0,-43 -20,-82t-48,-68t-80,-74q-36,-31 -100,-92l-59,-56l76,-1q157,0 167,5q7,2 24,89l0,3l40,0l0,-3q-1,-3 -13,-91t-15,-92l0,-3l-371,0l0,19l0,12q0,7 6,15t30,35q29,32 50,56q9,10 34,37t34,37t29,33t28,34t23,30t21,32t15,29t13,32t7,30t3,33q0,63 -34,109t-97,46q-33,0 -58,-17t-35,-33t-10,-19q0,-1 5,-1q18,0 37,-14t19,-46q0,-25 -16,-42t-45,-18z" stroke-width="10" id="svg_266"/>
         <path d="m21,287q0,14 15,48t48,71t74,36q41,0 66,-23t26,-64q-2,-19 -3,-21q0,-3 -16,-46t-33,-97t-16,-86q0,-43 14,-60t42,-18q23,0 43,11t31,23t27,33q0,1 5,20t14,59t19,74q38,150 42,157q13,27 43,27q13,0 21,-7t11,-12t2,-9q0,-13 -49,-210t-56,-216q-28,-83 -97,-132t-138,-50q-45,0 -79,22t-34,66q0,22 7,37t19,22t20,10t17,3q44,0 44,-42q0,-20 -12,-35t-23,-20t-13,-5l-3,-1q2,-5 19,-12t34,-7l8,0q17,0 26,2q33,9 61,38t43,62t23,56t8,30l-6,-4q-6,-4 -19,-11t-26,-12q-20,-5 -39,-5q-46,0 -81,22t-46,71q-1,7 -1,31q0,57 35,149t35,117q0,1 0,2q0,9 0,12t-4,7t-11,4l-4,0q-23,0 -42,-19t-30,-41t-17,-42t-8,-22q-2,-2 -16,-2l-14,0q-6,6 -6,9z" stroke-width="10" id="svg_245"/>
         <path d="m56,347q0,13 14,20l637,0q15,-8 15,-20q0,-11 -14,-19l-318,-1l-318,0q-16,5 -16,20zm0,-194q0,15 16,20l636,0q14,-10 14,-20q0,-13 -15,-20l-637,0q-14,7 -14,20z" stroke-width="10" id="svg_243"/>
         <path d="m42,313q0,163 81,258t180,95q69,0 99,-36t30,-80q0,-25 -14,-40t-39,-15q-23,0 -38,14t-15,39q0,44 47,53q-22,22 -62,25q-71,0 -117,-60q-47,-66 -47,-202l1,-4q5,6 8,13q41,60 107,60l4,0q46,0 81,-19q24,-14 48,-40t39,-57q21,-49 21,-107l0,-18q0,-23 -5,-43q-11,-59 -64,-115t-134,-56q-28,0 -54,8t-56,30t-51,59t-36,97t-14,141zm215,84q-30,0 -52,-17t-34,-45t-17,-57t-6,-62q0,-83 12,-119t38,-58q24,-18 53,-18q51,0 78,38q13,18 18,45t5,105q0,80 -5,107t-18,45q-27,36 -72,36z" stroke-width="10" id="svg_265"/>
         <path d="m164,157q0,-24 -16,-40t-39,-16l-7,0q46,-79 122,-79q70,0 102,60q19,33 19,128q0,103 -27,139q-26,33 -58,33l-6,0q-78,0 -118,-68q-4,-7 -7,-8t-15,-2q-17,0 -19,6q-2,4 -2,175l0,129q0,50 5,50q2,2 4,2q1,0 21,-8t55,-16t75,-8q71,0 136,28q8,4 13,4q8,0 8,-18l0,-13q-82,-97 -205,-97q-31,0 -56,6l-10,2l0,-172q19,14 30,22t36,16t51,8q81,0 137,-65t56,-154q0,-92 -64,-157t-156,-66q-81,0 -130,54t-49,122q0,24 11,38t23,18t23,4q25,0 41,-17t16,-40z" stroke-width="10" id="svg_264"/>
         <path d="m127,463q-27,0 -42,17t-16,44q0,55 48,98t116,43q35,0 44,-1q74,-12 113,-53t40,-89q0,-52 -34,-101t-94,-71l-3,-2q0,-1 9,-3t29,-9t38,-21q82,-53 82,-140q0,-79 -62,-138t-157,-59q-80,0 -138,43t-58,109q0,28 18,45t45,18q28,0 46,-18t18,-45q0,-11 -3,-20t-7,-16t-11,-12t-12,-8t-10,-4t-8,-3l-4,-1q51,-45 124,-45q55,0 83,53q17,33 17,101l0,20q0,95 -64,127q-15,6 -61,7l-42,1l-3,2q-2,3 -2,16q0,18 8,18q28,0 58,5q34,5 62,42t28,112l0,8q0,57 -35,79q-22,14 -47,14q-32,0 -59,-11t-38,-23t-11,-12l3,0q3,-1 8,-2t10,-5t12,-7t10,-11t8,-15t3,-20q0,-22 -14,-39t-45,-18z" stroke-width="10" id="svg_263"/>
         <path d="m131,289q0,32 16,65t56,61t97,27q62,0 90,-27t29,-60q0,-32 -17,-47t-38,-16q-13,0 -24,8t-12,26q0,16 9,28t17,18t13,6q1,0 1,1q0,3 -7,9t-25,11t-39,6q-48,0 -70,-26t-23,-53q0,-25 19,-35t55,-17t52,-15q66,-29 66,-96q0,-28 -11,-56t-33,-56t-63,-44t-94,-17q-77,0 -109,29t-33,68q0,39 21,56t44,17q15,0 28,-9t14,-31q0,-26 -18,-44t-31,-18q-2,-1 -3,-1t-1,-2q1,-3 8,-8t31,-13t55,-7q36,0 62,11t38,28t17,31t5,25q0,28 -21,42t-48,17t-59,15t-47,35q-17,25 -17,58z" stroke-width="10" id="svg_262"/>
         <path d="m213,578l-13,-5q-14,-5 -40,-10t-58,-7l-19,0l0,46l19,0q47,2 87,15t56,24t28,22q2,3 12,3q9,0 17,-6l0,-299l1,-300q7,-7 12,-9t24,-4t62,-2l26,0l0,-46l-11,0q-21,3 -159,3q-136,0 -157,-3l-12,0l0,46l26,0q22,0 38,0t25,1t16,3t8,2t6,5t6,4l0,517z" stroke-width="10" id="svg_261"/>
         <path d="m139,-249l-2,0q-12,0 -18,14l0,486l1,486q10,13 19,13q13,0 20,-15l0,-970q-8,-14 -18,-14l-2,0z" stroke-width="10" id="svg_260"/>
         <path d="m48,1q-17,0 -17,10q0,2 3,14q4,16 8,18t23,3q27,0 60,3q14,3 19,12q2,5 71,281t70,280q0,7 -4,7q-8,3 -53,5l-31,0q-6,6 -6,8t2,17q4,17 10,21l539,0q7,-4 7,-11q0,-5 -13,-112t-14,-110q-2,-7 -20,-7l-12,0q-7,5 -7,13q0,1 3,24t3,53q0,30 -7,49t-19,31t-37,16t-51,7t-72,1l-23,0q-82,-1 -87,-3q-5,-2 -7,-8q-1,-1 -34,-131l-32,-129l55,0q3,0 23,0t28,1t22,3t24,7t17,12q13,12 22,33t13,38t5,18q3,5 19,5l12,0q7,-5 7,-10q0,-3 -31,-131t-34,-132q-2,-7 -20,-7l-12,0q-7,6 -7,12q0,3 5,22t5,40q0,29 -20,36t-89,7l-55,0l-32,-127q-32,-124 -32,-130q0,-14 89,-14l25,0q6,-6 6,-7t-2,-20q-4,-13 -10,-19l-17,0q-41,2 -151,2q-65,0 -99,0t-38,-1z" stroke-width="10" id="svg_259"/>
         <path d="m40,437q-19,0 -19,8q0,5 16,56t34,101l17,49q5,18 13,26l468,0l90,0q32,0 38,-1t7,-9q0,-6 -17,-114t-19,-109q0,-7 -19,-7q-9,0 -12,0t-6,5l-2,3q0,6 6,45t6,61q0,35 -13,53t-55,25q-5,1 -58,2q-46,0 -58,-1t-18,-8q-1,-1 -71,-279t-70,-283q0,-12 88,-14q32,0 41,-1t9,-9q0,-5 -3,-14q-4,-18 -9,-21l-2,-1q-3,0 -7,0q-5,0 -52,1t-135,1q-129,0 -164,-2l-15,0q-6,6 -6,9t2,18q4,13 10,19l28,0l11,0q80,0 95,9q1,1 2,1q5,3 10,20t40,157q17,68 28,111q70,275 70,281q0,5 -29,5l-31,0q-67,0 -88,-6q-45,-10 -70,-41t-54,-116q-7,-22 -10,-26t-14,-4l-3,0z" stroke-width="10" id="svg_258"/>
         <path d="m94,250q0,69 10,131t23,107t37,88t38,67t42,52t33,34t25,21l13,0l4,0q14,0 14,-9q0,-3 -17,-21t-41,-53t-49,-86t-42,-138t-17,-193t17,-192t41,-139t49,-86t42,-53t17,-21q0,-9 -15,-9l-3,0l-13,0l-28,24q-94,85 -137,212t-43,264z" stroke-width="10" id="svg_257"/>
         <path d="m60,749l4,1q5,0 10,0l12,0l28,-24q94,-85 137,-212t43,-264q0,-68 -10,-131t-23,-107t-37,-88t-38,-67t-41,-51t-32,-33t-23,-19q-3,-3 -4,-4l-12,0q-8,0 -11,0t-5,3t-3,9q1,1 11,13q155,161 155,475t-155,475q-10,12 -11,13q0,8 5,11z" stroke-width="10" id="svg_256"/>
         <path d="m84,237t0,13t14,20l581,0q15,-8 15,-20t-15,-20l-581,0q-14,7 -14,20l0,-13z" stroke-width="10" id="svg_251"/>
         <path d="m83,616q0,8 6,14t10,6q8,0 154,-68t290,-137t144,-70q7,-5 7,-15t-7,-15q-2,-2 -292,-139l-288,-136l-6,0q-18,2 -18,20q0,1 0,3q-1,7 15,16q19,10 150,72q78,37 130,61l248,118l-266,126q-69,33 -160,76q-88,41 -102,49t-15,19zm1,-734q0,10 15,20l579,0q16,-6 16,-20q0,-12 -15,-20l-581,0q-14,7 -14,20z" stroke-width="10" id="svg_255"/>
         <path d="m166,673q0,12 17,21l19,0q90,-3 114,-50q6,-15 57,-158t101,-279t50,-140q7,-20 13,-33t9,-19t5,-9t4,-4t1,-4t-6,-9l-68,0q-25,14 -32,29t-51,134l-45,125l-14,-15q-13,-16 -47,-55t-57,-66q-25,-29 -62,-72q-51,-60 -63,-70t-28,-11q-36,0 -36,32q0,17 14,32t138,135q30,29 67,65t55,54l17,16q0,1 -50,140t-54,150q-20,45 -51,45q-17,0 -17,16z" stroke-width="10" id="svg_254"/>
         <path d="m21,287q1,6 3,16t12,38t20,47t33,37t46,17q36,0 60,-18t30,-34t6,-21q0,-2 1,-2l11,11q61,64 139,64q54,0 87,-27t34,-79t-38,-157t-38,-127q0,-26 17,-26q6,0 9,1q29,5 52,38t35,80q2,8 20,8q20,0 20,-8q0,-1 -4,-15q-8,-29 -22,-57t-46,-56t-69,-27q-47,0 -68,27t-21,56q0,19 36,120t37,152q0,59 -44,59l-5,0q-86,0 -145,-101l-7,-12l-33,-134q-33,-131 -38,-141q-13,-27 -43,-27q-13,0 -21,6t-11,12t-2,10q0,13 38,163t40,163q1,5 1,23q0,39 -24,39q-38,0 -63,-100q-6,-20 -6,-21q-2,-6 -19,-6l-14,0q-6,6 -6,9z" stroke-width="10" id="svg_253"/>
         <path d="m21,287q1,6 3,16t12,38t20,47t32,37t44,17t43,-7t30,-18t16,-22t8,-19l2,-7q0,-2 1,-2l11,11q60,64 141,64q17,0 31,-2t26,-7t19,-10t15,-12t10,-13t8,-13t4,-12t3,-9t2,-7l8,10q63,75 149,75q54,0 87,-27t34,-79q0,-51 -38,-158t-38,-128q1,-14 5,-19t15,-5q28,0 52,30t39,82q3,11 6,13t16,2q20,0 20,-8q0,-1 -4,-15q-8,-29 -22,-57t-46,-56t-69,-27q-47,0 -68,27t-21,56q0,19 36,120t37,152q0,59 -44,59l-5,0q-86,0 -145,-101l-7,-12l-33,-134q-33,-131 -38,-141q-13,-27 -43,-27q-13,0 -21,7t-11,12t-3,10q0,11 34,143l36,146q3,15 3,38q0,59 -44,59l-5,0q-86,0 -145,-101l-7,-12l-33,-134q-33,-131 -38,-141q-13,-27 -43,-27q-13,0 -21,6t-11,12t-2,10q0,13 38,164q39,154 39,161q3,15 3,27q0,36 -25,36q-22,0 -37,-28t-23,-61t-12,-36q-2,-2 -16,-2l-14,0q-6,6 -6,9z" stroke-width="10" id="svg_252"/>
         <path d="m96,585q56,81 153,81q48,0 96,-26t78,-92q37,-83 37,-228q0,-155 -43,-237q-20,-42 -55,-67t-61,-31t-51,-7q-26,0 -52,6t-61,32t-55,67q-43,82 -43,237q0,174 57,265zm225,12q-30,32 -71,32q-42,0 -72,-32q-25,-26 -33,-72t-8,-192q0,-158 8,-208t36,-79q28,-30 69,-30q40,0 68,30q29,30 36,84t8,203q0,145 -8,191t-33,73z" stroke-width="10" id="svg_241"/>
        </defs>
        <g id="svg_239" transform="matrix(1 0 0 -1 0 0)" stroke-width="0" fill="rgb(68, 68, 68)" stroke="rgb(68, 68, 68)">
         <use id="svg_250" xlink:href="#svg_251"/>
         <use id="svg_248" y="0" x="783" xlink:href="#svg_249"/>
         <use id="svg_246" y="0" x="1582" xlink:href="#svg_247"/>
         <use id="svg_244" y="0" x="2587" xlink:href="#svg_245"/>
         <use id="svg_242" y="0" x="3367" xlink:href="#svg_243"/>
         <use id="svg_240" y="0" x="4428" xlink:href="#svg_241"/>
        </g>
       </svg>
      </g>
     </g>
     <g id="svg_113" class="traces">
      <g id="svg_196" class="legendfill"/>
      <g id="svg_194" class="legendlines">
       <path id="svg_195" fill="none" stroke="rgb(31, 119, 180)" stroke-width="2px" d="m5,33.5l30,0" class="js-line"/>
      </g>
      <g id="svg_191" class="legendsymbols">
       <g id="svg_192" class="legendpoints">
        <path id="svg_193" stroke-width="0px" fill="rgb(31, 119, 180)" d="m23,33.5a3,3 0 1 1 -3,-3a3,3 0 0 1 3,3z" class="scatterpts"/>
       </g>
      </g>
      <rect id="svg_190" fill="rgb(0, 0, 0)" fill-opacity="0" width="103.188477" height="19" y="24" x="0" class="legendtoggle"/>
      <g id="svg_157" class="legendtext-math-group">
       <svg id="svg_269" width="11.455ex" y="27.645477" x="40" preserveAspectRatio="xMinYMin meet" height="2.182ex" class="legendtext-math" viewBox="0 -688.7742397004789 4933 916.5484794009578" xmlns:xlink="http://www.w3.org/1999/xlink">
        <defs>
         <path d="m42,0l-2,0q-14,0 -14,11q0,4 3,16q4,14 7,16t19,3q86,3 135,52q10,10 116,126t105,118q-109,278 -114,283q-9,11 -63,12l-28,0q-6,6 -6,8t2,19q4,13 10,19l14,0q34,-2 121,-2q33,0 61,0t45,1t20,0q17,0 17,-11q0,-1 -2,-13q-4,-15 -7,-18t-16,-3q-31,-3 -54,-17l77,-194l53,59q105,113 105,125q0,18 -24,25q-5,0 -13,2q-15,0 -15,11q0,2 2,16q4,13 10,19l12,0q1,0 25,0t54,-2t41,-1q90,0 99,3l8,0q7,-7 7,-11q-2,-25 -12,-35l-16,0q-34,-1 -61,-9t-41,-17t-24,-18l-11,-9q0,1 -95,-104l-87,-96q0,-1 31,-80t65,-162t37,-86q10,-9 61,-10q35,0 35,-9q0,-2 -2,-14q-4,-16 -7,-19t-14,-3q-3,0 -33,0t-89,1q-61,0 -93,0t-35,-1q-17,0 -17,9q0,1 2,15q2,10 4,14t5,5t9,2t16,1t26,7q17,8 17,10q-1,0 -47,117l-47,118q-188,-204 -193,-215q-4,-8 -4,-12q0,-19 29,-25q1,0 6,0t6,-1q3,0 4,0t3,-1t3,-3t1,-7q0,-9 -2,-16q-3,-13 -6,-15t-15,-3q-3,0 -18,0t-42,1t-59,0q-78,0 -100,-2z" stroke-width="10" id="svg_299"/>
         <path d="m66,637q-12,0 -17,0t-10,1t-7,3t-2,6t3,17t9,18q2,1 14,1q48,-3 109,-3q123,0 141,3l10,0q6,-6 6,-9t-2,-18q-4,-13 -10,-19l-12,0q-56,0 -56,-13q0,-5 50,-147t51,-144l3,3q4,4 12,13t21,24t32,37t43,51q92,107 107,126t16,31q0,16 -32,19q-17,0 -17,10q0,2 2,14q3,15 5,18t14,4q2,0 29,-1t79,-2q27,0 56,1t33,1q17,0 17,-9q0,-4 -3,-16t-5,-14q-2,-6 -21,-6q-72,-5 -117,-50q-9,-9 -140,-163l-129,-151l-26,-104q-27,-107 -27,-112q0,-11 68,-11q16,0 21,-1t6,-10q0,-2 -2,-12q-4,-17 -6,-19t-16,-3q-5,0 -42,0t-92,1q-62,0 -94,0t-36,-1q-18,0 -18,8q0,5 3,15q1,3 2,6t1,5t1,4t2,3t3,2t5,1t6,0t9,1t13,0q39,1 51,4t18,13q3,5 29,108l25,103l-123,349q-1,1 -2,2t-2,2t-3,2t-4,2t-5,2t-8,1t-9,1t-13,1t-17,1z" stroke-width="10" id="svg_298"/>
         <path d="m52,289q7,42 54,97t116,56q35,0 64,-18t43,-45q42,63 101,63q37,0 64,-22t28,-59q0,-29 -14,-47t-27,-22t-23,-4q-19,0 -31,11t-12,29q0,46 50,63q-11,13 -40,13q-13,0 -19,-2q-38,-16 -56,-66q-60,-221 -60,-258q0,-28 16,-40t35,-12q37,0 73,33t49,81q3,10 6,11t16,2l4,0q15,0 15,-8q0,-1 -2,-11q-16,-57 -62,-101t-107,-44q-70,0 -106,63q-41,-62 -94,-62l-6,0q-49,0 -70,26t-22,55q0,32 19,52t45,20q43,0 43,-42q0,-20 -12,-35t-23,-20t-13,-5l-3,-1q0,-1 6,-4t16,-7t19,-3q36,0 62,45q9,16 23,68t28,108t16,66q5,27 5,39q0,28 -15,40t-34,12q-40,0 -75,-32t-49,-82q-2,-9 -5,-10t-16,-2l-14,0q-6,6 -6,11z" stroke-width="10" id="svg_281"/>
         <path d="m56,237t0,13t14,20l299,0l0,150l1,150q10,13 19,13q13,0 20,-15l0,-298l298,0q15,-8 15,-20t-15,-20l-298,0l0,-298q-8,-14 -18,-14l-2,0l-2,0q-12,0 -18,14l0,298l-299,0q-14,7 -14,20l0,-13z" stroke-width="10" id="svg_297"/>
         <path d="m109,429q-27,0 -43,18t-16,44q0,71 53,123t132,52q91,0 152,-56t62,-145q0,-43 -20,-82t-48,-68t-80,-74q-36,-31 -100,-92l-59,-56l76,-1q157,0 167,5q7,2 24,89l0,3l40,0l0,-3q-1,-3 -13,-91t-15,-92l0,-3l-371,0l0,19l0,12q0,7 6,15t30,35q29,32 50,56q9,10 34,37t34,37t29,33t28,34t23,30t21,32t15,29t13,32t7,30t3,33q0,63 -34,109t-97,46q-33,0 -58,-17t-35,-33t-10,-19q0,-1 5,-1q18,0 37,-14t19,-46q0,-25 -16,-42t-45,-18z" stroke-width="10" id="svg_296"/>
         <path d="m21,287q0,14 15,48t48,71t74,36q41,0 66,-23t26,-64q-2,-19 -3,-21q0,-3 -16,-46t-33,-97t-16,-86q0,-43 14,-60t42,-18q23,0 43,11t31,23t27,33q0,1 5,20t14,59t19,74q38,150 42,157q13,27 43,27q13,0 21,-7t11,-12t2,-9q0,-13 -49,-210t-56,-216q-28,-83 -97,-132t-138,-50q-45,0 -79,22t-34,66q0,22 7,37t19,22t20,10t17,3q44,0 44,-42q0,-20 -12,-35t-23,-20t-13,-5l-3,-1q2,-5 19,-12t34,-7l8,0q17,0 26,2q33,9 61,38t43,62t23,56t8,30l-6,-4q-6,-4 -19,-11t-26,-12q-20,-5 -39,-5q-46,0 -81,22t-46,71q-1,7 -1,31q0,57 35,149t35,117q0,1 0,2q0,9 0,12t-4,7t-11,4l-4,0q-23,0 -42,-19t-30,-41t-17,-42t-8,-22q-2,-2 -16,-2l-14,0q-6,6 -6,9z" stroke-width="10" id="svg_278"/>
         <path d="m56,347q0,13 14,20l637,0q15,-8 15,-20q0,-11 -14,-19l-318,-1l-318,0q-16,5 -16,20zm0,-194q0,15 16,20l636,0q14,-10 14,-20q0,-13 -15,-20l-637,0q-14,7 -14,20z" stroke-width="10" id="svg_276"/>
         <path d="m42,313q0,163 81,258t180,95q69,0 99,-36t30,-80q0,-25 -14,-40t-39,-15q-23,0 -38,14t-15,39q0,44 47,53q-22,22 -62,25q-71,0 -117,-60q-47,-66 -47,-202l1,-4q5,6 8,13q41,60 107,60l4,0q46,0 81,-19q24,-14 48,-40t39,-57q21,-49 21,-107l0,-18q0,-23 -5,-43q-11,-59 -64,-115t-134,-56q-28,0 -54,8t-56,30t-51,59t-36,97t-14,141zm215,84q-30,0 -52,-17t-34,-45t-17,-57t-6,-62q0,-83 12,-119t38,-58q24,-18 53,-18q51,0 78,38q13,18 18,45t5,105q0,80 -5,107t-18,45q-27,36 -72,36z" stroke-width="10" id="svg_295"/>
         <path d="m164,157q0,-24 -16,-40t-39,-16l-7,0q46,-79 122,-79q70,0 102,60q19,33 19,128q0,103 -27,139q-26,33 -58,33l-6,0q-78,0 -118,-68q-4,-7 -7,-8t-15,-2q-17,0 -19,6q-2,4 -2,175l0,129q0,50 5,50q2,2 4,2q1,0 21,-8t55,-16t75,-8q71,0 136,28q8,4 13,4q8,0 8,-18l0,-13q-82,-97 -205,-97q-31,0 -56,6l-10,2l0,-172q19,14 30,22t36,16t51,8q81,0 137,-65t56,-154q0,-92 -64,-157t-156,-66q-81,0 -130,54t-49,122q0,24 11,38t23,18t23,4q25,0 41,-17t16,-40z" stroke-width="10" id="svg_294"/>
         <path d="m127,463q-27,0 -42,17t-16,44q0,55 48,98t116,43q35,0 44,-1q74,-12 113,-53t40,-89q0,-52 -34,-101t-94,-71l-3,-2q0,-1 9,-3t29,-9t38,-21q82,-53 82,-140q0,-79 -62,-138t-157,-59q-80,0 -138,43t-58,109q0,28 18,45t45,18q28,0 46,-18t18,-45q0,-11 -3,-20t-7,-16t-11,-12t-12,-8t-10,-4t-8,-3l-4,-1q51,-45 124,-45q55,0 83,53q17,33 17,101l0,20q0,95 -64,127q-15,6 -61,7l-42,1l-3,2q-2,3 -2,16q0,18 8,18q28,0 58,5q34,5 62,42t28,112l0,8q0,57 -35,79q-22,14 -47,14q-32,0 -59,-11t-38,-23t-11,-12l3,0q3,-1 8,-2t10,-5t12,-7t10,-11t8,-15t3,-20q0,-22 -14,-39t-45,-18z" stroke-width="10" id="svg_293"/>
         <path d="m131,289q0,32 16,65t56,61t97,27q62,0 90,-27t29,-60q0,-32 -17,-47t-38,-16q-13,0 -24,8t-12,26q0,16 9,28t17,18t13,6q1,0 1,1q0,3 -7,9t-25,11t-39,6q-48,0 -70,-26t-23,-53q0,-25 19,-35t55,-17t52,-15q66,-29 66,-96q0,-28 -11,-56t-33,-56t-63,-44t-94,-17q-77,0 -109,29t-33,68q0,39 21,56t44,17q15,0 28,-9t14,-31q0,-26 -18,-44t-31,-18q-2,-1 -3,-1t-1,-2q1,-3 8,-8t31,-13t55,-7q36,0 62,11t38,28t17,31t5,25q0,28 -21,42t-48,17t-59,15t-47,35q-17,25 -17,58z" stroke-width="10" id="svg_292"/>
         <path d="m213,578l-13,-5q-14,-5 -40,-10t-58,-7l-19,0l0,46l19,0q47,2 87,15t56,24t28,22q2,3 12,3q9,0 17,-6l0,-299l1,-300q7,-7 12,-9t24,-4t62,-2l26,0l0,-46l-11,0q-21,3 -159,3q-136,0 -157,-3l-12,0l0,46l26,0q22,0 38,0t25,1t16,3t8,2t6,5t6,4l0,517z" stroke-width="10" id="svg_272"/>
         <path d="m139,-249l-2,0q-12,0 -18,14l0,486l1,486q10,13 19,13q13,0 20,-15l0,-970q-8,-14 -18,-14l-2,0z" stroke-width="10" id="svg_291"/>
         <path d="m48,1q-17,0 -17,10q0,2 3,14q4,16 8,18t23,3q27,0 60,3q14,3 19,12q2,5 71,281t70,280q0,7 -4,7q-8,3 -53,5l-31,0q-6,6 -6,8t2,17q4,17 10,21l539,0q7,-4 7,-11q0,-5 -13,-112t-14,-110q-2,-7 -20,-7l-12,0q-7,5 -7,13q0,1 3,24t3,53q0,30 -7,49t-19,31t-37,16t-51,7t-72,1l-23,0q-82,-1 -87,-3q-5,-2 -7,-8q-1,-1 -34,-131l-32,-129l55,0q3,0 23,0t28,1t22,3t24,7t17,12q13,12 22,33t13,38t5,18q3,5 19,5l12,0q7,-5 7,-10q0,-3 -31,-131t-34,-132q-2,-7 -20,-7l-12,0q-7,6 -7,12q0,3 5,22t5,40q0,29 -20,36t-89,7l-55,0l-32,-127q-32,-124 -32,-130q0,-14 89,-14l25,0q6,-6 6,-7t-2,-20q-4,-13 -10,-19l-17,0q-41,2 -151,2q-65,0 -99,0t-38,-1z" stroke-width="10" id="svg_290"/>
         <path d="m40,437q-19,0 -19,8q0,5 16,56t34,101l17,49q5,18 13,26l468,0l90,0q32,0 38,-1t7,-9q0,-6 -17,-114t-19,-109q0,-7 -19,-7q-9,0 -12,0t-6,5l-2,3q0,6 6,45t6,61q0,35 -13,53t-55,25q-5,1 -58,2q-46,0 -58,-1t-18,-8q-1,-1 -71,-279t-70,-283q0,-12 88,-14q32,0 41,-1t9,-9q0,-5 -3,-14q-4,-18 -9,-21l-2,-1q-3,0 -7,0q-5,0 -52,1t-135,1q-129,0 -164,-2l-15,0q-6,6 -6,9t2,18q4,13 10,19l28,0l11,0q80,0 95,9q1,1 2,1q5,3 10,20t40,157q17,68 28,111q70,275 70,281q0,5 -29,5l-31,0q-67,0 -88,-6q-45,-10 -70,-41t-54,-116q-7,-22 -10,-26t-14,-4l-3,0z" stroke-width="10" id="svg_289"/>
         <path d="m94,250q0,69 10,131t23,107t37,88t38,67t42,52t33,34t25,21l13,0l4,0q14,0 14,-9q0,-3 -17,-21t-41,-53t-49,-86t-42,-138t-17,-193t17,-192t41,-139t49,-86t42,-53t17,-21q0,-9 -15,-9l-3,0l-13,0l-28,24q-94,85 -137,212t-43,264z" stroke-width="10" id="svg_288"/>
         <path d="m60,749l4,1q5,0 10,0l12,0l28,-24q94,-85 137,-212t43,-264q0,-68 -10,-131t-23,-107t-37,-88t-38,-67t-41,-51t-32,-33t-23,-19q-3,-3 -4,-4l-12,0q-8,0 -11,0t-5,3t-3,9q1,1 11,13q155,161 155,475t-155,475q-10,12 -11,13q0,8 5,11z" stroke-width="10" id="svg_287"/>
         <path d="m84,237t0,13t14,20l581,0q15,-8 15,-20t-15,-20l-581,0q-14,7 -14,20l0,-13z" stroke-width="10" id="svg_274"/>
         <path d="m83,616q0,8 6,14t10,6q8,0 154,-68t290,-137t144,-70q7,-5 7,-15t-7,-15q-2,-2 -292,-139l-288,-136l-6,0q-18,2 -18,20q0,1 0,3q-1,7 15,16q19,10 150,72q78,37 130,61l248,118l-266,126q-69,33 -160,76q-88,41 -102,49t-15,19zm1,-734q0,10 15,20l579,0q16,-6 16,-20q0,-12 -15,-20l-581,0q-14,7 -14,20z" stroke-width="10" id="svg_286"/>
         <path d="m166,673q0,12 17,21l19,0q90,-3 114,-50q6,-15 57,-158t101,-279t50,-140q7,-20 13,-33t9,-19t5,-9t4,-4t1,-4t-6,-9l-68,0q-25,14 -32,29t-51,134l-45,125l-14,-15q-13,-16 -47,-55t-57,-66q-25,-29 -62,-72q-51,-60 -63,-70t-28,-11q-36,0 -36,32q0,17 14,32t138,135q30,29 67,65t55,54l17,16q0,1 -50,140t-54,150q-20,45 -51,45q-17,0 -17,16z" stroke-width="10" id="svg_285"/>
         <path d="m21,287q1,6 3,16t12,38t20,47t33,37t46,17q36,0 60,-18t30,-34t6,-21q0,-2 1,-2l11,11q61,64 139,64q54,0 87,-27t34,-79t-38,-157t-38,-127q0,-26 17,-26q6,0 9,1q29,5 52,38t35,80q2,8 20,8q20,0 20,-8q0,-1 -4,-15q-8,-29 -22,-57t-46,-56t-69,-27q-47,0 -68,27t-21,56q0,19 36,120t37,152q0,59 -44,59l-5,0q-86,0 -145,-101l-7,-12l-33,-134q-33,-131 -38,-141q-13,-27 -43,-27q-13,0 -21,6t-11,12t-2,10q0,13 38,163t40,163q1,5 1,23q0,39 -24,39q-38,0 -63,-100q-6,-20 -6,-21q-2,-6 -19,-6l-14,0q-6,6 -6,9z" stroke-width="10" id="svg_284"/>
         <path d="m21,287q1,6 3,16t12,38t20,47t32,37t44,17t43,-7t30,-18t16,-22t8,-19l2,-7q0,-2 1,-2l11,11q60,64 141,64q17,0 31,-2t26,-7t19,-10t15,-12t10,-13t8,-13t4,-12t3,-9t2,-7l8,10q63,75 149,75q54,0 87,-27t34,-79q0,-51 -38,-158t-38,-128q1,-14 5,-19t15,-5q28,0 52,30t39,82q3,11 6,13t16,2q20,0 20,-8q0,-1 -4,-15q-8,-29 -22,-57t-46,-56t-69,-27q-47,0 -68,27t-21,56q0,19 36,120t37,152q0,59 -44,59l-5,0q-86,0 -145,-101l-7,-12l-33,-134q-33,-131 -38,-141q-13,-27 -43,-27q-13,0 -21,7t-11,12t-3,10q0,11 34,143l36,146q3,15 3,38q0,59 -44,59l-5,0q-86,0 -145,-101l-7,-12l-33,-134q-33,-131 -38,-141q-13,-27 -43,-27q-13,0 -21,6t-11,12t-2,10q0,13 38,164q39,154 39,161q3,15 3,27q0,36 -25,36q-22,0 -37,-28t-23,-61t-12,-36q-2,-2 -16,-2l-14,0q-6,6 -6,9z" stroke-width="10" id="svg_283"/>
         <path d="m96,585q56,81 153,81q48,0 96,-26t78,-92q37,-83 37,-228q0,-155 -43,-237q-20,-42 -55,-67t-61,-31t-51,-7q-26,0 -52,6t-61,32t-55,67q-43,82 -43,237q0,174 57,265zm225,12q-30,32 -71,32q-42,0 -72,-32q-25,-26 -33,-72t-8,-192q0,-158 8,-208t36,-79q28,-30 69,-30q40,0 68,30q29,30 36,84t8,203q0,145 -8,191t-33,73z" stroke-width="10" id="svg_282"/>
        </defs>
        <g id="svg_270" transform="matrix(1 0 0 -1 0 0)" stroke-width="0" fill="rgb(68, 68, 68)" stroke="rgb(68, 68, 68)">
         <use id="svg_280" xlink:href="#svg_281"/>
         <use id="svg_279" y="0" x="799" xlink:href="#svg_274"/>
         <use id="svg_277" y="0" x="1804" xlink:href="#svg_278"/>
         <use id="svg_275" y="0" x="2584" xlink:href="#svg_276"/>
         <use id="svg_273" y="0" x="3645" xlink:href="#svg_274"/>
         <use id="svg_271" y="0" x="4428" xlink:href="#svg_272"/>
        </g>
       </svg>
      </g>
     </g>
    </svg>
   </g>
  </g>
 </g>
</svg>