<?xml version="1.0" encoding="UTF-8"?>
<svg xmlns="http://www.w3.org/2000/svg" xmlns:xlink="http://www.w3.org/1999/xlink" width="159.96248pt" height="40.737534pt" viewBox="0 0 159.96248 40.737534" version="1.1">
<g id="surface1">
<path style=" stroke:none;fill-rule:nonzero;fill:rgb(0%,0%,0%);fill-opacity:1;" d="M 3.464844 14.609375 L 0.964844 14.804688 L 0.964844 15.332031 C 2.195312 15.332031 2.332031 15.449219 2.332031 16.328125 L 2.332031 25.722656 C 2.332031 26.523438 2.136719 26.523438 0.964844 26.523438 L 0.964844 27.050781 C 1.472656 27.011719 2.351562 27.011719 2.898438 27.011719 C 3.425781 27.011719 4.324219 27.011719 4.832031 27.050781 L 4.832031 26.523438 C 3.679688 26.523438 3.464844 26.523438 3.464844 25.722656 Z M 3.464844 14.609375 "/>
<path style=" stroke:none;fill-rule:nonzero;fill:rgb(0%,0%,0%);fill-opacity:1;" d="M 8.453125 16.015625 C 8.453125 15.546875 8.0625 15.136719 7.574219 15.136719 C 7.105469 15.136719 6.714844 15.507812 6.714844 15.996094 C 6.714844 16.523438 7.144531 16.875 7.574219 16.875 C 8.121094 16.875 8.453125 16.40625 8.453125 16.015625 Z M 5.972656 19.335938 L 5.972656 19.863281 C 7.125 19.863281 7.28125 19.960938 7.28125 20.839844 L 7.28125 25.722656 C 7.28125 26.523438 7.085938 26.523438 5.914062 26.523438 L 5.914062 27.050781 C 6.421875 27.011719 7.28125 27.011719 7.808594 27.011719 C 8.003906 27.011719 9.039062 27.011719 9.644531 27.050781 L 9.644531 26.523438 C 8.492188 26.523438 8.414062 26.445312 8.414062 25.742188 L 8.414062 19.140625 Z M 5.972656 19.335938 "/>
<path style=" stroke:none;fill-rule:nonzero;fill:rgb(0%,0%,0%);fill-opacity:1;" d="M 23.128906 22.695312 C 23.128906 21.035156 23.128906 20.527344 22.71875 19.941406 C 22.191406 19.257812 21.351562 19.140625 20.746094 19.140625 C 19.261719 19.140625 18.5 20.214844 18.226562 20.917969 C 17.972656 19.53125 16.996094 19.140625 15.863281 19.140625 C 14.125 19.140625 13.441406 20.625 13.304688 20.996094 L 13.285156 20.996094 L 13.285156 19.140625 L 10.84375 19.335938 L 10.84375 19.863281 C 12.074219 19.863281 12.210938 19.980469 12.210938 20.859375 L 12.210938 25.722656 C 12.210938 26.523438 12.015625 26.523438 10.84375 26.523438 L 10.84375 27.050781 C 11.3125 27.011719 12.289062 27.011719 12.796875 27.011719 C 13.304688 27.011719 14.28125 27.011719 14.75 27.050781 L 14.75 26.523438 C 13.597656 26.523438 13.382812 26.523438 13.382812 25.722656 L 13.382812 22.382812 C 13.382812 20.507812 14.613281 19.511719 15.726562 19.511719 C 16.839844 19.511719 17.09375 20.410156 17.09375 21.503906 L 17.09375 25.722656 C 17.09375 26.523438 16.898438 26.523438 15.726562 26.523438 L 15.726562 27.050781 C 16.195312 27.011719 17.171875 27.011719 17.660156 27.011719 C 18.1875 27.011719 19.144531 27.011719 19.613281 27.050781 L 19.613281 26.523438 C 18.480469 26.523438 18.265625 26.523438 18.265625 25.722656 L 18.265625 22.382812 C 18.265625 20.507812 19.496094 19.511719 20.609375 19.511719 C 21.722656 19.511719 21.976562 20.410156 21.976562 21.503906 L 21.976562 25.722656 C 21.976562 26.523438 21.761719 26.523438 20.609375 26.523438 L 20.609375 27.050781 C 21.078125 27.011719 22.035156 27.011719 22.542969 27.011719 C 23.070312 27.011719 24.027344 27.011719 24.496094 27.050781 L 24.496094 26.523438 C 23.597656 26.523438 23.148438 26.523438 23.128906 25.996094 Z M 23.128906 22.695312 "/>
<path style=" stroke:none;fill-rule:nonzero;fill:rgb(0%,0%,0%);fill-opacity:1;" d="M 3.789062 34.230469 C 3.867188 33.917969 4.160156 32.765625 5.019531 32.765625 C 5.078125 32.765625 5.390625 32.765625 5.644531 32.921875 C 5.292969 33 5.058594 33.292969 5.058594 33.605469 C 5.058594 33.800781 5.195312 34.035156 5.527344 34.035156 C 5.800781 34.035156 6.191406 33.820312 6.191406 33.3125 C 6.191406 32.667969 5.46875 32.492188 5.039062 32.492188 C 4.316406 32.492188 3.886719 33.15625 3.730469 33.429688 C 3.417969 32.609375 2.753906 32.492188 2.382812 32.492188 C 1.09375 32.492188 0.371094 34.09375 0.371094 34.40625 C 0.371094 34.542969 0.507812 34.542969 0.527344 34.542969 C 0.625 34.542969 0.664062 34.503906 0.683594 34.40625 C 1.113281 33.078125 1.933594 32.765625 2.363281 32.765625 C 2.597656 32.765625 3.027344 32.882812 3.027344 33.605469 C 3.027344 33.996094 2.8125 34.816406 2.363281 36.574219 C 2.167969 37.335938 1.71875 37.863281 1.171875 37.863281 C 1.09375 37.863281 0.820312 37.863281 0.546875 37.707031 C 0.859375 37.628906 1.132812 37.375 1.132812 37.023438 C 1.132812 36.691406 0.859375 36.59375 0.683594 36.59375 C 0.292969 36.59375 0 36.90625 0 37.316406 C 0 37.882812 0.605469 38.136719 1.152344 38.136719 C 1.992188 38.136719 2.441406 37.257812 2.460938 37.199219 C 2.617188 37.648438 3.066406 38.136719 3.808594 38.136719 C 5.097656 38.136719 5.800781 36.535156 5.800781 36.222656 C 5.800781 36.085938 5.703125 36.085938 5.664062 36.085938 C 5.546875 36.085938 5.527344 36.144531 5.488281 36.222656 C 5.078125 37.570312 4.238281 37.863281 3.847656 37.863281 C 3.359375 37.863281 3.164062 37.472656 3.164062 37.042969 C 3.164062 36.769531 3.222656 36.496094 3.359375 35.949219 Z M 3.789062 34.230469 "/>
<path style=" stroke:none;fill-rule:nonzero;fill:rgb(0%,0%,0%);fill-opacity:1;" d="M 17.070312 35.128906 C 16.386719 35.65625 16.054688 36.164062 15.957031 36.339844 C 15.390625 37.199219 15.292969 37.980469 15.292969 37.980469 C 15.292969 38.136719 15.449219 38.136719 15.546875 38.136719 C 15.742188 38.136719 15.761719 38.117188 15.820312 37.882812 C 16.09375 36.671875 16.835938 35.617188 18.242188 35.050781 C 18.398438 34.992188 18.4375 34.972656 18.4375 34.875 C 18.4375 34.796875 18.359375 34.757812 18.339844 34.738281 C 17.773438 34.542969 16.269531 33.917969 15.800781 31.828125 C 15.761719 31.671875 15.742188 31.632812 15.546875 31.632812 C 15.449219 31.632812 15.292969 31.632812 15.292969 31.789062 C 15.292969 31.808594 15.410156 32.589844 15.917969 33.429688 C 16.171875 33.800781 16.542969 34.230469 17.070312 34.640625 L 7.8125 34.640625 C 7.597656 34.640625 7.363281 34.640625 7.363281 34.875 C 7.363281 35.128906 7.597656 35.128906 7.8125 35.128906 Z M 17.070312 35.128906 "/>
<path style=" stroke:none;fill-rule:nonzero;fill:rgb(0%,0%,0%);fill-opacity:1;" d="M 22.800781 30.03125 C 22.800781 29.71875 22.800781 29.699219 22.507812 29.699219 C 21.726562 30.5 20.632812 30.5 20.242188 30.5 L 20.242188 30.890625 C 20.496094 30.890625 21.21875 30.890625 21.863281 30.558594 L 21.863281 37.023438 C 21.863281 37.472656 21.824219 37.609375 20.710938 37.609375 L 20.320312 37.609375 L 20.320312 38 C 20.75 37.960938 21.824219 37.960938 22.332031 37.960938 C 22.820312 37.960938 23.914062 37.960938 24.34375 38 L 24.34375 37.609375 L 23.953125 37.609375 C 22.820312 37.609375 22.800781 37.472656 22.800781 37.023438 Z M 22.800781 30.03125 "/>
<path style=" stroke:none;fill-rule:nonzero;fill:rgb(0%,0%,0%);fill-opacity:1;" d="M 38.425781 7.578125 C 37.859375 7.695312 37.644531 8.125 37.644531 8.457031 C 37.644531 8.886719 37.976562 9.042969 38.230469 9.042969 C 38.777344 9.042969 39.148438 8.574219 39.148438 8.085938 C 39.148438 7.34375 38.289062 6.992188 37.527344 6.992188 C 36.433594 6.992188 35.828125 8.066406 35.671875 8.417969 C 35.261719 7.070312 34.148438 6.992188 33.816406 6.992188 C 32 6.992188 31.023438 9.335938 31.023438 9.746094 C 31.023438 9.804688 31.101562 9.902344 31.21875 9.902344 C 31.355469 9.902344 31.394531 9.785156 31.433594 9.726562 C 32.039062 7.734375 33.25 7.363281 33.757812 7.363281 C 34.578125 7.363281 34.734375 8.105469 34.734375 8.535156 C 34.734375 8.925781 34.636719 9.335938 34.402344 10.195312 L 33.796875 12.65625 C 33.542969 13.730469 33.015625 14.726562 32.058594 14.726562 C 31.980469 14.726562 31.53125 14.726562 31.140625 14.492188 C 31.785156 14.355469 31.941406 13.828125 31.941406 13.613281 C 31.941406 13.261719 31.667969 13.046875 31.335938 13.046875 C 30.90625 13.046875 30.4375 13.417969 30.4375 13.984375 C 30.4375 14.746094 31.277344 15.078125 32.039062 15.078125 C 32.898438 15.078125 33.523438 14.394531 33.894531 13.671875 C 34.1875 14.726562 35.066406 15.078125 35.730469 15.078125 C 37.566406 15.078125 38.542969 12.734375 38.542969 12.34375 C 38.542969 12.246094 38.464844 12.167969 38.347656 12.167969 C 38.191406 12.167969 38.171875 12.265625 38.132812 12.402344 C 37.644531 13.984375 36.589844 14.726562 35.789062 14.726562 C 35.164062 14.726562 34.832031 14.257812 34.832031 13.515625 C 34.832031 13.125 34.890625 12.832031 35.183594 11.660156 L 35.808594 9.21875 C 36.082031 8.144531 36.6875 7.363281 37.507812 7.363281 C 37.546875 7.363281 38.054688 7.363281 38.425781 7.578125 Z M 38.425781 7.578125 "/>
<path style=" stroke:none;fill-rule:nonzero;fill:rgb(0%,0%,0%);fill-opacity:1;" d="M 41.5625 7.34375 L 42.890625 6.054688 C 44.824219 4.335938 45.566406 3.671875 45.566406 2.421875 C 45.566406 0.996094 44.453125 0 42.929688 0 C 41.523438 0 40.605469 1.152344 40.605469 2.265625 C 40.605469 2.949219 41.230469 2.949219 41.269531 2.949219 C 41.484375 2.949219 41.914062 2.8125 41.914062 2.285156 C 41.914062 1.972656 41.679688 1.640625 41.25 1.640625 C 41.152344 1.640625 41.132812 1.640625 41.09375 1.660156 C 41.367188 0.839844 42.050781 0.390625 42.773438 0.390625 C 43.90625 0.390625 44.433594 1.40625 44.433594 2.421875 C 44.433594 3.417969 43.828125 4.394531 43.125 5.175781 L 40.742188 7.832031 C 40.605469 7.96875 40.605469 8.007812 40.605469 8.300781 L 45.234375 8.300781 L 45.566406 6.132812 L 45.273438 6.132812 C 45.195312 6.503906 45.117188 7.050781 44.980469 7.246094 C 44.902344 7.34375 44.082031 7.34375 43.808594 7.34375 Z M 41.5625 7.34375 "/>
<path style=" stroke:none;fill-rule:nonzero;fill:rgb(0%,0%,0%);fill-opacity:1;" d="M 62.59375 10.78125 C 62.90625 10.78125 63.21875 10.78125 63.21875 10.429688 C 63.21875 10.058594 62.90625 10.058594 62.59375 10.058594 L 52.886719 10.058594 C 52.59375 10.058594 52.261719 10.058594 52.261719 10.429688 C 52.261719 10.78125 52.59375 10.78125 52.886719 10.78125 Z M 62.59375 10.78125 "/>
<path style=" stroke:none;fill-rule:nonzero;fill:rgb(0%,0%,0%);fill-opacity:1;" d="M 71.929688 8.457031 C 71.617188 8.476562 71.558594 8.496094 71.558594 8.671875 C 71.558594 8.847656 71.636719 8.847656 71.96875 8.847656 L 72.789062 8.847656 C 74.3125 8.847656 74.996094 10.097656 74.996094 11.816406 C 74.996094 14.160156 73.765625 14.785156 72.886719 14.785156 C 72.027344 14.785156 70.5625 14.375 70.054688 13.203125 C 70.621094 13.28125 71.148438 12.96875 71.148438 12.324219 C 71.148438 11.796875 70.757812 11.445312 70.269531 11.445312 C 69.839844 11.445312 69.371094 11.699219 69.371094 12.382812 C 69.371094 13.964844 70.953125 15.273438 72.945312 15.273438 C 75.074219 15.273438 76.65625 13.652344 76.65625 11.835938 C 76.65625 10.195312 75.328125 8.886719 73.609375 8.59375 C 75.171875 8.144531 76.167969 6.835938 76.167969 5.429688 C 76.167969 4.023438 74.703125 2.988281 72.964844 2.988281 C 71.167969 2.988281 69.839844 4.082031 69.839844 5.390625 C 69.839844 6.09375 70.40625 6.25 70.679688 6.25 C 71.050781 6.25 71.480469 5.976562 71.480469 5.429688 C 71.480469 4.863281 71.050781 4.609375 70.660156 4.609375 C 70.542969 4.609375 70.503906 4.609375 70.464844 4.628906 C 71.148438 3.417969 72.828125 3.417969 72.90625 3.417969 C 73.511719 3.417969 74.664062 3.671875 74.664062 5.429688 C 74.664062 5.78125 74.625 6.777344 74.097656 7.558594 C 73.550781 8.339844 72.945312 8.398438 72.457031 8.417969 Z M 71.929688 8.457031 "/>
<path style=" stroke:none;fill-rule:nonzero;fill:rgb(0%,0%,0%);fill-opacity:1;" d="M 85.976562 7.578125 C 85.410156 7.695312 85.195312 8.125 85.195312 8.457031 C 85.195312 8.886719 85.527344 9.042969 85.78125 9.042969 C 86.328125 9.042969 86.699219 8.574219 86.699219 8.085938 C 86.699219 7.34375 85.839844 6.992188 85.078125 6.992188 C 83.984375 6.992188 83.378906 8.066406 83.222656 8.417969 C 82.8125 7.070312 81.699219 6.992188 81.367188 6.992188 C 79.550781 6.992188 78.574219 9.335938 78.574219 9.746094 C 78.574219 9.804688 78.652344 9.902344 78.769531 9.902344 C 78.90625 9.902344 78.945312 9.785156 78.984375 9.726562 C 79.589844 7.734375 80.800781 7.363281 81.308594 7.363281 C 82.128906 7.363281 82.285156 8.105469 82.285156 8.535156 C 82.285156 8.925781 82.1875 9.335938 81.953125 10.195312 L 81.347656 12.65625 C 81.09375 13.730469 80.566406 14.726562 79.609375 14.726562 C 79.53125 14.726562 79.082031 14.726562 78.691406 14.492188 C 79.335938 14.355469 79.492188 13.828125 79.492188 13.613281 C 79.492188 13.261719 79.21875 13.046875 78.886719 13.046875 C 78.457031 13.046875 77.988281 13.417969 77.988281 13.984375 C 77.988281 14.746094 78.828125 15.078125 79.589844 15.078125 C 80.449219 15.078125 81.074219 14.394531 81.445312 13.671875 C 81.738281 14.726562 82.617188 15.078125 83.28125 15.078125 C 85.117188 15.078125 86.09375 12.734375 86.09375 12.34375 C 86.09375 12.246094 86.015625 12.167969 85.898438 12.167969 C 85.742188 12.167969 85.722656 12.265625 85.683594 12.402344 C 85.195312 13.984375 84.140625 14.726562 83.339844 14.726562 C 82.714844 14.726562 82.382812 14.257812 82.382812 13.515625 C 82.382812 13.125 82.441406 12.832031 82.734375 11.660156 L 83.359375 9.21875 C 83.632812 8.144531 84.238281 7.363281 85.058594 7.363281 C 85.097656 7.363281 85.605469 7.363281 85.976562 7.578125 Z M 85.976562 7.578125 "/>
<path style=" stroke:none;fill-rule:nonzero;fill:rgb(0%,0%,0%);fill-opacity:1;" d="M 98.578125 10.761719 L 103.539062 10.761719 C 103.792969 10.761719 104.105469 10.761719 104.105469 10.429688 C 104.105469 10.097656 103.792969 10.097656 103.539062 10.097656 L 98.578125 10.097656 L 98.578125 5.15625 C 98.578125 4.902344 98.578125 4.570312 98.265625 4.570312 C 97.914062 4.570312 97.914062 4.882812 97.914062 5.15625 L 97.914062 10.097656 L 92.972656 10.097656 C 92.71875 10.097656 92.40625 10.097656 92.40625 10.429688 C 92.40625 10.761719 92.699219 10.761719 92.972656 10.761719 L 97.914062 10.761719 L 97.914062 15.703125 C 97.914062 15.957031 97.914062 16.289062 98.246094 16.289062 C 98.578125 16.289062 98.578125 15.976562 98.578125 15.703125 Z M 98.578125 10.761719 "/>
<path style=" stroke:none;fill-rule:nonzero;fill:rgb(0%,0%,0%);fill-opacity:1;" d="M 117.019531 11.894531 L 116.628906 11.894531 C 116.570312 12.1875 116.433594 13.183594 116.238281 13.476562 C 116.121094 13.632812 115.105469 13.632812 114.558594 13.632812 L 111.238281 13.632812 C 111.726562 13.222656 112.820312 12.070312 113.289062 11.640625 C 116.023438 9.121094 117.019531 8.203125 117.019531 6.425781 C 117.019531 4.355469 115.378906 2.988281 113.308594 2.988281 C 111.21875 2.988281 110.007812 4.746094 110.007812 6.289062 C 110.007812 7.207031 110.789062 7.207031 110.847656 7.207031 C 111.21875 7.207031 111.6875 6.933594 111.6875 6.367188 C 111.6875 5.859375 111.355469 5.527344 110.847656 5.527344 C 110.691406 5.527344 110.652344 5.527344 110.59375 5.546875 C 110.945312 4.316406 111.902344 3.496094 113.074219 3.496094 C 114.597656 3.496094 115.535156 4.765625 115.535156 6.425781 C 115.535156 7.949219 114.65625 9.277344 113.621094 10.429688 L 110.007812 14.472656 L 110.007812 14.902344 L 116.550781 14.902344 Z M 117.019531 11.894531 "/>
<path style=" stroke:none;fill-rule:nonzero;fill:rgb(0%,0%,0%);fill-opacity:1;" d="M 29.914062 22.113281 L 117.964844 22.113281 L 117.964844 22.867188 L 29.914062 22.867188 Z M 29.914062 22.113281 "/>
<path style=" stroke:none;fill-rule:nonzero;fill:rgb(0%,0%,0%);fill-opacity:1;" d="M 38.425781 32.027344 C 37.859375 32.144531 37.644531 32.574219 37.644531 32.90625 C 37.644531 33.335938 37.976562 33.492188 38.230469 33.492188 C 38.777344 33.492188 39.148438 33.023438 39.148438 32.535156 C 39.148438 31.792969 38.289062 31.441406 37.527344 31.441406 C 36.433594 31.441406 35.828125 32.515625 35.671875 32.867188 C 35.261719 31.519531 34.148438 31.441406 33.816406 31.441406 C 32 31.441406 31.023438 33.785156 31.023438 34.195312 C 31.023438 34.253906 31.101562 34.351562 31.21875 34.351562 C 31.355469 34.351562 31.394531 34.234375 31.433594 34.175781 C 32.039062 32.183594 33.25 31.8125 33.757812 31.8125 C 34.578125 31.8125 34.734375 32.554688 34.734375 32.984375 C 34.734375 33.375 34.636719 33.785156 34.402344 34.644531 L 33.796875 37.105469 C 33.542969 38.179688 33.015625 39.175781 32.058594 39.175781 C 31.980469 39.175781 31.53125 39.175781 31.140625 38.941406 C 31.785156 38.804688 31.941406 38.277344 31.941406 38.0625 C 31.941406 37.710938 31.667969 37.496094 31.335938 37.496094 C 30.90625 37.496094 30.4375 37.867188 30.4375 38.433594 C 30.4375 39.195312 31.277344 39.527344 32.039062 39.527344 C 32.898438 39.527344 33.523438 38.84375 33.894531 38.121094 C 34.1875 39.175781 35.066406 39.527344 35.730469 39.527344 C 37.566406 39.527344 38.542969 37.183594 38.542969 36.792969 C 38.542969 36.695312 38.464844 36.617188 38.347656 36.617188 C 38.191406 36.617188 38.171875 36.714844 38.132812 36.851562 C 37.644531 38.433594 36.589844 39.175781 35.789062 39.175781 C 35.164062 39.175781 34.832031 38.707031 34.832031 37.964844 C 34.832031 37.574219 34.890625 37.28125 35.183594 36.109375 L 35.808594 33.667969 C 36.082031 32.59375 36.6875 31.8125 37.507812 31.8125 C 37.546875 31.8125 38.054688 31.8125 38.425781 32.027344 Z M 38.425781 32.027344 "/>
<path style=" stroke:none;fill-rule:nonzero;fill:rgb(0%,0%,0%);fill-opacity:1;" d="M 41.5625 33.144531 L 42.890625 31.855469 C 44.824219 30.136719 45.566406 29.472656 45.566406 28.222656 C 45.566406 26.796875 44.453125 25.800781 42.929688 25.800781 C 41.523438 25.800781 40.605469 26.953125 40.605469 28.066406 C 40.605469 28.75 41.230469 28.75 41.269531 28.75 C 41.484375 28.75 41.914062 28.613281 41.914062 28.085938 C 41.914062 27.773438 41.679688 27.441406 41.25 27.441406 C 41.152344 27.441406 41.132812 27.441406 41.09375 27.460938 C 41.367188 26.640625 42.050781 26.191406 42.773438 26.191406 C 43.90625 26.191406 44.433594 27.207031 44.433594 28.222656 C 44.433594 29.21875 43.828125 30.195312 43.125 30.976562 L 40.742188 33.632812 C 40.605469 33.769531 40.605469 33.808594 40.605469 34.101562 L 45.234375 34.101562 L 45.566406 31.933594 L 45.273438 31.933594 C 45.195312 32.304688 45.117188 32.851562 44.980469 33.046875 C 44.902344 33.144531 44.082031 33.144531 43.808594 33.144531 Z M 41.5625 33.144531 "/>
<path style=" stroke:none;fill-rule:nonzero;fill:rgb(0%,0%,0%);fill-opacity:1;" d="M 57.925781 35.210938 L 62.886719 35.210938 C 63.140625 35.210938 63.453125 35.210938 63.453125 34.878906 C 63.453125 34.546875 63.140625 34.546875 62.886719 34.546875 L 57.925781 34.546875 L 57.925781 29.605469 C 57.925781 29.351562 57.925781 29.019531 57.613281 29.019531 C 57.261719 29.019531 57.261719 29.332031 57.261719 29.605469 L 57.261719 34.546875 L 52.320312 34.546875 C 52.066406 34.546875 51.753906 34.546875 51.753906 34.878906 C 51.753906 35.210938 52.046875 35.210938 52.320312 35.210938 L 57.261719 35.210938 L 57.261719 40.152344 C 57.261719 40.40625 57.261719 40.738281 57.59375 40.738281 C 57.925781 40.738281 57.925781 40.425781 57.925781 40.152344 Z M 57.925781 35.210938 "/>
<path style=" stroke:none;fill-rule:nonzero;fill:rgb(0%,0%,0%);fill-opacity:1;" d="M 71.628906 32.90625 C 71.316406 32.925781 71.257812 32.945312 71.257812 33.121094 C 71.257812 33.296875 71.335938 33.296875 71.667969 33.296875 L 72.488281 33.296875 C 74.011719 33.296875 74.695312 34.546875 74.695312 36.265625 C 74.695312 38.609375 73.464844 39.234375 72.585938 39.234375 C 71.726562 39.234375 70.261719 38.824219 69.753906 37.652344 C 70.320312 37.730469 70.847656 37.417969 70.847656 36.773438 C 70.847656 36.246094 70.457031 35.894531 69.96875 35.894531 C 69.539062 35.894531 69.070312 36.148438 69.070312 36.832031 C 69.070312 38.414062 70.652344 39.722656 72.644531 39.722656 C 74.773438 39.722656 76.355469 38.101562 76.355469 36.285156 C 76.355469 34.644531 75.027344 33.335938 73.308594 33.042969 C 74.871094 32.59375 75.867188 31.285156 75.867188 29.878906 C 75.867188 28.472656 74.402344 27.4375 72.664062 27.4375 C 70.867188 27.4375 69.539062 28.53125 69.539062 29.839844 C 69.539062 30.542969 70.105469 30.699219 70.378906 30.699219 C 70.75 30.699219 71.179688 30.425781 71.179688 29.878906 C 71.179688 29.3125 70.75 29.058594 70.359375 29.058594 C 70.242188 29.058594 70.203125 29.058594 70.164062 29.078125 C 70.847656 27.867188 72.527344 27.867188 72.605469 27.867188 C 73.210938 27.867188 74.363281 28.121094 74.363281 29.878906 C 74.363281 30.230469 74.324219 31.226562 73.796875 32.007812 C 73.25 32.789062 72.644531 32.847656 72.15625 32.867188 Z M 71.628906 32.90625 "/>
<path style=" stroke:none;fill-rule:nonzero;fill:rgb(0%,0%,0%);fill-opacity:1;" d="M 85.675781 32.027344 C 85.109375 32.144531 84.894531 32.574219 84.894531 32.90625 C 84.894531 33.335938 85.226562 33.492188 85.480469 33.492188 C 86.027344 33.492188 86.398438 33.023438 86.398438 32.535156 C 86.398438 31.792969 85.539062 31.441406 84.777344 31.441406 C 83.683594 31.441406 83.078125 32.515625 82.921875 32.867188 C 82.511719 31.519531 81.398438 31.441406 81.066406 31.441406 C 79.25 31.441406 78.273438 33.785156 78.273438 34.195312 C 78.273438 34.253906 78.351562 34.351562 78.46875 34.351562 C 78.605469 34.351562 78.644531 34.234375 78.683594 34.175781 C 79.289062 32.183594 80.5 31.8125 81.007812 31.8125 C 81.828125 31.8125 81.984375 32.554688 81.984375 32.984375 C 81.984375 33.375 81.886719 33.785156 81.652344 34.644531 L 81.046875 37.105469 C 80.792969 38.179688 80.265625 39.175781 79.308594 39.175781 C 79.230469 39.175781 78.78125 39.175781 78.390625 38.941406 C 79.035156 38.804688 79.191406 38.277344 79.191406 38.0625 C 79.191406 37.710938 78.917969 37.496094 78.585938 37.496094 C 78.15625 37.496094 77.6875 37.867188 77.6875 38.433594 C 77.6875 39.195312 78.527344 39.527344 79.289062 39.527344 C 80.148438 39.527344 80.773438 38.84375 81.144531 38.121094 C 81.4375 39.175781 82.316406 39.527344 82.980469 39.527344 C 84.816406 39.527344 85.792969 37.183594 85.792969 36.792969 C 85.792969 36.695312 85.714844 36.617188 85.597656 36.617188 C 85.441406 36.617188 85.421875 36.714844 85.382812 36.851562 C 84.894531 38.433594 83.839844 39.175781 83.039062 39.175781 C 82.414062 39.175781 82.082031 38.707031 82.082031 37.964844 C 82.082031 37.574219 82.140625 37.28125 82.433594 36.109375 L 83.058594 33.667969 C 83.332031 32.59375 83.9375 31.8125 84.757812 31.8125 C 84.796875 31.8125 85.304688 31.8125 85.675781 32.027344 Z M 85.675781 32.027344 "/>
<path style=" stroke:none;fill-rule:nonzero;fill:rgb(0%,0%,0%);fill-opacity:1;" d="M 102.945312 35.230469 C 103.257812 35.230469 103.570312 35.230469 103.570312 34.878906 C 103.570312 34.507812 103.257812 34.507812 102.945312 34.507812 L 93.238281 34.507812 C 92.945312 34.507812 92.613281 34.507812 92.613281 34.878906 C 92.613281 35.230469 92.945312 35.230469 93.238281 35.230469 Z M 102.945312 35.230469 "/>
<path style=" stroke:none;fill-rule:nonzero;fill:rgb(0%,0%,0%);fill-opacity:1;" d="M 115.59375 27.671875 C 115.59375 27.339844 115.59375 27.242188 115.359375 27.242188 C 115.203125 27.242188 115.144531 27.242188 115.007812 27.457031 L 109.617188 35.835938 L 109.617188 36.363281 L 114.324219 36.363281 L 114.324219 37.984375 C 114.324219 38.648438 114.285156 38.824219 112.976562 38.824219 L 112.625 38.824219 L 112.625 39.351562 C 113.035156 39.3125 114.460938 39.3125 114.949219 39.3125 C 115.457031 39.3125 116.882812 39.3125 117.3125 39.351562 L 117.3125 38.824219 L 116.941406 38.824219 C 115.652344 38.824219 115.59375 38.648438 115.59375 37.984375 L 115.59375 36.363281 L 117.410156 36.363281 L 117.410156 35.835938 L 115.59375 35.835938 Z M 114.421875 29.078125 L 114.421875 35.835938 L 110.066406 35.835938 Z M 114.421875 29.078125 "/>
<path style=" stroke:none;fill-rule:nonzero;fill:rgb(0%,0%,0%);fill-opacity:1;" d="M 136.386719 21.25 C 136.640625 21.25 136.953125 21.25 136.953125 20.917969 C 136.953125 20.585938 136.640625 20.585938 136.386719 20.585938 L 125.820312 20.585938 C 125.566406 20.585938 125.253906 20.585938 125.253906 20.898438 C 125.253906 21.25 125.546875 21.25 125.820312 21.25 Z M 136.386719 24.570312 C 136.640625 24.570312 136.953125 24.570312 136.953125 24.257812 C 136.953125 23.90625 136.640625 23.90625 136.386719 23.90625 L 125.820312 23.90625 C 125.566406 23.90625 125.253906 23.90625 125.253906 24.238281 C 125.253906 24.570312 125.546875 24.570312 125.820312 24.570312 Z M 136.386719 24.570312 "/>
<path style=" stroke:none;fill-rule:nonzero;fill:rgb(0%,0%,0%);fill-opacity:1;" d="M 152.128906 22.1875 C 151.171875 20.976562 150.957031 20.703125 150.390625 20.253906 C 149.394531 19.453125 148.378906 19.121094 147.480469 19.121094 C 145.371094 19.121094 144.003906 21.09375 144.003906 23.203125 C 144.003906 25.253906 145.332031 27.246094 147.402344 27.246094 C 149.472656 27.246094 150.957031 25.625 151.835938 24.179688 C 152.792969 25.410156 153.007812 25.664062 153.574219 26.113281 C 154.570312 26.933594 155.585938 27.246094 156.484375 27.246094 C 158.59375 27.246094 159.960938 25.273438 159.960938 23.183594 C 159.960938 21.113281 158.632812 19.121094 156.5625 19.121094 C 154.511719 19.121094 153.007812 20.761719 152.128906 22.1875 Z M 152.597656 22.792969 C 153.339844 21.503906 154.667969 19.707031 156.699219 19.707031 C 158.59375 19.707031 159.550781 21.5625 159.550781 23.183594 C 159.550781 24.941406 158.359375 26.386719 156.777344 26.386719 C 155.742188 26.386719 154.941406 25.625 154.550781 25.253906 C 154.101562 24.765625 153.691406 24.21875 152.597656 22.792969 Z M 151.367188 23.574219 C 150.625 24.863281 149.296875 26.679688 147.285156 26.679688 C 145.371094 26.679688 144.414062 24.804688 144.414062 23.203125 C 144.414062 21.445312 145.605469 19.980469 147.1875 19.980469 C 148.222656 19.980469 149.042969 20.742188 149.414062 21.113281 C 149.863281 21.601562 150.273438 22.148438 151.367188 23.574219 Z M 151.367188 23.574219 "/>
</g>
</svg>
