<?xml version="1.0" encoding="UTF-8" standalone="no"?>
<!-- Created with Inkscape (http://www.inkscape.org/) -->

<svg
   xmlns:ns0="http://www.iki.fi/pav/software/textext/"
   xmlns:dc="http://purl.org/dc/elements/1.1/"
   xmlns:cc="http://creativecommons.org/ns#"
   xmlns:rdf="http://www.w3.org/1999/02/22-rdf-syntax-ns#"
   xmlns:svg="http://www.w3.org/2000/svg"
   xmlns="http://www.w3.org/2000/svg"
   xmlns:sodipodi="http://sodipodi.sourceforge.net/DTD/sodipodi-0.dtd"
   xmlns:inkscape="http://www.inkscape.org/namespaces/inkscape"
   inkscape:version="0.48.3.1 r9886"
   version="1.1"
   id="svg3854"
   height="149.11594"
   width="450.34253"
   sodipodi:docname="math-1.svg">
  <sodipodi:namedview
     id="base"
     pagecolor="#ffffff"
     bordercolor="#666666"
     borderopacity="1.0"
     inkscape:pageopacity="0.0"
     inkscape:pageshadow="2"
     inkscape:zoom="0.35"
     inkscape:cx="199.8466"
     inkscape:cy="-169.08843"
     inkscape:document-units="px"
     inkscape:current-layer="svg3854"
     showgrid="false"
     inkscape:window-width="782"
     inkscape:window-height="557"
     inkscape:window-x="123"
     inkscape:window-y="72"
     inkscape:window-maximized="0"
     fit-margin-top="0"
     fit-margin-left="0"
     fit-margin-right="0"
     fit-margin-bottom="0"
     showborder="false"
     inkscape:showpageshadow="false" />
  <defs
     id="defs3856" />
  <metadata
     id="metadata3859">
    <rdf:RDF>
      <cc:Work
         rdf:about="">
        <dc:format>image/svg+xml</dc:format>
        <dc:type
           rdf:resource="http://purl.org/dc/dcmitype/StillImage" />
        <dc:title></dc:title>
      </cc:Work>
    </rdf:RDF>
  </metadata>
  <g
     id="layer1"
     inkscape:groupmode="layer"
     inkscape:label="Layer 1"
     transform="translate(-125.1534,-214.15782)" />
  <g
     style="font-style:normal;font-variant:normal;font-weight:normal;font-stretch:normal;letter-spacing:normal;word-spacing:normal;text-anchor:start;fill:none;stroke:#000000;stroke-linecap:butt;stroke-linejoin:miter;stroke-miterlimit:10.43299961;stroke-opacity:1;stroke-dasharray:none;stroke-dashoffset:0"
     ns0:preamble="/home/abhinavc/playpen/textext/preamble.ini"
     ns0:text="\\textbf{Son} Dad, it\'s so cold in here! \\\\\n\\textbf{Father} Go stand in the corner. \\\\\n\\textbf{Son} Why?  \\\\\n\\textbf{Father} The corner is 90 degrees."
     word-spacing="normal"
     letter-spacing="normal"
     font-size-adjust="none"
     font-stretch="normal"
     font-weight="normal"
     font-variant="normal"
     font-style="normal"
     stroke-miterlimit="10.433"
     xml:space="preserve"
     transform="matrix(3.3045083,0,0,-3.3045083,-1075.824,1770.3903)"
     id="content">
<path
   id="path4636"
   d="m 327.82,532.98 -0.02,0 -0.03,0.01 -0.02,0.01 -0.03,0.01 -0.03,0 -0.03,0.02 -0.03,0.01 -0.03,0.01 -0.04,0.02 -0.03,0.01 -0.04,0.02 -0.03,0.02 -0.04,0.02 -0.03,0.02 -0.04,0.02 -0.03,0.03 -0.03,0.02 -0.04,0.03 -0.03,0.03 -0.03,0.03 -0.03,0.03 -0.03,0.04 -0.02,0.03 -0.03,0.04 -0.02,0.04 -0.02,0.04 -0.01,0.04 -0.02,0.05 0,0.02 -0.01,0.02 0,0.03 -0.01,0.02 0,0.02 0,0.03 0,0.03 -0.01,0.02 c 0,0.85 0.85,0.87 1.19,0.87 0.56,0 1.05,-0.13 1.54,-0.61 0.16,-0.15 0.17,-0.16 0.21,-0.16 0.06,0 0.11,0.03 0.14,0.18 l 0.15,0.87 c 0.02,0.07 0.02,0.09 0.02,0.12 0,0.08 -0.01,0.09 -0.26,0.22 -0.71,0.35 -1.29,0.4 -1.8,0.4 -0.89,0 -2.43,-0.21 -2.43,-2.07 0,-0.7 0.37,-1.16 0.56,-1.36 0.5,-0.51 0.97,-0.61 1.75,-0.79 0.56,-0.13 0.78,-0.18 0.99,-0.38 0.1,-0.1 0.31,-0.31 0.31,-0.69 0,-0.93 -0.85,-0.96 -1.18,-0.96 -0.84,0 -1.56,0.34 -2.06,0.79 -0.12,0.11 -0.14,0.11 -0.18,0.11 -0.06,0 -0.11,-0.02 -0.14,-0.17 l -0.15,-0.87 c -0.02,-0.08 -0.02,-0.1 -0.02,-0.13 0,-0.21 1.04,-0.56 1.09,-0.58 0.66,-0.21 1.2,-0.23 1.46,-0.23 1.49,0 2.43,0.66 2.43,2.2 0,1.12 -0.83,1.95 -1.83,2.18 z"
   inkscape:connector-curvature="0"
   style="fill:#000000;stroke-width:0" />
<path
   id="path4638"
   d="m 336.38,530.83 -0.01,0.15 0,0.15 -0.02,0.14 -0.01,0.14 -0.02,0.13 -0.03,0.13 -0.03,0.12 -0.03,0.12 -0.04,0.11 -0.05,0.11 -0.05,0.1 -0.05,0.1 -0.06,0.1 -0.06,0.09 -0.07,0.08 -0.07,0.08 -0.08,0.08 -0.08,0.07 -0.09,0.07 -0.09,0.06 -0.1,0.06 -0.1,0.05 -0.11,0.04 -0.11,0.05 -0.12,0.03 -0.12,0.04 -0.12,0.02 -0.13,0.03 -0.14,0.01 -0.14,0.02 -0.14,0 -0.15,0.01 -0.01,-0.72 c 1.07,0 1.07,-0.87 1.07,-1.65 0,-0.78 0,-1.69 -1.06,-1.69 h 0 c -1.08,0 -1.08,0.9 -1.08,1.69 0,0.77 0,1.65 1.07,1.65 l 0.01,0.72 c -1.66,0 -2.43,-0.89 -2.43,-2.49 0,-1.62 0.86,-2.34 2.42,-2.34 1.56,0 2.43,0.71 2.43,2.34 z"
   inkscape:connector-curvature="0"
   style="fill:#000000;stroke-width:0" />
<path
   id="path4640"
   d="m 341.68,531.83 -0.01,0.09 0,0.09 -0.01,0.09 0,0.08 -0.02,0.08 -0.01,0.08 -0.02,0.07 -0.02,0.07 -0.02,0.07 -0.03,0.06 -0.02,0.06 -0.04,0.06 -0.03,0.05 -0.04,0.05 -0.04,0.05 -0.04,0.04 -0.05,0.05 -0.04,0.03 -0.06,0.04 -0.05,0.03 -0.06,0.03 -0.06,0.03 -0.06,0.02 -0.07,0.03 -0.07,0.02 -0.08,0.01 -0.07,0.02 -0.08,0.01 -0.09,0.01 -0.08,0 -0.09,0 -0.1,0.01 c -1.04,0 -1.49,-0.76 -1.62,-1.03 h -0.01 v 0.5 c 0,0.32 -0.07,0.48 -0.48,0.48 h -0.33 c -0.36,0 -0.48,-0.11 -0.48,-0.48 v -3.66 c 0,-0.35 0.11,-0.47 0.48,-0.47 h 0.39 c 0.38,0 0.48,0.13 0.48,0.47 v 2.2 c 0,0.86 0.58,1.27 1.1,1.27 0.47,0 0.57,-0.23 0.57,-0.73 v -2.74 c 0,-0.31 0.07,-0.47 0.48,-0.47 h 0.4 c 0.38,0 0.48,0.13 0.48,0.47 z"
   inkscape:connector-curvature="0"
   style="fill:#000000;stroke-width:0" />
<path
   id="path4642"
   d="m 346.57,535.49 v -6.89 h 2.61 c 1.7,0 3.05,1.51 3.05,3.38 0,1.93 -1.34,3.51 -3.06,3.51 l -0.22,-0.56 c 1.39,0 2.42,-1.2 2.42,-2.95 0,-1.68 -1.03,-2.83 -2.42,-2.83 h -1.53 v 5.78 h 1.53 l 0.22,0.56 z"
   inkscape:connector-curvature="0"
   style="fill:#000000;stroke-width:0" />
<path
   id="path4644"
   d="m 356.78,531.47 0,0.09 -0.01,0.09 -0.01,0.09 -0.02,0.09 -0.01,0.09 -0.03,0.08 -0.02,0.08 -0.03,0.08 -0.03,0.08 -0.04,0.07 -0.04,0.07 -0.04,0.07 -0.05,0.07 -0.04,0.06 -0.06,0.06 -0.05,0.06 -0.06,0.06 -0.06,0.05 -0.06,0.05 -0.06,0.04 -0.07,0.05 -0.07,0.03 -0.07,0.04 -0.07,0.03 -0.08,0.03 -0.07,0.03 -0.08,0.02 -0.08,0.02 -0.08,0.01 -0.08,0.01 -0.09,0 -0.08,0.01 c -0.65,0 -1.1,-0.16 -1.57,-0.43 l 0.06,-0.66 c 0.52,0.37 1.02,0.5 1.51,0.5 0.46,0 0.86,-0.4 0.86,-1.13 v -0.43 c -1.49,-0.02 -2.75,-0.44 -2.75,-1.31 0,-0.43 0.26,-1.23 1.13,-1.23 0.14,0 1.07,0.02 1.65,0.47 l -0.37,0.32 c -0.28,-0.18 -0.66,-0.19 -0.77,-0.19 -0.48,0 -0.93,0.23 -0.93,0.65 0,0.69 1.61,0.76 2.04,0.78 v -0.61 c 0,-0.19 0,-0.44 -0.34,-0.63 l 0.37,-0.32 v -0.36 h 0.75 z"
   inkscape:connector-curvature="0"
   style="fill:#000000;stroke-width:0" />
<path
   id="path4646"
   d="m 361.91,535.49 h -0.74 v -2.92 c -0.53,0.44 -1.09,0.55 -1.46,0.55 -0.98,0 -1.76,-1.04 -1.76,-2.32 0,-1.3 0.77,-2.31 1.72,-2.31 0.32,0 0.91,0.09 1.47,0.62 l -0.33,0.26 c -0.23,-0.2 -0.48,-0.28 -0.74,-0.28 -0.61,0 -1.34,0.47 -1.34,1.7 0,1.31 0.86,1.72 1.44,1.72 0.45,0 0.75,-0.23 0.97,-0.54 v -1.99 c 0,-0.14 -0.01,-0.32 -0.33,-0.61 l 0.33,-0.26 v -0.51 h 0.77 z"
   inkscape:connector-curvature="0"
   style="fill:#000000;stroke-width:0" />
<polygon
   id="polygon4648"
   points="363.71,528.6 363.96,528.6 363.71,527.35 364.12,527.35 364.54,528.61 364.54,529.42 363.71,529.42 "
   style="fill:#000000;stroke-width:0" />
<polygon
   id="polygon4650"
   points="370.45,534.47 370.45,535.35 369.57,535.35 369.57,534.47 "
   style="fill:#000000;stroke-width:0" />
<polygon
   id="polygon4652"
   points="370.38,528.6 370.38,533.01 369.64,533.01 369.64,528.6 "
   style="fill:#000000;stroke-width:0" />
<path
   id="path4654"
   d="m 372.95,532.43 h 1.4 v 0.58 h -1.4 v 1.26 h -0.69 v -1.26 h -0.86 v -0.58 h 0.83 v -2.65 c 0,-0.6 0.14,-1.29 0.83,-1.29 0.7,0 1.2,0.25 1.45,0.37 l -0.16,0.59 c -0.26,-0.21 -0.57,-0.33 -0.89,-0.33 -0.37,0 -0.51,0.3 -0.51,0.83 z"
   inkscape:connector-curvature="0"
   style="fill:#000000;stroke-width:0" />
<polygon
   id="polygon4656"
   points="375.77,534.67 376.02,534.67 375.77,533.42 376.18,533.42 376.6,534.68 376.6,535.49 375.77,535.49 "
   style="fill:#000000;stroke-width:0" />
<path
   id="path4658"
   d="m 380.99,532.86 -0.05,0.02 -0.05,0.02 -0.09,0.04 -0.09,0.04 -0.09,0.03 -0.09,0.03 -0.09,0.02 -0.09,0.03 -0.08,0.02 -0.09,0.01 -0.09,0.02 -0.08,0.01 -0.09,0.01 -0.09,0.01 -0.09,0 -0.09,0.01 -0.1,0 c -0.25,0 -1.65,0 -1.65,-1.3 0,-0.49 0.29,-0.81 0.54,-1 0.31,-0.22 0.53,-0.26 1.07,-0.37 0.36,-0.06 0.94,-0.18 0.94,-0.71 0,-0.69 -0.79,-0.69 -0.94,-0.69 -0.8,0 -1.36,0.37 -1.54,0.49 l -0.12,-0.68 c 0.32,-0.15 0.87,-0.43 1.67,-0.43 0.18,0 0.73,0 1.16,0.32 0.31,0.23 0.48,0.63 0.48,1.06 0,0.54 -0.37,0.88 -0.39,0.91 -0.39,0.35 -0.66,0.41 -1.16,0.5 -0.54,0.11 -1,0.21 -1,0.69 0,0.62 0.72,0.62 0.84,0.62 0.32,0 0.85,-0.04 1.42,-0.38 z"
   inkscape:connector-curvature="0"
   style="fill:#000000;stroke-width:0" />
<path
   id="path4660"
   d="m 388.13,532.86 -0.05,0.02 -0.04,0.02 -0.1,0.04 -0.09,0.04 -0.09,0.03 -0.09,0.03 -0.08,0.02 -0.09,0.03 -0.09,0.02 -0.08,0.01 -0.09,0.02 -0.09,0.01 -0.09,0.01 -0.08,0.01 -0.09,0 -0.1,0.01 -0.09,0 c -0.25,0 -1.65,0 -1.65,-1.3 0,-0.49 0.29,-0.81 0.54,-1 0.3,-0.22 0.52,-0.26 1.07,-0.37 0.36,-0.06 0.94,-0.18 0.94,-0.71 0,-0.69 -0.79,-0.69 -0.94,-0.69 -0.81,0 -1.36,0.37 -1.54,0.49 L 385,528.92 c 0.32,-0.15 0.86,-0.43 1.67,-0.43 0.18,0 0.73,0 1.15,0.32 0.31,0.23 0.48,0.63 0.48,1.06 0,0.54 -0.37,0.88 -0.39,0.91 -0.38,0.35 -0.65,0.41 -1.15,0.5 -0.55,0.11 -1,0.21 -1,0.69 0,0.62 0.71,0.62 0.84,0.62 0.32,0 0.85,-0.04 1.41,-0.38 z"
   inkscape:connector-curvature="0"
   style="fill:#000000;stroke-width:0" />
<path
   id="path4662"
   d="m 393.2,530.78 0,0.13 -0.01,0.12 -0.01,0.12 -0.02,0.12 -0.02,0.11 -0.03,0.12 -0.04,0.11 -0.04,0.11 -0.04,0.1 -0.05,0.11 -0.05,0.1 -0.06,0.1 -0.06,0.09 -0.07,0.09 -0.07,0.09 -0.07,0.08 -0.08,0.08 -0.08,0.07 -0.08,0.07 -0.08,0.07 -0.09,0.06 -0.09,0.06 -0.1,0.05 -0.09,0.05 -0.1,0.04 -0.1,0.04 -0.11,0.03 -0.1,0.03 -0.11,0.02 -0.1,0.01 -0.11,0.01 -0.11,0.01 -0.01,-0.61 c 0.69,0 1.41,-0.52 1.41,-1.69 0,-1.17 -0.68,-1.76 -1.41,-1.76 h 0 c -0.69,0 -1.41,0.56 -1.41,1.76 0,1.2 0.76,1.69 1.41,1.69 l 0.01,0.61 c -1.23,0 -2.19,-1.1 -2.19,-2.4 0,-1.31 1.01,-2.29 2.18,-2.29 1.19,0 2.18,1 2.18,2.29 z"
   inkscape:connector-curvature="0"
   style="fill:#000000;stroke-width:0" />
<path
   id="path4664"
   d="m 400.92,532.75 -0.06,0.03 -0.05,0.03 -0.05,0.03 -0.05,0.02 -0.05,0.03 -0.05,0.02 -0.05,0.03 -0.04,0.02 -0.05,0.02 -0.05,0.02 -0.04,0.02 -0.05,0.01 -0.08,0.03 -0.09,0.03 -0.09,0.02 -0.09,0.02 -0.09,0.02 -0.09,0.01 -0.05,0 -0.05,0.01 -0.05,0 -0.05,0 -0.05,0 -0.05,0.01 -0.06,0 -0.05,0 c -1.39,0 -2.19,-1.21 -2.19,-2.38 0,-1.23 0.9,-2.31 2.15,-2.31 0.53,0 1.08,0.14 1.62,0.5 l -0.06,0.67 c -0.51,-0.4 -1.05,-0.54 -1.55,-0.54 -0.83,0 -1.39,0.72 -1.39,1.69 0,0.78 0.37,1.73 1.42,1.73 0.52,0 0.86,-0.08 1.41,-0.44 z"
   inkscape:connector-curvature="0"
   style="fill:#000000;stroke-width:0" />
<path
   id="path4666"
   d="m 405.93,530.78 0,0.13 -0.01,0.12 -0.01,0.12 -0.02,0.12 -0.03,0.11 -0.03,0.12 -0.03,0.11 -0.04,0.11 -0.05,0.1 -0.05,0.11 -0.05,0.1 -0.06,0.1 -0.06,0.09 -0.06,0.09 -0.07,0.09 -0.07,0.08 -0.08,0.08 -0.08,0.07 -0.08,0.07 -0.09,0.07 -0.09,0.06 -0.09,0.06 -0.09,0.05 -0.1,0.05 -0.1,0.04 -0.1,0.04 -0.1,0.03 -0.1,0.03 -0.11,0.02 -0.11,0.01 -0.11,0.01 -0.11,0.01 -0.01,-0.61 c 0.7,0 1.41,-0.52 1.41,-1.69 0,-1.17 -0.67,-1.76 -1.41,-1.76 h 0 c -0.68,0 -1.4,0.56 -1.4,1.76 0,1.2 0.76,1.69 1.4,1.69 l 0.01,0.61 c -1.22,0 -2.19,-1.1 -2.19,-2.4 0,-1.31 1.02,-2.29 2.18,-2.29 1.2,0 2.19,1 2.19,2.29 z"
   inkscape:connector-curvature="0"
   style="fill:#000000;stroke-width:0" />
<polygon
   id="polygon4668"
   points="407.8,528.6 407.8,535.49 407.05,535.49 407.05,528.6 "
   style="fill:#000000;stroke-width:0" />
<path
   id="path4670"
   d="m 412.94,535.49 h -0.74 v -2.92 c -0.53,0.44 -1.09,0.55 -1.46,0.55 -0.98,0 -1.76,-1.04 -1.76,-2.32 0,-1.3 0.77,-2.31 1.72,-2.31 0.32,0 0.91,0.09 1.47,0.62 l -0.33,0.26 c -0.23,-0.2 -0.48,-0.28 -0.74,-0.28 -0.61,0 -1.34,0.47 -1.34,1.7 0,1.31 0.86,1.72 1.44,1.72 0.45,0 0.75,-0.23 0.97,-0.54 v -1.99 c 0,-0.14 -0.01,-0.32 -0.33,-0.61 l 0.33,-0.26 v -0.51 h 0.77 z"
   inkscape:connector-curvature="0"
   style="fill:#000000;stroke-width:0" />
<polygon
   id="polygon4672"
   points="418.71,534.47 418.71,535.35 417.83,535.35 417.83,534.47 "
   style="fill:#000000;stroke-width:0" />
<polygon
   id="polygon4674"
   points="418.64,528.6 418.64,533.01 417.9,533.01 417.9,528.6 "
   style="fill:#000000;stroke-width:0" />
<path
   id="path4676"
   d="m 423.8,531.56 0,0.06 0,0.06 -0.01,0.07 0,0.06 -0.01,0.07 0,0.06 -0.01,0.07 -0.01,0.07 -0.02,0.06 -0.01,0.07 -0.02,0.06 -0.02,0.07 -0.03,0.06 -0.02,0.06 -0.03,0.06 -0.04,0.06 -0.03,0.06 -0.05,0.05 -0.04,0.06 -0.05,0.05 -0.05,0.04 -0.06,0.05 -0.06,0.04 -0.07,0.04 -0.03,0.01 -0.04,0.02 -0.04,0.01 -0.04,0.02 -0.04,0.01 -0.04,0.02 -0.04,0.01 -0.05,0.01 -0.04,0.01 -0.05,0 -0.05,0.01 -0.05,0.01 -0.05,0 -0.05,0 -0.06,0.01 -0.05,0 c -0.9,0 -1.39,-0.68 -1.45,-0.76 v 0.71 h -0.71 v -4.47 h 0.77 v 2.43 c 0,0.66 0.25,1.48 1.01,1.48 0.95,0 0.96,-0.7 0.96,-1.02 v -2.89 h 0.78 z"
   inkscape:connector-curvature="0"
   style="fill:#000000;stroke-width:0" />
<path
   id="path4678"
   d="m 432.27,531.56 0,0.06 0,0.06 0,0.07 0,0.06 -0.01,0.07 -0.01,0.06 -0.01,0.07 -0.01,0.07 -0.01,0.06 -0.02,0.07 -0.02,0.06 -0.02,0.07 -0.02,0.06 -0.03,0.06 -0.03,0.06 -0.03,0.06 -0.04,0.06 -0.04,0.05 -0.04,0.06 -0.05,0.05 -0.06,0.04 -0.05,0.05 -0.07,0.04 -0.06,0.04 -0.04,0.01 -0.04,0.02 -0.03,0.01 -0.04,0.02 -0.04,0.01 -0.04,0.02 -0.05,0.01 -0.04,0.01 -0.05,0.01 -0.04,0 -0.05,0.01 -0.05,0.01 -0.05,0 -0.06,0 -0.05,0.01 -0.06,0 c -0.61,0 -1.09,-0.31 -1.41,-0.72 v 3.09 h -0.75 v -6.89 h 0.78 v 2.43 c 0,0.66 0.25,1.48 1,1.48 0.96,0 0.97,-0.7 0.97,-1.02 v -2.89 h 0.77 z"
   inkscape:connector-curvature="0"
   style="fill:#000000;stroke-width:0" />
<path
   id="path4680"
   d="m 437.21,530.77 0,0.03 0,0.04 0,0.04 0,0.04 0,0.04 0,0.04 0,0.05 0,0.04 -0.01,0.05 0,0.05 -0.01,0.05 0,0.05 -0.01,0.06 0,0.05 -0.01,0.06 -0.01,0.05 -0.01,0.06 -0.01,0.06 -0.01,0.06 -0.02,0.06 -0.01,0.06 -0.02,0.06 -0.02,0.06 -0.02,0.05 -0.02,0.06 -0.02,0.06 -0.03,0.06 -0.03,0.06 -0.03,0.06 -0.03,0.06 -0.03,0.05 -0.03,0.06 c -0.41,0.62 -1.02,0.73 -1.38,0.73 -1.1,0 -2,-1.06 -2,-2.34 0,-1.31 0.96,-2.35 2.15,-2.35 0.63,0 1.2,0.24 1.58,0.51 l -0.06,0.65 c -0.62,-0.52 -1.28,-0.56 -1.51,-0.56 -0.79,0 -1.43,0.71 -1.46,1.68 l 0.05,0.55 c 0.16,0.75 0.69,1.25 1.25,1.25 0.52,0 1.08,-0.34 1.21,-1.25 h -2.46 l -0.05,-0.55 z"
   inkscape:connector-curvature="0"
   style="fill:#000000;stroke-width:0" />
<path
   id="path4682"
   d="m 439.08,530.72 0.01,0.1 0,0.09 0.01,0.08 0.02,0.09 0.01,0.09 0.03,0.08 0.02,0.08 0.03,0.08 0.03,0.08 0.04,0.07 0.04,0.07 0.04,0.07 0.05,0.07 0.05,0.06 0.05,0.06 0.05,0.06 0.06,0.06 0.06,0.05 0.07,0.05 0.06,0.05 0.07,0.04 0.07,0.04 0.07,0.04 0.08,0.03 0.08,0.03 0.08,0.03 0.08,0.02 0.08,0.02 0.09,0.02 0.09,0.01 0.08,0.01 0.09,0 v 0.67 c -0.88,-0.01 -1.43,-0.5 -1.74,-0.96 v 0.91 h -0.69 v -4.47 h 0.74 z"
   inkscape:connector-curvature="0"
   style="fill:#000000;stroke-width:0" />
<path
   id="path4684"
   d="m 445.05,530.77 -0.01,0.03 0,0.04 0,0.04 0,0.04 0,0.04 0,0.04 0,0.05 0,0.04 -0.01,0.05 0,0.05 0,0.05 -0.01,0.05 0,0.06 -0.01,0.05 -0.01,0.06 -0.01,0.05 -0.01,0.06 -0.01,0.06 -0.01,0.06 -0.02,0.06 -0.01,0.06 -0.02,0.06 -0.02,0.06 -0.02,0.05 -0.02,0.06 -0.02,0.06 -0.03,0.06 -0.02,0.06 -0.03,0.06 -0.03,0.06 -0.04,0.05 -0.03,0.06 c -0.41,0.62 -1.02,0.73 -1.38,0.73 -1.1,0 -2,-1.06 -2,-2.34 0,-1.31 0.96,-2.35 2.15,-2.35 0.63,0 1.2,0.24 1.59,0.51 l -0.06,0.65 c -0.63,-0.52 -1.29,-0.56 -1.52,-0.56 -0.79,0 -1.43,0.71 -1.46,1.68 l 0.05,0.55 c 0.16,0.75 0.69,1.25 1.25,1.25 0.52,0 1.08,-0.34 1.21,-1.25 h -2.46 l -0.05,-0.55 z"
   inkscape:connector-curvature="0"
   style="fill:#000000;stroke-width:0" />
<polygon
   id="polygon4686"
   points="446.61,530.34 447.27,530.34 447.27,530.76 447.35,535.49 446.53,535.49 446.61,530.76 "
   style="fill:#000000;stroke-width:0" />
<polygon
   id="polygon4688"
   points="447.35,528.6 447.35,529.42 446.53,529.42 446.53,528.6 "
   style="fill:#000000;stroke-width:0" />
<path
   id="path4690"
   d="m 327.5,519.61 h 2.31 c 0.31,0 0.48,0.07 0.48,0.47 0,0.37 -0.13,0.46 -0.48,0.46 h -2.31 v 1.96 h 0.43 c 0.75,0 1.5,-0.03 2.25,-0.03 0.34,0 0.56,0 0.56,0.48 v 0.08 c 0,0.32 -0.06,0.48 -0.47,0.48 h -3.75 c -0.36,0 -0.48,-0.11 -0.48,-0.48 v -5.91 c 0,-0.36 0.11,-0.48 0.48,-0.48 h 0.5 c 0.38,0 0.48,0.13 0.48,0.48 z"
   inkscape:connector-curvature="0"
   style="fill:#000000;stroke-width:0" />
<path
   id="path4692"
   d="m 335.53,519.78 0,0.07 0,0.07 -0.01,0.07 -0.01,0.07 -0.01,0.06 -0.01,0.06 -0.01,0.06 -0.02,0.06 -0.01,0.05 -0.02,0.06 -0.02,0.05 -0.02,0.05 -0.03,0.05 -0.02,0.04 -0.03,0.05 -0.02,0.04 -0.03,0.04 -0.03,0.04 -0.03,0.04 -0.04,0.03 -0.06,0.07 -0.07,0.06 -0.08,0.05 -0.08,0.05 -0.08,0.05 -0.08,0.04 -0.08,0.03 -0.09,0.03 -0.08,0.03 -0.09,0.02 -0.08,0.02 -0.08,0.02 -0.09,0.01 -0.08,0.01 -0.07,0.01 -0.08,0.01 -0.07,0 -0.07,0.01 -0.07,0 -0.06,0 -0.05,0 -0.05,0 c -0.47,0 -0.97,-0.04 -1.63,-0.32 -0.21,-0.09 -0.26,-0.12 -0.26,-0.23 0,-0.07 0.06,-0.64 0.07,-0.72 0.01,-0.06 0.06,-0.11 0.13,-0.11 0.05,0 0.08,0.03 0.11,0.06 0.43,0.44 0.92,0.66 1.54,0.66 0.54,0 0.7,-0.32 0.7,-0.91 v -0.35 -0.41 -0.86 c 0,-0.92 -0.95,-0.92 -0.98,-0.92 -0.42,0 -0.68,0.35 -0.68,0.73 0,0.98 1.38,1.05 1.66,1.05 v 0.41 c -0.35,0 -2.96,-0.02 -2.96,-1.48 0,-0.69 0.56,-1.43 1.43,-1.43 0.34,0 1.09,0.1 1.56,0.79 v -0.2 c 0,-0.32 0.07,-0.48 0.47,-0.48 h 0.37 c 0.38,0 0.48,0.13 0.48,0.48 z"
   inkscape:connector-curvature="0"
   style="fill:#000000;stroke-width:0" />
<path
   id="path4694"
   d="m 338.31,520.47 h 0.89 c 0.12,0 0.48,0 0.48,0.36 0,0.36 -0.36,0.36 -0.48,0.36 h -0.89 v 0.83 c 0,0.31 -0.07,0.47 -0.48,0.47 h -0.3 c -0.36,0 -0.48,-0.11 -0.48,-0.47 v -0.83 h -0.23 c -0.11,0 -0.48,0 -0.48,-0.36 0,-0.36 0.36,-0.36 0.48,-0.36 h 0.2 v -2.51 c 0,-1 0.36,-1.43 1.04,-1.43 0.09,0 0.53,0 1.05,0.16 0.17,0.05 0.75,0.23 0.75,0.42 0,0.03 -0.03,0.1 -0.09,0.31 -0.04,0.19 -0.07,0.25 -0.15,0.25 -0.05,0 -0.06,-0.01 -0.12,-0.07 -0.11,-0.07 -0.38,-0.29 -0.8,-0.29 -0.24,0 -0.39,0.16 -0.39,0.82 z"
   inkscape:connector-curvature="0"
   style="fill:#000000;stroke-width:0" />
<path
   id="path4696"
   d="m 345.14,519.87 0,0.09 0,0.09 -0.01,0.09 -0.01,0.09 -0.01,0.08 -0.01,0.07 -0.02,0.08 -0.02,0.07 -0.02,0.06 -0.03,0.06 -0.03,0.07 -0.03,0.05 -0.03,0.06 -0.04,0.05 -0.04,0.04 -0.04,0.05 -0.05,0.04 -0.05,0.04 -0.05,0.03 -0.05,0.04 -0.06,0.03 -0.06,0.02 -0.07,0.03 -0.06,0.02 -0.07,0.02 -0.08,0.02 -0.07,0.01 -0.08,0.01 -0.09,0.01 -0.08,0.01 -0.09,0 -0.1,0 c -0.99,0 -1.45,-0.69 -1.59,-0.96 h -0.01 v 2.72 c 0,0.32 -0.07,0.47 -0.48,0.47 h -0.37 c -0.35,0 -0.47,-0.1 -0.47,-0.47 v -5.94 c 0,-0.36 0.11,-0.48 0.47,-0.48 h 0.4 c 0.38,0 0.48,0.13 0.48,0.48 v 2.19 c 0,0.87 0.58,1.28 1.09,1.28 0.48,0 0.58,-0.23 0.58,-0.74 v -2.73 c 0,-0.32 0.07,-0.48 0.48,-0.48 h 0.4 c 0.38,0 0.47,0.13 0.47,0.48 z"
   inkscape:connector-curvature="0"
   style="fill:#000000;stroke-width:0" />
<path
   id="path4698"
   d="m 350.05,518.77 0.04,0 0.04,0 0.03,0 0.02,0 0.02,0 0.02,0.01 0.02,0 0.02,0 0.02,0.01 0.02,0 0.02,0.01 0.02,0.01 0.02,0.01 0.01,0.01 0.02,0.01 0.02,0.01 0.01,0.02 0.02,0.01 0.01,0.02 0.01,0.01 0,0.01 0.01,0.01 0,0.01 0.01,0.01 0,0.01 0.01,0.02 0,0.01 0.01,0.01 0,0.02 0.01,0.01 0,0.01 0,0.02 0,0.02 0.01,0.01 0,0.02 0,0.02 0,0.02 0,0.01 0.01,0.02 0,0.02 0,0.02 c 0,1.29 -0.6,2.14 -2.08,2.14 -1.59,0 -2.38,-0.89 -2.38,-2.4 0,-1.63 0.94,-2.43 2.51,-2.43 0.37,0 0.94,0.05 1.6,0.38 0.22,0.11 0.29,0.14 0.29,0.26 0,0.07 -0.03,0.36 -0.04,0.43 -0.04,0.31 -0.05,0.32 -0.14,0.32 -0.04,0 -0.06,0 -0.17,-0.1 -0.59,-0.5 -1.19,-0.57 -1.5,-0.57 -1.13,0 -1.25,0.88 -1.28,1.52 l 0.01,0.52 c 0.03,0.61 0.23,1.35 1.1,1.35 0.79,0 0.94,-0.57 0.97,-1.35 h -2.07 l -0.01,-0.52 z"
   inkscape:connector-curvature="0"
   style="fill:#000000;stroke-width:0" />
<path
   id="path4700"
   d="m 352.78,518.93 0.01,0.08 0,0.09 0.01,0.08 0.02,0.07 0.02,0.08 0.02,0.07 0.03,0.07 0.03,0.06 0.03,0.07 0.03,0.05 0.04,0.06 0.04,0.05 0.05,0.05 0.05,0.05 0.04,0.05 0.05,0.04 0.06,0.04 0.05,0.04 0.06,0.03 0.05,0.03 0.06,0.03 0.06,0.03 0.06,0.03 0.06,0.02 0.06,0.02 0.06,0.02 0.06,0.01 0.06,0.02 0.07,0.01 0.06,0.01 0.06,0 0.06,0.01 c 0.17,0.01 0.19,0.01 0.19,0.27 v 0.46 c 0,0.2 0,0.27 -0.18,0.27 -0.27,0 -1,-0.1 -1.47,-1.17 h -0.01 v 0.64 c 0,0.32 -0.07,0.48 -0.47,0.48 h -0.32 c -0.36,0 -0.48,-0.11 -0.48,-0.48 v -3.65 c 0,-0.36 0.11,-0.48 0.48,-0.48 h 0.36 c 0.38,0 0.48,0.13 0.48,0.48 z"
   inkscape:connector-curvature="0"
   style="fill:#000000;stroke-width:0" />
<path
   id="path4702"
   d="m 364.01,519.61 h -2.1 v -0.62 h 1.31 v -1.61 c -0.4,-0.14 -0.87,-0.21 -1.3,-0.21 -1.31,0 -2.33,1.32 -2.33,2.93 0,1.56 0.99,2.91 2.31,2.91 0.8,0 1.37,-0.24 1.88,-0.66 l 0.14,0.82 c -0.56,0.35 -1.34,0.48 -1.99,0.48 -1.92,0 -3.23,-1.73 -3.23,-3.55 0,-1.81 1.32,-3.57 3.23,-3.57 0.73,0 1.41,0.2 2.08,0.49 z"
   inkscape:connector-curvature="0"
   style="fill:#000000;stroke-width:0" />
<path
   id="path4704"
   d="m 369.35,518.83 -0.01,0.12 -0.01,0.12 -0.01,0.12 -0.02,0.12 -0.02,0.12 -0.03,0.11 -0.04,0.11 -0.04,0.11 -0.04,0.11 -0.05,0.1 -0.05,0.1 -0.06,0.1 -0.06,0.09 -0.07,0.09 -0.07,0.09 -0.07,0.08 -0.08,0.08 -0.08,0.08 -0.08,0.07 -0.08,0.06 -0.09,0.07 -0.09,0.05 -0.1,0.06 -0.09,0.04 -0.1,0.05 -0.1,0.03 -0.1,0.04 -0.11,0.02 -0.11,0.02 -0.1,0.02 -0.11,0.01 -0.11,0 -0.01,-0.61 c 0.69,0 1.41,-0.51 1.41,-1.68 0,-1.18 -0.68,-1.76 -1.41,-1.76 h 0 c -0.69,0 -1.4,0.55 -1.4,1.76 0,1.2 0.75,1.68 1.4,1.68 l 0.01,0.61 c -1.23,0 -2.19,-1.09 -2.19,-2.39 0,-1.31 1.01,-2.3 2.18,-2.3 1.19,0 2.19,1 2.19,2.3 z"
   inkscape:connector-curvature="0"
   style="fill:#000000;stroke-width:0" />
<path
   id="path4706"
   d="m 376.39,520.9 -0.05,0.02 -0.04,0.03 -0.1,0.04 -0.09,0.03 -0.09,0.03 -0.09,0.03 -0.09,0.03 -0.08,0.02 -0.09,0.02 -0.08,0.02 -0.09,0.01 -0.09,0.02 -0.09,0 -0.08,0.01 -0.1,0.01 -0.09,0 -0.09,0 c -0.25,0 -1.65,0 -1.65,-1.3 0,-0.49 0.29,-0.81 0.53,-0.99 0.31,-0.22 0.53,-0.26 1.08,-0.37 0.36,-0.07 0.93,-0.19 0.93,-0.72 0,-0.68 -0.78,-0.68 -0.93,-0.68 -0.81,0 -1.36,0.37 -1.54,0.48 l -0.12,-0.67 c 0.32,-0.16 0.86,-0.44 1.67,-0.44 0.18,0 0.72,0 1.15,0.32 0.31,0.24 0.48,0.63 0.48,1.06 0,0.55 -0.37,0.89 -0.39,0.92 -0.38,0.34 -0.65,0.4 -1.15,0.49 -0.55,0.11 -1.01,0.21 -1.01,0.7 0,0.61 0.72,0.61 0.85,0.61 0.32,0 0.84,-0.04 1.41,-0.37 z"
   inkscape:connector-curvature="0"
   style="fill:#000000;stroke-width:0" />
<path
   id="path4708"
   d="m 378.54,520.47 h 1.4 v 0.58 h -1.4 v 1.26 h -0.69 v -1.26 h -0.86 v -0.58 h 0.83 v -2.65 c 0,-0.59 0.14,-1.29 0.83,-1.29 0.69,0 1.2,0.25 1.45,0.38 l -0.16,0.58 c -0.26,-0.2 -0.58,-0.32 -0.89,-0.32 -0.37,0 -0.51,0.3 -0.51,0.82 z"
   inkscape:connector-curvature="0"
   style="fill:#000000;stroke-width:0" />
<path
   id="path4710"
   d="m 384.36,519.51 0,0.1 0,0.09 -0.01,0.09 -0.02,0.09 -0.02,0.08 -0.02,0.09 -0.02,0.08 -0.03,0.08 -0.04,0.07 -0.03,0.08 -0.04,0.07 -0.04,0.07 -0.05,0.06 -0.05,0.07 -0.05,0.06 -0.05,0.06 -0.06,0.05 -0.06,0.05 -0.06,0.05 -0.07,0.05 -0.06,0.04 -0.07,0.04 -0.07,0.03 -0.07,0.04 -0.08,0.03 -0.08,0.02 -0.07,0.02 -0.08,0.02 -0.09,0.01 -0.08,0.01 -0.08,0.01 -0.09,0 c -0.64,0 -1.09,-0.16 -1.56,-0.43 l 0.06,-0.65 c 0.52,0.37 1.02,0.49 1.5,0.49 0.47,0 0.87,-0.39 0.87,-1.13 v -0.42 c -1.49,-0.03 -2.76,-0.44 -2.76,-1.32 0,-0.42 0.27,-1.23 1.14,-1.23 0.14,0 1.07,0.02 1.65,0.47 l -0.37,0.33 c -0.29,-0.18 -0.67,-0.19 -0.78,-0.19 -0.47,0 -0.92,0.23 -0.92,0.64 0,0.7 1.61,0.77 2.04,0.79 v -0.62 c 0,-0.19 0,-0.43 -0.34,-0.62 l 0.37,-0.33 v -0.36 h 0.74 z"
   inkscape:connector-curvature="0"
   style="fill:#000000;stroke-width:0" />
<path
   id="path4712"
   d="m 389.51,519.6 0,0.06 0,0.07 0,0.06 -0.01,0.07 0,0.06 -0.01,0.07 -0.01,0.07 -0.01,0.06 -0.01,0.07 -0.02,0.06 -0.02,0.07 -0.02,0.06 -0.02,0.07 -0.03,0.06 -0.03,0.06 -0.04,0.06 -0.03,0.05 -0.04,0.06 -0.05,0.05 -0.05,0.05 -0.05,0.05 -0.06,0.04 -0.06,0.04 -0.07,0.04 -0.03,0.02 -0.04,0.01 -0.04,0.02 -0.04,0.01 -0.04,0.02 -0.04,0.01 -0.04,0.01 -0.04,0.01 -0.05,0.01 -0.05,0.01 -0.05,0.01 -0.05,0 -0.05,0.01 -0.05,0 -0.06,0 -0.05,0 c -0.9,0 -1.38,-0.68 -1.45,-0.75 v 0.7 h -0.71 v -4.47 h 0.78 v 2.44 c 0,0.65 0.24,1.47 1,1.47 0.96,0 0.96,-0.7 0.96,-1.02 v -2.89 h 0.78 z"
   inkscape:connector-curvature="0"
   style="fill:#000000;stroke-width:0" />
<path
   id="path4714"
   d="m 394.65,523.53 h -0.75 v -2.92 c -0.52,0.44 -1.08,0.55 -1.45,0.55 -0.99,0 -1.76,-1.03 -1.76,-2.31 0,-1.31 0.76,-2.32 1.71,-2.32 0.33,0 0.92,0.09 1.47,0.63 l -0.33,0.26 c -0.22,-0.2 -0.47,-0.28 -0.73,-0.28 -0.62,0 -1.35,0.46 -1.35,1.7 0,1.31 0.86,1.71 1.45,1.71 0.45,0 0.74,-0.22 0.96,-0.54 v -1.99 c 0,-0.14 -0.01,-0.32 -0.33,-0.6 l 0.33,-0.26 v -0.52 h 0.78 z"
   inkscape:connector-curvature="0"
   style="fill:#000000;stroke-width:0" />
<polygon
   id="polygon4716"
   points="400.43,522.51 400.43,523.4 399.54,523.4 399.54,522.51 "
   style="fill:#000000;stroke-width:0" />
<polygon
   id="polygon4718"
   points="400.36,516.64 400.36,521.05 399.61,521.05 399.61,516.64 "
   style="fill:#000000;stroke-width:0" />
<path
   id="path4720"
   d="m 405.51,519.6 0,0.06 0,0.07 0,0.06 0,0.07 -0.01,0.06 -0.01,0.07 -0.01,0.07 -0.01,0.06 -0.01,0.07 -0.02,0.06 -0.02,0.07 -0.02,0.06 -0.02,0.07 -0.03,0.06 -0.03,0.06 -0.03,0.06 -0.04,0.05 -0.04,0.06 -0.05,0.05 -0.04,0.05 -0.06,0.05 -0.05,0.04 -0.07,0.04 -0.06,0.04 -0.04,0.02 -0.04,0.01 -0.03,0.02 -0.04,0.01 -0.04,0.02 -0.04,0.01 -0.05,0.01 -0.04,0.01 -0.05,0.01 -0.04,0.01 -0.05,0.01 -0.05,0 -0.06,0.01 -0.05,0 -0.05,0 -0.06,0 c -0.89,0 -1.38,-0.68 -1.44,-0.75 v 0.7 h -0.72 v -4.47 h 0.78 v 2.44 c 0,0.65 0.25,1.47 1,1.47 0.96,0 0.97,-0.7 0.97,-1.02 v -2.89 h 0.77 z"
   inkscape:connector-curvature="0"
   style="fill:#000000;stroke-width:0" />
<path
   id="path4722"
   d="m 411.39,520.47 h 1.41 v 0.58 h -1.41 v 1.26 h -0.68 v -1.26 h -0.87 v -0.58 h 0.84 v -2.65 c 0,-0.59 0.14,-1.29 0.82,-1.29 0.7,0 1.21,0.25 1.45,0.38 l -0.15,0.58 c -0.26,-0.2 -0.58,-0.32 -0.9,-0.32 -0.37,0 -0.51,0.3 -0.51,0.82 z"
   inkscape:connector-curvature="0"
   style="fill:#000000;stroke-width:0" />
<path
   id="path4724"
   d="m 417.58,519.6 0,0.06 -0.01,0.07 0,0.06 0,0.07 -0.01,0.06 -0.01,0.07 0,0.07 -0.02,0.06 -0.01,0.07 -0.02,0.06 -0.01,0.07 -0.03,0.06 -0.02,0.07 -0.03,0.06 -0.03,0.06 -0.03,0.06 -0.04,0.05 -0.04,0.06 -0.04,0.05 -0.05,0.05 -0.06,0.05 -0.05,0.04 -0.07,0.04 -0.06,0.04 -0.04,0.02 -0.03,0.01 -0.04,0.02 -0.04,0.01 -0.04,0.02 -0.04,0.01 -0.05,0.01 -0.04,0.01 -0.05,0.01 -0.04,0.01 -0.05,0.01 -0.05,0 -0.05,0.01 -0.06,0 -0.05,0 -0.06,0 c -0.61,0 -1.09,-0.31 -1.41,-0.71 v 3.08 h -0.75 v -6.89 h 0.78 v 2.44 c 0,0.65 0.25,1.47 1,1.47 0.96,0 0.97,-0.7 0.97,-1.02 v -2.89 h 0.78 z"
   inkscape:connector-curvature="0"
   style="fill:#000000;stroke-width:0" />
<path
   id="path4726"
   d="m 422.52,518.82 -0.01,0.03 0,0.03 0,0.04 0,0.04 0,0.04 0,0.05 0,0.04 0,0.05 -0.01,0.05 0,0.05 0,0.05 -0.01,0.05 0,0.05 -0.01,0.06 -0.01,0.05 -0.01,0.06 -0.01,0.06 -0.01,0.05 -0.01,0.06 -0.02,0.06 -0.01,0.06 -0.02,0.06 -0.02,0.06 -0.02,0.06 -0.02,0.06 -0.02,0.06 -0.03,0.06 -0.02,0.06 -0.03,0.05 -0.03,0.06 -0.04,0.06 -0.03,0.05 c -0.41,0.62 -1.02,0.73 -1.38,0.73 -1.1,0 -2,-1.05 -2,-2.33 0,-1.31 0.96,-2.36 2.15,-2.36 0.63,0 1.2,0.24 1.59,0.52 l -0.06,0.64 c -0.63,-0.51 -1.29,-0.55 -1.52,-0.55 -0.79,0 -1.43,0.7 -1.46,1.68 l 0.05,0.54 c 0.16,0.76 0.69,1.25 1.25,1.25 0.52,0 1.08,-0.33 1.21,-1.25 h -2.46 l -0.05,-0.54 z"
   inkscape:connector-curvature="0"
   style="fill:#000000;stroke-width:0" />
<path
   id="path4728"
   d="m 430.22,520.79 -0.05,0.03 -0.06,0.03 -0.05,0.03 -0.05,0.03 -0.05,0.02 -0.05,0.03 -0.04,0.02 -0.05,0.02 -0.05,0.02 -0.04,0.02 -0.05,0.02 -0.04,0.02 -0.09,0.03 -0.09,0.02 -0.09,0.03 -0.09,0.01 -0.09,0.02 -0.09,0.01 -0.05,0.01 -0.05,0 -0.05,0 -0.05,0.01 -0.05,0 -0.05,0 -0.06,0 -0.05,0 c -1.39,0 -2.19,-1.2 -2.19,-2.37 0,-1.24 0.9,-2.32 2.15,-2.32 0.54,0 1.08,0.14 1.62,0.51 l -0.06,0.66 c -0.51,-0.39 -1.04,-0.53 -1.55,-0.53 -0.83,0 -1.39,0.71 -1.39,1.69 0,0.77 0.37,1.73 1.43,1.73 0.51,0 0.85,-0.08 1.4,-0.44 z"
   inkscape:connector-curvature="0"
   style="fill:#000000;stroke-width:0" />
<path
   id="path4730"
   d="m 435.23,518.83 0,0.12 -0.01,0.12 -0.01,0.12 -0.02,0.12 -0.02,0.12 -0.03,0.11 -0.04,0.11 -0.04,0.11 -0.04,0.11 -0.05,0.1 -0.05,0.1 -0.06,0.1 -0.06,0.09 -0.07,0.09 -0.07,0.09 -0.07,0.08 -0.08,0.08 -0.08,0.08 -0.08,0.07 -0.08,0.06 -0.09,0.07 -0.09,0.05 -0.1,0.06 -0.09,0.04 -0.1,0.05 -0.1,0.03 -0.11,0.04 -0.1,0.02 -0.11,0.02 -0.1,0.02 -0.11,0.01 -0.11,0 -0.01,-0.61 c 0.69,0 1.41,-0.51 1.41,-1.68 0,-1.18 -0.68,-1.76 -1.41,-1.76 h 0 c -0.69,0 -1.41,0.55 -1.41,1.76 0,1.2 0.76,1.68 1.41,1.68 l 0.01,0.61 c -1.23,0 -2.19,-1.09 -2.19,-2.39 0,-1.31 1.01,-2.3 2.18,-2.3 1.19,0 2.18,1 2.18,2.3 z"
   inkscape:connector-curvature="0"
   style="fill:#000000;stroke-width:0" />
<path
   id="path4732"
   d="m 436.84,518.77 0.01,0.09 0,0.09 0.01,0.09 0.02,0.09 0.01,0.08 0.03,0.08 0.02,0.08 0.03,0.08 0.03,0.08 0.04,0.07 0.04,0.08 0.04,0.06 0.05,0.07 0.05,0.07 0.05,0.06 0.05,0.06 0.06,0.05 0.06,0.05 0.06,0.05 0.07,0.05 0.07,0.04 0.07,0.05 0.07,0.03 0.08,0.04 0.08,0.03 0.08,0.02 0.08,0.03 0.08,0.02 0.09,0.01 0.08,0.01 0.09,0.01 0.09,0 v 0.67 c -0.88,-0.01 -1.43,-0.5 -1.74,-0.95 v 0.9 h -0.69 v -4.47 h 0.74 z"
   inkscape:connector-curvature="0"
   style="fill:#000000;stroke-width:0" />
<path
   id="path4734"
   d="m 443.01,519.6 0,0.06 0,0.07 0,0.06 -0.01,0.07 0,0.06 -0.01,0.07 -0.01,0.07 -0.01,0.06 -0.01,0.07 -0.02,0.06 -0.02,0.07 -0.02,0.06 -0.02,0.07 -0.03,0.06 -0.03,0.06 -0.03,0.06 -0.04,0.05 -0.04,0.06 -0.05,0.05 -0.05,0.05 -0.05,0.05 -0.06,0.04 -0.06,0.04 -0.06,0.04 -0.04,0.02 -0.04,0.01 -0.03,0.02 -0.04,0.01 -0.04,0.02 -0.05,0.01 -0.04,0.01 -0.04,0.01 -0.05,0.01 -0.05,0.01 -0.04,0.01 -0.05,0 -0.06,0.01 -0.05,0 -0.05,0 -0.06,0 c -0.9,0 -1.38,-0.68 -1.44,-0.75 v 0.7 h -0.72 v -4.47 h 0.78 v 2.44 c 0,0.65 0.25,1.47 1,1.47 0.96,0 0.97,-0.7 0.97,-1.02 v -2.89 h 0.77 z"
   inkscape:connector-curvature="0"
   style="fill:#000000;stroke-width:0" />
<path
   id="path4736"
   d="m 447.94,518.82 0,0.03 0,0.03 0,0.04 0,0.04 0,0.04 0,0.05 0,0.04 -0.01,0.05 0,0.05 0,0.05 -0.01,0.05 0,0.05 -0.01,0.05 0,0.06 -0.01,0.05 -0.01,0.06 -0.01,0.06 -0.01,0.05 -0.02,0.06 -0.01,0.06 -0.01,0.06 -0.02,0.06 -0.02,0.06 -0.02,0.06 -0.02,0.06 -0.03,0.06 -0.02,0.06 -0.03,0.06 -0.03,0.05 -0.03,0.06 -0.03,0.06 -0.04,0.05 c -0.4,0.62 -1.01,0.73 -1.37,0.73 -1.1,0 -2,-1.05 -2,-2.33 0,-1.31 0.96,-2.36 2.15,-2.36 0.63,0 1.19,0.24 1.58,0.52 l -0.06,0.64 c -0.63,-0.51 -1.28,-0.55 -1.51,-0.55 -0.8,0 -1.43,0.7 -1.46,1.68 l 0.05,0.54 c 0.16,0.76 0.68,1.25 1.25,1.25 0.52,0 1.07,-0.33 1.21,-1.25 h -2.46 l -0.05,-0.54 z"
   inkscape:connector-curvature="0"
   style="fill:#000000;stroke-width:0" />
<path
   id="path4738"
   d="m 449.82,518.77 0,0.09 0.01,0.09 0.01,0.09 0.01,0.09 0.02,0.08 0.02,0.08 0.03,0.08 0.03,0.08 0.03,0.08 0.04,0.07 0.04,0.08 0.04,0.06 0.05,0.07 0.04,0.07 0.06,0.06 0.05,0.06 0.06,0.05 0.06,0.05 0.06,0.05 0.07,0.05 0.07,0.04 0.07,0.05 0.07,0.03 0.08,0.04 0.08,0.03 0.07,0.02 0.09,0.03 0.08,0.02 0.09,0.01 0.08,0.01 0.09,0.01 0.09,0 v 0.67 c -0.88,-0.01 -1.43,-0.5 -1.74,-0.95 v 0.9 h -0.69 v -4.47 h 0.74 z"
   inkscape:connector-curvature="0"
   style="fill:#000000;stroke-width:0" />
<polygon
   id="polygon4740"
   points="453.45,516.64 453.45,517.47 452.63,517.47 452.63,516.64 "
   style="fill:#000000;stroke-width:0" />
<path
   id="path4742"
   d="m 327.82,509.07 -0.02,0 -0.03,0.01 -0.02,0.01 -0.03,0 -0.03,0.01 -0.03,0.01 -0.03,0.02 -0.03,0.01 -0.04,0.01 -0.03,0.02 -0.04,0.02 -0.03,0.02 -0.04,0.02 -0.03,0.02 -0.04,0.02 -0.03,0.03 -0.03,0.02 -0.04,0.03 -0.03,0.03 -0.03,0.03 -0.03,0.03 -0.03,0.03 -0.02,0.04 -0.03,0.04 -0.02,0.04 -0.02,0.04 -0.01,0.04 -0.02,0.04 0,0.03 -0.01,0.02 0,0.02 -0.01,0.03 0,0.02 0,0.03 0,0.02 -0.01,0.03 c 0,0.85 0.85,0.86 1.19,0.86 0.56,0 1.05,-0.12 1.54,-0.6 0.16,-0.15 0.17,-0.16 0.21,-0.16 0.06,0 0.11,0.03 0.14,0.18 l 0.15,0.86 c 0.02,0.08 0.02,0.1 0.02,0.13 0,0.08 -0.01,0.09 -0.26,0.22 -0.71,0.35 -1.29,0.4 -1.8,0.4 -0.89,0 -2.43,-0.21 -2.43,-2.07 0,-0.7 0.37,-1.16 0.56,-1.36 0.5,-0.51 0.97,-0.61 1.75,-0.79 0.56,-0.13 0.78,-0.18 0.99,-0.38 0.1,-0.1 0.31,-0.31 0.31,-0.69 0,-0.93 -0.85,-0.96 -1.18,-0.96 -0.84,0 -1.56,0.34 -2.06,0.78 -0.12,0.12 -0.14,0.12 -0.18,0.12 -0.06,0 -0.11,-0.03 -0.14,-0.18 l -0.15,-0.86 c -0.02,-0.08 -0.02,-0.1 -0.02,-0.13 0,-0.21 1.04,-0.56 1.09,-0.58 0.66,-0.21 1.2,-0.23 1.46,-0.23 1.49,0 2.43,0.66 2.43,2.2 0,1.12 -0.83,1.95 -1.83,2.18 z"
   inkscape:connector-curvature="0"
   style="fill:#000000;stroke-width:0" />
<path
   id="path4744"
   d="m 336.38,506.92 -0.01,0.15 0,0.15 -0.02,0.14 -0.01,0.14 -0.02,0.13 -0.03,0.13 -0.03,0.12 -0.03,0.12 -0.04,0.11 -0.05,0.11 -0.05,0.1 -0.05,0.1 -0.06,0.1 -0.06,0.09 -0.07,0.08 -0.07,0.08 -0.08,0.08 -0.08,0.07 -0.09,0.07 -0.09,0.06 -0.1,0.06 -0.1,0.05 -0.11,0.04 -0.11,0.05 -0.12,0.03 -0.12,0.04 -0.12,0.02 -0.13,0.03 -0.14,0.01 -0.14,0.01 -0.14,0.01 -0.15,0 -0.01,-0.71 c 1.07,0 1.07,-0.87 1.07,-1.65 0,-0.78 0,-1.69 -1.06,-1.69 h 0 c -1.08,0 -1.08,0.9 -1.08,1.69 0,0.76 0,1.65 1.07,1.65 l 0.01,0.71 c -1.66,0 -2.43,-0.88 -2.43,-2.48 0,-1.62 0.86,-2.34 2.42,-2.34 1.56,0 2.43,0.71 2.43,2.34 z"
   inkscape:connector-curvature="0"
   style="fill:#000000;stroke-width:0" />
<path
   id="path4746"
   d="m 341.68,507.92 -0.01,0.09 0,0.09 -0.01,0.09 0,0.08 -0.02,0.08 -0.01,0.08 -0.02,0.07 -0.02,0.07 -0.02,0.07 -0.03,0.06 -0.02,0.06 -0.04,0.06 -0.03,0.05 -0.04,0.05 -0.04,0.05 -0.04,0.04 -0.05,0.05 -0.04,0.03 -0.06,0.04 -0.05,0.03 -0.06,0.03 -0.06,0.03 -0.06,0.02 -0.07,0.03 -0.07,0.01 -0.08,0.02 -0.07,0.01 -0.08,0.02 -0.09,0 -0.08,0.01 -0.09,0 -0.1,0.01 c -1.04,0 -1.49,-0.76 -1.62,-1.03 h -0.01 v 0.5 c 0,0.32 -0.07,0.48 -0.48,0.48 h -0.33 c -0.36,0 -0.48,-0.11 -0.48,-0.48 v -3.66 c 0,-0.36 0.11,-0.47 0.48,-0.47 h 0.39 c 0.38,0 0.48,0.13 0.48,0.47 v 2.2 c 0,0.86 0.58,1.27 1.1,1.27 0.47,0 0.57,-0.23 0.57,-0.74 v -2.73 c 0,-0.31 0.07,-0.47 0.48,-0.47 h 0.4 c 0.38,0 0.48,0.13 0.48,0.47 z"
   inkscape:connector-curvature="0"
   style="fill:#000000;stroke-width:0" />
<path
   id="path4748"
   d="m 354.86,511.58 h -0.72 l -0.91,-3.12 c -0.25,-0.88 -0.73,-2.55 -0.78,-3.06 h -0.01 c 0,0.01 -0.06,0.53 -0.72,2.79 l -0.97,3.39 h -0.81 l -0.89,-3.1 c -0.22,-0.76 -0.72,-2.5 -0.77,-3.06 h -0.01 c -0.04,0.4 -0.31,1.37 -0.39,1.7 l -0.47,1.66 -0.8,2.8 h -0.86 l 2.02,-6.89 h 0.81 l 0.99,3.44 c 0.21,0.73 0.64,2.21 0.7,2.73 h 0.01 c 0.04,-0.3 0.28,-1.25 0.55,-2.19 l 1.14,-3.98 h 0.87 z"
   inkscape:connector-curvature="0"
   style="fill:#000000;stroke-width:0" />
<path
   id="path4750"
   d="m 359.35,507.65 0,0.06 0,0.06 0,0.07 -0.01,0.06 0,0.07 -0.01,0.06 -0.01,0.07 -0.01,0.07 -0.01,0.06 -0.02,0.07 -0.02,0.06 -0.02,0.07 -0.02,0.06 -0.03,0.06 -0.03,0.06 -0.04,0.06 -0.03,0.06 -0.04,0.05 -0.05,0.06 -0.05,0.05 -0.05,0.04 -0.06,0.05 -0.06,0.04 -0.07,0.03 -0.03,0.02 -0.04,0.02 -0.04,0.01 -0.04,0.02 -0.04,0.01 -0.04,0.01 -0.04,0.02 -0.05,0.01 -0.04,0.01 -0.05,0 -0.05,0.01 -0.05,0.01 -0.05,0 -0.05,0 -0.06,0.01 -0.05,0 c -0.62,0 -1.1,-0.31 -1.41,-0.72 v 3.09 h -0.75 v -6.89 h 0.78 v 2.43 c 0,0.65 0.24,1.48 1,1.48 0.96,0 0.97,-0.71 0.97,-1.02 v -2.89 h 0.77 z"
   inkscape:connector-curvature="0"
   style="fill:#000000;stroke-width:0" />
<path
   id="path4752"
   d="m 364.61,509.1 h -0.75 c -1.29,-3.16 -1.31,-3.62 -1.32,-3.85 h -0.01 c -0.06,0.67 -0.86,2.52 -0.9,2.61 l -0.53,1.24 h -0.79 l 1.93,-4.41 c -0.12,-0.31 -0.32,-0.81 -0.36,-0.9 -0.26,-0.57 -0.43,-0.57 -0.57,-0.57 -0.16,0 -0.47,0.04 -0.77,0.16 l 0.06,-0.65 c 0.22,-0.05 0.5,-0.08 0.71,-0.08 0.35,0 0.72,0.12 1.13,1.13 z"
   inkscape:connector-curvature="0"
   style="fill:#000000;stroke-width:0" />
<path
   id="path4754"
   d="m 367.3,506.96 0,0.07 0,0.06 0.01,0.06 0.01,0.07 0.01,0.06 0.01,0.07 0.01,0.07 0.01,0.06 0.02,0.07 0.02,0.06 0.02,0.07 0.02,0.06 0.03,0.07 0.03,0.06 0.02,0.07 0.04,0.06 0.03,0.06 0.03,0.07 0.04,0.06 0.04,0.06 0.04,0.07 0.04,0.06 0.05,0.06 0.05,0.06 0.05,0.06 0.05,0.06 0.05,0.06 0.05,0.05 0.06,0.06 0.06,0.06 0.06,0.05 0.07,0.06 c 0.19,0.16 0.56,0.47 0.56,1.19 0,0.68 -0.4,1.54 -1.9,1.54 -0.6,0 -1.14,-0.17 -1.67,-0.53 l 0.23,-0.62 c 0.24,0.22 0.73,0.54 1.44,0.54 0.47,0 1.13,-0.08 1.13,-0.92 0,-0.45 -0.22,-0.64 -0.35,-0.76 -1.13,-0.96 -1.13,-2.23 -1.13,-2.66 v -0.32 h 0.66 z"
   inkscape:connector-curvature="0"
   style="fill:#000000;stroke-width:0" />
<polygon
   id="polygon4756"
   points="366.55,505.51 366.55,504.69 367.38,504.69 367.38,505.51 "
   style="fill:#000000;stroke-width:0" />
<path
   id="path4758"
   d="m 327.5,495.7 h 2.31 c 0.31,0 0.48,0.07 0.48,0.47 0,0.37 -0.13,0.47 -0.48,0.47 h -2.31 v 1.95 h 0.43 c 0.75,0 1.5,-0.03 2.25,-0.03 0.34,0 0.56,0 0.56,0.48 v 0.08 c 0,0.32 -0.06,0.48 -0.47,0.48 h -3.75 c -0.36,0 -0.48,-0.11 -0.48,-0.48 v -5.91 c 0,-0.36 0.11,-0.48 0.48,-0.48 h 0.5 c 0.38,0 0.48,0.13 0.48,0.48 z"
   inkscape:connector-curvature="0"
   style="fill:#000000;stroke-width:0" />
<path
   id="path4760"
   d="m 335.53,495.87 0,0.07 0,0.07 -0.01,0.07 -0.01,0.07 -0.01,0.06 -0.01,0.06 -0.01,0.06 -0.02,0.06 -0.01,0.05 -0.02,0.06 -0.02,0.05 -0.02,0.05 -0.03,0.05 -0.02,0.04 -0.03,0.05 -0.02,0.04 -0.03,0.04 -0.03,0.04 -0.03,0.04 -0.04,0.03 -0.06,0.07 -0.07,0.06 -0.08,0.05 -0.08,0.05 -0.08,0.05 -0.08,0.04 -0.08,0.03 -0.09,0.03 -0.08,0.03 -0.09,0.02 -0.08,0.02 -0.08,0.02 -0.09,0.01 -0.08,0.01 -0.07,0.01 -0.08,0.01 -0.07,0 -0.07,0.01 -0.07,0 -0.06,0 -0.05,0 -0.05,0 c -0.47,0 -0.97,-0.04 -1.63,-0.32 -0.21,-0.09 -0.26,-0.12 -0.26,-0.23 0,-0.07 0.06,-0.64 0.07,-0.72 0.01,-0.06 0.06,-0.11 0.13,-0.11 0.05,0 0.08,0.03 0.11,0.06 0.43,0.45 0.92,0.66 1.54,0.66 0.54,0 0.7,-0.32 0.7,-0.91 v -0.35 -0.41 -0.86 c 0,-0.92 -0.95,-0.92 -0.98,-0.92 -0.42,0 -0.68,0.36 -0.68,0.73 0,0.98 1.38,1.04 1.66,1.05 v 0.41 c -0.35,0 -2.96,-0.02 -2.96,-1.48 0,-0.69 0.56,-1.43 1.43,-1.43 0.34,0 1.09,0.1 1.56,0.79 v -0.2 c 0,-0.32 0.07,-0.48 0.47,-0.48 h 0.37 c 0.38,0 0.48,0.13 0.48,0.48 z"
   inkscape:connector-curvature="0"
   style="fill:#000000;stroke-width:0" />
<path
   id="path4762"
   d="m 338.31,496.57 h 0.89 c 0.12,0 0.48,0 0.48,0.35 0,0.36 -0.36,0.36 -0.48,0.36 h -0.89 v 0.83 c 0,0.31 -0.07,0.47 -0.48,0.47 h -0.3 c -0.36,0 -0.48,-0.11 -0.48,-0.47 v -0.83 h -0.23 c -0.11,0 -0.48,0 -0.48,-0.36 0,-0.35 0.36,-0.35 0.48,-0.35 h 0.2 v -2.52 c 0,-1 0.36,-1.43 1.04,-1.43 0.09,0 0.53,0 1.05,0.16 0.17,0.05 0.75,0.23 0.75,0.42 0,0.03 -0.03,0.1 -0.09,0.31 -0.04,0.19 -0.07,0.25 -0.15,0.25 -0.05,0 -0.06,-0.01 -0.12,-0.06 -0.11,-0.09 -0.38,-0.3 -0.8,-0.3 -0.24,0 -0.39,0.17 -0.39,0.82 z"
   inkscape:connector-curvature="0"
   style="fill:#000000;stroke-width:0" />
<path
   id="path4764"
   d="m 345.14,495.96 0,0.09 0,0.09 -0.01,0.09 -0.01,0.09 -0.01,0.08 -0.01,0.07 -0.02,0.08 -0.02,0.07 -0.02,0.06 -0.03,0.06 -0.03,0.07 -0.03,0.05 -0.03,0.06 -0.04,0.05 -0.04,0.04 -0.04,0.05 -0.05,0.04 -0.05,0.04 -0.05,0.03 -0.05,0.04 -0.06,0.03 -0.06,0.02 -0.07,0.03 -0.06,0.02 -0.07,0.02 -0.08,0.02 -0.07,0.01 -0.08,0.01 -0.09,0.01 -0.08,0.01 -0.09,0 -0.1,0 c -0.99,0 -1.45,-0.69 -1.59,-0.96 h -0.01 v 2.72 c 0,0.32 -0.07,0.47 -0.48,0.47 h -0.37 c -0.35,0 -0.47,-0.1 -0.47,-0.47 v -5.94 c 0,-0.36 0.11,-0.48 0.47,-0.48 h 0.4 c 0.38,0 0.48,0.13 0.48,0.48 v 2.19 c 0,0.87 0.58,1.27 1.09,1.27 0.48,0 0.58,-0.22 0.58,-0.73 v -2.73 c 0,-0.32 0.07,-0.48 0.48,-0.48 h 0.4 c 0.38,0 0.47,0.13 0.47,0.48 z"
   inkscape:connector-curvature="0"
   style="fill:#000000;stroke-width:0" />
<path
   id="path4766"
   d="m 350.05,494.86 0.04,0 0.04,0 0.03,0 0.02,0 0.02,0 0.02,0.01 0.02,0 0.02,0 0.02,0.01 0.02,0 0.02,0.01 0.02,0.01 0.02,0.01 0.01,0.01 0.02,0.01 0.02,0.01 0.01,0.02 0.02,0.01 0.01,0.02 0.01,0.01 0,0.01 0.01,0.01 0,0.01 0.01,0.01 0,0.01 0.01,0.02 0,0.01 0.01,0.01 0,0.02 0.01,0.01 0,0.01 0,0.02 0,0.02 0.01,0.01 0,0.02 0,0.02 0,0.02 0,0.01 0.01,0.02 0,0.02 0,0.02 c 0,1.29 -0.6,2.14 -2.08,2.14 -1.59,0 -2.38,-0.89 -2.38,-2.4 0,-1.63 0.94,-2.43 2.51,-2.43 0.37,0 0.94,0.05 1.6,0.38 0.22,0.11 0.29,0.14 0.29,0.26 0,0.07 -0.03,0.35 -0.04,0.44 -0.04,0.3 -0.05,0.31 -0.14,0.31 -0.04,0 -0.06,0 -0.17,-0.1 -0.59,-0.5 -1.19,-0.57 -1.5,-0.57 -1.13,0 -1.25,0.88 -1.28,1.52 l 0.01,0.52 c 0.03,0.61 0.23,1.35 1.1,1.35 0.79,0 0.94,-0.57 0.97,-1.35 h -2.07 l -0.01,-0.52 z"
   inkscape:connector-curvature="0"
   style="fill:#000000;stroke-width:0" />
<path
   id="path4768"
   d="m 352.78,495.02 0.01,0.08 0,0.09 0.01,0.08 0.02,0.07 0.02,0.08 0.02,0.07 0.03,0.07 0.03,0.06 0.03,0.06 0.03,0.06 0.04,0.06 0.04,0.05 0.05,0.05 0.05,0.05 0.04,0.05 0.05,0.04 0.06,0.04 0.05,0.04 0.06,0.03 0.05,0.03 0.06,0.03 0.06,0.03 0.06,0.03 0.06,0.02 0.06,0.02 0.06,0.02 0.06,0.01 0.06,0.02 0.07,0.01 0.06,0.01 0.06,0 0.06,0.01 c 0.17,0.01 0.19,0.01 0.19,0.26 v 0.47 c 0,0.2 0,0.27 -0.18,0.27 -0.27,0 -1,-0.1 -1.47,-1.17 h -0.01 v 0.64 c 0,0.32 -0.07,0.48 -0.47,0.48 h -0.32 c -0.36,0 -0.48,-0.11 -0.48,-0.48 v -3.65 c 0,-0.36 0.11,-0.48 0.48,-0.48 h 0.36 c 0.38,0 0.48,0.13 0.48,0.48 z"
   inkscape:connector-curvature="0"
   style="fill:#000000;stroke-width:0" />
<path
   id="path4770"
   d="m 361.87,498.93 h 0.88 c 0.12,0 0.24,-0.01 0.36,-0.01 h 1.34 v 0.65 h -6.05 v -0.65 h 1.33 c 0.12,0 0.24,0.01 0.36,0.01 h 0.89 v -6.2 h 0.89 z"
   inkscape:connector-curvature="0"
   style="fill:#000000;stroke-width:0" />
<path
   id="path4772"
   d="m 369.15,495.69 0,0.06 -0.01,0.07 0,0.06 0,0.07 -0.01,0.06 -0.01,0.07 0,0.07 -0.02,0.06 -0.01,0.07 -0.02,0.06 -0.01,0.07 -0.03,0.06 -0.02,0.07 -0.03,0.06 -0.03,0.06 -0.03,0.06 -0.04,0.05 -0.04,0.06 -0.04,0.05 -0.05,0.05 -0.06,0.05 -0.05,0.04 -0.07,0.04 -0.06,0.04 -0.04,0.02 -0.03,0.01 -0.04,0.02 -0.04,0.01 -0.04,0.02 -0.04,0.01 -0.05,0.01 -0.04,0.01 -0.05,0.01 -0.04,0.01 -0.05,0.01 -0.05,0 -0.05,0.01 -0.06,0 -0.05,0 -0.06,0 c -0.61,0 -1.09,-0.31 -1.41,-0.71 v 3.08 h -0.75 v -6.89 h 0.78 v 2.44 c 0,0.65 0.25,1.47 1,1.47 0.96,0 0.97,-0.7 0.97,-1.02 v -2.89 h 0.78 z"
   inkscape:connector-curvature="0"
   style="fill:#000000;stroke-width:0" />
<path
   id="path4774"
   d="m 374.08,494.91 0,0.03 0,0.03 0,0.04 0,0.04 0,0.04 0,0.05 0,0.04 0,0.05 -0.01,0.05 0,0.05 0,0.05 -0.01,0.05 0,0.05 -0.01,0.06 -0.01,0.05 -0.01,0.06 -0.01,0.06 -0.01,0.05 -0.01,0.06 -0.02,0.06 -0.01,0.06 -0.02,0.06 -0.02,0.06 -0.02,0.06 -0.02,0.06 -0.02,0.06 -0.03,0.06 -0.02,0.06 -0.03,0.05 -0.03,0.06 -0.04,0.06 -0.03,0.05 c -0.41,0.62 -1.02,0.73 -1.38,0.73 -1.1,0 -2,-1.05 -2,-2.33 0,-1.31 0.96,-2.36 2.15,-2.36 0.63,0 1.2,0.24 1.59,0.52 l -0.06,0.64 c -0.63,-0.51 -1.29,-0.55 -1.52,-0.55 -0.79,0 -1.43,0.7 -1.46,1.68 l 0.05,0.54 c 0.16,0.76 0.69,1.25 1.25,1.25 0.52,0 1.08,-0.33 1.21,-1.25 h -2.46 l -0.05,-0.54 z"
   inkscape:connector-curvature="0"
   style="fill:#000000;stroke-width:0" />
<path
   id="path4776"
   d="m 381.79,496.88 -0.05,0.03 -0.06,0.03 -0.05,0.03 -0.05,0.03 -0.05,0.02 -0.05,0.03 -0.04,0.02 -0.05,0.02 -0.05,0.02 -0.04,0.02 -0.05,0.02 -0.04,0.02 -0.09,0.03 -0.09,0.02 -0.09,0.03 -0.09,0.01 -0.09,0.02 -0.09,0.01 -0.05,0.01 -0.05,0 -0.05,0 -0.05,0.01 -0.05,0 -0.05,0 -0.06,0 -0.05,0 c -1.38,0 -2.19,-1.2 -2.19,-2.37 0,-1.24 0.91,-2.32 2.15,-2.32 0.54,0 1.08,0.14 1.62,0.51 l -0.06,0.66 c -0.51,-0.39 -1.04,-0.53 -1.55,-0.53 -0.83,0 -1.38,0.71 -1.38,1.69 0,0.77 0.36,1.72 1.42,1.72 0.52,0 0.85,-0.07 1.4,-0.43 z"
   inkscape:connector-curvature="0"
   style="fill:#000000;stroke-width:0" />
<path
   id="path4778"
   d="m 386.8,494.92 0,0.12 -0.01,0.12 -0.01,0.12 -0.02,0.12 -0.02,0.12 -0.03,0.11 -0.04,0.11 -0.04,0.11 -0.04,0.11 -0.05,0.1 -0.05,0.1 -0.06,0.1 -0.06,0.09 -0.07,0.09 -0.07,0.09 -0.07,0.08 -0.08,0.08 -0.08,0.08 -0.08,0.07 -0.08,0.06 -0.09,0.07 -0.09,0.05 -0.1,0.06 -0.09,0.04 -0.1,0.05 -0.1,0.03 -0.11,0.04 -0.1,0.02 -0.11,0.02 -0.1,0.02 -0.11,0.01 -0.11,0 -0.01,-0.61 c 0.69,0 1.41,-0.51 1.41,-1.68 0,-1.18 -0.68,-1.76 -1.41,-1.76 h 0 c -0.69,0 -1.41,0.55 -1.41,1.76 0,1.2 0.76,1.68 1.41,1.68 l 0.01,0.61 c -1.23,0 -2.19,-1.09 -2.19,-2.39 0,-1.31 1.01,-2.3 2.18,-2.3 1.19,0 2.18,1 2.18,2.3 z"
   inkscape:connector-curvature="0"
   style="fill:#000000;stroke-width:0" />
<path
   id="path4780"
   d="m 388.41,494.86 0.01,0.09 0,0.09 0.01,0.09 0.02,0.09 0.01,0.08 0.03,0.08 0.02,0.08 0.03,0.08 0.03,0.08 0.04,0.07 0.04,0.08 0.04,0.06 0.05,0.07 0.05,0.07 0.05,0.06 0.05,0.06 0.06,0.05 0.06,0.05 0.06,0.05 0.07,0.05 0.07,0.04 0.07,0.05 0.07,0.03 0.08,0.04 0.08,0.03 0.08,0.02 0.08,0.03 0.08,0.02 0.09,0.01 0.08,0.01 0.09,0.01 0.09,0 v 0.67 c -0.88,-0.01 -1.43,-0.5 -1.74,-0.95 v 0.9 h -0.69 v -4.47 h 0.74 z"
   inkscape:connector-curvature="0"
   style="fill:#000000;stroke-width:0" />
<path
   id="path4782"
   d="m 394.58,495.69 0,0.06 0,0.07 0,0.06 -0.01,0.07 0,0.06 -0.01,0.07 -0.01,0.07 -0.01,0.06 -0.01,0.07 -0.02,0.06 -0.02,0.07 -0.02,0.06 -0.02,0.07 -0.03,0.06 -0.03,0.06 -0.03,0.06 -0.04,0.05 -0.04,0.06 -0.05,0.05 -0.05,0.05 -0.05,0.05 -0.06,0.04 -0.06,0.04 -0.06,0.04 -0.04,0.02 -0.04,0.01 -0.03,0.02 -0.04,0.01 -0.04,0.02 -0.05,0.01 -0.04,0.01 -0.04,0.01 -0.05,0.01 -0.05,0.01 -0.04,0.01 -0.05,0 -0.06,0.01 -0.05,0 -0.05,0 -0.06,0 c -0.9,0 -1.38,-0.67 -1.44,-0.75 v 0.7 h -0.72 v -4.47 h 0.78 v 2.44 c 0,0.65 0.25,1.47 1,1.47 0.96,0 0.97,-0.7 0.97,-1.02 v -2.89 h 0.77 z"
   inkscape:connector-curvature="0"
   style="fill:#000000;stroke-width:0" />
<path
   id="path4784"
   d="m 399.52,494.91 0,0.03 0,0.03 0,0.04 0,0.04 0,0.04 0,0.05 0,0.04 -0.01,0.05 0,0.05 0,0.05 -0.01,0.05 0,0.05 -0.01,0.05 0,0.06 -0.01,0.05 -0.01,0.06 -0.01,0.06 -0.01,0.05 -0.02,0.06 -0.01,0.06 -0.01,0.06 -0.02,0.06 -0.02,0.06 -0.02,0.06 -0.02,0.06 -0.03,0.06 -0.02,0.06 -0.03,0.06 -0.03,0.05 -0.03,0.06 -0.03,0.06 -0.04,0.05 c -0.4,0.62 -1.01,0.73 -1.37,0.73 -1.1,0 -2,-1.05 -2,-2.33 0,-1.31 0.96,-2.36 2.15,-2.36 0.63,0 1.19,0.24 1.58,0.52 l -0.06,0.64 c -0.62,-0.51 -1.28,-0.55 -1.51,-0.55 -0.8,0 -1.43,0.7 -1.46,1.68 l 0.05,0.54 c 0.16,0.76 0.68,1.25 1.25,1.25 0.52,0 1.08,-0.33 1.2,-1.25 h -2.45 l -0.05,-0.54 z"
   inkscape:connector-curvature="0"
   style="fill:#000000;stroke-width:0" />
<path
   id="path4786"
   d="m 401.39,494.86 0,0.09 0.01,0.09 0.01,0.09 0.01,0.09 0.02,0.08 0.02,0.08 0.03,0.08 0.03,0.08 0.03,0.08 0.04,0.07 0.04,0.08 0.04,0.06 0.05,0.07 0.04,0.07 0.06,0.06 0.05,0.06 0.06,0.05 0.06,0.05 0.06,0.05 0.07,0.05 0.07,0.04 0.07,0.05 0.07,0.03 0.08,0.04 0.08,0.03 0.07,0.02 0.09,0.03 0.08,0.02 0.09,0.01 0.08,0.01 0.09,0.01 0.09,0 v 0.67 c -0.88,-0.01 -1.43,-0.5 -1.74,-0.95 v 0.9 h -0.69 v -4.47 h 0.74 z"
   inkscape:connector-curvature="0"
   style="fill:#000000;stroke-width:0" />
<polygon
   id="polygon4788"
   points="408.17,498.6 408.17,499.49 407.29,499.49 407.29,498.6 "
   style="fill:#000000;stroke-width:0" />
<polygon
   id="polygon4790"
   points="408.1,492.73 408.1,497.14 407.36,497.14 407.36,492.73 "
   style="fill:#000000;stroke-width:0" />
<path
   id="path4792"
   d="m 412.34,496.99 -0.04,0.02 -0.05,0.03 -0.1,0.04 -0.09,0.03 -0.09,0.03 -0.09,0.03 -0.08,0.03 -0.09,0.02 -0.09,0.02 -0.08,0.02 -0.09,0.01 -0.09,0.02 -0.08,0 -0.09,0.01 -0.09,0.01 -0.09,0 -0.1,0 c -0.25,0 -1.65,0 -1.65,-1.3 0,-0.49 0.29,-0.81 0.54,-0.99 0.31,-0.22 0.53,-0.26 1.07,-0.37 0.36,-0.07 0.94,-0.19 0.94,-0.72 0,-0.68 -0.79,-0.68 -0.94,-0.68 -0.8,0 -1.36,0.36 -1.54,0.48 l -0.12,-0.67 c 0.32,-0.16 0.87,-0.44 1.67,-0.44 0.18,0 0.73,0 1.16,0.32 0.3,0.24 0.47,0.64 0.47,1.06 0,0.55 -0.37,0.89 -0.38,0.92 -0.39,0.34 -0.66,0.4 -1.16,0.49 -0.55,0.11 -1,0.21 -1,0.7 0,0.61 0.71,0.61 0.84,0.61 0.32,0 0.85,-0.04 1.42,-0.37 z"
   inkscape:connector-curvature="0"
   style="fill:#000000;stroke-width:0" />
<path
   id="path4794"
   d="m 416.78,492.97 0.07,-0.05 0.06,-0.04 0.07,-0.05 0.07,-0.04 0.07,-0.04 0.07,-0.03 0.07,-0.04 0.04,-0.02 0.04,-0.01 0.04,-0.02 0.04,-0.01 0.04,-0.02 0.05,-0.01 0.04,-0.01 0.05,-0.01 0.04,-0.01 0.05,-0.01 0.05,-0.01 0.05,-0.01 0.05,0 0.05,-0.01 0.05,0 0.06,-0.01 0.05,0 0.06,0 c 1.3,0 2.5,1.38 2.5,3.55 0,2.78 -1.18,3.41 -2.03,3.41 v -0.58 c 0.98,0 1.15,-1.35 1.17,-1.84 h 0 c 0.01,-0.07 0.01,-0.17 0.01,-0.24 0,-0.81 -0.49,-1.55 -1.27,-1.55 -0.47,0 -0.75,0.23 -0.96,0.6 -0.22,0.39 -0.23,0.75 -0.23,1.18 0,0.44 0.01,0.85 0.29,1.28 0.2,0.29 0.48,0.57 0.99,0.57 v 0.58 c -0.69,0 -1.1,-0.3 -1.45,-0.67 -0.62,-0.68 -0.64,-1.33 -0.64,-1.76 0,-1.27 0.65,-2.38 1.61,-2.38 0.61,0 1.25,0.29 1.68,0.82 -0.11,-1.6 -0.88,-2.36 -1.66,-2.36 -0.34,0 -0.67,0.08 -1.03,0.38 z"
   inkscape:connector-curvature="0"
   style="fill:#000000;stroke-width:0" />
<path
   id="path4796"
   d="m 425.6,495.97 0,0.15 -0.01,0.15 0,0.15 -0.01,0.16 -0.01,0.16 -0.01,0.16 -0.02,0.16 -0.02,0.16 -0.02,0.16 -0.03,0.16 -0.04,0.16 -0.04,0.16 -0.05,0.16 -0.03,0.08 -0.03,0.08 -0.03,0.07 -0.04,0.08 -0.03,0.08 -0.04,0.07 c -0.41,0.75 -1.1,0.99 -1.6,0.99 -0.59,0 -1.29,-0.27 -1.69,-1.16 -0.33,-0.72 -0.38,-1.55 -0.38,-2.34 0,-0.79 0.04,-1.51 0.33,-2.24 0.4,-0.95 1.16,-1.22 1.73,-1.22 l 0.01,0.61 c -0.52,0 -0.93,0.38 -1.13,1.09 -0.16,0.57 -0.17,1.1 -0.17,1.88 0,0.62 0,1.22 0.17,1.77 0.06,0.19 0.31,1 1.12,1 0.77,0 1.03,-0.75 1.1,-0.93 0.19,-0.56 0.19,-1.23 0.19,-1.84 0,-0.66 0,-1.28 -0.18,-1.91 -0.26,-0.9 -0.78,-1.06 -1.1,-1.06 h 0 l -0.01,-0.61 c 0.72,0 1.35,0.41 1.67,1.1 0.3,0.64 0.4,1.3 0.4,2.36 z"
   inkscape:connector-curvature="0"
   style="fill:#000000;stroke-width:0" />
<path
   id="path4798"
   d="m 433.68,499.62 h -0.75 v -2.92 c -0.53,0.44 -1.08,0.55 -1.45,0.55 -0.99,0 -1.76,-1.03 -1.76,-2.31 0,-1.3 0.76,-2.32 1.71,-2.32 0.33,0 0.91,0.09 1.47,0.63 l -0.33,0.26 c -0.23,-0.2 -0.48,-0.28 -0.74,-0.28 -0.61,0 -1.34,0.47 -1.34,1.7 0,1.31 0.86,1.71 1.44,1.71 0.45,0 0.75,-0.22 0.97,-0.54 v -1.99 c 0,-0.14 -0.01,-0.32 -0.33,-0.6 l 0.33,-0.26 v -0.52 h 0.78 z"
   inkscape:connector-curvature="0"
   style="fill:#000000;stroke-width:0" />
<path
   id="path4800"
   d="m 438.62,494.91 0,0.03 0,0.03 0,0.04 0,0.04 0,0.04 0,0.05 0,0.04 0,0.05 -0.01,0.05 0,0.05 0,0.05 -0.01,0.05 0,0.05 -0.01,0.06 -0.01,0.05 -0.01,0.06 -0.01,0.06 -0.01,0.05 -0.01,0.06 -0.02,0.06 -0.01,0.06 -0.02,0.06 -0.02,0.06 -0.02,0.06 -0.02,0.06 -0.02,0.06 -0.03,0.06 -0.02,0.06 -0.03,0.05 -0.03,0.06 -0.04,0.06 -0.03,0.05 c -0.41,0.62 -1.02,0.73 -1.38,0.73 -1.1,0 -2,-1.05 -2,-2.33 0,-1.31 0.96,-2.36 2.15,-2.36 0.63,0 1.2,0.24 1.58,0.52 l -0.06,0.64 c -0.62,-0.51 -1.28,-0.55 -1.51,-0.55 -0.79,0 -1.43,0.7 -1.46,1.68 l 0.05,0.54 c 0.16,0.76 0.69,1.25 1.25,1.25 0.52,0 1.08,-0.33 1.21,-1.25 h -2.46 l -0.05,-0.54 z"
   inkscape:connector-curvature="0"
   style="fill:#000000;stroke-width:0" />
<path
   id="path4802"
   d="m 442.43,496.61 0.05,0.01 0.04,0 0.04,0 0.05,0 0.04,0 0.05,0.01 0.05,0 0.05,0 0.09,0.01 0.05,0.01 0.05,0 0.04,0 0.05,0 0.05,0 0.04,0 c 0.18,0 0.57,-0.03 0.59,-0.03 l -0.11,0.63 c -0.7,0 -1.27,-0.19 -1.57,-0.32 -0.21,0.17 -0.55,0.32 -0.95,0.32 v -0.57 c 0.43,0 0.9,-0.27 0.9,-1.05 0,-0.77 -0.47,-1.05 -0.9,-1.05 h 0 c -0.37,0 -0.88,0.23 -0.88,1.05 0,0.83 0.51,1.05 0.88,1.05 v 0.57 c -0.85,0 -1.58,-0.71 -1.58,-1.62 0,-0.37 0.13,-0.72 0.33,-0.98 -0.29,-0.41 -0.29,-0.8 -0.29,-0.85 0,-0.25 0.09,-0.54 0.26,-0.75 -0.52,-0.31 -0.64,-0.77 -0.64,-1.02 0,-0.75 0.99,-1.35 2.2,-1.35 l 0.01,0.57 c -0.81,0 -1.51,0.31 -1.51,0.78 0,0.03 0,0.67 0.77,0.67 h 0.9 c 0.22,0 1.34,0 1.34,-0.68 0,-0.44 -0.68,-0.77 -1.5,-0.77 l -0.01,-0.57 c 1.22,0 2.21,0.59 2.21,1.36 0,1.38 -1.66,1.38 -2.05,1.38 h -0.88 c -0.12,0 -0.57,0 -0.57,0.52 0,0.11 0.04,0.27 0.11,0.36 0.2,-0.15 0.53,-0.29 0.9,-0.29 0.9,0 1.59,0.74 1.59,1.62 0,0.48 -0.21,0.85 -0.33,0.99 z"
   inkscape:connector-curvature="0"
   style="fill:#000000;stroke-width:0" />
<path
   id="path4804"
   d="m 445.48,494.86 0,0.09 0,0.09 0.01,0.09 0.02,0.09 0.02,0.08 0.02,0.08 0.02,0.08 0.03,0.08 0.04,0.08 0.03,0.07 0.04,0.08 0.04,0.06 0.05,0.07 0.05,0.07 0.05,0.06 0.06,0.06 0.05,0.05 0.06,0.05 0.07,0.05 0.06,0.05 0.07,0.04 0.07,0.05 0.08,0.03 0.07,0.04 0.08,0.03 0.08,0.02 0.08,0.03 0.09,0.02 0.08,0.01 0.09,0.01 0.09,0.01 0.09,0 v 0.67 c -0.89,-0.01 -1.44,-0.5 -1.74,-0.95 v 0.9 h -0.7 v -4.47 h 0.75 z"
   inkscape:connector-curvature="0"
   style="fill:#000000;stroke-width:0" />
<path
   id="path4806"
   d="m 451.44,494.91 0,0.03 0,0.03 0,0.04 0,0.04 0,0.04 -0.01,0.05 0,0.04 0,0.05 0,0.05 -0.01,0.05 0,0.05 -0.01,0.05 0,0.05 -0.01,0.06 -0.01,0.05 -0.01,0.06 -0.01,0.06 -0.01,0.05 -0.01,0.06 -0.01,0.06 -0.02,0.06 -0.02,0.06 -0.01,0.06 -0.02,0.06 -0.03,0.06 -0.02,0.06 -0.02,0.06 -0.03,0.06 -0.03,0.05 -0.03,0.06 -0.03,0.06 -0.04,0.05 c -0.41,0.62 -1.02,0.73 -1.37,0.73 -1.11,0 -2,-1.05 -2,-2.33 0,-1.31 0.95,-2.36 2.15,-2.36 0.62,0 1.19,0.24 1.58,0.52 l -0.06,0.64 c -0.63,-0.51 -1.29,-0.55 -1.51,-0.55 -0.8,0 -1.44,0.7 -1.47,1.68 l 0.05,0.54 c 0.16,0.76 0.69,1.25 1.26,1.25 0.51,0 1.07,-0.33 1.2,-1.25 h -2.46 l -0.05,-0.54 z"
   inkscape:connector-curvature="0"
   style="fill:#000000;stroke-width:0" />
<path
   id="path4808"
   d="m 455.86,494.91 0,0.03 0,0.03 0,0.04 0,0.04 0,0.04 0,0.05 0,0.04 0,0.05 -0.01,0.05 0,0.05 0,0.05 -0.01,0.05 0,0.05 -0.01,0.06 -0.01,0.05 -0.01,0.06 -0.01,0.06 -0.01,0.05 -0.01,0.06 -0.02,0.06 -0.01,0.06 -0.02,0.06 -0.02,0.06 -0.02,0.06 -0.02,0.06 -0.02,0.06 -0.03,0.06 -0.02,0.06 -0.03,0.05 -0.03,0.06 -0.04,0.06 -0.03,0.05 c -0.41,0.62 -1.02,0.73 -1.38,0.73 -1.1,0 -2,-1.05 -2,-2.33 0,-1.31 0.96,-2.36 2.15,-2.36 0.63,0 1.2,0.24 1.59,0.52 l -0.06,0.64 c -0.63,-0.51 -1.29,-0.55 -1.52,-0.55 -0.79,0 -1.43,0.7 -1.46,1.68 l 0.05,0.54 c 0.16,0.76 0.69,1.25 1.25,1.25 0.52,0 1.08,-0.33 1.21,-1.25 h -2.46 l -0.05,-0.54 z"
   inkscape:connector-curvature="0"
   style="fill:#000000;stroke-width:0" />
<path
   id="path4810"
   d="m 459.59,496.99 -0.05,0.02 -0.05,0.03 -0.09,0.04 -0.09,0.03 -0.09,0.03 -0.09,0.03 -0.09,0.03 -0.09,0.02 -0.08,0.02 -0.09,0.02 -0.09,0.01 -0.08,0.02 -0.09,0 -0.09,0.01 -0.09,0.01 -0.09,0 -0.1,0 c -0.25,0 -1.65,0 -1.65,-1.3 0,-0.49 0.29,-0.81 0.54,-0.99 0.31,-0.22 0.53,-0.26 1.07,-0.37 0.36,-0.07 0.94,-0.19 0.94,-0.72 0,-0.68 -0.79,-0.68 -0.94,-0.68 -0.8,0 -1.36,0.36 -1.54,0.48 l -0.12,-0.67 c 0.32,-0.16 0.87,-0.44 1.67,-0.44 0.18,0 0.73,0 1.16,0.32 0.31,0.24 0.48,0.64 0.48,1.06 0,0.55 -0.37,0.89 -0.39,0.92 -0.39,0.34 -0.66,0.4 -1.16,0.49 -0.54,0.11 -1,0.21 -1,0.7 0,0.61 0.71,0.61 0.84,0.61 0.32,0 0.85,-0.04 1.42,-0.37 z"
   inkscape:connector-curvature="0"
   style="fill:#000000;stroke-width:0" />
<polygon
   id="polygon4812"
   points="461.78,492.73 461.78,493.56 460.96,493.56 460.96,492.73 "
   style="fill:#000000;stroke-width:0" />
</g></svg>
