<?xml version="1.0" encoding="UTF-8"?>
<svg xmlns="http://www.w3.org/2000/svg" xmlns:xlink="http://www.w3.org/1999/xlink" width="173.72122pt" height="71.711845pt" viewBox="0 0 173.72122 71.711845" version="1.1">
<g id="surface1">
<path style=" stroke:none;fill-rule:nonzero;fill:rgb(0%,0%,0%);fill-opacity:1;" d="M 3.515625 23.433594 C 3.125 24 2.539062 24.507812 1.796875 24.507812 C 1.621094 24.507812 0.898438 24.46875 0.683594 23.785156 C 0.722656 23.804688 0.800781 23.804688 0.820312 23.804688 C 1.269531 23.804688 1.582031 23.414062 1.582031 23.0625 C 1.582031 22.730469 1.289062 22.613281 1.074219 22.613281 C 0.820312 22.613281 0.3125 22.789062 0.3125 23.511719 C 0.3125 24.273438 0.957031 24.800781 1.796875 24.800781 C 3.300781 24.800781 4.804688 23.433594 5.214844 21.773438 L 6.679688 15.933594 C 6.699219 15.875 6.738281 15.777344 6.738281 15.679688 C 6.738281 15.464844 6.542969 15.308594 6.328125 15.308594 C 6.191406 15.308594 5.878906 15.367188 5.761719 15.816406 L 4.648438 20.210938 C 4.589844 20.484375 4.589844 20.523438 4.453125 20.679688 C 4.160156 21.089844 3.671875 21.597656 2.949219 21.597656 C 2.109375 21.597656 2.03125 20.777344 2.03125 20.386719 C 2.03125 19.527344 2.441406 18.375 2.851562 17.300781 C 3.007812 16.871094 3.105469 16.65625 3.105469 16.363281 C 3.105469 15.738281 2.65625 15.171875 1.914062 15.171875 C 0.546875 15.171875 0 17.339844 0 17.457031 C 0 17.515625 0.0585938 17.59375 0.15625 17.59375 C 0.292969 17.59375 0.3125 17.535156 0.371094 17.320312 C 0.722656 16.070312 1.289062 15.464844 1.875 15.464844 C 2.011719 15.464844 2.265625 15.464844 2.265625 15.953125 C 2.265625 16.34375 2.109375 16.773438 1.875 17.339844 C 1.152344 19.3125 1.152344 19.800781 1.152344 20.152344 C 1.152344 21.578125 2.167969 21.910156 2.910156 21.910156 C 3.339844 21.910156 3.886719 21.773438 4.394531 21.207031 L 4.414062 21.226562 C 4.199219 22.105469 4.042969 22.691406 3.515625 23.433594 Z M 3.515625 23.433594 "/>
<path style=" stroke:none;fill-rule:nonzero;fill:rgb(0%,0%,0%);fill-opacity:1;" d="M 21.519531 16.910156 C 21.734375 16.910156 22.007812 16.910156 22.007812 16.636719 C 22.007812 16.363281 21.753906 16.363281 21.519531 16.363281 L 12.730469 16.363281 C 12.515625 16.363281 12.242188 16.363281 12.242188 16.636719 C 12.242188 16.910156 12.496094 16.910156 12.730469 16.910156 Z M 21.519531 19.683594 C 21.734375 19.683594 22.007812 19.683594 22.007812 19.429688 C 22.007812 19.136719 21.753906 19.136719 21.519531 19.136719 L 12.730469 19.136719 C 12.515625 19.136719 12.242188 19.136719 12.242188 19.410156 C 12.242188 19.683594 12.496094 19.683594 12.730469 19.683594 Z M 21.519531 19.683594 "/>
<path style=" stroke:none;fill-rule:nonzero;fill:rgb(0%,0%,0%);fill-opacity:1;" d="M 32.449219 16.226562 C 32.273438 16.226562 31.707031 16.226562 31.707031 16.832031 C 31.707031 17.203125 31.960938 17.457031 32.332031 17.457031 C 32.664062 17.457031 32.957031 17.242188 32.957031 16.8125 C 32.957031 15.816406 31.902344 15.09375 30.691406 15.09375 C 28.953125 15.09375 27.566406 16.636719 27.566406 18.53125 C 27.566406 20.445312 28.992188 21.910156 30.691406 21.910156 C 32.664062 21.910156 33.113281 20.113281 33.113281 19.976562 C 33.113281 19.839844 32.996094 19.839844 32.957031 19.839844 C 32.820312 19.839844 32.800781 19.878906 32.761719 20.074219 C 32.429688 21.128906 31.628906 21.578125 30.828125 21.578125 C 29.910156 21.578125 28.699219 20.777344 28.699219 18.511719 C 28.699219 16.03125 29.96875 15.425781 30.710938 15.425781 C 31.277344 15.425781 32.097656 15.640625 32.449219 16.226562 Z M 32.449219 16.226562 "/>
<path style=" stroke:none;fill-rule:nonzero;fill:rgb(0%,0%,0%);fill-opacity:1;" d="M 40.34375 18.550781 C 40.34375 16.636719 38.878906 15.09375 37.140625 15.09375 C 35.363281 15.09375 33.9375 16.675781 33.9375 18.550781 C 33.9375 20.464844 35.421875 21.910156 37.140625 21.910156 C 38.898438 21.910156 40.34375 20.445312 40.34375 18.550781 Z M 37.140625 21.578125 C 36.59375 21.578125 35.929688 21.34375 35.5 20.601562 C 35.089844 19.9375 35.070312 19.058594 35.070312 18.414062 C 35.070312 17.847656 35.070312 16.949219 35.539062 16.265625 C 35.949219 15.621094 36.613281 15.386719 37.140625 15.386719 C 37.707031 15.386719 38.351562 15.660156 38.742188 16.246094 C 39.210938 16.929688 39.210938 17.867188 39.210938 18.414062 C 39.210938 18.941406 39.210938 19.878906 38.820312 20.582031 C 38.410156 21.285156 37.707031 21.578125 37.140625 21.578125 Z M 37.140625 21.578125 "/>
<path style=" stroke:none;fill-rule:nonzero;fill:rgb(0%,0%,0%);fill-opacity:1;" d="M 43.359375 15.738281 L 45.449219 15.738281 L 45.449219 15.308594 L 43.359375 15.308594 L 43.359375 12.574219 L 43.027344 12.574219 C 43.007812 13.960938 42.460938 15.40625 41.113281 15.445312 L 41.113281 15.738281 L 42.382812 15.738281 L 42.382812 19.898438 C 42.382812 21.558594 43.476562 21.910156 44.277344 21.910156 C 45.214844 21.910156 45.703125 20.972656 45.703125 19.898438 L 45.703125 19.058594 L 45.390625 19.058594 L 45.390625 19.878906 C 45.390625 20.953125 44.941406 21.578125 44.375 21.578125 C 43.359375 21.578125 43.359375 20.191406 43.359375 19.9375 Z M 43.359375 15.738281 "/>
<path style=" stroke:none;fill-rule:nonzero;fill:rgb(0%,0%,0%);fill-opacity:1;" d="M 53.492188 13.191406 C 53.667969 13.191406 53.882812 13.191406 53.882812 12.976562 C 53.882812 12.742188 53.667969 12.742188 53.492188 12.742188 L 47.789062 12.742188 C 47.632812 12.742188 47.417969 12.742188 47.417969 12.976562 C 47.417969 13.191406 47.632812 13.191406 47.789062 13.191406 Z M 53.492188 13.191406 "/>
<path style=" stroke:none;fill-rule:nonzero;fill:rgb(0%,0%,0%);fill-opacity:1;" d="M 57.914062 9.109375 C 57.914062 8.835938 57.894531 8.835938 57.621094 8.835938 C 57.210938 9.226562 56.683594 9.460938 55.746094 9.460938 L 55.746094 9.792969 C 56.019531 9.792969 56.546875 9.792969 57.132812 9.539062 L 57.132812 14.636719 C 57.132812 15.007812 57.09375 15.125 56.15625 15.125 L 55.804688 15.125 L 55.804688 15.457031 C 56.214844 15.417969 57.074219 15.417969 57.523438 15.417969 C 57.972656 15.417969 58.832031 15.417969 59.242188 15.457031 L 59.242188 15.125 L 58.890625 15.125 C 57.953125 15.125 57.914062 15.007812 57.914062 14.636719 Z M 57.914062 9.109375 "/>
<path style=" stroke:none;fill-rule:nonzero;fill:rgb(0%,0%,0%);fill-opacity:1;" d="M 73.640625 35.703125 C 73.640625 35.644531 73.621094 35.605469 73.582031 35.566406 C 73.035156 35.019531 72.039062 34.023438 71.042969 32.402344 C 68.621094 28.554688 67.546875 23.691406 67.546875 17.929688 C 67.546875 13.925781 68.074219 8.730469 70.535156 4.277344 C 71.726562 2.167969 72.957031 0.9375 73.601562 0.273438 C 73.640625 0.234375 73.640625 0.195312 73.640625 0.15625 C 73.640625 0 73.542969 0 73.328125 0 C 73.132812 0 73.09375 0 72.878906 0.234375 C 67.859375 4.785156 66.296875 11.640625 66.296875 17.929688 C 66.296875 23.789062 67.644531 29.707031 71.433594 34.179688 C 71.746094 34.53125 72.3125 35.136719 72.917969 35.664062 C 73.09375 35.859375 73.132812 35.859375 73.328125 35.859375 C 73.542969 35.859375 73.640625 35.859375 73.640625 35.703125 Z M 73.640625 35.703125 "/>
<path style=" stroke:none;fill-rule:nonzero;fill:rgb(0%,0%,0%);fill-opacity:1;" d="M 94.191406 5.226562 C 94.191406 4.972656 94.191406 4.894531 94.035156 4.894531 C 93.917969 4.894531 93.644531 5.226562 93.527344 5.363281 C 93.078125 4.972656 92.609375 4.894531 92.121094 4.894531 C 90.324219 4.894531 89.777344 5.871094 89.777344 6.691406 C 89.777344 6.867188 89.777344 7.394531 90.34375 7.902344 C 90.832031 8.332031 91.339844 8.429688 92.023438 8.566406 C 92.84375 8.722656 93.039062 8.78125 93.410156 9.074219 C 93.683594 9.289062 93.878906 9.621094 93.878906 10.050781 C 93.878906 10.695312 93.507812 11.398438 92.179688 11.398438 C 91.203125 11.398438 90.480469 10.832031 90.148438 9.347656 C 90.089844 9.074219 90.089844 9.054688 90.089844 9.035156 C 90.050781 8.976562 89.992188 8.976562 89.953125 8.976562 C 89.777344 8.976562 89.777344 9.054688 89.777344 9.328125 L 89.777344 11.359375 C 89.777344 11.632812 89.777344 11.710938 89.933594 11.710938 C 90.011719 11.710938 90.011719 11.691406 90.265625 11.378906 C 90.34375 11.261719 90.34375 11.242188 90.578125 11.007812 C 91.144531 11.710938 91.945312 11.710938 92.199219 11.710938 C 93.761719 11.710938 94.542969 10.832031 94.542969 9.660156 C 94.542969 8.859375 94.054688 8.371094 93.917969 8.234375 C 93.390625 7.765625 92.980469 7.6875 91.984375 7.511719 C 91.554688 7.414062 90.460938 7.199219 90.460938 6.300781 C 90.460938 5.851562 90.773438 5.167969 92.121094 5.167969 C 93.742188 5.167969 93.839844 6.554688 93.859375 7.003906 C 93.878906 7.140625 93.976562 7.140625 94.035156 7.140625 C 94.191406 7.140625 94.191406 7.0625 94.191406 6.789062 Z M 94.191406 5.226562 "/>
<path style=" stroke:none;fill-rule:nonzero;fill:rgb(0%,0%,0%);fill-opacity:1;" d="M 97.585938 2.355469 C 97.585938 1.964844 97.273438 1.613281 96.863281 1.613281 C 96.472656 1.613281 96.140625 1.925781 96.140625 2.335938 C 96.140625 2.785156 96.492188 3.058594 96.863281 3.058594 C 97.3125 3.058594 97.585938 2.6875 97.585938 2.355469 Z M 95.535156 5.128906 L 95.535156 5.558594 C 96.472656 5.558594 96.609375 5.65625 96.609375 6.378906 L 96.609375 10.441406 C 96.609375 11.125 96.453125 11.125 95.476562 11.125 L 95.476562 11.554688 C 95.90625 11.515625 96.609375 11.515625 97.058594 11.515625 C 97.214844 11.515625 98.074219 11.515625 98.582031 11.554688 L 98.582031 11.125 C 97.625 11.125 97.566406 11.046875 97.566406 10.460938 L 97.566406 4.972656 Z M 95.535156 5.128906 "/>
<path style=" stroke:none;fill-rule:nonzero;fill:rgb(0%,0%,0%);fill-opacity:1;" d="M 105.679688 7.921875 C 105.679688 6.535156 105.679688 6.125 105.347656 5.636719 C 104.917969 5.050781 104.214844 4.972656 103.707031 4.972656 C 102.242188 4.972656 101.675781 6.203125 101.558594 6.496094 L 101.558594 4.972656 L 99.507812 5.128906 L 99.507812 5.558594 C 100.523438 5.558594 100.660156 5.675781 100.660156 6.398438 L 100.660156 10.441406 C 100.660156 11.125 100.484375 11.125 99.507812 11.125 L 99.507812 11.554688 C 99.898438 11.515625 100.71875 11.515625 101.128906 11.515625 C 101.558594 11.515625 102.378906 11.515625 102.75 11.554688 L 102.75 11.125 C 101.8125 11.125 101.617188 11.125 101.617188 10.441406 L 101.617188 7.667969 C 101.617188 6.105469 102.652344 5.265625 103.589844 5.265625 C 104.507812 5.265625 104.722656 6.027344 104.722656 6.945312 L 104.722656 10.441406 C 104.722656 11.125 104.546875 11.125 103.589844 11.125 L 103.589844 11.554688 C 103.960938 11.515625 104.78125 11.515625 105.191406 11.515625 C 105.621094 11.515625 106.441406 11.515625 106.832031 11.554688 L 106.832031 11.125 C 106.070312 11.125 105.699219 11.125 105.679688 10.675781 Z M 105.679688 7.921875 "/>
<path style=" stroke:none;fill-rule:nonzero;fill:rgb(0%,0%,0%);fill-opacity:1;" d="M 116.78125 5.460938 C 116.292969 5.539062 116.117188 5.910156 116.117188 6.183594 C 116.117188 6.554688 116.390625 6.671875 116.605469 6.671875 C 117.054688 6.671875 117.367188 6.28125 117.367188 5.871094 C 117.367188 5.246094 116.644531 4.972656 116.019531 4.972656 C 115.121094 4.972656 114.613281 5.871094 114.476562 6.144531 C 114.125 5.03125 113.207031 4.972656 112.933594 4.972656 C 111.410156 4.972656 110.609375 6.925781 110.609375 7.257812 C 110.609375 7.316406 110.667969 7.394531 110.765625 7.394531 C 110.882812 7.394531 110.921875 7.296875 110.941406 7.238281 C 111.449219 5.578125 112.464844 5.265625 112.894531 5.265625 C 113.558594 5.265625 113.695312 5.890625 113.695312 6.242188 C 113.695312 6.574219 113.597656 6.925781 113.421875 7.648438 L 112.914062 9.679688 C 112.699219 10.578125 112.269531 11.398438 111.46875 11.398438 C 111.390625 11.398438 111.019531 11.398438 110.707031 11.203125 C 111.253906 11.105469 111.371094 10.65625 111.371094 10.480469 C 111.371094 10.1875 111.136719 9.992188 110.863281 9.992188 C 110.492188 9.992188 110.101562 10.324219 110.101562 10.792969 C 110.101562 11.417969 110.804688 11.710938 111.449219 11.710938 C 112.171875 11.710938 112.679688 11.144531 112.992188 10.519531 C 113.226562 11.398438 113.988281 11.710938 114.535156 11.710938 C 116.058594 11.710938 116.859375 9.738281 116.859375 9.425781 C 116.859375 9.347656 116.800781 9.289062 116.722656 9.289062 C 116.585938 9.289062 116.566406 9.367188 116.527344 9.484375 C 116.117188 10.792969 115.257812 11.398438 114.574219 11.398438 C 114.046875 11.398438 113.773438 11.007812 113.773438 10.402344 C 113.773438 10.070312 113.832031 9.835938 114.066406 8.859375 L 114.59375 6.808594 C 114.808594 5.929688 115.316406 5.265625 116.019531 5.265625 C 116.039062 5.265625 116.46875 5.265625 116.78125 5.460938 Z M 116.78125 5.460938 "/>
<path style=" stroke:none;fill-rule:nonzero;fill:rgb(0%,0%,0%);fill-opacity:1;" d="M 75.625 17.722656 L 131.722656 17.722656 L 131.722656 18.324219 L 75.625 18.324219 Z M 75.625 17.722656 "/>
<path style=" stroke:none;fill-rule:nonzero;fill:rgb(0%,0%,0%);fill-opacity:1;" d="M 79.9375 22.386719 C 79.9375 22.035156 79.9375 22.015625 79.644531 22.015625 C 79.292969 22.425781 78.53125 22.972656 77.007812 22.972656 L 77.007812 23.402344 C 77.339844 23.402344 78.082031 23.402344 78.921875 23.03125 L 78.921875 30.804688 C 78.921875 31.351562 78.863281 31.527344 77.554688 31.527344 L 77.085938 31.527344 L 77.085938 31.957031 C 77.496094 31.917969 78.941406 31.917969 79.429688 31.917969 C 79.9375 31.917969 81.363281 31.917969 81.773438 31.957031 L 81.773438 31.527344 L 81.304688 31.527344 C 79.996094 31.527344 79.9375 31.351562 79.9375 30.804688 Z M 79.9375 22.386719 "/>
<path style=" stroke:none;fill-rule:nonzero;fill:rgb(0%,0%,0%);fill-opacity:1;" d="M 96.132812 28.519531 C 96.386719 28.519531 96.660156 28.519531 96.660156 28.226562 C 96.660156 27.914062 96.386719 27.914062 96.132812 27.914062 L 88.046875 27.914062 C 87.792969 27.914062 87.519531 27.914062 87.519531 28.226562 C 87.519531 28.519531 87.792969 28.519531 88.046875 28.519531 Z M 96.132812 28.519531 "/>
<path style=" stroke:none;fill-rule:nonzero;fill:rgb(0%,0%,0%);fill-opacity:1;" d="M 106.550781 26.429688 C 106.375 26.429688 105.808594 26.429688 105.808594 27.035156 C 105.808594 27.40625 106.0625 27.660156 106.433594 27.660156 C 106.765625 27.660156 107.058594 27.445312 107.058594 27.015625 C 107.058594 26.019531 106.003906 25.296875 104.792969 25.296875 C 103.054688 25.296875 101.667969 26.839844 101.667969 28.734375 C 101.667969 30.648438 103.09375 32.113281 104.792969 32.113281 C 106.765625 32.113281 107.214844 30.316406 107.214844 30.179688 C 107.214844 30.042969 107.097656 30.042969 107.058594 30.042969 C 106.921875 30.042969 106.902344 30.082031 106.863281 30.277344 C 106.53125 31.332031 105.730469 31.78125 104.929688 31.78125 C 104.011719 31.78125 102.800781 30.980469 102.800781 28.714844 C 102.800781 26.234375 104.070312 25.628906 104.8125 25.628906 C 105.378906 25.628906 106.199219 25.84375 106.550781 26.429688 Z M 106.550781 26.429688 "/>
<path style=" stroke:none;fill-rule:nonzero;fill:rgb(0%,0%,0%);fill-opacity:1;" d="M 114.445312 28.753906 C 114.445312 26.839844 112.980469 25.296875 111.242188 25.296875 C 109.464844 25.296875 108.039062 26.878906 108.039062 28.753906 C 108.039062 30.667969 109.523438 32.113281 111.242188 32.113281 C 113 32.113281 114.445312 30.648438 114.445312 28.753906 Z M 111.242188 31.78125 C 110.695312 31.78125 110.03125 31.546875 109.601562 30.804688 C 109.191406 30.140625 109.171875 29.261719 109.171875 28.617188 C 109.171875 28.050781 109.171875 27.152344 109.640625 26.46875 C 110.050781 25.824219 110.714844 25.589844 111.242188 25.589844 C 111.808594 25.589844 112.453125 25.863281 112.84375 26.449219 C 113.3125 27.132812 113.3125 28.070312 113.3125 28.617188 C 113.3125 29.144531 113.3125 30.082031 112.921875 30.785156 C 112.511719 31.488281 111.808594 31.78125 111.242188 31.78125 Z M 111.242188 31.78125 "/>
<path style=" stroke:none;fill-rule:nonzero;fill:rgb(0%,0%,0%);fill-opacity:1;" d="M 119.84375 25.628906 C 119.84375 25.375 119.84375 25.296875 119.6875 25.296875 C 119.570312 25.296875 119.296875 25.628906 119.179688 25.765625 C 118.730469 25.375 118.261719 25.296875 117.773438 25.296875 C 115.976562 25.296875 115.429688 26.273438 115.429688 27.09375 C 115.429688 27.269531 115.429688 27.796875 115.996094 28.304688 C 116.484375 28.734375 116.992188 28.832031 117.675781 28.96875 C 118.496094 29.125 118.691406 29.183594 119.0625 29.476562 C 119.335938 29.691406 119.53125 30.023438 119.53125 30.453125 C 119.53125 31.097656 119.160156 31.800781 117.832031 31.800781 C 116.855469 31.800781 116.132812 31.234375 115.800781 29.75 C 115.742188 29.476562 115.742188 29.457031 115.742188 29.4375 C 115.703125 29.378906 115.644531 29.378906 115.605469 29.378906 C 115.429688 29.378906 115.429688 29.457031 115.429688 29.730469 L 115.429688 31.761719 C 115.429688 32.035156 115.429688 32.113281 115.585938 32.113281 C 115.664062 32.113281 115.664062 32.09375 115.917969 31.78125 C 115.996094 31.664062 115.996094 31.644531 116.230469 31.410156 C 116.796875 32.113281 117.597656 32.113281 117.851562 32.113281 C 119.414062 32.113281 120.195312 31.234375 120.195312 30.0625 C 120.195312 29.261719 119.707031 28.773438 119.570312 28.636719 C 119.042969 28.167969 118.632812 28.089844 117.636719 27.914062 C 117.207031 27.816406 116.113281 27.601562 116.113281 26.703125 C 116.113281 26.253906 116.425781 25.570312 117.773438 25.570312 C 119.394531 25.570312 119.492188 26.957031 119.511719 27.40625 C 119.53125 27.542969 119.628906 27.542969 119.6875 27.542969 C 119.84375 27.542969 119.84375 27.464844 119.84375 27.191406 Z M 119.84375 25.628906 "/>
<path style=" stroke:none;fill-rule:nonzero;fill:rgb(0%,0%,0%);fill-opacity:1;" d="M 130.429688 25.863281 C 129.941406 25.941406 129.765625 26.3125 129.765625 26.585938 C 129.765625 26.957031 130.039062 27.074219 130.253906 27.074219 C 130.703125 27.074219 131.015625 26.683594 131.015625 26.273438 C 131.015625 25.648438 130.292969 25.375 129.667969 25.375 C 128.769531 25.375 128.261719 26.273438 128.125 26.546875 C 127.773438 25.433594 126.855469 25.375 126.582031 25.375 C 125.058594 25.375 124.257812 27.328125 124.257812 27.660156 C 124.257812 27.71875 124.316406 27.796875 124.414062 27.796875 C 124.53125 27.796875 124.570312 27.699219 124.589844 27.640625 C 125.097656 25.980469 126.113281 25.667969 126.542969 25.667969 C 127.207031 25.667969 127.34375 26.292969 127.34375 26.644531 C 127.34375 26.976562 127.246094 27.328125 127.070312 28.050781 L 126.5625 30.082031 C 126.347656 30.980469 125.917969 31.800781 125.117188 31.800781 C 125.039062 31.800781 124.667969 31.800781 124.355469 31.605469 C 124.902344 31.507812 125.019531 31.058594 125.019531 30.882812 C 125.019531 30.589844 124.785156 30.394531 124.511719 30.394531 C 124.140625 30.394531 123.75 30.726562 123.75 31.195312 C 123.75 31.820312 124.453125 32.113281 125.097656 32.113281 C 125.820312 32.113281 126.328125 31.546875 126.640625 30.921875 C 126.875 31.800781 127.636719 32.113281 128.183594 32.113281 C 129.707031 32.113281 130.507812 30.140625 130.507812 29.828125 C 130.507812 29.75 130.449219 29.691406 130.371094 29.691406 C 130.234375 29.691406 130.214844 29.769531 130.175781 29.886719 C 129.765625 31.195312 128.90625 31.800781 128.222656 31.800781 C 127.695312 31.800781 127.421875 31.410156 127.421875 30.804688 C 127.421875 30.472656 127.480469 30.238281 127.714844 29.261719 L 128.242188 27.210938 C 128.457031 26.332031 128.964844 25.667969 129.667969 25.667969 C 129.6875 25.667969 130.117188 25.667969 130.429688 25.863281 Z M 130.429688 25.863281 "/>
<path style=" stroke:none;fill-rule:nonzero;fill:rgb(0%,0%,0%);fill-opacity:1;" d="M 140.960938 17.929688 C 140.960938 12.070312 139.613281 6.152344 135.824219 1.679688 C 135.53125 1.328125 134.964844 0.722656 134.339844 0.195312 C 134.164062 0 134.144531 0 133.929688 0 C 133.753906 0 133.617188 0 133.617188 0.15625 C 133.617188 0.214844 133.675781 0.273438 133.695312 0.3125 C 134.222656 0.839844 135.21875 1.835938 136.234375 3.457031 C 138.636719 7.304688 139.730469 12.167969 139.730469 17.929688 C 139.730469 21.933594 139.183594 27.128906 136.722656 31.582031 C 135.53125 33.691406 134.300781 34.941406 133.675781 35.566406 C 133.636719 35.605469 133.617188 35.664062 133.617188 35.703125 C 133.617188 35.859375 133.753906 35.859375 133.929688 35.859375 C 134.144531 35.859375 134.164062 35.859375 134.398438 35.625 C 139.398438 31.074219 140.960938 24.21875 140.960938 17.929688 Z M 140.960938 17.929688 "/>
<path style=" stroke:none;fill-rule:nonzero;fill:rgb(0%,0%,0%);fill-opacity:1;" d="M 158.316406 16.910156 C 158.53125 16.910156 158.804688 16.910156 158.804688 16.636719 C 158.804688 16.363281 158.550781 16.363281 158.316406 16.363281 L 149.527344 16.363281 C 149.3125 16.363281 149.039062 16.363281 149.039062 16.636719 C 149.039062 16.910156 149.292969 16.910156 149.527344 16.910156 Z M 158.316406 19.683594 C 158.53125 19.683594 158.804688 19.683594 158.804688 19.429688 C 158.804688 19.136719 158.550781 19.136719 158.316406 19.136719 L 149.527344 19.136719 C 149.3125 19.136719 149.039062 19.136719 149.039062 19.410156 C 149.039062 19.683594 149.292969 19.683594 149.527344 19.683594 Z M 158.316406 19.683594 "/>
<path style=" stroke:none;fill-rule:nonzero;fill:rgb(0%,0%,0%);fill-opacity:1;" d="M 172.429688 5.460938 C 171.941406 5.539062 171.765625 5.910156 171.765625 6.183594 C 171.765625 6.554688 172.039062 6.671875 172.253906 6.671875 C 172.703125 6.671875 173.015625 6.28125 173.015625 5.871094 C 173.015625 5.246094 172.292969 4.972656 171.667969 4.972656 C 170.769531 4.972656 170.261719 5.871094 170.125 6.144531 C 169.773438 5.03125 168.855469 4.972656 168.582031 4.972656 C 167.058594 4.972656 166.257812 6.925781 166.257812 7.257812 C 166.257812 7.316406 166.316406 7.394531 166.414062 7.394531 C 166.53125 7.394531 166.570312 7.296875 166.589844 7.238281 C 167.097656 5.578125 168.113281 5.265625 168.542969 5.265625 C 169.207031 5.265625 169.34375 5.890625 169.34375 6.242188 C 169.34375 6.574219 169.246094 6.925781 169.070312 7.648438 L 168.5625 9.679688 C 168.347656 10.578125 167.917969 11.398438 167.117188 11.398438 C 167.039062 11.398438 166.667969 11.398438 166.355469 11.203125 C 166.902344 11.105469 167.019531 10.65625 167.019531 10.480469 C 167.019531 10.1875 166.785156 9.992188 166.511719 9.992188 C 166.140625 9.992188 165.75 10.324219 165.75 10.792969 C 165.75 11.417969 166.453125 11.710938 167.097656 11.710938 C 167.820312 11.710938 168.328125 11.144531 168.640625 10.519531 C 168.875 11.398438 169.636719 11.710938 170.183594 11.710938 C 171.707031 11.710938 172.507812 9.738281 172.507812 9.425781 C 172.507812 9.347656 172.449219 9.289062 172.371094 9.289062 C 172.234375 9.289062 172.214844 9.367188 172.175781 9.484375 C 171.765625 10.792969 170.90625 11.398438 170.222656 11.398438 C 169.695312 11.398438 169.421875 11.007812 169.421875 10.402344 C 169.421875 10.070312 169.480469 9.835938 169.714844 8.859375 L 170.242188 6.808594 C 170.457031 5.929688 170.964844 5.265625 171.667969 5.265625 C 171.6875 5.265625 172.117188 5.265625 172.429688 5.460938 Z M 172.429688 5.460938 "/>
<path style=" stroke:none;fill-rule:nonzero;fill:rgb(0%,0%,0%);fill-opacity:1;" d="M 165.324219 17.722656 L 173.722656 17.722656 L 173.722656 18.324219 L 165.324219 18.324219 Z M 165.324219 17.722656 "/>
<path style=" stroke:none;fill-rule:nonzero;fill:rgb(0%,0%,0%);fill-opacity:1;" d="M 172.371094 29.4375 L 172.039062 29.4375 C 171.980469 29.691406 171.863281 30.53125 171.726562 30.765625 C 171.609375 30.902344 170.769531 30.902344 170.320312 30.902344 L 167.546875 30.902344 C 167.957031 30.550781 168.875 29.59375 169.246094 29.242188 C 171.53125 27.152344 172.371094 26.371094 172.371094 24.886719 C 172.371094 23.167969 171.003906 22.015625 169.265625 22.015625 C 167.546875 22.015625 166.511719 23.5 166.511719 24.789062 C 166.511719 25.550781 167.175781 25.550781 167.214844 25.550781 C 167.546875 25.550781 167.917969 25.316406 167.917969 24.847656 C 167.917969 24.417969 167.644531 24.144531 167.214844 24.144531 C 167.097656 24.144531 167.058594 24.144531 167.019531 24.164062 C 167.292969 23.148438 168.113281 22.445312 169.070312 22.445312 C 170.339844 22.445312 171.121094 23.519531 171.121094 24.886719 C 171.121094 26.15625 170.398438 27.269531 169.539062 28.226562 L 166.511719 31.605469 L 166.511719 31.957031 L 171.980469 31.957031 Z M 172.371094 29.4375 "/>
<path style=" stroke:none;fill-rule:nonzero;fill:rgb(0%,0%,0%);fill-opacity:1;" d="M 116.800781 55.222656 C 116.800781 54.773438 116.449219 54.421875 116.019531 54.421875 C 115.589844 54.421875 115.21875 54.773438 115.21875 55.222656 C 115.21875 55.652344 115.589844 56.003906 116.019531 56.003906 C 116.429688 56.003906 116.800781 55.671875 116.800781 55.222656 Z M 120.550781 61.6875 C 120.550781 61.257812 120.179688 60.886719 119.75 60.886719 C 119.320312 60.886719 118.949219 61.257812 118.949219 61.6875 C 118.949219 62.117188 119.320312 62.46875 119.75 62.46875 C 120.179688 62.46875 120.550781 62.117188 120.550781 61.6875 Z M 113.070312 61.6875 C 113.070312 61.257812 112.71875 60.886719 112.269531 60.886719 C 111.839844 60.886719 111.488281 61.257812 111.488281 61.6875 C 111.488281 62.117188 111.839844 62.46875 112.269531 62.46875 C 112.71875 62.46875 113.070312 62.117188 113.070312 61.6875 Z M 113.070312 61.6875 "/>
<path style=" stroke:none;fill-rule:nonzero;fill:rgb(0%,0%,0%);fill-opacity:1;" d="M 134.460938 41.304688 C 134.480469 41.246094 134.5 41.167969 134.5 41.089844 C 134.5 40.933594 134.34375 40.933594 134.324219 40.933594 C 134.304688 40.933594 133.582031 40.992188 133.503906 41.011719 C 133.25 41.03125 133.015625 41.050781 132.761719 41.070312 C 132.371094 41.109375 132.273438 41.109375 132.273438 41.382812 C 132.273438 41.539062 132.390625 41.539062 132.605469 41.539062 C 133.328125 41.539062 133.347656 41.675781 133.347656 41.8125 C 133.347656 41.910156 133.328125 42.027344 133.308594 42.066406 L 132.390625 45.699219 C 132.234375 45.308594 131.824219 44.722656 131.042969 44.722656 C 129.363281 44.722656 127.546875 46.890625 127.546875 49.117188 C 127.546875 50.582031 128.40625 51.460938 129.421875 51.460938 C 130.242188 51.460938 130.945312 50.816406 131.355469 50.328125 C 131.511719 51.207031 132.214844 51.460938 132.664062 51.460938 C 133.113281 51.460938 133.464844 51.1875 133.738281 50.640625 C 133.972656 50.132812 134.1875 49.234375 134.1875 49.175781 C 134.1875 49.097656 134.128906 49.039062 134.03125 49.039062 C 133.894531 49.039062 133.894531 49.117188 133.835938 49.332031 C 133.601562 50.210938 133.328125 51.148438 132.703125 51.148438 C 132.273438 51.148438 132.253906 50.757812 132.253906 50.464844 C 132.253906 50.40625 132.253906 50.09375 132.351562 49.683594 Z M 131.433594 49.527344 C 131.355469 49.78125 131.355469 49.820312 131.160156 50.09375 C 130.828125 50.503906 130.164062 51.148438 129.460938 51.148438 C 128.855469 51.148438 128.503906 50.601562 128.503906 49.722656 C 128.503906 48.902344 128.972656 47.222656 129.265625 46.597656 C 129.773438 45.542969 130.476562 45.015625 131.042969 45.015625 C 132.039062 45.015625 132.234375 46.246094 132.234375 46.363281 C 132.234375 46.382812 132.195312 46.558594 132.175781 46.597656 Z M 131.433594 49.527344 "/>
<path style=" stroke:none;fill-rule:nonzero;fill:rgb(0%,0%,0%);fill-opacity:1;" d="M 138.515625 52.984375 C 138.125 53.550781 137.539062 54.058594 136.796875 54.058594 C 136.621094 54.058594 135.898438 54.019531 135.683594 53.335938 C 135.722656 53.355469 135.800781 53.355469 135.820312 53.355469 C 136.269531 53.355469 136.582031 52.964844 136.582031 52.613281 C 136.582031 52.28125 136.289062 52.164062 136.074219 52.164062 C 135.820312 52.164062 135.3125 52.339844 135.3125 53.0625 C 135.3125 53.824219 135.957031 54.351562 136.796875 54.351562 C 138.300781 54.351562 139.804688 52.984375 140.214844 51.324219 L 141.679688 45.484375 C 141.699219 45.425781 141.738281 45.328125 141.738281 45.230469 C 141.738281 45.015625 141.542969 44.859375 141.328125 44.859375 C 141.191406 44.859375 140.878906 44.917969 140.761719 45.367188 L 139.648438 49.761719 C 139.589844 50.035156 139.589844 50.074219 139.453125 50.230469 C 139.160156 50.640625 138.671875 51.148438 137.949219 51.148438 C 137.109375 51.148438 137.03125 50.328125 137.03125 49.9375 C 137.03125 49.078125 137.441406 47.925781 137.851562 46.851562 C 138.007812 46.421875 138.105469 46.207031 138.105469 45.914062 C 138.105469 45.289062 137.65625 44.722656 136.914062 44.722656 C 135.546875 44.722656 135 46.890625 135 47.007812 C 135 47.066406 135.058594 47.144531 135.15625 47.144531 C 135.292969 47.144531 135.3125 47.085938 135.371094 46.871094 C 135.722656 45.621094 136.289062 45.015625 136.875 45.015625 C 137.011719 45.015625 137.265625 45.015625 137.265625 45.503906 C 137.265625 45.894531 137.109375 46.324219 136.875 46.890625 C 136.152344 48.863281 136.152344 49.351562 136.152344 49.703125 C 136.152344 51.128906 137.167969 51.460938 137.910156 51.460938 C 138.339844 51.460938 138.886719 51.324219 139.394531 50.757812 L 139.414062 50.777344 C 139.199219 51.65625 139.042969 52.242188 138.515625 52.984375 Z M 138.515625 52.984375 "/>
<path style=" stroke:none;fill-rule:nonzero;fill:rgb(0%,0%,0%);fill-opacity:1;" d="M 126.625 57.324219 L 142.675781 57.324219 L 142.675781 57.921875 L 126.625 57.921875 Z M 126.625 57.324219 "/>
<path style=" stroke:none;fill-rule:nonzero;fill:rgb(0%,0%,0%);fill-opacity:1;" d="M 134.160156 61.554688 C 134.179688 61.496094 134.199219 61.417969 134.199219 61.339844 C 134.199219 61.183594 134.042969 61.183594 134.023438 61.183594 C 134.003906 61.183594 133.28125 61.242188 133.203125 61.261719 C 132.949219 61.28125 132.714844 61.300781 132.460938 61.320312 C 132.070312 61.359375 131.972656 61.359375 131.972656 61.632812 C 131.972656 61.789062 132.089844 61.789062 132.304688 61.789062 C 133.027344 61.789062 133.046875 61.925781 133.046875 62.0625 C 133.046875 62.160156 133.027344 62.277344 133.007812 62.316406 L 132.089844 65.949219 C 131.933594 65.558594 131.523438 64.972656 130.742188 64.972656 C 129.0625 64.972656 127.246094 67.140625 127.246094 69.367188 C 127.246094 70.832031 128.105469 71.710938 129.121094 71.710938 C 129.941406 71.710938 130.644531 71.066406 131.054688 70.578125 C 131.210938 71.457031 131.914062 71.710938 132.363281 71.710938 C 132.8125 71.710938 133.164062 71.4375 133.4375 70.890625 C 133.671875 70.382812 133.886719 69.484375 133.886719 69.425781 C 133.886719 69.347656 133.828125 69.289062 133.730469 69.289062 C 133.59375 69.289062 133.59375 69.367188 133.535156 69.582031 C 133.300781 70.460938 133.027344 71.398438 132.402344 71.398438 C 131.972656 71.398438 131.953125 71.007812 131.953125 70.714844 C 131.953125 70.65625 131.953125 70.34375 132.050781 69.933594 Z M 131.132812 69.777344 C 131.054688 70.03125 131.054688 70.070312 130.859375 70.34375 C 130.527344 70.753906 129.863281 71.398438 129.160156 71.398438 C 128.554688 71.398438 128.203125 70.851562 128.203125 69.972656 C 128.203125 69.152344 128.671875 67.472656 128.964844 66.847656 C 129.472656 65.792969 130.175781 65.265625 130.742188 65.265625 C 131.738281 65.265625 131.933594 66.496094 131.933594 66.613281 C 131.933594 66.632812 131.894531 66.808594 131.875 66.847656 Z M 131.132812 69.777344 "/>
<path style=" stroke:none;fill-rule:nonzero;fill:rgb(0%,0%,0%);fill-opacity:1;" d="M 141.378906 65.460938 C 140.890625 65.539062 140.714844 65.910156 140.714844 66.183594 C 140.714844 66.554688 140.988281 66.671875 141.203125 66.671875 C 141.652344 66.671875 141.964844 66.28125 141.964844 65.871094 C 141.964844 65.246094 141.242188 64.972656 140.617188 64.972656 C 139.71875 64.972656 139.210938 65.871094 139.074219 66.144531 C 138.722656 65.03125 137.804688 64.972656 137.53125 64.972656 C 136.007812 64.972656 135.207031 66.925781 135.207031 67.257812 C 135.207031 67.316406 135.265625 67.394531 135.363281 67.394531 C 135.480469 67.394531 135.519531 67.296875 135.539062 67.238281 C 136.046875 65.578125 137.0625 65.265625 137.492188 65.265625 C 138.15625 65.265625 138.292969 65.890625 138.292969 66.242188 C 138.292969 66.574219 138.195312 66.925781 138.019531 67.648438 L 137.511719 69.679688 C 137.296875 70.578125 136.867188 71.398438 136.066406 71.398438 C 135.988281 71.398438 135.617188 71.398438 135.304688 71.203125 C 135.851562 71.105469 135.96875 70.65625 135.96875 70.480469 C 135.96875 70.1875 135.734375 69.992188 135.460938 69.992188 C 135.089844 69.992188 134.699219 70.324219 134.699219 70.792969 C 134.699219 71.417969 135.402344 71.710938 136.046875 71.710938 C 136.769531 71.710938 137.277344 71.144531 137.589844 70.519531 C 137.824219 71.398438 138.585938 71.710938 139.132812 71.710938 C 140.65625 71.710938 141.457031 69.738281 141.457031 69.425781 C 141.457031 69.347656 141.398438 69.289062 141.320312 69.289062 C 141.183594 69.289062 141.164062 69.367188 141.125 69.484375 C 140.714844 70.792969 139.855469 71.398438 139.171875 71.398438 C 138.644531 71.398438 138.371094 71.007812 138.371094 70.402344 C 138.371094 70.070312 138.429688 69.835938 138.664062 68.859375 L 139.191406 66.808594 C 139.40625 65.929688 139.914062 65.265625 140.617188 65.265625 C 140.636719 65.265625 141.066406 65.265625 141.378906 65.460938 Z M 141.378906 65.460938 "/>
<path style=" stroke:none;fill-rule:nonzero;fill:rgb(0%,0%,0%);fill-opacity:1;" d="M 158.316406 56.511719 C 158.53125 56.511719 158.804688 56.511719 158.804688 56.238281 C 158.804688 55.964844 158.550781 55.964844 158.316406 55.964844 L 149.527344 55.964844 C 149.3125 55.964844 149.039062 55.964844 149.039062 56.238281 C 149.039062 56.511719 149.292969 56.511719 149.527344 56.511719 Z M 158.316406 59.285156 C 158.53125 59.285156 158.804688 59.285156 158.804688 59.03125 C 158.804688 58.738281 158.550781 58.738281 158.316406 58.738281 L 149.527344 58.738281 C 149.3125 58.738281 149.039062 58.738281 149.039062 59.011719 C 149.039062 59.285156 149.292969 59.285156 149.527344 59.285156 Z M 158.316406 59.285156 "/>
<path style=" stroke:none;fill-rule:nonzero;fill:rgb(0%,0%,0%);fill-opacity:1;" d="M 169.636719 41.734375 C 169.636719 41.382812 169.636719 41.363281 169.34375 41.363281 C 168.992188 41.773438 168.230469 42.320312 166.707031 42.320312 L 166.707031 42.75 C 167.039062 42.75 167.78125 42.75 168.621094 42.378906 L 168.621094 50.152344 C 168.621094 50.699219 168.5625 50.875 167.253906 50.875 L 166.785156 50.875 L 166.785156 51.304688 C 167.195312 51.265625 168.640625 51.265625 169.128906 51.265625 C 169.636719 51.265625 171.0625 51.265625 171.472656 51.304688 L 171.472656 50.875 L 171.003906 50.875 C 169.695312 50.875 169.636719 50.699219 169.636719 50.152344 Z M 169.636719 41.734375 "/>
<path style=" stroke:none;fill-rule:nonzero;fill:rgb(0%,0%,0%);fill-opacity:1;" d="M 165.324219 57.324219 L 172.671875 57.324219 L 172.671875 57.921875 L 165.324219 57.921875 Z M 165.324219 57.324219 "/>
<path style=" stroke:none;fill-rule:nonzero;fill:rgb(0%,0%,0%);fill-opacity:1;" d="M 171.921875 69.035156 L 171.589844 69.035156 C 171.53125 69.289062 171.414062 70.128906 171.277344 70.363281 C 171.160156 70.5 170.320312 70.5 169.871094 70.5 L 167.097656 70.5 C 167.507812 70.148438 168.425781 69.191406 168.796875 68.839844 C 171.082031 66.75 171.921875 65.96875 171.921875 64.484375 C 171.921875 62.765625 170.554688 61.613281 168.816406 61.613281 C 167.097656 61.613281 166.0625 63.097656 166.0625 64.386719 C 166.0625 65.148438 166.726562 65.148438 166.765625 65.148438 C 167.097656 65.148438 167.46875 64.914062 167.46875 64.445312 C 167.46875 64.015625 167.195312 63.742188 166.765625 63.742188 C 166.648438 63.742188 166.609375 63.742188 166.570312 63.761719 C 166.84375 62.746094 167.664062 62.042969 168.621094 62.042969 C 169.890625 62.042969 170.671875 63.117188 170.671875 64.484375 C 170.671875 65.753906 169.949219 66.867188 169.089844 67.824219 L 166.0625 71.203125 L 166.0625 71.554688 L 171.53125 71.554688 Z M 171.921875 69.035156 "/>
</g>
</svg>
