<?xml version="1.0" encoding="UTF-8"?>
<svg xmlns="http://www.w3.org/2000/svg" xmlns:xlink="http://www.w3.org/1999/xlink" width="291.04013pt" height="100.49601pt" viewBox="0 0 291.04013 100.49601" version="1.1">
<g id="surface1">
<path style=" stroke:none;fill-rule:nonzero;fill:rgb(0%,0%,0%);fill-opacity:1;" d="M 6.855469 18.925781 L 6.855469 17.851562 L 1.542969 17.851562 L 1.542969 13.300781 L 3.847656 13.300781 C 4.0625 13.300781 4.277344 13.320312 4.492188 13.320312 L 7.597656 13.320312 L 7.597656 12.1875 L 0 12.1875 L 0 24.589844 L 1.542969 24.589844 L 1.542969 18.925781 Z M 6.855469 18.925781 "/>
<path style=" stroke:none;fill-rule:nonzero;fill:rgb(0%,0%,0%);fill-opacity:1;" d="M 11.109375 12.421875 L 9.566406 12.421875 L 9.566406 13.964844 L 11.109375 13.964844 Z M 11.011719 16.621094 L 9.683594 16.621094 L 9.683594 24.589844 L 11.011719 24.589844 Z M 11.011719 16.621094 "/>
<path style=" stroke:none;fill-rule:nonzero;fill:rgb(0%,0%,0%);fill-opacity:1;" d="M 20.078125 19.199219 C 20.078125 18.105469 19.84375 16.445312 17.675781 16.445312 C 16.679688 16.445312 15.820312 16.894531 15.136719 17.753906 L 15.136719 16.542969 L 13.867188 16.542969 L 13.867188 24.589844 L 15.214844 24.589844 L 15.214844 20.117188 C 15.214844 19.023438 15.644531 17.519531 16.992188 17.519531 C 18.671875 17.519531 18.710938 18.691406 18.710938 19.316406 L 18.710938 24.589844 L 20.078125 24.589844 Z M 20.078125 19.199219 "/>
<path style=" stroke:none;fill-rule:nonzero;fill:rgb(0%,0%,0%);fill-opacity:1;" d="M 29.058594 12.148438 L 27.730469 12.148438 L 27.730469 17.382812 C 26.910156 16.699219 25.972656 16.445312 25.210938 16.445312 C 23.511719 16.445312 22.105469 18.28125 22.105469 20.605469 C 22.105469 22.929688 23.433594 24.765625 25.132812 24.765625 C 25.796875 24.765625 26.8125 24.550781 27.710938 23.671875 L 27.710938 24.589844 L 29.058594 24.589844 Z M 27.710938 22.480469 C 27.28125 23.242188 26.636719 23.691406 25.855469 23.691406 C 24.761719 23.691406 23.472656 22.851562 23.472656 20.625 C 23.472656 18.242188 24.996094 17.519531 26.03125 17.519531 C 26.734375 17.519531 27.300781 17.890625 27.710938 18.476562 Z M 27.710938 22.480469 "/>
<path style=" stroke:none;fill-rule:nonzero;fill:rgb(0%,0%,0%);fill-opacity:1;" d="M 47.300781 0.449219 C 47.320312 0.371094 47.359375 0.273438 47.359375 0.175781 C 47.359375 0 47.164062 0 47.125 0 C 47.125 0 46.246094 0.078125 46.148438 0.078125 C 45.835938 0.0976562 45.582031 0.136719 45.25 0.15625 C 44.800781 0.195312 44.683594 0.214844 44.683594 0.527344 C 44.683594 0.722656 44.820312 0.722656 45.074219 0.722656 C 45.953125 0.722656 45.972656 0.878906 45.972656 1.054688 C 45.972656 1.171875 45.933594 1.308594 45.914062 1.367188 L 44.820312 5.722656 C 44.625 5.253906 44.136719 4.53125 43.199219 4.53125 C 41.1875 4.53125 39 7.148438 39 9.804688 C 39 11.582031 40.035156 12.617188 41.246094 12.617188 C 42.242188 12.617188 43.082031 11.855469 43.589844 11.25 C 43.765625 12.324219 44.605469 12.617188 45.152344 12.617188 C 45.679688 12.617188 46.109375 12.304688 46.441406 11.660156 C 46.714844 11.035156 46.96875 9.941406 46.96875 9.882812 C 46.96875 9.785156 46.910156 9.707031 46.792969 9.707031 C 46.636719 9.707031 46.617188 9.804688 46.539062 10.078125 C 46.265625 11.132812 45.933594 12.265625 45.191406 12.265625 C 44.683594 12.265625 44.644531 11.796875 44.644531 11.445312 C 44.644531 11.367188 44.644531 10.996094 44.761719 10.488281 Z M 43.667969 10.3125 C 43.589844 10.605469 43.589844 10.644531 43.335938 10.996094 C 42.945312 11.484375 42.144531 12.265625 41.304688 12.265625 C 40.582031 12.265625 40.152344 11.601562 40.152344 10.546875 C 40.152344 9.550781 40.71875 7.539062 41.050781 6.796875 C 41.675781 5.546875 42.515625 4.902344 43.199219 4.902344 C 44.390625 4.902344 44.625 6.367188 44.625 6.503906 C 44.625 6.523438 44.566406 6.757812 44.546875 6.796875 Z M 43.667969 10.3125 "/>
<path style=" stroke:none;fill-rule:nonzero;fill:rgb(0%,0%,0%);fill-opacity:1;" d="M 52.136719 14.453125 C 51.667969 15.136719 50.964844 15.742188 50.085938 15.742188 C 49.871094 15.742188 49.011719 15.703125 48.738281 14.882812 C 48.796875 14.902344 48.875 14.902344 48.914062 14.902344 C 49.460938 14.902344 49.8125 14.433594 49.8125 14.023438 C 49.8125 13.613281 49.480469 13.457031 49.207031 13.457031 C 48.914062 13.457031 48.289062 13.671875 48.289062 14.550781 C 48.289062 15.46875 49.070312 16.09375 50.085938 16.09375 C 51.882812 16.09375 53.679688 14.453125 54.1875 12.460938 L 55.945312 5.46875 C 55.964844 5.371094 56.003906 5.273438 56.003906 5.15625 C 56.003906 4.902344 55.789062 4.707031 55.515625 4.707031 C 55.359375 4.707031 54.96875 4.785156 54.832031 5.332031 L 53.503906 10.585938 C 53.425781 10.917969 53.425781 10.957031 53.269531 11.152344 C 52.917969 11.660156 52.332031 12.265625 51.472656 12.265625 C 50.457031 12.265625 50.378906 11.269531 50.378906 10.800781 C 50.378906 9.765625 50.847656 8.398438 51.335938 7.089844 C 51.53125 6.582031 51.648438 6.328125 51.648438 5.976562 C 51.648438 5.214844 51.101562 4.53125 50.222656 4.53125 C 48.582031 4.53125 47.917969 7.128906 47.917969 7.285156 C 47.917969 7.34375 47.976562 7.441406 48.113281 7.441406 C 48.269531 7.441406 48.289062 7.363281 48.367188 7.109375 C 48.796875 5.605469 49.480469 4.902344 50.164062 4.902344 C 50.339844 4.902344 50.632812 4.902344 50.632812 5.488281 C 50.632812 5.957031 50.4375 6.464844 50.164062 7.148438 C 49.285156 9.492188 49.285156 10.097656 49.285156 10.527344 C 49.285156 12.226562 50.515625 12.617188 51.414062 12.617188 C 51.921875 12.617188 52.566406 12.460938 53.210938 11.796875 L 53.230469 11.816406 C 52.957031 12.871094 52.78125 13.574219 52.136719 14.453125 Z M 52.136719 14.453125 "/>
<path style=" stroke:none;fill-rule:nonzero;fill:rgb(0%,0%,0%);fill-opacity:1;" d="M 37.8125 19.65625 L 57.011719 19.65625 L 57.011719 20.410156 L 37.8125 20.410156 Z M 37.8125 19.65625 "/>
<path style=" stroke:none;fill-rule:nonzero;fill:rgb(0%,0%,0%);fill-opacity:1;" d="M 46.851562 24.898438 C 46.871094 24.820312 46.910156 24.722656 46.910156 24.625 C 46.910156 24.449219 46.714844 24.449219 46.675781 24.449219 C 46.675781 24.449219 45.796875 24.527344 45.699219 24.527344 C 45.386719 24.546875 45.132812 24.585938 44.800781 24.605469 C 44.351562 24.644531 44.234375 24.664062 44.234375 24.976562 C 44.234375 25.171875 44.371094 25.171875 44.625 25.171875 C 45.503906 25.171875 45.523438 25.328125 45.523438 25.503906 C 45.523438 25.621094 45.484375 25.757812 45.464844 25.816406 L 44.371094 30.171875 C 44.175781 29.703125 43.6875 28.980469 42.75 28.980469 C 40.738281 28.980469 38.550781 31.597656 38.550781 34.253906 C 38.550781 36.03125 39.585938 37.066406 40.796875 37.066406 C 41.792969 37.066406 42.632812 36.304688 43.140625 35.699219 C 43.316406 36.773438 44.15625 37.066406 44.703125 37.066406 C 45.230469 37.066406 45.660156 36.753906 45.992188 36.109375 C 46.265625 35.484375 46.519531 34.390625 46.519531 34.332031 C 46.519531 34.234375 46.460938 34.15625 46.34375 34.15625 C 46.1875 34.15625 46.167969 34.253906 46.089844 34.527344 C 45.816406 35.582031 45.484375 36.714844 44.742188 36.714844 C 44.234375 36.714844 44.195312 36.246094 44.195312 35.894531 C 44.195312 35.816406 44.195312 35.445312 44.3125 34.9375 Z M 43.21875 34.761719 C 43.140625 35.054688 43.140625 35.09375 42.886719 35.445312 C 42.496094 35.933594 41.695312 36.714844 40.855469 36.714844 C 40.132812 36.714844 39.703125 36.050781 39.703125 34.996094 C 39.703125 34 40.269531 31.988281 40.601562 31.246094 C 41.226562 29.996094 42.066406 29.351562 42.75 29.351562 C 43.941406 29.351562 44.175781 30.816406 44.175781 30.953125 C 44.175781 30.972656 44.117188 31.207031 44.097656 31.246094 Z M 43.21875 34.761719 "/>
<path style=" stroke:none;fill-rule:nonzero;fill:rgb(0%,0%,0%);fill-opacity:1;" d="M 55.476562 29.566406 C 54.910156 29.683594 54.695312 30.113281 54.695312 30.445312 C 54.695312 30.875 55.027344 31.03125 55.28125 31.03125 C 55.828125 31.03125 56.199219 30.5625 56.199219 30.074219 C 56.199219 29.332031 55.339844 28.980469 54.578125 28.980469 C 53.484375 28.980469 52.878906 30.054688 52.722656 30.40625 C 52.3125 29.058594 51.199219 28.980469 50.867188 28.980469 C 49.050781 28.980469 48.074219 31.324219 48.074219 31.734375 C 48.074219 31.792969 48.152344 31.890625 48.269531 31.890625 C 48.40625 31.890625 48.445312 31.773438 48.484375 31.714844 C 49.089844 29.722656 50.300781 29.351562 50.808594 29.351562 C 51.628906 29.351562 51.785156 30.09375 51.785156 30.523438 C 51.785156 30.914062 51.6875 31.324219 51.453125 32.183594 L 50.847656 34.644531 C 50.59375 35.71875 50.066406 36.714844 49.109375 36.714844 C 49.03125 36.714844 48.582031 36.714844 48.191406 36.480469 C 48.835938 36.34375 48.992188 35.816406 48.992188 35.601562 C 48.992188 35.25 48.71875 35.035156 48.386719 35.035156 C 47.957031 35.035156 47.488281 35.40625 47.488281 35.972656 C 47.488281 36.734375 48.328125 37.066406 49.089844 37.066406 C 49.949219 37.066406 50.574219 36.382812 50.945312 35.660156 C 51.238281 36.714844 52.117188 37.066406 52.78125 37.066406 C 54.617188 37.066406 55.59375 34.722656 55.59375 34.332031 C 55.59375 34.234375 55.515625 34.15625 55.398438 34.15625 C 55.242188 34.15625 55.222656 34.253906 55.183594 34.390625 C 54.695312 35.972656 53.640625 36.714844 52.839844 36.714844 C 52.214844 36.714844 51.882812 36.246094 51.882812 35.503906 C 51.882812 35.113281 51.941406 34.820312 52.234375 33.648438 L 52.859375 31.207031 C 53.132812 30.132812 53.738281 29.351562 54.558594 29.351562 C 54.597656 29.351562 55.105469 29.351562 55.476562 29.566406 Z M 55.476562 29.566406 "/>
<path style=" stroke:none;fill-rule:nonzero;fill:rgb(0%,0%,0%);fill-opacity:1;" d="M 70.492188 17.519531 C 70.492188 17.519531 70.53125 17.558594 70.550781 17.597656 C 70.921875 17.558594 71.3125 17.5 71.976562 17.5 C 72.035156 17.5 72.445312 17.5 72.894531 17.539062 L 72.699219 16.445312 C 72.367188 16.445312 71.136719 16.464844 69.945312 17.050781 C 69.359375 16.542969 68.636719 16.445312 68.285156 16.445312 C 66.722656 16.445312 65.472656 17.753906 65.472656 19.335938 C 65.472656 19.980469 65.667969 20.566406 66.058594 21.113281 C 65.648438 21.679688 65.550781 22.226562 65.550781 22.65625 C 65.550781 23.320312 65.804688 23.769531 66 24.003906 C 65.082031 24.589844 64.867188 25.351562 64.867188 25.859375 C 64.867188 27.167969 66.566406 28.261719 68.753906 28.261719 C 70.941406 28.261719 72.660156 27.207031 72.660156 25.839844 C 72.660156 23.339844 69.75 23.339844 69.027344 23.339844 L 67.503906 23.339844 C 67.25 23.339844 66.46875 23.339844 66.46875 22.382812 C 66.46875 21.992188 66.546875 21.875 66.664062 21.71875 C 66.957031 21.933594 67.542969 22.246094 68.265625 22.246094 C 69.808594 22.246094 71.078125 20.976562 71.078125 19.335938 C 71.078125 18.691406 70.84375 18.027344 70.472656 17.539062 Z M 68.285156 21.25 C 67.503906 21.25 66.703125 20.722656 66.703125 19.355469 C 66.703125 17.753906 67.71875 17.441406 68.265625 17.441406 C 69.066406 17.441406 69.847656 17.96875 69.847656 19.335938 C 69.847656 20.9375 68.851562 21.25 68.285156 21.25 Z M 69.046875 24.628906 C 69.4375 24.628906 71.410156 24.628906 71.410156 25.859375 C 71.410156 26.679688 70.179688 27.285156 68.773438 27.285156 C 67.367188 27.285156 66.117188 26.71875 66.117188 25.839844 C 66.117188 25.800781 66.117188 24.628906 67.484375 24.628906 Z M 69.046875 24.628906 "/>
<path style=" stroke:none;fill-rule:nonzero;fill:rgb(0%,0%,0%);fill-opacity:1;" d="M 76.0625 12.421875 L 74.519531 12.421875 L 74.519531 13.964844 L 76.0625 13.964844 Z M 75.964844 16.621094 L 74.636719 16.621094 L 74.636719 24.589844 L 75.964844 24.589844 Z M 75.964844 16.621094 "/>
<path style=" stroke:none;fill-rule:nonzero;fill:rgb(0%,0%,0%);fill-opacity:1;" d="M 85.183594 16.621094 L 83.855469 16.621094 L 82.546875 20.195312 C 82.234375 21.054688 81.570312 22.949219 81.472656 23.613281 L 81.453125 23.613281 C 81.355469 22.988281 81.003906 22.011719 80.730469 21.230469 L 79.070312 16.621094 L 77.683594 16.621094 L 80.632812 24.589844 L 82.234375 24.589844 Z M 85.183594 16.621094 "/>
<path style=" stroke:none;fill-rule:nonzero;fill:rgb(0%,0%,0%);fill-opacity:1;" d="M 92.832031 20.546875 C 92.832031 19.785156 92.753906 18.691406 92.1875 17.734375 C 91.445312 16.503906 90.195312 16.367188 89.667969 16.367188 C 87.734375 16.367188 86.113281 18.222656 86.113281 20.546875 C 86.113281 22.929688 87.832031 24.765625 89.921875 24.765625 C 90.742188 24.765625 91.738281 24.53125 92.714844 23.828125 C 92.714844 23.75 92.65625 23.183594 92.65625 23.164062 C 92.636719 23.144531 92.617188 22.734375 92.617188 22.675781 C 91.542969 23.574219 90.488281 23.691406 89.960938 23.691406 C 88.574219 23.691406 87.382812 22.460938 87.363281 20.546875 Z M 87.460938 19.589844 C 87.773438 18.378906 88.613281 17.441406 89.667969 17.441406 C 90.234375 17.441406 91.464844 17.695312 91.757812 19.589844 Z M 87.460938 19.589844 "/>
<path style=" stroke:none;fill-rule:nonzero;fill:rgb(0%,0%,0%);fill-opacity:1;" d="M 100.925781 19.199219 C 100.925781 18.105469 100.691406 16.445312 98.523438 16.445312 C 97.527344 16.445312 96.667969 16.894531 95.984375 17.753906 L 95.984375 16.542969 L 94.714844 16.542969 L 94.714844 24.589844 L 96.0625 24.589844 L 96.0625 20.117188 C 96.0625 19.023438 96.492188 17.519531 97.839844 17.519531 C 99.519531 17.519531 99.558594 18.691406 99.558594 19.316406 L 99.558594 24.589844 L 100.925781 24.589844 Z M 100.925781 19.199219 "/>
<path style=" stroke:none;fill-rule:nonzero;fill:rgb(0%,0%,0%);fill-opacity:1;" d="M 110.945312 17.675781 L 113.425781 17.675781 L 113.425781 16.621094 L 110.945312 16.621094 L 110.945312 14.355469 L 109.714844 14.355469 L 109.714844 16.621094 L 108.210938 16.621094 L 108.210938 17.675781 L 109.675781 17.675781 L 109.675781 22.5 C 109.675781 23.535156 109.910156 24.765625 111.140625 24.765625 C 112.351562 24.765625 113.171875 24.355469 113.71875 24.0625 L 113.445312 23.027344 C 112.820312 23.59375 112.15625 23.652344 111.84375 23.652344 C 111.042969 23.652344 110.945312 22.8125 110.945312 22.1875 Z M 110.945312 17.675781 "/>
<path style=" stroke:none;fill-rule:nonzero;fill:rgb(0%,0%,0%);fill-opacity:1;" d="M 121.777344 19.199219 C 121.777344 18.105469 121.542969 16.445312 119.375 16.445312 C 118.144531 16.445312 117.324219 17.148438 116.894531 17.695312 L 116.894531 12.148438 L 115.566406 12.148438 L 115.566406 24.589844 L 116.914062 24.589844 L 116.914062 20.117188 C 116.914062 19.023438 117.34375 17.519531 118.691406 17.519531 C 120.371094 17.519531 120.410156 18.691406 120.410156 19.316406 L 120.410156 24.589844 L 121.777344 24.589844 Z M 121.777344 19.199219 "/>
<path style=" stroke:none;fill-rule:nonzero;fill:rgb(0%,0%,0%);fill-opacity:1;" d="M 130.191406 19.335938 C 130.191406 17.617188 128.960938 16.367188 127.28125 16.367188 C 126.207031 16.367188 125.40625 16.601562 124.527344 17.109375 L 124.625 18.300781 C 125.425781 17.714844 126.246094 17.402344 127.28125 17.402344 C 128.101562 17.402344 128.824219 18.066406 128.824219 19.375 L 128.824219 20.117188 C 128.023438 20.136719 126.949219 20.195312 125.875 20.546875 C 124.664062 20.976562 123.960938 21.640625 123.960938 22.519531 C 123.960938 23.320312 124.429688 24.765625 125.953125 24.765625 C 126.949219 24.765625 128.199219 24.472656 128.863281 23.925781 L 128.863281 24.589844 L 130.191406 24.589844 Z M 128.824219 22.1875 C 128.824219 22.539062 128.824219 22.96875 128.238281 23.339844 C 127.75 23.632812 127.144531 23.691406 126.871094 23.691406 C 125.914062 23.691406 125.25 23.164062 125.25 22.519531 C 125.25 21.289062 127.730469 21.015625 128.824219 21.015625 Z M 128.824219 22.1875 "/>
<path style=" stroke:none;fill-rule:nonzero;fill:rgb(0%,0%,0%);fill-opacity:1;" d="M 134.644531 17.675781 L 137.125 17.675781 L 137.125 16.621094 L 134.644531 16.621094 L 134.644531 14.355469 L 133.414062 14.355469 L 133.414062 16.621094 L 131.910156 16.621094 L 131.910156 17.675781 L 133.375 17.675781 L 133.375 22.5 C 133.375 23.535156 133.609375 24.765625 134.839844 24.765625 C 136.050781 24.765625 136.871094 24.355469 137.417969 24.0625 L 137.144531 23.027344 C 136.519531 23.59375 135.855469 23.652344 135.542969 23.652344 C 134.742188 23.652344 134.644531 22.8125 134.644531 22.1875 Z M 134.644531 17.675781 "/>
<path style=" stroke:none;fill-rule:nonzero;fill:rgb(0%,0%,0%);fill-opacity:1;" d="M 20.636719 85.402344 C 20.167969 86.085938 19.464844 86.691406 18.585938 86.691406 C 18.371094 86.691406 17.511719 86.652344 17.238281 85.832031 C 17.296875 85.851562 17.375 85.851562 17.414062 85.851562 C 17.960938 85.851562 18.3125 85.382812 18.3125 84.972656 C 18.3125 84.5625 17.980469 84.40625 17.707031 84.40625 C 17.414062 84.40625 16.789062 84.621094 16.789062 85.5 C 16.789062 86.417969 17.570312 87.042969 18.585938 87.042969 C 20.382812 87.042969 22.179688 85.402344 22.6875 83.410156 L 24.445312 76.417969 C 24.464844 76.320312 24.503906 76.222656 24.503906 76.105469 C 24.503906 75.851562 24.289062 75.65625 24.015625 75.65625 C 23.859375 75.65625 23.46875 75.734375 23.332031 76.28125 L 22.003906 81.535156 C 21.925781 81.867188 21.925781 81.90625 21.769531 82.101562 C 21.417969 82.609375 20.832031 83.214844 19.972656 83.214844 C 18.957031 83.214844 18.878906 82.21875 18.878906 81.75 C 18.878906 80.714844 19.347656 79.347656 19.835938 78.039062 C 20.03125 77.53125 20.148438 77.277344 20.148438 76.925781 C 20.148438 76.164062 19.601562 75.480469 18.722656 75.480469 C 17.082031 75.480469 16.417969 78.078125 16.417969 78.234375 C 16.417969 78.292969 16.476562 78.390625 16.613281 78.390625 C 16.769531 78.390625 16.789062 78.3125 16.867188 78.058594 C 17.296875 76.554688 17.980469 75.851562 18.664062 75.851562 C 18.839844 75.851562 19.132812 75.851562 19.132812 76.4375 C 19.132812 76.90625 18.9375 77.414062 18.664062 78.097656 C 17.785156 80.441406 17.785156 81.046875 17.785156 81.476562 C 17.785156 83.175781 19.015625 83.566406 19.914062 83.566406 C 20.421875 83.566406 21.066406 83.410156 21.710938 82.746094 L 21.730469 82.765625 C 21.457031 83.820312 21.28125 84.523438 20.636719 85.402344 Z M 20.636719 85.402344 "/>
<path style=" stroke:none;fill-rule:nonzero;fill:rgb(0%,0%,0%);fill-opacity:1;" d="M 42.289062 77.589844 C 42.542969 77.589844 42.855469 77.589844 42.855469 77.257812 C 42.855469 76.925781 42.542969 76.925781 42.289062 76.925781 L 31.722656 76.925781 C 31.46875 76.925781 31.15625 76.925781 31.15625 77.238281 C 31.15625 77.589844 31.449219 77.589844 31.722656 77.589844 Z M 42.289062 80.910156 C 42.542969 80.910156 42.855469 80.910156 42.855469 80.597656 C 42.855469 80.246094 42.542969 80.246094 42.289062 80.246094 L 31.722656 80.246094 C 31.46875 80.246094 31.15625 80.246094 31.15625 80.578125 C 31.15625 80.910156 31.449219 80.910156 31.722656 80.910156 Z M 42.289062 80.910156 "/>
<path style=" stroke:none;fill-rule:nonzero;fill:rgb(0%,0%,0%);fill-opacity:1;" d="M 55.261719 76.75 C 55.046875 76.75 54.382812 76.75 54.382812 77.492188 C 54.382812 77.921875 54.695312 78.234375 55.125 78.234375 C 55.535156 78.234375 55.886719 77.980469 55.886719 77.453125 C 55.886719 76.261719 54.617188 75.402344 53.171875 75.402344 C 51.082031 75.402344 49.402344 77.257812 49.402344 79.523438 C 49.402344 81.808594 51.121094 83.566406 53.152344 83.566406 C 55.515625 83.566406 56.0625 81.417969 56.0625 81.261719 C 56.0625 81.085938 55.925781 81.085938 55.886719 81.085938 C 55.710938 81.085938 55.691406 81.144531 55.652344 81.359375 C 55.242188 82.628906 54.285156 83.175781 53.308594 83.175781 C 52.214844 83.175781 50.769531 82.21875 50.769531 79.503906 C 50.769531 76.515625 52.292969 75.792969 53.191406 75.792969 C 53.875 75.792969 54.851562 76.066406 55.261719 76.75 Z M 55.261719 76.75 "/>
<path style=" stroke:none;fill-rule:nonzero;fill:rgb(0%,0%,0%);fill-opacity:1;" d="M 64.800781 79.5625 C 64.800781 77.238281 63.042969 75.402344 60.972656 75.402344 C 58.824219 75.402344 57.125 77.296875 57.125 79.5625 C 57.125 81.847656 58.902344 83.566406 60.953125 83.566406 C 63.0625 83.566406 64.800781 81.808594 64.800781 79.5625 Z M 60.972656 83.175781 C 60.308594 83.175781 59.507812 82.882812 58.980469 82.003906 C 58.492188 81.203125 58.472656 80.148438 58.472656 79.386719 C 58.472656 78.703125 58.472656 77.609375 59.039062 76.808594 C 59.527344 76.046875 60.328125 75.753906 60.953125 75.753906 C 61.65625 75.753906 62.398438 76.066406 62.886719 76.769531 C 63.453125 77.589844 63.453125 78.722656 63.453125 79.386719 C 63.453125 80.011719 63.453125 81.125 62.984375 81.964844 C 62.476562 82.84375 61.65625 83.175781 60.972656 83.175781 Z M 60.972656 83.175781 "/>
<path style=" stroke:none;fill-rule:nonzero;fill:rgb(0%,0%,0%);fill-opacity:1;" d="M 68.4375 76.183594 L 70.976562 76.183594 L 70.976562 75.65625 L 68.4375 75.65625 L 68.4375 72.355469 L 68.046875 72.355469 C 68.027344 74.054688 67.382812 75.773438 65.761719 75.832031 L 65.761719 76.183594 L 67.285156 76.183594 L 67.285156 81.164062 C 67.285156 83.15625 68.59375 83.566406 69.550781 83.566406 C 70.683594 83.566406 71.269531 82.453125 71.269531 81.164062 L 71.269531 80.148438 L 70.878906 80.148438 L 70.878906 81.125 C 70.878906 82.414062 70.351562 83.175781 69.667969 83.175781 C 68.4375 83.175781 68.4375 81.515625 68.4375 81.203125 Z M 68.4375 76.183594 "/>
<path style=" stroke:none;fill-rule:nonzero;fill:rgb(0%,0%,0%);fill-opacity:1;" d="M 80.382812 73.171875 C 80.597656 73.171875 80.832031 73.171875 80.832031 72.917969 C 80.832031 72.683594 80.597656 72.683594 80.382812 72.683594 L 73.644531 72.683594 C 73.429688 72.683594 73.214844 72.683594 73.214844 72.917969 C 73.214844 73.171875 73.429688 73.171875 73.644531 73.171875 Z M 80.382812 73.171875 "/>
<path style=" stroke:none;fill-rule:nonzero;fill:rgb(0%,0%,0%);fill-opacity:1;" d="M 85.601562 68.074219 C 85.601562 67.761719 85.601562 67.742188 85.308594 67.742188 C 84.527344 68.542969 83.433594 68.542969 83.042969 68.542969 L 83.042969 68.933594 C 83.296875 68.933594 84.019531 68.933594 84.664062 68.601562 L 84.664062 75.066406 C 84.664062 75.515625 84.625 75.652344 83.511719 75.652344 L 83.121094 75.652344 L 83.121094 76.042969 C 83.550781 76.003906 84.625 76.003906 85.132812 76.003906 C 85.621094 76.003906 86.714844 76.003906 87.144531 76.042969 L 87.144531 75.652344 L 86.753906 75.652344 C 85.621094 75.652344 85.601562 75.515625 85.601562 75.066406 Z M 85.601562 68.074219 "/>
<path style=" stroke:none;fill-rule:nonzero;fill:rgb(0%,0%,0%);fill-opacity:1;" d="M 96.152344 100.496094 L 100.878906 100.496094 L 100.878906 99.5 L 97.148438 99.5 L 97.148438 58.464844 L 100.878906 58.464844 L 100.878906 57.46875 L 96.152344 57.46875 Z M 96.152344 100.496094 "/>
<path style=" stroke:none;fill-rule:nonzero;fill:rgb(0%,0%,0%);fill-opacity:1;" d="M 109.75 72.324219 L 106.605469 65.351562 C 106.46875 65.058594 106.390625 65.058594 106.332031 65.058594 C 106.3125 65.058594 106.214844 65.058594 106.019531 65.195312 L 104.320312 66.503906 C 104.085938 66.679688 104.085938 66.71875 104.085938 66.777344 C 104.085938 66.875 104.144531 66.972656 104.261719 66.972656 C 104.378906 66.972656 104.671875 66.71875 104.867188 66.582031 C 104.984375 66.503906 105.257812 66.289062 105.453125 66.152344 L 108.988281 73.925781 C 109.105469 74.199219 109.203125 74.199219 109.359375 74.199219 C 109.632812 74.199219 109.671875 74.101562 109.808594 73.847656 L 117.953125 56.992188 C 118.070312 56.738281 118.070312 56.660156 118.070312 56.640625 C 118.070312 56.445312 117.933594 56.269531 117.71875 56.269531 C 117.5625 56.269531 117.445312 56.367188 117.308594 56.660156 Z M 109.75 72.324219 "/>
<path style=" stroke:none;fill-rule:nonzero;fill:rgb(0%,0%,0%);fill-opacity:1;" d="M 117.765625 56.253906 L 182.714844 56.253906 L 182.714844 57.007812 L 117.765625 57.007812 Z M 117.765625 56.253906 "/>
<path style=" stroke:none;fill-rule:nonzero;fill:rgb(0%,0%,0%);fill-opacity:1;" d="M 122.933594 59.757812 C 122.933594 59.328125 122.933594 59.328125 122.582031 59.328125 C 122.152344 59.796875 121.253906 60.460938 119.417969 60.460938 L 119.417969 60.988281 C 119.828125 60.988281 120.726562 60.988281 121.703125 60.519531 L 121.703125 69.855469 C 121.703125 70.5 121.644531 70.714844 120.082031 70.714844 L 119.515625 70.714844 L 119.515625 71.242188 C 120.003906 71.203125 121.742188 71.203125 122.328125 71.203125 C 122.914062 71.203125 124.652344 71.203125 125.121094 71.242188 L 125.121094 70.714844 L 124.574219 70.714844 C 122.992188 70.714844 122.933594 70.5 122.933594 69.855469 Z M 122.933594 59.757812 "/>
<path style=" stroke:none;fill-rule:nonzero;fill:rgb(0%,0%,0%);fill-opacity:1;" d="M 137.675781 67.101562 L 142.636719 67.101562 C 142.890625 67.101562 143.203125 67.101562 143.203125 66.769531 C 143.203125 66.4375 142.890625 66.4375 142.636719 66.4375 L 137.675781 66.4375 L 137.675781 61.496094 C 137.675781 61.242188 137.675781 60.910156 137.363281 60.910156 C 137.011719 60.910156 137.011719 61.222656 137.011719 61.496094 L 137.011719 66.4375 L 132.070312 66.4375 C 131.816406 66.4375 131.503906 66.4375 131.503906 66.769531 C 131.503906 67.101562 131.796875 67.101562 132.070312 67.101562 L 137.011719 67.101562 L 137.011719 72.042969 C 137.011719 72.296875 137.011719 72.628906 137.34375 72.628906 C 137.675781 72.628906 137.675781 72.316406 137.675781 72.042969 Z M 137.675781 67.101562 "/>
<path style=" stroke:none;fill-rule:nonzero;fill:rgb(0%,0%,0%);fill-opacity:1;" d="M 154.109375 63.664062 C 154.109375 63.332031 154.109375 63.253906 153.933594 63.253906 C 153.796875 63.253906 153.445312 63.644531 153.328125 63.800781 C 152.761719 63.351562 152.214844 63.253906 151.628906 63.253906 C 149.460938 63.253906 148.816406 64.425781 148.816406 65.421875 C 148.816406 65.617188 148.816406 66.242188 149.5 66.867188 C 150.085938 67.375 150.691406 67.492188 151.511719 67.648438 C 152.488281 67.84375 152.722656 67.902344 153.171875 68.273438 C 153.503906 68.527344 153.738281 68.9375 153.738281 69.425781 C 153.738281 70.207031 153.289062 71.066406 151.707031 71.066406 C 150.535156 71.066406 149.65625 70.382812 149.265625 68.585938 C 149.207031 68.273438 149.207031 68.253906 149.1875 68.234375 C 149.148438 68.15625 149.070312 68.15625 149.011719 68.15625 C 148.816406 68.15625 148.816406 68.253906 148.816406 68.566406 L 148.816406 71.007812 C 148.816406 71.339844 148.816406 71.417969 148.992188 71.417969 C 149.089844 71.417969 149.109375 71.398438 149.421875 71.027344 C 149.5 70.910156 149.5 70.871094 149.773438 70.578125 C 150.457031 71.417969 151.414062 71.417969 151.726562 71.417969 C 153.601562 71.417969 154.539062 70.382812 154.539062 68.957031 C 154.539062 68 153.953125 67.414062 153.796875 67.257812 C 153.152344 66.710938 152.664062 66.59375 151.472656 66.378906 C 150.945312 66.28125 149.636719 66.027344 149.636719 64.953125 C 149.636719 64.386719 150.007812 63.566406 151.628906 63.566406 C 153.582031 63.566406 153.679688 65.226562 153.71875 65.792969 C 153.738281 65.929688 153.855469 65.929688 153.914062 65.929688 C 154.109375 65.929688 154.109375 65.851562 154.109375 65.519531 Z M 154.109375 63.664062 "/>
<path style=" stroke:none;fill-rule:nonzero;fill:rgb(0%,0%,0%);fill-opacity:1;" d="M 158.253906 60.207031 C 158.253906 59.738281 157.863281 59.328125 157.375 59.328125 C 156.90625 59.328125 156.515625 59.699219 156.515625 60.1875 C 156.515625 60.714844 156.945312 61.066406 157.375 61.066406 C 157.921875 61.066406 158.253906 60.597656 158.253906 60.207031 Z M 155.773438 63.527344 L 155.773438 64.054688 C 156.925781 64.054688 157.082031 64.152344 157.082031 65.03125 L 157.082031 69.914062 C 157.082031 70.714844 156.886719 70.714844 155.714844 70.714844 L 155.714844 71.242188 C 156.222656 71.203125 157.082031 71.203125 157.609375 71.203125 C 157.804688 71.203125 158.839844 71.203125 159.445312 71.242188 L 159.445312 70.714844 C 158.292969 70.714844 158.214844 70.636719 158.214844 69.933594 L 158.214844 63.332031 Z M 155.773438 63.527344 "/>
<path style=" stroke:none;fill-rule:nonzero;fill:rgb(0%,0%,0%);fill-opacity:1;" d="M 168.066406 66.886719 C 168.066406 65.226562 168.066406 64.71875 167.636719 64.132812 C 167.128906 63.449219 166.289062 63.332031 165.664062 63.332031 C 163.925781 63.332031 163.242188 64.816406 163.105469 65.1875 L 163.085938 65.1875 L 163.085938 63.332031 L 160.644531 63.527344 L 160.644531 64.054688 C 161.875 64.054688 162.011719 64.171875 162.011719 65.050781 L 162.011719 69.914062 C 162.011719 70.714844 161.816406 70.714844 160.644531 70.714844 L 160.644531 71.242188 C 161.113281 71.203125 162.089844 71.203125 162.597656 71.203125 C 163.105469 71.203125 164.082031 71.203125 164.550781 71.242188 L 164.550781 70.714844 C 163.398438 70.714844 163.183594 70.714844 163.183594 69.914062 L 163.183594 66.574219 C 163.183594 64.699219 164.414062 63.703125 165.527344 63.703125 C 166.640625 63.703125 166.894531 64.601562 166.894531 65.695312 L 166.894531 69.914062 C 166.894531 70.714844 166.699219 70.714844 165.527344 70.714844 L 165.527344 71.242188 C 165.996094 71.203125 166.972656 71.203125 167.460938 71.203125 C 167.988281 71.203125 168.945312 71.203125 169.414062 71.242188 L 169.414062 70.714844 C 168.515625 70.714844 168.066406 70.714844 168.066406 70.1875 Z M 168.066406 66.886719 "/>
<path style=" stroke:none;fill-rule:nonzero;fill:rgb(0%,0%,0%);fill-opacity:1;" d="M 181.175781 63.917969 C 180.609375 64.035156 180.394531 64.464844 180.394531 64.796875 C 180.394531 65.226562 180.726562 65.382812 180.980469 65.382812 C 181.527344 65.382812 181.898438 64.914062 181.898438 64.425781 C 181.898438 63.683594 181.039062 63.332031 180.277344 63.332031 C 179.183594 63.332031 178.578125 64.40625 178.421875 64.757812 C 178.011719 63.410156 176.898438 63.332031 176.566406 63.332031 C 174.75 63.332031 173.773438 65.675781 173.773438 66.085938 C 173.773438 66.144531 173.851562 66.242188 173.96875 66.242188 C 174.105469 66.242188 174.144531 66.125 174.183594 66.066406 C 174.789062 64.074219 176 63.703125 176.507812 63.703125 C 177.328125 63.703125 177.484375 64.445312 177.484375 64.875 C 177.484375 65.265625 177.386719 65.675781 177.152344 66.535156 L 176.546875 68.996094 C 176.292969 70.070312 175.765625 71.066406 174.808594 71.066406 C 174.730469 71.066406 174.28125 71.066406 173.890625 70.832031 C 174.535156 70.695312 174.691406 70.167969 174.691406 69.953125 C 174.691406 69.601562 174.417969 69.386719 174.085938 69.386719 C 173.65625 69.386719 173.1875 69.757812 173.1875 70.324219 C 173.1875 71.085938 174.027344 71.417969 174.789062 71.417969 C 175.648438 71.417969 176.273438 70.734375 176.644531 70.011719 C 176.9375 71.066406 177.816406 71.417969 178.480469 71.417969 C 180.316406 71.417969 181.292969 69.074219 181.292969 68.683594 C 181.292969 68.585938 181.214844 68.507812 181.097656 68.507812 C 180.941406 68.507812 180.921875 68.605469 180.882812 68.742188 C 180.394531 70.324219 179.339844 71.066406 178.539062 71.066406 C 177.914062 71.066406 177.582031 70.597656 177.582031 69.855469 C 177.582031 69.464844 177.640625 69.171875 177.933594 68 L 178.558594 65.558594 C 178.832031 64.484375 179.4375 63.703125 180.257812 63.703125 C 180.296875 63.703125 180.804688 63.703125 181.175781 63.917969 Z M 181.175781 63.917969 "/>
<path style=" stroke:none;fill-rule:nonzero;fill:rgb(0%,0%,0%);fill-opacity:1;" d="M 193.777344 67.101562 L 198.738281 67.101562 C 198.992188 67.101562 199.304688 67.101562 199.304688 66.769531 C 199.304688 66.4375 198.992188 66.4375 198.738281 66.4375 L 193.777344 66.4375 L 193.777344 61.496094 C 193.777344 61.242188 193.777344 60.910156 193.464844 60.910156 C 193.113281 60.910156 193.113281 61.222656 193.113281 61.496094 L 193.113281 66.4375 L 188.171875 66.4375 C 187.917969 66.4375 187.605469 66.4375 187.605469 66.769531 C 187.605469 67.101562 187.898438 67.101562 188.171875 67.101562 L 193.113281 67.101562 L 193.113281 72.042969 C 193.113281 72.296875 193.113281 72.628906 193.445312 72.628906 C 193.777344 72.628906 193.777344 72.316406 193.777344 72.042969 Z M 193.777344 67.101562 "/>
<path style=" stroke:none;fill-rule:nonzero;fill:rgb(0%,0%,0%);fill-opacity:1;" d="M 211.300781 72.324219 L 208.15625 65.351562 C 208.019531 65.058594 207.941406 65.058594 207.882812 65.058594 C 207.863281 65.058594 207.765625 65.058594 207.570312 65.195312 L 205.871094 66.503906 C 205.636719 66.679688 205.636719 66.71875 205.636719 66.777344 C 205.636719 66.875 205.695312 66.972656 205.8125 66.972656 C 205.929688 66.972656 206.222656 66.71875 206.417969 66.582031 C 206.535156 66.503906 206.808594 66.289062 207.003906 66.152344 L 210.539062 73.925781 C 210.65625 74.199219 210.753906 74.199219 210.910156 74.199219 C 211.183594 74.199219 211.222656 74.101562 211.359375 73.847656 L 219.503906 56.992188 C 219.621094 56.738281 219.621094 56.660156 219.621094 56.640625 C 219.621094 56.445312 219.484375 56.269531 219.269531 56.269531 C 219.113281 56.269531 218.996094 56.367188 218.859375 56.660156 Z M 211.300781 72.324219 "/>
<path style=" stroke:none;fill-rule:nonzero;fill:rgb(0%,0%,0%);fill-opacity:1;" d="M 219.3125 56.253906 L 284.5625 56.253906 L 284.5625 57.007812 L 219.3125 57.007812 Z M 219.3125 56.253906 "/>
<path style=" stroke:none;fill-rule:nonzero;fill:rgb(0%,0%,0%);fill-opacity:1;" d="M 224.484375 59.757812 C 224.484375 59.328125 224.484375 59.328125 224.132812 59.328125 C 223.703125 59.796875 222.804688 60.460938 220.96875 60.460938 L 220.96875 60.988281 C 221.378906 60.988281 222.277344 60.988281 223.253906 60.519531 L 223.253906 69.855469 C 223.253906 70.5 223.195312 70.714844 221.632812 70.714844 L 221.066406 70.714844 L 221.066406 71.242188 C 221.554688 71.203125 223.292969 71.203125 223.878906 71.203125 C 224.464844 71.203125 226.203125 71.203125 226.671875 71.242188 L 226.671875 70.714844 L 226.125 70.714844 C 224.542969 70.714844 224.484375 70.5 224.484375 69.855469 Z M 224.484375 59.757812 "/>
<path style=" stroke:none;fill-rule:nonzero;fill:rgb(0%,0%,0%);fill-opacity:1;" d="M 243.894531 67.121094 C 244.207031 67.121094 244.519531 67.121094 244.519531 66.769531 C 244.519531 66.398438 244.207031 66.398438 243.894531 66.398438 L 234.1875 66.398438 C 233.894531 66.398438 233.5625 66.398438 233.5625 66.769531 C 233.5625 67.121094 233.894531 67.121094 234.1875 67.121094 Z M 243.894531 67.121094 "/>
<path style=" stroke:none;fill-rule:nonzero;fill:rgb(0%,0%,0%);fill-opacity:1;" d="M 255.808594 63.664062 C 255.808594 63.332031 255.808594 63.253906 255.632812 63.253906 C 255.496094 63.253906 255.144531 63.644531 255.027344 63.800781 C 254.460938 63.351562 253.914062 63.253906 253.328125 63.253906 C 251.160156 63.253906 250.515625 64.425781 250.515625 65.421875 C 250.515625 65.617188 250.515625 66.242188 251.199219 66.867188 C 251.785156 67.375 252.390625 67.492188 253.210938 67.648438 C 254.1875 67.84375 254.421875 67.902344 254.871094 68.273438 C 255.203125 68.527344 255.4375 68.9375 255.4375 69.425781 C 255.4375 70.207031 254.988281 71.066406 253.40625 71.066406 C 252.234375 71.066406 251.355469 70.382812 250.964844 68.585938 C 250.90625 68.273438 250.90625 68.253906 250.886719 68.234375 C 250.847656 68.15625 250.769531 68.15625 250.710938 68.15625 C 250.515625 68.15625 250.515625 68.253906 250.515625 68.566406 L 250.515625 71.007812 C 250.515625 71.339844 250.515625 71.417969 250.691406 71.417969 C 250.789062 71.417969 250.808594 71.398438 251.121094 71.027344 C 251.199219 70.910156 251.199219 70.871094 251.472656 70.578125 C 252.15625 71.417969 253.113281 71.417969 253.425781 71.417969 C 255.300781 71.417969 256.238281 70.382812 256.238281 68.957031 C 256.238281 68 255.652344 67.414062 255.496094 67.257812 C 254.851562 66.710938 254.363281 66.59375 253.171875 66.378906 C 252.644531 66.28125 251.335938 66.027344 251.335938 64.953125 C 251.335938 64.386719 251.707031 63.566406 253.328125 63.566406 C 255.28125 63.566406 255.378906 65.226562 255.417969 65.792969 C 255.4375 65.929688 255.554688 65.929688 255.613281 65.929688 C 255.808594 65.929688 255.808594 65.851562 255.808594 65.519531 Z M 255.808594 63.664062 "/>
<path style=" stroke:none;fill-rule:nonzero;fill:rgb(0%,0%,0%);fill-opacity:1;" d="M 259.953125 60.207031 C 259.953125 59.738281 259.5625 59.328125 259.074219 59.328125 C 258.605469 59.328125 258.214844 59.699219 258.214844 60.1875 C 258.214844 60.714844 258.644531 61.066406 259.074219 61.066406 C 259.621094 61.066406 259.953125 60.597656 259.953125 60.207031 Z M 257.472656 63.527344 L 257.472656 64.054688 C 258.625 64.054688 258.78125 64.152344 258.78125 65.03125 L 258.78125 69.914062 C 258.78125 70.714844 258.585938 70.714844 257.414062 70.714844 L 257.414062 71.242188 C 257.921875 71.203125 258.78125 71.203125 259.308594 71.203125 C 259.503906 71.203125 260.539062 71.203125 261.144531 71.242188 L 261.144531 70.714844 C 259.992188 70.714844 259.914062 70.636719 259.914062 69.933594 L 259.914062 63.332031 Z M 257.472656 63.527344 "/>
<path style=" stroke:none;fill-rule:nonzero;fill:rgb(0%,0%,0%);fill-opacity:1;" d="M 269.765625 66.886719 C 269.765625 65.226562 269.765625 64.71875 269.335938 64.132812 C 268.828125 63.449219 267.988281 63.332031 267.363281 63.332031 C 265.625 63.332031 264.941406 64.816406 264.804688 65.1875 L 264.785156 65.1875 L 264.785156 63.332031 L 262.34375 63.527344 L 262.34375 64.054688 C 263.574219 64.054688 263.710938 64.171875 263.710938 65.050781 L 263.710938 69.914062 C 263.710938 70.714844 263.515625 70.714844 262.34375 70.714844 L 262.34375 71.242188 C 262.8125 71.203125 263.789062 71.203125 264.296875 71.203125 C 264.804688 71.203125 265.78125 71.203125 266.25 71.242188 L 266.25 70.714844 C 265.097656 70.714844 264.882812 70.714844 264.882812 69.914062 L 264.882812 66.574219 C 264.882812 64.699219 266.113281 63.703125 267.226562 63.703125 C 268.339844 63.703125 268.59375 64.601562 268.59375 65.695312 L 268.59375 69.914062 C 268.59375 70.714844 268.398438 70.714844 267.226562 70.714844 L 267.226562 71.242188 C 267.695312 71.203125 268.671875 71.203125 269.160156 71.203125 C 269.6875 71.203125 270.644531 71.203125 271.113281 71.242188 L 271.113281 70.714844 C 270.214844 70.714844 269.765625 70.714844 269.765625 70.1875 Z M 269.765625 66.886719 "/>
<path style=" stroke:none;fill-rule:nonzero;fill:rgb(0%,0%,0%);fill-opacity:1;" d="M 283.023438 63.917969 C 282.457031 64.035156 282.242188 64.464844 282.242188 64.796875 C 282.242188 65.226562 282.574219 65.382812 282.828125 65.382812 C 283.375 65.382812 283.746094 64.914062 283.746094 64.425781 C 283.746094 63.683594 282.886719 63.332031 282.125 63.332031 C 281.03125 63.332031 280.425781 64.40625 280.269531 64.757812 C 279.859375 63.410156 278.746094 63.332031 278.414062 63.332031 C 276.597656 63.332031 275.621094 65.675781 275.621094 66.085938 C 275.621094 66.144531 275.699219 66.242188 275.816406 66.242188 C 275.953125 66.242188 275.992188 66.125 276.03125 66.066406 C 276.636719 64.074219 277.847656 63.703125 278.355469 63.703125 C 279.175781 63.703125 279.332031 64.445312 279.332031 64.875 C 279.332031 65.265625 279.234375 65.675781 279 66.535156 L 278.394531 68.996094 C 278.140625 70.070312 277.613281 71.066406 276.65625 71.066406 C 276.578125 71.066406 276.128906 71.066406 275.738281 70.832031 C 276.382812 70.695312 276.539062 70.167969 276.539062 69.953125 C 276.539062 69.601562 276.265625 69.386719 275.933594 69.386719 C 275.503906 69.386719 275.035156 69.757812 275.035156 70.324219 C 275.035156 71.085938 275.875 71.417969 276.636719 71.417969 C 277.496094 71.417969 278.121094 70.734375 278.492188 70.011719 C 278.785156 71.066406 279.664062 71.417969 280.328125 71.417969 C 282.164062 71.417969 283.140625 69.074219 283.140625 68.683594 C 283.140625 68.585938 283.0625 68.507812 282.945312 68.507812 C 282.789062 68.507812 282.769531 68.605469 282.730469 68.742188 C 282.242188 70.324219 281.1875 71.066406 280.386719 71.066406 C 279.761719 71.066406 279.429688 70.597656 279.429688 69.855469 C 279.429688 69.464844 279.488281 69.171875 279.78125 68 L 280.40625 65.558594 C 280.679688 64.484375 281.285156 63.703125 282.105469 63.703125 C 282.144531 63.703125 282.652344 63.703125 283.023438 63.917969 Z M 283.023438 63.917969 "/>
<path style=" stroke:none;fill-rule:nonzero;fill:rgb(0%,0%,0%);fill-opacity:1;" d="M 102.613281 78.609375 L 284.710938 78.609375 L 284.710938 79.359375 L 102.613281 79.359375 Z M 102.613281 78.609375 "/>
<path style=" stroke:none;fill-rule:nonzero;fill:rgb(0%,0%,0%);fill-opacity:1;" d="M 109.601562 98.273438 L 106.457031 91.300781 C 106.320312 91.007812 106.242188 91.007812 106.183594 91.007812 C 106.164062 91.007812 106.066406 91.007812 105.871094 91.144531 L 104.171875 92.453125 C 103.9375 92.628906 103.9375 92.667969 103.9375 92.726562 C 103.9375 92.824219 103.996094 92.921875 104.113281 92.921875 C 104.230469 92.921875 104.523438 92.667969 104.71875 92.53125 C 104.835938 92.453125 105.109375 92.238281 105.304688 92.101562 L 108.839844 99.875 C 108.957031 100.148438 109.054688 100.148438 109.210938 100.148438 C 109.484375 100.148438 109.523438 100.050781 109.660156 99.796875 L 117.804688 82.941406 C 117.921875 82.6875 117.921875 82.609375 117.921875 82.589844 C 117.921875 82.394531 117.785156 82.21875 117.570312 82.21875 C 117.414062 82.21875 117.296875 82.316406 117.160156 82.609375 Z M 109.601562 98.273438 "/>
<path style=" stroke:none;fill-rule:nonzero;fill:rgb(0%,0%,0%);fill-opacity:1;" d="M 117.613281 82.207031 L 182.5625 82.207031 L 182.5625 82.957031 L 117.613281 82.957031 Z M 117.613281 82.207031 "/>
<path style=" stroke:none;fill-rule:nonzero;fill:rgb(0%,0%,0%);fill-opacity:1;" d="M 122.785156 85.707031 C 122.785156 85.277344 122.785156 85.277344 122.433594 85.277344 C 122.003906 85.746094 121.105469 86.410156 119.269531 86.410156 L 119.269531 86.9375 C 119.679688 86.9375 120.578125 86.9375 121.554688 86.46875 L 121.554688 95.804688 C 121.554688 96.449219 121.496094 96.664062 119.933594 96.664062 L 119.367188 96.664062 L 119.367188 97.191406 C 119.855469 97.152344 121.59375 97.152344 122.179688 97.152344 C 122.765625 97.152344 124.503906 97.152344 124.972656 97.191406 L 124.972656 96.664062 L 124.425781 96.664062 C 122.84375 96.664062 122.785156 96.449219 122.785156 95.804688 Z M 122.785156 85.707031 "/>
<path style=" stroke:none;fill-rule:nonzero;fill:rgb(0%,0%,0%);fill-opacity:1;" d="M 137.527344 93.050781 L 142.488281 93.050781 C 142.742188 93.050781 143.054688 93.050781 143.054688 92.71875 C 143.054688 92.386719 142.742188 92.386719 142.488281 92.386719 L 137.527344 92.386719 L 137.527344 87.445312 C 137.527344 87.191406 137.527344 86.859375 137.214844 86.859375 C 136.863281 86.859375 136.863281 87.171875 136.863281 87.445312 L 136.863281 92.386719 L 131.921875 92.386719 C 131.667969 92.386719 131.355469 92.386719 131.355469 92.71875 C 131.355469 93.050781 131.648438 93.050781 131.921875 93.050781 L 136.863281 93.050781 L 136.863281 97.992188 C 136.863281 98.246094 136.863281 98.578125 137.195312 98.578125 C 137.527344 98.578125 137.527344 98.265625 137.527344 97.992188 Z M 137.527344 93.050781 "/>
<path style=" stroke:none;fill-rule:nonzero;fill:rgb(0%,0%,0%);fill-opacity:1;" d="M 153.957031 89.613281 C 153.957031 89.28125 153.957031 89.203125 153.78125 89.203125 C 153.644531 89.203125 153.292969 89.59375 153.175781 89.75 C 152.609375 89.300781 152.0625 89.203125 151.476562 89.203125 C 149.308594 89.203125 148.664062 90.375 148.664062 91.371094 C 148.664062 91.566406 148.664062 92.191406 149.347656 92.816406 C 149.933594 93.324219 150.539062 93.441406 151.359375 93.597656 C 152.335938 93.792969 152.570312 93.851562 153.019531 94.222656 C 153.351562 94.476562 153.585938 94.886719 153.585938 95.375 C 153.585938 96.15625 153.136719 97.015625 151.554688 97.015625 C 150.382812 97.015625 149.503906 96.332031 149.113281 94.535156 C 149.054688 94.222656 149.054688 94.203125 149.035156 94.183594 C 148.996094 94.105469 148.917969 94.105469 148.859375 94.105469 C 148.664062 94.105469 148.664062 94.203125 148.664062 94.515625 L 148.664062 96.957031 C 148.664062 97.289062 148.664062 97.367188 148.839844 97.367188 C 148.9375 97.367188 148.957031 97.347656 149.269531 96.976562 C 149.347656 96.859375 149.347656 96.820312 149.621094 96.527344 C 150.304688 97.367188 151.261719 97.367188 151.574219 97.367188 C 153.449219 97.367188 154.386719 96.332031 154.386719 94.90625 C 154.386719 93.949219 153.800781 93.363281 153.644531 93.207031 C 153 92.660156 152.511719 92.542969 151.320312 92.328125 C 150.792969 92.230469 149.484375 91.976562 149.484375 90.902344 C 149.484375 90.335938 149.855469 89.515625 151.476562 89.515625 C 153.429688 89.515625 153.527344 91.175781 153.566406 91.742188 C 153.585938 91.878906 153.703125 91.878906 153.761719 91.878906 C 153.957031 91.878906 153.957031 91.800781 153.957031 91.46875 Z M 153.957031 89.613281 "/>
<path style=" stroke:none;fill-rule:nonzero;fill:rgb(0%,0%,0%);fill-opacity:1;" d="M 158.105469 86.15625 C 158.105469 85.6875 157.714844 85.277344 157.226562 85.277344 C 156.757812 85.277344 156.367188 85.648438 156.367188 86.136719 C 156.367188 86.664062 156.796875 87.015625 157.226562 87.015625 C 157.773438 87.015625 158.105469 86.546875 158.105469 86.15625 Z M 155.625 89.476562 L 155.625 90.003906 C 156.777344 90.003906 156.933594 90.101562 156.933594 90.980469 L 156.933594 95.863281 C 156.933594 96.664062 156.738281 96.664062 155.566406 96.664062 L 155.566406 97.191406 C 156.074219 97.152344 156.933594 97.152344 157.460938 97.152344 C 157.65625 97.152344 158.691406 97.152344 159.296875 97.191406 L 159.296875 96.664062 C 158.144531 96.664062 158.066406 96.585938 158.066406 95.882812 L 158.066406 89.28125 Z M 155.625 89.476562 "/>
<path style=" stroke:none;fill-rule:nonzero;fill:rgb(0%,0%,0%);fill-opacity:1;" d="M 167.917969 92.835938 C 167.917969 91.175781 167.917969 90.667969 167.488281 90.082031 C 166.980469 89.398438 166.140625 89.28125 165.515625 89.28125 C 163.777344 89.28125 163.09375 90.765625 162.957031 91.136719 L 162.9375 91.136719 L 162.9375 89.28125 L 160.496094 89.476562 L 160.496094 90.003906 C 161.726562 90.003906 161.863281 90.121094 161.863281 91 L 161.863281 95.863281 C 161.863281 96.664062 161.667969 96.664062 160.496094 96.664062 L 160.496094 97.191406 C 160.964844 97.152344 161.941406 97.152344 162.449219 97.152344 C 162.957031 97.152344 163.933594 97.152344 164.402344 97.191406 L 164.402344 96.664062 C 163.25 96.664062 163.035156 96.664062 163.035156 95.863281 L 163.035156 92.523438 C 163.035156 90.648438 164.265625 89.652344 165.378906 89.652344 C 166.492188 89.652344 166.746094 90.550781 166.746094 91.644531 L 166.746094 95.863281 C 166.746094 96.664062 166.550781 96.664062 165.378906 96.664062 L 165.378906 97.191406 C 165.847656 97.152344 166.824219 97.152344 167.3125 97.152344 C 167.839844 97.152344 168.796875 97.152344 169.265625 97.191406 L 169.265625 96.664062 C 168.367188 96.664062 167.917969 96.664062 167.917969 96.136719 Z M 167.917969 92.835938 "/>
<path style=" stroke:none;fill-rule:nonzero;fill:rgb(0%,0%,0%);fill-opacity:1;" d="M 181.027344 89.867188 C 180.460938 89.984375 180.246094 90.414062 180.246094 90.746094 C 180.246094 91.175781 180.578125 91.332031 180.832031 91.332031 C 181.378906 91.332031 181.75 90.863281 181.75 90.375 C 181.75 89.632812 180.890625 89.28125 180.128906 89.28125 C 179.035156 89.28125 178.429688 90.355469 178.273438 90.707031 C 177.863281 89.359375 176.75 89.28125 176.417969 89.28125 C 174.601562 89.28125 173.625 91.625 173.625 92.035156 C 173.625 92.09375 173.703125 92.191406 173.820312 92.191406 C 173.957031 92.191406 173.996094 92.074219 174.035156 92.015625 C 174.640625 90.023438 175.851562 89.652344 176.359375 89.652344 C 177.179688 89.652344 177.335938 90.394531 177.335938 90.824219 C 177.335938 91.214844 177.238281 91.625 177.003906 92.484375 L 176.398438 94.945312 C 176.144531 96.019531 175.617188 97.015625 174.660156 97.015625 C 174.582031 97.015625 174.132812 97.015625 173.742188 96.78125 C 174.386719 96.644531 174.542969 96.117188 174.542969 95.902344 C 174.542969 95.550781 174.269531 95.335938 173.9375 95.335938 C 173.507812 95.335938 173.039062 95.707031 173.039062 96.273438 C 173.039062 97.035156 173.878906 97.367188 174.640625 97.367188 C 175.5 97.367188 176.125 96.683594 176.496094 95.960938 C 176.789062 97.015625 177.667969 97.367188 178.332031 97.367188 C 180.167969 97.367188 181.144531 95.023438 181.144531 94.632812 C 181.144531 94.535156 181.066406 94.457031 180.949219 94.457031 C 180.792969 94.457031 180.773438 94.554688 180.734375 94.691406 C 180.246094 96.273438 179.191406 97.015625 178.390625 97.015625 C 177.765625 97.015625 177.433594 96.546875 177.433594 95.804688 C 177.433594 95.414062 177.492188 95.121094 177.785156 93.949219 L 178.410156 91.507812 C 178.683594 90.433594 179.289062 89.652344 180.109375 89.652344 C 180.148438 89.652344 180.65625 89.652344 181.027344 89.867188 Z M 181.027344 89.867188 "/>
<path style=" stroke:none;fill-rule:nonzero;fill:rgb(0%,0%,0%);fill-opacity:1;" d="M 198.296875 93.070312 C 198.609375 93.070312 198.921875 93.070312 198.921875 92.71875 C 198.921875 92.347656 198.609375 92.347656 198.296875 92.347656 L 188.589844 92.347656 C 188.296875 92.347656 187.964844 92.347656 187.964844 92.71875 C 187.964844 93.070312 188.296875 93.070312 188.589844 93.070312 Z M 198.296875 93.070312 "/>
<path style=" stroke:none;fill-rule:nonzero;fill:rgb(0%,0%,0%);fill-opacity:1;" d="M 211.453125 98.273438 L 208.308594 91.300781 C 208.171875 91.007812 208.09375 91.007812 208.035156 91.007812 C 208.015625 91.007812 207.917969 91.007812 207.722656 91.144531 L 206.023438 92.453125 C 205.789062 92.628906 205.789062 92.667969 205.789062 92.726562 C 205.789062 92.824219 205.847656 92.921875 205.964844 92.921875 C 206.082031 92.921875 206.375 92.667969 206.570312 92.53125 C 206.6875 92.453125 206.960938 92.238281 207.15625 92.101562 L 210.691406 99.875 C 210.808594 100.148438 210.90625 100.148438 211.0625 100.148438 C 211.335938 100.148438 211.375 100.050781 211.511719 99.796875 L 219.65625 82.941406 C 219.773438 82.6875 219.773438 82.609375 219.773438 82.589844 C 219.773438 82.394531 219.636719 82.21875 219.421875 82.21875 C 219.265625 82.21875 219.148438 82.316406 219.011719 82.609375 Z M 211.453125 98.273438 "/>
<path style=" stroke:none;fill-rule:nonzero;fill:rgb(0%,0%,0%);fill-opacity:1;" d="M 219.464844 82.207031 L 284.710938 82.207031 L 284.710938 82.957031 L 219.464844 82.957031 Z M 219.464844 82.207031 "/>
<path style=" stroke:none;fill-rule:nonzero;fill:rgb(0%,0%,0%);fill-opacity:1;" d="M 224.636719 85.707031 C 224.636719 85.277344 224.636719 85.277344 224.285156 85.277344 C 223.855469 85.746094 222.957031 86.410156 221.121094 86.410156 L 221.121094 86.9375 C 221.53125 86.9375 222.429688 86.9375 223.40625 86.46875 L 223.40625 95.804688 C 223.40625 96.449219 223.347656 96.664062 221.785156 96.664062 L 221.21875 96.664062 L 221.21875 97.191406 C 221.707031 97.152344 223.445312 97.152344 224.03125 97.152344 C 224.617188 97.152344 226.355469 97.152344 226.824219 97.191406 L 226.824219 96.664062 L 226.277344 96.664062 C 224.695312 96.664062 224.636719 96.449219 224.636719 95.804688 Z M 224.636719 85.707031 "/>
<path style=" stroke:none;fill-rule:nonzero;fill:rgb(0%,0%,0%);fill-opacity:1;" d="M 244.046875 93.070312 C 244.359375 93.070312 244.671875 93.070312 244.671875 92.71875 C 244.671875 92.347656 244.359375 92.347656 244.046875 92.347656 L 234.339844 92.347656 C 234.046875 92.347656 233.714844 92.347656 233.714844 92.71875 C 233.714844 93.070312 234.046875 93.070312 234.339844 93.070312 Z M 244.046875 93.070312 "/>
<path style=" stroke:none;fill-rule:nonzero;fill:rgb(0%,0%,0%);fill-opacity:1;" d="M 255.957031 89.613281 C 255.957031 89.28125 255.957031 89.203125 255.78125 89.203125 C 255.644531 89.203125 255.292969 89.59375 255.175781 89.75 C 254.609375 89.300781 254.0625 89.203125 253.476562 89.203125 C 251.308594 89.203125 250.664062 90.375 250.664062 91.371094 C 250.664062 91.566406 250.664062 92.191406 251.347656 92.816406 C 251.933594 93.324219 252.539062 93.441406 253.359375 93.597656 C 254.335938 93.792969 254.570312 93.851562 255.019531 94.222656 C 255.351562 94.476562 255.585938 94.886719 255.585938 95.375 C 255.585938 96.15625 255.136719 97.015625 253.554688 97.015625 C 252.382812 97.015625 251.503906 96.332031 251.113281 94.535156 C 251.054688 94.222656 251.054688 94.203125 251.035156 94.183594 C 250.996094 94.105469 250.917969 94.105469 250.859375 94.105469 C 250.664062 94.105469 250.664062 94.203125 250.664062 94.515625 L 250.664062 96.957031 C 250.664062 97.289062 250.664062 97.367188 250.839844 97.367188 C 250.9375 97.367188 250.957031 97.347656 251.269531 96.976562 C 251.347656 96.859375 251.347656 96.820312 251.621094 96.527344 C 252.304688 97.367188 253.261719 97.367188 253.574219 97.367188 C 255.449219 97.367188 256.386719 96.332031 256.386719 94.90625 C 256.386719 93.949219 255.800781 93.363281 255.644531 93.207031 C 255 92.660156 254.511719 92.542969 253.320312 92.328125 C 252.792969 92.230469 251.484375 91.976562 251.484375 90.902344 C 251.484375 90.335938 251.855469 89.515625 253.476562 89.515625 C 255.429688 89.515625 255.527344 91.175781 255.566406 91.742188 C 255.585938 91.878906 255.703125 91.878906 255.761719 91.878906 C 255.957031 91.878906 255.957031 91.800781 255.957031 91.46875 Z M 255.957031 89.613281 "/>
<path style=" stroke:none;fill-rule:nonzero;fill:rgb(0%,0%,0%);fill-opacity:1;" d="M 260.105469 86.15625 C 260.105469 85.6875 259.714844 85.277344 259.226562 85.277344 C 258.757812 85.277344 258.367188 85.648438 258.367188 86.136719 C 258.367188 86.664062 258.796875 87.015625 259.226562 87.015625 C 259.773438 87.015625 260.105469 86.546875 260.105469 86.15625 Z M 257.625 89.476562 L 257.625 90.003906 C 258.777344 90.003906 258.933594 90.101562 258.933594 90.980469 L 258.933594 95.863281 C 258.933594 96.664062 258.738281 96.664062 257.566406 96.664062 L 257.566406 97.191406 C 258.074219 97.152344 258.933594 97.152344 259.460938 97.152344 C 259.65625 97.152344 260.691406 97.152344 261.296875 97.191406 L 261.296875 96.664062 C 260.144531 96.664062 260.066406 96.585938 260.066406 95.882812 L 260.066406 89.28125 Z M 257.625 89.476562 "/>
<path style=" stroke:none;fill-rule:nonzero;fill:rgb(0%,0%,0%);fill-opacity:1;" d="M 269.917969 92.835938 C 269.917969 91.175781 269.917969 90.667969 269.488281 90.082031 C 268.980469 89.398438 268.140625 89.28125 267.515625 89.28125 C 265.777344 89.28125 265.09375 90.765625 264.957031 91.136719 L 264.9375 91.136719 L 264.9375 89.28125 L 262.496094 89.476562 L 262.496094 90.003906 C 263.726562 90.003906 263.863281 90.121094 263.863281 91 L 263.863281 95.863281 C 263.863281 96.664062 263.667969 96.664062 262.496094 96.664062 L 262.496094 97.191406 C 262.964844 97.152344 263.941406 97.152344 264.449219 97.152344 C 264.957031 97.152344 265.933594 97.152344 266.402344 97.191406 L 266.402344 96.664062 C 265.25 96.664062 265.035156 96.664062 265.035156 95.863281 L 265.035156 92.523438 C 265.035156 90.648438 266.265625 89.652344 267.378906 89.652344 C 268.492188 89.652344 268.746094 90.550781 268.746094 91.644531 L 268.746094 95.863281 C 268.746094 96.664062 268.550781 96.664062 267.378906 96.664062 L 267.378906 97.191406 C 267.847656 97.152344 268.824219 97.152344 269.3125 97.152344 C 269.839844 97.152344 270.796875 97.152344 271.265625 97.191406 L 271.265625 96.664062 C 270.367188 96.664062 269.917969 96.664062 269.917969 96.136719 Z M 269.917969 92.835938 "/>
<path style=" stroke:none;fill-rule:nonzero;fill:rgb(0%,0%,0%);fill-opacity:1;" d="M 283.175781 89.867188 C 282.609375 89.984375 282.394531 90.414062 282.394531 90.746094 C 282.394531 91.175781 282.726562 91.332031 282.980469 91.332031 C 283.527344 91.332031 283.898438 90.863281 283.898438 90.375 C 283.898438 89.632812 283.039062 89.28125 282.277344 89.28125 C 281.183594 89.28125 280.578125 90.355469 280.421875 90.707031 C 280.011719 89.359375 278.898438 89.28125 278.566406 89.28125 C 276.75 89.28125 275.773438 91.625 275.773438 92.035156 C 275.773438 92.09375 275.851562 92.191406 275.96875 92.191406 C 276.105469 92.191406 276.144531 92.074219 276.183594 92.015625 C 276.789062 90.023438 278 89.652344 278.507812 89.652344 C 279.328125 89.652344 279.484375 90.394531 279.484375 90.824219 C 279.484375 91.214844 279.386719 91.625 279.152344 92.484375 L 278.546875 94.945312 C 278.292969 96.019531 277.765625 97.015625 276.808594 97.015625 C 276.730469 97.015625 276.28125 97.015625 275.890625 96.78125 C 276.535156 96.644531 276.691406 96.117188 276.691406 95.902344 C 276.691406 95.550781 276.417969 95.335938 276.085938 95.335938 C 275.65625 95.335938 275.1875 95.707031 275.1875 96.273438 C 275.1875 97.035156 276.027344 97.367188 276.789062 97.367188 C 277.648438 97.367188 278.273438 96.683594 278.644531 95.960938 C 278.9375 97.015625 279.816406 97.367188 280.480469 97.367188 C 282.316406 97.367188 283.292969 95.023438 283.292969 94.632812 C 283.292969 94.535156 283.214844 94.457031 283.097656 94.457031 C 282.941406 94.457031 282.921875 94.554688 282.882812 94.691406 C 282.394531 96.273438 281.339844 97.015625 280.539062 97.015625 C 279.914062 97.015625 279.582031 96.546875 279.582031 95.804688 C 279.582031 95.414062 279.640625 95.121094 279.933594 93.949219 L 280.558594 91.507812 C 280.832031 90.433594 281.4375 89.652344 282.257812 89.652344 C 282.296875 89.652344 282.804688 89.652344 283.175781 89.867188 Z M 283.175781 89.867188 "/>
<path style=" stroke:none;fill-rule:nonzero;fill:rgb(0%,0%,0%);fill-opacity:1;" d="M 290.0625 99.5 L 286.332031 99.5 L 286.332031 100.496094 L 291.039062 100.496094 L 291.039062 57.46875 L 286.332031 57.46875 L 286.332031 58.464844 L 290.0625 58.464844 Z M 290.0625 99.5 "/>
</g>
</svg>
