<?xml version="1.0" encoding="UTF-8"?>
<svg xmlns="http://www.w3.org/2000/svg" xmlns:xlink="http://www.w3.org/1999/xlink" width="182.83255pt" height="106.52088pt" viewBox="0 0 182.83255 106.52088" version="1.1">
<g id="surface1">
<path style=" stroke:none;fill-rule:nonzero;fill:rgb(0%,0%,0%);fill-opacity:1;" d="M 21.214844 32.691406 C 21.683594 32.671875 21.9375 32.339844 21.9375 31.96875 C 21.9375 31.480469 21.566406 31.226562 21.214844 31.226562 C 20.863281 31.226562 20.492188 31.460938 20.492188 31.988281 C 20.492188 32.75 21.234375 33.375 22.152344 33.375 C 24.417969 33.375 25.277344 29.878906 26.332031 25.542969 C 27.484375 20.816406 28.460938 16.050781 29.261719 11.265625 C 29.808594 8.082031 30.375 5.09375 30.882812 3.160156 C 31.058594 2.4375 31.566406 0.503906 32.152344 0.503906 C 32.601562 0.503906 32.972656 0.777344 33.03125 0.835938 C 32.542969 0.875 32.289062 1.207031 32.289062 1.578125 C 32.289062 2.066406 32.660156 2.300781 33.011719 2.300781 C 33.363281 2.300781 33.734375 2.085938 33.734375 1.558594 C 33.734375 0.757812 32.933594 0.171875 32.113281 0.171875 C 30.980469 0.171875 30.140625 1.792969 29.320312 4.839844 C 29.28125 5.015625 27.25 12.515625 25.589844 22.28125 C 25.21875 24.566406 24.769531 27.066406 24.28125 29.136719 C 24.007812 30.230469 23.324219 33.042969 22.113281 33.042969 C 21.585938 33.042969 21.214844 32.691406 21.214844 32.691406 Z M 21.214844 32.691406 "/>
<path style=" stroke:none;fill-rule:nonzero;fill:rgb(0%,0%,0%);fill-opacity:1;" d="M 57.921875 0.371094 C 57.941406 0.3125 57.960938 0.234375 57.960938 0.15625 C 57.960938 0 57.804688 0 57.785156 0 C 57.765625 0 57.042969 0.0585938 56.964844 0.078125 C 56.710938 0.0976562 56.476562 0.117188 56.222656 0.136719 C 55.832031 0.175781 55.734375 0.175781 55.734375 0.449219 C 55.734375 0.605469 55.851562 0.605469 56.066406 0.605469 C 56.789062 0.605469 56.808594 0.742188 56.808594 0.878906 C 56.808594 0.976562 56.789062 1.09375 56.769531 1.132812 L 55.851562 4.765625 C 55.695312 4.375 55.285156 3.789062 54.503906 3.789062 C 52.824219 3.789062 51.007812 5.957031 51.007812 8.183594 C 51.007812 9.648438 51.867188 10.527344 52.882812 10.527344 C 53.703125 10.527344 54.40625 9.882812 54.816406 9.394531 C 54.972656 10.273438 55.675781 10.527344 56.125 10.527344 C 56.574219 10.527344 56.925781 10.253906 57.199219 9.707031 C 57.433594 9.199219 57.648438 8.300781 57.648438 8.242188 C 57.648438 8.164062 57.589844 8.105469 57.492188 8.105469 C 57.355469 8.105469 57.355469 8.183594 57.296875 8.398438 C 57.0625 9.277344 56.789062 10.214844 56.164062 10.214844 C 55.734375 10.214844 55.714844 9.824219 55.714844 9.53125 C 55.714844 9.472656 55.714844 9.160156 55.8125 8.75 Z M 54.894531 8.59375 C 54.816406 8.847656 54.816406 8.886719 54.621094 9.160156 C 54.289062 9.570312 53.625 10.214844 52.921875 10.214844 C 52.316406 10.214844 51.964844 9.667969 51.964844 8.789062 C 51.964844 7.96875 52.433594 6.289062 52.726562 5.664062 C 53.234375 4.609375 53.9375 4.082031 54.503906 4.082031 C 55.5 4.082031 55.695312 5.3125 55.695312 5.429688 C 55.695312 5.449219 55.65625 5.625 55.636719 5.664062 Z M 54.894531 8.59375 "/>
<path style=" stroke:none;fill-rule:nonzero;fill:rgb(0%,0%,0%);fill-opacity:1;" d="M 65.140625 4.277344 C 64.652344 4.355469 64.476562 4.726562 64.476562 5 C 64.476562 5.371094 64.75 5.488281 64.964844 5.488281 C 65.414062 5.488281 65.726562 5.097656 65.726562 4.6875 C 65.726562 4.0625 65.003906 3.789062 64.378906 3.789062 C 63.480469 3.789062 62.972656 4.6875 62.835938 4.960938 C 62.484375 3.847656 61.566406 3.789062 61.292969 3.789062 C 59.769531 3.789062 58.96875 5.742188 58.96875 6.074219 C 58.96875 6.132812 59.027344 6.210938 59.125 6.210938 C 59.242188 6.210938 59.28125 6.113281 59.300781 6.054688 C 59.808594 4.394531 60.824219 4.082031 61.253906 4.082031 C 61.917969 4.082031 62.054688 4.707031 62.054688 5.058594 C 62.054688 5.390625 61.957031 5.742188 61.78125 6.464844 L 61.273438 8.496094 C 61.058594 9.394531 60.628906 10.214844 59.828125 10.214844 C 59.75 10.214844 59.378906 10.214844 59.066406 10.019531 C 59.613281 9.921875 59.730469 9.472656 59.730469 9.296875 C 59.730469 9.003906 59.496094 8.808594 59.222656 8.808594 C 58.851562 8.808594 58.460938 9.140625 58.460938 9.609375 C 58.460938 10.234375 59.164062 10.527344 59.808594 10.527344 C 60.53125 10.527344 61.039062 9.960938 61.351562 9.335938 C 61.585938 10.214844 62.347656 10.527344 62.894531 10.527344 C 64.417969 10.527344 65.21875 8.554688 65.21875 8.242188 C 65.21875 8.164062 65.160156 8.105469 65.082031 8.105469 C 64.945312 8.105469 64.925781 8.183594 64.886719 8.300781 C 64.476562 9.609375 63.617188 10.214844 62.933594 10.214844 C 62.40625 10.214844 62.132812 9.824219 62.132812 9.21875 C 62.132812 8.886719 62.191406 8.652344 62.425781 7.675781 L 62.953125 5.625 C 63.167969 4.746094 63.675781 4.082031 64.378906 4.082031 C 64.398438 4.082031 64.828125 4.082031 65.140625 4.277344 Z M 65.140625 4.277344 "/>
<path style=" stroke:none;fill-rule:nonzero;fill:rgb(0%,0%,0%);fill-opacity:1;" d="M 38.535156 16.535156 L 78.136719 16.535156 L 78.136719 17.136719 L 38.535156 17.136719 Z M 38.535156 16.535156 "/>
<path style=" stroke:none;fill-rule:nonzero;fill:rgb(0%,0%,0%);fill-opacity:1;" d="M 42.847656 21.199219 C 42.847656 20.847656 42.847656 20.828125 42.554688 20.828125 C 42.203125 21.238281 41.441406 21.785156 39.917969 21.785156 L 39.917969 22.214844 C 40.25 22.214844 40.992188 22.214844 41.832031 21.84375 L 41.832031 29.617188 C 41.832031 30.164062 41.773438 30.339844 40.464844 30.339844 L 39.996094 30.339844 L 39.996094 30.769531 C 40.40625 30.730469 41.851562 30.730469 42.339844 30.730469 C 42.847656 30.730469 44.273438 30.730469 44.683594 30.769531 L 44.683594 30.339844 L 44.214844 30.339844 C 42.90625 30.339844 42.847656 30.164062 42.847656 29.617188 Z M 42.847656 21.199219 "/>
<path style=" stroke:none;fill-rule:nonzero;fill:rgb(0%,0%,0%);fill-opacity:1;" d="M 55.15625 27.3125 L 59.277344 27.3125 C 59.492188 27.3125 59.765625 27.3125 59.765625 27.058594 C 59.765625 26.765625 59.511719 26.765625 59.277344 26.765625 L 55.15625 26.765625 L 55.15625 22.644531 C 55.15625 22.429688 55.15625 22.15625 54.882812 22.15625 C 54.609375 22.15625 54.609375 22.410156 54.609375 22.644531 L 54.609375 26.765625 L 50.488281 26.765625 C 50.273438 26.765625 50 26.765625 50 27.039062 C 50 27.3125 50.253906 27.3125 50.488281 27.3125 L 54.609375 27.3125 L 54.609375 31.433594 C 54.609375 31.648438 54.609375 31.921875 54.882812 31.921875 C 55.15625 31.921875 55.15625 31.667969 55.15625 31.433594 Z M 55.15625 27.3125 "/>
<path style=" stroke:none;fill-rule:nonzero;fill:rgb(0%,0%,0%);fill-opacity:1;" d="M 70.992188 24.675781 C 70.503906 24.753906 70.328125 25.125 70.328125 25.398438 C 70.328125 25.769531 70.601562 25.886719 70.816406 25.886719 C 71.265625 25.886719 71.578125 25.496094 71.578125 25.085938 C 71.578125 24.460938 70.855469 24.1875 70.230469 24.1875 C 69.332031 24.1875 68.824219 25.085938 68.6875 25.359375 C 68.335938 24.246094 67.417969 24.1875 67.144531 24.1875 C 65.621094 24.1875 64.820312 26.140625 64.820312 26.472656 C 64.820312 26.53125 64.878906 26.609375 64.976562 26.609375 C 65.09375 26.609375 65.132812 26.511719 65.152344 26.453125 C 65.660156 24.792969 66.675781 24.480469 67.105469 24.480469 C 67.769531 24.480469 67.90625 25.105469 67.90625 25.457031 C 67.90625 25.789062 67.808594 26.140625 67.632812 26.863281 L 67.125 28.894531 C 66.910156 29.792969 66.480469 30.613281 65.679688 30.613281 C 65.601562 30.613281 65.230469 30.613281 64.917969 30.417969 C 65.464844 30.320312 65.582031 29.871094 65.582031 29.695312 C 65.582031 29.402344 65.347656 29.207031 65.074219 29.207031 C 64.703125 29.207031 64.3125 29.539062 64.3125 30.007812 C 64.3125 30.632812 65.015625 30.925781 65.660156 30.925781 C 66.382812 30.925781 66.890625 30.359375 67.203125 29.734375 C 67.4375 30.613281 68.199219 30.925781 68.746094 30.925781 C 70.269531 30.925781 71.070312 28.953125 71.070312 28.640625 C 71.070312 28.5625 71.011719 28.503906 70.933594 28.503906 C 70.796875 28.503906 70.777344 28.582031 70.738281 28.699219 C 70.328125 30.007812 69.46875 30.613281 68.785156 30.613281 C 68.257812 30.613281 67.984375 30.222656 67.984375 29.617188 C 67.984375 29.285156 68.042969 29.050781 68.277344 28.074219 L 68.804688 26.023438 C 69.019531 25.144531 69.527344 24.480469 70.230469 24.480469 C 70.25 24.480469 70.679688 24.480469 70.992188 24.675781 Z M 70.992188 24.675781 "/>
<path style=" stroke:none;fill-rule:nonzero;fill:rgb(0%,0%,0%);fill-opacity:1;" d="M 74.964844 24.390625 C 75.121094 24.234375 75.53125 23.902344 75.707031 23.765625 C 76.3125 23.199219 76.898438 22.652344 76.898438 21.753906 C 76.898438 20.5625 75.902344 19.800781 74.671875 19.800781 C 73.460938 19.800781 72.679688 20.699219 72.679688 21.597656 C 72.679688 22.085938 73.070312 22.144531 73.207031 22.144531 C 73.421875 22.144531 73.734375 22.007812 73.734375 21.617188 C 73.734375 21.109375 73.226562 21.109375 73.109375 21.109375 C 73.402344 20.367188 74.066406 20.132812 74.554688 20.132812 C 75.472656 20.132812 75.960938 20.914062 75.960938 21.753906 C 75.960938 22.789062 75.238281 23.550781 74.046875 24.742188 L 72.796875 26.050781 C 72.679688 26.148438 72.679688 26.167969 72.679688 26.421875 L 76.605469 26.421875 L 76.898438 24.644531 L 76.585938 24.644531 C 76.566406 24.839844 76.488281 25.328125 76.371094 25.523438 C 76.3125 25.601562 75.550781 25.601562 75.394531 25.601562 L 73.617188 25.601562 Z M 74.964844 24.390625 "/>
<path style=" stroke:none;fill-rule:nonzero;fill:rgb(0%,0%,0%);fill-opacity:1;" d="M 93.777344 15.726562 C 93.992188 15.726562 94.265625 15.726562 94.265625 15.453125 C 94.265625 15.179688 94.011719 15.179688 93.777344 15.179688 L 84.988281 15.179688 C 84.773438 15.179688 84.5 15.179688 84.5 15.453125 C 84.5 15.726562 84.753906 15.726562 84.988281 15.726562 Z M 93.777344 18.5 C 93.992188 18.5 94.265625 18.5 94.265625 18.246094 C 94.265625 17.953125 94.011719 17.953125 93.777344 17.953125 L 84.988281 17.953125 C 84.773438 17.953125 84.5 17.953125 84.5 18.226562 C 84.5 18.5 84.753906 18.5 84.988281 18.5 Z M 93.777344 18.5 "/>
<path style=" stroke:none;fill-rule:nonzero;fill:rgb(0%,0%,0%);fill-opacity:1;" d="M 104.710938 15.042969 C 104.535156 15.042969 103.96875 15.042969 103.96875 15.648438 C 103.96875 16.019531 104.222656 16.273438 104.59375 16.273438 C 104.925781 16.273438 105.21875 16.058594 105.21875 15.628906 C 105.21875 14.632812 104.164062 13.910156 102.953125 13.910156 C 101.214844 13.910156 99.828125 15.453125 99.828125 17.347656 C 99.828125 19.261719 101.253906 20.726562 102.953125 20.726562 C 104.925781 20.726562 105.375 18.929688 105.375 18.792969 C 105.375 18.65625 105.257812 18.65625 105.21875 18.65625 C 105.082031 18.65625 105.0625 18.695312 105.023438 18.890625 C 104.691406 19.945312 103.890625 20.394531 103.089844 20.394531 C 102.171875 20.394531 100.960938 19.59375 100.960938 17.328125 C 100.960938 14.847656 102.230469 14.242188 102.972656 14.242188 C 103.539062 14.242188 104.359375 14.457031 104.710938 15.042969 Z M 104.710938 15.042969 "/>
<path style=" stroke:none;fill-rule:nonzero;fill:rgb(0%,0%,0%);fill-opacity:1;" d="M 112.605469 17.367188 C 112.605469 15.453125 111.140625 13.910156 109.402344 13.910156 C 107.625 13.910156 106.199219 15.492188 106.199219 17.367188 C 106.199219 19.28125 107.683594 20.726562 109.402344 20.726562 C 111.160156 20.726562 112.605469 19.261719 112.605469 17.367188 Z M 109.402344 20.394531 C 108.855469 20.394531 108.191406 20.160156 107.761719 19.417969 C 107.351562 18.753906 107.332031 17.875 107.332031 17.230469 C 107.332031 16.664062 107.332031 15.765625 107.800781 15.082031 C 108.210938 14.4375 108.875 14.203125 109.402344 14.203125 C 109.96875 14.203125 110.613281 14.476562 111.003906 15.0625 C 111.472656 15.746094 111.472656 16.683594 111.472656 17.230469 C 111.472656 17.757812 111.472656 18.695312 111.082031 19.398438 C 110.671875 20.101562 109.96875 20.394531 109.402344 20.394531 Z M 109.402344 20.394531 "/>
<path style=" stroke:none;fill-rule:nonzero;fill:rgb(0%,0%,0%);fill-opacity:1;" d="M 115.621094 14.554688 L 117.710938 14.554688 L 117.710938 14.125 L 115.621094 14.125 L 115.621094 11.390625 L 115.289062 11.390625 C 115.269531 12.777344 114.722656 14.222656 113.375 14.261719 L 113.375 14.554688 L 114.644531 14.554688 L 114.644531 18.714844 C 114.644531 20.375 115.738281 20.726562 116.539062 20.726562 C 117.476562 20.726562 117.964844 19.789062 117.964844 18.714844 L 117.964844 17.875 L 117.652344 17.875 L 117.652344 18.695312 C 117.652344 19.769531 117.203125 20.394531 116.636719 20.394531 C 115.621094 20.394531 115.621094 19.007812 115.621094 18.753906 Z M 115.621094 14.554688 "/>
<path style=" stroke:none;fill-rule:nonzero;fill:rgb(0%,0%,0%);fill-opacity:1;" d="M 125.753906 12.15625 C 125.929688 12.15625 126.144531 12.15625 126.144531 11.941406 C 126.144531 11.707031 125.929688 11.707031 125.753906 11.707031 L 120.050781 11.707031 C 119.894531 11.707031 119.679688 11.707031 119.679688 11.941406 C 119.679688 12.15625 119.894531 12.15625 120.050781 12.15625 Z M 125.753906 12.15625 "/>
<path style=" stroke:none;fill-rule:nonzero;fill:rgb(0%,0%,0%);fill-opacity:1;" d="M 130.175781 8.074219 C 130.175781 7.800781 130.15625 7.800781 129.882812 7.800781 C 129.472656 8.191406 128.945312 8.425781 128.007812 8.425781 L 128.007812 8.757812 C 128.28125 8.757812 128.808594 8.757812 129.394531 8.503906 L 129.394531 13.601562 C 129.394531 13.972656 129.355469 14.089844 128.417969 14.089844 L 128.066406 14.089844 L 128.066406 14.421875 C 128.476562 14.382812 129.335938 14.382812 129.785156 14.382812 C 130.234375 14.382812 131.09375 14.382812 131.503906 14.421875 L 131.503906 14.089844 L 131.152344 14.089844 C 130.214844 14.089844 130.175781 13.972656 130.175781 13.601562 Z M 130.175781 8.074219 "/>
<path style=" stroke:none;fill-rule:nonzero;fill:rgb(0%,0%,0%);fill-opacity:1;" d="M 142.539062 14.476562 C 142.050781 14.554688 141.875 14.925781 141.875 15.199219 C 141.875 15.570312 142.148438 15.6875 142.363281 15.6875 C 142.8125 15.6875 143.125 15.296875 143.125 14.886719 C 143.125 14.261719 142.402344 13.988281 141.777344 13.988281 C 140.878906 13.988281 140.371094 14.886719 140.234375 15.160156 C 139.882812 14.046875 138.964844 13.988281 138.691406 13.988281 C 137.167969 13.988281 136.367188 15.941406 136.367188 16.273438 C 136.367188 16.332031 136.425781 16.410156 136.523438 16.410156 C 136.640625 16.410156 136.679688 16.3125 136.699219 16.253906 C 137.207031 14.59375 138.222656 14.28125 138.652344 14.28125 C 139.316406 14.28125 139.453125 14.90625 139.453125 15.257812 C 139.453125 15.589844 139.355469 15.941406 139.179688 16.664062 L 138.671875 18.695312 C 138.457031 19.59375 138.027344 20.414062 137.226562 20.414062 C 137.148438 20.414062 136.777344 20.414062 136.464844 20.21875 C 137.011719 20.121094 137.128906 19.671875 137.128906 19.496094 C 137.128906 19.203125 136.894531 19.007812 136.621094 19.007812 C 136.25 19.007812 135.859375 19.339844 135.859375 19.808594 C 135.859375 20.433594 136.5625 20.726562 137.207031 20.726562 C 137.929688 20.726562 138.4375 20.160156 138.75 19.535156 C 138.984375 20.414062 139.746094 20.726562 140.292969 20.726562 C 141.816406 20.726562 142.617188 18.753906 142.617188 18.441406 C 142.617188 18.363281 142.558594 18.304688 142.480469 18.304688 C 142.34375 18.304688 142.324219 18.382812 142.285156 18.5 C 141.875 19.808594 141.015625 20.414062 140.332031 20.414062 C 139.804688 20.414062 139.53125 20.023438 139.53125 19.417969 C 139.53125 19.085938 139.589844 18.851562 139.824219 17.875 L 140.351562 15.824219 C 140.566406 14.945312 141.074219 14.28125 141.777344 14.28125 C 141.796875 14.28125 142.226562 14.28125 142.539062 14.476562 Z M 142.539062 14.476562 "/>
<path style=" stroke:none;fill-rule:nonzero;fill:rgb(0%,0%,0%);fill-opacity:1;" d="M 152.957031 17.113281 L 157.078125 17.113281 C 157.292969 17.113281 157.566406 17.113281 157.566406 16.859375 C 157.566406 16.566406 157.3125 16.566406 157.078125 16.566406 L 152.957031 16.566406 L 152.957031 12.445312 C 152.957031 12.230469 152.957031 11.957031 152.683594 11.957031 C 152.410156 11.957031 152.410156 12.210938 152.410156 12.445312 L 152.410156 16.566406 L 148.289062 16.566406 C 148.074219 16.566406 147.800781 16.566406 147.800781 16.839844 C 147.800781 17.113281 148.054688 17.113281 148.289062 17.113281 L 152.410156 17.113281 L 152.410156 21.234375 C 152.410156 21.449219 152.410156 21.722656 152.683594 21.722656 C 152.957031 21.722656 152.957031 21.46875 152.957031 21.234375 Z M 152.957031 17.113281 "/>
<path style=" stroke:none;fill-rule:nonzero;fill:rgb(0%,0%,0%);fill-opacity:1;" d="M 172.851562 10.179688 C 172.851562 10.042969 172.753906 10.042969 172.734375 10.042969 C 172.695312 10.042969 172.636719 10.042969 172.519531 10.199219 L 171.484375 11.449219 C 170.957031 10.550781 170.136719 10.042969 169.023438 10.042969 C 165.800781 10.042969 162.441406 13.324219 162.441406 16.839844 C 162.441406 19.339844 164.199219 20.882812 166.367188 20.882812 C 167.578125 20.882812 168.613281 20.375 169.492188 19.652344 C 170.78125 18.558594 171.171875 17.113281 171.171875 16.976562 C 171.171875 16.859375 171.054688 16.859375 171.015625 16.859375 C 170.878906 16.859375 170.859375 16.9375 170.820312 16.996094 C 170.136719 19.339844 168.125 20.453125 166.621094 20.453125 C 165.039062 20.453125 163.671875 19.4375 163.671875 17.308594 C 163.671875 16.839844 163.828125 14.242188 165.507812 12.269531 C 166.328125 11.3125 167.734375 10.492188 169.160156 10.492188 C 170.800781 10.492188 171.523438 11.839844 171.523438 13.363281 C 171.523438 13.753906 171.484375 14.085938 171.484375 14.144531 C 171.484375 14.28125 171.640625 14.28125 171.679688 14.28125 C 171.835938 14.28125 171.855469 14.261719 171.914062 13.988281 Z M 172.851562 10.179688 "/>
<path style=" stroke:none;fill-rule:nonzero;fill:rgb(0%,0%,0%);fill-opacity:1;" d="M 5.3125 55.089844 C 5.3125 54.640625 4.960938 54.289062 4.53125 54.289062 C 4.101562 54.289062 3.730469 54.640625 3.730469 55.089844 C 3.730469 55.519531 4.101562 55.871094 4.53125 55.871094 C 4.941406 55.871094 5.3125 55.539062 5.3125 55.089844 Z M 9.0625 61.554688 C 9.0625 61.125 8.691406 60.753906 8.261719 60.753906 C 7.832031 60.753906 7.460938 61.125 7.460938 61.554688 C 7.460938 61.984375 7.832031 62.335938 8.261719 62.335938 C 8.691406 62.335938 9.0625 61.984375 9.0625 61.554688 Z M 1.582031 61.554688 C 1.582031 61.125 1.230469 60.753906 0.78125 60.753906 C 0.351562 60.753906 0 61.125 0 61.554688 C 0 61.984375 0.351562 62.335938 0.78125 62.335938 C 1.230469 62.335938 1.582031 61.984375 1.582031 61.554688 Z M 1.582031 61.554688 "/>
<path style=" stroke:none;fill-rule:nonzero;fill:rgb(0%,0%,0%);fill-opacity:1;" d="M 15.214844 73.339844 C 15.683594 73.320312 15.9375 72.988281 15.9375 72.617188 C 15.9375 72.128906 15.566406 71.875 15.214844 71.875 C 14.863281 71.875 14.492188 72.109375 14.492188 72.636719 C 14.492188 73.398438 15.234375 74.023438 16.152344 74.023438 C 18.417969 74.023438 19.277344 70.527344 20.332031 66.191406 C 21.484375 61.464844 22.460938 56.699219 23.261719 51.914062 C 23.808594 48.730469 24.375 45.742188 24.882812 43.808594 C 25.058594 43.085938 25.566406 41.152344 26.152344 41.152344 C 26.601562 41.152344 26.972656 41.425781 27.03125 41.484375 C 26.542969 41.523438 26.289062 41.855469 26.289062 42.226562 C 26.289062 42.714844 26.660156 42.949219 27.011719 42.949219 C 27.363281 42.949219 27.734375 42.734375 27.734375 42.207031 C 27.734375 41.40625 26.933594 40.820312 26.113281 40.820312 C 24.980469 40.820312 24.140625 42.441406 23.320312 45.488281 C 23.28125 45.664062 21.25 53.164062 19.589844 62.929688 C 19.21875 65.214844 18.769531 67.714844 18.28125 69.785156 C 18.007812 70.878906 17.324219 73.691406 16.113281 73.691406 C 15.585938 73.691406 15.214844 73.339844 15.214844 73.339844 Z M 15.214844 73.339844 "/>
<path style=" stroke:none;fill-rule:nonzero;fill:rgb(0%,0%,0%);fill-opacity:1;" d="M 31.777344 38.523438 C 31.777344 38.25 31.757812 38.25 31.484375 38.25 C 31.074219 38.640625 30.546875 38.875 29.609375 38.875 L 29.609375 39.207031 C 29.882812 39.207031 30.410156 39.207031 30.996094 38.953125 L 30.996094 44.050781 C 30.996094 44.421875 30.957031 44.539062 30.019531 44.539062 L 29.667969 44.539062 L 29.667969 44.871094 C 30.078125 44.832031 30.9375 44.832031 31.386719 44.832031 C 31.835938 44.832031 32.695312 44.832031 33.105469 44.871094 L 33.105469 44.539062 L 32.753906 44.539062 C 31.816406 44.539062 31.777344 44.421875 31.777344 44.050781 Z M 31.777344 38.523438 "/>
<path style=" stroke:none;fill-rule:nonzero;fill:rgb(0%,0%,0%);fill-opacity:1;" d="M 26.914062 71.539062 C 26.914062 70.484375 26.816406 69.839844 26.484375 69.195312 C 26.054688 68.316406 25.234375 68.101562 24.6875 68.101562 C 23.4375 68.101562 22.96875 69.039062 22.832031 69.3125 C 22.480469 70.035156 22.460938 71.03125 22.460938 71.539062 C 22.460938 72.203125 22.480469 73.199219 22.96875 74 C 23.417969 74.742188 24.160156 74.9375 24.6875 74.9375 C 25.175781 74.9375 26.015625 74.78125 26.523438 73.804688 C 26.894531 73.082031 26.914062 72.183594 26.914062 71.539062 Z M 24.6875 74.644531 C 24.355469 74.644531 23.671875 74.488281 23.457031 73.453125 C 23.339844 72.886719 23.339844 71.949219 23.339844 71.421875 C 23.339844 70.738281 23.339844 70.035156 23.457031 69.488281 C 23.671875 68.472656 24.433594 68.375 24.6875 68.375 C 25.019531 68.375 25.722656 68.550781 25.917969 69.449219 C 26.035156 69.996094 26.035156 70.757812 26.035156 71.421875 C 26.035156 72.007812 26.035156 72.90625 25.917969 73.472656 C 25.703125 74.507812 25.019531 74.644531 24.6875 74.644531 Z M 24.6875 74.644531 "/>
<path style=" stroke:none;fill-rule:nonzero;fill:rgb(0%,0%,0%);fill-opacity:1;" d="M 57.921875 41.019531 C 57.941406 40.960938 57.960938 40.882812 57.960938 40.804688 C 57.960938 40.648438 57.804688 40.648438 57.785156 40.648438 C 57.765625 40.648438 57.042969 40.707031 56.964844 40.726562 C 56.710938 40.746094 56.476562 40.765625 56.222656 40.785156 C 55.832031 40.824219 55.734375 40.824219 55.734375 41.097656 C 55.734375 41.253906 55.851562 41.253906 56.066406 41.253906 C 56.789062 41.253906 56.808594 41.390625 56.808594 41.527344 C 56.808594 41.625 56.789062 41.742188 56.769531 41.78125 L 55.851562 45.414062 C 55.695312 45.023438 55.285156 44.4375 54.503906 44.4375 C 52.824219 44.4375 51.007812 46.605469 51.007812 48.832031 C 51.007812 50.296875 51.867188 51.175781 52.882812 51.175781 C 53.703125 51.175781 54.40625 50.53125 54.816406 50.042969 C 54.972656 50.921875 55.675781 51.175781 56.125 51.175781 C 56.574219 51.175781 56.925781 50.902344 57.199219 50.355469 C 57.433594 49.847656 57.648438 48.949219 57.648438 48.890625 C 57.648438 48.8125 57.589844 48.753906 57.492188 48.753906 C 57.355469 48.753906 57.355469 48.832031 57.296875 49.046875 C 57.0625 49.925781 56.789062 50.863281 56.164062 50.863281 C 55.734375 50.863281 55.714844 50.472656 55.714844 50.179688 C 55.714844 50.121094 55.714844 49.808594 55.8125 49.398438 Z M 54.894531 49.242188 C 54.816406 49.496094 54.816406 49.535156 54.621094 49.808594 C 54.289062 50.21875 53.625 50.863281 52.921875 50.863281 C 52.316406 50.863281 51.964844 50.316406 51.964844 49.4375 C 51.964844 48.617188 52.433594 46.9375 52.726562 46.3125 C 53.234375 45.257812 53.9375 44.730469 54.503906 44.730469 C 55.5 44.730469 55.695312 45.960938 55.695312 46.078125 C 55.695312 46.097656 55.65625 46.273438 55.636719 46.3125 Z M 54.894531 49.242188 "/>
<path style=" stroke:none;fill-rule:nonzero;fill:rgb(0%,0%,0%);fill-opacity:1;" d="M 65.140625 44.925781 C 64.652344 45.003906 64.476562 45.375 64.476562 45.648438 C 64.476562 46.019531 64.75 46.136719 64.964844 46.136719 C 65.414062 46.136719 65.726562 45.746094 65.726562 45.335938 C 65.726562 44.710938 65.003906 44.4375 64.378906 44.4375 C 63.480469 44.4375 62.972656 45.335938 62.835938 45.609375 C 62.484375 44.496094 61.566406 44.4375 61.292969 44.4375 C 59.769531 44.4375 58.96875 46.390625 58.96875 46.722656 C 58.96875 46.78125 59.027344 46.859375 59.125 46.859375 C 59.242188 46.859375 59.28125 46.761719 59.300781 46.703125 C 59.808594 45.042969 60.824219 44.730469 61.253906 44.730469 C 61.917969 44.730469 62.054688 45.355469 62.054688 45.707031 C 62.054688 46.039062 61.957031 46.390625 61.78125 47.113281 L 61.273438 49.144531 C 61.058594 50.042969 60.628906 50.863281 59.828125 50.863281 C 59.75 50.863281 59.378906 50.863281 59.066406 50.667969 C 59.613281 50.570312 59.730469 50.121094 59.730469 49.945312 C 59.730469 49.652344 59.496094 49.457031 59.222656 49.457031 C 58.851562 49.457031 58.460938 49.789062 58.460938 50.257812 C 58.460938 50.882812 59.164062 51.175781 59.808594 51.175781 C 60.53125 51.175781 61.039062 50.609375 61.351562 49.984375 C 61.585938 50.863281 62.347656 51.175781 62.894531 51.175781 C 64.417969 51.175781 65.21875 49.203125 65.21875 48.890625 C 65.21875 48.8125 65.160156 48.753906 65.082031 48.753906 C 64.945312 48.753906 64.925781 48.832031 64.886719 48.949219 C 64.476562 50.257812 63.617188 50.863281 62.933594 50.863281 C 62.40625 50.863281 62.132812 50.472656 62.132812 49.867188 C 62.132812 49.535156 62.191406 49.300781 62.425781 48.324219 L 62.953125 46.273438 C 63.167969 45.394531 63.675781 44.730469 64.378906 44.730469 C 64.398438 44.730469 64.828125 44.730469 65.140625 44.925781 Z M 65.140625 44.925781 "/>
<path style=" stroke:none;fill-rule:nonzero;fill:rgb(0%,0%,0%);fill-opacity:1;" d="M 38.535156 57.1875 L 78.136719 57.1875 L 78.136719 57.785156 L 38.535156 57.785156 Z M 38.535156 57.1875 "/>
<path style=" stroke:none;fill-rule:nonzero;fill:rgb(0%,0%,0%);fill-opacity:1;" d="M 42.847656 61.851562 C 42.847656 61.5 42.847656 61.480469 42.554688 61.480469 C 42.203125 61.890625 41.441406 62.4375 39.917969 62.4375 L 39.917969 62.867188 C 40.25 62.867188 40.992188 62.867188 41.832031 62.496094 L 41.832031 70.269531 C 41.832031 70.816406 41.773438 70.992188 40.464844 70.992188 L 39.996094 70.992188 L 39.996094 71.421875 C 40.40625 71.382812 41.851562 71.382812 42.339844 71.382812 C 42.847656 71.382812 44.273438 71.382812 44.683594 71.421875 L 44.683594 70.992188 L 44.214844 70.992188 C 42.90625 70.992188 42.847656 70.816406 42.847656 70.269531 Z M 42.847656 61.851562 "/>
<path style=" stroke:none;fill-rule:nonzero;fill:rgb(0%,0%,0%);fill-opacity:1;" d="M 55.15625 67.964844 L 59.277344 67.964844 C 59.492188 67.964844 59.765625 67.964844 59.765625 67.710938 C 59.765625 67.417969 59.511719 67.417969 59.277344 67.417969 L 55.15625 67.417969 L 55.15625 63.296875 C 55.15625 63.082031 55.15625 62.808594 54.882812 62.808594 C 54.609375 62.808594 54.609375 63.0625 54.609375 63.296875 L 54.609375 67.417969 L 50.488281 67.417969 C 50.273438 67.417969 50 67.417969 50 67.691406 C 50 67.964844 50.253906 67.964844 50.488281 67.964844 L 54.609375 67.964844 L 54.609375 72.085938 C 54.609375 72.300781 54.609375 72.574219 54.882812 72.574219 C 55.15625 72.574219 55.15625 72.320312 55.15625 72.085938 Z M 55.15625 67.964844 "/>
<path style=" stroke:none;fill-rule:nonzero;fill:rgb(0%,0%,0%);fill-opacity:1;" d="M 70.992188 65.328125 C 70.503906 65.40625 70.328125 65.777344 70.328125 66.050781 C 70.328125 66.421875 70.601562 66.539062 70.816406 66.539062 C 71.265625 66.539062 71.578125 66.148438 71.578125 65.738281 C 71.578125 65.113281 70.855469 64.839844 70.230469 64.839844 C 69.332031 64.839844 68.824219 65.738281 68.6875 66.011719 C 68.335938 64.898438 67.417969 64.839844 67.144531 64.839844 C 65.621094 64.839844 64.820312 66.792969 64.820312 67.125 C 64.820312 67.183594 64.878906 67.261719 64.976562 67.261719 C 65.09375 67.261719 65.132812 67.164062 65.152344 67.105469 C 65.660156 65.445312 66.675781 65.132812 67.105469 65.132812 C 67.769531 65.132812 67.90625 65.757812 67.90625 66.109375 C 67.90625 66.441406 67.808594 66.792969 67.632812 67.515625 L 67.125 69.546875 C 66.910156 70.445312 66.480469 71.265625 65.679688 71.265625 C 65.601562 71.265625 65.230469 71.265625 64.917969 71.070312 C 65.464844 70.972656 65.582031 70.523438 65.582031 70.347656 C 65.582031 70.054688 65.347656 69.859375 65.074219 69.859375 C 64.703125 69.859375 64.3125 70.191406 64.3125 70.660156 C 64.3125 71.285156 65.015625 71.578125 65.660156 71.578125 C 66.382812 71.578125 66.890625 71.011719 67.203125 70.386719 C 67.4375 71.265625 68.199219 71.578125 68.746094 71.578125 C 70.269531 71.578125 71.070312 69.605469 71.070312 69.292969 C 71.070312 69.214844 71.011719 69.15625 70.933594 69.15625 C 70.796875 69.15625 70.777344 69.234375 70.738281 69.351562 C 70.328125 70.660156 69.46875 71.265625 68.785156 71.265625 C 68.257812 71.265625 67.984375 70.875 67.984375 70.269531 C 67.984375 69.9375 68.042969 69.703125 68.277344 68.726562 L 68.804688 66.675781 C 69.019531 65.796875 69.527344 65.132812 70.230469 65.132812 C 70.25 65.132812 70.679688 65.132812 70.992188 65.328125 Z M 70.992188 65.328125 "/>
<path style=" stroke:none;fill-rule:nonzero;fill:rgb(0%,0%,0%);fill-opacity:1;" d="M 74.964844 65.039062 C 75.121094 64.882812 75.53125 64.550781 75.707031 64.414062 C 76.3125 63.847656 76.898438 63.300781 76.898438 62.402344 C 76.898438 61.210938 75.902344 60.449219 74.671875 60.449219 C 73.460938 60.449219 72.679688 61.347656 72.679688 62.246094 C 72.679688 62.734375 73.070312 62.792969 73.207031 62.792969 C 73.421875 62.792969 73.734375 62.65625 73.734375 62.265625 C 73.734375 61.757812 73.226562 61.757812 73.109375 61.757812 C 73.402344 61.015625 74.066406 60.78125 74.554688 60.78125 C 75.472656 60.78125 75.960938 61.5625 75.960938 62.402344 C 75.960938 63.4375 75.238281 64.199219 74.046875 65.390625 L 72.796875 66.699219 C 72.679688 66.796875 72.679688 66.816406 72.679688 67.070312 L 76.605469 67.070312 L 76.898438 65.292969 L 76.585938 65.292969 C 76.566406 65.488281 76.488281 65.976562 76.371094 66.171875 C 76.3125 66.25 75.550781 66.25 75.394531 66.25 L 73.617188 66.25 Z M 74.964844 65.039062 "/>
<path style=" stroke:none;fill-rule:nonzero;fill:rgb(0%,0%,0%);fill-opacity:1;" d="M 93.777344 56.378906 C 93.992188 56.378906 94.265625 56.378906 94.265625 56.105469 C 94.265625 55.832031 94.011719 55.832031 93.777344 55.832031 L 84.988281 55.832031 C 84.773438 55.832031 84.5 55.832031 84.5 56.105469 C 84.5 56.378906 84.753906 56.378906 84.988281 56.378906 Z M 93.777344 59.152344 C 93.992188 59.152344 94.265625 59.152344 94.265625 58.898438 C 94.265625 58.605469 94.011719 58.605469 93.777344 58.605469 L 84.988281 58.605469 C 84.773438 58.605469 84.5 58.605469 84.5 58.878906 C 84.5 59.152344 84.753906 59.152344 84.988281 59.152344 Z M 93.777344 59.152344 "/>
<path style=" stroke:none;fill-rule:nonzero;fill:rgb(0%,0%,0%);fill-opacity:1;" d="M 102.328125 66.394531 L 105.179688 66.394531 L 105.179688 65.789062 L 102.914062 65.789062 L 102.914062 49.070312 L 105.179688 49.070312 L 105.179688 48.464844 L 102.328125 48.464844 Z M 102.328125 66.394531 "/>
<path style=" stroke:none;fill-rule:nonzero;fill:rgb(0%,0%,0%);fill-opacity:1;" d="M 110.859375 55.695312 C 110.683594 55.695312 110.117188 55.695312 110.117188 56.300781 C 110.117188 56.671875 110.371094 56.925781 110.742188 56.925781 C 111.074219 56.925781 111.367188 56.710938 111.367188 56.28125 C 111.367188 55.285156 110.3125 54.5625 109.101562 54.5625 C 107.363281 54.5625 105.976562 56.105469 105.976562 58 C 105.976562 59.914062 107.402344 61.378906 109.101562 61.378906 C 111.074219 61.378906 111.523438 59.582031 111.523438 59.445312 C 111.523438 59.308594 111.40625 59.308594 111.367188 59.308594 C 111.230469 59.308594 111.210938 59.347656 111.171875 59.542969 C 110.839844 60.597656 110.039062 61.046875 109.238281 61.046875 C 108.320312 61.046875 107.109375 60.246094 107.109375 57.980469 C 107.109375 55.5 108.378906 54.894531 109.121094 54.894531 C 109.6875 54.894531 110.507812 55.109375 110.859375 55.695312 Z M 110.859375 55.695312 "/>
<path style=" stroke:none;fill-rule:nonzero;fill:rgb(0%,0%,0%);fill-opacity:1;" d="M 118.757812 58.019531 C 118.757812 56.105469 117.292969 54.5625 115.554688 54.5625 C 113.777344 54.5625 112.351562 56.144531 112.351562 58.019531 C 112.351562 59.933594 113.835938 61.378906 115.554688 61.378906 C 117.3125 61.378906 118.757812 59.914062 118.757812 58.019531 Z M 115.554688 61.046875 C 115.007812 61.046875 114.34375 60.8125 113.914062 60.070312 C 113.503906 59.40625 113.484375 58.527344 113.484375 57.882812 C 113.484375 57.316406 113.484375 56.417969 113.953125 55.734375 C 114.363281 55.089844 115.027344 54.855469 115.554688 54.855469 C 116.121094 54.855469 116.765625 55.128906 117.15625 55.714844 C 117.625 56.398438 117.625 57.335938 117.625 57.882812 C 117.625 58.410156 117.625 59.347656 117.234375 60.050781 C 116.824219 60.753906 116.121094 61.046875 115.554688 61.046875 Z M 115.554688 61.046875 "/>
<path style=" stroke:none;fill-rule:nonzero;fill:rgb(0%,0%,0%);fill-opacity:1;" d="M 121.769531 55.207031 L 123.859375 55.207031 L 123.859375 54.777344 L 121.769531 54.777344 L 121.769531 52.042969 L 121.4375 52.042969 C 121.417969 53.429688 120.871094 54.875 119.523438 54.914062 L 119.523438 55.207031 L 120.792969 55.207031 L 120.792969 59.367188 C 120.792969 61.027344 121.886719 61.378906 122.6875 61.378906 C 123.625 61.378906 124.113281 60.441406 124.113281 59.367188 L 124.113281 58.527344 L 123.800781 58.527344 L 123.800781 59.347656 C 123.800781 60.421875 123.351562 61.046875 122.785156 61.046875 C 121.769531 61.046875 121.769531 59.660156 121.769531 59.40625 Z M 121.769531 55.207031 "/>
<path style=" stroke:none;fill-rule:nonzero;fill:rgb(0%,0%,0%);fill-opacity:1;" d="M 131.902344 52.804688 C 132.078125 52.804688 132.292969 52.804688 132.292969 52.589844 C 132.292969 52.355469 132.078125 52.355469 131.902344 52.355469 L 126.199219 52.355469 C 126.042969 52.355469 125.828125 52.355469 125.828125 52.589844 C 125.828125 52.804688 126.042969 52.804688 126.199219 52.804688 Z M 131.902344 52.804688 "/>
<path style=" stroke:none;fill-rule:nonzero;fill:rgb(0%,0%,0%);fill-opacity:1;" d="M 136.324219 48.722656 C 136.324219 48.449219 136.304688 48.449219 136.03125 48.449219 C 135.621094 48.839844 135.09375 49.074219 134.15625 49.074219 L 134.15625 49.40625 C 134.429688 49.40625 134.957031 49.40625 135.542969 49.152344 L 135.542969 54.25 C 135.542969 54.621094 135.503906 54.738281 134.566406 54.738281 L 134.214844 54.738281 L 134.214844 55.070312 C 134.625 55.03125 135.484375 55.03125 135.933594 55.03125 C 136.382812 55.03125 137.242188 55.03125 137.652344 55.070312 L 137.652344 54.738281 L 137.300781 54.738281 C 136.363281 54.738281 136.324219 54.621094 136.324219 54.25 Z M 136.324219 48.722656 "/>
<path style=" stroke:none;fill-rule:nonzero;fill:rgb(0%,0%,0%);fill-opacity:1;" d="M 148.691406 55.128906 C 148.203125 55.207031 148.027344 55.578125 148.027344 55.851562 C 148.027344 56.222656 148.300781 56.339844 148.515625 56.339844 C 148.964844 56.339844 149.277344 55.949219 149.277344 55.539062 C 149.277344 54.914062 148.554688 54.640625 147.929688 54.640625 C 147.03125 54.640625 146.523438 55.539062 146.386719 55.8125 C 146.035156 54.699219 145.117188 54.640625 144.84375 54.640625 C 143.320312 54.640625 142.519531 56.59375 142.519531 56.925781 C 142.519531 56.984375 142.578125 57.0625 142.675781 57.0625 C 142.792969 57.0625 142.832031 56.964844 142.851562 56.90625 C 143.359375 55.246094 144.375 54.933594 144.804688 54.933594 C 145.46875 54.933594 145.605469 55.558594 145.605469 55.910156 C 145.605469 56.242188 145.507812 56.59375 145.332031 57.316406 L 144.824219 59.347656 C 144.609375 60.246094 144.179688 61.066406 143.378906 61.066406 C 143.300781 61.066406 142.929688 61.066406 142.617188 60.871094 C 143.164062 60.773438 143.28125 60.324219 143.28125 60.148438 C 143.28125 59.855469 143.046875 59.660156 142.773438 59.660156 C 142.402344 59.660156 142.011719 59.992188 142.011719 60.460938 C 142.011719 61.085938 142.714844 61.378906 143.359375 61.378906 C 144.082031 61.378906 144.589844 60.8125 144.902344 60.1875 C 145.136719 61.066406 145.898438 61.378906 146.445312 61.378906 C 147.96875 61.378906 148.769531 59.40625 148.769531 59.09375 C 148.769531 59.015625 148.710938 58.957031 148.632812 58.957031 C 148.496094 58.957031 148.476562 59.035156 148.4375 59.152344 C 148.027344 60.460938 147.167969 61.066406 146.484375 61.066406 C 145.957031 61.066406 145.683594 60.675781 145.683594 60.070312 C 145.683594 59.738281 145.742188 59.503906 145.976562 58.527344 L 146.503906 56.476562 C 146.71875 55.597656 147.226562 54.933594 147.929688 54.933594 C 147.949219 54.933594 148.378906 54.933594 148.691406 55.128906 Z M 148.691406 55.128906 "/>
<path style=" stroke:none;fill-rule:nonzero;fill:rgb(0%,0%,0%);fill-opacity:1;" d="M 153.054688 66.394531 L 153.054688 48.464844 L 150.183594 48.464844 L 150.183594 49.070312 L 152.449219 49.070312 L 152.449219 65.789062 L 150.183594 65.789062 L 150.183594 66.394531 Z M 153.054688 66.394531 "/>
<path style=" stroke:none;fill-rule:nonzero;fill:rgb(0%,0%,0%);fill-opacity:1;" d="M 159.277344 46.023438 C 159.277344 45.75 159.257812 45.75 158.984375 45.75 C 158.574219 46.140625 158.046875 46.375 157.109375 46.375 L 157.109375 46.707031 C 157.382812 46.707031 157.910156 46.707031 158.496094 46.453125 L 158.496094 51.550781 C 158.496094 51.921875 158.457031 52.039062 157.519531 52.039062 L 157.167969 52.039062 L 157.167969 52.371094 C 157.578125 52.332031 158.4375 52.332031 158.886719 52.332031 C 159.335938 52.332031 160.195312 52.332031 160.605469 52.371094 L 160.605469 52.039062 L 160.253906 52.039062 C 159.316406 52.039062 159.277344 51.921875 159.277344 51.550781 Z M 159.277344 46.023438 "/>
<path style=" stroke:none;fill-rule:nonzero;fill:rgb(0%,0%,0%);fill-opacity:1;" d="M 161.015625 63.886719 C 161.015625 62.832031 160.917969 62.1875 160.585938 61.542969 C 160.15625 60.664062 159.335938 60.449219 158.789062 60.449219 C 157.539062 60.449219 157.070312 61.386719 156.933594 61.660156 C 156.582031 62.382812 156.5625 63.378906 156.5625 63.886719 C 156.5625 64.550781 156.582031 65.546875 157.070312 66.347656 C 157.519531 67.089844 158.261719 67.285156 158.789062 67.285156 C 159.277344 67.285156 160.117188 67.128906 160.625 66.152344 C 160.996094 65.429688 161.015625 64.53125 161.015625 63.886719 Z M 158.789062 66.992188 C 158.457031 66.992188 157.773438 66.835938 157.558594 65.800781 C 157.441406 65.234375 157.441406 64.296875 157.441406 63.769531 C 157.441406 63.085938 157.441406 62.382812 157.558594 61.835938 C 157.773438 60.820312 158.535156 60.722656 158.789062 60.722656 C 159.121094 60.722656 159.824219 60.898438 160.019531 61.796875 C 160.136719 62.34375 160.136719 63.105469 160.136719 63.769531 C 160.136719 64.355469 160.136719 65.253906 160.019531 65.820312 C 159.804688 66.855469 159.121094 66.992188 158.789062 66.992188 Z M 158.789062 66.992188 "/>
<path style=" stroke:none;fill-rule:nonzero;fill:rgb(0%,0%,0%);fill-opacity:1;" d="M 93.777344 91.328125 C 93.992188 91.328125 94.265625 91.328125 94.265625 91.054688 C 94.265625 90.78125 94.011719 90.78125 93.777344 90.78125 L 84.988281 90.78125 C 84.773438 90.78125 84.5 90.78125 84.5 91.054688 C 84.5 91.328125 84.753906 91.328125 84.988281 91.328125 Z M 93.777344 94.101562 C 93.992188 94.101562 94.265625 94.101562 94.265625 93.847656 C 94.265625 93.554688 94.011719 93.554688 93.777344 93.554688 L 84.988281 93.554688 C 84.773438 93.554688 84.5 93.554688 84.5 93.828125 C 84.5 94.101562 84.753906 94.101562 84.988281 94.101562 Z M 93.777344 94.101562 "/>
<path style=" stroke:none;fill-rule:nonzero;fill:rgb(0%,0%,0%);fill-opacity:1;" d="M 104.667969 80.496094 L 106.367188 80.496094 C 105.957031 82.15625 105.703125 83.25 105.703125 84.441406 C 105.703125 84.65625 105.703125 86.277344 106.308594 86.277344 C 106.621094 86.277344 106.894531 85.984375 106.894531 85.730469 C 106.894531 85.652344 106.894531 85.632812 106.796875 85.398438 C 106.386719 84.363281 106.386719 83.09375 106.386719 82.976562 C 106.386719 82.898438 106.386719 81.824219 106.699219 80.496094 L 108.378906 80.496094 C 108.574219 80.496094 109.0625 80.496094 109.0625 80.007812 C 109.0625 79.675781 108.789062 79.675781 108.515625 79.675781 L 103.59375 79.675781 C 103.242188 79.675781 102.734375 79.675781 102.050781 80.417969 C 101.660156 80.847656 101.191406 81.648438 101.191406 81.726562 C 101.191406 81.824219 101.269531 81.84375 101.347656 81.84375 C 101.464844 81.84375 101.464844 81.804688 101.542969 81.707031 C 102.324219 80.496094 103.105469 80.496094 103.476562 80.496094 L 104.335938 80.496094 C 104.003906 81.609375 103.632812 82.917969 102.402344 85.515625 C 102.285156 85.769531 102.285156 85.789062 102.285156 85.886719 C 102.285156 86.199219 102.558594 86.277344 102.675781 86.277344 C 103.125 86.277344 103.242188 85.886719 103.417969 85.261719 C 103.652344 84.5 103.652344 84.460938 103.808594 83.855469 Z M 104.667969 80.496094 "/>
<path style=" stroke:none;fill-rule:nonzero;fill:rgb(0%,0%,0%);fill-opacity:1;" d="M 100.785156 92.136719 L 109.632812 92.136719 L 109.632812 92.738281 L 100.785156 92.738281 Z M 100.785156 92.136719 "/>
<path style=" stroke:none;fill-rule:nonzero;fill:rgb(0%,0%,0%);fill-opacity:1;" d="M 106.941406 96.792969 C 106.941406 96.5 106.941406 96.441406 106.726562 96.441406 C 106.609375 96.441406 106.570312 96.441406 106.453125 96.617188 L 101.960938 103.589844 L 101.960938 104.019531 L 105.886719 104.019531 L 105.886719 105.386719 C 105.886719 105.933594 105.847656 106.089844 104.753906 106.089844 L 104.460938 106.089844 L 104.460938 106.519531 C 104.8125 106.480469 105.984375 106.480469 106.414062 106.480469 C 106.824219 106.480469 108.015625 106.480469 108.367188 106.519531 L 108.367188 106.089844 L 108.074219 106.089844 C 106.980469 106.089844 106.941406 105.933594 106.941406 105.386719 L 106.941406 104.019531 L 108.445312 104.019531 L 108.445312 103.589844 L 106.941406 103.589844 Z M 105.964844 97.964844 L 105.964844 103.589844 L 102.332031 103.589844 Z M 105.964844 97.964844 "/>
<path style=" stroke:none;fill-rule:nonzero;fill:rgb(0%,0%,0%);fill-opacity:1;" d="M 124.292969 92.734375 C 124.546875 92.734375 124.820312 92.734375 124.820312 92.441406 C 124.820312 92.128906 124.546875 92.128906 124.292969 92.128906 L 116.207031 92.128906 C 115.953125 92.128906 115.679688 92.128906 115.679688 92.441406 C 115.679688 92.734375 115.953125 92.734375 116.207031 92.734375 Z M 124.292969 92.734375 "/>
<path style=" stroke:none;fill-rule:nonzero;fill:rgb(0%,0%,0%);fill-opacity:1;" d="M 134.667969 80.496094 L 136.367188 80.496094 C 135.957031 82.15625 135.703125 83.25 135.703125 84.441406 C 135.703125 84.65625 135.703125 86.277344 136.308594 86.277344 C 136.621094 86.277344 136.894531 85.984375 136.894531 85.730469 C 136.894531 85.652344 136.894531 85.632812 136.796875 85.398438 C 136.386719 84.363281 136.386719 83.09375 136.386719 82.976562 C 136.386719 82.898438 136.386719 81.824219 136.699219 80.496094 L 138.378906 80.496094 C 138.574219 80.496094 139.0625 80.496094 139.0625 80.007812 C 139.0625 79.675781 138.789062 79.675781 138.515625 79.675781 L 133.59375 79.675781 C 133.242188 79.675781 132.734375 79.675781 132.050781 80.417969 C 131.660156 80.847656 131.191406 81.648438 131.191406 81.726562 C 131.191406 81.824219 131.269531 81.84375 131.347656 81.84375 C 131.464844 81.84375 131.464844 81.804688 131.542969 81.707031 C 132.324219 80.496094 133.105469 80.496094 133.476562 80.496094 L 134.335938 80.496094 C 134.003906 81.609375 133.632812 82.917969 132.402344 85.515625 C 132.285156 85.769531 132.285156 85.789062 132.285156 85.886719 C 132.285156 86.199219 132.558594 86.277344 132.675781 86.277344 C 133.125 86.277344 133.242188 85.886719 133.417969 85.261719 C 133.652344 84.5 133.652344 84.460938 133.808594 83.855469 Z M 134.667969 80.496094 "/>
<path style=" stroke:none;fill-rule:nonzero;fill:rgb(0%,0%,0%);fill-opacity:1;" d="M 130.785156 92.136719 L 139.632812 92.136719 L 139.632812 92.738281 L 130.785156 92.738281 Z M 130.785156 92.136719 "/>
<path style=" stroke:none;fill-rule:nonzero;fill:rgb(0%,0%,0%);fill-opacity:1;" d="M 138.132812 104 L 137.800781 104 C 137.742188 104.253906 137.625 105.09375 137.488281 105.328125 C 137.371094 105.464844 136.53125 105.464844 136.082031 105.464844 L 133.308594 105.464844 C 133.71875 105.113281 134.636719 104.15625 135.007812 103.804688 C 137.292969 101.714844 138.132812 100.933594 138.132812 99.449219 C 138.132812 97.730469 136.765625 96.578125 135.027344 96.578125 C 133.308594 96.578125 132.273438 98.0625 132.273438 99.351562 C 132.273438 100.113281 132.9375 100.113281 132.976562 100.113281 C 133.308594 100.113281 133.679688 99.878906 133.679688 99.410156 C 133.679688 98.980469 133.40625 98.707031 132.976562 98.707031 C 132.859375 98.707031 132.820312 98.707031 132.78125 98.726562 C 133.054688 97.710938 133.875 97.007812 134.832031 97.007812 C 136.101562 97.007812 136.882812 98.082031 136.882812 99.449219 C 136.882812 100.71875 136.160156 101.832031 135.300781 102.789062 L 132.273438 106.167969 L 132.273438 106.519531 L 137.742188 106.519531 Z M 138.132812 104 "/>
<path style=" stroke:none;fill-rule:nonzero;fill:rgb(0%,0%,0%);fill-opacity:1;" d="M 155.429688 91.328125 C 155.644531 91.328125 155.917969 91.328125 155.917969 91.054688 C 155.917969 90.78125 155.664062 90.78125 155.429688 90.78125 L 146.640625 90.78125 C 146.425781 90.78125 146.152344 90.78125 146.152344 91.054688 C 146.152344 91.328125 146.40625 91.328125 146.640625 91.328125 Z M 155.429688 94.101562 C 155.644531 94.101562 155.917969 94.101562 155.917969 93.847656 C 155.917969 93.554688 155.664062 93.554688 155.429688 93.554688 L 146.640625 93.554688 C 146.425781 93.554688 146.152344 93.554688 146.152344 93.828125 C 146.152344 94.101562 146.40625 94.101562 146.640625 94.101562 Z M 155.429688 94.101562 "/>
<path style=" stroke:none;fill-rule:nonzero;fill:rgb(0%,0%,0%);fill-opacity:1;" d="M 170.796875 92.734375 C 171.050781 92.734375 171.324219 92.734375 171.324219 92.441406 C 171.324219 92.128906 171.050781 92.128906 170.796875 92.128906 L 162.710938 92.128906 C 162.457031 92.128906 162.183594 92.128906 162.183594 92.441406 C 162.183594 92.734375 162.457031 92.734375 162.710938 92.734375 Z M 170.796875 92.734375 "/>
<path style=" stroke:none;fill-rule:nonzero;fill:rgb(0%,0%,0%);fill-opacity:1;" d="M 177.867188 80.496094 L 179.566406 80.496094 C 179.15625 82.15625 178.902344 83.25 178.902344 84.441406 C 178.902344 84.65625 178.902344 86.277344 179.507812 86.277344 C 179.820312 86.277344 180.09375 85.984375 180.09375 85.730469 C 180.09375 85.652344 180.09375 85.632812 179.996094 85.398438 C 179.585938 84.363281 179.585938 83.09375 179.585938 82.976562 C 179.585938 82.898438 179.585938 81.824219 179.898438 80.496094 L 181.578125 80.496094 C 181.773438 80.496094 182.261719 80.496094 182.261719 80.007812 C 182.261719 79.675781 181.988281 79.675781 181.714844 79.675781 L 176.792969 79.675781 C 176.441406 79.675781 175.933594 79.675781 175.25 80.417969 C 174.859375 80.847656 174.390625 81.648438 174.390625 81.726562 C 174.390625 81.824219 174.46875 81.84375 174.546875 81.84375 C 174.664062 81.84375 174.664062 81.804688 174.742188 81.707031 C 175.523438 80.496094 176.304688 80.496094 176.675781 80.496094 L 177.535156 80.496094 C 177.203125 81.609375 176.832031 82.917969 175.601562 85.515625 C 175.484375 85.769531 175.484375 85.789062 175.484375 85.886719 C 175.484375 86.199219 175.757812 86.277344 175.875 86.277344 C 176.324219 86.277344 176.441406 85.886719 176.617188 85.261719 C 176.851562 84.5 176.851562 84.460938 177.007812 83.855469 Z M 177.867188 80.496094 "/>
<path style=" stroke:none;fill-rule:nonzero;fill:rgb(0%,0%,0%);fill-opacity:1;" d="M 173.984375 92.136719 L 182.832031 92.136719 L 182.832031 92.738281 L 173.984375 92.738281 Z M 173.984375 92.136719 "/>
<path style=" stroke:none;fill-rule:nonzero;fill:rgb(0%,0%,0%);fill-opacity:1;" d="M 180.140625 96.792969 C 180.140625 96.5 180.140625 96.441406 179.925781 96.441406 C 179.808594 96.441406 179.769531 96.441406 179.652344 96.617188 L 175.160156 103.589844 L 175.160156 104.019531 L 179.085938 104.019531 L 179.085938 105.386719 C 179.085938 105.933594 179.046875 106.089844 177.953125 106.089844 L 177.660156 106.089844 L 177.660156 106.519531 C 178.011719 106.480469 179.183594 106.480469 179.613281 106.480469 C 180.023438 106.480469 181.214844 106.480469 181.566406 106.519531 L 181.566406 106.089844 L 181.273438 106.089844 C 180.179688 106.089844 180.140625 105.933594 180.140625 105.386719 L 180.140625 104.019531 L 181.644531 104.019531 L 181.644531 103.589844 L 180.140625 103.589844 Z M 179.164062 97.964844 L 179.164062 103.589844 L 175.53125 103.589844 Z M 179.164062 97.964844 "/>
</g>
</svg>
