<?xml version="1.0"?>
<svg width="779" height="473" xmlns="http://www.w3.org/2000/svg" xmlns:svg="http://www.w3.org/2000/svg" xmlns:xlink="http://www.w3.org/1999/xlink" class="main-svg">
 <defs>
  <g id="svg_234" class="clips">
   <clipPath id="clip1d3317x" class="axesclip">
    <rect id="svg_235" height="473" width="779" y="0" x="0"/>
   </clipPath>
   <clipPath id="clip1d3317y" class="axesclip">
    <rect id="svg_236" height="473" width="779" y="0" x="0"/>
   </clipPath>
   <clipPath id="clip1d3317xy" class="axesclip">
    <rect id="svg_237" height="473" width="779" y="0" x="0"/>
   </clipPath>
  </g>
 </defs>
 <g>
  <title>Layer 1</title>
  <rect id="svg_238" fill="rgb(255, 255, 255)" height="473" width="779" y="0" x="0"/>
  <g id="svg_239" class="draglayer">
   <g id="svg_240"/>
  </g>
  <g id="svg_241" class="subplot xy">
   <rect id="svg_242" stroke-width="0px" fill="rgb(0, 0, 0)" fill-opacity="0" height="473" width="779" y="2" x="0"/>
   <g id="svg_243">
    <path id="svg_244" stroke="rgb(238, 238, 238)" stroke-width="1px" d="m97.379997,2l0,473" class="xgrid crisp"/>
    <path id="svg_245" stroke="rgb(238, 238, 238)" stroke-width="1px" d="m194.75,2l0,473" class="xgrid crisp"/>
    <path id="svg_246" stroke="rgb(238, 238, 238)" stroke-width="1px" d="m292.130005,2l0,473" class="xgrid crisp"/>
    <path id="svg_247" stroke="rgb(238, 238, 238)" stroke-width="1px" d="m486.880005,2l0,473" class="xgrid crisp"/>
    <path id="svg_248" stroke="rgb(238, 238, 238)" stroke-width="1px" d="m584.25,2l0,473" class="xgrid crisp"/>
    <path id="svg_249" stroke="rgb(238, 238, 238)" stroke-width="1px" d="m681.630005,2l0,473" class="xgrid crisp"/>
    <path id="svg_250" stroke="rgb(238, 238, 238)" stroke-width="1px" d="m0,415.880005l779,0" class="ygrid crisp"/>
    <path id="svg_251" stroke="rgb(238, 238, 238)" stroke-width="1px" d="m0,356.75l779,0" class="ygrid crisp"/>
    <path id="svg_252" stroke="rgb(238, 238, 238)" stroke-width="1px" d="m0,297.630005l779,0" class="ygrid crisp"/>
    <path id="svg_253" stroke="rgb(238, 238, 238)" stroke-width="1px" d="m0,179.380005l779,0" class="ygrid crisp"/>
    <path id="svg_254" stroke="rgb(238, 238, 238)" stroke-width="1px" d="m0,120.25l779,0" class="ygrid crisp"/>
    <path id="svg_255" stroke="rgb(238, 238, 238)" stroke-width="1px" d="m0,61.130001l779,0" class="ygrid crisp"/>
   </g>
   <g id="svg_256"/>
   <g id="svg_257">
    <path id="svg_258" stroke="rgb(68, 68, 68)" stroke-width="2px" d="m389.5,2l0,473" class="xzl zl crisp"/>
    <path id="svg_259" stroke="rgb(68, 68, 68)" stroke-width="2px" d="m0,238.5l779,0" class="yzl zl crisp"/>
   </g>
   <g id="svg_260"/>
   <svg id="svg_261" viewBox="0 0 779 473" height="473" width="779" y="2" x="0" preserveAspectRatio="none">
    <g id="svg_262" class="maplayer"/>
    <g id="svg_263" class="barlayer"/>
    <g id="svg_264" class="errorlayer">
     <g id="svg_265" class="errorbars"/>
    </g>
    <g id="svg_266" class="boxlayer"/>
    <g id="svg_267" class="scatterlayer">
     <g id="svg_268" stroke-miterlimit="2" class="trace scatter">
      <g id="svg_269" class="points">
       <path id="svg_270" stroke-width="0px" fill="rgb(31, 119, 180)" d="m589.25,118.25a5,5 0 1 1 -5,-5a5,5 0 0 1 5,5z" class="point"/>
       <path id="svg_271" stroke-width="0px" fill="rgb(31, 119, 180)" d="m589.25,354.75a5,5 0 1 1 -5,-5a5,5 0 0 1 5,5z" class="point"/>
       <path id="svg_272" stroke-width="0px" fill="rgb(31, 119, 180)" d="m199.75,118.25a5,5 0 1 1 -5,-5a5,5 0 0 1 5,5z" class="point"/>
       <path id="svg_273" stroke-width="0px" fill="rgb(31, 119, 180)" d="m199.75,354.75a5,5 0 1 1 -5,-5a5,5 0 0 1 5,5z" class="point"/>
      </g>
     </g>
    </g>
   </svg>
   <g id="svg_274"/>
   <path id="svg_275" fill="none" stroke-width="1px" stroke="rgb(0, 0, 0)" stroke-opacity="0" d="m-1,475.5l781,0" class="crisp"/>
   <path id="svg_276" fill="none" stroke="rgb(0, 0, 0)" stroke-opacity="0" stroke-width="1px" d="m-0.5,1l0,474" class="crisp"/>
   <g id="svg_277"/>
   <g id="svg_278">
    <g id="svg_279" class="xtick">
     <text id="svg_280" font-family="&#x27;Droid Sans', sans-serif" font-size="28px" fill="rgb(68, 68, 68)" y="505" x="0" text-anchor="middle">−4</text>
    </g>
    <g id="svg_281" class="xtick">
     <text id="svg_282" font-family="&#x27;Droid Sans', sans-serif" font-size="28px" fill="rgb(68, 68, 68)" y="505" x="97.379997" text-anchor="middle">−3</text>
    </g>
    <g id="svg_283" class="xtick">
     <text id="svg_284" font-family="&#x27;Droid Sans', sans-serif" font-size="28px" fill="rgb(68, 68, 68)" y="505" x="194.75" text-anchor="middle">−2</text>
    </g>
    <g id="svg_285" class="xtick">
     <text id="svg_286" font-family="&#x27;Droid Sans', sans-serif" font-size="28px" fill="rgb(68, 68, 68)" y="505" x="292.130005" text-anchor="middle">−1</text>
    </g>
    <g id="svg_287" class="xtick">
     <text id="svg_288" font-family="&#x27;Droid Sans', sans-serif" font-size="28px" fill="rgb(68, 68, 68)" y="505" x="389.5" text-anchor="middle">0</text>
    </g>
    <g id="svg_289" class="xtick">
     <text id="svg_290" font-family="&#x27;Droid Sans', sans-serif" font-size="28px" fill="rgb(68, 68, 68)" y="505" x="486.880005" text-anchor="middle">1</text>
    </g>
    <g id="svg_291" class="xtick">
     <text id="svg_292" font-family="&#x27;Droid Sans', sans-serif" font-size="28px" fill="rgb(68, 68, 68)" y="505" x="584.25" text-anchor="middle">2</text>
    </g>
    <g id="svg_293" class="xtick">
     <text id="svg_294" font-family="&#x27;Droid Sans', sans-serif" font-size="28px" fill="rgb(68, 68, 68)" y="505" x="681.630005" text-anchor="middle">3</text>
    </g>
    <g id="svg_295" class="xtick">
     <text id="svg_296" font-family="&#x27;Droid Sans', sans-serif" font-size="28px" fill="rgb(68, 68, 68)" y="505" x="779" text-anchor="middle">4</text>
    </g>
   </g>
   <g id="svg_297">
    <g id="svg_298" class="ytick">
     <text id="svg_299" font-family="&#x27;Droid Sans', sans-serif" font-size="28px" fill="rgb(68, 68, 68)" y="489" x="-2" text-anchor="end">−4</text>
    </g>
    <g id="svg_300" class="ytick">
     <text id="svg_301" font-family="&#x27;Droid Sans', sans-serif" font-size="28px" fill="rgb(68, 68, 68)" y="429.880005" x="-2" text-anchor="end">−3</text>
    </g>
    <g id="svg_302" class="ytick">
     <text id="svg_303" font-family="&#x27;Droid Sans', sans-serif" font-size="28px" fill="rgb(68, 68, 68)" y="370.75" x="-2" text-anchor="end">−2</text>
    </g>
    <g id="svg_304" class="ytick">
     <text id="svg_305" font-family="&#x27;Droid Sans', sans-serif" font-size="28px" fill="rgb(68, 68, 68)" y="311.630005" x="-2" text-anchor="end">−1</text>
    </g>
    <g id="svg_306" class="ytick">
     <text id="svg_307" font-family="&#x27;Droid Sans', sans-serif" font-size="28px" fill="rgb(68, 68, 68)" y="252.5" x="-2" text-anchor="end">0</text>
    </g>
    <g id="svg_308" class="ytick">
     <text id="svg_309" font-family="&#x27;Droid Sans', sans-serif" font-size="28px" fill="rgb(68, 68, 68)" y="193.380005" x="-2" text-anchor="end">1</text>
    </g>
    <g id="svg_310" class="ytick">
     <text id="svg_311" font-family="&#x27;Droid Sans', sans-serif" font-size="28px" fill="rgb(68, 68, 68)" y="134.25" x="-2" text-anchor="end">2</text>
    </g>
    <g id="svg_312" class="ytick">
     <text id="svg_313" font-family="&#x27;Droid Sans', sans-serif" font-size="28px" fill="rgb(68, 68, 68)" y="75.130001" x="-2" text-anchor="end">3</text>
    </g>
    <g id="svg_314" class="ytick">
     <text id="svg_315" font-family="&#x27;Droid Sans', sans-serif" font-size="28px" fill="rgb(68, 68, 68)" y="16" x="-2" text-anchor="end">4</text>
    </g>
   </g>
   <g id="svg_316"/>
  </g>
  <g id="svg_317" class="shapelayer"/>
  <g id="svg_318" class="pielayer"/>
  <g id="svg_319" class="glimages"/>
  <g id="svg_320" class="geoimages"/>
  <text id="svg_321" font-family="&#x27;Open Sans', Arial, sans-serif" font-size="12px" fill="rgb(68, 68, 68)" x="772" text-anchor="end" y="464" class="js-plot-link-container"/>
  <g id="svg_323" class="g-gtitle"/>
  <g id="svg_324" class="g-xtitle"/>
  <g id="svg_325" class="g-ytitle"/>
  <g id="svg_326" class="annotation">
   <g transform="matrix(1.59036 0 0 1.59036 -346.837 -30.994)" id="svg_30" class="annotation-text-g">
    <svg id="svg_327" height="76" width="167" y="85.325757" x="587.628788">
     <rect stroke="rgb(0, 0, 0)" id="svg_328" stroke-width="1px" stroke-opacity="0" fill="rgb(0, 0, 0)" fill-opacity="0" height="75" width="166" y="0.5" x="0.5" class="bg"/>
     <g id="svg_59" class="annotation-math-group">
      <svg id="svg_329" width="13.23ex" y="2" x="1" preserveAspectRatio="xMinYMin meet" height="5.759ex" class="annotation-math" viewBox="0 -1489.3452691183916 5711.111111111111 2478.690538236783" xmlns:xlink="http://www.w3.org/1999/xlink">
       <defs>
        <path d="m34,156q0,114 86,200t189,86q70,0 112,-40t57,-98q6,-29 7,-67l0,-29q49,74 75,166q4,14 6,16t16,3q21,0 21,-8q0,-9 -9,-39t-36,-85t-61,-100l-11,-14l1,-24q2,-56 8,-76t19,-21q14,2 26,11t17,23q2,7 5,8t15,2q20,0 20,-8q0,-6 -6,-19q-12,-24 -35,-38t-44,-15l-7,0q-67,0 -91,72l-3,7l-11,-8q-10,-8 -30,-20t-45,-23t-58,-20t-64,-9q-79,0 -124,50t-45,117zm174,-130q49,0 98,21t73,43l24,22q-2,143 -7,178q-14,115 -92,115q-69,0 -121,-73q-27,-40 -44,-108t-18,-104q0,-49 25,-71t62,-23z" stroke-width="10" id="svg_58"/>
        <path d="m56,347q0,13 14,20l637,0q15,-8 15,-20q0,-11 -14,-19l-318,-1l-318,0q-16,5 -16,20zm0,-194q0,15 16,20l636,0q14,-10 14,-20q0,-13 -15,-20l-637,0q-14,7 -14,20z" stroke-width="10" id="svg_57"/>
        <path stroke-width="10" id="svg_56"/>
        <path d="m213,578l-13,-5q-14,-5 -40,-10t-58,-7l-19,0l0,46l19,0q47,2 87,15t56,24t28,22q2,3 12,3q9,0 17,-6l0,-299l1,-300q7,-7 12,-9t24,-4t62,-2l26,0l0,-46l-11,0q-21,3 -159,3q-136,0 -157,-3l-12,0l0,46l26,0q22,0 38,0t25,1t16,3t8,2t6,5t6,4l0,517z" stroke-width="10" id="svg_55"/>
        <path d="m96,585q56,81 153,81q48,0 96,-26t78,-92q37,-83 37,-228q0,-155 -43,-237q-20,-42 -55,-67t-61,-31t-51,-7q-26,0 -52,6t-61,32t-55,67q-43,82 -43,237q0,174 57,265zm225,12q-30,32 -71,32q-42,0 -72,-32q-25,-26 -33,-72t-8,-192q0,-158 8,-208t36,-79q28,-30 69,-30q40,0 68,30q29,30 36,84t8,203q0,145 -8,191t-33,73z" stroke-width="10" id="svg_54"/>
        <path d="m273,0q-18,3 -127,3q-103,0 -112,-3l-8,0l0,46l16,0q28,0 49,3q8,3 12,11q1,2 1,164l0,161l-71,0l0,46l71,0l0,66l1,67l2,10q19,65 64,94t95,36q1,0 9,0t14,1q41,-3 62,-26t21,-52q0,-23 -14,-37t-37,-14t-37,14t-14,37q0,20 18,40l-4,0q-4,1 -11,1q-28,0 -50,-21t-34,-55q-6,-20 -7,-95l0,-66l111,0l0,-46l-108,0l0,-160q0,-162 1,-164t3,-4t5,-3t5,-3t7,-2t7,-1t9,-1t9,0t10,-1t10,0l31,0l0,-46l-9,0z" stroke-width="10" id="svg_53"/>
        <path d="m27,422q53,4 82,56t32,122l0,15l40,0l0,-184l135,0l0,-46l-135,0l0,-144q1,-125 1,-141t7,-32q14,-39 49,-39q44,0 54,71q1,8 1,46l0,35l40,0l0,-35l0,-12q0,-77 -42,-117q-27,-27 -70,-27q-34,0 -59,12t-38,31t-19,35t-7,32q-1,7 -1,148l0,137l-79,0l0,37l9,0z" stroke-width="10" id="svg_52"/>
        <path d="m164,157q0,-24 -16,-40t-39,-16l-7,0q46,-79 122,-79q70,0 102,60q19,33 19,128q0,103 -27,139q-26,33 -58,33l-6,0q-78,0 -118,-68q-4,-7 -7,-8t-15,-2q-17,0 -19,6q-2,4 -2,175l0,129q0,50 5,50q2,2 4,2q1,0 21,-8t55,-16t75,-8q71,0 136,28q8,4 13,4q8,0 8,-18l0,-13q-82,-97 -205,-97q-31,0 -56,6l-10,2l0,-172q19,14 30,22t36,16t51,8q81,0 137,-65t56,-154q0,-92 -64,-157t-156,-66q-81,0 -130,54t-49,122q0,24 11,38t23,18t23,4q25,0 41,-17t16,-40z" stroke-width="10" id="svg_51"/>
        <path d="m56,237t0,13t14,20l299,0l0,150l1,150q10,13 19,13q13,0 20,-15l0,-298l298,0q15,-8 15,-20t-15,-20l-298,0l0,-298q-8,-14 -18,-14l-2,0l-2,0q-12,0 -18,14l0,298l-299,0q-14,7 -14,20l0,-13z" stroke-width="10" id="svg_35"/>
        <path d="m127,463q-27,0 -42,17t-16,44q0,55 48,98t116,43q35,0 44,-1q74,-12 113,-53t40,-89q0,-52 -34,-101t-94,-71l-3,-2q0,-1 9,-3t29,-9t38,-21q82,-53 82,-140q0,-79 -62,-138t-157,-59q-80,0 -138,43t-58,109q0,28 18,45t45,18q28,0 46,-18t18,-45q0,-11 -3,-20t-7,-16t-11,-12t-12,-8t-10,-4t-8,-3l-4,-1q51,-45 124,-45q55,0 83,53q17,33 17,101l0,20q0,95 -64,127q-15,6 -61,7l-42,1l-3,2q-2,3 -2,16q0,18 8,18q28,0 58,5q34,5 62,42t28,112l0,8q0,57 -35,79q-22,14 -47,14q-32,0 -59,-11t-38,-23t-11,-12l3,0q3,-1 8,-2t10,-5t12,-7t10,-11t8,-15t3,-20q0,-22 -14,-39t-45,-18z" stroke-width="10" id="svg_33"/>
        <path d="m84,237t0,13t14,20l581,0q15,-8 15,-20t-15,-20l-581,0q-14,7 -14,20l0,-13z" stroke-width="10" id="svg_50"/>
        <path d="m287,628q0,7 -57,9q-23,0 -30,1t-7,9q0,8 4,20t7,15q2,1 199,1q167,-1 187,-1t40,-6q72,-17 122,-79t51,-166q0,-156 -107,-280t-252,-148l-14,-2l-194,-1l-111,0l-53,0q-24,0 -31,2t-8,9q0,2 3,14q4,16 8,18t23,3q27,0 60,3q14,3 19,12q3,4 72,278t69,289zm416,-159q0,38 -11,68t-26,47t-37,29t-39,16t-35,7q-2,0 -14,0t-29,0t-33,1l-43,0q-44,0 -50,-10q-2,-4 -73,-288t-71,-287q0,-4 11,-4t77,-1q5,0 19,0t24,-1q126,0 208,82q36,36 59,84t43,127t20,130z" stroke-width="10" id="svg_49"/>
        <path d="m78,60q0,24 17,42t43,18q24,0 42,-16t19,-43q0,-25 -17,-43t-43,-18t-43,17t-18,43z" stroke-width="10" id="svg_48"/>
        <path d="m42,313q0,163 81,258t180,95q69,0 99,-36t30,-80q0,-25 -14,-40t-39,-15q-23,0 -38,14t-15,39q0,44 47,53q-22,22 -62,25q-71,0 -117,-60q-47,-66 -47,-202l1,-4q5,6 8,13q41,60 107,60l4,0q46,0 81,-19q24,-14 48,-40t39,-57q21,-49 21,-107l0,-18q0,-23 -5,-43q-11,-59 -64,-115t-134,-56q-28,0 -54,8t-56,30t-51,59t-36,97t-14,141zm215,84q-30,0 -52,-17t-34,-45t-17,-57t-6,-62q0,-83 12,-119t38,-58q24,-18 53,-18q51,0 78,38q13,18 18,45t5,105q0,80 -5,107t-18,45q-27,36 -72,36z" stroke-width="10" id="svg_47"/>
        <path d="m26,385q-7,7 -7,10q0,4 3,16t5,14q2,5 9,5t51,1l53,0l19,80q3,11 7,29t7,26t6,20t8,17t10,12t14,9t18,2q18,-1 25,-11t7,-19q0,-7 -9,-47t-20,-79l-10,-37q0,-2 50,-2l51,0q7,-7 7,-11q0,-22 -13,-35l-107,0l-36,-145q-39,-160 -39,-172q0,-42 27,-42q35,0 68,34t53,84q2,6 5,7t15,2l4,0q15,0 15,-8q0,-3 -3,-12q-5,-16 -18,-38t-34,-47t-51,-42t-61,-17q-30,0 -57,15t-39,52q-2,8 -2,27l0,18l35,140q35,141 36,142q0,2 -51,2l-51,0z" stroke-width="10" id="svg_46"/>
        <path d="m109,429q-27,0 -43,18t-16,44q0,71 53,123t132,52q91,0 152,-56t62,-145q0,-43 -20,-82t-48,-68t-80,-74q-36,-31 -100,-92l-59,-56l76,-1q157,0 167,5q7,2 24,89l0,3l40,0l0,-3q-1,-3 -13,-91t-15,-92l0,-3l-371,0l0,19l0,12q0,7 6,15t30,35q29,32 50,56q9,10 34,37t34,37t29,33t28,34t23,30t21,32t15,29t13,32t7,30t3,33q0,63 -34,109t-97,46q-33,0 -58,-17t-35,-33t-10,-19q0,-1 5,-1q18,0 37,-14t19,-46q0,-25 -16,-42t-45,-18z" stroke-width="10" id="svg_36"/>
        <path d="m462,0q-18,3 -129,3q-116,0 -134,-3l-9,0l0,46l31,0q20,0 27,0t17,2t14,5t7,8q1,2 1,54l0,50l-259,0l0,46l151,231q153,232 155,233q2,2 21,2l18,0l6,-6l0,-460l92,0l0,-46l-92,0l0,-51q0,-41 0,-48t6,-12q8,-7 57,-8l29,0l0,-46l-9,0zm-169,211l0,334l-219,-333l109,-1l110,0z" stroke-width="10" id="svg_34"/>
        <path d="m55,458q1,2 17,109l16,107q0,2 20,2l20,0l0,-4q0,-10 15,-17t52,-9t169,-2l121,0l0,-39l-68,-93q-9,-12 -30,-40t-27,-37t-21,-32t-20,-36t-14,-37t-13,-46t-8,-54t-6,-68t-3,-82q0,-14 0,-28t-1,-24l0,-9q-4,-17 -19,-29t-34,-12q-11,0 -21,3t-21,19t-11,40q0,158 97,328q20,32 84,121l46,63l-93,0q-174,0 -183,-6q-6,-3 -11,-24t-10,-43l-3,-21l0,-3l-40,0l0,3z" stroke-width="10" id="svg_45"/>
        <path d="m52,289q7,42 54,97t116,56q35,0 64,-18t43,-45q42,63 101,63q37,0 64,-22t28,-59q0,-29 -14,-47t-27,-22t-23,-4q-19,0 -31,11t-12,29q0,46 50,63q-11,13 -40,13q-13,0 -19,-2q-38,-16 -56,-66q-60,-221 -60,-258q0,-28 16,-40t35,-12q37,0 73,33t49,81q3,10 6,11t16,2l4,0q15,0 15,-8q0,-1 -2,-11q-16,-57 -62,-101t-107,-44q-70,0 -106,63q-41,-62 -94,-62l-6,0q-49,0 -70,26t-22,55q0,32 19,52t45,20q43,0 43,-42q0,-20 -12,-35t-23,-20t-13,-5l-3,-1q0,-1 6,-4t16,-7t19,-3q36,0 62,45q9,16 23,68t28,108t16,66q5,27 5,39q0,28 -15,40t-34,12q-40,0 -75,-32t-49,-82q-2,-9 -5,-10t-16,-2l-14,0q-6,6 -6,11z" stroke-width="10" id="svg_44"/>
        <path d="m21,287q0,14 15,48t48,71t74,36q41,0 66,-23t26,-64q-2,-19 -3,-21q0,-3 -16,-46t-33,-97t-16,-86q0,-43 14,-60t42,-18q23,0 43,11t31,23t27,33q0,1 5,20t14,59t19,74q38,150 42,157q13,27 43,27q13,0 21,-7t11,-12t2,-9q0,-13 -49,-210t-56,-216q-28,-83 -97,-132t-138,-50q-45,0 -79,22t-34,66q0,22 7,37t19,22t20,10t17,3q44,0 44,-42q0,-20 -12,-35t-23,-20t-13,-5l-3,-1q2,-5 19,-12t34,-7l8,0q17,0 26,2q33,9 61,38t43,62t23,56t8,30l-6,-4q-6,-4 -19,-11t-26,-12q-20,-5 -39,-5q-46,0 -81,22t-46,71q-1,7 -1,31q0,57 35,149t35,117q0,1 0,2q0,9 0,12t-4,7t-11,4l-4,0q-23,0 -42,-19t-30,-41t-17,-42t-8,-22q-2,-2 -16,-2l-14,0q-6,6 -6,9z" stroke-width="10" id="svg_43"/>
        <path d="m208,74q0,-24 46,-28q18,0 18,-11q0,-1 -2,-13q-3,-14 -6,-18t-13,-4q-2,0 -12,0t-34,1t-64,1q-71,0 -91,-2l-8,0q-7,7 -7,11q2,27 13,35l14,0q70,3 102,50q6,6 181,305t178,303q7,12 24,12l8,0l17,0q6,-9 6,-10l28,-323q28,-323 30,-326q5,-11 65,-11q25,0 25,-10q0,-2 -3,-14q-3,-15 -5,-18t-14,-4q-3,0 -14,0t-39,1t-73,1q-94,0 -123,-2l-12,0q-6,6 -6,9t2,18q4,13 6,16l4,3l20,0q54,3 64,17l-12,150l-238,0l-34,-58q-41,-69 -41,-81zm308,186q0,11 -12,156t-14,146l-27,-43q-16,-27 -63,-107l-90,-152l103,-1q103,0 103,1z" stroke-width="10" id="svg_38"/>
        <path d="m94,250q0,69 10,131t23,107t37,88t38,67t42,52t33,34t25,21l13,0l4,0q14,0 14,-9q0,-3 -17,-21t-41,-53t-49,-86t-42,-138t-17,-193t17,-192t41,-139t49,-86t42,-53t17,-21q0,-9 -15,-9l-3,0l-13,0l-28,24q-94,85 -137,212t-43,264z" stroke-width="10" id="svg_42"/>
        <path d="m184,600q0,24 19,42t44,19q18,0 30,-12t13,-30q0,-23 -20,-42t-44,-20q-15,0 -28,10t-14,33zm-163,-313q0,8 9,31t24,51t44,51t60,22q39,0 65,-23t27,-62q0,-17 -14,-56t-40,-105t-42,-113q-5,-22 -5,-32q0,-25 17,-25q9,0 19,3t23,14t27,35t25,59q3,12 5,14t17,2q20,0 20,-10q0,-8 -9,-31t-25,-51t-45,-50t-62,-22q-32,0 -59,21t-28,64q0,17 5,32t43,114q38,101 44,121t7,39q0,24 -17,24l-2,0q-30,0 -55,-33t-38,-84q-1,-1 -2,-3t-1,-3t-2,-2t-3,-1t-4,0t-8,0l-14,0q-6,6 -6,9z" stroke-width="10" id="svg_32"/>
        <path d="m60,749l4,1q5,0 10,0l12,0l28,-24q94,-85 137,-212t43,-264q0,-68 -10,-131t-23,-107t-37,-88t-38,-67t-41,-51t-32,-33t-23,-19q-3,-3 -4,-4l-12,0q-8,0 -11,0t-5,3t-3,9q1,1 11,13q155,161 155,475t-155,475q-10,12 -11,13q0,8 5,11z" stroke-width="10" id="svg_41"/>
        <path d="m701,-940q0,-3 -6,-9l-31,0q-2,2 -28,27t-45,43t-54,61t-62,81t-63,101t-62,125t-55,149t-45,176t-29,203t-12,234q0,711 364,1110q23,25 43,44t33,32t15,13l31,0q6,-6 6,-9q0,-5 -20,-26t-52,-59t-72,-95t-81,-143t-76,-191t-60,-252t-32,-316q-2,-38 -2,-109q0,-389 94,-680t290,-494q11,-12 11,-16z" stroke-width="10" id="svg_37"/>
        <path d="m34,1438q0,8 3,10t13,2l6,0l15,0q2,-2 28,-27t45,-43t54,-61t62,-81t63,-101t62,-124t55,-149t45,-176t29,-203t12,-234q0,-117 -7,-198q-47,-572 -357,-913q-23,-25 -43,-44t-33,-32t-15,-13l-15,0q-13,0 -17,2t-5,10q54,54 106,124q288,383 288,1064q0,202 -26,377t-64,294t-93,224t-100,163t-99,116q-2,2 -4,4t-3,4t-3,3l-2,2z" stroke-width="10" id="svg_31"/>
        <path d="m231,637q-27,0 -32,1t-5,11q0,27 11,33q1,1 130,1q259,0 273,-2q63,-10 105,-45t43,-92q0,-64 -58,-115t-133,-69l-10,-3q64,-9 105,-46t42,-92q0,-73 -72,-141t-177,-77q-7,-1 -211,-1q-200,0 -203,2q-4,3 -4,8q0,7 2,14q5,19 10,21q4,1 15,1l6,0q27,0 60,3q14,3 19,12q3,4 72,278t69,289q0,7 -57,9zm418,-93q0,30 -15,56t-49,34q-7,2 -92,3q-20,0 -42,0t-35,-1l-13,0q-15,-1 -19,-10q-2,-4 -32,-120q0,-3 -1,-6l-31,-126l81,0q81,0 93,2q60,10 107,58t48,110zm-54,-315q0,44 -23,73t-60,34q-6,1 -83,1q-118,0 -119,-1q0,-2 -17,-73t-35,-141l-18,-70q0,-4 12,-4t81,-2q89,0 96,1q62,7 114,58t52,124z" stroke-width="10" id="svg_40"/>
        <path d="m50,252q0,115 67,221t169,168t204,63q90,0 143,-51q9,-10 15,-17t8,-10l1,-3q3,0 27,26q7,6 15,14t16,16t10,11l15,15l6,0q14,0 14,-7q0,-4 -32,-137q-36,-139 -36,-140q-2,-5 -5,-6t-18,-2l-16,0q-6,6 -6,9q0,1 1,7t2,20t1,32q0,71 -32,124t-109,54q-26,0 -56,-7t-72,-24t-83,-56t-73,-93q-32,-57 -51,-133t-19,-124q0,-114 76,-164q48,-34 118,-34q91,0 162,68t94,148q4,13 6,15t16,2q20,0 20,-9q0,-5 -1,-9q-29,-107 -124,-184t-204,-77q-113,0 -191,75t-78,199z" stroke-width="10" id="svg_39"/>
       </defs>
       <g stroke="rgb(68, 68, 68)" id="svg_330" transform="matrix(1 0 0 -1 0 0)" stroke-width="0" fill="rgb(68, 68, 68)">
        <use id="svg_331" xlink:href="#svg_38"/>
        <g id="svg_332">
         <use id="svg_333" x="755" y="0" xlink:href="#svg_37"/>
         <g id="svg_334">
          <g id="svg_335">
           <rect id="svg_336" y="220" x="1616" height="60" width="625"/>
           <use id="svg_337" y="676" x="1676" xlink:href="#svg_36"/>
           <use id="svg_338" y="-686" x="1676" xlink:href="#svg_33"/>
          </g>
         </g>
         <use id="svg_339" y="0" x="2583" xlink:href="#svg_35"/>
         <g id="svg_340">
          <g id="svg_341">
           <rect id="svg_342" y="220" x="3708" height="60" width="625"/>
           <use id="svg_343" y="676" x="3768" xlink:href="#svg_34"/>
           <use id="svg_344" y="-686" x="3768" xlink:href="#svg_33"/>
          </g>
         </g>
         <use id="svg_345" y="0" x="4620" xlink:href="#svg_32"/>
         <use id="svg_346" y="-1" x="4970" xlink:href="#svg_31"/>
        </g>
       </g>
      </svg>
     </g>
    </svg>
   </g>
  </g>
  <g id="svg_347" class="annotation">
   <g transform="matrix(1.6988 0 0 1.6988 -413.337 -204.398)" id="svg_88" class="annotation-text-g">
    <svg id="svg_348" height="76" width="167" y="321.432623" x="587.468085">
     <rect stroke="rgb(0, 0, 0)" id="svg_349" stroke-width="1px" stroke-opacity="0" fill="rgb(0, 0, 0)" fill-opacity="0" height="75" width="166" y="0.5" x="0.5" class="bg"/>
     <g id="svg_117" class="annotation-math-group">
      <svg id="svg_350" width="13.307ex" y="2" x="1" preserveAspectRatio="xMinYMin meet" height="5.759ex" class="annotation-math" viewBox="0 -1489.3452691183916 5720.111111111111 2478.690538236783" xmlns:xlink="http://www.w3.org/1999/xlink">
       <defs>
        <path d="m34,156q0,114 86,200t189,86q70,0 112,-40t57,-98q6,-29 7,-67l0,-29q49,74 75,166q4,14 6,16t16,3q21,0 21,-8q0,-9 -9,-39t-36,-85t-61,-100l-11,-14l1,-24q2,-56 8,-76t19,-21q14,2 26,11t17,23q2,7 5,8t15,2q20,0 20,-8q0,-6 -6,-19q-12,-24 -35,-38t-44,-15l-7,0q-67,0 -91,72l-3,7l-11,-8q-10,-8 -30,-20t-45,-23t-58,-20t-64,-9q-79,0 -124,50t-45,117zm174,-130q49,0 98,21t73,43l24,22q-2,143 -7,178q-14,115 -92,115q-69,0 -121,-73q-27,-40 -44,-108t-18,-104q0,-49 25,-71t62,-23z" stroke-width="10" id="svg_116"/>
        <path d="m56,347q0,13 14,20l637,0q15,-8 15,-20q0,-11 -14,-19l-318,-1l-318,0q-16,5 -16,20zm0,-194q0,15 16,20l636,0q14,-10 14,-20q0,-13 -15,-20l-637,0q-14,7 -14,20z" stroke-width="10" id="svg_115"/>
        <path stroke-width="10" id="svg_114"/>
        <path d="m213,578l-13,-5q-14,-5 -40,-10t-58,-7l-19,0l0,46l19,0q47,2 87,15t56,24t28,22q2,3 12,3q9,0 17,-6l0,-299l1,-300q7,-7 12,-9t24,-4t62,-2l26,0l0,-46l-11,0q-21,3 -159,3q-136,0 -157,-3l-12,0l0,46l26,0q22,0 38,0t25,1t16,3t8,2t6,5t6,4l0,517z" stroke-width="10" id="svg_113"/>
        <path d="m96,585q56,81 153,81q48,0 96,-26t78,-92q37,-83 37,-228q0,-155 -43,-237q-20,-42 -55,-67t-61,-31t-51,-7q-26,0 -52,6t-61,32t-55,67q-43,82 -43,237q0,174 57,265zm225,12q-30,32 -71,32q-42,0 -72,-32q-25,-26 -33,-72t-8,-192q0,-158 8,-208t36,-79q28,-30 69,-30q40,0 68,30q29,30 36,84t8,203q0,145 -8,191t-33,73z" stroke-width="10" id="svg_112"/>
        <path d="m273,0q-18,3 -127,3q-103,0 -112,-3l-8,0l0,46l16,0q28,0 49,3q8,3 12,11q1,2 1,164l0,161l-71,0l0,46l71,0l0,66l1,67l2,10q19,65 64,94t95,36q1,0 9,0t14,1q41,-3 62,-26t21,-52q0,-23 -14,-37t-37,-14t-37,14t-14,37q0,20 18,40l-4,0q-4,1 -11,1q-28,0 -50,-21t-34,-55q-6,-20 -7,-95l0,-66l111,0l0,-46l-108,0l0,-160q0,-162 1,-164t3,-4t5,-3t5,-3t7,-2t7,-1t9,-1t9,0t10,-1t10,0l31,0l0,-46l-9,0z" stroke-width="10" id="svg_111"/>
        <path d="m27,422q53,4 82,56t32,122l0,15l40,0l0,-184l135,0l0,-46l-135,0l0,-144q1,-125 1,-141t7,-32q14,-39 49,-39q44,0 54,71q1,8 1,46l0,35l40,0l0,-35l0,-12q0,-77 -42,-117q-27,-27 -70,-27q-34,0 -59,12t-38,31t-19,35t-7,32q-1,7 -1,148l0,137l-79,0l0,37l9,0z" stroke-width="10" id="svg_110"/>
        <path d="m164,157q0,-24 -16,-40t-39,-16l-7,0q46,-79 122,-79q70,0 102,60q19,33 19,128q0,103 -27,139q-26,33 -58,33l-6,0q-78,0 -118,-68q-4,-7 -7,-8t-15,-2q-17,0 -19,6q-2,4 -2,175l0,129q0,50 5,50q2,2 4,2q1,0 21,-8t55,-16t75,-8q71,0 136,28q8,4 13,4q8,0 8,-18l0,-13q-82,-97 -205,-97q-31,0 -56,6l-10,2l0,-172q19,14 30,22t36,16t51,8q81,0 137,-65t56,-154q0,-92 -64,-157t-156,-66q-81,0 -130,54t-49,122q0,24 11,38t23,18t23,4q25,0 41,-17t16,-40z" stroke-width="10" id="svg_109"/>
        <path d="m56,237t0,13t14,20l299,0l0,150l1,150q10,13 19,13q13,0 20,-15l0,-298l298,0q15,-8 15,-20t-15,-20l-298,0l0,-298q-8,-14 -18,-14l-2,0l-2,0q-12,0 -18,14l0,298l-299,0q-14,7 -14,20l0,-13z" stroke-width="10" id="svg_108"/>
        <path d="m127,463q-27,0 -42,17t-16,44q0,55 48,98t116,43q35,0 44,-1q74,-12 113,-53t40,-89q0,-52 -34,-101t-94,-71l-3,-2q0,-1 9,-3t29,-9t38,-21q82,-53 82,-140q0,-79 -62,-138t-157,-59q-80,0 -138,43t-58,109q0,28 18,45t45,18q28,0 46,-18t18,-45q0,-11 -3,-20t-7,-16t-11,-12t-12,-8t-10,-4t-8,-3l-4,-1q51,-45 124,-45q55,0 83,53q17,33 17,101l0,20q0,95 -64,127q-15,6 -61,7l-42,1l-3,2q-2,3 -2,16q0,18 8,18q28,0 58,5q34,5 62,42t28,112l0,8q0,57 -35,79q-22,14 -47,14q-32,0 -59,-11t-38,-23t-11,-12l3,0q3,-1 8,-2t10,-5t12,-7t10,-11t8,-15t3,-20q0,-22 -14,-39t-45,-18z" stroke-width="10" id="svg_91"/>
        <path d="m84,237t0,13t14,20l581,0q15,-8 15,-20t-15,-20l-581,0q-14,7 -14,20l0,-13z" stroke-width="10" id="svg_93"/>
        <path d="m287,628q0,7 -57,9q-23,0 -30,1t-7,9q0,8 4,20t7,15q2,1 199,1q167,-1 187,-1t40,-6q72,-17 122,-79t51,-166q0,-156 -107,-280t-252,-148l-14,-2l-194,-1l-111,0l-53,0q-24,0 -31,2t-8,9q0,2 3,14q4,16 8,18t23,3q27,0 60,3q14,3 19,12q3,4 72,278t69,289zm416,-159q0,38 -11,68t-26,47t-37,29t-39,16t-35,7q-2,0 -14,0t-29,0t-33,1l-43,0q-44,0 -50,-10q-2,-4 -73,-288t-71,-287q0,-4 11,-4t77,-1q5,0 19,0t24,-1q126,0 208,82q36,36 59,84t43,127t20,130z" stroke-width="10" id="svg_107"/>
        <path d="m78,60q0,24 17,42t43,18q24,0 42,-16t19,-43q0,-25 -17,-43t-43,-18t-43,17t-18,43z" stroke-width="10" id="svg_106"/>
        <path d="m42,313q0,163 81,258t180,95q69,0 99,-36t30,-80q0,-25 -14,-40t-39,-15q-23,0 -38,14t-15,39q0,44 47,53q-22,22 -62,25q-71,0 -117,-60q-47,-66 -47,-202l1,-4q5,6 8,13q41,60 107,60l4,0q46,0 81,-19q24,-14 48,-40t39,-57q21,-49 21,-107l0,-18q0,-23 -5,-43q-11,-59 -64,-115t-134,-56q-28,0 -54,8t-56,30t-51,59t-36,97t-14,141zm215,84q-30,0 -52,-17t-34,-45t-17,-57t-6,-62q0,-83 12,-119t38,-58q24,-18 53,-18q51,0 78,38q13,18 18,45t5,105q0,80 -5,107t-18,45q-27,36 -72,36z" stroke-width="10" id="svg_105"/>
        <path d="m26,385q-7,7 -7,10q0,4 3,16t5,14q2,5 9,5t51,1l53,0l19,80q3,11 7,29t7,26t6,20t8,17t10,12t14,9t18,2q18,-1 25,-11t7,-19q0,-7 -9,-47t-20,-79l-10,-37q0,-2 50,-2l51,0q7,-7 7,-11q0,-22 -13,-35l-107,0l-36,-145q-39,-160 -39,-172q0,-42 27,-42q35,0 68,34t53,84q2,6 5,7t15,2l4,0q15,0 15,-8q0,-3 -3,-12q-5,-16 -18,-38t-34,-47t-51,-42t-61,-17q-30,0 -57,15t-39,52q-2,8 -2,27l0,18l35,140q35,141 36,142q0,2 -51,2l-51,0z" stroke-width="10" id="svg_104"/>
        <path d="m109,429q-27,0 -43,18t-16,44q0,71 53,123t132,52q91,0 152,-56t62,-145q0,-43 -20,-82t-48,-68t-80,-74q-36,-31 -100,-92l-59,-56l76,-1q157,0 167,5q7,2 24,89l0,3l40,0l0,-3q-1,-3 -13,-91t-15,-92l0,-3l-371,0l0,19l0,12q0,7 6,15t30,35q29,32 50,56q9,10 34,37t34,37t29,33t28,34t23,30t21,32t15,29t13,32t7,30t3,33q0,63 -34,109t-97,46q-33,0 -58,-17t-35,-33t-10,-19q0,-1 5,-1q18,0 37,-14t19,-46q0,-25 -16,-42t-45,-18z" stroke-width="10" id="svg_94"/>
        <path d="m462,0q-18,3 -129,3q-116,0 -134,-3l-9,0l0,46l31,0q20,0 27,0t17,2t14,5t7,8q1,2 1,54l0,50l-259,0l0,46l151,231q153,232 155,233q2,2 21,2l18,0l6,-6l0,-460l92,0l0,-46l-92,0l0,-51q0,-41 0,-48t6,-12q8,-7 57,-8l29,0l0,-46l-9,0zm-169,211l0,334l-219,-333l109,-1l110,0z" stroke-width="10" id="svg_92"/>
        <path d="m55,458q1,2 17,109l16,107q0,2 20,2l20,0l0,-4q0,-10 15,-17t52,-9t169,-2l121,0l0,-39l-68,-93q-9,-12 -30,-40t-27,-37t-21,-32t-20,-36t-14,-37t-13,-46t-8,-54t-6,-68t-3,-82q0,-14 0,-28t-1,-24l0,-9q-4,-17 -19,-29t-34,-12q-11,0 -21,3t-21,19t-11,40q0,158 97,328q20,32 84,121l46,63l-93,0q-174,0 -183,-6q-6,-3 -11,-24t-10,-43l-3,-21l0,-3l-40,0l0,3z" stroke-width="10" id="svg_103"/>
        <path d="m52,289q7,42 54,97t116,56q35,0 64,-18t43,-45q42,63 101,63q37,0 64,-22t28,-59q0,-29 -14,-47t-27,-22t-23,-4q-19,0 -31,11t-12,29q0,46 50,63q-11,13 -40,13q-13,0 -19,-2q-38,-16 -56,-66q-60,-221 -60,-258q0,-28 16,-40t35,-12q37,0 73,33t49,81q3,10 6,11t16,2l4,0q15,0 15,-8q0,-1 -2,-11q-16,-57 -62,-101t-107,-44q-70,0 -106,63q-41,-62 -94,-62l-6,0q-49,0 -70,26t-22,55q0,32 19,52t45,20q43,0 43,-42q0,-20 -12,-35t-23,-20t-13,-5l-3,-1q0,-1 6,-4t16,-7t19,-3q36,0 62,45q9,16 23,68t28,108t16,66q5,27 5,39q0,28 -15,40t-34,12q-40,0 -75,-32t-49,-82q-2,-9 -5,-10t-16,-2l-14,0q-6,6 -6,11z" stroke-width="10" id="svg_102"/>
        <path d="m21,287q0,14 15,48t48,71t74,36q41,0 66,-23t26,-64q-2,-19 -3,-21q0,-3 -16,-46t-33,-97t-16,-86q0,-43 14,-60t42,-18q23,0 43,11t31,23t27,33q0,1 5,20t14,59t19,74q38,150 42,157q13,27 43,27q13,0 21,-7t11,-12t2,-9q0,-13 -49,-210t-56,-216q-28,-83 -97,-132t-138,-50q-45,0 -79,22t-34,66q0,22 7,37t19,22t20,10t17,3q44,0 44,-42q0,-20 -12,-35t-23,-20t-13,-5l-3,-1q2,-5 19,-12t34,-7l8,0q17,0 26,2q33,9 61,38t43,62t23,56t8,30l-6,-4q-6,-4 -19,-11t-26,-12q-20,-5 -39,-5q-46,0 -81,22t-46,71q-1,7 -1,31q0,57 35,149t35,117q0,1 0,2q0,9 0,12t-4,7t-11,4l-4,0q-23,0 -42,-19t-30,-41t-17,-42t-8,-22q-2,-2 -16,-2l-14,0q-6,6 -6,9z" stroke-width="10" id="svg_101"/>
        <path d="m208,74q0,-24 46,-28q18,0 18,-11q0,-1 -2,-13q-3,-14 -6,-18t-13,-4q-2,0 -12,0t-34,1t-64,1q-71,0 -91,-2l-8,0q-7,7 -7,11q2,27 13,35l14,0q70,3 102,50q6,6 181,305t178,303q7,12 24,12l8,0l17,0q6,-9 6,-10l28,-323q28,-323 30,-326q5,-11 65,-11q25,0 25,-10q0,-2 -3,-14q-3,-15 -5,-18t-14,-4q-3,0 -14,0t-39,1t-73,1q-94,0 -123,-2l-12,0q-6,6 -6,9t2,18q4,13 6,16l4,3l20,0q54,3 64,17l-12,150l-238,0l-34,-58q-41,-69 -41,-81zm308,186q0,11 -12,156t-14,146l-27,-43q-16,-27 -63,-107l-90,-152l103,-1q103,0 103,1z" stroke-width="10" id="svg_100"/>
        <path d="m94,250q0,69 10,131t23,107t37,88t38,67t42,52t33,34t25,21l13,0l4,0q14,0 14,-9q0,-3 -17,-21t-41,-53t-49,-86t-42,-138t-17,-193t17,-192t41,-139t49,-86t42,-53t17,-21q0,-9 -15,-9l-3,0l-13,0l-28,24q-94,85 -137,212t-43,264z" stroke-width="10" id="svg_99"/>
        <path d="m184,600q0,24 19,42t44,19q18,0 30,-12t13,-30q0,-23 -20,-42t-44,-20q-15,0 -28,10t-14,33zm-163,-313q0,8 9,31t24,51t44,51t60,22q39,0 65,-23t27,-62q0,-17 -14,-56t-40,-105t-42,-113q-5,-22 -5,-32q0,-25 17,-25q9,0 19,3t23,14t27,35t25,59q3,12 5,14t17,2q20,0 20,-10q0,-8 -9,-31t-25,-51t-45,-50t-62,-22q-32,0 -59,21t-28,64q0,17 5,32t43,114q38,101 44,121t7,39q0,24 -17,24l-2,0q-30,0 -55,-33t-38,-84q-1,-1 -2,-3t-1,-3t-2,-2t-3,-1t-4,0t-8,0l-14,0q-6,6 -6,9z" stroke-width="10" id="svg_90"/>
        <path d="m60,749l4,1q5,0 10,0l12,0l28,-24q94,-85 137,-212t43,-264q0,-68 -10,-131t-23,-107t-37,-88t-38,-67t-41,-51t-32,-33t-23,-19q-3,-3 -4,-4l-12,0q-8,0 -11,0t-5,3t-3,9q1,1 11,13q155,161 155,475t-155,475q-10,12 -11,13q0,8 5,11z" stroke-width="10" id="svg_98"/>
        <path d="m701,-940q0,-3 -6,-9l-31,0q-2,2 -28,27t-45,43t-54,61t-62,81t-63,101t-62,125t-55,149t-45,176t-29,203t-12,234q0,711 364,1110q23,25 43,44t33,32t15,13l31,0q6,-6 6,-9q0,-5 -20,-26t-52,-59t-72,-95t-81,-143t-76,-191t-60,-252t-32,-316q-2,-38 -2,-109q0,-389 94,-680t290,-494q11,-12 11,-16z" stroke-width="10" id="svg_95"/>
        <path d="m34,1438q0,8 3,10t13,2l6,0l15,0q2,-2 28,-27t45,-43t54,-61t62,-81t63,-101t62,-124t55,-149t45,-176t29,-203t12,-234q0,-117 -7,-198q-47,-572 -357,-913q-23,-25 -43,-44t-33,-32t-15,-13l-15,0q-13,0 -17,2t-5,10q54,54 106,124q288,383 288,1064q0,202 -26,377t-64,294t-93,224t-100,163t-99,116q-2,2 -4,4t-3,4t-3,3l-2,2z" stroke-width="10" id="svg_89"/>
        <path d="m231,637q-27,0 -32,1t-5,11q0,27 11,33q1,1 130,1q259,0 273,-2q63,-10 105,-45t43,-92q0,-64 -58,-115t-133,-69l-10,-3q64,-9 105,-46t42,-92q0,-73 -72,-141t-177,-77q-7,-1 -211,-1q-200,0 -203,2q-4,3 -4,8q0,7 2,14q5,19 10,21q4,1 15,1l6,0q27,0 60,3q14,3 19,12q3,4 72,278t69,289q0,7 -57,9zm418,-93q0,30 -15,56t-49,34q-7,2 -92,3q-20,0 -42,0t-35,-1l-13,0q-15,-1 -19,-10q-2,-4 -32,-120q0,-3 -1,-6l-31,-126l81,0q81,0 93,2q60,10 107,58t48,110zm-54,-315q0,44 -23,73t-60,34q-6,1 -83,1q-118,0 -119,-1q0,-2 -17,-73t-35,-141l-18,-70q0,-4 12,-4t81,-2q89,0 96,1q62,7 114,58t52,124z" stroke-width="10" id="svg_96"/>
        <path d="m50,252q0,115 67,221t169,168t204,63q90,0 143,-51q9,-10 15,-17t8,-10l1,-3q3,0 27,26q7,6 15,14t16,16t10,11l15,15l6,0q14,0 14,-7q0,-4 -32,-137q-36,-139 -36,-140q-2,-5 -5,-6t-18,-2l-16,0q-6,6 -6,9q0,1 1,7t2,20t1,32q0,71 -32,124t-109,54q-26,0 -56,-7t-72,-24t-83,-56t-73,-93q-32,-57 -51,-133t-19,-124q0,-114 76,-164q48,-34 118,-34q91,0 162,68t94,148q4,13 6,15t16,2q20,0 20,-9q0,-5 -1,-9q-29,-107 -124,-184t-204,-77q-113,0 -191,75t-78,199z" stroke-width="10" id="svg_97"/>
       </defs>
       <g stroke="rgb(68, 68, 68)" id="svg_351" transform="matrix(1 0 0 -1 0 0)" stroke-width="0" fill="rgb(68, 68, 68)">
        <use id="svg_352" xlink:href="#svg_96"/>
        <g id="svg_353">
         <use id="svg_354" x="764" y="0" xlink:href="#svg_95"/>
         <g id="svg_355">
          <g id="svg_356">
           <rect id="svg_357" y="220" x="1625" height="60" width="625"/>
           <use id="svg_358" y="676" x="1685" xlink:href="#svg_94"/>
           <use id="svg_359" y="-686" x="1685" xlink:href="#svg_91"/>
          </g>
         </g>
         <use id="svg_360" y="0" x="2592" xlink:href="#svg_93"/>
         <g id="svg_361">
          <g id="svg_362">
           <rect id="svg_363" y="220" x="3717" height="60" width="625"/>
           <use id="svg_364" y="676" x="3777" xlink:href="#svg_92"/>
           <use id="svg_365" y="-686" x="3777" xlink:href="#svg_91"/>
          </g>
         </g>
         <use id="svg_366" y="0" x="4629" xlink:href="#svg_90"/>
         <use id="svg_367" y="-1" x="4979" xlink:href="#svg_89"/>
        </g>
       </g>
      </svg>
     </g>
    </svg>
   </g>
  </g>
  <g id="svg_368" class="annotation">
   <g transform="matrix(1.58763 0 0 1.58763 -118.507 -32.6134)" id="svg_146" class="annotation-text-g">
    <svg id="svg_369" height="76" width="195" y="92.792208" x="196.653896">
     <rect stroke="rgb(0, 0, 0)" id="svg_370" stroke-width="1px" stroke-opacity="0" fill="rgb(0, 0, 0)" fill-opacity="0" height="75" width="194" y="0.5" x="0.5" class="bg"/>
     <g id="svg_175" class="annotation-math-group">
      <svg id="svg_371" width="15.486ex" y="2" x="1" preserveAspectRatio="xMinYMin meet" height="5.759ex" class="annotation-math" viewBox="0 -1489.3452691183916 6670.777777777778 2478.690538236783" xmlns:xlink="http://www.w3.org/1999/xlink">
       <defs>
        <path d="m34,156q0,114 86,200t189,86q70,0 112,-40t57,-98q6,-29 7,-67l0,-29q49,74 75,166q4,14 6,16t16,3q21,0 21,-8q0,-9 -9,-39t-36,-85t-61,-100l-11,-14l1,-24q2,-56 8,-76t19,-21q14,2 26,11t17,23q2,7 5,8t15,2q20,0 20,-8q0,-6 -6,-19q-12,-24 -35,-38t-44,-15l-7,0q-67,0 -91,72l-3,7l-11,-8q-10,-8 -30,-20t-45,-23t-58,-20t-64,-9q-79,0 -124,50t-45,117zm174,-130q49,0 98,21t73,43l24,22q-2,143 -7,178q-14,115 -92,115q-69,0 -121,-73q-27,-40 -44,-108t-18,-104q0,-49 25,-71t62,-23z" stroke-width="10" id="svg_174"/>
        <path d="m56,347q0,13 14,20l637,0q15,-8 15,-20q0,-11 -14,-19l-318,-1l-318,0q-16,5 -16,20zm0,-194q0,15 16,20l636,0q14,-10 14,-20q0,-13 -15,-20l-637,0q-14,7 -14,20z" stroke-width="10" id="svg_173"/>
        <path stroke-width="10" id="svg_172"/>
        <path d="m213,578l-13,-5q-14,-5 -40,-10t-58,-7l-19,0l0,46l19,0q47,2 87,15t56,24t28,22q2,3 12,3q9,0 17,-6l0,-299l1,-300q7,-7 12,-9t24,-4t62,-2l26,0l0,-46l-11,0q-21,3 -159,3q-136,0 -157,-3l-12,0l0,46l26,0q22,0 38,0t25,1t16,3t8,2t6,5t6,4l0,517z" stroke-width="10" id="svg_171"/>
        <path d="m96,585q56,81 153,81q48,0 96,-26t78,-92q37,-83 37,-228q0,-155 -43,-237q-20,-42 -55,-67t-61,-31t-51,-7q-26,0 -52,6t-61,32t-55,67q-43,82 -43,237q0,174 57,265zm225,12q-30,32 -71,32q-42,0 -72,-32q-25,-26 -33,-72t-8,-192q0,-158 8,-208t36,-79q28,-30 69,-30q40,0 68,30q29,30 36,84t8,203q0,145 -8,191t-33,73z" stroke-width="10" id="svg_170"/>
        <path d="m273,0q-18,3 -127,3q-103,0 -112,-3l-8,0l0,46l16,0q28,0 49,3q8,3 12,11q1,2 1,164l0,161l-71,0l0,46l71,0l0,66l1,67l2,10q19,65 64,94t95,36q1,0 9,0t14,1q41,-3 62,-26t21,-52q0,-23 -14,-37t-37,-14t-37,14t-14,37q0,20 18,40l-4,0q-4,1 -11,1q-28,0 -50,-21t-34,-55q-6,-20 -7,-95l0,-66l111,0l0,-46l-108,0l0,-160q0,-162 1,-164t3,-4t5,-3t5,-3t7,-2t7,-1t9,-1t9,0t10,-1t10,0l31,0l0,-46l-9,0z" stroke-width="10" id="svg_169"/>
        <path d="m27,422q53,4 82,56t32,122l0,15l40,0l0,-184l135,0l0,-46l-135,0l0,-144q1,-125 1,-141t7,-32q14,-39 49,-39q44,0 54,71q1,8 1,46l0,35l40,0l0,-35l0,-12q0,-77 -42,-117q-27,-27 -70,-27q-34,0 -59,12t-38,31t-19,35t-7,32q-1,7 -1,148l0,137l-79,0l0,37l9,0z" stroke-width="10" id="svg_168"/>
        <path d="m164,157q0,-24 -16,-40t-39,-16l-7,0q46,-79 122,-79q70,0 102,60q19,33 19,128q0,103 -27,139q-26,33 -58,33l-6,0q-78,0 -118,-68q-4,-7 -7,-8t-15,-2q-17,0 -19,6q-2,4 -2,175l0,129q0,50 5,50q2,2 4,2q1,0 21,-8t55,-16t75,-8q71,0 136,28q8,4 13,4q8,0 8,-18l0,-13q-82,-97 -205,-97q-31,0 -56,6l-10,2l0,-172q19,14 30,22t36,16t51,8q81,0 137,-65t56,-154q0,-92 -64,-157t-156,-66q-81,0 -130,54t-49,122q0,24 11,38t23,18t23,4q25,0 41,-17t16,-40z" stroke-width="10" id="svg_167"/>
        <path d="m56,237t0,13t14,20l299,0l0,150l1,150q10,13 19,13q13,0 20,-15l0,-298l298,0q15,-8 15,-20t-15,-20l-298,0l0,-298q-8,-14 -18,-14l-2,0l-2,0q-12,0 -18,14l0,298l-299,0q-14,7 -14,20l0,-13z" stroke-width="10" id="svg_151"/>
        <path d="m127,463q-27,0 -42,17t-16,44q0,55 48,98t116,43q35,0 44,-1q74,-12 113,-53t40,-89q0,-52 -34,-101t-94,-71l-3,-2q0,-1 9,-3t29,-9t38,-21q82,-53 82,-140q0,-79 -62,-138t-157,-59q-80,0 -138,43t-58,109q0,28 18,45t45,18q28,0 46,-18t18,-45q0,-11 -3,-20t-7,-16t-11,-12t-12,-8t-10,-4t-8,-3l-4,-1q51,-45 124,-45q55,0 83,53q17,33 17,101l0,20q0,95 -64,127q-15,6 -61,7l-42,1l-3,2q-2,3 -2,16q0,18 8,18q28,0 58,5q34,5 62,42t28,112l0,8q0,57 -35,79q-22,14 -47,14q-32,0 -59,-11t-38,-23t-11,-12l3,0q3,-1 8,-2t10,-5t12,-7t10,-11t8,-15t3,-20q0,-22 -14,-39t-45,-18z" stroke-width="10" id="svg_149"/>
        <path d="m84,237t0,13t14,20l581,0q15,-8 15,-20t-15,-20l-581,0q-14,7 -14,20l0,-13z" stroke-width="10" id="svg_153"/>
        <path d="m287,628q0,7 -57,9q-23,0 -30,1t-7,9q0,8 4,20t7,15q2,1 199,1q167,-1 187,-1t40,-6q72,-17 122,-79t51,-166q0,-156 -107,-280t-252,-148l-14,-2l-194,-1l-111,0l-53,0q-24,0 -31,2t-8,9q0,2 3,14q4,16 8,18t23,3q27,0 60,3q14,3 19,12q3,4 72,278t69,289zm416,-159q0,38 -11,68t-26,47t-37,29t-39,16t-35,7q-2,0 -14,0t-29,0t-33,1l-43,0q-44,0 -50,-10q-2,-4 -73,-288t-71,-287q0,-4 11,-4t77,-1q5,0 19,0t24,-1q126,0 208,82q36,36 59,84t43,127t20,130z" stroke-width="10" id="svg_166"/>
        <path d="m78,60q0,24 17,42t43,18q24,0 42,-16t19,-43q0,-25 -17,-43t-43,-18t-43,17t-18,43z" stroke-width="10" id="svg_165"/>
        <path d="m42,313q0,163 81,258t180,95q69,0 99,-36t30,-80q0,-25 -14,-40t-39,-15q-23,0 -38,14t-15,39q0,44 47,53q-22,22 -62,25q-71,0 -117,-60q-47,-66 -47,-202l1,-4q5,6 8,13q41,60 107,60l4,0q46,0 81,-19q24,-14 48,-40t39,-57q21,-49 21,-107l0,-18q0,-23 -5,-43q-11,-59 -64,-115t-134,-56q-28,0 -54,8t-56,30t-51,59t-36,97t-14,141zm215,84q-30,0 -52,-17t-34,-45t-17,-57t-6,-62q0,-83 12,-119t38,-58q24,-18 53,-18q51,0 78,38q13,18 18,45t5,105q0,80 -5,107t-18,45q-27,36 -72,36z" stroke-width="10" id="svg_164"/>
        <path d="m26,385q-7,7 -7,10q0,4 3,16t5,14q2,5 9,5t51,1l53,0l19,80q3,11 7,29t7,26t6,20t8,17t10,12t14,9t18,2q18,-1 25,-11t7,-19q0,-7 -9,-47t-20,-79l-10,-37q0,-2 50,-2l51,0q7,-7 7,-11q0,-22 -13,-35l-107,0l-36,-145q-39,-160 -39,-172q0,-42 27,-42q35,0 68,34t53,84q2,6 5,7t15,2l4,0q15,0 15,-8q0,-3 -3,-12q-5,-16 -18,-38t-34,-47t-51,-42t-61,-17q-30,0 -57,15t-39,52q-2,8 -2,27l0,18l35,140q35,141 36,142q0,2 -51,2l-51,0z" stroke-width="10" id="svg_163"/>
        <path d="m109,429q-27,0 -43,18t-16,44q0,71 53,123t132,52q91,0 152,-56t62,-145q0,-43 -20,-82t-48,-68t-80,-74q-36,-31 -100,-92l-59,-56l76,-1q157,0 167,5q7,2 24,89l0,3l40,0l0,-3q-1,-3 -13,-91t-15,-92l0,-3l-371,0l0,19l0,12q0,7 6,15t30,35q29,32 50,56q9,10 34,37t34,37t29,33t28,34t23,30t21,32t15,29t13,32t7,30t3,33q0,63 -34,109t-97,46q-33,0 -58,-17t-35,-33t-10,-19q0,-1 5,-1q18,0 37,-14t19,-46q0,-25 -16,-42t-45,-18z" stroke-width="10" id="svg_152"/>
        <path d="m462,0q-18,3 -129,3q-116,0 -134,-3l-9,0l0,46l31,0q20,0 27,0t17,2t14,5t7,8q1,2 1,54l0,50l-259,0l0,46l151,231q153,232 155,233q2,2 21,2l18,0l6,-6l0,-460l92,0l0,-46l-92,0l0,-51q0,-41 0,-48t6,-12q8,-7 57,-8l29,0l0,-46l-9,0zm-169,211l0,334l-219,-333l109,-1l110,0z" stroke-width="10" id="svg_150"/>
        <path d="m55,458q1,2 17,109l16,107q0,2 20,2l20,0l0,-4q0,-10 15,-17t52,-9t169,-2l121,0l0,-39l-68,-93q-9,-12 -30,-40t-27,-37t-21,-32t-20,-36t-14,-37t-13,-46t-8,-54t-6,-68t-3,-82q0,-14 0,-28t-1,-24l0,-9q-4,-17 -19,-29t-34,-12q-11,0 -21,3t-21,19t-11,40q0,158 97,328q20,32 84,121l46,63l-93,0q-174,0 -183,-6q-6,-3 -11,-24t-10,-43l-3,-21l0,-3l-40,0l0,3z" stroke-width="10" id="svg_162"/>
        <path d="m52,289q7,42 54,97t116,56q35,0 64,-18t43,-45q42,63 101,63q37,0 64,-22t28,-59q0,-29 -14,-47t-27,-22t-23,-4q-19,0 -31,11t-12,29q0,46 50,63q-11,13 -40,13q-13,0 -19,-2q-38,-16 -56,-66q-60,-221 -60,-258q0,-28 16,-40t35,-12q37,0 73,33t49,81q3,10 6,11t16,2l4,0q15,0 15,-8q0,-1 -2,-11q-16,-57 -62,-101t-107,-44q-70,0 -106,63q-41,-62 -94,-62l-6,0q-49,0 -70,26t-22,55q0,32 19,52t45,20q43,0 43,-42q0,-20 -12,-35t-23,-20t-13,-5l-3,-1q0,-1 6,-4t16,-7t19,-3q36,0 62,45q9,16 23,68t28,108t16,66q5,27 5,39q0,28 -15,40t-34,12q-40,0 -75,-32t-49,-82q-2,-9 -5,-10t-16,-2l-14,0q-6,6 -6,11z" stroke-width="10" id="svg_161"/>
        <path d="m21,287q0,14 15,48t48,71t74,36q41,0 66,-23t26,-64q-2,-19 -3,-21q0,-3 -16,-46t-33,-97t-16,-86q0,-43 14,-60t42,-18q23,0 43,11t31,23t27,33q0,1 5,20t14,59t19,74q38,150 42,157q13,27 43,27q13,0 21,-7t11,-12t2,-9q0,-13 -49,-210t-56,-216q-28,-83 -97,-132t-138,-50q-45,0 -79,22t-34,66q0,22 7,37t19,22t20,10t17,3q44,0 44,-42q0,-20 -12,-35t-23,-20t-13,-5l-3,-1q2,-5 19,-12t34,-7l8,0q17,0 26,2q33,9 61,38t43,62t23,56t8,30l-6,-4q-6,-4 -19,-11t-26,-12q-20,-5 -39,-5q-46,0 -81,22t-46,71q-1,7 -1,31q0,57 35,149t35,117q0,1 0,2q0,9 0,12t-4,7t-11,4l-4,0q-23,0 -42,-19t-30,-41t-17,-42t-8,-22q-2,-2 -16,-2l-14,0q-6,6 -6,9z" stroke-width="10" id="svg_160"/>
        <path d="m208,74q0,-24 46,-28q18,0 18,-11q0,-1 -2,-13q-3,-14 -6,-18t-13,-4q-2,0 -12,0t-34,1t-64,1q-71,0 -91,-2l-8,0q-7,7 -7,11q2,27 13,35l14,0q70,3 102,50q6,6 181,305t178,303q7,12 24,12l8,0l17,0q6,-9 6,-10l28,-323q28,-323 30,-326q5,-11 65,-11q25,0 25,-10q0,-2 -3,-14q-3,-15 -5,-18t-14,-4q-3,0 -14,0t-39,1t-73,1q-94,0 -123,-2l-12,0q-6,6 -6,9t2,18q4,13 6,16l4,3l20,0q54,3 64,17l-12,150l-238,0l-34,-58q-41,-69 -41,-81zm308,186q0,11 -12,156t-14,146l-27,-43q-16,-27 -63,-107l-90,-152l103,-1q103,0 103,1z" stroke-width="10" id="svg_159"/>
        <path d="m94,250q0,69 10,131t23,107t37,88t38,67t42,52t33,34t25,21l13,0l4,0q14,0 14,-9q0,-3 -17,-21t-41,-53t-49,-86t-42,-138t-17,-193t17,-192t41,-139t49,-86t42,-53t17,-21q0,-9 -15,-9l-3,0l-13,0l-28,24q-94,85 -137,212t-43,264z" stroke-width="10" id="svg_158"/>
        <path d="m184,600q0,24 19,42t44,19q18,0 30,-12t13,-30q0,-23 -20,-42t-44,-20q-15,0 -28,10t-14,33zm-163,-313q0,8 9,31t24,51t44,51t60,22q39,0 65,-23t27,-62q0,-17 -14,-56t-40,-105t-42,-113q-5,-22 -5,-32q0,-25 17,-25q9,0 19,3t23,14t27,35t25,59q3,12 5,14t17,2q20,0 20,-10q0,-8 -9,-31t-25,-51t-45,-50t-62,-22q-32,0 -59,21t-28,64q0,17 5,32t43,114q38,101 44,121t7,39q0,24 -17,24l-2,0q-30,0 -55,-33t-38,-84q-1,-1 -2,-3t-1,-3t-2,-2t-3,-1t-4,0t-8,0l-14,0q-6,6 -6,9z" stroke-width="10" id="svg_148"/>
        <path d="m60,749l4,1q5,0 10,0l12,0l28,-24q94,-85 137,-212t43,-264q0,-68 -10,-131t-23,-107t-37,-88t-38,-67t-41,-51t-32,-33t-23,-19q-3,-3 -4,-4l-12,0q-8,0 -11,0t-5,3t-3,9q1,1 11,13q155,161 155,475t-155,475q-10,12 -11,13q0,8 5,11z" stroke-width="10" id="svg_157"/>
        <path d="m701,-940q0,-3 -6,-9l-31,0q-2,2 -28,27t-45,43t-54,61t-62,81t-63,101t-62,125t-55,149t-45,176t-29,203t-12,234q0,711 364,1110q23,25 43,44t33,32t15,13l31,0q6,-6 6,-9q0,-5 -20,-26t-52,-59t-72,-95t-81,-143t-76,-191t-60,-252t-32,-316q-2,-38 -2,-109q0,-389 94,-680t290,-494q11,-12 11,-16z" stroke-width="10" id="svg_154"/>
        <path d="m34,1438q0,8 3,10t13,2l6,0l15,0q2,-2 28,-27t45,-43t54,-61t62,-81t63,-101t62,-124t55,-149t45,-176t29,-203t12,-234q0,-117 -7,-198q-47,-572 -357,-913q-23,-25 -43,-44t-33,-32t-15,-13l-15,0q-13,0 -17,2t-5,10q54,54 106,124q288,383 288,1064q0,202 -26,377t-64,294t-93,224t-100,163t-99,116q-2,2 -4,4t-3,4t-3,3l-2,2z" stroke-width="10" id="svg_147"/>
        <path d="m231,637q-27,0 -32,1t-5,11q0,27 11,33q1,1 130,1q259,0 273,-2q63,-10 105,-45t43,-92q0,-64 -58,-115t-133,-69l-10,-3q64,-9 105,-46t42,-92q0,-73 -72,-141t-177,-77q-7,-1 -211,-1q-200,0 -203,2q-4,3 -4,8q0,7 2,14q5,19 10,21q4,1 15,1l6,0q27,0 60,3q14,3 19,12q3,4 72,278t69,289q0,7 -57,9zm418,-93q0,30 -15,56t-49,34q-7,2 -92,3q-20,0 -42,0t-35,-1l-13,0q-15,-1 -19,-10q-2,-4 -32,-120q0,-3 -1,-6l-31,-126l81,0q81,0 93,2q60,10 107,58t48,110zm-54,-315q0,44 -23,73t-60,34q-6,1 -83,1q-118,0 -119,-1q0,-2 -17,-73t-35,-141l-18,-70q0,-4 12,-4t81,-2q89,0 96,1q62,7 114,58t52,124z" stroke-width="10" id="svg_156"/>
        <path d="m50,252q0,115 67,221t169,168t204,63q90,0 143,-51q9,-10 15,-17t8,-10l1,-3q3,0 27,26q7,6 15,14t16,16t10,11l15,15l6,0q14,0 14,-7q0,-4 -32,-137q-36,-139 -36,-140q-2,-5 -5,-6t-18,-2l-16,0q-6,6 -6,9q0,1 1,7t2,20t1,32q0,71 -32,124t-109,54q-26,0 -56,-7t-72,-24t-83,-56t-73,-93q-32,-57 -51,-133t-19,-124q0,-114 76,-164q48,-34 118,-34q91,0 162,68t94,148q4,13 6,15t16,2q20,0 20,-9q0,-5 -1,-9q-29,-107 -124,-184t-204,-77q-113,0 -191,75t-78,199z" stroke-width="10" id="svg_155"/>
       </defs>
       <g stroke="rgb(68, 68, 68)" id="svg_372" transform="matrix(1 0 0 -1 0 0)" stroke-width="0" fill="rgb(68, 68, 68)">
        <use id="svg_373" xlink:href="#svg_155"/>
        <g id="svg_374">
         <use id="svg_375" x="765" y="0" xlink:href="#svg_154"/>
         <use id="svg_376" y="0" x="1506" xlink:href="#svg_153"/>
         <g id="svg_377">
          <g id="svg_378">
           <rect id="svg_379" y="220" x="2575" height="60" width="625"/>
           <use id="svg_380" y="676" x="2635" xlink:href="#svg_152"/>
           <use id="svg_381" y="-686" x="2635" xlink:href="#svg_149"/>
          </g>
         </g>
         <use id="svg_382" y="0" x="3542" xlink:href="#svg_151"/>
         <g id="svg_383">
          <g id="svg_384">
           <rect id="svg_385" y="220" x="4668" height="60" width="625"/>
           <use id="svg_386" y="676" x="4728" xlink:href="#svg_150"/>
           <use id="svg_387" y="-686" x="4728" xlink:href="#svg_149"/>
          </g>
         </g>
         <use id="svg_388" y="0" x="5579" xlink:href="#svg_148"/>
         <use id="svg_389" y="-1" x="5929" xlink:href="#svg_147"/>
        </g>
       </g>
      </svg>
     </g>
    </svg>
   </g>
  </g>
  <g id="svg_390" class="annotation">
   <g transform="matrix(1.62944 0 0 1.62944 -127.091 -182.223)" id="svg_204" class="annotation-text-g">
    <svg id="svg_391" height="76" width="198" y="325.822427" x="195.635515">
     <rect stroke="rgb(0, 0, 0)" id="svg_392" stroke-width="1px" stroke-opacity="0" fill="rgb(0, 0, 0)" fill-opacity="0" height="75" width="197" y="0.5" x="0.5" class="bg"/>
     <g id="svg_233" class="annotation-math-group">
      <svg id="svg_393" width="15.642ex" y="2" x="1" preserveAspectRatio="xMinYMin meet" height="5.759ex" class="annotation-math" viewBox="0 -1489.3452691183916 6738.777777777778 2478.690538236783" xmlns:xlink="http://www.w3.org/1999/xlink">
       <defs>
        <path d="m34,156q0,114 86,200t189,86q70,0 112,-40t57,-98q6,-29 7,-67l0,-29q49,74 75,166q4,14 6,16t16,3q21,0 21,-8q0,-9 -9,-39t-36,-85t-61,-100l-11,-14l1,-24q2,-56 8,-76t19,-21q14,2 26,11t17,23q2,7 5,8t15,2q20,0 20,-8q0,-6 -6,-19q-12,-24 -35,-38t-44,-15l-7,0q-67,0 -91,72l-3,7l-11,-8q-10,-8 -30,-20t-45,-23t-58,-20t-64,-9q-79,0 -124,50t-45,117zm174,-130q49,0 98,21t73,43l24,22q-2,143 -7,178q-14,115 -92,115q-69,0 -121,-73q-27,-40 -44,-108t-18,-104q0,-49 25,-71t62,-23z" stroke-width="10" id="svg_232"/>
        <path d="m56,347q0,13 14,20l637,0q15,-8 15,-20q0,-11 -14,-19l-318,-1l-318,0q-16,5 -16,20zm0,-194q0,15 16,20l636,0q14,-10 14,-20q0,-13 -15,-20l-637,0q-14,7 -14,20z" stroke-width="10" id="svg_231"/>
        <path stroke-width="10" id="svg_230"/>
        <path d="m213,578l-13,-5q-14,-5 -40,-10t-58,-7l-19,0l0,46l19,0q47,2 87,15t56,24t28,22q2,3 12,3q9,0 17,-6l0,-299l1,-300q7,-7 12,-9t24,-4t62,-2l26,0l0,-46l-11,0q-21,3 -159,3q-136,0 -157,-3l-12,0l0,46l26,0q22,0 38,0t25,1t16,3t8,2t6,5t6,4l0,517z" stroke-width="10" id="svg_229"/>
        <path d="m96,585q56,81 153,81q48,0 96,-26t78,-92q37,-83 37,-228q0,-155 -43,-237q-20,-42 -55,-67t-61,-31t-51,-7q-26,0 -52,6t-61,32t-55,67q-43,82 -43,237q0,174 57,265zm225,12q-30,32 -71,32q-42,0 -72,-32q-25,-26 -33,-72t-8,-192q0,-158 8,-208t36,-79q28,-30 69,-30q40,0 68,30q29,30 36,84t8,203q0,145 -8,191t-33,73z" stroke-width="10" id="svg_228"/>
        <path d="m273,0q-18,3 -127,3q-103,0 -112,-3l-8,0l0,46l16,0q28,0 49,3q8,3 12,11q1,2 1,164l0,161l-71,0l0,46l71,0l0,66l1,67l2,10q19,65 64,94t95,36q1,0 9,0t14,1q41,-3 62,-26t21,-52q0,-23 -14,-37t-37,-14t-37,14t-14,37q0,20 18,40l-4,0q-4,1 -11,1q-28,0 -50,-21t-34,-55q-6,-20 -7,-95l0,-66l111,0l0,-46l-108,0l0,-160q0,-162 1,-164t3,-4t5,-3t5,-3t7,-2t7,-1t9,-1t9,0t10,-1t10,0l31,0l0,-46l-9,0z" stroke-width="10" id="svg_227"/>
        <path d="m27,422q53,4 82,56t32,122l0,15l40,0l0,-184l135,0l0,-46l-135,0l0,-144q1,-125 1,-141t7,-32q14,-39 49,-39q44,0 54,71q1,8 1,46l0,35l40,0l0,-35l0,-12q0,-77 -42,-117q-27,-27 -70,-27q-34,0 -59,12t-38,31t-19,35t-7,32q-1,7 -1,148l0,137l-79,0l0,37l9,0z" stroke-width="10" id="svg_226"/>
        <path d="m164,157q0,-24 -16,-40t-39,-16l-7,0q46,-79 122,-79q70,0 102,60q19,33 19,128q0,103 -27,139q-26,33 -58,33l-6,0q-78,0 -118,-68q-4,-7 -7,-8t-15,-2q-17,0 -19,6q-2,4 -2,175l0,129q0,50 5,50q2,2 4,2q1,0 21,-8t55,-16t75,-8q71,0 136,28q8,4 13,4q8,0 8,-18l0,-13q-82,-97 -205,-97q-31,0 -56,6l-10,2l0,-172q19,14 30,22t36,16t51,8q81,0 137,-65t56,-154q0,-92 -64,-157t-156,-66q-81,0 -130,54t-49,122q0,24 11,38t23,18t23,4q25,0 41,-17t16,-40z" stroke-width="10" id="svg_225"/>
        <path d="m56,237t0,13t14,20l299,0l0,150l1,150q10,13 19,13q13,0 20,-15l0,-298l298,0q15,-8 15,-20t-15,-20l-298,0l0,-298q-8,-14 -18,-14l-2,0l-2,0q-12,0 -18,14l0,298l-299,0q-14,7 -14,20l0,-13z" stroke-width="10" id="svg_224"/>
        <path d="m127,463q-27,0 -42,17t-16,44q0,55 48,98t116,43q35,0 44,-1q74,-12 113,-53t40,-89q0,-52 -34,-101t-94,-71l-3,-2q0,-1 9,-3t29,-9t38,-21q82,-53 82,-140q0,-79 -62,-138t-157,-59q-80,0 -138,43t-58,109q0,28 18,45t45,18q28,0 46,-18t18,-45q0,-11 -3,-20t-7,-16t-11,-12t-12,-8t-10,-4t-8,-3l-4,-1q51,-45 124,-45q55,0 83,53q17,33 17,101l0,20q0,95 -64,127q-15,6 -61,7l-42,1l-3,2q-2,3 -2,16q0,18 8,18q28,0 58,5q34,5 62,42t28,112l0,8q0,57 -35,79q-22,14 -47,14q-32,0 -59,-11t-38,-23t-11,-12l3,0q3,-1 8,-2t10,-5t12,-7t10,-11t8,-15t3,-20q0,-22 -14,-39t-45,-18z" stroke-width="10" id="svg_207"/>
        <path d="m84,237t0,13t14,20l581,0q15,-8 15,-20t-15,-20l-581,0q-14,7 -14,20l0,-13z" stroke-width="10" id="svg_209"/>
        <path d="m287,628q0,7 -57,9q-23,0 -30,1t-7,9q0,8 4,20t7,15q2,1 199,1q167,-1 187,-1t40,-6q72,-17 122,-79t51,-166q0,-156 -107,-280t-252,-148l-14,-2l-194,-1l-111,0l-53,0q-24,0 -31,2t-8,9q0,2 3,14q4,16 8,18t23,3q27,0 60,3q14,3 19,12q3,4 72,278t69,289zm416,-159q0,38 -11,68t-26,47t-37,29t-39,16t-35,7q-2,0 -14,0t-29,0t-33,1l-43,0q-44,0 -50,-10q-2,-4 -73,-288t-71,-287q0,-4 11,-4t77,-1q5,0 19,0t24,-1q126,0 208,82q36,36 59,84t43,127t20,130z" stroke-width="10" id="svg_212"/>
        <path d="m78,60q0,24 17,42t43,18q24,0 42,-16t19,-43q0,-25 -17,-43t-43,-18t-43,17t-18,43z" stroke-width="10" id="svg_223"/>
        <path d="m42,313q0,163 81,258t180,95q69,0 99,-36t30,-80q0,-25 -14,-40t-39,-15q-23,0 -38,14t-15,39q0,44 47,53q-22,22 -62,25q-71,0 -117,-60q-47,-66 -47,-202l1,-4q5,6 8,13q41,60 107,60l4,0q46,0 81,-19q24,-14 48,-40t39,-57q21,-49 21,-107l0,-18q0,-23 -5,-43q-11,-59 -64,-115t-134,-56q-28,0 -54,8t-56,30t-51,59t-36,97t-14,141zm215,84q-30,0 -52,-17t-34,-45t-17,-57t-6,-62q0,-83 12,-119t38,-58q24,-18 53,-18q51,0 78,38q13,18 18,45t5,105q0,80 -5,107t-18,45q-27,36 -72,36z" stroke-width="10" id="svg_222"/>
        <path d="m26,385q-7,7 -7,10q0,4 3,16t5,14q2,5 9,5t51,1l53,0l19,80q3,11 7,29t7,26t6,20t8,17t10,12t14,9t18,2q18,-1 25,-11t7,-19q0,-7 -9,-47t-20,-79l-10,-37q0,-2 50,-2l51,0q7,-7 7,-11q0,-22 -13,-35l-107,0l-36,-145q-39,-160 -39,-172q0,-42 27,-42q35,0 68,34t53,84q2,6 5,7t15,2l4,0q15,0 15,-8q0,-3 -3,-12q-5,-16 -18,-38t-34,-47t-51,-42t-61,-17q-30,0 -57,15t-39,52q-2,8 -2,27l0,18l35,140q35,141 36,142q0,2 -51,2l-51,0z" stroke-width="10" id="svg_221"/>
        <path d="m109,429q-27,0 -43,18t-16,44q0,71 53,123t132,52q91,0 152,-56t62,-145q0,-43 -20,-82t-48,-68t-80,-74q-36,-31 -100,-92l-59,-56l76,-1q157,0 167,5q7,2 24,89l0,3l40,0l0,-3q-1,-3 -13,-91t-15,-92l0,-3l-371,0l0,19l0,12q0,7 6,15t30,35q29,32 50,56q9,10 34,37t34,37t29,33t28,34t23,30t21,32t15,29t13,32t7,30t3,33q0,63 -34,109t-97,46q-33,0 -58,-17t-35,-33t-10,-19q0,-1 5,-1q18,0 37,-14t19,-46q0,-25 -16,-42t-45,-18z" stroke-width="10" id="svg_210"/>
        <path d="m462,0q-18,3 -129,3q-116,0 -134,-3l-9,0l0,46l31,0q20,0 27,0t17,2t14,5t7,8q1,2 1,54l0,50l-259,0l0,46l151,231q153,232 155,233q2,2 21,2l18,0l6,-6l0,-460l92,0l0,-46l-92,0l0,-51q0,-41 0,-48t6,-12q8,-7 57,-8l29,0l0,-46l-9,0zm-169,211l0,334l-219,-333l109,-1l110,0z" stroke-width="10" id="svg_208"/>
        <path d="m55,458q1,2 17,109l16,107q0,2 20,2l20,0l0,-4q0,-10 15,-17t52,-9t169,-2l121,0l0,-39l-68,-93q-9,-12 -30,-40t-27,-37t-21,-32t-20,-36t-14,-37t-13,-46t-8,-54t-6,-68t-3,-82q0,-14 0,-28t-1,-24l0,-9q-4,-17 -19,-29t-34,-12q-11,0 -21,3t-21,19t-11,40q0,158 97,328q20,32 84,121l46,63l-93,0q-174,0 -183,-6q-6,-3 -11,-24t-10,-43l-3,-21l0,-3l-40,0l0,3z" stroke-width="10" id="svg_220"/>
        <path d="m52,289q7,42 54,97t116,56q35,0 64,-18t43,-45q42,63 101,63q37,0 64,-22t28,-59q0,-29 -14,-47t-27,-22t-23,-4q-19,0 -31,11t-12,29q0,46 50,63q-11,13 -40,13q-13,0 -19,-2q-38,-16 -56,-66q-60,-221 -60,-258q0,-28 16,-40t35,-12q37,0 73,33t49,81q3,10 6,11t16,2l4,0q15,0 15,-8q0,-1 -2,-11q-16,-57 -62,-101t-107,-44q-70,0 -106,63q-41,-62 -94,-62l-6,0q-49,0 -70,26t-22,55q0,32 19,52t45,20q43,0 43,-42q0,-20 -12,-35t-23,-20t-13,-5l-3,-1q0,-1 6,-4t16,-7t19,-3q36,0 62,45q9,16 23,68t28,108t16,66q5,27 5,39q0,28 -15,40t-34,12q-40,0 -75,-32t-49,-82q-2,-9 -5,-10t-16,-2l-14,0q-6,6 -6,11z" stroke-width="10" id="svg_219"/>
        <path d="m21,287q0,14 15,48t48,71t74,36q41,0 66,-23t26,-64q-2,-19 -3,-21q0,-3 -16,-46t-33,-97t-16,-86q0,-43 14,-60t42,-18q23,0 43,11t31,23t27,33q0,1 5,20t14,59t19,74q38,150 42,157q13,27 43,27q13,0 21,-7t11,-12t2,-9q0,-13 -49,-210t-56,-216q-28,-83 -97,-132t-138,-50q-45,0 -79,22t-34,66q0,22 7,37t19,22t20,10t17,3q44,0 44,-42q0,-20 -12,-35t-23,-20t-13,-5l-3,-1q2,-5 19,-12t34,-7l8,0q17,0 26,2q33,9 61,38t43,62t23,56t8,30l-6,-4q-6,-4 -19,-11t-26,-12q-20,-5 -39,-5q-46,0 -81,22t-46,71q-1,7 -1,31q0,57 35,149t35,117q0,1 0,2q0,9 0,12t-4,7t-11,4l-4,0q-23,0 -42,-19t-30,-41t-17,-42t-8,-22q-2,-2 -16,-2l-14,0q-6,6 -6,9z" stroke-width="10" id="svg_218"/>
        <path d="m208,74q0,-24 46,-28q18,0 18,-11q0,-1 -2,-13q-3,-14 -6,-18t-13,-4q-2,0 -12,0t-34,1t-64,1q-71,0 -91,-2l-8,0q-7,7 -7,11q2,27 13,35l14,0q70,3 102,50q6,6 181,305t178,303q7,12 24,12l8,0l17,0q6,-9 6,-10l28,-323q28,-323 30,-326q5,-11 65,-11q25,0 25,-10q0,-2 -3,-14q-3,-15 -5,-18t-14,-4q-3,0 -14,0t-39,1t-73,1q-94,0 -123,-2l-12,0q-6,6 -6,9t2,18q4,13 6,16l4,3l20,0q54,3 64,17l-12,150l-238,0l-34,-58q-41,-69 -41,-81zm308,186q0,11 -12,156t-14,146l-27,-43q-16,-27 -63,-107l-90,-152l103,-1q103,0 103,1z" stroke-width="10" id="svg_217"/>
        <path d="m94,250q0,69 10,131t23,107t37,88t38,67t42,52t33,34t25,21l13,0l4,0q14,0 14,-9q0,-3 -17,-21t-41,-53t-49,-86t-42,-138t-17,-193t17,-192t41,-139t49,-86t42,-53t17,-21q0,-9 -15,-9l-3,0l-13,0l-28,24q-94,85 -137,212t-43,264z" stroke-width="10" id="svg_216"/>
        <path d="m184,600q0,24 19,42t44,19q18,0 30,-12t13,-30q0,-23 -20,-42t-44,-20q-15,0 -28,10t-14,33zm-163,-313q0,8 9,31t24,51t44,51t60,22q39,0 65,-23t27,-62q0,-17 -14,-56t-40,-105t-42,-113q-5,-22 -5,-32q0,-25 17,-25q9,0 19,3t23,14t27,35t25,59q3,12 5,14t17,2q20,0 20,-10q0,-8 -9,-31t-25,-51t-45,-50t-62,-22q-32,0 -59,21t-28,64q0,17 5,32t43,114q38,101 44,121t7,39q0,24 -17,24l-2,0q-30,0 -55,-33t-38,-84q-1,-1 -2,-3t-1,-3t-2,-2t-3,-1t-4,0t-8,0l-14,0q-6,6 -6,9z" stroke-width="10" id="svg_206"/>
        <path d="m60,749l4,1q5,0 10,0l12,0l28,-24q94,-85 137,-212t43,-264q0,-68 -10,-131t-23,-107t-37,-88t-38,-67t-41,-51t-32,-33t-23,-19q-3,-3 -4,-4l-12,0q-8,0 -11,0t-5,3t-3,9q1,1 11,13q155,161 155,475t-155,475q-10,12 -11,13q0,8 5,11z" stroke-width="10" id="svg_215"/>
        <path d="m701,-940q0,-3 -6,-9l-31,0q-2,2 -28,27t-45,43t-54,61t-62,81t-63,101t-62,125t-55,149t-45,176t-29,203t-12,234q0,711 364,1110q23,25 43,44t33,32t15,13l31,0q6,-6 6,-9q0,-5 -20,-26t-52,-59t-72,-95t-81,-143t-76,-191t-60,-252t-32,-316q-2,-38 -2,-109q0,-389 94,-680t290,-494q11,-12 11,-16z" stroke-width="10" id="svg_211"/>
        <path d="m34,1438q0,8 3,10t13,2l6,0l15,0q2,-2 28,-27t45,-43t54,-61t62,-81t63,-101t62,-124t55,-149t45,-176t29,-203t12,-234q0,-117 -7,-198q-47,-572 -357,-913q-23,-25 -43,-44t-33,-32t-15,-13l-15,0q-13,0 -17,2t-5,10q54,54 106,124q288,383 288,1064q0,202 -26,377t-64,294t-93,224t-100,163t-99,116q-2,2 -4,4t-3,4t-3,3l-2,2z" stroke-width="10" id="svg_205"/>
        <path d="m231,637q-27,0 -32,1t-5,11q0,27 11,33q1,1 130,1q259,0 273,-2q63,-10 105,-45t43,-92q0,-64 -58,-115t-133,-69l-10,-3q64,-9 105,-46t42,-92q0,-73 -72,-141t-177,-77q-7,-1 -211,-1q-200,0 -203,2q-4,3 -4,8q0,7 2,14q5,19 10,21q4,1 15,1l6,0q27,0 60,3q14,3 19,12q3,4 72,278t69,289q0,7 -57,9zm418,-93q0,30 -15,56t-49,34q-7,2 -92,3q-20,0 -42,0t-35,-1l-13,0q-15,-1 -19,-10q-2,-4 -32,-120q0,-3 -1,-6l-31,-126l81,0q81,0 93,2q60,10 107,58t48,110zm-54,-315q0,44 -23,73t-60,34q-6,1 -83,1q-118,0 -119,-1q0,-2 -17,-73t-35,-141l-18,-70q0,-4 12,-4t81,-2q89,0 96,1q62,7 114,58t52,124z" stroke-width="10" id="svg_214"/>
        <path d="m50,252q0,115 67,221t169,168t204,63q90,0 143,-51q9,-10 15,-17t8,-10l1,-3q3,0 27,26q7,6 15,14t16,16t10,11l15,15l6,0q14,0 14,-7q0,-4 -32,-137q-36,-139 -36,-140q-2,-5 -5,-6t-18,-2l-16,0q-6,6 -6,9q0,1 1,7t2,20t1,32q0,71 -32,124t-109,54q-26,0 -56,-7t-72,-24t-83,-56t-73,-93q-32,-57 -51,-133t-19,-124q0,-114 76,-164q48,-34 118,-34q91,0 162,68t94,148q4,13 6,15t16,2q20,0 20,-9q0,-5 -1,-9q-29,-107 -124,-184t-204,-77q-113,0 -191,75t-78,199z" stroke-width="10" id="svg_213"/>
       </defs>
       <g stroke="rgb(68, 68, 68)" id="svg_394" transform="matrix(1 0 0 -1 0 0)" stroke-width="0" fill="rgb(68, 68, 68)">
        <use id="svg_395" xlink:href="#svg_212"/>
        <g id="svg_396">
         <use id="svg_397" x="833" y="0" xlink:href="#svg_211"/>
         <use id="svg_398" y="0" x="1574" xlink:href="#svg_209"/>
         <g id="svg_399">
          <g id="svg_400">
           <rect id="svg_401" y="220" x="2643" height="60" width="625"/>
           <use id="svg_402" y="676" x="2703" xlink:href="#svg_210"/>
           <use id="svg_403" y="-686" x="2703" xlink:href="#svg_207"/>
          </g>
         </g>
         <use id="svg_404" y="0" x="3610" xlink:href="#svg_209"/>
         <g id="svg_405">
          <g id="svg_406">
           <rect id="svg_407" y="220" x="4736" height="60" width="625"/>
           <use id="svg_408" y="676" x="4796" xlink:href="#svg_208"/>
           <use id="svg_409" y="-686" x="4796" xlink:href="#svg_207"/>
          </g>
         </g>
         <use id="svg_410" y="0" x="5647" xlink:href="#svg_206"/>
         <use id="svg_411" y="-1" x="5997" xlink:href="#svg_205"/>
        </g>
       </g>
      </svg>
     </g>
    </svg>
   </g>
  </g>
 </g>
</svg>