<?xml version="1.0" encoding="UTF-8" standalone="no"?>
<!-- Created with Inkscape (http://www.inkscape.org/) -->

<svg
   xmlns:ns0="http://www.iki.fi/pav/software/textext/"
   xmlns:dc="http://purl.org/dc/elements/1.1/"
   xmlns:cc="http://creativecommons.org/ns#"
   xmlns:rdf="http://www.w3.org/1999/02/22-rdf-syntax-ns#"
   xmlns:svg="http://www.w3.org/2000/svg"
   xmlns="http://www.w3.org/2000/svg"
   xmlns:sodipodi="http://sodipodi.sourceforge.net/DTD/sodipodi-0.dtd"
   xmlns:inkscape="http://www.inkscape.org/namespaces/inkscape"
   width="428.8125"
   height="167.53125"
   id="svg2"
   version="1.1"
   inkscape:version="0.48.3.1 r9886"
   sodipodi:docname="step_one_correct.svg">
  <sodipodi:namedview
     id="base"
     pagecolor="#ffffff"
     bordercolor="#666666"
     borderopacity="1.0"
     inkscape:pageopacity="0.0"
     inkscape:pageshadow="2"
     inkscape:zoom="0.35"
     inkscape:cx="3.5625"
     inkscape:cy="-266.58093"
     inkscape:document-units="px"
     inkscape:current-layer="layer1"
     showgrid="false"
     inkscape:window-width="1098"
     inkscape:window-height="654"
     inkscape:window-x="65"
     inkscape:window-y="24"
     inkscape:window-maximized="0"
     fit-margin-top="0"
     fit-margin-left="0"
     fit-margin-right="0"
     fit-margin-bottom="0"
     showborder="false"
     inkscape:showpageshadow="false" />
  <defs
     id="defs4" />
  <metadata
     id="metadata7">
    <rdf:RDF>
      <cc:Work
         rdf:about="">
        <dc:format>image/svg+xml</dc:format>
        <dc:type
           rdf:resource="http://purl.org/dc/dcmitype/StillImage" />
        <dc:title></dc:title>
      </cc:Work>
    </rdf:RDF>
  </metadata>
  <g
     id="layer1"
     inkscape:groupmode="layer"
     inkscape:label="Layer 1"
     transform="translate(-371.4375,-98.25)">
    <g
       style="font-style:normal;font-variant:normal;font-weight:normal;font-stretch:normal;letter-spacing:normal;word-spacing:normal;text-anchor:start;fill:none;stroke:#000000;stroke-linecap:butt;stroke-linejoin:miter;stroke-miterlimit:10.43299961;stroke-opacity:1;stroke-dasharray:none;stroke-dashoffset:0"
       ns0:preamble="/home/abhinavc/playpen/textext/preamble.ini"
       ns0:text="\\[ \n\\dfrac{d^2 y}{dx^2} = \n\\underbrace{\\dfrac{d}{dt}\\left(\\dfrac{dy}{dx}\\right)\\times \\dfrac{dt}{dx}}_{=\\frac{d}{dx}\\frac{dy}{dx}} \n\\neq \\dfrac{\\left(\\dfrac{d^2y}{dt^2}\\right)}{\\left(\\dfrac{d^2x}{dt^2}\\right)}\n\\]"
       word-spacing="normal"
       letter-spacing="normal"
       font-size-adjust="none"
       font-stretch="normal"
       font-weight="normal"
       font-variant="normal"
       font-style="normal"
       stroke-miterlimit="10.433"
       xml:space="preserve"
       transform="matrix(3,0,0,-3,-600,2250)"
       id="content">
<path
   id="path3792"
   d="m 329.18,702.41 0,0 0,0 0,0.01 0,0 0,0 0,0 0,0.01 0,0 0,0 0,0.01 0,0 0,0.01 -0.01,0 0,0.01 0,0 0,0.01 -0.01,0 0,0.01 0,0 -0.01,0.01 0,0 0,0 -0.01,0 0,0.01 0,0 0,0 -0.01,0 0,0 0,0.01 -0.01,0 0,0 0,0 -0.01,0 0,0 -0.01,0.01 0,0 -0.01,0 0,0 -0.01,0 0,0 -0.01,0 0,0 -0.01,0 0,0 -0.01,0 c -0.15,0 -1.09,-0.09 -1.26,-0.11 -0.08,-0.01 -0.14,-0.06 -0.14,-0.19 0,-0.12 0.09,-0.12 0.24,-0.12 0.47,0 0.5,-0.07 0.5,-0.16 l -0.03,-0.2 -0.6,-2.36 c -0.18,0.37 -0.47,0.64 -0.92,0.64 -1.16,0 -2.39,-1.46 -2.39,-2.91 0,-0.94 0.54,-1.59 1.32,-1.59 l 0.02,0.22 c -0.5,0 -0.64,0.54 -0.64,0.93 0,0.5 0.32,1.72 0.55,2.18 0.31,0.58 0.75,0.95 1.15,0.95 0.65,0 0.79,-0.81 0.79,-0.87 0,-0.06 -0.02,-0.12 -0.03,-0.17 l -0.5,-1.95 c -0.05,-0.18 -0.05,-0.2 -0.2,-0.37 -0.43,-0.54 -0.84,-0.7 -1.12,-0.7 l -0.02,-0.22 c 0.2,0 0.69,0.04 1.29,0.74 0.08,-0.41 0.43,-0.74 0.91,-0.74 0.35,0 0.57,0.23 0.73,0.55 0.17,0.35 0.3,0.96 0.3,0.98 0,0.1 -0.09,0.1 -0.12,0.1 -0.1,0 -0.11,-0.04 -0.14,-0.18 -0.17,-0.65 -0.35,-1.23 -0.75,-1.23 -0.27,0 -0.3,0.25 -0.3,0.45 0,0.24 0.02,0.31 0.06,0.48 z"
   inkscape:connector-curvature="0"
   style="fill:#000000;stroke-width:0" />
<path
   id="path3794"
   d="m 332.75,700.51 h -0.24 c -0.02,-0.15 -0.09,-0.56 -0.18,-0.63 -0.05,-0.04 -0.59,-0.04 -0.69,-0.04 h -1.28 c 0.73,0.64 0.98,0.84 1.39,1.16 0.52,0.41 1,0.84 1,1.51 0,0.84 -0.74,1.35 -1.63,1.35 -0.86,0 -1.45,-0.6 -1.45,-1.24 0,-0.36 0.3,-0.39 0.37,-0.39 0.17,0 0.37,0.11 0.37,0.37 0,0.12 -0.05,0.36 -0.41,0.36 0.21,0.5 0.69,0.65 1.02,0.65 0.69,0 1.05,-0.54 1.05,-1.1 0,-0.61 -0.43,-1.09 -0.65,-1.34 l -1.68,-1.65 c -0.07,-0.07 -0.07,-0.08 -0.07,-0.28 h 2.87 z"
   inkscape:connector-curvature="0"
   style="fill:#000000;stroke-width:0" />
<path
   id="path3796"
   d="m 338.54,699.41 0,0.01 0,0.01 0,0 0,0.01 0.01,0.01 0,0.01 0,0.01 0.01,0.01 0,0.01 0,0.01 0,0.01 0,0 0.01,0.01 0,0.01 0,0 0,0.01 0,0.01 0,0 0,0.01 0,0 0,0.01 0,0.01 0.01,0.01 0,0.01 0,0.01 0,0.01 0,0 0,0.01 0,0 0,0.01 c 0,0.18 -0.14,0.27 -0.29,0.27 -0.1,0 -0.26,-0.06 -0.35,-0.21 -0.02,-0.05 -0.1,-0.36 -0.14,-0.54 -0.07,-0.25 -0.14,-0.52 -0.2,-0.79 l -0.45,-1.79 c -0.04,-0.15 -0.46,-0.84 -1.12,-0.84 -0.51,0 -0.62,0.43 -0.62,0.8 0,0.46 0.17,1.07 0.51,1.95 0.16,0.41 0.2,0.52 0.2,0.71 0,0.45 -0.32,0.82 -0.82,0.82 -0.94,0 -1.31,-1.44 -1.31,-1.53 0,-0.1 0.1,-0.1 0.12,-0.1 0.1,0 0.11,0.02 0.16,0.18 0.27,0.93 0.67,1.23 1,1.23 0.08,0 0.25,0 0.25,-0.32 0,-0.25 -0.1,-0.5 -0.17,-0.69 -0.39,-1.06 -0.57,-1.62 -0.57,-2.09 0,-0.88 0.62,-1.18 1.21,-1.18 0.39,0 0.73,0.17 1,0.45 -0.12,-0.52 -0.24,-1.01 -0.64,-1.53 -0.26,-0.34 -0.64,-0.63 -1.1,-0.63 -0.14,0 -0.58,0.03 -0.75,0.42 0.16,0 0.29,0 0.43,0.12 0.09,0.09 0.19,0.22 0.19,0.4 0,0.31 -0.26,0.35 -0.36,0.35 -0.23,0 -0.56,-0.16 -0.56,-0.64 0,-0.5 0.44,-0.87 1.05,-0.87 1.03,0 2.05,0.9 2.33,2.03 z"
   inkscape:connector-curvature="0"
   style="fill:#000000;stroke-width:0" />
<line
   id="line3798"
   y2="691.38"
   x2="339.17001"
   y1="691.38"
   x1="323.82001"
   style="stroke-width:0.398" />
<path
   id="path3800"
   d="m 328.95,688.84 0,0 0,0 0,0 0,0 0,0.01 0,0 0,0 0,0.01 0,0 0,0 0,0.01 0,0 0,0.01 0,0 -0.01,0.01 0,0 0,0.01 0,0 -0.01,0.01 0,0 -0.01,0.01 0,0 0,0 0,0 -0.01,0 0,0.01 0,0 -0.01,0 0,0 0,0 -0.01,0.01 0,0 0,0 -0.01,0 0,0 -0.01,0 0,0 -0.01,0 0,0.01 -0.01,0 0,0 -0.01,0 0,0 -0.01,0 0,0 c -0.15,0 -1.1,-0.09 -1.27,-0.11 -0.08,-0.01 -0.14,-0.06 -0.14,-0.19 0,-0.12 0.09,-0.12 0.24,-0.12 0.48,0 0.5,-0.07 0.5,-0.17 l -0.03,-0.2 -0.6,-2.35 c -0.18,0.37 -0.47,0.64 -0.91,0.64 -1.17,0 -2.4,-1.47 -2.4,-2.92 0,-0.93 0.55,-1.58 1.32,-1.58 l 0.02,0.21 c -0.49,0 -0.64,0.55 -0.64,0.94 0,0.49 0.32,1.72 0.55,2.17 0.31,0.59 0.76,0.96 1.16,0.96 0.64,0 0.78,-0.82 0.78,-0.88 0,-0.06 -0.02,-0.12 -0.03,-0.17 l -0.49,-1.94 c -0.05,-0.18 -0.05,-0.2 -0.2,-0.37 -0.44,-0.55 -0.85,-0.71 -1.13,-0.71 l -0.02,-0.21 c 0.2,0 0.7,0.03 1.3,0.74 0.08,-0.42 0.42,-0.74 0.9,-0.74 0.35,0 0.58,0.22 0.74,0.54 0.17,0.36 0.3,0.97 0.3,0.98 0,0.1 -0.09,0.1 -0.12,0.1 -0.1,0 -0.11,-0.04 -0.14,-0.17 -0.17,-0.65 -0.35,-1.24 -0.76,-1.24 -0.27,0 -0.3,0.26 -0.3,0.46 0,0.24 0.02,0.31 0.06,0.48 z"
   inkscape:connector-curvature="0"
   style="fill:#000000;stroke-width:0" />
<path
   id="path3802"
   d="m 332.33,685.05 0.01,0.03 0,0.03 0.01,0.03 0.01,0.04 0.01,0.04 0.01,0.04 0.02,0.04 0.01,0.05 0.02,0.04 0.01,0.05 0.02,0.05 0.02,0.05 0.03,0.05 0.02,0.05 0.03,0.05 0.02,0.05 0.03,0.05 0.03,0.04 0.04,0.05 0.03,0.04 0.04,0.05 0.04,0.04 0.04,0.03 0.05,0.04 0.04,0.03 0.05,0.03 0.03,0.01 0.02,0.02 0.03,0.01 0.02,0.01 0.03,0.01 0.03,0 0.03,0.01 0.03,0.01 0.03,0 0.03,0 0.03,0.01 0.04,0 c 0.04,0 0.28,0 0.49,-0.13 -0.28,-0.05 -0.48,-0.3 -0.48,-0.54 0,-0.16 0.11,-0.35 0.38,-0.35 0.22,0 0.54,0.18 0.54,0.58 0,0.52 -0.59,0.66 -0.92,0.66 -0.58,0 -0.93,-0.53 -1.05,-0.76 -0.25,0.65 -0.79,0.76 -1.08,0.76 -1.03,0 -1.6,-1.29 -1.6,-1.54 0,-0.09 0.1,-0.09 0.12,-0.09 0.08,0 0.11,0.02 0.13,0.1 0.34,1.06 1,1.31 1.33,1.31 0.19,0 0.54,-0.09 0.54,-0.67 0,-0.31 -0.17,-0.97 -0.54,-2.36 -0.15,-0.62 -0.5,-1.04 -0.94,-1.04 -0.06,0 -0.29,0 -0.5,0.13 0.25,0.05 0.47,0.26 0.47,0.54 0,0.27 -0.22,0.35 -0.37,0.35 -0.3,0 -0.54,-0.26 -0.54,-0.58 0,-0.46 0.49,-0.65 0.93,-0.65 0.66,0 1.01,0.69 1.04,0.75 0.12,-0.37 0.48,-0.75 1.08,-0.75 1.02,0 1.59,1.28 1.59,1.52 0,0.1 -0.09,0.1 -0.12,0.1 -0.09,0 -0.11,-0.04 -0.13,-0.1 -0.33,-1.07 -1,-1.31 -1.32,-1.31 -0.39,0 -0.55,0.32 -0.55,0.66 0,0.22 0.06,0.44 0.17,0.87 z"
   inkscape:connector-curvature="0"
   style="fill:#000000;stroke-width:0" />
<path
   id="path3804"
   d="m 338.22,686.2 h -0.24 c -0.02,-0.15 -0.09,-0.56 -0.18,-0.63 -0.06,-0.05 -0.59,-0.05 -0.69,-0.05 h -1.28 c 0.73,0.65 0.97,0.85 1.39,1.17 0.52,0.41 1,0.84 1,1.5 0,0.85 -0.74,1.36 -1.63,1.36 -0.86,0 -1.45,-0.6 -1.45,-1.24 0,-0.36 0.3,-0.39 0.37,-0.39 0.17,0 0.37,0.11 0.37,0.36 0,0.13 -0.05,0.37 -0.41,0.37 0.21,0.5 0.69,0.65 1.01,0.65 0.7,0 1.06,-0.54 1.06,-1.11 0,-0.6 -0.43,-1.08 -0.65,-1.33 l -1.68,-1.66 c -0.07,-0.06 -0.07,-0.07 -0.07,-0.27 h 2.87 z"
   inkscape:connector-curvature="0"
   style="fill:#000000;stroke-width:0" />
<path
   id="path3806"
   d="m 349.97,692.14 0.03,0 0.03,0 0.02,0 0.02,0 0.01,0 0.02,0 0.01,0 0.02,0 0.01,0.01 0.01,0 0.02,0 0.01,0.01 0.01,0 0.02,0.01 0.01,0 0.01,0.01 0.01,0 0.01,0.01 0.01,0.01 0.01,0.01 0,0.01 0.01,0.01 0,0 0,0.01 0.01,0 0,0.01 0,0.01 0.01,0 0,0.01 0,0.01 0,0 0,0.01 0,0.01 0,0.01 0.01,0.01 0,0.01 0,0.01 c 0,0.19 -0.19,0.19 -0.33,0.19 h -5.96 c -0.14,0 -0.33,0 -0.33,-0.19 0,-0.2 0.19,-0.2 0.34,-0.2 z"
   inkscape:connector-curvature="0"
   style="fill:#000000;stroke-width:0" />
<path
   id="path3808"
   d="m 349.98,690.21 0.01,0 0.01,0 0.03,0 0.03,0 0.01,0 0.02,0 0.01,0 0.02,0.01 0.01,0 0.01,0 0.02,0 0.01,0.01 0.01,0 0.01,0 0.02,0.01 0.01,0 0.01,0.01 0.01,0.01 0.01,0.01 0.01,0 0.01,0.01 0,0.01 0,0 0.01,0.01 0,0 0,0.01 0.01,0.01 0,0 0,0.01 0.01,0.01 0,0 0,0.01 0,0.01 0,0 0,0.01 0,0.01 0.01,0.01 0,0.01 0,0.01 c 0,0.2 -0.19,0.2 -0.34,0.2 h -5.94 c -0.15,0 -0.34,0 -0.34,-0.2 0,-0.2 0.19,-0.2 0.33,-0.2 z"
   inkscape:connector-curvature="0"
   style="fill:#000000;stroke-width:0" />
<path
   id="path3810"
   d="m 361.78,702.41 0,0 0,0 0,0.01 0,0 0,0 0,0 0,0.01 0,0 -0.01,0 0,0.01 0,0 0,0.01 0,0 0,0.01 0,0 -0.01,0.01 0,0 0,0.01 -0.01,0 0,0.01 0,0 -0.01,0 0,0 0,0.01 0,0 -0.01,0 0,0 0,0 -0.01,0.01 0,0 0,0 -0.01,0 0,0 -0.01,0 0,0.01 0,0 -0.01,0 0,0 -0.01,0 0,0 -0.01,0 0,0 -0.01,0 -0.01,0 0,0 c -0.15,0 -1.1,-0.09 -1.27,-0.11 -0.08,-0.01 -0.14,-0.06 -0.14,-0.19 0,-0.12 0.09,-0.12 0.24,-0.12 0.48,0 0.5,-0.07 0.5,-0.16 l -0.03,-0.2 -0.6,-2.36 c -0.18,0.37 -0.46,0.64 -0.91,0.64 -1.17,0 -2.4,-1.46 -2.4,-2.91 0,-0.94 0.55,-1.59 1.32,-1.59 l 0.02,0.22 c -0.49,0 -0.63,0.54 -0.63,0.93 0,0.5 0.32,1.72 0.55,2.18 0.3,0.58 0.75,0.95 1.15,0.95 0.65,0 0.78,-0.81 0.78,-0.87 0,-0.06 -0.02,-0.12 -0.03,-0.17 l -0.49,-1.95 c -0.05,-0.18 -0.05,-0.2 -0.2,-0.37 -0.44,-0.54 -0.85,-0.7 -1.13,-0.7 l -0.02,-0.22 c 0.2,0 0.7,0.04 1.3,0.74 0.08,-0.41 0.42,-0.74 0.9,-0.74 0.35,0 0.58,0.23 0.74,0.55 0.17,0.35 0.3,0.96 0.3,0.98 0,0.1 -0.09,0.1 -0.12,0.1 -0.1,0 -0.11,-0.04 -0.14,-0.18 -0.17,-0.65 -0.35,-1.23 -0.76,-1.23 -0.27,0 -0.3,0.26 -0.3,0.45 0,0.24 0.02,0.31 0.06,0.48 z"
   inkscape:connector-curvature="0"
   style="fill:#000000;stroke-width:0" />
<line
   id="line3812"
   y2="691.38"
   x2="363.63"
   y1="691.38"
   x1="354.85001"
   style="stroke-width:0.398" />
<path
   id="path3814"
   d="m 359.98,688.84 0,0 0,0 0,0 0,0 0,0.01 0,0 0,0 0,0.01 0,0 0,0 0,0.01 -0.01,0 0,0.01 0,0 0,0.01 0,0 -0.01,0.01 0,0 0,0.01 -0.01,0 0,0.01 -0.01,0 0,0 0,0 0,0 -0.01,0.01 0,0 0,0 -0.01,0 0,0 0,0.01 -0.01,0 0,0 0,0 -0.01,0 0,0 -0.01,0 0,0 -0.01,0.01 0,0 -0.01,0 0,0 -0.01,0 -0.01,0 0,0 c -0.15,0 -1.09,-0.09 -1.26,-0.11 -0.08,-0.01 -0.14,-0.06 -0.14,-0.19 0,-0.12 0.09,-0.12 0.23,-0.12 0.48,0 0.5,-0.07 0.5,-0.17 l -0.03,-0.2 -0.59,-2.35 c -0.18,0.37 -0.47,0.64 -0.92,0.64 -1.16,0 -2.4,-1.47 -2.4,-2.92 0,-0.93 0.55,-1.58 1.33,-1.58 l 0.02,0.21 c -0.5,0 -0.64,0.55 -0.64,0.94 0,0.49 0.32,1.72 0.55,2.17 0.3,0.59 0.75,0.96 1.15,0.96 0.65,0 0.79,-0.82 0.79,-0.88 0,-0.06 -0.02,-0.12 -0.03,-0.17 l -0.5,-1.94 c -0.05,-0.18 -0.05,-0.2 -0.2,-0.37 -0.44,-0.55 -0.85,-0.71 -1.12,-0.71 l -0.02,-0.21 c 0.2,0 0.69,0.03 1.29,0.74 0.08,-0.42 0.43,-0.74 0.91,-0.74 0.34,0 0.57,0.22 0.73,0.54 0.17,0.36 0.3,0.97 0.3,0.98 0,0.1 -0.09,0.1 -0.12,0.1 -0.1,0 -0.11,-0.04 -0.14,-0.17 -0.17,-0.65 -0.35,-1.24 -0.75,-1.24 -0.27,0 -0.3,0.26 -0.3,0.46 0,0.24 0.02,0.31 0.06,0.48 z"
   inkscape:connector-curvature="0"
   style="fill:#000000;stroke-width:0" />
<path
   id="path3816"
   d="m 362.08,686.03 h 0.94 c 0.19,0 0.29,0 0.29,0.2 0,0.11 -0.1,0.11 -0.27,0.11 h -0.88 c 0.36,1.41 0.41,1.61 0.41,1.66 0,0.17 -0.12,0.27 -0.29,0.27 -0.03,0 -0.31,-0.01 -0.4,-0.36 l -0.39,-1.57 h -0.93 c -0.2,0 -0.3,0 -0.3,-0.19 0,-0.12 0.08,-0.12 0.28,-0.12 h 0.87 c -0.71,-2.82 -0.75,-2.99 -0.75,-3.17 0,-0.54 0.38,-0.91 0.91,-0.91 1.02,0 1.58,1.45 1.58,1.52 0,0.1 -0.07,0.1 -0.11,0.1 -0.09,0 -0.1,-0.03 -0.15,-0.14 -0.43,-1.03 -0.96,-1.27 -1.3,-1.27 -0.21,0 -0.31,0.13 -0.31,0.46 0,0.24 0.02,0.31 0.06,0.48 z"
   inkscape:connector-curvature="0"
   style="fill:#000000;stroke-width:0" />
<path
   id="path3818"
   d="m 373.45,679.6 0,0 0,0.01 0,0 0,0.01 0,0 0,0 -0.01,0 0,0.01 0,0 0,0 0,0.01 0,0 0,0 0,0 0,0.01 -0.01,0 0,0 0,0.01 0,0 -0.01,0.01 0,0 0,0.01 -0.01,0.01 0,0 c -0.37,0.37 -1.04,1.03 -1.7,2.11 -1.6,2.56 -2.33,5.79 -2.33,9.61 0,2.68 0.36,6.12 2,9.08 0.78,1.41 1.6,2.23 2.04,2.67 0.03,0.02 0.03,0.04 0.03,0.07 0,0.1 -0.07,0.1 -0.21,0.1 -0.14,0 -0.16,0 -0.31,-0.15 -3.33,-3.02 -4.38,-7.58 -4.38,-11.76 0,-3.9 0.9,-7.83 3.43,-10.81 0.19,-0.22 0.57,-0.63 0.98,-0.99 0.12,-0.12 0.14,-0.12 0.28,-0.12 0.14,0 0.21,0 0.21,0.1 z"
   inkscape:connector-curvature="0"
   style="fill:#000000;stroke-width:0" />
<path
   id="path3820"
   d="m 380.37,702.41 0,0 0,0 0,0.01 0,0 0,0 0,0 0,0.01 0,0 0,0 0,0.01 0,0 0,0.01 0,0 -0.01,0.01 0,0 0,0.01 0,0 -0.01,0.01 0,0 0,0.01 -0.01,0 0,0 0,0 -0.01,0.01 0,0 0,0 -0.01,0 0,0 0,0.01 -0.01,0 0,0 0,0 -0.01,0 0,0 -0.01,0.01 0,0 0,0 -0.01,0 0,0 -0.01,0 0,0 -0.01,0 -0.01,0 0,0 -0.01,0 c -0.15,0 -1.09,-0.09 -1.26,-0.11 -0.08,-0.01 -0.14,-0.06 -0.14,-0.19 0,-0.12 0.09,-0.12 0.24,-0.12 0.48,0 0.5,-0.07 0.5,-0.16 l -0.03,-0.2 -0.6,-2.36 c -0.18,0.37 -0.47,0.64 -0.91,0.64 -1.17,0 -2.4,-1.46 -2.4,-2.91 0,-0.94 0.54,-1.59 1.32,-1.59 l 0.02,0.22 c -0.5,0 -0.64,0.54 -0.64,0.93 0,0.5 0.32,1.72 0.55,2.18 0.31,0.58 0.76,0.95 1.16,0.95 0.64,0 0.78,-0.81 0.78,-0.87 0,-0.06 -0.02,-0.12 -0.03,-0.17 l -0.5,-1.95 c -0.05,-0.18 -0.05,-0.2 -0.2,-0.37 -0.43,-0.54 -0.84,-0.7 -1.12,-0.7 l -0.02,-0.22 c 0.2,0 0.7,0.04 1.29,0.74 0.08,-0.41 0.43,-0.74 0.91,-0.74 0.35,0 0.58,0.23 0.73,0.55 0.17,0.35 0.3,0.96 0.3,0.98 0,0.1 -0.09,0.1 -0.12,0.1 -0.09,0 -0.11,-0.04 -0.14,-0.18 -0.16,-0.65 -0.34,-1.23 -0.75,-1.23 -0.27,0 -0.3,0.26 -0.3,0.45 0,0.24 0.02,0.31 0.06,0.48 z"
   inkscape:connector-curvature="0"
   style="fill:#000000;stroke-width:0" />
<path
   id="path3822"
   d="m 385.26,699.41 0,0.01 0,0.01 0.01,0 0,0.01 0,0.01 0,0.01 0.01,0.01 0,0.01 0,0.01 0,0.01 0.01,0.01 0,0 0,0.01 0,0.01 0,0 0,0.01 0,0.01 0,0 0.01,0.01 0,0 0,0.01 0,0.01 0,0.01 0,0.01 0,0.01 0,0.01 0,0 0,0.01 0,0 0,0.01 c 0,0.18 -0.14,0.27 -0.29,0.27 -0.1,0 -0.26,-0.06 -0.35,-0.21 -0.02,-0.05 -0.1,-0.36 -0.14,-0.54 -0.07,-0.25 -0.14,-0.52 -0.19,-0.79 l -0.45,-1.79 c -0.04,-0.15 -0.47,-0.84 -1.13,-0.84 -0.51,0 -0.61,0.43 -0.61,0.8 0,0.46 0.16,1.07 0.5,1.95 0.16,0.41 0.2,0.52 0.2,0.71 0,0.45 -0.32,0.82 -0.81,0.82 -0.95,0 -1.32,-1.44 -1.32,-1.53 0,-0.1 0.1,-0.1 0.12,-0.1 0.1,0 0.11,0.02 0.16,0.18 0.27,0.93 0.67,1.23 1.01,1.23 0.08,0 0.24,0 0.24,-0.32 0,-0.25 -0.09,-0.5 -0.16,-0.69 -0.4,-1.06 -0.58,-1.62 -0.58,-2.09 0,-0.88 0.63,-1.18 1.21,-1.18 0.39,0 0.73,0.17 1.01,0.45 -0.13,-0.52 -0.25,-1.01 -0.65,-1.53 -0.26,-0.34 -0.64,-0.63 -1.09,-0.63 -0.14,0 -0.59,0.03 -0.76,0.42 0.16,0 0.29,0 0.43,0.12 0.1,0.09 0.2,0.22 0.2,0.4 0,0.31 -0.27,0.35 -0.37,0.35 -0.23,0 -0.56,-0.16 -0.56,-0.64 0,-0.5 0.44,-0.87 1.06,-0.87 1.02,0 2.05,0.91 2.32,2.03 z"
   inkscape:connector-curvature="0"
   style="fill:#000000;stroke-width:0" />
<line
   id="line3824"
   y2="691.38"
   x2="385.89001"
   y1="691.38"
   x1="375.01001"
   style="stroke-width:0.398" />
<path
   id="path3826"
   d="m 380.15,688.84 0,0 0,0 0,0 0,0 0,0.01 0,0 0,0 0,0.01 -0.01,0 0,0 0,0.01 0,0 0,0.01 0,0 0,0.01 -0.01,0 0,0.01 0,0 -0.01,0.01 0,0 0,0.01 -0.01,0 0,0 0,0 -0.01,0 0,0.01 0,0 0,0 -0.01,0 0,0 0,0.01 -0.01,0 0,0 -0.01,0 0,0 -0.01,0 0,0 0,0 -0.01,0.01 0,0 -0.01,0 -0.01,0 0,0 -0.01,0 0,0 c -0.15,0 -1.1,-0.09 -1.27,-0.11 -0.08,-0.01 -0.14,-0.06 -0.14,-0.19 0,-0.12 0.09,-0.12 0.24,-0.12 0.48,0 0.5,-0.07 0.5,-0.17 l -0.03,-0.2 -0.6,-2.35 c -0.17,0.37 -0.46,0.64 -0.91,0.64 -1.17,0 -2.4,-1.47 -2.4,-2.92 0,-0.93 0.55,-1.58 1.32,-1.58 l 0.02,0.21 c -0.49,0 -0.63,0.55 -0.63,0.94 0,0.49 0.32,1.72 0.55,2.17 0.3,0.59 0.75,0.96 1.15,0.96 0.64,0 0.79,-0.82 0.79,-0.88 0,-0.06 -0.03,-0.12 -0.03,-0.17 l -0.5,-1.94 c -0.05,-0.18 -0.05,-0.2 -0.2,-0.37 -0.44,-0.55 -0.85,-0.71 -1.13,-0.71 l -0.02,-0.21 c 0.2,0 0.7,0.03 1.3,0.74 0.08,-0.42 0.42,-0.74 0.9,-0.74 0.35,0 0.58,0.22 0.74,0.54 0.17,0.36 0.3,0.97 0.3,0.98 0,0.1 -0.09,0.1 -0.12,0.1 -0.1,0 -0.11,-0.04 -0.14,-0.17 -0.17,-0.65 -0.35,-1.24 -0.76,-1.24 -0.27,0 -0.3,0.26 -0.3,0.46 0,0.24 0.02,0.31 0.06,0.48 z"
   inkscape:connector-curvature="0"
   style="fill:#000000;stroke-width:0" />
<path
   id="path3828"
   d="m 383.52,685.05 0.01,0.03 0.01,0.03 0,0.03 0.01,0.04 0.01,0.04 0.02,0.04 0.01,0.04 0.01,0.05 0.02,0.04 0.02,0.05 0.02,0.05 0.02,0.05 0.02,0.05 0.02,0.05 0.03,0.05 0.03,0.05 0.02,0.05 0.04,0.04 0.03,0.05 0.03,0.04 0.04,0.05 0.04,0.04 0.04,0.03 0.05,0.04 0.04,0.03 0.05,0.03 0.03,0.01 0.02,0.02 0.03,0.01 0.03,0.01 0.02,0.01 0.03,0 0.03,0.01 0.03,0.01 0.03,0 0.03,0 0.03,0.01 0.04,0 c 0.05,0 0.29,0 0.49,-0.13 -0.27,-0.05 -0.47,-0.3 -0.47,-0.54 0,-0.16 0.11,-0.35 0.37,-0.35 0.22,0 0.54,0.18 0.54,0.58 0,0.52 -0.58,0.66 -0.92,0.66 -0.58,0 -0.93,-0.53 -1.05,-0.76 -0.25,0.65 -0.78,0.76 -1.07,0.76 -1.04,0 -1.6,-1.29 -1.6,-1.54 0,-0.09 0.09,-0.09 0.12,-0.09 0.07,0 0.1,0.02 0.12,0.1 0.34,1.06 1,1.31 1.34,1.31 0.19,0 0.54,-0.09 0.54,-0.67 0,-0.31 -0.18,-0.97 -0.54,-2.36 -0.16,-0.62 -0.51,-1.04 -0.95,-1.04 -0.06,0 -0.29,0 -0.5,0.13 0.25,0.05 0.47,0.26 0.47,0.54 0,0.27 -0.22,0.35 -0.37,0.35 -0.29,0 -0.54,-0.26 -0.54,-0.58 0,-0.46 0.49,-0.65 0.93,-0.65 0.66,0 1.02,0.69 1.05,0.75 0.12,-0.37 0.47,-0.75 1.07,-0.75 1.03,0 1.59,1.28 1.59,1.52 0,0.1 -0.09,0.1 -0.12,0.1 -0.09,0 -0.11,-0.04 -0.12,-0.1 -0.33,-1.07 -1.01,-1.31 -1.33,-1.31 -0.39,0 -0.55,0.32 -0.55,0.66 0,0.22 0.06,0.44 0.17,0.87 z"
   inkscape:connector-curvature="0"
   style="fill:#000000;stroke-width:0" />
<path
   id="path3830"
   d="m 392.33,691.41 -0.01,0.74 -0.03,0.73 -0.06,0.73 -0.08,0.72 -0.1,0.72 -0.14,0.72 -0.15,0.7 -0.19,0.7 -0.22,0.68 -0.12,0.34 -0.13,0.34 -0.13,0.33 -0.15,0.32 -0.15,0.33 -0.16,0.32 -0.17,0.31 -0.18,0.32 -0.18,0.3 -0.2,0.3 -0.2,0.3 -0.22,0.29 -0.22,0.29 -0.23,0.28 c -0.2,0.23 -0.58,0.64 -0.99,0.99 -0.12,0.12 -0.14,0.12 -0.28,0.12 -0.11,0 -0.2,0 -0.2,-0.1 0,-0.04 0.04,-0.07 0.06,-0.09 0.34,-0.36 1.01,-1.03 1.68,-2.1 1.6,-2.56 2.33,-5.79 2.33,-9.62 0,-2.67 -0.36,-6.12 -2,-9.08 -0.79,-1.41 -1.62,-2.23 -2.03,-2.65 -0.02,-0.03 -0.04,-0.06 -0.04,-0.09 0,-0.1 0.09,-0.1 0.2,-0.1 0.14,0 0.16,0 0.31,0.15 3.34,3.03 4.38,7.58 4.38,11.76 z"
   inkscape:connector-curvature="0"
   style="fill:#000000;stroke-width:0" />
<path
   id="path3832"
   d="m 400.51,691.65 -1.99,1.98 c -0.12,0.12 -0.14,0.14 -0.22,0.14 -0.1,0 -0.2,-0.09 -0.2,-0.2 0,-0.07 0.02,-0.09 0.13,-0.2 l 1.99,-2 -1.99,-1.99 c -0.11,-0.11 -0.13,-0.13 -0.13,-0.2 0,-0.11 0.1,-0.2 0.2,-0.2 0.08,0 0.1,0.02 0.22,0.14 l 1.97,1.97 2.06,-2.05 c 0.03,-0.01 0.09,-0.06 0.15,-0.06 0.12,0 0.2,0.09 0.2,0.2 0,0.02 0,0.06 -0.03,0.1 -0.01,0.02 -1.59,1.58 -2.09,2.09 l 1.83,1.82 c 0.04,0.06 0.19,0.19 0.24,0.25 0.01,0.02 0.05,0.06 0.05,0.13 0,0.11 -0.08,0.2 -0.2,0.2 -0.08,0 -0.12,-0.04 -0.22,-0.15 z"
   inkscape:connector-curvature="0"
   style="fill:#000000;stroke-width:0" />
<path
   id="path3834"
   d="m 413.98,702.41 0,0 0,0 -0.01,0.01 0,0 0,0 0,0 0,0.01 0,0 0,0 0,0.01 0,0 0,0.01 0,0 0,0.01 -0.01,0 0,0.01 0,0 0,0.01 -0.01,0 0,0.01 -0.01,0 0,0 0,0 0,0.01 -0.01,0 0,0 0,0 -0.01,0 0,0.01 0,0 -0.01,0 0,0 0,0 -0.01,0 0,0.01 -0.01,0 0,0 -0.01,0 0,0 -0.01,0 0,0 -0.01,0 0,0 -0.01,0 0,0 c -0.15,0 -1.1,-0.09 -1.27,-0.11 -0.08,-0.01 -0.14,-0.06 -0.14,-0.19 0,-0.12 0.09,-0.12 0.24,-0.12 0.48,0 0.5,-0.07 0.5,-0.16 l -0.03,-0.2 -0.6,-2.36 c -0.18,0.37 -0.47,0.64 -0.91,0.64 -1.17,0 -2.4,-1.46 -2.4,-2.91 0,-0.94 0.55,-1.59 1.32,-1.59 l 0.02,0.22 c -0.5,0 -0.63,0.54 -0.63,0.93 0,0.5 0.31,1.72 0.54,2.18 0.31,0.58 0.76,0.95 1.16,0.95 0.64,0 0.78,-0.81 0.78,-0.87 0,-0.06 -0.02,-0.12 -0.03,-0.17 l -0.5,-1.95 c -0.04,-0.18 -0.04,-0.2 -0.19,-0.37 -0.44,-0.54 -0.85,-0.7 -1.13,-0.7 l -0.02,-0.22 c 0.2,0 0.7,0.04 1.3,0.74 0.07,-0.41 0.42,-0.74 0.9,-0.74 0.35,0 0.58,0.23 0.74,0.55 0.17,0.35 0.3,0.96 0.3,0.98 0,0.1 -0.09,0.1 -0.12,0.1 -0.1,0 -0.11,-0.04 -0.14,-0.18 -0.17,-0.65 -0.35,-1.23 -0.76,-1.23 -0.27,0 -0.3,0.26 -0.3,0.45 0,0.24 0.02,0.31 0.06,0.48 z"
   inkscape:connector-curvature="0"
   style="fill:#000000;stroke-width:0" />
<path
   id="path3836"
   d="m 416.08,699.6 h 0.93 c 0.2,0 0.3,0 0.3,0.2 0,0.11 -0.1,0.11 -0.28,0.11 h -0.87 c 0.35,1.41 0.4,1.61 0.4,1.67 0,0.17 -0.12,0.27 -0.29,0.27 -0.03,0 -0.3,-0.01 -0.39,-0.36 l -0.39,-1.58 h -0.94 c -0.19,0 -0.29,0 -0.29,-0.19 0,-0.12 0.07,-0.12 0.27,-0.12 h 0.88 c -0.72,-2.82 -0.76,-2.99 -0.76,-3.17 0,-0.53 0.38,-0.91 0.92,-0.91 1.01,0 1.58,1.45 1.58,1.53 0,0.1 -0.08,0.1 -0.12,0.1 -0.09,0 -0.1,-0.03 -0.15,-0.14 -0.43,-1.03 -0.95,-1.27 -1.29,-1.27 -0.21,0 -0.31,0.13 -0.31,0.45 0,0.24 0.02,0.31 0.06,0.48 z"
   inkscape:connector-curvature="0"
   style="fill:#000000;stroke-width:0" />
<line
   id="line3838"
   y2="691.38"
   x2="418.67001"
   y1="691.38"
   x1="407.79001"
   style="stroke-width:0.398" />
<path
   id="path3840"
   d="m 412.93,688.84 0,0 0,0 0,0 0,0 0,0.01 0,0 0,0 0,0.01 -0.01,0 0,0 0,0.01 0,0 0,0.01 0,0 0,0.01 -0.01,0 0,0.01 0,0 -0.01,0.01 0,0 0,0.01 -0.01,0 0,0 0,0 -0.01,0 0,0.01 0,0 0,0 -0.01,0 0,0 0,0.01 -0.01,0 0,0 -0.01,0 0,0 -0.01,0 0,0 0,0 -0.01,0.01 0,0 -0.01,0 -0.01,0 0,0 -0.01,0 0,0 c -0.15,0 -1.1,-0.09 -1.27,-0.11 -0.08,-0.01 -0.14,-0.06 -0.14,-0.19 0,-0.12 0.09,-0.12 0.24,-0.12 0.48,0 0.5,-0.07 0.5,-0.17 l -0.03,-0.2 -0.6,-2.35 c -0.17,0.37 -0.46,0.64 -0.91,0.64 -1.17,0 -2.4,-1.47 -2.4,-2.92 0,-0.93 0.55,-1.58 1.32,-1.58 l 0.02,0.21 c -0.49,0 -0.63,0.55 -0.63,0.94 0,0.49 0.32,1.72 0.55,2.17 0.3,0.59 0.75,0.96 1.15,0.96 0.64,0 0.79,-0.82 0.79,-0.88 0,-0.06 -0.03,-0.12 -0.03,-0.17 l -0.5,-1.94 c -0.05,-0.18 -0.05,-0.2 -0.2,-0.37 -0.44,-0.55 -0.85,-0.71 -1.13,-0.71 l -0.02,-0.21 c 0.2,0 0.7,0.03 1.3,0.74 0.08,-0.42 0.42,-0.74 0.9,-0.74 0.35,0 0.58,0.22 0.74,0.54 0.17,0.36 0.3,0.97 0.3,0.98 0,0.1 -0.09,0.1 -0.12,0.1 -0.1,0 -0.11,-0.04 -0.14,-0.17 -0.17,-0.65 -0.35,-1.24 -0.76,-1.24 -0.27,0 -0.3,0.26 -0.3,0.46 0,0.24 0.02,0.31 0.06,0.48 z"
   inkscape:connector-curvature="0"
   style="fill:#000000;stroke-width:0" />
<path
   id="path3842"
   d="m 416.3,685.05 0.01,0.03 0.01,0.03 0,0.03 0.01,0.04 0.01,0.04 0.02,0.04 0.01,0.04 0.01,0.05 0.02,0.04 0.02,0.05 0.02,0.05 0.02,0.05 0.02,0.05 0.02,0.05 0.03,0.05 0.03,0.05 0.02,0.05 0.04,0.04 0.03,0.05 0.03,0.04 0.04,0.05 0.04,0.04 0.04,0.03 0.05,0.04 0.04,0.03 0.05,0.03 0.03,0.01 0.02,0.02 0.03,0.01 0.03,0.01 0.02,0.01 0.03,0 0.03,0.01 0.03,0.01 0.03,0 0.03,0 0.03,0.01 0.04,0 c 0.05,0 0.29,0 0.49,-0.13 -0.27,-0.05 -0.47,-0.3 -0.47,-0.54 0,-0.16 0.11,-0.35 0.37,-0.35 0.22,0 0.54,0.18 0.54,0.58 0,0.52 -0.58,0.66 -0.92,0.66 -0.58,0 -0.93,-0.53 -1.05,-0.76 -0.25,0.65 -0.78,0.76 -1.07,0.76 -1.04,0 -1.6,-1.29 -1.6,-1.54 0,-0.09 0.09,-0.09 0.12,-0.09 0.07,0 0.1,0.02 0.12,0.1 0.34,1.06 1,1.31 1.34,1.31 0.19,0 0.54,-0.09 0.54,-0.67 0,-0.31 -0.18,-0.97 -0.54,-2.36 -0.16,-0.62 -0.51,-1.04 -0.95,-1.04 -0.06,0 -0.29,0 -0.5,0.13 0.25,0.05 0.47,0.26 0.47,0.54 0,0.27 -0.22,0.35 -0.37,0.35 -0.29,0 -0.54,-0.26 -0.54,-0.58 0,-0.46 0.49,-0.65 0.93,-0.65 0.66,0 1.02,0.69 1.05,0.75 0.12,-0.37 0.47,-0.75 1.07,-0.75 1.03,0 1.59,1.28 1.59,1.52 0,0.1 -0.09,0.1 -0.12,0.1 -0.09,0 -0.11,-0.04 -0.12,-0.1 -0.33,-1.07 -1.01,-1.31 -1.33,-1.31 -0.39,0 -0.55,0.32 -0.55,0.66 0,0.22 0.06,0.44 0.17,0.87 z"
   inkscape:connector-curvature="0"
   style="fill:#000000;stroke-width:0" />
<path
   id="path3844"
   d="m 358.23,676.15 0,0.01 0,0.01 0,0.01 0,0.01 0,0.01 0,0.01 0,0.01 0,0.01 0,0.01 0,0.01 0,0.01 0,0 -0.01,0.02 0,0.01 0,0.02 0,0.01 0,0.01 0,0.01 0,0.01 -0.01,0.01 0,0.01 0,0.01 0,0 -0.01,0.01 0,0.01 -0.01,0 0,0.01 -0.01,0 -0.01,0.01 0,0 -0.01,0 -0.01,0 -0.01,0.01 -0.01,0 -0.01,0 -0.01,0 -0.01,0 -0.01,0 c -0.61,0.01 -1.6,0.09 -2.49,0.53 -1.08,0.53 -1.48,1.16 -1.73,1.55 -0.03,0.05 -0.09,0.05 -0.22,0.05 -0.23,0 -0.24,-0.01 -0.24,-0.26 v -0.16 c 1.35,-2.43 3.59,-2.9 4.61,-2.9 0.21,0 0.21,0.01 0.21,0.28 z"
   inkscape:connector-curvature="0"
   style="fill:#000000;stroke-width:0" />
<polygon
   id="polygon3846"
   points="358.13,676.43 358.13,675.24 382.27,675.24 382.27,676.43 "
   style="fill:#000000;fill-rule:nonzero;stroke-width:0" />
<path
   id="path3848"
   d="m 386.99,673.53 -0.13,0.22 -0.13,0.21 -0.14,0.2 -0.14,0.19 -0.15,0.18 -0.15,0.17 -0.15,0.16 -0.16,0.15 -0.15,0.14 -0.16,0.13 -0.16,0.12 -0.16,0.12 -0.17,0.1 -0.16,0.1 -0.16,0.09 -0.16,0.08 -0.16,0.08 -0.16,0.07 -0.15,0.06 -0.16,0.05 -0.15,0.05 -0.15,0.05 -0.15,0.04 -0.14,0.03 -0.14,0.03 -0.13,0.02 -0.13,0.02 -0.12,0.02 -0.12,0.01 -0.11,0.01 -0.11,0 -0.1,0 c -0.2,0 -0.2,-0.01 -0.2,-0.28 v -0.63 c 0,-0.23 0,-0.28 0.14,-0.28 0.6,-0.01 1.59,-0.09 2.48,-0.53 1.08,-0.53 1.49,-1.16 1.73,-1.55 0.03,-0.05 0.09,-0.05 0.22,-0.05 0.23,0 0.24,0.01 0.24,0.26 z"
   inkscape:connector-curvature="0"
   style="fill:#000000;stroke-width:0" />
<path
   id="path3850"
   d="m 391.33,676.15 0,0.02 0,0.01 0,0.01 0,0.01 0,0.01 0,0.01 0,0.01 0,0.01 0,0.01 0,0.01 0,0.01 0,0.01 0,0.01 0,0 0,0.01 0,0.01 0,0.01 0,0 0,0.01 0,0.01 0,0 0,0.01 0,0 -0.01,0.01 0,0 0,0.01 0,0 0,0.01 -0.01,0.01 0,0 -0.01,0.01 0,0 -0.01,0.01 -0.01,0 0,0.01 -0.01,0 -0.01,0 -0.01,0.01 -0.01,0 -0.01,0 -0.01,0 0,0 -0.01,0 -0.01,0 -0.01,0 0,0 -0.01,0 -0.01,0 -0.01,0 -0.01,0 -0.01,0 0,0 -0.01,0 c -1.02,0 -3.26,-0.48 -4.61,-2.9 v -0.16 c 0,-0.25 0.01,-0.26 0.24,-0.26 0.19,0 0.2,0.01 0.25,0.08 0.81,1.3 2.19,2.01 4.2,2.05 0.12,0 0.12,0.07 0.12,0.28 z"
   inkscape:connector-curvature="0"
   style="fill:#000000;stroke-width:0" />
<polygon
   id="polygon3852"
   points="391.24,676.43 391.24,675.24 415.39,675.24 415.39,676.43 "
   style="fill:#000000;fill-rule:nonzero;stroke-width:0" />
<path
   id="path3854"
   d="m 420.1,678.3 0,0.01 0,0.01 0,0.01 0,0.01 0,0.01 0,0.01 0,0.01 0,0.01 0,0.01 0,0.01 0,0.01 0,0 0,0.01 0,0.01 0,0.01 0,0 -0.01,0.01 0,0.01 0,0 0,0.01 0,0 0,0.01 0,0.01 -0.01,0.01 0,0.01 -0.01,0 0,0.01 -0.01,0.01 -0.01,0 0,0.01 -0.01,0 -0.01,0 -0.01,0.01 -0.01,0 -0.01,0 -0.01,0 -0.01,0 0,0 -0.01,0 -0.01,0 -0.01,0.01 0,0 -0.01,0 -0.01,0 -0.01,0 -0.01,0 -0.01,0 -0.01,0 -0.01,0 -0.01,0 -0.01,0 c -0.19,0 -0.2,-0.01 -0.25,-0.08 -0.81,-1.3 -2.19,-2.01 -4.21,-2.05 -0.11,0 -0.11,-0.07 -0.11,-0.28 v -0.63 c 0,-0.27 0,-0.28 0.2,-0.28 1.02,0 3.26,0.48 4.61,2.9 z"
   inkscape:connector-curvature="0"
   style="fill:#000000;stroke-width:0" />
<path
   id="path3856"
   d="m 379.03,666.25 0.01,0 0.01,0 0.01,0 0.01,0 0.02,0 0.01,0 0.02,0 0.01,0 0.01,0 0.01,0 0.01,0.01 0.01,0 0.01,0 0.01,0 0.01,0.01 0.01,0 0.01,0.01 0.01,0 0.01,0.01 0.01,0.01 0,0 0.01,0.01 0,0.01 0.01,0 0,0.01 0,0 0.01,0.01 0,0 0,0.01 0,0 0.01,0.01 0,0 0,0.01 0,0.01 0,0 0,0.01 0,0.01 0,0.01 0,0 0,0.01 c 0,0.17 -0.16,0.17 -0.25,0.17 h -4.61 c -0.09,0 -0.26,0 -0.26,-0.17 0,-0.17 0.16,-0.17 0.26,-0.17 z"
   inkscape:connector-curvature="0"
   style="fill:#000000;stroke-width:0" />
<path
   id="path3858"
   d="m 379.04,664.72 0.01,0 0,0 0.01,0 0.01,0 0.01,0 0.01,0 0.01,0 0.02,0 0.01,0 0.01,0 0.01,0 0.01,0.01 0.01,0 0.01,0 0.01,0.01 0.01,0 0.01,0 0.01,0.01 0.01,0 0.01,0.01 0,0 0.01,0.01 0.01,0.01 0,0 0.01,0.01 0,0 0,0.01 0.01,0 0,0.01 0,0 0,0.01 0,0 0.01,0.01 0,0.01 0,0 0,0.01 0,0 0,0.01 0,0.01 0,0.01 0,0 c 0,0.18 -0.16,0.18 -0.26,0.18 h -4.6 c -0.1,0 -0.26,0 -0.26,-0.18 0,-0.16 0.17,-0.16 0.26,-0.16 z"
   inkscape:connector-curvature="0"
   style="fill:#000000;stroke-width:0" />
<path
   id="path3860"
   d="m 386.26,669.85 0,0 0,0 0,0.01 0,0 0,0 0,0 0,0.01 0,0 0.01,0 0,0.01 0,0 0,0.01 0,0 0,0.01 0,0 0,0 0,0.01 0,0 0.01,0 0,0.01 0,0 0,0 0,0 0,0.01 0,0 0,0 0,0 0,0.01 0,0 0,0.01 0,0 0,0 c 0,0.08 -0.08,0.08 -0.16,0.08 l -0.61,-0.05 c -0.08,0 -0.09,-0.01 -0.12,-0.02 -0.02,-0.03 -0.03,-0.09 -0.03,-0.12 0,-0.08 0.08,-0.08 0.15,-0.08 0,0 0.09,0 0.17,-0.01 0.09,-0.01 0.1,-0.03 0.1,-0.07 0,-0.02 -0.04,-0.17 -0.06,-0.26 l -0.24,-0.94 c -0.09,0.13 -0.28,0.3 -0.59,0.3 v -0.17 c 0.22,0 0.43,-0.13 0.51,-0.43 l -0.23,-0.93 c -0.02,-0.08 -0.02,-0.09 -0.11,-0.18 -0.18,-0.21 -0.44,-0.37 -0.69,-0.37 -0.17,0 -0.44,0.1 -0.44,0.51 0,0.23 0.12,0.75 0.3,1.01 0.19,0.27 0.45,0.39 0.66,0.39 v 0.17 c -0.71,0 -1.4,-0.68 -1.4,-1.38 0,-0.51 0.37,-0.87 0.87,-0.87 0.41,0 0.72,0.29 0.78,0.35 0.09,-0.24 0.37,-0.35 0.59,-0.35 0.2,0 0.33,0.12 0.44,0.28 0.13,0.2 0.2,0.46 0.2,0.49 0,0.07 -0.09,0.07 -0.11,0.07 -0.09,0 -0.09,-0.03 -0.12,-0.11 -0.09,-0.36 -0.22,-0.56 -0.39,-0.56 -0.14,0 -0.2,0.11 -0.2,0.27 0,0.05 0.01,0.11 0.02,0.15 z"
   inkscape:connector-curvature="0"
   style="fill:#000000;stroke-width:0" />
<line
   id="line3862"
   y2="665.65002"
   x2="388.62"
   y1="665.65002"
   x1="380.98999"
   style="stroke-width:0.33899999" />
<path
   id="path3864"
   d="m 384.29,664.77 0,0 0,0 0,0.01 0,0 0,0 0,0.01 0,0 0,0 0,0.01 0.01,0 0,0.01 0,0 0,0 0,0.01 0,0 0,0.01 0,0 0,0 0,0 0,0.01 0,0 0,0 0,0 0,0.01 0.01,0 0,0 0,0.01 0,0 0,0 0,0.01 0,0 0,0 c 0,0.09 -0.08,0.09 -0.16,0.08 l -0.61,-0.04 c -0.09,-0.01 -0.09,-0.01 -0.12,-0.03 -0.02,-0.03 -0.03,-0.09 -0.03,-0.12 0,-0.08 0.07,-0.08 0.15,-0.08 0,0 0.09,0 0.16,-0.01 0.1,-0.01 0.1,-0.03 0.1,-0.07 0,-0.02 -0.04,-0.17 -0.06,-0.26 l -0.23,-0.93 c -0.09,0.13 -0.28,0.3 -0.6,0.3 v -0.17 c 0.23,0 0.44,-0.14 0.52,-0.44 l -0.23,-0.93 c -0.02,-0.07 -0.02,-0.08 -0.11,-0.18 -0.18,-0.21 -0.44,-0.37 -0.69,-0.37 -0.17,0 -0.44,0.1 -0.44,0.51 0,0.23 0.12,0.75 0.3,1.01 0.19,0.27 0.44,0.4 0.65,0.4 v 0.17 c -0.7,0 -1.39,-0.68 -1.39,-1.39 0,-0.51 0.37,-0.86 0.87,-0.86 0.4,0 0.72,0.28 0.78,0.34 0.09,-0.24 0.37,-0.34 0.59,-0.34 0.2,0 0.33,0.11 0.44,0.27 0.13,0.2 0.2,0.46 0.2,0.49 0,0.07 -0.09,0.07 -0.11,0.07 -0.09,0 -0.09,-0.02 -0.12,-0.11 -0.09,-0.36 -0.22,-0.56 -0.39,-0.56 -0.14,0 -0.2,0.11 -0.2,0.27 0,0.05 0,0.11 0.02,0.16 z"
   inkscape:connector-curvature="0"
   style="fill:#000000;stroke-width:0" />
<path
   id="path3866"
   d="m 387.77,663.46 -0.01,-0.01 -0.01,0 -0.01,0 -0.01,-0.01 -0.01,0 -0.01,-0.01 -0.01,0 -0.01,-0.01 -0.01,0 0,-0.01 -0.01,0 -0.01,-0.01 -0.01,0 0,-0.01 -0.01,0 -0.01,-0.01 -0.01,-0.01 -0.01,-0.01 -0.01,-0.01 -0.01,-0.02 0,-0.01 -0.01,-0.01 -0.01,-0.01 0,-0.01 -0.01,-0.02 0,-0.01 -0.01,-0.01 0,-0.01 0,-0.01 -0.01,-0.01 0,-0.01 0,-0.01 0,-0.01 0,0 0,-0.01 0,0 0,-0.01 0,0 0,0 0,0 0,0 0,-0.01 0,0 c 0,-0.08 0.06,-0.2 0.22,-0.2 0.14,0 0.31,0.12 0.31,0.34 0,0.29 -0.33,0.41 -0.59,0.41 -0.33,0 -0.53,-0.21 -0.63,-0.34 -0.17,0.28 -0.49,0.34 -0.67,0.34 -0.62,0 -0.97,-0.59 -0.97,-0.78 0,-0.06 0.08,-0.06 0.1,-0.06 0.05,0 0.09,0 0.11,0.06 0.15,0.48 0.56,0.61 0.75,0.61 0.16,0 0.35,-0.07 0.35,-0.34 0,-0.12 -0.09,-0.46 -0.26,-1.12 -0.08,-0.29 -0.3,-0.46 -0.52,-0.46 -0.03,0 -0.18,0 -0.3,0.08 0.23,0.08 0.23,0.27 0.23,0.29 0,0.15 -0.11,0.21 -0.22,0.21 -0.13,0 -0.31,-0.1 -0.31,-0.34 0,-0.3 0.34,-0.4 0.59,-0.4 0.28,0 0.5,0.15 0.62,0.33 0.2,-0.3 0.52,-0.33 0.67,-0.33 0.63,0 0.98,0.59 0.98,0.76 0,0.07 -0.08,0.07 -0.1,0.07 -0.09,0 -0.1,-0.02 -0.11,-0.07 -0.15,-0.45 -0.53,-0.6 -0.75,-0.6 -0.15,0 -0.35,0.06 -0.35,0.34 0,0.06 0,0.09 0.04,0.26 0.08,0.35 0.22,0.9 0.26,0.99 0.06,0.13 0.22,0.33 0.48,0.33 0.01,0 0.18,0 0.3,-0.08 z"
   inkscape:connector-curvature="0"
   style="fill:#000000;stroke-width:0" />
<path
   id="path3868"
   d="m 394.37,670.39 0,0 0,0.01 0,0 0,0 0,0 0,0.01 0,0 0,0 0.01,0.01 0,0 0,0.01 0,0 0,0.01 0,0 0,0 0,0.01 0,0 0,0 0.01,0.01 0,0 0,0 0,0 0,0.01 0,0 0,0 0,0 0,0.01 0,0 0,0.01 0,0 0,0 0,0 c 0,0.09 -0.08,0.09 -0.16,0.08 l -0.61,-0.04 c -0.08,-0.01 -0.09,-0.01 -0.12,-0.03 -0.02,-0.03 -0.03,-0.09 -0.03,-0.12 0,-0.08 0.08,-0.08 0.15,-0.08 0,0 0.09,0 0.17,-0.01 0.09,-0.01 0.1,-0.02 0.1,-0.07 0,-0.02 -0.04,-0.17 -0.06,-0.26 l -0.24,-0.93 c -0.09,0.13 -0.28,0.3 -0.6,0.3 v -0.17 c 0.23,0 0.44,-0.14 0.52,-0.44 l -0.23,-0.93 c -0.02,-0.07 -0.02,-0.08 -0.11,-0.18 -0.18,-0.21 -0.44,-0.37 -0.69,-0.37 -0.17,0 -0.43,0.1 -0.43,0.51 0,0.23 0.11,0.75 0.29,1.01 0.19,0.27 0.45,0.4 0.65,0.4 v 0.17 c -0.7,0 -1.39,-0.68 -1.39,-1.39 0,-0.51 0.37,-0.86 0.87,-0.86 0.41,0 0.72,0.28 0.78,0.34 0.09,-0.24 0.37,-0.34 0.59,-0.34 0.2,0 0.33,0.11 0.44,0.27 0.13,0.2 0.2,0.46 0.2,0.5 0,0.07 -0.09,0.07 -0.11,0.07 -0.09,0 -0.09,-0.03 -0.12,-0.11 -0.09,-0.37 -0.21,-0.57 -0.39,-0.57 -0.14,0 -0.2,0.11 -0.2,0.27 0,0.05 0.01,0.11 0.02,0.16 z"
   inkscape:connector-curvature="0"
   style="fill:#000000;stroke-width:0" />
<path
   id="path3870"
   d="m 398.05,668.98 0,0.01 0.01,0.01 0,0 0,0.01 0,0.01 0,0 0,0.01 0,0 0.01,0.01 0,0 0,0.01 0,0 0,0.01 0,0 0,0 0,0.01 0,0 0,0 0,0.01 0,0 0,0 0,0 0,0.01 0,0 0,0 0,0 0,0 0,0 0,0.01 0,0 0,0 0,0 c 0,0.11 -0.09,0.17 -0.18,0.17 -0.2,0 -0.24,-0.17 -0.28,-0.31 l -0.1,-0.41 -0.15,-0.62 c -0.02,-0.06 -0.05,-0.17 -0.05,-0.2 -0.01,-0.02 -0.28,-0.49 -0.7,-0.49 -0.23,0 -0.41,0.11 -0.41,0.43 0,0.28 0.15,0.64 0.3,1 0.02,0.05 0.05,0.13 0.05,0.22 0,0.24 -0.23,0.44 -0.54,0.44 -0.52,0 -0.8,-0.64 -0.8,-0.77 0,-0.07 0.08,-0.07 0.11,-0.07 0.08,0 0.09,0.02 0.11,0.1 0.11,0.34 0.34,0.57 0.56,0.57 0.1,0 0.15,-0.06 0.15,-0.19 0,-0.1 -0.03,-0.17 -0.06,-0.26 -0.25,-0.59 -0.29,-0.77 -0.29,-0.97 0,-0.55 0.46,-0.66 0.79,-0.66 0.29,0 0.5,0.14 0.62,0.24 -0.07,-0.28 -0.12,-0.5 -0.36,-0.73 -0.11,-0.12 -0.34,-0.31 -0.65,-0.31 -0.09,0 -0.28,0.02 -0.39,0.12 0.22,0.06 0.25,0.25 0.25,0.3 0,0.14 -0.12,0.2 -0.22,0.2 -0.15,0 -0.31,-0.12 -0.31,-0.35 0,-0.24 0.25,-0.44 0.67,-0.44 0.56,0 1.24,0.38 1.39,1.02 z"
   inkscape:connector-curvature="0"
   style="fill:#000000;stroke-width:0" />
<line
   id="line3872"
   y2="665.65002"
   x2="398.64001"
   y1="665.65002"
   x1="391.01001"
   style="stroke-width:0.33899999" />
<path
   id="path3874"
   d="m 394.3,664.77 0.01,0 0,0 0,0.01 0,0 0,0 0,0.01 0,0 0,0 0,0.01 0,0 0.01,0.01 0,0 0,0 0,0.01 0,0 0,0.01 0,0 0,0 0,0 0,0.01 0,0 0,0 0,0 0,0.01 0,0 0,0 0,0.01 0,0 0,0 0.01,0.01 0,0 0,0 c 0,0.09 -0.08,0.09 -0.16,0.08 l -0.61,-0.04 c -0.09,-0.01 -0.1,-0.01 -0.12,-0.03 -0.02,-0.03 -0.04,-0.09 -0.04,-0.12 0,-0.08 0.08,-0.08 0.15,-0.08 0.01,0 0.1,0 0.17,-0.01 0.1,-0.01 0.1,-0.03 0.1,-0.07 0,-0.02 -0.04,-0.17 -0.06,-0.26 l -0.23,-0.93 c -0.1,0.13 -0.28,0.3 -0.6,0.3 v -0.17 c 0.23,0 0.44,-0.14 0.52,-0.44 l -0.23,-0.93 c -0.02,-0.07 -0.02,-0.08 -0.11,-0.18 -0.18,-0.21 -0.44,-0.37 -0.69,-0.37 -0.17,0 -0.44,0.1 -0.44,0.51 0,0.23 0.12,0.75 0.3,1.01 0.19,0.27 0.44,0.4 0.65,0.4 v 0.17 c -0.7,0 -1.4,-0.68 -1.4,-1.39 0,-0.51 0.38,-0.86 0.87,-0.86 0.41,0 0.73,0.28 0.79,0.34 0.09,-0.24 0.36,-0.34 0.59,-0.34 0.2,0 0.33,0.11 0.44,0.27 0.13,0.2 0.2,0.46 0.2,0.49 0,0.07 -0.09,0.07 -0.11,0.07 -0.09,0 -0.09,-0.02 -0.12,-0.11 -0.09,-0.36 -0.22,-0.56 -0.39,-0.56 -0.14,0 -0.2,0.11 -0.2,0.27 0,0.05 0,0.11 0.02,0.16 z"
   inkscape:connector-curvature="0"
   style="fill:#000000;stroke-width:0" />
<path
   id="path3876"
   d="m 397.79,663.46 -0.01,-0.01 -0.01,0 -0.01,0 -0.01,-0.01 -0.01,0 -0.01,-0.01 -0.01,0 -0.01,-0.01 -0.01,0 -0.01,-0.01 0,0 -0.01,-0.01 -0.01,0 0,-0.01 -0.01,0 -0.01,-0.01 -0.01,-0.01 -0.01,-0.01 -0.01,-0.01 -0.01,-0.02 -0.01,-0.01 0,-0.01 -0.01,-0.01 0,-0.01 -0.01,-0.02 0,-0.01 -0.01,-0.01 0,-0.01 0,-0.01 -0.01,-0.01 0,-0.01 0,-0.01 0,-0.01 0,0 0,-0.01 0,0 0,-0.01 0,0 0,0 0,0 0,0 0,-0.01 0,0 c 0,-0.08 0.06,-0.2 0.22,-0.2 0.14,0 0.31,0.12 0.31,0.34 0,0.29 -0.33,0.41 -0.59,0.41 -0.33,0 -0.54,-0.21 -0.63,-0.34 -0.17,0.28 -0.49,0.34 -0.67,0.34 -0.62,0 -0.97,-0.59 -0.97,-0.78 0,-0.06 0.08,-0.06 0.1,-0.06 0.05,0 0.09,0 0.11,0.06 0.15,0.48 0.55,0.61 0.74,0.61 0.17,0 0.36,-0.07 0.36,-0.34 0,-0.12 -0.09,-0.46 -0.26,-1.12 -0.08,-0.29 -0.3,-0.46 -0.52,-0.46 -0.03,0 -0.18,0 -0.3,0.08 0.23,0.08 0.23,0.27 0.23,0.29 0,0.15 -0.11,0.21 -0.22,0.21 -0.13,0 -0.31,-0.1 -0.31,-0.34 0,-0.3 0.34,-0.4 0.59,-0.4 0.27,0 0.5,0.15 0.62,0.33 0.2,-0.3 0.52,-0.33 0.67,-0.33 0.63,0 0.98,0.59 0.98,0.76 0,0.07 -0.09,0.07 -0.1,0.07 -0.09,0 -0.1,-0.02 -0.11,-0.07 -0.15,-0.45 -0.53,-0.6 -0.75,-0.6 -0.15,0 -0.35,0.06 -0.35,0.34 0,0.06 0,0.09 0.04,0.26 0.08,0.35 0.21,0.9 0.26,0.99 0.06,0.13 0.22,0.33 0.48,0.33 0.01,0 0.18,0 0.3,-0.08 z"
   inkscape:connector-curvature="0"
   style="fill:#000000;stroke-width:0" />
<path
   id="path3878"
   d="m 428.9,695.61 0.01,0.01 0,0.01 0,0 0.01,0.01 0,0 0,0.01 0.01,0 0,0.01 0,0 0,0.01 0.01,0 0,0.01 0,0 0,0.01 0.01,0 0,0.01 0,0 0,0 0.01,0.01 0,0.01 0,0.01 0.01,0 0,0.01 0,0 0,0.01 0,0 0.01,0.01 0,0 0,0.01 0,0 0,0 0,0.01 0,0 0,0 0,0.01 0,0 0,0.01 0,0 c 0,0.07 -0.06,0.2 -0.2,0.2 -0.12,0 -0.15,-0.06 -0.21,-0.2 l -4.47,-8.67 c -0.08,-0.14 -0.08,-0.16 -0.08,-0.19 0,-0.08 0.07,-0.2 0.2,-0.2 0.12,0 0.15,0.06 0.22,0.2 z"
   inkscape:connector-curvature="0"
   style="fill:#000000;stroke-width:0" />
<path
   id="path3880"
   d="m 429.47,692.14 0.03,0 0.03,0 0.03,0 0.01,0 0.02,0 0.01,0 0.01,0 0.02,0 0.01,0.01 0.02,0 0.01,0 0.01,0.01 0.01,0 0.02,0.01 0.01,0 0.01,0.01 0.01,0 0.01,0.01 0.01,0.01 0.01,0.01 0.01,0.01 0,0.01 0,0 0.01,0.01 0,0 0,0.01 0.01,0.01 0,0 0,0.01 0,0.01 0,0 0,0.01 0.01,0.01 0,0.01 0,0.01 0,0.01 0,0.01 c 0,0.19 -0.19,0.19 -0.33,0.19 h -5.96 c -0.14,0 -0.33,0 -0.33,-0.19 0,-0.2 0.19,-0.2 0.34,-0.2 z"
   inkscape:connector-curvature="0"
   style="fill:#000000;stroke-width:0" />
<path
   id="path3882"
   d="m 429.48,690.21 0.01,0 0.02,0 0.02,0 0.03,0 0.02,0 0.01,0 0.01,0 0.02,0.01 0.01,0 0.01,0 0.02,0 0.01,0.01 0.01,0 0.02,0 0.01,0.01 0.01,0 0.01,0.01 0.01,0.01 0.01,0.01 0.01,0 0.01,0.01 0,0.01 0.01,0 0,0.01 0,0 0.01,0.01 0,0.01 0,0 0.01,0.01 0,0.01 0,0 0,0.01 0,0.01 0,0 0.01,0.01 0,0.01 0,0.01 0,0.01 0,0.01 c 0,0.2 -0.19,0.2 -0.34,0.2 h -5.94 c -0.15,0 -0.34,0 -0.34,-0.2 0,-0.2 0.19,-0.2 0.33,-0.2 z"
   inkscape:connector-curvature="0"
   style="fill:#000000;stroke-width:0" />
<path
   id="path3884"
   d="m 441.54,692.95 0,0 0,0.01 0,0 0,0.01 0,0 0,0 -0.01,0 0,0.01 0,0 0,0 0,0.01 0,0 0,0 0,0 0,0.01 -0.01,0 0,0 0,0.01 0,0 -0.01,0.01 0,0 0,0.01 -0.01,0.01 0,0 c -0.37,0.37 -1.04,1.03 -1.7,2.11 -1.6,2.56 -2.33,5.79 -2.33,9.61 0,2.67 0.36,6.12 2,9.08 0.78,1.41 1.6,2.23 2.04,2.67 0.03,0.02 0.03,0.04 0.03,0.07 0,0.1 -0.07,0.1 -0.21,0.1 -0.14,0 -0.16,0 -0.31,-0.15 -3.33,-3.02 -4.38,-7.57 -4.38,-11.76 0,-3.9 0.9,-7.84 3.43,-10.8 0.19,-0.23 0.57,-0.64 0.98,-1 0.12,-0.12 0.14,-0.12 0.28,-0.12 0.14,0 0.21,0 0.21,0.1 z"
   inkscape:connector-curvature="0"
   style="fill:#000000;stroke-width:0" />
<path
   id="path3886"
   d="m 448.24,715.76 0,0 0,0 0,0.01 0,0 0,0 0,0 0,0.01 -0.01,0 0,0 0,0.01 0,0 0,0.01 0,0 0,0.01 0,0 -0.01,0.01 0,0 0,0.01 -0.01,0 0,0.01 -0.01,0 0,0 0,0 0,0.01 -0.01,0 0,0 0,0 -0.01,0 0,0.01 0,0 -0.01,0 0,0 0,0 -0.01,0 0,0.01 -0.01,0 0,0 -0.01,0 0,0 -0.01,0 0,0 -0.01,0 0,0 -0.01,0 0,0 c -0.15,0 -1.1,-0.09 -1.27,-0.11 -0.08,-0.01 -0.14,-0.06 -0.14,-0.19 0,-0.11 0.09,-0.11 0.24,-0.11 0.48,0 0.5,-0.07 0.5,-0.17 l -0.03,-0.2 -0.6,-2.36 c -0.18,0.37 -0.46,0.64 -0.91,0.64 -1.17,0 -2.4,-1.46 -2.4,-2.91 0,-0.94 0.55,-1.59 1.32,-1.59 l 0.02,0.22 c -0.49,0 -0.63,0.54 -0.63,0.93 0,0.5 0.31,1.72 0.54,2.18 0.31,0.58 0.76,0.95 1.16,0.95 0.64,0 0.78,-0.81 0.78,-0.87 0,-0.06 -0.02,-0.12 -0.03,-0.17 l -0.49,-1.95 c -0.05,-0.18 -0.05,-0.2 -0.2,-0.37 -0.44,-0.54 -0.85,-0.7 -1.13,-0.7 l -0.02,-0.22 c 0.2,0 0.7,0.04 1.3,0.74 0.08,-0.41 0.42,-0.74 0.9,-0.74 0.35,0 0.58,0.23 0.74,0.54 0.17,0.36 0.3,0.97 0.3,0.99 0,0.1 -0.09,0.1 -0.12,0.1 -0.1,0 -0.11,-0.04 -0.14,-0.18 -0.17,-0.65 -0.35,-1.23 -0.76,-1.23 -0.27,0 -0.3,0.26 -0.3,0.45 0,0.24 0.02,0.31 0.06,0.48 z"
   inkscape:connector-curvature="0"
   style="fill:#000000;stroke-width:0" />
<path
   id="path3888"
   d="m 451.8,713.86 h -0.23 c -0.02,-0.15 -0.09,-0.56 -0.18,-0.63 -0.06,-0.05 -0.6,-0.05 -0.69,-0.05 h -1.28 c 0.73,0.65 0.97,0.85 1.39,1.17 0.51,0.41 0.99,0.85 0.99,1.5 0,0.85 -0.73,1.36 -1.63,1.36 -0.86,0 -1.44,-0.6 -1.44,-1.24 0,-0.36 0.29,-0.39 0.37,-0.39 0.16,0 0.36,0.12 0.36,0.37 0,0.12 -0.04,0.36 -0.41,0.36 0.22,0.5 0.69,0.65 1.02,0.65 0.7,0 1.06,-0.54 1.06,-1.11 0,-0.6 -0.43,-1.08 -0.66,-1.33 l -1.67,-1.66 c -0.07,-0.06 -0.07,-0.07 -0.07,-0.27 h 2.87 z"
   inkscape:connector-curvature="0"
   style="fill:#000000;stroke-width:0" />
<path
   id="path3890"
   d="m 457.59,712.76 0,0.01 0.01,0.01 0,0 0,0.01 0,0.01 0.01,0.01 0,0.01 0,0.01 0,0.01 0.01,0.01 0,0.01 0,0 0,0.01 0,0.01 0,0 0,0.01 0.01,0.01 0,0 0,0.01 0,0 0,0.01 0,0.01 0,0.01 0,0.01 0,0.01 0,0.01 0,0 0,0.01 0,0 0,0.01 c 0,0.18 -0.14,0.27 -0.29,0.27 -0.1,0 -0.26,-0.06 -0.35,-0.21 -0.01,-0.05 -0.09,-0.36 -0.13,-0.53 -0.07,-0.26 -0.14,-0.53 -0.2,-0.8 l -0.45,-1.79 c -0.04,-0.15 -0.47,-0.84 -1.13,-0.84 -0.5,0 -0.61,0.43 -0.61,0.8 0,0.46 0.17,1.08 0.51,1.95 0.16,0.41 0.19,0.51 0.19,0.71 0,0.45 -0.31,0.82 -0.81,0.82 -0.95,0 -1.31,-1.44 -1.31,-1.53 0,-0.1 0.09,-0.1 0.12,-0.1 0.09,0 0.1,0.02 0.15,0.18 0.27,0.93 0.67,1.23 1.01,1.23 0.08,0 0.25,0 0.25,-0.32 0,-0.25 -0.1,-0.5 -0.17,-0.69 -0.4,-1.06 -0.58,-1.62 -0.58,-2.09 0,-0.88 0.63,-1.18 1.22,-1.18 0.38,0 0.72,0.17 1,0.45 -0.13,-0.52 -0.25,-1.01 -0.65,-1.53 -0.26,-0.34 -0.63,-0.63 -1.09,-0.63 -0.14,0 -0.59,0.03 -0.76,0.42 0.16,0 0.29,0 0.43,0.12 0.1,0.09 0.2,0.21 0.2,0.4 0,0.31 -0.27,0.35 -0.37,0.35 -0.23,0 -0.56,-0.16 -0.56,-0.64 0,-0.5 0.44,-0.87 1.06,-0.87 1.02,0 2.05,0.91 2.33,2.03 z"
   inkscape:connector-curvature="0"
   style="fill:#000000;stroke-width:0" />
<line
   id="line3892"
   y2="704.72998"
   x2="458"
   y1="704.72998"
   x1="443.10001"
   style="stroke-width:0.398" />
<path
   id="path3894"
   d="m 449.06,702.19 0,0 0,0 0,0 0,0 0,0.01 0,0 0,0 0,0.01 0,0 0,0 -0.01,0.01 0,0 0,0.01 0,0 0,0.01 -0.01,0 0,0.01 0,0 0,0.01 -0.01,0 0,0.01 -0.01,0 0,0 0,0 0,0 -0.01,0.01 0,0 0,0 -0.01,0 0,0 0,0.01 -0.01,0 0,0 -0.01,0 0,0 0,0 -0.01,0 0,0 -0.01,0.01 0,0 -0.01,0 0,0 -0.01,0 -0.01,0 0,0 c -0.15,0 -1.1,-0.09 -1.26,-0.11 -0.09,-0.01 -0.14,-0.06 -0.14,-0.19 0,-0.12 0.08,-0.12 0.23,-0.12 0.48,0 0.5,-0.07 0.5,-0.17 l -0.03,-0.2 -0.59,-2.35 c -0.18,0.37 -0.47,0.63 -0.92,0.63 -1.16,0 -2.4,-1.46 -2.4,-2.91 0,-0.93 0.55,-1.59 1.32,-1.59 l 0.03,0.22 c -0.5,0 -0.64,0.55 -0.64,0.94 0,0.49 0.32,1.72 0.55,2.17 0.3,0.59 0.75,0.96 1.15,0.96 0.65,0 0.79,-0.82 0.79,-0.88 0,-0.06 -0.02,-0.12 -0.03,-0.17 l -0.5,-1.94 c -0.05,-0.18 -0.05,-0.2 -0.2,-0.37 -0.44,-0.55 -0.85,-0.71 -1.12,-0.71 l -0.03,-0.22 c 0.2,0 0.7,0.04 1.3,0.75 0.08,-0.42 0.43,-0.75 0.9,-0.75 0.35,0 0.58,0.23 0.74,0.55 0.17,0.36 0.3,0.96 0.3,0.99 0,0.09 -0.09,0.09 -0.12,0.09 -0.1,0 -0.11,-0.04 -0.14,-0.18 -0.17,-0.64 -0.35,-1.23 -0.76,-1.23 -0.26,0 -0.29,0.26 -0.29,0.46 0,0.24 0.01,0.31 0.05,0.48 z"
   inkscape:connector-curvature="0"
   style="fill:#000000;stroke-width:0" />
<path
   id="path3896"
   d="m 451.16,699.38 h 0.93 c 0.2,0 0.3,0 0.3,0.2 0,0.1 -0.1,0.1 -0.28,0.1 h -0.87 c 0.36,1.42 0.41,1.61 0.41,1.67 0,0.17 -0.12,0.27 -0.29,0.27 -0.03,0 -0.31,-0.01 -0.4,-0.35 l -0.39,-1.59 h -0.93 c -0.2,0 -0.3,0 -0.3,-0.18 0,-0.12 0.08,-0.12 0.28,-0.12 h 0.87 c -0.71,-2.82 -0.75,-2.99 -0.75,-3.17 0,-0.54 0.37,-0.92 0.91,-0.92 1.02,0 1.58,1.45 1.58,1.54 0,0.09 -0.08,0.09 -0.12,0.09 -0.09,0 -0.09,-0.03 -0.15,-0.14 -0.42,-1.03 -0.95,-1.27 -1.29,-1.27 -0.21,0 -0.31,0.13 -0.31,0.46 0,0.24 0.02,0.31 0.06,0.48 z"
   inkscape:connector-curvature="0"
   style="fill:#000000;stroke-width:0" />
<path
   id="path3898"
   d="m 456.22,699.55 h -0.23 c -0.02,-0.15 -0.09,-0.57 -0.18,-0.63 -0.06,-0.05 -0.6,-0.05 -0.69,-0.05 h -1.29 c 0.74,0.65 0.98,0.85 1.4,1.17 0.51,0.41 0.99,0.84 0.99,1.5 0,0.85 -0.73,1.36 -1.63,1.36 -0.86,0 -1.44,-0.61 -1.44,-1.24 0,-0.36 0.3,-0.39 0.37,-0.39 0.16,0 0.36,0.11 0.36,0.37 0,0.12 -0.05,0.36 -0.41,0.36 0.22,0.5 0.69,0.65 1.02,0.65 0.7,0 1.06,-0.54 1.06,-1.11 0,-0.6 -0.43,-1.08 -0.66,-1.33 l -1.68,-1.66 c -0.06,-0.06 -0.06,-0.07 -0.06,-0.27 h 2.87 z"
   inkscape:connector-curvature="0"
   style="fill:#000000;stroke-width:0" />
<path
   id="path3900"
   d="m 464.44,704.76 -0.01,0.74 -0.04,0.73 -0.05,0.73 -0.08,0.72 -0.11,0.72 -0.13,0.72 -0.16,0.7 -0.19,0.7 -0.21,0.68 -0.12,0.34 -0.13,0.34 -0.14,0.33 -0.14,0.32 -0.15,0.33 -0.16,0.32 -0.17,0.31 -0.18,0.32 -0.19,0.3 -0.19,0.3 -0.21,0.3 -0.21,0.29 -0.22,0.29 -0.23,0.28 c -0.2,0.23 -0.58,0.64 -0.99,0.99 -0.12,0.12 -0.14,0.12 -0.28,0.12 -0.12,0 -0.21,0 -0.21,-0.1 0,-0.04 0.04,-0.07 0.06,-0.1 0.35,-0.35 1.02,-1.02 1.68,-2.09 1.61,-2.56 2.33,-5.79 2.33,-9.62 0,-2.67 -0.36,-6.12 -2,-9.08 -0.78,-1.41 -1.61,-2.23 -2.03,-2.65 -0.02,-0.03 -0.04,-0.06 -0.04,-0.09 0,-0.1 0.09,-0.1 0.21,-0.1 0.14,0 0.16,0 0.31,0.15 3.33,3.03 4.38,7.58 4.38,11.76 z"
   inkscape:connector-curvature="0"
   style="fill:#000000;stroke-width:0" />
<line
   id="line3902"
   y2="691.38"
   x2="466.75"
   y1="691.38"
   x1="434.35001"
   style="stroke-width:0.398" />
<path
   id="path3904"
   d="m 441.31,665.85 0,0 0,0 0,0.01 0,0 0,0 0,0.01 0,0 0,0 0,0.01 0,0 -0.01,0 0,0.01 0,0 0,0 0,0 0,0.01 0,0 -0.01,0.01 0,0 0,0.01 -0.01,0 0,0.01 0,0 -0.01,0.01 c -0.37,0.36 -1.03,1.03 -1.7,2.1 -1.6,2.57 -2.33,5.79 -2.33,9.62 0,2.67 0.36,6.12 2,9.08 0.79,1.41 1.6,2.22 2.04,2.66 0.03,0.03 0.03,0.05 0.03,0.08 0,0.1 -0.07,0.1 -0.21,0.1 -0.14,0 -0.16,0 -0.31,-0.15 -3.33,-3.03 -4.37,-7.58 -4.37,-11.76 0,-3.9 0.89,-7.84 3.42,-10.81 0.2,-0.23 0.58,-0.64 0.98,-0.99 0.12,-0.12 0.14,-0.12 0.28,-0.12 0.14,0 0.21,0 0.21,0.1 z"
   inkscape:connector-curvature="0"
   style="fill:#000000;stroke-width:0" />
<path
   id="path3906"
   d="m 448.01,688.66 0,0 0,0 0,0 0,0 0,0.01 0,0 0,0 0,0.01 0,0 0,0.01 0,0 -0.01,0 0,0.01 0,0 0,0.01 0,0 -0.01,0.01 0,0 0,0.01 -0.01,0 0,0.01 0,0 -0.01,0 0,0 0,0.01 -0.01,0 0,0 0,0 0,0 -0.01,0.01 0,0 -0.01,0 0,0 0,0 -0.01,0 0,0 -0.01,0 0,0.01 -0.01,0 0,0 -0.01,0 0,0 -0.01,0 0,0 -0.01,0 c -0.15,0 -1.09,-0.09 -1.26,-0.11 -0.08,-0.01 -0.14,-0.06 -0.14,-0.19 0,-0.12 0.09,-0.12 0.24,-0.12 0.47,0 0.49,-0.07 0.49,-0.17 l -0.03,-0.2 -0.59,-2.35 c -0.18,0.37 -0.47,0.64 -0.92,0.64 -1.16,0 -2.4,-1.46 -2.4,-2.92 0,-0.93 0.55,-1.58 1.33,-1.58 l 0.02,0.21 c -0.5,0 -0.64,0.55 -0.64,0.94 0,0.49 0.32,1.72 0.55,2.17 0.31,0.59 0.75,0.96 1.15,0.96 0.65,0 0.79,-0.82 0.79,-0.88 0,-0.06 -0.02,-0.12 -0.03,-0.17 l -0.5,-1.94 c -0.05,-0.18 -0.05,-0.2 -0.2,-0.37 -0.44,-0.55 -0.84,-0.71 -1.12,-0.71 l -0.02,-0.21 c 0.2,0 0.69,0.04 1.29,0.74 0.08,-0.42 0.43,-0.74 0.91,-0.74 0.34,0 0.57,0.22 0.73,0.54 0.17,0.36 0.3,0.97 0.3,0.99 0,0.1 -0.09,0.1 -0.12,0.1 -0.1,0 -0.11,-0.05 -0.14,-0.18 -0.17,-0.65 -0.35,-1.24 -0.75,-1.24 -0.27,0 -0.3,0.26 -0.3,0.46 0,0.24 0.02,0.31 0.06,0.48 z"
   inkscape:connector-curvature="0"
   style="fill:#000000;stroke-width:0" />
<path
   id="path3908"
   d="m 451.58,686.76 h -0.24 c -0.02,-0.16 -0.09,-0.57 -0.18,-0.64 -0.06,-0.04 -0.59,-0.04 -0.69,-0.04 h -1.28 c 0.73,0.65 0.97,0.84 1.39,1.17 0.52,0.41 1,0.84 1,1.5 0,0.84 -0.74,1.36 -1.63,1.36 -0.87,0 -1.45,-0.61 -1.45,-1.25 0,-0.35 0.3,-0.39 0.37,-0.39 0.17,0 0.37,0.12 0.37,0.37 0,0.13 -0.05,0.37 -0.41,0.37 0.21,0.49 0.69,0.65 1.01,0.65 0.7,0 1.06,-0.54 1.06,-1.11 0,-0.6 -0.43,-1.08 -0.65,-1.33 l -1.68,-1.66 c -0.07,-0.06 -0.07,-0.08 -0.07,-0.27 h 2.87 z"
   inkscape:connector-curvature="0"
   style="fill:#000000;stroke-width:0" />
<path
   id="path3910"
   d="m 455.85,684.88 0.01,0.02 0.01,0.03 0.01,0.03 0.01,0.04 0.01,0.04 0.01,0.04 0.01,0.04 0.02,0.05 0.01,0.04 0.02,0.05 0.02,0.05 0.02,0.05 0.02,0.05 0.02,0.05 0.03,0.05 0.03,0.05 0.03,0.05 0.03,0.04 0.03,0.05 0.04,0.04 0.03,0.05 0.04,0.04 0.05,0.04 0.04,0.03 0.05,0.03 0.04,0.03 0.03,0.01 0.03,0.02 0.02,0.01 0.03,0.01 0.03,0.01 0.03,0 0.02,0.01 0.03,0.01 0.03,0 0.04,0 0.03,0.01 0.03,0 c 0.05,0 0.29,0 0.5,-0.13 -0.28,-0.05 -0.48,-0.3 -0.48,-0.54 0,-0.16 0.11,-0.35 0.38,-0.35 0.22,0 0.53,0.18 0.53,0.58 0,0.52 -0.58,0.66 -0.92,0.66 -0.58,0 -0.93,-0.53 -1.05,-0.76 -0.24,0.66 -0.78,0.76 -1.07,0.76 -1.03,0 -1.6,-1.29 -1.6,-1.53 0,-0.1 0.1,-0.1 0.12,-0.1 0.08,0 0.11,0.02 0.13,0.11 0.33,1.05 0.99,1.3 1.33,1.3 0.19,0 0.54,-0.09 0.54,-0.67 0,-0.31 -0.17,-0.97 -0.54,-2.36 -0.16,-0.62 -0.51,-1.04 -0.94,-1.04 -0.07,0 -0.29,0 -0.5,0.13 0.25,0.05 0.46,0.26 0.46,0.54 0,0.27 -0.21,0.35 -0.36,0.35 -0.3,0 -0.55,-0.26 -0.55,-0.58 0,-0.46 0.5,-0.65 0.94,-0.65 0.65,0 1.01,0.69 1.04,0.75 0.12,-0.37 0.48,-0.75 1.07,-0.75 1.03,0 1.6,1.28 1.6,1.53 0,0.1 -0.09,0.1 -0.12,0.1 -0.09,0 -0.11,-0.05 -0.13,-0.11 -0.33,-1.07 -1.01,-1.31 -1.33,-1.31 -0.38,0 -0.54,0.32 -0.54,0.66 0,0.22 0.06,0.44 0.17,0.87 z"
   inkscape:connector-curvature="0"
   style="fill:#000000;stroke-width:0" />
<line
   id="line3912"
   y2="677.63"
   x2="458.23001"
   y1="677.63"
   x1="442.88"
   style="stroke-width:0.398" />
<path
   id="path3914"
   d="m 449.06,675.09 0,0 0,0 0,0 0,0 0,0 0,0.01 0,0 0,0 0,0.01 0,0 -0.01,0.01 0,0 0,0 0,0.01 0,0 -0.01,0.01 0,0 0,0.01 0,0 -0.01,0.01 0,0 -0.01,0.01 0,0 0,0 0,0 -0.01,0 0,0.01 0,0 -0.01,0 0,0 0,0 -0.01,0 0,0.01 -0.01,0 0,0 0,0 -0.01,0 0,0 -0.01,0 0,0 -0.01,0 0,0 -0.01,0 -0.01,0 0,0.01 c -0.15,0 -1.1,-0.09 -1.26,-0.11 -0.09,-0.01 -0.14,-0.06 -0.14,-0.19 0,-0.12 0.08,-0.12 0.23,-0.12 0.48,0 0.5,-0.07 0.5,-0.17 l -0.03,-0.2 -0.59,-2.35 c -0.18,0.36 -0.47,0.63 -0.92,0.63 -1.16,0 -2.4,-1.46 -2.4,-2.91 0,-0.93 0.55,-1.59 1.32,-1.59 l 0.03,0.22 c -0.5,0 -0.64,0.55 -0.64,0.93 0,0.5 0.32,1.72 0.55,2.18 0.3,0.59 0.75,0.95 1.15,0.95 0.65,0 0.79,-0.81 0.79,-0.87 0,-0.06 -0.02,-0.12 -0.03,-0.17 l -0.5,-1.95 c -0.05,-0.18 -0.05,-0.2 -0.2,-0.36 -0.44,-0.55 -0.85,-0.71 -1.12,-0.71 l -0.03,-0.22 c 0.2,0 0.7,0.04 1.3,0.75 0.08,-0.42 0.43,-0.75 0.9,-0.75 0.35,0 0.58,0.23 0.74,0.55 0.17,0.36 0.3,0.96 0.3,0.98 0,0.1 -0.09,0.1 -0.12,0.1 -0.1,0 -0.11,-0.04 -0.14,-0.18 -0.17,-0.64 -0.35,-1.23 -0.76,-1.23 -0.26,0 -0.29,0.26 -0.29,0.46 0,0.24 0.01,0.3 0.05,0.47 z"
   inkscape:connector-curvature="0"
   style="fill:#000000;stroke-width:0" />
<path
   id="path3916"
   d="m 451.16,672.28 h 0.93 c 0.2,0 0.3,0 0.3,0.19 0,0.11 -0.1,0.11 -0.28,0.11 h -0.87 c 0.36,1.41 0.41,1.61 0.41,1.67 0,0.17 -0.12,0.27 -0.29,0.27 -0.03,0 -0.31,-0.01 -0.4,-0.36 l -0.39,-1.58 h -0.93 c -0.2,0 -0.3,0 -0.3,-0.19 0,-0.11 0.08,-0.11 0.28,-0.11 h 0.87 c -0.71,-2.83 -0.75,-3 -0.75,-3.17 0,-0.54 0.37,-0.92 0.91,-0.92 1.02,0 1.58,1.45 1.58,1.53 0,0.1 -0.08,0.1 -0.12,0.1 -0.09,0 -0.09,-0.03 -0.15,-0.14 -0.42,-1.03 -0.95,-1.27 -1.29,-1.27 -0.21,0 -0.31,0.13 -0.31,0.46 0,0.24 0.02,0.3 0.06,0.47 z"
   inkscape:connector-curvature="0"
   style="fill:#000000;stroke-width:0" />
<path
   id="path3918"
   d="m 456.22,672.45 h -0.23 c -0.02,-0.16 -0.09,-0.57 -0.18,-0.64 -0.06,-0.04 -0.6,-0.04 -0.69,-0.04 h -1.29 c 0.74,0.65 0.98,0.84 1.4,1.17 0.51,0.41 0.99,0.84 0.99,1.5 0,0.84 -0.73,1.36 -1.63,1.36 -0.86,0 -1.44,-0.61 -1.44,-1.25 0,-0.35 0.3,-0.39 0.37,-0.39 0.16,0 0.36,0.12 0.36,0.37 0,0.13 -0.05,0.37 -0.41,0.37 0.22,0.49 0.69,0.65 1.02,0.65 0.7,0 1.06,-0.55 1.06,-1.11 0,-0.6 -0.43,-1.08 -0.66,-1.34 l -1.68,-1.65 c -0.06,-0.06 -0.06,-0.08 -0.06,-0.27 h 2.87 z"
   inkscape:connector-curvature="0"
   style="fill:#000000;stroke-width:0" />
<path
   id="path3920"
   d="m 464.66,677.66 -0.01,0.73 -0.03,0.73 -0.06,0.73 -0.08,0.73 -0.1,0.72 -0.13,0.71 -0.16,0.71 -0.19,0.69 -0.22,0.69 -0.12,0.34 -0.13,0.33 -0.13,0.33 -0.15,0.33 -0.15,0.32 -0.16,0.32 -0.17,0.32 -0.17,0.31 -0.19,0.31 -0.2,0.3 -0.2,0.3 -0.21,0.29 -0.23,0.29 -0.23,0.28 c -0.2,0.23 -0.58,0.63 -0.98,0.99 -0.12,0.12 -0.14,0.12 -0.28,0.12 -0.12,0 -0.21,0 -0.21,-0.1 0,-0.04 0.04,-0.08 0.06,-0.1 0.35,-0.36 1.01,-1.02 1.68,-2.1 1.6,-2.56 2.33,-5.79 2.33,-9.61 0,-2.67 -0.36,-6.12 -2,-9.08 -0.79,-1.41 -1.61,-2.24 -2.03,-2.65 -0.02,-0.03 -0.04,-0.06 -0.04,-0.09 0,-0.1 0.09,-0.1 0.21,-0.1 0.14,0 0.16,0 0.31,0.15 3.33,3.03 4.37,7.58 4.37,11.76 z"
   inkscape:connector-curvature="0"
   style="fill:#000000;stroke-width:0" />
</g>  </g>
</svg>
