<?xml version="1.0" encoding="UTF-8"?>
<svg xmlns="http://www.w3.org/2000/svg" xmlns:xlink="http://www.w3.org/1999/xlink" width="122.91884pt" height="15.722656pt" viewBox="0 0 122.91884 15.722656" version="1.1">
<g id="surface1">
<path style=" stroke:none;fill-rule:nonzero;fill:rgb(0%,0%,0%);fill-opacity:1;" d="M 5.761719 1.210938 C 5.917969 0.546875 5.996094 0.527344 6.699219 0.527344 L 7.988281 0.527344 C 9.53125 0.527344 10.664062 0.976562 10.664062 2.382812 C 10.664062 3.300781 10.195312 5.9375 6.601562 5.9375 L 4.570312 5.9375 Z M 8.242188 6.152344 C 10.46875 5.664062 12.207031 4.238281 12.207031 2.695312 C 12.207031 1.289062 10.800781 0 8.300781 0 L 3.4375 0 C 3.085938 0 2.929688 0 2.929688 0.332031 C 2.929688 0.527344 3.046875 0.527344 3.398438 0.527344 C 4.472656 0.527344 4.472656 0.664062 4.472656 0.859375 C 4.472656 0.898438 4.472656 0.996094 4.394531 1.269531 L 1.972656 10.917969 C 1.816406 11.542969 1.777344 11.71875 0.546875 11.71875 C 0.136719 11.71875 0 11.71875 0 12.070312 C 0 12.246094 0.195312 12.246094 0.253906 12.246094 C 0.585938 12.246094 0.957031 12.207031 1.289062 12.207031 L 3.417969 12.207031 C 3.730469 12.207031 4.101562 12.246094 4.433594 12.246094 C 4.570312 12.246094 4.765625 12.246094 4.765625 11.914062 C 4.765625 11.71875 4.609375 11.71875 4.335938 11.71875 C 3.242188 11.71875 3.242188 11.582031 3.242188 11.40625 C 3.242188 11.386719 3.242188 11.269531 3.28125 11.113281 L 4.492188 6.289062 L 6.640625 6.289062 C 8.339844 6.289062 8.671875 7.363281 8.671875 7.96875 C 8.671875 8.222656 8.476562 8.925781 8.359375 9.394531 C 8.164062 10.214844 8.105469 10.410156 8.105469 10.761719 C 8.105469 12.03125 9.140625 12.617188 10.351562 12.617188 C 11.796875 12.617188 12.421875 10.839844 12.421875 10.605469 C 12.421875 10.46875 12.34375 10.410156 12.226562 10.410156 C 12.089844 10.410156 12.050781 10.527344 12.011719 10.664062 C 11.582031 11.933594 10.859375 12.265625 10.410156 12.265625 C 9.960938 12.265625 9.667969 12.070312 9.667969 11.269531 C 9.667969 10.820312 9.882812 9.199219 9.902344 9.101562 C 9.980469 8.4375 9.980469 8.378906 9.980469 8.222656 C 9.980469 6.914062 8.925781 6.367188 8.242188 6.152344 Z M 8.242188 6.152344 "/>
<path style=" stroke:none;fill-rule:nonzero;fill:rgb(0%,0%,0%);fill-opacity:1;" d="M 29.871094 6.445312 C 30.125 6.445312 30.4375 6.445312 30.4375 6.113281 C 30.4375 5.78125 30.125 5.78125 29.871094 5.78125 L 19.304688 5.78125 C 19.050781 5.78125 18.738281 5.78125 18.738281 6.09375 C 18.738281 6.445312 19.03125 6.445312 19.304688 6.445312 Z M 29.871094 9.765625 C 30.125 9.765625 30.4375 9.765625 30.4375 9.453125 C 30.4375 9.101562 30.125 9.101562 29.871094 9.101562 L 19.304688 9.101562 C 19.050781 9.101562 18.738281 9.101562 18.738281 9.433594 C 18.738281 9.765625 19.03125 9.765625 19.304688 9.765625 Z M 29.871094 9.765625 "/>
<path style=" stroke:none;fill-rule:nonzero;fill:rgb(0%,0%,0%);fill-opacity:1;" d="M 41.515625 0.761719 C 41.515625 0.332031 41.515625 0.332031 41.164062 0.332031 C 40.734375 0.800781 39.835938 1.464844 38 1.464844 L 38 1.992188 C 38.410156 1.992188 39.308594 1.992188 40.285156 1.523438 L 40.285156 10.859375 C 40.285156 11.503906 40.226562 11.71875 38.664062 11.71875 L 38.097656 11.71875 L 38.097656 12.246094 C 38.585938 12.207031 40.324219 12.207031 40.910156 12.207031 C 41.496094 12.207031 43.234375 12.207031 43.703125 12.246094 L 43.703125 11.71875 L 43.15625 11.71875 C 41.574219 11.71875 41.515625 11.503906 41.515625 10.859375 Z M 41.515625 0.761719 "/>
<path style=" stroke:none;fill-rule:nonzero;fill:rgb(0%,0%,0%);fill-opacity:1;" d="M 50.5625 5.78125 C 51.441406 5.292969 52.75 4.472656 52.75 2.949219 C 52.75 1.40625 51.246094 0.332031 49.605469 0.332031 C 47.828125 0.332031 46.421875 1.640625 46.421875 3.261719 C 46.421875 3.867188 46.617188 4.492188 47.105469 5.097656 C 47.300781 5.332031 47.320312 5.351562 48.589844 6.230469 C 46.851562 7.03125 45.953125 8.222656 45.953125 9.53125 C 45.953125 11.445312 47.75 12.617188 49.585938 12.617188 C 51.578125 12.617188 53.238281 11.152344 53.238281 9.277344 C 53.238281 7.441406 51.949219 6.640625 50.5625 5.78125 Z M 48.121094 4.160156 C 47.886719 4.003906 47.164062 3.535156 47.164062 2.65625 C 47.164062 1.484375 48.375 0.761719 49.585938 0.761719 C 50.875 0.761719 52.027344 1.679688 52.027344 2.96875 C 52.027344 4.0625 51.226562 4.941406 50.191406 5.527344 Z M 48.960938 6.464844 L 51.128906 7.890625 C 51.597656 8.203125 52.417969 8.75 52.417969 9.84375 C 52.417969 11.210938 51.03125 12.128906 49.605469 12.128906 C 48.082031 12.128906 46.773438 11.035156 46.773438 9.53125 C 46.773438 8.144531 47.789062 7.011719 48.960938 6.464844 Z M 48.960938 6.464844 "/>
<path style=" stroke:none;fill-rule:nonzero;fill:rgb(0%,0%,0%);fill-opacity:1;" d="M 65.777344 4.570312 C 64.644531 4.042969 63.667969 4.023438 63.257812 4.023438 C 62.847656 4.023438 60.347656 4.023438 60.347656 6.347656 C 60.347656 7.128906 60.777344 7.675781 61.050781 7.929688 C 61.695312 8.476562 62.144531 8.574219 63.199219 8.789062 C 63.804688 8.90625 64.839844 9.121094 64.839844 10.078125 C 64.839844 11.308594 63.433594 11.308594 63.179688 11.308594 C 62.476562 11.308594 61.421875 11.113281 60.464844 10.410156 L 60.25 11.640625 C 60.328125 11.699219 61.558594 12.421875 63.199219 12.421875 C 65.523438 12.421875 66.070312 11.035156 66.070312 9.960938 C 66.070312 9.0625 65.523438 8.476562 65.445312 8.398438 C 64.78125 7.714844 64.234375 7.597656 63.160156 7.382812 C 62.496094 7.265625 61.597656 7.089844 61.597656 6.191406 C 61.597656 5.078125 62.847656 5.078125 63.082031 5.078125 C 64.019531 5.078125 64.78125 5.292969 65.5625 5.742188 Z M 65.777344 4.570312 "/>
<path style=" stroke:none;fill-rule:nonzero;fill:rgb(0%,0%,0%);fill-opacity:1;" d="M 74.089844 4.101562 L 72.761719 4.101562 L 72.761719 5.253906 C 72.292969 4.707031 71.511719 4.101562 70.417969 4.101562 C 68.660156 4.101562 67.136719 5.878906 67.136719 8.28125 C 67.136719 10.566406 68.464844 12.421875 70.144531 12.421875 C 71.53125 12.421875 72.488281 11.601562 72.742188 11.328125 L 72.742188 15.722656 L 74.089844 15.722656 Z M 72.761719 9.746094 C 72.761719 10.097656 72.761719 10.117188 72.566406 10.390625 C 72.078125 11.113281 71.433594 11.347656 70.90625 11.347656 C 69.558594 11.347656 68.503906 9.941406 68.503906 8.28125 C 68.503906 6.445312 69.792969 5.214844 71.0625 5.214844 C 72.214844 5.214844 72.761719 6.386719 72.761719 7.109375 Z M 72.761719 9.746094 "/>
<path style=" stroke:none;fill-rule:nonzero;fill:rgb(0%,0%,0%);fill-opacity:1;" d="M 78.675781 10.800781 L 77.210938 10.800781 L 77.210938 12.246094 L 78.675781 12.246094 Z M 78.675781 10.800781 "/>
<path style=" stroke:none;fill-rule:nonzero;fill:rgb(0%,0%,0%);fill-opacity:1;" d="M 95.707031 4.277344 L 94.339844 4.277344 L 94.339844 9.414062 C 94.339844 10.78125 93.402344 11.445312 92.230469 11.445312 C 90.980469 11.445312 90.84375 10.976562 90.84375 10.175781 L 90.84375 4.277344 L 89.496094 4.277344 L 89.496094 10.253906 C 89.496094 11.542969 89.90625 12.421875 91.371094 12.421875 C 91.878906 12.421875 93.285156 12.34375 94.378906 11.347656 L 94.378906 12.246094 L 95.707031 12.246094 Z M 95.707031 4.277344 "/>
<path style=" stroke:none;fill-rule:nonzero;fill:rgb(0%,0%,0%);fill-opacity:1;" d="M 104.707031 6.855469 C 104.707031 5.761719 104.472656 4.101562 102.304688 4.101562 C 101.308594 4.101562 100.449219 4.550781 99.765625 5.410156 L 99.765625 4.199219 L 98.496094 4.199219 L 98.496094 12.246094 L 99.84375 12.246094 L 99.84375 7.773438 C 99.84375 6.679688 100.273438 5.175781 101.621094 5.175781 C 103.300781 5.175781 103.339844 6.347656 103.339844 6.972656 L 103.339844 12.246094 L 104.707031 12.246094 Z M 104.707031 6.855469 "/>
<path style=" stroke:none;fill-rule:nonzero;fill:rgb(0%,0%,0%);fill-opacity:1;" d="M 108.941406 0.078125 L 107.398438 0.078125 L 107.398438 1.621094 L 108.941406 1.621094 Z M 108.84375 4.277344 L 107.515625 4.277344 L 107.515625 12.246094 L 108.84375 12.246094 Z M 108.84375 4.277344 "/>
<path style=" stroke:none;fill-rule:nonzero;fill:rgb(0%,0%,0%);fill-opacity:1;" d="M 113.375 5.332031 L 115.855469 5.332031 L 115.855469 4.277344 L 113.375 4.277344 L 113.375 2.011719 L 112.144531 2.011719 L 112.144531 4.277344 L 110.640625 4.277344 L 110.640625 5.332031 L 112.105469 5.332031 L 112.105469 10.15625 C 112.105469 11.191406 112.339844 12.421875 113.570312 12.421875 C 114.78125 12.421875 115.601562 12.011719 116.148438 11.71875 L 115.875 10.683594 C 115.25 11.25 114.585938 11.308594 114.273438 11.308594 C 113.472656 11.308594 113.375 10.46875 113.375 9.84375 Z M 113.375 5.332031 "/>
<path style=" stroke:none;fill-rule:nonzero;fill:rgb(0%,0%,0%);fill-opacity:1;" d="M 122.625 4.570312 C 121.492188 4.042969 120.515625 4.023438 120.105469 4.023438 C 119.695312 4.023438 117.195312 4.023438 117.195312 6.347656 C 117.195312 7.128906 117.625 7.675781 117.898438 7.929688 C 118.542969 8.476562 118.992188 8.574219 120.046875 8.789062 C 120.652344 8.90625 121.6875 9.121094 121.6875 10.078125 C 121.6875 11.308594 120.28125 11.308594 120.027344 11.308594 C 119.324219 11.308594 118.269531 11.113281 117.3125 10.410156 L 117.097656 11.640625 C 117.175781 11.699219 118.40625 12.421875 120.046875 12.421875 C 122.371094 12.421875 122.917969 11.035156 122.917969 9.960938 C 122.917969 9.0625 122.371094 8.476562 122.292969 8.398438 C 121.628906 7.714844 121.082031 7.597656 120.007812 7.382812 C 119.34375 7.265625 118.445312 7.089844 118.445312 6.191406 C 118.445312 5.078125 119.695312 5.078125 119.929688 5.078125 C 120.867188 5.078125 121.628906 5.292969 122.410156 5.742188 Z M 122.625 4.570312 "/>
</g>
</svg>
