<?xml version="1.0" standalone="no"?>
<!DOCTYPE svg PUBLIC "-//W3C//DTD SVG 20010904//EN"
 "http://www.w3.org/TR/2001/REC-SVG-20010904/DTD/svg10.dtd">
<svg version="1.0" xmlns="http://www.w3.org/2000/svg"
 width="122.032072pt" height="65.266845pt" viewBox="0 0 122.032072 65.266845"
 preserveAspectRatio="xMidYMid meet">
<metadata>
Created by potrace 1.10, written by Peter Selinger 2001-2011
</metadata>
<g transform="translate(-6.075731,105.120000) scale(0.024000,-0.024000)"
fill="#000000" stroke="none">
<g>
<path d="M2745 4343 c11 -59 50 -123 76 -123 5 0 15 11 21 25 6 14 15 25 19
25 7 0 29 -54 29 -70 0 -9 -85 -46 -127 -55 -18 -3 -35 -11 -38 -16 -13 -21
102 -1 163 28 31 15 34 19 29 52 -7 54 -63 171 -81 171 -12 0 -16 -11 -16 -50
0 -56 -15 -67 -25 -17 -12 59 -16 67 -37 67 -18 0 -19 -4 -13 -37z"/>
</g>
<g>
<path d="M3982 4127 c-26 -24 -103 -88 -172 -142 -118 -93 -341 -283 -670
-571 -80 -70 -239 -205 -354 -301 -200 -167 -210 -174 -219 -151 -10 24 -1
847 10 950 5 56 6 58 40 64 19 4 37 13 40 20 4 12 -76 112 -98 122 -9 4 -90
-102 -114 -147 l-17 -34 58 7 57 7 -7 -523 c-5 -358 -11 -526 -18 -536 -17
-20 -213 -170 -255 -195 -21 -12 -58 -41 -83 -65 -52 -51 -336 -281 -355 -288
-8 -3 -23 0 -35 6 -35 19 -100 81 -100 96 0 8 -10 18 -22 23 -13 5 -81 60
-153 122 -71 63 -218 186 -325 273 -356 291 -595 503 -746 660 -82 86 -157
156 -166 156 -50 0 -21 -65 56 -124 83 -64 283 -245 290 -262 3 -7 28 -30 55
-50 38 -26 53 -45 60 -72 15 -58 84 -941 74 -952 -3 -3 -59 -6 -126 -8 -145
-3 -175 -8 -158 -25 8 -8 56 -12 149 -12 134 0 137 0 140 -22 5 -32 40 -31 48
1 3 14 15 27 28 30 12 3 181 14 376 26 195 11 427 24 515 30 232 15 590 39
666 45 69 5 86 -3 102 -48 4 -9 7 -129 8 -265 1 -148 5 -252 11 -259 6 -7 17
-13 26 -13 13 0 14 12 8 83 -15 195 -25 469 -17 490 9 24 2 23 836 82 105 8
258 19 340 25 83 5 305 17 495 25 190 8 404 18 476 21 148 8 184 3 184 -25 0
-51 35 -71 46 -27 3 13 23 41 45 62 21 21 39 41 39 45 0 4 -19 18 -43 32 -23
14 -51 34 -61 46 -33 37 -44 27 -33 -29 5 -28 7 -53 4 -56 -10 -10 -212 -23
-597 -39 -414 -17 -704 -34 -1085 -65 -591 -48 -615 -47 -635 5 -5 14 -14 136
-20 272 l-11 247 47 40 c26 23 94 79 151 126 157 130 372 313 623 530 252 218
431 365 560 458 112 80 121 89 114 107 -10 25 -32 17 -82 -28z m-1384 -118
c-16 -10 -33 5 -23 21 5 8 11 8 21 -1 12 -10 12 -14 2 -20z m-60 4 c-2 -10
-11 -19 -21 -21 -16 -3 -17 -1 -7 17 13 25 33 28 28 4z m-1613 -969 c66 -52
129 -104 139 -114 19 -18 17 -21 -109 -155 -141 -149 -143 -150 -144 -51 -1
47 1 50 84 138 47 49 85 96 85 104 0 22 -26 4 -95 -65 -33 -34 -65 -61 -71
-61 -11 0 -14 24 -27 248 -3 34 0 52 8 52 6 0 65 -43 130 -96z m234 -191 c20
-15 59 -47 88 -71 l52 -44 -112 -125 c-105 -117 -149 -168 -248 -285 -37 -44
-50 -78 -30 -78 5 0 43 42 85 94 72 91 285 326 319 355 14 11 22 9 57 -19 22
-17 40 -34 40 -36 0 -3 -67 -84 -150 -180 -89 -104 -150 -183 -150 -196 0 -18
2 -19 17 -7 9 8 60 66 114 131 110 129 193 218 206 218 5 0 24 -16 43 -35 l34
-35 -40 -42 c-21 -24 -76 -82 -121 -129 -46 -48 -83 -92 -83 -98 0 -29 34 -2
146 115 132 136 133 137 177 78 l18 -25 -58 -67 c-32 -37 -67 -80 -78 -95
l-20 -27 -250 -15 c-283 -17 -335 -18 -352 -7 -6 4 -16 55 -22 117 -6 61 -13
137 -16 170 l-7 60 105 120 c98 114 171 184 191 185 5 0 25 -12 45 -27z m1385
-24 c13 -68 5 -116 -37 -224 -24 -60 -56 -147 -71 -192 -15 -45 -34 -87 -42
-94 -8 -6 -38 -14 -66 -17 l-51 -5 7 43 c9 55 97 323 131 397 17 38 40 69 68
90 23 18 45 33 48 33 4 0 9 -14 13 -31z m-179 -116 c-3 -10 -31 -96 -61 -192
-30 -96 -59 -182 -65 -192 -12 -23 -41 -39 -68 -39 -27 0 -27 26 -1 143 27
123 51 170 120 238 61 59 88 74 75 42z m194 -259 c1 -125 -3 -133 -65 -137
-53 -3 -54 16 -8 139 61 164 55 152 64 129 5 -11 9 -70 9 -131z m-389 109 c-1
-5 -15 -66 -33 -138 -32 -128 -32 -129 -65 -139 -51 -14 -57 0 -32 85 12 41
31 90 43 109 34 59 88 110 87 83z m2828 -90 c5 -18 -23 -16 -39 3 -11 14 -10
15 11 12 13 -1 25 -9 28 -15z m-2982 -58 c-4 -14 -17 -50 -30 -80 l-24 -53
-57 -7 c-31 -4 -59 -4 -63 0 -8 8 152 165 169 165 7 0 9 -9 5 -25z m-339 -21
c2 -5 -13 -34 -32 -64 -19 -29 -36 -57 -37 -60 -4 -10 -98 -21 -98 -11 0 4 31
41 70 81 63 66 88 80 97 54z m65 -61 c50 -48 32 -73 -54 -73 -21 0 -38 3 -38
7 0 11 50 93 57 93 4 0 20 -12 35 -27z"/>
<g>
<path d="M1118 2753 c-71 -73 -267 -316 -262 -325 11 -18 26 -4 105 95 46 56
113 135 151 175 61 64 83 102 60 102 -4 0 -29 -21 -54 -47z"/>
</g>
</g>
<g>
<path d="M4726 3898 c-9 -36 -7 -326 3 -332 21 -13 35 324 15 344 -8 8 -13 5
-18 -12z"/>
</g>
<g>
<path d="M4488 3857 c-25 -11 -27 -14 -15 -36 16 -32 33 -37 40 -11 6 23 39
27 56 7 8 -10 4 -20 -19 -42 -38 -36 -38 -48 2 -79 40 -31 32 -42 -37 -53 -34
-6 -50 -13 -50 -23 0 -19 73 -15 128 7 46 19 48 42 6 78 l-32 26 22 29 c11 16
21 38 21 48 0 43 -72 72 -122 49z"/>
</g>
<g>
<path d="M3857 3739 c-9 -168 -9 -239 2 -239 20 0 34 331 15 350 -8 8 -13 -23
-17 -111z"/>
</g>
<g>
<path d="M4280 3783 c0 -41 -1 -42 -37 -48 -73 -12 -83 -16 -83 -31 0 -14 9
-16 60 -10 l60 7 0 -45 c0 -65 17 -65 30 -1 10 47 15 56 38 61 46 10 53 14 47
24 -3 5 -22 10 -41 10 -22 0 -34 5 -34 14 0 8 -9 24 -20 37 l-19 24 -1 -42z"/>
</g>
<g>
<path d="M4000 3772 c0 -10 14 -31 30 -47 26 -25 30 -36 30 -82 0 -40 4 -53
15 -53 8 0 15 9 15 20 0 11 4 20 8 20 5 0 17 -9 27 -20 40 -44 48 -13 9 37
-26 34 -26 35 -9 68 11 20 15 40 11 51 -7 18 -9 17 -31 -8 l-23 -27 -38 29
c-43 35 -44 35 -44 12z"/>
</g>
<g>
<path d="M5278 2553 c-8 -10 -18 -26 -21 -36 -6 -17 -9 -17 -46 3 -22 11 -42
16 -45 12 -7 -11 5 -27 32 -41 30 -16 28 -45 -8 -136 -34 -85 -34 -85 -20 -85
5 0 26 33 46 73 20 39 38 74 39 75 2 2 20 -15 41 -37 20 -23 39 -39 41 -37 3
3 -9 29 -26 59 -36 64 -39 90 -10 110 17 13 19 19 10 36 -14 25 -14 25 -33 4z"/>
</g>
<g>
<path d="M2690 2188 c-21 -34 -27 -78 -11 -78 5 0 12 -19 16 -42 9 -50 52 -98
88 -98 27 0 81 39 98 72 8 15 5 31 -17 75 -21 45 -34 59 -68 73 -79 34 -84 34
-106 -2z m111 -28 c22 -13 49 -61 49 -90 0 -27 -43 -70 -69 -70 -27 0 -49 36
-57 93 -10 68 22 96 77 67z"/>
</g>
<g>
<path d="M2146 2111 c-5 -7 3 -29 18 -52 28 -42 56 -134 56 -184 0 -52 -19
-102 -60 -156 -22 -29 -37 -55 -35 -58 9 -8 76 63 98 104 41 77 18 260 -42
327 -19 22 -30 28 -35 19z"/>
</g>
<g>
<path d="M1743 2075 c-33 -14 -42 -40 -27 -79 8 -22 24 -20 24 2 0 29 25 56
44 49 15 -6 15 -9 1 -36 -22 -44 -19 -65 15 -84 28 -17 40 -37 23 -37 -5 0
-23 -9 -42 -21 -51 -31 -26 -47 33 -20 61 27 67 44 26 86 -30 31 -32 37 -22
60 20 44 15 74 -14 85 -14 6 -26 10 -27 10 -1 -1 -17 -7 -34 -15z"/>
</g>
<g>
<path d="M1422 2055 c-52 -65 -29 -229 40 -291 12 -12 33 -25 45 -28 29 -9 40
12 11 23 -55 21 -88 92 -88 186 0 66 13 110 30 100 4 -3 6 4 3 15 -7 26 -17
25 -41 -5z"/>
</g>
<g>
<path d="M2022 2068 c-29 -14 -36 -44 -27 -116 9 -75 19 -92 54 -92 54 0 81
63 60 144 -6 26 -21 53 -32 61 -25 17 -25 17 -55 3z m62 -67 c17 -59 -28 -148
-48 -95 -9 23 -7 52 6 96 13 45 29 45 42 -1z"/>
</g>
<g>
<path d="M1545 1940 c-3 -5 -3 -14 0 -20 7 -12 91 -12 120 0 19 7 18 9 -8 19
-35 14 -104 14 -112 1z"/>
</g>
<g>
<path d="M1906 1933 c-12 -44 -28 -142 -24 -154 3 -9 11 -4 22 13 21 32 34
142 18 152 -6 3 -13 -2 -16 -11z"/>
</g>
</g>
</svg>
