<?xml version="1.0" encoding="UTF-8"?>
<svg xmlns="http://www.w3.org/2000/svg" xmlns:xlink="http://www.w3.org/1999/xlink" width="262.15868pt" height="58.563032pt" viewBox="0 0 262.15868 58.563032" version="1.1">
<g id="surface1">
<path style=" stroke:none;fill-rule:nonzero;fill:rgb(0%,0%,100%);fill-opacity:1;" d="M 1.40625 0 L 1.40625 12.441406 L 6.035156 12.441406 C 8.574219 12.441406 10.410156 10.820312 10.410156 9.0625 C 10.410156 7.5 8.847656 6.210938 7.011719 5.9375 C 9.101562 5.351562 9.921875 4.160156 9.921875 3.125 C 9.921875 1.503906 8.085938 0 5.546875 0 Z M 2.871094 5.429688 L 2.871094 0.996094 L 5.078125 0.996094 C 6.992188 0.996094 8.535156 1.953125 8.535156 3.144531 C 8.535156 4.394531 6.992188 5.429688 5.097656 5.429688 Z M 2.871094 11.445312 L 2.871094 6.503906 L 5.253906 6.503906 C 7.558594 6.503906 9.003906 7.792969 9.003906 9.042969 C 9.003906 10.3125 7.539062 11.445312 5.546875 11.445312 Z M 2.871094 11.445312 "/>
<path style=" stroke:none;fill-rule:nonzero;fill:rgb(0%,0%,100%);fill-opacity:1;" d="M 18.457031 7.1875 C 18.457031 5.46875 17.226562 4.21875 15.546875 4.21875 C 14.472656 4.21875 13.671875 4.453125 12.792969 4.960938 L 12.890625 6.152344 C 13.691406 5.566406 14.511719 5.253906 15.546875 5.253906 C 16.367188 5.253906 17.089844 5.917969 17.089844 7.226562 L 17.089844 7.96875 C 16.289062 7.988281 15.214844 8.046875 14.140625 8.398438 C 12.929688 8.828125 12.226562 9.492188 12.226562 10.371094 C 12.226562 11.171875 12.695312 12.617188 14.21875 12.617188 C 15.214844 12.617188 16.464844 12.324219 17.128906 11.777344 L 17.128906 12.441406 L 18.457031 12.441406 Z M 17.089844 10.039062 C 17.089844 10.390625 17.089844 10.820312 16.503906 11.191406 C 16.015625 11.484375 15.410156 11.542969 15.136719 11.542969 C 14.179688 11.542969 13.515625 11.015625 13.515625 10.371094 C 13.515625 9.140625 15.996094 8.867188 17.089844 8.867188 Z M 17.089844 10.039062 "/>
<path style=" stroke:none;fill-rule:nonzero;fill:rgb(0%,0%,100%);fill-opacity:1;" d="M 25.863281 4.765625 C 24.730469 4.238281 23.753906 4.21875 23.34375 4.21875 C 22.933594 4.21875 20.433594 4.21875 20.433594 6.542969 C 20.433594 7.324219 20.863281 7.871094 21.136719 8.125 C 21.78125 8.671875 22.230469 8.769531 23.285156 8.984375 C 23.890625 9.101562 24.925781 9.316406 24.925781 10.273438 C 24.925781 11.503906 23.519531 11.503906 23.265625 11.503906 C 22.5625 11.503906 21.507812 11.308594 20.550781 10.605469 L 20.335938 11.835938 C 20.414062 11.894531 21.644531 12.617188 23.285156 12.617188 C 25.609375 12.617188 26.15625 11.230469 26.15625 10.15625 C 26.15625 9.257812 25.609375 8.671875 25.53125 8.59375 C 24.867188 7.910156 24.320312 7.792969 23.246094 7.578125 C 22.582031 7.460938 21.683594 7.285156 21.683594 6.386719 C 21.683594 5.273438 22.933594 5.273438 23.167969 5.273438 C 24.105469 5.273438 24.867188 5.488281 25.648438 5.9375 Z M 25.863281 4.765625 "/>
<path style=" stroke:none;fill-rule:nonzero;fill:rgb(0%,0%,100%);fill-opacity:1;" d="M 29.429688 0.273438 L 27.886719 0.273438 L 27.886719 1.816406 L 29.429688 1.816406 Z M 29.332031 4.472656 L 28.003906 4.472656 L 28.003906 12.441406 L 29.332031 12.441406 Z M 29.332031 4.472656 "/>
<path style=" stroke:none;fill-rule:nonzero;fill:rgb(0%,0%,100%);fill-opacity:1;" d="M 37.984375 10.507812 C 37.164062 11.171875 36.246094 11.503906 35.25 11.503906 C 33.746094 11.503906 32.789062 10.175781 32.789062 8.4375 C 32.789062 6.953125 33.511719 5.332031 35.289062 5.332031 C 36.5 5.332031 37.007812 5.605469 37.769531 6.132812 L 37.984375 4.960938 C 36.949219 4.355469 36.363281 4.21875 35.289062 4.21875 C 32.828125 4.21875 31.421875 6.40625 31.421875 8.4375 C 31.421875 10.742188 33.082031 12.617188 35.230469 12.617188 C 36.109375 12.617188 37.105469 12.402344 38.101562 11.679688 C 38.101562 11.640625 38.042969 11.074219 38.023438 11.015625 Z M 37.984375 10.507812 "/>
<path style=" stroke:none;fill-rule:nonzero;fill:rgb(0%,0%,100%);fill-opacity:1;" d="M 51.054688 1.191406 L 52.636719 1.191406 C 52.851562 1.191406 53.066406 1.210938 53.28125 1.210938 L 55.625 1.210938 L 55.625 0.078125 L 44.921875 0.078125 L 44.921875 1.210938 L 47.285156 1.210938 C 47.5 1.210938 47.714844 1.191406 47.929688 1.191406 L 49.511719 1.191406 L 49.511719 12.441406 L 51.054688 12.441406 Z M 51.054688 1.191406 "/>
<path style=" stroke:none;fill-rule:nonzero;fill:rgb(0%,0%,100%);fill-opacity:1;" d="M 62.101562 8.398438 C 62.101562 7.636719 62.023438 6.542969 61.457031 5.585938 C 60.714844 4.355469 59.464844 4.21875 58.9375 4.21875 C 57.003906 4.21875 55.382812 6.074219 55.382812 8.398438 C 55.382812 10.78125 57.101562 12.617188 59.191406 12.617188 C 60.011719 12.617188 61.007812 12.382812 61.984375 11.679688 C 61.984375 11.601562 61.925781 11.035156 61.925781 11.015625 C 61.90625 10.996094 61.886719 10.585938 61.886719 10.527344 C 60.8125 11.425781 59.757812 11.542969 59.230469 11.542969 C 57.84375 11.542969 56.652344 10.3125 56.632812 8.398438 Z M 56.730469 7.441406 C 57.042969 6.230469 57.882812 5.292969 58.9375 5.292969 C 59.503906 5.292969 60.734375 5.546875 61.027344 7.441406 Z M 56.730469 7.441406 "/>
<path style=" stroke:none;fill-rule:nonzero;fill:rgb(0%,0%,100%);fill-opacity:1;" d="M 65.332031 8.515625 C 65.332031 6.699219 66.679688 5.527344 68.300781 5.507812 L 68.300781 4.296875 C 66.660156 4.316406 65.722656 5.273438 65.234375 5.976562 L 65.234375 4.394531 L 64.003906 4.394531 L 64.003906 12.441406 L 65.332031 12.441406 Z M 65.332031 8.515625 "/>
<path style=" stroke:none;fill-rule:nonzero;fill:rgb(0%,0%,100%);fill-opacity:1;" d="M 81.097656 7.050781 C 81.097656 5.800781 80.765625 4.296875 78.675781 4.296875 C 77.152344 4.296875 76.3125 5.351562 76.039062 5.761719 C 75.707031 4.628906 74.730469 4.296875 73.792969 4.296875 C 72.328125 4.296875 71.546875 5.253906 71.253906 5.625 L 71.253906 4.394531 L 69.984375 4.394531 L 69.984375 12.441406 L 71.332031 12.441406 L 71.332031 7.96875 C 71.332031 6.796875 71.800781 5.371094 73.109375 5.371094 C 74.769531 5.371094 74.847656 6.503906 74.847656 7.167969 L 74.847656 12.441406 L 76.214844 12.441406 L 76.214844 7.96875 C 76.214844 6.796875 76.683594 5.371094 77.992188 5.371094 C 79.632812 5.371094 79.730469 6.503906 79.730469 7.167969 L 79.730469 12.441406 L 81.097656 12.441406 Z M 81.097656 7.050781 "/>
<path style=" stroke:none;fill-rule:nonzero;fill:rgb(0%,0%,100%);fill-opacity:1;" d="M 85.378906 0.273438 L 83.835938 0.273438 L 83.835938 1.816406 L 85.378906 1.816406 Z M 85.28125 4.472656 L 83.953125 4.472656 L 83.953125 12.441406 L 85.28125 12.441406 Z M 85.28125 4.472656 "/>
<path style=" stroke:none;fill-rule:nonzero;fill:rgb(0%,0%,100%);fill-opacity:1;" d="M 94.34375 7.050781 C 94.34375 5.957031 94.109375 4.296875 91.941406 4.296875 C 90.945312 4.296875 90.085938 4.746094 89.402344 5.605469 L 89.402344 4.394531 L 88.132812 4.394531 L 88.132812 12.441406 L 89.480469 12.441406 L 89.480469 7.96875 C 89.480469 6.875 89.910156 5.371094 91.257812 5.371094 C 92.9375 5.371094 92.976562 6.542969 92.976562 7.167969 L 92.976562 12.441406 L 94.34375 12.441406 Z M 94.34375 7.050781 "/>
<path style=" stroke:none;fill-rule:nonzero;fill:rgb(0%,0%,100%);fill-opacity:1;" d="M 103.96875 8.496094 C 103.96875 6.074219 102.191406 4.21875 100.140625 4.21875 C 98.03125 4.21875 96.292969 6.113281 96.292969 8.496094 C 96.292969 10.839844 98.070312 12.617188 100.121094 12.617188 C 102.230469 12.617188 103.96875 10.800781 103.96875 8.496094 Z M 100.140625 11.503906 C 98.851562 11.503906 97.640625 10.429688 97.640625 8.320312 C 97.640625 6.152344 98.988281 5.292969 100.121094 5.292969 C 101.351562 5.292969 102.621094 6.210938 102.621094 8.320312 C 102.621094 10.527344 101.332031 11.503906 100.140625 11.503906 Z M 100.140625 11.503906 "/>
<path style=" stroke:none;fill-rule:nonzero;fill:rgb(0%,0%,100%);fill-opacity:1;" d="M 107.328125 0 L 106 0 L 106 12.441406 L 107.328125 12.441406 Z M 107.328125 0 "/>
<path style=" stroke:none;fill-rule:nonzero;fill:rgb(0%,0%,100%);fill-opacity:1;" d="M 117.019531 8.496094 C 117.019531 6.074219 115.242188 4.21875 113.191406 4.21875 C 111.082031 4.21875 109.34375 6.113281 109.34375 8.496094 C 109.34375 10.839844 111.121094 12.617188 113.171875 12.617188 C 115.28125 12.617188 117.019531 10.800781 117.019531 8.496094 Z M 113.191406 11.503906 C 111.902344 11.503906 110.691406 10.429688 110.691406 8.320312 C 110.691406 6.152344 112.039062 5.292969 113.171875 5.292969 C 114.402344 5.292969 115.671875 6.210938 115.671875 8.320312 C 115.671875 10.527344 114.382812 11.503906 113.191406 11.503906 Z M 113.191406 11.503906 "/>
<path style=" stroke:none;fill-rule:nonzero;fill:rgb(0%,0%,100%);fill-opacity:1;" d="M 123.757812 5.371094 C 123.757812 5.371094 123.796875 5.410156 123.816406 5.449219 C 124.1875 5.410156 124.578125 5.351562 125.242188 5.351562 C 125.300781 5.351562 125.710938 5.351562 126.160156 5.390625 L 125.964844 4.296875 C 125.632812 4.296875 124.402344 4.316406 123.210938 4.902344 C 122.625 4.394531 121.902344 4.296875 121.550781 4.296875 C 119.988281 4.296875 118.738281 5.605469 118.738281 7.1875 C 118.738281 7.832031 118.933594 8.417969 119.324219 8.964844 C 118.914062 9.53125 118.816406 10.078125 118.816406 10.507812 C 118.816406 11.171875 119.070312 11.621094 119.265625 11.855469 C 118.347656 12.441406 118.132812 13.203125 118.132812 13.710938 C 118.132812 15.019531 119.832031 16.113281 122.019531 16.113281 C 124.207031 16.113281 125.925781 15.058594 125.925781 13.691406 C 125.925781 11.191406 123.015625 11.191406 122.292969 11.191406 L 120.769531 11.191406 C 120.515625 11.191406 119.734375 11.191406 119.734375 10.234375 C 119.734375 9.84375 119.8125 9.726562 119.929688 9.570312 C 120.222656 9.785156 120.808594 10.097656 121.53125 10.097656 C 123.074219 10.097656 124.34375 8.828125 124.34375 7.1875 C 124.34375 6.542969 124.109375 5.878906 123.738281 5.390625 Z M 121.550781 9.101562 C 120.769531 9.101562 119.96875 8.574219 119.96875 7.207031 C 119.96875 5.605469 120.984375 5.292969 121.53125 5.292969 C 122.332031 5.292969 123.113281 5.820312 123.113281 7.1875 C 123.113281 8.789062 122.117188 9.101562 121.550781 9.101562 Z M 122.3125 12.480469 C 122.703125 12.480469 124.675781 12.480469 124.675781 13.710938 C 124.675781 14.53125 123.445312 15.136719 122.039062 15.136719 C 120.632812 15.136719 119.382812 14.570312 119.382812 13.691406 C 119.382812 13.652344 119.382812 12.480469 120.75 12.480469 Z M 122.3125 12.480469 "/>
<path style=" stroke:none;fill-rule:nonzero;fill:rgb(0%,0%,100%);fill-opacity:1;" d="M 134.25 4.472656 L 132.921875 4.472656 C 132.082031 6.601562 130.714844 10.117188 130.636719 11.40625 L 130.617188 11.40625 C 130.539062 10.351562 129.582031 7.96875 129.445312 7.617188 L 128.15625 4.472656 L 126.75 4.472656 L 130.089844 12.441406 L 129.445312 14.082031 C 129.054688 14.960938 128.800781 15.058594 128.46875 15.058594 C 128.214844 15.058594 127.648438 15 127.082031 14.785156 L 127.199219 15.957031 C 127.296875 15.976562 127.902344 16.09375 128.46875 16.09375 C 128.898438 16.09375 129.738281 16.09375 130.519531 14.121094 Z M 134.25 4.472656 "/>
<path style=" stroke:none;fill-rule:nonzero;fill:rgb(0%,0%,0%);fill-opacity:1;" d="M 15.957031 21.148438 L 14.648438 21.148438 L 13.007812 27.027344 L 12.304688 29.683594 C 12.070312 30.542969 11.796875 31.578125 11.71875 32.222656 L 11.699219 32.222656 C 11.621094 31.480469 11.230469 29.9375 10.917969 28.863281 L 8.808594 21.148438 L 7.285156 21.148438 L 5.742188 26.695312 C 5.605469 27.144531 4.53125 31.050781 4.414062 32.203125 L 4.394531 32.203125 C 4.316406 31.519531 3.867188 29.761719 3.789062 29.46875 L 3.027344 26.597656 L 1.523438 21.148438 L 0 21.148438 L 3.515625 33.589844 L 5 33.589844 L 6.679688 27.496094 C 7.128906 25.894531 7.8125 23.433594 7.929688 22.496094 L 7.949219 22.496094 C 7.949219 22.515625 8.066406 23.414062 8.90625 26.480469 L 10.859375 33.589844 L 12.441406 33.589844 Z M 15.957031 21.148438 "/>
<path style=" stroke:none;fill-rule:nonzero;fill:rgb(0%,0%,0%);fill-opacity:1;" d="M 23.84375 28.199219 C 23.84375 27.105469 23.609375 25.445312 21.441406 25.445312 C 20.210938 25.445312 19.390625 26.148438 18.960938 26.695312 L 18.960938 21.148438 L 17.632812 21.148438 L 17.632812 33.589844 L 18.980469 33.589844 L 18.980469 29.117188 C 18.980469 28.023438 19.410156 26.519531 20.757812 26.519531 C 22.4375 26.519531 22.476562 27.691406 22.476562 28.316406 L 22.476562 33.589844 L 23.84375 33.589844 Z M 23.84375 28.199219 "/>
<path style=" stroke:none;fill-rule:nonzero;fill:rgb(0%,0%,0%);fill-opacity:1;" d="M 32.257812 28.335938 C 32.257812 26.617188 31.027344 25.367188 29.347656 25.367188 C 28.273438 25.367188 27.472656 25.601562 26.59375 26.109375 L 26.691406 27.300781 C 27.492188 26.714844 28.3125 26.402344 29.347656 26.402344 C 30.167969 26.402344 30.890625 27.066406 30.890625 28.375 L 30.890625 29.117188 C 30.089844 29.136719 29.015625 29.195312 27.941406 29.546875 C 26.730469 29.976562 26.027344 30.640625 26.027344 31.519531 C 26.027344 32.320312 26.496094 33.765625 28.019531 33.765625 C 29.015625 33.765625 30.265625 33.472656 30.929688 32.925781 L 30.929688 33.589844 L 32.257812 33.589844 Z M 30.890625 31.1875 C 30.890625 31.539062 30.890625 31.96875 30.304688 32.339844 C 29.816406 32.632812 29.210938 32.691406 28.9375 32.691406 C 27.980469 32.691406 27.316406 32.164062 27.316406 31.519531 C 27.316406 30.289062 29.796875 30.015625 30.890625 30.015625 Z M 30.890625 31.1875 "/>
<path style=" stroke:none;fill-rule:nonzero;fill:rgb(0%,0%,0%);fill-opacity:1;" d="M 36.710938 26.675781 L 39.191406 26.675781 L 39.191406 25.621094 L 36.710938 25.621094 L 36.710938 23.355469 L 35.480469 23.355469 L 35.480469 25.621094 L 33.976562 25.621094 L 33.976562 26.675781 L 35.441406 26.675781 L 35.441406 31.5 C 35.441406 32.535156 35.675781 33.765625 36.90625 33.765625 C 38.117188 33.765625 38.9375 33.355469 39.484375 33.0625 L 39.210938 32.027344 C 38.585938 32.59375 37.921875 32.652344 37.609375 32.652344 C 36.808594 32.652344 36.710938 31.8125 36.710938 31.1875 Z M 36.710938 26.675781 "/>
<path style=" stroke:none;fill-rule:nonzero;fill:rgb(0%,0%,0%);fill-opacity:1;" d="M 46.679688 21.421875 L 45.136719 21.421875 L 45.136719 22.964844 L 46.679688 22.964844 Z M 46.582031 25.621094 L 45.253906 25.621094 L 45.253906 33.589844 L 46.582031 33.589844 Z M 46.582031 25.621094 "/>
<path style=" stroke:none;fill-rule:nonzero;fill:rgb(0%,0%,0%);fill-opacity:1;" d="M 54.0625 25.914062 C 52.929688 25.386719 51.953125 25.367188 51.542969 25.367188 C 51.132812 25.367188 48.632812 25.367188 48.632812 27.691406 C 48.632812 28.472656 49.0625 29.019531 49.335938 29.273438 C 49.980469 29.820312 50.429688 29.917969 51.484375 30.132812 C 52.089844 30.25 53.125 30.464844 53.125 31.421875 C 53.125 32.652344 51.71875 32.652344 51.464844 32.652344 C 50.761719 32.652344 49.707031 32.457031 48.75 31.753906 L 48.535156 32.984375 C 48.613281 33.042969 49.84375 33.765625 51.484375 33.765625 C 53.808594 33.765625 54.355469 32.378906 54.355469 31.304688 C 54.355469 30.40625 53.808594 29.820312 53.730469 29.742188 C 53.066406 29.058594 52.519531 28.941406 51.445312 28.726562 C 50.78125 28.609375 49.882812 28.433594 49.882812 27.535156 C 49.882812 26.421875 51.132812 26.421875 51.367188 26.421875 C 52.304688 26.421875 53.066406 26.636719 53.847656 27.085938 Z M 54.0625 25.914062 "/>
<path style=" stroke:none;fill-rule:nonzero;fill:rgb(0%,0%,0%);fill-opacity:1;" d="M 65.707031 28.335938 C 65.707031 26.617188 64.476562 25.367188 62.796875 25.367188 C 61.722656 25.367188 60.921875 25.601562 60.042969 26.109375 L 60.140625 27.300781 C 60.941406 26.714844 61.761719 26.402344 62.796875 26.402344 C 63.617188 26.402344 64.339844 27.066406 64.339844 28.375 L 64.339844 29.117188 C 63.539062 29.136719 62.464844 29.195312 61.390625 29.546875 C 60.179688 29.976562 59.476562 30.640625 59.476562 31.519531 C 59.476562 32.320312 59.945312 33.765625 61.46875 33.765625 C 62.464844 33.765625 63.714844 33.472656 64.378906 32.925781 L 64.378906 33.589844 L 65.707031 33.589844 Z M 64.339844 31.1875 C 64.339844 31.539062 64.339844 31.96875 63.753906 32.339844 C 63.265625 32.632812 62.660156 32.691406 62.386719 32.691406 C 61.429688 32.691406 60.765625 32.164062 60.765625 31.519531 C 60.765625 30.289062 63.246094 30.015625 64.339844 30.015625 Z M 64.339844 31.1875 "/>
<path style=" stroke:none;fill-rule:nonzero;fill:rgb(0%,0%,0%);fill-opacity:1;" d="M 74.695312 28.199219 C 74.695312 27.105469 74.460938 25.445312 72.292969 25.445312 C 71.296875 25.445312 70.4375 25.894531 69.753906 26.753906 L 69.753906 25.542969 L 68.484375 25.542969 L 68.484375 33.589844 L 69.832031 33.589844 L 69.832031 29.117188 C 69.832031 28.023438 70.261719 26.519531 71.609375 26.519531 C 73.289062 26.519531 73.328125 27.691406 73.328125 28.316406 L 73.328125 33.589844 L 74.695312 33.589844 Z M 74.695312 28.199219 "/>
<path style=" stroke:none;fill-rule:nonzero;fill:rgb(0%,0%,0%);fill-opacity:1;" d="M 88.21875 29.644531 C 88.21875 27.222656 86.441406 25.367188 84.390625 25.367188 C 82.28125 25.367188 80.542969 27.261719 80.542969 29.644531 C 80.542969 31.988281 82.320312 33.765625 84.371094 33.765625 C 86.480469 33.765625 88.21875 31.949219 88.21875 29.644531 Z M 84.390625 32.652344 C 83.101562 32.652344 81.890625 31.578125 81.890625 29.46875 C 81.890625 27.300781 83.238281 26.441406 84.371094 26.441406 C 85.601562 26.441406 86.871094 27.359375 86.871094 29.46875 C 86.871094 31.675781 85.582031 32.652344 84.390625 32.652344 Z M 84.390625 32.652344 "/>
<path style=" stroke:none;fill-rule:nonzero;fill:rgb(0%,0%,0%);fill-opacity:1;" d="M 91.128906 29.664062 C 91.128906 27.847656 92.476562 26.675781 94.097656 26.65625 L 94.097656 25.445312 C 92.457031 25.464844 91.519531 26.421875 91.03125 27.125 L 91.03125 25.542969 L 89.800781 25.542969 L 89.800781 33.589844 L 91.128906 33.589844 Z M 91.128906 29.664062 "/>
<path style=" stroke:none;fill-rule:nonzero;fill:rgb(0%,0%,0%);fill-opacity:1;" d="M 101.972656 21.148438 L 100.644531 21.148438 L 100.644531 26.382812 C 99.824219 25.699219 98.886719 25.445312 98.125 25.445312 C 96.425781 25.445312 95.019531 27.28125 95.019531 29.605469 C 95.019531 31.929688 96.347656 33.765625 98.046875 33.765625 C 98.710938 33.765625 99.726562 33.550781 100.625 32.671875 L 100.625 33.589844 L 101.972656 33.589844 Z M 100.625 31.480469 C 100.195312 32.242188 99.550781 32.691406 98.769531 32.691406 C 97.675781 32.691406 96.386719 31.851562 96.386719 29.625 C 96.386719 27.242188 97.910156 26.519531 98.945312 26.519531 C 99.648438 26.519531 100.214844 26.890625 100.625 27.476562 Z M 100.625 31.480469 "/>
<path style=" stroke:none;fill-rule:nonzero;fill:rgb(0%,0%,0%);fill-opacity:1;" d="M 106.226562 21.421875 L 104.683594 21.421875 L 104.683594 22.964844 L 106.226562 22.964844 Z M 106.128906 25.621094 L 104.800781 25.621094 L 104.800781 33.589844 L 106.128906 33.589844 Z M 106.128906 25.621094 "/>
<path style=" stroke:none;fill-rule:nonzero;fill:rgb(0%,0%,0%);fill-opacity:1;" d="M 115.191406 28.199219 C 115.191406 27.105469 114.957031 25.445312 112.789062 25.445312 C 111.792969 25.445312 110.933594 25.894531 110.25 26.753906 L 110.25 25.542969 L 108.980469 25.542969 L 108.980469 33.589844 L 110.328125 33.589844 L 110.328125 29.117188 C 110.328125 28.023438 110.757812 26.519531 112.105469 26.519531 C 113.785156 26.519531 113.824219 27.691406 113.824219 28.316406 L 113.824219 33.589844 L 115.191406 33.589844 Z M 115.191406 28.199219 "/>
<path style=" stroke:none;fill-rule:nonzero;fill:rgb(0%,0%,0%);fill-opacity:1;" d="M 123.605469 28.335938 C 123.605469 26.617188 122.375 25.367188 120.695312 25.367188 C 119.621094 25.367188 118.820312 25.601562 117.941406 26.109375 L 118.039062 27.300781 C 118.839844 26.714844 119.660156 26.402344 120.695312 26.402344 C 121.515625 26.402344 122.238281 27.066406 122.238281 28.375 L 122.238281 29.117188 C 121.4375 29.136719 120.363281 29.195312 119.289062 29.546875 C 118.078125 29.976562 117.375 30.640625 117.375 31.519531 C 117.375 32.320312 117.84375 33.765625 119.367188 33.765625 C 120.363281 33.765625 121.613281 33.472656 122.277344 32.925781 L 122.277344 33.589844 L 123.605469 33.589844 Z M 122.238281 31.1875 C 122.238281 31.539062 122.238281 31.96875 121.652344 32.339844 C 121.164062 32.632812 120.558594 32.691406 120.285156 32.691406 C 119.328125 32.691406 118.664062 32.164062 118.664062 31.519531 C 118.664062 30.289062 121.144531 30.015625 122.238281 30.015625 Z M 122.238281 31.1875 "/>
<path style=" stroke:none;fill-rule:nonzero;fill:rgb(0%,0%,0%);fill-opacity:1;" d="M 127.28125 29.664062 C 127.28125 27.847656 128.628906 26.675781 130.25 26.65625 L 130.25 25.445312 C 128.609375 25.464844 127.671875 26.421875 127.183594 27.125 L 127.183594 25.542969 L 125.953125 25.542969 L 125.953125 33.589844 L 127.28125 33.589844 Z M 127.28125 29.664062 "/>
<path style=" stroke:none;fill-rule:nonzero;fill:rgb(0%,0%,0%);fill-opacity:1;" d="M 138.300781 25.621094 L 136.972656 25.621094 C 136.132812 27.75 134.765625 31.265625 134.6875 32.554688 L 134.667969 32.554688 C 134.589844 31.5 133.632812 29.117188 133.496094 28.765625 L 132.207031 25.621094 L 130.800781 25.621094 L 134.140625 33.589844 L 133.496094 35.230469 C 133.105469 36.109375 132.851562 36.207031 132.519531 36.207031 C 132.265625 36.207031 131.699219 36.148438 131.132812 35.933594 L 131.25 37.105469 C 131.347656 37.125 131.953125 37.242188 132.519531 37.242188 C 132.949219 37.242188 133.789062 37.242188 134.570312 35.269531 Z M 138.300781 25.621094 "/>
<path style=" stroke:none;fill-rule:nonzero;fill:rgb(0%,0%,0%);fill-opacity:1;" d="M 149.824219 21.148438 L 148.496094 21.148438 L 148.496094 26.382812 C 147.675781 25.699219 146.738281 25.445312 145.976562 25.445312 C 144.277344 25.445312 142.871094 27.28125 142.871094 29.605469 C 142.871094 31.929688 144.199219 33.765625 145.898438 33.765625 C 146.5625 33.765625 147.578125 33.550781 148.476562 32.671875 L 148.476562 33.589844 L 149.824219 33.589844 Z M 148.476562 31.480469 C 148.046875 32.242188 147.402344 32.691406 146.621094 32.691406 C 145.527344 32.691406 144.238281 31.851562 144.238281 29.625 C 144.238281 27.242188 145.761719 26.519531 146.796875 26.519531 C 147.5 26.519531 148.066406 26.890625 148.476562 27.476562 Z M 148.476562 31.480469 "/>
<path style=" stroke:none;fill-rule:nonzero;fill:rgb(0%,0%,0%);fill-opacity:1;" d="M 154.078125 21.421875 L 152.535156 21.421875 L 152.535156 22.964844 L 154.078125 22.964844 Z M 153.980469 25.621094 L 152.652344 25.621094 L 152.652344 33.589844 L 153.980469 33.589844 Z M 153.980469 25.621094 "/>
<path style=" stroke:none;fill-rule:nonzero;fill:rgb(0%,0%,0%);fill-opacity:1;" d="M 158.550781 26.675781 L 160.484375 26.675781 L 160.484375 25.621094 L 158.511719 25.621094 L 158.511719 23.472656 C 158.511719 22.222656 159.605469 22.046875 160.132812 22.046875 C 160.777344 22.046875 161.304688 22.242188 161.539062 22.320312 L 161.539062 21.148438 C 161.324219 21.089844 160.777344 20.972656 160.152344 20.972656 C 158.511719 20.972656 157.222656 22.203125 157.222656 24.019531 L 157.222656 25.621094 L 155.914062 25.621094 L 155.914062 26.675781 L 157.222656 26.675781 L 157.222656 33.589844 L 158.550781 33.589844 Z M 163.414062 26.675781 L 165.347656 26.675781 L 165.347656 25.621094 L 163.375 25.621094 L 163.375 23.472656 C 163.375 22.222656 164.46875 22.046875 164.976562 22.046875 C 165.621094 22.046875 166.167969 22.242188 166.402344 22.320312 L 166.402344 21.148438 C 166.1875 21.089844 165.621094 20.972656 164.996094 20.972656 C 163.375 20.972656 162.085938 22.203125 162.085938 24.019531 L 162.085938 33.589844 L 163.414062 33.589844 Z M 163.414062 26.675781 "/>
<path style=" stroke:none;fill-rule:nonzero;fill:rgb(0%,0%,0%);fill-opacity:1;" d="M 172.949219 29.546875 C 172.949219 28.785156 172.871094 27.691406 172.304688 26.734375 C 171.5625 25.503906 170.3125 25.367188 169.785156 25.367188 C 167.851562 25.367188 166.230469 27.222656 166.230469 29.546875 C 166.230469 31.929688 167.949219 33.765625 170.039062 33.765625 C 170.859375 33.765625 171.855469 33.53125 172.832031 32.828125 C 172.832031 32.75 172.773438 32.183594 172.773438 32.164062 C 172.753906 32.144531 172.734375 31.734375 172.734375 31.675781 C 171.660156 32.574219 170.605469 32.691406 170.078125 32.691406 C 168.691406 32.691406 167.5 31.460938 167.480469 29.546875 Z M 167.578125 28.589844 C 167.890625 27.378906 168.730469 26.441406 169.785156 26.441406 C 170.351562 26.441406 171.582031 26.695312 171.875 28.589844 Z M 167.578125 28.589844 "/>
<path style=" stroke:none;fill-rule:nonzero;fill:rgb(0%,0%,0%);fill-opacity:1;" d="M 176.179688 29.664062 C 176.179688 27.847656 177.527344 26.675781 179.148438 26.65625 L 179.148438 25.445312 C 177.507812 25.464844 176.570312 26.421875 176.082031 27.125 L 176.082031 25.542969 L 174.851562 25.542969 L 174.851562 33.589844 L 176.179688 33.589844 Z M 176.179688 29.664062 "/>
<path style=" stroke:none;fill-rule:nonzero;fill:rgb(0%,0%,0%);fill-opacity:1;" d="M 186.75 29.546875 C 186.75 28.785156 186.671875 27.691406 186.105469 26.734375 C 185.363281 25.503906 184.113281 25.367188 183.585938 25.367188 C 181.652344 25.367188 180.03125 27.222656 180.03125 29.546875 C 180.03125 31.929688 181.75 33.765625 183.839844 33.765625 C 184.660156 33.765625 185.65625 33.53125 186.632812 32.828125 C 186.632812 32.75 186.574219 32.183594 186.574219 32.164062 C 186.554688 32.144531 186.535156 31.734375 186.535156 31.675781 C 185.460938 32.574219 184.40625 32.691406 183.878906 32.691406 C 182.492188 32.691406 181.300781 31.460938 181.28125 29.546875 Z M 181.378906 28.589844 C 181.691406 27.378906 182.53125 26.441406 183.585938 26.441406 C 184.152344 26.441406 185.382812 26.695312 185.675781 28.589844 Z M 181.378906 28.589844 "/>
<path style=" stroke:none;fill-rule:nonzero;fill:rgb(0%,0%,0%);fill-opacity:1;" d="M 194.84375 28.199219 C 194.84375 27.105469 194.609375 25.445312 192.441406 25.445312 C 191.445312 25.445312 190.585938 25.894531 189.902344 26.753906 L 189.902344 25.542969 L 188.632812 25.542969 L 188.632812 33.589844 L 189.980469 33.589844 L 189.980469 29.117188 C 189.980469 28.023438 190.410156 26.519531 191.757812 26.519531 C 193.4375 26.519531 193.476562 27.691406 193.476562 28.316406 L 193.476562 33.589844 L 194.84375 33.589844 Z M 194.84375 28.199219 "/>
<path style=" stroke:none;fill-rule:nonzero;fill:rgb(0%,0%,0%);fill-opacity:1;" d="M 199.3125 26.675781 L 201.792969 26.675781 L 201.792969 25.621094 L 199.3125 25.621094 L 199.3125 23.355469 L 198.082031 23.355469 L 198.082031 25.621094 L 196.578125 25.621094 L 196.578125 26.675781 L 198.042969 26.675781 L 198.042969 31.5 C 198.042969 32.535156 198.277344 33.765625 199.507812 33.765625 C 200.71875 33.765625 201.539062 33.355469 202.085938 33.0625 L 201.8125 32.027344 C 201.1875 32.59375 200.523438 32.652344 200.210938 32.652344 C 199.410156 32.652344 199.3125 31.8125 199.3125 31.1875 Z M 199.3125 26.675781 "/>
<path style=" stroke:none;fill-rule:nonzero;fill:rgb(0%,0%,0%);fill-opacity:1;" d="M 205.378906 21.421875 L 203.835938 21.421875 L 203.835938 22.964844 L 205.378906 22.964844 Z M 205.28125 25.621094 L 203.953125 25.621094 L 203.953125 33.589844 L 205.28125 33.589844 Z M 205.28125 25.621094 "/>
<path style=" stroke:none;fill-rule:nonzero;fill:rgb(0%,0%,0%);fill-opacity:1;" d="M 213.757812 28.335938 C 213.757812 26.617188 212.527344 25.367188 210.847656 25.367188 C 209.773438 25.367188 208.972656 25.601562 208.09375 26.109375 L 208.191406 27.300781 C 208.992188 26.714844 209.8125 26.402344 210.847656 26.402344 C 211.667969 26.402344 212.390625 27.066406 212.390625 28.375 L 212.390625 29.117188 C 211.589844 29.136719 210.515625 29.195312 209.441406 29.546875 C 208.230469 29.976562 207.527344 30.640625 207.527344 31.519531 C 207.527344 32.320312 207.996094 33.765625 209.519531 33.765625 C 210.515625 33.765625 211.765625 33.472656 212.429688 32.925781 L 212.429688 33.589844 L 213.757812 33.589844 Z M 212.390625 31.1875 C 212.390625 31.539062 212.390625 31.96875 211.804688 32.339844 C 211.316406 32.632812 210.710938 32.691406 210.4375 32.691406 C 209.480469 32.691406 208.816406 32.164062 208.816406 31.519531 C 208.816406 30.289062 211.296875 30.015625 212.390625 30.015625 Z M 212.390625 31.1875 "/>
<path style=" stroke:none;fill-rule:nonzero;fill:rgb(0%,0%,0%);fill-opacity:1;" d="M 217.878906 21.148438 L 216.550781 21.148438 L 216.550781 33.589844 L 217.878906 33.589844 Z M 217.878906 21.148438 "/>
<path style=" stroke:none;fill-rule:nonzero;fill:rgb(0%,0%,0%);fill-opacity:1;" d="M 230.398438 29.546875 C 230.398438 28.785156 230.320312 27.691406 229.753906 26.734375 C 229.011719 25.503906 227.761719 25.367188 227.234375 25.367188 C 225.300781 25.367188 223.679688 27.222656 223.679688 29.546875 C 223.679688 31.929688 225.398438 33.765625 227.488281 33.765625 C 228.308594 33.765625 229.304688 33.53125 230.28125 32.828125 C 230.28125 32.75 230.222656 32.183594 230.222656 32.164062 C 230.203125 32.144531 230.183594 31.734375 230.183594 31.675781 C 229.109375 32.574219 228.054688 32.691406 227.527344 32.691406 C 226.140625 32.691406 224.949219 31.460938 224.929688 29.546875 Z M 225.027344 28.589844 C 225.339844 27.378906 226.179688 26.441406 227.234375 26.441406 C 227.800781 26.441406 229.03125 26.695312 229.324219 28.589844 Z M 225.027344 28.589844 "/>
<path style=" stroke:none;fill-rule:nonzero;fill:rgb(0%,0%,0%);fill-opacity:1;" d="M 238.472656 25.445312 L 237.144531 25.445312 L 237.144531 26.597656 C 236.675781 26.050781 235.894531 25.445312 234.800781 25.445312 C 233.042969 25.445312 231.519531 27.222656 231.519531 29.625 C 231.519531 31.910156 232.847656 33.765625 234.527344 33.765625 C 235.914062 33.765625 236.871094 32.945312 237.125 32.671875 L 237.125 37.066406 L 238.472656 37.066406 Z M 237.144531 31.089844 C 237.144531 31.441406 237.144531 31.460938 236.949219 31.734375 C 236.460938 32.457031 235.816406 32.691406 235.289062 32.691406 C 233.941406 32.691406 232.886719 31.285156 232.886719 29.625 C 232.886719 27.789062 234.175781 26.558594 235.445312 26.558594 C 236.597656 26.558594 237.144531 27.730469 237.144531 28.453125 Z M 237.144531 31.089844 "/>
<path style=" stroke:none;fill-rule:nonzero;fill:rgb(0%,0%,0%);fill-opacity:1;" d="M 247.492188 25.621094 L 246.125 25.621094 L 246.125 30.757812 C 246.125 32.125 245.1875 32.789062 244.015625 32.789062 C 242.765625 32.789062 242.628906 32.320312 242.628906 31.519531 L 242.628906 25.621094 L 241.28125 25.621094 L 241.28125 31.597656 C 241.28125 32.886719 241.691406 33.765625 243.15625 33.765625 C 243.664062 33.765625 245.070312 33.6875 246.164062 32.691406 L 246.164062 33.589844 L 247.492188 33.589844 Z M 247.492188 25.621094 "/>
<path style=" stroke:none;fill-rule:nonzero;fill:rgb(0%,0%,0%);fill-opacity:1;" d="M 255.90625 28.335938 C 255.90625 26.617188 254.675781 25.367188 252.996094 25.367188 C 251.921875 25.367188 251.121094 25.601562 250.242188 26.109375 L 250.339844 27.300781 C 251.140625 26.714844 251.960938 26.402344 252.996094 26.402344 C 253.816406 26.402344 254.539062 27.066406 254.539062 28.375 L 254.539062 29.117188 C 253.738281 29.136719 252.664062 29.195312 251.589844 29.546875 C 250.378906 29.976562 249.675781 30.640625 249.675781 31.519531 C 249.675781 32.320312 250.144531 33.765625 251.667969 33.765625 C 252.664062 33.765625 253.914062 33.472656 254.578125 32.925781 L 254.578125 33.589844 L 255.90625 33.589844 Z M 254.539062 31.1875 C 254.539062 31.539062 254.539062 31.96875 253.953125 32.339844 C 253.464844 32.632812 252.859375 32.691406 252.585938 32.691406 C 251.628906 32.691406 250.964844 32.164062 250.964844 31.519531 C 250.964844 30.289062 253.445312 30.015625 254.539062 30.015625 Z M 254.539062 31.1875 "/>
<path style=" stroke:none;fill-rule:nonzero;fill:rgb(0%,0%,0%);fill-opacity:1;" d="M 262.160156 30.132812 L 262.160156 29.097656 L 257.492188 29.097656 L 257.492188 30.132812 Z M 262.160156 30.132812 "/>
<path style=" stroke:none;fill-rule:nonzero;fill:rgb(0%,0%,0%);fill-opacity:1;" d="M 2.8125 47.976562 L 5.292969 47.976562 L 5.292969 46.921875 L 2.8125 46.921875 L 2.8125 44.65625 L 1.582031 44.65625 L 1.582031 46.921875 L 0.078125 46.921875 L 0.078125 47.976562 L 1.542969 47.976562 L 1.542969 52.800781 C 1.542969 53.835938 1.777344 55.066406 3.007812 55.066406 C 4.21875 55.066406 5.039062 54.65625 5.585938 54.363281 L 5.3125 53.328125 C 4.6875 53.894531 4.023438 53.953125 3.710938 53.953125 C 2.910156 53.953125 2.8125 53.113281 2.8125 52.488281 Z M 2.8125 47.976562 "/>
<path style=" stroke:none;fill-rule:nonzero;fill:rgb(0%,0%,0%);fill-opacity:1;" d="M 8.878906 42.722656 L 7.335938 42.722656 L 7.335938 44.265625 L 8.878906 44.265625 Z M 8.78125 46.921875 L 7.453125 46.921875 L 7.453125 54.890625 L 8.78125 54.890625 Z M 8.78125 46.921875 "/>
<path style=" stroke:none;fill-rule:nonzero;fill:rgb(0%,0%,0%);fill-opacity:1;" d="M 18.46875 50.945312 C 18.46875 48.523438 16.691406 46.667969 14.640625 46.667969 C 12.53125 46.667969 10.792969 48.5625 10.792969 50.945312 C 10.792969 53.289062 12.570312 55.066406 14.621094 55.066406 C 16.730469 55.066406 18.46875 53.25 18.46875 50.945312 Z M 14.640625 53.953125 C 13.351562 53.953125 12.140625 52.878906 12.140625 50.769531 C 12.140625 48.601562 13.488281 47.742188 14.621094 47.742188 C 15.851562 47.742188 17.121094 48.660156 17.121094 50.769531 C 17.121094 52.976562 15.832031 53.953125 14.640625 53.953125 Z M 14.640625 53.953125 "/>
<path style=" stroke:none;fill-rule:nonzero;fill:rgb(0%,0%,0%);fill-opacity:1;" d="M 26.695312 49.5 C 26.695312 48.40625 26.460938 46.746094 24.292969 46.746094 C 23.296875 46.746094 22.4375 47.195312 21.753906 48.054688 L 21.753906 46.84375 L 20.484375 46.84375 L 20.484375 54.890625 L 21.832031 54.890625 L 21.832031 50.417969 C 21.832031 49.324219 22.261719 47.820312 23.609375 47.820312 C 25.289062 47.820312 25.328125 48.992188 25.328125 49.617188 L 25.328125 54.890625 L 26.695312 54.890625 Z M 26.695312 49.5 "/>
<path style=" stroke:none;fill-rule:nonzero;fill:rgb(0%,0%,0%);fill-opacity:1;" d="M 31.261719 54.871094 L 31.261719 53.445312 L 29.796875 53.445312 L 29.796875 54.890625 L 30.246094 54.890625 L 29.796875 57.136719 L 30.519531 57.136719 Z M 31.261719 54.871094 "/>
<path style=" stroke:none;fill-rule:nonzero;fill:rgb(0%,0%,0%);fill-opacity:1;" d="M 41.578125 42.722656 L 40.035156 42.722656 L 40.035156 44.265625 L 41.578125 44.265625 Z M 41.480469 46.921875 L 40.152344 46.921875 L 40.152344 54.890625 L 41.480469 54.890625 Z M 41.480469 46.921875 "/>
<path style=" stroke:none;fill-rule:nonzero;fill:rgb(0%,0%,0%);fill-opacity:1;" d="M 46.011719 47.976562 L 48.492188 47.976562 L 48.492188 46.921875 L 46.011719 46.921875 L 46.011719 44.65625 L 44.78125 44.65625 L 44.78125 46.921875 L 43.277344 46.921875 L 43.277344 47.976562 L 44.742188 47.976562 L 44.742188 52.800781 C 44.742188 53.835938 44.976562 55.066406 46.207031 55.066406 C 47.417969 55.066406 48.238281 54.65625 48.785156 54.363281 L 48.511719 53.328125 C 47.886719 53.894531 47.222656 53.953125 46.910156 53.953125 C 46.109375 53.953125 46.011719 53.113281 46.011719 52.488281 Z M 46.011719 47.976562 "/>
<path style=" stroke:none;fill-rule:nonzero;fill:rgb(0%,0%,0%);fill-opacity:1;" d="M 55.261719 47.214844 C 54.128906 46.6875 53.152344 46.667969 52.742188 46.667969 C 52.332031 46.667969 49.832031 46.667969 49.832031 48.992188 C 49.832031 49.773438 50.261719 50.320312 50.535156 50.574219 C 51.179688 51.121094 51.628906 51.21875 52.683594 51.433594 C 53.289062 51.550781 54.324219 51.765625 54.324219 52.722656 C 54.324219 53.953125 52.917969 53.953125 52.664062 53.953125 C 51.960938 53.953125 50.90625 53.757812 49.949219 53.054688 L 49.734375 54.285156 C 49.8125 54.34375 51.042969 55.066406 52.683594 55.066406 C 55.007812 55.066406 55.554688 53.679688 55.554688 52.605469 C 55.554688 51.707031 55.007812 51.121094 54.929688 51.042969 C 54.265625 50.359375 53.71875 50.242188 52.644531 50.027344 C 51.980469 49.910156 51.082031 49.734375 51.082031 48.835938 C 51.082031 47.722656 52.332031 47.722656 52.566406 47.722656 C 53.503906 47.722656 54.265625 47.9375 55.046875 48.386719 Z M 55.261719 47.214844 "/>
<path style=" stroke:none;fill-rule:nonzero;fill:rgb(0%,0%,0%);fill-opacity:1;" d="M 70.070312 50.945312 C 70.070312 48.523438 68.292969 46.667969 66.242188 46.667969 C 64.132812 46.667969 62.394531 48.5625 62.394531 50.945312 C 62.394531 53.289062 64.171875 55.066406 66.222656 55.066406 C 68.332031 55.066406 70.070312 53.25 70.070312 50.945312 Z M 66.242188 53.953125 C 64.953125 53.953125 63.742188 52.878906 63.742188 50.769531 C 63.742188 48.601562 65.089844 47.742188 66.222656 47.742188 C 67.453125 47.742188 68.722656 48.660156 68.722656 50.769531 C 68.722656 52.976562 67.433594 53.953125 66.242188 53.953125 Z M 66.242188 53.953125 "/>
<path style=" stroke:none;fill-rule:nonzero;fill:rgb(0%,0%,0%);fill-opacity:1;" d="M 72.980469 50.964844 C 72.980469 49.148438 74.328125 47.976562 75.949219 47.957031 L 75.949219 46.746094 C 74.308594 46.765625 73.371094 47.722656 72.882812 48.425781 L 72.882812 46.84375 L 71.652344 46.84375 L 71.652344 54.890625 L 72.980469 54.890625 Z M 72.980469 50.964844 "/>
<path style=" stroke:none;fill-rule:nonzero;fill:rgb(0%,0%,0%);fill-opacity:1;" d="M 83.824219 42.449219 L 82.496094 42.449219 L 82.496094 47.683594 C 81.675781 47 80.738281 46.746094 79.976562 46.746094 C 78.277344 46.746094 76.871094 48.582031 76.871094 50.90625 C 76.871094 53.230469 78.199219 55.066406 79.898438 55.066406 C 80.5625 55.066406 81.578125 54.851562 82.476562 53.972656 L 82.476562 54.890625 L 83.824219 54.890625 Z M 82.476562 52.78125 C 82.046875 53.542969 81.402344 53.992188 80.621094 53.992188 C 79.527344 53.992188 78.238281 53.152344 78.238281 50.925781 C 78.238281 48.542969 79.761719 47.820312 80.796875 47.820312 C 81.5 47.820312 82.066406 48.191406 82.476562 48.777344 Z M 82.476562 52.78125 "/>
<path style=" stroke:none;fill-rule:nonzero;fill:rgb(0%,0%,0%);fill-opacity:1;" d="M 92.550781 50.847656 C 92.550781 50.085938 92.472656 48.992188 91.90625 48.035156 C 91.164062 46.804688 89.914062 46.667969 89.386719 46.667969 C 87.453125 46.667969 85.832031 48.523438 85.832031 50.847656 C 85.832031 53.230469 87.550781 55.066406 89.640625 55.066406 C 90.460938 55.066406 91.457031 54.832031 92.433594 54.128906 C 92.433594 54.050781 92.375 53.484375 92.375 53.464844 C 92.355469 53.445312 92.335938 53.035156 92.335938 52.976562 C 91.261719 53.875 90.207031 53.992188 89.679688 53.992188 C 88.292969 53.992188 87.101562 52.761719 87.082031 50.847656 Z M 87.179688 49.890625 C 87.492188 48.679688 88.332031 47.742188 89.386719 47.742188 C 89.953125 47.742188 91.183594 47.996094 91.476562 49.890625 Z M 87.179688 49.890625 "/>
<path style=" stroke:none;fill-rule:nonzero;fill:rgb(0%,0%,0%);fill-opacity:1;" d="M 95.78125 50.964844 C 95.78125 49.148438 97.128906 47.976562 98.75 47.957031 L 98.75 46.746094 C 97.109375 46.765625 96.171875 47.722656 95.683594 48.425781 L 95.683594 46.84375 L 94.453125 46.84375 L 94.453125 54.890625 L 95.78125 54.890625 Z M 95.78125 50.964844 "/>
<path style=" stroke:none;fill-rule:nonzero;fill:rgb(0%,0%,0%);fill-opacity:1;" d="M 111.757812 49.636719 C 111.757812 47.917969 110.527344 46.667969 108.847656 46.667969 C 107.773438 46.667969 106.972656 46.902344 106.09375 47.410156 L 106.191406 48.601562 C 106.992188 48.015625 107.8125 47.703125 108.847656 47.703125 C 109.667969 47.703125 110.390625 48.367188 110.390625 49.675781 L 110.390625 50.417969 C 109.589844 50.4375 108.515625 50.496094 107.441406 50.847656 C 106.230469 51.277344 105.527344 51.941406 105.527344 52.820312 C 105.527344 53.621094 105.996094 55.066406 107.519531 55.066406 C 108.515625 55.066406 109.765625 54.773438 110.429688 54.226562 L 110.429688 54.890625 L 111.757812 54.890625 Z M 110.390625 52.488281 C 110.390625 52.839844 110.390625 53.269531 109.804688 53.640625 C 109.316406 53.933594 108.710938 53.992188 108.4375 53.992188 C 107.480469 53.992188 106.816406 53.464844 106.816406 52.820312 C 106.816406 51.589844 109.296875 51.316406 110.390625 51.316406 Z M 110.390625 52.488281 "/>
<path style=" stroke:none;fill-rule:nonzero;fill:rgb(0%,0%,0%);fill-opacity:1;" d="M 120.742188 49.5 C 120.742188 48.40625 120.507812 46.746094 118.339844 46.746094 C 117.34375 46.746094 116.484375 47.195312 115.800781 48.054688 L 115.800781 46.84375 L 114.53125 46.84375 L 114.53125 54.890625 L 115.878906 54.890625 L 115.878906 50.417969 C 115.878906 49.324219 116.308594 47.820312 117.65625 47.820312 C 119.335938 47.820312 119.375 48.992188 119.375 49.617188 L 119.375 54.890625 L 120.742188 54.890625 Z M 120.742188 49.5 "/>
<path style=" stroke:none;fill-rule:nonzero;fill:rgb(0%,0%,0%);fill-opacity:1;" d="M 129.722656 42.449219 L 128.394531 42.449219 L 128.394531 47.683594 C 127.574219 47 126.636719 46.746094 125.875 46.746094 C 124.175781 46.746094 122.769531 48.582031 122.769531 50.90625 C 122.769531 53.230469 124.097656 55.066406 125.796875 55.066406 C 126.460938 55.066406 127.476562 54.851562 128.375 53.972656 L 128.375 54.890625 L 129.722656 54.890625 Z M 128.375 52.78125 C 127.945312 53.542969 127.300781 53.992188 126.519531 53.992188 C 125.425781 53.992188 124.136719 53.152344 124.136719 50.925781 C 124.136719 48.542969 125.660156 47.820312 126.695312 47.820312 C 127.398438 47.820312 127.964844 48.191406 128.375 48.777344 Z M 128.375 52.78125 "/>
<path style=" stroke:none;fill-rule:nonzero;fill:rgb(0%,0%,0%);fill-opacity:1;" d="M 139.828125 42.722656 L 138.285156 42.722656 L 138.285156 44.265625 L 139.828125 44.265625 Z M 139.730469 46.921875 L 138.402344 46.921875 L 138.402344 54.890625 L 139.730469 54.890625 Z M 139.730469 46.921875 "/>
<path style=" stroke:none;fill-rule:nonzero;fill:rgb(0%,0%,0%);fill-opacity:1;" d="M 144.261719 47.976562 L 146.742188 47.976562 L 146.742188 46.921875 L 144.261719 46.921875 L 144.261719 44.65625 L 143.03125 44.65625 L 143.03125 46.921875 L 141.527344 46.921875 L 141.527344 47.976562 L 142.992188 47.976562 L 142.992188 52.800781 C 142.992188 53.835938 143.226562 55.066406 144.457031 55.066406 C 145.667969 55.066406 146.488281 54.65625 147.035156 54.363281 L 146.761719 53.328125 C 146.136719 53.894531 145.472656 53.953125 145.160156 53.953125 C 144.359375 53.953125 144.261719 53.113281 144.261719 52.488281 Z M 144.261719 47.976562 "/>
<path style=" stroke:none;fill-rule:nonzero;fill:rgb(0%,0%,0%);fill-opacity:1;" d="M 153.511719 47.214844 C 152.378906 46.6875 151.402344 46.667969 150.992188 46.667969 C 150.582031 46.667969 148.082031 46.667969 148.082031 48.992188 C 148.082031 49.773438 148.511719 50.320312 148.785156 50.574219 C 149.429688 51.121094 149.878906 51.21875 150.933594 51.433594 C 151.539062 51.550781 152.574219 51.765625 152.574219 52.722656 C 152.574219 53.953125 151.167969 53.953125 150.914062 53.953125 C 150.210938 53.953125 149.15625 53.757812 148.199219 53.054688 L 147.984375 54.285156 C 148.0625 54.34375 149.292969 55.066406 150.933594 55.066406 C 153.257812 55.066406 153.804688 53.679688 153.804688 52.605469 C 153.804688 51.707031 153.257812 51.121094 153.179688 51.042969 C 152.515625 50.359375 151.96875 50.242188 150.894531 50.027344 C 150.230469 49.910156 149.332031 49.734375 149.332031 48.835938 C 149.332031 47.722656 150.582031 47.722656 150.816406 47.722656 C 151.753906 47.722656 152.515625 47.9375 153.296875 48.386719 Z M 153.511719 47.214844 "/>
<path style=" stroke:none;fill-rule:nonzero;fill:rgb(0%,0%,0%);fill-opacity:1;" d="M 167.675781 42.449219 L 166.347656 42.449219 L 166.347656 47.683594 C 165.527344 47 164.589844 46.746094 163.828125 46.746094 C 162.128906 46.746094 160.722656 48.582031 160.722656 50.90625 C 160.722656 53.230469 162.050781 55.066406 163.75 55.066406 C 164.414062 55.066406 165.429688 54.851562 166.328125 53.972656 L 166.328125 54.890625 L 167.675781 54.890625 Z M 166.328125 52.78125 C 165.898438 53.542969 165.253906 53.992188 164.472656 53.992188 C 163.378906 53.992188 162.089844 53.152344 162.089844 50.925781 C 162.089844 48.542969 163.613281 47.820312 164.648438 47.820312 C 165.351562 47.820312 165.917969 48.191406 166.328125 48.777344 Z M 166.328125 52.78125 "/>
<path style=" stroke:none;fill-rule:nonzero;fill:rgb(0%,0%,0%);fill-opacity:1;" d="M 176.402344 50.847656 C 176.402344 50.085938 176.324219 48.992188 175.757812 48.035156 C 175.015625 46.804688 173.765625 46.667969 173.238281 46.667969 C 171.304688 46.667969 169.683594 48.523438 169.683594 50.847656 C 169.683594 53.230469 171.402344 55.066406 173.492188 55.066406 C 174.3125 55.066406 175.308594 54.832031 176.285156 54.128906 C 176.285156 54.050781 176.226562 53.484375 176.226562 53.464844 C 176.207031 53.445312 176.1875 53.035156 176.1875 52.976562 C 175.113281 53.875 174.058594 53.992188 173.53125 53.992188 C 172.144531 53.992188 170.953125 52.761719 170.933594 50.847656 Z M 171.03125 49.890625 C 171.34375 48.679688 172.183594 47.742188 173.238281 47.742188 C 173.804688 47.742188 175.035156 47.996094 175.328125 49.890625 Z M 171.03125 49.890625 "/>
<path style=" stroke:none;fill-rule:nonzero;fill:rgb(0%,0%,0%);fill-opacity:1;" d="M 183.007812 47.820312 C 183.007812 47.820312 183.046875 47.859375 183.066406 47.898438 C 183.4375 47.859375 183.828125 47.800781 184.492188 47.800781 C 184.550781 47.800781 184.960938 47.800781 185.410156 47.839844 L 185.214844 46.746094 C 184.882812 46.746094 183.652344 46.765625 182.460938 47.351562 C 181.875 46.84375 181.152344 46.746094 180.800781 46.746094 C 179.238281 46.746094 177.988281 48.054688 177.988281 49.636719 C 177.988281 50.28125 178.183594 50.867188 178.574219 51.414062 C 178.164062 51.980469 178.066406 52.527344 178.066406 52.957031 C 178.066406 53.621094 178.320312 54.070312 178.515625 54.304688 C 177.597656 54.890625 177.382812 55.652344 177.382812 56.160156 C 177.382812 57.46875 179.082031 58.5625 181.269531 58.5625 C 183.457031 58.5625 185.175781 57.507812 185.175781 56.140625 C 185.175781 53.640625 182.265625 53.640625 181.542969 53.640625 L 180.019531 53.640625 C 179.765625 53.640625 178.984375 53.640625 178.984375 52.683594 C 178.984375 52.292969 179.0625 52.175781 179.179688 52.019531 C 179.472656 52.234375 180.058594 52.546875 180.78125 52.546875 C 182.324219 52.546875 183.59375 51.277344 183.59375 49.636719 C 183.59375 48.992188 183.359375 48.328125 182.988281 47.839844 Z M 180.800781 51.550781 C 180.019531 51.550781 179.21875 51.023438 179.21875 49.65625 C 179.21875 48.054688 180.234375 47.742188 180.78125 47.742188 C 181.582031 47.742188 182.363281 48.269531 182.363281 49.636719 C 182.363281 51.238281 181.367188 51.550781 180.800781 51.550781 Z M 181.5625 54.929688 C 181.953125 54.929688 183.925781 54.929688 183.925781 56.160156 C 183.925781 56.980469 182.695312 57.585938 181.289062 57.585938 C 179.882812 57.585938 178.632812 57.019531 178.632812 56.140625 C 178.632812 56.101562 178.632812 54.929688 180 54.929688 Z M 181.5625 54.929688 "/>
<path style=" stroke:none;fill-rule:nonzero;fill:rgb(0%,0%,0%);fill-opacity:1;" d="M 188.480469 50.964844 C 188.480469 49.148438 189.828125 47.976562 191.449219 47.957031 L 191.449219 46.746094 C 189.808594 46.765625 188.871094 47.722656 188.382812 48.425781 L 188.382812 46.84375 L 187.152344 46.84375 L 187.152344 54.890625 L 188.480469 54.890625 Z M 188.480469 50.964844 "/>
<path style=" stroke:none;fill-rule:nonzero;fill:rgb(0%,0%,0%);fill-opacity:1;" d="M 199.050781 50.847656 C 199.050781 50.085938 198.972656 48.992188 198.40625 48.035156 C 197.664062 46.804688 196.414062 46.667969 195.886719 46.667969 C 193.953125 46.667969 192.332031 48.523438 192.332031 50.847656 C 192.332031 53.230469 194.050781 55.066406 196.140625 55.066406 C 196.960938 55.066406 197.957031 54.832031 198.933594 54.128906 C 198.933594 54.050781 198.875 53.484375 198.875 53.464844 C 198.855469 53.445312 198.835938 53.035156 198.835938 52.976562 C 197.761719 53.875 196.707031 53.992188 196.179688 53.992188 C 194.792969 53.992188 193.601562 52.761719 193.582031 50.847656 Z M 193.679688 49.890625 C 193.992188 48.679688 194.832031 47.742188 195.886719 47.742188 C 196.453125 47.742188 197.683594 47.996094 197.976562 49.890625 Z M 193.679688 49.890625 "/>
<path style=" stroke:none;fill-rule:nonzero;fill:rgb(0%,0%,0%);fill-opacity:1;" d="M 206.851562 50.847656 C 206.851562 50.085938 206.773438 48.992188 206.207031 48.035156 C 205.464844 46.804688 204.214844 46.667969 203.6875 46.667969 C 201.753906 46.667969 200.132812 48.523438 200.132812 50.847656 C 200.132812 53.230469 201.851562 55.066406 203.941406 55.066406 C 204.761719 55.066406 205.757812 54.832031 206.734375 54.128906 C 206.734375 54.050781 206.675781 53.484375 206.675781 53.464844 C 206.65625 53.445312 206.636719 53.035156 206.636719 52.976562 C 205.5625 53.875 204.507812 53.992188 203.980469 53.992188 C 202.59375 53.992188 201.402344 52.761719 201.382812 50.847656 Z M 201.480469 49.890625 C 201.792969 48.679688 202.632812 47.742188 203.6875 47.742188 C 204.253906 47.742188 205.484375 47.996094 205.777344 49.890625 Z M 201.480469 49.890625 "/>
<path style=" stroke:none;fill-rule:nonzero;fill:rgb(0%,0%,0%);fill-opacity:1;" d="M 211.816406 50.925781 C 211.816406 49.011719 212.96875 47.742188 213.652344 47.175781 C 214.003906 46.882812 214.648438 46.277344 214.648438 45.046875 C 214.648438 43.660156 213.789062 42.273438 211.25 42.273438 C 209.863281 42.273438 208.847656 42.820312 208.320312 43.210938 L 208.710938 44.324219 C 209.707031 43.425781 210.722656 43.347656 211.269531 43.347656 C 212.246094 43.347656 213.28125 43.582031 213.28125 45.027344 C 213.28125 45.828125 212.910156 46.179688 212.597656 46.433594 C 211.601562 47.3125 210.644531 48.875 210.644531 50.867188 L 210.644531 51.785156 L 211.816406 51.785156 Z M 210.507812 54.890625 L 211.953125 54.890625 L 211.953125 53.445312 L 210.507812 53.445312 Z M 210.507812 54.890625 "/>
</g>
</svg>
