<?xml version="1.0" encoding="UTF-8"?>
<svg xmlns="http://www.w3.org/2000/svg" xmlns:xlink="http://www.w3.org/1999/xlink" width="241.34272pt" height="34.587498pt" viewBox="0 0 241.34272 34.587498" version="1.1">
<g id="surface1">
<path style=" stroke:none;fill-rule:nonzero;fill:rgb(0%,0%,100%);fill-opacity:1;" d="M 1.796875 0.996094 L 0.253906 0.996094 L 0.253906 13.4375 L 1.796875 13.4375 Z M 1.796875 0.996094 "/>
<path style=" stroke:none;fill-rule:nonzero;fill:rgb(0%,0%,100%);fill-opacity:1;" d="M 11.03125 8.046875 C 11.03125 6.953125 10.796875 5.292969 8.628906 5.292969 C 7.632812 5.292969 6.773438 5.742188 6.089844 6.601562 L 6.089844 5.390625 L 4.820312 5.390625 L 4.820312 13.4375 L 6.167969 13.4375 L 6.167969 8.964844 C 6.167969 7.871094 6.597656 6.367188 7.945312 6.367188 C 9.625 6.367188 9.664062 7.539062 9.664062 8.164062 L 9.664062 13.4375 L 11.03125 13.4375 Z M 11.03125 8.046875 "/>
<path style=" stroke:none;fill-rule:nonzero;fill:rgb(0%,0%,100%);fill-opacity:1;" d="M 20.1875 5.46875 L 18.859375 5.46875 L 17.550781 9.042969 C 17.238281 9.902344 16.574219 11.796875 16.476562 12.460938 L 16.457031 12.460938 C 16.359375 11.835938 16.007812 10.859375 15.734375 10.078125 L 14.074219 5.46875 L 12.6875 5.46875 L 15.636719 13.4375 L 17.238281 13.4375 Z M 20.1875 5.46875 "/>
<path style=" stroke:none;fill-rule:nonzero;fill:rgb(0%,0%,100%);fill-opacity:1;" d="M 27.835938 9.394531 C 27.835938 8.632812 27.757812 7.539062 27.191406 6.582031 C 26.449219 5.351562 25.199219 5.214844 24.671875 5.214844 C 22.738281 5.214844 21.117188 7.070312 21.117188 9.394531 C 21.117188 11.777344 22.835938 13.613281 24.925781 13.613281 C 25.746094 13.613281 26.742188 13.378906 27.71875 12.675781 C 27.71875 12.597656 27.660156 12.03125 27.660156 12.011719 C 27.640625 11.992188 27.621094 11.582031 27.621094 11.523438 C 26.546875 12.421875 25.492188 12.539062 24.964844 12.539062 C 23.578125 12.539062 22.386719 11.308594 22.367188 9.394531 Z M 22.464844 8.4375 C 22.777344 7.226562 23.617188 6.289062 24.671875 6.289062 C 25.238281 6.289062 26.46875 6.542969 26.761719 8.4375 Z M 22.464844 8.4375 "/>
<path style=" stroke:none;fill-rule:nonzero;fill:rgb(0%,0%,100%);fill-opacity:1;" d="M 31.066406 9.511719 C 31.066406 7.695312 32.414062 6.523438 34.035156 6.503906 L 34.035156 5.292969 C 32.394531 5.3125 31.457031 6.269531 30.96875 6.972656 L 30.96875 5.390625 L 29.738281 5.390625 L 29.738281 13.4375 L 31.066406 13.4375 Z M 31.066406 9.511719 "/>
<path style=" stroke:none;fill-rule:nonzero;fill:rgb(0%,0%,100%);fill-opacity:1;" d="M 40.347656 5.761719 C 39.214844 5.234375 38.238281 5.214844 37.828125 5.214844 C 37.417969 5.214844 34.917969 5.214844 34.917969 7.539062 C 34.917969 8.320312 35.347656 8.867188 35.621094 9.121094 C 36.265625 9.667969 36.714844 9.765625 37.769531 9.980469 C 38.375 10.097656 39.410156 10.3125 39.410156 11.269531 C 39.410156 12.5 38.003906 12.5 37.75 12.5 C 37.046875 12.5 35.992188 12.304688 35.035156 11.601562 L 34.820312 12.832031 C 34.898438 12.890625 36.128906 13.613281 37.769531 13.613281 C 40.09375 13.613281 40.640625 12.226562 40.640625 11.152344 C 40.640625 10.253906 40.09375 9.667969 40.015625 9.589844 C 39.351562 8.90625 38.804688 8.789062 37.730469 8.574219 C 37.066406 8.457031 36.167969 8.28125 36.167969 7.382812 C 36.167969 6.269531 37.417969 6.269531 37.652344 6.269531 C 38.589844 6.269531 39.351562 6.484375 40.132812 6.933594 Z M 40.347656 5.761719 "/>
<path style=" stroke:none;fill-rule:nonzero;fill:rgb(0%,0%,100%);fill-opacity:1;" d="M 48.386719 9.394531 C 48.386719 8.632812 48.308594 7.539062 47.742188 6.582031 C 47 5.351562 45.75 5.214844 45.222656 5.214844 C 43.289062 5.214844 41.667969 7.070312 41.667969 9.394531 C 41.667969 11.777344 43.386719 13.613281 45.476562 13.613281 C 46.296875 13.613281 47.292969 13.378906 48.269531 12.675781 C 48.269531 12.597656 48.210938 12.03125 48.210938 12.011719 C 48.191406 11.992188 48.171875 11.582031 48.171875 11.523438 C 47.097656 12.421875 46.042969 12.539062 45.515625 12.539062 C 44.128906 12.539062 42.9375 11.308594 42.917969 9.394531 Z M 43.015625 8.4375 C 43.328125 7.226562 44.167969 6.289062 45.222656 6.289062 C 45.789062 6.289062 47.019531 6.542969 47.3125 8.4375 Z M 43.015625 8.4375 "/>
<path style=" stroke:none;fill-rule:nonzero;fill:rgb(0%,0%,100%);fill-opacity:1;" d="M 61.339844 2.1875 L 62.921875 2.1875 C 63.136719 2.1875 63.351562 2.207031 63.566406 2.207031 L 65.910156 2.207031 L 65.910156 1.074219 L 55.207031 1.074219 L 55.207031 2.207031 L 57.570312 2.207031 C 57.785156 2.207031 58 2.1875 58.214844 2.1875 L 59.796875 2.1875 L 59.796875 13.4375 L 61.339844 13.4375 Z M 61.339844 2.1875 "/>
<path style=" stroke:none;fill-rule:nonzero;fill:rgb(0%,0%,100%);fill-opacity:1;" d="M 67.816406 9.511719 C 67.816406 7.695312 69.164062 6.523438 70.785156 6.503906 L 70.785156 5.292969 C 69.144531 5.3125 68.207031 6.269531 67.71875 6.972656 L 67.71875 5.390625 L 66.488281 5.390625 L 66.488281 13.4375 L 67.816406 13.4375 Z M 67.816406 9.511719 "/>
<path style=" stroke:none;fill-rule:nonzero;fill:rgb(0%,0%,100%);fill-opacity:1;" d="M 73.914062 1.269531 L 72.371094 1.269531 L 72.371094 2.8125 L 73.914062 2.8125 Z M 73.816406 5.46875 L 72.488281 5.46875 L 72.488281 13.4375 L 73.816406 13.4375 Z M 73.816406 5.46875 "/>
<path style=" stroke:none;fill-rule:nonzero;fill:rgb(0%,0%,100%);fill-opacity:1;" d="M 81.394531 6.367188 C 81.394531 6.367188 81.433594 6.40625 81.453125 6.445312 C 81.824219 6.40625 82.214844 6.347656 82.878906 6.347656 C 82.9375 6.347656 83.347656 6.347656 83.796875 6.386719 L 83.601562 5.292969 C 83.269531 5.292969 82.039062 5.3125 80.847656 5.898438 C 80.261719 5.390625 79.539062 5.292969 79.1875 5.292969 C 77.625 5.292969 76.375 6.601562 76.375 8.183594 C 76.375 8.828125 76.570312 9.414062 76.960938 9.960938 C 76.550781 10.527344 76.453125 11.074219 76.453125 11.503906 C 76.453125 12.167969 76.707031 12.617188 76.902344 12.851562 C 75.984375 13.4375 75.769531 14.199219 75.769531 14.707031 C 75.769531 16.015625 77.46875 17.109375 79.65625 17.109375 C 81.84375 17.109375 83.5625 16.054688 83.5625 14.6875 C 83.5625 12.1875 80.652344 12.1875 79.929688 12.1875 L 78.40625 12.1875 C 78.152344 12.1875 77.371094 12.1875 77.371094 11.230469 C 77.371094 10.839844 77.449219 10.722656 77.566406 10.566406 C 77.859375 10.78125 78.445312 11.09375 79.167969 11.09375 C 80.710938 11.09375 81.980469 9.824219 81.980469 8.183594 C 81.980469 7.539062 81.746094 6.875 81.375 6.386719 Z M 79.1875 10.097656 C 78.40625 10.097656 77.605469 9.570312 77.605469 8.203125 C 77.605469 6.601562 78.621094 6.289062 79.167969 6.289062 C 79.96875 6.289062 80.75 6.816406 80.75 8.183594 C 80.75 9.785156 79.753906 10.097656 79.1875 10.097656 Z M 79.949219 13.476562 C 80.339844 13.476562 82.3125 13.476562 82.3125 14.707031 C 82.3125 15.527344 81.082031 16.132812 79.675781 16.132812 C 78.269531 16.132812 77.019531 15.566406 77.019531 14.6875 C 77.019531 14.648438 77.019531 13.476562 78.386719 13.476562 Z M 79.949219 13.476562 "/>
<path style=" stroke:none;fill-rule:nonzero;fill:rgb(0%,0%,100%);fill-opacity:1;" d="M 92.355469 9.492188 C 92.355469 7.070312 90.578125 5.214844 88.527344 5.214844 C 86.417969 5.214844 84.679688 7.109375 84.679688 9.492188 C 84.679688 11.835938 86.457031 13.613281 88.507812 13.613281 C 90.617188 13.613281 92.355469 11.796875 92.355469 9.492188 Z M 88.527344 12.5 C 87.238281 12.5 86.027344 11.425781 86.027344 9.316406 C 86.027344 7.148438 87.375 6.289062 88.507812 6.289062 C 89.738281 6.289062 91.007812 7.207031 91.007812 9.316406 C 91.007812 11.523438 89.71875 12.5 88.527344 12.5 Z M 88.527344 12.5 "/>
<path style=" stroke:none;fill-rule:nonzero;fill:rgb(0%,0%,100%);fill-opacity:1;" d="M 100.582031 8.046875 C 100.582031 6.953125 100.347656 5.292969 98.179688 5.292969 C 97.183594 5.292969 96.324219 5.742188 95.640625 6.601562 L 95.640625 5.390625 L 94.371094 5.390625 L 94.371094 13.4375 L 95.71875 13.4375 L 95.71875 8.964844 C 95.71875 7.871094 96.148438 6.367188 97.496094 6.367188 C 99.175781 6.367188 99.214844 7.539062 99.214844 8.164062 L 99.214844 13.4375 L 100.582031 13.4375 Z M 100.582031 8.046875 "/>
<path style=" stroke:none;fill-rule:nonzero;fill:rgb(0%,0%,100%);fill-opacity:1;" d="M 110.207031 9.492188 C 110.207031 7.070312 108.429688 5.214844 106.378906 5.214844 C 104.269531 5.214844 102.53125 7.109375 102.53125 9.492188 C 102.53125 11.835938 104.308594 13.613281 106.359375 13.613281 C 108.46875 13.613281 110.207031 11.796875 110.207031 9.492188 Z M 106.378906 12.5 C 105.089844 12.5 103.878906 11.425781 103.878906 9.316406 C 103.878906 7.148438 105.226562 6.289062 106.359375 6.289062 C 107.589844 6.289062 108.859375 7.207031 108.859375 9.316406 C 108.859375 11.523438 107.570312 12.5 106.378906 12.5 Z M 106.378906 12.5 "/>
<path style=" stroke:none;fill-rule:nonzero;fill:rgb(0%,0%,100%);fill-opacity:1;" d="M 123.332031 8.046875 C 123.332031 6.796875 123 5.292969 120.910156 5.292969 C 119.386719 5.292969 118.546875 6.347656 118.273438 6.757812 C 117.941406 5.625 116.964844 5.292969 116.027344 5.292969 C 114.5625 5.292969 113.78125 6.25 113.488281 6.621094 L 113.488281 5.390625 L 112.21875 5.390625 L 112.21875 13.4375 L 113.566406 13.4375 L 113.566406 8.964844 C 113.566406 7.792969 114.035156 6.367188 115.34375 6.367188 C 117.003906 6.367188 117.082031 7.5 117.082031 8.164062 L 117.082031 13.4375 L 118.449219 13.4375 L 118.449219 8.964844 C 118.449219 7.792969 118.917969 6.367188 120.226562 6.367188 C 121.867188 6.367188 121.964844 7.5 121.964844 8.164062 L 121.964844 13.4375 L 123.332031 13.4375 Z M 123.332031 8.046875 "/>
<path style=" stroke:none;fill-rule:nonzero;fill:rgb(0%,0%,100%);fill-opacity:1;" d="M 132.085938 9.394531 C 132.085938 8.632812 132.007812 7.539062 131.441406 6.582031 C 130.699219 5.351562 129.449219 5.214844 128.921875 5.214844 C 126.988281 5.214844 125.367188 7.070312 125.367188 9.394531 C 125.367188 11.777344 127.085938 13.613281 129.175781 13.613281 C 129.996094 13.613281 130.992188 13.378906 131.96875 12.675781 C 131.96875 12.597656 131.910156 12.03125 131.910156 12.011719 C 131.890625 11.992188 131.871094 11.582031 131.871094 11.523438 C 130.796875 12.421875 129.742188 12.539062 129.214844 12.539062 C 127.828125 12.539062 126.636719 11.308594 126.617188 9.394531 Z M 126.714844 8.4375 C 127.027344 7.226562 127.867188 6.289062 128.921875 6.289062 C 129.488281 6.289062 130.71875 6.542969 131.011719 8.4375 Z M 126.714844 8.4375 "/>
<path style=" stroke:none;fill-rule:nonzero;fill:rgb(0%,0%,100%);fill-opacity:1;" d="M 135.648438 6.523438 L 138.128906 6.523438 L 138.128906 5.46875 L 135.648438 5.46875 L 135.648438 3.203125 L 134.417969 3.203125 L 134.417969 5.46875 L 132.914062 5.46875 L 132.914062 6.523438 L 134.378906 6.523438 L 134.378906 11.347656 C 134.378906 12.382812 134.613281 13.613281 135.84375 13.613281 C 137.054688 13.613281 137.875 13.203125 138.421875 12.910156 L 138.148438 11.875 C 137.523438 12.441406 136.859375 12.5 136.546875 12.5 C 135.746094 12.5 135.648438 11.660156 135.648438 11.035156 Z M 135.648438 6.523438 "/>
<path style=" stroke:none;fill-rule:nonzero;fill:rgb(0%,0%,100%);fill-opacity:1;" d="M 141.617188 9.511719 C 141.617188 7.695312 142.964844 6.523438 144.585938 6.503906 L 144.585938 5.292969 C 142.945312 5.3125 142.007812 6.269531 141.519531 6.972656 L 141.519531 5.390625 L 140.289062 5.390625 L 140.289062 13.4375 L 141.617188 13.4375 Z M 141.617188 9.511719 "/>
<path style=" stroke:none;fill-rule:nonzero;fill:rgb(0%,0%,100%);fill-opacity:1;" d="M 152.636719 5.46875 L 151.308594 5.46875 C 150.46875 7.597656 149.101562 11.113281 149.023438 12.402344 L 149.003906 12.402344 C 148.925781 11.347656 147.96875 8.964844 147.832031 8.613281 L 146.542969 5.46875 L 145.136719 5.46875 L 148.476562 13.4375 L 147.832031 15.078125 C 147.441406 15.957031 147.1875 16.054688 146.855469 16.054688 C 146.601562 16.054688 146.035156 15.996094 145.46875 15.78125 L 145.585938 16.953125 C 145.683594 16.972656 146.289062 17.089844 146.855469 17.089844 C 147.285156 17.089844 148.125 17.089844 148.90625 15.117188 Z M 152.636719 5.46875 "/>
<path style=" stroke:none;fill-rule:nonzero;fill:rgb(0%,0%,100%);fill-opacity:1;" d="M 163.296875 0 C 160.601562 2.402344 159.9375 6.035156 159.9375 8.964844 C 159.9375 12.109375 160.699219 15.625 163.296875 17.929688 L 164.371094 17.929688 C 163.667969 17.285156 162.574219 15.898438 161.949219 13.867188 C 161.480469 12.265625 161.285156 10.605469 161.285156 8.964844 C 161.285156 3.691406 163.179688 1.09375 164.371094 0 Z M 163.296875 0 "/>
<path style=" stroke:none;fill-rule:nonzero;fill:rgb(0%,0%,100%);fill-opacity:1;" d="M 169.261719 0.996094 L 167.074219 0.996094 L 167.074219 13.4375 L 168.441406 13.4375 L 168.441406 2.324219 L 168.460938 2.324219 C 168.617188 2.675781 169.554688 4.609375 169.90625 5.332031 L 173.871094 13.4375 L 176.078125 13.4375 L 176.078125 0.996094 L 174.710938 0.996094 L 174.710938 12.109375 L 174.691406 12.109375 C 174.515625 11.757812 173.597656 9.824219 173.226562 9.101562 Z M 169.261719 0.996094 "/>
<path style=" stroke:none;fill-rule:nonzero;fill:rgb(0%,0%,100%);fill-opacity:1;" d="M 185.039062 9.394531 C 185.039062 8.632812 184.960938 7.539062 184.394531 6.582031 C 183.652344 5.351562 182.402344 5.214844 181.875 5.214844 C 179.941406 5.214844 178.320312 7.070312 178.320312 9.394531 C 178.320312 11.777344 180.039062 13.613281 182.128906 13.613281 C 182.949219 13.613281 183.945312 13.378906 184.921875 12.675781 C 184.921875 12.597656 184.863281 12.03125 184.863281 12.011719 C 184.84375 11.992188 184.824219 11.582031 184.824219 11.523438 C 183.75 12.421875 182.695312 12.539062 182.167969 12.539062 C 180.78125 12.539062 179.589844 11.308594 179.570312 9.394531 Z M 179.667969 8.4375 C 179.980469 7.226562 180.820312 6.289062 181.875 6.289062 C 182.441406 6.289062 183.671875 6.542969 183.964844 8.4375 Z M 179.667969 8.4375 "/>
<path style=" stroke:none;fill-rule:nonzero;fill:rgb(0%,0%,100%);fill-opacity:1;" d="M 191.644531 6.367188 C 191.644531 6.367188 191.683594 6.40625 191.703125 6.445312 C 192.074219 6.40625 192.464844 6.347656 193.128906 6.347656 C 193.1875 6.347656 193.597656 6.347656 194.046875 6.386719 L 193.851562 5.292969 C 193.519531 5.292969 192.289062 5.3125 191.097656 5.898438 C 190.511719 5.390625 189.789062 5.292969 189.4375 5.292969 C 187.875 5.292969 186.625 6.601562 186.625 8.183594 C 186.625 8.828125 186.820312 9.414062 187.210938 9.960938 C 186.800781 10.527344 186.703125 11.074219 186.703125 11.503906 C 186.703125 12.167969 186.957031 12.617188 187.152344 12.851562 C 186.234375 13.4375 186.019531 14.199219 186.019531 14.707031 C 186.019531 16.015625 187.71875 17.109375 189.90625 17.109375 C 192.09375 17.109375 193.8125 16.054688 193.8125 14.6875 C 193.8125 12.1875 190.902344 12.1875 190.179688 12.1875 L 188.65625 12.1875 C 188.402344 12.1875 187.621094 12.1875 187.621094 11.230469 C 187.621094 10.839844 187.699219 10.722656 187.816406 10.566406 C 188.109375 10.78125 188.695312 11.09375 189.417969 11.09375 C 190.960938 11.09375 192.230469 9.824219 192.230469 8.183594 C 192.230469 7.539062 191.996094 6.875 191.625 6.386719 Z M 189.4375 10.097656 C 188.65625 10.097656 187.855469 9.570312 187.855469 8.203125 C 187.855469 6.601562 188.871094 6.289062 189.417969 6.289062 C 190.21875 6.289062 191 6.816406 191 8.183594 C 191 9.785156 190.003906 10.097656 189.4375 10.097656 Z M 190.199219 13.476562 C 190.589844 13.476562 192.5625 13.476562 192.5625 14.707031 C 192.5625 15.527344 191.332031 16.132812 189.925781 16.132812 C 188.519531 16.132812 187.269531 15.566406 187.269531 14.6875 C 187.269531 14.648438 187.269531 13.476562 188.636719 13.476562 Z M 190.199219 13.476562 "/>
<path style=" stroke:none;fill-rule:nonzero;fill:rgb(0%,0%,100%);fill-opacity:1;" d="M 201.394531 8.183594 C 201.394531 6.464844 200.164062 5.214844 198.484375 5.214844 C 197.410156 5.214844 196.609375 5.449219 195.730469 5.957031 L 195.828125 7.148438 C 196.628906 6.5625 197.449219 6.25 198.484375 6.25 C 199.304688 6.25 200.027344 6.914062 200.027344 8.222656 L 200.027344 8.964844 C 199.226562 8.984375 198.152344 9.042969 197.078125 9.394531 C 195.867188 9.824219 195.164062 10.488281 195.164062 11.367188 C 195.164062 12.167969 195.632812 13.613281 197.15625 13.613281 C 198.152344 13.613281 199.402344 13.320312 200.066406 12.773438 L 200.066406 13.4375 L 201.394531 13.4375 Z M 200.027344 11.035156 C 200.027344 11.386719 200.027344 11.816406 199.441406 12.1875 C 198.953125 12.480469 198.347656 12.539062 198.074219 12.539062 C 197.117188 12.539062 196.453125 12.011719 196.453125 11.367188 C 196.453125 10.136719 198.933594 9.863281 200.027344 9.863281 Z M 200.027344 11.035156 "/>
<path style=" stroke:none;fill-rule:nonzero;fill:rgb(0%,0%,100%);fill-opacity:1;" d="M 205.847656 6.523438 L 208.328125 6.523438 L 208.328125 5.46875 L 205.847656 5.46875 L 205.847656 3.203125 L 204.617188 3.203125 L 204.617188 5.46875 L 203.113281 5.46875 L 203.113281 6.523438 L 204.578125 6.523438 L 204.578125 11.347656 C 204.578125 12.382812 204.8125 13.613281 206.042969 13.613281 C 207.253906 13.613281 208.074219 13.203125 208.621094 12.910156 L 208.347656 11.875 C 207.722656 12.441406 207.058594 12.5 206.746094 12.5 C 205.945312 12.5 205.847656 11.660156 205.847656 11.035156 Z M 205.847656 6.523438 "/>
<path style=" stroke:none;fill-rule:nonzero;fill:rgb(0%,0%,100%);fill-opacity:1;" d="M 211.914062 1.269531 L 210.371094 1.269531 L 210.371094 2.8125 L 211.914062 2.8125 Z M 211.816406 5.46875 L 210.488281 5.46875 L 210.488281 13.4375 L 211.816406 13.4375 Z M 211.816406 5.46875 "/>
<path style=" stroke:none;fill-rule:nonzero;fill:rgb(0%,0%,100%);fill-opacity:1;" d="M 221.035156 5.46875 L 219.707031 5.46875 L 218.398438 9.042969 C 218.085938 9.902344 217.421875 11.796875 217.324219 12.460938 L 217.304688 12.460938 C 217.207031 11.835938 216.855469 10.859375 216.582031 10.078125 L 214.921875 5.46875 L 213.535156 5.46875 L 216.484375 13.4375 L 218.085938 13.4375 Z M 221.035156 5.46875 "/>
<path style=" stroke:none;fill-rule:nonzero;fill:rgb(0%,0%,100%);fill-opacity:1;" d="M 228.6875 9.394531 C 228.6875 8.632812 228.609375 7.539062 228.042969 6.582031 C 227.300781 5.351562 226.050781 5.214844 225.523438 5.214844 C 223.589844 5.214844 221.96875 7.070312 221.96875 9.394531 C 221.96875 11.777344 223.6875 13.613281 225.777344 13.613281 C 226.597656 13.613281 227.59375 13.378906 228.570312 12.675781 C 228.570312 12.597656 228.511719 12.03125 228.511719 12.011719 C 228.492188 11.992188 228.472656 11.582031 228.472656 11.523438 C 227.398438 12.421875 226.34375 12.539062 225.816406 12.539062 C 224.429688 12.539062 223.238281 11.308594 223.21875 9.394531 Z M 223.316406 8.4375 C 223.628906 7.226562 224.46875 6.289062 225.523438 6.289062 C 226.089844 6.289062 227.320312 6.542969 227.613281 8.4375 Z M 223.316406 8.4375 "/>
<path style=" stroke:none;fill-rule:nonzero;fill:rgb(0%,0%,100%);fill-opacity:1;" d="M 235.199219 5.761719 C 234.066406 5.234375 233.089844 5.214844 232.679688 5.214844 C 232.269531 5.214844 229.769531 5.214844 229.769531 7.539062 C 229.769531 8.320312 230.199219 8.867188 230.472656 9.121094 C 231.117188 9.667969 231.566406 9.765625 232.621094 9.980469 C 233.226562 10.097656 234.261719 10.3125 234.261719 11.269531 C 234.261719 12.5 232.855469 12.5 232.601562 12.5 C 231.898438 12.5 230.84375 12.304688 229.886719 11.601562 L 229.671875 12.832031 C 229.75 12.890625 230.980469 13.613281 232.621094 13.613281 C 234.945312 13.613281 235.492188 12.226562 235.492188 11.152344 C 235.492188 10.253906 234.945312 9.667969 234.867188 9.589844 C 234.203125 8.90625 233.65625 8.789062 232.582031 8.574219 C 231.917969 8.457031 231.019531 8.28125 231.019531 7.382812 C 231.019531 6.269531 232.269531 6.269531 232.503906 6.269531 C 233.441406 6.269531 234.203125 6.484375 234.984375 6.933594 Z M 235.199219 5.761719 "/>
<path style=" stroke:none;fill-rule:nonzero;fill:rgb(0%,0%,100%);fill-opacity:1;" d="M 237.984375 17.929688 C 240.660156 15.527344 241.34375 11.894531 241.34375 8.964844 C 241.34375 5.820312 240.582031 2.304688 237.984375 0 L 236.910156 0 C 237.59375 0.644531 238.6875 2.03125 239.332031 4.0625 C 239.800781 5.664062 239.976562 7.324219 239.976562 8.964844 C 239.976562 14.238281 238.101562 16.835938 236.910156 17.929688 Z M 237.984375 17.929688 "/>
<path style=" stroke:none;fill-rule:nonzero;fill:rgb(0%,0%,0%);fill-opacity:1;" d="M 2.1875 26.1875 L 6.113281 26.1875 C 6.582031 26.1875 6.835938 26.089844 6.835938 25.484375 C 6.835938 24.9375 6.640625 24.78125 6.113281 24.78125 L 2.1875 24.78125 L 2.1875 22.027344 L 2.929688 22.027344 C 4.082031 22.027344 5.273438 22.066406 6.425781 22.066406 C 6.953125 22.066406 7.304688 22.066406 7.304688 21.34375 L 7.304688 21.226562 C 7.304688 20.757812 7.1875 20.503906 6.582031 20.503906 L 0.703125 20.503906 C 0.175781 20.503906 0 20.679688 0 21.226562 L 0 30.113281 C 0 30.660156 0.15625 30.835938 0.703125 30.835938 L 6.796875 30.835938 C 7.382812 30.835938 7.519531 30.640625 7.519531 30.113281 L 7.519531 29.917969 C 7.519531 29.195312 7.1875 29.195312 6.679688 29.195312 C 5.917969 29.195312 5.15625 29.214844 4.375 29.214844 C 4.003906 29.214844 2.460938 29.234375 2.1875 29.253906 Z M 2.1875 26.1875 "/>
<path style=" stroke:none;fill-rule:nonzero;fill:rgb(0%,0%,0%);fill-opacity:1;" d="M 12.726562 27.300781 L 14.894531 24.644531 C 15.050781 24.449219 15.050781 24.390625 15.050781 24.3125 C 15.050781 24 14.757812 24 14.523438 24 L 13.878906 24 C 13.605469 24 13.429688 24 13.234375 24.214844 C 13.15625 24.292969 12.179688 25.582031 11.925781 25.933594 L 10.636719 24.3125 C 10.382812 24 10.226562 24 9.875 24 L 9.210938 24 C 9.035156 24 8.703125 24 8.703125 24.3125 C 8.703125 24.429688 8.742188 24.488281 8.839844 24.605469 L 11.105469 27.300781 L 8.742188 30.210938 C 8.644531 30.308594 8.585938 30.386719 8.585938 30.503906 C 8.585938 30.835938 8.917969 30.835938 9.132812 30.835938 L 9.777344 30.835938 C 10.265625 30.835938 10.304688 30.796875 10.617188 30.289062 L 11.90625 28.394531 L 13.429688 30.542969 C 13.644531 30.835938 13.820312 30.835938 14.132812 30.835938 L 14.796875 30.835938 C 15.011719 30.835938 15.324219 30.835938 15.324219 30.503906 C 15.324219 30.386719 15.265625 30.328125 15.148438 30.191406 Z M 12.726562 27.300781 "/>
<path style=" stroke:none;fill-rule:nonzero;fill:rgb(0%,0%,0%);fill-opacity:1;" d="M 22.667969 26.109375 C 22.667969 23.746094 20.402344 23.746094 19.640625 23.746094 C 18.9375 23.746094 18.195312 23.804688 17.199219 24.214844 C 16.886719 24.351562 16.808594 24.390625 16.808594 24.566406 C 16.808594 24.664062 16.90625 25.523438 16.90625 25.660156 C 16.925781 25.738281 17.003906 25.816406 17.101562 25.816406 C 17.179688 25.816406 17.21875 25.777344 17.277344 25.71875 C 17.921875 25.054688 18.664062 24.722656 19.582031 24.722656 C 20.402344 24.722656 20.636719 25.210938 20.636719 26.089844 L 20.636719 26.617188 C 20.109375 26.617188 16.203125 26.65625 16.203125 28.84375 C 16.203125 29.898438 17.042969 30.992188 18.351562 30.992188 C 18.859375 30.992188 19.972656 30.855469 20.675781 29.820312 L 20.675781 30.113281 C 20.675781 30.601562 20.792969 30.835938 21.398438 30.835938 L 21.945312 30.835938 C 22.511719 30.835938 22.667969 30.640625 22.667969 30.113281 Z M 20.636719 28.53125 C 20.636719 29.917969 19.210938 29.917969 19.171875 29.917969 C 18.546875 29.917969 18.136719 29.390625 18.136719 28.824219 C 18.136719 27.359375 20.207031 27.242188 20.636719 27.242188 Z M 20.636719 28.53125 "/>
<path style=" stroke:none;fill-rule:nonzero;fill:rgb(0%,0%,0%);fill-opacity:1;" d="M 35.582031 25.972656 C 35.582031 24.449219 34.917969 23.824219 33.394531 23.824219 C 32.339844 23.824219 31.519531 24.3125 30.972656 25.308594 C 30.738281 23.882812 29.46875 23.824219 28.84375 23.824219 C 28.550781 23.824219 27.925781 23.824219 27.242188 24.3125 C 26.792969 24.664062 26.480469 25.152344 26.382812 25.367188 L 26.363281 25.367188 L 26.363281 24.625 C 26.363281 24.136719 26.265625 23.902344 25.660156 23.902344 L 25.152344 23.902344 C 24.605469 23.902344 24.429688 24.058594 24.429688 24.625 L 24.429688 30.113281 C 24.429688 30.660156 24.585938 30.835938 25.152344 30.835938 L 25.738281 30.835938 C 26.304688 30.835938 26.460938 30.640625 26.460938 30.113281 L 26.460938 26.8125 C 26.460938 25.464844 27.378906 24.898438 28.101562 24.898438 C 28.824219 24.898438 28.980469 25.210938 28.980469 26.011719 L 28.980469 30.113281 C 28.980469 30.660156 29.15625 30.835938 29.703125 30.835938 L 30.308594 30.835938 C 30.875 30.835938 31.011719 30.640625 31.011719 30.113281 L 31.011719 26.8125 C 31.011719 25.464844 31.929688 24.898438 32.652344 24.898438 C 33.375 24.898438 33.550781 25.210938 33.550781 26.011719 L 33.550781 30.113281 C 33.550781 30.660156 33.707031 30.835938 34.253906 30.835938 L 34.859375 30.835938 C 35.425781 30.835938 35.582031 30.640625 35.582031 30.113281 Z M 35.582031 25.972656 "/>
<path style=" stroke:none;fill-rule:nonzero;fill:rgb(0%,0%,0%);fill-opacity:1;" d="M 39.382812 30.25 C 40.046875 30.992188 40.867188 30.992188 41.082031 30.992188 C 44.246094 30.992188 44.246094 28.140625 44.246094 27.378906 C 44.246094 26.65625 44.246094 23.824219 41.550781 23.824219 C 40.652344 23.824219 39.871094 24.195312 39.324219 24.703125 C 39.324219 24.136719 39.128906 24 38.621094 24 L 38.054688 24 C 37.527344 24 37.351562 24.15625 37.351562 24.703125 L 37.351562 33.023438 C 37.351562 33.550781 37.507812 33.726562 38.054688 33.726562 L 38.660156 33.726562 C 39.226562 33.726562 39.382812 33.53125 39.382812 33.023438 Z M 39.382812 25.484375 C 39.539062 25.328125 40.027344 24.996094 40.671875 24.996094 C 42.195312 24.996094 42.214844 26.753906 42.214844 27.417969 C 42.214844 28.003906 42.214844 29.917969 40.535156 29.917969 C 40.183594 29.917969 39.910156 29.800781 39.734375 29.664062 C 39.382812 29.410156 39.382812 29.351562 39.382812 29.078125 Z M 39.382812 25.484375 "/>
<path style=" stroke:none;fill-rule:nonzero;fill:rgb(0%,0%,0%);fill-opacity:1;" d="M 47.722656 21.1875 C 47.722656 20.699219 47.625 20.464844 47.019531 20.464844 L 46.453125 20.464844 C 45.925781 20.464844 45.75 20.640625 45.75 21.1875 L 45.75 30.113281 C 45.75 30.660156 45.90625 30.835938 46.453125 30.835938 L 47.019531 30.835938 C 47.585938 30.835938 47.722656 30.640625 47.722656 30.113281 Z M 47.722656 21.1875 "/>
<path style=" stroke:none;fill-rule:nonzero;fill:rgb(0%,0%,0%);fill-opacity:1;" d="M 55.027344 27.632812 C 55.359375 27.632812 55.730469 27.632812 55.730469 26.949219 C 55.730469 25.015625 54.851562 23.746094 52.625 23.746094 C 50.222656 23.746094 49.050781 25.074219 49.050781 27.359375 C 49.050781 29.800781 50.457031 30.992188 52.800781 30.992188 C 53.386719 30.992188 54.226562 30.933594 55.222656 30.425781 C 55.535156 30.269531 55.652344 30.230469 55.652344 30.035156 C 55.652344 29.9375 55.613281 29.507812 55.59375 29.390625 C 55.535156 28.921875 55.515625 28.902344 55.378906 28.902344 C 55.320312 28.902344 55.28125 28.902344 55.125 29.058594 C 54.246094 29.820312 53.347656 29.917969 52.878906 29.917969 C 51.179688 29.917969 51.003906 28.589844 50.964844 27.632812 Z M 50.964844 26.851562 C 51.023438 25.933594 51.316406 24.820312 52.625 24.820312 C 53.816406 24.820312 54.03125 25.679688 54.089844 26.851562 Z M 50.964844 26.851562 "/>
<path style=" stroke:none;fill-rule:nonzero;fill:rgb(0%,0%,0%);fill-opacity:1;" d="M 71.636719 24.507812 C 71.636719 24.253906 71.636719 24.175781 71.480469 24.175781 C 71.363281 24.175781 71.089844 24.507812 70.972656 24.644531 C 70.523438 24.253906 70.054688 24.175781 69.566406 24.175781 C 67.769531 24.175781 67.222656 25.152344 67.222656 25.972656 C 67.222656 26.148438 67.222656 26.675781 67.789062 27.183594 C 68.277344 27.613281 68.785156 27.710938 69.46875 27.847656 C 70.289062 28.003906 70.484375 28.0625 70.855469 28.355469 C 71.128906 28.570312 71.324219 28.902344 71.324219 29.332031 C 71.324219 29.976562 70.953125 30.679688 69.625 30.679688 C 68.648438 30.679688 67.925781 30.113281 67.59375 28.628906 C 67.535156 28.355469 67.535156 28.335938 67.535156 28.316406 C 67.496094 28.257812 67.4375 28.257812 67.398438 28.257812 C 67.222656 28.257812 67.222656 28.335938 67.222656 28.609375 L 67.222656 30.640625 C 67.222656 30.914062 67.222656 30.992188 67.378906 30.992188 C 67.457031 30.992188 67.457031 30.972656 67.710938 30.660156 C 67.789062 30.542969 67.789062 30.523438 68.023438 30.289062 C 68.589844 30.992188 69.390625 30.992188 69.644531 30.992188 C 71.207031 30.992188 71.988281 30.113281 71.988281 28.941406 C 71.988281 28.140625 71.5 27.652344 71.363281 27.515625 C 70.835938 27.046875 70.425781 26.96875 69.429688 26.792969 C 69 26.695312 67.90625 26.480469 67.90625 25.582031 C 67.90625 25.132812 68.21875 24.449219 69.566406 24.449219 C 71.1875 24.449219 71.285156 25.835938 71.304688 26.285156 C 71.324219 26.421875 71.421875 26.421875 71.480469 26.421875 C 71.636719 26.421875 71.636719 26.34375 71.636719 26.070312 Z M 71.636719 24.507812 "/>
<path style=" stroke:none;fill-rule:nonzero;fill:rgb(0%,0%,0%);fill-opacity:1;" d="M 75.03125 21.636719 C 75.03125 21.246094 74.71875 20.894531 74.308594 20.894531 C 73.917969 20.894531 73.585938 21.207031 73.585938 21.617188 C 73.585938 22.066406 73.9375 22.339844 74.308594 22.339844 C 74.757812 22.339844 75.03125 21.96875 75.03125 21.636719 Z M 72.980469 24.410156 L 72.980469 24.839844 C 73.917969 24.839844 74.054688 24.9375 74.054688 25.660156 L 74.054688 29.722656 C 74.054688 30.40625 73.898438 30.40625 72.921875 30.40625 L 72.921875 30.835938 C 73.351562 30.796875 74.054688 30.796875 74.503906 30.796875 C 74.660156 30.796875 75.519531 30.796875 76.027344 30.835938 L 76.027344 30.40625 C 75.070312 30.40625 75.011719 30.328125 75.011719 29.742188 L 75.011719 24.253906 Z M 72.980469 24.410156 "/>
<path style=" stroke:none;fill-rule:nonzero;fill:rgb(0%,0%,0%);fill-opacity:1;" d="M 83.125 27.203125 C 83.125 25.816406 83.125 25.40625 82.792969 24.917969 C 82.363281 24.332031 81.660156 24.253906 81.152344 24.253906 C 79.6875 24.253906 79.121094 25.484375 79.003906 25.777344 L 79.003906 24.253906 L 76.953125 24.410156 L 76.953125 24.839844 C 77.96875 24.839844 78.105469 24.957031 78.105469 25.679688 L 78.105469 29.722656 C 78.105469 30.40625 77.929688 30.40625 76.953125 30.40625 L 76.953125 30.835938 C 77.34375 30.796875 78.164062 30.796875 78.574219 30.796875 C 79.003906 30.796875 79.824219 30.796875 80.195312 30.835938 L 80.195312 30.40625 C 79.257812 30.40625 79.0625 30.40625 79.0625 29.722656 L 79.0625 26.949219 C 79.0625 25.386719 80.097656 24.546875 81.035156 24.546875 C 81.953125 24.546875 82.167969 25.308594 82.167969 26.226562 L 82.167969 29.722656 C 82.167969 30.40625 81.992188 30.40625 81.035156 30.40625 L 81.035156 30.835938 C 81.40625 30.796875 82.226562 30.796875 82.636719 30.796875 C 83.066406 30.796875 83.886719 30.796875 84.277344 30.835938 L 84.277344 30.40625 C 83.515625 30.40625 83.144531 30.40625 83.125 29.957031 Z M 83.125 27.203125 "/>
<path style=" stroke:none;fill-rule:nonzero;fill:rgb(0%,0%,0%);fill-opacity:1;" d="M 91.6875 22.722656 C 91.863281 22.722656 92.078125 22.722656 92.078125 22.507812 C 92.078125 22.273438 91.863281 22.273438 91.6875 22.273438 L 85.984375 22.273438 C 85.828125 22.273438 85.613281 22.273438 85.613281 22.507812 C 85.613281 22.722656 85.828125 22.722656 85.984375 22.722656 Z M 91.6875 22.722656 "/>
<path style=" stroke:none;fill-rule:nonzero;fill:rgb(0%,0%,0%);fill-opacity:1;" d="M 96.109375 18.640625 C 96.109375 18.367188 96.089844 18.367188 95.816406 18.367188 C 95.40625 18.757812 94.878906 18.992188 93.941406 18.992188 L 93.941406 19.324219 C 94.214844 19.324219 94.742188 19.324219 95.328125 19.070312 L 95.328125 24.167969 C 95.328125 24.539062 95.289062 24.65625 94.351562 24.65625 L 94 24.65625 L 94 24.988281 C 94.410156 24.949219 95.269531 24.949219 95.71875 24.949219 C 96.167969 24.949219 97.027344 24.949219 97.4375 24.988281 L 97.4375 24.65625 L 97.085938 24.65625 C 96.148438 24.65625 96.109375 24.539062 96.109375 24.167969 Z M 96.109375 18.640625 "/>
<path style=" stroke:none;fill-rule:nonzero;fill:rgb(0%,0%,0%);fill-opacity:1;" d="M 106.246094 34.46875 C 106.246094 34.429688 106.246094 34.390625 105.992188 34.136719 C 104.488281 32.632812 103.648438 30.171875 103.648438 27.125 C 103.648438 24.214844 104.351562 21.714844 106.089844 19.957031 C 106.246094 19.820312 106.246094 19.800781 106.246094 19.742188 C 106.246094 19.664062 106.167969 19.625 106.109375 19.625 C 105.914062 19.625 104.683594 20.699219 103.960938 22.164062 C 103.199219 23.6875 102.847656 25.269531 102.847656 27.125 C 102.847656 28.453125 103.0625 30.230469 103.824219 31.8125 C 104.722656 33.609375 105.933594 34.585938 106.109375 34.585938 C 106.167969 34.585938 106.246094 34.546875 106.246094 34.46875 Z M 106.246094 34.46875 "/>
<path style=" stroke:none;fill-rule:nonzero;fill:rgb(0%,0%,0%);fill-opacity:1;" d="M 116.925781 27.398438 C 117.179688 27.398438 117.453125 27.398438 117.453125 27.105469 C 117.453125 26.792969 117.179688 26.792969 116.925781 26.792969 L 108.839844 26.792969 C 108.585938 26.792969 108.3125 26.792969 108.3125 27.105469 C 108.3125 27.398438 108.585938 27.398438 108.839844 27.398438 Z M 116.925781 27.398438 "/>
<path style=" stroke:none;fill-rule:nonzero;fill:rgb(0%,0%,0%);fill-opacity:1;" d="M 125.722656 24.742188 C 125.234375 24.820312 125.058594 25.191406 125.058594 25.464844 C 125.058594 25.835938 125.332031 25.953125 125.546875 25.953125 C 125.996094 25.953125 126.308594 25.5625 126.308594 25.152344 C 126.308594 24.527344 125.585938 24.253906 124.960938 24.253906 C 124.0625 24.253906 123.554688 25.152344 123.417969 25.425781 C 123.066406 24.3125 122.148438 24.253906 121.875 24.253906 C 120.351562 24.253906 119.550781 26.207031 119.550781 26.539062 C 119.550781 26.597656 119.609375 26.675781 119.707031 26.675781 C 119.824219 26.675781 119.863281 26.578125 119.882812 26.519531 C 120.390625 24.859375 121.40625 24.546875 121.835938 24.546875 C 122.5 24.546875 122.636719 25.171875 122.636719 25.523438 C 122.636719 25.855469 122.539062 26.207031 122.363281 26.929688 L 121.855469 28.960938 C 121.640625 29.859375 121.210938 30.679688 120.410156 30.679688 C 120.332031 30.679688 119.960938 30.679688 119.648438 30.484375 C 120.195312 30.386719 120.3125 29.9375 120.3125 29.761719 C 120.3125 29.46875 120.078125 29.273438 119.804688 29.273438 C 119.433594 29.273438 119.042969 29.605469 119.042969 30.074219 C 119.042969 30.699219 119.746094 30.992188 120.390625 30.992188 C 121.113281 30.992188 121.621094 30.425781 121.933594 29.800781 C 122.167969 30.679688 122.929688 30.992188 123.476562 30.992188 C 125 30.992188 125.800781 29.019531 125.800781 28.707031 C 125.800781 28.628906 125.742188 28.570312 125.664062 28.570312 C 125.527344 28.570312 125.507812 28.648438 125.46875 28.765625 C 125.058594 30.074219 124.199219 30.679688 123.515625 30.679688 C 122.988281 30.679688 122.714844 30.289062 122.714844 29.683594 C 122.714844 29.351562 122.773438 29.117188 123.007812 28.140625 L 123.535156 26.089844 C 123.75 25.210938 124.257812 24.546875 124.960938 24.546875 C 124.980469 24.546875 125.410156 24.546875 125.722656 24.742188 Z M 125.722656 24.742188 "/>
<path style=" stroke:none;fill-rule:nonzero;fill:rgb(0%,0%,0%);fill-opacity:1;" d="M 131.101562 27.125 C 131.101562 25.972656 130.945312 24.136719 130.105469 22.398438 C 129.226562 20.601562 127.996094 19.625 127.839844 19.625 C 127.78125 19.625 127.703125 19.664062 127.703125 19.742188 C 127.703125 19.800781 127.703125 19.820312 127.957031 20.074219 C 129.460938 21.578125 130.28125 24.058594 130.28125 27.105469 C 130.28125 29.996094 129.578125 32.496094 127.859375 34.253906 C 127.703125 34.390625 127.703125 34.429688 127.703125 34.46875 C 127.703125 34.546875 127.78125 34.585938 127.839844 34.585938 C 128.035156 34.585938 129.265625 33.511719 129.988281 32.046875 C 130.75 30.523438 131.101562 28.902344 131.101562 27.125 Z M 131.101562 27.125 "/>
<path style=" stroke:none;fill-rule:nonzero;fill:rgb(0%,0%,0%);fill-opacity:1;" d="M 146.859375 25.992188 C 147.074219 25.992188 147.347656 25.992188 147.347656 25.71875 C 147.347656 25.445312 147.09375 25.445312 146.859375 25.445312 L 138.070312 25.445312 C 137.855469 25.445312 137.582031 25.445312 137.582031 25.71875 C 137.582031 25.992188 137.835938 25.992188 138.070312 25.992188 Z M 146.859375 28.765625 C 147.074219 28.765625 147.347656 28.765625 147.347656 28.511719 C 147.347656 28.21875 147.09375 28.21875 146.859375 28.21875 L 138.070312 28.21875 C 137.855469 28.21875 137.582031 28.21875 137.582031 28.492188 C 137.582031 28.765625 137.835938 28.765625 138.070312 28.765625 Z M 146.859375 28.765625 "/>
<path style=" stroke:none;fill-rule:nonzero;fill:rgb(0%,0%,0%);fill-opacity:1;" d="M 157.285156 24.507812 C 157.285156 24.253906 157.285156 24.175781 157.128906 24.175781 C 157.011719 24.175781 156.738281 24.507812 156.621094 24.644531 C 156.171875 24.253906 155.703125 24.175781 155.214844 24.175781 C 153.417969 24.175781 152.871094 25.152344 152.871094 25.972656 C 152.871094 26.148438 152.871094 26.675781 153.4375 27.183594 C 153.925781 27.613281 154.433594 27.710938 155.117188 27.847656 C 155.9375 28.003906 156.132812 28.0625 156.503906 28.355469 C 156.777344 28.570312 156.972656 28.902344 156.972656 29.332031 C 156.972656 29.976562 156.601562 30.679688 155.273438 30.679688 C 154.296875 30.679688 153.574219 30.113281 153.242188 28.628906 C 153.183594 28.355469 153.183594 28.335938 153.183594 28.316406 C 153.144531 28.257812 153.085938 28.257812 153.046875 28.257812 C 152.871094 28.257812 152.871094 28.335938 152.871094 28.609375 L 152.871094 30.640625 C 152.871094 30.914062 152.871094 30.992188 153.027344 30.992188 C 153.105469 30.992188 153.105469 30.972656 153.359375 30.660156 C 153.4375 30.542969 153.4375 30.523438 153.671875 30.289062 C 154.238281 30.992188 155.039062 30.992188 155.292969 30.992188 C 156.855469 30.992188 157.636719 30.113281 157.636719 28.941406 C 157.636719 28.140625 157.148438 27.652344 157.011719 27.515625 C 156.484375 27.046875 156.074219 26.96875 155.078125 26.792969 C 154.648438 26.695312 153.554688 26.480469 153.554688 25.582031 C 153.554688 25.132812 153.867188 24.449219 155.214844 24.449219 C 156.835938 24.449219 156.933594 25.835938 156.953125 26.285156 C 156.972656 26.421875 157.070312 26.421875 157.128906 26.421875 C 157.285156 26.421875 157.285156 26.34375 157.285156 26.070312 Z M 157.285156 24.507812 "/>
<path style=" stroke:none;fill-rule:nonzero;fill:rgb(0%,0%,0%);fill-opacity:1;" d="M 160.679688 21.636719 C 160.679688 21.246094 160.367188 20.894531 159.957031 20.894531 C 159.566406 20.894531 159.234375 21.207031 159.234375 21.617188 C 159.234375 22.066406 159.585938 22.339844 159.957031 22.339844 C 160.40625 22.339844 160.679688 21.96875 160.679688 21.636719 Z M 158.628906 24.410156 L 158.628906 24.839844 C 159.566406 24.839844 159.703125 24.9375 159.703125 25.660156 L 159.703125 29.722656 C 159.703125 30.40625 159.546875 30.40625 158.570312 30.40625 L 158.570312 30.835938 C 159 30.796875 159.703125 30.796875 160.152344 30.796875 C 160.308594 30.796875 161.167969 30.796875 161.675781 30.835938 L 161.675781 30.40625 C 160.71875 30.40625 160.660156 30.328125 160.660156 29.742188 L 160.660156 24.253906 Z M 158.628906 24.410156 "/>
<path style=" stroke:none;fill-rule:nonzero;fill:rgb(0%,0%,0%);fill-opacity:1;" d="M 168.773438 27.203125 C 168.773438 25.816406 168.773438 25.40625 168.441406 24.917969 C 168.011719 24.332031 167.308594 24.253906 166.800781 24.253906 C 165.335938 24.253906 164.769531 25.484375 164.652344 25.777344 L 164.652344 24.253906 L 162.601562 24.410156 L 162.601562 24.839844 C 163.617188 24.839844 163.753906 24.957031 163.753906 25.679688 L 163.753906 29.722656 C 163.753906 30.40625 163.578125 30.40625 162.601562 30.40625 L 162.601562 30.835938 C 162.992188 30.796875 163.8125 30.796875 164.222656 30.796875 C 164.652344 30.796875 165.472656 30.796875 165.84375 30.835938 L 165.84375 30.40625 C 164.90625 30.40625 164.710938 30.40625 164.710938 29.722656 L 164.710938 26.949219 C 164.710938 25.386719 165.746094 24.546875 166.683594 24.546875 C 167.601562 24.546875 167.816406 25.308594 167.816406 26.226562 L 167.816406 29.722656 C 167.816406 30.40625 167.640625 30.40625 166.683594 30.40625 L 166.683594 30.835938 C 167.054688 30.796875 167.875 30.796875 168.285156 30.796875 C 168.714844 30.796875 169.535156 30.796875 169.925781 30.835938 L 169.925781 30.40625 C 169.164062 30.40625 168.792969 30.40625 168.773438 29.957031 Z M 168.773438 27.203125 "/>
<path style=" stroke:none;fill-rule:nonzero;fill:rgb(0%,0%,0%);fill-opacity:1;" d="M 177.1875 22.722656 C 177.363281 22.722656 177.578125 22.722656 177.578125 22.507812 C 177.578125 22.273438 177.363281 22.273438 177.1875 22.273438 L 171.484375 22.273438 C 171.328125 22.273438 171.113281 22.273438 171.113281 22.507812 C 171.113281 22.722656 171.328125 22.722656 171.484375 22.722656 Z M 177.1875 22.722656 "/>
<path style=" stroke:none;fill-rule:nonzero;fill:rgb(0%,0%,0%);fill-opacity:1;" d="M 181.609375 18.640625 C 181.609375 18.367188 181.589844 18.367188 181.316406 18.367188 C 180.90625 18.757812 180.378906 18.992188 179.441406 18.992188 L 179.441406 19.324219 C 179.714844 19.324219 180.242188 19.324219 180.828125 19.070312 L 180.828125 24.167969 C 180.828125 24.539062 180.789062 24.65625 179.851562 24.65625 L 179.5 24.65625 L 179.5 24.988281 C 179.910156 24.949219 180.769531 24.949219 181.21875 24.949219 C 181.667969 24.949219 182.527344 24.949219 182.9375 24.988281 L 182.9375 24.65625 L 182.585938 24.65625 C 181.648438 24.65625 181.609375 24.539062 181.609375 24.167969 Z M 181.609375 18.640625 "/>
<path style=" stroke:none;fill-rule:nonzero;fill:rgb(0%,0%,0%);fill-opacity:1;" d="M 193.972656 24.742188 C 193.484375 24.820312 193.308594 25.191406 193.308594 25.464844 C 193.308594 25.835938 193.582031 25.953125 193.796875 25.953125 C 194.246094 25.953125 194.558594 25.5625 194.558594 25.152344 C 194.558594 24.527344 193.835938 24.253906 193.210938 24.253906 C 192.3125 24.253906 191.804688 25.152344 191.667969 25.425781 C 191.316406 24.3125 190.398438 24.253906 190.125 24.253906 C 188.601562 24.253906 187.800781 26.207031 187.800781 26.539062 C 187.800781 26.597656 187.859375 26.675781 187.957031 26.675781 C 188.074219 26.675781 188.113281 26.578125 188.132812 26.519531 C 188.640625 24.859375 189.65625 24.546875 190.085938 24.546875 C 190.75 24.546875 190.886719 25.171875 190.886719 25.523438 C 190.886719 25.855469 190.789062 26.207031 190.613281 26.929688 L 190.105469 28.960938 C 189.890625 29.859375 189.460938 30.679688 188.660156 30.679688 C 188.582031 30.679688 188.210938 30.679688 187.898438 30.484375 C 188.445312 30.386719 188.5625 29.9375 188.5625 29.761719 C 188.5625 29.46875 188.328125 29.273438 188.054688 29.273438 C 187.683594 29.273438 187.292969 29.605469 187.292969 30.074219 C 187.292969 30.699219 187.996094 30.992188 188.640625 30.992188 C 189.363281 30.992188 189.871094 30.425781 190.183594 29.800781 C 190.417969 30.679688 191.179688 30.992188 191.726562 30.992188 C 193.25 30.992188 194.050781 29.019531 194.050781 28.707031 C 194.050781 28.628906 193.992188 28.570312 193.914062 28.570312 C 193.777344 28.570312 193.757812 28.648438 193.71875 28.765625 C 193.308594 30.074219 192.449219 30.679688 191.765625 30.679688 C 191.238281 30.679688 190.964844 30.289062 190.964844 29.683594 C 190.964844 29.351562 191.023438 29.117188 191.257812 28.140625 L 191.785156 26.089844 C 192 25.210938 192.507812 24.546875 193.210938 24.546875 C 193.230469 24.546875 193.660156 24.546875 193.972656 24.742188 Z M 193.972656 24.742188 "/>
<path style=" stroke:none;fill-rule:nonzero;fill:rgb(0%,0%,0%);fill-opacity:1;" d="M 206.15625 27.476562 C 206.15625 26.832031 206.097656 25.914062 205.628906 25.132812 C 205.003906 24.097656 203.96875 23.980469 203.539062 23.980469 C 201.917969 23.980469 200.570312 25.523438 200.570312 27.476562 C 200.570312 29.449219 202.015625 30.992188 203.734375 30.992188 C 204.4375 30.992188 205.257812 30.796875 206.078125 30.191406 C 206.078125 30.132812 206.019531 29.664062 206.019531 29.644531 C 206.019531 29.625 205.980469 29.292969 205.980469 29.234375 C 205.101562 29.976562 204.222656 30.09375 203.773438 30.09375 C 202.621094 30.09375 201.644531 29.058594 201.605469 27.476562 Z M 201.703125 26.675781 C 201.957031 25.660156 202.660156 24.878906 203.539062 24.878906 C 203.988281 24.878906 205.023438 25.074219 205.277344 26.675781 Z M 201.703125 26.675781 "/>
<path style=" stroke:none;fill-rule:nonzero;fill:rgb(0%,0%,0%);fill-opacity:1;" d="M 209.089844 25.074219 L 211.140625 25.074219 L 211.140625 24.195312 L 209.089844 24.195312 L 209.089844 22.300781 L 208.054688 22.300781 L 208.054688 24.195312 L 206.804688 24.195312 L 206.804688 25.074219 L 208.015625 25.074219 L 208.015625 29.078125 C 208.015625 29.957031 208.210938 30.992188 209.246094 30.992188 C 210.242188 30.992188 210.945312 30.640625 211.394531 30.40625 L 211.179688 29.527344 C 210.652344 29.996094 210.105469 30.054688 209.832031 30.054688 C 209.167969 30.054688 209.089844 29.351562 209.089844 28.824219 Z M 209.089844 25.074219 "/>
<path style=" stroke:none;fill-rule:nonzero;fill:rgb(0%,0%,0%);fill-opacity:1;" d="M 217.777344 29.214844 C 217.09375 29.78125 216.332031 30.054688 215.492188 30.054688 C 214.242188 30.054688 213.441406 28.960938 213.441406 27.496094 C 213.441406 26.265625 214.046875 24.898438 215.53125 24.898438 C 216.527344 24.898438 216.957031 25.152344 217.601562 25.582031 L 217.777344 24.605469 C 216.898438 24.097656 216.410156 23.980469 215.53125 23.980469 C 213.460938 23.980469 212.308594 25.796875 212.308594 27.496094 C 212.308594 29.410156 213.675781 30.992188 215.472656 30.992188 C 216.195312 30.992188 217.035156 30.796875 217.855469 30.210938 C 217.855469 30.171875 217.816406 29.703125 217.796875 29.644531 Z M 217.777344 29.214844 "/>
<path style=" stroke:none;fill-rule:nonzero;fill:rgb(0%,0%,0%);fill-opacity:1;" d="M 220.871094 29.625 L 219.660156 29.625 L 219.660156 30.835938 L 220.871094 30.835938 Z M 220.871094 29.625 "/>
</g>
</svg>
