<?xml version="1.0" encoding="UTF-8" standalone="no"?>
<!-- Created with Inkscape (http://www.inkscape.org/) -->

<svg
   xmlns:dc="http://purl.org/dc/elements/1.1/"
   xmlns:cc="http://creativecommons.org/ns#"
   xmlns:rdf="http://www.w3.org/1999/02/22-rdf-syntax-ns#"
   xmlns:svg="http://www.w3.org/2000/svg"
   xmlns="http://www.w3.org/2000/svg"
   xmlns:sodipodi="http://sodipodi.sourceforge.net/DTD/sodipodi-0.dtd"
   xmlns:inkscape="http://www.inkscape.org/namespaces/inkscape"
   width="499.99997"
   height="500"
   id="svg5580"
   version="1.1"
   inkscape:version="0.48.3.1 r9886"
   sodipodi:docname="parabola-shifted-right.svg">
  <sodipodi:namedview
     id="base"
     pagecolor="#ffffff"
     bordercolor="#666666"
     borderopacity="1.0"
     inkscape:pageopacity="0.0"
     inkscape:pageshadow="2"
     inkscape:zoom="0.38769922"
     inkscape:cx="215.41911"
     inkscape:cy="130.96597"
     inkscape:document-units="px"
     inkscape:current-layer="layer1"
     showgrid="false"
     inkscape:window-width="915"
     inkscape:window-height="603"
     inkscape:window-x="127"
     inkscape:window-y="90"
     inkscape:window-maximized="0"
     fit-margin-top="0"
     fit-margin-left="0"
     fit-margin-right="0"
     fit-margin-bottom="0"
     showborder="false" />
  <defs
     id="defs5582" />
  <metadata
     id="metadata5585">
    <rdf:RDF>
      <cc:Work
         rdf:about="">
        <dc:format>image/svg+xml</dc:format>
        <dc:type
           rdf:resource="http://purl.org/dc/dcmitype/StillImage" />
        <dc:title></dc:title>
      </cc:Work>
    </rdf:RDF>
  </metadata>
  <g
     id="layer1"
     inkscape:groupmode="layer"
     inkscape:label="Layer 1"
     transform="translate(-111.49004,-157.14704)">
    <path
       id="path5595"
       title="pow(x,2)/3 + 1"
       d="m 609.64386,300.7954 -496.30766,0 m 248.15383,-141.80219 0,496.30768 m 248.15382,-70.9011 c -1.67107,-4.29703 -3.34214,-4.29703 -5.01321,-8.50726 -1.67107,-4.21023 -3.34214,-4.21023 -5.01321,-8.33364 -1.67107,-4.12343 -3.34214,-4.12343 -5.01321,-8.16003 -1.67107,-4.03661 -3.34213,-4.03661 -5.0132,-7.98642 -1.67107,-3.94979 -3.34214,-3.94979 -5.01321,-7.81279 -1.67107,-3.86299 -3.34214,-3.86299 -5.01321,-7.63916 -1.67106,-3.77619 -3.34214,-3.77619 -5.0132,-7.46556 -1.67107,-3.68938 -3.34215,-3.68938 -5.01321,-7.29194 -1.67107,-3.60258 -3.34214,-3.60258 -5.01321,-7.11832 -1.67107,-3.51576 -3.34214,-3.51576 -5.01321,-6.94471 -1.67107,-3.42895 -3.34213,-3.42895 -5.0132,-6.77109 -1.67107,-3.34214 -3.34214,-3.34214 -5.01321,-6.59747 -1.67107,-3.25533 -3.34214,-3.25533 -5.01321,-6.42385 -1.67107,-3.16852 -3.34214,-3.16852 -5.01321,-6.25023 -1.67107,-3.08172 -3.34214,-3.08172 -5.01321,-6.07662 -1.67107,-2.9949 -3.34214,-2.9949 -5.01321,-5.903 -1.67107,-2.90809 -3.34214,-2.90809 -5.01321,-5.72938 -1.67107,-2.82129 -3.34214,-2.82129 -5.0132,-5.55576 -1.67107,-2.73449 -3.34214,-2.73449 -5.01321,-5.38216 -1.67107,-2.64767 -3.34214,-2.64767 -5.01321,-5.20853 -1.67107,-2.56085 -3.34214,-2.56085 -5.01321,-5.03491 -1.67107,-2.47405 -3.34214,-2.47405 -5.01321,-4.86129 -1.67107,-2.38725 -3.34214,-2.38725 -5.01321,-4.68768 -1.67107,-2.30043 -3.34214,-2.30043 -5.01321,-4.51406 -1.67107,-2.21361 -3.34214,-2.21361 -5.0132,-4.34044 -1.67107,-2.12682 -3.34214,-2.12682 -5.01321,-4.16681 -1.67107,-2.04001 -3.34214,-2.04001 -5.01321,-3.99321 -1.67107,-1.9532 -3.34214,-1.9532 -5.01321,-3.81959 -1.67107,-1.86638 -3.34214,-1.86638 -5.01321,-3.64597 -1.67107,-1.77958 -3.34214,-1.77958 -5.01321,-3.47235 -1.67107,-1.69277 -3.34214,-1.69277 -5.01321,-3.29873 -1.67107,-1.60597 -3.34214,-1.60597 -5.0132,-3.12512 -1.67107,-1.51915 -3.34214,-1.51915 -5.01321,-2.9515 -1.67107,-1.43234 -3.34214,-1.43234 -5.01321,-2.77788 -1.67107,-1.34554 -3.34214,-1.34554 -5.01321,-2.60427 -1.67107,-1.25872 -3.34214,-1.25872 -5.01321,-2.43064 -1.67107,-1.17192 -3.34214,-1.17192 -5.01321,-2.25703 -1.67107,-1.08511 -3.34214,-1.08511 -5.01321,-2.08341 -1.67107,-0.9983 -3.34214,-0.9983 -5.0132,-1.9098 -1.67107,-0.91149 -3.34214,-0.91149 -5.01321,-1.73617 -1.67107,-0.82469 -3.34214,-0.82469 -5.01321,-1.56256 -1.67107,-0.73788 -3.34214,-0.73788 -5.01321,-1.38894 -1.67107,-0.65107 -3.34214,-0.65107 -5.01321,-1.21533 -1.67107,-0.56425 -3.34214,-0.56425 -5.01321,-1.0417 -1.67107,-0.47745 -3.34214,-0.47745 -5.01321,-0.86809 -1.67107,-0.39064 -3.34214,-0.39064 -5.0132,-0.69447 -1.67107,-0.30383 -3.34214,-0.30383 -5.01321,-0.52085 -1.67107,-0.21703 -3.34214,-0.21703 -5.01321,-0.34724 -1.67107,-0.13021 -3.34214,-0.13021 -5.01321,-0.17362 -1.67107,-0.0434 -3.34214,-0.0434 -5.01322,0 -1.67106,0.0434 -3.34213,0.0434 -5.01321,0.17362 -1.67107,0.13021 -3.34213,0.13021 -5.01321,0.34724 -1.67107,0.21702 -3.34214,0.21702 -5.01321,0.52085 -1.67106,0.30383 -3.34213,0.30383 -5.0132,0.69447 -1.67107,0.39064 -3.34214,0.39064 -5.01321,0.86809 -1.67107,0.47745 -3.34214,0.47745 -5.01321,1.0417 -1.67107,0.56426 -3.34214,0.56426 -5.01321,1.21533 -1.67107,0.65106 -3.34214,0.65106 -5.01321,1.38894 -1.67107,0.73787 -3.34214,0.73787 -5.01321,1.56256 -1.67107,0.82468 -3.34214,0.82468 -5.01321,1.73617 -1.67106,0.9115 -3.34213,0.9115 -5.0132,1.9098 -1.67107,0.9983 -3.34214,0.9983 -5.01321,2.08341 -1.67107,1.08511 -3.34214,1.08511 -5.01321,2.25703 -1.67107,1.17192 -3.34214,1.17192 -5.01321,2.43064 -1.67107,1.25873 -3.34214,1.25873 -5.01321,2.60427 -1.67107,1.34554 -3.34214,1.34554 -5.01321,2.77788 -1.67107,1.43235 -3.34214,1.43235 -5.01321,2.9515 -1.67106,1.51915 -3.34213,1.51915 -5.0132,3.12512 -1.67107,1.60596 -3.34214,1.60596 -5.01321,3.29873 -1.67107,1.69277 -3.34214,1.69277 -5.01321,3.47235 -1.67107,1.77959 -3.34214,1.77959 -5.01321,3.64597 -1.67107,1.86639 -3.34214,1.86639 -5.01321,3.81959 -1.67107,1.9532 -3.34214,1.9532 -5.01321,3.99321 -1.67107,2.04 -3.34214,2.04 -5.01321,4.16681 -1.67106,2.12683 -3.34213,2.12683 -5.0132,4.34044 -1.67107,2.21364 -3.34214,2.21364 -5.01321,4.51406 -1.67107,2.30043 -3.34214,2.30043 -5.01321,4.68768 -1.67107,2.38724 -3.34214,2.38724 -5.01321,4.86129 -1.67107,2.47405 -3.34214,2.47405 -5.01321,5.03491 -1.67107,2.56086 -3.34214,2.56086 -5.01321,5.20853 -1.67107,2.64767 -3.34214,2.64767 -5.01321,5.38216 -1.67106,2.73446 -3.34213,2.73446 -5.0132,5.55576 -1.67107,2.82129 -3.34214,2.82129 -5.01321,5.72938 -1.67107,2.9081 -3.34214,2.9081 -5.01321,5.903 -1.67107,2.9949 -3.34214,2.9949 -5.01321,6.07662 -1.67107,3.08171 -3.34214,3.08171 -5.01321,6.25023 -1.67107,3.16852 -3.34214,3.16852 -5.01321,6.42385 -1.67106,3.25533 -3.34213,3.25533 -5.0132,6.59747 -1.67107,3.34213 -3.34213,3.34213 -5.0132,6.77109 -1.67107,3.42895 -3.34214,3.42895 -5.01321,6.94471 -1.67107,3.51575 -3.34214,3.51575 -5.01321,7.11832 -1.67107,3.60255 -3.34214,3.60255 -5.01321,7.29194 -1.67107,3.68937 -3.34214,3.68937 -5.01321,7.46556 -1.67107,3.77618 -3.34214,3.77618 -5.01321,7.63916 -1.67107,3.863 -3.34214,3.863 -5.01321,7.81279 -1.67107,3.94982 -3.34213,3.94982 -5.0132,7.98642 -1.67107,4.03661 -3.34214,4.03661 -5.01321,8.16003 -1.67107,4.12342 -3.34214,4.12342 -5.01321,8.33365 -1.67107,4.21022 -3.34214,4.21022 -5.01321,8.50726"
       style="fill:none;stroke:#242316;stroke-width:3.69233441;stroke-linecap:round;stroke-linejoin:round;stroke-miterlimit:4;stroke-opacity:1;stroke-dasharray:none;stroke-dashoffset:0"
       inkscape:connector-curvature="0" />
  </g>
</svg>
