<?xml version="1.0" encoding="UTF-8" standalone="no"?>
<!-- Created with Inkscape (http://www.inkscape.org/) -->

<svg
   xmlns:dc="http://purl.org/dc/elements/1.1/"
   xmlns:cc="http://creativecommons.org/ns#"
   xmlns:rdf="http://www.w3.org/1999/02/22-rdf-syntax-ns#"
   xmlns:svg="http://www.w3.org/2000/svg"
   xmlns="http://www.w3.org/2000/svg"
   xmlns:sodipodi="http://sodipodi.sourceforge.net/DTD/sodipodi-0.dtd"
   xmlns:inkscape="http://www.inkscape.org/namespaces/inkscape"
   width="499.99997"
   height="500"
   id="svg5580"
   version="1.1"
   inkscape:version="0.48.3.1 r9886"
   sodipodi:docname="parabola-shifted-right.svg">
  <sodipodi:namedview
     id="base"
     pagecolor="#ffffff"
     bordercolor="#666666"
     borderopacity="1.0"
     inkscape:pageopacity="0.0"
     inkscape:pageshadow="2"
     inkscape:zoom="0.38769922"
     inkscape:cx="215.41911"
     inkscape:cy="130.96597"
     inkscape:document-units="px"
     inkscape:current-layer="layer1"
     showgrid="false"
     inkscape:window-width="915"
     inkscape:window-height="603"
     inkscape:window-x="127"
     inkscape:window-y="90"
     inkscape:window-maximized="0"
     fit-margin-top="0"
     fit-margin-left="0"
     fit-margin-right="0"
     fit-margin-bottom="0"
     showborder="false" />
  <defs
     id="defs5582" />
  <metadata
     id="metadata5585">
    <rdf:RDF>
      <cc:Work
         rdf:about="">
        <dc:format>image/svg+xml</dc:format>
        <dc:type
           rdf:resource="http://purl.org/dc/dcmitype/StillImage" />
        <dc:title />
      </cc:Work>
    </rdf:RDF>
  </metadata>
  <g
     transform="translate(-111.49004,-157.14704)"
     inkscape:label="Layer 1"
     inkscape:groupmode="layer"
     id="layer1">
    <path
       inkscape:connector-curvature="0"
       style="fill:none;stroke:#242316;stroke-width:3.69233441;stroke-linecap:round;stroke-linejoin:round;stroke-miterlimit:4;stroke-opacity:1;stroke-dasharray:none;stroke-dashoffset:0"
       d="m 255.13838,158.99322 0,496.30766 m -141.80219,-248.15383 496.30768,0 m -70.9011,-248.15382 c -4.29703,1.67107 -4.29703,3.34214 -8.50726,5.01321 -4.21023,1.67107 -4.21023,3.34214 -8.33364,5.01321 -4.12343,1.67107 -4.12343,3.34214 -8.16003,5.01321 -4.03661,1.67107 -4.03661,3.34213 -7.98642,5.0132 -3.94979,1.67107 -3.94979,3.34214 -7.81279,5.01321 -3.86299,1.67107 -3.86299,3.34214 -7.63916,5.01321 -3.77619,1.67106 -3.77619,3.34214 -7.46556,5.0132 -3.68938,1.67107 -3.68938,3.34215 -7.29194,5.01321 -3.60258,1.67107 -3.60258,3.34214 -7.11832,5.01321 -3.51576,1.67107 -3.51576,3.34214 -6.94471,5.01321 -3.42895,1.67107 -3.42895,3.34213 -6.77109,5.0132 -3.34214,1.67107 -3.34214,3.34214 -6.59747,5.01321 -3.25533,1.67107 -3.25533,3.34214 -6.42385,5.01321 -3.16852,1.67107 -3.16852,3.34214 -6.25023,5.01321 -3.08172,1.67107 -3.08172,3.34214 -6.07662,5.01321 -2.9949,1.67107 -2.9949,3.34214 -5.903,5.01321 -2.90809,1.67107 -2.90809,3.34214 -5.72938,5.01321 -2.82129,1.67107 -2.82129,3.34214 -5.55576,5.0132 -2.73449,1.67107 -2.73449,3.34214 -5.38216,5.01321 -2.64767,1.67107 -2.64767,3.34214 -5.20853,5.01321 -2.56085,1.67107 -2.56085,3.34214 -5.03491,5.01321 -2.47405,1.67107 -2.47405,3.34214 -4.86129,5.01321 -2.38725,1.67107 -2.38725,3.34214 -4.68768,5.01321 -2.30043,1.67107 -2.30043,3.34214 -4.51406,5.01321 -2.21361,1.67107 -2.21361,3.34214 -4.34044,5.0132 -2.12682,1.67107 -2.12682,3.34214 -4.16681,5.01321 -2.04001,1.67107 -2.04001,3.34214 -3.99321,5.01321 -1.9532,1.67107 -1.9532,3.34214 -3.81959,5.01321 -1.86638,1.67107 -1.86638,3.34214 -3.64597,5.01321 -1.77958,1.67107 -1.77958,3.34214 -3.47235,5.01321 -1.69277,1.67107 -1.69277,3.34214 -3.29873,5.01321 -1.60597,1.67107 -1.60597,3.34214 -3.12512,5.0132 -1.51915,1.67107 -1.51915,3.34214 -2.9515,5.01321 -1.43234,1.67107 -1.43234,3.34214 -2.77788,5.01321 -1.34554,1.67107 -1.34554,3.34214 -2.60427,5.01321 -1.25872,1.67107 -1.25872,3.34214 -2.43064,5.01321 -1.17192,1.67107 -1.17192,3.34214 -2.25703,5.01321 -1.08511,1.67107 -1.08511,3.34214 -2.08341,5.01321 -0.9983,1.67107 -0.9983,3.34214 -1.9098,5.0132 -0.91149,1.67107 -0.91149,3.34214 -1.73617,5.01321 -0.82469,1.67107 -0.82469,3.34214 -1.56256,5.01321 -0.73788,1.67107 -0.73788,3.34214 -1.38894,5.01321 -0.65107,1.67107 -0.65107,3.34214 -1.21533,5.01321 -0.56425,1.67107 -0.56425,3.34214 -1.0417,5.01321 -0.47745,1.67107 -0.47745,3.34214 -0.86809,5.01321 -0.39064,1.67107 -0.39064,3.34214 -0.69447,5.0132 -0.30383,1.67107 -0.30383,3.34214 -0.52085,5.01321 -0.21703,1.67107 -0.21703,3.34214 -0.34724,5.01321 -0.13021,1.67107 -0.13021,3.34214 -0.17362,5.01321 -0.0434,1.67107 -0.0434,3.34214 0,5.01322 0.0434,1.67106 0.0434,3.34213 0.17362,5.01321 0.13021,1.67107 0.13021,3.34213 0.34724,5.01321 0.21702,1.67107 0.21702,3.34214 0.52085,5.01321 0.30383,1.67106 0.30383,3.34213 0.69447,5.0132 0.39064,1.67107 0.39064,3.34214 0.86809,5.01321 0.47745,1.67107 0.47745,3.34214 1.0417,5.01321 0.56426,1.67107 0.56426,3.34214 1.21533,5.01321 0.65106,1.67107 0.65106,3.34214 1.38894,5.01321 0.73787,1.67107 0.73787,3.34214 1.56256,5.01321 0.82468,1.67107 0.82468,3.34214 1.73617,5.01321 0.9115,1.67106 0.9115,3.34213 1.9098,5.0132 0.9983,1.67107 0.9983,3.34214 2.08341,5.01321 1.08511,1.67107 1.08511,3.34214 2.25703,5.01321 1.17192,1.67107 1.17192,3.34214 2.43064,5.01321 1.25873,1.67107 1.25873,3.34214 2.60427,5.01321 1.34554,1.67107 1.34554,3.34214 2.77788,5.01321 1.43235,1.67107 1.43235,3.34214 2.9515,5.01321 1.51915,1.67106 1.51915,3.34213 3.12512,5.0132 1.60596,1.67107 1.60596,3.34214 3.29873,5.01321 1.69277,1.67107 1.69277,3.34214 3.47235,5.01321 1.77959,1.67107 1.77959,3.34214 3.64597,5.01321 1.86639,1.67107 1.86639,3.34214 3.81959,5.01321 1.9532,1.67107 1.9532,3.34214 3.99321,5.01321 2.04,1.67107 2.04,3.34214 4.16681,5.01321 2.12683,1.67106 2.12683,3.34213 4.34044,5.0132 2.21364,1.67107 2.21364,3.34214 4.51406,5.01321 2.30043,1.67107 2.30043,3.34214 4.68768,5.01321 2.38724,1.67107 2.38724,3.34214 4.86129,5.01321 2.47405,1.67107 2.47405,3.34214 5.03491,5.01321 2.56086,1.67107 2.56086,3.34214 5.20853,5.01321 2.64767,1.67107 2.64767,3.34214 5.38216,5.01321 2.73446,1.67106 2.73446,3.34213 5.55576,5.0132 2.82129,1.67107 2.82129,3.34214 5.72938,5.01321 2.9081,1.67107 2.9081,3.34214 5.903,5.01321 2.9949,1.67107 2.9949,3.34214 6.07662,5.01321 3.08171,1.67107 3.08171,3.34214 6.25023,5.01321 3.16852,1.67107 3.16852,3.34214 6.42385,5.01321 3.25533,1.67106 3.25533,3.34213 6.59747,5.0132 3.34213,1.67107 3.34213,3.34213 6.77109,5.0132 3.42895,1.67107 3.42895,3.34214 6.94471,5.01321 3.51575,1.67107 3.51575,3.34214 7.11832,5.01321 3.60255,1.67107 3.60255,3.34214 7.29194,5.01321 3.68937,1.67107 3.68937,3.34214 7.46556,5.01321 3.77618,1.67107 3.77618,3.34214 7.63916,5.01321 3.863,1.67107 3.863,3.34214 7.81279,5.01321 3.94982,1.67107 3.94982,3.34213 7.98642,5.0132 4.03661,1.67107 4.03661,3.34214 8.16003,5.01321 4.12342,1.67107 4.12342,3.34214 8.33365,5.01321 4.21022,1.67107 4.21022,3.34214 8.50726,5.01321"
       title="pow(x,2)/3 + 1"
       id="path5595" />
    <g
       id="g5738"
       transform="matrix(1.4107216,0,0,1.4107216,337.70968,292.5595)">
      <g
         word-spacing="normal"
         letter-spacing="normal"
         font-size-adjust="none"
         font-stretch="normal"
         font-weight="normal"
         font-variant="normal"
         font-style="normal"
         stroke-miterlimit="10.433"
         xml:space="preserve"
         transform="matrix(0.71428567,0,0,-0.71428567,-124.99999,375)"
         id="content"
         style="font-style:normal;font-variant:normal;font-weight:normal;font-stretch:normal;letter-spacing:normal;word-spacing:normal;text-anchor:start;fill:none;stroke:#000000;stroke-linecap:butt;stroke-linejoin:miter;stroke-miterlimit:10.43299961;stroke-opacity:1;stroke-dasharray:none;stroke-dashoffset:0"><path
           id="path5741"
           d="m 472.16,421.25 0.03,0.13 0.04,0.15 0.04,0.16 0.04,0.18 0.06,0.19 0.06,0.21 0.06,0.22 0.07,0.22 0.08,0.23 0.09,0.24 0.1,0.25 0.1,0.24 0.11,0.25 0.12,0.25 0.13,0.25 0.14,0.25 0.15,0.24 0.15,0.24 0.17,0.23 0.18,0.22 0.18,0.22 0.2,0.2 0.21,0.19 0.22,0.18 0.23,0.16 0.25,0.14 0.12,0.07 0.13,0.06 0.14,0.05 0.13,0.05 0.14,0.05 0.14,0.04 0.15,0.03 0.15,0.03 0.15,0.02 0.16,0.02 0.16,0.01 0.16,0 c 0.25,0 1.44,0 2.48,-0.64 -1.39,-0.25 -2.39,-1.5 -2.39,-2.69 0,-0.79 0.55,-1.75 1.89,-1.75 1.1,0 2.69,0.89 2.69,2.89 0,2.6 -2.94,3.28 -4.63,3.28 -2.89,0 -4.64,-2.64 -5.23,-3.78 -1.25,3.28 -3.94,3.78 -5.37,3.78 -5.19,0 -8.04,-6.42 -8.04,-7.67 0,-0.5 0.5,-0.5 0.61,-0.5 0.39,0 0.55,0.11 0.64,0.55 1.69,5.28 4.99,6.53 6.68,6.53 0.95,0 2.68,-0.44 2.68,-3.33 0,-1.54 -0.84,-4.89 -2.68,-11.86 -0.8,-3.09 -2.54,-5.18 -4.74,-5.18 -0.3,0 -1.44,0 -2.48,0.65 1.25,0.24 2.34,1.28 2.34,2.69 0,1.34 -1.09,1.73 -1.84,1.73 -1.5,0 -2.75,-1.29 -2.75,-2.89 0,-2.28 2.5,-3.28 4.68,-3.28 3.3,0 5.08,3.49 5.24,3.78 0.59,-1.84 2.39,-3.78 5.37,-3.78 5.14,0 7.99,6.42 7.99,7.67 0,0.5 -0.45,0.5 -0.61,0.5 -0.44,0 -0.55,-0.2 -0.64,-0.54 -1.64,-5.33 -5.03,-6.53 -6.63,-6.53 -1.95,0 -2.75,1.59 -2.75,3.29 0,1.1 0.3,2.19 0.86,4.38 z"
           inkscape:connector-curvature="0"
           style="fill:#000000;stroke-width:0" /></g>    </g>
    <g
       id="g5759"
       transform="matrix(1.2189814,0,0,1.2189814,28.118092,64.93683)">
      <g
         id="g5761"
         transform="matrix(0.71428567,0,0,-0.71428567,-124.99999,375)"
         xml:space="preserve"
         stroke-miterlimit="10.433"
         font-style="normal"
         font-variant="normal"
         font-weight="normal"
         font-stretch="normal"
         font-size-adjust="none"
         letter-spacing="normal"
         word-spacing="normal"
         style="font-style:normal;font-variant:normal;font-weight:normal;font-stretch:normal;letter-spacing:normal;word-spacing:normal;text-anchor:start;fill:none;stroke:#000000;stroke-linecap:butt;stroke-linejoin:miter;stroke-miterlimit:10.43299961;stroke-opacity:1;stroke-dasharray:none;stroke-dashoffset:0"><path
           d="m 479.74,425.18 0.01,0.04 0.01,0.03 0.01,0.06 0.02,0.05 0.01,0.06 0.01,0.05 0.02,0.04 0.01,0.05 0.01,0.04 0.01,0.04 0,0.04 0.01,0.04 0.01,0.04 0.01,0.03 0,0.03 0.01,0.03 0,0.03 0.01,0.03 0,0.03 0.01,0.05 0,0.06 0,0.05 0,0.05 0.01,0.05 0,0.03 0,0.03 0,0.03 0,0.03 c 0,0.91 -0.69,1.35 -1.44,1.35 -0.5,0 -1.3,-0.3 -1.75,-1.05 -0.1,-0.25 -0.5,-1.78 -0.69,-2.69 -0.36,-1.29 -0.7,-2.64 -1,-3.98 l -2.25,-8.97 c -0.19,-0.75 -2.33,-4.23 -5.62,-4.23 -2.54,0 -3.1,2.18 -3.1,4.03 0,2.29 0.86,5.39 2.55,9.76 0.8,2.05 1,2.6 1,3.6 0,2.23 -1.59,4.07 -4.09,4.07 -4.74,0 -6.58,-7.21 -6.58,-7.67 0,-0.5 0.5,-0.5 0.61,-0.5 0.5,0 0.54,0.11 0.79,0.91 1.35,4.69 3.33,6.17 5.03,6.17 0.4,0 1.25,0 1.25,-1.59 0,-1.25 -0.5,-2.53 -0.85,-3.49 -1.99,-5.28 -2.9,-8.12 -2.9,-10.47 0,-4.42 3.15,-5.92 6.08,-5.92 1.96,0 3.64,0.85 5.03,2.24 -0.64,-2.58 -1.23,-5.03 -3.23,-7.68 -1.3,-1.68 -3.19,-3.14 -5.48,-3.14 -0.69,0 -2.94,0.16 -3.79,2.1 0.8,0 1.46,0 2.14,0.61 0.5,0.43 1,1.09 1,2.03 0,1.55 -1.34,1.75 -1.84,1.75 -1.14,0 -2.8,-0.8 -2.8,-3.24 0,-2.5 2.21,-4.34 5.29,-4.34 5.14,0 10.26,4.55 11.67,10.17 z"
           id="path5763"
           inkscape:connector-curvature="0"
           style="fill:#000000;stroke-width:0" /></g>    </g>
    <g
       id="g5787"
       transform="matrix(1.2198665,0,0,1.2198665,-36.700196,352.59352)">
      <g
         word-spacing="normal"
         letter-spacing="normal"
         font-size-adjust="none"
         font-stretch="normal"
         font-weight="normal"
         font-variant="normal"
         font-style="normal"
         stroke-miterlimit="10.433"
         xml:space="preserve"
         transform="matrix(0.71428567,0,0,-0.71428567,-124.99999,375)"
         id="g5789"
         style="font-style:normal;font-variant:normal;font-weight:normal;font-stretch:normal;letter-spacing:normal;word-spacing:normal;text-anchor:start;fill:none;stroke:#000000;stroke-linecap:butt;stroke-linejoin:miter;stroke-miterlimit:10.43299961;stroke-opacity:1;stroke-dasharray:none;stroke-dashoffset:0"><path
           id="path5791"
           d="m 492.39,427.92 -0.01,0.74 -0.05,0.73 -0.07,0.71 -0.11,0.7 -0.13,0.68 -0.16,0.66 -0.19,0.64 -0.22,0.62 -0.24,0.6 -0.27,0.59 -0.29,0.56 -0.32,0.54 -0.34,0.52 -0.37,0.5 -0.38,0.47 -0.42,0.45 -0.43,0.43 -0.45,0.41 -0.48,0.38 -0.49,0.35 -0.52,0.33 -0.53,0.3 -0.55,0.28 -0.57,0.25 -0.59,0.22 -0.6,0.2 -0.62,0.16 -0.63,0.14 -0.65,0.1 -0.67,0.08 -0.67,0.05 -0.69,0.01 -0.3,-1.25 c 4.09,0 8.58,-2.78 8.58,-10.2 0,-3.59 -1.35,-11.36 -6.28,-17.5 -2.39,-3.03 -6.49,-5.97 -10.66,-5.97 h 0 c -4.94,0 -8.42,4.03 -8.42,10.61 0,2.19 0.69,9.47 4.53,15.3 3.44,5.17 8.31,7.76 12.25,7.76 l 0.3,1.25 c -10.75,0 -21.72,-11.31 -21.72,-22.92 0,-8.26 5.58,-13.29 12.76,-13.29 10.55,0 21.67,10.9 21.67,22.81 z"
           inkscape:connector-curvature="0"
           style="fill:#000000;stroke-width:0" /></g>    </g>
  </g>
</svg>
