<?xml version="1.0" encoding="UTF-8" standalone="no"?>
<!-- Created with Inkscape (http://www.inkscape.org/) -->

<svg
   xmlns:dc="http://purl.org/dc/elements/1.1/"
   xmlns:cc="http://creativecommons.org/ns#"
   xmlns:rdf="http://www.w3.org/1999/02/22-rdf-syntax-ns#"
   xmlns:svg="http://www.w3.org/2000/svg"
   xmlns="http://www.w3.org/2000/svg"
   xmlns:sodipodi="http://sodipodi.sourceforge.net/DTD/sodipodi-0.dtd"
   xmlns:inkscape="http://www.inkscape.org/namespaces/inkscape"
   width="500.47775"
   height="500.47775"
   id="svg4471"
   version="1.1"
   inkscape:version="0.48.3.1 r9886"
   sodipodi:docname="parabola-right.svg">
  <sodipodi:namedview
     id="base"
     pagecolor="#ffffff"
     bordercolor="#666666"
     borderopacity="1.0"
     inkscape:pageopacity="0.0"
     inkscape:pageshadow="2"
     inkscape:zoom="0.41620652"
     inkscape:cx="226.50444"
     inkscape:cy="160.79553"
     inkscape:document-units="px"
     inkscape:current-layer="layer1"
     showgrid="false"
     inkscape:window-width="864"
     inkscape:window-height="633"
     inkscape:window-x="231"
     inkscape:window-y="66"
     inkscape:window-maximized="0"
     fit-margin-top="0"
     fit-margin-left="0"
     fit-margin-right="0"
     fit-margin-bottom="0"
     showborder="false" />
  <defs
     id="defs4473" />
  <metadata
     id="metadata4476">
    <rdf:RDF>
      <cc:Work
         rdf:about="">
        <dc:format>image/svg+xml</dc:format>
        <dc:type
           rdf:resource="http://purl.org/dc/dcmitype/StillImage" />
        <dc:title />
      </cc:Work>
    </rdf:RDF>
  </metadata>
  <g
     transform="translate(-103.49637,-186.49887)"
     inkscape:label="Layer 1"
     inkscape:groupmode="layer"
     id="layer1">
    <path
       inkscape:connector-curvature="0"
       style="fill:none;stroke:#242316;stroke-width:4;stroke-linecap:round;stroke-linejoin:round;stroke-miterlimit:4;stroke-opacity:1;stroke-dasharray:none;stroke-dashoffset:0"
       d="m 247.34716,188.49887 0,496.47775 m -141.85079,-248.23887 496.47775,0 M 460.12333,188.49887 c -4.2985,1.67164 -4.2985,3.34328 -8.51017,5.01493 -4.21167,1.67164 -4.21167,3.34328 -8.33651,5.01492 -4.12483,1.67165 -4.12483,3.34329 -8.16282,5.01493 -4.03799,1.67164 -4.03799,3.34328 -7.98915,5.01493 -3.95115,1.67164 -3.95115,3.34328 -7.81547,5.01492 -3.86431,1.67165 -3.86431,3.34329 -7.64179,5.01493 -3.77748,1.67164 -3.77748,3.34329 -7.46812,5.01493 -3.69064,1.67164 -3.69064,3.34328 -7.29444,5.01492 -3.6038,1.67165 -3.6038,3.34329 -7.12076,5.01493 -3.51696,1.67164 -3.51696,3.34329 -6.94708,5.01493 -3.43013,1.67164 -3.43013,3.34328 -6.77341,5.01492 -3.34329,1.67165 -3.34329,3.34329 -6.59973,5.01493 -3.25645,1.67164 -3.25645,3.34329 -6.42605,5.01493 -3.16961,1.67164 -3.16961,3.34328 -6.25238,5.01492 -3.08277,1.67165 -3.08277,3.34329 -6.0787,5.01493 -2.99593,1.67164 -2.99593,3.34329 -5.90502,5.01493 -2.90909,1.67164 -2.90909,3.34328 -5.73135,5.01493 -2.82225,1.67164 -2.82225,3.34328 -5.55766,5.01492 -2.73542,1.67164 -2.73542,3.34329 -5.384,5.01493 -2.64857,1.67164 -2.64857,3.34328 -5.21031,5.01493 -2.56174,1.67164 -2.56174,3.34328 -5.03663,5.01492 -2.4749,1.67164 -2.4749,3.34329 -4.86296,5.01493 -2.38806,1.67164 -2.38806,3.34328 -4.68929,5.01493 -2.30122,1.67164 -2.30122,3.34328 -4.5156,5.01492 -2.21438,1.67164 -2.21438,3.34329 -4.34193,5.01493 -2.12754,1.67164 -2.12754,3.34328 -4.16825,5.01493 -2.04071,1.67164 -2.04071,3.34328 -3.99457,5.01492 -1.95387,1.67164 -1.95387,3.34329 -3.8209,5.01493 -1.86703,1.67164 -1.86703,3.34328 -3.64722,5.01493 -1.78019,1.67164 -1.78019,3.34328 -3.47354,5.01492 -1.69335,1.67165 -1.69335,3.34329 -3.29987,5.01493 -1.60651,1.67164 -1.60651,3.34328 -3.12619,5.01493 -1.51967,1.67164 -1.51967,3.34328 -2.95251,5.01492 -1.43283,1.67165 -1.43283,3.34329 -2.77883,5.01493 -1.346,1.67164 -1.346,3.34328 -2.60516,5.01493 -1.25916,1.67164 -1.25916,3.34328 -2.43148,5.01492 -1.17232,1.67165 -1.17232,3.34329 -2.2578,5.01493 -1.08548,1.67164 -1.08548,3.34328 -2.08412,5.01493 -0.99865,1.67164 -0.99865,3.34328 -1.91045,5.01492 -0.91181,1.67165 -0.91181,3.34329 -1.73677,5.01493 -0.82497,1.67164 -0.82497,3.34329 -1.5631,5.01493 -0.73813,1.67164 -0.73813,3.34328 -1.38942,5.01492 -0.65128,1.67165 -0.65128,3.34329 -1.21574,5.01493 -0.56445,1.67164 -0.56445,3.34329 -1.04206,5.01493 -0.47761,1.67164 -0.47761,3.34328 -0.86838,5.01492 -0.39078,1.67165 -0.39078,3.34329 -0.69471,5.01493 -0.30394,1.67164 -0.30394,3.34329 -0.52103,5.01493 -0.2171,1.67164 -0.2171,3.34328 -0.34736,5.01492 -0.13026,1.67165 -0.13026,3.34329 -0.17367,5.01493 -0.0434,1.67164 -0.0434,3.34329 0,5.01493 0.0434,1.67164 0.0434,3.34328 0.17367,5.01493 0.13026,1.67164 0.13026,3.34328 0.34736,5.01492 0.21709,1.67164 0.21709,3.34329 0.52103,5.01493 0.30393,1.67164 0.30393,3.34328 0.69471,5.01493 0.39077,1.67164 0.39077,3.34328 0.86838,5.01492 0.47761,1.67164 0.47761,3.34329 1.04206,5.01493 0.56446,1.67164 0.56446,3.34328 1.21574,5.01493 0.65129,1.67164 0.65129,3.34328 1.38942,5.01492 0.73813,1.67164 0.73813,3.34329 1.5631,5.01493 0.82496,1.67164 0.82496,3.34328 1.73677,5.01493 0.9118,1.67164 0.9118,3.34328 1.91045,5.01492 0.99864,1.67165 0.99864,3.34329 2.08412,5.01493 1.08548,1.67164 1.08548,3.34328 2.2578,5.01493 1.17232,1.67164 1.17232,3.34328 2.43148,5.01492 1.25916,1.67165 1.25916,3.34329 2.60516,5.01493 1.346,1.67164 1.346,3.34328 2.77883,5.01493 1.43284,1.67164 1.43284,3.34328 2.95251,5.01492 1.51968,1.67165 1.51968,3.34329 3.12619,5.01493 1.60652,1.67164 1.60652,3.34328 3.29987,5.01493 1.69335,1.67164 1.69335,3.34328 3.47354,5.01492 1.78019,1.67165 1.78019,3.34329 3.64722,5.01493 1.86703,1.67164 1.86703,3.34329 3.8209,5.01493 1.95386,1.67164 1.95386,3.34328 3.99457,5.01492 2.04071,1.67165 2.04071,3.34329 4.16825,5.01493 2.12755,1.67164 2.12755,3.34329 4.34193,5.01493 2.21438,1.67164 2.21438,3.34328 4.5156,5.01492 2.30123,1.67165 2.30123,3.34329 4.68929,5.01493 2.38806,1.67164 2.38806,3.34329 4.86296,5.01493 2.47489,1.67164 2.47489,3.34328 5.03663,5.01492 2.56174,1.67165 2.56174,3.34329 5.21031,5.01493 2.64858,1.67164 2.64858,3.34329 5.384,5.01493 2.73541,1.67164 2.73541,3.34328 5.55766,5.01492 2.82226,1.67165 2.82226,3.34329 5.73135,5.01493 2.90909,1.67164 2.90909,3.34329 5.90502,5.01493 2.99593,1.67164 2.99593,3.34328 6.0787,5.01493 3.08277,1.67164 3.08277,3.34328 6.25238,5.01492 3.1696,1.67164 3.1696,3.34329 6.42605,5.01493 3.25644,1.67164 3.25644,3.34328 6.59973,5.01493 3.34328,1.67164 3.34328,3.34328 6.77341,5.01492 3.43012,1.67164 3.43012,3.34329 6.94708,5.01493 3.51696,1.67164 3.51696,3.34328 7.12076,5.01493 3.6038,1.67164 3.6038,3.34328 7.29444,5.01492 3.69064,1.67164 3.69064,3.34329 7.46812,5.01493 3.77748,1.67164 3.77748,3.34328 7.64179,5.01493 3.86432,1.67164 3.86432,3.34328 7.81547,5.01492 3.95116,1.67165 3.95116,3.34329 7.98915,5.01493 4.03799,1.67164 4.03799,3.34328 8.16282,5.01493 4.12484,1.67164 4.12484,3.34328 8.33651,5.01492 4.21167,1.67165 4.21167,3.34329 8.51017,5.01493"
       title="pow(x,2)/3"
       id="path4994" />
    <g
       id="g5512"
       transform="matrix(1.2178177,0,0,1.2178177,-3.0652856,64.000235)">
      <g
         word-spacing="normal"
         letter-spacing="normal"
         font-size-adjust="none"
         font-stretch="normal"
         font-weight="normal"
         font-variant="normal"
         font-style="normal"
         stroke-miterlimit="10.433"
         xml:space="preserve"
         transform="matrix(0.71496821,0,0,-0.71496821,-125.11944,375.35831)"
         id="content"
         style="font-style:normal;font-variant:normal;font-weight:normal;font-stretch:normal;letter-spacing:normal;word-spacing:normal;text-anchor:start;fill:none;stroke:#000000;stroke-linecap:butt;stroke-linejoin:miter;stroke-miterlimit:10.43299961;stroke-opacity:1;stroke-dasharray:none;stroke-dashoffset:0"><path
           id="path5515"
           d="m 479.74,425.18 0.01,0.04 0.01,0.03 0.01,0.06 0.02,0.05 0.01,0.06 0.01,0.05 0.02,0.04 0.01,0.05 0.01,0.04 0.01,0.04 0,0.04 0.01,0.04 0.01,0.04 0.01,0.03 0,0.03 0.01,0.03 0,0.03 0.01,0.03 0,0.03 0.01,0.05 0,0.06 0,0.05 0,0.05 0.01,0.05 0,0.03 0,0.03 0,0.03 0,0.03 c 0,0.91 -0.69,1.35 -1.44,1.35 -0.5,0 -1.3,-0.3 -1.75,-1.05 -0.1,-0.25 -0.5,-1.78 -0.69,-2.69 -0.36,-1.29 -0.7,-2.64 -1,-3.98 l -2.25,-8.97 c -0.19,-0.75 -2.33,-4.23 -5.62,-4.23 -2.54,0 -3.1,2.18 -3.1,4.03 0,2.29 0.86,5.39 2.55,9.76 0.8,2.05 1,2.6 1,3.6 0,2.23 -1.59,4.07 -4.09,4.07 -4.74,0 -6.58,-7.21 -6.58,-7.67 0,-0.5 0.5,-0.5 0.61,-0.5 0.5,0 0.54,0.11 0.79,0.91 1.35,4.69 3.33,6.17 5.03,6.17 0.4,0 1.25,0 1.25,-1.59 0,-1.25 -0.5,-2.53 -0.85,-3.49 -1.99,-5.28 -2.9,-8.12 -2.9,-10.47 0,-4.42 3.15,-5.92 6.08,-5.92 1.96,0 3.64,0.85 5.03,2.24 -0.64,-2.58 -1.23,-5.03 -3.23,-7.68 -1.3,-1.68 -3.19,-3.14 -5.48,-3.14 -0.69,0 -2.94,0.16 -3.79,2.1 0.8,0 1.46,0 2.14,0.61 0.5,0.43 1,1.09 1,2.03 0,1.55 -1.34,1.75 -1.84,1.75 -1.14,0 -2.8,-0.8 -2.8,-3.24 0,-2.5 2.21,-4.34 5.29,-4.34 5.14,0 10.26,4.55 11.67,10.17 z"
           inkscape:connector-curvature="0"
           style="fill:#000000;stroke-width:0" /></g>    </g>
    <g
       id="g5533"
       transform="matrix(1.363945,0,0,1.363945,342.29047,329.34205)">
      <g
         id="g5535"
         transform="matrix(0.71496821,0,0,-0.71496821,-125.11944,375.35831)"
         xml:space="preserve"
         stroke-miterlimit="10.433"
         font-style="normal"
         font-variant="normal"
         font-weight="normal"
         font-stretch="normal"
         font-size-adjust="none"
         letter-spacing="normal"
         word-spacing="normal"
         style="font-style:normal;font-variant:normal;font-weight:normal;font-stretch:normal;letter-spacing:normal;word-spacing:normal;text-anchor:start;fill:none;stroke:#000000;stroke-linecap:butt;stroke-linejoin:miter;stroke-miterlimit:10.43299961;stroke-opacity:1;stroke-dasharray:none;stroke-dashoffset:0"><path
           d="m 472.16,421.25 0.03,0.13 0.04,0.15 0.04,0.16 0.04,0.18 0.06,0.19 0.06,0.21 0.06,0.22 0.07,0.22 0.08,0.23 0.09,0.24 0.1,0.25 0.1,0.24 0.11,0.25 0.12,0.25 0.13,0.25 0.14,0.25 0.15,0.24 0.15,0.24 0.17,0.23 0.18,0.22 0.18,0.22 0.2,0.2 0.21,0.19 0.22,0.18 0.23,0.16 0.25,0.14 0.12,0.07 0.13,0.06 0.14,0.05 0.13,0.05 0.14,0.05 0.14,0.04 0.15,0.03 0.15,0.03 0.15,0.02 0.16,0.02 0.16,0.01 0.16,0 c 0.25,0 1.44,0 2.48,-0.64 -1.39,-0.25 -2.39,-1.5 -2.39,-2.69 0,-0.79 0.55,-1.75 1.89,-1.75 1.1,0 2.69,0.89 2.69,2.89 0,2.6 -2.94,3.28 -4.63,3.28 -2.89,0 -4.64,-2.64 -5.23,-3.78 -1.25,3.28 -3.94,3.78 -5.37,3.78 -5.19,0 -8.04,-6.42 -8.04,-7.67 0,-0.5 0.5,-0.5 0.61,-0.5 0.39,0 0.55,0.11 0.64,0.55 1.69,5.28 4.99,6.53 6.68,6.53 0.95,0 2.68,-0.44 2.68,-3.33 0,-1.54 -0.84,-4.89 -2.68,-11.86 -0.8,-3.09 -2.54,-5.18 -4.74,-5.18 -0.3,0 -1.44,0 -2.48,0.65 1.25,0.24 2.34,1.28 2.34,2.69 0,1.34 -1.09,1.73 -1.84,1.73 -1.5,0 -2.75,-1.29 -2.75,-2.89 0,-2.28 2.5,-3.28 4.68,-3.28 3.3,0 5.08,3.49 5.24,3.78 0.59,-1.84 2.39,-3.78 5.37,-3.78 5.14,0 7.99,6.42 7.99,7.67 0,0.5 -0.45,0.5 -0.61,0.5 -0.44,0 -0.55,-0.2 -0.64,-0.54 -1.64,-5.33 -5.03,-6.53 -6.63,-6.53 -1.95,0 -2.75,1.59 -2.75,3.29 0,1.1 0.3,2.19 0.86,4.38 z"
           id="path5537"
           inkscape:connector-curvature="0"
           style="fill:#000000;stroke-width:0" /></g>    </g>
    <g
       id="g5561"
       transform="matrix(1.1587934,0,0,1.1587934,-32.125072,380.42377)">
      <g
         word-spacing="normal"
         letter-spacing="normal"
         font-size-adjust="none"
         font-stretch="normal"
         font-weight="normal"
         font-variant="normal"
         font-style="normal"
         stroke-miterlimit="10.433"
         xml:space="preserve"
         transform="matrix(0.71496821,0,0,-0.71496821,-125.11944,375.35831)"
         id="g5563"
         style="font-style:normal;font-variant:normal;font-weight:normal;font-stretch:normal;letter-spacing:normal;word-spacing:normal;text-anchor:start;fill:none;stroke:#000000;stroke-linecap:butt;stroke-linejoin:miter;stroke-miterlimit:10.43299961;stroke-opacity:1;stroke-dasharray:none;stroke-dashoffset:0"><path
           id="path5565"
           d="m 492.39,427.92 -0.01,0.74 -0.05,0.73 -0.07,0.71 -0.11,0.7 -0.13,0.68 -0.16,0.66 -0.19,0.64 -0.22,0.62 -0.24,0.6 -0.27,0.59 -0.29,0.56 -0.32,0.54 -0.34,0.52 -0.37,0.5 -0.38,0.47 -0.42,0.45 -0.43,0.43 -0.45,0.41 -0.48,0.38 -0.49,0.35 -0.52,0.33 -0.53,0.3 -0.55,0.28 -0.57,0.25 -0.59,0.22 -0.6,0.2 -0.62,0.16 -0.63,0.14 -0.65,0.1 -0.67,0.08 -0.67,0.05 -0.69,0.01 -0.3,-1.25 c 4.09,0 8.58,-2.78 8.58,-10.2 0,-3.59 -1.35,-11.36 -6.28,-17.5 -2.39,-3.03 -6.49,-5.97 -10.66,-5.97 h 0 c -4.94,0 -8.42,4.03 -8.42,10.61 0,2.19 0.69,9.47 4.53,15.3 3.44,5.17 8.31,7.76 12.25,7.76 l 0.3,1.25 c -10.75,0 -21.72,-11.31 -21.72,-22.92 0,-8.26 5.58,-13.29 12.76,-13.29 10.55,0 21.67,10.9 21.67,22.81 z"
           inkscape:connector-curvature="0"
           style="fill:#000000;stroke-width:0" /></g>    </g>
  </g>
</svg>
