<?xml version="1.0" encoding="UTF-8" standalone="no"?>
<!-- Created with Inkscape (http://www.inkscape.org/) -->

<svg
   xmlns:ns0="http://www.iki.fi/pav/software/textext/"
   xmlns:dc="http://purl.org/dc/elements/1.1/"
   xmlns:cc="http://creativecommons.org/ns#"
   xmlns:rdf="http://www.w3.org/1999/02/22-rdf-syntax-ns#"
   xmlns:svg="http://www.w3.org/2000/svg"
   xmlns="http://www.w3.org/2000/svg"
   xmlns:sodipodi="http://sodipodi.sourceforge.net/DTD/sodipodi-0.dtd"
   xmlns:inkscape="http://www.inkscape.org/namespaces/inkscape"
   width="541.99915"
   height="676.28101"
   id="svg3836"
   version="1.1"
   inkscape:version="0.48.3.1 r9886"
   sodipodi:docname="New document 3">
  <sodipodi:namedview
     id="base"
     pagecolor="#ffffff"
     bordercolor="#666666"
     borderopacity="1.0"
     inkscape:pageopacity="0.0"
     inkscape:pageshadow="2"
     inkscape:zoom="0.35"
     inkscape:cx="238.77213"
     inkscape:cy="349.9668"
     inkscape:document-units="px"
     inkscape:current-layer="layer1"
     showgrid="false"
     inkscape:window-width="908"
     inkscape:window-height="595"
     inkscape:window-x="361"
     inkscape:window-y="102"
     inkscape:window-maximized="0"
     fit-margin-top="0"
     fit-margin-left="0"
     fit-margin-right="0"
     fit-margin-bottom="0"
     showborder="false"
     inkscape:showpageshadow="false" />
  <defs
     id="defs3838" />
  <metadata
     id="metadata3841">
    <rdf:RDF>
      <cc:Work
         rdf:about="">
        <dc:format>image/svg+xml</dc:format>
        <dc:type
           rdf:resource="http://purl.org/dc/dcmitype/StillImage" />
        <dc:title></dc:title>
      </cc:Work>
    </rdf:RDF>
  </metadata>
  <g
     id="layer1"
     inkscape:groupmode="layer"
     inkscape:label="Layer 1"
     transform="translate(-86.227867,-206.04797)">
    <g
       style="font-style:normal;font-variant:normal;font-weight:normal;font-stretch:normal;letter-spacing:normal;word-spacing:normal;text-anchor:start;fill:none;stroke:#000000;stroke-linecap:butt;stroke-linejoin:miter;stroke-miterlimit:10.43299961;stroke-opacity:1;stroke-dasharray:none;stroke-dashoffset:0"
       ns0:preamble="/home/abhinavc/playpen/textext/preamble.ini"
       ns0:text="\\begin{TAB}(b){cc}{c|c|c|c|c|c}\n$P(S)$ &amp; $\\frac{1}{6}$ \\\\\n$P(C)$ &amp; $\\frac{1}{3}$ \\\\\n$P(T)$ &amp; $\\frac{1}{2}$ \\\\\n$P(A\\vert S)$ &amp; $0.01$ \\\\\n$P(A\\vert C)$ &amp; $0.03$ \\\\\n$P(A\\vert T)$ &amp; $0.15$ \\\\\n\\end{TAB}"
       word-spacing="normal"
       letter-spacing="normal"
       font-size-adjust="none"
       font-stretch="normal"
       font-weight="normal"
       font-variant="normal"
       font-style="normal"
       stroke-miterlimit="10.433"
       xml:space="preserve"
       transform="matrix(7.2086335,0,0,-7.2086335,-2257.4791,4075.282)"
       id="content">
<line
   id="line6345"
   y2="522.37"
   x2="400.31"
   y1="522.37"
   x1="325.13"
   style="stroke-width:0.69700003" />
<line
   id="line6347"
   y2="505.84"
   x2="400.31"
   y1="505.84"
   x1="325.13"
   style="stroke-width:0.69700003" />
<line
   id="line6349"
   y2="489.29999"
   x2="400.31"
   y1="489.29999"
   x1="325.13"
   style="stroke-width:0.69700003" />
<line
   id="line6351"
   y2="472.76999"
   x2="400.31"
   y1="472.76999"
   x1="325.13"
   style="stroke-width:0.69700003" />
<line
   id="line6353"
   y2="456.23001"
   x2="400.31"
   y1="456.23001"
   x1="325.13"
   style="stroke-width:0.69700003" />
<path
   id="path6355"
   d="m 335.84,531.29 0.04,0.26 0.67,2.7 c 0.09,0.35 0.11,0.38 0.54,0.38 h 0.95 c 0.83,0 1.36,-0.27 1.36,-0.96 0,-0.38 -0.2,-1.24 -0.59,-1.6 -0.5,-0.44 -1.09,-0.52 -1.53,-0.52 h -1.4 l -0.04,-0.26 h 1.69 c 1.41,0 2.79,1.03 2.79,2.14 0,0.77 -0.65,1.5 -1.96,1.5 h -3.22 c -0.19,0 -0.3,0 -0.3,-0.18 0,-0.12 0.09,-0.12 0.29,-0.12 0.13,0 0.31,-0.01 0.43,-0.02 0.16,-0.02 0.22,-0.05 0.22,-0.16 0,-0.04 -0.01,-0.07 -0.04,-0.19 l -1.34,-5.34 c -0.1,-0.38 -0.12,-0.46 -0.9,-0.46 -0.17,0 -0.28,0 -0.28,-0.19 0,-0.12 0.12,-0.12 0.15,-0.12 0.28,0 0.98,0.03 1.26,0.03 0.21,0 0.43,-0.01 0.64,-0.01 0.22,0 0.44,-0.02 0.65,-0.02 0.06,0 0.19,0 0.19,0.2 0,0.11 -0.09,0.11 -0.27,0.11 -0.37,0 -0.65,0 -0.65,0.18 0,0.06 0.02,0.11 0.03,0.17 z"
   inkscape:connector-curvature="0"
   style="fill:#000000;stroke-width:0" />
<path
   id="path6357"
   d="m 343.89,525.77 0,0 0,0.01 0,0 0,0 0,0.01 0,0 0,0 0,0.01 0,0 0,0 -0.01,0.01 0,0 0,0.01 -0.01,0 0,0.01 -0.01,0.01 0,0 -0.01,0.01 0,0 0,0.01 -0.01,0 0,0.01 0,0 -0.01,0 0,0.01 -0.01,0 0,0.01 -0.01,0 0,0.01 -0.01,0 0,0.01 -0.01,0.01 0,0 -0.01,0.01 -0.01,0 0,0.01 -0.01,0.01 -0.01,0 0,0.01 -0.01,0.01 -0.01,0.01 0,0 c -1.25,1.26 -1.57,3.13 -1.57,4.65 0,1.73 0.38,3.46 1.61,4.7 0.12,0.12 0.12,0.14 0.12,0.17 0,0.07 -0.04,0.1 -0.09,0.1 -0.1,0 -1,-0.68 -1.59,-1.94 -0.51,-1.09 -0.62,-2.19 -0.62,-3.03 0,-0.77 0.11,-1.97 0.65,-3.1 0.6,-1.22 1.46,-1.86 1.56,-1.86 0.05,0 0.09,0.03 0.09,0.1 z"
   inkscape:connector-curvature="0"
   style="fill:#000000;stroke-width:0" />
<path
   id="path6359"
   d="m 350.89,535.05 0,0.01 0,0 0,0 0,0.01 0,0 0,0 0,0.01 0,0 0,0.01 -0.01,0 0,0 0,0.01 0,0 0,0.01 -0.01,0 0,0 0,0.01 -0.01,0 0,0.01 0,0 -0.01,0 0,0.01 -0.01,0 0,0 -0.01,0 0,0.01 0,0 -0.01,0 0,0 0,0 -0.01,0 0,0 0,0 -0.01,0 0,0 0,0 -0.01,0 0,0 -0.01,0 c -0.05,0 -0.06,-0.01 -0.18,-0.15 l -0.47,-0.56 c -0.26,0.47 -0.78,0.71 -1.43,0.71 -1.26,0 -2.45,-1.14 -2.45,-2.34 0,-0.81 0.52,-1.26 1.03,-1.41 l 1.07,-0.28 c 0.36,-0.09 0.91,-0.24 0.91,-1.05 0,-0.9 -0.81,-1.83 -1.79,-1.83 -0.64,0 -1.74,0.22 -1.74,1.45 0,0.24 0.05,0.48 0.06,0.54 0.01,0.04 0.02,0.05 0.02,0.07 0,0.1 -0.07,0.11 -0.12,0.11 -0.05,0 -0.07,-0.01 -0.1,-0.05 -0.04,-0.03 -0.6,-2.3 -0.6,-2.33 0,-0.06 0.05,-0.1 0.11,-0.1 0.05,0 0.06,0.01 0.18,0.15 l 0.49,0.57 c 0.43,-0.58 1.1,-0.72 1.68,-0.72 1.35,0 2.53,1.32 2.53,2.55 0,0.69 -0.34,1.03 -0.49,1.17 -0.23,0.23 -0.38,0.26 -1.26,0.49 -0.22,0.06 -0.58,0.16 -0.67,0.18 -0.27,0.09 -0.61,0.38 -0.61,0.91 0,0.8 0.8,1.65 1.74,1.65 0.83,0 1.44,-0.43 1.44,-1.54 0,-0.32 -0.04,-0.5 -0.04,-0.56 0,-0.01 0,-0.1 0.12,-0.1 0.09,0 0.11,0.03 0.15,0.2 z"
   inkscape:connector-curvature="0"
   style="fill:#000000;stroke-width:0" />
<path
   id="path6361"
   d="m 354.03,530.63 0,0.08 0,0.07 0,0.08 0,0.08 -0.01,0.17 -0.01,0.18 -0.02,0.18 -0.02,0.19 -0.03,0.19 -0.03,0.2 -0.04,0.21 -0.05,0.2 -0.05,0.21 -0.06,0.21 -0.07,0.22 -0.08,0.21 -0.04,0.11 -0.05,0.1 -0.04,0.11 -0.05,0.1 c -0.6,1.23 -1.46,1.87 -1.55,1.87 -0.06,0 -0.1,-0.04 -0.1,-0.1 0,-0.03 0,-0.05 0.18,-0.23 0.98,-0.98 1.55,-2.56 1.55,-4.64 0,-1.7 -0.37,-3.44 -1.61,-4.7 -0.12,-0.11 -0.12,-0.13 -0.12,-0.16 0,-0.06 0.04,-0.1 0.1,-0.1 0.09,0 0.99,0.67 1.58,1.93 0.5,1.1 0.62,2.2 0.62,3.03 z"
   inkscape:connector-curvature="0"
   style="fill:#000000;stroke-width:0" />
<path
   id="path6363"
   d="m 381.86,536.5 0,0 0,0.01 0,0.01 0,0.01 0,0.01 0,0 0,0.01 0,0.01 0,0 0,0.01 0,0.01 0,0 0,0.01 0,0 0,0.01 -0.01,0.01 0,0 0,0 0,0.01 0,0.01 0,0.01 -0.01,0.01 0,0 -0.01,0.01 0,0 -0.01,0.01 0,0 -0.01,0 -0.01,0.01 -0.01,0 0,0 -0.01,0 -0.01,0.01 0,0 -0.01,0 -0.01,0 0,0 -0.01,0 0,0 -0.01,0 -0.01,0 0,0 -0.01,0 -0.01,0 -0.01,0 0,0 -0.01,0 -0.01,0 -0.01,0 -0.01,0 c -0.45,-0.44 -1.08,-0.45 -1.36,-0.45 v -0.25 c 0.16,0 0.62,0 1.01,0.2 v -3.55 c 0,-0.23 0,-0.32 -0.7,-0.32 h -0.27 v -0.25 c 0.13,0.01 0.99,0.03 1.24,0.03 0.22,0 1.1,-0.02 1.25,-0.03 v 0.25 h -0.26 c -0.7,0 -0.7,0.09 -0.7,0.32 z"
   inkscape:connector-curvature="0"
   style="fill:#000000;stroke-width:0" />
<line
   id="line6365"
   y2="530.64001"
   x2="383.5"
   y1="530.64001"
   x1="379.53"
   style="stroke-width:0.398" />
<path
   id="path6367"
   d="m 380.57,526.99 0,0.1 0.01,0.11 0,0.1 0,0.1 0.01,0.11 0.01,0.09 0.01,0.1 0.02,0.1 0.02,0.09 0.02,0.09 0.03,0.09 0.03,0.09 0.01,0.05 0.02,0.04 0.02,0.04 0.02,0.04 0.02,0.05 0.02,0.04 0.02,0.04 0.03,0.04 c 0.23,0.37 0.61,0.63 1.06,0.63 0.2,0 0.48,-0.06 0.62,-0.24 -0.17,-0.02 -0.32,-0.14 -0.32,-0.34 0,-0.17 0.12,-0.32 0.33,-0.32 0.21,0 0.33,0.13 0.33,0.34 0,0.4 -0.29,0.76 -0.98,0.76 -1,0 -2.03,-0.92 -2.03,-2.41 0,-1.8 0.85,-2.34 1.62,-2.34 0.85,0 1.59,0.64 1.59,1.55 0,0.89 -0.71,1.54 -1.52,1.54 l -0.04,-0.2 c 0.33,0 0.54,-0.12 0.72,-0.38 0.16,-0.26 0.17,-0.55 0.17,-0.96 0,-0.39 0,-0.69 -0.19,-0.96 -0.17,-0.24 -0.39,-0.37 -0.73,-0.37 h 0 c -0.35,0 -0.62,0.2 -0.77,0.5 -0.1,0.21 -0.16,0.56 -0.16,0.98 0,0.67 0.41,1.19 0.96,1.19 l 0.04,0.2 c -0.56,0 -0.86,-0.37 -1.02,-0.68 z"
   inkscape:connector-curvature="0"
   style="fill:#000000;stroke-width:0" />
<path
   id="path6369"
   d="m 335.26,514.75 0.04,0.26 0.68,2.7 c 0.09,0.35 0.11,0.38 0.53,0.38 h 0.96 c 0.83,0 1.35,-0.27 1.35,-0.95 0,-0.39 -0.2,-1.24 -0.59,-1.6 -0.49,-0.45 -1.09,-0.53 -1.53,-0.53 h -1.4 l -0.04,-0.26 h 1.69 c 1.41,0 2.8,1.04 2.8,2.15 0,0.76 -0.66,1.5 -1.96,1.5 h -3.23 c -0.18,0 -0.29,0 -0.29,-0.19 0,-0.12 0.09,-0.12 0.28,-0.12 0.13,0 0.31,-0.01 0.43,-0.02 0.16,-0.02 0.22,-0.05 0.22,-0.16 0,-0.04 -0.01,-0.07 -0.04,-0.19 l -1.33,-5.33 c -0.1,-0.39 -0.12,-0.47 -0.91,-0.47 -0.17,0 -0.28,0 -0.28,-0.19 0,-0.12 0.12,-0.12 0.15,-0.12 0.28,0 0.99,0.03 1.27,0.03 0.21,0 0.42,0 0.63,0 0.22,0 0.44,-0.03 0.65,-0.03 0.07,0 0.2,0 0.2,0.2 0,0.11 -0.09,0.11 -0.28,0.11 -0.37,0 -0.65,0 -0.65,0.18 0,0.06 0.02,0.11 0.03,0.17 z"
   inkscape:connector-curvature="0"
   style="fill:#000000;stroke-width:0" />
<path
   id="path6371"
   d="m 343.32,509.23 0,0.01 0,0 0,0 0,0.01 0,0 0,0 0,0.01 -0.01,0 0,0 0,0.01 0,0 -0.01,0.01 0,0 0,0.01 -0.01,0 0,0.01 -0.01,0.01 0,0 -0.01,0.01 0,0 0,0.01 -0.01,0 0,0 0,0.01 -0.01,0 0,0.01 -0.01,0 0,0.01 -0.01,0 0,0.01 -0.01,0 0,0.01 -0.01,0.01 0,0 -0.01,0.01 -0.01,0.01 0,0 -0.01,0.01 -0.01,0.01 0,0 -0.01,0.01 -0.01,0.01 c -1.24,1.25 -1.56,3.13 -1.56,4.65 0,1.73 0.38,3.45 1.6,4.7 0.13,0.12 0.13,0.14 0.13,0.17 0,0.07 -0.04,0.1 -0.1,0.1 -0.1,0 -0.99,-0.68 -1.58,-1.94 -0.51,-1.09 -0.63,-2.2 -0.63,-3.03 0,-0.78 0.11,-1.98 0.66,-3.1 0.59,-1.22 1.45,-1.87 1.55,-1.87 0.06,0 0.1,0.03 0.1,0.1 z"
   inkscape:connector-curvature="0"
   style="fill:#000000;stroke-width:0" />
<path
   id="path6373"
   d="m 351.46,518.52 0,0 0,0.01 0,0 0,0 0,0.01 0,0 0,0 0,0.01 0,0 -0.01,0.01 0,0 0,0 0,0.01 0,0 -0.01,0.01 0,0 0,0 -0.01,0.01 0,0 0,0 -0.01,0.01 0,0 -0.01,0 0,0.01 -0.01,0 0,0 0,0 -0.01,0 0,0 0,0 -0.01,0 0,0.01 0,0 -0.01,0 0,0 -0.01,0 0,0 0,0 -0.01,0 c -0.03,0 -0.04,-0.01 -0.15,-0.12 l -0.69,-0.77 c -0.09,0.14 -0.55,0.89 -1.65,0.89 -2.22,0 -4.46,-2.2 -4.46,-4.5 0,-1.64 1.17,-2.72 2.69,-2.72 0.87,0 1.62,0.39 2.15,0.85 0.93,0.82 1.1,1.72 1.1,1.75 0,0.1 -0.1,0.1 -0.12,0.1 -0.06,0 -0.11,-0.02 -0.13,-0.1 -0.09,-0.29 -0.32,-0.99 -1.01,-1.57 -0.68,-0.56 -1.31,-0.73 -1.83,-0.73 -0.89,0 -1.95,0.52 -1.95,2.07 0,0.57 0.21,2.18 1.21,3.34 0.6,0.7 1.54,1.2 2.42,1.2 1.02,0 1.61,-0.77 1.61,-1.92 0,-0.39 -0.03,-0.4 -0.03,-0.5 0,-0.1 0.11,-0.1 0.15,-0.1 0.13,0 0.13,0.02 0.17,0.2 z"
   inkscape:connector-curvature="0"
   style="fill:#000000;stroke-width:0" />
<path
   id="path6375"
   d="m 354.61,514.1 0,0.07 0,0.08 -0.01,0.08 0,0.08 -0.01,0.17 -0.01,0.17 -0.01,0.18 -0.03,0.19 -0.02,0.2 -0.03,0.2 -0.04,0.2 -0.05,0.21 -0.05,0.21 -0.06,0.21 -0.07,0.21 -0.08,0.21 -0.05,0.11 -0.04,0.11 -0.05,0.1 -0.05,0.11 c -0.59,1.22 -1.45,1.87 -1.55,1.87 -0.06,0 -0.1,-0.04 -0.1,-0.1 0,-0.03 0,-0.05 0.19,-0.23 0.97,-0.99 1.54,-2.57 1.54,-4.64 0,-1.7 -0.37,-3.45 -1.6,-4.7 -0.13,-0.12 -0.13,-0.14 -0.13,-0.17 0,-0.06 0.04,-0.1 0.1,-0.1 0.1,0 0.99,0.68 1.58,1.94 0.51,1.09 0.63,2.19 0.63,3.03 z"
   inkscape:connector-curvature="0"
   style="fill:#000000;stroke-width:0" />
<path
   id="path6377"
   d="m 381.86,519.96 0,0.01 0,0.01 0,0.01 0,0 0,0.01 0,0.01 0,0.01 0,0 0,0.01 0,0.01 0,0 0,0.01 0,0 0,0.01 0,0.01 -0.01,0 0,0.01 0,0 0,0.01 0,0.01 0,0 -0.01,0.01 0,0.01 -0.01,0 0,0.01 -0.01,0 0,0.01 -0.01,0 -0.01,0 -0.01,0.01 0,0 -0.01,0 -0.01,0 0,0 -0.01,0 -0.01,0 0,0 -0.01,0 0,0 -0.01,0 -0.01,0 0,0 -0.01,0 -0.01,0 -0.01,0 0,0 -0.01,0 -0.01,0.01 -0.01,0 -0.01,0 c -0.45,-0.44 -1.08,-0.45 -1.36,-0.45 v -0.25 c 0.16,0 0.62,0 1.01,0.2 v -3.55 c 0,-0.23 0,-0.32 -0.7,-0.32 h -0.27 v -0.25 c 0.13,0 0.99,0.03 1.24,0.03 0.22,0 1.1,-0.03 1.25,-0.03 v 0.25 h -0.26 c -0.7,0 -0.7,0.09 -0.7,0.32 z"
   inkscape:connector-curvature="0"
   style="fill:#000000;stroke-width:0" />
<line
   id="line6379"
   y2="514.10999"
   x2="383.5"
   y1="514.10999"
   x1="379.53"
   style="stroke-width:0.398" />
<path
   id="path6381"
   d="m 381.43,510.5 0.05,0 0.05,0 0.05,-0.01 0.05,0 0.04,-0.01 0.05,-0.02 0.04,-0.01 0.04,-0.02 0.05,-0.02 0.04,-0.02 0.04,-0.02 0.03,-0.03 0.04,-0.02 0.03,-0.03 0.04,-0.03 0.03,-0.04 0.03,-0.03 0.03,-0.04 0.03,-0.04 0.02,-0.05 0.02,-0.04 0.03,-0.05 0.02,-0.05 0.01,-0.05 0.02,-0.05 0.01,-0.06 0.02,-0.06 0.01,-0.06 0,-0.06 0.01,-0.06 0,-0.07 0,-0.07 c 0,-0.86 -0.5,-1.12 -0.9,-1.12 -0.28,0 -0.89,0.08 -1.19,0.49 0.33,0.01 0.41,0.24 0.41,0.39 0,0.22 -0.17,0.38 -0.39,0.38 -0.19,0 -0.39,-0.12 -0.39,-0.4 0,-0.66 0.73,-1.08 1.57,-1.08 0.97,0 1.64,0.65 1.64,1.34 0,0.54 -0.45,1.09 -1.21,1.25 0.73,0.26 0.99,0.78 0.99,1.21 0,0.55 -0.63,0.96 -1.41,0.96 -0.77,0 -1.36,-0.38 -1.36,-0.94 0,-0.23 0.15,-0.36 0.36,-0.36 0.22,0 0.36,0.16 0.36,0.35 0,0.2 -0.14,0.35 -0.36,0.36 0.25,0.31 0.73,0.39 0.98,0.39 0.32,0 0.76,-0.16 0.76,-0.76 0,-0.29 -0.1,-0.61 -0.28,-0.83 -0.23,-0.26 -0.43,-0.28 -0.77,-0.3 -0.18,-0.01 -0.19,-0.01 -0.23,-0.02 -0.01,0 -0.07,-0.01 -0.07,-0.09 0,-0.1 0.06,-0.1 0.18,-0.1 z"
   inkscape:connector-curvature="0"
   style="fill:#000000;stroke-width:0" />
<path
   id="path6383"
   d="m 335.58,498.22 0.03,0.26 0.68,2.7 c 0.09,0.35 0.11,0.38 0.54,0.38 h 0.95 c 0.83,0 1.36,-0.27 1.36,-0.96 0,-0.38 -0.2,-1.24 -0.59,-1.6 -0.5,-0.44 -1.1,-0.52 -1.53,-0.52 h -1.41 l -0.03,-0.26 h 1.69 c 1.41,0 2.79,1.03 2.79,2.14 0,0.77 -0.66,1.5 -1.96,1.5 h -3.22 c -0.19,0 -0.3,0 -0.3,-0.18 0,-0.12 0.09,-0.12 0.29,-0.12 0.13,0 0.31,-0.01 0.43,-0.02 0.15,-0.02 0.22,-0.05 0.22,-0.16 0,-0.04 -0.01,-0.07 -0.04,-0.19 l -1.34,-5.33 c -0.1,-0.39 -0.12,-0.47 -0.9,-0.47 -0.17,0 -0.28,0 -0.28,-0.19 0,-0.12 0.12,-0.12 0.15,-0.12 0.28,0 0.98,0.03 1.26,0.03 0.21,0 0.43,-0.01 0.64,-0.01 0.22,0 0.44,-0.02 0.64,-0.02 0.07,0 0.2,0 0.2,0.2 0,0.11 -0.09,0.11 -0.27,0.11 -0.37,0 -0.65,0 -0.65,0.18 0,0.06 0.02,0.11 0.03,0.17 z"
   inkscape:connector-curvature="0"
   style="fill:#000000;stroke-width:0" />
<path
   id="path6385"
   d="m 343.63,492.7 0,0 0,0.01 0,0 0,0 0,0.01 0,0 0,0 0,0.01 0,0 -0.01,0 0,0.01 0,0 0,0.01 -0.01,0 0,0.01 -0.01,0 0,0.01 -0.01,0.01 0,0 0,0.01 -0.01,0 0,0 -0.01,0.01 0,0 0,0.01 -0.01,0 0,0.01 -0.01,0 0,0.01 -0.01,0 0,0.01 -0.01,0.01 0,0 -0.01,0.01 -0.01,0 0,0.01 -0.01,0.01 -0.01,0 0,0.01 -0.01,0.01 -0.01,0.01 -0.01,0 c -1.24,1.26 -1.56,3.13 -1.56,4.65 0,1.73 0.38,3.46 1.6,4.7 0.13,0.12 0.13,0.14 0.13,0.17 0,0.07 -0.04,0.1 -0.1,0.1 -0.1,0 -0.99,-0.67 -1.58,-1.94 -0.51,-1.09 -0.62,-2.19 -0.62,-3.03 0,-0.77 0.1,-1.97 0.65,-3.1 0.6,-1.22 1.45,-1.86 1.55,-1.86 0.06,0 0.1,0.03 0.1,0.1 z"
   inkscape:connector-curvature="0"
   style="fill:#000000;stroke-width:0" />
<path
   id="path6387"
   d="m 348.46,501.11 0.01,0.03 0,0.02 0.01,0.02 0.01,0.02 0,0.03 0.01,0.01 0,0.02 0.01,0.02 0.01,0.02 0,0.01 0.01,0.02 0,0.01 0.01,0.01 0.01,0.02 0,0.01 0.01,0.01 0,0.01 0.01,0.01 0.01,0 0,0.01 0.01,0.01 0.01,0.01 0.01,0 0,0.01 0.01,0 0.01,0.01 0.01,0 0.01,0 0.01,0.01 0.01,0 0.01,0 0.01,0.01 c 0.09,0.02 0.42,0.02 0.63,0.02 1,0 1.45,-0.04 1.45,-0.82 0,-0.15 -0.04,-0.53 -0.08,-0.79 -0.01,-0.04 -0.03,-0.16 -0.03,-0.19 0,-0.06 0.03,-0.13 0.12,-0.13 0.11,0 0.13,0.08 0.15,0.23 l 0.27,1.73 c 0.01,0.04 0.02,0.14 0.02,0.17 0,0.1 -0.1,0.1 -0.27,0.1 h -5.52 c -0.24,0 -0.25,0 -0.32,-0.19 l -0.6,-1.75 c -0.01,-0.02 -0.06,-0.16 -0.06,-0.18 0,-0.06 0.05,-0.11 0.12,-0.11 0.1,0 0.11,0.05 0.17,0.21 0.54,1.54 0.8,1.72 2.27,1.72 h 0.39 c 0.28,0 0.28,-0.04 0.28,-0.12 0,-0.06 -0.03,-0.18 -0.04,-0.21 l -1.34,-5.31 c -0.09,-0.36 -0.12,-0.47 -1.18,-0.47 -0.36,0 -0.42,0 -0.42,-0.19 0,-0.12 0.11,-0.12 0.17,-0.12 0.27,0 0.55,0.02 0.82,0.02 0.27,0 0.56,0.01 0.84,0.01 0.28,0 0.56,-0.01 0.83,-0.01 0.29,0 0.59,-0.02 0.86,-0.02 0.1,0 0.22,0 0.22,0.2 0,0.11 -0.08,0.11 -0.34,0.11 -0.24,0 -0.37,0 -0.63,0.02 -0.29,0.03 -0.37,0.06 -0.37,0.22 0,0.01 0,0.06 0.04,0.2 z"
   inkscape:connector-curvature="0"
   style="fill:#000000;stroke-width:0" />
<path
   id="path6389"
   d="m 354.3,497.56 -0.01,0.08 0,0.07 0,0.08 0,0.08 -0.01,0.17 -0.01,0.18 -0.02,0.18 -0.02,0.19 -0.03,0.19 -0.03,0.2 -0.04,0.21 -0.04,0.2 -0.06,0.21 -0.06,0.21 -0.07,0.22 -0.08,0.21 -0.04,0.11 -0.04,0.1 -0.05,0.11 -0.05,0.1 c -0.6,1.23 -1.45,1.87 -1.55,1.87 -0.06,0 -0.1,-0.04 -0.1,-0.1 0,-0.03 0,-0.05 0.19,-0.23 0.97,-0.98 1.54,-2.56 1.54,-4.64 0,-1.7 -0.37,-3.44 -1.6,-4.7 -0.13,-0.12 -0.13,-0.13 -0.13,-0.16 0,-0.06 0.04,-0.1 0.1,-0.1 0.1,0 0.99,0.67 1.58,1.93 0.51,1.1 0.63,2.2 0.63,3.03 z"
   inkscape:connector-curvature="0"
   style="fill:#000000;stroke-width:0" />
<path
   id="path6391"
   d="m 381.86,503.43 0,0 0,0.01 0,0.01 0,0.01 0,0.01 0,0 0,0.01 0,0.01 0,0 0,0.01 0,0.01 0,0 0,0.01 0,0 0,0.01 0,0.01 -0.01,0 0,0 0,0.01 0,0.01 0,0.01 -0.01,0.01 0,0 -0.01,0.01 0,0 -0.01,0.01 0,0 -0.01,0 -0.01,0.01 0,0 -0.01,0 -0.01,0 -0.01,0.01 0,0 -0.01,0 0,0 -0.01,0 -0.01,0 0,0 -0.01,0 -0.01,0 0,0 -0.01,0 -0.01,0 -0.01,0 0,0 -0.01,0 -0.01,0 -0.01,0 -0.01,0 c -0.44,-0.44 -1.08,-0.45 -1.36,-0.45 v -0.25 c 0.16,0 0.62,0 1.01,0.2 v -3.55 c 0,-0.23 0,-0.32 -0.7,-0.32 h -0.26 V 499 c 0.12,0.01 0.98,0.03 1.24,0.03 0.21,0 1.09,-0.02 1.24,-0.03 v 0.25 h -0.26 c -0.7,0 -0.7,0.09 -0.7,0.32 z"
   inkscape:connector-curvature="0"
   style="fill:#000000;stroke-width:0" />
<line
   id="line6393"
   y2="497.57001"
   x2="383.5"
   y1="497.57001"
   x1="379.53"
   style="stroke-width:0.398" />
<path
   id="path6395"
   d="m 383.05,492.91 h -0.24 c -0.02,-0.15 -0.09,-0.56 -0.18,-0.63 -0.06,-0.04 -0.59,-0.04 -0.69,-0.04 h -1.28 c 0.73,0.64 0.97,0.84 1.39,1.16 0.51,0.42 1,0.85 1,1.51 0,0.84 -0.74,1.35 -1.63,1.35 -0.87,0 -1.45,-0.6 -1.45,-1.24 0,-0.36 0.3,-0.39 0.37,-0.39 0.16,0 0.36,0.12 0.36,0.37 0,0.12 -0.04,0.36 -0.41,0.36 0.22,0.5 0.69,0.65 1.02,0.65 0.7,0 1.06,-0.54 1.06,-1.1 0,-0.61 -0.43,-1.09 -0.66,-1.34 l -1.67,-1.65 c -0.07,-0.07 -0.07,-0.08 -0.07,-0.28 h 2.87 z"
   inkscape:connector-curvature="0"
   style="fill:#000000;stroke-width:0" />
<path
   id="path6397"
   d="m 330.72,481.68 0.04,0.26 0.67,2.7 c 0.09,0.35 0.11,0.38 0.54,0.38 h 0.95 c 0.83,0 1.36,-0.27 1.36,-0.95 0,-0.39 -0.2,-1.24 -0.59,-1.6 -0.5,-0.45 -1.09,-0.53 -1.53,-0.53 h -1.4 l -0.04,-0.26 h 1.69 c 1.41,0 2.79,1.04 2.79,2.15 0,0.77 -0.65,1.5 -1.96,1.5 h -3.22 c -0.19,0 -0.3,0 -0.3,-0.19 0,-0.12 0.09,-0.12 0.29,-0.12 0.13,0 0.31,-0.01 0.43,-0.02 0.16,-0.02 0.22,-0.05 0.22,-0.16 0,-0.04 -0.01,-0.07 -0.04,-0.19 l -1.34,-5.33 c -0.1,-0.39 -0.12,-0.47 -0.9,-0.47 -0.17,0 -0.28,0 -0.28,-0.19 0,-0.11 0.12,-0.11 0.15,-0.11 0.28,0 0.98,0.03 1.26,0.03 0.21,0 0.43,-0.01 0.64,-0.01 0.22,0 0.44,-0.02 0.65,-0.02 0.06,0 0.19,0 0.19,0.19 0,0.11 -0.09,0.11 -0.27,0.11 -0.37,0 -0.65,0 -0.65,0.18 0,0.06 0.02,0.11 0.03,0.17 z"
   inkscape:connector-curvature="0"
   style="fill:#000000;stroke-width:0" />
<path
   id="path6399"
   d="m 338.77,476.16 0,0.01 0,0 0,0 0,0.01 0,0 0,0 0,0.01 0,0 0,0 0,0.01 -0.01,0 0,0.01 0,0 -0.01,0.01 0,0 -0.01,0.01 0,0.01 -0.01,0 0,0.01 0,0 -0.01,0.01 0,0 0,0 -0.01,0.01 0,0 -0.01,0.01 0,0 -0.01,0.01 0,0 -0.01,0.01 0,0 -0.01,0.01 0,0.01 -0.01,0 -0.01,0.01 0,0.01 -0.01,0 -0.01,0.01 0,0.01 -0.01,0 -0.01,0.01 0,0.01 c -1.25,1.25 -1.57,3.13 -1.57,4.65 0,1.73 0.38,3.45 1.6,4.7 0.13,0.12 0.13,0.14 0.13,0.17 0,0.07 -0.04,0.09 -0.1,0.09 -0.09,0 -0.99,-0.67 -1.58,-1.93 -0.51,-1.09 -0.62,-2.2 -0.62,-3.03 0,-0.78 0.11,-1.98 0.65,-3.1 0.6,-1.22 1.46,-1.87 1.55,-1.87 0.06,0 0.1,0.03 0.1,0.1 z"
   inkscape:connector-curvature="0"
   style="fill:#000000;stroke-width:0" />
<path
   id="path6401"
   d="m 341.14,479.69 -0.04,-0.06 -0.04,-0.06 -0.03,-0.06 -0.04,-0.05 -0.04,-0.05 -0.04,-0.04 -0.03,-0.05 -0.04,-0.04 -0.04,-0.04 -0.04,-0.04 -0.03,-0.03 -0.04,-0.03 -0.04,-0.03 -0.03,-0.03 -0.04,-0.02 -0.04,-0.03 -0.04,-0.02 -0.04,-0.02 -0.03,-0.02 -0.04,-0.02 -0.04,-0.01 -0.04,-0.01 -0.04,-0.02 -0.04,-0.01 -0.04,-0.01 -0.04,-0.01 -0.04,0 -0.03,-0.01 -0.09,-0.01 -0.08,-0.01 c -0.12,-0.01 -0.21,-0.01 -0.21,-0.2 0,-0.05 0.05,-0.1 0.13,-0.1 0.27,0 0.58,0.03 0.86,0.03 0.33,0 0.68,-0.03 0.99,-0.03 0.06,0 0.19,0 0.19,0.18 0,0.11 -0.09,0.12 -0.16,0.12 -0.23,0.02 -0.46,0.1 -0.46,0.35 0,0.12 0.06,0.23 0.14,0.37 l 0.75,1.27 h 2.5 l -0.03,0.31 h -2.28 l 1.96,3.28 0.32,-3.28 0.03,-0.31 c 0.02,-0.21 0.16,-1.56 0.16,-1.66 0,-0.3 -0.52,-0.33 -0.72,-0.33 -0.14,0 -0.24,0 -0.24,-0.2 0,-0.1 0.12,-0.1 0.14,-0.1 0.41,0 0.84,0.03 1.25,0.03 0.25,0 0.87,-0.03 1.12,-0.03 0.06,0 0.18,0 0.18,0.19 0,0.11 -0.1,0.11 -0.23,0.11 -0.62,0 -0.62,0.07 -0.65,0.36 l -0.6,6.21 c -0.02,0.2 -0.02,0.24 -0.19,0.24 -0.16,0 -0.2,-0.07 -0.26,-0.17 z"
   inkscape:connector-curvature="0"
   style="fill:#000000;stroke-width:0" />
<path
   id="path6403"
   d="m 348.41,485.64 0,0.03 0,0.03 0,0.04 0,0.01 0,0.02 0,0.01 -0.01,0.02 0,0.02 0,0.01 0,0.01 -0.01,0.02 0,0.01 0,0.01 -0.01,0.02 -0.01,0.01 0,0.01 -0.01,0.01 -0.01,0.01 0,0.01 -0.01,0.01 -0.01,0 -0.01,0.01 -0.01,0 -0.01,0.01 0,0 -0.01,0 -0.01,0 0,0.01 -0.01,0 -0.01,0 -0.01,0 0,0 -0.01,0 -0.01,0 -0.01,0 -0.01,0 c -0.2,0 -0.2,-0.17 -0.2,-0.35 v -9.22 c 0,-0.18 0,-0.36 0.2,-0.36 0.2,0 0.2,0.18 0.2,0.36 z"
   inkscape:connector-curvature="0"
   style="fill:#000000;stroke-width:0" />
<path
   id="path6405"
   d="m 356.01,485.45 0,0 0,0.01 0,0 0,0 0,0.01 0,0 0,0 0,0.01 0,0 -0.01,0.01 0,0 0,0 0,0.01 0,0 -0.01,0.01 0,0 0,0 -0.01,0.01 0,0 0,0 -0.01,0.01 0,0 -0.01,0 0,0.01 -0.01,0 0,0 0,0 -0.01,0 0,0 0,0 -0.01,0 0,0.01 0,0 -0.01,0 0,0 0,0 -0.01,0 0,0 -0.01,0 c -0.05,0 -0.06,-0.01 -0.18,-0.15 l -0.47,-0.57 c -0.26,0.47 -0.78,0.72 -1.43,0.72 -1.26,0 -2.45,-1.14 -2.45,-2.35 0,-0.8 0.52,-1.26 1.03,-1.41 l 1.06,-0.27 c 0.37,-0.09 0.92,-0.24 0.92,-1.06 0,-0.89 -0.81,-1.83 -1.79,-1.83 -0.64,0 -1.74,0.22 -1.74,1.45 0,0.24 0.05,0.48 0.06,0.54 0.01,0.04 0.02,0.05 0.02,0.07 0,0.1 -0.07,0.11 -0.12,0.11 -0.05,0 -0.07,-0.01 -0.1,-0.04 -0.04,-0.04 -0.6,-2.3 -0.6,-2.33 0,-0.06 0.05,-0.1 0.11,-0.1 0.05,0 0.06,0.01 0.18,0.15 l 0.49,0.56 c 0.43,-0.57 1.1,-0.71 1.68,-0.71 1.35,0 2.53,1.32 2.53,2.55 0,0.69 -0.34,1.02 -0.49,1.16 -0.23,0.23 -0.38,0.27 -1.26,0.5 -0.22,0.06 -0.58,0.16 -0.67,0.18 -0.27,0.09 -0.61,0.38 -0.61,0.9 0,0.81 0.8,1.65 1.74,1.65 0.83,0 1.44,-0.43 1.44,-1.54 0,-0.32 -0.04,-0.5 -0.04,-0.56 0,-0.01 0,-0.09 0.12,-0.09 0.09,0 0.1,0.03 0.15,0.19 z"
   inkscape:connector-curvature="0"
   style="fill:#000000;stroke-width:0" />
<path
   id="path6407"
   d="m 359.15,481.03 0,0.07 0,0.08 0,0.08 0,0.08 -0.01,0.17 -0.01,0.17 -0.02,0.18 -0.02,0.19 -0.03,0.2 -0.03,0.2 -0.04,0.2 -0.05,0.21 -0.05,0.21 -0.06,0.21 -0.07,0.21 -0.08,0.21 -0.04,0.11 -0.05,0.11 -0.04,0.1 -0.05,0.11 c -0.6,1.22 -1.46,1.86 -1.55,1.86 -0.06,0 -0.1,-0.03 -0.1,-0.09 0,-0.03 0,-0.05 0.18,-0.23 0.98,-0.99 1.55,-2.56 1.55,-4.64 0,-1.7 -0.37,-3.45 -1.61,-4.7 -0.12,-0.12 -0.12,-0.14 -0.12,-0.17 0,-0.06 0.04,-0.1 0.1,-0.1 0.09,0 0.99,0.68 1.58,1.94 0.5,1.09 0.62,2.19 0.62,3.03 z"
   inkscape:connector-curvature="0"
   style="fill:#000000;stroke-width:0" />
<path
   id="path6409"
   d="m 377.23,481.72 0,0.15 0,0.15 0,0.15 -0.01,0.15 -0.01,0.15 -0.01,0.14 -0.02,0.15 -0.02,0.15 -0.02,0.14 -0.03,0.15 -0.03,0.14 -0.04,0.15 -0.04,0.14 -0.05,0.14 -0.05,0.14 -0.03,0.07 -0.04,0.07 c -0.45,0.95 -1.27,1.11 -1.69,1.11 -0.59,0 -1.32,-0.26 -1.73,-1.18 -0.32,-0.69 -0.37,-1.46 -0.37,-2.26 0,-0.74 0.04,-1.64 0.45,-2.39 0.43,-0.81 1.15,-1 1.64,-1 v 0.22 c -0.39,0 -0.97,0.24 -1.15,1.2 -0.11,0.59 -0.11,1.51 -0.11,2.09 0,0.64 0,1.29 0.08,1.83 0.19,1.18 0.93,1.27 1.18,1.27 0.33,0 0.99,-0.18 1.18,-1.16 0.1,-0.56 0.1,-1.31 0.1,-1.94 0,-0.74 0,-1.42 -0.11,-2.05 -0.15,-0.95 -0.72,-1.24 -1.17,-1.24 h 0 v -0.22 c 0.54,0 1.3,0.21 1.73,1.15 0.32,0.68 0.37,1.46 0.37,2.24 z"
   inkscape:connector-curvature="0"
   style="fill:#000000;stroke-width:0" />
<path
   id="path6411"
   d="m 379.55,479.07 0,0.03 0,0.03 -0.01,0.02 0,0.03 -0.01,0.02 0,0.03 -0.01,0.02 -0.01,0.03 -0.01,0.02 -0.02,0.02 -0.01,0.02 -0.01,0.02 -0.02,0.03 -0.01,0.02 -0.02,0.01 -0.02,0.02 -0.01,0.02 -0.02,0.02 -0.02,0.01 -0.02,0.02 -0.03,0.01 -0.02,0.01 -0.02,0.02 -0.02,0.01 -0.03,0.01 -0.02,0 -0.03,0.01 -0.02,0.01 -0.03,0 -0.02,0.01 -0.03,0 -0.03,0 c -0.29,0 -0.53,-0.24 -0.53,-0.53 0,-0.29 0.24,-0.52 0.53,-0.52 0.29,0 0.53,0.23 0.53,0.52 z"
   inkscape:connector-curvature="0"
   style="fill:#000000;stroke-width:0" />
<path
   id="path6413"
   d="m 384.98,481.72 0,0.15 0,0.15 0,0.15 -0.01,0.15 -0.01,0.15 -0.01,0.14 -0.02,0.15 -0.02,0.15 -0.02,0.14 -0.03,0.15 -0.03,0.14 -0.04,0.15 -0.04,0.14 -0.05,0.14 -0.05,0.14 -0.03,0.07 -0.04,0.07 c -0.45,0.95 -1.27,1.11 -1.69,1.11 -0.59,0 -1.32,-0.26 -1.73,-1.18 -0.32,-0.69 -0.37,-1.46 -0.37,-2.26 0,-0.74 0.04,-1.64 0.45,-2.39 0.43,-0.81 1.16,-1 1.64,-1 v 0.22 c -0.39,0 -0.97,0.24 -1.15,1.2 -0.11,0.59 -0.11,1.51 -0.11,2.09 0,0.64 0,1.29 0.08,1.83 0.19,1.18 0.94,1.27 1.18,1.27 0.33,0 0.99,-0.18 1.18,-1.16 0.1,-0.56 0.1,-1.31 0.1,-1.94 0,-0.74 0,-1.42 -0.11,-2.05 -0.15,-0.95 -0.72,-1.24 -1.17,-1.24 h 0 v -0.22 c 0.54,0 1.3,0.21 1.73,1.15 0.32,0.68 0.37,1.46 0.37,2.24 z"
   inkscape:connector-curvature="0"
   style="fill:#000000;stroke-width:0" />
<path
   id="path6415"
   d="m 388.31,484.9 0,0.01 0,0.01 0,0.02 0,0.01 0,0 0,0.01 0,0.01 0,0.01 0,0.01 0,0.01 0,0.01 0,0.01 0,0 0,0.01 0,0.01 0,0 0,0.01 0,0.01 0,0.01 -0.01,0.01 0,0.01 0,0.01 -0.01,0.01 0,0 -0.01,0.01 0,0.01 -0.01,0 -0.01,0.01 0,0 -0.01,0.01 -0.01,0 0,0 -0.01,0 0,0 -0.01,0 0,0 -0.01,0.01 -0.01,0 0,0 -0.01,0 -0.01,0 0,0 -0.01,0 -0.01,0 -0.01,0 -0.01,0 -0.01,0 -0.01,0 -0.01,0 -0.01,0 -0.01,0 -0.01,0 c -0.61,-0.64 -1.49,-0.64 -1.81,-0.64 v -0.3 c 0.2,0 0.79,0 1.31,0.26 v -5.15 c 0,-0.36 -0.03,-0.48 -0.93,-0.48 h -0.32 v -0.3 c 0.35,0.03 1.22,0.03 1.61,0.03 0.4,0 1.27,0 1.62,-0.03 v 0.3 h -0.32 c -0.9,0 -0.93,0.11 -0.93,0.48 z"
   inkscape:connector-curvature="0"
   style="fill:#000000;stroke-width:0" />
<path
   id="path6417"
   d="m 330.14,465.15 0.04,0.26 0.68,2.7 c 0.09,0.35 0.11,0.38 0.53,0.38 h 0.96 c 0.82,0 1.35,-0.27 1.35,-0.96 0,-0.38 -0.2,-1.24 -0.59,-1.6 -0.49,-0.44 -1.09,-0.52 -1.53,-0.52 h -1.4 l -0.04,-0.26 h 1.69 c 1.41,0 2.8,1.03 2.8,2.15 0,0.76 -0.66,1.5 -1.96,1.5 h -3.23 c -0.18,0 -0.29,0 -0.29,-0.19 0,-0.12 0.08,-0.12 0.28,-0.12 0.13,0 0.31,-0.01 0.43,-0.02 0.16,-0.02 0.22,-0.05 0.22,-0.16 0,-0.04 -0.01,-0.07 -0.04,-0.19 l -1.33,-5.33 c -0.1,-0.39 -0.12,-0.47 -0.91,-0.47 -0.17,0 -0.28,0 -0.28,-0.19 0,-0.12 0.12,-0.12 0.15,-0.12 0.28,0 0.99,0.03 1.27,0.03 0.21,0 0.42,-0.01 0.63,-0.01 0.22,0 0.44,-0.02 0.65,-0.02 0.07,0 0.2,0 0.2,0.2 0,0.11 -0.09,0.11 -0.28,0.11 -0.37,0 -0.65,0 -0.65,0.18 0,0.06 0.02,0.11 0.03,0.17 z"
   inkscape:connector-curvature="0"
   style="fill:#000000;stroke-width:0" />
<path
   id="path6419"
   d="m 338.2,459.63 0,0 0,0.01 0,0 0,0 0,0.01 0,0 0,0 -0.01,0.01 0,0 0,0 0,0.01 -0.01,0 0,0.01 0,0 -0.01,0.01 0,0.01 -0.01,0 0,0.01 -0.01,0 0,0.01 0,0 -0.01,0.01 0,0 0,0 -0.01,0.01 0,0 -0.01,0.01 0,0 -0.01,0.01 0,0 -0.01,0.01 0,0.01 -0.01,0 0,0.01 -0.01,0 -0.01,0.01 0,0.01 -0.01,0.01 -0.01,0 0,0.01 -0.01,0.01 -0.01,0.01 c -1.24,1.25 -1.56,3.13 -1.56,4.64 0,1.73 0.38,3.46 1.6,4.7 0.13,0.12 0.13,0.14 0.13,0.17 0,0.07 -0.04,0.1 -0.1,0.1 -0.1,0 -0.99,-0.67 -1.58,-1.94 -0.51,-1.09 -0.63,-2.19 -0.63,-3.03 0,-0.77 0.11,-1.97 0.66,-3.1 0.59,-1.22 1.45,-1.86 1.55,-1.86 0.06,0 0.1,0.03 0.1,0.1 z"
   inkscape:connector-curvature="0"
   style="fill:#000000;stroke-width:0" />
<path
   id="path6421"
   d="m 340.56,463.15 -0.04,-0.06 -0.03,-0.06 -0.04,-0.05 -0.04,-0.05 -0.03,-0.05 -0.04,-0.05 -0.04,-0.04 -0.04,-0.04 -0.03,-0.04 -0.04,-0.04 -0.04,-0.03 -0.03,-0.04 -0.04,-0.02 -0.04,-0.03 -0.04,-0.03 -0.03,-0.02 -0.04,-0.02 -0.04,-0.02 -0.04,-0.02 -0.04,-0.02 -0.04,-0.01 -0.03,-0.02 -0.04,-0.01 -0.04,-0.01 -0.04,-0.01 -0.04,-0.01 -0.04,-0.01 -0.04,0 -0.08,-0.01 -0.08,-0.01 c -0.12,-0.01 -0.21,-0.01 -0.21,-0.2 0,-0.06 0.05,-0.11 0.13,-0.11 0.27,0 0.58,0.03 0.85,0.03 0.33,0 0.68,-0.03 1,-0.03 0.06,0 0.19,0 0.19,0.19 0,0.11 -0.09,0.12 -0.16,0.12 -0.23,0.02 -0.47,0.1 -0.47,0.35 0,0.12 0.06,0.22 0.14,0.36 l 0.76,1.28 h 2.49 l -0.03,0.3 h -2.27 l 1.96,3.28 0.31,-3.28 0.03,-0.3 c 0.02,-0.21 0.16,-1.56 0.16,-1.66 0,-0.3 -0.51,-0.33 -0.71,-0.33 -0.14,0 -0.24,0 -0.24,-0.2 0,-0.11 0.12,-0.11 0.14,-0.11 0.41,0 0.83,0.03 1.24,0.03 0.25,0 0.88,-0.03 1.12,-0.03 0.06,0 0.18,0 0.18,0.2 0,0.11 -0.09,0.11 -0.22,0.11 -0.62,0 -0.62,0.07 -0.65,0.36 l -0.61,6.21 c -0.02,0.19 -0.02,0.23 -0.19,0.23 -0.16,0 -0.2,-0.07 -0.26,-0.17 z"
   inkscape:connector-curvature="0"
   style="fill:#000000;stroke-width:0" />
<path
   id="path6423"
   d="m 347.83,469.1 0,0.04 0,0.03 0,0.03 0,0.02 0,0.02 0,0.01 0,0.02 0,0.01 -0.01,0.02 0,0.01 0,0.01 -0.01,0.02 0,0.01 0,0.01 -0.01,0.01 -0.01,0.01 0,0.02 -0.01,0.01 -0.01,0 -0.01,0.01 -0.01,0.01 -0.01,0.01 -0.01,0 0,0 -0.01,0.01 0,0 -0.01,0 -0.01,0 -0.01,0 0,0.01 -0.01,0 -0.01,0 -0.01,0 -0.01,0 0,0 -0.01,0 c -0.2,0 -0.2,-0.18 -0.2,-0.36 v -9.21 c 0,-0.18 0,-0.36 0.2,-0.36 0.19,0 0.19,0.18 0.19,0.36 z"
   inkscape:connector-curvature="0"
   style="fill:#000000;stroke-width:0" />
<path
   id="path6425"
   d="m 356.58,468.92 0,0 0,0 0,0 0,0.01 0,0 0,0.01 0,0 0,0 0,0.01 -0.01,0 0,0.01 0,0 0,0 0,0.01 -0.01,0 0,0.01 0,0 -0.01,0 0,0.01 0,0 -0.01,0 0,0.01 -0.01,0 0,0 -0.01,0.01 0,0 0,0 -0.01,0 0,0 0,0 -0.01,0 0,0 0,0 -0.01,0 0,0 -0.01,0 0,0 0,0 -0.01,0 c -0.03,0 -0.04,-0.01 -0.15,-0.12 l -0.69,-0.76 c -0.09,0.14 -0.55,0.88 -1.65,0.88 -2.22,0 -4.46,-2.19 -4.46,-4.5 0,-1.63 1.17,-2.72 2.69,-2.72 0.87,0 1.62,0.4 2.15,0.86 0.93,0.81 1.1,1.71 1.1,1.74 0,0.1 -0.1,0.1 -0.12,0.1 -0.06,0 -0.11,-0.01 -0.13,-0.1 -0.09,-0.28 -0.32,-0.99 -1.01,-1.56 -0.68,-0.56 -1.31,-0.73 -1.83,-0.73 -0.89,0 -1.95,0.52 -1.95,2.07 0,0.56 0.21,2.17 1.21,3.33 0.6,0.71 1.54,1.21 2.42,1.21 1.02,0 1.61,-0.77 1.61,-1.92 0,-0.4 -0.03,-0.41 -0.03,-0.51 0,-0.1 0.11,-0.1 0.14,-0.1 0.13,0 0.13,0.02 0.18,0.2 z"
   inkscape:connector-curvature="0"
   style="fill:#000000;stroke-width:0" />
<path
   id="path6427"
   d="m 359.73,464.49 0,0.08 0,0.07 -0.01,0.08 0,0.08 -0.01,0.17 -0.01,0.18 -0.01,0.18 -0.03,0.19 -0.02,0.19 -0.03,0.2 -0.04,0.21 -0.05,0.2 -0.05,0.21 -0.06,0.21 -0.07,0.22 -0.08,0.21 -0.05,0.11 -0.04,0.1 -0.05,0.11 -0.05,0.1 c -0.59,1.23 -1.45,1.87 -1.55,1.87 -0.06,0 -0.1,-0.04 -0.1,-0.1 0,-0.03 0,-0.05 0.19,-0.23 0.97,-0.98 1.54,-2.56 1.54,-4.64 0,-1.69 -0.37,-3.44 -1.6,-4.69 -0.13,-0.12 -0.13,-0.14 -0.13,-0.17 0,-0.06 0.04,-0.1 0.1,-0.1 0.1,0 0.99,0.67 1.58,1.93 0.51,1.1 0.63,2.2 0.63,3.03 z"
   inkscape:connector-curvature="0"
   style="fill:#000000;stroke-width:0" />
<path
   id="path6429"
   d="m 377.23,465.19 0,0.15 0,0.15 -0.01,0.15 0,0.15 -0.01,0.14 -0.01,0.15 -0.02,0.15 -0.02,0.14 -0.02,0.15 -0.03,0.15 -0.03,0.14 -0.04,0.14 -0.04,0.14 -0.05,0.15 -0.06,0.14 -0.03,0.06 -0.03,0.07 c -0.46,0.96 -1.27,1.12 -1.69,1.12 -0.6,0 -1.32,-0.26 -1.73,-1.18 -0.32,-0.69 -0.37,-1.47 -0.37,-2.26 0,-0.74 0.04,-1.64 0.45,-2.39 0.43,-0.81 1.15,-1.01 1.64,-1.01 v 0.22 c -0.39,0 -0.98,0.25 -1.15,1.2 -0.11,0.6 -0.11,1.51 -0.11,2.1 0,0.64 0,1.29 0.08,1.83 0.19,1.18 0.93,1.27 1.18,1.27 0.33,0 0.98,-0.18 1.17,-1.16 0.1,-0.56 0.1,-1.32 0.1,-1.94 0,-0.75 0,-1.42 -0.11,-2.06 -0.15,-0.94 -0.71,-1.24 -1.16,-1.24 h 0 v -0.22 c 0.54,0 1.29,0.21 1.73,1.16 0.32,0.68 0.37,1.45 0.37,2.24 z"
   inkscape:connector-curvature="0"
   style="fill:#000000;stroke-width:0" />
<path
   id="path6431"
   d="m 379.55,462.54 0,0.02 0,0.03 -0.01,0.03 0,0.02 -0.01,0.03 0,0.02 -0.01,0.03 -0.01,0.02 -0.01,0.02 -0.02,0.03 -0.01,0.02 -0.01,0.02 -0.02,0.02 -0.01,0.02 -0.02,0.02 -0.02,0.02 -0.01,0.02 -0.02,0.01 -0.02,0.02 -0.02,0.01 -0.03,0.02 -0.02,0.01 -0.02,0.01 -0.02,0.01 -0.03,0.01 -0.02,0.01 -0.03,0.01 -0.02,0 -0.03,0.01 -0.02,0 -0.03,0 -0.03,0 c -0.29,0 -0.53,-0.23 -0.53,-0.52 0,-0.29 0.24,-0.53 0.53,-0.53 0.29,0 0.53,0.24 0.53,0.53 z"
   inkscape:connector-curvature="0"
   style="fill:#000000;stroke-width:0" />
<path
   id="path6433"
   d="m 384.98,465.19 0,0.15 0,0.15 0,0.15 -0.01,0.15 -0.01,0.14 -0.01,0.15 -0.02,0.15 -0.02,0.14 -0.02,0.15 -0.03,0.15 -0.03,0.14 -0.04,0.14 -0.04,0.14 -0.05,0.15 -0.05,0.14 -0.03,0.06 -0.04,0.07 c -0.45,0.96 -1.27,1.12 -1.69,1.12 -0.59,0 -1.32,-0.26 -1.73,-1.18 -0.32,-0.69 -0.37,-1.47 -0.37,-2.26 0,-0.74 0.04,-1.64 0.45,-2.39 0.43,-0.81 1.16,-1.01 1.64,-1.01 v 0.22 c -0.39,0 -0.97,0.25 -1.15,1.2 -0.11,0.6 -0.11,1.51 -0.11,2.1 0,0.64 0,1.29 0.08,1.83 0.19,1.18 0.94,1.27 1.18,1.27 0.33,0 0.99,-0.18 1.18,-1.16 0.1,-0.56 0.1,-1.32 0.1,-1.94 0,-0.75 0,-1.42 -0.11,-2.06 -0.15,-0.94 -0.72,-1.24 -1.17,-1.24 h 0 v -0.22 c 0.54,0 1.3,0.21 1.73,1.16 0.32,0.68 0.37,1.45 0.37,2.24 z"
   inkscape:connector-curvature="0"
   style="fill:#000000;stroke-width:0" />
<path
   id="path6435"
   d="m 388.27,465.51 0.08,0.02 0.07,0.03 0.08,0.03 0.07,0.04 0.07,0.03 0.06,0.04 0.07,0.04 0.06,0.04 0.07,0.05 0.06,0.04 0.06,0.05 0.05,0.05 0.06,0.05 0.05,0.06 0.05,0.05 0.04,0.06 0.05,0.06 0.04,0.06 0.04,0.06 0.04,0.06 0.03,0.06 0.04,0.07 0.03,0.06 0.02,0.07 0.03,0.07 0.02,0.07 0.01,0.07 0.02,0.07 0.01,0.07 0.01,0.07 0,0.07 0.01,0.08 c 0,0.81 -0.88,1.37 -1.84,1.37 -1,0 -1.76,-0.6 -1.76,-1.35 0,-0.33 0.22,-0.52 0.51,-0.52 0.31,0 0.51,0.22 0.51,0.51 0,0.49 -0.47,0.49 -0.62,0.49 0.31,0.49 0.97,0.62 1.33,0.62 0.4,0 0.95,-0.22 0.95,-1.11 0,-0.12 -0.02,-0.7 -0.28,-1.14 -0.3,-0.47 -0.64,-0.5 -0.88,-0.51 -0.08,-0.01 -0.32,-0.03 -0.39,-0.03 -0.08,-0.01 -0.15,-0.02 -0.15,-0.12 0,-0.11 0.07,-0.11 0.24,-0.11 h 0.44 c 0.81,0 1.18,-0.68 1.18,-1.65 0,-1.35 -0.69,-1.64 -1.12,-1.64 -0.43,0 -1.18,0.17 -1.53,0.76 0.35,-0.05 0.66,0.16 0.66,0.54 0,0.36 -0.27,0.56 -0.56,0.56 -0.24,0 -0.56,-0.14 -0.56,-0.58 0,-0.9 0.93,-1.56 2.02,-1.56 1.21,0 2.11,0.91 2.11,1.92 0,0.81 -0.62,1.59 -1.66,1.8 z"
   inkscape:connector-curvature="0"
   style="fill:#000000;stroke-width:0" />
<path
   id="path6437"
   d="m 330.45,448.61 0.04,0.26 0.68,2.71 c 0.09,0.34 0.11,0.37 0.54,0.37 h 0.95 c 0.83,0 1.36,-0.27 1.36,-0.95 0,-0.39 -0.2,-1.24 -0.59,-1.6 -0.5,-0.45 -1.1,-0.53 -1.53,-0.53 h -1.41 l -0.04,-0.26 h 1.7 c 1.41,0 2.79,1.04 2.79,2.15 0,0.77 -0.65,1.5 -1.96,1.5 h -3.22 c -0.19,0 -0.3,0 -0.3,-0.19 0,-0.12 0.09,-0.12 0.29,-0.12 0.13,0 0.31,-0.01 0.43,-0.02 0.15,-0.02 0.21,-0.05 0.21,-0.16 0,-0.04 0,-0.07 -0.03,-0.19 l -1.34,-5.33 c -0.1,-0.39 -0.12,-0.47 -0.9,-0.47 -0.17,0 -0.28,0 -0.28,-0.18 0,-0.12 0.12,-0.12 0.15,-0.12 0.28,0 0.98,0.03 1.26,0.03 0.21,0 0.43,-0.01 0.64,-0.01 0.22,0 0.44,-0.02 0.64,-0.02 0.07,0 0.2,0 0.2,0.19 0,0.11 -0.09,0.11 -0.28,0.11 -0.36,0 -0.64,0 -0.64,0.18 0,0.06 0.02,0.11 0.03,0.17 z"
   inkscape:connector-curvature="0"
   style="fill:#000000;stroke-width:0" />
<path
   id="path6439"
   d="m 338.51,443.09 0,0.01 0,0 0,0.01 0,0 0,0 0,0 0,0.01 0,0 0,0.01 -0.01,0 0,0 0,0.01 0,0 -0.01,0.01 0,0 -0.01,0.01 0,0.01 -0.01,0 0,0.01 0,0 -0.01,0.01 0,0 -0.01,0 0,0.01 0,0 -0.01,0.01 0,0 -0.01,0.01 0,0 -0.01,0.01 0,0.01 -0.01,0 0,0.01 -0.01,0 -0.01,0.01 0,0.01 -0.01,0 -0.01,0.01 0,0.01 -0.01,0 -0.01,0.01 -0.01,0.01 c -1.24,1.25 -1.56,3.13 -1.56,4.65 0,1.73 0.38,3.46 1.6,4.7 0.13,0.12 0.13,0.14 0.13,0.17 0,0.07 -0.04,0.1 -0.1,0.1 -0.1,0 -0.99,-0.68 -1.58,-1.94 -0.51,-1.09 -0.63,-2.2 -0.63,-3.03 0,-0.78 0.11,-1.98 0.66,-3.1 0.6,-1.22 1.45,-1.87 1.55,-1.87 0.06,0 0.1,0.03 0.1,0.1 z"
   inkscape:connector-curvature="0"
   style="fill:#000000;stroke-width:0" />
<path
   id="path6441"
   d="m 340.88,446.62 -0.04,-0.06 -0.04,-0.06 -0.04,-0.06 -0.03,-0.05 -0.04,-0.05 -0.04,-0.04 -0.04,-0.05 -0.03,-0.04 -0.04,-0.04 -0.04,-0.03 -0.03,-0.04 -0.04,-0.03 -0.04,-0.03 -0.04,-0.03 -0.03,-0.02 -0.04,-0.03 -0.04,-0.02 -0.04,-0.02 -0.04,-0.02 -0.03,-0.01 -0.04,-0.02 -0.04,-0.01 -0.04,-0.02 -0.04,-0.01 -0.04,-0.01 -0.04,0 -0.04,-0.01 -0.04,-0.01 -0.08,-0.01 -0.08,-0.01 c -0.12,-0.01 -0.21,-0.01 -0.21,-0.2 0,-0.05 0.05,-0.1 0.13,-0.1 0.27,0 0.58,0.03 0.86,0.03 0.33,0 0.67,-0.03 0.99,-0.03 0.06,0 0.19,0 0.19,0.19 0,0.1 -0.09,0.11 -0.16,0.11 -0.23,0.02 -0.47,0.1 -0.47,0.35 0,0.12 0.06,0.23 0.14,0.37 l 0.76,1.27 h 2.5 l -0.03,0.31 h -2.28 l 1.96,3.28 0.32,-3.28 0.03,-0.31 c 0.02,-0.21 0.16,-1.56 0.16,-1.66 0,-0.3 -0.52,-0.33 -0.72,-0.33 -0.14,0 -0.24,0 -0.24,-0.2 0,-0.1 0.12,-0.1 0.14,-0.1 0.41,0 0.84,0.03 1.24,0.03 0.25,0 0.88,-0.03 1.13,-0.03 0.06,0 0.18,0 0.18,0.19 0,0.11 -0.1,0.11 -0.23,0.11 -0.62,0 -0.62,0.07 -0.65,0.36 l -0.6,6.21 c -0.02,0.2 -0.02,0.24 -0.19,0.24 -0.16,0 -0.2,-0.07 -0.26,-0.17 z"
   inkscape:connector-curvature="0"
   style="fill:#000000;stroke-width:0" />
<path
   id="path6443"
   d="m 348.15,452.57 0,0.03 0,0.04 0,0.03 0,0.01 -0.01,0.02 0,0.02 0,0.01 0,0.02 0,0.01 -0.01,0.01 0,0.02 0,0.01 -0.01,0.01 0,0.02 -0.01,0.01 0,0.01 -0.01,0.01 -0.01,0.01 -0.01,0.01 -0.01,0.01 -0.01,0.01 -0.01,0 0,0.01 -0.01,0 -0.01,0 0,0 -0.01,0.01 -0.01,0 0,0 -0.01,0 -0.01,0 -0.01,0 0,0 -0.01,0.01 -0.01,0 -0.01,0 c -0.2,0 -0.2,-0.18 -0.2,-0.36 v -9.22 c 0,-0.18 0,-0.36 0.2,-0.36 0.2,0 0.2,0.18 0.2,0.36 z"
   inkscape:connector-curvature="0"
   style="fill:#000000;stroke-width:0" />
<path
   id="path6445"
   d="m 353.58,451.51 0.01,0.02 0,0.03 0.01,0.02 0.01,0.02 0,0.02 0.01,0.02 0,0.02 0.01,0.02 0.01,0.01 0,0.02 0.01,0.01 0,0.02 0.01,0.01 0.01,0.01 0,0.01 0.01,0.01 0,0.01 0.01,0.01 0.01,0.01 0,0.01 0.01,0 0.01,0.01 0.01,0.01 0,0 0.01,0.01 0.01,0 0.01,0.01 0.01,0 0.01,0 0.01,0.01 0.01,0 0.01,0 c 0.09,0.02 0.42,0.02 0.63,0.02 1,0 1.45,-0.04 1.45,-0.81 0,-0.15 -0.04,-0.54 -0.08,-0.8 -0.01,-0.04 -0.03,-0.16 -0.03,-0.18 0,-0.06 0.03,-0.13 0.12,-0.13 0.11,0 0.13,0.08 0.15,0.23 l 0.27,1.72 c 0.01,0.04 0.02,0.14 0.02,0.17 0,0.11 -0.1,0.11 -0.27,0.11 h -5.52 c -0.24,0 -0.25,-0.01 -0.32,-0.2 l -0.6,-1.75 c -0.01,-0.02 -0.06,-0.15 -0.06,-0.17 0,-0.06 0.05,-0.11 0.12,-0.11 0.1,0 0.11,0.05 0.17,0.2 0.54,1.54 0.8,1.72 2.27,1.72 h 0.39 c 0.28,0 0.28,-0.04 0.28,-0.12 0,-0.06 -0.03,-0.17 -0.04,-0.2 l -1.34,-5.31 c -0.09,-0.37 -0.12,-0.48 -1.18,-0.48 -0.36,0 -0.42,0 -0.42,-0.18 0,-0.12 0.11,-0.12 0.17,-0.12 0.27,0 0.55,0.02 0.82,0.02 0.27,0 0.56,0.01 0.84,0.01 0.28,0 0.56,-0.01 0.83,-0.01 0.29,0 0.59,-0.02 0.86,-0.02 0.1,0 0.22,0 0.22,0.19 0,0.11 -0.08,0.11 -0.34,0.11 -0.24,0 -0.37,0 -0.63,0.02 -0.29,0.03 -0.37,0.06 -0.37,0.22 0,0.01 0,0.06 0.04,0.21 z"
   inkscape:connector-curvature="0"
   style="fill:#000000;stroke-width:0" />
<path
   id="path6447"
   d="m 359.41,447.96 0,0.07 0,0.08 0,0.08 0,0.08 -0.01,0.17 -0.01,0.17 -0.02,0.19 -0.02,0.18 -0.03,0.2 -0.03,0.2 -0.04,0.2 -0.04,0.21 -0.06,0.21 -0.06,0.21 -0.07,0.21 -0.08,0.22 -0.04,0.1 -0.04,0.11 -0.05,0.1 -0.05,0.11 c -0.6,1.22 -1.46,1.87 -1.55,1.87 -0.06,0 -0.1,-0.04 -0.1,-0.1 0,-0.03 0,-0.05 0.19,-0.23 0.97,-0.99 1.54,-2.56 1.54,-4.64 0,-1.7 -0.37,-3.45 -1.61,-4.7 -0.12,-0.12 -0.12,-0.14 -0.12,-0.17 0,-0.06 0.04,-0.1 0.1,-0.1 0.09,0 0.99,0.68 1.58,1.94 0.51,1.09 0.62,2.19 0.62,3.03 z"
   inkscape:connector-curvature="0"
   style="fill:#000000;stroke-width:0" />
<path
   id="path6449"
   d="m 377.23,448.65 0,0.15 0,0.15 0,0.15 -0.01,0.15 -0.01,0.15 -0.01,0.15 -0.02,0.14 -0.01,0.15 -0.03,0.15 -0.03,0.14 -0.03,0.14 -0.04,0.15 -0.04,0.14 -0.05,0.14 -0.05,0.14 -0.03,0.07 -0.03,0.07 c -0.46,0.95 -1.28,1.11 -1.7,1.11 -0.59,0 -1.32,-0.26 -1.73,-1.18 -0.31,-0.69 -0.36,-1.46 -0.36,-2.26 0,-0.74 0.03,-1.63 0.44,-2.39 0.43,-0.8 1.16,-1 1.65,-1 v 0.22 c -0.39,0 -0.98,0.24 -1.16,1.2 -0.11,0.59 -0.11,1.51 -0.11,2.09 0,0.64 0,1.3 0.08,1.83 0.19,1.18 0.94,1.27 1.19,1.27 0.32,0 0.98,-0.17 1.17,-1.16 0.1,-0.56 0.1,-1.31 0.1,-1.94 0,-0.74 0,-1.42 -0.11,-2.05 -0.15,-0.95 -0.72,-1.24 -1.16,-1.24 h 0 v -0.22 c 0.53,0 1.29,0.21 1.73,1.15 0.31,0.69 0.36,1.46 0.36,2.24 z"
   inkscape:connector-curvature="0"
   style="fill:#000000;stroke-width:0" />
<path
   id="path6451"
   d="m 379.55,446 0,0.03 0,0.03 -0.01,0.02 0,0.03 -0.01,0.02 0,0.03 -0.01,0.02 -0.01,0.03 -0.01,0.02 -0.02,0.02 -0.01,0.02 -0.01,0.03 -0.02,0.02 -0.01,0.02 -0.02,0.02 -0.02,0.01 -0.01,0.02 -0.02,0.02 -0.02,0.01 -0.02,0.02 -0.03,0.01 -0.02,0.02 -0.02,0.01 -0.02,0.01 -0.03,0.01 -0.02,0.01 -0.03,0 -0.02,0.01 -0.03,0 -0.02,0.01 -0.03,0 -0.03,0 c -0.29,0 -0.53,-0.24 -0.53,-0.53 0,-0.29 0.24,-0.52 0.53,-0.52 0.29,0 0.53,0.23 0.53,0.52 z"
   inkscape:connector-curvature="0"
   style="fill:#000000;stroke-width:0" />
<path
   id="path6453"
   d="m 383.33,451.83 0,0.02 0,0.01 0,0.01 0,0.01 0,0.01 0,0.01 0,0 0,0.01 0,0.01 0,0.01 0,0.01 0,0.01 0,0 0,0.01 0,0.01 0,0 0,0.01 0,0.01 -0.01,0.01 0,0.01 0,0.01 0,0.01 -0.01,0.01 0,0.01 -0.01,0 0,0.01 -0.01,0 -0.01,0.01 0,0 -0.01,0.01 -0.01,0 0,0 -0.01,0 0,0 -0.01,0 -0.01,0.01 0,0 -0.01,0 0,0 -0.01,0 -0.01,0 -0.01,0 0,0 -0.01,0 -0.01,0 -0.01,0 -0.01,0 -0.01,0 -0.01,0 -0.01,0 -0.01,0 -0.01,0 c -0.62,-0.63 -1.49,-0.63 -1.81,-0.63 v -0.31 c 0.2,0 0.79,0 1.31,0.26 v -5.15 c 0,-0.36 -0.03,-0.48 -0.93,-0.48 h -0.32 v -0.3 c 0.35,0.03 1.22,0.03 1.61,0.03 0.4,0 1.27,0 1.62,-0.03 v 0.3 h -0.32 c -0.9,0 -0.93,0.11 -0.93,0.48 z"
   inkscape:connector-curvature="0"
   style="fill:#000000;stroke-width:0" />
<path
   id="path6455"
   d="m 389.85,447.47 0,0.11 -0.01,0.11 -0.01,0.11 -0.01,0.11 -0.02,0.1 -0.03,0.1 -0.03,0.1 -0.03,0.1 -0.04,0.1 -0.04,0.09 -0.04,0.09 -0.05,0.09 -0.05,0.09 -0.06,0.08 -0.06,0.08 -0.06,0.07 -0.06,0.08 -0.07,0.07 -0.07,0.06 -0.08,0.06 -0.07,0.06 -0.08,0.05 -0.08,0.05 -0.09,0.04 -0.08,0.04 -0.09,0.04 -0.09,0.03 -0.1,0.02 -0.09,0.02 -0.1,0.02 -0.1,0.01 -0.1,0 c -0.47,0 -0.9,-0.16 -1.26,-0.51 v 1.94 c 0.2,-0.06 0.53,-0.13 0.85,-0.13 1.22,0 1.92,0.9 1.92,1.03 0,0.06 -0.03,0.11 -0.1,0.11 -0.01,0 -0.03,0 -0.08,-0.03 -0.2,-0.09 -0.69,-0.29 -1.36,-0.29 -0.39,0 -0.85,0.07 -1.32,0.28 -0.08,0.03 -0.1,0.03 -0.12,0.03 -0.1,0 -0.1,-0.08 -0.1,-0.24 v -2.94 c 0,-0.18 0,-0.26 0.14,-0.26 0.07,0 0.09,0.03 0.13,0.09 0.11,0.16 0.48,0.7 1.28,0.7 0.52,0 0.77,-0.46 0.85,-0.64 0.16,-0.36 0.18,-0.75 0.18,-1.25 0,-0.34 0,-0.94 -0.24,-1.36 -0.24,-0.39 -0.61,-0.64 -1.06,-0.64 -0.73,0 -1.3,0.52 -1.47,1.11 0.03,-0.01 0.06,-0.02 0.17,-0.02 0.33,0 0.5,0.25 0.5,0.48 0,0.24 -0.17,0.49 -0.5,0.49 -0.14,0 -0.48,-0.07 -0.48,-0.52 0,-0.86 0.68,-1.82 1.8,-1.82 1.15,0 2.16,0.95 2.16,2.21 z"
   inkscape:connector-curvature="0"
   style="fill:#000000;stroke-width:0" />
</g>  </g>
</svg>
