<?xml version="1.0" encoding="UTF-8" standalone="no"?>
<!-- Created with Inkscape (http://www.inkscape.org/) -->

<svg
   xmlns:ns0="http://www.iki.fi/pav/software/textext/"
   xmlns:dc="http://purl.org/dc/elements/1.1/"
   xmlns:cc="http://creativecommons.org/ns#"
   xmlns:rdf="http://www.w3.org/1999/02/22-rdf-syntax-ns#"
   xmlns:svg="http://www.w3.org/2000/svg"
   xmlns="http://www.w3.org/2000/svg"
   xmlns:sodipodi="http://sodipodi.sourceforge.net/DTD/sodipodi-0.dtd"
   xmlns:inkscape="http://www.inkscape.org/namespaces/inkscape"
   width="541.99915"
   height="676.28101"
   id="svg3836"
   version="1.1"
   inkscape:version="0.48.3.1 r9886"
   sodipodi:docname="rt-1.svg">
  <sodipodi:namedview
     id="base"
     pagecolor="#ffffff"
     bordercolor="#666666"
     borderopacity="1.0"
     inkscape:pageopacity="0.0"
     inkscape:pageshadow="2"
     inkscape:zoom="0.35"
     inkscape:cx="238.77213"
     inkscape:cy="349.9668"
     inkscape:document-units="px"
     inkscape:current-layer="layer1"
     showgrid="false"
     inkscape:window-width="908"
     inkscape:window-height="595"
     inkscape:window-x="361"
     inkscape:window-y="102"
     inkscape:window-maximized="0"
     fit-margin-top="0"
     fit-margin-left="0"
     fit-margin-right="0"
     fit-margin-bottom="0"
     showborder="false"
     inkscape:showpageshadow="false" />
  <defs
     id="defs3838" />
  <metadata
     id="metadata3841">
    <rdf:RDF>
      <cc:Work
         rdf:about="">
        <dc:format>image/svg+xml</dc:format>
        <dc:type
           rdf:resource="http://purl.org/dc/dcmitype/StillImage" />
        <dc:title></dc:title>
      </cc:Work>
    </rdf:RDF>
  </metadata>
  <g
     transform="translate(-86.227867,-206.04797)"
     inkscape:label="Layer 1"
     inkscape:groupmode="layer"
     id="layer1">
    <g
       style="font-style:normal;font-variant:normal;font-weight:normal;font-stretch:normal;letter-spacing:normal;word-spacing:normal;text-anchor:start;fill:none;stroke:#000000;stroke-linecap:butt;stroke-linejoin:miter;stroke-miterlimit:10.43299961;stroke-opacity:1;stroke-dasharray:none;stroke-dashoffset:0"
       ns0:preamble="/home/abhinavc/playpen/textext/preamble.ini"
       ns0:text="\\begin{TAB}(b){cc}{c|c|c|c|c|c}\n$P(S)$ &amp; $\\frac{1}{6}$ \\\\\n$P(C)$ &amp; $\\frac{1}{3}$ \\\\\n$P(T)$ &amp; $\\frac{1}{2}$ \\\\\n$P(S\\vert A)$ &amp; $0.01$ \\\\\n$P(C\\vert A)$ &amp; $0.03$ \\\\\n$P(T\\vert A)$ &amp; $0.15$ \\\\\n\\end{TAB}"
       text-anchor="start"
       word-spacing="normal"
       letter-spacing="normal"
       font-size-adjust="none"
       font-stretch="normal"
       font-weight="normal"
       font-variant="normal"
       font-style="normal"
       fill-opacity="1"
       fill-rule="evenodd"
       fill="none"
       stroke-opacity="1"
       stroke-dashoffset="0"
       stroke-dasharray="none"
       stroke-miterlimit="10.433"
       stroke-linejoin="miter"
       stroke-linecap="butt"
       stroke="black"
       xml:space="preserve"
       transform="matrix(7.2086335,0,0,-7.2086335,-2257.4791,4075.282)"
       id="content">
<line
   id="line6542"
   stroke-width="0.697"
   y2="522.37"
   x2="400.31"
   y1="522.37"
   x1="325.13" />
<line
   id="line6544"
   stroke-width="0.697"
   y2="505.84"
   x2="400.31"
   y1="505.84"
   x1="325.13" />
<line
   id="line6546"
   stroke-width="0.697"
   y2="489.3"
   x2="400.31"
   y1="489.3"
   x1="325.13" />
<line
   id="line6548"
   stroke-width="0.697"
   y2="472.77"
   x2="400.31"
   y1="472.77"
   x1="325.13" />
<line
   id="line6550"
   stroke-width="0.697"
   y2="456.23"
   x2="400.31"
   y1="456.23"
   x1="325.13" />
<path
   id="path6552"
   fill="black"
   stroke-width="0"
   d="M335.84,531.29 L335.88,531.55 L336.55,534.25 C336.64,534.6,336.66,534.63,337.09,534.63 H338.04 C338.87,534.63,339.4,534.36,339.4,533.67 C339.4,533.29,339.2,532.43,338.81,532.07 C338.31,531.63,337.72,531.55,337.28,531.55 H335.88 L335.84,531.29 H337.53 C338.94,531.29,340.32,532.32,340.32,533.43 C340.32,534.2,339.67,534.93,338.36,534.93 H335.14 C334.95,534.93,334.84,534.93,334.84,534.75 C334.84,534.63,334.93,534.63,335.13,534.63 C335.26,534.63,335.44,534.62,335.56,534.61 C335.72,534.59,335.78,534.56,335.78,534.45 C335.78,534.41,335.77,534.38,335.74,534.26 L334.4,528.92 C334.3,528.54,334.28,528.46,333.5,528.46 C333.33,528.46,333.22,528.46,333.22,528.27 C333.22,528.15,333.34,528.15,333.37,528.15 C333.65,528.15,334.35,528.18,334.63,528.18 C334.84,528.18,335.06,528.17,335.27,528.17 C335.49,528.17,335.71,528.15,335.92,528.15 C335.98,528.15,336.11,528.15,336.11,528.35 C336.11,528.46,336.02,528.46,335.84,528.46 C335.47,528.46,335.19,528.46,335.19,528.64 C335.19,528.7,335.21,528.75,335.22,528.81 Z " />
<path
   id="path6554"
   fill="black"
   stroke-width="0"
   d="M343.89,525.77 L343.89,525.77 L343.89,525.78 L343.89,525.78 L343.89,525.78 L343.89,525.79 L343.89,525.79 L343.89,525.79 L343.89,525.8 L343.89,525.8 L343.89,525.8 L343.88,525.81 L343.88,525.81 L343.88,525.82 L343.87,525.82 L343.87,525.83 L343.86,525.84 L343.86,525.84 L343.85,525.85 L343.85,525.85 L343.85,525.86 L343.84,525.86 L343.84,525.87 L343.84,525.87 L343.83,525.87 L343.83,525.88 L343.82,525.88 L343.82,525.89 L343.81,525.89 L343.81,525.9 L343.8,525.9 L343.8,525.91 L343.79,525.92 L343.79,525.92 L343.78,525.93 L343.77,525.93 L343.77,525.94 L343.76,525.95 L343.75,525.95 L343.75,525.96 L343.74,525.97 L343.73,525.98 L343.73,525.98 C342.48,527.24,342.16,529.11,342.16,530.63 C342.16,532.36,342.54,534.09,343.77,535.33 C343.89,535.45,343.89,535.47,343.89,535.5 C343.89,535.57,343.85,535.6,343.8,535.6 C343.7,535.6,342.8,534.92,342.21,533.66 C341.7,532.57,341.59,531.47,341.59,530.63 C341.59,529.86,341.7,528.66,342.24,527.53 C342.84,526.31,343.7,525.67,343.8,525.67 C343.85,525.67,343.89,525.7,343.89,525.77 Z " />
<path
   id="path6556"
   fill="black"
   stroke-width="0"
   d="M350.89,535.05 L350.89,535.06 L350.89,535.06 L350.89,535.06 L350.89,535.07 L350.89,535.07 L350.89,535.07 L350.89,535.08 L350.89,535.08 L350.89,535.09 L350.88,535.09 L350.88,535.09 L350.88,535.1 L350.88,535.1 L350.88,535.11 L350.87,535.11 L350.87,535.11 L350.87,535.12 L350.86,535.12 L350.86,535.13 L350.86,535.13 L350.85,535.13 L350.85,535.14 L350.84,535.14 L350.84,535.14 L350.83,535.14 L350.83,535.15 L350.83,535.15 L350.82,535.15 L350.82,535.15 L350.82,535.15 L350.81,535.15 L350.81,535.15 L350.81,535.15 L350.8,535.15 L350.8,535.15 L350.8,535.15 L350.79,535.15 L350.79,535.15 L350.78,535.15 C350.73,535.15,350.72,535.14,350.6,535 L350.13,534.44 C349.87,534.91,349.35,535.15,348.7,535.15 C347.44,535.15,346.25,534.01,346.25,532.81 C346.25,532,346.77,531.55,347.28,531.4 L348.35,531.12 C348.71,531.03,349.26,530.88,349.26,530.07 C349.26,529.17,348.45,528.24,347.47,528.24 C346.83,528.24,345.73,528.46,345.73,529.69 C345.73,529.93,345.78,530.17,345.79,530.23 C345.8,530.27,345.81,530.28,345.81,530.3 C345.81,530.4,345.74,530.41,345.69,530.41 C345.64,530.41,345.62,530.4,345.59,530.36 C345.55,530.33,344.99,528.06,344.99,528.03 C344.99,527.97,345.04,527.93,345.1,527.93 C345.15,527.93,345.16,527.94,345.28,528.08 L345.77,528.65 C346.2,528.07,346.87,527.93,347.45,527.93 C348.8,527.93,349.98,529.25,349.98,530.48 C349.98,531.17,349.64,531.51,349.49,531.65 C349.26,531.88,349.11,531.91,348.23,532.14 C348.01,532.2,347.65,532.3,347.56,532.32 C347.29,532.41,346.95,532.7,346.95,533.23 C346.95,534.03,347.75,534.88,348.69,534.88 C349.52,534.88,350.13,534.45,350.13,533.34 C350.13,533.02,350.09,532.84,350.09,532.78 C350.09,532.77,350.09,532.68,350.21,532.68 C350.3,532.68,350.32,532.71,350.36,532.88 Z " />
<path
   id="path6558"
   fill="black"
   stroke-width="0"
   d="M354.03,530.63 L354.03,530.71 L354.03,530.78 L354.03,530.86 L354.03,530.94 L354.02,531.11 L354.01,531.29 L353.99,531.47 L353.97,531.66 L353.94,531.85 L353.91,532.05 L353.87,532.26 L353.82,532.46 L353.77,532.67 L353.71,532.88 L353.64,533.1 L353.56,533.31 L353.52,533.42 L353.47,533.52 L353.43,533.63 L353.38,533.73 C352.78,534.96,351.92,535.6,351.83,535.6 C351.77,535.6,351.73,535.56,351.73,535.5 C351.73,535.47,351.73,535.45,351.91,535.27 C352.89,534.29,353.46,532.71,353.46,530.63 C353.46,528.93,353.09,527.19,351.85,525.93 C351.73,525.82,351.73,525.8,351.73,525.77 C351.73,525.71,351.77,525.67,351.83,525.67 C351.92,525.67,352.82,526.34,353.41,527.6 C353.91,528.7,354.03,529.8,354.03,530.63 Z " />
<path
   id="path6560"
   fill="black"
   stroke-width="0"
   d="M381.86,536.5 L381.86,536.5 L381.86,536.51 L381.86,536.52 L381.86,536.53 L381.86,536.54 L381.86,536.54 L381.86,536.55 L381.86,536.56 L381.86,536.56 L381.86,536.57 L381.86,536.58 L381.86,536.58 L381.86,536.59 L381.86,536.59 L381.86,536.6 L381.85,536.61 L381.85,536.61 L381.85,536.61 L381.85,536.62 L381.85,536.63 L381.85,536.64 L381.84,536.65 L381.84,536.65 L381.83,536.66 L381.83,536.66 L381.82,536.67 L381.82,536.67 L381.81,536.67 L381.8,536.68 L381.79,536.68 L381.79,536.68 L381.78,536.68 L381.77,536.69 L381.77,536.69 L381.76,536.69 L381.75,536.69 L381.75,536.69 L381.74,536.69 L381.74,536.69 L381.73,536.69 L381.72,536.69 L381.72,536.69 L381.71,536.69 L381.7,536.69 L381.69,536.69 L381.69,536.69 L381.68,536.69 L381.67,536.69 L381.66,536.69 L381.65,536.69 C381.2,536.25,380.57,536.24,380.29,536.24 V535.99 C380.45,535.99,380.91,535.99,381.3,536.19 V532.64 C381.3,532.41,381.3,532.32,380.6,532.32 H380.33 V532.07 C380.46,532.08,381.32,532.1,381.57,532.1 C381.79,532.1,382.67,532.08,382.82,532.07 V532.32 H382.56 C381.86,532.32,381.86,532.41,381.86,532.64 Z " />
<line
   id="line6562"
   stroke-width="0.398"
   y2="530.64"
   x2="383.5"
   y1="530.64"
   x1="379.53" />
<path
   id="path6564"
   fill="black"
   stroke-width="0"
   d="M380.57,526.99 L380.57,527.09 L380.58,527.2 L380.58,527.3 L380.58,527.4 L380.59,527.51 L380.6,527.6 L380.61,527.7 L380.63,527.8 L380.65,527.89 L380.67,527.98 L380.7,528.07 L380.73,528.16 L380.74,528.21 L380.76,528.25 L380.78,528.29 L380.8,528.33 L380.82,528.38 L380.84,528.42 L380.86,528.46 L380.89,528.5 C381.12,528.87,381.5,529.13,381.95,529.13 C382.15,529.13,382.43,529.07,382.57,528.89 C382.4,528.87,382.25,528.75,382.25,528.55 C382.25,528.38,382.37,528.23,382.58,528.23 C382.79,528.23,382.91,528.36,382.91,528.57 C382.91,528.97,382.62,529.33,381.93,529.33 C380.93,529.33,379.9,528.41,379.9,526.92 C379.9,525.12,380.75,524.58,381.52,524.58 C382.37,524.58,383.11,525.22,383.11,526.13 C383.11,527.02,382.4,527.67,381.59,527.67 L381.55,527.47 C381.88,527.47,382.09,527.35,382.27,527.09 C382.43,526.83,382.44,526.54,382.44,526.13 C382.44,525.74,382.44,525.44,382.25,525.17 C382.08,524.93,381.86,524.8,381.52,524.8 H381.52 C381.17,524.8,380.9,525,380.75,525.3 C380.65,525.51,380.59,525.86,380.59,526.28 C380.59,526.95,381,527.47,381.55,527.47 L381.59,527.67 C381.03,527.67,380.73,527.3,380.57,526.99 Z " />
<path
   id="path6566"
   fill="black"
   stroke-width="0"
   d="M335.26,514.75 L335.3,515.01 L335.98,517.71 C336.07,518.06,336.09,518.09,336.51,518.09 H337.47 C338.3,518.09,338.82,517.82,338.82,517.14 C338.82,516.75,338.62,515.9,338.23,515.54 C337.74,515.09,337.14,515.01,336.7,515.01 H335.3 L335.26,514.75 H336.95 C338.36,514.75,339.75,515.79,339.75,516.9 C339.75,517.66,339.09,518.4,337.79,518.4 H334.56 C334.38,518.4,334.27,518.4,334.27,518.21 C334.27,518.09,334.36,518.09,334.55,518.09 C334.68,518.09,334.86,518.08,334.98,518.07 C335.14,518.05,335.2,518.02,335.2,517.91 C335.2,517.87,335.19,517.84,335.16,517.72 L333.83,512.39 C333.73,512,333.71,511.92,332.92,511.92 C332.75,511.92,332.64,511.92,332.64,511.73 C332.64,511.61,332.76,511.61,332.79,511.61 C333.07,511.61,333.78,511.64,334.06,511.64 C334.27,511.64,334.48,511.64,334.69,511.64 C334.91,511.64,335.13,511.61,335.34,511.61 C335.41,511.61,335.54,511.61,335.54,511.81 C335.54,511.92,335.45,511.92,335.26,511.92 C334.89,511.92,334.61,511.92,334.61,512.1 C334.61,512.16,334.63,512.21,334.64,512.27 Z " />
<path
   id="path6568"
   fill="black"
   stroke-width="0"
   d="M343.32,509.23 L343.32,509.24 L343.32,509.24 L343.32,509.24 L343.32,509.25 L343.32,509.25 L343.32,509.25 L343.32,509.26 L343.31,509.26 L343.31,509.26 L343.31,509.27 L343.31,509.27 L343.3,509.28 L343.3,509.28 L343.3,509.29 L343.29,509.29 L343.29,509.3 L343.28,509.31 L343.28,509.31 L343.27,509.32 L343.27,509.32 L343.27,509.33 L343.26,509.33 L343.26,509.33 L343.26,509.34 L343.25,509.34 L343.25,509.35 L343.24,509.35 L343.24,509.36 L343.23,509.36 L343.23,509.37 L343.22,509.37 L343.22,509.38 L343.21,509.39 L343.21,509.39 L343.2,509.4 L343.19,509.41 L343.19,509.41 L343.18,509.42 L343.17,509.43 L343.17,509.43 L343.16,509.44 L343.15,509.45 C341.91,510.7,341.59,512.58,341.59,514.1 C341.59,515.83,341.97,517.55,343.19,518.8 C343.32,518.92,343.32,518.94,343.32,518.97 C343.32,519.04,343.28,519.07,343.22,519.07 C343.12,519.07,342.23,518.39,341.64,517.13 C341.13,516.04,341.01,514.93,341.01,514.1 C341.01,513.32,341.12,512.12,341.67,511 C342.26,509.78,343.12,509.13,343.22,509.13 C343.28,509.13,343.32,509.16,343.32,509.23 Z " />
<path
   id="path6570"
   fill="black"
   stroke-width="0"
   d="M351.46,518.52 L351.46,518.52 L351.46,518.53 L351.46,518.53 L351.46,518.53 L351.46,518.54 L351.46,518.54 L351.46,518.54 L351.46,518.55 L351.46,518.55 L351.45,518.56 L351.45,518.56 L351.45,518.56 L351.45,518.57 L351.45,518.57 L351.44,518.58 L351.44,518.58 L351.44,518.58 L351.43,518.59 L351.43,518.59 L351.43,518.59 L351.42,518.6 L351.42,518.6 L351.41,518.6 L351.41,518.61 L351.4,518.61 L351.4,518.61 L351.4,518.61 L351.39,518.61 L351.39,518.61 L351.39,518.61 L351.38,518.61 L351.38,518.62 L351.38,518.62 L351.37,518.62 L351.37,518.62 L351.36,518.62 L351.36,518.62 L351.36,518.62 L351.35,518.62 C351.32,518.62,351.31,518.61,351.2,518.5 L350.51,517.73 C350.42,517.87,349.96,518.62,348.86,518.62 C346.64,518.62,344.4,516.42,344.4,514.12 C344.4,512.48,345.57,511.4,347.09,511.4 C347.96,511.4,348.71,511.79,349.24,512.25 C350.17,513.07,350.34,513.97,350.34,514 C350.34,514.1,350.24,514.1,350.22,514.1 C350.16,514.1,350.11,514.08,350.09,514 C350,513.71,349.77,513.01,349.08,512.43 C348.4,511.87,347.77,511.7,347.25,511.7 C346.36,511.7,345.3,512.22,345.3,513.77 C345.3,514.34,345.51,515.95,346.51,517.11 C347.11,517.81,348.05,518.31,348.93,518.31 C349.95,518.31,350.54,517.54,350.54,516.39 C350.54,516,350.51,515.99,350.51,515.89 C350.51,515.79,350.62,515.79,350.66,515.79 C350.79,515.79,350.79,515.81,350.83,515.99 Z " />
<path
   id="path6572"
   fill="black"
   stroke-width="0"
   d="M354.61,514.1 L354.61,514.17 L354.61,514.25 L354.6,514.33 L354.6,514.41 L354.59,514.58 L354.58,514.75 L354.57,514.93 L354.54,515.12 L354.52,515.32 L354.49,515.52 L354.45,515.72 L354.4,515.93 L354.35,516.14 L354.29,516.35 L354.22,516.56 L354.14,516.77 L354.09,516.88 L354.05,516.99 L354,517.09 L353.95,517.2 C353.36,518.42,352.5,519.07,352.4,519.07 C352.34,519.07,352.3,519.03,352.3,518.97 C352.3,518.94,352.3,518.92,352.49,518.74 C353.46,517.75,354.03,516.17,354.03,514.1 C354.03,512.4,353.66,510.65,352.43,509.4 C352.3,509.28,352.3,509.26,352.3,509.23 C352.3,509.17,352.34,509.13,352.4,509.13 C352.5,509.13,353.39,509.81,353.98,511.07 C354.49,512.16,354.61,513.26,354.61,514.1 Z " />
<path
   id="path6574"
   fill="black"
   stroke-width="0"
   d="M381.86,519.96 L381.86,519.97 L381.86,519.98 L381.86,519.99 L381.86,519.99 L381.86,520 L381.86,520.01 L381.86,520.02 L381.86,520.02 L381.86,520.03 L381.86,520.04 L381.86,520.04 L381.86,520.05 L381.86,520.05 L381.86,520.06 L381.86,520.07 L381.85,520.07 L381.85,520.08 L381.85,520.08 L381.85,520.09 L381.85,520.1 L381.85,520.1 L381.84,520.11 L381.84,520.12 L381.83,520.12 L381.83,520.13 L381.82,520.13 L381.82,520.14 L381.81,520.14 L381.8,520.14 L381.79,520.15 L381.79,520.15 L381.78,520.15 L381.77,520.15 L381.77,520.15 L381.76,520.15 L381.75,520.15 L381.75,520.15 L381.74,520.15 L381.74,520.15 L381.73,520.15 L381.72,520.15 L381.72,520.15 L381.71,520.15 L381.7,520.15 L381.69,520.15 L381.69,520.15 L381.68,520.15 L381.67,520.16 L381.66,520.16 L381.65,520.16 C381.2,519.72,380.57,519.71,380.29,519.71 V519.46 C380.45,519.46,380.91,519.46,381.3,519.66 V516.11 C381.3,515.88,381.3,515.79,380.6,515.79 H380.33 V515.54 C380.46,515.54,381.32,515.57,381.57,515.57 C381.79,515.57,382.67,515.54,382.82,515.54 V515.79 H382.56 C381.86,515.79,381.86,515.88,381.86,516.11 Z " />
<line
   id="line6576"
   stroke-width="0.398"
   y2="514.11"
   x2="383.5"
   y1="514.11"
   x1="379.53" />
<path
   id="path6578"
   fill="black"
   stroke-width="0"
   d="M381.43,510.5 L381.48,510.5 L381.53,510.5 L381.58,510.49 L381.63,510.49 L381.67,510.48 L381.72,510.46 L381.76,510.45 L381.8,510.43 L381.85,510.41 L381.89,510.39 L381.93,510.37 L381.96,510.34 L382,510.32 L382.03,510.29 L382.07,510.26 L382.1,510.22 L382.13,510.19 L382.16,510.15 L382.19,510.11 L382.21,510.06 L382.23,510.02 L382.26,509.97 L382.28,509.92 L382.29,509.87 L382.31,509.82 L382.32,509.76 L382.34,509.7 L382.35,509.64 L382.35,509.58 L382.36,509.52 L382.36,509.45 L382.36,509.38 C382.36,508.52,381.86,508.26,381.46,508.26 C381.18,508.26,380.57,508.34,380.27,508.75 C380.6,508.76,380.68,508.99,380.68,509.14 C380.68,509.36,380.51,509.52,380.29,509.52 C380.1,509.52,379.9,509.4,379.9,509.12 C379.9,508.46,380.63,508.04,381.47,508.04 C382.44,508.04,383.11,508.69,383.11,509.38 C383.11,509.92,382.66,510.47,381.9,510.63 C382.63,510.89,382.89,511.41,382.89,511.84 C382.89,512.39,382.26,512.8,381.48,512.8 C380.71,512.8,380.12,512.42,380.12,511.86 C380.12,511.63,380.27,511.5,380.48,511.5 C380.7,511.5,380.84,511.66,380.84,511.85 C380.84,512.05,380.7,512.2,380.48,512.21 C380.73,512.52,381.21,512.6,381.46,512.6 C381.78,512.6,382.22,512.44,382.22,511.84 C382.22,511.55,382.12,511.23,381.94,511.01 C381.71,510.75,381.51,510.73,381.17,510.71 C380.99,510.7,380.98,510.7,380.94,510.69 C380.93,510.69,380.87,510.68,380.87,510.6 C380.87,510.5,380.93,510.5,381.05,510.5 Z " />
<path
   id="path6580"
   fill="black"
   stroke-width="0"
   d="M335.58,498.22 L335.61,498.48 L336.29,501.18 C336.38,501.53,336.4,501.56,336.83,501.56 H337.78 C338.61,501.56,339.14,501.29,339.14,500.6 C339.14,500.22,338.94,499.36,338.55,499 C338.05,498.56,337.45,498.48,337.02,498.48 H335.61 L335.58,498.22 H337.27 C338.68,498.22,340.06,499.25,340.06,500.36 C340.06,501.13,339.4,501.86,338.1,501.86 H334.88 C334.69,501.86,334.58,501.86,334.58,501.68 C334.58,501.56,334.67,501.56,334.87,501.56 C335,501.56,335.18,501.55,335.3,501.54 C335.45,501.52,335.52,501.49,335.52,501.38 C335.52,501.34,335.51,501.31,335.48,501.19 L334.14,495.86 C334.04,495.47,334.02,495.39,333.24,495.39 C333.07,495.39,332.96,495.39,332.96,495.2 C332.96,495.08,333.08,495.08,333.11,495.08 C333.39,495.08,334.09,495.11,334.37,495.11 C334.58,495.11,334.8,495.1,335.01,495.1 C335.23,495.1,335.45,495.08,335.65,495.08 C335.72,495.08,335.85,495.08,335.85,495.28 C335.85,495.39,335.76,495.39,335.58,495.39 C335.21,495.39,334.93,495.39,334.93,495.57 C334.93,495.63,334.95,495.68,334.96,495.74 Z " />
<path
   id="path6582"
   fill="black"
   stroke-width="0"
   d="M343.63,492.7 L343.63,492.7 L343.63,492.71 L343.63,492.71 L343.63,492.71 L343.63,492.72 L343.63,492.72 L343.63,492.72 L343.63,492.73 L343.63,492.73 L343.62,492.73 L343.62,492.74 L343.62,492.74 L343.62,492.75 L343.61,492.75 L343.61,492.76 L343.6,492.76 L343.6,492.77 L343.59,492.78 L343.59,492.78 L343.59,492.79 L343.58,492.79 L343.58,492.79 L343.57,492.8 L343.57,492.8 L343.57,492.81 L343.56,492.81 L343.56,492.82 L343.55,492.82 L343.55,492.83 L343.54,492.83 L343.54,492.84 L343.53,492.85 L343.53,492.85 L343.52,492.86 L343.51,492.86 L343.51,492.87 L343.5,492.88 L343.49,492.88 L343.49,492.89 L343.48,492.9 L343.47,492.91 L343.46,492.91 C342.22,494.17,341.9,496.04,341.9,497.56 C341.9,499.29,342.28,501.02,343.5,502.26 C343.63,502.38,343.63,502.4,343.63,502.43 C343.63,502.5,343.59,502.53,343.53,502.53 C343.43,502.53,342.54,501.86,341.95,500.59 C341.44,499.5,341.33,498.4,341.33,497.56 C341.33,496.79,341.43,495.59,341.98,494.46 C342.58,493.24,343.43,492.6,343.53,492.6 C343.59,492.6,343.63,492.63,343.63,492.7 Z " />
<path
   id="path6584"
   fill="black"
   stroke-width="0"
   d="M348.46,501.11 L348.47,501.14 L348.47,501.16 L348.48,501.18 L348.49,501.2 L348.49,501.23 L348.5,501.24 L348.5,501.26 L348.51,501.28 L348.52,501.3 L348.52,501.31 L348.53,501.33 L348.53,501.34 L348.54,501.35 L348.55,501.37 L348.55,501.38 L348.56,501.39 L348.56,501.4 L348.57,501.41 L348.58,501.41 L348.58,501.42 L348.59,501.43 L348.6,501.44 L348.61,501.44 L348.61,501.45 L348.62,501.45 L348.63,501.46 L348.64,501.46 L348.65,501.46 L348.66,501.47 L348.67,501.47 L348.68,501.47 L348.69,501.48 C348.78,501.5,349.11,501.5,349.32,501.5 C350.32,501.5,350.77,501.46,350.77,500.68 C350.77,500.53,350.73,500.15,350.69,499.89 C350.68,499.85,350.66,499.73,350.66,499.7 C350.66,499.64,350.69,499.57,350.78,499.57 C350.89,499.57,350.91,499.65,350.93,499.8 L351.2,501.53 C351.21,501.57,351.22,501.67,351.22,501.7 C351.22,501.8,351.12,501.8,350.95,501.8 H345.43 C345.19,501.8,345.18,501.8,345.11,501.61 L344.51,499.86 C344.5,499.84,344.45,499.7,344.45,499.68 C344.45,499.62,344.5,499.57,344.57,499.57 C344.67,499.57,344.68,499.62,344.74,499.78 C345.28,501.32,345.54,501.5,347.01,501.5 H347.4 C347.68,501.5,347.68,501.46,347.68,501.38 C347.68,501.32,347.65,501.2,347.64,501.17 L346.3,495.86 C346.21,495.5,346.18,495.39,345.12,495.39 C344.76,495.39,344.7,495.39,344.7,495.2 C344.7,495.08,344.81,495.08,344.87,495.08 C345.14,495.08,345.42,495.1,345.69,495.1 C345.96,495.1,346.25,495.11,346.53,495.11 C346.81,495.11,347.09,495.1,347.36,495.1 C347.65,495.1,347.95,495.08,348.22,495.08 C348.32,495.08,348.44,495.08,348.44,495.28 C348.44,495.39,348.36,495.39,348.1,495.39 C347.86,495.39,347.73,495.39,347.47,495.41 C347.18,495.44,347.1,495.47,347.1,495.63 C347.1,495.64,347.1,495.69,347.14,495.83 Z " />
<path
   id="path6586"
   fill="black"
   stroke-width="0"
   d="M354.3,497.56 L354.29,497.64 L354.29,497.71 L354.29,497.79 L354.29,497.87 L354.28,498.04 L354.27,498.22 L354.25,498.4 L354.23,498.59 L354.2,498.78 L354.17,498.98 L354.13,499.19 L354.09,499.39 L354.03,499.6 L353.97,499.81 L353.9,500.03 L353.82,500.24 L353.78,500.35 L353.74,500.45 L353.69,500.56 L353.64,500.66 C353.04,501.89,352.19,502.53,352.09,502.53 C352.03,502.53,351.99,502.49,351.99,502.43 C351.99,502.4,351.99,502.38,352.18,502.2 C353.15,501.22,353.72,499.64,353.72,497.56 C353.72,495.86,353.35,494.12,352.12,492.86 C351.99,492.74,351.99,492.73,351.99,492.7 C351.99,492.64,352.03,492.6,352.09,492.6 C352.19,492.6,353.08,493.27,353.67,494.53 C354.18,495.63,354.3,496.73,354.3,497.56 Z " />
<path
   id="path6588"
   fill="black"
   stroke-width="0"
   d="M381.86,503.43 L381.86,503.43 L381.86,503.44 L381.86,503.45 L381.86,503.46 L381.86,503.47 L381.86,503.47 L381.86,503.48 L381.86,503.49 L381.86,503.49 L381.86,503.5 L381.86,503.51 L381.86,503.51 L381.86,503.52 L381.86,503.52 L381.86,503.53 L381.86,503.54 L381.85,503.54 L381.85,503.54 L381.85,503.55 L381.85,503.56 L381.85,503.57 L381.84,503.58 L381.84,503.58 L381.83,503.59 L381.83,503.59 L381.82,503.6 L381.82,503.6 L381.81,503.6 L381.8,503.61 L381.8,503.61 L381.79,503.61 L381.78,503.61 L381.77,503.62 L381.77,503.62 L381.76,503.62 L381.76,503.62 L381.75,503.62 L381.74,503.62 L381.74,503.62 L381.73,503.62 L381.72,503.62 L381.72,503.62 L381.71,503.62 L381.7,503.62 L381.69,503.62 L381.69,503.62 L381.68,503.62 L381.67,503.62 L381.66,503.62 L381.65,503.62 C381.21,503.18,380.57,503.17,380.29,503.17 V502.92 C380.45,502.92,380.91,502.92,381.3,503.12 V499.57 C381.3,499.34,381.3,499.25,380.6,499.25 H380.34 V499 C380.46,499.01,381.32,499.03,381.58,499.03 C381.79,499.03,382.67,499.01,382.82,499 V499.25 H382.56 C381.86,499.25,381.86,499.34,381.86,499.57 Z " />
<line
   id="line6590"
   stroke-width="0.398"
   y2="497.57"
   x2="383.5"
   y1="497.57"
   x1="379.53" />
<path
   id="path6592"
   fill="black"
   stroke-width="0"
   d="M383.05,492.91 H382.81 C382.79,492.76,382.72,492.35,382.63,492.28 C382.57,492.24,382.04,492.24,381.94,492.24 H380.66 C381.39,492.88,381.63,493.08,382.05,493.4 C382.56,493.82,383.05,494.25,383.05,494.91 C383.05,495.75,382.31,496.26,381.42,496.26 C380.55,496.26,379.97,495.66,379.97,495.02 C379.97,494.66,380.27,494.63,380.34,494.63 C380.5,494.63,380.7,494.75,380.7,495 C380.7,495.12,380.66,495.36,380.29,495.36 C380.51,495.86,380.98,496.01,381.31,496.01 C382.01,496.01,382.37,495.47,382.37,494.91 C382.37,494.3,381.94,493.82,381.71,493.57 L380.04,491.92 C379.97,491.85,379.97,491.84,379.97,491.64 H382.84 Z " />
<path
   id="path6594"
   fill="black"
   stroke-width="0"
   d="M330.72,481.68 L330.76,481.94 L331.43,484.64 C331.52,484.99,331.54,485.02,331.97,485.02 H332.92 C333.75,485.02,334.28,484.75,334.28,484.07 C334.28,483.68,334.08,482.83,333.69,482.47 C333.19,482.02,332.6,481.94,332.16,481.94 H330.76 L330.72,481.68 H332.41 C333.82,481.68,335.2,482.72,335.2,483.83 C335.2,484.6,334.55,485.33,333.24,485.33 H330.02 C329.83,485.33,329.72,485.33,329.72,485.14 C329.72,485.02,329.81,485.02,330.01,485.02 C330.14,485.02,330.32,485.01,330.44,485 C330.6,484.98,330.66,484.95,330.66,484.84 C330.66,484.8,330.65,484.77,330.62,484.65 L329.28,479.32 C329.18,478.93,329.16,478.85,328.38,478.85 C328.21,478.85,328.1,478.85,328.1,478.66 C328.1,478.55,328.22,478.55,328.25,478.55 C328.53,478.55,329.23,478.58,329.51,478.58 C329.72,478.58,329.94,478.57,330.15,478.57 C330.37,478.57,330.59,478.55,330.8,478.55 C330.86,478.55,330.99,478.55,330.99,478.74 C330.99,478.85,330.9,478.85,330.72,478.85 C330.35,478.85,330.07,478.85,330.07,479.03 C330.07,479.09,330.09,479.14,330.1,479.2 Z " />
<path
   id="path6596"
   fill="black"
   stroke-width="0"
   d="M338.77,476.16 L338.77,476.17 L338.77,476.17 L338.77,476.17 L338.77,476.18 L338.77,476.18 L338.77,476.18 L338.77,476.19 L338.77,476.19 L338.77,476.19 L338.77,476.2 L338.76,476.2 L338.76,476.21 L338.76,476.21 L338.75,476.22 L338.75,476.22 L338.74,476.23 L338.74,476.24 L338.73,476.24 L338.73,476.25 L338.73,476.25 L338.72,476.26 L338.72,476.26 L338.72,476.26 L338.71,476.27 L338.71,476.27 L338.7,476.28 L338.7,476.28 L338.69,476.29 L338.69,476.29 L338.68,476.3 L338.68,476.3 L338.67,476.31 L338.67,476.32 L338.66,476.32 L338.65,476.33 L338.65,476.34 L338.64,476.34 L338.63,476.35 L338.63,476.36 L338.62,476.36 L338.61,476.37 L338.61,476.38 C337.36,477.63,337.04,479.51,337.04,481.03 C337.04,482.76,337.42,484.48,338.64,485.73 C338.77,485.85,338.77,485.87,338.77,485.9 C338.77,485.97,338.73,485.99,338.67,485.99 C338.58,485.99,337.68,485.32,337.09,484.06 C336.58,482.97,336.47,481.86,336.47,481.03 C336.47,480.25,336.58,479.05,337.12,477.93 C337.72,476.71,338.58,476.06,338.67,476.06 C338.73,476.06,338.77,476.09,338.77,476.16 Z " />
<path
   id="path6598"
   fill="black"
   stroke-width="0"
   d="M345.77,485.45 L345.77,485.45 L345.77,485.46 L345.77,485.46 L345.77,485.46 L345.77,485.47 L345.77,485.47 L345.77,485.47 L345.77,485.48 L345.77,485.48 L345.77,485.49 L345.76,485.49 L345.76,485.49 L345.76,485.5 L345.76,485.5 L345.75,485.51 L345.75,485.51 L345.75,485.51 L345.75,485.52 L345.74,485.52 L345.74,485.52 L345.73,485.53 L345.73,485.53 L345.72,485.53 L345.72,485.54 L345.71,485.54 L345.71,485.54 L345.71,485.54 L345.7,485.54 L345.7,485.54 L345.7,485.54 L345.69,485.54 L345.69,485.55 L345.69,485.55 L345.68,485.55 L345.68,485.55 L345.68,485.55 L345.67,485.55 L345.67,485.55 L345.66,485.55 C345.61,485.55,345.6,485.54,345.48,485.4 L345.01,484.83 C344.75,485.3,344.23,485.55,343.58,485.55 C342.32,485.55,341.13,484.41,341.13,483.2 C341.13,482.4,341.65,481.94,342.16,481.79 L343.23,481.52 C343.59,481.43,344.14,481.28,344.14,480.46 C344.14,479.57,343.33,478.63,342.35,478.63 C341.71,478.63,340.61,478.85,340.61,480.08 C340.61,480.32,340.66,480.56,340.67,480.62 C340.68,480.66,340.69,480.67,340.69,480.69 C340.69,480.79,340.62,480.8,340.57,480.8 C340.52,480.8,340.5,480.79,340.47,480.76 C340.43,480.72,339.87,478.46,339.87,478.43 C339.87,478.37,339.92,478.33,339.98,478.33 C340.03,478.33,340.04,478.34,340.16,478.48 L340.65,479.04 C341.08,478.47,341.75,478.33,342.33,478.33 C343.68,478.33,344.86,479.65,344.86,480.88 C344.86,481.57,344.52,481.9,344.37,482.04 C344.14,482.27,343.99,482.31,343.11,482.54 C342.89,482.6,342.53,482.7,342.44,482.72 C342.17,482.81,341.83,483.1,341.83,483.62 C341.83,484.43,342.63,485.27,343.58,485.27 C344.4,485.27,345.01,484.84,345.01,483.73 C345.01,483.41,344.97,483.23,344.97,483.17 C344.97,483.16,344.97,483.08,345.09,483.08 C345.19,483.08,345.2,483.11,345.24,483.27 Z " />
<path
   id="path6600"
   fill="black"
   stroke-width="0"
   d="M347.62,485.64 L347.62,485.67 L347.62,485.7 L347.62,485.74 L347.62,485.75 L347.62,485.77 L347.62,485.78 L347.61,485.8 L347.61,485.82 L347.61,485.83 L347.61,485.84 L347.6,485.86 L347.6,485.87 L347.6,485.88 L347.59,485.9 L347.59,485.91 L347.58,485.92 L347.57,485.93 L347.56,485.94 L347.56,485.95 L347.55,485.96 L347.54,485.96 L347.53,485.97 L347.52,485.97 L347.51,485.98 L347.51,485.98 L347.5,485.98 L347.49,485.98 L347.49,485.99 L347.48,485.99 L347.47,485.99 L347.47,485.99 L347.46,485.99 L347.45,485.99 L347.44,485.99 L347.43,485.99 L347.42,485.99 C347.22,485.99,347.22,485.82,347.22,485.64 V476.42 C347.22,476.24,347.22,476.06,347.42,476.06 C347.62,476.06,347.62,476.24,347.62,476.42 Z " />
<path
   id="path6602"
   fill="black"
   stroke-width="0"
   d="M350.59,479.69 L350.55,479.63 L350.51,479.57 L350.48,479.51 L350.44,479.46 L350.4,479.41 L350.36,479.37 L350.33,479.32 L350.29,479.28 L350.25,479.24 L350.21,479.2 L350.18,479.17 L350.14,479.14 L350.1,479.11 L350.07,479.08 L350.03,479.06 L349.99,479.03 L349.95,479.01 L349.91,478.99 L349.88,478.97 L349.84,478.95 L349.8,478.94 L349.76,478.93 L349.72,478.91 L349.68,478.9 L349.64,478.89 L349.6,478.88 L349.56,478.88 L349.53,478.87 L349.44,478.86 L349.36,478.85 C349.24,478.84,349.15,478.84,349.15,478.65 C349.15,478.6,349.2,478.55,349.28,478.55 C349.55,478.55,349.86,478.58,350.14,478.58 C350.47,478.58,350.82,478.55,351.13,478.55 C351.19,478.55,351.32,478.55,351.32,478.73 C351.32,478.84,351.23,478.85,351.16,478.85 C350.93,478.87,350.7,478.95,350.7,479.2 C350.7,479.32,350.76,479.43,350.84,479.57 L351.59,480.84 H354.09 L354.06,481.15 H351.78 L353.74,484.43 L354.06,481.15 L354.09,480.84 C354.11,480.63,354.25,479.28,354.25,479.18 C354.25,478.88,353.73,478.85,353.53,478.85 C353.39,478.85,353.29,478.85,353.29,478.65 C353.29,478.55,353.41,478.55,353.43,478.55 C353.84,478.55,354.27,478.58,354.68,478.58 C354.92,478.58,355.55,478.55,355.8,478.55 C355.86,478.55,355.98,478.55,355.98,478.74 C355.98,478.85,355.88,478.85,355.75,478.85 C355.13,478.85,355.13,478.92,355.1,479.21 L354.5,485.42 C354.48,485.62,354.48,485.66,354.31,485.66 C354.15,485.66,354.11,485.59,354.05,485.49 Z " />
<path
   id="path6604"
   fill="black"
   stroke-width="0"
   d="M359.15,481.03 L359.15,481.1 L359.15,481.18 L359.15,481.26 L359.15,481.34 L359.14,481.51 L359.13,481.68 L359.11,481.86 L359.09,482.05 L359.06,482.25 L359.03,482.45 L358.99,482.65 L358.94,482.86 L358.89,483.07 L358.83,483.28 L358.76,483.49 L358.68,483.7 L358.64,483.81 L358.59,483.92 L358.55,484.02 L358.5,484.13 C357.9,485.35,357.04,485.99,356.95,485.99 C356.89,485.99,356.85,485.96,356.85,485.9 C356.85,485.87,356.85,485.85,357.03,485.67 C358.01,484.68,358.58,483.11,358.58,481.03 C358.58,479.33,358.21,477.58,356.97,476.33 C356.85,476.21,356.85,476.19,356.85,476.16 C356.85,476.1,356.89,476.06,356.95,476.06 C357.04,476.06,357.94,476.74,358.53,478 C359.03,479.09,359.15,480.19,359.15,481.03 Z " />
<path
   id="path6606"
   fill="black"
   stroke-width="0"
   d="M377.23,481.72 L377.23,481.87 L377.23,482.02 L377.23,482.17 L377.22,482.32 L377.21,482.47 L377.2,482.61 L377.18,482.76 L377.16,482.91 L377.14,483.05 L377.11,483.2 L377.08,483.34 L377.04,483.49 L377,483.63 L376.95,483.77 L376.9,483.91 L376.87,483.98 L376.83,484.05 C376.38,485,375.56,485.16,375.14,485.16 C374.55,485.16,373.82,484.9,373.41,483.98 C373.09,483.29,373.04,482.52,373.04,481.72 C373.04,480.98,373.08,480.08,373.49,479.33 C373.92,478.52,374.64,478.33,375.13,478.33 V478.55 C374.74,478.55,374.16,478.79,373.98,479.75 C373.87,480.34,373.87,481.26,373.87,481.84 C373.87,482.48,373.87,483.13,373.95,483.67 C374.14,484.85,374.88,484.94,375.13,484.94 C375.46,484.94,376.12,484.76,376.31,483.78 C376.41,483.22,376.41,482.47,376.41,481.84 C376.41,481.1,376.41,480.42,376.3,479.79 C376.15,478.84,375.58,478.55,375.13,478.55 H375.13 V478.33 C375.67,478.33,376.43,478.54,376.86,479.48 C377.18,480.16,377.23,480.94,377.23,481.72 Z " />
<path
   id="path6608"
   fill="black"
   stroke-width="0"
   d="M379.55,479.07 L379.55,479.1 L379.55,479.13 L379.54,479.15 L379.54,479.18 L379.53,479.2 L379.53,479.23 L379.52,479.25 L379.51,479.28 L379.5,479.3 L379.48,479.32 L379.47,479.34 L379.46,479.36 L379.44,479.39 L379.43,479.41 L379.41,479.42 L379.39,479.44 L379.38,479.46 L379.36,479.48 L379.34,479.49 L379.32,479.51 L379.29,479.52 L379.27,479.53 L379.25,479.55 L379.23,479.56 L379.2,479.57 L379.18,479.57 L379.15,479.58 L379.13,479.59 L379.1,479.59 L379.08,479.6 L379.05,479.6 L379.02,479.6 C378.73,479.6,378.49,479.36,378.49,479.07 C378.49,478.78,378.73,478.55,379.02,478.55 C379.31,478.55,379.55,478.78,379.55,479.07 Z " />
<path
   id="path6610"
   fill="black"
   stroke-width="0"
   d="M384.98,481.72 L384.98,481.87 L384.98,482.02 L384.98,482.17 L384.97,482.32 L384.96,482.47 L384.95,482.61 L384.93,482.76 L384.91,482.91 L384.89,483.05 L384.86,483.2 L384.83,483.34 L384.79,483.49 L384.75,483.63 L384.7,483.77 L384.65,483.91 L384.62,483.98 L384.58,484.05 C384.13,485,383.31,485.16,382.89,485.16 C382.3,485.16,381.57,484.9,381.16,483.98 C380.84,483.29,380.79,482.52,380.79,481.72 C380.79,480.98,380.83,480.08,381.24,479.33 C381.67,478.52,382.4,478.33,382.88,478.33 V478.55 C382.49,478.55,381.91,478.79,381.73,479.75 C381.62,480.34,381.62,481.26,381.62,481.84 C381.62,482.48,381.62,483.13,381.7,483.67 C381.89,484.85,382.64,484.94,382.88,484.94 C383.21,484.94,383.87,484.76,384.06,483.78 C384.16,483.22,384.16,482.47,384.16,481.84 C384.16,481.1,384.16,480.42,384.05,479.79 C383.9,478.84,383.33,478.55,382.88,478.55 H382.88 V478.33 C383.42,478.33,384.18,478.54,384.61,479.48 C384.93,480.16,384.98,480.94,384.98,481.72 Z " />
<path
   id="path6612"
   fill="black"
   stroke-width="0"
   d="M388.31,484.9 L388.31,484.91 L388.31,484.92 L388.31,484.94 L388.31,484.95 L388.31,484.95 L388.31,484.96 L388.31,484.97 L388.31,484.98 L388.31,484.99 L388.31,485 L388.31,485.01 L388.31,485.02 L388.31,485.02 L388.31,485.03 L388.31,485.04 L388.31,485.04 L388.31,485.05 L388.31,485.06 L388.31,485.07 L388.3,485.08 L388.3,485.09 L388.3,485.1 L388.29,485.11 L388.29,485.11 L388.28,485.12 L388.28,485.13 L388.27,485.13 L388.26,485.14 L388.26,485.14 L388.25,485.15 L388.24,485.15 L388.24,485.15 L388.23,485.15 L388.23,485.15 L388.22,485.15 L388.22,485.15 L388.21,485.16 L388.2,485.16 L388.2,485.16 L388.19,485.16 L388.18,485.16 L388.18,485.16 L388.17,485.16 L388.16,485.16 L388.15,485.16 L388.14,485.16 L388.13,485.16 L388.12,485.16 L388.11,485.16 L388.1,485.16 L388.09,485.16 L388.08,485.16 C387.47,484.52,386.59,484.52,386.27,484.52 V484.22 C386.47,484.22,387.06,484.22,387.58,484.48 V479.33 C387.58,478.97,387.55,478.85,386.65,478.85 H386.33 V478.55 C386.68,478.58,387.55,478.58,387.94,478.58 C388.34,478.58,389.21,478.58,389.56,478.55 V478.85 H389.24 C388.34,478.85,388.31,478.96,388.31,479.33 Z " />
<path
   id="path6614"
   fill="black"
   stroke-width="0"
   d="M330.14,465.15 L330.18,465.41 L330.86,468.11 C330.95,468.46,330.97,468.49,331.39,468.49 H332.35 C333.17,468.49,333.7,468.22,333.7,467.53 C333.7,467.15,333.5,466.29,333.11,465.93 C332.62,465.49,332.02,465.41,331.58,465.41 H330.18 L330.14,465.15 H331.83 C333.24,465.15,334.63,466.18,334.63,467.3 C334.63,468.06,333.97,468.8,332.67,468.8 H329.44 C329.26,468.8,329.15,468.8,329.15,468.61 C329.15,468.49,329.23,468.49,329.43,468.49 C329.56,468.49,329.74,468.48,329.86,468.47 C330.02,468.45,330.08,468.42,330.08,468.31 C330.08,468.27,330.07,468.24,330.04,468.12 L328.71,462.79 C328.61,462.4,328.59,462.32,327.8,462.32 C327.63,462.32,327.52,462.32,327.52,462.13 C327.52,462.01,327.64,462.01,327.67,462.01 C327.95,462.01,328.66,462.04,328.94,462.04 C329.15,462.04,329.36,462.03,329.57,462.03 C329.79,462.03,330.01,462.01,330.22,462.01 C330.29,462.01,330.42,462.01,330.42,462.21 C330.42,462.32,330.33,462.32,330.14,462.32 C329.77,462.32,329.49,462.32,329.49,462.5 C329.49,462.56,329.51,462.61,329.52,462.67 Z " />
<path
   id="path6616"
   fill="black"
   stroke-width="0"
   d="M338.2,459.63 L338.2,459.63 L338.2,459.64 L338.2,459.64 L338.2,459.64 L338.2,459.65 L338.2,459.65 L338.2,459.65 L338.19,459.66 L338.19,459.66 L338.19,459.66 L338.19,459.67 L338.18,459.67 L338.18,459.68 L338.18,459.68 L338.17,459.69 L338.17,459.7 L338.16,459.7 L338.16,459.71 L338.15,459.71 L338.15,459.72 L338.15,459.72 L338.14,459.73 L338.14,459.73 L338.14,459.73 L338.13,459.74 L338.13,459.74 L338.12,459.75 L338.12,459.75 L338.11,459.76 L338.11,459.76 L338.1,459.77 L338.1,459.78 L338.09,459.78 L338.09,459.79 L338.08,459.79 L338.07,459.8 L338.07,459.81 L338.06,459.82 L338.05,459.82 L338.05,459.83 L338.04,459.84 L338.03,459.85 C336.79,461.1,336.47,462.98,336.47,464.49 C336.47,466.22,336.85,467.95,338.07,469.19 C338.2,469.31,338.2,469.33,338.2,469.36 C338.2,469.43,338.16,469.46,338.1,469.46 C338,469.46,337.11,468.79,336.52,467.52 C336.01,466.43,335.89,465.33,335.89,464.49 C335.89,463.72,336,462.52,336.55,461.39 C337.14,460.17,338,459.53,338.1,459.53 C338.16,459.53,338.2,459.56,338.2,459.63 Z " />
<path
   id="path6618"
   fill="black"
   stroke-width="0"
   d="M346.34,468.92 L346.34,468.92 L346.34,468.92 L346.34,468.92 L346.34,468.93 L346.34,468.93 L346.34,468.94 L346.34,468.94 L346.34,468.94 L346.34,468.95 L346.33,468.95 L346.33,468.96 L346.33,468.96 L346.33,468.96 L346.33,468.97 L346.32,468.97 L346.32,468.98 L346.32,468.98 L346.31,468.98 L346.31,468.99 L346.31,468.99 L346.3,468.99 L346.3,469 L346.29,469 L346.29,469 L346.28,469.01 L346.28,469.01 L346.28,469.01 L346.27,469.01 L346.27,469.01 L346.27,469.01 L346.26,469.01 L346.26,469.01 L346.26,469.01 L346.25,469.01 L346.25,469.01 L346.25,469.01 L346.24,469.01 L346.24,469.01 L346.23,469.01 C346.2,469.01,346.19,469,346.08,468.89 L345.39,468.13 C345.3,468.27,344.84,469.01,343.74,469.01 C341.52,469.01,339.28,466.82,339.28,464.51 C339.28,462.88,340.45,461.79,341.98,461.79 C342.84,461.79,343.6,462.19,344.12,462.65 C345.05,463.46,345.22,464.36,345.22,464.39 C345.22,464.49,345.12,464.49,345.1,464.49 C345.04,464.49,344.99,464.48,344.97,464.39 C344.88,464.11,344.65,463.4,343.96,462.83 C343.28,462.27,342.65,462.1,342.13,462.1 C341.24,462.1,340.18,462.62,340.18,464.17 C340.18,464.73,340.39,466.34,341.39,467.5 C341.99,468.21,342.93,468.71,343.82,468.71 C344.83,468.71,345.42,467.94,345.42,466.79 C345.42,466.39,345.39,466.38,345.39,466.28 C345.39,466.18,345.5,466.18,345.54,466.18 C345.67,466.18,345.67,466.2,345.72,466.38 Z " />
<path
   id="path6620"
   fill="black"
   stroke-width="0"
   d="M348.2,469.1 L348.2,469.14 L348.2,469.17 L348.19,469.2 L348.19,469.22 L348.19,469.24 L348.19,469.25 L348.19,469.27 L348.19,469.28 L348.19,469.3 L348.18,469.31 L348.18,469.32 L348.18,469.34 L348.17,469.35 L348.17,469.36 L348.16,469.37 L348.15,469.38 L348.15,469.4 L348.14,469.41 L348.13,469.41 L348.12,469.42 L348.11,469.43 L348.1,469.44 L348.1,469.44 L348.09,469.44 L348.08,469.45 L348.08,469.45 L348.07,469.45 L348.06,469.45 L348.06,469.45 L348.05,469.46 L348.04,469.46 L348.03,469.46 L348.02,469.46 L348.02,469.46 L348.01,469.46 L348,469.46 C347.8,469.46,347.8,469.28,347.8,469.1 V459.89 C347.8,459.71,347.8,459.53,348,459.53 C348.2,459.53,348.2,459.71,348.2,459.89 Z " />
<path
   id="path6622"
   fill="black"
   stroke-width="0"
   d="M351.16,463.15 L351.12,463.09 L351.09,463.03 L351.05,462.98 L351.01,462.93 L350.98,462.88 L350.94,462.83 L350.9,462.79 L350.86,462.75 L350.83,462.71 L350.79,462.67 L350.75,462.64 L350.72,462.6 L350.68,462.58 L350.64,462.55 L350.6,462.52 L350.57,462.5 L350.53,462.48 L350.49,462.46 L350.45,462.44 L350.41,462.42 L350.37,462.41 L350.34,462.39 L350.3,462.38 L350.26,462.37 L350.22,462.36 L350.18,462.35 L350.14,462.34 L350.1,462.34 L350.02,462.33 L349.94,462.32 C349.82,462.31,349.73,462.31,349.73,462.12 C349.73,462.06,349.78,462.01,349.86,462.01 C350.13,462.01,350.44,462.04,350.71,462.04 C351.04,462.04,351.39,462.01,351.71,462.01 C351.77,462.01,351.9,462.01,351.9,462.2 C351.9,462.31,351.81,462.32,351.74,462.32 C351.51,462.34,351.27,462.42,351.27,462.67 C351.27,462.79,351.33,462.89,351.41,463.03 L352.17,464.31 H354.66 L354.63,464.61 H352.36 L354.32,467.89 L354.63,464.61 L354.66,464.31 C354.68,464.1,354.82,462.75,354.82,462.65 C354.82,462.35,354.31,462.32,354.11,462.32 C353.97,462.32,353.87,462.32,353.87,462.12 C353.87,462.01,353.99,462.01,354.01,462.01 C354.42,462.01,354.84,462.04,355.25,462.04 C355.5,462.04,356.13,462.01,356.38,462.01 C356.43,462.01,356.55,462.01,356.55,462.21 C356.55,462.32,356.45,462.32,356.33,462.32 C355.71,462.32,355.71,462.39,355.68,462.68 L355.07,468.89 C355.05,469.08,355.05,469.12,354.88,469.12 C354.72,469.12,354.68,469.05,354.62,468.95 Z " />
<path
   id="path6624"
   fill="black"
   stroke-width="0"
   d="M359.73,464.49 L359.73,464.57 L359.73,464.64 L359.72,464.72 L359.72,464.8 L359.71,464.97 L359.7,465.15 L359.69,465.33 L359.66,465.52 L359.64,465.71 L359.61,465.91 L359.57,466.12 L359.52,466.32 L359.47,466.53 L359.41,466.74 L359.34,466.96 L359.26,467.17 L359.21,467.28 L359.17,467.38 L359.12,467.49 L359.07,467.59 C358.48,468.82,357.62,469.46,357.52,469.46 C357.46,469.46,357.42,469.42,357.42,469.36 C357.42,469.33,357.42,469.31,357.61,469.13 C358.58,468.15,359.15,466.57,359.15,464.49 C359.15,462.8,358.78,461.05,357.55,459.8 C357.42,459.68,357.42,459.66,357.42,459.63 C357.42,459.57,357.46,459.53,357.52,459.53 C357.62,459.53,358.52,460.2,359.1,461.46 C359.61,462.56,359.73,463.66,359.73,464.49 Z " />
<path
   id="path6626"
   fill="black"
   stroke-width="0"
   d="M377.23,465.19 L377.23,465.34 L377.23,465.49 L377.22,465.64 L377.22,465.79 L377.21,465.93 L377.2,466.08 L377.18,466.23 L377.16,466.37 L377.14,466.52 L377.11,466.67 L377.08,466.81 L377.04,466.95 L377,467.09 L376.95,467.24 L376.89,467.38 L376.86,467.44 L376.83,467.51 C376.37,468.47,375.56,468.63,375.14,468.63 C374.54,468.63,373.82,468.37,373.41,467.45 C373.09,466.76,373.04,465.98,373.04,465.19 C373.04,464.45,373.08,463.55,373.49,462.8 C373.92,461.99,374.64,461.79,375.13,461.79 V462.01 C374.74,462.01,374.15,462.26,373.98,463.21 C373.87,463.81,373.87,464.72,373.87,465.31 C373.87,465.95,373.87,466.6,373.95,467.14 C374.14,468.32,374.88,468.41,375.13,468.41 C375.46,468.41,376.11,468.23,376.3,467.25 C376.4,466.69,376.4,465.93,376.4,465.31 C376.4,464.56,376.4,463.89,376.29,463.25 C376.14,462.31,375.58,462.01,375.13,462.01 H375.13 V461.79 C375.67,461.79,376.42,462,376.86,462.95 C377.18,463.63,377.23,464.4,377.23,465.19 Z " />
<path
   id="path6628"
   fill="black"
   stroke-width="0"
   d="M379.55,462.54 L379.55,462.56 L379.55,462.59 L379.54,462.62 L379.54,462.64 L379.53,462.67 L379.53,462.69 L379.52,462.72 L379.51,462.74 L379.5,462.76 L379.48,462.79 L379.47,462.81 L379.46,462.83 L379.44,462.85 L379.43,462.87 L379.41,462.89 L379.39,462.91 L379.38,462.93 L379.36,462.94 L379.34,462.96 L379.32,462.97 L379.29,462.99 L379.27,463 L379.25,463.01 L379.23,463.02 L379.2,463.03 L379.18,463.04 L379.15,463.05 L379.13,463.05 L379.1,463.06 L379.08,463.06 L379.05,463.06 L379.02,463.06 C378.73,463.06,378.49,462.83,378.49,462.54 C378.49,462.25,378.73,462.01,379.02,462.01 C379.31,462.01,379.55,462.25,379.55,462.54 Z " />
<path
   id="path6630"
   fill="black"
   stroke-width="0"
   d="M384.98,465.19 L384.98,465.34 L384.98,465.49 L384.98,465.64 L384.97,465.79 L384.96,465.93 L384.95,466.08 L384.93,466.23 L384.91,466.37 L384.89,466.52 L384.86,466.67 L384.83,466.81 L384.79,466.95 L384.75,467.09 L384.7,467.24 L384.65,467.38 L384.62,467.44 L384.58,467.51 C384.13,468.47,383.31,468.63,382.89,468.63 C382.3,468.63,381.57,468.37,381.16,467.45 C380.84,466.76,380.79,465.98,380.79,465.19 C380.79,464.45,380.83,463.55,381.24,462.8 C381.67,461.99,382.4,461.79,382.88,461.79 V462.01 C382.49,462.01,381.91,462.26,381.73,463.21 C381.62,463.81,381.62,464.72,381.62,465.31 C381.62,465.95,381.62,466.6,381.7,467.14 C381.89,468.32,382.64,468.41,382.88,468.41 C383.21,468.41,383.87,468.23,384.06,467.25 C384.16,466.69,384.16,465.93,384.16,465.31 C384.16,464.56,384.16,463.89,384.05,463.25 C383.9,462.31,383.33,462.01,382.88,462.01 H382.88 V461.79 C383.42,461.79,384.18,462,384.61,462.95 C384.93,463.63,384.98,464.4,384.98,465.19 Z " />
<path
   id="path6632"
   fill="black"
   stroke-width="0"
   d="M388.27,465.51 L388.35,465.53 L388.42,465.56 L388.5,465.59 L388.57,465.63 L388.64,465.66 L388.7,465.7 L388.77,465.74 L388.83,465.78 L388.9,465.83 L388.96,465.87 L389.02,465.92 L389.07,465.97 L389.13,466.02 L389.18,466.08 L389.23,466.13 L389.27,466.19 L389.32,466.25 L389.36,466.31 L389.4,466.37 L389.44,466.43 L389.47,466.49 L389.51,466.56 L389.54,466.62 L389.56,466.69 L389.59,466.76 L389.61,466.83 L389.62,466.9 L389.64,466.97 L389.65,467.04 L389.66,467.11 L389.66,467.18 L389.67,467.26 C389.67,468.07,388.79,468.63,387.83,468.63 C386.83,468.63,386.07,468.03,386.07,467.28 C386.07,466.95,386.29,466.76,386.58,466.76 C386.89,466.76,387.09,466.98,387.09,467.27 C387.09,467.76,386.62,467.76,386.47,467.76 C386.78,468.25,387.44,468.38,387.8,468.38 C388.2,468.38,388.75,468.16,388.75,467.27 C388.75,467.15,388.73,466.57,388.47,466.13 C388.17,465.66,387.83,465.63,387.59,465.62 C387.51,465.61,387.27,465.59,387.2,465.59 C387.12,465.58,387.05,465.57,387.05,465.47 C387.05,465.36,387.12,465.36,387.29,465.36 H387.73 C388.54,465.36,388.91,464.68,388.91,463.71 C388.91,462.36,388.22,462.07,387.79,462.07 C387.36,462.07,386.61,462.24,386.26,462.83 C386.61,462.78,386.92,462.99,386.92,463.37 C386.92,463.73,386.65,463.93,386.36,463.93 C386.12,463.93,385.8,463.79,385.8,463.35 C385.8,462.45,386.73,461.79,387.82,461.79 C389.03,461.79,389.93,462.7,389.93,463.71 C389.93,464.52,389.31,465.3,388.27,465.51 Z " />
<path
   id="path6634"
   fill="black"
   stroke-width="0"
   d="M330.45,448.61 L330.49,448.87 L331.17,451.58 C331.26,451.92,331.28,451.95,331.71,451.95 H332.66 C333.49,451.95,334.02,451.68,334.02,451 C334.02,450.61,333.82,449.76,333.43,449.4 C332.93,448.95,332.33,448.87,331.9,448.87 H330.49 L330.45,448.61 H332.15 C333.56,448.61,334.94,449.65,334.94,450.76 C334.94,451.53,334.29,452.26,332.98,452.26 H329.76 C329.57,452.26,329.46,452.26,329.46,452.07 C329.46,451.95,329.55,451.95,329.75,451.95 C329.88,451.95,330.06,451.94,330.18,451.93 C330.33,451.91,330.39,451.88,330.39,451.77 C330.39,451.73,330.39,451.7,330.36,451.58 L329.02,446.25 C328.92,445.86,328.9,445.78,328.12,445.78 C327.95,445.78,327.84,445.78,327.84,445.6 C327.84,445.48,327.96,445.48,327.99,445.48 C328.27,445.48,328.97,445.51,329.25,445.51 C329.46,445.51,329.68,445.5,329.89,445.5 C330.11,445.5,330.33,445.48,330.53,445.48 C330.6,445.48,330.73,445.48,330.73,445.67 C330.73,445.78,330.64,445.78,330.45,445.78 C330.09,445.78,329.81,445.78,329.81,445.96 C329.81,446.02,329.83,446.07,329.84,446.13 Z " />
<path
   id="path6636"
   fill="black"
   stroke-width="0"
   d="M338.51,443.09 L338.51,443.1 L338.51,443.1 L338.51,443.11 L338.51,443.11 L338.51,443.11 L338.51,443.11 L338.51,443.12 L338.51,443.12 L338.51,443.13 L338.5,443.13 L338.5,443.13 L338.5,443.14 L338.5,443.14 L338.49,443.15 L338.49,443.15 L338.48,443.16 L338.48,443.17 L338.47,443.17 L338.47,443.18 L338.47,443.18 L338.46,443.19 L338.46,443.19 L338.45,443.19 L338.45,443.2 L338.45,443.2 L338.44,443.21 L338.44,443.21 L338.43,443.22 L338.43,443.22 L338.42,443.23 L338.42,443.24 L338.41,443.24 L338.41,443.25 L338.4,443.25 L338.39,443.26 L338.39,443.27 L338.38,443.27 L338.37,443.28 L338.37,443.29 L338.36,443.29 L338.35,443.3 L338.34,443.31 C337.1,444.56,336.78,446.44,336.78,447.96 C336.78,449.69,337.16,451.42,338.38,452.66 C338.51,452.78,338.51,452.8,338.51,452.83 C338.51,452.9,338.47,452.93,338.41,452.93 C338.31,452.93,337.42,452.25,336.83,450.99 C336.32,449.9,336.2,448.79,336.2,447.96 C336.2,447.18,336.31,445.98,336.86,444.86 C337.46,443.64,338.31,442.99,338.41,442.99 C338.47,442.99,338.51,443.02,338.51,443.09 Z " />
<path
   id="path6638"
   fill="black"
   stroke-width="0"
   d="M343.34,451.51 L343.35,451.53 L343.35,451.56 L343.36,451.58 L343.37,451.6 L343.37,451.62 L343.38,451.64 L343.38,451.66 L343.39,451.68 L343.4,451.69 L343.4,451.71 L343.41,451.72 L343.41,451.74 L343.42,451.75 L343.43,451.76 L343.43,451.77 L343.44,451.78 L343.44,451.79 L343.45,451.8 L343.46,451.81 L343.46,451.82 L343.47,451.82 L343.48,451.83 L343.49,451.84 L343.49,451.84 L343.5,451.85 L343.51,451.85 L343.52,451.86 L343.53,451.86 L343.54,451.86 L343.55,451.87 L343.56,451.87 L343.57,451.87 C343.66,451.89,343.99,451.89,344.2,451.89 C345.2,451.89,345.65,451.85,345.65,451.08 C345.65,450.93,345.61,450.54,345.57,450.28 C345.56,450.24,345.54,450.12,345.54,450.1 C345.54,450.04,345.57,449.97,345.66,449.97 C345.77,449.97,345.79,450.05,345.81,450.2 L346.08,451.92 C346.09,451.96,346.1,452.06,346.1,452.09 C346.1,452.2,346,452.2,345.83,452.2 H340.31 C340.07,452.2,340.06,452.19,339.99,452 L339.39,450.25 C339.38,450.23,339.33,450.1,339.33,450.08 C339.33,450.02,339.38,449.97,339.45,449.97 C339.55,449.97,339.56,450.02,339.62,450.17 C340.16,451.71,340.42,451.89,341.89,451.89 H342.28 C342.56,451.89,342.56,451.85,342.56,451.77 C342.56,451.71,342.53,451.6,342.52,451.57 L341.18,446.26 C341.09,445.89,341.06,445.78,340,445.78 C339.64,445.78,339.58,445.78,339.58,445.6 C339.58,445.48,339.69,445.48,339.75,445.48 C340.02,445.48,340.3,445.5,340.57,445.5 C340.85,445.5,341.13,445.51,341.41,445.51 C341.69,445.51,341.97,445.5,342.24,445.5 C342.53,445.5,342.83,445.48,343.1,445.48 C343.2,445.48,343.32,445.48,343.32,445.67 C343.32,445.78,343.24,445.78,342.98,445.78 C342.73,445.78,342.61,445.78,342.35,445.8 C342.06,445.83,341.98,445.86,341.98,446.02 C341.98,446.03,341.98,446.08,342.02,446.23 Z " />
<path
   id="path6640"
   fill="black"
   stroke-width="0"
   d="M347.88,452.57 L347.88,452.6 L347.88,452.64 L347.88,452.67 L347.88,452.68 L347.88,452.7 L347.88,452.72 L347.88,452.73 L347.87,452.75 L347.87,452.76 L347.87,452.77 L347.87,452.79 L347.86,452.8 L347.86,452.81 L347.85,452.83 L347.85,452.84 L347.84,452.85 L347.83,452.86 L347.83,452.87 L347.82,452.88 L347.81,452.89 L347.8,452.9 L347.79,452.9 L347.78,452.91 L347.78,452.91 L347.77,452.91 L347.76,452.91 L347.76,452.92 L347.75,452.92 L347.74,452.92 L347.73,452.92 L347.73,452.92 L347.72,452.92 L347.71,452.92 L347.7,452.93 L347.69,452.93 L347.68,452.93 C347.48,452.93,347.48,452.75,347.48,452.57 V443.35 C347.48,443.17,347.48,442.99,347.68,442.99 C347.88,442.99,347.88,443.17,347.88,443.35 Z " />
<path
   id="path6642"
   fill="black"
   stroke-width="0"
   d="M350.85,446.62 L350.81,446.56 L350.77,446.5 L350.74,446.44 L350.7,446.39 L350.66,446.34 L350.62,446.3 L350.59,446.25 L350.55,446.21 L350.51,446.17 L350.48,446.14 L350.44,446.1 L350.4,446.07 L350.36,446.04 L350.33,446.01 L350.29,445.99 L350.25,445.96 L350.21,445.94 L350.18,445.92 L350.14,445.9 L350.1,445.89 L350.06,445.87 L350.02,445.86 L349.98,445.84 L349.94,445.83 L349.9,445.82 L349.87,445.82 L349.83,445.81 L349.79,445.8 L349.71,445.79 L349.62,445.78 C349.51,445.77,349.42,445.77,349.42,445.58 C349.42,445.53,349.46,445.48,349.55,445.48 C349.81,445.48,350.12,445.51,350.4,445.51 C350.73,445.51,351.08,445.48,351.39,445.48 C351.45,445.48,351.58,445.48,351.58,445.67 C351.58,445.77,351.49,445.78,351.42,445.78 C351.2,445.8,350.96,445.88,350.96,446.13 C350.96,446.25,351.02,446.36,351.1,446.5 L351.85,447.77 H354.35 L354.32,448.08 H352.04 L354,451.36 L354.32,448.08 L354.35,447.77 C354.37,447.56,354.51,446.21,354.51,446.11 C354.51,445.81,353.99,445.78,353.79,445.78 C353.65,445.78,353.55,445.78,353.55,445.58 C353.55,445.48,353.67,445.48,353.69,445.48 C354.1,445.48,354.53,445.51,354.94,445.51 C355.19,445.51,355.81,445.48,356.06,445.48 C356.12,445.48,356.24,445.48,356.24,445.67 C356.24,445.78,356.14,445.78,356.01,445.78 C355.39,445.78,355.39,445.85,355.36,446.14 L354.76,452.35 C354.74,452.55,354.74,452.59,354.57,452.59 C354.41,452.59,354.37,452.52,354.31,452.42 Z " />
<path
   id="path6644"
   fill="black"
   stroke-width="0"
   d="M359.41,447.96 L359.41,448.03 L359.41,448.11 L359.41,448.19 L359.41,448.27 L359.4,448.44 L359.39,448.61 L359.37,448.8 L359.35,448.98 L359.32,449.18 L359.29,449.38 L359.25,449.58 L359.21,449.79 L359.15,450 L359.09,450.21 L359.02,450.42 L358.94,450.64 L358.9,450.74 L358.86,450.85 L358.81,450.95 L358.76,451.06 C358.16,452.28,357.3,452.93,357.21,452.93 C357.15,452.93,357.11,452.89,357.11,452.83 C357.11,452.8,357.11,452.78,357.3,452.6 C358.27,451.61,358.84,450.04,358.84,447.96 C358.84,446.26,358.47,444.51,357.23,443.26 C357.11,443.14,357.11,443.12,357.11,443.09 C357.11,443.03,357.15,442.99,357.21,442.99 C357.3,442.99,358.2,443.67,358.79,444.93 C359.3,446.02,359.41,447.12,359.41,447.96 Z " />
<path
   id="path6646"
   fill="black"
   stroke-width="0"
   d="M377.23,448.65 L377.23,448.8 L377.23,448.95 L377.23,449.1 L377.22,449.25 L377.21,449.4 L377.2,449.55 L377.18,449.69 L377.17,449.84 L377.14,449.99 L377.11,450.13 L377.08,450.27 L377.04,450.42 L377,450.56 L376.95,450.7 L376.9,450.84 L376.87,450.91 L376.84,450.98 C376.38,451.93,375.56,452.09,375.14,452.09 C374.55,452.09,373.82,451.83,373.41,450.91 C373.1,450.22,373.05,449.45,373.05,448.65 C373.05,447.91,373.08,447.02,373.49,446.26 C373.92,445.46,374.65,445.26,375.14,445.26 V445.48 C374.75,445.48,374.16,445.72,373.98,446.68 C373.87,447.27,373.87,448.19,373.87,448.77 C373.87,449.41,373.87,450.07,373.95,450.6 C374.14,451.78,374.89,451.87,375.14,451.87 C375.46,451.87,376.12,451.7,376.31,450.71 C376.41,450.15,376.41,449.4,376.41,448.77 C376.41,448.03,376.41,447.35,376.3,446.72 C376.15,445.77,375.58,445.48,375.14,445.48 H375.14 V445.26 C375.67,445.26,376.43,445.47,376.87,446.41 C377.18,447.1,377.23,447.87,377.23,448.65 Z " />
<path
   id="path6648"
   fill="black"
   stroke-width="0"
   d="M379.55,446 L379.55,446.03 L379.55,446.06 L379.54,446.08 L379.54,446.11 L379.53,446.13 L379.53,446.16 L379.52,446.18 L379.51,446.21 L379.5,446.23 L379.48,446.25 L379.47,446.27 L379.46,446.3 L379.44,446.32 L379.43,446.34 L379.41,446.36 L379.39,446.37 L379.38,446.39 L379.36,446.41 L379.34,446.42 L379.32,446.44 L379.29,446.45 L379.27,446.47 L379.25,446.48 L379.23,446.49 L379.2,446.5 L379.18,446.51 L379.15,446.51 L379.13,446.52 L379.1,446.52 L379.08,446.53 L379.05,446.53 L379.02,446.53 C378.73,446.53,378.49,446.29,378.49,446 C378.49,445.71,378.73,445.48,379.02,445.48 C379.31,445.48,379.55,445.71,379.55,446 Z " />
<path
   id="path6650"
   fill="black"
   stroke-width="0"
   d="M383.33,451.83 L383.33,451.85 L383.33,451.86 L383.33,451.87 L383.33,451.88 L383.33,451.89 L383.33,451.9 L383.33,451.9 L383.33,451.91 L383.33,451.92 L383.33,451.93 L383.33,451.94 L383.33,451.95 L383.33,451.95 L383.33,451.96 L383.33,451.97 L383.33,451.97 L383.33,451.98 L383.33,451.99 L383.32,452 L383.32,452.01 L383.32,452.02 L383.32,452.03 L383.31,452.04 L383.31,452.05 L383.3,452.05 L383.3,452.06 L383.29,452.06 L383.28,452.07 L383.28,452.07 L383.27,452.08 L383.26,452.08 L383.26,452.08 L383.25,452.08 L383.25,452.08 L383.24,452.08 L383.23,452.09 L383.23,452.09 L383.22,452.09 L383.22,452.09 L383.21,452.09 L383.2,452.09 L383.19,452.09 L383.19,452.09 L383.18,452.09 L383.17,452.09 L383.16,452.09 L383.15,452.09 L383.14,452.09 L383.13,452.09 L383.12,452.09 L383.11,452.09 L383.1,452.09 C382.48,451.46,381.61,451.46,381.29,451.46 V451.15 C381.49,451.15,382.08,451.15,382.6,451.41 V446.26 C382.6,445.9,382.57,445.78,381.67,445.78 H381.35 V445.48 C381.7,445.51,382.57,445.51,382.96,445.51 C383.36,445.51,384.23,445.51,384.58,445.48 V445.78 H384.26 C383.36,445.78,383.33,445.89,383.33,446.26 Z " />
<path
   id="path6652"
   fill="black"
   stroke-width="0"
   d="M389.85,447.47 L389.85,447.58 L389.84,447.69 L389.83,447.8 L389.82,447.91 L389.8,448.01 L389.77,448.11 L389.74,448.21 L389.71,448.31 L389.67,448.41 L389.63,448.5 L389.59,448.59 L389.54,448.68 L389.49,448.77 L389.43,448.85 L389.37,448.93 L389.31,449 L389.25,449.08 L389.18,449.15 L389.11,449.21 L389.03,449.27 L388.96,449.33 L388.88,449.38 L388.8,449.43 L388.71,449.47 L388.63,449.51 L388.54,449.55 L388.45,449.58 L388.35,449.6 L388.26,449.62 L388.16,449.64 L388.06,449.65 L387.96,449.65 C387.49,449.65,387.06,449.49,386.7,449.14 V451.08 C386.9,451.02,387.23,450.95,387.55,450.95 C388.77,450.95,389.47,451.85,389.47,451.98 C389.47,452.04,389.44,452.09,389.37,452.09 C389.36,452.09,389.34,452.09,389.29,452.06 C389.09,451.97,388.6,451.77,387.93,451.77 C387.54,451.77,387.08,451.84,386.61,452.05 C386.53,452.08,386.51,452.08,386.49,452.08 C386.39,452.08,386.39,452,386.39,451.84 V448.9 C386.39,448.72,386.39,448.64,386.53,448.64 C386.6,448.64,386.62,448.67,386.66,448.73 C386.77,448.89,387.14,449.43,387.94,449.43 C388.46,449.43,388.71,448.97,388.79,448.79 C388.95,448.43,388.97,448.04,388.97,447.54 C388.97,447.2,388.97,446.6,388.73,446.18 C388.49,445.79,388.12,445.54,387.67,445.54 C386.94,445.54,386.37,446.06,386.2,446.65 C386.23,446.64,386.26,446.63,386.37,446.63 C386.7,446.63,386.87,446.88,386.87,447.11 C386.87,447.35,386.7,447.6,386.37,447.6 C386.23,447.6,385.89,447.53,385.89,447.08 C385.89,446.22,386.57,445.26,387.69,445.26 C388.84,445.26,389.85,446.21,389.85,447.47 Z " />
</g>  </g>
</svg>
