<?xml version="1.0" encoding="UTF-8"?>
<svg xmlns="http://www.w3.org/2000/svg" xmlns:xlink="http://www.w3.org/1999/xlink" width="310.28456pt" height="96.098433pt" viewBox="0 0 310.28456 96.098433" version="1.1">
<g id="surface1">
<path style=" stroke:none;fill-rule:nonzero;fill:rgb(0%,0%,0%);fill-opacity:1;" d="M 7.988281 6.777344 L 7.988281 5.703125 L 2.675781 5.703125 L 2.675781 1.152344 L 4.980469 1.152344 C 5.195312 1.152344 5.410156 1.171875 5.625 1.171875 L 8.730469 1.171875 L 8.730469 0.0390625 L 1.132812 0.0390625 L 1.132812 12.441406 L 2.675781 12.441406 L 2.675781 6.777344 Z M 7.988281 6.777344 "/>
<path style=" stroke:none;fill-rule:nonzero;fill:rgb(0%,0%,0%);fill-opacity:1;" d="M 17.183594 8.496094 C 17.183594 6.074219 15.40625 4.21875 13.355469 4.21875 C 11.246094 4.21875 9.507812 6.113281 9.507812 8.496094 C 9.507812 10.839844 11.285156 12.617188 13.335938 12.617188 C 15.445312 12.617188 17.183594 10.800781 17.183594 8.496094 Z M 13.355469 11.503906 C 12.066406 11.503906 10.855469 10.429688 10.855469 8.320312 C 10.855469 6.152344 12.203125 5.292969 13.335938 5.292969 C 14.566406 5.292969 15.835938 6.210938 15.835938 8.320312 C 15.835938 10.527344 14.546875 11.503906 13.355469 11.503906 Z M 13.355469 11.503906 "/>
<path style=" stroke:none;fill-rule:nonzero;fill:rgb(0%,0%,0%);fill-opacity:1;" d="M 20.097656 8.515625 C 20.097656 6.699219 21.445312 5.527344 23.066406 5.507812 L 23.066406 4.296875 C 21.425781 4.316406 20.488281 5.273438 20 5.976562 L 20 4.394531 L 18.769531 4.394531 L 18.769531 12.441406 L 20.097656 12.441406 Z M 20.097656 8.515625 "/>
<path style=" stroke:none;fill-rule:nonzero;fill:rgb(0%,0%,0%);fill-opacity:1;" d="M 33.628906 5.527344 L 36.109375 5.527344 L 36.109375 4.472656 L 33.628906 4.472656 L 33.628906 2.207031 L 32.398438 2.207031 L 32.398438 4.472656 L 30.894531 4.472656 L 30.894531 5.527344 L 32.359375 5.527344 L 32.359375 10.351562 C 32.359375 11.386719 32.59375 12.617188 33.824219 12.617188 C 35.035156 12.617188 35.855469 12.207031 36.402344 11.914062 L 36.128906 10.878906 C 35.503906 11.445312 34.839844 11.503906 34.527344 11.503906 C 33.726562 11.503906 33.628906 10.664062 33.628906 10.039062 Z M 33.628906 5.527344 "/>
<path style=" stroke:none;fill-rule:nonzero;fill:rgb(0%,0%,0%);fill-opacity:1;" d="M 44.460938 7.050781 C 44.460938 5.957031 44.226562 4.296875 42.058594 4.296875 C 40.828125 4.296875 40.007812 5 39.578125 5.546875 L 39.578125 0 L 38.25 0 L 38.25 12.441406 L 39.597656 12.441406 L 39.597656 7.96875 C 39.597656 6.875 40.027344 5.371094 41.375 5.371094 C 43.054688 5.371094 43.09375 6.542969 43.09375 7.167969 L 43.09375 12.441406 L 44.460938 12.441406 Z M 44.460938 7.050781 "/>
<path style=" stroke:none;fill-rule:nonzero;fill:rgb(0%,0%,0%);fill-opacity:1;" d="M 53.167969 8.398438 C 53.167969 7.636719 53.089844 6.542969 52.523438 5.585938 C 51.78125 4.355469 50.53125 4.21875 50.003906 4.21875 C 48.070312 4.21875 46.449219 6.074219 46.449219 8.398438 C 46.449219 10.78125 48.167969 12.617188 50.257812 12.617188 C 51.078125 12.617188 52.074219 12.382812 53.050781 11.679688 C 53.050781 11.601562 52.992188 11.035156 52.992188 11.015625 C 52.972656 10.996094 52.953125 10.585938 52.953125 10.527344 C 51.878906 11.425781 50.824219 11.542969 50.296875 11.542969 C 48.910156 11.542969 47.71875 10.3125 47.699219 8.398438 Z M 47.796875 7.441406 C 48.109375 6.230469 48.949219 5.292969 50.003906 5.292969 C 50.570312 5.292969 51.800781 5.546875 52.09375 7.441406 Z M 47.796875 7.441406 "/>
<path style=" stroke:none;fill-rule:nonzero;fill:rgb(0%,0%,0%);fill-opacity:1;" d="M 63.746094 8.515625 C 63.746094 6.699219 65.09375 5.527344 66.714844 5.507812 L 66.714844 4.296875 C 65.074219 4.316406 64.136719 5.273438 63.648438 5.976562 L 63.648438 4.394531 L 62.417969 4.394531 L 62.417969 12.441406 L 63.746094 12.441406 Z M 63.746094 8.515625 "/>
<path style=" stroke:none;fill-rule:nonzero;fill:rgb(0%,0%,0%);fill-opacity:1;" d="M 74.316406 8.398438 C 74.316406 7.636719 74.238281 6.542969 73.671875 5.585938 C 72.929688 4.355469 71.679688 4.21875 71.152344 4.21875 C 69.21875 4.21875 67.597656 6.074219 67.597656 8.398438 C 67.597656 10.78125 69.316406 12.617188 71.40625 12.617188 C 72.226562 12.617188 73.222656 12.382812 74.199219 11.679688 C 74.199219 11.601562 74.140625 11.035156 74.140625 11.015625 C 74.121094 10.996094 74.101562 10.585938 74.101562 10.527344 C 73.027344 11.425781 71.972656 11.542969 71.445312 11.542969 C 70.058594 11.542969 68.867188 10.3125 68.847656 8.398438 Z M 68.945312 7.441406 C 69.257812 6.230469 70.097656 5.292969 71.152344 5.292969 C 71.71875 5.292969 72.949219 5.546875 73.242188 7.441406 Z M 68.945312 7.441406 "/>
<path style=" stroke:none;fill-rule:nonzero;fill:rgb(0%,0%,0%);fill-opacity:1;" d="M 82.390625 4.296875 L 81.0625 4.296875 L 81.0625 5.449219 C 80.59375 4.902344 79.8125 4.296875 78.71875 4.296875 C 76.960938 4.296875 75.4375 6.074219 75.4375 8.476562 C 75.4375 10.761719 76.765625 12.617188 78.445312 12.617188 C 79.832031 12.617188 80.789062 11.796875 81.042969 11.523438 L 81.042969 15.917969 L 82.390625 15.917969 Z M 81.0625 9.941406 C 81.0625 10.292969 81.0625 10.3125 80.867188 10.585938 C 80.378906 11.308594 79.734375 11.542969 79.207031 11.542969 C 77.859375 11.542969 76.804688 10.136719 76.804688 8.476562 C 76.804688 6.640625 78.09375 5.410156 79.363281 5.410156 C 80.515625 5.410156 81.0625 6.582031 81.0625 7.304688 Z M 81.0625 9.941406 "/>
<path style=" stroke:none;fill-rule:nonzero;fill:rgb(0%,0%,0%);fill-opacity:1;" d="M 91.410156 4.472656 L 90.042969 4.472656 L 90.042969 9.609375 C 90.042969 10.976562 89.105469 11.640625 87.933594 11.640625 C 86.683594 11.640625 86.546875 11.171875 86.546875 10.371094 L 86.546875 4.472656 L 85.199219 4.472656 L 85.199219 10.449219 C 85.199219 11.738281 85.609375 12.617188 87.074219 12.617188 C 87.582031 12.617188 88.988281 12.539062 90.082031 11.542969 L 90.082031 12.441406 L 91.410156 12.441406 Z M 91.410156 4.472656 "/>
<path style=" stroke:none;fill-rule:nonzero;fill:rgb(0%,0%,0%);fill-opacity:1;" d="M 95.644531 0.273438 L 94.101562 0.273438 L 94.101562 1.816406 L 95.644531 1.816406 Z M 95.546875 4.472656 L 94.21875 4.472656 L 94.21875 12.441406 L 95.546875 12.441406 Z M 95.546875 4.472656 "/>
<path style=" stroke:none;fill-rule:nonzero;fill:rgb(0%,0%,0%);fill-opacity:1;" d="M 99.746094 8.515625 C 99.746094 6.699219 101.09375 5.527344 102.714844 5.507812 L 102.714844 4.296875 C 101.074219 4.316406 100.136719 5.273438 99.648438 5.976562 L 99.648438 4.394531 L 98.417969 4.394531 L 98.417969 12.441406 L 99.746094 12.441406 Z M 99.746094 8.515625 "/>
<path style=" stroke:none;fill-rule:nonzero;fill:rgb(0%,0%,0%);fill-opacity:1;" d="M 110.316406 8.398438 C 110.316406 7.636719 110.238281 6.542969 109.671875 5.585938 C 108.929688 4.355469 107.679688 4.21875 107.152344 4.21875 C 105.21875 4.21875 103.597656 6.074219 103.597656 8.398438 C 103.597656 10.78125 105.316406 12.617188 107.40625 12.617188 C 108.226562 12.617188 109.222656 12.382812 110.199219 11.679688 C 110.199219 11.601562 110.140625 11.035156 110.140625 11.015625 C 110.121094 10.996094 110.101562 10.585938 110.101562 10.527344 C 109.027344 11.425781 107.972656 11.542969 107.445312 11.542969 C 106.058594 11.542969 104.867188 10.3125 104.847656 8.398438 Z M 104.945312 7.441406 C 105.257812 6.230469 106.097656 5.292969 107.152344 5.292969 C 107.71875 5.292969 108.949219 5.546875 109.242188 7.441406 Z M 104.945312 7.441406 "/>
<path style=" stroke:none;fill-rule:nonzero;fill:rgb(0%,0%,0%);fill-opacity:1;" d="M 118.390625 0 L 117.0625 0 L 117.0625 5.234375 C 116.242188 4.550781 115.304688 4.296875 114.542969 4.296875 C 112.84375 4.296875 111.4375 6.132812 111.4375 8.457031 C 111.4375 10.78125 112.765625 12.617188 114.464844 12.617188 C 115.128906 12.617188 116.144531 12.402344 117.042969 11.523438 L 117.042969 12.441406 L 118.390625 12.441406 Z M 117.042969 10.332031 C 116.613281 11.09375 115.96875 11.542969 115.1875 11.542969 C 114.09375 11.542969 112.804688 10.703125 112.804688 8.476562 C 112.804688 6.09375 114.328125 5.371094 115.363281 5.371094 C 116.066406 5.371094 116.632812 5.742188 117.042969 6.328125 Z M 117.042969 10.332031 "/>
<path style=" stroke:none;fill-rule:nonzero;fill:rgb(0%,0%,0%);fill-opacity:1;" d="M 130.078125 5.527344 L 132.558594 5.527344 L 132.558594 4.472656 L 130.078125 4.472656 L 130.078125 2.207031 L 128.847656 2.207031 L 128.847656 4.472656 L 127.34375 4.472656 L 127.34375 5.527344 L 128.808594 5.527344 L 128.808594 10.351562 C 128.808594 11.386719 129.042969 12.617188 130.273438 12.617188 C 131.484375 12.617188 132.304688 12.207031 132.851562 11.914062 L 132.578125 10.878906 C 131.953125 11.445312 131.289062 11.503906 130.976562 11.503906 C 130.175781 11.503906 130.078125 10.664062 130.078125 10.039062 Z M 130.078125 5.527344 "/>
<path style=" stroke:none;fill-rule:nonzero;fill:rgb(0%,0%,0%);fill-opacity:1;" d="M 140.324219 7.1875 C 140.324219 5.46875 139.09375 4.21875 137.414062 4.21875 C 136.339844 4.21875 135.539062 4.453125 134.660156 4.960938 L 134.757812 6.152344 C 135.558594 5.566406 136.378906 5.253906 137.414062 5.253906 C 138.234375 5.253906 138.957031 5.917969 138.957031 7.226562 L 138.957031 7.96875 C 138.15625 7.988281 137.082031 8.046875 136.007812 8.398438 C 134.796875 8.828125 134.09375 9.492188 134.09375 10.371094 C 134.09375 11.171875 134.5625 12.617188 136.085938 12.617188 C 137.082031 12.617188 138.332031 12.324219 138.996094 11.777344 L 138.996094 12.441406 L 140.324219 12.441406 Z M 138.957031 10.039062 C 138.957031 10.390625 138.957031 10.820312 138.371094 11.191406 C 137.882812 11.484375 137.277344 11.542969 137.003906 11.542969 C 136.046875 11.542969 135.382812 11.015625 135.382812 10.371094 C 135.382812 9.140625 137.863281 8.867188 138.957031 8.867188 Z M 138.957031 10.039062 "/>
<path style=" stroke:none;fill-rule:nonzero;fill:rgb(0%,0%,0%);fill-opacity:1;" d="M 149.308594 7.050781 C 149.308594 5.957031 149.074219 4.296875 146.90625 4.296875 C 145.910156 4.296875 145.050781 4.746094 144.367188 5.605469 L 144.367188 4.394531 L 143.097656 4.394531 L 143.097656 12.441406 L 144.445312 12.441406 L 144.445312 7.96875 C 144.445312 6.875 144.875 5.371094 146.222656 5.371094 C 147.902344 5.371094 147.941406 6.542969 147.941406 7.167969 L 147.941406 12.441406 L 149.308594 12.441406 Z M 149.308594 7.050781 "/>
<path style=" stroke:none;fill-rule:nonzero;fill:rgb(0%,0%,0%);fill-opacity:1;" d="M 156.824219 5.371094 C 156.824219 5.371094 156.863281 5.410156 156.882812 5.449219 C 157.253906 5.410156 157.644531 5.351562 158.308594 5.351562 C 158.367188 5.351562 158.777344 5.351562 159.226562 5.390625 L 159.03125 4.296875 C 158.699219 4.296875 157.46875 4.316406 156.277344 4.902344 C 155.691406 4.394531 154.96875 4.296875 154.617188 4.296875 C 153.054688 4.296875 151.804688 5.605469 151.804688 7.1875 C 151.804688 7.832031 152 8.417969 152.390625 8.964844 C 151.980469 9.53125 151.882812 10.078125 151.882812 10.507812 C 151.882812 11.171875 152.136719 11.621094 152.332031 11.855469 C 151.414062 12.441406 151.199219 13.203125 151.199219 13.710938 C 151.199219 15.019531 152.898438 16.113281 155.085938 16.113281 C 157.273438 16.113281 158.992188 15.058594 158.992188 13.691406 C 158.992188 11.191406 156.082031 11.191406 155.359375 11.191406 L 153.835938 11.191406 C 153.582031 11.191406 152.800781 11.191406 152.800781 10.234375 C 152.800781 9.84375 152.878906 9.726562 152.996094 9.570312 C 153.289062 9.785156 153.875 10.097656 154.597656 10.097656 C 156.140625 10.097656 157.410156 8.828125 157.410156 7.1875 C 157.410156 6.542969 157.175781 5.878906 156.804688 5.390625 Z M 154.617188 9.101562 C 153.835938 9.101562 153.035156 8.574219 153.035156 7.207031 C 153.035156 5.605469 154.050781 5.292969 154.597656 5.292969 C 155.398438 5.292969 156.179688 5.820312 156.179688 7.1875 C 156.179688 8.789062 155.183594 9.101562 154.617188 9.101562 Z M 155.378906 12.480469 C 155.769531 12.480469 157.742188 12.480469 157.742188 13.710938 C 157.742188 14.53125 156.511719 15.136719 155.105469 15.136719 C 153.699219 15.136719 152.449219 14.570312 152.449219 13.691406 C 152.449219 13.652344 152.449219 12.480469 153.816406 12.480469 Z M 155.378906 12.480469 "/>
<path style=" stroke:none;fill-rule:nonzero;fill:rgb(0%,0%,0%);fill-opacity:1;" d="M 166.867188 8.398438 C 166.867188 7.636719 166.789062 6.542969 166.222656 5.585938 C 165.480469 4.355469 164.230469 4.21875 163.703125 4.21875 C 161.769531 4.21875 160.148438 6.074219 160.148438 8.398438 C 160.148438 10.78125 161.867188 12.617188 163.957031 12.617188 C 164.777344 12.617188 165.773438 12.382812 166.75 11.679688 C 166.75 11.601562 166.691406 11.035156 166.691406 11.015625 C 166.671875 10.996094 166.652344 10.585938 166.652344 10.527344 C 165.578125 11.425781 164.523438 11.542969 163.996094 11.542969 C 162.609375 11.542969 161.417969 10.3125 161.398438 8.398438 Z M 161.496094 7.441406 C 161.808594 6.230469 162.648438 5.292969 163.703125 5.292969 C 164.269531 5.292969 165.5 5.546875 165.792969 7.441406 Z M 161.496094 7.441406 "/>
<path style=" stroke:none;fill-rule:nonzero;fill:rgb(0%,0%,0%);fill-opacity:1;" d="M 174.960938 7.050781 C 174.960938 5.957031 174.726562 4.296875 172.558594 4.296875 C 171.5625 4.296875 170.703125 4.746094 170.019531 5.605469 L 170.019531 4.394531 L 168.75 4.394531 L 168.75 12.441406 L 170.097656 12.441406 L 170.097656 7.96875 C 170.097656 6.875 170.527344 5.371094 171.875 5.371094 C 173.554688 5.371094 173.59375 6.542969 173.59375 7.167969 L 173.59375 12.441406 L 174.960938 12.441406 Z M 174.960938 7.050781 "/>
<path style=" stroke:none;fill-rule:nonzero;fill:rgb(0%,0%,0%);fill-opacity:1;" d="M 179.429688 5.527344 L 181.910156 5.527344 L 181.910156 4.472656 L 179.429688 4.472656 L 179.429688 2.207031 L 178.199219 2.207031 L 178.199219 4.472656 L 176.695312 4.472656 L 176.695312 5.527344 L 178.160156 5.527344 L 178.160156 10.351562 C 178.160156 11.386719 178.394531 12.617188 179.625 12.617188 C 180.835938 12.617188 181.65625 12.207031 182.203125 11.914062 L 181.929688 10.878906 C 181.304688 11.445312 180.640625 11.503906 180.328125 11.503906 C 179.527344 11.503906 179.429688 10.664062 179.429688 10.039062 Z M 179.429688 5.527344 "/>
<path style=" stroke:none;fill-rule:nonzero;fill:rgb(0%,0%,0%);fill-opacity:1;" d="M 193.078125 5.527344 L 195.558594 5.527344 L 195.558594 4.472656 L 193.078125 4.472656 L 193.078125 2.207031 L 191.847656 2.207031 L 191.847656 4.472656 L 190.34375 4.472656 L 190.34375 5.527344 L 191.808594 5.527344 L 191.808594 10.351562 C 191.808594 11.386719 192.042969 12.617188 193.273438 12.617188 C 194.484375 12.617188 195.304688 12.207031 195.851562 11.914062 L 195.578125 10.878906 C 194.953125 11.445312 194.289062 11.503906 193.976562 11.503906 C 193.175781 11.503906 193.078125 10.664062 193.078125 10.039062 Z M 193.078125 5.527344 "/>
<path style=" stroke:none;fill-rule:nonzero;fill:rgb(0%,0%,0%);fill-opacity:1;" d="M 204.535156 8.496094 C 204.535156 6.074219 202.757812 4.21875 200.707031 4.21875 C 198.597656 4.21875 196.859375 6.113281 196.859375 8.496094 C 196.859375 10.839844 198.636719 12.617188 200.6875 12.617188 C 202.796875 12.617188 204.535156 10.800781 204.535156 8.496094 Z M 200.707031 11.503906 C 199.417969 11.503906 198.207031 10.429688 198.207031 8.320312 C 198.207031 6.152344 199.554688 5.292969 200.6875 5.292969 C 201.917969 5.292969 203.1875 6.210938 203.1875 8.320312 C 203.1875 10.527344 201.898438 11.503906 200.707031 11.503906 Z M 200.707031 11.503906 "/>
<path style=" stroke:none;fill-rule:nonzero;fill:rgb(0%,0%,0%);fill-opacity:1;" d="M 215.097656 0 L 213.769531 0 L 213.769531 12.441406 L 215.117188 12.441406 L 215.117188 11.640625 C 215.957031 12.421875 216.835938 12.617188 217.460938 12.617188 C 219.160156 12.617188 220.722656 10.878906 220.722656 8.4375 C 220.722656 6.230469 219.53125 4.296875 217.871094 4.296875 C 217.34375 4.296875 216.191406 4.414062 215.097656 5.3125 Z M 215.117188 6.40625 C 215.449219 5.898438 216.09375 5.371094 216.972656 5.371094 C 218.066406 5.371094 219.355469 6.210938 219.355469 8.4375 C 219.355469 10.78125 217.890625 11.542969 216.796875 11.542969 C 216.289062 11.542969 215.957031 11.367188 215.625 11.113281 C 215.195312 10.742188 215.117188 10.410156 215.117188 10.117188 Z M 215.117188 6.40625 "/>
<path style=" stroke:none;fill-rule:nonzero;fill:rgb(0%,0%,0%);fill-opacity:1;" d="M 229.117188 8.398438 C 229.117188 7.636719 229.039062 6.542969 228.472656 5.585938 C 227.730469 4.355469 226.480469 4.21875 225.953125 4.21875 C 224.019531 4.21875 222.398438 6.074219 222.398438 8.398438 C 222.398438 10.78125 224.117188 12.617188 226.207031 12.617188 C 227.027344 12.617188 228.023438 12.382812 229 11.679688 C 229 11.601562 228.941406 11.035156 228.941406 11.015625 C 228.921875 10.996094 228.902344 10.585938 228.902344 10.527344 C 227.828125 11.425781 226.773438 11.542969 226.246094 11.542969 C 224.859375 11.542969 223.667969 10.3125 223.648438 8.398438 Z M 223.746094 7.441406 C 224.058594 6.230469 224.898438 5.292969 225.953125 5.292969 C 226.519531 5.292969 227.75 5.546875 228.042969 7.441406 Z M 223.746094 7.441406 "/>
<path style=" stroke:none;fill-rule:nonzero;fill:rgb(0%,0%,0%);fill-opacity:1;" d="M 239.714844 11.640625 C 240.339844 12.1875 241.082031 12.617188 242.058594 12.617188 C 243.777344 12.617188 245.320312 10.878906 245.320312 8.4375 C 245.320312 6.269531 244.167969 4.296875 242.507812 4.296875 C 241.765625 4.296875 240.613281 4.53125 239.695312 5.332031 L 239.695312 4.472656 L 238.367188 4.472656 L 238.367188 15.917969 L 239.714844 15.917969 Z M 239.714844 6.425781 C 240.125 5.800781 240.808594 5.410156 241.550781 5.410156 C 242.878906 5.410156 243.953125 6.757812 243.953125 8.457031 C 243.953125 10.253906 242.722656 11.542969 241.394531 11.542969 C 240.886719 11.542969 240.554688 11.367188 240.222656 11.113281 C 239.773438 10.722656 239.714844 10.390625 239.714844 10.117188 Z M 239.714844 6.425781 "/>
<path style=" stroke:none;fill-rule:nonzero;fill:rgb(0%,0%,0%);fill-opacity:1;" d="M 252.972656 7.1875 C 252.972656 5.46875 251.742188 4.21875 250.0625 4.21875 C 248.988281 4.21875 248.1875 4.453125 247.308594 4.960938 L 247.40625 6.152344 C 248.207031 5.566406 249.027344 5.253906 250.0625 5.253906 C 250.882812 5.253906 251.605469 5.917969 251.605469 7.226562 L 251.605469 7.96875 C 250.804688 7.988281 249.730469 8.046875 248.65625 8.398438 C 247.445312 8.828125 246.742188 9.492188 246.742188 10.371094 C 246.742188 11.171875 247.210938 12.617188 248.734375 12.617188 C 249.730469 12.617188 250.980469 12.324219 251.644531 11.777344 L 251.644531 12.441406 L 252.972656 12.441406 Z M 251.605469 10.039062 C 251.605469 10.390625 251.605469 10.820312 251.019531 11.191406 C 250.53125 11.484375 249.925781 11.542969 249.652344 11.542969 C 248.695312 11.542969 248.03125 11.015625 248.03125 10.371094 C 248.03125 9.140625 250.511719 8.867188 251.605469 8.867188 Z M 251.605469 10.039062 "/>
<path style=" stroke:none;fill-rule:nonzero;fill:rgb(0%,0%,0%);fill-opacity:1;" d="M 256.644531 8.515625 C 256.644531 6.699219 257.992188 5.527344 259.613281 5.507812 L 259.613281 4.296875 C 257.972656 4.316406 257.035156 5.273438 256.546875 5.976562 L 256.546875 4.394531 L 255.316406 4.394531 L 255.316406 12.441406 L 256.644531 12.441406 Z M 256.644531 8.515625 "/>
<path style=" stroke:none;fill-rule:nonzero;fill:rgb(0%,0%,0%);fill-opacity:1;" d="M 266.921875 7.1875 C 266.921875 5.46875 265.691406 4.21875 264.011719 4.21875 C 262.9375 4.21875 262.136719 4.453125 261.257812 4.960938 L 261.355469 6.152344 C 262.15625 5.566406 262.976562 5.253906 264.011719 5.253906 C 264.832031 5.253906 265.554688 5.917969 265.554688 7.226562 L 265.554688 7.96875 C 264.753906 7.988281 263.679688 8.046875 262.605469 8.398438 C 261.394531 8.828125 260.691406 9.492188 260.691406 10.371094 C 260.691406 11.171875 261.160156 12.617188 262.683594 12.617188 C 263.679688 12.617188 264.929688 12.324219 265.59375 11.777344 L 265.59375 12.441406 L 266.921875 12.441406 Z M 265.554688 10.039062 C 265.554688 10.390625 265.554688 10.820312 264.96875 11.191406 C 264.480469 11.484375 263.875 11.542969 263.601562 11.542969 C 262.644531 11.542969 261.980469 11.015625 261.980469 10.371094 C 261.980469 9.140625 264.460938 8.867188 265.554688 8.867188 Z M 265.554688 10.039062 "/>
<path style=" stroke:none;fill-rule:nonzero;fill:rgb(0%,0%,0%);fill-opacity:1;" d="M 271.046875 0 L 269.71875 0 L 269.71875 12.441406 L 271.046875 12.441406 Z M 271.046875 0 "/>
<path style=" stroke:none;fill-rule:nonzero;fill:rgb(0%,0%,0%);fill-opacity:1;" d="M 275.246094 0 L 273.917969 0 L 273.917969 12.441406 L 275.246094 12.441406 Z M 275.246094 0 "/>
<path style=" stroke:none;fill-rule:nonzero;fill:rgb(0%,0%,0%);fill-opacity:1;" d="M 284.015625 8.398438 C 284.015625 7.636719 283.9375 6.542969 283.371094 5.585938 C 282.628906 4.355469 281.378906 4.21875 280.851562 4.21875 C 278.917969 4.21875 277.296875 6.074219 277.296875 8.398438 C 277.296875 10.78125 279.015625 12.617188 281.105469 12.617188 C 281.925781 12.617188 282.921875 12.382812 283.898438 11.679688 C 283.898438 11.601562 283.839844 11.035156 283.839844 11.015625 C 283.820312 10.996094 283.800781 10.585938 283.800781 10.527344 C 282.726562 11.425781 281.671875 11.542969 281.144531 11.542969 C 279.757812 11.542969 278.566406 10.3125 278.546875 8.398438 Z M 278.644531 7.441406 C 278.957031 6.230469 279.796875 5.292969 280.851562 5.292969 C 281.417969 5.292969 282.648438 5.546875 282.941406 7.441406 Z M 278.644531 7.441406 "/>
<path style=" stroke:none;fill-rule:nonzero;fill:rgb(0%,0%,0%);fill-opacity:1;" d="M 287.246094 0 L 285.917969 0 L 285.917969 12.441406 L 287.246094 12.441406 Z M 287.246094 0 "/>
<path style=" stroke:none;fill-rule:nonzero;fill:rgb(0%,0%,0%);fill-opacity:1;" d="M 298.828125 5.527344 L 301.308594 5.527344 L 301.308594 4.472656 L 298.828125 4.472656 L 298.828125 2.207031 L 297.597656 2.207031 L 297.597656 4.472656 L 296.09375 4.472656 L 296.09375 5.527344 L 297.558594 5.527344 L 297.558594 10.351562 C 297.558594 11.386719 297.792969 12.617188 299.023438 12.617188 C 300.234375 12.617188 301.054688 12.207031 301.601562 11.914062 L 301.328125 10.878906 C 300.703125 11.445312 300.039062 11.503906 299.726562 11.503906 C 298.925781 11.503906 298.828125 10.664062 298.828125 10.039062 Z M 298.828125 5.527344 "/>
<path style=" stroke:none;fill-rule:nonzero;fill:rgb(0%,0%,0%);fill-opacity:1;" d="M 310.285156 8.496094 C 310.285156 6.074219 308.507812 4.21875 306.457031 4.21875 C 304.347656 4.21875 302.609375 6.113281 302.609375 8.496094 C 302.609375 10.839844 304.386719 12.617188 306.4375 12.617188 C 308.546875 12.617188 310.285156 10.800781 310.285156 8.496094 Z M 306.457031 11.503906 C 305.167969 11.503906 303.957031 10.429688 303.957031 8.320312 C 303.957031 6.152344 305.304688 5.292969 306.4375 5.292969 C 307.667969 5.292969 308.9375 6.210938 308.9375 8.320312 C 308.9375 10.527344 307.648438 11.503906 306.457031 11.503906 Z M 306.457031 11.503906 "/>
<path style=" stroke:none;fill-rule:nonzero;fill:rgb(0%,0%,0%);fill-opacity:1;" d="M 5.976562 21.910156 C 5.976562 21.578125 5.976562 21.480469 5.742188 21.480469 C 5.585938 21.480469 5.527344 21.480469 5.390625 21.695312 L 0 30.074219 L 0 30.601562 L 4.707031 30.601562 L 4.707031 32.222656 C 4.707031 32.886719 4.667969 33.0625 3.359375 33.0625 L 3.007812 33.0625 L 3.007812 33.589844 C 3.417969 33.550781 4.84375 33.550781 5.332031 33.550781 C 5.839844 33.550781 7.265625 33.550781 7.695312 33.589844 L 7.695312 33.0625 L 7.324219 33.0625 C 6.035156 33.0625 5.976562 32.886719 5.976562 32.222656 L 5.976562 30.601562 L 7.792969 30.601562 L 7.792969 30.074219 L 5.976562 30.074219 Z M 4.804688 23.316406 L 4.804688 30.074219 L 0.449219 30.074219 Z M 4.804688 23.316406 "/>
<path style=" stroke:none;fill-rule:nonzero;fill:rgb(0%,0%,0%);fill-opacity:1;" d="M 16.859375 26.265625 C 16.292969 26.382812 16.078125 26.8125 16.078125 27.144531 C 16.078125 27.574219 16.410156 27.730469 16.664062 27.730469 C 17.210938 27.730469 17.582031 27.261719 17.582031 26.773438 C 17.582031 26.03125 16.722656 25.679688 15.960938 25.679688 C 14.867188 25.679688 14.261719 26.753906 14.105469 27.105469 C 13.695312 25.757812 12.582031 25.679688 12.25 25.679688 C 10.433594 25.679688 9.457031 28.023438 9.457031 28.433594 C 9.457031 28.492188 9.535156 28.589844 9.652344 28.589844 C 9.789062 28.589844 9.828125 28.472656 9.867188 28.414062 C 10.472656 26.421875 11.683594 26.050781 12.191406 26.050781 C 13.011719 26.050781 13.167969 26.792969 13.167969 27.222656 C 13.167969 27.613281 13.070312 28.023438 12.835938 28.882812 L 12.230469 31.34375 C 11.976562 32.417969 11.449219 33.414062 10.492188 33.414062 C 10.414062 33.414062 9.964844 33.414062 9.574219 33.179688 C 10.21875 33.042969 10.375 32.515625 10.375 32.300781 C 10.375 31.949219 10.101562 31.734375 9.769531 31.734375 C 9.339844 31.734375 8.871094 32.105469 8.871094 32.671875 C 8.871094 33.433594 9.710938 33.765625 10.472656 33.765625 C 11.332031 33.765625 11.957031 33.082031 12.328125 32.359375 C 12.621094 33.414062 13.5 33.765625 14.164062 33.765625 C 16 33.765625 16.976562 31.421875 16.976562 31.03125 C 16.976562 30.933594 16.898438 30.855469 16.78125 30.855469 C 16.625 30.855469 16.605469 30.953125 16.566406 31.089844 C 16.078125 32.671875 15.023438 33.414062 14.222656 33.414062 C 13.597656 33.414062 13.265625 32.945312 13.265625 32.203125 C 13.265625 31.8125 13.324219 31.519531 13.617188 30.347656 L 14.242188 27.90625 C 14.515625 26.832031 15.121094 26.050781 15.941406 26.050781 C 15.980469 26.050781 16.488281 26.050781 16.859375 26.265625 Z M 16.859375 26.265625 "/>
<path style=" stroke:none;fill-rule:nonzero;fill:rgb(0%,0%,0%);fill-opacity:1;" d="M 34.128906 29.46875 C 34.441406 29.46875 34.753906 29.46875 34.753906 29.117188 C 34.753906 28.746094 34.441406 28.746094 34.128906 28.746094 L 24.421875 28.746094 C 24.128906 28.746094 23.796875 28.746094 23.796875 29.117188 C 23.796875 29.46875 24.128906 29.46875 24.421875 29.46875 Z M 34.128906 29.46875 "/>
<path style=" stroke:none;fill-rule:nonzero;fill:rgb(0%,0%,0%);fill-opacity:1;" d="M 48.054688 30.582031 L 47.664062 30.582031 C 47.605469 30.875 47.46875 31.871094 47.273438 32.164062 C 47.15625 32.320312 46.140625 32.320312 45.59375 32.320312 L 42.273438 32.320312 C 42.761719 31.910156 43.855469 30.757812 44.324219 30.328125 C 47.058594 27.808594 48.054688 26.890625 48.054688 25.113281 C 48.054688 23.042969 46.414062 21.675781 44.34375 21.675781 C 42.253906 21.675781 41.042969 23.433594 41.042969 24.976562 C 41.042969 25.894531 41.824219 25.894531 41.882812 25.894531 C 42.253906 25.894531 42.722656 25.621094 42.722656 25.054688 C 42.722656 24.546875 42.390625 24.214844 41.882812 24.214844 C 41.726562 24.214844 41.6875 24.214844 41.628906 24.234375 C 41.980469 23.003906 42.9375 22.183594 44.109375 22.183594 C 45.632812 22.183594 46.570312 23.453125 46.570312 25.113281 C 46.570312 26.636719 45.691406 27.964844 44.65625 29.117188 L 41.042969 33.160156 L 41.042969 33.589844 L 47.585938 33.589844 Z M 48.054688 30.582031 "/>
<path style=" stroke:none;fill-rule:nonzero;fill:rgb(0%,0%,0%);fill-opacity:1;" d="M 53.71875 35.601562 C 53.25 36.285156 52.546875 36.890625 51.667969 36.890625 C 51.453125 36.890625 50.59375 36.851562 50.320312 36.03125 C 50.378906 36.050781 50.457031 36.050781 50.496094 36.050781 C 51.042969 36.050781 51.394531 35.582031 51.394531 35.171875 C 51.394531 34.761719 51.0625 34.605469 50.789062 34.605469 C 50.496094 34.605469 49.871094 34.820312 49.871094 35.699219 C 49.871094 36.617188 50.652344 37.242188 51.667969 37.242188 C 53.464844 37.242188 55.261719 35.601562 55.769531 33.609375 L 57.527344 26.617188 C 57.546875 26.519531 57.585938 26.421875 57.585938 26.304688 C 57.585938 26.050781 57.371094 25.855469 57.097656 25.855469 C 56.941406 25.855469 56.550781 25.933594 56.414062 26.480469 L 55.085938 31.734375 C 55.007812 32.066406 55.007812 32.105469 54.851562 32.300781 C 54.5 32.808594 53.914062 33.414062 53.054688 33.414062 C 52.039062 33.414062 51.960938 32.417969 51.960938 31.949219 C 51.960938 30.914062 52.429688 29.546875 52.917969 28.238281 C 53.113281 27.730469 53.230469 27.476562 53.230469 27.125 C 53.230469 26.363281 52.683594 25.679688 51.804688 25.679688 C 50.164062 25.679688 49.5 28.277344 49.5 28.433594 C 49.5 28.492188 49.558594 28.589844 49.695312 28.589844 C 49.851562 28.589844 49.871094 28.511719 49.949219 28.257812 C 50.378906 26.753906 51.0625 26.050781 51.746094 26.050781 C 51.921875 26.050781 52.214844 26.050781 52.214844 26.636719 C 52.214844 27.105469 52.019531 27.613281 51.746094 28.296875 C 50.867188 30.640625 50.867188 31.246094 50.867188 31.675781 C 50.867188 33.375 52.097656 33.765625 52.996094 33.765625 C 53.503906 33.765625 54.148438 33.609375 54.792969 32.945312 L 54.8125 32.964844 C 54.539062 34.019531 54.363281 34.722656 53.71875 35.601562 Z M 53.71875 35.601562 "/>
<path style=" stroke:none;fill-rule:nonzero;fill:rgb(0%,0%,0%);fill-opacity:1;" d="M 69.359375 29.449219 L 74.320312 29.449219 C 74.574219 29.449219 74.886719 29.449219 74.886719 29.117188 C 74.886719 28.785156 74.574219 28.785156 74.320312 28.785156 L 69.359375 28.785156 L 69.359375 23.84375 C 69.359375 23.589844 69.359375 23.257812 69.046875 23.257812 C 68.695312 23.257812 68.695312 23.570312 68.695312 23.84375 L 68.695312 28.785156 L 63.753906 28.785156 C 63.5 28.785156 63.1875 28.785156 63.1875 29.117188 C 63.1875 29.449219 63.480469 29.449219 63.753906 29.449219 L 68.695312 29.449219 L 68.695312 34.390625 C 68.695312 34.644531 68.695312 34.976562 69.027344 34.976562 C 69.359375 34.976562 69.359375 34.664062 69.359375 34.390625 Z M 69.359375 29.449219 "/>
<path style=" stroke:none;fill-rule:nonzero;fill:rgb(0%,0%,0%);fill-opacity:1;" d="M 82.066406 23.316406 C 82.828125 23.570312 83.453125 23.589844 83.648438 23.589844 C 85.679688 23.589844 86.96875 22.105469 86.96875 21.851562 C 86.96875 21.773438 86.929688 21.675781 86.832031 21.675781 C 86.792969 21.675781 86.753906 21.675781 86.597656 21.753906 C 85.582031 22.183594 84.722656 22.242188 84.253906 22.242188 C 83.082031 22.242188 82.242188 21.890625 81.890625 21.734375 C 81.773438 21.675781 81.734375 21.675781 81.714844 21.675781 C 81.578125 21.675781 81.578125 21.792969 81.578125 22.085938 L 81.578125 27.398438 C 81.578125 27.730469 81.578125 27.828125 81.792969 27.828125 C 81.871094 27.828125 81.890625 27.808594 82.066406 27.59375 C 82.574219 26.871094 83.414062 26.441406 84.3125 26.441406 C 85.269531 26.441406 85.738281 27.320312 85.875 27.613281 C 86.1875 28.316406 86.207031 29.195312 86.207031 29.878906 C 86.207031 30.5625 86.207031 31.578125 85.699219 32.378906 C 85.308594 33.042969 84.605469 33.472656 83.804688 33.472656 C 82.632812 33.472656 81.460938 32.671875 81.148438 31.363281 C 81.226562 31.402344 81.34375 31.421875 81.421875 31.421875 C 81.734375 31.421875 82.222656 31.246094 82.222656 30.640625 C 82.222656 30.132812 81.871094 29.839844 81.421875 29.839844 C 81.109375 29.839844 80.640625 29.996094 80.640625 30.699219 C 80.640625 32.222656 81.851562 33.960938 83.84375 33.960938 C 85.875 33.960938 87.652344 32.261719 87.652344 29.976562 C 87.652344 27.847656 86.207031 26.070312 84.332031 26.070312 C 83.316406 26.070312 82.515625 26.519531 82.066406 27.027344 Z M 82.066406 23.316406 "/>
<path style=" stroke:none;fill-rule:nonzero;fill:rgb(0%,0%,0%);fill-opacity:1;" d="M 105.671875 27.789062 C 105.925781 27.789062 106.238281 27.789062 106.238281 27.457031 C 106.238281 27.125 105.925781 27.125 105.671875 27.125 L 95.105469 27.125 C 94.851562 27.125 94.539062 27.125 94.539062 27.4375 C 94.539062 27.789062 94.832031 27.789062 95.105469 27.789062 Z M 105.671875 31.109375 C 105.925781 31.109375 106.238281 31.109375 106.238281 30.796875 C 106.238281 30.445312 105.925781 30.445312 105.671875 30.445312 L 95.105469 30.445312 C 94.851562 30.445312 94.539062 30.445312 94.539062 30.777344 C 94.539062 31.109375 94.832031 31.109375 95.105469 31.109375 Z M 105.671875 31.109375 "/>
<path style=" stroke:none;fill-rule:nonzero;fill:rgb(0%,0%,0%);fill-opacity:1;" d="M 120.191406 27.847656 C 120.191406 26.363281 120.113281 24.917969 119.46875 23.550781 C 118.726562 22.066406 117.4375 21.675781 116.558594 21.675781 C 115.523438 21.675781 114.234375 22.183594 113.589844 23.667969 C 113.082031 24.800781 112.90625 25.914062 112.90625 27.847656 C 112.90625 29.585938 113.023438 30.894531 113.667969 32.164062 C 114.371094 33.53125 115.601562 33.960938 116.539062 33.960938 C 118.101562 33.960938 119 33.042969 119.507812 31.988281 C 120.152344 30.640625 120.191406 28.882812 120.191406 27.847656 Z M 116.539062 33.609375 C 115.972656 33.609375 114.800781 33.277344 114.46875 31.324219 C 114.253906 30.25 114.253906 28.882812 114.253906 27.632812 C 114.253906 26.167969 114.253906 24.839844 114.546875 23.785156 C 114.859375 22.574219 115.777344 22.027344 116.539062 22.027344 C 117.222656 22.027344 118.257812 22.4375 118.609375 23.980469 C 118.824219 24.996094 118.824219 26.421875 118.824219 27.632812 C 118.824219 28.84375 118.824219 30.191406 118.628906 31.285156 C 118.296875 33.257812 117.164062 33.609375 116.539062 33.609375 Z M 116.539062 33.609375 "/>
<path style=" stroke:none;fill-rule:nonzero;fill:rgb(0%,0%,0%);fill-opacity:1;" d="M 124.175781 33.570312 L 124.175781 32.144531 L 122.710938 32.144531 L 122.710938 33.589844 L 123.160156 33.589844 L 122.710938 35.835938 L 123.433594 35.835938 Z M 124.175781 33.570312 "/>
<path style=" stroke:none;fill-rule:nonzero;fill:rgb(0%,0%,0%);fill-opacity:1;" d="M 84.863281 60.894531 C 84.550781 60.914062 84.492188 60.933594 84.492188 61.109375 C 84.492188 61.285156 84.570312 61.285156 84.902344 61.285156 L 85.722656 61.285156 C 87.246094 61.285156 87.929688 62.535156 87.929688 64.253906 C 87.929688 66.597656 86.699219 67.222656 85.820312 67.222656 C 84.960938 67.222656 83.496094 66.8125 82.988281 65.640625 C 83.554688 65.71875 84.082031 65.40625 84.082031 64.761719 C 84.082031 64.234375 83.691406 63.882812 83.203125 63.882812 C 82.773438 63.882812 82.304688 64.136719 82.304688 64.820312 C 82.304688 66.402344 83.886719 67.710938 85.878906 67.710938 C 88.007812 67.710938 89.589844 66.089844 89.589844 64.273438 C 89.589844 62.632812 88.261719 61.324219 86.542969 61.03125 C 88.105469 60.582031 89.101562 59.273438 89.101562 57.867188 C 89.101562 56.460938 87.636719 55.425781 85.898438 55.425781 C 84.101562 55.425781 82.773438 56.519531 82.773438 57.828125 C 82.773438 58.53125 83.339844 58.6875 83.613281 58.6875 C 83.984375 58.6875 84.414062 58.414062 84.414062 57.867188 C 84.414062 57.300781 83.984375 57.046875 83.59375 57.046875 C 83.476562 57.046875 83.4375 57.046875 83.398438 57.066406 C 84.082031 55.855469 85.761719 55.855469 85.839844 55.855469 C 86.445312 55.855469 87.597656 56.109375 87.597656 57.867188 C 87.597656 58.21875 87.558594 59.214844 87.03125 59.996094 C 86.484375 60.777344 85.878906 60.835938 85.390625 60.855469 Z M 84.863281 60.894531 "/>
<path style=" stroke:none;fill-rule:nonzero;fill:rgb(0%,0%,0%);fill-opacity:1;" d="M 53.648438 74.707031 L 118.148438 74.707031 L 118.148438 75.460938 L 53.648438 75.460938 Z M 53.648438 74.707031 "/>
<path style=" stroke:none;fill-rule:nonzero;fill:rgb(0%,0%,0%);fill-opacity:1;" d="M 60.632812 94.222656 L 57.488281 87.25 C 57.351562 86.957031 57.273438 86.957031 57.214844 86.957031 C 57.195312 86.957031 57.097656 86.957031 56.902344 87.09375 L 55.203125 88.402344 C 54.96875 88.578125 54.96875 88.617188 54.96875 88.675781 C 54.96875 88.773438 55.027344 88.871094 55.144531 88.871094 C 55.261719 88.871094 55.554688 88.617188 55.75 88.480469 C 55.867188 88.402344 56.140625 88.1875 56.335938 88.050781 L 59.871094 95.824219 C 59.988281 96.097656 60.085938 96.097656 60.242188 96.097656 C 60.515625 96.097656 60.554688 96 60.691406 95.746094 L 68.835938 78.890625 C 68.953125 78.636719 68.953125 78.558594 68.953125 78.539062 C 68.953125 78.34375 68.816406 78.167969 68.601562 78.167969 C 68.445312 78.167969 68.328125 78.265625 68.191406 78.558594 Z M 60.632812 94.222656 "/>
<path style=" stroke:none;fill-rule:nonzero;fill:rgb(0%,0%,0%);fill-opacity:1;" d="M 68.648438 78.15625 L 118.148438 78.15625 L 118.148438 78.90625 L 68.648438 78.90625 Z M 68.648438 78.15625 "/>
<path style=" stroke:none;fill-rule:nonzero;fill:rgb(0%,0%,0%);fill-opacity:1;" d="M 71.960938 86.546875 C 71.648438 86.566406 71.589844 86.585938 71.589844 86.761719 C 71.589844 86.9375 71.667969 86.9375 72 86.9375 L 72.820312 86.9375 C 74.34375 86.9375 75.027344 88.1875 75.027344 89.90625 C 75.027344 92.25 73.796875 92.875 72.917969 92.875 C 72.058594 92.875 70.59375 92.464844 70.085938 91.292969 C 70.652344 91.371094 71.179688 91.058594 71.179688 90.414062 C 71.179688 89.886719 70.789062 89.535156 70.300781 89.535156 C 69.871094 89.535156 69.402344 89.789062 69.402344 90.472656 C 69.402344 92.054688 70.984375 93.363281 72.976562 93.363281 C 75.105469 93.363281 76.6875 91.742188 76.6875 89.925781 C 76.6875 88.285156 75.359375 86.976562 73.640625 86.683594 C 75.203125 86.234375 76.199219 84.925781 76.199219 83.519531 C 76.199219 82.113281 74.734375 81.078125 72.996094 81.078125 C 71.199219 81.078125 69.871094 82.171875 69.871094 83.480469 C 69.871094 84.183594 70.4375 84.339844 70.710938 84.339844 C 71.082031 84.339844 71.511719 84.066406 71.511719 83.519531 C 71.511719 82.953125 71.082031 82.699219 70.691406 82.699219 C 70.574219 82.699219 70.535156 82.699219 70.496094 82.71875 C 71.179688 81.507812 72.859375 81.507812 72.9375 81.507812 C 73.542969 81.507812 74.695312 81.761719 74.695312 83.519531 C 74.695312 83.871094 74.65625 84.867188 74.128906 85.648438 C 73.582031 86.429688 72.976562 86.488281 72.488281 86.507812 Z M 71.960938 86.546875 "/>
<path style=" stroke:none;fill-rule:nonzero;fill:rgb(0%,0%,0%);fill-opacity:1;" d="M 86.007812 85.667969 C 85.441406 85.785156 85.226562 86.214844 85.226562 86.546875 C 85.226562 86.976562 85.558594 87.132812 85.8125 87.132812 C 86.359375 87.132812 86.730469 86.664062 86.730469 86.175781 C 86.730469 85.433594 85.871094 85.082031 85.109375 85.082031 C 84.015625 85.082031 83.410156 86.15625 83.253906 86.507812 C 82.84375 85.160156 81.730469 85.082031 81.398438 85.082031 C 79.582031 85.082031 78.605469 87.425781 78.605469 87.835938 C 78.605469 87.894531 78.683594 87.992188 78.800781 87.992188 C 78.9375 87.992188 78.976562 87.875 79.015625 87.816406 C 79.621094 85.824219 80.832031 85.453125 81.339844 85.453125 C 82.160156 85.453125 82.316406 86.195312 82.316406 86.625 C 82.316406 87.015625 82.21875 87.425781 81.984375 88.285156 L 81.378906 90.746094 C 81.125 91.820312 80.597656 92.816406 79.640625 92.816406 C 79.5625 92.816406 79.113281 92.816406 78.722656 92.582031 C 79.367188 92.445312 79.523438 91.917969 79.523438 91.703125 C 79.523438 91.351562 79.25 91.136719 78.917969 91.136719 C 78.488281 91.136719 78.019531 91.507812 78.019531 92.074219 C 78.019531 92.835938 78.859375 93.167969 79.621094 93.167969 C 80.480469 93.167969 81.105469 92.484375 81.476562 91.761719 C 81.769531 92.816406 82.648438 93.167969 83.3125 93.167969 C 85.148438 93.167969 86.125 90.824219 86.125 90.433594 C 86.125 90.335938 86.046875 90.257812 85.929688 90.257812 C 85.773438 90.257812 85.753906 90.355469 85.714844 90.492188 C 85.226562 92.074219 84.171875 92.816406 83.371094 92.816406 C 82.746094 92.816406 82.414062 92.347656 82.414062 91.605469 C 82.414062 91.214844 82.472656 90.921875 82.765625 89.75 L 83.390625 87.308594 C 83.664062 86.234375 84.269531 85.453125 85.089844 85.453125 C 85.128906 85.453125 85.636719 85.453125 86.007812 85.667969 Z M 86.007812 85.667969 "/>
<path style=" stroke:none;fill-rule:nonzero;fill:rgb(0%,0%,0%);fill-opacity:1;" d="M 103.277344 88.871094 C 103.589844 88.871094 103.902344 88.871094 103.902344 88.519531 C 103.902344 88.148438 103.589844 88.148438 103.277344 88.148438 L 93.570312 88.148438 C 93.277344 88.148438 92.945312 88.148438 92.945312 88.519531 C 92.945312 88.871094 93.277344 88.871094 93.570312 88.871094 Z M 103.277344 88.871094 "/>
<path style=" stroke:none;fill-rule:nonzero;fill:rgb(0%,0%,0%);fill-opacity:1;" d="M 117.203125 89.984375 L 116.8125 89.984375 C 116.753906 90.277344 116.617188 91.273438 116.421875 91.566406 C 116.304688 91.722656 115.289062 91.722656 114.742188 91.722656 L 111.421875 91.722656 C 111.910156 91.3125 113.003906 90.160156 113.472656 89.730469 C 116.207031 87.210938 117.203125 86.292969 117.203125 84.515625 C 117.203125 82.445312 115.5625 81.078125 113.492188 81.078125 C 111.402344 81.078125 110.191406 82.835938 110.191406 84.378906 C 110.191406 85.296875 110.972656 85.296875 111.03125 85.296875 C 111.402344 85.296875 111.871094 85.023438 111.871094 84.457031 C 111.871094 83.949219 111.539062 83.617188 111.03125 83.617188 C 110.875 83.617188 110.835938 83.617188 110.777344 83.636719 C 111.128906 82.40625 112.085938 81.585938 113.257812 81.585938 C 114.78125 81.585938 115.71875 82.855469 115.71875 84.515625 C 115.71875 86.039062 114.839844 87.367188 113.804688 88.519531 L 110.191406 92.5625 L 110.191406 92.992188 L 116.734375 92.992188 Z M 117.203125 89.984375 "/>
<path style=" stroke:none;fill-rule:nonzero;fill:rgb(0%,0%,0%);fill-opacity:1;" d="M 136.722656 73.691406 C 136.976562 73.691406 137.289062 73.691406 137.289062 73.359375 C 137.289062 73.027344 136.976562 73.027344 136.722656 73.027344 L 126.15625 73.027344 C 125.902344 73.027344 125.589844 73.027344 125.589844 73.339844 C 125.589844 73.691406 125.882812 73.691406 126.15625 73.691406 Z M 136.722656 77.011719 C 136.976562 77.011719 137.289062 77.011719 137.289062 76.699219 C 137.289062 76.347656 136.976562 76.347656 136.722656 76.347656 L 126.15625 76.347656 C 125.902344 76.347656 125.589844 76.347656 125.589844 76.679688 C 125.589844 77.011719 125.882812 77.011719 126.15625 77.011719 Z M 136.722656 77.011719 "/>
<path style=" stroke:none;fill-rule:nonzero;fill:rgb(0%,0%,0%);fill-opacity:1;" d="M 148.367188 68.007812 C 148.367188 67.578125 148.367188 67.578125 148.015625 67.578125 C 147.585938 68.046875 146.6875 68.710938 144.851562 68.710938 L 144.851562 69.238281 C 145.261719 69.238281 146.160156 69.238281 147.136719 68.769531 L 147.136719 78.105469 C 147.136719 78.75 147.078125 78.964844 145.515625 78.964844 L 144.949219 78.964844 L 144.949219 79.492188 C 145.4375 79.453125 147.175781 79.453125 147.761719 79.453125 C 148.347656 79.453125 150.085938 79.453125 150.554688 79.492188 L 150.554688 78.964844 L 150.007812 78.964844 C 148.425781 78.964844 148.367188 78.75 148.367188 78.105469 Z M 148.367188 68.007812 "/>
</g>
</svg>
