<?xml version="1.0" encoding="UTF-8"?>
<svg xmlns="http://www.w3.org/2000/svg" xmlns:xlink="http://www.w3.org/1999/xlink" width="251.63267pt" height="58.36772pt" viewBox="0 0 251.63267 58.36772" version="1.1">
<g id="surface1">
<path style=" stroke:none;fill-rule:nonzero;fill:rgb(0%,0%,100%);fill-opacity:1;" d="M 4.609375 7.265625 C 7.070312 7.265625 8.769531 5.488281 8.769531 3.613281 C 8.769531 1.71875 7.03125 0 4.609375 0 L 0.234375 0 L 0.234375 12.441406 L 1.757812 12.441406 L 1.757812 7.265625 Z M 4.21875 0.996094 C 6.328125 0.996094 7.363281 2.265625 7.363281 3.59375 C 7.363281 5.019531 6.269531 6.210938 4.21875 6.210938 L 1.738281 6.210938 L 1.738281 0.996094 Z M 4.21875 0.996094 "/>
<path style=" stroke:none;fill-rule:nonzero;fill:rgb(0%,0%,100%);fill-opacity:1;" d="M 12.429688 8.515625 C 12.429688 6.699219 13.777344 5.527344 15.398438 5.507812 L 15.398438 4.296875 C 13.757812 4.316406 12.820312 5.273438 12.332031 5.976562 L 12.332031 4.394531 L 11.101562 4.394531 L 11.101562 12.441406 L 12.429688 12.441406 Z M 12.429688 8.515625 "/>
<path style=" stroke:none;fill-rule:nonzero;fill:rgb(0%,0%,100%);fill-opacity:1;" d="M 23.917969 8.496094 C 23.917969 6.074219 22.140625 4.21875 20.089844 4.21875 C 17.980469 4.21875 16.242188 6.113281 16.242188 8.496094 C 16.242188 10.839844 18.019531 12.617188 20.070312 12.617188 C 22.179688 12.617188 23.917969 10.800781 23.917969 8.496094 Z M 20.089844 11.503906 C 18.800781 11.503906 17.589844 10.429688 17.589844 8.320312 C 17.589844 6.152344 18.9375 5.292969 20.070312 5.292969 C 21.300781 5.292969 22.570312 6.210938 22.570312 8.320312 C 22.570312 10.527344 21.28125 11.503906 20.089844 11.503906 Z M 20.089844 11.503906 "/>
<path style=" stroke:none;fill-rule:nonzero;fill:rgb(0%,0%,100%);fill-opacity:1;" d="M 27.277344 0 L 25.949219 0 L 25.949219 12.441406 L 27.296875 12.441406 L 27.296875 11.640625 C 28.136719 12.421875 29.015625 12.617188 29.640625 12.617188 C 31.339844 12.617188 32.902344 10.878906 32.902344 8.4375 C 32.902344 6.230469 31.710938 4.296875 30.050781 4.296875 C 29.523438 4.296875 28.371094 4.414062 27.277344 5.3125 Z M 27.296875 6.40625 C 27.628906 5.898438 28.273438 5.371094 29.152344 5.371094 C 30.246094 5.371094 31.535156 6.210938 31.535156 8.4375 C 31.535156 10.78125 30.070312 11.542969 28.976562 11.542969 C 28.46875 11.542969 28.136719 11.367188 27.804688 11.113281 C 27.375 10.742188 27.296875 10.410156 27.296875 10.117188 Z M 27.296875 6.40625 "/>
<path style=" stroke:none;fill-rule:nonzero;fill:rgb(0%,0%,100%);fill-opacity:1;" d="M 36.277344 0 L 34.949219 0 L 34.949219 12.441406 L 36.277344 12.441406 Z M 36.277344 0 "/>
<path style=" stroke:none;fill-rule:nonzero;fill:rgb(0%,0%,100%);fill-opacity:1;" d="M 45.046875 8.398438 C 45.046875 7.636719 44.96875 6.542969 44.402344 5.585938 C 43.660156 4.355469 42.410156 4.21875 41.882812 4.21875 C 39.949219 4.21875 38.328125 6.074219 38.328125 8.398438 C 38.328125 10.78125 40.046875 12.617188 42.136719 12.617188 C 42.957031 12.617188 43.953125 12.382812 44.929688 11.679688 C 44.929688 11.601562 44.871094 11.035156 44.871094 11.015625 C 44.851562 10.996094 44.832031 10.585938 44.832031 10.527344 C 43.757812 11.425781 42.703125 11.542969 42.175781 11.542969 C 40.789062 11.542969 39.597656 10.3125 39.578125 8.398438 Z M 39.675781 7.441406 C 39.988281 6.230469 40.828125 5.292969 41.882812 5.292969 C 42.449219 5.292969 43.679688 5.546875 43.972656 7.441406 Z M 39.675781 7.441406 "/>
<path style=" stroke:none;fill-rule:nonzero;fill:rgb(0%,0%,100%);fill-opacity:1;" d="M 58.042969 7.050781 C 58.042969 5.800781 57.710938 4.296875 55.621094 4.296875 C 54.097656 4.296875 53.257812 5.351562 52.984375 5.761719 C 52.652344 4.628906 51.675781 4.296875 50.738281 4.296875 C 49.273438 4.296875 48.492188 5.253906 48.199219 5.625 L 48.199219 4.394531 L 46.929688 4.394531 L 46.929688 12.441406 L 48.277344 12.441406 L 48.277344 7.96875 C 48.277344 6.796875 48.746094 5.371094 50.054688 5.371094 C 51.714844 5.371094 51.792969 6.503906 51.792969 7.167969 L 51.792969 12.441406 L 53.160156 12.441406 L 53.160156 7.96875 C 53.160156 6.796875 53.628906 5.371094 54.9375 5.371094 C 56.578125 5.371094 56.675781 6.503906 56.675781 7.167969 L 56.675781 12.441406 L 58.042969 12.441406 Z M 58.042969 7.050781 "/>
<path style=" stroke:none;fill-rule:nonzero;fill:rgb(0%,0%,100%);fill-opacity:1;" d="M 72.949219 4.472656 L 71.621094 4.472656 L 70.3125 8.046875 C 70 8.90625 69.335938 10.800781 69.238281 11.464844 L 69.21875 11.464844 C 69.121094 10.839844 68.769531 9.863281 68.496094 9.082031 L 66.835938 4.472656 L 65.449219 4.472656 L 68.398438 12.441406 L 70 12.441406 Z M 72.949219 4.472656 "/>
<path style=" stroke:none;fill-rule:nonzero;fill:rgb(0%,0%,100%);fill-opacity:1;" d="M 76.125 0.273438 L 74.582031 0.273438 L 74.582031 1.816406 L 76.125 1.816406 Z M 76.027344 4.472656 L 74.699219 4.472656 L 74.699219 12.441406 L 76.027344 12.441406 Z M 76.027344 4.472656 "/>
<path style=" stroke:none;fill-rule:nonzero;fill:rgb(0%,0%,100%);fill-opacity:1;" d="M 83.507812 4.765625 C 82.375 4.238281 81.398438 4.21875 80.988281 4.21875 C 80.578125 4.21875 78.078125 4.21875 78.078125 6.542969 C 78.078125 7.324219 78.507812 7.871094 78.78125 8.125 C 79.425781 8.671875 79.875 8.769531 80.929688 8.984375 C 81.535156 9.101562 82.570312 9.316406 82.570312 10.273438 C 82.570312 11.503906 81.164062 11.503906 80.910156 11.503906 C 80.207031 11.503906 79.152344 11.308594 78.195312 10.605469 L 77.980469 11.835938 C 78.058594 11.894531 79.289062 12.617188 80.929688 12.617188 C 83.253906 12.617188 83.800781 11.230469 83.800781 10.15625 C 83.800781 9.257812 83.253906 8.671875 83.175781 8.59375 C 82.511719 7.910156 81.964844 7.792969 80.890625 7.578125 C 80.226562 7.460938 79.328125 7.285156 79.328125 6.386719 C 79.328125 5.273438 80.578125 5.273438 80.8125 5.273438 C 81.75 5.273438 82.511719 5.488281 83.292969 5.9375 Z M 83.507812 4.765625 "/>
<path style=" stroke:none;fill-rule:nonzero;fill:rgb(0%,0%,100%);fill-opacity:1;" d="M 91.839844 4.472656 L 90.472656 4.472656 L 90.472656 9.609375 C 90.472656 10.976562 89.535156 11.640625 88.363281 11.640625 C 87.113281 11.640625 86.976562 11.171875 86.976562 10.371094 L 86.976562 4.472656 L 85.628906 4.472656 L 85.628906 10.449219 C 85.628906 11.738281 86.039062 12.617188 87.503906 12.617188 C 88.011719 12.617188 89.417969 12.539062 90.511719 11.542969 L 90.511719 12.441406 L 91.839844 12.441406 Z M 91.839844 4.472656 "/>
<path style=" stroke:none;fill-rule:nonzero;fill:rgb(0%,0%,100%);fill-opacity:1;" d="M 100.253906 7.1875 C 100.253906 5.46875 99.023438 4.21875 97.34375 4.21875 C 96.269531 4.21875 95.46875 4.453125 94.589844 4.960938 L 94.6875 6.152344 C 95.488281 5.566406 96.308594 5.253906 97.34375 5.253906 C 98.164062 5.253906 98.886719 5.917969 98.886719 7.226562 L 98.886719 7.96875 C 98.085938 7.988281 97.011719 8.046875 95.9375 8.398438 C 94.726562 8.828125 94.023438 9.492188 94.023438 10.371094 C 94.023438 11.171875 94.492188 12.617188 96.015625 12.617188 C 97.011719 12.617188 98.261719 12.324219 98.925781 11.777344 L 98.925781 12.441406 L 100.253906 12.441406 Z M 98.886719 10.039062 C 98.886719 10.390625 98.886719 10.820312 98.300781 11.191406 C 97.8125 11.484375 97.207031 11.542969 96.933594 11.542969 C 95.976562 11.542969 95.3125 11.015625 95.3125 10.371094 C 95.3125 9.140625 97.792969 8.867188 98.886719 8.867188 Z M 98.886719 10.039062 "/>
<path style=" stroke:none;fill-rule:nonzero;fill:rgb(0%,0%,100%);fill-opacity:1;" d="M 104.378906 0 L 103.050781 0 L 103.050781 12.441406 L 104.378906 12.441406 Z M 104.378906 0 "/>
<path style=" stroke:none;fill-rule:nonzero;fill:rgb(0%,0%,100%);fill-opacity:1;" d="M 108.675781 0.273438 L 107.132812 0.273438 L 107.132812 1.816406 L 108.675781 1.816406 Z M 108.578125 4.472656 L 107.25 4.472656 L 107.25 12.441406 L 108.578125 12.441406 Z M 108.578125 4.472656 "/>
<path style=" stroke:none;fill-rule:nonzero;fill:rgb(0%,0%,100%);fill-opacity:1;" d="M 117.035156 5.175781 L 117.035156 4.472656 L 110.785156 4.472656 L 110.785156 5.546875 L 113.207031 5.546875 C 113.421875 5.546875 113.636719 5.527344 113.851562 5.527344 L 115.199219 5.527344 L 110.53125 11.71875 L 110.53125 12.441406 L 117.09375 12.441406 L 117.09375 11.347656 L 114.515625 11.347656 C 114.300781 11.347656 114.085938 11.367188 113.871094 11.367188 L 112.347656 11.367188 Z M 117.035156 5.175781 "/>
<path style=" stroke:none;fill-rule:nonzero;fill:rgb(0%,0%,100%);fill-opacity:1;" d="M 124.707031 7.1875 C 124.707031 5.46875 123.476562 4.21875 121.796875 4.21875 C 120.722656 4.21875 119.921875 4.453125 119.042969 4.960938 L 119.140625 6.152344 C 119.941406 5.566406 120.761719 5.253906 121.796875 5.253906 C 122.617188 5.253906 123.339844 5.917969 123.339844 7.226562 L 123.339844 7.96875 C 122.539062 7.988281 121.464844 8.046875 120.390625 8.398438 C 119.179688 8.828125 118.476562 9.492188 118.476562 10.371094 C 118.476562 11.171875 118.945312 12.617188 120.46875 12.617188 C 121.464844 12.617188 122.714844 12.324219 123.378906 11.777344 L 123.378906 12.441406 L 124.707031 12.441406 Z M 123.339844 10.039062 C 123.339844 10.390625 123.339844 10.820312 122.753906 11.191406 C 122.265625 11.484375 121.660156 11.542969 121.386719 11.542969 C 120.429688 11.542969 119.765625 11.015625 119.765625 10.371094 C 119.765625 9.140625 122.246094 8.867188 123.339844 8.867188 Z M 123.339844 10.039062 "/>
<path style=" stroke:none;fill-rule:nonzero;fill:rgb(0%,0%,100%);fill-opacity:1;" d="M 129.160156 5.527344 L 131.640625 5.527344 L 131.640625 4.472656 L 129.160156 4.472656 L 129.160156 2.207031 L 127.929688 2.207031 L 127.929688 4.472656 L 126.425781 4.472656 L 126.425781 5.527344 L 127.890625 5.527344 L 127.890625 10.351562 C 127.890625 11.386719 128.125 12.617188 129.355469 12.617188 C 130.566406 12.617188 131.386719 12.207031 131.933594 11.914062 L 131.660156 10.878906 C 131.035156 11.445312 130.371094 11.503906 130.058594 11.503906 C 129.257812 11.503906 129.160156 10.664062 129.160156 10.039062 Z M 129.160156 5.527344 "/>
<path style=" stroke:none;fill-rule:nonzero;fill:rgb(0%,0%,100%);fill-opacity:1;" d="M 135.226562 0.273438 L 133.683594 0.273438 L 133.683594 1.816406 L 135.226562 1.816406 Z M 135.128906 4.472656 L 133.800781 4.472656 L 133.800781 12.441406 L 135.128906 12.441406 Z M 135.128906 4.472656 "/>
<path style=" stroke:none;fill-rule:nonzero;fill:rgb(0%,0%,100%);fill-opacity:1;" d="M 144.816406 8.496094 C 144.816406 6.074219 143.039062 4.21875 140.988281 4.21875 C 138.878906 4.21875 137.140625 6.113281 137.140625 8.496094 C 137.140625 10.839844 138.917969 12.617188 140.96875 12.617188 C 143.078125 12.617188 144.816406 10.800781 144.816406 8.496094 Z M 140.988281 11.503906 C 139.699219 11.503906 138.488281 10.429688 138.488281 8.320312 C 138.488281 6.152344 139.835938 5.292969 140.96875 5.292969 C 142.199219 5.292969 143.46875 6.210938 143.46875 8.320312 C 143.46875 10.527344 142.179688 11.503906 140.988281 11.503906 Z M 140.988281 11.503906 "/>
<path style=" stroke:none;fill-rule:nonzero;fill:rgb(0%,0%,100%);fill-opacity:1;" d="M 153.042969 7.050781 C 153.042969 5.957031 152.808594 4.296875 150.640625 4.296875 C 149.644531 4.296875 148.785156 4.746094 148.101562 5.605469 L 148.101562 4.394531 L 146.832031 4.394531 L 146.832031 12.441406 L 148.179688 12.441406 L 148.179688 7.96875 C 148.179688 6.875 148.609375 5.371094 149.957031 5.371094 C 151.636719 5.371094 151.675781 6.542969 151.675781 7.167969 L 151.675781 12.441406 L 153.042969 12.441406 Z M 153.042969 7.050781 "/>
<path style=" stroke:none;fill-rule:nonzero;fill:rgb(0%,0%,0%);fill-opacity:1;" d="M 4.609375 28.414062 C 7.070312 28.414062 8.769531 26.636719 8.769531 24.761719 C 8.769531 22.867188 7.03125 21.148438 4.609375 21.148438 L 0.234375 21.148438 L 0.234375 33.589844 L 1.757812 33.589844 L 1.757812 28.414062 Z M 4.21875 22.144531 C 6.328125 22.144531 7.363281 23.414062 7.363281 24.742188 C 7.363281 26.167969 6.269531 27.359375 4.21875 27.359375 L 1.738281 27.359375 L 1.738281 22.144531 Z M 4.21875 22.144531 "/>
<path style=" stroke:none;fill-rule:nonzero;fill:rgb(0%,0%,0%);fill-opacity:1;" d="M 12.429688 21.148438 L 11.101562 21.148438 L 11.101562 33.589844 L 12.429688 33.589844 Z M 12.429688 21.148438 "/>
<path style=" stroke:none;fill-rule:nonzero;fill:rgb(0%,0%,0%);fill-opacity:1;" d="M 22.117188 29.644531 C 22.117188 27.222656 20.339844 25.367188 18.289062 25.367188 C 16.179688 25.367188 14.441406 27.261719 14.441406 29.644531 C 14.441406 31.988281 16.21875 33.765625 18.269531 33.765625 C 20.378906 33.765625 22.117188 31.949219 22.117188 29.644531 Z M 18.289062 32.652344 C 17 32.652344 15.789062 31.578125 15.789062 29.46875 C 15.789062 27.300781 17.136719 26.441406 18.269531 26.441406 C 19.5 26.441406 20.769531 27.359375 20.769531 29.46875 C 20.769531 31.675781 19.480469 32.652344 18.289062 32.652344 Z M 18.289062 32.652344 "/>
<path style=" stroke:none;fill-rule:nonzero;fill:rgb(0%,0%,0%);fill-opacity:1;" d="M 25.808594 26.675781 L 28.289062 26.675781 L 28.289062 25.621094 L 25.808594 25.621094 L 25.808594 23.355469 L 24.578125 23.355469 L 24.578125 25.621094 L 23.074219 25.621094 L 23.074219 26.675781 L 24.539062 26.675781 L 24.539062 31.5 C 24.539062 32.535156 24.773438 33.765625 26.003906 33.765625 C 27.214844 33.765625 28.035156 33.355469 28.582031 33.0625 L 28.308594 32.027344 C 27.683594 32.59375 27.019531 32.652344 26.707031 32.652344 C 25.90625 32.652344 25.808594 31.8125 25.808594 31.1875 Z M 25.808594 26.675781 "/>
<path style=" stroke:none;fill-rule:nonzero;fill:rgb(0%,0%,0%);fill-opacity:1;" d="M 32.109375 26.675781 L 34.589844 26.675781 L 34.589844 25.621094 L 32.109375 25.621094 L 32.109375 23.355469 L 30.878906 23.355469 L 30.878906 25.621094 L 29.375 25.621094 L 29.375 26.675781 L 30.839844 26.675781 L 30.839844 31.5 C 30.839844 32.535156 31.074219 33.765625 32.304688 33.765625 C 33.515625 33.765625 34.335938 33.355469 34.882812 33.0625 L 34.609375 32.027344 C 33.984375 32.59375 33.320312 32.652344 33.007812 32.652344 C 32.207031 32.652344 32.109375 31.8125 32.109375 31.1875 Z M 32.109375 26.675781 "/>
<path style=" stroke:none;fill-rule:nonzero;fill:rgb(0%,0%,0%);fill-opacity:1;" d="M 38.175781 21.421875 L 36.632812 21.421875 L 36.632812 22.964844 L 38.175781 22.964844 Z M 38.078125 25.621094 L 36.75 25.621094 L 36.75 33.589844 L 38.078125 33.589844 Z M 38.078125 25.621094 "/>
<path style=" stroke:none;fill-rule:nonzero;fill:rgb(0%,0%,0%);fill-opacity:1;" d="M 47.140625 28.199219 C 47.140625 27.105469 46.90625 25.445312 44.738281 25.445312 C 43.742188 25.445312 42.882812 25.894531 42.199219 26.753906 L 42.199219 25.542969 L 40.929688 25.542969 L 40.929688 33.589844 L 42.277344 33.589844 L 42.277344 29.117188 C 42.277344 28.023438 42.707031 26.519531 44.054688 26.519531 C 45.734375 26.519531 45.773438 27.691406 45.773438 28.316406 L 45.773438 33.589844 L 47.140625 33.589844 Z M 47.140625 28.199219 "/>
<path style=" stroke:none;fill-rule:nonzero;fill:rgb(0%,0%,0%);fill-opacity:1;" d="M 54.65625 26.519531 C 54.65625 26.519531 54.695312 26.558594 54.714844 26.597656 C 55.085938 26.558594 55.476562 26.5 56.140625 26.5 C 56.199219 26.5 56.609375 26.5 57.058594 26.539062 L 56.863281 25.445312 C 56.53125 25.445312 55.300781 25.464844 54.109375 26.050781 C 53.523438 25.542969 52.800781 25.445312 52.449219 25.445312 C 50.886719 25.445312 49.636719 26.753906 49.636719 28.335938 C 49.636719 28.980469 49.832031 29.566406 50.222656 30.113281 C 49.8125 30.679688 49.714844 31.226562 49.714844 31.65625 C 49.714844 32.320312 49.96875 32.769531 50.164062 33.003906 C 49.246094 33.589844 49.03125 34.351562 49.03125 34.859375 C 49.03125 36.167969 50.730469 37.261719 52.917969 37.261719 C 55.105469 37.261719 56.824219 36.207031 56.824219 34.839844 C 56.824219 32.339844 53.914062 32.339844 53.191406 32.339844 L 51.667969 32.339844 C 51.414062 32.339844 50.632812 32.339844 50.632812 31.382812 C 50.632812 30.992188 50.710938 30.875 50.828125 30.71875 C 51.121094 30.933594 51.707031 31.246094 52.429688 31.246094 C 53.972656 31.246094 55.242188 29.976562 55.242188 28.335938 C 55.242188 27.691406 55.007812 27.027344 54.636719 26.539062 Z M 52.449219 30.25 C 51.667969 30.25 50.867188 29.722656 50.867188 28.355469 C 50.867188 26.753906 51.882812 26.441406 52.429688 26.441406 C 53.230469 26.441406 54.011719 26.96875 54.011719 28.335938 C 54.011719 29.9375 53.015625 30.25 52.449219 30.25 Z M 53.210938 33.628906 C 53.601562 33.628906 55.574219 33.628906 55.574219 34.859375 C 55.574219 35.679688 54.34375 36.285156 52.9375 36.285156 C 51.53125 36.285156 50.28125 35.71875 50.28125 34.839844 C 50.28125 34.800781 50.28125 33.628906 51.648438 33.628906 Z M 53.210938 33.628906 "/>
<path style=" stroke:none;fill-rule:nonzero;fill:rgb(0%,0%,0%);fill-opacity:1;" d="M 69.957031 26.519531 C 69.957031 26.519531 69.996094 26.558594 70.015625 26.597656 C 70.386719 26.558594 70.777344 26.5 71.441406 26.5 C 71.5 26.5 71.910156 26.5 72.359375 26.539062 L 72.164062 25.445312 C 71.832031 25.445312 70.601562 25.464844 69.410156 26.050781 C 68.824219 25.542969 68.101562 25.445312 67.75 25.445312 C 66.1875 25.445312 64.9375 26.753906 64.9375 28.335938 C 64.9375 28.980469 65.132812 29.566406 65.523438 30.113281 C 65.113281 30.679688 65.015625 31.226562 65.015625 31.65625 C 65.015625 32.320312 65.269531 32.769531 65.464844 33.003906 C 64.546875 33.589844 64.332031 34.351562 64.332031 34.859375 C 64.332031 36.167969 66.03125 37.261719 68.21875 37.261719 C 70.40625 37.261719 72.125 36.207031 72.125 34.839844 C 72.125 32.339844 69.214844 32.339844 68.492188 32.339844 L 66.96875 32.339844 C 66.714844 32.339844 65.933594 32.339844 65.933594 31.382812 C 65.933594 30.992188 66.011719 30.875 66.128906 30.71875 C 66.421875 30.933594 67.007812 31.246094 67.730469 31.246094 C 69.273438 31.246094 70.542969 29.976562 70.542969 28.335938 C 70.542969 27.691406 70.308594 27.027344 69.9375 26.539062 Z M 67.75 30.25 C 66.96875 30.25 66.167969 29.722656 66.167969 28.355469 C 66.167969 26.753906 67.183594 26.441406 67.730469 26.441406 C 68.53125 26.441406 69.3125 26.96875 69.3125 28.335938 C 69.3125 29.9375 68.316406 30.25 67.75 30.25 Z M 68.511719 33.628906 C 68.902344 33.628906 70.875 33.628906 70.875 34.859375 C 70.875 35.679688 69.644531 36.285156 68.238281 36.285156 C 66.832031 36.285156 65.582031 35.71875 65.582031 34.839844 C 65.582031 34.800781 65.582031 33.628906 66.949219 33.628906 Z M 68.511719 33.628906 "/>
<path style=" stroke:none;fill-rule:nonzero;fill:rgb(0%,0%,0%);fill-opacity:1;" d="M 75.429688 29.664062 C 75.429688 27.847656 76.777344 26.675781 78.398438 26.65625 L 78.398438 25.445312 C 76.757812 25.464844 75.820312 26.421875 75.332031 27.125 L 75.332031 25.542969 L 74.101562 25.542969 L 74.101562 33.589844 L 75.429688 33.589844 Z M 75.429688 29.664062 "/>
<path style=" stroke:none;fill-rule:nonzero;fill:rgb(0%,0%,0%);fill-opacity:1;" d="M 85.707031 28.335938 C 85.707031 26.617188 84.476562 25.367188 82.796875 25.367188 C 81.722656 25.367188 80.921875 25.601562 80.042969 26.109375 L 80.140625 27.300781 C 80.941406 26.714844 81.761719 26.402344 82.796875 26.402344 C 83.617188 26.402344 84.339844 27.066406 84.339844 28.375 L 84.339844 29.117188 C 83.539062 29.136719 82.464844 29.195312 81.390625 29.546875 C 80.179688 29.976562 79.476562 30.640625 79.476562 31.519531 C 79.476562 32.320312 79.945312 33.765625 81.46875 33.765625 C 82.464844 33.765625 83.714844 33.472656 84.378906 32.925781 L 84.378906 33.589844 L 85.707031 33.589844 Z M 84.339844 31.1875 C 84.339844 31.539062 84.339844 31.96875 83.753906 32.339844 C 83.265625 32.632812 82.660156 32.691406 82.386719 32.691406 C 81.429688 32.691406 80.765625 32.164062 80.765625 31.519531 C 80.765625 30.289062 83.246094 30.015625 84.339844 30.015625 Z M 84.339844 31.1875 "/>
<path style=" stroke:none;fill-rule:nonzero;fill:rgb(0%,0%,0%);fill-opacity:1;" d="M 89.847656 32.789062 C 90.472656 33.335938 91.214844 33.765625 92.191406 33.765625 C 93.910156 33.765625 95.453125 32.027344 95.453125 29.585938 C 95.453125 27.417969 94.300781 25.445312 92.640625 25.445312 C 91.898438 25.445312 90.746094 25.679688 89.828125 26.480469 L 89.828125 25.621094 L 88.5 25.621094 L 88.5 37.066406 L 89.847656 37.066406 Z M 89.847656 27.574219 C 90.257812 26.949219 90.941406 26.558594 91.683594 26.558594 C 93.011719 26.558594 94.085938 27.90625 94.085938 29.605469 C 94.085938 31.402344 92.855469 32.691406 91.527344 32.691406 C 91.019531 32.691406 90.6875 32.515625 90.355469 32.261719 C 89.90625 31.871094 89.847656 31.539062 89.847656 31.265625 Z M 89.847656 27.574219 "/>
<path style=" stroke:none;fill-rule:nonzero;fill:rgb(0%,0%,0%);fill-opacity:1;" d="M 103.691406 28.199219 C 103.691406 27.105469 103.457031 25.445312 101.289062 25.445312 C 100.058594 25.445312 99.238281 26.148438 98.808594 26.695312 L 98.808594 21.148438 L 97.480469 21.148438 L 97.480469 33.589844 L 98.828125 33.589844 L 98.828125 29.117188 C 98.828125 28.023438 99.257812 26.519531 100.605469 26.519531 C 102.285156 26.519531 102.324219 27.691406 102.324219 28.316406 L 102.324219 33.589844 L 103.691406 33.589844 Z M 103.691406 28.199219 "/>
<path style=" stroke:none;fill-rule:nonzero;fill:rgb(0%,0%,0%);fill-opacity:1;" d="M 111.109375 25.914062 C 109.976562 25.386719 109 25.367188 108.589844 25.367188 C 108.179688 25.367188 105.679688 25.367188 105.679688 27.691406 C 105.679688 28.472656 106.109375 29.019531 106.382812 29.273438 C 107.027344 29.820312 107.476562 29.917969 108.53125 30.132812 C 109.136719 30.25 110.171875 30.464844 110.171875 31.421875 C 110.171875 32.652344 108.765625 32.652344 108.511719 32.652344 C 107.808594 32.652344 106.753906 32.457031 105.796875 31.753906 L 105.582031 32.984375 C 105.660156 33.042969 106.890625 33.765625 108.53125 33.765625 C 110.855469 33.765625 111.402344 32.378906 111.402344 31.304688 C 111.402344 30.40625 110.855469 29.820312 110.777344 29.742188 C 110.113281 29.058594 109.566406 28.941406 108.492188 28.726562 C 107.828125 28.609375 106.929688 28.433594 106.929688 27.535156 C 106.929688 26.421875 108.179688 26.421875 108.414062 26.421875 C 109.351562 26.421875 110.113281 26.636719 110.894531 27.085938 Z M 111.109375 25.914062 "/>
<path style=" stroke:none;fill-rule:nonzero;fill:rgb(0%,0%,0%);fill-opacity:1;" d="M 125.457031 28.335938 C 125.457031 26.617188 124.226562 25.367188 122.546875 25.367188 C 121.472656 25.367188 120.671875 25.601562 119.792969 26.109375 L 119.890625 27.300781 C 120.691406 26.714844 121.511719 26.402344 122.546875 26.402344 C 123.367188 26.402344 124.089844 27.066406 124.089844 28.375 L 124.089844 29.117188 C 123.289062 29.136719 122.214844 29.195312 121.140625 29.546875 C 119.929688 29.976562 119.226562 30.640625 119.226562 31.519531 C 119.226562 32.320312 119.695312 33.765625 121.21875 33.765625 C 122.214844 33.765625 123.464844 33.472656 124.128906 32.925781 L 124.128906 33.589844 L 125.457031 33.589844 Z M 124.089844 31.1875 C 124.089844 31.539062 124.089844 31.96875 123.503906 32.339844 C 123.015625 32.632812 122.410156 32.691406 122.136719 32.691406 C 121.179688 32.691406 120.515625 32.164062 120.515625 31.519531 C 120.515625 30.289062 122.996094 30.015625 124.089844 30.015625 Z M 124.089844 31.1875 "/>
<path style=" stroke:none;fill-rule:nonzero;fill:rgb(0%,0%,0%);fill-opacity:1;" d="M 134.441406 28.199219 C 134.441406 27.105469 134.207031 25.445312 132.039062 25.445312 C 131.042969 25.445312 130.183594 25.894531 129.5 26.753906 L 129.5 25.542969 L 128.230469 25.542969 L 128.230469 33.589844 L 129.578125 33.589844 L 129.578125 29.117188 C 129.578125 28.023438 130.007812 26.519531 131.355469 26.519531 C 133.035156 26.519531 133.074219 27.691406 133.074219 28.316406 L 133.074219 33.589844 L 134.441406 33.589844 Z M 134.441406 28.199219 "/>
<path style=" stroke:none;fill-rule:nonzero;fill:rgb(0%,0%,0%);fill-opacity:1;" d="M 143.421875 21.148438 L 142.09375 21.148438 L 142.09375 26.382812 C 141.273438 25.699219 140.335938 25.445312 139.574219 25.445312 C 137.875 25.445312 136.46875 27.28125 136.46875 29.605469 C 136.46875 31.929688 137.796875 33.765625 139.496094 33.765625 C 140.160156 33.765625 141.175781 33.550781 142.074219 32.671875 L 142.074219 33.589844 L 143.421875 33.589844 Z M 142.074219 31.480469 C 141.644531 32.242188 141 32.691406 140.21875 32.691406 C 139.125 32.691406 137.835938 31.851562 137.835938 29.625 C 137.835938 27.242188 139.359375 26.519531 140.394531 26.519531 C 141.097656 26.519531 141.664062 26.890625 142.074219 27.476562 Z M 142.074219 31.480469 "/>
<path style=" stroke:none;fill-rule:nonzero;fill:rgb(0%,0%,0%);fill-opacity:1;" d="M 152.558594 20.796875 C 152.636719 20.5625 152.636719 20.523438 152.636719 20.484375 C 152.636719 20.25 152.460938 20.152344 152.324219 20.152344 C 152.089844 20.152344 152.03125 20.308594 151.953125 20.542969 L 145.898438 37.417969 C 145.820312 37.652344 145.820312 37.691406 145.820312 37.730469 C 145.820312 37.925781 145.957031 38.0625 146.152344 38.0625 C 146.386719 38.0625 146.445312 37.886719 146.503906 37.691406 Z M 152.558594 20.796875 "/>
<path style=" stroke:none;fill-rule:nonzero;fill:rgb(0%,0%,0%);fill-opacity:1;" d="M 161.917969 29.644531 C 161.917969 27.222656 160.140625 25.367188 158.089844 25.367188 C 155.980469 25.367188 154.242188 27.261719 154.242188 29.644531 C 154.242188 31.988281 156.019531 33.765625 158.070312 33.765625 C 160.179688 33.765625 161.917969 31.949219 161.917969 29.644531 Z M 158.089844 32.652344 C 156.800781 32.652344 155.589844 31.578125 155.589844 29.46875 C 155.589844 27.300781 156.9375 26.441406 158.070312 26.441406 C 159.300781 26.441406 160.570312 27.359375 160.570312 29.46875 C 160.570312 31.675781 159.28125 32.652344 158.089844 32.652344 Z M 158.089844 32.652344 "/>
<path style=" stroke:none;fill-rule:nonzero;fill:rgb(0%,0%,0%);fill-opacity:1;" d="M 164.828125 29.664062 C 164.828125 27.847656 166.175781 26.675781 167.796875 26.65625 L 167.796875 25.445312 C 166.15625 25.464844 165.21875 26.421875 164.730469 27.125 L 164.730469 25.542969 L 163.5 25.542969 L 163.5 33.589844 L 164.828125 33.589844 Z M 164.828125 29.664062 "/>
<path style=" stroke:none;fill-rule:nonzero;fill:rgb(0%,0%,0%);fill-opacity:1;" d="M 181.582031 31.65625 C 180.761719 32.320312 179.84375 32.652344 178.847656 32.652344 C 177.34375 32.652344 176.386719 31.324219 176.386719 29.585938 C 176.386719 28.101562 177.109375 26.480469 178.886719 26.480469 C 180.097656 26.480469 180.605469 26.753906 181.367188 27.28125 L 181.582031 26.109375 C 180.546875 25.503906 179.960938 25.367188 178.886719 25.367188 C 176.425781 25.367188 175.019531 27.554688 175.019531 29.585938 C 175.019531 31.890625 176.679688 33.765625 178.828125 33.765625 C 179.707031 33.765625 180.703125 33.550781 181.699219 32.828125 C 181.699219 32.789062 181.640625 32.222656 181.621094 32.164062 Z M 181.582031 31.65625 "/>
<path style=" stroke:none;fill-rule:nonzero;fill:rgb(0%,0%,0%);fill-opacity:1;" d="M 184.925781 29.664062 C 184.925781 27.847656 186.273438 26.675781 187.894531 26.65625 L 187.894531 25.445312 C 186.253906 25.464844 185.316406 26.421875 184.828125 27.125 L 184.828125 25.542969 L 183.597656 25.542969 L 183.597656 33.589844 L 184.925781 33.589844 Z M 184.925781 29.664062 "/>
<path style=" stroke:none;fill-rule:nonzero;fill:rgb(0%,0%,0%);fill-opacity:1;" d="M 195.496094 29.546875 C 195.496094 28.785156 195.417969 27.691406 194.851562 26.734375 C 194.109375 25.503906 192.859375 25.367188 192.332031 25.367188 C 190.398438 25.367188 188.777344 27.222656 188.777344 29.546875 C 188.777344 31.929688 190.496094 33.765625 192.585938 33.765625 C 193.40625 33.765625 194.402344 33.53125 195.378906 32.828125 C 195.378906 32.75 195.320312 32.183594 195.320312 32.164062 C 195.300781 32.144531 195.28125 31.734375 195.28125 31.675781 C 194.207031 32.574219 193.152344 32.691406 192.625 32.691406 C 191.238281 32.691406 190.046875 31.460938 190.027344 29.546875 Z M 190.125 28.589844 C 190.4375 27.378906 191.277344 26.441406 192.332031 26.441406 C 192.898438 26.441406 194.128906 26.695312 194.421875 28.589844 Z M 190.125 28.589844 "/>
<path style=" stroke:none;fill-rule:nonzero;fill:rgb(0%,0%,0%);fill-opacity:1;" d="M 203.003906 28.335938 C 203.003906 26.617188 201.773438 25.367188 200.09375 25.367188 C 199.019531 25.367188 198.21875 25.601562 197.339844 26.109375 L 197.4375 27.300781 C 198.238281 26.714844 199.058594 26.402344 200.09375 26.402344 C 200.914062 26.402344 201.636719 27.066406 201.636719 28.375 L 201.636719 29.117188 C 200.835938 29.136719 199.761719 29.195312 198.6875 29.546875 C 197.476562 29.976562 196.773438 30.640625 196.773438 31.519531 C 196.773438 32.320312 197.242188 33.765625 198.765625 33.765625 C 199.761719 33.765625 201.011719 33.472656 201.675781 32.925781 L 201.675781 33.589844 L 203.003906 33.589844 Z M 201.636719 31.1875 C 201.636719 31.539062 201.636719 31.96875 201.050781 32.339844 C 200.5625 32.632812 199.957031 32.691406 199.683594 32.691406 C 198.726562 32.691406 198.0625 32.164062 198.0625 31.519531 C 198.0625 30.289062 200.542969 30.015625 201.636719 30.015625 Z M 201.636719 31.1875 "/>
<path style=" stroke:none;fill-rule:nonzero;fill:rgb(0%,0%,0%);fill-opacity:1;" d="M 207.460938 26.675781 L 209.941406 26.675781 L 209.941406 25.621094 L 207.460938 25.621094 L 207.460938 23.355469 L 206.230469 23.355469 L 206.230469 25.621094 L 204.726562 25.621094 L 204.726562 26.675781 L 206.191406 26.675781 L 206.191406 31.5 C 206.191406 32.535156 206.425781 33.765625 207.65625 33.765625 C 208.867188 33.765625 209.6875 33.355469 210.234375 33.0625 L 209.960938 32.027344 C 209.335938 32.59375 208.671875 32.652344 208.359375 32.652344 C 207.558594 32.652344 207.460938 31.8125 207.460938 31.1875 Z M 207.460938 26.675781 "/>
<path style=" stroke:none;fill-rule:nonzero;fill:rgb(0%,0%,0%);fill-opacity:1;" d="M 213.523438 21.421875 L 211.980469 21.421875 L 211.980469 22.964844 L 213.523438 22.964844 Z M 213.425781 25.621094 L 212.097656 25.621094 L 212.097656 33.589844 L 213.425781 33.589844 Z M 213.425781 25.621094 "/>
<path style=" stroke:none;fill-rule:nonzero;fill:rgb(0%,0%,0%);fill-opacity:1;" d="M 222.492188 28.199219 C 222.492188 27.105469 222.257812 25.445312 220.089844 25.445312 C 219.09375 25.445312 218.234375 25.894531 217.550781 26.753906 L 217.550781 25.542969 L 216.28125 25.542969 L 216.28125 33.589844 L 217.628906 33.589844 L 217.628906 29.117188 C 217.628906 28.023438 218.058594 26.519531 219.40625 26.519531 C 221.085938 26.519531 221.125 27.691406 221.125 28.316406 L 221.125 33.589844 L 222.492188 33.589844 Z M 222.492188 28.199219 "/>
<path style=" stroke:none;fill-rule:nonzero;fill:rgb(0%,0%,0%);fill-opacity:1;" d="M 230.007812 26.519531 C 230.007812 26.519531 230.046875 26.558594 230.066406 26.597656 C 230.4375 26.558594 230.828125 26.5 231.492188 26.5 C 231.550781 26.5 231.960938 26.5 232.410156 26.539062 L 232.214844 25.445312 C 231.882812 25.445312 230.652344 25.464844 229.460938 26.050781 C 228.875 25.542969 228.152344 25.445312 227.800781 25.445312 C 226.238281 25.445312 224.988281 26.753906 224.988281 28.335938 C 224.988281 28.980469 225.183594 29.566406 225.574219 30.113281 C 225.164062 30.679688 225.066406 31.226562 225.066406 31.65625 C 225.066406 32.320312 225.320312 32.769531 225.515625 33.003906 C 224.597656 33.589844 224.382812 34.351562 224.382812 34.859375 C 224.382812 36.167969 226.082031 37.261719 228.269531 37.261719 C 230.457031 37.261719 232.175781 36.207031 232.175781 34.839844 C 232.175781 32.339844 229.265625 32.339844 228.542969 32.339844 L 227.019531 32.339844 C 226.765625 32.339844 225.984375 32.339844 225.984375 31.382812 C 225.984375 30.992188 226.0625 30.875 226.179688 30.71875 C 226.472656 30.933594 227.058594 31.246094 227.78125 31.246094 C 229.324219 31.246094 230.59375 29.976562 230.59375 28.335938 C 230.59375 27.691406 230.359375 27.027344 229.988281 26.539062 Z M 227.800781 30.25 C 227.019531 30.25 226.21875 29.722656 226.21875 28.355469 C 226.21875 26.753906 227.234375 26.441406 227.78125 26.441406 C 228.582031 26.441406 229.363281 26.96875 229.363281 28.335938 C 229.363281 29.9375 228.367188 30.25 227.800781 30.25 Z M 228.5625 33.628906 C 228.953125 33.628906 230.925781 33.628906 230.925781 34.859375 C 230.925781 35.679688 229.695312 36.285156 228.289062 36.285156 C 226.882812 36.285156 225.632812 35.71875 225.632812 34.839844 C 225.632812 34.800781 225.632812 33.628906 227 33.628906 Z M 228.5625 33.628906 "/>
<path style=" stroke:none;fill-rule:nonzero;fill:rgb(0%,0%,0%);fill-opacity:1;" d="M 246.355469 28.335938 C 246.355469 26.617188 245.125 25.367188 243.445312 25.367188 C 242.371094 25.367188 241.570312 25.601562 240.691406 26.109375 L 240.789062 27.300781 C 241.589844 26.714844 242.410156 26.402344 243.445312 26.402344 C 244.265625 26.402344 244.988281 27.066406 244.988281 28.375 L 244.988281 29.117188 C 244.1875 29.136719 243.113281 29.195312 242.039062 29.546875 C 240.828125 29.976562 240.125 30.640625 240.125 31.519531 C 240.125 32.320312 240.59375 33.765625 242.117188 33.765625 C 243.113281 33.765625 244.363281 33.472656 245.027344 32.925781 L 245.027344 33.589844 L 246.355469 33.589844 Z M 244.988281 31.1875 C 244.988281 31.539062 244.988281 31.96875 244.402344 32.339844 C 243.914062 32.632812 243.308594 32.691406 243.035156 32.691406 C 242.078125 32.691406 241.414062 32.164062 241.414062 31.519531 C 241.414062 30.289062 243.894531 30.015625 244.988281 30.015625 Z M 244.988281 31.1875 "/>
<path style=" stroke:none;fill-rule:nonzero;fill:rgb(0%,0%,0%);fill-opacity:1;" d="M 1.347656 54.089844 C 1.972656 54.636719 2.714844 55.066406 3.691406 55.066406 C 5.410156 55.066406 6.953125 53.328125 6.953125 50.886719 C 6.953125 48.71875 5.800781 46.746094 4.140625 46.746094 C 3.398438 46.746094 2.246094 46.980469 1.328125 47.78125 L 1.328125 46.921875 L 0 46.921875 L 0 58.367188 L 1.347656 58.367188 Z M 1.347656 48.875 C 1.757812 48.25 2.441406 47.859375 3.183594 47.859375 C 4.511719 47.859375 5.585938 49.207031 5.585938 50.90625 C 5.585938 52.703125 4.355469 53.992188 3.027344 53.992188 C 2.519531 53.992188 2.1875 53.816406 1.855469 53.5625 C 1.40625 53.171875 1.347656 52.839844 1.347656 52.566406 Z M 1.347656 48.875 "/>
<path style=" stroke:none;fill-rule:nonzero;fill:rgb(0%,0%,0%);fill-opacity:1;" d="M 10.425781 42.722656 L 8.882812 42.722656 L 8.882812 44.265625 L 10.425781 44.265625 Z M 10.328125 46.921875 L 9 46.921875 L 9 54.890625 L 10.328125 54.890625 Z M 10.328125 46.921875 "/>
<path style=" stroke:none;fill-rule:nonzero;fill:rgb(0%,0%,0%);fill-opacity:1;" d="M 18.980469 52.957031 C 18.160156 53.621094 17.242188 53.953125 16.246094 53.953125 C 14.742188 53.953125 13.785156 52.625 13.785156 50.886719 C 13.785156 49.402344 14.507812 47.78125 16.285156 47.78125 C 17.496094 47.78125 18.003906 48.054688 18.765625 48.582031 L 18.980469 47.410156 C 17.945312 46.804688 17.359375 46.667969 16.285156 46.667969 C 13.824219 46.667969 12.417969 48.855469 12.417969 50.886719 C 12.417969 53.191406 14.078125 55.066406 16.226562 55.066406 C 17.105469 55.066406 18.101562 54.851562 19.097656 54.128906 C 19.097656 54.089844 19.039062 53.523438 19.019531 53.464844 Z M 18.980469 52.957031 "/>
<path style=" stroke:none;fill-rule:nonzero;fill:rgb(0%,0%,0%);fill-opacity:1;" d="M 22.660156 47.976562 L 25.140625 47.976562 L 25.140625 46.921875 L 22.660156 46.921875 L 22.660156 44.65625 L 21.429688 44.65625 L 21.429688 46.921875 L 19.925781 46.921875 L 19.925781 47.976562 L 21.390625 47.976562 L 21.390625 52.800781 C 21.390625 53.835938 21.625 55.066406 22.855469 55.066406 C 24.066406 55.066406 24.886719 54.65625 25.433594 54.363281 L 25.160156 53.328125 C 24.535156 53.894531 23.871094 53.953125 23.558594 53.953125 C 22.757812 53.953125 22.660156 53.113281 22.660156 52.488281 Z M 22.660156 47.976562 "/>
<path style=" stroke:none;fill-rule:nonzero;fill:rgb(0%,0%,0%);fill-opacity:1;" d="M 33.492188 46.921875 L 32.125 46.921875 L 32.125 52.058594 C 32.125 53.425781 31.1875 54.089844 30.015625 54.089844 C 28.765625 54.089844 28.628906 53.621094 28.628906 52.820312 L 28.628906 46.921875 L 27.28125 46.921875 L 27.28125 52.898438 C 27.28125 54.1875 27.691406 55.066406 29.15625 55.066406 C 29.664062 55.066406 31.070312 54.988281 32.164062 53.992188 L 32.164062 54.890625 L 33.492188 54.890625 Z M 33.492188 46.921875 "/>
<path style=" stroke:none;fill-rule:nonzero;fill:rgb(0%,0%,0%);fill-opacity:1;" d="M 37.628906 50.964844 C 37.628906 49.148438 38.976562 47.976562 40.597656 47.957031 L 40.597656 46.746094 C 38.957031 46.765625 38.019531 47.722656 37.53125 48.425781 L 37.53125 46.84375 L 36.300781 46.84375 L 36.300781 54.890625 L 37.628906 54.890625 Z M 37.628906 50.964844 "/>
<path style=" stroke:none;fill-rule:nonzero;fill:rgb(0%,0%,0%);fill-opacity:1;" d="M 48.199219 50.847656 C 48.199219 50.085938 48.121094 48.992188 47.554688 48.035156 C 46.8125 46.804688 45.5625 46.667969 45.035156 46.667969 C 43.101562 46.667969 41.480469 48.523438 41.480469 50.847656 C 41.480469 53.230469 43.199219 55.066406 45.289062 55.066406 C 46.109375 55.066406 47.105469 54.832031 48.082031 54.128906 C 48.082031 54.050781 48.023438 53.484375 48.023438 53.464844 C 48.003906 53.445312 47.984375 53.035156 47.984375 52.976562 C 46.910156 53.875 45.855469 53.992188 45.328125 53.992188 C 43.941406 53.992188 42.75 52.761719 42.730469 50.847656 Z M 42.828125 49.890625 C 43.140625 48.679688 43.980469 47.742188 45.035156 47.742188 C 45.601562 47.742188 46.832031 47.996094 47.125 49.890625 Z M 42.828125 49.890625 "/>
<path style=" stroke:none;fill-rule:nonzero;fill:rgb(0%,0%,0%);fill-opacity:1;" d="M 55.699219 47.976562 L 57.613281 47.976562 L 57.613281 46.921875 L 55.660156 46.921875 L 55.660156 44.773438 C 55.660156 43.5625 56.675781 43.347656 57.28125 43.347656 C 57.90625 43.347656 58.453125 43.542969 58.667969 43.621094 L 58.667969 42.449219 C 58.550781 42.410156 57.945312 42.273438 57.300781 42.273438 C 55.582031 42.273438 54.371094 43.582031 54.371094 45.320312 L 54.371094 46.921875 L 53.0625 46.921875 L 53.0625 47.976562 L 54.371094 47.976562 L 54.371094 54.890625 L 55.699219 54.890625 Z M 55.699219 47.976562 "/>
<path style=" stroke:none;fill-rule:nonzero;fill:rgb(0%,0%,0%);fill-opacity:1;" d="M 60.726562 50.964844 C 60.726562 49.148438 62.074219 47.976562 63.695312 47.957031 L 63.695312 46.746094 C 62.054688 46.765625 61.117188 47.722656 60.628906 48.425781 L 60.628906 46.84375 L 59.398438 46.84375 L 59.398438 54.890625 L 60.726562 54.890625 Z M 60.726562 50.964844 "/>
<path style=" stroke:none;fill-rule:nonzero;fill:rgb(0%,0%,0%);fill-opacity:1;" d="M 72.214844 50.945312 C 72.214844 48.523438 70.4375 46.667969 68.386719 46.667969 C 66.277344 46.667969 64.539062 48.5625 64.539062 50.945312 C 64.539062 53.289062 66.316406 55.066406 68.367188 55.066406 C 70.476562 55.066406 72.214844 53.25 72.214844 50.945312 Z M 68.386719 53.953125 C 67.097656 53.953125 65.886719 52.878906 65.886719 50.769531 C 65.886719 48.601562 67.234375 47.742188 68.367188 47.742188 C 69.597656 47.742188 70.867188 48.660156 70.867188 50.769531 C 70.867188 52.976562 69.578125 53.953125 68.386719 53.953125 Z M 68.386719 53.953125 "/>
<path style=" stroke:none;fill-rule:nonzero;fill:rgb(0%,0%,0%);fill-opacity:1;" d="M 85.34375 49.5 C 85.34375 48.25 85.011719 46.746094 82.921875 46.746094 C 81.398438 46.746094 80.558594 47.800781 80.285156 48.210938 C 79.953125 47.078125 78.976562 46.746094 78.039062 46.746094 C 76.574219 46.746094 75.792969 47.703125 75.5 48.074219 L 75.5 46.84375 L 74.230469 46.84375 L 74.230469 54.890625 L 75.578125 54.890625 L 75.578125 50.417969 C 75.578125 49.246094 76.046875 47.820312 77.355469 47.820312 C 79.015625 47.820312 79.09375 48.953125 79.09375 49.617188 L 79.09375 54.890625 L 80.460938 54.890625 L 80.460938 50.417969 C 80.460938 49.246094 80.929688 47.820312 82.238281 47.820312 C 83.878906 47.820312 83.976562 48.953125 83.976562 49.617188 L 83.976562 54.890625 L 85.34375 54.890625 Z M 85.34375 49.5 "/>
<path style=" stroke:none;fill-rule:nonzero;fill:rgb(0%,0%,0%);fill-opacity:1;" d="M 93.609375 47.976562 L 96.089844 47.976562 L 96.089844 46.921875 L 93.609375 46.921875 L 93.609375 44.65625 L 92.378906 44.65625 L 92.378906 46.921875 L 90.875 46.921875 L 90.875 47.976562 L 92.339844 47.976562 L 92.339844 52.800781 C 92.339844 53.835938 92.574219 55.066406 93.804688 55.066406 C 95.015625 55.066406 95.835938 54.65625 96.382812 54.363281 L 96.109375 53.328125 C 95.484375 53.894531 94.820312 53.953125 94.507812 53.953125 C 93.707031 53.953125 93.609375 53.113281 93.609375 52.488281 Z M 93.609375 47.976562 "/>
<path style=" stroke:none;fill-rule:nonzero;fill:rgb(0%,0%,0%);fill-opacity:1;" d="M 104.441406 49.5 C 104.441406 48.40625 104.207031 46.746094 102.039062 46.746094 C 100.808594 46.746094 99.988281 47.449219 99.558594 47.996094 L 99.558594 42.449219 L 98.230469 42.449219 L 98.230469 54.890625 L 99.578125 54.890625 L 99.578125 50.417969 C 99.578125 49.324219 100.007812 47.820312 101.355469 47.820312 C 103.035156 47.820312 103.074219 48.992188 103.074219 49.617188 L 103.074219 54.890625 L 104.441406 54.890625 Z M 104.441406 49.5 "/>
<path style=" stroke:none;fill-rule:nonzero;fill:rgb(0%,0%,0%);fill-opacity:1;" d="M 113.148438 50.847656 C 113.148438 50.085938 113.070312 48.992188 112.503906 48.035156 C 111.761719 46.804688 110.511719 46.667969 109.984375 46.667969 C 108.050781 46.667969 106.429688 48.523438 106.429688 50.847656 C 106.429688 53.230469 108.148438 55.066406 110.238281 55.066406 C 111.058594 55.066406 112.054688 54.832031 113.03125 54.128906 C 113.03125 54.050781 112.972656 53.484375 112.972656 53.464844 C 112.953125 53.445312 112.933594 53.035156 112.933594 52.976562 C 111.859375 53.875 110.804688 53.992188 110.277344 53.992188 C 108.890625 53.992188 107.699219 52.761719 107.679688 50.847656 Z M 107.777344 49.890625 C 108.089844 48.679688 108.929688 47.742188 109.984375 47.742188 C 110.550781 47.742188 111.78125 47.996094 112.074219 49.890625 Z M 107.777344 49.890625 "/>
<path style=" stroke:none;fill-rule:nonzero;fill:rgb(0%,0%,0%);fill-opacity:1;" d="M 120.296875 54.089844 C 120.921875 54.636719 121.664062 55.066406 122.640625 55.066406 C 124.359375 55.066406 125.902344 53.328125 125.902344 50.886719 C 125.902344 48.71875 124.75 46.746094 123.089844 46.746094 C 122.347656 46.746094 121.195312 46.980469 120.277344 47.78125 L 120.277344 46.921875 L 118.949219 46.921875 L 118.949219 58.367188 L 120.296875 58.367188 Z M 120.296875 48.875 C 120.707031 48.25 121.390625 47.859375 122.132812 47.859375 C 123.460938 47.859375 124.535156 49.207031 124.535156 50.90625 C 124.535156 52.703125 123.304688 53.992188 121.976562 53.992188 C 121.46875 53.992188 121.136719 53.816406 120.804688 53.5625 C 120.355469 53.171875 120.296875 52.839844 120.296875 52.566406 Z M 120.296875 48.875 "/>
<path style=" stroke:none;fill-rule:nonzero;fill:rgb(0%,0%,0%);fill-opacity:1;" d="M 128.828125 50.964844 C 128.828125 49.148438 130.175781 47.976562 131.796875 47.957031 L 131.796875 46.746094 C 130.15625 46.765625 129.21875 47.722656 128.730469 48.425781 L 128.730469 46.84375 L 127.5 46.84375 L 127.5 54.890625 L 128.828125 54.890625 Z M 128.828125 50.964844 "/>
<path style=" stroke:none;fill-rule:nonzero;fill:rgb(0%,0%,0%);fill-opacity:1;" d="M 140.316406 50.945312 C 140.316406 48.523438 138.539062 46.667969 136.488281 46.667969 C 134.378906 46.667969 132.640625 48.5625 132.640625 50.945312 C 132.640625 53.289062 134.417969 55.066406 136.46875 55.066406 C 138.578125 55.066406 140.316406 53.25 140.316406 50.945312 Z M 136.488281 53.953125 C 135.199219 53.953125 133.988281 52.878906 133.988281 50.769531 C 133.988281 48.601562 135.335938 47.742188 136.46875 47.742188 C 137.699219 47.742188 138.96875 48.660156 138.96875 50.769531 C 138.96875 52.976562 137.679688 53.953125 136.488281 53.953125 Z M 136.488281 53.953125 "/>
<path style=" stroke:none;fill-rule:nonzero;fill:rgb(0%,0%,0%);fill-opacity:1;" d="M 143.675781 42.449219 L 142.347656 42.449219 L 142.347656 54.890625 L 143.695312 54.890625 L 143.695312 54.089844 C 144.535156 54.871094 145.414062 55.066406 146.039062 55.066406 C 147.738281 55.066406 149.300781 53.328125 149.300781 50.886719 C 149.300781 48.679688 148.109375 46.746094 146.449219 46.746094 C 145.921875 46.746094 144.769531 46.863281 143.675781 47.761719 Z M 143.695312 48.855469 C 144.027344 48.347656 144.671875 47.820312 145.550781 47.820312 C 146.644531 47.820312 147.933594 48.660156 147.933594 50.886719 C 147.933594 53.230469 146.46875 53.992188 145.375 53.992188 C 144.867188 53.992188 144.535156 53.816406 144.203125 53.5625 C 143.773438 53.191406 143.695312 52.859375 143.695312 52.566406 Z M 143.695312 48.855469 "/>
<path style=" stroke:none;fill-rule:nonzero;fill:rgb(0%,0%,0%);fill-opacity:1;" d="M 152.675781 42.449219 L 151.347656 42.449219 L 151.347656 54.890625 L 152.675781 54.890625 Z M 152.675781 42.449219 "/>
<path style=" stroke:none;fill-rule:nonzero;fill:rgb(0%,0%,0%);fill-opacity:1;" d="M 161.449219 50.847656 C 161.449219 50.085938 161.371094 48.992188 160.804688 48.035156 C 160.0625 46.804688 158.8125 46.667969 158.285156 46.667969 C 156.351562 46.667969 154.730469 48.523438 154.730469 50.847656 C 154.730469 53.230469 156.449219 55.066406 158.539062 55.066406 C 159.359375 55.066406 160.355469 54.832031 161.332031 54.128906 C 161.332031 54.050781 161.273438 53.484375 161.273438 53.464844 C 161.253906 53.445312 161.234375 53.035156 161.234375 52.976562 C 160.160156 53.875 159.105469 53.992188 158.578125 53.992188 C 157.191406 53.992188 156 52.761719 155.980469 50.847656 Z M 156.078125 49.890625 C 156.390625 48.679688 157.230469 47.742188 158.285156 47.742188 C 158.851562 47.742188 160.082031 47.996094 160.375 49.890625 Z M 156.078125 49.890625 "/>
<path style=" stroke:none;fill-rule:nonzero;fill:rgb(0%,0%,0%);fill-opacity:1;" d="M 174.441406 49.5 C 174.441406 48.25 174.109375 46.746094 172.019531 46.746094 C 170.496094 46.746094 169.65625 47.800781 169.382812 48.210938 C 169.050781 47.078125 168.074219 46.746094 167.136719 46.746094 C 165.671875 46.746094 164.890625 47.703125 164.597656 48.074219 L 164.597656 46.84375 L 163.328125 46.84375 L 163.328125 54.890625 L 164.675781 54.890625 L 164.675781 50.417969 C 164.675781 49.246094 165.144531 47.820312 166.453125 47.820312 C 168.113281 47.820312 168.191406 48.953125 168.191406 49.617188 L 168.191406 54.890625 L 169.558594 54.890625 L 169.558594 50.417969 C 169.558594 49.246094 170.027344 47.820312 171.335938 47.820312 C 172.976562 47.820312 173.074219 48.953125 173.074219 49.617188 L 173.074219 54.890625 L 174.441406 54.890625 Z M 174.441406 49.5 "/>
<path style=" stroke:none;fill-rule:nonzero;fill:rgb(0%,0%,0%);fill-opacity:1;" d="M 185.507812 47.214844 C 184.375 46.6875 183.398438 46.667969 182.988281 46.667969 C 182.578125 46.667969 180.078125 46.667969 180.078125 48.992188 C 180.078125 49.773438 180.507812 50.320312 180.78125 50.574219 C 181.425781 51.121094 181.875 51.21875 182.929688 51.433594 C 183.535156 51.550781 184.570312 51.765625 184.570312 52.722656 C 184.570312 53.953125 183.164062 53.953125 182.910156 53.953125 C 182.207031 53.953125 181.152344 53.757812 180.195312 53.054688 L 179.980469 54.285156 C 180.058594 54.34375 181.289062 55.066406 182.929688 55.066406 C 185.253906 55.066406 185.800781 53.679688 185.800781 52.605469 C 185.800781 51.707031 185.253906 51.121094 185.175781 51.042969 C 184.511719 50.359375 183.964844 50.242188 182.890625 50.027344 C 182.226562 49.910156 181.328125 49.734375 181.328125 48.835938 C 181.328125 47.722656 182.578125 47.722656 182.8125 47.722656 C 183.75 47.722656 184.511719 47.9375 185.292969 48.386719 Z M 185.507812 47.214844 "/>
<path style=" stroke:none;fill-rule:nonzero;fill:rgb(0%,0%,0%);fill-opacity:1;" d="M 189.308594 47.976562 L 191.789062 47.976562 L 191.789062 46.921875 L 189.308594 46.921875 L 189.308594 44.65625 L 188.078125 44.65625 L 188.078125 46.921875 L 186.574219 46.921875 L 186.574219 47.976562 L 188.039062 47.976562 L 188.039062 52.800781 C 188.039062 53.835938 188.273438 55.066406 189.503906 55.066406 C 190.714844 55.066406 191.535156 54.65625 192.082031 54.363281 L 191.808594 53.328125 C 191.183594 53.894531 190.519531 53.953125 190.207031 53.953125 C 189.40625 53.953125 189.308594 53.113281 189.308594 52.488281 Z M 189.308594 47.976562 "/>
<path style=" stroke:none;fill-rule:nonzero;fill:rgb(0%,0%,0%);fill-opacity:1;" d="M 199.554688 49.636719 C 199.554688 47.917969 198.324219 46.667969 196.644531 46.667969 C 195.570312 46.667969 194.769531 46.902344 193.890625 47.410156 L 193.988281 48.601562 C 194.789062 48.015625 195.609375 47.703125 196.644531 47.703125 C 197.464844 47.703125 198.1875 48.367188 198.1875 49.675781 L 198.1875 50.417969 C 197.386719 50.4375 196.3125 50.496094 195.238281 50.847656 C 194.027344 51.277344 193.324219 51.941406 193.324219 52.820312 C 193.324219 53.621094 193.792969 55.066406 195.316406 55.066406 C 196.3125 55.066406 197.5625 54.773438 198.226562 54.226562 L 198.226562 54.890625 L 199.554688 54.890625 Z M 198.1875 52.488281 C 198.1875 52.839844 198.1875 53.269531 197.601562 53.640625 C 197.113281 53.933594 196.507812 53.992188 196.234375 53.992188 C 195.277344 53.992188 194.613281 53.464844 194.613281 52.820312 C 194.613281 51.589844 197.09375 51.316406 198.1875 51.316406 Z M 198.1875 52.488281 "/>
<path style=" stroke:none;fill-rule:nonzero;fill:rgb(0%,0%,0%);fill-opacity:1;" d="M 204.007812 47.976562 L 206.488281 47.976562 L 206.488281 46.921875 L 204.007812 46.921875 L 204.007812 44.65625 L 202.777344 44.65625 L 202.777344 46.921875 L 201.273438 46.921875 L 201.273438 47.976562 L 202.738281 47.976562 L 202.738281 52.800781 C 202.738281 53.835938 202.972656 55.066406 204.203125 55.066406 C 205.414062 55.066406 206.234375 54.65625 206.78125 54.363281 L 206.507812 53.328125 C 205.882812 53.894531 205.21875 53.953125 204.90625 53.953125 C 204.105469 53.953125 204.007812 53.113281 204.007812 52.488281 Z M 204.007812 47.976562 "/>
<path style=" stroke:none;fill-rule:nonzero;fill:rgb(0%,0%,0%);fill-opacity:1;" d="M 214.546875 50.847656 C 214.546875 50.085938 214.46875 48.992188 213.902344 48.035156 C 213.160156 46.804688 211.910156 46.667969 211.382812 46.667969 C 209.449219 46.667969 207.828125 48.523438 207.828125 50.847656 C 207.828125 53.230469 209.546875 55.066406 211.636719 55.066406 C 212.457031 55.066406 213.453125 54.832031 214.429688 54.128906 C 214.429688 54.050781 214.371094 53.484375 214.371094 53.464844 C 214.351562 53.445312 214.332031 53.035156 214.332031 52.976562 C 213.257812 53.875 212.203125 53.992188 211.675781 53.992188 C 210.289062 53.992188 209.097656 52.761719 209.078125 50.847656 Z M 209.175781 49.890625 C 209.488281 48.679688 210.328125 47.742188 211.382812 47.742188 C 211.949219 47.742188 213.179688 47.996094 213.472656 49.890625 Z M 209.175781 49.890625 "/>
<path style=" stroke:none;fill-rule:nonzero;fill:rgb(0%,0%,0%);fill-opacity:1;" d="M 227.542969 49.5 C 227.542969 48.25 227.210938 46.746094 225.121094 46.746094 C 223.597656 46.746094 222.757812 47.800781 222.484375 48.210938 C 222.152344 47.078125 221.175781 46.746094 220.238281 46.746094 C 218.773438 46.746094 217.992188 47.703125 217.699219 48.074219 L 217.699219 46.84375 L 216.429688 46.84375 L 216.429688 54.890625 L 217.777344 54.890625 L 217.777344 50.417969 C 217.777344 49.246094 218.246094 47.820312 219.554688 47.820312 C 221.214844 47.820312 221.292969 48.953125 221.292969 49.617188 L 221.292969 54.890625 L 222.660156 54.890625 L 222.660156 50.417969 C 222.660156 49.246094 223.128906 47.820312 224.4375 47.820312 C 226.078125 47.820312 226.175781 48.953125 226.175781 49.617188 L 226.175781 54.890625 L 227.542969 54.890625 Z M 227.542969 49.5 "/>
<path style=" stroke:none;fill-rule:nonzero;fill:rgb(0%,0%,0%);fill-opacity:1;" d="M 236.296875 50.847656 C 236.296875 50.085938 236.21875 48.992188 235.652344 48.035156 C 234.910156 46.804688 233.660156 46.667969 233.132812 46.667969 C 231.199219 46.667969 229.578125 48.523438 229.578125 50.847656 C 229.578125 53.230469 231.296875 55.066406 233.386719 55.066406 C 234.207031 55.066406 235.203125 54.832031 236.179688 54.128906 C 236.179688 54.050781 236.121094 53.484375 236.121094 53.464844 C 236.101562 53.445312 236.082031 53.035156 236.082031 52.976562 C 235.007812 53.875 233.953125 53.992188 233.425781 53.992188 C 232.039062 53.992188 230.847656 52.761719 230.828125 50.847656 Z M 230.925781 49.890625 C 231.238281 48.679688 232.078125 47.742188 233.132812 47.742188 C 233.699219 47.742188 234.929688 47.996094 235.222656 49.890625 Z M 230.925781 49.890625 "/>
<path style=" stroke:none;fill-rule:nonzero;fill:rgb(0%,0%,0%);fill-opacity:1;" d="M 244.390625 49.5 C 244.390625 48.40625 244.15625 46.746094 241.988281 46.746094 C 240.992188 46.746094 240.132812 47.195312 239.449219 48.054688 L 239.449219 46.84375 L 238.179688 46.84375 L 238.179688 54.890625 L 239.527344 54.890625 L 239.527344 50.417969 C 239.527344 49.324219 239.957031 47.820312 241.304688 47.820312 C 242.984375 47.820312 243.023438 48.992188 243.023438 49.617188 L 243.023438 54.890625 L 244.390625 54.890625 Z M 244.390625 49.5 "/>
<path style=" stroke:none;fill-rule:nonzero;fill:rgb(0%,0%,0%);fill-opacity:1;" d="M 248.859375 47.976562 L 251.339844 47.976562 L 251.339844 46.921875 L 248.859375 46.921875 L 248.859375 44.65625 L 247.628906 44.65625 L 247.628906 46.921875 L 246.125 46.921875 L 246.125 47.976562 L 247.589844 47.976562 L 247.589844 52.800781 C 247.589844 53.835938 247.824219 55.066406 249.054688 55.066406 C 250.265625 55.066406 251.085938 54.65625 251.632812 54.363281 L 251.359375 53.328125 C 250.734375 53.894531 250.070312 53.953125 249.757812 53.953125 C 248.957031 53.953125 248.859375 53.113281 248.859375 52.488281 Z M 248.859375 47.976562 "/>
</g>
</svg>
