<?xml version="1.0"?>
<svg width="766" height="454" xmlns="http://www.w3.org/2000/svg" xmlns:svg="http://www.w3.org/2000/svg" class="main-svg">
 <defs>
  <g id="svg_2" class="clips">
   <clipPath id="clipcb9327x" class="axesclip">
    <rect id="svg_3" height="454" width="766" y="0" x="0"/>
   </clipPath>
   <clipPath id="clipcb9327y" class="axesclip">
    <rect id="svg_4" height="454" width="766" y="0" x="0"/>
   </clipPath>
   <clipPath id="clipcb9327xy" class="axesclip">
    <rect id="svg_5" height="454" width="766" y="0" x="0"/>
   </clipPath>
  </g>
 </defs>
 <g>
  <title>Layer 1</title>
  <rect id="svg_6" fill="rgb(0, 0, 0)" fill-opacity="0" height="454" width="766" y="0" x="0"/>
  <g id="svg_7" class="draglayer">
   <g id="svg_8"/>
  </g>
  <g id="svg_9" class="subplot xy">
   <rect id="svg_10" stroke-width="0px" fill="rgb(0, 0, 0)" fill-opacity="0" height="454" width="766" y="0" x="2"/>
   <g id="svg_11">
    <path id="svg_12" stroke="rgb(238, 238, 238)" stroke-width="1px" d="m113.239998,0l0,454" class="xgrid crisp"/>
    <path id="svg_13" stroke="rgb(238, 238, 238)" stroke-width="1px" d="m249.119995,0l0,454" class="xgrid crisp"/>
    <path id="svg_14" stroke="rgb(238, 238, 238)" stroke-width="1px" d="m520.880005,0l0,454" class="xgrid crisp"/>
    <path id="svg_15" stroke="rgb(238, 238, 238)" stroke-width="1px" d="m656.76001,0l0,454" class="xgrid crisp"/>
    <path id="svg_16" stroke="rgb(238, 238, 238)" stroke-width="1px" d="m2,426.299988l766,0" class="ygrid crisp"/>
    <path id="svg_17" stroke="rgb(238, 238, 238)" stroke-width="1px" d="m2,376.480011l766,0" class="ygrid crisp"/>
    <path id="svg_18" stroke="rgb(238, 238, 238)" stroke-width="1px" d="m2,326.649994l766,0" class="ygrid crisp"/>
    <path id="svg_19" stroke="rgb(238, 238, 238)" stroke-width="1px" d="m2,276.829987l766,0" class="ygrid crisp"/>
    <path id="svg_20" stroke="rgb(238, 238, 238)" stroke-width="1px" d="m2,227l766,0" class="ygrid crisp"/>
    <path id="svg_21" stroke="rgb(238, 238, 238)" stroke-width="1px" d="m2,127.349998l766,0" class="ygrid crisp"/>
    <path id="svg_22" stroke="rgb(238, 238, 238)" stroke-width="1px" d="m2,77.529999l766,0" class="ygrid crisp"/>
    <path id="svg_23" stroke="rgb(238, 238, 238)" stroke-width="1px" d="m2,27.700001l766,0" class="ygrid crisp"/>
   </g>
   <g id="svg_24"/>
   <g id="svg_25">
    <path id="svg_26" stroke="rgb(68, 68, 68)" stroke-width="1px" d="m385,0l0,454" class="xzl zl crisp"/>
    <path id="svg_27" stroke="rgb(68, 68, 68)" stroke-width="1px" d="m2,177.179993l766,0" class="yzl zl crisp"/>
   </g>
   <g id="svg_28"/>
   <svg id="svg_29" viewBox="0 0 766 454" height="454" width="766" y="0" x="2" preserveAspectRatio="none">
    <g id="svg_30" class="maplayer"/>
    <g id="svg_31" class="barlayer"/>
    <g id="svg_32" class="errorlayer">
     <g id="svg_33" class="errorbars"/>
    </g>
    <g id="svg_34" class="boxlayer"/>
    <g id="svg_35" class="scatterlayer">
     <g id="svg_36" stroke-miterlimit="2" class="trace scatter">
      <path id="svg_37" fill="none" stroke="rgb(31, 119, 180)" stroke-width="2px" d="m43.299999,426.299988l407.640003,-298.949989l33.970001,0l101.910004,0l33.969971,-24.909996l101.910034,-74.740002" class="js-line"/>
      <g id="svg_38" class="points">
       <path id="svg_39" stroke-width="0px" fill="rgb(31, 119, 180)" d="m47.299999,426.299988a4,4 0 1 1 -4,-4a4,4 0 0 1 4,4z" class="point"/>
       <path id="svg_40" stroke-width="0px" fill="rgb(31, 119, 180)" d="m81.269997,401.390015a4,4 0 1 1 -4,-4a4,4 0 0 1 4,4z" class="point"/>
       <path id="svg_41" stroke-width="0px" fill="rgb(31, 119, 180)" d="m115.239998,376.480011a4,4 0 1 1 -4,-4a4,4 0 0 1 4,4z" class="point"/>
       <path id="svg_42" stroke-width="0px" fill="rgb(31, 119, 180)" d="m149.210007,351.559998a4,4 0 1 1 -4,-4a4,4 0 0 1 4,4z" class="point"/>
       <path id="svg_43" stroke-width="0px" fill="rgb(31, 119, 180)" d="m183.179993,326.649994a4,4 0 1 1 -4,-4a4,4 0 0 1 4,4z" class="point"/>
       <path id="svg_44" stroke-width="0px" fill="rgb(31, 119, 180)" d="m217.149994,301.73999a4,4 0 1 1 -4,-4a4,4 0 0 1 4,4z" class="point"/>
       <path id="svg_45" stroke-width="0px" fill="rgb(31, 119, 180)" d="m251.119995,276.829987a4,4 0 1 1 -4,-4a4,4 0 0 1 4,4z" class="point"/>
       <path id="svg_46" stroke-width="0px" fill="rgb(31, 119, 180)" d="m285.089996,251.910004a4,4 0 1 1 -4,-4a4,4 0 0 1 4,4z" class="point"/>
       <path id="svg_47" stroke-width="0px" fill="rgb(31, 119, 180)" d="m319.059998,227a4,4 0 1 1 -4,-4a4,4 0 0 1 4,4z" class="point"/>
       <path id="svg_48" stroke-width="0px" fill="rgb(31, 119, 180)" d="m353.029999,202.089996a4,4 0 1 1 -4,-4a4,4 0 0 1 4,4z" class="point"/>
       <path id="svg_49" stroke-width="0px" fill="rgb(31, 119, 180)" d="m387,177.179993a4,4 0 1 1 -4,-4a4,4 0 0 1 4,4z" class="point"/>
       <path id="svg_50" stroke-width="0px" fill="rgb(31, 119, 180)" d="m420.970001,152.259995a4,4 0 1 1 -4,-4a4,4 0 0 1 4,4z" class="point"/>
       <path id="svg_51" stroke-width="0px" fill="rgb(31, 119, 180)" d="m454.940002,127.349998a4,4 0 1 1 -4,-4a4,4 0 0 1 4,4z" class="point"/>
       <path id="svg_52" stroke-width="0px" fill="rgb(31, 119, 180)" d="m488.910004,127.349998a4,4 0 1 1 -4,-4a4,4 0 0 1 4,4z" class="point"/>
       <path id="svg_53" stroke-width="0px" fill="rgb(31, 119, 180)" d="m522.880005,127.349998a4,4 0 1 1 -4,-4a4,4 0 0 1 4,4z" class="point"/>
       <path id="svg_54" stroke-width="0px" fill="rgb(31, 119, 180)" d="m556.849976,127.349998a4,4 0 1 1 -4,-4a4,4 0 0 1 4,4z" class="point"/>
       <path id="svg_55" stroke-width="0px" fill="rgb(31, 119, 180)" d="m590.820007,127.349998a4,4 0 1 1 -4,-4a4,4 0 0 1 4,4z" class="point"/>
       <path id="svg_56" stroke-width="0px" fill="rgb(31, 119, 180)" d="m624.789978,102.440002a4,4 0 1 1 -4,-4a4,4 0 0 1 4,4z" class="point"/>
       <path id="svg_57" stroke-width="0px" fill="rgb(31, 119, 180)" d="m658.76001,77.529999a4,4 0 1 1 -4,-4a4,4 0 0 1 4,4z" class="point"/>
       <path id="svg_58" stroke-width="0px" fill="rgb(31, 119, 180)" d="m692.72998,52.610001a4,4 0 1 1 -4,-4a4,4 0 0 1 4,4z" class="point"/>
       <path id="svg_59" stroke-width="0px" fill="rgb(31, 119, 180)" d="m726.700012,27.700001a4,4 0 1 1 -4,-4a4,4 0 0 1 4,4z" class="point"/>
      </g>
     </g>
    </g>
   </svg>
   <g id="svg_60"/>
   <path id="svg_61" fill="none" stroke-width="1px" stroke="rgb(0, 0, 0)" stroke-opacity="0" d="m1,454.5l768,0" class="crisp"/>
   <path id="svg_62" fill="none" stroke="rgb(0, 0, 0)" stroke-opacity="0" stroke-width="1px" d="m1.5,-1l0,455" class="crisp"/>
   <g id="svg_63"/>
   <g id="svg_64">
    <g id="svg_65" class="xtick">
     <text id="svg_66" font-family="&#x27;Open sans', verdana, arial, sans-serif" font-size="12px" fill="rgb(68, 68, 68)" y="468" x="113.239998" text-anchor="middle">−2</text>
    </g>
    <g id="svg_67" class="xtick">
     <text id="svg_68" font-family="&#x27;Open sans', verdana, arial, sans-serif" font-size="12px" fill="rgb(68, 68, 68)" y="468" x="249.119995" text-anchor="middle">−1</text>
    </g>
    <g id="svg_69" class="xtick">
     <text id="svg_70" font-family="&#x27;Open sans', verdana, arial, sans-serif" font-size="12px" fill="rgb(68, 68, 68)" y="468" x="385" text-anchor="middle">0</text>
    </g>
    <g id="svg_71" class="xtick">
     <text id="svg_72" font-family="&#x27;Open sans', verdana, arial, sans-serif" font-size="12px" fill="rgb(68, 68, 68)" y="468" x="520.880005" text-anchor="middle">1</text>
    </g>
    <g id="svg_73" class="xtick">
     <text id="svg_74" font-family="&#x27;Open sans', verdana, arial, sans-serif" font-size="12px" fill="rgb(68, 68, 68)" y="468" x="656.76001" text-anchor="middle">2</text>
    </g>
   </g>
   <g id="svg_75">
    <g id="svg_76" class="ytick">
     <text id="svg_77" font-family="&#x27;Open sans', verdana, arial, sans-serif" font-size="12px" fill="rgb(68, 68, 68)" y="432.299988" x="0" text-anchor="end">−2.5</text>
    </g>
    <g id="svg_78" class="ytick">
     <text id="svg_79" font-family="&#x27;Open sans', verdana, arial, sans-serif" font-size="12px" fill="rgb(68, 68, 68)" y="382.480011" x="0" text-anchor="end">−2</text>
    </g>
    <g id="svg_80" class="ytick">
     <text id="svg_81" font-family="&#x27;Open sans', verdana, arial, sans-serif" font-size="12px" fill="rgb(68, 68, 68)" y="332.649994" x="0" text-anchor="end">−1.5</text>
    </g>
    <g id="svg_82" class="ytick">
     <text id="svg_83" font-family="&#x27;Open sans', verdana, arial, sans-serif" font-size="12px" fill="rgb(68, 68, 68)" y="282.829987" x="0" text-anchor="end">−1</text>
    </g>
    <g id="svg_84" class="ytick">
     <text id="svg_85" font-family="&#x27;Open sans', verdana, arial, sans-serif" font-size="12px" fill="rgb(68, 68, 68)" y="233" x="0" text-anchor="end">−0.5</text>
    </g>
    <g id="svg_86" class="ytick">
     <text id="svg_87" font-family="&#x27;Open sans', verdana, arial, sans-serif" font-size="12px" fill="rgb(68, 68, 68)" y="183.179993" x="0" text-anchor="end">0</text>
    </g>
    <g id="svg_88" class="ytick">
     <text id="svg_89" font-family="&#x27;Open sans', verdana, arial, sans-serif" font-size="12px" fill="rgb(68, 68, 68)" y="133.349998" x="0" text-anchor="end">0.5</text>
    </g>
    <g id="svg_90" class="ytick">
     <text id="svg_91" font-family="&#x27;Open sans', verdana, arial, sans-serif" font-size="12px" fill="rgb(68, 68, 68)" y="83.529999" x="0" text-anchor="end">1</text>
    </g>
    <g id="svg_92" class="ytick">
     <text id="svg_93" font-family="&#x27;Open sans', verdana, arial, sans-serif" font-size="12px" fill="rgb(68, 68, 68)" y="33.700001" x="0" text-anchor="end">1.5</text>
    </g>
   </g>
   <g id="svg_94"/>
  </g>
  <g id="svg_95" class="shapelayer"/>
  <g id="svg_96" class="glimages"/>
  <text id="svg_97" font-family="&#x27;Open Sans', Arial, sans-serif" font-size="12px" fill="rgb(68, 68, 68)" x="759" text-anchor="end" y="445" class="js-plot-link-container"/>
  <g id="svg_98" class="infolayer">
   <g id="svg_99" class="g-gtitle"/>
   <g id="svg_100" class="g-xtitle"/>
   <g id="svg_101" class="g-ytitle"/>
  </g>
  <text xml:space="preserve" text-anchor="middle" font-family="Sans-serif" font-size="24" id="svg_102" y="197" x="398" stroke-width="0" stroke="#3f7f00" fill="#000000">O</text>
  <text xml:space="preserve" text-anchor="middle" font-family="Sans-serif" font-size="24" id="svg_103" y="154" x="462" stroke-width="0" stroke="#3f7f00" fill="#000000">A</text>
  <text xml:space="preserve" text-anchor="middle" font-family="Sans-serif" font-size="24" id="svg_104" y="150" x="605" stroke-width="0" stroke="#3f7f00" fill="#000000">B</text>
  <text xml:space="preserve" text-anchor="middle" font-family="Sans-serif" font-size="24" id="svg_105" y="49" x="737" stroke-width="0" stroke="#3f7f00" fill="#000000">C</text>
 </g>
</svg>