<?xml version="1.0" encoding="UTF-8"?>
<svg width="869" height="473" xmlns="http://www.w3.org/2000/svg" xmlns:svg="http://www.w3.org/2000/svg" class="main-svg">
 <defs>
  <g class="clips" id="svg_162">
   <clipPath class="axesclip" id="clip8b368ex">
    <rect x="80" y="0" width="632" height="473" id="svg_163"/>
   </clipPath>
   <clipPath class="axesclip" id="clip8b368ey">
    <rect x="0" y="100" width="869" height="293" id="svg_164"/>
   </clipPath>
   <clipPath class="axesclip" id="clip8b368exy">
    <rect x="80" y="100" width="632" height="293" id="svg_165"/>
   </clipPath>
  </g>
 </defs>
 <g>
  <title>Layer 1</title>
  <rect x="0" y="0" width="869" height="473" fill="rgb(255, 255, 255)" id="svg_166"/>
  <g class="draglayer" id="svg_167">
   <g id="svg_168"/>
  </g>
  <g class="subplot xy" id="svg_169">
   <rect x="80" y="100" width="632" height="293" fill="rgb(255, 255, 255)" stroke-width="0px" id="svg_170"/>
   <g id="svg_171">
    <path class="xgrid crisp" d="m198.290009,100l0,293" stroke-width="1px" stroke="rgb(238, 238, 238)" id="svg_172"/>
    <path class="xgrid crisp" d="m277.369995,100l0,293" stroke-width="1px" stroke="rgb(238, 238, 238)" id="svg_173"/>
    <path class="xgrid crisp" d="m356.459991,100l0,293" stroke-width="1px" stroke="rgb(238, 238, 238)" id="svg_174"/>
    <path class="xgrid crisp" d="m435.540009,100l0,293" stroke-width="1px" stroke="rgb(238, 238, 238)" id="svg_175"/>
    <path class="xgrid crisp" d="m514.630005,100l0,293" stroke-width="1px" stroke="rgb(238, 238, 238)" id="svg_176"/>
    <path class="xgrid crisp" d="m593.710022,100l0,293" stroke-width="1px" stroke="rgb(238, 238, 238)" id="svg_177"/>
    <path class="xgrid crisp" d="m672.799988,100l0,293" stroke-width="1px" stroke="rgb(238, 238, 238)" id="svg_178"/>
    <path class="ygrid crisp" d="m80,374.600006l632,0" stroke-width="1px" stroke="rgb(238, 238, 238)" id="svg_179"/>
    <path class="ygrid crisp" d="m80,246.5l632,0" stroke-width="1px" stroke="rgb(238, 238, 238)" id="svg_180"/>
    <path class="ygrid crisp" d="m80,182.449997l632,0" stroke-width="1px" stroke="rgb(238, 238, 238)" id="svg_181"/>
    <path class="ygrid crisp" d="m80,118.400002l632,0" stroke-width="1px" stroke="rgb(238, 238, 238)" id="svg_182"/>
   </g>
   <g id="svg_183"/>
   <g id="svg_184">
    <path class="xzl zl crisp" d="m119.199997,100l0,293" stroke-width="1px" stroke="rgb(68, 68, 68)" id="svg_185"/>
    <path class="yzl zl crisp" d="m80,310.549988l632,0" stroke-width="1px" stroke="rgb(68, 68, 68)" id="svg_186"/>
   </g>
   <g id="svg_187"/>
   <g id="svg_86">
    <svg preserveAspectRatio="none" x="80" y="100" width="632" height="293" viewBox="0 0 632 293" id="svg_1">
     <g class="maplayer" id="svg_85"/>
     <g class="barlayer" id="svg_84"/>
     <g class="errorlayer" id="svg_76">
      <g class="errorbars" id="svg_83"/>
      <g class="errorbars" id="svg_82"/>
      <g class="errorbars" id="svg_81"/>
      <g class="errorbars" id="svg_80"/>
      <g class="errorbars" id="svg_79"/>
      <g class="errorbars" id="svg_78"/>
      <g class="errorbars" id="svg_77"/>
     </g>
     <g class="boxlayer" id="svg_75"/>
     <g class="scatterlayer" id="svg_2">
      <g class="trace scatter" stroke-miterlimit="2" id="svg_64">
       <path class="js-line" d="m39.200001,114.480003l553.599987,112.079994" stroke-width="2px" stroke="rgb(31, 119, 180)" fill="none" id="svg_74"/>
       <g class="points" id="svg_65">
        <path class="point" d="m42.200001,114.480003a3,3 0 1 1 -3,-3a3,3 0 0 1 3,3z" fill="rgb(31, 119, 180)" stroke-width="0px" id="svg_73"/>
        <path class="point" d="m121.290001,130.490005a3,3 0 1 1 -3,-3a3,3 0 0 1 3,3z" fill="rgb(31, 119, 180)" stroke-width="0px" id="svg_72"/>
        <path class="point" d="m200.369995,146.5a3,3 0 1 1 -3,-3a3,3 0 0 1 3,3z" fill="rgb(31, 119, 180)" stroke-width="0px" id="svg_71"/>
        <path class="point" d="m279.459991,162.509995a3,3 0 1 1 -3,-3a3,3 0 0 1 3,3z" fill="rgb(31, 119, 180)" stroke-width="0px" id="svg_70"/>
        <path class="point" d="m358.540009,178.520004a3,3 0 1 1 -3,-3a3,3 0 0 1 3,3z" fill="rgb(31, 119, 180)" stroke-width="0px" id="svg_69"/>
        <path class="point" d="m437.630005,194.539993a3,3 0 1 1 -3,-3a3,3 0 0 1 3,3z" fill="rgb(31, 119, 180)" stroke-width="0px" id="svg_68"/>
        <path class="point" d="m516.710022,210.550003a3,3 0 1 1 -3,-3a3,3 0 0 1 3,3z" fill="rgb(31, 119, 180)" stroke-width="0px" id="svg_67"/>
        <path class="point" d="m595.799988,226.559998a3,3 0 1 1 -3,-3a3,3 0 0 1 3,3z" fill="rgb(31, 119, 180)" stroke-width="0px" id="svg_66"/>
       </g>
      </g>
      <g class="trace scatter" stroke-miterlimit="2" id="svg_53">
       <path class="js-line" d="m39.200001,50.419998l553.599987,224.180008" stroke-width="2px" stroke="rgb(255, 127, 14)" fill="none" id="svg_63"/>
       <g class="points" id="svg_54">
        <path class="point" d="m42.200001,50.419998a3,3 0 1 1 -3,-3a3,3 0 0 1 3,3z" fill="rgb(255, 127, 14)" stroke-width="0px" id="svg_62"/>
        <path class="point" d="m121.290001,82.449997a3,3 0 1 1 -3,-3a3,3 0 0 1 3,3z" fill="rgb(255, 127, 14)" stroke-width="0px" id="svg_61"/>
        <path class="point" d="m200.369995,114.480003a3,3 0 1 1 -3,-3a3,3 0 0 1 3,3z" fill="rgb(255, 127, 14)" stroke-width="0px" id="svg_60"/>
        <path class="point" d="m279.459991,146.5a3,3 0 1 1 -3,-3a3,3 0 0 1 3,3z" fill="rgb(255, 127, 14)" stroke-width="0px" id="svg_59"/>
        <path class="point" d="m358.540009,178.520004a3,3 0 1 1 -3,-3a3,3 0 0 1 3,3z" fill="rgb(255, 127, 14)" stroke-width="0px" id="svg_58"/>
        <path class="point" d="m437.630005,210.550003a3,3 0 1 1 -3,-3a3,3 0 0 1 3,3z" fill="rgb(255, 127, 14)" stroke-width="0px" id="svg_57"/>
        <path class="point" d="m516.710022,242.580002a3,3 0 1 1 -3,-3a3,3 0 0 1 3,3z" fill="rgb(255, 127, 14)" stroke-width="0px" id="svg_56"/>
        <path class="point" d="m595.799988,274.600006a3,3 0 1 1 -3,-3a3,3 0 0 1 3,3z" fill="rgb(255, 127, 14)" stroke-width="0px" id="svg_55"/>
       </g>
      </g>
      <g class="trace scatter" stroke-miterlimit="2" id="svg_41">
       <path class="js-fill" d="m39.200001,18.4l553.599987,0l0,64.049997l-553.599987,112.089996l0,-176.140001l0,0.000008z" fill-opacity="0.5" fill="rgb(44, 160, 44)" stroke-width="0px" id="svg_52"/>
       <path class="js-line" d="m39.200001,194.539993l553.599987,-112.089996" stroke-width="2px" stroke="rgb(44, 160, 44)" fill="none" id="svg_51"/>
       <g class="points" id="svg_42">
        <path class="point" d="m42.200001,194.539993a3,3 0 1 1 -3,-3a3,3 0 0 1 3,3z" fill="rgb(44, 160, 44)" stroke-width="0px" id="svg_50"/>
        <path class="point" d="m121.290001,178.520004a3,3 0 1 1 -3,-3a3,3 0 0 1 3,3z" fill="rgb(44, 160, 44)" stroke-width="0px" id="svg_49"/>
        <path class="point" d="m200.369995,162.509995a3,3 0 1 1 -3,-3a3,3 0 0 1 3,3z" fill="rgb(44, 160, 44)" stroke-width="0px" id="svg_48"/>
        <path class="point" d="m279.459991,146.5a3,3 0 1 1 -3,-3a3,3 0 0 1 3,3z" fill="rgb(44, 160, 44)" stroke-width="0px" id="svg_47"/>
        <path class="point" d="m358.540009,130.490005a3,3 0 1 1 -3,-3a3,3 0 0 1 3,3z" fill="rgb(44, 160, 44)" stroke-width="0px" id="svg_46"/>
        <path class="point" d="m437.630005,114.480003a3,3 0 1 1 -3,-3a3,3 0 0 1 3,3z" fill="rgb(44, 160, 44)" stroke-width="0px" id="svg_45"/>
        <path class="point" d="m516.710022,98.459999a3,3 0 1 1 -3,-3a3,3 0 0 1 3,3z" fill="rgb(44, 160, 44)" stroke-width="0px" id="svg_44"/>
        <path class="point" d="m595.799988,82.449997a3,3 0 1 1 -3,-3a3,3 0 0 1 3,3z" fill="rgb(44, 160, 44)" stroke-width="0px" id="svg_43"/>
       </g>
      </g>
      <g class="trace scatter" stroke-miterlimit="2" id="svg_30">
       <path class="js-line" d="m39.200001,18.4l553.599987,0" stroke-width="2px" stroke-opacity="0" stroke="rgb(0, 0, 0)" fill="none" id="svg_40"/>
       <g class="points" id="svg_31">
        <path class="point" d="m42.200001,18.4a3,3 0 1 1 -3,-3a3,3 0 0 1 3,3z" fill-opacity="0" fill="rgb(0, 0, 0)" stroke-width="0px" id="svg_39"/>
        <path class="point" d="m121.290001,18.4a3,3 0 1 1 -3,-3a3,3 0 0 1 3,3z" fill-opacity="0" fill="rgb(0, 0, 0)" stroke-width="0px" id="svg_38"/>
        <path class="point" d="m200.369995,18.4a3,3 0 1 1 -3,-3a3,3 0 0 1 3,3z" fill-opacity="0" fill="rgb(0, 0, 0)" stroke-width="0px" id="svg_37"/>
        <path class="point" d="m279.459991,18.4a3,3 0 1 1 -3,-3a3,3 0 0 1 3,3z" fill-opacity="0" fill="rgb(0, 0, 0)" stroke-width="0px" id="svg_36"/>
        <path class="point" d="m358.540009,18.4a3,3 0 1 1 -3,-3a3,3 0 0 1 3,3z" fill-opacity="0" fill="rgb(0, 0, 0)" stroke-width="0px" id="svg_35"/>
        <path class="point" d="m437.630005,18.4a3,3 0 1 1 -3,-3a3,3 0 0 1 3,3z" fill-opacity="0" fill="rgb(0, 0, 0)" stroke-width="0px" id="svg_34"/>
        <path class="point" d="m516.710022,18.4a3,3 0 1 1 -3,-3a3,3 0 0 1 3,3z" fill-opacity="0" fill="rgb(0, 0, 0)" stroke-width="0px" id="svg_33"/>
        <path class="point" d="m595.799988,18.4a3,3 0 1 1 -3,-3a3,3 0 0 1 3,3z" fill-opacity="0" fill="rgb(0, 0, 0)" stroke-width="0px" id="svg_32"/>
       </g>
      </g>
      <g class="trace scatter" stroke-miterlimit="2" id="svg_21">
       <path class="js-fill" d="m276.459991,18.4l316.339996,0l0,192.150003l-79.089966,0l-79.080017,-16.01001l-79.089996,-16.019989l-79.080017,-32.020004l0,-128.1z" fill-opacity="0.5" fill="rgb(0, 0, 0)" stroke-width="0px" id="svg_29"/>
       <path class="js-line" d="m276.459991,146.5l79.080017,32.020004l79.089996,16.019989l79.080017,16.01001l79.089966,0" stroke-width="2px" stroke-opacity="0" stroke="rgb(0, 0, 0)" fill="none" id="svg_28"/>
       <g class="points" id="svg_22">
        <path class="point" d="m279.459991,146.5a3,3 0 1 1 -3,-3a3,3 0 0 1 3,3z" fill-opacity="0" fill="rgb(0, 0, 0)" stroke-width="0px" id="svg_27"/>
        <path class="point" d="m358.540009,178.520004a3,3 0 1 1 -3,-3a3,3 0 0 1 3,3z" fill-opacity="0" fill="rgb(0, 0, 0)" stroke-width="0px" id="svg_26"/>
        <path class="point" d="m437.630005,194.539993a3,3 0 1 1 -3,-3a3,3 0 0 1 3,3z" fill-opacity="0" fill="rgb(0, 0, 0)" stroke-width="0px" id="svg_25"/>
        <path class="point" d="m516.710022,210.550003a3,3 0 1 1 -3,-3a3,3 0 0 1 3,3z" fill-opacity="0" fill="rgb(0, 0, 0)" stroke-width="0px" id="svg_24"/>
        <path class="point" d="m595.799988,210.550003a3,3 0 1 1 -3,-3a3,3 0 0 1 3,3z" fill-opacity="0" fill="rgb(0, 0, 0)" stroke-width="0px" id="svg_23"/>
       </g>
      </g>
      <g class="trace scatter" stroke-miterlimit="2" id="svg_13">
       <path class="js-line" d="m276.459991,18.4l316.339996,0" stroke-width="2px" stroke-opacity="0" stroke="rgb(0, 0, 0)" fill="none" id="svg_20"/>
       <g class="points" id="svg_14">
        <path class="point" d="m279.459991,18.4a3,3 0 1 1 -3,-3a3,3 0 0 1 3,3z" fill-opacity="0" fill="rgb(0, 0, 0)" stroke-width="0px" id="svg_19"/>
        <path class="point" d="m358.540009,18.4a3,3 0 1 1 -3,-3a3,3 0 0 1 3,3z" fill-opacity="0" fill="rgb(0, 0, 0)" stroke-width="0px" id="svg_18"/>
        <path class="point" d="m437.630005,18.4a3,3 0 1 1 -3,-3a3,3 0 0 1 3,3z" fill-opacity="0" fill="rgb(0, 0, 0)" stroke-width="0px" id="svg_17"/>
        <path class="point" d="m516.710022,18.4a3,3 0 1 1 -3,-3a3,3 0 0 1 3,3z" fill-opacity="0" fill="rgb(0, 0, 0)" stroke-width="0px" id="svg_16"/>
        <path class="point" d="m595.799988,18.4a3,3 0 1 1 -3,-3a3,3 0 0 1 3,3z" fill-opacity="0" fill="rgb(0, 0, 0)" stroke-width="0px" id="svg_15"/>
       </g>
      </g>
      <g class="trace scatter" stroke-miterlimit="2" id="svg_3">
       <path class="js-line" d="m276.459991,210.550003l0,-192.150009" stroke-width="2px" stroke="rgb(227, 119, 194)" fill="none" id="svg_12"/>
       <g class="points" id="svg_4">
        <path class="point" d="m279.459991,210.550003a3,3 0 1 1 -3,-3a3,3 0 0 1 3,3z" fill="rgb(227, 119, 194)" stroke-width="0px" id="svg_11"/>
        <path class="point" d="m279.459991,178.520004a3,3 0 1 1 -3,-3a3,3 0 0 1 3,3z" fill="rgb(227, 119, 194)" stroke-width="0px" id="svg_10"/>
        <path class="point" d="m279.459991,146.5a3,3 0 1 1 -3,-3a3,3 0 0 1 3,3z" fill="rgb(227, 119, 194)" stroke-width="0px" id="svg_9"/>
        <path class="point" d="m279.459991,114.480003a3,3 0 1 1 -3,-3a3,3 0 0 1 3,3z" fill="rgb(227, 119, 194)" stroke-width="0px" id="svg_8"/>
        <path class="point" d="m279.459991,82.449997a3,3 0 1 1 -3,-3a3,3 0 0 1 3,3z" fill="rgb(227, 119, 194)" stroke-width="0px" id="svg_7"/>
        <path class="point" d="m279.459991,50.419998a3,3 0 1 1 -3,-3a3,3 0 0 1 3,3z" fill="rgb(227, 119, 194)" stroke-width="0px" id="svg_6"/>
        <path class="point" d="m279.459991,18.4a3,3 0 1 1 -3,-3a3,3 0 0 1 3,3z" fill="rgb(227, 119, 194)" stroke-width="0px" id="svg_5"/>
       </g>
      </g>
     </g>
    </svg>
   </g>
   <g id="svg_273"/>
   <path class="crisp" d="m79,393.5l634,0" stroke-opacity="0" stroke="rgb(0, 0, 0)" stroke-width="1px" fill="none" id="svg_274"/>
   <path class="crisp" d="m79.5,99l0,294" stroke-width="1px" stroke-opacity="0" stroke="rgb(0, 0, 0)" fill="none" id="svg_275"/>
   <g id="svg_276"/>
   <g id="svg_277">
    <g class="xtick" id="svg_278">
     <text text-anchor="middle" x="119.200001" y="407" fill="rgb(68, 68, 68)" font-size="12px" font-family="'Open sans', verdana, arial, sans-serif" id="svg_279">0</text>
    </g>
    <g class="xtick" id="svg_280">
     <text text-anchor="middle" x="198.290001" y="407" fill="rgb(68, 68, 68)" font-size="12px" font-family="'Open sans', verdana, arial, sans-serif" id="svg_281">1</text>
    </g>
    <g class="xtick" id="svg_282">
     <text text-anchor="middle" x="277.369995" y="407" fill="rgb(68, 68, 68)" font-size="12px" font-family="'Open sans', verdana, arial, sans-serif" id="svg_283">2</text>
    </g>
    <g class="xtick" id="svg_284">
     <text text-anchor="middle" x="356.459991" y="407" fill="rgb(68, 68, 68)" font-size="12px" font-family="'Open sans', verdana, arial, sans-serif" id="svg_285">3</text>
    </g>
    <g class="xtick" id="svg_286">
     <text text-anchor="middle" x="435.540009" y="407" fill="rgb(68, 68, 68)" font-size="12px" font-family="'Open sans', verdana, arial, sans-serif" id="svg_287">4</text>
    </g>
    <g class="xtick" id="svg_288">
     <text text-anchor="middle" x="514.630005" y="407" fill="rgb(68, 68, 68)" font-size="12px" font-family="'Open sans', verdana, arial, sans-serif" id="svg_289">5</text>
    </g>
    <g class="xtick" id="svg_290">
     <text text-anchor="middle" x="593.710022" y="407" fill="rgb(68, 68, 68)" font-size="12px" font-family="'Open sans', verdana, arial, sans-serif" id="svg_291">6</text>
    </g>
    <g class="xtick" id="svg_292">
     <text text-anchor="middle" x="672.799988" y="407" fill="rgb(68, 68, 68)" font-size="12px" font-family="'Open sans', verdana, arial, sans-serif" id="svg_293">7</text>
    </g>
   </g>
   <g id="svg_294">
    <g class="ytick" id="svg_295">
     <text text-anchor="end" x="78" y="380.600006" fill="rgb(68, 68, 68)" font-size="12px" font-family="'Open sans', verdana, arial, sans-serif" id="svg_296">−2</text>
    </g>
    <g class="ytick" id="svg_297">
     <text text-anchor="end" x="78" y="316.550003" fill="rgb(68, 68, 68)" font-size="12px" font-family="'Open sans', verdana, arial, sans-serif" id="svg_298">0</text>
    </g>
    <g class="ytick" id="svg_299">
     <text text-anchor="end" x="78" y="252.5" fill="rgb(68, 68, 68)" font-size="12px" font-family="'Open sans', verdana, arial, sans-serif" id="svg_300">2</text>
    </g>
    <g class="ytick" id="svg_301">
     <text text-anchor="end" x="78" y="188.449997" fill="rgb(68, 68, 68)" font-size="12px" font-family="'Open sans', verdana, arial, sans-serif" id="svg_302">4</text>
    </g>
    <g class="ytick" id="svg_303">
     <text text-anchor="end" x="78" y="124.4" fill="rgb(68, 68, 68)" font-size="12px" font-family="'Open sans', verdana, arial, sans-serif" id="svg_304">6</text>
    </g>
   </g>
   <g id="svg_305"/>
  </g>
  <g class="shapelayer" id="svg_306"/>
  <g class="glimages" id="svg_307"/>
  <text class="js-plot-link-container" y="464" text-anchor="end" x="862" fill="rgb(68, 68, 68)" font-size="12px" font-family="'Open Sans', Arial, sans-serif" id="svg_308"/>
 </g>
</svg>