<?xml version="1.0" encoding="UTF-8"?>
<svg width="869" height="473" xmlns="http://www.w3.org/2000/svg" xmlns:svg="http://www.w3.org/2000/svg" class="main-svg">
 <defs>
  <g class="clips" id="svg_314">
   <clipPath class="axesclip" id="clipf01925x">
    <rect x="80" y="0" width="632" height="473" id="svg_315"/>
   </clipPath>
   <clipPath class="axesclip" id="clipf01925y">
    <rect x="0" y="100" width="869" height="293" id="svg_316"/>
   </clipPath>
   <clipPath class="axesclip" id="clipf01925xy">
    <rect x="80" y="100" width="632" height="293" id="svg_317"/>
   </clipPath>
  </g>
 </defs>
 <g>
  <title>Layer 1</title>
  <rect x="0" y="0" width="869" height="473" fill="rgb(255, 255, 255)" id="svg_318"/>
  <g class="draglayer" id="svg_319">
   <g id="svg_320"/>
  </g>
  <g class="subplot xy" id="svg_321">
   <rect x="80" y="100" width="632" height="293" fill="rgb(255, 255, 255)" stroke-width="0px" id="svg_322"/>
   <g id="svg_323">
    <path class="xgrid crisp" d="m198.290009,100l0,293" stroke-width="1px" stroke="rgb(238, 238, 238)" id="svg_324"/>
    <path class="xgrid crisp" d="m277.369995,100l0,293" stroke-width="1px" stroke="rgb(238, 238, 238)" id="svg_325"/>
    <path class="xgrid crisp" d="m356.459991,100l0,293" stroke-width="1px" stroke="rgb(238, 238, 238)" id="svg_326"/>
    <path class="xgrid crisp" d="m435.540009,100l0,293" stroke-width="1px" stroke="rgb(238, 238, 238)" id="svg_327"/>
    <path class="xgrid crisp" d="m514.630005,100l0,293" stroke-width="1px" stroke="rgb(238, 238, 238)" id="svg_328"/>
    <path class="xgrid crisp" d="m593.710022,100l0,293" stroke-width="1px" stroke="rgb(238, 238, 238)" id="svg_329"/>
    <path class="xgrid crisp" d="m672.799988,100l0,293" stroke-width="1px" stroke="rgb(238, 238, 238)" id="svg_330"/>
    <path class="ygrid crisp" d="m80,374.600006l632,0" stroke-width="1px" stroke="rgb(238, 238, 238)" id="svg_331"/>
    <path class="ygrid crisp" d="m80,246.5l632,0" stroke-width="1px" stroke="rgb(238, 238, 238)" id="svg_332"/>
    <path class="ygrid crisp" d="m80,182.449997l632,0" stroke-width="1px" stroke="rgb(238, 238, 238)" id="svg_333"/>
    <path class="ygrid crisp" d="m80,118.400002l632,0" stroke-width="1px" stroke="rgb(238, 238, 238)" id="svg_334"/>
   </g>
   <g id="svg_335"/>
   <g id="svg_336">
    <path class="xzl zl crisp" d="m119.199997,100l0,293" stroke-width="1px" stroke="rgb(68, 68, 68)" id="svg_337"/>
    <path class="yzl zl crisp" d="m80,310.549988l632,0" stroke-width="1px" stroke="rgb(68, 68, 68)" id="svg_338"/>
   </g>
   <g id="svg_339"/>
   <g id="svg_1">
    <svg preserveAspectRatio="none" x="80" y="100" width="632" height="293" viewBox="0 0 632 293" id="svg_2">
     <g class="maplayer" id="svg_86"/>
     <g class="barlayer" id="svg_85"/>
     <g class="errorlayer" id="svg_77">
      <g class="errorbars" id="svg_84"/>
      <g class="errorbars" id="svg_83"/>
      <g class="errorbars" id="svg_82"/>
      <g class="errorbars" id="svg_81"/>
      <g class="errorbars" id="svg_80"/>
      <g class="errorbars" id="svg_79"/>
      <g class="errorbars" id="svg_78"/>
     </g>
     <g class="boxlayer" id="svg_76"/>
     <g class="scatterlayer" id="svg_3">
      <g class="trace scatter" stroke-miterlimit="2" id="svg_65">
       <path class="js-line" d="m39.200001,114.480003l553.599987,112.079994" stroke-width="2px" stroke="rgb(31, 119, 180)" fill="none" id="svg_75"/>
       <g class="points" id="svg_66">
        <path class="point" d="m42.200001,114.480003a3,3 0 1 1 -3,-3a3,3 0 0 1 3,3z" fill="rgb(31, 119, 180)" stroke-width="0px" id="svg_74"/>
        <path class="point" d="m121.290001,130.490005a3,3 0 1 1 -3,-3a3,3 0 0 1 3,3z" fill="rgb(31, 119, 180)" stroke-width="0px" id="svg_73"/>
        <path class="point" d="m200.369995,146.5a3,3 0 1 1 -3,-3a3,3 0 0 1 3,3z" fill="rgb(31, 119, 180)" stroke-width="0px" id="svg_72"/>
        <path class="point" d="m279.459991,162.509995a3,3 0 1 1 -3,-3a3,3 0 0 1 3,3z" fill="rgb(31, 119, 180)" stroke-width="0px" id="svg_71"/>
        <path class="point" d="m358.540009,178.520004a3,3 0 1 1 -3,-3a3,3 0 0 1 3,3z" fill="rgb(31, 119, 180)" stroke-width="0px" id="svg_70"/>
        <path class="point" d="m437.630005,194.539993a3,3 0 1 1 -3,-3a3,3 0 0 1 3,3z" fill="rgb(31, 119, 180)" stroke-width="0px" id="svg_69"/>
        <path class="point" d="m516.710022,210.550003a3,3 0 1 1 -3,-3a3,3 0 0 1 3,3z" fill="rgb(31, 119, 180)" stroke-width="0px" id="svg_68"/>
        <path class="point" d="m595.799988,226.559998a3,3 0 1 1 -3,-3a3,3 0 0 1 3,3z" fill="rgb(31, 119, 180)" stroke-width="0px" id="svg_67"/>
       </g>
      </g>
      <g class="trace scatter" stroke-miterlimit="2" id="svg_54">
       <path class="js-line" d="m39.200001,50.419998l553.599987,224.180008" stroke-width="2px" stroke="rgb(255, 127, 14)" fill="none" id="svg_64"/>
       <g class="points" id="svg_55">
        <path class="point" d="m42.200001,50.419998a3,3 0 1 1 -3,-3a3,3 0 0 1 3,3z" fill="rgb(255, 127, 14)" stroke-width="0px" id="svg_63"/>
        <path class="point" d="m121.290001,82.449997a3,3 0 1 1 -3,-3a3,3 0 0 1 3,3z" fill="rgb(255, 127, 14)" stroke-width="0px" id="svg_62"/>
        <path class="point" d="m200.369995,114.480003a3,3 0 1 1 -3,-3a3,3 0 0 1 3,3z" fill="rgb(255, 127, 14)" stroke-width="0px" id="svg_61"/>
        <path class="point" d="m279.459991,146.5a3,3 0 1 1 -3,-3a3,3 0 0 1 3,3z" fill="rgb(255, 127, 14)" stroke-width="0px" id="svg_60"/>
        <path class="point" d="m358.540009,178.520004a3,3 0 1 1 -3,-3a3,3 0 0 1 3,3z" fill="rgb(255, 127, 14)" stroke-width="0px" id="svg_59"/>
        <path class="point" d="m437.630005,210.550003a3,3 0 1 1 -3,-3a3,3 0 0 1 3,3z" fill="rgb(255, 127, 14)" stroke-width="0px" id="svg_58"/>
        <path class="point" d="m516.710022,242.580002a3,3 0 1 1 -3,-3a3,3 0 0 1 3,3z" fill="rgb(255, 127, 14)" stroke-width="0px" id="svg_57"/>
        <path class="point" d="m595.799988,274.600006a3,3 0 1 1 -3,-3a3,3 0 0 1 3,3z" fill="rgb(255, 127, 14)" stroke-width="0px" id="svg_56"/>
       </g>
      </g>
      <g class="trace scatter" stroke-miterlimit="2" id="svg_42">
       <path class="js-fill" d="m39.200001,194.539993l553.599987,-112.089996l0,128.100006l-553.599987,0l0,-16.01001z" fill-opacity="0.5" fill="rgb(44, 160, 44)" stroke-width="0px" id="svg_53"/>
       <path class="js-line" d="m39.200001,194.539993l553.599987,-112.089996" stroke-width="2px" stroke="rgb(44, 160, 44)" fill="none" id="svg_52"/>
       <g class="points" id="svg_43">
        <path class="point" d="m42.200001,194.539993a3,3 0 1 1 -3,-3a3,3 0 0 1 3,3z" fill="rgb(44, 160, 44)" stroke-width="0px" id="svg_51"/>
        <path class="point" d="m121.290001,178.520004a3,3 0 1 1 -3,-3a3,3 0 0 1 3,3z" fill="rgb(44, 160, 44)" stroke-width="0px" id="svg_50"/>
        <path class="point" d="m200.369995,162.509995a3,3 0 1 1 -3,-3a3,3 0 0 1 3,3z" fill="rgb(44, 160, 44)" stroke-width="0px" id="svg_49"/>
        <path class="point" d="m279.459991,146.5a3,3 0 1 1 -3,-3a3,3 0 0 1 3,3z" fill="rgb(44, 160, 44)" stroke-width="0px" id="svg_48"/>
        <path class="point" d="m358.540009,130.490005a3,3 0 1 1 -3,-3a3,3 0 0 1 3,3z" fill="rgb(44, 160, 44)" stroke-width="0px" id="svg_47"/>
        <path class="point" d="m437.630005,114.480003a3,3 0 1 1 -3,-3a3,3 0 0 1 3,3z" fill="rgb(44, 160, 44)" stroke-width="0px" id="svg_46"/>
        <path class="point" d="m516.710022,98.459999a3,3 0 1 1 -3,-3a3,3 0 0 1 3,3z" fill="rgb(44, 160, 44)" stroke-width="0px" id="svg_45"/>
        <path class="point" d="m595.799988,82.449997a3,3 0 1 1 -3,-3a3,3 0 0 1 3,3z" fill="rgb(44, 160, 44)" stroke-width="0px" id="svg_44"/>
       </g>
      </g>
      <g class="trace scatter" stroke-miterlimit="2" id="svg_31">
       <path class="js-line" d="m39.200001,18.4l553.599987,0" stroke-width="2px" stroke-opacity="0" stroke="rgb(0, 0, 0)" fill="none" id="svg_41"/>
       <g class="points" id="svg_32">
        <path class="point" d="m42.200001,18.4a3,3 0 1 1 -3,-3a3,3 0 0 1 3,3z" fill-opacity="0" fill="rgb(0, 0, 0)" stroke-width="0px" id="svg_40"/>
        <path class="point" d="m121.290001,18.4a3,3 0 1 1 -3,-3a3,3 0 0 1 3,3z" fill-opacity="0" fill="rgb(0, 0, 0)" stroke-width="0px" id="svg_39"/>
        <path class="point" d="m200.369995,18.4a3,3 0 1 1 -3,-3a3,3 0 0 1 3,3z" fill-opacity="0" fill="rgb(0, 0, 0)" stroke-width="0px" id="svg_38"/>
        <path class="point" d="m279.459991,18.4a3,3 0 1 1 -3,-3a3,3 0 0 1 3,3z" fill-opacity="0" fill="rgb(0, 0, 0)" stroke-width="0px" id="svg_37"/>
        <path class="point" d="m358.540009,18.4a3,3 0 1 1 -3,-3a3,3 0 0 1 3,3z" fill-opacity="0" fill="rgb(0, 0, 0)" stroke-width="0px" id="svg_36"/>
        <path class="point" d="m437.630005,18.4a3,3 0 1 1 -3,-3a3,3 0 0 1 3,3z" fill-opacity="0" fill="rgb(0, 0, 0)" stroke-width="0px" id="svg_35"/>
        <path class="point" d="m516.710022,18.4a3,3 0 1 1 -3,-3a3,3 0 0 1 3,3z" fill-opacity="0" fill="rgb(0, 0, 0)" stroke-width="0px" id="svg_34"/>
        <path class="point" d="m595.799988,18.4a3,3 0 1 1 -3,-3a3,3 0 0 1 3,3z" fill-opacity="0" fill="rgb(0, 0, 0)" stroke-width="0px" id="svg_33"/>
       </g>
      </g>
      <g class="trace scatter" stroke-miterlimit="2" id="svg_22">
       <path class="js-fill" d="m276.459991,18.4l316.339996,0l0,192.150003l-79.089966,0l-79.080017,-16.01001l-79.089996,-16.019989l-79.080017,-32.020004l0,-128.1z" fill-opacity="0.5" fill="rgb(0, 0, 0)" stroke-width="0px" id="svg_30"/>
       <path class="js-line" d="m276.459991,146.5l79.080017,32.020004l79.089996,16.019989l79.080017,16.01001l79.089966,0" stroke-width="2px" stroke-opacity="0" stroke="rgb(0, 0, 0)" fill="none" id="svg_29"/>
       <g class="points" id="svg_23">
        <path class="point" d="m279.459991,146.5a3,3 0 1 1 -3,-3a3,3 0 0 1 3,3z" fill-opacity="0" fill="rgb(0, 0, 0)" stroke-width="0px" id="svg_28"/>
        <path class="point" d="m358.540009,178.520004a3,3 0 1 1 -3,-3a3,3 0 0 1 3,3z" fill-opacity="0" fill="rgb(0, 0, 0)" stroke-width="0px" id="svg_27"/>
        <path class="point" d="m437.630005,194.539993a3,3 0 1 1 -3,-3a3,3 0 0 1 3,3z" fill-opacity="0" fill="rgb(0, 0, 0)" stroke-width="0px" id="svg_26"/>
        <path class="point" d="m516.710022,210.550003a3,3 0 1 1 -3,-3a3,3 0 0 1 3,3z" fill-opacity="0" fill="rgb(0, 0, 0)" stroke-width="0px" id="svg_25"/>
        <path class="point" d="m595.799988,210.550003a3,3 0 1 1 -3,-3a3,3 0 0 1 3,3z" fill-opacity="0" fill="rgb(0, 0, 0)" stroke-width="0px" id="svg_24"/>
       </g>
      </g>
      <g class="trace scatter" stroke-miterlimit="2" id="svg_14">
       <path class="js-line" d="m276.459991,18.4l316.339996,0" stroke-width="2px" stroke-opacity="0" stroke="rgb(0, 0, 0)" fill="none" id="svg_21"/>
       <g class="points" id="svg_15">
        <path class="point" d="m279.459991,18.4a3,3 0 1 1 -3,-3a3,3 0 0 1 3,3z" fill-opacity="0" fill="rgb(0, 0, 0)" stroke-width="0px" id="svg_20"/>
        <path class="point" d="m358.540009,18.4a3,3 0 1 1 -3,-3a3,3 0 0 1 3,3z" fill-opacity="0" fill="rgb(0, 0, 0)" stroke-width="0px" id="svg_19"/>
        <path class="point" d="m437.630005,18.4a3,3 0 1 1 -3,-3a3,3 0 0 1 3,3z" fill-opacity="0" fill="rgb(0, 0, 0)" stroke-width="0px" id="svg_18"/>
        <path class="point" d="m516.710022,18.4a3,3 0 1 1 -3,-3a3,3 0 0 1 3,3z" fill-opacity="0" fill="rgb(0, 0, 0)" stroke-width="0px" id="svg_17"/>
        <path class="point" d="m595.799988,18.4a3,3 0 1 1 -3,-3a3,3 0 0 1 3,3z" fill-opacity="0" fill="rgb(0, 0, 0)" stroke-width="0px" id="svg_16"/>
       </g>
      </g>
      <g class="trace scatter" stroke-miterlimit="2" id="svg_4">
       <path class="js-line" d="m276.459991,210.550003l0,-192.150009" stroke-width="2px" stroke="rgb(227, 119, 194)" fill="none" id="svg_13"/>
       <g class="points" id="svg_5">
        <path class="point" d="m279.459991,210.550003a3,3 0 1 1 -3,-3a3,3 0 0 1 3,3z" fill="rgb(227, 119, 194)" stroke-width="0px" id="svg_12"/>
        <path class="point" d="m279.459991,178.520004a3,3 0 1 1 -3,-3a3,3 0 0 1 3,3z" fill="rgb(227, 119, 194)" stroke-width="0px" id="svg_11"/>
        <path class="point" d="m279.459991,146.5a3,3 0 1 1 -3,-3a3,3 0 0 1 3,3z" fill="rgb(227, 119, 194)" stroke-width="0px" id="svg_10"/>
        <path class="point" d="m279.459991,114.480003a3,3 0 1 1 -3,-3a3,3 0 0 1 3,3z" fill="rgb(227, 119, 194)" stroke-width="0px" id="svg_9"/>
        <path class="point" d="m279.459991,82.449997a3,3 0 1 1 -3,-3a3,3 0 0 1 3,3z" fill="rgb(227, 119, 194)" stroke-width="0px" id="svg_8"/>
        <path class="point" d="m279.459991,50.419998a3,3 0 1 1 -3,-3a3,3 0 0 1 3,3z" fill="rgb(227, 119, 194)" stroke-width="0px" id="svg_7"/>
        <path class="point" d="m279.459991,18.4a3,3 0 1 1 -3,-3a3,3 0 0 1 3,3z" fill="rgb(227, 119, 194)" stroke-width="0px" id="svg_6"/>
       </g>
      </g>
     </g>
    </svg>
   </g>
   <g id="svg_425"/>
   <path class="crisp" d="m79,393.5l634,0" stroke-opacity="0" stroke="rgb(0, 0, 0)" stroke-width="1px" fill="none" id="svg_426"/>
   <path class="crisp" d="m79.5,99l0,294" stroke-width="1px" stroke-opacity="0" stroke="rgb(0, 0, 0)" fill="none" id="svg_427"/>
   <g id="svg_428"/>
   <g id="svg_429">
    <g class="xtick" id="svg_430">
     <text text-anchor="middle" x="119.200001" y="407" fill="rgb(68, 68, 68)" font-size="12px" font-family="'Open sans', verdana, arial, sans-serif" id="svg_431">0</text>
    </g>
    <g class="xtick" id="svg_432">
     <text text-anchor="middle" x="198.290001" y="407" fill="rgb(68, 68, 68)" font-size="12px" font-family="'Open sans', verdana, arial, sans-serif" id="svg_433">1</text>
    </g>
    <g class="xtick" id="svg_434">
     <text text-anchor="middle" x="277.369995" y="407" fill="rgb(68, 68, 68)" font-size="12px" font-family="'Open sans', verdana, arial, sans-serif" id="svg_435">2</text>
    </g>
    <g class="xtick" id="svg_436">
     <text text-anchor="middle" x="356.459991" y="407" fill="rgb(68, 68, 68)" font-size="12px" font-family="'Open sans', verdana, arial, sans-serif" id="svg_437">3</text>
    </g>
    <g class="xtick" id="svg_438">
     <text text-anchor="middle" x="435.540009" y="407" fill="rgb(68, 68, 68)" font-size="12px" font-family="'Open sans', verdana, arial, sans-serif" id="svg_439">4</text>
    </g>
    <g class="xtick" id="svg_440">
     <text text-anchor="middle" x="514.630005" y="407" fill="rgb(68, 68, 68)" font-size="12px" font-family="'Open sans', verdana, arial, sans-serif" id="svg_441">5</text>
    </g>
    <g class="xtick" id="svg_442">
     <text text-anchor="middle" x="593.710022" y="407" fill="rgb(68, 68, 68)" font-size="12px" font-family="'Open sans', verdana, arial, sans-serif" id="svg_443">6</text>
    </g>
    <g class="xtick" id="svg_444">
     <text text-anchor="middle" x="672.799988" y="407" fill="rgb(68, 68, 68)" font-size="12px" font-family="'Open sans', verdana, arial, sans-serif" id="svg_445">7</text>
    </g>
   </g>
   <g id="svg_446">
    <g class="ytick" id="svg_447">
     <text text-anchor="end" x="78" y="380.600006" fill="rgb(68, 68, 68)" font-size="12px" font-family="'Open sans', verdana, arial, sans-serif" id="svg_448">−2</text>
    </g>
    <g class="ytick" id="svg_449">
     <text text-anchor="end" x="78" y="316.550003" fill="rgb(68, 68, 68)" font-size="12px" font-family="'Open sans', verdana, arial, sans-serif" id="svg_450">0</text>
    </g>
    <g class="ytick" id="svg_451">
     <text text-anchor="end" x="78" y="252.5" fill="rgb(68, 68, 68)" font-size="12px" font-family="'Open sans', verdana, arial, sans-serif" id="svg_452">2</text>
    </g>
    <g class="ytick" id="svg_453">
     <text text-anchor="end" x="78" y="188.449997" fill="rgb(68, 68, 68)" font-size="12px" font-family="'Open sans', verdana, arial, sans-serif" id="svg_454">4</text>
    </g>
    <g class="ytick" id="svg_455">
     <text text-anchor="end" x="78" y="124.4" fill="rgb(68, 68, 68)" font-size="12px" font-family="'Open sans', verdana, arial, sans-serif" id="svg_456">6</text>
    </g>
   </g>
   <g id="svg_457"/>
  </g>
  <g class="shapelayer" id="svg_458"/>
  <g class="glimages" id="svg_459"/>
  <text class="js-plot-link-container" y="464" text-anchor="end" x="862" fill="rgb(68, 68, 68)" font-size="12px" font-family="'Open Sans', Arial, sans-serif" id="svg_460"/>
 </g>
</svg>