<?xml version="1.0"?>
<svg width="766" height="454" xmlns="http://www.w3.org/2000/svg" xmlns:svg="http://www.w3.org/2000/svg" class="main-svg">
 <defs>
  <g class="clips" id="svg_3">
   <clipPath class="axesclip" id="clipdb1d32x">
    <rect x="0" y="0" width="766" height="454" id="svg_4"/>
   </clipPath>
   <clipPath class="axesclip" id="clipdb1d32y">
    <rect x="0" y="0" width="766" height="454" id="svg_5"/>
   </clipPath>
   <clipPath class="axesclip" id="clipdb1d32xy">
    <rect x="0" y="0" width="766" height="454" id="svg_6"/>
   </clipPath>
  </g>
  <pattern height="100" width="100" y="0" x="0" patternUnits="userSpaceOnUse" id="gridpattern">
   <image height="100" width="100" y="0" x="0"/>
  </pattern>
 </defs>
 <g>
  <title>Layer 1</title>
  <rect x="0" y="0" width="766" height="454" fill-opacity="0" fill="rgb(0, 0, 0)" id="svg_7"/>
  <g class="draglayer" id="svg_8">
   <g id="svg_9"/>
  </g>
  <g class="subplot xy" id="svg_10">
   <rect x="1" y="1" width="766" height="454" fill-opacity="0" fill="rgb(0, 0, 0)" stroke-width="0px" id="svg_11"/>
   <g id="svg_12">
    <path class="xgrid crisp" d="m96.75,1l0,454" stroke-width="1px" stroke="rgb(238, 238, 238)" id="svg_13"/>
    <path class="xgrid crisp" d="m192.5,1l0,454" stroke-width="1px" stroke="rgb(238, 238, 238)" id="svg_14"/>
    <path class="xgrid crisp" d="m288.25,1l0,454" stroke-width="1px" stroke="rgb(238, 238, 238)" id="svg_15"/>
    <path class="xgrid crisp" d="m479.75,1l0,454" stroke-width="1px" stroke="rgb(238, 238, 238)" id="svg_16"/>
    <path class="xgrid crisp" d="m575.5,1l0,454" stroke-width="1px" stroke="rgb(238, 238, 238)" id="svg_17"/>
    <path class="xgrid crisp" d="m671.25,1l0,454" stroke-width="1px" stroke="rgb(238, 238, 238)" id="svg_18"/>
    <path class="ygrid crisp" d="m1,432.299988l766,0" stroke-width="1px" stroke="rgb(238, 238, 238)" id="svg_19"/>
    <path class="ygrid crisp" d="m1,356.869995l766,0" stroke-width="1px" stroke="rgb(238, 238, 238)" id="svg_20"/>
    <path class="ygrid crisp" d="m1,206.009995l766,0" stroke-width="1px" stroke="rgb(238, 238, 238)" id="svg_21"/>
    <path class="ygrid crisp" d="m1,130.580002l766,0" stroke-width="1px" stroke="rgb(238, 238, 238)" id="svg_22"/>
    <path class="ygrid crisp" d="m1,55.150002l766,0" stroke-width="1px" stroke="rgb(238, 238, 238)" id="svg_23"/>
   </g>
   <g id="svg_24"/>
   <g id="svg_25">
    <path class="xzl zl crisp" d="m384,1l0,454" stroke-width="1px" stroke="rgb(68, 68, 68)" id="svg_26"/>
    <path class="yzl zl crisp" d="m1,281.440002l766,0" stroke-width="1px" stroke="rgb(68, 68, 68)" id="svg_27"/>
   </g>
   <g id="svg_28"/>
   <svg preserveAspectRatio="none" x="1" y="1" width="766" height="454" viewBox="0 0 766 454" id="svg_89">
    <g class="maplayer" id="svg_100"/>
    <g class="barlayer" id="svg_99"/>
    <g class="errorlayer" id="svg_96">
     <g class="errorbars" id="svg_98"/>
     <g class="errorbars" id="svg_97"/>
    </g>
    <g class="boxlayer" id="svg_95"/>
    <g class="scatterlayer" id="svg_90">
     <g class="trace scatter" stroke-miterlimit="2" id="svg_93">
      <path class="js-line" d="m766,280.440002l-19.98999,-0.98999l-14.98999,-1.330017l-40.170044,-5.199982l-24.130005,-4.120026l-53.189941,-11.569977l-27.730042,-7.420013l-27.599976,-8.440002l-26.840027,-9.319992l-25.5,-10.050003l-23.669983,-10.570007l-21.410004,-10.869995l-18.859985,-10.920013l-16.100006,-10.720001l-13.26001,-10.229996l-10.450012,-9.5l-7.809998,-8.520004l-8.779999,-13.209976l-1.769989,-4.340012l-0.75,-3.539993l-0.089996,0.889999l-0.660004,2.649994l-5.140015,10.240005l-5.409973,7.309998l-7.809998,8.520004l-10.450012,9.5l-13.26001,10.229996l-16.100006,10.720001l-18.859985,10.919998l-21.410004,10.869995l-23.669983,10.570023l-25.500015,10.049988l-26.839996,9.319992l-27.600006,8.440002l-54.930008,13.76001l-25.989998,5.22998l-45.75,7.190002l-18.549992,2.130005l-34.98,2.320007l2.26,0.040009l6.73,0.259979l25.99,2.02002l18.549992,2.130005l45.75,7.199982l25.989998,5.220001l54.930008,13.769989l27.600006,8.430023l26.839996,9.319977l25.500015,10.050018l23.669983,10.570007l21.410004,10.869995l18.859985,10.929993l16.100006,10.709991l13.26001,10.240021l10.450012,9.5l13.219971,15.819977l3.370026,5.900024l2.519989,7.879974l0.089996,-0.889984l0.660004,-2.649994l5.140015,-10.240021l5.409973,-7.299988l7.809998,-8.519989l10.450012,-9.5l13.26001,-10.240021l16.100006,-10.709991l18.859985,-10.929993l21.410004,-10.869995l23.669983,-10.570007l25.5,-10.050018l26.840027,-9.319977l27.599976,-8.430023l54.929993,-13.769989l25.98999,-5.220001l45.75,-7.199982l18.550049,-2.130005l34.97998,-2.320007" stroke-width="4px" stroke="rgb(31, 119, 180)" fill="none" id="svg_94"/>
     </g>
     <g class="trace scatter" stroke-miterlimit="2" id="svg_91">
      <path class="js-line" d="m766,324.420013l-766,-301.720003l766,301.720003" stroke-width="3px" stroke-dasharray="3px, 3px" stroke="rgb(255, 127, 14)" fill="none" id="svg_92"/>
     </g>
    </g>
   </svg>
   <g id="svg_41"/>
   <path class="crisp" d="m0,455.5l768,0" stroke-opacity="0" stroke="rgb(0, 0, 0)" stroke-width="1px" fill="none" id="svg_42"/>
   <path class="crisp" d="m0.5,0l0,455" stroke-width="1px" stroke-opacity="0" stroke="rgb(0, 0, 0)" fill="none" id="svg_43"/>
   <g id="svg_44"/>
   <g id="svg_45">
    <g class="xtick" id="svg_46">
     <text text-anchor="middle" x="1" y="469" fill="rgb(68, 68, 68)" font-size="12px" font-family="&#x27;Open sans', verdana, arial, sans-serif" id="svg_47">−2</text>
    </g>
    <g class="xtick" id="svg_48">
     <text text-anchor="middle" x="96.75" y="469" fill="rgb(68, 68, 68)" font-size="12px" font-family="&#x27;Open sans', verdana, arial, sans-serif" id="svg_49">−1.5</text>
    </g>
    <g class="xtick" id="svg_50">
     <text text-anchor="middle" x="192.5" y="469" fill="rgb(68, 68, 68)" font-size="12px" font-family="&#x27;Open sans', verdana, arial, sans-serif" id="svg_51">−1</text>
    </g>
    <g class="xtick" id="svg_52">
     <text text-anchor="middle" x="288.25" y="469" fill="rgb(68, 68, 68)" font-size="12px" font-family="&#x27;Open sans', verdana, arial, sans-serif" id="svg_53">−0.5</text>
    </g>
    <g class="xtick" id="svg_54">
     <text text-anchor="middle" x="384" y="469" fill="rgb(68, 68, 68)" font-size="12px" font-family="&#x27;Open sans', verdana, arial, sans-serif" id="svg_55">0</text>
    </g>
    <g class="xtick" id="svg_56">
     <text text-anchor="middle" x="479.75" y="469" fill="rgb(68, 68, 68)" font-size="12px" font-family="&#x27;Open sans', verdana, arial, sans-serif" id="svg_57">0.5</text>
    </g>
    <g class="xtick" id="svg_58">
     <text text-anchor="middle" x="575.5" y="469" fill="rgb(68, 68, 68)" font-size="12px" font-family="&#x27;Open sans', verdana, arial, sans-serif" id="svg_59">1</text>
    </g>
    <g class="xtick" id="svg_60">
     <text text-anchor="middle" x="671.25" y="469" fill="rgb(68, 68, 68)" font-size="12px" font-family="&#x27;Open sans', verdana, arial, sans-serif" id="svg_61">1.5</text>
    </g>
    <g class="xtick" id="svg_62">
     <text text-anchor="middle" x="767" y="469" fill="rgb(68, 68, 68)" font-size="12px" font-family="&#x27;Open sans', verdana, arial, sans-serif" id="svg_63">2</text>
    </g>
   </g>
   <g id="svg_64">
    <g class="ytick" id="svg_65">
     <text text-anchor="end" x="-1" y="438.29999" fill="rgb(68, 68, 68)" font-size="12px" font-family="&#x27;Open sans', verdana, arial, sans-serif" id="svg_66">−2</text>
    </g>
    <g class="ytick" id="svg_67">
     <text text-anchor="end" x="-1" y="362.87" fill="rgb(68, 68, 68)" font-size="12px" font-family="&#x27;Open sans', verdana, arial, sans-serif" id="svg_68">−1</text>
    </g>
    <g class="ytick" id="svg_69">
     <text text-anchor="end" x="-1" y="287.44" fill="rgb(68, 68, 68)" font-size="12px" font-family="&#x27;Open sans', verdana, arial, sans-serif" id="svg_70">0</text>
    </g>
    <g class="ytick" id="svg_71">
     <text text-anchor="end" x="-1" y="212.00999" fill="rgb(68, 68, 68)" font-size="12px" font-family="&#x27;Open sans', verdana, arial, sans-serif" id="svg_72">1</text>
    </g>
    <g class="ytick" id="svg_73">
     <text text-anchor="end" x="-1" y="136.58" fill="rgb(68, 68, 68)" font-size="12px" font-family="&#x27;Open sans', verdana, arial, sans-serif" id="svg_74">2</text>
    </g>
    <g class="ytick" id="svg_75">
     <text text-anchor="end" x="-1" y="61.15" fill="rgb(68, 68, 68)" font-size="12px" font-family="&#x27;Open sans', verdana, arial, sans-serif" id="svg_76">3</text>
    </g>
   </g>
   <g id="svg_77"/>
  </g>
  <g class="shapelayer" id="svg_78"/>
  <g class="glimages" id="svg_79"/>
  <text class="js-plot-link-container" y="445" text-anchor="end" x="759" fill="rgb(68, 68, 68)" font-size="12px" font-family="&#x27;Open Sans', Arial, sans-serif" id="svg_80"/>
  <g class="infolayer" id="svg_81">
   <g class="g-gtitle" id="svg_82"/>
   <g class="g-xtitle" id="svg_83"/>
   <g class="g-ytitle" id="svg_84"/>
   <g class="annotation" id="svg_85">
    <g class="annotation-text-g" id="svg_2">
     <svg x="517" y="186" width="22" height="42" id="svg_101">
      <rect class="bg" x="0.5" y="0.5" width="21" height="41" fill-opacity="0" fill="rgb(0, 0, 0)" stroke-opacity="0" stroke="rgb(0, 0, 0)" stroke-width="1px" id="svg_103"/>
      <text class="annotation" text-anchor="middle" x="11.21875" y="32" fill="rgb(68, 68, 68)" font-size="32px" font-family="&#x27;Droid Sans', sans-serif" id="svg_102">P</text>
     </svg>
    </g>
   </g>
  </g>
  <line stroke="#007f3f" fill-opacity="0" id="svg_104" y2="399" x2="428" y1="48.000014" x1="583.000001" stroke-width="3" fill="none"/>
 </g>
</svg>