<?xml version="1.0"?>
<svg width="781" height="473" xmlns="http://www.w3.org/2000/svg" xmlns:svg="http://www.w3.org/2000/svg" xmlns:xlink="http://www.w3.org/1999/xlink" class="main-svg">
 <defs>
  <g id="svg_392" class="clips">
   <clipPath id="clip04b49cx" class="axesclip">
    <rect id="svg_393" height="473" width="781" y="0" x="0"/>
   </clipPath>
   <clipPath id="clip04b49cy" class="axesclip">
    <rect id="svg_394" height="473" width="781" y="0" x="0"/>
   </clipPath>
   <clipPath id="clip04b49cxy" class="axesclip">
    <rect id="svg_395" height="473" width="781" y="0" x="0"/>
   </clipPath>
  </g>
 </defs>
 <g>
  <title>Layer 1</title>
  <rect id="svg_396" fill="rgb(0, 0, 0)" fill-opacity="0" height="473" width="781" y="0" x="0"/>
  <g id="svg_397" class="draglayer">
   <g id="svg_398"/>
  </g>
  <g id="svg_399" class="subplot xy">
   <rect id="svg_400" stroke-width="0px" fill="rgb(0, 0, 0)" fill-opacity="0" height="473" width="781" y="3" x="3"/>
   <g id="svg_401">
    <path id="svg_402" stroke="rgb(238, 238, 238)" stroke-width="1px" d="m151.759995,3l0,473" class="xgrid crisp"/>
    <path id="svg_403" stroke="rgb(238, 238, 238)" stroke-width="1px" d="m449.290009,3l0,473" class="xgrid crisp"/>
    <path id="svg_404" stroke="rgb(238, 238, 238)" stroke-width="1px" d="m598.049988,3l0,473" class="xgrid crisp"/>
    <path id="svg_405" stroke="rgb(238, 238, 238)" stroke-width="1px" d="m746.809998,3l0,473" class="xgrid crisp"/>
    <path id="svg_406" stroke="rgb(238, 238, 238)" stroke-width="1px" d="m3,452.350006l781,0" class="ygrid crisp"/>
    <path id="svg_407" stroke="rgb(238, 238, 238)" stroke-width="1px" d="m3,273.109985l781,0" class="ygrid crisp"/>
    <path id="svg_408" stroke="rgb(238, 238, 238)" stroke-width="1px" d="m3,183.490005l781,0" class="ygrid crisp"/>
    <path id="svg_409" stroke="rgb(238, 238, 238)" stroke-width="1px" d="m3,93.870003l781,0" class="ygrid crisp"/>
    <path id="svg_410" stroke="rgb(238, 238, 238)" stroke-width="1px" d="m3,4.24l781,0" class="ygrid crisp"/>
   </g>
   <g id="svg_411"/>
   <g id="svg_412">
    <path id="svg_413" stroke="rgb(68, 68, 68)" stroke-width="1px" d="m300.519989,3l0,473" class="xzl zl crisp"/>
    <path id="svg_414" stroke="rgb(68, 68, 68)" stroke-width="1px" d="m3,362.730011l781,0" class="yzl zl crisp"/>
   </g>
   <g id="svg_415"/>
   <svg id="svg_416" viewBox="0 0 781 473" height="473" width="781" y="3" x="3" preserveAspectRatio="none">
    <g id="svg_417" class="maplayer"/>
    <g id="svg_418" class="barlayer"/>
    <g id="svg_419" class="errorlayer">
     <g id="svg_420" class="errorbars"/>
     <g id="svg_421" class="errorbars"/>
     <g id="svg_422" class="errorbars"/>
    </g>
    <g id="svg_423" class="boxlayer"/>
    <g id="svg_424" class="scatterlayer">
     <g id="svg_425" stroke-miterlimit="2" class="trace scatter">
      <path id="svg_426" fill="none" stroke="rgb(19, 27, 88)" stroke-width="6px" d="m0,359.730011l781,-235.26001" class="js-line"/>
     </g>
     <g id="svg_427" stroke-miterlimit="2" class="trace scatter">
      <path id="svg_428" fill="none" stroke="rgb(0, 167, 141)" stroke-width="6px" d="m0,180.490005l781,235.249985" class="js-line"/>
     </g>
     <g id="svg_429" stroke-miterlimit="2" class="trace scatter">
      <path id="svg_430" fill="none" stroke="rgb(252, 185, 37)" stroke-width="6px" d="m595.049988,449.350006l0,-425.700006" class="js-line"/>
     </g>
    </g>
   </svg>
   <g id="svg_431"/>
   <path id="svg_432" fill="none" stroke-width="1px" stroke="rgb(0, 0, 0)" stroke-opacity="0" d="m2,476.5l783,0" class="crisp"/>
   <path id="svg_433" fill="none" stroke="rgb(0, 0, 0)" stroke-opacity="0" stroke-width="1px" d="m2.5,2l0,474" class="crisp"/>
   <g id="svg_434"/>
   <g id="svg_435">
    <g id="svg_436" class="xtick">
     <text id="svg_437" font-family="&#x27;Open sans', verdana, arial, sans-serif" font-size="12px" fill="rgb(68, 68, 68)" y="490" x="3" text-anchor="middle">−2</text>
    </g>
    <g id="svg_438" class="xtick">
     <text id="svg_439" font-family="&#x27;Open sans', verdana, arial, sans-serif" font-size="12px" fill="rgb(68, 68, 68)" y="490" x="151.759995" text-anchor="middle">−1</text>
    </g>
    <g id="svg_440" class="xtick">
     <text id="svg_441" font-family="&#x27;Open sans', verdana, arial, sans-serif" font-size="12px" fill="rgb(68, 68, 68)" y="490" x="300.519989" text-anchor="middle">0</text>
    </g>
    <g id="svg_442" class="xtick">
     <text id="svg_443" font-family="&#x27;Open sans', verdana, arial, sans-serif" font-size="12px" fill="rgb(68, 68, 68)" y="490" x="449.290009" text-anchor="middle">1</text>
    </g>
    <g id="svg_444" class="xtick">
     <text id="svg_445" font-family="&#x27;Open sans', verdana, arial, sans-serif" font-size="12px" fill="rgb(68, 68, 68)" y="490" x="598.049988" text-anchor="middle">2</text>
    </g>
    <g id="svg_446" class="xtick">
     <text id="svg_447" font-family="&#x27;Open sans', verdana, arial, sans-serif" font-size="12px" fill="rgb(68, 68, 68)" y="490" x="746.809998" text-anchor="middle">3</text>
    </g>
   </g>
   <g id="svg_448">
    <g id="svg_449" class="ytick">
     <text id="svg_450" font-family="&#x27;Open sans', verdana, arial, sans-serif" font-size="12px" fill="rgb(68, 68, 68)" y="458.350006" x="1" text-anchor="end">−2</text>
    </g>
    <g id="svg_451" class="ytick">
     <text id="svg_452" font-family="&#x27;Open sans', verdana, arial, sans-serif" font-size="12px" fill="rgb(68, 68, 68)" y="368.730011" x="1" text-anchor="end">0</text>
    </g>
    <g id="svg_453" class="ytick">
     <text id="svg_454" font-family="&#x27;Open sans', verdana, arial, sans-serif" font-size="12px" fill="rgb(68, 68, 68)" y="279.109985" x="1" text-anchor="end">2</text>
    </g>
    <g id="svg_455" class="ytick">
     <text id="svg_456" font-family="&#x27;Open sans', verdana, arial, sans-serif" font-size="12px" fill="rgb(68, 68, 68)" y="189.490005" x="1" text-anchor="end">4</text>
    </g>
    <g id="svg_457" class="ytick">
     <text id="svg_458" font-family="&#x27;Open sans', verdana, arial, sans-serif" font-size="12px" fill="rgb(68, 68, 68)" y="99.870003" x="1" text-anchor="end">6</text>
    </g>
    <g id="svg_459" class="ytick">
     <text id="svg_460" font-family="&#x27;Open sans', verdana, arial, sans-serif" font-size="12px" fill="rgb(68, 68, 68)" y="10.24" x="1" text-anchor="end">8</text>
    </g>
   </g>
   <g id="svg_461"/>
  </g>
  <g id="svg_462" class="shapelayer"/>
  <g id="svg_463" class="pielayer"/>
  <g id="svg_464" class="glimages"/>
  <g id="svg_465" class="geoimages"/>
  <text id="svg_466" font-family="&#x27;Open Sans', Arial, sans-serif" font-size="12px" fill="rgb(68, 68, 68)" x="774" text-anchor="end" y="464" class="js-plot-link-container"/>
  <g id="svg_468" class="g-gtitle"/>
  <g id="svg_469" class="g-xtitle"/>
  <g id="svg_470" class="g-ytitle"/>
  <g transform="rotate(-13.1525 169.351 288.609)" id="svg_471" class="annotation">
   <g transform="matrix(2.33791 0 0 2.33791 -62.4713 -357.723)" id="svg_40" class="annotation-text-g">
    <svg id="svg_472" height="30" width="124" y="261.456694" x="37.157964">
     <rect stroke="rgb(0, 0, 0)" id="svg_473" stroke-width="1px" stroke-opacity="0" fill="rgb(0, 0, 0)" fill-opacity="0" height="29" width="123" y="0.5" x="0.5" class="bg"/>
     <g id="svg_79" class="annotation-math-group">
      <svg id="svg_474" width="9.65ex" y="2" x="1" preserveAspectRatio="xMinYMin meet" height="2.179ex" class="annotation-math" viewBox="0 -705.8452691183917 4150 950.6905382367834" xmlns:xlink="http://www.w3.org/1999/xlink">
       <defs>
        <path d="m132,622q-7,7 -11,9t-16,3t-43,3l-33,0l0,46l106,0q86,0 97,-1t17,-7q1,-1 105,-277l104,-274l104,274q104,276 106,277q3,6 15,7t98,1l106,0l0,-46l-33,0q-40,-1 -51,-3t-18,-12l0,-561q6,-10 17,-12t52,-3l33,0l0,-46l-11,0q-21,3 -140,3q-131,0 -140,-3l-11,0l0,46l33,0q42,1 51,3t19,12l0,286q0,77 0,114t0,85t0,67l-1,19q-233,-618 -237,-625q-4,-6 -20,-6t-20,6q-1,2 -118,309l-116,308l0,-18q-1,-18 -1,-63t0,-80t0,-107l1,-270q11,-36 85,-40l17,0l0,-46l-9,0q-15,3 -115,3q-102,0 -117,-3l-8,0l0,46l17,0q32,2 52,10t24,13t10,17l0,536z" stroke-width="10" id="svg_78"/>
        <path d="m347,338q-10,0 -53,11t-63,11q-20,0 -34,-4t-23,-10t-12,-11t-7,-11l-2,-4q-3,-3 -15,-3q-21,0 -21,8q0,5 3,14q13,39 43,67t66,34q12,2 17,2q25,0 45,-17t38,-33t38,-17q22,0 44,33t23,33q1,1 15,1l13,0q6,-6 6,-8q0,-4 -5,-14t-14,-21t-17,-22t-14,-19l-7,-9q-43,-51 -136,-135t-115,-108l-12,-12l15,-1q22,0 64,-11t63,-11q38,0 70,19t42,50q4,9 7,11t15,2q19,0 19,-10q0,-5 -1,-9q-17,-62 -66,-103t-98,-42q-26,0 -46,17t-39,34t-38,17q-44,0 -79,-60q-6,-8 -17,-8l-5,0l-13,0q-6,6 -6,9q0,15 58,86q39,45 132,130t115,108q12,16 7,16z" stroke-width="10" id="svg_77"/>
        <path d="m56,342q0,86 33,158t85,115t109,66t108,24q3,0 9,0t8,-1q91,0 161,-68l13,-12l30,39q27,37 31,41q1,0 4,0t6,1l4,0q3,0 9,-6l0,-280l-6,-6l-34,0q-6,6 -7,17q-9,82 -48,142t-95,79q-19,7 -50,7q-104,0 -174,-70q-79,-79 -79,-246q0,-121 38,-191q21,-40 52,-67t65,-39t56,-16t44,-5q89,0 143,69t55,151q0,7 6,13l28,0l6,-6l0,-15q-5,-103 -76,-180t-187,-77q-141,0 -244,104t-103,259z" stroke-width="10" id="svg_76"/>
        <path d="m117,59q0,-33 25,-33q37,0 63,105q6,20 10,21q2,1 10,1l4,0q9,0 12,0t5,-2t2,-7q-1,-6 -3,-16t-11,-38t-20,-47t-31,-37t-46,-17q-36,0 -67,22t-32,74q0,12 1,17l65,258q63,255 63,263q0,3 -1,5t-4,4t-5,2t-8,1t-8,1t-9,1t-10,0q-10,0 -13,0t-8,1t-6,3t-1,6q0,2 2,14q5,19 11,21t72,6q15,1 34,2t30,3t11,1q12,0 12,-8q0,-11 -73,-300t-75,-303q0,-2 0,-8t-1,-10l0,-6z" stroke-width="10" id="svg_75"/>
        <path d="m128,619q-7,7 -11,9t-16,3t-43,3l-33,0l0,46l572,0l0,-4q2,-6 14,-116t14,-116l0,-4l-40,0l0,4q-1,3 -3,21q-4,35 -12,61t-17,45t-25,30t-30,18t-41,10t-46,4t-58,1q-87,0 -102,-1t-18,-11q0,0 0,-1q-1,-2 -1,-124l0,-121l54,0q73,2 91,9q36,16 39,84q0,2 0,4l0,20l40,0l0,-280l-40,0l0,20q-1,35 -8,55t-25,29t-34,11t-52,2q-7,0 -11,0l-54,0l0,-134l0,-82q0,-57 5,-62q6,-5 52,-5l51,0l51,0q37,0 61,3t53,12t47,30t32,54q10,26 15,54t8,47t5,23l0,3l40,0l0,-3q-1,-3 -20,-133t-22,-134l0,-3l-585,0l0,46l33,0q42,1 51,3t19,12l0,558z" stroke-width="10" id="svg_74"/>
        <path d="m41,46l14,0q39,0 47,14l0,8q0,9 0,23t0,31t1,39t0,42q0,31 0,66t-1,59l0,23q-3,19 -14,25t-45,9l-18,0l0,23q0,23 2,23l10,1q10,1 28,2t37,2q17,1 36,2t29,3t11,1l3,0l0,-40q0,-38 1,-38t5,5t12,15t19,18t29,19t38,16q20,5 51,5q114,-4 127,-113q1,-7 1,-139l0,-86q0,-38 2,-45t11,-10q21,-3 49,-3l16,0l0,-46l-8,0l-24,1q-23,1 -50,1t-38,1q-103,0 -112,-3l-8,0l0,46l16,0q61,0 61,16q1,2 1,138q-1,135 -2,143q-6,28 -20,42t-24,17t-26,2q-45,0 -79,-34q-27,-27 -34,-55t-8,-83l0,-64l0,-60q0,-30 1,-40t3,-13t9,-6q21,-3 49,-3l16,0l0,-46l-8,0l-23,1q-24,1 -51,1t-38,1q-103,0 -112,-3l-8,0l0,46l16,0z" stroke-width="10" id="svg_73"/>
        <path stroke-width="10" id="svg_72"/>
        <path d="m131,622q-7,7 -11,9t-16,3t-43,3l-33,0l0,46l201,0l38,0l79,0q77,0 113,-5t72,-27q43,-24 68,-61t25,-78q0,-51 -41,-93t-107,-59l-10,-3q73,-9 129,-55t56,-115q0,-68 -51,-120t-131,-64q-13,-2 -227,-3l-214,0l0,46l33,0q42,1 51,3t19,12l0,561zm380,-109q0,47 -26,81t-69,42q-1,0 -13,0t-32,0t-38,1q-67,0 -82,-1t-19,-8q-3,-4 -3,-129l0,-125l83,0l84,1l10,2q4,1 11,3t25,13t32,24t25,39t12,57zm26,-325q0,51 -28,94t-79,54l-101,1l-100,0l0,-137l0,-84q0,-59 5,-64q6,-5 100,-5l49,0q42,0 60,6q43,14 68,51t26,84z" stroke-width="10" id="svg_71"/>
        <path d="m128,619q-7,7 -11,9t-16,3t-43,3l-33,0l0,46l557,0l0,-4q2,-6 14,-116t14,-116l0,-4l-40,0l0,4q-7,49 -9,57q-6,37 -18,62t-27,38t-39,21t-46,9t-57,2l-40,0l-48,0q-34,0 -42,-2t-11,-10q-1,-2 -1,-131l0,-127l52,0q3,0 19,0t24,1t22,3t23,6t17,12q18,18 21,74l0,21l40,0l0,-280l-40,0l0,21q-3,55 -21,75q-8,7 -18,11t-23,6t-21,3t-24,1t-19,0l-52,0l0,-128l1,-128q7,-7 12,-9t25,-4t63,-2l27,0l0,-46l-12,0q-24,3 -166,3q-131,0 -146,-3l-11,0l0,46l33,0q42,1 51,3t19,12l0,558z" stroke-width="10" id="svg_70"/>
        <path d="m328,0q-21,3 -148,3t-148,-3l-11,0l0,46l22,0q49,0 63,3t20,11q2,3 2,282q0,278 -2,281q-4,5 -8,7t-22,5t-53,2l-22,0l0,46l11,0q21,-3 148,-3t148,3l11,0l0,-46l-22,0q-49,0 -63,-3t-20,-11q-2,-3 -2,-281q0,-279 2,-282q4,-5 8,-7t22,-5t53,-2l22,0l0,-46l-11,0z" stroke-width="10" id="svg_69"/>
        <path d="m295,316q0,40 -27,69t-78,29q-36,0 -62,-13q-30,-19 -30,-52q-1,-5 0,-13t16,-24t43,-25q18,-5 44,-9t44,-9t32,-13q17,-8 33,-20t32,-41t17,-62q0,-62 -38,-102t-123,-41l-8,0q-52,0 -96,36l-8,-7l-9,-9q-6,-6 -12,-11l-11,-10l-8,0l-4,0q-3,0 -9,6l0,79l0,58q0,21 2,25t10,5l9,0q12,0 16,-4t5,-12t7,-27t19,-42q35,-51 97,-51q97,0 97,78q0,29 -18,47q-20,24 -83,36t-83,23q-36,17 -57,46t-21,62q0,39 17,66t43,40t50,18t44,5l11,0q40,0 70,-15l15,-8l9,7q10,9 22,17l8,0l4,0q3,0 9,-6l0,-132l-6,-6l-28,0q-6,6 -6,12z" stroke-width="10" id="svg_68"/>
        <path d="m27,422q53,4 82,56t32,122l0,15l40,0l0,-184l135,0l0,-46l-135,0l0,-144q1,-125 1,-141t7,-32q14,-39 49,-39q44,0 54,71q1,8 1,46l0,35l40,0l0,-35l0,-12q0,-77 -42,-117q-27,-27 -70,-27q-34,0 -59,12t-38,31t-19,35t-7,32q-1,7 -1,148l0,137l-79,0l0,37l9,0z" stroke-width="10" id="svg_67"/>
        <path d="m137,305t-22,0t-37,15t-15,39q0,35 34,62t121,27q73,0 118,-32t60,-76q5,-14 5,-31t1,-115l0,-70q0,-48 5,-66t21,-18q15,0 20,16t5,53l0,36l40,0l0,-39q-1,-40 -3,-47q-9,-30 -35,-47t-55,-18t-47,18t-24,42l0,4l-2,-3q-2,-3 -5,-6t-8,-9t-12,-11t-15,-12t-18,-11t-22,-8t-26,-6t-31,-3q-60,0 -108,31t-48,87q0,21 7,40t27,41t48,37t78,28t110,15l14,0l0,22q0,34 -6,50q-22,71 -97,71q-18,0 -34,-1t-25,-4t-8,-3q22,-15 22,-44q0,-25 -16,-39l-17,-15zm-11,-199q0,-31 24,-55t59,-25q38,0 67,23t39,60q2,7 3,66q0,58 -1,58q-8,0 -21,-1t-45,-9t-58,-20t-46,-37t-21,-60z" stroke-width="10" id="svg_66"/>
        <path d="m370,305t-21,0t-36,15t-16,38q0,23 15,38q5,5 5,6t-10,2q-26,4 -49,4q-49,0 -80,-32q-47,-47 -47,-157q0,-82 31,-129q41,-61 110,-61q41,0 66,26t36,62q2,8 5,10t16,2l14,0q6,-6 6,-9q0,-4 -4,-16t-16,-33t-29,-38t-48,-31t-69,-13q-86,0 -150,64t-65,161q0,104 65,169t151,65t120,-27t34,-64q0,-23 -17,-37l-17,-15z" stroke-width="10" id="svg_65"/>
        <path d="m69,609q0,28 18,44t44,16q23,-2 40,-17t17,-43q0,-30 -17,-45t-42,-15q-25,0 -42,15t-18,45zm178,-609q-15,3 -104,3q-11,0 -37,0t-50,-2l-22,-1l-8,0l0,46l16,0q28,0 49,3q9,4 11,11t2,42l0,103l0,88q0,52 -2,66t-14,19q-14,7 -47,7l-11,0l0,23q0,23 2,23l10,1q10,1 28,2t36,2q17,1 36,2t29,3t11,1l3,0l0,-380q5,-10 12,-12t35,-4l23,0l0,-46l-8,0z" stroke-width="10" id="svg_64"/>
        <path d="m28,214q0,95 65,164t157,70q90,0 155,-68t66,-165q0,-95 -64,-160t-157,-65q-97,0 -159,67t-63,157zm222,-184q122,0 122,163l0,32l0,25q0,22 -1,38t-7,38t-16,36t-31,28t-49,20q-5,1 -16,1q-30,0 -57,-12q-43,-22 -56,-61t-13,-92l0,-20q0,-96 19,-135q32,-61 105,-61z" stroke-width="10" id="svg_63"/>
        <path d="m42,46l14,0q39,0 47,14l0,8q0,9 0,23t0,33t1,43t0,50t0,55t0,57q0,37 0,78t0,75t0,60t-1,44t0,17q-3,19 -14,25t-45,9l-18,0l0,23q0,23 2,23l10,1q10,1 29,2t37,2q17,1 37,2t30,3t11,1l3,0l0,-315q0,-317 1,-319q4,-8 12,-11q21,-3 49,-3l16,0l0,-46l-8,0l-23,1q-23,1 -49,1t-38,1t-38,0t-50,-2l-23,-1l-8,0l0,46l16,0z" stroke-width="10" id="svg_62"/>
        <path d="m28,218q0,55 20,100t50,73t65,42t66,15q53,0 91,-18t58,-50t28,-64t9,-71q0,-7 -7,-14l-282,0l0,-15q0,-148 100,-180q20,-6 44,-6q42,0 72,32q17,17 27,42l10,24q3,3 16,3l3,0q17,0 17,-10q0,-4 -3,-13q-19,-55 -63,-87t-99,-32q-95,0 -158,69t-64,160zm305,57q-11,128 -95,136l-2,0q-8,0 -16,-1t-25,-8t-29,-21t-23,-41t-16,-66l0,-7l206,0l0,8z" stroke-width="10" id="svg_61"/>
        <path d="m98,609q0,28 18,44t44,16q23,-2 40,-17t17,-43q0,-30 -17,-45t-42,-15q-25,0 -42,15t-18,45zm-70,-772q30,-5 36,-5q60,0 71,91q2,12 2,218t-1,212q-4,18 -16,24t-48,8l-20,0l0,23q0,23 2,23l4,1q4,0 12,0t17,1t21,1t25,2q18,1 38,2t31,3t12,1l4,0l0,-258q-1,-220 -1,-243t-6,-39q-16,-47 -58,-77t-95,-30q-49,0 -81,26t-32,62q0,23 15,38t38,15t38,-15t16,-39q0,-25 -24,-45z" stroke-width="10" id="svg_60"/>
        <path d="m36,46l14,0q39,0 47,14l0,8q0,9 0,23t1,31t0,39t0,42q0,31 0,66t0,59l-1,23q-3,19 -14,25t-45,9l-18,0l0,23q0,23 2,23l10,1q10,1 28,2t36,2q16,1 35,2t29,3t11,1l3,0l0,-69q39,68 97,68l6,0q45,0 66,-22t21,-46q0,-21 -13,-36t-38,-15q-25,0 -37,16t-13,34q0,9 2,16t5,12t3,5q-2,2 -23,-4q-16,-8 -24,-15q-47,-45 -47,-179l0,-53q0,-13 0,-27t0,-26t1,-20t0,-15l0,-5q1,-2 3,-4t5,-3t5,-3t7,-2t7,-1t9,-1t9,0t10,-1t10,0l31,0l0,-46l-9,0q-18,3 -127,3q-103,0 -112,-3l-8,0l0,46l16,0z" stroke-width="10" id="svg_59"/>
        <path d="m130,622q-7,7 -11,9t-16,3t-43,3l-33,0l0,46l175,0l34,0l64,0q76,0 117,-6t83,-29q95,-48 109,-131q1,-5 1,-16q0,-33 -16,-62t-38,-47t-45,-31t-39,-18l-16,-5q3,-3 11,-6q30,-16 49,-34t29,-44t14,-43t9,-56t10,-61q10,-48 24,-63t38,-15l5,0q15,0 29,16t18,55q0,11 4,14t16,4t16,-2t4,-13q0,-31 -16,-63t-44,-43q-16,-6 -42,-6q-149,6 -172,112q-2,11 -2,73t-7,83q-19,58 -76,74l-10,2l-66,1l-66,0l0,-131l1,-131q6,-10 17,-12t52,-3l33,0l0,-46l-11,0q-21,3 -142,3q-122,0 -143,-3l-11,0l0,46l33,0q42,1 51,3t19,12l0,561zm361,-123l0,10q0,18 -1,30t-9,31t-19,31t-38,22t-62,13q-2,0 -22,0t-36,1l-21,0q-45,0 -49,-9q-3,-4 -3,-136l0,-132l58,0q101,0 145,18t55,78q2,11 2,43z" stroke-width="10" id="svg_58"/>
        <path d="m56,340q0,83 30,154t78,116t106,70t118,25q133,0 233,-104t101,-260q0,-81 -29,-150t-76,-116t-107,-71t-122,-26t-121,25t-107,71t-75,115t-29,151zm411,307q-41,18 -79,18q-28,0 -57,-11t-62,-34t-56,-71t-34,-110q-5,-28 -5,-85q0,-210 103,-293q50,-41 108,-41l4,0l2,0q83,0 146,79q66,89 66,255q0,57 -5,85q-21,153 -131,208z" stroke-width="10" id="svg_57"/>
        <path d="m255,0q-15,3 -115,3q-92,0 -101,-3l-7,0l0,46l15,0q72,3 92,42q1,3 53,157t103,308t53,155q3,8 18,8l10,0q20,-1 24,-7q2,-2 108,-319l109,-323q7,-13 19,-16t51,-5l30,0l0,-46l-9,0q-9,3 -127,3q-123,0 -144,-3l-10,0l0,46l13,0q70,0 70,18q0,2 -24,74l-24,71l-233,0l-20,-59q-20,-59 -20,-65q0,-13 20,-26t50,-13l5,0l0,-46l-9,0zm192,255l-102,302l-101,-301q0,-1 101,-1l102,0z" stroke-width="10" id="svg_56"/>
        <path d="m130,622q-7,7 -11,9t-16,3t-43,3l-33,0l0,46l201,0q171,-1 191,-1t42,-6q43,-9 85,-35t80,-68t59,-103t23,-134q0,-126 -74,-220t-192,-113q-13,-2 -214,-3l-201,0l0,46l33,0q42,1 51,3t19,12l0,561zm463,-284q0,101 -22,163t-78,101q-54,35 -138,35l-33,0l-28,0q-56,0 -60,-9q-3,-4 -3,-284q0,-282 1,-285q1,-10 16,-11t91,-2l11,0q106,0 165,49q46,38 62,96t16,147z" stroke-width="10" id="svg_55"/>
        <path d="m109,429q-27,0 -43,18t-16,44q0,71 53,123t132,52q91,0 152,-56t62,-145q0,-43 -20,-82t-48,-68t-80,-74q-36,-31 -100,-92l-59,-56l76,-1q157,0 167,5q7,2 24,89l0,3l40,0l0,-3q-1,-3 -13,-91t-15,-92l0,-3l-371,0l0,19l0,12q0,7 6,15t30,35q29,32 50,56q9,10 34,37t34,37t29,33t28,34t23,30t21,32t15,29t13,32t7,30t3,33q0,63 -34,109t-97,46q-33,0 -58,-17t-35,-33t-10,-19q0,-1 5,-1q18,0 37,-14t19,-46q0,-25 -16,-42t-45,-18z" stroke-width="10" id="svg_43"/>
        <path d="m96,585q56,81 153,81q48,0 96,-26t78,-92q37,-83 37,-228q0,-155 -43,-237q-20,-42 -55,-67t-61,-31t-51,-7q-26,0 -52,6t-61,32t-55,67q-43,82 -43,237q0,174 57,265zm225,12q-30,32 -71,32q-42,0 -72,-32q-25,-26 -33,-72t-8,-192q0,-158 8,-208t36,-79q28,-30 69,-30q40,0 68,30q29,30 36,84t8,203q0,145 -8,191t-33,73z" stroke-width="10" id="svg_54"/>
        <path d="m213,578l-13,-5q-14,-5 -40,-10t-58,-7l-19,0l0,46l19,0q47,2 87,15t56,24t28,22q2,3 12,3q9,0 17,-6l0,-299l1,-300q7,-7 12,-9t24,-4t62,-2l26,0l0,-46l-11,0q-21,3 -159,3q-136,0 -157,-3l-12,0l0,46l26,0q22,0 38,0t25,1t16,3t8,2t6,5t6,4l0,517z" stroke-width="10" id="svg_53"/>
        <path d="m128,622q-7,7 -11,9t-16,3t-43,3l-33,0l0,46l11,0q21,-3 144,-3q135,0 144,3l11,0l0,-46l-33,0q-40,-1 -51,-3t-18,-12l-1,-122l0,-122l285,0l0,244q-7,7 -11,9t-16,3t-43,3l-33,0l0,46l11,0q21,-3 144,-3q135,0 144,3l11,0l0,-46l-33,0q-40,-1 -51,-3t-18,-12l0,-561q6,-10 17,-12t52,-3l33,0l0,-46l-11,0q-21,3 -144,3q-135,0 -144,-3l-11,0l0,46l33,0q42,1 51,3t19,12l0,271l-285,0l0,-135l1,-136q6,-10 17,-12t52,-3l33,0l0,-46l-11,0q-21,3 -144,3q-135,0 -144,-3l-11,0l0,46l33,0q42,1 51,3t19,12l0,561z" stroke-width="10" id="svg_52"/>
        <path d="m11,179l0,73l266,0l0,-73l-266,0z" stroke-width="10" id="svg_51"/>
        <path d="m55,507q0,83 57,140t131,57l14,0q85,0 148,-63l21,31q5,7 10,15t10,13l3,4q1,0 4,0t6,1l4,0q3,0 9,-6l0,-237l-6,-6l-18,0q-11,0 -13,3t-5,20q-17,126 -101,167q-37,16 -75,16q-53,0 -86,-36t-33,-84q0,-34 17,-62t48,-45q10,-4 86,-23t84,-23q57,-22 93,-75t37,-123q0,-81 -52,-146t-147,-66q-56,0 -100,17t-61,31l-18,14q-4,-5 -15,-20t-20,-28t-9,-14q-2,-1 -10,-1l-4,0q-3,0 -9,6l0,117q0,119 1,121q2,5 20,5l13,0q6,-6 6,-13q0,-32 10,-63t34,-61t66,-48t100,-18q47,0 81,38t34,93q0,43 -22,78t-58,48q-56,14 -74,19q-5,1 -27,6t-33,8t-32,11t-33,18t-29,24t-27,35q-30,49 -30,105z" stroke-width="10" id="svg_50"/>
        <path d="m130,622q-7,7 -11,9t-16,3t-43,3l-33,0l0,46l187,0q23,0 62,0t55,1q88,0 140,-13t96,-55q57,-53 57,-127q0,-68 -51,-117t-122,-65q-22,-5 -123,-6l-94,0l0,-120q0,-119 3,-123q8,-11 67,-12l33,0l0,-46l-11,0q-21,3 -144,3q-135,0 -144,-3l-11,0l0,46l33,0q42,1 51,3t19,12l0,561zm377,-134q0,26 -1,40t-6,36t-17,33t-33,23t-53,15q-12,2 -90,2l-21,0q-49,0 -52,-9q-3,-4 -3,-145l0,-141l71,0l37,0q51,0 84,7t58,33q26,29 26,106z" stroke-width="10" id="svg_49"/>
        <path d="m21,287q0,14 15,48t48,71t74,36q41,0 66,-23t26,-64q-2,-19 -3,-21q0,-3 -16,-46t-33,-97t-16,-86q0,-43 14,-60t42,-18q23,0 43,11t31,23t27,33q0,1 5,20t14,59t19,74q38,150 42,157q13,27 43,27q13,0 21,-7t11,-12t2,-9q0,-13 -49,-210t-56,-216q-28,-83 -97,-132t-138,-50q-45,0 -79,22t-34,66q0,22 7,37t19,22t20,10t17,3q44,0 44,-42q0,-20 -12,-35t-23,-20t-13,-5l-3,-1q2,-5 19,-12t34,-7l8,0q17,0 26,2q33,9 61,38t43,62t23,56t8,30l-6,-4q-6,-4 -19,-11t-26,-12q-20,-5 -39,-5q-46,0 -81,22t-46,71q-1,7 -1,31q0,57 35,149t35,117q0,1 0,2q0,9 0,12t-4,7t-11,4l-4,0q-23,0 -42,-19t-30,-41t-17,-42t-8,-22q-2,-2 -16,-2l-14,0q-6,6 -6,9z" stroke-width="10" id="svg_45"/>
        <path d="m56,347q0,13 14,20l637,0q15,-8 15,-20q0,-11 -14,-19l-318,-1l-318,0q-16,5 -16,20zm0,-194q0,15 16,20l636,0q14,-10 14,-20q0,-13 -15,-20l-637,0q-14,7 -14,20z" stroke-width="10" id="svg_44"/>
        <path d="m56,237t0,13t14,20l299,0l0,150l1,150q10,13 19,13q13,0 20,-15l0,-298l298,0q15,-8 15,-20t-15,-20l-298,0l0,-298q-8,-14 -18,-14l-2,0l-2,0q-12,0 -18,14l0,298l-299,0q-14,7 -14,20l0,-13z" stroke-width="10" id="svg_42"/>
        <path d="m52,289q7,42 54,97t116,56q35,0 64,-18t43,-45q42,63 101,63q37,0 64,-22t28,-59q0,-29 -14,-47t-27,-22t-23,-4q-19,0 -31,11t-12,29q0,46 50,63q-11,13 -40,13q-13,0 -19,-2q-38,-16 -56,-66q-60,-221 -60,-258q0,-28 16,-40t35,-12q37,0 73,33t49,81q3,10 6,11t16,2l4,0q15,0 15,-8q0,-1 -2,-11q-16,-57 -62,-101t-107,-44q-70,0 -106,63q-41,-62 -94,-62l-6,0q-49,0 -70,26t-22,55q0,32 19,52t45,20q43,0 43,-42q0,-20 -12,-35t-23,-20t-13,-5l-3,-1q0,-1 6,-4t16,-7t19,-3q36,0 62,45q9,16 23,68t28,108t16,66q5,27 5,39q0,28 -15,40t-34,12q-40,0 -75,-32t-49,-82q-2,-9 -5,-10t-16,-2l-14,0q-6,6 -6,11z" stroke-width="10" id="svg_41"/>
        <path d="m84,237t0,13t14,20l581,0q15,-8 15,-20t-15,-20l-581,0q-14,7 -14,20l0,-13z" stroke-width="10" id="svg_48"/>
        <path d="m740,435q0,-115 -64,-222t-165,-171t-207,-64q-97,0 -166,57t-87,166q-1,8 -1,43q0,102 48,194t129,163q124,103 249,103q38,0 48,-1q97,-14 156,-86t60,-182zm-103,41q0,89 -46,139t-115,50q-80,0 -154,-60q-80,-63 -122,-177t-43,-212q0,-90 43,-143t114,-54q90,0 171,79t123,215q29,95 29,163z" stroke-width="10" id="svg_47"/>
        <path d="m208,74q0,-24 46,-28q18,0 18,-11q0,-1 -2,-13q-3,-14 -6,-18t-13,-4q-2,0 -12,0t-34,1t-64,1q-71,0 -91,-2l-8,0q-7,7 -7,11q2,27 13,35l14,0q70,3 102,50q6,6 181,305t178,303q7,12 24,12l8,0l17,0q6,-9 6,-10l28,-323q28,-323 30,-326q5,-11 65,-11q25,0 25,-10q0,-2 -3,-14q-3,-15 -5,-18t-14,-4q-3,0 -14,0t-39,1t-73,1q-94,0 -123,-2l-12,0q-6,6 -6,9t2,18q4,13 6,16l4,3l20,0q54,3 64,17l-12,150l-238,0l-34,-58q-41,-69 -41,-81zm308,186q0,11 -12,156t-14,146l-27,-43q-16,-27 -63,-107l-90,-152l103,-1q103,0 103,1z" stroke-width="10" id="svg_46"/>
       </defs>
       <g stroke="rgb(68, 68, 68)" id="svg_475" transform="matrix(1 0 0 -1 0 0)" stroke-width="0" fill="rgb(68, 68, 68)">
        <use id="svg_476" xlink:href="#svg_45"/>
        <use id="svg_477" y="0" x="779" xlink:href="#svg_44"/>
        <use id="svg_478" y="0" x="1840" xlink:href="#svg_43"/>
        <use id="svg_479" y="0" x="2567" xlink:href="#svg_42"/>
        <use id="svg_480" y="0" x="3573" xlink:href="#svg_41"/>
       </g>
      </svg>
     </g>
    </svg>
   </g>
  </g>
  <g transform="rotate(16.335 200.158 211.699)" id="svg_481" class="annotation">
   <g transform="matrix(2.3035 0 0 2.3035 -85.5507 -195.327)" id="svg_118" class="annotation-text-g">
    <svg id="svg_482" height="30" width="124" y="161.699106" x="62.032622">
     <rect stroke="rgb(0, 0, 0)" id="svg_483" stroke-width="1px" stroke-opacity="0" fill="rgb(0, 0, 0)" fill-opacity="0" height="29" width="123" y="0.5" x="0.5" class="bg"/>
     <g id="svg_157" class="annotation-math-group">
      <svg id="svg_484" width="9.65ex" y="2" x="1" preserveAspectRatio="xMinYMin meet" height="2.179ex" class="annotation-math" viewBox="0 -705.8452691183917 4150 950.6905382367834" xmlns:xlink="http://www.w3.org/1999/xlink">
       <defs>
        <path d="m132,622q-7,7 -11,9t-16,3t-43,3l-33,0l0,46l106,0q86,0 97,-1t17,-7q1,-1 105,-277l104,-274l104,274q104,276 106,277q3,6 15,7t98,1l106,0l0,-46l-33,0q-40,-1 -51,-3t-18,-12l0,-561q6,-10 17,-12t52,-3l33,0l0,-46l-11,0q-21,3 -140,3q-131,0 -140,-3l-11,0l0,46l33,0q42,1 51,3t19,12l0,286q0,77 0,114t0,85t0,67l-1,19q-233,-618 -237,-625q-4,-6 -20,-6t-20,6q-1,2 -118,309l-116,308l0,-18q-1,-18 -1,-63t0,-80t0,-107l1,-270q11,-36 85,-40l17,0l0,-46l-9,0q-15,3 -115,3q-102,0 -117,-3l-8,0l0,46l17,0q32,2 52,10t24,13t10,17l0,536z" stroke-width="10" id="svg_156"/>
        <path d="m347,338q-10,0 -53,11t-63,11q-20,0 -34,-4t-23,-10t-12,-11t-7,-11l-2,-4q-3,-3 -15,-3q-21,0 -21,8q0,5 3,14q13,39 43,67t66,34q12,2 17,2q25,0 45,-17t38,-33t38,-17q22,0 44,33t23,33q1,1 15,1l13,0q6,-6 6,-8q0,-4 -5,-14t-14,-21t-17,-22t-14,-19l-7,-9q-43,-51 -136,-135t-115,-108l-12,-12l15,-1q22,0 64,-11t63,-11q38,0 70,19t42,50q4,9 7,11t15,2q19,0 19,-10q0,-5 -1,-9q-17,-62 -66,-103t-98,-42q-26,0 -46,17t-39,34t-38,17q-44,0 -79,-60q-6,-8 -17,-8l-5,0l-13,0q-6,6 -6,9q0,15 58,86q39,45 132,130t115,108q12,16 7,16z" stroke-width="10" id="svg_155"/>
        <path d="m56,342q0,86 33,158t85,115t109,66t108,24q3,0 9,0t8,-1q91,0 161,-68l13,-12l30,39q27,37 31,41q1,0 4,0t6,1l4,0q3,0 9,-6l0,-280l-6,-6l-34,0q-6,6 -7,17q-9,82 -48,142t-95,79q-19,7 -50,7q-104,0 -174,-70q-79,-79 -79,-246q0,-121 38,-191q21,-40 52,-67t65,-39t56,-16t44,-5q89,0 143,69t55,151q0,7 6,13l28,0l6,-6l0,-15q-5,-103 -76,-180t-187,-77q-141,0 -244,104t-103,259z" stroke-width="10" id="svg_154"/>
        <path d="m117,59q0,-33 25,-33q37,0 63,105q6,20 10,21q2,1 10,1l4,0q9,0 12,0t5,-2t2,-7q-1,-6 -3,-16t-11,-38t-20,-47t-31,-37t-46,-17q-36,0 -67,22t-32,74q0,12 1,17l65,258q63,255 63,263q0,3 -1,5t-4,4t-5,2t-8,1t-8,1t-9,1t-10,0q-10,0 -13,0t-8,1t-6,3t-1,6q0,2 2,14q5,19 11,21t72,6q15,1 34,2t30,3t11,1q12,0 12,-8q0,-11 -73,-300t-75,-303q0,-2 0,-8t-1,-10l0,-6z" stroke-width="10" id="svg_153"/>
        <path d="m128,619q-7,7 -11,9t-16,3t-43,3l-33,0l0,46l572,0l0,-4q2,-6 14,-116t14,-116l0,-4l-40,0l0,4q-1,3 -3,21q-4,35 -12,61t-17,45t-25,30t-30,18t-41,10t-46,4t-58,1q-87,0 -102,-1t-18,-11q0,0 0,-1q-1,-2 -1,-124l0,-121l54,0q73,2 91,9q36,16 39,84q0,2 0,4l0,20l40,0l0,-280l-40,0l0,20q-1,35 -8,55t-25,29t-34,11t-52,2q-7,0 -11,0l-54,0l0,-134l0,-82q0,-57 5,-62q6,-5 52,-5l51,0l51,0q37,0 61,3t53,12t47,30t32,54q10,26 15,54t8,47t5,23l0,3l40,0l0,-3q-1,-3 -20,-133t-22,-134l0,-3l-585,0l0,46l33,0q42,1 51,3t19,12l0,558z" stroke-width="10" id="svg_152"/>
        <path d="m41,46l14,0q39,0 47,14l0,8q0,9 0,23t0,31t1,39t0,42q0,31 0,66t-1,59l0,23q-3,19 -14,25t-45,9l-18,0l0,23q0,23 2,23l10,1q10,1 28,2t37,2q17,1 36,2t29,3t11,1l3,0l0,-40q0,-38 1,-38t5,5t12,15t19,18t29,19t38,16q20,5 51,5q114,-4 127,-113q1,-7 1,-139l0,-86q0,-38 2,-45t11,-10q21,-3 49,-3l16,0l0,-46l-8,0l-24,1q-23,1 -50,1t-38,1q-103,0 -112,-3l-8,0l0,46l16,0q61,0 61,16q1,2 1,138q-1,135 -2,143q-6,28 -20,42t-24,17t-26,2q-45,0 -79,-34q-27,-27 -34,-55t-8,-83l0,-64l0,-60q0,-30 1,-40t3,-13t9,-6q21,-3 49,-3l16,0l0,-46l-8,0l-23,1q-24,1 -51,1t-38,1q-103,0 -112,-3l-8,0l0,46l16,0z" stroke-width="10" id="svg_151"/>
        <path stroke-width="10" id="svg_150"/>
        <path d="m131,622q-7,7 -11,9t-16,3t-43,3l-33,0l0,46l201,0l38,0l79,0q77,0 113,-5t72,-27q43,-24 68,-61t25,-78q0,-51 -41,-93t-107,-59l-10,-3q73,-9 129,-55t56,-115q0,-68 -51,-120t-131,-64q-13,-2 -227,-3l-214,0l0,46l33,0q42,1 51,3t19,12l0,561zm380,-109q0,47 -26,81t-69,42q-1,0 -13,0t-32,0t-38,1q-67,0 -82,-1t-19,-8q-3,-4 -3,-129l0,-125l83,0l84,1l10,2q4,1 11,3t25,13t32,24t25,39t12,57zm26,-325q0,51 -28,94t-79,54l-101,1l-100,0l0,-137l0,-84q0,-59 5,-64q6,-5 100,-5l49,0q42,0 60,6q43,14 68,51t26,84z" stroke-width="10" id="svg_149"/>
        <path d="m128,619q-7,7 -11,9t-16,3t-43,3l-33,0l0,46l557,0l0,-4q2,-6 14,-116t14,-116l0,-4l-40,0l0,4q-7,49 -9,57q-6,37 -18,62t-27,38t-39,21t-46,9t-57,2l-40,0l-48,0q-34,0 -42,-2t-11,-10q-1,-2 -1,-131l0,-127l52,0q3,0 19,0t24,1t22,3t23,6t17,12q18,18 21,74l0,21l40,0l0,-280l-40,0l0,21q-3,55 -21,75q-8,7 -18,11t-23,6t-21,3t-24,1t-19,0l-52,0l0,-128l1,-128q7,-7 12,-9t25,-4t63,-2l27,0l0,-46l-12,0q-24,3 -166,3q-131,0 -146,-3l-11,0l0,46l33,0q42,1 51,3t19,12l0,558z" stroke-width="10" id="svg_148"/>
        <path d="m328,0q-21,3 -148,3t-148,-3l-11,0l0,46l22,0q49,0 63,3t20,11q2,3 2,282q0,278 -2,281q-4,5 -8,7t-22,5t-53,2l-22,0l0,46l11,0q21,-3 148,-3t148,3l11,0l0,-46l-22,0q-49,0 -63,-3t-20,-11q-2,-3 -2,-281q0,-279 2,-282q4,-5 8,-7t22,-5t53,-2l22,0l0,-46l-11,0z" stroke-width="10" id="svg_147"/>
        <path d="m295,316q0,40 -27,69t-78,29q-36,0 -62,-13q-30,-19 -30,-52q-1,-5 0,-13t16,-24t43,-25q18,-5 44,-9t44,-9t32,-13q17,-8 33,-20t32,-41t17,-62q0,-62 -38,-102t-123,-41l-8,0q-52,0 -96,36l-8,-7l-9,-9q-6,-6 -12,-11l-11,-10l-8,0l-4,0q-3,0 -9,6l0,79l0,58q0,21 2,25t10,5l9,0q12,0 16,-4t5,-12t7,-27t19,-42q35,-51 97,-51q97,0 97,78q0,29 -18,47q-20,24 -83,36t-83,23q-36,17 -57,46t-21,62q0,39 17,66t43,40t50,18t44,5l11,0q40,0 70,-15l15,-8l9,7q10,9 22,17l8,0l4,0q3,0 9,-6l0,-132l-6,-6l-28,0q-6,6 -6,12z" stroke-width="10" id="svg_146"/>
        <path d="m27,422q53,4 82,56t32,122l0,15l40,0l0,-184l135,0l0,-46l-135,0l0,-144q1,-125 1,-141t7,-32q14,-39 49,-39q44,0 54,71q1,8 1,46l0,35l40,0l0,-35l0,-12q0,-77 -42,-117q-27,-27 -70,-27q-34,0 -59,12t-38,31t-19,35t-7,32q-1,7 -1,148l0,137l-79,0l0,37l9,0z" stroke-width="10" id="svg_145"/>
        <path d="m137,305t-22,0t-37,15t-15,39q0,35 34,62t121,27q73,0 118,-32t60,-76q5,-14 5,-31t1,-115l0,-70q0,-48 5,-66t21,-18q15,0 20,16t5,53l0,36l40,0l0,-39q-1,-40 -3,-47q-9,-30 -35,-47t-55,-18t-47,18t-24,42l0,4l-2,-3q-2,-3 -5,-6t-8,-9t-12,-11t-15,-12t-18,-11t-22,-8t-26,-6t-31,-3q-60,0 -108,31t-48,87q0,21 7,40t27,41t48,37t78,28t110,15l14,0l0,22q0,34 -6,50q-22,71 -97,71q-18,0 -34,-1t-25,-4t-8,-3q22,-15 22,-44q0,-25 -16,-39l-17,-15zm-11,-199q0,-31 24,-55t59,-25q38,0 67,23t39,60q2,7 3,66q0,58 -1,58q-8,0 -21,-1t-45,-9t-58,-20t-46,-37t-21,-60z" stroke-width="10" id="svg_144"/>
        <path d="m370,305t-21,0t-36,15t-16,38q0,23 15,38q5,5 5,6t-10,2q-26,4 -49,4q-49,0 -80,-32q-47,-47 -47,-157q0,-82 31,-129q41,-61 110,-61q41,0 66,26t36,62q2,8 5,10t16,2l14,0q6,-6 6,-9q0,-4 -4,-16t-16,-33t-29,-38t-48,-31t-69,-13q-86,0 -150,64t-65,161q0,104 65,169t151,65t120,-27t34,-64q0,-23 -17,-37l-17,-15z" stroke-width="10" id="svg_143"/>
        <path d="m69,609q0,28 18,44t44,16q23,-2 40,-17t17,-43q0,-30 -17,-45t-42,-15q-25,0 -42,15t-18,45zm178,-609q-15,3 -104,3q-11,0 -37,0t-50,-2l-22,-1l-8,0l0,46l16,0q28,0 49,3q9,4 11,11t2,42l0,103l0,88q0,52 -2,66t-14,19q-14,7 -47,7l-11,0l0,23q0,23 2,23l10,1q10,1 28,2t36,2q17,1 36,2t29,3t11,1l3,0l0,-380q5,-10 12,-12t35,-4l23,0l0,-46l-8,0z" stroke-width="10" id="svg_142"/>
        <path d="m28,214q0,95 65,164t157,70q90,0 155,-68t66,-165q0,-95 -64,-160t-157,-65q-97,0 -159,67t-63,157zm222,-184q122,0 122,163l0,32l0,25q0,22 -1,38t-7,38t-16,36t-31,28t-49,20q-5,1 -16,1q-30,0 -57,-12q-43,-22 -56,-61t-13,-92l0,-20q0,-96 19,-135q32,-61 105,-61z" stroke-width="10" id="svg_141"/>
        <path d="m42,46l14,0q39,0 47,14l0,8q0,9 0,23t0,33t1,43t0,50t0,55t0,57q0,37 0,78t0,75t0,60t-1,44t0,17q-3,19 -14,25t-45,9l-18,0l0,23q0,23 2,23l10,1q10,1 29,2t37,2q17,1 37,2t30,3t11,1l3,0l0,-315q0,-317 1,-319q4,-8 12,-11q21,-3 49,-3l16,0l0,-46l-8,0l-23,1q-23,1 -49,1t-38,1t-38,0t-50,-2l-23,-1l-8,0l0,46l16,0z" stroke-width="10" id="svg_140"/>
        <path d="m28,218q0,55 20,100t50,73t65,42t66,15q53,0 91,-18t58,-50t28,-64t9,-71q0,-7 -7,-14l-282,0l0,-15q0,-148 100,-180q20,-6 44,-6q42,0 72,32q17,17 27,42l10,24q3,3 16,3l3,0q17,0 17,-10q0,-4 -3,-13q-19,-55 -63,-87t-99,-32q-95,0 -158,69t-64,160zm305,57q-11,128 -95,136l-2,0q-8,0 -16,-1t-25,-8t-29,-21t-23,-41t-16,-66l0,-7l206,0l0,8z" stroke-width="10" id="svg_139"/>
        <path d="m98,609q0,28 18,44t44,16q23,-2 40,-17t17,-43q0,-30 -17,-45t-42,-15q-25,0 -42,15t-18,45zm-70,-772q30,-5 36,-5q60,0 71,91q2,12 2,218t-1,212q-4,18 -16,24t-48,8l-20,0l0,23q0,23 2,23l4,1q4,0 12,0t17,1t21,1t25,2q18,1 38,2t31,3t12,1l4,0l0,-258q-1,-220 -1,-243t-6,-39q-16,-47 -58,-77t-95,-30q-49,0 -81,26t-32,62q0,23 15,38t38,15t38,-15t16,-39q0,-25 -24,-45z" stroke-width="10" id="svg_138"/>
        <path d="m36,46l14,0q39,0 47,14l0,8q0,9 0,23t1,31t0,39t0,42q0,31 0,66t0,59l-1,23q-3,19 -14,25t-45,9l-18,0l0,23q0,23 2,23l10,1q10,1 28,2t36,2q16,1 35,2t29,3t11,1l3,0l0,-69q39,68 97,68l6,0q45,0 66,-22t21,-46q0,-21 -13,-36t-38,-15q-25,0 -37,16t-13,34q0,9 2,16t5,12t3,5q-2,2 -23,-4q-16,-8 -24,-15q-47,-45 -47,-179l0,-53q0,-13 0,-27t0,-26t1,-20t0,-15l0,-5q1,-2 3,-4t5,-3t5,-3t7,-2t7,-1t9,-1t9,0t10,-1t10,0l31,0l0,-46l-9,0q-18,3 -127,3q-103,0 -112,-3l-8,0l0,46l16,0z" stroke-width="10" id="svg_137"/>
        <path d="m130,622q-7,7 -11,9t-16,3t-43,3l-33,0l0,46l175,0l34,0l64,0q76,0 117,-6t83,-29q95,-48 109,-131q1,-5 1,-16q0,-33 -16,-62t-38,-47t-45,-31t-39,-18l-16,-5q3,-3 11,-6q30,-16 49,-34t29,-44t14,-43t9,-56t10,-61q10,-48 24,-63t38,-15l5,0q15,0 29,16t18,55q0,11 4,14t16,4t16,-2t4,-13q0,-31 -16,-63t-44,-43q-16,-6 -42,-6q-149,6 -172,112q-2,11 -2,73t-7,83q-19,58 -76,74l-10,2l-66,1l-66,0l0,-131l1,-131q6,-10 17,-12t52,-3l33,0l0,-46l-11,0q-21,3 -142,3q-122,0 -143,-3l-11,0l0,46l33,0q42,1 51,3t19,12l0,561zm361,-123l0,10q0,18 -1,30t-9,31t-19,31t-38,22t-62,13q-2,0 -22,0t-36,1l-21,0q-45,0 -49,-9q-3,-4 -3,-136l0,-132l58,0q101,0 145,18t55,78q2,11 2,43z" stroke-width="10" id="svg_136"/>
        <path d="m56,340q0,83 30,154t78,116t106,70t118,25q133,0 233,-104t101,-260q0,-81 -29,-150t-76,-116t-107,-71t-122,-26t-121,25t-107,71t-75,115t-29,151zm411,307q-41,18 -79,18q-28,0 -57,-11t-62,-34t-56,-71t-34,-110q-5,-28 -5,-85q0,-210 103,-293q50,-41 108,-41l4,0l2,0q83,0 146,79q66,89 66,255q0,57 -5,85q-21,153 -131,208z" stroke-width="10" id="svg_135"/>
        <path d="m255,0q-15,3 -115,3q-92,0 -101,-3l-7,0l0,46l15,0q72,3 92,42q1,3 53,157t103,308t53,155q3,8 18,8l10,0q20,-1 24,-7q2,-2 108,-319l109,-323q7,-13 19,-16t51,-5l30,0l0,-46l-9,0q-9,3 -127,3q-123,0 -144,-3l-10,0l0,46l13,0q70,0 70,18q0,2 -24,74l-24,71l-233,0l-20,-59q-20,-59 -20,-65q0,-13 20,-26t50,-13l5,0l0,-46l-9,0zm192,255l-102,302l-101,-301q0,-1 101,-1l102,0z" stroke-width="10" id="svg_134"/>
        <path d="m130,622q-7,7 -11,9t-16,3t-43,3l-33,0l0,46l201,0q171,-1 191,-1t42,-6q43,-9 85,-35t80,-68t59,-103t23,-134q0,-126 -74,-220t-192,-113q-13,-2 -214,-3l-201,0l0,46l33,0q42,1 51,3t19,12l0,561zm463,-284q0,101 -22,163t-78,101q-54,35 -138,35l-33,0l-28,0q-56,0 -60,-9q-3,-4 -3,-284q0,-282 1,-285q1,-10 16,-11t91,-2l11,0q106,0 165,49q46,38 62,96t16,147z" stroke-width="10" id="svg_133"/>
        <path d="m109,429q-27,0 -43,18t-16,44q0,71 53,123t132,52q91,0 152,-56t62,-145q0,-43 -20,-82t-48,-68t-80,-74q-36,-31 -100,-92l-59,-56l76,-1q157,0 167,5q7,2 24,89l0,3l40,0l0,-3q-1,-3 -13,-91t-15,-92l0,-3l-371,0l0,19l0,12q0,7 6,15t30,35q29,32 50,56q9,10 34,37t34,37t29,33t28,34t23,30t21,32t15,29t13,32t7,30t3,33q0,63 -34,109t-97,46q-33,0 -58,-17t-35,-33t-10,-19q0,-1 5,-1q18,0 37,-14t19,-46q0,-25 -16,-42t-45,-18z" stroke-width="10" id="svg_121"/>
        <path d="m96,585q56,81 153,81q48,0 96,-26t78,-92q37,-83 37,-228q0,-155 -43,-237q-20,-42 -55,-67t-61,-31t-51,-7q-26,0 -52,6t-61,32t-55,67q-43,82 -43,237q0,174 57,265zm225,12q-30,32 -71,32q-42,0 -72,-32q-25,-26 -33,-72t-8,-192q0,-158 8,-208t36,-79q28,-30 69,-30q40,0 68,30q29,30 36,84t8,203q0,145 -8,191t-33,73z" stroke-width="10" id="svg_132"/>
        <path d="m213,578l-13,-5q-14,-5 -40,-10t-58,-7l-19,0l0,46l19,0q47,2 87,15t56,24t28,22q2,3 12,3q9,0 17,-6l0,-299l1,-300q7,-7 12,-9t24,-4t62,-2l26,0l0,-46l-11,0q-21,3 -159,3q-136,0 -157,-3l-12,0l0,46l26,0q22,0 38,0t25,1t16,3t8,2t6,5t6,4l0,517z" stroke-width="10" id="svg_131"/>
        <path d="m128,622q-7,7 -11,9t-16,3t-43,3l-33,0l0,46l11,0q21,-3 144,-3q135,0 144,3l11,0l0,-46l-33,0q-40,-1 -51,-3t-18,-12l-1,-122l0,-122l285,0l0,244q-7,7 -11,9t-16,3t-43,3l-33,0l0,46l11,0q21,-3 144,-3q135,0 144,3l11,0l0,-46l-33,0q-40,-1 -51,-3t-18,-12l0,-561q6,-10 17,-12t52,-3l33,0l0,-46l-11,0q-21,3 -144,3q-135,0 -144,-3l-11,0l0,46l33,0q42,1 51,3t19,12l0,271l-285,0l0,-135l1,-136q6,-10 17,-12t52,-3l33,0l0,-46l-11,0q-21,3 -144,3q-135,0 -144,-3l-11,0l0,46l33,0q42,1 51,3t19,12l0,561z" stroke-width="10" id="svg_130"/>
        <path d="m11,179l0,73l266,0l0,-73l-266,0z" stroke-width="10" id="svg_129"/>
        <path d="m55,507q0,83 57,140t131,57l14,0q85,0 148,-63l21,31q5,7 10,15t10,13l3,4q1,0 4,0t6,1l4,0q3,0 9,-6l0,-237l-6,-6l-18,0q-11,0 -13,3t-5,20q-17,126 -101,167q-37,16 -75,16q-53,0 -86,-36t-33,-84q0,-34 17,-62t48,-45q10,-4 86,-23t84,-23q57,-22 93,-75t37,-123q0,-81 -52,-146t-147,-66q-56,0 -100,17t-61,31l-18,14q-4,-5 -15,-20t-20,-28t-9,-14q-2,-1 -10,-1l-4,0q-3,0 -9,6l0,117q0,119 1,121q2,5 20,5l13,0q6,-6 6,-13q0,-32 10,-63t34,-61t66,-48t100,-18q47,0 81,38t34,93q0,43 -22,78t-58,48q-56,14 -74,19q-5,1 -27,6t-33,8t-32,11t-33,18t-29,24t-27,35q-30,49 -30,105z" stroke-width="10" id="svg_128"/>
        <path d="m130,622q-7,7 -11,9t-16,3t-43,3l-33,0l0,46l187,0q23,0 62,0t55,1q88,0 140,-13t96,-55q57,-53 57,-127q0,-68 -51,-117t-122,-65q-22,-5 -123,-6l-94,0l0,-120q0,-119 3,-123q8,-11 67,-12l33,0l0,-46l-11,0q-21,3 -144,3q-135,0 -144,-3l-11,0l0,46l33,0q42,1 51,3t19,12l0,561zm377,-134q0,26 -1,40t-6,36t-17,33t-33,23t-53,15q-12,2 -90,2l-21,0q-49,0 -52,-9q-3,-4 -3,-145l0,-141l71,0l37,0q51,0 84,7t58,33q26,29 26,106z" stroke-width="10" id="svg_127"/>
        <path d="m21,287q0,14 15,48t48,71t74,36q41,0 66,-23t26,-64q-2,-19 -3,-21q0,-3 -16,-46t-33,-97t-16,-86q0,-43 14,-60t42,-18q23,0 43,11t31,23t27,33q0,1 5,20t14,59t19,74q38,150 42,157q13,27 43,27q13,0 21,-7t11,-12t2,-9q0,-13 -49,-210t-56,-216q-28,-83 -97,-132t-138,-50q-45,0 -79,22t-34,66q0,22 7,37t19,22t20,10t17,3q44,0 44,-42q0,-20 -12,-35t-23,-20t-13,-5l-3,-1q2,-5 19,-12t34,-7l8,0q17,0 26,2q33,9 61,38t43,62t23,56t8,30l-6,-4q-6,-4 -19,-11t-26,-12q-20,-5 -39,-5q-46,0 -81,22t-46,71q-1,7 -1,31q0,57 35,149t35,117q0,1 0,2q0,9 0,12t-4,7t-11,4l-4,0q-23,0 -42,-19t-30,-41t-17,-42t-8,-22q-2,-2 -16,-2l-14,0q-6,6 -6,9z" stroke-width="10" id="svg_123"/>
        <path d="m56,347q0,13 14,20l637,0q15,-8 15,-20q0,-11 -14,-19l-318,-1l-318,0q-16,5 -16,20zm0,-194q0,15 16,20l636,0q14,-10 14,-20q0,-13 -15,-20l-637,0q-14,7 -14,20z" stroke-width="10" id="svg_122"/>
        <path d="m56,237t0,13t14,20l299,0l0,150l1,150q10,13 19,13q13,0 20,-15l0,-298l298,0q15,-8 15,-20t-15,-20l-298,0l0,-298q-8,-14 -18,-14l-2,0l-2,0q-12,0 -18,14l0,298l-299,0q-14,7 -14,20l0,-13z" stroke-width="10" id="svg_126"/>
        <path d="m52,289q7,42 54,97t116,56q35,0 64,-18t43,-45q42,63 101,63q37,0 64,-22t28,-59q0,-29 -14,-47t-27,-22t-23,-4q-19,0 -31,11t-12,29q0,46 50,63q-11,13 -40,13q-13,0 -19,-2q-38,-16 -56,-66q-60,-221 -60,-258q0,-28 16,-40t35,-12q37,0 73,33t49,81q3,10 6,11t16,2l4,0q15,0 15,-8q0,-1 -2,-11q-16,-57 -62,-101t-107,-44q-70,0 -106,63q-41,-62 -94,-62l-6,0q-49,0 -70,26t-22,55q0,32 19,52t45,20q43,0 43,-42q0,-20 -12,-35t-23,-20t-13,-5l-3,-1q0,-1 6,-4t16,-7t19,-3q36,0 62,45q9,16 23,68t28,108t16,66q5,27 5,39q0,28 -15,40t-34,12q-40,0 -75,-32t-49,-82q-2,-9 -5,-10t-16,-2l-14,0q-6,6 -6,11z" stroke-width="10" id="svg_119"/>
        <path d="m84,237t0,13t14,20l581,0q15,-8 15,-20t-15,-20l-581,0q-14,7 -14,20l0,-13z" stroke-width="10" id="svg_120"/>
        <path d="m740,435q0,-115 -64,-222t-165,-171t-207,-64q-97,0 -166,57t-87,166q-1,8 -1,43q0,102 48,194t129,163q124,103 249,103q38,0 48,-1q97,-14 156,-86t60,-182zm-103,41q0,89 -46,139t-115,50q-80,0 -154,-60q-80,-63 -122,-177t-43,-212q0,-90 43,-143t114,-54q90,0 171,79t123,215q29,95 29,163z" stroke-width="10" id="svg_125"/>
        <path d="m208,74q0,-24 46,-28q18,0 18,-11q0,-1 -2,-13q-3,-14 -6,-18t-13,-4q-2,0 -12,0t-34,1t-64,1q-71,0 -91,-2l-8,0q-7,7 -7,11q2,27 13,35l14,0q70,3 102,50q6,6 181,305t178,303q7,12 24,12l8,0l17,0q6,-9 6,-10l28,-323q28,-323 30,-326q5,-11 65,-11q25,0 25,-10q0,-2 -3,-14q-3,-15 -5,-18t-14,-4q-3,0 -14,0t-39,1t-73,1q-94,0 -123,-2l-12,0q-6,6 -6,9t2,18q4,13 6,16l4,3l20,0q54,3 64,17l-12,150l-238,0l-34,-58q-41,-69 -41,-81zm308,186q0,11 -12,156t-14,146l-27,-43q-16,-27 -63,-107l-90,-152l103,-1q103,0 103,1z" stroke-width="10" id="svg_124"/>
       </defs>
       <g stroke="rgb(68, 68, 68)" id="svg_485" transform="matrix(1 0 0 -1 0 0)" stroke-width="0" fill="rgb(68, 68, 68)">
        <use id="svg_486" xlink:href="#svg_123"/>
        <use id="svg_487" y="0" x="779" xlink:href="#svg_122"/>
        <use id="svg_488" y="0" x="1840" xlink:href="#svg_121"/>
        <use id="svg_489" y="0" x="2567" xlink:href="#svg_120"/>
        <use id="svg_490" y="0" x="3573" xlink:href="#svg_119"/>
       </g>
      </svg>
     </g>
    </svg>
   </g>
  </g>
  <g id="svg_491" class="annotation">
   <g transform="matrix(2.10811 0 0 2.10811 -686.473 -59.2838)" id="svg_196" class="annotation-text-g">
    <svg id="svg_492" height="25" width="75" y="53" x="619">
     <rect stroke="rgb(0, 0, 0)" id="svg_493" stroke-width="1px" stroke-opacity="0" fill="rgb(0, 0, 0)" fill-opacity="0" height="24" width="74" y="0.5" x="0.5" class="bg"/>
     <g id="svg_235" class="annotation-math-group">
      <svg id="svg_494" width="5.603ex" y="2" x="1" preserveAspectRatio="xMinYMin meet" height="1.79ex" class="annotation-math" viewBox="0 -705.8452691183917 2420.5555555555557 756.6905382367834" xmlns:xlink="http://www.w3.org/1999/xlink">
       <defs>
        <path d="m132,622q-7,7 -11,9t-16,3t-43,3l-33,0l0,46l106,0q86,0 97,-1t17,-7q1,-1 105,-277l104,-274l104,274q104,276 106,277q3,6 15,7t98,1l106,0l0,-46l-33,0q-40,-1 -51,-3t-18,-12l0,-561q6,-10 17,-12t52,-3l33,0l0,-46l-11,0q-21,3 -140,3q-131,0 -140,-3l-11,0l0,46l33,0q42,1 51,3t19,12l0,286q0,77 0,114t0,85t0,67l-1,19q-233,-618 -237,-625q-4,-6 -20,-6t-20,6q-1,2 -118,309l-116,308l0,-18q-1,-18 -1,-63t0,-80t0,-107l1,-270q11,-36 85,-40l17,0l0,-46l-9,0q-15,3 -115,3q-102,0 -117,-3l-8,0l0,46l17,0q32,2 52,10t24,13t10,17l0,536z" stroke-width="10" id="svg_234"/>
        <path d="m347,338q-10,0 -53,11t-63,11q-20,0 -34,-4t-23,-10t-12,-11t-7,-11l-2,-4q-3,-3 -15,-3q-21,0 -21,8q0,5 3,14q13,39 43,67t66,34q12,2 17,2q25,0 45,-17t38,-33t38,-17q22,0 44,33t23,33q1,1 15,1l13,0q6,-6 6,-8q0,-4 -5,-14t-14,-21t-17,-22t-14,-19l-7,-9q-43,-51 -136,-135t-115,-108l-12,-12l15,-1q22,0 64,-11t63,-11q38,0 70,19t42,50q4,9 7,11t15,2q19,0 19,-10q0,-5 -1,-9q-17,-62 -66,-103t-98,-42q-26,0 -46,17t-39,34t-38,17q-44,0 -79,-60q-6,-8 -17,-8l-5,0l-13,0q-6,6 -6,9q0,15 58,86q39,45 132,130t115,108q12,16 7,16z" stroke-width="10" id="svg_233"/>
        <path d="m56,342q0,86 33,158t85,115t109,66t108,24q3,0 9,0t8,-1q91,0 161,-68l13,-12l30,39q27,37 31,41q1,0 4,0t6,1l4,0q3,0 9,-6l0,-280l-6,-6l-34,0q-6,6 -7,17q-9,82 -48,142t-95,79q-19,7 -50,7q-104,0 -174,-70q-79,-79 -79,-246q0,-121 38,-191q21,-40 52,-67t65,-39t56,-16t44,-5q89,0 143,69t55,151q0,7 6,13l28,0l6,-6l0,-15q-5,-103 -76,-180t-187,-77q-141,0 -244,104t-103,259z" stroke-width="10" id="svg_232"/>
        <path d="m117,59q0,-33 25,-33q37,0 63,105q6,20 10,21q2,1 10,1l4,0q9,0 12,0t5,-2t2,-7q-1,-6 -3,-16t-11,-38t-20,-47t-31,-37t-46,-17q-36,0 -67,22t-32,74q0,12 1,17l65,258q63,255 63,263q0,3 -1,5t-4,4t-5,2t-8,1t-8,1t-9,1t-10,0q-10,0 -13,0t-8,1t-6,3t-1,6q0,2 2,14q5,19 11,21t72,6q15,1 34,2t30,3t11,1q12,0 12,-8q0,-11 -73,-300t-75,-303q0,-2 0,-8t-1,-10l0,-6z" stroke-width="10" id="svg_231"/>
        <path d="m128,619q-7,7 -11,9t-16,3t-43,3l-33,0l0,46l572,0l0,-4q2,-6 14,-116t14,-116l0,-4l-40,0l0,4q-1,3 -3,21q-4,35 -12,61t-17,45t-25,30t-30,18t-41,10t-46,4t-58,1q-87,0 -102,-1t-18,-11q0,0 0,-1q-1,-2 -1,-124l0,-121l54,0q73,2 91,9q36,16 39,84q0,2 0,4l0,20l40,0l0,-280l-40,0l0,20q-1,35 -8,55t-25,29t-34,11t-52,2q-7,0 -11,0l-54,0l0,-134l0,-82q0,-57 5,-62q6,-5 52,-5l51,0l51,0q37,0 61,3t53,12t47,30t32,54q10,26 15,54t8,47t5,23l0,3l40,0l0,-3q-1,-3 -20,-133t-22,-134l0,-3l-585,0l0,46l33,0q42,1 51,3t19,12l0,558z" stroke-width="10" id="svg_230"/>
        <path d="m41,46l14,0q39,0 47,14l0,8q0,9 0,23t0,31t1,39t0,42q0,31 0,66t-1,59l0,23q-3,19 -14,25t-45,9l-18,0l0,23q0,23 2,23l10,1q10,1 28,2t37,2q17,1 36,2t29,3t11,1l3,0l0,-40q0,-38 1,-38t5,5t12,15t19,18t29,19t38,16q20,5 51,5q114,-4 127,-113q1,-7 1,-139l0,-86q0,-38 2,-45t11,-10q21,-3 49,-3l16,0l0,-46l-8,0l-24,1q-23,1 -50,1t-38,1q-103,0 -112,-3l-8,0l0,46l16,0q61,0 61,16q1,2 1,138q-1,135 -2,143q-6,28 -20,42t-24,17t-26,2q-45,0 -79,-34q-27,-27 -34,-55t-8,-83l0,-64l0,-60q0,-30 1,-40t3,-13t9,-6q21,-3 49,-3l16,0l0,-46l-8,0l-23,1q-24,1 -51,1t-38,1q-103,0 -112,-3l-8,0l0,46l16,0z" stroke-width="10" id="svg_229"/>
        <path stroke-width="10" id="svg_228"/>
        <path d="m131,622q-7,7 -11,9t-16,3t-43,3l-33,0l0,46l201,0l38,0l79,0q77,0 113,-5t72,-27q43,-24 68,-61t25,-78q0,-51 -41,-93t-107,-59l-10,-3q73,-9 129,-55t56,-115q0,-68 -51,-120t-131,-64q-13,-2 -227,-3l-214,0l0,46l33,0q42,1 51,3t19,12l0,561zm380,-109q0,47 -26,81t-69,42q-1,0 -13,0t-32,0t-38,1q-67,0 -82,-1t-19,-8q-3,-4 -3,-129l0,-125l83,0l84,1l10,2q4,1 11,3t25,13t32,24t25,39t12,57zm26,-325q0,51 -28,94t-79,54l-101,1l-100,0l0,-137l0,-84q0,-59 5,-64q6,-5 100,-5l49,0q42,0 60,6q43,14 68,51t26,84z" stroke-width="10" id="svg_227"/>
        <path d="m128,619q-7,7 -11,9t-16,3t-43,3l-33,0l0,46l557,0l0,-4q2,-6 14,-116t14,-116l0,-4l-40,0l0,4q-7,49 -9,57q-6,37 -18,62t-27,38t-39,21t-46,9t-57,2l-40,0l-48,0q-34,0 -42,-2t-11,-10q-1,-2 -1,-131l0,-127l52,0q3,0 19,0t24,1t22,3t23,6t17,12q18,18 21,74l0,21l40,0l0,-280l-40,0l0,21q-3,55 -21,75q-8,7 -18,11t-23,6t-21,3t-24,1t-19,0l-52,0l0,-128l1,-128q7,-7 12,-9t25,-4t63,-2l27,0l0,-46l-12,0q-24,3 -166,3q-131,0 -146,-3l-11,0l0,46l33,0q42,1 51,3t19,12l0,558z" stroke-width="10" id="svg_226"/>
        <path d="m328,0q-21,3 -148,3t-148,-3l-11,0l0,46l22,0q49,0 63,3t20,11q2,3 2,282q0,278 -2,281q-4,5 -8,7t-22,5t-53,2l-22,0l0,46l11,0q21,-3 148,-3t148,3l11,0l0,-46l-22,0q-49,0 -63,-3t-20,-11q-2,-3 -2,-281q0,-279 2,-282q4,-5 8,-7t22,-5t53,-2l22,0l0,-46l-11,0z" stroke-width="10" id="svg_225"/>
        <path d="m295,316q0,40 -27,69t-78,29q-36,0 -62,-13q-30,-19 -30,-52q-1,-5 0,-13t16,-24t43,-25q18,-5 44,-9t44,-9t32,-13q17,-8 33,-20t32,-41t17,-62q0,-62 -38,-102t-123,-41l-8,0q-52,0 -96,36l-8,-7l-9,-9q-6,-6 -12,-11l-11,-10l-8,0l-4,0q-3,0 -9,6l0,79l0,58q0,21 2,25t10,5l9,0q12,0 16,-4t5,-12t7,-27t19,-42q35,-51 97,-51q97,0 97,78q0,29 -18,47q-20,24 -83,36t-83,23q-36,17 -57,46t-21,62q0,39 17,66t43,40t50,18t44,5l11,0q40,0 70,-15l15,-8l9,7q10,9 22,17l8,0l4,0q3,0 9,-6l0,-132l-6,-6l-28,0q-6,6 -6,12z" stroke-width="10" id="svg_224"/>
        <path d="m27,422q53,4 82,56t32,122l0,15l40,0l0,-184l135,0l0,-46l-135,0l0,-144q1,-125 1,-141t7,-32q14,-39 49,-39q44,0 54,71q1,8 1,46l0,35l40,0l0,-35l0,-12q0,-77 -42,-117q-27,-27 -70,-27q-34,0 -59,12t-38,31t-19,35t-7,32q-1,7 -1,148l0,137l-79,0l0,37l9,0z" stroke-width="10" id="svg_223"/>
        <path d="m137,305t-22,0t-37,15t-15,39q0,35 34,62t121,27q73,0 118,-32t60,-76q5,-14 5,-31t1,-115l0,-70q0,-48 5,-66t21,-18q15,0 20,16t5,53l0,36l40,0l0,-39q-1,-40 -3,-47q-9,-30 -35,-47t-55,-18t-47,18t-24,42l0,4l-2,-3q-2,-3 -5,-6t-8,-9t-12,-11t-15,-12t-18,-11t-22,-8t-26,-6t-31,-3q-60,0 -108,31t-48,87q0,21 7,40t27,41t48,37t78,28t110,15l14,0l0,22q0,34 -6,50q-22,71 -97,71q-18,0 -34,-1t-25,-4t-8,-3q22,-15 22,-44q0,-25 -16,-39l-17,-15zm-11,-199q0,-31 24,-55t59,-25q38,0 67,23t39,60q2,7 3,66q0,58 -1,58q-8,0 -21,-1t-45,-9t-58,-20t-46,-37t-21,-60z" stroke-width="10" id="svg_222"/>
        <path d="m370,305t-21,0t-36,15t-16,38q0,23 15,38q5,5 5,6t-10,2q-26,4 -49,4q-49,0 -80,-32q-47,-47 -47,-157q0,-82 31,-129q41,-61 110,-61q41,0 66,26t36,62q2,8 5,10t16,2l14,0q6,-6 6,-9q0,-4 -4,-16t-16,-33t-29,-38t-48,-31t-69,-13q-86,0 -150,64t-65,161q0,104 65,169t151,65t120,-27t34,-64q0,-23 -17,-37l-17,-15z" stroke-width="10" id="svg_221"/>
        <path d="m69,609q0,28 18,44t44,16q23,-2 40,-17t17,-43q0,-30 -17,-45t-42,-15q-25,0 -42,15t-18,45zm178,-609q-15,3 -104,3q-11,0 -37,0t-50,-2l-22,-1l-8,0l0,46l16,0q28,0 49,3q9,4 11,11t2,42l0,103l0,88q0,52 -2,66t-14,19q-14,7 -47,7l-11,0l0,23q0,23 2,23l10,1q10,1 28,2t36,2q17,1 36,2t29,3t11,1l3,0l0,-380q5,-10 12,-12t35,-4l23,0l0,-46l-8,0z" stroke-width="10" id="svg_220"/>
        <path d="m28,214q0,95 65,164t157,70q90,0 155,-68t66,-165q0,-95 -64,-160t-157,-65q-97,0 -159,67t-63,157zm222,-184q122,0 122,163l0,32l0,25q0,22 -1,38t-7,38t-16,36t-31,28t-49,20q-5,1 -16,1q-30,0 -57,-12q-43,-22 -56,-61t-13,-92l0,-20q0,-96 19,-135q32,-61 105,-61z" stroke-width="10" id="svg_219"/>
        <path d="m42,46l14,0q39,0 47,14l0,8q0,9 0,23t0,33t1,43t0,50t0,55t0,57q0,37 0,78t0,75t0,60t-1,44t0,17q-3,19 -14,25t-45,9l-18,0l0,23q0,23 2,23l10,1q10,1 29,2t37,2q17,1 37,2t30,3t11,1l3,0l0,-315q0,-317 1,-319q4,-8 12,-11q21,-3 49,-3l16,0l0,-46l-8,0l-23,1q-23,1 -49,1t-38,1t-38,0t-50,-2l-23,-1l-8,0l0,46l16,0z" stroke-width="10" id="svg_218"/>
        <path d="m28,218q0,55 20,100t50,73t65,42t66,15q53,0 91,-18t58,-50t28,-64t9,-71q0,-7 -7,-14l-282,0l0,-15q0,-148 100,-180q20,-6 44,-6q42,0 72,32q17,17 27,42l10,24q3,3 16,3l3,0q17,0 17,-10q0,-4 -3,-13q-19,-55 -63,-87t-99,-32q-95,0 -158,69t-64,160zm305,57q-11,128 -95,136l-2,0q-8,0 -16,-1t-25,-8t-29,-21t-23,-41t-16,-66l0,-7l206,0l0,8z" stroke-width="10" id="svg_217"/>
        <path d="m98,609q0,28 18,44t44,16q23,-2 40,-17t17,-43q0,-30 -17,-45t-42,-15q-25,0 -42,15t-18,45zm-70,-772q30,-5 36,-5q60,0 71,91q2,12 2,218t-1,212q-4,18 -16,24t-48,8l-20,0l0,23q0,23 2,23l4,1q4,0 12,0t17,1t21,1t25,2q18,1 38,2t31,3t12,1l4,0l0,-258q-1,-220 -1,-243t-6,-39q-16,-47 -58,-77t-95,-30q-49,0 -81,26t-32,62q0,23 15,38t38,15t38,-15t16,-39q0,-25 -24,-45z" stroke-width="10" id="svg_216"/>
        <path d="m36,46l14,0q39,0 47,14l0,8q0,9 0,23t1,31t0,39t0,42q0,31 0,66t0,59l-1,23q-3,19 -14,25t-45,9l-18,0l0,23q0,23 2,23l10,1q10,1 28,2t36,2q16,1 35,2t29,3t11,1l3,0l0,-69q39,68 97,68l6,0q45,0 66,-22t21,-46q0,-21 -13,-36t-38,-15q-25,0 -37,16t-13,34q0,9 2,16t5,12t3,5q-2,2 -23,-4q-16,-8 -24,-15q-47,-45 -47,-179l0,-53q0,-13 0,-27t0,-26t1,-20t0,-15l0,-5q1,-2 3,-4t5,-3t5,-3t7,-2t7,-1t9,-1t9,0t10,-1t10,0l31,0l0,-46l-9,0q-18,3 -127,3q-103,0 -112,-3l-8,0l0,46l16,0z" stroke-width="10" id="svg_215"/>
        <path d="m130,622q-7,7 -11,9t-16,3t-43,3l-33,0l0,46l175,0l34,0l64,0q76,0 117,-6t83,-29q95,-48 109,-131q1,-5 1,-16q0,-33 -16,-62t-38,-47t-45,-31t-39,-18l-16,-5q3,-3 11,-6q30,-16 49,-34t29,-44t14,-43t9,-56t10,-61q10,-48 24,-63t38,-15l5,0q15,0 29,16t18,55q0,11 4,14t16,4t16,-2t4,-13q0,-31 -16,-63t-44,-43q-16,-6 -42,-6q-149,6 -172,112q-2,11 -2,73t-7,83q-19,58 -76,74l-10,2l-66,1l-66,0l0,-131l1,-131q6,-10 17,-12t52,-3l33,0l0,-46l-11,0q-21,3 -142,3q-122,0 -143,-3l-11,0l0,46l33,0q42,1 51,3t19,12l0,561zm361,-123l0,10q0,18 -1,30t-9,31t-19,31t-38,22t-62,13q-2,0 -22,0t-36,1l-21,0q-45,0 -49,-9q-3,-4 -3,-136l0,-132l58,0q101,0 145,18t55,78q2,11 2,43z" stroke-width="10" id="svg_214"/>
        <path d="m56,340q0,83 30,154t78,116t106,70t118,25q133,0 233,-104t101,-260q0,-81 -29,-150t-76,-116t-107,-71t-122,-26t-121,25t-107,71t-75,115t-29,151zm411,307q-41,18 -79,18q-28,0 -57,-11t-62,-34t-56,-71t-34,-110q-5,-28 -5,-85q0,-210 103,-293q50,-41 108,-41l4,0l2,0q83,0 146,79q66,89 66,255q0,57 -5,85q-21,153 -131,208z" stroke-width="10" id="svg_213"/>
        <path d="m255,0q-15,3 -115,3q-92,0 -101,-3l-7,0l0,46l15,0q72,3 92,42q1,3 53,157t103,308t53,155q3,8 18,8l10,0q20,-1 24,-7q2,-2 108,-319l109,-323q7,-13 19,-16t51,-5l30,0l0,-46l-9,0q-9,3 -127,3q-123,0 -144,-3l-10,0l0,46l13,0q70,0 70,18q0,2 -24,74l-24,71l-233,0l-20,-59q-20,-59 -20,-65q0,-13 20,-26t50,-13l5,0l0,-46l-9,0zm192,255l-102,302l-101,-301q0,-1 101,-1l102,0z" stroke-width="10" id="svg_212"/>
        <path d="m130,622q-7,7 -11,9t-16,3t-43,3l-33,0l0,46l201,0q171,-1 191,-1t42,-6q43,-9 85,-35t80,-68t59,-103t23,-134q0,-126 -74,-220t-192,-113q-13,-2 -214,-3l-201,0l0,46l33,0q42,1 51,3t19,12l0,561zm463,-284q0,101 -22,163t-78,101q-54,35 -138,35l-33,0l-28,0q-56,0 -60,-9q-3,-4 -3,-284q0,-282 1,-285q1,-10 16,-11t91,-2l11,0q106,0 165,49q46,38 62,96t16,147z" stroke-width="10" id="svg_211"/>
        <path d="m109,429q-27,0 -43,18t-16,44q0,71 53,123t132,52q91,0 152,-56t62,-145q0,-43 -20,-82t-48,-68t-80,-74q-36,-31 -100,-92l-59,-56l76,-1q157,0 167,5q7,2 24,89l0,3l40,0l0,-3q-1,-3 -13,-91t-15,-92l0,-3l-371,0l0,19l0,12q0,7 6,15t30,35q29,32 50,56q9,10 34,37t34,37t29,33t28,34t23,30t21,32t15,29t13,32t7,30t3,33q0,63 -34,109t-97,46q-33,0 -58,-17t-35,-33t-10,-19q0,-1 5,-1q18,0 37,-14t19,-46q0,-25 -16,-42t-45,-18z" stroke-width="10" id="svg_197"/>
        <path d="m96,585q56,81 153,81q48,0 96,-26t78,-92q37,-83 37,-228q0,-155 -43,-237q-20,-42 -55,-67t-61,-31t-51,-7q-26,0 -52,6t-61,32t-55,67q-43,82 -43,237q0,174 57,265zm225,12q-30,32 -71,32q-42,0 -72,-32q-25,-26 -33,-72t-8,-192q0,-158 8,-208t36,-79q28,-30 69,-30q40,0 68,30q29,30 36,84t8,203q0,145 -8,191t-33,73z" stroke-width="10" id="svg_210"/>
        <path d="m213,578l-13,-5q-14,-5 -40,-10t-58,-7l-19,0l0,46l19,0q47,2 87,15t56,24t28,22q2,3 12,3q9,0 17,-6l0,-299l1,-300q7,-7 12,-9t24,-4t62,-2l26,0l0,-46l-11,0q-21,3 -159,3q-136,0 -157,-3l-12,0l0,46l26,0q22,0 38,0t25,1t16,3t8,2t6,5t6,4l0,517z" stroke-width="10" id="svg_209"/>
        <path d="m128,622q-7,7 -11,9t-16,3t-43,3l-33,0l0,46l11,0q21,-3 144,-3q135,0 144,3l11,0l0,-46l-33,0q-40,-1 -51,-3t-18,-12l-1,-122l0,-122l285,0l0,244q-7,7 -11,9t-16,3t-43,3l-33,0l0,46l11,0q21,-3 144,-3q135,0 144,3l11,0l0,-46l-33,0q-40,-1 -51,-3t-18,-12l0,-561q6,-10 17,-12t52,-3l33,0l0,-46l-11,0q-21,3 -144,3q-135,0 -144,-3l-11,0l0,46l33,0q42,1 51,3t19,12l0,271l-285,0l0,-135l1,-136q6,-10 17,-12t52,-3l33,0l0,-46l-11,0q-21,3 -144,3q-135,0 -144,-3l-11,0l0,46l33,0q42,1 51,3t19,12l0,561z" stroke-width="10" id="svg_208"/>
        <path d="m11,179l0,73l266,0l0,-73l-266,0z" stroke-width="10" id="svg_207"/>
        <path d="m55,507q0,83 57,140t131,57l14,0q85,0 148,-63l21,31q5,7 10,15t10,13l3,4q1,0 4,0t6,1l4,0q3,0 9,-6l0,-237l-6,-6l-18,0q-11,0 -13,3t-5,20q-17,126 -101,167q-37,16 -75,16q-53,0 -86,-36t-33,-84q0,-34 17,-62t48,-45q10,-4 86,-23t84,-23q57,-22 93,-75t37,-123q0,-81 -52,-146t-147,-66q-56,0 -100,17t-61,31l-18,14q-4,-5 -15,-20t-20,-28t-9,-14q-2,-1 -10,-1l-4,0q-3,0 -9,6l0,117q0,119 1,121q2,5 20,5l13,0q6,-6 6,-13q0,-32 10,-63t34,-61t66,-48t100,-18q47,0 81,38t34,93q0,43 -22,78t-58,48q-56,14 -74,19q-5,1 -27,6t-33,8t-32,11t-33,18t-29,24t-27,35q-30,49 -30,105z" stroke-width="10" id="svg_206"/>
        <path d="m130,622q-7,7 -11,9t-16,3t-43,3l-33,0l0,46l187,0q23,0 62,0t55,1q88,0 140,-13t96,-55q57,-53 57,-127q0,-68 -51,-117t-122,-65q-22,-5 -123,-6l-94,0l0,-120q0,-119 3,-123q8,-11 67,-12l33,0l0,-46l-11,0q-21,3 -144,3q-135,0 -144,-3l-11,0l0,46l33,0q42,1 51,3t19,12l0,561zm377,-134q0,26 -1,40t-6,36t-17,33t-33,23t-53,15q-12,2 -90,2l-21,0q-49,0 -52,-9q-3,-4 -3,-145l0,-141l71,0l37,0q51,0 84,7t58,33q26,29 26,106z" stroke-width="10" id="svg_205"/>
        <path d="m21,287q0,14 15,48t48,71t74,36q41,0 66,-23t26,-64q-2,-19 -3,-21q0,-3 -16,-46t-33,-97t-16,-86q0,-43 14,-60t42,-18q23,0 43,11t31,23t27,33q0,1 5,20t14,59t19,74q38,150 42,157q13,27 43,27q13,0 21,-7t11,-12t2,-9q0,-13 -49,-210t-56,-216q-28,-83 -97,-132t-138,-50q-45,0 -79,22t-34,66q0,22 7,37t19,22t20,10t17,3q44,0 44,-42q0,-20 -12,-35t-23,-20t-13,-5l-3,-1q2,-5 19,-12t34,-7l8,0q17,0 26,2q33,9 61,38t43,62t23,56t8,30l-6,-4q-6,-4 -19,-11t-26,-12q-20,-5 -39,-5q-46,0 -81,22t-46,71q-1,7 -1,31q0,57 35,149t35,117q0,1 0,2q0,9 0,12t-4,7t-11,4l-4,0q-23,0 -42,-19t-30,-41t-17,-42t-8,-22q-2,-2 -16,-2l-14,0q-6,6 -6,9z" stroke-width="10" id="svg_204"/>
        <path d="m56,347q0,13 14,20l637,0q15,-8 15,-20q0,-11 -14,-19l-318,-1l-318,0q-16,5 -16,20zm0,-194q0,15 16,20l636,0q14,-10 14,-20q0,-13 -15,-20l-637,0q-14,7 -14,20z" stroke-width="10" id="svg_198"/>
        <path d="m56,237t0,13t14,20l299,0l0,150l1,150q10,13 19,13q13,0 20,-15l0,-298l298,0q15,-8 15,-20t-15,-20l-298,0l0,-298q-8,-14 -18,-14l-2,0l-2,0q-12,0 -18,14l0,298l-299,0q-14,7 -14,20l0,-13z" stroke-width="10" id="svg_203"/>
        <path d="m52,289q7,42 54,97t116,56q35,0 64,-18t43,-45q42,63 101,63q37,0 64,-22t28,-59q0,-29 -14,-47t-27,-22t-23,-4q-19,0 -31,11t-12,29q0,46 50,63q-11,13 -40,13q-13,0 -19,-2q-38,-16 -56,-66q-60,-221 -60,-258q0,-28 16,-40t35,-12q37,0 73,33t49,81q3,10 6,11t16,2l4,0q15,0 15,-8q0,-1 -2,-11q-16,-57 -62,-101t-107,-44q-70,0 -106,63q-41,-62 -94,-62l-6,0q-49,0 -70,26t-22,55q0,32 19,52t45,20q43,0 43,-42q0,-20 -12,-35t-23,-20t-13,-5l-3,-1q0,-1 6,-4t16,-7t19,-3q36,0 62,45q9,16 23,68t28,108t16,66q5,27 5,39q0,28 -15,40t-34,12q-40,0 -75,-32t-49,-82q-2,-9 -5,-10t-16,-2l-14,0q-6,6 -6,11z" stroke-width="10" id="svg_199"/>
        <path d="m84,237t0,13t14,20l581,0q15,-8 15,-20t-15,-20l-581,0q-14,7 -14,20l0,-13z" stroke-width="10" id="svg_202"/>
        <path d="m740,435q0,-115 -64,-222t-165,-171t-207,-64q-97,0 -166,57t-87,166q-1,8 -1,43q0,102 48,194t129,163q124,103 249,103q38,0 48,-1q97,-14 156,-86t60,-182zm-103,41q0,89 -46,139t-115,50q-80,0 -154,-60q-80,-63 -122,-177t-43,-212q0,-90 43,-143t114,-54q90,0 171,79t123,215q29,95 29,163z" stroke-width="10" id="svg_201"/>
        <path d="m208,74q0,-24 46,-28q18,0 18,-11q0,-1 -2,-13q-3,-14 -6,-18t-13,-4q-2,0 -12,0t-34,1t-64,1q-71,0 -91,-2l-8,0q-7,7 -7,11q2,27 13,35l14,0q70,3 102,50q6,6 181,305t178,303q7,12 24,12l8,0l17,0q6,-9 6,-10l28,-323q28,-323 30,-326q5,-11 65,-11q25,0 25,-10q0,-2 -3,-14q-3,-15 -5,-18t-14,-4q-3,0 -14,0t-39,1t-73,1q-94,0 -123,-2l-12,0q-6,6 -6,9t2,18q4,13 6,16l4,3l20,0q54,3 64,17l-12,150l-238,0l-34,-58q-41,-69 -41,-81zm308,186q0,11 -12,156t-14,146l-27,-43q-16,-27 -63,-107l-90,-152l103,-1q103,0 103,1z" stroke-width="10" id="svg_200"/>
       </defs>
       <g stroke="rgb(68, 68, 68)" id="svg_495" transform="matrix(1 0 0 -1 0 0)" stroke-width="0" fill="rgb(68, 68, 68)">
        <use id="svg_496" xlink:href="#svg_199"/>
        <use id="svg_497" y="0" x="854" xlink:href="#svg_198"/>
        <use id="svg_498" y="0" x="1915" xlink:href="#svg_197"/>
       </g>
      </svg>
     </g>
    </svg>
   </g>
  </g>
  <g id="svg_499" class="annotation">
   <g transform="matrix(2.5 0 0 2.5 -459.75 -551.25)" id="svg_274" class="annotation-text-g">
    <svg id="svg_500" height="26" width="25" y="367" x="306">
     <rect stroke="rgb(0, 0, 0)" id="svg_501" stroke-width="1px" stroke-opacity="0" fill="rgb(0, 0, 0)" fill-opacity="0" height="25" width="24" y="0.5" x="0.5" class="bg"/>
     <g id="svg_313" class="annotation-math-group">
      <svg id="svg_502" width="1.79ex" y="2" x="1" preserveAspectRatio="xMinYMin meet" height="1.868ex" class="annotation-math" viewBox="0 -743.8452691183917 768 805.6905382367834" xmlns:xlink="http://www.w3.org/1999/xlink">
       <defs>
        <path d="m132,622q-7,7 -11,9t-16,3t-43,3l-33,0l0,46l106,0q86,0 97,-1t17,-7q1,-1 105,-277l104,-274l104,274q104,276 106,277q3,6 15,7t98,1l106,0l0,-46l-33,0q-40,-1 -51,-3t-18,-12l0,-561q6,-10 17,-12t52,-3l33,0l0,-46l-11,0q-21,3 -140,3q-131,0 -140,-3l-11,0l0,46l33,0q42,1 51,3t19,12l0,286q0,77 0,114t0,85t0,67l-1,19q-233,-618 -237,-625q-4,-6 -20,-6t-20,6q-1,2 -118,309l-116,308l0,-18q-1,-18 -1,-63t0,-80t0,-107l1,-270q11,-36 85,-40l17,0l0,-46l-9,0q-15,3 -115,3q-102,0 -117,-3l-8,0l0,46l17,0q32,2 52,10t24,13t10,17l0,536z" stroke-width="10" id="svg_312"/>
        <path d="m347,338q-10,0 -53,11t-63,11q-20,0 -34,-4t-23,-10t-12,-11t-7,-11l-2,-4q-3,-3 -15,-3q-21,0 -21,8q0,5 3,14q13,39 43,67t66,34q12,2 17,2q25,0 45,-17t38,-33t38,-17q22,0 44,33t23,33q1,1 15,1l13,0q6,-6 6,-8q0,-4 -5,-14t-14,-21t-17,-22t-14,-19l-7,-9q-43,-51 -136,-135t-115,-108l-12,-12l15,-1q22,0 64,-11t63,-11q38,0 70,19t42,50q4,9 7,11t15,2q19,0 19,-10q0,-5 -1,-9q-17,-62 -66,-103t-98,-42q-26,0 -46,17t-39,34t-38,17q-44,0 -79,-60q-6,-8 -17,-8l-5,0l-13,0q-6,6 -6,9q0,15 58,86q39,45 132,130t115,108q12,16 7,16z" stroke-width="10" id="svg_311"/>
        <path d="m56,342q0,86 33,158t85,115t109,66t108,24q3,0 9,0t8,-1q91,0 161,-68l13,-12l30,39q27,37 31,41q1,0 4,0t6,1l4,0q3,0 9,-6l0,-280l-6,-6l-34,0q-6,6 -7,17q-9,82 -48,142t-95,79q-19,7 -50,7q-104,0 -174,-70q-79,-79 -79,-246q0,-121 38,-191q21,-40 52,-67t65,-39t56,-16t44,-5q89,0 143,69t55,151q0,7 6,13l28,0l6,-6l0,-15q-5,-103 -76,-180t-187,-77q-141,0 -244,104t-103,259z" stroke-width="10" id="svg_310"/>
        <path d="m117,59q0,-33 25,-33q37,0 63,105q6,20 10,21q2,1 10,1l4,0q9,0 12,0t5,-2t2,-7q-1,-6 -3,-16t-11,-38t-20,-47t-31,-37t-46,-17q-36,0 -67,22t-32,74q0,12 1,17l65,258q63,255 63,263q0,3 -1,5t-4,4t-5,2t-8,1t-8,1t-9,1t-10,0q-10,0 -13,0t-8,1t-6,3t-1,6q0,2 2,14q5,19 11,21t72,6q15,1 34,2t30,3t11,1q12,0 12,-8q0,-11 -73,-300t-75,-303q0,-2 0,-8t-1,-10l0,-6z" stroke-width="10" id="svg_309"/>
        <path d="m128,619q-7,7 -11,9t-16,3t-43,3l-33,0l0,46l572,0l0,-4q2,-6 14,-116t14,-116l0,-4l-40,0l0,4q-1,3 -3,21q-4,35 -12,61t-17,45t-25,30t-30,18t-41,10t-46,4t-58,1q-87,0 -102,-1t-18,-11q0,0 0,-1q-1,-2 -1,-124l0,-121l54,0q73,2 91,9q36,16 39,84q0,2 0,4l0,20l40,0l0,-280l-40,0l0,20q-1,35 -8,55t-25,29t-34,11t-52,2q-7,0 -11,0l-54,0l0,-134l0,-82q0,-57 5,-62q6,-5 52,-5l51,0l51,0q37,0 61,3t53,12t47,30t32,54q10,26 15,54t8,47t5,23l0,3l40,0l0,-3q-1,-3 -20,-133t-22,-134l0,-3l-585,0l0,46l33,0q42,1 51,3t19,12l0,558z" stroke-width="10" id="svg_308"/>
        <path d="m41,46l14,0q39,0 47,14l0,8q0,9 0,23t0,31t1,39t0,42q0,31 0,66t-1,59l0,23q-3,19 -14,25t-45,9l-18,0l0,23q0,23 2,23l10,1q10,1 28,2t37,2q17,1 36,2t29,3t11,1l3,0l0,-40q0,-38 1,-38t5,5t12,15t19,18t29,19t38,16q20,5 51,5q114,-4 127,-113q1,-7 1,-139l0,-86q0,-38 2,-45t11,-10q21,-3 49,-3l16,0l0,-46l-8,0l-24,1q-23,1 -50,1t-38,1q-103,0 -112,-3l-8,0l0,46l16,0q61,0 61,16q1,2 1,138q-1,135 -2,143q-6,28 -20,42t-24,17t-26,2q-45,0 -79,-34q-27,-27 -34,-55t-8,-83l0,-64l0,-60q0,-30 1,-40t3,-13t9,-6q21,-3 49,-3l16,0l0,-46l-8,0l-23,1q-24,1 -51,1t-38,1q-103,0 -112,-3l-8,0l0,46l16,0z" stroke-width="10" id="svg_307"/>
        <path stroke-width="10" id="svg_306"/>
        <path d="m131,622q-7,7 -11,9t-16,3t-43,3l-33,0l0,46l201,0l38,0l79,0q77,0 113,-5t72,-27q43,-24 68,-61t25,-78q0,-51 -41,-93t-107,-59l-10,-3q73,-9 129,-55t56,-115q0,-68 -51,-120t-131,-64q-13,-2 -227,-3l-214,0l0,46l33,0q42,1 51,3t19,12l0,561zm380,-109q0,47 -26,81t-69,42q-1,0 -13,0t-32,0t-38,1q-67,0 -82,-1t-19,-8q-3,-4 -3,-129l0,-125l83,0l84,1l10,2q4,1 11,3t25,13t32,24t25,39t12,57zm26,-325q0,51 -28,94t-79,54l-101,1l-100,0l0,-137l0,-84q0,-59 5,-64q6,-5 100,-5l49,0q42,0 60,6q43,14 68,51t26,84z" stroke-width="10" id="svg_305"/>
        <path d="m128,619q-7,7 -11,9t-16,3t-43,3l-33,0l0,46l557,0l0,-4q2,-6 14,-116t14,-116l0,-4l-40,0l0,4q-7,49 -9,57q-6,37 -18,62t-27,38t-39,21t-46,9t-57,2l-40,0l-48,0q-34,0 -42,-2t-11,-10q-1,-2 -1,-131l0,-127l52,0q3,0 19,0t24,1t22,3t23,6t17,12q18,18 21,74l0,21l40,0l0,-280l-40,0l0,21q-3,55 -21,75q-8,7 -18,11t-23,6t-21,3t-24,1t-19,0l-52,0l0,-128l1,-128q7,-7 12,-9t25,-4t63,-2l27,0l0,-46l-12,0q-24,3 -166,3q-131,0 -146,-3l-11,0l0,46l33,0q42,1 51,3t19,12l0,558z" stroke-width="10" id="svg_304"/>
        <path d="m328,0q-21,3 -148,3t-148,-3l-11,0l0,46l22,0q49,0 63,3t20,11q2,3 2,282q0,278 -2,281q-4,5 -8,7t-22,5t-53,2l-22,0l0,46l11,0q21,-3 148,-3t148,3l11,0l0,-46l-22,0q-49,0 -63,-3t-20,-11q-2,-3 -2,-281q0,-279 2,-282q4,-5 8,-7t22,-5t53,-2l22,0l0,-46l-11,0z" stroke-width="10" id="svg_303"/>
        <path d="m295,316q0,40 -27,69t-78,29q-36,0 -62,-13q-30,-19 -30,-52q-1,-5 0,-13t16,-24t43,-25q18,-5 44,-9t44,-9t32,-13q17,-8 33,-20t32,-41t17,-62q0,-62 -38,-102t-123,-41l-8,0q-52,0 -96,36l-8,-7l-9,-9q-6,-6 -12,-11l-11,-10l-8,0l-4,0q-3,0 -9,6l0,79l0,58q0,21 2,25t10,5l9,0q12,0 16,-4t5,-12t7,-27t19,-42q35,-51 97,-51q97,0 97,78q0,29 -18,47q-20,24 -83,36t-83,23q-36,17 -57,46t-21,62q0,39 17,66t43,40t50,18t44,5l11,0q40,0 70,-15l15,-8l9,7q10,9 22,17l8,0l4,0q3,0 9,-6l0,-132l-6,-6l-28,0q-6,6 -6,12z" stroke-width="10" id="svg_302"/>
        <path d="m27,422q53,4 82,56t32,122l0,15l40,0l0,-184l135,0l0,-46l-135,0l0,-144q1,-125 1,-141t7,-32q14,-39 49,-39q44,0 54,71q1,8 1,46l0,35l40,0l0,-35l0,-12q0,-77 -42,-117q-27,-27 -70,-27q-34,0 -59,12t-38,31t-19,35t-7,32q-1,7 -1,148l0,137l-79,0l0,37l9,0z" stroke-width="10" id="svg_301"/>
        <path d="m137,305t-22,0t-37,15t-15,39q0,35 34,62t121,27q73,0 118,-32t60,-76q5,-14 5,-31t1,-115l0,-70q0,-48 5,-66t21,-18q15,0 20,16t5,53l0,36l40,0l0,-39q-1,-40 -3,-47q-9,-30 -35,-47t-55,-18t-47,18t-24,42l0,4l-2,-3q-2,-3 -5,-6t-8,-9t-12,-11t-15,-12t-18,-11t-22,-8t-26,-6t-31,-3q-60,0 -108,31t-48,87q0,21 7,40t27,41t48,37t78,28t110,15l14,0l0,22q0,34 -6,50q-22,71 -97,71q-18,0 -34,-1t-25,-4t-8,-3q22,-15 22,-44q0,-25 -16,-39l-17,-15zm-11,-199q0,-31 24,-55t59,-25q38,0 67,23t39,60q2,7 3,66q0,58 -1,58q-8,0 -21,-1t-45,-9t-58,-20t-46,-37t-21,-60z" stroke-width="10" id="svg_300"/>
        <path d="m370,305t-21,0t-36,15t-16,38q0,23 15,38q5,5 5,6t-10,2q-26,4 -49,4q-49,0 -80,-32q-47,-47 -47,-157q0,-82 31,-129q41,-61 110,-61q41,0 66,26t36,62q2,8 5,10t16,2l14,0q6,-6 6,-9q0,-4 -4,-16t-16,-33t-29,-38t-48,-31t-69,-13q-86,0 -150,64t-65,161q0,104 65,169t151,65t120,-27t34,-64q0,-23 -17,-37l-17,-15z" stroke-width="10" id="svg_299"/>
        <path d="m69,609q0,28 18,44t44,16q23,-2 40,-17t17,-43q0,-30 -17,-45t-42,-15q-25,0 -42,15t-18,45zm178,-609q-15,3 -104,3q-11,0 -37,0t-50,-2l-22,-1l-8,0l0,46l16,0q28,0 49,3q9,4 11,11t2,42l0,103l0,88q0,52 -2,66t-14,19q-14,7 -47,7l-11,0l0,23q0,23 2,23l10,1q10,1 28,2t36,2q17,1 36,2t29,3t11,1l3,0l0,-380q5,-10 12,-12t35,-4l23,0l0,-46l-8,0z" stroke-width="10" id="svg_298"/>
        <path d="m28,214q0,95 65,164t157,70q90,0 155,-68t66,-165q0,-95 -64,-160t-157,-65q-97,0 -159,67t-63,157zm222,-184q122,0 122,163l0,32l0,25q0,22 -1,38t-7,38t-16,36t-31,28t-49,20q-5,1 -16,1q-30,0 -57,-12q-43,-22 -56,-61t-13,-92l0,-20q0,-96 19,-135q32,-61 105,-61z" stroke-width="10" id="svg_297"/>
        <path d="m42,46l14,0q39,0 47,14l0,8q0,9 0,23t0,33t1,43t0,50t0,55t0,57q0,37 0,78t0,75t0,60t-1,44t0,17q-3,19 -14,25t-45,9l-18,0l0,23q0,23 2,23l10,1q10,1 29,2t37,2q17,1 37,2t30,3t11,1l3,0l0,-315q0,-317 1,-319q4,-8 12,-11q21,-3 49,-3l16,0l0,-46l-8,0l-23,1q-23,1 -49,1t-38,1t-38,0t-50,-2l-23,-1l-8,0l0,46l16,0z" stroke-width="10" id="svg_296"/>
        <path d="m28,218q0,55 20,100t50,73t65,42t66,15q53,0 91,-18t58,-50t28,-64t9,-71q0,-7 -7,-14l-282,0l0,-15q0,-148 100,-180q20,-6 44,-6q42,0 72,32q17,17 27,42l10,24q3,3 16,3l3,0q17,0 17,-10q0,-4 -3,-13q-19,-55 -63,-87t-99,-32q-95,0 -158,69t-64,160zm305,57q-11,128 -95,136l-2,0q-8,0 -16,-1t-25,-8t-29,-21t-23,-41t-16,-66l0,-7l206,0l0,8z" stroke-width="10" id="svg_295"/>
        <path d="m98,609q0,28 18,44t44,16q23,-2 40,-17t17,-43q0,-30 -17,-45t-42,-15q-25,0 -42,15t-18,45zm-70,-772q30,-5 36,-5q60,0 71,91q2,12 2,218t-1,212q-4,18 -16,24t-48,8l-20,0l0,23q0,23 2,23l4,1q4,0 12,0t17,1t21,1t25,2q18,1 38,2t31,3t12,1l4,0l0,-258q-1,-220 -1,-243t-6,-39q-16,-47 -58,-77t-95,-30q-49,0 -81,26t-32,62q0,23 15,38t38,15t38,-15t16,-39q0,-25 -24,-45z" stroke-width="10" id="svg_294"/>
        <path d="m36,46l14,0q39,0 47,14l0,8q0,9 0,23t1,31t0,39t0,42q0,31 0,66t0,59l-1,23q-3,19 -14,25t-45,9l-18,0l0,23q0,23 2,23l10,1q10,1 28,2t36,2q16,1 35,2t29,3t11,1l3,0l0,-69q39,68 97,68l6,0q45,0 66,-22t21,-46q0,-21 -13,-36t-38,-15q-25,0 -37,16t-13,34q0,9 2,16t5,12t3,5q-2,2 -23,-4q-16,-8 -24,-15q-47,-45 -47,-179l0,-53q0,-13 0,-27t0,-26t1,-20t0,-15l0,-5q1,-2 3,-4t5,-3t5,-3t7,-2t7,-1t9,-1t9,0t10,-1t10,0l31,0l0,-46l-9,0q-18,3 -127,3q-103,0 -112,-3l-8,0l0,46l16,0z" stroke-width="10" id="svg_293"/>
        <path d="m130,622q-7,7 -11,9t-16,3t-43,3l-33,0l0,46l175,0l34,0l64,0q76,0 117,-6t83,-29q95,-48 109,-131q1,-5 1,-16q0,-33 -16,-62t-38,-47t-45,-31t-39,-18l-16,-5q3,-3 11,-6q30,-16 49,-34t29,-44t14,-43t9,-56t10,-61q10,-48 24,-63t38,-15l5,0q15,0 29,16t18,55q0,11 4,14t16,4t16,-2t4,-13q0,-31 -16,-63t-44,-43q-16,-6 -42,-6q-149,6 -172,112q-2,11 -2,73t-7,83q-19,58 -76,74l-10,2l-66,1l-66,0l0,-131l1,-131q6,-10 17,-12t52,-3l33,0l0,-46l-11,0q-21,3 -142,3q-122,0 -143,-3l-11,0l0,46l33,0q42,1 51,3t19,12l0,561zm361,-123l0,10q0,18 -1,30t-9,31t-19,31t-38,22t-62,13q-2,0 -22,0t-36,1l-21,0q-45,0 -49,-9q-3,-4 -3,-136l0,-132l58,0q101,0 145,18t55,78q2,11 2,43z" stroke-width="10" id="svg_292"/>
        <path d="m56,340q0,83 30,154t78,116t106,70t118,25q133,0 233,-104t101,-260q0,-81 -29,-150t-76,-116t-107,-71t-122,-26t-121,25t-107,71t-75,115t-29,151zm411,307q-41,18 -79,18q-28,0 -57,-11t-62,-34t-56,-71t-34,-110q-5,-28 -5,-85q0,-210 103,-293q50,-41 108,-41l4,0l2,0q83,0 146,79q66,89 66,255q0,57 -5,85q-21,153 -131,208z" stroke-width="10" id="svg_291"/>
        <path d="m255,0q-15,3 -115,3q-92,0 -101,-3l-7,0l0,46l15,0q72,3 92,42q1,3 53,157t103,308t53,155q3,8 18,8l10,0q20,-1 24,-7q2,-2 108,-319l109,-323q7,-13 19,-16t51,-5l30,0l0,-46l-9,0q-9,3 -127,3q-123,0 -144,-3l-10,0l0,46l13,0q70,0 70,18q0,2 -24,74l-24,71l-233,0l-20,-59q-20,-59 -20,-65q0,-13 20,-26t50,-13l5,0l0,-46l-9,0zm192,255l-102,302l-101,-301q0,-1 101,-1l102,0z" stroke-width="10" id="svg_290"/>
        <path d="m130,622q-7,7 -11,9t-16,3t-43,3l-33,0l0,46l201,0q171,-1 191,-1t42,-6q43,-9 85,-35t80,-68t59,-103t23,-134q0,-126 -74,-220t-192,-113q-13,-2 -214,-3l-201,0l0,46l33,0q42,1 51,3t19,12l0,561zm463,-284q0,101 -22,163t-78,101q-54,35 -138,35l-33,0l-28,0q-56,0 -60,-9q-3,-4 -3,-284q0,-282 1,-285q1,-10 16,-11t91,-2l11,0q106,0 165,49q46,38 62,96t16,147z" stroke-width="10" id="svg_289"/>
        <path d="m109,429q-27,0 -43,18t-16,44q0,71 53,123t132,52q91,0 152,-56t62,-145q0,-43 -20,-82t-48,-68t-80,-74q-36,-31 -100,-92l-59,-56l76,-1q157,0 167,5q7,2 24,89l0,3l40,0l0,-3q-1,-3 -13,-91t-15,-92l0,-3l-371,0l0,19l0,12q0,7 6,15t30,35q29,32 50,56q9,10 34,37t34,37t29,33t28,34t23,30t21,32t15,29t13,32t7,30t3,33q0,63 -34,109t-97,46q-33,0 -58,-17t-35,-33t-10,-19q0,-1 5,-1q18,0 37,-14t19,-46q0,-25 -16,-42t-45,-18z" stroke-width="10" id="svg_288"/>
        <path d="m96,585q56,81 153,81q48,0 96,-26t78,-92q37,-83 37,-228q0,-155 -43,-237q-20,-42 -55,-67t-61,-31t-51,-7q-26,0 -52,6t-61,32t-55,67q-43,82 -43,237q0,174 57,265zm225,12q-30,32 -71,32q-42,0 -72,-32q-25,-26 -33,-72t-8,-192q0,-158 8,-208t36,-79q28,-30 69,-30q40,0 68,30q29,30 36,84t8,203q0,145 -8,191t-33,73z" stroke-width="10" id="svg_287"/>
        <path d="m213,578l-13,-5q-14,-5 -40,-10t-58,-7l-19,0l0,46l19,0q47,2 87,15t56,24t28,22q2,3 12,3q9,0 17,-6l0,-299l1,-300q7,-7 12,-9t24,-4t62,-2l26,0l0,-46l-11,0q-21,3 -159,3q-136,0 -157,-3l-12,0l0,46l26,0q22,0 38,0t25,1t16,3t8,2t6,5t6,4l0,517z" stroke-width="10" id="svg_286"/>
        <path d="m128,622q-7,7 -11,9t-16,3t-43,3l-33,0l0,46l11,0q21,-3 144,-3q135,0 144,3l11,0l0,-46l-33,0q-40,-1 -51,-3t-18,-12l-1,-122l0,-122l285,0l0,244q-7,7 -11,9t-16,3t-43,3l-33,0l0,46l11,0q21,-3 144,-3q135,0 144,3l11,0l0,-46l-33,0q-40,-1 -51,-3t-18,-12l0,-561q6,-10 17,-12t52,-3l33,0l0,-46l-11,0q-21,3 -144,3q-135,0 -144,-3l-11,0l0,46l33,0q42,1 51,3t19,12l0,271l-285,0l0,-135l1,-136q6,-10 17,-12t52,-3l33,0l0,-46l-11,0q-21,3 -144,3q-135,0 -144,-3l-11,0l0,46l33,0q42,1 51,3t19,12l0,561z" stroke-width="10" id="svg_285"/>
        <path d="m11,179l0,73l266,0l0,-73l-266,0z" stroke-width="10" id="svg_284"/>
        <path d="m55,507q0,83 57,140t131,57l14,0q85,0 148,-63l21,31q5,7 10,15t10,13l3,4q1,0 4,0t6,1l4,0q3,0 9,-6l0,-237l-6,-6l-18,0q-11,0 -13,3t-5,20q-17,126 -101,167q-37,16 -75,16q-53,0 -86,-36t-33,-84q0,-34 17,-62t48,-45q10,-4 86,-23t84,-23q57,-22 93,-75t37,-123q0,-81 -52,-146t-147,-66q-56,0 -100,17t-61,31l-18,14q-4,-5 -15,-20t-20,-28t-9,-14q-2,-1 -10,-1l-4,0q-3,0 -9,6l0,117q0,119 1,121q2,5 20,5l13,0q6,-6 6,-13q0,-32 10,-63t34,-61t66,-48t100,-18q47,0 81,38t34,93q0,43 -22,78t-58,48q-56,14 -74,19q-5,1 -27,6t-33,8t-32,11t-33,18t-29,24t-27,35q-30,49 -30,105z" stroke-width="10" id="svg_283"/>
        <path d="m130,622q-7,7 -11,9t-16,3t-43,3l-33,0l0,46l187,0q23,0 62,0t55,1q88,0 140,-13t96,-55q57,-53 57,-127q0,-68 -51,-117t-122,-65q-22,-5 -123,-6l-94,0l0,-120q0,-119 3,-123q8,-11 67,-12l33,0l0,-46l-11,0q-21,3 -144,3q-135,0 -144,-3l-11,0l0,46l33,0q42,1 51,3t19,12l0,561zm377,-134q0,26 -1,40t-6,36t-17,33t-33,23t-53,15q-12,2 -90,2l-21,0q-49,0 -52,-9q-3,-4 -3,-145l0,-141l71,0l37,0q51,0 84,7t58,33q26,29 26,106z" stroke-width="10" id="svg_282"/>
        <path d="m21,287q0,14 15,48t48,71t74,36q41,0 66,-23t26,-64q-2,-19 -3,-21q0,-3 -16,-46t-33,-97t-16,-86q0,-43 14,-60t42,-18q23,0 43,11t31,23t27,33q0,1 5,20t14,59t19,74q38,150 42,157q13,27 43,27q13,0 21,-7t11,-12t2,-9q0,-13 -49,-210t-56,-216q-28,-83 -97,-132t-138,-50q-45,0 -79,22t-34,66q0,22 7,37t19,22t20,10t17,3q44,0 44,-42q0,-20 -12,-35t-23,-20t-13,-5l-3,-1q2,-5 19,-12t34,-7l8,0q17,0 26,2q33,9 61,38t43,62t23,56t8,30l-6,-4q-6,-4 -19,-11t-26,-12q-20,-5 -39,-5q-46,0 -81,22t-46,71q-1,7 -1,31q0,57 35,149t35,117q0,1 0,2q0,9 0,12t-4,7t-11,4l-4,0q-23,0 -42,-19t-30,-41t-17,-42t-8,-22q-2,-2 -16,-2l-14,0q-6,6 -6,9z" stroke-width="10" id="svg_281"/>
        <path d="m56,347q0,13 14,20l637,0q15,-8 15,-20q0,-11 -14,-19l-318,-1l-318,0q-16,5 -16,20zm0,-194q0,15 16,20l636,0q14,-10 14,-20q0,-13 -15,-20l-637,0q-14,7 -14,20z" stroke-width="10" id="svg_280"/>
        <path d="m56,237t0,13t14,20l299,0l0,150l1,150q10,13 19,13q13,0 20,-15l0,-298l298,0q15,-8 15,-20t-15,-20l-298,0l0,-298q-8,-14 -18,-14l-2,0l-2,0q-12,0 -18,14l0,298l-299,0q-14,7 -14,20l0,-13z" stroke-width="10" id="svg_279"/>
        <path d="m52,289q7,42 54,97t116,56q35,0 64,-18t43,-45q42,63 101,63q37,0 64,-22t28,-59q0,-29 -14,-47t-27,-22t-23,-4q-19,0 -31,11t-12,29q0,46 50,63q-11,13 -40,13q-13,0 -19,-2q-38,-16 -56,-66q-60,-221 -60,-258q0,-28 16,-40t35,-12q37,0 73,33t49,81q3,10 6,11t16,2l4,0q15,0 15,-8q0,-1 -2,-11q-16,-57 -62,-101t-107,-44q-70,0 -106,63q-41,-62 -94,-62l-6,0q-49,0 -70,26t-22,55q0,32 19,52t45,20q43,0 43,-42q0,-20 -12,-35t-23,-20t-13,-5l-3,-1q0,-1 6,-4t16,-7t19,-3q36,0 62,45q9,16 23,68t28,108t16,66q5,27 5,39q0,28 -15,40t-34,12q-40,0 -75,-32t-49,-82q-2,-9 -5,-10t-16,-2l-14,0q-6,6 -6,11z" stroke-width="10" id="svg_278"/>
        <path d="m84,237t0,13t14,20l581,0q15,-8 15,-20t-15,-20l-581,0q-14,7 -14,20l0,-13z" stroke-width="10" id="svg_277"/>
        <path d="m740,435q0,-115 -64,-222t-165,-171t-207,-64q-97,0 -166,57t-87,166q-1,8 -1,43q0,102 48,194t129,163q124,103 249,103q38,0 48,-1q97,-14 156,-86t60,-182zm-103,41q0,89 -46,139t-115,50q-80,0 -154,-60q-80,-63 -122,-177t-43,-212q0,-90 43,-143t114,-54q90,0 171,79t123,215q29,95 29,163z" stroke-width="10" id="svg_275"/>
        <path d="m208,74q0,-24 46,-28q18,0 18,-11q0,-1 -2,-13q-3,-14 -6,-18t-13,-4q-2,0 -12,0t-34,1t-64,1q-71,0 -91,-2l-8,0q-7,7 -7,11q2,27 13,35l14,0q70,3 102,50q6,6 181,305t178,303q7,12 24,12l8,0l17,0q6,-9 6,-10l28,-323q28,-323 30,-326q5,-11 65,-11q25,0 25,-10q0,-2 -3,-14q-3,-15 -5,-18t-14,-4q-3,0 -14,0t-39,1t-73,1q-94,0 -123,-2l-12,0q-6,6 -6,9t2,18q4,13 6,16l4,3l20,0q54,3 64,17l-12,150l-238,0l-34,-58q-41,-69 -41,-81zm308,186q0,11 -12,156t-14,146l-27,-43q-16,-27 -63,-107l-90,-152l103,-1q103,0 103,1z" stroke-width="10" id="svg_276"/>
       </defs>
       <g stroke="rgb(68, 68, 68)" id="svg_503" transform="matrix(1 0 0 -1 0 0)" stroke-width="0" fill="rgb(68, 68, 68)">
        <use id="svg_504" xlink:href="#svg_275"/>
       </g>
      </svg>
     </g>
    </svg>
   </g>
  </g>
  <g id="svg_505" class="annotation">
   <g transform="matrix(2.75 0 0 2.75 -874.125 -443.625)" id="svg_352" class="annotation-text-g">
    <svg id="svg_506" height="26" width="25" y="253" x="499">
     <rect stroke="rgb(0, 0, 0)" id="svg_507" stroke-width="1px" stroke-opacity="0" fill="rgb(0, 0, 0)" fill-opacity="0" height="25" width="24" y="0.5" x="0.5" class="bg"/>
     <g id="svg_391" class="annotation-math-group">
      <svg id="svg_508" width="1.79ex" y="2" x="1" preserveAspectRatio="xMinYMin meet" height="1.868ex" class="annotation-math" viewBox="0 -755.8452691183917 755 795.6905382367834" xmlns:xlink="http://www.w3.org/1999/xlink">
       <defs>
        <path d="m132,622q-7,7 -11,9t-16,3t-43,3l-33,0l0,46l106,0q86,0 97,-1t17,-7q1,-1 105,-277l104,-274l104,274q104,276 106,277q3,6 15,7t98,1l106,0l0,-46l-33,0q-40,-1 -51,-3t-18,-12l0,-561q6,-10 17,-12t52,-3l33,0l0,-46l-11,0q-21,3 -140,3q-131,0 -140,-3l-11,0l0,46l33,0q42,1 51,3t19,12l0,286q0,77 0,114t0,85t0,67l-1,19q-233,-618 -237,-625q-4,-6 -20,-6t-20,6q-1,2 -118,309l-116,308l0,-18q-1,-18 -1,-63t0,-80t0,-107l1,-270q11,-36 85,-40l17,0l0,-46l-9,0q-15,3 -115,3q-102,0 -117,-3l-8,0l0,46l17,0q32,2 52,10t24,13t10,17l0,536z" stroke-width="10" id="svg_390"/>
        <path d="m347,338q-10,0 -53,11t-63,11q-20,0 -34,-4t-23,-10t-12,-11t-7,-11l-2,-4q-3,-3 -15,-3q-21,0 -21,8q0,5 3,14q13,39 43,67t66,34q12,2 17,2q25,0 45,-17t38,-33t38,-17q22,0 44,33t23,33q1,1 15,1l13,0q6,-6 6,-8q0,-4 -5,-14t-14,-21t-17,-22t-14,-19l-7,-9q-43,-51 -136,-135t-115,-108l-12,-12l15,-1q22,0 64,-11t63,-11q38,0 70,19t42,50q4,9 7,11t15,2q19,0 19,-10q0,-5 -1,-9q-17,-62 -66,-103t-98,-42q-26,0 -46,17t-39,34t-38,17q-44,0 -79,-60q-6,-8 -17,-8l-5,0l-13,0q-6,6 -6,9q0,15 58,86q39,45 132,130t115,108q12,16 7,16z" stroke-width="10" id="svg_389"/>
        <path d="m56,342q0,86 33,158t85,115t109,66t108,24q3,0 9,0t8,-1q91,0 161,-68l13,-12l30,39q27,37 31,41q1,0 4,0t6,1l4,0q3,0 9,-6l0,-280l-6,-6l-34,0q-6,6 -7,17q-9,82 -48,142t-95,79q-19,7 -50,7q-104,0 -174,-70q-79,-79 -79,-246q0,-121 38,-191q21,-40 52,-67t65,-39t56,-16t44,-5q89,0 143,69t55,151q0,7 6,13l28,0l6,-6l0,-15q-5,-103 -76,-180t-187,-77q-141,0 -244,104t-103,259z" stroke-width="10" id="svg_388"/>
        <path d="m117,59q0,-33 25,-33q37,0 63,105q6,20 10,21q2,1 10,1l4,0q9,0 12,0t5,-2t2,-7q-1,-6 -3,-16t-11,-38t-20,-47t-31,-37t-46,-17q-36,0 -67,22t-32,74q0,12 1,17l65,258q63,255 63,263q0,3 -1,5t-4,4t-5,2t-8,1t-8,1t-9,1t-10,0q-10,0 -13,0t-8,1t-6,3t-1,6q0,2 2,14q5,19 11,21t72,6q15,1 34,2t30,3t11,1q12,0 12,-8q0,-11 -73,-300t-75,-303q0,-2 0,-8t-1,-10l0,-6z" stroke-width="10" id="svg_387"/>
        <path d="m128,619q-7,7 -11,9t-16,3t-43,3l-33,0l0,46l572,0l0,-4q2,-6 14,-116t14,-116l0,-4l-40,0l0,4q-1,3 -3,21q-4,35 -12,61t-17,45t-25,30t-30,18t-41,10t-46,4t-58,1q-87,0 -102,-1t-18,-11q0,0 0,-1q-1,-2 -1,-124l0,-121l54,0q73,2 91,9q36,16 39,84q0,2 0,4l0,20l40,0l0,-280l-40,0l0,20q-1,35 -8,55t-25,29t-34,11t-52,2q-7,0 -11,0l-54,0l0,-134l0,-82q0,-57 5,-62q6,-5 52,-5l51,0l51,0q37,0 61,3t53,12t47,30t32,54q10,26 15,54t8,47t5,23l0,3l40,0l0,-3q-1,-3 -20,-133t-22,-134l0,-3l-585,0l0,46l33,0q42,1 51,3t19,12l0,558z" stroke-width="10" id="svg_386"/>
        <path d="m41,46l14,0q39,0 47,14l0,8q0,9 0,23t0,31t1,39t0,42q0,31 0,66t-1,59l0,23q-3,19 -14,25t-45,9l-18,0l0,23q0,23 2,23l10,1q10,1 28,2t37,2q17,1 36,2t29,3t11,1l3,0l0,-40q0,-38 1,-38t5,5t12,15t19,18t29,19t38,16q20,5 51,5q114,-4 127,-113q1,-7 1,-139l0,-86q0,-38 2,-45t11,-10q21,-3 49,-3l16,0l0,-46l-8,0l-24,1q-23,1 -50,1t-38,1q-103,0 -112,-3l-8,0l0,46l16,0q61,0 61,16q1,2 1,138q-1,135 -2,143q-6,28 -20,42t-24,17t-26,2q-45,0 -79,-34q-27,-27 -34,-55t-8,-83l0,-64l0,-60q0,-30 1,-40t3,-13t9,-6q21,-3 49,-3l16,0l0,-46l-8,0l-23,1q-24,1 -51,1t-38,1q-103,0 -112,-3l-8,0l0,46l16,0z" stroke-width="10" id="svg_385"/>
        <path stroke-width="10" id="svg_384"/>
        <path d="m131,622q-7,7 -11,9t-16,3t-43,3l-33,0l0,46l201,0l38,0l79,0q77,0 113,-5t72,-27q43,-24 68,-61t25,-78q0,-51 -41,-93t-107,-59l-10,-3q73,-9 129,-55t56,-115q0,-68 -51,-120t-131,-64q-13,-2 -227,-3l-214,0l0,46l33,0q42,1 51,3t19,12l0,561zm380,-109q0,47 -26,81t-69,42q-1,0 -13,0t-32,0t-38,1q-67,0 -82,-1t-19,-8q-3,-4 -3,-129l0,-125l83,0l84,1l10,2q4,1 11,3t25,13t32,24t25,39t12,57zm26,-325q0,51 -28,94t-79,54l-101,1l-100,0l0,-137l0,-84q0,-59 5,-64q6,-5 100,-5l49,0q42,0 60,6q43,14 68,51t26,84z" stroke-width="10" id="svg_383"/>
        <path d="m128,619q-7,7 -11,9t-16,3t-43,3l-33,0l0,46l557,0l0,-4q2,-6 14,-116t14,-116l0,-4l-40,0l0,4q-7,49 -9,57q-6,37 -18,62t-27,38t-39,21t-46,9t-57,2l-40,0l-48,0q-34,0 -42,-2t-11,-10q-1,-2 -1,-131l0,-127l52,0q3,0 19,0t24,1t22,3t23,6t17,12q18,18 21,74l0,21l40,0l0,-280l-40,0l0,21q-3,55 -21,75q-8,7 -18,11t-23,6t-21,3t-24,1t-19,0l-52,0l0,-128l1,-128q7,-7 12,-9t25,-4t63,-2l27,0l0,-46l-12,0q-24,3 -166,3q-131,0 -146,-3l-11,0l0,46l33,0q42,1 51,3t19,12l0,558z" stroke-width="10" id="svg_382"/>
        <path d="m328,0q-21,3 -148,3t-148,-3l-11,0l0,46l22,0q49,0 63,3t20,11q2,3 2,282q0,278 -2,281q-4,5 -8,7t-22,5t-53,2l-22,0l0,46l11,0q21,-3 148,-3t148,3l11,0l0,-46l-22,0q-49,0 -63,-3t-20,-11q-2,-3 -2,-281q0,-279 2,-282q4,-5 8,-7t22,-5t53,-2l22,0l0,-46l-11,0z" stroke-width="10" id="svg_381"/>
        <path d="m295,316q0,40 -27,69t-78,29q-36,0 -62,-13q-30,-19 -30,-52q-1,-5 0,-13t16,-24t43,-25q18,-5 44,-9t44,-9t32,-13q17,-8 33,-20t32,-41t17,-62q0,-62 -38,-102t-123,-41l-8,0q-52,0 -96,36l-8,-7l-9,-9q-6,-6 -12,-11l-11,-10l-8,0l-4,0q-3,0 -9,6l0,79l0,58q0,21 2,25t10,5l9,0q12,0 16,-4t5,-12t7,-27t19,-42q35,-51 97,-51q97,0 97,78q0,29 -18,47q-20,24 -83,36t-83,23q-36,17 -57,46t-21,62q0,39 17,66t43,40t50,18t44,5l11,0q40,0 70,-15l15,-8l9,7q10,9 22,17l8,0l4,0q3,0 9,-6l0,-132l-6,-6l-28,0q-6,6 -6,12z" stroke-width="10" id="svg_380"/>
        <path d="m27,422q53,4 82,56t32,122l0,15l40,0l0,-184l135,0l0,-46l-135,0l0,-144q1,-125 1,-141t7,-32q14,-39 49,-39q44,0 54,71q1,8 1,46l0,35l40,0l0,-35l0,-12q0,-77 -42,-117q-27,-27 -70,-27q-34,0 -59,12t-38,31t-19,35t-7,32q-1,7 -1,148l0,137l-79,0l0,37l9,0z" stroke-width="10" id="svg_379"/>
        <path d="m137,305t-22,0t-37,15t-15,39q0,35 34,62t121,27q73,0 118,-32t60,-76q5,-14 5,-31t1,-115l0,-70q0,-48 5,-66t21,-18q15,0 20,16t5,53l0,36l40,0l0,-39q-1,-40 -3,-47q-9,-30 -35,-47t-55,-18t-47,18t-24,42l0,4l-2,-3q-2,-3 -5,-6t-8,-9t-12,-11t-15,-12t-18,-11t-22,-8t-26,-6t-31,-3q-60,0 -108,31t-48,87q0,21 7,40t27,41t48,37t78,28t110,15l14,0l0,22q0,34 -6,50q-22,71 -97,71q-18,0 -34,-1t-25,-4t-8,-3q22,-15 22,-44q0,-25 -16,-39l-17,-15zm-11,-199q0,-31 24,-55t59,-25q38,0 67,23t39,60q2,7 3,66q0,58 -1,58q-8,0 -21,-1t-45,-9t-58,-20t-46,-37t-21,-60z" stroke-width="10" id="svg_378"/>
        <path d="m370,305t-21,0t-36,15t-16,38q0,23 15,38q5,5 5,6t-10,2q-26,4 -49,4q-49,0 -80,-32q-47,-47 -47,-157q0,-82 31,-129q41,-61 110,-61q41,0 66,26t36,62q2,8 5,10t16,2l14,0q6,-6 6,-9q0,-4 -4,-16t-16,-33t-29,-38t-48,-31t-69,-13q-86,0 -150,64t-65,161q0,104 65,169t151,65t120,-27t34,-64q0,-23 -17,-37l-17,-15z" stroke-width="10" id="svg_377"/>
        <path d="m69,609q0,28 18,44t44,16q23,-2 40,-17t17,-43q0,-30 -17,-45t-42,-15q-25,0 -42,15t-18,45zm178,-609q-15,3 -104,3q-11,0 -37,0t-50,-2l-22,-1l-8,0l0,46l16,0q28,0 49,3q9,4 11,11t2,42l0,103l0,88q0,52 -2,66t-14,19q-14,7 -47,7l-11,0l0,23q0,23 2,23l10,1q10,1 28,2t36,2q17,1 36,2t29,3t11,1l3,0l0,-380q5,-10 12,-12t35,-4l23,0l0,-46l-8,0z" stroke-width="10" id="svg_376"/>
        <path d="m28,214q0,95 65,164t157,70q90,0 155,-68t66,-165q0,-95 -64,-160t-157,-65q-97,0 -159,67t-63,157zm222,-184q122,0 122,163l0,32l0,25q0,22 -1,38t-7,38t-16,36t-31,28t-49,20q-5,1 -16,1q-30,0 -57,-12q-43,-22 -56,-61t-13,-92l0,-20q0,-96 19,-135q32,-61 105,-61z" stroke-width="10" id="svg_375"/>
        <path d="m42,46l14,0q39,0 47,14l0,8q0,9 0,23t0,33t1,43t0,50t0,55t0,57q0,37 0,78t0,75t0,60t-1,44t0,17q-3,19 -14,25t-45,9l-18,0l0,23q0,23 2,23l10,1q10,1 29,2t37,2q17,1 37,2t30,3t11,1l3,0l0,-315q0,-317 1,-319q4,-8 12,-11q21,-3 49,-3l16,0l0,-46l-8,0l-23,1q-23,1 -49,1t-38,1t-38,0t-50,-2l-23,-1l-8,0l0,46l16,0z" stroke-width="10" id="svg_374"/>
        <path d="m28,218q0,55 20,100t50,73t65,42t66,15q53,0 91,-18t58,-50t28,-64t9,-71q0,-7 -7,-14l-282,0l0,-15q0,-148 100,-180q20,-6 44,-6q42,0 72,32q17,17 27,42l10,24q3,3 16,3l3,0q17,0 17,-10q0,-4 -3,-13q-19,-55 -63,-87t-99,-32q-95,0 -158,69t-64,160zm305,57q-11,128 -95,136l-2,0q-8,0 -16,-1t-25,-8t-29,-21t-23,-41t-16,-66l0,-7l206,0l0,8z" stroke-width="10" id="svg_373"/>
        <path d="m98,609q0,28 18,44t44,16q23,-2 40,-17t17,-43q0,-30 -17,-45t-42,-15q-25,0 -42,15t-18,45zm-70,-772q30,-5 36,-5q60,0 71,91q2,12 2,218t-1,212q-4,18 -16,24t-48,8l-20,0l0,23q0,23 2,23l4,1q4,0 12,0t17,1t21,1t25,2q18,1 38,2t31,3t12,1l4,0l0,-258q-1,-220 -1,-243t-6,-39q-16,-47 -58,-77t-95,-30q-49,0 -81,26t-32,62q0,23 15,38t38,15t38,-15t16,-39q0,-25 -24,-45z" stroke-width="10" id="svg_372"/>
        <path d="m36,46l14,0q39,0 47,14l0,8q0,9 0,23t1,31t0,39t0,42q0,31 0,66t0,59l-1,23q-3,19 -14,25t-45,9l-18,0l0,23q0,23 2,23l10,1q10,1 28,2t36,2q16,1 35,2t29,3t11,1l3,0l0,-69q39,68 97,68l6,0q45,0 66,-22t21,-46q0,-21 -13,-36t-38,-15q-25,0 -37,16t-13,34q0,9 2,16t5,12t3,5q-2,2 -23,-4q-16,-8 -24,-15q-47,-45 -47,-179l0,-53q0,-13 0,-27t0,-26t1,-20t0,-15l0,-5q1,-2 3,-4t5,-3t5,-3t7,-2t7,-1t9,-1t9,0t10,-1t10,0l31,0l0,-46l-9,0q-18,3 -127,3q-103,0 -112,-3l-8,0l0,46l16,0z" stroke-width="10" id="svg_371"/>
        <path d="m130,622q-7,7 -11,9t-16,3t-43,3l-33,0l0,46l175,0l34,0l64,0q76,0 117,-6t83,-29q95,-48 109,-131q1,-5 1,-16q0,-33 -16,-62t-38,-47t-45,-31t-39,-18l-16,-5q3,-3 11,-6q30,-16 49,-34t29,-44t14,-43t9,-56t10,-61q10,-48 24,-63t38,-15l5,0q15,0 29,16t18,55q0,11 4,14t16,4t16,-2t4,-13q0,-31 -16,-63t-44,-43q-16,-6 -42,-6q-149,6 -172,112q-2,11 -2,73t-7,83q-19,58 -76,74l-10,2l-66,1l-66,0l0,-131l1,-131q6,-10 17,-12t52,-3l33,0l0,-46l-11,0q-21,3 -142,3q-122,0 -143,-3l-11,0l0,46l33,0q42,1 51,3t19,12l0,561zm361,-123l0,10q0,18 -1,30t-9,31t-19,31t-38,22t-62,13q-2,0 -22,0t-36,1l-21,0q-45,0 -49,-9q-3,-4 -3,-136l0,-132l58,0q101,0 145,18t55,78q2,11 2,43z" stroke-width="10" id="svg_370"/>
        <path d="m56,340q0,83 30,154t78,116t106,70t118,25q133,0 233,-104t101,-260q0,-81 -29,-150t-76,-116t-107,-71t-122,-26t-121,25t-107,71t-75,115t-29,151zm411,307q-41,18 -79,18q-28,0 -57,-11t-62,-34t-56,-71t-34,-110q-5,-28 -5,-85q0,-210 103,-293q50,-41 108,-41l4,0l2,0q83,0 146,79q66,89 66,255q0,57 -5,85q-21,153 -131,208z" stroke-width="10" id="svg_369"/>
        <path d="m255,0q-15,3 -115,3q-92,0 -101,-3l-7,0l0,46l15,0q72,3 92,42q1,3 53,157t103,308t53,155q3,8 18,8l10,0q20,-1 24,-7q2,-2 108,-319l109,-323q7,-13 19,-16t51,-5l30,0l0,-46l-9,0q-9,3 -127,3q-123,0 -144,-3l-10,0l0,46l13,0q70,0 70,18q0,2 -24,74l-24,71l-233,0l-20,-59q-20,-59 -20,-65q0,-13 20,-26t50,-13l5,0l0,-46l-9,0zm192,255l-102,302l-101,-301q0,-1 101,-1l102,0z" stroke-width="10" id="svg_368"/>
        <path d="m130,622q-7,7 -11,9t-16,3t-43,3l-33,0l0,46l201,0q171,-1 191,-1t42,-6q43,-9 85,-35t80,-68t59,-103t23,-134q0,-126 -74,-220t-192,-113q-13,-2 -214,-3l-201,0l0,46l33,0q42,1 51,3t19,12l0,561zm463,-284q0,101 -22,163t-78,101q-54,35 -138,35l-33,0l-28,0q-56,0 -60,-9q-3,-4 -3,-284q0,-282 1,-285q1,-10 16,-11t91,-2l11,0q106,0 165,49q46,38 62,96t16,147z" stroke-width="10" id="svg_367"/>
        <path d="m109,429q-27,0 -43,18t-16,44q0,71 53,123t132,52q91,0 152,-56t62,-145q0,-43 -20,-82t-48,-68t-80,-74q-36,-31 -100,-92l-59,-56l76,-1q157,0 167,5q7,2 24,89l0,3l40,0l0,-3q-1,-3 -13,-91t-15,-92l0,-3l-371,0l0,19l0,12q0,7 6,15t30,35q29,32 50,56q9,10 34,37t34,37t29,33t28,34t23,30t21,32t15,29t13,32t7,30t3,33q0,63 -34,109t-97,46q-33,0 -58,-17t-35,-33t-10,-19q0,-1 5,-1q18,0 37,-14t19,-46q0,-25 -16,-42t-45,-18z" stroke-width="10" id="svg_366"/>
        <path d="m96,585q56,81 153,81q48,0 96,-26t78,-92q37,-83 37,-228q0,-155 -43,-237q-20,-42 -55,-67t-61,-31t-51,-7q-26,0 -52,6t-61,32t-55,67q-43,82 -43,237q0,174 57,265zm225,12q-30,32 -71,32q-42,0 -72,-32q-25,-26 -33,-72t-8,-192q0,-158 8,-208t36,-79q28,-30 69,-30q40,0 68,30q29,30 36,84t8,203q0,145 -8,191t-33,73z" stroke-width="10" id="svg_365"/>
        <path d="m213,578l-13,-5q-14,-5 -40,-10t-58,-7l-19,0l0,46l19,0q47,2 87,15t56,24t28,22q2,3 12,3q9,0 17,-6l0,-299l1,-300q7,-7 12,-9t24,-4t62,-2l26,0l0,-46l-11,0q-21,3 -159,3q-136,0 -157,-3l-12,0l0,46l26,0q22,0 38,0t25,1t16,3t8,2t6,5t6,4l0,517z" stroke-width="10" id="svg_364"/>
        <path d="m128,622q-7,7 -11,9t-16,3t-43,3l-33,0l0,46l11,0q21,-3 144,-3q135,0 144,3l11,0l0,-46l-33,0q-40,-1 -51,-3t-18,-12l-1,-122l0,-122l285,0l0,244q-7,7 -11,9t-16,3t-43,3l-33,0l0,46l11,0q21,-3 144,-3q135,0 144,3l11,0l0,-46l-33,0q-40,-1 -51,-3t-18,-12l0,-561q6,-10 17,-12t52,-3l33,0l0,-46l-11,0q-21,3 -144,3q-135,0 -144,-3l-11,0l0,46l33,0q42,1 51,3t19,12l0,271l-285,0l0,-135l1,-136q6,-10 17,-12t52,-3l33,0l0,-46l-11,0q-21,3 -144,3q-135,0 -144,-3l-11,0l0,46l33,0q42,1 51,3t19,12l0,561z" stroke-width="10" id="svg_363"/>
        <path d="m11,179l0,73l266,0l0,-73l-266,0z" stroke-width="10" id="svg_362"/>
        <path d="m55,507q0,83 57,140t131,57l14,0q85,0 148,-63l21,31q5,7 10,15t10,13l3,4q1,0 4,0t6,1l4,0q3,0 9,-6l0,-237l-6,-6l-18,0q-11,0 -13,3t-5,20q-17,126 -101,167q-37,16 -75,16q-53,0 -86,-36t-33,-84q0,-34 17,-62t48,-45q10,-4 86,-23t84,-23q57,-22 93,-75t37,-123q0,-81 -52,-146t-147,-66q-56,0 -100,17t-61,31l-18,14q-4,-5 -15,-20t-20,-28t-9,-14q-2,-1 -10,-1l-4,0q-3,0 -9,6l0,117q0,119 1,121q2,5 20,5l13,0q6,-6 6,-13q0,-32 10,-63t34,-61t66,-48t100,-18q47,0 81,38t34,93q0,43 -22,78t-58,48q-56,14 -74,19q-5,1 -27,6t-33,8t-32,11t-33,18t-29,24t-27,35q-30,49 -30,105z" stroke-width="10" id="svg_361"/>
        <path d="m130,622q-7,7 -11,9t-16,3t-43,3l-33,0l0,46l187,0q23,0 62,0t55,1q88,0 140,-13t96,-55q57,-53 57,-127q0,-68 -51,-117t-122,-65q-22,-5 -123,-6l-94,0l0,-120q0,-119 3,-123q8,-11 67,-12l33,0l0,-46l-11,0q-21,3 -144,3q-135,0 -144,-3l-11,0l0,46l33,0q42,1 51,3t19,12l0,561zm377,-134q0,26 -1,40t-6,36t-17,33t-33,23t-53,15q-12,2 -90,2l-21,0q-49,0 -52,-9q-3,-4 -3,-145l0,-141l71,0l37,0q51,0 84,7t58,33q26,29 26,106z" stroke-width="10" id="svg_360"/>
        <path d="m21,287q0,14 15,48t48,71t74,36q41,0 66,-23t26,-64q-2,-19 -3,-21q0,-3 -16,-46t-33,-97t-16,-86q0,-43 14,-60t42,-18q23,0 43,11t31,23t27,33q0,1 5,20t14,59t19,74q38,150 42,157q13,27 43,27q13,0 21,-7t11,-12t2,-9q0,-13 -49,-210t-56,-216q-28,-83 -97,-132t-138,-50q-45,0 -79,22t-34,66q0,22 7,37t19,22t20,10t17,3q44,0 44,-42q0,-20 -12,-35t-23,-20t-13,-5l-3,-1q2,-5 19,-12t34,-7l8,0q17,0 26,2q33,9 61,38t43,62t23,56t8,30l-6,-4q-6,-4 -19,-11t-26,-12q-20,-5 -39,-5q-46,0 -81,22t-46,71q-1,7 -1,31q0,57 35,149t35,117q0,1 0,2q0,9 0,12t-4,7t-11,4l-4,0q-23,0 -42,-19t-30,-41t-17,-42t-8,-22q-2,-2 -16,-2l-14,0q-6,6 -6,9z" stroke-width="10" id="svg_359"/>
        <path d="m56,347q0,13 14,20l637,0q15,-8 15,-20q0,-11 -14,-19l-318,-1l-318,0q-16,5 -16,20zm0,-194q0,15 16,20l636,0q14,-10 14,-20q0,-13 -15,-20l-637,0q-14,7 -14,20z" stroke-width="10" id="svg_358"/>
        <path d="m56,237t0,13t14,20l299,0l0,150l1,150q10,13 19,13q13,0 20,-15l0,-298l298,0q15,-8 15,-20t-15,-20l-298,0l0,-298q-8,-14 -18,-14l-2,0l-2,0q-12,0 -18,14l0,298l-299,0q-14,7 -14,20l0,-13z" stroke-width="10" id="svg_357"/>
        <path d="m52,289q7,42 54,97t116,56q35,0 64,-18t43,-45q42,63 101,63q37,0 64,-22t28,-59q0,-29 -14,-47t-27,-22t-23,-4q-19,0 -31,11t-12,29q0,46 50,63q-11,13 -40,13q-13,0 -19,-2q-38,-16 -56,-66q-60,-221 -60,-258q0,-28 16,-40t35,-12q37,0 73,33t49,81q3,10 6,11t16,2l4,0q15,0 15,-8q0,-1 -2,-11q-16,-57 -62,-101t-107,-44q-70,0 -106,63q-41,-62 -94,-62l-6,0q-49,0 -70,26t-22,55q0,32 19,52t45,20q43,0 43,-42q0,-20 -12,-35t-23,-20t-13,-5l-3,-1q0,-1 6,-4t16,-7t19,-3q36,0 62,45q9,16 23,68t28,108t16,66q5,27 5,39q0,28 -15,40t-34,12q-40,0 -75,-32t-49,-82q-2,-9 -5,-10t-16,-2l-14,0q-6,6 -6,11z" stroke-width="10" id="svg_356"/>
        <path d="m84,237t0,13t14,20l581,0q15,-8 15,-20t-15,-20l-581,0q-14,7 -14,20l0,-13z" stroke-width="10" id="svg_355"/>
        <path d="m740,435q0,-115 -64,-222t-165,-171t-207,-64q-97,0 -166,57t-87,166q-1,8 -1,43q0,102 48,194t129,163q124,103 249,103q38,0 48,-1q97,-14 156,-86t60,-182zm-103,41q0,89 -46,139t-115,50q-80,0 -154,-60q-80,-63 -122,-177t-43,-212q0,-90 43,-143t114,-54q90,0 171,79t123,215q29,95 29,163z" stroke-width="10" id="svg_354"/>
        <path d="m208,74q0,-24 46,-28q18,0 18,-11q0,-1 -2,-13q-3,-14 -6,-18t-13,-4q-2,0 -12,0t-34,1t-64,1q-71,0 -91,-2l-8,0q-7,7 -7,11q2,27 13,35l14,0q70,3 102,50q6,6 181,305t178,303q7,12 24,12l8,0l17,0q6,-9 6,-10l28,-323q28,-323 30,-326q5,-11 65,-11q25,0 25,-10q0,-2 -3,-14q-3,-15 -5,-18t-14,-4q-3,0 -14,0t-39,1t-73,1q-94,0 -123,-2l-12,0q-6,6 -6,9t2,18q4,13 6,16l4,3l20,0q54,3 64,17l-12,150l-238,0l-34,-58q-41,-69 -41,-81zm308,186q0,11 -12,156t-14,146l-27,-43q-16,-27 -63,-107l-90,-152l103,-1q103,0 103,1z" stroke-width="10" id="svg_353"/>
       </defs>
       <g stroke="rgb(68, 68, 68)" id="svg_509" transform="matrix(1 0 0 -1 0 0)" stroke-width="0" fill="rgb(68, 68, 68)">
        <use id="svg_510" xlink:href="#svg_353"/>
       </g>
      </svg>
     </g>
    </svg>
   </g>
  </g>
 </g>
</svg>