<?xml version="1.0" encoding="UTF-8"?>
<svg xmlns="http://www.w3.org/2000/svg" xmlns:xlink="http://www.w3.org/1999/xlink" width="274.55336pt" height="79.138288pt" viewBox="0 0 274.55336 79.138288" version="1.1">
<g id="surface1">
<path style=" stroke:none;fill-rule:nonzero;fill:rgb(0%,0%,0%);fill-opacity:1;" d="M 6.132812 1.367188 L 7.714844 1.367188 C 7.929688 1.367188 8.144531 1.386719 8.359375 1.386719 L 10.703125 1.386719 L 10.703125 0.253906 L 0 0.253906 L 0 1.386719 L 2.363281 1.386719 C 2.578125 1.386719 2.792969 1.367188 3.007812 1.367188 L 4.589844 1.367188 L 4.589844 12.617188 L 6.132812 12.617188 Z M 6.132812 1.367188 "/>
<path style=" stroke:none;fill-rule:nonzero;fill:rgb(0%,0%,0%);fill-opacity:1;" d="M 18.972656 7.226562 C 18.972656 6.132812 18.738281 4.472656 16.570312 4.472656 C 15.339844 4.472656 14.519531 5.175781 14.089844 5.722656 L 14.089844 0.175781 L 12.761719 0.175781 L 12.761719 12.617188 L 14.109375 12.617188 L 14.109375 8.144531 C 14.109375 7.050781 14.539062 5.546875 15.886719 5.546875 C 17.566406 5.546875 17.605469 6.71875 17.605469 7.34375 L 17.605469 12.617188 L 18.972656 12.617188 Z M 18.972656 7.226562 "/>
<path style=" stroke:none;fill-rule:nonzero;fill:rgb(0%,0%,0%);fill-opacity:1;" d="M 27.679688 8.574219 C 27.679688 7.8125 27.601562 6.71875 27.035156 5.761719 C 26.292969 4.53125 25.042969 4.394531 24.515625 4.394531 C 22.582031 4.394531 20.960938 6.25 20.960938 8.574219 C 20.960938 10.957031 22.679688 12.792969 24.769531 12.792969 C 25.589844 12.792969 26.585938 12.558594 27.5625 11.855469 C 27.5625 11.777344 27.503906 11.210938 27.503906 11.191406 C 27.484375 11.171875 27.464844 10.761719 27.464844 10.703125 C 26.390625 11.601562 25.335938 11.71875 24.808594 11.71875 C 23.421875 11.71875 22.230469 10.488281 22.210938 8.574219 Z M 22.308594 7.617188 C 22.621094 6.40625 23.460938 5.46875 24.515625 5.46875 C 25.082031 5.46875 26.3125 5.722656 26.605469 7.617188 Z M 22.308594 7.617188 "/>
<path style=" stroke:none;fill-rule:nonzero;fill:rgb(0%,0%,0%);fill-opacity:1;" d="M 37.089844 5.703125 L 39.570312 5.703125 L 39.570312 4.648438 L 37.089844 4.648438 L 37.089844 2.382812 L 35.859375 2.382812 L 35.859375 4.648438 L 34.355469 4.648438 L 34.355469 5.703125 L 35.820312 5.703125 L 35.820312 10.527344 C 35.820312 11.5625 36.054688 12.792969 37.285156 12.792969 C 38.496094 12.792969 39.316406 12.382812 39.863281 12.089844 L 39.589844 11.054688 C 38.964844 11.621094 38.300781 11.679688 37.988281 11.679688 C 37.1875 11.679688 37.089844 10.839844 37.089844 10.214844 Z M 37.089844 5.703125 "/>
<path style=" stroke:none;fill-rule:nonzero;fill:rgb(0%,0%,0%);fill-opacity:1;" d="M 47.335938 7.363281 C 47.335938 5.644531 46.105469 4.394531 44.425781 4.394531 C 43.351562 4.394531 42.550781 4.628906 41.671875 5.136719 L 41.769531 6.328125 C 42.570312 5.742188 43.390625 5.429688 44.425781 5.429688 C 45.246094 5.429688 45.96875 6.09375 45.96875 7.402344 L 45.96875 8.144531 C 45.167969 8.164062 44.09375 8.222656 43.019531 8.574219 C 41.808594 9.003906 41.105469 9.667969 41.105469 10.546875 C 41.105469 11.347656 41.574219 12.792969 43.097656 12.792969 C 44.09375 12.792969 45.34375 12.5 46.007812 11.953125 L 46.007812 12.617188 L 47.335938 12.617188 Z M 45.96875 10.214844 C 45.96875 10.566406 45.96875 10.996094 45.382812 11.367188 C 44.894531 11.660156 44.289062 11.71875 44.015625 11.71875 C 43.058594 11.71875 42.394531 11.191406 42.394531 10.546875 C 42.394531 9.316406 44.875 9.042969 45.96875 9.042969 Z M 45.96875 10.214844 "/>
<path style=" stroke:none;fill-rule:nonzero;fill:rgb(0%,0%,0%);fill-opacity:1;" d="M 56.324219 7.226562 C 56.324219 6.132812 56.089844 4.472656 53.921875 4.472656 C 52.925781 4.472656 52.066406 4.921875 51.382812 5.78125 L 51.382812 4.570312 L 50.113281 4.570312 L 50.113281 12.617188 L 51.460938 12.617188 L 51.460938 8.144531 C 51.460938 7.050781 51.890625 5.546875 53.238281 5.546875 C 54.917969 5.546875 54.957031 6.71875 54.957031 7.34375 L 54.957031 12.617188 L 56.324219 12.617188 Z M 56.324219 7.226562 "/>
<path style=" stroke:none;fill-rule:nonzero;fill:rgb(0%,0%,0%);fill-opacity:1;" d="M 63.839844 5.546875 C 63.839844 5.546875 63.878906 5.585938 63.898438 5.625 C 64.269531 5.585938 64.660156 5.527344 65.324219 5.527344 C 65.382812 5.527344 65.792969 5.527344 66.242188 5.566406 L 66.046875 4.472656 C 65.714844 4.472656 64.484375 4.492188 63.292969 5.078125 C 62.707031 4.570312 61.984375 4.472656 61.632812 4.472656 C 60.070312 4.472656 58.820312 5.78125 58.820312 7.363281 C 58.820312 8.007812 59.015625 8.59375 59.40625 9.140625 C 58.996094 9.707031 58.898438 10.253906 58.898438 10.683594 C 58.898438 11.347656 59.152344 11.796875 59.347656 12.03125 C 58.429688 12.617188 58.214844 13.378906 58.214844 13.886719 C 58.214844 15.195312 59.914062 16.289062 62.101562 16.289062 C 64.289062 16.289062 66.007812 15.234375 66.007812 13.867188 C 66.007812 11.367188 63.097656 11.367188 62.375 11.367188 L 60.851562 11.367188 C 60.597656 11.367188 59.816406 11.367188 59.816406 10.410156 C 59.816406 10.019531 59.894531 9.902344 60.011719 9.746094 C 60.304688 9.960938 60.890625 10.273438 61.613281 10.273438 C 63.15625 10.273438 64.425781 9.003906 64.425781 7.363281 C 64.425781 6.71875 64.191406 6.054688 63.820312 5.566406 Z M 61.632812 9.277344 C 60.851562 9.277344 60.050781 8.75 60.050781 7.382812 C 60.050781 5.78125 61.066406 5.46875 61.613281 5.46875 C 62.414062 5.46875 63.195312 5.996094 63.195312 7.363281 C 63.195312 8.964844 62.199219 9.277344 61.632812 9.277344 Z M 62.394531 12.65625 C 62.785156 12.65625 64.757812 12.65625 64.757812 13.886719 C 64.757812 14.707031 63.527344 15.3125 62.121094 15.3125 C 60.714844 15.3125 59.464844 14.746094 59.464844 13.867188 C 59.464844 13.828125 59.464844 12.65625 60.832031 12.65625 Z M 62.394531 12.65625 "/>
<path style=" stroke:none;fill-rule:nonzero;fill:rgb(0%,0%,0%);fill-opacity:1;" d="M 73.878906 8.574219 C 73.878906 7.8125 73.800781 6.71875 73.234375 5.761719 C 72.492188 4.53125 71.242188 4.394531 70.714844 4.394531 C 68.78125 4.394531 67.160156 6.25 67.160156 8.574219 C 67.160156 10.957031 68.878906 12.792969 70.96875 12.792969 C 71.789062 12.792969 72.785156 12.558594 73.761719 11.855469 C 73.761719 11.777344 73.703125 11.210938 73.703125 11.191406 C 73.683594 11.171875 73.664062 10.761719 73.664062 10.703125 C 72.589844 11.601562 71.535156 11.71875 71.007812 11.71875 C 69.621094 11.71875 68.429688 10.488281 68.410156 8.574219 Z M 68.507812 7.617188 C 68.820312 6.40625 69.660156 5.46875 70.714844 5.46875 C 71.28125 5.46875 72.511719 5.722656 72.804688 7.617188 Z M 68.507812 7.617188 "/>
<path style=" stroke:none;fill-rule:nonzero;fill:rgb(0%,0%,0%);fill-opacity:1;" d="M 81.972656 7.226562 C 81.972656 6.132812 81.738281 4.472656 79.570312 4.472656 C 78.574219 4.472656 77.714844 4.921875 77.03125 5.78125 L 77.03125 4.570312 L 75.761719 4.570312 L 75.761719 12.617188 L 77.109375 12.617188 L 77.109375 8.144531 C 77.109375 7.050781 77.539062 5.546875 78.886719 5.546875 C 80.566406 5.546875 80.605469 6.71875 80.605469 7.34375 L 80.605469 12.617188 L 81.972656 12.617188 Z M 81.972656 7.226562 "/>
<path style=" stroke:none;fill-rule:nonzero;fill:rgb(0%,0%,0%);fill-opacity:1;" d="M 86.441406 5.703125 L 88.921875 5.703125 L 88.921875 4.648438 L 86.441406 4.648438 L 86.441406 2.382812 L 85.210938 2.382812 L 85.210938 4.648438 L 83.707031 4.648438 L 83.707031 5.703125 L 85.171875 5.703125 L 85.171875 10.527344 C 85.171875 11.5625 85.40625 12.792969 86.636719 12.792969 C 87.847656 12.792969 88.667969 12.382812 89.214844 12.089844 L 88.941406 11.054688 C 88.316406 11.621094 87.652344 11.679688 87.339844 11.679688 C 86.539062 11.679688 86.441406 10.839844 86.441406 10.214844 Z M 86.441406 5.703125 "/>
<path style=" stroke:none;fill-rule:nonzero;fill:rgb(0%,0%,0%);fill-opacity:1;" d="M 98.355469 0.449219 L 96.8125 0.449219 L 96.8125 1.992188 L 98.355469 1.992188 Z M 98.257812 4.648438 L 96.929688 4.648438 L 96.929688 12.617188 L 98.257812 12.617188 Z M 98.257812 4.648438 "/>
<path style=" stroke:none;fill-rule:nonzero;fill:rgb(0%,0%,0%);fill-opacity:1;" d="M 105.742188 4.941406 C 104.609375 4.414062 103.632812 4.394531 103.222656 4.394531 C 102.8125 4.394531 100.3125 4.394531 100.3125 6.71875 C 100.3125 7.5 100.742188 8.046875 101.015625 8.300781 C 101.660156 8.847656 102.109375 8.945312 103.164062 9.160156 C 103.769531 9.277344 104.804688 9.492188 104.804688 10.449219 C 104.804688 11.679688 103.398438 11.679688 103.144531 11.679688 C 102.441406 11.679688 101.386719 11.484375 100.429688 10.78125 L 100.214844 12.011719 C 100.292969 12.070312 101.523438 12.792969 103.164062 12.792969 C 105.488281 12.792969 106.035156 11.40625 106.035156 10.332031 C 106.035156 9.433594 105.488281 8.847656 105.410156 8.769531 C 104.746094 8.085938 104.199219 7.96875 103.125 7.753906 C 102.460938 7.636719 101.5625 7.460938 101.5625 6.5625 C 101.5625 5.449219 102.8125 5.449219 103.046875 5.449219 C 103.984375 5.449219 104.746094 5.664062 105.527344 6.113281 Z M 105.742188 4.941406 "/>
<path style=" stroke:none;fill-rule:nonzero;fill:rgb(0%,0%,0%);fill-opacity:1;" d="M 115.390625 5.703125 L 117.871094 5.703125 L 117.871094 4.648438 L 115.390625 4.648438 L 115.390625 2.382812 L 114.160156 2.382812 L 114.160156 4.648438 L 112.65625 4.648438 L 112.65625 5.703125 L 114.121094 5.703125 L 114.121094 10.527344 C 114.121094 11.5625 114.355469 12.792969 115.585938 12.792969 C 116.796875 12.792969 117.617188 12.382812 118.164062 12.089844 L 117.890625 11.054688 C 117.265625 11.621094 116.601562 11.679688 116.289062 11.679688 C 115.488281 11.679688 115.390625 10.839844 115.390625 10.214844 Z M 115.390625 5.703125 "/>
<path style=" stroke:none;fill-rule:nonzero;fill:rgb(0%,0%,0%);fill-opacity:1;" d="M 126.222656 7.226562 C 126.222656 6.132812 125.988281 4.472656 123.820312 4.472656 C 122.589844 4.472656 121.769531 5.175781 121.339844 5.722656 L 121.339844 0.175781 L 120.011719 0.175781 L 120.011719 12.617188 L 121.359375 12.617188 L 121.359375 8.144531 C 121.359375 7.050781 121.789062 5.546875 123.136719 5.546875 C 124.816406 5.546875 124.855469 6.71875 124.855469 7.34375 L 124.855469 12.617188 L 126.222656 12.617188 Z M 126.222656 7.226562 "/>
<path style=" stroke:none;fill-rule:nonzero;fill:rgb(0%,0%,0%);fill-opacity:1;" d="M 134.929688 8.574219 C 134.929688 7.8125 134.851562 6.71875 134.285156 5.761719 C 133.542969 4.53125 132.292969 4.394531 131.765625 4.394531 C 129.832031 4.394531 128.210938 6.25 128.210938 8.574219 C 128.210938 10.957031 129.929688 12.792969 132.019531 12.792969 C 132.839844 12.792969 133.835938 12.558594 134.8125 11.855469 C 134.8125 11.777344 134.753906 11.210938 134.753906 11.191406 C 134.734375 11.171875 134.714844 10.761719 134.714844 10.703125 C 133.640625 11.601562 132.585938 11.71875 132.058594 11.71875 C 130.671875 11.71875 129.480469 10.488281 129.460938 8.574219 Z M 129.558594 7.617188 C 129.871094 6.40625 130.710938 5.46875 131.765625 5.46875 C 132.332031 5.46875 133.5625 5.722656 133.855469 7.617188 Z M 129.558594 7.617188 "/>
<path style=" stroke:none;fill-rule:nonzero;fill:rgb(0%,0%,0%);fill-opacity:1;" d="M 138.160156 8.691406 C 138.160156 6.875 139.507812 5.703125 141.128906 5.683594 L 141.128906 4.472656 C 139.488281 4.492188 138.550781 5.449219 138.0625 6.152344 L 138.0625 4.570312 L 136.832031 4.570312 L 136.832031 12.617188 L 138.160156 12.617188 Z M 138.160156 8.691406 "/>
<path style=" stroke:none;fill-rule:nonzero;fill:rgb(0%,0%,0%);fill-opacity:1;" d="M 148.730469 8.574219 C 148.730469 7.8125 148.652344 6.71875 148.085938 5.761719 C 147.34375 4.53125 146.09375 4.394531 145.566406 4.394531 C 143.632812 4.394531 142.011719 6.25 142.011719 8.574219 C 142.011719 10.957031 143.730469 12.792969 145.820312 12.792969 C 146.640625 12.792969 147.636719 12.558594 148.613281 11.855469 C 148.613281 11.777344 148.554688 11.210938 148.554688 11.191406 C 148.535156 11.171875 148.515625 10.761719 148.515625 10.703125 C 147.441406 11.601562 146.386719 11.71875 145.859375 11.71875 C 144.472656 11.71875 143.28125 10.488281 143.261719 8.574219 Z M 143.359375 7.617188 C 143.671875 6.40625 144.511719 5.46875 145.566406 5.46875 C 146.132812 5.46875 147.363281 5.722656 147.65625 7.617188 Z M 143.359375 7.617188 "/>
<path style=" stroke:none;fill-rule:nonzero;fill:rgb(0%,0%,0%);fill-opacity:1;" d="M 152.328125 5.703125 L 154.242188 5.703125 L 154.242188 4.648438 L 152.289062 4.648438 L 152.289062 2.5 C 152.289062 1.289062 153.304688 1.074219 153.910156 1.074219 C 154.535156 1.074219 155.082031 1.269531 155.296875 1.347656 L 155.296875 0.175781 C 155.179688 0.136719 154.574219 0 153.929688 0 C 152.210938 0 151 1.308594 151 3.046875 L 151 4.648438 L 149.691406 4.648438 L 149.691406 5.703125 L 151 5.703125 L 151 12.617188 L 152.328125 12.617188 Z M 152.328125 5.703125 "/>
<path style=" stroke:none;fill-rule:nonzero;fill:rgb(0%,0%,0%);fill-opacity:1;" d="M 162.847656 8.671875 C 162.847656 6.25 161.070312 4.394531 159.019531 4.394531 C 156.910156 4.394531 155.171875 6.289062 155.171875 8.671875 C 155.171875 11.015625 156.949219 12.792969 159 12.792969 C 161.109375 12.792969 162.847656 10.976562 162.847656 8.671875 Z M 159.019531 11.679688 C 157.730469 11.679688 156.519531 10.605469 156.519531 8.496094 C 156.519531 6.328125 157.867188 5.46875 159 5.46875 C 160.230469 5.46875 161.5 6.386719 161.5 8.496094 C 161.5 10.703125 160.210938 11.679688 159.019531 11.679688 Z M 159.019531 11.679688 "/>
<path style=" stroke:none;fill-rule:nonzero;fill:rgb(0%,0%,0%);fill-opacity:1;" d="M 165.757812 8.691406 C 165.757812 6.875 167.105469 5.703125 168.726562 5.683594 L 168.726562 4.472656 C 167.085938 4.492188 166.148438 5.449219 165.660156 6.152344 L 165.660156 4.570312 L 164.429688 4.570312 L 164.429688 12.617188 L 165.757812 12.617188 Z M 165.757812 8.691406 "/>
<path style=" stroke:none;fill-rule:nonzero;fill:rgb(0%,0%,0%);fill-opacity:1;" d="M 176.328125 8.574219 C 176.328125 7.8125 176.25 6.71875 175.683594 5.761719 C 174.941406 4.53125 173.691406 4.394531 173.164062 4.394531 C 171.230469 4.394531 169.609375 6.25 169.609375 8.574219 C 169.609375 10.957031 171.328125 12.792969 173.417969 12.792969 C 174.238281 12.792969 175.234375 12.558594 176.210938 11.855469 C 176.210938 11.777344 176.152344 11.210938 176.152344 11.191406 C 176.132812 11.171875 176.113281 10.761719 176.113281 10.703125 C 175.039062 11.601562 173.984375 11.71875 173.457031 11.71875 C 172.070312 11.71875 170.878906 10.488281 170.859375 8.574219 Z M 170.957031 7.617188 C 171.269531 6.40625 172.109375 5.46875 173.164062 5.46875 C 173.730469 5.46875 174.960938 5.722656 175.253906 7.617188 Z M 170.957031 7.617188 "/>
<path style=" stroke:none;fill-rule:nonzero;fill:rgb(0%,0%,0%);fill-opacity:1;" d="M 5.582031 51.980469 C 5.113281 52.664062 4.410156 53.269531 3.53125 53.269531 C 3.316406 53.269531 2.457031 53.230469 2.183594 52.410156 C 2.242188 52.429688 2.320312 52.429688 2.359375 52.429688 C 2.90625 52.429688 3.257812 51.960938 3.257812 51.550781 C 3.257812 51.140625 2.925781 50.984375 2.652344 50.984375 C 2.359375 50.984375 1.734375 51.199219 1.734375 52.078125 C 1.734375 52.996094 2.515625 53.621094 3.53125 53.621094 C 5.328125 53.621094 7.125 51.980469 7.632812 49.988281 L 9.390625 42.996094 C 9.410156 42.898438 9.449219 42.800781 9.449219 42.683594 C 9.449219 42.429688 9.234375 42.234375 8.960938 42.234375 C 8.804688 42.234375 8.414062 42.3125 8.277344 42.859375 L 6.949219 48.113281 C 6.871094 48.445312 6.871094 48.484375 6.714844 48.679688 C 6.363281 49.1875 5.777344 49.792969 4.917969 49.792969 C 3.902344 49.792969 3.824219 48.796875 3.824219 48.328125 C 3.824219 47.292969 4.292969 45.925781 4.78125 44.617188 C 4.976562 44.109375 5.09375 43.855469 5.09375 43.503906 C 5.09375 42.742188 4.546875 42.058594 3.667969 42.058594 C 2.027344 42.058594 1.363281 44.65625 1.363281 44.8125 C 1.363281 44.871094 1.421875 44.96875 1.558594 44.96875 C 1.714844 44.96875 1.734375 44.890625 1.8125 44.636719 C 2.242188 43.132812 2.925781 42.429688 3.609375 42.429688 C 3.785156 42.429688 4.078125 42.429688 4.078125 43.015625 C 4.078125 43.484375 3.882812 43.992188 3.609375 44.675781 C 2.730469 47.019531 2.730469 47.625 2.730469 48.054688 C 2.730469 49.753906 3.960938 50.144531 4.859375 50.144531 C 5.367188 50.144531 6.011719 49.988281 6.65625 49.324219 L 6.675781 49.34375 C 6.402344 50.398438 6.226562 51.101562 5.582031 51.980469 Z M 5.582031 51.980469 "/>
<path style=" stroke:none;fill-rule:nonzero;fill:rgb(0%,0%,0%);fill-opacity:1;" d="M 25.890625 45.847656 C 26.203125 45.847656 26.515625 45.847656 26.515625 45.496094 C 26.515625 45.125 26.203125 45.125 25.890625 45.125 L 16.183594 45.125 C 15.890625 45.125 15.558594 45.125 15.558594 45.496094 C 15.558594 45.847656 15.890625 45.847656 16.183594 45.847656 Z M 25.890625 45.847656 "/>
<path style=" stroke:none;fill-rule:nonzero;fill:rgb(0%,0%,0%);fill-opacity:1;" d="M 42.347656 34.949219 C 42.347656 34.636719 42.347656 34.617188 42.054688 34.617188 C 41.273438 35.417969 40.179688 35.417969 39.789062 35.417969 L 39.789062 35.808594 C 40.042969 35.808594 40.765625 35.808594 41.410156 35.476562 L 41.410156 41.941406 C 41.410156 42.390625 41.371094 42.527344 40.257812 42.527344 L 39.867188 42.527344 L 39.867188 42.917969 C 40.296875 42.878906 41.371094 42.878906 41.878906 42.878906 C 42.367188 42.878906 43.460938 42.878906 43.890625 42.917969 L 43.890625 42.527344 L 43.5 42.527344 C 42.367188 42.527344 42.347656 42.390625 42.347656 41.941406 Z M 42.347656 34.949219 "/>
<path style=" stroke:none;fill-rule:nonzero;fill:rgb(0%,0%,0%);fill-opacity:1;" d="M 33.558594 45.03125 L 50.210938 45.03125 L 50.210938 45.78125 L 33.558594 45.78125 Z M 33.558594 45.03125 "/>
<path style=" stroke:none;fill-rule:nonzero;fill:rgb(0%,0%,0%);fill-opacity:1;" d="M 38.417969 58.210938 L 36.230469 53.367188 C 36.132812 53.171875 36.074219 53.171875 36.035156 53.171875 C 36.035156 53.171875 35.957031 53.171875 35.820312 53.269531 L 34.648438 54.167969 C 34.492188 54.304688 34.492188 54.324219 34.492188 54.363281 C 34.492188 54.441406 34.511719 54.5 34.609375 54.5 C 34.6875 54.5 34.902344 54.324219 35.039062 54.226562 C 35.097656 54.167969 35.292969 54.03125 35.429688 53.933594 L 37.890625 59.324219 C 37.96875 59.519531 38.027344 59.519531 38.144531 59.519531 C 38.339844 59.519531 38.378906 59.460938 38.457031 59.285156 L 44.121094 47.566406 C 44.199219 47.390625 44.199219 47.351562 44.199219 47.3125 C 44.199219 47.195312 44.101562 47.058594 43.945312 47.058594 C 43.847656 47.058594 43.769531 47.136719 43.671875 47.332031 Z M 38.417969 58.210938 "/>
<path style=" stroke:none;fill-rule:nonzero;fill:rgb(0%,0%,0%);fill-opacity:1;" d="M 43.910156 46.984375 L 50.210938 46.984375 L 50.210938 47.585938 L 43.910156 47.585938 Z M 43.910156 46.984375 "/>
<path style=" stroke:none;fill-rule:nonzero;fill:rgb(0%,0%,0%);fill-opacity:1;" d="M 45.507812 56.808594 L 46.835938 55.519531 C 48.769531 53.800781 49.511719 53.136719 49.511719 51.886719 C 49.511719 50.460938 48.398438 49.464844 46.875 49.464844 C 45.46875 49.464844 44.550781 50.617188 44.550781 51.730469 C 44.550781 52.414062 45.175781 52.414062 45.214844 52.414062 C 45.429688 52.414062 45.859375 52.277344 45.859375 51.75 C 45.859375 51.4375 45.625 51.105469 45.195312 51.105469 C 45.097656 51.105469 45.078125 51.105469 45.039062 51.125 C 45.3125 50.304688 45.996094 49.855469 46.71875 49.855469 C 47.851562 49.855469 48.378906 50.871094 48.378906 51.886719 C 48.378906 52.882812 47.773438 53.859375 47.070312 54.640625 L 44.6875 57.296875 C 44.550781 57.433594 44.550781 57.472656 44.550781 57.765625 L 49.179688 57.765625 L 49.511719 55.597656 L 49.21875 55.597656 C 49.140625 55.96875 49.0625 56.515625 48.925781 56.710938 C 48.847656 56.808594 48.027344 56.808594 47.753906 56.808594 Z M 45.507812 56.808594 "/>
<path style=" stroke:none;fill-rule:nonzero;fill:rgb(0%,0%,0%);fill-opacity:1;" d="M 0.859375 61.535156 L 51.710938 61.535156 L 51.710938 62.285156 L 0.859375 62.285156 Z M 0.859375 61.535156 "/>
<path style=" stroke:none;fill-rule:nonzero;fill:rgb(0%,0%,0%);fill-opacity:1;" d="M 14.472656 71.441406 C 13.90625 71.558594 13.691406 71.988281 13.691406 72.320312 C 13.691406 72.75 14.023438 72.90625 14.277344 72.90625 C 14.824219 72.90625 15.195312 72.4375 15.195312 71.949219 C 15.195312 71.207031 14.335938 70.855469 13.574219 70.855469 C 12.480469 70.855469 11.875 71.929688 11.71875 72.28125 C 11.308594 70.933594 10.195312 70.855469 9.863281 70.855469 C 8.046875 70.855469 7.070312 73.199219 7.070312 73.609375 C 7.070312 73.667969 7.148438 73.765625 7.265625 73.765625 C 7.402344 73.765625 7.441406 73.648438 7.480469 73.589844 C 8.085938 71.597656 9.296875 71.226562 9.804688 71.226562 C 10.625 71.226562 10.78125 71.96875 10.78125 72.398438 C 10.78125 72.789062 10.683594 73.199219 10.449219 74.058594 L 9.84375 76.519531 C 9.589844 77.59375 9.0625 78.589844 8.105469 78.589844 C 8.027344 78.589844 7.578125 78.589844 7.1875 78.355469 C 7.832031 78.21875 7.988281 77.691406 7.988281 77.476562 C 7.988281 77.125 7.714844 76.910156 7.382812 76.910156 C 6.953125 76.910156 6.484375 77.28125 6.484375 77.847656 C 6.484375 78.609375 7.324219 78.941406 8.085938 78.941406 C 8.945312 78.941406 9.570312 78.257812 9.941406 77.535156 C 10.234375 78.589844 11.113281 78.941406 11.777344 78.941406 C 13.613281 78.941406 14.589844 76.597656 14.589844 76.207031 C 14.589844 76.109375 14.511719 76.03125 14.394531 76.03125 C 14.238281 76.03125 14.21875 76.128906 14.179688 76.265625 C 13.691406 77.847656 12.636719 78.589844 11.835938 78.589844 C 11.210938 78.589844 10.878906 78.121094 10.878906 77.378906 C 10.878906 76.988281 10.9375 76.695312 11.230469 75.523438 L 11.855469 73.082031 C 12.128906 72.007812 12.734375 71.226562 13.554688 71.226562 C 13.59375 71.226562 14.101562 71.226562 14.472656 71.441406 Z M 14.472656 71.441406 "/>
<path style=" stroke:none;fill-rule:nonzero;fill:rgb(0%,0%,0%);fill-opacity:1;" d="M 31.742188 74.644531 C 32.054688 74.644531 32.367188 74.644531 32.367188 74.292969 C 32.367188 73.921875 32.054688 73.921875 31.742188 73.921875 L 22.035156 73.921875 C 21.742188 73.921875 21.410156 73.921875 21.410156 74.292969 C 21.410156 74.644531 21.742188 74.644531 22.035156 74.644531 Z M 31.742188 74.644531 "/>
<path style=" stroke:none;fill-rule:nonzero;fill:rgb(0%,0%,0%);fill-opacity:1;" d="M 45.804688 73.023438 C 45.804688 71.539062 45.726562 70.09375 45.082031 68.726562 C 44.339844 67.242188 43.050781 66.851562 42.171875 66.851562 C 41.136719 66.851562 39.847656 67.359375 39.203125 68.84375 C 38.695312 69.976562 38.519531 71.089844 38.519531 73.023438 C 38.519531 74.761719 38.636719 76.070312 39.28125 77.339844 C 39.984375 78.707031 41.214844 79.136719 42.152344 79.136719 C 43.714844 79.136719 44.613281 78.21875 45.121094 77.164062 C 45.765625 75.816406 45.804688 74.058594 45.804688 73.023438 Z M 42.152344 78.785156 C 41.585938 78.785156 40.414062 78.453125 40.082031 76.5 C 39.867188 75.425781 39.867188 74.058594 39.867188 72.808594 C 39.867188 71.34375 39.867188 70.015625 40.160156 68.960938 C 40.472656 67.75 41.390625 67.203125 42.152344 67.203125 C 42.835938 67.203125 43.871094 67.613281 44.222656 69.15625 C 44.4375 70.171875 44.4375 71.597656 44.4375 72.808594 C 44.4375 74.019531 44.4375 75.367188 44.242188 76.460938 C 43.910156 78.433594 42.777344 78.785156 42.152344 78.785156 Z M 42.152344 78.785156 "/>
<path style=" stroke:none;fill-rule:nonzero;fill:rgb(0%,0%,0%);fill-opacity:1;" d="M 70.132812 60.667969 C 70.386719 60.667969 70.699219 60.667969 70.699219 60.335938 C 70.699219 60.003906 70.386719 60.003906 70.132812 60.003906 L 59.566406 60.003906 C 59.3125 60.003906 59 60.003906 59 60.316406 C 59 60.667969 59.292969 60.667969 59.566406 60.667969 Z M 70.132812 63.988281 C 70.386719 63.988281 70.699219 63.988281 70.699219 63.675781 C 70.699219 63.324219 70.386719 63.324219 70.132812 63.324219 L 59.566406 63.324219 C 59.3125 63.324219 59 63.324219 59 63.65625 C 59 63.988281 59.292969 63.988281 59.566406 63.988281 Z M 70.132812 63.988281 "/>
<path style=" stroke:none;fill-rule:nonzero;fill:rgb(0%,0%,0%);fill-opacity:1;" d="M 86.164062 51.308594 L 85.773438 51.308594 C 85.714844 51.601562 85.578125 52.597656 85.382812 52.890625 C 85.265625 53.046875 84.25 53.046875 83.703125 53.046875 L 80.382812 53.046875 C 80.871094 52.636719 81.964844 51.484375 82.433594 51.054688 C 85.167969 48.535156 86.164062 47.617188 86.164062 45.839844 C 86.164062 43.769531 84.523438 42.402344 82.453125 42.402344 C 80.363281 42.402344 79.152344 44.160156 79.152344 45.703125 C 79.152344 46.621094 79.933594 46.621094 79.992188 46.621094 C 80.363281 46.621094 80.832031 46.347656 80.832031 45.78125 C 80.832031 45.273438 80.5 44.941406 79.992188 44.941406 C 79.835938 44.941406 79.796875 44.941406 79.738281 44.960938 C 80.089844 43.730469 81.046875 42.910156 82.21875 42.910156 C 83.742188 42.910156 84.679688 44.179688 84.679688 45.839844 C 84.679688 47.363281 83.800781 48.691406 82.765625 49.84375 L 79.152344 53.886719 L 79.152344 54.316406 L 85.695312 54.316406 Z M 86.164062 51.308594 "/>
<path style=" stroke:none;fill-rule:nonzero;fill:rgb(0%,0%,0%);fill-opacity:1;" d="M 94.097656 54.800781 L 90.953125 47.828125 C 90.816406 47.535156 90.738281 47.535156 90.679688 47.535156 C 90.660156 47.535156 90.5625 47.535156 90.367188 47.671875 L 88.667969 48.980469 C 88.433594 49.15625 88.433594 49.195312 88.433594 49.253906 C 88.433594 49.351562 88.492188 49.449219 88.609375 49.449219 C 88.726562 49.449219 89.019531 49.195312 89.214844 49.058594 C 89.332031 48.980469 89.605469 48.765625 89.800781 48.628906 L 93.335938 56.402344 C 93.453125 56.675781 93.550781 56.675781 93.707031 56.675781 C 93.980469 56.675781 94.019531 56.578125 94.15625 56.324219 L 102.300781 39.46875 C 102.417969 39.214844 102.417969 39.136719 102.417969 39.117188 C 102.417969 38.921875 102.28125 38.746094 102.066406 38.746094 C 101.910156 38.746094 101.792969 38.84375 101.65625 39.136719 Z M 94.097656 54.800781 "/>
<path style=" stroke:none;fill-rule:nonzero;fill:rgb(0%,0%,0%);fill-opacity:1;" d="M 101.957031 38.730469 L 110.804688 38.730469 L 110.804688 39.484375 L 101.957031 39.484375 Z M 101.957031 38.730469 "/>
<path style=" stroke:none;fill-rule:nonzero;fill:rgb(0%,0%,0%);fill-opacity:1;" d="M 109.867188 51.308594 L 109.476562 51.308594 C 109.417969 51.601562 109.28125 52.597656 109.085938 52.890625 C 108.96875 53.046875 107.953125 53.046875 107.40625 53.046875 L 104.085938 53.046875 C 104.574219 52.636719 105.667969 51.484375 106.136719 51.054688 C 108.871094 48.535156 109.867188 47.617188 109.867188 45.839844 C 109.867188 43.769531 108.226562 42.402344 106.15625 42.402344 C 104.066406 42.402344 102.855469 44.160156 102.855469 45.703125 C 102.855469 46.621094 103.636719 46.621094 103.695312 46.621094 C 104.066406 46.621094 104.535156 46.347656 104.535156 45.78125 C 104.535156 45.273438 104.203125 44.941406 103.695312 44.941406 C 103.539062 44.941406 103.5 44.941406 103.441406 44.960938 C 103.792969 43.730469 104.75 42.910156 105.921875 42.910156 C 107.445312 42.910156 108.382812 44.179688 108.382812 45.839844 C 108.382812 47.363281 107.503906 48.691406 106.46875 49.84375 L 102.855469 53.886719 L 102.855469 54.316406 L 109.398438 54.316406 Z M 109.867188 51.308594 "/>
<path style=" stroke:none;fill-rule:nonzero;fill:rgb(0%,0%,0%);fill-opacity:1;" d="M 78.261719 61.535156 L 110.8125 61.535156 L 110.8125 62.285156 L 78.261719 62.285156 Z M 78.261719 61.535156 "/>
<path style=" stroke:none;fill-rule:nonzero;fill:rgb(0%,0%,0%);fill-opacity:1;" d="M 93.425781 72.320312 C 93.113281 72.339844 93.054688 72.359375 93.054688 72.535156 C 93.054688 72.710938 93.132812 72.710938 93.464844 72.710938 L 94.285156 72.710938 C 95.808594 72.710938 96.492188 73.960938 96.492188 75.679688 C 96.492188 78.023438 95.261719 78.648438 94.382812 78.648438 C 93.523438 78.648438 92.058594 78.238281 91.550781 77.066406 C 92.117188 77.144531 92.644531 76.832031 92.644531 76.1875 C 92.644531 75.660156 92.253906 75.308594 91.765625 75.308594 C 91.335938 75.308594 90.867188 75.5625 90.867188 76.246094 C 90.867188 77.828125 92.449219 79.136719 94.441406 79.136719 C 96.570312 79.136719 98.152344 77.515625 98.152344 75.699219 C 98.152344 74.058594 96.824219 72.75 95.105469 72.457031 C 96.667969 72.007812 97.664062 70.699219 97.664062 69.292969 C 97.664062 67.886719 96.199219 66.851562 94.460938 66.851562 C 92.664062 66.851562 91.335938 67.945312 91.335938 69.253906 C 91.335938 69.957031 91.902344 70.113281 92.175781 70.113281 C 92.546875 70.113281 92.976562 69.839844 92.976562 69.292969 C 92.976562 68.726562 92.546875 68.472656 92.15625 68.472656 C 92.039062 68.472656 92 68.472656 91.960938 68.492188 C 92.644531 67.28125 94.324219 67.28125 94.402344 67.28125 C 95.007812 67.28125 96.160156 67.535156 96.160156 69.292969 C 96.160156 69.644531 96.121094 70.640625 95.59375 71.421875 C 95.046875 72.203125 94.441406 72.261719 93.953125 72.28125 Z M 93.425781 72.320312 "/>
<path style=" stroke:none;fill-rule:nonzero;fill:rgb(0%,0%,0%);fill-opacity:1;" d="M 134.335938 60.667969 C 134.589844 60.667969 134.902344 60.667969 134.902344 60.335938 C 134.902344 60.003906 134.589844 60.003906 134.335938 60.003906 L 123.769531 60.003906 C 123.515625 60.003906 123.203125 60.003906 123.203125 60.316406 C 123.203125 60.667969 123.496094 60.667969 123.769531 60.667969 Z M 134.335938 63.988281 C 134.589844 63.988281 134.902344 63.988281 134.902344 63.675781 C 134.902344 63.324219 134.589844 63.324219 134.335938 63.324219 L 123.769531 63.324219 C 123.515625 63.324219 123.203125 63.324219 123.203125 63.65625 C 123.203125 63.988281 123.496094 63.988281 123.769531 63.988281 Z M 134.335938 63.988281 "/>
<path style=" stroke:none;fill-rule:nonzero;fill:rgb(0%,0%,0%);fill-opacity:1;" d="M 145.882812 60.609375 C 146.644531 61.253906 147.5625 61.722656 148.148438 61.996094 C 147.503906 62.269531 146.625 62.738281 145.882812 63.363281 L 134.515625 63.363281 C 134.203125 63.363281 133.851562 63.363281 133.851562 63.734375 C 133.851562 64.085938 134.183594 64.085938 134.496094 64.085938 L 145.082031 64.085938 C 144.222656 64.90625 143.285156 66.488281 143.285156 66.722656 C 143.285156 66.917969 143.519531 66.917969 143.636719 66.917969 C 143.773438 66.917969 143.910156 66.917969 143.96875 66.78125 C 144.359375 66.097656 144.847656 65.140625 146.019531 64.105469 C 147.25 63.011719 148.460938 62.523438 149.378906 62.25 C 149.691406 62.152344 149.710938 62.132812 149.75 62.09375 C 149.789062 62.074219 149.789062 62.015625 149.789062 61.996094 C 149.789062 61.957031 149.789062 61.917969 149.769531 61.878906 L 149.710938 61.839844 C 149.671875 61.820312 149.652344 61.800781 149.320312 61.703125 C 146.898438 60.980469 145.101562 59.359375 144.105469 57.425781 C 143.910156 57.074219 143.890625 57.054688 143.636719 57.054688 C 143.519531 57.054688 143.285156 57.054688 143.285156 57.25 C 143.285156 57.484375 144.203125 59.046875 145.082031 59.886719 L 134.496094 59.886719 C 134.183594 59.886719 133.851562 59.886719 133.851562 60.238281 C 133.851562 60.609375 134.203125 60.609375 134.515625 60.609375 Z M 145.882812 60.609375 "/>
<path style=" stroke:none;fill-rule:nonzero;fill:rgb(0%,0%,0%);fill-opacity:1;" d="M 164.074219 60.023438 C 163.761719 60.042969 163.703125 60.0625 163.703125 60.238281 C 163.703125 60.414062 163.78125 60.414062 164.113281 60.414062 L 164.933594 60.414062 C 166.457031 60.414062 167.140625 61.664062 167.140625 63.382812 C 167.140625 65.726562 165.910156 66.351562 165.03125 66.351562 C 164.171875 66.351562 162.707031 65.941406 162.199219 64.769531 C 162.765625 64.847656 163.292969 64.535156 163.292969 63.890625 C 163.292969 63.363281 162.902344 63.011719 162.414062 63.011719 C 161.984375 63.011719 161.515625 63.265625 161.515625 63.949219 C 161.515625 65.53125 163.097656 66.839844 165.089844 66.839844 C 167.21875 66.839844 168.800781 65.21875 168.800781 63.402344 C 168.800781 61.761719 167.472656 60.453125 165.753906 60.160156 C 167.316406 59.710938 168.3125 58.402344 168.3125 56.996094 C 168.3125 55.589844 166.847656 54.554688 165.109375 54.554688 C 163.3125 54.554688 161.984375 55.648438 161.984375 56.957031 C 161.984375 57.660156 162.550781 57.816406 162.824219 57.816406 C 163.195312 57.816406 163.625 57.542969 163.625 56.996094 C 163.625 56.429688 163.195312 56.175781 162.804688 56.175781 C 162.6875 56.175781 162.648438 56.175781 162.609375 56.195312 C 163.292969 54.984375 164.972656 54.984375 165.050781 54.984375 C 165.65625 54.984375 166.808594 55.238281 166.808594 56.996094 C 166.808594 57.347656 166.769531 58.34375 166.242188 59.125 C 165.695312 59.90625 165.089844 59.964844 164.601562 59.984375 Z M 164.074219 60.023438 "/>
<path style=" stroke:none;fill-rule:nonzero;fill:rgb(0%,0%,0%);fill-opacity:1;" d="M 176.597656 66.050781 L 173.453125 59.078125 C 173.316406 58.785156 173.238281 58.785156 173.179688 58.785156 C 173.160156 58.785156 173.0625 58.785156 172.867188 58.921875 L 171.167969 60.230469 C 170.933594 60.40625 170.933594 60.445312 170.933594 60.503906 C 170.933594 60.601562 170.992188 60.699219 171.109375 60.699219 C 171.226562 60.699219 171.519531 60.445312 171.714844 60.308594 C 171.832031 60.230469 172.105469 60.015625 172.300781 59.878906 L 175.835938 67.652344 C 175.953125 67.925781 176.050781 67.925781 176.207031 67.925781 C 176.480469 67.925781 176.519531 67.828125 176.65625 67.574219 L 184.800781 50.71875 C 184.917969 50.464844 184.917969 50.386719 184.917969 50.367188 C 184.917969 50.171875 184.78125 49.996094 184.566406 49.996094 C 184.410156 49.996094 184.292969 50.09375 184.15625 50.386719 Z M 176.597656 66.050781 "/>
<path style=" stroke:none;fill-rule:nonzero;fill:rgb(0%,0%,0%);fill-opacity:1;" d="M 184.457031 49.980469 L 193.304688 49.980469 L 193.304688 50.734375 L 184.457031 50.734375 Z M 184.457031 49.980469 "/>
<path style=" stroke:none;fill-rule:nonzero;fill:rgb(0%,0%,0%);fill-opacity:1;" d="M 192.367188 63.460938 L 191.976562 63.460938 C 191.917969 63.753906 191.78125 64.75 191.585938 65.042969 C 191.46875 65.199219 190.453125 65.199219 189.90625 65.199219 L 186.585938 65.199219 C 187.074219 64.789062 188.167969 63.636719 188.636719 63.207031 C 191.371094 60.6875 192.367188 59.769531 192.367188 57.992188 C 192.367188 55.921875 190.726562 54.554688 188.65625 54.554688 C 186.566406 54.554688 185.355469 56.3125 185.355469 57.855469 C 185.355469 58.773438 186.136719 58.773438 186.195312 58.773438 C 186.566406 58.773438 187.035156 58.5 187.035156 57.933594 C 187.035156 57.425781 186.703125 57.09375 186.195312 57.09375 C 186.039062 57.09375 186 57.09375 185.941406 57.113281 C 186.292969 55.882812 187.25 55.0625 188.421875 55.0625 C 189.945312 55.0625 190.882812 56.332031 190.882812 57.992188 C 190.882812 59.515625 190.003906 60.84375 188.96875 61.996094 L 185.355469 66.039062 L 185.355469 66.46875 L 191.898438 66.46875 Z M 192.367188 63.460938 "/>
<path style=" stroke:none;fill-rule:nonzero;fill:rgb(0%,0%,0%);fill-opacity:1;" d="M 198.03125 68.480469 C 197.5625 69.164062 196.859375 69.769531 195.980469 69.769531 C 195.765625 69.769531 194.90625 69.730469 194.632812 68.910156 C 194.691406 68.929688 194.769531 68.929688 194.808594 68.929688 C 195.355469 68.929688 195.707031 68.460938 195.707031 68.050781 C 195.707031 67.640625 195.375 67.484375 195.101562 67.484375 C 194.808594 67.484375 194.183594 67.699219 194.183594 68.578125 C 194.183594 69.496094 194.964844 70.121094 195.980469 70.121094 C 197.777344 70.121094 199.574219 68.480469 200.082031 66.488281 L 201.839844 59.496094 C 201.859375 59.398438 201.898438 59.300781 201.898438 59.183594 C 201.898438 58.929688 201.683594 58.734375 201.410156 58.734375 C 201.253906 58.734375 200.863281 58.8125 200.726562 59.359375 L 199.398438 64.613281 C 199.320312 64.945312 199.320312 64.984375 199.164062 65.179688 C 198.8125 65.6875 198.226562 66.292969 197.367188 66.292969 C 196.351562 66.292969 196.273438 65.296875 196.273438 64.828125 C 196.273438 63.792969 196.742188 62.425781 197.230469 61.117188 C 197.425781 60.609375 197.542969 60.355469 197.542969 60.003906 C 197.542969 59.242188 196.996094 58.558594 196.117188 58.558594 C 194.476562 58.558594 193.8125 61.15625 193.8125 61.3125 C 193.8125 61.371094 193.871094 61.46875 194.007812 61.46875 C 194.164062 61.46875 194.183594 61.390625 194.261719 61.136719 C 194.691406 59.632812 195.375 58.929688 196.058594 58.929688 C 196.234375 58.929688 196.527344 58.929688 196.527344 59.515625 C 196.527344 59.984375 196.332031 60.492188 196.058594 61.175781 C 195.179688 63.519531 195.179688 64.125 195.179688 64.554688 C 195.179688 66.253906 196.410156 66.644531 197.308594 66.644531 C 197.816406 66.644531 198.460938 66.488281 199.105469 65.824219 L 199.125 65.84375 C 198.851562 66.898438 198.675781 67.601562 198.03125 68.480469 Z M 198.03125 68.480469 "/>
<path style=" stroke:none;fill-rule:nonzero;fill:rgb(0%,0%,0%);fill-opacity:1;" d="M 219.535156 60.667969 C 219.789062 60.667969 220.101562 60.667969 220.101562 60.335938 C 220.101562 60.003906 219.789062 60.003906 219.535156 60.003906 L 208.96875 60.003906 C 208.714844 60.003906 208.402344 60.003906 208.402344 60.316406 C 208.402344 60.667969 208.695312 60.667969 208.96875 60.667969 Z M 219.535156 63.988281 C 219.789062 63.988281 220.101562 63.988281 220.101562 63.675781 C 220.101562 63.324219 219.789062 63.324219 219.535156 63.324219 L 208.96875 63.324219 C 208.714844 63.324219 208.402344 63.324219 208.402344 63.65625 C 208.402344 63.988281 208.695312 63.988281 208.96875 63.988281 Z M 219.535156 63.988281 "/>
<path style=" stroke:none;fill-rule:nonzero;fill:rgb(0%,0%,0%);fill-opacity:1;" d="M 232.492188 54.789062 C 232.492188 54.457031 232.492188 54.359375 232.257812 54.359375 C 232.101562 54.359375 232.042969 54.359375 231.90625 54.574219 L 226.515625 62.953125 L 226.515625 63.480469 L 231.222656 63.480469 L 231.222656 65.101562 C 231.222656 65.765625 231.183594 65.941406 229.875 65.941406 L 229.523438 65.941406 L 229.523438 66.46875 C 229.933594 66.429688 231.359375 66.429688 231.847656 66.429688 C 232.355469 66.429688 233.78125 66.429688 234.210938 66.46875 L 234.210938 65.941406 L 233.839844 65.941406 C 232.550781 65.941406 232.492188 65.765625 232.492188 65.101562 L 232.492188 63.480469 L 234.308594 63.480469 L 234.308594 62.953125 L 232.492188 62.953125 Z M 231.320312 56.195312 L 231.320312 62.953125 L 226.964844 62.953125 Z M 231.320312 56.195312 "/>
<path style=" stroke:none;fill-rule:nonzero;fill:rgb(0%,0%,0%);fill-opacity:1;" d="M 243.371094 59.144531 C 242.804688 59.261719 242.589844 59.691406 242.589844 60.023438 C 242.589844 60.453125 242.921875 60.609375 243.175781 60.609375 C 243.722656 60.609375 244.09375 60.140625 244.09375 59.652344 C 244.09375 58.910156 243.234375 58.558594 242.472656 58.558594 C 241.378906 58.558594 240.773438 59.632812 240.617188 59.984375 C 240.207031 58.636719 239.09375 58.558594 238.761719 58.558594 C 236.945312 58.558594 235.96875 60.902344 235.96875 61.3125 C 235.96875 61.371094 236.046875 61.46875 236.164062 61.46875 C 236.300781 61.46875 236.339844 61.351562 236.378906 61.292969 C 236.984375 59.300781 238.195312 58.929688 238.703125 58.929688 C 239.523438 58.929688 239.679688 59.671875 239.679688 60.101562 C 239.679688 60.492188 239.582031 60.902344 239.347656 61.761719 L 238.742188 64.222656 C 238.488281 65.296875 237.960938 66.292969 237.003906 66.292969 C 236.925781 66.292969 236.476562 66.292969 236.085938 66.058594 C 236.730469 65.921875 236.886719 65.394531 236.886719 65.179688 C 236.886719 64.828125 236.613281 64.613281 236.28125 64.613281 C 235.851562 64.613281 235.382812 64.984375 235.382812 65.550781 C 235.382812 66.3125 236.222656 66.644531 236.984375 66.644531 C 237.84375 66.644531 238.46875 65.960938 238.839844 65.238281 C 239.132812 66.292969 240.011719 66.644531 240.675781 66.644531 C 242.511719 66.644531 243.488281 64.300781 243.488281 63.910156 C 243.488281 63.8125 243.410156 63.734375 243.292969 63.734375 C 243.136719 63.734375 243.117188 63.832031 243.078125 63.96875 C 242.589844 65.550781 241.535156 66.292969 240.734375 66.292969 C 240.109375 66.292969 239.777344 65.824219 239.777344 65.082031 C 239.777344 64.691406 239.835938 64.398438 240.128906 63.226562 L 240.753906 60.785156 C 241.027344 59.710938 241.632812 58.929688 242.453125 58.929688 C 242.492188 58.929688 243 58.929688 243.371094 59.144531 Z M 243.371094 59.144531 "/>
<path style=" stroke:none;fill-rule:nonzero;fill:rgb(0%,0%,0%);fill-opacity:1;" d="M 255.972656 62.328125 L 260.933594 62.328125 C 261.1875 62.328125 261.5 62.328125 261.5 61.996094 C 261.5 61.664062 261.1875 61.664062 260.933594 61.664062 L 255.972656 61.664062 L 255.972656 56.722656 C 255.972656 56.46875 255.972656 56.136719 255.660156 56.136719 C 255.308594 56.136719 255.308594 56.449219 255.308594 56.722656 L 255.308594 61.664062 L 250.367188 61.664062 C 250.113281 61.664062 249.800781 61.664062 249.800781 61.996094 C 249.800781 62.328125 250.09375 62.328125 250.367188 62.328125 L 255.308594 62.328125 L 255.308594 67.269531 C 255.308594 67.523438 255.308594 67.855469 255.640625 67.855469 C 255.972656 67.855469 255.972656 67.542969 255.972656 67.269531 Z M 255.972656 62.328125 "/>
<path style=" stroke:none;fill-rule:nonzero;fill:rgb(0%,0%,0%);fill-opacity:1;" d="M 269.828125 60.023438 C 269.515625 60.042969 269.457031 60.0625 269.457031 60.238281 C 269.457031 60.414062 269.535156 60.414062 269.867188 60.414062 L 270.6875 60.414062 C 272.210938 60.414062 272.894531 61.664062 272.894531 63.382812 C 272.894531 65.726562 271.664062 66.351562 270.785156 66.351562 C 269.925781 66.351562 268.460938 65.941406 267.953125 64.769531 C 268.519531 64.847656 269.046875 64.535156 269.046875 63.890625 C 269.046875 63.363281 268.65625 63.011719 268.167969 63.011719 C 267.738281 63.011719 267.269531 63.265625 267.269531 63.949219 C 267.269531 65.53125 268.851562 66.839844 270.84375 66.839844 C 272.972656 66.839844 274.554688 65.21875 274.554688 63.402344 C 274.554688 61.761719 273.226562 60.453125 271.507812 60.160156 C 273.070312 59.710938 274.066406 58.402344 274.066406 56.996094 C 274.066406 55.589844 272.601562 54.554688 270.863281 54.554688 C 269.066406 54.554688 267.738281 55.648438 267.738281 56.957031 C 267.738281 57.660156 268.304688 57.816406 268.578125 57.816406 C 268.949219 57.816406 269.378906 57.542969 269.378906 56.996094 C 269.378906 56.429688 268.949219 56.175781 268.558594 56.175781 C 268.441406 56.175781 268.402344 56.175781 268.363281 56.195312 C 269.046875 54.984375 270.726562 54.984375 270.804688 54.984375 C 271.410156 54.984375 272.5625 55.238281 272.5625 56.996094 C 272.5625 57.347656 272.523438 58.34375 271.996094 59.125 C 271.449219 59.90625 270.84375 59.964844 270.355469 59.984375 Z M 269.828125 60.023438 "/>
</g>
</svg>
