<?xml version="1.0" encoding="UTF-8"?>
<svg xmlns="http://www.w3.org/2000/svg" xmlns:xlink="http://www.w3.org/1999/xlink" width="310.27906pt" height="49.534426pt" viewBox="0 0 310.27906 49.534426" version="1.1">
<g id="surface1">
<path style=" stroke:none;fill-rule:nonzero;fill:rgb(0%,0%,0%);fill-opacity:1;" d="M 6.132812 1.191406 L 7.714844 1.191406 C 7.929688 1.191406 8.144531 1.210938 8.359375 1.210938 L 10.703125 1.210938 L 10.703125 0.078125 L 0 0.078125 L 0 1.210938 L 2.363281 1.210938 C 2.578125 1.210938 2.792969 1.191406 3.007812 1.191406 L 4.589844 1.191406 L 4.589844 12.441406 L 6.132812 12.441406 Z M 6.132812 1.191406 "/>
<path style=" stroke:none;fill-rule:nonzero;fill:rgb(0%,0%,0%);fill-opacity:1;" d="M 18.972656 7.050781 C 18.972656 5.957031 18.738281 4.296875 16.570312 4.296875 C 15.339844 4.296875 14.519531 5 14.089844 5.546875 L 14.089844 0 L 12.761719 0 L 12.761719 12.441406 L 14.109375 12.441406 L 14.109375 7.96875 C 14.109375 6.875 14.539062 5.371094 15.886719 5.371094 C 17.566406 5.371094 17.605469 6.542969 17.605469 7.167969 L 17.605469 12.441406 L 18.972656 12.441406 Z M 18.972656 7.050781 "/>
<path style=" stroke:none;fill-rule:nonzero;fill:rgb(0%,0%,0%);fill-opacity:1;" d="M 27.679688 8.398438 C 27.679688 7.636719 27.601562 6.542969 27.035156 5.585938 C 26.292969 4.355469 25.042969 4.21875 24.515625 4.21875 C 22.582031 4.21875 20.960938 6.074219 20.960938 8.398438 C 20.960938 10.78125 22.679688 12.617188 24.769531 12.617188 C 25.589844 12.617188 26.585938 12.382812 27.5625 11.679688 C 27.5625 11.601562 27.503906 11.035156 27.503906 11.015625 C 27.484375 10.996094 27.464844 10.585938 27.464844 10.527344 C 26.390625 11.425781 25.335938 11.542969 24.808594 11.542969 C 23.421875 11.542969 22.230469 10.3125 22.210938 8.398438 Z M 22.308594 7.441406 C 22.621094 6.230469 23.460938 5.292969 24.515625 5.292969 C 25.082031 5.292969 26.3125 5.546875 26.605469 7.441406 Z M 22.308594 7.441406 "/>
<path style=" stroke:none;fill-rule:nonzero;fill:rgb(0%,0%,0%);fill-opacity:1;" d="M 37.808594 8.515625 C 37.808594 6.699219 39.15625 5.527344 40.777344 5.507812 L 40.777344 4.296875 C 39.136719 4.316406 38.199219 5.273438 37.710938 5.976562 L 37.710938 4.394531 L 36.480469 4.394531 L 36.480469 12.441406 L 37.808594 12.441406 Z M 37.808594 8.515625 "/>
<path style=" stroke:none;fill-rule:nonzero;fill:rgb(0%,0%,0%);fill-opacity:1;" d="M 48.378906 8.398438 C 48.378906 7.636719 48.300781 6.542969 47.734375 5.585938 C 46.992188 4.355469 45.742188 4.21875 45.214844 4.21875 C 43.28125 4.21875 41.660156 6.074219 41.660156 8.398438 C 41.660156 10.78125 43.378906 12.617188 45.46875 12.617188 C 46.289062 12.617188 47.285156 12.382812 48.261719 11.679688 C 48.261719 11.601562 48.203125 11.035156 48.203125 11.015625 C 48.183594 10.996094 48.164062 10.585938 48.164062 10.527344 C 47.089844 11.425781 46.035156 11.542969 45.507812 11.542969 C 44.121094 11.542969 42.929688 10.3125 42.910156 8.398438 Z M 43.007812 7.441406 C 43.320312 6.230469 44.160156 5.292969 45.214844 5.292969 C 45.78125 5.292969 47.011719 5.546875 47.304688 7.441406 Z M 43.007812 7.441406 "/>
<path style=" stroke:none;fill-rule:nonzero;fill:rgb(0%,0%,0%);fill-opacity:1;" d="M 56.453125 4.296875 L 55.125 4.296875 L 55.125 5.449219 C 54.65625 4.902344 53.875 4.296875 52.78125 4.296875 C 51.023438 4.296875 49.5 6.074219 49.5 8.476562 C 49.5 10.761719 50.828125 12.617188 52.507812 12.617188 C 53.894531 12.617188 54.851562 11.796875 55.105469 11.523438 L 55.105469 15.917969 L 56.453125 15.917969 Z M 55.125 9.941406 C 55.125 10.292969 55.125 10.3125 54.929688 10.585938 C 54.441406 11.308594 53.796875 11.542969 53.269531 11.542969 C 51.921875 11.542969 50.867188 10.136719 50.867188 8.476562 C 50.867188 6.640625 52.15625 5.410156 53.425781 5.410156 C 54.578125 5.410156 55.125 6.582031 55.125 7.304688 Z M 55.125 9.941406 "/>
<path style=" stroke:none;fill-rule:nonzero;fill:rgb(0%,0%,0%);fill-opacity:1;" d="M 65.472656 4.472656 L 64.105469 4.472656 L 64.105469 9.609375 C 64.105469 10.976562 63.167969 11.640625 61.996094 11.640625 C 60.746094 11.640625 60.609375 11.171875 60.609375 10.371094 L 60.609375 4.472656 L 59.261719 4.472656 L 59.261719 10.449219 C 59.261719 11.738281 59.671875 12.617188 61.136719 12.617188 C 61.644531 12.617188 63.050781 12.539062 64.144531 11.542969 L 64.144531 12.441406 L 65.472656 12.441406 Z M 65.472656 4.472656 "/>
<path style=" stroke:none;fill-rule:nonzero;fill:rgb(0%,0%,0%);fill-opacity:1;" d="M 69.707031 0.273438 L 68.164062 0.273438 L 68.164062 1.816406 L 69.707031 1.816406 Z M 69.609375 4.472656 L 68.28125 4.472656 L 68.28125 12.441406 L 69.609375 12.441406 Z M 69.609375 4.472656 "/>
<path style=" stroke:none;fill-rule:nonzero;fill:rgb(0%,0%,0%);fill-opacity:1;" d="M 73.808594 8.515625 C 73.808594 6.699219 75.15625 5.527344 76.777344 5.507812 L 76.777344 4.296875 C 75.136719 4.316406 74.199219 5.273438 73.710938 5.976562 L 73.710938 4.394531 L 72.480469 4.394531 L 72.480469 12.441406 L 73.808594 12.441406 Z M 73.808594 8.515625 "/>
<path style=" stroke:none;fill-rule:nonzero;fill:rgb(0%,0%,0%);fill-opacity:1;" d="M 84.378906 8.398438 C 84.378906 7.636719 84.300781 6.542969 83.734375 5.585938 C 82.992188 4.355469 81.742188 4.21875 81.214844 4.21875 C 79.28125 4.21875 77.660156 6.074219 77.660156 8.398438 C 77.660156 10.78125 79.378906 12.617188 81.46875 12.617188 C 82.289062 12.617188 83.285156 12.382812 84.261719 11.679688 C 84.261719 11.601562 84.203125 11.035156 84.203125 11.015625 C 84.183594 10.996094 84.164062 10.585938 84.164062 10.527344 C 83.089844 11.425781 82.035156 11.542969 81.507812 11.542969 C 80.121094 11.542969 78.929688 10.3125 78.910156 8.398438 Z M 79.007812 7.441406 C 79.320312 6.230469 80.160156 5.292969 81.214844 5.292969 C 81.78125 5.292969 83.011719 5.546875 83.304688 7.441406 Z M 79.007812 7.441406 "/>
<path style=" stroke:none;fill-rule:nonzero;fill:rgb(0%,0%,0%);fill-opacity:1;" d="M 92.453125 0 L 91.125 0 L 91.125 5.234375 C 90.304688 4.550781 89.367188 4.296875 88.605469 4.296875 C 86.90625 4.296875 85.5 6.132812 85.5 8.457031 C 85.5 10.78125 86.828125 12.617188 88.527344 12.617188 C 89.191406 12.617188 90.207031 12.402344 91.105469 11.523438 L 91.105469 12.441406 L 92.453125 12.441406 Z M 91.105469 10.332031 C 90.675781 11.09375 90.03125 11.542969 89.25 11.542969 C 88.15625 11.542969 86.867188 10.703125 86.867188 8.476562 C 86.867188 6.09375 88.390625 5.371094 89.425781 5.371094 C 90.128906 5.371094 90.695312 5.742188 91.105469 6.328125 Z M 91.105469 10.332031 "/>
<path style=" stroke:none;fill-rule:nonzero;fill:rgb(0%,0%,0%);fill-opacity:1;" d="M 103.691406 5.527344 L 106.171875 5.527344 L 106.171875 4.472656 L 103.691406 4.472656 L 103.691406 2.207031 L 102.460938 2.207031 L 102.460938 4.472656 L 100.957031 4.472656 L 100.957031 5.527344 L 102.421875 5.527344 L 102.421875 10.351562 C 102.421875 11.386719 102.65625 12.617188 103.886719 12.617188 C 105.097656 12.617188 105.917969 12.207031 106.464844 11.914062 L 106.191406 10.878906 C 105.566406 11.445312 104.902344 11.503906 104.589844 11.503906 C 103.789062 11.503906 103.691406 10.664062 103.691406 10.039062 Z M 103.691406 5.527344 "/>
<path style=" stroke:none;fill-rule:nonzero;fill:rgb(0%,0%,0%);fill-opacity:1;" d="M 113.9375 7.1875 C 113.9375 5.46875 112.707031 4.21875 111.027344 4.21875 C 109.953125 4.21875 109.152344 4.453125 108.273438 4.960938 L 108.371094 6.152344 C 109.171875 5.566406 109.992188 5.253906 111.027344 5.253906 C 111.847656 5.253906 112.570312 5.917969 112.570312 7.226562 L 112.570312 7.96875 C 111.769531 7.988281 110.695312 8.046875 109.621094 8.398438 C 108.410156 8.828125 107.707031 9.492188 107.707031 10.371094 C 107.707031 11.171875 108.175781 12.617188 109.699219 12.617188 C 110.695312 12.617188 111.945312 12.324219 112.609375 11.777344 L 112.609375 12.441406 L 113.9375 12.441406 Z M 112.570312 10.039062 C 112.570312 10.390625 112.570312 10.820312 111.984375 11.191406 C 111.496094 11.484375 110.890625 11.542969 110.617188 11.542969 C 109.660156 11.542969 108.996094 11.015625 108.996094 10.371094 C 108.996094 9.140625 111.476562 8.867188 112.570312 8.867188 Z M 112.570312 10.039062 "/>
<path style=" stroke:none;fill-rule:nonzero;fill:rgb(0%,0%,0%);fill-opacity:1;" d="M 122.921875 7.050781 C 122.921875 5.957031 122.6875 4.296875 120.519531 4.296875 C 119.523438 4.296875 118.664062 4.746094 117.980469 5.605469 L 117.980469 4.394531 L 116.710938 4.394531 L 116.710938 12.441406 L 118.058594 12.441406 L 118.058594 7.96875 C 118.058594 6.875 118.488281 5.371094 119.835938 5.371094 C 121.515625 5.371094 121.554688 6.542969 121.554688 7.167969 L 121.554688 12.441406 L 122.921875 12.441406 Z M 122.921875 7.050781 "/>
<path style=" stroke:none;fill-rule:nonzero;fill:rgb(0%,0%,0%);fill-opacity:1;" d="M 130.4375 5.371094 C 130.4375 5.371094 130.476562 5.410156 130.496094 5.449219 C 130.867188 5.410156 131.257812 5.351562 131.921875 5.351562 C 131.980469 5.351562 132.390625 5.351562 132.839844 5.390625 L 132.644531 4.296875 C 132.3125 4.296875 131.082031 4.316406 129.890625 4.902344 C 129.304688 4.394531 128.582031 4.296875 128.230469 4.296875 C 126.667969 4.296875 125.417969 5.605469 125.417969 7.1875 C 125.417969 7.832031 125.613281 8.417969 126.003906 8.964844 C 125.59375 9.53125 125.496094 10.078125 125.496094 10.507812 C 125.496094 11.171875 125.75 11.621094 125.945312 11.855469 C 125.027344 12.441406 124.8125 13.203125 124.8125 13.710938 C 124.8125 15.019531 126.511719 16.113281 128.699219 16.113281 C 130.886719 16.113281 132.605469 15.058594 132.605469 13.691406 C 132.605469 11.191406 129.695312 11.191406 128.972656 11.191406 L 127.449219 11.191406 C 127.195312 11.191406 126.414062 11.191406 126.414062 10.234375 C 126.414062 9.84375 126.492188 9.726562 126.609375 9.570312 C 126.902344 9.785156 127.488281 10.097656 128.210938 10.097656 C 129.753906 10.097656 131.023438 8.828125 131.023438 7.1875 C 131.023438 6.542969 130.789062 5.878906 130.417969 5.390625 Z M 128.230469 9.101562 C 127.449219 9.101562 126.648438 8.574219 126.648438 7.207031 C 126.648438 5.605469 127.664062 5.292969 128.210938 5.292969 C 129.011719 5.292969 129.792969 5.820312 129.792969 7.1875 C 129.792969 8.789062 128.796875 9.101562 128.230469 9.101562 Z M 128.992188 12.480469 C 129.382812 12.480469 131.355469 12.480469 131.355469 13.710938 C 131.355469 14.53125 130.125 15.136719 128.71875 15.136719 C 127.3125 15.136719 126.0625 14.570312 126.0625 13.691406 C 126.0625 13.652344 126.0625 12.480469 127.429688 12.480469 Z M 128.992188 12.480469 "/>
<path style=" stroke:none;fill-rule:nonzero;fill:rgb(0%,0%,0%);fill-opacity:1;" d="M 140.480469 8.398438 C 140.480469 7.636719 140.402344 6.542969 139.835938 5.585938 C 139.09375 4.355469 137.84375 4.21875 137.316406 4.21875 C 135.382812 4.21875 133.761719 6.074219 133.761719 8.398438 C 133.761719 10.78125 135.480469 12.617188 137.570312 12.617188 C 138.390625 12.617188 139.386719 12.382812 140.363281 11.679688 C 140.363281 11.601562 140.304688 11.035156 140.304688 11.015625 C 140.285156 10.996094 140.265625 10.585938 140.265625 10.527344 C 139.191406 11.425781 138.136719 11.542969 137.609375 11.542969 C 136.222656 11.542969 135.03125 10.3125 135.011719 8.398438 Z M 135.109375 7.441406 C 135.421875 6.230469 136.261719 5.292969 137.316406 5.292969 C 137.882812 5.292969 139.113281 5.546875 139.40625 7.441406 Z M 135.109375 7.441406 "/>
<path style=" stroke:none;fill-rule:nonzero;fill:rgb(0%,0%,0%);fill-opacity:1;" d="M 148.574219 7.050781 C 148.574219 5.957031 148.339844 4.296875 146.171875 4.296875 C 145.175781 4.296875 144.316406 4.746094 143.632812 5.605469 L 143.632812 4.394531 L 142.363281 4.394531 L 142.363281 12.441406 L 143.710938 12.441406 L 143.710938 7.96875 C 143.710938 6.875 144.140625 5.371094 145.488281 5.371094 C 147.167969 5.371094 147.207031 6.542969 147.207031 7.167969 L 147.207031 12.441406 L 148.574219 12.441406 Z M 148.574219 7.050781 "/>
<path style=" stroke:none;fill-rule:nonzero;fill:rgb(0%,0%,0%);fill-opacity:1;" d="M 153.039062 5.527344 L 155.519531 5.527344 L 155.519531 4.472656 L 153.039062 4.472656 L 153.039062 2.207031 L 151.808594 2.207031 L 151.808594 4.472656 L 150.304688 4.472656 L 150.304688 5.527344 L 151.769531 5.527344 L 151.769531 10.351562 C 151.769531 11.386719 152.003906 12.617188 153.234375 12.617188 C 154.445312 12.617188 155.265625 12.207031 155.8125 11.914062 L 155.539062 10.878906 C 154.914062 11.445312 154.25 11.503906 153.9375 11.503906 C 153.136719 11.503906 153.039062 10.664062 153.039062 10.039062 Z M 153.039062 5.527344 "/>
<path style=" stroke:none;fill-rule:nonzero;fill:rgb(0%,0%,0%);fill-opacity:1;" d="M 174.835938 4.472656 L 173.527344 4.472656 L 172.453125 8.125 C 172.199219 8.984375 171.691406 10.664062 171.613281 11.445312 L 171.59375 11.445312 C 171.554688 11.015625 171.261719 9.804688 170.890625 8.535156 L 169.699219 4.472656 L 168.46875 4.472656 L 167.433594 7.988281 C 167.121094 9.101562 166.691406 10.644531 166.632812 11.40625 L 166.613281 11.40625 C 166.59375 11.054688 166.398438 10.117188 166.066406 8.90625 L 164.796875 4.472656 L 163.429688 4.472656 L 165.832031 12.441406 L 167.21875 12.441406 C 167.882812 10.175781 168.9375 6.777344 169.035156 5.527344 L 169.054688 5.527344 C 169.09375 6.25 169.445312 7.539062 169.582031 7.96875 L 170.851562 12.441406 L 172.433594 12.441406 Z M 174.835938 4.472656 "/>
<path style=" stroke:none;fill-rule:nonzero;fill:rgb(0%,0%,0%);fill-opacity:1;" d="M 178.007812 0.273438 L 176.464844 0.273438 L 176.464844 1.816406 L 178.007812 1.816406 Z M 177.910156 4.472656 L 176.582031 4.472656 L 176.582031 12.441406 L 177.910156 12.441406 Z M 177.910156 4.472656 "/>
<path style=" stroke:none;fill-rule:nonzero;fill:rgb(0%,0%,0%);fill-opacity:1;" d="M 182.109375 0 L 180.78125 0 L 180.78125 12.441406 L 182.109375 12.441406 Z M 182.109375 0 "/>
<path style=" stroke:none;fill-rule:nonzero;fill:rgb(0%,0%,0%);fill-opacity:1;" d="M 186.308594 0 L 184.980469 0 L 184.980469 12.441406 L 186.308594 12.441406 Z M 186.308594 0 "/>
<path style=" stroke:none;fill-rule:nonzero;fill:rgb(0%,0%,0%);fill-opacity:1;" d="M 197.441406 5.527344 L 199.921875 5.527344 L 199.921875 4.472656 L 197.441406 4.472656 L 197.441406 2.207031 L 196.210938 2.207031 L 196.210938 4.472656 L 194.707031 4.472656 L 194.707031 5.527344 L 196.171875 5.527344 L 196.171875 10.351562 C 196.171875 11.386719 196.40625 12.617188 197.636719 12.617188 C 198.847656 12.617188 199.667969 12.207031 200.214844 11.914062 L 199.941406 10.878906 C 199.316406 11.445312 198.652344 11.503906 198.339844 11.503906 C 197.539062 11.503906 197.441406 10.664062 197.441406 10.039062 Z M 197.441406 5.527344 "/>
<path style=" stroke:none;fill-rule:nonzero;fill:rgb(0%,0%,0%);fill-opacity:1;" d="M 208.898438 8.496094 C 208.898438 6.074219 207.121094 4.21875 205.070312 4.21875 C 202.960938 4.21875 201.222656 6.113281 201.222656 8.496094 C 201.222656 10.839844 203 12.617188 205.050781 12.617188 C 207.160156 12.617188 208.898438 10.800781 208.898438 8.496094 Z M 205.070312 11.503906 C 203.78125 11.503906 202.570312 10.429688 202.570312 8.320312 C 202.570312 6.152344 203.917969 5.292969 205.050781 5.292969 C 206.28125 5.292969 207.550781 6.210938 207.550781 8.320312 C 207.550781 10.527344 206.261719 11.503906 205.070312 11.503906 Z M 205.070312 11.503906 "/>
<path style=" stroke:none;fill-rule:nonzero;fill:rgb(0%,0%,0%);fill-opacity:1;" d="M 217.121094 4.472656 L 215.753906 4.472656 L 215.753906 9.609375 C 215.753906 10.976562 214.816406 11.640625 213.644531 11.640625 C 212.394531 11.640625 212.257812 11.171875 212.257812 10.371094 L 212.257812 4.472656 L 210.910156 4.472656 L 210.910156 10.449219 C 210.910156 11.738281 211.320312 12.617188 212.785156 12.617188 C 213.292969 12.617188 214.699219 12.539062 215.792969 11.542969 L 215.792969 12.441406 L 217.121094 12.441406 Z M 217.121094 4.472656 "/>
<path style=" stroke:none;fill-rule:nonzero;fill:rgb(0%,0%,0%);fill-opacity:1;" d="M 225.710938 10.507812 C 224.890625 11.171875 223.972656 11.503906 222.976562 11.503906 C 221.472656 11.503906 220.515625 10.175781 220.515625 8.4375 C 220.515625 6.953125 221.238281 5.332031 223.015625 5.332031 C 224.226562 5.332031 224.734375 5.605469 225.496094 6.132812 L 225.710938 4.960938 C 224.675781 4.355469 224.089844 4.21875 223.015625 4.21875 C 220.554688 4.21875 219.148438 6.40625 219.148438 8.4375 C 219.148438 10.742188 220.808594 12.617188 222.957031 12.617188 C 223.835938 12.617188 224.832031 12.402344 225.828125 11.679688 C 225.828125 11.640625 225.769531 11.074219 225.75 11.015625 Z M 225.710938 10.507812 "/>
<path style=" stroke:none;fill-rule:nonzero;fill:rgb(0%,0%,0%);fill-opacity:1;" d="M 233.921875 7.050781 C 233.921875 5.957031 233.6875 4.296875 231.519531 4.296875 C 230.289062 4.296875 229.46875 5 229.039062 5.546875 L 229.039062 0 L 227.710938 0 L 227.710938 12.441406 L 229.058594 12.441406 L 229.058594 7.96875 C 229.058594 6.875 229.488281 5.371094 230.835938 5.371094 C 232.515625 5.371094 232.554688 6.542969 232.554688 7.167969 L 232.554688 12.441406 L 233.921875 12.441406 Z M 233.921875 7.050781 "/>
<path style=" stroke:none;fill-rule:nonzero;fill:rgb(0%,0%,0%);fill-opacity:1;" d="M 245.140625 5.527344 L 247.621094 5.527344 L 247.621094 4.472656 L 245.140625 4.472656 L 245.140625 2.207031 L 243.910156 2.207031 L 243.910156 4.472656 L 242.40625 4.472656 L 242.40625 5.527344 L 243.871094 5.527344 L 243.871094 10.351562 C 243.871094 11.386719 244.105469 12.617188 245.335938 12.617188 C 246.546875 12.617188 247.367188 12.207031 247.914062 11.914062 L 247.640625 10.878906 C 247.015625 11.445312 246.351562 11.503906 246.039062 11.503906 C 245.238281 11.503906 245.140625 10.664062 245.140625 10.039062 Z M 245.140625 5.527344 "/>
<path style=" stroke:none;fill-rule:nonzero;fill:rgb(0%,0%,0%);fill-opacity:1;" d="M 255.972656 7.050781 C 255.972656 5.957031 255.738281 4.296875 253.570312 4.296875 C 252.339844 4.296875 251.519531 5 251.089844 5.546875 L 251.089844 0 L 249.761719 0 L 249.761719 12.441406 L 251.109375 12.441406 L 251.109375 7.96875 C 251.109375 6.875 251.539062 5.371094 252.886719 5.371094 C 254.566406 5.371094 254.605469 6.542969 254.605469 7.167969 L 254.605469 12.441406 L 255.972656 12.441406 Z M 255.972656 7.050781 "/>
<path style=" stroke:none;fill-rule:nonzero;fill:rgb(0%,0%,0%);fill-opacity:1;" d="M 264.679688 8.398438 C 264.679688 7.636719 264.601562 6.542969 264.035156 5.585938 C 263.292969 4.355469 262.042969 4.21875 261.515625 4.21875 C 259.582031 4.21875 257.960938 6.074219 257.960938 8.398438 C 257.960938 10.78125 259.679688 12.617188 261.769531 12.617188 C 262.589844 12.617188 263.585938 12.382812 264.5625 11.679688 C 264.5625 11.601562 264.503906 11.035156 264.503906 11.015625 C 264.484375 10.996094 264.464844 10.585938 264.464844 10.527344 C 263.390625 11.425781 262.335938 11.542969 261.808594 11.542969 C 260.421875 11.542969 259.230469 10.3125 259.210938 8.398438 Z M 259.308594 7.441406 C 259.621094 6.230469 260.460938 5.292969 261.515625 5.292969 C 262.082031 5.292969 263.3125 5.546875 263.605469 7.441406 Z M 259.308594 7.441406 "/>
<path style=" stroke:none;fill-rule:nonzero;fill:rgb(0%,0%,0%);fill-opacity:1;" d="M 279.261719 10.507812 C 278.441406 11.171875 277.523438 11.503906 276.527344 11.503906 C 275.023438 11.503906 274.066406 10.175781 274.066406 8.4375 C 274.066406 6.953125 274.789062 5.332031 276.566406 5.332031 C 277.777344 5.332031 278.285156 5.605469 279.046875 6.132812 L 279.261719 4.960938 C 278.226562 4.355469 277.640625 4.21875 276.566406 4.21875 C 274.105469 4.21875 272.699219 6.40625 272.699219 8.4375 C 272.699219 10.742188 274.359375 12.617188 276.507812 12.617188 C 277.386719 12.617188 278.382812 12.402344 279.378906 11.679688 C 279.378906 11.640625 279.320312 11.074219 279.300781 11.015625 Z M 279.261719 10.507812 "/>
<path style=" stroke:none;fill-rule:nonzero;fill:rgb(0%,0%,0%);fill-opacity:1;" d="M 287.472656 4.472656 L 286.105469 4.472656 L 286.105469 9.609375 C 286.105469 10.976562 285.167969 11.640625 283.996094 11.640625 C 282.746094 11.640625 282.609375 11.171875 282.609375 10.371094 L 282.609375 4.472656 L 281.261719 4.472656 L 281.261719 10.449219 C 281.261719 11.738281 281.671875 12.617188 283.136719 12.617188 C 283.644531 12.617188 285.050781 12.539062 286.144531 11.542969 L 286.144531 12.441406 L 287.472656 12.441406 Z M 287.472656 4.472656 "/>
<path style=" stroke:none;fill-rule:nonzero;fill:rgb(0%,0%,0%);fill-opacity:1;" d="M 291.609375 8.515625 C 291.609375 6.699219 292.957031 5.527344 294.578125 5.507812 L 294.578125 4.296875 C 292.9375 4.316406 292 5.273438 291.511719 5.976562 L 291.511719 4.394531 L 290.28125 4.394531 L 290.28125 12.441406 L 291.609375 12.441406 Z M 291.609375 8.515625 "/>
<path style=" stroke:none;fill-rule:nonzero;fill:rgb(0%,0%,0%);fill-opacity:1;" d="M 302.628906 4.472656 L 301.300781 4.472656 L 299.992188 8.046875 C 299.679688 8.90625 299.015625 10.800781 298.917969 11.464844 L 298.898438 11.464844 C 298.800781 10.839844 298.449219 9.863281 298.175781 9.082031 L 296.515625 4.472656 L 295.128906 4.472656 L 298.078125 12.441406 L 299.679688 12.441406 Z M 302.628906 4.472656 "/>
<path style=" stroke:none;fill-rule:nonzero;fill:rgb(0%,0%,0%);fill-opacity:1;" d="M 310.277344 8.398438 C 310.277344 7.636719 310.199219 6.542969 309.632812 5.585938 C 308.890625 4.355469 307.640625 4.21875 307.113281 4.21875 C 305.179688 4.21875 303.558594 6.074219 303.558594 8.398438 C 303.558594 10.78125 305.277344 12.617188 307.367188 12.617188 C 308.1875 12.617188 309.183594 12.382812 310.160156 11.679688 C 310.160156 11.601562 310.101562 11.035156 310.101562 11.015625 C 310.082031 10.996094 310.0625 10.585938 310.0625 10.527344 C 308.988281 11.425781 307.933594 11.542969 307.40625 11.542969 C 306.019531 11.542969 304.828125 10.3125 304.808594 8.398438 Z M 304.90625 7.441406 C 305.21875 6.230469 306.058594 5.292969 307.113281 5.292969 C 307.679688 5.292969 308.910156 5.546875 309.203125 7.441406 Z M 304.90625 7.441406 "/>
<path style=" stroke:none;fill-rule:nonzero;fill:rgb(0%,0%,0%);fill-opacity:1;" d="M 6.386719 32.539062 C 6.386719 30.820312 5.15625 29.570312 3.476562 29.570312 C 2.402344 29.570312 1.601562 29.804688 0.722656 30.3125 L 0.820312 31.503906 C 1.621094 30.917969 2.441406 30.605469 3.476562 30.605469 C 4.296875 30.605469 5.019531 31.269531 5.019531 32.578125 L 5.019531 33.320312 C 4.21875 33.339844 3.144531 33.398438 2.070312 33.75 C 0.859375 34.179688 0.15625 34.84375 0.15625 35.722656 C 0.15625 36.523438 0.625 37.96875 2.148438 37.96875 C 3.144531 37.96875 4.394531 37.675781 5.058594 37.128906 L 5.058594 37.792969 L 6.386719 37.792969 Z M 5.019531 35.390625 C 5.019531 35.742188 5.019531 36.171875 4.433594 36.542969 C 3.945312 36.835938 3.339844 36.894531 3.066406 36.894531 C 2.109375 36.894531 1.445312 36.367188 1.445312 35.722656 C 1.445312 34.492188 3.925781 34.21875 5.019531 34.21875 Z M 5.019531 35.390625 "/>
<path style=" stroke:none;fill-rule:nonzero;fill:rgb(0%,0%,0%);fill-opacity:1;" d="M 10.839844 30.878906 L 13.320312 30.878906 L 13.320312 29.824219 L 10.839844 29.824219 L 10.839844 27.558594 L 9.609375 27.558594 L 9.609375 29.824219 L 8.105469 29.824219 L 8.105469 30.878906 L 9.570312 30.878906 L 9.570312 35.703125 C 9.570312 36.738281 9.804688 37.96875 11.035156 37.96875 C 12.246094 37.96875 13.066406 37.558594 13.613281 37.265625 L 13.339844 36.230469 C 12.714844 36.796875 12.050781 36.855469 11.738281 36.855469 C 10.9375 36.855469 10.839844 36.015625 10.839844 35.390625 Z M 10.839844 30.878906 "/>
<path style=" stroke:none;fill-rule:nonzero;fill:rgb(0%,0%,0%);fill-opacity:1;" d="M 23.140625 30.878906 L 25.621094 30.878906 L 25.621094 29.824219 L 23.140625 29.824219 L 23.140625 27.558594 L 21.910156 27.558594 L 21.910156 29.824219 L 20.40625 29.824219 L 20.40625 30.878906 L 21.871094 30.878906 L 21.871094 35.703125 C 21.871094 36.738281 22.105469 37.96875 23.335938 37.96875 C 24.546875 37.96875 25.367188 37.558594 25.914062 37.265625 L 25.640625 36.230469 C 25.015625 36.796875 24.351562 36.855469 24.039062 36.855469 C 23.238281 36.855469 23.140625 36.015625 23.140625 35.390625 Z M 23.140625 30.878906 "/>
<path style=" stroke:none;fill-rule:nonzero;fill:rgb(0%,0%,0%);fill-opacity:1;" d="M 33.972656 32.402344 C 33.972656 31.308594 33.738281 29.648438 31.570312 29.648438 C 30.339844 29.648438 29.519531 30.351562 29.089844 30.898438 L 29.089844 25.351562 L 27.761719 25.351562 L 27.761719 37.792969 L 29.109375 37.792969 L 29.109375 33.320312 C 29.109375 32.226562 29.539062 30.722656 30.886719 30.722656 C 32.566406 30.722656 32.605469 31.894531 32.605469 32.519531 L 32.605469 37.792969 L 33.972656 37.792969 Z M 33.972656 32.402344 "/>
<path style=" stroke:none;fill-rule:nonzero;fill:rgb(0%,0%,0%);fill-opacity:1;" d="M 42.679688 33.75 C 42.679688 32.988281 42.601562 31.894531 42.035156 30.9375 C 41.292969 29.707031 40.042969 29.570312 39.515625 29.570312 C 37.582031 29.570312 35.960938 31.425781 35.960938 33.75 C 35.960938 36.132812 37.679688 37.96875 39.769531 37.96875 C 40.589844 37.96875 41.585938 37.734375 42.5625 37.03125 C 42.5625 36.953125 42.503906 36.386719 42.503906 36.367188 C 42.484375 36.347656 42.464844 35.9375 42.464844 35.878906 C 41.390625 36.777344 40.335938 36.894531 39.808594 36.894531 C 38.421875 36.894531 37.230469 35.664062 37.210938 33.75 Z M 37.308594 32.792969 C 37.621094 31.582031 38.460938 30.644531 39.515625 30.644531 C 40.082031 30.644531 41.3125 30.898438 41.605469 32.792969 Z M 37.308594 32.792969 "/>
<path style=" stroke:none;fill-rule:nonzero;fill:rgb(0%,0%,0%);fill-opacity:1;" d="M 51.777344 36.992188 C 52.402344 37.539062 53.144531 37.96875 54.121094 37.96875 C 55.839844 37.96875 57.382812 36.230469 57.382812 33.789062 C 57.382812 31.621094 56.230469 29.648438 54.570312 29.648438 C 53.828125 29.648438 52.675781 29.882812 51.757812 30.683594 L 51.757812 29.824219 L 50.429688 29.824219 L 50.429688 41.269531 L 51.777344 41.269531 Z M 51.777344 31.777344 C 52.1875 31.152344 52.871094 30.761719 53.613281 30.761719 C 54.941406 30.761719 56.015625 32.109375 56.015625 33.808594 C 56.015625 35.605469 54.785156 36.894531 53.457031 36.894531 C 52.949219 36.894531 52.617188 36.71875 52.285156 36.464844 C 51.835938 36.074219 51.777344 35.742188 51.777344 35.46875 Z M 51.777344 31.777344 "/>
<path style=" stroke:none;fill-rule:nonzero;fill:rgb(0%,0%,0%);fill-opacity:1;" d="M 66.699219 33.847656 C 66.699219 31.425781 64.921875 29.570312 62.871094 29.570312 C 60.761719 29.570312 59.023438 31.464844 59.023438 33.847656 C 59.023438 36.191406 60.800781 37.96875 62.851562 37.96875 C 64.960938 37.96875 66.699219 36.152344 66.699219 33.847656 Z M 62.871094 36.855469 C 61.582031 36.855469 60.371094 35.78125 60.371094 33.671875 C 60.371094 31.503906 61.71875 30.644531 62.851562 30.644531 C 64.082031 30.644531 65.351562 31.5625 65.351562 33.671875 C 65.351562 35.878906 64.0625 36.855469 62.871094 36.855469 Z M 62.871094 36.855469 "/>
<path style=" stroke:none;fill-rule:nonzero;fill:rgb(0%,0%,0%);fill-opacity:1;" d="M 70.15625 25.625 L 68.613281 25.625 L 68.613281 27.167969 L 70.15625 27.167969 Z M 70.058594 29.824219 L 68.730469 29.824219 L 68.730469 37.792969 L 70.058594 37.792969 Z M 70.058594 29.824219 "/>
<path style=" stroke:none;fill-rule:nonzero;fill:rgb(0%,0%,0%);fill-opacity:1;" d="M 79.121094 32.402344 C 79.121094 31.308594 78.886719 29.648438 76.71875 29.648438 C 75.722656 29.648438 74.863281 30.097656 74.179688 30.957031 L 74.179688 29.746094 L 72.910156 29.746094 L 72.910156 37.792969 L 74.257812 37.792969 L 74.257812 33.320312 C 74.257812 32.226562 74.6875 30.722656 76.035156 30.722656 C 77.714844 30.722656 77.753906 31.894531 77.753906 32.519531 L 77.753906 37.792969 L 79.121094 37.792969 Z M 79.121094 32.402344 "/>
<path style=" stroke:none;fill-rule:nonzero;fill:rgb(0%,0%,0%);fill-opacity:1;" d="M 83.589844 30.878906 L 86.070312 30.878906 L 86.070312 29.824219 L 83.589844 29.824219 L 83.589844 27.558594 L 82.359375 27.558594 L 82.359375 29.824219 L 80.855469 29.824219 L 80.855469 30.878906 L 82.320312 30.878906 L 82.320312 35.703125 C 82.320312 36.738281 82.554688 37.96875 83.785156 37.96875 C 84.996094 37.96875 85.816406 37.558594 86.363281 37.265625 L 86.089844 36.230469 C 85.464844 36.796875 84.800781 36.855469 84.488281 36.855469 C 83.6875 36.855469 83.589844 36.015625 83.589844 35.390625 Z M 83.589844 30.878906 "/>
<path style=" stroke:none;fill-rule:nonzero;fill:rgb(0%,0%,0%);fill-opacity:1;" d="M 95.722656 35.800781 C 95.097656 36.855469 94.492188 37.226562 93.632812 37.265625 C 93.4375 37.285156 93.28125 37.285156 93.28125 37.617188 C 93.28125 37.714844 93.378906 37.792969 93.496094 37.792969 C 93.828125 37.792969 94.628906 37.753906 94.960938 37.753906 C 95.46875 37.753906 96.054688 37.792969 96.542969 37.792969 C 96.660156 37.792969 96.875 37.792969 96.875 37.460938 C 96.875 37.285156 96.71875 37.265625 96.621094 37.265625 C 96.210938 37.246094 95.859375 37.089844 95.859375 36.660156 C 95.859375 36.40625 95.976562 36.210938 96.210938 35.820312 L 97.578125 33.554688 L 102.148438 33.554688 C 102.167969 33.730469 102.167969 33.867188 102.1875 34.023438 C 102.226562 34.492188 102.441406 36.367188 102.441406 36.699219 C 102.441406 37.246094 101.523438 37.265625 101.25 37.265625 C 101.054688 37.265625 100.859375 37.265625 100.859375 37.597656 C 100.859375 37.792969 101.015625 37.792969 101.113281 37.792969 C 101.425781 37.792969 101.777344 37.753906 102.089844 37.753906 L 103.105469 37.753906 C 104.199219 37.753906 105 37.792969 105.019531 37.792969 C 105.136719 37.792969 105.332031 37.792969 105.332031 37.460938 C 105.332031 37.265625 105.175781 37.265625 104.902344 37.265625 C 103.925781 37.265625 103.90625 37.109375 103.847656 36.582031 L 102.753906 25.390625 C 102.714844 25.019531 102.636719 25 102.441406 25 C 102.265625 25 102.167969 25.019531 101.992188 25.292969 Z M 97.871094 33.046875 L 101.484375 27.011719 L 102.089844 33.046875 Z M 97.871094 33.046875 "/>
<path style=" stroke:none;fill-rule:nonzero;fill:rgb(0%,0%,0%);fill-opacity:1;" d="M 122.933594 31.992188 C 123.1875 31.992188 123.5 31.992188 123.5 31.660156 C 123.5 31.328125 123.1875 31.328125 122.933594 31.328125 L 112.367188 31.328125 C 112.113281 31.328125 111.800781 31.328125 111.800781 31.640625 C 111.800781 31.992188 112.09375 31.992188 112.367188 31.992188 Z M 122.933594 35.3125 C 123.1875 35.3125 123.5 35.3125 123.5 35 C 123.5 34.648438 123.1875 34.648438 122.933594 34.648438 L 112.367188 34.648438 C 112.113281 34.648438 111.800781 34.648438 111.800781 34.980469 C 111.800781 35.3125 112.09375 35.3125 112.367188 35.3125 Z M 122.933594 35.3125 "/>
<path style=" stroke:none;fill-rule:nonzero;fill:rgb(0%,0%,0%);fill-opacity:1;" d="M 138.664062 49.339844 C 138.703125 49.359375 138.859375 49.535156 138.878906 49.535156 L 139.269531 49.535156 C 139.328125 49.535156 139.464844 49.515625 139.464844 49.359375 C 139.464844 49.28125 139.425781 49.242188 139.386719 49.183594 C 138.742188 48.539062 137.785156 47.5625 136.671875 45.589844 C 134.738281 42.152344 134.015625 37.71875 134.015625 33.402344 C 134.015625 25.453125 136.28125 20.765625 139.40625 17.601562 C 139.464844 17.542969 139.464844 17.484375 139.464844 17.445312 C 139.464844 17.269531 139.347656 17.269531 139.132812 17.269531 C 138.898438 17.269531 138.859375 17.269531 138.703125 17.425781 C 136.984375 18.890625 135.070312 21.390625 133.839844 25.160156 C 133.058594 27.523438 132.648438 30.414062 132.648438 33.402344 C 132.648438 37.640625 133.429688 42.445312 136.242188 46.605469 C 136.730469 47.308594 137.394531 48.050781 137.394531 48.050781 C 137.570312 48.285156 137.824219 48.558594 137.960938 48.695312 Z M 138.664062 49.339844 "/>
<path style=" stroke:none;fill-rule:nonzero;fill:rgb(0%,0%,0%);fill-opacity:1;" d="M 150.496094 22.773438 C 150.496094 22.460938 150.496094 22.441406 150.203125 22.441406 C 149.421875 23.242188 148.328125 23.242188 147.9375 23.242188 L 147.9375 23.632812 C 148.191406 23.632812 148.914062 23.632812 149.558594 23.300781 L 149.558594 29.765625 C 149.558594 30.214844 149.519531 30.351562 148.40625 30.351562 L 148.015625 30.351562 L 148.015625 30.742188 C 148.445312 30.703125 149.519531 30.703125 150.027344 30.703125 C 150.515625 30.703125 151.609375 30.703125 152.039062 30.742188 L 152.039062 30.351562 L 151.648438 30.351562 C 150.515625 30.351562 150.496094 30.214844 150.496094 29.765625 Z M 150.496094 22.773438 "/>
<path style=" stroke:none;fill-rule:nonzero;fill:rgb(0%,0%,0%);fill-opacity:1;" d="M 141.558594 33.003906 L 158.207031 33.003906 L 158.207031 33.757812 L 141.558594 33.757812 Z M 141.558594 33.003906 "/>
<path style=" stroke:none;fill-rule:nonzero;fill:rgb(0%,0%,0%);fill-opacity:1;" d="M 146.417969 46.035156 L 144.230469 41.191406 C 144.132812 40.996094 144.074219 40.996094 144.035156 40.996094 C 144.035156 40.996094 143.957031 40.996094 143.820312 41.09375 L 142.648438 41.992188 C 142.492188 42.128906 142.492188 42.148438 142.492188 42.1875 C 142.492188 42.265625 142.511719 42.324219 142.609375 42.324219 C 142.6875 42.324219 142.902344 42.148438 143.039062 42.050781 C 143.097656 41.992188 143.292969 41.855469 143.429688 41.757812 L 145.890625 47.148438 C 145.96875 47.34375 146.027344 47.34375 146.144531 47.34375 C 146.339844 47.34375 146.378906 47.285156 146.457031 47.109375 L 152.121094 35.390625 C 152.199219 35.214844 152.199219 35.175781 152.199219 35.136719 C 152.199219 35.019531 152.101562 34.882812 151.945312 34.882812 C 151.847656 34.882812 151.769531 34.960938 151.671875 35.15625 Z M 146.417969 46.035156 "/>
<path style=" stroke:none;fill-rule:nonzero;fill:rgb(0%,0%,0%);fill-opacity:1;" d="M 151.910156 34.804688 L 158.207031 34.804688 L 158.207031 35.40625 L 151.910156 35.40625 Z M 151.910156 34.804688 "/>
<path style=" stroke:none;fill-rule:nonzero;fill:rgb(0%,0%,0%);fill-opacity:1;" d="M 153.507812 44.785156 L 154.835938 43.496094 C 156.769531 41.777344 157.511719 41.113281 157.511719 39.863281 C 157.511719 38.4375 156.398438 37.441406 154.875 37.441406 C 153.46875 37.441406 152.550781 38.59375 152.550781 39.707031 C 152.550781 40.390625 153.175781 40.390625 153.214844 40.390625 C 153.429688 40.390625 153.859375 40.253906 153.859375 39.726562 C 153.859375 39.414062 153.625 39.082031 153.195312 39.082031 C 153.097656 39.082031 153.078125 39.082031 153.039062 39.101562 C 153.3125 38.28125 153.996094 37.832031 154.71875 37.832031 C 155.851562 37.832031 156.378906 38.847656 156.378906 39.863281 C 156.378906 40.859375 155.773438 41.835938 155.070312 42.617188 L 152.6875 45.273438 C 152.550781 45.410156 152.550781 45.449219 152.550781 45.742188 L 157.179688 45.742188 L 157.511719 43.574219 L 157.21875 43.574219 C 157.140625 43.945312 157.0625 44.492188 156.925781 44.6875 C 156.847656 44.785156 156.027344 44.785156 155.753906 44.785156 Z M 153.507812 44.785156 "/>
<path style=" stroke:none;fill-rule:nonzero;fill:rgb(0%,0%,0%);fill-opacity:1;" d="M 163.222656 37.871094 C 163.222656 36.816406 162.890625 36.054688 162.148438 36.054688 C 161.582031 36.054688 161.289062 36.523438 161.289062 36.914062 C 161.289062 37.304688 161.5625 37.792969 162.167969 37.792969 C 162.402344 37.792969 162.597656 37.714844 162.753906 37.558594 C 162.792969 37.519531 162.8125 37.519531 162.832031 37.519531 C 162.871094 37.519531 162.871094 37.773438 162.871094 37.871094 C 162.871094 38.457031 162.753906 39.628906 161.71875 40.78125 C 161.523438 40.996094 161.523438 41.035156 161.523438 41.074219 C 161.523438 41.171875 161.601562 41.25 161.699219 41.25 C 161.835938 41.25 163.222656 39.921875 163.222656 37.871094 Z M 163.222656 37.871094 "/>
<path style=" stroke:none;fill-rule:nonzero;fill:rgb(0%,0%,0%);fill-opacity:1;" d="M 175.703125 32.050781 C 175.703125 30.566406 175.625 29.121094 174.980469 27.753906 C 174.238281 26.269531 172.949219 25.878906 172.070312 25.878906 C 171.035156 25.878906 169.746094 26.386719 169.101562 27.871094 C 168.59375 29.003906 168.417969 30.117188 168.417969 32.050781 C 168.417969 33.789062 168.535156 35.097656 169.179688 36.367188 C 169.882812 37.734375 171.113281 38.164062 172.050781 38.164062 C 173.613281 38.164062 174.511719 37.246094 175.019531 36.191406 C 175.664062 34.84375 175.703125 33.085938 175.703125 32.050781 Z M 172.050781 37.8125 C 171.484375 37.8125 170.3125 37.480469 169.980469 35.527344 C 169.765625 34.453125 169.765625 33.085938 169.765625 31.835938 C 169.765625 30.371094 169.765625 29.042969 170.058594 27.988281 C 170.371094 26.777344 171.289062 26.230469 172.050781 26.230469 C 172.734375 26.230469 173.769531 26.640625 174.121094 28.183594 C 174.335938 29.199219 174.335938 30.625 174.335938 31.835938 C 174.335938 33.046875 174.335938 34.394531 174.140625 35.488281 C 173.808594 37.460938 172.675781 37.8125 172.050781 37.8125 Z M 172.050781 37.8125 "/>
<path style=" stroke:none;fill-rule:nonzero;fill:rgb(0%,0%,0%);fill-opacity:1;" d="M 183.984375 33.402344 C 183.984375 28.246094 182.773438 22.777344 179.257812 18.753906 C 179.003906 18.460938 178.339844 17.757812 177.910156 17.386719 C 177.773438 17.269531 177.734375 17.269531 177.5 17.269531 C 177.324219 17.269531 177.167969 17.269531 177.167969 17.445312 C 177.167969 17.523438 177.246094 17.601562 177.285156 17.640625 C 177.890625 18.265625 178.847656 19.242188 179.960938 21.214844 C 181.894531 24.652344 182.617188 29.085938 182.617188 33.402344 C 182.617188 41.175781 180.46875 45.921875 177.246094 49.203125 C 177.207031 49.242188 177.167969 49.300781 177.167969 49.359375 C 177.167969 49.535156 177.324219 49.535156 177.5 49.535156 C 177.734375 49.535156 177.773438 49.535156 177.949219 49.378906 C 179.648438 47.914062 181.5625 45.433594 182.792969 41.644531 C 183.59375 39.183594 183.984375 36.273438 183.984375 33.402344 Z M 183.984375 33.402344 "/>
</g>
</svg>
