<?xml version="1.0" standalone="no"?>
<!DOCTYPE svg PUBLIC "-//W3C//DTD SVG 20010904//EN"
 "http://www.w3.org/TR/2001/REC-SVG-20010904/DTD/svg10.dtd">
<svg version="1.0" xmlns="http://www.w3.org/2000/svg"
 width="100.752521pt" height="85.199294pt" viewBox="0 0 100.752521 85.199294"
 preserveAspectRatio="xMidYMid meet">
<metadata>
Created by potrace 1.10, written by Peter Selinger 2001-2011
</metadata>
<g transform="translate(-113.280000,515.864727) scale(0.024000,-0.024000)"
fill="#000000" stroke="none">
<g>
<path d="M4965 21492 c-63 -14 -118 -89 -113 -154 3 -36 8 -45 33 -58 17 -8
32 -16 34 -18 3 -1 -1 -8 -7 -14 -17 -17 -15 -64 4 -82 19 -19 28 -19 111 -4
49 9 66 9 75 0 18 -18 33 -15 65 12 l28 24 0 -177 c0 -174 6 -231 25 -231 6 0
8 39 4 103 -6 89 6 290 23 399 4 31 2 38 -21 53 -50 33 -119 -21 -132 -106 -7
-41 -25 -49 -110 -49 -36 0 -44 3 -44 18 0 22 63 84 107 106 39 20 50 36 32
47 -18 11 -40 4 -99 -33 -64 -40 -94 -36 -98 14 -5 60 77 139 121 116 13 -6
19 -5 23 7 4 9 4 18 2 21 -8 8 -41 11 -63 6z m245 -182 c0 -23 -29 -76 -53
-99 -23 -21 -27 -22 -33 -8 -9 24 14 85 39 102 25 17 47 20 47 5z"/>
</g>
<g>
<path d="M5766 21454 c-3 -9 -6 -54 -6 -100 0 -66 -3 -84 -14 -84 -8 0 -17 -4
-20 -9 -9 -13 4 -41 19 -41 8 0 15 -26 21 -72 13 -104 31 -99 30 9 -1 99 10
113 59 70 22 -18 29 -34 33 -76 5 -54 23 -74 44 -53 9 9 9 18 1 34 -7 13 -14
40 -18 60 -7 42 -48 83 -95 93 -28 6 -31 9 -25 37 9 37 8 125 0 138 -9 15 -22
12 -29 -6z"/>
</g>
<g>
<path d="M6830 21405 c-13 -16 -7 -144 10 -219 7 -33 5 -38 -22 -59 -24 -19
-28 -28 -23 -50 9 -34 23 -34 36 0 15 41 26 18 46 -94 11 -68 22 -103 30 -103
18 0 16 20 -7 130 -11 51 -20 97 -20 102 0 4 26 20 57 34 65 31 60 41 -10 20
-26 -8 -49 -11 -51 -8 -5 8 -14 75 -21 155 -3 34 -2 57 4 57 11 0 32 -34 30
-47 -3 -21 2 -34 12 -28 14 9 5 69 -15 100 -19 28 -38 32 -56 10z"/>
</g>
<g>
<path d="M7329 21410 c-1 -8 -1 -39 1 -67 2 -57 0 -59 -67 -53 -15 1 -23 -4
-23 -14 0 -21 20 -31 57 -27 40 3 40 3 46 -124 5 -104 12 -135 29 -135 6 0 8
14 3 37 -7 37 -9 212 -3 218 9 9 100 -19 105 -31 3 -8 -3 -30 -12 -50 -13 -29
-14 -38 -5 -44 17 -10 64 6 86 31 23 26 29 24 44 -12 15 -36 51 -62 73 -53 9
3 22 24 29 46 l14 40 27 -41 c15 -22 32 -41 37 -41 6 0 20 16 32 36 l21 35 29
-35 c16 -20 33 -34 38 -31 12 7 -11 62 -41 98 -31 37 -57 32 -65 -13 -4 -16
-10 -30 -15 -30 -5 0 -22 26 -37 57 -15 31 -32 58 -37 60 -6 2 -16 -26 -22
-63 -17 -95 -26 -98 -63 -20 -17 36 -38 66 -45 66 -7 0 -19 -16 -25 -35 -14
-43 -32 -56 -24 -17 7 36 -9 50 -87 72 l-61 16 -2 52 c-1 34 -7 58 -19 69 -14
14 -17 15 -18 3z"/>
</g>
<g>
<path d="M8524 21396 c-6 -25 0 -231 9 -276 7 -41 31 -80 48 -80 23 0 24 8 2
32 -11 12 -19 41 -21 82 l-4 62 68 13 c72 14 113 29 84 31 -8 1 -47 1 -87 0
l-71 -1 3 65 c1 42 -2 72 -10 83 -12 16 -14 16 -21 -11z"/>
</g>
<g>
<path d="M5900 21340 c0 -19 6 -33 16 -37 25 -9 37 11 23 40 -17 37 -39 35
-39 -3z"/>
</g>
<g>
<path d="M5296 21321 c-7 -10 8 -93 22 -131 6 -14 17 -32 26 -39 15 -12 21
-11 47 8 17 13 31 21 32 19 23 -44 40 -65 61 -76 22 -11 32 -10 75 9 28 12 55
27 62 35 9 11 15 8 34 -14 28 -32 40 -26 24 14 -6 18 -8 55 -4 95 7 78 -7 99
-53 83 -53 -19 -97 -145 -56 -161 15 -6 15 -8 -2 -20 -10 -7 -30 -13 -46 -13
-36 0 -58 34 -67 102 -8 69 -33 77 -47 17 -8 -39 -36 -71 -49 -58 -3 4 -8 31
-12 60 -7 66 -29 99 -47 70z m310 -103 c-14 -19 -16 -20 -16 -5 0 10 5 28 12
40 11 19 13 20 16 5 2 -10 -4 -28 -12 -40z"/>
</g>
<g>
<path d="M6668 21259 c-35 -18 -38 -23 -38 -64 0 -35 5 -49 27 -70 67 -62 152
6 116 94 -27 67 -43 73 -105 40z m76 -52 c12 -34 -1 -61 -34 -65 -35 -6 -43
10 -29 57 10 34 17 41 33 39 12 -2 25 -15 30 -31z"/>
</g>
<g>
<path d="M7982 21255 c-24 -30 -37 -85 -33 -137 1 -24 28 -23 43 2 7 11 16 20
20 20 20 0 -3 -168 -32 -245 -30 -79 -97 -100 -144 -44 -14 17 -29 41 -32 55
-3 13 -10 24 -15 24 -21 0 19 -106 51 -135 29 -26 85 -23 117 7 71 65 113 282
80 410 -18 67 -30 76 -55 43z"/>
</g>
<g>
<path d="M6019 21239 c-6 -12 -12 -54 -13 -93 -1 -61 2 -71 17 -74 24 -5 54
23 78 71 23 45 35 47 43 7 8 -41 31 -48 68 -20 16 12 31 20 32 18 2 -1 11 -20
21 -41 18 -38 43 -46 37 -11 -7 37 -41 104 -53 104 -7 0 -25 -12 -41 -27 l-27
-26 -11 29 c-24 70 -42 78 -66 32 l-17 -33 -10 25 c-23 63 -39 73 -58 39z m41
-99 c-15 -29 -30 -25 -30 8 0 36 9 45 27 27 11 -11 11 -19 3 -35z"/>
</g>
<g>
<path d="M8151 21241 c-6 -11 -11 -31 -11 -45 0 -15 -8 -30 -20 -36 -28 -15
-27 -54 0 -47 12 3 33 -1 48 -9 29 -15 57 -11 85 14 15 14 19 13 36 -2 24 -21
60 -9 86 30 l18 27 21 -53 c23 -57 55 -80 76 -54 10 11 9 14 -3 14 -19 0 -40
32 -61 98 -10 30 -24 52 -32 52 -7 0 -23 -18 -34 -40 -24 -46 -60 -56 -60 -17
0 13 -6 32 -14 42 -13 18 -14 18 -26 -6 -8 -13 -12 -24 -10 -24 2 0 0 -10 -4
-22 -8 -25 -52 -41 -68 -25 -6 6 -4 20 7 42 9 17 15 41 13 53 -4 29 -34 34
-47 8z"/>
</g>
<g>
<path d="M4760 20732 c0 -11 8 -23 18 -27 16 -6 340 -6 467 0 175 9 582 11
820 4 699 -21 953 -30 1245 -44 740 -34 1507 -47 1574 -28 32 10 44 28 24 35
-7 3 -94 2 -193 -3 -242 -11 -614 -5 -1215 21 -282 13 -980 37 -1330 47 -311
8 -629 9 -1045 3 -165 -2 -315 -1 -332 4 -29 7 -33 5 -33 -12z"/>
</g>
<g>
<path d="M7675 20340 c-4 -6 -17 -50 -30 -99 -25 -91 -64 -191 -75 -191 -4 0
-13 11 -20 25 -19 35 -45 28 -45 -10 0 -18 5 -29 12 -28 6 2 21 -9 32 -23 18
-23 23 -25 37 -14 8 8 22 26 29 41 15 29 55 169 55 193 0 8 5 27 11 43 10 27
11 27 25 9 14 -19 14 -19 14 3 0 43 -29 76 -45 51z"/>
</g>
<g>
<path d="M5842 20276 c-44 -16 -49 -26 -57 -107 -12 -119 21 -174 85 -141 56
28 73 62 74 141 1 60 -2 73 -23 95 -27 29 -31 29 -79 12z m76 -87 c4 -71 -59
-162 -90 -131 -16 16 -15 129 1 145 6 6 11 19 11 28 0 22 29 29 55 14 14 -9
21 -25 23 -56z"/>
</g>
<g>
<path d="M5191 20271 c-8 -5 -24 -30 -36 -56 -19 -38 -20 -47 -9 -52 19 -7 42
13 46 39 6 40 24 29 37 -22 7 -27 21 -60 30 -71 15 -18 21 -20 39 -10 22 12
22 11 22 -72 0 -46 -7 -107 -15 -135 -25 -82 -66 -93 -139 -37 -57 43 -59 29
-5 -30 32 -35 49 -45 73 -45 80 0 118 91 120 290 1 131 -8 190 -29 190 -8 0
-15 -1 -15 -2 -1 -2 -3 -21 -6 -43 -12 -101 -22 -105 -44 -20 -12 46 -35 85
-49 85 -3 0 -12 -4 -20 -9z"/>
</g>
<g>
<path d="M7201 20176 c-14 -17 -5 -41 28 -70 25 -23 37 -16 22 12 -6 12 -11
26 -11 32 0 20 42 6 63 -21 17 -24 18 -31 7 -64 -11 -32 -21 -41 -77 -67 -89
-40 -79 -53 38 -52 105 1 169 10 169 24 0 6 -35 10 -77 10 l-77 0 26 28 c47
50 48 108 3 156 -28 30 -94 36 -114 12z"/>
</g>
<g>
<path d="M7745 20169 c-10 -16 4 -61 18 -56 7 2 10 7 7 12 -6 10 31 24 48 18
36 -14 1 -61 -76 -104 -26 -14 -41 -29 -40 -39 3 -13 21 -15 113 -13 61 1 120
5 133 8 46 11 9 25 -70 25 l-80 0 31 35 c34 40 41 84 15 109 -17 18 -89 22
-99 5z"/>
</g>
<g>
<path d="M5481 20111 c-8 -5 -11 -16 -6 -30 6 -21 29 -28 39 -12 7 10 56 19
121 23 100 5 53 26 -60 27 -44 0 -86 -3 -94 -8z"/>
</g>
<g>
<path d="M6513 19972 c-24 -2 -33 -8 -33 -22 0 -28 12 -31 78 -22 33 5 85 6
116 2 32 -3 59 -2 62 2 14 23 -136 50 -223 40z"/>
</g>
<g>
<path d="M6608 19862 c-30 -4 -43 -25 -24 -41 9 -8 29 -8 66 -1 29 5 70 10 91
10 22 0 39 4 39 9 0 13 -121 29 -172 23z"/>
</g>
<g>
<path d="M5710 19779 c-74 -4 -179 -8 -232 -9 -76 -2 -98 -5 -98 -16 0 -27 50
-29 325 -9 22 2 104 6 183 10 113 6 142 10 142 22 0 15 -46 15 -320 2z"/>
</g>
<g>
<path d="M7464 19739 c-10 -18 35 -51 58 -43 11 3 87 7 169 7 82 1 149 5 149
9 0 16 -83 26 -213 27 -75 0 -141 2 -146 6 -5 3 -13 0 -17 -6z"/>
</g>
<g>
<path d="M5806 19641 c-9 -14 3 -106 25 -193 14 -54 34 -50 24 5 -4 23 -10 75
-14 116 -6 69 -20 97 -35 72z"/>
</g>
<g>
<path d="M7728 19608 c-14 -12 -14 -16 0 -48 15 -35 15 -35 22 -10 6 23 11 25
51 22 61 -4 69 -17 25 -42 -44 -26 -46 -44 -7 -60 37 -15 65 -45 56 -59 -8
-14 -89 -14 -138 0 -21 6 -46 22 -59 40 -24 32 -47 25 -29 -9 30 -56 148 -95
221 -73 22 6 41 16 41 21 1 6 2 16 3 23 3 19 -15 50 -41 70 l-23 19 25 20 c41
32 30 60 -30 80 -61 20 -96 22 -117 6z"/>
</g>
<g>
<path d="M5127 19563 c-12 -11 -8 -21 28 -59 19 -20 35 -41 35 -45 0 -5 -18
-38 -40 -75 -47 -75 -61 -124 -37 -124 8 0 18 12 21 26 7 26 71 134 80 134 3
0 21 -28 42 -62 48 -79 57 -57 13 33 l-33 69 27 28 c18 19 25 35 21 45 -9 24
-21 21 -48 -10 l-23 -27 -33 37 c-32 37 -41 42 -53 30z"/>
</g>
<g>
<path d="M6444 19535 c-4 -8 2 -27 12 -42 12 -20 19 -54 22 -123 5 -104 -10
-177 -51 -255 -33 -61 -38 -75 -24 -69 21 8 65 87 87 158 37 112 20 322 -27
340 -7 3 -16 -1 -19 -9z"/>
</g>
<g>
<path d="M5934 19493 c-13 -14 -24 -31 -24 -38 0 -6 -11 -33 -24 -61 -43 -89
-77 -184 -71 -194 9 -15 25 -12 25 5 0 8 4 23 10 33 5 9 32 65 59 125 32 69
55 107 65 107 21 0 21 36 0 44 -9 3 -25 -4 -40 -21z"/>
</g>
<g>
<path d="M6132 19488 c-5 -7 -24 -53 -41 -102 -17 -49 -33 -91 -36 -94 -3 -3
-13 2 -23 11 -23 21 -42 22 -42 3 0 -25 12 -46 25 -46 7 0 19 -14 27 -30 18
-43 41 -34 51 20 14 78 48 205 57 213 4 5 17 4 29 -2 23 -13 26 -9 11 20 -12
22 -43 25 -58 7z"/>
</g>
<g>
<path d="M4865 19480 c-15 -24 -45 -148 -52 -214 -16 -156 3 -241 62 -269 38
-18 90 -23 99 -9 3 5 -11 9 -31 10 -77 3 -105 45 -105 157 0 95 7 136 37 229
25 76 27 106 6 106 -5 0 -13 -5 -16 -10z"/>
</g>
<g>
<path d="M5390 19441 c0 -20 5 -21 78 -20 77 0 124 10 106 21 -5 4 -49 9 -97
13 -84 7 -87 6 -87 -14z"/>
</g>
<g>
<path d="M6197 19373 c-11 -10 -8 -71 4 -78 6 -4 13 2 16 14 3 12 10 21 15 21
16 0 0 -63 -20 -78 -88 -64 -67 -77 67 -42 100 26 117 45 33 36 -61 -6 -62 -5
-52 15 17 32 15 77 -5 99 -18 20 -46 26 -58 13z"/>
</g>
<g>
<path d="M7067 18668 c-8 -13 -37 -89 -63 -170 -46 -138 -50 -146 -74 -145
-34 3 -36 -36 -2 -41 12 -2 22 -10 22 -18 0 -9 7 -14 18 -12 13 2 21 23 34 83
32 157 72 285 89 285 5 0 9 -9 9 -20 0 -11 5 -20 11 -20 6 0 9 16 7 37 -4 45
-29 56 -51 21z"/>
</g>
<g>
<path d="M5482 18567 c-20 -9 -23 -16 -17 -46 12 -66 49 -81 38 -16 -6 38 -5
39 67 35 71 -4 79 -42 20 -100 -43 -42 -44 -58 -4 -96 l22 -22 -36 -6 c-20 -3
-52 -6 -69 -6 -36 0 -42 -10 -18 -30 11 -9 34 -11 77 -6 104 10 139 51 73 83
-43 21 -44 38 -4 79 67 70 21 145 -89 143 -20 0 -47 -5 -60 -12z"/>
</g>
<g>
<path d="M5006 18521 c-19 -7 -30 -37 -19 -54 3 -4 14 0 24 9 15 13 22 15 31
6 14 -14 24 -117 12 -125 -5 -2 -43 -7 -84 -11 l-75 -6 43 16 c85 32 30 58
-105 51 -99 -6 -113 -10 -113 -34 0 -13 9 -15 59 -9 32 4 69 9 81 11 13 2 27
2 33 -2 13 -8 -32 -32 -60 -33 -32 0 -53 -10 -53 -26 0 -17 71 -19 171 -3 38
6 74 9 79 7 18 -6 -48 -85 -103 -124 -55 -40 -51 -56 8 -29 45 22 130 115 144
157 23 75 17 153 -17 191 -16 18 -26 20 -56 8z"/>
</g>
<g>
<path d="M6622 18505 c-27 -12 -32 -18 -28 -40 5 -29 23 -55 37 -55 5 0 6 13
3 29 -5 24 -2 30 16 36 27 9 56 -16 63 -53 9 -44 -20 -90 -74 -118 -36 -18
-47 -28 -42 -40 4 -12 14 -14 42 -10 20 3 80 9 134 12 54 4 100 10 102 15 7
10 -37 19 -108 21 -31 1 -56 5 -54 8 47 87 46 127 -2 179 -32 35 -42 36 -89
16z"/>
</g>
<g>
<path d="M7424 18507 c-3 -8 -1 -30 4 -48 7 -28 13 -34 34 -32 17 1 29 -7 40
-25 15 -24 15 -30 0 -67 -9 -22 -35 -72 -59 -111 -46 -76 -56 -107 -27 -83 19
16 89 122 107 161 15 36 24 35 45 -3 42 -76 55 -93 60 -81 5 16 -14 64 -45
114 -27 44 -29 65 -8 88 13 14 13 23 5 46 -11 28 -12 28 -26 10 -8 -11 -14
-26 -14 -33 0 -22 -14 -15 -43 22 -35 44 -65 61 -73 42z"/>
</g>
<g>
<path d="M8392 18508 c-19 -10 -22 -18 -20 -51 4 -50 25 -61 30 -15 2 27 8 34
29 36 16 2 29 -3 32 -11 18 -47 -45 -129 -126 -163 -82 -34 -55 -64 42 -45 32
6 95 14 140 18 50 4 78 10 73 15 -13 13 -36 16 -111 17 l-65 1 30 33 c56 59
69 122 34 157 -22 22 -53 25 -88 8z"/>
</g>
<g>
<path d="M5773 18449 c-7 -7 -7 -20 -2 -37 5 -15 14 -47 21 -72 13 -46 42 -65
59 -38 15 23 10 -76 -7 -144 -36 -146 -113 -199 -254 -176 -43 7 -44 7 -20 -7
61 -36 151 -41 183 -11 7 6 24 19 38 28 63 40 123 259 99 363 -14 61 -49 66
-50 7 0 -38 -17 -16 -24 32 -8 49 -26 72 -43 55z"/>
</g>
<g>
<path d="M7114 18446 c-8 -21 15 -57 34 -54 26 5 27 -37 1 -61 -37 -34 -14
-45 72 -35 87 11 108 34 31 34 l-49 0 -6 47 c-3 32 -12 53 -27 65 -27 22 -49
23 -56 4z"/>
</g>
<g>
<path d="M7850 18395 c0 -24 35 -37 67 -24 18 7 69 9 148 4 84 -4 117 -3 110
4 -18 18 -112 31 -221 31 -85 0 -104 -3 -104 -15z"/>
</g>
<g>
<path d="M6050 18356 c0 -27 24 -36 67 -25 26 7 71 8 127 2 60 -6 85 -6 83 2
-10 30 -277 51 -277 21z"/>
</g>
<g>
<path d="M6152 18279 c-47 -9 -62 -16 -62 -29 0 -17 33 -19 101 -5 39 8 87 15
107 15 48 0 83 10 76 21 -6 11 -164 10 -222 -2z"/>
</g>
</g>
</svg>
