<?xml version="1.0" encoding="UTF-8"?>
<svg width="869" height="473" xmlns="http://www.w3.org/2000/svg" xmlns:svg="http://www.w3.org/2000/svg" class="main-svg">
 <defs>
  <g id="svg_32" class="clips">
   <clipPath id="clip64e023x" class="axesclip">
    <rect id="svg_33" height="473" width="632" y="0" x="80"/>
   </clipPath>
   <clipPath id="clip64e023y" class="axesclip">
    <rect id="svg_34" height="293" width="869" y="100" x="0"/>
   </clipPath>
   <clipPath id="clip64e023xy" class="axesclip">
    <rect id="svg_35" height="293" width="632" y="100" x="80"/>
   </clipPath>
  </g>
 </defs>
 <g>
  <title>Layer 1</title>
  <rect id="svg_36" fill="rgb(255, 255, 255)" height="473" width="869" y="0" x="0"/>
  <g id="svg_37" class="draglayer">
   <g id="svg_38"/>
  </g>
  <g id="svg_39" class="subplot xy">
   <rect id="svg_40" stroke-width="0px" fill="rgb(255, 255, 255)" height="293" width="632" y="100" x="80"/>
   <g id="svg_41">
    <path id="svg_42" stroke="rgb(238, 238, 238)" stroke-width="1px" d="m229.919998,100l0,293" class="xgrid crisp"/>
    <path id="svg_43" stroke="rgb(238, 238, 238)" stroke-width="1px" d="m340.640015,100l0,293" class="xgrid crisp"/>
    <path id="svg_44" stroke="rgb(238, 238, 238)" stroke-width="1px" d="m451.359985,100l0,293" class="xgrid crisp"/>
    <path id="svg_45" stroke="rgb(238, 238, 238)" stroke-width="1px" d="m562.079956,100l0,293" class="xgrid crisp"/>
    <path id="svg_46" stroke="rgb(238, 238, 238)" stroke-width="1px" d="m672.799988,100l0,293" class="xgrid crisp"/>
    <path id="svg_47" stroke="rgb(238, 238, 238)" stroke-width="1px" d="m80,289.200012l632,0" class="ygrid crisp"/>
    <path id="svg_48" stroke="rgb(238, 238, 238)" stroke-width="1px" d="m80,203.800003l632,0" class="ygrid crisp"/>
    <path id="svg_49" stroke="rgb(238, 238, 238)" stroke-width="1px" d="m80,118.400002l632,0" class="ygrid crisp"/>
   </g>
   <g id="svg_50"/>
   <g id="svg_51">
    <path id="svg_52" stroke="rgb(68, 68, 68)" stroke-width="1px" d="m119.199997,100l0,293" class="xzl zl crisp"/>
    <path id="svg_53" stroke="rgb(68, 68, 68)" stroke-width="1px" d="m80,374.600006l632,0" class="yzl zl crisp"/>
   </g>
   <g id="svg_54"/>
   <g id="svg_1">
    <svg id="svg_55" viewBox="0 0 632 293" height="293" width="632" y="100" x="80" preserveAspectRatio="none">
     <g id="svg_56" class="maplayer"/>
     <g id="svg_57" class="barlayer"/>
     <g id="svg_58" class="errorlayer">
      <g id="svg_59" class="errorbars"/>
      <g id="svg_60" class="errorbars"/>
      <g id="svg_61" class="errorbars"/>
     </g>
     <g id="svg_62" class="boxlayer"/>
     <g id="svg_63" class="scatterlayer">
      <g id="svg_64" stroke-miterlimit="2" class="trace scatter">
       <path id="svg_65" fill="none" stroke="rgb(31, 119, 180)" stroke-width="2px" d="m39.200001,189.199997l553.599987,42.699997" class="js-line"/>
       <g id="svg_66" class="points">
        <path id="svg_67" stroke-width="0px" fill="rgb(31, 119, 180)" d="m42.200001,189.199997a3,3 0 1 1 -3,-3a3,3 0 0 1 3,3z" class="point"/>
        <path id="svg_68" stroke-width="0px" fill="rgb(31, 119, 180)" d="m152.919998,197.740005a3,3 0 1 1 -3,-3a3,3 0 0 1 3,3z" class="point"/>
        <path id="svg_69" stroke-width="0px" fill="rgb(31, 119, 180)" d="m263.640015,206.279999a3,3 0 1 1 -3,-3a3,3 0 0 1 3,3z" class="point"/>
        <path id="svg_70" stroke-width="0px" fill="rgb(31, 119, 180)" d="m374.359985,214.820007a3,3 0 1 1 -3,-3a3,3 0 0 1 3,3z" class="point"/>
        <path id="svg_71" stroke-width="0px" fill="rgb(31, 119, 180)" d="m485.079987,223.360001a3,3 0 1 1 -3,-3a3,3 0 0 1 3,3z" class="point"/>
        <path id="svg_72" stroke-width="0px" fill="rgb(31, 119, 180)" d="m595.799988,231.899994a3,3 0 1 1 -3,-3a3,3 0 0 1 3,3z" class="point"/>
       </g>
      </g>
      <g id="svg_73" stroke-miterlimit="2" class="trace scatter">
       <path id="svg_74" fill="none" stroke="rgb(255, 127, 14)" stroke-width="2px" d="m39.200001,18.4l553.599987,256.200006" class="js-line"/>
       <g id="svg_75" class="points">
        <path id="svg_76" stroke-width="0px" fill="rgb(255, 127, 14)" d="m42.200001,18.4a3,3 0 1 1 -3,-3a3,3 0 0 1 3,3z" class="point"/>
        <path id="svg_77" stroke-width="0px" fill="rgb(255, 127, 14)" d="m152.919998,69.639999a3,3 0 1 1 -3,-3a3,3 0 0 1 3,3z" class="point"/>
        <path id="svg_78" stroke-width="0px" fill="rgb(255, 127, 14)" d="m263.640015,120.879997a3,3 0 1 1 -3,-3a3,3 0 0 1 3,3z" class="point"/>
        <path id="svg_79" stroke-width="0px" fill="rgb(255, 127, 14)" d="m374.359985,172.119995a3,3 0 1 1 -3,-3a3,3 0 0 1 3,3z" class="point"/>
        <path id="svg_80" stroke-width="0px" fill="rgb(255, 127, 14)" d="m485.079987,223.360001a3,3 0 1 1 -3,-3a3,3 0 0 1 3,3z" class="point"/>
        <path id="svg_81" stroke-width="0px" fill="rgb(255, 127, 14)" d="m595.799988,274.600006a3,3 0 1 1 -3,-3a3,3 0 0 1 3,3z" class="point"/>
       </g>
      </g>
      <g id="svg_82" stroke-miterlimit="2" class="trace scatter">
       <path id="svg_83" stroke-width="0px" fill="rgb(0, 0, 0)" fill-opacity="0.5" d="m39.200001,189.199997l553.599987,42.699997l0,42.700012l-553.599987,0l0,-85.400009z" class="js-fill"/>
       <path id="svg_84" fill="none" stroke="rgb(0, 0, 0)" stroke-opacity="0" stroke-width="2px" d="m39.200001,189.199997l553.599987,42.699997" class="js-line"/>
       <g id="svg_85" class="points">
        <path id="svg_86" stroke-width="0px" fill="rgb(0, 0, 0)" fill-opacity="0" d="m42.200001,189.199997a3,3 0 1 1 -3,-3a3,3 0 0 1 3,3z" class="point"/>
        <path id="svg_87" stroke-width="0px" fill="rgb(0, 0, 0)" fill-opacity="0" d="m152.919998,197.740005a3,3 0 1 1 -3,-3a3,3 0 0 1 3,3z" class="point"/>
        <path id="svg_88" stroke-width="0px" fill="rgb(0, 0, 0)" fill-opacity="0" d="m263.640015,206.279999a3,3 0 1 1 -3,-3a3,3 0 0 1 3,3z" class="point"/>
        <path id="svg_89" stroke-width="0px" fill="rgb(0, 0, 0)" fill-opacity="0" d="m374.359985,214.820007a3,3 0 1 1 -3,-3a3,3 0 0 1 3,3z" class="point"/>
        <path id="svg_90" stroke-width="0px" fill="rgb(0, 0, 0)" fill-opacity="0" d="m485.079987,223.360001a3,3 0 1 1 -3,-3a3,3 0 0 1 3,3z" class="point"/>
        <path id="svg_91" stroke-width="0px" fill="rgb(0, 0, 0)" fill-opacity="0" d="m595.799988,231.899994a3,3 0 1 1 -3,-3a3,3 0 0 1 3,3z" class="point"/>
       </g>
      </g>
     </g>
    </svg>
   </g>
   <g id="svg_92"/>
   <path id="svg_93" fill="none" stroke-width="1px" stroke="rgb(0, 0, 0)" stroke-opacity="0" d="m79,393.5l634,0" class="crisp"/>
   <path id="svg_94" fill="none" stroke="rgb(0, 0, 0)" stroke-opacity="0" stroke-width="1px" d="m79.5,99l0,294" class="crisp"/>
   <g id="svg_95"/>
   <g id="svg_96">
    <g id="svg_97" class="xtick">
     <text id="svg_98" font-family="'Open sans', verdana, arial, sans-serif" font-size="12px" fill="rgb(68, 68, 68)" y="407" x="119.200001" text-anchor="middle">0</text>
    </g>
    <g id="svg_99" class="xtick">
     <text id="svg_100" font-family="'Open sans', verdana, arial, sans-serif" font-size="12px" fill="rgb(68, 68, 68)" y="407" x="229.919998" text-anchor="middle">1</text>
    </g>
    <g id="svg_101" class="xtick">
     <text id="svg_102" font-family="'Open sans', verdana, arial, sans-serif" font-size="12px" fill="rgb(68, 68, 68)" y="407" x="340.640015" text-anchor="middle">2</text>
    </g>
    <g id="svg_103" class="xtick">
     <text id="svg_104" font-family="'Open sans', verdana, arial, sans-serif" font-size="12px" fill="rgb(68, 68, 68)" y="407" x="451.359985" text-anchor="middle">3</text>
    </g>
    <g id="svg_105" class="xtick">
     <text id="svg_106" font-family="'Open sans', verdana, arial, sans-serif" font-size="12px" fill="rgb(68, 68, 68)" y="407" x="562.079987" text-anchor="middle">4</text>
    </g>
    <g id="svg_107" class="xtick">
     <text id="svg_108" font-family="'Open sans', verdana, arial, sans-serif" font-size="12px" fill="rgb(68, 68, 68)" y="407" x="672.799988" text-anchor="middle">5</text>
    </g>
   </g>
   <g id="svg_109">
    <g id="svg_110" class="ytick">
     <text id="svg_111" font-family="'Open sans', verdana, arial, sans-serif" font-size="12px" fill="rgb(68, 68, 68)" y="380.600006" x="78" text-anchor="end">0</text>
    </g>
    <g id="svg_112" class="ytick">
     <text id="svg_113" font-family="'Open sans', verdana, arial, sans-serif" font-size="12px" fill="rgb(68, 68, 68)" y="295.199997" x="78" text-anchor="end">5</text>
    </g>
    <g id="svg_114" class="ytick">
     <text id="svg_115" font-family="'Open sans', verdana, arial, sans-serif" font-size="12px" fill="rgb(68, 68, 68)" y="209.800003" x="78" text-anchor="end">10</text>
    </g>
    <g id="svg_116" class="ytick">
     <text id="svg_117" font-family="'Open sans', verdana, arial, sans-serif" font-size="12px" fill="rgb(68, 68, 68)" y="124.4" x="78" text-anchor="end">15</text>
    </g>
   </g>
   <g id="svg_118"/>
  </g>
  <g id="svg_119" class="shapelayer"/>
  <g id="svg_120" class="glimages"/>
  <text id="svg_121" font-family="'Open Sans', Arial, sans-serif" font-size="12px" fill="rgb(68, 68, 68)" x="862" text-anchor="end" y="464" class="js-plot-link-container"/>
 </g>
</svg>