<?xml version="1.0"?>
<svg width="766" height="454" xmlns="http://www.w3.org/2000/svg" xmlns:svg="http://www.w3.org/2000/svg" xmlns:xlink="http://www.w3.org/1999/xlink" class="main-svg">
 <defs>
  <g id="svg_16" class="clips">
   <clipPath id="clipbacf30x" class="axesclip">
    <rect id="svg_17" height="454" width="766" y="0" x="0"/>
   </clipPath>
   <clipPath id="clipbacf30y" class="axesclip">
    <rect id="svg_18" height="454" width="766" y="0" x="0"/>
   </clipPath>
   <clipPath id="clipbacf30xy" class="axesclip">
    <rect id="svg_19" height="454" width="766" y="0" x="0"/>
   </clipPath>
  </g>
 </defs>
 <g>
  <title>Layer 1</title>
  <rect id="svg_20" fill="rgb(0, 0, 0)" fill-opacity="0" height="454" width="766" y="0" x="0"/>
  <g id="svg_21" class="draglayer">
   <g id="svg_22"/>
  </g>
  <g id="svg_23" class="subplot xy">
   <rect id="svg_24" stroke-width="0px" fill="rgb(0, 0, 0)" fill-opacity="0" height="454" width="766" y="-4" x="7"/>
   <g id="svg_25">
    <path id="svg_26" stroke="rgb(238, 238, 238)" stroke-width="1px" d="m102.559998,-4l0,454" class="xgrid crisp"/>
    <path id="svg_27" stroke="rgb(238, 238, 238)" stroke-width="1px" d="m311.609985,-4l0,454" class="xgrid crisp"/>
    <path id="svg_28" stroke="rgb(238, 238, 238)" stroke-width="1px" d="m416.130005,-4l0,454" class="xgrid crisp"/>
    <path id="svg_29" stroke="rgb(238, 238, 238)" stroke-width="1px" d="m520.650024,-4l0,454" class="xgrid crisp"/>
    <path id="svg_30" stroke="rgb(238, 238, 238)" stroke-width="1px" d="m625.179993,-4l0,454" class="xgrid crisp"/>
    <path id="svg_31" stroke="rgb(238, 238, 238)" stroke-width="1px" d="m729.700012,-4l0,454" class="xgrid crisp"/>
    <path id="svg_32" stroke="rgb(238, 238, 238)" stroke-width="1px" d="m7,341.839996l766,0" class="ygrid crisp"/>
    <path id="svg_33" stroke="rgb(238, 238, 238)" stroke-width="1px" d="m7,268.859985l766,0" class="ygrid crisp"/>
    <path id="svg_34" stroke="rgb(238, 238, 238)" stroke-width="1px" d="m7,195.880005l766,0" class="ygrid crisp"/>
    <path id="svg_35" stroke="rgb(238, 238, 238)" stroke-width="1px" d="m7,122.900002l766,0" class="ygrid crisp"/>
    <path id="svg_36" stroke="rgb(238, 238, 238)" stroke-width="1px" d="m7,49.93l766,0" class="ygrid crisp"/>
   </g>
   <g id="svg_37"/>
   <g id="svg_38">
    <path id="svg_39" stroke="rgb(68, 68, 68)" stroke-width="1px" d="m207.080002,-4l0,454" class="xzl zl crisp"/>
    <path id="svg_40" stroke="rgb(68, 68, 68)" stroke-width="1px" d="m7,414.820007l766,0" class="yzl zl crisp"/>
   </g>
   <g id="svg_41"/>
   <svg id="svg_42" viewBox="0 0 766 454" height="454" width="766" y="-4" x="7" preserveAspectRatio="none">
    <g id="svg_43" class="maplayer"/>
    <g id="svg_44" class="barlayer"/>
    <g id="svg_45" class="errorlayer">
     <g id="svg_46" class="errorbars"/>
    </g>
    <g id="svg_47" class="boxlayer"/>
    <g id="svg_48" class="scatterlayer">
     <g id="svg_49" stroke-miterlimit="2" class="trace scatter">
      <path id="svg_50" fill="none" stroke="rgb(31, 119, 180)" stroke-width="2px" d="m43.299999,404.410004l52.259998,6.419983l52.26001,4.300018l104.529999,7.290009l52.259979,3.009979l52.26001,0.869995l52.26001,-3.829987l52.26001,-12.130005l52.26001,-25.049988l52.269958,-43.600006l52.26001,-68.830017l52.26001,-101.759979l52.26001,-143.400005" class="js-line"/>
      <g id="svg_51" class="points">
       <path id="svg_52" stroke-width="0px" fill="rgb(31, 119, 180)" d="m47.299999,404.410004a4,4 0 1 1 -4,-4a4,4 0 0 1 4,4z" class="point"/>
       <path id="svg_53" stroke-width="0px" fill="rgb(31, 119, 180)" d="m99.559998,410.829987a4,4 0 1 1 -4,-4a4,4 0 0 1 4,4z" class="point"/>
       <path id="svg_54" stroke-width="0px" fill="rgb(31, 119, 180)" d="m151.820007,415.130005a4,4 0 1 1 -4,-4a4,4 0 0 1 4,4z" class="point"/>
       <path id="svg_55" stroke-width="0px" fill="rgb(31, 119, 180)" d="m204.080002,418.820007a4,4 0 1 1 -4,-4a4,4 0 0 1 4,4z" class="point"/>
       <path id="svg_56" stroke-width="0px" fill="rgb(31, 119, 180)" d="m256.350006,422.420013a4,4 0 1 1 -4,-4a4,4 0 0 1 4,4z" class="point"/>
       <path id="svg_57" stroke-width="0px" fill="rgb(31, 119, 180)" d="m308.609985,425.429993a4,4 0 1 1 -4,-4a4,4 0 0 1 4,4z" class="point"/>
       <path id="svg_58" stroke-width="0px" fill="rgb(31, 119, 180)" d="m360.869995,426.299988a4,4 0 1 1 -4,-4a4,4 0 0 1 4,4z" class="point"/>
       <path id="svg_59" stroke-width="0px" fill="rgb(31, 119, 180)" d="m413.130005,422.470001a4,4 0 1 1 -4,-4a4,4 0 0 1 4,4z" class="point"/>
       <path id="svg_60" stroke-width="0px" fill="rgb(31, 119, 180)" d="m465.390015,410.339996a4,4 0 1 1 -4,-4a4,4 0 0 1 4,4z" class="point"/>
       <path id="svg_61" stroke-width="0px" fill="rgb(31, 119, 180)" d="m517.650024,385.290009a4,4 0 1 1 -4,-4a4,4 0 0 1 4,4z" class="point"/>
       <path id="svg_62" stroke-width="0px" fill="rgb(31, 119, 180)" d="m569.919983,341.690002a4,4 0 1 1 -4,-4a4,4 0 0 1 4,4z" class="point"/>
       <path id="svg_63" stroke-width="0px" fill="rgb(31, 119, 180)" d="m622.179993,272.859985a4,4 0 1 1 -4,-4a4,4 0 0 1 4,4z" class="point"/>
       <path id="svg_64" stroke-width="0px" fill="rgb(31, 119, 180)" d="m674.440002,171.100006a4,4 0 1 1 -4,-4a4,4 0 0 1 4,4z" class="point"/>
       <path id="svg_65" stroke-width="0px" fill="rgb(31, 119, 180)" d="m726.700012,27.700001a4,4 0 1 1 -4,-4a4,4 0 0 1 4,4z" class="point"/>
      </g>
     </g>
    </g>
   </svg>
   <g id="svg_66"/>
   <path id="svg_67" fill="none" stroke-width="1px" stroke="rgb(0, 0, 0)" stroke-opacity="0" d="m6,450.5l768,0" class="crisp"/>
   <path id="svg_68" fill="none" stroke="rgb(0, 0, 0)" stroke-opacity="0" stroke-width="1px" d="m6.5,-5l0,455" class="crisp"/>
   <g id="svg_69"/>
   <g id="svg_70">
    <g id="svg_71" class="xtick">
     <text id="svg_72" font-family="&#x27;Open sans', verdana, arial, sans-serif" font-size="12px" fill="rgb(68, 68, 68)" y="464" x="102.559998" text-anchor="middle">−0.5</text>
    </g>
    <g id="svg_73" class="xtick">
     <text id="svg_74" font-family="&#x27;Open sans', verdana, arial, sans-serif" font-size="12px" fill="rgb(68, 68, 68)" y="464" x="207.080002" text-anchor="middle">0</text>
    </g>
    <g id="svg_75" class="xtick">
     <text id="svg_76" font-family="&#x27;Open sans', verdana, arial, sans-serif" font-size="12px" fill="rgb(68, 68, 68)" y="464" x="311.609985" text-anchor="middle">0.5</text>
    </g>
    <g id="svg_77" class="xtick">
     <text id="svg_78" font-family="&#x27;Open sans', verdana, arial, sans-serif" font-size="12px" fill="rgb(68, 68, 68)" y="464" x="416.130005" text-anchor="middle">1</text>
    </g>
    <g id="svg_79" class="xtick">
     <text id="svg_80" font-family="&#x27;Open sans', verdana, arial, sans-serif" font-size="12px" fill="rgb(68, 68, 68)" y="464" x="520.650024" text-anchor="middle">1.5</text>
    </g>
    <g id="svg_81" class="xtick">
     <text id="svg_82" font-family="&#x27;Open sans', verdana, arial, sans-serif" font-size="12px" fill="rgb(68, 68, 68)" y="464" x="625.179993" text-anchor="middle">2</text>
    </g>
    <g id="svg_83" class="xtick">
     <text id="svg_84" font-family="&#x27;Open sans', verdana, arial, sans-serif" font-size="12px" fill="rgb(68, 68, 68)" y="464" x="729.700012" text-anchor="middle">2.5</text>
    </g>
   </g>
   <g id="svg_85">
    <g id="svg_86" class="ytick">
     <text id="svg_87" font-family="&#x27;Open sans', verdana, arial, sans-serif" font-size="12px" fill="rgb(68, 68, 68)" y="420.820007" x="5" text-anchor="end">0</text>
    </g>
    <g id="svg_88" class="ytick">
     <text id="svg_89" font-family="&#x27;Open sans', verdana, arial, sans-serif" font-size="12px" fill="rgb(68, 68, 68)" y="347.839996" x="5" text-anchor="end">20</text>
    </g>
    <g id="svg_90" class="ytick">
     <text id="svg_91" font-family="&#x27;Open sans', verdana, arial, sans-serif" font-size="12px" fill="rgb(68, 68, 68)" y="274.859985" x="5" text-anchor="end">40</text>
    </g>
    <g id="svg_92" class="ytick">
     <text id="svg_93" font-family="&#x27;Open sans', verdana, arial, sans-serif" font-size="12px" fill="rgb(68, 68, 68)" y="201.880005" x="5" text-anchor="end">60</text>
    </g>
    <g id="svg_94" class="ytick">
     <text id="svg_95" font-family="&#x27;Open sans', verdana, arial, sans-serif" font-size="12px" fill="rgb(68, 68, 68)" y="128.900002" x="5" text-anchor="end">80</text>
    </g>
    <g id="svg_96" class="ytick">
     <text id="svg_97" font-family="&#x27;Open sans', verdana, arial, sans-serif" font-size="12px" fill="rgb(68, 68, 68)" y="55.93" x="5" text-anchor="end">100</text>
    </g>
   </g>
   <g id="svg_98"/>
  </g>
  <g id="svg_99" class="shapelayer"/>
  <g id="svg_100" class="glimages"/>
  <text id="svg_101" font-family="&#x27;Open Sans', Arial, sans-serif" font-size="12px" fill="rgb(68, 68, 68)" x="759" text-anchor="end" y="445" class="js-plot-link-container"/>
  <g id="svg_102" class="infolayer">
   <g id="svg_103" class="g-gtitle"/>
   <g id="svg_104" class="g-xtitle"/>
   <g id="svg_105" class="g-ytitle"/>
   <g id="svg_106" class="annotation">
    <g transform="matrix(1.7602 0 0 2.51282 -430.477 -85.2692)" id="svg_8" class="annotation-text-g">
     <svg id="svg_107" height="40" width="197" y="50.744901" x="531.811475">
      <rect stroke="rgb(0, 0, 0)" id="svg_108" stroke-width="1px" stroke-opacity="0" fill="rgb(0, 0, 0)" fill-opacity="0" height="39" width="196" y="0.5" x="0.5" class="bg"/>
      <g id="svg_15" class="annotation-math-group">
       <svg id="svg_109" width="13.212ex" y="2" x="1" preserveAspectRatio="xMinYMin meet" height="2.656ex" class="annotation-math" viewBox="0 -882.7777076937094 5689.088924499207 1131.8810567122607" xmlns:xlink="http://www.w3.org/1999/xlink">
        <defs>
         <path d="m21,287q0,14 15,48t48,71t74,36q41,0 66,-23t26,-64q-2,-19 -3,-21q0,-3 -16,-46t-33,-97t-16,-86q0,-43 14,-60t42,-18q23,0 43,11t31,23t27,33q0,1 5,20t14,59t19,74q38,150 42,157q13,27 43,27q13,0 21,-7t11,-12t2,-9q0,-13 -49,-210t-56,-216q-28,-83 -97,-132t-138,-50q-45,0 -79,22t-34,66q0,22 7,37t19,22t20,10t17,3q44,0 44,-42q0,-20 -12,-35t-23,-20t-13,-5l-3,-1q2,-5 19,-12t34,-7l8,0q17,0 26,2q33,9 61,38t43,62t23,56t8,30l-6,-4q-6,-4 -19,-11t-26,-12q-20,-5 -39,-5q-46,0 -81,22t-46,71q-1,7 -1,31q0,57 35,149t35,117q0,1 0,2q0,9 0,12t-4,7t-11,4l-4,0q-23,0 -42,-19t-30,-41t-17,-42t-8,-22q-2,-2 -16,-2l-14,0q-6,6 -6,9z" stroke-width="10" id="svg_14"/>
         <path d="m56,347q0,13 14,20l637,0q15,-8 15,-20q0,-11 -14,-19l-318,-1l-318,0q-16,5 -16,20zm0,-194q0,15 16,20l636,0q14,-10 14,-20q0,-13 -15,-20l-637,0q-14,7 -14,20z" stroke-width="10" id="svg_13"/>
         <path d="m127,463q-27,0 -42,17t-16,44q0,55 48,98t116,43q35,0 44,-1q74,-12 113,-53t40,-89q0,-52 -34,-101t-94,-71l-3,-2q0,-1 9,-3t29,-9t38,-21q82,-53 82,-140q0,-79 -62,-138t-157,-59q-80,0 -138,43t-58,109q0,28 18,45t45,18q28,0 46,-18t18,-45q0,-11 -3,-20t-7,-16t-11,-12t-12,-8t-10,-4t-8,-3l-4,-1q51,-45 124,-45q55,0 83,53q17,33 17,101l0,20q0,95 -64,127q-15,6 -61,7l-42,1l-3,2q-2,3 -2,16q0,18 8,18q28,0 58,5q34,5 62,42t28,112l0,8q0,57 -35,79q-22,14 -47,14q-32,0 -59,-11t-38,-23t-11,-12l3,0q3,-1 8,-2t10,-5t12,-7t10,-11t8,-15t3,-20q0,-22 -14,-39t-45,-18z" stroke-width="10" id="svg_12"/>
         <path d="m52,289q7,42 54,97t116,56q35,0 64,-18t43,-45q42,63 101,63q37,0 64,-22t28,-59q0,-29 -14,-47t-27,-22t-23,-4q-19,0 -31,11t-12,29q0,46 50,63q-11,13 -40,13q-13,0 -19,-2q-38,-16 -56,-66q-60,-221 -60,-258q0,-28 16,-40t35,-12q37,0 73,33t49,81q3,10 6,11t16,2l4,0q15,0 15,-8q0,-1 -2,-11q-16,-57 -62,-101t-107,-44q-70,0 -106,63q-41,-62 -94,-62l-6,0q-49,0 -70,26t-22,55q0,32 19,52t45,20q43,0 43,-42q0,-20 -12,-35t-23,-20t-13,-5l-3,-1q0,-1 6,-4t16,-7t19,-3q36,0 62,45q9,16 23,68t28,108t16,66q5,27 5,39q0,28 -15,40t-34,12q-40,0 -75,-32t-49,-82q-2,-9 -5,-10t-16,-2l-14,0q-6,6 -6,11z" stroke-width="10" id="svg_9"/>
         <path d="m462,0q-18,3 -129,3q-116,0 -134,-3l-9,0l0,46l31,0q20,0 27,0t17,2t14,5t7,8q1,2 1,54l0,50l-259,0l0,46l151,231q153,232 155,233q2,2 21,2l18,0l6,-6l0,-460l92,0l0,-46l-92,0l0,-51q0,-41 0,-48t6,-12q8,-7 57,-8l29,0l0,-46l-9,0zm-169,211l0,334l-219,-333l109,-1l110,0z" stroke-width="10" id="svg_10"/>
         <path d="m84,237t0,13t14,20l581,0q15,-8 15,-20t-15,-20l-581,0q-14,7 -14,20l0,-13z" stroke-width="10" id="svg_11"/>
        </defs>
        <g stroke="rgb(68, 68, 68)" id="svg_110" transform="matrix(1 0 0 -1 0 0)" stroke-width="0" fill="rgb(68, 68, 68)">
         <use id="svg_111" xlink:href="#svg_14"/>
         <use id="svg_112" y="0" x="779" xlink:href="#svg_13"/>
         <use id="svg_113" y="0" x="1840" xlink:href="#svg_12"/>
         <g id="svg_114">
          <use id="svg_115" x="2345" y="0" xlink:href="#svg_9"/>
          <use id="svg_116" y="513" x="816" xlink:href="#svg_10" transform="translate(2345 0) scale(0.707107 0.707107)"/>
         </g>
         <use id="svg_117" y="0" x="3601" xlink:href="#svg_11"/>
         <use id="svg_118" y="0" x="4607" xlink:href="#svg_10"/>
         <use id="svg_119" y="0" x="5112" xlink:href="#svg_9"/>
        </g>
       </svg>
      </g>
     </svg>
    </g>
   </g>
  </g>
  <text stroke="#666666" transform="matrix(1.75 0 0 2.11111 -406.5 -328.889)" xml:space="preserve" text-anchor="middle" font-family="Sans-serif" font-size="24" id="svg_128" y="312.789474" x="552.857143" stroke-linecap="null" stroke-linejoin="null" stroke-dasharray="null" stroke-width="0" fill="#000000">P</text>
  <line id="svg_132" y2="147" x2="733" y1="429" x1="499" stroke-linecap="null" stroke-linejoin="null" stroke-dasharray="null" stroke-width="2" stroke="#666666" fill="none"/>
  <line id="svg_133" y2="319" x2="585" y1="326" x1="589" stroke-linecap="null" stroke-linejoin="null" stroke-dasharray="null" stroke-width="2" stroke="#666666" fill="none"/>
  <line id="svg_134" y2="294" x2="649" y1="293" x1="650" stroke-linecap="null" stroke-linejoin="null" stroke-dasharray="null" stroke-width="2" stroke="#666666" fill="none"/>
  <line stroke="#666666" id="svg_135" y2="234" x2="670" y1="234" x1="670" stroke-linecap="null" stroke-linejoin="null" stroke-dasharray="null" stroke-width="2" fill="none"/>
 </g>
</svg>