<?xml version="1.0" encoding="UTF-8" standalone="no"?>
<!-- Created with Inkscape (http://www.inkscape.org/) -->

<svg
   xmlns:ns0="http://www.iki.fi/pav/software/textext/"
   xmlns:dc="http://purl.org/dc/elements/1.1/"
   xmlns:cc="http://creativecommons.org/ns#"
   xmlns:rdf="http://www.w3.org/1999/02/22-rdf-syntax-ns#"
   xmlns:svg="http://www.w3.org/2000/svg"
   xmlns="http://www.w3.org/2000/svg"
   xmlns:sodipodi="http://sodipodi.sourceforge.net/DTD/sodipodi-0.dtd"
   xmlns:inkscape="http://www.inkscape.org/namespaces/inkscape"
   width="453.79822"
   height="183.79785"
   id="svg2"
   version="1.1"
   inkscape:version="0.48.3.1 r9886"
   sodipodi:docname="New document 1">
  <sodipodi:namedview
     id="base"
     pagecolor="#ffffff"
     bordercolor="#666666"
     borderopacity="1.0"
     inkscape:pageopacity="0.0"
     inkscape:pageshadow="2"
     inkscape:zoom="0.35"
     inkscape:cx="197.88941"
     inkscape:cy="-134.32357"
     inkscape:document-units="px"
     inkscape:current-layer="layer1"
     showgrid="false"
     inkscape:window-width="770"
     inkscape:window-height="605"
     inkscape:window-x="65"
     inkscape:window-y="24"
     inkscape:window-maximized="0"
     fit-margin-top="0"
     fit-margin-left="0"
     fit-margin-right="0"
     fit-margin-bottom="0"
     showborder="false"
     inkscape:showpageshadow="false" />
  <defs
     id="defs4" />
  <metadata
     id="metadata7">
    <rdf:RDF>
      <cc:Work
         rdf:about="">
        <dc:format>image/svg+xml</dc:format>
        <dc:type
           rdf:resource="http://purl.org/dc/dcmitype/StillImage" />
        <dc:title></dc:title>
      </cc:Work>
    </rdf:RDF>
  </metadata>
  <g
     inkscape:label="Layer 1"
     inkscape:groupmode="layer"
     id="layer1"
     transform="translate(-127.11059,-214.24076)">
    <rect
       style="fill:none;stroke:none"
       id="rect2985"
       width="680"
       height="411.42856"
       x="40"
       y="75.219322" />
    <g
       style="font-style:normal;font-variant:normal;font-weight:normal;font-stretch:normal;letter-spacing:normal;word-spacing:normal;text-anchor:start;fill:none;stroke:#000000;stroke-linecap:butt;stroke-linejoin:miter;stroke-miterlimit:10.43299961;stroke-opacity:1;stroke-dasharray:none;stroke-dashoffset:0"
       ns0:preamble="/home/abhinavc/playpen/textext/preamble.ini"
       ns0:text="Dear God, \n\nMy prayer for 2016 is a \\textsc{fat} bank account and a \\textsc{thin} body. \nPlease don\'t mix it up like you did last year. \n\n"
       word-spacing="normal"
       letter-spacing="normal"
       font-size-adjust="none"
       font-stretch="normal"
       font-weight="normal"
       font-variant="normal"
       font-style="normal"
       stroke-miterlimit="10.433"
       xml:space="preserve"
       transform="matrix(3.2262925,0,0,-3.2262925,-924.25748,1942.4245)"
       id="content">
<path
   id="path4062"
   d="m 326.09,535.49 v -6.89 h 2.62 c 1.69,0 3.04,1.51 3.04,3.38 0,1.93 -1.34,3.51 -3.05,3.51 l -0.23,-0.56 c 1.39,0 2.42,-1.2 2.42,-2.95 0,-1.68 -1.03,-2.83 -2.42,-2.83 h -1.52 v 5.78 h 1.52 l 0.23,0.56 z"
   inkscape:connector-curvature="0"
   style="fill:#000000;stroke-width:0" />
<path
   id="path4064"
   d="m 336.45,530.77 0,0.03 0,0.04 0,0.04 0,0.04 0,0.04 -0.01,0.04 0,0.05 0,0.04 0,0.05 -0.01,0.05 0,0.05 -0.01,0.05 0,0.06 -0.01,0.05 -0.01,0.06 -0.01,0.05 -0.01,0.06 -0.01,0.06 -0.01,0.06 -0.01,0.06 -0.02,0.06 -0.02,0.06 -0.01,0.06 -0.02,0.05 -0.03,0.06 -0.02,0.06 -0.02,0.06 -0.03,0.06 -0.03,0.06 -0.03,0.06 -0.03,0.05 -0.04,0.06 c -0.41,0.62 -1.01,0.73 -1.37,0.73 -1.11,0 -2,-1.06 -2,-2.34 0,-1.31 0.95,-2.35 2.15,-2.35 0.62,0 1.19,0.24 1.58,0.51 l -0.06,0.65 c -0.63,-0.52 -1.28,-0.56 -1.51,-0.56 -0.8,0 -1.44,0.71 -1.47,1.68 l 0.05,0.55 c 0.16,0.75 0.69,1.25 1.26,1.25 0.51,0 1.07,-0.34 1.2,-1.25 h -2.46 l -0.05,-0.55 z"
   inkscape:connector-curvature="0"
   style="fill:#000000;stroke-width:0" />
<path
   id="path4066"
   d="m 340.73,531.47 -0.01,0.09 0,0.09 -0.01,0.09 -0.02,0.09 -0.02,0.09 -0.02,0.08 -0.02,0.08 -0.03,0.08 -0.03,0.08 -0.04,0.07 -0.04,0.07 -0.04,0.07 -0.05,0.07 -0.05,0.06 -0.05,0.06 -0.05,0.06 -0.06,0.06 -0.06,0.05 -0.06,0.05 -0.06,0.04 -0.07,0.05 -0.07,0.03 -0.07,0.04 -0.07,0.03 -0.08,0.03 -0.07,0.03 -0.08,0.02 -0.08,0.02 -0.08,0.01 -0.09,0.01 -0.08,0 -0.09,0.01 c -0.64,0 -1.09,-0.16 -1.56,-0.43 l 0.06,-0.66 c 0.52,0.37 1.02,0.5 1.5,0.5 0.47,0 0.87,-0.4 0.87,-1.13 v -0.43 c -1.49,-0.02 -2.76,-0.44 -2.76,-1.31 0,-0.43 0.27,-1.23 1.14,-1.23 0.14,0 1.07,0.02 1.65,0.47 l -0.37,0.32 c -0.29,-0.18 -0.66,-0.19 -0.77,-0.19 -0.48,0 -0.93,0.23 -0.93,0.65 0,0.69 1.61,0.76 2.04,0.78 v -0.61 c 0,-0.19 0,-0.44 -0.34,-0.63 l 0.37,-0.32 v -0.36 h 0.75 z"
   inkscape:connector-curvature="0"
   style="fill:#000000;stroke-width:0" />
<path
   id="path4068"
   d="m 342.83,530.72 0,0.1 0.01,0.09 0.01,0.08 0.01,0.09 0.02,0.09 0.02,0.08 0.03,0.08 0.02,0.08 0.04,0.08 0.03,0.07 0.04,0.07 0.05,0.07 0.04,0.07 0.05,0.06 0.05,0.06 0.06,0.06 0.06,0.06 0.06,0.05 0.06,0.05 0.07,0.05 0.06,0.04 0.07,0.04 0.08,0.04 0.07,0.03 0.08,0.03 0.08,0.03 0.08,0.02 0.09,0.02 0.08,0.02 0.09,0.01 0.09,0.01 0.09,0 v 0.67 c -0.89,-0.01 -1.43,-0.5 -1.74,-0.96 v 0.91 h -0.7 v -4.47 h 0.75 z"
   inkscape:connector-curvature="0"
   style="fill:#000000;stroke-width:0" />
<path
   id="path4070"
   d="m 353.97,531.57 h -2.1 v -0.62 h 1.31 v -1.62 c -0.4,-0.14 -0.88,-0.21 -1.3,-0.21 -1.32,0 -2.33,1.33 -2.33,2.93 0,1.56 0.99,2.92 2.31,2.92 0.8,0 1.37,-0.24 1.88,-0.66 l 0.14,0.81 c -0.56,0.35 -1.34,0.49 -1.99,0.49 -1.92,0 -3.24,-1.74 -3.24,-3.56 0,-1.8 1.33,-3.56 3.24,-3.56 0.73,0 1.41,0.2 2.08,0.48 z"
   inkscape:connector-curvature="0"
   style="fill:#000000;stroke-width:0" />
<path
   id="path4072"
   d="m 359.3,530.78 0,0.13 -0.01,0.12 -0.01,0.12 -0.02,0.12 -0.02,0.11 -0.03,0.12 -0.04,0.11 -0.04,0.11 -0.04,0.1 -0.05,0.11 -0.05,0.1 -0.06,0.1 -0.06,0.09 -0.07,0.09 -0.07,0.09 -0.07,0.08 -0.08,0.08 -0.08,0.07 -0.08,0.07 -0.08,0.07 -0.09,0.06 -0.09,0.06 -0.1,0.05 -0.09,0.05 -0.1,0.04 -0.1,0.04 -0.11,0.03 -0.1,0.03 -0.11,0.02 -0.1,0.01 -0.11,0.01 -0.11,0.01 -0.01,-0.61 c 0.69,0 1.41,-0.52 1.41,-1.69 0,-1.17 -0.68,-1.76 -1.41,-1.76 h 0 c -0.69,0 -1.41,0.56 -1.41,1.76 0,1.2 0.76,1.69 1.41,1.69 l 0.01,0.61 c -1.23,0 -2.19,-1.1 -2.19,-2.4 0,-1.31 1.01,-2.29 2.18,-2.29 1.19,0 2.18,1 2.18,2.29 z"
   inkscape:connector-curvature="0"
   style="fill:#000000;stroke-width:0" />
<path
   id="path4074"
   d="m 364.21,535.49 h -0.75 v -2.92 c -0.53,0.44 -1.08,0.55 -1.45,0.55 -0.99,0 -1.76,-1.04 -1.76,-2.32 0,-1.3 0.76,-2.31 1.71,-2.31 0.33,0 0.91,0.09 1.47,0.62 l -0.33,0.26 c -0.23,-0.2 -0.48,-0.28 -0.73,-0.28 -0.62,0 -1.35,0.47 -1.35,1.7 0,1.31 0.86,1.72 1.45,1.72 0.44,0 0.74,-0.23 0.96,-0.54 v -1.99 c 0,-0.14 -0.01,-0.32 -0.33,-0.61 l 0.33,-0.26 v -0.51 h 0.78 z"
   inkscape:connector-curvature="0"
   style="fill:#000000;stroke-width:0" />
<polygon
   id="polygon4076"
   points="366,528.6 366.25,528.6 366,527.35 366.41,527.35 366.83,528.61 366.83,529.42 366,529.42 "
   style="fill:#000000;stroke-width:0" />
<path
   id="path4078"
   d="m 345.35,520.17 -0.07,-0.18 -0.06,-0.18 -0.07,-0.18 -0.08,-0.19 -0.07,-0.18 -0.07,-0.19 -0.06,-0.19 -0.07,-0.18 -0.06,-0.17 -0.04,-0.09 -0.03,-0.08 -0.02,-0.09 -0.03,-0.08 -0.03,-0.07 -0.02,-0.08 -0.03,-0.07 -0.02,-0.07 -0.02,-0.06 -0.02,-0.07 -0.01,-0.05 -0.02,-0.06 -0.01,-0.05 -0.01,-0.04 h -0.01 c -0.05,0.2 -0.17,0.57 -0.32,0.99 l -1.56,4.11 -0.34,0.86 h -1.13 v -6.89 h 0.78 v 6.16 h 0.01 c 0.06,-0.32 0.46,-1.4 0.72,-2.08 l 1.47,-3.86 h 0.72 l 1.33,3.46 c 0.32,0.81 0.41,1.06 0.48,1.26 0.09,0.29 0.36,1 0.41,1.23 L 347,522.8 v -6.16 h 0.78 v 6.89 h -1.14 z"
   inkscape:connector-curvature="0"
   style="fill:#000000;stroke-width:0" />
<path
   id="path4080"
   d="m 353.23,521.05 h -0.74 c -1.3,-3.16 -1.32,-3.61 -1.33,-3.84 h -0.01 c -0.06,0.66 -0.85,2.51 -0.89,2.6 l -0.54,1.24 h -0.79 l 1.93,-4.41 c -0.12,-0.31 -0.31,-0.8 -0.35,-0.89 -0.26,-0.58 -0.43,-0.58 -0.57,-0.58 -0.16,0 -0.48,0.04 -0.78,0.16 l 0.06,-0.65 c 0.22,-0.05 0.5,-0.08 0.72,-0.08 0.35,0 0.72,0.12 1.12,1.14 z"
   inkscape:connector-curvature="0"
   style="fill:#000000;stroke-width:0" />
<path
   id="path4082"
   d="m 360.09,517.1 0.1,0.5 c -0.1,0.15 -0.1,0.17 -0.1,0.35 v 2 c 0.24,0.35 0.63,0.58 1.06,0.58 0.75,0 1.35,-0.76 1.35,-1.67 0,-1.03 -0.71,-1.72 -1.45,-1.72 -0.39,0 -0.66,0.2 -0.86,0.46 l -0.1,-0.5 c 0.31,-0.29 0.75,-0.57 1.34,-0.57 0.97,0 1.84,0.98 1.84,2.33 0,1.19 -0.62,2.3 -1.58,2.3 -0.59,0 -1.17,-0.21 -1.63,-0.59 v 0.48 h -0.74 v -6.34 h 0.77 z"
   inkscape:connector-curvature="0"
   style="fill:#000000;stroke-width:0" />
<path
   id="path4084"
   d="m 364.94,518.77 0,0.09 0.01,0.09 0.01,0.09 0.01,0.09 0.02,0.08 0.02,0.08 0.03,0.08 0.03,0.08 0.03,0.08 0.04,0.07 0.04,0.08 0.04,0.06 0.04,0.07 0.05,0.07 0.06,0.06 0.05,0.06 0.06,0.05 0.06,0.05 0.06,0.05 0.07,0.05 0.07,0.04 0.07,0.05 0.07,0.03 0.08,0.04 0.07,0.03 0.08,0.02 0.09,0.03 0.08,0.02 0.08,0.01 0.09,0.01 0.09,0.01 0.09,0 v 0.67 c -0.88,-0.01 -1.43,-0.5 -1.74,-0.95 v 0.9 h -0.7 v -4.47 h 0.75 z"
   inkscape:connector-curvature="0"
   style="fill:#000000;stroke-width:0" />
<path
   id="path4086"
   d="m 370.75,519.51 0,0.1 -0.01,0.09 -0.01,0.09 -0.01,0.09 -0.02,0.08 -0.02,0.09 -0.03,0.08 -0.03,0.08 -0.03,0.07 -0.03,0.08 -0.04,0.07 -0.05,0.07 -0.04,0.06 -0.05,0.07 -0.05,0.06 -0.06,0.06 -0.05,0.05 -0.06,0.05 -0.06,0.05 -0.07,0.05 -0.06,0.04 -0.07,0.04 -0.07,0.03 -0.08,0.04 -0.07,0.03 -0.08,0.02 -0.08,0.02 -0.08,0.02 -0.08,0.01 -0.08,0.01 -0.08,0.01 -0.09,0 c -0.65,0 -1.09,-0.16 -1.56,-0.43 l 0.06,-0.65 c 0.52,0.37 1.01,0.49 1.5,0.49 0.47,0 0.87,-0.39 0.87,-1.13 v -0.42 c -1.5,-0.03 -2.76,-0.44 -2.76,-1.32 0,-0.42 0.27,-1.23 1.14,-1.23 0.13,0 1.07,0.02 1.65,0.47 l -0.37,0.33 c -0.29,-0.18 -0.67,-0.19 -0.78,-0.19 -0.47,0 -0.92,0.23 -0.92,0.64 0,0.7 1.61,0.77 2.04,0.79 v -0.62 c 0,-0.19 0,-0.43 -0.34,-0.62 l 0.37,-0.33 v -0.36 h 0.74 z"
   inkscape:connector-curvature="0"
   style="fill:#000000;stroke-width:0" />
<path
   id="path4088"
   d="m 375.73,521.05 h -0.75 c -1.29,-3.16 -1.31,-3.61 -1.32,-3.84 h -0.01 c -0.06,0.66 -0.86,2.51 -0.9,2.6 l -0.53,1.24 h -0.79 l 1.93,-4.41 c -0.12,-0.31 -0.32,-0.8 -0.36,-0.89 -0.26,-0.58 -0.42,-0.58 -0.56,-0.58 -0.16,0 -0.48,0.04 -0.78,0.16 l 0.06,-0.65 c 0.22,-0.05 0.5,-0.08 0.72,-0.08 0.34,0 0.71,0.12 1.12,1.14 z"
   inkscape:connector-curvature="0"
   style="fill:#000000;stroke-width:0" />
<path
   id="path4090"
   d="m 379.73,518.82 0,0.03 0,0.03 0,0.04 -0.01,0.04 0,0.04 0,0.05 0,0.04 0,0.05 0,0.05 -0.01,0.05 0,0.05 -0.01,0.05 0,0.05 -0.01,0.06 -0.01,0.05 -0.01,0.06 -0.01,0.06 -0.01,0.05 -0.01,0.06 -0.02,0.06 -0.01,0.06 -0.02,0.06 -0.02,0.06 -0.02,0.06 -0.02,0.06 -0.02,0.06 -0.03,0.06 -0.02,0.06 -0.03,0.05 -0.03,0.06 -0.04,0.06 -0.03,0.05 c -0.41,0.62 -1.02,0.73 -1.38,0.73 -1.1,0 -2,-1.05 -2,-2.33 0,-1.31 0.96,-2.36 2.15,-2.36 0.63,0 1.2,0.24 1.59,0.52 l -0.06,0.64 c -0.63,-0.51 -1.29,-0.55 -1.52,-0.55 -0.79,0 -1.43,0.7 -1.46,1.68 l 0.05,0.54 c 0.16,0.76 0.69,1.25 1.25,1.25 0.52,0 1.08,-0.33 1.21,-1.25 h -2.46 l -0.05,-0.54 z"
   inkscape:connector-curvature="0"
   style="fill:#000000;stroke-width:0" />
<path
   id="path4092"
   d="m 381.6,518.77 0,0.09 0,0.09 0.01,0.09 0.02,0.09 0.02,0.08 0.02,0.08 0.02,0.08 0.03,0.08 0.04,0.08 0.03,0.07 0.04,0.08 0.04,0.06 0.05,0.07 0.05,0.07 0.05,0.06 0.06,0.06 0.05,0.05 0.06,0.05 0.07,0.05 0.06,0.05 0.07,0.04 0.07,0.05 0.08,0.03 0.07,0.04 0.08,0.03 0.08,0.02 0.08,0.03 0.08,0.02 0.09,0.01 0.09,0.01 0.09,0.01 0.09,0 v 0.67 c -0.89,-0.01 -1.43,-0.5 -1.74,-0.95 v 0.9 h -0.7 v -4.47 h 0.75 z"
   inkscape:connector-curvature="0"
   style="fill:#000000;stroke-width:0" />
<path
   id="path4094"
   d="m 390.31,520.47 h 1.09 v 0.58 h -1.12 v 1.18 c 0,0.74 0.67,0.81 0.92,0.81 0.2,0 0.47,-0.02 0.81,-0.17 v 0.66 c -0.12,0.04 -0.43,0.11 -0.8,0.11 -0.93,0 -1.65,-0.7 -1.65,-1.69 v -0.9 h -0.73 v -0.58 h 0.73 v -3.83 h 0.75 z"
   inkscape:connector-curvature="0"
   style="fill:#000000;stroke-width:0" />
<path
   id="path4096"
   d="m 396.26,518.83 0,0.12 -0.01,0.12 -0.02,0.12 -0.02,0.12 -0.02,0.12 -0.03,0.11 -0.03,0.11 -0.04,0.11 -0.05,0.11 -0.05,0.1 -0.05,0.1 -0.06,0.1 -0.06,0.09 -0.06,0.09 -0.07,0.09 -0.08,0.08 -0.07,0.08 -0.08,0.08 -0.08,0.07 -0.09,0.06 -0.09,0.07 -0.09,0.05 -0.09,0.06 -0.1,0.04 -0.1,0.05 -0.1,0.03 -0.1,0.04 -0.11,0.02 -0.1,0.02 -0.11,0.02 -0.11,0.01 -0.11,0 -0.01,-0.61 c 0.7,0 1.41,-0.51 1.41,-1.68 0,-1.18 -0.67,-1.76 -1.41,-1.76 h 0 c -0.69,0 -1.4,0.55 -1.4,1.76 0,1.2 0.75,1.68 1.4,1.68 l 0.01,0.61 c -1.22,0 -2.19,-1.09 -2.19,-2.39 0,-1.31 1.02,-2.3 2.18,-2.3 1.2,0 2.19,1 2.19,2.3 z"
   inkscape:connector-curvature="0"
   style="fill:#000000;stroke-width:0" />
<path
   id="path4098"
   d="m 397.87,518.77 0,0.09 0.01,0.09 0.01,0.09 0.01,0.09 0.02,0.08 0.02,0.08 0.03,0.08 0.03,0.08 0.03,0.08 0.03,0.07 0.04,0.08 0.05,0.06 0.04,0.07 0.05,0.07 0.05,0.06 0.06,0.06 0.06,0.05 0.06,0.05 0.06,0.05 0.07,0.05 0.06,0.04 0.07,0.05 0.08,0.03 0.07,0.04 0.08,0.03 0.08,0.02 0.08,0.03 0.09,0.02 0.08,0.01 0.09,0.01 0.09,0.01 0.09,0 v 0.67 c -0.89,-0.01 -1.43,-0.5 -1.74,-0.95 v 0.9 h -0.7 v -4.47 h 0.75 z"
   inkscape:connector-curvature="0"
   style="fill:#000000;stroke-width:0" />
<path
   id="path4100"
   d="m 406.55,518.51 -1.23,-1.23 v -0.64 h 3.97 v 0.71 h -1.81 c -0.12,0 -0.24,-0.01 -0.36,-0.01 h -1.08 c 0.31,0.27 1.07,1.02 1.38,1.31 0.19,0.18 0.69,0.59 0.88,0.77 0.45,0.45 0.99,0.98 0.99,1.82 0,1.14 -0.81,2.14 -2.12,2.14 -1.13,0 -1.69,-0.78 -1.93,-1.63 0.12,-0.17 0.17,-0.23 0.19,-0.26 0.02,-0.02 0.12,-0.15 0.22,-0.29 0.2,0.77 0.47,1.54 1.38,1.54 0.93,0 1.44,-0.75 1.44,-1.52 0,-0.84 -0.57,-1.41 -1.15,-2.01 z"
   inkscape:connector-curvature="0"
   style="fill:#000000;stroke-width:0" />
<path
   id="path4102"
   d="m 414.35,519.88 0,0.15 0,0.15 -0.01,0.15 0,0.16 -0.01,0.16 -0.02,0.16 -0.01,0.16 -0.02,0.16 -0.03,0.16 -0.03,0.16 -0.04,0.16 -0.04,0.16 -0.05,0.16 -0.03,0.08 -0.03,0.08 -0.03,0.07 -0.03,0.08 -0.04,0.08 -0.04,0.07 c -0.41,0.75 -1.09,0.99 -1.6,0.99 l -0.01,-0.61 c 0.77,0 1.03,-0.75 1.1,-0.93 0.19,-0.56 0.19,-1.23 0.19,-1.84 0,-0.66 0,-1.28 -0.18,-1.91 -0.25,-0.9 -0.78,-1.06 -1.1,-1.06 h 0 c -0.52,0 -0.93,0.38 -1.12,1.09 -0.16,0.57 -0.17,1.1 -0.17,1.88 0,0.62 0,1.22 0.17,1.77 0.06,0.19 0.3,1 1.11,1 l 0.01,0.61 c -0.59,0 -1.28,-0.27 -1.69,-1.16 -0.33,-0.72 -0.38,-1.55 -0.38,-2.34 0,-0.79 0.04,-1.51 0.34,-2.24 0.4,-0.95 1.15,-1.22 1.72,-1.22 0.73,0 1.35,0.41 1.67,1.1 0.3,0.64 0.4,1.3 0.4,2.36 z"
   inkscape:connector-curvature="0"
   style="fill:#000000;stroke-width:0" />
<path
   id="path4104"
   d="m 417.76,523.38 h -0.2 c -0.59,-0.61 -1.41,-0.64 -1.89,-0.66 v -0.58 c 0.33,0.01 0.81,0.03 1.3,0.24 v -5.16 h -1.24 v -0.58 H 419 v 0.58 h -1.24 z"
   inkscape:connector-curvature="0"
   style="fill:#000000;stroke-width:0" />
<path
   id="path4106"
   d="m 423.89,523.18 -0.04,0.02 -0.05,0.01 -0.05,0.02 -0.04,0.01 -0.05,0.02 -0.04,0.01 -0.04,0.01 -0.05,0.01 -0.04,0.01 -0.04,0.01 -0.04,0.01 -0.04,0.01 -0.03,0 -0.04,0.01 -0.04,0.01 -0.03,0 -0.04,0.01 -0.03,0 -0.03,0 -0.03,0.01 -0.03,0 -0.03,0 -0.02,0 -0.03,0 -0.02,0 -0.03,0 -0.02,0.01 -0.02,0 -0.01,0 -0.02,0 -0.02,0 -0.01,0 c -1.4,0 -2.66,-1.41 -2.66,-3.54 0,-2.81 1.24,-3.42 2.08,-3.42 v 0.61 c -1.05,0 -1.2,1.46 -1.23,1.79 h 0 c 0,0.14 0,0.15 0.01,0.27 0,0.74 0.45,1.53 1.27,1.53 0.48,0 0.76,-0.24 0.96,-0.61 0.21,-0.37 0.23,-0.72 0.23,-1.16 0,-0.34 0,-0.8 -0.24,-1.21 -0.17,-0.27 -0.43,-0.61 -1,-0.61 v -0.61 c 0.6,0 1.03,0.23 1.41,0.68 0.45,0.5 0.64,0.96 0.64,1.75 0,1.27 -0.66,2.38 -1.61,2.38 -0.32,0 -1.08,-0.08 -1.68,-0.82 0.13,1.6 0.91,2.39 1.83,2.39 0.38,0 0.7,-0.07 1.04,-0.21 z"
   inkscape:connector-curvature="0"
   style="fill:#000000;stroke-width:0" />
<polygon
   id="polygon4108"
   points="431.49,522.51 431.49,523.4 430.6,523.4 430.6,522.51 "
   style="fill:#000000;stroke-width:0" />
<polygon
   id="polygon4110"
   points="431.42,516.64 431.42,521.05 430.67,521.05 430.67,516.64 "
   style="fill:#000000;stroke-width:0" />
<path
   id="path4112"
   d="m 435.66,520.9 -0.05,0.02 -0.05,0.03 -0.09,0.04 -0.09,0.03 -0.09,0.03 -0.09,0.03 -0.09,0.03 -0.08,0.02 -0.09,0.02 -0.09,0.02 -0.08,0.01 -0.09,0.02 -0.09,0 -0.09,0.01 -0.09,0.01 -0.09,0 -0.09,0 c -0.25,0 -1.65,0 -1.65,-1.3 0,-0.49 0.28,-0.81 0.53,-0.99 0.31,-0.22 0.53,-0.26 1.08,-0.37 0.36,-0.07 0.93,-0.19 0.93,-0.72 0,-0.68 -0.78,-0.68 -0.93,-0.68 -0.81,0 -1.37,0.37 -1.55,0.48 l -0.12,-0.67 c 0.32,-0.16 0.87,-0.44 1.68,-0.44 0.18,0 0.72,0 1.15,0.32 0.31,0.24 0.48,0.63 0.48,1.06 0,0.55 -0.37,0.89 -0.39,0.92 -0.39,0.34 -0.66,0.4 -1.15,0.49 -0.55,0.11 -1.01,0.21 -1.01,0.7 0,0.61 0.72,0.61 0.85,0.61 0.32,0 0.84,-0.04 1.41,-0.37 z"
   inkscape:connector-curvature="0"
   style="fill:#000000;stroke-width:0" />
<path
   id="path4114"
   d="m 445.15,519.51 -0.01,0.1 0,0.09 -0.01,0.09 -0.02,0.09 -0.02,0.08 -0.02,0.09 -0.02,0.08 -0.03,0.08 -0.03,0.07 -0.04,0.08 -0.04,0.07 -0.04,0.07 -0.05,0.06 -0.05,0.07 -0.05,0.06 -0.05,0.06 -0.06,0.05 -0.06,0.05 -0.06,0.05 -0.06,0.05 -0.07,0.04 -0.07,0.04 -0.07,0.03 -0.07,0.04 -0.08,0.03 -0.07,0.02 -0.08,0.02 -0.08,0.02 -0.08,0.01 -0.09,0.01 -0.08,0.01 -0.09,0 c -0.64,0 -1.09,-0.16 -1.56,-0.43 l 0.06,-0.65 c 0.52,0.37 1.02,0.49 1.5,0.49 0.47,0 0.87,-0.39 0.87,-1.13 v -0.42 c -1.49,-0.03 -2.76,-0.44 -2.76,-1.32 0,-0.42 0.27,-1.23 1.14,-1.23 0.14,0 1.07,0.02 1.65,0.47 l -0.37,0.33 c -0.29,-0.18 -0.67,-0.19 -0.77,-0.19 -0.48,0 -0.93,0.23 -0.93,0.64 0,0.7 1.61,0.77 2.04,0.79 v -0.62 c 0,-0.19 0,-0.43 -0.34,-0.62 L 444.4,517 v -0.36 h 0.75 z"
   inkscape:connector-curvature="0"
   style="fill:#000000;stroke-width:0" />
<path
   id="path4116"
   d="m 455.83,521.72 h -4.32 v -0.25 c 0.66,0 0.72,-0.06 0.72,-0.47 v -3.64 c 0,-0.41 -0.06,-0.47 -0.72,-0.47 v -0.25 c 0.33,0.01 0.85,0.03 1.1,0.03 0.32,0 0.94,-0.02 1.23,-0.03 v 0.25 c -0.75,0 -0.9,0 -0.9,0.5 v 1.66 h 0.67 c 0.73,0 0.84,-0.2 0.84,-0.86 h 0.25 v 1.98 h -0.25 c 0,-0.66 -0.11,-0.87 -0.84,-0.87 h -0.67 v 1.74 c 0,0.4 0.05,0.43 0.4,0.43 h 0.95 c 1.09,0 1.38,-0.32 1.48,-1.43 h 0.25 z"
   inkscape:connector-curvature="0"
   style="fill:#000000;stroke-width:0" />
<path
   id="path4118"
   d="m 458.8,521.7 0,0.01 -0.01,0.02 0,0.01 -0.01,0.01 0,0.01 -0.01,0.02 0,0.01 -0.01,0.01 -0.01,0.01 0,0.01 -0.01,0.01 0,0.01 -0.01,0 0,0.01 -0.01,0.01 -0.01,0.01 0,0 -0.01,0.01 -0.01,0 0,0.01 -0.01,0 -0.01,0.01 -0.01,0 0,0 -0.01,0.01 -0.01,0 -0.01,0 -0.01,0 -0.01,0 -0.01,0.01 0,0 -0.02,0 c -0.13,0 -0.15,-0.06 -0.2,-0.19 l -1.61,-4.11 c -0.1,-0.26 -0.28,-0.71 -0.9,-0.73 v -0.25 c 0.22,0.02 0.51,0.03 0.73,0.03 0.16,0 0.62,-0.02 0.82,-0.03 v 0.25 c -0.42,0.02 -0.45,0.36 -0.45,0.45 0,0.08 0,0.1 0.34,0.98 h 2.06 l -0.1,0.25 h -1.86 l 0.94,2.39 0.92,-2.39 0.1,-0.25 0.22,-0.56 c 0.08,-0.19 0.21,-0.53 0.21,-0.59 0,-0.28 -0.36,-0.28 -0.53,-0.28 v -0.25 c 0.27,0.01 0.86,0.03 1.06,0.03 0.33,0 0.72,-0.02 0.96,-0.03 v 0.25 c -0.56,0 -0.65,0.05 -0.77,0.4 z"
   inkscape:connector-curvature="0"
   style="fill:#000000;stroke-width:0" />
<path
   id="path4120"
   d="m 466.36,521.69 h -4.89 l -0.14,-1.68 h 0.25 c 0.09,1.25 0.29,1.43 1.39,1.43 0.56,0 0.59,0 0.59,-0.43 v -3.61 c 0,-0.4 -0.04,-0.51 -0.81,-0.51 h -0.2 v -0.25 c 0.38,0.03 0.97,0.03 1.37,0.03 0.4,0 0.98,0 1.37,-0.03 v 0.25 h -0.21 c -0.76,0 -0.8,0.11 -0.8,0.51 v 3.61 c 0,0.43 0.03,0.43 0.58,0.43 1.08,0 1.3,-0.17 1.39,-1.43 h 0.24 z"
   inkscape:connector-curvature="0"
   style="fill:#000000;stroke-width:0" />
<path
   id="path4122"
   d="m 326.7,511.58 h -0.75 v -6.89 h 0.78 v 0.45 c 0.23,-0.22 0.66,-0.56 1.33,-0.56 0.99,0 1.85,0.99 1.85,2.32 0,1.23 -0.68,2.31 -1.61,2.31 -0.39,0 -1.01,-0.1 -1.6,-0.59 l 0.03,-0.61 c 0.16,0.24 0.51,0.59 1.06,0.59 0.59,0 1.34,-0.43 1.34,-1.7 0,-1.29 -0.83,-1.72 -1.44,-1.72 -0.39,0 -0.71,0.18 -0.96,0.64 v 2.19 l -0.03,0.61 z"
   inkscape:connector-curvature="0"
   style="fill:#000000;stroke-width:0" />
<path
   id="path4124"
   d="m 334.25,507.56 0,0.09 -0.01,0.09 -0.01,0.09 -0.01,0.09 -0.02,0.09 -0.02,0.08 -0.03,0.08 -0.03,0.08 -0.03,0.08 -0.04,0.07 -0.03,0.07 -0.05,0.07 -0.04,0.07 -0.05,0.06 -0.05,0.06 -0.06,0.06 -0.05,0.06 -0.06,0.05 -0.06,0.05 -0.07,0.04 -0.07,0.04 -0.06,0.04 -0.07,0.04 -0.08,0.03 -0.07,0.03 -0.08,0.03 -0.08,0.02 -0.08,0.01 -0.08,0.02 -0.08,0.01 -0.08,0 -0.09,0.01 c -0.65,0 -1.09,-0.16 -1.56,-0.43 l 0.06,-0.66 c 0.51,0.37 1.01,0.5 1.5,0.5 0.47,0 0.87,-0.4 0.87,-1.13 v -0.43 c -1.5,-0.02 -2.76,-0.44 -2.76,-1.31 0,-0.43 0.27,-1.23 1.13,-1.23 0.14,0 1.08,0.02 1.66,0.46 l -0.37,0.33 c -0.29,-0.18 -0.67,-0.19 -0.78,-0.19 -0.48,0 -0.92,0.23 -0.92,0.65 0,0.69 1.61,0.76 2.04,0.78 V 506 c 0,-0.19 0,-0.44 -0.34,-0.63 l 0.37,-0.33 v -0.35 h 0.74 z"
   inkscape:connector-curvature="0"
   style="fill:#000000;stroke-width:0" />
<path
   id="path4126"
   d="m 339.4,507.65 0,0.06 0,0.06 -0.01,0.07 0,0.06 -0.01,0.07 0,0.06 -0.01,0.07 -0.01,0.07 -0.02,0.06 -0.01,0.07 -0.02,0.06 -0.02,0.07 -0.03,0.06 -0.02,0.06 -0.03,0.06 -0.04,0.06 -0.04,0.06 -0.04,0.05 -0.04,0.06 -0.05,0.05 -0.05,0.04 -0.06,0.05 -0.06,0.04 -0.07,0.03 -0.04,0.02 -0.03,0.02 -0.04,0.01 -0.04,0.02 -0.04,0.01 -0.04,0.01 -0.04,0.02 -0.05,0.01 -0.04,0.01 -0.05,0 -0.05,0.01 -0.05,0.01 -0.05,0 -0.05,0 -0.06,0.01 -0.05,0 c -0.9,0 -1.39,-0.68 -1.45,-0.76 v 0.71 h -0.71 v -4.47 h 0.77 v 2.43 c 0,0.65 0.25,1.48 1.01,1.48 0.95,0 0.96,-0.71 0.96,-1.02 v -2.89 h 0.78 z"
   inkscape:connector-curvature="0"
   style="fill:#000000;stroke-width:0" />
<polygon
   id="polygon4128"
   points="341.77,507.03 341.77,511.58 341.05,511.58 341.05,504.69 341.74,504.69 341.74,506.09 342.54,506.91 344.09,504.69 344.9,504.69 343.01,507.39 344.68,509.1 343.79,509.1 "
   style="fill:#000000;stroke-width:0" />
<path
   id="path4130"
   d="m 354.24,507.56 0,0.09 -0.01,0.09 -0.01,0.09 -0.01,0.09 -0.02,0.09 -0.03,0.08 -0.02,0.08 -0.03,0.08 -0.03,0.08 -0.04,0.07 -0.04,0.07 -0.04,0.07 -0.05,0.07 -0.04,0.06 -0.06,0.06 -0.05,0.06 -0.06,0.06 -0.06,0.05 -0.06,0.05 -0.06,0.04 -0.07,0.04 -0.07,0.04 -0.07,0.04 -0.07,0.03 -0.08,0.03 -0.07,0.03 -0.08,0.02 -0.08,0.01 -0.08,0.02 -0.08,0.01 -0.09,0 -0.08,0.01 c -0.65,0 -1.1,-0.16 -1.56,-0.43 l 0.05,-0.66 c 0.52,0.37 1.02,0.5 1.51,0.5 0.46,0 0.86,-0.4 0.86,-1.13 v -0.43 c -1.49,-0.02 -2.75,-0.44 -2.75,-1.31 0,-0.43 0.27,-1.23 1.13,-1.23 0.14,0 1.08,0.02 1.65,0.46 l -0.37,0.33 c -0.29,-0.18 -0.66,-0.19 -0.77,-0.19 -0.48,0 -0.93,0.23 -0.93,0.65 0,0.69 1.61,0.76 2.04,0.78 V 506 c 0,-0.19 0,-0.44 -0.34,-0.63 l 0.37,-0.33 v -0.35 h 0.75 z"
   inkscape:connector-curvature="0"
   style="fill:#000000;stroke-width:0" />
<path
   id="path4132"
   d="m 359.14,508.84 -0.06,0.03 -0.05,0.03 -0.05,0.03 -0.05,0.02 -0.05,0.03 -0.05,0.02 -0.05,0.03 -0.05,0.02 -0.04,0.02 -0.05,0.02 -0.04,0.02 -0.05,0.01 -0.08,0.03 -0.09,0.03 -0.09,0.02 -0.09,0.02 -0.09,0.01 -0.09,0.02 -0.05,0 -0.05,0.01 -0.05,0 -0.05,0 -0.05,0 -0.06,0 -0.05,0.01 -0.06,0 c -1.38,0 -2.18,-1.21 -2.18,-2.38 0,-1.23 0.9,-2.31 2.14,-2.31 0.54,0 1.09,0.14 1.63,0.5 l -0.06,0.67 c -0.51,-0.4 -1.05,-0.54 -1.56,-0.54 -0.82,0 -1.38,0.72 -1.38,1.69 0,0.78 0.37,1.73 1.42,1.73 0.52,0 0.86,-0.08 1.41,-0.44 z"
   inkscape:connector-curvature="0"
   style="fill:#000000;stroke-width:0" />
<path
   id="path4134"
   d="m 363.56,508.84 -0.05,0.03 -0.05,0.03 -0.06,0.03 -0.05,0.02 -0.05,0.03 -0.04,0.02 -0.05,0.03 -0.05,0.02 -0.04,0.02 -0.05,0.02 -0.05,0.02 -0.04,0.01 -0.09,0.03 -0.09,0.03 -0.08,0.02 -0.09,0.02 -0.09,0.01 -0.1,0.02 -0.04,0 -0.05,0.01 -0.05,0 -0.05,0 -0.05,0 -0.06,0 -0.05,0.01 -0.06,0 c -1.38,0 -2.19,-1.21 -2.19,-2.38 0,-1.23 0.91,-2.31 2.15,-2.31 0.54,0 1.09,0.14 1.62,0.5 l -0.06,0.67 c -0.5,-0.4 -1.04,-0.54 -1.55,-0.54 -0.83,0 -1.38,0.72 -1.38,1.69 0,0.78 0.37,1.73 1.42,1.73 0.52,0 0.86,-0.08 1.4,-0.44 z"
   inkscape:connector-curvature="0"
   style="fill:#000000;stroke-width:0" />
<path
   id="path4136"
   d="m 368.58,506.87 0,0.13 -0.01,0.12 -0.02,0.12 -0.02,0.12 -0.02,0.11 -0.03,0.12 -0.04,0.11 -0.04,0.11 -0.04,0.1 -0.05,0.11 -0.05,0.1 -0.06,0.09 -0.06,0.1 -0.07,0.09 -0.06,0.09 -0.08,0.08 -0.07,0.08 -0.08,0.07 -0.09,0.07 -0.08,0.07 -0.09,0.06 -0.09,0.06 -0.09,0.05 -0.1,0.05 -0.1,0.04 -0.1,0.04 -0.1,0.03 -0.11,0.03 -0.1,0.02 -0.11,0.01 -0.11,0.01 -0.11,0.01 -0.01,-0.61 c 0.69,0 1.41,-0.52 1.41,-1.69 0,-1.17 -0.68,-1.76 -1.41,-1.76 h 0 c -0.69,0 -1.4,0.56 -1.4,1.76 0,1.2 0.75,1.69 1.4,1.69 l 0.01,0.61 c -1.23,0 -2.19,-1.1 -2.19,-2.4 0,-1.31 1.02,-2.29 2.18,-2.29 1.19,0 2.19,1 2.19,2.29 z"
   inkscape:connector-curvature="0"
   style="fill:#000000;stroke-width:0" />
<path
   id="path4138"
   d="m 373.22,509.1 h -0.77 v -2.88 c 0,-0.75 -0.56,-1.1 -1.2,-1.1 -0.71,0 -0.77,0.26 -0.77,0.69 v 3.29 h -0.78 v -3.33 c 0,-0.72 0.23,-1.19 1.05,-1.19 0.53,0 1.24,0.16 1.72,0.58 v -0.47 h 0.75 z"
   inkscape:connector-curvature="0"
   style="fill:#000000;stroke-width:0" />
<path
   id="path4140"
   d="m 378.37,507.65 0,0.06 0,0.06 -0.01,0.07 0,0.06 -0.01,0.07 0,0.06 -0.01,0.07 -0.01,0.07 -0.02,0.06 -0.01,0.07 -0.02,0.06 -0.02,0.07 -0.03,0.06 -0.02,0.06 -0.03,0.06 -0.04,0.06 -0.04,0.06 -0.04,0.05 -0.04,0.06 -0.05,0.05 -0.05,0.04 -0.06,0.05 -0.06,0.04 -0.07,0.03 -0.04,0.02 -0.03,0.02 -0.04,0.01 -0.04,0.02 -0.04,0.01 -0.04,0.01 -0.04,0.02 -0.05,0.01 -0.04,0.01 -0.05,0 -0.05,0.01 -0.05,0.01 -0.05,0 -0.05,0 -0.06,0.01 -0.05,0 c -0.9,0 -1.39,-0.68 -1.45,-0.76 v 0.71 h -0.71 v -4.47 h 0.77 v 2.43 c 0,0.65 0.25,1.48 1.01,1.48 0.95,0 0.96,-0.71 0.96,-1.02 v -2.89 h 0.78 z"
   inkscape:connector-curvature="0"
   style="fill:#000000;stroke-width:0" />
<path
   id="path4142"
   d="m 380.93,508.52 h 1.4 v 0.58 h -1.4 v 1.26 h -0.69 v -1.26 h -0.86 v -0.58 h 0.83 v -2.65 c 0,-0.6 0.14,-1.29 0.83,-1.29 0.69,0 1.2,0.25 1.45,0.37 l -0.16,0.59 c -0.26,-0.21 -0.57,-0.33 -0.89,-0.33 -0.37,0 -0.51,0.3 -0.51,0.83 z"
   inkscape:connector-curvature="0"
   style="fill:#000000;stroke-width:0" />
<path
   id="path4144"
   d="m 391.94,507.56 -0.01,0.09 0,0.09 -0.01,0.09 -0.02,0.09 -0.02,0.09 -0.02,0.08 -0.02,0.08 -0.03,0.08 -0.03,0.08 -0.04,0.07 -0.04,0.07 -0.04,0.07 -0.05,0.07 -0.05,0.06 -0.05,0.06 -0.05,0.06 -0.06,0.06 -0.06,0.05 -0.06,0.05 -0.06,0.04 -0.07,0.04 -0.07,0.04 -0.07,0.04 -0.07,0.03 -0.08,0.03 -0.07,0.03 -0.08,0.02 -0.08,0.01 -0.08,0.02 -0.09,0.01 -0.08,0 -0.09,0.01 c -0.64,0 -1.09,-0.16 -1.56,-0.43 l 0.06,-0.66 c 0.52,0.37 1.02,0.5 1.5,0.5 0.47,0 0.87,-0.4 0.87,-1.13 v -0.43 c -1.49,-0.02 -2.76,-0.44 -2.76,-1.31 0,-0.43 0.27,-1.23 1.14,-1.23 0.14,0 1.07,0.02 1.65,0.46 l -0.37,0.33 c -0.29,-0.18 -0.67,-0.19 -0.77,-0.19 -0.48,0 -0.93,0.23 -0.93,0.65 0,0.69 1.61,0.76 2.04,0.78 V 506 c 0,-0.19 0,-0.44 -0.34,-0.63 l 0.37,-0.33 v -0.35 h 0.75 z"
   inkscape:connector-curvature="0"
   style="fill:#000000;stroke-width:0" />
<path
   id="path4146"
   d="m 397.08,507.65 0,0.06 0,0.06 0,0.07 -0.01,0.06 0,0.07 -0.01,0.06 -0.01,0.07 -0.01,0.07 -0.01,0.06 -0.02,0.07 -0.02,0.06 -0.02,0.07 -0.02,0.06 -0.03,0.06 -0.03,0.06 -0.03,0.06 -0.04,0.06 -0.04,0.05 -0.05,0.06 -0.05,0.05 -0.05,0.04 -0.06,0.05 -0.06,0.04 -0.07,0.03 -0.03,0.02 -0.04,0.02 -0.04,0.01 -0.03,0.02 -0.04,0.01 -0.05,0.01 -0.04,0.02 -0.04,0.01 -0.05,0.01 -0.05,0 -0.05,0.01 -0.05,0.01 -0.05,0 -0.05,0 -0.05,0.01 -0.06,0 c -0.9,0 -1.38,-0.68 -1.44,-0.76 v 0.71 h -0.72 v -4.47 h 0.78 v 2.43 c 0,0.65 0.24,1.48 1,1.48 0.96,0 0.97,-0.71 0.97,-1.02 v -2.89 h 0.77 z"
   inkscape:connector-curvature="0"
   style="fill:#000000;stroke-width:0" />
<path
   id="path4148"
   d="m 402.22,511.58 h -0.75 v -2.92 c -0.52,0.44 -1.08,0.55 -1.45,0.55 -0.98,0 -1.76,-1.04 -1.76,-2.32 0,-1.3 0.77,-2.31 1.71,-2.31 0.33,0 0.92,0.09 1.47,0.62 l -0.33,0.26 c -0.22,-0.2 -0.47,-0.28 -0.73,-0.28 -0.62,0 -1.34,0.47 -1.34,1.7 0,1.31 0.85,1.72 1.44,1.72 0.45,0 0.75,-0.23 0.96,-0.55 v -1.98 c 0,-0.14 -0.01,-0.32 -0.33,-0.61 l 0.33,-0.26 v -0.51 h 0.78 z"
   inkscape:connector-curvature="0"
   style="fill:#000000;stroke-width:0" />
<path
   id="path4150"
   d="m 412.2,507.56 0,0.09 -0.01,0.09 -0.01,0.09 -0.01,0.09 -0.02,0.09 -0.02,0.08 -0.03,0.08 -0.03,0.08 -0.03,0.08 -0.04,0.07 -0.04,0.07 -0.04,0.07 -0.04,0.07 -0.05,0.06 -0.05,0.06 -0.06,0.06 -0.05,0.06 -0.06,0.05 -0.07,0.05 -0.06,0.04 -0.07,0.04 -0.07,0.04 -0.07,0.04 -0.07,0.03 -0.07,0.03 -0.08,0.03 -0.08,0.02 -0.08,0.01 -0.08,0.02 -0.08,0.01 -0.09,0 -0.08,0.01 c -0.65,0 -1.1,-0.16 -1.56,-0.43 l 0.06,-0.66 c 0.51,0.37 1.01,0.5 1.5,0.5 0.47,0 0.86,-0.4 0.86,-1.13 v -0.43 c -1.49,-0.02 -2.75,-0.44 -2.75,-1.31 0,-0.43 0.27,-1.23 1.13,-1.23 0.14,0 1.08,0.02 1.65,0.46 l -0.37,0.33 c -0.28,-0.18 -0.66,-0.19 -0.77,-0.19 -0.48,0 -0.93,0.23 -0.93,0.65 0,0.69 1.62,0.76 2.04,0.78 V 506 c 0,-0.19 0,-0.44 -0.34,-0.63 l 0.37,-0.33 v -0.35 h 0.75 z"
   inkscape:connector-curvature="0"
   style="fill:#000000;stroke-width:0" />
<path
   id="path4152"
   d="m 423.59,509.73 h -4.89 l -0.14,-1.68 h 0.25 c 0.09,1.25 0.29,1.43 1.39,1.43 0.56,0 0.59,0 0.59,-0.42 v -3.62 c 0,-0.4 -0.04,-0.51 -0.81,-0.51 h -0.21 v -0.24 c 0.39,0.03 0.98,0.03 1.38,0.03 0.4,0 0.98,0 1.37,-0.03 v 0.24 h -0.21 c -0.76,0 -0.8,0.11 -0.8,0.51 v 3.62 c 0,0.42 0.03,0.42 0.58,0.42 1.08,0 1.3,-0.16 1.39,-1.43 h 0.25 z"
   inkscape:connector-curvature="0"
   style="fill:#000000;stroke-width:0" />
<path
   id="path4154"
   d="m 428.33,507.47 h -2.38 v 1.61 c 0,0.4 0.05,0.46 0.72,0.46 v 0.25 c -0.29,-0.01 -0.86,-0.03 -1.08,-0.03 -0.21,0 -0.77,0.02 -1.07,0.03 v -0.25 c 0.67,0 0.72,-0.06 0.72,-0.46 v -3.68 c 0,-0.41 -0.05,-0.47 -0.72,-0.47 v -0.24 c 0.29,0.01 0.86,0.03 1.07,0.03 0.22,0 0.78,-0.02 1.08,-0.03 v 0.24 c -0.67,0 -0.72,0.06 -0.72,0.47 v 1.82 h 2.38 v -1.82 c 0,-0.41 -0.05,-0.47 -0.72,-0.47 v -0.24 c 0.29,0.01 0.86,0.03 1.08,0.03 0.22,0 0.77,-0.02 1.07,-0.03 v 0.24 c -0.66,0 -0.71,0.06 -0.71,0.47 v 3.68 c 0,0.4 0.05,0.46 0.71,0.46 v 0.25 c -0.29,-0.01 -0.85,-0.03 -1.07,-0.03 -0.22,0 -0.78,0.02 -1.08,0.03 v -0.25 c 0.67,0 0.72,-0.06 0.72,-0.46 z"
   inkscape:connector-curvature="0"
   style="fill:#000000;stroke-width:0" />
<path
   id="path4156"
   d="m 432.06,509.07 0,0.04 0,0.03 0,0.04 0.01,0.03 0,0.03 0,0.03 0.01,0.03 0,0.02 0.01,0.03 0.01,0.02 0,0.02 0.02,0.02 0.01,0.01 0.01,0.02 0.02,0.01 0.02,0.02 0.02,0.01 0.02,0.01 0.02,0.01 0.02,0 0.01,0.01 0.01,0 0.02,0 0.01,0.01 0.02,0 0.02,0 0.01,0 0.02,0.01 0.02,0 0.02,0 0.02,0 0.02,0.01 0.03,0 0.02,0 0.02,0 0.03,0 0.02,0 0.03,0 0.03,0 0.03,0 0.02,0 0.03,0 0.03,0 0.04,0 0.03,0 v 0.25 c -0.34,-0.01 -0.86,-0.03 -1.12,-0.03 -0.25,0 -0.77,0.02 -1.11,0.03 v -0.25 c 0.71,0 0.76,-0.05 0.76,-0.47 v -3.66 c 0,-0.43 -0.05,-0.48 -0.76,-0.48 v -0.24 c 0.34,0.01 0.86,0.03 1.11,0.03 0.26,0 0.78,-0.02 1.12,-0.03 v 0.24 c -0.71,0 -0.76,0.05 -0.76,0.48 z"
   inkscape:connector-curvature="0"
   style="fill:#000000;stroke-width:0" />
<path
   id="path4158"
   d="m 435.13,509.66 -0.01,0.01 0,0.02 -0.01,0.01 -0.01,0.01 0,0 -0.01,0.01 -0.01,0.01 -0.01,0.01 0,0 -0.01,0.01 0,0.01 -0.01,0 -0.01,0 0,0.01 -0.01,0 -0.01,0.01 -0.01,0 0,0 -0.01,0 -0.01,0.01 -0.01,0 -0.01,0 -0.01,0 -0.01,0 -0.01,0 -0.02,0 -0.01,0 -0.01,0 -0.02,0 -0.01,0 -0.02,0 -0.01,0 -0.01,0 h -1.19 v -0.25 c 0.24,0 0.52,0 0.72,-0.07 v -3.78 c 0,-0.23 0,-0.76 -0.72,-0.76 v -0.24 c 0.21,0.01 0.66,0.03 0.86,0.03 0.14,0 0.6,-0.01 0.85,-0.03 v 0.24 c -0.71,0 -0.71,0.53 -0.71,0.76 v 3.56 l 0.09,-0.12 3.13,-4.33 c 0.08,-0.11 0.11,-0.11 0.17,-0.11 0.14,0 0.14,0.07 0.14,0.25 v 3.85 c 0,0.23 0,0.75 0.71,0.75 v 0.25 c -0.21,-0.01 -0.65,-0.03 -0.85,-0.03 -0.15,0 -0.61,0.01 -0.86,0.03 v -0.25 c 0.72,0 0.72,-0.52 0.72,-0.75 v -2.95 z"
   inkscape:connector-curvature="0"
   style="fill:#000000;stroke-width:0" />
<path
   id="path4160"
   d="m 446.07,511.58 h -0.75 v -6.89 h 0.78 v 0.45 c 0.24,-0.22 0.66,-0.56 1.33,-0.56 1,0 1.85,0.99 1.85,2.32 0,1.23 -0.67,2.31 -1.61,2.31 -0.39,0 -1,-0.1 -1.6,-0.59 l 0.03,-0.61 c 0.16,0.24 0.51,0.59 1.06,0.59 0.59,0 1.35,-0.43 1.35,-1.7 0,-1.29 -0.84,-1.72 -1.45,-1.72 -0.39,0 -0.71,0.18 -0.96,0.64 v 2.19 l -0.03,0.61 z"
   inkscape:connector-curvature="0"
   style="fill:#000000;stroke-width:0" />
<path
   id="path4162"
   d="m 454.6,506.87 0,0.13 -0.01,0.12 -0.02,0.12 -0.02,0.12 -0.02,0.11 -0.03,0.12 -0.04,0.11 -0.03,0.11 -0.05,0.1 -0.05,0.11 -0.05,0.1 -0.06,0.09 -0.06,0.1 -0.06,0.09 -0.07,0.09 -0.08,0.08 -0.07,0.08 -0.08,0.07 -0.08,0.07 -0.09,0.07 -0.09,0.06 -0.09,0.06 -0.09,0.05 -0.1,0.05 -0.1,0.04 -0.1,0.04 -0.1,0.03 -0.11,0.03 -0.1,0.02 -0.11,0.01 -0.11,0.01 -0.11,0.01 -0.01,-0.61 c 0.7,0 1.41,-0.52 1.41,-1.69 0,-1.17 -0.67,-1.76 -1.41,-1.76 h 0 c -0.69,0 -1.4,0.56 -1.4,1.76 0,1.2 0.75,1.69 1.4,1.69 l 0.01,0.61 c -1.22,0 -2.19,-1.1 -2.19,-2.4 0,-1.31 1.02,-2.29 2.18,-2.29 1.19,0 2.19,1 2.19,2.29 z"
   inkscape:connector-curvature="0"
   style="fill:#000000;stroke-width:0" />
<path
   id="path4164"
   d="m 459.5,511.58 h -0.74 v -2.92 c -0.53,0.44 -1.09,0.55 -1.46,0.55 -0.98,0 -1.76,-1.04 -1.76,-2.32 0,-1.3 0.77,-2.31 1.71,-2.31 0.33,0 0.92,0.09 1.48,0.62 l -0.33,0.26 c -0.23,-0.2 -0.48,-0.28 -0.74,-0.28 -0.62,0 -1.34,0.47 -1.34,1.7 0,1.31 0.85,1.72 1.44,1.72 0.45,0 0.75,-0.23 0.97,-0.55 v -1.98 c 0,-0.14 -0.02,-0.32 -0.33,-0.61 l 0.33,-0.26 v -0.51 h 0.77 z"
   inkscape:connector-curvature="0"
   style="fill:#000000;stroke-width:0" />
<path
   id="path4166"
   d="m 464.77,509.1 h -0.75 c -1.29,-3.16 -1.31,-3.62 -1.32,-3.85 h -0.01 c -0.06,0.67 -0.86,2.52 -0.9,2.61 l -0.53,1.24 h -0.79 l 1.93,-4.41 c -0.12,-0.31 -0.32,-0.81 -0.36,-0.9 -0.26,-0.57 -0.43,-0.57 -0.56,-0.57 -0.16,0 -0.48,0.04 -0.78,0.16 l 0.06,-0.65 c 0.22,-0.05 0.5,-0.08 0.72,-0.08 0.34,0 0.71,0.12 1.12,1.13 z"
   inkscape:connector-curvature="0"
   style="fill:#000000;stroke-width:0" />
<polygon
   id="polygon4168"
   points="465.89,504.69 465.89,505.51 465.06,505.51 465.06,504.69 "
   style="fill:#000000;stroke-width:0" />
<path
   id="path4170"
   d="m 328.64,495.6 0.11,0 0.12,0.01 0.11,0.02 0.11,0.01 0.11,0.03 0.11,0.02 0.1,0.03 0.1,0.04 0.11,0.04 0.09,0.05 0.1,0.04 0.09,0.06 0.09,0.05 0.09,0.06 0.08,0.07 0.08,0.06 0.08,0.07 0.07,0.08 0.07,0.07 0.07,0.08 0.06,0.08 0.05,0.09 0.05,0.08 0.05,0.09 0.04,0.1 0.04,0.09 0.03,0.09 0.03,0.1 0.02,0.1 0.01,0.1 0.01,0.1 0,0.11 c 0,1.06 -0.98,2 -2.35,2 h -2.48 v -6.89 h 0.89 v 2.87 l -0.03,0.58 v 2.89 h 1.4 c 1.09,0 1.77,-0.61 1.77,-1.45 0,-0.79 -0.63,-1.44 -1.77,-1.44 h -1.4 l 0.03,-0.58 z"
   inkscape:connector-curvature="0"
   style="fill:#000000;stroke-width:0" />
<polygon
   id="polygon4172"
   points="333.05,492.73 333.05,499.62 332.3,499.62 332.3,492.73 "
   style="fill:#000000;stroke-width:0" />
<path
   id="path4174"
   d="m 338,494.91 0,0.03 0,0.03 0,0.04 0,0.04 0,0.04 -0.01,0.05 0,0.04 0,0.05 0,0.05 -0.01,0.05 0,0.05 -0.01,0.05 0,0.05 -0.01,0.06 -0.01,0.05 -0.01,0.06 -0.01,0.06 -0.01,0.05 -0.01,0.06 -0.01,0.06 -0.02,0.06 -0.02,0.06 -0.01,0.06 -0.02,0.06 -0.03,0.06 -0.02,0.06 -0.02,0.06 -0.03,0.06 -0.03,0.05 -0.03,0.06 -0.03,0.06 -0.04,0.05 c -0.41,0.62 -1.02,0.73 -1.37,0.73 -1.11,0 -2,-1.05 -2,-2.33 0,-1.31 0.95,-2.36 2.15,-2.36 0.62,0 1.19,0.24 1.58,0.52 l -0.06,0.64 c -0.63,-0.51 -1.29,-0.55 -1.51,-0.55 -0.8,0 -1.44,0.7 -1.47,1.68 l 0.05,0.54 c 0.16,0.76 0.69,1.25 1.26,1.25 0.51,0 1.07,-0.33 1.2,-1.25 h -2.46 l -0.05,-0.54 z"
   inkscape:connector-curvature="0"
   style="fill:#000000;stroke-width:0" />
<path
   id="path4176"
   d="m 342.28,495.6 -0.01,0.1 0,0.09 -0.01,0.09 -0.02,0.09 -0.02,0.08 -0.02,0.09 -0.02,0.08 -0.03,0.08 -0.03,0.07 -0.04,0.08 -0.04,0.07 -0.04,0.07 -0.05,0.06 -0.05,0.07 -0.05,0.06 -0.05,0.06 -0.06,0.05 -0.06,0.05 -0.06,0.05 -0.06,0.05 -0.07,0.04 -0.07,0.04 -0.07,0.03 -0.07,0.04 -0.08,0.03 -0.07,0.02 -0.08,0.02 -0.08,0.02 -0.08,0.01 -0.09,0.01 -0.08,0.01 -0.08,0 c -0.65,0 -1.1,-0.16 -1.57,-0.43 l 0.06,-0.65 c 0.52,0.37 1.02,0.49 1.51,0.49 0.46,0 0.86,-0.39 0.86,-1.13 v -0.42 c -1.49,-0.03 -2.76,-0.44 -2.76,-1.32 0,-0.42 0.27,-1.23 1.14,-1.23 0.14,0 1.07,0.02 1.65,0.47 l -0.37,0.33 c -0.29,-0.18 -0.67,-0.19 -0.77,-0.19 -0.48,0 -0.93,0.23 -0.93,0.64 0,0.7 1.61,0.77 2.04,0.79 v -0.62 c 0,-0.19 0,-0.43 -0.34,-0.62 l 0.37,-0.33 v -0.36 h 0.75 z"
   inkscape:connector-curvature="0"
   style="fill:#000000;stroke-width:0" />
<path
   id="path4178"
   d="m 346.51,496.99 -0.05,0.02 -0.05,0.03 -0.09,0.04 -0.09,0.03 -0.09,0.03 -0.09,0.03 -0.09,0.03 -0.09,0.02 -0.08,0.02 -0.09,0.02 -0.09,0.01 -0.08,0.02 -0.09,0 -0.09,0.01 -0.09,0.01 -0.09,0 -0.1,0 c -0.24,0 -1.65,0 -1.65,-1.3 0,-0.49 0.29,-0.81 0.54,-0.99 0.31,-0.22 0.53,-0.26 1.08,-0.37 0.35,-0.07 0.93,-0.19 0.93,-0.72 0,-0.68 -0.79,-0.68 -0.93,-0.68 -0.81,0 -1.37,0.36 -1.55,0.48 l -0.12,-0.67 c 0.32,-0.16 0.87,-0.44 1.68,-0.44 0.17,0 0.72,0 1.15,0.32 0.31,0.24 0.48,0.64 0.48,1.06 0,0.55 -0.37,0.89 -0.39,0.92 -0.39,0.34 -0.66,0.4 -1.16,0.49 -0.54,0.11 -1,0.21 -1,0.7 0,0.61 0.72,0.61 0.85,0.61 0.31,0 0.84,-0.04 1.41,-0.37 z"
   inkscape:connector-curvature="0"
   style="fill:#000000;stroke-width:0" />
<path
   id="path4180"
   d="m 351.03,494.91 0,0.03 0,0.03 0,0.04 0,0.04 0,0.04 0,0.05 0,0.04 -0.01,0.05 0,0.05 0,0.05 -0.01,0.05 0,0.05 -0.01,0.05 0,0.06 -0.01,0.05 -0.01,0.06 -0.01,0.06 -0.01,0.05 -0.02,0.06 -0.01,0.06 -0.01,0.06 -0.02,0.06 -0.02,0.06 -0.02,0.06 -0.02,0.06 -0.03,0.06 -0.02,0.06 -0.03,0.06 -0.03,0.05 -0.03,0.06 -0.03,0.06 -0.04,0.05 c -0.4,0.62 -1.01,0.73 -1.37,0.73 -1.1,0 -2,-1.05 -2,-2.33 0,-1.31 0.96,-2.36 2.15,-2.36 0.63,0 1.19,0.24 1.58,0.52 l -0.06,0.64 c -0.62,-0.51 -1.28,-0.55 -1.51,-0.55 -0.8,0 -1.43,0.7 -1.46,1.68 l 0.05,0.54 c 0.16,0.76 0.68,1.25 1.25,1.25 0.52,0 1.08,-0.33 1.2,-1.25 h -2.45 l -0.05,-0.54 z"
   inkscape:connector-curvature="0"
   style="fill:#000000;stroke-width:0" />
<path
   id="path4182"
   d="m 358.78,499.62 h -0.75 v -2.92 c -0.53,0.44 -1.08,0.55 -1.45,0.55 -0.99,0 -1.76,-1.03 -1.76,-2.31 0,-1.3 0.76,-2.32 1.71,-2.32 0.33,0 0.91,0.09 1.47,0.63 l -0.33,0.26 c -0.23,-0.2 -0.47,-0.28 -0.73,-0.28 -0.62,0 -1.35,0.47 -1.35,1.7 0,1.31 0.86,1.71 1.45,1.71 0.44,0 0.74,-0.22 0.96,-0.54 v -1.99 c 0,-0.14 -0.01,-0.32 -0.33,-0.6 l 0.33,-0.26 v -0.52 h 0.78 z"
   inkscape:connector-curvature="0"
   style="fill:#000000;stroke-width:0" />
<path
   id="path4184"
   d="m 364.27,494.92 0,0.12 -0.01,0.12 -0.01,0.12 -0.02,0.12 -0.03,0.12 -0.03,0.11 -0.03,0.11 -0.04,0.11 -0.05,0.11 -0.04,0.1 -0.06,0.1 -0.05,0.1 -0.07,0.09 -0.06,0.09 -0.07,0.09 -0.07,0.08 -0.08,0.08 -0.08,0.08 -0.08,0.07 -0.09,0.06 -0.08,0.07 -0.1,0.05 -0.09,0.06 -0.1,0.04 -0.09,0.05 -0.11,0.03 -0.1,0.04 -0.1,0.02 -0.11,0.02 -0.11,0.02 -0.11,0.01 -0.11,0 -0.01,-0.61 c 0.7,0 1.42,-0.51 1.42,-1.68 0,-1.18 -0.68,-1.76 -1.42,-1.76 h 0 c -0.68,0 -1.4,0.55 -1.4,1.76 0,1.2 0.76,1.68 1.4,1.68 l 0.01,0.61 c -1.22,0 -2.19,-1.09 -2.19,-2.39 0,-1.31 1.02,-2.3 2.18,-2.3 1.2,0 2.19,1 2.19,2.3 z"
   inkscape:connector-curvature="0"
   style="fill:#000000;stroke-width:0" />
<path
   id="path4186"
   d="m 368.92,495.69 0,0.06 -0.01,0.07 0,0.06 0,0.07 -0.01,0.06 -0.01,0.07 -0.01,0.07 -0.01,0.06 -0.01,0.07 -0.02,0.06 -0.01,0.07 -0.03,0.06 -0.02,0.07 -0.03,0.06 -0.03,0.06 -0.03,0.06 -0.04,0.05 -0.04,0.06 -0.04,0.05 -0.05,0.05 -0.06,0.05 -0.05,0.04 -0.07,0.04 -0.06,0.04 -0.04,0.02 -0.03,0.01 -0.04,0.02 -0.04,0.01 -0.04,0.02 -0.04,0.01 -0.05,0.01 -0.04,0.01 -0.05,0.01 -0.04,0.01 -0.05,0.01 -0.05,0 -0.05,0.01 -0.06,0 -0.05,0 -0.06,0 c -0.89,0 -1.38,-0.67 -1.44,-0.75 v 0.7 h -0.72 v -4.47 h 0.78 v 2.44 c 0,0.65 0.25,1.47 1,1.47 0.96,0 0.97,-0.7 0.97,-1.02 v -2.89 h 0.78 z"
   inkscape:connector-curvature="0"
   style="fill:#000000;stroke-width:0" />
<polygon
   id="polygon4188"
   points="370.7,498.8 370.95,498.8 370.7,497.56 371.11,497.56 371.53,498.81 371.53,499.62 370.7,499.62 "
   style="fill:#000000;stroke-width:0" />
<path
   id="path4190"
   d="m 374.24,496.57 h 1.41 v 0.57 h -1.41 v 1.26 h -0.68 v -1.26 h -0.87 v -0.57 h 0.84 v -2.66 c 0,-0.59 0.14,-1.29 0.82,-1.29 0.7,0 1.21,0.25 1.46,0.38 l -0.16,0.58 c -0.26,-0.2 -0.58,-0.32 -0.9,-0.32 -0.37,0 -0.51,0.3 -0.51,0.82 z"
   inkscape:connector-curvature="0"
   style="fill:#000000;stroke-width:0" />
<path
   id="path4192"
   d="m 386.31,495.69 0,0.06 0,0.07 0,0.06 -0.01,0.07 0,0.07 -0.01,0.06 -0.01,0.07 -0.01,0.07 -0.01,0.06 -0.02,0.07 -0.02,0.06 -0.02,0.07 -0.03,0.06 -0.02,0.06 -0.03,0.06 -0.04,0.06 -0.03,0.06 -0.05,0.05 -0.04,0.05 -0.05,0.05 -0.05,0.05 -0.06,0.04 -0.06,0.04 -0.07,0.04 -0.03,0.02 -0.04,0.01 -0.04,0.02 -0.04,0.01 -0.04,0.02 -0.04,0.01 -0.04,0.01 -0.05,0.01 -0.04,0.01 -0.05,0.01 -0.05,0.01 -0.05,0 -0.05,0.01 -0.05,0 -0.05,0 -0.06,0 c -0.6,0 -1.12,-0.28 -1.48,-0.81 -0.26,0.75 -0.96,0.81 -1.28,0.81 -0.71,0 -1.18,-0.41 -1.45,-0.76 v 0.71 h -0.72 v -4.47 h 0.78 v 2.44 c 0,0.67 0.27,1.47 1.01,1.47 0.92,0 0.97,-0.64 0.97,-1.02 v -2.89 h 0.78 v 2.44 c 0,0.67 0.27,1.47 1,1.47 0.93,0 0.98,-0.64 0.98,-1.02 v -2.89 h 0.77 z"
   inkscape:connector-curvature="0"
   style="fill:#000000;stroke-width:0" />
<polygon
   id="polygon4194"
   points="388.76,498.6 388.76,499.49 387.87,499.49 387.87,498.6 "
   style="fill:#000000;stroke-width:0" />
<polygon
   id="polygon4196"
   points="388.68,492.73 388.68,497.14 387.94,497.14 387.94,492.73 "
   style="fill:#000000;stroke-width:0" />
<polygon
   id="polygon4198"
   points="391.77,495.5 390.4,497.14 389.57,497.14 391.44,495.01 389.51,492.73 390.33,492.73 391.77,494.6 393.26,492.73 394.09,492.73 392.1,495.01 393.92,497.14 393.11,497.14 "
   style="fill:#000000;stroke-width:0" />
<polygon
   id="polygon4200"
   points="398.85,498.6 398.85,499.49 397.96,499.49 397.96,498.6 "
   style="fill:#000000;stroke-width:0" />
<polygon
   id="polygon4202"
   points="398.78,492.73 398.78,497.14 398.03,497.14 398.03,492.73 "
   style="fill:#000000;stroke-width:0" />
<path
   id="path4204"
   d="m 401.35,496.57 h 1.4 v 0.57 h -1.4 v 1.26 h -0.69 v -1.26 h -0.87 v -0.57 h 0.84 v -2.66 c 0,-0.59 0.14,-1.29 0.83,-1.29 0.69,0 1.2,0.25 1.45,0.38 l -0.16,0.58 c -0.26,-0.2 -0.58,-0.32 -0.9,-0.32 -0.36,0 -0.5,0.3 -0.5,0.82 z"
   inkscape:connector-curvature="0"
   style="fill:#000000;stroke-width:0" />
<path
   id="path4206"
   d="m 410.65,497.14 h -0.78 v -2.88 c 0,-0.74 -0.55,-1.09 -1.19,-1.09 -0.71,0 -0.78,0.26 -0.78,0.68 v 3.29 h -0.77 v -3.33 c 0,-0.71 0.23,-1.19 1.05,-1.19 0.53,0 1.24,0.16 1.72,0.59 v -0.48 h 0.75 z"
   inkscape:connector-curvature="0"
   style="fill:#000000;stroke-width:0" />
<path
   id="path4208"
   d="m 413.06,493.19 0.1,0.51 c -0.1,0.14 -0.1,0.16 -0.1,0.34 v 2 c 0.24,0.35 0.63,0.57 1.05,0.57 0.76,0 1.36,-0.75 1.36,-1.66 0,-1.03 -0.71,-1.72 -1.45,-1.72 -0.39,0 -0.66,0.2 -0.86,0.47 l -0.1,-0.51 c 0.31,-0.29 0.75,-0.57 1.34,-0.57 0.97,0 1.84,0.98 1.84,2.33 0,1.19 -0.62,2.3 -1.58,2.3 -0.59,0 -1.17,-0.21 -1.63,-0.6 v 0.49 h -0.74 v -6.34 h 0.77 z"
   inkscape:connector-curvature="0"
   style="fill:#000000;stroke-width:0" />
<polygon
   id="polygon4210"
   points="421.28,492.73 421.28,499.62 420.53,499.62 420.53,492.73 "
   style="fill:#000000;stroke-width:0" />
<polygon
   id="polygon4212"
   points="423.73,498.6 423.73,499.49 422.84,499.49 422.84,498.6 "
   style="fill:#000000;stroke-width:0" />
<polygon
   id="polygon4214"
   points="423.66,492.73 423.66,497.14 422.91,497.14 422.91,492.73 "
   style="fill:#000000;stroke-width:0" />
<polygon
   id="polygon4216"
   points="426.04,495.08 426.04,499.62 425.32,499.62 425.32,492.73 426.01,492.73 426.01,494.13 426.8,494.96 428.36,492.73 429.17,492.73 427.28,495.43 428.95,497.14 428.06,497.14 "
   style="fill:#000000;stroke-width:0" />
<path
   id="path4218"
   d="m 433.21,494.91 0,0.03 0,0.03 0,0.04 -0.01,0.04 0,0.04 0,0.05 0,0.04 0,0.05 0,0.05 -0.01,0.05 0,0.05 -0.01,0.05 0,0.05 -0.01,0.06 -0.01,0.05 -0.01,0.06 -0.01,0.06 -0.01,0.05 -0.01,0.06 -0.02,0.06 -0.01,0.06 -0.02,0.06 -0.02,0.06 -0.02,0.06 -0.02,0.06 -0.02,0.06 -0.03,0.06 -0.02,0.06 -0.03,0.05 -0.03,0.06 -0.04,0.06 -0.03,0.05 c -0.41,0.62 -1.02,0.73 -1.38,0.73 -1.1,0 -2,-1.05 -2,-2.33 0,-1.31 0.96,-2.36 2.15,-2.36 0.63,0 1.2,0.24 1.59,0.52 l -0.06,0.64 c -0.63,-0.51 -1.29,-0.55 -1.52,-0.55 -0.79,0 -1.43,0.7 -1.46,1.68 l 0.05,0.54 c 0.16,0.76 0.69,1.25 1.25,1.25 0.52,0 1.08,-0.33 1.21,-1.25 h -2.46 l -0.05,-0.54 z"
   inkscape:connector-curvature="0"
   style="fill:#000000;stroke-width:0" />
<path
   id="path4220"
   d="m 441.07,497.14 h -0.75 c -1.29,-3.16 -1.31,-3.61 -1.32,-3.84 h -0.01 c -0.06,0.66 -0.85,2.51 -0.89,2.6 l -0.54,1.24 h -0.79 l 1.93,-4.41 c -0.12,-0.31 -0.32,-0.8 -0.36,-0.89 -0.26,-0.58 -0.42,-0.58 -0.56,-0.58 -0.16,0 -0.48,0.04 -0.78,0.16 l 0.06,-0.65 c 0.22,-0.05 0.5,-0.07 0.72,-0.07 0.34,0 0.71,0.11 1.12,1.13 z"
   inkscape:connector-curvature="0"
   style="fill:#000000;stroke-width:0" />
<path
   id="path4222"
   d="m 445.61,494.92 0,0.12 -0.01,0.12 -0.01,0.12 -0.02,0.12 -0.03,0.12 -0.03,0.11 -0.03,0.11 -0.04,0.11 -0.05,0.11 -0.04,0.1 -0.06,0.1 -0.05,0.1 -0.07,0.09 -0.06,0.09 -0.07,0.09 -0.07,0.08 -0.08,0.08 -0.08,0.08 -0.08,0.07 -0.09,0.06 -0.08,0.07 -0.1,0.05 -0.09,0.06 -0.1,0.04 -0.09,0.05 -0.11,0.03 -0.1,0.04 -0.1,0.02 -0.11,0.02 -0.11,0.02 -0.11,0.01 -0.11,0 -0.01,-0.61 c 0.7,0 1.42,-0.51 1.42,-1.68 0,-1.18 -0.68,-1.76 -1.42,-1.76 h 0 c -0.68,0 -1.4,0.55 -1.4,1.76 0,1.2 0.76,1.68 1.4,1.68 l 0.01,0.61 c -1.22,0 -2.19,-1.09 -2.19,-2.39 0,-1.31 1.02,-2.3 2.18,-2.3 1.2,0 2.19,1 2.19,2.3 z"
   inkscape:connector-curvature="0"
   style="fill:#000000;stroke-width:0" />
<path
   id="path4224"
   d="m 450.26,497.14 h -0.78 v -2.88 c 0,-0.74 -0.56,-1.09 -1.19,-1.09 -0.71,0 -0.78,0.26 -0.78,0.68 v 3.29 h -0.78 v -3.33 c 0,-0.71 0.23,-1.19 1.06,-1.19 0.53,0 1.23,0.16 1.72,0.59 v -0.48 h 0.75 z"
   inkscape:connector-curvature="0"
   style="fill:#000000;stroke-width:0" />
<path
   id="path4226"
   d="m 458.51,499.62 h -0.74 v -2.92 c -0.53,0.44 -1.09,0.55 -1.46,0.55 -0.98,0 -1.76,-1.03 -1.76,-2.31 0,-1.3 0.77,-2.32 1.71,-2.32 0.33,0 0.92,0.09 1.48,0.63 l -0.33,0.26 c -0.23,-0.2 -0.48,-0.28 -0.74,-0.28 -0.62,0 -1.34,0.47 -1.34,1.7 0,1.31 0.85,1.71 1.44,1.71 0.45,0 0.75,-0.22 0.97,-0.54 v -1.99 c 0,-0.14 -0.01,-0.32 -0.33,-0.6 l 0.33,-0.26 v -0.52 h 0.77 z"
   inkscape:connector-curvature="0"
   style="fill:#000000;stroke-width:0" />
<polygon
   id="polygon4228"
   points="460.96,498.6 460.96,499.49 460.08,499.49 460.08,498.6 "
   style="fill:#000000;stroke-width:0" />
<polygon
   id="polygon4230"
   points="460.89,492.73 460.89,497.14 460.15,497.14 460.15,492.73 "
   style="fill:#000000;stroke-width:0" />
<path
   id="path4232"
   d="m 466.04,499.62 h -0.75 v -2.92 c -0.52,0.44 -1.08,0.55 -1.45,0.55 -0.98,0 -1.76,-1.03 -1.76,-2.31 0,-1.3 0.77,-2.32 1.71,-2.32 0.33,0 0.92,0.09 1.47,0.63 l -0.32,0.26 c -0.23,-0.2 -0.48,-0.28 -0.74,-0.28 -0.62,0 -1.34,0.47 -1.34,1.7 0,1.31 0.85,1.71 1.44,1.71 0.45,0 0.75,-0.22 0.96,-0.54 v -1.99 c 0,-0.14 -0.01,-0.32 -0.32,-0.6 l 0.32,-0.26 v -0.52 h 0.78 z"
   inkscape:connector-curvature="0"
   style="fill:#000000;stroke-width:0" />
<polygon
   id="polygon4234"
   points="326.69,480.78 326.69,487.67 325.94,487.67 325.94,480.78 "
   style="fill:#000000;stroke-width:0" />
<path
   id="path4236"
   d="m 331.48,483.65 0,0.09 0,0.09 -0.01,0.09 -0.02,0.09 -0.02,0.09 -0.02,0.08 -0.02,0.08 -0.03,0.08 -0.04,0.08 -0.03,0.07 -0.04,0.07 -0.04,0.07 -0.05,0.07 -0.05,0.06 -0.05,0.06 -0.05,0.06 -0.06,0.06 -0.06,0.05 -0.06,0.05 -0.07,0.04 -0.06,0.04 -0.07,0.04 -0.07,0.04 -0.08,0.03 -0.07,0.03 -0.08,0.03 -0.07,0.02 -0.08,0.01 -0.09,0.02 -0.08,0.01 -0.08,0 -0.09,0.01 c -0.64,0 -1.09,-0.16 -1.56,-0.43 l 0.06,-0.66 c 0.52,0.37 1.02,0.5 1.5,0.5 0.47,0 0.87,-0.4 0.87,-1.13 v -0.43 c -1.5,-0.02 -2.76,-0.44 -2.76,-1.31 0,-0.43 0.27,-1.23 1.14,-1.23 0.14,0 1.07,0.02 1.65,0.46 l -0.37,0.33 c -0.29,-0.18 -0.67,-0.19 -0.78,-0.19 -0.47,0 -0.92,0.23 -0.92,0.65 0,0.69 1.61,0.76 2.04,0.78 v -0.61 c 0,-0.19 0,-0.44 -0.34,-0.63 l 0.37,-0.33 v -0.35 h 0.74 z"
   inkscape:connector-curvature="0"
   style="fill:#000000;stroke-width:0" />
<path
   id="path4238"
   d="m 335.71,485.04 -0.04,0.02 -0.05,0.02 -0.09,0.04 -0.1,0.04 -0.09,0.03 -0.08,0.03 -0.09,0.02 -0.09,0.03 -0.09,0.02 -0.08,0.01 -0.09,0.02 -0.09,0.01 -0.08,0.01 -0.09,0.01 -0.09,0 -0.09,0.01 -0.1,0 c -0.25,0 -1.65,0 -1.65,-1.31 0,-0.48 0.29,-0.8 0.54,-0.99 0.31,-0.22 0.53,-0.26 1.07,-0.37 0.36,-0.07 0.94,-0.18 0.94,-0.71 0,-0.69 -0.79,-0.69 -0.94,-0.69 -0.8,0 -1.36,0.37 -1.54,0.49 l -0.12,-0.68 c 0.32,-0.15 0.87,-0.43 1.67,-0.43 0.18,0 0.73,0 1.16,0.31 0.3,0.24 0.47,0.64 0.47,1.07 0,0.54 -0.36,0.88 -0.38,0.91 -0.39,0.35 -0.66,0.41 -1.16,0.5 -0.55,0.11 -1,0.21 -1,0.69 0,0.62 0.71,0.62 0.84,0.62 0.32,0 0.85,-0.04 1.42,-0.38 z"
   inkscape:connector-curvature="0"
   style="fill:#000000;stroke-width:0" />
<path
   id="path4240"
   d="m 337.86,484.61 h 1.41 v 0.58 h -1.41 v 1.26 h -0.69 v -1.26 h -0.86 v -0.58 h 0.84 v -2.65 c 0,-0.6 0.14,-1.29 0.82,-1.29 0.7,0 1.2,0.25 1.45,0.37 l -0.15,0.59 c -0.26,-0.21 -0.58,-0.33 -0.9,-0.33 -0.37,0 -0.51,0.3 -0.51,0.83 z"
   inkscape:connector-curvature="0"
   style="fill:#000000;stroke-width:0" />
<path
   id="path4242"
   d="m 347.47,485.19 h -0.74 c -1.3,-3.16 -1.32,-3.62 -1.33,-3.85 h -0.01 c -0.06,0.67 -0.85,2.52 -0.89,2.61 l -0.54,1.24 h -0.79 l 1.94,-4.41 c -0.12,-0.31 -0.32,-0.81 -0.36,-0.9 -0.26,-0.57 -0.43,-0.57 -0.57,-0.57 -0.16,0 -0.48,0.04 -0.78,0.15 l 0.06,-0.64 c 0.22,-0.05 0.5,-0.08 0.72,-0.08 0.35,0 0.72,0.12 1.12,1.13 z"
   inkscape:connector-curvature="0"
   style="fill:#000000;stroke-width:0" />
<path
   id="path4244"
   d="m 351.48,482.95 0,0.03 0,0.04 0,0.04 0,0.04 0,0.04 0,0.04 -0.01,0.05 0,0.04 0,0.05 0,0.05 -0.01,0.05 0,0.05 -0.01,0.06 -0.01,0.05 0,0.06 -0.01,0.05 -0.01,0.06 -0.01,0.06 -0.02,0.06 -0.01,0.06 -0.02,0.06 -0.01,0.05 -0.02,0.06 -0.02,0.06 -0.02,0.06 -0.03,0.06 -0.02,0.06 -0.03,0.06 -0.03,0.06 -0.03,0.06 -0.03,0.05 -0.04,0.06 c -0.41,0.62 -1.01,0.73 -1.37,0.73 -1.11,0 -2,-1.06 -2,-2.34 0,-1.31 0.95,-2.35 2.15,-2.35 0.62,0 1.19,0.23 1.58,0.51 l -0.06,0.65 c -0.63,-0.52 -1.28,-0.56 -1.51,-0.56 -0.8,0 -1.44,0.71 -1.47,1.68 l 0.05,0.55 c 0.16,0.75 0.69,1.25 1.26,1.25 0.52,0 1.07,-0.34 1.2,-1.25 h -2.46 l -0.05,-0.55 z"
   inkscape:connector-curvature="0"
   style="fill:#000000;stroke-width:0" />
<path
   id="path4246"
   d="m 355.76,483.65 0,0.09 -0.01,0.09 -0.01,0.09 -0.02,0.09 -0.01,0.09 -0.03,0.08 -0.02,0.08 -0.03,0.08 -0.03,0.08 -0.04,0.07 -0.04,0.07 -0.04,0.07 -0.05,0.07 -0.04,0.06 -0.06,0.06 -0.05,0.06 -0.06,0.06 -0.06,0.05 -0.06,0.05 -0.06,0.04 -0.07,0.04 -0.07,0.04 -0.07,0.04 -0.07,0.03 -0.08,0.03 -0.07,0.03 -0.08,0.02 -0.08,0.01 -0.08,0.02 -0.08,0.01 -0.09,0 -0.08,0.01 c -0.65,0 -1.1,-0.16 -1.57,-0.43 l 0.06,-0.66 c 0.52,0.37 1.02,0.5 1.51,0.5 0.46,0 0.86,-0.4 0.86,-1.13 v -0.43 c -1.49,-0.02 -2.75,-0.44 -2.75,-1.31 0,-0.43 0.26,-1.23 1.13,-1.23 0.14,0 1.07,0.02 1.65,0.46 l -0.37,0.33 c -0.28,-0.18 -0.66,-0.19 -0.77,-0.19 -0.48,0 -0.93,0.23 -0.93,0.65 0,0.69 1.61,0.76 2.04,0.78 v -0.61 c 0,-0.19 0,-0.44 -0.34,-0.63 l 0.37,-0.33 v -0.35 h 0.75 z"
   inkscape:connector-curvature="0"
   style="fill:#000000;stroke-width:0" />
<path
   id="path4248"
   d="m 357.86,482.9 0,0.09 0.01,0.09 0.01,0.09 0.01,0.09 0.02,0.09 0.02,0.08 0.03,0.08 0.03,0.08 0.03,0.07 0.03,0.08 0.04,0.07 0.05,0.07 0.04,0.07 0.05,0.06 0.05,0.06 0.06,0.06 0.06,0.06 0.06,0.05 0.06,0.05 0.07,0.05 0.06,0.04 0.08,0.04 0.07,0.04 0.07,0.03 0.08,0.03 0.08,0.03 0.08,0.02 0.09,0.02 0.08,0.02 0.09,0.01 0.09,0.01 0.09,0 v 0.67 c -0.88,-0.01 -1.43,-0.5 -1.74,-0.96 v 0.91 h -0.7 v -4.47 h 0.75 z"
   inkscape:connector-curvature="0"
   style="fill:#000000;stroke-width:0" />
<polygon
   id="polygon4250"
   points="361.49,480.78 361.49,481.6 360.67,481.6 360.67,480.78 "
   style="fill:#000000;stroke-width:0" />
</g>  </g>
</svg>
