<?xml version="1.0" encoding="UTF-8" standalone="no"?>
<!-- Created with Inkscape (http://www.inkscape.org/) -->

<svg
   xmlns:dc="http://purl.org/dc/elements/1.1/"
   xmlns:cc="http://creativecommons.org/ns#"
   xmlns:rdf="http://www.w3.org/1999/02/22-rdf-syntax-ns#"
   xmlns:svg="http://www.w3.org/2000/svg"
   xmlns="http://www.w3.org/2000/svg"
   xmlns:sodipodi="http://sodipodi.sourceforge.net/DTD/sodipodi-0.dtd"
   xmlns:inkscape="http://www.inkscape.org/namespaces/inkscape"
   width="499.24377"
   height="499.24377"
   id="svg2"
   version="1.1"
   inkscape:version="0.48.3.1 r9886"
   sodipodi:docname="New document 1">
  <sodipodi:namedview
     id="base"
     pagecolor="#ffffff"
     bordercolor="#666666"
     borderopacity="1.0"
     inkscape:pageopacity="0.0"
     inkscape:pageshadow="2"
     inkscape:zoom="0.97399998"
     inkscape:cx="249.62188"
     inkscape:cy="249.62189"
     inkscape:document-units="px"
     inkscape:current-layer="layer1"
     showgrid="false"
     inkscape:window-width="854"
     inkscape:window-height="682"
     inkscape:window-x="180"
     inkscape:window-y="24"
     inkscape:window-maximized="0"
     fit-margin-top="0"
     fit-margin-left="0"
     fit-margin-right="0"
     fit-margin-bottom="0"
     showborder="false"
     inkscape:showpageshadow="false" />
  <defs
     id="defs4" />
  <metadata
     id="metadata7">
    <rdf:RDF>
      <cc:Work
         rdf:about="">
        <dc:format>image/svg+xml</dc:format>
        <dc:type
           rdf:resource="http://purl.org/dc/dcmitype/StillImage" />
        <dc:title></dc:title>
      </cc:Work>
    </rdf:RDF>
  </metadata>
  <g
     id="layer1"
     inkscape:groupmode="layer"
     inkscape:label="Layer 1"
     transform="translate(-109.08443,-135.02415)">
    <path
       style="fill:none;stroke:#0a081b;stroke-width:2;stroke-linecap:round;stroke-linejoin:round;stroke-miterlimit:10.43299961;stroke-opacity:1;stroke-dasharray:none;stroke-dashoffset:0"
       d="m 110.08443,384.64603 497.24377,0 m -248.62188,248.62189 0,-497.24377 m 93.2332,248.62188 c -6e-5,-1.97239 -0.0627,-3.94478 -0.18771,-5.91321 -0.12503,-1.96843 -0.31274,-3.93287 -0.56237,-5.88941 -0.24963,-1.95653 -0.56155,-3.90511 -0.93476,-5.84188 -0.37322,-1.93676 -0.8081,-3.86163 -1.3034,-5.77083 -0.49531,-1.90919 -1.05139,-3.80261 -1.66679,-5.67654 -0.61539,-1.87394 -1.29045,-3.72828 -2.02346,-5.55941 -0.733,-1.83113 -1.52431,-3.63892 -2.37198,-5.41987 -0.84767,-1.78096 -1.75204,-3.53492 -2.71096,-5.25853 -0.95891,-1.7236 -1.97271,-3.41667 -3.03901,-5.07599 -1.06631,-1.65932 -2.18544,-3.28468 -3.35484,-4.87303 -1.1694,-1.58835 -2.38936,-3.13946 -3.65714,-4.65045 -1.26779,-1.51098 -2.58368,-2.98159 -3.94474,-4.40912 -1.36106,-1.42754 -2.76757,-2.81173 -4.21644,-4.15007 -1.44886,-1.33833 -2.94033,-2.63053 -4.47116,-3.87428 -1.53083,-1.24375 -3.10125,-2.43875 -4.70788,-3.5829 -1.60663,-1.14416 -3.24968,-2.23715 -4.92564,-3.2771 -1.67597,-1.03995 -3.38503,-2.02654 -5.12358,-2.9581 -1.73854,-0.93156 -3.50674,-1.80776 -5.30087,-2.62718 -1.79413,-0.81942 -3.61434,-1.58172 -5.45683,-2.2857 -1.84248,-0.70398 -3.70738,-1.34929 -5.59081,-1.93499 -1.88342,-0.58571 -3.78549,-1.11144 -5.70227,-1.57651 -1.91679,-0.46507 -3.84837,-0.86912 -5.79079,-1.21168 -1.94242,-0.34256 -3.89574,-0.62328 -5.85597,-0.84196 -1.96024,-0.21868 -3.92743,-0.37495 -5.89759,-0.46886 -1.97016,-0.0939 -3.9433,-0.1251 -5.91545,-0.0939 -1.97215,0.0312 -3.9433,0.12526 -5.90949,0.28151 -1.9662,0.15625 -3.92742,0.3751 -5.87974,0.65574 -1.95233,0.28064 -3.89572,0.62344 -5.82632,1.02733 -1.9306,0.4039 -3.84833,0.86927 -5.74942,1.3948 -1.9011,0.52553 -3.78545,1.11159 -5.64939,1.75664 -1.86394,0.64505 -3.70733,1.34944 -5.5266,2.11141 -1.81927,0.76196 -3.61428,1.58185 -5.38156,2.45767 -1.76728,0.87582 -3.50667,1.80791 -5.21485,2.79405 -1.70817,0.98614 -3.38495,2.02667 -5.02714,3.11917 -1.64219,1.09249 -3.24959,2.23727 -4.81919,3.43173 -1.56959,1.19445 -3.10115,2.43887 -4.59183,3.73047 -1.49068,1.2916 -2.94023,2.63065 -4.34599,4.01419 -1.40576,1.38354 -2.76746,2.81184 -4.08264,4.28175 -1.31518,1.46992 -2.58355,2.9817 -3.80286,4.53207 -1.2193,1.55037 -2.38924,3.13955 -3.50775,4.76414 -1.11852,1.62458 -2.18531,3.28476 -3.19854,4.97701 -1.01323,1.69226 -1.97257,3.41676 -2.87643,5.16987 -0.90386,1.7531 -1.7519,3.53498 -2.54275,5.34189 -0.79086,1.8069 -1.52417,3.63898 -2.19883,5.4924 -0.67466,1.85342 -1.2903,3.72832 -1.84605,5.62081 -0.55575,1.89248 -1.05124,3.80265 -1.48584,5.72657 -0.4346,1.92392 -0.80795,3.86167 -1.11965,5.80928 -0.3117,1.94761 -0.56139,3.90514 -0.74894,5.8686 -0.18756,1.96345 -0.31259,3.93288 -0.37523,5.90428 -0.0627,1.9714 -0.0625,3.94479 0,5.91619 0.0625,1.97141 0.1878,3.94081 0.37523,5.90428 0.18742,1.96348 0.43736,3.92097 0.74894,5.8686 0.31158,1.94763 0.68517,3.88534 1.11965,5.80928 0.43448,1.92395 0.93021,3.83406 1.48584,5.72657 0.55563,1.89252 1.17151,3.76734 1.84605,5.62081 0.67454,1.85347 1.40809,3.68545 2.19883,5.4924 0.79073,1.80696 1.639,3.58873 2.54275,5.34189 0.90374,1.75317 1.86331,3.47755 2.87643,5.16987 1.01312,1.69231 2.08012,3.35236 3.19854,4.97701 1.11841,1.62466 2.28855,3.21369 3.50775,4.76414 1.21921,1.55045 2.48777,3.06207 3.80286,4.53207 1.31509,1.47 2.67697,2.89812 4.08264,4.28175 1.40567,1.38363 2.85539,2.7225 4.34599,4.01419 1.49059,1.29169 3.02231,2.53592 4.59183,3.73047 1.56952,1.19456 3.17707,2.33913 4.81919,3.43173 1.64212,1.0926 3.31903,2.13292 5.02714,3.11917 1.70812,0.98625 3.44762,1.91812 5.21485,2.79405 1.76723,0.87593 3.56234,1.69559 5.38156,2.45767 1.81922,0.76209 3.6627,1.46625 5.5266,2.11141 1.86389,0.64517 3.74833,1.23099 5.64939,1.75664 1.90106,0.52565 3.81885,0.99077 5.74942,1.3948 1.93058,0.40402 3.87401,0.74657 5.82632,1.02733 1.95231,0.28077 3.91355,0.49937 5.87974,0.65574 1.96618,0.15638 3.93734,0.25015 5.90949,0.28151 1.97215,0.0314 3.94529,-8e-5 5.91545,-0.0939 1.97016,-0.0938 3.93734,-0.2503 5.89759,-0.46886 1.96025,-0.21855 3.91353,-0.49952 5.85597,-0.84196 1.94244,-0.34244 3.87397,-0.74673 5.79079,-1.21168 1.91681,-0.46495 3.81881,-0.99092 5.70227,-1.57651 1.88347,-0.58558 3.74828,-1.23113 5.59081,-1.93499 1.84253,-0.70387 3.66265,-1.46639 5.45683,-2.2857 1.79418,-0.8193 3.56227,-1.69573 5.30087,-2.62718 1.73861,-0.93145 3.44755,-1.91825 5.12358,-2.9581 1.67602,-1.03984 3.31894,-2.13305 4.92564,-3.2771 1.6067,-1.14405 3.17697,-2.33925 4.70788,-3.5829 1.53091,-1.24365 3.02222,-2.53604 4.47116,-3.87428 1.44895,-1.33825 2.85529,-2.72262 4.21644,-4.15007 1.36115,-1.42744 2.67686,-2.89822 3.94474,-4.40912 1.26787,-1.51091 2.48764,-3.06217 3.65714,-4.65045 1.1695,-1.58827 2.28843,-3.21378 3.35484,-4.87303 1.06641,-1.65925 2.07999,-3.35245 3.03901,-5.07599 0.95903,-1.72355 1.86318,-3.47763 2.71096,-5.25853 0.84778,-1.7809 1.63886,-3.58879 2.37198,-5.41987 0.73313,-1.83109 1.40795,-3.68551 2.02346,-5.55941 0.61551,-1.87389 1.17136,-3.76738 1.66679,-5.67654 0.49542,-1.90916 0.93006,-3.83409 1.3034,-5.77083 0.37334,-1.93674 0.68501,-3.88537 0.93476,-5.84188 0.24976,-1.95652 0.43721,-3.92099 0.56237,-5.88941 0.12516,-1.96842 0.18765,-3.94082 0.18771,-5.91322"
       title="1.5*cos(t) 1.5*sin(t)"
       id="path3892"
       inkscape:connector-curvature="0" />
    <path
       style="fill:none;stroke:#0a081b;stroke-width:2;stroke-linecap:round;stroke-linejoin:round;stroke-miterlimit:10.43299961;stroke-opacity:1;stroke-dasharray:none;stroke-dashoffset:0"
       d="m 483.01726,384.64603 c -4e-5,-1.31493 -0.0418,-2.62985 -0.12514,-3.94214 -0.0834,-1.31228 -0.2085,-2.62191 -0.37491,-3.92627 -0.16642,-1.30436 -0.37437,-2.60341 -0.62318,-3.89459 -0.24881,-1.29117 -0.53873,-2.57442 -0.86894,-3.84722 -0.3302,-1.27279 -0.70092,-2.53507 -1.11119,-3.78436 -0.41026,-1.24929 -0.8603,-2.48552 -1.34897,-3.70627 -0.48867,-1.22075 -1.01621,-2.42595 -1.58132,-3.61325 -0.56511,-1.1873 -1.16803,-2.35661 -1.8073,-3.50568 -0.63928,-1.14907 -1.31514,-2.27779 -2.02601,-3.384 -0.71087,-1.10621 -1.45696,-2.18979 -2.23656,-3.24869 -0.7796,-1.0589 -1.59291,-2.09297 -2.4381,-3.10029 -0.84519,-1.00732 -1.72245,-1.98773 -2.62982,-2.93942 -0.90738,-0.95169 -1.84505,-1.87449 -2.81096,-2.76671 -0.96591,-0.89222 -1.96022,-1.75369 -2.98078,-2.58285 -1.02055,-0.82917 -2.0675,-1.62584 -3.13858,-2.38861 -1.07109,-0.76277 -2.16646,-1.49143 -3.28377,-2.18473 -1.1173,-0.6933 -2.25668,-1.35102 -3.41571,-1.97206 -1.15903,-0.62104 -2.33783,-1.20518 -3.53392,-1.75146 -1.19608,-0.54628 -2.40956,-1.05448 -3.63788,-1.5238 -1.22833,-0.46932 -2.47159,-0.89952 -3.72721,-1.28999 -1.25562,-0.39047 -2.52366,-0.74096 -3.80152,-1.05101 -1.27785,-0.31005 -2.56557,-0.57941 -3.86052,-0.80778 -1.29495,-0.22838 -2.59716,-0.41553 -3.90398,-0.56131 -1.30683,-0.14579 -2.61829,-0.24997 -3.93173,-0.31258 -1.31344,-0.0626 -2.62886,-0.0834 -3.94363,-0.0626 -1.31477,0.0208 -2.62886,0.0835 -3.93966,0.18767 -1.3108,0.10416 -2.61828,0.25006 -3.91983,0.43716 -1.30155,0.18709 -2.59714,0.41562 -3.88421,0.68489 -1.28706,0.26926 -2.56555,0.57951 -3.83295,0.92986 -1.2674,0.35036 -2.52363,0.74106 -3.76626,1.17109 -1.24262,0.43004 -2.47155,0.89963 -3.6844,1.40761 -1.21284,0.50798 -2.40952,1.05457 -3.5877,1.63845 -1.17819,0.58388 -2.33779,1.20527 -3.47657,1.8627 -1.13878,0.65743 -2.25663,1.35111 -3.35143,2.07944 -1.09479,0.72833 -2.16639,1.49152 -3.21279,2.28782 -1.0464,0.7963 -2.06744,1.62592 -3.06122,2.48698 -0.99379,0.86107 -1.96015,1.75377 -2.89733,2.67613 -0.93717,0.92236 -1.84497,1.87456 -2.72176,2.8545 -0.87678,0.97995 -1.72237,1.9878 -2.53523,3.02138 -0.81287,1.03358 -1.59283,2.09304 -2.33851,3.17609 -0.74568,1.08306 -1.45687,2.18985 -2.13236,3.31801 -0.67548,1.12817 -1.31505,2.27784 -1.91762,3.44658 -0.60257,1.16874 -1.16793,2.35666 -1.69517,3.56126 -0.52723,1.2046 -1.01611,2.42599 -1.46588,3.6616 -0.44977,1.23562 -0.8602,2.48555 -1.2307,3.74721 -0.3705,1.26165 -0.70083,2.5351 -0.99056,3.81771 -0.28974,1.28261 -0.53863,2.57445 -0.74643,3.87285 -0.20781,1.29841 -0.37427,2.60343 -0.4993,3.9124 -0.12503,1.30897 -0.20839,2.62192 -0.25015,3.93619 -0.0418,1.31427 -0.0417,2.62986 0,3.94413 0.0417,1.31427 0.1252,2.62721 0.25015,3.93619 0.12495,1.30898 0.29158,2.61398 0.4993,3.9124 0.20772,1.29842 0.45678,2.59022 0.74643,3.87285 0.28965,1.28263 0.62014,2.55604 0.99056,3.81771 0.37042,1.26168 0.78101,2.51156 1.2307,3.74721 0.44969,1.23564 0.93873,2.45697 1.46588,3.6616 0.52716,1.20464 1.09267,2.39248 1.69517,3.56126 0.6025,1.16878 1.24221,2.31837 1.91762,3.44658 0.67542,1.12821 1.38675,2.23491 2.13236,3.31801 0.74561,1.0831 1.5257,2.14246 2.33851,3.17609 0.8128,1.03363 1.65851,2.04138 2.53523,3.02138 0.87673,0.98 1.78465,1.93208 2.72176,2.8545 0.93712,0.92242 1.9036,1.815 2.89733,2.67613 0.99373,0.86112 2.01487,1.69061 3.06122,2.48698 1.04635,0.79637 2.11805,1.55942 3.21279,2.28782 1.09475,0.7284 2.21269,1.42194 3.35143,2.07944 1.13874,0.6575 2.29842,1.27875 3.47657,1.8627 1.17815,0.58395 2.37489,1.1304 3.5877,1.63845 1.21282,0.50806 2.44181,0.9775 3.6844,1.40761 1.2426,0.43011 2.49889,0.82065 3.76626,1.17109 1.26738,0.35043 2.5459,0.66051 3.83295,0.92986 1.28705,0.26935 2.58267,0.49772 3.88421,0.68489 1.30154,0.18718 2.60904,0.33291 3.91983,0.43716 1.31079,0.10425 2.6249,0.16677 3.93966,0.18767 1.31476,0.0209 2.63019,-5e-5 3.94363,-0.0626 1.31345,-0.0625 2.62489,-0.16687 3.93173,-0.31258 1.30683,-0.1457 2.60902,-0.33301 3.90398,-0.56131 1.29496,-0.22829 2.58265,-0.49781 3.86052,-0.80778 1.27788,-0.30997 2.54588,-0.66062 3.80152,-1.05101 1.25564,-0.39039 2.49885,-0.82075 3.72721,-1.28999 1.22835,-0.46925 2.44176,-0.9776 3.63788,-1.5238 1.19612,-0.5462 2.37485,-1.13049 3.53392,-1.75146 1.15907,-0.62096 2.29836,-1.27883 3.41571,-1.97206 1.11736,-0.69323 2.21263,-1.42203 3.28377,-2.18473 1.07113,-0.7627 2.11798,-1.55951 3.13858,-2.38861 1.02061,-0.8291 2.01481,-1.69069 2.98078,-2.58285 0.96596,-0.89216 1.90352,-1.81508 2.81096,-2.76671 0.90743,-0.95163 1.78457,-1.93215 2.62982,-2.93942 0.84525,-1.00727 1.65843,-2.04144 2.4381,-3.10029 0.77966,-1.05885 1.52562,-2.14252 2.23656,-3.24869 0.71094,-1.10617 1.38665,-2.23497 2.02601,-3.384 0.63935,-1.14903 1.24211,-2.31841 1.8073,-3.50568 0.56519,-1.18727 1.09257,-2.39253 1.58132,-3.61325 0.48875,-1.22072 0.93863,-2.457 1.34897,-3.70627 0.41035,-1.24926 0.78091,-2.51159 1.11119,-3.78436 0.33029,-1.27278 0.62004,-2.55606 0.86894,-3.84722 0.24889,-1.29116 0.45667,-2.59025 0.62318,-3.89459 0.1665,-1.30435 0.29147,-2.61399 0.37491,-3.92627 0.0834,-1.31228 0.1251,-2.62721 0.12514,-3.94215"
       title="1+cos(t) sin(t)"
       id="path3918"
       inkscape:connector-curvature="0" />
    <path
       inkscape:connector-curvature="0"
       id="path3928"
       d="m 358.31623,290.55519 198.15195,92.40246"
       style="color:#000000;fill:#008080;stroke:#1467e1;stroke-width:2;stroke-linecap:butt;stroke-linejoin:round;stroke-miterlimit:4;stroke-opacity:1;stroke-dasharray:none;stroke-dashoffset:0;marker:none;visibility:visible;display:inline;overflow:visible;enable-background:accumulate" />
    <g
       id="g3938"
       transform="matrix(0.56659753,0,0,0.56659753,191.6444,73.401325)">
      <g
         word-spacing="normal"
         letter-spacing="normal"
         font-size-adjust="none"
         font-stretch="normal"
         font-weight="normal"
         font-variant="normal"
         font-style="normal"
         stroke-miterlimit="10.433"
         xml:space="preserve"
         transform="matrix(1.0629921,0,0,-1.0629921,-186.02362,789.27165)"
         id="content"
         style="font-style:normal;font-variant:normal;font-weight:normal;font-stretch:normal;letter-spacing:normal;word-spacing:normal;text-anchor:start;fill:none;stroke:#000000;stroke-linecap:butt;stroke-linejoin:miter;stroke-miterlimit:10.43299961;stroke-opacity:1;stroke-dasharray:none;stroke-dashoffset:0"><path
           id="path3941"
           d="m 464.44,411.93 -0.19,-0.3 -0.18,-0.29 -0.19,-0.28 -0.19,-0.26 -0.18,-0.25 -0.19,-0.23 -0.19,-0.22 -0.18,-0.21 -0.19,-0.2 -0.19,-0.18 -0.18,-0.17 -0.19,-0.16 -0.19,-0.15 -0.18,-0.14 -0.19,-0.13 -0.19,-0.12 -0.19,-0.11 -0.19,-0.1 -0.19,-0.09 -0.19,-0.09 -0.19,-0.07 -0.2,-0.07 -0.19,-0.07 -0.2,-0.05 -0.19,-0.05 -0.2,-0.04 -0.2,-0.04 -0.19,-0.03 -0.41,-0.05 -0.4,-0.03 c -0.61,-0.05 -1.05,-0.05 -1.05,-1 0,-0.3 0.25,-0.55 0.64,-0.55 1.34,0 2.89,0.16 4.28,0.16 1.64,0 3.39,-0.16 4.99,-0.16 0.29,0 0.95,0 0.95,0.95 0,0.55 -0.45,0.6 -0.8,0.6 -1.15,0.09 -2.34,0.5 -2.34,1.73 0,0.61 0.3,1.16 0.69,1.84 l 3.79,6.39 h 12.5 l -0.14,1.54 h -11.42 l 9.83,16.45 1.59,-16.45 0.14,-1.54 c 0.11,-1.04 0.8,-7.82 0.8,-8.32 0,-1.5 -2.59,-1.64 -3.58,-1.64 -0.7,0 -1.2,0 -1.2,-1 0,-0.55 0.59,-0.55 0.7,-0.55 2.03,0 4.19,0.16 6.22,0.16 1.25,0 4.39,-0.16 5.64,-0.16 0.3,0 0.89,0 0.89,1 0,0.55 -0.5,0.55 -1.14,0.55 -3.09,0 -3.09,0.34 -3.25,1.79 l -3.03,31.13 c -0.11,1 -0.11,1.2 -0.95,1.2 -0.8,0 -0.99,-0.34 -1.3,-0.84 z"
           inkscape:connector-curvature="0"
           style="fill:#000000;stroke-width:0" /><path
           id="path3943"
           d="m 509.32,394.25 0,0.02 0,0.03 0,0.01 -0.01,0.02 0,0.01 0,0.02 -0.01,0.01 -0.01,0.02 0,0.02 -0.01,0.02 -0.02,0.02 -0.01,0.03 -0.02,0.02 -0.02,0.03 -0.02,0.03 -0.02,0.03 -0.03,0.03 -0.03,0.04 -0.01,0.02 -0.02,0.02 -0.02,0.02 -0.01,0.02 -0.02,0.02 -0.02,0.03 -0.02,0.02 -0.03,0.02 -0.02,0.03 -0.02,0.02 -0.03,0.03 -0.02,0.03 -0.03,0.03 -0.03,0.03 -0.03,0.03 -0.02,0.03 -0.04,0.03 -0.03,0.03 -0.03,0.04 -0.03,0.03 -0.04,0.04 -0.04,0.03 -0.03,0.04 -0.04,0.04 c -6.22,6.28 -7.82,15.69 -7.82,23.31 0,8.67 1.89,17.35 8.02,23.56 0.64,0.61 0.64,0.71 0.64,0.86 0,0.35 -0.19,0.49 -0.48,0.49 -0.5,0 -4.99,-3.38 -7.93,-9.7 -2.54,-5.49 -3.14,-11.02 -3.14,-15.21 0,-3.89 0.55,-9.9 3.28,-15.54 2.99,-6.13 7.29,-9.36 7.79,-9.36 0.29,0 0.48,0.14 0.48,0.5 z"
           inkscape:connector-curvature="0"
           style="fill:#000000;stroke-width:0" /><path
           id="path3945"
           d="m 535.07,422.14 0,0.74 -0.01,0.75 -0.02,0.75 -0.03,0.74 -0.05,0.75 -0.06,0.74 -0.07,0.74 -0.1,0.73 -0.12,0.73 -0.13,0.73 -0.17,0.72 -0.19,0.72 -0.21,0.72 -0.25,0.7 -0.28,0.7 -0.15,0.35 -0.16,0.34 c -2.28,4.8 -6.37,5.6 -8.47,5.6 -2.98,0 -6.62,-1.3 -8.67,-5.94 -1.59,-3.44 -1.84,-7.33 -1.84,-11.31 0,-3.74 0.2,-8.22 2.25,-12 2.14,-4.03 5.78,-5.03 8.22,-5.03 v 1.09 c -1.94,0 -4.89,1.25 -5.78,6.03 -0.55,2.98 -0.55,7.56 -0.55,10.52 0,3.18 0,6.46 0.41,9.15 0.93,5.94 4.67,6.38 5.92,6.38 1.64,0 4.94,-0.89 5.87,-5.83 0.5,-2.78 0.5,-6.58 0.5,-9.7 0,-3.75 0,-7.13 -0.54,-10.32 -0.75,-4.73 -3.6,-6.23 -5.83,-6.23 h 0 v -1.09 c 2.69,0 6.47,1.04 8.67,5.78 1.59,3.43 1.84,7.31 1.84,11.25 z"
           inkscape:connector-curvature="0"
           style="fill:#000000;stroke-width:0" /><path
           id="path3947"
           d="m 547.22,406.25 0,0.3 -0.02,0.3 -0.01,0.29 -0.03,0.28 -0.03,0.27 -0.04,0.26 -0.04,0.26 -0.05,0.24 -0.06,0.24 -0.07,0.23 -0.07,0.22 -0.07,0.21 -0.09,0.2 -0.09,0.19 -0.09,0.19 -0.1,0.17 -0.11,0.16 -0.11,0.16 -0.12,0.14 -0.12,0.13 -0.13,0.13 -0.13,0.11 -0.14,0.1 -0.15,0.1 -0.15,0.08 -0.15,0.07 -0.16,0.06 -0.16,0.05 -0.17,0.04 -0.17,0.03 -0.18,0.01 -0.18,0.01 c -1.64,0 -2.64,-1.25 -2.64,-2.64 0,-1.34 1,-2.64 2.64,-2.64 0.59,0 1.25,0.2 1.75,0.64 0.14,0.11 0.2,0.16 0.25,0.16 0.05,0 0.09,-0.05 0.09,-0.75 0,-3.69 -1.73,-6.68 -3.39,-8.32 -0.54,-0.54 -0.54,-0.65 -0.54,-0.79 0,-0.36 0.25,-0.55 0.5,-0.55 0.54,0 4.53,3.83 4.53,9.66 z"
           inkscape:connector-curvature="0"
           style="fill:#000000;stroke-width:0" /><path
           id="path3949"
           d="m 585.05,423.14 0.47,0.11 0.48,0.12 0.48,0.14 0.48,0.15 0.48,0.16 0.49,0.18 0.48,0.19 0.47,0.2 0.47,0.22 0.47,0.23 0.45,0.24 0.45,0.25 0.44,0.27 0.43,0.28 0.42,0.29 0.4,0.3 0.39,0.31 0.37,0.32 0.35,0.34 0.34,0.35 0.32,0.35 0.29,0.37 0.28,0.38 0.25,0.39 0.22,0.4 0.2,0.41 0.17,0.42 0.15,0.43 0.11,0.44 0.08,0.45 0.05,0.46 0.02,0.47 c 0,4.28 -4.48,7.47 -11,7.47 h -14.2 c -1,0 -1.46,0 -1.46,-1 0,-0.55 0.46,-0.55 1.41,-0.55 0.09,0 1.05,0 1.89,-0.09 0.89,-0.11 1.34,-0.16 1.34,-0.8 0,-0.2 -0.04,-0.36 -0.2,-0.95 l -6.67,-26.75 c -0.5,-1.95 -0.59,-2.34 -4.53,-2.34 -0.91,0 -1.35,0 -1.35,-1 0,-0.55 0.6,-0.55 0.69,-0.55 1.41,0 4.89,0.16 6.28,0.16 1.39,0 4.94,-0.16 6.33,-0.16 0.41,0 1,0 1,1 0,0.55 -0.45,0.55 -1.39,0.55 -1.84,0 -3.25,0 -3.25,0.89 0,0.29 0.11,0.54 0.16,0.84 l 3.28,13.2 h 5.94 l -0.05,1.11 h -5.6 l 3.26,13 c 0.29,1.19 0.43,1.69 1.39,1.85 0.45,0.04 2.04,0.04 3.03,0.04 3.54,0 9.08,0 9.08,-4.93 0,-1.69 -0.8,-5.13 -2.76,-7.07 -1.28,-1.29 -3.92,-2.89 -8.4,-2.89 l 0.05,-1.11 c 4.53,0 5.42,-2.78 5.42,-4.53 0,-0.75 -0.39,-2.28 -0.69,-3.44 -0.36,-1.39 -0.8,-3.23 -0.8,-4.23 0,-5.37 5.97,-5.37 6.63,-5.37 4.23,0 5.97,5.03 5.97,5.73 0,0.59 -0.55,0.59 -0.6,0.59 -0.45,0 -0.54,-0.36 -0.64,-0.7 -1.25,-3.69 -3.39,-4.53 -4.54,-4.53 -1.64,0 -1.99,1.09 -1.99,3.05 0,1.53 0.3,4.07 0.5,5.67 0.09,0.7 0.2,1.64 0.2,2.34 0,3.83 -3.34,5.38 -4.68,5.88 z"
           inkscape:connector-curvature="0"
           style="fill:#000000;stroke-width:0" /><path
           id="path3951"
           d="m 611.73,418.65 0,0.37 0,0.39 -0.01,0.39 -0.01,0.41 -0.04,0.84 -0.06,0.88 -0.09,0.92 -0.1,0.95 -0.14,0.97 -0.16,1.01 -0.2,1.02 -0.23,1.03 -0.26,1.05 -0.31,1.06 -0.35,1.07 -0.39,1.07 -0.21,0.53 -0.23,0.53 -0.24,0.53 -0.25,0.53 c -2.98,6.12 -7.26,9.36 -7.76,9.36 -0.3,0 -0.5,-0.19 -0.5,-0.49 0,-0.15 0,-0.25 0.93,-1.15 4.9,-4.92 7.74,-12.85 7.74,-23.27 0,-8.51 -1.84,-17.28 -8.03,-23.56 -0.64,-0.59 -0.64,-0.7 -0.64,-0.84 0,-0.3 0.2,-0.5 0.5,-0.5 0.5,0 4.97,3.39 7.92,9.71 2.53,5.47 3.12,11 3.12,15.19 z"
           inkscape:connector-curvature="0"
           style="fill:#000000;stroke-width:0" /></g>    </g>
    <g
       transform="matrix(0.63582244,0,0,0.63582244,242.87361,90.14668)"
       id="g3983">
      <g
         style="font-style:normal;font-variant:normal;font-weight:normal;font-stretch:normal;letter-spacing:normal;word-spacing:normal;text-anchor:start;fill:none;stroke:#000000;stroke-linecap:butt;stroke-linejoin:miter;stroke-miterlimit:10.43299961;stroke-opacity:1;stroke-dasharray:none;stroke-dashoffset:0"
         id="g3985"
         transform="matrix(1.0629921,0,0,-1.0629921,-186.02362,789.27165)"
         xml:space="preserve"
         stroke-miterlimit="10.433"
         font-style="normal"
         font-variant="normal"
         font-weight="normal"
         font-stretch="normal"
         font-size-adjust="none"
         letter-spacing="normal"
         word-spacing="normal"><path
           style="fill:#000000;stroke-width:0"
           inkscape:connector-curvature="0"
           d="m 463.49,410.09 -0.05,-0.18 -0.04,-0.17 -0.05,-0.16 -0.04,-0.15 -0.04,-0.15 -0.05,-0.13 -0.05,-0.13 -0.05,-0.12 -0.05,-0.11 -0.06,-0.11 -0.07,-0.1 -0.07,-0.09 -0.07,-0.09 -0.09,-0.07 -0.09,-0.08 -0.11,-0.06 -0.11,-0.07 -0.13,-0.05 -0.13,-0.05 -0.15,-0.05 -0.16,-0.04 -0.09,-0.02 -0.09,-0.01 -0.09,-0.02 -0.1,-0.02 -0.1,-0.01 -0.1,-0.01 -0.11,-0.01 -0.12,-0.02 -0.11,-0.01 -0.13,-0.01 -0.12,0 -0.13,-0.01 -0.14,-0.01 -0.14,0 -0.14,-0.01 -0.15,0 -0.16,-0.01 -0.16,0 -0.16,0 -0.17,0 -0.18,0 -0.18,0 c -0.85,0 -1.35,0 -1.35,-1 0,-0.55 0.46,-0.55 1.35,-0.55 h 17.78 c 7.87,0 13.75,5.87 13.75,10.76 0,3.58 -2.89,6.47 -7.72,7.02 5.19,0.95 10.42,4.64 10.42,9.38 0,3.68 -3.3,6.87 -9.28,6.87 l -0.69,-1.55 c 4.38,0 5.42,-2.93 5.42,-5.12 0,-4.39 -4.28,-9.13 -10.35,-9.13 h -7.27 l -0.3,-1.09 h 9.41 c 4.78,0 5.73,-3.69 5.73,-5.83 0,-4.94 -4.43,-9.76 -10.31,-9.76 h -6.78 c -0.69,0 -0.8,0 -1.09,0.04 -0.5,0.05 -0.64,0.1 -0.64,0.5 0,0.14 0,0.25 0.25,1.14 l 3.43,13.91 0.3,1.09 3.08,12.36 c 0.45,1.74 0.54,1.89 2.7,1.89 h 6.42 l 0.69,1.55 h -16.73 c -0.94,0 -1.44,0 -1.44,-1 0,-0.55 0.44,-0.55 1.39,-0.55 0.09,0 1.05,0 1.89,-0.09 0.89,-0.11 1.34,-0.16 1.34,-0.8 0,-0.2 -0.04,-0.36 -0.2,-0.95 z"
           id="path3987" /></g>    </g>
    <g
       id="g4025"
       transform="matrix(0.69111135,0,0,0.69111135,343.27773,168.94439)">
      <g
         word-spacing="normal"
         letter-spacing="normal"
         font-size-adjust="none"
         font-stretch="normal"
         font-weight="normal"
         font-variant="normal"
         font-style="normal"
         stroke-miterlimit="10.433"
         xml:space="preserve"
         transform="matrix(1.0629921,0,0,-1.0629921,-186.02362,789.27165)"
         id="g4027"
         style="font-style:normal;font-variant:normal;font-weight:normal;font-stretch:normal;letter-spacing:normal;word-spacing:normal;text-anchor:start;fill:none;stroke:#000000;stroke-linecap:butt;stroke-linejoin:miter;stroke-miterlimit:10.43299961;stroke-opacity:1;stroke-dasharray:none;stroke-dashoffset:0"><path
           id="path4029"
           d="m 470.61,421.95 0.21,1.28 3.39,13.56 c 0.43,1.74 0.54,1.89 2.68,1.89 h 4.79 c 4.14,0 6.78,-1.34 6.78,-4.78 0,-1.95 -1,-6.23 -2.94,-8.03 -2.5,-2.23 -5.48,-2.64 -7.69,-2.64 h -7.01 l -0.21,-1.28 h 8.47 c 7.08,0 14,5.17 14,10.75 0,3.84 -3.28,7.53 -9.81,7.53 h -16.14 c -0.95,0 -1.5,0 -1.5,-0.95 0,-0.6 0.45,-0.6 1.45,-0.6 0.64,0 1.55,-0.04 2.14,-0.09 0.8,-0.11 1.1,-0.25 1.1,-0.8 0,-0.2 -0.05,-0.36 -0.21,-0.95 l -6.67,-26.75 c -0.5,-1.95 -0.59,-2.34 -4.53,-2.34 -0.84,0 -1.39,0 -1.39,-0.96 0,-0.59 0.59,-0.59 0.73,-0.59 1.41,0 4.94,0.16 6.33,0.16 1.05,0 2.14,-0.07 3.19,-0.07 1.11,0 2.2,-0.09 3.25,-0.09 0.34,0 0.98,0 0.98,1 0,0.55 -0.43,0.55 -1.39,0.55 -1.84,0 -3.23,0 -3.23,0.89 0,0.29 0.09,0.54 0.14,0.84 z"
           inkscape:connector-curvature="0"
           style="fill:#000000;stroke-width:0" /></g>    </g>
    <g
       id="g4073"
       transform="matrix(0.55259678,0,0,0.55259678,311.18224,238.42664)">
      <g
         id="g4075"
         transform="matrix(1.0629921,0,0,-1.0629921,-186.02362,789.27165)"
         xml:space="preserve"
         stroke-miterlimit="10.433"
         font-style="normal"
         font-variant="normal"
         font-weight="normal"
         font-stretch="normal"
         font-size-adjust="none"
         letter-spacing="normal"
         word-spacing="normal"
         style="font-style:normal;font-variant:normal;font-weight:normal;font-stretch:normal;letter-spacing:normal;word-spacing:normal;text-anchor:start;fill:none;stroke:#000000;stroke-linecap:butt;stroke-linejoin:miter;stroke-miterlimit:10.43299961;stroke-opacity:1;stroke-dasharray:none;stroke-dashoffset:0"><path
           d="m 493.38,440.82 0,0.02 0,0.02 0,0.01 -0.01,0.02 0,0.02 0,0.02 -0.01,0.02 0,0.02 -0.01,0.02 -0.01,0.02 -0.01,0.02 0,0.02 -0.02,0.02 -0.01,0.02 -0.01,0.02 -0.01,0.02 -0.02,0.02 -0.02,0.02 -0.02,0.02 -0.02,0.02 -0.02,0.01 -0.02,0.02 -0.03,0.01 -0.02,0.02 -0.03,0.01 -0.01,0.01 -0.02,0 -0.01,0.01 -0.02,0 -0.02,0.01 -0.01,0 -0.02,0 -0.02,0.01 -0.02,0 -0.02,0 -0.02,0 -0.02,0 -0.02,0 -0.02,0 c -0.14,0 -0.2,-0.04 -0.75,-0.59 l -3.48,-3.84 c -0.44,0.7 -2.74,4.43 -8.27,4.43 -11.11,0 -22.33,-11.01 -22.33,-22.56 0,-8.23 5.89,-13.65 13.52,-13.65 4.33,0 8.11,1.98 10.75,4.28 4.64,4.09 5.48,8.62 5.48,8.76 0,0.5 -0.5,0.5 -0.59,0.5 -0.3,0 -0.55,-0.09 -0.66,-0.5 -0.43,-1.44 -1.59,-4.98 -5.03,-7.87 -3.43,-2.78 -6.58,-3.63 -9.15,-3.63 -4.49,0 -9.77,2.6 -9.77,10.36 0,2.85 1.05,10.91 6.02,16.74 3.04,3.54 7.73,6.03 12.15,6.03 5.1,0 8.03,-3.83 8.03,-9.61 0,-2 -0.15,-2.05 -0.15,-2.55 0,-0.5 0.54,-0.5 0.75,-0.5 0.64,0 0.64,0.11 0.89,1 z"
           id="path4077"
           inkscape:connector-curvature="0"
           style="fill:#000000;stroke-width:0" /><path
           d="m 502.83,420.92 0,0.04 0,0.04 0,0.05 0,0.04 0,0.03 0,0.04 0,0.04 0,0.03 0,0.04 -0.01,0.03 0,0.03 0,0.03 0,0.03 -0.01,0.03 0,0.03 0,0.02 -0.01,0.03 0,0.02 -0.01,0.03 0,0.02 -0.01,0.04 -0.02,0.04 -0.02,0.03 -0.02,0.03 -0.02,0.03 -0.02,0.03 -0.03,0.02 -0.03,0.02 -0.03,0.02 -0.04,0.01 -0.04,0.01 -0.05,0.02 -0.02,0 -0.02,0 -0.03,0.01 -0.03,0 -0.02,0.01 -0.03,0 -0.03,0 -0.03,0 -0.03,0 -0.04,0.01 -0.03,0 -0.04,0 -0.03,0 -0.04,0 -0.04,0 -0.04,0 -0.04,0 -0.05,0 -0.04,0 -0.04,0 c -2.24,-2.2 -5.4,-2.23 -6.83,-2.23 v -1.25 c 0.84,0 3.14,0 5.04,0.97 v -17.77 c 0,-1.16 0,-1.61 -3.48,-1.61 h -1.31 v -1.25 c 0.62,0.03 4.9,0.14 6.2,0.14 1.08,0 5.47,-0.11 6.23,-0.14 v 1.25 h -1.32 c -3.49,0 -3.49,0.45 -3.49,1.61 z"
           id="path4079"
           inkscape:connector-curvature="0"
           style="fill:#000000;stroke-width:0" /></g>    </g>
    <g
       id="g4131"
       transform="matrix(0.55259678,0,0,0.55259678,130.48408,249.72026)">
      <g
         word-spacing="normal"
         letter-spacing="normal"
         font-size-adjust="none"
         font-stretch="normal"
         font-weight="normal"
         font-variant="normal"
         font-style="normal"
         stroke-miterlimit="10.433"
         xml:space="preserve"
         transform="matrix(1.0629921,0,0,-1.0629921,-186.02362,789.27165)"
         id="g4133"
         style="font-style:normal;font-variant:normal;font-weight:normal;font-stretch:normal;letter-spacing:normal;word-spacing:normal;text-anchor:start;fill:none;stroke:#000000;stroke-linecap:butt;stroke-linejoin:miter;stroke-miterlimit:10.43299961;stroke-opacity:1;stroke-dasharray:none;stroke-dashoffset:0"><path
           id="path4135"
           d="m 493.38,440.82 0,0.02 0,0.02 0,0.01 -0.01,0.02 0,0.02 0,0.02 -0.01,0.02 0,0.02 -0.01,0.02 -0.01,0.02 -0.01,0.02 0,0.02 -0.02,0.02 -0.01,0.02 -0.01,0.02 -0.01,0.02 -0.02,0.02 -0.02,0.02 -0.02,0.02 -0.02,0.02 -0.02,0.01 -0.02,0.02 -0.03,0.01 -0.02,0.02 -0.03,0.01 -0.01,0.01 -0.02,0 -0.01,0.01 -0.02,0 -0.02,0.01 -0.01,0 -0.02,0 -0.02,0.01 -0.02,0 -0.02,0 -0.02,0 -0.02,0 -0.02,0 -0.02,0 c -0.14,0 -0.2,-0.04 -0.75,-0.59 l -3.48,-3.84 c -0.44,0.7 -2.74,4.43 -8.27,4.43 -11.11,0 -22.33,-11.01 -22.33,-22.56 0,-8.23 5.89,-13.65 13.52,-13.65 4.33,0 8.11,1.98 10.75,4.28 4.64,4.09 5.48,8.62 5.48,8.76 0,0.5 -0.5,0.5 -0.59,0.5 -0.3,0 -0.55,-0.09 -0.66,-0.5 -0.43,-1.44 -1.59,-4.98 -5.03,-7.87 -3.43,-2.78 -6.58,-3.63 -9.15,-3.63 -4.49,0 -9.77,2.6 -9.77,10.36 0,2.85 1.05,10.91 6.02,16.74 3.04,3.54 7.73,6.03 12.15,6.03 5.1,0 8.03,-3.83 8.03,-9.61 0,-2 -0.15,-2.05 -0.15,-2.55 0,-0.5 0.54,-0.5 0.75,-0.5 0.64,0 0.64,0.11 0.89,1 z"
           inkscape:connector-curvature="0"
           style="fill:#000000;stroke-width:0" /><path
           id="path4137"
           d="m 508.75,405.11 h -1.18 c -0.1,-0.77 -0.46,-2.83 -0.91,-3.18 -0.27,-0.2 -2.95,-0.2 -3.44,-0.2 h -6.42 c 3.66,3.23 4.88,4.2 6.97,5.84 2.58,2.07 4.98,4.22 4.98,7.54 0,4.21 -3.68,6.79 -8.15,6.79 -4.31,0 -7.25,-3.03 -7.25,-6.23 0,-1.78 1.5,-1.96 1.86,-1.96 0.83,0 1.84,0.6 1.84,1.85 0,0.62 -0.25,1.84 -2.06,1.84 1.08,2.47 3.45,3.24 5.09,3.24 3.49,0 5.3,-2.71 5.3,-5.53 0,-3.04 -2.16,-5.44 -3.28,-6.69 l -8.39,-8.3 c -0.36,-0.31 -0.36,-0.39 -0.36,-1.36 h 14.36 z"
           inkscape:connector-curvature="0"
           style="fill:#000000;stroke-width:0" /></g>    </g>
  </g>
</svg>
