<?xml version="1.0" encoding="UTF-8"?>
<svg xmlns="http://www.w3.org/2000/svg" xmlns:xlink="http://www.w3.org/1999/xlink" width="309.61608pt" height="191.68562pt" viewBox="0 0 309.61608 191.68562" version="1.1">
<g id="surface1">
<path style=" stroke:none;fill-rule:nonzero;fill:rgb(0%,0%,0%);fill-opacity:1;" d="M 0.859375 39.1875 C 1.445312 39.167969 1.738281 38.757812 1.738281 38.328125 C 1.738281 37.722656 1.308594 37.449219 0.878906 37.449219 C 0.449219 37.449219 0 37.703125 0 38.328125 C 0 39.246094 0.898438 40.007812 1.992188 40.007812 C 4.726562 40.007812 5.742188 35.808594 7.011719 30.613281 C 8.398438 24.949219 9.570312 19.226562 10.527344 13.464844 C 11.191406 9.65625 11.855469 6.0625 12.460938 3.757812 C 12.675781 2.878906 13.300781 0.554688 13.984375 0.554688 C 14.550781 0.554688 15 0.90625 15.078125 0.964844 C 14.472656 1.003906 14.179688 1.394531 14.179688 1.84375 C 14.179688 2.449219 14.628906 2.722656 15.039062 2.722656 C 15.46875 2.722656 15.917969 2.46875 15.917969 1.824219 C 15.917969 0.867188 14.941406 0.164062 13.964844 0.164062 C 12.597656 0.164062 11.582031 2.117188 10.605469 5.769531 C 10.546875 5.964844 8.105469 14.96875 6.132812 26.707031 C 5.664062 29.441406 5.15625 32.429688 4.570312 34.929688 C 4.238281 36.238281 3.417969 39.617188 1.953125 39.617188 C 1.308594 39.617188 0.878906 39.1875 0.859375 39.1875 Z M 0.859375 39.1875 "/>
<path style=" stroke:none;fill-rule:nonzero;fill:rgb(0%,0%,0%);fill-opacity:1;" d="M 44.507812 0.449219 C 44.527344 0.371094 44.566406 0.273438 44.566406 0.175781 C 44.566406 0 44.371094 0 44.332031 0 C 44.332031 0 43.453125 0.078125 43.355469 0.078125 C 43.042969 0.0976562 42.789062 0.136719 42.457031 0.15625 C 42.007812 0.195312 41.890625 0.214844 41.890625 0.527344 C 41.890625 0.722656 42.027344 0.722656 42.28125 0.722656 C 43.160156 0.722656 43.179688 0.878906 43.179688 1.054688 C 43.179688 1.171875 43.140625 1.308594 43.121094 1.367188 L 42.027344 5.722656 C 41.832031 5.253906 41.34375 4.53125 40.40625 4.53125 C 38.394531 4.53125 36.207031 7.148438 36.207031 9.804688 C 36.207031 11.582031 37.242188 12.617188 38.453125 12.617188 C 39.449219 12.617188 40.289062 11.855469 40.796875 11.25 C 40.972656 12.324219 41.8125 12.617188 42.359375 12.617188 C 42.886719 12.617188 43.316406 12.304688 43.648438 11.660156 C 43.921875 11.035156 44.175781 9.941406 44.175781 9.882812 C 44.175781 9.785156 44.117188 9.707031 44 9.707031 C 43.84375 9.707031 43.824219 9.804688 43.746094 10.078125 C 43.472656 11.132812 43.140625 12.265625 42.398438 12.265625 C 41.890625 12.265625 41.851562 11.796875 41.851562 11.445312 C 41.851562 11.367188 41.851562 10.996094 41.96875 10.488281 Z M 40.875 10.3125 C 40.796875 10.605469 40.796875 10.644531 40.542969 10.996094 C 40.152344 11.484375 39.351562 12.265625 38.511719 12.265625 C 37.789062 12.265625 37.359375 11.601562 37.359375 10.546875 C 37.359375 9.550781 37.925781 7.539062 38.257812 6.796875 C 38.882812 5.546875 39.722656 4.902344 40.40625 4.902344 C 41.597656 4.902344 41.832031 6.367188 41.832031 6.503906 C 41.832031 6.523438 41.773438 6.757812 41.753906 6.796875 Z M 40.875 10.3125 "/>
<path style=" stroke:none;fill-rule:nonzero;fill:rgb(0%,0%,0%);fill-opacity:1;" d="M 53.105469 5.117188 C 52.539062 5.234375 52.324219 5.664062 52.324219 5.996094 C 52.324219 6.425781 52.65625 6.582031 52.910156 6.582031 C 53.457031 6.582031 53.828125 6.113281 53.828125 5.625 C 53.828125 4.882812 52.96875 4.53125 52.207031 4.53125 C 51.113281 4.53125 50.507812 5.605469 50.351562 5.957031 C 49.941406 4.609375 48.828125 4.53125 48.496094 4.53125 C 46.679688 4.53125 45.703125 6.875 45.703125 7.285156 C 45.703125 7.34375 45.78125 7.441406 45.898438 7.441406 C 46.035156 7.441406 46.074219 7.324219 46.113281 7.265625 C 46.71875 5.273438 47.929688 4.902344 48.4375 4.902344 C 49.257812 4.902344 49.414062 5.644531 49.414062 6.074219 C 49.414062 6.464844 49.316406 6.875 49.082031 7.734375 L 48.476562 10.195312 C 48.222656 11.269531 47.695312 12.265625 46.738281 12.265625 C 46.660156 12.265625 46.210938 12.265625 45.820312 12.03125 C 46.464844 11.894531 46.621094 11.367188 46.621094 11.152344 C 46.621094 10.800781 46.347656 10.585938 46.015625 10.585938 C 45.585938 10.585938 45.117188 10.957031 45.117188 11.523438 C 45.117188 12.285156 45.957031 12.617188 46.71875 12.617188 C 47.578125 12.617188 48.203125 11.933594 48.574219 11.210938 C 48.867188 12.265625 49.746094 12.617188 50.410156 12.617188 C 52.246094 12.617188 53.222656 10.273438 53.222656 9.882812 C 53.222656 9.785156 53.144531 9.707031 53.027344 9.707031 C 52.871094 9.707031 52.851562 9.804688 52.8125 9.941406 C 52.324219 11.523438 51.269531 12.265625 50.46875 12.265625 C 49.84375 12.265625 49.511719 11.796875 49.511719 11.054688 C 49.511719 10.664062 49.570312 10.371094 49.863281 9.199219 L 50.488281 6.757812 C 50.761719 5.683594 51.367188 4.902344 52.1875 4.902344 C 52.226562 4.902344 52.734375 4.902344 53.105469 5.117188 Z M 53.105469 5.117188 "/>
<path style="fill:none;stroke-width:1;stroke-linecap:butt;stroke-linejoin:miter;stroke:rgb(0%,0%,0%);stroke-opacity:1;stroke-miterlimit:10;" d="M -0.126749 -0.487255 L 37.873251 -0.487255 " transform="matrix(1.25,0,0,-1.25,21.420155,20.09015)"/>
<path style=" stroke:none;fill-rule:nonzero;fill:rgb(0%,0%,0%);fill-opacity:1;" d="M 26.578125 25.390625 C 26.578125 24.960938 26.578125 24.960938 26.226562 24.960938 C 25.796875 25.429688 24.898438 26.09375 23.0625 26.09375 L 23.0625 26.621094 C 23.472656 26.621094 24.371094 26.621094 25.347656 26.152344 L 25.347656 35.488281 C 25.347656 36.132812 25.289062 36.347656 23.726562 36.347656 L 23.160156 36.347656 L 23.160156 36.875 C 23.648438 36.835938 25.386719 36.835938 25.972656 36.835938 C 26.558594 36.835938 28.296875 36.835938 28.765625 36.875 L 28.765625 36.347656 L 28.21875 36.347656 C 26.636719 36.347656 26.578125 36.132812 26.578125 35.488281 Z M 26.578125 25.390625 "/>
<path style=" stroke:none;fill-rule:nonzero;fill:rgb(0%,0%,0%);fill-opacity:1;" d="M 41.328125 32.734375 L 46.289062 32.734375 C 46.542969 32.734375 46.855469 32.734375 46.855469 32.402344 C 46.855469 32.070312 46.542969 32.070312 46.289062 32.070312 L 41.328125 32.070312 L 41.328125 27.128906 C 41.328125 26.875 41.328125 26.542969 41.015625 26.542969 C 40.664062 26.542969 40.664062 26.855469 40.664062 27.128906 L 40.664062 32.070312 L 35.722656 32.070312 C 35.46875 32.070312 35.15625 32.070312 35.15625 32.402344 C 35.15625 32.734375 35.449219 32.734375 35.722656 32.734375 L 40.664062 32.734375 L 40.664062 37.675781 C 40.664062 37.929688 40.664062 38.261719 40.996094 38.261719 C 41.328125 38.261719 41.328125 37.949219 41.328125 37.675781 Z M 41.328125 32.734375 "/>
<path style=" stroke:none;fill-rule:nonzero;fill:rgb(0%,0%,0%);fill-opacity:1;" d="M 60.324219 29.550781 C 59.757812 29.667969 59.542969 30.097656 59.542969 30.429688 C 59.542969 30.859375 59.875 31.015625 60.128906 31.015625 C 60.675781 31.015625 61.046875 30.546875 61.046875 30.058594 C 61.046875 29.316406 60.1875 28.964844 59.425781 28.964844 C 58.332031 28.964844 57.726562 30.039062 57.570312 30.390625 C 57.160156 29.042969 56.046875 28.964844 55.714844 28.964844 C 53.898438 28.964844 52.921875 31.308594 52.921875 31.71875 C 52.921875 31.777344 53 31.875 53.117188 31.875 C 53.253906 31.875 53.292969 31.757812 53.332031 31.699219 C 53.9375 29.707031 55.148438 29.335938 55.65625 29.335938 C 56.476562 29.335938 56.632812 30.078125 56.632812 30.507812 C 56.632812 30.898438 56.535156 31.308594 56.300781 32.167969 L 55.695312 34.628906 C 55.441406 35.703125 54.914062 36.699219 53.957031 36.699219 C 53.878906 36.699219 53.429688 36.699219 53.039062 36.464844 C 53.683594 36.328125 53.839844 35.800781 53.839844 35.585938 C 53.839844 35.234375 53.566406 35.019531 53.234375 35.019531 C 52.804688 35.019531 52.335938 35.390625 52.335938 35.957031 C 52.335938 36.71875 53.175781 37.050781 53.9375 37.050781 C 54.796875 37.050781 55.421875 36.367188 55.792969 35.644531 C 56.085938 36.699219 56.964844 37.050781 57.628906 37.050781 C 59.464844 37.050781 60.441406 34.707031 60.441406 34.316406 C 60.441406 34.21875 60.363281 34.140625 60.246094 34.140625 C 60.089844 34.140625 60.070312 34.238281 60.03125 34.375 C 59.542969 35.957031 58.488281 36.699219 57.6875 36.699219 C 57.0625 36.699219 56.730469 36.230469 56.730469 35.488281 C 56.730469 35.097656 56.789062 34.804688 57.082031 33.632812 L 57.707031 31.191406 C 57.980469 30.117188 58.585938 29.335938 59.40625 29.335938 C 59.445312 29.335938 59.953125 29.335938 60.324219 29.550781 Z M 60.324219 29.550781 "/>
<path style=" stroke:none;fill-rule:nonzero;fill:rgb(0%,0%,0%);fill-opacity:1;" d="M 63.386719 30.738281 L 64.714844 29.449219 C 66.648438 27.730469 67.390625 27.066406 67.390625 25.816406 C 67.390625 24.390625 66.277344 23.394531 64.753906 23.394531 C 63.347656 23.394531 62.429688 24.546875 62.429688 25.660156 C 62.429688 26.34375 63.054688 26.34375 63.09375 26.34375 C 63.308594 26.34375 63.738281 26.207031 63.738281 25.679688 C 63.738281 25.367188 63.503906 25.035156 63.074219 25.035156 C 62.976562 25.035156 62.957031 25.035156 62.917969 25.054688 C 63.191406 24.234375 63.875 23.785156 64.597656 23.785156 C 65.730469 23.785156 66.257812 24.800781 66.257812 25.816406 C 66.257812 26.8125 65.652344 27.789062 64.949219 28.570312 L 62.566406 31.226562 C 62.429688 31.363281 62.429688 31.402344 62.429688 31.695312 L 67.058594 31.695312 L 67.390625 29.527344 L 67.097656 29.527344 C 67.019531 29.898438 66.941406 30.445312 66.804688 30.640625 C 66.726562 30.738281 65.90625 30.738281 65.632812 30.738281 Z M 63.386719 30.738281 "/>
<path style=" stroke:none;fill-rule:nonzero;fill:rgb(0%,0%,0%);fill-opacity:1;" d="M 87.238281 18.773438 C 87.492188 18.773438 87.804688 18.773438 87.804688 18.441406 C 87.804688 18.109375 87.492188 18.109375 87.238281 18.109375 L 76.671875 18.109375 C 76.417969 18.109375 76.105469 18.109375 76.105469 18.421875 C 76.105469 18.773438 76.398438 18.773438 76.671875 18.773438 Z M 87.238281 22.09375 C 87.492188 22.09375 87.804688 22.09375 87.804688 21.78125 C 87.804688 21.429688 87.492188 21.429688 87.238281 21.429688 L 76.671875 21.429688 C 76.417969 21.429688 76.105469 21.429688 76.105469 21.761719 C 76.105469 22.09375 76.398438 22.09375 76.671875 22.09375 Z M 87.238281 22.09375 "/>
<path style=" stroke:none;fill-rule:nonzero;fill:rgb(0%,0%,0%);fill-opacity:1;" d="M 96.78125 17.367188 L 99.320312 17.367188 L 99.320312 16.839844 L 96.78125 16.839844 L 96.78125 13.539062 L 96.390625 13.539062 C 96.371094 15.238281 95.726562 16.957031 94.105469 17.015625 L 94.105469 17.367188 L 95.628906 17.367188 L 95.628906 22.347656 C 95.628906 24.339844 96.9375 24.75 97.894531 24.75 C 99.027344 24.75 99.613281 23.636719 99.613281 22.347656 L 99.613281 21.332031 L 99.222656 21.332031 L 99.222656 22.308594 C 99.222656 23.597656 98.695312 24.359375 98.011719 24.359375 C 96.78125 24.359375 96.78125 22.699219 96.78125 22.386719 Z M 96.78125 17.367188 "/>
<path style=" stroke:none;fill-rule:nonzero;fill:rgb(0%,0%,0%);fill-opacity:1;" d="M 107.515625 19.789062 C 107.515625 18.8125 107.515625 18.109375 106.734375 17.40625 C 106.109375 16.820312 105.308594 16.585938 104.507812 16.585938 C 103.042969 16.585938 101.910156 17.542969 101.910156 18.714844 C 101.910156 19.222656 102.242188 19.476562 102.671875 19.476562 C 103.101562 19.476562 103.394531 19.183594 103.394531 18.753906 C 103.394531 18.011719 102.75 18.011719 102.476562 18.011719 C 102.90625 17.25 103.765625 16.9375 104.46875 16.9375 C 105.308594 16.9375 106.363281 17.621094 106.363281 19.222656 L 106.363281 19.945312 C 102.75 20.003906 101.382812 21.507812 101.382812 22.894531 C 101.382812 24.300781 103.042969 24.75 104.136719 24.75 C 105.308594 24.75 106.128906 24.027344 106.460938 23.167969 C 106.539062 24.027344 107.085938 24.671875 107.867188 24.671875 C 108.238281 24.671875 109.273438 24.417969 109.273438 22.972656 L 109.273438 21.976562 L 108.882812 21.976562 L 108.882812 22.972656 C 108.882812 24.007812 108.453125 24.144531 108.199219 24.144531 C 107.515625 24.144531 107.515625 23.1875 107.515625 22.933594 Z M 106.363281 22.054688 C 106.363281 23.8125 105.054688 24.398438 104.273438 24.398438 C 103.394531 24.398438 102.671875 23.753906 102.671875 22.894531 C 102.671875 20.53125 105.71875 20.316406 106.363281 20.277344 Z M 106.363281 22.054688 "/>
<path style=" stroke:none;fill-rule:nonzero;fill:rgb(0%,0%,0%);fill-opacity:1;" d="M 117.367188 20.21875 C 117.367188 18.558594 117.367188 18.050781 116.9375 17.464844 C 116.429688 16.78125 115.589844 16.664062 114.964844 16.664062 C 113.226562 16.664062 112.542969 18.148438 112.40625 18.519531 L 112.386719 18.519531 L 112.386719 16.664062 L 109.945312 16.859375 L 109.945312 17.386719 C 111.175781 17.386719 111.3125 17.503906 111.3125 18.382812 L 111.3125 23.246094 C 111.3125 24.046875 111.117188 24.046875 109.945312 24.046875 L 109.945312 24.574219 C 110.414062 24.535156 111.390625 24.535156 111.898438 24.535156 C 112.40625 24.535156 113.382812 24.535156 113.851562 24.574219 L 113.851562 24.046875 C 112.699219 24.046875 112.484375 24.046875 112.484375 23.246094 L 112.484375 19.90625 C 112.484375 18.03125 113.714844 17.035156 114.828125 17.035156 C 115.941406 17.035156 116.195312 17.933594 116.195312 19.027344 L 116.195312 23.246094 C 116.195312 24.046875 116 24.046875 114.828125 24.046875 L 114.828125 24.574219 C 115.296875 24.535156 116.273438 24.535156 116.761719 24.535156 C 117.289062 24.535156 118.246094 24.535156 118.714844 24.574219 L 118.714844 24.046875 C 117.816406 24.046875 117.367188 24.046875 117.367188 23.519531 Z M 117.367188 20.21875 "/>
<path style=" stroke:none;fill-rule:nonzero;fill:rgb(0%,0%,0%);fill-opacity:1;" d="M 127.332031 14.296875 C 127.546875 14.296875 127.78125 14.296875 127.78125 14.042969 C 127.78125 13.808594 127.546875 13.808594 127.332031 13.808594 L 120.59375 13.808594 C 120.378906 13.808594 120.164062 13.808594 120.164062 14.042969 C 120.164062 14.296875 120.378906 14.296875 120.59375 14.296875 Z M 127.332031 14.296875 "/>
<path style=" stroke:none;fill-rule:nonzero;fill:rgb(0%,0%,0%);fill-opacity:1;" d="M 132.488281 9.199219 C 132.488281 8.886719 132.488281 8.867188 132.195312 8.867188 C 131.414062 9.667969 130.320312 9.667969 129.929688 9.667969 L 129.929688 10.058594 C 130.183594 10.058594 130.90625 10.058594 131.550781 9.726562 L 131.550781 16.191406 C 131.550781 16.640625 131.511719 16.777344 130.398438 16.777344 L 130.007812 16.777344 L 130.007812 17.167969 C 130.4375 17.128906 131.511719 17.128906 132.019531 17.128906 C 132.507812 17.128906 133.601562 17.128906 134.03125 17.167969 L 134.03125 16.777344 L 133.640625 16.777344 C 132.507812 16.777344 132.488281 16.640625 132.488281 16.191406 Z M 132.488281 9.199219 "/>
<path style=" stroke:none;fill-rule:nonzero;fill:rgb(0%,0%,0%);fill-opacity:1;" d="M 144.160156 17.25 C 143.59375 17.367188 143.378906 17.796875 143.378906 18.128906 C 143.378906 18.558594 143.710938 18.714844 143.964844 18.714844 C 144.511719 18.714844 144.882812 18.246094 144.882812 17.757812 C 144.882812 17.015625 144.023438 16.664062 143.261719 16.664062 C 142.167969 16.664062 141.5625 17.738281 141.40625 18.089844 C 140.996094 16.742188 139.882812 16.664062 139.550781 16.664062 C 137.734375 16.664062 136.757812 19.007812 136.757812 19.417969 C 136.757812 19.476562 136.835938 19.574219 136.953125 19.574219 C 137.089844 19.574219 137.128906 19.457031 137.167969 19.398438 C 137.773438 17.40625 138.984375 17.035156 139.492188 17.035156 C 140.3125 17.035156 140.46875 17.777344 140.46875 18.207031 C 140.46875 18.597656 140.371094 19.007812 140.136719 19.867188 L 139.53125 22.328125 C 139.277344 23.402344 138.75 24.398438 137.792969 24.398438 C 137.714844 24.398438 137.265625 24.398438 136.875 24.164062 C 137.519531 24.027344 137.675781 23.5 137.675781 23.285156 C 137.675781 22.933594 137.402344 22.71875 137.070312 22.71875 C 136.640625 22.71875 136.171875 23.089844 136.171875 23.65625 C 136.171875 24.417969 137.011719 24.75 137.773438 24.75 C 138.632812 24.75 139.257812 24.066406 139.628906 23.34375 C 139.921875 24.398438 140.800781 24.75 141.464844 24.75 C 143.300781 24.75 144.277344 22.40625 144.277344 22.015625 C 144.277344 21.917969 144.199219 21.839844 144.082031 21.839844 C 143.925781 21.839844 143.90625 21.9375 143.867188 22.074219 C 143.378906 23.65625 142.324219 24.398438 141.523438 24.398438 C 140.898438 24.398438 140.566406 23.929688 140.566406 23.1875 C 140.566406 22.796875 140.625 22.503906 140.917969 21.332031 L 141.542969 18.890625 C 141.816406 17.816406 142.421875 17.035156 143.242188 17.035156 C 143.28125 17.035156 143.789062 17.035156 144.160156 17.25 Z M 144.160156 17.25 "/>
<path style=" stroke:none;fill-rule:nonzero;fill:rgb(0%,0%,0%);fill-opacity:1;" d="M 156.777344 20.433594 L 161.738281 20.433594 C 161.992188 20.433594 162.304688 20.433594 162.304688 20.101562 C 162.304688 19.769531 161.992188 19.769531 161.738281 19.769531 L 156.777344 19.769531 L 156.777344 14.828125 C 156.777344 14.574219 156.777344 14.242188 156.464844 14.242188 C 156.113281 14.242188 156.113281 14.554688 156.113281 14.828125 L 156.113281 19.769531 L 151.171875 19.769531 C 150.917969 19.769531 150.605469 19.769531 150.605469 20.101562 C 150.605469 20.433594 150.898438 20.433594 151.171875 20.433594 L 156.113281 20.433594 L 156.113281 25.375 C 156.113281 25.628906 156.113281 25.960938 156.445312 25.960938 C 156.777344 25.960938 156.777344 25.648438 156.777344 25.375 Z M 156.777344 20.433594 "/>
<path style=" stroke:none;fill-rule:nonzero;fill:rgb(0%,0%,0%);fill-opacity:1;" d="M 180.667969 12.113281 C 180.667969 11.957031 180.53125 11.957031 180.492188 11.957031 C 180.472656 11.957031 180.394531 11.957031 180.257812 12.132812 L 179.007812 13.636719 C 178.382812 12.5625 177.40625 11.957031 176.058594 11.957031 C 172.191406 11.957031 168.167969 15.882812 168.167969 20.101562 C 168.167969 23.089844 170.257812 24.945312 172.875 24.945312 C 174.320312 24.945312 175.570312 24.339844 176.605469 23.460938 C 178.167969 22.152344 178.636719 20.414062 178.636719 20.277344 C 178.636719 20.101562 178.5 20.101562 178.441406 20.101562 C 178.285156 20.101562 178.265625 20.21875 178.226562 20.296875 C 177.40625 23.089844 174.984375 24.4375 173.1875 24.4375 C 171.292969 24.4375 169.632812 23.207031 169.632812 20.667969 C 169.632812 20.101562 169.808594 16.976562 171.839844 14.632812 C 172.835938 13.480469 174.515625 12.464844 176.214844 12.464844 C 178.1875 12.464844 179.066406 14.105469 179.066406 15.941406 C 179.066406 16.390625 179.007812 16.800781 179.007812 16.859375 C 179.007812 17.035156 179.183594 17.035156 179.242188 17.035156 C 179.4375 17.035156 179.457031 17.015625 179.535156 16.683594 Z M 180.667969 12.113281 "/>
<path style=" stroke:none;fill-rule:nonzero;fill:rgb(0%,0%,0%);fill-opacity:1;" d="M 198.210938 18.773438 C 198.464844 18.773438 198.777344 18.773438 198.777344 18.441406 C 198.777344 18.109375 198.464844 18.109375 198.210938 18.109375 L 187.644531 18.109375 C 187.390625 18.109375 187.078125 18.109375 187.078125 18.421875 C 187.078125 18.773438 187.371094 18.773438 187.644531 18.773438 Z M 198.210938 22.09375 C 198.464844 22.09375 198.777344 22.09375 198.777344 21.78125 C 198.777344 21.429688 198.464844 21.429688 198.210938 21.429688 L 187.644531 21.429688 C 187.390625 21.429688 187.078125 21.429688 187.078125 21.761719 C 187.078125 22.09375 187.371094 22.09375 187.644531 22.09375 Z M 198.210938 22.09375 "/>
<path style=" stroke:none;fill-rule:nonzero;fill:rgb(0%,0%,0%);fill-opacity:1;" d="M 216.554688 20.453125 C 216.867188 20.453125 217.179688 20.453125 217.179688 20.101562 C 217.179688 19.730469 216.867188 19.730469 216.554688 19.730469 L 206.847656 19.730469 C 206.554688 19.730469 206.222656 19.730469 206.222656 20.101562 C 206.222656 20.453125 206.554688 20.453125 206.847656 20.453125 Z M 216.554688 20.453125 "/>
<path style=" stroke:none;fill-rule:nonzero;fill:rgb(0%,0%,0%);fill-opacity:1;" d="M 228.160156 17.933594 C 227.945312 17.933594 227.28125 17.933594 227.28125 18.675781 C 227.28125 19.105469 227.59375 19.417969 228.023438 19.417969 C 228.433594 19.417969 228.785156 19.164062 228.785156 18.636719 C 228.785156 17.445312 227.515625 16.585938 226.070312 16.585938 C 223.980469 16.585938 222.300781 18.441406 222.300781 20.707031 C 222.300781 22.992188 224.019531 24.75 226.050781 24.75 C 228.414062 24.75 228.960938 22.601562 228.960938 22.445312 C 228.960938 22.269531 228.824219 22.269531 228.785156 22.269531 C 228.609375 22.269531 228.589844 22.328125 228.550781 22.542969 C 228.140625 23.8125 227.183594 24.359375 226.207031 24.359375 C 225.113281 24.359375 223.667969 23.402344 223.667969 20.6875 C 223.667969 17.699219 225.191406 16.976562 226.089844 16.976562 C 226.773438 16.976562 227.75 17.25 228.160156 17.933594 Z M 228.160156 17.933594 "/>
<path style=" stroke:none;fill-rule:nonzero;fill:rgb(0%,0%,0%);fill-opacity:1;" d="M 237.703125 20.746094 C 237.703125 18.421875 235.945312 16.585938 233.875 16.585938 C 231.726562 16.585938 230.027344 18.480469 230.027344 20.746094 C 230.027344 23.03125 231.804688 24.75 233.855469 24.75 C 235.964844 24.75 237.703125 22.992188 237.703125 20.746094 Z M 233.875 24.359375 C 233.210938 24.359375 232.410156 24.066406 231.882812 23.1875 C 231.394531 22.386719 231.375 21.332031 231.375 20.570312 C 231.375 19.886719 231.375 18.792969 231.941406 17.992188 C 232.429688 17.230469 233.230469 16.9375 233.855469 16.9375 C 234.558594 16.9375 235.300781 17.25 235.789062 17.953125 C 236.355469 18.773438 236.355469 19.90625 236.355469 20.570312 C 236.355469 21.195312 236.355469 22.308594 235.886719 23.148438 C 235.378906 24.027344 234.558594 24.359375 233.875 24.359375 Z M 233.875 24.359375 "/>
<path style=" stroke:none;fill-rule:nonzero;fill:rgb(0%,0%,0%);fill-opacity:1;" d="M 241.269531 17.367188 L 243.808594 17.367188 L 243.808594 16.839844 L 241.269531 16.839844 L 241.269531 13.539062 L 240.878906 13.539062 C 240.859375 15.238281 240.214844 16.957031 238.59375 17.015625 L 238.59375 17.367188 L 240.117188 17.367188 L 240.117188 22.347656 C 240.117188 24.339844 241.425781 24.75 242.382812 24.75 C 243.515625 24.75 244.101562 23.636719 244.101562 22.347656 L 244.101562 21.332031 L 243.710938 21.332031 L 243.710938 22.308594 C 243.710938 23.597656 243.183594 24.359375 242.5 24.359375 C 241.269531 24.359375 241.269531 22.699219 241.269531 22.386719 Z M 241.269531 17.367188 "/>
<path style=" stroke:none;fill-rule:nonzero;fill:rgb(0%,0%,0%);fill-opacity:1;" d="M 253.292969 14.296875 C 253.507812 14.296875 253.742188 14.296875 253.742188 14.042969 C 253.742188 13.808594 253.507812 13.808594 253.292969 13.808594 L 246.554688 13.808594 C 246.339844 13.808594 246.125 13.808594 246.125 14.042969 C 246.125 14.296875 246.339844 14.296875 246.554688 14.296875 Z M 253.292969 14.296875 "/>
<path style=" stroke:none;fill-rule:nonzero;fill:rgb(0%,0%,0%);fill-opacity:1;" d="M 258.445312 9.199219 C 258.445312 8.886719 258.445312 8.867188 258.152344 8.867188 C 257.371094 9.667969 256.277344 9.667969 255.886719 9.667969 L 255.886719 10.058594 C 256.140625 10.058594 256.863281 10.058594 257.507812 9.726562 L 257.507812 16.191406 C 257.507812 16.640625 257.46875 16.777344 256.355469 16.777344 L 255.964844 16.777344 L 255.964844 17.167969 C 256.394531 17.128906 257.46875 17.128906 257.976562 17.128906 C 258.464844 17.128906 259.558594 17.128906 259.988281 17.167969 L 259.988281 16.777344 L 259.597656 16.777344 C 258.464844 16.777344 258.445312 16.640625 258.445312 16.191406 Z M 258.445312 9.199219 "/>
<path style=" stroke:none;fill-rule:nonzero;fill:rgb(0%,0%,0%);fill-opacity:1;" d="M 273.109375 17.25 C 272.542969 17.367188 272.328125 17.796875 272.328125 18.128906 C 272.328125 18.558594 272.660156 18.714844 272.914062 18.714844 C 273.460938 18.714844 273.832031 18.246094 273.832031 17.757812 C 273.832031 17.015625 272.972656 16.664062 272.210938 16.664062 C 271.117188 16.664062 270.511719 17.738281 270.355469 18.089844 C 269.945312 16.742188 268.832031 16.664062 268.5 16.664062 C 266.683594 16.664062 265.707031 19.007812 265.707031 19.417969 C 265.707031 19.476562 265.785156 19.574219 265.902344 19.574219 C 266.039062 19.574219 266.078125 19.457031 266.117188 19.398438 C 266.722656 17.40625 267.933594 17.035156 268.441406 17.035156 C 269.261719 17.035156 269.417969 17.777344 269.417969 18.207031 C 269.417969 18.597656 269.320312 19.007812 269.085938 19.867188 L 268.480469 22.328125 C 268.226562 23.402344 267.699219 24.398438 266.742188 24.398438 C 266.664062 24.398438 266.214844 24.398438 265.824219 24.164062 C 266.46875 24.027344 266.625 23.5 266.625 23.285156 C 266.625 22.933594 266.351562 22.71875 266.019531 22.71875 C 265.589844 22.71875 265.121094 23.089844 265.121094 23.65625 C 265.121094 24.417969 265.960938 24.75 266.722656 24.75 C 267.582031 24.75 268.207031 24.066406 268.578125 23.34375 C 268.871094 24.398438 269.75 24.75 270.414062 24.75 C 272.25 24.75 273.226562 22.40625 273.226562 22.015625 C 273.226562 21.917969 273.148438 21.839844 273.03125 21.839844 C 272.875 21.839844 272.855469 21.9375 272.816406 22.074219 C 272.328125 23.65625 271.273438 24.398438 270.472656 24.398438 C 269.847656 24.398438 269.515625 23.929688 269.515625 23.1875 C 269.515625 22.796875 269.574219 22.503906 269.867188 21.332031 L 270.492188 18.890625 C 270.765625 17.816406 271.371094 17.035156 272.191406 17.035156 C 272.230469 17.035156 272.738281 17.035156 273.109375 17.25 Z M 273.109375 17.25 "/>
<path style=" stroke:none;fill-rule:nonzero;fill:rgb(0%,0%,0%);fill-opacity:1;" d="M 285.726562 20.433594 L 290.6875 20.433594 C 290.941406 20.433594 291.253906 20.433594 291.253906 20.101562 C 291.253906 19.769531 290.941406 19.769531 290.6875 19.769531 L 285.726562 19.769531 L 285.726562 14.828125 C 285.726562 14.574219 285.726562 14.242188 285.414062 14.242188 C 285.0625 14.242188 285.0625 14.554688 285.0625 14.828125 L 285.0625 19.769531 L 280.121094 19.769531 C 279.867188 19.769531 279.554688 19.769531 279.554688 20.101562 C 279.554688 20.433594 279.847656 20.433594 280.121094 20.433594 L 285.0625 20.433594 L 285.0625 25.375 C 285.0625 25.628906 285.0625 25.960938 285.394531 25.960938 C 285.726562 25.960938 285.726562 25.648438 285.726562 25.375 Z M 285.726562 20.433594 "/>
<path style=" stroke:none;fill-rule:nonzero;fill:rgb(0%,0%,0%);fill-opacity:1;" d="M 309.617188 12.113281 C 309.617188 11.957031 309.480469 11.957031 309.441406 11.957031 C 309.421875 11.957031 309.34375 11.957031 309.207031 12.132812 L 307.957031 13.636719 C 307.332031 12.5625 306.355469 11.957031 305.007812 11.957031 C 301.140625 11.957031 297.117188 15.882812 297.117188 20.101562 C 297.117188 23.089844 299.207031 24.945312 301.824219 24.945312 C 303.269531 24.945312 304.519531 24.339844 305.554688 23.460938 C 307.117188 22.152344 307.585938 20.414062 307.585938 20.277344 C 307.585938 20.101562 307.449219 20.101562 307.390625 20.101562 C 307.234375 20.101562 307.214844 20.21875 307.175781 20.296875 C 306.355469 23.089844 303.933594 24.4375 302.136719 24.4375 C 300.242188 24.4375 298.582031 23.207031 298.582031 20.667969 C 298.582031 20.101562 298.757812 16.976562 300.789062 14.632812 C 301.785156 13.480469 303.464844 12.464844 305.164062 12.464844 C 307.136719 12.464844 308.015625 14.105469 308.015625 15.941406 C 308.015625 16.390625 307.957031 16.800781 307.957031 16.859375 C 307.957031 17.035156 308.132812 17.035156 308.191406 17.035156 C 308.386719 17.035156 308.40625 17.015625 308.484375 16.683594 Z M 309.617188 12.113281 "/>
<path style=" stroke:none;fill-rule:nonzero;fill:rgb(0%,0%,0%);fill-opacity:1;" d="M 47.648438 88.296875 C 47.648438 87.769531 47.21875 87.339844 46.710938 87.339844 C 46.183594 87.339844 45.753906 87.769531 45.753906 88.296875 C 45.753906 88.804688 46.183594 89.234375 46.710938 89.234375 C 47.199219 89.234375 47.648438 88.824219 47.648438 88.296875 Z M 52.140625 96.050781 C 52.140625 95.542969 51.710938 95.113281 51.183594 95.113281 C 50.675781 95.113281 50.246094 95.542969 50.246094 96.050781 C 50.246094 96.578125 50.675781 97.007812 51.183594 97.007812 C 51.710938 97.007812 52.140625 96.578125 52.140625 96.050781 Z M 43.175781 96.050781 C 43.175781 95.542969 42.746094 95.113281 42.21875 95.113281 C 41.710938 95.113281 41.28125 95.542969 41.28125 96.050781 C 41.28125 96.578125 41.710938 97.007812 42.21875 97.007812 C 42.746094 97.007812 43.175781 96.578125 43.175781 96.050781 Z M 43.175781 96.050781 "/>
<path style=" stroke:none;fill-rule:nonzero;fill:rgb(0%,0%,0%);fill-opacity:1;" d="M 59.527344 110.277344 C 60.113281 110.257812 60.40625 109.847656 60.40625 109.417969 C 60.40625 108.8125 59.976562 108.539062 59.546875 108.539062 C 59.117188 108.539062 58.667969 108.792969 58.667969 109.417969 C 58.667969 110.335938 59.566406 111.097656 60.660156 111.097656 C 63.394531 111.097656 64.410156 106.898438 65.679688 101.703125 C 67.066406 96.039062 68.238281 90.316406 69.195312 84.554688 C 69.859375 80.746094 70.523438 77.152344 71.128906 74.847656 C 71.34375 73.96875 71.96875 71.644531 72.652344 71.644531 C 73.21875 71.644531 73.667969 71.996094 73.746094 72.054688 C 73.140625 72.09375 72.847656 72.484375 72.847656 72.933594 C 72.847656 73.539062 73.296875 73.8125 73.707031 73.8125 C 74.136719 73.8125 74.585938 73.558594 74.585938 72.914062 C 74.585938 71.957031 73.609375 71.253906 72.632812 71.253906 C 71.265625 71.253906 70.25 73.207031 69.273438 76.859375 C 69.214844 77.054688 66.773438 86.058594 64.800781 97.796875 C 64.332031 100.53125 63.824219 103.519531 63.238281 106.019531 C 62.90625 107.328125 62.085938 110.707031 60.621094 110.707031 C 59.976562 110.707031 59.546875 110.277344 59.527344 110.277344 Z M 59.527344 110.277344 "/>
<path style=" stroke:none;fill-rule:nonzero;fill:rgb(0%,0%,0%);fill-opacity:1;" d="M 79.277344 68.09375 C 79.277344 67.78125 79.277344 67.761719 78.984375 67.761719 C 78.203125 68.5625 77.109375 68.5625 76.71875 68.5625 L 76.71875 68.953125 C 76.972656 68.953125 77.695312 68.953125 78.339844 68.621094 L 78.339844 75.085938 C 78.339844 75.535156 78.300781 75.671875 77.1875 75.671875 L 76.796875 75.671875 L 76.796875 76.0625 C 77.226562 76.023438 78.300781 76.023438 78.808594 76.023438 C 79.296875 76.023438 80.390625 76.023438 80.820312 76.0625 L 80.820312 75.671875 L 80.429688 75.671875 C 79.296875 75.671875 79.277344 75.535156 79.277344 75.085938 Z M 79.277344 68.09375 "/>
<path style=" stroke:none;fill-rule:nonzero;fill:rgb(0%,0%,0%);fill-opacity:1;" d="M 73.359375 107.742188 C 73.359375 106.746094 73.300781 105.75 72.871094 104.832031 C 72.304688 103.621094 71.269531 103.425781 70.761719 103.425781 C 70 103.425781 69.101562 103.757812 68.574219 104.910156 C 68.183594 105.769531 68.125 106.746094 68.125 107.742188 C 68.125 108.679688 68.164062 109.792969 68.691406 110.75 C 69.21875 111.746094 70.136719 112 70.742188 112 C 71.40625 112 72.363281 111.746094 72.910156 110.554688 C 73.300781 109.695312 73.359375 108.71875 73.359375 107.742188 Z M 70.742188 111.726562 C 70.253906 111.726562 69.511719 111.414062 69.296875 110.222656 C 69.160156 109.480469 69.160156 108.328125 69.160156 107.585938 C 69.160156 106.785156 69.160156 105.964844 69.257812 105.300781 C 69.492188 103.816406 70.429688 103.699219 70.742188 103.699219 C 71.152344 103.699219 71.972656 103.933594 72.207031 105.164062 C 72.34375 105.867188 72.34375 106.804688 72.34375 107.585938 C 72.34375 108.523438 72.34375 109.363281 72.207031 110.164062 C 72.011719 111.355469 71.308594 111.726562 70.742188 111.726562 Z M 70.742188 111.726562 "/>
<path style=" stroke:none;fill-rule:nonzero;fill:rgb(0%,0%,0%);fill-opacity:1;" d="M 110.027344 71.539062 C 110.046875 71.460938 110.085938 71.363281 110.085938 71.265625 C 110.085938 71.089844 109.890625 71.089844 109.851562 71.089844 C 109.851562 71.089844 108.972656 71.167969 108.875 71.167969 C 108.5625 71.1875 108.308594 71.226562 107.976562 71.246094 C 107.527344 71.285156 107.410156 71.304688 107.410156 71.617188 C 107.410156 71.8125 107.546875 71.8125 107.800781 71.8125 C 108.679688 71.8125 108.699219 71.96875 108.699219 72.144531 C 108.699219 72.261719 108.660156 72.398438 108.640625 72.457031 L 107.546875 76.8125 C 107.351562 76.34375 106.863281 75.621094 105.925781 75.621094 C 103.914062 75.621094 101.726562 78.238281 101.726562 80.894531 C 101.726562 82.671875 102.761719 83.707031 103.972656 83.707031 C 104.96875 83.707031 105.808594 82.945312 106.316406 82.339844 C 106.492188 83.414062 107.332031 83.707031 107.878906 83.707031 C 108.40625 83.707031 108.835938 83.394531 109.167969 82.75 C 109.441406 82.125 109.695312 81.03125 109.695312 80.972656 C 109.695312 80.875 109.636719 80.796875 109.519531 80.796875 C 109.363281 80.796875 109.34375 80.894531 109.265625 81.167969 C 108.992188 82.222656 108.660156 83.355469 107.917969 83.355469 C 107.410156 83.355469 107.371094 82.886719 107.371094 82.535156 C 107.371094 82.457031 107.371094 82.085938 107.488281 81.578125 Z M 106.394531 81.402344 C 106.316406 81.695312 106.316406 81.734375 106.0625 82.085938 C 105.671875 82.574219 104.871094 83.355469 104.03125 83.355469 C 103.308594 83.355469 102.878906 82.691406 102.878906 81.636719 C 102.878906 80.640625 103.445312 78.628906 103.777344 77.886719 C 104.402344 76.636719 105.242188 75.992188 105.925781 75.992188 C 107.117188 75.992188 107.351562 77.457031 107.351562 77.59375 C 107.351562 77.613281 107.292969 77.847656 107.273438 77.886719 Z M 106.394531 81.402344 "/>
<path style=" stroke:none;fill-rule:nonzero;fill:rgb(0%,0%,0%);fill-opacity:1;" d="M 118.621094 76.207031 C 118.054688 76.324219 117.839844 76.753906 117.839844 77.085938 C 117.839844 77.515625 118.171875 77.671875 118.425781 77.671875 C 118.972656 77.671875 119.34375 77.203125 119.34375 76.714844 C 119.34375 75.972656 118.484375 75.621094 117.722656 75.621094 C 116.628906 75.621094 116.023438 76.695312 115.867188 77.046875 C 115.457031 75.699219 114.34375 75.621094 114.011719 75.621094 C 112.195312 75.621094 111.21875 77.964844 111.21875 78.375 C 111.21875 78.433594 111.296875 78.53125 111.414062 78.53125 C 111.550781 78.53125 111.589844 78.414062 111.628906 78.355469 C 112.234375 76.363281 113.445312 75.992188 113.953125 75.992188 C 114.773438 75.992188 114.929688 76.734375 114.929688 77.164062 C 114.929688 77.554688 114.832031 77.964844 114.597656 78.824219 L 113.992188 81.285156 C 113.738281 82.359375 113.210938 83.355469 112.253906 83.355469 C 112.175781 83.355469 111.726562 83.355469 111.335938 83.121094 C 111.980469 82.984375 112.136719 82.457031 112.136719 82.242188 C 112.136719 81.890625 111.863281 81.675781 111.53125 81.675781 C 111.101562 81.675781 110.632812 82.046875 110.632812 82.613281 C 110.632812 83.375 111.472656 83.707031 112.234375 83.707031 C 113.09375 83.707031 113.71875 83.023438 114.089844 82.300781 C 114.382812 83.355469 115.261719 83.707031 115.925781 83.707031 C 117.761719 83.707031 118.738281 81.363281 118.738281 80.972656 C 118.738281 80.875 118.660156 80.796875 118.542969 80.796875 C 118.386719 80.796875 118.367188 80.894531 118.328125 81.03125 C 117.839844 82.613281 116.785156 83.355469 115.984375 83.355469 C 115.359375 83.355469 115.027344 82.886719 115.027344 82.144531 C 115.027344 81.753906 115.085938 81.460938 115.378906 80.289062 L 116.003906 77.847656 C 116.277344 76.773438 116.882812 75.992188 117.703125 75.992188 C 117.742188 75.992188 118.25 75.992188 118.621094 76.207031 Z M 118.621094 76.207031 "/>
<path style="fill:none;stroke-width:1;stroke-linecap:butt;stroke-linejoin:miter;stroke:rgb(0%,0%,0%);stroke-opacity:1;stroke-miterlimit:10;" d="M 0.459251 0.382745 L 37.459251 0.382745 " transform="matrix(1.25,0,0,-1.25,86.937655,91.17765)"/>
<path style=" stroke:none;fill-rule:nonzero;fill:rgb(0%,0%,0%);fill-opacity:1;" d="M 92.09375 96.476562 C 92.09375 96.046875 92.09375 96.046875 91.742188 96.046875 C 91.3125 96.515625 90.414062 97.179688 88.578125 97.179688 L 88.578125 97.707031 C 88.988281 97.707031 89.886719 97.707031 90.863281 97.238281 L 90.863281 106.574219 C 90.863281 107.21875 90.804688 107.433594 89.242188 107.433594 L 88.675781 107.433594 L 88.675781 107.960938 C 89.164062 107.921875 90.902344 107.921875 91.488281 107.921875 C 92.074219 107.921875 93.8125 107.921875 94.28125 107.960938 L 94.28125 107.433594 L 93.734375 107.433594 C 92.152344 107.433594 92.09375 107.21875 92.09375 106.574219 Z M 92.09375 96.476562 "/>
<path style=" stroke:none;fill-rule:nonzero;fill:rgb(0%,0%,0%);fill-opacity:1;" d="M 106.847656 103.820312 L 111.808594 103.820312 C 112.0625 103.820312 112.375 103.820312 112.375 103.488281 C 112.375 103.15625 112.0625 103.15625 111.808594 103.15625 L 106.847656 103.15625 L 106.847656 98.214844 C 106.847656 97.960938 106.847656 97.628906 106.535156 97.628906 C 106.183594 97.628906 106.183594 97.941406 106.183594 98.214844 L 106.183594 103.15625 L 101.242188 103.15625 C 100.988281 103.15625 100.675781 103.15625 100.675781 103.488281 C 100.675781 103.820312 100.96875 103.820312 101.242188 103.820312 L 106.183594 103.820312 L 106.183594 108.761719 C 106.183594 109.015625 106.183594 109.347656 106.515625 109.347656 C 106.847656 109.347656 106.847656 109.035156 106.847656 108.761719 Z M 106.847656 103.820312 "/>
<path style=" stroke:none;fill-rule:nonzero;fill:rgb(0%,0%,0%);fill-opacity:1;" d="M 125.839844 100.636719 C 125.273438 100.753906 125.058594 101.183594 125.058594 101.515625 C 125.058594 101.945312 125.390625 102.101562 125.644531 102.101562 C 126.191406 102.101562 126.5625 101.632812 126.5625 101.144531 C 126.5625 100.402344 125.703125 100.050781 124.941406 100.050781 C 123.847656 100.050781 123.242188 101.125 123.085938 101.476562 C 122.675781 100.128906 121.5625 100.050781 121.230469 100.050781 C 119.414062 100.050781 118.4375 102.394531 118.4375 102.804688 C 118.4375 102.863281 118.515625 102.960938 118.632812 102.960938 C 118.769531 102.960938 118.808594 102.84375 118.847656 102.785156 C 119.453125 100.792969 120.664062 100.421875 121.171875 100.421875 C 121.992188 100.421875 122.148438 101.164062 122.148438 101.59375 C 122.148438 101.984375 122.050781 102.394531 121.816406 103.253906 L 121.210938 105.714844 C 120.957031 106.789062 120.429688 107.785156 119.472656 107.785156 C 119.394531 107.785156 118.945312 107.785156 118.554688 107.550781 C 119.199219 107.414062 119.355469 106.886719 119.355469 106.671875 C 119.355469 106.320312 119.082031 106.105469 118.75 106.105469 C 118.320312 106.105469 117.851562 106.476562 117.851562 107.042969 C 117.851562 107.804688 118.691406 108.136719 119.453125 108.136719 C 120.3125 108.136719 120.9375 107.453125 121.308594 106.730469 C 121.601562 107.785156 122.480469 108.136719 123.144531 108.136719 C 124.980469 108.136719 125.957031 105.792969 125.957031 105.402344 C 125.957031 105.304688 125.878906 105.226562 125.761719 105.226562 C 125.605469 105.226562 125.585938 105.324219 125.546875 105.460938 C 125.058594 107.042969 124.003906 107.785156 123.203125 107.785156 C 122.578125 107.785156 122.246094 107.316406 122.246094 106.574219 C 122.246094 106.183594 122.304688 105.890625 122.597656 104.71875 L 123.222656 102.277344 C 123.496094 101.203125 124.101562 100.421875 124.921875 100.421875 C 124.960938 100.421875 125.46875 100.421875 125.839844 100.636719 Z M 125.839844 100.636719 "/>
<path style=" stroke:none;fill-rule:nonzero;fill:rgb(0%,0%,0%);fill-opacity:1;" d="M 128.902344 101.824219 L 130.230469 100.535156 C 132.164062 98.816406 132.90625 98.152344 132.90625 96.902344 C 132.90625 95.476562 131.792969 94.480469 130.269531 94.480469 C 128.863281 94.480469 127.945312 95.632812 127.945312 96.746094 C 127.945312 97.429688 128.570312 97.429688 128.609375 97.429688 C 128.824219 97.429688 129.253906 97.292969 129.253906 96.765625 C 129.253906 96.453125 129.019531 96.121094 128.589844 96.121094 C 128.492188 96.121094 128.472656 96.121094 128.433594 96.140625 C 128.707031 95.320312 129.390625 94.871094 130.113281 94.871094 C 131.246094 94.871094 131.773438 95.886719 131.773438 96.902344 C 131.773438 97.898438 131.167969 98.875 130.464844 99.65625 L 128.082031 102.3125 C 127.945312 102.449219 127.945312 102.488281 127.945312 102.78125 L 132.574219 102.78125 L 132.90625 100.613281 L 132.613281 100.613281 C 132.535156 100.984375 132.457031 101.53125 132.320312 101.726562 C 132.242188 101.824219 131.421875 101.824219 131.148438 101.824219 Z M 128.902344 101.824219 "/>
<path style=" stroke:none;fill-rule:nonzero;fill:rgb(0%,0%,0%);fill-opacity:1;" d="M 152.753906 89.859375 C 153.007812 89.859375 153.320312 89.859375 153.320312 89.527344 C 153.320312 89.195312 153.007812 89.195312 152.753906 89.195312 L 142.1875 89.195312 C 141.933594 89.195312 141.621094 89.195312 141.621094 89.507812 C 141.621094 89.859375 141.914062 89.859375 142.1875 89.859375 Z M 152.753906 93.179688 C 153.007812 93.179688 153.320312 93.179688 153.320312 92.867188 C 153.320312 92.515625 153.007812 92.515625 152.753906 92.515625 L 142.1875 92.515625 C 141.933594 92.515625 141.621094 92.515625 141.621094 92.847656 C 141.621094 93.179688 141.914062 93.179688 142.1875 93.179688 Z M 152.753906 93.179688 "/>
<path style=" stroke:none;fill-rule:nonzero;fill:rgb(0%,0%,0%);fill-opacity:1;" d="M 162.898438 101.917969 L 166.355469 101.917969 L 166.355469 101.195312 L 163.621094 101.195312 L 163.621094 81.136719 L 166.355469 81.136719 L 166.355469 80.414062 L 162.898438 80.414062 Z M 162.898438 101.917969 "/>
<path style=" stroke:none;fill-rule:nonzero;fill:rgb(0%,0%,0%);fill-opacity:1;" d="M 178.574219 91.539062 C 178.886719 91.539062 179.199219 91.539062 179.199219 91.1875 C 179.199219 90.816406 178.886719 90.816406 178.574219 90.816406 L 168.867188 90.816406 C 168.574219 90.816406 168.242188 90.816406 168.242188 91.1875 C 168.242188 91.539062 168.574219 91.539062 168.867188 91.539062 Z M 178.574219 91.539062 "/>
<path style=" stroke:none;fill-rule:nonzero;fill:rgb(0%,0%,0%);fill-opacity:1;" d="M 190.179688 89.019531 C 189.964844 89.019531 189.300781 89.019531 189.300781 89.761719 C 189.300781 90.191406 189.613281 90.503906 190.042969 90.503906 C 190.453125 90.503906 190.804688 90.25 190.804688 89.722656 C 190.804688 88.53125 189.535156 87.671875 188.089844 87.671875 C 186 87.671875 184.320312 89.527344 184.320312 91.792969 C 184.320312 94.078125 186.039062 95.835938 188.070312 95.835938 C 190.433594 95.835938 190.980469 93.6875 190.980469 93.53125 C 190.980469 93.355469 190.84375 93.355469 190.804688 93.355469 C 190.628906 93.355469 190.609375 93.414062 190.570312 93.628906 C 190.160156 94.898438 189.203125 95.445312 188.226562 95.445312 C 187.132812 95.445312 185.6875 94.488281 185.6875 91.773438 C 185.6875 88.785156 187.210938 88.0625 188.109375 88.0625 C 188.792969 88.0625 189.769531 88.335938 190.179688 89.019531 Z M 190.179688 89.019531 "/>
<path style=" stroke:none;fill-rule:nonzero;fill:rgb(0%,0%,0%);fill-opacity:1;" d="M 199.722656 91.832031 C 199.722656 89.507812 197.964844 87.671875 195.894531 87.671875 C 193.746094 87.671875 192.046875 89.566406 192.046875 91.832031 C 192.046875 94.117188 193.824219 95.835938 195.875 95.835938 C 197.984375 95.835938 199.722656 94.078125 199.722656 91.832031 Z M 195.894531 95.445312 C 195.230469 95.445312 194.429688 95.152344 193.902344 94.273438 C 193.414062 93.472656 193.394531 92.417969 193.394531 91.65625 C 193.394531 90.972656 193.394531 89.878906 193.960938 89.078125 C 194.449219 88.316406 195.25 88.023438 195.875 88.023438 C 196.578125 88.023438 197.320312 88.335938 197.808594 89.039062 C 198.375 89.859375 198.375 90.992188 198.375 91.65625 C 198.375 92.28125 198.375 93.394531 197.90625 94.234375 C 197.398438 95.113281 196.578125 95.445312 195.894531 95.445312 Z M 195.894531 95.445312 "/>
<path style=" stroke:none;fill-rule:nonzero;fill:rgb(0%,0%,0%);fill-opacity:1;" d="M 203.285156 88.453125 L 205.824219 88.453125 L 205.824219 87.925781 L 203.285156 87.925781 L 203.285156 84.625 L 202.894531 84.625 C 202.875 86.324219 202.230469 88.042969 200.609375 88.101562 L 200.609375 88.453125 L 202.132812 88.453125 L 202.132812 93.433594 C 202.132812 95.425781 203.441406 95.835938 204.398438 95.835938 C 205.53125 95.835938 206.117188 94.722656 206.117188 93.433594 L 206.117188 92.417969 L 205.726562 92.417969 L 205.726562 93.394531 C 205.726562 94.683594 205.199219 95.445312 204.515625 95.445312 C 203.285156 95.445312 203.285156 93.785156 203.285156 93.472656 Z M 203.285156 88.453125 "/>
<path style=" stroke:none;fill-rule:nonzero;fill:rgb(0%,0%,0%);fill-opacity:1;" d="M 215.308594 85.386719 C 215.523438 85.386719 215.757812 85.386719 215.757812 85.132812 C 215.757812 84.898438 215.523438 84.898438 215.308594 84.898438 L 208.570312 84.898438 C 208.355469 84.898438 208.140625 84.898438 208.140625 85.132812 C 208.140625 85.386719 208.355469 85.386719 208.570312 85.386719 Z M 215.308594 85.386719 "/>
<path style=" stroke:none;fill-rule:nonzero;fill:rgb(0%,0%,0%);fill-opacity:1;" d="M 220.464844 80.289062 C 220.464844 79.976562 220.464844 79.957031 220.171875 79.957031 C 219.390625 80.757812 218.296875 80.757812 217.90625 80.757812 L 217.90625 81.148438 C 218.160156 81.148438 218.882812 81.148438 219.527344 80.816406 L 219.527344 87.28125 C 219.527344 87.730469 219.488281 87.867188 218.375 87.867188 L 217.984375 87.867188 L 217.984375 88.257812 C 218.414062 88.21875 219.488281 88.21875 219.996094 88.21875 C 220.484375 88.21875 221.578125 88.21875 222.007812 88.257812 L 222.007812 87.867188 L 221.617188 87.867188 C 220.484375 87.867188 220.464844 87.730469 220.464844 87.28125 Z M 220.464844 80.289062 "/>
<path style=" stroke:none;fill-rule:nonzero;fill:rgb(0%,0%,0%);fill-opacity:1;" d="M 235.125 88.335938 C 234.558594 88.453125 234.34375 88.882812 234.34375 89.214844 C 234.34375 89.644531 234.675781 89.800781 234.929688 89.800781 C 235.476562 89.800781 235.847656 89.332031 235.847656 88.84375 C 235.847656 88.101562 234.988281 87.75 234.226562 87.75 C 233.132812 87.75 232.527344 88.824219 232.371094 89.175781 C 231.960938 87.828125 230.847656 87.75 230.515625 87.75 C 228.699219 87.75 227.722656 90.09375 227.722656 90.503906 C 227.722656 90.5625 227.800781 90.660156 227.917969 90.660156 C 228.054688 90.660156 228.09375 90.542969 228.132812 90.484375 C 228.738281 88.492188 229.949219 88.121094 230.457031 88.121094 C 231.277344 88.121094 231.433594 88.863281 231.433594 89.292969 C 231.433594 89.683594 231.335938 90.09375 231.101562 90.953125 L 230.496094 93.414062 C 230.242188 94.488281 229.714844 95.484375 228.757812 95.484375 C 228.679688 95.484375 228.230469 95.484375 227.839844 95.25 C 228.484375 95.113281 228.640625 94.585938 228.640625 94.371094 C 228.640625 94.019531 228.367188 93.804688 228.035156 93.804688 C 227.605469 93.804688 227.136719 94.175781 227.136719 94.742188 C 227.136719 95.503906 227.976562 95.835938 228.738281 95.835938 C 229.597656 95.835938 230.222656 95.152344 230.59375 94.429688 C 230.886719 95.484375 231.765625 95.835938 232.429688 95.835938 C 234.265625 95.835938 235.242188 93.492188 235.242188 93.101562 C 235.242188 93.003906 235.164062 92.925781 235.046875 92.925781 C 234.890625 92.925781 234.871094 93.023438 234.832031 93.160156 C 234.34375 94.742188 233.289062 95.484375 232.488281 95.484375 C 231.863281 95.484375 231.53125 95.015625 231.53125 94.273438 C 231.53125 93.882812 231.589844 93.589844 231.882812 92.417969 L 232.507812 89.976562 C 232.78125 88.902344 233.386719 88.121094 234.207031 88.121094 C 234.246094 88.121094 234.753906 88.121094 235.125 88.335938 Z M 235.125 88.335938 "/>
<path style=" stroke:none;fill-rule:nonzero;fill:rgb(0%,0%,0%);fill-opacity:1;" d="M 240.4375 101.917969 L 240.4375 80.414062 L 237 80.414062 L 237 81.136719 L 239.734375 81.136719 L 239.734375 101.195312 L 237 101.195312 L 237 101.917969 Z M 240.4375 101.917969 "/>
<path style=" stroke:none;fill-rule:nonzero;fill:rgb(0%,0%,0%);fill-opacity:1;" d="M 247.753906 77.070312 C 247.753906 76.757812 247.753906 76.738281 247.460938 76.738281 C 246.679688 77.539062 245.585938 77.539062 245.195312 77.539062 L 245.195312 77.929688 C 245.449219 77.929688 246.171875 77.929688 246.816406 77.597656 L 246.816406 84.0625 C 246.816406 84.511719 246.777344 84.648438 245.664062 84.648438 L 245.273438 84.648438 L 245.273438 85.039062 C 245.703125 85 246.777344 85 247.285156 85 C 247.773438 85 248.867188 85 249.296875 85.039062 L 249.296875 84.648438 L 248.90625 84.648438 C 247.773438 84.648438 247.753906 84.511719 247.753906 84.0625 Z M 247.753906 77.070312 "/>
<path style=" stroke:none;fill-rule:nonzero;fill:rgb(0%,0%,0%);fill-opacity:1;" d="M 249.804688 98.574219 C 249.804688 97.578125 249.746094 96.582031 249.316406 95.664062 C 248.75 94.453125 247.714844 94.257812 247.207031 94.257812 C 246.445312 94.257812 245.546875 94.589844 245.019531 95.742188 C 244.628906 96.601562 244.570312 97.578125 244.570312 98.574219 C 244.570312 99.511719 244.609375 100.625 245.136719 101.582031 C 245.664062 102.578125 246.582031 102.832031 247.1875 102.832031 C 247.851562 102.832031 248.808594 102.578125 249.355469 101.386719 C 249.746094 100.527344 249.804688 99.550781 249.804688 98.574219 Z M 247.1875 102.558594 C 246.699219 102.558594 245.957031 102.246094 245.742188 101.054688 C 245.605469 100.3125 245.605469 99.160156 245.605469 98.417969 C 245.605469 97.617188 245.605469 96.796875 245.703125 96.132812 C 245.9375 94.648438 246.875 94.53125 247.1875 94.53125 C 247.597656 94.53125 248.417969 94.765625 248.652344 95.996094 C 248.789062 96.699219 248.789062 97.636719 248.789062 98.417969 C 248.789062 99.355469 248.789062 100.195312 248.652344 100.996094 C 248.457031 102.1875 247.753906 102.558594 247.1875 102.558594 Z M 247.1875 102.558594 "/>
<path style=" stroke:none;fill-rule:nonzero;fill:rgb(0%,0%,0%);fill-opacity:1;" d="M 152.753906 129.554688 C 153.007812 129.554688 153.320312 129.554688 153.320312 129.222656 C 153.320312 128.890625 153.007812 128.890625 152.753906 128.890625 L 142.1875 128.890625 C 141.933594 128.890625 141.621094 128.890625 141.621094 129.203125 C 141.621094 129.554688 141.914062 129.554688 142.1875 129.554688 Z M 152.753906 132.875 C 153.007812 132.875 153.320312 132.875 153.320312 132.5625 C 153.320312 132.210938 153.007812 132.210938 152.753906 132.210938 L 142.1875 132.210938 C 141.933594 132.210938 141.621094 132.210938 141.621094 132.542969 C 141.621094 132.875 141.914062 132.875 142.1875 132.875 Z M 152.753906 132.875 "/>
<path style=" stroke:none;fill-rule:nonzero;fill:rgb(0%,0%,0%);fill-opacity:1;" d="M 162.898438 141.609375 L 166.355469 141.609375 L 166.355469 140.886719 L 163.621094 140.886719 L 163.621094 120.828125 L 166.355469 120.828125 L 166.355469 120.105469 L 162.898438 120.105469 Z M 162.898438 141.609375 "/>
<path style=" stroke:none;fill-rule:nonzero;fill:rgb(0%,0%,0%);fill-opacity:1;" d="M 173.242188 128.714844 C 173.027344 128.714844 172.363281 128.714844 172.363281 129.457031 C 172.363281 129.886719 172.675781 130.199219 173.105469 130.199219 C 173.515625 130.199219 173.867188 129.945312 173.867188 129.417969 C 173.867188 128.226562 172.597656 127.367188 171.152344 127.367188 C 169.0625 127.367188 167.382812 129.222656 167.382812 131.488281 C 167.382812 133.773438 169.101562 135.53125 171.132812 135.53125 C 173.496094 135.53125 174.042969 133.382812 174.042969 133.226562 C 174.042969 133.050781 173.90625 133.050781 173.867188 133.050781 C 173.691406 133.050781 173.671875 133.109375 173.632812 133.324219 C 173.222656 134.59375 172.265625 135.140625 171.289062 135.140625 C 170.195312 135.140625 168.75 134.183594 168.75 131.46875 C 168.75 128.480469 170.273438 127.757812 171.171875 127.757812 C 171.855469 127.757812 172.832031 128.03125 173.242188 128.714844 Z M 173.242188 128.714844 "/>
<path style=" stroke:none;fill-rule:nonzero;fill:rgb(0%,0%,0%);fill-opacity:1;" d="M 182.785156 131.527344 C 182.785156 129.203125 181.027344 127.367188 178.957031 127.367188 C 176.808594 127.367188 175.109375 129.261719 175.109375 131.527344 C 175.109375 133.8125 176.886719 135.53125 178.9375 135.53125 C 181.046875 135.53125 182.785156 133.773438 182.785156 131.527344 Z M 178.957031 135.140625 C 178.292969 135.140625 177.492188 134.847656 176.964844 133.96875 C 176.476562 133.167969 176.457031 132.113281 176.457031 131.351562 C 176.457031 130.667969 176.457031 129.574219 177.023438 128.773438 C 177.511719 128.011719 178.3125 127.71875 178.9375 127.71875 C 179.640625 127.71875 180.382812 128.03125 180.871094 128.734375 C 181.4375 129.554688 181.4375 130.6875 181.4375 131.351562 C 181.4375 131.976562 181.4375 133.089844 180.96875 133.929688 C 180.460938 134.808594 179.640625 135.140625 178.957031 135.140625 Z M 178.957031 135.140625 "/>
<path style=" stroke:none;fill-rule:nonzero;fill:rgb(0%,0%,0%);fill-opacity:1;" d="M 186.351562 128.148438 L 188.890625 128.148438 L 188.890625 127.621094 L 186.351562 127.621094 L 186.351562 124.320312 L 185.960938 124.320312 C 185.941406 126.019531 185.296875 127.738281 183.675781 127.796875 L 183.675781 128.148438 L 185.199219 128.148438 L 185.199219 133.128906 C 185.199219 135.121094 186.507812 135.53125 187.464844 135.53125 C 188.597656 135.53125 189.183594 134.417969 189.183594 133.128906 L 189.183594 132.113281 L 188.792969 132.113281 L 188.792969 133.089844 C 188.792969 134.378906 188.265625 135.140625 187.582031 135.140625 C 186.351562 135.140625 186.351562 133.480469 186.351562 133.167969 Z M 186.351562 128.148438 "/>
<path style=" stroke:none;fill-rule:nonzero;fill:rgb(0%,0%,0%);fill-opacity:1;" d="M 198.371094 125.078125 C 198.585938 125.078125 198.820312 125.078125 198.820312 124.824219 C 198.820312 124.589844 198.585938 124.589844 198.371094 124.589844 L 191.632812 124.589844 C 191.417969 124.589844 191.203125 124.589844 191.203125 124.824219 C 191.203125 125.078125 191.417969 125.078125 191.632812 125.078125 Z M 198.371094 125.078125 "/>
<path style=" stroke:none;fill-rule:nonzero;fill:rgb(0%,0%,0%);fill-opacity:1;" d="M 203.527344 119.980469 C 203.527344 119.667969 203.527344 119.648438 203.234375 119.648438 C 202.453125 120.449219 201.359375 120.449219 200.96875 120.449219 L 200.96875 120.839844 C 201.222656 120.839844 201.945312 120.839844 202.589844 120.507812 L 202.589844 126.972656 C 202.589844 127.421875 202.550781 127.558594 201.4375 127.558594 L 201.046875 127.558594 L 201.046875 127.949219 C 201.476562 127.910156 202.550781 127.910156 203.058594 127.910156 C 203.546875 127.910156 204.640625 127.910156 205.070312 127.949219 L 205.070312 127.558594 L 204.679688 127.558594 C 203.546875 127.558594 203.527344 127.421875 203.527344 126.972656 Z M 203.527344 119.980469 "/>
<path style=" stroke:none;fill-rule:nonzero;fill:rgb(0%,0%,0%);fill-opacity:1;" d="M 218.1875 128.03125 C 217.621094 128.148438 217.40625 128.578125 217.40625 128.910156 C 217.40625 129.339844 217.738281 129.496094 217.992188 129.496094 C 218.539062 129.496094 218.910156 129.027344 218.910156 128.539062 C 218.910156 127.796875 218.050781 127.445312 217.289062 127.445312 C 216.195312 127.445312 215.589844 128.519531 215.433594 128.871094 C 215.023438 127.523438 213.910156 127.445312 213.578125 127.445312 C 211.761719 127.445312 210.785156 129.789062 210.785156 130.199219 C 210.785156 130.257812 210.863281 130.355469 210.980469 130.355469 C 211.117188 130.355469 211.15625 130.238281 211.195312 130.179688 C 211.800781 128.1875 213.011719 127.816406 213.519531 127.816406 C 214.339844 127.816406 214.496094 128.558594 214.496094 128.988281 C 214.496094 129.378906 214.398438 129.789062 214.164062 130.648438 L 213.558594 133.109375 C 213.304688 134.183594 212.777344 135.179688 211.820312 135.179688 C 211.742188 135.179688 211.292969 135.179688 210.902344 134.945312 C 211.546875 134.808594 211.703125 134.28125 211.703125 134.066406 C 211.703125 133.714844 211.429688 133.5 211.097656 133.5 C 210.667969 133.5 210.199219 133.871094 210.199219 134.4375 C 210.199219 135.199219 211.039062 135.53125 211.800781 135.53125 C 212.660156 135.53125 213.285156 134.847656 213.65625 134.125 C 213.949219 135.179688 214.828125 135.53125 215.492188 135.53125 C 217.328125 135.53125 218.304688 133.1875 218.304688 132.796875 C 218.304688 132.699219 218.226562 132.621094 218.109375 132.621094 C 217.953125 132.621094 217.933594 132.71875 217.894531 132.855469 C 217.40625 134.4375 216.351562 135.179688 215.550781 135.179688 C 214.925781 135.179688 214.59375 134.710938 214.59375 133.96875 C 214.59375 133.578125 214.652344 133.285156 214.945312 132.113281 L 215.570312 129.671875 C 215.84375 128.597656 216.449219 127.816406 217.269531 127.816406 C 217.308594 127.816406 217.816406 127.816406 218.1875 128.03125 Z M 218.1875 128.03125 "/>
<path style=" stroke:none;fill-rule:nonzero;fill:rgb(0%,0%,0%);fill-opacity:1;" d="M 223.5 141.609375 L 223.5 120.105469 L 220.0625 120.105469 L 220.0625 120.828125 L 222.796875 120.828125 L 222.796875 140.886719 L 220.0625 140.886719 L 220.0625 141.609375 Z M 223.5 141.609375 "/>
<path style=" stroke:none;fill-rule:nonzero;fill:rgb(0%,0%,0%);fill-opacity:1;" d="M 232.867188 120.75 C 232.867188 119.753906 232.808594 118.757812 232.378906 117.839844 C 231.8125 116.628906 230.777344 116.433594 230.269531 116.433594 C 229.507812 116.433594 228.609375 116.765625 228.082031 117.917969 C 227.691406 118.777344 227.632812 119.753906 227.632812 120.75 C 227.632812 121.6875 227.671875 122.800781 228.199219 123.757812 C 228.726562 124.753906 229.644531 125.007812 230.25 125.007812 C 230.914062 125.007812 231.871094 124.753906 232.417969 123.5625 C 232.808594 122.703125 232.867188 121.726562 232.867188 120.75 Z M 230.25 124.734375 C 229.761719 124.734375 229.019531 124.421875 228.804688 123.230469 C 228.667969 122.488281 228.667969 121.335938 228.667969 120.59375 C 228.667969 119.792969 228.667969 118.972656 228.765625 118.308594 C 229 116.824219 229.9375 116.707031 230.25 116.707031 C 230.660156 116.707031 231.480469 116.941406 231.714844 118.171875 C 231.851562 118.875 231.851562 119.8125 231.851562 120.59375 C 231.851562 121.53125 231.851562 122.371094 231.714844 123.171875 C 231.519531 124.363281 230.816406 124.734375 230.25 124.734375 Z M 230.25 124.734375 "/>
<path style=" stroke:none;fill-rule:nonzero;fill:rgb(0%,0%,0%);fill-opacity:1;" d="M 230.816406 134.285156 C 230.816406 133.972656 230.816406 133.953125 230.523438 133.953125 C 229.742188 134.753906 228.648438 134.753906 228.257812 134.753906 L 228.257812 135.144531 C 228.511719 135.144531 229.234375 135.144531 229.878906 134.8125 L 229.878906 141.277344 C 229.878906 141.726562 229.839844 141.863281 228.726562 141.863281 L 228.335938 141.863281 L 228.335938 142.253906 C 228.765625 142.214844 229.839844 142.214844 230.347656 142.214844 C 230.835938 142.214844 231.929688 142.214844 232.359375 142.253906 L 232.359375 141.863281 L 231.96875 141.863281 C 230.835938 141.863281 230.816406 141.726562 230.816406 141.277344 Z M 230.816406 134.285156 "/>
<path style=" stroke:none;fill-rule:nonzero;fill:rgb(0%,0%,0%);fill-opacity:1;" d="M 28.023438 168.121094 C 28.023438 167.59375 27.59375 167.164062 27.066406 167.164062 C 26.558594 167.164062 26.128906 167.59375 26.128906 168.121094 C 26.128906 168.628906 26.558594 169.058594 27.066406 169.058594 C 27.574219 169.058594 28.023438 168.648438 28.023438 168.121094 Z M 32.496094 175.875 C 32.496094 175.367188 32.066406 174.9375 31.558594 174.9375 C 31.03125 174.9375 30.601562 175.367188 30.601562 175.875 C 30.601562 176.402344 31.03125 176.832031 31.558594 176.832031 C 32.066406 176.832031 32.496094 176.402344 32.496094 175.875 Z M 36.988281 168.121094 C 36.988281 167.59375 36.558594 167.164062 36.03125 167.164062 C 35.523438 167.164062 35.09375 167.59375 35.09375 168.121094 C 35.09375 168.628906 35.523438 169.058594 36.03125 169.058594 C 36.539062 169.058594 36.988281 168.648438 36.988281 168.121094 Z M 36.988281 168.121094 "/>
<path style=" stroke:none;fill-rule:nonzero;fill:rgb(0%,0%,0%);fill-opacity:1;" d="M 44.375 190.097656 C 44.960938 190.078125 45.253906 189.667969 45.253906 189.238281 C 45.253906 188.632812 44.824219 188.359375 44.394531 188.359375 C 43.964844 188.359375 43.515625 188.613281 43.515625 189.238281 C 43.515625 190.15625 44.414062 190.917969 45.507812 190.917969 C 48.242188 190.917969 49.257812 186.71875 50.527344 181.523438 C 51.914062 175.859375 53.085938 170.136719 54.042969 164.375 C 54.707031 160.566406 55.371094 156.972656 55.976562 154.667969 C 56.191406 153.789062 56.816406 151.464844 57.5 151.464844 C 58.066406 151.464844 58.515625 151.816406 58.59375 151.875 C 57.988281 151.914062 57.695312 152.304688 57.695312 152.753906 C 57.695312 153.359375 58.144531 153.632812 58.554688 153.632812 C 58.984375 153.632812 59.433594 153.378906 59.433594 152.734375 C 59.433594 151.777344 58.457031 151.074219 57.480469 151.074219 C 56.113281 151.074219 55.097656 153.027344 54.121094 156.679688 C 54.0625 156.875 51.621094 165.878906 49.648438 177.617188 C 49.179688 180.351562 48.671875 183.339844 48.085938 185.839844 C 47.753906 187.148438 46.933594 190.527344 45.46875 190.527344 C 44.824219 190.527344 44.394531 190.097656 44.375 190.097656 Z M 44.375 190.097656 "/>
<path style=" stroke:none;fill-rule:nonzero;fill:rgb(0%,0%,0%);fill-opacity:1;" d="M 63.421875 147.367188 C 63.421875 147.367188 63.421875 147.230469 63.265625 147.230469 C 62.992188 147.230469 62.074219 147.328125 61.742188 147.367188 C 61.644531 147.367188 61.507812 147.386719 61.507812 147.601562 C 61.507812 147.757812 61.625 147.757812 61.820312 147.757812 C 62.40625 147.757812 62.425781 147.835938 62.425781 147.972656 C 62.425781 148.050781 62.328125 148.480469 62.269531 148.734375 L 61.234375 152.796875 C 61.097656 153.421875 61.039062 153.636719 61.039062 154.066406 C 61.039062 155.238281 61.703125 156.019531 62.621094 156.019531 C 64.085938 156.019531 65.628906 154.164062 65.628906 152.367188 C 65.628906 151.234375 64.964844 150.375 63.96875 150.375 C 63.402344 150.375 62.875 150.746094 62.503906 151.117188 Z M 62.269531 152.074219 C 62.328125 151.800781 62.328125 151.78125 62.445312 151.644531 C 63.050781 150.84375 63.617188 150.648438 63.949219 150.648438 C 64.398438 150.648438 64.730469 151.019531 64.730469 151.820312 C 64.730469 152.5625 64.320312 153.988281 64.085938 154.457031 C 63.675781 155.296875 63.109375 155.746094 62.621094 155.746094 C 62.191406 155.746094 61.78125 155.414062 61.78125 154.496094 C 61.78125 154.242188 61.78125 154.007812 61.976562 153.226562 Z M 62.269531 152.074219 "/>
<path style=" stroke:none;fill-rule:nonzero;fill:rgb(0%,0%,0%);fill-opacity:1;" d="M 57.128906 186.84375 C 56.894531 186.375 56.542969 186.042969 55.976562 186.042969 C 54.53125 186.042969 52.988281 187.878906 52.988281 189.695312 C 52.988281 190.867188 53.671875 191.6875 54.628906 191.6875 C 54.882812 191.6875 55.507812 191.628906 56.25 190.75 C 56.347656 191.277344 56.796875 191.6875 57.382812 191.6875 C 57.832031 191.6875 58.105469 191.394531 58.320312 191.003906 C 58.515625 190.554688 58.691406 189.792969 58.691406 189.773438 C 58.691406 189.636719 58.574219 189.636719 58.535156 189.636719 C 58.417969 189.636719 58.398438 189.695312 58.359375 189.871094 C 58.144531 190.671875 57.929688 191.414062 57.421875 191.414062 C 57.070312 191.414062 57.050781 191.082031 57.050781 190.847656 C 57.050781 190.574219 57.070312 190.457031 57.207031 189.910156 C 57.34375 189.402344 57.363281 189.265625 57.480469 188.796875 L 57.929688 187.058594 C 58.007812 186.707031 58.007812 186.6875 58.007812 186.628906 C 58.007812 186.414062 57.871094 186.296875 57.65625 186.296875 C 57.34375 186.296875 57.167969 186.570312 57.128906 186.84375 Z M 56.328125 190.066406 C 56.25 190.300781 56.25 190.320312 56.074219 190.535156 C 55.527344 191.21875 55.019531 191.414062 54.667969 191.414062 C 54.042969 191.414062 53.867188 190.730469 53.867188 190.242188 C 53.867188 189.617188 54.257812 188.09375 54.550781 187.507812 C 54.941406 186.785156 55.488281 186.316406 55.996094 186.316406 C 56.796875 186.316406 56.972656 187.332031 56.972656 187.410156 C 56.972656 187.488281 56.953125 187.566406 56.933594 187.625 Z M 56.328125 190.066406 "/>
<path style=" stroke:none;fill-rule:nonzero;fill:rgb(0%,0%,0%);fill-opacity:1;" d="M 77.394531 168.277344 C 77.765625 168.277344 77.902344 168.277344 77.902344 167.945312 C 77.902344 167.75 77.765625 167.75 77.433594 167.75 L 75.988281 167.75 C 76.320312 165.914062 76.574219 164.644531 76.730469 164.058594 C 76.828125 163.628906 77.199219 163.21875 77.667969 163.21875 C 78.039062 163.21875 78.429688 163.375 78.605469 163.550781 C 77.902344 163.609375 77.6875 164.136719 77.6875 164.449219 C 77.6875 164.800781 77.960938 165.015625 78.292969 165.015625 C 78.664062 165.015625 79.191406 164.703125 79.191406 164.019531 C 79.191406 163.277344 78.449219 162.867188 77.648438 162.867188 C 76.886719 162.867188 76.125 163.433594 75.773438 164.136719 C 75.441406 164.761719 75.265625 165.40625 74.855469 167.75 L 73.664062 167.75 C 73.3125 167.75 73.136719 167.75 73.136719 168.082031 C 73.136719 168.277344 73.234375 168.277344 73.605469 168.277344 L 74.757812 168.277344 C 74.425781 169.9375 73.683594 174 73.273438 175.914062 C 72.980469 177.476562 72.707031 178.785156 71.808594 178.785156 C 71.75 178.785156 71.242188 178.785156 70.910156 178.433594 C 71.828125 178.375 71.828125 177.574219 71.828125 177.554688 C 71.828125 177.203125 71.554688 176.988281 71.222656 176.988281 C 70.851562 176.988281 70.324219 177.300781 70.324219 177.984375 C 70.324219 178.746094 71.105469 179.136719 71.808594 179.136719 C 73.644531 179.136719 74.386719 175.855469 74.582031 174.957031 C 74.914062 173.589844 75.792969 168.824219 75.871094 168.277344 Z M 77.394531 168.277344 "/>
<path style=" stroke:none;fill-rule:nonzero;fill:rgb(0%,0%,0%);fill-opacity:1;" d="M 85.796875 179.839844 C 85.796875 179.78125 85.796875 179.742188 85.503906 179.449219 C 83.707031 177.632812 82.710938 174.683594 82.710938 171.011719 C 82.710938 167.535156 83.550781 164.546875 85.621094 162.4375 C 85.796875 162.261719 85.796875 162.242188 85.796875 162.183594 C 85.796875 162.066406 85.71875 162.046875 85.640625 162.046875 C 85.40625 162.046875 83.941406 163.335938 83.0625 165.09375 C 82.144531 166.890625 81.734375 168.824219 81.734375 171.011719 C 81.734375 172.613281 81.988281 174.742188 82.925781 176.675781 C 83.980469 178.824219 85.445312 179.976562 85.640625 179.976562 C 85.71875 179.976562 85.796875 179.957031 85.796875 179.839844 Z M 85.796875 179.839844 "/>
<path style=" stroke:none;fill-rule:nonzero;fill:rgb(0%,0%,0%);fill-opacity:1;" d="M 95.300781 168.160156 C 94.734375 168.277344 94.519531 168.707031 94.519531 169.039062 C 94.519531 169.46875 94.851562 169.625 95.105469 169.625 C 95.652344 169.625 96.023438 169.15625 96.023438 168.667969 C 96.023438 167.925781 95.164062 167.574219 94.402344 167.574219 C 93.308594 167.574219 92.703125 168.648438 92.546875 169 C 92.136719 167.652344 91.023438 167.574219 90.691406 167.574219 C 88.875 167.574219 87.898438 169.917969 87.898438 170.328125 C 87.898438 170.386719 87.976562 170.484375 88.09375 170.484375 C 88.230469 170.484375 88.269531 170.367188 88.308594 170.308594 C 88.914062 168.316406 90.125 167.945312 90.632812 167.945312 C 91.453125 167.945312 91.609375 168.6875 91.609375 169.117188 C 91.609375 169.507812 91.511719 169.917969 91.277344 170.777344 L 90.671875 173.238281 C 90.417969 174.3125 89.890625 175.308594 88.933594 175.308594 C 88.855469 175.308594 88.40625 175.308594 88.015625 175.074219 C 88.660156 174.9375 88.816406 174.410156 88.816406 174.195312 C 88.816406 173.84375 88.542969 173.628906 88.210938 173.628906 C 87.78125 173.628906 87.3125 174 87.3125 174.566406 C 87.3125 175.328125 88.152344 175.660156 88.914062 175.660156 C 89.773438 175.660156 90.398438 174.976562 90.769531 174.253906 C 91.0625 175.308594 91.941406 175.660156 92.605469 175.660156 C 94.441406 175.660156 95.417969 173.316406 95.417969 172.925781 C 95.417969 172.828125 95.339844 172.75 95.222656 172.75 C 95.066406 172.75 95.046875 172.847656 95.007812 172.984375 C 94.519531 174.566406 93.464844 175.308594 92.664062 175.308594 C 92.039062 175.308594 91.707031 174.839844 91.707031 174.097656 C 91.707031 173.707031 91.765625 173.414062 92.058594 172.242188 L 92.683594 169.800781 C 92.957031 168.726562 93.5625 167.945312 94.382812 167.945312 C 94.421875 167.945312 94.929688 167.945312 95.300781 168.160156 Z M 95.300781 168.160156 "/>
<path style=" stroke:none;fill-rule:nonzero;fill:rgb(0%,0%,0%);fill-opacity:1;" d="M 101.84375 171.011719 C 101.84375 169.664062 101.667969 167.4375 100.652344 165.347656 C 99.597656 163.199219 98.132812 162.046875 97.9375 162.046875 C 97.859375 162.046875 97.761719 162.066406 97.761719 162.183594 C 97.761719 162.242188 97.761719 162.261719 98.074219 162.574219 C 99.871094 164.390625 100.867188 167.339844 100.867188 171.011719 C 100.867188 174.488281 100.027344 177.476562 97.957031 179.585938 C 97.761719 179.742188 97.761719 179.78125 97.761719 179.839844 C 97.761719 179.957031 97.859375 179.976562 97.9375 179.976562 C 98.171875 179.976562 99.636719 178.6875 100.515625 176.929688 C 101.433594 175.113281 101.84375 173.179688 101.84375 171.011719 Z M 101.84375 171.011719 "/>
<path style=" stroke:none;fill-rule:nonzero;fill:rgb(0%,0%,0%);fill-opacity:1;" d="M 111.035156 171.011719 C 111.035156 170.484375 110.605469 170.054688 110.097656 170.054688 C 109.570312 170.054688 109.140625 170.484375 109.140625 171.011719 C 109.140625 171.519531 109.570312 171.949219 110.097656 171.949219 C 110.605469 171.949219 111.035156 171.519531 111.035156 171.011719 Z M 111.035156 171.011719 "/>
<path style=" stroke:none;fill-rule:nonzero;fill:rgb(0%,0%,0%);fill-opacity:1;" d="M 125.585938 163.492188 C 125.605469 163.414062 125.644531 163.316406 125.644531 163.21875 C 125.644531 163.042969 125.449219 163.042969 125.410156 163.042969 C 125.410156 163.042969 124.53125 163.121094 124.433594 163.121094 C 124.121094 163.140625 123.867188 163.179688 123.535156 163.199219 C 123.085938 163.238281 122.96875 163.257812 122.96875 163.570312 C 122.96875 163.765625 123.105469 163.765625 123.359375 163.765625 C 124.238281 163.765625 124.257812 163.921875 124.257812 164.097656 C 124.257812 164.214844 124.21875 164.351562 124.199219 164.410156 L 123.105469 168.765625 C 122.910156 168.296875 122.421875 167.574219 121.484375 167.574219 C 119.472656 167.574219 117.285156 170.191406 117.285156 172.847656 C 117.285156 174.625 118.320312 175.660156 119.53125 175.660156 C 120.527344 175.660156 121.367188 174.898438 121.875 174.292969 C 122.050781 175.367188 122.890625 175.660156 123.4375 175.660156 C 123.964844 175.660156 124.394531 175.347656 124.726562 174.703125 C 125 174.078125 125.253906 172.984375 125.253906 172.925781 C 125.253906 172.828125 125.195312 172.75 125.078125 172.75 C 124.921875 172.75 124.902344 172.847656 124.824219 173.121094 C 124.550781 174.175781 124.21875 175.308594 123.476562 175.308594 C 122.96875 175.308594 122.929688 174.839844 122.929688 174.488281 C 122.929688 174.410156 122.929688 174.039062 123.046875 173.53125 Z M 121.953125 173.355469 C 121.875 173.648438 121.875 173.6875 121.621094 174.039062 C 121.230469 174.527344 120.429688 175.308594 119.589844 175.308594 C 118.867188 175.308594 118.4375 174.644531 118.4375 173.589844 C 118.4375 172.59375 119.003906 170.582031 119.335938 169.839844 C 119.960938 168.589844 120.800781 167.945312 121.484375 167.945312 C 122.675781 167.945312 122.910156 169.410156 122.910156 169.546875 C 122.910156 169.566406 122.851562 169.800781 122.832031 169.839844 Z M 121.953125 173.355469 "/>
<path style=" stroke:none;fill-rule:nonzero;fill:rgb(0%,0%,0%);fill-opacity:1;" d="M 134.183594 168.160156 C 133.617188 168.277344 133.402344 168.707031 133.402344 169.039062 C 133.402344 169.46875 133.734375 169.625 133.988281 169.625 C 134.535156 169.625 134.90625 169.15625 134.90625 168.667969 C 134.90625 167.925781 134.046875 167.574219 133.285156 167.574219 C 132.191406 167.574219 131.585938 168.648438 131.429688 169 C 131.019531 167.652344 129.90625 167.574219 129.574219 167.574219 C 127.757812 167.574219 126.78125 169.917969 126.78125 170.328125 C 126.78125 170.386719 126.859375 170.484375 126.976562 170.484375 C 127.113281 170.484375 127.152344 170.367188 127.191406 170.308594 C 127.796875 168.316406 129.007812 167.945312 129.515625 167.945312 C 130.335938 167.945312 130.492188 168.6875 130.492188 169.117188 C 130.492188 169.507812 130.394531 169.917969 130.160156 170.777344 L 129.554688 173.238281 C 129.300781 174.3125 128.773438 175.308594 127.816406 175.308594 C 127.738281 175.308594 127.289062 175.308594 126.898438 175.074219 C 127.542969 174.9375 127.699219 174.410156 127.699219 174.195312 C 127.699219 173.84375 127.425781 173.628906 127.09375 173.628906 C 126.664062 173.628906 126.195312 174 126.195312 174.566406 C 126.195312 175.328125 127.035156 175.660156 127.796875 175.660156 C 128.65625 175.660156 129.28125 174.976562 129.652344 174.253906 C 129.945312 175.308594 130.824219 175.660156 131.488281 175.660156 C 133.324219 175.660156 134.300781 173.316406 134.300781 172.925781 C 134.300781 172.828125 134.222656 172.75 134.105469 172.75 C 133.949219 172.75 133.929688 172.847656 133.890625 172.984375 C 133.402344 174.566406 132.347656 175.308594 131.546875 175.308594 C 130.921875 175.308594 130.589844 174.839844 130.589844 174.097656 C 130.589844 173.707031 130.648438 173.414062 130.941406 172.242188 L 131.566406 169.800781 C 131.839844 168.726562 132.445312 167.945312 133.265625 167.945312 C 133.304688 167.945312 133.8125 167.945312 134.183594 168.160156 Z M 134.183594 168.160156 "/>
<path style=" stroke:none;fill-rule:nonzero;fill:rgb(0%,0%,0%);fill-opacity:1;" d="M 152.753906 169.683594 C 153.007812 169.683594 153.320312 169.683594 153.320312 169.351562 C 153.320312 169.019531 153.007812 169.019531 152.753906 169.019531 L 142.1875 169.019531 C 141.933594 169.019531 141.621094 169.019531 141.621094 169.332031 C 141.621094 169.683594 141.914062 169.683594 142.1875 169.683594 Z M 152.753906 173.003906 C 153.007812 173.003906 153.320312 173.003906 153.320312 172.691406 C 153.320312 172.339844 153.007812 172.339844 152.753906 172.339844 L 142.1875 172.339844 C 141.933594 172.339844 141.621094 172.339844 141.621094 172.671875 C 141.621094 173.003906 141.914062 173.003906 142.1875 173.003906 Z M 152.753906 173.003906 "/>
<path style=" stroke:none;fill-rule:nonzero;fill:rgb(0%,0%,0%);fill-opacity:1;" d="M 171.101562 171.363281 C 171.414062 171.363281 171.726562 171.363281 171.726562 171.011719 C 171.726562 170.640625 171.414062 170.640625 171.101562 170.640625 L 161.394531 170.640625 C 161.101562 170.640625 160.769531 170.640625 160.769531 171.011719 C 160.769531 171.363281 161.101562 171.363281 161.394531 171.363281 Z M 171.101562 171.363281 "/>
<path style=" stroke:none;fill-rule:nonzero;fill:rgb(0%,0%,0%);fill-opacity:1;" d="M 178.078125 190.097656 C 178.664062 190.078125 178.957031 189.667969 178.957031 189.238281 C 178.957031 188.632812 178.527344 188.359375 178.097656 188.359375 C 177.667969 188.359375 177.21875 188.613281 177.21875 189.238281 C 177.21875 190.15625 178.117188 190.917969 179.210938 190.917969 C 181.945312 190.917969 182.960938 186.71875 184.230469 181.523438 C 185.617188 175.859375 186.789062 170.136719 187.746094 164.375 C 188.410156 160.566406 189.074219 156.972656 189.679688 154.667969 C 189.894531 153.789062 190.519531 151.464844 191.203125 151.464844 C 191.769531 151.464844 192.21875 151.816406 192.296875 151.875 C 191.691406 151.914062 191.398438 152.304688 191.398438 152.753906 C 191.398438 153.359375 191.847656 153.632812 192.257812 153.632812 C 192.6875 153.632812 193.136719 153.378906 193.136719 152.734375 C 193.136719 151.777344 192.160156 151.074219 191.183594 151.074219 C 189.816406 151.074219 188.800781 153.027344 187.824219 156.679688 C 187.765625 156.875 185.324219 165.878906 183.351562 177.617188 C 182.882812 180.351562 182.375 183.339844 181.789062 185.839844 C 181.457031 187.148438 180.636719 190.527344 179.171875 190.527344 C 178.527344 190.527344 178.097656 190.097656 178.078125 190.097656 Z M 178.078125 190.097656 "/>
<path style=" stroke:none;fill-rule:nonzero;fill:rgb(0%,0%,0%);fill-opacity:1;" d="M 198.800781 151.175781 C 198.566406 150.707031 198.214844 150.375 197.648438 150.375 C 196.203125 150.375 194.660156 152.210938 194.660156 154.027344 C 194.660156 155.199219 195.34375 156.019531 196.300781 156.019531 C 196.554688 156.019531 197.179688 155.960938 197.921875 155.082031 C 198.019531 155.609375 198.46875 156.019531 199.054688 156.019531 C 199.503906 156.019531 199.777344 155.726562 199.992188 155.335938 C 200.1875 154.886719 200.363281 154.125 200.363281 154.105469 C 200.363281 153.96875 200.246094 153.96875 200.207031 153.96875 C 200.089844 153.96875 200.070312 154.027344 200.03125 154.203125 C 199.816406 155.003906 199.601562 155.746094 199.09375 155.746094 C 198.742188 155.746094 198.722656 155.414062 198.722656 155.179688 C 198.722656 154.90625 198.742188 154.789062 198.878906 154.242188 C 199.015625 153.734375 199.035156 153.597656 199.152344 153.128906 L 199.601562 151.390625 C 199.679688 151.039062 199.679688 151.019531 199.679688 150.960938 C 199.679688 150.746094 199.542969 150.628906 199.328125 150.628906 C 199.015625 150.628906 198.839844 150.902344 198.800781 151.175781 Z M 198 154.398438 C 197.921875 154.632812 197.921875 154.652344 197.746094 154.867188 C 197.199219 155.550781 196.691406 155.746094 196.339844 155.746094 C 195.714844 155.746094 195.539062 155.0625 195.539062 154.574219 C 195.539062 153.949219 195.929688 152.425781 196.222656 151.839844 C 196.613281 151.117188 197.160156 150.648438 197.667969 150.648438 C 198.46875 150.648438 198.644531 151.664062 198.644531 151.742188 C 198.644531 151.820312 198.625 151.898438 198.605469 151.957031 Z M 198 154.398438 "/>
<path style=" stroke:none;fill-rule:nonzero;fill:rgb(0%,0%,0%);fill-opacity:1;" d="M 189.152344 183.035156 C 189.152344 183.035156 189.152344 182.898438 188.996094 182.898438 C 188.722656 182.898438 187.804688 182.996094 187.472656 183.035156 C 187.375 183.035156 187.238281 183.054688 187.238281 183.269531 C 187.238281 183.425781 187.355469 183.425781 187.550781 183.425781 C 188.136719 183.425781 188.15625 183.503906 188.15625 183.640625 C 188.15625 183.71875 188.058594 184.148438 188 184.402344 L 186.964844 188.464844 C 186.828125 189.089844 186.769531 189.304688 186.769531 189.734375 C 186.769531 190.90625 187.433594 191.6875 188.351562 191.6875 C 189.816406 191.6875 191.359375 189.832031 191.359375 188.035156 C 191.359375 186.902344 190.695312 186.042969 189.699219 186.042969 C 189.132812 186.042969 188.605469 186.414062 188.234375 186.785156 Z M 188 187.742188 C 188.058594 187.46875 188.058594 187.449219 188.175781 187.3125 C 188.78125 186.511719 189.347656 186.316406 189.679688 186.316406 C 190.128906 186.316406 190.460938 186.6875 190.460938 187.488281 C 190.460938 188.230469 190.050781 189.65625 189.816406 190.125 C 189.40625 190.964844 188.839844 191.414062 188.351562 191.414062 C 187.921875 191.414062 187.511719 191.082031 187.511719 190.164062 C 187.511719 189.910156 187.511719 189.675781 187.707031 188.894531 Z M 188 187.742188 "/>
<path style=" stroke:none;fill-rule:nonzero;fill:rgb(0%,0%,0%);fill-opacity:1;" d="M 212.335938 168.277344 C 212.707031 168.277344 212.84375 168.277344 212.84375 167.945312 C 212.84375 167.75 212.707031 167.75 212.375 167.75 L 210.929688 167.75 C 211.261719 165.914062 211.515625 164.644531 211.671875 164.058594 C 211.769531 163.628906 212.140625 163.21875 212.609375 163.21875 C 212.980469 163.21875 213.371094 163.375 213.546875 163.550781 C 212.84375 163.609375 212.628906 164.136719 212.628906 164.449219 C 212.628906 164.800781 212.902344 165.015625 213.234375 165.015625 C 213.605469 165.015625 214.132812 164.703125 214.132812 164.019531 C 214.132812 163.277344 213.390625 162.867188 212.589844 162.867188 C 211.828125 162.867188 211.066406 163.433594 210.714844 164.136719 C 210.382812 164.761719 210.207031 165.40625 209.796875 167.75 L 208.605469 167.75 C 208.253906 167.75 208.078125 167.75 208.078125 168.082031 C 208.078125 168.277344 208.175781 168.277344 208.546875 168.277344 L 209.699219 168.277344 C 209.367188 169.9375 208.625 174 208.214844 175.914062 C 207.921875 177.476562 207.648438 178.785156 206.75 178.785156 C 206.691406 178.785156 206.183594 178.785156 205.851562 178.433594 C 206.769531 178.375 206.769531 177.574219 206.769531 177.554688 C 206.769531 177.203125 206.496094 176.988281 206.164062 176.988281 C 205.792969 176.988281 205.265625 177.300781 205.265625 177.984375 C 205.265625 178.746094 206.046875 179.136719 206.75 179.136719 C 208.585938 179.136719 209.328125 175.855469 209.523438 174.957031 C 209.855469 173.589844 210.734375 168.824219 210.8125 168.277344 Z M 212.335938 168.277344 "/>
<path style=" stroke:none;fill-rule:nonzero;fill:rgb(0%,0%,0%);fill-opacity:1;" d="M 220.738281 179.839844 C 220.738281 179.78125 220.738281 179.742188 220.445312 179.449219 C 218.648438 177.632812 217.652344 174.683594 217.652344 171.011719 C 217.652344 167.535156 218.492188 164.546875 220.5625 162.4375 C 220.738281 162.261719 220.738281 162.242188 220.738281 162.183594 C 220.738281 162.066406 220.660156 162.046875 220.582031 162.046875 C 220.347656 162.046875 218.882812 163.335938 218.003906 165.09375 C 217.085938 166.890625 216.675781 168.824219 216.675781 171.011719 C 216.675781 172.613281 216.929688 174.742188 217.867188 176.675781 C 218.921875 178.824219 220.386719 179.976562 220.582031 179.976562 C 220.660156 179.976562 220.738281 179.957031 220.738281 179.839844 Z M 220.738281 179.839844 "/>
<path style=" stroke:none;fill-rule:nonzero;fill:rgb(0%,0%,0%);fill-opacity:1;" d="M 230.242188 168.160156 C 229.675781 168.277344 229.460938 168.707031 229.460938 169.039062 C 229.460938 169.46875 229.792969 169.625 230.046875 169.625 C 230.59375 169.625 230.964844 169.15625 230.964844 168.667969 C 230.964844 167.925781 230.105469 167.574219 229.34375 167.574219 C 228.25 167.574219 227.644531 168.648438 227.488281 169 C 227.078125 167.652344 225.964844 167.574219 225.632812 167.574219 C 223.816406 167.574219 222.839844 169.917969 222.839844 170.328125 C 222.839844 170.386719 222.917969 170.484375 223.035156 170.484375 C 223.171875 170.484375 223.210938 170.367188 223.25 170.308594 C 223.855469 168.316406 225.066406 167.945312 225.574219 167.945312 C 226.394531 167.945312 226.550781 168.6875 226.550781 169.117188 C 226.550781 169.507812 226.453125 169.917969 226.21875 170.777344 L 225.613281 173.238281 C 225.359375 174.3125 224.832031 175.308594 223.875 175.308594 C 223.796875 175.308594 223.347656 175.308594 222.957031 175.074219 C 223.601562 174.9375 223.757812 174.410156 223.757812 174.195312 C 223.757812 173.84375 223.484375 173.628906 223.152344 173.628906 C 222.722656 173.628906 222.253906 174 222.253906 174.566406 C 222.253906 175.328125 223.09375 175.660156 223.855469 175.660156 C 224.714844 175.660156 225.339844 174.976562 225.710938 174.253906 C 226.003906 175.308594 226.882812 175.660156 227.546875 175.660156 C 229.382812 175.660156 230.359375 173.316406 230.359375 172.925781 C 230.359375 172.828125 230.28125 172.75 230.164062 172.75 C 230.007812 172.75 229.988281 172.847656 229.949219 172.984375 C 229.460938 174.566406 228.40625 175.308594 227.605469 175.308594 C 226.980469 175.308594 226.648438 174.839844 226.648438 174.097656 C 226.648438 173.707031 226.707031 173.414062 227 172.242188 L 227.625 169.800781 C 227.898438 168.726562 228.503906 167.945312 229.324219 167.945312 C 229.363281 167.945312 229.871094 167.945312 230.242188 168.160156 Z M 230.242188 168.160156 "/>
<path style=" stroke:none;fill-rule:nonzero;fill:rgb(0%,0%,0%);fill-opacity:1;" d="M 236.785156 171.011719 C 236.785156 169.664062 236.609375 167.4375 235.59375 165.347656 C 234.539062 163.199219 233.074219 162.046875 232.878906 162.046875 C 232.800781 162.046875 232.703125 162.066406 232.703125 162.183594 C 232.703125 162.242188 232.703125 162.261719 233.015625 162.574219 C 234.8125 164.390625 235.808594 167.339844 235.808594 171.011719 C 235.808594 174.488281 234.96875 177.476562 232.898438 179.585938 C 232.703125 179.742188 232.703125 179.78125 232.703125 179.839844 C 232.703125 179.957031 232.800781 179.976562 232.878906 179.976562 C 233.113281 179.976562 234.578125 178.6875 235.457031 176.929688 C 236.375 175.113281 236.785156 173.179688 236.785156 171.011719 Z M 236.785156 171.011719 "/>
<path style=" stroke:none;fill-rule:nonzero;fill:rgb(0%,0%,0%);fill-opacity:1;" d="M 245.976562 171.011719 C 245.976562 170.484375 245.546875 170.054688 245.039062 170.054688 C 244.511719 170.054688 244.082031 170.484375 244.082031 171.011719 C 244.082031 171.519531 244.511719 171.949219 245.039062 171.949219 C 245.546875 171.949219 245.976562 171.519531 245.976562 171.011719 Z M 245.976562 171.011719 "/>
<path style=" stroke:none;fill-rule:nonzero;fill:rgb(0%,0%,0%);fill-opacity:1;" d="M 260.527344 163.492188 C 260.546875 163.414062 260.585938 163.316406 260.585938 163.21875 C 260.585938 163.042969 260.390625 163.042969 260.351562 163.042969 C 260.351562 163.042969 259.472656 163.121094 259.375 163.121094 C 259.0625 163.140625 258.808594 163.179688 258.476562 163.199219 C 258.027344 163.238281 257.910156 163.257812 257.910156 163.570312 C 257.910156 163.765625 258.046875 163.765625 258.300781 163.765625 C 259.179688 163.765625 259.199219 163.921875 259.199219 164.097656 C 259.199219 164.214844 259.160156 164.351562 259.140625 164.410156 L 258.046875 168.765625 C 257.851562 168.296875 257.363281 167.574219 256.425781 167.574219 C 254.414062 167.574219 252.226562 170.191406 252.226562 172.847656 C 252.226562 174.625 253.261719 175.660156 254.472656 175.660156 C 255.46875 175.660156 256.308594 174.898438 256.816406 174.292969 C 256.992188 175.367188 257.832031 175.660156 258.378906 175.660156 C 258.90625 175.660156 259.335938 175.347656 259.667969 174.703125 C 259.941406 174.078125 260.195312 172.984375 260.195312 172.925781 C 260.195312 172.828125 260.136719 172.75 260.019531 172.75 C 259.863281 172.75 259.84375 172.847656 259.765625 173.121094 C 259.492188 174.175781 259.160156 175.308594 258.417969 175.308594 C 257.910156 175.308594 257.871094 174.839844 257.871094 174.488281 C 257.871094 174.410156 257.871094 174.039062 257.988281 173.53125 Z M 256.894531 173.355469 C 256.816406 173.648438 256.816406 173.6875 256.5625 174.039062 C 256.171875 174.527344 255.371094 175.308594 254.53125 175.308594 C 253.808594 175.308594 253.378906 174.644531 253.378906 173.589844 C 253.378906 172.59375 253.945312 170.582031 254.277344 169.839844 C 254.902344 168.589844 255.742188 167.945312 256.425781 167.945312 C 257.617188 167.945312 257.851562 169.410156 257.851562 169.546875 C 257.851562 169.566406 257.792969 169.800781 257.773438 169.839844 Z M 256.894531 173.355469 "/>
<path style=" stroke:none;fill-rule:nonzero;fill:rgb(0%,0%,0%);fill-opacity:1;" d="M 269.125 168.160156 C 268.558594 168.277344 268.34375 168.707031 268.34375 169.039062 C 268.34375 169.46875 268.675781 169.625 268.929688 169.625 C 269.476562 169.625 269.847656 169.15625 269.847656 168.667969 C 269.847656 167.925781 268.988281 167.574219 268.226562 167.574219 C 267.132812 167.574219 266.527344 168.648438 266.371094 169 C 265.960938 167.652344 264.847656 167.574219 264.515625 167.574219 C 262.699219 167.574219 261.722656 169.917969 261.722656 170.328125 C 261.722656 170.386719 261.800781 170.484375 261.917969 170.484375 C 262.054688 170.484375 262.09375 170.367188 262.132812 170.308594 C 262.738281 168.316406 263.949219 167.945312 264.457031 167.945312 C 265.277344 167.945312 265.433594 168.6875 265.433594 169.117188 C 265.433594 169.507812 265.335938 169.917969 265.101562 170.777344 L 264.496094 173.238281 C 264.242188 174.3125 263.714844 175.308594 262.757812 175.308594 C 262.679688 175.308594 262.230469 175.308594 261.839844 175.074219 C 262.484375 174.9375 262.640625 174.410156 262.640625 174.195312 C 262.640625 173.84375 262.367188 173.628906 262.035156 173.628906 C 261.605469 173.628906 261.136719 174 261.136719 174.566406 C 261.136719 175.328125 261.976562 175.660156 262.738281 175.660156 C 263.597656 175.660156 264.222656 174.976562 264.59375 174.253906 C 264.886719 175.308594 265.765625 175.660156 266.429688 175.660156 C 268.265625 175.660156 269.242188 173.316406 269.242188 172.925781 C 269.242188 172.828125 269.164062 172.75 269.046875 172.75 C 268.890625 172.75 268.871094 172.847656 268.832031 172.984375 C 268.34375 174.566406 267.289062 175.308594 266.488281 175.308594 C 265.863281 175.308594 265.53125 174.839844 265.53125 174.097656 C 265.53125 173.707031 265.589844 173.414062 265.882812 172.242188 L 266.507812 169.800781 C 266.78125 168.726562 267.386719 167.945312 268.207031 167.945312 C 268.246094 167.945312 268.753906 167.945312 269.125 168.160156 Z M 269.125 168.160156 "/>
</g>
</svg>
