<?xml version="1.0" encoding="UTF-8" standalone="no"?>
<!-- Created with Inkscape (http://www.inkscape.org/) -->

<svg
   xmlns:ns0="http://www.iki.fi/pav/software/textext/"
   xmlns:dc="http://purl.org/dc/elements/1.1/"
   xmlns:cc="http://creativecommons.org/ns#"
   xmlns:rdf="http://www.w3.org/1999/02/22-rdf-syntax-ns#"
   xmlns:svg="http://www.w3.org/2000/svg"
   xmlns="http://www.w3.org/2000/svg"
   xmlns:sodipodi="http://sodipodi.sourceforge.net/DTD/sodipodi-0.dtd"
   xmlns:inkscape="http://www.inkscape.org/namespaces/inkscape"
   inkscape:version="0.48.3.1 r9886"
   version="1.1"
   id="svg3854"
   height="109.5651"
   width="466.25613"
   sodipodi:docname="cos.svg">
  <sodipodi:namedview
     id="base"
     pagecolor="#ffffff"
     bordercolor="#666666"
     borderopacity="1.0"
     inkscape:pageopacity="0.0"
     inkscape:pageshadow="2"
     inkscape:zoom="0.35"
     inkscape:cx="200.06378"
     inkscape:cy="-208.63924"
     inkscape:document-units="px"
     inkscape:current-layer="svg3854"
     showgrid="false"
     inkscape:window-width="782"
     inkscape:window-height="557"
     inkscape:window-x="123"
     inkscape:window-y="72"
     inkscape:window-maximized="0"
     fit-margin-top="0"
     fit-margin-left="0"
     fit-margin-right="0"
     fit-margin-bottom="0"
     showborder="false"
     inkscape:showpageshadow="false" />
  <defs
     id="defs3856" />
  <metadata
     id="metadata3859">
    <rdf:RDF>
      <cc:Work
         rdf:about="">
        <dc:format>image/svg+xml</dc:format>
        <dc:type
           rdf:resource="http://purl.org/dc/dcmitype/StillImage" />
        <dc:title></dc:title>
      </cc:Work>
    </rdf:RDF>
  </metadata>
  <g
     transform="translate(-124.93622,-214.15784)"
     inkscape:label="Layer 1"
     inkscape:groupmode="layer"
     id="layer1" />
  <g
     style="font-style:normal;font-variant:normal;font-weight:normal;font-stretch:normal;letter-spacing:normal;word-spacing:normal;text-anchor:start;fill:none;stroke:#000000;stroke-linecap:butt;stroke-linejoin:miter;stroke-miterlimit:10.43299961;stroke-opacity:1;stroke-dasharray:none;stroke-dashoffset:0"
     ns0:preamble="/home/abhinavc/playpen/textext/preamble.ini"
     ns0:text="\\textbf{Q} What do you call friends who love math? \\\\\n\\textbf{A} Algebros \n"
     word-spacing="normal"
     letter-spacing="normal"
     font-size-adjust="none"
     font-stretch="normal"
     font-weight="normal"
     font-variant="normal"
     font-style="normal"
     stroke-miterlimit="10.433"
     xml:space="preserve"
     transform="matrix(3.3045083,0,0,-3.3045083,-1075.6068,1770.3903)"
     id="content">
<path
   id="path4475"
   d="m 331.52,527.54 0.01,0 0.02,0 0.01,0 0.01,0 0.02,0 0.01,0.01 0.02,0 0.01,0 0.02,0 0.01,0 0.02,0 0.01,0.01 0.02,0 0.01,0 0.02,0.01 0.01,0 0.01,0.01 0.02,0 0.01,0.01 0.01,0.01 0.01,0.01 0.01,0 0.01,0.01 0.01,0.01 0,0.01 0.01,0 0,0.01 0,0 0.01,0.01 0,0.01 0,0 0.01,0.01 0,0.01 0,0.01 0,0.01 0.01,0 0,0.01 0,0.01 0,0.01 0,0.01 0,0.01 c 0,0.08 -0.02,0.1 -0.15,0.28 l -0.65,0.84 c 1.27,0.76 1.34,2.4 1.34,3.11 0,2 -0.73,3.72 -3.34,3.72 -2.75,0 -3.34,-1.9 -3.34,-3.72 0,-1.85 0.65,-3.61 3.33,-3.61 v 0.77 c -1.9,0 -1.9,1.97 -1.9,2.85 0,0.88 0,2.93 1.9,2.93 1.91,0 1.91,-2.04 1.91,-2.93 0,-0.62 0,-1.66 -0.55,-2.29 l -0.55,0.7 c -0.1,0.11 -0.14,0.11 -0.34,0.11 h -0.61 c -0.13,0 -0.35,0 -0.35,-0.22 0,-0.11 0.31,-0.56 0.49,-0.81 0.03,-0.05 0.2,-0.29 0.2,-0.32 0,-0.02 -0.16,-0.02 -0.2,-0.02 v -0.77 c 0.17,0 0.4,0 0.72,0.05 0.12,-0.18 0.24,-0.36 0.37,-0.54 0.21,-0.32 0.24,-0.35 0.57,-0.35 z"
   inkscape:connector-curvature="0"
   style="fill:#000000;stroke-width:0" />
<path
   id="path4477"
   d="m 346.96,535.49 h -0.72 l -0.9,-3.12 c -0.26,-0.88 -0.74,-2.55 -0.79,-3.06 h -0.01 c 0,0.01 -0.06,0.53 -0.71,2.79 l -0.98,3.39 h -0.8 l -0.9,-3.1 c -0.22,-0.76 -0.72,-2.5 -0.77,-3.06 h -0.01 c -0.04,0.4 -0.3,1.37 -0.39,1.7 l -0.46,1.66 -0.81,2.8 h -0.85 l 2.02,-6.89 h 0.8 l 1,3.44 c 0.21,0.73 0.63,2.21 0.69,2.73 h 0.01 c 0.04,-0.3 0.28,-1.25 0.55,-2.19 l 1.15,-3.98 h 0.86 z"
   inkscape:connector-curvature="0"
   style="fill:#000000;stroke-width:0" />
<path
   id="path4479"
   d="m 351.45,531.56 0,0.06 0,0.06 0,0.07 0,0.06 -0.01,0.07 -0.01,0.06 -0.01,0.07 -0.01,0.07 -0.01,0.06 -0.02,0.07 -0.02,0.06 -0.02,0.07 -0.02,0.06 -0.03,0.06 -0.03,0.06 -0.03,0.06 -0.04,0.06 -0.04,0.05 -0.04,0.06 -0.05,0.05 -0.06,0.04 -0.05,0.05 -0.07,0.04 -0.06,0.04 -0.04,0.01 -0.04,0.02 -0.03,0.01 -0.04,0.02 -0.04,0.01 -0.04,0.02 -0.05,0.01 -0.04,0.01 -0.05,0.01 -0.04,0 -0.05,0.01 -0.05,0.01 -0.05,0 -0.06,0 -0.05,0.01 -0.06,0 c -0.61,0 -1.09,-0.31 -1.41,-0.72 v 3.09 h -0.75 v -6.89 h 0.78 v 2.43 c 0,0.66 0.25,1.48 1,1.48 0.96,0 0.97,-0.7 0.97,-1.02 v -2.89 h 0.77 z"
   inkscape:connector-curvature="0"
   style="fill:#000000;stroke-width:0" />
<path
   id="path4481"
   d="m 356.24,531.47 0,0.09 0,0.09 -0.01,0.09 -0.02,0.09 -0.02,0.09 -0.02,0.08 -0.02,0.08 -0.03,0.08 -0.04,0.08 -0.03,0.07 -0.04,0.07 -0.04,0.07 -0.05,0.07 -0.05,0.06 -0.05,0.06 -0.05,0.06 -0.06,0.06 -0.06,0.05 -0.06,0.05 -0.07,0.04 -0.06,0.05 -0.07,0.03 -0.07,0.04 -0.07,0.03 -0.08,0.03 -0.08,0.03 -0.07,0.02 -0.08,0.02 -0.09,0.01 -0.08,0.01 -0.08,0 -0.09,0.01 c -0.64,0 -1.09,-0.16 -1.56,-0.43 l 0.06,-0.66 c 0.52,0.37 1.01,0.5 1.5,0.5 0.47,0 0.87,-0.4 0.87,-1.13 v -0.43 c -1.49,-0.02 -2.76,-0.44 -2.76,-1.31 0,-0.43 0.27,-1.23 1.14,-1.23 0.14,0 1.07,0.02 1.65,0.47 l -0.37,0.32 c -0.29,-0.18 -0.67,-0.19 -0.78,-0.19 -0.47,0 -0.92,0.23 -0.92,0.65 0,0.69 1.61,0.76 2.04,0.78 v -0.61 c 0,-0.19 0,-0.44 -0.34,-0.63 l 0.37,-0.32 v -0.36 h 0.74 z"
   inkscape:connector-curvature="0"
   style="fill:#000000;stroke-width:0" />
<path
   id="path4483"
   d="m 358.8,532.43 h 1.41 v 0.58 h -1.41 v 1.26 h -0.68 v -1.26 h -0.87 v -0.58 h 0.84 v -2.65 c 0,-0.6 0.14,-1.29 0.82,-1.29 0.7,0 1.21,0.25 1.46,0.37 l -0.16,0.59 c -0.26,-0.21 -0.58,-0.33 -0.9,-0.33 -0.37,0 -0.51,0.3 -0.51,0.83 z"
   inkscape:connector-curvature="0"
   style="fill:#000000;stroke-width:0" />
<path
   id="path4485"
   d="m 369.65,535.49 h -0.75 v -2.92 c -0.52,0.44 -1.08,0.55 -1.45,0.55 -0.98,0 -1.76,-1.04 -1.76,-2.32 0,-1.3 0.77,-2.31 1.71,-2.31 0.33,0 0.92,0.09 1.47,0.62 l -0.32,0.26 c -0.23,-0.2 -0.48,-0.28 -0.74,-0.28 -0.62,0 -1.34,0.47 -1.34,1.7 0,1.31 0.85,1.72 1.44,1.72 0.45,0 0.74,-0.23 0.96,-0.54 v -1.99 c 0,-0.14 -0.01,-0.32 -0.32,-0.61 l 0.32,-0.26 v -0.51 h 0.78 z"
   inkscape:connector-curvature="0"
   style="fill:#000000;stroke-width:0" />
<path
   id="path4487"
   d="m 375.15,530.78 -0.01,0.13 -0.01,0.12 -0.01,0.12 -0.02,0.12 -0.02,0.11 -0.03,0.12 -0.04,0.11 -0.04,0.11 -0.04,0.1 -0.05,0.11 -0.05,0.1 -0.06,0.1 -0.06,0.09 -0.07,0.09 -0.07,0.09 -0.07,0.08 -0.08,0.08 -0.08,0.07 -0.08,0.07 -0.08,0.07 -0.09,0.06 -0.09,0.06 -0.1,0.05 -0.09,0.05 -0.1,0.04 -0.1,0.04 -0.1,0.03 -0.11,0.03 -0.11,0.02 -0.1,0.01 -0.11,0.01 -0.11,0.01 -0.01,-0.61 c 0.69,0 1.41,-0.52 1.41,-1.69 0,-1.17 -0.68,-1.76 -1.41,-1.76 h 0 c -0.69,0 -1.41,0.56 -1.41,1.76 0,1.2 0.76,1.69 1.41,1.69 l 0.01,0.61 c -1.23,0 -2.19,-1.1 -2.19,-2.4 0,-1.31 1.01,-2.29 2.18,-2.29 1.19,0 2.19,1 2.19,2.29 z"
   inkscape:connector-curvature="0"
   style="fill:#000000;stroke-width:0" />
<path
   id="path4489"
   d="m 384.56,533.01 h -0.74 c -1.3,-3.16 -1.32,-3.62 -1.33,-3.85 h -0.01 c -0.06,0.67 -0.85,2.52 -0.89,2.61 l -0.54,1.24 h -0.79 l 1.93,-4.41 c -0.12,-0.31 -0.31,-0.81 -0.36,-0.9 -0.25,-0.57 -0.42,-0.57 -0.56,-0.57 -0.16,0 -0.48,0.04 -0.78,0.16 l 0.06,-0.65 c 0.22,-0.05 0.5,-0.08 0.72,-0.08 0.35,0 0.71,0.12 1.12,1.13 z"
   inkscape:connector-curvature="0"
   style="fill:#000000;stroke-width:0" />
<path
   id="path4491"
   d="m 389.11,530.78 0,0.13 -0.01,0.12 -0.01,0.12 -0.02,0.12 -0.02,0.11 -0.03,0.12 -0.04,0.11 -0.04,0.11 -0.04,0.1 -0.05,0.11 -0.05,0.1 -0.06,0.1 -0.06,0.09 -0.07,0.09 -0.07,0.09 -0.07,0.08 -0.08,0.08 -0.08,0.07 -0.08,0.07 -0.08,0.07 -0.09,0.06 -0.09,0.06 -0.1,0.05 -0.09,0.05 -0.1,0.04 -0.1,0.04 -0.11,0.03 -0.1,0.03 -0.11,0.02 -0.1,0.01 -0.11,0.01 -0.11,0.01 -0.01,-0.61 c 0.69,0 1.41,-0.52 1.41,-1.69 0,-1.17 -0.68,-1.76 -1.41,-1.76 h 0 c -0.69,0 -1.41,0.56 -1.41,1.76 0,1.2 0.76,1.69 1.41,1.69 l 0.01,0.61 c -1.23,0 -2.19,-1.1 -2.19,-2.4 0,-1.31 1.01,-2.29 2.18,-2.29 1.19,0 2.18,1 2.18,2.29 z"
   inkscape:connector-curvature="0"
   style="fill:#000000;stroke-width:0" />
<path
   id="path4493"
   d="m 393.76,533.01 h -0.78 v -2.88 c 0,-0.75 -0.56,-1.1 -1.19,-1.1 -0.71,0 -0.78,0.26 -0.78,0.69 v 3.29 h -0.77 v -3.33 c 0,-0.72 0.22,-1.19 1.05,-1.19 0.53,0 1.23,0.16 1.72,0.58 v -0.47 h 0.75 z"
   inkscape:connector-curvature="0"
   style="fill:#000000;stroke-width:0" />
<path
   id="path4495"
   d="m 403.32,532.75 -0.06,0.03 -0.05,0.03 -0.05,0.03 -0.05,0.02 -0.05,0.03 -0.05,0.02 -0.05,0.03 -0.04,0.02 -0.05,0.02 -0.04,0.02 -0.05,0.02 -0.04,0.01 -0.09,0.03 -0.09,0.03 -0.09,0.02 -0.09,0.02 -0.09,0.02 -0.09,0.01 -0.05,0 -0.05,0.01 -0.05,0 -0.05,0 -0.05,0 -0.05,0.01 -0.06,0 -0.05,0 c -1.39,0 -2.19,-1.21 -2.19,-2.38 0,-1.23 0.9,-2.31 2.15,-2.31 0.53,0 1.08,0.14 1.62,0.5 l -0.06,0.67 c -0.51,-0.4 -1.04,-0.54 -1.55,-0.54 -0.83,0 -1.39,0.72 -1.39,1.69 0,0.78 0.37,1.73 1.43,1.73 0.51,0 0.85,-0.08 1.4,-0.44 z"
   inkscape:connector-curvature="0"
   style="fill:#000000;stroke-width:0" />
<path
   id="path4497"
   d="m 407.64,531.47 -0.01,0.09 0,0.09 -0.01,0.09 -0.02,0.09 -0.01,0.09 -0.03,0.08 -0.02,0.08 -0.03,0.08 -0.03,0.08 -0.04,0.07 -0.04,0.07 -0.04,0.07 -0.05,0.07 -0.04,0.06 -0.06,0.06 -0.05,0.06 -0.06,0.06 -0.06,0.05 -0.06,0.05 -0.06,0.04 -0.07,0.05 -0.07,0.03 -0.07,0.04 -0.07,0.03 -0.08,0.03 -0.07,0.03 -0.08,0.02 -0.08,0.02 -0.08,0.01 -0.09,0.01 -0.08,0 -0.09,0.01 c -0.64,0 -1.09,-0.16 -1.56,-0.43 l 0.06,-0.66 c 0.52,0.37 1.02,0.5 1.5,0.5 0.47,0 0.87,-0.4 0.87,-1.13 v -0.43 c -1.49,-0.02 -2.75,-0.44 -2.75,-1.31 0,-0.43 0.26,-1.23 1.13,-1.23 0.14,0 1.07,0.02 1.65,0.47 l -0.37,0.32 c -0.29,-0.18 -0.66,-0.19 -0.77,-0.19 -0.48,0 -0.93,0.23 -0.93,0.65 0,0.69 1.61,0.76 2.04,0.78 v -0.61 c 0,-0.19 0,-0.44 -0.34,-0.63 l 0.37,-0.32 v -0.36 h 0.75 z"
   inkscape:connector-curvature="0"
   style="fill:#000000;stroke-width:0" />
<polygon
   id="polygon4499"
   points="410.01,528.6 410.01,535.49 409.26,535.49 409.26,528.6 "
   style="fill:#000000;stroke-width:0" />
<polygon
   id="polygon4501"
   points="412.39,528.6 412.39,535.49 411.64,535.49 411.64,528.6 "
   style="fill:#000000;stroke-width:0" />
<path
   id="path4503"
   d="m 419.64,532.43 h 1.09 v 0.58 h -1.12 v 1.18 c 0,0.73 0.67,0.8 0.92,0.8 0.2,0 0.47,-0.02 0.81,-0.16 v 0.66 c -0.12,0.03 -0.43,0.11 -0.8,0.11 -0.93,0 -1.65,-0.7 -1.65,-1.7 v -0.89 h -0.73 v -0.58 h 0.73 v -3.83 h 0.75 z"
   inkscape:connector-curvature="0"
   style="fill:#000000;stroke-width:0" />
<path
   id="path4505"
   d="m 422.49,530.72 0.01,0.1 0,0.09 0.01,0.08 0.02,0.09 0.01,0.09 0.03,0.08 0.02,0.08 0.03,0.08 0.03,0.08 0.04,0.07 0.04,0.07 0.04,0.07 0.05,0.07 0.05,0.06 0.05,0.06 0.05,0.06 0.06,0.06 0.06,0.05 0.07,0.05 0.06,0.05 0.07,0.04 0.07,0.04 0.07,0.04 0.08,0.03 0.08,0.03 0.08,0.03 0.08,0.02 0.08,0.02 0.09,0.02 0.09,0.01 0.09,0.01 0.09,0 v 0.67 c -0.89,-0.01 -1.44,-0.5 -1.74,-0.96 v 0.91 h -0.7 v -4.47 h 0.74 z"
   inkscape:connector-curvature="0"
   style="fill:#000000;stroke-width:0" />
<polygon
   id="polygon4507"
   points="425.96,534.47 425.96,535.35 425.07,535.35 425.07,534.47 "
   style="fill:#000000;stroke-width:0" />
<polygon
   id="polygon4509"
   points="425.89,528.6 425.89,533.01 425.14,533.01 425.14,528.6 "
   style="fill:#000000;stroke-width:0" />
<path
   id="path4511"
   d="m 430.84,530.77 0,0.03 0,0.04 0,0.04 -0.01,0.04 0,0.04 0,0.04 0,0.05 0,0.04 0,0.05 -0.01,0.05 0,0.05 -0.01,0.05 0,0.06 -0.01,0.05 -0.01,0.06 -0.01,0.05 -0.01,0.06 -0.01,0.06 -0.01,0.06 -0.02,0.06 -0.01,0.06 -0.02,0.06 -0.02,0.06 -0.02,0.05 -0.02,0.06 -0.02,0.06 -0.03,0.06 -0.02,0.06 -0.03,0.06 -0.03,0.06 -0.04,0.05 -0.03,0.06 c -0.41,0.62 -1.02,0.73 -1.37,0.73 -1.11,0 -2,-1.06 -2,-2.34 0,-1.31 0.95,-2.35 2.14,-2.35 0.63,0 1.2,0.24 1.59,0.51 l -0.06,0.65 c -0.63,-0.52 -1.29,-0.56 -1.52,-0.56 -0.79,0 -1.43,0.71 -1.46,1.68 l 0.05,0.55 c 0.16,0.75 0.69,1.25 1.26,1.25 0.51,0 1.07,-0.34 1.2,-1.25 h -2.46 l -0.05,-0.55 z"
   inkscape:connector-curvature="0"
   style="fill:#000000;stroke-width:0" />
<path
   id="path4513"
   d="m 435.47,531.56 0,0.06 0,0.06 0,0.07 -0.01,0.06 0,0.07 -0.01,0.06 -0.01,0.07 -0.01,0.07 -0.01,0.06 -0.02,0.07 -0.02,0.06 -0.02,0.07 -0.02,0.06 -0.03,0.06 -0.03,0.06 -0.03,0.06 -0.04,0.06 -0.04,0.05 -0.05,0.06 -0.05,0.05 -0.05,0.04 -0.06,0.05 -0.06,0.04 -0.07,0.04 -0.03,0.01 -0.04,0.02 -0.04,0.01 -0.03,0.02 -0.04,0.01 -0.05,0.02 -0.04,0.01 -0.04,0.01 -0.05,0.01 -0.05,0 -0.05,0.01 -0.05,0.01 -0.05,0 -0.05,0 -0.05,0.01 -0.06,0 c -0.9,0 -1.38,-0.68 -1.44,-0.76 v 0.71 h -0.72 v -4.47 h 0.78 v 2.43 c 0,0.66 0.25,1.48 1,1.48 0.96,0 0.97,-0.7 0.97,-1.02 v -2.89 h 0.77 z"
   inkscape:connector-curvature="0"
   style="fill:#000000;stroke-width:0" />
<path
   id="path4515"
   d="m 440.61,535.49 h -0.75 v -2.92 c -0.52,0.44 -1.08,0.55 -1.45,0.55 -0.98,0 -1.76,-1.04 -1.76,-2.32 0,-1.3 0.77,-2.31 1.71,-2.31 0.33,0 0.92,0.09 1.47,0.62 l -0.32,0.26 c -0.23,-0.2 -0.48,-0.28 -0.74,-0.28 -0.62,0 -1.34,0.47 -1.34,1.7 0,1.31 0.85,1.72 1.44,1.72 0.45,0 0.74,-0.23 0.96,-0.54 v -1.99 c 0,-0.14 -0.01,-0.32 -0.32,-0.61 l 0.32,-0.26 v -0.51 h 0.78 z"
   inkscape:connector-curvature="0"
   style="fill:#000000;stroke-width:0" />
<path
   id="path4517"
   d="m 444.85,532.86 -0.05,0.02 -0.04,0.02 -0.1,0.04 -0.09,0.04 -0.09,0.03 -0.09,0.03 -0.08,0.02 -0.09,0.03 -0.09,0.02 -0.08,0.01 -0.09,0.02 -0.09,0.01 -0.09,0.01 -0.08,0.01 -0.09,0 -0.1,0.01 -0.09,0 c -0.25,0 -1.65,0 -1.65,-1.3 0,-0.49 0.29,-0.81 0.53,-1 0.31,-0.22 0.53,-0.26 1.08,-0.37 0.36,-0.06 0.94,-0.18 0.94,-0.71 0,-0.69 -0.79,-0.69 -0.94,-0.69 -0.81,0 -1.36,0.37 -1.54,0.49 l -0.12,-0.68 c 0.32,-0.15 0.86,-0.43 1.67,-0.43 0.18,0 0.73,0 1.15,0.32 0.31,0.23 0.48,0.63 0.48,1.06 0,0.54 -0.37,0.88 -0.39,0.91 -0.39,0.35 -0.65,0.41 -1.15,0.5 -0.55,0.11 -1.01,0.21 -1.01,0.69 0,0.62 0.72,0.62 0.85,0.62 0.32,0 0.85,-0.04 1.41,-0.38 z"
   inkscape:connector-curvature="0"
   style="fill:#000000;stroke-width:0" />
<path
   id="path4519"
   d="m 456.58,533.01 h -0.73 l -0.64,-2.11 c -0.11,-0.36 -0.4,-1.34 -0.45,-1.77 h -0.01 c -0.04,0.31 -0.29,1.2 -0.46,1.76 l -0.65,2.12 h -0.69 l -0.57,-1.87 c -0.11,-0.35 -0.45,-1.49 -0.49,-2 h -0.01 c -0.05,0.48 -0.38,1.6 -0.54,2.15 l -0.51,1.72 h -0.76 l 1.36,-4.41 h 0.79 c 0.05,0.16 0.4,1.27 0.62,2.04 0.14,0.46 0.41,1.44 0.44,1.81 h 0.01 c 0.02,-0.28 0.19,-0.96 0.32,-1.39 l 0.73,-2.46 h 0.87 z"
   inkscape:connector-curvature="0"
   style="fill:#000000;stroke-width:0" />
<path
   id="path4521"
   d="m 461.07,531.56 0,0.06 -0.01,0.06 0,0.07 0,0.06 -0.01,0.07 -0.01,0.06 0,0.07 -0.02,0.07 -0.01,0.06 -0.02,0.07 -0.01,0.06 -0.03,0.07 -0.02,0.06 -0.03,0.06 -0.03,0.06 -0.03,0.06 -0.04,0.06 -0.04,0.05 -0.04,0.06 -0.05,0.05 -0.06,0.04 -0.05,0.05 -0.07,0.04 -0.06,0.04 -0.04,0.01 -0.03,0.02 -0.04,0.01 -0.04,0.02 -0.04,0.01 -0.04,0.02 -0.05,0.01 -0.04,0.01 -0.05,0.01 -0.04,0 -0.05,0.01 -0.05,0.01 -0.05,0 -0.06,0 -0.05,0.01 -0.06,0 c -0.61,0 -1.09,-0.31 -1.41,-0.72 v 3.09 h -0.75 v -6.89 h 0.78 v 2.43 c 0,0.66 0.25,1.48 1.01,1.48 0.95,0 0.96,-0.7 0.96,-1.02 v -2.89 h 0.78 z"
   inkscape:connector-curvature="0"
   style="fill:#000000;stroke-width:0" />
<path
   id="path4523"
   d="m 466.55,530.78 0,0.13 -0.01,0.12 -0.01,0.12 -0.02,0.12 -0.03,0.11 -0.03,0.12 -0.03,0.11 -0.04,0.11 -0.05,0.1 -0.04,0.11 -0.06,0.1 -0.06,0.1 -0.06,0.09 -0.06,0.09 -0.07,0.09 -0.07,0.08 -0.08,0.08 -0.08,0.07 -0.08,0.07 -0.09,0.07 -0.09,0.06 -0.09,0.06 -0.09,0.05 -0.1,0.05 -0.1,0.04 -0.1,0.04 -0.1,0.03 -0.1,0.03 -0.11,0.02 -0.11,0.01 -0.11,0.01 -0.11,0.01 -0.01,-0.61 c 0.7,0 1.42,-0.52 1.42,-1.69 0,-1.17 -0.68,-1.76 -1.42,-1.76 h 0 c -0.68,0 -1.4,0.56 -1.4,1.76 0,1.2 0.76,1.69 1.4,1.69 l 0.01,0.61 c -1.22,0 -2.19,-1.1 -2.19,-2.4 0,-1.31 1.02,-2.29 2.18,-2.29 1.2,0 2.19,1 2.19,2.29 z"
   inkscape:connector-curvature="0"
   style="fill:#000000;stroke-width:0" />
<polygon
   id="polygon4525"
   points="326.69,516.64 326.69,523.53 325.94,523.53 325.94,516.64 "
   style="fill:#000000;stroke-width:0" />
<path
   id="path4527"
   d="m 332.18,518.83 0,0.12 -0.01,0.12 -0.02,0.12 -0.02,0.12 -0.02,0.12 -0.03,0.11 -0.03,0.11 -0.04,0.11 -0.05,0.11 -0.05,0.1 -0.05,0.1 -0.06,0.1 -0.06,0.09 -0.06,0.09 -0.07,0.09 -0.08,0.08 -0.07,0.08 -0.08,0.08 -0.08,0.07 -0.09,0.06 -0.09,0.07 -0.09,0.05 -0.09,0.06 -0.1,0.04 -0.1,0.05 -0.1,0.03 -0.1,0.04 -0.11,0.02 -0.1,0.02 -0.11,0.02 -0.11,0.01 -0.11,0 -0.01,-0.61 c 0.7,0 1.41,-0.51 1.41,-1.68 0,-1.18 -0.67,-1.76 -1.41,-1.76 h 0 c -0.69,0 -1.4,0.55 -1.4,1.76 0,1.2 0.76,1.68 1.4,1.68 l 0.01,0.61 c -1.22,0 -2.19,-1.09 -2.19,-2.39 0,-1.31 1.02,-2.3 2.18,-2.3 1.19,0 2.19,1 2.19,2.3 z"
   inkscape:connector-curvature="0"
   style="fill:#000000;stroke-width:0" />
<path
   id="path4529"
   d="m 336.93,521.05 h -0.74 l -0.79,-2.07 c -0.21,-0.54 -0.52,-1.35 -0.6,-1.81 h -0.01 c -0.06,0.36 -0.31,1.04 -0.41,1.31 l -0.97,2.57 h -0.77 l 1.71,-4.41 h 0.87 z"
   inkscape:connector-curvature="0"
   style="fill:#000000;stroke-width:0" />
<path
   id="path4531"
   d="m 341.21,518.82 0,0.03 0,0.03 0,0.04 0,0.04 0,0.04 -0.01,0.05 0,0.04 0,0.05 0,0.05 -0.01,0.05 0,0.05 -0.01,0.05 0,0.05 -0.01,0.06 -0.01,0.05 -0.01,0.06 -0.01,0.06 -0.01,0.05 -0.01,0.06 -0.01,0.06 -0.02,0.06 -0.02,0.06 -0.01,0.06 -0.02,0.06 -0.03,0.06 -0.02,0.06 -0.02,0.06 -0.03,0.06 -0.03,0.05 -0.03,0.06 -0.03,0.06 -0.04,0.05 c -0.41,0.62 -1.01,0.73 -1.37,0.73 -1.11,0 -2,-1.05 -2,-2.33 0,-1.31 0.95,-2.36 2.15,-2.36 0.62,0 1.19,0.24 1.58,0.52 l -0.06,0.64 c -0.63,-0.51 -1.28,-0.55 -1.51,-0.55 -0.8,0 -1.44,0.7 -1.47,1.68 l 0.05,0.54 c 0.16,0.76 0.69,1.25 1.26,1.25 0.51,0 1.07,-0.33 1.2,-1.25 h -2.46 l -0.05,-0.54 z"
   inkscape:connector-curvature="0"
   style="fill:#000000;stroke-width:0" />
<path
   id="path4533"
   d="m 351.93,519.6 0,0.06 0,0.07 -0.01,0.06 0,0.07 -0.01,0.07 0,0.06 -0.01,0.07 -0.02,0.07 -0.01,0.06 -0.02,0.07 -0.01,0.06 -0.03,0.07 -0.02,0.06 -0.03,0.06 -0.03,0.06 -0.03,0.06 -0.04,0.06 -0.04,0.05 -0.05,0.05 -0.04,0.05 -0.06,0.05 -0.06,0.04 -0.06,0.04 -0.06,0.04 -0.04,0.02 -0.04,0.01 -0.03,0.02 -0.04,0.01 -0.04,0.02 -0.04,0.01 -0.05,0.01 -0.04,0.01 -0.05,0.01 -0.04,0.01 -0.05,0.01 -0.05,0 -0.05,0.01 -0.06,0 -0.05,0 -0.05,0 c -0.6,0 -1.12,-0.28 -1.49,-0.81 -0.26,0.75 -0.95,0.81 -1.27,0.81 -0.72,0 -1.19,-0.41 -1.45,-0.76 v 0.71 h -0.72 v -4.47 h 0.78 v 2.44 c 0,0.67 0.26,1.47 1,1.47 0.93,0 0.98,-0.64 0.98,-1.02 v -2.89 h 0.77 v 2.44 c 0,0.67 0.27,1.47 1.01,1.47 0.92,0 0.97,-0.64 0.97,-1.02 v -2.89 h 0.78 z"
   inkscape:connector-curvature="0"
   style="fill:#000000;stroke-width:0" />
<path
   id="path4535"
   d="m 356.72,519.51 0,0.1 -0.01,0.09 -0.01,0.09 -0.01,0.09 -0.02,0.08 -0.03,0.09 -0.02,0.08 -0.03,0.08 -0.03,0.07 -0.04,0.08 -0.04,0.07 -0.04,0.07 -0.05,0.06 -0.04,0.07 -0.06,0.06 -0.05,0.06 -0.06,0.05 -0.06,0.05 -0.06,0.05 -0.06,0.05 -0.07,0.04 -0.07,0.04 -0.07,0.03 -0.07,0.04 -0.08,0.03 -0.07,0.02 -0.08,0.02 -0.08,0.02 -0.08,0.01 -0.08,0.01 -0.09,0.01 -0.08,0 c -0.65,0 -1.1,-0.16 -1.57,-0.43 l 0.06,-0.65 c 0.52,0.37 1.02,0.49 1.51,0.49 0.46,0 0.86,-0.39 0.86,-1.13 v -0.42 c -1.49,-0.03 -2.75,-0.44 -2.75,-1.32 0,-0.42 0.26,-1.23 1.13,-1.23 0.14,0 1.07,0.02 1.65,0.47 l -0.37,0.33 c -0.28,-0.18 -0.66,-0.19 -0.77,-0.19 -0.48,0 -0.93,0.23 -0.93,0.64 0,0.7 1.61,0.77 2.04,0.79 v -0.62 c 0,-0.19 0,-0.43 -0.34,-0.62 l 0.37,-0.33 v -0.36 h 0.75 z"
   inkscape:connector-curvature="0"
   style="fill:#000000;stroke-width:0" />
<path
   id="path4537"
   d="m 359.28,520.47 h 1.4 v 0.58 h -1.4 v 1.26 h -0.69 v -1.26 h -0.86 v -0.58 h 0.83 v -2.65 c 0,-0.59 0.14,-1.29 0.83,-1.29 0.69,0 1.2,0.25 1.45,0.38 l -0.16,0.58 c -0.26,-0.2 -0.58,-0.32 -0.89,-0.32 -0.37,0 -0.51,0.3 -0.51,0.82 z"
   inkscape:connector-curvature="0"
   style="fill:#000000;stroke-width:0" />
<path
   id="path4539"
   d="m 365.46,519.6 0,0.06 0,0.07 0,0.06 -0.01,0.07 0,0.06 -0.01,0.07 -0.01,0.07 -0.01,0.06 -0.01,0.07 -0.02,0.06 -0.02,0.07 -0.02,0.06 -0.02,0.07 -0.03,0.06 -0.03,0.06 -0.03,0.06 -0.04,0.05 -0.04,0.06 -0.05,0.05 -0.05,0.05 -0.05,0.05 -0.06,0.04 -0.06,0.04 -0.07,0.04 -0.03,0.02 -0.04,0.01 -0.04,0.02 -0.03,0.01 -0.05,0.02 -0.04,0.01 -0.04,0.01 -0.04,0.01 -0.05,0.01 -0.05,0.01 -0.05,0.01 -0.05,0 -0.05,0.01 -0.05,0 -0.05,0 -0.06,0 c -0.62,0 -1.1,-0.31 -1.41,-0.71 v 3.08 h -0.75 v -6.89 h 0.78 v 2.44 c 0,0.65 0.24,1.47 1,1.47 0.96,0 0.97,-0.7 0.97,-1.02 v -2.89 h 0.77 z"
   inkscape:connector-curvature="0"
   style="fill:#000000;stroke-width:0" />
<path
   id="path4541"
   d="m 368.82,518.92 0,0.06 0,0.06 0.01,0.07 0,0.06 0.01,0.07 0.01,0.07 0.02,0.06 0.01,0.07 0.02,0.06 0.02,0.07 0.02,0.06 0.02,0.07 0.03,0.06 0.02,0.07 0.03,0.06 0.03,0.07 0.04,0.06 0.03,0.06 0.04,0.07 0.04,0.06 0.04,0.06 0.04,0.06 0.05,0.06 0.04,0.06 0.05,0.06 0.05,0.06 0.06,0.06 0.05,0.06 0.06,0.06 0.06,0.05 0.06,0.06 0.06,0.05 c 0.19,0.16 0.57,0.48 0.57,1.19 0,0.68 -0.4,1.54 -1.9,1.54 -0.61,0 -1.14,-0.17 -1.67,-0.52 l 0.23,-0.63 c 0.24,0.22 0.72,0.55 1.44,0.55 0.47,0 1.12,-0.08 1.12,-0.93 0,-0.44 -0.21,-0.63 -0.34,-0.75 -1.14,-0.96 -1.14,-2.24 -1.14,-2.66 v -0.32 h 0.67 z"
   inkscape:connector-curvature="0"
   style="fill:#000000;stroke-width:0" />
<polygon
   id="polygon4543"
   points="368.07,517.47 368.07,516.64 368.9,516.64 368.9,517.47 "
   style="fill:#000000;stroke-width:0" />
<path
   id="path4545"
   d="m 329.85,511.15 -0.01,0.02 0,0.02 -0.01,0.02 -0.01,0.02 -0.01,0.02 -0.01,0.01 0,0.02 -0.01,0.01 -0.02,0.03 -0.02,0.03 -0.02,0.03 -0.01,0.02 -0.02,0.02 -0.02,0.02 -0.02,0.02 -0.02,0.02 -0.03,0.01 -0.02,0.01 -0.02,0.02 -0.02,0.01 -0.02,0.01 -0.02,0 -0.03,0.01 -0.02,0.01 -0.02,0 -0.02,0.01 -0.02,0 -0.02,0 -0.03,0.01 -0.02,0 -0.04,0 -0.04,0 -0.04,0 h -0.87 c -0.2,0 -0.49,0 -0.64,-0.43 l -2.1,-6 c -0.05,-0.13 -0.05,-0.15 -0.05,-0.2 0,-0.26 0.25,-0.26 0.39,-0.26 h 0.36 c 0.18,0 0.49,0 0.62,0.39 l 0.39,1.11 0.3,0.85 0.72,2.11 c 0.15,0.43 0.28,0.81 0.36,1.17 h 0.01 c 0.05,-0.24 0.05,-0.26 0.13,-0.49 l 0.94,-2.79 h -2.16 l -0.3,-0.85 h 2.76 l 0.34,-0.96 c 0.12,-0.34 0.19,-0.54 0.66,-0.54 h 0.54 c 0.14,0 0.39,0 0.39,0.26 0,0.05 0,0.07 -0.05,0.2 z"
   inkscape:connector-curvature="0"
   style="fill:#000000;stroke-width:0" />
<path
   id="path4547"
   d="m 339.51,511.58 h -0.87 l -2.6,-6.89 h 0.74 l 0.76,2.02 0.21,0.56 0.65,1.8 c 0.21,0.58 0.52,1.43 0.58,1.79 h 0.01 c 0.02,-0.13 0.09,-0.38 0.32,-1.04 l 0.91,-2.55 h -2.47 l -0.21,-0.56 h 2.9 l 0.75,-2.02 h 0.92 z"
   inkscape:connector-curvature="0"
   style="fill:#000000;stroke-width:0" />
<polygon
   id="polygon4549"
   points="343.95,504.69 343.95,511.58 343.21,511.58 343.21,504.69 "
   style="fill:#000000;stroke-width:0" />
<path
   id="path4551"
   d="m 348.29,508.57 0.04,0 0.04,0 0.04,0 0.05,0.01 0.04,0 0.05,0 0.05,0.01 0.05,0 0.09,0.01 0.05,0 0.05,0 0.04,0.01 0.05,0 0.05,0 0.04,0 c 0.18,0 0.57,-0.03 0.59,-0.03 l -0.11,0.63 c -0.7,0 -1.27,-0.19 -1.57,-0.32 -0.21,0.17 -0.55,0.32 -0.95,0.32 v -0.57 c 0.43,0 0.9,-0.28 0.9,-1.05 0,-0.78 -0.47,-1.06 -0.9,-1.06 h 0 c -0.37,0 -0.88,0.23 -0.88,1.06 0,0.82 0.51,1.05 0.88,1.05 v 0.57 c -0.85,0 -1.58,-0.72 -1.58,-1.62 0,-0.37 0.13,-0.73 0.33,-0.99 -0.29,-0.4 -0.29,-0.79 -0.29,-0.84 0,-0.26 0.09,-0.55 0.26,-0.76 -0.52,-0.3 -0.64,-0.76 -0.64,-1.02 0,-0.74 0.99,-1.34 2.2,-1.34 l 0.01,0.57 c -0.81,0 -1.51,0.3 -1.51,0.77 0,0.03 0,0.68 0.77,0.68 h 0.9 c 0.22,0 1.34,0 1.34,-0.69 0,-0.44 -0.68,-0.76 -1.5,-0.76 l -0.01,-0.57 c 1.22,0 2.21,0.59 2.21,1.35 0,1.38 -1.66,1.38 -2.05,1.38 h -0.88 c -0.12,0 -0.57,0 -0.57,0.53 0,0.11 0.04,0.27 0.11,0.36 0.21,-0.15 0.53,-0.29 0.9,-0.29 0.9,0 1.59,0.73 1.59,1.62 0,0.47 -0.21,0.84 -0.33,0.99 z"
   inkscape:connector-curvature="0"
   style="fill:#000000;stroke-width:0" />
<path
   id="path4553"
   d="m 353.88,506.86 0,0.03 0,0.04 0,0.04 0,0.04 0,0.04 0,0.04 0,0.05 0,0.04 -0.01,0.05 0,0.05 -0.01,0.05 0,0.05 -0.01,0.06 0,0.05 -0.01,0.06 -0.01,0.05 -0.01,0.06 -0.01,0.06 -0.01,0.06 -0.02,0.06 -0.01,0.06 -0.02,0.05 -0.02,0.06 -0.02,0.06 -0.02,0.06 -0.02,0.06 -0.03,0.06 -0.03,0.06 -0.03,0.06 -0.03,0.06 -0.03,0.05 -0.04,0.06 c -0.4,0.62 -1.01,0.73 -1.37,0.73 -1.1,0 -2,-1.06 -2,-2.34 0,-1.31 0.96,-2.35 2.15,-2.35 0.63,0 1.2,0.24 1.58,0.51 l -0.06,0.65 c -0.62,-0.52 -1.28,-0.56 -1.51,-0.56 -0.79,0 -1.43,0.71 -1.46,1.68 l 0.05,0.55 c 0.16,0.75 0.69,1.25 1.25,1.25 0.52,0 1.08,-0.34 1.21,-1.25 h -2.46 l -0.05,-0.55 z"
   inkscape:connector-curvature="0"
   style="fill:#000000;stroke-width:0" />
<path
   id="path4555"
   d="m 355.75,511.58 h -0.74 v -6.89 h 0.77 v 0.45 c 0.24,-0.22 0.67,-0.56 1.34,-0.56 0.99,0 1.85,0.99 1.85,2.32 0,1.23 -0.68,2.31 -1.61,2.31 -0.39,0 -1.01,-0.1 -1.61,-0.59 l 0.03,-0.61 c 0.16,0.24 0.52,0.59 1.07,0.59 0.58,0 1.34,-0.43 1.34,-1.7 0,-1.29 -0.83,-1.72 -1.44,-1.72 -0.39,0 -0.72,0.18 -0.97,0.64 v 2.19 l -0.03,0.61 z"
   inkscape:connector-curvature="0"
   style="fill:#000000;stroke-width:0" />
<path
   id="path4557"
   d="m 360.62,506.81 0,0.09 0.01,0.09 0.01,0.09 0.01,0.09 0.02,0.09 0.02,0.08 0.03,0.08 0.03,0.08 0.03,0.07 0.04,0.08 0.04,0.07 0.04,0.07 0.05,0.07 0.05,0.06 0.05,0.06 0.05,0.06 0.06,0.06 0.06,0.05 0.06,0.05 0.07,0.05 0.07,0.04 0.07,0.04 0.07,0.04 0.08,0.03 0.08,0.03 0.08,0.03 0.08,0.02 0.08,0.02 0.09,0.02 0.08,0.01 0.09,0.01 0.09,0 v 0.67 c -0.88,-0.01 -1.43,-0.5 -1.74,-0.96 v 0.91 h -0.69 v -4.47 h 0.74 z"
   inkscape:connector-curvature="0"
   style="fill:#000000;stroke-width:0" />
<path
   id="path4559"
   d="m 367.13,506.87 0,0.13 -0.01,0.12 -0.01,0.12 -0.02,0.12 -0.03,0.11 -0.03,0.12 -0.03,0.11 -0.04,0.11 -0.05,0.1 -0.05,0.11 -0.05,0.1 -0.06,0.09 -0.06,0.1 -0.06,0.09 -0.07,0.09 -0.07,0.08 -0.08,0.08 -0.08,0.07 -0.08,0.07 -0.09,0.07 -0.09,0.06 -0.09,0.06 -0.09,0.05 -0.1,0.05 -0.1,0.04 -0.1,0.04 -0.1,0.03 -0.1,0.03 -0.11,0.02 -0.11,0.01 -0.11,0.01 -0.11,0.01 -0.01,-0.61 c 0.7,0 1.42,-0.52 1.42,-1.69 0,-1.17 -0.68,-1.76 -1.42,-1.76 h 0 c -0.68,0 -1.4,0.56 -1.4,1.76 0,1.2 0.76,1.69 1.4,1.69 l 0.01,0.61 c -1.22,0 -2.19,-1.1 -2.19,-2.4 0,-1.31 1.02,-2.29 2.18,-2.29 1.2,0 2.19,1 2.19,2.29 z"
   inkscape:connector-curvature="0"
   style="fill:#000000;stroke-width:0" />
<path
   id="path4561"
   d="m 370.86,508.95 -0.05,0.02 -0.05,0.02 -0.09,0.04 -0.09,0.04 -0.09,0.03 -0.09,0.03 -0.09,0.02 -0.09,0.03 -0.08,0.02 -0.09,0.01 -0.08,0.02 -0.09,0.01 -0.09,0.01 -0.09,0.01 -0.09,0 -0.09,0.01 -0.09,0 c -0.25,0 -1.66,0 -1.66,-1.31 0,-0.48 0.29,-0.8 0.54,-0.99 0.31,-0.22 0.53,-0.26 1.08,-0.37 0.35,-0.07 0.93,-0.18 0.93,-0.71 0,-0.69 -0.78,-0.69 -0.93,-0.69 -0.81,0 -1.37,0.37 -1.55,0.49 l -0.11,-0.68 c 0.31,-0.15 0.86,-0.43 1.67,-0.43 0.18,0 0.72,0 1.15,0.31 0.31,0.24 0.48,0.64 0.48,1.07 0,0.54 -0.37,0.88 -0.39,0.91 -0.39,0.35 -0.66,0.41 -1.15,0.5 -0.55,0.11 -1.01,0.21 -1.01,0.69 0,0.62 0.72,0.62 0.85,0.62 0.31,0 0.84,-0.04 1.41,-0.38 z"
   inkscape:connector-curvature="0"
   style="fill:#000000;stroke-width:0" />
</g></svg>
