<?xml version="1.0" encoding="UTF-8"?>
<svg xmlns="http://www.w3.org/2000/svg" xmlns:xlink="http://www.w3.org/1999/xlink" width="219.51233pt" height="77.510691pt" viewBox="0 0 219.51233 77.510691" version="1.1">
<g id="surface1">
<path style=" stroke:none;fill-rule:nonzero;fill:rgb(0%,0%,0%);fill-opacity:1;" d="M 7.34375 6.699219 L 7.34375 5.625 L 1.542969 5.625 L 1.542969 1.328125 L 3.964844 1.328125 C 4.179688 1.328125 4.394531 1.347656 4.609375 1.347656 L 7.851562 1.347656 L 7.851562 0.214844 L 0 0.214844 L 0 12.617188 L 8.085938 12.617188 L 8.085938 11.40625 L 5.722656 11.40625 C 5.507812 11.40625 5.292969 11.40625 5.078125 11.40625 L 1.542969 11.40625 L 1.542969 6.699219 Z M 7.34375 6.699219 "/>
<path style=" stroke:none;fill-rule:nonzero;fill:rgb(0%,0%,0%);fill-opacity:1;" d="M 16.632812 4.648438 L 15.304688 4.648438 L 13.996094 8.222656 C 13.683594 9.082031 13.019531 10.976562 12.921875 11.640625 L 12.902344 11.640625 C 12.804688 11.015625 12.453125 10.039062 12.179688 9.257812 L 10.519531 4.648438 L 9.132812 4.648438 L 12.082031 12.617188 L 13.683594 12.617188 Z M 16.632812 4.648438 "/>
<path style=" stroke:none;fill-rule:nonzero;fill:rgb(0%,0%,0%);fill-opacity:1;" d="M 23.992188 7.363281 C 23.992188 5.644531 22.761719 4.394531 21.082031 4.394531 C 20.007812 4.394531 19.207031 4.628906 18.328125 5.136719 L 18.425781 6.328125 C 19.226562 5.742188 20.046875 5.429688 21.082031 5.429688 C 21.902344 5.429688 22.625 6.09375 22.625 7.402344 L 22.625 8.144531 C 21.824219 8.164062 20.75 8.222656 19.675781 8.574219 C 18.464844 9.003906 17.761719 9.667969 17.761719 10.546875 C 17.761719 11.347656 18.230469 12.792969 19.753906 12.792969 C 20.75 12.792969 22 12.5 22.664062 11.953125 L 22.664062 12.617188 L 23.992188 12.617188 Z M 22.625 10.214844 C 22.625 10.566406 22.625 10.996094 22.039062 11.367188 C 21.550781 11.660156 20.945312 11.71875 20.671875 11.71875 C 19.714844 11.71875 19.050781 11.191406 19.050781 10.546875 C 19.050781 9.316406 21.53125 9.042969 22.625 9.042969 Z M 22.625 10.214844 "/>
<path style=" stroke:none;fill-rule:nonzero;fill:rgb(0%,0%,0%);fill-opacity:1;" d="M 28.113281 0.175781 L 26.785156 0.175781 L 26.785156 12.617188 L 28.113281 12.617188 Z M 28.113281 0.175781 "/>
<path style=" stroke:none;fill-rule:nonzero;fill:rgb(0%,0%,0%);fill-opacity:1;" d="M 37.175781 4.648438 L 35.808594 4.648438 L 35.808594 9.785156 C 35.808594 11.152344 34.871094 11.816406 33.699219 11.816406 C 32.449219 11.816406 32.3125 11.347656 32.3125 10.546875 L 32.3125 4.648438 L 30.964844 4.648438 L 30.964844 10.625 C 30.964844 11.914062 31.375 12.792969 32.839844 12.792969 C 33.347656 12.792969 34.753906 12.714844 35.847656 11.71875 L 35.847656 12.617188 L 37.175781 12.617188 Z M 37.175781 4.648438 "/>
<path style=" stroke:none;fill-rule:nonzero;fill:rgb(0%,0%,0%);fill-opacity:1;" d="M 45.589844 7.363281 C 45.589844 5.644531 44.359375 4.394531 42.679688 4.394531 C 41.605469 4.394531 40.804688 4.628906 39.925781 5.136719 L 40.023438 6.328125 C 40.824219 5.742188 41.644531 5.429688 42.679688 5.429688 C 43.5 5.429688 44.222656 6.09375 44.222656 7.402344 L 44.222656 8.144531 C 43.421875 8.164062 42.347656 8.222656 41.273438 8.574219 C 40.0625 9.003906 39.359375 9.667969 39.359375 10.546875 C 39.359375 11.347656 39.828125 12.792969 41.351562 12.792969 C 42.347656 12.792969 43.597656 12.5 44.261719 11.953125 L 44.261719 12.617188 L 45.589844 12.617188 Z M 44.222656 10.214844 C 44.222656 10.566406 44.222656 10.996094 43.636719 11.367188 C 43.148438 11.660156 42.542969 11.71875 42.269531 11.71875 C 41.3125 11.71875 40.648438 11.191406 40.648438 10.546875 C 40.648438 9.316406 43.128906 9.042969 44.222656 9.042969 Z M 44.222656 10.214844 "/>
<path style=" stroke:none;fill-rule:nonzero;fill:rgb(0%,0%,0%);fill-opacity:1;" d="M 50.046875 5.703125 L 52.527344 5.703125 L 52.527344 4.648438 L 50.046875 4.648438 L 50.046875 2.382812 L 48.816406 2.382812 L 48.816406 4.648438 L 47.3125 4.648438 L 47.3125 5.703125 L 48.777344 5.703125 L 48.777344 10.527344 C 48.777344 11.5625 49.011719 12.792969 50.242188 12.792969 C 51.453125 12.792969 52.273438 12.382812 52.820312 12.089844 L 52.546875 11.054688 C 51.921875 11.621094 51.257812 11.679688 50.945312 11.679688 C 50.144531 11.679688 50.046875 10.839844 50.046875 10.214844 Z M 50.046875 5.703125 "/>
<path style=" stroke:none;fill-rule:nonzero;fill:rgb(0%,0%,0%);fill-opacity:1;" d="M 60.582031 8.574219 C 60.582031 7.8125 60.503906 6.71875 59.9375 5.761719 C 59.195312 4.53125 57.945312 4.394531 57.417969 4.394531 C 55.484375 4.394531 53.863281 6.25 53.863281 8.574219 C 53.863281 10.957031 55.582031 12.792969 57.671875 12.792969 C 58.492188 12.792969 59.488281 12.558594 60.464844 11.855469 C 60.464844 11.777344 60.40625 11.210938 60.40625 11.191406 C 60.386719 11.171875 60.367188 10.761719 60.367188 10.703125 C 59.292969 11.601562 58.238281 11.71875 57.710938 11.71875 C 56.324219 11.71875 55.132812 10.488281 55.113281 8.574219 Z M 55.210938 7.617188 C 55.523438 6.40625 56.363281 5.46875 57.417969 5.46875 C 57.984375 5.46875 59.214844 5.722656 59.507812 7.617188 Z M 55.210938 7.617188 "/>
<path style=" stroke:none;fill-rule:nonzero;fill:rgb(0%,0%,0%);fill-opacity:1;" d="M 69.84375 5.703125 L 72.324219 5.703125 L 72.324219 4.648438 L 69.84375 4.648438 L 69.84375 2.382812 L 68.613281 2.382812 L 68.613281 4.648438 L 67.109375 4.648438 L 67.109375 5.703125 L 68.574219 5.703125 L 68.574219 10.527344 C 68.574219 11.5625 68.808594 12.792969 70.039062 12.792969 C 71.25 12.792969 72.070312 12.382812 72.617188 12.089844 L 72.34375 11.054688 C 71.71875 11.621094 71.054688 11.679688 70.742188 11.679688 C 69.941406 11.679688 69.84375 10.839844 69.84375 10.214844 Z M 69.84375 5.703125 "/>
<path style=" stroke:none;fill-rule:nonzero;fill:rgb(0%,0%,0%);fill-opacity:1;" d="M 80.675781 7.226562 C 80.675781 6.132812 80.441406 4.472656 78.273438 4.472656 C 77.042969 4.472656 76.222656 5.175781 75.792969 5.722656 L 75.792969 0.175781 L 74.464844 0.175781 L 74.464844 12.617188 L 75.8125 12.617188 L 75.8125 8.144531 C 75.8125 7.050781 76.242188 5.546875 77.589844 5.546875 C 79.269531 5.546875 79.308594 6.71875 79.308594 7.34375 L 79.308594 12.617188 L 80.675781 12.617188 Z M 80.675781 7.226562 "/>
<path style=" stroke:none;fill-rule:nonzero;fill:rgb(0%,0%,0%);fill-opacity:1;" d="M 89.382812 8.574219 C 89.382812 7.8125 89.304688 6.71875 88.738281 5.761719 C 87.996094 4.53125 86.746094 4.394531 86.21875 4.394531 C 84.285156 4.394531 82.664062 6.25 82.664062 8.574219 C 82.664062 10.957031 84.382812 12.792969 86.472656 12.792969 C 87.292969 12.792969 88.289062 12.558594 89.265625 11.855469 C 89.265625 11.777344 89.207031 11.210938 89.207031 11.191406 C 89.1875 11.171875 89.167969 10.761719 89.167969 10.703125 C 88.09375 11.601562 87.039062 11.71875 86.511719 11.71875 C 85.125 11.71875 83.933594 10.488281 83.914062 8.574219 Z M 84.011719 7.617188 C 84.324219 6.40625 85.164062 5.46875 86.21875 5.46875 C 86.785156 5.46875 88.015625 5.722656 88.308594 7.617188 Z M 84.011719 7.617188 "/>
<path style=" stroke:none;fill-rule:nonzero;fill:rgb(0%,0%,0%);fill-opacity:1;" d="M 98.984375 5.703125 L 100.898438 5.703125 L 100.898438 4.648438 L 98.945312 4.648438 L 98.945312 2.5 C 98.945312 1.289062 99.960938 1.074219 100.566406 1.074219 C 101.191406 1.074219 101.738281 1.269531 101.953125 1.347656 L 101.953125 0.175781 C 101.835938 0.136719 101.230469 0 100.585938 0 C 98.867188 0 97.65625 1.308594 97.65625 3.046875 L 97.65625 4.648438 L 96.347656 4.648438 L 96.347656 5.703125 L 97.65625 5.703125 L 97.65625 12.617188 L 98.984375 12.617188 Z M 98.984375 5.703125 "/>
<path style=" stroke:none;fill-rule:nonzero;fill:rgb(0%,0%,0%);fill-opacity:1;" d="M 109.5 8.671875 C 109.5 6.25 107.722656 4.394531 105.671875 4.394531 C 103.5625 4.394531 101.824219 6.289062 101.824219 8.671875 C 101.824219 11.015625 103.601562 12.792969 105.652344 12.792969 C 107.761719 12.792969 109.5 10.976562 109.5 8.671875 Z M 105.671875 11.679688 C 104.382812 11.679688 103.171875 10.605469 103.171875 8.496094 C 103.171875 6.328125 104.519531 5.46875 105.652344 5.46875 C 106.882812 5.46875 108.152344 6.386719 108.152344 8.496094 C 108.152344 10.703125 106.863281 11.679688 105.671875 11.679688 Z M 105.671875 11.679688 "/>
<path style=" stroke:none;fill-rule:nonzero;fill:rgb(0%,0%,0%);fill-opacity:1;" d="M 112.863281 0.175781 L 111.535156 0.175781 L 111.535156 12.617188 L 112.863281 12.617188 Z M 112.863281 0.175781 "/>
<path style=" stroke:none;fill-rule:nonzero;fill:rgb(0%,0%,0%);fill-opacity:1;" d="M 117.0625 0.175781 L 115.734375 0.175781 L 115.734375 12.617188 L 117.0625 12.617188 Z M 117.0625 0.175781 "/>
<path style=" stroke:none;fill-rule:nonzero;fill:rgb(0%,0%,0%);fill-opacity:1;" d="M 126.75 8.671875 C 126.75 6.25 124.972656 4.394531 122.921875 4.394531 C 120.8125 4.394531 119.074219 6.289062 119.074219 8.671875 C 119.074219 11.015625 120.851562 12.792969 122.902344 12.792969 C 125.011719 12.792969 126.75 10.976562 126.75 8.671875 Z M 122.921875 11.679688 C 121.632812 11.679688 120.421875 10.605469 120.421875 8.496094 C 120.421875 6.328125 121.769531 5.46875 122.902344 5.46875 C 124.132812 5.46875 125.402344 6.386719 125.402344 8.496094 C 125.402344 10.703125 124.113281 11.679688 122.921875 11.679688 Z M 122.921875 11.679688 "/>
<path style=" stroke:none;fill-rule:nonzero;fill:rgb(0%,0%,0%);fill-opacity:1;" d="M 138.589844 4.648438 L 137.28125 4.648438 L 136.207031 8.300781 C 135.953125 9.160156 135.445312 10.839844 135.367188 11.621094 L 135.347656 11.621094 C 135.308594 11.191406 135.015625 9.980469 134.644531 8.710938 L 133.453125 4.648438 L 132.222656 4.648438 L 131.1875 8.164062 C 130.875 9.277344 130.445312 10.820312 130.386719 11.582031 L 130.367188 11.582031 C 130.347656 11.230469 130.152344 10.292969 129.820312 9.082031 L 128.550781 4.648438 L 127.183594 4.648438 L 129.585938 12.617188 L 130.972656 12.617188 C 131.636719 10.351562 132.691406 6.953125 132.789062 5.703125 L 132.808594 5.703125 C 132.847656 6.425781 133.199219 7.714844 133.335938 8.144531 L 134.605469 12.617188 L 136.1875 12.617188 Z M 138.589844 4.648438 "/>
<path style=" stroke:none;fill-rule:nonzero;fill:rgb(0%,0%,0%);fill-opacity:1;" d="M 141.761719 0.449219 L 140.21875 0.449219 L 140.21875 1.992188 L 141.761719 1.992188 Z M 141.664062 4.648438 L 140.335938 4.648438 L 140.335938 12.617188 L 141.664062 12.617188 Z M 141.664062 4.648438 "/>
<path style=" stroke:none;fill-rule:nonzero;fill:rgb(0%,0%,0%);fill-opacity:1;" d="M 150.726562 7.226562 C 150.726562 6.132812 150.492188 4.472656 148.324219 4.472656 C 147.328125 4.472656 146.46875 4.921875 145.785156 5.78125 L 145.785156 4.570312 L 144.515625 4.570312 L 144.515625 12.617188 L 145.863281 12.617188 L 145.863281 8.144531 C 145.863281 7.050781 146.292969 5.546875 147.640625 5.546875 C 149.320312 5.546875 149.359375 6.71875 149.359375 7.34375 L 149.359375 12.617188 L 150.726562 12.617188 Z M 150.726562 7.226562 "/>
<path style=" stroke:none;fill-rule:nonzero;fill:rgb(0%,0%,0%);fill-opacity:1;" d="M 158.242188 5.546875 C 158.242188 5.546875 158.28125 5.585938 158.300781 5.625 C 158.671875 5.585938 159.0625 5.527344 159.726562 5.527344 C 159.785156 5.527344 160.195312 5.527344 160.644531 5.566406 L 160.449219 4.472656 C 160.117188 4.472656 158.886719 4.492188 157.695312 5.078125 C 157.109375 4.570312 156.386719 4.472656 156.035156 4.472656 C 154.472656 4.472656 153.222656 5.78125 153.222656 7.363281 C 153.222656 8.007812 153.417969 8.59375 153.808594 9.140625 C 153.398438 9.707031 153.300781 10.253906 153.300781 10.683594 C 153.300781 11.347656 153.554688 11.796875 153.75 12.03125 C 152.832031 12.617188 152.617188 13.378906 152.617188 13.886719 C 152.617188 15.195312 154.316406 16.289062 156.503906 16.289062 C 158.691406 16.289062 160.410156 15.234375 160.410156 13.867188 C 160.410156 11.367188 157.5 11.367188 156.777344 11.367188 L 155.253906 11.367188 C 155 11.367188 154.21875 11.367188 154.21875 10.410156 C 154.21875 10.019531 154.296875 9.902344 154.414062 9.746094 C 154.707031 9.960938 155.292969 10.273438 156.015625 10.273438 C 157.558594 10.273438 158.828125 9.003906 158.828125 7.363281 C 158.828125 6.71875 158.59375 6.054688 158.222656 5.566406 Z M 156.035156 9.277344 C 155.253906 9.277344 154.453125 8.75 154.453125 7.382812 C 154.453125 5.78125 155.46875 5.46875 156.015625 5.46875 C 156.816406 5.46875 157.597656 5.996094 157.597656 7.363281 C 157.597656 8.964844 156.601562 9.277344 156.035156 9.277344 Z M 156.796875 12.65625 C 157.1875 12.65625 159.160156 12.65625 159.160156 13.886719 C 159.160156 14.707031 157.929688 15.3125 156.523438 15.3125 C 155.117188 15.3125 153.867188 14.746094 153.867188 13.867188 C 153.867188 13.828125 153.867188 12.65625 155.234375 12.65625 Z M 156.796875 12.65625 "/>
<path style=" stroke:none;fill-rule:nonzero;fill:rgb(0%,0%,0%);fill-opacity:1;" d="M 169.058594 0.449219 L 167.515625 0.449219 L 167.515625 1.992188 L 169.058594 1.992188 Z M 168.960938 4.648438 L 167.632812 4.648438 L 167.632812 12.617188 L 168.960938 12.617188 Z M 168.960938 4.648438 "/>
<path style=" stroke:none;fill-rule:nonzero;fill:rgb(0%,0%,0%);fill-opacity:1;" d="M 178.027344 7.226562 C 178.027344 6.132812 177.792969 4.472656 175.625 4.472656 C 174.628906 4.472656 173.769531 4.921875 173.085938 5.78125 L 173.085938 4.570312 L 171.816406 4.570312 L 171.816406 12.617188 L 173.164062 12.617188 L 173.164062 8.144531 C 173.164062 7.050781 173.59375 5.546875 174.941406 5.546875 C 176.621094 5.546875 176.660156 6.71875 176.660156 7.34375 L 176.660156 12.617188 L 178.027344 12.617188 Z M 178.027344 7.226562 "/>
<path style=" stroke:none;fill-rule:nonzero;fill:rgb(0%,0%,0%);fill-opacity:1;" d="M 182.496094 5.703125 L 184.976562 5.703125 L 184.976562 4.648438 L 182.496094 4.648438 L 182.496094 2.382812 L 181.265625 2.382812 L 181.265625 4.648438 L 179.761719 4.648438 L 179.761719 5.703125 L 181.226562 5.703125 L 181.226562 10.527344 C 181.226562 11.5625 181.460938 12.792969 182.691406 12.792969 C 183.902344 12.792969 184.722656 12.382812 185.269531 12.089844 L 184.996094 11.054688 C 184.371094 11.621094 183.707031 11.679688 183.394531 11.679688 C 182.59375 11.679688 182.496094 10.839844 182.496094 10.214844 Z M 182.496094 5.703125 "/>
<path style=" stroke:none;fill-rule:nonzero;fill:rgb(0%,0%,0%);fill-opacity:1;" d="M 193.03125 8.574219 C 193.03125 7.8125 192.953125 6.71875 192.386719 5.761719 C 191.644531 4.53125 190.394531 4.394531 189.867188 4.394531 C 187.933594 4.394531 186.3125 6.25 186.3125 8.574219 C 186.3125 10.957031 188.03125 12.792969 190.121094 12.792969 C 190.941406 12.792969 191.9375 12.558594 192.914062 11.855469 C 192.914062 11.777344 192.855469 11.210938 192.855469 11.191406 C 192.835938 11.171875 192.816406 10.761719 192.816406 10.703125 C 191.742188 11.601562 190.6875 11.71875 190.160156 11.71875 C 188.773438 11.71875 187.582031 10.488281 187.5625 8.574219 Z M 187.660156 7.617188 C 187.972656 6.40625 188.8125 5.46875 189.867188 5.46875 C 190.433594 5.46875 191.664062 5.722656 191.957031 7.617188 Z M 187.660156 7.617188 "/>
<path style=" stroke:none;fill-rule:nonzero;fill:rgb(0%,0%,0%);fill-opacity:1;" d="M 199.640625 5.546875 C 199.640625 5.546875 199.679688 5.585938 199.699219 5.625 C 200.070312 5.585938 200.460938 5.527344 201.125 5.527344 C 201.183594 5.527344 201.59375 5.527344 202.042969 5.566406 L 201.847656 4.472656 C 201.515625 4.472656 200.285156 4.492188 199.09375 5.078125 C 198.507812 4.570312 197.785156 4.472656 197.433594 4.472656 C 195.871094 4.472656 194.621094 5.78125 194.621094 7.363281 C 194.621094 8.007812 194.816406 8.59375 195.207031 9.140625 C 194.796875 9.707031 194.699219 10.253906 194.699219 10.683594 C 194.699219 11.347656 194.953125 11.796875 195.148438 12.03125 C 194.230469 12.617188 194.015625 13.378906 194.015625 13.886719 C 194.015625 15.195312 195.714844 16.289062 197.902344 16.289062 C 200.089844 16.289062 201.808594 15.234375 201.808594 13.867188 C 201.808594 11.367188 198.898438 11.367188 198.175781 11.367188 L 196.652344 11.367188 C 196.398438 11.367188 195.617188 11.367188 195.617188 10.410156 C 195.617188 10.019531 195.695312 9.902344 195.8125 9.746094 C 196.105469 9.960938 196.691406 10.273438 197.414062 10.273438 C 198.957031 10.273438 200.226562 9.003906 200.226562 7.363281 C 200.226562 6.71875 199.992188 6.054688 199.621094 5.566406 Z M 197.433594 9.277344 C 196.652344 9.277344 195.851562 8.75 195.851562 7.382812 C 195.851562 5.78125 196.867188 5.46875 197.414062 5.46875 C 198.214844 5.46875 198.996094 5.996094 198.996094 7.363281 C 198.996094 8.964844 198 9.277344 197.433594 9.277344 Z M 198.195312 12.65625 C 198.585938 12.65625 200.558594 12.65625 200.558594 13.886719 C 200.558594 14.707031 199.328125 15.3125 197.921875 15.3125 C 196.515625 15.3125 195.265625 14.746094 195.265625 13.867188 C 195.265625 13.828125 195.265625 12.65625 196.632812 12.65625 Z M 198.195312 12.65625 "/>
<path style=" stroke:none;fill-rule:nonzero;fill:rgb(0%,0%,0%);fill-opacity:1;" d="M 205.113281 8.691406 C 205.113281 6.875 206.460938 5.703125 208.082031 5.683594 L 208.082031 4.472656 C 206.441406 4.492188 205.503906 5.449219 205.015625 6.152344 L 205.015625 4.570312 L 203.785156 4.570312 L 203.785156 12.617188 L 205.113281 12.617188 Z M 205.113281 8.691406 "/>
<path style=" stroke:none;fill-rule:nonzero;fill:rgb(0%,0%,0%);fill-opacity:1;" d="M 215.390625 7.363281 C 215.390625 5.644531 214.160156 4.394531 212.480469 4.394531 C 211.40625 4.394531 210.605469 4.628906 209.726562 5.136719 L 209.824219 6.328125 C 210.625 5.742188 211.445312 5.429688 212.480469 5.429688 C 213.300781 5.429688 214.023438 6.09375 214.023438 7.402344 L 214.023438 8.144531 C 213.222656 8.164062 212.148438 8.222656 211.074219 8.574219 C 209.863281 9.003906 209.160156 9.667969 209.160156 10.546875 C 209.160156 11.347656 209.628906 12.792969 211.152344 12.792969 C 212.148438 12.792969 213.398438 12.5 214.0625 11.953125 L 214.0625 12.617188 L 215.390625 12.617188 Z M 214.023438 10.214844 C 214.023438 10.566406 214.023438 10.996094 213.4375 11.367188 C 212.949219 11.660156 212.34375 11.71875 212.070312 11.71875 C 211.113281 11.71875 210.449219 11.191406 210.449219 10.546875 C 210.449219 9.316406 212.929688 9.042969 214.023438 9.042969 Z M 214.023438 10.214844 "/>
<path style=" stroke:none;fill-rule:nonzero;fill:rgb(0%,0%,0%);fill-opacity:1;" d="M 219.511719 0.175781 L 218.183594 0.175781 L 218.183594 12.617188 L 219.511719 12.617188 Z M 219.511719 0.175781 "/>
<path style=" stroke:none;fill-rule:nonzero;fill:rgb(0%,0%,0%);fill-opacity:1;" d="M 22.53125 51.199219 C 22.6875 50.574219 22.726562 50.398438 24.035156 50.398438 C 24.425781 50.398438 24.5625 50.398438 24.5625 50.046875 C 24.5625 49.871094 24.367188 49.871094 24.328125 49.871094 C 23.996094 49.871094 23.605469 49.910156 23.273438 49.910156 L 21.066406 49.910156 C 20.714844 49.910156 20.304688 49.871094 19.953125 49.871094 C 19.796875 49.871094 19.601562 49.871094 19.601562 50.203125 C 19.601562 50.398438 19.757812 50.398438 20.109375 50.398438 C 21.222656 50.398438 21.222656 50.535156 21.222656 50.730469 C 21.222656 50.847656 21.183594 50.964844 21.144531 51.121094 L 18.722656 60.789062 C 18.566406 61.414062 18.527344 61.589844 17.21875 61.589844 C 16.828125 61.589844 16.671875 61.589844 16.671875 61.941406 C 16.671875 62.117188 16.847656 62.117188 16.925781 62.117188 C 17.257812 62.117188 17.648438 62.078125 17.980469 62.078125 L 20.1875 62.078125 C 20.539062 62.078125 20.929688 62.117188 21.28125 62.117188 C 21.4375 62.117188 21.652344 62.117188 21.652344 61.785156 C 21.652344 61.589844 21.535156 61.589844 21.144531 61.589844 C 20.03125 61.589844 20.03125 61.453125 20.03125 61.238281 C 20.03125 61.199219 20.03125 61.121094 20.109375 60.828125 Z M 22.53125 51.199219 "/>
<path style=" stroke:none;fill-rule:nonzero;fill:rgb(0%,0%,0%);fill-opacity:1;" d="M 42.289062 56.316406 C 42.542969 56.316406 42.855469 56.316406 42.855469 55.984375 C 42.855469 55.652344 42.542969 55.652344 42.289062 55.652344 L 31.722656 55.652344 C 31.46875 55.652344 31.15625 55.652344 31.15625 55.964844 C 31.15625 56.316406 31.449219 56.316406 31.722656 56.316406 Z M 42.289062 59.636719 C 42.542969 59.636719 42.855469 59.636719 42.855469 59.324219 C 42.855469 58.972656 42.542969 58.972656 42.289062 58.972656 L 31.722656 58.972656 C 31.46875 58.972656 31.15625 58.972656 31.15625 59.304688 C 31.15625 59.636719 31.449219 59.636719 31.722656 59.636719 Z M 42.289062 59.636719 "/>
<path style=" stroke:none;fill-rule:nonzero;fill:rgb(0%,0%,0%);fill-opacity:1;" d="M 50.632812 76.691406 C 51.21875 76.671875 51.511719 76.261719 51.511719 75.832031 C 51.511719 75.226562 51.082031 74.953125 50.652344 74.953125 C 50.222656 74.953125 49.773438 75.207031 49.773438 75.832031 C 49.773438 76.75 50.671875 77.511719 51.765625 77.511719 C 54.5 77.511719 55.515625 73.3125 56.785156 68.117188 C 58.171875 62.453125 59.34375 56.730469 60.300781 50.96875 C 60.964844 47.160156 61.628906 43.566406 62.234375 41.261719 C 62.449219 40.382812 63.074219 38.058594 63.757812 38.058594 C 64.324219 38.058594 64.773438 38.410156 64.851562 38.46875 C 64.246094 38.507812 63.953125 38.898438 63.953125 39.347656 C 63.953125 39.953125 64.402344 40.226562 64.8125 40.226562 C 65.242188 40.226562 65.691406 39.972656 65.691406 39.328125 C 65.691406 38.371094 64.714844 37.667969 63.738281 37.667969 C 62.371094 37.667969 61.355469 39.621094 60.378906 43.273438 C 60.320312 43.46875 57.878906 52.472656 55.90625 64.210938 C 55.4375 66.945312 54.929688 69.933594 54.34375 72.433594 C 54.011719 73.742188 53.191406 77.121094 51.726562 77.121094 C 51.082031 77.121094 50.652344 76.691406 50.632812 76.691406 Z M 50.632812 76.691406 "/>
<path style=" stroke:none;fill-rule:nonzero;fill:rgb(0%,0%,0%);fill-opacity:1;" d="M 80.15625 42.386719 C 80.15625 42.054688 80.15625 41.976562 79.980469 41.976562 C 79.84375 41.976562 79.492188 42.367188 79.375 42.523438 C 78.808594 42.074219 78.261719 41.976562 77.675781 41.976562 C 75.507812 41.976562 74.863281 43.148438 74.863281 44.144531 C 74.863281 44.339844 74.863281 44.964844 75.546875 45.589844 C 76.132812 46.097656 76.738281 46.214844 77.558594 46.371094 C 78.535156 46.566406 78.769531 46.625 79.21875 46.996094 C 79.550781 47.25 79.785156 47.660156 79.785156 48.148438 C 79.785156 48.929688 79.335938 49.789062 77.753906 49.789062 C 76.582031 49.789062 75.703125 49.105469 75.3125 47.308594 C 75.253906 46.996094 75.253906 46.976562 75.234375 46.957031 C 75.195312 46.878906 75.117188 46.878906 75.058594 46.878906 C 74.863281 46.878906 74.863281 46.976562 74.863281 47.289062 L 74.863281 49.730469 C 74.863281 50.0625 74.863281 50.140625 75.039062 50.140625 C 75.136719 50.140625 75.15625 50.121094 75.46875 49.75 C 75.546875 49.632812 75.546875 49.59375 75.820312 49.300781 C 76.503906 50.140625 77.460938 50.140625 77.773438 50.140625 C 79.648438 50.140625 80.585938 49.105469 80.585938 47.679688 C 80.585938 46.722656 80 46.136719 79.84375 45.980469 C 79.199219 45.433594 78.710938 45.316406 77.519531 45.101562 C 76.992188 45.003906 75.683594 44.75 75.683594 43.675781 C 75.683594 43.109375 76.054688 42.289062 77.675781 42.289062 C 79.628906 42.289062 79.726562 43.949219 79.765625 44.515625 C 79.785156 44.652344 79.902344 44.652344 79.960938 44.652344 C 80.15625 44.652344 80.15625 44.574219 80.15625 44.242188 Z M 80.15625 42.386719 "/>
<path style=" stroke:none;fill-rule:nonzero;fill:rgb(0%,0%,0%);fill-opacity:1;" d="M 84.304688 38.929688 C 84.304688 38.460938 83.914062 38.050781 83.425781 38.050781 C 82.957031 38.050781 82.566406 38.421875 82.566406 38.910156 C 82.566406 39.4375 82.996094 39.789062 83.425781 39.789062 C 83.972656 39.789062 84.304688 39.320312 84.304688 38.929688 Z M 81.824219 42.25 L 81.824219 42.777344 C 82.976562 42.777344 83.132812 42.875 83.132812 43.753906 L 83.132812 48.636719 C 83.132812 49.4375 82.9375 49.4375 81.765625 49.4375 L 81.765625 49.964844 C 82.273438 49.925781 83.132812 49.925781 83.660156 49.925781 C 83.855469 49.925781 84.890625 49.925781 85.496094 49.964844 L 85.496094 49.4375 C 84.34375 49.4375 84.265625 49.359375 84.265625 48.65625 L 84.265625 42.054688 Z M 81.824219 42.25 "/>
<path style=" stroke:none;fill-rule:nonzero;fill:rgb(0%,0%,0%);fill-opacity:1;" d="M 94.117188 45.609375 C 94.117188 43.949219 94.117188 43.441406 93.6875 42.855469 C 93.179688 42.171875 92.339844 42.054688 91.714844 42.054688 C 89.976562 42.054688 89.292969 43.539062 89.15625 43.910156 L 89.136719 43.910156 L 89.136719 42.054688 L 86.695312 42.25 L 86.695312 42.777344 C 87.925781 42.777344 88.0625 42.894531 88.0625 43.773438 L 88.0625 48.636719 C 88.0625 49.4375 87.867188 49.4375 86.695312 49.4375 L 86.695312 49.964844 C 87.164062 49.925781 88.140625 49.925781 88.648438 49.925781 C 89.15625 49.925781 90.132812 49.925781 90.601562 49.964844 L 90.601562 49.4375 C 89.449219 49.4375 89.234375 49.4375 89.234375 48.636719 L 89.234375 45.296875 C 89.234375 43.421875 90.464844 42.425781 91.578125 42.425781 C 92.691406 42.425781 92.945312 43.324219 92.945312 44.417969 L 92.945312 48.636719 C 92.945312 49.4375 92.75 49.4375 91.578125 49.4375 L 91.578125 49.964844 C 92.046875 49.925781 93.023438 49.925781 93.511719 49.925781 C 94.039062 49.925781 94.996094 49.925781 95.464844 49.964844 L 95.464844 49.4375 C 94.566406 49.4375 94.117188 49.4375 94.117188 48.910156 Z M 94.117188 45.609375 "/>
<path style=" stroke:none;fill-rule:nonzero;fill:rgb(0%,0%,0%);fill-opacity:1;" d="M 97.519531 38.835938 L 97.519531 38.523438 C 97.519531 35.378906 99.0625 34.929688 99.707031 34.929688 C 100 34.929688 100.527344 35.007812 100.800781 35.4375 C 100.605469 35.4375 100.117188 35.4375 100.117188 35.984375 C 100.117188 36.375 100.410156 36.570312 100.683594 36.570312 C 100.878906 36.570312 101.269531 36.453125 101.269531 35.964844 C 101.269531 35.222656 100.722656 34.617188 99.6875 34.617188 C 98.085938 34.617188 96.40625 36.21875 96.40625 38.972656 C 96.40625 42.3125 97.851562 43.191406 99.003906 43.191406 C 100.390625 43.191406 101.582031 42.019531 101.582031 40.378906 C 101.582031 38.796875 100.46875 37.605469 99.082031 37.605469 C 98.242188 37.605469 97.773438 38.230469 97.519531 38.835938 Z M 99.003906 42.839844 C 98.222656 42.839844 97.851562 42.097656 97.773438 41.902344 C 97.539062 41.316406 97.539062 40.320312 97.539062 40.105469 C 97.539062 39.128906 97.949219 37.878906 99.0625 37.878906 C 99.277344 37.878906 99.84375 37.878906 100.234375 38.660156 C 100.449219 39.109375 100.449219 39.753906 100.449219 40.359375 C 100.449219 40.964844 100.449219 41.589844 100.234375 42.039062 C 99.863281 42.78125 99.296875 42.839844 99.003906 42.839844 Z M 99.003906 42.839844 "/>
<path style=" stroke:none;fill-rule:nonzero;fill:rgb(0%,0%,0%);fill-opacity:1;" d="M 112.777344 45.824219 L 117.738281 45.824219 C 117.992188 45.824219 118.304688 45.824219 118.304688 45.492188 C 118.304688 45.160156 117.992188 45.160156 117.738281 45.160156 L 112.777344 45.160156 L 112.777344 40.21875 C 112.777344 39.964844 112.777344 39.632812 112.464844 39.632812 C 112.113281 39.632812 112.113281 39.945312 112.113281 40.21875 L 112.113281 45.160156 L 107.171875 45.160156 C 106.917969 45.160156 106.605469 45.160156 106.605469 45.492188 C 106.605469 45.824219 106.898438 45.824219 107.171875 45.824219 L 112.113281 45.824219 L 112.113281 50.765625 C 112.113281 51.019531 112.113281 51.351562 112.445312 51.351562 C 112.777344 51.351562 112.777344 51.039062 112.777344 50.765625 Z M 112.777344 45.824219 "/>
<path style=" stroke:none;fill-rule:nonzero;fill:rgb(0%,0%,0%);fill-opacity:1;" d="M 128.761719 43.324219 C 128.546875 43.324219 127.882812 43.324219 127.882812 44.066406 C 127.882812 44.496094 128.195312 44.808594 128.625 44.808594 C 129.035156 44.808594 129.386719 44.554688 129.386719 44.027344 C 129.386719 42.835938 128.117188 41.976562 126.671875 41.976562 C 124.582031 41.976562 122.902344 43.832031 122.902344 46.097656 C 122.902344 48.382812 124.621094 50.140625 126.652344 50.140625 C 129.015625 50.140625 129.5625 47.992188 129.5625 47.835938 C 129.5625 47.660156 129.425781 47.660156 129.386719 47.660156 C 129.210938 47.660156 129.191406 47.71875 129.152344 47.933594 C 128.742188 49.203125 127.785156 49.75 126.808594 49.75 C 125.714844 49.75 124.269531 48.792969 124.269531 46.078125 C 124.269531 43.089844 125.792969 42.367188 126.691406 42.367188 C 127.375 42.367188 128.351562 42.640625 128.761719 43.324219 Z M 128.761719 43.324219 "/>
<path style=" stroke:none;fill-rule:nonzero;fill:rgb(0%,0%,0%);fill-opacity:1;" d="M 138.300781 46.136719 C 138.300781 43.8125 136.542969 41.976562 134.472656 41.976562 C 132.324219 41.976562 130.625 43.871094 130.625 46.136719 C 130.625 48.421875 132.402344 50.140625 134.453125 50.140625 C 136.5625 50.140625 138.300781 48.382812 138.300781 46.136719 Z M 134.472656 49.75 C 133.808594 49.75 133.007812 49.457031 132.480469 48.578125 C 131.992188 47.777344 131.972656 46.722656 131.972656 45.960938 C 131.972656 45.277344 131.972656 44.183594 132.539062 43.382812 C 133.027344 42.621094 133.828125 42.328125 134.453125 42.328125 C 135.15625 42.328125 135.898438 42.640625 136.386719 43.34375 C 136.953125 44.164062 136.953125 45.296875 136.953125 45.960938 C 136.953125 46.585938 136.953125 47.699219 136.484375 48.539062 C 135.976562 49.417969 135.15625 49.75 134.472656 49.75 Z M 134.472656 49.75 "/>
<path style=" stroke:none;fill-rule:nonzero;fill:rgb(0%,0%,0%);fill-opacity:1;" d="M 144.808594 42.386719 C 144.808594 42.054688 144.808594 41.976562 144.632812 41.976562 C 144.496094 41.976562 144.144531 42.367188 144.027344 42.523438 C 143.460938 42.074219 142.914062 41.976562 142.328125 41.976562 C 140.160156 41.976562 139.515625 43.148438 139.515625 44.144531 C 139.515625 44.339844 139.515625 44.964844 140.199219 45.589844 C 140.785156 46.097656 141.390625 46.214844 142.210938 46.371094 C 143.1875 46.566406 143.421875 46.625 143.871094 46.996094 C 144.203125 47.25 144.4375 47.660156 144.4375 48.148438 C 144.4375 48.929688 143.988281 49.789062 142.40625 49.789062 C 141.234375 49.789062 140.355469 49.105469 139.964844 47.308594 C 139.90625 46.996094 139.90625 46.976562 139.886719 46.957031 C 139.847656 46.878906 139.769531 46.878906 139.710938 46.878906 C 139.515625 46.878906 139.515625 46.976562 139.515625 47.289062 L 139.515625 49.730469 C 139.515625 50.0625 139.515625 50.140625 139.691406 50.140625 C 139.789062 50.140625 139.808594 50.121094 140.121094 49.75 C 140.199219 49.632812 140.199219 49.59375 140.472656 49.300781 C 141.15625 50.140625 142.113281 50.140625 142.425781 50.140625 C 144.300781 50.140625 145.238281 49.105469 145.238281 47.679688 C 145.238281 46.722656 144.652344 46.136719 144.496094 45.980469 C 143.851562 45.433594 143.363281 45.316406 142.171875 45.101562 C 141.644531 45.003906 140.335938 44.75 140.335938 43.675781 C 140.335938 43.109375 140.707031 42.289062 142.328125 42.289062 C 144.28125 42.289062 144.378906 43.949219 144.417969 44.515625 C 144.4375 44.652344 144.554688 44.652344 144.613281 44.652344 C 144.808594 44.652344 144.808594 44.574219 144.808594 44.242188 Z M 144.808594 42.386719 "/>
<path style=" stroke:none;fill-rule:nonzero;fill:rgb(0%,0%,0%);fill-opacity:1;" d="M 147.46875 39.285156 L 147.46875 38.972656 C 147.46875 35.828125 149.011719 35.378906 149.65625 35.378906 C 149.949219 35.378906 150.476562 35.457031 150.75 35.886719 C 150.554688 35.886719 150.066406 35.886719 150.066406 36.433594 C 150.066406 36.824219 150.359375 37.019531 150.632812 37.019531 C 150.828125 37.019531 151.21875 36.902344 151.21875 36.414062 C 151.21875 35.671875 150.671875 35.066406 149.636719 35.066406 C 148.035156 35.066406 146.355469 36.667969 146.355469 39.421875 C 146.355469 42.761719 147.800781 43.640625 148.953125 43.640625 C 150.339844 43.640625 151.53125 42.46875 151.53125 40.828125 C 151.53125 39.246094 150.417969 38.054688 149.03125 38.054688 C 148.191406 38.054688 147.722656 38.679688 147.46875 39.285156 Z M 148.953125 43.289062 C 148.171875 43.289062 147.800781 42.546875 147.722656 42.351562 C 147.488281 41.765625 147.488281 40.769531 147.488281 40.554688 C 147.488281 39.578125 147.898438 38.328125 149.011719 38.328125 C 149.226562 38.328125 149.792969 38.328125 150.183594 39.109375 C 150.398438 39.558594 150.398438 40.203125 150.398438 40.808594 C 150.398438 41.414062 150.398438 42.039062 150.183594 42.488281 C 149.8125 43.230469 149.246094 43.289062 148.953125 43.289062 Z M 148.953125 43.289062 "/>
<path style=" stroke:none;fill-rule:nonzero;fill:rgb(0%,0%,0%);fill-opacity:1;" d="M 164.226562 42.640625 C 163.660156 42.757812 163.445312 43.1875 163.445312 43.519531 C 163.445312 43.949219 163.777344 44.105469 164.03125 44.105469 C 164.578125 44.105469 164.949219 43.636719 164.949219 43.148438 C 164.949219 42.40625 164.089844 42.054688 163.328125 42.054688 C 162.234375 42.054688 161.628906 43.128906 161.472656 43.480469 C 161.0625 42.132812 159.949219 42.054688 159.617188 42.054688 C 157.800781 42.054688 156.824219 44.398438 156.824219 44.808594 C 156.824219 44.867188 156.902344 44.964844 157.019531 44.964844 C 157.15625 44.964844 157.195312 44.847656 157.234375 44.789062 C 157.839844 42.796875 159.050781 42.425781 159.558594 42.425781 C 160.378906 42.425781 160.535156 43.167969 160.535156 43.597656 C 160.535156 43.988281 160.4375 44.398438 160.203125 45.257812 L 159.597656 47.71875 C 159.34375 48.792969 158.816406 49.789062 157.859375 49.789062 C 157.78125 49.789062 157.332031 49.789062 156.941406 49.554688 C 157.585938 49.417969 157.742188 48.890625 157.742188 48.675781 C 157.742188 48.324219 157.46875 48.109375 157.136719 48.109375 C 156.707031 48.109375 156.238281 48.480469 156.238281 49.046875 C 156.238281 49.808594 157.078125 50.140625 157.839844 50.140625 C 158.699219 50.140625 159.324219 49.457031 159.695312 48.734375 C 159.988281 49.789062 160.867188 50.140625 161.53125 50.140625 C 163.367188 50.140625 164.34375 47.796875 164.34375 47.40625 C 164.34375 47.308594 164.265625 47.230469 164.148438 47.230469 C 163.992188 47.230469 163.972656 47.328125 163.933594 47.464844 C 163.445312 49.046875 162.390625 49.789062 161.589844 49.789062 C 160.964844 49.789062 160.632812 49.320312 160.632812 48.578125 C 160.632812 48.1875 160.691406 47.894531 160.984375 46.722656 L 161.609375 44.28125 C 161.882812 43.207031 162.488281 42.425781 163.308594 42.425781 C 163.347656 42.425781 163.855469 42.425781 164.226562 42.640625 Z M 164.226562 42.640625 "/>
<path style=" stroke:none;fill-rule:nonzero;fill:rgb(0%,0%,0%);fill-opacity:1;" d="M 71.113281 57.183594 L 168.910156 57.183594 L 168.910156 57.9375 L 71.113281 57.9375 Z M 71.113281 57.183594 "/>
<path style=" stroke:none;fill-rule:nonzero;fill:rgb(0%,0%,0%);fill-opacity:1;" d="M 77.007812 67.589844 C 77.007812 67.257812 77.007812 67.179688 76.832031 67.179688 C 76.695312 67.179688 76.34375 67.570312 76.226562 67.726562 C 75.660156 67.277344 75.113281 67.179688 74.527344 67.179688 C 72.359375 67.179688 71.714844 68.351562 71.714844 69.347656 C 71.714844 69.542969 71.714844 70.167969 72.398438 70.792969 C 72.984375 71.300781 73.589844 71.417969 74.410156 71.574219 C 75.386719 71.769531 75.621094 71.828125 76.070312 72.199219 C 76.402344 72.453125 76.636719 72.863281 76.636719 73.351562 C 76.636719 74.132812 76.1875 74.992188 74.605469 74.992188 C 73.433594 74.992188 72.554688 74.308594 72.164062 72.511719 C 72.105469 72.199219 72.105469 72.179688 72.085938 72.160156 C 72.046875 72.082031 71.96875 72.082031 71.910156 72.082031 C 71.714844 72.082031 71.714844 72.179688 71.714844 72.492188 L 71.714844 74.933594 C 71.714844 75.265625 71.714844 75.34375 71.890625 75.34375 C 71.988281 75.34375 72.007812 75.324219 72.320312 74.953125 C 72.398438 74.835938 72.398438 74.796875 72.671875 74.503906 C 73.355469 75.34375 74.3125 75.34375 74.625 75.34375 C 76.5 75.34375 77.4375 74.308594 77.4375 72.882812 C 77.4375 71.925781 76.851562 71.339844 76.695312 71.183594 C 76.050781 70.636719 75.5625 70.519531 74.371094 70.304688 C 73.84375 70.207031 72.535156 69.953125 72.535156 68.878906 C 72.535156 68.3125 72.90625 67.492188 74.527344 67.492188 C 76.480469 67.492188 76.578125 69.152344 76.617188 69.71875 C 76.636719 69.855469 76.753906 69.855469 76.8125 69.855469 C 77.007812 69.855469 77.007812 69.777344 77.007812 69.445312 Z M 77.007812 67.589844 "/>
<path style=" stroke:none;fill-rule:nonzero;fill:rgb(0%,0%,0%);fill-opacity:1;" d="M 81.152344 64.132812 C 81.152344 63.664062 80.761719 63.253906 80.273438 63.253906 C 79.804688 63.253906 79.414062 63.625 79.414062 64.113281 C 79.414062 64.640625 79.84375 64.992188 80.273438 64.992188 C 80.820312 64.992188 81.152344 64.523438 81.152344 64.132812 Z M 78.671875 67.453125 L 78.671875 67.980469 C 79.824219 67.980469 79.980469 68.078125 79.980469 68.957031 L 79.980469 73.839844 C 79.980469 74.640625 79.785156 74.640625 78.613281 74.640625 L 78.613281 75.167969 C 79.121094 75.128906 79.980469 75.128906 80.507812 75.128906 C 80.703125 75.128906 81.738281 75.128906 82.34375 75.167969 L 82.34375 74.640625 C 81.191406 74.640625 81.113281 74.5625 81.113281 73.859375 L 81.113281 67.257812 Z M 78.671875 67.453125 "/>
<path style=" stroke:none;fill-rule:nonzero;fill:rgb(0%,0%,0%);fill-opacity:1;" d="M 90.96875 70.8125 C 90.96875 69.152344 90.96875 68.644531 90.539062 68.058594 C 90.03125 67.375 89.191406 67.257812 88.566406 67.257812 C 86.828125 67.257812 86.144531 68.742188 86.007812 69.113281 L 85.988281 69.113281 L 85.988281 67.257812 L 83.546875 67.453125 L 83.546875 67.980469 C 84.777344 67.980469 84.914062 68.097656 84.914062 68.976562 L 84.914062 73.839844 C 84.914062 74.640625 84.71875 74.640625 83.546875 74.640625 L 83.546875 75.167969 C 84.015625 75.128906 84.992188 75.128906 85.5 75.128906 C 86.007812 75.128906 86.984375 75.128906 87.453125 75.167969 L 87.453125 74.640625 C 86.300781 74.640625 86.085938 74.640625 86.085938 73.839844 L 86.085938 70.5 C 86.085938 68.625 87.316406 67.628906 88.429688 67.628906 C 89.542969 67.628906 89.796875 68.527344 89.796875 69.621094 L 89.796875 73.839844 C 89.796875 74.640625 89.601562 74.640625 88.429688 74.640625 L 88.429688 75.167969 C 88.898438 75.128906 89.875 75.128906 90.363281 75.128906 C 90.890625 75.128906 91.847656 75.128906 92.316406 75.167969 L 92.316406 74.640625 C 91.417969 74.640625 90.96875 74.640625 90.96875 74.113281 Z M 90.96875 70.8125 "/>
<path style=" stroke:none;fill-rule:nonzero;fill:rgb(0%,0%,0%);fill-opacity:1;" d="M 94.3125 67.160156 L 95.640625 65.871094 C 97.574219 64.152344 98.316406 63.488281 98.316406 62.238281 C 98.316406 60.8125 97.203125 59.816406 95.679688 59.816406 C 94.273438 59.816406 93.355469 60.96875 93.355469 62.082031 C 93.355469 62.765625 93.980469 62.765625 94.019531 62.765625 C 94.234375 62.765625 94.664062 62.628906 94.664062 62.101562 C 94.664062 61.789062 94.429688 61.457031 94 61.457031 C 93.902344 61.457031 93.882812 61.457031 93.84375 61.476562 C 94.117188 60.65625 94.800781 60.207031 95.523438 60.207031 C 96.65625 60.207031 97.183594 61.222656 97.183594 62.238281 C 97.183594 63.234375 96.578125 64.210938 95.875 64.992188 L 93.492188 67.648438 C 93.355469 67.785156 93.355469 67.824219 93.355469 68.117188 L 97.984375 68.117188 L 98.316406 65.949219 L 98.023438 65.949219 C 97.945312 66.320312 97.867188 66.867188 97.730469 67.0625 C 97.652344 67.160156 96.832031 67.160156 96.558594 67.160156 Z M 94.3125 67.160156 "/>
<path style=" stroke:none;fill-rule:nonzero;fill:rgb(0%,0%,0%);fill-opacity:1;" d="M 111.125 67.84375 C 110.558594 67.960938 110.34375 68.390625 110.34375 68.722656 C 110.34375 69.152344 110.675781 69.308594 110.929688 69.308594 C 111.476562 69.308594 111.847656 68.839844 111.847656 68.351562 C 111.847656 67.609375 110.988281 67.257812 110.226562 67.257812 C 109.132812 67.257812 108.527344 68.332031 108.371094 68.683594 C 107.960938 67.335938 106.847656 67.257812 106.515625 67.257812 C 104.699219 67.257812 103.722656 69.601562 103.722656 70.011719 C 103.722656 70.070312 103.800781 70.167969 103.917969 70.167969 C 104.054688 70.167969 104.09375 70.050781 104.132812 69.992188 C 104.738281 68 105.949219 67.628906 106.457031 67.628906 C 107.277344 67.628906 107.433594 68.371094 107.433594 68.800781 C 107.433594 69.191406 107.335938 69.601562 107.101562 70.460938 L 106.496094 72.921875 C 106.242188 73.996094 105.714844 74.992188 104.757812 74.992188 C 104.679688 74.992188 104.230469 74.992188 103.839844 74.757812 C 104.484375 74.621094 104.640625 74.09375 104.640625 73.878906 C 104.640625 73.527344 104.367188 73.3125 104.035156 73.3125 C 103.605469 73.3125 103.136719 73.683594 103.136719 74.25 C 103.136719 75.011719 103.976562 75.34375 104.738281 75.34375 C 105.597656 75.34375 106.222656 74.660156 106.59375 73.9375 C 106.886719 74.992188 107.765625 75.34375 108.429688 75.34375 C 110.265625 75.34375 111.242188 73 111.242188 72.609375 C 111.242188 72.511719 111.164062 72.433594 111.046875 72.433594 C 110.890625 72.433594 110.871094 72.53125 110.832031 72.667969 C 110.34375 74.25 109.289062 74.992188 108.488281 74.992188 C 107.863281 74.992188 107.53125 74.523438 107.53125 73.78125 C 107.53125 73.390625 107.589844 73.097656 107.882812 71.925781 L 108.507812 69.484375 C 108.78125 68.410156 109.386719 67.628906 110.207031 67.628906 C 110.246094 67.628906 110.753906 67.628906 111.125 67.84375 Z M 111.125 67.84375 "/>
<path style=" stroke:none;fill-rule:nonzero;fill:rgb(0%,0%,0%);fill-opacity:1;" d="M 120.015625 70.695312 C 120.015625 70.167969 119.585938 69.738281 119.078125 69.738281 C 118.550781 69.738281 118.121094 70.167969 118.121094 70.695312 C 118.121094 71.203125 118.550781 71.632812 119.078125 71.632812 C 119.585938 71.632812 120.015625 71.203125 120.015625 70.695312 Z M 120.015625 70.695312 "/>
<path style=" stroke:none;fill-rule:nonzero;fill:rgb(0%,0%,0%);fill-opacity:1;" d="M 131.914062 68.527344 C 131.699219 68.527344 131.035156 68.527344 131.035156 69.269531 C 131.035156 69.699219 131.347656 70.011719 131.777344 70.011719 C 132.1875 70.011719 132.539062 69.757812 132.539062 69.230469 C 132.539062 68.039062 131.269531 67.179688 129.824219 67.179688 C 127.734375 67.179688 126.054688 69.035156 126.054688 71.300781 C 126.054688 73.585938 127.773438 75.34375 129.804688 75.34375 C 132.167969 75.34375 132.714844 73.195312 132.714844 73.039062 C 132.714844 72.863281 132.578125 72.863281 132.539062 72.863281 C 132.363281 72.863281 132.34375 72.921875 132.304688 73.136719 C 131.894531 74.40625 130.9375 74.953125 129.960938 74.953125 C 128.867188 74.953125 127.421875 73.996094 127.421875 71.28125 C 127.421875 68.292969 128.945312 67.570312 129.84375 67.570312 C 130.527344 67.570312 131.503906 67.84375 131.914062 68.527344 Z M 131.914062 68.527344 "/>
<path style=" stroke:none;fill-rule:nonzero;fill:rgb(0%,0%,0%);fill-opacity:1;" d="M 141.453125 71.339844 C 141.453125 69.015625 139.695312 67.179688 137.625 67.179688 C 135.476562 67.179688 133.777344 69.074219 133.777344 71.339844 C 133.777344 73.625 135.554688 75.34375 137.605469 75.34375 C 139.714844 75.34375 141.453125 73.585938 141.453125 71.339844 Z M 137.625 74.953125 C 136.960938 74.953125 136.160156 74.660156 135.632812 73.78125 C 135.144531 72.980469 135.125 71.925781 135.125 71.164062 C 135.125 70.480469 135.125 69.386719 135.691406 68.585938 C 136.179688 67.824219 136.980469 67.53125 137.605469 67.53125 C 138.308594 67.53125 139.050781 67.84375 139.539062 68.546875 C 140.105469 69.367188 140.105469 70.5 140.105469 71.164062 C 140.105469 71.789062 140.105469 72.902344 139.636719 73.742188 C 139.128906 74.621094 138.308594 74.953125 137.625 74.953125 Z M 137.625 74.953125 "/>
<path style=" stroke:none;fill-rule:nonzero;fill:rgb(0%,0%,0%);fill-opacity:1;" d="M 147.957031 67.589844 C 147.957031 67.257812 147.957031 67.179688 147.78125 67.179688 C 147.644531 67.179688 147.292969 67.570312 147.175781 67.726562 C 146.609375 67.277344 146.0625 67.179688 145.476562 67.179688 C 143.308594 67.179688 142.664062 68.351562 142.664062 69.347656 C 142.664062 69.542969 142.664062 70.167969 143.347656 70.792969 C 143.933594 71.300781 144.539062 71.417969 145.359375 71.574219 C 146.335938 71.769531 146.570312 71.828125 147.019531 72.199219 C 147.351562 72.453125 147.585938 72.863281 147.585938 73.351562 C 147.585938 74.132812 147.136719 74.992188 145.554688 74.992188 C 144.382812 74.992188 143.503906 74.308594 143.113281 72.511719 C 143.054688 72.199219 143.054688 72.179688 143.035156 72.160156 C 142.996094 72.082031 142.917969 72.082031 142.859375 72.082031 C 142.664062 72.082031 142.664062 72.179688 142.664062 72.492188 L 142.664062 74.933594 C 142.664062 75.265625 142.664062 75.34375 142.839844 75.34375 C 142.9375 75.34375 142.957031 75.324219 143.269531 74.953125 C 143.347656 74.835938 143.347656 74.796875 143.621094 74.503906 C 144.304688 75.34375 145.261719 75.34375 145.574219 75.34375 C 147.449219 75.34375 148.386719 74.308594 148.386719 72.882812 C 148.386719 71.925781 147.800781 71.339844 147.644531 71.183594 C 147 70.636719 146.511719 70.519531 145.320312 70.304688 C 144.792969 70.207031 143.484375 69.953125 143.484375 68.878906 C 143.484375 68.3125 143.855469 67.492188 145.476562 67.492188 C 147.429688 67.492188 147.527344 69.152344 147.566406 69.71875 C 147.585938 69.855469 147.703125 69.855469 147.761719 69.855469 C 147.957031 69.855469 147.957031 69.777344 147.957031 69.445312 Z M 147.957031 67.589844 "/>
<path style=" stroke:none;fill-rule:nonzero;fill:rgb(0%,0%,0%);fill-opacity:1;" d="M 150.5625 69.109375 L 151.890625 67.820312 C 153.824219 66.101562 154.566406 65.4375 154.566406 64.1875 C 154.566406 62.761719 153.453125 61.765625 151.929688 61.765625 C 150.523438 61.765625 149.605469 62.917969 149.605469 64.03125 C 149.605469 64.714844 150.230469 64.714844 150.269531 64.714844 C 150.484375 64.714844 150.914062 64.578125 150.914062 64.050781 C 150.914062 63.738281 150.679688 63.40625 150.25 63.40625 C 150.152344 63.40625 150.132812 63.40625 150.09375 63.425781 C 150.367188 62.605469 151.050781 62.15625 151.773438 62.15625 C 152.90625 62.15625 153.433594 63.171875 153.433594 64.1875 C 153.433594 65.183594 152.828125 66.160156 152.125 66.941406 L 149.742188 69.597656 C 149.605469 69.734375 149.605469 69.773438 149.605469 70.066406 L 154.234375 70.066406 L 154.566406 67.898438 L 154.273438 67.898438 C 154.195312 68.269531 154.117188 68.816406 153.980469 69.011719 C 153.902344 69.109375 153.082031 69.109375 152.808594 69.109375 Z M 150.5625 69.109375 "/>
<path style=" stroke:none;fill-rule:nonzero;fill:rgb(0%,0%,0%);fill-opacity:1;" d="M 167.375 67.84375 C 166.808594 67.960938 166.59375 68.390625 166.59375 68.722656 C 166.59375 69.152344 166.925781 69.308594 167.179688 69.308594 C 167.726562 69.308594 168.097656 68.839844 168.097656 68.351562 C 168.097656 67.609375 167.238281 67.257812 166.476562 67.257812 C 165.382812 67.257812 164.777344 68.332031 164.621094 68.683594 C 164.210938 67.335938 163.097656 67.257812 162.765625 67.257812 C 160.949219 67.257812 159.972656 69.601562 159.972656 70.011719 C 159.972656 70.070312 160.050781 70.167969 160.167969 70.167969 C 160.304688 70.167969 160.34375 70.050781 160.382812 69.992188 C 160.988281 68 162.199219 67.628906 162.707031 67.628906 C 163.527344 67.628906 163.683594 68.371094 163.683594 68.800781 C 163.683594 69.191406 163.585938 69.601562 163.351562 70.460938 L 162.746094 72.921875 C 162.492188 73.996094 161.964844 74.992188 161.007812 74.992188 C 160.929688 74.992188 160.480469 74.992188 160.089844 74.757812 C 160.734375 74.621094 160.890625 74.09375 160.890625 73.878906 C 160.890625 73.527344 160.617188 73.3125 160.285156 73.3125 C 159.855469 73.3125 159.386719 73.683594 159.386719 74.25 C 159.386719 75.011719 160.226562 75.34375 160.988281 75.34375 C 161.847656 75.34375 162.472656 74.660156 162.84375 73.9375 C 163.136719 74.992188 164.015625 75.34375 164.679688 75.34375 C 166.515625 75.34375 167.492188 73 167.492188 72.609375 C 167.492188 72.511719 167.414062 72.433594 167.296875 72.433594 C 167.140625 72.433594 167.121094 72.53125 167.082031 72.667969 C 166.59375 74.25 165.539062 74.992188 164.738281 74.992188 C 164.113281 74.992188 163.78125 74.523438 163.78125 73.78125 C 163.78125 73.390625 163.839844 73.097656 164.132812 71.925781 L 164.757812 69.484375 C 165.03125 68.410156 165.636719 67.628906 166.457031 67.628906 C 166.496094 67.628906 167.003906 67.628906 167.375 67.84375 Z M 167.375 67.84375 "/>
<path style=" stroke:none;fill-rule:nonzero;fill:rgb(0%,0%,0%);fill-opacity:1;" d="M 177.765625 57.644531 C 177.765625 57.117188 177.335938 56.6875 176.828125 56.6875 C 176.300781 56.6875 175.871094 57.117188 175.871094 57.644531 C 175.871094 58.152344 176.300781 58.582031 176.828125 58.582031 C 177.335938 58.582031 177.765625 58.152344 177.765625 57.644531 Z M 177.765625 57.644531 "/>
<path style=" stroke:none;fill-rule:nonzero;fill:rgb(0%,0%,0%);fill-opacity:1;" d="M 192.351562 50.125 C 192.371094 50.046875 192.410156 49.949219 192.410156 49.851562 C 192.410156 49.675781 192.214844 49.675781 192.175781 49.675781 C 192.175781 49.675781 191.296875 49.753906 191.199219 49.753906 C 190.886719 49.773438 190.632812 49.8125 190.300781 49.832031 C 189.851562 49.871094 189.734375 49.890625 189.734375 50.203125 C 189.734375 50.398438 189.871094 50.398438 190.125 50.398438 C 191.003906 50.398438 191.023438 50.554688 191.023438 50.730469 C 191.023438 50.847656 190.984375 50.984375 190.964844 51.042969 L 189.871094 55.398438 C 189.675781 54.929688 189.1875 54.207031 188.25 54.207031 C 186.238281 54.207031 184.050781 56.824219 184.050781 59.480469 C 184.050781 61.257812 185.085938 62.292969 186.296875 62.292969 C 187.292969 62.292969 188.132812 61.53125 188.640625 60.925781 C 188.816406 62 189.65625 62.292969 190.203125 62.292969 C 190.730469 62.292969 191.160156 61.980469 191.492188 61.335938 C 191.765625 60.710938 192.019531 59.617188 192.019531 59.558594 C 192.019531 59.460938 191.960938 59.382812 191.84375 59.382812 C 191.6875 59.382812 191.667969 59.480469 191.589844 59.753906 C 191.316406 60.808594 190.984375 61.941406 190.242188 61.941406 C 189.734375 61.941406 189.695312 61.472656 189.695312 61.121094 C 189.695312 61.042969 189.695312 60.671875 189.8125 60.164062 Z M 188.71875 59.988281 C 188.640625 60.28125 188.640625 60.320312 188.386719 60.671875 C 187.996094 61.160156 187.195312 61.941406 186.355469 61.941406 C 185.632812 61.941406 185.203125 61.277344 185.203125 60.222656 C 185.203125 59.226562 185.769531 57.214844 186.101562 56.472656 C 186.726562 55.222656 187.566406 54.578125 188.25 54.578125 C 189.441406 54.578125 189.675781 56.042969 189.675781 56.179688 C 189.675781 56.199219 189.617188 56.433594 189.597656 56.472656 Z M 188.71875 59.988281 "/>
<path style=" stroke:none;fill-rule:nonzero;fill:rgb(0%,0%,0%);fill-opacity:1;" d="M 200.976562 54.792969 C 200.410156 54.910156 200.195312 55.339844 200.195312 55.671875 C 200.195312 56.101562 200.527344 56.257812 200.78125 56.257812 C 201.328125 56.257812 201.699219 55.789062 201.699219 55.300781 C 201.699219 54.558594 200.839844 54.207031 200.078125 54.207031 C 198.984375 54.207031 198.378906 55.28125 198.222656 55.632812 C 197.8125 54.285156 196.699219 54.207031 196.367188 54.207031 C 194.550781 54.207031 193.574219 56.550781 193.574219 56.960938 C 193.574219 57.019531 193.652344 57.117188 193.769531 57.117188 C 193.90625 57.117188 193.945312 57 193.984375 56.941406 C 194.589844 54.949219 195.800781 54.578125 196.308594 54.578125 C 197.128906 54.578125 197.285156 55.320312 197.285156 55.75 C 197.285156 56.140625 197.1875 56.550781 196.953125 57.410156 L 196.347656 59.871094 C 196.09375 60.945312 195.566406 61.941406 194.609375 61.941406 C 194.53125 61.941406 194.082031 61.941406 193.691406 61.707031 C 194.335938 61.570312 194.492188 61.042969 194.492188 60.828125 C 194.492188 60.476562 194.21875 60.261719 193.886719 60.261719 C 193.457031 60.261719 192.988281 60.632812 192.988281 61.199219 C 192.988281 61.960938 193.828125 62.292969 194.589844 62.292969 C 195.449219 62.292969 196.074219 61.609375 196.445312 60.886719 C 196.738281 61.941406 197.617188 62.292969 198.28125 62.292969 C 200.117188 62.292969 201.09375 59.949219 201.09375 59.558594 C 201.09375 59.460938 201.015625 59.382812 200.898438 59.382812 C 200.742188 59.382812 200.722656 59.480469 200.683594 59.617188 C 200.195312 61.199219 199.140625 61.941406 198.339844 61.941406 C 197.714844 61.941406 197.382812 61.472656 197.382812 60.730469 C 197.382812 60.339844 197.441406 60.046875 197.734375 58.875 L 198.359375 56.433594 C 198.632812 55.359375 199.238281 54.578125 200.058594 54.578125 C 200.097656 54.578125 200.605469 54.578125 200.976562 54.792969 Z M 200.976562 54.792969 "/>
</g>
</svg>
