<?xml version="1.0" encoding="UTF-8"?>
<svg xmlns="http://www.w3.org/2000/svg" xmlns:xlink="http://www.w3.org/1999/xlink" width="204.35709pt" height="14.003906pt" viewBox="0 0 204.35709 14.003906" version="1.1">
<g id="surface1">
<path style=" stroke:none;fill-rule:nonzero;fill:rgb(0%,0%,0%);fill-opacity:1;" d="M 5.859375 1.699219 C 6.015625 1.074219 6.054688 0.898438 7.363281 0.898438 C 7.753906 0.898438 7.890625 0.898438 7.890625 0.546875 C 7.890625 0.371094 7.695312 0.371094 7.65625 0.371094 C 7.324219 0.371094 6.933594 0.410156 6.601562 0.410156 L 4.394531 0.410156 C 4.042969 0.410156 3.632812 0.371094 3.28125 0.371094 C 3.125 0.371094 2.929688 0.371094 2.929688 0.703125 C 2.929688 0.898438 3.085938 0.898438 3.4375 0.898438 C 4.550781 0.898438 4.550781 1.035156 4.550781 1.230469 C 4.550781 1.347656 4.511719 1.464844 4.472656 1.621094 L 2.050781 11.289062 C 1.894531 11.914062 1.855469 12.089844 0.546875 12.089844 C 0.15625 12.089844 0 12.089844 0 12.441406 C 0 12.617188 0.175781 12.617188 0.253906 12.617188 C 0.585938 12.617188 0.976562 12.578125 1.308594 12.578125 L 3.515625 12.578125 C 3.867188 12.578125 4.257812 12.617188 4.609375 12.617188 C 4.765625 12.617188 4.980469 12.617188 4.980469 12.285156 C 4.980469 12.089844 4.863281 12.089844 4.472656 12.089844 C 3.359375 12.089844 3.359375 11.953125 3.359375 11.738281 C 3.359375 11.699219 3.359375 11.621094 3.4375 11.328125 Z M 5.859375 1.699219 "/>
<path style=" stroke:none;fill-rule:nonzero;fill:rgb(0%,0%,0%);fill-opacity:1;" d="M 25.46875 6.816406 C 25.722656 6.816406 26.035156 6.816406 26.035156 6.484375 C 26.035156 6.152344 25.722656 6.152344 25.46875 6.152344 L 14.902344 6.152344 C 14.648438 6.152344 14.335938 6.152344 14.335938 6.464844 C 14.335938 6.816406 14.628906 6.816406 14.902344 6.816406 Z M 25.46875 10.136719 C 25.722656 10.136719 26.035156 10.136719 26.035156 9.824219 C 26.035156 9.472656 25.722656 9.472656 25.46875 9.472656 L 14.902344 9.472656 C 14.648438 9.472656 14.335938 9.472656 14.335938 9.804688 C 14.335938 10.136719 14.628906 10.136719 14.902344 10.136719 Z M 25.46875 10.136719 "/>
<path style=" stroke:none;fill-rule:nonzero;fill:rgb(0%,0%,0%);fill-opacity:1;" d="M 35.117188 5.410156 L 37.65625 5.410156 L 37.65625 4.882812 L 35.117188 4.882812 L 35.117188 1.582031 L 34.726562 1.582031 C 34.707031 3.28125 34.0625 5 32.441406 5.058594 L 32.441406 5.410156 L 33.964844 5.410156 L 33.964844 10.390625 C 33.964844 12.382812 35.273438 12.792969 36.230469 12.792969 C 37.363281 12.792969 37.949219 11.679688 37.949219 10.390625 L 37.949219 9.375 L 37.558594 9.375 L 37.558594 10.351562 C 37.558594 11.640625 37.03125 12.402344 36.347656 12.402344 C 35.117188 12.402344 35.117188 10.742188 35.117188 10.429688 Z M 35.117188 5.410156 "/>
<path style=" stroke:none;fill-rule:nonzero;fill:rgb(0%,0%,0%);fill-opacity:1;" d="M 45.921875 7.832031 C 45.921875 6.855469 45.921875 6.152344 45.140625 5.449219 C 44.515625 4.863281 43.714844 4.628906 42.914062 4.628906 C 41.449219 4.628906 40.316406 5.585938 40.316406 6.757812 C 40.316406 7.265625 40.648438 7.519531 41.078125 7.519531 C 41.507812 7.519531 41.800781 7.226562 41.800781 6.796875 C 41.800781 6.054688 41.15625 6.054688 40.882812 6.054688 C 41.3125 5.292969 42.171875 4.980469 42.875 4.980469 C 43.714844 4.980469 44.769531 5.664062 44.769531 7.265625 L 44.769531 7.988281 C 41.15625 8.046875 39.789062 9.550781 39.789062 10.9375 C 39.789062 12.34375 41.449219 12.792969 42.542969 12.792969 C 43.714844 12.792969 44.535156 12.070312 44.867188 11.210938 C 44.945312 12.070312 45.492188 12.714844 46.273438 12.714844 C 46.644531 12.714844 47.679688 12.460938 47.679688 11.015625 L 47.679688 10.019531 L 47.289062 10.019531 L 47.289062 11.015625 C 47.289062 12.050781 46.859375 12.1875 46.605469 12.1875 C 45.921875 12.1875 45.921875 11.230469 45.921875 10.976562 Z M 44.769531 10.097656 C 44.769531 11.855469 43.460938 12.441406 42.679688 12.441406 C 41.800781 12.441406 41.078125 11.796875 41.078125 10.9375 C 41.078125 8.574219 44.125 8.359375 44.769531 8.320312 Z M 44.769531 10.097656 "/>
<path style=" stroke:none;fill-rule:nonzero;fill:rgb(0%,0%,0%);fill-opacity:1;" d="M 55.847656 8.261719 C 55.847656 6.601562 55.847656 6.09375 55.417969 5.507812 C 54.910156 4.824219 54.070312 4.707031 53.445312 4.707031 C 51.707031 4.707031 51.023438 6.191406 50.886719 6.5625 L 50.867188 6.5625 L 50.867188 4.707031 L 48.425781 4.902344 L 48.425781 5.429688 C 49.65625 5.429688 49.792969 5.546875 49.792969 6.425781 L 49.792969 11.289062 C 49.792969 12.089844 49.597656 12.089844 48.425781 12.089844 L 48.425781 12.617188 C 48.894531 12.578125 49.871094 12.578125 50.378906 12.578125 C 50.886719 12.578125 51.863281 12.578125 52.332031 12.617188 L 52.332031 12.089844 C 51.179688 12.089844 50.964844 12.089844 50.964844 11.289062 L 50.964844 7.949219 C 50.964844 6.074219 52.195312 5.078125 53.308594 5.078125 C 54.421875 5.078125 54.675781 5.976562 54.675781 7.070312 L 54.675781 11.289062 C 54.675781 12.089844 54.480469 12.089844 53.308594 12.089844 L 53.308594 12.617188 C 53.777344 12.578125 54.753906 12.578125 55.242188 12.578125 C 55.769531 12.578125 56.726562 12.578125 57.195312 12.617188 L 57.195312 12.089844 C 56.296875 12.089844 55.847656 12.089844 55.847656 11.5625 Z M 55.847656 8.261719 "/>
<path style=" stroke:none;fill-rule:nonzero;fill:rgb(0%,0%,0%);fill-opacity:1;" d="M 68.953125 5.292969 C 68.386719 5.410156 68.171875 5.839844 68.171875 6.171875 C 68.171875 6.601562 68.503906 6.757812 68.757812 6.757812 C 69.304688 6.757812 69.675781 6.289062 69.675781 5.800781 C 69.675781 5.058594 68.816406 4.707031 68.054688 4.707031 C 66.960938 4.707031 66.355469 5.78125 66.199219 6.132812 C 65.789062 4.785156 64.675781 4.707031 64.34375 4.707031 C 62.527344 4.707031 61.550781 7.050781 61.550781 7.460938 C 61.550781 7.519531 61.628906 7.617188 61.746094 7.617188 C 61.882812 7.617188 61.921875 7.5 61.960938 7.441406 C 62.566406 5.449219 63.777344 5.078125 64.285156 5.078125 C 65.105469 5.078125 65.261719 5.820312 65.261719 6.25 C 65.261719 6.640625 65.164062 7.050781 64.929688 7.910156 L 64.324219 10.371094 C 64.070312 11.445312 63.542969 12.441406 62.585938 12.441406 C 62.507812 12.441406 62.058594 12.441406 61.667969 12.207031 C 62.3125 12.070312 62.46875 11.542969 62.46875 11.328125 C 62.46875 10.976562 62.195312 10.761719 61.863281 10.761719 C 61.433594 10.761719 60.964844 11.132812 60.964844 11.699219 C 60.964844 12.460938 61.804688 12.792969 62.566406 12.792969 C 63.425781 12.792969 64.050781 12.109375 64.421875 11.386719 C 64.714844 12.441406 65.59375 12.792969 66.257812 12.792969 C 68.09375 12.792969 69.070312 10.449219 69.070312 10.058594 C 69.070312 9.960938 68.992188 9.882812 68.875 9.882812 C 68.71875 9.882812 68.699219 9.980469 68.660156 10.117188 C 68.171875 11.699219 67.117188 12.441406 66.316406 12.441406 C 65.691406 12.441406 65.359375 11.972656 65.359375 11.230469 C 65.359375 10.839844 65.417969 10.546875 65.710938 9.375 L 66.335938 6.933594 C 66.609375 5.859375 67.214844 5.078125 68.035156 5.078125 C 68.074219 5.078125 68.582031 5.078125 68.953125 5.292969 Z M 68.953125 5.292969 "/>
<path style=" stroke:none;fill-rule:nonzero;fill:rgb(0%,0%,0%);fill-opacity:1;" d="M 86.226562 8.496094 C 86.539062 8.496094 86.851562 8.496094 86.851562 8.144531 C 86.851562 7.773438 86.539062 7.773438 86.226562 7.773438 L 76.519531 7.773438 C 76.226562 7.773438 75.894531 7.773438 75.894531 8.144531 C 75.894531 8.496094 76.226562 8.496094 76.519531 8.496094 Z M 86.226562 8.496094 "/>
<path style=" stroke:none;fill-rule:nonzero;fill:rgb(0%,0%,0%);fill-opacity:1;" d="M 98.742188 5.976562 C 98.527344 5.976562 97.863281 5.976562 97.863281 6.71875 C 97.863281 7.148438 98.175781 7.460938 98.605469 7.460938 C 99.015625 7.460938 99.367188 7.207031 99.367188 6.679688 C 99.367188 5.488281 98.097656 4.628906 96.652344 4.628906 C 94.5625 4.628906 92.882812 6.484375 92.882812 8.75 C 92.882812 11.035156 94.601562 12.792969 96.632812 12.792969 C 98.996094 12.792969 99.542969 10.644531 99.542969 10.488281 C 99.542969 10.3125 99.40625 10.3125 99.367188 10.3125 C 99.191406 10.3125 99.171875 10.371094 99.132812 10.585938 C 98.722656 11.855469 97.765625 12.402344 96.789062 12.402344 C 95.695312 12.402344 94.25 11.445312 94.25 8.730469 C 94.25 5.742188 95.773438 5.019531 96.671875 5.019531 C 97.355469 5.019531 98.332031 5.292969 98.742188 5.976562 Z M 98.742188 5.976562 "/>
<path style=" stroke:none;fill-rule:nonzero;fill:rgb(0%,0%,0%);fill-opacity:1;" d="M 108.28125 8.789062 C 108.28125 6.464844 106.523438 4.628906 104.453125 4.628906 C 102.304688 4.628906 100.605469 6.523438 100.605469 8.789062 C 100.605469 11.074219 102.382812 12.792969 104.433594 12.792969 C 106.542969 12.792969 108.28125 11.035156 108.28125 8.789062 Z M 104.453125 12.402344 C 103.789062 12.402344 102.988281 12.109375 102.460938 11.230469 C 101.972656 10.429688 101.953125 9.375 101.953125 8.613281 C 101.953125 7.929688 101.953125 6.835938 102.519531 6.035156 C 103.007812 5.273438 103.808594 4.980469 104.433594 4.980469 C 105.136719 4.980469 105.878906 5.292969 106.367188 5.996094 C 106.933594 6.816406 106.933594 7.949219 106.933594 8.613281 C 106.933594 9.238281 106.933594 10.351562 106.464844 11.191406 C 105.957031 12.070312 105.136719 12.402344 104.453125 12.402344 Z M 104.453125 12.402344 "/>
<path style=" stroke:none;fill-rule:nonzero;fill:rgb(0%,0%,0%);fill-opacity:1;" d="M 111.917969 5.410156 L 114.457031 5.410156 L 114.457031 4.882812 L 111.917969 4.882812 L 111.917969 1.582031 L 111.527344 1.582031 C 111.507812 3.28125 110.863281 5 109.242188 5.058594 L 109.242188 5.410156 L 110.765625 5.410156 L 110.765625 10.390625 C 110.765625 12.382812 112.074219 12.792969 113.03125 12.792969 C 114.164062 12.792969 114.75 11.679688 114.75 10.390625 L 114.75 9.375 L 114.359375 9.375 L 114.359375 10.351562 C 114.359375 11.640625 113.832031 12.402344 113.148438 12.402344 C 111.917969 12.402344 111.917969 10.742188 111.917969 10.429688 Z M 111.917969 5.410156 "/>
<path style=" stroke:none;fill-rule:nonzero;fill:rgb(0%,0%,0%);fill-opacity:1;" d="M 127.15625 5.292969 C 126.589844 5.410156 126.375 5.839844 126.375 6.171875 C 126.375 6.601562 126.707031 6.757812 126.960938 6.757812 C 127.507812 6.757812 127.878906 6.289062 127.878906 5.800781 C 127.878906 5.058594 127.019531 4.707031 126.257812 4.707031 C 125.164062 4.707031 124.558594 5.78125 124.402344 6.132812 C 123.992188 4.785156 122.878906 4.707031 122.546875 4.707031 C 120.730469 4.707031 119.753906 7.050781 119.753906 7.460938 C 119.753906 7.519531 119.832031 7.617188 119.949219 7.617188 C 120.085938 7.617188 120.125 7.5 120.164062 7.441406 C 120.769531 5.449219 121.980469 5.078125 122.488281 5.078125 C 123.308594 5.078125 123.464844 5.820312 123.464844 6.25 C 123.464844 6.640625 123.367188 7.050781 123.132812 7.910156 L 122.527344 10.371094 C 122.273438 11.445312 121.746094 12.441406 120.789062 12.441406 C 120.710938 12.441406 120.261719 12.441406 119.871094 12.207031 C 120.515625 12.070312 120.671875 11.542969 120.671875 11.328125 C 120.671875 10.976562 120.398438 10.761719 120.066406 10.761719 C 119.636719 10.761719 119.167969 11.132812 119.167969 11.699219 C 119.167969 12.460938 120.007812 12.792969 120.769531 12.792969 C 121.628906 12.792969 122.253906 12.109375 122.625 11.386719 C 122.917969 12.441406 123.796875 12.792969 124.460938 12.792969 C 126.296875 12.792969 127.273438 10.449219 127.273438 10.058594 C 127.273438 9.960938 127.195312 9.882812 127.078125 9.882812 C 126.921875 9.882812 126.902344 9.980469 126.863281 10.117188 C 126.375 11.699219 125.320312 12.441406 124.519531 12.441406 C 123.894531 12.441406 123.5625 11.972656 123.5625 11.230469 C 123.5625 10.839844 123.621094 10.546875 123.914062 9.375 L 124.539062 6.933594 C 124.8125 5.859375 125.417969 5.078125 126.238281 5.078125 C 126.277344 5.078125 126.785156 5.078125 127.15625 5.292969 Z M 127.15625 5.292969 "/>
<path style=" stroke:none;fill-rule:nonzero;fill:rgb(0%,0%,0%);fill-opacity:1;" d="M 144.425781 8.496094 C 144.738281 8.496094 145.050781 8.496094 145.050781 8.144531 C 145.050781 7.773438 144.738281 7.773438 144.425781 7.773438 L 134.71875 7.773438 C 134.425781 7.773438 134.09375 7.773438 134.09375 8.144531 C 134.09375 8.496094 134.425781 8.496094 134.71875 8.496094 Z M 144.425781 8.496094 "/>
<path style=" stroke:none;fill-rule:nonzero;fill:rgb(0%,0%,0%);fill-opacity:1;" d="M 153.910156 6.171875 C 153.597656 6.191406 153.539062 6.210938 153.539062 6.386719 C 153.539062 6.5625 153.617188 6.5625 153.949219 6.5625 L 154.769531 6.5625 C 156.292969 6.5625 156.976562 7.8125 156.976562 9.53125 C 156.976562 11.875 155.746094 12.5 154.867188 12.5 C 154.007812 12.5 152.542969 12.089844 152.035156 10.917969 C 152.601562 10.996094 153.128906 10.683594 153.128906 10.039062 C 153.128906 9.511719 152.738281 9.160156 152.25 9.160156 C 151.820312 9.160156 151.351562 9.414062 151.351562 10.097656 C 151.351562 11.679688 152.933594 12.988281 154.925781 12.988281 C 157.054688 12.988281 158.636719 11.367188 158.636719 9.550781 C 158.636719 7.910156 157.308594 6.601562 155.589844 6.308594 C 157.152344 5.859375 158.148438 4.550781 158.148438 3.144531 C 158.148438 1.738281 156.683594 0.703125 154.945312 0.703125 C 153.148438 0.703125 151.820312 1.796875 151.820312 3.105469 C 151.820312 3.808594 152.386719 3.964844 152.660156 3.964844 C 153.03125 3.964844 153.460938 3.691406 153.460938 3.144531 C 153.460938 2.578125 153.03125 2.324219 152.640625 2.324219 C 152.523438 2.324219 152.484375 2.324219 152.445312 2.34375 C 153.128906 1.132812 154.808594 1.132812 154.886719 1.132812 C 155.492188 1.132812 156.644531 1.386719 156.644531 3.144531 C 156.644531 3.496094 156.605469 4.492188 156.078125 5.273438 C 155.53125 6.054688 154.925781 6.113281 154.4375 6.132812 Z M 153.910156 6.171875 "/>
<path style=" stroke:none;fill-rule:nonzero;fill:rgb(0%,0%,0%);fill-opacity:1;" d="M 167.953125 5.292969 C 167.386719 5.410156 167.171875 5.839844 167.171875 6.171875 C 167.171875 6.601562 167.503906 6.757812 167.757812 6.757812 C 168.304688 6.757812 168.675781 6.289062 168.675781 5.800781 C 168.675781 5.058594 167.816406 4.707031 167.054688 4.707031 C 165.960938 4.707031 165.355469 5.78125 165.199219 6.132812 C 164.789062 4.785156 163.675781 4.707031 163.34375 4.707031 C 161.527344 4.707031 160.550781 7.050781 160.550781 7.460938 C 160.550781 7.519531 160.628906 7.617188 160.746094 7.617188 C 160.882812 7.617188 160.921875 7.5 160.960938 7.441406 C 161.566406 5.449219 162.777344 5.078125 163.285156 5.078125 C 164.105469 5.078125 164.261719 5.820312 164.261719 6.25 C 164.261719 6.640625 164.164062 7.050781 163.929688 7.910156 L 163.324219 10.371094 C 163.070312 11.445312 162.542969 12.441406 161.585938 12.441406 C 161.507812 12.441406 161.058594 12.441406 160.667969 12.207031 C 161.3125 12.070312 161.46875 11.542969 161.46875 11.328125 C 161.46875 10.976562 161.195312 10.761719 160.863281 10.761719 C 160.433594 10.761719 159.964844 11.132812 159.964844 11.699219 C 159.964844 12.460938 160.804688 12.792969 161.566406 12.792969 C 162.425781 12.792969 163.050781 12.109375 163.421875 11.386719 C 163.714844 12.441406 164.59375 12.792969 165.257812 12.792969 C 167.09375 12.792969 168.070312 10.449219 168.070312 10.058594 C 168.070312 9.960938 167.992188 9.882812 167.875 9.882812 C 167.71875 9.882812 167.699219 9.980469 167.660156 10.117188 C 167.171875 11.699219 166.117188 12.441406 165.316406 12.441406 C 164.691406 12.441406 164.359375 11.972656 164.359375 11.230469 C 164.359375 10.839844 164.417969 10.546875 164.710938 9.375 L 165.335938 6.933594 C 165.609375 5.859375 166.214844 5.078125 167.035156 5.078125 C 167.074219 5.078125 167.582031 5.078125 167.953125 5.292969 Z M 167.953125 5.292969 "/>
<path style=" stroke:none;fill-rule:nonzero;fill:rgb(0%,0%,0%);fill-opacity:1;" d="M 180.558594 8.476562 L 185.519531 8.476562 C 185.773438 8.476562 186.085938 8.476562 186.085938 8.144531 C 186.085938 7.8125 185.773438 7.8125 185.519531 7.8125 L 180.558594 7.8125 L 180.558594 2.871094 C 180.558594 2.617188 180.558594 2.285156 180.246094 2.285156 C 179.894531 2.285156 179.894531 2.597656 179.894531 2.871094 L 179.894531 7.8125 L 174.953125 7.8125 C 174.699219 7.8125 174.386719 7.8125 174.386719 8.144531 C 174.386719 8.476562 174.679688 8.476562 174.953125 8.476562 L 179.894531 8.476562 L 179.894531 13.417969 C 179.894531 13.671875 179.894531 14.003906 180.226562 14.003906 C 180.558594 14.003906 180.558594 13.691406 180.558594 13.417969 Z M 180.558594 8.476562 "/>
<path style=" stroke:none;fill-rule:nonzero;fill:rgb(0%,0%,0%);fill-opacity:1;" d="M 204.355469 0.15625 C 204.355469 0 204.21875 0 204.179688 0 C 204.160156 0 204.082031 0 203.945312 0.175781 L 202.695312 1.679688 C 202.070312 0.605469 201.09375 0 199.746094 0 C 195.878906 0 191.855469 3.925781 191.855469 8.144531 C 191.855469 11.132812 193.945312 12.988281 196.5625 12.988281 C 198.007812 12.988281 199.257812 12.382812 200.292969 11.503906 C 201.855469 10.195312 202.324219 8.457031 202.324219 8.320312 C 202.324219 8.144531 202.1875 8.144531 202.128906 8.144531 C 201.972656 8.144531 201.953125 8.261719 201.914062 8.339844 C 201.09375 11.132812 198.671875 12.480469 196.875 12.480469 C 194.980469 12.480469 193.320312 11.25 193.320312 8.710938 C 193.320312 8.144531 193.496094 5.019531 195.527344 2.675781 C 196.523438 1.523438 198.203125 0.507812 199.902344 0.507812 C 201.875 0.507812 202.753906 2.148438 202.753906 3.984375 C 202.753906 4.433594 202.695312 4.84375 202.695312 4.902344 C 202.695312 5.078125 202.871094 5.078125 202.929688 5.078125 C 203.125 5.078125 203.144531 5.058594 203.222656 4.726562 Z M 204.355469 0.15625 "/>
</g>
</svg>
