<?xml version="1.0" encoding="UTF-8"?>
<svg xmlns="http://www.w3.org/2000/svg" xmlns:xlink="http://www.w3.org/1999/xlink" width="310.79507pt" height="102.58633pt" viewBox="0 0 310.79507 102.58633" version="1.1">
<g id="surface1">
<path style=" stroke:none;fill-rule:nonzero;fill:rgb(0%,0%,0%);fill-opacity:1;" d="M 6.914062 0.839844 L 4.824219 1.015625 L 4.824219 1.445312 C 5.839844 1.445312 5.957031 1.542969 5.957031 2.285156 L 5.957031 10.097656 C 5.957031 10.78125 5.800781 10.78125 4.824219 10.78125 L 4.824219 11.210938 C 5.253906 11.171875 5.976562 11.171875 6.425781 11.171875 C 6.875 11.171875 7.617188 11.171875 8.046875 11.210938 L 8.046875 10.78125 C 7.089844 10.78125 6.914062 10.78125 6.914062 10.097656 Z M 6.914062 0.839844 "/>
<path style=" stroke:none;fill-rule:nonzero;fill:rgb(0%,0%,0%);fill-opacity:1;" d="M 10.984375 2.011719 C 10.984375 1.621094 10.671875 1.269531 10.261719 1.269531 C 9.871094 1.269531 9.539062 1.582031 9.539062 1.992188 C 9.539062 2.441406 9.890625 2.714844 10.261719 2.714844 C 10.710938 2.714844 10.984375 2.34375 10.984375 2.011719 Z M 8.933594 4.785156 L 8.933594 5.214844 C 9.871094 5.214844 10.007812 5.3125 10.007812 6.035156 L 10.007812 10.097656 C 10.007812 10.78125 9.851562 10.78125 8.875 10.78125 L 8.875 11.210938 C 9.304688 11.171875 10.007812 11.171875 10.457031 11.171875 C 10.613281 11.171875 11.472656 11.171875 11.980469 11.210938 L 11.980469 10.78125 C 11.023438 10.78125 10.964844 10.703125 10.964844 10.117188 L 10.964844 4.628906 Z M 8.933594 4.785156 "/>
<path style=" stroke:none;fill-rule:nonzero;fill:rgb(0%,0%,0%);fill-opacity:1;" d="M 23.160156 7.578125 C 23.160156 6.191406 23.160156 5.78125 22.808594 5.292969 C 22.378906 4.707031 21.675781 4.628906 21.167969 4.628906 C 19.917969 4.628906 19.292969 5.527344 19.058594 6.09375 C 18.84375 4.941406 18.042969 4.628906 17.105469 4.628906 C 15.640625 4.628906 15.074219 5.859375 14.957031 6.152344 L 14.957031 4.628906 L 12.90625 4.785156 L 12.90625 5.214844 C 13.921875 5.214844 14.058594 5.332031 14.058594 6.054688 L 14.058594 10.097656 C 14.058594 10.78125 13.882812 10.78125 12.90625 10.78125 L 12.90625 11.210938 C 13.296875 11.171875 14.117188 11.171875 14.527344 11.171875 C 14.957031 11.171875 15.777344 11.171875 16.148438 11.210938 L 16.148438 10.78125 C 15.210938 10.78125 15.015625 10.78125 15.015625 10.097656 L 15.015625 7.324219 C 15.015625 5.761719 16.050781 4.921875 16.988281 4.921875 C 17.90625 4.921875 18.121094 5.683594 18.121094 6.601562 L 18.121094 10.097656 C 18.121094 10.78125 17.945312 10.78125 16.988281 10.78125 L 16.988281 11.210938 C 17.359375 11.171875 18.179688 11.171875 18.589844 11.171875 C 19.019531 11.171875 19.839844 11.171875 20.230469 11.210938 L 20.230469 10.78125 C 19.273438 10.78125 19.078125 10.78125 19.078125 10.097656 L 19.078125 7.324219 C 19.078125 5.761719 20.113281 4.921875 21.050781 4.921875 C 21.96875 4.921875 22.183594 5.683594 22.183594 6.601562 L 22.183594 10.097656 C 22.183594 10.78125 22.007812 10.78125 21.050781 10.78125 L 21.050781 11.210938 C 21.441406 11.171875 22.242188 11.171875 22.652344 11.171875 C 23.082031 11.171875 23.902344 11.171875 24.292969 11.210938 L 24.292969 10.78125 C 23.53125 10.78125 23.160156 10.78125 23.160156 10.332031 Z M 23.160156 7.578125 "/>
<path style=" stroke:none;fill-rule:nonzero;fill:rgb(0%,0%,0%);fill-opacity:1;" d="M 4.6875 17.296875 C 4.238281 17.394531 4.21875 17.785156 4.21875 17.824219 C 4.21875 18.039062 4.394531 18.195312 4.609375 18.195312 C 4.824219 18.195312 5.15625 18.019531 5.15625 17.589844 C 5.15625 17.023438 4.53125 16.867188 4.160156 16.867188 C 3.710938 16.867188 3.320312 17.199219 3.085938 17.589844 C 2.871094 17.0625 2.363281 16.867188 1.953125 16.867188 C 0.859375 16.867188 0.253906 18.117188 0.253906 18.390625 C 0.253906 18.488281 0.332031 18.527344 0.410156 18.527344 C 0.527344 18.527344 0.546875 18.46875 0.566406 18.351562 C 0.800781 17.628906 1.40625 17.140625 1.914062 17.140625 C 2.304688 17.140625 2.5 17.433594 2.5 17.785156 C 2.5 17.980469 2.382812 18.449219 2.304688 18.761719 C 2.226562 19.054688 2.011719 19.933594 1.953125 20.128906 C 1.816406 20.65625 1.464844 21.085938 1.015625 21.085938 C 0.976562 21.085938 0.722656 21.085938 0.507812 20.949219 C 0.957031 20.832031 0.957031 20.421875 0.957031 20.402344 C 0.957031 20.167969 0.78125 20.03125 0.566406 20.03125 C 0.292969 20.03125 0 20.265625 0 20.636719 C 0 21.105469 0.488281 21.359375 0.996094 21.359375 C 1.523438 21.359375 1.894531 20.96875 2.070312 20.636719 C 2.304688 21.125 2.753906 21.359375 3.242188 21.359375 C 4.316406 21.359375 4.921875 20.109375 4.921875 19.835938 C 4.921875 19.738281 4.84375 19.699219 4.765625 19.699219 C 4.648438 19.699219 4.628906 19.777344 4.589844 19.875 C 4.394531 20.539062 3.828125 21.085938 3.261719 21.085938 C 2.929688 21.085938 2.695312 20.871094 2.695312 20.441406 C 2.695312 20.246094 2.753906 20.011719 2.890625 19.464844 C 2.949219 19.152344 3.164062 18.292969 3.222656 18.097656 C 3.359375 17.570312 3.710938 17.140625 4.160156 17.140625 C 4.21875 17.140625 4.472656 17.140625 4.6875 17.296875 Z M 4.6875 17.296875 "/>
<path style=" stroke:none;fill-rule:nonzero;fill:rgb(0%,0%,0%);fill-opacity:1;" d="M 14.378906 18.996094 C 14.046875 19.25 13.734375 19.5625 13.5 19.933594 C 13.070312 20.578125 12.953125 21.203125 12.953125 21.242188 C 12.953125 21.398438 13.089844 21.398438 13.1875 21.398438 C 13.304688 21.398438 13.382812 21.398438 13.421875 21.28125 C 13.675781 20.167969 14.320312 19.328125 15.511719 18.917969 C 15.589844 18.898438 15.6875 18.878906 15.6875 18.78125 C 15.6875 18.664062 15.589844 18.644531 15.550781 18.625 C 14.222656 18.175781 13.636719 17.238281 13.441406 16.378906 C 13.382812 16.164062 13.382812 16.144531 13.1875 16.144531 C 13.089844 16.144531 12.953125 16.144531 12.953125 16.300781 C 12.953125 16.320312 13.050781 16.964844 13.5 17.628906 C 13.792969 18.039062 14.125 18.351562 14.378906 18.546875 L 6.644531 18.546875 C 6.488281 18.546875 6.273438 18.546875 6.273438 18.78125 C 6.273438 18.996094 6.488281 18.996094 6.644531 18.996094 Z M 14.378906 18.996094 "/>
<path style=" stroke:none;fill-rule:nonzero;fill:rgb(0%,0%,0%);fill-opacity:1;" d="M 19.148438 19.230469 C 19.304688 19.074219 19.714844 18.742188 19.890625 18.605469 C 20.496094 18.039062 21.082031 17.492188 21.082031 16.59375 C 21.082031 15.402344 20.085938 14.640625 18.855469 14.640625 C 17.644531 14.640625 16.863281 15.539062 16.863281 16.4375 C 16.863281 16.925781 17.253906 16.984375 17.390625 16.984375 C 17.605469 16.984375 17.917969 16.847656 17.917969 16.457031 C 17.917969 15.949219 17.410156 15.949219 17.292969 15.949219 C 17.585938 15.207031 18.25 14.972656 18.738281 14.972656 C 19.65625 14.972656 20.144531 15.753906 20.144531 16.59375 C 20.144531 17.628906 19.421875 18.390625 18.230469 19.582031 L 16.980469 20.890625 C 16.863281 20.988281 16.863281 21.007812 16.863281 21.261719 L 20.789062 21.261719 L 21.082031 19.484375 L 20.769531 19.484375 C 20.75 19.679688 20.671875 20.167969 20.554688 20.363281 C 20.496094 20.441406 19.734375 20.441406 19.578125 20.441406 L 17.800781 20.441406 Z M 19.148438 19.230469 "/>
<path style=" stroke:none;fill-rule:nonzero;fill:rgb(0%,0%,0%);fill-opacity:1;" d="M 27.542969 16.882812 C 27.660156 16.882812 27.855469 16.882812 27.855469 16.6875 C 27.855469 16.492188 27.660156 16.492188 27.542969 16.492188 L 22.835938 16.492188 C 22.699219 16.492188 22.523438 16.492188 22.523438 16.6875 C 22.523438 16.882812 22.699219 16.882812 22.835938 16.882812 Z M 27.542969 16.882812 "/>
<path style=" stroke:none;fill-rule:nonzero;fill:rgb(0%,0%,0%);fill-opacity:1;" d="M 38.597656 5.195312 C 38.890625 5.195312 39.027344 5.195312 39.027344 4.921875 C 39.027344 4.765625 38.890625 4.765625 38.636719 4.765625 L 37.425781 4.765625 C 37.699219 3.222656 37.914062 2.167969 38.03125 1.699219 C 38.128906 1.328125 38.441406 0.996094 38.832031 0.996094 C 39.144531 0.996094 39.457031 1.132812 39.59375 1.269531 C 39.027344 1.328125 38.832031 1.757812 38.832031 2.011719 C 38.832031 2.304688 39.066406 2.480469 39.339844 2.480469 C 39.652344 2.480469 40.101562 2.226562 40.101562 1.660156 C 40.101562 1.035156 39.476562 0.683594 38.8125 0.683594 C 38.167969 0.683594 37.542969 1.171875 37.25 1.757812 C 36.976562 2.285156 36.820312 2.8125 36.488281 4.765625 L 35.472656 4.765625 C 35.199219 4.765625 35.042969 4.765625 35.042969 5.039062 C 35.042969 5.195312 35.140625 5.195312 35.433594 5.195312 L 36.390625 5.195312 C 36.117188 6.601562 35.511719 9.980469 35.160156 11.5625 C 34.90625 12.871094 34.691406 13.964844 33.949219 13.964844 C 33.890625 13.964844 33.460938 13.964844 33.1875 13.671875 C 33.949219 13.613281 33.949219 12.96875 33.949219 12.949219 C 33.949219 12.636719 33.734375 12.460938 33.441406 12.460938 C 33.148438 12.460938 32.699219 12.714844 32.699219 13.28125 C 32.699219 13.925781 33.363281 14.257812 33.949219 14.257812 C 35.472656 14.257812 36.097656 11.523438 36.253906 10.78125 C 36.527344 9.628906 37.25 5.644531 37.328125 5.195312 Z M 38.597656 5.195312 "/>
<path style=" stroke:none;fill-rule:nonzero;fill:rgb(0%,0%,0%);fill-opacity:1;" d="M 45.652344 14.84375 C 45.652344 14.804688 45.652344 14.765625 45.398438 14.511719 C 43.894531 13.007812 43.054688 10.546875 43.054688 7.5 C 43.054688 4.589844 43.757812 2.089844 45.496094 0.332031 C 45.652344 0.195312 45.652344 0.175781 45.652344 0.117188 C 45.652344 0.0390625 45.574219 0 45.515625 0 C 45.320312 0 44.089844 1.074219 43.367188 2.539062 C 42.605469 4.0625 42.253906 5.644531 42.253906 7.5 C 42.253906 8.828125 42.46875 10.605469 43.230469 12.1875 C 44.128906 13.984375 45.339844 14.960938 45.515625 14.960938 C 45.574219 14.960938 45.652344 14.921875 45.652344 14.84375 Z M 45.652344 14.84375 "/>
<path style=" stroke:none;fill-rule:nonzero;fill:rgb(0%,0%,0%);fill-opacity:1;" d="M 53.578125 5.117188 C 53.089844 5.195312 52.914062 5.566406 52.914062 5.839844 C 52.914062 6.210938 53.1875 6.328125 53.402344 6.328125 C 53.851562 6.328125 54.164062 5.9375 54.164062 5.527344 C 54.164062 4.902344 53.441406 4.628906 52.816406 4.628906 C 51.917969 4.628906 51.410156 5.527344 51.273438 5.800781 C 50.921875 4.6875 50.003906 4.628906 49.730469 4.628906 C 48.207031 4.628906 47.40625 6.582031 47.40625 6.914062 C 47.40625 6.972656 47.464844 7.050781 47.5625 7.050781 C 47.679688 7.050781 47.71875 6.953125 47.738281 6.894531 C 48.246094 5.234375 49.261719 4.921875 49.691406 4.921875 C 50.355469 4.921875 50.492188 5.546875 50.492188 5.898438 C 50.492188 6.230469 50.394531 6.582031 50.21875 7.304688 L 49.710938 9.335938 C 49.496094 10.234375 49.066406 11.054688 48.265625 11.054688 C 48.1875 11.054688 47.816406 11.054688 47.503906 10.859375 C 48.050781 10.761719 48.167969 10.3125 48.167969 10.136719 C 48.167969 9.84375 47.933594 9.648438 47.660156 9.648438 C 47.289062 9.648438 46.898438 9.980469 46.898438 10.449219 C 46.898438 11.074219 47.601562 11.367188 48.246094 11.367188 C 48.96875 11.367188 49.476562 10.800781 49.789062 10.175781 C 50.023438 11.054688 50.785156 11.367188 51.332031 11.367188 C 52.855469 11.367188 53.65625 9.394531 53.65625 9.082031 C 53.65625 9.003906 53.597656 8.945312 53.519531 8.945312 C 53.382812 8.945312 53.363281 9.023438 53.324219 9.140625 C 52.914062 10.449219 52.054688 11.054688 51.371094 11.054688 C 50.84375 11.054688 50.570312 10.664062 50.570312 10.058594 C 50.570312 9.726562 50.628906 9.492188 50.863281 8.515625 L 51.390625 6.464844 C 51.605469 5.585938 52.113281 4.921875 52.816406 4.921875 C 52.835938 4.921875 53.265625 4.921875 53.578125 5.117188 Z M 53.578125 5.117188 "/>
<path style=" stroke:none;fill-rule:nonzero;fill:rgb(0%,0%,0%);fill-opacity:1;" d="M 58.957031 7.5 C 58.957031 6.347656 58.800781 4.511719 57.960938 2.773438 C 57.082031 0.976562 55.851562 0 55.695312 0 C 55.636719 0 55.558594 0.0390625 55.558594 0.117188 C 55.558594 0.175781 55.558594 0.195312 55.8125 0.449219 C 57.316406 1.953125 58.136719 4.433594 58.136719 7.480469 C 58.136719 10.371094 57.433594 12.871094 55.714844 14.628906 C 55.558594 14.765625 55.558594 14.804688 55.558594 14.84375 C 55.558594 14.921875 55.636719 14.960938 55.695312 14.960938 C 55.890625 14.960938 57.121094 13.886719 57.84375 12.421875 C 58.605469 10.898438 58.957031 9.277344 58.957031 7.5 Z M 58.957031 7.5 "/>
<path style=" stroke:none;fill-rule:nonzero;fill:rgb(0%,0%,0%);fill-opacity:1;" d="M 74.566406 6.367188 C 74.78125 6.367188 75.054688 6.367188 75.054688 6.09375 C 75.054688 5.820312 74.800781 5.820312 74.566406 5.820312 L 65.777344 5.820312 C 65.5625 5.820312 65.289062 5.820312 65.289062 6.09375 C 65.289062 6.367188 65.542969 6.367188 65.777344 6.367188 Z M 74.566406 9.140625 C 74.78125 9.140625 75.054688 9.140625 75.054688 8.886719 C 75.054688 8.59375 74.800781 8.59375 74.566406 8.59375 L 65.777344 8.59375 C 65.5625 8.59375 65.289062 8.59375 65.289062 8.867188 C 65.289062 9.140625 65.542969 9.140625 65.777344 9.140625 Z M 74.566406 9.140625 "/>
<path style=" stroke:none;fill-rule:nonzero;fill:rgb(0%,0%,0%);fill-opacity:1;" d="M 87.316406 0.839844 L 85.226562 1.015625 L 85.226562 1.445312 C 86.242188 1.445312 86.359375 1.542969 86.359375 2.285156 L 86.359375 10.097656 C 86.359375 10.78125 86.203125 10.78125 85.226562 10.78125 L 85.226562 11.210938 C 85.65625 11.171875 86.378906 11.171875 86.828125 11.171875 C 87.277344 11.171875 88.019531 11.171875 88.449219 11.210938 L 88.449219 10.78125 C 87.492188 10.78125 87.316406 10.78125 87.316406 10.097656 Z M 87.316406 0.839844 "/>
<path style=" stroke:none;fill-rule:nonzero;fill:rgb(0%,0%,0%);fill-opacity:1;" d="M 91.386719 2.011719 C 91.386719 1.621094 91.074219 1.269531 90.664062 1.269531 C 90.273438 1.269531 89.941406 1.582031 89.941406 1.992188 C 89.941406 2.441406 90.292969 2.714844 90.664062 2.714844 C 91.113281 2.714844 91.386719 2.34375 91.386719 2.011719 Z M 89.335938 4.785156 L 89.335938 5.214844 C 90.273438 5.214844 90.410156 5.3125 90.410156 6.035156 L 90.410156 10.097656 C 90.410156 10.78125 90.253906 10.78125 89.277344 10.78125 L 89.277344 11.210938 C 89.707031 11.171875 90.410156 11.171875 90.859375 11.171875 C 91.015625 11.171875 91.875 11.171875 92.382812 11.210938 L 92.382812 10.78125 C 91.425781 10.78125 91.367188 10.703125 91.367188 10.117188 L 91.367188 4.628906 Z M 89.335938 4.785156 "/>
<path style=" stroke:none;fill-rule:nonzero;fill:rgb(0%,0%,0%);fill-opacity:1;" d="M 103.558594 7.578125 C 103.558594 6.191406 103.558594 5.78125 103.207031 5.292969 C 102.777344 4.707031 102.074219 4.628906 101.566406 4.628906 C 100.316406 4.628906 99.691406 5.527344 99.457031 6.09375 C 99.242188 4.941406 98.441406 4.628906 97.503906 4.628906 C 96.039062 4.628906 95.472656 5.859375 95.355469 6.152344 L 95.355469 4.628906 L 93.304688 4.785156 L 93.304688 5.214844 C 94.320312 5.214844 94.457031 5.332031 94.457031 6.054688 L 94.457031 10.097656 C 94.457031 10.78125 94.28125 10.78125 93.304688 10.78125 L 93.304688 11.210938 C 93.695312 11.171875 94.515625 11.171875 94.925781 11.171875 C 95.355469 11.171875 96.175781 11.171875 96.546875 11.210938 L 96.546875 10.78125 C 95.609375 10.78125 95.414062 10.78125 95.414062 10.097656 L 95.414062 7.324219 C 95.414062 5.761719 96.449219 4.921875 97.386719 4.921875 C 98.304688 4.921875 98.519531 5.683594 98.519531 6.601562 L 98.519531 10.097656 C 98.519531 10.78125 98.34375 10.78125 97.386719 10.78125 L 97.386719 11.210938 C 97.757812 11.171875 98.578125 11.171875 98.988281 11.171875 C 99.417969 11.171875 100.238281 11.171875 100.628906 11.210938 L 100.628906 10.78125 C 99.671875 10.78125 99.476562 10.78125 99.476562 10.097656 L 99.476562 7.324219 C 99.476562 5.761719 100.511719 4.921875 101.449219 4.921875 C 102.367188 4.921875 102.582031 5.683594 102.582031 6.601562 L 102.582031 10.097656 C 102.582031 10.78125 102.40625 10.78125 101.449219 10.78125 L 101.449219 11.210938 C 101.839844 11.171875 102.640625 11.171875 103.050781 11.171875 C 103.480469 11.171875 104.300781 11.171875 104.691406 11.210938 L 104.691406 10.78125 C 103.929688 10.78125 103.558594 10.78125 103.558594 10.332031 Z M 103.558594 7.578125 "/>
<path style=" stroke:none;fill-rule:nonzero;fill:rgb(0%,0%,0%);fill-opacity:1;" d="M 85.085938 17.296875 C 84.636719 17.394531 84.617188 17.785156 84.617188 17.824219 C 84.617188 18.039062 84.792969 18.195312 85.007812 18.195312 C 85.222656 18.195312 85.554688 18.019531 85.554688 17.589844 C 85.554688 17.023438 84.929688 16.867188 84.558594 16.867188 C 84.109375 16.867188 83.71875 17.199219 83.484375 17.589844 C 83.269531 17.0625 82.761719 16.867188 82.351562 16.867188 C 81.257812 16.867188 80.652344 18.117188 80.652344 18.390625 C 80.652344 18.488281 80.730469 18.527344 80.808594 18.527344 C 80.925781 18.527344 80.945312 18.46875 80.964844 18.351562 C 81.199219 17.628906 81.804688 17.140625 82.3125 17.140625 C 82.703125 17.140625 82.898438 17.433594 82.898438 17.785156 C 82.898438 17.980469 82.78125 18.449219 82.703125 18.761719 C 82.625 19.054688 82.410156 19.933594 82.351562 20.128906 C 82.214844 20.65625 81.863281 21.085938 81.414062 21.085938 C 81.375 21.085938 81.121094 21.085938 80.90625 20.949219 C 81.355469 20.832031 81.355469 20.421875 81.355469 20.402344 C 81.355469 20.167969 81.179688 20.03125 80.964844 20.03125 C 80.691406 20.03125 80.398438 20.265625 80.398438 20.636719 C 80.398438 21.105469 80.886719 21.359375 81.394531 21.359375 C 81.921875 21.359375 82.292969 20.96875 82.46875 20.636719 C 82.703125 21.125 83.152344 21.359375 83.640625 21.359375 C 84.714844 21.359375 85.320312 20.109375 85.320312 19.835938 C 85.320312 19.738281 85.242188 19.699219 85.164062 19.699219 C 85.046875 19.699219 85.027344 19.777344 84.988281 19.875 C 84.792969 20.539062 84.226562 21.085938 83.660156 21.085938 C 83.328125 21.085938 83.09375 20.871094 83.09375 20.441406 C 83.09375 20.246094 83.152344 20.011719 83.289062 19.464844 C 83.347656 19.152344 83.5625 18.292969 83.621094 18.097656 C 83.757812 17.570312 84.109375 17.140625 84.558594 17.140625 C 84.617188 17.140625 84.871094 17.140625 85.085938 17.296875 Z M 85.085938 17.296875 "/>
<path style=" stroke:none;fill-rule:nonzero;fill:rgb(0%,0%,0%);fill-opacity:1;" d="M 94.777344 18.996094 C 94.445312 19.25 94.132812 19.5625 93.898438 19.933594 C 93.46875 20.578125 93.351562 21.203125 93.351562 21.242188 C 93.351562 21.398438 93.488281 21.398438 93.585938 21.398438 C 93.703125 21.398438 93.78125 21.398438 93.820312 21.28125 C 94.074219 20.167969 94.71875 19.328125 95.910156 18.917969 C 95.988281 18.898438 96.085938 18.878906 96.085938 18.78125 C 96.085938 18.664062 95.988281 18.644531 95.949219 18.625 C 94.621094 18.175781 94.035156 17.238281 93.839844 16.378906 C 93.78125 16.164062 93.78125 16.144531 93.585938 16.144531 C 93.488281 16.144531 93.351562 16.144531 93.351562 16.300781 C 93.351562 16.320312 93.449219 16.964844 93.898438 17.628906 C 94.191406 18.039062 94.523438 18.351562 94.777344 18.546875 L 87.042969 18.546875 C 86.886719 18.546875 86.671875 18.546875 86.671875 18.78125 C 86.671875 18.996094 86.886719 18.996094 87.042969 18.996094 Z M 94.777344 18.996094 "/>
<path style=" stroke:none;fill-rule:nonzero;fill:rgb(0%,0%,0%);fill-opacity:1;" d="M 99.550781 19.230469 C 99.707031 19.074219 100.117188 18.742188 100.292969 18.605469 C 100.898438 18.039062 101.484375 17.492188 101.484375 16.59375 C 101.484375 15.402344 100.488281 14.640625 99.257812 14.640625 C 98.046875 14.640625 97.265625 15.539062 97.265625 16.4375 C 97.265625 16.925781 97.65625 16.984375 97.792969 16.984375 C 98.007812 16.984375 98.320312 16.847656 98.320312 16.457031 C 98.320312 15.949219 97.8125 15.949219 97.695312 15.949219 C 97.988281 15.207031 98.652344 14.972656 99.140625 14.972656 C 100.058594 14.972656 100.546875 15.753906 100.546875 16.59375 C 100.546875 17.628906 99.824219 18.390625 98.632812 19.582031 L 97.382812 20.890625 C 97.265625 20.988281 97.265625 21.007812 97.265625 21.261719 L 101.191406 21.261719 L 101.484375 19.484375 L 101.171875 19.484375 C 101.152344 19.679688 101.074219 20.167969 100.957031 20.363281 C 100.898438 20.441406 100.136719 20.441406 99.980469 20.441406 L 98.203125 20.441406 Z M 99.550781 19.230469 "/>
<path style=" stroke:none;fill-rule:nonzero;fill:rgb(0%,0%,0%);fill-opacity:1;" d="M 107.945312 16.882812 C 108.0625 16.882812 108.257812 16.882812 108.257812 16.6875 C 108.257812 16.492188 108.0625 16.492188 107.945312 16.492188 L 103.238281 16.492188 C 103.101562 16.492188 102.925781 16.492188 102.925781 16.6875 C 102.925781 16.882812 103.101562 16.882812 103.238281 16.882812 Z M 107.945312 16.882812 "/>
<path style=" stroke:none;fill-rule:nonzero;fill:rgb(0%,0%,0%);fill-opacity:1;" d="M 114.5 14.84375 C 114.5 14.804688 114.5 14.765625 114.246094 14.511719 C 112.742188 13.007812 111.902344 10.546875 111.902344 7.5 C 111.902344 4.589844 112.605469 2.089844 114.34375 0.332031 C 114.5 0.195312 114.5 0.175781 114.5 0.117188 C 114.5 0.0390625 114.421875 0 114.363281 0 C 114.167969 0 112.9375 1.074219 112.214844 2.539062 C 111.453125 4.0625 111.101562 5.644531 111.101562 7.5 C 111.101562 8.828125 111.316406 10.605469 112.078125 12.1875 C 112.976562 13.984375 114.1875 14.960938 114.363281 14.960938 C 114.421875 14.960938 114.5 14.921875 114.5 14.84375 Z M 114.5 14.84375 "/>
<path style=" stroke:none;fill-rule:nonzero;fill:rgb(0%,0%,0%);fill-opacity:1;" d="M 118.089844 5.839844 C 117.835938 5.859375 117.777344 5.878906 117.777344 6.015625 C 117.777344 6.152344 117.855469 6.152344 118.109375 6.152344 L 118.792969 6.152344 C 120.082031 6.152344 120.648438 7.207031 120.648438 8.632812 C 120.648438 10.605469 119.632812 11.113281 118.890625 11.113281 C 118.167969 11.113281 116.957031 10.78125 116.507812 9.785156 C 116.996094 9.863281 117.425781 9.589844 117.425781 9.0625 C 117.425781 8.632812 117.113281 8.320312 116.703125 8.320312 C 116.332031 8.320312 115.941406 8.535156 115.941406 9.101562 C 115.941406 10.429688 117.269531 11.523438 118.929688 11.523438 C 120.707031 11.523438 122.035156 10.15625 122.035156 8.652344 C 122.035156 7.285156 120.921875 6.210938 119.496094 5.957031 C 120.785156 5.585938 121.625 4.492188 121.625 3.320312 C 121.625 2.148438 120.394531 1.269531 118.949219 1.269531 C 117.464844 1.269531 116.351562 2.1875 116.351562 3.28125 C 116.351562 3.867188 116.820312 4.003906 117.035156 4.003906 C 117.347656 4.003906 117.71875 3.769531 117.71875 3.320312 C 117.71875 2.851562 117.347656 2.636719 117.015625 2.636719 C 116.9375 2.636719 116.898438 2.636719 116.859375 2.65625 C 117.425781 1.640625 118.832031 1.640625 118.910156 1.640625 C 119.398438 1.640625 120.375 1.855469 120.375 3.320312 C 120.375 3.613281 120.335938 4.433594 119.886719 5.078125 C 119.4375 5.742188 118.929688 5.78125 118.539062 5.800781 Z M 118.089844 5.839844 "/>
<path style=" stroke:none;fill-rule:nonzero;fill:rgb(0%,0%,0%);fill-opacity:1;" d="M 129.777344 5.117188 C 129.289062 5.195312 129.113281 5.566406 129.113281 5.839844 C 129.113281 6.210938 129.386719 6.328125 129.601562 6.328125 C 130.050781 6.328125 130.363281 5.9375 130.363281 5.527344 C 130.363281 4.902344 129.640625 4.628906 129.015625 4.628906 C 128.117188 4.628906 127.609375 5.527344 127.472656 5.800781 C 127.121094 4.6875 126.203125 4.628906 125.929688 4.628906 C 124.40625 4.628906 123.605469 6.582031 123.605469 6.914062 C 123.605469 6.972656 123.664062 7.050781 123.761719 7.050781 C 123.878906 7.050781 123.917969 6.953125 123.9375 6.894531 C 124.445312 5.234375 125.460938 4.921875 125.890625 4.921875 C 126.554688 4.921875 126.691406 5.546875 126.691406 5.898438 C 126.691406 6.230469 126.59375 6.582031 126.417969 7.304688 L 125.910156 9.335938 C 125.695312 10.234375 125.265625 11.054688 124.464844 11.054688 C 124.386719 11.054688 124.015625 11.054688 123.703125 10.859375 C 124.25 10.761719 124.367188 10.3125 124.367188 10.136719 C 124.367188 9.84375 124.132812 9.648438 123.859375 9.648438 C 123.488281 9.648438 123.097656 9.980469 123.097656 10.449219 C 123.097656 11.074219 123.800781 11.367188 124.445312 11.367188 C 125.167969 11.367188 125.675781 10.800781 125.988281 10.175781 C 126.222656 11.054688 126.984375 11.367188 127.53125 11.367188 C 129.054688 11.367188 129.855469 9.394531 129.855469 9.082031 C 129.855469 9.003906 129.796875 8.945312 129.71875 8.945312 C 129.582031 8.945312 129.5625 9.023438 129.523438 9.140625 C 129.113281 10.449219 128.253906 11.054688 127.570312 11.054688 C 127.042969 11.054688 126.769531 10.664062 126.769531 10.058594 C 126.769531 9.726562 126.828125 9.492188 127.0625 8.515625 L 127.589844 6.464844 C 127.804688 5.585938 128.3125 4.921875 129.015625 4.921875 C 129.035156 4.921875 129.464844 4.921875 129.777344 5.117188 Z M 129.777344 5.117188 "/>
<path style=" stroke:none;fill-rule:nonzero;fill:rgb(0%,0%,0%);fill-opacity:1;" d="M 144.230469 7.773438 C 144.484375 7.773438 144.757812 7.773438 144.757812 7.480469 C 144.757812 7.167969 144.484375 7.167969 144.230469 7.167969 L 136.144531 7.167969 C 135.890625 7.167969 135.617188 7.167969 135.617188 7.480469 C 135.617188 7.773438 135.890625 7.773438 136.144531 7.773438 Z M 144.230469 7.773438 "/>
<path style=" stroke:none;fill-rule:nonzero;fill:rgb(0%,0%,0%);fill-opacity:1;" d="M 153.535156 1.640625 C 153.535156 1.289062 153.535156 1.269531 153.242188 1.269531 C 152.890625 1.679688 152.128906 2.226562 150.605469 2.226562 L 150.605469 2.65625 C 150.9375 2.65625 151.679688 2.65625 152.519531 2.285156 L 152.519531 10.058594 C 152.519531 10.605469 152.460938 10.78125 151.152344 10.78125 L 150.683594 10.78125 L 150.683594 11.210938 C 151.09375 11.171875 152.539062 11.171875 153.027344 11.171875 C 153.535156 11.171875 154.960938 11.171875 155.371094 11.210938 L 155.371094 10.78125 L 154.902344 10.78125 C 153.59375 10.78125 153.535156 10.605469 153.535156 10.058594 Z M 153.535156 1.640625 "/>
<path style=" stroke:none;fill-rule:nonzero;fill:rgb(0%,0%,0%);fill-opacity:1;" d="M 160.804688 7.5 C 160.804688 6.347656 160.648438 4.511719 159.808594 2.773438 C 158.929688 0.976562 157.699219 0 157.542969 0 C 157.484375 0 157.40625 0.0390625 157.40625 0.117188 C 157.40625 0.175781 157.40625 0.195312 157.660156 0.449219 C 159.164062 1.953125 159.984375 4.433594 159.984375 7.480469 C 159.984375 10.371094 159.28125 12.871094 157.5625 14.628906 C 157.40625 14.765625 157.40625 14.804688 157.40625 14.84375 C 157.40625 14.921875 157.484375 14.960938 157.542969 14.960938 C 157.738281 14.960938 158.96875 13.886719 159.691406 12.421875 C 160.453125 10.898438 160.804688 9.277344 160.804688 7.5 Z M 160.804688 7.5 "/>
<path style=" stroke:none;fill-rule:nonzero;fill:rgb(0%,0%,0%);fill-opacity:1;" d="M 176.566406 6.367188 C 176.78125 6.367188 177.054688 6.367188 177.054688 6.09375 C 177.054688 5.820312 176.800781 5.820312 176.566406 5.820312 L 167.777344 5.820312 C 167.5625 5.820312 167.289062 5.820312 167.289062 6.09375 C 167.289062 6.367188 167.542969 6.367188 167.777344 6.367188 Z M 176.566406 9.140625 C 176.78125 9.140625 177.054688 9.140625 177.054688 8.886719 C 177.054688 8.59375 176.800781 8.59375 176.566406 8.59375 L 167.777344 8.59375 C 167.5625 8.59375 167.289062 8.59375 167.289062 8.867188 C 167.289062 9.140625 167.542969 9.140625 167.777344 9.140625 Z M 176.566406 9.140625 "/>
<path style=" stroke:none;fill-rule:nonzero;fill:rgb(0%,0%,0%);fill-opacity:1;" d="M 183.851562 2.65625 C 184.496094 2.851562 185.023438 2.871094 185.179688 2.871094 C 186.859375 2.871094 187.953125 1.640625 187.953125 1.425781 C 187.953125 1.367188 187.914062 1.289062 187.816406 1.289062 C 187.796875 1.289062 187.757812 1.289062 187.621094 1.347656 C 186.800781 1.699219 186.078125 1.757812 185.6875 1.757812 C 184.710938 1.757812 184.007812 1.445312 183.714844 1.328125 C 183.617188 1.289062 183.578125 1.289062 183.558594 1.289062 C 183.441406 1.289062 183.441406 1.386719 183.441406 1.621094 L 183.441406 6.054688 C 183.441406 6.328125 183.441406 6.40625 183.617188 6.40625 C 183.695312 6.40625 183.714844 6.40625 183.871094 6.210938 C 184.28125 5.605469 184.984375 5.253906 185.726562 5.253906 C 186.527344 5.253906 186.917969 5.976562 187.035156 6.230469 C 187.289062 6.816406 187.308594 7.558594 187.308594 8.125 C 187.308594 8.691406 187.308594 9.53125 186.878906 10.214844 C 186.546875 10.742188 185.980469 11.113281 185.316406 11.113281 C 184.320312 11.113281 183.363281 10.449219 183.089844 9.355469 C 183.167969 9.394531 183.246094 9.394531 183.324219 9.394531 C 183.578125 9.394531 183.988281 9.257812 183.988281 8.75 C 183.988281 8.320312 183.695312 8.085938 183.324219 8.085938 C 183.050781 8.085938 182.660156 8.222656 182.660156 8.808594 C 182.660156 10.078125 183.695312 11.523438 185.335938 11.523438 C 187.035156 11.523438 188.519531 10.097656 188.519531 8.203125 C 188.519531 6.425781 187.308594 4.941406 185.746094 4.941406 C 184.886719 4.941406 184.242188 5.332031 183.851562 5.742188 Z M 183.851562 2.65625 "/>
<path style=" stroke:none;fill-rule:nonzero;fill:rgb(0%,0%,0%);fill-opacity:1;" d="M 7.066406 29.640625 L 4.976562 29.816406 L 4.976562 30.246094 C 5.992188 30.246094 6.109375 30.34375 6.109375 31.085938 L 6.109375 38.898438 C 6.109375 39.582031 5.953125 39.582031 4.976562 39.582031 L 4.976562 40.011719 C 5.40625 39.972656 6.128906 39.972656 6.578125 39.972656 C 7.027344 39.972656 7.769531 39.972656 8.199219 40.011719 L 8.199219 39.582031 C 7.242188 39.582031 7.066406 39.582031 7.066406 38.898438 Z M 7.066406 29.640625 "/>
<path style=" stroke:none;fill-rule:nonzero;fill:rgb(0%,0%,0%);fill-opacity:1;" d="M 11.136719 30.8125 C 11.136719 30.421875 10.824219 30.070312 10.414062 30.070312 C 10.023438 30.070312 9.691406 30.382812 9.691406 30.792969 C 9.691406 31.242188 10.042969 31.515625 10.414062 31.515625 C 10.863281 31.515625 11.136719 31.144531 11.136719 30.8125 Z M 9.085938 33.585938 L 9.085938 34.015625 C 10.023438 34.015625 10.160156 34.113281 10.160156 34.835938 L 10.160156 38.898438 C 10.160156 39.582031 10.003906 39.582031 9.027344 39.582031 L 9.027344 40.011719 C 9.457031 39.972656 10.160156 39.972656 10.609375 39.972656 C 10.765625 39.972656 11.625 39.972656 12.132812 40.011719 L 12.132812 39.582031 C 11.175781 39.582031 11.117188 39.503906 11.117188 38.917969 L 11.117188 33.429688 Z M 9.085938 33.585938 "/>
<path style=" stroke:none;fill-rule:nonzero;fill:rgb(0%,0%,0%);fill-opacity:1;" d="M 23.308594 36.378906 C 23.308594 34.992188 23.308594 34.582031 22.957031 34.09375 C 22.527344 33.507812 21.824219 33.429688 21.316406 33.429688 C 20.066406 33.429688 19.441406 34.328125 19.207031 34.894531 C 18.992188 33.742188 18.191406 33.429688 17.253906 33.429688 C 15.789062 33.429688 15.222656 34.660156 15.105469 34.953125 L 15.105469 33.429688 L 13.054688 33.585938 L 13.054688 34.015625 C 14.070312 34.015625 14.207031 34.132812 14.207031 34.855469 L 14.207031 38.898438 C 14.207031 39.582031 14.03125 39.582031 13.054688 39.582031 L 13.054688 40.011719 C 13.445312 39.972656 14.265625 39.972656 14.675781 39.972656 C 15.105469 39.972656 15.925781 39.972656 16.296875 40.011719 L 16.296875 39.582031 C 15.359375 39.582031 15.164062 39.582031 15.164062 38.898438 L 15.164062 36.125 C 15.164062 34.5625 16.199219 33.722656 17.136719 33.722656 C 18.054688 33.722656 18.269531 34.484375 18.269531 35.402344 L 18.269531 38.898438 C 18.269531 39.582031 18.09375 39.582031 17.136719 39.582031 L 17.136719 40.011719 C 17.507812 39.972656 18.328125 39.972656 18.738281 39.972656 C 19.167969 39.972656 19.988281 39.972656 20.378906 40.011719 L 20.378906 39.582031 C 19.421875 39.582031 19.226562 39.582031 19.226562 38.898438 L 19.226562 36.125 C 19.226562 34.5625 20.261719 33.722656 21.199219 33.722656 C 22.117188 33.722656 22.332031 34.484375 22.332031 35.402344 L 22.332031 38.898438 C 22.332031 39.582031 22.15625 39.582031 21.199219 39.582031 L 21.199219 40.011719 C 21.589844 39.972656 22.390625 39.972656 22.800781 39.972656 C 23.230469 39.972656 24.050781 39.972656 24.441406 40.011719 L 24.441406 39.582031 C 23.679688 39.582031 23.308594 39.582031 23.308594 39.132812 Z M 23.308594 36.378906 "/>
<path style=" stroke:none;fill-rule:nonzero;fill:rgb(0%,0%,0%);fill-opacity:1;" d="M 4.988281 46.097656 C 4.539062 46.195312 4.519531 46.585938 4.519531 46.625 C 4.519531 46.839844 4.695312 46.996094 4.910156 46.996094 C 5.125 46.996094 5.457031 46.820312 5.457031 46.390625 C 5.457031 45.824219 4.832031 45.667969 4.460938 45.667969 C 4.011719 45.667969 3.621094 46 3.386719 46.390625 C 3.171875 45.863281 2.664062 45.667969 2.253906 45.667969 C 1.160156 45.667969 0.554688 46.917969 0.554688 47.191406 C 0.554688 47.289062 0.632812 47.328125 0.710938 47.328125 C 0.828125 47.328125 0.847656 47.269531 0.867188 47.152344 C 1.101562 46.429688 1.707031 45.941406 2.214844 45.941406 C 2.605469 45.941406 2.800781 46.234375 2.800781 46.585938 C 2.800781 46.78125 2.683594 47.25 2.605469 47.5625 C 2.527344 47.855469 2.3125 48.734375 2.253906 48.929688 C 2.117188 49.457031 1.765625 49.886719 1.316406 49.886719 C 1.277344 49.886719 1.023438 49.886719 0.808594 49.75 C 1.257812 49.632812 1.257812 49.222656 1.257812 49.203125 C 1.257812 48.96875 1.082031 48.832031 0.867188 48.832031 C 0.59375 48.832031 0.300781 49.066406 0.300781 49.4375 C 0.300781 49.90625 0.789062 50.160156 1.296875 50.160156 C 1.824219 50.160156 2.195312 49.769531 2.371094 49.4375 C 2.605469 49.925781 3.054688 50.160156 3.542969 50.160156 C 4.617188 50.160156 5.222656 48.910156 5.222656 48.636719 C 5.222656 48.539062 5.144531 48.5 5.066406 48.5 C 4.949219 48.5 4.929688 48.578125 4.890625 48.675781 C 4.695312 49.339844 4.128906 49.886719 3.5625 49.886719 C 3.230469 49.886719 2.996094 49.671875 2.996094 49.242188 C 2.996094 49.046875 3.054688 48.8125 3.191406 48.265625 C 3.25 47.953125 3.464844 47.09375 3.523438 46.898438 C 3.660156 46.371094 4.011719 45.941406 4.460938 45.941406 C 4.519531 45.941406 4.773438 45.941406 4.988281 46.097656 Z M 4.988281 46.097656 "/>
<path style=" stroke:none;fill-rule:nonzero;fill:rgb(0%,0%,0%);fill-opacity:1;" d="M 14.679688 47.796875 C 14.347656 48.050781 14.035156 48.363281 13.800781 48.734375 C 13.371094 49.378906 13.253906 50.003906 13.253906 50.042969 C 13.253906 50.199219 13.390625 50.199219 13.488281 50.199219 C 13.605469 50.199219 13.683594 50.199219 13.722656 50.082031 C 13.976562 48.96875 14.621094 48.128906 15.8125 47.71875 C 15.890625 47.699219 15.988281 47.679688 15.988281 47.582031 C 15.988281 47.464844 15.890625 47.445312 15.851562 47.425781 C 14.523438 46.976562 13.9375 46.039062 13.742188 45.179688 C 13.683594 44.964844 13.683594 44.945312 13.488281 44.945312 C 13.390625 44.945312 13.253906 44.945312 13.253906 45.101562 C 13.253906 45.121094 13.351562 45.765625 13.800781 46.429688 C 14.09375 46.839844 14.425781 47.152344 14.679688 47.347656 L 6.945312 47.347656 C 6.789062 47.347656 6.574219 47.347656 6.574219 47.582031 C 6.574219 47.796875 6.789062 47.796875 6.945312 47.796875 Z M 14.679688 47.796875 "/>
<path style=" stroke:none;fill-rule:nonzero;fill:rgb(0%,0%,0%);fill-opacity:1;" d="M 19.449219 48.03125 C 19.605469 47.875 20.015625 47.542969 20.191406 47.40625 C 20.796875 46.839844 21.382812 46.292969 21.382812 45.394531 C 21.382812 44.203125 20.386719 43.441406 19.15625 43.441406 C 17.945312 43.441406 17.164062 44.339844 17.164062 45.238281 C 17.164062 45.726562 17.554688 45.785156 17.691406 45.785156 C 17.90625 45.785156 18.21875 45.648438 18.21875 45.257812 C 18.21875 44.75 17.710938 44.75 17.59375 44.75 C 17.886719 44.007812 18.550781 43.773438 19.039062 43.773438 C 19.957031 43.773438 20.445312 44.554688 20.445312 45.394531 C 20.445312 46.429688 19.722656 47.191406 18.53125 48.382812 L 17.28125 49.691406 C 17.164062 49.789062 17.164062 49.808594 17.164062 50.0625 L 21.089844 50.0625 L 21.382812 48.285156 L 21.070312 48.285156 C 21.050781 48.480469 20.972656 48.96875 20.855469 49.164062 C 20.796875 49.242188 20.035156 49.242188 19.878906 49.242188 L 18.101562 49.242188 Z M 19.449219 48.03125 "/>
<path style=" stroke:none;fill-rule:nonzero;fill:rgb(0%,0%,0%);fill-opacity:1;" d="M 25.578125 45.53125 L 28 45.53125 C 28.097656 45.53125 28.273438 45.53125 28.273438 45.335938 C 28.273438 45.140625 28.097656 45.140625 28 45.140625 L 25.578125 45.140625 L 25.578125 42.71875 C 25.578125 42.621094 25.578125 42.425781 25.382812 42.425781 C 25.1875 42.425781 25.1875 42.621094 25.1875 42.71875 L 25.1875 45.140625 L 22.765625 45.140625 C 22.667969 45.140625 22.472656 45.140625 22.472656 45.335938 C 22.472656 45.53125 22.667969 45.53125 22.765625 45.53125 L 25.1875 45.53125 L 25.1875 47.953125 C 25.1875 48.070312 25.1875 48.246094 25.382812 48.246094 C 25.578125 48.246094 25.578125 48.070312 25.578125 47.953125 Z M 25.578125 45.53125 "/>
<path style=" stroke:none;fill-rule:nonzero;fill:rgb(0%,0%,0%);fill-opacity:1;" d="M 38.597656 33.996094 C 38.890625 33.996094 39.027344 33.996094 39.027344 33.722656 C 39.027344 33.566406 38.890625 33.566406 38.636719 33.566406 L 37.425781 33.566406 C 37.699219 32.023438 37.914062 30.96875 38.03125 30.5 C 38.128906 30.128906 38.441406 29.796875 38.832031 29.796875 C 39.144531 29.796875 39.457031 29.933594 39.59375 30.070312 C 39.027344 30.128906 38.832031 30.558594 38.832031 30.8125 C 38.832031 31.105469 39.066406 31.28125 39.339844 31.28125 C 39.652344 31.28125 40.101562 31.027344 40.101562 30.460938 C 40.101562 29.835938 39.476562 29.484375 38.8125 29.484375 C 38.167969 29.484375 37.542969 29.972656 37.25 30.558594 C 36.976562 31.085938 36.820312 31.613281 36.488281 33.566406 L 35.472656 33.566406 C 35.199219 33.566406 35.042969 33.566406 35.042969 33.839844 C 35.042969 33.996094 35.140625 33.996094 35.433594 33.996094 L 36.390625 33.996094 C 36.117188 35.402344 35.511719 38.78125 35.160156 40.363281 C 34.90625 41.671875 34.691406 42.765625 33.949219 42.765625 C 33.890625 42.765625 33.460938 42.765625 33.1875 42.472656 C 33.949219 42.414062 33.949219 41.769531 33.949219 41.75 C 33.949219 41.4375 33.734375 41.261719 33.441406 41.261719 C 33.148438 41.261719 32.699219 41.515625 32.699219 42.082031 C 32.699219 42.726562 33.363281 43.058594 33.949219 43.058594 C 35.472656 43.058594 36.097656 40.324219 36.253906 39.582031 C 36.527344 38.429688 37.25 34.445312 37.328125 33.996094 Z M 38.597656 33.996094 "/>
<path style=" stroke:none;fill-rule:nonzero;fill:rgb(0%,0%,0%);fill-opacity:1;" d="M 45.652344 43.644531 C 45.652344 43.605469 45.652344 43.566406 45.398438 43.3125 C 43.894531 41.808594 43.054688 39.347656 43.054688 36.300781 C 43.054688 33.390625 43.757812 30.890625 45.496094 29.132812 C 45.652344 28.996094 45.652344 28.976562 45.652344 28.917969 C 45.652344 28.839844 45.574219 28.800781 45.515625 28.800781 C 45.320312 28.800781 44.089844 29.875 43.367188 31.339844 C 42.605469 32.863281 42.253906 34.445312 42.253906 36.300781 C 42.253906 37.628906 42.46875 39.40625 43.230469 40.988281 C 44.128906 42.785156 45.339844 43.761719 45.515625 43.761719 C 45.574219 43.761719 45.652344 43.722656 45.652344 43.644531 Z M 45.652344 43.644531 "/>
<path style=" stroke:none;fill-rule:nonzero;fill:rgb(0%,0%,0%);fill-opacity:1;" d="M 53.578125 33.917969 C 53.089844 33.996094 52.914062 34.367188 52.914062 34.640625 C 52.914062 35.011719 53.1875 35.128906 53.402344 35.128906 C 53.851562 35.128906 54.164062 34.738281 54.164062 34.328125 C 54.164062 33.703125 53.441406 33.429688 52.816406 33.429688 C 51.917969 33.429688 51.410156 34.328125 51.273438 34.601562 C 50.921875 33.488281 50.003906 33.429688 49.730469 33.429688 C 48.207031 33.429688 47.40625 35.382812 47.40625 35.714844 C 47.40625 35.773438 47.464844 35.851562 47.5625 35.851562 C 47.679688 35.851562 47.71875 35.753906 47.738281 35.695312 C 48.246094 34.035156 49.261719 33.722656 49.691406 33.722656 C 50.355469 33.722656 50.492188 34.347656 50.492188 34.699219 C 50.492188 35.03125 50.394531 35.382812 50.21875 36.105469 L 49.710938 38.136719 C 49.496094 39.035156 49.066406 39.855469 48.265625 39.855469 C 48.1875 39.855469 47.816406 39.855469 47.503906 39.660156 C 48.050781 39.5625 48.167969 39.113281 48.167969 38.9375 C 48.167969 38.644531 47.933594 38.449219 47.660156 38.449219 C 47.289062 38.449219 46.898438 38.78125 46.898438 39.25 C 46.898438 39.875 47.601562 40.167969 48.246094 40.167969 C 48.96875 40.167969 49.476562 39.601562 49.789062 38.976562 C 50.023438 39.855469 50.785156 40.167969 51.332031 40.167969 C 52.855469 40.167969 53.65625 38.195312 53.65625 37.882812 C 53.65625 37.804688 53.597656 37.746094 53.519531 37.746094 C 53.382812 37.746094 53.363281 37.824219 53.324219 37.941406 C 52.914062 39.25 52.054688 39.855469 51.371094 39.855469 C 50.84375 39.855469 50.570312 39.464844 50.570312 38.859375 C 50.570312 38.527344 50.628906 38.292969 50.863281 37.316406 L 51.390625 35.265625 C 51.605469 34.386719 52.113281 33.722656 52.816406 33.722656 C 52.835938 33.722656 53.265625 33.722656 53.578125 33.917969 Z M 53.578125 33.917969 "/>
<path style=" stroke:none;fill-rule:nonzero;fill:rgb(0%,0%,0%);fill-opacity:1;" d="M 58.957031 36.300781 C 58.957031 35.148438 58.800781 33.3125 57.960938 31.574219 C 57.082031 29.777344 55.851562 28.800781 55.695312 28.800781 C 55.636719 28.800781 55.558594 28.839844 55.558594 28.917969 C 55.558594 28.976562 55.558594 28.996094 55.8125 29.25 C 57.316406 30.753906 58.136719 33.234375 58.136719 36.28125 C 58.136719 39.171875 57.433594 41.671875 55.714844 43.429688 C 55.558594 43.566406 55.558594 43.605469 55.558594 43.644531 C 55.558594 43.722656 55.636719 43.761719 55.695312 43.761719 C 55.890625 43.761719 57.121094 42.6875 57.84375 41.222656 C 58.605469 39.699219 58.957031 38.078125 58.957031 36.300781 Z M 58.957031 36.300781 "/>
<path style=" stroke:none;fill-rule:nonzero;fill:rgb(0%,0%,0%);fill-opacity:1;" d="M 74.566406 35.167969 C 74.78125 35.167969 75.054688 35.167969 75.054688 34.894531 C 75.054688 34.621094 74.800781 34.621094 74.566406 34.621094 L 65.777344 34.621094 C 65.5625 34.621094 65.289062 34.621094 65.289062 34.894531 C 65.289062 35.167969 65.542969 35.167969 65.777344 35.167969 Z M 74.566406 37.941406 C 74.78125 37.941406 75.054688 37.941406 75.054688 37.6875 C 75.054688 37.394531 74.800781 37.394531 74.566406 37.394531 L 65.777344 37.394531 C 65.5625 37.394531 65.289062 37.394531 65.289062 37.667969 C 65.289062 37.941406 65.542969 37.941406 65.777344 37.941406 Z M 74.566406 37.941406 "/>
<path style=" stroke:none;fill-rule:nonzero;fill:rgb(0%,0%,0%);fill-opacity:1;" d="M 87.167969 29.640625 L 85.078125 29.816406 L 85.078125 30.246094 C 86.09375 30.246094 86.210938 30.34375 86.210938 31.085938 L 86.210938 38.898438 C 86.210938 39.582031 86.054688 39.582031 85.078125 39.582031 L 85.078125 40.011719 C 85.507812 39.972656 86.230469 39.972656 86.679688 39.972656 C 87.128906 39.972656 87.871094 39.972656 88.300781 40.011719 L 88.300781 39.582031 C 87.34375 39.582031 87.167969 39.582031 87.167969 38.898438 Z M 87.167969 29.640625 "/>
<path style=" stroke:none;fill-rule:nonzero;fill:rgb(0%,0%,0%);fill-opacity:1;" d="M 91.234375 30.8125 C 91.234375 30.421875 90.921875 30.070312 90.511719 30.070312 C 90.121094 30.070312 89.789062 30.382812 89.789062 30.792969 C 89.789062 31.242188 90.140625 31.515625 90.511719 31.515625 C 90.960938 31.515625 91.234375 31.144531 91.234375 30.8125 Z M 89.183594 33.585938 L 89.183594 34.015625 C 90.121094 34.015625 90.257812 34.113281 90.257812 34.835938 L 90.257812 38.898438 C 90.257812 39.582031 90.101562 39.582031 89.125 39.582031 L 89.125 40.011719 C 89.554688 39.972656 90.257812 39.972656 90.707031 39.972656 C 90.863281 39.972656 91.722656 39.972656 92.230469 40.011719 L 92.230469 39.582031 C 91.273438 39.582031 91.214844 39.503906 91.214844 38.917969 L 91.214844 33.429688 Z M 89.183594 33.585938 "/>
<path style=" stroke:none;fill-rule:nonzero;fill:rgb(0%,0%,0%);fill-opacity:1;" d="M 103.410156 36.378906 C 103.410156 34.992188 103.410156 34.582031 103.058594 34.09375 C 102.628906 33.507812 101.925781 33.429688 101.417969 33.429688 C 100.167969 33.429688 99.542969 34.328125 99.308594 34.894531 C 99.09375 33.742188 98.292969 33.429688 97.355469 33.429688 C 95.890625 33.429688 95.324219 34.660156 95.207031 34.953125 L 95.207031 33.429688 L 93.15625 33.585938 L 93.15625 34.015625 C 94.171875 34.015625 94.308594 34.132812 94.308594 34.855469 L 94.308594 38.898438 C 94.308594 39.582031 94.132812 39.582031 93.15625 39.582031 L 93.15625 40.011719 C 93.546875 39.972656 94.367188 39.972656 94.777344 39.972656 C 95.207031 39.972656 96.027344 39.972656 96.398438 40.011719 L 96.398438 39.582031 C 95.460938 39.582031 95.265625 39.582031 95.265625 38.898438 L 95.265625 36.125 C 95.265625 34.5625 96.300781 33.722656 97.238281 33.722656 C 98.15625 33.722656 98.371094 34.484375 98.371094 35.402344 L 98.371094 38.898438 C 98.371094 39.582031 98.195312 39.582031 97.238281 39.582031 L 97.238281 40.011719 C 97.609375 39.972656 98.429688 39.972656 98.839844 39.972656 C 99.269531 39.972656 100.089844 39.972656 100.480469 40.011719 L 100.480469 39.582031 C 99.523438 39.582031 99.328125 39.582031 99.328125 38.898438 L 99.328125 36.125 C 99.328125 34.5625 100.363281 33.722656 101.300781 33.722656 C 102.21875 33.722656 102.433594 34.484375 102.433594 35.402344 L 102.433594 38.898438 C 102.433594 39.582031 102.257812 39.582031 101.300781 39.582031 L 101.300781 40.011719 C 101.691406 39.972656 102.492188 39.972656 102.902344 39.972656 C 103.332031 39.972656 104.152344 39.972656 104.542969 40.011719 L 104.542969 39.582031 C 103.78125 39.582031 103.410156 39.582031 103.410156 39.132812 Z M 103.410156 36.378906 "/>
<path style=" stroke:none;fill-rule:nonzero;fill:rgb(0%,0%,0%);fill-opacity:1;" d="M 85.085938 46.097656 C 84.636719 46.195312 84.617188 46.585938 84.617188 46.625 C 84.617188 46.839844 84.792969 46.996094 85.007812 46.996094 C 85.222656 46.996094 85.554688 46.820312 85.554688 46.390625 C 85.554688 45.824219 84.929688 45.667969 84.558594 45.667969 C 84.109375 45.667969 83.71875 46 83.484375 46.390625 C 83.269531 45.863281 82.761719 45.667969 82.351562 45.667969 C 81.257812 45.667969 80.652344 46.917969 80.652344 47.191406 C 80.652344 47.289062 80.730469 47.328125 80.808594 47.328125 C 80.925781 47.328125 80.945312 47.269531 80.964844 47.152344 C 81.199219 46.429688 81.804688 45.941406 82.3125 45.941406 C 82.703125 45.941406 82.898438 46.234375 82.898438 46.585938 C 82.898438 46.78125 82.78125 47.25 82.703125 47.5625 C 82.625 47.855469 82.410156 48.734375 82.351562 48.929688 C 82.214844 49.457031 81.863281 49.886719 81.414062 49.886719 C 81.375 49.886719 81.121094 49.886719 80.90625 49.75 C 81.355469 49.632812 81.355469 49.222656 81.355469 49.203125 C 81.355469 48.96875 81.179688 48.832031 80.964844 48.832031 C 80.691406 48.832031 80.398438 49.066406 80.398438 49.4375 C 80.398438 49.90625 80.886719 50.160156 81.394531 50.160156 C 81.921875 50.160156 82.292969 49.769531 82.46875 49.4375 C 82.703125 49.925781 83.152344 50.160156 83.640625 50.160156 C 84.714844 50.160156 85.320312 48.910156 85.320312 48.636719 C 85.320312 48.539062 85.242188 48.5 85.164062 48.5 C 85.046875 48.5 85.027344 48.578125 84.988281 48.675781 C 84.792969 49.339844 84.226562 49.886719 83.660156 49.886719 C 83.328125 49.886719 83.09375 49.671875 83.09375 49.242188 C 83.09375 49.046875 83.152344 48.8125 83.289062 48.265625 C 83.347656 47.953125 83.5625 47.09375 83.621094 46.898438 C 83.757812 46.371094 84.109375 45.941406 84.558594 45.941406 C 84.617188 45.941406 84.871094 45.941406 85.085938 46.097656 Z M 85.085938 46.097656 "/>
<path style=" stroke:none;fill-rule:nonzero;fill:rgb(0%,0%,0%);fill-opacity:1;" d="M 94.777344 47.796875 C 94.445312 48.050781 94.132812 48.363281 93.898438 48.734375 C 93.46875 49.378906 93.351562 50.003906 93.351562 50.042969 C 93.351562 50.199219 93.488281 50.199219 93.585938 50.199219 C 93.703125 50.199219 93.78125 50.199219 93.820312 50.082031 C 94.074219 48.96875 94.71875 48.128906 95.910156 47.71875 C 95.988281 47.699219 96.085938 47.679688 96.085938 47.582031 C 96.085938 47.464844 95.988281 47.445312 95.949219 47.425781 C 94.621094 46.976562 94.035156 46.039062 93.839844 45.179688 C 93.78125 44.964844 93.78125 44.945312 93.585938 44.945312 C 93.488281 44.945312 93.351562 44.945312 93.351562 45.101562 C 93.351562 45.121094 93.449219 45.765625 93.898438 46.429688 C 94.191406 46.839844 94.523438 47.152344 94.777344 47.347656 L 87.042969 47.347656 C 86.886719 47.347656 86.671875 47.347656 86.671875 47.582031 C 86.671875 47.796875 86.886719 47.796875 87.042969 47.796875 Z M 94.777344 47.796875 "/>
<path style=" stroke:none;fill-rule:nonzero;fill:rgb(0%,0%,0%);fill-opacity:1;" d="M 99.550781 48.03125 C 99.707031 47.875 100.117188 47.542969 100.292969 47.40625 C 100.898438 46.839844 101.484375 46.292969 101.484375 45.394531 C 101.484375 44.203125 100.488281 43.441406 99.257812 43.441406 C 98.046875 43.441406 97.265625 44.339844 97.265625 45.238281 C 97.265625 45.726562 97.65625 45.785156 97.792969 45.785156 C 98.007812 45.785156 98.320312 45.648438 98.320312 45.257812 C 98.320312 44.75 97.8125 44.75 97.695312 44.75 C 97.988281 44.007812 98.652344 43.773438 99.140625 43.773438 C 100.058594 43.773438 100.546875 44.554688 100.546875 45.394531 C 100.546875 46.429688 99.824219 47.191406 98.632812 48.382812 L 97.382812 49.691406 C 97.265625 49.789062 97.265625 49.808594 97.265625 50.0625 L 101.191406 50.0625 L 101.484375 48.285156 L 101.171875 48.285156 C 101.152344 48.480469 101.074219 48.96875 100.957031 49.164062 C 100.898438 49.242188 100.136719 49.242188 99.980469 49.242188 L 98.203125 49.242188 Z M 99.550781 48.03125 "/>
<path style=" stroke:none;fill-rule:nonzero;fill:rgb(0%,0%,0%);fill-opacity:1;" d="M 105.679688 45.53125 L 108.101562 45.53125 C 108.199219 45.53125 108.375 45.53125 108.375 45.335938 C 108.375 45.140625 108.199219 45.140625 108.101562 45.140625 L 105.679688 45.140625 L 105.679688 42.71875 C 105.679688 42.621094 105.679688 42.425781 105.484375 42.425781 C 105.289062 42.425781 105.289062 42.621094 105.289062 42.71875 L 105.289062 45.140625 L 102.867188 45.140625 C 102.769531 45.140625 102.574219 45.140625 102.574219 45.335938 C 102.574219 45.53125 102.769531 45.53125 102.867188 45.53125 L 105.289062 45.53125 L 105.289062 47.953125 C 105.289062 48.070312 105.289062 48.246094 105.484375 48.246094 C 105.679688 48.246094 105.679688 48.070312 105.679688 47.953125 Z M 105.679688 45.53125 "/>
<path style=" stroke:none;fill-rule:nonzero;fill:rgb(0%,0%,0%);fill-opacity:1;" d="M 114.351562 43.644531 C 114.351562 43.605469 114.351562 43.566406 114.097656 43.3125 C 112.59375 41.808594 111.753906 39.347656 111.753906 36.300781 C 111.753906 33.390625 112.457031 30.890625 114.195312 29.132812 C 114.351562 28.996094 114.351562 28.976562 114.351562 28.917969 C 114.351562 28.839844 114.273438 28.800781 114.214844 28.800781 C 114.019531 28.800781 112.789062 29.875 112.066406 31.339844 C 111.304688 32.863281 110.953125 34.445312 110.953125 36.300781 C 110.953125 37.628906 111.167969 39.40625 111.929688 40.988281 C 112.828125 42.785156 114.039062 43.761719 114.214844 43.761719 C 114.273438 43.761719 114.351562 43.722656 114.351562 43.644531 Z M 114.351562 43.644531 "/>
<path style=" stroke:none;fill-rule:nonzero;fill:rgb(0%,0%,0%);fill-opacity:1;" d="M 121.769531 37.492188 L 121.4375 37.492188 C 121.378906 37.746094 121.261719 38.585938 121.125 38.820312 C 121.007812 38.957031 120.167969 38.957031 119.71875 38.957031 L 116.945312 38.957031 C 117.355469 38.605469 118.273438 37.648438 118.644531 37.296875 C 120.929688 35.207031 121.769531 34.425781 121.769531 32.941406 C 121.769531 31.222656 120.402344 30.070312 118.664062 30.070312 C 116.945312 30.070312 115.910156 31.554688 115.910156 32.84375 C 115.910156 33.605469 116.574219 33.605469 116.613281 33.605469 C 116.945312 33.605469 117.316406 33.371094 117.316406 32.902344 C 117.316406 32.472656 117.042969 32.199219 116.613281 32.199219 C 116.496094 32.199219 116.457031 32.199219 116.417969 32.21875 C 116.691406 31.203125 117.511719 30.5 118.46875 30.5 C 119.738281 30.5 120.519531 31.574219 120.519531 32.941406 C 120.519531 34.210938 119.796875 35.324219 118.9375 36.28125 L 115.910156 39.660156 L 115.910156 40.011719 L 121.378906 40.011719 Z M 121.769531 37.492188 "/>
<path style=" stroke:none;fill-rule:nonzero;fill:rgb(0%,0%,0%);fill-opacity:1;" d="M 129.628906 33.917969 C 129.140625 33.996094 128.964844 34.367188 128.964844 34.640625 C 128.964844 35.011719 129.238281 35.128906 129.453125 35.128906 C 129.902344 35.128906 130.214844 34.738281 130.214844 34.328125 C 130.214844 33.703125 129.492188 33.429688 128.867188 33.429688 C 127.96875 33.429688 127.460938 34.328125 127.324219 34.601562 C 126.972656 33.488281 126.054688 33.429688 125.78125 33.429688 C 124.257812 33.429688 123.457031 35.382812 123.457031 35.714844 C 123.457031 35.773438 123.515625 35.851562 123.613281 35.851562 C 123.730469 35.851562 123.769531 35.753906 123.789062 35.695312 C 124.296875 34.035156 125.3125 33.722656 125.742188 33.722656 C 126.40625 33.722656 126.542969 34.347656 126.542969 34.699219 C 126.542969 35.03125 126.445312 35.382812 126.269531 36.105469 L 125.761719 38.136719 C 125.546875 39.035156 125.117188 39.855469 124.316406 39.855469 C 124.238281 39.855469 123.867188 39.855469 123.554688 39.660156 C 124.101562 39.5625 124.21875 39.113281 124.21875 38.9375 C 124.21875 38.644531 123.984375 38.449219 123.710938 38.449219 C 123.339844 38.449219 122.949219 38.78125 122.949219 39.25 C 122.949219 39.875 123.652344 40.167969 124.296875 40.167969 C 125.019531 40.167969 125.527344 39.601562 125.839844 38.976562 C 126.074219 39.855469 126.835938 40.167969 127.382812 40.167969 C 128.90625 40.167969 129.707031 38.195312 129.707031 37.882812 C 129.707031 37.804688 129.648438 37.746094 129.570312 37.746094 C 129.433594 37.746094 129.414062 37.824219 129.375 37.941406 C 128.964844 39.25 128.105469 39.855469 127.421875 39.855469 C 126.894531 39.855469 126.621094 39.464844 126.621094 38.859375 C 126.621094 38.527344 126.679688 38.292969 126.914062 37.316406 L 127.441406 35.265625 C 127.65625 34.386719 128.164062 33.722656 128.867188 33.722656 C 128.886719 33.722656 129.316406 33.722656 129.628906 33.917969 Z M 129.628906 33.917969 "/>
<path style=" stroke:none;fill-rule:nonzero;fill:rgb(0%,0%,0%);fill-opacity:1;" d="M 140.042969 36.554688 L 144.164062 36.554688 C 144.378906 36.554688 144.652344 36.554688 144.652344 36.300781 C 144.652344 36.007812 144.398438 36.007812 144.164062 36.007812 L 140.042969 36.007812 L 140.042969 31.886719 C 140.042969 31.671875 140.042969 31.398438 139.769531 31.398438 C 139.496094 31.398438 139.496094 31.652344 139.496094 31.886719 L 139.496094 36.007812 L 135.375 36.007812 C 135.160156 36.007812 134.886719 36.007812 134.886719 36.28125 C 134.886719 36.554688 135.140625 36.554688 135.375 36.554688 L 139.496094 36.554688 L 139.496094 40.675781 C 139.496094 40.890625 139.496094 41.164062 139.769531 41.164062 C 140.042969 41.164062 140.042969 40.910156 140.042969 40.675781 Z M 140.042969 36.554688 "/>
<path style=" stroke:none;fill-rule:nonzero;fill:rgb(0%,0%,0%);fill-opacity:1;" d="M 153.085938 30.441406 C 153.085938 30.089844 153.085938 30.070312 152.792969 30.070312 C 152.441406 30.480469 151.679688 31.027344 150.15625 31.027344 L 150.15625 31.457031 C 150.488281 31.457031 151.230469 31.457031 152.070312 31.085938 L 152.070312 38.859375 C 152.070312 39.40625 152.011719 39.582031 150.703125 39.582031 L 150.234375 39.582031 L 150.234375 40.011719 C 150.644531 39.972656 152.089844 39.972656 152.578125 39.972656 C 153.085938 39.972656 154.511719 39.972656 154.921875 40.011719 L 154.921875 39.582031 L 154.453125 39.582031 C 153.144531 39.582031 153.085938 39.40625 153.085938 38.859375 Z M 153.085938 30.441406 "/>
<path style=" stroke:none;fill-rule:nonzero;fill:rgb(0%,0%,0%);fill-opacity:1;" d="M 160.355469 36.300781 C 160.355469 35.148438 160.199219 33.3125 159.359375 31.574219 C 158.480469 29.777344 157.25 28.800781 157.09375 28.800781 C 157.035156 28.800781 156.957031 28.839844 156.957031 28.917969 C 156.957031 28.976562 156.957031 28.996094 157.210938 29.25 C 158.714844 30.753906 159.535156 33.234375 159.535156 36.28125 C 159.535156 39.171875 158.832031 41.671875 157.113281 43.429688 C 156.957031 43.566406 156.957031 43.605469 156.957031 43.644531 C 156.957031 43.722656 157.035156 43.761719 157.09375 43.761719 C 157.289062 43.761719 158.519531 42.6875 159.242188 41.222656 C 160.003906 39.699219 160.355469 38.078125 160.355469 36.300781 Z M 160.355469 36.300781 "/>
<path style=" stroke:none;fill-rule:nonzero;fill:rgb(0%,0%,0%);fill-opacity:1;" d="M 176.117188 35.167969 C 176.332031 35.167969 176.605469 35.167969 176.605469 34.894531 C 176.605469 34.621094 176.351562 34.621094 176.117188 34.621094 L 167.328125 34.621094 C 167.113281 34.621094 166.839844 34.621094 166.839844 34.894531 C 166.839844 35.167969 167.09375 35.167969 167.328125 35.167969 Z M 176.117188 37.941406 C 176.332031 37.941406 176.605469 37.941406 176.605469 37.6875 C 176.605469 37.394531 176.351562 37.394531 176.117188 37.394531 L 167.328125 37.394531 C 167.113281 37.394531 166.839844 37.394531 166.839844 37.667969 C 166.839844 37.941406 167.09375 37.941406 167.328125 37.941406 Z M 176.117188 37.941406 "/>
<path style=" stroke:none;fill-rule:nonzero;fill:rgb(0%,0%,0%);fill-opacity:1;" d="M 183.402344 31.457031 C 184.046875 31.652344 184.574219 31.671875 184.730469 31.671875 C 186.410156 31.671875 187.503906 30.441406 187.503906 30.226562 C 187.503906 30.167969 187.464844 30.089844 187.367188 30.089844 C 187.347656 30.089844 187.308594 30.089844 187.171875 30.148438 C 186.351562 30.5 185.628906 30.558594 185.238281 30.558594 C 184.261719 30.558594 183.558594 30.246094 183.265625 30.128906 C 183.167969 30.089844 183.128906 30.089844 183.109375 30.089844 C 182.992188 30.089844 182.992188 30.1875 182.992188 30.421875 L 182.992188 34.855469 C 182.992188 35.128906 182.992188 35.207031 183.167969 35.207031 C 183.246094 35.207031 183.265625 35.207031 183.421875 35.011719 C 183.832031 34.40625 184.535156 34.054688 185.277344 34.054688 C 186.078125 34.054688 186.46875 34.777344 186.585938 35.03125 C 186.839844 35.617188 186.859375 36.359375 186.859375 36.925781 C 186.859375 37.492188 186.859375 38.332031 186.429688 39.015625 C 186.097656 39.542969 185.53125 39.914062 184.867188 39.914062 C 183.871094 39.914062 182.914062 39.25 182.640625 38.15625 C 182.71875 38.195312 182.796875 38.195312 182.875 38.195312 C 183.128906 38.195312 183.539062 38.058594 183.539062 37.550781 C 183.539062 37.121094 183.246094 36.886719 182.875 36.886719 C 182.601562 36.886719 182.210938 37.023438 182.210938 37.609375 C 182.210938 38.878906 183.246094 40.324219 184.886719 40.324219 C 186.585938 40.324219 188.070312 38.898438 188.070312 37.003906 C 188.070312 35.226562 186.859375 33.742188 185.296875 33.742188 C 184.4375 33.742188 183.792969 34.132812 183.402344 34.542969 Z M 183.402344 31.457031 "/>
<path style=" stroke:none;fill-rule:nonzero;fill:rgb(0%,0%,0%);fill-opacity:1;" d="M 6.445312 70.011719 L 8.027344 70.011719 C 8.242188 70.011719 8.457031 70.03125 8.671875 70.03125 L 11.015625 70.03125 L 11.015625 68.898438 L 0.3125 68.898438 L 0.3125 70.03125 L 2.675781 70.03125 C 2.890625 70.03125 3.105469 70.011719 3.320312 70.011719 L 4.902344 70.011719 L 4.902344 81.261719 L 6.445312 81.261719 Z M 6.445312 70.011719 "/>
<path style=" stroke:none;fill-rule:nonzero;fill:rgb(0%,0%,0%);fill-opacity:1;" d="M 19.285156 75.871094 C 19.285156 74.777344 19.050781 73.117188 16.882812 73.117188 C 15.652344 73.117188 14.832031 73.820312 14.402344 74.367188 L 14.402344 68.820312 L 13.074219 68.820312 L 13.074219 81.261719 L 14.421875 81.261719 L 14.421875 76.789062 C 14.421875 75.695312 14.851562 74.191406 16.199219 74.191406 C 17.878906 74.191406 17.917969 75.363281 17.917969 75.988281 L 17.917969 81.261719 L 19.285156 81.261719 Z M 19.285156 75.871094 "/>
<path style=" stroke:none;fill-rule:nonzero;fill:rgb(0%,0%,0%);fill-opacity:1;" d="M 27.992188 77.21875 C 27.992188 76.457031 27.914062 75.363281 27.347656 74.40625 C 26.605469 73.175781 25.355469 73.039062 24.828125 73.039062 C 22.894531 73.039062 21.273438 74.894531 21.273438 77.21875 C 21.273438 79.601562 22.992188 81.4375 25.082031 81.4375 C 25.902344 81.4375 26.898438 81.203125 27.875 80.5 C 27.875 80.421875 27.816406 79.855469 27.816406 79.835938 C 27.796875 79.816406 27.777344 79.40625 27.777344 79.347656 C 26.703125 80.246094 25.648438 80.363281 25.121094 80.363281 C 23.734375 80.363281 22.542969 79.132812 22.523438 77.21875 Z M 22.621094 76.261719 C 22.933594 75.050781 23.773438 74.113281 24.828125 74.113281 C 25.394531 74.113281 26.625 74.367188 26.917969 76.261719 Z M 22.621094 76.261719 "/>
<path style=" stroke:none;fill-rule:nonzero;fill:rgb(0%,0%,0%);fill-opacity:1;" d="M 31.222656 77.335938 C 31.222656 75.519531 32.570312 74.347656 34.191406 74.328125 L 34.191406 73.117188 C 32.550781 73.136719 31.613281 74.09375 31.125 74.796875 L 31.125 73.214844 L 29.894531 73.214844 L 29.894531 81.261719 L 31.222656 81.261719 Z M 31.222656 77.335938 "/>
<path style=" stroke:none;fill-rule:nonzero;fill:rgb(0%,0%,0%);fill-opacity:1;" d="M 41.792969 77.21875 C 41.792969 76.457031 41.714844 75.363281 41.148438 74.40625 C 40.40625 73.175781 39.15625 73.039062 38.628906 73.039062 C 36.695312 73.039062 35.074219 74.894531 35.074219 77.21875 C 35.074219 79.601562 36.792969 81.4375 38.882812 81.4375 C 39.703125 81.4375 40.699219 81.203125 41.675781 80.5 C 41.675781 80.421875 41.617188 79.855469 41.617188 79.835938 C 41.597656 79.816406 41.578125 79.40625 41.578125 79.347656 C 40.503906 80.246094 39.449219 80.363281 38.921875 80.363281 C 37.535156 80.363281 36.34375 79.132812 36.324219 77.21875 Z M 36.421875 76.261719 C 36.734375 75.050781 37.574219 74.113281 38.628906 74.113281 C 39.195312 74.113281 40.425781 74.367188 40.71875 76.261719 Z M 36.421875 76.261719 "/>
<path style=" stroke:none;fill-rule:nonzero;fill:rgb(0%,0%,0%);fill-opacity:1;" d="M 45.394531 74.347656 L 47.308594 74.347656 L 47.308594 73.292969 L 45.355469 73.292969 L 45.355469 71.144531 C 45.355469 69.933594 46.371094 69.71875 46.976562 69.71875 C 47.601562 69.71875 48.148438 69.914062 48.363281 69.992188 L 48.363281 68.820312 C 48.246094 68.78125 47.640625 68.644531 46.996094 68.644531 C 45.277344 68.644531 44.066406 69.953125 44.066406 71.691406 L 44.066406 73.292969 L 42.757812 73.292969 L 42.757812 74.347656 L 44.066406 74.347656 L 44.066406 81.261719 L 45.394531 81.261719 Z M 45.394531 74.347656 "/>
<path style=" stroke:none;fill-rule:nonzero;fill:rgb(0%,0%,0%);fill-opacity:1;" d="M 55.910156 77.316406 C 55.910156 74.894531 54.132812 73.039062 52.082031 73.039062 C 49.972656 73.039062 48.234375 74.933594 48.234375 77.316406 C 48.234375 79.660156 50.011719 81.4375 52.0625 81.4375 C 54.171875 81.4375 55.910156 79.621094 55.910156 77.316406 Z M 52.082031 80.324219 C 50.792969 80.324219 49.582031 79.25 49.582031 77.140625 C 49.582031 74.972656 50.929688 74.113281 52.0625 74.113281 C 53.292969 74.113281 54.5625 75.03125 54.5625 77.140625 C 54.5625 79.347656 53.273438 80.324219 52.082031 80.324219 Z M 52.082031 80.324219 "/>
<path style=" stroke:none;fill-rule:nonzero;fill:rgb(0%,0%,0%);fill-opacity:1;" d="M 58.820312 77.335938 C 58.820312 75.519531 60.167969 74.347656 61.789062 74.328125 L 61.789062 73.117188 C 60.148438 73.136719 59.210938 74.09375 58.722656 74.796875 L 58.722656 73.214844 L 57.492188 73.214844 L 57.492188 81.261719 L 58.820312 81.261719 Z M 58.820312 77.335938 "/>
<path style=" stroke:none;fill-rule:nonzero;fill:rgb(0%,0%,0%);fill-opacity:1;" d="M 69.390625 77.21875 C 69.390625 76.457031 69.3125 75.363281 68.746094 74.40625 C 68.003906 73.175781 66.753906 73.039062 66.226562 73.039062 C 64.292969 73.039062 62.671875 74.894531 62.671875 77.21875 C 62.671875 79.601562 64.390625 81.4375 66.480469 81.4375 C 67.300781 81.4375 68.296875 81.203125 69.273438 80.5 C 69.273438 80.421875 69.214844 79.855469 69.214844 79.835938 C 69.195312 79.816406 69.175781 79.40625 69.175781 79.347656 C 68.101562 80.246094 67.046875 80.363281 66.519531 80.363281 C 65.132812 80.363281 63.941406 79.132812 63.921875 77.21875 Z M 64.019531 76.261719 C 64.332031 75.050781 65.171875 74.113281 66.226562 74.113281 C 66.792969 74.113281 68.023438 74.367188 68.316406 76.261719 Z M 64.019531 76.261719 "/>
<path style=" stroke:none;fill-rule:nonzero;fill:rgb(0%,0%,0%);fill-opacity:1;" d="M 73.050781 81.242188 L 73.050781 79.816406 L 71.585938 79.816406 L 71.585938 81.261719 L 72.035156 81.261719 L 71.585938 83.507812 L 72.308594 83.507812 Z M 73.050781 81.242188 "/>
<path style=" stroke:none;fill-rule:nonzero;fill:rgb(0%,0%,0%);fill-opacity:1;" d="M 84.675781 69.269531 C 84.695312 69.191406 84.734375 69.09375 84.734375 68.996094 C 84.734375 68.820312 84.558594 68.820312 84.519531 68.820312 C 84.5 68.820312 83.855469 68.878906 83.523438 68.898438 C 83.230469 68.917969 82.957031 68.957031 82.625 68.976562 C 82.195312 69.015625 82.078125 69.035156 82.078125 69.347656 C 82.078125 69.542969 82.253906 69.542969 82.429688 69.542969 C 83.347656 69.542969 83.347656 69.699219 83.347656 69.875 C 83.347656 69.953125 83.347656 69.992188 83.25 70.304688 L 80.691406 80.558594 C 80.613281 80.832031 80.613281 80.871094 80.613281 80.96875 C 80.613281 81.378906 80.925781 81.4375 81.101562 81.4375 C 81.609375 81.4375 81.707031 81.046875 81.863281 80.5 L 82.703125 77.140625 C 83.992188 77.277344 84.773438 77.824219 84.773438 78.683594 C 84.773438 78.78125 84.773438 78.859375 84.714844 79.132812 C 84.636719 79.40625 84.636719 79.621094 84.636719 79.699219 C 84.636719 80.734375 85.320312 81.4375 86.238281 81.4375 C 87.058594 81.4375 87.488281 80.695312 87.625 80.441406 C 88.015625 79.777344 88.25 78.761719 88.25 78.703125 C 88.25 78.605469 88.171875 78.527344 88.054688 78.527344 C 87.898438 78.527344 87.878906 78.605469 87.820312 78.898438 C 87.566406 79.835938 87.175781 81.085938 86.277344 81.085938 C 85.90625 81.085938 85.671875 80.910156 85.671875 80.226562 C 85.671875 79.875 85.75 79.484375 85.828125 79.210938 C 85.886719 78.898438 85.886719 78.878906 85.886719 78.664062 C 85.886719 77.609375 84.949219 77.003906 83.289062 76.789062 C 83.933594 76.398438 84.578125 75.695312 84.832031 75.441406 C 85.867188 74.289062 86.550781 73.722656 87.390625 73.722656 C 87.800781 73.722656 87.898438 73.820312 88.035156 73.9375 C 87.371094 73.996094 87.117188 74.464844 87.117188 74.816406 C 87.117188 75.246094 87.449219 75.402344 87.703125 75.402344 C 88.191406 75.402344 88.621094 74.992188 88.621094 74.40625 C 88.621094 73.898438 88.210938 73.351562 87.390625 73.351562 C 86.414062 73.351562 85.613281 74.054688 84.34375 75.480469 C 84.148438 75.695312 83.484375 76.378906 82.820312 76.632812 Z M 84.675781 69.269531 "/>
<path style=" stroke:none;fill-rule:nonzero;fill:rgb(0%,0%,0%);fill-opacity:1;" d="M 106.445312 75.460938 C 106.699219 75.460938 107.011719 75.460938 107.011719 75.128906 C 107.011719 74.796875 106.699219 74.796875 106.445312 74.796875 L 95.878906 74.796875 C 95.625 74.796875 95.3125 74.796875 95.3125 75.109375 C 95.3125 75.460938 95.605469 75.460938 95.878906 75.460938 Z M 106.445312 78.78125 C 106.699219 78.78125 107.011719 78.78125 107.011719 78.46875 C 107.011719 78.117188 106.699219 78.117188 106.445312 78.117188 L 95.878906 78.117188 C 95.625 78.117188 95.3125 78.117188 95.3125 78.449219 C 95.3125 78.78125 95.605469 78.78125 95.878906 78.78125 Z M 106.445312 78.78125 "/>
<path style=" stroke:none;fill-rule:nonzero;fill:rgb(0%,0%,0%);fill-opacity:1;" d="M 115.390625 70.988281 C 116.152344 71.242188 116.777344 71.261719 116.972656 71.261719 C 119.003906 71.261719 120.292969 69.777344 120.292969 69.523438 C 120.292969 69.445312 120.253906 69.347656 120.15625 69.347656 C 120.117188 69.347656 120.078125 69.347656 119.921875 69.425781 C 118.90625 69.855469 118.046875 69.914062 117.578125 69.914062 C 116.40625 69.914062 115.566406 69.5625 115.214844 69.40625 C 115.097656 69.347656 115.058594 69.347656 115.039062 69.347656 C 114.902344 69.347656 114.902344 69.464844 114.902344 69.757812 L 114.902344 75.070312 C 114.902344 75.402344 114.902344 75.5 115.117188 75.5 C 115.195312 75.5 115.214844 75.480469 115.390625 75.265625 C 115.898438 74.542969 116.738281 74.113281 117.636719 74.113281 C 118.59375 74.113281 119.0625 74.992188 119.199219 75.285156 C 119.511719 75.988281 119.53125 76.867188 119.53125 77.550781 C 119.53125 78.234375 119.53125 79.25 119.023438 80.050781 C 118.632812 80.714844 117.929688 81.144531 117.128906 81.144531 C 115.957031 81.144531 114.785156 80.34375 114.472656 79.035156 C 114.550781 79.074219 114.667969 79.09375 114.746094 79.09375 C 115.058594 79.09375 115.546875 78.917969 115.546875 78.3125 C 115.546875 77.804688 115.195312 77.511719 114.746094 77.511719 C 114.433594 77.511719 113.964844 77.667969 113.964844 78.371094 C 113.964844 79.894531 115.175781 81.632812 117.167969 81.632812 C 119.199219 81.632812 120.976562 79.933594 120.976562 77.648438 C 120.976562 75.519531 119.53125 73.742188 117.65625 73.742188 C 116.640625 73.742188 115.839844 74.191406 115.390625 74.699219 Z M 115.390625 70.988281 "/>
<path style=" stroke:none;fill-rule:nonzero;fill:rgb(0%,0%,0%);fill-opacity:1;" d="M 129.84375 74.347656 L 131.757812 74.347656 L 131.757812 73.292969 L 129.804688 73.292969 L 129.804688 71.144531 C 129.804688 69.933594 130.820312 69.71875 131.425781 69.71875 C 132.050781 69.71875 132.597656 69.914062 132.8125 69.992188 L 132.8125 68.820312 C 132.695312 68.78125 132.089844 68.644531 131.445312 68.644531 C 129.726562 68.644531 128.515625 69.953125 128.515625 71.691406 L 128.515625 73.292969 L 127.207031 73.292969 L 127.207031 74.347656 L 128.515625 74.347656 L 128.515625 81.261719 L 129.84375 81.261719 Z M 129.84375 74.347656 "/>
<path style=" stroke:none;fill-rule:nonzero;fill:rgb(0%,0%,0%);fill-opacity:1;" d="M 140.359375 77.316406 C 140.359375 74.894531 138.582031 73.039062 136.53125 73.039062 C 134.421875 73.039062 132.683594 74.933594 132.683594 77.316406 C 132.683594 79.660156 134.460938 81.4375 136.511719 81.4375 C 138.621094 81.4375 140.359375 79.621094 140.359375 77.316406 Z M 136.53125 80.324219 C 135.242188 80.324219 134.03125 79.25 134.03125 77.140625 C 134.03125 74.972656 135.378906 74.113281 136.511719 74.113281 C 137.742188 74.113281 139.011719 75.03125 139.011719 77.140625 C 139.011719 79.347656 137.722656 80.324219 136.53125 80.324219 Z M 136.53125 80.324219 "/>
<path style=" stroke:none;fill-rule:nonzero;fill:rgb(0%,0%,0%);fill-opacity:1;" d="M 143.269531 77.335938 C 143.269531 75.519531 144.617188 74.347656 146.238281 74.328125 L 146.238281 73.117188 C 144.597656 73.136719 143.660156 74.09375 143.171875 74.796875 L 143.171875 73.214844 L 141.941406 73.214844 L 141.941406 81.261719 L 143.269531 81.261719 Z M 143.269531 77.335938 "/>
<path style=" stroke:none;fill-rule:nonzero;fill:rgb(0%,0%,0%);fill-opacity:1;" d="M 159.175781 74.054688 C 159.546875 74.054688 159.683594 74.054688 159.683594 73.722656 C 159.683594 73.527344 159.546875 73.527344 159.214844 73.527344 L 157.769531 73.527344 C 158.101562 71.691406 158.355469 70.421875 158.511719 69.835938 C 158.609375 69.40625 158.980469 68.996094 159.449219 68.996094 C 159.820312 68.996094 160.210938 69.152344 160.386719 69.328125 C 159.683594 69.386719 159.46875 69.914062 159.46875 70.226562 C 159.46875 70.578125 159.742188 70.792969 160.074219 70.792969 C 160.445312 70.792969 160.972656 70.480469 160.972656 69.796875 C 160.972656 69.054688 160.230469 68.644531 159.429688 68.644531 C 158.667969 68.644531 157.90625 69.210938 157.554688 69.914062 C 157.222656 70.539062 157.046875 71.183594 156.636719 73.527344 L 155.445312 73.527344 C 155.09375 73.527344 154.917969 73.527344 154.917969 73.859375 C 154.917969 74.054688 155.015625 74.054688 155.386719 74.054688 L 156.539062 74.054688 C 156.207031 75.714844 155.464844 79.777344 155.054688 81.691406 C 154.761719 83.253906 154.488281 84.5625 153.589844 84.5625 C 153.53125 84.5625 153.023438 84.5625 152.691406 84.210938 C 153.609375 84.152344 153.609375 83.351562 153.609375 83.332031 C 153.609375 82.980469 153.335938 82.765625 153.003906 82.765625 C 152.632812 82.765625 152.105469 83.078125 152.105469 83.761719 C 152.105469 84.523438 152.886719 84.914062 153.589844 84.914062 C 155.425781 84.914062 156.167969 81.632812 156.363281 80.734375 C 156.695312 79.367188 157.574219 74.601562 157.652344 74.054688 Z M 159.175781 74.054688 "/>
<path style=" stroke:none;fill-rule:nonzero;fill:rgb(0%,0%,0%);fill-opacity:1;" d="M 167.65625 85.617188 C 167.65625 85.558594 167.65625 85.519531 167.363281 85.226562 C 165.566406 83.410156 164.570312 80.460938 164.570312 76.789062 C 164.570312 73.3125 165.410156 70.324219 167.480469 68.214844 C 167.65625 68.039062 167.65625 68.019531 167.65625 67.960938 C 167.65625 67.84375 167.578125 67.824219 167.5 67.824219 C 167.265625 67.824219 165.800781 69.113281 164.921875 70.871094 C 164.003906 72.667969 163.59375 74.601562 163.59375 76.789062 C 163.59375 78.390625 163.847656 80.519531 164.785156 82.453125 C 165.839844 84.601562 167.304688 85.753906 167.5 85.753906 C 167.578125 85.753906 167.65625 85.734375 167.65625 85.617188 Z M 167.65625 85.617188 "/>
<path style=" stroke:none;fill-rule:nonzero;fill:rgb(0%,0%,0%);fill-opacity:1;" d="M 177.234375 73.9375 C 176.667969 74.054688 176.453125 74.484375 176.453125 74.816406 C 176.453125 75.246094 176.785156 75.402344 177.039062 75.402344 C 177.585938 75.402344 177.957031 74.933594 177.957031 74.445312 C 177.957031 73.703125 177.097656 73.351562 176.335938 73.351562 C 175.242188 73.351562 174.636719 74.425781 174.480469 74.777344 C 174.070312 73.429688 172.957031 73.351562 172.625 73.351562 C 170.808594 73.351562 169.832031 75.695312 169.832031 76.105469 C 169.832031 76.164062 169.910156 76.261719 170.027344 76.261719 C 170.164062 76.261719 170.203125 76.144531 170.242188 76.085938 C 170.847656 74.09375 172.058594 73.722656 172.566406 73.722656 C 173.386719 73.722656 173.542969 74.464844 173.542969 74.894531 C 173.542969 75.285156 173.445312 75.695312 173.210938 76.554688 L 172.605469 79.015625 C 172.351562 80.089844 171.824219 81.085938 170.867188 81.085938 C 170.789062 81.085938 170.339844 81.085938 169.949219 80.851562 C 170.59375 80.714844 170.75 80.1875 170.75 79.972656 C 170.75 79.621094 170.476562 79.40625 170.144531 79.40625 C 169.714844 79.40625 169.246094 79.777344 169.246094 80.34375 C 169.246094 81.105469 170.085938 81.4375 170.847656 81.4375 C 171.707031 81.4375 172.332031 80.753906 172.703125 80.03125 C 172.996094 81.085938 173.875 81.4375 174.539062 81.4375 C 176.375 81.4375 177.351562 79.09375 177.351562 78.703125 C 177.351562 78.605469 177.273438 78.527344 177.15625 78.527344 C 177 78.527344 176.980469 78.625 176.941406 78.761719 C 176.453125 80.34375 175.398438 81.085938 174.597656 81.085938 C 173.972656 81.085938 173.640625 80.617188 173.640625 79.875 C 173.640625 79.484375 173.699219 79.191406 173.992188 78.019531 L 174.617188 75.578125 C 174.890625 74.503906 175.496094 73.722656 176.316406 73.722656 C 176.355469 73.722656 176.863281 73.722656 177.234375 73.9375 Z M 177.234375 73.9375 "/>
<path style=" stroke:none;fill-rule:nonzero;fill:rgb(0%,0%,0%);fill-opacity:1;" d="M 183.84375 76.789062 C 183.84375 75.441406 183.667969 73.214844 182.652344 71.125 C 181.597656 68.976562 180.132812 67.824219 179.9375 67.824219 C 179.859375 67.824219 179.761719 67.84375 179.761719 67.960938 C 179.761719 68.019531 179.761719 68.039062 180.074219 68.351562 C 181.871094 70.167969 182.867188 73.117188 182.867188 76.789062 C 182.867188 80.265625 182.027344 83.253906 179.957031 85.363281 C 179.761719 85.519531 179.761719 85.558594 179.761719 85.617188 C 179.761719 85.734375 179.859375 85.753906 179.9375 85.753906 C 180.171875 85.753906 181.636719 84.464844 182.515625 82.707031 C 183.433594 80.890625 183.84375 78.957031 183.84375 76.789062 Z M 183.84375 76.789062 "/>
<path style=" stroke:none;fill-rule:nonzero;fill:rgb(0%,0%,0%);fill-opacity:1;" d="M 193.402344 74.347656 L 195.882812 74.347656 L 195.882812 73.292969 L 193.402344 73.292969 L 193.402344 71.027344 L 192.171875 71.027344 L 192.171875 73.292969 L 190.667969 73.292969 L 190.667969 74.347656 L 192.132812 74.347656 L 192.132812 79.171875 C 192.132812 80.207031 192.367188 81.4375 193.597656 81.4375 C 194.808594 81.4375 195.628906 81.027344 196.175781 80.734375 L 195.902344 79.699219 C 195.277344 80.265625 194.613281 80.324219 194.300781 80.324219 C 193.5 80.324219 193.402344 79.484375 193.402344 78.859375 Z M 193.402344 74.347656 "/>
<path style=" stroke:none;fill-rule:nonzero;fill:rgb(0%,0%,0%);fill-opacity:1;" d="M 204.859375 77.316406 C 204.859375 74.894531 203.082031 73.039062 201.03125 73.039062 C 198.921875 73.039062 197.183594 74.933594 197.183594 77.316406 C 197.183594 79.660156 198.960938 81.4375 201.011719 81.4375 C 203.121094 81.4375 204.859375 79.621094 204.859375 77.316406 Z M 201.03125 80.324219 C 199.742188 80.324219 198.53125 79.25 198.53125 77.140625 C 198.53125 74.972656 199.878906 74.113281 201.011719 74.113281 C 202.242188 74.113281 203.511719 75.03125 203.511719 77.140625 C 203.511719 79.347656 202.222656 80.324219 201.03125 80.324219 Z M 201.03125 80.324219 "/>
<path style=" stroke:none;fill-rule:nonzero;fill:rgb(0%,0%,0%);fill-opacity:1;" d="M 213.019531 68.820312 L 211.691406 68.820312 L 211.691406 81.261719 L 213.039062 81.261719 L 213.039062 80.460938 C 213.878906 81.242188 214.757812 81.4375 215.382812 81.4375 C 217.082031 81.4375 218.644531 79.699219 218.644531 77.257812 C 218.644531 75.050781 217.453125 73.117188 215.792969 73.117188 C 215.265625 73.117188 214.113281 73.234375 213.019531 74.132812 Z M 213.039062 75.226562 C 213.371094 74.71875 214.015625 74.191406 214.894531 74.191406 C 215.988281 74.191406 217.277344 75.03125 217.277344 77.257812 C 217.277344 79.601562 215.8125 80.363281 214.71875 80.363281 C 214.210938 80.363281 213.878906 80.1875 213.546875 79.933594 C 213.117188 79.5625 213.039062 79.230469 213.039062 78.9375 Z M 213.039062 75.226562 "/>
<path style=" stroke:none;fill-rule:nonzero;fill:rgb(0%,0%,0%);fill-opacity:1;" d="M 227.042969 77.21875 C 227.042969 76.457031 226.964844 75.363281 226.398438 74.40625 C 225.65625 73.175781 224.40625 73.039062 223.878906 73.039062 C 221.945312 73.039062 220.324219 74.894531 220.324219 77.21875 C 220.324219 79.601562 222.042969 81.4375 224.132812 81.4375 C 224.953125 81.4375 225.949219 81.203125 226.925781 80.5 C 226.925781 80.421875 226.867188 79.855469 226.867188 79.835938 C 226.847656 79.816406 226.828125 79.40625 226.828125 79.347656 C 225.753906 80.246094 224.699219 80.363281 224.171875 80.363281 C 222.785156 80.363281 221.59375 79.132812 221.574219 77.21875 Z M 221.671875 76.261719 C 221.984375 75.050781 222.824219 74.113281 223.878906 74.113281 C 224.445312 74.113281 225.675781 74.367188 225.96875 76.261719 Z M 221.671875 76.261719 "/>
<path style=" stroke:none;fill-rule:nonzero;fill:rgb(0%,0%,0%);fill-opacity:1;" d="M 239.675781 79.328125 C 238.855469 79.992188 237.9375 80.324219 236.941406 80.324219 C 235.4375 80.324219 234.480469 78.996094 234.480469 77.257812 C 234.480469 75.773438 235.203125 74.152344 236.980469 74.152344 C 238.191406 74.152344 238.699219 74.425781 239.460938 74.953125 L 239.675781 73.78125 C 238.640625 73.175781 238.054688 73.039062 236.980469 73.039062 C 234.519531 73.039062 233.113281 75.226562 233.113281 77.257812 C 233.113281 79.5625 234.773438 81.4375 236.921875 81.4375 C 237.800781 81.4375 238.796875 81.222656 239.792969 80.5 C 239.792969 80.460938 239.734375 79.894531 239.714844 79.835938 Z M 239.675781 79.328125 "/>
<path style=" stroke:none;fill-rule:nonzero;fill:rgb(0%,0%,0%);fill-opacity:1;" d="M 248.507812 77.316406 C 248.507812 74.894531 246.730469 73.039062 244.679688 73.039062 C 242.570312 73.039062 240.832031 74.933594 240.832031 77.316406 C 240.832031 79.660156 242.609375 81.4375 244.660156 81.4375 C 246.769531 81.4375 248.507812 79.621094 248.507812 77.316406 Z M 244.679688 80.324219 C 243.390625 80.324219 242.179688 79.25 242.179688 77.140625 C 242.179688 74.972656 243.527344 74.113281 244.660156 74.113281 C 245.890625 74.113281 247.160156 75.03125 247.160156 77.140625 C 247.160156 79.347656 245.871094 80.324219 244.679688 80.324219 Z M 244.679688 80.324219 "/>
<path style=" stroke:none;fill-rule:nonzero;fill:rgb(0%,0%,0%);fill-opacity:1;" d="M 256.734375 75.871094 C 256.734375 74.777344 256.5 73.117188 254.332031 73.117188 C 253.335938 73.117188 252.476562 73.566406 251.792969 74.425781 L 251.792969 73.214844 L 250.523438 73.214844 L 250.523438 81.261719 L 251.871094 81.261719 L 251.871094 76.789062 C 251.871094 75.695312 252.300781 74.191406 253.648438 74.191406 C 255.328125 74.191406 255.367188 75.363281 255.367188 75.988281 L 255.367188 81.261719 L 256.734375 81.261719 Z M 256.734375 75.871094 "/>
<path style=" stroke:none;fill-rule:nonzero;fill:rgb(0%,0%,0%);fill-opacity:1;" d="M 261.203125 74.347656 L 263.683594 74.347656 L 263.683594 73.292969 L 261.203125 73.292969 L 261.203125 71.027344 L 259.972656 71.027344 L 259.972656 73.292969 L 258.46875 73.292969 L 258.46875 74.347656 L 259.933594 74.347656 L 259.933594 79.171875 C 259.933594 80.207031 260.167969 81.4375 261.398438 81.4375 C 262.609375 81.4375 263.429688 81.027344 263.976562 80.734375 L 263.703125 79.699219 C 263.078125 80.265625 262.414062 80.324219 262.101562 80.324219 C 261.300781 80.324219 261.203125 79.484375 261.203125 78.859375 Z M 261.203125 74.347656 "/>
<path style=" stroke:none;fill-rule:nonzero;fill:rgb(0%,0%,0%);fill-opacity:1;" d="M 267.269531 69.09375 L 265.726562 69.09375 L 265.726562 70.636719 L 267.269531 70.636719 Z M 267.171875 73.292969 L 265.84375 73.292969 L 265.84375 81.261719 L 267.171875 81.261719 Z M 267.171875 73.292969 "/>
<path style=" stroke:none;fill-rule:nonzero;fill:rgb(0%,0%,0%);fill-opacity:1;" d="M 276.234375 75.871094 C 276.234375 74.777344 276 73.117188 273.832031 73.117188 C 272.835938 73.117188 271.976562 73.566406 271.292969 74.425781 L 271.292969 73.214844 L 270.023438 73.214844 L 270.023438 81.261719 L 271.371094 81.261719 L 271.371094 76.789062 C 271.371094 75.695312 271.800781 74.191406 273.148438 74.191406 C 274.828125 74.191406 274.867188 75.363281 274.867188 75.988281 L 274.867188 81.261719 L 276.234375 81.261719 Z M 276.234375 75.871094 "/>
<path style=" stroke:none;fill-rule:nonzero;fill:rgb(0%,0%,0%);fill-opacity:1;" d="M 285.234375 73.292969 L 283.867188 73.292969 L 283.867188 78.429688 C 283.867188 79.796875 282.929688 80.460938 281.757812 80.460938 C 280.507812 80.460938 280.371094 79.992188 280.371094 79.191406 L 280.371094 73.292969 L 279.023438 73.292969 L 279.023438 79.269531 C 279.023438 80.558594 279.433594 81.4375 280.898438 81.4375 C 281.40625 81.4375 282.8125 81.359375 283.90625 80.363281 L 283.90625 81.261719 L 285.234375 81.261719 Z M 285.234375 73.292969 "/>
<path style=" stroke:none;fill-rule:nonzero;fill:rgb(0%,0%,0%);fill-opacity:1;" d="M 294.859375 77.316406 C 294.859375 74.894531 293.082031 73.039062 291.03125 73.039062 C 288.921875 73.039062 287.183594 74.933594 287.183594 77.316406 C 287.183594 79.660156 288.960938 81.4375 291.011719 81.4375 C 293.121094 81.4375 294.859375 79.621094 294.859375 77.316406 Z M 291.03125 80.324219 C 289.742188 80.324219 288.53125 79.25 288.53125 77.140625 C 288.53125 74.972656 289.878906 74.113281 291.011719 74.113281 C 292.242188 74.113281 293.511719 75.03125 293.511719 77.140625 C 293.511719 79.347656 292.222656 80.324219 291.03125 80.324219 Z M 291.03125 80.324219 "/>
<path style=" stroke:none;fill-rule:nonzero;fill:rgb(0%,0%,0%);fill-opacity:1;" d="M 303.085938 73.292969 L 301.71875 73.292969 L 301.71875 78.429688 C 301.71875 79.796875 300.78125 80.460938 299.609375 80.460938 C 298.359375 80.460938 298.222656 79.992188 298.222656 79.191406 L 298.222656 73.292969 L 296.875 73.292969 L 296.875 79.269531 C 296.875 80.558594 297.285156 81.4375 298.75 81.4375 C 299.257812 81.4375 300.664062 81.359375 301.757812 80.363281 L 301.757812 81.261719 L 303.085938 81.261719 Z M 303.085938 73.292969 "/>
<path style=" stroke:none;fill-rule:nonzero;fill:rgb(0%,0%,0%);fill-opacity:1;" d="M 310.503906 73.585938 C 309.371094 73.058594 308.394531 73.039062 307.984375 73.039062 C 307.574219 73.039062 305.074219 73.039062 305.074219 75.363281 C 305.074219 76.144531 305.503906 76.691406 305.777344 76.945312 C 306.421875 77.492188 306.871094 77.589844 307.925781 77.804688 C 308.53125 77.921875 309.566406 78.136719 309.566406 79.09375 C 309.566406 80.324219 308.160156 80.324219 307.90625 80.324219 C 307.203125 80.324219 306.148438 80.128906 305.191406 79.425781 L 304.976562 80.65625 C 305.054688 80.714844 306.285156 81.4375 307.925781 81.4375 C 310.25 81.4375 310.796875 80.050781 310.796875 78.976562 C 310.796875 78.078125 310.25 77.492188 310.171875 77.414062 C 309.507812 76.730469 308.960938 76.613281 307.886719 76.398438 C 307.222656 76.28125 306.324219 76.105469 306.324219 75.207031 C 306.324219 74.09375 307.574219 74.09375 307.808594 74.09375 C 308.746094 74.09375 309.507812 74.308594 310.289062 74.757812 Z M 310.503906 73.585938 "/>
<path style=" stroke:none;fill-rule:nonzero;fill:rgb(0%,0%,0%);fill-opacity:1;" d="M 6.699219 97.15625 C 6.699219 95.4375 5.46875 94.1875 3.789062 94.1875 C 2.714844 94.1875 1.914062 94.421875 1.035156 94.929688 L 1.132812 96.121094 C 1.933594 95.535156 2.753906 95.222656 3.789062 95.222656 C 4.609375 95.222656 5.332031 95.886719 5.332031 97.195312 L 5.332031 97.9375 C 4.53125 97.957031 3.457031 98.015625 2.382812 98.367188 C 1.171875 98.796875 0.46875 99.460938 0.46875 100.339844 C 0.46875 101.140625 0.9375 102.585938 2.460938 102.585938 C 3.457031 102.585938 4.707031 102.292969 5.371094 101.746094 L 5.371094 102.410156 L 6.699219 102.410156 Z M 5.332031 100.007812 C 5.332031 100.359375 5.332031 100.789062 4.746094 101.160156 C 4.257812 101.453125 3.652344 101.511719 3.378906 101.511719 C 2.421875 101.511719 1.757812 100.984375 1.757812 100.339844 C 1.757812 99.109375 4.238281 98.835938 5.332031 98.835938 Z M 5.332031 100.007812 "/>
<path style=" stroke:none;fill-rule:nonzero;fill:rgb(0%,0%,0%);fill-opacity:1;" d="M 11.152344 95.496094 L 13.632812 95.496094 L 13.632812 94.441406 L 11.152344 94.441406 L 11.152344 92.175781 L 9.921875 92.175781 L 9.921875 94.441406 L 8.417969 94.441406 L 8.417969 95.496094 L 9.882812 95.496094 L 9.882812 100.320312 C 9.882812 101.355469 10.117188 102.585938 11.347656 102.585938 C 12.558594 102.585938 13.378906 102.175781 13.925781 101.882812 L 13.652344 100.847656 C 13.027344 101.414062 12.363281 101.472656 12.050781 101.472656 C 11.25 101.472656 11.152344 100.632812 11.152344 100.007812 Z M 11.152344 95.496094 "/>
<path style=" stroke:none;fill-rule:nonzero;fill:rgb(0%,0%,0%);fill-opacity:1;" d="M 28.882812 95.085938 C 28.316406 95.203125 28.101562 95.632812 28.101562 95.964844 C 28.101562 96.394531 28.433594 96.550781 28.6875 96.550781 C 29.234375 96.550781 29.605469 96.082031 29.605469 95.59375 C 29.605469 94.851562 28.746094 94.5 27.984375 94.5 C 26.890625 94.5 26.285156 95.574219 26.128906 95.925781 C 25.71875 94.578125 24.605469 94.5 24.273438 94.5 C 22.457031 94.5 21.480469 96.84375 21.480469 97.253906 C 21.480469 97.3125 21.558594 97.410156 21.675781 97.410156 C 21.8125 97.410156 21.851562 97.292969 21.890625 97.234375 C 22.496094 95.242188 23.707031 94.871094 24.214844 94.871094 C 25.035156 94.871094 25.191406 95.613281 25.191406 96.042969 C 25.191406 96.433594 25.09375 96.84375 24.859375 97.703125 L 24.253906 100.164062 C 24 101.238281 23.472656 102.234375 22.515625 102.234375 C 22.4375 102.234375 21.988281 102.234375 21.597656 102 C 22.242188 101.863281 22.398438 101.335938 22.398438 101.121094 C 22.398438 100.769531 22.125 100.554688 21.792969 100.554688 C 21.363281 100.554688 20.894531 100.925781 20.894531 101.492188 C 20.894531 102.253906 21.734375 102.585938 22.496094 102.585938 C 23.355469 102.585938 23.980469 101.902344 24.351562 101.179688 C 24.644531 102.234375 25.523438 102.585938 26.1875 102.585938 C 28.023438 102.585938 29 100.242188 29 99.851562 C 29 99.753906 28.921875 99.675781 28.804688 99.675781 C 28.648438 99.675781 28.628906 99.773438 28.589844 99.910156 C 28.101562 101.492188 27.046875 102.234375 26.246094 102.234375 C 25.621094 102.234375 25.289062 101.765625 25.289062 101.023438 C 25.289062 100.632812 25.347656 100.339844 25.640625 99.167969 L 26.265625 96.726562 C 26.539062 95.652344 27.144531 94.871094 27.964844 94.871094 C 28.003906 94.871094 28.511719 94.871094 28.882812 95.085938 Z M 28.882812 95.085938 "/>
<path style=" stroke:none;fill-rule:nonzero;fill:rgb(0%,0%,0%);fill-opacity:1;" d="M 47.347656 96.609375 C 47.601562 96.609375 47.914062 96.609375 47.914062 96.277344 C 47.914062 95.945312 47.601562 95.945312 47.347656 95.945312 L 36.78125 95.945312 C 36.527344 95.945312 36.214844 95.945312 36.214844 96.257812 C 36.214844 96.609375 36.507812 96.609375 36.78125 96.609375 Z M 47.347656 99.929688 C 47.601562 99.929688 47.914062 99.929688 47.914062 99.617188 C 47.914062 99.265625 47.601562 99.265625 47.347656 99.265625 L 36.78125 99.265625 C 36.527344 99.265625 36.214844 99.265625 36.214844 99.597656 C 36.214844 99.929688 36.507812 99.929688 36.78125 99.929688 Z M 47.347656 99.929688 "/>
<path style=" stroke:none;fill-rule:nonzero;fill:rgb(0%,0%,0%);fill-opacity:1;" d="M 61.878906 99.402344 L 61.488281 99.402344 C 61.429688 99.695312 61.292969 100.691406 61.097656 100.984375 C 60.980469 101.140625 59.964844 101.140625 59.417969 101.140625 L 56.097656 101.140625 C 56.585938 100.730469 57.679688 99.578125 58.148438 99.148438 C 60.882812 96.628906 61.878906 95.710938 61.878906 93.933594 C 61.878906 91.863281 60.238281 90.496094 58.167969 90.496094 C 56.078125 90.496094 54.867188 92.253906 54.867188 93.796875 C 54.867188 94.714844 55.648438 94.714844 55.707031 94.714844 C 56.078125 94.714844 56.546875 94.441406 56.546875 93.875 C 56.546875 93.367188 56.214844 93.035156 55.707031 93.035156 C 55.550781 93.035156 55.511719 93.035156 55.453125 93.054688 C 55.804688 91.824219 56.761719 91.003906 57.933594 91.003906 C 59.457031 91.003906 60.394531 92.273438 60.394531 93.933594 C 60.394531 95.457031 59.515625 96.785156 58.480469 97.9375 L 54.867188 101.980469 L 54.867188 102.410156 L 61.410156 102.410156 Z M 61.878906 99.402344 "/>
</g>
</svg>
