<?xml version="1.0" standalone="no"?>
<!DOCTYPE svg PUBLIC "-//W3C//DTD SVG 20010904//EN"
 "http://www.w3.org/TR/2001/REC-SVG-20010904/DTD/svg10.dtd">
<svg version="1.0" xmlns="http://www.w3.org/2000/svg"
 width="119.387812pt" height="89.097181pt" viewBox="0 0 119.387812 89.097181"
 preserveAspectRatio="xMidYMid meet">
<metadata>
Created by potrace 1.10, written by Peter Selinger 2001-2011
</metadata>
<g transform="translate(-15.600000,114.761779) scale(0.024000,-0.024000)"
fill="#000000" stroke="none">
<g>
<path d="M2600 4738 c0 -58 19 -171 31 -182 10 -11 12 91 3 172 -8 66 -34 74
-34 10z"/>
</g>
<g>
<path d="M2721 4704 c-21 -48 -22 -57 -8 -67 8 -7 18 -25 21 -42 10 -43 34
-75 55 -75 11 0 34 12 51 27 31 26 32 29 27 86 -3 36 -12 66 -23 79 -17 17
-75 48 -93 48 -4 0 -18 -25 -30 -56z m102 -9 c27 -27 31 -74 9 -104 -22 -30
-51 -39 -63 -19 -10 15 -12 122 -2 131 11 12 41 8 56 -8z"/>
</g>
<g>
<path d="M3951 4727 l-43 -10 5 -141 c5 -135 12 -186 26 -186 3 0 5 36 3 80
-4 80 -3 80 22 80 37 0 132 -45 194 -91 58 -44 57 -28 -1 32 -23 24 -62 47
-109 65 -40 15 -75 29 -77 31 -3 2 16 25 42 51 26 26 47 56 47 65 0 15 -39 39
-58 36 -4 -1 -27 -6 -51 -12z m65 -28 c3 -6 -9 -26 -27 -45 -27 -28 -35 -32
-42 -19 -12 22 0 50 26 63 29 14 35 14 43 1z"/>
</g>
<g>
<path d="M1471 4614 c-34 -28 -39 -59 -17 -102 7 -15 19 -51 26 -81 14 -60 39
-91 73 -91 24 0 66 38 86 78 10 19 15 20 32 11 33 -17 32 -5 -6 51 -19 28 -35
57 -35 64 0 7 -16 31 -36 54 -43 50 -77 55 -123 16z m96 -16 c11 -13 28 -37
37 -54 20 -42 5 -58 -43 -44 -43 12 -61 28 -61 52 0 15 5 18 21 13 19 -6 20
-4 14 24 -8 37 4 40 32 9z m35 -157 c-1 -13 -12 -36 -23 -52 -24 -34 -39 -28
-65 24 -24 44 -12 59 43 55 44 -3 48 -5 45 -27z"/>
</g>
<g>
<path d="M3769 4369 c-20 -30 -88 -35 -764 -59 -319 -11 -674 -25 -790 -32
-192 -10 -309 -12 -375 -7 -25 2 -135 -7 -198 -17 -36 -6 -34 -20 5 -35 19 -7
23 -14 18 -32 -4 -12 -69 -157 -145 -322 -267 -580 -532 -1178 -537 -1211 -5
-27 -2 -34 11 -34 19 0 49 60 65 130 14 63 61 173 284 665 270 596 383 822
401 804 8 -8 25 -274 31 -494 6 -214 34 -649 55 -849 6 -55 8 -102 5 -105 -3
-2 -162 -11 -353 -18 -218 -9 -351 -18 -357 -25 -10 -11 324 -6 601 9 l121 6
7 -27 c8 -31 29 -30 34 2 4 28 19 30 262 37 107 3 292 10 410 15 449 20 1091
41 1099 36 5 -3 11 -19 14 -36 9 -41 35 -39 39 3 3 32 4 32 68 39 36 3 237 11
447 17 210 6 389 14 397 17 11 4 22 -4 33 -25 17 -29 41 -47 50 -37 10 10
-108 216 -327 566 -267 428 -504 851 -539 961 -6 20 -22 46 -35 58 l-23 22
-14 -22z m-43 -151 c-3 -51 -13 -210 -22 -353 -8 -143 -19 -307 -24 -365 -5
-58 -12 -230 -16 -382 l-7 -277 -71 -5 c-39 -4 -210 -11 -381 -16 -170 -6
-407 -15 -525 -20 -567 -25 -781 -32 -793 -27 -34 13 -79 576 -93 1159 -6 242
-5 288 7 292 36 13 796 48 1409 66 201 6 370 13 375 15 6 2 41 4 79 4 l69 1
-7 -92z m140 -43 c61 -116 195 -349 316 -550 64 -104 186 -306 272 -449 86
-142 156 -266 156 -276 0 -10 -7 -21 -15 -24 -24 -9 -393 -25 -653 -28 -198
-3 -234 -1 -243 12 -14 21 -4 543 15 750 8 91 17 226 21 300 10 212 25 362 37
378 10 12 16 10 35 -14 13 -16 39 -60 59 -99z"/>
<g>
<path d="M3340 4188 c-24 -52 -24 -58 -5 -94 12 -23 15 -63 14 -189 -1 -188
-1 -185 11 -164 6 10 13 91 16 180 6 138 10 168 26 188 22 29 23 43 2 87 -22
45 -41 43 -64 -8z"/>
</g>
<g>
<path d="M3220 3693 c0 -35 18 -146 31 -195 13 -50 29 -49 29 1 0 45 20 71 55
71 20 0 27 -8 37 -42 l12 -43 7 75 c7 79 4 110 -12 110 -5 0 -14 -11 -21 -25
-12 -26 -72 -60 -88 -50 -6 3 -10 19 -10 34 0 49 -12 91 -26 91 -9 0 -14 -11
-14 -27z"/>
</g>
<g>
<path d="M3285 3278 c17 -149 21 -210 13 -214 -4 -3 -11 2 -14 10 -8 22 -34
20 -34 -1 0 -10 14 -43 32 -73 l31 -54 28 34 c16 19 29 42 29 51 0 9 9 28 20
42 11 14 20 28 20 31 0 14 -26 4 -50 -19 l-27 -26 -6 103 c-7 112 -22 178 -39
178 -7 0 -8 -20 -3 -62z"/>
</g>
</g>
<g>
<path d="M4363 4015 c-12 -31 -10 -242 3 -255 14 -14 28 235 15 259 -9 14 -11
14 -18 -4z"/>
</g>
<g>
<path d="M4443 3928 c-36 -26 -43 -43 -14 -33 17 5 22 -1 31 -37 23 -87 65
-113 111 -67 17 17 20 30 16 66 -9 86 -76 118 -144 71z m116 -40 c21 -38 5
-83 -29 -83 -22 0 -25 5 -28 44 -2 24 -1 50 2 58 9 22 38 12 55 -19z"/>
</g>
<g>
<path d="M880 3778 c0 -38 31 -212 40 -226 14 -21 5 143 -11 200 -9 36 -29 53
-29 26z"/>
</g>
<g>
<path d="M1020 3767 c-8 -7 -28 -28 -45 -46 l-30 -33 28 7 c25 7 27 5 27 -21
1 -40 34 -110 59 -124 40 -21 91 28 91 88 0 57 -24 99 -71 121 -24 12 -43 21
-43 21 -1 0 -8 -6 -16 -13z m82 -54 c9 -10 19 -33 23 -51 14 -65 -51 -113 -73
-54 -17 45 -23 83 -17 103 8 24 47 25 67 2z"/>
</g>
<g>
<path d="M4890 2845 c-43 -31 -70 -73 -70 -106 0 -33 14 -45 81 -67 29 -10 54
-23 56 -29 4 -12 -95 -53 -130 -53 -30 0 -51 -15 -42 -30 17 -27 162 20 205
66 18 18 20 26 11 38 -12 15 -49 31 -92 40 -15 3 -37 14 -49 24 l-23 18 33 38
c24 26 36 34 44 26 7 -7 7 -16 -2 -31 -21 -34 -7 -33 22 1 31 38 36 90 8 90
-10 0 -33 -11 -52 -25z"/>
</g>
<g>
<path d="M4207 2743 c3 -10 21 -34 40 -54 l35 -37 -21 -40 c-29 -56 -26 -63 9
-23 l30 35 28 -27 c26 -25 52 -35 52 -21 0 3 -11 19 -25 36 -25 30 -33 72 -16
83 6 3 15 -3 20 -12 8 -14 9 -7 5 27 -4 25 -9 47 -11 50 -3 3 -15 -7 -28 -22
-13 -16 -27 -28 -31 -28 -3 0 -19 11 -36 25 -35 29 -60 33 -51 8z"/>
</g>
<g>
<path d="M2820 2586 c0 -77 4 -122 14 -140 l13 -27 7 32 c8 40 8 212 0 233 -3
9 -12 16 -20 16 -11 0 -14 -23 -14 -114z"/>
</g>
<g>
<path d="M2945 2630 c-17 -79 33 -177 84 -165 40 9 61 41 61 91 0 81 -22 104
-102 104 -32 0 -37 -3 -43 -30z m110 -17 c12 -12 15 -26 12 -51 -13 -76 -63
-84 -86 -13 -13 42 -13 45 9 63 28 22 44 23 65 1z"/>
</g>
<g>
<path d="M4370 2645 c0 -8 4 -15 10 -15 5 0 7 7 4 15 -4 8 -8 15 -10 15 -2 0
-4 -7 -4 -15z"/>
</g>
<g>
<path d="M1410 2607 c0 -7 13 -29 30 -49 l30 -36 -26 -57 c-13 -32 -23 -60
-20 -62 3 -3 17 13 33 36 15 22 32 40 36 41 4 0 24 -16 44 -35 20 -19 38 -33
41 -31 2 3 -10 26 -27 52 -31 48 -40 84 -20 84 14 0 7 52 -8 57 -6 2 -14 -5
-18 -16 -9 -28 -26 -26 -55 4 -26 27 -40 32 -40 12z"/>
</g>
<g>
<path d="M650 2580 c0 -5 4 -29 10 -52 5 -24 17 -83 25 -133 19 -105 43 -185
56 -185 12 0 12 2 -5 69 -8 31 -17 76 -20 101 -6 45 -6 45 39 74 26 16 53 39
62 53 14 21 14 25 -1 42 -29 32 -166 58 -166 31z m137 -44 c9 -9 -16 -41 -45
-58 -27 -16 -31 -16 -36 -2 -8 22 -8 59 2 68 7 8 70 1 79 -8z"/>
</g>
<g>
<path d="M4950 2199 c-74 -10 -168 -18 -208 -17 -54 1 -77 -3 -83 -13 -25 -38
-139 -502 -139 -564 0 -13 -5 -16 -22 -11 -56 16 -90 18 -114 6 -30 -17 -31
-40 -1 -68 24 -23 51 -32 29 -10 -18 18 -14 46 8 53 26 8 74 -26 90 -64 11
-27 40 -51 40 -33 1 169 20 315 66 495 33 133 44 153 91 161 134 23 372 56
451 62 50 4 92 11 92 15 0 14 -155 8 -300 -12z"/>
</g>
<g>
<path d="M5432 1978 c-13 -13 -16 -50 -5 -62 4 -3 17 6 28 20 32 40 37 15 10
-43 -13 -28 -21 -54 -17 -57 13 -14 185 1 176 15 -3 5 -24 9 -47 9 -23 0 -52
3 -63 6 -21 5 -21 7 -6 36 21 44 7 82 -33 86 -17 2 -36 -3 -43 -10z"/>
</g>
<g>
<path d="M4771 1857 c-13 -73 -15 -257 -3 -257 4 0 13 66 20 147 7 80 14 151
15 156 1 5 -3 11 -9 14 -8 2 -16 -20 -23 -60z"/>
</g>
<g>
<path d="M4130 1876 c0 -27 15 -42 25 -26 11 19 33 -8 56 -68 31 -83 29 -192
-6 -300 -15 -46 -25 -86 -23 -88 9 -8 48 75 63 131 33 128 11 283 -50 349 -31
34 -65 35 -65 2z"/>
</g>
<g>
<path d="M5344 1848 c-9 -18 -18 -34 -19 -36 -2 -2 -22 9 -44 24 -49 32 -67
24 -56 -25 6 -26 9 -29 25 -19 14 9 22 9 34 -1 21 -18 20 -56 -4 -127 -12 -32
-19 -70 -18 -84 2 -19 10 -8 31 47 16 40 33 76 39 79 5 4 27 -11 49 -32 48
-47 52 -27 8 39 -32 48 -38 105 -10 99 10 -2 12 4 7 20 -3 13 -6 29 -6 36 0
23 -19 12 -36 -20z"/>
</g>
<g>
<path d="M4861 1844 c-12 -15 -21 -35 -21 -46 0 -24 40 -149 53 -165 15 -21
52 -15 77 12 19 21 22 31 16 70 -8 62 -34 114 -63 128 -12 5 -23 14 -23 19 0
16 -19 8 -39 -18z m96 -115 c4 -35 1 -50 -15 -69 l-21 -25 -15 37 c-16 38 -22
129 -9 142 15 15 55 -42 60 -85z"/>
</g>
<g>
<path d="M1653 1798 c-21 -26 -33 -84 -44 -197 -15 -177 2 -280 55 -316 31
-22 42 -18 19 8 -44 47 -48 67 -46 202 2 181 9 232 34 238 22 6 25 35 6 61
-11 15 -15 15 -24 4z"/>
</g>
<g>
<path d="M2040 1791 c0 -10 7 -24 16 -32 40 -33 74 -139 74 -230 0 -79 -30
-201 -70 -286 -16 -35 -27 -63 -24 -63 13 0 68 105 91 175 35 110 37 253 4
338 -33 85 -91 147 -91 98z"/>
</g>
<g>
<path d="M2740 1767 c0 -24 -2 -100 -5 -168 -4 -90 -2 -116 5 -94 12 38 28
233 22 274 -7 46 -22 37 -22 -12z"/>
</g>
<g>
<path d="M3756 1794 c-9 -25 -7 -64 4 -64 6 0 10 6 10 13 0 7 5 18 12 25 18
18 48 -15 48 -54 0 -24 -11 -45 -41 -80 -53 -61 -42 -72 48 -50 37 10 79 24
93 31 l25 14 -25 0 c-14 0 -42 -3 -62 -8 -42 -10 -47 -2 -23 39 35 62 3 150
-55 150 -16 0 -30 -7 -34 -16z"/>
</g>
<g>
<path d="M5391 1786 c-1 -11 2 -17 5 -13 3 3 4 12 1 19 -3 8 -6 5 -6 -6z"/>
</g>
<g>
<path d="M3197 1764 c-15 -15 -4 -189 19 -298 5 -21 9 -25 14 -15 9 17 -7 285
-18 305 -5 8 -11 11 -15 8z"/>
</g>
<g>
<path d="M751 1734 c-12 -15 -21 -37 -21 -50 0 -12 -11 -74 -25 -138 -29 -135
-32 -185 -11 -167 8 6 19 24 26 40 11 28 54 56 69 46 5 -2 14 -26 20 -52 20
-75 31 -97 42 -86 7 7 5 30 -5 71 -9 33 -13 67 -10 76 8 21 31 20 37 -1 3 -14
6 -12 15 10 6 15 16 27 21 27 17 0 50 -51 57 -86 7 -38 22 -53 34 -34 4 6 10
44 13 82 7 85 20 104 47 68 16 -21 20 -22 20 -7 0 29 -19 57 -40 57 -13 0 -27
-14 -40 -40 -23 -46 -30 -48 -55 -20 -22 24 -47 25 -81 3 -22 -14 -27 -14 -39
-2 -16 17 -56 179 -44 179 12 0 11 37 0 45 -5 3 -19 -7 -30 -21z m23 -146 c11
-41 6 -76 -10 -82 -26 -10 -32 1 -23 46 4 24 8 46 9 51 1 16 18 5 24 -15z"/>
</g>
<g>
<path d="M4046 1739 c-9 -14 -21 -19 -33 -15 -17 5 -19 0 -19 -56 0 -35 -3
-81 -7 -103 -8 -39 -7 -39 24 20 l32 59 31 -37 c50 -60 66 -41 21 25 -27 41
-37 89 -11 52 13 -17 13 -13 3 29 -12 52 -19 57 -41 26z"/>
</g>
<g>
<path d="M5061 1751 c-8 -5 -11 -16 -8 -24 5 -13 11 -13 44 -1 21 7 56 13 78
14 30 0 36 3 25 10 -19 12 -120 13 -139 1z"/>
</g>
<g>
<path d="M3002 1726 c-37 -81 -42 -298 -9 -350 10 -15 27 -26 39 -26 l21 0
-21 23 c-46 49 -51 192 -10 289 20 48 21 79 2 85 -6 2 -16 -7 -22 -21z"/>
</g>
<g>
<path d="M3583 1698 c2 -38 -1 -43 -21 -46 -33 -5 -25 -38 8 -34 31 3 40 -12
40 -70 0 -26 5 -50 10 -53 6 -4 10 20 10 64 l0 70 38 3 c47 4 48 21 2 28 -28
4 -38 12 -53 43 -23 49 -36 47 -34 -5z"/>
</g>
<g>
<path d="M1849 1683 c-29 -75 -54 -271 -37 -289 12 -11 36 15 43 47 8 37 19
37 35 -1 17 -41 35 -39 25 3 -15 65 -12 71 35 95 l45 22 -55 -2 -55 -3 -3 48
c-2 27 2 54 8 62 13 16 3 45 -16 45 -8 0 -19 -12 -25 -27z"/>
</g>
<g>
<path d="M3321 1694 c-21 -15 -23 -23 -19 -75 7 -99 68 -149 119 -98 18 18 21
30 17 74 -8 94 -60 138 -117 99z m73 -36 c29 -41 15 -128 -20 -128 -8 0 -22
17 -30 37 -13 30 -14 44 -5 75 13 43 33 48 55 16z"/>
</g>
<g>
<path d="M2375 1581 c-49 -12 -79 -31 -66 -44 7 -7 36 -5 98 7 96 19 105 23
83 36 -17 11 -71 11 -115 1z"/>
</g>
<g>
<path d="M1363 1540 c-17 -17 -35 -48 -42 -69 -14 -47 -44 -58 -97 -36 -34 14
-36 16 -29 54 9 57 -8 59 -61 7 -47 -47 -50 -70 -9 -60 16 4 36 -1 58 -15 46
-28 147 -29 199 -1 l36 19 21 -34 c21 -36 50 -50 35 -17 -4 9 -8 46 -9 81 -1
54 -5 67 -24 82 -32 26 -44 24 -78 -11z m57 -17 c0 -10 -42 -53 -52 -53 -17 0
-7 29 14 44 24 17 38 20 38 9z"/>
</g>
<g>
<path d="M2380 1506 c-65 -14 -86 -24 -72 -38 9 -9 147 18 202 41 22 8 18 10
-25 10 -27 -1 -75 -6 -105 -13z"/>
</g>
<g>
<path d="M2611 1427 c-28 -14 -40 -37 -19 -37 7 0 35 7 62 15 27 8 64 15 83
15 20 0 32 4 28 10 -9 14 -125 12 -154 -3z"/>
</g>
<g>
<path d="M2615 1286 c-12 -9 -16 -19 -11 -32 7 -18 8 -18 17 -1 12 21 42 22
59 2 10 -12 7 -23 -14 -57 -14 -24 -40 -60 -58 -81 -20 -23 -28 -41 -22 -47 9
-9 268 41 281 54 10 10 -62 7 -138 -5 -39 -6 -72 -9 -74 -7 -2 2 12 28 31 58
37 59 42 90 18 114 -19 20 -64 21 -89 2z"/>
</g>
</g>
</svg>
