<?xml version="1.0" encoding="UTF-8"?>
<svg xmlns="http://www.w3.org/2000/svg" xmlns:xlink="http://www.w3.org/1999/xlink" width="307.31974pt" height="76.987896pt" viewBox="0 0 307.31974 76.987896" version="1.1">
<g id="surface1">
<path style=" stroke:none;fill-rule:nonzero;fill:rgb(0%,0%,0%);fill-opacity:1;" d="M 10.035156 2.910156 C 10.054688 2.832031 10.09375 2.734375 10.09375 2.636719 C 10.09375 2.460938 9.898438 2.460938 9.859375 2.460938 C 9.859375 2.460938 8.980469 2.539062 8.882812 2.539062 C 8.570312 2.558594 8.316406 2.597656 7.984375 2.617188 C 7.535156 2.65625 7.417969 2.675781 7.417969 2.988281 C 7.417969 3.183594 7.554688 3.183594 7.808594 3.183594 C 8.6875 3.183594 8.707031 3.339844 8.707031 3.515625 C 8.707031 3.632812 8.667969 3.769531 8.648438 3.828125 L 7.554688 8.183594 C 7.359375 7.714844 6.871094 6.992188 5.933594 6.992188 C 3.921875 6.992188 1.734375 9.609375 1.734375 12.265625 C 1.734375 14.042969 2.769531 15.078125 3.980469 15.078125 C 4.976562 15.078125 5.816406 14.316406 6.324219 13.710938 C 6.5 14.785156 7.339844 15.078125 7.886719 15.078125 C 8.414062 15.078125 8.84375 14.765625 9.175781 14.121094 C 9.449219 13.496094 9.703125 12.402344 9.703125 12.34375 C 9.703125 12.246094 9.644531 12.167969 9.527344 12.167969 C 9.371094 12.167969 9.351562 12.265625 9.273438 12.539062 C 9 13.59375 8.667969 14.726562 7.925781 14.726562 C 7.417969 14.726562 7.378906 14.257812 7.378906 13.90625 C 7.378906 13.828125 7.378906 13.457031 7.496094 12.949219 Z M 6.402344 12.773438 C 6.324219 13.066406 6.324219 13.105469 6.070312 13.457031 C 5.679688 13.945312 4.878906 14.726562 4.039062 14.726562 C 3.316406 14.726562 2.886719 14.0625 2.886719 13.007812 C 2.886719 12.011719 3.453125 10 3.785156 9.257812 C 4.410156 8.007812 5.25 7.363281 5.933594 7.363281 C 7.125 7.363281 7.359375 8.828125 7.359375 8.964844 C 7.359375 8.984375 7.300781 9.21875 7.28125 9.257812 Z M 6.402344 12.773438 "/>
<path style=" stroke:none;fill-rule:nonzero;fill:rgb(0%,0%,0%);fill-opacity:1;" d="M 11.742188 7.34375 L 13.070312 6.054688 C 15.003906 4.335938 15.746094 3.671875 15.746094 2.421875 C 15.746094 0.996094 14.632812 0 13.109375 0 C 11.703125 0 10.785156 1.152344 10.785156 2.265625 C 10.785156 2.949219 11.410156 2.949219 11.449219 2.949219 C 11.664062 2.949219 12.09375 2.8125 12.09375 2.285156 C 12.09375 1.972656 11.859375 1.640625 11.429688 1.640625 C 11.332031 1.640625 11.3125 1.640625 11.273438 1.660156 C 11.546875 0.839844 12.230469 0.390625 12.953125 0.390625 C 14.085938 0.390625 14.613281 1.40625 14.613281 2.421875 C 14.613281 3.417969 14.007812 4.394531 13.304688 5.175781 L 10.921875 7.832031 C 10.785156 7.96875 10.785156 8.007812 10.785156 8.300781 L 15.414062 8.300781 L 15.746094 6.132812 L 15.453125 6.132812 C 15.375 6.503906 15.296875 7.050781 15.160156 7.246094 C 15.082031 7.34375 14.261719 7.34375 13.988281 7.34375 Z M 11.742188 7.34375 "/>
<path style=" stroke:none;fill-rule:nonzero;fill:rgb(0%,0%,0%);fill-opacity:1;" d="M 20.109375 12.910156 C 19.484375 13.964844 18.878906 14.335938 18.019531 14.375 C 17.824219 14.394531 17.667969 14.394531 17.667969 14.726562 C 17.667969 14.824219 17.765625 14.902344 17.882812 14.902344 C 18.214844 14.902344 19.015625 14.863281 19.347656 14.863281 C 19.855469 14.863281 20.441406 14.902344 20.929688 14.902344 C 21.046875 14.902344 21.261719 14.902344 21.261719 14.570312 C 21.261719 14.394531 21.105469 14.375 21.007812 14.375 C 20.597656 14.355469 20.246094 14.199219 20.246094 13.769531 C 20.246094 13.515625 20.363281 13.320312 20.597656 12.929688 L 21.964844 10.664062 L 26.535156 10.664062 C 26.554688 10.839844 26.554688 10.976562 26.574219 11.132812 C 26.613281 11.601562 26.828125 13.476562 26.828125 13.808594 C 26.828125 14.355469 25.910156 14.375 25.636719 14.375 C 25.441406 14.375 25.246094 14.375 25.246094 14.707031 C 25.246094 14.902344 25.402344 14.902344 25.5 14.902344 C 25.8125 14.902344 26.164062 14.863281 26.476562 14.863281 L 27.492188 14.863281 C 28.585938 14.863281 29.386719 14.902344 29.40625 14.902344 C 29.523438 14.902344 29.71875 14.902344 29.71875 14.570312 C 29.71875 14.375 29.5625 14.375 29.289062 14.375 C 28.3125 14.375 28.292969 14.21875 28.234375 13.691406 L 27.140625 2.5 C 27.101562 2.128906 27.023438 2.109375 26.828125 2.109375 C 26.652344 2.109375 26.554688 2.128906 26.378906 2.402344 Z M 22.257812 10.15625 L 25.871094 4.121094 L 26.476562 10.15625 Z M 22.257812 10.15625 "/>
<path style=" stroke:none;fill-rule:nonzero;fill:rgb(0%,0%,0%);fill-opacity:1;" d="M 0.996094 22.113281 L 30.246094 22.113281 L 30.246094 22.867188 L 0.996094 22.867188 Z M 0.996094 22.113281 "/>
<path style=" stroke:none;fill-rule:nonzero;fill:rgb(0%,0%,0%);fill-opacity:1;" d="M 11.683594 27.359375 C 11.703125 27.28125 11.742188 27.183594 11.742188 27.085938 C 11.742188 26.910156 11.546875 26.910156 11.507812 26.910156 C 11.507812 26.910156 10.628906 26.988281 10.53125 26.988281 C 10.21875 27.007812 9.964844 27.046875 9.632812 27.066406 C 9.183594 27.105469 9.066406 27.125 9.066406 27.4375 C 9.066406 27.632812 9.203125 27.632812 9.457031 27.632812 C 10.335938 27.632812 10.355469 27.789062 10.355469 27.964844 C 10.355469 28.082031 10.316406 28.21875 10.296875 28.277344 L 9.203125 32.632812 C 9.007812 32.164062 8.519531 31.441406 7.582031 31.441406 C 5.570312 31.441406 3.382812 34.058594 3.382812 36.714844 C 3.382812 38.492188 4.417969 39.527344 5.628906 39.527344 C 6.625 39.527344 7.464844 38.765625 7.972656 38.160156 C 8.148438 39.234375 8.988281 39.527344 9.535156 39.527344 C 10.0625 39.527344 10.492188 39.214844 10.824219 38.570312 C 11.097656 37.945312 11.351562 36.851562 11.351562 36.792969 C 11.351562 36.695312 11.292969 36.617188 11.175781 36.617188 C 11.019531 36.617188 11 36.714844 10.921875 36.988281 C 10.648438 38.042969 10.316406 39.175781 9.574219 39.175781 C 9.066406 39.175781 9.027344 38.707031 9.027344 38.355469 C 9.027344 38.277344 9.027344 37.90625 9.144531 37.398438 Z M 8.050781 37.222656 C 7.972656 37.515625 7.972656 37.554688 7.71875 37.90625 C 7.328125 38.394531 6.527344 39.175781 5.6875 39.175781 C 4.964844 39.175781 4.535156 38.511719 4.535156 37.457031 C 4.535156 36.460938 5.101562 34.449219 5.433594 33.707031 C 6.058594 32.457031 6.898438 31.8125 7.582031 31.8125 C 8.773438 31.8125 9.007812 33.277344 9.007812 33.414062 C 9.007812 33.433594 8.949219 33.667969 8.929688 33.707031 Z M 8.050781 37.222656 "/>
<path style=" stroke:none;fill-rule:nonzero;fill:rgb(0%,0%,0%);fill-opacity:1;" d="M 20.308594 32.027344 C 19.742188 32.144531 19.527344 32.574219 19.527344 32.90625 C 19.527344 33.335938 19.859375 33.492188 20.113281 33.492188 C 20.660156 33.492188 21.03125 33.023438 21.03125 32.535156 C 21.03125 31.792969 20.171875 31.441406 19.410156 31.441406 C 18.316406 31.441406 17.710938 32.515625 17.554688 32.867188 C 17.144531 31.519531 16.03125 31.441406 15.699219 31.441406 C 13.882812 31.441406 12.90625 33.785156 12.90625 34.195312 C 12.90625 34.253906 12.984375 34.351562 13.101562 34.351562 C 13.238281 34.351562 13.277344 34.234375 13.316406 34.175781 C 13.921875 32.183594 15.132812 31.8125 15.640625 31.8125 C 16.460938 31.8125 16.617188 32.554688 16.617188 32.984375 C 16.617188 33.375 16.519531 33.785156 16.285156 34.644531 L 15.679688 37.105469 C 15.425781 38.179688 14.898438 39.175781 13.941406 39.175781 C 13.863281 39.175781 13.414062 39.175781 13.023438 38.941406 C 13.667969 38.804688 13.824219 38.277344 13.824219 38.0625 C 13.824219 37.710938 13.550781 37.496094 13.21875 37.496094 C 12.789062 37.496094 12.320312 37.867188 12.320312 38.433594 C 12.320312 39.195312 13.160156 39.527344 13.921875 39.527344 C 14.78125 39.527344 15.40625 38.84375 15.777344 38.121094 C 16.070312 39.175781 16.949219 39.527344 17.613281 39.527344 C 19.449219 39.527344 20.425781 37.183594 20.425781 36.792969 C 20.425781 36.695312 20.347656 36.617188 20.230469 36.617188 C 20.074219 36.617188 20.054688 36.714844 20.015625 36.851562 C 19.527344 38.433594 18.472656 39.175781 17.671875 39.175781 C 17.046875 39.175781 16.714844 38.707031 16.714844 37.964844 C 16.714844 37.574219 16.773438 37.28125 17.066406 36.109375 L 17.691406 33.667969 C 17.964844 32.59375 18.570312 31.8125 19.390625 31.8125 C 19.429688 31.8125 19.9375 31.8125 20.308594 32.027344 Z M 20.308594 32.027344 "/>
<path style=" stroke:none;fill-rule:nonzero;fill:rgb(0%,0%,0%);fill-opacity:1;" d="M 23.445312 33.144531 L 24.773438 31.855469 C 26.707031 30.136719 27.449219 29.472656 27.449219 28.222656 C 27.449219 26.796875 26.335938 25.800781 24.8125 25.800781 C 23.40625 25.800781 22.488281 26.953125 22.488281 28.066406 C 22.488281 28.75 23.113281 28.75 23.152344 28.75 C 23.367188 28.75 23.796875 28.613281 23.796875 28.085938 C 23.796875 27.773438 23.5625 27.441406 23.132812 27.441406 C 23.035156 27.441406 23.015625 27.441406 22.976562 27.460938 C 23.25 26.640625 23.933594 26.191406 24.65625 26.191406 C 25.789062 26.191406 26.316406 27.207031 26.316406 28.222656 C 26.316406 29.21875 25.710938 30.195312 25.007812 30.976562 L 22.625 33.632812 C 22.488281 33.769531 22.488281 33.808594 22.488281 34.101562 L 27.117188 34.101562 L 27.449219 31.933594 L 27.15625 31.933594 C 27.078125 32.304688 27 32.851562 26.863281 33.046875 C 26.785156 33.144531 25.964844 33.144531 25.691406 33.144531 Z M 23.445312 33.144531 "/>
<path style=" stroke:none;fill-rule:nonzero;fill:rgb(0%,0%,0%);fill-opacity:1;" d="M 48.820312 21.25 C 49.074219 21.25 49.386719 21.25 49.386719 20.917969 C 49.386719 20.585938 49.074219 20.585938 48.820312 20.585938 L 38.253906 20.585938 C 38 20.585938 37.6875 20.585938 37.6875 20.898438 C 37.6875 21.25 37.980469 21.25 38.253906 21.25 Z M 48.820312 24.570312 C 49.074219 24.570312 49.386719 24.570312 49.386719 24.257812 C 49.386719 23.90625 49.074219 23.90625 48.820312 23.90625 L 38.253906 23.90625 C 38 23.90625 37.6875 23.90625 37.6875 24.238281 C 37.6875 24.570312 37.980469 24.570312 38.253906 24.570312 Z M 48.820312 24.570312 "/>
<path style=" stroke:none;fill-rule:nonzero;fill:rgb(0%,0%,0%);fill-opacity:1;" d="M 67.128906 22.929688 C 67.441406 22.929688 67.753906 22.929688 67.753906 22.578125 C 67.753906 22.207031 67.441406 22.207031 67.128906 22.207031 L 57.421875 22.207031 C 57.128906 22.207031 56.796875 22.207031 56.796875 22.578125 C 56.796875 22.929688 57.128906 22.929688 57.421875 22.929688 Z M 67.128906 22.929688 "/>
<path style=" stroke:none;fill-rule:nonzero;fill:rgb(0%,0%,0%);fill-opacity:1;" d="M 77.152344 24.042969 L 76.761719 24.042969 C 76.703125 24.335938 76.566406 25.332031 76.371094 25.625 C 76.253906 25.78125 75.238281 25.78125 74.691406 25.78125 L 71.371094 25.78125 C 71.859375 25.371094 72.953125 24.21875 73.421875 23.789062 C 76.15625 21.269531 77.152344 20.351562 77.152344 18.574219 C 77.152344 16.503906 75.511719 15.136719 73.441406 15.136719 C 71.351562 15.136719 70.140625 16.894531 70.140625 18.4375 C 70.140625 19.355469 70.921875 19.355469 70.980469 19.355469 C 71.351562 19.355469 71.820312 19.082031 71.820312 18.515625 C 71.820312 18.007812 71.488281 17.675781 70.980469 17.675781 C 70.824219 17.675781 70.785156 17.675781 70.726562 17.695312 C 71.078125 16.464844 72.035156 15.644531 73.207031 15.644531 C 74.730469 15.644531 75.667969 16.914062 75.667969 18.574219 C 75.667969 20.097656 74.789062 21.425781 73.753906 22.578125 L 70.140625 26.621094 L 70.140625 27.050781 L 76.683594 27.050781 Z M 77.152344 24.042969 "/>
<path style=" stroke:none;fill-rule:nonzero;fill:rgb(0%,0%,0%);fill-opacity:1;" d="M 85.085938 26.632812 L 81.941406 19.660156 C 81.804688 19.367188 81.726562 19.367188 81.667969 19.367188 C 81.648438 19.367188 81.550781 19.367188 81.355469 19.503906 L 79.65625 20.8125 C 79.421875 20.988281 79.421875 21.027344 79.421875 21.085938 C 79.421875 21.183594 79.480469 21.28125 79.597656 21.28125 C 79.714844 21.28125 80.007812 21.027344 80.203125 20.890625 C 80.320312 20.8125 80.59375 20.597656 80.789062 20.460938 L 84.324219 28.234375 C 84.441406 28.507812 84.539062 28.507812 84.695312 28.507812 C 84.96875 28.507812 85.007812 28.410156 85.144531 28.15625 L 93.289062 11.300781 C 93.40625 11.046875 93.40625 10.96875 93.40625 10.949219 C 93.40625 10.753906 93.269531 10.578125 93.054688 10.578125 C 92.898438 10.578125 92.78125 10.675781 92.644531 10.96875 Z M 85.085938 26.632812 "/>
<path style=" stroke:none;fill-rule:nonzero;fill:rgb(0%,0%,0%);fill-opacity:1;" d="M 92.945312 10.566406 L 101.792969 10.566406 L 101.792969 11.320312 L 92.945312 11.320312 Z M 92.945312 10.566406 "/>
<path style=" stroke:none;fill-rule:nonzero;fill:rgb(0%,0%,0%);fill-opacity:1;" d="M 96.261719 20.605469 C 95.949219 20.625 95.890625 20.644531 95.890625 20.820312 C 95.890625 20.996094 95.96875 20.996094 96.300781 20.996094 L 97.121094 20.996094 C 98.644531 20.996094 99.328125 22.246094 99.328125 23.964844 C 99.328125 26.308594 98.097656 26.933594 97.21875 26.933594 C 96.359375 26.933594 94.894531 26.523438 94.386719 25.351562 C 94.953125 25.429688 95.480469 25.117188 95.480469 24.472656 C 95.480469 23.945312 95.089844 23.59375 94.601562 23.59375 C 94.171875 23.59375 93.703125 23.847656 93.703125 24.53125 C 93.703125 26.113281 95.285156 27.421875 97.277344 27.421875 C 99.40625 27.421875 100.988281 25.800781 100.988281 23.984375 C 100.988281 22.34375 99.660156 21.035156 97.941406 20.742188 C 99.503906 20.292969 100.5 18.984375 100.5 17.578125 C 100.5 16.171875 99.035156 15.136719 97.296875 15.136719 C 95.5 15.136719 94.171875 16.230469 94.171875 17.539062 C 94.171875 18.242188 94.738281 18.398438 95.011719 18.398438 C 95.382812 18.398438 95.8125 18.125 95.8125 17.578125 C 95.8125 17.011719 95.382812 16.757812 94.992188 16.757812 C 94.875 16.757812 94.835938 16.757812 94.796875 16.777344 C 95.480469 15.566406 97.160156 15.566406 97.238281 15.566406 C 97.84375 15.566406 98.996094 15.820312 98.996094 17.578125 C 98.996094 17.929688 98.957031 18.925781 98.429688 19.707031 C 97.882812 20.488281 97.277344 20.546875 96.789062 20.566406 Z M 96.261719 20.605469 "/>
<path style=" stroke:none;fill-rule:nonzero;fill:rgb(0%,0%,0%);fill-opacity:1;" d="M 119.320312 19.082031 L 118.011719 19.082031 L 116.9375 22.734375 C 116.683594 23.59375 116.175781 25.273438 116.097656 26.054688 L 116.078125 26.054688 C 116.039062 25.625 115.746094 24.414062 115.375 23.144531 L 114.183594 19.082031 L 112.953125 19.082031 L 111.917969 22.597656 C 111.605469 23.710938 111.175781 25.253906 111.117188 26.015625 L 111.097656 26.015625 C 111.078125 25.664062 110.882812 24.726562 110.550781 23.515625 L 109.28125 19.082031 L 107.914062 19.082031 L 110.316406 27.050781 L 111.703125 27.050781 C 112.367188 24.785156 113.421875 21.386719 113.519531 20.136719 L 113.539062 20.136719 C 113.578125 20.859375 113.929688 22.148438 114.066406 22.578125 L 115.335938 27.050781 L 116.917969 27.050781 Z M 119.320312 19.082031 "/>
<path style=" stroke:none;fill-rule:nonzero;fill:rgb(0%,0%,0%);fill-opacity:1;" d="M 127.257812 21.660156 C 127.257812 20.566406 127.023438 18.90625 124.855469 18.90625 C 123.625 18.90625 122.804688 19.609375 122.375 20.15625 L 122.375 14.609375 L 121.046875 14.609375 L 121.046875 27.050781 L 122.394531 27.050781 L 122.394531 22.578125 C 122.394531 21.484375 122.824219 19.980469 124.171875 19.980469 C 125.851562 19.980469 125.890625 21.152344 125.890625 21.777344 L 125.890625 27.050781 L 127.257812 27.050781 Z M 127.257812 21.660156 "/>
<path style=" stroke:none;fill-rule:nonzero;fill:rgb(0%,0%,0%);fill-opacity:1;" d="M 135.964844 23.007812 C 135.964844 22.246094 135.886719 21.152344 135.320312 20.195312 C 134.578125 18.964844 133.328125 18.828125 132.800781 18.828125 C 130.867188 18.828125 129.246094 20.683594 129.246094 23.007812 C 129.246094 25.390625 130.964844 27.226562 133.054688 27.226562 C 133.875 27.226562 134.871094 26.992188 135.847656 26.289062 C 135.847656 26.210938 135.789062 25.644531 135.789062 25.625 C 135.769531 25.605469 135.75 25.195312 135.75 25.136719 C 134.675781 26.035156 133.621094 26.152344 133.09375 26.152344 C 131.707031 26.152344 130.515625 24.921875 130.496094 23.007812 Z M 130.59375 22.050781 C 130.90625 20.839844 131.746094 19.902344 132.800781 19.902344 C 133.367188 19.902344 134.597656 20.15625 134.890625 22.050781 Z M 130.59375 22.050781 "/>
<path style=" stroke:none;fill-rule:nonzero;fill:rgb(0%,0%,0%);fill-opacity:1;" d="M 144.058594 21.660156 C 144.058594 20.566406 143.824219 18.90625 141.65625 18.90625 C 140.660156 18.90625 139.800781 19.355469 139.117188 20.214844 L 139.117188 19.003906 L 137.847656 19.003906 L 137.847656 27.050781 L 139.195312 27.050781 L 139.195312 22.578125 C 139.195312 21.484375 139.625 19.980469 140.972656 19.980469 C 142.652344 19.980469 142.691406 21.152344 142.691406 21.777344 L 142.691406 27.050781 L 144.058594 27.050781 Z M 144.058594 21.660156 "/>
<path style=" stroke:none;fill-rule:nonzero;fill:rgb(0%,0%,0%);fill-opacity:1;" d="M 159.65625 19.726562 C 159.089844 19.84375 158.875 20.273438 158.875 20.605469 C 158.875 21.035156 159.207031 21.191406 159.460938 21.191406 C 160.007812 21.191406 160.378906 20.722656 160.378906 20.234375 C 160.378906 19.492188 159.519531 19.140625 158.757812 19.140625 C 157.664062 19.140625 157.058594 20.214844 156.902344 20.566406 C 156.492188 19.21875 155.378906 19.140625 155.046875 19.140625 C 153.230469 19.140625 152.253906 21.484375 152.253906 21.894531 C 152.253906 21.953125 152.332031 22.050781 152.449219 22.050781 C 152.585938 22.050781 152.625 21.933594 152.664062 21.875 C 153.269531 19.882812 154.480469 19.511719 154.988281 19.511719 C 155.808594 19.511719 155.964844 20.253906 155.964844 20.683594 C 155.964844 21.074219 155.867188 21.484375 155.632812 22.34375 L 155.027344 24.804688 C 154.773438 25.878906 154.246094 26.875 153.289062 26.875 C 153.210938 26.875 152.761719 26.875 152.371094 26.640625 C 153.015625 26.503906 153.171875 25.976562 153.171875 25.761719 C 153.171875 25.410156 152.898438 25.195312 152.566406 25.195312 C 152.136719 25.195312 151.667969 25.566406 151.667969 26.132812 C 151.667969 26.894531 152.507812 27.226562 153.269531 27.226562 C 154.128906 27.226562 154.753906 26.542969 155.125 25.820312 C 155.417969 26.875 156.296875 27.226562 156.960938 27.226562 C 158.796875 27.226562 159.773438 24.882812 159.773438 24.492188 C 159.773438 24.394531 159.695312 24.316406 159.578125 24.316406 C 159.421875 24.316406 159.402344 24.414062 159.363281 24.550781 C 158.875 26.132812 157.820312 26.875 157.019531 26.875 C 156.394531 26.875 156.0625 26.40625 156.0625 25.664062 C 156.0625 25.273438 156.121094 24.980469 156.414062 23.808594 L 157.039062 21.367188 C 157.3125 20.292969 157.917969 19.511719 158.738281 19.511719 C 158.777344 19.511719 159.285156 19.511719 159.65625 19.726562 Z M 159.65625 19.726562 "/>
<path style=" stroke:none;fill-rule:nonzero;fill:rgb(0%,0%,0%);fill-opacity:1;" d="M 178.269531 21.25 C 178.523438 21.25 178.835938 21.25 178.835938 20.917969 C 178.835938 20.585938 178.523438 20.585938 178.269531 20.585938 L 167.703125 20.585938 C 167.449219 20.585938 167.136719 20.585938 167.136719 20.898438 C 167.136719 21.25 167.429688 21.25 167.703125 21.25 Z M 178.269531 24.570312 C 178.523438 24.570312 178.835938 24.570312 178.835938 24.257812 C 178.835938 23.90625 178.523438 23.90625 178.269531 23.90625 L 167.703125 23.90625 C 167.449219 23.90625 167.136719 23.90625 167.136719 24.238281 C 167.136719 24.570312 167.429688 24.570312 167.703125 24.570312 Z M 178.269531 24.570312 "/>
<path style=" stroke:none;fill-rule:nonzero;fill:rgb(0%,0%,0%);fill-opacity:1;" d="M 187.066406 16.777344 C 187.828125 17.03125 188.453125 17.050781 188.648438 17.050781 C 190.679688 17.050781 191.96875 15.566406 191.96875 15.3125 C 191.96875 15.234375 191.929688 15.136719 191.832031 15.136719 C 191.792969 15.136719 191.753906 15.136719 191.597656 15.214844 C 190.582031 15.644531 189.722656 15.703125 189.253906 15.703125 C 188.082031 15.703125 187.242188 15.351562 186.890625 15.195312 C 186.773438 15.136719 186.734375 15.136719 186.714844 15.136719 C 186.578125 15.136719 186.578125 15.253906 186.578125 15.546875 L 186.578125 20.859375 C 186.578125 21.191406 186.578125 21.289062 186.792969 21.289062 C 186.871094 21.289062 186.890625 21.269531 187.066406 21.054688 C 187.574219 20.332031 188.414062 19.902344 189.3125 19.902344 C 190.269531 19.902344 190.738281 20.78125 190.875 21.074219 C 191.1875 21.777344 191.207031 22.65625 191.207031 23.339844 C 191.207031 24.023438 191.207031 25.039062 190.699219 25.839844 C 190.308594 26.503906 189.605469 26.933594 188.804688 26.933594 C 187.632812 26.933594 186.460938 26.132812 186.148438 24.824219 C 186.226562 24.863281 186.34375 24.882812 186.421875 24.882812 C 186.734375 24.882812 187.222656 24.707031 187.222656 24.101562 C 187.222656 23.59375 186.871094 23.300781 186.421875 23.300781 C 186.109375 23.300781 185.640625 23.457031 185.640625 24.160156 C 185.640625 25.683594 186.851562 27.421875 188.84375 27.421875 C 190.875 27.421875 192.652344 25.722656 192.652344 23.4375 C 192.652344 21.308594 191.207031 19.53125 189.332031 19.53125 C 188.316406 19.53125 187.515625 19.980469 187.066406 20.488281 Z M 187.066406 16.777344 "/>
<path style=" stroke:none;fill-rule:nonzero;fill:rgb(0%,0%,0%);fill-opacity:1;" d="M 6.09375 61.859375 L 4.511719 61.859375 L 0 74.300781 L 1.328125 74.300781 L 2.636719 70.667969 L 7.695312 70.667969 L 9.023438 74.300781 L 10.605469 74.300781 Z M 5.15625 63.148438 L 7.304688 69.652344 L 3.027344 69.652344 Z M 5.15625 63.148438 "/>
<path style=" stroke:none;fill-rule:nonzero;fill:rgb(0%,0%,0%);fill-opacity:1;" d="M 18.660156 68.910156 C 18.660156 67.816406 18.425781 66.15625 16.257812 66.15625 C 15.261719 66.15625 14.402344 66.605469 13.71875 67.464844 L 13.71875 66.253906 L 12.449219 66.253906 L 12.449219 74.300781 L 13.796875 74.300781 L 13.796875 69.828125 C 13.796875 68.734375 14.226562 67.230469 15.574219 67.230469 C 17.253906 67.230469 17.292969 68.402344 17.292969 69.027344 L 17.292969 74.300781 L 18.660156 74.300781 Z M 18.660156 68.910156 "/>
<path style=" stroke:none;fill-rule:nonzero;fill:rgb(0%,0%,0%);fill-opacity:1;" d="M 27.640625 61.859375 L 26.3125 61.859375 L 26.3125 67.09375 C 25.492188 66.410156 24.554688 66.15625 23.792969 66.15625 C 22.09375 66.15625 20.6875 67.992188 20.6875 70.316406 C 20.6875 72.640625 22.015625 74.476562 23.714844 74.476562 C 24.378906 74.476562 25.394531 74.261719 26.292969 73.382812 L 26.292969 74.300781 L 27.640625 74.300781 Z M 26.292969 72.191406 C 25.863281 72.953125 25.21875 73.402344 24.4375 73.402344 C 23.34375 73.402344 22.054688 72.5625 22.054688 70.335938 C 22.054688 67.953125 23.578125 67.230469 24.613281 67.230469 C 25.316406 67.230469 25.882812 67.601562 26.292969 68.1875 Z M 26.292969 72.191406 "/>
<path style=" stroke:none;fill-rule:nonzero;fill:rgb(0%,0%,0%);fill-opacity:1;" d="M 38.128906 67.386719 L 40.609375 67.386719 L 40.609375 66.332031 L 38.128906 66.332031 L 38.128906 64.066406 L 36.898438 64.066406 L 36.898438 66.332031 L 35.394531 66.332031 L 35.394531 67.386719 L 36.859375 67.386719 L 36.859375 72.210938 C 36.859375 73.246094 37.09375 74.476562 38.324219 74.476562 C 39.535156 74.476562 40.355469 74.066406 40.902344 73.773438 L 40.628906 72.738281 C 40.003906 73.304688 39.339844 73.363281 39.027344 73.363281 C 38.226562 73.363281 38.128906 72.523438 38.128906 71.898438 Z M 38.128906 67.386719 "/>
<path style=" stroke:none;fill-rule:nonzero;fill:rgb(0%,0%,0%);fill-opacity:1;" d="M 48.960938 68.910156 C 48.960938 67.816406 48.726562 66.15625 46.558594 66.15625 C 45.328125 66.15625 44.507812 66.859375 44.078125 67.40625 L 44.078125 61.859375 L 42.75 61.859375 L 42.75 74.300781 L 44.097656 74.300781 L 44.097656 69.828125 C 44.097656 68.734375 44.527344 67.230469 45.875 67.230469 C 47.554688 67.230469 47.59375 68.402344 47.59375 69.027344 L 47.59375 74.300781 L 48.960938 74.300781 Z M 48.960938 68.910156 "/>
<path style=" stroke:none;fill-rule:nonzero;fill:rgb(0%,0%,0%);fill-opacity:1;" d="M 57.667969 70.257812 C 57.667969 69.496094 57.589844 68.402344 57.023438 67.445312 C 56.28125 66.214844 55.03125 66.078125 54.503906 66.078125 C 52.570312 66.078125 50.949219 67.933594 50.949219 70.257812 C 50.949219 72.640625 52.667969 74.476562 54.757812 74.476562 C 55.578125 74.476562 56.574219 74.242188 57.550781 73.539062 C 57.550781 73.460938 57.492188 72.894531 57.492188 72.875 C 57.472656 72.855469 57.453125 72.445312 57.453125 72.386719 C 56.378906 73.285156 55.324219 73.402344 54.796875 73.402344 C 53.410156 73.402344 52.21875 72.171875 52.199219 70.257812 Z M 52.296875 69.300781 C 52.609375 68.089844 53.449219 67.152344 54.503906 67.152344 C 55.070312 67.152344 56.300781 67.40625 56.59375 69.300781 Z M 52.296875 69.300781 "/>
<path style=" stroke:none;fill-rule:nonzero;fill:rgb(0%,0%,0%);fill-opacity:1;" d="M 76.511719 68.910156 C 76.511719 67.660156 76.179688 66.15625 74.089844 66.15625 C 72.566406 66.15625 71.726562 67.210938 71.453125 67.621094 C 71.121094 66.488281 70.144531 66.15625 69.207031 66.15625 C 67.742188 66.15625 66.960938 67.113281 66.667969 67.484375 L 66.667969 66.253906 L 65.398438 66.253906 L 65.398438 74.300781 L 66.746094 74.300781 L 66.746094 69.828125 C 66.746094 68.65625 67.214844 67.230469 68.523438 67.230469 C 70.183594 67.230469 70.261719 68.363281 70.261719 69.027344 L 70.261719 74.300781 L 71.628906 74.300781 L 71.628906 69.828125 C 71.628906 68.65625 72.097656 67.230469 73.40625 67.230469 C 75.046875 67.230469 75.144531 68.363281 75.144531 69.027344 L 75.144531 74.300781 L 76.511719 74.300781 Z M 76.511719 68.910156 "/>
<path style=" stroke:none;fill-rule:nonzero;fill:rgb(0%,0%,0%);fill-opacity:1;" d="M 84.972656 69.046875 C 84.972656 67.328125 83.742188 66.078125 82.0625 66.078125 C 80.988281 66.078125 80.1875 66.3125 79.308594 66.820312 L 79.40625 68.011719 C 80.207031 67.425781 81.027344 67.113281 82.0625 67.113281 C 82.882812 67.113281 83.605469 67.777344 83.605469 69.085938 L 83.605469 69.828125 C 82.804688 69.847656 81.730469 69.90625 80.65625 70.257812 C 79.445312 70.6875 78.742188 71.351562 78.742188 72.230469 C 78.742188 73.03125 79.210938 74.476562 80.734375 74.476562 C 81.730469 74.476562 82.980469 74.183594 83.644531 73.636719 L 83.644531 74.300781 L 84.972656 74.300781 Z M 83.605469 71.898438 C 83.605469 72.25 83.605469 72.679688 83.019531 73.050781 C 82.53125 73.34375 81.925781 73.402344 81.652344 73.402344 C 80.695312 73.402344 80.03125 72.875 80.03125 72.230469 C 80.03125 71 82.511719 70.726562 83.605469 70.726562 Z M 83.605469 71.898438 "/>
<path style=" stroke:none;fill-rule:nonzero;fill:rgb(0%,0%,0%);fill-opacity:1;" d="M 90.914062 70.199219 L 94.097656 66.332031 L 92.59375 66.332031 L 90.328125 69.242188 L 87.984375 66.332031 L 86.460938 66.332031 L 89.722656 70.199219 L 86.363281 74.300781 L 87.847656 74.300781 L 90.328125 70.960938 L 92.867188 74.300781 L 94.371094 74.300781 Z M 90.914062 70.199219 "/>
<path style=" stroke:none;fill-rule:nonzero;fill:rgb(0%,0%,0%);fill-opacity:1;" d="M 97.292969 62.132812 L 95.75 62.132812 L 95.75 63.675781 L 97.292969 63.675781 Z M 97.195312 66.332031 L 95.867188 66.332031 L 95.867188 74.300781 L 97.195312 74.300781 Z M 97.195312 66.332031 "/>
<path style=" stroke:none;fill-rule:nonzero;fill:rgb(0%,0%,0%);fill-opacity:1;" d="M 111.160156 68.910156 C 111.160156 67.660156 110.828125 66.15625 108.738281 66.15625 C 107.214844 66.15625 106.375 67.210938 106.101562 67.621094 C 105.769531 66.488281 104.792969 66.15625 103.855469 66.15625 C 102.390625 66.15625 101.609375 67.113281 101.316406 67.484375 L 101.316406 66.253906 L 100.046875 66.253906 L 100.046875 74.300781 L 101.394531 74.300781 L 101.394531 69.828125 C 101.394531 68.65625 101.863281 67.230469 103.171875 67.230469 C 104.832031 67.230469 104.910156 68.363281 104.910156 69.027344 L 104.910156 74.300781 L 106.277344 74.300781 L 106.277344 69.828125 C 106.277344 68.65625 106.746094 67.230469 108.054688 67.230469 C 109.695312 67.230469 109.792969 68.363281 109.792969 69.027344 L 109.792969 74.300781 L 111.160156 74.300781 Z M 111.160156 68.910156 "/>
<path style=" stroke:none;fill-rule:nonzero;fill:rgb(0%,0%,0%);fill-opacity:1;" d="M 120.210938 66.332031 L 118.84375 66.332031 L 118.84375 71.46875 C 118.84375 72.835938 117.90625 73.5 116.734375 73.5 C 115.484375 73.5 115.347656 73.03125 115.347656 72.230469 L 115.347656 66.332031 L 114 66.332031 L 114 72.308594 C 114 73.597656 114.410156 74.476562 115.875 74.476562 C 116.382812 74.476562 117.789062 74.398438 118.882812 73.402344 L 118.882812 74.300781 L 120.210938 74.300781 Z M 120.210938 66.332031 "/>
<path style=" stroke:none;fill-rule:nonzero;fill:rgb(0%,0%,0%);fill-opacity:1;" d="M 134.113281 68.910156 C 134.113281 67.660156 133.78125 66.15625 131.691406 66.15625 C 130.167969 66.15625 129.328125 67.210938 129.054688 67.621094 C 128.722656 66.488281 127.746094 66.15625 126.808594 66.15625 C 125.34375 66.15625 124.5625 67.113281 124.269531 67.484375 L 124.269531 66.253906 L 123 66.253906 L 123 74.300781 L 124.347656 74.300781 L 124.347656 69.828125 C 124.347656 68.65625 124.816406 67.230469 126.125 67.230469 C 127.785156 67.230469 127.863281 68.363281 127.863281 69.027344 L 127.863281 74.300781 L 129.230469 74.300781 L 129.230469 69.828125 C 129.230469 68.65625 129.699219 67.230469 131.007812 67.230469 C 132.648438 67.230469 132.746094 68.363281 132.746094 69.027344 L 132.746094 74.300781 L 134.113281 74.300781 Z M 134.113281 68.910156 "/>
<path style=" stroke:none;fill-rule:nonzero;fill:rgb(0%,0%,0%);fill-opacity:1;" d="M 148.125 69.046875 C 148.125 67.328125 146.894531 66.078125 145.214844 66.078125 C 144.140625 66.078125 143.339844 66.3125 142.460938 66.820312 L 142.558594 68.011719 C 143.359375 67.425781 144.179688 67.113281 145.214844 67.113281 C 146.035156 67.113281 146.757812 67.777344 146.757812 69.085938 L 146.757812 69.828125 C 145.957031 69.847656 144.882812 69.90625 143.808594 70.257812 C 142.597656 70.6875 141.894531 71.351562 141.894531 72.230469 C 141.894531 73.03125 142.363281 74.476562 143.886719 74.476562 C 144.882812 74.476562 146.132812 74.183594 146.796875 73.636719 L 146.796875 74.300781 L 148.125 74.300781 Z M 146.757812 71.898438 C 146.757812 72.25 146.757812 72.679688 146.171875 73.050781 C 145.683594 73.34375 145.078125 73.402344 144.804688 73.402344 C 143.847656 73.402344 143.183594 72.875 143.183594 72.230469 C 143.183594 71 145.664062 70.726562 146.757812 70.726562 Z M 146.757812 71.898438 "/>
<path style=" stroke:none;fill-rule:nonzero;fill:rgb(0%,0%,0%);fill-opacity:1;" d="M 151.796875 70.375 C 151.796875 68.558594 153.144531 67.386719 154.765625 67.367188 L 154.765625 66.15625 C 153.125 66.175781 152.1875 67.132812 151.699219 67.835938 L 151.699219 66.253906 L 150.46875 66.253906 L 150.46875 74.300781 L 151.796875 74.300781 Z M 151.796875 70.375 "/>
<path style=" stroke:none;fill-rule:nonzero;fill:rgb(0%,0%,0%);fill-opacity:1;" d="M 162.367188 70.257812 C 162.367188 69.496094 162.289062 68.402344 161.722656 67.445312 C 160.980469 66.214844 159.730469 66.078125 159.203125 66.078125 C 157.269531 66.078125 155.648438 67.933594 155.648438 70.257812 C 155.648438 72.640625 157.367188 74.476562 159.457031 74.476562 C 160.277344 74.476562 161.273438 74.242188 162.25 73.539062 C 162.25 73.460938 162.191406 72.894531 162.191406 72.875 C 162.171875 72.855469 162.152344 72.445312 162.152344 72.386719 C 161.078125 73.285156 160.023438 73.402344 159.496094 73.402344 C 158.109375 73.402344 156.917969 72.171875 156.898438 70.257812 Z M 156.996094 69.300781 C 157.308594 68.089844 158.148438 67.152344 159.203125 67.152344 C 159.769531 67.152344 161 67.40625 161.292969 69.300781 Z M 156.996094 69.300781 "/>
<path style=" stroke:none;fill-rule:nonzero;fill:rgb(0%,0%,0%);fill-opacity:1;" d="M 169.875 69.046875 C 169.875 67.328125 168.644531 66.078125 166.964844 66.078125 C 165.890625 66.078125 165.089844 66.3125 164.210938 66.820312 L 164.308594 68.011719 C 165.109375 67.425781 165.929688 67.113281 166.964844 67.113281 C 167.785156 67.113281 168.507812 67.777344 168.507812 69.085938 L 168.507812 69.828125 C 167.707031 69.847656 166.632812 69.90625 165.558594 70.257812 C 164.347656 70.6875 163.644531 71.351562 163.644531 72.230469 C 163.644531 73.03125 164.113281 74.476562 165.636719 74.476562 C 166.632812 74.476562 167.882812 74.183594 168.546875 73.636719 L 168.546875 74.300781 L 169.875 74.300781 Z M 168.507812 71.898438 C 168.507812 72.25 168.507812 72.679688 167.921875 73.050781 C 167.433594 73.34375 166.828125 73.402344 166.554688 73.402344 C 165.597656 73.402344 164.933594 72.875 164.933594 72.230469 C 164.933594 71 167.414062 70.726562 168.507812 70.726562 Z M 168.507812 71.898438 "/>
<path style=" stroke:none;fill-rule:nonzero;fill:rgb(0%,0%,0%);fill-opacity:1;" d="M 180.160156 72.308594 C 179.535156 73.363281 178.929688 73.734375 178.070312 73.773438 C 177.875 73.792969 177.71875 73.792969 177.71875 74.125 C 177.71875 74.222656 177.816406 74.300781 177.933594 74.300781 C 178.265625 74.300781 179.066406 74.261719 179.398438 74.261719 C 179.90625 74.261719 180.492188 74.300781 180.980469 74.300781 C 181.097656 74.300781 181.3125 74.300781 181.3125 73.96875 C 181.3125 73.792969 181.15625 73.773438 181.058594 73.773438 C 180.648438 73.753906 180.296875 73.597656 180.296875 73.167969 C 180.296875 72.914062 180.414062 72.71875 180.648438 72.328125 L 182.015625 70.0625 L 186.585938 70.0625 C 186.605469 70.238281 186.605469 70.375 186.625 70.53125 C 186.664062 71 186.878906 72.875 186.878906 73.207031 C 186.878906 73.753906 185.960938 73.773438 185.6875 73.773438 C 185.492188 73.773438 185.296875 73.773438 185.296875 74.105469 C 185.296875 74.300781 185.453125 74.300781 185.550781 74.300781 C 185.863281 74.300781 186.214844 74.261719 186.527344 74.261719 L 187.542969 74.261719 C 188.636719 74.261719 189.4375 74.300781 189.457031 74.300781 C 189.574219 74.300781 189.769531 74.300781 189.769531 73.96875 C 189.769531 73.773438 189.613281 73.773438 189.339844 73.773438 C 188.363281 73.773438 188.34375 73.617188 188.285156 73.089844 L 187.191406 61.898438 C 187.152344 61.527344 187.074219 61.507812 186.878906 61.507812 C 186.703125 61.507812 186.605469 61.527344 186.429688 61.800781 Z M 182.308594 69.554688 L 185.921875 63.519531 L 186.527344 69.554688 Z M 182.308594 69.554688 "/>
<path style=" stroke:none;fill-rule:nonzero;fill:rgb(0%,0%,0%);fill-opacity:1;" d="M 191.40625 76.109375 C 191.367188 76.304688 191.289062 76.597656 191.289062 76.65625 C 191.289062 76.871094 191.464844 76.988281 191.660156 76.988281 C 191.816406 76.988281 192.03125 76.890625 192.128906 76.636719 C 192.128906 76.617188 192.285156 76.03125 192.363281 75.71875 L 192.636719 74.605469 C 192.695312 74.3125 192.773438 74.039062 192.851562 73.765625 C 192.890625 73.550781 192.988281 73.179688 193.007812 73.140625 C 193.183594 72.75 193.847656 71.617188 195.039062 71.617188 C 195.605469 71.617188 195.703125 72.085938 195.703125 72.496094 C 195.703125 72.808594 195.625 73.160156 195.527344 73.53125 L 195.175781 74.976562 L 194.921875 75.914062 C 194.882812 76.167969 194.765625 76.597656 194.765625 76.65625 C 194.765625 76.871094 194.941406 76.988281 195.117188 76.988281 C 195.507812 76.988281 195.585938 76.675781 195.683594 76.285156 C 195.859375 75.582031 196.328125 73.765625 196.425781 73.277344 C 196.464844 73.121094 197.128906 71.617188 198.496094 71.617188 C 199.023438 71.617188 199.160156 72.046875 199.160156 72.496094 C 199.160156 73.199219 198.632812 74.625 198.378906 75.289062 C 198.28125 75.582031 198.222656 75.71875 198.222656 75.972656 C 198.222656 76.558594 198.652344 76.988281 199.238281 76.988281 C 200.410156 76.988281 200.878906 75.171875 200.878906 75.074219 C 200.878906 74.9375 200.761719 74.9375 200.722656 74.9375 C 200.605469 74.9375 200.605469 74.976562 200.546875 75.171875 C 200.351562 75.835938 199.960938 76.714844 199.277344 76.714844 C 199.0625 76.714844 198.964844 76.597656 198.964844 76.304688 C 198.964844 75.992188 199.082031 75.699219 199.199219 75.425781 C 199.433594 74.761719 199.960938 73.394531 199.960938 72.671875 C 199.960938 71.871094 199.453125 71.34375 198.515625 71.34375 C 197.597656 71.34375 196.953125 71.890625 196.484375 72.554688 C 196.484375 72.398438 196.445312 71.96875 196.09375 71.675781 C 195.78125 71.402344 195.390625 71.34375 195.078125 71.34375 C 193.945312 71.34375 193.339844 72.144531 193.125 72.4375 C 193.066406 71.714844 192.539062 71.34375 191.972656 71.34375 C 191.40625 71.34375 191.171875 71.832031 191.054688 72.046875 C 190.839844 72.496094 190.683594 73.21875 190.683594 73.257812 C 190.683594 73.394531 190.800781 73.394531 190.820312 73.394531 C 190.957031 73.394531 190.957031 73.375 191.035156 73.101562 C 191.25 72.222656 191.503906 71.617188 191.953125 71.617188 C 192.148438 71.617188 192.324219 71.714844 192.324219 72.183594 C 192.324219 72.457031 192.285156 72.59375 192.128906 73.238281 Z M 191.40625 76.109375 "/>
<path style=" stroke:none;fill-rule:nonzero;fill:rgb(0%,0%,0%);fill-opacity:1;" d="M 218.921875 68.5 C 219.175781 68.5 219.488281 68.5 219.488281 68.167969 C 219.488281 67.835938 219.175781 67.835938 218.921875 67.835938 L 208.355469 67.835938 C 208.101562 67.835938 207.789062 67.835938 207.789062 68.148438 C 207.789062 68.5 208.082031 68.5 208.355469 68.5 Z M 218.921875 71.820312 C 219.175781 71.820312 219.488281 71.820312 219.488281 71.507812 C 219.488281 71.15625 219.175781 71.15625 218.921875 71.15625 L 208.355469 71.15625 C 208.101562 71.15625 207.789062 71.15625 207.789062 71.488281 C 207.789062 71.820312 208.082031 71.820312 208.355469 71.820312 Z M 218.921875 71.820312 "/>
<path style=" stroke:none;fill-rule:nonzero;fill:rgb(0%,0%,0%);fill-opacity:1;" d="M 233.925781 63.167969 L 233.925781 62.757812 L 229.609375 62.757812 C 227.441406 62.757812 227.402344 62.523438 227.324219 62.171875 L 226.933594 62.171875 L 226.386719 65.765625 L 226.777344 65.765625 C 226.835938 65.453125 226.992188 64.339844 227.226562 64.125 C 227.363281 64.027344 228.710938 64.027344 228.964844 64.027344 L 232.753906 64.027344 L 230.859375 66.761719 C 230.371094 67.445312 228.574219 70.394531 228.574219 73.753906 C 228.574219 73.96875 228.574219 74.671875 229.296875 74.671875 C 230.058594 74.671875 230.058594 73.96875 230.058594 73.753906 L 230.058594 72.855469 C 230.058594 70.179688 230.488281 68.089844 231.328125 66.898438 Z M 233.925781 63.167969 "/>
<path style=" stroke:none;fill-rule:nonzero;fill:rgb(0%,0%,0%);fill-opacity:1;" d="M 236.566406 64.027344 C 237.328125 64.28125 237.953125 64.300781 238.148438 64.300781 C 240.179688 64.300781 241.46875 62.816406 241.46875 62.5625 C 241.46875 62.484375 241.429688 62.386719 241.332031 62.386719 C 241.292969 62.386719 241.253906 62.386719 241.097656 62.464844 C 240.082031 62.894531 239.222656 62.953125 238.753906 62.953125 C 237.582031 62.953125 236.742188 62.601562 236.390625 62.445312 C 236.273438 62.386719 236.234375 62.386719 236.214844 62.386719 C 236.078125 62.386719 236.078125 62.503906 236.078125 62.796875 L 236.078125 68.109375 C 236.078125 68.441406 236.078125 68.539062 236.292969 68.539062 C 236.371094 68.539062 236.390625 68.519531 236.566406 68.304688 C 237.074219 67.582031 237.914062 67.152344 238.8125 67.152344 C 239.769531 67.152344 240.238281 68.03125 240.375 68.324219 C 240.6875 69.027344 240.707031 69.90625 240.707031 70.589844 C 240.707031 71.273438 240.707031 72.289062 240.199219 73.089844 C 239.808594 73.753906 239.105469 74.183594 238.304688 74.183594 C 237.132812 74.183594 235.960938 73.382812 235.648438 72.074219 C 235.726562 72.113281 235.84375 72.132812 235.921875 72.132812 C 236.234375 72.132812 236.722656 71.957031 236.722656 71.351562 C 236.722656 70.84375 236.371094 70.550781 235.921875 70.550781 C 235.609375 70.550781 235.140625 70.707031 235.140625 71.410156 C 235.140625 72.933594 236.351562 74.671875 238.34375 74.671875 C 240.375 74.671875 242.152344 72.972656 242.152344 70.6875 C 242.152344 68.558594 240.707031 66.78125 238.832031 66.78125 C 237.816406 66.78125 237.015625 67.230469 236.566406 67.738281 Z M 236.566406 64.027344 "/>
<path style=" stroke:none;fill-rule:nonzero;fill:rgb(0%,0%,0%);fill-opacity:1;" d="M 250.085938 74.78125 L 246.941406 67.808594 C 246.804688 67.515625 246.726562 67.515625 246.667969 67.515625 C 246.648438 67.515625 246.550781 67.515625 246.355469 67.652344 L 244.65625 68.960938 C 244.421875 69.136719 244.421875 69.175781 244.421875 69.234375 C 244.421875 69.332031 244.480469 69.429688 244.597656 69.429688 C 244.714844 69.429688 245.007812 69.175781 245.203125 69.039062 C 245.320312 68.960938 245.59375 68.746094 245.789062 68.609375 L 249.324219 76.382812 C 249.441406 76.65625 249.539062 76.65625 249.695312 76.65625 C 249.96875 76.65625 250.007812 76.558594 250.144531 76.304688 L 258.289062 59.449219 C 258.40625 59.195312 258.40625 59.117188 258.40625 59.097656 C 258.40625 58.902344 258.269531 58.726562 258.054688 58.726562 C 257.898438 58.726562 257.78125 58.824219 257.644531 59.117188 Z M 250.085938 74.78125 "/>
<path style=" stroke:none;fill-rule:nonzero;fill:rgb(0%,0%,0%);fill-opacity:1;" d="M 257.945312 58.714844 L 266.792969 58.714844 L 266.792969 59.46875 L 257.945312 59.46875 Z M 257.945312 58.714844 "/>
<path style=" stroke:none;fill-rule:nonzero;fill:rgb(0%,0%,0%);fill-opacity:1;" d="M 261.261719 67.855469 C 260.949219 67.875 260.890625 67.894531 260.890625 68.070312 C 260.890625 68.246094 260.96875 68.246094 261.300781 68.246094 L 262.121094 68.246094 C 263.644531 68.246094 264.328125 69.496094 264.328125 71.214844 C 264.328125 73.558594 263.097656 74.183594 262.21875 74.183594 C 261.359375 74.183594 259.894531 73.773438 259.386719 72.601562 C 259.953125 72.679688 260.480469 72.367188 260.480469 71.722656 C 260.480469 71.195312 260.089844 70.84375 259.601562 70.84375 C 259.171875 70.84375 258.703125 71.097656 258.703125 71.78125 C 258.703125 73.363281 260.285156 74.671875 262.277344 74.671875 C 264.40625 74.671875 265.988281 73.050781 265.988281 71.234375 C 265.988281 69.59375 264.660156 68.285156 262.941406 67.992188 C 264.503906 67.542969 265.5 66.234375 265.5 64.828125 C 265.5 63.421875 264.035156 62.386719 262.296875 62.386719 C 260.5 62.386719 259.171875 63.480469 259.171875 64.789062 C 259.171875 65.492188 259.738281 65.648438 260.011719 65.648438 C 260.382812 65.648438 260.8125 65.375 260.8125 64.828125 C 260.8125 64.261719 260.382812 64.007812 259.992188 64.007812 C 259.875 64.007812 259.835938 64.007812 259.796875 64.027344 C 260.480469 62.816406 262.160156 62.816406 262.238281 62.816406 C 262.84375 62.816406 263.996094 63.070312 263.996094 64.828125 C 263.996094 65.179688 263.957031 66.175781 263.429688 66.957031 C 262.882812 67.738281 262.277344 67.796875 261.789062 67.816406 Z M 261.261719 67.855469 "/>
<path style=" stroke:none;fill-rule:nonzero;fill:rgb(0%,0%,0%);fill-opacity:1;" d="M 280.109375 66.332031 L 278.742188 66.332031 L 278.742188 71.46875 C 278.742188 72.835938 277.804688 73.5 276.632812 73.5 C 275.382812 73.5 275.246094 73.03125 275.246094 72.230469 L 275.246094 66.332031 L 273.898438 66.332031 L 273.898438 72.308594 C 273.898438 73.597656 274.308594 74.476562 275.773438 74.476562 C 276.28125 74.476562 277.6875 74.398438 278.78125 73.402344 L 278.78125 74.300781 L 280.109375 74.300781 Z M 280.109375 66.332031 "/>
<path style=" stroke:none;fill-rule:nonzero;fill:rgb(0%,0%,0%);fill-opacity:1;" d="M 289.109375 68.910156 C 289.109375 67.816406 288.875 66.15625 286.707031 66.15625 C 285.710938 66.15625 284.851562 66.605469 284.167969 67.464844 L 284.167969 66.253906 L 282.898438 66.253906 L 282.898438 74.300781 L 284.246094 74.300781 L 284.246094 69.828125 C 284.246094 68.734375 284.675781 67.230469 286.023438 67.230469 C 287.703125 67.230469 287.742188 68.402344 287.742188 69.027344 L 287.742188 74.300781 L 289.109375 74.300781 Z M 289.109375 68.910156 "/>
<path style=" stroke:none;fill-rule:nonzero;fill:rgb(0%,0%,0%);fill-opacity:1;" d="M 293.34375 62.132812 L 291.800781 62.132812 L 291.800781 63.675781 L 293.34375 63.675781 Z M 293.246094 66.332031 L 291.917969 66.332031 L 291.917969 74.300781 L 293.246094 74.300781 Z M 293.246094 66.332031 "/>
<path style=" stroke:none;fill-rule:nonzero;fill:rgb(0%,0%,0%);fill-opacity:1;" d="M 297.777344 67.386719 L 300.257812 67.386719 L 300.257812 66.332031 L 297.777344 66.332031 L 297.777344 64.066406 L 296.546875 64.066406 L 296.546875 66.332031 L 295.042969 66.332031 L 295.042969 67.386719 L 296.507812 67.386719 L 296.507812 72.210938 C 296.507812 73.246094 296.742188 74.476562 297.972656 74.476562 C 299.183594 74.476562 300.003906 74.066406 300.550781 73.773438 L 300.277344 72.738281 C 299.652344 73.304688 298.988281 73.363281 298.675781 73.363281 C 297.875 73.363281 297.777344 72.523438 297.777344 71.898438 Z M 297.777344 67.386719 "/>
<path style=" stroke:none;fill-rule:nonzero;fill:rgb(0%,0%,0%);fill-opacity:1;" d="M 307.027344 66.625 C 305.894531 66.097656 304.917969 66.078125 304.507812 66.078125 C 304.097656 66.078125 301.597656 66.078125 301.597656 68.402344 C 301.597656 69.183594 302.027344 69.730469 302.300781 69.984375 C 302.945312 70.53125 303.394531 70.628906 304.449219 70.84375 C 305.054688 70.960938 306.089844 71.175781 306.089844 72.132812 C 306.089844 73.363281 304.683594 73.363281 304.429688 73.363281 C 303.726562 73.363281 302.671875 73.167969 301.714844 72.464844 L 301.5 73.695312 C 301.578125 73.753906 302.808594 74.476562 304.449219 74.476562 C 306.773438 74.476562 307.320312 73.089844 307.320312 72.015625 C 307.320312 71.117188 306.773438 70.53125 306.695312 70.453125 C 306.03125 69.769531 305.484375 69.652344 304.410156 69.4375 C 303.746094 69.320312 302.847656 69.144531 302.847656 68.246094 C 302.847656 67.132812 304.097656 67.132812 304.332031 67.132812 C 305.269531 67.132812 306.03125 67.347656 306.8125 67.796875 Z M 307.027344 66.625 "/>
</g>
</svg>
