<?xml version="1.0" standalone="no"?>
<!DOCTYPE svg PUBLIC "-//W3C//DTD SVG 20010904//EN"
 "http://www.w3.org/TR/2001/REC-SVG-20010904/DTD/svg10.dtd">
<svg version="1.0" xmlns="http://www.w3.org/2000/svg"
 width="115.823971pt" height="83.894158pt" viewBox="0 0 115.823971 83.894158"
 preserveAspectRatio="xMidYMid meet">
<metadata>
Created by potrace 1.10, written by Peter Selinger 2001-2011
</metadata>
<g transform="translate(-15.127829,108.240000) scale(0.024000,-0.024000)"
fill="#000000" stroke="none">
<g>
<path d="M1474 4479 c-15 -30 -15 -33 5 -58 23 -28 37 -57 65 -134 13 -35 24
-49 43 -53 36 -9 90 22 119 68 29 45 55 49 90 11 27 -29 40 -26 29 7 -4 12
-27 31 -53 43 -42 20 -48 28 -67 82 -13 38 -26 61 -37 63 -16 3 -16 1 -1 -28
8 -17 16 -46 17 -63 1 -31 0 -32 -39 -30 -68 4 -85 11 -85 36 0 29 18 47 38
39 12 -4 14 -1 9 12 -4 10 -7 22 -7 27 0 5 -10 9 -22 9 -17 0 -27 -10 -40 -40
-9 -22 -21 -40 -27 -40 -17 0 -13 41 6 62 15 17 15 18 -5 18 -14 0 -27 -11
-38 -31z m199 -136 c15 -9 6 -32 -24 -57 -53 -45 -89 -27 -89 44 l0 32 53 -7
c28 -4 55 -9 60 -12z"/>
</g>
<g>
<path d="M2764 4486 c-10 -43 0 -234 14 -248 9 -10 12 9 12 93 0 60 4 109 11
116 13 13 1 63 -17 63 -7 0 -16 -11 -20 -24z"/>
</g>
<g>
<path d="M3912 4454 c-21 -15 -22 -21 -21 -162 1 -163 11 -230 23 -152 3 25 7
72 9 104 1 40 7 61 16 64 8 3 51 -35 102 -89 49 -52 89 -88 89 -82 0 11 -27
45 -139 176 -14 17 -14 20 0 30 47 35 40 89 -16 112 -42 18 -36 18 -63 -1z
m59 -34 c23 -13 24 -28 2 -52 -26 -28 -43 -22 -43 15 0 47 8 54 41 37z"/>
</g>
<g>
<path d="M2929 4438 c-7 -13 -13 -51 -13 -85 -1 -52 3 -66 22 -85 l22 -22 21
20 c26 26 28 88 4 137 -25 53 -41 63 -56 35z m46 -72 c9 -45 3 -71 -15 -71
-17 0 -25 43 -16 81 9 34 24 29 31 -10z"/>
</g>
<g>
<path d="M1771 4109 c1 -13 -3 -35 -9 -49 -6 -14 -25 -61 -42 -106 -35 -93
-161 -348 -320 -649 -162 -305 -346 -674 -361 -723 -17 -58 -3 -71 92 -83 57
-8 439 -19 669 -20 14 0 72 5 130 11 122 12 1277 16 1474 5 126 -7 130 -8 156
-37 26 -29 26 -29 45 -8 15 17 30 20 101 20 84 0 597 -36 919 -65 94 -8 180
-15 193 -15 27 0 29 21 2 45 -31 28 -133 189 -466 735 -478 785 -494 813 -494
874 0 41 -23 58 -79 59 -20 0 -430 4 -911 8 -481 5 -926 11 -988 15 l-114 7 3
-24z m64 -135 c9 -135 -7 -521 -35 -885 -11 -140 -23 -324 -26 -410 l-7 -156
-60 -7 c-87 -9 -220 -7 -397 4 -202 14 -224 19 -228 51 -5 46 83 233 395 825
182 349 313 628 313 672 0 15 6 22 19 22 17 0 20 -11 26 -116z m1426 107 c486
-10 482 -9 487 -79 3 -38 -19 -215 -128 -1027 -16 -121 -36 -274 -45 -339 -8
-66 -16 -121 -18 -123 -2 -1 -100 2 -218 8 -137 7 -443 10 -854 6 l-641 -5
-22 38 c-29 51 -29 111 3 505 14 171 30 456 35 635 5 179 11 334 15 345 4 11
9 26 11 33 4 14 684 16 1375 3z m667 -258 c65 -109 228 -378 362 -598 349
-573 453 -747 458 -767 4 -16 -4 -18 -59 -18 -91 0 -872 51 -1021 66 l-58 6 0
87 c0 75 27 296 135 1116 29 221 44 305 56 305 4 0 61 -89 127 -197z"/>
<g>
<path d="M3477 3983 c-9 -15 -47 -156 -47 -175 0 -12 8 -18 21 -18 18 0 20 -4
15 -37 -3 -21 -8 -83 -11 -138 -3 -55 -9 -112 -11 -127 -6 -31 10 -38 21 -11
3 10 13 93 22 186 l16 167 22 -20 22 -21 -13 82 c-9 55 -19 89 -32 102 -11 10
-22 15 -25 10z"/>
</g>
<g>
<path d="M3260 3348 c1 -34 8 -97 17 -138 18 -86 28 -377 14 -399 -7 -12 -13
-12 -24 -3 -40 33 -28 -33 18 -98 38 -54 65 -59 78 -15 5 17 13 38 18 47 12
24 11 28 -5 28 -8 0 -21 -9 -30 -21 -13 -19 -15 0 -20 178 -3 109 -8 221 -12
250 -5 46 -4 53 18 66 12 8 33 18 45 21 18 6 22 2 28 -31 12 -76 22 -66 35 35
7 55 9 105 5 111 -12 20 -24 11 -43 -32 -13 -30 -29 -47 -50 -56 -49 -20 -61
-10 -64 55 -2 35 -8 59 -15 62 -10 3 -13 -13 -13 -60z"/>
</g>
</g>
<g>
<path d="M4281 3663 c1 -121 7 -164 24 -170 6 -2 9 43 7 119 -3 135 -7 168
-22 168 -6 0 -10 -47 -9 -117z"/>
</g>
<g>
<path d="M4415 3711 c-36 -22 -77 -65 -54 -56 19 7 33 -9 48 -58 20 -60 88
-59 121 3 20 37 -35 130 -77 130 -4 0 -21 -8 -38 -19z m69 -27 c28 -27 31 -64
8 -86 -11 -12 -27 -18 -36 -15 -18 7 -41 79 -33 101 8 20 41 21 61 0z"/>
</g>
<g>
<path d="M1034 3629 c8 -103 21 -181 37 -221 20 -49 27 -30 13 35 -7 34 -14
94 -14 132 0 98 -9 145 -28 145 -13 0 -14 -13 -8 -91z"/>
</g>
<g>
<path d="M1168 3648 c-17 -15 -48 -59 -48 -70 0 -4 6 -5 14 -2 10 4 22 -8 35
-34 11 -22 27 -42 35 -45 24 -9 66 34 72 73 11 66 -60 116 -108 78z m77 -39
c8 -25 -13 -79 -30 -79 -16 0 -25 23 -25 66 0 29 3 34 24 34 16 0 27 -7 31
-21z"/>
</g>
<g>
<path d="M673 2513 c-9 -3 -13 -27 -13 -68 0 -43 -5 -66 -15 -75 -18 -15 -20
-41 -3 -37 7 1 15 -17 20 -43 4 -25 10 -52 13 -60 11 -28 25 12 25 76 l0 60
58 40 c63 44 73 71 32 90 -30 14 -100 24 -117 17z m93 -45 c7 -11 -38 -58 -57
-58 -5 0 -9 16 -9 35 0 32 2 35 29 35 17 0 33 -5 37 -12z"/>
</g>
<g>
<path d="M5030 2438 c-77 -52 -79 -114 -5 -150 25 -12 45 -25 45 -29 0 -4 -26
-13 -57 -19 -32 -7 -65 -16 -73 -20 -57 -31 138 -7 199 25 42 21 39 32 -11 45
-127 32 -149 54 -101 101 21 21 37 30 48 25 16 -6 16 -8 1 -31 -14 -21 -14
-25 -2 -25 26 0 47 31 44 64 -4 41 -40 46 -88 14z"/>
</g>
<g>
<path d="M2572 2398 c-14 -14 -16 -220 -3 -253 7 -18 8 -17 14 5 7 31 12 248
6 255 -3 2 -11 -1 -17 -7z"/>
</g>
<g>
<path d="M1455 2354 c-9 -14 -15 -15 -32 -5 -30 15 -53 14 -53 -4 0 -8 4 -15
10 -15 5 0 17 -11 26 -26 16 -23 16 -30 1 -92 -38 -163 -29 -183 19 -39 14 42
29 77 34 77 4 0 26 -21 48 -47 43 -51 71 -53 33 -3 -74 101 -81 120 -39 120
19 0 19 2 6 23 -19 28 -40 32 -53 11z"/>
</g>
<g>
<path d="M2710 2321 c-26 -49 0 -159 43 -185 15 -9 23 -6 43 17 37 43 32 85
-17 141 -45 51 -54 55 -69 27z m65 -65 c20 -30 16 -80 -6 -84 -17 -3 -39 36
-39 72 0 42 22 48 45 12z"/>
</g>
<g>
<path d="M4210 2315 c-12 -30 -14 -30 -56 -4 -53 32 -65 17 -19 -25 l39 -36
-12 -43 c-7 -23 -15 -51 -19 -62 -3 -11 9 -1 27 23 17 23 33 42 34 42 2 0 20
-14 41 -30 21 -17 40 -28 42 -26 2 2 -10 25 -26 52 -31 47 -39 74 -23 74 4 0
13 -5 20 -12 15 -15 16 -1 1 41 -13 37 -36 40 -49 6z"/>
</g>
<g>
<path d="M4865 1889 c-27 -5 -162 -20 -300 -33 -250 -24 -250 -24 -266 -4 -30
38 -43 0 -114 -327 -25 -115 -50 -227 -56 -249 l-11 -38 -32 31 c-34 33 -73
41 -82 16 -10 -24 23 -65 51 -65 17 0 29 -9 40 -30 33 -64 43 -43 85 185 33
178 67 348 76 378 3 9 18 24 33 31 32 17 464 66 576 66 97 0 162 28 103 44
-27 7 -38 6 -103 -5z"/>
</g>
<g>
<path d="M796 1753 c-18 -35 -64 -265 -72 -358 -7 -76 1 -79 34 -14 24 48 45
44 59 -13 14 -58 22 -73 34 -61 6 6 5 30 -2 62 -6 29 -7 56 -3 61 15 13 82 21
89 10 10 -16 23 -12 27 8 3 12 15 0 41 -41 21 -32 41 -55 46 -52 5 3 12 28 16
55 7 52 25 80 52 80 13 0 13 3 3 15 -22 26 -46 17 -65 -25 -10 -22 -22 -40
-26 -40 -5 0 -15 13 -24 29 -22 44 -75 54 -75 15 0 -10 -12 -14 -45 -14 -43 0
-44 1 -50 38 -3 20 -10 56 -16 79 -12 56 -12 126 1 118 6 -4 10 10 10 34 0 47
-13 53 -34 14z m4 -248 c0 -25 -4 -45 -10 -45 -5 0 -10 20 -10 45 0 25 5 45
10 45 6 0 10 -20 10 -45z"/>
</g>
<g>
<path d="M5315 1706 c-13 -19 -14 -29 -5 -46 13 -24 30 -18 30 11 0 10 5 19
10 19 24 0 5 -43 -47 -106 -28 -35 -31 -43 -17 -48 24 -9 147 -7 163 3 18 11
5 18 -51 26 -27 4 -48 8 -48 9 0 1 9 19 20 41 11 22 20 51 20 65 0 51 -48 68
-75 26z"/>
</g>
<g>
<path d="M2160 1687 c0 -7 10 -40 22 -72 57 -159 18 -441 -77 -552 -48 -56
-44 -66 6 -18 52 51 72 91 100 196 41 159 37 296 -12 410 -20 47 -39 64 -39
36z"/>
</g>
<g>
<path d="M3790 1680 c0 -7 11 -25 25 -42 38 -45 50 -101 49 -228 -1 -131 -19
-199 -79 -285 -72 -104 -71 -102 -31 -65 55 51 92 108 117 181 40 118 27 335
-25 412 -22 32 -56 48 -56 27z"/>
</g>
<g>
<path d="M2770 1655 c-19 -20 -24 -41 -32 -122 -22 -223 21 -359 131 -417 79
-41 107 -33 35 10 -32 19 -69 45 -81 56 -37 35 -55 103 -60 228 -6 172 23 256
77 222 23 -14 26 -3 10 29 -15 26 -52 24 -80 -6z"/>
</g>
<g>
<path d="M2926 1628 c-14 -144 -16 -270 -4 -311 l12 -42 7 75 c10 118 10 330
0 330 -5 0 -12 -24 -15 -52z"/>
</g>
<g>
<path d="M1750 1618 c-16 -36 -24 -79 -27 -147 -6 -106 6 -170 38 -202 20 -20
59 -26 59 -9 0 6 -6 10 -14 10 -8 0 -24 12 -35 26 -18 22 -21 41 -21 113 0 89
19 194 39 214 8 8 11 5 11 -11 0 -12 5 -22 11 -22 8 0 9 11 5 31 -3 17 -6 35
-6 40 0 5 -8 9 -19 9 -13 0 -25 -16 -41 -52z"/>
</g>
<g>
<path d="M1946 1602 c-14 -28 -29 -101 -41 -209 -6 -59 8 -78 35 -45 17 21 17
20 29 -19 18 -59 32 -48 29 23 l-3 63 45 13 c85 25 89 32 18 29 l-67 -3 -3 85
c-3 92 -17 112 -42 63z"/>
</g>
<g>
<path d="M3062 1583 c-9 -22 -8 -188 1 -225 15 -59 79 -60 104 -1 26 64 -6
174 -63 218 -32 24 -35 25 -42 8z m72 -93 c21 -54 20 -93 -3 -121 -29 -36 -43
-14 -43 69 0 102 18 122 46 52z"/>
</g>
<g>
<path d="M4396 1553 c-8 -53 -6 -224 4 -248 6 -17 8 -15 13 15 3 19 8 88 11
153 4 93 3 117 -8 117 -8 0 -16 -16 -20 -37z"/>
</g>
<g>
<path d="M5178 1555 c-20 -34 -21 -35 -44 -20 -13 8 -28 15 -34 15 -20 0 -10
-40 15 -56 33 -21 32 -37 -10 -134 -19 -45 -35 -87 -35 -92 0 -26 41 29 66 88
15 35 30 64 35 64 4 0 17 -16 29 -35 12 -19 28 -35 36 -35 19 0 18 4 -10 48
-38 57 -41 86 -17 126 20 32 20 66 0 66 -6 0 -19 -16 -31 -35z"/>
</g>
<g>
<path d="M4590 1546 c0 -8 5 -18 10 -21 32 -20 -7 -150 -45 -150 -17 0 -20 8
-23 60 -1 33 -5 71 -8 84 -9 41 -24 4 -24 -62 0 -73 21 -127 50 -127 30 0 80
53 80 85 0 15 4 24 10 20 6 -3 10 -18 10 -33 1 -75 34 -94 87 -48 25 22 28 30
28 89 0 92 -37 128 -96 96 -16 -8 -25 -7 -38 5 -22 20 -41 21 -41 2z m138 -38
c19 -19 15 -93 -8 -119 -17 -20 -21 -22 -29 -9 -13 19 -25 115 -16 129 8 15
38 14 53 -1z"/>
</g>
<g>
<path d="M3341 1509 c6 -23 8 -43 6 -45 -2 -2 -27 -7 -57 -11 -54 -8 -66 -18
-51 -41 7 -12 14 -11 40 3 18 9 42 15 54 13 22 -3 25 -11 44 -107 7 -39 23 -5
23 52 0 34 4 47 14 47 27 0 28 20 2 31 -16 8 -32 28 -42 55 -22 58 -45 60 -33
3z"/>
</g>
<g>
<path d="M1217 1514 c-12 -15 -34 -40 -49 -56 -32 -34 -35 -48 -12 -48 9 0 29
-11 46 -25 26 -22 39 -25 104 -25 54 0 85 5 113 19 l38 20 28 -30 c35 -36 66
-41 41 -6 -24 32 -33 55 -51 120 -14 48 -20 57 -40 57 -26 0 -75 -50 -105
-110 -18 -35 -25 -40 -54 -40 -47 0 -64 23 -44 58 38 67 27 117 -15 66z m223
-27 c0 -19 -56 -70 -71 -65 -7 2 0 17 21 41 33 38 50 46 50 24z"/>
</g>
<g>
<path d="M3520 1530 c0 -5 14 -25 30 -43 34 -39 36 -55 15 -112 -29 -80 -11
-91 25 -15 13 28 27 50 31 50 3 0 19 -16 33 -35 15 -19 31 -35 37 -35 17 0 9
25 -22 65 -16 22 -25 41 -19 43 14 5 13 28 -5 62 -18 35 -31 38 -40 10 l-6
-20 -29 20 c-30 22 -50 26 -50 10z"/>
</g>
<g>
<path d="M2447 1463 c-34 -9 -11 -28 38 -31 57 -4 102 5 89 18 -11 11 -102 21
-127 13z"/>
</g>
<g>
<path d="M4851 1461 c-27 -17 0 -28 84 -35 102 -8 145 5 69 22 -80 18 -138 23
-153 13z"/>
</g>
<g>
<path d="M2466 1381 c-17 -3 -28 -10 -25 -16 4 -11 118 -10 159 1 23 7 22 8
-15 15 -46 9 -78 9 -119 0z"/>
</g>
</g>
</svg>
