<?xml version="1.0" encoding="UTF-8" standalone="no"?>
<!-- Created with Inkscape (http://www.inkscape.org/) -->

<svg
   xmlns:ns0="http://www.iki.fi/pav/software/textext/"
   xmlns:dc="http://purl.org/dc/elements/1.1/"
   xmlns:cc="http://creativecommons.org/ns#"
   xmlns:rdf="http://www.w3.org/1999/02/22-rdf-syntax-ns#"
   xmlns:svg="http://www.w3.org/2000/svg"
   xmlns="http://www.w3.org/2000/svg"
   xmlns:sodipodi="http://sodipodi.sourceforge.net/DTD/sodipodi-0.dtd"
   xmlns:inkscape="http://www.inkscape.org/namespaces/inkscape"
   width="593.21704"
   height="158.34676"
   id="svg2"
   version="1.1"
   inkscape:version="0.48.3.1 r9886"
   sodipodi:docname="right.svg">
  <sodipodi:namedview
     id="base"
     pagecolor="#ffffff"
     bordercolor="#666666"
     borderopacity="1.0"
     inkscape:pageopacity="0.0"
     inkscape:pageshadow="2"
     inkscape:zoom="0.41050506"
     inkscape:cx="303.75813"
     inkscape:cy="-221.36564"
     inkscape:document-units="px"
     inkscape:current-layer="layer1"
     showgrid="false"
     inkscape:window-width="921"
     inkscape:window-height="627"
     inkscape:window-x="213"
     inkscape:window-y="53"
     inkscape:window-maximized="0"
     fit-margin-top="0"
     fit-margin-left="0"
     fit-margin-right="0"
     fit-margin-bottom="0"
     showborder="false"
     inkscape:showpageshadow="false">
    <inkscape:grid
       originy="-747.54673px"
       originx="-68.289109px"
       snapvisiblegridlinesonly="true"
       enabled="true"
       visible="true"
       empspacing="5"
       id="grid2991"
       type="xygrid" />
  </sodipodi:namedview>
  <defs
     id="defs4" />
  <metadata
     id="metadata7">
    <rdf:RDF>
      <cc:Work
         rdf:about="">
        <dc:format>image/svg+xml</dc:format>
        <dc:type
           rdf:resource="http://purl.org/dc/dcmitype/StillImage" />
        <dc:title></dc:title>
      </cc:Work>
    </rdf:RDF>
  </metadata>
  <g
     transform="translate(-68.289109,-146.46869)"
     id="layer1"
     inkscape:groupmode="layer"
     inkscape:label="Layer 1">
    <g
       id="g4566"
       transform="translate(-70.462312,-4.2704432)">
      <path
         style="color:#000000;fill:none;stroke:#000000;stroke-width:3;stroke-linecap:butt;stroke-linejoin:round;stroke-miterlimit:4;stroke-opacity:1;stroke-dasharray:none;stroke-dashoffset:0;marker:none;visibility:visible;display:inline;overflow:visible;enable-background:accumulate"
         d="m 170,282.36218 230,0 -65,-100 -105,0 z"
         id="path2993"
         inkscape:connector-curvature="0" />
      <path
         style="color:#000000;fill:none;stroke:#000000;stroke-width:2;stroke-linecap:butt;stroke-linejoin:round;stroke-miterlimit:4;stroke-opacity:0.39215686;stroke-dasharray:none;stroke-dashoffset:0;marker:none;visibility:visible;display:inline;overflow:visible;enable-background:accumulate"
         d="m 230,182.36218 0,100"
         id="path3763"
         inkscape:connector-curvature="0" />
      <path
         style="color:#000000;fill:none;stroke:#000000;stroke-width:2;stroke-linecap:butt;stroke-linejoin:round;stroke-miterlimit:4;stroke-opacity:0.39215686;stroke-dasharray:none;stroke-dashoffset:0;marker:none;visibility:visible;display:inline;overflow:visible;enable-background:accumulate"
         d="m 335,182.36218 0,100"
         id="path3765"
         inkscape:connector-curvature="0" />
      <g
         id="g3923"
         transform="matrix(0.53557687,0,0,0.53557687,151.90578,50.403732)">
        <g
           id="g3925"
           transform="matrix(1.0629921,0,0,-1.0629921,-186.02362,789.27165)"
           xml:space="preserve"
           stroke-miterlimit="10.433"
           font-style="normal"
           font-variant="normal"
           font-weight="normal"
           font-stretch="normal"
           font-size-adjust="none"
           letter-spacing="normal"
           word-spacing="normal"
           style="font-style:normal;font-variant:normal;font-weight:normal;font-stretch:normal;letter-spacing:normal;word-spacing:normal;text-anchor:start;fill:none;stroke:#000000;stroke-linecap:butt;stroke-linejoin:miter;stroke-miterlimit:10.43299961;stroke-opacity:1;stroke-dasharray:none;stroke-dashoffset:0"><path
             d="m 469.82,440.23 0,0 0,0.01 0,0 0,0.01 -0.01,0.02 0,0.01 0,0.02 0,0.02 0,0.02 -0.01,0.02 0,0.02 -0.01,0.02 -0.01,0.02 -0.01,0.03 -0.01,0.02 -0.01,0.03 -0.01,0.02 -0.02,0.03 -0.02,0.02 -0.02,0.02 -0.02,0.03 -0.01,0.01 -0.01,0.01 -0.02,0.01 -0.01,0.01 -0.02,0.01 -0.01,0.01 -0.02,0.01 -0.01,0.01 -0.02,0.01 -0.02,0.01 -0.02,0 -0.02,0.01 -0.02,0.01 -0.02,0 -0.02,0.01 -0.02,0.01 -0.03,0 -0.02,0 -0.03,0.01 -0.02,0 -0.03,0 -0.03,0.01 -0.02,0 -0.03,0 c -1.16,0 -4.79,-0.41 -6.08,-0.5 -0.41,-0.05 -0.96,-0.1 -0.96,-1 0,-0.6 0.46,-0.6 1.21,-0.6 2.39,0 2.48,-0.34 2.48,-0.84 l -0.15,-1 -7.22,-28.7 c -0.21,-0.69 -0.21,-0.8 -0.21,-1.1 0,-1.14 1,-1.39 1.46,-1.39 0.79,0 1.59,0.6 1.84,1.3 l 0.94,3.78 1.11,4.48 c 0.29,1.1 0.59,2.19 0.84,3.35 0.1,0.3 0.5,1.94 0.55,2.23 0.14,0.46 1.69,3.25 3.39,4.6 1.09,0.79 2.64,1.73 4.78,1.73 2.14,0 2.69,-1.69 2.69,-3.48 0,-2.69 -1.89,-8.13 -3.1,-11.16 -0.39,-1.16 -0.64,-1.75 -0.64,-2.75 0,-2.33 1.74,-4.08 4.08,-4.08 4.69,0 6.53,7.27 6.53,7.67 0,0.5 -0.45,0.5 -0.59,0.5 -0.5,0 -0.5,-0.15 -0.75,-0.9 -0.75,-2.64 -2.34,-6.17 -5.08,-6.17 -0.86,0 -1.2,0.5 -1.2,1.64 0,1.25 0.45,2.45 0.9,3.54 0.8,2.14 3.04,8.07 3.04,10.96 0,3.23 -2,5.32 -5.74,5.32 -3.14,0 -5.53,-1.53 -7.37,-3.82 z"
             id="path3927"
             inkscape:connector-curvature="0"
             style="fill:#000000;stroke-width:0" /></g>      </g>
      <g
         id="g3975"
         transform="matrix(0.68252051,0,0,0.68252051,-9.3675933,59.335568)">
        <g
           word-spacing="normal"
           letter-spacing="normal"
           font-size-adjust="none"
           font-stretch="normal"
           font-weight="normal"
           font-variant="normal"
           font-style="normal"
           stroke-miterlimit="10.433"
           xml:space="preserve"
           transform="matrix(1.0629921,0,0,-1.0629921,-186.02362,789.27165)"
           id="g3977"
           style="font-style:normal;font-variant:normal;font-weight:normal;font-stretch:normal;letter-spacing:normal;word-spacing:normal;text-anchor:start;fill:none;stroke:#000000;stroke-linecap:butt;stroke-linejoin:miter;stroke-miterlimit:10.43299961;stroke-opacity:1;stroke-dasharray:none;stroke-dashoffset:0"><path
             id="path3979"
             d="m 472.16,421.25 0.03,0.13 0.04,0.15 0.04,0.16 0.04,0.18 0.06,0.19 0.06,0.21 0.06,0.22 0.07,0.22 0.08,0.23 0.09,0.24 0.1,0.25 0.1,0.24 0.11,0.25 0.12,0.25 0.13,0.25 0.14,0.25 0.15,0.24 0.15,0.24 0.17,0.23 0.18,0.22 0.18,0.22 0.2,0.2 0.21,0.19 0.22,0.18 0.23,0.16 0.25,0.14 0.12,0.07 0.13,0.06 0.14,0.05 0.13,0.05 0.14,0.05 0.14,0.04 0.15,0.03 0.15,0.03 0.15,0.02 0.16,0.02 0.16,0.01 0.16,0 c 0.25,0 1.44,0 2.48,-0.64 -1.39,-0.25 -2.39,-1.5 -2.39,-2.69 0,-0.79 0.55,-1.75 1.89,-1.75 1.1,0 2.69,0.89 2.69,2.89 0,2.6 -2.94,3.28 -4.63,3.28 -2.89,0 -4.64,-2.64 -5.23,-3.78 -1.25,3.28 -3.94,3.78 -5.37,3.78 -5.19,0 -8.04,-6.42 -8.04,-7.67 0,-0.5 0.5,-0.5 0.61,-0.5 0.39,0 0.55,0.11 0.64,0.55 1.69,5.28 4.99,6.53 6.68,6.53 0.95,0 2.68,-0.44 2.68,-3.33 0,-1.54 -0.84,-4.89 -2.68,-11.86 -0.8,-3.09 -2.54,-5.18 -4.74,-5.18 -0.3,0 -1.44,0 -2.48,0.65 1.25,0.24 2.34,1.28 2.34,2.69 0,1.34 -1.09,1.73 -1.84,1.73 -1.5,0 -2.75,-1.29 -2.75,-2.89 0,-2.28 2.5,-3.28 4.68,-3.28 3.3,0 5.08,3.49 5.24,3.78 0.59,-1.84 2.39,-3.78 5.37,-3.78 5.14,0 7.99,6.42 7.99,7.67 0,0.5 -0.45,0.5 -0.61,0.5 -0.44,0 -0.55,-0.2 -0.64,-0.54 -1.64,-5.33 -5.03,-6.53 -6.63,-6.53 -1.95,0 -2.75,1.59 -2.75,3.29 0,1.1 0.3,2.19 0.86,4.38 z"
             inkscape:connector-curvature="0"
             style="fill:#000000;stroke-width:0" /></g>      </g>
      <g
         transform="matrix(0.53557687,0,0,0.53557687,75.486763,49.477174)"
         id="g4006">
        <g
           style="font-style:normal;font-variant:normal;font-weight:normal;font-stretch:normal;letter-spacing:normal;word-spacing:normal;text-anchor:start;fill:none;stroke:#000000;stroke-linecap:butt;stroke-linejoin:miter;stroke-miterlimit:10.43299961;stroke-opacity:1;stroke-dasharray:none;stroke-dashoffset:0"
           word-spacing="normal"
           letter-spacing="normal"
           font-size-adjust="none"
           font-stretch="normal"
           font-weight="normal"
           font-variant="normal"
           font-style="normal"
           stroke-miterlimit="10.433"
           xml:space="preserve"
           transform="matrix(1.0629921,0,0,-1.0629921,-186.02362,789.27165)"
           id="g4008"><path
             style="fill:#000000;stroke-width:0"
             inkscape:connector-curvature="0"
             id="path4010"
             d="m 469.82,440.23 0,0 0,0.01 0,0 0,0.01 -0.01,0.02 0,0.01 0,0.02 0,0.02 0,0.02 -0.01,0.02 0,0.02 -0.01,0.02 -0.01,0.02 -0.01,0.03 -0.01,0.02 -0.01,0.03 -0.01,0.02 -0.02,0.03 -0.02,0.02 -0.02,0.02 -0.02,0.03 -0.01,0.01 -0.01,0.01 -0.02,0.01 -0.01,0.01 -0.02,0.01 -0.01,0.01 -0.02,0.01 -0.01,0.01 -0.02,0.01 -0.02,0.01 -0.02,0 -0.02,0.01 -0.02,0.01 -0.02,0 -0.02,0.01 -0.02,0.01 -0.03,0 -0.02,0 -0.03,0.01 -0.02,0 -0.03,0 -0.03,0.01 -0.02,0 -0.03,0 c -1.16,0 -4.79,-0.41 -6.08,-0.5 -0.41,-0.05 -0.96,-0.1 -0.96,-1 0,-0.6 0.46,-0.6 1.21,-0.6 2.39,0 2.48,-0.34 2.48,-0.84 l -0.15,-1 -7.22,-28.7 c -0.21,-0.69 -0.21,-0.8 -0.21,-1.1 0,-1.14 1,-1.39 1.46,-1.39 0.79,0 1.59,0.6 1.84,1.3 l 0.94,3.78 1.11,4.48 c 0.29,1.1 0.59,2.19 0.84,3.35 0.1,0.3 0.5,1.94 0.55,2.23 0.14,0.46 1.69,3.25 3.39,4.6 1.09,0.79 2.64,1.73 4.78,1.73 2.14,0 2.69,-1.69 2.69,-3.48 0,-2.69 -1.89,-8.13 -3.1,-11.16 -0.39,-1.16 -0.64,-1.75 -0.64,-2.75 0,-2.33 1.74,-4.08 4.08,-4.08 4.69,0 6.53,7.27 6.53,7.67 0,0.5 -0.45,0.5 -0.59,0.5 -0.5,0 -0.5,-0.15 -0.75,-0.9 -0.75,-2.64 -2.34,-6.17 -5.08,-6.17 -0.86,0 -1.2,0.5 -1.2,1.64 0,1.25 0.45,2.45 0.9,3.54 0.8,2.14 3.04,8.07 3.04,10.96 0,3.23 -2,5.32 -5.74,5.32 -3.14,0 -5.53,-1.53 -7.37,-3.82 z" /></g>      </g>
      <g
         transform="matrix(0.68252051,0,0,0.68252051,154.38452,59.385145)"
         id="g4012">
        <g
           style="font-style:normal;font-variant:normal;font-weight:normal;font-stretch:normal;letter-spacing:normal;word-spacing:normal;text-anchor:start;fill:none;stroke:#000000;stroke-linecap:butt;stroke-linejoin:miter;stroke-miterlimit:10.43299961;stroke-opacity:1;stroke-dasharray:none;stroke-dashoffset:0"
           id="g4014"
           transform="matrix(1.0629921,0,0,-1.0629921,-186.02362,789.27165)"
           xml:space="preserve"
           stroke-miterlimit="10.433"
           font-style="normal"
           font-variant="normal"
           font-weight="normal"
           font-stretch="normal"
           font-size-adjust="none"
           letter-spacing="normal"
           word-spacing="normal"><path
             style="fill:#000000;stroke-width:0"
             inkscape:connector-curvature="0"
             d="m 472.16,421.25 0.03,0.13 0.04,0.15 0.04,0.16 0.04,0.18 0.06,0.19 0.06,0.21 0.06,0.22 0.07,0.22 0.08,0.23 0.09,0.24 0.1,0.25 0.1,0.24 0.11,0.25 0.12,0.25 0.13,0.25 0.14,0.25 0.15,0.24 0.15,0.24 0.17,0.23 0.18,0.22 0.18,0.22 0.2,0.2 0.21,0.19 0.22,0.18 0.23,0.16 0.25,0.14 0.12,0.07 0.13,0.06 0.14,0.05 0.13,0.05 0.14,0.05 0.14,0.04 0.15,0.03 0.15,0.03 0.15,0.02 0.16,0.02 0.16,0.01 0.16,0 c 0.25,0 1.44,0 2.48,-0.64 -1.39,-0.25 -2.39,-1.5 -2.39,-2.69 0,-0.79 0.55,-1.75 1.89,-1.75 1.1,0 2.69,0.89 2.69,2.89 0,2.6 -2.94,3.28 -4.63,3.28 -2.89,0 -4.64,-2.64 -5.23,-3.78 -1.25,3.28 -3.94,3.78 -5.37,3.78 -5.19,0 -8.04,-6.42 -8.04,-7.67 0,-0.5 0.5,-0.5 0.61,-0.5 0.39,0 0.55,0.11 0.64,0.55 1.69,5.28 4.99,6.53 6.68,6.53 0.95,0 2.68,-0.44 2.68,-3.33 0,-1.54 -0.84,-4.89 -2.68,-11.86 -0.8,-3.09 -2.54,-5.18 -4.74,-5.18 -0.3,0 -1.44,0 -2.48,0.65 1.25,0.24 2.34,1.28 2.34,2.69 0,1.34 -1.09,1.73 -1.84,1.73 -1.5,0 -2.75,-1.29 -2.75,-2.89 0,-2.28 2.5,-3.28 4.68,-3.28 3.3,0 5.08,3.49 5.24,3.78 0.59,-1.84 2.39,-3.78 5.37,-3.78 5.14,0 7.99,6.42 7.99,7.67 0,0.5 -0.45,0.5 -0.61,0.5 -0.44,0 -0.55,-0.2 -0.64,-0.54 -1.64,-5.33 -5.03,-6.53 -6.63,-6.53 -1.95,0 -2.75,1.59 -2.75,3.29 0,1.1 0.3,2.19 0.86,4.38 z"
             id="path4016" /></g>      </g>
      <g
         transform="matrix(0.5820106,0,0,0.5820106,-36.03598,101.02627)"
         id="g4195">
        <g
           style="font-style:normal;font-variant:normal;font-weight:normal;font-stretch:normal;letter-spacing:normal;word-spacing:normal;text-anchor:start;fill:none;stroke:#000000;stroke-linecap:butt;stroke-linejoin:miter;stroke-miterlimit:10.43299961;stroke-opacity:1;stroke-dasharray:none;stroke-dashoffset:0"
           word-spacing="normal"
           letter-spacing="normal"
           font-size-adjust="none"
           font-stretch="normal"
           font-weight="normal"
           font-variant="normal"
           font-style="normal"
           stroke-miterlimit="10.433"
           xml:space="preserve"
           transform="matrix(1.0629921,0,0,-1.0629921,-186.02362,789.27165)"
           id="content"><path
             style="fill:#000000;stroke-width:0"
             inkscape:connector-curvature="0"
             id="path4198"
             d="m 470.61,421.95 0.21,1.28 3.39,13.56 c 0.43,1.74 0.54,1.89 2.68,1.89 h 4.79 c 4.14,0 6.78,-1.34 6.78,-4.78 0,-1.95 -1,-6.23 -2.94,-8.03 -2.5,-2.23 -5.48,-2.64 -7.69,-2.64 h -7.01 l -0.21,-1.28 h 8.47 c 7.08,0 14,5.17 14,10.75 0,3.84 -3.28,7.53 -9.81,7.53 h -16.14 c -0.95,0 -1.5,0 -1.5,-0.95 0,-0.6 0.45,-0.6 1.45,-0.6 0.64,0 1.55,-0.04 2.14,-0.09 0.8,-0.11 1.1,-0.25 1.1,-0.8 0,-0.2 -0.05,-0.36 -0.21,-0.95 l -6.67,-26.75 c -0.5,-1.95 -0.59,-2.34 -4.53,-2.34 -0.84,0 -1.39,0 -1.39,-0.96 0,-0.59 0.59,-0.59 0.73,-0.59 1.41,0 4.94,0.16 6.33,0.16 1.05,0 2.14,-0.07 3.19,-0.07 1.11,0 2.2,-0.09 3.25,-0.09 0.34,0 0.98,0 0.98,1 0,0.55 -0.43,0.55 -1.39,0.55 -1.84,0 -3.23,0 -3.23,0.89 0,0.29 0.09,0.54 0.14,0.84 z" /></g>      </g>
      <g
         transform="matrix(0.54646574,0,0,0.54646574,41.754471,-22.529684)"
         id="g4292">
        <g
           style="font-style:normal;font-variant:normal;font-weight:normal;font-stretch:normal;letter-spacing:normal;word-spacing:normal;text-anchor:start;fill:none;stroke:#000000;stroke-linecap:butt;stroke-linejoin:miter;stroke-miterlimit:10.43299961;stroke-opacity:1;stroke-dasharray:none;stroke-dashoffset:0"
           id="g4294"
           transform="matrix(1.0629921,0,0,-1.0629921,-186.02362,789.27165)"
           xml:space="preserve"
           stroke-miterlimit="10.433"
           font-style="normal"
           font-variant="normal"
           font-weight="normal"
           font-stretch="normal"
           font-size-adjust="none"
           letter-spacing="normal"
           word-spacing="normal"><path
             style="fill:#000000;stroke-width:0"
             inkscape:connector-curvature="0"
             d="m 477.35,406.5 0.72,0.29 0.72,0.33 0.71,0.35 0.71,0.4 0.7,0.42 0.69,0.45 0.68,0.48 0.68,0.51 0.65,0.54 0.65,0.56 0.63,0.59 0.61,0.61 0.6,0.64 0.57,0.66 0.56,0.68 0.54,0.7 0.51,0.72 0.49,0.73 0.46,0.76 0.44,0.77 0.41,0.79 0.38,0.8 0.35,0.82 0.32,0.83 0.29,0.84 0.25,0.85 0.21,0.87 0.18,0.87 0.15,0.88 0.1,0.89 0.06,0.89 0.02,0.9 c 0,8.03 -5.28,13.4 -12.71,13.4 l -0.3,-1.25 c 4.98,0 8.62,-3.87 8.62,-10.56 0,-4.98 -2.54,-16.64 -10.9,-21.31 -0.25,1.73 -0.75,5.37 -4.39,5.37 v -1.09 c 2.09,0 3.04,-1.2 3.04,-4.23 0,-0.75 -0.06,-0.8 -0.56,-1 -1.28,-0.55 -2.78,-0.89 -4.17,-0.89 h 0 c -0.7,0 -2.3,0 -2.3,2.14 0,1.98 1.89,3.98 3.99,3.98 v 1.09 c -2.64,0 -5.08,-2.5 -5.08,-5.07 0,-1 0.3,-1.55 0.3,-1.6 h 0 c -3.89,1.53 -5.58,5.42 -5.58,9.91 0,3.44 1.29,10.51 5.08,15.89 3.64,5.09 8.32,7.37 11.95,7.37 l 0.3,1.25 c -10.75,0 -21.72,-11.31 -21.72,-22.92 0,-8.26 5.58,-13.29 12.76,-13.29 1.24,0 2.94,0.2 4.88,0.75 -0.21,-3.1 -0.21,-3.19 -0.21,-3.85 0,-1.59 0,-5.48 4.15,-5.48 5.92,0 8.31,9.12 8.31,9.67 0,0.34 -0.35,0.5 -0.55,0.5 -0.39,0 -0.5,-0.25 -0.59,-0.55 -1.19,-3.54 -4.08,-4.78 -5.83,-4.78 -2.3,0 -3.05,1.34 -3.53,5.13 z"
             id="path4296" /></g>      </g>
      <g
         transform="matrix(0.52910054,0,0,0.52910054,173.47224,-14.032563)"
         id="g4396">
        <g
           style="font-style:normal;font-variant:normal;font-weight:normal;font-stretch:normal;letter-spacing:normal;word-spacing:normal;text-anchor:start;fill:none;stroke:#000000;stroke-linecap:butt;stroke-linejoin:miter;stroke-miterlimit:10.43299961;stroke-opacity:1;stroke-dasharray:none;stroke-dashoffset:0"
           word-spacing="normal"
           letter-spacing="normal"
           font-size-adjust="none"
           font-stretch="normal"
           font-weight="normal"
           font-variant="normal"
           font-style="normal"
           stroke-miterlimit="10.433"
           xml:space="preserve"
           transform="matrix(1.0629921,0,0,-1.0629921,-186.02362,789.27165)"
           id="g4398"><path
             style="fill:#000000;stroke-width:0"
             inkscape:connector-curvature="0"
             id="path4400"
             d="m 481.38,423.14 0.47,0.11 0.48,0.12 0.48,0.14 0.48,0.15 0.49,0.16 0.48,0.18 0.48,0.19 0.47,0.2 0.47,0.22 0.47,0.23 0.46,0.24 0.45,0.25 0.43,0.27 0.43,0.28 0.42,0.29 0.4,0.3 0.39,0.31 0.37,0.32 0.36,0.34 0.33,0.35 0.32,0.35 0.29,0.37 0.28,0.38 0.25,0.39 0.22,0.4 0.2,0.41 0.17,0.42 0.15,0.43 0.11,0.44 0.08,0.45 0.05,0.46 0.02,0.47 c 0,4.28 -4.48,7.47 -11,7.47 h -14.2 c -1,0 -1.45,0 -1.45,-1 0,-0.55 0.45,-0.55 1.4,-0.55 0.1,0 1.05,0 1.89,-0.09 0.89,-0.11 1.35,-0.16 1.35,-0.8 0,-0.2 -0.05,-0.36 -0.21,-0.95 l -6.67,-26.75 c -0.5,-1.95 -0.59,-2.34 -4.53,-2.34 -0.91,0 -1.34,0 -1.34,-1 0,-0.55 0.59,-0.55 0.68,-0.55 1.41,0 4.89,0.16 6.29,0.16 1.39,0 4.93,-0.16 6.32,-0.16 0.41,0 1,0 1,1 0,0.55 -0.45,0.55 -1.39,0.55 -1.84,0 -3.25,0 -3.25,0.89 0,0.29 0.11,0.54 0.16,0.84 l 3.28,13.2 h 5.94 l -0.05,1.11 h -5.59 l 3.25,13 c 0.29,1.19 0.43,1.69 1.39,1.85 0.45,0.04 2.04,0.04 3.03,0.04 3.55,0 9.08,0 9.08,-4.93 0,-1.69 -0.8,-5.13 -2.75,-7.07 -1.28,-1.29 -3.92,-2.89 -8.41,-2.89 l 0.05,-1.11 c 4.53,0 5.42,-2.78 5.42,-4.53 0,-0.75 -0.39,-2.28 -0.69,-3.44 -0.36,-1.39 -0.79,-3.23 -0.79,-4.23 0,-5.37 5.96,-5.37 6.62,-5.37 4.23,0 5.97,5.03 5.97,5.73 0,0.59 -0.55,0.59 -0.59,0.59 -0.46,0 -0.55,-0.36 -0.65,-0.7 -1.25,-3.69 -3.39,-4.53 -4.54,-4.53 -1.64,0 -1.99,1.09 -1.99,3.05 0,1.53 0.3,4.07 0.5,5.67 0.1,0.7 0.21,1.64 0.21,2.34 0,3.83 -3.35,5.38 -4.69,5.88 z" /></g>      </g>
      <g
         transform="matrix(0.63671118,0,0,0.63671118,211.10837,77.622165)"
         id="g4506">
        <g
           style="font-style:normal;font-variant:normal;font-weight:normal;font-stretch:normal;letter-spacing:normal;word-spacing:normal;text-anchor:start;fill:none;stroke:#000000;stroke-linecap:butt;stroke-linejoin:miter;stroke-miterlimit:10.43299961;stroke-opacity:1;stroke-dasharray:none;stroke-dashoffset:0"
           id="g4508"
           transform="matrix(1.0629921,0,0,-1.0629921,-186.02362,789.27165)"
           xml:space="preserve"
           stroke-miterlimit="10.433"
           font-style="normal"
           font-variant="normal"
           font-weight="normal"
           font-stretch="normal"
           font-size-adjust="none"
           letter-spacing="normal"
           word-spacing="normal"><path
             style="fill:#000000;stroke-width:0"
             inkscape:connector-curvature="0"
             d="m 487.66,440.82 0,0.02 0,0.02 0,0.01 -0.01,0.02 0,0.02 0,0.02 -0.01,0.02 0,0.02 -0.01,0.02 -0.01,0.02 -0.01,0.02 -0.01,0.02 -0.01,0.02 -0.01,0.02 -0.01,0.02 -0.02,0.02 -0.02,0.02 -0.01,0.02 -0.02,0.02 -0.02,0.02 -0.02,0.01 -0.03,0.02 -0.02,0.01 -0.03,0.02 -0.02,0.01 -0.03,0.01 -0.02,0.01 -0.01,0 -0.02,0.01 -0.02,0 -0.01,0 -0.02,0.01 -0.02,0 -0.02,0 -0.02,0 -0.02,0 -0.02,0 -0.02,0 c -0.25,0 -0.31,-0.04 -0.9,-0.75 l -2.39,-2.84 c -1.3,2.34 -3.89,3.59 -7.13,3.59 -6.33,0 -12.3,-5.73 -12.3,-11.76 0,-4.03 2.65,-6.33 5.18,-7.06 l 5.32,-1.41 c 1.85,-0.44 4.6,-1.19 4.6,-5.28 0,-4.49 -4.1,-9.16 -8.97,-9.16 -3.19,0 -8.72,1.1 -8.72,7.27 0,1.2 0.25,2.39 0.3,2.69 0.04,0.2 0.09,0.25 0.09,0.35 0,0.5 -0.34,0.55 -0.59,0.55 -0.25,0 -0.35,-0.05 -0.5,-0.2 -0.21,-0.2 -2.99,-11.56 -2.99,-11.7 0,-0.3 0.25,-0.5 0.55,-0.5 0.25,0 0.3,0.04 0.89,0.75 l 2.45,2.82 c 2.14,-2.89 5.52,-3.57 8.41,-3.57 6.78,0 12.66,6.62 12.66,12.79 0,3.44 -1.69,5.14 -2.44,5.83 -1.14,1.16 -1.89,1.34 -6.33,2.5 -1.09,0.3 -2.89,0.8 -3.34,0.89 -1.35,0.45 -3.03,1.89 -3.03,4.53 0,4.05 3.98,8.28 8.71,8.28 4.15,0 7.18,-2.14 7.18,-7.73 0,-1.59 -0.21,-2.49 -0.21,-2.78 0,-0.05 0,-0.5 0.61,-0.5 0.5,0 0.55,0.15 0.74,1 z"
             id="path4510" /></g>      </g>
    </g>
    <g
       style="fill:#008080;stroke:#000000;stroke-opacity:1"
       transform="matrix(0.54140237,0,0,0.54140237,141.34993,32.927517)"
       id="g4652">
      <g
         style="font-style:normal;font-variant:normal;font-weight:normal;font-stretch:normal;letter-spacing:normal;word-spacing:normal;text-anchor:start;fill:#008080;stroke:#000000;stroke-linecap:butt;stroke-linejoin:miter;stroke-miterlimit:10.43299961;stroke-opacity:1;stroke-dasharray:none;stroke-dashoffset:0"
         id="g4654"
         transform="matrix(1.0629921,0,0,-1.0629921,-186.02362,789.27165)"
         xml:space="preserve"
         stroke-miterlimit="10.433"
         font-style="normal"
         font-variant="normal"
         font-weight="normal"
         font-stretch="normal"
         font-size-adjust="none"
         letter-spacing="normal"
         word-spacing="normal"><path
           style="fill:#008080;stroke:#000000;stroke-width:0;stroke-opacity:1"
           inkscape:connector-curvature="0"
           d="m 470.16,438.09 0,0.05 0,0.06 0,0.05 0,0.05 0,0.05 0,0.05 0,0.04 0,0.05 0,0.04 0,0.04 -0.01,0.04 0,0.04 0,0.04 0,0.03 0,0.04 -0.01,0.03 -0.01,0.07 0,0.06 -0.02,0.05 -0.01,0.05 -0.02,0.05 -0.02,0.04 -0.02,0.04 -0.02,0.03 -0.03,0.03 -0.03,0.03 -0.04,0.03 -0.04,0.02 -0.04,0.02 -0.03,0.01 -0.02,0.01 -0.03,0 -0.02,0.01 -0.03,0.01 -0.03,0 -0.03,0.01 -0.03,0 -0.04,0.01 -0.03,0 -0.04,0 -0.03,0.01 -0.04,0 -0.04,0 -0.05,0 -0.04,0 -0.04,0 -0.05,0.01 -0.05,0 -0.05,0 -0.05,0 -0.05,0 c -3.09,-3.19 -7.47,-3.19 -9.06,-3.19 v -1.55 c 1,0 3.93,0 6.51,1.3 v -25.81 c 0,-1.8 -0.14,-2.39 -4.62,-2.39 h -1.6 v -1.55 c 1.75,0.16 6.08,0.16 8.07,0.16 2,0 6.32,0 8.07,-0.16 v 1.55 h -1.59 c -4.48,0 -4.64,0.54 -4.64,2.39 z"
           id="path4656" /><path
           style="fill:#008080;stroke:#000000;stroke-width:0;stroke-opacity:1"
           inkscape:connector-curvature="0"
           d="m 503.4,422.14 -0.01,0.74 -0.01,0.75 -0.02,0.75 -0.03,0.74 -0.04,0.75 -0.06,0.74 -0.08,0.74 -0.1,0.73 -0.11,0.73 -0.14,0.73 -0.16,0.72 -0.19,0.72 -0.22,0.72 -0.24,0.7 -0.28,0.7 -0.15,0.35 -0.16,0.34 c -2.28,4.8 -6.38,5.6 -8.47,5.6 -2.98,0 -6.63,-1.3 -8.67,-5.94 -1.6,-3.44 -1.85,-7.33 -1.85,-11.31 0,-3.74 0.21,-8.22 2.25,-12 2.14,-4.03 5.79,-5.03 8.22,-5.03 v 1.09 c -1.93,0 -4.89,1.25 -5.78,6.03 -0.55,2.98 -0.55,7.56 -0.55,10.52 0,3.18 0,6.46 0.41,9.15 0.94,5.94 4.67,6.38 5.92,6.38 1.64,0 4.94,-0.89 5.88,-5.83 0.5,-2.78 0.5,-6.58 0.5,-9.7 0,-3.75 0,-7.13 -0.55,-10.32 -0.75,-4.73 -3.59,-6.23 -5.83,-6.23 h 0 v -1.09 c 2.69,0 6.47,1.04 8.67,5.78 1.6,3.43 1.85,7.31 1.85,11.25 z"
           id="path4658" /></g>    </g>
    <g
       id="g4719"
       transform="matrix(0.54140237,0,0,0.54140237,29.292849,-27.973073)"
       style="fill:#008080;stroke:#000000;stroke-opacity:1">
      <g
         word-spacing="normal"
         letter-spacing="normal"
         font-size-adjust="none"
         font-stretch="normal"
         font-weight="normal"
         font-variant="normal"
         font-style="normal"
         stroke-miterlimit="10.433"
         xml:space="preserve"
         transform="matrix(1.0629921,0,0,-1.0629921,-186.02362,789.27165)"
         id="g4721"
         style="font-style:normal;font-variant:normal;font-weight:normal;font-stretch:normal;letter-spacing:normal;word-spacing:normal;text-anchor:start;fill:#008080;stroke:#000000;stroke-linecap:butt;stroke-linejoin:miter;stroke-miterlimit:10.43299961;stroke-opacity:1;stroke-dasharray:none;stroke-dashoffset:0"><path
           id="path4723"
           d="m 470.16,438.09 0,0.05 0,0.06 0,0.05 0,0.05 0,0.05 0,0.05 0,0.04 0,0.05 0,0.04 0,0.04 -0.01,0.04 0,0.04 0,0.04 0,0.03 0,0.04 -0.01,0.03 -0.01,0.07 0,0.06 -0.02,0.05 -0.01,0.05 -0.02,0.05 -0.02,0.04 -0.02,0.04 -0.02,0.03 -0.03,0.03 -0.03,0.03 -0.04,0.03 -0.04,0.02 -0.04,0.02 -0.03,0.01 -0.02,0.01 -0.03,0 -0.02,0.01 -0.03,0.01 -0.03,0 -0.03,0.01 -0.03,0 -0.04,0.01 -0.03,0 -0.04,0 -0.03,0.01 -0.04,0 -0.04,0 -0.05,0 -0.04,0 -0.04,0 -0.05,0.01 -0.05,0 -0.05,0 -0.05,0 -0.05,0 c -3.09,-3.19 -7.47,-3.19 -9.06,-3.19 v -1.55 c 1,0 3.93,0 6.51,1.3 v -25.81 c 0,-1.8 -0.14,-2.39 -4.62,-2.39 h -1.6 v -1.55 c 1.75,0.16 6.08,0.16 8.07,0.16 2,0 6.32,0 8.07,-0.16 v 1.55 h -1.59 c -4.48,0 -4.64,0.54 -4.64,2.39 z"
           inkscape:connector-curvature="0"
           style="fill:#008080;stroke:#000000;stroke-width:0;stroke-opacity:1" /><path
           id="path4725"
           d="m 503.4,422.14 -0.01,0.74 -0.01,0.75 -0.02,0.75 -0.03,0.74 -0.04,0.75 -0.06,0.74 -0.08,0.74 -0.1,0.73 -0.11,0.73 -0.14,0.73 -0.16,0.72 -0.19,0.72 -0.22,0.72 -0.24,0.7 -0.28,0.7 -0.15,0.35 -0.16,0.34 c -2.28,4.8 -6.38,5.6 -8.47,5.6 -2.98,0 -6.63,-1.3 -8.67,-5.94 -1.6,-3.44 -1.85,-7.33 -1.85,-11.31 0,-3.74 0.21,-8.22 2.25,-12 2.14,-4.03 5.79,-5.03 8.22,-5.03 v 1.09 c -1.93,0 -4.89,1.25 -5.78,6.03 -0.55,2.98 -0.55,7.56 -0.55,10.52 0,3.18 0,6.46 0.41,9.15 0.94,5.94 4.67,6.38 5.92,6.38 1.64,0 4.94,-0.89 5.88,-5.83 0.5,-2.78 0.5,-6.58 0.5,-9.7 0,-3.75 0,-7.13 -0.55,-10.32 -0.75,-4.73 -3.59,-6.23 -5.83,-6.23 h 0 v -1.09 c 2.69,0 6.47,1.04 8.67,5.78 1.6,3.43 1.85,7.31 1.85,11.25 z"
           inkscape:connector-curvature="0"
           style="fill:#008080;stroke:#000000;stroke-width:0;stroke-opacity:1" /></g>    </g>
    <g
       style="fill:#008080;stroke:#000000;stroke-opacity:1"
       transform="matrix(0.54140237,0,0,0.54140237,-73.020141,23.183423)"
       id="g4727">
      <g
         style="font-style:normal;font-variant:normal;font-weight:normal;font-stretch:normal;letter-spacing:normal;word-spacing:normal;text-anchor:start;fill:#008080;stroke:#000000;stroke-linecap:butt;stroke-linejoin:miter;stroke-miterlimit:10.43299961;stroke-opacity:1;stroke-dasharray:none;stroke-dashoffset:0"
         id="g4729"
         transform="matrix(1.0629921,0,0,-1.0629921,-186.02362,789.27165)"
         xml:space="preserve"
         stroke-miterlimit="10.433"
         font-style="normal"
         font-variant="normal"
         font-weight="normal"
         font-stretch="normal"
         font-size-adjust="none"
         letter-spacing="normal"
         word-spacing="normal"><path
           style="fill:#008080;stroke:#000000;stroke-width:0;stroke-opacity:1"
           inkscape:connector-curvature="0"
           d="m 470.16,438.09 0,0.05 0,0.06 0,0.05 0,0.05 0,0.05 0,0.05 0,0.04 0,0.05 0,0.04 0,0.04 -0.01,0.04 0,0.04 0,0.04 0,0.03 0,0.04 -0.01,0.03 -0.01,0.07 0,0.06 -0.02,0.05 -0.01,0.05 -0.02,0.05 -0.02,0.04 -0.02,0.04 -0.02,0.03 -0.03,0.03 -0.03,0.03 -0.04,0.03 -0.04,0.02 -0.04,0.02 -0.03,0.01 -0.02,0.01 -0.03,0 -0.02,0.01 -0.03,0.01 -0.03,0 -0.03,0.01 -0.03,0 -0.04,0.01 -0.03,0 -0.04,0 -0.03,0.01 -0.04,0 -0.04,0 -0.05,0 -0.04,0 -0.04,0 -0.05,0.01 -0.05,0 -0.05,0 -0.05,0 -0.05,0 c -3.09,-3.19 -7.47,-3.19 -9.06,-3.19 v -1.55 c 1,0 3.93,0 6.51,1.3 v -25.81 c 0,-1.8 -0.14,-2.39 -4.62,-2.39 h -1.6 v -1.55 c 1.75,0.16 6.08,0.16 8.07,0.16 2,0 6.32,0 8.07,-0.16 v 1.55 h -1.59 c -4.48,0 -4.64,0.54 -4.64,2.39 z"
           id="path4731" /><path
           style="fill:#008080;stroke:#000000;stroke-width:0;stroke-opacity:1"
           inkscape:connector-curvature="0"
           d="m 503.4,422.14 -0.01,0.74 -0.01,0.75 -0.02,0.75 -0.03,0.74 -0.04,0.75 -0.06,0.74 -0.08,0.74 -0.1,0.73 -0.11,0.73 -0.14,0.73 -0.16,0.72 -0.19,0.72 -0.22,0.72 -0.24,0.7 -0.28,0.7 -0.15,0.35 -0.16,0.34 c -2.28,4.8 -6.38,5.6 -8.47,5.6 -2.98,0 -6.63,-1.3 -8.67,-5.94 -1.6,-3.44 -1.85,-7.33 -1.85,-11.31 0,-3.74 0.21,-8.22 2.25,-12 2.14,-4.03 5.79,-5.03 8.22,-5.03 v 1.09 c -1.93,0 -4.89,1.25 -5.78,6.03 -0.55,2.98 -0.55,7.56 -0.55,10.52 0,3.18 0,6.46 0.41,9.15 0.94,5.94 4.67,6.38 5.92,6.38 1.64,0 4.94,-0.89 5.88,-5.83 0.5,-2.78 0.5,-6.58 0.5,-9.7 0,-3.75 0,-7.13 -0.55,-10.32 -0.75,-4.73 -3.59,-6.23 -5.83,-6.23 h 0 v -1.09 c 2.69,0 6.47,1.04 8.67,5.78 1.6,3.43 1.85,7.31 1.85,11.25 z"
           id="path4733" /></g>    </g>
    <g
       style="font-style:normal;font-variant:normal;font-weight:normal;font-stretch:normal;letter-spacing:normal;word-spacing:normal;text-anchor:start;fill:none;stroke:#000000;stroke-linecap:butt;stroke-linejoin:miter;stroke-miterlimit:10.43299961;stroke-opacity:1;stroke-dasharray:none;stroke-dashoffset:0"
       ns0:preamble="/home/abhinavc/playpen/textext/preamble.ini"
       ns0:text="\\begin{align}\nh &amp;= \\sqrt{100-x^2} \\\\ \nA &amp;= (10+h)\\cdot x\n\\end{align}"
       text-anchor="start"
       word-spacing="normal"
       letter-spacing="normal"
       font-size-adjust="none"
       font-stretch="normal"
       font-weight="normal"
       font-variant="normal"
       font-style="normal"
       fill-opacity="1"
       fill-rule="evenodd"
       fill="none"
       stroke-opacity="1"
       stroke-dashoffset="0"
       stroke-dasharray="none"
       stroke-miterlimit="10.433"
       stroke-linejoin="miter"
       stroke-linecap="butt"
       stroke="black"
       xml:space="preserve"
       transform="matrix(3.6625148,0,0,-3.6625148,-914.58383,2139.0106)"
       id="g4849">
<path
   id="path4851"
   fill="black"
   stroke-width="0"
   d="M365.95,534.76 L365.95,534.76 L365.95,534.76 L365.95,534.76 L365.95,534.77 L365.95,534.77 L365.95,534.77 L365.95,534.78 L365.95,534.78 L365.95,534.78 L365.95,534.79 L365.95,534.79 L365.95,534.8 L365.94,534.8 L365.94,534.81 L365.94,534.81 L365.94,534.82 L365.93,534.82 L365.93,534.83 L365.93,534.83 L365.92,534.83 L365.92,534.84 L365.92,534.84 L365.91,534.84 L365.91,534.85 L365.91,534.85 L365.91,534.85 L365.9,534.85 L365.9,534.85 L365.9,534.86 L365.89,534.86 L365.89,534.86 L365.89,534.86 L365.88,534.86 L365.88,534.86 L365.87,534.86 L365.87,534.87 L365.86,534.87 L365.86,534.87 L365.85,534.87 L365.85,534.87 L365.84,534.87 L365.84,534.87 L365.83,534.87 L365.83,534.87 L365.82,534.87 C365.59,534.87,364.87,534.79,364.61,534.77 C364.53,534.76,364.42,534.75,364.42,534.57 C364.42,534.45,364.51,534.45,364.66,534.45 C365.14,534.45,365.15,534.38,365.15,534.28 L365.13,534.09 L363.68,528.36 C363.64,528.22,363.64,528.21,363.64,528.15 C363.64,527.92,363.84,527.87,363.93,527.87 C364.09,527.87,364.25,527.99,364.3,528.13 L364.49,528.88 L364.71,529.78 C364.77,529.99,364.83,530.21,364.88,530.44 C364.9,530.5,364.98,530.83,364.99,530.89 C365.02,530.98,365.33,531.53,365.66,531.8 C365.88,531.96,366.19,532.15,366.62,532.15 C367.05,532.15,367.15,531.81,367.15,531.45 C367.15,530.92,366.78,529.84,366.54,529.23 C366.46,529,366.41,528.88,366.41,528.68 C366.41,528.22,366.76,527.87,367.23,527.87 C368.16,527.87,368.53,529.32,368.53,529.4 C368.53,529.5,368.44,529.5,368.41,529.5 C368.31,529.5,368.31,529.47,368.26,529.32 C368.11,528.79,367.79,528.09,367.24,528.09 C367.08,528.09,367.01,528.19,367.01,528.41 C367.01,528.66,367.1,528.9,367.18,529.12 C367.34,529.55,367.79,530.73,367.79,531.3 C367.79,531.95,367.39,532.37,366.65,532.37 C366.02,532.37,365.54,532.06,365.17,531.6 Z " />
<path
   id="path4853"
   fill="black"
   stroke-width="0"
   d="M378.44,531.22 L378.47,531.23 L378.5,531.23 L378.52,531.23 L378.54,531.23 L378.55,531.23 L378.57,531.23 L378.58,531.23 L378.6,531.23 L378.61,531.24 L378.62,531.24 L378.64,531.24 L378.65,531.25 L378.66,531.25 L378.68,531.25 L378.69,531.26 L378.7,531.27 L378.71,531.27 L378.72,531.28 L378.73,531.29 L378.74,531.3 L378.74,531.31 L378.75,531.31 L378.75,531.32 L378.75,531.33 L378.76,531.33 L378.76,531.34 L378.76,531.34 L378.77,531.35 L378.77,531.36 L378.77,531.37 L378.77,531.37 L378.77,531.38 L378.77,531.39 L378.77,531.4 L378.78,531.41 L378.78,531.41 L378.78,531.42 C378.78,531.62,378.59,531.62,378.45,531.62 H372.49 C372.35,531.62,372.16,531.62,372.16,531.42 C372.16,531.22,372.35,531.22,372.5,531.22 Z " />
<path
   id="path4855"
   fill="black"
   stroke-width="0"
   d="M378.45,529.3 L378.46,529.3 L378.47,529.3 L378.5,529.3 L378.53,529.3 L378.54,529.3 L378.56,529.3 L378.57,529.3 L378.59,529.3 L378.6,529.31 L378.61,529.31 L378.63,529.31 L378.64,529.31 L378.65,529.32 L378.66,529.32 L378.68,529.33 L378.69,529.33 L378.7,529.34 L378.71,529.35 L378.72,529.35 L378.73,529.36 L378.74,529.37 L378.74,529.38 L378.74,529.38 L378.75,529.39 L378.75,529.39 L378.75,529.4 L378.76,529.4 L378.76,529.41 L378.76,529.42 L378.77,529.42 L378.77,529.43 L378.77,529.44 L378.77,529.45 L378.77,529.45 L378.77,529.46 L378.77,529.47 L378.78,529.48 L378.78,529.49 L378.78,529.5 C378.78,529.7,378.59,529.7,378.44,529.7 H372.5 C372.35,529.7,372.16,529.7,372.16,529.5 C372.16,529.3,372.35,529.3,372.49,529.3 Z " />
<path
   id="path4857"
   fill="black"
   stroke-width="0"
   d="M386.34,526.24 L386.35,526.24 L386.37,526.24 L386.38,526.24 L386.39,526.24 L386.4,526.24 L386.42,526.24 L386.43,526.24 L386.44,526.24 L386.45,526.24 L386.46,526.24 L386.47,526.24 L386.48,526.24 L386.5,526.24 L386.52,526.24 L386.54,526.25 L386.55,526.25 L386.57,526.25 L386.58,526.25 L386.59,526.26 L386.6,526.26 L386.61,526.26 L386.62,526.27 L386.63,526.27 L386.64,526.28 L386.65,526.28 L386.66,526.29 L386.67,526.3 L386.68,526.31 L386.68,526.32 L386.69,526.33 L386.7,526.34 L386.71,526.35 L386.71,526.36 L386.72,526.37 L386.73,526.39 L386.74,526.4 L386.75,526.42 L386.76,526.44 L392.2,537.78 C392.27,537.91,392.27,537.93,392.27,537.96 C392.27,538.07,392.19,538.16,392.07,538.16 C391.94,538.16,391.9,538.07,391.85,537.96 L386.72,527.27 L384.6,532.2 L383.21,531.14 L383.36,530.98 L384.07,531.51 Z " />
<line
   id="line4859"
   stroke-width="0.398"
   y2="537.96"
   x2="429.37"
   y1="537.96"
   x1="392.08" />
<path
   id="path4861"
   fill="black"
   stroke-width="0"
   d="M395.01,534.34 L395.01,534.35 L395.01,534.36 L395.01,534.37 L395.01,534.38 L395.01,534.39 L395.01,534.4 L395.01,534.41 L395.01,534.41 L395.01,534.42 L395.01,534.43 L395.01,534.44 L395.01,534.45 L395.01,534.45 L395,534.46 L395,534.47 L395,534.48 L395,534.48 L395,534.49 L395,534.5 L395,534.51 L394.99,534.52 L394.99,534.53 L394.99,534.54 L394.98,534.55 L394.98,534.55 L394.97,534.56 L394.97,534.56 L394.96,534.57 L394.95,534.57 L394.94,534.58 L394.94,534.58 L394.93,534.58 L394.93,534.58 L394.92,534.58 L394.92,534.59 L394.91,534.59 L394.9,534.59 L394.9,534.59 L394.89,534.59 L394.88,534.59 L394.88,534.59 L394.87,534.59 L394.86,534.59 L394.85,534.59 L394.85,534.59 L394.84,534.59 L394.83,534.59 L394.82,534.59 L394.81,534.59 L394.8,534.59 L394.79,534.59 L394.78,534.59 C394.16,533.96,393.29,533.96,392.97,533.96 V533.65 C393.17,533.65,393.75,533.65,394.27,533.91 V528.76 C394.27,528.4,394.24,528.28,393.35,528.28 H393.03 V527.98 C393.38,528.01,394.24,528.01,394.64,528.01 C395.04,528.01,395.9,528.01,396.25,527.98 V528.28 H395.93 C395.04,528.28,395.01,528.39,395.01,528.76 Z " />
<path
   id="path4863"
   fill="black"
   stroke-width="0"
   d="M401.64,531.16 L401.64,531.31 L401.64,531.45 L401.63,531.6 L401.63,531.75 L401.62,531.9 L401.61,532.05 L401.59,532.19 L401.57,532.34 L401.55,532.49 L401.52,532.63 L401.49,532.78 L401.45,532.92 L401.41,533.06 L401.36,533.2 L401.3,533.34 L401.27,533.41 L401.24,533.48 C400.78,534.43,399.97,534.59,399.55,534.59 C398.95,534.59,398.23,534.34,397.82,533.41 C397.5,532.72,397.45,531.95,397.45,531.16 C397.45,530.41,397.49,529.52,397.9,528.76 C398.33,527.96,399.05,527.76,399.54,527.76 V527.98 C399.15,527.98,398.57,528.22,398.39,529.18 C398.28,529.78,398.28,530.69,398.28,531.28 C398.28,531.91,398.28,532.57,398.36,533.1 C398.55,534.28,399.29,534.37,399.54,534.37 C399.87,534.37,400.53,534.2,400.71,533.21 C400.81,532.66,400.81,531.9,400.81,531.28 C400.81,530.53,400.81,529.85,400.7,529.22 C400.55,528.28,399.99,527.98,399.54,527.98 H399.54 V527.76 C400.08,527.76,400.83,527.97,401.27,528.91 C401.59,529.6,401.64,530.37,401.64,531.16 Z " />
<path
   id="path4865"
   fill="black"
   stroke-width="0"
   d="M406.62,531.16 L406.62,531.31 L406.62,531.45 L406.61,531.6 L406.61,531.75 L406.6,531.9 L406.59,532.05 L406.57,532.19 L406.55,532.34 L406.53,532.49 L406.5,532.63 L406.47,532.78 L406.43,532.92 L406.39,533.06 L406.34,533.2 L406.28,533.34 L406.25,533.41 L406.22,533.48 C405.77,534.43,404.95,534.59,404.53,534.59 C403.93,534.59,403.21,534.34,402.8,533.41 C402.48,532.72,402.43,531.95,402.43,531.16 C402.43,530.41,402.47,529.52,402.88,528.76 C403.31,527.96,404.03,527.76,404.52,527.76 V527.98 C404.13,527.98,403.55,528.22,403.37,529.18 C403.26,529.78,403.26,530.69,403.26,531.28 C403.26,531.91,403.26,532.57,403.34,533.1 C403.53,534.28,404.27,534.37,404.52,534.37 C404.85,534.37,405.51,534.2,405.7,533.21 C405.8,532.66,405.8,531.9,405.8,531.28 C405.8,530.53,405.8,529.85,405.69,529.22 C405.54,528.28,404.97,527.98,404.52,527.98 H404.52 V527.76 C405.06,527.76,405.82,527.97,406.25,528.91 C406.57,529.6,406.62,530.37,406.62,531.16 Z " />
<path
   id="path4867"
   fill="black"
   stroke-width="0"
   d="M415.8,530.26 L415.83,530.26 L415.86,530.26 L415.89,530.26 L415.91,530.26 L415.92,530.27 L415.94,530.27 L415.95,530.27 L415.97,530.27 L415.98,530.27 L416,530.28 L416.01,530.28 L416.02,530.28 L416.03,530.29 L416.05,530.29 L416.06,530.3 L416.07,530.3 L416.08,530.31 L416.09,530.32 L416.1,530.33 L416.11,530.34 L416.11,530.35 L416.12,530.35 L416.12,530.36 L416.12,530.36 L416.13,530.37 L416.13,530.37 L416.13,530.38 L416.13,530.39 L416.14,530.39 L416.14,530.4 L416.14,530.41 L416.14,530.42 L416.14,530.43 L416.14,530.43 L416.14,530.44 L416.14,530.45 L416.14,530.46 C416.14,530.66,415.97,530.66,415.8,530.66 H410.41 C410.24,530.66,410.07,530.66,410.07,530.46 C410.07,530.26,410.24,530.26,410.41,530.26 Z " />
<path
   id="path4869"
   fill="black"
   stroke-width="0"
   d="M422.52,530.98 L422.53,531 L422.54,531.03 L422.55,531.07 L422.56,531.1 L422.57,531.14 L422.58,531.18 L422.59,531.22 L422.61,531.27 L422.62,531.32 L422.64,531.36 L422.66,531.41 L422.68,531.46 L422.7,531.51 L422.73,531.56 L422.75,531.61 L422.78,531.66 L422.81,531.71 L422.84,531.76 L422.87,531.8 L422.91,531.85 L422.95,531.89 L422.99,531.93 L423.03,531.97 L423.07,532 L423.12,532.03 L423.17,532.06 L423.19,532.08 L423.22,532.09 L423.24,532.1 L423.27,532.11 L423.3,532.12 L423.33,532.13 L423.36,532.13 L423.38,532.14 L423.42,532.14 L423.45,532.15 L423.48,532.15 L423.51,532.15 C423.56,532.15,423.8,532.15,424.01,532.02 C423.73,531.97,423.53,531.72,423.53,531.48 C423.53,531.33,423.64,531.14,423.91,531.14 C424.13,531.14,424.45,531.32,424.45,531.71 C424.45,532.23,423.86,532.37,423.52,532.37 C422.94,532.37,422.6,531.84,422.48,531.61 C422.23,532.27,421.69,532.37,421.4,532.37 C420.37,532.37,419.8,531.09,419.8,530.84 C419.8,530.74,419.9,530.74,419.92,530.74 C420,530.74,420.03,530.76,420.05,530.85 C420.39,531.9,421.04,532.15,421.38,532.15 C421.57,532.15,421.92,532.06,421.92,531.48 C421.92,531.18,421.75,530.51,421.38,529.12 C421.22,528.5,420.87,528.09,420.44,528.09 C420.38,528.09,420.15,528.09,419.94,528.22 C420.19,528.27,420.41,528.47,420.41,528.75 C420.41,529.02,420.19,529.1,420.04,529.1 C419.74,529.1,419.49,528.84,419.49,528.52 C419.49,528.07,419.99,527.87,420.43,527.87 C421.08,527.87,421.44,528.56,421.47,528.62 C421.59,528.26,421.95,527.87,422.55,527.87 C423.57,527.87,424.14,529.15,424.14,529.4 C424.14,529.5,424.05,529.5,424.02,529.5 C423.93,529.5,423.91,529.46,423.89,529.39 C423.56,528.33,422.88,528.09,422.57,528.09 C422.18,528.09,422.02,528.4,422.02,528.74 C422.02,528.96,422.08,529.18,422.19,529.62 Z " />
<path
   id="path4871"
   fill="black"
   stroke-width="0"
   d="M428.41,532.12 H428.18 C428.15,531.97,428.09,531.56,427.99,531.49 C427.94,531.45,427.4,531.45,427.31,531.45 H426.02 C426.76,532.09,427,532.29,427.42,532.61 C427.93,533.03,428.41,533.46,428.41,534.12 C428.41,534.96,427.67,535.47,426.78,535.47 C425.92,535.47,425.33,534.87,425.33,534.23 C425.33,533.87,425.63,533.84,425.7,533.84 C425.87,533.84,426.07,533.96,426.07,534.21 C426.07,534.33,426.02,534.58,425.66,534.58 C425.88,535.07,426.35,535.22,426.68,535.22 C427.38,535.22,427.74,534.68,427.74,534.12 C427.74,533.51,427.31,533.03,427.08,532.78 L425.4,531.13 C425.33,531.07,425.33,531.05,425.33,530.86 H428.2 Z " />
<path
   id="path4873"
   fill="black"
   stroke-width="0"
   d="M363.14,514.17 L363.11,514.11 L363.07,514.06 L363.03,514 L363,513.95 L362.96,513.9 L362.92,513.85 L362.88,513.81 L362.85,513.77 L362.81,513.73 L362.77,513.69 L362.74,513.66 L362.7,513.63 L362.66,513.6 L362.62,513.57 L362.59,513.54 L362.55,513.52 L362.51,513.5 L362.47,513.48 L362.43,513.46 L362.4,513.44 L362.36,513.43 L362.32,513.41 L362.28,513.4 L362.24,513.39 L362.2,513.38 L362.16,513.37 L362.12,513.36 L362.08,513.36 L362,513.35 L361.92,513.34 C361.8,513.33,361.71,513.33,361.71,513.14 C361.71,513.08,361.76,513.03,361.84,513.03 C362.11,513.03,362.42,513.06,362.7,513.06 C363.02,513.06,363.37,513.03,363.69,513.03 C363.75,513.03,363.88,513.03,363.88,513.22 C363.88,513.33,363.79,513.34,363.72,513.34 C363.49,513.36,363.25,513.44,363.25,513.69 C363.25,513.81,363.31,513.92,363.39,514.06 L364.15,515.33 H366.65 L366.62,515.64 H364.34 L366.3,518.91 L366.62,515.64 L366.65,515.33 C366.67,515.12,366.81,513.77,366.81,513.67 C366.81,513.37,366.29,513.34,366.09,513.34 C365.95,513.34,365.85,513.34,365.85,513.14 C365.85,513.03,365.97,513.03,365.99,513.03 C366.4,513.03,366.83,513.06,367.23,513.06 C367.48,513.06,368.11,513.03,368.36,513.03 C368.42,513.03,368.54,513.03,368.54,513.23 C368.54,513.34,368.44,513.34,368.31,513.34 C367.69,513.34,367.69,513.41,367.66,513.7 L367.05,519.91 C367.04,520.11,367.04,520.15,366.87,520.15 C366.71,520.15,366.67,520.08,366.61,519.98 Z " />
<path
   id="path4875"
   fill="black"
   stroke-width="0"
   d="M378.44,516.28 L378.47,516.28 L378.5,516.28 L378.52,516.28 L378.54,516.28 L378.55,516.28 L378.57,516.29 L378.58,516.29 L378.6,516.29 L378.61,516.29 L378.62,516.29 L378.64,516.3 L378.65,516.3 L378.66,516.31 L378.68,516.31 L378.69,516.32 L378.7,516.32 L378.71,516.33 L378.72,516.34 L378.73,516.35 L378.74,516.35 L378.74,516.36 L378.75,516.37 L378.75,516.38 L378.75,516.38 L378.76,516.39 L378.76,516.39 L378.76,516.4 L378.77,516.41 L378.77,516.41 L378.77,516.42 L378.77,516.43 L378.77,516.44 L378.77,516.44 L378.77,516.45 L378.78,516.46 L378.78,516.47 L378.78,516.48 C378.78,516.68,378.59,516.68,378.45,516.68 H372.49 C372.35,516.68,372.16,516.68,372.16,516.48 C372.16,516.28,372.35,516.28,372.5,516.28 Z " />
<path
   id="path4877"
   fill="black"
   stroke-width="0"
   d="M378.45,514.35 L378.46,514.35 L378.47,514.35 L378.5,514.35 L378.53,514.36 L378.54,514.36 L378.56,514.36 L378.57,514.36 L378.59,514.36 L378.6,514.36 L378.61,514.36 L378.63,514.37 L378.64,514.37 L378.65,514.37 L378.66,514.38 L378.68,514.38 L378.69,514.39 L378.7,514.4 L378.71,514.4 L378.72,514.41 L378.73,514.42 L378.74,514.43 L378.74,514.43 L378.74,514.44 L378.75,514.44 L378.75,514.45 L378.75,514.45 L378.76,514.46 L378.76,514.47 L378.76,514.47 L378.77,514.48 L378.77,514.49 L378.77,514.49 L378.77,514.5 L378.77,514.51 L378.77,514.52 L378.77,514.53 L378.78,514.53 L378.78,514.54 L378.78,514.55 C378.78,514.75,378.59,514.75,378.44,514.75 H372.5 C372.35,514.75,372.16,514.75,372.16,514.55 C372.16,514.35,372.35,514.35,372.49,514.35 Z " />
<path
   id="path4879"
   fill="black"
   stroke-width="0"
   d="M385.42,510.65 L385.41,510.65 L385.41,510.66 L385.41,510.66 L385.41,510.67 L385.41,510.67 L385.41,510.67 L385.41,510.68 L385.41,510.68 L385.41,510.68 L385.41,510.69 L385.4,510.69 L385.4,510.7 L385.4,510.7 L385.39,510.71 L385.39,510.71 L385.38,510.72 L385.38,510.72 L385.37,510.73 L385.37,510.74 L385.37,510.74 L385.36,510.74 L385.36,510.75 L385.36,510.75 L385.35,510.76 L385.35,510.76 L385.34,510.77 L385.34,510.77 L385.33,510.78 L385.33,510.78 L385.32,510.79 L385.32,510.79 L385.31,510.8 L385.31,510.8 L385.3,510.81 L385.3,510.82 L385.29,510.82 L385.28,510.83 L385.28,510.84 L385.27,510.84 L385.26,510.85 L385.25,510.86 L385.25,510.87 C384,512.12,383.68,514,383.68,515.52 C383.68,517.24,384.06,518.97,385.29,520.22 C385.42,520.33,385.42,520.35,385.42,520.38 C385.42,520.45,385.38,520.48,385.32,520.48 C385.22,520.48,384.32,519.81,383.73,518.55 C383.23,517.45,383.11,516.35,383.11,515.52 C383.11,514.74,383.22,513.54,383.76,512.42 C384.36,511.2,385.22,510.55,385.32,510.55 C385.38,510.55,385.42,510.58,385.42,510.65 Z " />
<path
   id="path4881"
   fill="black"
   stroke-width="0"
   d="M388.92,519.39 L388.92,519.4 L388.92,519.41 L388.92,519.42 L388.92,519.43 L388.92,519.44 L388.92,519.45 L388.92,519.46 L388.92,519.47 L388.92,519.48 L388.92,519.49 L388.92,519.5 L388.92,519.5 L388.92,519.51 L388.92,519.52 L388.92,519.52 L388.92,519.53 L388.92,519.54 L388.92,519.54 L388.91,519.56 L388.91,519.57 L388.91,519.58 L388.91,519.59 L388.9,519.59 L388.9,519.6 L388.89,519.61 L388.89,519.62 L388.88,519.62 L388.87,519.63 L388.87,519.63 L388.86,519.63 L388.85,519.64 L388.85,519.64 L388.84,519.64 L388.84,519.64 L388.83,519.64 L388.82,519.64 L388.82,519.64 L388.81,519.64 L388.81,519.64 L388.8,519.65 L388.79,519.65 L388.78,519.65 L388.78,519.65 L388.77,519.65 L388.76,519.65 L388.75,519.65 L388.74,519.65 L388.73,519.65 L388.72,519.65 L388.71,519.65 L388.7,519.65 L388.69,519.65 C388.08,519.01,387.2,519.01,386.88,519.01 V518.71 C387.08,518.71,387.67,518.71,388.18,518.96 V513.82 C388.18,513.46,388.15,513.34,387.26,513.34 H386.94 V513.03 C387.29,513.06,388.15,513.06,388.55,513.06 C388.95,513.06,389.82,513.06,390.17,513.03 V513.34 H389.85 C388.95,513.34,388.92,513.45,388.92,513.82 Z " />
<path
   id="path4883"
   fill="black"
   stroke-width="0"
   d="M395.55,516.21 L395.55,516.36 L395.55,516.51 L395.55,516.66 L395.54,516.81 L395.53,516.96 L395.52,517.1 L395.5,517.25 L395.49,517.4 L395.46,517.54 L395.43,517.69 L395.4,517.83 L395.36,517.97 L395.32,518.12 L395.27,518.26 L395.22,518.4 L395.19,518.47 L395.16,518.54 C394.7,519.49,393.88,519.65,393.46,519.65 C392.87,519.65,392.14,519.39,391.73,518.47 C391.42,517.78,391.36,517.01,391.36,516.21 C391.36,515.47,391.4,514.57,391.81,513.82 C392.24,513.01,392.97,512.81,393.45,512.81 V513.03 C393.07,513.03,392.48,513.28,392.3,514.23 C392.19,514.83,392.19,515.74,392.19,516.33 C392.19,516.97,392.19,517.62,392.27,518.16 C392.46,519.34,393.21,519.43,393.45,519.43 C393.78,519.43,394.44,519.25,394.63,518.27 C394.73,517.71,394.73,516.96,394.73,516.33 C394.73,515.59,394.73,514.91,394.62,514.28 C394.47,513.33,393.9,513.03,393.45,513.03 H393.45 V512.81 C393.99,512.81,394.75,513.02,395.19,513.97 C395.5,514.65,395.55,515.43,395.55,516.21 Z " />
<path
   id="path4885"
   fill="black"
   stroke-width="0"
   d="M402.24,515.32 H405.02 C405.15,515.32,405.34,515.32,405.34,515.52 C405.34,515.72,405.15,515.72,405.02,515.72 H402.24 V518.5 C402.24,518.64,402.24,518.82,402.04,518.82 C401.84,518.82,401.84,518.64,401.84,518.5 V515.72 H399.06 C398.92,515.72,398.73,515.72,398.73,515.52 C398.73,515.32,398.92,515.32,399.06,515.32 H401.84 V512.54 C401.84,512.4,401.84,512.21,402.04,512.21 C402.24,512.21,402.24,512.4,402.24,512.54 Z " />
<path
   id="path4887"
   fill="black"
   stroke-width="0"
   d="M410.99,519.82 L410.99,519.82 L410.99,519.82 L410.99,519.82 L410.99,519.82 L410.99,519.83 L410.99,519.83 L410.99,519.83 L410.99,519.84 L410.99,519.84 L410.99,519.84 L410.98,519.85 L410.98,519.85 L410.98,519.86 L410.98,519.86 L410.98,519.87 L410.97,519.87 L410.97,519.88 L410.97,519.88 L410.97,519.89 L410.96,519.89 L410.96,519.9 L410.95,519.9 L410.95,519.9 L410.95,519.9 L410.95,519.9 L410.94,519.91 L410.94,519.91 L410.94,519.91 L410.93,519.91 L410.93,519.91 L410.93,519.91 L410.92,519.92 L410.92,519.92 L410.91,519.92 L410.91,519.92 L410.91,519.92 L410.9,519.92 L410.9,519.92 L410.89,519.92 L410.89,519.93 L410.88,519.93 L410.88,519.93 L410.87,519.93 L410.86,519.93 L410.86,519.93 C410.63,519.93,409.9,519.85,409.64,519.83 C409.57,519.82,409.46,519.81,409.46,519.63 C409.46,519.51,409.55,519.51,409.7,519.51 C410.17,519.51,410.19,519.44,410.19,519.34 L410.16,519.14 L408.72,513.42 C408.68,513.28,408.68,513.26,408.68,513.2 C408.68,512.97,408.88,512.92,408.97,512.92 C409.13,512.92,409.29,513.04,409.34,513.18 L409.53,513.94 L409.74,514.83 C409.8,515.05,409.86,515.27,409.91,515.5 C409.93,515.56,410.01,515.88,410.02,515.94 C410.05,516.03,410.36,516.59,410.7,516.86 C410.92,517.02,411.23,517.21,411.65,517.21 C412.08,517.21,412.19,516.87,412.19,516.51 C412.19,515.97,411.81,514.89,411.58,514.28 C411.5,514.06,411.45,513.94,411.45,513.74 C411.45,513.27,411.79,512.92,412.26,512.92 C413.2,512.92,413.57,514.37,413.57,514.45 C413.57,514.55,413.48,514.55,413.45,514.55 C413.35,514.55,413.35,514.52,413.3,514.37 C413.15,513.85,412.83,513.14,412.28,513.14 C412.11,513.14,412.04,513.24,412.04,513.47 C412.04,513.72,412.13,513.96,412.22,514.17 C412.38,514.6,412.83,515.78,412.83,516.36 C412.83,517.01,412.43,517.42,411.68,517.42 C411.06,517.42,410.58,517.12,410.21,516.66 Z " />
<path
   id="path4889"
   fill="black"
   stroke-width="0"
   d="M416.75,515.52 L416.75,515.59 L416.75,515.67 L416.74,515.74 L416.74,515.83 L416.73,515.99 L416.72,516.17 L416.71,516.35 L416.68,516.54 L416.66,516.74 L416.63,516.94 L416.59,517.14 L416.54,517.35 L416.49,517.56 L416.43,517.77 L416.36,517.98 L416.28,518.19 L416.23,518.3 L416.19,518.4 L416.14,518.51 L416.09,518.62 C415.49,519.84,414.64,520.48,414.54,520.48 C414.48,520.48,414.44,520.44,414.44,520.38 C414.44,520.35,414.44,520.33,414.63,520.16 C415.6,519.17,416.17,517.59,416.17,515.52 C416.17,513.82,415.8,512.07,414.57,510.82 C414.44,510.7,414.44,510.68,414.44,510.65 C414.44,510.59,414.48,510.55,414.54,510.55 C414.64,510.55,415.53,511.23,416.12,512.49 C416.63,513.58,416.75,514.68,416.75,515.52 Z " />
<path
   id="path4891"
   fill="black"
   stroke-width="0"
   d="M421.87,515.52 L421.87,515.54 L421.87,515.57 L421.86,515.6 L421.86,515.62 L421.85,515.65 L421.85,515.67 L421.84,515.7 L421.83,515.72 L421.82,515.74 L421.81,515.77 L421.79,515.79 L421.78,515.81 L421.77,515.83 L421.75,515.85 L421.73,515.87 L421.72,515.89 L421.7,515.91 L421.68,515.92 L421.66,515.94 L421.64,515.95 L421.62,515.97 L421.59,515.98 L421.57,515.99 L421.55,516 L421.52,516.01 L421.5,516.02 L421.47,516.03 L421.45,516.03 L421.42,516.04 L421.4,516.04 L421.37,516.04 L421.34,516.04 C421.05,516.04,420.82,515.8,420.82,515.52 C420.82,515.23,421.05,514.99,421.34,514.99 C421.63,514.99,421.87,515.23,421.87,515.52 Z " />
<path
   id="path4893"
   fill="black"
   stroke-width="0"
   d="M428.27,516.03 L428.27,516.06 L428.28,516.09 L428.29,516.12 L428.3,516.16 L428.31,516.2 L428.32,516.24 L428.33,516.28 L428.35,516.32 L428.36,516.37 L428.38,516.42 L428.4,516.47 L428.42,516.52 L428.44,516.57 L428.47,516.62 L428.49,516.67 L428.52,516.72 L428.55,516.76 L428.58,516.81 L428.61,516.86 L428.65,516.9 L428.69,516.94 L428.73,516.99 L428.77,517.02 L428.81,517.06 L428.86,517.09 L428.91,517.12 L428.93,517.13 L428.96,517.14 L428.98,517.16 L429.01,517.17 L429.04,517.17 L429.07,517.18 L429.1,517.19 L429.12,517.19 L429.16,517.2 L429.19,517.2 L429.22,517.2 L429.25,517.21 C429.3,517.21,429.54,517.21,429.75,517.08 C429.47,517.03,429.27,516.78,429.27,516.54 C429.27,516.38,429.38,516.19,429.65,516.19 C429.87,516.19,430.18,516.37,430.18,516.77 C430.18,517.28,429.6,517.42,429.26,517.42 C428.68,517.42,428.33,516.9,428.21,516.67 C427.97,517.32,427.43,517.42,427.14,517.42 C426.11,517.42,425.54,516.14,425.54,515.89 C425.54,515.79,425.64,515.79,425.66,515.79 C425.74,515.79,425.77,515.81,425.79,515.9 C426.13,516.96,426.78,517.21,427.12,517.21 C427.31,517.21,427.66,517.12,427.66,516.54 C427.66,516.23,427.49,515.57,427.12,514.17 C426.96,513.56,426.61,513.14,426.18,513.14 C426.12,513.14,425.89,513.14,425.68,513.27 C425.93,513.32,426.15,513.53,426.15,513.81 C426.15,514.08,425.93,514.16,425.78,514.16 C425.48,514.16,425.23,513.9,425.23,513.58 C425.23,513.12,425.73,512.92,426.17,512.92 C426.82,512.92,427.18,513.62,427.21,513.68 C427.33,513.31,427.69,512.92,428.29,512.92 C429.31,512.92,429.88,514.21,429.88,514.45 C429.88,514.55,429.79,514.55,429.76,514.55 C429.67,514.55,429.65,514.51,429.63,514.44 C429.3,513.38,428.62,513.14,428.3,513.14 C427.92,513.14,427.76,513.46,427.76,513.8 C427.76,514.02,427.82,514.23,427.93,514.67 Z " />
</g>  </g>
</svg>
