<?xml version="1.0" encoding="UTF-8"?>
<svg xmlns="http://www.w3.org/2000/svg" xmlns:xlink="http://www.w3.org/1999/xlink" width="220.04883pt" height="40.73761pt" viewBox="0 0 220.04883 40.73761" version="1.1">
<g id="surface1">
<path style=" stroke:none;fill-rule:nonzero;fill:rgb(0%,0%,0%);fill-opacity:1;" d="M 33.371094 4.628906 C 34.132812 4.882812 34.757812 4.902344 34.953125 4.902344 C 36.984375 4.902344 38.273438 3.417969 38.273438 3.164062 C 38.273438 3.085938 38.234375 2.988281 38.136719 2.988281 C 38.097656 2.988281 38.058594 2.988281 37.902344 3.066406 C 36.886719 3.496094 36.027344 3.554688 35.558594 3.554688 C 34.386719 3.554688 33.546875 3.203125 33.195312 3.046875 C 33.078125 2.988281 33.039062 2.988281 33.019531 2.988281 C 32.882812 2.988281 32.882812 3.105469 32.882812 3.398438 L 32.882812 8.710938 C 32.882812 9.042969 32.882812 9.140625 33.097656 9.140625 C 33.175781 9.140625 33.195312 9.121094 33.371094 8.90625 C 33.878906 8.183594 34.71875 7.753906 35.617188 7.753906 C 36.574219 7.753906 37.042969 8.632812 37.179688 8.925781 C 37.492188 9.628906 37.511719 10.507812 37.511719 11.191406 C 37.511719 11.875 37.511719 12.890625 37.003906 13.691406 C 36.613281 14.355469 35.910156 14.785156 35.109375 14.785156 C 33.9375 14.785156 32.765625 13.984375 32.453125 12.675781 C 32.53125 12.714844 32.648438 12.734375 32.726562 12.734375 C 33.039062 12.734375 33.527344 12.558594 33.527344 11.953125 C 33.527344 11.445312 33.175781 11.152344 32.726562 11.152344 C 32.414062 11.152344 31.945312 11.308594 31.945312 12.011719 C 31.945312 13.535156 33.15625 15.273438 35.148438 15.273438 C 37.179688 15.273438 38.957031 13.574219 38.957031 11.289062 C 38.957031 9.160156 37.511719 7.382812 35.636719 7.382812 C 34.621094 7.382812 33.820312 7.832031 33.371094 8.339844 Z M 33.371094 4.628906 "/>
<path style=" stroke:none;fill-rule:nonzero;fill:rgb(0%,0%,0%);fill-opacity:1;" d="M 48.410156 7.578125 C 47.84375 7.695312 47.628906 8.125 47.628906 8.457031 C 47.628906 8.886719 47.960938 9.042969 48.214844 9.042969 C 48.761719 9.042969 49.132812 8.574219 49.132812 8.085938 C 49.132812 7.34375 48.273438 6.992188 47.511719 6.992188 C 46.417969 6.992188 45.8125 8.066406 45.65625 8.417969 C 45.246094 7.070312 44.132812 6.992188 43.800781 6.992188 C 41.984375 6.992188 41.007812 9.335938 41.007812 9.746094 C 41.007812 9.804688 41.085938 9.902344 41.203125 9.902344 C 41.339844 9.902344 41.378906 9.785156 41.417969 9.726562 C 42.023438 7.734375 43.234375 7.363281 43.742188 7.363281 C 44.5625 7.363281 44.71875 8.105469 44.71875 8.535156 C 44.71875 8.925781 44.621094 9.335938 44.386719 10.195312 L 43.78125 12.65625 C 43.527344 13.730469 43 14.726562 42.042969 14.726562 C 41.964844 14.726562 41.515625 14.726562 41.125 14.492188 C 41.769531 14.355469 41.925781 13.828125 41.925781 13.613281 C 41.925781 13.261719 41.652344 13.046875 41.320312 13.046875 C 40.890625 13.046875 40.421875 13.417969 40.421875 13.984375 C 40.421875 14.746094 41.261719 15.078125 42.023438 15.078125 C 42.882812 15.078125 43.507812 14.394531 43.878906 13.671875 C 44.171875 14.726562 45.050781 15.078125 45.714844 15.078125 C 47.550781 15.078125 48.527344 12.734375 48.527344 12.34375 C 48.527344 12.246094 48.449219 12.167969 48.332031 12.167969 C 48.175781 12.167969 48.15625 12.265625 48.117188 12.402344 C 47.628906 13.984375 46.574219 14.726562 45.773438 14.726562 C 45.148438 14.726562 44.816406 14.257812 44.816406 13.515625 C 44.816406 13.125 44.875 12.832031 45.167969 11.660156 L 45.792969 9.21875 C 46.066406 8.144531 46.671875 7.363281 47.492188 7.363281 C 47.53125 7.363281 48.039062 7.363281 48.410156 7.578125 Z M 48.410156 7.578125 "/>
<path style=" stroke:none;fill-rule:nonzero;fill:rgb(0%,0%,0%);fill-opacity:1;" d="M 51.546875 7.34375 L 52.875 6.054688 C 54.808594 4.335938 55.550781 3.671875 55.550781 2.421875 C 55.550781 0.996094 54.4375 0 52.914062 0 C 51.507812 0 50.589844 1.152344 50.589844 2.265625 C 50.589844 2.949219 51.214844 2.949219 51.253906 2.949219 C 51.46875 2.949219 51.898438 2.8125 51.898438 2.285156 C 51.898438 1.972656 51.664062 1.640625 51.234375 1.640625 C 51.136719 1.640625 51.117188 1.640625 51.078125 1.660156 C 51.351562 0.839844 52.035156 0.390625 52.757812 0.390625 C 53.890625 0.390625 54.417969 1.40625 54.417969 2.421875 C 54.417969 3.417969 53.8125 4.394531 53.109375 5.175781 L 50.726562 7.832031 C 50.589844 7.96875 50.589844 8.007812 50.589844 8.300781 L 55.21875 8.300781 L 55.550781 6.132812 L 55.257812 6.132812 C 55.179688 6.503906 55.101562 7.050781 54.964844 7.246094 C 54.886719 7.34375 54.066406 7.34375 53.792969 7.34375 Z M 51.546875 7.34375 "/>
<path style=" stroke:none;fill-rule:nonzero;fill:rgb(0%,0%,0%);fill-opacity:1;" d="M 0 22.113281 L 87.75 22.113281 L 87.75 22.867188 L 0 22.867188 Z M 0 22.113281 "/>
<path style=" stroke:none;fill-rule:nonzero;fill:rgb(0%,0%,0%);fill-opacity:1;" d="M 8.511719 32.027344 C 7.945312 32.144531 7.730469 32.574219 7.730469 32.90625 C 7.730469 33.335938 8.0625 33.492188 8.316406 33.492188 C 8.863281 33.492188 9.234375 33.023438 9.234375 32.535156 C 9.234375 31.792969 8.375 31.441406 7.613281 31.441406 C 6.519531 31.441406 5.914062 32.515625 5.757812 32.867188 C 5.347656 31.519531 4.234375 31.441406 3.902344 31.441406 C 2.085938 31.441406 1.109375 33.785156 1.109375 34.195312 C 1.109375 34.253906 1.1875 34.351562 1.304688 34.351562 C 1.441406 34.351562 1.480469 34.234375 1.519531 34.175781 C 2.125 32.183594 3.335938 31.8125 3.84375 31.8125 C 4.664062 31.8125 4.820312 32.554688 4.820312 32.984375 C 4.820312 33.375 4.722656 33.785156 4.488281 34.644531 L 3.882812 37.105469 C 3.628906 38.179688 3.101562 39.175781 2.144531 39.175781 C 2.066406 39.175781 1.617188 39.175781 1.226562 38.941406 C 1.871094 38.804688 2.027344 38.277344 2.027344 38.0625 C 2.027344 37.710938 1.753906 37.496094 1.421875 37.496094 C 0.992188 37.496094 0.523438 37.867188 0.523438 38.433594 C 0.523438 39.195312 1.363281 39.527344 2.125 39.527344 C 2.984375 39.527344 3.609375 38.84375 3.980469 38.121094 C 4.273438 39.175781 5.152344 39.527344 5.816406 39.527344 C 7.652344 39.527344 8.628906 37.183594 8.628906 36.792969 C 8.628906 36.695312 8.550781 36.617188 8.433594 36.617188 C 8.277344 36.617188 8.257812 36.714844 8.21875 36.851562 C 7.730469 38.433594 6.675781 39.175781 5.875 39.175781 C 5.25 39.175781 4.917969 38.707031 4.917969 37.964844 C 4.917969 37.574219 4.976562 37.28125 5.269531 36.109375 L 5.894531 33.667969 C 6.167969 32.59375 6.773438 31.8125 7.59375 31.8125 C 7.632812 31.8125 8.140625 31.8125 8.511719 32.027344 Z M 8.511719 32.027344 "/>
<path style=" stroke:none;fill-rule:nonzero;fill:rgb(0%,0%,0%);fill-opacity:1;" d="M 11.648438 33.144531 L 12.976562 31.855469 C 14.910156 30.136719 15.652344 29.472656 15.652344 28.222656 C 15.652344 26.796875 14.539062 25.800781 13.015625 25.800781 C 11.609375 25.800781 10.691406 26.953125 10.691406 28.066406 C 10.691406 28.75 11.316406 28.75 11.355469 28.75 C 11.570312 28.75 12 28.613281 12 28.085938 C 12 27.773438 11.765625 27.441406 11.335938 27.441406 C 11.238281 27.441406 11.21875 27.441406 11.179688 27.460938 C 11.453125 26.640625 12.136719 26.191406 12.859375 26.191406 C 13.992188 26.191406 14.519531 27.207031 14.519531 28.222656 C 14.519531 29.21875 13.914062 30.195312 13.210938 30.976562 L 10.828125 33.632812 C 10.691406 33.769531 10.691406 33.808594 10.691406 34.101562 L 15.320312 34.101562 L 15.652344 31.933594 L 15.359375 31.933594 C 15.28125 32.304688 15.203125 32.851562 15.066406 33.046875 C 14.988281 33.144531 14.167969 33.144531 13.894531 33.144531 Z M 11.648438 33.144531 "/>
<path style=" stroke:none;fill-rule:nonzero;fill:rgb(0%,0%,0%);fill-opacity:1;" d="M 28.011719 35.210938 L 32.972656 35.210938 C 33.226562 35.210938 33.539062 35.210938 33.539062 34.878906 C 33.539062 34.546875 33.226562 34.546875 32.972656 34.546875 L 28.011719 34.546875 L 28.011719 29.605469 C 28.011719 29.351562 28.011719 29.019531 27.699219 29.019531 C 27.347656 29.019531 27.347656 29.332031 27.347656 29.605469 L 27.347656 34.546875 L 22.40625 34.546875 C 22.152344 34.546875 21.839844 34.546875 21.839844 34.878906 C 21.839844 35.210938 22.132812 35.210938 22.40625 35.210938 L 27.347656 35.210938 L 27.347656 40.152344 C 27.347656 40.40625 27.347656 40.738281 27.679688 40.738281 C 28.011719 40.738281 28.011719 40.425781 28.011719 40.152344 Z M 28.011719 35.210938 "/>
<path style=" stroke:none;fill-rule:nonzero;fill:rgb(0%,0%,0%);fill-opacity:1;" d="M 45.03125 27.671875 C 45.03125 27.339844 45.03125 27.242188 44.796875 27.242188 C 44.640625 27.242188 44.582031 27.242188 44.445312 27.457031 L 39.054688 35.835938 L 39.054688 36.363281 L 43.761719 36.363281 L 43.761719 37.984375 C 43.761719 38.648438 43.722656 38.824219 42.414062 38.824219 L 42.0625 38.824219 L 42.0625 39.351562 C 42.472656 39.3125 43.898438 39.3125 44.386719 39.3125 C 44.894531 39.3125 46.320312 39.3125 46.75 39.351562 L 46.75 38.824219 L 46.378906 38.824219 C 45.089844 38.824219 45.03125 38.648438 45.03125 37.984375 L 45.03125 36.363281 L 46.847656 36.363281 L 46.847656 35.835938 L 45.03125 35.835938 Z M 43.859375 29.078125 L 43.859375 35.835938 L 39.503906 35.835938 Z M 43.859375 29.078125 "/>
<path style=" stroke:none;fill-rule:nonzero;fill:rgb(0%,0%,0%);fill-opacity:1;" d="M 55.910156 32.027344 C 55.34375 32.144531 55.128906 32.574219 55.128906 32.90625 C 55.128906 33.335938 55.460938 33.492188 55.714844 33.492188 C 56.261719 33.492188 56.632812 33.023438 56.632812 32.535156 C 56.632812 31.792969 55.773438 31.441406 55.011719 31.441406 C 53.917969 31.441406 53.3125 32.515625 53.15625 32.867188 C 52.746094 31.519531 51.632812 31.441406 51.300781 31.441406 C 49.484375 31.441406 48.507812 33.785156 48.507812 34.195312 C 48.507812 34.253906 48.585938 34.351562 48.703125 34.351562 C 48.839844 34.351562 48.878906 34.234375 48.917969 34.175781 C 49.523438 32.183594 50.734375 31.8125 51.242188 31.8125 C 52.0625 31.8125 52.21875 32.554688 52.21875 32.984375 C 52.21875 33.375 52.121094 33.785156 51.886719 34.644531 L 51.28125 37.105469 C 51.027344 38.179688 50.5 39.175781 49.542969 39.175781 C 49.464844 39.175781 49.015625 39.175781 48.625 38.941406 C 49.269531 38.804688 49.425781 38.277344 49.425781 38.0625 C 49.425781 37.710938 49.152344 37.496094 48.820312 37.496094 C 48.390625 37.496094 47.921875 37.867188 47.921875 38.433594 C 47.921875 39.195312 48.761719 39.527344 49.523438 39.527344 C 50.382812 39.527344 51.007812 38.84375 51.378906 38.121094 C 51.671875 39.175781 52.550781 39.527344 53.214844 39.527344 C 55.050781 39.527344 56.027344 37.183594 56.027344 36.792969 C 56.027344 36.695312 55.949219 36.617188 55.832031 36.617188 C 55.675781 36.617188 55.65625 36.714844 55.617188 36.851562 C 55.128906 38.433594 54.074219 39.175781 53.273438 39.175781 C 52.648438 39.175781 52.316406 38.707031 52.316406 37.964844 C 52.316406 37.574219 52.375 37.28125 52.667969 36.109375 L 53.292969 33.667969 C 53.566406 32.59375 54.171875 31.8125 54.992188 31.8125 C 55.03125 31.8125 55.539062 31.8125 55.910156 32.027344 Z M 55.910156 32.027344 "/>
<path style=" stroke:none;fill-rule:nonzero;fill:rgb(0%,0%,0%);fill-opacity:1;" d="M 68.363281 35.210938 L 73.324219 35.210938 C 73.578125 35.210938 73.890625 35.210938 73.890625 34.878906 C 73.890625 34.546875 73.578125 34.546875 73.324219 34.546875 L 68.363281 34.546875 L 68.363281 29.605469 C 68.363281 29.351562 68.363281 29.019531 68.050781 29.019531 C 67.699219 29.019531 67.699219 29.332031 67.699219 29.605469 L 67.699219 34.546875 L 62.757812 34.546875 C 62.503906 34.546875 62.191406 34.546875 62.191406 34.878906 C 62.191406 35.210938 62.484375 35.210938 62.757812 35.210938 L 67.699219 35.210938 L 67.699219 40.152344 C 67.699219 40.40625 67.699219 40.738281 68.03125 40.738281 C 68.363281 40.738281 68.363281 40.425781 68.363281 40.152344 Z M 68.363281 35.210938 "/>
<path style=" stroke:none;fill-rule:nonzero;fill:rgb(0%,0%,0%);fill-opacity:1;" d="M 82.214844 32.90625 C 81.902344 32.925781 81.84375 32.945312 81.84375 33.121094 C 81.84375 33.296875 81.921875 33.296875 82.253906 33.296875 L 83.074219 33.296875 C 84.597656 33.296875 85.28125 34.546875 85.28125 36.265625 C 85.28125 38.609375 84.050781 39.234375 83.171875 39.234375 C 82.3125 39.234375 80.847656 38.824219 80.339844 37.652344 C 80.90625 37.730469 81.433594 37.417969 81.433594 36.773438 C 81.433594 36.246094 81.042969 35.894531 80.554688 35.894531 C 80.125 35.894531 79.65625 36.148438 79.65625 36.832031 C 79.65625 38.414062 81.238281 39.722656 83.230469 39.722656 C 85.359375 39.722656 86.941406 38.101562 86.941406 36.285156 C 86.941406 34.644531 85.613281 33.335938 83.894531 33.042969 C 85.457031 32.59375 86.453125 31.285156 86.453125 29.878906 C 86.453125 28.472656 84.988281 27.4375 83.25 27.4375 C 81.453125 27.4375 80.125 28.53125 80.125 29.839844 C 80.125 30.542969 80.691406 30.699219 80.964844 30.699219 C 81.335938 30.699219 81.765625 30.425781 81.765625 29.878906 C 81.765625 29.3125 81.335938 29.058594 80.945312 29.058594 C 80.828125 29.058594 80.789062 29.058594 80.75 29.078125 C 81.433594 27.867188 83.113281 27.867188 83.191406 27.867188 C 83.796875 27.867188 84.949219 28.121094 84.949219 29.878906 C 84.949219 30.230469 84.910156 31.226562 84.382812 32.007812 C 83.835938 32.789062 83.230469 32.847656 82.742188 32.867188 Z M 82.214844 32.90625 "/>
<path style=" stroke:none;fill-rule:nonzero;fill:rgb(0%,0%,0%);fill-opacity:1;" d="M 106.175781 21.25 C 106.429688 21.25 106.742188 21.25 106.742188 20.917969 C 106.742188 20.585938 106.429688 20.585938 106.175781 20.585938 L 95.609375 20.585938 C 95.355469 20.585938 95.042969 20.585938 95.042969 20.898438 C 95.042969 21.25 95.335938 21.25 95.609375 21.25 Z M 106.175781 24.570312 C 106.429688 24.570312 106.742188 24.570312 106.742188 24.257812 C 106.742188 23.90625 106.429688 23.90625 106.175781 23.90625 L 95.609375 23.90625 C 95.355469 23.90625 95.042969 23.90625 95.042969 24.238281 C 95.042969 24.570312 95.335938 24.570312 95.609375 24.570312 Z M 106.175781 24.570312 "/>
<path style=" stroke:none;fill-rule:nonzero;fill:rgb(0%,0%,0%);fill-opacity:1;" d="M 132.371094 4.628906 C 133.132812 4.882812 133.757812 4.902344 133.953125 4.902344 C 135.984375 4.902344 137.273438 3.417969 137.273438 3.164062 C 137.273438 3.085938 137.234375 2.988281 137.136719 2.988281 C 137.097656 2.988281 137.058594 2.988281 136.902344 3.066406 C 135.886719 3.496094 135.027344 3.554688 134.558594 3.554688 C 133.386719 3.554688 132.546875 3.203125 132.195312 3.046875 C 132.078125 2.988281 132.039062 2.988281 132.019531 2.988281 C 131.882812 2.988281 131.882812 3.105469 131.882812 3.398438 L 131.882812 8.710938 C 131.882812 9.042969 131.882812 9.140625 132.097656 9.140625 C 132.175781 9.140625 132.195312 9.121094 132.371094 8.90625 C 132.878906 8.183594 133.71875 7.753906 134.617188 7.753906 C 135.574219 7.753906 136.042969 8.632812 136.179688 8.925781 C 136.492188 9.628906 136.511719 10.507812 136.511719 11.191406 C 136.511719 11.875 136.511719 12.890625 136.003906 13.691406 C 135.613281 14.355469 134.910156 14.785156 134.109375 14.785156 C 132.9375 14.785156 131.765625 13.984375 131.453125 12.675781 C 131.53125 12.714844 131.648438 12.734375 131.726562 12.734375 C 132.039062 12.734375 132.527344 12.558594 132.527344 11.953125 C 132.527344 11.445312 132.175781 11.152344 131.726562 11.152344 C 131.414062 11.152344 130.945312 11.308594 130.945312 12.011719 C 130.945312 13.535156 132.15625 15.273438 134.148438 15.273438 C 136.179688 15.273438 137.957031 13.574219 137.957031 11.289062 C 137.957031 9.160156 136.511719 7.382812 134.636719 7.382812 C 133.621094 7.382812 132.820312 7.832031 132.371094 8.339844 Z M 132.371094 4.628906 "/>
<path style=" stroke:none;fill-rule:nonzero;fill:rgb(0%,0%,0%);fill-opacity:1;" d="M 114.300781 22.113281 L 154.800781 22.113281 L 154.800781 22.867188 L 114.300781 22.867188 Z M 114.300781 22.113281 "/>
<path style=" stroke:none;fill-rule:nonzero;fill:rgb(0%,0%,0%);fill-opacity:1;" d="M 122.8125 32.027344 C 122.246094 32.144531 122.03125 32.574219 122.03125 32.90625 C 122.03125 33.335938 122.363281 33.492188 122.617188 33.492188 C 123.164062 33.492188 123.535156 33.023438 123.535156 32.535156 C 123.535156 31.792969 122.675781 31.441406 121.914062 31.441406 C 120.820312 31.441406 120.214844 32.515625 120.058594 32.867188 C 119.648438 31.519531 118.535156 31.441406 118.203125 31.441406 C 116.386719 31.441406 115.410156 33.785156 115.410156 34.195312 C 115.410156 34.253906 115.488281 34.351562 115.605469 34.351562 C 115.742188 34.351562 115.78125 34.234375 115.820312 34.175781 C 116.425781 32.183594 117.636719 31.8125 118.144531 31.8125 C 118.964844 31.8125 119.121094 32.554688 119.121094 32.984375 C 119.121094 33.375 119.023438 33.785156 118.789062 34.644531 L 118.183594 37.105469 C 117.929688 38.179688 117.402344 39.175781 116.445312 39.175781 C 116.367188 39.175781 115.917969 39.175781 115.527344 38.941406 C 116.171875 38.804688 116.328125 38.277344 116.328125 38.0625 C 116.328125 37.710938 116.054688 37.496094 115.722656 37.496094 C 115.292969 37.496094 114.824219 37.867188 114.824219 38.433594 C 114.824219 39.195312 115.664062 39.527344 116.425781 39.527344 C 117.285156 39.527344 117.910156 38.84375 118.28125 38.121094 C 118.574219 39.175781 119.453125 39.527344 120.117188 39.527344 C 121.953125 39.527344 122.929688 37.183594 122.929688 36.792969 C 122.929688 36.695312 122.851562 36.617188 122.734375 36.617188 C 122.578125 36.617188 122.558594 36.714844 122.519531 36.851562 C 122.03125 38.433594 120.976562 39.175781 120.175781 39.175781 C 119.550781 39.175781 119.21875 38.707031 119.21875 37.964844 C 119.21875 37.574219 119.277344 37.28125 119.570312 36.109375 L 120.195312 33.667969 C 120.46875 32.59375 121.074219 31.8125 121.894531 31.8125 C 121.933594 31.8125 122.441406 31.8125 122.8125 32.027344 Z M 122.8125 32.027344 "/>
<path style=" stroke:none;fill-rule:nonzero;fill:rgb(0%,0%,0%);fill-opacity:1;" d="M 135.414062 35.210938 L 140.375 35.210938 C 140.628906 35.210938 140.941406 35.210938 140.941406 34.878906 C 140.941406 34.546875 140.628906 34.546875 140.375 34.546875 L 135.414062 34.546875 L 135.414062 29.605469 C 135.414062 29.351562 135.414062 29.019531 135.101562 29.019531 C 134.75 29.019531 134.75 29.332031 134.75 29.605469 L 134.75 34.546875 L 129.808594 34.546875 C 129.554688 34.546875 129.242188 34.546875 129.242188 34.878906 C 129.242188 35.210938 129.535156 35.210938 129.808594 35.210938 L 134.75 35.210938 L 134.75 40.152344 C 134.75 40.40625 134.75 40.738281 135.082031 40.738281 C 135.414062 40.738281 135.414062 40.425781 135.414062 40.152344 Z M 135.414062 35.210938 "/>
<path style=" stroke:none;fill-rule:nonzero;fill:rgb(0%,0%,0%);fill-opacity:1;" d="M 150.972656 27.867188 C 150.972656 27.4375 150.972656 27.4375 150.621094 27.4375 C 150.191406 27.90625 149.292969 28.570312 147.457031 28.570312 L 147.457031 29.097656 C 147.867188 29.097656 148.765625 29.097656 149.742188 28.628906 L 149.742188 37.964844 C 149.742188 38.609375 149.683594 38.824219 148.121094 38.824219 L 147.554688 38.824219 L 147.554688 39.351562 C 148.042969 39.3125 149.78125 39.3125 150.367188 39.3125 C 150.953125 39.3125 152.691406 39.3125 153.160156 39.351562 L 153.160156 38.824219 L 152.613281 38.824219 C 151.03125 38.824219 150.972656 38.609375 150.972656 37.964844 Z M 150.972656 27.867188 "/>
<path style=" stroke:none;fill-rule:nonzero;fill:rgb(0%,0%,0%);fill-opacity:1;" d="M 171.882812 22.929688 C 172.195312 22.929688 172.507812 22.929688 172.507812 22.578125 C 172.507812 22.207031 172.195312 22.207031 171.882812 22.207031 L 162.175781 22.207031 C 161.882812 22.207031 161.550781 22.207031 161.550781 22.578125 C 161.550781 22.929688 161.882812 22.929688 162.175781 22.929688 Z M 171.882812 22.929688 "/>
<path style=" stroke:none;fill-rule:nonzero;fill:rgb(0%,0%,0%);fill-opacity:1;" d="M 200.472656 3.417969 C 200.472656 2.988281 200.472656 2.988281 200.121094 2.988281 C 199.691406 3.457031 198.792969 4.121094 196.957031 4.121094 L 196.957031 4.648438 C 197.367188 4.648438 198.265625 4.648438 199.242188 4.179688 L 199.242188 13.515625 C 199.242188 14.160156 199.183594 14.375 197.621094 14.375 L 197.054688 14.375 L 197.054688 14.902344 C 197.542969 14.863281 199.28125 14.863281 199.867188 14.863281 C 200.453125 14.863281 202.191406 14.863281 202.660156 14.902344 L 202.660156 14.375 L 202.113281 14.375 C 200.53125 14.375 200.472656 14.160156 200.472656 13.515625 Z M 200.472656 3.417969 "/>
<path style=" stroke:none;fill-rule:nonzero;fill:rgb(0%,0%,0%);fill-opacity:1;" d="M 179.550781 22.113281 L 220.046875 22.113281 L 220.046875 22.867188 L 179.550781 22.867188 Z M 179.550781 22.113281 "/>
<path style=" stroke:none;fill-rule:nonzero;fill:rgb(0%,0%,0%);fill-opacity:1;" d="M 188.0625 32.027344 C 187.496094 32.144531 187.28125 32.574219 187.28125 32.90625 C 187.28125 33.335938 187.613281 33.492188 187.867188 33.492188 C 188.414062 33.492188 188.785156 33.023438 188.785156 32.535156 C 188.785156 31.792969 187.925781 31.441406 187.164062 31.441406 C 186.070312 31.441406 185.464844 32.515625 185.308594 32.867188 C 184.898438 31.519531 183.785156 31.441406 183.453125 31.441406 C 181.636719 31.441406 180.660156 33.785156 180.660156 34.195312 C 180.660156 34.253906 180.738281 34.351562 180.855469 34.351562 C 180.992188 34.351562 181.03125 34.234375 181.070312 34.175781 C 181.675781 32.183594 182.886719 31.8125 183.394531 31.8125 C 184.214844 31.8125 184.371094 32.554688 184.371094 32.984375 C 184.371094 33.375 184.273438 33.785156 184.039062 34.644531 L 183.433594 37.105469 C 183.179688 38.179688 182.652344 39.175781 181.695312 39.175781 C 181.617188 39.175781 181.167969 39.175781 180.777344 38.941406 C 181.421875 38.804688 181.578125 38.277344 181.578125 38.0625 C 181.578125 37.710938 181.304688 37.496094 180.972656 37.496094 C 180.542969 37.496094 180.074219 37.867188 180.074219 38.433594 C 180.074219 39.195312 180.914062 39.527344 181.675781 39.527344 C 182.535156 39.527344 183.160156 38.84375 183.53125 38.121094 C 183.824219 39.175781 184.703125 39.527344 185.367188 39.527344 C 187.203125 39.527344 188.179688 37.183594 188.179688 36.792969 C 188.179688 36.695312 188.101562 36.617188 187.984375 36.617188 C 187.828125 36.617188 187.808594 36.714844 187.769531 36.851562 C 187.28125 38.433594 186.226562 39.175781 185.425781 39.175781 C 184.800781 39.175781 184.46875 38.707031 184.46875 37.964844 C 184.46875 37.574219 184.527344 37.28125 184.820312 36.109375 L 185.445312 33.667969 C 185.71875 32.59375 186.324219 31.8125 187.144531 31.8125 C 187.183594 31.8125 187.691406 31.8125 188.0625 32.027344 Z M 188.0625 32.027344 "/>
<path style=" stroke:none;fill-rule:nonzero;fill:rgb(0%,0%,0%);fill-opacity:1;" d="M 200.664062 35.210938 L 205.625 35.210938 C 205.878906 35.210938 206.191406 35.210938 206.191406 34.878906 C 206.191406 34.546875 205.878906 34.546875 205.625 34.546875 L 200.664062 34.546875 L 200.664062 29.605469 C 200.664062 29.351562 200.664062 29.019531 200.351562 29.019531 C 200 29.019531 200 29.332031 200 29.605469 L 200 34.546875 L 195.058594 34.546875 C 194.804688 34.546875 194.492188 34.546875 194.492188 34.878906 C 194.492188 35.210938 194.785156 35.210938 195.058594 35.210938 L 200 35.210938 L 200 40.152344 C 200 40.40625 200 40.738281 200.332031 40.738281 C 200.664062 40.738281 200.664062 40.425781 200.664062 40.152344 Z M 200.664062 35.210938 "/>
<path style=" stroke:none;fill-rule:nonzero;fill:rgb(0%,0%,0%);fill-opacity:1;" d="M 214.515625 32.90625 C 214.203125 32.925781 214.144531 32.945312 214.144531 33.121094 C 214.144531 33.296875 214.222656 33.296875 214.554688 33.296875 L 215.375 33.296875 C 216.898438 33.296875 217.582031 34.546875 217.582031 36.265625 C 217.582031 38.609375 216.351562 39.234375 215.472656 39.234375 C 214.613281 39.234375 213.148438 38.824219 212.640625 37.652344 C 213.207031 37.730469 213.734375 37.417969 213.734375 36.773438 C 213.734375 36.246094 213.34375 35.894531 212.855469 35.894531 C 212.425781 35.894531 211.957031 36.148438 211.957031 36.832031 C 211.957031 38.414062 213.539062 39.722656 215.53125 39.722656 C 217.660156 39.722656 219.242188 38.101562 219.242188 36.285156 C 219.242188 34.644531 217.914062 33.335938 216.195312 33.042969 C 217.757812 32.59375 218.753906 31.285156 218.753906 29.878906 C 218.753906 28.472656 217.289062 27.4375 215.550781 27.4375 C 213.753906 27.4375 212.425781 28.53125 212.425781 29.839844 C 212.425781 30.542969 212.992188 30.699219 213.265625 30.699219 C 213.636719 30.699219 214.066406 30.425781 214.066406 29.878906 C 214.066406 29.3125 213.636719 29.058594 213.246094 29.058594 C 213.128906 29.058594 213.089844 29.058594 213.050781 29.078125 C 213.734375 27.867188 215.414062 27.867188 215.492188 27.867188 C 216.097656 27.867188 217.25 28.121094 217.25 29.878906 C 217.25 30.230469 217.210938 31.226562 216.683594 32.007812 C 216.136719 32.789062 215.53125 32.847656 215.042969 32.867188 Z M 214.515625 32.90625 "/>
</g>
</svg>
