<?xml version="1.0" encoding="UTF-8"?>
<svg xmlns="http://www.w3.org/2000/svg" xmlns:xlink="http://www.w3.org/1999/xlink" width="248.38911pt" height="77.408228pt" viewBox="0 0 248.38911 77.408228" version="1.1">
<g id="surface1">
<path style=" stroke:none;fill-rule:nonzero;fill:rgb(0%,0%,100%);fill-opacity:1;" d="M 2.695312 0.996094 L 1.152344 0.996094 L 1.152344 13.4375 L 2.695312 13.4375 Z M 2.695312 0.996094 "/>
<path style=" stroke:none;fill-rule:nonzero;fill:rgb(0%,0%,100%);fill-opacity:1;" d="M 11.929688 8.046875 C 11.929688 6.953125 11.695312 5.292969 9.527344 5.292969 C 8.53125 5.292969 7.671875 5.742188 6.988281 6.601562 L 6.988281 5.390625 L 5.71875 5.390625 L 5.71875 13.4375 L 7.066406 13.4375 L 7.066406 8.964844 C 7.066406 7.871094 7.496094 6.367188 8.84375 6.367188 C 10.523438 6.367188 10.5625 7.539062 10.5625 8.164062 L 10.5625 13.4375 L 11.929688 13.4375 Z M 11.929688 8.046875 "/>
<path style=" stroke:none;fill-rule:nonzero;fill:rgb(0%,0%,100%);fill-opacity:1;" d="M 16.398438 6.523438 L 18.878906 6.523438 L 18.878906 5.46875 L 16.398438 5.46875 L 16.398438 3.203125 L 15.167969 3.203125 L 15.167969 5.46875 L 13.664062 5.46875 L 13.664062 6.523438 L 15.128906 6.523438 L 15.128906 11.347656 C 15.128906 12.382812 15.363281 13.613281 16.59375 13.613281 C 17.804688 13.613281 18.625 13.203125 19.171875 12.910156 L 18.898438 11.875 C 18.273438 12.441406 17.609375 12.5 17.296875 12.5 C 16.496094 12.5 16.398438 11.660156 16.398438 11.035156 Z M 16.398438 6.523438 "/>
<path style=" stroke:none;fill-rule:nonzero;fill:rgb(0%,0%,100%);fill-opacity:1;" d="M 26.9375 9.394531 C 26.9375 8.632812 26.859375 7.539062 26.292969 6.582031 C 25.550781 5.351562 24.300781 5.214844 23.773438 5.214844 C 21.839844 5.214844 20.21875 7.070312 20.21875 9.394531 C 20.21875 11.777344 21.9375 13.613281 24.027344 13.613281 C 24.847656 13.613281 25.84375 13.378906 26.820312 12.675781 C 26.820312 12.597656 26.761719 12.03125 26.761719 12.011719 C 26.742188 11.992188 26.722656 11.582031 26.722656 11.523438 C 25.648438 12.421875 24.59375 12.539062 24.066406 12.539062 C 22.679688 12.539062 21.488281 11.308594 21.46875 9.394531 Z M 21.566406 8.4375 C 21.878906 7.226562 22.71875 6.289062 23.773438 6.289062 C 24.339844 6.289062 25.570312 6.542969 25.863281 8.4375 Z M 21.566406 8.4375 "/>
<path style=" stroke:none;fill-rule:nonzero;fill:rgb(0%,0%,100%);fill-opacity:1;" d="M 30.164062 9.511719 C 30.164062 7.695312 31.511719 6.523438 33.132812 6.503906 L 33.132812 5.292969 C 31.492188 5.3125 30.554688 6.269531 30.066406 6.972656 L 30.066406 5.390625 L 28.835938 5.390625 L 28.835938 13.4375 L 30.164062 13.4375 Z M 30.164062 9.511719 "/>
<path style=" stroke:none;fill-rule:nonzero;fill:rgb(0%,0%,100%);fill-opacity:1;" d="M 36.183594 12.636719 C 36.808594 13.183594 37.550781 13.613281 38.527344 13.613281 C 40.246094 13.613281 41.789062 11.875 41.789062 9.433594 C 41.789062 7.265625 40.636719 5.292969 38.976562 5.292969 C 38.234375 5.292969 37.082031 5.527344 36.164062 6.328125 L 36.164062 5.46875 L 34.835938 5.46875 L 34.835938 16.914062 L 36.183594 16.914062 Z M 36.183594 7.421875 C 36.59375 6.796875 37.277344 6.40625 38.019531 6.40625 C 39.347656 6.40625 40.421875 7.753906 40.421875 9.453125 C 40.421875 11.25 39.191406 12.539062 37.863281 12.539062 C 37.355469 12.539062 37.023438 12.363281 36.691406 12.109375 C 36.242188 11.71875 36.183594 11.386719 36.183594 11.113281 Z M 36.183594 7.421875 "/>
<path style=" stroke:none;fill-rule:nonzero;fill:rgb(0%,0%,100%);fill-opacity:1;" d="M 44.714844 9.511719 C 44.714844 7.695312 46.0625 6.523438 47.683594 6.503906 L 47.683594 5.292969 C 46.042969 5.3125 45.105469 6.269531 44.617188 6.972656 L 44.617188 5.390625 L 43.386719 5.390625 L 43.386719 13.4375 L 44.714844 13.4375 Z M 44.714844 9.511719 "/>
<path style=" stroke:none;fill-rule:nonzero;fill:rgb(0%,0%,100%);fill-opacity:1;" d="M 55.285156 9.394531 C 55.285156 8.632812 55.207031 7.539062 54.640625 6.582031 C 53.898438 5.351562 52.648438 5.214844 52.121094 5.214844 C 50.1875 5.214844 48.566406 7.070312 48.566406 9.394531 C 48.566406 11.777344 50.285156 13.613281 52.375 13.613281 C 53.195312 13.613281 54.191406 13.378906 55.167969 12.675781 C 55.167969 12.597656 55.109375 12.03125 55.109375 12.011719 C 55.089844 11.992188 55.070312 11.582031 55.070312 11.523438 C 53.996094 12.421875 52.941406 12.539062 52.414062 12.539062 C 51.027344 12.539062 49.835938 11.308594 49.816406 9.394531 Z M 49.914062 8.4375 C 50.226562 7.226562 51.066406 6.289062 52.121094 6.289062 C 52.6875 6.289062 53.917969 6.542969 54.210938 8.4375 Z M 49.914062 8.4375 "/>
<path style=" stroke:none;fill-rule:nonzero;fill:rgb(0%,0%,100%);fill-opacity:1;" d="M 58.847656 6.523438 L 61.328125 6.523438 L 61.328125 5.46875 L 58.847656 5.46875 L 58.847656 3.203125 L 57.617188 3.203125 L 57.617188 5.46875 L 56.113281 5.46875 L 56.113281 6.523438 L 57.578125 6.523438 L 57.578125 11.347656 C 57.578125 12.382812 57.8125 13.613281 59.042969 13.613281 C 60.253906 13.613281 61.074219 13.203125 61.621094 12.910156 L 61.347656 11.875 C 60.722656 12.441406 60.058594 12.5 59.746094 12.5 C 58.945312 12.5 58.847656 11.660156 58.847656 11.035156 Z M 58.847656 6.523438 "/>
<path style=" stroke:none;fill-rule:nonzero;fill:rgb(0%,0%,100%);fill-opacity:1;" d="M 64.914062 1.269531 L 63.371094 1.269531 L 63.371094 2.8125 L 64.914062 2.8125 Z M 64.816406 5.46875 L 63.488281 5.46875 L 63.488281 13.4375 L 64.816406 13.4375 Z M 64.816406 5.46875 "/>
<path style=" stroke:none;fill-rule:nonzero;fill:rgb(0%,0%,100%);fill-opacity:1;" d="M 73.878906 8.046875 C 73.878906 6.953125 73.644531 5.292969 71.476562 5.292969 C 70.480469 5.292969 69.621094 5.742188 68.9375 6.601562 L 68.9375 5.390625 L 67.667969 5.390625 L 67.667969 13.4375 L 69.015625 13.4375 L 69.015625 8.964844 C 69.015625 7.871094 69.445312 6.367188 70.792969 6.367188 C 72.472656 6.367188 72.511719 7.539062 72.511719 8.164062 L 72.511719 13.4375 L 73.878906 13.4375 Z M 73.878906 8.046875 "/>
<path style=" stroke:none;fill-rule:nonzero;fill:rgb(0%,0%,100%);fill-opacity:1;" d="M 81.394531 6.367188 C 81.394531 6.367188 81.433594 6.40625 81.453125 6.445312 C 81.824219 6.40625 82.214844 6.347656 82.878906 6.347656 C 82.9375 6.347656 83.347656 6.347656 83.796875 6.386719 L 83.601562 5.292969 C 83.269531 5.292969 82.039062 5.3125 80.847656 5.898438 C 80.261719 5.390625 79.539062 5.292969 79.1875 5.292969 C 77.625 5.292969 76.375 6.601562 76.375 8.183594 C 76.375 8.828125 76.570312 9.414062 76.960938 9.960938 C 76.550781 10.527344 76.453125 11.074219 76.453125 11.503906 C 76.453125 12.167969 76.707031 12.617188 76.902344 12.851562 C 75.984375 13.4375 75.769531 14.199219 75.769531 14.707031 C 75.769531 16.015625 77.46875 17.109375 79.65625 17.109375 C 81.84375 17.109375 83.5625 16.054688 83.5625 14.6875 C 83.5625 12.1875 80.652344 12.1875 79.929688 12.1875 L 78.40625 12.1875 C 78.152344 12.1875 77.371094 12.1875 77.371094 11.230469 C 77.371094 10.839844 77.449219 10.722656 77.566406 10.566406 C 77.859375 10.78125 78.445312 11.09375 79.167969 11.09375 C 80.710938 11.09375 81.980469 9.824219 81.980469 8.183594 C 81.980469 7.539062 81.746094 6.875 81.375 6.386719 Z M 79.1875 10.097656 C 78.40625 10.097656 77.605469 9.570312 77.605469 8.203125 C 77.605469 6.601562 78.621094 6.289062 79.167969 6.289062 C 79.96875 6.289062 80.75 6.816406 80.75 8.183594 C 80.75 9.785156 79.753906 10.097656 79.1875 10.097656 Z M 79.949219 13.476562 C 80.339844 13.476562 82.3125 13.476562 82.3125 14.707031 C 82.3125 15.527344 81.082031 16.132812 79.675781 16.132812 C 78.269531 16.132812 77.019531 15.566406 77.019531 14.6875 C 77.019531 14.648438 77.019531 13.476562 78.386719 13.476562 Z M 79.949219 13.476562 "/>
<path style=" stroke:none;fill-rule:nonzero;fill:rgb(0%,0%,100%);fill-opacity:1;" d="M 97.820312 6.230469 C 98.191406 6.230469 98.328125 6.230469 98.328125 5.898438 C 98.328125 5.703125 98.191406 5.703125 97.859375 5.703125 L 96.414062 5.703125 C 96.746094 3.867188 97 2.597656 97.15625 2.011719 C 97.253906 1.582031 97.625 1.171875 98.09375 1.171875 C 98.464844 1.171875 98.855469 1.328125 99.03125 1.503906 C 98.328125 1.5625 98.113281 2.089844 98.113281 2.402344 C 98.113281 2.753906 98.386719 2.96875 98.71875 2.96875 C 99.089844 2.96875 99.617188 2.65625 99.617188 1.972656 C 99.617188 1.230469 98.875 0.820312 98.074219 0.820312 C 97.3125 0.820312 96.550781 1.386719 96.199219 2.089844 C 95.867188 2.714844 95.691406 3.359375 95.28125 5.703125 L 94.089844 5.703125 C 93.738281 5.703125 93.5625 5.703125 93.5625 6.035156 C 93.5625 6.230469 93.660156 6.230469 94.03125 6.230469 L 95.183594 6.230469 C 94.851562 7.890625 94.109375 11.953125 93.699219 13.867188 C 93.40625 15.429688 93.132812 16.738281 92.234375 16.738281 C 92.175781 16.738281 91.667969 16.738281 91.335938 16.386719 C 92.253906 16.328125 92.253906 15.527344 92.253906 15.507812 C 92.253906 15.15625 91.980469 14.941406 91.648438 14.941406 C 91.277344 14.941406 90.75 15.253906 90.75 15.9375 C 90.75 16.699219 91.53125 17.089844 92.234375 17.089844 C 94.070312 17.089844 94.8125 13.808594 95.007812 12.910156 C 95.339844 11.542969 96.21875 6.777344 96.296875 6.230469 Z M 97.820312 6.230469 "/>
<path style=" stroke:none;fill-rule:nonzero;fill:rgb(0%,0%,100%);fill-opacity:1;" d="M 103.625 1.070312 C 103.703125 0.914062 103.742188 0.816406 103.742188 0.679688 C 103.742188 0.328125 103.429688 0.015625 103.039062 0.015625 C 102.6875 0.015625 102.453125 0.25 102.375 0.582031 L 100.890625 6.03125 C 100.890625 6.050781 100.851562 6.1875 100.851562 6.207031 C 100.851562 6.34375 101.164062 6.421875 101.261719 6.421875 C 101.339844 6.421875 101.359375 6.382812 101.417969 6.226562 Z M 103.625 1.070312 "/>
<path style=" stroke:none;fill-rule:nonzero;fill:rgb(0%,0%,100%);fill-opacity:1;" d="M 110.351562 17.792969 C 110.351562 17.734375 110.351562 17.695312 110.058594 17.402344 C 108.261719 15.585938 107.265625 12.636719 107.265625 8.964844 C 107.265625 5.488281 108.105469 2.5 110.175781 0.390625 C 110.351562 0.214844 110.351562 0.195312 110.351562 0.136719 C 110.351562 0.0195312 110.273438 0 110.195312 0 C 109.960938 0 108.496094 1.289062 107.617188 3.046875 C 106.699219 4.84375 106.289062 6.777344 106.289062 8.964844 C 106.289062 10.566406 106.542969 12.695312 107.480469 14.628906 C 108.535156 16.777344 110 17.929688 110.195312 17.929688 C 110.273438 17.929688 110.351562 17.910156 110.351562 17.792969 Z M 110.351562 17.792969 "/>
<path style=" stroke:none;fill-rule:nonzero;fill:rgb(0%,0%,100%);fill-opacity:1;" d="M 119.925781 6.113281 C 119.359375 6.230469 119.144531 6.660156 119.144531 6.992188 C 119.144531 7.421875 119.476562 7.578125 119.730469 7.578125 C 120.277344 7.578125 120.648438 7.109375 120.648438 6.621094 C 120.648438 5.878906 119.789062 5.527344 119.027344 5.527344 C 117.933594 5.527344 117.328125 6.601562 117.171875 6.953125 C 116.761719 5.605469 115.648438 5.527344 115.316406 5.527344 C 113.5 5.527344 112.523438 7.871094 112.523438 8.28125 C 112.523438 8.339844 112.601562 8.4375 112.71875 8.4375 C 112.855469 8.4375 112.894531 8.320312 112.933594 8.261719 C 113.539062 6.269531 114.75 5.898438 115.257812 5.898438 C 116.078125 5.898438 116.234375 6.640625 116.234375 7.070312 C 116.234375 7.460938 116.136719 7.871094 115.902344 8.730469 L 115.296875 11.191406 C 115.042969 12.265625 114.515625 13.261719 113.558594 13.261719 C 113.480469 13.261719 113.03125 13.261719 112.640625 13.027344 C 113.285156 12.890625 113.441406 12.363281 113.441406 12.148438 C 113.441406 11.796875 113.167969 11.582031 112.835938 11.582031 C 112.40625 11.582031 111.9375 11.953125 111.9375 12.519531 C 111.9375 13.28125 112.777344 13.613281 113.539062 13.613281 C 114.398438 13.613281 115.023438 12.929688 115.394531 12.207031 C 115.6875 13.261719 116.566406 13.613281 117.230469 13.613281 C 119.066406 13.613281 120.042969 11.269531 120.042969 10.878906 C 120.042969 10.78125 119.964844 10.703125 119.847656 10.703125 C 119.691406 10.703125 119.671875 10.800781 119.632812 10.9375 C 119.144531 12.519531 118.089844 13.261719 117.289062 13.261719 C 116.664062 13.261719 116.332031 12.792969 116.332031 12.050781 C 116.332031 11.660156 116.390625 11.367188 116.683594 10.195312 L 117.308594 7.753906 C 117.582031 6.679688 118.1875 5.898438 119.007812 5.898438 C 119.046875 5.898438 119.554688 5.898438 119.925781 6.113281 Z M 119.925781 6.113281 "/>
<path style=" stroke:none;fill-rule:nonzero;fill:rgb(0%,0%,100%);fill-opacity:1;" d="M 126.539062 8.964844 C 126.539062 7.617188 126.363281 5.390625 125.347656 3.300781 C 124.292969 1.152344 122.828125 0 122.632812 0 C 122.554688 0 122.457031 0.0195312 122.457031 0.136719 C 122.457031 0.195312 122.457031 0.214844 122.769531 0.527344 C 124.566406 2.34375 125.5625 5.292969 125.5625 8.964844 C 125.5625 12.441406 124.722656 15.429688 122.652344 17.539062 C 122.457031 17.695312 122.457031 17.734375 122.457031 17.792969 C 122.457031 17.910156 122.554688 17.929688 122.632812 17.929688 C 122.867188 17.929688 124.332031 16.640625 125.210938 14.882812 C 126.128906 13.066406 126.539062 11.132812 126.539062 8.964844 Z M 126.539062 8.964844 "/>
<path style=" stroke:none;fill-rule:nonzero;fill:rgb(0%,0%,100%);fill-opacity:1;" d="M 140.941406 8.183594 C 140.941406 6.464844 139.710938 5.214844 138.03125 5.214844 C 136.957031 5.214844 136.15625 5.449219 135.277344 5.957031 L 135.375 7.148438 C 136.175781 6.5625 136.996094 6.25 138.03125 6.25 C 138.851562 6.25 139.574219 6.914062 139.574219 8.222656 L 139.574219 8.964844 C 138.773438 8.984375 137.699219 9.042969 136.625 9.394531 C 135.414062 9.824219 134.710938 10.488281 134.710938 11.367188 C 134.710938 12.167969 135.179688 13.613281 136.703125 13.613281 C 137.699219 13.613281 138.949219 13.320312 139.613281 12.773438 L 139.613281 13.4375 L 140.941406 13.4375 Z M 139.574219 11.035156 C 139.574219 11.386719 139.574219 11.816406 138.988281 12.1875 C 138.5 12.480469 137.894531 12.539062 137.621094 12.539062 C 136.664062 12.539062 136 12.011719 136 11.367188 C 136 10.136719 138.480469 9.863281 139.574219 9.863281 Z M 139.574219 11.035156 "/>
<path style=" stroke:none;fill-rule:nonzero;fill:rgb(0%,0%,100%);fill-opacity:1;" d="M 149.929688 8.046875 C 149.929688 6.953125 149.695312 5.292969 147.527344 5.292969 C 146.53125 5.292969 145.671875 5.742188 144.988281 6.601562 L 144.988281 5.390625 L 143.71875 5.390625 L 143.71875 13.4375 L 145.066406 13.4375 L 145.066406 8.964844 C 145.066406 7.871094 145.496094 6.367188 146.84375 6.367188 C 148.523438 6.367188 148.5625 7.539062 148.5625 8.164062 L 148.5625 13.4375 L 149.929688 13.4375 Z M 149.929688 8.046875 "/>
<path style=" stroke:none;fill-rule:nonzero;fill:rgb(0%,0%,100%);fill-opacity:1;" d="M 158.910156 0.996094 L 157.582031 0.996094 L 157.582031 6.230469 C 156.761719 5.546875 155.824219 5.292969 155.0625 5.292969 C 153.363281 5.292969 151.957031 7.128906 151.957031 9.453125 C 151.957031 11.777344 153.285156 13.613281 154.984375 13.613281 C 155.648438 13.613281 156.664062 13.398438 157.5625 12.519531 L 157.5625 13.4375 L 158.910156 13.4375 Z M 157.5625 11.328125 C 157.132812 12.089844 156.488281 12.539062 155.707031 12.539062 C 154.613281 12.539062 153.324219 11.699219 153.324219 9.472656 C 153.324219 7.089844 154.847656 6.367188 155.882812 6.367188 C 156.585938 6.367188 157.152344 6.738281 157.5625 7.324219 Z M 157.5625 11.328125 "/>
<path style=" stroke:none;fill-rule:nonzero;fill:rgb(0%,0%,100%);fill-opacity:1;" d="M 174.167969 6.230469 C 174.539062 6.230469 174.675781 6.230469 174.675781 5.898438 C 174.675781 5.703125 174.539062 5.703125 174.207031 5.703125 L 172.761719 5.703125 C 173.09375 3.867188 173.347656 2.597656 173.503906 2.011719 C 173.601562 1.582031 173.972656 1.171875 174.441406 1.171875 C 174.8125 1.171875 175.203125 1.328125 175.378906 1.503906 C 174.675781 1.5625 174.460938 2.089844 174.460938 2.402344 C 174.460938 2.753906 174.734375 2.96875 175.066406 2.96875 C 175.4375 2.96875 175.964844 2.65625 175.964844 1.972656 C 175.964844 1.230469 175.222656 0.820312 174.421875 0.820312 C 173.660156 0.820312 172.898438 1.386719 172.546875 2.089844 C 172.214844 2.714844 172.039062 3.359375 171.628906 5.703125 L 170.4375 5.703125 C 170.085938 5.703125 169.910156 5.703125 169.910156 6.035156 C 169.910156 6.230469 170.007812 6.230469 170.378906 6.230469 L 171.53125 6.230469 C 171.199219 7.890625 170.457031 11.953125 170.046875 13.867188 C 169.753906 15.429688 169.480469 16.738281 168.582031 16.738281 C 168.523438 16.738281 168.015625 16.738281 167.683594 16.386719 C 168.601562 16.328125 168.601562 15.527344 168.601562 15.507812 C 168.601562 15.15625 168.328125 14.941406 167.996094 14.941406 C 167.625 14.941406 167.097656 15.253906 167.097656 15.9375 C 167.097656 16.699219 167.878906 17.089844 168.582031 17.089844 C 170.417969 17.089844 171.160156 13.808594 171.355469 12.910156 C 171.6875 11.542969 172.566406 6.777344 172.644531 6.230469 Z M 174.167969 6.230469 "/>
<path style=" stroke:none;fill-rule:nonzero;fill:rgb(0%,0%,100%);fill-opacity:1;" d="M 179.976562 1.070312 C 180.054688 0.914062 180.09375 0.816406 180.09375 0.679688 C 180.09375 0.328125 179.78125 0.015625 179.390625 0.015625 C 179.039062 0.015625 178.804688 0.25 178.726562 0.582031 L 177.242188 6.03125 C 177.242188 6.050781 177.203125 6.1875 177.203125 6.207031 C 177.203125 6.34375 177.515625 6.421875 177.613281 6.421875 C 177.691406 6.421875 177.710938 6.382812 177.769531 6.226562 Z M 179.976562 1.070312 "/>
<path style=" stroke:none;fill-rule:nonzero;fill:rgb(0%,0%,100%);fill-opacity:1;" d="M 183.425781 1.070312 C 183.503906 0.914062 183.542969 0.816406 183.542969 0.679688 C 183.542969 0.328125 183.230469 0.015625 182.839844 0.015625 C 182.488281 0.015625 182.253906 0.25 182.175781 0.582031 L 180.691406 6.03125 C 180.691406 6.050781 180.652344 6.1875 180.652344 6.207031 C 180.652344 6.34375 180.964844 6.421875 181.0625 6.421875 C 181.140625 6.421875 181.160156 6.382812 181.21875 6.226562 Z M 183.425781 1.070312 "/>
<path style=" stroke:none;fill-rule:nonzero;fill:rgb(0%,0%,100%);fill-opacity:1;" d="M 190.152344 17.792969 C 190.152344 17.734375 190.152344 17.695312 189.859375 17.402344 C 188.0625 15.585938 187.066406 12.636719 187.066406 8.964844 C 187.066406 5.488281 187.90625 2.5 189.976562 0.390625 C 190.152344 0.214844 190.152344 0.195312 190.152344 0.136719 C 190.152344 0.0195312 190.074219 0 189.996094 0 C 189.761719 0 188.296875 1.289062 187.417969 3.046875 C 186.5 4.84375 186.089844 6.777344 186.089844 8.964844 C 186.089844 10.566406 186.34375 12.695312 187.28125 14.628906 C 188.335938 16.777344 189.800781 17.929688 189.996094 17.929688 C 190.074219 17.929688 190.152344 17.910156 190.152344 17.792969 Z M 190.152344 17.792969 "/>
<path style=" stroke:none;fill-rule:nonzero;fill:rgb(0%,0%,100%);fill-opacity:1;" d="M 199.726562 6.113281 C 199.160156 6.230469 198.945312 6.660156 198.945312 6.992188 C 198.945312 7.421875 199.277344 7.578125 199.53125 7.578125 C 200.078125 7.578125 200.449219 7.109375 200.449219 6.621094 C 200.449219 5.878906 199.589844 5.527344 198.828125 5.527344 C 197.734375 5.527344 197.128906 6.601562 196.972656 6.953125 C 196.5625 5.605469 195.449219 5.527344 195.117188 5.527344 C 193.300781 5.527344 192.324219 7.871094 192.324219 8.28125 C 192.324219 8.339844 192.402344 8.4375 192.519531 8.4375 C 192.65625 8.4375 192.695312 8.320312 192.734375 8.261719 C 193.339844 6.269531 194.550781 5.898438 195.058594 5.898438 C 195.878906 5.898438 196.035156 6.640625 196.035156 7.070312 C 196.035156 7.460938 195.9375 7.871094 195.703125 8.730469 L 195.097656 11.191406 C 194.84375 12.265625 194.316406 13.261719 193.359375 13.261719 C 193.28125 13.261719 192.832031 13.261719 192.441406 13.027344 C 193.085938 12.890625 193.242188 12.363281 193.242188 12.148438 C 193.242188 11.796875 192.96875 11.582031 192.636719 11.582031 C 192.207031 11.582031 191.738281 11.953125 191.738281 12.519531 C 191.738281 13.28125 192.578125 13.613281 193.339844 13.613281 C 194.199219 13.613281 194.824219 12.929688 195.195312 12.207031 C 195.488281 13.261719 196.367188 13.613281 197.03125 13.613281 C 198.867188 13.613281 199.84375 11.269531 199.84375 10.878906 C 199.84375 10.78125 199.765625 10.703125 199.648438 10.703125 C 199.492188 10.703125 199.472656 10.800781 199.433594 10.9375 C 198.945312 12.519531 197.890625 13.261719 197.089844 13.261719 C 196.464844 13.261719 196.132812 12.792969 196.132812 12.050781 C 196.132812 11.660156 196.191406 11.367188 196.484375 10.195312 L 197.109375 7.753906 C 197.382812 6.679688 197.988281 5.898438 198.808594 5.898438 C 198.847656 5.898438 199.355469 5.898438 199.726562 6.113281 Z M 199.726562 6.113281 "/>
<path style=" stroke:none;fill-rule:nonzero;fill:rgb(0%,0%,100%);fill-opacity:1;" d="M 206.339844 8.964844 C 206.339844 7.617188 206.164062 5.390625 205.148438 3.300781 C 204.09375 1.152344 202.628906 0 202.433594 0 C 202.355469 0 202.257812 0.0195312 202.257812 0.136719 C 202.257812 0.195312 202.257812 0.214844 202.570312 0.527344 C 204.367188 2.34375 205.363281 5.292969 205.363281 8.964844 C 205.363281 12.441406 204.523438 15.429688 202.453125 17.539062 C 202.257812 17.695312 202.257812 17.734375 202.257812 17.792969 C 202.257812 17.910156 202.355469 17.929688 202.433594 17.929688 C 202.667969 17.929688 204.132812 16.640625 205.011719 14.882812 C 205.929688 13.066406 206.339844 11.132812 206.339844 8.964844 Z M 206.339844 8.964844 "/>
<path style=" stroke:none;fill-rule:nonzero;fill:rgb(0%,0%,0%);fill-opacity:1;" d="M 9.863281 22.144531 L 8.496094 22.144531 L 8.496094 30.425781 C 8.496094 32.828125 6.992188 33.960938 5.546875 33.960938 C 4.140625 33.960938 2.695312 32.847656 2.695312 30.425781 L 2.695312 22.144531 L 1.152344 22.144531 L 1.152344 30.40625 C 1.152344 33.042969 3.203125 34.957031 5.546875 34.957031 C 7.871094 34.957031 9.863281 33.003906 9.863281 30.40625 Z M 9.863281 22.144531 "/>
<path style=" stroke:none;fill-rule:nonzero;fill:rgb(0%,0%,0%);fill-opacity:1;" d="M 17.546875 26.910156 C 16.414062 26.382812 15.4375 26.363281 15.027344 26.363281 C 14.617188 26.363281 12.117188 26.363281 12.117188 28.6875 C 12.117188 29.46875 12.546875 30.015625 12.820312 30.269531 C 13.464844 30.816406 13.914062 30.914062 14.96875 31.128906 C 15.574219 31.246094 16.609375 31.460938 16.609375 32.417969 C 16.609375 33.648438 15.203125 33.648438 14.949219 33.648438 C 14.246094 33.648438 13.191406 33.453125 12.234375 32.75 L 12.019531 33.980469 C 12.097656 34.039062 13.328125 34.761719 14.96875 34.761719 C 17.292969 34.761719 17.839844 33.375 17.839844 32.300781 C 17.839844 31.402344 17.292969 30.816406 17.214844 30.738281 C 16.550781 30.054688 16.003906 29.9375 14.929688 29.722656 C 14.265625 29.605469 13.367188 29.429688 13.367188 28.53125 C 13.367188 27.417969 14.617188 27.417969 14.851562 27.417969 C 15.789062 27.417969 16.550781 27.632812 17.332031 28.082031 Z M 17.546875 26.910156 "/>
<path style=" stroke:none;fill-rule:nonzero;fill:rgb(0%,0%,0%);fill-opacity:1;" d="M 21.113281 22.417969 L 19.570312 22.417969 L 19.570312 23.960938 L 21.113281 23.960938 Z M 21.015625 26.617188 L 19.6875 26.617188 L 19.6875 34.585938 L 21.015625 34.585938 Z M 21.015625 26.617188 "/>
<path style=" stroke:none;fill-rule:nonzero;fill:rgb(0%,0%,0%);fill-opacity:1;" d="M 30.078125 29.195312 C 30.078125 28.101562 29.84375 26.441406 27.675781 26.441406 C 26.679688 26.441406 25.820312 26.890625 25.136719 27.75 L 25.136719 26.539062 L 23.867188 26.539062 L 23.867188 34.585938 L 25.214844 34.585938 L 25.214844 30.113281 C 25.214844 29.019531 25.644531 27.515625 26.992188 27.515625 C 28.671875 27.515625 28.710938 28.6875 28.710938 29.3125 L 28.710938 34.585938 L 30.078125 34.585938 Z M 30.078125 29.195312 "/>
<path style=" stroke:none;fill-rule:nonzero;fill:rgb(0%,0%,0%);fill-opacity:1;" d="M 37.59375 27.515625 C 37.59375 27.515625 37.632812 27.554688 37.652344 27.59375 C 38.023438 27.554688 38.414062 27.496094 39.078125 27.496094 C 39.136719 27.496094 39.546875 27.496094 39.996094 27.535156 L 39.800781 26.441406 C 39.46875 26.441406 38.238281 26.460938 37.046875 27.046875 C 36.460938 26.539062 35.738281 26.441406 35.386719 26.441406 C 33.824219 26.441406 32.574219 27.75 32.574219 29.332031 C 32.574219 29.976562 32.769531 30.5625 33.160156 31.109375 C 32.75 31.675781 32.652344 32.222656 32.652344 32.652344 C 32.652344 33.316406 32.90625 33.765625 33.101562 34 C 32.183594 34.585938 31.96875 35.347656 31.96875 35.855469 C 31.96875 37.164062 33.667969 38.257812 35.855469 38.257812 C 38.042969 38.257812 39.761719 37.203125 39.761719 35.835938 C 39.761719 33.335938 36.851562 33.335938 36.128906 33.335938 L 34.605469 33.335938 C 34.351562 33.335938 33.570312 33.335938 33.570312 32.378906 C 33.570312 31.988281 33.648438 31.871094 33.765625 31.714844 C 34.058594 31.929688 34.644531 32.242188 35.367188 32.242188 C 36.910156 32.242188 38.179688 30.972656 38.179688 29.332031 C 38.179688 28.6875 37.945312 28.023438 37.574219 27.535156 Z M 35.386719 31.246094 C 34.605469 31.246094 33.804688 30.71875 33.804688 29.351562 C 33.804688 27.75 34.820312 27.4375 35.367188 27.4375 C 36.167969 27.4375 36.949219 27.964844 36.949219 29.332031 C 36.949219 30.933594 35.953125 31.246094 35.386719 31.246094 Z M 36.148438 34.625 C 36.539062 34.625 38.511719 34.625 38.511719 35.855469 C 38.511719 36.675781 37.28125 37.28125 35.875 37.28125 C 34.46875 37.28125 33.21875 36.714844 33.21875 35.835938 C 33.21875 35.796875 33.21875 34.625 34.585938 34.625 Z M 36.148438 34.625 "/>
<path style=" stroke:none;fill-rule:nonzero;fill:rgb(0%,0%,0%);fill-opacity:1;" d="M 52.667969 27.378906 C 53.039062 27.378906 53.175781 27.378906 53.175781 27.046875 C 53.175781 26.851562 53.039062 26.851562 52.707031 26.851562 L 51.261719 26.851562 C 51.59375 25.015625 51.847656 23.746094 52.003906 23.160156 C 52.101562 22.730469 52.472656 22.320312 52.941406 22.320312 C 53.3125 22.320312 53.703125 22.476562 53.878906 22.652344 C 53.175781 22.710938 52.960938 23.238281 52.960938 23.550781 C 52.960938 23.902344 53.234375 24.117188 53.566406 24.117188 C 53.9375 24.117188 54.464844 23.804688 54.464844 23.121094 C 54.464844 22.378906 53.722656 21.96875 52.921875 21.96875 C 52.160156 21.96875 51.398438 22.535156 51.046875 23.238281 C 50.714844 23.863281 50.539062 24.507812 50.128906 26.851562 L 48.9375 26.851562 C 48.585938 26.851562 48.410156 26.851562 48.410156 27.183594 C 48.410156 27.378906 48.507812 27.378906 48.878906 27.378906 L 50.03125 27.378906 C 49.699219 29.039062 48.957031 33.101562 48.546875 35.015625 C 48.253906 36.578125 47.980469 37.886719 47.082031 37.886719 C 47.023438 37.886719 46.515625 37.886719 46.183594 37.535156 C 47.101562 37.476562 47.101562 36.675781 47.101562 36.65625 C 47.101562 36.304688 46.828125 36.089844 46.496094 36.089844 C 46.125 36.089844 45.597656 36.402344 45.597656 37.085938 C 45.597656 37.847656 46.378906 38.238281 47.082031 38.238281 C 48.917969 38.238281 49.660156 34.957031 49.855469 34.058594 C 50.1875 32.691406 51.066406 27.925781 51.144531 27.378906 Z M 52.667969 27.378906 "/>
<path style=" stroke:none;fill-rule:nonzero;fill:rgb(0%,0%,0%);fill-opacity:1;" d="M 58.476562 22.21875 C 58.554688 22.0625 58.59375 21.964844 58.59375 21.828125 C 58.59375 21.476562 58.28125 21.164062 57.890625 21.164062 C 57.539062 21.164062 57.304688 21.398438 57.226562 21.730469 L 55.742188 27.179688 C 55.742188 27.199219 55.703125 27.335938 55.703125 27.355469 C 55.703125 27.492188 56.015625 27.570312 56.113281 27.570312 C 56.191406 27.570312 56.210938 27.53125 56.269531 27.375 Z M 58.476562 22.21875 "/>
<path style=" stroke:none;fill-rule:nonzero;fill:rgb(0%,0%,0%);fill-opacity:1;" d="M 65.050781 38.941406 C 65.050781 38.882812 65.050781 38.84375 64.757812 38.550781 C 62.960938 36.734375 61.964844 33.785156 61.964844 30.113281 C 61.964844 26.636719 62.804688 23.648438 64.875 21.539062 C 65.050781 21.363281 65.050781 21.34375 65.050781 21.285156 C 65.050781 21.167969 64.972656 21.148438 64.894531 21.148438 C 64.660156 21.148438 63.195312 22.4375 62.316406 24.195312 C 61.398438 25.992188 60.988281 27.925781 60.988281 30.113281 C 60.988281 31.714844 61.242188 33.84375 62.179688 35.777344 C 63.234375 37.925781 64.699219 39.078125 64.894531 39.078125 C 64.972656 39.078125 65.050781 39.058594 65.050781 38.941406 Z M 65.050781 38.941406 "/>
<path style=" stroke:none;fill-rule:nonzero;fill:rgb(0%,0%,0%);fill-opacity:1;" d="M 74.628906 27.261719 C 74.0625 27.378906 73.847656 27.808594 73.847656 28.140625 C 73.847656 28.570312 74.179688 28.726562 74.433594 28.726562 C 74.980469 28.726562 75.351562 28.257812 75.351562 27.769531 C 75.351562 27.027344 74.492188 26.675781 73.730469 26.675781 C 72.636719 26.675781 72.03125 27.75 71.875 28.101562 C 71.464844 26.753906 70.351562 26.675781 70.019531 26.675781 C 68.203125 26.675781 67.226562 29.019531 67.226562 29.429688 C 67.226562 29.488281 67.304688 29.585938 67.421875 29.585938 C 67.558594 29.585938 67.597656 29.46875 67.636719 29.410156 C 68.242188 27.417969 69.453125 27.046875 69.960938 27.046875 C 70.78125 27.046875 70.9375 27.789062 70.9375 28.21875 C 70.9375 28.609375 70.839844 29.019531 70.605469 29.878906 L 70 32.339844 C 69.746094 33.414062 69.21875 34.410156 68.261719 34.410156 C 68.183594 34.410156 67.734375 34.410156 67.34375 34.175781 C 67.988281 34.039062 68.144531 33.511719 68.144531 33.296875 C 68.144531 32.945312 67.871094 32.730469 67.539062 32.730469 C 67.109375 32.730469 66.640625 33.101562 66.640625 33.667969 C 66.640625 34.429688 67.480469 34.761719 68.242188 34.761719 C 69.101562 34.761719 69.726562 34.078125 70.097656 33.355469 C 70.390625 34.410156 71.269531 34.761719 71.933594 34.761719 C 73.769531 34.761719 74.746094 32.417969 74.746094 32.027344 C 74.746094 31.929688 74.667969 31.851562 74.550781 31.851562 C 74.394531 31.851562 74.375 31.949219 74.335938 32.085938 C 73.847656 33.667969 72.792969 34.410156 71.992188 34.410156 C 71.367188 34.410156 71.035156 33.941406 71.035156 33.199219 C 71.035156 32.808594 71.09375 32.515625 71.386719 31.34375 L 72.011719 28.902344 C 72.285156 27.828125 72.890625 27.046875 73.710938 27.046875 C 73.75 27.046875 74.257812 27.046875 74.628906 27.261719 Z M 74.628906 27.261719 "/>
<path style=" stroke:none;fill-rule:nonzero;fill:rgb(0%,0%,0%);fill-opacity:1;" d="M 81.238281 30.113281 C 81.238281 28.765625 81.0625 26.539062 80.046875 24.449219 C 78.992188 22.300781 77.527344 21.148438 77.332031 21.148438 C 77.253906 21.148438 77.15625 21.167969 77.15625 21.285156 C 77.15625 21.34375 77.15625 21.363281 77.46875 21.675781 C 79.265625 23.492188 80.261719 26.441406 80.261719 30.113281 C 80.261719 33.589844 79.421875 36.578125 77.351562 38.6875 C 77.15625 38.84375 77.15625 38.882812 77.15625 38.941406 C 77.15625 39.058594 77.253906 39.078125 77.332031 39.078125 C 77.566406 39.078125 79.03125 37.789062 79.910156 36.03125 C 80.828125 34.214844 81.238281 32.28125 81.238281 30.113281 Z M 81.238281 30.113281 "/>
<path style=" stroke:none;fill-rule:nonzero;fill:rgb(0%,0%,0%);fill-opacity:1;" d="M 90.496094 27.671875 L 92.976562 27.671875 L 92.976562 26.617188 L 90.496094 26.617188 L 90.496094 24.351562 L 89.265625 24.351562 L 89.265625 26.617188 L 87.761719 26.617188 L 87.761719 27.671875 L 89.226562 27.671875 L 89.226562 32.496094 C 89.226562 33.53125 89.460938 34.761719 90.691406 34.761719 C 91.902344 34.761719 92.722656 34.351562 93.269531 34.058594 L 92.996094 33.023438 C 92.371094 33.589844 91.707031 33.648438 91.394531 33.648438 C 90.59375 33.648438 90.496094 32.808594 90.496094 32.183594 Z M 90.496094 27.671875 "/>
<path style=" stroke:none;fill-rule:nonzero;fill:rgb(0%,0%,0%);fill-opacity:1;" d="M 101.953125 30.640625 C 101.953125 28.21875 100.175781 26.363281 98.125 26.363281 C 96.015625 26.363281 94.277344 28.257812 94.277344 30.640625 C 94.277344 32.984375 96.054688 34.761719 98.105469 34.761719 C 100.214844 34.761719 101.953125 32.945312 101.953125 30.640625 Z M 98.125 33.648438 C 96.835938 33.648438 95.625 32.574219 95.625 30.464844 C 95.625 28.296875 96.972656 27.4375 98.105469 27.4375 C 99.335938 27.4375 100.605469 28.355469 100.605469 30.464844 C 100.605469 32.671875 99.316406 33.648438 98.125 33.648438 Z M 98.125 33.648438 "/>
<path style=" stroke:none;fill-rule:nonzero;fill:rgb(0%,0%,0%);fill-opacity:1;" d="M 114.269531 32.652344 C 113.449219 33.316406 112.53125 33.648438 111.535156 33.648438 C 110.03125 33.648438 109.074219 32.320312 109.074219 30.582031 C 109.074219 29.097656 109.796875 27.476562 111.574219 27.476562 C 112.785156 27.476562 113.292969 27.75 114.054688 28.277344 L 114.269531 27.105469 C 113.234375 26.5 112.648438 26.363281 111.574219 26.363281 C 109.113281 26.363281 107.707031 28.550781 107.707031 30.582031 C 107.707031 32.886719 109.367188 34.761719 111.515625 34.761719 C 112.394531 34.761719 113.390625 34.546875 114.386719 33.824219 C 114.386719 33.785156 114.328125 33.21875 114.308594 33.160156 Z M 114.269531 32.652344 "/>
<path style=" stroke:none;fill-rule:nonzero;fill:rgb(0%,0%,0%);fill-opacity:1;" d="M 117.617188 22.144531 L 116.289062 22.144531 L 116.289062 34.585938 L 117.617188 34.585938 Z M 117.617188 22.144531 "/>
<path style=" stroke:none;fill-rule:nonzero;fill:rgb(0%,0%,0%);fill-opacity:1;" d="M 126.09375 29.332031 C 126.09375 27.613281 124.863281 26.363281 123.183594 26.363281 C 122.109375 26.363281 121.308594 26.597656 120.429688 27.105469 L 120.527344 28.296875 C 121.328125 27.710938 122.148438 27.398438 123.183594 27.398438 C 124.003906 27.398438 124.726562 28.0625 124.726562 29.371094 L 124.726562 30.113281 C 123.925781 30.132812 122.851562 30.191406 121.777344 30.542969 C 120.566406 30.972656 119.863281 31.636719 119.863281 32.515625 C 119.863281 33.316406 120.332031 34.761719 121.855469 34.761719 C 122.851562 34.761719 124.101562 34.46875 124.765625 33.921875 L 124.765625 34.585938 L 126.09375 34.585938 Z M 124.726562 32.183594 C 124.726562 32.535156 124.726562 32.964844 124.140625 33.335938 C 123.652344 33.628906 123.046875 33.6875 122.773438 33.6875 C 121.816406 33.6875 121.152344 33.160156 121.152344 32.515625 C 121.152344 31.285156 123.632812 31.011719 124.726562 31.011719 Z M 124.726562 32.183594 "/>
<path style=" stroke:none;fill-rule:nonzero;fill:rgb(0%,0%,0%);fill-opacity:1;" d="M 133.496094 26.910156 C 132.363281 26.382812 131.386719 26.363281 130.976562 26.363281 C 130.566406 26.363281 128.066406 26.363281 128.066406 28.6875 C 128.066406 29.46875 128.496094 30.015625 128.769531 30.269531 C 129.414062 30.816406 129.863281 30.914062 130.917969 31.128906 C 131.523438 31.246094 132.558594 31.460938 132.558594 32.417969 C 132.558594 33.648438 131.152344 33.648438 130.898438 33.648438 C 130.195312 33.648438 129.140625 33.453125 128.183594 32.75 L 127.96875 33.980469 C 128.046875 34.039062 129.277344 34.761719 130.917969 34.761719 C 133.242188 34.761719 133.789062 33.375 133.789062 32.300781 C 133.789062 31.402344 133.242188 30.816406 133.164062 30.738281 C 132.5 30.054688 131.953125 29.9375 130.878906 29.722656 C 130.214844 29.605469 129.316406 29.429688 129.316406 28.53125 C 129.316406 27.417969 130.566406 27.417969 130.800781 27.417969 C 131.738281 27.417969 132.5 27.632812 133.28125 28.082031 Z M 133.496094 26.910156 "/>
<path style=" stroke:none;fill-rule:nonzero;fill:rgb(0%,0%,0%);fill-opacity:1;" d="M 140.246094 26.910156 C 139.113281 26.382812 138.136719 26.363281 137.726562 26.363281 C 137.316406 26.363281 134.816406 26.363281 134.816406 28.6875 C 134.816406 29.46875 135.246094 30.015625 135.519531 30.269531 C 136.164062 30.816406 136.613281 30.914062 137.667969 31.128906 C 138.273438 31.246094 139.308594 31.460938 139.308594 32.417969 C 139.308594 33.648438 137.902344 33.648438 137.648438 33.648438 C 136.945312 33.648438 135.890625 33.453125 134.933594 32.75 L 134.71875 33.980469 C 134.796875 34.039062 136.027344 34.761719 137.667969 34.761719 C 139.992188 34.761719 140.539062 33.375 140.539062 32.300781 C 140.539062 31.402344 139.992188 30.816406 139.914062 30.738281 C 139.25 30.054688 138.703125 29.9375 137.628906 29.722656 C 136.964844 29.605469 136.066406 29.429688 136.066406 28.53125 C 136.066406 27.417969 137.316406 27.417969 137.550781 27.417969 C 138.488281 27.417969 139.25 27.632812 140.03125 28.082031 Z M 140.246094 26.910156 "/>
<path style=" stroke:none;fill-rule:nonzero;fill:rgb(0%,0%,0%);fill-opacity:1;" d="M 143.8125 22.417969 L 142.269531 22.417969 L 142.269531 23.960938 L 143.8125 23.960938 Z M 143.714844 26.617188 L 142.386719 26.617188 L 142.386719 34.585938 L 143.714844 34.585938 Z M 143.714844 26.617188 "/>
<path style=" stroke:none;fill-rule:nonzero;fill:rgb(0%,0%,0%);fill-opacity:1;" d="M 148.285156 27.671875 L 150.199219 27.671875 L 150.199219 26.617188 L 148.246094 26.617188 L 148.246094 24.46875 C 148.246094 23.257812 149.261719 23.042969 149.867188 23.042969 C 150.492188 23.042969 151.039062 23.238281 151.253906 23.316406 L 151.253906 22.144531 C 151.136719 22.105469 150.53125 21.96875 149.886719 21.96875 C 148.167969 21.96875 146.957031 23.277344 146.957031 25.015625 L 146.957031 26.617188 L 145.648438 26.617188 L 145.648438 27.671875 L 146.957031 27.671875 L 146.957031 34.585938 L 148.285156 34.585938 Z M 148.285156 27.671875 "/>
<path style=" stroke:none;fill-rule:nonzero;fill:rgb(0%,0%,0%);fill-opacity:1;" d="M 158.335938 26.617188 L 157.007812 26.617188 C 156.167969 28.746094 154.800781 32.261719 154.722656 33.550781 L 154.703125 33.550781 C 154.625 32.496094 153.667969 30.113281 153.53125 29.761719 L 152.242188 26.617188 L 150.835938 26.617188 L 154.175781 34.585938 L 153.53125 36.226562 C 153.140625 37.105469 152.886719 37.203125 152.554688 37.203125 C 152.300781 37.203125 151.734375 37.144531 151.167969 36.929688 L 151.285156 38.101562 C 151.382812 38.121094 151.988281 38.238281 152.554688 38.238281 C 152.984375 38.238281 153.824219 38.238281 154.605469 36.265625 Z M 158.335938 26.617188 "/>
<path style=" stroke:none;fill-rule:nonzero;fill:rgb(0%,0%,0%);fill-opacity:1;" d="M 165.984375 27.671875 L 167.898438 27.671875 L 167.898438 26.617188 L 165.945312 26.617188 L 165.945312 24.46875 C 165.945312 23.257812 166.960938 23.042969 167.566406 23.042969 C 168.191406 23.042969 168.738281 23.238281 168.953125 23.316406 L 168.953125 22.144531 C 168.835938 22.105469 168.230469 21.96875 167.585938 21.96875 C 165.867188 21.96875 164.65625 23.277344 164.65625 25.015625 L 164.65625 26.617188 L 163.347656 26.617188 L 163.347656 27.671875 L 164.65625 27.671875 L 164.65625 34.585938 L 165.984375 34.585938 Z M 165.984375 27.671875 "/>
<path style=" stroke:none;fill-rule:nonzero;fill:rgb(0%,0%,0%);fill-opacity:1;" d="M 175.878906 26.617188 L 174.511719 26.617188 L 174.511719 31.753906 C 174.511719 33.121094 173.574219 33.785156 172.402344 33.785156 C 171.152344 33.785156 171.015625 33.316406 171.015625 32.515625 L 171.015625 26.617188 L 169.667969 26.617188 L 169.667969 32.59375 C 169.667969 33.882812 170.078125 34.761719 171.542969 34.761719 C 172.050781 34.761719 173.457031 34.683594 174.550781 33.6875 L 174.550781 34.585938 L 175.878906 34.585938 Z M 175.878906 26.617188 "/>
<path style=" stroke:none;fill-rule:nonzero;fill:rgb(0%,0%,0%);fill-opacity:1;" d="M 184.878906 29.195312 C 184.878906 28.101562 184.644531 26.441406 182.476562 26.441406 C 181.480469 26.441406 180.621094 26.890625 179.9375 27.75 L 179.9375 26.539062 L 178.667969 26.539062 L 178.667969 34.585938 L 180.015625 34.585938 L 180.015625 30.113281 C 180.015625 29.019531 180.445312 27.515625 181.792969 27.515625 C 183.472656 27.515625 183.511719 28.6875 183.511719 29.3125 L 183.511719 34.585938 L 184.878906 34.585938 Z M 184.878906 29.195312 "/>
<path style=" stroke:none;fill-rule:nonzero;fill:rgb(0%,0%,0%);fill-opacity:1;" d="M 193.46875 32.652344 C 192.648438 33.316406 191.730469 33.648438 190.734375 33.648438 C 189.230469 33.648438 188.273438 32.320312 188.273438 30.582031 C 188.273438 29.097656 188.996094 27.476562 190.773438 27.476562 C 191.984375 27.476562 192.492188 27.75 193.253906 28.277344 L 193.46875 27.105469 C 192.433594 26.5 191.847656 26.363281 190.773438 26.363281 C 188.3125 26.363281 186.90625 28.550781 186.90625 30.582031 C 186.90625 32.886719 188.566406 34.761719 190.714844 34.761719 C 191.59375 34.761719 192.589844 34.546875 193.585938 33.824219 C 193.585938 33.785156 193.527344 33.21875 193.507812 33.160156 Z M 193.46875 32.652344 "/>
<path style=" stroke:none;fill-rule:nonzero;fill:rgb(0%,0%,0%);fill-opacity:1;" d="M 197.148438 27.671875 L 199.628906 27.671875 L 199.628906 26.617188 L 197.148438 26.617188 L 197.148438 24.351562 L 195.917969 24.351562 L 195.917969 26.617188 L 194.414062 26.617188 L 194.414062 27.671875 L 195.878906 27.671875 L 195.878906 32.496094 C 195.878906 33.53125 196.113281 34.761719 197.34375 34.761719 C 198.554688 34.761719 199.375 34.351562 199.921875 34.058594 L 199.648438 33.023438 C 199.023438 33.589844 198.359375 33.648438 198.046875 33.648438 C 197.246094 33.648438 197.148438 32.808594 197.148438 32.183594 Z M 197.148438 27.671875 "/>
<path style=" stroke:none;fill-rule:nonzero;fill:rgb(0%,0%,0%);fill-opacity:1;" d="M 203.210938 22.417969 L 201.667969 22.417969 L 201.667969 23.960938 L 203.210938 23.960938 Z M 203.113281 26.617188 L 201.785156 26.617188 L 201.785156 34.585938 L 203.113281 34.585938 Z M 203.113281 26.617188 "/>
<path style=" stroke:none;fill-rule:nonzero;fill:rgb(0%,0%,0%);fill-opacity:1;" d="M 212.804688 30.640625 C 212.804688 28.21875 211.027344 26.363281 208.976562 26.363281 C 206.867188 26.363281 205.128906 28.257812 205.128906 30.640625 C 205.128906 32.984375 206.90625 34.761719 208.957031 34.761719 C 211.066406 34.761719 212.804688 32.945312 212.804688 30.640625 Z M 208.976562 33.648438 C 207.6875 33.648438 206.476562 32.574219 206.476562 30.464844 C 206.476562 28.296875 207.824219 27.4375 208.957031 27.4375 C 210.1875 27.4375 211.457031 28.355469 211.457031 30.464844 C 211.457031 32.671875 210.167969 33.648438 208.976562 33.648438 Z M 208.976562 33.648438 "/>
<path style=" stroke:none;fill-rule:nonzero;fill:rgb(0%,0%,0%);fill-opacity:1;" d="M 221.027344 29.195312 C 221.027344 28.101562 220.792969 26.441406 218.625 26.441406 C 217.628906 26.441406 216.769531 26.890625 216.085938 27.75 L 216.085938 26.539062 L 214.816406 26.539062 L 214.816406 34.585938 L 216.164062 34.585938 L 216.164062 30.113281 C 216.164062 29.019531 216.59375 27.515625 217.941406 27.515625 C 219.621094 27.515625 219.660156 28.6875 219.660156 29.3125 L 219.660156 34.585938 L 221.027344 34.585938 Z M 221.027344 29.195312 "/>
<path style=" stroke:none;fill-rule:nonzero;fill:rgb(0%,0%,0%);fill-opacity:1;" d="M 228.445312 26.910156 C 227.3125 26.382812 226.335938 26.363281 225.925781 26.363281 C 225.515625 26.363281 223.015625 26.363281 223.015625 28.6875 C 223.015625 29.46875 223.445312 30.015625 223.71875 30.269531 C 224.363281 30.816406 224.8125 30.914062 225.867188 31.128906 C 226.472656 31.246094 227.507812 31.460938 227.507812 32.417969 C 227.507812 33.648438 226.101562 33.648438 225.847656 33.648438 C 225.144531 33.648438 224.089844 33.453125 223.132812 32.75 L 222.917969 33.980469 C 222.996094 34.039062 224.226562 34.761719 225.867188 34.761719 C 228.191406 34.761719 228.738281 33.375 228.738281 32.300781 C 228.738281 31.402344 228.191406 30.816406 228.113281 30.738281 C 227.449219 30.054688 226.902344 29.9375 225.828125 29.722656 C 225.164062 29.605469 224.265625 29.429688 224.265625 28.53125 C 224.265625 27.417969 225.515625 27.417969 225.75 27.417969 C 226.6875 27.417969 227.449219 27.632812 228.230469 28.082031 Z M 228.445312 26.910156 "/>
<path style=" stroke:none;fill-rule:nonzero;fill:rgb(0%,0%,0%);fill-opacity:1;" d="M 240.542969 29.332031 C 240.542969 27.613281 239.3125 26.363281 237.632812 26.363281 C 236.558594 26.363281 235.757812 26.597656 234.878906 27.105469 L 234.976562 28.296875 C 235.777344 27.710938 236.597656 27.398438 237.632812 27.398438 C 238.453125 27.398438 239.175781 28.0625 239.175781 29.371094 L 239.175781 30.113281 C 238.375 30.132812 237.300781 30.191406 236.226562 30.542969 C 235.015625 30.972656 234.3125 31.636719 234.3125 32.515625 C 234.3125 33.316406 234.78125 34.761719 236.304688 34.761719 C 237.300781 34.761719 238.550781 34.46875 239.214844 33.921875 L 239.214844 34.585938 L 240.542969 34.585938 Z M 239.175781 32.183594 C 239.175781 32.535156 239.175781 32.964844 238.589844 33.335938 C 238.101562 33.628906 237.496094 33.6875 237.222656 33.6875 C 236.265625 33.6875 235.601562 33.160156 235.601562 32.515625 C 235.601562 31.285156 238.082031 31.011719 239.175781 31.011719 Z M 239.175781 32.183594 "/>
<path style=" stroke:none;fill-rule:nonzero;fill:rgb(0%,0%,0%);fill-opacity:1;" d="M 247.945312 26.910156 C 246.8125 26.382812 245.835938 26.363281 245.425781 26.363281 C 245.015625 26.363281 242.515625 26.363281 242.515625 28.6875 C 242.515625 29.46875 242.945312 30.015625 243.21875 30.269531 C 243.863281 30.816406 244.3125 30.914062 245.367188 31.128906 C 245.972656 31.246094 247.007812 31.460938 247.007812 32.417969 C 247.007812 33.648438 245.601562 33.648438 245.347656 33.648438 C 244.644531 33.648438 243.589844 33.453125 242.632812 32.75 L 242.417969 33.980469 C 242.496094 34.039062 243.726562 34.761719 245.367188 34.761719 C 247.691406 34.761719 248.238281 33.375 248.238281 32.300781 C 248.238281 31.402344 247.691406 30.816406 247.613281 30.738281 C 246.949219 30.054688 246.402344 29.9375 245.328125 29.722656 C 244.664062 29.605469 243.765625 29.429688 243.765625 28.53125 C 243.765625 27.417969 245.015625 27.417969 245.25 27.417969 C 246.1875 27.417969 246.949219 27.632812 247.730469 28.082031 Z M 247.945312 26.910156 "/>
<path style=" stroke:none;fill-rule:nonzero;fill:rgb(0%,0%,0%);fill-opacity:1;" d="M 2.363281 43.71875 L 0.820312 43.71875 L 0.820312 45.261719 L 2.363281 45.261719 Z M 2.265625 47.917969 L 0.9375 47.917969 L 0.9375 55.886719 L 2.265625 55.886719 Z M 2.265625 47.917969 "/>
<path style=" stroke:none;fill-rule:nonzero;fill:rgb(0%,0%,0%);fill-opacity:1;" d="M 11.328125 50.496094 C 11.328125 49.402344 11.09375 47.742188 8.925781 47.742188 C 7.929688 47.742188 7.070312 48.191406 6.386719 49.050781 L 6.386719 47.839844 L 5.117188 47.839844 L 5.117188 55.886719 L 6.464844 55.886719 L 6.464844 51.414062 C 6.464844 50.320312 6.894531 48.816406 8.242188 48.816406 C 9.921875 48.816406 9.960938 49.988281 9.960938 50.613281 L 9.960938 55.886719 L 11.328125 55.886719 Z M 11.328125 50.496094 "/>
<path style=" stroke:none;fill-rule:nonzero;fill:rgb(0%,0%,0%);fill-opacity:1;" d="M 19.917969 53.953125 C 19.097656 54.617188 18.179688 54.949219 17.183594 54.949219 C 15.679688 54.949219 14.722656 53.621094 14.722656 51.882812 C 14.722656 50.398438 15.445312 48.777344 17.222656 48.777344 C 18.433594 48.777344 18.941406 49.050781 19.703125 49.578125 L 19.917969 48.40625 C 18.882812 47.800781 18.296875 47.664062 17.222656 47.664062 C 14.761719 47.664062 13.355469 49.851562 13.355469 51.882812 C 13.355469 54.1875 15.015625 56.0625 17.164062 56.0625 C 18.042969 56.0625 19.039062 55.847656 20.035156 55.125 C 20.035156 55.085938 19.976562 54.519531 19.957031 54.460938 Z M 19.917969 53.953125 "/>
<path style=" stroke:none;fill-rule:nonzero;fill:rgb(0%,0%,0%);fill-opacity:1;" d="M 23.265625 51.960938 C 23.265625 50.144531 24.613281 48.972656 26.234375 48.953125 L 26.234375 47.742188 C 24.59375 47.761719 23.65625 48.71875 23.167969 49.421875 L 23.167969 47.839844 L 21.9375 47.839844 L 21.9375 55.886719 L 23.265625 55.886719 Z M 23.265625 51.960938 "/>
<path style=" stroke:none;fill-rule:nonzero;fill:rgb(0%,0%,0%);fill-opacity:1;" d="M 33.835938 51.84375 C 33.835938 51.082031 33.757812 49.988281 33.191406 49.03125 C 32.449219 47.800781 31.199219 47.664062 30.671875 47.664062 C 28.738281 47.664062 27.117188 49.519531 27.117188 51.84375 C 27.117188 54.226562 28.835938 56.0625 30.925781 56.0625 C 31.746094 56.0625 32.742188 55.828125 33.71875 55.125 C 33.71875 55.046875 33.660156 54.480469 33.660156 54.460938 C 33.640625 54.441406 33.621094 54.03125 33.621094 53.972656 C 32.546875 54.871094 31.492188 54.988281 30.964844 54.988281 C 29.578125 54.988281 28.386719 53.757812 28.367188 51.84375 Z M 28.464844 50.886719 C 28.777344 49.675781 29.617188 48.738281 30.671875 48.738281 C 31.238281 48.738281 32.46875 48.992188 32.761719 50.886719 Z M 28.464844 50.886719 "/>
<path style=" stroke:none;fill-rule:nonzero;fill:rgb(0%,0%,0%);fill-opacity:1;" d="M 41.34375 50.632812 C 41.34375 48.914062 40.113281 47.664062 38.433594 47.664062 C 37.359375 47.664062 36.558594 47.898438 35.679688 48.40625 L 35.777344 49.597656 C 36.578125 49.011719 37.398438 48.699219 38.433594 48.699219 C 39.253906 48.699219 39.976562 49.363281 39.976562 50.671875 L 39.976562 51.414062 C 39.175781 51.433594 38.101562 51.492188 37.027344 51.84375 C 35.816406 52.273438 35.113281 52.9375 35.113281 53.816406 C 35.113281 54.617188 35.582031 56.0625 37.105469 56.0625 C 38.101562 56.0625 39.351562 55.769531 40.015625 55.222656 L 40.015625 55.886719 L 41.34375 55.886719 Z M 39.976562 53.484375 C 39.976562 53.835938 39.976562 54.265625 39.390625 54.636719 C 38.902344 54.929688 38.296875 54.988281 38.023438 54.988281 C 37.066406 54.988281 36.402344 54.460938 36.402344 53.816406 C 36.402344 52.585938 38.882812 52.3125 39.976562 52.3125 Z M 39.976562 53.484375 "/>
<path style=" stroke:none;fill-rule:nonzero;fill:rgb(0%,0%,0%);fill-opacity:1;" d="M 48.746094 48.210938 C 47.613281 47.683594 46.636719 47.664062 46.226562 47.664062 C 45.816406 47.664062 43.316406 47.664062 43.316406 49.988281 C 43.316406 50.769531 43.746094 51.316406 44.019531 51.570312 C 44.664062 52.117188 45.113281 52.214844 46.167969 52.429688 C 46.773438 52.546875 47.808594 52.761719 47.808594 53.71875 C 47.808594 54.949219 46.402344 54.949219 46.148438 54.949219 C 45.445312 54.949219 44.390625 54.753906 43.433594 54.050781 L 43.21875 55.28125 C 43.296875 55.339844 44.527344 56.0625 46.167969 56.0625 C 48.492188 56.0625 49.039062 54.675781 49.039062 53.601562 C 49.039062 52.703125 48.492188 52.117188 48.414062 52.039062 C 47.75 51.355469 47.203125 51.238281 46.128906 51.023438 C 45.464844 50.90625 44.566406 50.730469 44.566406 49.832031 C 44.566406 48.71875 45.816406 48.71875 46.050781 48.71875 C 46.988281 48.71875 47.75 48.933594 48.53125 49.382812 Z M 48.746094 48.210938 "/>
<path style=" stroke:none;fill-rule:nonzero;fill:rgb(0%,0%,0%);fill-opacity:1;" d="M 52.3125 43.71875 L 50.769531 43.71875 L 50.769531 45.261719 L 52.3125 45.261719 Z M 52.214844 47.917969 L 50.886719 47.917969 L 50.886719 55.886719 L 52.214844 55.886719 Z M 52.214844 47.917969 "/>
<path style=" stroke:none;fill-rule:nonzero;fill:rgb(0%,0%,0%);fill-opacity:1;" d="M 61.277344 50.496094 C 61.277344 49.402344 61.042969 47.742188 58.875 47.742188 C 57.878906 47.742188 57.019531 48.191406 56.335938 49.050781 L 56.335938 47.839844 L 55.066406 47.839844 L 55.066406 55.886719 L 56.414062 55.886719 L 56.414062 51.414062 C 56.414062 50.320312 56.84375 48.816406 58.191406 48.816406 C 59.871094 48.816406 59.910156 49.988281 59.910156 50.613281 L 59.910156 55.886719 L 61.277344 55.886719 Z M 61.277344 50.496094 "/>
<path style=" stroke:none;fill-rule:nonzero;fill:rgb(0%,0%,0%);fill-opacity:1;" d="M 68.792969 48.816406 C 68.792969 48.816406 68.832031 48.855469 68.851562 48.894531 C 69.222656 48.855469 69.613281 48.796875 70.277344 48.796875 C 70.335938 48.796875 70.746094 48.796875 71.195312 48.835938 L 71 47.742188 C 70.667969 47.742188 69.4375 47.761719 68.246094 48.347656 C 67.660156 47.839844 66.9375 47.742188 66.585938 47.742188 C 65.023438 47.742188 63.773438 49.050781 63.773438 50.632812 C 63.773438 51.277344 63.96875 51.863281 64.359375 52.410156 C 63.949219 52.976562 63.851562 53.523438 63.851562 53.953125 C 63.851562 54.617188 64.105469 55.066406 64.300781 55.300781 C 63.382812 55.886719 63.167969 56.648438 63.167969 57.15625 C 63.167969 58.464844 64.867188 59.558594 67.054688 59.558594 C 69.242188 59.558594 70.960938 58.503906 70.960938 57.136719 C 70.960938 54.636719 68.050781 54.636719 67.328125 54.636719 L 65.804688 54.636719 C 65.550781 54.636719 64.769531 54.636719 64.769531 53.679688 C 64.769531 53.289062 64.847656 53.171875 64.964844 53.015625 C 65.257812 53.230469 65.84375 53.542969 66.566406 53.542969 C 68.109375 53.542969 69.378906 52.273438 69.378906 50.632812 C 69.378906 49.988281 69.144531 49.324219 68.773438 48.835938 Z M 66.585938 52.546875 C 65.804688 52.546875 65.003906 52.019531 65.003906 50.652344 C 65.003906 49.050781 66.019531 48.738281 66.566406 48.738281 C 67.367188 48.738281 68.148438 49.265625 68.148438 50.632812 C 68.148438 52.234375 67.152344 52.546875 66.585938 52.546875 Z M 67.347656 55.925781 C 67.738281 55.925781 69.710938 55.925781 69.710938 57.15625 C 69.710938 57.976562 68.480469 58.582031 67.074219 58.582031 C 65.667969 58.582031 64.417969 58.015625 64.417969 57.136719 C 64.417969 57.097656 64.417969 55.925781 65.785156 55.925781 Z M 67.347656 55.925781 "/>
<path style=" stroke:none;fill-rule:nonzero;fill:rgb(0%,0%,0%);fill-opacity:1;" d="M 79.246094 43.09375 C 79.324219 42.859375 79.324219 42.820312 79.324219 42.78125 C 79.324219 42.546875 79.148438 42.449219 79.011719 42.449219 C 78.777344 42.449219 78.71875 42.605469 78.640625 42.839844 L 72.585938 59.714844 C 72.507812 59.949219 72.507812 59.988281 72.507812 60.027344 C 72.507812 60.222656 72.644531 60.359375 72.839844 60.359375 C 73.074219 60.359375 73.132812 60.183594 73.191406 59.988281 Z M 79.246094 43.09375 "/>
<path style=" stroke:none;fill-rule:nonzero;fill:rgb(0%,0%,0%);fill-opacity:1;" d="M 87.960938 43.445312 L 86.632812 43.445312 L 86.632812 48.679688 C 85.8125 47.996094 84.875 47.742188 84.113281 47.742188 C 82.414062 47.742188 81.007812 49.578125 81.007812 51.902344 C 81.007812 54.226562 82.335938 56.0625 84.035156 56.0625 C 84.699219 56.0625 85.714844 55.847656 86.613281 54.96875 L 86.613281 55.886719 L 87.960938 55.886719 Z M 86.613281 53.777344 C 86.183594 54.539062 85.539062 54.988281 84.757812 54.988281 C 83.664062 54.988281 82.375 54.148438 82.375 51.921875 C 82.375 49.539062 83.898438 48.816406 84.933594 48.816406 C 85.636719 48.816406 86.203125 49.1875 86.613281 49.773438 Z M 86.613281 53.777344 "/>
<path style=" stroke:none;fill-rule:nonzero;fill:rgb(0%,0%,0%);fill-opacity:1;" d="M 96.6875 51.84375 C 96.6875 51.082031 96.609375 49.988281 96.042969 49.03125 C 95.300781 47.800781 94.050781 47.664062 93.523438 47.664062 C 91.589844 47.664062 89.96875 49.519531 89.96875 51.84375 C 89.96875 54.226562 91.6875 56.0625 93.777344 56.0625 C 94.597656 56.0625 95.59375 55.828125 96.570312 55.125 C 96.570312 55.046875 96.511719 54.480469 96.511719 54.460938 C 96.492188 54.441406 96.472656 54.03125 96.472656 53.972656 C 95.398438 54.871094 94.34375 54.988281 93.816406 54.988281 C 92.429688 54.988281 91.238281 53.757812 91.21875 51.84375 Z M 91.316406 50.886719 C 91.628906 49.675781 92.46875 48.738281 93.523438 48.738281 C 94.089844 48.738281 95.320312 48.992188 95.613281 50.886719 Z M 91.316406 50.886719 "/>
<path style=" stroke:none;fill-rule:nonzero;fill:rgb(0%,0%,0%);fill-opacity:1;" d="M 104.367188 53.953125 C 103.546875 54.617188 102.628906 54.949219 101.632812 54.949219 C 100.128906 54.949219 99.171875 53.621094 99.171875 51.882812 C 99.171875 50.398438 99.894531 48.777344 101.671875 48.777344 C 102.882812 48.777344 103.390625 49.050781 104.152344 49.578125 L 104.367188 48.40625 C 103.332031 47.800781 102.746094 47.664062 101.671875 47.664062 C 99.210938 47.664062 97.804688 49.851562 97.804688 51.882812 C 97.804688 54.1875 99.464844 56.0625 101.613281 56.0625 C 102.492188 56.0625 103.488281 55.847656 104.484375 55.125 C 104.484375 55.085938 104.425781 54.519531 104.40625 54.460938 Z M 104.367188 53.953125 "/>
<path style=" stroke:none;fill-rule:nonzero;fill:rgb(0%,0%,0%);fill-opacity:1;" d="M 107.714844 51.960938 C 107.714844 50.144531 109.0625 48.972656 110.683594 48.953125 L 110.683594 47.742188 C 109.042969 47.761719 108.105469 48.71875 107.617188 49.421875 L 107.617188 47.839844 L 106.386719 47.839844 L 106.386719 55.886719 L 107.714844 55.886719 Z M 107.714844 51.960938 "/>
<path style=" stroke:none;fill-rule:nonzero;fill:rgb(0%,0%,0%);fill-opacity:1;" d="M 118.285156 51.84375 C 118.285156 51.082031 118.207031 49.988281 117.640625 49.03125 C 116.898438 47.800781 115.648438 47.664062 115.121094 47.664062 C 113.1875 47.664062 111.566406 49.519531 111.566406 51.84375 C 111.566406 54.226562 113.285156 56.0625 115.375 56.0625 C 116.195312 56.0625 117.191406 55.828125 118.167969 55.125 C 118.167969 55.046875 118.109375 54.480469 118.109375 54.460938 C 118.089844 54.441406 118.070312 54.03125 118.070312 53.972656 C 116.996094 54.871094 115.941406 54.988281 115.414062 54.988281 C 114.027344 54.988281 112.835938 53.757812 112.816406 51.84375 Z M 112.914062 50.886719 C 113.226562 49.675781 114.066406 48.738281 115.121094 48.738281 C 115.6875 48.738281 116.917969 48.992188 117.210938 50.886719 Z M 112.914062 50.886719 "/>
<path style=" stroke:none;fill-rule:nonzero;fill:rgb(0%,0%,0%);fill-opacity:1;" d="M 125.792969 50.632812 C 125.792969 48.914062 124.5625 47.664062 122.882812 47.664062 C 121.808594 47.664062 121.007812 47.898438 120.128906 48.40625 L 120.226562 49.597656 C 121.027344 49.011719 121.847656 48.699219 122.882812 48.699219 C 123.703125 48.699219 124.425781 49.363281 124.425781 50.671875 L 124.425781 51.414062 C 123.625 51.433594 122.550781 51.492188 121.476562 51.84375 C 120.265625 52.273438 119.5625 52.9375 119.5625 53.816406 C 119.5625 54.617188 120.03125 56.0625 121.554688 56.0625 C 122.550781 56.0625 123.800781 55.769531 124.464844 55.222656 L 124.464844 55.886719 L 125.792969 55.886719 Z M 124.425781 53.484375 C 124.425781 53.835938 124.425781 54.265625 123.839844 54.636719 C 123.351562 54.929688 122.746094 54.988281 122.472656 54.988281 C 121.515625 54.988281 120.851562 54.460938 120.851562 53.816406 C 120.851562 52.585938 123.332031 52.3125 124.425781 52.3125 Z M 124.425781 53.484375 "/>
<path style=" stroke:none;fill-rule:nonzero;fill:rgb(0%,0%,0%);fill-opacity:1;" d="M 133.195312 48.210938 C 132.0625 47.683594 131.085938 47.664062 130.675781 47.664062 C 130.265625 47.664062 127.765625 47.664062 127.765625 49.988281 C 127.765625 50.769531 128.195312 51.316406 128.46875 51.570312 C 129.113281 52.117188 129.5625 52.214844 130.617188 52.429688 C 131.222656 52.546875 132.257812 52.761719 132.257812 53.71875 C 132.257812 54.949219 130.851562 54.949219 130.597656 54.949219 C 129.894531 54.949219 128.839844 54.753906 127.882812 54.050781 L 127.667969 55.28125 C 127.746094 55.339844 128.976562 56.0625 130.617188 56.0625 C 132.941406 56.0625 133.488281 54.675781 133.488281 53.601562 C 133.488281 52.703125 132.941406 52.117188 132.863281 52.039062 C 132.199219 51.355469 131.652344 51.238281 130.578125 51.023438 C 129.914062 50.90625 129.015625 50.730469 129.015625 49.832031 C 129.015625 48.71875 130.265625 48.71875 130.5 48.71875 C 131.4375 48.71875 132.199219 48.933594 132.980469 49.382812 Z M 133.195312 48.210938 "/>
<path style=" stroke:none;fill-rule:nonzero;fill:rgb(0%,0%,0%);fill-opacity:1;" d="M 136.761719 43.71875 L 135.21875 43.71875 L 135.21875 45.261719 L 136.761719 45.261719 Z M 136.664062 47.917969 L 135.335938 47.917969 L 135.335938 55.886719 L 136.664062 55.886719 Z M 136.664062 47.917969 "/>
<path style=" stroke:none;fill-rule:nonzero;fill:rgb(0%,0%,0%);fill-opacity:1;" d="M 145.726562 50.496094 C 145.726562 49.402344 145.492188 47.742188 143.324219 47.742188 C 142.328125 47.742188 141.46875 48.191406 140.785156 49.050781 L 140.785156 47.839844 L 139.515625 47.839844 L 139.515625 55.886719 L 140.863281 55.886719 L 140.863281 51.414062 C 140.863281 50.320312 141.292969 48.816406 142.640625 48.816406 C 144.320312 48.816406 144.359375 49.988281 144.359375 50.613281 L 144.359375 55.886719 L 145.726562 55.886719 Z M 145.726562 50.496094 "/>
<path style=" stroke:none;fill-rule:nonzero;fill:rgb(0%,0%,0%);fill-opacity:1;" d="M 153.242188 48.816406 C 153.242188 48.816406 153.28125 48.855469 153.300781 48.894531 C 153.671875 48.855469 154.0625 48.796875 154.726562 48.796875 C 154.785156 48.796875 155.195312 48.796875 155.644531 48.835938 L 155.449219 47.742188 C 155.117188 47.742188 153.886719 47.761719 152.695312 48.347656 C 152.109375 47.839844 151.386719 47.742188 151.035156 47.742188 C 149.472656 47.742188 148.222656 49.050781 148.222656 50.632812 C 148.222656 51.277344 148.417969 51.863281 148.808594 52.410156 C 148.398438 52.976562 148.300781 53.523438 148.300781 53.953125 C 148.300781 54.617188 148.554688 55.066406 148.75 55.300781 C 147.832031 55.886719 147.617188 56.648438 147.617188 57.15625 C 147.617188 58.464844 149.316406 59.558594 151.503906 59.558594 C 153.691406 59.558594 155.410156 58.503906 155.410156 57.136719 C 155.410156 54.636719 152.5 54.636719 151.777344 54.636719 L 150.253906 54.636719 C 150 54.636719 149.21875 54.636719 149.21875 53.679688 C 149.21875 53.289062 149.296875 53.171875 149.414062 53.015625 C 149.707031 53.230469 150.292969 53.542969 151.015625 53.542969 C 152.558594 53.542969 153.828125 52.273438 153.828125 50.632812 C 153.828125 49.988281 153.59375 49.324219 153.222656 48.835938 Z M 151.035156 52.546875 C 150.253906 52.546875 149.453125 52.019531 149.453125 50.652344 C 149.453125 49.050781 150.46875 48.738281 151.015625 48.738281 C 151.816406 48.738281 152.597656 49.265625 152.597656 50.632812 C 152.597656 52.234375 151.601562 52.546875 151.035156 52.546875 Z M 151.796875 55.925781 C 152.1875 55.925781 154.160156 55.925781 154.160156 57.15625 C 154.160156 57.976562 152.929688 58.582031 151.523438 58.582031 C 150.117188 58.582031 148.867188 58.015625 148.867188 57.136719 C 148.867188 57.097656 148.867188 55.925781 150.234375 55.925781 Z M 151.796875 55.925781 "/>
<path style=" stroke:none;fill-rule:nonzero;fill:rgb(0%,0%,0%);fill-opacity:1;" d="M 159.144531 47.917969 L 157.679688 47.917969 L 157.679688 49.382812 L 159.144531 49.382812 Z M 157.679688 58.132812 L 158.402344 58.132812 L 159.144531 55.867188 L 159.144531 54.441406 L 157.679688 54.441406 L 157.679688 55.886719 L 158.128906 55.886719 Z M 157.679688 58.132812 "/>
<path style=" stroke:none;fill-rule:nonzero;fill:rgb(0%,0%,0%);fill-opacity:1;" d="M 181.644531 53.816406 C 180.550781 54.636719 179.808594 54.929688 178.246094 54.929688 C 175.902344 54.929688 174.144531 52.507812 174.144531 49.636719 C 174.144531 47.214844 175.589844 44.363281 178.324219 44.363281 C 179.496094 44.363281 180.394531 44.714844 181.292969 45.320312 L 181.566406 43.855469 C 180.394531 43.40625 179.515625 43.25 178.285156 43.25 C 175.238281 43.25 172.621094 45.945312 172.621094 49.65625 C 172.621094 53.582031 175.492188 56.042969 178.109375 56.042969 C 179.90625 56.042969 180.296875 55.945312 181.761719 55.066406 Z M 181.644531 53.816406 "/>
<path style=" stroke:none;fill-rule:nonzero;fill:rgb(0%,0%,0%);fill-opacity:1;" d="M 190.902344 51.941406 C 190.902344 49.519531 189.125 47.664062 187.074219 47.664062 C 184.964844 47.664062 183.226562 49.558594 183.226562 51.941406 C 183.226562 54.285156 185.003906 56.0625 187.054688 56.0625 C 189.164062 56.0625 190.902344 54.246094 190.902344 51.941406 Z M 187.074219 54.949219 C 185.785156 54.949219 184.574219 53.875 184.574219 51.765625 C 184.574219 49.597656 185.921875 48.738281 187.054688 48.738281 C 188.285156 48.738281 189.554688 49.65625 189.554688 51.765625 C 189.554688 53.972656 188.265625 54.949219 187.074219 54.949219 Z M 187.074219 54.949219 "/>
<path style=" stroke:none;fill-rule:nonzero;fill:rgb(0%,0%,0%);fill-opacity:1;" d="M 199.128906 50.496094 C 199.128906 49.402344 198.894531 47.742188 196.726562 47.742188 C 195.730469 47.742188 194.871094 48.191406 194.1875 49.050781 L 194.1875 47.839844 L 192.917969 47.839844 L 192.917969 55.886719 L 194.265625 55.886719 L 194.265625 51.414062 C 194.265625 50.320312 194.695312 48.816406 196.042969 48.816406 C 197.722656 48.816406 197.761719 49.988281 197.761719 50.613281 L 197.761719 55.886719 L 199.128906 55.886719 Z M 199.128906 50.496094 "/>
<path style=" stroke:none;fill-rule:nonzero;fill:rgb(0%,0%,0%);fill-opacity:1;" d="M 208.109375 43.445312 L 206.78125 43.445312 L 206.78125 48.679688 C 205.960938 47.996094 205.023438 47.742188 204.261719 47.742188 C 202.5625 47.742188 201.15625 49.578125 201.15625 51.902344 C 201.15625 54.226562 202.484375 56.0625 204.183594 56.0625 C 204.847656 56.0625 205.863281 55.847656 206.761719 54.96875 L 206.761719 55.886719 L 208.109375 55.886719 Z M 206.761719 53.777344 C 206.332031 54.539062 205.6875 54.988281 204.90625 54.988281 C 203.8125 54.988281 202.523438 54.148438 202.523438 51.921875 C 202.523438 49.539062 204.046875 48.816406 205.082031 48.816406 C 205.785156 48.816406 206.351562 49.1875 206.761719 49.773438 Z M 206.761719 53.777344 "/>
<path style=" stroke:none;fill-rule:nonzero;fill:rgb(0%,0%,0%);fill-opacity:1;" d="M 212.363281 43.71875 L 210.820312 43.71875 L 210.820312 45.261719 L 212.363281 45.261719 Z M 212.265625 47.917969 L 210.9375 47.917969 L 210.9375 55.886719 L 212.265625 55.886719 Z M 212.265625 47.917969 "/>
<path style=" stroke:none;fill-rule:nonzero;fill:rgb(0%,0%,0%);fill-opacity:1;" d="M 216.796875 48.972656 L 219.277344 48.972656 L 219.277344 47.917969 L 216.796875 47.917969 L 216.796875 45.652344 L 215.566406 45.652344 L 215.566406 47.917969 L 214.0625 47.917969 L 214.0625 48.972656 L 215.527344 48.972656 L 215.527344 53.796875 C 215.527344 54.832031 215.761719 56.0625 216.992188 56.0625 C 218.203125 56.0625 219.023438 55.652344 219.570312 55.359375 L 219.296875 54.324219 C 218.671875 54.890625 218.007812 54.949219 217.695312 54.949219 C 216.894531 54.949219 216.796875 54.109375 216.796875 53.484375 Z M 216.796875 48.972656 "/>
<path style=" stroke:none;fill-rule:nonzero;fill:rgb(0%,0%,0%);fill-opacity:1;" d="M 222.863281 43.71875 L 221.320312 43.71875 L 221.320312 45.261719 L 222.863281 45.261719 Z M 222.765625 47.917969 L 221.4375 47.917969 L 221.4375 55.886719 L 222.765625 55.886719 Z M 222.765625 47.917969 "/>
<path style=" stroke:none;fill-rule:nonzero;fill:rgb(0%,0%,0%);fill-opacity:1;" d="M 232.453125 51.941406 C 232.453125 49.519531 230.675781 47.664062 228.625 47.664062 C 226.515625 47.664062 224.777344 49.558594 224.777344 51.941406 C 224.777344 54.285156 226.554688 56.0625 228.605469 56.0625 C 230.714844 56.0625 232.453125 54.246094 232.453125 51.941406 Z M 228.625 54.949219 C 227.335938 54.949219 226.125 53.875 226.125 51.765625 C 226.125 49.597656 227.472656 48.738281 228.605469 48.738281 C 229.835938 48.738281 231.105469 49.65625 231.105469 51.765625 C 231.105469 53.972656 229.816406 54.949219 228.625 54.949219 Z M 228.625 54.949219 "/>
<path style=" stroke:none;fill-rule:nonzero;fill:rgb(0%,0%,0%);fill-opacity:1;" d="M 240.679688 50.496094 C 240.679688 49.402344 240.445312 47.742188 238.277344 47.742188 C 237.28125 47.742188 236.421875 48.191406 235.738281 49.050781 L 235.738281 47.839844 L 234.46875 47.839844 L 234.46875 55.886719 L 235.816406 55.886719 L 235.816406 51.414062 C 235.816406 50.320312 236.246094 48.816406 237.59375 48.816406 C 239.273438 48.816406 239.3125 49.988281 239.3125 50.613281 L 239.3125 55.886719 L 240.679688 55.886719 Z M 240.679688 50.496094 "/>
<path style=" stroke:none;fill-rule:nonzero;fill:rgb(0%,0%,0%);fill-opacity:1;" d="M 248.097656 48.210938 C 246.964844 47.683594 245.988281 47.664062 245.578125 47.664062 C 245.167969 47.664062 242.667969 47.664062 242.667969 49.988281 C 242.667969 50.769531 243.097656 51.316406 243.371094 51.570312 C 244.015625 52.117188 244.464844 52.214844 245.519531 52.429688 C 246.125 52.546875 247.160156 52.761719 247.160156 53.71875 C 247.160156 54.949219 245.753906 54.949219 245.5 54.949219 C 244.796875 54.949219 243.742188 54.753906 242.785156 54.050781 L 242.570312 55.28125 C 242.648438 55.339844 243.878906 56.0625 245.519531 56.0625 C 247.84375 56.0625 248.390625 54.675781 248.390625 53.601562 C 248.390625 52.703125 247.84375 52.117188 247.765625 52.039062 C 247.101562 51.355469 246.554688 51.238281 245.480469 51.023438 C 244.816406 50.90625 243.917969 50.730469 243.917969 49.832031 C 243.917969 48.71875 245.167969 48.71875 245.402344 48.71875 C 246.339844 48.71875 247.101562 48.933594 247.882812 49.382812 Z M 248.097656 48.210938 "/>
<path style=" stroke:none;fill-rule:nonzero;fill:rgb(0%,0%,0%);fill-opacity:1;" d="M 2.636719 70.125 L 4.550781 70.125 L 4.550781 69.070312 L 2.597656 69.070312 L 2.597656 66.921875 C 2.597656 65.710938 3.613281 65.496094 4.21875 65.496094 C 4.84375 65.496094 5.390625 65.691406 5.605469 65.769531 L 5.605469 64.597656 C 5.488281 64.558594 4.882812 64.421875 4.238281 64.421875 C 2.519531 64.421875 1.308594 65.730469 1.308594 67.46875 L 1.308594 69.070312 L 0 69.070312 L 0 70.125 L 1.308594 70.125 L 1.308594 77.039062 L 2.636719 77.039062 Z M 2.636719 70.125 "/>
<path style=" stroke:none;fill-rule:nonzero;fill:rgb(0%,0%,0%);fill-opacity:1;" d="M 13.152344 73.09375 C 13.152344 70.671875 11.375 68.816406 9.324219 68.816406 C 7.214844 68.816406 5.476562 70.710938 5.476562 73.09375 C 5.476562 75.4375 7.253906 77.214844 9.304688 77.214844 C 11.414062 77.214844 13.152344 75.398438 13.152344 73.09375 Z M 9.324219 76.101562 C 8.035156 76.101562 6.824219 75.027344 6.824219 72.917969 C 6.824219 70.75 8.171875 69.890625 9.304688 69.890625 C 10.535156 69.890625 11.804688 70.808594 11.804688 72.917969 C 11.804688 75.125 10.515625 76.101562 9.324219 76.101562 Z M 9.324219 76.101562 "/>
<path style=" stroke:none;fill-rule:nonzero;fill:rgb(0%,0%,0%);fill-opacity:1;" d="M 16.066406 73.113281 C 16.066406 71.296875 17.414062 70.125 19.035156 70.105469 L 19.035156 68.894531 C 17.394531 68.914062 16.457031 69.871094 15.96875 70.574219 L 15.96875 68.992188 L 14.738281 68.992188 L 14.738281 77.039062 L 16.066406 77.039062 Z M 16.066406 73.113281 "/>
<path style=" stroke:none;fill-rule:nonzero;fill:rgb(0%,0%,0%);fill-opacity:1;" d="M 37.53125 71.648438 C 37.53125 70.398438 37.199219 68.894531 35.109375 68.894531 C 33.585938 68.894531 32.746094 69.949219 32.472656 70.359375 C 32.140625 69.226562 31.164062 68.894531 30.226562 68.894531 C 28.761719 68.894531 27.980469 69.851562 27.6875 70.222656 L 27.6875 68.992188 L 26.417969 68.992188 L 26.417969 77.039062 L 27.765625 77.039062 L 27.765625 72.566406 C 27.765625 71.394531 28.234375 69.96875 29.542969 69.96875 C 31.203125 69.96875 31.28125 71.101562 31.28125 71.765625 L 31.28125 77.039062 L 32.648438 77.039062 L 32.648438 72.566406 C 32.648438 71.394531 33.117188 69.96875 34.425781 69.96875 C 36.066406 69.96875 36.164062 71.101562 36.164062 71.765625 L 36.164062 77.039062 L 37.53125 77.039062 Z M 37.53125 71.648438 "/>
<path style=" stroke:none;fill-rule:nonzero;fill:rgb(0%,0%,0%);fill-opacity:1;" d="M 45.992188 71.785156 C 45.992188 70.066406 44.761719 68.816406 43.082031 68.816406 C 42.007812 68.816406 41.207031 69.050781 40.328125 69.558594 L 40.425781 70.75 C 41.226562 70.164062 42.046875 69.851562 43.082031 69.851562 C 43.902344 69.851562 44.625 70.515625 44.625 71.824219 L 44.625 72.566406 C 43.824219 72.585938 42.75 72.644531 41.675781 72.996094 C 40.464844 73.425781 39.761719 74.089844 39.761719 74.96875 C 39.761719 75.769531 40.230469 77.214844 41.753906 77.214844 C 42.75 77.214844 44 76.921875 44.664062 76.375 L 44.664062 77.039062 L 45.992188 77.039062 Z M 44.625 74.636719 C 44.625 74.988281 44.625 75.417969 44.039062 75.789062 C 43.550781 76.082031 42.945312 76.140625 42.671875 76.140625 C 41.714844 76.140625 41.050781 75.613281 41.050781 74.96875 C 41.050781 73.738281 43.53125 73.464844 44.625 73.464844 Z M 44.625 74.636719 "/>
<path style=" stroke:none;fill-rule:nonzero;fill:rgb(0%,0%,0%);fill-opacity:1;" d="M 51.933594 72.9375 L 55.117188 69.070312 L 53.613281 69.070312 L 51.347656 71.980469 L 49.003906 69.070312 L 47.480469 69.070312 L 50.742188 72.9375 L 47.382812 77.039062 L 48.867188 77.039062 L 51.347656 73.699219 L 53.886719 77.039062 L 55.390625 77.039062 Z M 51.933594 72.9375 "/>
<path style=" stroke:none;fill-rule:nonzero;fill:rgb(0%,0%,0%);fill-opacity:1;" d="M 58.3125 64.871094 L 56.769531 64.871094 L 56.769531 66.414062 L 58.3125 66.414062 Z M 58.214844 69.070312 L 56.886719 69.070312 L 56.886719 77.039062 L 58.214844 77.039062 Z M 58.214844 69.070312 "/>
<path style=" stroke:none;fill-rule:nonzero;fill:rgb(0%,0%,0%);fill-opacity:1;" d="M 72.179688 71.648438 C 72.179688 70.398438 71.847656 68.894531 69.757812 68.894531 C 68.234375 68.894531 67.394531 69.949219 67.121094 70.359375 C 66.789062 69.226562 65.8125 68.894531 64.875 68.894531 C 63.410156 68.894531 62.628906 69.851562 62.335938 70.222656 L 62.335938 68.992188 L 61.066406 68.992188 L 61.066406 77.039062 L 62.414062 77.039062 L 62.414062 72.566406 C 62.414062 71.394531 62.882812 69.96875 64.191406 69.96875 C 65.851562 69.96875 65.929688 71.101562 65.929688 71.765625 L 65.929688 77.039062 L 67.296875 77.039062 L 67.296875 72.566406 C 67.296875 71.394531 67.765625 69.96875 69.074219 69.96875 C 70.714844 69.96875 70.8125 71.101562 70.8125 71.765625 L 70.8125 77.039062 L 72.179688 77.039062 Z M 72.179688 71.648438 "/>
<path style=" stroke:none;fill-rule:nonzero;fill:rgb(0%,0%,0%);fill-opacity:1;" d="M 80.644531 71.785156 C 80.644531 70.066406 79.414062 68.816406 77.734375 68.816406 C 76.660156 68.816406 75.859375 69.050781 74.980469 69.558594 L 75.078125 70.75 C 75.878906 70.164062 76.699219 69.851562 77.734375 69.851562 C 78.554688 69.851562 79.277344 70.515625 79.277344 71.824219 L 79.277344 72.566406 C 78.476562 72.585938 77.402344 72.644531 76.328125 72.996094 C 75.117188 73.425781 74.414062 74.089844 74.414062 74.96875 C 74.414062 75.769531 74.882812 77.214844 76.40625 77.214844 C 77.402344 77.214844 78.652344 76.921875 79.316406 76.375 L 79.316406 77.039062 L 80.644531 77.039062 Z M 79.277344 74.636719 C 79.277344 74.988281 79.277344 75.417969 78.691406 75.789062 C 78.203125 76.082031 77.597656 76.140625 77.324219 76.140625 C 76.367188 76.140625 75.703125 75.613281 75.703125 74.96875 C 75.703125 73.738281 78.183594 73.464844 79.277344 73.464844 Z M 79.277344 74.636719 "/>
<path style=" stroke:none;fill-rule:nonzero;fill:rgb(0%,0%,0%);fill-opacity:1;" d="M 98.1875 69.753906 C 97.5625 72 96.566406 73.679688 95.21875 74.851562 C 95.003906 74.617188 93.167969 72.449219 92.484375 70.867188 C 94.222656 69.324219 95.160156 68.152344 95.160156 67 C 95.160156 65.691406 94.320312 64.226562 92.855469 64.226562 C 91.371094 64.226562 90.414062 65.808594 90.414062 67.742188 C 90.414062 69.304688 90.960938 70.691406 90.980469 70.789062 L 89.554688 72.078125 C 89.046875 72.527344 88.324219 73.191406 88.324219 74.441406 C 88.324219 76.003906 89.632812 77.410156 91.546875 77.410156 C 92.09375 77.410156 93.5 77.351562 95.023438 76.375 C 96.253906 77.332031 97.25 77.410156 97.875 77.410156 C 98.050781 77.410156 98.832031 77.410156 99.886719 77.136719 L 99.886719 75.945312 C 99.183594 76.199219 98.402344 76.296875 97.894531 76.296875 C 97.640625 76.296875 96.917969 76.296875 96.039062 75.613281 C 97.972656 73.796875 98.851562 71.6875 99.28125 70.066406 Z M 92.054688 69.8125 C 91.683594 68.757812 91.585938 67.742188 91.585938 67.136719 C 91.585938 65.828125 92.269531 65.300781 92.855469 65.300781 C 93.773438 65.300781 93.910156 66.53125 93.910156 66.980469 C 93.910156 67.996094 92.992188 68.875 92.054688 69.8125 Z M 91.429688 71.824219 C 92.367188 73.542969 93.441406 74.832031 94.164062 75.613281 C 93.617188 75.925781 92.621094 76.296875 91.566406 76.296875 C 90.277344 76.296875 89.671875 75.203125 89.671875 74.324219 C 89.671875 73.328125 90.121094 72.9375 91.429688 71.824219 Z M 91.429688 71.824219 "/>
<path style=" stroke:none;fill-rule:nonzero;fill:rgb(0%,0%,0%);fill-opacity:1;" d="M 119.28125 71.648438 C 119.28125 70.398438 118.949219 68.894531 116.859375 68.894531 C 115.335938 68.894531 114.496094 69.949219 114.222656 70.359375 C 113.890625 69.226562 112.914062 68.894531 111.976562 68.894531 C 110.511719 68.894531 109.730469 69.851562 109.4375 70.222656 L 109.4375 68.992188 L 108.167969 68.992188 L 108.167969 77.039062 L 109.515625 77.039062 L 109.515625 72.566406 C 109.515625 71.394531 109.984375 69.96875 111.292969 69.96875 C 112.953125 69.96875 113.03125 71.101562 113.03125 71.765625 L 113.03125 77.039062 L 114.398438 77.039062 L 114.398438 72.566406 C 114.398438 71.394531 114.867188 69.96875 116.175781 69.96875 C 117.816406 69.96875 117.914062 71.101562 117.914062 71.765625 L 117.914062 77.039062 L 119.28125 77.039062 Z M 119.28125 71.648438 "/>
<path style=" stroke:none;fill-rule:nonzero;fill:rgb(0%,0%,0%);fill-opacity:1;" d="M 123.5625 64.871094 L 122.019531 64.871094 L 122.019531 66.414062 L 123.5625 66.414062 Z M 123.464844 69.070312 L 122.136719 69.070312 L 122.136719 77.039062 L 123.464844 77.039062 Z M 123.464844 69.070312 "/>
<path style=" stroke:none;fill-rule:nonzero;fill:rgb(0%,0%,0%);fill-opacity:1;" d="M 132.527344 71.648438 C 132.527344 70.554688 132.292969 68.894531 130.125 68.894531 C 129.128906 68.894531 128.269531 69.34375 127.585938 70.203125 L 127.585938 68.992188 L 126.316406 68.992188 L 126.316406 77.039062 L 127.664062 77.039062 L 127.664062 72.566406 C 127.664062 71.472656 128.09375 69.96875 129.441406 69.96875 C 131.121094 69.96875 131.160156 71.140625 131.160156 71.765625 L 131.160156 77.039062 L 132.527344 77.039062 Z M 132.527344 71.648438 "/>
<path style=" stroke:none;fill-rule:nonzero;fill:rgb(0%,0%,0%);fill-opacity:1;" d="M 136.761719 64.871094 L 135.21875 64.871094 L 135.21875 66.414062 L 136.761719 66.414062 Z M 136.664062 69.070312 L 135.335938 69.070312 L 135.335938 77.039062 L 136.664062 77.039062 Z M 136.664062 69.070312 "/>
<path style=" stroke:none;fill-rule:nonzero;fill:rgb(0%,0%,0%);fill-opacity:1;" d="M 150.632812 71.648438 C 150.632812 70.398438 150.300781 68.894531 148.210938 68.894531 C 146.6875 68.894531 145.847656 69.949219 145.574219 70.359375 C 145.242188 69.226562 144.265625 68.894531 143.328125 68.894531 C 141.863281 68.894531 141.082031 69.851562 140.789062 70.222656 L 140.789062 68.992188 L 139.519531 68.992188 L 139.519531 77.039062 L 140.867188 77.039062 L 140.867188 72.566406 C 140.867188 71.394531 141.335938 69.96875 142.644531 69.96875 C 144.304688 69.96875 144.382812 71.101562 144.382812 71.765625 L 144.382812 77.039062 L 145.75 77.039062 L 145.75 72.566406 C 145.75 71.394531 146.21875 69.96875 147.527344 69.96875 C 149.167969 69.96875 149.265625 71.101562 149.265625 71.765625 L 149.265625 77.039062 L 150.632812 77.039062 Z M 150.632812 71.648438 "/>
<path style=" stroke:none;fill-rule:nonzero;fill:rgb(0%,0%,0%);fill-opacity:1;" d="M 159.09375 71.785156 C 159.09375 70.066406 157.863281 68.816406 156.183594 68.816406 C 155.109375 68.816406 154.308594 69.050781 153.429688 69.558594 L 153.527344 70.75 C 154.328125 70.164062 155.148438 69.851562 156.183594 69.851562 C 157.003906 69.851562 157.726562 70.515625 157.726562 71.824219 L 157.726562 72.566406 C 156.925781 72.585938 155.851562 72.644531 154.777344 72.996094 C 153.566406 73.425781 152.863281 74.089844 152.863281 74.96875 C 152.863281 75.769531 153.332031 77.214844 154.855469 77.214844 C 155.851562 77.214844 157.101562 76.921875 157.765625 76.375 L 157.765625 77.039062 L 159.09375 77.039062 Z M 157.726562 74.636719 C 157.726562 74.988281 157.726562 75.417969 157.140625 75.789062 C 156.652344 76.082031 156.046875 76.140625 155.773438 76.140625 C 154.816406 76.140625 154.152344 75.613281 154.152344 74.96875 C 154.152344 73.738281 156.632812 73.464844 157.726562 73.464844 Z M 157.726562 74.636719 "/>
<path style=" stroke:none;fill-rule:nonzero;fill:rgb(0%,0%,0%);fill-opacity:1;" d="M 173.042969 71.785156 C 173.042969 70.066406 171.8125 68.816406 170.132812 68.816406 C 169.058594 68.816406 168.257812 69.050781 167.378906 69.558594 L 167.476562 70.75 C 168.277344 70.164062 169.097656 69.851562 170.132812 69.851562 C 170.953125 69.851562 171.675781 70.515625 171.675781 71.824219 L 171.675781 72.566406 C 170.875 72.585938 169.800781 72.644531 168.726562 72.996094 C 167.515625 73.425781 166.8125 74.089844 166.8125 74.96875 C 166.8125 75.769531 167.28125 77.214844 168.804688 77.214844 C 169.800781 77.214844 171.050781 76.921875 171.714844 76.375 L 171.714844 77.039062 L 173.042969 77.039062 Z M 171.675781 74.636719 C 171.675781 74.988281 171.675781 75.417969 171.089844 75.789062 C 170.601562 76.082031 169.996094 76.140625 169.722656 76.140625 C 168.765625 76.140625 168.101562 75.613281 168.101562 74.96875 C 168.101562 73.738281 170.582031 73.464844 171.675781 73.464844 Z M 171.675781 74.636719 "/>
<path style=" stroke:none;fill-rule:nonzero;fill:rgb(0%,0%,0%);fill-opacity:1;" d="M 177.496094 70.125 L 179.976562 70.125 L 179.976562 69.070312 L 177.496094 69.070312 L 177.496094 66.804688 L 176.265625 66.804688 L 176.265625 69.070312 L 174.761719 69.070312 L 174.761719 70.125 L 176.226562 70.125 L 176.226562 74.949219 C 176.226562 75.984375 176.460938 77.214844 177.691406 77.214844 C 178.902344 77.214844 179.722656 76.804688 180.269531 76.511719 L 179.996094 75.476562 C 179.371094 76.042969 178.707031 76.101562 178.394531 76.101562 C 177.59375 76.101562 177.496094 75.261719 177.496094 74.636719 Z M 177.496094 70.125 "/>
<path style=" stroke:none;fill-rule:nonzero;fill:rgb(0%,0%,0%);fill-opacity:1;" d="M 195.226562 69.714844 C 194.660156 69.832031 194.445312 70.261719 194.445312 70.59375 C 194.445312 71.023438 194.777344 71.179688 195.03125 71.179688 C 195.578125 71.179688 195.949219 70.710938 195.949219 70.222656 C 195.949219 69.480469 195.089844 69.128906 194.328125 69.128906 C 193.234375 69.128906 192.628906 70.203125 192.472656 70.554688 C 192.0625 69.207031 190.949219 69.128906 190.617188 69.128906 C 188.800781 69.128906 187.824219 71.472656 187.824219 71.882812 C 187.824219 71.941406 187.902344 72.039062 188.019531 72.039062 C 188.15625 72.039062 188.195312 71.921875 188.234375 71.863281 C 188.839844 69.871094 190.050781 69.5 190.558594 69.5 C 191.378906 69.5 191.535156 70.242188 191.535156 70.671875 C 191.535156 71.0625 191.4375 71.472656 191.203125 72.332031 L 190.597656 74.792969 C 190.34375 75.867188 189.816406 76.863281 188.859375 76.863281 C 188.78125 76.863281 188.332031 76.863281 187.941406 76.628906 C 188.585938 76.492188 188.742188 75.964844 188.742188 75.75 C 188.742188 75.398438 188.46875 75.183594 188.136719 75.183594 C 187.707031 75.183594 187.238281 75.554688 187.238281 76.121094 C 187.238281 76.882812 188.078125 77.214844 188.839844 77.214844 C 189.699219 77.214844 190.324219 76.53125 190.695312 75.808594 C 190.988281 76.863281 191.867188 77.214844 192.53125 77.214844 C 194.367188 77.214844 195.34375 74.871094 195.34375 74.480469 C 195.34375 74.382812 195.265625 74.304688 195.148438 74.304688 C 194.992188 74.304688 194.972656 74.402344 194.933594 74.539062 C 194.445312 76.121094 193.390625 76.863281 192.589844 76.863281 C 191.964844 76.863281 191.632812 76.394531 191.632812 75.652344 C 191.632812 75.261719 191.691406 74.96875 191.984375 73.796875 L 192.609375 71.355469 C 192.882812 70.28125 193.488281 69.5 194.308594 69.5 C 194.347656 69.5 194.855469 69.5 195.226562 69.714844 Z M 195.226562 69.714844 "/>
<path style=" stroke:none;fill-rule:nonzero;fill:rgb(0%,0%,0%);fill-opacity:1;" d="M 213.691406 71.238281 C 213.945312 71.238281 214.257812 71.238281 214.257812 70.90625 C 214.257812 70.574219 213.945312 70.574219 213.691406 70.574219 L 203.125 70.574219 C 202.871094 70.574219 202.558594 70.574219 202.558594 70.886719 C 202.558594 71.238281 202.851562 71.238281 203.125 71.238281 Z M 213.691406 74.558594 C 213.945312 74.558594 214.257812 74.558594 214.257812 74.246094 C 214.257812 73.894531 213.945312 73.894531 213.691406 73.894531 L 203.125 73.894531 C 202.871094 73.894531 202.558594 73.894531 202.558594 74.226562 C 202.558594 74.558594 202.851562 74.558594 203.125 74.558594 Z M 213.691406 74.558594 "/>
<path style=" stroke:none;fill-rule:nonzero;fill:rgb(0%,0%,0%);fill-opacity:1;" d="M 225.722656 74.910156 C 225.644531 75.203125 225.644531 75.242188 225.390625 75.59375 C 225 76.082031 224.199219 76.863281 223.359375 76.863281 C 222.636719 76.863281 222.207031 76.199219 222.207031 75.144531 C 222.207031 74.148438 222.773438 72.136719 223.105469 71.394531 C 223.730469 70.144531 224.570312 69.5 225.253906 69.5 C 226.445312 69.5 226.679688 70.964844 226.679688 71.101562 C 226.679688 71.121094 226.621094 71.355469 226.601562 71.394531 Z M 226.875 70.320312 C 226.679688 69.851562 226.191406 69.128906 225.253906 69.128906 C 223.242188 69.128906 221.054688 71.746094 221.054688 74.402344 C 221.054688 76.179688 222.089844 77.214844 223.300781 77.214844 C 224.296875 77.214844 225.136719 76.453125 225.644531 75.847656 C 225.820312 76.921875 226.660156 77.214844 227.207031 77.214844 C 227.734375 77.214844 228.164062 76.902344 228.496094 76.257812 C 228.769531 75.632812 229.023438 74.539062 229.023438 74.480469 C 229.023438 74.382812 228.964844 74.304688 228.847656 74.304688 C 228.691406 74.304688 228.671875 74.402344 228.59375 74.675781 C 228.320312 75.730469 227.988281 76.863281 227.246094 76.863281 C 226.738281 76.863281 226.699219 76.394531 226.699219 76.042969 C 226.699219 75.613281 226.757812 75.417969 226.914062 74.734375 C 227.03125 74.285156 227.128906 73.875 227.265625 73.367188 C 227.929688 70.671875 228.085938 70.027344 228.085938 69.929688 C 228.085938 69.675781 227.890625 69.480469 227.636719 69.480469 C 227.050781 69.480469 226.914062 70.105469 226.875 70.320312 Z M 226.875 70.320312 "/>
</g>
</svg>
