<?xml version="1.0" encoding="UTF-8"?>
<svg width="869" height="473" xmlns="http://www.w3.org/2000/svg" xmlns:svg="http://www.w3.org/2000/svg" xmlns:xlink="http://www.w3.org/1999/xlink" class="main-svg">
 <defs>
  <g class="clips" id="svg_68">
   <clipPath class="axesclip" id="clipf5607ax">
    <rect x="80" y="0" width="632" height="473" id="svg_69"/>
   </clipPath>
   <clipPath class="axesclip" id="clipf5607ay">
    <rect x="0" y="100" width="869" height="293" id="svg_70"/>
   </clipPath>
   <clipPath class="axesclip" id="clipf5607axy">
    <rect x="80" y="100" width="632" height="293" id="svg_71"/>
   </clipPath>
  </g>
 </defs>
 <g>
  <title>Layer 1</title>
  <rect x="0" y="0" width="869" height="473" fill="rgb(255, 255, 255)" id="svg_72"/>
  <g class="draglayer" id="svg_73">
   <g id="svg_74"/>
  </g>
  <g class="subplot xy" id="svg_75">
   <rect x="80" y="100" width="632" height="293" fill="rgb(255, 255, 255)" stroke-width="0px" id="svg_76"/>
   <g id="svg_77">
    <path class="xgrid crisp" d="m211.470001,100l0,293" stroke-width="1px" stroke="rgb(238, 238, 238)" id="svg_78"/>
    <path class="xgrid crisp" d="m303.72998,100l0,293" stroke-width="1px" stroke="rgb(238, 238, 238)" id="svg_79"/>
    <path class="xgrid crisp" d="m396,100l0,293" stroke-width="1px" stroke="rgb(238, 238, 238)" id="svg_80"/>
    <path class="xgrid crisp" d="m488.269989,100l0,293" stroke-width="1px" stroke="rgb(238, 238, 238)" id="svg_81"/>
    <path class="xgrid crisp" d="m580.530029,100l0,293" stroke-width="1px" stroke="rgb(238, 238, 238)" id="svg_82"/>
    <path class="xgrid crisp" d="m672.799988,100l0,293" stroke-width="1px" stroke="rgb(238, 238, 238)" id="svg_83"/>
    <path class="ygrid crisp" d="m80,374.600006l632,0" stroke-width="1px" stroke="rgb(238, 238, 238)" id="svg_84"/>
    <path class="ygrid crisp" d="m80,237.960007l632,0" stroke-width="1px" stroke="rgb(238, 238, 238)" id="svg_85"/>
    <path class="ygrid crisp" d="m80,169.639999l632,0" stroke-width="1px" stroke="rgb(238, 238, 238)" id="svg_86"/>
    <path class="ygrid crisp" d="m80,101.32l632,0" stroke-width="1px" stroke="rgb(238, 238, 238)" id="svg_87"/>
   </g>
   <g id="svg_88"/>
   <g id="svg_89">
    <path class="xzl zl crisp" d="m119.199997,100l0,293" stroke-width="1px" stroke="rgb(68, 68, 68)" id="svg_90"/>
    <path class="yzl zl crisp" d="m80,306.279999l632,0" stroke-width="1px" stroke="rgb(68, 68, 68)" id="svg_91"/>
   </g>
   <g id="svg_92"/>
   <g id="svg_1">
    <svg preserveAspectRatio="none" x="80" y="100" width="632" height="293" viewBox="0 0 632 293" id="svg_28">
     <g class="maplayer" id="svg_63"/>
     <g class="barlayer" id="svg_62"/>
     <g class="errorlayer" id="svg_58">
      <g class="errorbars" id="svg_61"/>
      <g class="errorbars" id="svg_60"/>
      <g class="errorbars" id="svg_59"/>
     </g>
     <g class="boxlayer" id="svg_57"/>
     <g class="scatterlayer" id="svg_29">
      <g class="trace scatter" stroke-miterlimit="2" id="svg_48">
       <path class="js-line" d="m39.200001,137.960007l553.599987,76.860001" stroke-width="2px" stroke="rgb(31, 119, 180)" fill="none" id="svg_56"/>
       <g class="points" id="svg_49">
        <path class="point" d="m42.200001,137.960007a3,3 0 1 1 -3,-3a3,3 0 0 1 3,3z" fill="rgb(31, 119, 180)" stroke-width="0px" id="svg_55"/>
        <path class="point" d="m226.729996,163.580002a3,3 0 1 1 -3,-3a3,3 0 0 1 3,3z" fill="rgb(31, 119, 180)" stroke-width="0px" id="svg_54"/>
        <path class="point" d="m411.269989,189.199997a3,3 0 1 1 -3,-3a3,3 0 0 1 3,3z" fill="rgb(31, 119, 180)" stroke-width="0px" id="svg_53"/>
        <path class="point" d="m448.170013,194.320007a3,3 0 1 1 -3,-3a3,3 0 0 1 3,3z" fill="rgb(31, 119, 180)" stroke-width="0px" id="svg_52"/>
        <path class="point" d="m534.900024,206.279999a3,3 0 1 1 -3,-3a3,3 0 0 1 3,3z" fill="rgb(31, 119, 180)" stroke-width="0px" id="svg_51"/>
        <path class="point" d="m595.799988,214.820007a3,3 0 1 1 -3,-3a3,3 0 0 1 3,3z" fill="rgb(31, 119, 180)" stroke-width="0px" id="svg_50"/>
       </g>
      </g>
      <g class="trace scatter" stroke-miterlimit="2" id="svg_38">
       <path class="js-line" d="m39.200001,18.4l553.599987,256.200006" stroke-width="2px" stroke="rgb(255, 127, 14)" fill="none" id="svg_47"/>
       <g class="points" id="svg_39">
        <path class="point" d="m42.200001,18.4a3,3 0 1 1 -3,-3a3,3 0 0 1 3,3z" fill="rgb(255, 127, 14)" stroke-width="0px" id="svg_46"/>
        <path class="point" d="m226.729996,103.800003a3,3 0 1 1 -3,-3a3,3 0 0 1 3,3z" fill="rgb(255, 127, 14)" stroke-width="0px" id="svg_45"/>
        <path class="point" d="m411.269989,189.199997a3,3 0 1 1 -3,-3a3,3 0 0 1 3,3z" fill="rgb(255, 127, 14)" stroke-width="0px" id="svg_44"/>
        <path class="point" d="m448.170013,206.279999a3,3 0 1 1 -3,-3a3,3 0 0 1 3,3z" fill="rgb(255, 127, 14)" stroke-width="0px" id="svg_43"/>
        <path class="point" d="m534.900024,246.419998a3,3 0 1 1 -3,-3a3,3 0 0 1 3,3z" fill="rgb(255, 127, 14)" stroke-width="0px" id="svg_42"/>
        <path class="point" d="m595.799988,274.600006a3,3 0 1 1 -3,-3a3,3 0 0 1 3,3z" fill="rgb(255, 127, 14)" stroke-width="0px" id="svg_41"/>
       </g>
      </g>
      <g class="trace scatter" stroke-miterlimit="2" id="svg_30">
       <path class="js-fill" d="m39.200001,137.960007l369.069988,51.23999l36.900024,17.080002l0,0l-405.970013,0l0,-68.319992z" fill-opacity="0.5" fill="rgb(0, 0, 0)" stroke-width="0px" id="svg_37"/>
       <path class="js-line" d="m39.200001,137.960007l369.069988,51.23999l36.900024,17.080002" stroke-width="2px" stroke-opacity="0" stroke="rgb(0, 0, 0)" fill="none" id="svg_36"/>
       <g class="points" id="svg_31">
        <path class="point" d="m42.200001,137.960007a3,3 0 1 1 -3,-3a3,3 0 0 1 3,3z" fill-opacity="0" fill="rgb(0, 0, 0)" stroke-width="0px" id="svg_35"/>
        <path class="point" d="m226.729996,163.580002a3,3 0 1 1 -3,-3a3,3 0 0 1 3,3z" fill-opacity="0" fill="rgb(0, 0, 0)" stroke-width="0px" id="svg_34"/>
        <path class="point" d="m411.269989,189.199997a3,3 0 1 1 -3,-3a3,3 0 0 1 3,3z" fill-opacity="0" fill="rgb(0, 0, 0)" stroke-width="0px" id="svg_33"/>
        <path class="point" d="m448.170013,206.279999a3,3 0 1 1 -3,-3a3,3 0 0 1 3,3z" fill-opacity="0" fill="rgb(0, 0, 0)" stroke-width="0px" id="svg_32"/>
       </g>
      </g>
     </g>
    </svg>
   </g>
   <g id="svg_128"/>
   <path class="crisp" d="m79,393.5l634,0" stroke-opacity="0" stroke="rgb(0, 0, 0)" stroke-width="1px" fill="none" id="svg_129"/>
   <path class="crisp" d="m79.5,99l0,294" stroke-width="1px" stroke-opacity="0" stroke="rgb(0, 0, 0)" fill="none" id="svg_130"/>
   <g id="svg_131"/>
   <g id="svg_132">
    <g class="xtick" id="svg_133">
     <text text-anchor="middle" x="119.200001" y="407" fill="rgb(68, 68, 68)" font-size="12px" font-family="'Open sans', verdana, arial, sans-serif" id="svg_134">0</text>
    </g>
    <g class="xtick" id="svg_135">
     <text text-anchor="middle" x="211.470001" y="407" fill="rgb(68, 68, 68)" font-size="12px" font-family="'Open sans', verdana, arial, sans-serif" id="svg_136">0.5</text>
    </g>
    <g class="xtick" id="svg_137">
     <text text-anchor="middle" x="303.729996" y="407" fill="rgb(68, 68, 68)" font-size="12px" font-family="'Open sans', verdana, arial, sans-serif" id="svg_138">1</text>
    </g>
    <g class="xtick" id="svg_139">
     <text text-anchor="middle" x="396" y="407" fill="rgb(68, 68, 68)" font-size="12px" font-family="'Open sans', verdana, arial, sans-serif" id="svg_140">1.5</text>
    </g>
    <g class="xtick" id="svg_141">
     <text text-anchor="middle" x="488.269989" y="407" fill="rgb(68, 68, 68)" font-size="12px" font-family="'Open sans', verdana, arial, sans-serif" id="svg_142">2</text>
    </g>
    <g class="xtick" id="svg_143">
     <text text-anchor="middle" x="580.529999" y="407" fill="rgb(68, 68, 68)" font-size="12px" font-family="'Open sans', verdana, arial, sans-serif" id="svg_144">2.5</text>
    </g>
    <g class="xtick" id="svg_145">
     <text text-anchor="middle" x="672.799988" y="407" fill="rgb(68, 68, 68)" font-size="12px" font-family="'Open sans', verdana, arial, sans-serif" id="svg_146">3</text>
    </g>
   </g>
   <g id="svg_147">
    <g class="ytick" id="svg_148">
     <text text-anchor="end" x="78" y="380.600006" fill="rgb(68, 68, 68)" font-size="12px" font-family="'Open sans', verdana, arial, sans-serif" id="svg_149">−2</text>
    </g>
    <g class="ytick" id="svg_150">
     <text text-anchor="end" x="78" y="312.279999" fill="rgb(68, 68, 68)" font-size="12px" font-family="'Open sans', verdana, arial, sans-serif" id="svg_151">0</text>
    </g>
    <g class="ytick" id="svg_152">
     <text text-anchor="end" x="78" y="243.960007" fill="rgb(68, 68, 68)" font-size="12px" font-family="'Open sans', verdana, arial, sans-serif" id="svg_153">2</text>
    </g>
    <g class="ytick" id="svg_154">
     <text text-anchor="end" x="78" y="175.639999" fill="rgb(68, 68, 68)" font-size="12px" font-family="'Open sans', verdana, arial, sans-serif" id="svg_155">4</text>
    </g>
    <g class="ytick" id="svg_156">
     <text text-anchor="end" x="78" y="107.32" fill="rgb(68, 68, 68)" font-size="12px" font-family="'Open sans', verdana, arial, sans-serif" id="svg_157">6</text>
    </g>
   </g>
   <g id="svg_158"/>
  </g>
  <g class="shapelayer" id="svg_159"/>
  <g class="glimages" id="svg_160"/>
  <text class="js-plot-link-container" y="464" text-anchor="end" x="862" fill="rgb(68, 68, 68)" font-size="12px" font-family="'Open Sans', Arial, sans-serif" id="svg_161"/>
  <g class="infolayer" id="svg_162">
   <g class="g-gtitle" id="svg_163"/>
   <g class="g-xtitle" id="svg_164">
    <g class="xtitle-math-group" id="svg_14">
     <svg xmlns:xlink="http://www.w3.org/1999/xlink" viewBox="0 -707.941989467833 857 732.8839789356658" class="xtitle-math" height="1.71ex" preserveAspectRatio="xMinYMin meet" x="389.810006" y="436.381639" width="2.021ex" id="svg_64">
      <defs>
       <path id="svg_104" stroke-width="10" d="m109,429q-27,0 -43,18t-16,44q0,71 53,123t132,52q91,0 152,-56t62,-145q0,-43 -20,-82t-48,-68t-80,-74q-36,-31 -100,-92l-59,-56l76,-1q157,0 167,5q7,2 24,89l0,3l40,0l0,-3q-1,-3 -13,-91t-15,-92l0,-3l-371,0l0,19l0,12q0,7 6,15t30,35q29,32 50,56q9,10 34,37t34,37t29,33t28,34t23,30t21,32t15,29t13,32t7,30t3,33q0,63 -34,109t-97,46q-33,0 -58,-17t-35,-33t-10,-19q0,-1 5,-1q18,0 37,-14t19,-46q0,-25 -16,-42t-45,-18z"/>
       <path id="svg_93" stroke-width="10" d="m42,0l-2,0q-14,0 -14,11q0,4 3,16q4,14 7,16t19,3q86,3 135,52q10,10 116,126t105,118q-109,278 -114,283q-9,11 -63,12l-28,0q-6,6 -6,8t2,19q4,13 10,19l14,0q34,-2 121,-2q33,0 61,0t45,1t20,0q17,0 17,-11q0,-1 -2,-13q-4,-15 -7,-18t-16,-3q-31,-3 -54,-17l77,-194l53,59q105,113 105,125q0,18 -24,25q-5,0 -13,2q-15,0 -15,11q0,2 2,16q4,13 10,19l12,0q1,0 25,0t54,-2t41,-1q90,0 99,3l8,0q7,-7 7,-11q-2,-25 -12,-35l-16,0q-34,-1 -61,-9t-41,-17t-24,-18l-11,-9q0,1 -95,-104l-87,-96q0,-1 31,-80t65,-162t37,-86q10,-9 61,-10q35,0 35,-9q0,-2 -2,-14q-4,-16 -7,-19t-14,-3q-3,0 -33,0t-89,1q-61,0 -93,0t-35,-1q-17,0 -17,9q0,1 2,15q2,10 4,14t5,5t9,2t16,1t26,7q17,8 17,10q-1,0 -47,117l-47,118q-188,-204 -193,-215q-4,-8 -4,-12q0,-19 29,-25q1,0 6,0t6,-1q3,0 4,0t3,-1t3,-3t1,-7q0,-9 -2,-16q-3,-13 -6,-15t-15,-3q-3,0 -18,0t-42,1t-59,0q-78,0 -100,-2z"/>
       <path id="svg_103" stroke-width="10" d="m66,637q-12,0 -17,0t-10,1t-7,3t-2,6t3,17t9,18q2,1 14,1q48,-3 109,-3q123,0 141,3l10,0q6,-6 6,-9t-2,-18q-4,-13 -10,-19l-12,0q-56,0 -56,-13q0,-5 50,-147t51,-144l3,3q4,4 12,13t21,24t32,37t43,51q92,107 107,126t16,31q0,16 -32,19q-17,0 -17,10q0,2 2,14q3,15 5,18t14,4q2,0 29,-1t79,-2q27,0 56,1t33,1q17,0 17,-9q0,-4 -3,-16t-5,-14q-2,-6 -21,-6q-72,-5 -117,-50q-9,-9 -140,-163l-129,-151l-26,-104q-27,-107 -27,-112q0,-11 68,-11q16,0 21,-1t6,-10q0,-2 -2,-12q-4,-17 -6,-19t-16,-3q-5,0 -42,0t-92,1q-62,0 -94,0t-36,-1q-18,0 -18,8q0,5 3,15q1,3 2,6t1,5t1,4t2,3t3,2t5,1t6,0t9,1t13,0q39,1 51,4t18,13q3,5 29,108l25,103l-123,349q-1,1 -2,2t-2,2t-3,2t-4,2t-5,2t-8,1t-9,1t-13,1t-17,1z"/>
       <path id="svg_102" stroke-width="10" d="m127,463q-27,0 -42,17t-16,44q0,55 48,98t116,43q35,0 44,-1q74,-12 113,-53t40,-89q0,-52 -34,-101t-94,-71l-3,-2q0,-1 9,-3t29,-9t38,-21q82,-53 82,-140q0,-79 -62,-138t-157,-59q-80,0 -138,43t-58,109q0,28 18,45t45,18q28,0 46,-18t18,-45q0,-11 -3,-20t-7,-16t-11,-12t-12,-8t-10,-4t-8,-3l-4,-1q51,-45 124,-45q55,0 83,53q17,33 17,101l0,20q0,95 -64,127q-15,6 -61,7l-42,1l-3,2q-2,3 -2,16q0,18 8,18q28,0 58,5q34,5 62,42t28,112l0,8q0,57 -35,79q-22,14 -47,14q-32,0 -59,-11t-38,-23t-11,-12l3,0q3,-1 8,-2t10,-5t12,-7t10,-11t8,-15t3,-20q0,-22 -14,-39t-45,-18z"/>
       <path id="svg_101" stroke-width="10" d="m52,289q7,42 54,97t116,56q35,0 64,-18t43,-45q42,63 101,63q37,0 64,-22t28,-59q0,-29 -14,-47t-27,-22t-23,-4q-19,0 -31,11t-12,29q0,46 50,63q-11,13 -40,13q-13,0 -19,-2q-38,-16 -56,-66q-60,-221 -60,-258q0,-28 16,-40t35,-12q37,0 73,33t49,81q3,10 6,11t16,2l4,0q15,0 15,-8q0,-1 -2,-11q-16,-57 -62,-101t-107,-44q-70,0 -106,63q-41,-62 -94,-62l-6,0q-49,0 -70,26t-22,55q0,32 19,52t45,20q43,0 43,-42q0,-20 -12,-35t-23,-20t-13,-5l-3,-1q0,-1 6,-4t16,-7t19,-3q36,0 62,45q9,16 23,68t28,108t16,66q5,27 5,39q0,28 -15,40t-34,12q-40,0 -75,-32t-49,-82q-2,-9 -5,-10t-16,-2l-14,0q-6,6 -6,11z"/>
       <path id="svg_100" stroke-width="10" d="m56,237t0,13t14,20l299,0l0,150l1,150q10,13 19,13q13,0 20,-15l0,-298l298,0q15,-8 15,-20t-15,-20l-298,0l0,-298q-8,-14 -18,-14l-2,0l-2,0q-12,0 -18,14l0,298l-299,0q-14,7 -14,20l0,-13z"/>
       <path id="svg_99" stroke-width="10" d="m462,0q-18,3 -129,3q-116,0 -134,-3l-9,0l0,46l31,0q20,0 27,0t17,2t14,5t7,8q1,2 1,54l0,50l-259,0l0,46l151,231q153,232 155,233q2,2 21,2l18,0l6,-6l0,-460l92,0l0,-46l-92,0l0,-51q0,-41 0,-48t6,-12q8,-7 57,-8l29,0l0,-46l-9,0zm-169,211l0,334l-219,-333l109,-1l110,0z"/>
       <path id="svg_98" stroke-width="10" d="m21,287q0,14 15,48t48,71t74,36q41,0 66,-23t26,-64q-2,-19 -3,-21q0,-3 -16,-46t-33,-97t-16,-86q0,-43 14,-60t42,-18q23,0 43,11t31,23t27,33q0,1 5,20t14,59t19,74q38,150 42,157q13,27 43,27q13,0 21,-7t11,-12t2,-9q0,-13 -49,-210t-56,-216q-28,-83 -97,-132t-138,-50q-45,0 -79,22t-34,66q0,22 7,37t19,22t20,10t17,3q44,0 44,-42q0,-20 -12,-35t-23,-20t-13,-5l-3,-1q2,-5 19,-12t34,-7l8,0q17,0 26,2q33,9 61,38t43,62t23,56t8,30l-6,-4q-6,-4 -19,-11t-26,-12q-20,-5 -39,-5q-46,0 -81,22t-46,71q-1,7 -1,31q0,57 35,149t35,117q0,1 0,2q0,9 0,12t-4,7t-11,4l-4,0q-23,0 -42,-19t-30,-41t-17,-42t-8,-22q-2,-2 -16,-2l-14,0q-6,6 -6,9z"/>
       <path id="svg_97" stroke-width="10" d="m56,347q0,13 14,20l637,0q15,-8 15,-20q0,-11 -14,-19l-318,-1l-318,0q-16,5 -16,20zm0,-194q0,15 16,20l636,0q14,-10 14,-20q0,-13 -15,-20l-637,0q-14,7 -14,20z"/>
       <path id="svg_96" stroke-width="10" d="m70,417t0,77t54,124t124,48q71,0 126,-42t55,-109q0,-30 -11,-56t-26,-42t-31,-28t-26,-18t-11,-8l14,-9q14,-10 28,-20t16,-11q75,-59 75,-149q0,-79 -58,-137t-150,-59q-90,0 -148,51t-58,126q0,108 129,180l-18,13q-21,13 -27,20q-57,49 -57,126l0,-77zm216,-31l6,4q6,4 9,6t10,7t12,10t11,12t11,13t10,16t9,17t5,20t2,22q0,43 -29,73t-67,38q-7,1 -33,1q-41,0 -77,-26t-37,-65q0,-23 13,-42t26,-29t50,-32q7,-5 11,-7l58,-38zm-36,-365q58,0 100,34t42,82q0,17 -5,32t-12,25t-22,22t-23,18t-29,19t-27,17q-14,9 -30,19t-26,17l-8,5q-6,0 -29,-17t-48,-55t-26,-82q0,-59 43,-97t100,-39z"/>
       <path id="svg_95" stroke-width="10" d="m164,157q0,-24 -16,-40t-39,-16l-7,0q46,-79 122,-79q70,0 102,60q19,33 19,128q0,103 -27,139q-26,33 -58,33l-6,0q-78,0 -118,-68q-4,-7 -7,-8t-15,-2q-17,0 -19,6q-2,4 -2,175l0,129q0,50 5,50q2,2 4,2q1,0 21,-8t55,-16t75,-8q71,0 136,28q8,4 13,4q8,0 8,-18l0,-13q-82,-97 -205,-97q-31,0 -56,6l-10,2l0,-172q19,14 30,22t36,16t51,8q81,0 137,-65t56,-154q0,-92 -64,-157t-156,-66q-81,0 -130,54t-49,122q0,24 11,38t23,18t23,4q25,0 41,-17t16,-40z"/>
       <path id="svg_94" stroke-width="10" d="m213,578l-13,-5q-14,-5 -40,-10t-58,-7l-19,0l0,46l19,0q47,2 87,15t56,24t28,22q2,3 12,3q9,0 17,-6l0,-299l1,-300q7,-7 12,-9t24,-4t62,-2l26,0l0,-46l-11,0q-21,3 -159,3q-136,0 -157,-3l-12,0l0,46l26,0q22,0 38,0t25,1t16,3t8,2t6,5t6,4l0,517z"/>
      </defs>
      <g stroke="rgb(68, 68, 68)" fill="rgb(68, 68, 68)" stroke-width="0" transform="matrix(1 0 0 -1 0 0)" id="svg_65">
       <use xlink:href="#svg_93" id="svg_66"/>
      </g>
     </svg>
    </g>
   </g>
   <g class="g-ytitle" id="svg_168">
    <g class="ytitle-math-group" transform="rotate(-90, 36.4994, 237.882)" id="svg_27">
     <svg xmlns:xlink="http://www.w3.org/1999/xlink" viewBox="0 -707.941989467833 768 731.8839789356658" class="ytitle-math" height="1.71ex" preserveAspectRatio="xMinYMin meet" x="36.499438" y="237.882151" width="1.71ex" id="svg_105">
      <defs>
       <path id="svg_119" stroke-width="10" d="m109,429q-27,0 -43,18t-16,44q0,71 53,123t132,52q91,0 152,-56t62,-145q0,-43 -20,-82t-48,-68t-80,-74q-36,-31 -100,-92l-59,-56l76,-1q157,0 167,5q7,2 24,89l0,3l40,0l0,-3q-1,-3 -13,-91t-15,-92l0,-3l-371,0l0,19l0,12q0,7 6,15t30,35q29,32 50,56q9,10 34,37t34,37t29,33t28,34t23,30t21,32t15,29t13,32t7,30t3,33q0,63 -34,109t-97,46q-33,0 -58,-17t-35,-33t-10,-19q0,-1 5,-1q18,0 37,-14t19,-46q0,-25 -16,-42t-45,-18z"/>
       <path id="svg_118" stroke-width="10" d="m42,0l-2,0q-14,0 -14,11q0,4 3,16q4,14 7,16t19,3q86,3 135,52q10,10 116,126t105,118q-109,278 -114,283q-9,11 -63,12l-28,0q-6,6 -6,8t2,19q4,13 10,19l14,0q34,-2 121,-2q33,0 61,0t45,1t20,0q17,0 17,-11q0,-1 -2,-13q-4,-15 -7,-18t-16,-3q-31,-3 -54,-17l77,-194l53,59q105,113 105,125q0,18 -24,25q-5,0 -13,2q-15,0 -15,11q0,2 2,16q4,13 10,19l12,0q1,0 25,0t54,-2t41,-1q90,0 99,3l8,0q7,-7 7,-11q-2,-25 -12,-35l-16,0q-34,-1 -61,-9t-41,-17t-24,-18l-11,-9q0,1 -95,-104l-87,-96q0,-1 31,-80t65,-162t37,-86q10,-9 61,-10q35,0 35,-9q0,-2 -2,-14q-4,-16 -7,-19t-14,-3q-3,0 -33,0t-89,1q-61,0 -93,0t-35,-1q-17,0 -17,9q0,1 2,15q2,10 4,14t5,5t9,2t16,1t26,7q17,8 17,10q-1,0 -47,117l-47,118q-188,-204 -193,-215q-4,-8 -4,-12q0,-19 29,-25q1,0 6,0t6,-1q3,0 4,0t3,-1t3,-3t1,-7q0,-9 -2,-16q-3,-13 -6,-15t-15,-3q-3,0 -18,0t-42,1t-59,0q-78,0 -100,-2z"/>
       <path id="svg_108" stroke-width="10" d="m66,637q-12,0 -17,0t-10,1t-7,3t-2,6t3,17t9,18q2,1 14,1q48,-3 109,-3q123,0 141,3l10,0q6,-6 6,-9t-2,-18q-4,-13 -10,-19l-12,0q-56,0 -56,-13q0,-5 50,-147t51,-144l3,3q4,4 12,13t21,24t32,37t43,51q92,107 107,126t16,31q0,16 -32,19q-17,0 -17,10q0,2 2,14q3,15 5,18t14,4q2,0 29,-1t79,-2q27,0 56,1t33,1q17,0 17,-9q0,-4 -3,-16t-5,-14q-2,-6 -21,-6q-72,-5 -117,-50q-9,-9 -140,-163l-129,-151l-26,-104q-27,-107 -27,-112q0,-11 68,-11q16,0 21,-1t6,-10q0,-2 -2,-12q-4,-17 -6,-19t-16,-3q-5,0 -42,0t-92,1q-62,0 -94,0t-36,-1q-18,0 -18,8q0,5 3,15q1,3 2,6t1,5t1,4t2,3t3,2t5,1t6,0t9,1t13,0q39,1 51,4t18,13q3,5 29,108l25,103l-123,349q-1,1 -2,2t-2,2t-3,2t-4,2t-5,2t-8,1t-9,1t-13,1t-17,1z"/>
       <path id="svg_117" stroke-width="10" d="m127,463q-27,0 -42,17t-16,44q0,55 48,98t116,43q35,0 44,-1q74,-12 113,-53t40,-89q0,-52 -34,-101t-94,-71l-3,-2q0,-1 9,-3t29,-9t38,-21q82,-53 82,-140q0,-79 -62,-138t-157,-59q-80,0 -138,43t-58,109q0,28 18,45t45,18q28,0 46,-18t18,-45q0,-11 -3,-20t-7,-16t-11,-12t-12,-8t-10,-4t-8,-3l-4,-1q51,-45 124,-45q55,0 83,53q17,33 17,101l0,20q0,95 -64,127q-15,6 -61,7l-42,1l-3,2q-2,3 -2,16q0,18 8,18q28,0 58,5q34,5 62,42t28,112l0,8q0,57 -35,79q-22,14 -47,14q-32,0 -59,-11t-38,-23t-11,-12l3,0q3,-1 8,-2t10,-5t12,-7t10,-11t8,-15t3,-20q0,-22 -14,-39t-45,-18z"/>
       <path id="svg_116" stroke-width="10" d="m52,289q7,42 54,97t116,56q35,0 64,-18t43,-45q42,63 101,63q37,0 64,-22t28,-59q0,-29 -14,-47t-27,-22t-23,-4q-19,0 -31,11t-12,29q0,46 50,63q-11,13 -40,13q-13,0 -19,-2q-38,-16 -56,-66q-60,-221 -60,-258q0,-28 16,-40t35,-12q37,0 73,33t49,81q3,10 6,11t16,2l4,0q15,0 15,-8q0,-1 -2,-11q-16,-57 -62,-101t-107,-44q-70,0 -106,63q-41,-62 -94,-62l-6,0q-49,0 -70,26t-22,55q0,32 19,52t45,20q43,0 43,-42q0,-20 -12,-35t-23,-20t-13,-5l-3,-1q0,-1 6,-4t16,-7t19,-3q36,0 62,45q9,16 23,68t28,108t16,66q5,27 5,39q0,28 -15,40t-34,12q-40,0 -75,-32t-49,-82q-2,-9 -5,-10t-16,-2l-14,0q-6,6 -6,11z"/>
       <path id="svg_115" stroke-width="10" d="m56,237t0,13t14,20l299,0l0,150l1,150q10,13 19,13q13,0 20,-15l0,-298l298,0q15,-8 15,-20t-15,-20l-298,0l0,-298q-8,-14 -18,-14l-2,0l-2,0q-12,0 -18,14l0,298l-299,0q-14,7 -14,20l0,-13z"/>
       <path id="svg_114" stroke-width="10" d="m462,0q-18,3 -129,3q-116,0 -134,-3l-9,0l0,46l31,0q20,0 27,0t17,2t14,5t7,8q1,2 1,54l0,50l-259,0l0,46l151,231q153,232 155,233q2,2 21,2l18,0l6,-6l0,-460l92,0l0,-46l-92,0l0,-51q0,-41 0,-48t6,-12q8,-7 57,-8l29,0l0,-46l-9,0zm-169,211l0,334l-219,-333l109,-1l110,0z"/>
       <path id="svg_113" stroke-width="10" d="m21,287q0,14 15,48t48,71t74,36q41,0 66,-23t26,-64q-2,-19 -3,-21q0,-3 -16,-46t-33,-97t-16,-86q0,-43 14,-60t42,-18q23,0 43,11t31,23t27,33q0,1 5,20t14,59t19,74q38,150 42,157q13,27 43,27q13,0 21,-7t11,-12t2,-9q0,-13 -49,-210t-56,-216q-28,-83 -97,-132t-138,-50q-45,0 -79,22t-34,66q0,22 7,37t19,22t20,10t17,3q44,0 44,-42q0,-20 -12,-35t-23,-20t-13,-5l-3,-1q2,-5 19,-12t34,-7l8,0q17,0 26,2q33,9 61,38t43,62t23,56t8,30l-6,-4q-6,-4 -19,-11t-26,-12q-20,-5 -39,-5q-46,0 -81,22t-46,71q-1,7 -1,31q0,57 35,149t35,117q0,1 0,2q0,9 0,12t-4,7t-11,4l-4,0q-23,0 -42,-19t-30,-41t-17,-42t-8,-22q-2,-2 -16,-2l-14,0q-6,6 -6,9z"/>
       <path id="svg_112" stroke-width="10" d="m56,347q0,13 14,20l637,0q15,-8 15,-20q0,-11 -14,-19l-318,-1l-318,0q-16,5 -16,20zm0,-194q0,15 16,20l636,0q14,-10 14,-20q0,-13 -15,-20l-637,0q-14,7 -14,20z"/>
       <path id="svg_111" stroke-width="10" d="m70,417t0,77t54,124t124,48q71,0 126,-42t55,-109q0,-30 -11,-56t-26,-42t-31,-28t-26,-18t-11,-8l14,-9q14,-10 28,-20t16,-11q75,-59 75,-149q0,-79 -58,-137t-150,-59q-90,0 -148,51t-58,126q0,108 129,180l-18,13q-21,13 -27,20q-57,49 -57,126l0,-77zm216,-31l6,4q6,4 9,6t10,7t12,10t11,12t11,13t10,16t9,17t5,20t2,22q0,43 -29,73t-67,38q-7,1 -33,1q-41,0 -77,-26t-37,-65q0,-23 13,-42t26,-29t50,-32q7,-5 11,-7l58,-38zm-36,-365q58,0 100,34t42,82q0,17 -5,32t-12,25t-22,22t-23,18t-29,19t-27,17q-14,9 -30,19t-26,17l-8,5q-6,0 -29,-17t-48,-55t-26,-82q0,-59 43,-97t100,-39z"/>
       <path id="svg_110" stroke-width="10" d="m164,157q0,-24 -16,-40t-39,-16l-7,0q46,-79 122,-79q70,0 102,60q19,33 19,128q0,103 -27,139q-26,33 -58,33l-6,0q-78,0 -118,-68q-4,-7 -7,-8t-15,-2q-17,0 -19,6q-2,4 -2,175l0,129q0,50 5,50q2,2 4,2q1,0 21,-8t55,-16t75,-8q71,0 136,28q8,4 13,4q8,0 8,-18l0,-13q-82,-97 -205,-97q-31,0 -56,6l-10,2l0,-172q19,14 30,22t36,16t51,8q81,0 137,-65t56,-154q0,-92 -64,-157t-156,-66q-81,0 -130,54t-49,122q0,24 11,38t23,18t23,4q25,0 41,-17t16,-40z"/>
       <path id="svg_109" stroke-width="10" d="m213,578l-13,-5q-14,-5 -40,-10t-58,-7l-19,0l0,46l19,0q47,2 87,15t56,24t28,22q2,3 12,3q9,0 17,-6l0,-299l1,-300q7,-7 12,-9t24,-4t62,-2l26,0l0,-46l-11,0q-21,3 -159,3q-136,0 -157,-3l-12,0l0,46l26,0q22,0 38,0t25,1t16,3t8,2t6,5t6,4l0,517z"/>
      </defs>
      <g stroke="rgb(68, 68, 68)" fill="rgb(68, 68, 68)" stroke-width="0" transform="matrix(1 0 0 -1 0 0)" id="svg_106">
       <use xlink:href="#svg_108" id="svg_107"/>
      </g>
     </svg>
    </g>
   </g>
   <g id="svg_40">
    <svg id="svg_120" height="67" width="132" y="100" x="725" class="legend">
     <rect id="svg_289" stroke="rgb(68, 68, 68)" fill="rgb(255, 255, 255)" stroke-width="0px" height="67" width="132" y="0" x="0" class="bg"/>
     <g id="svg_279" class="traces">
      <g id="svg_287" class="legendfill">
       <path id="svg_288" stroke-width="0px" fill="rgb(0, 0, 0)" fill-opacity="0.5" d="m5,14.5l30,0l0,6l-30,0l0,-6z" class="js-fill"/>
      </g>
      <g id="svg_285" class="legendlines">
       <path id="svg_286" fill="none" stroke="rgb(0, 0, 0)" stroke-opacity="0" stroke-width="2px" d="m5,14.5l30,0" class="js-line"/>
      </g>
      <g id="svg_282" class="legendsymbols">
       <g id="svg_283" class="legendpoints">
        <path id="svg_284" stroke-width="0px" fill="rgb(0, 0, 0)" fill-opacity="0" d="m23,14.5a3,3 0 1 1 -3,-3a3,3 0 0 1 3,3z" class="scatterpts"/>
       </g>
      </g>
      <text id="svg_281" text-anchor="start" font-family="'Open sans', verdana, arial, sans-serif" font-size="12px" fill="rgb(68, 68, 68)" y="19.18" x="40" class="legendtext">Feasible Region</text>
      <rect id="svg_280" fill="rgb(0, 0, 0)" fill-opacity="0" width="126.98438" height="19" y="5" x="0" class="legendtoggle"/>
     </g>
     <g id="svg_214" class="traces">
      <g id="svg_278" class="legendfill"/>
      <g id="svg_276" class="legendlines">
       <path id="svg_277" fill="none" stroke="rgb(255, 127, 14)" stroke-width="2px" d="m5,33.5l30,0" class="js-line"/>
      </g>
      <g id="svg_273" class="legendsymbols">
       <g id="svg_274" class="legendpoints">
        <path id="svg_275" stroke-width="0px" fill="rgb(255, 127, 14)" d="m23,33.5a3,3 0 1 1 -3,-3a3,3 0 0 1 3,3z" class="scatterpts"/>
       </g>
      </g>
      <rect id="svg_272" fill="rgb(0, 0, 0)" fill-opacity="0" width="126.98438" height="19" y="24" x="0" class="legendtoggle"/>
      <g id="svg_215" class="legendtext-math-group">
       <svg id="svg_290" width="13.091ex" y="27.64548" x="40" preserveAspectRatio="xMinYMin meet" height="2.182ex" class="legendtext-math" viewBox="0 -688.7742397004789 5665 916.5484794009578" xmlns:xlink="http://www.w3.org/1999/xlink">
        <defs>
         <path d="m58,-216q-14,0 -24,8t-11,22q0,10 73,302t77,298q13,28 46,28q12,-1 20,-7t10,-12t2,-10q0,-12 -31,-134t-33,-137q-2,-11 -2,-35l0,-8q0,-73 67,-73q9,0 18,1t17,4t15,7t13,7t12,10t11,10t10,12t8,11t9,12l7,10l36,143q36,142 40,151q13,27 43,27q13,0 21,-7t11,-12t2,-10l-76,-318q-1,-5 -1,-16q0,-25 7,-33t21,-9q9,1 20,9q21,20 41,96q6,20 10,21q2,1 10,1l4,0q19,0 19,-9q0,-6 -5,-27t-20,-54t-32,-50q-13,-13 -32,-21q-8,-2 -24,-2q-21,0 -38,6t-27,15t-17,18t-9,15t-2,7l-6,-6q-6,-6 -18,-15t-26,-18t-36,-16t-42,-7q-47,0 -93,23l-24,-97q-21,-82 -25,-95t-12,-22q-16,-14 -34,-14z" stroke-width="10" id="svg_337"/>
         <path d="m56,347q0,13 14,20l637,0q15,-8 15,-20q0,-11 -14,-19l-318,-1l-318,0q-16,5 -16,20zm0,-194q0,15 16,20l636,0q14,-10 14,-20q0,-13 -15,-20l-637,0q-14,7 -14,20z" stroke-width="10" id="svg_297"/>
         <path d="m213,578l-13,-5q-14,-5 -40,-10t-58,-7l-19,0l0,46l19,0q47,2 87,15t56,24t28,22q2,3 12,3q9,0 17,-6l0,-299l1,-300q7,-7 12,-9t24,-4t62,-2l26,0l0,-46l-11,0q-21,3 -159,3q-136,0 -157,-3l-12,0l0,46l26,0q22,0 38,0t25,1t16,3t8,2t6,5t6,4l0,517z" stroke-width="10" id="svg_294"/>
         <path d="m55,458q1,2 17,109l16,107q0,2 20,2l20,0l0,-4q0,-10 15,-17t52,-9t169,-2l121,0l0,-39l-68,-93q-9,-12 -30,-40t-27,-37t-21,-32t-20,-36t-14,-37t-13,-46t-8,-54t-6,-68t-3,-82q0,-14 0,-28t-1,-24l0,-9q-4,-17 -19,-29t-34,-12q-11,0 -21,3t-21,19t-11,40q0,158 97,328q20,32 84,121l46,63l-93,0q-174,0 -183,-6q-6,-3 -11,-24t-10,-43l-3,-21l0,-3l-40,0l0,3z" stroke-width="10" id="svg_336"/>
         <path d="m78,60q0,24 17,42t43,18q24,0 42,-16t19,-43q0,-25 -17,-43t-43,-18t-43,17t-18,43z" stroke-width="10" id="svg_335"/>
         <path d="m42,313q0,163 81,258t180,95q69,0 99,-36t30,-80q0,-25 -14,-40t-39,-15q-23,0 -38,14t-15,39q0,44 47,53q-22,22 -62,25q-71,0 -117,-60q-47,-66 -47,-202l1,-4q5,6 8,13q41,60 107,60l4,0q46,0 81,-19q24,-14 48,-40t39,-57q21,-49 21,-107l0,-18q0,-23 -5,-43q-11,-59 -64,-115t-134,-56q-28,0 -54,8t-56,30t-51,59t-36,97t-14,141zm215,84q-30,0 -52,-17t-34,-45t-17,-57t-6,-62q0,-83 12,-119t38,-58q24,-18 53,-18q51,0 78,38q13,18 18,45t5,105q0,80 -5,107t-18,45q-27,36 -72,36z" stroke-width="10" id="svg_334"/>
         <path d="m109,429q-27,0 -43,18t-16,44q0,71 53,123t132,52q91,0 152,-56t62,-145q0,-43 -20,-82t-48,-68t-80,-74q-36,-31 -100,-92l-59,-56l76,-1q157,0 167,5q7,2 24,89l0,3l40,0l0,-3q-1,-3 -13,-91t-15,-92l0,-3l-371,0l0,19l0,12q0,7 6,15t30,35q29,32 50,56q9,10 34,37t34,37t29,33t28,34t23,30t21,32t15,29t13,32t7,30t3,33q0,63 -34,109t-97,46q-33,0 -58,-17t-35,-33t-10,-19q0,-1 5,-1q18,0 37,-14t19,-46q0,-25 -16,-42t-45,-18z" stroke-width="10" id="svg_301"/>
         <path d="m164,157q0,-24 -16,-40t-39,-16l-7,0q46,-79 122,-79q70,0 102,60q19,33 19,128q0,103 -27,139q-26,33 -58,33l-6,0q-78,0 -118,-68q-4,-7 -7,-8t-15,-2q-17,0 -19,6q-2,4 -2,175l0,129q0,50 5,50q2,2 4,2q1,0 21,-8t55,-16t75,-8q71,0 136,28q8,4 13,4q8,0 8,-18l0,-13q-82,-97 -205,-97q-31,0 -56,6l-10,2l0,-172q19,14 30,22t36,16t51,8q81,0 137,-65t56,-154q0,-92 -64,-157t-156,-66q-81,0 -130,54t-49,122q0,24 11,38t23,18t23,4q25,0 41,-17t16,-40z" stroke-width="10" id="svg_307"/>
         <path d="m127,463q-27,0 -42,17t-16,44q0,55 48,98t116,43q35,0 44,-1q74,-12 113,-53t40,-89q0,-52 -34,-101t-94,-71l-3,-2q0,-1 9,-3t29,-9t38,-21q82,-53 82,-140q0,-79 -62,-138t-157,-59q-80,0 -138,43t-58,109q0,28 18,45t45,18q28,0 46,-18t18,-45q0,-11 -3,-20t-7,-16t-11,-12t-12,-8t-10,-4t-8,-3l-4,-1q51,-45 124,-45q55,0 83,53q17,33 17,101l0,20q0,95 -64,127q-15,6 -61,7l-42,1l-3,2q-2,3 -2,16q0,18 8,18q28,0 58,5q34,5 62,42t28,112l0,8q0,57 -35,79q-22,14 -47,14q-32,0 -59,-11t-38,-23t-11,-12l3,0q3,-1 8,-2t10,-5t12,-7t10,-11t8,-15t3,-20q0,-22 -14,-39t-45,-18z" stroke-width="10" id="svg_333"/>
         <path stroke-width="10" id="svg_332"/>
         <path d="m131,622q-7,7 -11,9t-16,3t-43,3l-33,0l0,46l201,0l38,0l79,0q77,0 113,-5t72,-27q43,-24 68,-61t25,-78q0,-51 -41,-93t-107,-59l-10,-3q73,-9 129,-55t56,-115q0,-68 -51,-120t-131,-64q-13,-2 -227,-3l-214,0l0,46l33,0q42,1 51,3t19,12l0,561zm380,-109q0,47 -26,81t-69,42q-1,0 -13,0t-32,0t-38,1q-67,0 -82,-1t-19,-8q-3,-4 -3,-129l0,-125l83,0l84,1l10,2q4,1 11,3t25,13t32,24t25,39t12,57zm26,-325q0,51 -28,94t-79,54l-101,1l-100,0l0,-137l0,-84q0,-59 5,-64q6,-5 100,-5l49,0q42,0 60,6q43,14 68,51t26,84z" stroke-width="10" id="svg_331"/>
         <path d="m28,218q0,55 20,100t50,73t65,42t66,15q53,0 91,-18t58,-50t28,-64t9,-71q0,-7 -7,-14l-282,0l0,-15q0,-148 100,-180q20,-6 44,-6q42,0 72,32q17,17 27,42l10,24q3,3 16,3l3,0q17,0 17,-10q0,-4 -3,-13q-19,-55 -63,-87t-99,-32q-95,0 -158,69t-64,160zm305,57q-11,128 -95,136l-2,0q-8,0 -16,-1t-25,-8t-29,-21t-23,-41t-16,-66l0,-7l206,0l0,8z" stroke-width="10" id="svg_330"/>
         <path d="m295,316q0,40 -27,69t-78,29q-36,0 -62,-13q-30,-19 -30,-52q-1,-5 0,-13t16,-24t43,-25q18,-5 44,-9t44,-9t32,-13q17,-8 33,-20t32,-41t17,-62q0,-62 -38,-102t-123,-41l-8,0q-52,0 -96,36l-8,-7l-9,-9q-6,-6 -12,-11l-11,-10l-8,0l-4,0q-3,0 -9,6l0,79l0,58q0,21 2,25t10,5l9,0q12,0 16,-4t5,-12t7,-27t19,-42q35,-51 97,-51q97,0 97,78q0,29 -18,47q-20,24 -83,36t-83,23q-36,17 -57,46t-21,62q0,39 17,66t43,40t50,18t44,5l11,0q40,0 70,-15l15,-8l9,7q10,9 22,17l8,0l4,0q3,0 9,-6l0,-132l-6,-6l-28,0q-6,6 -6,12z" stroke-width="10" id="svg_329"/>
         <path d="m42,46l14,0q39,0 47,14l0,8q0,9 0,23t0,33t1,43t0,50t0,55t0,57q0,37 0,78t0,75t0,60t-1,44t0,17q-3,19 -14,25t-45,9l-18,0l0,23q0,23 2,23l10,1q10,1 29,2t37,2q17,1 37,2t30,3t11,1l3,0l0,-315q0,-317 1,-319q4,-8 12,-11q21,-3 49,-3l16,0l0,-46l-8,0l-23,1q-23,1 -49,1t-38,1t-38,0t-50,-2l-23,-1l-8,0l0,46l16,0z" stroke-width="10" id="svg_328"/>
         <path d="m128,619q-7,7 -11,9t-16,3t-43,3l-33,0l0,46l557,0l0,-4q2,-6 14,-116t14,-116l0,-4l-40,0l0,4q-7,49 -9,57q-6,37 -18,62t-27,38t-39,21t-46,9t-57,2l-40,0l-48,0q-34,0 -42,-2t-11,-10q-1,-2 -1,-131l0,-127l52,0q3,0 19,0t24,1t22,3t23,6t17,12q18,18 21,74l0,21l40,0l0,-280l-40,0l0,21q-3,55 -21,75q-8,7 -18,11t-23,6t-21,3t-24,1t-19,0l-52,0l0,-128l1,-128q7,-7 12,-9t25,-4t63,-2l27,0l0,-46l-12,0q-24,3 -166,3q-131,0 -146,-3l-11,0l0,46l33,0q42,1 51,3t19,12l0,558z" stroke-width="10" id="svg_327"/>
         <path d="m383,58q-56,-68 -127,-68l-7,0q-125,0 -144,99q-1,7 -2,137q-1,109 -1,122t-6,21q-10,16 -60,16l-11,0l0,23q0,23 2,23l11,1q10,1 29,2t38,2q17,1 37,2t30,3t12,1l3,0l0,-181q1,-184 3,-197q3,-15 14,-24q20,-14 60,-14q26,0 47,9t32,23t20,32t12,30t4,24q0,1 0,17t1,40t0,47l0,67q0,46 -10,57t-50,13l-18,0l0,46q2,0 76,5t79,6l7,0l0,-178q0,-180 1,-183q3,-20 14,-26t45,-9l18,0l0,-46q-2,0 -75,-5t-77,-6l-7,0l0,69z" stroke-width="10" id="svg_326"/>
         <path d="m41,46l14,0q39,0 47,14l0,8q0,9 0,23t0,31t1,39t0,42q0,31 0,66t-1,59l0,23q-3,19 -14,25t-45,9l-18,0l0,23q0,23 2,23l10,1q10,1 28,2t37,2q17,1 36,2t29,3t11,1l3,0l0,-40q0,-38 1,-38t5,5t12,15t19,18t29,19t38,16q20,5 51,5q114,-4 127,-113q1,-7 1,-139l0,-86q0,-38 2,-45t11,-10q21,-3 49,-3l16,0l0,-46l-8,0l-24,1q-23,1 -50,1t-38,1q-103,0 -112,-3l-8,0l0,46l16,0q61,0 61,16q1,2 1,138q-1,135 -2,143q-6,28 -20,42t-24,17t-26,2q-45,0 -79,-34q-27,-27 -34,-55t-8,-83l0,-64l0,-60q0,-30 1,-40t3,-13t9,-6q21,-3 49,-3l16,0l0,-46l-8,0l-23,1q-24,1 -51,1t-38,1q-103,0 -112,-3l-8,0l0,46l16,0z" stroke-width="10" id="svg_325"/>
         <path d="m370,305t-21,0t-36,15t-16,38q0,23 15,38q5,5 5,6t-10,2q-26,4 -49,4q-49,0 -80,-32q-47,-47 -47,-157q0,-82 31,-129q41,-61 110,-61q41,0 66,26t36,62q2,8 5,10t16,2l14,0q6,-6 6,-9q0,-4 -4,-16t-16,-33t-29,-38t-48,-31t-69,-13q-86,0 -150,64t-65,161q0,104 65,169t151,65t120,-27t34,-64q0,-23 -17,-37l-17,-15z" stroke-width="10" id="svg_324"/>
         <path d="m27,422q53,4 82,56t32,122l0,15l40,0l0,-184l135,0l0,-46l-135,0l0,-144q1,-125 1,-141t7,-32q14,-39 49,-39q44,0 54,71q1,8 1,46l0,35l40,0l0,-35l0,-12q0,-77 -42,-117q-27,-27 -70,-27q-34,0 -59,12t-38,31t-19,35t-7,32q-1,7 -1,148l0,137l-79,0l0,37l9,0z" stroke-width="10" id="svg_323"/>
         <path d="m69,609q0,28 18,44t44,16q23,-2 40,-17t17,-43q0,-30 -17,-45t-42,-15q-25,0 -42,15t-18,45zm178,-609q-15,3 -104,3q-11,0 -37,0t-50,-2l-22,-1l-8,0l0,46l16,0q28,0 49,3q9,4 11,11t2,42l0,103l0,88q0,52 -2,66t-14,19q-14,7 -47,7l-11,0l0,23q0,23 2,23l10,1q10,1 28,2t36,2q17,1 36,2t29,3t11,1l3,0l0,-380q5,-10 12,-12t35,-4l23,0l0,-46l-8,0z" stroke-width="10" id="svg_322"/>
         <path d="m28,214q0,95 65,164t157,70q90,0 155,-68t66,-165q0,-95 -64,-160t-157,-65q-97,0 -159,67t-63,157zm222,-184q122,0 122,163l0,32l0,25q0,22 -1,38t-7,38t-16,36t-31,28t-49,20q-5,1 -16,1q-30,0 -57,-12q-43,-22 -56,-61t-13,-92l0,-20q0,-96 19,-135q32,-61 105,-61z" stroke-width="10" id="svg_321"/>
         <path d="m273,0q-18,3 -127,3q-103,0 -112,-3l-8,0l0,46l16,0q28,0 49,3q8,3 12,11q1,2 1,164l0,161l-71,0l0,46l71,0l0,66l1,67l2,10q19,65 64,94t95,36q1,0 9,0t14,1q41,-3 62,-26t21,-52q0,-23 -14,-37t-37,-14t-37,14t-14,37q0,20 18,40l-4,0q-4,1 -11,1q-28,0 -50,-21t-34,-55q-6,-20 -7,-95l0,-66l111,0l0,-46l-108,0l0,-160q0,-162 1,-164t3,-4t5,-3t5,-3t7,-2t7,-1t9,-1t9,0t10,-1t10,0l31,0l0,-46l-9,0z" stroke-width="10" id="svg_320"/>
         <path d="m41,46l14,0q39,0 47,14l0,8q0,9 0,23t0,33t0,43t1,50t0,55t0,57q0,37 0,78t0,75t-1,60t0,44t0,17q-3,19 -14,25t-45,9l-18,0l0,23q0,23 2,23l10,1q10,1 29,2t37,2q17,1 37,2t30,3t11,1l3,0l0,-327q60,75 144,75q123,0 135,-113q1,-7 1,-139l0,-86q0,-38 2,-45t11,-10q21,-3 49,-3l16,0l0,-46l-8,0l-24,1q-23,1 -50,1t-38,1q-103,0 -112,-3l-8,0l0,46l16,0q61,0 61,16q1,2 1,138q-1,135 -2,143q-6,28 -20,42t-24,17t-26,2q-45,0 -79,-34q-27,-27 -34,-55t-8,-83l0,-64l0,-60q0,-30 1,-40t3,-13t9,-6q21,-3 49,-3l16,0l0,-46l-8,0l-23,1q-24,1 -51,1t-38,1q-103,0 -112,-3l-8,0l0,46l16,0z" stroke-width="10" id="svg_319"/>
         <path d="m36,46l14,0q39,0 47,14l0,8q0,9 0,23t1,31t0,39t0,42q0,31 0,66t0,59l-1,23q-3,19 -14,25t-45,9l-18,0l0,23q0,23 2,23l10,1q10,1 28,2t36,2q16,1 35,2t29,3t11,1l3,0l0,-69q39,68 97,68l6,0q45,0 66,-22t21,-46q0,-21 -13,-36t-38,-15q-25,0 -37,16t-13,34q0,9 2,16t5,12t3,5q-2,2 -23,-4q-16,-8 -24,-15q-47,-45 -47,-179l0,-53q0,-13 0,-27t0,-26t1,-20t0,-15l0,-5q1,-2 3,-4t5,-3t5,-3t7,-2t7,-1t9,-1t9,0t10,-1t10,0l31,0l0,-46l-9,0q-18,3 -127,3q-103,0 -112,-3l-8,0l0,46l16,0z" stroke-width="10" id="svg_318"/>
         <path d="m128,622q-7,7 -11,9t-16,3t-43,3l-33,0l0,46l11,0q21,-3 144,-3q135,0 144,3l11,0l0,-46l-22,0q-78,0 -80,-17q-1,-2 -1,-158l1,-155l146,142q46,45 100,97q39,38 45,45t7,16l0,1q0,22 -28,28q-2,0 -5,0t-5,1l-4,0l0,46l10,0q18,-3 131,-3q74,0 86,3l6,0l0,-46l-14,0q-75,-4 -119,-40q-5,-5 -94,-91t-89,-87t109,-165t116,-174q13,-20 31,-26t53,-8l21,0l0,-46l-8,0q-9,3 -113,3q-122,0 -143,-3l-11,0l0,46l8,0q46,0 46,26q0,6 -3,12l-176,267q-4,-3 -58,-55l-46,-45l0,-95q0,-94 3,-98q8,-11 67,-12l33,0l0,-46l-11,0q-21,3 -144,3q-135,0 -144,-3l-11,0l0,46l33,0q42,1 51,3t19,12l0,561z" stroke-width="10" id="svg_317"/>
         <path d="m376,495q0,16 0,40t1,33q0,45 -10,56t-51,13l-18,0l0,23q0,23 2,23l10,1q10,1 29,2t37,2q17,1 37,2t30,3t11,1l3,0l0,-304q0,-306 1,-309q3,-20 14,-26t45,-9l18,0l0,-46q-2,0 -76,-5t-79,-6l-7,0l0,55l-8,-7q-58,-48 -130,-48q-77,0 -139,61t-62,165q0,100 63,163t147,64q75,0 132,-49l0,102zm-3,-153q-45,63 -113,63q-49,0 -87,-36q-27,-28 -34,-64t-8,-94q0,-56 7,-91t35,-61q30,-33 78,-33q71,0 122,77l0,239z" stroke-width="10" id="svg_316"/>
         <path d="m74,431q1,0 72,5t73,6q12,0 12,-8q0,-6 -46,-193l-48,-190l3,0l10,4q11,4 27,12t37,19t47,33t51,46q98,99 133,229q13,48 51,48q13,0 23,-8t11,-23q0,-21 -14,-59t-47,-90t-81,-100t-121,-92t-161,-65q-25,-7 -35,-7q-5,0 -12,1t-8,2q-6,4 -6,10q0,2 43,177l44,176q1,13 -7,16t-39,5l-21,0q-6,6 -6,8t2,19q4,19 13,19z" stroke-width="10" id="svg_315"/>
         <path d="m96,585q56,81 153,81q48,0 96,-26t78,-92q37,-83 37,-228q0,-155 -43,-237q-20,-42 -55,-67t-61,-31t-51,-7q-26,0 -52,6t-61,32t-55,67q-43,82 -43,237q0,174 57,265zm225,12q-30,32 -71,32q-42,0 -72,-32q-25,-26 -33,-72t-8,-192q0,-158 8,-208t36,-79q28,-30 69,-30q40,0 68,30q29,30 36,84t8,203q0,145 -8,191t-33,73z" stroke-width="10" id="svg_314"/>
         <path d="m78,35t0,25t16,43t43,18q28,0 50,-25t23,-88q0,-35 -9,-68t-21,-57t-26,-41t-24,-27t-13,-9q-4,0 -13,9t-9,13q0,4 11,16t25,30t26,50t16,73l0,12l-1,-1q-2,-1 -5,-2t-6,-3t-9,-2t-12,-1q-27,0 -44,17l-18,18z" stroke-width="10" id="svg_313"/>
         <path d="m462,0q-18,3 -129,3q-116,0 -134,-3l-9,0l0,46l31,0q20,0 27,0t17,2t14,5t7,8q1,2 1,54l0,50l-259,0l0,46l151,231q153,232 155,233q2,2 21,2l18,0l6,-6l0,-460l92,0l0,-46l-92,0l0,-51q0,-41 0,-48t6,-12q8,-7 57,-8l29,0l0,-46l-9,0zm-169,211l0,334l-219,-333l109,-1l110,0z" stroke-width="10" id="svg_312"/>
         <path d="m447,625q0,12 -93,12l-25,0q-6,5 -6,8t2,19q4,13 10,19l17,0q41,-2 146,-2q43,0 70,0t37,1t14,0q14,0 14,-10q0,-2 -3,-14q-4,-16 -7,-18t-19,-3q-52,0 -59,-14q-4,-13 -62,-247q-63,-248 -64,-249q-22,-63 -86,-106t-138,-43q-58,0 -98,30t-40,80q0,42 23,64t52,22q45,0 50,-44q0,-32 -18,-50t-41,-24q-8,-2 -8,-3t7,-9q26,-29 75,-29q38,0 74,32t53,83q4,12 63,250t60,245z" stroke-width="10" id="svg_311"/>
         <path d="m66,637q-12,0 -17,0t-10,1t-7,3t-2,6t3,17t9,18q2,1 14,1q48,-3 109,-3q123,0 141,3l10,0q6,-6 6,-9t-2,-18q-4,-13 -10,-19l-12,0q-56,0 -56,-13q0,-5 50,-147t51,-144l3,3q4,4 12,13t21,24t32,37t43,51q92,107 107,126t16,31q0,16 -32,19q-17,0 -17,10q0,2 2,14q3,15 5,18t14,4q2,0 29,-1t79,-2q27,0 56,1t33,1q17,0 17,-9q0,-4 -3,-16t-5,-14q-2,-6 -21,-6q-72,-5 -117,-50q-9,-9 -140,-163l-129,-151l-26,-104q-27,-107 -27,-112q0,-11 68,-11q16,0 21,-1t6,-10q0,-2 -2,-12q-4,-17 -6,-19t-16,-3q-5,0 -42,0t-92,1q-62,0 -94,0t-36,-1q-18,0 -18,8q0,5 3,15q1,3 2,6t1,5t1,4t2,3t3,2t5,1t6,0t9,1t13,0q39,1 51,4t18,13q3,5 29,108l25,103l-123,349q-1,1 -2,2t-2,2t-3,2t-4,2t-5,2t-8,1t-9,1t-13,1t-17,1z" stroke-width="10" id="svg_310"/>
         <path d="m42,0l-2,0q-14,0 -14,11q0,4 3,16q4,14 7,16t19,3q86,3 135,52q10,10 116,126t105,118q-109,278 -114,283q-9,11 -63,12l-28,0q-6,6 -6,8t2,19q4,13 10,19l14,0q34,-2 121,-2q33,0 61,0t45,1t20,0q17,0 17,-11q0,-1 -2,-13q-4,-15 -7,-18t-16,-3q-31,-3 -54,-17l77,-194l53,59q105,113 105,125q0,18 -24,25q-5,0 -13,2q-15,0 -15,11q0,2 2,16q4,13 10,19l12,0q1,0 25,0t54,-2t41,-1q90,0 99,3l8,0q7,-7 7,-11q-2,-25 -12,-35l-16,0q-34,-1 -61,-9t-41,-17t-24,-18l-11,-9q0,1 -95,-104l-87,-96q0,-1 31,-80t65,-162t37,-86q10,-9 61,-10q35,0 35,-9q0,-2 -2,-14q-4,-16 -7,-19t-14,-3q-3,0 -33,0t-89,1q-61,0 -93,0t-35,-1q-17,0 -17,9q0,1 2,15q2,10 4,14t5,5t9,2t16,1t26,7q17,8 17,10q-1,0 -47,117l-47,118q-188,-204 -193,-215q-4,-8 -4,-12q0,-19 29,-25q1,0 6,0t6,-1q3,0 4,0t3,-1t3,-3t1,-7q0,-9 -2,-16q-3,-13 -6,-15t-15,-3q-3,0 -18,0t-42,1t-59,0q-78,0 -100,-2z" stroke-width="10" id="svg_309"/>
         <path d="m52,289q7,42 54,97t116,56q35,0 64,-18t43,-45q42,63 101,63q37,0 64,-22t28,-59q0,-29 -14,-47t-27,-22t-23,-4q-19,0 -31,11t-12,29q0,46 50,63q-11,13 -40,13q-13,0 -19,-2q-38,-16 -56,-66q-60,-221 -60,-258q0,-28 16,-40t35,-12q37,0 73,33t49,81q3,10 6,11t16,2l4,0q15,0 15,-8q0,-1 -2,-11q-16,-57 -62,-101t-107,-44q-70,0 -106,63q-41,-62 -94,-62l-6,0q-49,0 -70,26t-22,55q0,32 19,52t45,20q43,0 43,-42q0,-20 -12,-35t-23,-20t-13,-5l-3,-1q0,-1 6,-4t16,-7t19,-3q36,0 62,45q9,16 23,68t28,108t16,66q5,27 5,39q0,28 -15,40t-34,12q-40,0 -75,-32t-49,-82q-2,-9 -5,-10t-16,-2l-14,0q-6,6 -6,11z" stroke-width="10" id="svg_305"/>
         <path d="m56,237t0,13t14,20l299,0l0,150l1,150q10,13 19,13q13,0 20,-15l0,-298l298,0q15,-8 15,-20t-15,-20l-298,0l0,-298q-8,-14 -18,-14l-2,0l-2,0q-12,0 -18,14l0,298l-299,0q-14,7 -14,20l0,-13z" stroke-width="10" id="svg_303"/>
         <path d="m21,287q0,14 15,48t48,71t74,36q41,0 66,-23t26,-64q-2,-19 -3,-21q0,-3 -16,-46t-33,-97t-16,-86q0,-43 14,-60t42,-18q23,0 43,11t31,23t27,33q0,1 5,20t14,59t19,74q38,150 42,157q13,27 43,27q13,0 21,-7t11,-12t2,-9q0,-13 -49,-210t-56,-216q-28,-83 -97,-132t-138,-50q-45,0 -79,22t-34,66q0,22 7,37t19,22t20,10t17,3q44,0 44,-42q0,-20 -12,-35t-23,-20t-13,-5l-3,-1q2,-5 19,-12t34,-7l8,0q17,0 26,2q33,9 61,38t43,62t23,56t8,30l-6,-4q-6,-4 -19,-11t-26,-12q-20,-5 -39,-5q-46,0 -81,22t-46,71q-1,7 -1,31q0,57 35,149t35,117q0,1 0,2q0,9 0,12t-4,7t-11,4l-4,0q-23,0 -42,-19t-30,-41t-17,-42t-8,-22q-2,-2 -16,-2l-14,0q-6,6 -6,9z" stroke-width="10" id="svg_299"/>
         <path d="m70,417t0,77t54,124t124,48q71,0 126,-42t55,-109q0,-30 -11,-56t-26,-42t-31,-28t-26,-18t-11,-8l14,-9q14,-10 28,-20t16,-11q75,-59 75,-149q0,-79 -58,-137t-150,-59q-90,0 -148,51t-58,126q0,108 129,180l-18,13q-21,13 -27,20q-57,49 -57,126l0,-77zm216,-31l6,4q6,4 9,6t10,7t12,10t11,12t11,13t10,16t9,17t5,20t2,22q0,43 -29,73t-67,38q-7,1 -33,1q-41,0 -77,-26t-37,-65q0,-23 13,-42t26,-29t50,-32q7,-5 11,-7l58,-38zm-36,-365q58,0 100,34t42,82q0,17 -5,32t-12,25t-22,22t-23,18t-29,19t-27,17q-14,9 -30,19t-26,17l-8,5q-6,0 -29,-17t-48,-55t-26,-82q0,-59 43,-97t100,-39z" stroke-width="10" id="svg_308"/>
        </defs>
        <g id="svg_291" transform="matrix(1 0 0 -1 0 0)" stroke-width="0" fill="rgb(68, 68, 68)" stroke="rgb(68, 68, 68)">
         <use id="svg_306" xlink:href="#svg_307"/>
         <use id="svg_304" y="0" x="505" xlink:href="#svg_305"/>
         <use id="svg_302" y="0" x="1304" xlink:href="#svg_303"/>
         <use id="svg_300" y="0" x="2309" xlink:href="#svg_301"/>
         <use id="svg_298" y="0" x="2814" xlink:href="#svg_299"/>
         <use id="svg_296" y="0" x="3594" xlink:href="#svg_297"/>
         <g id="svg_292">
          <use id="svg_295" x="4655" y="0" xlink:href="#svg_294"/>
          <use id="svg_293" y="0" x="5160" xlink:href="#svg_294"/>
         </g>
        </g>
       </svg>
      </g>
     </g>
     <g id="svg_121" class="traces">
      <g id="svg_213" class="legendfill"/>
      <g id="svg_211" class="legendlines">
       <path id="svg_212" fill="none" stroke="rgb(31, 119, 180)" stroke-width="2px" d="m5,52.5l30,0" class="js-line"/>
      </g>
      <g id="svg_208" class="legendsymbols">
       <g id="svg_209" class="legendpoints">
        <path id="svg_210" stroke-width="0px" fill="rgb(31, 119, 180)" d="m23,52.5a3,3 0 1 1 -3,-3a3,3 0 0 1 3,3z" class="scatterpts"/>
       </g>
      </g>
      <rect id="svg_207" fill="rgb(0, 0, 0)" fill-opacity="0" width="126.98438" height="19" y="43" x="0" class="legendtoggle"/>
      <g id="svg_122" class="legendtext-math-group">
       <svg id="svg_338" width="12ex" y="46.64365" x="40" preserveAspectRatio="xMinYMin meet" height="2.182ex" class="legendtext-math" viewBox="0 -699.7742397004789 5160 927.5484794009578" xmlns:xlink="http://www.w3.org/1999/xlink">
        <defs>
         <path d="m58,-216q-14,0 -24,8t-11,22q0,10 73,302t77,298q13,28 46,28q12,-1 20,-7t10,-12t2,-10q0,-12 -31,-134t-33,-137q-2,-11 -2,-35l0,-8q0,-73 67,-73q9,0 18,1t17,4t15,7t13,7t12,10t11,10t10,12t8,11t9,12l7,10l36,143q36,142 40,151q13,27 43,27q13,0 21,-7t11,-12t2,-10l-76,-318q-1,-5 -1,-16q0,-25 7,-33t21,-9q9,1 20,9q21,20 41,96q6,20 10,21q2,1 10,1l4,0q19,0 19,-9q0,-6 -5,-27t-20,-54t-32,-50q-13,-13 -32,-21q-8,-2 -24,-2q-21,0 -38,6t-27,15t-17,18t-9,15t-2,7l-6,-6q-6,-6 -18,-15t-26,-18t-36,-16t-42,-7q-47,0 -93,23l-24,-97q-21,-82 -25,-95t-12,-22q-16,-14 -34,-14z" stroke-width="10" id="svg_383"/>
         <path d="m56,347q0,13 14,20l637,0q15,-8 15,-20q0,-11 -14,-19l-318,-1l-318,0q-16,5 -16,20zm0,-194q0,15 16,20l636,0q14,-10 14,-20q0,-13 -15,-20l-637,0q-14,7 -14,20z" stroke-width="10" id="svg_343"/>
         <path d="m213,578l-13,-5q-14,-5 -40,-10t-58,-7l-19,0l0,46l19,0q47,2 87,15t56,24t28,22q2,3 12,3q9,0 17,-6l0,-299l1,-300q7,-7 12,-9t24,-4t62,-2l26,0l0,-46l-11,0q-21,3 -159,3q-136,0 -157,-3l-12,0l0,46l26,0q22,0 38,0t25,1t16,3t8,2t6,5t6,4l0,517z" stroke-width="10" id="svg_382"/>
         <path d="m55,458q1,2 17,109l16,107q0,2 20,2l20,0l0,-4q0,-10 15,-17t52,-9t169,-2l121,0l0,-39l-68,-93q-9,-12 -30,-40t-27,-37t-21,-32t-20,-36t-14,-37t-13,-46t-8,-54t-6,-68t-3,-82q0,-14 0,-28t-1,-24l0,-9q-4,-17 -19,-29t-34,-12q-11,0 -21,3t-21,19t-11,40q0,158 97,328q20,32 84,121l46,63l-93,0q-174,0 -183,-6q-6,-3 -11,-24t-10,-43l-3,-21l0,-3l-40,0l0,3z" stroke-width="10" id="svg_381"/>
         <path d="m78,60q0,24 17,42t43,18q24,0 42,-16t19,-43q0,-25 -17,-43t-43,-18t-43,17t-18,43z" stroke-width="10" id="svg_380"/>
         <path d="m42,313q0,163 81,258t180,95q69,0 99,-36t30,-80q0,-25 -14,-40t-39,-15q-23,0 -38,14t-15,39q0,44 47,53q-22,22 -62,25q-71,0 -117,-60q-47,-66 -47,-202l1,-4q5,6 8,13q41,60 107,60l4,0q46,0 81,-19q24,-14 48,-40t39,-57q21,-49 21,-107l0,-18q0,-23 -5,-43q-11,-59 -64,-115t-134,-56q-28,0 -54,8t-56,30t-51,59t-36,97t-14,141zm215,84q-30,0 -52,-17t-34,-45t-17,-57t-6,-62q0,-83 12,-119t38,-58q24,-18 53,-18q51,0 78,38q13,18 18,45t5,105q0,80 -5,107t-18,45q-27,36 -72,36z" stroke-width="10" id="svg_379"/>
         <path d="m109,429q-27,0 -43,18t-16,44q0,71 53,123t132,52q91,0 152,-56t62,-145q0,-43 -20,-82t-48,-68t-80,-74q-36,-31 -100,-92l-59,-56l76,-1q157,0 167,5q7,2 24,89l0,3l40,0l0,-3q-1,-3 -13,-91t-15,-92l0,-3l-371,0l0,19l0,12q0,7 6,15t30,35q29,32 50,56q9,10 34,37t34,37t29,33t28,34t23,30t21,32t15,29t13,32t7,30t3,33q0,63 -34,109t-97,46q-33,0 -58,-17t-35,-33t-10,-19q0,-1 5,-1q18,0 37,-14t19,-46q0,-25 -16,-42t-45,-18z" stroke-width="10" id="svg_378"/>
         <path d="m164,157q0,-24 -16,-40t-39,-16l-7,0q46,-79 122,-79q70,0 102,60q19,33 19,128q0,103 -27,139q-26,33 -58,33l-6,0q-78,0 -118,-68q-4,-7 -7,-8t-15,-2q-17,0 -19,6q-2,4 -2,175l0,129q0,50 5,50q2,2 4,2q1,0 21,-8t55,-16t75,-8q71,0 136,28q8,4 13,4q8,0 8,-18l0,-13q-82,-97 -205,-97q-31,0 -56,6l-10,2l0,-172q19,14 30,22t36,16t51,8q81,0 137,-65t56,-154q0,-92 -64,-157t-156,-66q-81,0 -130,54t-49,122q0,24 11,38t23,18t23,4q25,0 41,-17t16,-40z" stroke-width="10" id="svg_377"/>
         <path d="m127,463q-27,0 -42,17t-16,44q0,55 48,98t116,43q35,0 44,-1q74,-12 113,-53t40,-89q0,-52 -34,-101t-94,-71l-3,-2q0,-1 9,-3t29,-9t38,-21q82,-53 82,-140q0,-79 -62,-138t-157,-59q-80,0 -138,43t-58,109q0,28 18,45t45,18q28,0 46,-18t18,-45q0,-11 -3,-20t-7,-16t-11,-12t-12,-8t-10,-4t-8,-3l-4,-1q51,-45 124,-45q55,0 83,53q17,33 17,101l0,20q0,95 -64,127q-15,6 -61,7l-42,1l-3,2q-2,3 -2,16q0,18 8,18q28,0 58,5q34,5 62,42t28,112l0,8q0,57 -35,79q-22,14 -47,14q-32,0 -59,-11t-38,-23t-11,-12l3,0q3,-1 8,-2t10,-5t12,-7t10,-11t8,-15t3,-20q0,-22 -14,-39t-45,-18z" stroke-width="10" id="svg_353"/>
         <path stroke-width="10" id="svg_376"/>
         <path d="m131,622q-7,7 -11,9t-16,3t-43,3l-33,0l0,46l201,0l38,0l79,0q77,0 113,-5t72,-27q43,-24 68,-61t25,-78q0,-51 -41,-93t-107,-59l-10,-3q73,-9 129,-55t56,-115q0,-68 -51,-120t-131,-64q-13,-2 -227,-3l-214,0l0,46l33,0q42,1 51,3t19,12l0,561zm380,-109q0,47 -26,81t-69,42q-1,0 -13,0t-32,0t-38,1q-67,0 -82,-1t-19,-8q-3,-4 -3,-129l0,-125l83,0l84,1l10,2q4,1 11,3t25,13t32,24t25,39t12,57zm26,-325q0,51 -28,94t-79,54l-101,1l-100,0l0,-137l0,-84q0,-59 5,-64q6,-5 100,-5l49,0q42,0 60,6q43,14 68,51t26,84z" stroke-width="10" id="svg_375"/>
         <path d="m28,218q0,55 20,100t50,73t65,42t66,15q53,0 91,-18t58,-50t28,-64t9,-71q0,-7 -7,-14l-282,0l0,-15q0,-148 100,-180q20,-6 44,-6q42,0 72,32q17,17 27,42l10,24q3,3 16,3l3,0q17,0 17,-10q0,-4 -3,-13q-19,-55 -63,-87t-99,-32q-95,0 -158,69t-64,160zm305,57q-11,128 -95,136l-2,0q-8,0 -16,-1t-25,-8t-29,-21t-23,-41t-16,-66l0,-7l206,0l0,8z" stroke-width="10" id="svg_374"/>
         <path d="m295,316q0,40 -27,69t-78,29q-36,0 -62,-13q-30,-19 -30,-52q-1,-5 0,-13t16,-24t43,-25q18,-5 44,-9t44,-9t32,-13q17,-8 33,-20t32,-41t17,-62q0,-62 -38,-102t-123,-41l-8,0q-52,0 -96,36l-8,-7l-9,-9q-6,-6 -12,-11l-11,-10l-8,0l-4,0q-3,0 -9,6l0,79l0,58q0,21 2,25t10,5l9,0q12,0 16,-4t5,-12t7,-27t19,-42q35,-51 97,-51q97,0 97,78q0,29 -18,47q-20,24 -83,36t-83,23q-36,17 -57,46t-21,62q0,39 17,66t43,40t50,18t44,5l11,0q40,0 70,-15l15,-8l9,7q10,9 22,17l8,0l4,0q3,0 9,-6l0,-132l-6,-6l-28,0q-6,6 -6,12z" stroke-width="10" id="svg_373"/>
         <path d="m42,46l14,0q39,0 47,14l0,8q0,9 0,23t0,33t1,43t0,50t0,55t0,57q0,37 0,78t0,75t0,60t-1,44t0,17q-3,19 -14,25t-45,9l-18,0l0,23q0,23 2,23l10,1q10,1 29,2t37,2q17,1 37,2t30,3t11,1l3,0l0,-315q0,-317 1,-319q4,-8 12,-11q21,-3 49,-3l16,0l0,-46l-8,0l-23,1q-23,1 -49,1t-38,1t-38,0t-50,-2l-23,-1l-8,0l0,46l16,0z" stroke-width="10" id="svg_372"/>
         <path d="m128,619q-7,7 -11,9t-16,3t-43,3l-33,0l0,46l557,0l0,-4q2,-6 14,-116t14,-116l0,-4l-40,0l0,4q-7,49 -9,57q-6,37 -18,62t-27,38t-39,21t-46,9t-57,2l-40,0l-48,0q-34,0 -42,-2t-11,-10q-1,-2 -1,-131l0,-127l52,0q3,0 19,0t24,1t22,3t23,6t17,12q18,18 21,74l0,21l40,0l0,-280l-40,0l0,21q-3,55 -21,75q-8,7 -18,11t-23,6t-21,3t-24,1t-19,0l-52,0l0,-128l1,-128q7,-7 12,-9t25,-4t63,-2l27,0l0,-46l-12,0q-24,3 -166,3q-131,0 -146,-3l-11,0l0,46l33,0q42,1 51,3t19,12l0,558z" stroke-width="10" id="svg_371"/>
         <path d="m383,58q-56,-68 -127,-68l-7,0q-125,0 -144,99q-1,7 -2,137q-1,109 -1,122t-6,21q-10,16 -60,16l-11,0l0,23q0,23 2,23l11,1q10,1 29,2t38,2q17,1 37,2t30,3t12,1l3,0l0,-181q1,-184 3,-197q3,-15 14,-24q20,-14 60,-14q26,0 47,9t32,23t20,32t12,30t4,24q0,1 0,17t1,40t0,47l0,67q0,46 -10,57t-50,13l-18,0l0,46q2,0 76,5t79,6l7,0l0,-178q0,-180 1,-183q3,-20 14,-26t45,-9l18,0l0,-46q-2,0 -75,-5t-77,-6l-7,0l0,69z" stroke-width="10" id="svg_370"/>
         <path d="m41,46l14,0q39,0 47,14l0,8q0,9 0,23t0,31t1,39t0,42q0,31 0,66t-1,59l0,23q-3,19 -14,25t-45,9l-18,0l0,23q0,23 2,23l10,1q10,1 28,2t37,2q17,1 36,2t29,3t11,1l3,0l0,-40q0,-38 1,-38t5,5t12,15t19,18t29,19t38,16q20,5 51,5q114,-4 127,-113q1,-7 1,-139l0,-86q0,-38 2,-45t11,-10q21,-3 49,-3l16,0l0,-46l-8,0l-24,1q-23,1 -50,1t-38,1q-103,0 -112,-3l-8,0l0,46l16,0q61,0 61,16q1,2 1,138q-1,135 -2,143q-6,28 -20,42t-24,17t-26,2q-45,0 -79,-34q-27,-27 -34,-55t-8,-83l0,-64l0,-60q0,-30 1,-40t3,-13t9,-6q21,-3 49,-3l16,0l0,-46l-8,0l-23,1q-24,1 -51,1t-38,1q-103,0 -112,-3l-8,0l0,46l16,0z" stroke-width="10" id="svg_369"/>
         <path d="m370,305t-21,0t-36,15t-16,38q0,23 15,38q5,5 5,6t-10,2q-26,4 -49,4q-49,0 -80,-32q-47,-47 -47,-157q0,-82 31,-129q41,-61 110,-61q41,0 66,26t36,62q2,8 5,10t16,2l14,0q6,-6 6,-9q0,-4 -4,-16t-16,-33t-29,-38t-48,-31t-69,-13q-86,0 -150,64t-65,161q0,104 65,169t151,65t120,-27t34,-64q0,-23 -17,-37l-17,-15z" stroke-width="10" id="svg_368"/>
         <path d="m27,422q53,4 82,56t32,122l0,15l40,0l0,-184l135,0l0,-46l-135,0l0,-144q1,-125 1,-141t7,-32q14,-39 49,-39q44,0 54,71q1,8 1,46l0,35l40,0l0,-35l0,-12q0,-77 -42,-117q-27,-27 -70,-27q-34,0 -59,12t-38,31t-19,35t-7,32q-1,7 -1,148l0,137l-79,0l0,37l9,0z" stroke-width="10" id="svg_367"/>
         <path d="m69,609q0,28 18,44t44,16q23,-2 40,-17t17,-43q0,-30 -17,-45t-42,-15q-25,0 -42,15t-18,45zm178,-609q-15,3 -104,3q-11,0 -37,0t-50,-2l-22,-1l-8,0l0,46l16,0q28,0 49,3q9,4 11,11t2,42l0,103l0,88q0,52 -2,66t-14,19q-14,7 -47,7l-11,0l0,23q0,23 2,23l10,1q10,1 28,2t36,2q17,1 36,2t29,3t11,1l3,0l0,-380q5,-10 12,-12t35,-4l23,0l0,-46l-8,0z" stroke-width="10" id="svg_366"/>
         <path d="m28,214q0,95 65,164t157,70q90,0 155,-68t66,-165q0,-95 -64,-160t-157,-65q-97,0 -159,67t-63,157zm222,-184q122,0 122,163l0,32l0,25q0,22 -1,38t-7,38t-16,36t-31,28t-49,20q-5,1 -16,1q-30,0 -57,-12q-43,-22 -56,-61t-13,-92l0,-20q0,-96 19,-135q32,-61 105,-61z" stroke-width="10" id="svg_365"/>
         <path d="m273,0q-18,3 -127,3q-103,0 -112,-3l-8,0l0,46l16,0q28,0 49,3q8,3 12,11q1,2 1,164l0,161l-71,0l0,46l71,0l0,66l1,67l2,10q19,65 64,94t95,36q1,0 9,0t14,1q41,-3 62,-26t21,-52q0,-23 -14,-37t-37,-14t-37,14t-14,37q0,20 18,40l-4,0q-4,1 -11,1q-28,0 -50,-21t-34,-55q-6,-20 -7,-95l0,-66l111,0l0,-46l-108,0l0,-160q0,-162 1,-164t3,-4t5,-3t5,-3t7,-2t7,-1t9,-1t9,0t10,-1t10,0l31,0l0,-46l-9,0z" stroke-width="10" id="svg_364"/>
         <path d="m41,46l14,0q39,0 47,14l0,8q0,9 0,23t0,33t0,43t1,50t0,55t0,57q0,37 0,78t0,75t-1,60t0,44t0,17q-3,19 -14,25t-45,9l-18,0l0,23q0,23 2,23l10,1q10,1 29,2t37,2q17,1 37,2t30,3t11,1l3,0l0,-327q60,75 144,75q123,0 135,-113q1,-7 1,-139l0,-86q0,-38 2,-45t11,-10q21,-3 49,-3l16,0l0,-46l-8,0l-24,1q-23,1 -50,1t-38,1q-103,0 -112,-3l-8,0l0,46l16,0q61,0 61,16q1,2 1,138q-1,135 -2,143q-6,28 -20,42t-24,17t-26,2q-45,0 -79,-34q-27,-27 -34,-55t-8,-83l0,-64l0,-60q0,-30 1,-40t3,-13t9,-6q21,-3 49,-3l16,0l0,-46l-8,0l-23,1q-24,1 -51,1t-38,1q-103,0 -112,-3l-8,0l0,46l16,0z" stroke-width="10" id="svg_363"/>
         <path d="m36,46l14,0q39,0 47,14l0,8q0,9 0,23t1,31t0,39t0,42q0,31 0,66t0,59l-1,23q-3,19 -14,25t-45,9l-18,0l0,23q0,23 2,23l10,1q10,1 28,2t36,2q16,1 35,2t29,3t11,1l3,0l0,-69q39,68 97,68l6,0q45,0 66,-22t21,-46q0,-21 -13,-36t-38,-15q-25,0 -37,16t-13,34q0,9 2,16t5,12t3,5q-2,2 -23,-4q-16,-8 -24,-15q-47,-45 -47,-179l0,-53q0,-13 0,-27t0,-26t1,-20t0,-15l0,-5q1,-2 3,-4t5,-3t5,-3t7,-2t7,-1t9,-1t9,0t10,-1t10,0l31,0l0,-46l-9,0q-18,3 -127,3q-103,0 -112,-3l-8,0l0,46l16,0z" stroke-width="10" id="svg_362"/>
         <path d="m128,622q-7,7 -11,9t-16,3t-43,3l-33,0l0,46l11,0q21,-3 144,-3q135,0 144,3l11,0l0,-46l-22,0q-78,0 -80,-17q-1,-2 -1,-158l1,-155l146,142q46,45 100,97q39,38 45,45t7,16l0,1q0,22 -28,28q-2,0 -5,0t-5,1l-4,0l0,46l10,0q18,-3 131,-3q74,0 86,3l6,0l0,-46l-14,0q-75,-4 -119,-40q-5,-5 -94,-91t-89,-87t109,-165t116,-174q13,-20 31,-26t53,-8l21,0l0,-46l-8,0q-9,3 -113,3q-122,0 -143,-3l-11,0l0,46l8,0q46,0 46,26q0,6 -3,12l-176,267q-4,-3 -58,-55l-46,-45l0,-95q0,-94 3,-98q8,-11 67,-12l33,0l0,-46l-11,0q-21,3 -144,3q-135,0 -144,-3l-11,0l0,46l33,0q42,1 51,3t19,12l0,561z" stroke-width="10" id="svg_361"/>
         <path d="m376,495q0,16 0,40t1,33q0,45 -10,56t-51,13l-18,0l0,23q0,23 2,23l10,1q10,1 29,2t37,2q17,1 37,2t30,3t11,1l3,0l0,-304q0,-306 1,-309q3,-20 14,-26t45,-9l18,0l0,-46q-2,0 -76,-5t-79,-6l-7,0l0,55l-8,-7q-58,-48 -130,-48q-77,0 -139,61t-62,165q0,100 63,163t147,64q75,0 132,-49l0,102zm-3,-153q-45,63 -113,63q-49,0 -87,-36q-27,-28 -34,-64t-8,-94q0,-56 7,-91t35,-61q30,-33 78,-33q71,0 122,77l0,239z" stroke-width="10" id="svg_360"/>
         <path d="m74,431q1,0 72,5t73,6q12,0 12,-8q0,-6 -46,-193l-48,-190l3,0l10,4q11,4 27,12t37,19t47,33t51,46q98,99 133,229q13,48 51,48q13,0 23,-8t11,-23q0,-21 -14,-59t-47,-90t-81,-100t-121,-92t-161,-65q-25,-7 -35,-7q-5,0 -12,1t-8,2q-6,4 -6,10q0,2 43,177l44,176q1,13 -7,16t-39,5l-21,0q-6,6 -6,8t2,19q4,19 13,19z" stroke-width="10" id="svg_359"/>
         <path d="m96,585q56,81 153,81q48,0 96,-26t78,-92q37,-83 37,-228q0,-155 -43,-237q-20,-42 -55,-67t-61,-31t-51,-7q-26,0 -52,6t-61,32t-55,67q-43,82 -43,237q0,174 57,265zm225,12q-30,32 -71,32q-42,0 -72,-32q-25,-26 -33,-72t-8,-192q0,-158 8,-208t36,-79q28,-30 69,-30q40,0 68,30q29,30 36,84t8,203q0,145 -8,191t-33,73z" stroke-width="10" id="svg_358"/>
         <path d="m78,35t0,25t16,43t43,18q28,0 50,-25t23,-88q0,-35 -9,-68t-21,-57t-26,-41t-24,-27t-13,-9q-4,0 -13,9t-9,13q0,4 11,16t25,30t26,50t16,73l0,12l-1,-1q-2,-1 -5,-2t-6,-3t-9,-2t-12,-1q-27,0 -44,17l-18,18z" stroke-width="10" id="svg_357"/>
         <path d="m462,0q-18,3 -129,3q-116,0 -134,-3l-9,0l0,46l31,0q20,0 27,0t17,2t14,5t7,8q1,2 1,54l0,50l-259,0l0,46l151,231q153,232 155,233q2,2 21,2l18,0l6,-6l0,-460l92,0l0,-46l-92,0l0,-51q0,-41 0,-48t6,-12q8,-7 57,-8l29,0l0,-46l-9,0zm-169,211l0,334l-219,-333l109,-1l110,0z" stroke-width="10" id="svg_347"/>
         <path d="m447,625q0,12 -93,12l-25,0q-6,5 -6,8t2,19q4,13 10,19l17,0q41,-2 146,-2q43,0 70,0t37,1t14,0q14,0 14,-10q0,-2 -3,-14q-4,-16 -7,-18t-19,-3q-52,0 -59,-14q-4,-13 -62,-247q-63,-248 -64,-249q-22,-63 -86,-106t-138,-43q-58,0 -98,30t-40,80q0,42 23,64t52,22q45,0 50,-44q0,-32 -18,-50t-41,-24q-8,-2 -8,-3t7,-9q26,-29 75,-29q38,0 74,32t53,83q4,12 63,250t60,245z" stroke-width="10" id="svg_356"/>
         <path d="m66,637q-12,0 -17,0t-10,1t-7,3t-2,6t3,17t9,18q2,1 14,1q48,-3 109,-3q123,0 141,3l10,0q6,-6 6,-9t-2,-18q-4,-13 -10,-19l-12,0q-56,0 -56,-13q0,-5 50,-147t51,-144l3,3q4,4 12,13t21,24t32,37t43,51q92,107 107,126t16,31q0,16 -32,19q-17,0 -17,10q0,2 2,14q3,15 5,18t14,4q2,0 29,-1t79,-2q27,0 56,1t33,1q17,0 17,-9q0,-4 -3,-16t-5,-14q-2,-6 -21,-6q-72,-5 -117,-50q-9,-9 -140,-163l-129,-151l-26,-104q-27,-107 -27,-112q0,-11 68,-11q16,0 21,-1t6,-10q0,-2 -2,-12q-4,-17 -6,-19t-16,-3q-5,0 -42,0t-92,1q-62,0 -94,0t-36,-1q-18,0 -18,8q0,5 3,15q1,3 2,6t1,5t1,4t2,3t3,2t5,1t6,0t9,1t13,0q39,1 51,4t18,13q3,5 29,108l25,103l-123,349q-1,1 -2,2t-2,2t-3,2t-4,2t-5,2t-8,1t-9,1t-13,1t-17,1z" stroke-width="10" id="svg_355"/>
         <path d="m42,0l-2,0q-14,0 -14,11q0,4 3,16q4,14 7,16t19,3q86,3 135,52q10,10 116,126t105,118q-109,278 -114,283q-9,11 -63,12l-28,0q-6,6 -6,8t2,19q4,13 10,19l14,0q34,-2 121,-2q33,0 61,0t45,1t20,0q17,0 17,-11q0,-1 -2,-13q-4,-15 -7,-18t-16,-3q-31,-3 -54,-17l77,-194l53,59q105,113 105,125q0,18 -24,25q-5,0 -13,2q-15,0 -15,11q0,2 2,16q4,13 10,19l12,0q1,0 25,0t54,-2t41,-1q90,0 99,3l8,0q7,-7 7,-11q-2,-25 -12,-35l-16,0q-34,-1 -61,-9t-41,-17t-24,-18l-11,-9q0,1 -95,-104l-87,-96q0,-1 31,-80t65,-162t37,-86q10,-9 61,-10q35,0 35,-9q0,-2 -2,-14q-4,-16 -7,-19t-14,-3q-3,0 -33,0t-89,1q-61,0 -93,0t-35,-1q-17,0 -17,9q0,1 2,15q2,10 4,14t5,5t9,2t16,1t26,7q17,8 17,10q-1,0 -47,117l-47,118q-188,-204 -193,-215q-4,-8 -4,-12q0,-19 29,-25q1,0 6,0t6,-1q3,0 4,0t3,-1t3,-3t1,-7q0,-9 -2,-16q-3,-13 -6,-15t-15,-3q-3,0 -18,0t-42,1t-59,0q-78,0 -100,-2z" stroke-width="10" id="svg_354"/>
         <path d="m52,289q7,42 54,97t116,56q35,0 64,-18t43,-45q42,63 101,63q37,0 64,-22t28,-59q0,-29 -14,-47t-27,-22t-23,-4q-19,0 -31,11t-12,29q0,46 50,63q-11,13 -40,13q-13,0 -19,-2q-38,-16 -56,-66q-60,-221 -60,-258q0,-28 16,-40t35,-12q37,0 73,33t49,81q3,10 6,11t16,2l4,0q15,0 15,-8q0,-1 -2,-11q-16,-57 -62,-101t-107,-44q-70,0 -106,63q-41,-62 -94,-62l-6,0q-49,0 -70,26t-22,55q0,32 19,52t45,20q43,0 43,-42q0,-20 -12,-35t-23,-20t-13,-5l-3,-1q0,-1 6,-4t16,-7t19,-3q36,0 62,45q9,16 23,68t28,108t16,66q5,27 5,39q0,28 -15,40t-34,12q-40,0 -75,-32t-49,-82q-2,-9 -5,-10t-16,-2l-14,0q-6,6 -6,11z" stroke-width="10" id="svg_351"/>
         <path d="m56,237t0,13t14,20l299,0l0,150l1,150q10,13 19,13q13,0 20,-15l0,-298l298,0q15,-8 15,-20t-15,-20l-298,0l0,-298q-8,-14 -18,-14l-2,0l-2,0q-12,0 -18,14l0,298l-299,0q-14,7 -14,20l0,-13z" stroke-width="10" id="svg_349"/>
         <path d="m21,287q0,14 15,48t48,71t74,36q41,0 66,-23t26,-64q-2,-19 -3,-21q0,-3 -16,-46t-33,-97t-16,-86q0,-43 14,-60t42,-18q23,0 43,11t31,23t27,33q0,1 5,20t14,59t19,74q38,150 42,157q13,27 43,27q13,0 21,-7t11,-12t2,-9q0,-13 -49,-210t-56,-216q-28,-83 -97,-132t-138,-50q-45,0 -79,22t-34,66q0,22 7,37t19,22t20,10t17,3q44,0 44,-42q0,-20 -12,-35t-23,-20t-13,-5l-3,-1q2,-5 19,-12t34,-7l8,0q17,0 26,2q33,9 61,38t43,62t23,56t8,30l-6,-4q-6,-4 -19,-11t-26,-12q-20,-5 -39,-5q-46,0 -81,22t-46,71q-1,7 -1,31q0,57 35,149t35,117q0,1 0,2q0,9 0,12t-4,7t-11,4l-4,0q-23,0 -42,-19t-30,-41t-17,-42t-8,-22q-2,-2 -16,-2l-14,0q-6,6 -6,9z" stroke-width="10" id="svg_345"/>
         <path d="m70,417t0,77t54,124t124,48q71,0 126,-42t55,-109q0,-30 -11,-56t-26,-42t-31,-28t-26,-18t-11,-8l14,-9q14,-10 28,-20t16,-11q75,-59 75,-149q0,-79 -58,-137t-150,-59q-90,0 -148,51t-58,126q0,108 129,180l-18,13q-21,13 -27,20q-57,49 -57,126l0,-77zm216,-31l6,4q6,4 9,6t10,7t12,10t11,12t11,13t10,16t9,17t5,20t2,22q0,43 -29,73t-67,38q-7,1 -33,1q-41,0 -77,-26t-37,-65q0,-23 13,-42t26,-29t50,-32q7,-5 11,-7l58,-38zm-36,-365q58,0 100,34t42,82q0,17 -5,32t-12,25t-22,22t-23,18t-29,19t-27,17q-14,9 -30,19t-26,17l-8,5q-6,0 -29,-17t-48,-55t-26,-82q0,-59 43,-97t100,-39z" stroke-width="10" id="svg_341"/>
        </defs>
        <g id="svg_339" transform="matrix(1 0 0 -1 0 0)" stroke-width="0" fill="rgb(68, 68, 68)" stroke="rgb(68, 68, 68)">
         <use id="svg_352" xlink:href="#svg_353"/>
         <use id="svg_350" y="0" x="505" xlink:href="#svg_351"/>
         <use id="svg_348" y="0" x="1304" xlink:href="#svg_349"/>
         <use id="svg_346" y="0" x="2309" xlink:href="#svg_347"/>
         <use id="svg_344" y="0" x="2814" xlink:href="#svg_345"/>
         <use id="svg_342" y="0" x="3594" xlink:href="#svg_343"/>
         <use id="svg_340" y="0" x="4655" xlink:href="#svg_341"/>
        </g>
       </svg>
      </g>
     </g>
    </svg>
   </g>
   <g class="annotation" id="svg_220">
    <g class="annotation-text-g" id="svg_67">
     <svg x="493" y="266" width="45" height="21" id="svg_384">
      <rect class="bg" x="0.5" y="0.5" width="44" height="20" fill-opacity="0" fill="rgb(0, 0, 0)" stroke-opacity="0" stroke="rgb(0, 0, 0)" stroke-width="1px" id="svg_386"/>
      <text class="annotation" text-anchor="middle" x="22.25" y="15" fill="rgb(68, 68, 68)" font-size="12px" font-family="'Open sans', verdana, arial, sans-serif" id="svg_385">(2.2, 0))</text>
     </svg>
    </g>
    <g class="annotation-arrow-g" id="svg_224">
     <path d="m518.503357,286.279999l6.666626,20" stroke-dasharray="19.8818386077881px, 21.0818386077881px" stroke="rgb(68, 68, 68)" stroke-width="2px" id="svg_225"/>
     <path d="m-2.4,-3l0,6l3,-3l-3,-3z" transform="rotate(71.5706, 522.216, 302.811) translate(524.791, 305.142) scale(2)" stroke-width="0px" fill="rgb(68, 68, 68)" id="svg_226"/>
     <path class="annotation anndrag" d="m528.169983,309.279999l-6,0l0,-6l6,0l0,6zm-3,-3l-6.666687,-20" fill-opacity="0" fill="rgb(0, 0, 0)" stroke-opacity="0" stroke="rgb(0, 0, 0)" stroke-width="8px" id="svg_227"/>
    </g>
   </g>
  </g>
 </g>
</svg>