<?xml version="1.0" encoding="UTF-8"?>
<svg width="869" height="473" xmlns="http://www.w3.org/2000/svg" xmlns:svg="http://www.w3.org/2000/svg" xmlns:xlink="http://www.w3.org/1999/xlink" class="main-svg">
 <defs>
  <g class="clips" id="svg_88">
   <clipPath class="axesclip" id="clipfc8aa5x">
    <rect x="80" y="0" width="632" height="473" id="svg_89"/>
   </clipPath>
   <clipPath class="axesclip" id="clipfc8aa5y">
    <rect x="0" y="100" width="869" height="293" id="svg_90"/>
   </clipPath>
   <clipPath class="axesclip" id="clipfc8aa5xy">
    <rect x="80" y="100" width="632" height="293" id="svg_91"/>
   </clipPath>
  </g>
 </defs>
 <g>
  <title>Layer 1</title>
  <rect x="0" y="0" width="869" height="473" fill="rgb(255, 255, 255)" id="svg_92"/>
  <g class="draglayer" id="svg_93">
   <g id="svg_94"/>
  </g>
  <g class="subplot xy" id="svg_95">
   <rect x="80" y="100" width="632" height="293" fill="rgb(255, 255, 255)" stroke-width="0px" id="svg_96"/>
   <g id="svg_97">
    <path class="xgrid crisp" d="m211.470001,100l0,293" stroke-width="1px" stroke="rgb(238, 238, 238)" id="svg_98"/>
    <path class="xgrid crisp" d="m303.72998,100l0,293" stroke-width="1px" stroke="rgb(238, 238, 238)" id="svg_99"/>
    <path class="xgrid crisp" d="m396,100l0,293" stroke-width="1px" stroke="rgb(238, 238, 238)" id="svg_100"/>
    <path class="xgrid crisp" d="m488.269989,100l0,293" stroke-width="1px" stroke="rgb(238, 238, 238)" id="svg_101"/>
    <path class="xgrid crisp" d="m580.530029,100l0,293" stroke-width="1px" stroke="rgb(238, 238, 238)" id="svg_102"/>
    <path class="xgrid crisp" d="m672.799988,100l0,293" stroke-width="1px" stroke="rgb(238, 238, 238)" id="svg_103"/>
    <path class="ygrid crisp" d="m80,374.600006l632,0" stroke-width="1px" stroke="rgb(238, 238, 238)" id="svg_104"/>
    <path class="ygrid crisp" d="m80,246.5l632,0" stroke-width="1px" stroke="rgb(238, 238, 238)" id="svg_105"/>
    <path class="ygrid crisp" d="m80,182.449997l632,0" stroke-width="1px" stroke="rgb(238, 238, 238)" id="svg_106"/>
    <path class="ygrid crisp" d="m80,118.400002l632,0" stroke-width="1px" stroke="rgb(238, 238, 238)" id="svg_107"/>
   </g>
   <g id="svg_108"/>
   <g id="svg_109">
    <path class="xzl zl crisp" d="m119.199997,100l0,293" stroke-width="1px" stroke="rgb(68, 68, 68)" id="svg_110"/>
    <path class="yzl zl crisp" d="m80,310.549988l632,0" stroke-width="1px" stroke="rgb(68, 68, 68)" id="svg_111"/>
   </g>
   <g id="svg_112"/>
   <g id="svg_1">
    <svg preserveAspectRatio="none" x="80" y="100" width="632" height="293" viewBox="0 0 632 293" id="svg_30">
     <g class="maplayer" id="svg_120"/>
     <g class="barlayer" id="svg_119"/>
     <g class="errorlayer" id="svg_83">
      <g class="errorbars" id="svg_118"/>
      <g class="errorbars" id="svg_116"/>
      <g class="errorbars" id="svg_113"/>
      <g class="errorbars" id="svg_85"/>
      <g class="errorbars" id="svg_84"/>
     </g>
     <g class="boxlayer" id="svg_82"/>
     <g class="scatterlayer" id="svg_31">
      <g class="trace scatter" stroke-miterlimit="2" id="svg_74">
       <path class="js-line" d="m39.200001,146.5l553.599987,72.059998" stroke-width="2px" stroke="rgb(31, 119, 180)" fill="none" id="svg_81"/>
       <g class="points" id="svg_75">
        <path class="point" d="m42.200001,146.5a3,3 0 1 1 -3,-3a3,3 0 0 1 3,3z" fill="rgb(31, 119, 180)" stroke-width="0px" id="svg_80"/>
        <path class="point" d="m226.729996,170.520004a3,3 0 1 1 -3,-3a3,3 0 0 1 3,3z" fill="rgb(31, 119, 180)" stroke-width="0px" id="svg_79"/>
        <path class="point" d="m411.269989,194.539993a3,3 0 1 1 -3,-3a3,3 0 0 1 3,3z" fill="rgb(31, 119, 180)" stroke-width="0px" id="svg_78"/>
        <path class="point" d="m534.900024,210.550003a3,3 0 1 1 -3,-3a3,3 0 0 1 3,3z" fill="rgb(31, 119, 180)" stroke-width="0px" id="svg_77"/>
        <path class="point" d="m595.799988,218.559998a3,3 0 1 1 -3,-3a3,3 0 0 1 3,3z" fill="rgb(31, 119, 180)" stroke-width="0px" id="svg_76"/>
       </g>
      </g>
      <g class="trace scatter" stroke-miterlimit="2" id="svg_66">
       <path class="js-line" d="m39.200001,34.41l553.599987,240.190006" stroke-width="2px" stroke="rgb(255, 127, 14)" fill="none" id="svg_73"/>
       <g class="points" id="svg_67">
        <path class="point" d="m42.200001,34.41a3,3 0 1 1 -3,-3a3,3 0 0 1 3,3z" fill="rgb(255, 127, 14)" stroke-width="0px" id="svg_72"/>
        <path class="point" d="m226.729996,114.480003a3,3 0 1 1 -3,-3a3,3 0 0 1 3,3z" fill="rgb(255, 127, 14)" stroke-width="0px" id="svg_71"/>
        <path class="point" d="m411.269989,194.539993a3,3 0 1 1 -3,-3a3,3 0 0 1 3,3z" fill="rgb(255, 127, 14)" stroke-width="0px" id="svg_70"/>
        <path class="point" d="m534.900024,248.179993a3,3 0 1 1 -3,-3a3,3 0 0 1 3,3z" fill="rgb(255, 127, 14)" stroke-width="0px" id="svg_69"/>
        <path class="point" d="m595.799988,274.600006a3,3 0 1 1 -3,-3a3,3 0 0 1 3,3z" fill="rgb(255, 127, 14)" stroke-width="0px" id="svg_68"/>
       </g>
      </g>
      <g class="trace scatter" stroke-miterlimit="2" id="svg_42">
       <path class="js-fill" d="m39.200001,18.4l553.599987,0l0,192.150003l-60.899963,0l-123.630035,-16.01001l-369.069988,-160.129986l0,-16.009998l0,-0.00001z" fill-opacity="0.5" fill="rgb(0, 0, 0)" stroke-width="0px" id="svg_65"/>
       <path class="js-line" d="m39.200001,34.41l369.069988,160.129993l123.630035,16.01001l60.899963,0" stroke-width="2px" stroke-opacity="0" stroke="rgb(0, 0, 0)" fill="none" id="svg_64"/>
       <g class="points" id="svg_58">
        <path class="point" d="m42.200001,34.41a3,3 0 1 1 -3,-3a3,3 0 0 1 3,3z" fill-opacity="0" fill="rgb(0, 0, 0)" stroke-width="0px" id="svg_63"/>
        <path class="point" d="m226.729996,114.480003a3,3 0 1 1 -3,-3a3,3 0 0 1 3,3z" fill-opacity="0" fill="rgb(0, 0, 0)" stroke-width="0px" id="svg_62"/>
        <path class="point" d="m411.269989,194.539993a3,3 0 1 1 -3,-3a3,3 0 0 1 3,3z" fill-opacity="0" fill="rgb(0, 0, 0)" stroke-width="0px" id="svg_61"/>
        <path class="point" d="m534.900024,210.550003a3,3 0 1 1 -3,-3a3,3 0 0 1 3,3z" fill-opacity="0" fill="rgb(0, 0, 0)" stroke-width="0px" id="svg_60"/>
        <path class="point" d="m595.799988,210.550003a3,3 0 1 1 -3,-3a3,3 0 0 1 3,3z" fill-opacity="0" fill="rgb(0, 0, 0)" stroke-width="0px" id="svg_59"/>
       </g>
      </g>
      <g class="trace scatter" stroke-miterlimit="2" id="svg_34">
       <path class="js-line" d="m39.200001,18.4l553.599987,0" stroke-width="2px" stroke-opacity="0" stroke="rgb(0, 0, 0)" fill="none" id="svg_41"/>
       <g class="points" id="svg_35">
        <path class="point" d="m42.200001,18.4a3,3 0 1 1 -3,-3a3,3 0 0 1 3,3z" fill-opacity="0" fill="rgb(0, 0, 0)" stroke-width="0px" id="svg_40"/>
        <path class="point" d="m226.729996,18.4a3,3 0 1 1 -3,-3a3,3 0 0 1 3,3z" fill-opacity="0" fill="rgb(0, 0, 0)" stroke-width="0px" id="svg_39"/>
        <path class="point" d="m411.269989,18.4a3,3 0 1 1 -3,-3a3,3 0 0 1 3,3z" fill-opacity="0" fill="rgb(0, 0, 0)" stroke-width="0px" id="svg_38"/>
        <path class="point" d="m534.900024,18.4a3,3 0 1 1 -3,-3a3,3 0 0 1 3,3z" fill-opacity="0" fill="rgb(0, 0, 0)" stroke-width="0px" id="svg_37"/>
        <path class="point" d="m595.799988,18.4a3,3 0 1 1 -3,-3a3,3 0 0 1 3,3z" fill-opacity="0" fill="rgb(0, 0, 0)" stroke-width="0px" id="svg_36"/>
       </g>
      </g>
      <g class="trace scatter" stroke-miterlimit="2" id="svg_32">
       <path class="js-fill" d="m39.200001,146.5l492.700024,64.050003l0,0l-492.700024,0l0,-64.050003z" fill-opacity="0.5" fill="rgb(214, 39, 40)" stroke-width="0px" id="svg_33"/>
      </g>
     </g>
    </svg>
   </g>
   <g id="svg_159"/>
   <path class="crisp" d="m79,393.5l634,0" stroke-opacity="0" stroke="rgb(0, 0, 0)" stroke-width="1px" fill="none" id="svg_160"/>
   <path class="crisp" d="m79.5,99l0,294" stroke-width="1px" stroke-opacity="0" stroke="rgb(0, 0, 0)" fill="none" id="svg_161"/>
   <g id="svg_162"/>
   <g id="svg_163">
    <g class="xtick" id="svg_164">
     <text text-anchor="middle" x="119.200001" y="407" fill="rgb(68, 68, 68)" font-size="12px" font-family="'Open sans', verdana, arial, sans-serif" id="svg_165">0</text>
    </g>
    <g class="xtick" id="svg_166">
     <text text-anchor="middle" x="211.470001" y="407" fill="rgb(68, 68, 68)" font-size="12px" font-family="'Open sans', verdana, arial, sans-serif" id="svg_167">0.5</text>
    </g>
    <g class="xtick" id="svg_168">
     <text text-anchor="middle" x="303.729996" y="407" fill="rgb(68, 68, 68)" font-size="12px" font-family="'Open sans', verdana, arial, sans-serif" id="svg_169">1</text>
    </g>
    <g class="xtick" id="svg_170">
     <text text-anchor="middle" x="396" y="407" fill="rgb(68, 68, 68)" font-size="12px" font-family="'Open sans', verdana, arial, sans-serif" id="svg_171">1.5</text>
    </g>
    <g class="xtick" id="svg_172">
     <text text-anchor="middle" x="488.269989" y="407" fill="rgb(68, 68, 68)" font-size="12px" font-family="'Open sans', verdana, arial, sans-serif" id="svg_173">2</text>
    </g>
    <g class="xtick" id="svg_174">
     <text text-anchor="middle" x="580.529999" y="407" fill="rgb(68, 68, 68)" font-size="12px" font-family="'Open sans', verdana, arial, sans-serif" id="svg_175">2.5</text>
    </g>
    <g class="xtick" id="svg_176">
     <text text-anchor="middle" x="672.799988" y="407" fill="rgb(68, 68, 68)" font-size="12px" font-family="'Open sans', verdana, arial, sans-serif" id="svg_177">3</text>
    </g>
   </g>
   <g id="svg_178">
    <g class="ytick" id="svg_179">
     <text text-anchor="end" x="78" y="380.600006" fill="rgb(68, 68, 68)" font-size="12px" font-family="'Open sans', verdana, arial, sans-serif" id="svg_180">−2</text>
    </g>
    <g class="ytick" id="svg_181">
     <text text-anchor="end" x="78" y="316.550003" fill="rgb(68, 68, 68)" font-size="12px" font-family="'Open sans', verdana, arial, sans-serif" id="svg_182">0</text>
    </g>
    <g class="ytick" id="svg_183">
     <text text-anchor="end" x="78" y="252.5" fill="rgb(68, 68, 68)" font-size="12px" font-family="'Open sans', verdana, arial, sans-serif" id="svg_184">2</text>
    </g>
    <g class="ytick" id="svg_185">
     <text text-anchor="end" x="78" y="188.449997" fill="rgb(68, 68, 68)" font-size="12px" font-family="'Open sans', verdana, arial, sans-serif" id="svg_186">4</text>
    </g>
    <g class="ytick" id="svg_187">
     <text text-anchor="end" x="78" y="124.4" fill="rgb(68, 68, 68)" font-size="12px" font-family="'Open sans', verdana, arial, sans-serif" id="svg_188">6</text>
    </g>
   </g>
   <g id="svg_189"/>
  </g>
  <g class="shapelayer" id="svg_190"/>
  <g class="glimages" id="svg_191"/>
  <text class="js-plot-link-container" y="464" text-anchor="end" x="862" fill="rgb(68, 68, 68)" font-size="12px" font-family="'Open Sans', Arial, sans-serif" id="svg_192"/>
  <g class="infolayer" id="svg_193">
   <g class="g-gtitle" id="svg_194"/>
   <g class="g-xtitle" id="svg_195">
    <g class="xtitle-math-group" id="svg_15">
     <svg xmlns:xlink="http://www.w3.org/1999/xlink" viewBox="0 -707.941989467833 768 731.8839789356658" class="xtitle-math" height="1.71ex" preserveAspectRatio="xMinYMin meet" x="390.499438" y="436.382151" width="1.71ex" id="svg_121">
      <defs>
       <path id="svg_124" stroke-width="10" d="m66,637q-12,0 -17,0t-10,1t-7,3t-2,6t3,17t9,18q2,1 14,1q48,-3 109,-3q123,0 141,3l10,0q6,-6 6,-9t-2,-18q-4,-13 -10,-19l-12,0q-56,0 -56,-13q0,-5 50,-147t51,-144l3,3q4,4 12,13t21,24t32,37t43,51q92,107 107,126t16,31q0,16 -32,19q-17,0 -17,10q0,2 2,14q3,15 5,18t14,4q2,0 29,-1t79,-2q27,0 56,1t33,1q17,0 17,-9q0,-4 -3,-16t-5,-14q-2,-6 -21,-6q-72,-5 -117,-50q-9,-9 -140,-163l-129,-151l-26,-104q-27,-107 -27,-112q0,-11 68,-11q16,0 21,-1t6,-10q0,-2 -2,-12q-4,-17 -6,-19t-16,-3q-5,0 -42,0t-92,1q-62,0 -94,0t-36,-1q-18,0 -18,8q0,5 3,15q1,3 2,6t1,5t1,4t2,3t3,2t5,1t6,0t9,1t13,0q39,1 51,4t18,13q3,5 29,108l25,103l-123,349q-1,1 -2,2t-2,2t-3,2t-4,2t-5,2t-8,1t-9,1t-13,1t-17,1z"/>
       <path id="svg_136" stroke-width="10" d="m42,0l-2,0q-14,0 -14,11q0,4 3,16q4,14 7,16t19,3q86,3 135,52q10,10 116,126t105,118q-109,278 -114,283q-9,11 -63,12l-28,0q-6,6 -6,8t2,19q4,13 10,19l14,0q34,-2 121,-2q33,0 61,0t45,1t20,0q17,0 17,-11q0,-1 -2,-13q-4,-15 -7,-18t-16,-3q-31,-3 -54,-17l77,-194l53,59q105,113 105,125q0,18 -24,25q-5,0 -13,2q-15,0 -15,11q0,2 2,16q4,13 10,19l12,0q1,0 25,0t54,-2t41,-1q90,0 99,3l8,0q7,-7 7,-11q-2,-25 -12,-35l-16,0q-34,-1 -61,-9t-41,-17t-24,-18l-11,-9q0,1 -95,-104l-87,-96q0,-1 31,-80t65,-162t37,-86q10,-9 61,-10q35,0 35,-9q0,-2 -2,-14q-4,-16 -7,-19t-14,-3q-3,0 -33,0t-89,1q-61,0 -93,0t-35,-1q-17,0 -17,9q0,1 2,15q2,10 4,14t5,5t9,2t16,1t26,7q17,8 17,10q-1,0 -47,117l-47,118q-188,-204 -193,-215q-4,-8 -4,-12q0,-19 29,-25q1,0 6,0t6,-1q3,0 4,0t3,-1t3,-3t1,-7q0,-9 -2,-16q-3,-13 -6,-15t-15,-3q-3,0 -18,0t-42,1t-59,0q-78,0 -100,-2z"/>
       <path id="svg_135" stroke-width="10" d="m127,463q-27,0 -42,17t-16,44q0,55 48,98t116,43q35,0 44,-1q74,-12 113,-53t40,-89q0,-52 -34,-101t-94,-71l-3,-2q0,-1 9,-3t29,-9t38,-21q82,-53 82,-140q0,-79 -62,-138t-157,-59q-80,0 -138,43t-58,109q0,28 18,45t45,18q28,0 46,-18t18,-45q0,-11 -3,-20t-7,-16t-11,-12t-12,-8t-10,-4t-8,-3l-4,-1q51,-45 124,-45q55,0 83,53q17,33 17,101l0,20q0,95 -64,127q-15,6 -61,7l-42,1l-3,2q-2,3 -2,16q0,18 8,18q28,0 58,5q34,5 62,42t28,112l0,8q0,57 -35,79q-22,14 -47,14q-32,0 -59,-11t-38,-23t-11,-12l3,0q3,-1 8,-2t10,-5t12,-7t10,-11t8,-15t3,-20q0,-22 -14,-39t-45,-18z"/>
       <path id="svg_134" stroke-width="10" d="m52,289q7,42 54,97t116,56q35,0 64,-18t43,-45q42,63 101,63q37,0 64,-22t28,-59q0,-29 -14,-47t-27,-22t-23,-4q-19,0 -31,11t-12,29q0,46 50,63q-11,13 -40,13q-13,0 -19,-2q-38,-16 -56,-66q-60,-221 -60,-258q0,-28 16,-40t35,-12q37,0 73,33t49,81q3,10 6,11t16,2l4,0q15,0 15,-8q0,-1 -2,-11q-16,-57 -62,-101t-107,-44q-70,0 -106,63q-41,-62 -94,-62l-6,0q-49,0 -70,26t-22,55q0,32 19,52t45,20q43,0 43,-42q0,-20 -12,-35t-23,-20t-13,-5l-3,-1q0,-1 6,-4t16,-7t19,-3q36,0 62,45q9,16 23,68t28,108t16,66q5,27 5,39q0,28 -15,40t-34,12q-40,0 -75,-32t-49,-82q-2,-9 -5,-10t-16,-2l-14,0q-6,6 -6,11z"/>
       <path id="svg_133" stroke-width="10" d="m56,237t0,13t14,20l299,0l0,150l1,150q10,13 19,13q13,0 20,-15l0,-298l298,0q15,-8 15,-20t-15,-20l-298,0l0,-298q-8,-14 -18,-14l-2,0l-2,0q-12,0 -18,14l0,298l-299,0q-14,7 -14,20l0,-13z"/>
       <path id="svg_132" stroke-width="10" d="m462,0q-18,3 -129,3q-116,0 -134,-3l-9,0l0,46l31,0q20,0 27,0t17,2t14,5t7,8q1,2 1,54l0,50l-259,0l0,46l151,231q153,232 155,233q2,2 21,2l18,0l6,-6l0,-460l92,0l0,-46l-92,0l0,-51q0,-41 0,-48t6,-12q8,-7 57,-8l29,0l0,-46l-9,0zm-169,211l0,334l-219,-333l109,-1l110,0z"/>
       <path id="svg_131" stroke-width="10" d="m21,287q0,14 15,48t48,71t74,36q41,0 66,-23t26,-64q-2,-19 -3,-21q0,-3 -16,-46t-33,-97t-16,-86q0,-43 14,-60t42,-18q23,0 43,11t31,23t27,33q0,1 5,20t14,59t19,74q38,150 42,157q13,27 43,27q13,0 21,-7t11,-12t2,-9q0,-13 -49,-210t-56,-216q-28,-83 -97,-132t-138,-50q-45,0 -79,22t-34,66q0,22 7,37t19,22t20,10t17,3q44,0 44,-42q0,-20 -12,-35t-23,-20t-13,-5l-3,-1q2,-5 19,-12t34,-7l8,0q17,0 26,2q33,9 61,38t43,62t23,56t8,30l-6,-4q-6,-4 -19,-11t-26,-12q-20,-5 -39,-5q-46,0 -81,22t-46,71q-1,7 -1,31q0,57 35,149t35,117q0,1 0,2q0,9 0,12t-4,7t-11,4l-4,0q-23,0 -42,-19t-30,-41t-17,-42t-8,-22q-2,-2 -16,-2l-14,0q-6,6 -6,9z"/>
       <path id="svg_130" stroke-width="10" d="m694,-11t0,-8t-6,-14t-10,-7q-7,0 -154,69t-290,137l-144,69q-7,5 -7,15q0,11 8,16q573,274 587,274q3,0 9,-6t7,-15t-7,-14q-1,-1 -270,-129l-266,-126l266,-126q269,-128 270,-129q7,-6 7,-14l0,8z"/>
       <path id="svg_129" stroke-width="10" d="m70,417t0,77t54,124t124,48q71,0 126,-42t55,-109q0,-30 -11,-56t-26,-42t-31,-28t-26,-18t-11,-8l14,-9q14,-10 28,-20t16,-11q75,-59 75,-149q0,-79 -58,-137t-150,-59q-90,0 -148,51t-58,126q0,108 129,180l-18,13q-21,13 -27,20q-57,49 -57,126l0,-77zm216,-31l6,4q6,4 9,6t10,7t12,10t11,12t11,13t10,16t9,17t5,20t2,22q0,43 -29,73t-67,38q-7,1 -33,1q-41,0 -77,-26t-37,-65q0,-23 13,-42t26,-29t50,-32q7,-5 11,-7l58,-38zm-36,-365q58,0 100,34t42,82q0,17 -5,32t-12,25t-22,22t-23,18t-29,19t-27,17q-14,9 -30,19t-26,17l-8,5q-6,0 -29,-17t-48,-55t-26,-82q0,-59 43,-97t100,-39z"/>
       <path id="svg_128" stroke-width="10" d="m164,157q0,-24 -16,-40t-39,-16l-7,0q46,-79 122,-79q70,0 102,60q19,33 19,128q0,103 -27,139q-26,33 -58,33l-6,0q-78,0 -118,-68q-4,-7 -7,-8t-15,-2q-17,0 -19,6q-2,4 -2,175l0,129q0,50 5,50q2,2 4,2q1,0 21,-8t55,-16t75,-8q71,0 136,28q8,4 13,4q8,0 8,-18l0,-13q-82,-97 -205,-97q-31,0 -56,6l-10,2l0,-172q19,14 30,22t36,16t51,8q81,0 137,-65t56,-154q0,-92 -64,-157t-156,-66q-81,0 -130,54t-49,122q0,24 11,38t23,18t23,4q25,0 41,-17t16,-40z"/>
       <path id="svg_127" stroke-width="10" d="m109,429q-27,0 -43,18t-16,44q0,71 53,123t132,52q91,0 152,-56t62,-145q0,-43 -20,-82t-48,-68t-80,-74q-36,-31 -100,-92l-59,-56l76,-1q157,0 167,5q7,2 24,89l0,3l40,0l0,-3q-1,-3 -13,-91t-15,-92l0,-3l-371,0l0,19l0,12q0,7 6,15t30,35q29,32 50,56q9,10 34,37t34,37t29,33t28,34t23,30t21,32t15,29t13,32t7,30t3,33q0,63 -34,109t-97,46q-33,0 -58,-17t-35,-33t-10,-19q0,-1 5,-1q18,0 37,-14t19,-46q0,-25 -16,-42t-45,-18z"/>
       <path id="svg_126" stroke-width="10" d="m56,347q0,13 14,20l637,0q15,-8 15,-20q0,-11 -14,-19l-318,-1l-318,0q-16,5 -16,20zm0,-194q0,15 16,20l636,0q14,-10 14,-20q0,-13 -15,-20l-637,0q-14,7 -14,20z"/>
       <path id="svg_125" stroke-width="10" d="m213,578l-13,-5q-14,-5 -40,-10t-58,-7l-19,0l0,46l19,0q47,2 87,15t56,24t28,22q2,3 12,3q9,0 17,-6l0,-299l1,-300q7,-7 12,-9t24,-4t62,-2l26,0l0,-46l-11,0q-21,3 -159,3q-136,0 -157,-3l-12,0l0,46l26,0q22,0 38,0t25,1t16,3t8,2t6,5t6,4l0,517z"/>
      </defs>
      <g stroke="rgb(68, 68, 68)" fill="rgb(68, 68, 68)" stroke-width="0" transform="matrix(1 0 0 -1 0 0)" id="svg_122">
       <use xlink:href="#svg_124" id="svg_123"/>
      </g>
     </svg>
    </g>
   </g>
   <g class="g-ytitle" id="svg_199">
    <g class="ytitle-math-group" transform="rotate(-90, 35.81, 237.882)" id="svg_29">
     <svg xmlns:xlink="http://www.w3.org/1999/xlink" viewBox="0 -707.941989467833 857 732.8839789356658" class="ytitle-math" height="1.71ex" preserveAspectRatio="xMinYMin meet" x="35.810006" y="237.881639" width="2.021ex" id="svg_137">
      <defs>
       <path id="svg_152" stroke-width="10" d="m66,637q-12,0 -17,0t-10,1t-7,3t-2,6t3,17t9,18q2,1 14,1q48,-3 109,-3q123,0 141,3l10,0q6,-6 6,-9t-2,-18q-4,-13 -10,-19l-12,0q-56,0 -56,-13q0,-5 50,-147t51,-144l3,3q4,4 12,13t21,24t32,37t43,51q92,107 107,126t16,31q0,16 -32,19q-17,0 -17,10q0,2 2,14q3,15 5,18t14,4q2,0 29,-1t79,-2q27,0 56,1t33,1q17,0 17,-9q0,-4 -3,-16t-5,-14q-2,-6 -21,-6q-72,-5 -117,-50q-9,-9 -140,-163l-129,-151l-26,-104q-27,-107 -27,-112q0,-11 68,-11q16,0 21,-1t6,-10q0,-2 -2,-12q-4,-17 -6,-19t-16,-3q-5,0 -42,0t-92,1q-62,0 -94,0t-36,-1q-18,0 -18,8q0,5 3,15q1,3 2,6t1,5t1,4t2,3t3,2t5,1t6,0t9,1t13,0q39,1 51,4t18,13q3,5 29,108l25,103l-123,349q-1,1 -2,2t-2,2t-3,2t-4,2t-5,2t-8,1t-9,1t-13,1t-17,1z"/>
       <path id="svg_140" stroke-width="10" d="m42,0l-2,0q-14,0 -14,11q0,4 3,16q4,14 7,16t19,3q86,3 135,52q10,10 116,126t105,118q-109,278 -114,283q-9,11 -63,12l-28,0q-6,6 -6,8t2,19q4,13 10,19l14,0q34,-2 121,-2q33,0 61,0t45,1t20,0q17,0 17,-11q0,-1 -2,-13q-4,-15 -7,-18t-16,-3q-31,-3 -54,-17l77,-194l53,59q105,113 105,125q0,18 -24,25q-5,0 -13,2q-15,0 -15,11q0,2 2,16q4,13 10,19l12,0q1,0 25,0t54,-2t41,-1q90,0 99,3l8,0q7,-7 7,-11q-2,-25 -12,-35l-16,0q-34,-1 -61,-9t-41,-17t-24,-18l-11,-9q0,1 -95,-104l-87,-96q0,-1 31,-80t65,-162t37,-86q10,-9 61,-10q35,0 35,-9q0,-2 -2,-14q-4,-16 -7,-19t-14,-3q-3,0 -33,0t-89,1q-61,0 -93,0t-35,-1q-17,0 -17,9q0,1 2,15q2,10 4,14t5,5t9,2t16,1t26,7q17,8 17,10q-1,0 -47,117l-47,118q-188,-204 -193,-215q-4,-8 -4,-12q0,-19 29,-25q1,0 6,0t6,-1q3,0 4,0t3,-1t3,-3t1,-7q0,-9 -2,-16q-3,-13 -6,-15t-15,-3q-3,0 -18,0t-42,1t-59,0q-78,0 -100,-2z"/>
       <path id="svg_151" stroke-width="10" d="m127,463q-27,0 -42,17t-16,44q0,55 48,98t116,43q35,0 44,-1q74,-12 113,-53t40,-89q0,-52 -34,-101t-94,-71l-3,-2q0,-1 9,-3t29,-9t38,-21q82,-53 82,-140q0,-79 -62,-138t-157,-59q-80,0 -138,43t-58,109q0,28 18,45t45,18q28,0 46,-18t18,-45q0,-11 -3,-20t-7,-16t-11,-12t-12,-8t-10,-4t-8,-3l-4,-1q51,-45 124,-45q55,0 83,53q17,33 17,101l0,20q0,95 -64,127q-15,6 -61,7l-42,1l-3,2q-2,3 -2,16q0,18 8,18q28,0 58,5q34,5 62,42t28,112l0,8q0,57 -35,79q-22,14 -47,14q-32,0 -59,-11t-38,-23t-11,-12l3,0q3,-1 8,-2t10,-5t12,-7t10,-11t8,-15t3,-20q0,-22 -14,-39t-45,-18z"/>
       <path id="svg_150" stroke-width="10" d="m52,289q7,42 54,97t116,56q35,0 64,-18t43,-45q42,63 101,63q37,0 64,-22t28,-59q0,-29 -14,-47t-27,-22t-23,-4q-19,0 -31,11t-12,29q0,46 50,63q-11,13 -40,13q-13,0 -19,-2q-38,-16 -56,-66q-60,-221 -60,-258q0,-28 16,-40t35,-12q37,0 73,33t49,81q3,10 6,11t16,2l4,0q15,0 15,-8q0,-1 -2,-11q-16,-57 -62,-101t-107,-44q-70,0 -106,63q-41,-62 -94,-62l-6,0q-49,0 -70,26t-22,55q0,32 19,52t45,20q43,0 43,-42q0,-20 -12,-35t-23,-20t-13,-5l-3,-1q0,-1 6,-4t16,-7t19,-3q36,0 62,45q9,16 23,68t28,108t16,66q5,27 5,39q0,28 -15,40t-34,12q-40,0 -75,-32t-49,-82q-2,-9 -5,-10t-16,-2l-14,0q-6,6 -6,11z"/>
       <path id="svg_149" stroke-width="10" d="m56,237t0,13t14,20l299,0l0,150l1,150q10,13 19,13q13,0 20,-15l0,-298l298,0q15,-8 15,-20t-15,-20l-298,0l0,-298q-8,-14 -18,-14l-2,0l-2,0q-12,0 -18,14l0,298l-299,0q-14,7 -14,20l0,-13z"/>
       <path id="svg_148" stroke-width="10" d="m462,0q-18,3 -129,3q-116,0 -134,-3l-9,0l0,46l31,0q20,0 27,0t17,2t14,5t7,8q1,2 1,54l0,50l-259,0l0,46l151,231q153,232 155,233q2,2 21,2l18,0l6,-6l0,-460l92,0l0,-46l-92,0l0,-51q0,-41 0,-48t6,-12q8,-7 57,-8l29,0l0,-46l-9,0zm-169,211l0,334l-219,-333l109,-1l110,0z"/>
       <path id="svg_147" stroke-width="10" d="m21,287q0,14 15,48t48,71t74,36q41,0 66,-23t26,-64q-2,-19 -3,-21q0,-3 -16,-46t-33,-97t-16,-86q0,-43 14,-60t42,-18q23,0 43,11t31,23t27,33q0,1 5,20t14,59t19,74q38,150 42,157q13,27 43,27q13,0 21,-7t11,-12t2,-9q0,-13 -49,-210t-56,-216q-28,-83 -97,-132t-138,-50q-45,0 -79,22t-34,66q0,22 7,37t19,22t20,10t17,3q44,0 44,-42q0,-20 -12,-35t-23,-20t-13,-5l-3,-1q2,-5 19,-12t34,-7l8,0q17,0 26,2q33,9 61,38t43,62t23,56t8,30l-6,-4q-6,-4 -19,-11t-26,-12q-20,-5 -39,-5q-46,0 -81,22t-46,71q-1,7 -1,31q0,57 35,149t35,117q0,1 0,2q0,9 0,12t-4,7t-11,4l-4,0q-23,0 -42,-19t-30,-41t-17,-42t-8,-22q-2,-2 -16,-2l-14,0q-6,6 -6,9z"/>
       <path id="svg_146" stroke-width="10" d="m694,-11t0,-8t-6,-14t-10,-7q-7,0 -154,69t-290,137l-144,69q-7,5 -7,15q0,11 8,16q573,274 587,274q3,0 9,-6t7,-15t-7,-14q-1,-1 -270,-129l-266,-126l266,-126q269,-128 270,-129q7,-6 7,-14l0,8z"/>
       <path id="svg_145" stroke-width="10" d="m70,417t0,77t54,124t124,48q71,0 126,-42t55,-109q0,-30 -11,-56t-26,-42t-31,-28t-26,-18t-11,-8l14,-9q14,-10 28,-20t16,-11q75,-59 75,-149q0,-79 -58,-137t-150,-59q-90,0 -148,51t-58,126q0,108 129,180l-18,13q-21,13 -27,20q-57,49 -57,126l0,-77zm216,-31l6,4q6,4 9,6t10,7t12,10t11,12t11,13t10,16t9,17t5,20t2,22q0,43 -29,73t-67,38q-7,1 -33,1q-41,0 -77,-26t-37,-65q0,-23 13,-42t26,-29t50,-32q7,-5 11,-7l58,-38zm-36,-365q58,0 100,34t42,82q0,17 -5,32t-12,25t-22,22t-23,18t-29,19t-27,17q-14,9 -30,19t-26,17l-8,5q-6,0 -29,-17t-48,-55t-26,-82q0,-59 43,-97t100,-39z"/>
       <path id="svg_144" stroke-width="10" d="m164,157q0,-24 -16,-40t-39,-16l-7,0q46,-79 122,-79q70,0 102,60q19,33 19,128q0,103 -27,139q-26,33 -58,33l-6,0q-78,0 -118,-68q-4,-7 -7,-8t-15,-2q-17,0 -19,6q-2,4 -2,175l0,129q0,50 5,50q2,2 4,2q1,0 21,-8t55,-16t75,-8q71,0 136,28q8,4 13,4q8,0 8,-18l0,-13q-82,-97 -205,-97q-31,0 -56,6l-10,2l0,-172q19,14 30,22t36,16t51,8q81,0 137,-65t56,-154q0,-92 -64,-157t-156,-66q-81,0 -130,54t-49,122q0,24 11,38t23,18t23,4q25,0 41,-17t16,-40z"/>
       <path id="svg_143" stroke-width="10" d="m109,429q-27,0 -43,18t-16,44q0,71 53,123t132,52q91,0 152,-56t62,-145q0,-43 -20,-82t-48,-68t-80,-74q-36,-31 -100,-92l-59,-56l76,-1q157,0 167,5q7,2 24,89l0,3l40,0l0,-3q-1,-3 -13,-91t-15,-92l0,-3l-371,0l0,19l0,12q0,7 6,15t30,35q29,32 50,56q9,10 34,37t34,37t29,33t28,34t23,30t21,32t15,29t13,32t7,30t3,33q0,63 -34,109t-97,46q-33,0 -58,-17t-35,-33t-10,-19q0,-1 5,-1q18,0 37,-14t19,-46q0,-25 -16,-42t-45,-18z"/>
       <path id="svg_142" stroke-width="10" d="m56,347q0,13 14,20l637,0q15,-8 15,-20q0,-11 -14,-19l-318,-1l-318,0q-16,5 -16,20zm0,-194q0,15 16,20l636,0q14,-10 14,-20q0,-13 -15,-20l-637,0q-14,7 -14,20z"/>
       <path id="svg_141" stroke-width="10" d="m213,578l-13,-5q-14,-5 -40,-10t-58,-7l-19,0l0,46l19,0q47,2 87,15t56,24t28,22q2,3 12,3q9,0 17,-6l0,-299l1,-300q7,-7 12,-9t24,-4t62,-2l26,0l0,-46l-11,0q-21,3 -159,3q-136,0 -157,-3l-12,0l0,46l26,0q22,0 38,0t25,1t16,3t8,2t6,5t6,4l0,517z"/>
      </defs>
      <g stroke="rgb(68, 68, 68)" fill="rgb(68, 68, 68)" stroke-width="0" transform="matrix(1 0 0 -1 0 0)" id="svg_138">
       <use xlink:href="#svg_140" id="svg_139"/>
      </g>
     </svg>
    </g>
   </g>
   <g id="svg_43">
    <svg class="legend" x="725" y="100" width="132" height="86" id="svg_153">
     <rect class="bg" x="0" y="0" width="132" height="86" stroke-width="0px" fill="rgb(255, 255, 255)" stroke="rgb(68, 68, 68)" id="svg_245"/>
     <g class="traces" id="svg_202">
      <g class="legendfill" id="svg_243">
       <path class="js-fill" d="m5,14.5l30,0l0,6l-30,0l0,-6z" fill-opacity="0.5" fill="rgb(214, 39, 40)" stroke-width="0px" id="svg_244"/>
      </g>
      <g class="legendlines" id="svg_242"/>
      <g class="legendsymbols" id="svg_240">
       <g class="legendpoints" id="svg_241"/>
      </g>
      <rect class="legendtoggle" x="0" y="5" height="19" width="126.984375" fill-opacity="0" fill="rgb(0, 0, 0)" id="svg_239"/>
      <g class="legendtext-math-group" id="svg_203">
       <svg xmlns:xlink="http://www.w3.org/1999/xlink" viewBox="0 -699.7742397004789 5160 927.5484794009578" class="legendtext-math" height="2.182ex" preserveAspectRatio="xMinYMin meet" x="40" y="8.643646" width="12ex" id="svg_246">
        <defs>
         <path id="svg_283" stroke-width="10" d="m66,637q-12,0 -17,0t-10,1t-7,3t-2,6t3,17t9,18q2,1 14,1q48,-3 109,-3q123,0 141,3l10,0q6,-6 6,-9t-2,-18q-4,-13 -10,-19l-12,0q-56,0 -56,-13q0,-5 50,-147t51,-144l3,3q4,4 12,13t21,24t32,37t43,51q92,107 107,126t16,31q0,16 -32,19q-17,0 -17,10q0,2 2,14q3,15 5,18t14,4q2,0 29,-1t79,-2q27,0 56,1t33,1q17,0 17,-9q0,-4 -3,-16t-5,-14q-2,-6 -21,-6q-72,-5 -117,-50q-9,-9 -140,-163l-129,-151l-26,-104q-27,-107 -27,-112q0,-11 68,-11q16,0 21,-1t6,-10q0,-2 -2,-12q-4,-17 -6,-19t-16,-3q-5,0 -42,0t-92,1q-62,0 -94,0t-36,-1q-18,0 -18,8q0,5 3,15q1,3 2,6t1,5t1,4t2,3t3,2t5,1t6,0t9,1t13,0q39,1 51,4t18,13q3,5 29,108l25,103l-123,349q-1,1 -2,2t-2,2t-3,2t-4,2t-5,2t-8,1t-9,1t-13,1t-17,1z"/>
         <path id="svg_266" stroke-width="10" d="m42,0l-2,0q-14,0 -14,11q0,4 3,16q4,14 7,16t19,3q86,3 135,52q10,10 116,126t105,118q-109,278 -114,283q-9,11 -63,12l-28,0q-6,6 -6,8t2,19q4,13 10,19l14,0q34,-2 121,-2q33,0 61,0t45,1t20,0q17,0 17,-11q0,-1 -2,-13q-4,-15 -7,-18t-16,-3q-31,-3 -54,-17l77,-194l53,59q105,113 105,125q0,18 -24,25q-5,0 -13,2q-15,0 -15,11q0,2 2,16q4,13 10,19l12,0q1,0 25,0t54,-2t41,-1q90,0 99,3l8,0q7,-7 7,-11q-2,-25 -12,-35l-16,0q-34,-1 -61,-9t-41,-17t-24,-18l-11,-9q0,1 -95,-104l-87,-96q0,-1 31,-80t65,-162t37,-86q10,-9 61,-10q35,0 35,-9q0,-2 -2,-14q-4,-16 -7,-19t-14,-3q-3,0 -33,0t-89,1q-61,0 -93,0t-35,-1q-17,0 -17,9q0,1 2,15q2,10 4,14t5,5t9,2t16,1t26,7q17,8 17,10q-1,0 -47,117l-47,118q-188,-204 -193,-215q-4,-8 -4,-12q0,-19 29,-25q1,0 6,0t6,-1q3,0 4,0t3,-1t3,-3t1,-7q0,-9 -2,-16q-3,-13 -6,-15t-15,-3q-3,0 -18,0t-42,1t-59,0q-78,0 -100,-2z"/>
         <path id="svg_261" stroke-width="10" d="m127,463q-27,0 -42,17t-16,44q0,55 48,98t116,43q35,0 44,-1q74,-12 113,-53t40,-89q0,-52 -34,-101t-94,-71l-3,-2q0,-1 9,-3t29,-9t38,-21q82,-53 82,-140q0,-79 -62,-138t-157,-59q-80,0 -138,43t-58,109q0,28 18,45t45,18q28,0 46,-18t18,-45q0,-11 -3,-20t-7,-16t-11,-12t-12,-8t-10,-4t-8,-3l-4,-1q51,-45 124,-45q55,0 83,53q17,33 17,101l0,20q0,95 -64,127q-15,6 -61,7l-42,1l-3,2q-2,3 -2,16q0,18 8,18q28,0 58,5q34,5 62,42t28,112l0,8q0,57 -35,79q-22,14 -47,14q-32,0 -59,-11t-38,-23t-11,-12l3,0q3,-1 8,-2t10,-5t12,-7t10,-11t8,-15t3,-20q0,-22 -14,-39t-45,-18z"/>
         <path id="svg_259" stroke-width="10" d="m52,289q7,42 54,97t116,56q35,0 64,-18t43,-45q42,63 101,63q37,0 64,-22t28,-59q0,-29 -14,-47t-27,-22t-23,-4q-19,0 -31,11t-12,29q0,46 50,63q-11,13 -40,13q-13,0 -19,-2q-38,-16 -56,-66q-60,-221 -60,-258q0,-28 16,-40t35,-12q37,0 73,33t49,81q3,10 6,11t16,2l4,0q15,0 15,-8q0,-1 -2,-11q-16,-57 -62,-101t-107,-44q-70,0 -106,63q-41,-62 -94,-62l-6,0q-49,0 -70,26t-22,55q0,32 19,52t45,20q43,0 43,-42q0,-20 -12,-35t-23,-20t-13,-5l-3,-1q0,-1 6,-4t16,-7t19,-3q36,0 62,45q9,16 23,68t28,108t16,66q5,27 5,39q0,28 -15,40t-34,12q-40,0 -75,-32t-49,-82q-2,-9 -5,-10t-16,-2l-14,0q-6,6 -6,11z"/>
         <path id="svg_257" stroke-width="10" d="m56,237t0,13t14,20l299,0l0,150l1,150q10,13 19,13q13,0 20,-15l0,-298l298,0q15,-8 15,-20t-15,-20l-298,0l0,-298q-8,-14 -18,-14l-2,0l-2,0q-12,0 -18,14l0,298l-299,0q-14,7 -14,20l0,-13z"/>
         <path id="svg_255" stroke-width="10" d="m462,0q-18,3 -129,3q-116,0 -134,-3l-9,0l0,46l31,0q20,0 27,0t17,2t14,5t7,8q1,2 1,54l0,50l-259,0l0,46l151,231q153,232 155,233q2,2 21,2l18,0l6,-6l0,-460l92,0l0,-46l-92,0l0,-51q0,-41 0,-48t6,-12q8,-7 57,-8l29,0l0,-46l-9,0zm-169,211l0,334l-219,-333l109,-1l110,0z"/>
         <path id="svg_253" stroke-width="10" d="m21,287q0,14 15,48t48,71t74,36q41,0 66,-23t26,-64q-2,-19 -3,-21q0,-3 -16,-46t-33,-97t-16,-86q0,-43 14,-60t42,-18q23,0 43,11t31,23t27,33q0,1 5,20t14,59t19,74q38,150 42,157q13,27 43,27q13,0 21,-7t11,-12t2,-9q0,-13 -49,-210t-56,-216q-28,-83 -97,-132t-138,-50q-45,0 -79,22t-34,66q0,22 7,37t19,22t20,10t17,3q44,0 44,-42q0,-20 -12,-35t-23,-20t-13,-5l-3,-1q2,-5 19,-12t34,-7l8,0q17,0 26,2q33,9 61,38t43,62t23,56t8,30l-6,-4q-6,-4 -19,-11t-26,-12q-20,-5 -39,-5q-46,0 -81,22t-46,71q-1,7 -1,31q0,57 35,149t35,117q0,1 0,2q0,9 0,12t-4,7t-11,4l-4,0q-23,0 -42,-19t-30,-41t-17,-42t-8,-22q-2,-2 -16,-2l-14,0q-6,6 -6,9z"/>
         <path id="svg_251" stroke-width="10" d="m694,-11t0,-8t-6,-14t-10,-7q-7,0 -154,69t-290,137l-144,69q-7,5 -7,15q0,11 8,16q573,274 587,274q3,0 9,-6t7,-15t-7,-14q-1,-1 -270,-129l-266,-126l266,-126q269,-128 270,-129q7,-6 7,-14l0,8z"/>
         <path id="svg_249" stroke-width="10" d="m70,417t0,77t54,124t124,48q71,0 126,-42t55,-109q0,-30 -11,-56t-26,-42t-31,-28t-26,-18t-11,-8l14,-9q14,-10 28,-20t16,-11q75,-59 75,-149q0,-79 -58,-137t-150,-59q-90,0 -148,51t-58,126q0,108 129,180l-18,13q-21,13 -27,20q-57,49 -57,126l0,-77zm216,-31l6,4q6,4 9,6t10,7t12,10t11,12t11,13t10,16t9,17t5,20t2,22q0,43 -29,73t-67,38q-7,1 -33,1q-41,0 -77,-26t-37,-65q0,-23 13,-42t26,-29t50,-32q7,-5 11,-7l58,-38zm-36,-365q58,0 100,34t42,82q0,17 -5,32t-12,25t-22,22t-23,18t-29,19t-27,17q-14,9 -30,19t-26,17l-8,5q-6,0 -29,-17t-48,-55t-26,-82q0,-59 43,-97t100,-39z"/>
         <path id="svg_265" stroke-width="10" d="m164,157q0,-24 -16,-40t-39,-16l-7,0q46,-79 122,-79q70,0 102,60q19,33 19,128q0,103 -27,139q-26,33 -58,33l-6,0q-78,0 -118,-68q-4,-7 -7,-8t-15,-2q-17,0 -19,6q-2,4 -2,175l0,129q0,50 5,50q2,2 4,2q1,0 21,-8t55,-16t75,-8q71,0 136,28q8,4 13,4q8,0 8,-18l0,-13q-82,-97 -205,-97q-31,0 -56,6l-10,2l0,-172q19,14 30,22t36,16t51,8q81,0 137,-65t56,-154q0,-92 -64,-157t-156,-66q-81,0 -130,54t-49,122q0,24 11,38t23,18t23,4q25,0 41,-17t16,-40z"/>
         <path id="svg_264" stroke-width="10" d="m109,429q-27,0 -43,18t-16,44q0,71 53,123t132,52q91,0 152,-56t62,-145q0,-43 -20,-82t-48,-68t-80,-74q-36,-31 -100,-92l-59,-56l76,-1q157,0 167,5q7,2 24,89l0,3l40,0l0,-3q-1,-3 -13,-91t-15,-92l0,-3l-371,0l0,19l0,12q0,7 6,15t30,35q29,32 50,56q9,10 34,37t34,37t29,33t28,34t23,30t21,32t15,29t13,32t7,30t3,33q0,63 -34,109t-97,46q-33,0 -58,-17t-35,-33t-10,-19q0,-1 5,-1q18,0 37,-14t19,-46q0,-25 -16,-42t-45,-18z"/>
         <path id="svg_263" stroke-width="10" d="m56,347q0,13 14,20l637,0q15,-8 15,-20q0,-11 -14,-19l-318,-1l-318,0q-16,5 -16,20zm0,-194q0,15 16,20l636,0q14,-10 14,-20q0,-13 -15,-20l-637,0q-14,7 -14,20z"/>
         <path id="svg_262" stroke-width="10" d="m213,578l-13,-5q-14,-5 -40,-10t-58,-7l-19,0l0,46l19,0q47,2 87,15t56,24t28,22q2,3 12,3q9,0 17,-6l0,-299l1,-300q7,-7 12,-9t24,-4t62,-2l26,0l0,-46l-11,0q-21,3 -159,3q-136,0 -157,-3l-12,0l0,46l26,0q22,0 38,0t25,1t16,3t8,2t6,5t6,4l0,517z"/>
        </defs>
        <g stroke="rgb(68, 68, 68)" fill="rgb(68, 68, 68)" stroke-width="0" transform="matrix(1 0 0 -1 0 0)" id="svg_247">
         <use xlink:href="#svg_261" id="svg_260"/>
         <use xlink:href="#svg_259" x="505" y="0" id="svg_258"/>
         <use xlink:href="#svg_257" x="1304" y="0" id="svg_256"/>
         <use xlink:href="#svg_255" x="2309" y="0" id="svg_254"/>
         <use xlink:href="#svg_253" x="2814" y="0" id="svg_252"/>
         <use xlink:href="#svg_251" x="3594" y="0" id="svg_250"/>
         <use xlink:href="#svg_249" x="4655" y="0" id="svg_248"/>
        </g>
       </svg>
      </g>
     </g>
     <g class="traces" id="svg_154">
      <g class="legendfill" id="svg_200">
       <path class="js-fill" d="m5,33.5l30,0l0,6l-30,0l0,-6z" fill-opacity="0.5" fill="rgb(0, 0, 0)" stroke-width="0px" id="svg_201"/>
      </g>
      <g class="legendlines" id="svg_197">
       <path class="js-line" d="m5,33.5l30,0" stroke-width="2px" stroke-opacity="0" stroke="rgb(0, 0, 0)" fill="none" id="svg_198"/>
      </g>
      <g class="legendsymbols" id="svg_157">
       <g class="legendpoints" id="svg_158">
        <path class="scatterpts" d="m23,33.5a3,3 0 1 1 -3,-3a3,3 0 0 1 3,3z" fill-opacity="0" fill="rgb(0, 0, 0)" stroke-width="0px" id="svg_196"/>
       </g>
      </g>
      <text class="legendtext" x="40" y="38.18" fill="rgb(68, 68, 68)" font-size="12px" font-family="'Open sans', verdana, arial, sans-serif" text-anchor="start" id="svg_156">Feasible Region</text>
      <rect class="legendtoggle" x="0" y="24" height="19" width="126.984375" fill-opacity="0" fill="rgb(0, 0, 0)" id="svg_155"/>
     </g>
    </svg>
   </g>
   <g class="annotation" id="svg_267">
    <g class="annotation-text-g" id="svg_86">
     <svg x="578" y="270" width="48" height="21" id="svg_284">
      <rect class="bg" x="0.5" y="0.5" width="47" height="20" fill-opacity="0" fill="rgb(0, 0, 0)" stroke-opacity="0" stroke="rgb(0, 0, 0)" stroke-width="1px" id="svg_286"/>
      <text class="annotation" text-anchor="middle" x="23.90625" y="15" fill="rgb(68, 68, 68)" font-size="12px" font-family="'Open sans', verdana, arial, sans-serif" id="svg_285">(2.67, 0)</text>
     </svg>
    </g>
    <g class="annotation-arrow-g" id="svg_271">
     <path d="m605.233337,290.549988l6.666687,20" stroke-dasharray="19.8818576812744px, 21.0818576812744px" stroke="rgb(68, 68, 68)" stroke-width="2px" id="svg_272"/>
     <path d="m-2.4,-3l0,6l3,-3l-3,-3z" transform="rotate(71.5706, 608.947, 307.08) translate(611.521, 309.412) scale(2)" stroke-width="0px" fill="rgb(68, 68, 68)" id="svg_273"/>
     <path class="annotation anndrag" d="m614.900024,313.549988l-6,0l0,-6l6,0l0,6zm-3,-3l-6.666687,-20" fill-opacity="0" fill="rgb(0, 0, 0)" stroke-opacity="0" stroke="rgb(0, 0, 0)" stroke-width="8px" id="svg_274"/>
    </g>
   </g>
   <g class="annotation" id="svg_275">
    <g class="annotation-text-g" id="svg_87">
     <svg x="458" y="254" width="41" height="21" id="svg_287">
      <rect class="bg" x="0.5" y="0.5" width="40" height="20" fill-opacity="0" fill="rgb(0, 0, 0)" stroke-opacity="0" stroke="rgb(0, 0, 0)" stroke-width="1px" id="svg_289"/>
      <text class="annotation" text-anchor="middle" x="20.46875" y="15" fill="rgb(68, 68, 68)" font-size="12px" font-family="'Open sans', verdana, arial, sans-serif" id="svg_288">(2, 0.5)</text>
     </svg>
    </g>
    <g class="annotation-arrow-g" id="svg_279">
     <path d="m481.603333,274.540009l6.666656,20" stroke-dasharray="19.8818481445313px, 21.0818481445313px" stroke="rgb(68, 68, 68)" stroke-width="2px" id="svg_280"/>
     <path d="m-2.4,-3l0,6l3,-3l-3,-3z" transform="rotate(71.5706, 485.316, 291.071) translate(487.891, 293.402) scale(2)" stroke-width="0px" fill="rgb(68, 68, 68)" id="svg_281"/>
     <path class="annotation anndrag" d="m491.269989,297.540009l-6,0l0,-6l6,0l0,6zm-3,-3l-6.666656,-20" fill-opacity="0" fill="rgb(0, 0, 0)" stroke-opacity="0" stroke="rgb(0, 0, 0)" stroke-width="8px" id="svg_282"/>
    </g>
   </g>
  </g>
 </g>
</svg>