<?xml version="1.0" encoding="UTF-8"?>
<svg xmlns="http://www.w3.org/2000/svg" xmlns:xlink="http://www.w3.org/1999/xlink" width="331.85675pt" height="57.035418pt" viewBox="0 0 331.85675 57.035418" version="1.1">
<g id="surface1">
<path style=" stroke:none;fill-rule:nonzero;fill:rgb(0%,0%,0%);fill-opacity:1;" d="M 5.859375 15.003906 C 6.015625 14.378906 6.054688 14.203125 7.363281 14.203125 C 7.753906 14.203125 7.890625 14.203125 7.890625 13.851562 C 7.890625 13.675781 7.695312 13.675781 7.65625 13.675781 C 7.324219 13.675781 6.933594 13.714844 6.601562 13.714844 L 4.394531 13.714844 C 4.042969 13.714844 3.632812 13.675781 3.28125 13.675781 C 3.125 13.675781 2.929688 13.675781 2.929688 14.007812 C 2.929688 14.203125 3.085938 14.203125 3.4375 14.203125 C 4.550781 14.203125 4.550781 14.339844 4.550781 14.535156 C 4.550781 14.652344 4.511719 14.769531 4.472656 14.925781 L 2.050781 24.59375 C 1.894531 25.21875 1.855469 25.394531 0.546875 25.394531 C 0.15625 25.394531 0 25.394531 0 25.746094 C 0 25.921875 0.175781 25.921875 0.253906 25.921875 C 0.585938 25.921875 0.976562 25.882812 1.308594 25.882812 L 3.515625 25.882812 C 3.867188 25.882812 4.257812 25.921875 4.609375 25.921875 C 4.765625 25.921875 4.980469 25.921875 4.980469 25.589844 C 4.980469 25.394531 4.863281 25.394531 4.472656 25.394531 C 3.359375 25.394531 3.359375 25.257812 3.359375 25.042969 C 3.359375 25.003906 3.359375 24.925781 3.4375 24.632812 Z M 5.859375 15.003906 "/>
<path style=" stroke:none;fill-rule:nonzero;fill:rgb(0%,0%,0%);fill-opacity:1;" d="M 25.46875 20.121094 C 25.722656 20.121094 26.035156 20.121094 26.035156 19.789062 C 26.035156 19.457031 25.722656 19.457031 25.46875 19.457031 L 14.902344 19.457031 C 14.648438 19.457031 14.335938 19.457031 14.335938 19.769531 C 14.335938 20.121094 14.628906 20.121094 14.902344 20.121094 Z M 25.46875 23.441406 C 25.722656 23.441406 26.035156 23.441406 26.035156 23.128906 C 26.035156 22.777344 25.722656 22.777344 25.46875 22.777344 L 14.902344 22.777344 C 14.648438 22.777344 14.335938 22.777344 14.335938 23.109375 C 14.335938 23.441406 14.628906 23.441406 14.902344 23.441406 Z M 25.46875 23.441406 "/>
<path style=" stroke:none;fill-rule:nonzero;fill:rgb(0%,0%,0%);fill-opacity:1;" d="M 33.964844 40.496094 C 34.550781 40.476562 34.84375 40.066406 34.84375 39.636719 C 34.84375 39.03125 34.414062 38.757812 33.984375 38.757812 C 33.554688 38.757812 33.105469 39.011719 33.105469 39.636719 C 33.105469 40.554688 34.003906 41.316406 35.097656 41.316406 C 37.832031 41.316406 38.847656 37.117188 40.117188 31.921875 C 41.503906 26.257812 42.675781 20.535156 43.632812 14.773438 C 44.296875 10.964844 44.960938 7.371094 45.566406 5.066406 C 45.78125 4.1875 46.40625 1.863281 47.089844 1.863281 C 47.65625 1.863281 48.105469 2.214844 48.183594 2.273438 C 47.578125 2.3125 47.285156 2.703125 47.285156 3.152344 C 47.285156 3.757812 47.734375 4.03125 48.144531 4.03125 C 48.574219 4.03125 49.023438 3.777344 49.023438 3.132812 C 49.023438 2.175781 48.046875 1.472656 47.070312 1.472656 C 45.703125 1.472656 44.6875 3.425781 43.710938 7.078125 C 43.652344 7.273438 41.210938 16.277344 39.238281 28.015625 C 38.769531 30.75 38.261719 33.738281 37.675781 36.238281 C 37.34375 37.546875 36.523438 40.925781 35.058594 40.925781 C 34.414062 40.925781 33.984375 40.496094 33.964844 40.496094 Z M 33.964844 40.496094 "/>
<path style=" stroke:none;fill-rule:nonzero;fill:rgb(0%,0%,0%);fill-opacity:1;" d="M 108.78125 1.78125 C 108.800781 1.703125 108.839844 1.605469 108.839844 1.507812 C 108.839844 1.332031 108.644531 1.332031 108.605469 1.332031 C 108.605469 1.332031 107.726562 1.410156 107.628906 1.410156 C 107.316406 1.429688 107.0625 1.46875 106.730469 1.488281 C 106.28125 1.527344 106.164062 1.546875 106.164062 1.859375 C 106.164062 2.054688 106.300781 2.054688 106.554688 2.054688 C 107.433594 2.054688 107.453125 2.210938 107.453125 2.386719 C 107.453125 2.503906 107.414062 2.640625 107.394531 2.699219 L 106.300781 7.054688 C 106.105469 6.585938 105.617188 5.863281 104.679688 5.863281 C 102.667969 5.863281 100.480469 8.480469 100.480469 11.136719 C 100.480469 12.914062 101.515625 13.949219 102.726562 13.949219 C 103.722656 13.949219 104.5625 13.1875 105.070312 12.582031 C 105.246094 13.65625 106.085938 13.949219 106.632812 13.949219 C 107.160156 13.949219 107.589844 13.636719 107.921875 12.992188 C 108.195312 12.367188 108.449219 11.273438 108.449219 11.214844 C 108.449219 11.117188 108.390625 11.039062 108.273438 11.039062 C 108.117188 11.039062 108.097656 11.136719 108.019531 11.410156 C 107.746094 12.464844 107.414062 13.597656 106.671875 13.597656 C 106.164062 13.597656 106.125 13.128906 106.125 12.777344 C 106.125 12.699219 106.125 12.328125 106.242188 11.820312 Z M 105.148438 11.644531 C 105.070312 11.9375 105.070312 11.976562 104.816406 12.328125 C 104.425781 12.816406 103.625 13.597656 102.785156 13.597656 C 102.0625 13.597656 101.632812 12.933594 101.632812 11.878906 C 101.632812 10.882812 102.199219 8.871094 102.53125 8.128906 C 103.15625 6.878906 103.996094 6.234375 104.679688 6.234375 C 105.871094 6.234375 106.105469 7.699219 106.105469 7.835938 C 106.105469 7.855469 106.046875 8.089844 106.027344 8.128906 Z M 105.148438 11.644531 "/>
<path style=" stroke:none;fill-rule:nonzero;fill:rgb(0%,0%,0%);fill-opacity:1;" d="M 111.191406 12.328125 C 111.953125 11.449219 112.578125 10.882812 113.476562 10.082031 C 114.550781 9.144531 115.019531 8.695312 115.273438 8.421875 C 116.523438 7.191406 117.148438 6.15625 117.148438 6.019531 C 117.148438 5.863281 117.011719 5.863281 116.972656 5.863281 C 116.855469 5.863281 116.816406 5.941406 116.71875 6.058594 C 116.269531 6.839844 115.839844 7.210938 115.371094 7.210938 C 115 7.210938 114.804688 7.054688 114.472656 6.625 C 114.082031 6.175781 113.789062 5.863281 113.261719 5.863281 C 111.953125 5.863281 111.171875 7.503906 111.171875 7.875 C 111.171875 7.933594 111.191406 8.03125 111.347656 8.03125 C 111.484375 8.03125 111.503906 7.972656 111.5625 7.835938 C 111.855469 7.113281 112.734375 6.996094 113.066406 6.996094 C 113.4375 6.996094 113.808594 7.113281 114.179688 7.289062 C 114.863281 7.5625 115.136719 7.5625 115.332031 7.5625 C 115.449219 7.5625 115.527344 7.5625 115.605469 7.542969 C 115.019531 8.246094 114.042969 9.105469 113.242188 9.847656 L 111.425781 11.507812 C 110.332031 12.621094 109.667969 13.675781 109.667969 13.8125 C 109.667969 13.910156 109.765625 13.949219 109.882812 13.949219 C 109.980469 13.949219 110 13.929688 110.117188 13.714844 C 110.410156 13.265625 110.976562 12.601562 111.640625 12.601562 C 112.03125 12.601562 112.207031 12.738281 112.558594 13.1875 C 112.910156 13.578125 113.203125 13.949219 113.789062 13.949219 C 115.546875 13.949219 116.542969 11.683594 116.542969 11.253906 C 116.542969 11.195312 116.523438 11.078125 116.347656 11.078125 C 116.210938 11.078125 116.191406 11.15625 116.132812 11.332031 C 115.742188 12.386719 114.6875 12.816406 113.984375 12.816406 C 113.613281 12.816406 113.242188 12.699219 112.871094 12.542969 C 112.148438 12.25 111.953125 12.25 111.71875 12.25 C 111.542969 12.25 111.347656 12.25 111.191406 12.328125 Z M 111.191406 12.328125 "/>
<path style=" stroke:none;fill-rule:nonzero;fill:rgb(0%,0%,0%);fill-opacity:1;" d="M 54.445312 21.136719 L 163.042969 21.136719 L 163.042969 21.886719 L 54.445312 21.886719 Z M 54.445312 21.136719 "/>
<path style=" stroke:none;fill-rule:nonzero;fill:rgb(0%,0%,0%);fill-opacity:1;" d="M 62.777344 54.339844 L 58.929688 40.882812 L 56.429688 43.8125 L 56.722656 44.085938 L 57.933594 42.640625 L 62.054688 57.035156 C 62.660156 57.035156 62.660156 57.035156 62.816406 56.605469 L 72.660156 25.472656 C 72.738281 25.199219 72.738281 25.140625 72.738281 25.121094 C 72.738281 24.925781 72.601562 24.75 72.386719 24.75 C 72.113281 24.75 72.054688 24.984375 71.976562 25.21875 Z M 62.777344 54.339844 "/>
<path style=" stroke:none;fill-rule:nonzero;fill:rgb(0%,0%,0%);fill-opacity:1;" d="M 72.441406 24.738281 L 163.042969 24.738281 L 163.042969 25.492188 L 72.441406 25.492188 Z M 72.441406 24.738281 "/>
<path style=" stroke:none;fill-rule:nonzero;fill:rgb(0%,0%,0%);fill-opacity:1;" d="M 79.019531 42.457031 C 79.019531 46.695312 77.144531 47.554688 76.070312 47.554688 C 75.621094 47.554688 74.683594 47.515625 74.234375 46.890625 L 74.332031 46.890625 C 74.46875 46.910156 75.113281 46.8125 75.113281 46.148438 C 75.113281 45.757812 74.839844 45.40625 74.371094 45.40625 C 73.902344 45.40625 73.628906 45.71875 73.628906 46.1875 C 73.628906 47.300781 74.527344 48.042969 76.070312 48.042969 C 78.316406 48.042969 80.484375 45.660156 80.484375 41.773438 C 80.484375 36.949219 78.472656 35.757812 76.910156 35.757812 C 74.9375 35.757812 73.199219 37.398438 73.199219 39.761719 C 73.199219 42.125 74.859375 43.746094 76.65625 43.746094 C 77.984375 43.746094 78.667969 42.769531 79.019531 41.871094 Z M 76.714844 43.394531 C 75.601562 43.394531 75.113281 42.476562 74.957031 42.125 C 74.664062 41.441406 74.664062 40.582031 74.664062 39.78125 C 74.664062 38.785156 74.664062 37.925781 75.132812 37.183594 C 75.445312 36.695312 75.933594 36.1875 76.910156 36.1875 C 77.925781 36.1875 78.453125 37.066406 78.628906 37.496094 C 78.980469 38.375 78.980469 39.898438 78.980469 40.152344 C 78.980469 41.65625 78.296875 43.394531 76.714844 43.394531 Z M 76.714844 43.394531 "/>
<path style=" stroke:none;fill-rule:nonzero;fill:rgb(0%,0%,0%);fill-opacity:1;" d="M 97.023438 43.550781 C 97.335938 43.550781 97.648438 43.550781 97.648438 43.199219 C 97.648438 42.828125 97.335938 42.828125 97.023438 42.828125 L 87.316406 42.828125 C 87.023438 42.828125 86.691406 42.828125 86.691406 43.199219 C 86.691406 43.550781 87.023438 43.550781 87.316406 43.550781 Z M 97.023438 43.550781 "/>
<path style=" stroke:none;fill-rule:nonzero;fill:rgb(0%,0%,0%);fill-opacity:1;" d="M 108.878906 52.027344 C 108.878906 51.96875 108.878906 51.929688 108.585938 51.636719 C 106.789062 49.820312 105.792969 46.871094 105.792969 43.199219 C 105.792969 39.722656 106.632812 36.734375 108.703125 34.625 C 108.878906 34.449219 108.878906 34.429688 108.878906 34.371094 C 108.878906 34.253906 108.800781 34.234375 108.722656 34.234375 C 108.488281 34.234375 107.023438 35.523438 106.144531 37.28125 C 105.226562 39.078125 104.816406 41.011719 104.816406 43.199219 C 104.816406 44.800781 105.070312 46.929688 106.007812 48.863281 C 107.0625 51.011719 108.527344 52.164062 108.722656 52.164062 C 108.800781 52.164062 108.878906 52.144531 108.878906 52.027344 Z M 108.878906 52.027344 "/>
<path style=" stroke:none;fill-rule:nonzero;fill:rgb(0%,0%,0%);fill-opacity:1;" d="M 112.242188 46.226562 C 113.003906 45.347656 113.628906 44.78125 114.527344 43.980469 C 115.601562 43.042969 116.070312 42.59375 116.324219 42.320312 C 117.574219 41.089844 118.199219 40.054688 118.199219 39.917969 C 118.199219 39.761719 118.0625 39.761719 118.023438 39.761719 C 117.90625 39.761719 117.867188 39.839844 117.769531 39.957031 C 117.320312 40.738281 116.890625 41.109375 116.421875 41.109375 C 116.050781 41.109375 115.855469 40.953125 115.523438 40.523438 C 115.132812 40.074219 114.839844 39.761719 114.3125 39.761719 C 113.003906 39.761719 112.222656 41.402344 112.222656 41.773438 C 112.222656 41.832031 112.242188 41.929688 112.398438 41.929688 C 112.535156 41.929688 112.554688 41.871094 112.613281 41.734375 C 112.90625 41.011719 113.785156 40.894531 114.117188 40.894531 C 114.488281 40.894531 114.859375 41.011719 115.230469 41.1875 C 115.914062 41.460938 116.1875 41.460938 116.382812 41.460938 C 116.5 41.460938 116.578125 41.460938 116.65625 41.441406 C 116.070312 42.144531 115.09375 43.003906 114.292969 43.746094 L 112.476562 45.40625 C 111.382812 46.519531 110.71875 47.574219 110.71875 47.710938 C 110.71875 47.808594 110.816406 47.847656 110.933594 47.847656 C 111.03125 47.847656 111.050781 47.828125 111.167969 47.613281 C 111.460938 47.164062 112.027344 46.5 112.691406 46.5 C 113.082031 46.5 113.257812 46.636719 113.609375 47.085938 C 113.960938 47.476562 114.253906 47.847656 114.839844 47.847656 C 116.597656 47.847656 117.59375 45.582031 117.59375 45.152344 C 117.59375 45.09375 117.574219 44.976562 117.398438 44.976562 C 117.261719 44.976562 117.242188 45.054688 117.183594 45.230469 C 116.792969 46.285156 115.738281 46.714844 115.035156 46.714844 C 114.664062 46.714844 114.292969 46.597656 113.921875 46.441406 C 113.199219 46.148438 113.003906 46.148438 112.769531 46.148438 C 112.59375 46.148438 112.398438 46.148438 112.242188 46.226562 Z M 112.242188 46.226562 "/>
<path style=" stroke:none;fill-rule:nonzero;fill:rgb(0%,0%,0%);fill-opacity:1;" d="M 130.007812 43.53125 L 134.96875 43.53125 C 135.222656 43.53125 135.535156 43.53125 135.535156 43.199219 C 135.535156 42.867188 135.222656 42.867188 134.96875 42.867188 L 130.007812 42.867188 L 130.007812 37.925781 C 130.007812 37.671875 130.007812 37.339844 129.695312 37.339844 C 129.34375 37.339844 129.34375 37.652344 129.34375 37.925781 L 129.34375 42.867188 L 124.402344 42.867188 C 124.148438 42.867188 123.835938 42.867188 123.835938 43.199219 C 123.835938 43.53125 124.128906 43.53125 124.402344 43.53125 L 129.34375 43.53125 L 129.34375 48.472656 C 129.34375 48.726562 129.34375 49.058594 129.675781 49.058594 C 130.007812 49.058594 130.007812 48.746094 130.007812 48.472656 Z M 130.007812 43.53125 "/>
<path style=" stroke:none;fill-rule:nonzero;fill:rgb(0%,0%,0%);fill-opacity:1;" d="M 148.449219 44.664062 L 148.058594 44.664062 C 148 44.957031 147.863281 45.953125 147.667969 46.246094 C 147.550781 46.402344 146.535156 46.402344 145.988281 46.402344 L 142.667969 46.402344 C 143.15625 45.992188 144.25 44.839844 144.71875 44.410156 C 147.453125 41.890625 148.449219 40.972656 148.449219 39.195312 C 148.449219 37.125 146.808594 35.757812 144.738281 35.757812 C 142.648438 35.757812 141.4375 37.515625 141.4375 39.058594 C 141.4375 39.976562 142.21875 39.976562 142.277344 39.976562 C 142.648438 39.976562 143.117188 39.703125 143.117188 39.136719 C 143.117188 38.628906 142.785156 38.296875 142.277344 38.296875 C 142.121094 38.296875 142.082031 38.296875 142.023438 38.316406 C 142.375 37.085938 143.332031 36.265625 144.503906 36.265625 C 146.027344 36.265625 146.964844 37.535156 146.964844 39.195312 C 146.964844 40.71875 146.085938 42.046875 145.050781 43.199219 L 141.4375 47.242188 L 141.4375 47.671875 L 147.980469 47.671875 Z M 148.449219 44.664062 "/>
<path style=" stroke:none;fill-rule:nonzero;fill:rgb(0%,0%,0%);fill-opacity:1;" d="M 154.464844 43.199219 C 154.464844 41.851562 154.289062 39.625 153.273438 37.535156 C 152.21875 35.386719 150.753906 34.234375 150.558594 34.234375 C 150.480469 34.234375 150.382812 34.253906 150.382812 34.371094 C 150.382812 34.429688 150.382812 34.449219 150.695312 34.761719 C 152.492188 36.578125 153.488281 39.527344 153.488281 43.199219 C 153.488281 46.675781 152.648438 49.664062 150.578125 51.773438 C 150.382812 51.929688 150.382812 51.96875 150.382812 52.027344 C 150.382812 52.144531 150.480469 52.164062 150.558594 52.164062 C 150.792969 52.164062 152.257812 50.875 153.136719 49.117188 C 154.054688 47.300781 154.464844 45.367188 154.464844 43.199219 Z M 154.464844 43.199219 "/>
<path style=" stroke:none;fill-rule:nonzero;fill:rgb(0%,0%,0%);fill-opacity:1;" d="M 157.738281 38.164062 L 159.066406 36.875 C 161 35.15625 161.742188 34.492188 161.742188 33.242188 C 161.742188 31.816406 160.628906 30.820312 159.105469 30.820312 C 157.699219 30.820312 156.78125 31.972656 156.78125 33.085938 C 156.78125 33.769531 157.40625 33.769531 157.445312 33.769531 C 157.660156 33.769531 158.089844 33.632812 158.089844 33.105469 C 158.089844 32.792969 157.855469 32.460938 157.425781 32.460938 C 157.328125 32.460938 157.308594 32.460938 157.269531 32.480469 C 157.542969 31.660156 158.226562 31.210938 158.949219 31.210938 C 160.082031 31.210938 160.609375 32.226562 160.609375 33.242188 C 160.609375 34.238281 160.003906 35.214844 159.300781 35.996094 L 156.917969 38.652344 C 156.78125 38.789062 156.78125 38.828125 156.78125 39.121094 L 161.410156 39.121094 L 161.742188 36.953125 L 161.449219 36.953125 C 161.371094 37.324219 161.292969 37.871094 161.15625 38.066406 C 161.078125 38.164062 160.257812 38.164062 159.984375 38.164062 Z M 157.738281 38.164062 "/>
<path style=" stroke:none;fill-rule:nonzero;fill:rgb(0%,0%,0%);fill-opacity:1;" d="M 181.617188 20.121094 C 181.871094 20.121094 182.183594 20.121094 182.183594 19.789062 C 182.183594 19.457031 181.871094 19.457031 181.617188 19.457031 L 171.050781 19.457031 C 170.796875 19.457031 170.484375 19.457031 170.484375 19.769531 C 170.484375 20.121094 170.777344 20.121094 171.050781 20.121094 Z M 181.617188 23.441406 C 181.871094 23.441406 182.183594 23.441406 182.183594 23.128906 C 182.183594 22.777344 181.871094 22.777344 181.617188 22.777344 L 171.050781 22.777344 C 170.796875 22.777344 170.484375 22.777344 170.484375 23.109375 C 170.484375 23.441406 170.777344 23.441406 171.050781 23.441406 Z M 181.617188 23.441406 "/>
<path style=" stroke:none;fill-rule:nonzero;fill:rgb(0%,0%,0%);fill-opacity:1;" d="M 193.988281 18.34375 C 193.988281 18.011719 193.988281 17.933594 193.8125 17.933594 C 193.675781 17.933594 193.324219 18.324219 193.207031 18.480469 C 192.640625 18.03125 192.09375 17.933594 191.507812 17.933594 C 189.339844 17.933594 188.695312 19.105469 188.695312 20.101562 C 188.695312 20.296875 188.695312 20.921875 189.378906 21.546875 C 189.964844 22.054688 190.570312 22.171875 191.390625 22.328125 C 192.367188 22.523438 192.601562 22.582031 193.050781 22.953125 C 193.382812 23.207031 193.617188 23.617188 193.617188 24.105469 C 193.617188 24.886719 193.167969 25.746094 191.585938 25.746094 C 190.414062 25.746094 189.535156 25.0625 189.144531 23.265625 C 189.085938 22.953125 189.085938 22.933594 189.066406 22.914062 C 189.027344 22.835938 188.949219 22.835938 188.890625 22.835938 C 188.695312 22.835938 188.695312 22.933594 188.695312 23.246094 L 188.695312 25.6875 C 188.695312 26.019531 188.695312 26.097656 188.871094 26.097656 C 188.96875 26.097656 188.988281 26.078125 189.300781 25.707031 C 189.378906 25.589844 189.378906 25.550781 189.652344 25.257812 C 190.335938 26.097656 191.292969 26.097656 191.605469 26.097656 C 193.480469 26.097656 194.417969 25.0625 194.417969 23.636719 C 194.417969 22.679688 193.832031 22.09375 193.675781 21.9375 C 193.03125 21.390625 192.542969 21.273438 191.351562 21.058594 C 190.824219 20.960938 189.515625 20.707031 189.515625 19.632812 C 189.515625 19.066406 189.886719 18.246094 191.507812 18.246094 C 193.460938 18.246094 193.558594 19.90625 193.597656 20.472656 C 193.617188 20.609375 193.734375 20.609375 193.792969 20.609375 C 193.988281 20.609375 193.988281 20.53125 193.988281 20.199219 Z M 193.988281 18.34375 "/>
<path style=" stroke:none;fill-rule:nonzero;fill:rgb(0%,0%,0%);fill-opacity:1;" d="M 198.132812 14.886719 C 198.132812 14.417969 197.742188 14.007812 197.253906 14.007812 C 196.785156 14.007812 196.394531 14.378906 196.394531 14.867188 C 196.394531 15.394531 196.824219 15.746094 197.253906 15.746094 C 197.800781 15.746094 198.132812 15.277344 198.132812 14.886719 Z M 195.652344 18.207031 L 195.652344 18.734375 C 196.804688 18.734375 196.960938 18.832031 196.960938 19.710938 L 196.960938 24.59375 C 196.960938 25.394531 196.765625 25.394531 195.59375 25.394531 L 195.59375 25.921875 C 196.101562 25.882812 196.960938 25.882812 197.488281 25.882812 C 197.683594 25.882812 198.71875 25.882812 199.324219 25.921875 L 199.324219 25.394531 C 198.171875 25.394531 198.09375 25.316406 198.09375 24.613281 L 198.09375 18.011719 Z M 195.652344 18.207031 "/>
<path style=" stroke:none;fill-rule:nonzero;fill:rgb(0%,0%,0%);fill-opacity:1;" d="M 207.945312 21.566406 C 207.945312 19.90625 207.945312 19.398438 207.515625 18.8125 C 207.007812 18.128906 206.167969 18.011719 205.542969 18.011719 C 203.804688 18.011719 203.121094 19.496094 202.984375 19.867188 L 202.964844 19.867188 L 202.964844 18.011719 L 200.523438 18.207031 L 200.523438 18.734375 C 201.753906 18.734375 201.890625 18.851562 201.890625 19.730469 L 201.890625 24.59375 C 201.890625 25.394531 201.695312 25.394531 200.523438 25.394531 L 200.523438 25.921875 C 200.992188 25.882812 201.96875 25.882812 202.476562 25.882812 C 202.984375 25.882812 203.960938 25.882812 204.429688 25.921875 L 204.429688 25.394531 C 203.277344 25.394531 203.0625 25.394531 203.0625 24.59375 L 203.0625 21.253906 C 203.0625 19.378906 204.292969 18.382812 205.40625 18.382812 C 206.519531 18.382812 206.773438 19.28125 206.773438 20.375 L 206.773438 24.59375 C 206.773438 25.394531 206.578125 25.394531 205.40625 25.394531 L 205.40625 25.921875 C 205.875 25.882812 206.851562 25.882812 207.339844 25.882812 C 207.867188 25.882812 208.824219 25.882812 209.292969 25.921875 L 209.292969 25.394531 C 208.394531 25.394531 207.945312 25.394531 207.945312 24.867188 Z M 207.945312 21.566406 "/>
<path style=" stroke:none;fill-rule:nonzero;fill:rgb(0%,0%,0%);fill-opacity:1;" d="M 217.910156 15.703125 C 218.125 15.703125 218.359375 15.703125 218.359375 15.449219 C 218.359375 15.214844 218.125 15.214844 217.910156 15.214844 L 211.171875 15.214844 C 210.957031 15.214844 210.742188 15.214844 210.742188 15.449219 C 210.742188 15.703125 210.957031 15.703125 211.171875 15.703125 Z M 217.910156 15.703125 "/>
<path style=" stroke:none;fill-rule:nonzero;fill:rgb(0%,0%,0%);fill-opacity:1;" d="M 223.128906 10.605469 C 223.128906 10.292969 223.128906 10.273438 222.835938 10.273438 C 222.054688 11.074219 220.960938 11.074219 220.570312 11.074219 L 220.570312 11.464844 C 220.824219 11.464844 221.546875 11.464844 222.191406 11.132812 L 222.191406 17.597656 C 222.191406 18.046875 222.152344 18.183594 221.039062 18.183594 L 220.648438 18.183594 L 220.648438 18.574219 C 221.078125 18.535156 222.152344 18.535156 222.660156 18.535156 C 223.148438 18.535156 224.242188 18.535156 224.671875 18.574219 L 224.671875 18.183594 L 224.28125 18.183594 C 223.148438 18.183594 223.128906 18.046875 223.128906 17.597656 Z M 223.128906 10.605469 "/>
<path style=" stroke:none;fill-rule:nonzero;fill:rgb(0%,0%,0%);fill-opacity:1;" d="M 241.765625 42.832031 C 241.765625 42.773438 241.726562 42.734375 241.6875 42.675781 C 241.023438 42.011719 239.8125 40.820312 238.621094 38.886719 C 235.730469 34.257812 234.421875 28.417969 234.421875 21.523438 C 234.421875 16.699219 235.066406 10.46875 238.035156 5.136719 C 239.441406 2.578125 240.90625 1.113281 241.707031 0.332031 C 241.765625 0.273438 241.765625 0.234375 241.765625 0.175781 C 241.765625 0 241.628906 0 241.375 0 C 241.121094 0 241.101562 0 240.828125 0.273438 C 234.8125 5.742188 232.9375 13.945312 232.9375 21.503906 C 232.9375 28.554688 234.558594 35.644531 239.109375 41.015625 C 239.460938 41.425781 240.144531 42.148438 240.886719 42.8125 C 241.101562 43.027344 241.121094 43.027344 241.375 43.027344 C 241.628906 43.027344 241.765625 43.027344 241.765625 42.832031 Z M 241.765625 42.832031 "/>
<path style=" stroke:none;fill-rule:nonzero;fill:rgb(0%,0%,0%);fill-opacity:1;" d="M 247.109375 9.613281 C 247.597656 9.613281 248.828125 9.574219 249.6875 9.261719 C 251.035156 8.734375 251.171875 7.699219 251.171875 7.367188 C 251.171875 6.585938 250.488281 5.863281 249.296875 5.863281 C 247.421875 5.863281 244.707031 7.5625 244.707031 10.765625 C 244.707031 12.640625 245.78125 13.949219 247.421875 13.949219 C 249.863281 13.949219 251.40625 12.054688 251.40625 11.820312 C 251.40625 11.703125 251.289062 11.625 251.230469 11.625 C 251.171875 11.625 251.152344 11.644531 250.996094 11.800781 C 249.84375 13.324219 248.144531 13.597656 247.460938 13.597656 C 246.425781 13.597656 245.898438 12.796875 245.898438 11.46875 C 245.898438 11.214844 245.898438 10.765625 246.171875 9.613281 Z M 246.25 9.261719 C 247.03125 6.488281 248.730469 6.234375 249.296875 6.234375 C 250.097656 6.234375 250.625 6.683594 250.625 7.367188 C 250.625 9.261719 247.753906 9.261719 247.011719 9.261719 Z M 246.25 9.261719 "/>
<path style=" stroke:none;fill-rule:nonzero;fill:rgb(0%,0%,0%);fill-opacity:1;" d="M 256.167969 3.550781 C 256.246094 3.238281 256.539062 2.085938 257.398438 2.085938 C 257.457031 2.085938 257.769531 2.085938 258.023438 2.242188 C 257.671875 2.320312 257.4375 2.613281 257.4375 2.925781 C 257.4375 3.121094 257.574219 3.355469 257.90625 3.355469 C 258.179688 3.355469 258.570312 3.140625 258.570312 2.632812 C 258.570312 1.988281 257.847656 1.8125 257.417969 1.8125 C 256.695312 1.8125 256.265625 2.476562 256.109375 2.75 C 255.796875 1.929688 255.132812 1.8125 254.761719 1.8125 C 253.472656 1.8125 252.75 3.414062 252.75 3.726562 C 252.75 3.863281 252.886719 3.863281 252.90625 3.863281 C 253.003906 3.863281 253.042969 3.824219 253.0625 3.726562 C 253.492188 2.398438 254.3125 2.085938 254.742188 2.085938 C 254.976562 2.085938 255.40625 2.203125 255.40625 2.925781 C 255.40625 3.316406 255.191406 4.136719 254.742188 5.894531 C 254.546875 6.65625 254.097656 7.183594 253.550781 7.183594 C 253.472656 7.183594 253.199219 7.183594 252.925781 7.027344 C 253.238281 6.949219 253.511719 6.695312 253.511719 6.34375 C 253.511719 6.011719 253.238281 5.914062 253.0625 5.914062 C 252.671875 5.914062 252.378906 6.226562 252.378906 6.636719 C 252.378906 7.203125 252.984375 7.457031 253.53125 7.457031 C 254.371094 7.457031 254.820312 6.578125 254.839844 6.519531 C 254.996094 6.96875 255.445312 7.457031 256.1875 7.457031 C 257.476562 7.457031 258.179688 5.855469 258.179688 5.542969 C 258.179688 5.40625 258.082031 5.40625 258.042969 5.40625 C 257.925781 5.40625 257.90625 5.464844 257.867188 5.542969 C 257.457031 6.890625 256.617188 7.183594 256.226562 7.183594 C 255.738281 7.183594 255.542969 6.792969 255.542969 6.363281 C 255.542969 6.089844 255.601562 5.816406 255.738281 5.269531 Z M 256.167969 3.550781 "/>
<path style=" stroke:none;fill-rule:nonzero;fill:rgb(0%,0%,0%);fill-opacity:1;" d="M 270.855469 9.632812 L 275.816406 9.632812 C 276.070312 9.632812 276.382812 9.632812 276.382812 9.300781 C 276.382812 8.96875 276.070312 8.96875 275.816406 8.96875 L 270.855469 8.96875 L 270.855469 4.027344 C 270.855469 3.773438 270.855469 3.441406 270.542969 3.441406 C 270.191406 3.441406 270.191406 3.753906 270.191406 4.027344 L 270.191406 8.96875 L 265.25 8.96875 C 264.996094 8.96875 264.683594 8.96875 264.683594 9.300781 C 264.683594 9.632812 264.976562 9.632812 265.25 9.632812 L 270.191406 9.632812 L 270.191406 14.574219 C 270.191406 14.828125 270.191406 15.160156 270.523438 15.160156 C 270.855469 15.160156 270.855469 14.847656 270.855469 14.574219 Z M 270.855469 9.632812 "/>
<path style=" stroke:none;fill-rule:nonzero;fill:rgb(0%,0%,0%);fill-opacity:1;" d="M 289.300781 10.765625 L 288.910156 10.765625 C 288.851562 11.058594 288.714844 12.054688 288.519531 12.347656 C 288.402344 12.503906 287.386719 12.503906 286.839844 12.503906 L 283.519531 12.503906 C 284.007812 12.09375 285.101562 10.941406 285.570312 10.511719 C 288.304688 7.992188 289.300781 7.074219 289.300781 5.296875 C 289.300781 3.226562 287.660156 1.859375 285.589844 1.859375 C 283.5 1.859375 282.289062 3.617188 282.289062 5.160156 C 282.289062 6.078125 283.070312 6.078125 283.128906 6.078125 C 283.5 6.078125 283.96875 5.804688 283.96875 5.238281 C 283.96875 4.730469 283.636719 4.398438 283.128906 4.398438 C 282.972656 4.398438 282.933594 4.398438 282.875 4.417969 C 283.226562 3.1875 284.183594 2.367188 285.355469 2.367188 C 286.878906 2.367188 287.816406 3.636719 287.816406 5.296875 C 287.816406 6.820312 286.9375 8.148438 285.902344 9.300781 L 282.289062 13.34375 L 282.289062 13.773438 L 288.832031 13.773438 Z M 289.300781 10.765625 "/>
<path style=" stroke:none;fill-rule:nonzero;fill:rgb(0%,0%,0%);fill-opacity:1;" d="M 243.890625 21.136719 L 290.238281 21.136719 L 290.238281 21.886719 L 243.890625 21.886719 Z M 243.890625 21.136719 "/>
<path style=" stroke:none;fill-rule:nonzero;fill:rgb(0%,0%,0%);fill-opacity:1;" d="M 265.957031 31.777344 C 265.644531 31.796875 265.585938 31.816406 265.585938 31.992188 C 265.585938 32.167969 265.664062 32.167969 265.996094 32.167969 L 266.816406 32.167969 C 268.339844 32.167969 269.023438 33.417969 269.023438 35.136719 C 269.023438 37.480469 267.792969 38.105469 266.914062 38.105469 C 266.054688 38.105469 264.589844 37.695312 264.082031 36.523438 C 264.648438 36.601562 265.175781 36.289062 265.175781 35.644531 C 265.175781 35.117188 264.785156 34.765625 264.296875 34.765625 C 263.867188 34.765625 263.398438 35.019531 263.398438 35.703125 C 263.398438 37.285156 264.980469 38.59375 266.972656 38.59375 C 269.101562 38.59375 270.683594 36.972656 270.683594 35.15625 C 270.683594 33.515625 269.355469 32.207031 267.636719 31.914062 C 269.199219 31.464844 270.195312 30.15625 270.195312 28.75 C 270.195312 27.34375 268.730469 26.308594 266.992188 26.308594 C 265.195312 26.308594 263.867188 27.402344 263.867188 28.710938 C 263.867188 29.414062 264.433594 29.570312 264.707031 29.570312 C 265.078125 29.570312 265.507812 29.296875 265.507812 28.75 C 265.507812 28.183594 265.078125 27.929688 264.6875 27.929688 C 264.570312 27.929688 264.53125 27.929688 264.492188 27.949219 C 265.175781 26.738281 266.855469 26.738281 266.933594 26.738281 C 267.539062 26.738281 268.691406 26.992188 268.691406 28.75 C 268.691406 29.101562 268.652344 30.097656 268.125 30.878906 C 267.578125 31.660156 266.972656 31.71875 266.484375 31.738281 Z M 265.957031 31.777344 "/>
<path style=" stroke:none;fill-rule:nonzero;fill:rgb(0%,0%,0%);fill-opacity:1;" d="M 301.0625 21.523438 C 301.0625 14.472656 299.441406 7.382812 294.890625 2.011719 C 294.539062 1.601562 293.855469 0.859375 293.113281 0.214844 C 292.898438 0 292.859375 0 292.605469 0 C 292.390625 0 292.234375 0 292.234375 0.175781 C 292.234375 0.253906 292.3125 0.332031 292.351562 0.371094 C 292.976562 1.015625 294.167969 2.207031 295.378906 4.140625 C 298.269531 8.769531 299.578125 14.609375 299.578125 21.503906 C 299.578125 26.328125 298.933594 32.539062 295.964844 37.890625 C 294.558594 40.429688 293.054688 41.933594 292.3125 42.675781 C 292.273438 42.734375 292.234375 42.792969 292.234375 42.832031 C 292.234375 43.027344 292.390625 43.027344 292.605469 43.027344 C 292.859375 43.027344 292.898438 43.027344 293.171875 42.753906 C 299.167969 37.285156 301.0625 29.0625 301.0625 21.523438 Z M 301.0625 21.523438 "/>
<path style=" stroke:none;fill-rule:nonzero;fill:rgb(0%,0%,0%);fill-opacity:1;" d="M 311.957031 21.78125 L 316.917969 21.78125 C 317.171875 21.78125 317.484375 21.78125 317.484375 21.449219 C 317.484375 21.117188 317.171875 21.117188 316.917969 21.117188 L 311.957031 21.117188 L 311.957031 16.175781 C 311.957031 15.921875 311.957031 15.589844 311.644531 15.589844 C 311.292969 15.589844 311.292969 15.902344 311.292969 16.175781 L 311.292969 21.117188 L 306.351562 21.117188 C 306.097656 21.117188 305.785156 21.117188 305.785156 21.449219 C 305.785156 21.78125 306.078125 21.78125 306.351562 21.78125 L 311.292969 21.78125 L 311.292969 26.722656 C 311.292969 26.976562 311.292969 27.308594 311.625 27.308594 C 311.957031 27.308594 311.957031 26.996094 311.957031 26.722656 Z M 311.957031 21.78125 "/>
<path style=" stroke:none;fill-rule:nonzero;fill:rgb(0%,0%,0%);fill-opacity:1;" d="M 331.855469 13.460938 C 331.855469 13.304688 331.71875 13.304688 331.679688 13.304688 C 331.660156 13.304688 331.582031 13.304688 331.445312 13.480469 L 330.195312 14.984375 C 329.570312 13.910156 328.59375 13.304688 327.246094 13.304688 C 323.378906 13.304688 319.355469 17.230469 319.355469 21.449219 C 319.355469 24.4375 321.445312 26.292969 324.0625 26.292969 C 325.507812 26.292969 326.757812 25.6875 327.792969 24.808594 C 329.355469 23.5 329.824219 21.761719 329.824219 21.625 C 329.824219 21.449219 329.6875 21.449219 329.628906 21.449219 C 329.472656 21.449219 329.453125 21.566406 329.414062 21.644531 C 328.59375 24.4375 326.171875 25.785156 324.375 25.785156 C 322.480469 25.785156 320.820312 24.554688 320.820312 22.015625 C 320.820312 21.449219 320.996094 18.324219 323.027344 15.980469 C 324.023438 14.828125 325.703125 13.8125 327.402344 13.8125 C 329.375 13.8125 330.253906 15.453125 330.253906 17.289062 C 330.253906 17.738281 330.195312 18.148438 330.195312 18.207031 C 330.195312 18.382812 330.371094 18.382812 330.429688 18.382812 C 330.625 18.382812 330.644531 18.363281 330.722656 18.03125 Z M 331.855469 13.460938 "/>
</g>
</svg>
