<?xml version="1.0" encoding="UTF-8"?>
<svg xmlns="http://www.w3.org/2000/svg" xmlns:xlink="http://www.w3.org/1999/xlink" width="247.20051pt" height="59.734926pt" viewBox="0 0 247.20051 59.734926" version="1.1">
<g id="surface1">
<path style=" stroke:none;fill-rule:nonzero;fill:rgb(0%,0%,100%);fill-opacity:1;" d="M 11.40625 6.621094 C 11.40625 2.832031 8.828125 0 5.917969 0 C 2.949219 0 0.429688 2.871094 0.429688 6.621094 C 0.429688 10.410156 3.027344 13.183594 5.898438 13.183594 C 8.867188 13.183594 11.40625 10.371094 11.40625 6.621094 Z M 5.917969 12.050781 C 3.847656 12.050781 1.972656 9.824219 1.972656 6.367188 C 1.972656 3.066406 3.925781 1.113281 5.898438 1.113281 C 7.949219 1.113281 9.863281 3.105469 9.863281 6.367188 C 9.863281 9.863281 7.929688 12.050781 5.917969 12.050781 Z M 5.917969 12.050781 "/>
<path style=" stroke:none;fill-rule:nonzero;fill:rgb(0%,0%,100%);fill-opacity:1;" d="M 19.929688 0.371094 L 18.601562 0.371094 L 18.601562 5.605469 C 17.78125 4.921875 16.84375 4.667969 16.082031 4.667969 C 14.382812 4.667969 12.976562 6.503906 12.976562 8.828125 C 12.976562 11.152344 14.304688 12.988281 16.003906 12.988281 C 16.667969 12.988281 17.683594 12.773438 18.582031 11.894531 L 18.582031 12.8125 L 19.929688 12.8125 Z M 18.582031 10.703125 C 18.152344 11.464844 17.507812 11.914062 16.726562 11.914062 C 15.632812 11.914062 14.34375 11.074219 14.34375 8.847656 C 14.34375 6.464844 15.867188 5.742188 16.902344 5.742188 C 17.605469 5.742188 18.171875 6.113281 18.582031 6.699219 Z M 18.582031 10.703125 "/>
<path style=" stroke:none;fill-rule:nonzero;fill:rgb(0%,0%,100%);fill-opacity:1;" d="M 28.929688 0.371094 L 27.601562 0.371094 L 27.601562 5.605469 C 26.78125 4.921875 25.84375 4.667969 25.082031 4.667969 C 23.382812 4.667969 21.976562 6.503906 21.976562 8.828125 C 21.976562 11.152344 23.304688 12.988281 25.003906 12.988281 C 25.667969 12.988281 26.683594 12.773438 27.582031 11.894531 L 27.582031 12.8125 L 28.929688 12.8125 Z M 27.582031 10.703125 C 27.152344 11.464844 26.507812 11.914062 25.726562 11.914062 C 24.632812 11.914062 23.34375 11.074219 23.34375 8.847656 C 23.34375 6.464844 24.867188 5.742188 25.902344 5.742188 C 26.605469 5.742188 27.171875 6.113281 27.582031 6.699219 Z M 27.582031 10.703125 "/>
<path style=" stroke:none;fill-rule:nonzero;fill:rgb(0%,0%,100%);fill-opacity:1;" d="M 46.957031 5.527344 C 46.332031 7.773438 45.335938 9.453125 43.988281 10.625 C 43.773438 10.390625 41.9375 8.222656 41.253906 6.640625 C 42.992188 5.097656 43.929688 3.925781 43.929688 2.773438 C 43.929688 1.464844 43.089844 0 41.625 0 C 40.140625 0 39.183594 1.582031 39.183594 3.515625 C 39.183594 5.078125 39.730469 6.464844 39.75 6.5625 L 38.324219 7.851562 C 37.816406 8.300781 37.09375 8.964844 37.09375 10.214844 C 37.09375 11.777344 38.402344 13.183594 40.316406 13.183594 C 40.863281 13.183594 42.269531 13.125 43.792969 12.148438 C 45.023438 13.105469 46.019531 13.183594 46.644531 13.183594 C 46.820312 13.183594 47.601562 13.183594 48.65625 12.910156 L 48.65625 11.71875 C 47.953125 11.972656 47.171875 12.070312 46.664062 12.070312 C 46.410156 12.070312 45.6875 12.070312 44.808594 11.386719 C 46.742188 9.570312 47.621094 7.460938 48.050781 5.839844 Z M 40.824219 5.585938 C 40.453125 4.53125 40.355469 3.515625 40.355469 2.910156 C 40.355469 1.601562 41.039062 1.074219 41.625 1.074219 C 42.542969 1.074219 42.679688 2.304688 42.679688 2.753906 C 42.679688 3.769531 41.761719 4.648438 40.824219 5.585938 Z M 40.199219 7.597656 C 41.136719 9.316406 42.210938 10.605469 42.933594 11.386719 C 42.386719 11.699219 41.390625 12.070312 40.335938 12.070312 C 39.046875 12.070312 38.441406 10.976562 38.441406 10.097656 C 38.441406 9.101562 38.890625 8.710938 40.199219 7.597656 Z M 40.199219 7.597656 "/>
<path style=" stroke:none;fill-rule:nonzero;fill:rgb(0%,0%,100%);fill-opacity:1;" d="M 64.367188 6.894531 L 64.367188 5.820312 L 58.566406 5.820312 L 58.566406 1.523438 L 60.988281 1.523438 C 61.203125 1.523438 61.417969 1.542969 61.632812 1.542969 L 64.875 1.542969 L 64.875 0.410156 L 57.023438 0.410156 L 57.023438 12.8125 L 65.109375 12.8125 L 65.109375 11.601562 L 62.746094 11.601562 C 62.53125 11.601562 62.316406 11.601562 62.101562 11.601562 L 58.566406 11.601562 L 58.566406 6.894531 Z M 64.367188 6.894531 "/>
<path style=" stroke:none;fill-rule:nonzero;fill:rgb(0%,0%,100%);fill-opacity:1;" d="M 73.65625 4.84375 L 72.328125 4.84375 L 71.019531 8.417969 C 70.707031 9.277344 70.042969 11.171875 69.945312 11.835938 L 69.925781 11.835938 C 69.828125 11.210938 69.476562 10.234375 69.203125 9.453125 L 67.542969 4.84375 L 66.15625 4.84375 L 69.105469 12.8125 L 70.707031 12.8125 Z M 73.65625 4.84375 "/>
<path style=" stroke:none;fill-rule:nonzero;fill:rgb(0%,0%,100%);fill-opacity:1;" d="M 81.308594 8.769531 C 81.308594 8.007812 81.230469 6.914062 80.664062 5.957031 C 79.921875 4.726562 78.671875 4.589844 78.144531 4.589844 C 76.210938 4.589844 74.589844 6.445312 74.589844 8.769531 C 74.589844 11.152344 76.308594 12.988281 78.398438 12.988281 C 79.21875 12.988281 80.214844 12.753906 81.191406 12.050781 C 81.191406 11.972656 81.132812 11.40625 81.132812 11.386719 C 81.113281 11.367188 81.09375 10.957031 81.09375 10.898438 C 80.019531 11.796875 78.964844 11.914062 78.4375 11.914062 C 77.050781 11.914062 75.859375 10.683594 75.839844 8.769531 Z M 75.9375 7.8125 C 76.25 6.601562 77.089844 5.664062 78.144531 5.664062 C 78.710938 5.664062 79.941406 5.917969 80.234375 7.8125 Z M 75.9375 7.8125 "/>
<path style=" stroke:none;fill-rule:nonzero;fill:rgb(0%,0%,100%);fill-opacity:1;" d="M 89.398438 7.421875 C 89.398438 6.328125 89.164062 4.667969 86.996094 4.667969 C 86 4.667969 85.140625 5.117188 84.457031 5.976562 L 84.457031 4.765625 L 83.1875 4.765625 L 83.1875 12.8125 L 84.535156 12.8125 L 84.535156 8.339844 C 84.535156 7.246094 84.964844 5.742188 86.3125 5.742188 C 87.992188 5.742188 88.03125 6.914062 88.03125 7.539062 L 88.03125 12.8125 L 89.398438 12.8125 Z M 89.398438 7.421875 "/>
<path style=" stroke:none;fill-rule:nonzero;fill:rgb(0%,0%,100%);fill-opacity:1;" d="M 99.757812 5.898438 L 101.671875 5.898438 L 101.671875 4.84375 L 99.71875 4.84375 L 99.71875 2.695312 C 99.71875 1.484375 100.734375 1.269531 101.339844 1.269531 C 101.964844 1.269531 102.511719 1.464844 102.726562 1.542969 L 102.726562 0.371094 C 102.609375 0.332031 102.003906 0.195312 101.359375 0.195312 C 99.640625 0.195312 98.429688 1.503906 98.429688 3.242188 L 98.429688 4.84375 L 97.121094 4.84375 L 97.121094 5.898438 L 98.429688 5.898438 L 98.429688 12.8125 L 99.757812 12.8125 Z M 99.757812 5.898438 "/>
<path style=" stroke:none;fill-rule:nonzero;fill:rgb(0%,0%,100%);fill-opacity:1;" d="M 109.648438 4.84375 L 108.28125 4.84375 L 108.28125 9.980469 C 108.28125 11.347656 107.34375 12.011719 106.171875 12.011719 C 104.921875 12.011719 104.785156 11.542969 104.785156 10.742188 L 104.785156 4.84375 L 103.4375 4.84375 L 103.4375 10.820312 C 103.4375 12.109375 103.847656 12.988281 105.3125 12.988281 C 105.820312 12.988281 107.226562 12.910156 108.320312 11.914062 L 108.320312 12.8125 L 109.648438 12.8125 Z M 109.648438 4.84375 "/>
<path style=" stroke:none;fill-rule:nonzero;fill:rgb(0%,0%,100%);fill-opacity:1;" d="M 118.648438 7.421875 C 118.648438 6.328125 118.414062 4.667969 116.246094 4.667969 C 115.25 4.667969 114.390625 5.117188 113.707031 5.976562 L 113.707031 4.765625 L 112.4375 4.765625 L 112.4375 12.8125 L 113.785156 12.8125 L 113.785156 8.339844 C 113.785156 7.246094 114.214844 5.742188 115.5625 5.742188 C 117.242188 5.742188 117.28125 6.914062 117.28125 7.539062 L 117.28125 12.8125 L 118.648438 12.8125 Z M 118.648438 7.421875 "/>
<path style=" stroke:none;fill-rule:nonzero;fill:rgb(0%,0%,100%);fill-opacity:1;" d="M 127.238281 10.878906 C 126.417969 11.542969 125.5 11.875 124.503906 11.875 C 123 11.875 122.042969 10.546875 122.042969 8.808594 C 122.042969 7.324219 122.765625 5.703125 124.542969 5.703125 C 125.753906 5.703125 126.261719 5.976562 127.023438 6.503906 L 127.238281 5.332031 C 126.203125 4.726562 125.617188 4.589844 124.542969 4.589844 C 122.082031 4.589844 120.675781 6.777344 120.675781 8.808594 C 120.675781 11.113281 122.335938 12.988281 124.484375 12.988281 C 125.363281 12.988281 126.359375 12.773438 127.355469 12.050781 C 127.355469 12.011719 127.296875 11.445312 127.277344 11.386719 Z M 127.238281 10.878906 "/>
<path style=" stroke:none;fill-rule:nonzero;fill:rgb(0%,0%,100%);fill-opacity:1;" d="M 130.917969 5.898438 L 133.398438 5.898438 L 133.398438 4.84375 L 130.917969 4.84375 L 130.917969 2.578125 L 129.6875 2.578125 L 129.6875 4.84375 L 128.183594 4.84375 L 128.183594 5.898438 L 129.648438 5.898438 L 129.648438 10.722656 C 129.648438 11.757812 129.882812 12.988281 131.113281 12.988281 C 132.324219 12.988281 133.144531 12.578125 133.691406 12.285156 L 133.417969 11.25 C 132.792969 11.816406 132.128906 11.875 131.816406 11.875 C 131.015625 11.875 130.917969 11.035156 130.917969 10.410156 Z M 130.917969 5.898438 "/>
<path style=" stroke:none;fill-rule:nonzero;fill:rgb(0%,0%,100%);fill-opacity:1;" d="M 136.984375 0.644531 L 135.441406 0.644531 L 135.441406 2.1875 L 136.984375 2.1875 Z M 136.886719 4.84375 L 135.558594 4.84375 L 135.558594 12.8125 L 136.886719 12.8125 Z M 136.886719 4.84375 "/>
<path style=" stroke:none;fill-rule:nonzero;fill:rgb(0%,0%,100%);fill-opacity:1;" d="M 146.574219 8.867188 C 146.574219 6.445312 144.796875 4.589844 142.746094 4.589844 C 140.636719 4.589844 138.898438 6.484375 138.898438 8.867188 C 138.898438 11.210938 140.675781 12.988281 142.726562 12.988281 C 144.835938 12.988281 146.574219 11.171875 146.574219 8.867188 Z M 142.746094 11.875 C 141.457031 11.875 140.246094 10.800781 140.246094 8.691406 C 140.246094 6.523438 141.59375 5.664062 142.726562 5.664062 C 143.957031 5.664062 145.226562 6.582031 145.226562 8.691406 C 145.226562 10.898438 143.9375 11.875 142.746094 11.875 Z M 142.746094 11.875 "/>
<path style=" stroke:none;fill-rule:nonzero;fill:rgb(0%,0%,100%);fill-opacity:1;" d="M 154.800781 7.421875 C 154.800781 6.328125 154.566406 4.667969 152.398438 4.667969 C 151.402344 4.667969 150.542969 5.117188 149.859375 5.976562 L 149.859375 4.765625 L 148.589844 4.765625 L 148.589844 12.8125 L 149.9375 12.8125 L 149.9375 8.339844 C 149.9375 7.246094 150.367188 5.742188 151.714844 5.742188 C 153.394531 5.742188 153.433594 6.914062 153.433594 7.539062 L 153.433594 12.8125 L 154.800781 12.8125 Z M 154.800781 7.421875 "/>
<path style=" stroke:none;fill-rule:nonzero;fill:rgb(0%,0%,100%);fill-opacity:1;" d="M 162.21875 5.136719 C 161.085938 4.609375 160.109375 4.589844 159.699219 4.589844 C 159.289062 4.589844 156.789062 4.589844 156.789062 6.914062 C 156.789062 7.695312 157.21875 8.242188 157.492188 8.496094 C 158.136719 9.042969 158.585938 9.140625 159.640625 9.355469 C 160.246094 9.472656 161.28125 9.6875 161.28125 10.644531 C 161.28125 11.875 159.875 11.875 159.621094 11.875 C 158.917969 11.875 157.863281 11.679688 156.90625 10.976562 L 156.691406 12.207031 C 156.769531 12.265625 158 12.988281 159.640625 12.988281 C 161.964844 12.988281 162.511719 11.601562 162.511719 10.527344 C 162.511719 9.628906 161.964844 9.042969 161.886719 8.964844 C 161.222656 8.28125 160.675781 8.164062 159.601562 7.949219 C 158.9375 7.832031 158.039062 7.65625 158.039062 6.757812 C 158.039062 5.644531 159.289062 5.644531 159.523438 5.644531 C 160.460938 5.644531 161.222656 5.859375 162.003906 6.308594 Z M 162.21875 5.136719 "/>
<path style=" stroke:none;fill-rule:nonzero;fill:rgb(0%,0%,0%);fill-opacity:1;" d="M 1.09375 21.519531 L 1.09375 33.960938 L 5.683594 33.960938 C 8.691406 33.960938 11.09375 31.246094 11.09375 27.847656 C 11.09375 24.351562 8.710938 21.519531 5.683594 21.519531 Z M 2.597656 32.964844 L 2.597656 22.515625 L 5.273438 22.515625 C 7.675781 22.515625 9.589844 24.585938 9.589844 27.828125 C 9.589844 31.109375 7.597656 32.964844 5.273438 32.964844 Z M 2.597656 32.964844 "/>
<path style=" stroke:none;fill-rule:nonzero;fill:rgb(0%,0%,0%);fill-opacity:1;" d="M 19.359375 29.917969 C 19.359375 29.15625 19.28125 28.0625 18.714844 27.105469 C 17.972656 25.875 16.722656 25.738281 16.195312 25.738281 C 14.261719 25.738281 12.640625 27.59375 12.640625 29.917969 C 12.640625 32.300781 14.359375 34.136719 16.449219 34.136719 C 17.269531 34.136719 18.265625 33.902344 19.242188 33.199219 C 19.242188 33.121094 19.183594 32.554688 19.183594 32.535156 C 19.164062 32.515625 19.144531 32.105469 19.144531 32.046875 C 18.070312 32.945312 17.015625 33.0625 16.488281 33.0625 C 15.101562 33.0625 13.910156 31.832031 13.890625 29.917969 Z M 13.988281 28.960938 C 14.300781 27.75 15.140625 26.8125 16.195312 26.8125 C 16.761719 26.8125 17.992188 27.066406 18.285156 28.960938 Z M 13.988281 28.960938 "/>
<path style=" stroke:none;fill-rule:nonzero;fill:rgb(0%,0%,0%);fill-opacity:1;" d="M 27.859375 21.5 L 26.414062 21.5 L 26.414062 22.945312 L 27.859375 22.945312 Z M 27.820312 25.992188 L 26.492188 25.992188 L 26.492188 33.960938 L 27.820312 33.960938 Z M 22.957031 27.046875 L 25.007812 27.046875 L 25.007812 25.992188 L 22.917969 25.992188 L 22.917969 23.804688 C 22.917969 22.730469 23.484375 22.417969 23.972656 22.417969 C 24.363281 22.417969 24.773438 22.554688 25.007812 22.730469 L 25.007812 21.519531 C 24.65625 21.382812 24.539062 21.34375 23.972656 21.34375 C 22.644531 21.34375 21.628906 22.613281 21.628906 24.351562 L 21.628906 25.992188 L 20.320312 25.992188 L 20.320312 27.046875 L 21.628906 27.046875 L 21.628906 33.960938 L 22.957031 33.960938 Z M 22.957031 27.046875 "/>
<path style=" stroke:none;fill-rule:nonzero;fill:rgb(0%,0%,0%);fill-opacity:1;" d="M 36.902344 28.570312 C 36.902344 27.476562 36.667969 25.816406 34.5 25.816406 C 33.503906 25.816406 32.644531 26.265625 31.960938 27.125 L 31.960938 25.914062 L 30.691406 25.914062 L 30.691406 33.960938 L 32.039062 33.960938 L 32.039062 29.488281 C 32.039062 28.394531 32.46875 26.890625 33.816406 26.890625 C 35.496094 26.890625 35.535156 28.0625 35.535156 28.6875 L 35.535156 33.960938 L 36.902344 33.960938 Z M 36.902344 28.570312 "/>
<path style=" stroke:none;fill-rule:nonzero;fill:rgb(0%,0%,0%);fill-opacity:1;" d="M 41.136719 21.792969 L 39.59375 21.792969 L 39.59375 23.335938 L 41.136719 23.335938 Z M 41.039062 25.992188 L 39.710938 25.992188 L 39.710938 33.960938 L 41.039062 33.960938 Z M 41.039062 25.992188 "/>
<path style=" stroke:none;fill-rule:nonzero;fill:rgb(0%,0%,0%);fill-opacity:1;" d="M 45.570312 27.046875 L 48.050781 27.046875 L 48.050781 25.992188 L 45.570312 25.992188 L 45.570312 23.726562 L 44.339844 23.726562 L 44.339844 25.992188 L 42.835938 25.992188 L 42.835938 27.046875 L 44.300781 27.046875 L 44.300781 31.871094 C 44.300781 32.90625 44.535156 34.136719 45.765625 34.136719 C 46.976562 34.136719 47.796875 33.726562 48.34375 33.433594 L 48.070312 32.398438 C 47.445312 32.964844 46.78125 33.023438 46.46875 33.023438 C 45.667969 33.023438 45.570312 32.183594 45.570312 31.558594 Z M 45.570312 27.046875 "/>
<path style=" stroke:none;fill-rule:nonzero;fill:rgb(0%,0%,0%);fill-opacity:1;" d="M 51.632812 21.792969 L 50.089844 21.792969 L 50.089844 23.335938 L 51.632812 23.335938 Z M 51.535156 25.992188 L 50.207031 25.992188 L 50.207031 33.960938 L 51.535156 33.960938 Z M 51.535156 25.992188 "/>
<path style=" stroke:none;fill-rule:nonzero;fill:rgb(0%,0%,0%);fill-opacity:1;" d="M 61.226562 30.015625 C 61.226562 27.59375 59.449219 25.738281 57.398438 25.738281 C 55.289062 25.738281 53.550781 27.632812 53.550781 30.015625 C 53.550781 32.359375 55.328125 34.136719 57.378906 34.136719 C 59.488281 34.136719 61.226562 32.320312 61.226562 30.015625 Z M 57.398438 33.023438 C 56.109375 33.023438 54.898438 31.949219 54.898438 29.839844 C 54.898438 27.671875 56.246094 26.8125 57.378906 26.8125 C 58.609375 26.8125 59.878906 27.730469 59.878906 29.839844 C 59.878906 32.046875 58.589844 33.023438 57.398438 33.023438 Z M 57.398438 33.023438 "/>
<path style=" stroke:none;fill-rule:nonzero;fill:rgb(0%,0%,0%);fill-opacity:1;" d="M 69.449219 28.570312 C 69.449219 27.476562 69.214844 25.816406 67.046875 25.816406 C 66.050781 25.816406 65.191406 26.265625 64.507812 27.125 L 64.507812 25.914062 L 63.238281 25.914062 L 63.238281 33.960938 L 64.585938 33.960938 L 64.585938 29.488281 C 64.585938 28.394531 65.015625 26.890625 66.363281 26.890625 C 68.042969 26.890625 68.082031 28.0625 68.082031 28.6875 L 68.082031 33.960938 L 69.449219 33.960938 Z M 69.449219 28.570312 "/>
<path style=" stroke:none;fill-rule:nonzero;fill:rgb(0%,0%,0%);fill-opacity:1;" d="M 83.113281 28.707031 C 83.113281 26.988281 81.882812 25.738281 80.203125 25.738281 C 79.128906 25.738281 78.328125 25.972656 77.449219 26.480469 L 77.546875 27.671875 C 78.347656 27.085938 79.167969 26.773438 80.203125 26.773438 C 81.023438 26.773438 81.746094 27.4375 81.746094 28.746094 L 81.746094 29.488281 C 80.945312 29.507812 79.871094 29.566406 78.796875 29.917969 C 77.585938 30.347656 76.882812 31.011719 76.882812 31.890625 C 76.882812 32.691406 77.351562 34.136719 78.875 34.136719 C 79.871094 34.136719 81.121094 33.84375 81.785156 33.296875 L 81.785156 33.960938 L 83.113281 33.960938 Z M 81.746094 31.558594 C 81.746094 31.910156 81.746094 32.339844 81.160156 32.710938 C 80.671875 33.003906 80.066406 33.0625 79.792969 33.0625 C 78.835938 33.0625 78.171875 32.535156 78.171875 31.890625 C 78.171875 30.660156 80.652344 30.386719 81.746094 30.386719 Z M 81.746094 31.558594 "/>
<path style=" stroke:none;fill-rule:nonzero;fill:rgb(0%,0%,0%);fill-opacity:1;" d="M 92.101562 28.570312 C 92.101562 27.476562 91.867188 25.816406 89.699219 25.816406 C 88.703125 25.816406 87.84375 26.265625 87.160156 27.125 L 87.160156 25.914062 L 85.890625 25.914062 L 85.890625 33.960938 L 87.238281 33.960938 L 87.238281 29.488281 C 87.238281 28.394531 87.667969 26.890625 89.015625 26.890625 C 90.695312 26.890625 90.734375 28.0625 90.734375 28.6875 L 90.734375 33.960938 L 92.101562 33.960938 Z M 92.101562 28.570312 "/>
<path style=" stroke:none;fill-rule:nonzero;fill:rgb(0%,0%,0%);fill-opacity:1;" d="M 101.082031 21.519531 L 99.753906 21.519531 L 99.753906 26.753906 C 98.933594 26.070312 97.996094 25.816406 97.234375 25.816406 C 95.535156 25.816406 94.128906 27.652344 94.128906 29.976562 C 94.128906 32.300781 95.457031 34.136719 97.15625 34.136719 C 97.820312 34.136719 98.835938 33.921875 99.734375 33.042969 L 99.734375 33.960938 L 101.082031 33.960938 Z M 99.734375 31.851562 C 99.304688 32.613281 98.660156 33.0625 97.878906 33.0625 C 96.785156 33.0625 95.496094 32.222656 95.496094 29.996094 C 95.496094 27.613281 97.019531 26.890625 98.054688 26.890625 C 98.757812 26.890625 99.324219 27.261719 99.734375 27.847656 Z M 99.734375 31.851562 "/>
<path style=" stroke:none;fill-rule:nonzero;fill:rgb(0%,0%,0%);fill-opacity:1;" d="M 112.785156 35.34375 C 112.550781 38.273438 111.90625 39.09375 110.871094 39.09375 C 110.636719 39.09375 110.109375 39.035156 109.738281 38.703125 C 110.246094 38.644531 110.402344 38.234375 110.402344 37.980469 C 110.402344 37.453125 109.992188 37.21875 109.660156 37.21875 C 109.308594 37.21875 108.898438 37.453125 108.898438 38 C 108.898438 38.859375 109.796875 39.484375 110.871094 39.484375 C 112.589844 39.484375 113.449219 37.921875 113.839844 36.300781 C 114.074219 35.382812 114.71875 30.167969 114.855469 28.175781 L 115.207031 23.703125 C 115.441406 20.402344 116.066406 19.953125 116.867188 19.953125 C 117.042969 19.953125 117.609375 19.992188 118 20.324219 C 117.472656 20.402344 117.335938 20.8125 117.335938 21.066406 C 117.335938 21.59375 117.726562 21.828125 118.078125 21.828125 C 118.429688 21.828125 118.820312 21.59375 118.820312 21.046875 C 118.820312 20.1875 117.921875 19.5625 116.847656 19.5625 C 115.148438 19.5625 114.445312 21.300781 114.132812 22.667969 C 113.917969 23.644531 113.273438 28.703125 113.117188 30.871094 Z M 112.785156 35.34375 "/>
<path style=" stroke:none;fill-rule:nonzero;fill:rgb(0%,0%,0%);fill-opacity:1;" d="M 124.550781 19.65625 C 124.316406 19.1875 123.964844 18.855469 123.398438 18.855469 C 121.953125 18.855469 120.410156 20.691406 120.410156 22.507812 C 120.410156 23.679688 121.09375 24.5 122.050781 24.5 C 122.304688 24.5 122.929688 24.441406 123.671875 23.5625 C 123.769531 24.089844 124.21875 24.5 124.804688 24.5 C 125.253906 24.5 125.527344 24.207031 125.742188 23.816406 C 125.9375 23.367188 126.113281 22.605469 126.113281 22.585938 C 126.113281 22.449219 125.996094 22.449219 125.957031 22.449219 C 125.839844 22.449219 125.820312 22.507812 125.78125 22.683594 C 125.566406 23.484375 125.351562 24.226562 124.84375 24.226562 C 124.492188 24.226562 124.472656 23.894531 124.472656 23.660156 C 124.472656 23.386719 124.492188 23.269531 124.628906 22.722656 C 124.765625 22.214844 124.785156 22.078125 124.902344 21.609375 L 125.351562 19.871094 C 125.429688 19.519531 125.429688 19.5 125.429688 19.441406 C 125.429688 19.226562 125.292969 19.109375 125.078125 19.109375 C 124.765625 19.109375 124.589844 19.382812 124.550781 19.65625 Z M 123.75 22.878906 C 123.671875 23.113281 123.671875 23.132812 123.496094 23.347656 C 122.949219 24.03125 122.441406 24.226562 122.089844 24.226562 C 121.464844 24.226562 121.289062 23.542969 121.289062 23.054688 C 121.289062 22.429688 121.679688 20.90625 121.972656 20.320312 C 122.363281 19.597656 122.910156 19.128906 123.417969 19.128906 C 124.21875 19.128906 124.394531 20.144531 124.394531 20.222656 C 124.394531 20.300781 124.375 20.378906 124.355469 20.4375 Z M 123.75 22.878906 "/>
<path style=" stroke:none;fill-rule:nonzero;fill:rgb(0%,0%,0%);fill-opacity:1;" d="M 124.65625 37.242188 C 124.871094 37.242188 125.105469 37.242188 125.105469 36.988281 C 125.105469 36.753906 124.871094 36.753906 124.65625 36.753906 L 117.917969 36.753906 C 117.703125 36.753906 117.488281 36.753906 117.488281 36.988281 C 117.488281 37.242188 117.703125 37.242188 117.917969 37.242188 Z M 124.65625 37.242188 "/>
<path style=" stroke:none;fill-rule:nonzero;fill:rgb(0%,0%,0%);fill-opacity:1;" d="M 130.851562 35.40625 C 130.617188 34.9375 130.265625 34.605469 129.699219 34.605469 C 128.253906 34.605469 126.710938 36.441406 126.710938 38.257812 C 126.710938 39.429688 127.394531 40.25 128.351562 40.25 C 128.605469 40.25 129.230469 40.191406 129.972656 39.3125 C 130.070312 39.839844 130.519531 40.25 131.105469 40.25 C 131.554688 40.25 131.828125 39.957031 132.042969 39.566406 C 132.238281 39.117188 132.414062 38.355469 132.414062 38.335938 C 132.414062 38.199219 132.296875 38.199219 132.257812 38.199219 C 132.140625 38.199219 132.121094 38.257812 132.082031 38.433594 C 131.867188 39.234375 131.652344 39.976562 131.144531 39.976562 C 130.792969 39.976562 130.773438 39.644531 130.773438 39.410156 C 130.773438 39.136719 130.792969 39.019531 130.929688 38.472656 C 131.066406 37.964844 131.085938 37.828125 131.203125 37.359375 L 131.652344 35.621094 C 131.730469 35.269531 131.730469 35.25 131.730469 35.191406 C 131.730469 34.976562 131.59375 34.859375 131.378906 34.859375 C 131.066406 34.859375 130.890625 35.132812 130.851562 35.40625 Z M 130.050781 38.628906 C 129.972656 38.863281 129.972656 38.882812 129.796875 39.097656 C 129.25 39.78125 128.742188 39.976562 128.390625 39.976562 C 127.765625 39.976562 127.589844 39.292969 127.589844 38.804688 C 127.589844 38.179688 127.980469 36.65625 128.273438 36.070312 C 128.664062 35.347656 129.210938 34.878906 129.71875 34.878906 C 130.519531 34.878906 130.695312 35.894531 130.695312 35.972656 C 130.695312 36.050781 130.675781 36.128906 130.65625 36.1875 Z M 130.050781 38.628906 "/>
<path style=" stroke:none;fill-rule:nonzero;fill:rgb(0%,0%,0%);fill-opacity:1;" d="M 144.242188 26.753906 C 144.613281 26.753906 144.75 26.753906 144.75 26.421875 C 144.75 26.226562 144.613281 26.226562 144.28125 26.226562 L 142.835938 26.226562 C 143.167969 24.390625 143.421875 23.121094 143.578125 22.535156 C 143.675781 22.105469 144.046875 21.695312 144.515625 21.695312 C 144.886719 21.695312 145.277344 21.851562 145.453125 22.027344 C 144.75 22.085938 144.535156 22.613281 144.535156 22.925781 C 144.535156 23.277344 144.808594 23.492188 145.140625 23.492188 C 145.511719 23.492188 146.039062 23.179688 146.039062 22.496094 C 146.039062 21.753906 145.296875 21.34375 144.496094 21.34375 C 143.734375 21.34375 142.972656 21.910156 142.621094 22.613281 C 142.289062 23.238281 142.113281 23.882812 141.703125 26.226562 L 140.511719 26.226562 C 140.160156 26.226562 139.984375 26.226562 139.984375 26.558594 C 139.984375 26.753906 140.082031 26.753906 140.453125 26.753906 L 141.605469 26.753906 C 141.273438 28.414062 140.53125 32.476562 140.121094 34.390625 C 139.828125 35.953125 139.554688 37.261719 138.65625 37.261719 C 138.597656 37.261719 138.089844 37.261719 137.757812 36.910156 C 138.675781 36.851562 138.675781 36.050781 138.675781 36.03125 C 138.675781 35.679688 138.402344 35.464844 138.070312 35.464844 C 137.699219 35.464844 137.171875 35.777344 137.171875 36.460938 C 137.171875 37.222656 137.953125 37.613281 138.65625 37.613281 C 140.492188 37.613281 141.234375 34.332031 141.429688 33.433594 C 141.761719 32.066406 142.640625 27.300781 142.71875 26.753906 Z M 144.242188 26.753906 "/>
<path style=" stroke:none;fill-rule:nonzero;fill:rgb(0%,0%,0%);fill-opacity:1;" d="M 152.722656 38.316406 C 152.722656 38.257812 152.722656 38.21875 152.429688 37.925781 C 150.632812 36.109375 149.636719 33.160156 149.636719 29.488281 C 149.636719 26.011719 150.476562 23.023438 152.546875 20.914062 C 152.722656 20.738281 152.722656 20.71875 152.722656 20.660156 C 152.722656 20.542969 152.644531 20.523438 152.566406 20.523438 C 152.332031 20.523438 150.867188 21.8125 149.988281 23.570312 C 149.070312 25.367188 148.660156 27.300781 148.660156 29.488281 C 148.660156 31.089844 148.914062 33.21875 149.851562 35.152344 C 150.90625 37.300781 152.371094 38.453125 152.566406 38.453125 C 152.644531 38.453125 152.722656 38.433594 152.722656 38.316406 Z M 152.722656 38.316406 "/>
<path style=" stroke:none;fill-rule:nonzero;fill:rgb(0%,0%,0%);fill-opacity:1;" d="M 162.300781 26.636719 C 161.734375 26.753906 161.519531 27.183594 161.519531 27.515625 C 161.519531 27.945312 161.851562 28.101562 162.105469 28.101562 C 162.652344 28.101562 163.023438 27.632812 163.023438 27.144531 C 163.023438 26.402344 162.164062 26.050781 161.402344 26.050781 C 160.308594 26.050781 159.703125 27.125 159.546875 27.476562 C 159.136719 26.128906 158.023438 26.050781 157.691406 26.050781 C 155.875 26.050781 154.898438 28.394531 154.898438 28.804688 C 154.898438 28.863281 154.976562 28.960938 155.09375 28.960938 C 155.230469 28.960938 155.269531 28.84375 155.308594 28.785156 C 155.914062 26.792969 157.125 26.421875 157.632812 26.421875 C 158.453125 26.421875 158.609375 27.164062 158.609375 27.59375 C 158.609375 27.984375 158.511719 28.394531 158.277344 29.253906 L 157.671875 31.714844 C 157.417969 32.789062 156.890625 33.785156 155.933594 33.785156 C 155.855469 33.785156 155.40625 33.785156 155.015625 33.550781 C 155.660156 33.414062 155.816406 32.886719 155.816406 32.671875 C 155.816406 32.320312 155.542969 32.105469 155.210938 32.105469 C 154.78125 32.105469 154.3125 32.476562 154.3125 33.042969 C 154.3125 33.804688 155.152344 34.136719 155.914062 34.136719 C 156.773438 34.136719 157.398438 33.453125 157.769531 32.730469 C 158.0625 33.785156 158.941406 34.136719 159.605469 34.136719 C 161.441406 34.136719 162.417969 31.792969 162.417969 31.402344 C 162.417969 31.304688 162.339844 31.226562 162.222656 31.226562 C 162.066406 31.226562 162.046875 31.324219 162.007812 31.460938 C 161.519531 33.042969 160.464844 33.785156 159.664062 33.785156 C 159.039062 33.785156 158.707031 33.316406 158.707031 32.574219 C 158.707031 32.183594 158.765625 31.890625 159.058594 30.71875 L 159.683594 28.277344 C 159.957031 27.203125 160.5625 26.421875 161.382812 26.421875 C 161.421875 26.421875 161.929688 26.421875 162.300781 26.636719 Z M 162.300781 26.636719 "/>
<path style=" stroke:none;fill-rule:nonzero;fill:rgb(0%,0%,0%);fill-opacity:1;" d="M 168.910156 29.488281 C 168.910156 28.140625 168.734375 25.914062 167.71875 23.824219 C 166.664062 21.675781 165.199219 20.523438 165.003906 20.523438 C 164.925781 20.523438 164.828125 20.542969 164.828125 20.660156 C 164.828125 20.71875 164.828125 20.738281 165.140625 21.050781 C 166.9375 22.867188 167.933594 25.816406 167.933594 29.488281 C 167.933594 32.964844 167.09375 35.953125 165.023438 38.0625 C 164.828125 38.21875 164.828125 38.257812 164.828125 38.316406 C 164.828125 38.433594 164.925781 38.453125 165.003906 38.453125 C 165.238281 38.453125 166.703125 37.164062 167.582031 35.40625 C 168.5 33.589844 168.910156 31.65625 168.910156 29.488281 Z M 168.910156 29.488281 "/>
<path style=" stroke:none;fill-rule:nonzero;fill:rgb(0%,0%,0%);fill-opacity:1;" d="M 177.039062 29.488281 C 177.039062 28.960938 176.609375 28.53125 176.101562 28.53125 C 175.574219 28.53125 175.144531 28.960938 175.144531 29.488281 C 175.144531 29.996094 175.574219 30.425781 176.101562 30.425781 C 176.609375 30.425781 177.039062 29.996094 177.039062 29.488281 Z M 177.039062 29.488281 "/>
<path style=" stroke:none;fill-rule:nonzero;fill:rgb(0%,0%,0%);fill-opacity:1;" d="M 190.578125 21.96875 C 190.597656 21.890625 190.636719 21.792969 190.636719 21.695312 C 190.636719 21.519531 190.441406 21.519531 190.402344 21.519531 C 190.402344 21.519531 189.523438 21.597656 189.425781 21.597656 C 189.113281 21.617188 188.859375 21.65625 188.527344 21.675781 C 188.078125 21.714844 187.960938 21.734375 187.960938 22.046875 C 187.960938 22.242188 188.097656 22.242188 188.351562 22.242188 C 189.230469 22.242188 189.25 22.398438 189.25 22.574219 C 189.25 22.691406 189.210938 22.828125 189.191406 22.886719 L 188.097656 27.242188 C 187.902344 26.773438 187.414062 26.050781 186.476562 26.050781 C 184.464844 26.050781 182.277344 28.667969 182.277344 31.324219 C 182.277344 33.101562 183.3125 34.136719 184.523438 34.136719 C 185.519531 34.136719 186.359375 33.375 186.867188 32.769531 C 187.042969 33.84375 187.882812 34.136719 188.429688 34.136719 C 188.957031 34.136719 189.386719 33.824219 189.71875 33.179688 C 189.992188 32.554688 190.246094 31.460938 190.246094 31.402344 C 190.246094 31.304688 190.1875 31.226562 190.070312 31.226562 C 189.914062 31.226562 189.894531 31.324219 189.816406 31.597656 C 189.542969 32.652344 189.210938 33.785156 188.46875 33.785156 C 187.960938 33.785156 187.921875 33.316406 187.921875 32.964844 C 187.921875 32.886719 187.921875 32.515625 188.039062 32.007812 Z M 186.945312 31.832031 C 186.867188 32.125 186.867188 32.164062 186.613281 32.515625 C 186.222656 33.003906 185.421875 33.785156 184.582031 33.785156 C 183.859375 33.785156 183.429688 33.121094 183.429688 32.066406 C 183.429688 31.070312 183.996094 29.058594 184.328125 28.316406 C 184.953125 27.066406 185.792969 26.421875 186.476562 26.421875 C 187.667969 26.421875 187.902344 27.886719 187.902344 28.023438 C 187.902344 28.042969 187.84375 28.277344 187.824219 28.316406 Z M 186.945312 31.832031 "/>
<path style=" stroke:none;fill-rule:nonzero;fill:rgb(0%,0%,0%);fill-opacity:1;" d="M 199.199219 26.636719 C 198.632812 26.753906 198.417969 27.183594 198.417969 27.515625 C 198.417969 27.945312 198.75 28.101562 199.003906 28.101562 C 199.550781 28.101562 199.921875 27.632812 199.921875 27.144531 C 199.921875 26.402344 199.0625 26.050781 198.300781 26.050781 C 197.207031 26.050781 196.601562 27.125 196.445312 27.476562 C 196.035156 26.128906 194.921875 26.050781 194.589844 26.050781 C 192.773438 26.050781 191.796875 28.394531 191.796875 28.804688 C 191.796875 28.863281 191.875 28.960938 191.992188 28.960938 C 192.128906 28.960938 192.167969 28.84375 192.207031 28.785156 C 192.8125 26.792969 194.023438 26.421875 194.53125 26.421875 C 195.351562 26.421875 195.507812 27.164062 195.507812 27.59375 C 195.507812 27.984375 195.410156 28.394531 195.175781 29.253906 L 194.570312 31.714844 C 194.316406 32.789062 193.789062 33.785156 192.832031 33.785156 C 192.753906 33.785156 192.304688 33.785156 191.914062 33.550781 C 192.558594 33.414062 192.714844 32.886719 192.714844 32.671875 C 192.714844 32.320312 192.441406 32.105469 192.109375 32.105469 C 191.679688 32.105469 191.210938 32.476562 191.210938 33.042969 C 191.210938 33.804688 192.050781 34.136719 192.8125 34.136719 C 193.671875 34.136719 194.296875 33.453125 194.667969 32.730469 C 194.960938 33.785156 195.839844 34.136719 196.503906 34.136719 C 198.339844 34.136719 199.316406 31.792969 199.316406 31.402344 C 199.316406 31.304688 199.238281 31.226562 199.121094 31.226562 C 198.964844 31.226562 198.945312 31.324219 198.90625 31.460938 C 198.417969 33.042969 197.363281 33.785156 196.5625 33.785156 C 195.9375 33.785156 195.605469 33.316406 195.605469 32.574219 C 195.605469 32.183594 195.664062 31.890625 195.957031 30.71875 L 196.582031 28.277344 C 196.855469 27.203125 197.460938 26.421875 198.28125 26.421875 C 198.320312 26.421875 198.828125 26.421875 199.199219 26.636719 Z M 199.199219 26.636719 "/>
<path style=" stroke:none;fill-rule:nonzero;fill:rgb(0%,0%,0%);fill-opacity:1;" d="M 209.257812 27.046875 L 211.171875 27.046875 L 211.171875 25.992188 L 209.21875 25.992188 L 209.21875 23.84375 C 209.21875 22.632812 210.234375 22.417969 210.839844 22.417969 C 211.464844 22.417969 212.011719 22.613281 212.226562 22.691406 L 212.226562 21.519531 C 212.109375 21.480469 211.503906 21.34375 210.859375 21.34375 C 209.140625 21.34375 207.929688 22.652344 207.929688 24.390625 L 207.929688 25.992188 L 206.621094 25.992188 L 206.621094 27.046875 L 207.929688 27.046875 L 207.929688 33.960938 L 209.257812 33.960938 Z M 209.257812 27.046875 "/>
<path style=" stroke:none;fill-rule:nonzero;fill:rgb(0%,0%,0%);fill-opacity:1;" d="M 219.777344 30.015625 C 219.777344 27.59375 218 25.738281 215.949219 25.738281 C 213.839844 25.738281 212.101562 27.632812 212.101562 30.015625 C 212.101562 32.359375 213.878906 34.136719 215.929688 34.136719 C 218.039062 34.136719 219.777344 32.320312 219.777344 30.015625 Z M 215.949219 33.023438 C 214.660156 33.023438 213.449219 31.949219 213.449219 29.839844 C 213.449219 27.671875 214.796875 26.8125 215.929688 26.8125 C 217.160156 26.8125 218.429688 27.730469 218.429688 29.839844 C 218.429688 32.046875 217.140625 33.023438 215.949219 33.023438 Z M 215.949219 33.023438 "/>
<path style=" stroke:none;fill-rule:nonzero;fill:rgb(0%,0%,0%);fill-opacity:1;" d="M 222.6875 30.035156 C 222.6875 28.21875 224.035156 27.046875 225.65625 27.027344 L 225.65625 25.816406 C 224.015625 25.835938 223.078125 26.792969 222.589844 27.496094 L 222.589844 25.914062 L 221.359375 25.914062 L 221.359375 33.960938 L 222.6875 33.960938 Z M 222.6875 30.035156 "/>
<path style=" stroke:none;fill-rule:nonzero;fill:rgb(0%,0%,0%);fill-opacity:1;" d="M 238.214844 28.707031 C 238.214844 26.988281 236.984375 25.738281 235.304688 25.738281 C 234.230469 25.738281 233.429688 25.972656 232.550781 26.480469 L 232.648438 27.671875 C 233.449219 27.085938 234.269531 26.773438 235.304688 26.773438 C 236.125 26.773438 236.847656 27.4375 236.847656 28.746094 L 236.847656 29.488281 C 236.046875 29.507812 234.972656 29.566406 233.898438 29.917969 C 232.6875 30.347656 231.984375 31.011719 231.984375 31.890625 C 231.984375 32.691406 232.453125 34.136719 233.976562 34.136719 C 234.972656 34.136719 236.222656 33.84375 236.886719 33.296875 L 236.886719 33.960938 L 238.214844 33.960938 Z M 236.847656 31.558594 C 236.847656 31.910156 236.847656 32.339844 236.261719 32.710938 C 235.773438 33.003906 235.167969 33.0625 234.894531 33.0625 C 233.9375 33.0625 233.273438 32.535156 233.273438 31.890625 C 233.273438 30.660156 235.753906 30.386719 236.847656 30.386719 Z M 236.847656 31.558594 "/>
<path style=" stroke:none;fill-rule:nonzero;fill:rgb(0%,0%,0%);fill-opacity:1;" d="M 247.199219 28.570312 C 247.199219 27.476562 246.964844 25.816406 244.796875 25.816406 C 243.800781 25.816406 242.941406 26.265625 242.257812 27.125 L 242.257812 25.914062 L 240.988281 25.914062 L 240.988281 33.960938 L 242.335938 33.960938 L 242.335938 29.488281 C 242.335938 28.394531 242.765625 26.890625 244.113281 26.890625 C 245.792969 26.890625 245.832031 28.0625 245.832031 28.6875 L 245.832031 33.960938 L 247.199219 33.960938 Z M 247.199219 28.570312 "/>
<path style=" stroke:none;fill-rule:nonzero;fill:rgb(0%,0%,0%);fill-opacity:1;" d="M 7.675781 51.316406 C 7.675781 48.894531 5.898438 47.039062 3.847656 47.039062 C 1.738281 47.039062 0 48.933594 0 51.316406 C 0 53.660156 1.777344 55.4375 3.828125 55.4375 C 5.9375 55.4375 7.675781 53.621094 7.675781 51.316406 Z M 3.847656 54.324219 C 2.558594 54.324219 1.347656 53.25 1.347656 51.140625 C 1.347656 48.972656 2.695312 48.113281 3.828125 48.113281 C 5.058594 48.113281 6.328125 49.03125 6.328125 51.140625 C 6.328125 53.347656 5.039062 54.324219 3.847656 54.324219 Z M 3.847656 54.324219 "/>
<path style=" stroke:none;fill-rule:nonzero;fill:rgb(0%,0%,0%);fill-opacity:1;" d="M 16.332031 42.820312 L 15.003906 42.820312 L 15.003906 48.054688 C 14.183594 47.371094 13.246094 47.117188 12.484375 47.117188 C 10.785156 47.117188 9.378906 48.953125 9.378906 51.277344 C 9.378906 53.601562 10.707031 55.4375 12.40625 55.4375 C 13.070312 55.4375 14.085938 55.222656 14.984375 54.34375 L 14.984375 55.261719 L 16.332031 55.261719 Z M 14.984375 53.152344 C 14.554688 53.914062 13.910156 54.363281 13.128906 54.363281 C 12.035156 54.363281 10.746094 53.523438 10.746094 51.296875 C 10.746094 48.914062 12.269531 48.191406 13.304688 48.191406 C 14.007812 48.191406 14.574219 48.5625 14.984375 49.148438 Z M 14.984375 53.152344 "/>
<path style=" stroke:none;fill-rule:nonzero;fill:rgb(0%,0%,0%);fill-opacity:1;" d="M 25.332031 42.820312 L 24.003906 42.820312 L 24.003906 48.054688 C 23.183594 47.371094 22.246094 47.117188 21.484375 47.117188 C 19.785156 47.117188 18.378906 48.953125 18.378906 51.277344 C 18.378906 53.601562 19.707031 55.4375 21.40625 55.4375 C 22.070312 55.4375 23.085938 55.222656 23.984375 54.34375 L 23.984375 55.261719 L 25.332031 55.261719 Z M 23.984375 53.152344 C 23.554688 53.914062 22.910156 54.363281 22.128906 54.363281 C 21.035156 54.363281 19.746094 53.523438 19.746094 51.296875 C 19.746094 48.914062 21.269531 48.191406 22.304688 48.191406 C 23.007812 48.191406 23.574219 48.5625 23.984375 49.148438 Z M 23.984375 53.152344 "/>
<path style=" stroke:none;fill-rule:nonzero;fill:rgb(0%,0%,0%);fill-opacity:1;" d="M 40.316406 42.46875 C 40.394531 42.234375 40.394531 42.195312 40.394531 42.15625 C 40.394531 41.921875 40.21875 41.824219 40.082031 41.824219 C 39.847656 41.824219 39.789062 41.980469 39.710938 42.214844 L 33.65625 59.089844 C 33.578125 59.324219 33.578125 59.363281 33.578125 59.402344 C 33.578125 59.597656 33.714844 59.734375 33.910156 59.734375 C 34.144531 59.734375 34.203125 59.558594 34.261719 59.363281 Z M 40.316406 42.46875 "/>
<path style=" stroke:none;fill-rule:nonzero;fill:rgb(0%,0%,0%);fill-opacity:1;" d="M 54.609375 51.21875 C 54.609375 50.457031 54.53125 49.363281 53.964844 48.40625 C 53.222656 47.175781 51.972656 47.039062 51.445312 47.039062 C 49.511719 47.039062 47.890625 48.894531 47.890625 51.21875 C 47.890625 53.601562 49.609375 55.4375 51.699219 55.4375 C 52.519531 55.4375 53.515625 55.203125 54.492188 54.5 C 54.492188 54.421875 54.433594 53.855469 54.433594 53.835938 C 54.414062 53.816406 54.394531 53.40625 54.394531 53.347656 C 53.320312 54.246094 52.265625 54.363281 51.738281 54.363281 C 50.351562 54.363281 49.160156 53.132812 49.140625 51.21875 Z M 49.238281 50.261719 C 49.550781 49.050781 50.390625 48.113281 51.445312 48.113281 C 52.011719 48.113281 53.242188 48.367188 53.535156 50.261719 Z M 49.238281 50.261719 "/>
<path style=" stroke:none;fill-rule:nonzero;fill:rgb(0%,0%,0%);fill-opacity:1;" d="M 62.855469 47.292969 L 61.527344 47.292969 L 60.21875 50.867188 C 59.90625 51.726562 59.242188 53.621094 59.144531 54.285156 L 59.125 54.285156 C 59.027344 53.660156 58.675781 52.683594 58.402344 51.902344 L 56.742188 47.292969 L 55.355469 47.292969 L 58.304688 55.261719 L 59.90625 55.261719 Z M 62.855469 47.292969 "/>
<path style=" stroke:none;fill-rule:nonzero;fill:rgb(0%,0%,0%);fill-opacity:1;" d="M 70.507812 51.21875 C 70.507812 50.457031 70.429688 49.363281 69.863281 48.40625 C 69.121094 47.175781 67.871094 47.039062 67.34375 47.039062 C 65.410156 47.039062 63.789062 48.894531 63.789062 51.21875 C 63.789062 53.601562 65.507812 55.4375 67.597656 55.4375 C 68.417969 55.4375 69.414062 55.203125 70.390625 54.5 C 70.390625 54.421875 70.332031 53.855469 70.332031 53.835938 C 70.3125 53.816406 70.292969 53.40625 70.292969 53.347656 C 69.21875 54.246094 68.164062 54.363281 67.636719 54.363281 C 66.25 54.363281 65.058594 53.132812 65.039062 51.21875 Z M 65.136719 50.261719 C 65.449219 49.050781 66.289062 48.113281 67.34375 48.113281 C 67.910156 48.113281 69.140625 48.367188 69.433594 50.261719 Z M 65.136719 50.261719 "/>
<path style=" stroke:none;fill-rule:nonzero;fill:rgb(0%,0%,0%);fill-opacity:1;" d="M 78.601562 49.871094 C 78.601562 48.777344 78.367188 47.117188 76.199219 47.117188 C 75.203125 47.117188 74.34375 47.566406 73.660156 48.425781 L 73.660156 47.214844 L 72.390625 47.214844 L 72.390625 55.261719 L 73.738281 55.261719 L 73.738281 50.789062 C 73.738281 49.695312 74.167969 48.191406 75.515625 48.191406 C 77.195312 48.191406 77.234375 49.363281 77.234375 49.988281 L 77.234375 55.261719 L 78.601562 55.261719 Z M 78.601562 49.871094 "/>
<path style=" stroke:none;fill-rule:nonzero;fill:rgb(0%,0%,0%);fill-opacity:1;" d="M 88.808594 48.347656 L 90.722656 48.347656 L 90.722656 47.292969 L 88.769531 47.292969 L 88.769531 45.144531 C 88.769531 43.933594 89.785156 43.71875 90.390625 43.71875 C 91.015625 43.71875 91.5625 43.914062 91.777344 43.992188 L 91.777344 42.820312 C 91.660156 42.78125 91.054688 42.644531 90.410156 42.644531 C 88.691406 42.644531 87.480469 43.953125 87.480469 45.691406 L 87.480469 47.292969 L 86.171875 47.292969 L 86.171875 48.347656 L 87.480469 48.347656 L 87.480469 55.261719 L 88.808594 55.261719 Z M 88.808594 48.347656 "/>
<path style=" stroke:none;fill-rule:nonzero;fill:rgb(0%,0%,0%);fill-opacity:1;" d="M 98.699219 47.292969 L 97.332031 47.292969 L 97.332031 52.429688 C 97.332031 53.796875 96.394531 54.460938 95.222656 54.460938 C 93.972656 54.460938 93.835938 53.992188 93.835938 53.191406 L 93.835938 47.292969 L 92.488281 47.292969 L 92.488281 53.269531 C 92.488281 54.558594 92.898438 55.4375 94.363281 55.4375 C 94.871094 55.4375 96.277344 55.359375 97.371094 54.363281 L 97.371094 55.261719 L 98.699219 55.261719 Z M 98.699219 47.292969 "/>
<path style=" stroke:none;fill-rule:nonzero;fill:rgb(0%,0%,0%);fill-opacity:1;" d="M 107.699219 49.871094 C 107.699219 48.777344 107.464844 47.117188 105.296875 47.117188 C 104.300781 47.117188 103.441406 47.566406 102.757812 48.425781 L 102.757812 47.214844 L 101.488281 47.214844 L 101.488281 55.261719 L 102.835938 55.261719 L 102.835938 50.789062 C 102.835938 49.695312 103.265625 48.191406 104.613281 48.191406 C 106.292969 48.191406 106.332031 49.363281 106.332031 49.988281 L 106.332031 55.261719 L 107.699219 55.261719 Z M 107.699219 49.871094 "/>
<path style=" stroke:none;fill-rule:nonzero;fill:rgb(0%,0%,0%);fill-opacity:1;" d="M 116.289062 53.328125 C 115.46875 53.992188 114.550781 54.324219 113.554688 54.324219 C 112.050781 54.324219 111.09375 52.996094 111.09375 51.257812 C 111.09375 49.773438 111.816406 48.152344 113.59375 48.152344 C 114.804688 48.152344 115.3125 48.425781 116.074219 48.953125 L 116.289062 47.78125 C 115.253906 47.175781 114.667969 47.039062 113.59375 47.039062 C 111.132812 47.039062 109.726562 49.226562 109.726562 51.257812 C 109.726562 53.5625 111.386719 55.4375 113.535156 55.4375 C 114.414062 55.4375 115.410156 55.222656 116.40625 54.5 C 116.40625 54.460938 116.347656 53.894531 116.328125 53.835938 Z M 116.289062 53.328125 "/>
<path style=" stroke:none;fill-rule:nonzero;fill:rgb(0%,0%,0%);fill-opacity:1;" d="M 119.96875 48.347656 L 122.449219 48.347656 L 122.449219 47.292969 L 119.96875 47.292969 L 119.96875 45.027344 L 118.738281 45.027344 L 118.738281 47.292969 L 117.234375 47.292969 L 117.234375 48.347656 L 118.699219 48.347656 L 118.699219 53.171875 C 118.699219 54.207031 118.933594 55.4375 120.164062 55.4375 C 121.375 55.4375 122.195312 55.027344 122.742188 54.734375 L 122.46875 53.699219 C 121.84375 54.265625 121.179688 54.324219 120.867188 54.324219 C 120.066406 54.324219 119.96875 53.484375 119.96875 52.859375 Z M 119.96875 48.347656 "/>
<path style=" stroke:none;fill-rule:nonzero;fill:rgb(0%,0%,0%);fill-opacity:1;" d="M 126.035156 43.09375 L 124.492188 43.09375 L 124.492188 44.636719 L 126.035156 44.636719 Z M 125.9375 47.292969 L 124.609375 47.292969 L 124.609375 55.261719 L 125.9375 55.261719 Z M 125.9375 47.292969 "/>
<path style=" stroke:none;fill-rule:nonzero;fill:rgb(0%,0%,0%);fill-opacity:1;" d="M 135.625 51.316406 C 135.625 48.894531 133.847656 47.039062 131.796875 47.039062 C 129.6875 47.039062 127.949219 48.933594 127.949219 51.316406 C 127.949219 53.660156 129.726562 55.4375 131.777344 55.4375 C 133.886719 55.4375 135.625 53.621094 135.625 51.316406 Z M 131.796875 54.324219 C 130.507812 54.324219 129.296875 53.25 129.296875 51.140625 C 129.296875 48.972656 130.644531 48.113281 131.777344 48.113281 C 133.007812 48.113281 134.277344 49.03125 134.277344 51.140625 C 134.277344 53.347656 132.988281 54.324219 131.796875 54.324219 Z M 131.796875 54.324219 "/>
<path style=" stroke:none;fill-rule:nonzero;fill:rgb(0%,0%,0%);fill-opacity:1;" d="M 143.851562 49.871094 C 143.851562 48.777344 143.617188 47.117188 141.449219 47.117188 C 140.453125 47.117188 139.59375 47.566406 138.910156 48.425781 L 138.910156 47.214844 L 137.640625 47.214844 L 137.640625 55.261719 L 138.988281 55.261719 L 138.988281 50.789062 C 138.988281 49.695312 139.417969 48.191406 140.765625 48.191406 C 142.445312 48.191406 142.484375 49.363281 142.484375 49.988281 L 142.484375 55.261719 L 143.851562 55.261719 Z M 143.851562 49.871094 "/>
<path style=" stroke:none;fill-rule:nonzero;fill:rgb(0%,0%,0%);fill-opacity:1;" d="M 151.269531 47.585938 C 150.136719 47.058594 149.160156 47.039062 148.75 47.039062 C 148.339844 47.039062 145.839844 47.039062 145.839844 49.363281 C 145.839844 50.144531 146.269531 50.691406 146.542969 50.945312 C 147.1875 51.492188 147.636719 51.589844 148.691406 51.804688 C 149.296875 51.921875 150.332031 52.136719 150.332031 53.09375 C 150.332031 54.324219 148.925781 54.324219 148.671875 54.324219 C 147.96875 54.324219 146.914062 54.128906 145.957031 53.425781 L 145.742188 54.65625 C 145.820312 54.714844 147.050781 55.4375 148.691406 55.4375 C 151.015625 55.4375 151.5625 54.050781 151.5625 52.976562 C 151.5625 52.078125 151.015625 51.492188 150.9375 51.414062 C 150.273438 50.730469 149.726562 50.613281 148.652344 50.398438 C 147.988281 50.28125 147.089844 50.105469 147.089844 49.207031 C 147.089844 48.09375 148.339844 48.09375 148.574219 48.09375 C 149.511719 48.09375 150.273438 48.308594 151.054688 48.757812 Z M 151.269531 47.585938 "/>
</g>
</svg>
