<?xml version="1.0" encoding="UTF-8"?>
<svg xmlns="http://www.w3.org/2000/svg" xmlns:xlink="http://www.w3.org/1999/xlink" width="213.19948pt" height="61.380939pt" viewBox="0 0 213.19948 61.380939" version="1.1">
<g id="surface1">
<path style=" stroke:none;fill-rule:nonzero;fill:rgb(0%,0%,100%);fill-opacity:1;" d="M 2.507812 0.175781 L 2.507812 12.617188 L 7.097656 12.617188 C 10.105469 12.617188 12.507812 9.902344 12.507812 6.503906 C 12.507812 3.007812 10.125 0.175781 7.097656 0.175781 Z M 4.011719 11.621094 L 4.011719 1.171875 L 6.6875 1.171875 C 9.089844 1.171875 11.003906 3.242188 11.003906 6.484375 C 11.003906 9.765625 9.011719 11.621094 6.6875 11.621094 Z M 4.011719 11.621094 "/>
<path style=" stroke:none;fill-rule:nonzero;fill:rgb(0%,0%,100%);fill-opacity:1;" d="M 20.800781 8.574219 C 20.800781 7.8125 20.722656 6.71875 20.15625 5.761719 C 19.414062 4.53125 18.164062 4.394531 17.636719 4.394531 C 15.703125 4.394531 14.082031 6.25 14.082031 8.574219 C 14.082031 10.957031 15.800781 12.792969 17.890625 12.792969 C 18.710938 12.792969 19.707031 12.558594 20.683594 11.855469 C 20.683594 11.777344 20.625 11.210938 20.625 11.191406 C 20.605469 11.171875 20.585938 10.761719 20.585938 10.703125 C 19.511719 11.601562 18.457031 11.71875 17.929688 11.71875 C 16.542969 11.71875 15.351562 10.488281 15.332031 8.574219 Z M 15.429688 7.617188 C 15.742188 6.40625 16.582031 5.46875 17.636719 5.46875 C 18.203125 5.46875 19.433594 5.722656 19.726562 7.617188 Z M 15.429688 7.617188 "/>
<path style=" stroke:none;fill-rule:nonzero;fill:rgb(0%,0%,100%);fill-opacity:1;" d="M 29.308594 0.15625 L 27.863281 0.15625 L 27.863281 1.601562 L 29.308594 1.601562 Z M 29.269531 4.648438 L 27.941406 4.648438 L 27.941406 12.617188 L 29.269531 12.617188 Z M 24.40625 5.703125 L 26.457031 5.703125 L 26.457031 4.648438 L 24.367188 4.648438 L 24.367188 2.460938 C 24.367188 1.386719 24.933594 1.074219 25.421875 1.074219 C 25.8125 1.074219 26.222656 1.210938 26.457031 1.386719 L 26.457031 0.175781 C 26.105469 0.0390625 25.988281 0 25.421875 0 C 24.09375 0 23.078125 1.269531 23.078125 3.007812 L 23.078125 4.648438 L 21.769531 4.648438 L 21.769531 5.703125 L 23.078125 5.703125 L 23.078125 12.617188 L 24.40625 12.617188 Z M 24.40625 5.703125 "/>
<path style=" stroke:none;fill-rule:nonzero;fill:rgb(0%,0%,100%);fill-opacity:1;" d="M 38.277344 7.226562 C 38.277344 6.132812 38.042969 4.472656 35.875 4.472656 C 34.878906 4.472656 34.019531 4.921875 33.335938 5.78125 L 33.335938 4.570312 L 32.066406 4.570312 L 32.066406 12.617188 L 33.414062 12.617188 L 33.414062 8.144531 C 33.414062 7.050781 33.84375 5.546875 35.191406 5.546875 C 36.871094 5.546875 36.910156 6.71875 36.910156 7.34375 L 36.910156 12.617188 L 38.277344 12.617188 Z M 38.277344 7.226562 "/>
<path style=" stroke:none;fill-rule:nonzero;fill:rgb(0%,0%,100%);fill-opacity:1;" d="M 42.519531 0.449219 L 40.976562 0.449219 L 40.976562 1.992188 L 42.519531 1.992188 Z M 42.421875 4.648438 L 41.09375 4.648438 L 41.09375 12.617188 L 42.421875 12.617188 Z M 42.421875 4.648438 "/>
<path style=" stroke:none;fill-rule:nonzero;fill:rgb(0%,0%,100%);fill-opacity:1;" d="M 46.886719 5.703125 L 49.367188 5.703125 L 49.367188 4.648438 L 46.886719 4.648438 L 46.886719 2.382812 L 45.65625 2.382812 L 45.65625 4.648438 L 44.152344 4.648438 L 44.152344 5.703125 L 45.617188 5.703125 L 45.617188 10.527344 C 45.617188 11.5625 45.851562 12.792969 47.082031 12.792969 C 48.292969 12.792969 49.113281 12.382812 49.660156 12.089844 L 49.386719 11.054688 C 48.761719 11.621094 48.097656 11.679688 47.785156 11.679688 C 46.984375 11.679688 46.886719 10.839844 46.886719 10.214844 Z M 46.886719 5.703125 "/>
<path style=" stroke:none;fill-rule:nonzero;fill:rgb(0%,0%,100%);fill-opacity:1;" d="M 57.464844 8.574219 C 57.464844 7.8125 57.386719 6.71875 56.820312 5.761719 C 56.078125 4.53125 54.828125 4.394531 54.300781 4.394531 C 52.367188 4.394531 50.746094 6.25 50.746094 8.574219 C 50.746094 10.957031 52.464844 12.792969 54.554688 12.792969 C 55.375 12.792969 56.371094 12.558594 57.347656 11.855469 C 57.347656 11.777344 57.289062 11.210938 57.289062 11.191406 C 57.269531 11.171875 57.25 10.761719 57.25 10.703125 C 56.175781 11.601562 55.121094 11.71875 54.59375 11.71875 C 53.207031 11.71875 52.015625 10.488281 51.996094 8.574219 Z M 52.09375 7.617188 C 52.40625 6.40625 53.246094 5.46875 54.300781 5.46875 C 54.867188 5.46875 56.097656 5.722656 56.390625 7.617188 Z M 52.09375 7.617188 "/>
<path style=" stroke:none;fill-rule:nonzero;fill:rgb(0%,0%,100%);fill-opacity:1;" d="M 66.972656 0.175781 L 65.429688 0.175781 L 65.429688 12.617188 L 66.972656 12.617188 Z M 66.972656 0.175781 "/>
<path style=" stroke:none;fill-rule:nonzero;fill:rgb(0%,0%,100%);fill-opacity:1;" d="M 76.179688 7.226562 C 76.179688 6.132812 75.945312 4.472656 73.777344 4.472656 C 72.78125 4.472656 71.921875 4.921875 71.238281 5.78125 L 71.238281 4.570312 L 69.96875 4.570312 L 69.96875 12.617188 L 71.316406 12.617188 L 71.316406 8.144531 C 71.316406 7.050781 71.746094 5.546875 73.09375 5.546875 C 74.773438 5.546875 74.8125 6.71875 74.8125 7.34375 L 74.8125 12.617188 L 76.179688 12.617188 Z M 76.179688 7.226562 "/>
<path style=" stroke:none;fill-rule:nonzero;fill:rgb(0%,0%,100%);fill-opacity:1;" d="M 80.65625 5.703125 L 83.136719 5.703125 L 83.136719 4.648438 L 80.65625 4.648438 L 80.65625 2.382812 L 79.425781 2.382812 L 79.425781 4.648438 L 77.921875 4.648438 L 77.921875 5.703125 L 79.386719 5.703125 L 79.386719 10.527344 C 79.386719 11.5625 79.621094 12.792969 80.851562 12.792969 C 82.0625 12.792969 82.882812 12.382812 83.429688 12.089844 L 83.15625 11.054688 C 82.53125 11.621094 81.867188 11.679688 81.554688 11.679688 C 80.753906 11.679688 80.65625 10.839844 80.65625 10.214844 Z M 80.65625 5.703125 "/>
<path style=" stroke:none;fill-rule:nonzero;fill:rgb(0%,0%,100%);fill-opacity:1;" d="M 91.238281 8.574219 C 91.238281 7.8125 91.160156 6.71875 90.59375 5.761719 C 89.851562 4.53125 88.601562 4.394531 88.074219 4.394531 C 86.140625 4.394531 84.519531 6.25 84.519531 8.574219 C 84.519531 10.957031 86.238281 12.792969 88.328125 12.792969 C 89.148438 12.792969 90.144531 12.558594 91.121094 11.855469 C 91.121094 11.777344 91.0625 11.210938 91.0625 11.191406 C 91.042969 11.171875 91.023438 10.761719 91.023438 10.703125 C 89.949219 11.601562 88.894531 11.71875 88.367188 11.71875 C 86.980469 11.71875 85.789062 10.488281 85.769531 8.574219 Z M 85.867188 7.617188 C 86.179688 6.40625 87.019531 5.46875 88.074219 5.46875 C 88.640625 5.46875 89.871094 5.722656 90.164062 7.617188 Z M 85.867188 7.617188 "/>
<path style=" stroke:none;fill-rule:nonzero;fill:rgb(0%,0%,100%);fill-opacity:1;" d="M 97.851562 5.546875 C 97.851562 5.546875 97.890625 5.585938 97.910156 5.625 C 98.28125 5.585938 98.671875 5.527344 99.335938 5.527344 C 99.394531 5.527344 99.804688 5.527344 100.253906 5.566406 L 100.058594 4.472656 C 99.726562 4.472656 98.496094 4.492188 97.304688 5.078125 C 96.71875 4.570312 95.996094 4.472656 95.644531 4.472656 C 94.082031 4.472656 92.832031 5.78125 92.832031 7.363281 C 92.832031 8.007812 93.027344 8.59375 93.417969 9.140625 C 93.007812 9.707031 92.910156 10.253906 92.910156 10.683594 C 92.910156 11.347656 93.164062 11.796875 93.359375 12.03125 C 92.441406 12.617188 92.226562 13.378906 92.226562 13.886719 C 92.226562 15.195312 93.925781 16.289062 96.113281 16.289062 C 98.300781 16.289062 100.019531 15.234375 100.019531 13.867188 C 100.019531 11.367188 97.109375 11.367188 96.386719 11.367188 L 94.863281 11.367188 C 94.609375 11.367188 93.828125 11.367188 93.828125 10.410156 C 93.828125 10.019531 93.90625 9.902344 94.023438 9.746094 C 94.316406 9.960938 94.902344 10.273438 95.625 10.273438 C 97.167969 10.273438 98.4375 9.003906 98.4375 7.363281 C 98.4375 6.71875 98.203125 6.054688 97.832031 5.566406 Z M 95.644531 9.277344 C 94.863281 9.277344 94.0625 8.75 94.0625 7.382812 C 94.0625 5.78125 95.078125 5.46875 95.625 5.46875 C 96.425781 5.46875 97.207031 5.996094 97.207031 7.363281 C 97.207031 8.964844 96.210938 9.277344 95.644531 9.277344 Z M 96.40625 12.65625 C 96.796875 12.65625 98.769531 12.65625 98.769531 13.886719 C 98.769531 14.707031 97.539062 15.3125 96.132812 15.3125 C 94.726562 15.3125 93.476562 14.746094 93.476562 13.867188 C 93.476562 13.828125 93.476562 12.65625 94.84375 12.65625 Z M 96.40625 12.65625 "/>
<path style=" stroke:none;fill-rule:nonzero;fill:rgb(0%,0%,100%);fill-opacity:1;" d="M 103.25 8.691406 C 103.25 6.875 104.597656 5.703125 106.21875 5.683594 L 106.21875 4.472656 C 104.578125 4.492188 103.640625 5.449219 103.152344 6.152344 L 103.152344 4.570312 L 101.921875 4.570312 L 101.921875 12.617188 L 103.25 12.617188 Z M 103.25 8.691406 "/>
<path style=" stroke:none;fill-rule:nonzero;fill:rgb(0%,0%,100%);fill-opacity:1;" d="M 113.496094 7.363281 C 113.496094 5.644531 112.265625 4.394531 110.585938 4.394531 C 109.511719 4.394531 108.710938 4.628906 107.832031 5.136719 L 107.929688 6.328125 C 108.730469 5.742188 109.550781 5.429688 110.585938 5.429688 C 111.40625 5.429688 112.128906 6.09375 112.128906 7.402344 L 112.128906 8.144531 C 111.328125 8.164062 110.253906 8.222656 109.179688 8.574219 C 107.96875 9.003906 107.265625 9.667969 107.265625 10.546875 C 107.265625 11.347656 107.734375 12.792969 109.257812 12.792969 C 110.253906 12.792969 111.503906 12.5 112.167969 11.953125 L 112.167969 12.617188 L 113.496094 12.617188 Z M 112.128906 10.214844 C 112.128906 10.566406 112.128906 10.996094 111.542969 11.367188 C 111.054688 11.660156 110.449219 11.71875 110.175781 11.71875 C 109.21875 11.71875 108.554688 11.191406 108.554688 10.546875 C 108.554688 9.316406 111.035156 9.042969 112.128906 9.042969 Z M 112.128906 10.214844 "/>
<path style=" stroke:none;fill-rule:nonzero;fill:rgb(0%,0%,100%);fill-opacity:1;" d="M 117.625 0.175781 L 116.296875 0.175781 L 116.296875 12.617188 L 117.625 12.617188 Z M 117.625 0.175781 "/>
<path style=" stroke:none;fill-rule:nonzero;fill:rgb(0%,0%,100%);fill-opacity:1;" d="M 125.035156 4.941406 C 123.902344 4.414062 122.925781 4.394531 122.515625 4.394531 C 122.105469 4.394531 119.605469 4.394531 119.605469 6.71875 C 119.605469 7.5 120.035156 8.046875 120.308594 8.300781 C 120.953125 8.847656 121.402344 8.945312 122.457031 9.160156 C 123.0625 9.277344 124.097656 9.492188 124.097656 10.449219 C 124.097656 11.679688 122.691406 11.679688 122.4375 11.679688 C 121.734375 11.679688 120.679688 11.484375 119.722656 10.78125 L 119.507812 12.011719 C 119.585938 12.070312 120.816406 12.792969 122.457031 12.792969 C 124.78125 12.792969 125.328125 11.40625 125.328125 10.332031 C 125.328125 9.433594 124.78125 8.847656 124.703125 8.769531 C 124.039062 8.085938 123.492188 7.96875 122.417969 7.753906 C 121.753906 7.636719 120.855469 7.460938 120.855469 6.5625 C 120.855469 5.449219 122.105469 5.449219 122.339844 5.449219 C 123.277344 5.449219 124.039062 5.664062 124.820312 6.113281 Z M 125.035156 4.941406 "/>
<path style=" stroke:none;fill-rule:nonzero;fill:rgb(0%,0%,100%);fill-opacity:1;" d="M 140.734375 10.195312 L 144.679688 10.195312 C 144.933594 10.195312 145.265625 10.195312 145.265625 9.882812 C 145.265625 9.53125 144.953125 9.53125 144.679688 9.53125 L 140.910156 9.53125 L 141.652344 6.757812 L 144.679688 6.757812 C 144.933594 6.757812 145.265625 6.757812 145.265625 6.425781 C 145.265625 6.09375 144.953125 6.09375 144.679688 6.09375 L 141.847656 6.09375 L 143.234375 0.839844 C 143.3125 0.585938 143.3125 0.527344 143.3125 0.507812 C 143.3125 0.3125 143.15625 0.175781 142.960938 0.175781 C 142.707031 0.175781 142.648438 0.410156 142.609375 0.585938 L 141.144531 6.09375 L 137.804688 6.09375 L 139.171875 0.839844 C 139.25 0.585938 139.25 0.527344 139.25 0.507812 C 139.25 0.3125 139.113281 0.175781 138.917969 0.175781 C 138.664062 0.175781 138.605469 0.410156 138.546875 0.585938 L 137.101562 6.09375 L 133.15625 6.09375 C 132.902344 6.09375 132.589844 6.09375 132.589844 6.40625 C 132.589844 6.757812 132.882812 6.757812 133.15625 6.757812 L 136.925781 6.757812 L 136.183594 9.53125 L 133.15625 9.53125 C 132.902344 9.53125 132.589844 9.53125 132.589844 9.863281 C 132.589844 10.195312 132.882812 10.195312 133.15625 10.195312 L 135.988281 10.195312 L 134.601562 15.429688 C 134.542969 15.683594 134.542969 15.742188 134.542969 15.761719 C 134.542969 15.957031 134.679688 16.09375 134.875 16.09375 C 135.128906 16.09375 135.1875 15.859375 135.226562 15.683594 L 136.691406 10.195312 L 140.03125 10.195312 L 138.664062 15.429688 C 138.585938 15.683594 138.585938 15.742188 138.585938 15.761719 C 138.585938 15.957031 138.722656 16.09375 138.9375 16.09375 C 139.171875 16.09375 139.230469 15.859375 139.289062 15.683594 Z M 136.867188 9.53125 L 137.609375 6.757812 L 140.96875 6.757812 L 140.246094 9.53125 Z M 136.867188 9.53125 "/>
<path style=" stroke:none;fill-rule:nonzero;fill:rgb(0%,0%,100%);fill-opacity:1;" d="M 147.125 11.484375 L 147.125 12.617188 L 154.136719 12.617188 L 154.136719 11.40625 L 150.953125 11.40625 C 150.71875 11.40625 150.503906 11.40625 150.289062 11.40625 L 148.375 11.40625 C 148.84375 10.9375 150.503906 9.277344 151.675781 8.242188 C 153.003906 7.070312 154.136719 5.957031 154.136719 4.316406 C 154.136719 2.324219 152.75 0.488281 150.386719 0.488281 C 148.453125 0.488281 147.457031 1.777344 146.988281 3.4375 C 147.554688 4.160156 147.554688 4.199219 147.710938 4.414062 C 148.160156 2.480469 148.824219 1.601562 150.152344 1.601562 C 151.695312 1.601562 152.691406 2.8125 152.691406 4.355469 C 152.691406 5.292969 152.320312 6.328125 151.128906 7.5 Z M 147.125 11.484375 "/>
<path style=" stroke:none;fill-rule:nonzero;fill:rgb(0%,0%,0%);fill-opacity:1;" d="M 12.820312 27.597656 C 12.820312 23.808594 10.242188 20.976562 7.332031 20.976562 C 4.363281 20.976562 1.84375 23.847656 1.84375 27.597656 C 1.84375 31.386719 4.441406 34.160156 7.3125 34.160156 C 10.28125 34.160156 12.820312 31.347656 12.820312 27.597656 Z M 7.332031 33.027344 C 5.261719 33.027344 3.386719 30.800781 3.386719 27.34375 C 3.386719 24.042969 5.339844 22.089844 7.3125 22.089844 C 9.363281 22.089844 11.277344 24.082031 11.277344 27.34375 C 11.277344 30.839844 9.34375 33.027344 7.332031 33.027344 Z M 7.332031 33.027344 "/>
<path style=" stroke:none;fill-rule:nonzero;fill:rgb(0%,0%,0%);fill-opacity:1;" d="M 21.394531 21.347656 L 20.066406 21.347656 L 20.066406 26.582031 C 19.246094 25.898438 18.308594 25.644531 17.546875 25.644531 C 15.847656 25.644531 14.441406 27.480469 14.441406 29.804688 C 14.441406 32.128906 15.769531 33.964844 17.46875 33.964844 C 18.132812 33.964844 19.148438 33.75 20.046875 32.871094 L 20.046875 33.789062 L 21.394531 33.789062 Z M 20.046875 31.679688 C 19.617188 32.441406 18.972656 32.890625 18.191406 32.890625 C 17.097656 32.890625 15.808594 32.050781 15.808594 29.824219 C 15.808594 27.441406 17.332031 26.71875 18.367188 26.71875 C 19.070312 26.71875 19.636719 27.089844 20.046875 27.675781 Z M 20.046875 31.679688 "/>
<path style=" stroke:none;fill-rule:nonzero;fill:rgb(0%,0%,0%);fill-opacity:1;" d="M 30.402344 21.347656 L 29.074219 21.347656 L 29.074219 26.582031 C 28.253906 25.898438 27.316406 25.644531 26.554688 25.644531 C 24.855469 25.644531 23.449219 27.480469 23.449219 29.804688 C 23.449219 32.128906 24.777344 33.964844 26.476562 33.964844 C 27.140625 33.964844 28.15625 33.75 29.054688 32.871094 L 29.054688 33.789062 L 30.402344 33.789062 Z M 29.054688 31.679688 C 28.625 32.441406 27.980469 32.890625 27.199219 32.890625 C 26.105469 32.890625 24.816406 32.050781 24.816406 29.824219 C 24.816406 27.441406 26.339844 26.71875 27.375 26.71875 C 28.078125 26.71875 28.644531 27.089844 29.054688 27.675781 Z M 29.054688 31.679688 "/>
<path style=" stroke:none;fill-rule:nonzero;fill:rgb(0%,0%,0%);fill-opacity:1;" d="M 46.867188 26.503906 C 46.242188 28.75 45.246094 30.429688 43.898438 31.601562 C 43.683594 31.367188 41.847656 29.199219 41.164062 27.617188 C 42.902344 26.074219 43.839844 24.902344 43.839844 23.75 C 43.839844 22.441406 43 20.976562 41.535156 20.976562 C 40.050781 20.976562 39.09375 22.558594 39.09375 24.492188 C 39.09375 26.054688 39.640625 27.441406 39.660156 27.539062 L 38.234375 28.828125 C 37.726562 29.277344 37.003906 29.941406 37.003906 31.191406 C 37.003906 32.753906 38.3125 34.160156 40.226562 34.160156 C 40.773438 34.160156 42.179688 34.101562 43.703125 33.125 C 44.933594 34.082031 45.929688 34.160156 46.554688 34.160156 C 46.730469 34.160156 47.511719 34.160156 48.566406 33.886719 L 48.566406 32.695312 C 47.863281 32.949219 47.082031 33.046875 46.574219 33.046875 C 46.320312 33.046875 45.597656 33.046875 44.71875 32.363281 C 46.652344 30.546875 47.53125 28.4375 47.960938 26.816406 Z M 40.734375 26.5625 C 40.363281 25.507812 40.265625 24.492188 40.265625 23.886719 C 40.265625 22.578125 40.949219 22.050781 41.535156 22.050781 C 42.453125 22.050781 42.589844 23.28125 42.589844 23.730469 C 42.589844 24.746094 41.671875 25.625 40.734375 26.5625 Z M 40.109375 28.574219 C 41.046875 30.292969 42.121094 31.582031 42.84375 32.363281 C 42.296875 32.675781 41.300781 33.046875 40.246094 33.046875 C 38.957031 33.046875 38.351562 31.953125 38.351562 31.074219 C 38.351562 30.078125 38.800781 29.6875 40.109375 28.574219 Z M 40.109375 28.574219 "/>
<path style=" stroke:none;fill-rule:nonzero;fill:rgb(0%,0%,0%);fill-opacity:1;" d="M 61.261719 29.746094 C 61.261719 28.984375 61.183594 27.890625 60.617188 26.933594 C 59.875 25.703125 58.625 25.566406 58.097656 25.566406 C 56.164062 25.566406 54.542969 27.421875 54.542969 29.746094 C 54.542969 32.128906 56.261719 33.964844 58.351562 33.964844 C 59.171875 33.964844 60.167969 33.730469 61.144531 33.027344 C 61.144531 32.949219 61.085938 32.382812 61.085938 32.363281 C 61.066406 32.34375 61.046875 31.933594 61.046875 31.875 C 59.972656 32.773438 58.917969 32.890625 58.390625 32.890625 C 57.003906 32.890625 55.8125 31.660156 55.792969 29.746094 Z M 55.890625 28.789062 C 56.203125 27.578125 57.042969 26.640625 58.097656 26.640625 C 58.664062 26.640625 59.894531 26.894531 60.1875 28.789062 Z M 55.890625 28.789062 "/>
<path style=" stroke:none;fill-rule:nonzero;fill:rgb(0%,0%,0%);fill-opacity:1;" d="M 69.515625 25.820312 L 68.1875 25.820312 L 66.878906 29.394531 C 66.566406 30.253906 65.902344 32.148438 65.804688 32.8125 L 65.785156 32.8125 C 65.6875 32.1875 65.335938 31.210938 65.0625 30.429688 L 63.402344 25.820312 L 62.015625 25.820312 L 64.964844 33.789062 L 66.566406 33.789062 Z M 69.515625 25.820312 "/>
<path style=" stroke:none;fill-rule:nonzero;fill:rgb(0%,0%,0%);fill-opacity:1;" d="M 77.097656 29.746094 C 77.097656 28.984375 77.019531 27.890625 76.453125 26.933594 C 75.710938 25.703125 74.460938 25.566406 73.933594 25.566406 C 72 25.566406 70.378906 27.421875 70.378906 29.746094 C 70.378906 32.128906 72.097656 33.964844 74.1875 33.964844 C 75.007812 33.964844 76.003906 33.730469 76.980469 33.027344 C 76.980469 32.949219 76.921875 32.382812 76.921875 32.363281 C 76.902344 32.34375 76.882812 31.933594 76.882812 31.875 C 75.808594 32.773438 74.753906 32.890625 74.226562 32.890625 C 72.839844 32.890625 71.648438 31.660156 71.628906 29.746094 Z M 71.726562 28.789062 C 72.039062 27.578125 72.878906 26.640625 73.933594 26.640625 C 74.5 26.640625 75.730469 26.894531 76.023438 28.789062 Z M 71.726562 28.789062 "/>
<path style=" stroke:none;fill-rule:nonzero;fill:rgb(0%,0%,0%);fill-opacity:1;" d="M 85.195312 28.398438 C 85.195312 27.304688 84.960938 25.644531 82.792969 25.644531 C 81.796875 25.644531 80.9375 26.09375 80.253906 26.953125 L 80.253906 25.742188 L 78.984375 25.742188 L 78.984375 33.789062 L 80.332031 33.789062 L 80.332031 29.316406 C 80.332031 28.222656 80.761719 26.71875 82.109375 26.71875 C 83.789062 26.71875 83.828125 27.890625 83.828125 28.515625 L 83.828125 33.789062 L 85.195312 33.789062 Z M 85.195312 28.398438 "/>
<path style=" stroke:none;fill-rule:nonzero;fill:rgb(0%,0%,0%);fill-opacity:1;" d="M 94.121094 26.875 L 96.035156 26.875 L 96.035156 25.820312 L 94.082031 25.820312 L 94.082031 23.671875 C 94.082031 22.460938 95.097656 22.246094 95.703125 22.246094 C 96.328125 22.246094 96.875 22.441406 97.089844 22.519531 L 97.089844 21.347656 C 96.972656 21.308594 96.367188 21.171875 95.722656 21.171875 C 94.003906 21.171875 92.792969 22.480469 92.792969 24.21875 L 92.792969 25.820312 L 91.484375 25.820312 L 91.484375 26.875 L 92.792969 26.875 L 92.792969 33.789062 L 94.121094 33.789062 Z M 94.121094 26.875 "/>
<path style=" stroke:none;fill-rule:nonzero;fill:rgb(0%,0%,0%);fill-opacity:1;" d="M 103.980469 25.820312 L 102.613281 25.820312 L 102.613281 30.957031 C 102.613281 32.324219 101.675781 32.988281 100.503906 32.988281 C 99.253906 32.988281 99.117188 32.519531 99.117188 31.71875 L 99.117188 25.820312 L 97.769531 25.820312 L 97.769531 31.796875 C 97.769531 33.085938 98.179688 33.964844 99.644531 33.964844 C 100.152344 33.964844 101.558594 33.886719 102.652344 32.890625 L 102.652344 33.789062 L 103.980469 33.789062 Z M 103.980469 25.820312 "/>
<path style=" stroke:none;fill-rule:nonzero;fill:rgb(0%,0%,0%);fill-opacity:1;" d="M 112.988281 28.398438 C 112.988281 27.304688 112.753906 25.644531 110.585938 25.644531 C 109.589844 25.644531 108.730469 26.09375 108.046875 26.953125 L 108.046875 25.742188 L 106.777344 25.742188 L 106.777344 33.789062 L 108.125 33.789062 L 108.125 29.316406 C 108.125 28.222656 108.554688 26.71875 109.902344 26.71875 C 111.582031 26.71875 111.621094 27.890625 111.621094 28.515625 L 111.621094 33.789062 L 112.988281 33.789062 Z M 112.988281 28.398438 "/>
<path style=" stroke:none;fill-rule:nonzero;fill:rgb(0%,0%,0%);fill-opacity:1;" d="M 121.585938 31.855469 C 120.765625 32.519531 119.847656 32.851562 118.851562 32.851562 C 117.347656 32.851562 116.390625 31.523438 116.390625 29.785156 C 116.390625 28.300781 117.113281 26.679688 118.890625 26.679688 C 120.101562 26.679688 120.609375 26.953125 121.371094 27.480469 L 121.585938 26.308594 C 120.550781 25.703125 119.964844 25.566406 118.890625 25.566406 C 116.429688 25.566406 115.023438 27.753906 115.023438 29.785156 C 115.023438 32.089844 116.683594 33.964844 118.832031 33.964844 C 119.710938 33.964844 120.707031 33.75 121.703125 33.027344 C 121.703125 32.988281 121.644531 32.421875 121.625 32.363281 Z M 121.585938 31.855469 "/>
<path style=" stroke:none;fill-rule:nonzero;fill:rgb(0%,0%,0%);fill-opacity:1;" d="M 125.265625 26.875 L 127.746094 26.875 L 127.746094 25.820312 L 125.265625 25.820312 L 125.265625 23.554688 L 124.035156 23.554688 L 124.035156 25.820312 L 122.53125 25.820312 L 122.53125 26.875 L 123.996094 26.875 L 123.996094 31.699219 C 123.996094 32.734375 124.230469 33.964844 125.460938 33.964844 C 126.671875 33.964844 127.492188 33.554688 128.039062 33.261719 L 127.765625 32.226562 C 127.140625 32.792969 126.476562 32.851562 126.164062 32.851562 C 125.363281 32.851562 125.265625 32.011719 125.265625 31.386719 Z M 125.265625 26.875 "/>
<path style=" stroke:none;fill-rule:nonzero;fill:rgb(0%,0%,0%);fill-opacity:1;" d="M 131.375 21.621094 L 129.832031 21.621094 L 129.832031 23.164062 L 131.375 23.164062 Z M 131.277344 25.820312 L 129.949219 25.820312 L 129.949219 33.789062 L 131.277344 33.789062 Z M 131.277344 25.820312 "/>
<path style=" stroke:none;fill-rule:nonzero;fill:rgb(0%,0%,0%);fill-opacity:1;" d="M 140.894531 29.84375 C 140.894531 27.421875 139.117188 25.566406 137.066406 25.566406 C 134.957031 25.566406 133.21875 27.460938 133.21875 29.84375 C 133.21875 32.1875 134.996094 33.964844 137.046875 33.964844 C 139.15625 33.964844 140.894531 32.148438 140.894531 29.84375 Z M 137.066406 32.851562 C 135.777344 32.851562 134.566406 31.777344 134.566406 29.667969 C 134.566406 27.5 135.914062 26.640625 137.046875 26.640625 C 138.277344 26.640625 139.546875 27.558594 139.546875 29.667969 C 139.546875 31.875 138.257812 32.851562 137.066406 32.851562 Z M 137.066406 32.851562 "/>
<path style=" stroke:none;fill-rule:nonzero;fill:rgb(0%,0%,0%);fill-opacity:1;" d="M 149.050781 28.398438 C 149.050781 27.304688 148.816406 25.644531 146.648438 25.644531 C 145.652344 25.644531 144.792969 26.09375 144.109375 26.953125 L 144.109375 25.742188 L 142.839844 25.742188 L 142.839844 33.789062 L 144.1875 33.789062 L 144.1875 29.316406 C 144.1875 28.222656 144.617188 26.71875 145.964844 26.71875 C 147.644531 26.71875 147.683594 27.890625 147.683594 28.515625 L 147.683594 33.789062 L 149.050781 33.789062 Z M 149.050781 28.398438 "/>
<path style=" stroke:none;fill-rule:nonzero;fill:rgb(0%,0%,0%);fill-opacity:1;" d="M 156.476562 26.113281 C 155.34375 25.585938 154.367188 25.566406 153.957031 25.566406 C 153.546875 25.566406 151.046875 25.566406 151.046875 27.890625 C 151.046875 28.671875 151.476562 29.21875 151.75 29.472656 C 152.394531 30.019531 152.84375 30.117188 153.898438 30.332031 C 154.503906 30.449219 155.539062 30.664062 155.539062 31.621094 C 155.539062 32.851562 154.132812 32.851562 153.878906 32.851562 C 153.175781 32.851562 152.121094 32.65625 151.164062 31.953125 L 150.949219 33.183594 C 151.027344 33.242188 152.257812 33.964844 153.898438 33.964844 C 156.222656 33.964844 156.769531 32.578125 156.769531 31.503906 C 156.769531 30.605469 156.222656 30.019531 156.144531 29.941406 C 155.480469 29.257812 154.933594 29.140625 153.859375 28.925781 C 153.195312 28.808594 152.296875 28.632812 152.296875 27.734375 C 152.296875 26.621094 153.546875 26.621094 153.78125 26.621094 C 154.71875 26.621094 155.480469 26.835938 156.261719 27.285156 Z M 156.476562 26.113281 "/>
<path style=" stroke:none;fill-rule:nonzero;fill:rgb(0%,0%,0%);fill-opacity:1;" d="M 164.78125 25.820312 L 163.316406 25.820312 L 163.316406 27.285156 L 164.78125 27.285156 Z M 163.316406 36.035156 L 164.039062 36.035156 L 164.78125 33.769531 L 164.78125 32.34375 L 163.316406 32.34375 L 163.316406 33.789062 L 163.765625 33.789062 Z M 163.316406 36.035156 "/>
<path style=" stroke:none;fill-rule:nonzero;fill:rgb(0%,0%,0%);fill-opacity:1;" d="M 183.34375 27.597656 C 183.34375 23.808594 180.765625 20.976562 177.855469 20.976562 C 174.886719 20.976562 172.367188 23.847656 172.367188 27.597656 C 172.367188 31.386719 174.964844 34.160156 177.835938 34.160156 C 180.804688 34.160156 183.34375 31.347656 183.34375 27.597656 Z M 177.855469 33.027344 C 175.785156 33.027344 173.910156 30.800781 173.910156 27.34375 C 173.910156 24.042969 175.863281 22.089844 177.835938 22.089844 C 179.886719 22.089844 181.800781 24.082031 181.800781 27.34375 C 181.800781 30.839844 179.867188 33.027344 177.855469 33.027344 Z M 177.855469 33.027344 "/>
<path style=" stroke:none;fill-rule:nonzero;fill:rgb(0%,0%,0%);fill-opacity:1;" d="M 187.410156 26.875 L 189.890625 26.875 L 189.890625 25.820312 L 187.410156 25.820312 L 187.410156 23.554688 L 186.179688 23.554688 L 186.179688 25.820312 L 184.675781 25.820312 L 184.675781 26.875 L 186.140625 26.875 L 186.140625 31.699219 C 186.140625 32.734375 186.375 33.964844 187.605469 33.964844 C 188.816406 33.964844 189.636719 33.554688 190.183594 33.261719 L 189.910156 32.226562 C 189.285156 32.792969 188.621094 32.851562 188.308594 32.851562 C 187.507812 32.851562 187.410156 32.011719 187.410156 31.386719 Z M 187.410156 26.875 "/>
<path style=" stroke:none;fill-rule:nonzero;fill:rgb(0%,0%,0%);fill-opacity:1;" d="M 198.28125 28.398438 C 198.28125 27.304688 198.046875 25.644531 195.878906 25.644531 C 194.648438 25.644531 193.828125 26.347656 193.398438 26.894531 L 193.398438 21.347656 L 192.070312 21.347656 L 192.070312 33.789062 L 193.417969 33.789062 L 193.417969 29.316406 C 193.417969 28.222656 193.847656 26.71875 195.195312 26.71875 C 196.875 26.71875 196.914062 27.890625 196.914062 28.515625 L 196.914062 33.789062 L 198.28125 33.789062 Z M 198.28125 28.398438 "/>
<path style=" stroke:none;fill-rule:nonzero;fill:rgb(0%,0%,0%);fill-opacity:1;" d="M 206.996094 29.746094 C 206.996094 28.984375 206.917969 27.890625 206.351562 26.933594 C 205.609375 25.703125 204.359375 25.566406 203.832031 25.566406 C 201.898438 25.566406 200.277344 27.421875 200.277344 29.746094 C 200.277344 32.128906 201.996094 33.964844 204.085938 33.964844 C 204.90625 33.964844 205.902344 33.730469 206.878906 33.027344 C 206.878906 32.949219 206.820312 32.382812 206.820312 32.363281 C 206.800781 32.34375 206.78125 31.933594 206.78125 31.875 C 205.707031 32.773438 204.652344 32.890625 204.125 32.890625 C 202.738281 32.890625 201.546875 31.660156 201.527344 29.746094 Z M 201.625 28.789062 C 201.9375 27.578125 202.777344 26.640625 203.832031 26.640625 C 204.398438 26.640625 205.628906 26.894531 205.921875 28.789062 Z M 201.625 28.789062 "/>
<path style=" stroke:none;fill-rule:nonzero;fill:rgb(0%,0%,0%);fill-opacity:1;" d="M 210.230469 29.863281 C 210.230469 28.046875 211.578125 26.875 213.199219 26.855469 L 213.199219 25.644531 C 211.558594 25.664062 210.621094 26.621094 210.132812 27.324219 L 210.132812 25.742188 L 208.902344 25.742188 L 208.902344 33.789062 L 210.230469 33.789062 Z M 210.230469 29.863281 "/>
<path style=" stroke:none;fill-rule:nonzero;fill:rgb(0%,0%,0%);fill-opacity:1;" d="M 8.464844 49.566406 C 8.464844 48.472656 8.230469 46.8125 6.0625 46.8125 C 4.832031 46.8125 4.011719 47.515625 3.582031 48.0625 L 3.582031 42.515625 L 2.253906 42.515625 L 2.253906 54.957031 L 3.601562 54.957031 L 3.601562 50.484375 C 3.601562 49.390625 4.03125 47.886719 5.378906 47.886719 C 7.058594 47.886719 7.097656 49.058594 7.097656 49.683594 L 7.097656 54.957031 L 8.464844 54.957031 Z M 8.464844 49.566406 "/>
<path style=" stroke:none;fill-rule:nonzero;fill:rgb(0%,0%,0%);fill-opacity:1;" d="M 16.886719 49.703125 C 16.886719 47.984375 15.65625 46.734375 13.976562 46.734375 C 12.902344 46.734375 12.101562 46.96875 11.222656 47.476562 L 11.320312 48.667969 C 12.121094 48.082031 12.941406 47.769531 13.976562 47.769531 C 14.796875 47.769531 15.519531 48.433594 15.519531 49.742188 L 15.519531 50.484375 C 14.71875 50.503906 13.644531 50.5625 12.570312 50.914062 C 11.359375 51.34375 10.65625 52.007812 10.65625 52.886719 C 10.65625 53.6875 11.125 55.132812 12.648438 55.132812 C 13.644531 55.132812 14.894531 54.839844 15.558594 54.292969 L 15.558594 54.957031 L 16.886719 54.957031 Z M 15.519531 52.554688 C 15.519531 52.90625 15.519531 53.335938 14.933594 53.707031 C 14.445312 54 13.839844 54.058594 13.566406 54.058594 C 12.609375 54.058594 11.945312 53.53125 11.945312 52.886719 C 11.945312 51.65625 14.425781 51.382812 15.519531 51.382812 Z M 15.519531 52.554688 "/>
<path style=" stroke:none;fill-rule:nonzero;fill:rgb(0%,0%,0%);fill-opacity:1;" d="M 25.875 49.566406 C 25.875 48.472656 25.640625 46.8125 23.472656 46.8125 C 22.476562 46.8125 21.617188 47.261719 20.933594 48.121094 L 20.933594 46.910156 L 19.664062 46.910156 L 19.664062 54.957031 L 21.011719 54.957031 L 21.011719 50.484375 C 21.011719 49.390625 21.441406 47.886719 22.789062 47.886719 C 24.46875 47.886719 24.507812 49.058594 24.507812 49.683594 L 24.507812 54.957031 L 25.875 54.957031 Z M 25.875 49.566406 "/>
<path style=" stroke:none;fill-rule:nonzero;fill:rgb(0%,0%,0%);fill-opacity:1;" d="M 34.863281 42.515625 L 33.535156 42.515625 L 33.535156 47.75 C 32.714844 47.066406 31.777344 46.8125 31.015625 46.8125 C 29.316406 46.8125 27.910156 48.648438 27.910156 50.972656 C 27.910156 53.296875 29.238281 55.132812 30.9375 55.132812 C 31.601562 55.132812 32.617188 54.917969 33.515625 54.039062 L 33.515625 54.957031 L 34.863281 54.957031 Z M 33.515625 52.847656 C 33.085938 53.609375 32.441406 54.058594 31.660156 54.058594 C 30.566406 54.058594 29.277344 53.21875 29.277344 50.992188 C 29.277344 48.609375 30.800781 47.886719 31.835938 47.886719 C 32.539062 47.886719 33.105469 48.257812 33.515625 48.84375 Z M 33.515625 52.847656 "/>
<path style=" stroke:none;fill-rule:nonzero;fill:rgb(0%,0%,0%);fill-opacity:1;" d="M 44.046875 46.988281 L 42.71875 46.988281 C 41.878906 49.117188 40.511719 52.632812 40.433594 53.921875 L 40.414062 53.921875 C 40.335938 52.867188 39.378906 50.484375 39.242188 50.132812 L 37.953125 46.988281 L 36.546875 46.988281 L 39.886719 54.957031 L 39.242188 56.597656 C 38.851562 57.476562 38.597656 57.574219 38.265625 57.574219 C 38.011719 57.574219 37.445312 57.515625 36.878906 57.300781 L 36.996094 58.472656 C 37.09375 58.492188 37.699219 58.609375 38.265625 58.609375 C 38.695312 58.609375 39.535156 58.609375 40.316406 56.636719 Z M 44.046875 46.988281 "/>
<path style=" stroke:none;fill-rule:nonzero;fill:rgb(0%,0%,0%);fill-opacity:1;" d="M 52.925781 54.15625 C 53.550781 54.703125 54.292969 55.132812 55.269531 55.132812 C 56.988281 55.132812 58.53125 53.394531 58.53125 50.953125 C 58.53125 48.785156 57.378906 46.8125 55.71875 46.8125 C 54.976562 46.8125 53.824219 47.046875 52.90625 47.847656 L 52.90625 46.988281 L 51.578125 46.988281 L 51.578125 58.433594 L 52.925781 58.433594 Z M 52.925781 48.941406 C 53.335938 48.316406 54.019531 47.925781 54.761719 47.925781 C 56.089844 47.925781 57.164062 49.273438 57.164062 50.972656 C 57.164062 52.769531 55.933594 54.058594 54.605469 54.058594 C 54.097656 54.058594 53.765625 53.882812 53.433594 53.628906 C 52.984375 53.238281 52.925781 52.90625 52.925781 52.632812 Z M 52.925781 48.941406 "/>
<path style=" stroke:none;fill-rule:nonzero;fill:rgb(0%,0%,0%);fill-opacity:1;" d="M 61.429688 51.03125 C 61.429688 49.214844 62.777344 48.042969 64.398438 48.023438 L 64.398438 46.8125 C 62.757812 46.832031 61.820312 47.789062 61.332031 48.492188 L 61.332031 46.910156 L 60.101562 46.910156 L 60.101562 54.957031 L 61.429688 54.957031 Z M 61.429688 51.03125 "/>
<path style=" stroke:none;fill-rule:nonzero;fill:rgb(0%,0%,0%);fill-opacity:1;" d="M 72.886719 51.011719 C 72.886719 48.589844 71.109375 46.734375 69.058594 46.734375 C 66.949219 46.734375 65.210938 48.628906 65.210938 51.011719 C 65.210938 53.355469 66.988281 55.132812 69.039062 55.132812 C 71.148438 55.132812 72.886719 53.316406 72.886719 51.011719 Z M 69.058594 54.019531 C 67.769531 54.019531 66.558594 52.945312 66.558594 50.835938 C 66.558594 48.667969 67.90625 47.808594 69.039062 47.808594 C 70.269531 47.808594 71.539062 48.726562 71.539062 50.835938 C 71.539062 53.042969 70.25 54.019531 69.058594 54.019531 Z M 69.058594 54.019531 "/>
<path style=" stroke:none;fill-rule:nonzero;fill:rgb(0%,0%,0%);fill-opacity:1;" d="M 76.199219 54.15625 C 76.824219 54.703125 77.566406 55.132812 78.542969 55.132812 C 80.261719 55.132812 81.804688 53.394531 81.804688 50.953125 C 81.804688 48.785156 80.652344 46.8125 78.992188 46.8125 C 78.25 46.8125 77.097656 47.046875 76.179688 47.847656 L 76.179688 46.988281 L 74.851562 46.988281 L 74.851562 58.433594 L 76.199219 58.433594 Z M 76.199219 48.941406 C 76.609375 48.316406 77.292969 47.925781 78.035156 47.925781 C 79.363281 47.925781 80.4375 49.273438 80.4375 50.972656 C 80.4375 52.769531 79.207031 54.058594 77.878906 54.058594 C 77.371094 54.058594 77.039062 53.882812 76.707031 53.628906 C 76.257812 53.238281 76.199219 52.90625 76.199219 52.632812 Z M 76.199219 48.941406 "/>
<path style=" stroke:none;fill-rule:nonzero;fill:rgb(0%,0%,0%);fill-opacity:1;" d="M 90.238281 50.914062 C 90.238281 50.152344 90.160156 49.058594 89.59375 48.101562 C 88.851562 46.871094 87.601562 46.734375 87.074219 46.734375 C 85.140625 46.734375 83.519531 48.589844 83.519531 50.914062 C 83.519531 53.296875 85.238281 55.132812 87.328125 55.132812 C 88.148438 55.132812 89.144531 54.898438 90.121094 54.195312 C 90.121094 54.117188 90.0625 53.550781 90.0625 53.53125 C 90.042969 53.511719 90.023438 53.101562 90.023438 53.042969 C 88.949219 53.941406 87.894531 54.058594 87.367188 54.058594 C 85.980469 54.058594 84.789062 52.828125 84.769531 50.914062 Z M 84.867188 49.957031 C 85.179688 48.746094 86.019531 47.808594 87.074219 47.808594 C 87.640625 47.808594 88.871094 48.0625 89.164062 49.957031 Z M 84.867188 49.957031 "/>
<path style=" stroke:none;fill-rule:nonzero;fill:rgb(0%,0%,0%);fill-opacity:1;" d="M 93.472656 51.03125 C 93.472656 49.214844 94.820312 48.042969 96.441406 48.023438 L 96.441406 46.8125 C 94.800781 46.832031 93.863281 47.789062 93.375 48.492188 L 93.375 46.910156 L 92.144531 46.910156 L 92.144531 54.957031 L 93.472656 54.957031 Z M 93.472656 51.03125 "/>
<path style=" stroke:none;fill-rule:nonzero;fill:rgb(0%,0%,0%);fill-opacity:1;" d="M 99.773438 48.042969 L 102.253906 48.042969 L 102.253906 46.988281 L 99.773438 46.988281 L 99.773438 44.722656 L 98.542969 44.722656 L 98.542969 46.988281 L 97.039062 46.988281 L 97.039062 48.042969 L 98.503906 48.042969 L 98.503906 52.867188 C 98.503906 53.902344 98.738281 55.132812 99.96875 55.132812 C 101.179688 55.132812 102 54.722656 102.546875 54.429688 L 102.273438 53.394531 C 101.648438 53.960938 100.984375 54.019531 100.671875 54.019531 C 99.871094 54.019531 99.773438 53.179688 99.773438 52.554688 Z M 99.773438 48.042969 "/>
<path style=" stroke:none;fill-rule:nonzero;fill:rgb(0%,0%,0%);fill-opacity:1;" d="M 105.882812 42.789062 L 104.339844 42.789062 L 104.339844 44.332031 L 105.882812 44.332031 Z M 105.785156 46.988281 L 104.457031 46.988281 L 104.457031 54.957031 L 105.785156 54.957031 Z M 105.785156 46.988281 "/>
<path style=" stroke:none;fill-rule:nonzero;fill:rgb(0%,0%,0%);fill-opacity:1;" d="M 114.484375 50.914062 C 114.484375 50.152344 114.40625 49.058594 113.839844 48.101562 C 113.097656 46.871094 111.847656 46.734375 111.320312 46.734375 C 109.386719 46.734375 107.765625 48.589844 107.765625 50.914062 C 107.765625 53.296875 109.484375 55.132812 111.574219 55.132812 C 112.394531 55.132812 113.390625 54.898438 114.367188 54.195312 C 114.367188 54.117188 114.308594 53.550781 114.308594 53.53125 C 114.289062 53.511719 114.269531 53.101562 114.269531 53.042969 C 113.195312 53.941406 112.140625 54.058594 111.613281 54.058594 C 110.226562 54.058594 109.035156 52.828125 109.015625 50.914062 Z M 109.113281 49.957031 C 109.425781 48.746094 110.265625 47.808594 111.320312 47.808594 C 111.886719 47.808594 113.117188 48.0625 113.410156 49.957031 Z M 109.113281 49.957031 "/>
<path style=" stroke:none;fill-rule:nonzero;fill:rgb(0%,0%,0%);fill-opacity:1;" d="M 121 47.28125 C 119.867188 46.753906 118.890625 46.734375 118.480469 46.734375 C 118.070312 46.734375 115.570312 46.734375 115.570312 49.058594 C 115.570312 49.839844 116 50.386719 116.273438 50.640625 C 116.917969 51.1875 117.367188 51.285156 118.421875 51.5 C 119.027344 51.617188 120.0625 51.832031 120.0625 52.789062 C 120.0625 54.019531 118.65625 54.019531 118.402344 54.019531 C 117.699219 54.019531 116.644531 53.824219 115.6875 53.121094 L 115.472656 54.351562 C 115.550781 54.410156 116.78125 55.132812 118.421875 55.132812 C 120.746094 55.132812 121.292969 53.746094 121.292969 52.671875 C 121.292969 51.773438 120.746094 51.1875 120.667969 51.109375 C 120.003906 50.425781 119.457031 50.308594 118.382812 50.09375 C 117.71875 49.976562 116.820312 49.800781 116.820312 48.902344 C 116.820312 47.789062 118.070312 47.789062 118.304688 47.789062 C 119.242188 47.789062 120.003906 48.003906 120.785156 48.453125 Z M 121 47.28125 "/>
<path style="fill:none;stroke-width:1;stroke-linecap:butt;stroke-linejoin:miter;stroke:rgb(0%,0%,0%);stroke-opacity:1;stroke-miterlimit:10;" d="M -0.193 0.158502 L 96.807 0.158502 " transform="matrix(1.25,0,0,-1.25,0.86625,60.95594)"/>
</g>
</svg>
