<?xml version="1.0" encoding="UTF-8"?>
<svg xmlns="http://www.w3.org/2000/svg" xmlns:xlink="http://www.w3.org/1999/xlink" width="277.23672pt" height="81.685066pt" viewBox="0 0 277.23672 81.685066" version="1.1">
<g id="surface1">
<path style=" stroke:none;fill-rule:nonzero;fill:rgb(0%,0%,0%);fill-opacity:1;" d="M 63.667969 12.148438 L 62.125 12.148438 L 62.125 24.589844 L 63.667969 24.589844 Z M 63.667969 12.148438 "/>
<path style=" stroke:none;fill-rule:nonzero;fill:rgb(0%,0%,0%);fill-opacity:1;" d="M 68.410156 17.675781 L 70.324219 17.675781 L 70.324219 16.621094 L 68.371094 16.621094 L 68.371094 14.472656 C 68.371094 13.261719 69.386719 13.046875 69.992188 13.046875 C 70.617188 13.046875 71.164062 13.242188 71.378906 13.320312 L 71.378906 12.148438 C 71.261719 12.109375 70.65625 11.972656 70.011719 11.972656 C 68.292969 11.972656 67.082031 13.28125 67.082031 15.019531 L 67.082031 16.621094 L 65.773438 16.621094 L 65.773438 17.675781 L 67.082031 17.675781 L 67.082031 24.589844 L 68.410156 24.589844 Z M 68.410156 17.675781 "/>
<path style=" stroke:none;fill-rule:nonzero;fill:rgb(0%,0%,0%);fill-opacity:1;" d="M 78.6875 23.144531 C 79.449219 22.265625 80.074219 21.699219 80.972656 20.898438 C 82.046875 19.960938 82.515625 19.511719 82.769531 19.238281 C 84.019531 18.007812 84.644531 16.972656 84.644531 16.835938 C 84.644531 16.679688 84.507812 16.679688 84.46875 16.679688 C 84.351562 16.679688 84.3125 16.757812 84.214844 16.875 C 83.765625 17.65625 83.335938 18.027344 82.867188 18.027344 C 82.496094 18.027344 82.300781 17.871094 81.96875 17.441406 C 81.578125 16.992188 81.285156 16.679688 80.757812 16.679688 C 79.449219 16.679688 78.667969 18.320312 78.667969 18.691406 C 78.667969 18.75 78.6875 18.847656 78.84375 18.847656 C 78.980469 18.847656 79 18.789062 79.058594 18.652344 C 79.351562 17.929688 80.230469 17.8125 80.5625 17.8125 C 80.933594 17.8125 81.304688 17.929688 81.675781 18.105469 C 82.359375 18.378906 82.632812 18.378906 82.828125 18.378906 C 82.945312 18.378906 83.023438 18.378906 83.101562 18.359375 C 82.515625 19.0625 81.539062 19.921875 80.738281 20.664062 L 78.921875 22.324219 C 77.828125 23.4375 77.164062 24.492188 77.164062 24.628906 C 77.164062 24.726562 77.261719 24.765625 77.378906 24.765625 C 77.476562 24.765625 77.496094 24.746094 77.613281 24.53125 C 77.90625 24.082031 78.472656 23.417969 79.136719 23.417969 C 79.527344 23.417969 79.703125 23.554688 80.054688 24.003906 C 80.40625 24.394531 80.699219 24.765625 81.285156 24.765625 C 83.042969 24.765625 84.039062 22.5 84.039062 22.070312 C 84.039062 22.011719 84.019531 21.894531 83.84375 21.894531 C 83.707031 21.894531 83.6875 21.972656 83.628906 22.148438 C 83.238281 23.203125 82.183594 23.632812 81.480469 23.632812 C 81.109375 23.632812 80.738281 23.515625 80.367188 23.359375 C 79.644531 23.066406 79.449219 23.066406 79.214844 23.066406 C 79.039062 23.066406 78.84375 23.066406 78.6875 23.144531 Z M 78.6875 23.144531 "/>
<path style=" stroke:none;fill-rule:nonzero;fill:rgb(0%,0%,0%);fill-opacity:1;" d="M 102.460938 18.789062 C 102.714844 18.789062 103.027344 18.789062 103.027344 18.457031 C 103.027344 18.125 102.714844 18.125 102.460938 18.125 L 91.894531 18.125 C 91.640625 18.125 91.328125 18.125 91.328125 18.4375 C 91.328125 18.789062 91.621094 18.789062 91.894531 18.789062 Z M 102.460938 22.109375 C 102.714844 22.109375 103.027344 22.109375 103.027344 21.796875 C 103.027344 21.445312 102.714844 21.445312 102.460938 21.445312 L 91.894531 21.445312 C 91.640625 21.445312 91.328125 21.445312 91.328125 21.777344 C 91.328125 22.109375 91.621094 22.109375 91.894531 22.109375 Z M 102.460938 22.109375 "/>
<path style=" stroke:none;fill-rule:nonzero;fill:rgb(0%,0%,0%);fill-opacity:1;" d="M 114.773438 28.945312 C 114.773438 28.886719 114.773438 28.847656 114.480469 28.554688 C 112.683594 26.738281 111.6875 23.789062 111.6875 20.117188 C 111.6875 16.640625 112.527344 13.652344 114.597656 11.542969 C 114.773438 11.367188 114.773438 11.347656 114.773438 11.289062 C 114.773438 11.171875 114.695312 11.152344 114.617188 11.152344 C 114.382812 11.152344 112.917969 12.441406 112.039062 14.199219 C 111.121094 15.996094 110.710938 17.929688 110.710938 20.117188 C 110.710938 21.71875 110.964844 23.847656 111.902344 25.78125 C 112.957031 27.929688 114.421875 29.082031 114.617188 29.082031 C 114.695312 29.082031 114.773438 29.0625 114.773438 28.945312 Z M 114.773438 28.945312 "/>
<path style=" stroke:none;fill-rule:nonzero;fill:rgb(0%,0%,0%);fill-opacity:1;" d="M 121.242188 22.460938 C 121.164062 22.753906 121.164062 22.792969 120.910156 23.144531 C 120.519531 23.632812 119.71875 24.414062 118.878906 24.414062 C 118.15625 24.414062 117.726562 23.75 117.726562 22.695312 C 117.726562 21.699219 118.292969 19.6875 118.625 18.945312 C 119.25 17.695312 120.089844 17.050781 120.773438 17.050781 C 121.964844 17.050781 122.199219 18.515625 122.199219 18.652344 C 122.199219 18.671875 122.140625 18.90625 122.121094 18.945312 Z M 122.394531 17.871094 C 122.199219 17.402344 121.710938 16.679688 120.773438 16.679688 C 118.761719 16.679688 116.574219 19.296875 116.574219 21.953125 C 116.574219 23.730469 117.609375 24.765625 118.820312 24.765625 C 119.816406 24.765625 120.65625 24.003906 121.164062 23.398438 C 121.339844 24.472656 122.179688 24.765625 122.726562 24.765625 C 123.253906 24.765625 123.683594 24.453125 124.015625 23.808594 C 124.289062 23.183594 124.542969 22.089844 124.542969 22.03125 C 124.542969 21.933594 124.484375 21.855469 124.367188 21.855469 C 124.210938 21.855469 124.191406 21.953125 124.113281 22.226562 C 123.839844 23.28125 123.507812 24.414062 122.765625 24.414062 C 122.257812 24.414062 122.21875 23.945312 122.21875 23.59375 C 122.21875 23.164062 122.277344 22.96875 122.433594 22.285156 C 122.550781 21.835938 122.648438 21.425781 122.785156 20.917969 C 123.449219 18.222656 123.605469 17.578125 123.605469 17.480469 C 123.605469 17.226562 123.410156 17.03125 123.15625 17.03125 C 122.570312 17.03125 122.433594 17.65625 122.394531 17.871094 Z M 122.394531 17.871094 "/>
<path style=" stroke:none;fill-rule:nonzero;fill:rgb(0%,0%,0%);fill-opacity:1;" d="M 133.5 17.265625 C 132.933594 17.382812 132.71875 17.8125 132.71875 18.144531 C 132.71875 18.574219 133.050781 18.730469 133.304688 18.730469 C 133.851562 18.730469 134.222656 18.261719 134.222656 17.773438 C 134.222656 17.03125 133.363281 16.679688 132.601562 16.679688 C 131.507812 16.679688 130.902344 17.753906 130.746094 18.105469 C 130.335938 16.757812 129.222656 16.679688 128.890625 16.679688 C 127.074219 16.679688 126.097656 19.023438 126.097656 19.433594 C 126.097656 19.492188 126.175781 19.589844 126.292969 19.589844 C 126.429688 19.589844 126.46875 19.472656 126.507812 19.414062 C 127.113281 17.421875 128.324219 17.050781 128.832031 17.050781 C 129.652344 17.050781 129.808594 17.792969 129.808594 18.222656 C 129.808594 18.613281 129.710938 19.023438 129.476562 19.882812 L 128.871094 22.34375 C 128.617188 23.417969 128.089844 24.414062 127.132812 24.414062 C 127.054688 24.414062 126.605469 24.414062 126.214844 24.179688 C 126.859375 24.042969 127.015625 23.515625 127.015625 23.300781 C 127.015625 22.949219 126.742188 22.734375 126.410156 22.734375 C 125.980469 22.734375 125.511719 23.105469 125.511719 23.671875 C 125.511719 24.433594 126.351562 24.765625 127.113281 24.765625 C 127.972656 24.765625 128.597656 24.082031 128.96875 23.359375 C 129.261719 24.414062 130.140625 24.765625 130.804688 24.765625 C 132.640625 24.765625 133.617188 22.421875 133.617188 22.03125 C 133.617188 21.933594 133.539062 21.855469 133.421875 21.855469 C 133.265625 21.855469 133.246094 21.953125 133.207031 22.089844 C 132.71875 23.671875 131.664062 24.414062 130.863281 24.414062 C 130.238281 24.414062 129.90625 23.945312 129.90625 23.203125 C 129.90625 22.8125 129.964844 22.519531 130.257812 21.347656 L 130.882812 18.90625 C 131.15625 17.832031 131.761719 17.050781 132.582031 17.050781 C 132.621094 17.050781 133.128906 17.050781 133.5 17.265625 Z M 133.5 17.265625 "/>
<path style=" stroke:none;fill-rule:nonzero;fill:rgb(0%,0%,0%);fill-opacity:1;" d="M 146.25 20.449219 L 151.210938 20.449219 C 151.464844 20.449219 151.777344 20.449219 151.777344 20.117188 C 151.777344 19.785156 151.464844 19.785156 151.210938 19.785156 L 146.25 19.785156 L 146.25 14.84375 C 146.25 14.589844 146.25 14.257812 145.9375 14.257812 C 145.585938 14.257812 145.585938 14.570312 145.585938 14.84375 L 145.585938 19.785156 L 140.644531 19.785156 C 140.390625 19.785156 140.078125 19.785156 140.078125 20.117188 C 140.078125 20.449219 140.371094 20.449219 140.644531 20.449219 L 145.585938 20.449219 L 145.585938 25.390625 C 145.585938 25.644531 145.585938 25.976562 145.917969 25.976562 C 146.25 25.976562 146.25 25.664062 146.25 25.390625 Z M 146.25 20.449219 "/>
<path style=" stroke:none;fill-rule:nonzero;fill:rgb(0%,0%,0%);fill-opacity:1;" d="M 160.792969 12.597656 C 160.8125 12.519531 160.851562 12.421875 160.851562 12.324219 C 160.851562 12.148438 160.675781 12.148438 160.636719 12.148438 C 160.617188 12.148438 159.972656 12.207031 159.640625 12.226562 C 159.347656 12.246094 159.074219 12.285156 158.742188 12.304688 C 158.3125 12.34375 158.195312 12.363281 158.195312 12.675781 C 158.195312 12.871094 158.371094 12.871094 158.546875 12.871094 C 159.464844 12.871094 159.464844 13.027344 159.464844 13.203125 C 159.464844 13.320312 159.328125 13.847656 159.25 14.179688 L 158.820312 15.898438 C 158.644531 16.601562 157.628906 20.683594 157.550781 20.996094 C 157.453125 21.445312 157.453125 21.757812 157.453125 21.992188 C 157.453125 23.828125 158.488281 24.765625 159.640625 24.765625 C 161.730469 24.765625 163.878906 22.089844 163.878906 19.492188 C 163.878906 17.851562 162.941406 16.679688 161.59375 16.679688 C 160.675781 16.679688 159.816406 17.460938 159.484375 17.8125 Z M 159.660156 24.414062 C 159.09375 24.414062 158.46875 23.984375 158.46875 22.578125 C 158.46875 21.992188 158.507812 21.640625 158.839844 20.390625 C 158.898438 20.15625 159.171875 19.023438 159.25 18.789062 C 159.289062 18.632812 160.34375 17.050781 161.574219 17.050781 C 162.355469 17.050781 162.707031 17.832031 162.707031 18.769531 C 162.707031 19.628906 162.21875 21.640625 161.769531 22.578125 C 161.320312 23.554688 160.480469 24.414062 159.660156 24.414062 Z M 159.660156 24.414062 "/>
<path style=" stroke:none;fill-rule:nonzero;fill:rgb(0%,0%,0%);fill-opacity:1;" d="M 169.210938 20.117188 C 169.210938 18.769531 169.035156 16.542969 168.019531 14.453125 C 166.964844 12.304688 165.5 11.152344 165.304688 11.152344 C 165.226562 11.152344 165.128906 11.171875 165.128906 11.289062 C 165.128906 11.347656 165.128906 11.367188 165.441406 11.679688 C 167.238281 13.496094 168.234375 16.445312 168.234375 20.117188 C 168.234375 23.59375 167.394531 26.582031 165.324219 28.691406 C 165.128906 28.847656 165.128906 28.886719 165.128906 28.945312 C 165.128906 29.0625 165.226562 29.082031 165.304688 29.082031 C 165.539062 29.082031 167.003906 27.792969 167.882812 26.035156 C 168.800781 24.21875 169.210938 22.285156 169.210938 20.117188 Z M 169.210938 20.117188 "/>
<path style=" stroke:none;fill-rule:nonzero;fill:rgb(0%,0%,0%);fill-opacity:1;" d="M 179.820312 17.675781 L 182.300781 17.675781 L 182.300781 16.621094 L 179.820312 16.621094 L 179.820312 14.355469 L 178.589844 14.355469 L 178.589844 16.621094 L 177.085938 16.621094 L 177.085938 17.675781 L 178.550781 17.675781 L 178.550781 22.5 C 178.550781 23.535156 178.785156 24.765625 180.015625 24.765625 C 181.226562 24.765625 182.046875 24.355469 182.59375 24.0625 L 182.320312 23.027344 C 181.695312 23.59375 181.03125 23.652344 180.71875 23.652344 C 179.917969 23.652344 179.820312 22.8125 179.820312 22.1875 Z M 179.820312 17.675781 "/>
<path style=" stroke:none;fill-rule:nonzero;fill:rgb(0%,0%,0%);fill-opacity:1;" d="M 190.652344 19.199219 C 190.652344 18.105469 190.417969 16.445312 188.25 16.445312 C 187.019531 16.445312 186.199219 17.148438 185.769531 17.695312 L 185.769531 12.148438 L 184.441406 12.148438 L 184.441406 24.589844 L 185.789062 24.589844 L 185.789062 20.117188 C 185.789062 19.023438 186.21875 17.519531 187.566406 17.519531 C 189.246094 17.519531 189.285156 18.691406 189.285156 19.316406 L 189.285156 24.589844 L 190.652344 24.589844 Z M 190.652344 19.199219 "/>
<path style=" stroke:none;fill-rule:nonzero;fill:rgb(0%,0%,0%);fill-opacity:1;" d="M 199.359375 20.546875 C 199.359375 19.785156 199.28125 18.691406 198.714844 17.734375 C 197.972656 16.503906 196.722656 16.367188 196.195312 16.367188 C 194.261719 16.367188 192.640625 18.222656 192.640625 20.546875 C 192.640625 22.929688 194.359375 24.765625 196.449219 24.765625 C 197.269531 24.765625 198.265625 24.53125 199.242188 23.828125 C 199.242188 23.75 199.183594 23.183594 199.183594 23.164062 C 199.164062 23.144531 199.144531 22.734375 199.144531 22.675781 C 198.070312 23.574219 197.015625 23.691406 196.488281 23.691406 C 195.101562 23.691406 193.910156 22.460938 193.890625 20.546875 Z M 193.988281 19.589844 C 194.300781 18.378906 195.140625 17.441406 196.195312 17.441406 C 196.761719 17.441406 197.992188 17.695312 198.285156 19.589844 Z M 193.988281 19.589844 "/>
<path style=" stroke:none;fill-rule:nonzero;fill:rgb(0%,0%,0%);fill-opacity:1;" d="M 207.449219 19.199219 C 207.449219 18.105469 207.214844 16.445312 205.046875 16.445312 C 204.050781 16.445312 203.191406 16.894531 202.507812 17.753906 L 202.507812 16.542969 L 201.238281 16.542969 L 201.238281 24.589844 L 202.585938 24.589844 L 202.585938 20.117188 C 202.585938 19.023438 203.015625 17.519531 204.363281 17.519531 C 206.042969 17.519531 206.082031 18.691406 206.082031 19.316406 L 206.082031 24.589844 L 207.449219 24.589844 Z M 207.449219 19.199219 "/>
<path style=" stroke:none;fill-rule:nonzero;fill:rgb(0%,0%,0%);fill-opacity:1;" d="M 223.875 12.597656 C 223.894531 12.519531 223.933594 12.421875 223.933594 12.324219 C 223.933594 12.148438 223.738281 12.148438 223.699219 12.148438 C 223.699219 12.148438 222.820312 12.226562 222.722656 12.226562 C 222.410156 12.246094 222.15625 12.285156 221.824219 12.304688 C 221.375 12.34375 221.257812 12.363281 221.257812 12.675781 C 221.257812 12.871094 221.394531 12.871094 221.648438 12.871094 C 222.527344 12.871094 222.546875 13.027344 222.546875 13.203125 C 222.546875 13.320312 222.507812 13.457031 222.488281 13.515625 L 221.394531 17.871094 C 221.199219 17.402344 220.710938 16.679688 219.773438 16.679688 C 217.761719 16.679688 215.574219 19.296875 215.574219 21.953125 C 215.574219 23.730469 216.609375 24.765625 217.820312 24.765625 C 218.816406 24.765625 219.65625 24.003906 220.164062 23.398438 C 220.339844 24.472656 221.179688 24.765625 221.726562 24.765625 C 222.253906 24.765625 222.683594 24.453125 223.015625 23.808594 C 223.289062 23.183594 223.542969 22.089844 223.542969 22.03125 C 223.542969 21.933594 223.484375 21.855469 223.367188 21.855469 C 223.210938 21.855469 223.191406 21.953125 223.113281 22.226562 C 222.839844 23.28125 222.507812 24.414062 221.765625 24.414062 C 221.257812 24.414062 221.21875 23.945312 221.21875 23.59375 C 221.21875 23.515625 221.21875 23.144531 221.335938 22.636719 Z M 220.242188 22.460938 C 220.164062 22.753906 220.164062 22.792969 219.910156 23.144531 C 219.519531 23.632812 218.71875 24.414062 217.878906 24.414062 C 217.15625 24.414062 216.726562 23.75 216.726562 22.695312 C 216.726562 21.699219 217.292969 19.6875 217.625 18.945312 C 218.25 17.695312 219.089844 17.050781 219.773438 17.050781 C 220.964844 17.050781 221.199219 18.515625 221.199219 18.652344 C 221.199219 18.671875 221.140625 18.90625 221.121094 18.945312 Z M 220.242188 22.460938 "/>
<path style=" stroke:none;fill-rule:nonzero;fill:rgb(0%,0%,0%);fill-opacity:1;" d="M 232.5 17.265625 C 231.933594 17.382812 231.71875 17.8125 231.71875 18.144531 C 231.71875 18.574219 232.050781 18.730469 232.304688 18.730469 C 232.851562 18.730469 233.222656 18.261719 233.222656 17.773438 C 233.222656 17.03125 232.363281 16.679688 231.601562 16.679688 C 230.507812 16.679688 229.902344 17.753906 229.746094 18.105469 C 229.335938 16.757812 228.222656 16.679688 227.890625 16.679688 C 226.074219 16.679688 225.097656 19.023438 225.097656 19.433594 C 225.097656 19.492188 225.175781 19.589844 225.292969 19.589844 C 225.429688 19.589844 225.46875 19.472656 225.507812 19.414062 C 226.113281 17.421875 227.324219 17.050781 227.832031 17.050781 C 228.652344 17.050781 228.808594 17.792969 228.808594 18.222656 C 228.808594 18.613281 228.710938 19.023438 228.476562 19.882812 L 227.871094 22.34375 C 227.617188 23.417969 227.089844 24.414062 226.132812 24.414062 C 226.054688 24.414062 225.605469 24.414062 225.214844 24.179688 C 225.859375 24.042969 226.015625 23.515625 226.015625 23.300781 C 226.015625 22.949219 225.742188 22.734375 225.410156 22.734375 C 224.980469 22.734375 224.511719 23.105469 224.511719 23.671875 C 224.511719 24.433594 225.351562 24.765625 226.113281 24.765625 C 226.972656 24.765625 227.597656 24.082031 227.96875 23.359375 C 228.261719 24.414062 229.140625 24.765625 229.804688 24.765625 C 231.640625 24.765625 232.617188 22.421875 232.617188 22.03125 C 232.617188 21.933594 232.539062 21.855469 232.421875 21.855469 C 232.265625 21.855469 232.246094 21.953125 232.207031 22.089844 C 231.71875 23.671875 230.664062 24.414062 229.863281 24.414062 C 229.238281 24.414062 228.90625 23.945312 228.90625 23.203125 C 228.90625 22.8125 228.964844 22.519531 229.257812 21.347656 L 229.882812 18.90625 C 230.15625 17.832031 230.761719 17.050781 231.582031 17.050781 C 231.621094 17.050781 232.128906 17.050781 232.5 17.265625 Z M 232.5 17.265625 "/>
<path style=" stroke:none;fill-rule:nonzero;fill:rgb(0%,0%,0%);fill-opacity:1;" d="M 250.960938 18.789062 C 251.214844 18.789062 251.527344 18.789062 251.527344 18.457031 C 251.527344 18.125 251.214844 18.125 250.960938 18.125 L 240.394531 18.125 C 240.140625 18.125 239.828125 18.125 239.828125 18.4375 C 239.828125 18.789062 240.121094 18.789062 240.394531 18.789062 Z M 250.960938 22.109375 C 251.214844 22.109375 251.527344 22.109375 251.527344 21.796875 C 251.527344 21.445312 251.214844 21.445312 250.960938 21.445312 L 240.394531 21.445312 C 240.140625 21.445312 239.828125 21.445312 239.828125 21.777344 C 239.828125 22.109375 240.121094 22.109375 240.394531 22.109375 Z M 250.960938 22.109375 "/>
<path style=" stroke:none;fill-rule:nonzero;fill:rgb(0%,0%,0%);fill-opacity:1;" d="M 268.125 0.449219 C 268.144531 0.371094 268.183594 0.273438 268.183594 0.175781 C 268.183594 0 267.988281 0 267.949219 0 C 267.949219 0 267.070312 0.078125 266.972656 0.078125 C 266.660156 0.0976562 266.40625 0.136719 266.074219 0.15625 C 265.625 0.195312 265.507812 0.214844 265.507812 0.527344 C 265.507812 0.722656 265.644531 0.722656 265.898438 0.722656 C 266.777344 0.722656 266.796875 0.878906 266.796875 1.054688 C 266.796875 1.171875 266.757812 1.308594 266.738281 1.367188 L 265.644531 5.722656 C 265.449219 5.253906 264.960938 4.53125 264.023438 4.53125 C 262.011719 4.53125 259.824219 7.148438 259.824219 9.804688 C 259.824219 11.582031 260.859375 12.617188 262.070312 12.617188 C 263.066406 12.617188 263.90625 11.855469 264.414062 11.25 C 264.589844 12.324219 265.429688 12.617188 265.976562 12.617188 C 266.503906 12.617188 266.933594 12.304688 267.265625 11.660156 C 267.539062 11.035156 267.792969 9.941406 267.792969 9.882812 C 267.792969 9.785156 267.734375 9.707031 267.617188 9.707031 C 267.460938 9.707031 267.441406 9.804688 267.363281 10.078125 C 267.089844 11.132812 266.757812 12.265625 266.015625 12.265625 C 265.507812 12.265625 265.46875 11.796875 265.46875 11.445312 C 265.46875 11.367188 265.46875 10.996094 265.585938 10.488281 Z M 264.492188 10.3125 C 264.414062 10.605469 264.414062 10.644531 264.160156 10.996094 C 263.769531 11.484375 262.96875 12.265625 262.128906 12.265625 C 261.40625 12.265625 260.976562 11.601562 260.976562 10.546875 C 260.976562 9.550781 261.542969 7.539062 261.875 6.796875 C 262.5 5.546875 263.339844 4.902344 264.023438 4.902344 C 265.214844 4.902344 265.449219 6.367188 265.449219 6.503906 C 265.449219 6.523438 265.390625 6.757812 265.371094 6.796875 Z M 264.492188 10.3125 "/>
<path style=" stroke:none;fill-rule:nonzero;fill:rgb(0%,0%,0%);fill-opacity:1;" d="M 270.539062 10.996094 C 271.300781 10.117188 271.925781 9.550781 272.824219 8.75 C 273.898438 7.8125 274.367188 7.363281 274.621094 7.089844 C 275.871094 5.859375 276.496094 4.824219 276.496094 4.6875 C 276.496094 4.53125 276.359375 4.53125 276.320312 4.53125 C 276.203125 4.53125 276.164062 4.609375 276.066406 4.726562 C 275.617188 5.507812 275.1875 5.878906 274.71875 5.878906 C 274.347656 5.878906 274.152344 5.722656 273.820312 5.292969 C 273.429688 4.84375 273.136719 4.53125 272.609375 4.53125 C 271.300781 4.53125 270.519531 6.171875 270.519531 6.542969 C 270.519531 6.601562 270.539062 6.699219 270.695312 6.699219 C 270.832031 6.699219 270.851562 6.640625 270.910156 6.503906 C 271.203125 5.78125 272.082031 5.664062 272.414062 5.664062 C 272.785156 5.664062 273.15625 5.78125 273.527344 5.957031 C 274.210938 6.230469 274.484375 6.230469 274.679688 6.230469 C 274.796875 6.230469 274.875 6.230469 274.953125 6.210938 C 274.367188 6.914062 273.390625 7.773438 272.589844 8.515625 L 270.773438 10.175781 C 269.679688 11.289062 269.015625 12.34375 269.015625 12.480469 C 269.015625 12.578125 269.113281 12.617188 269.230469 12.617188 C 269.328125 12.617188 269.347656 12.597656 269.464844 12.382812 C 269.757812 11.933594 270.324219 11.269531 270.988281 11.269531 C 271.378906 11.269531 271.554688 11.40625 271.90625 11.855469 C 272.257812 12.246094 272.550781 12.617188 273.136719 12.617188 C 274.894531 12.617188 275.890625 10.351562 275.890625 9.921875 C 275.890625 9.863281 275.871094 9.746094 275.695312 9.746094 C 275.558594 9.746094 275.539062 9.824219 275.480469 10 C 275.089844 11.054688 274.035156 11.484375 273.332031 11.484375 C 272.960938 11.484375 272.589844 11.367188 272.21875 11.210938 C 271.496094 10.917969 271.300781 10.917969 271.066406 10.917969 C 270.890625 10.917969 270.695312 10.917969 270.539062 10.996094 Z M 270.539062 10.996094 "/>
<path style=" stroke:none;fill-rule:nonzero;fill:rgb(0%,0%,0%);fill-opacity:1;" d="M 259.085938 19.65625 L 277.238281 19.65625 L 277.238281 20.40625 L 259.085938 20.40625 Z M 259.085938 19.65625 "/>
<path style=" stroke:none;fill-rule:nonzero;fill:rgb(0%,0%,0%);fill-opacity:1;" d="M 268.84375 34.761719 C 268.765625 35.054688 268.765625 35.09375 268.511719 35.445312 C 268.121094 35.933594 267.320312 36.714844 266.480469 36.714844 C 265.757812 36.714844 265.328125 36.050781 265.328125 34.996094 C 265.328125 34 265.894531 31.988281 266.226562 31.246094 C 266.851562 29.996094 267.691406 29.351562 268.375 29.351562 C 269.566406 29.351562 269.800781 30.816406 269.800781 30.953125 C 269.800781 30.972656 269.742188 31.207031 269.722656 31.246094 Z M 269.996094 30.171875 C 269.800781 29.703125 269.3125 28.980469 268.375 28.980469 C 266.363281 28.980469 264.175781 31.597656 264.175781 34.253906 C 264.175781 36.03125 265.210938 37.066406 266.421875 37.066406 C 267.417969 37.066406 268.257812 36.304688 268.765625 35.699219 C 268.941406 36.773438 269.78125 37.066406 270.328125 37.066406 C 270.855469 37.066406 271.285156 36.753906 271.617188 36.109375 C 271.890625 35.484375 272.144531 34.390625 272.144531 34.332031 C 272.144531 34.234375 272.085938 34.15625 271.96875 34.15625 C 271.8125 34.15625 271.792969 34.253906 271.714844 34.527344 C 271.441406 35.582031 271.109375 36.714844 270.367188 36.714844 C 269.859375 36.714844 269.820312 36.246094 269.820312 35.894531 C 269.820312 35.464844 269.878906 35.269531 270.035156 34.585938 C 270.152344 34.136719 270.25 33.726562 270.386719 33.21875 C 271.050781 30.523438 271.207031 29.878906 271.207031 29.78125 C 271.207031 29.527344 271.011719 29.332031 270.757812 29.332031 C 270.171875 29.332031 270.035156 29.957031 269.996094 30.171875 Z M 269.996094 30.171875 "/>
<path style=" stroke:none;fill-rule:nonzero;fill:rgb(0%,0%,0%);fill-opacity:1;" d="M 6.367188 58.929688 C 6.367188 58.402344 5.9375 57.972656 5.429688 57.972656 C 4.902344 57.972656 4.472656 58.402344 4.472656 58.929688 C 4.472656 59.4375 4.902344 59.867188 5.429688 59.867188 C 5.917969 59.867188 6.367188 59.457031 6.367188 58.929688 Z M 10.859375 66.683594 C 10.859375 66.175781 10.429688 65.746094 9.902344 65.746094 C 9.394531 65.746094 8.964844 66.175781 8.964844 66.683594 C 8.964844 67.210938 9.394531 67.640625 9.902344 67.640625 C 10.429688 67.640625 10.859375 67.210938 10.859375 66.683594 Z M 1.894531 66.683594 C 1.894531 66.175781 1.464844 65.746094 0.9375 65.746094 C 0.429688 65.746094 0 66.175781 0 66.683594 C 0 67.210938 0.429688 67.640625 0.9375 67.640625 C 1.464844 67.640625 1.894531 67.210938 1.894531 66.683594 Z M 1.894531 66.683594 "/>
<path style=" stroke:none;fill-rule:nonzero;fill:rgb(0%,0%,0%);fill-opacity:1;" d="M 23.003906 55.375 C 23.160156 54.75 23.199219 54.574219 24.507812 54.574219 C 24.898438 54.574219 25.035156 54.574219 25.035156 54.222656 C 25.035156 54.046875 24.839844 54.046875 24.800781 54.046875 C 24.46875 54.046875 24.078125 54.085938 23.746094 54.085938 L 21.539062 54.085938 C 21.1875 54.085938 20.777344 54.046875 20.425781 54.046875 C 20.269531 54.046875 20.074219 54.046875 20.074219 54.378906 C 20.074219 54.574219 20.230469 54.574219 20.582031 54.574219 C 21.695312 54.574219 21.695312 54.710938 21.695312 54.90625 C 21.695312 55.023438 21.65625 55.140625 21.617188 55.296875 L 19.195312 64.964844 C 19.039062 65.589844 19 65.765625 17.691406 65.765625 C 17.300781 65.765625 17.144531 65.765625 17.144531 66.117188 C 17.144531 66.292969 17.320312 66.292969 17.398438 66.292969 C 17.730469 66.292969 18.121094 66.253906 18.453125 66.253906 L 20.660156 66.253906 C 21.011719 66.253906 21.402344 66.292969 21.753906 66.292969 C 21.910156 66.292969 22.125 66.292969 22.125 65.960938 C 22.125 65.765625 22.007812 65.765625 21.617188 65.765625 C 20.503906 65.765625 20.503906 65.628906 20.503906 65.414062 C 20.503906 65.375 20.503906 65.296875 20.582031 65.003906 Z M 23.003906 55.375 "/>
<path style=" stroke:none;fill-rule:nonzero;fill:rgb(0%,0%,0%);fill-opacity:1;" d="M 42.613281 60.492188 C 42.867188 60.492188 43.179688 60.492188 43.179688 60.160156 C 43.179688 59.828125 42.867188 59.828125 42.613281 59.828125 L 32.046875 59.828125 C 31.792969 59.828125 31.480469 59.828125 31.480469 60.140625 C 31.480469 60.492188 31.773438 60.492188 32.046875 60.492188 Z M 42.613281 63.8125 C 42.867188 63.8125 43.179688 63.8125 43.179688 63.5 C 43.179688 63.148438 42.867188 63.148438 42.613281 63.148438 L 32.046875 63.148438 C 31.792969 63.148438 31.480469 63.148438 31.480469 63.480469 C 31.480469 63.8125 31.773438 63.8125 32.046875 63.8125 Z M 42.613281 63.8125 "/>
<path style=" stroke:none;fill-rule:nonzero;fill:rgb(0%,0%,0%);fill-opacity:1;" d="M 51.109375 80.863281 C 51.695312 80.84375 51.988281 80.433594 51.988281 80.003906 C 51.988281 79.398438 51.558594 79.125 51.128906 79.125 C 50.699219 79.125 50.25 79.378906 50.25 80.003906 C 50.25 80.921875 51.148438 81.683594 52.242188 81.683594 C 54.976562 81.683594 55.992188 77.484375 57.261719 72.289062 C 58.648438 66.625 59.820312 60.902344 60.777344 55.140625 C 61.441406 51.332031 62.105469 47.738281 62.710938 45.433594 C 62.925781 44.554688 63.550781 42.230469 64.234375 42.230469 C 64.800781 42.230469 65.25 42.582031 65.328125 42.640625 C 64.722656 42.679688 64.429688 43.070312 64.429688 43.519531 C 64.429688 44.125 64.878906 44.398438 65.289062 44.398438 C 65.71875 44.398438 66.167969 44.144531 66.167969 43.5 C 66.167969 42.542969 65.191406 41.839844 64.214844 41.839844 C 62.847656 41.839844 61.832031 43.792969 60.855469 47.445312 C 60.796875 47.640625 58.355469 56.644531 56.382812 68.382812 C 55.914062 71.117188 55.40625 74.105469 54.820312 76.605469 C 54.488281 77.914062 53.667969 81.292969 52.203125 81.292969 C 51.558594 81.292969 51.128906 80.863281 51.109375 80.863281 Z M 51.109375 80.863281 "/>
<path style=" stroke:none;fill-rule:nonzero;fill:rgb(0%,0%,0%);fill-opacity:1;" d="M 75.921875 70.648438 C 75.921875 70.589844 75.921875 70.550781 75.628906 70.257812 C 73.832031 68.441406 72.835938 65.492188 72.835938 61.820312 C 72.835938 58.34375 73.675781 55.355469 75.746094 53.246094 C 75.921875 53.070312 75.921875 53.050781 75.921875 52.992188 C 75.921875 52.875 75.84375 52.855469 75.765625 52.855469 C 75.53125 52.855469 74.066406 54.144531 73.1875 55.902344 C 72.269531 57.699219 71.859375 59.632812 71.859375 61.820312 C 71.859375 63.421875 72.113281 65.550781 73.050781 67.484375 C 74.105469 69.632812 75.570312 70.785156 75.765625 70.785156 C 75.84375 70.785156 75.921875 70.765625 75.921875 70.648438 Z M 75.921875 70.648438 "/>
<path style=" stroke:none;fill-rule:nonzero;fill:rgb(0%,0%,0%);fill-opacity:1;" d="M 82.394531 64.164062 C 82.316406 64.457031 82.316406 64.496094 82.0625 64.847656 C 81.671875 65.335938 80.871094 66.117188 80.03125 66.117188 C 79.308594 66.117188 78.878906 65.453125 78.878906 64.398438 C 78.878906 63.402344 79.445312 61.390625 79.777344 60.648438 C 80.402344 59.398438 81.242188 58.753906 81.925781 58.753906 C 83.117188 58.753906 83.351562 60.21875 83.351562 60.355469 C 83.351562 60.375 83.292969 60.609375 83.273438 60.648438 Z M 83.546875 59.574219 C 83.351562 59.105469 82.863281 58.382812 81.925781 58.382812 C 79.914062 58.382812 77.726562 61 77.726562 63.65625 C 77.726562 65.433594 78.761719 66.46875 79.972656 66.46875 C 80.96875 66.46875 81.808594 65.707031 82.316406 65.101562 C 82.492188 66.175781 83.332031 66.46875 83.878906 66.46875 C 84.40625 66.46875 84.835938 66.15625 85.167969 65.511719 C 85.441406 64.886719 85.695312 63.792969 85.695312 63.734375 C 85.695312 63.636719 85.636719 63.558594 85.519531 63.558594 C 85.363281 63.558594 85.34375 63.65625 85.265625 63.929688 C 84.992188 64.984375 84.660156 66.117188 83.917969 66.117188 C 83.410156 66.117188 83.371094 65.648438 83.371094 65.296875 C 83.371094 64.867188 83.429688 64.671875 83.585938 63.988281 C 83.703125 63.539062 83.800781 63.128906 83.9375 62.621094 C 84.601562 59.925781 84.757812 59.28125 84.757812 59.183594 C 84.757812 58.929688 84.5625 58.734375 84.308594 58.734375 C 83.722656 58.734375 83.585938 59.359375 83.546875 59.574219 Z M 83.546875 59.574219 "/>
<path style=" stroke:none;fill-rule:nonzero;fill:rgb(0%,0%,0%);fill-opacity:1;" d="M 94.648438 58.96875 C 94.082031 59.085938 93.867188 59.515625 93.867188 59.847656 C 93.867188 60.277344 94.199219 60.433594 94.453125 60.433594 C 95 60.433594 95.371094 59.964844 95.371094 59.476562 C 95.371094 58.734375 94.511719 58.382812 93.75 58.382812 C 92.65625 58.382812 92.050781 59.457031 91.894531 59.808594 C 91.484375 58.460938 90.371094 58.382812 90.039062 58.382812 C 88.222656 58.382812 87.246094 60.726562 87.246094 61.136719 C 87.246094 61.195312 87.324219 61.292969 87.441406 61.292969 C 87.578125 61.292969 87.617188 61.175781 87.65625 61.117188 C 88.261719 59.125 89.472656 58.753906 89.980469 58.753906 C 90.800781 58.753906 90.957031 59.496094 90.957031 59.925781 C 90.957031 60.316406 90.859375 60.726562 90.625 61.585938 L 90.019531 64.046875 C 89.765625 65.121094 89.238281 66.117188 88.28125 66.117188 C 88.203125 66.117188 87.753906 66.117188 87.363281 65.882812 C 88.007812 65.746094 88.164062 65.21875 88.164062 65.003906 C 88.164062 64.652344 87.890625 64.4375 87.558594 64.4375 C 87.128906 64.4375 86.660156 64.808594 86.660156 65.375 C 86.660156 66.136719 87.5 66.46875 88.261719 66.46875 C 89.121094 66.46875 89.746094 65.785156 90.117188 65.0625 C 90.410156 66.117188 91.289062 66.46875 91.953125 66.46875 C 93.789062 66.46875 94.765625 64.125 94.765625 63.734375 C 94.765625 63.636719 94.6875 63.558594 94.570312 63.558594 C 94.414062 63.558594 94.394531 63.65625 94.355469 63.792969 C 93.867188 65.375 92.8125 66.117188 92.011719 66.117188 C 91.386719 66.117188 91.054688 65.648438 91.054688 64.90625 C 91.054688 64.515625 91.113281 64.222656 91.40625 63.050781 L 92.03125 60.609375 C 92.304688 59.535156 92.910156 58.753906 93.730469 58.753906 C 93.769531 58.753906 94.277344 58.753906 94.648438 58.96875 Z M 94.648438 58.96875 "/>
<path style=" stroke:none;fill-rule:nonzero;fill:rgb(0%,0%,0%);fill-opacity:1;" d="M 107.25 62.152344 L 112.210938 62.152344 C 112.464844 62.152344 112.777344 62.152344 112.777344 61.820312 C 112.777344 61.488281 112.464844 61.488281 112.210938 61.488281 L 107.25 61.488281 L 107.25 56.546875 C 107.25 56.292969 107.25 55.960938 106.9375 55.960938 C 106.585938 55.960938 106.585938 56.273438 106.585938 56.546875 L 106.585938 61.488281 L 101.644531 61.488281 C 101.390625 61.488281 101.078125 61.488281 101.078125 61.820312 C 101.078125 62.152344 101.371094 62.152344 101.644531 62.152344 L 106.585938 62.152344 L 106.585938 67.09375 C 106.585938 67.347656 106.585938 67.679688 106.917969 67.679688 C 107.25 67.679688 107.25 67.367188 107.25 67.09375 Z M 107.25 62.152344 "/>
<path style=" stroke:none;fill-rule:nonzero;fill:rgb(0%,0%,0%);fill-opacity:1;" d="M 121.945312 54.300781 C 121.964844 54.222656 122.003906 54.125 122.003906 54.027344 C 122.003906 53.851562 121.828125 53.851562 121.789062 53.851562 C 121.769531 53.851562 121.125 53.910156 120.792969 53.929688 C 120.5 53.949219 120.226562 53.988281 119.894531 54.007812 C 119.464844 54.046875 119.347656 54.066406 119.347656 54.378906 C 119.347656 54.574219 119.523438 54.574219 119.699219 54.574219 C 120.617188 54.574219 120.617188 54.730469 120.617188 54.90625 C 120.617188 55.023438 120.480469 55.550781 120.402344 55.882812 L 119.972656 57.601562 C 119.796875 58.304688 118.78125 62.386719 118.703125 62.699219 C 118.605469 63.148438 118.605469 63.460938 118.605469 63.695312 C 118.605469 65.53125 119.640625 66.46875 120.792969 66.46875 C 122.882812 66.46875 125.03125 63.792969 125.03125 61.195312 C 125.03125 59.554688 124.09375 58.382812 122.746094 58.382812 C 121.828125 58.382812 120.96875 59.164062 120.636719 59.515625 Z M 120.8125 66.117188 C 120.246094 66.117188 119.621094 65.6875 119.621094 64.28125 C 119.621094 63.695312 119.660156 63.34375 119.992188 62.09375 C 120.050781 61.859375 120.324219 60.726562 120.402344 60.492188 C 120.441406 60.335938 121.496094 58.753906 122.726562 58.753906 C 123.507812 58.753906 123.859375 59.535156 123.859375 60.472656 C 123.859375 61.332031 123.371094 63.34375 122.921875 64.28125 C 122.472656 65.257812 121.632812 66.117188 120.8125 66.117188 Z M 120.8125 66.117188 "/>
<path style=" stroke:none;fill-rule:nonzero;fill:rgb(0%,0%,0%);fill-opacity:1;" d="M 130.363281 61.820312 C 130.363281 60.472656 130.1875 58.246094 129.171875 56.15625 C 128.117188 54.007812 126.652344 52.855469 126.457031 52.855469 C 126.378906 52.855469 126.28125 52.875 126.28125 52.992188 C 126.28125 53.050781 126.28125 53.070312 126.59375 53.382812 C 128.390625 55.199219 129.386719 58.148438 129.386719 61.820312 C 129.386719 65.296875 128.546875 68.285156 126.476562 70.394531 C 126.28125 70.550781 126.28125 70.589844 126.28125 70.648438 C 126.28125 70.765625 126.378906 70.785156 126.457031 70.785156 C 126.691406 70.785156 128.15625 69.496094 129.035156 67.738281 C 129.953125 65.921875 130.363281 63.988281 130.363281 61.820312 Z M 130.363281 61.820312 "/>
<path style=" stroke:none;fill-rule:nonzero;fill:rgb(0%,0%,0%);fill-opacity:1;" d="M 135.667969 53.195312 C 136.683594 52.863281 137.40625 52.003906 137.40625 51.007812 C 137.40625 49.992188 136.3125 49.289062 135.121094 49.289062 C 133.871094 49.289062 132.914062 50.03125 132.914062 50.988281 C 132.914062 51.398438 133.1875 51.632812 133.558594 51.632812 C 133.929688 51.632812 134.183594 51.359375 134.183594 50.988281 C 134.183594 50.382812 133.597656 50.382812 133.421875 50.382812 C 133.792969 49.757812 134.613281 49.601562 135.0625 49.601562 C 135.589844 49.601562 136.273438 49.875 136.273438 50.988281 C 136.273438 51.144531 136.234375 51.867188 135.921875 52.414062 C 135.550781 53.019531 135.121094 53.058594 134.808594 53.058594 C 134.710938 53.078125 134.417969 53.097656 134.320312 53.097656 C 134.222656 53.117188 134.144531 53.136719 134.144531 53.253906 C 134.144531 53.390625 134.222656 53.390625 134.4375 53.390625 L 134.984375 53.390625 C 136 53.390625 136.46875 54.230469 136.46875 55.460938 C 136.46875 57.160156 135.609375 57.511719 135.0625 57.511719 C 134.515625 57.511719 133.578125 57.296875 133.148438 56.574219 C 133.578125 56.632812 133.96875 56.359375 133.96875 55.890625 C 133.96875 55.441406 133.636719 55.1875 133.285156 55.1875 C 132.972656 55.1875 132.582031 55.363281 132.582031 55.910156 C 132.582031 57.042969 133.734375 57.863281 135.101562 57.863281 C 136.625 57.863281 137.757812 56.730469 137.757812 55.460938 C 137.757812 54.445312 136.957031 53.46875 135.667969 53.195312 Z M 135.667969 53.195312 "/>
<path style=" stroke:none;fill-rule:nonzero;fill:rgb(0%,0%,0%);fill-opacity:1;" d="M 146.289062 61.820312 C 146.289062 61.292969 145.859375 60.863281 145.351562 60.863281 C 144.824219 60.863281 144.394531 61.292969 144.394531 61.820312 C 144.394531 62.328125 144.824219 62.757812 145.351562 62.757812 C 145.859375 62.757812 146.289062 62.328125 146.289062 61.820312 Z M 146.289062 61.820312 "/>
<path style=" stroke:none;fill-rule:nonzero;fill:rgb(0%,0%,0%);fill-opacity:1;" d="M 160.875 54.300781 C 160.894531 54.222656 160.933594 54.125 160.933594 54.027344 C 160.933594 53.851562 160.738281 53.851562 160.699219 53.851562 C 160.699219 53.851562 159.820312 53.929688 159.722656 53.929688 C 159.410156 53.949219 159.15625 53.988281 158.824219 54.007812 C 158.375 54.046875 158.257812 54.066406 158.257812 54.378906 C 158.257812 54.574219 158.394531 54.574219 158.648438 54.574219 C 159.527344 54.574219 159.546875 54.730469 159.546875 54.90625 C 159.546875 55.023438 159.507812 55.160156 159.488281 55.21875 L 158.394531 59.574219 C 158.199219 59.105469 157.710938 58.382812 156.773438 58.382812 C 154.761719 58.382812 152.574219 61 152.574219 63.65625 C 152.574219 65.433594 153.609375 66.46875 154.820312 66.46875 C 155.816406 66.46875 156.65625 65.707031 157.164062 65.101562 C 157.339844 66.175781 158.179688 66.46875 158.726562 66.46875 C 159.253906 66.46875 159.683594 66.15625 160.015625 65.511719 C 160.289062 64.886719 160.542969 63.792969 160.542969 63.734375 C 160.542969 63.636719 160.484375 63.558594 160.367188 63.558594 C 160.210938 63.558594 160.191406 63.65625 160.113281 63.929688 C 159.839844 64.984375 159.507812 66.117188 158.765625 66.117188 C 158.257812 66.117188 158.21875 65.648438 158.21875 65.296875 C 158.21875 65.21875 158.21875 64.847656 158.335938 64.339844 Z M 157.242188 64.164062 C 157.164062 64.457031 157.164062 64.496094 156.910156 64.847656 C 156.519531 65.335938 155.71875 66.117188 154.878906 66.117188 C 154.15625 66.117188 153.726562 65.453125 153.726562 64.398438 C 153.726562 63.402344 154.292969 61.390625 154.625 60.648438 C 155.25 59.398438 156.089844 58.753906 156.773438 58.753906 C 157.964844 58.753906 158.199219 60.21875 158.199219 60.355469 C 158.199219 60.375 158.140625 60.609375 158.121094 60.648438 Z M 157.242188 64.164062 "/>
<path style=" stroke:none;fill-rule:nonzero;fill:rgb(0%,0%,0%);fill-opacity:1;" d="M 169.5 58.96875 C 168.933594 59.085938 168.71875 59.515625 168.71875 59.847656 C 168.71875 60.277344 169.050781 60.433594 169.304688 60.433594 C 169.851562 60.433594 170.222656 59.964844 170.222656 59.476562 C 170.222656 58.734375 169.363281 58.382812 168.601562 58.382812 C 167.507812 58.382812 166.902344 59.457031 166.746094 59.808594 C 166.335938 58.460938 165.222656 58.382812 164.890625 58.382812 C 163.074219 58.382812 162.097656 60.726562 162.097656 61.136719 C 162.097656 61.195312 162.175781 61.292969 162.292969 61.292969 C 162.429688 61.292969 162.46875 61.175781 162.507812 61.117188 C 163.113281 59.125 164.324219 58.753906 164.832031 58.753906 C 165.652344 58.753906 165.808594 59.496094 165.808594 59.925781 C 165.808594 60.316406 165.710938 60.726562 165.476562 61.585938 L 164.871094 64.046875 C 164.617188 65.121094 164.089844 66.117188 163.132812 66.117188 C 163.054688 66.117188 162.605469 66.117188 162.214844 65.882812 C 162.859375 65.746094 163.015625 65.21875 163.015625 65.003906 C 163.015625 64.652344 162.742188 64.4375 162.410156 64.4375 C 161.980469 64.4375 161.511719 64.808594 161.511719 65.375 C 161.511719 66.136719 162.351562 66.46875 163.113281 66.46875 C 163.972656 66.46875 164.597656 65.785156 164.96875 65.0625 C 165.261719 66.117188 166.140625 66.46875 166.804688 66.46875 C 168.640625 66.46875 169.617188 64.125 169.617188 63.734375 C 169.617188 63.636719 169.539062 63.558594 169.421875 63.558594 C 169.265625 63.558594 169.246094 63.65625 169.207031 63.792969 C 168.71875 65.375 167.664062 66.117188 166.863281 66.117188 C 166.238281 66.117188 165.90625 65.648438 165.90625 64.90625 C 165.90625 64.515625 165.964844 64.222656 166.257812 63.050781 L 166.882812 60.609375 C 167.15625 59.535156 167.761719 58.753906 168.582031 58.753906 C 168.621094 58.753906 169.128906 58.753906 169.5 58.96875 Z M 169.5 58.96875 "/>
<path style=" stroke:none;fill-rule:nonzero;fill:rgb(0%,0%,0%);fill-opacity:1;" d="M 188.113281 60.492188 C 188.367188 60.492188 188.679688 60.492188 188.679688 60.160156 C 188.679688 59.828125 188.367188 59.828125 188.113281 59.828125 L 177.546875 59.828125 C 177.292969 59.828125 176.980469 59.828125 176.980469 60.140625 C 176.980469 60.492188 177.273438 60.492188 177.546875 60.492188 Z M 188.113281 63.8125 C 188.367188 63.8125 188.679688 63.8125 188.679688 63.5 C 188.679688 63.148438 188.367188 63.148438 188.113281 63.148438 L 177.546875 63.148438 C 177.292969 63.148438 176.980469 63.148438 176.980469 63.480469 C 176.980469 63.8125 177.273438 63.8125 177.546875 63.8125 Z M 188.113281 63.8125 "/>
<path style=" stroke:none;fill-rule:nonzero;fill:rgb(0%,0%,0%);fill-opacity:1;" d="M 201.410156 42.65625 C 201.410156 42.226562 201.410156 42.226562 201.058594 42.226562 C 200.628906 42.695312 199.730469 43.359375 197.894531 43.359375 L 197.894531 43.886719 C 198.304688 43.886719 199.203125 43.886719 200.179688 43.417969 L 200.179688 52.753906 C 200.179688 53.398438 200.121094 53.613281 198.558594 53.613281 L 197.992188 53.613281 L 197.992188 54.140625 C 198.480469 54.101562 200.21875 54.101562 200.804688 54.101562 C 201.390625 54.101562 203.128906 54.101562 203.597656 54.140625 L 203.597656 53.613281 L 203.050781 53.613281 C 201.46875 53.613281 201.410156 53.398438 201.410156 52.753906 Z M 201.410156 42.65625 "/>
<path style=" stroke:none;fill-rule:nonzero;fill:rgb(0%,0%,0%);fill-opacity:1;" d="M 196.089844 61.355469 L 205.390625 61.355469 L 205.390625 62.105469 L 196.089844 62.105469 Z M 196.089844 61.355469 "/>
<path style=" stroke:none;fill-rule:nonzero;fill:rgb(0%,0%,0%);fill-opacity:1;" d="M 201.492188 76.460938 C 201.414062 76.753906 201.414062 76.792969 201.160156 77.144531 C 200.769531 77.632812 199.96875 78.414062 199.128906 78.414062 C 198.40625 78.414062 197.976562 77.75 197.976562 76.695312 C 197.976562 75.699219 198.542969 73.6875 198.875 72.945312 C 199.5 71.695312 200.339844 71.050781 201.023438 71.050781 C 202.214844 71.050781 202.449219 72.515625 202.449219 72.652344 C 202.449219 72.671875 202.390625 72.90625 202.371094 72.945312 Z M 202.644531 71.871094 C 202.449219 71.402344 201.960938 70.679688 201.023438 70.679688 C 199.011719 70.679688 196.824219 73.296875 196.824219 75.953125 C 196.824219 77.730469 197.859375 78.765625 199.070312 78.765625 C 200.066406 78.765625 200.90625 78.003906 201.414062 77.398438 C 201.589844 78.472656 202.429688 78.765625 202.976562 78.765625 C 203.503906 78.765625 203.933594 78.453125 204.265625 77.808594 C 204.539062 77.183594 204.792969 76.089844 204.792969 76.03125 C 204.792969 75.933594 204.734375 75.855469 204.617188 75.855469 C 204.460938 75.855469 204.441406 75.953125 204.363281 76.226562 C 204.089844 77.28125 203.757812 78.414062 203.015625 78.414062 C 202.507812 78.414062 202.46875 77.945312 202.46875 77.59375 C 202.46875 77.164062 202.527344 76.96875 202.683594 76.285156 C 202.800781 75.835938 202.898438 75.425781 203.035156 74.917969 C 203.699219 72.222656 203.855469 71.578125 203.855469 71.480469 C 203.855469 71.226562 203.660156 71.03125 203.40625 71.03125 C 202.820312 71.03125 202.683594 71.65625 202.644531 71.871094 Z M 202.644531 71.871094 "/>
<path style=" stroke:none;fill-rule:nonzero;fill:rgb(0%,0%,0%);fill-opacity:1;" d="M 211.609375 80.863281 C 212.195312 80.84375 212.488281 80.433594 212.488281 80.003906 C 212.488281 79.398438 212.058594 79.125 211.628906 79.125 C 211.199219 79.125 210.75 79.378906 210.75 80.003906 C 210.75 80.921875 211.648438 81.683594 212.742188 81.683594 C 215.476562 81.683594 216.492188 77.484375 217.761719 72.289062 C 219.148438 66.625 220.320312 60.902344 221.277344 55.140625 C 221.941406 51.332031 222.605469 47.738281 223.210938 45.433594 C 223.425781 44.554688 224.050781 42.230469 224.734375 42.230469 C 225.300781 42.230469 225.75 42.582031 225.828125 42.640625 C 225.222656 42.679688 224.929688 43.070312 224.929688 43.519531 C 224.929688 44.125 225.378906 44.398438 225.789062 44.398438 C 226.21875 44.398438 226.667969 44.144531 226.667969 43.5 C 226.667969 42.542969 225.691406 41.839844 224.714844 41.839844 C 223.347656 41.839844 222.332031 43.792969 221.355469 47.445312 C 221.296875 47.640625 218.855469 56.644531 216.882812 68.382812 C 216.414062 71.117188 215.90625 74.105469 215.320312 76.605469 C 214.988281 77.914062 214.167969 81.292969 212.703125 81.292969 C 212.058594 81.292969 211.628906 80.863281 211.609375 80.863281 Z M 211.609375 80.863281 "/>
<path style=" stroke:none;fill-rule:nonzero;fill:rgb(0%,0%,0%);fill-opacity:1;" d="M 233.039062 64.847656 C 233.800781 63.96875 234.425781 63.402344 235.324219 62.601562 C 236.398438 61.664062 236.867188 61.214844 237.121094 60.941406 C 238.371094 59.710938 238.996094 58.675781 238.996094 58.539062 C 238.996094 58.382812 238.859375 58.382812 238.820312 58.382812 C 238.703125 58.382812 238.664062 58.460938 238.566406 58.578125 C 238.117188 59.359375 237.6875 59.730469 237.21875 59.730469 C 236.847656 59.730469 236.652344 59.574219 236.320312 59.144531 C 235.929688 58.695312 235.636719 58.382812 235.109375 58.382812 C 233.800781 58.382812 233.019531 60.023438 233.019531 60.394531 C 233.019531 60.453125 233.039062 60.550781 233.195312 60.550781 C 233.332031 60.550781 233.351562 60.492188 233.410156 60.355469 C 233.703125 59.632812 234.582031 59.515625 234.914062 59.515625 C 235.285156 59.515625 235.65625 59.632812 236.027344 59.808594 C 236.710938 60.082031 236.984375 60.082031 237.179688 60.082031 C 237.296875 60.082031 237.375 60.082031 237.453125 60.0625 C 236.867188 60.765625 235.890625 61.625 235.089844 62.367188 L 233.273438 64.027344 C 232.179688 65.140625 231.515625 66.195312 231.515625 66.332031 C 231.515625 66.429688 231.613281 66.46875 231.730469 66.46875 C 231.828125 66.46875 231.847656 66.449219 231.964844 66.234375 C 232.257812 65.785156 232.824219 65.121094 233.488281 65.121094 C 233.878906 65.121094 234.054688 65.257812 234.40625 65.707031 C 234.757812 66.097656 235.050781 66.46875 235.636719 66.46875 C 237.394531 66.46875 238.390625 64.203125 238.390625 63.773438 C 238.390625 63.714844 238.371094 63.597656 238.195312 63.597656 C 238.058594 63.597656 238.039062 63.675781 237.980469 63.851562 C 237.589844 64.90625 236.535156 65.335938 235.832031 65.335938 C 235.460938 65.335938 235.089844 65.21875 234.71875 65.0625 C 233.996094 64.769531 233.800781 64.769531 233.566406 64.769531 C 233.390625 64.769531 233.195312 64.769531 233.039062 64.847656 Z M 233.039062 64.847656 "/>
<path style=" stroke:none;fill-rule:nonzero;fill:rgb(0%,0%,0%);fill-opacity:1;" d="M 243.214844 54.398438 C 244.230469 54.066406 244.953125 53.207031 244.953125 52.210938 C 244.953125 51.195312 243.859375 50.492188 242.667969 50.492188 C 241.417969 50.492188 240.460938 51.234375 240.460938 52.191406 C 240.460938 52.601562 240.734375 52.835938 241.105469 52.835938 C 241.476562 52.835938 241.730469 52.5625 241.730469 52.191406 C 241.730469 51.585938 241.144531 51.585938 240.96875 51.585938 C 241.339844 50.960938 242.160156 50.804688 242.609375 50.804688 C 243.136719 50.804688 243.820312 51.078125 243.820312 52.191406 C 243.820312 52.347656 243.78125 53.070312 243.46875 53.617188 C 243.097656 54.222656 242.667969 54.261719 242.355469 54.261719 C 242.257812 54.28125 241.964844 54.300781 241.867188 54.300781 C 241.769531 54.320312 241.691406 54.339844 241.691406 54.457031 C 241.691406 54.59375 241.769531 54.59375 241.984375 54.59375 L 242.53125 54.59375 C 243.546875 54.59375 244.015625 55.433594 244.015625 56.664062 C 244.015625 58.363281 243.15625 58.714844 242.609375 58.714844 C 242.0625 58.714844 241.125 58.5 240.695312 57.777344 C 241.125 57.835938 241.515625 57.5625 241.515625 57.09375 C 241.515625 56.644531 241.183594 56.390625 240.832031 56.390625 C 240.519531 56.390625 240.128906 56.566406 240.128906 57.113281 C 240.128906 58.246094 241.28125 59.066406 242.648438 59.066406 C 244.171875 59.066406 245.304688 57.933594 245.304688 56.664062 C 245.304688 55.648438 244.503906 54.671875 243.214844 54.398438 Z M 243.214844 54.398438 "/>
<path style=" stroke:none;fill-rule:nonzero;fill:rgb(0%,0%,0%);fill-opacity:1;" d="M 253.992188 61.820312 C 253.992188 61.292969 253.5625 60.863281 253.054688 60.863281 C 252.527344 60.863281 252.097656 61.292969 252.097656 61.820312 C 252.097656 62.328125 252.527344 62.757812 253.054688 62.757812 C 253.5625 62.757812 253.992188 62.328125 253.992188 61.820312 Z M 253.992188 61.820312 "/>
<path style=" stroke:none;fill-rule:nonzero;fill:rgb(0%,0%,0%);fill-opacity:1;" d="M 268.425781 54.300781 C 268.445312 54.222656 268.484375 54.125 268.484375 54.027344 C 268.484375 53.851562 268.289062 53.851562 268.25 53.851562 C 268.25 53.851562 267.371094 53.929688 267.273438 53.929688 C 266.960938 53.949219 266.707031 53.988281 266.375 54.007812 C 265.925781 54.046875 265.808594 54.066406 265.808594 54.378906 C 265.808594 54.574219 265.945312 54.574219 266.199219 54.574219 C 267.078125 54.574219 267.097656 54.730469 267.097656 54.90625 C 267.097656 55.023438 267.058594 55.160156 267.039062 55.21875 L 265.945312 59.574219 C 265.75 59.105469 265.261719 58.382812 264.324219 58.382812 C 262.3125 58.382812 260.125 61 260.125 63.65625 C 260.125 65.433594 261.160156 66.46875 262.371094 66.46875 C 263.367188 66.46875 264.207031 65.707031 264.714844 65.101562 C 264.890625 66.175781 265.730469 66.46875 266.277344 66.46875 C 266.804688 66.46875 267.234375 66.15625 267.566406 65.511719 C 267.839844 64.886719 268.09375 63.792969 268.09375 63.734375 C 268.09375 63.636719 268.035156 63.558594 267.917969 63.558594 C 267.761719 63.558594 267.742188 63.65625 267.664062 63.929688 C 267.390625 64.984375 267.058594 66.117188 266.316406 66.117188 C 265.808594 66.117188 265.769531 65.648438 265.769531 65.296875 C 265.769531 65.21875 265.769531 64.847656 265.886719 64.339844 Z M 264.792969 64.164062 C 264.714844 64.457031 264.714844 64.496094 264.460938 64.847656 C 264.070312 65.335938 263.269531 66.117188 262.429688 66.117188 C 261.707031 66.117188 261.277344 65.453125 261.277344 64.398438 C 261.277344 63.402344 261.84375 61.390625 262.175781 60.648438 C 262.800781 59.398438 263.640625 58.753906 264.324219 58.753906 C 265.515625 58.753906 265.75 60.21875 265.75 60.355469 C 265.75 60.375 265.691406 60.609375 265.671875 60.648438 Z M 264.792969 64.164062 "/>
<path style=" stroke:none;fill-rule:nonzero;fill:rgb(0%,0%,0%);fill-opacity:1;" d="M 270.839844 64.847656 C 271.601562 63.96875 272.226562 63.402344 273.125 62.601562 C 274.199219 61.664062 274.667969 61.214844 274.921875 60.941406 C 276.171875 59.710938 276.796875 58.675781 276.796875 58.539062 C 276.796875 58.382812 276.660156 58.382812 276.621094 58.382812 C 276.503906 58.382812 276.464844 58.460938 276.367188 58.578125 C 275.917969 59.359375 275.488281 59.730469 275.019531 59.730469 C 274.648438 59.730469 274.453125 59.574219 274.121094 59.144531 C 273.730469 58.695312 273.4375 58.382812 272.910156 58.382812 C 271.601562 58.382812 270.820312 60.023438 270.820312 60.394531 C 270.820312 60.453125 270.839844 60.550781 270.996094 60.550781 C 271.132812 60.550781 271.152344 60.492188 271.210938 60.355469 C 271.503906 59.632812 272.382812 59.515625 272.714844 59.515625 C 273.085938 59.515625 273.457031 59.632812 273.828125 59.808594 C 274.511719 60.082031 274.785156 60.082031 274.980469 60.082031 C 275.097656 60.082031 275.175781 60.082031 275.253906 60.0625 C 274.667969 60.765625 273.691406 61.625 272.890625 62.367188 L 271.074219 64.027344 C 269.980469 65.140625 269.316406 66.195312 269.316406 66.332031 C 269.316406 66.429688 269.414062 66.46875 269.53125 66.46875 C 269.628906 66.46875 269.648438 66.449219 269.765625 66.234375 C 270.058594 65.785156 270.625 65.121094 271.289062 65.121094 C 271.679688 65.121094 271.855469 65.257812 272.207031 65.707031 C 272.558594 66.097656 272.851562 66.46875 273.4375 66.46875 C 275.195312 66.46875 276.191406 64.203125 276.191406 63.773438 C 276.191406 63.714844 276.171875 63.597656 275.996094 63.597656 C 275.859375 63.597656 275.839844 63.675781 275.78125 63.851562 C 275.390625 64.90625 274.335938 65.335938 273.632812 65.335938 C 273.261719 65.335938 272.890625 65.21875 272.519531 65.0625 C 271.796875 64.769531 271.601562 64.769531 271.367188 64.769531 C 271.191406 64.769531 270.996094 64.769531 270.839844 64.847656 Z M 270.839844 64.847656 "/>
</g>
</svg>
