<?xml version="1.0" encoding="UTF-8"?>
<svg xmlns="http://www.w3.org/2000/svg" xmlns:xlink="http://www.w3.org/1999/xlink" width="179.08008pt" height="32.184277pt" viewBox="0 0 179.08008 32.184277" version="1.1">
<g id="surface1">
<path style=" stroke:none;fill-rule:nonzero;fill:rgb(0%,0%,0%);fill-opacity:1;" d="M 2.441406 17.890625 C 1.816406 18.945312 1.210938 19.316406 0.351562 19.355469 C 0.15625 19.375 0 19.375 0 19.707031 C 0 19.804688 0.0976562 19.882812 0.214844 19.882812 C 0.546875 19.882812 1.347656 19.84375 1.679688 19.84375 C 2.1875 19.84375 2.773438 19.882812 3.261719 19.882812 C 3.378906 19.882812 3.59375 19.882812 3.59375 19.550781 C 3.59375 19.375 3.4375 19.355469 3.339844 19.355469 C 2.929688 19.335938 2.578125 19.179688 2.578125 18.75 C 2.578125 18.496094 2.695312 18.300781 2.929688 17.910156 L 4.296875 15.644531 L 8.867188 15.644531 C 8.886719 15.820312 8.886719 15.957031 8.90625 16.113281 C 8.945312 16.582031 9.160156 18.457031 9.160156 18.789062 C 9.160156 19.335938 8.242188 19.355469 7.96875 19.355469 C 7.773438 19.355469 7.578125 19.355469 7.578125 19.6875 C 7.578125 19.882812 7.734375 19.882812 7.832031 19.882812 C 8.144531 19.882812 8.496094 19.84375 8.808594 19.84375 L 9.824219 19.84375 C 10.917969 19.84375 11.71875 19.882812 11.738281 19.882812 C 11.855469 19.882812 12.050781 19.882812 12.050781 19.550781 C 12.050781 19.355469 11.894531 19.355469 11.621094 19.355469 C 10.644531 19.355469 10.625 19.199219 10.566406 18.671875 L 9.472656 7.480469 C 9.433594 7.109375 9.355469 7.089844 9.160156 7.089844 C 8.984375 7.089844 8.886719 7.109375 8.710938 7.382812 Z M 4.589844 15.136719 L 8.203125 9.101562 L 8.808594 15.136719 Z M 4.589844 15.136719 "/>
<path style=" stroke:none;fill-rule:nonzero;fill:rgb(0%,0%,0%);fill-opacity:1;" d="M 23.792969 15.742188 L 28.753906 15.742188 C 29.007812 15.742188 29.320312 15.742188 29.320312 15.410156 C 29.320312 15.078125 29.007812 15.078125 28.753906 15.078125 L 23.792969 15.078125 L 23.792969 10.136719 C 23.792969 9.882812 23.792969 9.550781 23.480469 9.550781 C 23.128906 9.550781 23.128906 9.863281 23.128906 10.136719 L 23.128906 15.078125 L 18.1875 15.078125 C 17.933594 15.078125 17.621094 15.078125 17.621094 15.410156 C 17.621094 15.742188 17.914062 15.742188 18.1875 15.742188 L 23.128906 15.742188 L 23.128906 20.683594 C 23.128906 20.9375 23.128906 21.269531 23.460938 21.269531 C 23.792969 21.269531 23.792969 20.957031 23.792969 20.683594 Z M 23.792969 15.742188 "/>
<path style=" stroke:none;fill-rule:nonzero;fill:rgb(0%,0%,0%);fill-opacity:1;" d="M 37.242188 17.890625 C 36.617188 18.945312 36.011719 19.316406 35.152344 19.355469 C 34.957031 19.375 34.800781 19.375 34.800781 19.707031 C 34.800781 19.804688 34.898438 19.882812 35.015625 19.882812 C 35.347656 19.882812 36.148438 19.84375 36.480469 19.84375 C 36.988281 19.84375 37.574219 19.882812 38.0625 19.882812 C 38.179688 19.882812 38.394531 19.882812 38.394531 19.550781 C 38.394531 19.375 38.238281 19.355469 38.140625 19.355469 C 37.730469 19.335938 37.378906 19.179688 37.378906 18.75 C 37.378906 18.496094 37.496094 18.300781 37.730469 17.910156 L 39.097656 15.644531 L 43.667969 15.644531 C 43.6875 15.820312 43.6875 15.957031 43.707031 16.113281 C 43.746094 16.582031 43.960938 18.457031 43.960938 18.789062 C 43.960938 19.335938 43.042969 19.355469 42.769531 19.355469 C 42.574219 19.355469 42.378906 19.355469 42.378906 19.6875 C 42.378906 19.882812 42.535156 19.882812 42.632812 19.882812 C 42.945312 19.882812 43.296875 19.84375 43.609375 19.84375 L 44.625 19.84375 C 45.71875 19.84375 46.519531 19.882812 46.539062 19.882812 C 46.65625 19.882812 46.851562 19.882812 46.851562 19.550781 C 46.851562 19.355469 46.695312 19.355469 46.421875 19.355469 C 45.445312 19.355469 45.425781 19.199219 45.367188 18.671875 L 44.273438 7.480469 C 44.234375 7.109375 44.15625 7.089844 43.960938 7.089844 C 43.785156 7.089844 43.6875 7.109375 43.511719 7.382812 Z M 39.390625 15.136719 L 43.003906 9.101562 L 43.609375 15.136719 Z M 39.390625 15.136719 "/>
<path style=" stroke:none;fill-rule:nonzero;fill:rgb(0%,0%,0%);fill-opacity:1;" d="M 64.453125 14.082031 C 64.707031 14.082031 65.019531 14.082031 65.019531 13.75 C 65.019531 13.417969 64.707031 13.417969 64.453125 13.417969 L 53.886719 13.417969 C 53.632812 13.417969 53.320312 13.417969 53.320312 13.730469 C 53.320312 14.082031 53.613281 14.082031 53.886719 14.082031 Z M 64.453125 17.402344 C 64.707031 17.402344 65.019531 17.402344 65.019531 17.089844 C 65.019531 16.738281 64.707031 16.738281 64.453125 16.738281 L 53.886719 16.738281 C 53.632812 16.738281 53.320312 16.738281 53.320312 17.070312 C 53.320312 17.402344 53.613281 17.402344 53.886719 17.402344 Z M 64.453125 17.402344 "/>
<path style=" stroke:none;fill-rule:nonzero;fill:rgb(0%,0%,0%);fill-opacity:1;" d="M 75.59375 13.125 L 77.605469 13.125 C 77.136719 15.136719 76.824219 16.445312 76.824219 17.871094 C 76.824219 18.125 76.824219 20.058594 77.566406 20.058594 C 77.9375 20.058594 78.269531 19.726562 78.269531 19.414062 C 78.269531 19.335938 78.269531 19.296875 78.132812 19.023438 C 77.644531 17.792969 77.644531 16.25 77.644531 16.113281 C 77.644531 16.015625 77.644531 14.746094 78.035156 13.125 L 80.027344 13.125 C 80.261719 13.125 80.867188 13.125 80.867188 12.558594 C 80.867188 12.148438 80.515625 12.148438 80.203125 12.148438 L 74.304688 12.148438 C 73.894531 12.148438 73.269531 12.148438 72.449219 13.027344 C 71.980469 13.554688 71.414062 14.511719 71.414062 14.609375 C 71.414062 14.726562 71.492188 14.746094 71.609375 14.746094 C 71.726562 14.746094 71.746094 14.707031 71.84375 14.589844 C 72.78125 13.125 73.699219 13.125 74.148438 13.125 L 75.183594 13.125 C 74.773438 14.472656 74.34375 16.035156 72.859375 19.160156 C 72.722656 19.453125 72.722656 19.492188 72.722656 19.589844 C 72.722656 19.980469 73.035156 20.058594 73.210938 20.058594 C 73.71875 20.058594 73.875 19.589844 74.089844 18.847656 C 74.363281 17.929688 74.363281 17.890625 74.558594 17.167969 Z M 75.59375 13.125 "/>
<path style=" stroke:none;fill-rule:nonzero;fill:rgb(0%,0%,0%);fill-opacity:1;" d="M 103.753906 14.082031 C 104.007812 14.082031 104.320312 14.082031 104.320312 13.75 C 104.320312 13.417969 104.007812 13.417969 103.753906 13.417969 L 93.1875 13.417969 C 92.933594 13.417969 92.621094 13.417969 92.621094 13.730469 C 92.621094 14.082031 92.914062 14.082031 93.1875 14.082031 Z M 103.753906 17.402344 C 104.007812 17.402344 104.320312 17.402344 104.320312 17.089844 C 104.320312 16.738281 104.007812 16.738281 103.753906 16.738281 L 93.1875 16.738281 C 92.933594 16.738281 92.621094 16.738281 92.621094 17.070312 C 92.621094 17.402344 92.914062 17.402344 93.1875 17.402344 Z M 103.753906 17.402344 "/>
<path style=" stroke:none;fill-rule:nonzero;fill:rgb(0%,0%,0%);fill-opacity:1;" d="M 115.300781 14.023438 C 116.0625 14.667969 116.980469 15.136719 117.566406 15.410156 C 116.921875 15.683594 116.042969 16.152344 115.300781 16.777344 L 103.933594 16.777344 C 103.621094 16.777344 103.269531 16.777344 103.269531 17.148438 C 103.269531 17.5 103.601562 17.5 103.914062 17.5 L 114.5 17.5 C 113.640625 18.320312 112.703125 19.902344 112.703125 20.136719 C 112.703125 20.332031 112.9375 20.332031 113.054688 20.332031 C 113.191406 20.332031 113.328125 20.332031 113.386719 20.195312 C 113.777344 19.511719 114.265625 18.554688 115.4375 17.519531 C 116.667969 16.425781 117.878906 15.9375 118.796875 15.664062 C 119.109375 15.566406 119.128906 15.546875 119.167969 15.507812 C 119.207031 15.488281 119.207031 15.429688 119.207031 15.410156 C 119.207031 15.371094 119.207031 15.332031 119.1875 15.292969 L 119.128906 15.253906 C 119.089844 15.234375 119.070312 15.214844 118.738281 15.117188 C 116.316406 14.394531 114.519531 12.773438 113.523438 10.839844 C 113.328125 10.488281 113.308594 10.46875 113.054688 10.46875 C 112.9375 10.46875 112.703125 10.46875 112.703125 10.664062 C 112.703125 10.898438 113.621094 12.460938 114.5 13.300781 L 103.914062 13.300781 C 103.601562 13.300781 103.269531 13.300781 103.269531 13.652344 C 103.269531 14.023438 103.621094 14.023438 103.933594 14.023438 Z M 115.300781 14.023438 "/>
<path style=" stroke:none;fill-rule:nonzero;fill:rgb(0%,0%,0%);fill-opacity:1;" d="M 133.242188 17.890625 C 132.617188 18.945312 132.011719 19.316406 131.152344 19.355469 C 130.957031 19.375 130.800781 19.375 130.800781 19.707031 C 130.800781 19.804688 130.898438 19.882812 131.015625 19.882812 C 131.347656 19.882812 132.148438 19.84375 132.480469 19.84375 C 132.988281 19.84375 133.574219 19.882812 134.0625 19.882812 C 134.179688 19.882812 134.394531 19.882812 134.394531 19.550781 C 134.394531 19.375 134.238281 19.355469 134.140625 19.355469 C 133.730469 19.335938 133.378906 19.179688 133.378906 18.75 C 133.378906 18.496094 133.496094 18.300781 133.730469 17.910156 L 135.097656 15.644531 L 139.667969 15.644531 C 139.6875 15.820312 139.6875 15.957031 139.707031 16.113281 C 139.746094 16.582031 139.960938 18.457031 139.960938 18.789062 C 139.960938 19.335938 139.042969 19.355469 138.769531 19.355469 C 138.574219 19.355469 138.378906 19.355469 138.378906 19.6875 C 138.378906 19.882812 138.535156 19.882812 138.632812 19.882812 C 138.945312 19.882812 139.296875 19.84375 139.609375 19.84375 L 140.625 19.84375 C 141.71875 19.84375 142.519531 19.882812 142.539062 19.882812 C 142.65625 19.882812 142.851562 19.882812 142.851562 19.550781 C 142.851562 19.355469 142.695312 19.355469 142.421875 19.355469 C 141.445312 19.355469 141.425781 19.199219 141.367188 18.671875 L 140.273438 7.480469 C 140.234375 7.109375 140.15625 7.089844 139.960938 7.089844 C 139.785156 7.089844 139.6875 7.109375 139.511719 7.382812 Z M 135.390625 15.136719 L 139.003906 9.101562 L 139.609375 15.136719 Z M 135.390625 15.136719 "/>
<path style=" stroke:none;fill-rule:nonzero;fill:rgb(0%,0%,0%);fill-opacity:1;" d="M 160.453125 14.082031 C 160.707031 14.082031 161.019531 14.082031 161.019531 13.75 C 161.019531 13.417969 160.707031 13.417969 160.453125 13.417969 L 149.886719 13.417969 C 149.632812 13.417969 149.320312 13.417969 149.320312 13.730469 C 149.320312 14.082031 149.613281 14.082031 149.886719 14.082031 Z M 160.453125 17.402344 C 160.707031 17.402344 161.019531 17.402344 161.019531 17.089844 C 161.019531 16.738281 160.707031 16.738281 160.453125 16.738281 L 149.886719 16.738281 C 149.632812 16.738281 149.320312 16.738281 149.320312 17.070312 C 149.320312 17.402344 149.613281 17.402344 149.886719 17.402344 Z M 160.453125 17.402344 "/>
<path style=" stroke:none;fill-rule:nonzero;fill:rgb(0%,0%,0%);fill-opacity:1;" d="M 173.09375 0.976562 L 175.105469 0.976562 C 174.636719 2.988281 174.324219 4.296875 174.324219 5.722656 C 174.324219 5.976562 174.324219 7.910156 175.066406 7.910156 C 175.4375 7.910156 175.769531 7.578125 175.769531 7.265625 C 175.769531 7.1875 175.769531 7.148438 175.632812 6.875 C 175.144531 5.644531 175.144531 4.101562 175.144531 3.964844 C 175.144531 3.867188 175.144531 2.597656 175.535156 0.976562 L 177.527344 0.976562 C 177.761719 0.976562 178.367188 0.976562 178.367188 0.410156 C 178.367188 0 178.015625 0 177.703125 0 L 171.804688 0 C 171.394531 0 170.769531 0 169.949219 0.878906 C 169.480469 1.40625 168.914062 2.363281 168.914062 2.460938 C 168.914062 2.578125 168.992188 2.597656 169.109375 2.597656 C 169.226562 2.597656 169.246094 2.558594 169.34375 2.441406 C 170.28125 0.976562 171.199219 0.976562 171.648438 0.976562 L 172.683594 0.976562 C 172.273438 2.324219 171.84375 3.886719 170.359375 7.011719 C 170.222656 7.304688 170.222656 7.34375 170.222656 7.441406 C 170.222656 7.832031 170.535156 7.910156 170.710938 7.910156 C 171.21875 7.910156 171.375 7.441406 171.589844 6.699219 C 171.863281 5.78125 171.863281 5.742188 172.058594 5.019531 Z M 173.09375 0.976562 "/>
<path style=" stroke:none;fill-rule:nonzero;fill:rgb(0%,0%,0%);fill-opacity:1;" d="M 168.429688 14.949219 L 179.078125 14.949219 L 179.078125 15.703125 L 168.429688 15.703125 Z M 168.429688 14.949219 "/>
<path style=" stroke:none;fill-rule:nonzero;fill:rgb(0%,0%,0%);fill-opacity:1;" d="M 177.234375 29.175781 L 176.84375 29.175781 C 176.785156 29.46875 176.648438 30.464844 176.453125 30.757812 C 176.335938 30.914062 175.320312 30.914062 174.773438 30.914062 L 171.453125 30.914062 C 171.941406 30.503906 173.035156 29.351562 173.503906 28.921875 C 176.238281 26.402344 177.234375 25.484375 177.234375 23.707031 C 177.234375 21.636719 175.59375 20.269531 173.523438 20.269531 C 171.433594 20.269531 170.222656 22.027344 170.222656 23.570312 C 170.222656 24.488281 171.003906 24.488281 171.0625 24.488281 C 171.433594 24.488281 171.902344 24.214844 171.902344 23.648438 C 171.902344 23.140625 171.570312 22.808594 171.0625 22.808594 C 170.90625 22.808594 170.867188 22.808594 170.808594 22.828125 C 171.160156 21.597656 172.117188 20.777344 173.289062 20.777344 C 174.8125 20.777344 175.75 22.046875 175.75 23.707031 C 175.75 25.230469 174.871094 26.558594 173.835938 27.710938 L 170.222656 31.753906 L 170.222656 32.183594 L 176.765625 32.183594 Z M 177.234375 29.175781 "/>
</g>
</svg>
