<?xml version="1.0" encoding="UTF-8"?>
<svg xmlns="http://www.w3.org/2000/svg" xmlns:xlink="http://www.w3.org/1999/xlink" width="308.3614pt" height="93.331194pt" viewBox="0 0 308.3614 93.331194" version="1.1">
<g id="surface1">
<path style=" stroke:none;fill-rule:nonzero;fill:rgb(0%,0%,0%);fill-opacity:1;" d="M 1.679688 0.996094 L 0.136719 0.996094 L 0.136719 13.4375 L 1.679688 13.4375 Z M 1.679688 0.996094 "/>
<path style=" stroke:none;fill-rule:nonzero;fill:rgb(0%,0%,0%);fill-opacity:1;" d="M 6.421875 6.523438 L 8.335938 6.523438 L 8.335938 5.46875 L 6.382812 5.46875 L 6.382812 3.320312 C 6.382812 2.109375 7.398438 1.894531 8.003906 1.894531 C 8.628906 1.894531 9.175781 2.089844 9.390625 2.167969 L 9.390625 0.996094 C 9.273438 0.957031 8.667969 0.820312 8.023438 0.820312 C 6.304688 0.820312 5.09375 2.128906 5.09375 3.867188 L 5.09375 5.46875 L 3.785156 5.46875 L 3.785156 6.523438 L 5.09375 6.523438 L 5.09375 13.4375 L 6.421875 13.4375 Z M 6.421875 6.523438 "/>
<path style=" stroke:none;fill-rule:nonzero;fill:rgb(0%,0%,0%);fill-opacity:1;" d="M 18.996094 7.597656 L 20.714844 7.597656 C 22.082031 7.597656 22.179688 7.890625 22.179688 8.417969 C 22.179688 8.652344 22.140625 8.90625 22.0625 9.296875 C 22.023438 9.375 22.003906 9.453125 22.003906 9.492188 C 22.003906 9.609375 22.082031 9.6875 22.199219 9.6875 C 22.335938 9.6875 22.355469 9.609375 22.433594 9.335938 L 23.46875 5.15625 C 23.46875 5.078125 23.410156 4.980469 23.292969 4.980469 C 23.136719 4.980469 23.117188 5.039062 23.039062 5.351562 C 22.667969 6.699219 22.296875 7.070312 20.753906 7.070312 L 19.113281 7.070312 L 20.285156 2.421875 C 20.441406 1.796875 20.480469 1.738281 21.203125 1.738281 L 23.605469 1.738281 C 25.851562 1.738281 26.183594 2.402344 26.183594 3.691406 C 26.183594 3.789062 26.183594 4.179688 26.125 4.648438 C 26.105469 4.726562 26.066406 4.960938 26.066406 5.019531 C 26.066406 5.175781 26.164062 5.234375 26.261719 5.234375 C 26.398438 5.234375 26.457031 5.15625 26.496094 4.824219 L 26.886719 1.699219 C 26.886719 1.640625 26.90625 1.464844 26.90625 1.425781 C 26.90625 1.230469 26.75 1.230469 26.4375 1.230469 L 17.921875 1.230469 C 17.589844 1.230469 17.414062 1.230469 17.414062 1.542969 C 17.414062 1.738281 17.53125 1.738281 17.84375 1.738281 C 18.957031 1.738281 18.957031 1.875 18.957031 2.070312 C 18.957031 2.167969 18.9375 2.226562 18.878906 2.421875 L 16.457031 12.109375 C 16.300781 12.734375 16.261719 12.910156 15.011719 12.910156 C 14.660156 12.910156 14.484375 12.910156 14.484375 13.242188 C 14.484375 13.4375 14.640625 13.4375 14.757812 13.4375 C 15.089844 13.4375 15.460938 13.398438 15.792969 13.398438 L 18.136719 13.398438 C 18.527344 13.398438 18.957031 13.4375 19.347656 13.4375 C 19.503906 13.4375 19.71875 13.4375 19.71875 13.105469 C 19.71875 12.910156 19.621094 12.910156 19.230469 12.910156 C 17.804688 12.910156 17.765625 12.792969 17.765625 12.519531 C 17.765625 12.441406 17.804688 12.285156 17.84375 12.167969 Z M 18.996094 7.597656 "/>
<path style=" stroke:none;fill-rule:nonzero;fill:rgb(0%,0%,0%);fill-opacity:1;" d="M 33.285156 17.792969 C 33.285156 17.734375 33.285156 17.695312 32.992188 17.402344 C 31.195312 15.585938 30.199219 12.636719 30.199219 8.964844 C 30.199219 5.488281 31.039062 2.5 33.109375 0.390625 C 33.285156 0.214844 33.285156 0.195312 33.285156 0.136719 C 33.285156 0.0195312 33.207031 0 33.128906 0 C 32.894531 0 31.429688 1.289062 30.550781 3.046875 C 29.632812 4.84375 29.222656 6.777344 29.222656 8.964844 C 29.222656 10.566406 29.476562 12.695312 30.414062 14.628906 C 31.46875 16.777344 32.933594 17.929688 33.128906 17.929688 C 33.207031 17.929688 33.285156 17.910156 33.285156 17.792969 Z M 33.285156 17.792969 "/>
<path style=" stroke:none;fill-rule:nonzero;fill:rgb(0%,0%,0%);fill-opacity:1;" d="M 42.859375 6.113281 C 42.292969 6.230469 42.078125 6.660156 42.078125 6.992188 C 42.078125 7.421875 42.410156 7.578125 42.664062 7.578125 C 43.210938 7.578125 43.582031 7.109375 43.582031 6.621094 C 43.582031 5.878906 42.722656 5.527344 41.960938 5.527344 C 40.867188 5.527344 40.261719 6.601562 40.105469 6.953125 C 39.695312 5.605469 38.582031 5.527344 38.25 5.527344 C 36.433594 5.527344 35.457031 7.871094 35.457031 8.28125 C 35.457031 8.339844 35.535156 8.4375 35.652344 8.4375 C 35.789062 8.4375 35.828125 8.320312 35.867188 8.261719 C 36.472656 6.269531 37.683594 5.898438 38.191406 5.898438 C 39.011719 5.898438 39.167969 6.640625 39.167969 7.070312 C 39.167969 7.460938 39.070312 7.871094 38.835938 8.730469 L 38.230469 11.191406 C 37.976562 12.265625 37.449219 13.261719 36.492188 13.261719 C 36.414062 13.261719 35.964844 13.261719 35.574219 13.027344 C 36.21875 12.890625 36.375 12.363281 36.375 12.148438 C 36.375 11.796875 36.101562 11.582031 35.769531 11.582031 C 35.339844 11.582031 34.871094 11.953125 34.871094 12.519531 C 34.871094 13.28125 35.710938 13.613281 36.472656 13.613281 C 37.332031 13.613281 37.957031 12.929688 38.328125 12.207031 C 38.621094 13.261719 39.5 13.613281 40.164062 13.613281 C 42 13.613281 42.976562 11.269531 42.976562 10.878906 C 42.976562 10.78125 42.898438 10.703125 42.78125 10.703125 C 42.625 10.703125 42.605469 10.800781 42.566406 10.9375 C 42.078125 12.519531 41.023438 13.261719 40.222656 13.261719 C 39.597656 13.261719 39.265625 12.792969 39.265625 12.050781 C 39.265625 11.660156 39.324219 11.367188 39.617188 10.195312 L 40.242188 7.753906 C 40.515625 6.679688 41.121094 5.898438 41.941406 5.898438 C 41.980469 5.898438 42.488281 5.898438 42.859375 6.113281 Z M 42.859375 6.113281 "/>
<path style=" stroke:none;fill-rule:nonzero;fill:rgb(0%,0%,0%);fill-opacity:1;" d="M 49.472656 8.964844 C 49.472656 7.617188 49.296875 5.390625 48.28125 3.300781 C 47.226562 1.152344 45.761719 0 45.566406 0 C 45.488281 0 45.390625 0.0195312 45.390625 0.136719 C 45.390625 0.195312 45.390625 0.214844 45.703125 0.527344 C 47.5 2.34375 48.496094 5.292969 48.496094 8.964844 C 48.496094 12.441406 47.65625 15.429688 45.585938 17.539062 C 45.390625 17.695312 45.390625 17.734375 45.390625 17.792969 C 45.390625 17.910156 45.488281 17.929688 45.566406 17.929688 C 45.800781 17.929688 47.265625 16.640625 48.144531 14.882812 C 49.0625 13.066406 49.472656 11.132812 49.472656 8.964844 Z M 49.472656 8.964844 "/>
<path style=" stroke:none;fill-rule:nonzero;fill:rgb(0%,0%,0%);fill-opacity:1;" d="M 58.699219 0.996094 L 57.371094 0.996094 L 57.371094 13.4375 L 58.71875 13.4375 L 58.71875 12.636719 C 59.558594 13.417969 60.4375 13.613281 61.0625 13.613281 C 62.761719 13.613281 64.324219 11.875 64.324219 9.433594 C 64.324219 7.226562 63.132812 5.292969 61.472656 5.292969 C 60.945312 5.292969 59.792969 5.410156 58.699219 6.308594 Z M 58.71875 7.402344 C 59.050781 6.894531 59.695312 6.367188 60.574219 6.367188 C 61.667969 6.367188 62.957031 7.207031 62.957031 9.433594 C 62.957031 11.777344 61.492188 12.539062 60.398438 12.539062 C 59.890625 12.539062 59.558594 12.363281 59.226562 12.109375 C 58.796875 11.738281 58.71875 11.40625 58.71875 11.113281 Z M 58.71875 7.402344 "/>
<path style=" stroke:none;fill-rule:nonzero;fill:rgb(0%,0%,0%);fill-opacity:1;" d="M 72.71875 9.394531 C 72.71875 8.632812 72.640625 7.539062 72.074219 6.582031 C 71.332031 5.351562 70.082031 5.214844 69.554688 5.214844 C 67.621094 5.214844 66 7.070312 66 9.394531 C 66 11.777344 67.71875 13.613281 69.808594 13.613281 C 70.628906 13.613281 71.625 13.378906 72.601562 12.675781 C 72.601562 12.597656 72.542969 12.03125 72.542969 12.011719 C 72.523438 11.992188 72.503906 11.582031 72.503906 11.523438 C 71.429688 12.421875 70.375 12.539062 69.847656 12.539062 C 68.460938 12.539062 67.269531 11.308594 67.25 9.394531 Z M 67.347656 8.4375 C 67.660156 7.226562 68.5 6.289062 69.554688 6.289062 C 70.121094 6.289062 71.351562 6.542969 71.644531 8.4375 Z M 67.347656 8.4375 "/>
<path style=" stroke:none;fill-rule:nonzero;fill:rgb(0%,0%,0%);fill-opacity:1;" d="M 81.230469 6.523438 L 83.710938 6.523438 L 83.710938 5.46875 L 81.230469 5.46875 L 81.230469 3.203125 L 80 3.203125 L 80 5.46875 L 78.496094 5.46875 L 78.496094 6.523438 L 79.960938 6.523438 L 79.960938 11.347656 C 79.960938 12.382812 80.195312 13.613281 81.425781 13.613281 C 82.636719 13.613281 83.457031 13.203125 84.003906 12.910156 L 83.730469 11.875 C 83.105469 12.441406 82.441406 12.5 82.128906 12.5 C 81.328125 12.5 81.230469 11.660156 81.230469 11.035156 Z M 81.230469 6.523438 "/>
<path style=" stroke:none;fill-rule:nonzero;fill:rgb(0%,0%,0%);fill-opacity:1;" d="M 92.0625 8.046875 C 92.0625 6.953125 91.828125 5.292969 89.660156 5.292969 C 88.429688 5.292969 87.609375 5.996094 87.179688 6.542969 L 87.179688 0.996094 L 85.851562 0.996094 L 85.851562 13.4375 L 87.199219 13.4375 L 87.199219 8.964844 C 87.199219 7.871094 87.628906 6.367188 88.976562 6.367188 C 90.65625 6.367188 90.695312 7.539062 90.695312 8.164062 L 90.695312 13.4375 L 92.0625 13.4375 Z M 92.0625 8.046875 "/>
<path style=" stroke:none;fill-rule:nonzero;fill:rgb(0%,0%,0%);fill-opacity:1;" d="M 100.769531 9.394531 C 100.769531 8.632812 100.691406 7.539062 100.125 6.582031 C 99.382812 5.351562 98.132812 5.214844 97.605469 5.214844 C 95.671875 5.214844 94.050781 7.070312 94.050781 9.394531 C 94.050781 11.777344 95.769531 13.613281 97.859375 13.613281 C 98.679688 13.613281 99.675781 13.378906 100.652344 12.675781 C 100.652344 12.597656 100.59375 12.03125 100.59375 12.011719 C 100.574219 11.992188 100.554688 11.582031 100.554688 11.523438 C 99.480469 12.421875 98.425781 12.539062 97.898438 12.539062 C 96.511719 12.539062 95.320312 11.308594 95.300781 9.394531 Z M 95.398438 8.4375 C 95.710938 7.226562 96.550781 6.289062 97.605469 6.289062 C 98.171875 6.289062 99.402344 6.542969 99.695312 8.4375 Z M 95.398438 8.4375 "/>
<path style=" stroke:none;fill-rule:nonzero;fill:rgb(0%,0%,0%);fill-opacity:1;" d="M 113.226562 8.183594 C 113.226562 6.464844 111.996094 5.214844 110.316406 5.214844 C 109.242188 5.214844 108.441406 5.449219 107.5625 5.957031 L 107.660156 7.148438 C 108.460938 6.5625 109.28125 6.25 110.316406 6.25 C 111.136719 6.25 111.859375 6.914062 111.859375 8.222656 L 111.859375 8.964844 C 111.058594 8.984375 109.984375 9.042969 108.910156 9.394531 C 107.699219 9.824219 106.996094 10.488281 106.996094 11.367188 C 106.996094 12.167969 107.464844 13.613281 108.988281 13.613281 C 109.984375 13.613281 111.234375 13.320312 111.898438 12.773438 L 111.898438 13.4375 L 113.226562 13.4375 Z M 111.859375 11.035156 C 111.859375 11.386719 111.859375 11.816406 111.273438 12.1875 C 110.785156 12.480469 110.179688 12.539062 109.90625 12.539062 C 108.949219 12.539062 108.285156 12.011719 108.285156 11.367188 C 108.285156 10.136719 110.765625 9.863281 111.859375 9.863281 Z M 111.859375 11.035156 "/>
<path style=" stroke:none;fill-rule:nonzero;fill:rgb(0%,0%,0%);fill-opacity:1;" d="M 122.210938 8.046875 C 122.210938 6.953125 121.976562 5.292969 119.808594 5.292969 C 118.8125 5.292969 117.953125 5.742188 117.269531 6.601562 L 117.269531 5.390625 L 116 5.390625 L 116 13.4375 L 117.347656 13.4375 L 117.347656 8.964844 C 117.347656 7.871094 117.777344 6.367188 119.125 6.367188 C 120.804688 6.367188 120.84375 7.539062 120.84375 8.164062 L 120.84375 13.4375 L 122.210938 13.4375 Z M 122.210938 8.046875 "/>
<path style=" stroke:none;fill-rule:nonzero;fill:rgb(0%,0%,0%);fill-opacity:1;" d="M 126.679688 6.523438 L 129.160156 6.523438 L 129.160156 5.46875 L 126.679688 5.46875 L 126.679688 3.203125 L 125.449219 3.203125 L 125.449219 5.46875 L 123.945312 5.46875 L 123.945312 6.523438 L 125.410156 6.523438 L 125.410156 11.347656 C 125.410156 12.382812 125.644531 13.613281 126.875 13.613281 C 128.085938 13.613281 128.90625 13.203125 129.453125 12.910156 L 129.179688 11.875 C 128.554688 12.441406 127.890625 12.5 127.578125 12.5 C 126.777344 12.5 126.679688 11.660156 126.679688 11.035156 Z M 126.679688 6.523438 "/>
<path style=" stroke:none;fill-rule:nonzero;fill:rgb(0%,0%,0%);fill-opacity:1;" d="M 132.746094 1.269531 L 131.203125 1.269531 L 131.203125 2.8125 L 132.746094 2.8125 Z M 132.648438 5.46875 L 131.320312 5.46875 L 131.320312 13.4375 L 132.648438 13.4375 Z M 132.648438 5.46875 "/>
<path style=" stroke:none;fill-rule:nonzero;fill:rgb(0%,0%,0%);fill-opacity:1;" d="M 138.976562 9.980469 L 138.976562 8.945312 L 134.308594 8.945312 L 134.308594 9.980469 Z M 138.976562 9.980469 "/>
<path style=" stroke:none;fill-rule:nonzero;fill:rgb(0%,0%,0%);fill-opacity:1;" d="M 147.542969 0.996094 L 146.214844 0.996094 L 146.214844 6.230469 C 145.394531 5.546875 144.457031 5.292969 143.695312 5.292969 C 141.996094 5.292969 140.589844 7.128906 140.589844 9.453125 C 140.589844 11.777344 141.917969 13.613281 143.617188 13.613281 C 144.28125 13.613281 145.296875 13.398438 146.195312 12.519531 L 146.195312 13.4375 L 147.542969 13.4375 Z M 146.195312 11.328125 C 145.765625 12.089844 145.121094 12.539062 144.339844 12.539062 C 143.246094 12.539062 141.957031 11.699219 141.957031 9.472656 C 141.957031 7.089844 143.480469 6.367188 144.515625 6.367188 C 145.21875 6.367188 145.785156 6.738281 146.195312 7.324219 Z M 146.195312 11.328125 "/>
<path style=" stroke:none;fill-rule:nonzero;fill:rgb(0%,0%,0%);fill-opacity:1;" d="M 156.269531 9.394531 C 156.269531 8.632812 156.191406 7.539062 155.625 6.582031 C 154.882812 5.351562 153.632812 5.214844 153.105469 5.214844 C 151.171875 5.214844 149.550781 7.070312 149.550781 9.394531 C 149.550781 11.777344 151.269531 13.613281 153.359375 13.613281 C 154.179688 13.613281 155.175781 13.378906 156.152344 12.675781 C 156.152344 12.597656 156.09375 12.03125 156.09375 12.011719 C 156.074219 11.992188 156.054688 11.582031 156.054688 11.523438 C 154.980469 12.421875 153.925781 12.539062 153.398438 12.539062 C 152.011719 12.539062 150.820312 11.308594 150.800781 9.394531 Z M 150.898438 8.4375 C 151.210938 7.226562 152.050781 6.289062 153.105469 6.289062 C 153.671875 6.289062 154.902344 6.542969 155.195312 8.4375 Z M 150.898438 8.4375 "/>
<path style=" stroke:none;fill-rule:nonzero;fill:rgb(0%,0%,0%);fill-opacity:1;" d="M 159.5 9.511719 C 159.5 7.695312 160.847656 6.523438 162.46875 6.503906 L 162.46875 5.292969 C 160.828125 5.3125 159.890625 6.269531 159.402344 6.972656 L 159.402344 5.390625 L 158.171875 5.390625 L 158.171875 13.4375 L 159.5 13.4375 Z M 159.5 9.511719 "/>
<path style=" stroke:none;fill-rule:nonzero;fill:rgb(0%,0%,0%);fill-opacity:1;" d="M 165.597656 1.269531 L 164.054688 1.269531 L 164.054688 2.8125 L 165.597656 2.8125 Z M 165.5 5.46875 L 164.171875 5.46875 L 164.171875 13.4375 L 165.5 13.4375 Z M 165.5 5.46875 "/>
<path style=" stroke:none;fill-rule:nonzero;fill:rgb(0%,0%,0%);fill-opacity:1;" d="M 174.71875 5.46875 L 173.390625 5.46875 L 172.082031 9.042969 C 171.769531 9.902344 171.105469 11.796875 171.007812 12.460938 L 170.988281 12.460938 C 170.890625 11.835938 170.539062 10.859375 170.265625 10.078125 L 168.605469 5.46875 L 167.21875 5.46875 L 170.167969 13.4375 L 171.769531 13.4375 Z M 174.71875 5.46875 "/>
<path style=" stroke:none;fill-rule:nonzero;fill:rgb(0%,0%,0%);fill-opacity:1;" d="M 182.074219 8.183594 C 182.074219 6.464844 180.84375 5.214844 179.164062 5.214844 C 178.089844 5.214844 177.289062 5.449219 176.410156 5.957031 L 176.507812 7.148438 C 177.308594 6.5625 178.128906 6.25 179.164062 6.25 C 179.984375 6.25 180.707031 6.914062 180.707031 8.222656 L 180.707031 8.964844 C 179.90625 8.984375 178.832031 9.042969 177.757812 9.394531 C 176.546875 9.824219 175.84375 10.488281 175.84375 11.367188 C 175.84375 12.167969 176.3125 13.613281 177.835938 13.613281 C 178.832031 13.613281 180.082031 13.320312 180.746094 12.773438 L 180.746094 13.4375 L 182.074219 13.4375 Z M 180.707031 11.035156 C 180.707031 11.386719 180.707031 11.816406 180.121094 12.1875 C 179.632812 12.480469 179.027344 12.539062 178.753906 12.539062 C 177.796875 12.539062 177.132812 12.011719 177.132812 11.367188 C 177.132812 10.136719 179.613281 9.863281 180.707031 9.863281 Z M 180.707031 11.035156 "/>
<path style=" stroke:none;fill-rule:nonzero;fill:rgb(0%,0%,0%);fill-opacity:1;" d="M 186.53125 6.523438 L 189.011719 6.523438 L 189.011719 5.46875 L 186.53125 5.46875 L 186.53125 3.203125 L 185.300781 3.203125 L 185.300781 5.46875 L 183.796875 5.46875 L 183.796875 6.523438 L 185.261719 6.523438 L 185.261719 11.347656 C 185.261719 12.382812 185.496094 13.613281 186.726562 13.613281 C 187.9375 13.613281 188.757812 13.203125 189.304688 12.910156 L 189.03125 11.875 C 188.40625 12.441406 187.742188 12.5 187.429688 12.5 C 186.628906 12.5 186.53125 11.660156 186.53125 11.035156 Z M 186.53125 6.523438 "/>
<path style=" stroke:none;fill-rule:nonzero;fill:rgb(0%,0%,0%);fill-opacity:1;" d="M 192.597656 1.269531 L 191.054688 1.269531 L 191.054688 2.8125 L 192.597656 2.8125 Z M 192.5 5.46875 L 191.171875 5.46875 L 191.171875 13.4375 L 192.5 13.4375 Z M 192.5 5.46875 "/>
<path style=" stroke:none;fill-rule:nonzero;fill:rgb(0%,0%,0%);fill-opacity:1;" d="M 201.71875 5.46875 L 200.390625 5.46875 L 199.082031 9.042969 C 198.769531 9.902344 198.105469 11.796875 198.007812 12.460938 L 197.988281 12.460938 C 197.890625 11.835938 197.539062 10.859375 197.265625 10.078125 L 195.605469 5.46875 L 194.21875 5.46875 L 197.167969 13.4375 L 198.769531 13.4375 Z M 201.71875 5.46875 "/>
<path style=" stroke:none;fill-rule:nonzero;fill:rgb(0%,0%,0%);fill-opacity:1;" d="M 209.367188 9.394531 C 209.367188 8.632812 209.289062 7.539062 208.722656 6.582031 C 207.980469 5.351562 206.730469 5.214844 206.203125 5.214844 C 204.269531 5.214844 202.648438 7.070312 202.648438 9.394531 C 202.648438 11.777344 204.367188 13.613281 206.457031 13.613281 C 207.277344 13.613281 208.273438 13.378906 209.25 12.675781 C 209.25 12.597656 209.191406 12.03125 209.191406 12.011719 C 209.171875 11.992188 209.152344 11.582031 209.152344 11.523438 C 208.078125 12.421875 207.023438 12.539062 206.496094 12.539062 C 205.109375 12.539062 203.917969 11.308594 203.898438 9.394531 Z M 203.996094 8.4375 C 204.308594 7.226562 205.148438 6.289062 206.203125 6.289062 C 206.769531 6.289062 208 6.542969 208.292969 8.4375 Z M 203.996094 8.4375 "/>
<path style=" stroke:none;fill-rule:nonzero;fill:rgb(0%,0%,0%);fill-opacity:1;" d="M 222.734375 9.492188 C 222.734375 7.070312 220.957031 5.214844 218.90625 5.214844 C 216.796875 5.214844 215.058594 7.109375 215.058594 9.492188 C 215.058594 11.835938 216.835938 13.613281 218.886719 13.613281 C 220.996094 13.613281 222.734375 11.796875 222.734375 9.492188 Z M 218.90625 12.5 C 217.617188 12.5 216.40625 11.425781 216.40625 9.316406 C 216.40625 7.148438 217.753906 6.289062 218.886719 6.289062 C 220.117188 6.289062 221.386719 7.207031 221.386719 9.316406 C 221.386719 11.523438 220.097656 12.5 218.90625 12.5 Z M 218.90625 12.5 "/>
<path style=" stroke:none;fill-rule:nonzero;fill:rgb(0%,0%,0%);fill-opacity:1;" d="M 226.46875 6.523438 L 228.382812 6.523438 L 228.382812 5.46875 L 226.429688 5.46875 L 226.429688 3.320312 C 226.429688 2.109375 227.445312 1.894531 228.050781 1.894531 C 228.675781 1.894531 229.222656 2.089844 229.4375 2.167969 L 229.4375 0.996094 C 229.320312 0.957031 228.714844 0.820312 228.070312 0.820312 C 226.351562 0.820312 225.140625 2.128906 225.140625 3.867188 L 225.140625 5.46875 L 223.832031 5.46875 L 223.832031 6.523438 L 225.140625 6.523438 L 225.140625 13.4375 L 226.46875 13.4375 Z M 226.46875 6.523438 "/>
<path style=" stroke:none;fill-rule:nonzero;fill:rgb(0%,0%,0%);fill-opacity:1;" d="M 241.550781 6.230469 C 241.921875 6.230469 242.058594 6.230469 242.058594 5.898438 C 242.058594 5.703125 241.921875 5.703125 241.589844 5.703125 L 240.144531 5.703125 C 240.476562 3.867188 240.730469 2.597656 240.886719 2.011719 C 240.984375 1.582031 241.355469 1.171875 241.824219 1.171875 C 242.195312 1.171875 242.585938 1.328125 242.761719 1.503906 C 242.058594 1.5625 241.84375 2.089844 241.84375 2.402344 C 241.84375 2.753906 242.117188 2.96875 242.449219 2.96875 C 242.820312 2.96875 243.347656 2.65625 243.347656 1.972656 C 243.347656 1.230469 242.605469 0.820312 241.804688 0.820312 C 241.042969 0.820312 240.28125 1.386719 239.929688 2.089844 C 239.597656 2.714844 239.421875 3.359375 239.011719 5.703125 L 237.820312 5.703125 C 237.46875 5.703125 237.292969 5.703125 237.292969 6.035156 C 237.292969 6.230469 237.390625 6.230469 237.761719 6.230469 L 238.914062 6.230469 C 238.582031 7.890625 237.839844 11.953125 237.429688 13.867188 C 237.136719 15.429688 236.863281 16.738281 235.964844 16.738281 C 235.90625 16.738281 235.398438 16.738281 235.066406 16.386719 C 235.984375 16.328125 235.984375 15.527344 235.984375 15.507812 C 235.984375 15.15625 235.710938 14.941406 235.378906 14.941406 C 235.007812 14.941406 234.480469 15.253906 234.480469 15.9375 C 234.480469 16.699219 235.261719 17.089844 235.964844 17.089844 C 237.800781 17.089844 238.542969 13.808594 238.738281 12.910156 C 239.070312 11.542969 239.949219 6.777344 240.027344 6.230469 Z M 241.550781 6.230469 "/>
<path style=" stroke:none;fill-rule:nonzero;fill:rgb(0%,0%,0%);fill-opacity:1;" d="M 250.035156 17.792969 C 250.035156 17.734375 250.035156 17.695312 249.742188 17.402344 C 247.945312 15.585938 246.949219 12.636719 246.949219 8.964844 C 246.949219 5.488281 247.789062 2.5 249.859375 0.390625 C 250.035156 0.214844 250.035156 0.195312 250.035156 0.136719 C 250.035156 0.0195312 249.957031 0 249.878906 0 C 249.644531 0 248.179688 1.289062 247.300781 3.046875 C 246.382812 4.84375 245.972656 6.777344 245.972656 8.964844 C 245.972656 10.566406 246.226562 12.695312 247.164062 14.628906 C 248.21875 16.777344 249.683594 17.929688 249.878906 17.929688 C 249.957031 17.929688 250.035156 17.910156 250.035156 17.792969 Z M 250.035156 17.792969 "/>
<path style=" stroke:none;fill-rule:nonzero;fill:rgb(0%,0%,0%);fill-opacity:1;" d="M 259.609375 6.113281 C 259.042969 6.230469 258.828125 6.660156 258.828125 6.992188 C 258.828125 7.421875 259.160156 7.578125 259.414062 7.578125 C 259.960938 7.578125 260.332031 7.109375 260.332031 6.621094 C 260.332031 5.878906 259.472656 5.527344 258.710938 5.527344 C 257.617188 5.527344 257.011719 6.601562 256.855469 6.953125 C 256.445312 5.605469 255.332031 5.527344 255 5.527344 C 253.183594 5.527344 252.207031 7.871094 252.207031 8.28125 C 252.207031 8.339844 252.285156 8.4375 252.402344 8.4375 C 252.539062 8.4375 252.578125 8.320312 252.617188 8.261719 C 253.222656 6.269531 254.433594 5.898438 254.941406 5.898438 C 255.761719 5.898438 255.917969 6.640625 255.917969 7.070312 C 255.917969 7.460938 255.820312 7.871094 255.585938 8.730469 L 254.980469 11.191406 C 254.726562 12.265625 254.199219 13.261719 253.242188 13.261719 C 253.164062 13.261719 252.714844 13.261719 252.324219 13.027344 C 252.96875 12.890625 253.125 12.363281 253.125 12.148438 C 253.125 11.796875 252.851562 11.582031 252.519531 11.582031 C 252.089844 11.582031 251.621094 11.953125 251.621094 12.519531 C 251.621094 13.28125 252.460938 13.613281 253.222656 13.613281 C 254.082031 13.613281 254.707031 12.929688 255.078125 12.207031 C 255.371094 13.261719 256.25 13.613281 256.914062 13.613281 C 258.75 13.613281 259.726562 11.269531 259.726562 10.878906 C 259.726562 10.78125 259.648438 10.703125 259.53125 10.703125 C 259.375 10.703125 259.355469 10.800781 259.316406 10.9375 C 258.828125 12.519531 257.773438 13.261719 256.972656 13.261719 C 256.347656 13.261719 256.015625 12.792969 256.015625 12.050781 C 256.015625 11.660156 256.074219 11.367188 256.367188 10.195312 L 256.992188 7.753906 C 257.265625 6.679688 257.871094 5.898438 258.691406 5.898438 C 258.730469 5.898438 259.238281 5.898438 259.609375 6.113281 Z M 259.609375 6.113281 "/>
<path style=" stroke:none;fill-rule:nonzero;fill:rgb(0%,0%,0%);fill-opacity:1;" d="M 266.222656 8.964844 C 266.222656 7.617188 266.046875 5.390625 265.03125 3.300781 C 263.976562 1.152344 262.511719 0 262.316406 0 C 262.238281 0 262.140625 0.0195312 262.140625 0.136719 C 262.140625 0.195312 262.140625 0.214844 262.453125 0.527344 C 264.25 2.34375 265.246094 5.292969 265.246094 8.964844 C 265.246094 12.441406 264.40625 15.429688 262.335938 17.539062 C 262.140625 17.695312 262.140625 17.734375 262.140625 17.792969 C 262.140625 17.910156 262.238281 17.929688 262.316406 17.929688 C 262.550781 17.929688 264.015625 16.640625 264.894531 14.882812 C 265.8125 13.066406 266.222656 11.132812 266.222656 8.964844 Z M 266.222656 8.964844 "/>
<path style=" stroke:none;fill-rule:nonzero;fill:rgb(0%,0%,0%);fill-opacity:1;" d="M 271.226562 13.417969 L 271.226562 11.992188 L 269.761719 11.992188 L 269.761719 13.4375 L 270.210938 13.4375 L 269.761719 15.683594 L 270.484375 15.683594 Z M 271.226562 13.417969 "/>
<path style=" stroke:none;fill-rule:nonzero;fill:rgb(0%,0%,0%);fill-opacity:1;" d="M 280.730469 6.523438 L 283.210938 6.523438 L 283.210938 5.46875 L 280.730469 5.46875 L 280.730469 3.203125 L 279.5 3.203125 L 279.5 5.46875 L 277.996094 5.46875 L 277.996094 6.523438 L 279.460938 6.523438 L 279.460938 11.347656 C 279.460938 12.382812 279.695312 13.613281 280.925781 13.613281 C 282.136719 13.613281 282.957031 13.203125 283.503906 12.910156 L 283.230469 11.875 C 282.605469 12.441406 281.941406 12.5 281.628906 12.5 C 280.828125 12.5 280.730469 11.660156 280.730469 11.035156 Z M 280.730469 6.523438 "/>
<path style=" stroke:none;fill-rule:nonzero;fill:rgb(0%,0%,0%);fill-opacity:1;" d="M 291.5625 8.046875 C 291.5625 6.953125 291.328125 5.292969 289.160156 5.292969 C 287.929688 5.292969 287.109375 5.996094 286.679688 6.542969 L 286.679688 0.996094 L 285.351562 0.996094 L 285.351562 13.4375 L 286.699219 13.4375 L 286.699219 8.964844 C 286.699219 7.871094 287.128906 6.367188 288.476562 6.367188 C 290.15625 6.367188 290.195312 7.539062 290.195312 8.164062 L 290.195312 13.4375 L 291.5625 13.4375 Z M 291.5625 8.046875 "/>
<path style=" stroke:none;fill-rule:nonzero;fill:rgb(0%,0%,0%);fill-opacity:1;" d="M 300.269531 9.394531 C 300.269531 8.632812 300.191406 7.539062 299.625 6.582031 C 298.882812 5.351562 297.632812 5.214844 297.105469 5.214844 C 295.171875 5.214844 293.550781 7.070312 293.550781 9.394531 C 293.550781 11.777344 295.269531 13.613281 297.359375 13.613281 C 298.179688 13.613281 299.175781 13.378906 300.152344 12.675781 C 300.152344 12.597656 300.09375 12.03125 300.09375 12.011719 C 300.074219 11.992188 300.054688 11.582031 300.054688 11.523438 C 298.980469 12.421875 297.925781 12.539062 297.398438 12.539062 C 296.011719 12.539062 294.820312 11.308594 294.800781 9.394531 Z M 294.898438 8.4375 C 295.210938 7.226562 296.050781 6.289062 297.105469 6.289062 C 297.671875 6.289062 298.902344 6.542969 299.195312 8.4375 Z M 294.898438 8.4375 "/>
<path style=" stroke:none;fill-rule:nonzero;fill:rgb(0%,0%,0%);fill-opacity:1;" d="M 308.363281 8.046875 C 308.363281 6.953125 308.128906 5.292969 305.960938 5.292969 C 304.964844 5.292969 304.105469 5.742188 303.421875 6.601562 L 303.421875 5.390625 L 302.152344 5.390625 L 302.152344 13.4375 L 303.5 13.4375 L 303.5 8.964844 C 303.5 7.871094 303.929688 6.367188 305.277344 6.367188 C 306.957031 6.367188 306.996094 7.539062 306.996094 8.164062 L 306.996094 13.4375 L 308.363281 13.4375 Z M 308.363281 8.046875 "/>
<path style=" stroke:none;fill-rule:nonzero;fill:rgb(0%,0%,0%);fill-opacity:1;" d="M 13.988281 53.796875 C 14.007812 53.71875 14.046875 53.621094 14.046875 53.523438 C 14.046875 53.347656 13.851562 53.347656 13.8125 53.347656 C 13.8125 53.347656 12.933594 53.425781 12.835938 53.425781 C 12.523438 53.445312 12.269531 53.484375 11.9375 53.503906 C 11.488281 53.542969 11.371094 53.5625 11.371094 53.875 C 11.371094 54.070312 11.507812 54.070312 11.761719 54.070312 C 12.640625 54.070312 12.660156 54.226562 12.660156 54.402344 C 12.660156 54.519531 12.621094 54.65625 12.601562 54.714844 L 11.507812 59.070312 C 11.3125 58.601562 10.824219 57.878906 9.886719 57.878906 C 7.875 57.878906 5.6875 60.496094 5.6875 63.152344 C 5.6875 64.929688 6.722656 65.964844 7.933594 65.964844 C 8.929688 65.964844 9.769531 65.203125 10.277344 64.597656 C 10.453125 65.671875 11.292969 65.964844 11.839844 65.964844 C 12.367188 65.964844 12.796875 65.652344 13.128906 65.007812 C 13.402344 64.382812 13.65625 63.289062 13.65625 63.230469 C 13.65625 63.132812 13.597656 63.054688 13.480469 63.054688 C 13.324219 63.054688 13.304688 63.152344 13.226562 63.425781 C 12.953125 64.480469 12.621094 65.613281 11.878906 65.613281 C 11.371094 65.613281 11.332031 65.144531 11.332031 64.792969 C 11.332031 64.714844 11.332031 64.34375 11.449219 63.835938 Z M 10.355469 63.660156 C 10.277344 63.953125 10.277344 63.992188 10.023438 64.34375 C 9.632812 64.832031 8.832031 65.613281 7.992188 65.613281 C 7.269531 65.613281 6.839844 64.949219 6.839844 63.894531 C 6.839844 62.898438 7.40625 60.886719 7.738281 60.144531 C 8.363281 58.894531 9.203125 58.25 9.886719 58.25 C 11.078125 58.25 11.3125 59.714844 11.3125 59.851562 C 11.3125 59.871094 11.253906 60.105469 11.234375 60.144531 Z M 10.355469 63.660156 "/>
<path style=" stroke:none;fill-rule:nonzero;fill:rgb(0%,0%,0%);fill-opacity:1;" d="M 0 73.003906 L 19.199219 73.003906 L 19.199219 73.757812 L 0 73.757812 Z M 0 73.003906 "/>
<path style=" stroke:none;fill-rule:nonzero;fill:rgb(0%,0%,0%);fill-opacity:1;" d="M 9.039062 78.246094 C 9.058594 78.167969 9.097656 78.070312 9.097656 77.972656 C 9.097656 77.796875 8.902344 77.796875 8.863281 77.796875 C 8.863281 77.796875 7.984375 77.875 7.886719 77.875 C 7.574219 77.894531 7.320312 77.933594 6.988281 77.953125 C 6.539062 77.992188 6.421875 78.011719 6.421875 78.324219 C 6.421875 78.519531 6.558594 78.519531 6.8125 78.519531 C 7.691406 78.519531 7.710938 78.675781 7.710938 78.851562 C 7.710938 78.96875 7.671875 79.105469 7.652344 79.164062 L 6.558594 83.519531 C 6.363281 83.050781 5.875 82.328125 4.9375 82.328125 C 2.925781 82.328125 0.738281 84.945312 0.738281 87.601562 C 0.738281 89.378906 1.773438 90.414062 2.984375 90.414062 C 3.980469 90.414062 4.820312 89.652344 5.328125 89.046875 C 5.503906 90.121094 6.34375 90.414062 6.890625 90.414062 C 7.417969 90.414062 7.847656 90.101562 8.179688 89.457031 C 8.453125 88.832031 8.707031 87.738281 8.707031 87.679688 C 8.707031 87.582031 8.648438 87.503906 8.53125 87.503906 C 8.375 87.503906 8.355469 87.601562 8.277344 87.875 C 8.003906 88.929688 7.671875 90.0625 6.929688 90.0625 C 6.421875 90.0625 6.382812 89.59375 6.382812 89.242188 C 6.382812 89.164062 6.382812 88.792969 6.5 88.285156 Z M 5.40625 88.109375 C 5.328125 88.402344 5.328125 88.441406 5.074219 88.792969 C 4.683594 89.28125 3.882812 90.0625 3.042969 90.0625 C 2.320312 90.0625 1.890625 89.398438 1.890625 88.34375 C 1.890625 87.347656 2.457031 85.335938 2.789062 84.59375 C 3.414062 83.34375 4.253906 82.699219 4.9375 82.699219 C 6.128906 82.699219 6.363281 84.164062 6.363281 84.300781 C 6.363281 84.320312 6.304688 84.554688 6.285156 84.59375 Z M 5.40625 88.109375 "/>
<path style=" stroke:none;fill-rule:nonzero;fill:rgb(0%,0%,0%);fill-opacity:1;" d="M 17.660156 82.914062 C 17.09375 83.03125 16.878906 83.460938 16.878906 83.792969 C 16.878906 84.222656 17.210938 84.378906 17.464844 84.378906 C 18.011719 84.378906 18.382812 83.910156 18.382812 83.421875 C 18.382812 82.679688 17.523438 82.328125 16.761719 82.328125 C 15.667969 82.328125 15.0625 83.402344 14.90625 83.753906 C 14.496094 82.40625 13.382812 82.328125 13.050781 82.328125 C 11.234375 82.328125 10.257812 84.671875 10.257812 85.082031 C 10.257812 85.140625 10.335938 85.238281 10.453125 85.238281 C 10.589844 85.238281 10.628906 85.121094 10.667969 85.0625 C 11.273438 83.070312 12.484375 82.699219 12.992188 82.699219 C 13.8125 82.699219 13.96875 83.441406 13.96875 83.871094 C 13.96875 84.261719 13.871094 84.671875 13.636719 85.53125 L 13.03125 87.992188 C 12.777344 89.066406 12.25 90.0625 11.292969 90.0625 C 11.214844 90.0625 10.765625 90.0625 10.375 89.828125 C 11.019531 89.691406 11.175781 89.164062 11.175781 88.949219 C 11.175781 88.597656 10.902344 88.382812 10.570312 88.382812 C 10.140625 88.382812 9.671875 88.753906 9.671875 89.320312 C 9.671875 90.082031 10.511719 90.414062 11.273438 90.414062 C 12.132812 90.414062 12.757812 89.730469 13.128906 89.007812 C 13.421875 90.0625 14.300781 90.414062 14.964844 90.414062 C 16.800781 90.414062 17.777344 88.070312 17.777344 87.679688 C 17.777344 87.582031 17.699219 87.503906 17.582031 87.503906 C 17.425781 87.503906 17.40625 87.601562 17.367188 87.738281 C 16.878906 89.320312 15.824219 90.0625 15.023438 90.0625 C 14.398438 90.0625 14.066406 89.59375 14.066406 88.851562 C 14.066406 88.460938 14.125 88.167969 14.417969 86.996094 L 15.042969 84.554688 C 15.316406 83.480469 15.921875 82.699219 16.742188 82.699219 C 16.78125 82.699219 17.289062 82.699219 17.660156 82.914062 Z M 17.660156 82.914062 "/>
<path style=" stroke:none;fill-rule:nonzero;fill:rgb(0%,0%,0%);fill-opacity:1;" d="M 25.898438 72.097656 L 27.617188 72.097656 C 28.984375 72.097656 29.082031 72.390625 29.082031 72.917969 C 29.082031 73.152344 29.042969 73.40625 28.964844 73.796875 C 28.925781 73.875 28.90625 73.953125 28.90625 73.992188 C 28.90625 74.109375 28.984375 74.1875 29.101562 74.1875 C 29.238281 74.1875 29.257812 74.109375 29.335938 73.835938 L 30.371094 69.65625 C 30.371094 69.578125 30.3125 69.480469 30.195312 69.480469 C 30.039062 69.480469 30.019531 69.539062 29.941406 69.851562 C 29.570312 71.199219 29.199219 71.570312 27.65625 71.570312 L 26.015625 71.570312 L 27.1875 66.921875 C 27.34375 66.296875 27.382812 66.238281 28.105469 66.238281 L 30.507812 66.238281 C 32.753906 66.238281 33.085938 66.902344 33.085938 68.191406 C 33.085938 68.289062 33.085938 68.679688 33.027344 69.148438 C 33.007812 69.226562 32.96875 69.460938 32.96875 69.519531 C 32.96875 69.675781 33.066406 69.734375 33.164062 69.734375 C 33.300781 69.734375 33.359375 69.65625 33.398438 69.324219 L 33.789062 66.199219 C 33.789062 66.140625 33.808594 65.964844 33.808594 65.925781 C 33.808594 65.730469 33.652344 65.730469 33.339844 65.730469 L 24.824219 65.730469 C 24.492188 65.730469 24.316406 65.730469 24.316406 66.042969 C 24.316406 66.238281 24.433594 66.238281 24.746094 66.238281 C 25.859375 66.238281 25.859375 66.375 25.859375 66.570312 C 25.859375 66.667969 25.839844 66.726562 25.78125 66.921875 L 23.359375 76.609375 C 23.203125 77.234375 23.164062 77.410156 21.914062 77.410156 C 21.5625 77.410156 21.386719 77.410156 21.386719 77.742188 C 21.386719 77.9375 21.542969 77.9375 21.660156 77.9375 C 21.992188 77.9375 22.363281 77.898438 22.695312 77.898438 L 25.039062 77.898438 C 25.429688 77.898438 25.859375 77.9375 26.25 77.9375 C 26.40625 77.9375 26.621094 77.9375 26.621094 77.605469 C 26.621094 77.410156 26.523438 77.410156 26.132812 77.410156 C 24.707031 77.410156 24.667969 77.292969 24.667969 77.019531 C 24.667969 76.941406 24.707031 76.785156 24.746094 76.667969 Z M 25.898438 72.097656 "/>
<path style=" stroke:none;fill-rule:nonzero;fill:rgb(0%,0%,0%);fill-opacity:1;" d="M 40.183594 82.292969 C 40.183594 82.234375 40.183594 82.195312 39.890625 81.902344 C 38.09375 80.085938 37.097656 77.136719 37.097656 73.464844 C 37.097656 69.988281 37.9375 67 40.007812 64.890625 C 40.183594 64.714844 40.183594 64.695312 40.183594 64.636719 C 40.183594 64.519531 40.105469 64.5 40.027344 64.5 C 39.792969 64.5 38.328125 65.789062 37.449219 67.546875 C 36.53125 69.34375 36.121094 71.277344 36.121094 73.464844 C 36.121094 75.066406 36.375 77.195312 37.3125 79.128906 C 38.367188 81.277344 39.832031 82.429688 40.027344 82.429688 C 40.105469 82.429688 40.183594 82.410156 40.183594 82.292969 Z M 40.183594 82.292969 "/>
<path style=" stroke:none;fill-rule:nonzero;fill:rgb(0%,0%,0%);fill-opacity:1;" d="M 49.761719 70.613281 C 49.195312 70.730469 48.980469 71.160156 48.980469 71.492188 C 48.980469 71.921875 49.3125 72.078125 49.566406 72.078125 C 50.113281 72.078125 50.484375 71.609375 50.484375 71.121094 C 50.484375 70.378906 49.625 70.027344 48.863281 70.027344 C 47.769531 70.027344 47.164062 71.101562 47.007812 71.453125 C 46.597656 70.105469 45.484375 70.027344 45.152344 70.027344 C 43.335938 70.027344 42.359375 72.371094 42.359375 72.78125 C 42.359375 72.839844 42.4375 72.9375 42.554688 72.9375 C 42.691406 72.9375 42.730469 72.820312 42.769531 72.761719 C 43.375 70.769531 44.585938 70.398438 45.09375 70.398438 C 45.914062 70.398438 46.070312 71.140625 46.070312 71.570312 C 46.070312 71.960938 45.972656 72.371094 45.738281 73.230469 L 45.132812 75.691406 C 44.878906 76.765625 44.351562 77.761719 43.394531 77.761719 C 43.316406 77.761719 42.867188 77.761719 42.476562 77.527344 C 43.121094 77.390625 43.277344 76.863281 43.277344 76.648438 C 43.277344 76.296875 43.003906 76.082031 42.671875 76.082031 C 42.242188 76.082031 41.773438 76.453125 41.773438 77.019531 C 41.773438 77.78125 42.613281 78.113281 43.375 78.113281 C 44.234375 78.113281 44.859375 77.429688 45.230469 76.707031 C 45.523438 77.761719 46.402344 78.113281 47.066406 78.113281 C 48.902344 78.113281 49.878906 75.769531 49.878906 75.378906 C 49.878906 75.28125 49.800781 75.203125 49.683594 75.203125 C 49.527344 75.203125 49.507812 75.300781 49.46875 75.4375 C 48.980469 77.019531 47.925781 77.761719 47.125 77.761719 C 46.5 77.761719 46.167969 77.292969 46.167969 76.550781 C 46.167969 76.160156 46.226562 75.867188 46.519531 74.695312 L 47.144531 72.253906 C 47.417969 71.179688 48.023438 70.398438 48.84375 70.398438 C 48.882812 70.398438 49.390625 70.398438 49.761719 70.613281 Z M 49.761719 70.613281 "/>
<path style=" stroke:none;fill-rule:nonzero;fill:rgb(0%,0%,0%);fill-opacity:1;" d="M 56.375 73.464844 C 56.375 72.117188 56.199219 69.890625 55.183594 67.800781 C 54.128906 65.652344 52.664062 64.5 52.46875 64.5 C 52.390625 64.5 52.292969 64.519531 52.292969 64.636719 C 52.292969 64.695312 52.292969 64.714844 52.605469 65.027344 C 54.402344 66.84375 55.398438 69.792969 55.398438 73.464844 C 55.398438 76.941406 54.558594 79.929688 52.488281 82.039062 C 52.292969 82.195312 52.292969 82.234375 52.292969 82.292969 C 52.292969 82.410156 52.390625 82.429688 52.46875 82.429688 C 52.703125 82.429688 54.167969 81.140625 55.046875 79.382812 C 55.964844 77.566406 56.375 75.632812 56.375 73.464844 Z M 56.375 73.464844 "/>
<path style=" stroke:none;fill-rule:nonzero;fill:rgb(0%,0%,0%);fill-opacity:1;" d="M 75.125 72.136719 C 75.378906 72.136719 75.691406 72.136719 75.691406 71.804688 C 75.691406 71.472656 75.378906 71.472656 75.125 71.472656 L 64.558594 71.472656 C 64.304688 71.472656 63.992188 71.472656 63.992188 71.785156 C 63.992188 72.136719 64.285156 72.136719 64.558594 72.136719 Z M 75.125 75.457031 C 75.378906 75.457031 75.691406 75.457031 75.691406 75.144531 C 75.691406 74.792969 75.378906 74.792969 75.125 74.792969 L 64.558594 74.792969 C 64.304688 74.792969 63.992188 74.792969 63.992188 75.125 C 63.992188 75.457031 64.285156 75.457031 64.558594 75.457031 Z M 75.125 75.457031 "/>
<path style=" stroke:none;fill-rule:nonzero;fill:rgb(0%,0%,0%);fill-opacity:1;" d="M 89.753906 70.730469 C 90.125 70.730469 90.261719 70.730469 90.261719 70.398438 C 90.261719 70.203125 90.125 70.203125 89.792969 70.203125 L 88.347656 70.203125 C 88.679688 68.367188 88.933594 67.097656 89.089844 66.511719 C 89.1875 66.082031 89.558594 65.671875 90.027344 65.671875 C 90.398438 65.671875 90.789062 65.828125 90.964844 66.003906 C 90.261719 66.0625 90.046875 66.589844 90.046875 66.902344 C 90.046875 67.253906 90.320312 67.46875 90.652344 67.46875 C 91.023438 67.46875 91.550781 67.15625 91.550781 66.472656 C 91.550781 65.730469 90.808594 65.320312 90.007812 65.320312 C 89.246094 65.320312 88.484375 65.886719 88.132812 66.589844 C 87.800781 67.214844 87.625 67.859375 87.214844 70.203125 L 86.023438 70.203125 C 85.671875 70.203125 85.496094 70.203125 85.496094 70.535156 C 85.496094 70.730469 85.59375 70.730469 85.964844 70.730469 L 87.117188 70.730469 C 86.785156 72.390625 86.042969 76.453125 85.632812 78.367188 C 85.339844 79.929688 85.066406 81.238281 84.167969 81.238281 C 84.109375 81.238281 83.601562 81.238281 83.269531 80.886719 C 84.1875 80.828125 84.1875 80.027344 84.1875 80.007812 C 84.1875 79.65625 83.914062 79.441406 83.582031 79.441406 C 83.210938 79.441406 82.683594 79.753906 82.683594 80.4375 C 82.683594 81.199219 83.464844 81.589844 84.167969 81.589844 C 86.003906 81.589844 86.746094 78.308594 86.941406 77.410156 C 87.273438 76.042969 88.152344 71.277344 88.230469 70.730469 Z M 89.753906 70.730469 "/>
<path style=" stroke:none;fill-rule:nonzero;fill:rgb(0%,0%,0%);fill-opacity:1;" d="M 98.234375 82.292969 C 98.234375 82.234375 98.234375 82.195312 97.941406 81.902344 C 96.144531 80.085938 95.148438 77.136719 95.148438 73.464844 C 95.148438 69.988281 95.988281 67 98.058594 64.890625 C 98.234375 64.714844 98.234375 64.695312 98.234375 64.636719 C 98.234375 64.519531 98.15625 64.5 98.078125 64.5 C 97.84375 64.5 96.378906 65.789062 95.5 67.546875 C 94.582031 69.34375 94.171875 71.277344 94.171875 73.464844 C 94.171875 75.066406 94.425781 77.195312 95.363281 79.128906 C 96.417969 81.277344 97.882812 82.429688 98.078125 82.429688 C 98.15625 82.429688 98.234375 82.410156 98.234375 82.292969 Z M 98.234375 82.292969 "/>
<path style=" stroke:none;fill-rule:nonzero;fill:rgb(0%,0%,0%);fill-opacity:1;" d="M 107.8125 70.613281 C 107.246094 70.730469 107.03125 71.160156 107.03125 71.492188 C 107.03125 71.921875 107.363281 72.078125 107.617188 72.078125 C 108.164062 72.078125 108.535156 71.609375 108.535156 71.121094 C 108.535156 70.378906 107.675781 70.027344 106.914062 70.027344 C 105.820312 70.027344 105.214844 71.101562 105.058594 71.453125 C 104.648438 70.105469 103.535156 70.027344 103.203125 70.027344 C 101.386719 70.027344 100.410156 72.371094 100.410156 72.78125 C 100.410156 72.839844 100.488281 72.9375 100.605469 72.9375 C 100.742188 72.9375 100.78125 72.820312 100.820312 72.761719 C 101.425781 70.769531 102.636719 70.398438 103.144531 70.398438 C 103.964844 70.398438 104.121094 71.140625 104.121094 71.570312 C 104.121094 71.960938 104.023438 72.371094 103.789062 73.230469 L 103.183594 75.691406 C 102.929688 76.765625 102.402344 77.761719 101.445312 77.761719 C 101.367188 77.761719 100.917969 77.761719 100.527344 77.527344 C 101.171875 77.390625 101.328125 76.863281 101.328125 76.648438 C 101.328125 76.296875 101.054688 76.082031 100.722656 76.082031 C 100.292969 76.082031 99.824219 76.453125 99.824219 77.019531 C 99.824219 77.78125 100.664062 78.113281 101.425781 78.113281 C 102.285156 78.113281 102.910156 77.429688 103.28125 76.707031 C 103.574219 77.761719 104.453125 78.113281 105.117188 78.113281 C 106.953125 78.113281 107.929688 75.769531 107.929688 75.378906 C 107.929688 75.28125 107.851562 75.203125 107.734375 75.203125 C 107.578125 75.203125 107.558594 75.300781 107.519531 75.4375 C 107.03125 77.019531 105.976562 77.761719 105.175781 77.761719 C 104.550781 77.761719 104.21875 77.292969 104.21875 76.550781 C 104.21875 76.160156 104.277344 75.867188 104.570312 74.695312 L 105.195312 72.253906 C 105.46875 71.179688 106.074219 70.398438 106.894531 70.398438 C 106.933594 70.398438 107.441406 70.398438 107.8125 70.613281 Z M 107.8125 70.613281 "/>
<path style=" stroke:none;fill-rule:nonzero;fill:rgb(0%,0%,0%);fill-opacity:1;" d="M 114.421875 73.464844 C 114.421875 72.117188 114.246094 69.890625 113.230469 67.800781 C 112.175781 65.652344 110.710938 64.5 110.515625 64.5 C 110.4375 64.5 110.339844 64.519531 110.339844 64.636719 C 110.339844 64.695312 110.339844 64.714844 110.652344 65.027344 C 112.449219 66.84375 113.445312 69.792969 113.445312 73.464844 C 113.445312 76.941406 112.605469 79.929688 110.535156 82.039062 C 110.339844 82.195312 110.339844 82.234375 110.339844 82.292969 C 110.339844 82.410156 110.4375 82.429688 110.515625 82.429688 C 110.75 82.429688 112.214844 81.140625 113.09375 79.382812 C 114.011719 77.566406 114.421875 75.632812 114.421875 73.464844 Z M 114.421875 73.464844 "/>
<path style=" stroke:none;fill-rule:nonzero;fill:rgb(0%,0%,0%);fill-opacity:1;" d="M 128.828125 72.683594 C 128.828125 70.964844 127.597656 69.714844 125.917969 69.714844 C 124.84375 69.714844 124.042969 69.949219 123.164062 70.457031 L 123.261719 71.648438 C 124.0625 71.0625 124.882812 70.75 125.917969 70.75 C 126.738281 70.75 127.460938 71.414062 127.460938 72.722656 L 127.460938 73.464844 C 126.660156 73.484375 125.585938 73.542969 124.511719 73.894531 C 123.300781 74.324219 122.597656 74.988281 122.597656 75.867188 C 122.597656 76.667969 123.066406 78.113281 124.589844 78.113281 C 125.585938 78.113281 126.835938 77.820312 127.5 77.273438 L 127.5 77.9375 L 128.828125 77.9375 Z M 127.460938 75.535156 C 127.460938 75.886719 127.460938 76.316406 126.875 76.6875 C 126.386719 76.980469 125.78125 77.039062 125.507812 77.039062 C 124.550781 77.039062 123.886719 76.511719 123.886719 75.867188 C 123.886719 74.636719 126.367188 74.363281 127.460938 74.363281 Z M 127.460938 75.535156 "/>
<path style=" stroke:none;fill-rule:nonzero;fill:rgb(0%,0%,0%);fill-opacity:1;" d="M 137.8125 72.546875 C 137.8125 71.453125 137.578125 69.792969 135.410156 69.792969 C 134.414062 69.792969 133.554688 70.242188 132.871094 71.101562 L 132.871094 69.890625 L 131.601562 69.890625 L 131.601562 77.9375 L 132.949219 77.9375 L 132.949219 73.464844 C 132.949219 72.371094 133.378906 70.867188 134.726562 70.867188 C 136.40625 70.867188 136.445312 72.039062 136.445312 72.664062 L 136.445312 77.9375 L 137.8125 77.9375 Z M 137.8125 72.546875 "/>
<path style=" stroke:none;fill-rule:nonzero;fill:rgb(0%,0%,0%);fill-opacity:1;" d="M 146.792969 65.496094 L 145.464844 65.496094 L 145.464844 70.730469 C 144.644531 70.046875 143.707031 69.792969 142.945312 69.792969 C 141.246094 69.792969 139.839844 71.628906 139.839844 73.953125 C 139.839844 76.277344 141.167969 78.113281 142.867188 78.113281 C 143.53125 78.113281 144.546875 77.898438 145.445312 77.019531 L 145.445312 77.9375 L 146.792969 77.9375 Z M 145.445312 75.828125 C 145.015625 76.589844 144.371094 77.039062 143.589844 77.039062 C 142.496094 77.039062 141.207031 76.199219 141.207031 73.972656 C 141.207031 71.589844 142.730469 70.867188 143.765625 70.867188 C 144.46875 70.867188 145.035156 71.238281 145.445312 71.824219 Z M 145.445312 75.828125 "/>
<path style=" stroke:none;fill-rule:nonzero;fill:rgb(0%,0%,0%);fill-opacity:1;" d="M 158.921875 92.511719 C 159.507812 92.492188 159.800781 92.082031 159.800781 91.652344 C 159.800781 91.046875 159.371094 90.773438 158.941406 90.773438 C 158.511719 90.773438 158.0625 91.027344 158.0625 91.652344 C 158.0625 92.570312 158.960938 93.332031 160.054688 93.332031 C 162.789062 93.332031 163.804688 89.132812 165.074219 83.9375 C 166.460938 78.273438 167.632812 72.550781 168.589844 66.789062 C 169.253906 62.980469 169.917969 59.386719 170.523438 57.082031 C 170.738281 56.203125 171.363281 53.878906 172.046875 53.878906 C 172.613281 53.878906 173.0625 54.230469 173.140625 54.289062 C 172.535156 54.328125 172.242188 54.71875 172.242188 55.167969 C 172.242188 55.773438 172.691406 56.046875 173.101562 56.046875 C 173.53125 56.046875 173.980469 55.792969 173.980469 55.148438 C 173.980469 54.191406 173.003906 53.488281 172.027344 53.488281 C 170.660156 53.488281 169.644531 55.441406 168.667969 59.09375 C 168.609375 59.289062 166.167969 68.292969 164.195312 80.03125 C 163.726562 82.765625 163.21875 85.753906 162.632812 88.253906 C 162.300781 89.5625 161.480469 92.941406 160.015625 92.941406 C 159.371094 92.941406 158.941406 92.511719 158.921875 92.511719 Z M 158.921875 92.511719 "/>
<path style=" stroke:none;fill-rule:nonzero;fill:rgb(0%,0%,0%);fill-opacity:1;" d="M 185.902344 70.730469 C 186.273438 70.730469 186.410156 70.730469 186.410156 70.398438 C 186.410156 70.203125 186.273438 70.203125 185.941406 70.203125 L 184.496094 70.203125 C 184.828125 68.367188 185.082031 67.097656 185.238281 66.511719 C 185.335938 66.082031 185.707031 65.671875 186.175781 65.671875 C 186.546875 65.671875 186.9375 65.828125 187.113281 66.003906 C 186.410156 66.0625 186.195312 66.589844 186.195312 66.902344 C 186.195312 67.253906 186.46875 67.46875 186.800781 67.46875 C 187.171875 67.46875 187.699219 67.15625 187.699219 66.472656 C 187.699219 65.730469 186.957031 65.320312 186.15625 65.320312 C 185.394531 65.320312 184.632812 65.886719 184.28125 66.589844 C 183.949219 67.214844 183.773438 67.859375 183.363281 70.203125 L 182.171875 70.203125 C 181.820312 70.203125 181.644531 70.203125 181.644531 70.535156 C 181.644531 70.730469 181.742188 70.730469 182.113281 70.730469 L 183.265625 70.730469 C 182.933594 72.390625 182.191406 76.453125 181.78125 78.367188 C 181.488281 79.929688 181.214844 81.238281 180.316406 81.238281 C 180.257812 81.238281 179.75 81.238281 179.417969 80.886719 C 180.335938 80.828125 180.335938 80.027344 180.335938 80.007812 C 180.335938 79.65625 180.0625 79.441406 179.730469 79.441406 C 179.359375 79.441406 178.832031 79.753906 178.832031 80.4375 C 178.832031 81.199219 179.613281 81.589844 180.316406 81.589844 C 182.152344 81.589844 182.894531 78.308594 183.089844 77.410156 C 183.421875 76.042969 184.300781 71.277344 184.378906 70.730469 Z M 185.902344 70.730469 "/>
<path style=" stroke:none;fill-rule:nonzero;fill:rgb(0%,0%,0%);fill-opacity:1;" d="M 194.386719 82.292969 C 194.386719 82.234375 194.386719 82.195312 194.09375 81.902344 C 192.296875 80.085938 191.300781 77.136719 191.300781 73.464844 C 191.300781 69.988281 192.140625 67 194.210938 64.890625 C 194.386719 64.714844 194.386719 64.695312 194.386719 64.636719 C 194.386719 64.519531 194.308594 64.5 194.230469 64.5 C 193.996094 64.5 192.53125 65.789062 191.652344 67.546875 C 190.734375 69.34375 190.324219 71.277344 190.324219 73.464844 C 190.324219 75.066406 190.578125 77.195312 191.515625 79.128906 C 192.570312 81.277344 194.035156 82.429688 194.230469 82.429688 C 194.308594 82.429688 194.386719 82.410156 194.386719 82.292969 Z M 194.386719 82.292969 "/>
<path style=" stroke:none;fill-rule:nonzero;fill:rgb(0%,0%,0%);fill-opacity:1;" d="M 203.960938 70.613281 C 203.394531 70.730469 203.179688 71.160156 203.179688 71.492188 C 203.179688 71.921875 203.511719 72.078125 203.765625 72.078125 C 204.3125 72.078125 204.683594 71.609375 204.683594 71.121094 C 204.683594 70.378906 203.824219 70.027344 203.0625 70.027344 C 201.96875 70.027344 201.363281 71.101562 201.207031 71.453125 C 200.796875 70.105469 199.683594 70.027344 199.351562 70.027344 C 197.535156 70.027344 196.558594 72.371094 196.558594 72.78125 C 196.558594 72.839844 196.636719 72.9375 196.753906 72.9375 C 196.890625 72.9375 196.929688 72.820312 196.96875 72.761719 C 197.574219 70.769531 198.785156 70.398438 199.292969 70.398438 C 200.113281 70.398438 200.269531 71.140625 200.269531 71.570312 C 200.269531 71.960938 200.171875 72.371094 199.9375 73.230469 L 199.332031 75.691406 C 199.078125 76.765625 198.550781 77.761719 197.59375 77.761719 C 197.515625 77.761719 197.066406 77.761719 196.675781 77.527344 C 197.320312 77.390625 197.476562 76.863281 197.476562 76.648438 C 197.476562 76.296875 197.203125 76.082031 196.871094 76.082031 C 196.441406 76.082031 195.972656 76.453125 195.972656 77.019531 C 195.972656 77.78125 196.8125 78.113281 197.574219 78.113281 C 198.433594 78.113281 199.058594 77.429688 199.429688 76.707031 C 199.722656 77.761719 200.601562 78.113281 201.265625 78.113281 C 203.101562 78.113281 204.078125 75.769531 204.078125 75.378906 C 204.078125 75.28125 204 75.203125 203.882812 75.203125 C 203.726562 75.203125 203.707031 75.300781 203.667969 75.4375 C 203.179688 77.019531 202.125 77.761719 201.324219 77.761719 C 200.699219 77.761719 200.367188 77.292969 200.367188 76.550781 C 200.367188 76.160156 200.425781 75.867188 200.71875 74.695312 L 201.34375 72.253906 C 201.617188 71.179688 202.222656 70.398438 203.042969 70.398438 C 203.082031 70.398438 203.589844 70.398438 203.960938 70.613281 Z M 203.960938 70.613281 "/>
<path style=" stroke:none;fill-rule:nonzero;fill:rgb(0%,0%,0%);fill-opacity:1;" d="M 210.574219 73.464844 C 210.574219 72.117188 210.398438 69.890625 209.382812 67.800781 C 208.328125 65.652344 206.863281 64.5 206.667969 64.5 C 206.589844 64.5 206.492188 64.519531 206.492188 64.636719 C 206.492188 64.695312 206.492188 64.714844 206.804688 65.027344 C 208.601562 66.84375 209.597656 69.792969 209.597656 73.464844 C 209.597656 76.941406 208.757812 79.929688 206.6875 82.039062 C 206.492188 82.195312 206.492188 82.234375 206.492188 82.292969 C 206.492188 82.410156 206.589844 82.429688 206.667969 82.429688 C 206.902344 82.429688 208.367188 81.140625 209.246094 79.382812 C 210.164062 77.566406 210.574219 75.632812 210.574219 73.464844 Z M 210.574219 73.464844 "/>
<path style=" stroke:none;fill-rule:nonzero;fill:rgb(0%,0%,0%);fill-opacity:1;" d="M 219.601562 73.464844 C 219.601562 72.9375 219.171875 72.507812 218.664062 72.507812 C 218.136719 72.507812 217.707031 72.9375 217.707031 73.464844 C 217.707031 73.972656 218.136719 74.402344 218.664062 74.402344 C 219.171875 74.402344 219.601562 73.972656 219.601562 73.464844 Z M 219.601562 73.464844 "/>
<path style=" stroke:none;fill-rule:nonzero;fill:rgb(0%,0%,0%);fill-opacity:1;" d="M 234.1875 65.945312 C 234.207031 65.867188 234.246094 65.769531 234.246094 65.671875 C 234.246094 65.496094 234.050781 65.496094 234.011719 65.496094 C 234.011719 65.496094 233.132812 65.574219 233.035156 65.574219 C 232.722656 65.59375 232.46875 65.632812 232.136719 65.652344 C 231.6875 65.691406 231.570312 65.710938 231.570312 66.023438 C 231.570312 66.21875 231.707031 66.21875 231.960938 66.21875 C 232.839844 66.21875 232.859375 66.375 232.859375 66.550781 C 232.859375 66.667969 232.820312 66.804688 232.800781 66.863281 L 231.707031 71.21875 C 231.511719 70.75 231.023438 70.027344 230.085938 70.027344 C 228.074219 70.027344 225.886719 72.644531 225.886719 75.300781 C 225.886719 77.078125 226.921875 78.113281 228.132812 78.113281 C 229.128906 78.113281 229.96875 77.351562 230.476562 76.746094 C 230.652344 77.820312 231.492188 78.113281 232.039062 78.113281 C 232.566406 78.113281 232.996094 77.800781 233.328125 77.15625 C 233.601562 76.53125 233.855469 75.4375 233.855469 75.378906 C 233.855469 75.28125 233.796875 75.203125 233.679688 75.203125 C 233.523438 75.203125 233.503906 75.300781 233.425781 75.574219 C 233.152344 76.628906 232.820312 77.761719 232.078125 77.761719 C 231.570312 77.761719 231.53125 77.292969 231.53125 76.941406 C 231.53125 76.863281 231.53125 76.492188 231.648438 75.984375 Z M 230.554688 75.808594 C 230.476562 76.101562 230.476562 76.140625 230.222656 76.492188 C 229.832031 76.980469 229.03125 77.761719 228.191406 77.761719 C 227.46875 77.761719 227.039062 77.097656 227.039062 76.042969 C 227.039062 75.046875 227.605469 73.035156 227.9375 72.292969 C 228.5625 71.042969 229.402344 70.398438 230.085938 70.398438 C 231.277344 70.398438 231.511719 71.863281 231.511719 72 C 231.511719 72.019531 231.453125 72.253906 231.433594 72.292969 Z M 230.554688 75.808594 "/>
<path style=" stroke:none;fill-rule:nonzero;fill:rgb(0%,0%,0%);fill-opacity:1;" d="M 242.8125 70.613281 C 242.242188 70.730469 242.03125 71.160156 242.03125 71.492188 C 242.03125 71.921875 242.359375 72.078125 242.617188 72.078125 C 243.164062 72.078125 243.53125 71.609375 243.53125 71.121094 C 243.53125 70.378906 242.671875 70.027344 241.914062 70.027344 C 240.820312 70.027344 240.210938 71.101562 240.054688 71.453125 C 239.648438 70.105469 238.53125 70.027344 238.203125 70.027344 C 236.382812 70.027344 235.40625 72.371094 235.40625 72.78125 C 235.40625 72.839844 235.484375 72.9375 235.601562 72.9375 C 235.742188 72.9375 235.78125 72.820312 235.820312 72.761719 C 236.421875 70.769531 237.632812 70.398438 238.140625 70.398438 C 238.960938 70.398438 239.117188 71.140625 239.117188 71.570312 C 239.117188 71.960938 239.023438 72.371094 238.789062 73.230469 L 238.179688 75.691406 C 237.929688 76.765625 237.398438 77.761719 236.445312 77.761719 C 236.367188 77.761719 235.914062 77.761719 235.523438 77.527344 C 236.171875 77.390625 236.328125 76.863281 236.328125 76.648438 C 236.328125 76.296875 236.054688 76.082031 235.71875 76.082031 C 235.289062 76.082031 234.820312 76.453125 234.820312 77.019531 C 234.820312 77.78125 235.664062 78.113281 236.421875 78.113281 C 237.28125 78.113281 237.90625 77.429688 238.28125 76.707031 C 238.570312 77.761719 239.453125 78.113281 240.117188 78.113281 C 241.953125 78.113281 242.929688 75.769531 242.929688 75.378906 C 242.929688 75.28125 242.851562 75.203125 242.734375 75.203125 C 242.578125 75.203125 242.554688 75.300781 242.515625 75.4375 C 242.03125 77.019531 240.976562 77.761719 240.171875 77.761719 C 239.546875 77.761719 239.21875 77.292969 239.21875 76.550781 C 239.21875 76.160156 239.273438 75.867188 239.570312 74.695312 L 240.195312 72.253906 C 240.46875 71.179688 241.070312 70.398438 241.890625 70.398438 C 241.929688 70.398438 242.4375 70.398438 242.8125 70.613281 Z M 242.8125 70.613281 "/>
<path style=" stroke:none;fill-rule:nonzero;fill:rgb(0%,0%,0%);fill-opacity:1;" d="M 261.273438 72.136719 C 261.527344 72.136719 261.839844 72.136719 261.839844 71.804688 C 261.839844 71.472656 261.527344 71.472656 261.273438 71.472656 L 250.707031 71.472656 C 250.453125 71.472656 250.140625 71.472656 250.140625 71.785156 C 250.140625 72.136719 250.433594 72.136719 250.707031 72.136719 Z M 261.273438 75.457031 C 261.527344 75.457031 261.839844 75.457031 261.839844 75.144531 C 261.839844 74.792969 261.527344 74.792969 261.273438 74.792969 L 250.707031 74.792969 C 250.453125 74.792969 250.140625 74.792969 250.140625 75.125 C 250.140625 75.457031 250.433594 75.457031 250.707031 75.457031 Z M 261.273438 75.457031 "/>
<path style=" stroke:none;fill-rule:nonzero;fill:rgb(0%,0%,0%);fill-opacity:1;" d="M 273.097656 72.097656 L 274.816406 72.097656 C 276.183594 72.097656 276.28125 72.390625 276.28125 72.917969 C 276.28125 73.152344 276.242188 73.40625 276.164062 73.796875 C 276.125 73.875 276.105469 73.953125 276.105469 73.992188 C 276.105469 74.109375 276.183594 74.1875 276.300781 74.1875 C 276.4375 74.1875 276.457031 74.109375 276.535156 73.835938 L 277.570312 69.65625 C 277.570312 69.578125 277.511719 69.480469 277.394531 69.480469 C 277.238281 69.480469 277.21875 69.539062 277.140625 69.851562 C 276.769531 71.199219 276.398438 71.570312 274.855469 71.570312 L 273.214844 71.570312 L 274.386719 66.921875 C 274.542969 66.296875 274.582031 66.238281 275.304688 66.238281 L 277.707031 66.238281 C 279.953125 66.238281 280.285156 66.902344 280.285156 68.191406 C 280.285156 68.289062 280.285156 68.679688 280.226562 69.148438 C 280.207031 69.226562 280.167969 69.460938 280.167969 69.519531 C 280.167969 69.675781 280.265625 69.734375 280.363281 69.734375 C 280.5 69.734375 280.558594 69.65625 280.597656 69.324219 L 280.988281 66.199219 C 280.988281 66.140625 281.007812 65.964844 281.007812 65.925781 C 281.007812 65.730469 280.851562 65.730469 280.539062 65.730469 L 272.023438 65.730469 C 271.691406 65.730469 271.515625 65.730469 271.515625 66.042969 C 271.515625 66.238281 271.632812 66.238281 271.945312 66.238281 C 273.058594 66.238281 273.058594 66.375 273.058594 66.570312 C 273.058594 66.667969 273.039062 66.726562 272.980469 66.921875 L 270.558594 76.609375 C 270.402344 77.234375 270.363281 77.410156 269.113281 77.410156 C 268.761719 77.410156 268.585938 77.410156 268.585938 77.742188 C 268.585938 77.9375 268.742188 77.9375 268.859375 77.9375 C 269.191406 77.9375 269.5625 77.898438 269.894531 77.898438 L 272.238281 77.898438 C 272.628906 77.898438 273.058594 77.9375 273.449219 77.9375 C 273.605469 77.9375 273.820312 77.9375 273.820312 77.605469 C 273.820312 77.410156 273.722656 77.410156 273.332031 77.410156 C 271.90625 77.410156 271.867188 77.292969 271.867188 77.019531 C 271.867188 76.941406 271.90625 76.785156 271.945312 76.667969 Z M 273.097656 72.097656 "/>
<path style=" stroke:none;fill-rule:nonzero;fill:rgb(0%,0%,0%);fill-opacity:1;" d="M 287.382812 82.292969 C 287.382812 82.234375 287.382812 82.195312 287.089844 81.902344 C 285.292969 80.085938 284.296875 77.136719 284.296875 73.464844 C 284.296875 69.988281 285.136719 67 287.207031 64.890625 C 287.382812 64.714844 287.382812 64.695312 287.382812 64.636719 C 287.382812 64.519531 287.304688 64.5 287.226562 64.5 C 286.992188 64.5 285.527344 65.789062 284.648438 67.546875 C 283.730469 69.34375 283.320312 71.277344 283.320312 73.464844 C 283.320312 75.066406 283.574219 77.195312 284.511719 79.128906 C 285.566406 81.277344 287.03125 82.429688 287.226562 82.429688 C 287.304688 82.429688 287.382812 82.410156 287.382812 82.292969 Z M 287.382812 82.292969 "/>
<path style=" stroke:none;fill-rule:nonzero;fill:rgb(0%,0%,0%);fill-opacity:1;" d="M 296.960938 70.613281 C 296.394531 70.730469 296.179688 71.160156 296.179688 71.492188 C 296.179688 71.921875 296.511719 72.078125 296.765625 72.078125 C 297.3125 72.078125 297.683594 71.609375 297.683594 71.121094 C 297.683594 70.378906 296.824219 70.027344 296.0625 70.027344 C 294.96875 70.027344 294.363281 71.101562 294.207031 71.453125 C 293.796875 70.105469 292.683594 70.027344 292.351562 70.027344 C 290.535156 70.027344 289.558594 72.371094 289.558594 72.78125 C 289.558594 72.839844 289.636719 72.9375 289.753906 72.9375 C 289.890625 72.9375 289.929688 72.820312 289.96875 72.761719 C 290.574219 70.769531 291.785156 70.398438 292.292969 70.398438 C 293.113281 70.398438 293.269531 71.140625 293.269531 71.570312 C 293.269531 71.960938 293.171875 72.371094 292.9375 73.230469 L 292.332031 75.691406 C 292.078125 76.765625 291.550781 77.761719 290.59375 77.761719 C 290.515625 77.761719 290.066406 77.761719 289.675781 77.527344 C 290.320312 77.390625 290.476562 76.863281 290.476562 76.648438 C 290.476562 76.296875 290.203125 76.082031 289.871094 76.082031 C 289.441406 76.082031 288.972656 76.453125 288.972656 77.019531 C 288.972656 77.78125 289.8125 78.113281 290.574219 78.113281 C 291.433594 78.113281 292.058594 77.429688 292.429688 76.707031 C 292.722656 77.761719 293.601562 78.113281 294.265625 78.113281 C 296.101562 78.113281 297.078125 75.769531 297.078125 75.378906 C 297.078125 75.28125 297 75.203125 296.882812 75.203125 C 296.726562 75.203125 296.707031 75.300781 296.667969 75.4375 C 296.179688 77.019531 295.125 77.761719 294.324219 77.761719 C 293.699219 77.761719 293.367188 77.292969 293.367188 76.550781 C 293.367188 76.160156 293.425781 75.867188 293.71875 74.695312 L 294.34375 72.253906 C 294.617188 71.179688 295.222656 70.398438 296.042969 70.398438 C 296.082031 70.398438 296.589844 70.398438 296.960938 70.613281 Z M 296.960938 70.613281 "/>
<path style=" stroke:none;fill-rule:nonzero;fill:rgb(0%,0%,0%);fill-opacity:1;" d="M 303.574219 73.464844 C 303.574219 72.117188 303.398438 69.890625 302.382812 67.800781 C 301.328125 65.652344 299.863281 64.5 299.667969 64.5 C 299.589844 64.5 299.492188 64.519531 299.492188 64.636719 C 299.492188 64.695312 299.492188 64.714844 299.804688 65.027344 C 301.601562 66.84375 302.597656 69.792969 302.597656 73.464844 C 302.597656 76.941406 301.757812 79.929688 299.6875 82.039062 C 299.492188 82.195312 299.492188 82.234375 299.492188 82.292969 C 299.492188 82.410156 299.589844 82.429688 299.667969 82.429688 C 299.902344 82.429688 301.367188 81.140625 302.246094 79.382812 C 303.164062 77.566406 303.574219 75.632812 303.574219 73.464844 Z M 303.574219 73.464844 "/>
</g>
</svg>
