<?xml version="1.0" encoding="UTF-8"?>
<svg xmlns="http://www.w3.org/2000/svg" xmlns:xlink="http://www.w3.org/1999/xlink" width="311.06842pt" height="187.83134pt" viewBox="0 0 311.06842 187.83134" version="1.1">
<g id="surface1">
<path style=" stroke:none;fill-rule:nonzero;fill:rgb(0%,0%,0%);fill-opacity:1;" d="M 1.675781 0.996094 L 1.675781 13.4375 L 6.304688 13.4375 C 8.84375 13.4375 10.679688 11.816406 10.679688 10.058594 C 10.679688 8.496094 9.117188 7.207031 7.28125 6.933594 C 9.371094 6.347656 10.191406 5.15625 10.191406 4.121094 C 10.191406 2.5 8.355469 0.996094 5.816406 0.996094 Z M 3.140625 6.425781 L 3.140625 1.992188 L 5.347656 1.992188 C 7.261719 1.992188 8.804688 2.949219 8.804688 4.140625 C 8.804688 5.390625 7.261719 6.425781 5.367188 6.425781 Z M 3.140625 12.441406 L 3.140625 7.5 L 5.523438 7.5 C 7.828125 7.5 9.273438 8.789062 9.273438 10.039062 C 9.273438 11.308594 7.808594 12.441406 5.816406 12.441406 Z M 3.140625 12.441406 "/>
<path style=" stroke:none;fill-rule:nonzero;fill:rgb(0%,0%,0%);fill-opacity:1;" d="M 19.46875 5.46875 L 18.140625 5.46875 C 17.300781 7.597656 15.933594 11.113281 15.855469 12.402344 L 15.835938 12.402344 C 15.757812 11.347656 14.800781 8.964844 14.664062 8.613281 L 13.375 5.46875 L 11.96875 5.46875 L 15.308594 13.4375 L 14.664062 15.078125 C 14.273438 15.957031 14.019531 16.054688 13.6875 16.054688 C 13.433594 16.054688 12.867188 15.996094 12.300781 15.78125 L 12.417969 16.953125 C 12.515625 16.972656 13.121094 17.089844 13.6875 17.089844 C 14.117188 17.089844 14.957031 17.089844 15.738281 15.117188 Z M 19.46875 5.46875 "/>
<path style=" stroke:none;fill-rule:nonzero;fill:rgb(0%,0%,0%);fill-opacity:1;" d="M 33.09375 0.996094 L 31.765625 0.996094 L 31.765625 6.230469 C 30.945312 5.546875 30.007812 5.292969 29.246094 5.292969 C 27.546875 5.292969 26.140625 7.128906 26.140625 9.453125 C 26.140625 11.777344 27.46875 13.613281 29.167969 13.613281 C 29.832031 13.613281 30.847656 13.398438 31.746094 12.519531 L 31.746094 13.4375 L 33.09375 13.4375 Z M 31.746094 11.328125 C 31.316406 12.089844 30.671875 12.539062 29.890625 12.539062 C 28.796875 12.539062 27.507812 11.699219 27.507812 9.472656 C 27.507812 7.089844 29.03125 6.367188 30.066406 6.367188 C 30.769531 6.367188 31.335938 6.738281 31.746094 7.324219 Z M 31.746094 11.328125 "/>
<path style=" stroke:none;fill-rule:nonzero;fill:rgb(0%,0%,0%);fill-opacity:1;" d="M 41.820312 9.394531 C 41.820312 8.632812 41.742188 7.539062 41.175781 6.582031 C 40.433594 5.351562 39.183594 5.214844 38.65625 5.214844 C 36.722656 5.214844 35.101562 7.070312 35.101562 9.394531 C 35.101562 11.777344 36.820312 13.613281 38.910156 13.613281 C 39.730469 13.613281 40.726562 13.378906 41.703125 12.675781 C 41.703125 12.597656 41.644531 12.03125 41.644531 12.011719 C 41.625 11.992188 41.605469 11.582031 41.605469 11.523438 C 40.53125 12.421875 39.476562 12.539062 38.949219 12.539062 C 37.5625 12.539062 36.371094 11.308594 36.351562 9.394531 Z M 36.449219 8.4375 C 36.761719 7.226562 37.601562 6.289062 38.65625 6.289062 C 39.222656 6.289062 40.453125 6.542969 40.746094 8.4375 Z M 36.449219 8.4375 "/>
<path style=" stroke:none;fill-rule:nonzero;fill:rgb(0%,0%,0%);fill-opacity:1;" d="M 50.320312 0.976562 L 48.875 0.976562 L 48.875 2.421875 L 50.320312 2.421875 Z M 50.28125 5.46875 L 48.953125 5.46875 L 48.953125 13.4375 L 50.28125 13.4375 Z M 45.417969 6.523438 L 47.46875 6.523438 L 47.46875 5.46875 L 45.378906 5.46875 L 45.378906 3.28125 C 45.378906 2.207031 45.945312 1.894531 46.433594 1.894531 C 46.824219 1.894531 47.234375 2.03125 47.46875 2.207031 L 47.46875 0.996094 C 47.117188 0.859375 47 0.820312 46.433594 0.820312 C 45.105469 0.820312 44.089844 2.089844 44.089844 3.828125 L 44.089844 5.46875 L 42.78125 5.46875 L 42.78125 6.523438 L 44.089844 6.523438 L 44.089844 13.4375 L 45.417969 13.4375 Z M 45.417969 6.523438 "/>
<path style=" stroke:none;fill-rule:nonzero;fill:rgb(0%,0%,0%);fill-opacity:1;" d="M 59.363281 8.046875 C 59.363281 6.953125 59.128906 5.292969 56.960938 5.292969 C 55.964844 5.292969 55.105469 5.742188 54.421875 6.601562 L 54.421875 5.390625 L 53.152344 5.390625 L 53.152344 13.4375 L 54.5 13.4375 L 54.5 8.964844 C 54.5 7.871094 54.929688 6.367188 56.277344 6.367188 C 57.957031 6.367188 57.996094 7.539062 57.996094 8.164062 L 57.996094 13.4375 L 59.363281 13.4375 Z M 59.363281 8.046875 "/>
<path style=" stroke:none;fill-rule:nonzero;fill:rgb(0%,0%,0%);fill-opacity:1;" d="M 63.597656 1.269531 L 62.054688 1.269531 L 62.054688 2.8125 L 63.597656 2.8125 Z M 63.5 5.46875 L 62.171875 5.46875 L 62.171875 13.4375 L 63.5 13.4375 Z M 63.5 5.46875 "/>
<path style=" stroke:none;fill-rule:nonzero;fill:rgb(0%,0%,0%);fill-opacity:1;" d="M 68.03125 6.523438 L 70.511719 6.523438 L 70.511719 5.46875 L 68.03125 5.46875 L 68.03125 3.203125 L 66.800781 3.203125 L 66.800781 5.46875 L 65.296875 5.46875 L 65.296875 6.523438 L 66.761719 6.523438 L 66.761719 11.347656 C 66.761719 12.382812 66.996094 13.613281 68.226562 13.613281 C 69.4375 13.613281 70.257812 13.203125 70.804688 12.910156 L 70.53125 11.875 C 69.90625 12.441406 69.242188 12.5 68.929688 12.5 C 68.128906 12.5 68.03125 11.660156 68.03125 11.035156 Z M 68.03125 6.523438 "/>
<path style=" stroke:none;fill-rule:nonzero;fill:rgb(0%,0%,0%);fill-opacity:1;" d="M 74.097656 1.269531 L 72.554688 1.269531 L 72.554688 2.8125 L 74.097656 2.8125 Z M 74 5.46875 L 72.671875 5.46875 L 72.671875 13.4375 L 74 13.4375 Z M 74 5.46875 "/>
<path style=" stroke:none;fill-rule:nonzero;fill:rgb(0%,0%,0%);fill-opacity:1;" d="M 83.6875 9.492188 C 83.6875 7.070312 81.910156 5.214844 79.859375 5.214844 C 77.75 5.214844 76.011719 7.109375 76.011719 9.492188 C 76.011719 11.835938 77.789062 13.613281 79.839844 13.613281 C 81.949219 13.613281 83.6875 11.796875 83.6875 9.492188 Z M 79.859375 12.5 C 78.570312 12.5 77.359375 11.425781 77.359375 9.316406 C 77.359375 7.148438 78.707031 6.289062 79.839844 6.289062 C 81.070312 6.289062 82.339844 7.207031 82.339844 9.316406 C 82.339844 11.523438 81.050781 12.5 79.859375 12.5 Z M 79.859375 12.5 "/>
<path style=" stroke:none;fill-rule:nonzero;fill:rgb(0%,0%,0%);fill-opacity:1;" d="M 91.910156 8.046875 C 91.910156 6.953125 91.675781 5.292969 89.507812 5.292969 C 88.511719 5.292969 87.652344 5.742188 86.96875 6.601562 L 86.96875 5.390625 L 85.699219 5.390625 L 85.699219 13.4375 L 87.046875 13.4375 L 87.046875 8.964844 C 87.046875 7.871094 87.476562 6.367188 88.824219 6.367188 C 90.503906 6.367188 90.542969 7.539062 90.542969 8.164062 L 90.542969 13.4375 L 91.910156 13.4375 Z M 91.910156 8.046875 "/>
<path style=" stroke:none;fill-rule:nonzero;fill:rgb(0%,0%,0%);fill-opacity:1;" d="M 0 19.152344 L 93.148438 19.152344 L 93.148438 19.902344 L 0 19.902344 Z M 0 19.152344 "/>
<path style=" stroke:none;fill-rule:nonzero;fill:rgb(0%,0%,0%);fill-opacity:1;" d="M 96.328125 13.417969 L 96.328125 11.992188 L 94.863281 11.992188 L 94.863281 13.4375 L 95.3125 13.4375 L 94.863281 15.683594 L 95.585938 15.683594 Z M 96.328125 13.417969 "/>
<path style=" stroke:none;fill-rule:nonzero;fill:rgb(0%,0%,0%);fill-opacity:1;" d="M 105.597656 1.269531 L 104.054688 1.269531 L 104.054688 2.8125 L 105.597656 2.8125 Z M 105.5 5.46875 L 104.171875 5.46875 L 104.171875 13.4375 L 105.5 13.4375 Z M 105.5 5.46875 "/>
<path style=" stroke:none;fill-rule:nonzero;fill:rgb(0%,0%,0%);fill-opacity:1;" d="M 110.070312 6.523438 L 111.984375 6.523438 L 111.984375 5.46875 L 110.03125 5.46875 L 110.03125 3.320312 C 110.03125 2.109375 111.046875 1.894531 111.652344 1.894531 C 112.277344 1.894531 112.824219 2.089844 113.039062 2.167969 L 113.039062 0.996094 C 112.921875 0.957031 112.316406 0.820312 111.671875 0.820312 C 109.953125 0.820312 108.742188 2.128906 108.742188 3.867188 L 108.742188 5.46875 L 107.433594 5.46875 L 107.433594 6.523438 L 108.742188 6.523438 L 108.742188 13.4375 L 110.070312 13.4375 Z M 110.070312 6.523438 "/>
<path style=" stroke:none;fill-rule:nonzero;fill:rgb(0%,0%,0%);fill-opacity:1;" d="M 122.046875 7.597656 L 123.765625 7.597656 C 125.132812 7.597656 125.230469 7.890625 125.230469 8.417969 C 125.230469 8.652344 125.191406 8.90625 125.113281 9.296875 C 125.074219 9.375 125.054688 9.453125 125.054688 9.492188 C 125.054688 9.609375 125.132812 9.6875 125.25 9.6875 C 125.386719 9.6875 125.40625 9.609375 125.484375 9.335938 L 126.519531 5.15625 C 126.519531 5.078125 126.460938 4.980469 126.34375 4.980469 C 126.1875 4.980469 126.167969 5.039062 126.089844 5.351562 C 125.71875 6.699219 125.347656 7.070312 123.804688 7.070312 L 122.164062 7.070312 L 123.335938 2.421875 C 123.492188 1.796875 123.53125 1.738281 124.253906 1.738281 L 126.65625 1.738281 C 128.902344 1.738281 129.234375 2.402344 129.234375 3.691406 C 129.234375 3.789062 129.234375 4.179688 129.175781 4.648438 C 129.15625 4.726562 129.117188 4.960938 129.117188 5.019531 C 129.117188 5.175781 129.214844 5.234375 129.3125 5.234375 C 129.449219 5.234375 129.507812 5.15625 129.546875 4.824219 L 129.9375 1.699219 C 129.9375 1.640625 129.957031 1.464844 129.957031 1.425781 C 129.957031 1.230469 129.800781 1.230469 129.488281 1.230469 L 120.972656 1.230469 C 120.640625 1.230469 120.464844 1.230469 120.464844 1.542969 C 120.464844 1.738281 120.582031 1.738281 120.894531 1.738281 C 122.007812 1.738281 122.007812 1.875 122.007812 2.070312 C 122.007812 2.167969 121.988281 2.226562 121.929688 2.421875 L 119.507812 12.109375 C 119.351562 12.734375 119.3125 12.910156 118.0625 12.910156 C 117.710938 12.910156 117.535156 12.910156 117.535156 13.242188 C 117.535156 13.4375 117.691406 13.4375 117.808594 13.4375 C 118.140625 13.4375 118.511719 13.398438 118.84375 13.398438 L 121.1875 13.398438 C 121.578125 13.398438 122.007812 13.4375 122.398438 13.4375 C 122.554688 13.4375 122.769531 13.4375 122.769531 13.105469 C 122.769531 12.910156 122.671875 12.910156 122.28125 12.910156 C 120.855469 12.910156 120.816406 12.792969 120.816406 12.519531 C 120.816406 12.441406 120.855469 12.285156 120.894531 12.167969 Z M 122.046875 7.597656 "/>
<path style=" stroke:none;fill-rule:nonzero;fill:rgb(0%,0%,0%);fill-opacity:1;" d="M 136.335938 17.792969 C 136.335938 17.734375 136.335938 17.695312 136.042969 17.402344 C 134.246094 15.585938 133.25 12.636719 133.25 8.964844 C 133.25 5.488281 134.089844 2.5 136.160156 0.390625 C 136.335938 0.214844 136.335938 0.195312 136.335938 0.136719 C 136.335938 0.0195312 136.257812 0 136.179688 0 C 135.945312 0 134.480469 1.289062 133.601562 3.046875 C 132.683594 4.84375 132.273438 6.777344 132.273438 8.964844 C 132.273438 10.566406 132.527344 12.695312 133.464844 14.628906 C 134.519531 16.777344 135.984375 17.929688 136.179688 17.929688 C 136.257812 17.929688 136.335938 17.910156 136.335938 17.792969 Z M 136.335938 17.792969 "/>
<path style=" stroke:none;fill-rule:nonzero;fill:rgb(0%,0%,0%);fill-opacity:1;" d="M 145.910156 6.113281 C 145.34375 6.230469 145.128906 6.660156 145.128906 6.992188 C 145.128906 7.421875 145.460938 7.578125 145.714844 7.578125 C 146.261719 7.578125 146.632812 7.109375 146.632812 6.621094 C 146.632812 5.878906 145.773438 5.527344 145.011719 5.527344 C 143.917969 5.527344 143.3125 6.601562 143.15625 6.953125 C 142.746094 5.605469 141.632812 5.527344 141.300781 5.527344 C 139.484375 5.527344 138.507812 7.871094 138.507812 8.28125 C 138.507812 8.339844 138.585938 8.4375 138.703125 8.4375 C 138.839844 8.4375 138.878906 8.320312 138.917969 8.261719 C 139.523438 6.269531 140.734375 5.898438 141.242188 5.898438 C 142.0625 5.898438 142.21875 6.640625 142.21875 7.070312 C 142.21875 7.460938 142.121094 7.871094 141.886719 8.730469 L 141.28125 11.191406 C 141.027344 12.265625 140.5 13.261719 139.542969 13.261719 C 139.464844 13.261719 139.015625 13.261719 138.625 13.027344 C 139.269531 12.890625 139.425781 12.363281 139.425781 12.148438 C 139.425781 11.796875 139.152344 11.582031 138.820312 11.582031 C 138.390625 11.582031 137.921875 11.953125 137.921875 12.519531 C 137.921875 13.28125 138.761719 13.613281 139.523438 13.613281 C 140.382812 13.613281 141.007812 12.929688 141.378906 12.207031 C 141.671875 13.261719 142.550781 13.613281 143.214844 13.613281 C 145.050781 13.613281 146.027344 11.269531 146.027344 10.878906 C 146.027344 10.78125 145.949219 10.703125 145.832031 10.703125 C 145.675781 10.703125 145.65625 10.800781 145.617188 10.9375 C 145.128906 12.519531 144.074219 13.261719 143.273438 13.261719 C 142.648438 13.261719 142.316406 12.792969 142.316406 12.050781 C 142.316406 11.660156 142.375 11.367188 142.667969 10.195312 L 143.292969 7.753906 C 143.566406 6.679688 144.171875 5.898438 144.992188 5.898438 C 145.03125 5.898438 145.539062 5.898438 145.910156 6.113281 Z M 145.910156 6.113281 "/>
<path style=" stroke:none;fill-rule:nonzero;fill:rgb(0%,0%,0%);fill-opacity:1;" d="M 152.523438 8.964844 C 152.523438 7.617188 152.347656 5.390625 151.332031 3.300781 C 150.277344 1.152344 148.8125 0 148.617188 0 C 148.539062 0 148.441406 0.0195312 148.441406 0.136719 C 148.441406 0.195312 148.441406 0.214844 148.753906 0.527344 C 150.550781 2.34375 151.546875 5.292969 151.546875 8.964844 C 151.546875 12.441406 150.707031 15.429688 148.636719 17.539062 C 148.441406 17.695312 148.441406 17.734375 148.441406 17.792969 C 148.441406 17.910156 148.539062 17.929688 148.617188 17.929688 C 148.851562 17.929688 150.316406 16.640625 151.195312 14.882812 C 152.113281 13.066406 152.523438 11.132812 152.523438 8.964844 Z M 152.523438 8.964844 "/>
<path style=" stroke:none;fill-rule:nonzero;fill:rgb(0%,0%,0%);fill-opacity:1;" d="M 161.296875 0.996094 L 159.96875 0.996094 L 159.96875 13.4375 L 161.316406 13.4375 L 161.316406 12.636719 C 162.15625 13.417969 163.035156 13.613281 163.660156 13.613281 C 165.359375 13.613281 166.921875 11.875 166.921875 9.433594 C 166.921875 7.226562 165.730469 5.292969 164.070312 5.292969 C 163.542969 5.292969 162.390625 5.410156 161.296875 6.308594 Z M 161.316406 7.402344 C 161.648438 6.894531 162.292969 6.367188 163.171875 6.367188 C 164.265625 6.367188 165.554688 7.207031 165.554688 9.433594 C 165.554688 11.777344 164.089844 12.539062 162.996094 12.539062 C 162.488281 12.539062 162.15625 12.363281 161.824219 12.109375 C 161.394531 11.738281 161.316406 11.40625 161.316406 11.113281 Z M 161.316406 7.402344 "/>
<path style=" stroke:none;fill-rule:nonzero;fill:rgb(0%,0%,0%);fill-opacity:1;" d="M 175.320312 9.394531 C 175.320312 8.632812 175.242188 7.539062 174.675781 6.582031 C 173.933594 5.351562 172.683594 5.214844 172.15625 5.214844 C 170.222656 5.214844 168.601562 7.070312 168.601562 9.394531 C 168.601562 11.777344 170.320312 13.613281 172.410156 13.613281 C 173.230469 13.613281 174.226562 13.378906 175.203125 12.675781 C 175.203125 12.597656 175.144531 12.03125 175.144531 12.011719 C 175.125 11.992188 175.105469 11.582031 175.105469 11.523438 C 174.03125 12.421875 172.976562 12.539062 172.449219 12.539062 C 171.0625 12.539062 169.871094 11.308594 169.851562 9.394531 Z M 169.949219 8.4375 C 170.261719 7.226562 171.101562 6.289062 172.15625 6.289062 C 172.722656 6.289062 173.953125 6.542969 174.246094 8.4375 Z M 169.949219 8.4375 "/>
<path style=" stroke:none;fill-rule:nonzero;fill:rgb(0%,0%,0%);fill-opacity:1;" d="M 183.378906 6.523438 L 185.859375 6.523438 L 185.859375 5.46875 L 183.378906 5.46875 L 183.378906 3.203125 L 182.148438 3.203125 L 182.148438 5.46875 L 180.644531 5.46875 L 180.644531 6.523438 L 182.109375 6.523438 L 182.109375 11.347656 C 182.109375 12.382812 182.34375 13.613281 183.574219 13.613281 C 184.785156 13.613281 185.605469 13.203125 186.152344 12.910156 L 185.878906 11.875 C 185.253906 12.441406 184.589844 12.5 184.277344 12.5 C 183.476562 12.5 183.378906 11.660156 183.378906 11.035156 Z M 183.378906 6.523438 "/>
<path style=" stroke:none;fill-rule:nonzero;fill:rgb(0%,0%,0%);fill-opacity:1;" d="M 194.210938 8.046875 C 194.210938 6.953125 193.976562 5.292969 191.808594 5.292969 C 190.578125 5.292969 189.757812 5.996094 189.328125 6.542969 L 189.328125 0.996094 L 188 0.996094 L 188 13.4375 L 189.347656 13.4375 L 189.347656 8.964844 C 189.347656 7.871094 189.777344 6.367188 191.125 6.367188 C 192.804688 6.367188 192.84375 7.539062 192.84375 8.164062 L 192.84375 13.4375 L 194.210938 13.4375 Z M 194.210938 8.046875 "/>
<path style=" stroke:none;fill-rule:nonzero;fill:rgb(0%,0%,0%);fill-opacity:1;" d="M 202.917969 9.394531 C 202.917969 8.632812 202.839844 7.539062 202.273438 6.582031 C 201.53125 5.351562 200.28125 5.214844 199.753906 5.214844 C 197.820312 5.214844 196.199219 7.070312 196.199219 9.394531 C 196.199219 11.777344 197.917969 13.613281 200.007812 13.613281 C 200.828125 13.613281 201.824219 13.378906 202.800781 12.675781 C 202.800781 12.597656 202.742188 12.03125 202.742188 12.011719 C 202.722656 11.992188 202.703125 11.582031 202.703125 11.523438 C 201.628906 12.421875 200.574219 12.539062 200.046875 12.539062 C 198.660156 12.539062 197.46875 11.308594 197.449219 9.394531 Z M 197.546875 8.4375 C 197.859375 7.226562 198.699219 6.289062 199.753906 6.289062 C 200.320312 6.289062 201.550781 6.542969 201.84375 8.4375 Z M 197.546875 8.4375 "/>
<path style=" stroke:none;fill-rule:nonzero;fill:rgb(0%,0%,0%);fill-opacity:1;" d="M 214.925781 8.183594 C 214.925781 6.464844 213.695312 5.214844 212.015625 5.214844 C 210.941406 5.214844 210.140625 5.449219 209.261719 5.957031 L 209.359375 7.148438 C 210.160156 6.5625 210.980469 6.25 212.015625 6.25 C 212.835938 6.25 213.558594 6.914062 213.558594 8.222656 L 213.558594 8.964844 C 212.757812 8.984375 211.683594 9.042969 210.609375 9.394531 C 209.398438 9.824219 208.695312 10.488281 208.695312 11.367188 C 208.695312 12.167969 209.164062 13.613281 210.6875 13.613281 C 211.683594 13.613281 212.933594 13.320312 213.597656 12.773438 L 213.597656 13.4375 L 214.925781 13.4375 Z M 213.558594 11.035156 C 213.558594 11.386719 213.558594 11.816406 212.972656 12.1875 C 212.484375 12.480469 211.878906 12.539062 211.605469 12.539062 C 210.648438 12.539062 209.984375 12.011719 209.984375 11.367188 C 209.984375 10.136719 212.464844 9.863281 213.558594 9.863281 Z M 213.558594 11.035156 "/>
<path style=" stroke:none;fill-rule:nonzero;fill:rgb(0%,0%,0%);fill-opacity:1;" d="M 223.910156 8.046875 C 223.910156 6.953125 223.675781 5.292969 221.507812 5.292969 C 220.511719 5.292969 219.652344 5.742188 218.96875 6.601562 L 218.96875 5.390625 L 217.699219 5.390625 L 217.699219 13.4375 L 219.046875 13.4375 L 219.046875 8.964844 C 219.046875 7.871094 219.476562 6.367188 220.824219 6.367188 C 222.503906 6.367188 222.542969 7.539062 222.542969 8.164062 L 222.542969 13.4375 L 223.910156 13.4375 Z M 223.910156 8.046875 "/>
<path style=" stroke:none;fill-rule:nonzero;fill:rgb(0%,0%,0%);fill-opacity:1;" d="M 228.378906 6.523438 L 230.859375 6.523438 L 230.859375 5.46875 L 228.378906 5.46875 L 228.378906 3.203125 L 227.148438 3.203125 L 227.148438 5.46875 L 225.644531 5.46875 L 225.644531 6.523438 L 227.109375 6.523438 L 227.109375 11.347656 C 227.109375 12.382812 227.34375 13.613281 228.574219 13.613281 C 229.785156 13.613281 230.605469 13.203125 231.152344 12.910156 L 230.878906 11.875 C 230.253906 12.441406 229.589844 12.5 229.277344 12.5 C 228.476562 12.5 228.378906 11.660156 228.378906 11.035156 Z M 228.378906 6.523438 "/>
<path style=" stroke:none;fill-rule:nonzero;fill:rgb(0%,0%,0%);fill-opacity:1;" d="M 234.445312 1.269531 L 232.902344 1.269531 L 232.902344 2.8125 L 234.445312 2.8125 Z M 234.347656 5.46875 L 233.019531 5.46875 L 233.019531 13.4375 L 234.347656 13.4375 Z M 234.347656 5.46875 "/>
<path style=" stroke:none;fill-rule:nonzero;fill:rgb(0%,0%,0%);fill-opacity:1;" d="M 240.675781 9.980469 L 240.675781 8.945312 L 236.007812 8.945312 L 236.007812 9.980469 Z M 240.675781 9.980469 "/>
<path style=" stroke:none;fill-rule:nonzero;fill:rgb(0%,0%,0%);fill-opacity:1;" d="M 249.242188 0.996094 L 247.914062 0.996094 L 247.914062 6.230469 C 247.09375 5.546875 246.15625 5.292969 245.394531 5.292969 C 243.695312 5.292969 242.289062 7.128906 242.289062 9.453125 C 242.289062 11.777344 243.617188 13.613281 245.316406 13.613281 C 245.980469 13.613281 246.996094 13.398438 247.894531 12.519531 L 247.894531 13.4375 L 249.242188 13.4375 Z M 247.894531 11.328125 C 247.464844 12.089844 246.820312 12.539062 246.039062 12.539062 C 244.945312 12.539062 243.65625 11.699219 243.65625 9.472656 C 243.65625 7.089844 245.179688 6.367188 246.214844 6.367188 C 246.917969 6.367188 247.484375 6.738281 247.894531 7.324219 Z M 247.894531 11.328125 "/>
<path style=" stroke:none;fill-rule:nonzero;fill:rgb(0%,0%,0%);fill-opacity:1;" d="M 257.96875 9.394531 C 257.96875 8.632812 257.890625 7.539062 257.324219 6.582031 C 256.582031 5.351562 255.332031 5.214844 254.804688 5.214844 C 252.871094 5.214844 251.25 7.070312 251.25 9.394531 C 251.25 11.777344 252.96875 13.613281 255.058594 13.613281 C 255.878906 13.613281 256.875 13.378906 257.851562 12.675781 C 257.851562 12.597656 257.792969 12.03125 257.792969 12.011719 C 257.773438 11.992188 257.753906 11.582031 257.753906 11.523438 C 256.679688 12.421875 255.625 12.539062 255.097656 12.539062 C 253.710938 12.539062 252.519531 11.308594 252.5 9.394531 Z M 252.597656 8.4375 C 252.910156 7.226562 253.75 6.289062 254.804688 6.289062 C 255.371094 6.289062 256.601562 6.542969 256.894531 8.4375 Z M 252.597656 8.4375 "/>
<path style=" stroke:none;fill-rule:nonzero;fill:rgb(0%,0%,0%);fill-opacity:1;" d="M 261.199219 9.511719 C 261.199219 7.695312 262.546875 6.523438 264.167969 6.503906 L 264.167969 5.292969 C 262.527344 5.3125 261.589844 6.269531 261.101562 6.972656 L 261.101562 5.390625 L 259.871094 5.390625 L 259.871094 13.4375 L 261.199219 13.4375 Z M 261.199219 9.511719 "/>
<path style=" stroke:none;fill-rule:nonzero;fill:rgb(0%,0%,0%);fill-opacity:1;" d="M 267.296875 1.269531 L 265.753906 1.269531 L 265.753906 2.8125 L 267.296875 2.8125 Z M 267.199219 5.46875 L 265.871094 5.46875 L 265.871094 13.4375 L 267.199219 13.4375 Z M 267.199219 5.46875 "/>
<path style=" stroke:none;fill-rule:nonzero;fill:rgb(0%,0%,0%);fill-opacity:1;" d="M 276.417969 5.46875 L 275.089844 5.46875 L 273.78125 9.042969 C 273.46875 9.902344 272.804688 11.796875 272.707031 12.460938 L 272.6875 12.460938 C 272.589844 11.835938 272.238281 10.859375 271.964844 10.078125 L 270.304688 5.46875 L 268.917969 5.46875 L 271.867188 13.4375 L 273.46875 13.4375 Z M 276.417969 5.46875 "/>
<path style=" stroke:none;fill-rule:nonzero;fill:rgb(0%,0%,0%);fill-opacity:1;" d="M 283.777344 8.183594 C 283.777344 6.464844 282.546875 5.214844 280.867188 5.214844 C 279.792969 5.214844 278.992188 5.449219 278.113281 5.957031 L 278.210938 7.148438 C 279.011719 6.5625 279.832031 6.25 280.867188 6.25 C 281.6875 6.25 282.410156 6.914062 282.410156 8.222656 L 282.410156 8.964844 C 281.609375 8.984375 280.535156 9.042969 279.460938 9.394531 C 278.25 9.824219 277.546875 10.488281 277.546875 11.367188 C 277.546875 12.167969 278.015625 13.613281 279.539062 13.613281 C 280.535156 13.613281 281.785156 13.320312 282.449219 12.773438 L 282.449219 13.4375 L 283.777344 13.4375 Z M 282.410156 11.035156 C 282.410156 11.386719 282.410156 11.816406 281.824219 12.1875 C 281.335938 12.480469 280.730469 12.539062 280.457031 12.539062 C 279.5 12.539062 278.835938 12.011719 278.835938 11.367188 C 278.835938 10.136719 281.316406 9.863281 282.410156 9.863281 Z M 282.410156 11.035156 "/>
<path style=" stroke:none;fill-rule:nonzero;fill:rgb(0%,0%,0%);fill-opacity:1;" d="M 288.230469 6.523438 L 290.710938 6.523438 L 290.710938 5.46875 L 288.230469 5.46875 L 288.230469 3.203125 L 287 3.203125 L 287 5.46875 L 285.496094 5.46875 L 285.496094 6.523438 L 286.960938 6.523438 L 286.960938 11.347656 C 286.960938 12.382812 287.195312 13.613281 288.425781 13.613281 C 289.636719 13.613281 290.457031 13.203125 291.003906 12.910156 L 290.730469 11.875 C 290.105469 12.441406 289.441406 12.5 289.128906 12.5 C 288.328125 12.5 288.230469 11.660156 288.230469 11.035156 Z M 288.230469 6.523438 "/>
<path style=" stroke:none;fill-rule:nonzero;fill:rgb(0%,0%,0%);fill-opacity:1;" d="M 294.296875 1.269531 L 292.753906 1.269531 L 292.753906 2.8125 L 294.296875 2.8125 Z M 294.199219 5.46875 L 292.871094 5.46875 L 292.871094 13.4375 L 294.199219 13.4375 Z M 294.199219 5.46875 "/>
<path style=" stroke:none;fill-rule:nonzero;fill:rgb(0%,0%,0%);fill-opacity:1;" d="M 303.417969 5.46875 L 302.089844 5.46875 L 300.78125 9.042969 C 300.46875 9.902344 299.804688 11.796875 299.707031 12.460938 L 299.6875 12.460938 C 299.589844 11.835938 299.238281 10.859375 298.964844 10.078125 L 297.304688 5.46875 L 295.917969 5.46875 L 298.867188 13.4375 L 300.46875 13.4375 Z M 303.417969 5.46875 "/>
<path style=" stroke:none;fill-rule:nonzero;fill:rgb(0%,0%,0%);fill-opacity:1;" d="M 311.070312 9.394531 C 311.070312 8.632812 310.992188 7.539062 310.425781 6.582031 C 309.683594 5.351562 308.433594 5.214844 307.90625 5.214844 C 305.972656 5.214844 304.351562 7.070312 304.351562 9.394531 C 304.351562 11.777344 306.070312 13.613281 308.160156 13.613281 C 308.980469 13.613281 309.976562 13.378906 310.953125 12.675781 C 310.953125 12.597656 310.894531 12.03125 310.894531 12.011719 C 310.875 11.992188 310.855469 11.582031 310.855469 11.523438 C 309.78125 12.421875 308.726562 12.539062 308.199219 12.539062 C 306.8125 12.539062 305.621094 11.308594 305.601562 9.394531 Z M 305.699219 8.4375 C 306.011719 7.226562 306.851562 6.289062 307.90625 6.289062 C 308.472656 6.289062 309.703125 6.542969 309.996094 8.4375 Z M 305.699219 8.4375 "/>
<path style=" stroke:none;fill-rule:nonzero;fill:rgb(0%,0%,0%);fill-opacity:1;" d="M 8.238281 30.640625 C 8.238281 28.21875 6.460938 26.363281 4.410156 26.363281 C 2.300781 26.363281 0.5625 28.257812 0.5625 30.640625 C 0.5625 32.984375 2.339844 34.761719 4.390625 34.761719 C 6.5 34.761719 8.238281 32.945312 8.238281 30.640625 Z M 4.410156 33.648438 C 3.121094 33.648438 1.910156 32.574219 1.910156 30.464844 C 1.910156 28.296875 3.257812 27.4375 4.390625 27.4375 C 5.621094 27.4375 6.890625 28.355469 6.890625 30.464844 C 6.890625 32.671875 5.601562 33.648438 4.410156 33.648438 Z M 4.410156 33.648438 "/>
<path style=" stroke:none;fill-rule:nonzero;fill:rgb(0%,0%,0%);fill-opacity:1;" d="M 11.96875 27.671875 L 13.882812 27.671875 L 13.882812 26.617188 L 11.929688 26.617188 L 11.929688 24.46875 C 11.929688 23.257812 12.945312 23.042969 13.550781 23.042969 C 14.175781 23.042969 14.722656 23.238281 14.9375 23.316406 L 14.9375 22.144531 C 14.820312 22.105469 14.214844 21.96875 13.570312 21.96875 C 11.851562 21.96875 10.640625 23.277344 10.640625 25.015625 L 10.640625 26.617188 L 9.332031 26.617188 L 9.332031 27.671875 L 10.640625 27.671875 L 10.640625 34.585938 L 11.96875 34.585938 Z M 11.96875 27.671875 "/>
<path style=" stroke:none;fill-rule:nonzero;fill:rgb(0%,0%,0%);fill-opacity:1;" d="M 27.125 29.332031 C 27.125 27.613281 25.894531 26.363281 24.214844 26.363281 C 23.140625 26.363281 22.339844 26.597656 21.460938 27.105469 L 21.558594 28.296875 C 22.359375 27.710938 23.179688 27.398438 24.214844 27.398438 C 25.035156 27.398438 25.757812 28.0625 25.757812 29.371094 L 25.757812 30.113281 C 24.957031 30.132812 23.882812 30.191406 22.808594 30.542969 C 21.597656 30.972656 20.894531 31.636719 20.894531 32.515625 C 20.894531 33.316406 21.363281 34.761719 22.886719 34.761719 C 23.882812 34.761719 25.132812 34.46875 25.796875 33.921875 L 25.796875 34.585938 L 27.125 34.585938 Z M 25.757812 32.183594 C 25.757812 32.535156 25.757812 32.964844 25.171875 33.335938 C 24.683594 33.628906 24.078125 33.6875 23.804688 33.6875 C 22.847656 33.6875 22.183594 33.160156 22.183594 32.515625 C 22.183594 31.285156 24.664062 31.011719 25.757812 31.011719 Z M 25.757812 32.183594 "/>
<path style=" stroke:none;fill-rule:nonzero;fill:rgb(0%,0%,0%);fill-opacity:1;" d="M 37.46875 27.671875 L 39.382812 27.671875 L 39.382812 26.617188 L 37.429688 26.617188 L 37.429688 24.46875 C 37.429688 23.257812 38.445312 23.042969 39.050781 23.042969 C 39.675781 23.042969 40.222656 23.238281 40.4375 23.316406 L 40.4375 22.144531 C 40.320312 22.105469 39.714844 21.96875 39.070312 21.96875 C 37.351562 21.96875 36.140625 23.277344 36.140625 25.015625 L 36.140625 26.617188 L 34.832031 26.617188 L 34.832031 27.671875 L 36.140625 27.671875 L 36.140625 34.585938 L 37.46875 34.585938 Z M 37.46875 27.671875 "/>
<path style=" stroke:none;fill-rule:nonzero;fill:rgb(0%,0%,0%);fill-opacity:1;" d="M 47.363281 26.617188 L 45.996094 26.617188 L 45.996094 31.753906 C 45.996094 33.121094 45.058594 33.785156 43.886719 33.785156 C 42.636719 33.785156 42.5 33.316406 42.5 32.515625 L 42.5 26.617188 L 41.152344 26.617188 L 41.152344 32.59375 C 41.152344 33.882812 41.5625 34.761719 43.027344 34.761719 C 43.535156 34.761719 44.941406 34.683594 46.035156 33.6875 L 46.035156 34.585938 L 47.363281 34.585938 Z M 47.363281 26.617188 "/>
<path style=" stroke:none;fill-rule:nonzero;fill:rgb(0%,0%,0%);fill-opacity:1;" d="M 56.363281 29.195312 C 56.363281 28.101562 56.128906 26.441406 53.960938 26.441406 C 52.964844 26.441406 52.105469 26.890625 51.421875 27.75 L 51.421875 26.539062 L 50.152344 26.539062 L 50.152344 34.585938 L 51.5 34.585938 L 51.5 30.113281 C 51.5 29.019531 51.929688 27.515625 53.277344 27.515625 C 54.957031 27.515625 54.996094 28.6875 54.996094 29.3125 L 54.996094 34.585938 L 56.363281 34.585938 Z M 56.363281 29.195312 "/>
<path style=" stroke:none;fill-rule:nonzero;fill:rgb(0%,0%,0%);fill-opacity:1;" d="M 64.953125 32.652344 C 64.132812 33.316406 63.214844 33.648438 62.21875 33.648438 C 60.714844 33.648438 59.757812 32.320312 59.757812 30.582031 C 59.757812 29.097656 60.480469 27.476562 62.257812 27.476562 C 63.46875 27.476562 63.976562 27.75 64.738281 28.277344 L 64.953125 27.105469 C 63.917969 26.5 63.332031 26.363281 62.257812 26.363281 C 59.796875 26.363281 58.390625 28.550781 58.390625 30.582031 C 58.390625 32.886719 60.050781 34.761719 62.199219 34.761719 C 63.078125 34.761719 64.074219 34.546875 65.070312 33.824219 C 65.070312 33.785156 65.011719 33.21875 64.992188 33.160156 Z M 64.953125 32.652344 "/>
<path style=" stroke:none;fill-rule:nonzero;fill:rgb(0%,0%,0%);fill-opacity:1;" d="M 68.628906 27.671875 L 71.109375 27.671875 L 71.109375 26.617188 L 68.628906 26.617188 L 68.628906 24.351562 L 67.398438 24.351562 L 67.398438 26.617188 L 65.894531 26.617188 L 65.894531 27.671875 L 67.359375 27.671875 L 67.359375 32.496094 C 67.359375 33.53125 67.59375 34.761719 68.824219 34.761719 C 70.035156 34.761719 70.855469 34.351562 71.402344 34.058594 L 71.128906 33.023438 C 70.503906 33.589844 69.839844 33.648438 69.527344 33.648438 C 68.726562 33.648438 68.628906 32.808594 68.628906 32.183594 Z M 68.628906 27.671875 "/>
<path style=" stroke:none;fill-rule:nonzero;fill:rgb(0%,0%,0%);fill-opacity:1;" d="M 74.695312 22.417969 L 73.152344 22.417969 L 73.152344 23.960938 L 74.695312 23.960938 Z M 74.597656 26.617188 L 73.269531 26.617188 L 73.269531 34.585938 L 74.597656 34.585938 Z M 74.597656 26.617188 "/>
<path style=" stroke:none;fill-rule:nonzero;fill:rgb(0%,0%,0%);fill-opacity:1;" d="M 84.285156 30.640625 C 84.285156 28.21875 82.507812 26.363281 80.457031 26.363281 C 78.347656 26.363281 76.609375 28.257812 76.609375 30.640625 C 76.609375 32.984375 78.386719 34.761719 80.4375 34.761719 C 82.546875 34.761719 84.285156 32.945312 84.285156 30.640625 Z M 80.457031 33.648438 C 79.167969 33.648438 77.957031 32.574219 77.957031 30.464844 C 77.957031 28.296875 79.304688 27.4375 80.4375 27.4375 C 81.667969 27.4375 82.9375 28.355469 82.9375 30.464844 C 82.9375 32.671875 81.648438 33.648438 80.457031 33.648438 Z M 80.457031 33.648438 "/>
<path style=" stroke:none;fill-rule:nonzero;fill:rgb(0%,0%,0%);fill-opacity:1;" d="M 92.511719 29.195312 C 92.511719 28.101562 92.277344 26.441406 90.109375 26.441406 C 89.113281 26.441406 88.253906 26.890625 87.570312 27.75 L 87.570312 26.539062 L 86.300781 26.539062 L 86.300781 34.585938 L 87.648438 34.585938 L 87.648438 30.113281 C 87.648438 29.019531 88.078125 27.515625 89.425781 27.515625 C 91.105469 27.515625 91.144531 28.6875 91.144531 29.3125 L 91.144531 34.585938 L 92.511719 34.585938 Z M 92.511719 29.195312 "/>
<path style=" stroke:none;fill-rule:nonzero;fill:rgb(0%,0%,0%);fill-opacity:1;" d="M 107.601562 27.378906 C 107.972656 27.378906 108.109375 27.378906 108.109375 27.046875 C 108.109375 26.851562 107.972656 26.851562 107.640625 26.851562 L 106.195312 26.851562 C 106.527344 25.015625 106.78125 23.746094 106.9375 23.160156 C 107.035156 22.730469 107.40625 22.320312 107.875 22.320312 C 108.246094 22.320312 108.636719 22.476562 108.8125 22.652344 C 108.109375 22.710938 107.894531 23.238281 107.894531 23.550781 C 107.894531 23.902344 108.167969 24.117188 108.5 24.117188 C 108.871094 24.117188 109.398438 23.804688 109.398438 23.121094 C 109.398438 22.378906 108.65625 21.96875 107.855469 21.96875 C 107.09375 21.96875 106.332031 22.535156 105.980469 23.238281 C 105.648438 23.863281 105.472656 24.507812 105.0625 26.851562 L 103.871094 26.851562 C 103.519531 26.851562 103.34375 26.851562 103.34375 27.183594 C 103.34375 27.378906 103.441406 27.378906 103.8125 27.378906 L 104.964844 27.378906 C 104.632812 29.039062 103.890625 33.101562 103.480469 35.015625 C 103.1875 36.578125 102.914062 37.886719 102.015625 37.886719 C 101.957031 37.886719 101.449219 37.886719 101.117188 37.535156 C 102.035156 37.476562 102.035156 36.675781 102.035156 36.65625 C 102.035156 36.304688 101.761719 36.089844 101.429688 36.089844 C 101.058594 36.089844 100.53125 36.402344 100.53125 37.085938 C 100.53125 37.847656 101.3125 38.238281 102.015625 38.238281 C 103.851562 38.238281 104.59375 34.957031 104.789062 34.058594 C 105.121094 32.691406 106 27.925781 106.078125 27.378906 Z M 107.601562 27.378906 "/>
<path style=" stroke:none;fill-rule:nonzero;fill:rgb(0%,0%,0%);fill-opacity:1;" d="M 116.085938 38.941406 C 116.085938 38.882812 116.085938 38.84375 115.792969 38.550781 C 113.996094 36.734375 113 33.785156 113 30.113281 C 113 26.636719 113.839844 23.648438 115.910156 21.539062 C 116.085938 21.363281 116.085938 21.34375 116.085938 21.285156 C 116.085938 21.167969 116.007812 21.148438 115.929688 21.148438 C 115.695312 21.148438 114.230469 22.4375 113.351562 24.195312 C 112.433594 25.992188 112.023438 27.925781 112.023438 30.113281 C 112.023438 31.714844 112.277344 33.84375 113.214844 35.777344 C 114.269531 37.925781 115.734375 39.078125 115.929688 39.078125 C 116.007812 39.078125 116.085938 39.058594 116.085938 38.941406 Z M 116.085938 38.941406 "/>
<path style=" stroke:none;fill-rule:nonzero;fill:rgb(0%,0%,0%);fill-opacity:1;" d="M 125.660156 27.261719 C 125.09375 27.378906 124.878906 27.808594 124.878906 28.140625 C 124.878906 28.570312 125.210938 28.726562 125.464844 28.726562 C 126.011719 28.726562 126.382812 28.257812 126.382812 27.769531 C 126.382812 27.027344 125.523438 26.675781 124.761719 26.675781 C 123.667969 26.675781 123.0625 27.75 122.90625 28.101562 C 122.496094 26.753906 121.382812 26.675781 121.050781 26.675781 C 119.234375 26.675781 118.257812 29.019531 118.257812 29.429688 C 118.257812 29.488281 118.335938 29.585938 118.453125 29.585938 C 118.589844 29.585938 118.628906 29.46875 118.667969 29.410156 C 119.273438 27.417969 120.484375 27.046875 120.992188 27.046875 C 121.8125 27.046875 121.96875 27.789062 121.96875 28.21875 C 121.96875 28.609375 121.871094 29.019531 121.636719 29.878906 L 121.03125 32.339844 C 120.777344 33.414062 120.25 34.410156 119.292969 34.410156 C 119.214844 34.410156 118.765625 34.410156 118.375 34.175781 C 119.019531 34.039062 119.175781 33.511719 119.175781 33.296875 C 119.175781 32.945312 118.902344 32.730469 118.570312 32.730469 C 118.140625 32.730469 117.671875 33.101562 117.671875 33.667969 C 117.671875 34.429688 118.511719 34.761719 119.273438 34.761719 C 120.132812 34.761719 120.757812 34.078125 121.128906 33.355469 C 121.421875 34.410156 122.300781 34.761719 122.964844 34.761719 C 124.800781 34.761719 125.777344 32.417969 125.777344 32.027344 C 125.777344 31.929688 125.699219 31.851562 125.582031 31.851562 C 125.425781 31.851562 125.40625 31.949219 125.367188 32.085938 C 124.878906 33.667969 123.824219 34.410156 123.023438 34.410156 C 122.398438 34.410156 122.066406 33.941406 122.066406 33.199219 C 122.066406 32.808594 122.125 32.515625 122.417969 31.34375 L 123.042969 28.902344 C 123.316406 27.828125 123.921875 27.046875 124.742188 27.046875 C 124.78125 27.046875 125.289062 27.046875 125.660156 27.261719 Z M 125.660156 27.261719 "/>
<path style=" stroke:none;fill-rule:nonzero;fill:rgb(0%,0%,0%);fill-opacity:1;" d="M 132.273438 30.113281 C 132.273438 28.765625 132.097656 26.539062 131.082031 24.449219 C 130.027344 22.300781 128.5625 21.148438 128.367188 21.148438 C 128.289062 21.148438 128.191406 21.167969 128.191406 21.285156 C 128.191406 21.34375 128.191406 21.363281 128.503906 21.675781 C 130.300781 23.492188 131.296875 26.441406 131.296875 30.113281 C 131.296875 33.589844 130.457031 36.578125 128.386719 38.6875 C 128.191406 38.84375 128.191406 38.882812 128.191406 38.941406 C 128.191406 39.058594 128.289062 39.078125 128.367188 39.078125 C 128.601562 39.078125 130.066406 37.789062 130.945312 36.03125 C 131.863281 34.214844 132.273438 32.28125 132.273438 30.113281 Z M 132.273438 30.113281 "/>
<path style=" stroke:none;fill-rule:nonzero;fill:rgb(0%,0%,0%);fill-opacity:1;" d="M 137.277344 34.566406 L 137.277344 33.140625 L 135.8125 33.140625 L 135.8125 34.585938 L 136.261719 34.585938 L 135.8125 36.832031 L 136.535156 36.832031 Z M 137.277344 34.566406 "/>
<path style=" stroke:none;fill-rule:nonzero;fill:rgb(0%,0%,0%);fill-opacity:1;" d="M 147.53125 27.671875 L 150.011719 27.671875 L 150.011719 26.617188 L 147.53125 26.617188 L 147.53125 24.351562 L 146.300781 24.351562 L 146.300781 26.617188 L 144.796875 26.617188 L 144.796875 27.671875 L 146.261719 27.671875 L 146.261719 32.496094 C 146.261719 33.53125 146.496094 34.761719 147.726562 34.761719 C 148.9375 34.761719 149.757812 34.351562 150.304688 34.058594 L 150.03125 33.023438 C 149.40625 33.589844 148.742188 33.648438 148.429688 33.648438 C 147.628906 33.648438 147.53125 32.808594 147.53125 32.183594 Z M 147.53125 27.671875 "/>
<path style=" stroke:none;fill-rule:nonzero;fill:rgb(0%,0%,0%);fill-opacity:1;" d="M 158.363281 29.195312 C 158.363281 28.101562 158.128906 26.441406 155.960938 26.441406 C 154.730469 26.441406 153.910156 27.144531 153.480469 27.691406 L 153.480469 22.144531 L 152.152344 22.144531 L 152.152344 34.585938 L 153.5 34.585938 L 153.5 30.113281 C 153.5 29.019531 153.929688 27.515625 155.277344 27.515625 C 156.957031 27.515625 156.996094 28.6875 156.996094 29.3125 L 156.996094 34.585938 L 158.363281 34.585938 Z M 158.363281 29.195312 "/>
<path style=" stroke:none;fill-rule:nonzero;fill:rgb(0%,0%,0%);fill-opacity:1;" d="M 167.070312 30.542969 C 167.070312 29.78125 166.992188 28.6875 166.425781 27.730469 C 165.683594 26.5 164.433594 26.363281 163.90625 26.363281 C 161.972656 26.363281 160.351562 28.21875 160.351562 30.542969 C 160.351562 32.925781 162.070312 34.761719 164.160156 34.761719 C 164.980469 34.761719 165.976562 34.527344 166.953125 33.824219 C 166.953125 33.746094 166.894531 33.179688 166.894531 33.160156 C 166.875 33.140625 166.855469 32.730469 166.855469 32.671875 C 165.78125 33.570312 164.726562 33.6875 164.199219 33.6875 C 162.8125 33.6875 161.621094 32.457031 161.601562 30.542969 Z M 161.699219 29.585938 C 162.011719 28.375 162.851562 27.4375 163.90625 27.4375 C 164.472656 27.4375 165.703125 27.691406 165.996094 29.585938 Z M 161.699219 29.585938 "/>
<path style=" stroke:none;fill-rule:nonzero;fill:rgb(0%,0%,0%);fill-opacity:1;" d="M 175.160156 29.195312 C 175.160156 28.101562 174.925781 26.441406 172.757812 26.441406 C 171.761719 26.441406 170.902344 26.890625 170.21875 27.75 L 170.21875 26.539062 L 168.949219 26.539062 L 168.949219 34.585938 L 170.296875 34.585938 L 170.296875 30.113281 C 170.296875 29.019531 170.726562 27.515625 172.074219 27.515625 C 173.753906 27.515625 173.792969 28.6875 173.792969 29.3125 L 173.792969 34.585938 L 175.160156 34.585938 Z M 175.160156 29.195312 "/>
<path style=" stroke:none;fill-rule:nonzero;fill:rgb(0%,0%,0%);fill-opacity:1;" d="M 50.738281 58.296875 C 50.757812 58.21875 50.796875 58.121094 50.796875 58.023438 C 50.796875 57.847656 50.601562 57.847656 50.5625 57.847656 C 50.5625 57.847656 49.683594 57.925781 49.585938 57.925781 C 49.273438 57.945312 49.019531 57.984375 48.6875 58.003906 C 48.238281 58.042969 48.121094 58.0625 48.121094 58.375 C 48.121094 58.570312 48.257812 58.570312 48.511719 58.570312 C 49.390625 58.570312 49.410156 58.726562 49.410156 58.902344 C 49.410156 59.019531 49.371094 59.15625 49.351562 59.214844 L 48.257812 63.570312 C 48.0625 63.101562 47.574219 62.378906 46.636719 62.378906 C 44.625 62.378906 42.4375 64.996094 42.4375 67.652344 C 42.4375 69.429688 43.472656 70.464844 44.683594 70.464844 C 45.679688 70.464844 46.519531 69.703125 47.027344 69.097656 C 47.203125 70.171875 48.042969 70.464844 48.589844 70.464844 C 49.117188 70.464844 49.546875 70.152344 49.878906 69.507812 C 50.152344 68.882812 50.40625 67.789062 50.40625 67.730469 C 50.40625 67.632812 50.347656 67.554688 50.230469 67.554688 C 50.074219 67.554688 50.054688 67.652344 49.976562 67.925781 C 49.703125 68.980469 49.371094 70.113281 48.628906 70.113281 C 48.121094 70.113281 48.082031 69.644531 48.082031 69.292969 C 48.082031 69.214844 48.082031 68.84375 48.199219 68.335938 Z M 47.105469 68.160156 C 47.027344 68.453125 47.027344 68.492188 46.773438 68.84375 C 46.382812 69.332031 45.582031 70.113281 44.742188 70.113281 C 44.019531 70.113281 43.589844 69.449219 43.589844 68.394531 C 43.589844 67.398438 44.15625 65.386719 44.488281 64.644531 C 45.113281 63.394531 45.953125 62.75 46.636719 62.75 C 47.828125 62.75 48.0625 64.214844 48.0625 64.351562 C 48.0625 64.371094 48.003906 64.605469 47.984375 64.644531 Z M 47.105469 68.160156 "/>
<path style=" stroke:none;fill-rule:nonzero;fill:rgb(0%,0%,0%);fill-opacity:1;" d="M 36.601562 77.5 L 55.800781 77.5 L 55.800781 78.253906 L 36.601562 78.253906 Z M 36.601562 77.5 "/>
<path style=" stroke:none;fill-rule:nonzero;fill:rgb(0%,0%,0%);fill-opacity:1;" d="M 45.636719 82.746094 C 45.65625 82.667969 45.695312 82.570312 45.695312 82.472656 C 45.695312 82.296875 45.5 82.296875 45.460938 82.296875 C 45.460938 82.296875 44.582031 82.375 44.484375 82.375 C 44.171875 82.394531 43.917969 82.433594 43.585938 82.453125 C 43.136719 82.492188 43.019531 82.511719 43.019531 82.824219 C 43.019531 83.019531 43.15625 83.019531 43.410156 83.019531 C 44.289062 83.019531 44.308594 83.175781 44.308594 83.351562 C 44.308594 83.46875 44.269531 83.605469 44.25 83.664062 L 43.15625 88.019531 C 42.960938 87.550781 42.472656 86.828125 41.535156 86.828125 C 39.523438 86.828125 37.335938 89.445312 37.335938 92.101562 C 37.335938 93.878906 38.371094 94.914062 39.582031 94.914062 C 40.578125 94.914062 41.417969 94.152344 41.925781 93.546875 C 42.101562 94.621094 42.941406 94.914062 43.488281 94.914062 C 44.015625 94.914062 44.445312 94.601562 44.777344 93.957031 C 45.050781 93.332031 45.304688 92.238281 45.304688 92.179688 C 45.304688 92.082031 45.246094 92.003906 45.128906 92.003906 C 44.972656 92.003906 44.953125 92.101562 44.875 92.375 C 44.601562 93.429688 44.269531 94.5625 43.527344 94.5625 C 43.019531 94.5625 42.980469 94.09375 42.980469 93.742188 C 42.980469 93.664062 42.980469 93.292969 43.097656 92.785156 Z M 42.003906 92.609375 C 41.925781 92.902344 41.925781 92.941406 41.671875 93.292969 C 41.28125 93.78125 40.480469 94.5625 39.640625 94.5625 C 38.917969 94.5625 38.488281 93.898438 38.488281 92.84375 C 38.488281 91.847656 39.054688 89.835938 39.386719 89.09375 C 40.011719 87.84375 40.851562 87.199219 41.535156 87.199219 C 42.726562 87.199219 42.960938 88.664062 42.960938 88.800781 C 42.960938 88.820312 42.902344 89.054688 42.882812 89.09375 Z M 42.003906 92.609375 "/>
<path style=" stroke:none;fill-rule:nonzero;fill:rgb(0%,0%,0%);fill-opacity:1;" d="M 54.261719 87.414062 C 53.695312 87.53125 53.480469 87.960938 53.480469 88.292969 C 53.480469 88.722656 53.8125 88.878906 54.066406 88.878906 C 54.613281 88.878906 54.984375 88.410156 54.984375 87.921875 C 54.984375 87.179688 54.125 86.828125 53.363281 86.828125 C 52.269531 86.828125 51.664062 87.902344 51.507812 88.253906 C 51.097656 86.90625 49.984375 86.828125 49.652344 86.828125 C 47.835938 86.828125 46.859375 89.171875 46.859375 89.582031 C 46.859375 89.640625 46.9375 89.738281 47.054688 89.738281 C 47.191406 89.738281 47.230469 89.621094 47.269531 89.5625 C 47.875 87.570312 49.085938 87.199219 49.59375 87.199219 C 50.414062 87.199219 50.570312 87.941406 50.570312 88.371094 C 50.570312 88.761719 50.472656 89.171875 50.238281 90.03125 L 49.632812 92.492188 C 49.378906 93.566406 48.851562 94.5625 47.894531 94.5625 C 47.816406 94.5625 47.367188 94.5625 46.976562 94.328125 C 47.621094 94.191406 47.777344 93.664062 47.777344 93.449219 C 47.777344 93.097656 47.503906 92.882812 47.171875 92.882812 C 46.742188 92.882812 46.273438 93.253906 46.273438 93.820312 C 46.273438 94.582031 47.113281 94.914062 47.875 94.914062 C 48.734375 94.914062 49.359375 94.230469 49.730469 93.507812 C 50.023438 94.5625 50.902344 94.914062 51.566406 94.914062 C 53.402344 94.914062 54.378906 92.570312 54.378906 92.179688 C 54.378906 92.082031 54.300781 92.003906 54.183594 92.003906 C 54.027344 92.003906 54.007812 92.101562 53.96875 92.238281 C 53.480469 93.820312 52.425781 94.5625 51.625 94.5625 C 51 94.5625 50.667969 94.09375 50.667969 93.351562 C 50.667969 92.960938 50.726562 92.667969 51.019531 91.496094 L 51.644531 89.054688 C 51.917969 87.980469 52.523438 87.199219 53.34375 87.199219 C 53.382812 87.199219 53.890625 87.199219 54.261719 87.414062 Z M 54.261719 87.414062 "/>
<path style=" stroke:none;fill-rule:nonzero;fill:rgb(0%,0%,0%);fill-opacity:1;" d="M 62.648438 76.597656 L 64.367188 76.597656 C 65.734375 76.597656 65.832031 76.890625 65.832031 77.417969 C 65.832031 77.652344 65.792969 77.90625 65.714844 78.296875 C 65.675781 78.375 65.65625 78.453125 65.65625 78.492188 C 65.65625 78.609375 65.734375 78.6875 65.851562 78.6875 C 65.988281 78.6875 66.007812 78.609375 66.085938 78.335938 L 67.121094 74.15625 C 67.121094 74.078125 67.0625 73.980469 66.945312 73.980469 C 66.789062 73.980469 66.769531 74.039062 66.691406 74.351562 C 66.320312 75.699219 65.949219 76.070312 64.40625 76.070312 L 62.765625 76.070312 L 63.9375 71.421875 C 64.09375 70.796875 64.132812 70.738281 64.855469 70.738281 L 67.257812 70.738281 C 69.503906 70.738281 69.835938 71.402344 69.835938 72.691406 C 69.835938 72.789062 69.835938 73.179688 69.777344 73.648438 C 69.757812 73.726562 69.71875 73.960938 69.71875 74.019531 C 69.71875 74.175781 69.816406 74.234375 69.914062 74.234375 C 70.050781 74.234375 70.109375 74.15625 70.148438 73.824219 L 70.539062 70.699219 C 70.539062 70.640625 70.558594 70.464844 70.558594 70.425781 C 70.558594 70.230469 70.402344 70.230469 70.089844 70.230469 L 61.574219 70.230469 C 61.242188 70.230469 61.066406 70.230469 61.066406 70.542969 C 61.066406 70.738281 61.183594 70.738281 61.496094 70.738281 C 62.609375 70.738281 62.609375 70.875 62.609375 71.070312 C 62.609375 71.167969 62.589844 71.226562 62.53125 71.421875 L 60.109375 81.109375 C 59.953125 81.734375 59.914062 81.910156 58.664062 81.910156 C 58.3125 81.910156 58.136719 81.910156 58.136719 82.242188 C 58.136719 82.4375 58.292969 82.4375 58.410156 82.4375 C 58.742188 82.4375 59.113281 82.398438 59.445312 82.398438 L 61.789062 82.398438 C 62.179688 82.398438 62.609375 82.4375 63 82.4375 C 63.15625 82.4375 63.371094 82.4375 63.371094 82.105469 C 63.371094 81.910156 63.273438 81.910156 62.882812 81.910156 C 61.457031 81.910156 61.417969 81.792969 61.417969 81.519531 C 61.417969 81.441406 61.457031 81.285156 61.496094 81.167969 Z M 62.648438 76.597656 "/>
<path style=" stroke:none;fill-rule:nonzero;fill:rgb(0%,0%,0%);fill-opacity:1;" d="M 76.933594 86.792969 C 76.933594 86.734375 76.933594 86.695312 76.640625 86.402344 C 74.84375 84.585938 73.847656 81.636719 73.847656 77.964844 C 73.847656 74.488281 74.6875 71.5 76.757812 69.390625 C 76.933594 69.214844 76.933594 69.195312 76.933594 69.136719 C 76.933594 69.019531 76.855469 69 76.777344 69 C 76.542969 69 75.078125 70.289062 74.199219 72.046875 C 73.28125 73.84375 72.871094 75.777344 72.871094 77.964844 C 72.871094 79.566406 73.125 81.695312 74.0625 83.628906 C 75.117188 85.777344 76.582031 86.929688 76.777344 86.929688 C 76.855469 86.929688 76.933594 86.910156 76.933594 86.792969 Z M 76.933594 86.792969 "/>
<path style=" stroke:none;fill-rule:nonzero;fill:rgb(0%,0%,0%);fill-opacity:1;" d="M 86.511719 75.113281 C 85.945312 75.230469 85.730469 75.660156 85.730469 75.992188 C 85.730469 76.421875 86.0625 76.578125 86.316406 76.578125 C 86.863281 76.578125 87.234375 76.109375 87.234375 75.621094 C 87.234375 74.878906 86.375 74.527344 85.613281 74.527344 C 84.519531 74.527344 83.914062 75.601562 83.757812 75.953125 C 83.347656 74.605469 82.234375 74.527344 81.902344 74.527344 C 80.085938 74.527344 79.109375 76.871094 79.109375 77.28125 C 79.109375 77.339844 79.1875 77.4375 79.304688 77.4375 C 79.441406 77.4375 79.480469 77.320312 79.519531 77.261719 C 80.125 75.269531 81.335938 74.898438 81.84375 74.898438 C 82.664062 74.898438 82.820312 75.640625 82.820312 76.070312 C 82.820312 76.460938 82.722656 76.871094 82.488281 77.730469 L 81.882812 80.191406 C 81.628906 81.265625 81.101562 82.261719 80.144531 82.261719 C 80.066406 82.261719 79.617188 82.261719 79.226562 82.027344 C 79.871094 81.890625 80.027344 81.363281 80.027344 81.148438 C 80.027344 80.796875 79.753906 80.582031 79.421875 80.582031 C 78.992188 80.582031 78.523438 80.953125 78.523438 81.519531 C 78.523438 82.28125 79.363281 82.613281 80.125 82.613281 C 80.984375 82.613281 81.609375 81.929688 81.980469 81.207031 C 82.273438 82.261719 83.152344 82.613281 83.816406 82.613281 C 85.652344 82.613281 86.628906 80.269531 86.628906 79.878906 C 86.628906 79.78125 86.550781 79.703125 86.433594 79.703125 C 86.277344 79.703125 86.257812 79.800781 86.21875 79.9375 C 85.730469 81.519531 84.675781 82.261719 83.875 82.261719 C 83.25 82.261719 82.917969 81.792969 82.917969 81.050781 C 82.917969 80.660156 82.976562 80.367188 83.269531 79.195312 L 83.894531 76.753906 C 84.167969 75.679688 84.773438 74.898438 85.59375 74.898438 C 85.632812 74.898438 86.140625 74.898438 86.511719 75.113281 Z M 86.511719 75.113281 "/>
<path style=" stroke:none;fill-rule:nonzero;fill:rgb(0%,0%,0%);fill-opacity:1;" d="M 93.121094 77.964844 C 93.121094 76.617188 92.945312 74.390625 91.929688 72.300781 C 90.875 70.152344 89.410156 69 89.214844 69 C 89.136719 69 89.039062 69.019531 89.039062 69.136719 C 89.039062 69.195312 89.039062 69.214844 89.351562 69.527344 C 91.148438 71.34375 92.144531 74.292969 92.144531 77.964844 C 92.144531 81.441406 91.304688 84.429688 89.234375 86.539062 C 89.039062 86.695312 89.039062 86.734375 89.039062 86.792969 C 89.039062 86.910156 89.136719 86.929688 89.214844 86.929688 C 89.449219 86.929688 90.914062 85.640625 91.792969 83.882812 C 92.710938 82.066406 93.121094 80.132812 93.121094 77.964844 Z M 93.121094 77.964844 "/>
<path style=" stroke:none;fill-rule:nonzero;fill:rgb(0%,0%,0%);fill-opacity:1;" d="M 111.722656 76.636719 C 111.976562 76.636719 112.289062 76.636719 112.289062 76.304688 C 112.289062 75.972656 111.976562 75.972656 111.722656 75.972656 L 101.15625 75.972656 C 100.902344 75.972656 100.589844 75.972656 100.589844 76.285156 C 100.589844 76.636719 100.882812 76.636719 101.15625 76.636719 Z M 111.722656 79.957031 C 111.976562 79.957031 112.289062 79.957031 112.289062 79.644531 C 112.289062 79.292969 111.976562 79.292969 111.722656 79.292969 L 101.15625 79.292969 C 100.902344 79.292969 100.589844 79.292969 100.589844 79.625 C 100.589844 79.957031 100.882812 79.957031 101.15625 79.957031 Z M 111.722656 79.957031 "/>
<path style=" stroke:none;fill-rule:nonzero;fill:rgb(0%,0%,0%);fill-opacity:1;" d="M 126.351562 75.230469 C 126.722656 75.230469 126.859375 75.230469 126.859375 74.898438 C 126.859375 74.703125 126.722656 74.703125 126.390625 74.703125 L 124.945312 74.703125 C 125.277344 72.867188 125.53125 71.597656 125.6875 71.011719 C 125.785156 70.582031 126.15625 70.171875 126.625 70.171875 C 126.996094 70.171875 127.386719 70.328125 127.5625 70.503906 C 126.859375 70.5625 126.644531 71.089844 126.644531 71.402344 C 126.644531 71.753906 126.917969 71.96875 127.25 71.96875 C 127.621094 71.96875 128.148438 71.65625 128.148438 70.972656 C 128.148438 70.230469 127.40625 69.820312 126.605469 69.820312 C 125.84375 69.820312 125.082031 70.386719 124.730469 71.089844 C 124.398438 71.714844 124.222656 72.359375 123.8125 74.703125 L 122.621094 74.703125 C 122.269531 74.703125 122.09375 74.703125 122.09375 75.035156 C 122.09375 75.230469 122.191406 75.230469 122.5625 75.230469 L 123.714844 75.230469 C 123.382812 76.890625 122.640625 80.953125 122.230469 82.867188 C 121.9375 84.429688 121.664062 85.738281 120.765625 85.738281 C 120.707031 85.738281 120.199219 85.738281 119.867188 85.386719 C 120.785156 85.328125 120.785156 84.527344 120.785156 84.507812 C 120.785156 84.15625 120.511719 83.941406 120.179688 83.941406 C 119.808594 83.941406 119.28125 84.253906 119.28125 84.9375 C 119.28125 85.699219 120.0625 86.089844 120.765625 86.089844 C 122.601562 86.089844 123.34375 82.808594 123.539062 81.910156 C 123.871094 80.542969 124.75 75.777344 124.828125 75.230469 Z M 126.351562 75.230469 "/>
<path style=" stroke:none;fill-rule:nonzero;fill:rgb(0%,0%,0%);fill-opacity:1;" d="M 134.832031 86.792969 C 134.832031 86.734375 134.832031 86.695312 134.539062 86.402344 C 132.742188 84.585938 131.746094 81.636719 131.746094 77.964844 C 131.746094 74.488281 132.585938 71.5 134.65625 69.390625 C 134.832031 69.214844 134.832031 69.195312 134.832031 69.136719 C 134.832031 69.019531 134.753906 69 134.675781 69 C 134.441406 69 132.976562 70.289062 132.097656 72.046875 C 131.179688 73.84375 130.769531 75.777344 130.769531 77.964844 C 130.769531 79.566406 131.023438 81.695312 131.960938 83.628906 C 133.015625 85.777344 134.480469 86.929688 134.675781 86.929688 C 134.753906 86.929688 134.832031 86.910156 134.832031 86.792969 Z M 134.832031 86.792969 "/>
<path style=" stroke:none;fill-rule:nonzero;fill:rgb(0%,0%,0%);fill-opacity:1;" d="M 144.410156 75.113281 C 143.84375 75.230469 143.628906 75.660156 143.628906 75.992188 C 143.628906 76.421875 143.960938 76.578125 144.214844 76.578125 C 144.761719 76.578125 145.132812 76.109375 145.132812 75.621094 C 145.132812 74.878906 144.273438 74.527344 143.511719 74.527344 C 142.417969 74.527344 141.8125 75.601562 141.65625 75.953125 C 141.246094 74.605469 140.132812 74.527344 139.800781 74.527344 C 137.984375 74.527344 137.007812 76.871094 137.007812 77.28125 C 137.007812 77.339844 137.085938 77.4375 137.203125 77.4375 C 137.339844 77.4375 137.378906 77.320312 137.417969 77.261719 C 138.023438 75.269531 139.234375 74.898438 139.742188 74.898438 C 140.5625 74.898438 140.71875 75.640625 140.71875 76.070312 C 140.71875 76.460938 140.621094 76.871094 140.386719 77.730469 L 139.78125 80.191406 C 139.527344 81.265625 139 82.261719 138.042969 82.261719 C 137.964844 82.261719 137.515625 82.261719 137.125 82.027344 C 137.769531 81.890625 137.925781 81.363281 137.925781 81.148438 C 137.925781 80.796875 137.652344 80.582031 137.320312 80.582031 C 136.890625 80.582031 136.421875 80.953125 136.421875 81.519531 C 136.421875 82.28125 137.261719 82.613281 138.023438 82.613281 C 138.882812 82.613281 139.507812 81.929688 139.878906 81.207031 C 140.171875 82.261719 141.050781 82.613281 141.714844 82.613281 C 143.550781 82.613281 144.527344 80.269531 144.527344 79.878906 C 144.527344 79.78125 144.449219 79.703125 144.332031 79.703125 C 144.175781 79.703125 144.15625 79.800781 144.117188 79.9375 C 143.628906 81.519531 142.574219 82.261719 141.773438 82.261719 C 141.148438 82.261719 140.816406 81.792969 140.816406 81.050781 C 140.816406 80.660156 140.875 80.367188 141.167969 79.195312 L 141.792969 76.753906 C 142.066406 75.679688 142.671875 74.898438 143.492188 74.898438 C 143.53125 74.898438 144.039062 74.898438 144.410156 75.113281 Z M 144.410156 75.113281 "/>
<path style=" stroke:none;fill-rule:nonzero;fill:rgb(0%,0%,0%);fill-opacity:1;" d="M 151.023438 77.964844 C 151.023438 76.617188 150.847656 74.390625 149.832031 72.300781 C 148.777344 70.152344 147.3125 69 147.117188 69 C 147.039062 69 146.941406 69.019531 146.941406 69.136719 C 146.941406 69.195312 146.941406 69.214844 147.253906 69.527344 C 149.050781 71.34375 150.046875 74.292969 150.046875 77.964844 C 150.046875 81.441406 149.207031 84.429688 147.136719 86.539062 C 146.941406 86.695312 146.941406 86.734375 146.941406 86.792969 C 146.941406 86.910156 147.039062 86.929688 147.117188 86.929688 C 147.351562 86.929688 148.816406 85.640625 149.695312 83.882812 C 150.613281 82.066406 151.023438 80.132812 151.023438 77.964844 Z M 151.023438 77.964844 "/>
<path style=" stroke:none;fill-rule:nonzero;fill:rgb(0%,0%,0%);fill-opacity:1;" d="M 10.230469 123.71875 C 9.136719 124.539062 8.394531 124.832031 6.832031 124.832031 C 4.488281 124.832031 2.730469 122.410156 2.730469 119.539062 C 2.730469 117.117188 4.175781 114.265625 6.910156 114.265625 C 8.082031 114.265625 8.980469 114.617188 9.878906 115.222656 L 10.152344 113.757812 C 8.980469 113.308594 8.101562 113.152344 6.871094 113.152344 C 3.824219 113.152344 1.207031 115.847656 1.207031 119.558594 C 1.207031 123.484375 4.078125 125.945312 6.695312 125.945312 C 8.492188 125.945312 8.882812 125.847656 10.347656 124.96875 Z M 10.230469 123.71875 "/>
<path style=" stroke:none;fill-rule:nonzero;fill:rgb(0%,0%,0%);fill-opacity:1;" d="M 19.488281 121.84375 C 19.488281 119.421875 17.710938 117.566406 15.660156 117.566406 C 13.550781 117.566406 11.8125 119.460938 11.8125 121.84375 C 11.8125 124.1875 13.589844 125.964844 15.640625 125.964844 C 17.75 125.964844 19.488281 124.148438 19.488281 121.84375 Z M 15.660156 124.851562 C 14.371094 124.851562 13.160156 123.777344 13.160156 121.667969 C 13.160156 119.5 14.507812 118.640625 15.640625 118.640625 C 16.871094 118.640625 18.140625 119.558594 18.140625 121.667969 C 18.140625 123.875 16.851562 124.851562 15.660156 124.851562 Z M 15.660156 124.851562 "/>
<path style=" stroke:none;fill-rule:nonzero;fill:rgb(0%,0%,0%);fill-opacity:1;" d="M 27.710938 120.398438 C 27.710938 119.304688 27.476562 117.644531 25.308594 117.644531 C 24.3125 117.644531 23.453125 118.09375 22.769531 118.953125 L 22.769531 117.742188 L 21.5 117.742188 L 21.5 125.789062 L 22.847656 125.789062 L 22.847656 121.316406 C 22.847656 120.222656 23.277344 118.71875 24.625 118.71875 C 26.304688 118.71875 26.34375 119.890625 26.34375 120.515625 L 26.34375 125.789062 L 27.710938 125.789062 Z M 27.710938 120.398438 "/>
<path style=" stroke:none;fill-rule:nonzero;fill:rgb(0%,0%,0%);fill-opacity:1;" d="M 36.867188 117.820312 L 35.539062 117.820312 L 34.230469 121.394531 C 33.917969 122.253906 33.253906 124.148438 33.15625 124.8125 L 33.136719 124.8125 C 33.039062 124.1875 32.6875 123.210938 32.414062 122.429688 L 30.753906 117.820312 L 29.367188 117.820312 L 32.316406 125.789062 L 33.917969 125.789062 Z M 36.867188 117.820312 "/>
<path style=" stroke:none;fill-rule:nonzero;fill:rgb(0%,0%,0%);fill-opacity:1;" d="M 44.519531 121.746094 C 44.519531 120.984375 44.441406 119.890625 43.875 118.933594 C 43.132812 117.703125 41.882812 117.566406 41.355469 117.566406 C 39.421875 117.566406 37.800781 119.421875 37.800781 121.746094 C 37.800781 124.128906 39.519531 125.964844 41.609375 125.964844 C 42.429688 125.964844 43.425781 125.730469 44.402344 125.027344 C 44.402344 124.949219 44.34375 124.382812 44.34375 124.363281 C 44.324219 124.34375 44.304688 123.933594 44.304688 123.875 C 43.230469 124.773438 42.175781 124.890625 41.648438 124.890625 C 40.261719 124.890625 39.070312 123.660156 39.050781 121.746094 Z M 39.148438 120.789062 C 39.460938 119.578125 40.300781 118.640625 41.355469 118.640625 C 41.921875 118.640625 43.152344 118.894531 43.445312 120.789062 Z M 39.148438 120.789062 "/>
<path style=" stroke:none;fill-rule:nonzero;fill:rgb(0%,0%,0%);fill-opacity:1;" d="M 47.75 121.863281 C 47.75 120.046875 49.097656 118.875 50.71875 118.855469 L 50.71875 117.644531 C 49.078125 117.664062 48.140625 118.621094 47.652344 119.324219 L 47.652344 117.742188 L 46.421875 117.742188 L 46.421875 125.789062 L 47.75 125.789062 Z M 47.75 121.863281 "/>
<path style=" stroke:none;fill-rule:nonzero;fill:rgb(0%,0%,0%);fill-opacity:1;" d="M 57.03125 118.113281 C 55.898438 117.585938 54.921875 117.566406 54.511719 117.566406 C 54.101562 117.566406 51.601562 117.566406 51.601562 119.890625 C 51.601562 120.671875 52.03125 121.21875 52.304688 121.472656 C 52.949219 122.019531 53.398438 122.117188 54.453125 122.332031 C 55.058594 122.449219 56.09375 122.664062 56.09375 123.621094 C 56.09375 124.851562 54.6875 124.851562 54.433594 124.851562 C 53.730469 124.851562 52.675781 124.65625 51.71875 123.953125 L 51.503906 125.183594 C 51.582031 125.242188 52.8125 125.964844 54.453125 125.964844 C 56.777344 125.964844 57.324219 124.578125 57.324219 123.503906 C 57.324219 122.605469 56.777344 122.019531 56.699219 121.941406 C 56.035156 121.257812 55.488281 121.140625 54.414062 120.925781 C 53.75 120.808594 52.851562 120.632812 52.851562 119.734375 C 52.851562 118.621094 54.101562 118.621094 54.335938 118.621094 C 55.273438 118.621094 56.035156 118.835938 56.816406 119.285156 Z M 57.03125 118.113281 "/>
<path style=" stroke:none;fill-rule:nonzero;fill:rgb(0%,0%,0%);fill-opacity:1;" d="M 65.070312 121.746094 C 65.070312 120.984375 64.992188 119.890625 64.425781 118.933594 C 63.683594 117.703125 62.433594 117.566406 61.90625 117.566406 C 59.972656 117.566406 58.351562 119.421875 58.351562 121.746094 C 58.351562 124.128906 60.070312 125.964844 62.160156 125.964844 C 62.980469 125.964844 63.976562 125.730469 64.953125 125.027344 C 64.953125 124.949219 64.894531 124.382812 64.894531 124.363281 C 64.875 124.34375 64.855469 123.933594 64.855469 123.875 C 63.78125 124.773438 62.726562 124.890625 62.199219 124.890625 C 60.8125 124.890625 59.621094 123.660156 59.601562 121.746094 Z M 59.699219 120.789062 C 60.011719 119.578125 60.851562 118.640625 61.90625 118.640625 C 62.472656 118.640625 63.703125 118.894531 63.996094 120.789062 Z M 59.699219 120.789062 "/>
<path style=" stroke:none;fill-rule:nonzero;fill:rgb(0%,0%,0%);fill-opacity:1;" d="M 68.296875 113.347656 L 66.96875 113.347656 L 66.96875 125.789062 L 68.296875 125.789062 Z M 68.296875 113.347656 "/>
<path style=" stroke:none;fill-rule:nonzero;fill:rgb(0%,0%,0%);fill-opacity:1;" d="M 77.519531 117.820312 L 76.191406 117.820312 C 75.351562 119.949219 73.984375 123.464844 73.90625 124.753906 L 73.886719 124.753906 C 73.808594 123.699219 72.851562 121.316406 72.714844 120.964844 L 71.425781 117.820312 L 70.019531 117.820312 L 73.359375 125.789062 L 72.714844 127.429688 C 72.324219 128.308594 72.070312 128.40625 71.738281 128.40625 C 71.484375 128.40625 70.917969 128.347656 70.351562 128.132812 L 70.46875 129.304688 C 70.566406 129.324219 71.171875 129.441406 71.738281 129.441406 C 72.167969 129.441406 73.007812 129.441406 73.789062 127.46875 Z M 77.519531 117.820312 "/>
<path style=" stroke:none;fill-rule:nonzero;fill:rgb(0%,0%,0%);fill-opacity:1;" d="M 36.96875 187.011719 C 37.554688 186.992188 37.847656 186.582031 37.847656 186.152344 C 37.847656 185.546875 37.417969 185.273438 36.988281 185.273438 C 36.558594 185.273438 36.109375 185.527344 36.109375 186.152344 C 36.109375 187.070312 37.007812 187.832031 38.101562 187.832031 C 40.835938 187.832031 41.851562 183.632812 43.121094 178.4375 C 44.507812 172.773438 45.679688 167.050781 46.636719 161.289062 C 47.300781 157.480469 47.964844 153.886719 48.570312 151.582031 C 48.785156 150.703125 49.410156 148.378906 50.09375 148.378906 C 50.660156 148.378906 51.109375 148.730469 51.1875 148.789062 C 50.582031 148.828125 50.289062 149.21875 50.289062 149.667969 C 50.289062 150.273438 50.738281 150.546875 51.148438 150.546875 C 51.578125 150.546875 52.027344 150.292969 52.027344 149.648438 C 52.027344 148.691406 51.050781 147.988281 50.074219 147.988281 C 48.707031 147.988281 47.691406 149.941406 46.714844 153.59375 C 46.65625 153.789062 44.214844 162.792969 42.242188 174.53125 C 41.773438 177.265625 41.265625 180.253906 40.679688 182.753906 C 40.347656 184.0625 39.527344 187.441406 38.0625 187.441406 C 37.417969 187.441406 36.988281 187.011719 36.96875 187.011719 Z M 36.96875 187.011719 "/>
<path style=" stroke:none;fill-rule:nonzero;fill:rgb(0%,0%,0%);fill-opacity:1;" d="M 64.101562 165.230469 C 64.472656 165.230469 64.609375 165.230469 64.609375 164.898438 C 64.609375 164.703125 64.472656 164.703125 64.140625 164.703125 L 62.695312 164.703125 C 63.027344 162.867188 63.28125 161.597656 63.4375 161.011719 C 63.535156 160.582031 63.90625 160.171875 64.375 160.171875 C 64.746094 160.171875 65.136719 160.328125 65.3125 160.503906 C 64.609375 160.5625 64.394531 161.089844 64.394531 161.402344 C 64.394531 161.753906 64.667969 161.96875 65 161.96875 C 65.371094 161.96875 65.898438 161.65625 65.898438 160.972656 C 65.898438 160.230469 65.15625 159.820312 64.355469 159.820312 C 63.59375 159.820312 62.832031 160.386719 62.480469 161.089844 C 62.148438 161.714844 61.972656 162.359375 61.5625 164.703125 L 60.371094 164.703125 C 60.019531 164.703125 59.84375 164.703125 59.84375 165.035156 C 59.84375 165.230469 59.941406 165.230469 60.3125 165.230469 L 61.464844 165.230469 C 61.132812 166.890625 60.390625 170.953125 59.980469 172.867188 C 59.6875 174.429688 59.414062 175.738281 58.515625 175.738281 C 58.457031 175.738281 57.949219 175.738281 57.617188 175.386719 C 58.535156 175.328125 58.535156 174.527344 58.535156 174.507812 C 58.535156 174.15625 58.261719 173.941406 57.929688 173.941406 C 57.558594 173.941406 57.03125 174.253906 57.03125 174.9375 C 57.03125 175.699219 57.8125 176.089844 58.515625 176.089844 C 60.351562 176.089844 61.09375 172.808594 61.289062 171.910156 C 61.621094 170.542969 62.5 165.777344 62.578125 165.230469 Z M 64.101562 165.230469 "/>
<path style=" stroke:none;fill-rule:nonzero;fill:rgb(0%,0%,0%);fill-opacity:1;" d="M 72.585938 176.792969 C 72.585938 176.734375 72.585938 176.695312 72.292969 176.402344 C 70.496094 174.585938 69.5 171.636719 69.5 167.964844 C 69.5 164.488281 70.339844 161.5 72.410156 159.390625 C 72.585938 159.214844 72.585938 159.195312 72.585938 159.136719 C 72.585938 159.019531 72.507812 159 72.429688 159 C 72.195312 159 70.730469 160.289062 69.851562 162.046875 C 68.933594 163.84375 68.523438 165.777344 68.523438 167.964844 C 68.523438 169.566406 68.777344 171.695312 69.714844 173.628906 C 70.769531 175.777344 72.234375 176.929688 72.429688 176.929688 C 72.507812 176.929688 72.585938 176.910156 72.585938 176.792969 Z M 72.585938 176.792969 "/>
<path style=" stroke:none;fill-rule:nonzero;fill:rgb(0%,0%,0%);fill-opacity:1;" d="M 82.160156 165.113281 C 81.59375 165.230469 81.378906 165.660156 81.378906 165.992188 C 81.378906 166.421875 81.710938 166.578125 81.964844 166.578125 C 82.511719 166.578125 82.882812 166.109375 82.882812 165.621094 C 82.882812 164.878906 82.023438 164.527344 81.261719 164.527344 C 80.167969 164.527344 79.5625 165.601562 79.40625 165.953125 C 78.996094 164.605469 77.882812 164.527344 77.550781 164.527344 C 75.734375 164.527344 74.757812 166.871094 74.757812 167.28125 C 74.757812 167.339844 74.835938 167.4375 74.953125 167.4375 C 75.089844 167.4375 75.128906 167.320312 75.167969 167.261719 C 75.773438 165.269531 76.984375 164.898438 77.492188 164.898438 C 78.3125 164.898438 78.46875 165.640625 78.46875 166.070312 C 78.46875 166.460938 78.371094 166.871094 78.136719 167.730469 L 77.53125 170.191406 C 77.277344 171.265625 76.75 172.261719 75.792969 172.261719 C 75.714844 172.261719 75.265625 172.261719 74.875 172.027344 C 75.519531 171.890625 75.675781 171.363281 75.675781 171.148438 C 75.675781 170.796875 75.402344 170.582031 75.070312 170.582031 C 74.640625 170.582031 74.171875 170.953125 74.171875 171.519531 C 74.171875 172.28125 75.011719 172.613281 75.773438 172.613281 C 76.632812 172.613281 77.257812 171.929688 77.628906 171.207031 C 77.921875 172.261719 78.800781 172.613281 79.464844 172.613281 C 81.300781 172.613281 82.277344 170.269531 82.277344 169.878906 C 82.277344 169.78125 82.199219 169.703125 82.082031 169.703125 C 81.925781 169.703125 81.90625 169.800781 81.867188 169.9375 C 81.378906 171.519531 80.324219 172.261719 79.523438 172.261719 C 78.898438 172.261719 78.566406 171.792969 78.566406 171.050781 C 78.566406 170.660156 78.625 170.367188 78.917969 169.195312 L 79.542969 166.753906 C 79.816406 165.679688 80.421875 164.898438 81.242188 164.898438 C 81.28125 164.898438 81.789062 164.898438 82.160156 165.113281 Z M 82.160156 165.113281 "/>
<path style=" stroke:none;fill-rule:nonzero;fill:rgb(0%,0%,0%);fill-opacity:1;" d="M 88.773438 167.964844 C 88.773438 166.617188 88.597656 164.390625 87.582031 162.300781 C 86.527344 160.152344 85.0625 159 84.867188 159 C 84.789062 159 84.691406 159.019531 84.691406 159.136719 C 84.691406 159.195312 84.691406 159.214844 85.003906 159.527344 C 86.800781 161.34375 87.796875 164.292969 87.796875 167.964844 C 87.796875 171.441406 86.957031 174.429688 84.886719 176.539062 C 84.691406 176.695312 84.691406 176.734375 84.691406 176.792969 C 84.691406 176.910156 84.789062 176.929688 84.867188 176.929688 C 85.101562 176.929688 86.566406 175.640625 87.445312 173.882812 C 88.363281 172.066406 88.773438 170.132812 88.773438 167.964844 Z M 88.773438 167.964844 "/>
<path style=" stroke:none;fill-rule:nonzero;fill:rgb(0%,0%,0%);fill-opacity:1;" d="M 97.652344 167.964844 C 97.652344 167.4375 97.222656 167.007812 96.714844 167.007812 C 96.1875 167.007812 95.757812 167.4375 95.757812 167.964844 C 95.757812 168.472656 96.1875 168.902344 96.714844 168.902344 C 97.222656 168.902344 97.652344 168.472656 97.652344 167.964844 Z M 97.652344 167.964844 "/>
<path style=" stroke:none;fill-rule:nonzero;fill:rgb(0%,0%,0%);fill-opacity:1;" d="M 112.238281 160.445312 C 112.257812 160.367188 112.296875 160.269531 112.296875 160.171875 C 112.296875 159.996094 112.101562 159.996094 112.0625 159.996094 C 112.0625 159.996094 111.183594 160.074219 111.085938 160.074219 C 110.773438 160.09375 110.519531 160.132812 110.1875 160.152344 C 109.738281 160.191406 109.621094 160.210938 109.621094 160.523438 C 109.621094 160.71875 109.757812 160.71875 110.011719 160.71875 C 110.890625 160.71875 110.910156 160.875 110.910156 161.050781 C 110.910156 161.167969 110.871094 161.304688 110.851562 161.363281 L 109.757812 165.71875 C 109.5625 165.25 109.074219 164.527344 108.136719 164.527344 C 106.125 164.527344 103.9375 167.144531 103.9375 169.800781 C 103.9375 171.578125 104.972656 172.613281 106.183594 172.613281 C 107.179688 172.613281 108.019531 171.851562 108.527344 171.246094 C 108.703125 172.320312 109.542969 172.613281 110.089844 172.613281 C 110.617188 172.613281 111.046875 172.300781 111.378906 171.65625 C 111.652344 171.03125 111.90625 169.9375 111.90625 169.878906 C 111.90625 169.78125 111.847656 169.703125 111.730469 169.703125 C 111.574219 169.703125 111.554688 169.800781 111.476562 170.074219 C 111.203125 171.128906 110.871094 172.261719 110.128906 172.261719 C 109.621094 172.261719 109.582031 171.792969 109.582031 171.441406 C 109.582031 171.363281 109.582031 170.992188 109.699219 170.484375 Z M 108.605469 170.308594 C 108.527344 170.601562 108.527344 170.640625 108.273438 170.992188 C 107.882812 171.480469 107.082031 172.261719 106.242188 172.261719 C 105.519531 172.261719 105.089844 171.597656 105.089844 170.542969 C 105.089844 169.546875 105.65625 167.535156 105.988281 166.792969 C 106.613281 165.542969 107.453125 164.898438 108.136719 164.898438 C 109.328125 164.898438 109.5625 166.363281 109.5625 166.5 C 109.5625 166.519531 109.503906 166.753906 109.484375 166.792969 Z M 108.605469 170.308594 "/>
<path style=" stroke:none;fill-rule:nonzero;fill:rgb(0%,0%,0%);fill-opacity:1;" d="M 120.859375 165.113281 C 120.292969 165.230469 120.078125 165.660156 120.078125 165.992188 C 120.078125 166.421875 120.410156 166.578125 120.664062 166.578125 C 121.210938 166.578125 121.582031 166.109375 121.582031 165.621094 C 121.582031 164.878906 120.722656 164.527344 119.960938 164.527344 C 118.867188 164.527344 118.261719 165.601562 118.105469 165.953125 C 117.695312 164.605469 116.582031 164.527344 116.25 164.527344 C 114.433594 164.527344 113.457031 166.871094 113.457031 167.28125 C 113.457031 167.339844 113.535156 167.4375 113.652344 167.4375 C 113.789062 167.4375 113.828125 167.320312 113.867188 167.261719 C 114.472656 165.269531 115.683594 164.898438 116.191406 164.898438 C 117.011719 164.898438 117.167969 165.640625 117.167969 166.070312 C 117.167969 166.460938 117.070312 166.871094 116.835938 167.730469 L 116.230469 170.191406 C 115.976562 171.265625 115.449219 172.261719 114.492188 172.261719 C 114.414062 172.261719 113.964844 172.261719 113.574219 172.027344 C 114.21875 171.890625 114.375 171.363281 114.375 171.148438 C 114.375 170.796875 114.101562 170.582031 113.769531 170.582031 C 113.339844 170.582031 112.871094 170.953125 112.871094 171.519531 C 112.871094 172.28125 113.710938 172.613281 114.472656 172.613281 C 115.332031 172.613281 115.957031 171.929688 116.328125 171.207031 C 116.621094 172.261719 117.5 172.613281 118.164062 172.613281 C 120 172.613281 120.976562 170.269531 120.976562 169.878906 C 120.976562 169.78125 120.898438 169.703125 120.78125 169.703125 C 120.625 169.703125 120.605469 169.800781 120.566406 169.9375 C 120.078125 171.519531 119.023438 172.261719 118.222656 172.261719 C 117.597656 172.261719 117.265625 171.792969 117.265625 171.050781 C 117.265625 170.660156 117.324219 170.367188 117.617188 169.195312 L 118.242188 166.753906 C 118.515625 165.679688 119.121094 164.898438 119.941406 164.898438 C 119.980469 164.898438 120.488281 164.898438 120.859375 165.113281 Z M 120.859375 165.113281 "/>
<path style=" stroke:none;fill-rule:nonzero;fill:rgb(0%,0%,0%);fill-opacity:1;" d="M 139.472656 166.636719 C 139.726562 166.636719 140.039062 166.636719 140.039062 166.304688 C 140.039062 165.972656 139.726562 165.972656 139.472656 165.972656 L 128.90625 165.972656 C 128.652344 165.972656 128.339844 165.972656 128.339844 166.285156 C 128.339844 166.636719 128.632812 166.636719 128.90625 166.636719 Z M 139.472656 169.957031 C 139.726562 169.957031 140.039062 169.957031 140.039062 169.644531 C 140.039062 169.292969 139.726562 169.292969 139.472656 169.292969 L 128.90625 169.292969 C 128.652344 169.292969 128.339844 169.292969 128.339844 169.625 C 128.339844 169.957031 128.632812 169.957031 128.90625 169.957031 Z M 139.472656 169.957031 "/>
<path style=" stroke:none;fill-rule:nonzero;fill:rgb(0%,0%,0%);fill-opacity:1;" d="M 151.296875 166.597656 L 153.015625 166.597656 C 154.382812 166.597656 154.480469 166.890625 154.480469 167.417969 C 154.480469 167.652344 154.441406 167.90625 154.363281 168.296875 C 154.324219 168.375 154.304688 168.453125 154.304688 168.492188 C 154.304688 168.609375 154.382812 168.6875 154.5 168.6875 C 154.636719 168.6875 154.65625 168.609375 154.734375 168.335938 L 155.769531 164.15625 C 155.769531 164.078125 155.710938 163.980469 155.59375 163.980469 C 155.4375 163.980469 155.417969 164.039062 155.339844 164.351562 C 154.96875 165.699219 154.597656 166.070312 153.054688 166.070312 L 151.414062 166.070312 L 152.585938 161.421875 C 152.742188 160.796875 152.78125 160.738281 153.503906 160.738281 L 155.90625 160.738281 C 158.152344 160.738281 158.484375 161.402344 158.484375 162.691406 C 158.484375 162.789062 158.484375 163.179688 158.425781 163.648438 C 158.40625 163.726562 158.367188 163.960938 158.367188 164.019531 C 158.367188 164.175781 158.464844 164.234375 158.5625 164.234375 C 158.699219 164.234375 158.757812 164.15625 158.796875 163.824219 L 159.1875 160.699219 C 159.1875 160.640625 159.207031 160.464844 159.207031 160.425781 C 159.207031 160.230469 159.050781 160.230469 158.738281 160.230469 L 150.222656 160.230469 C 149.890625 160.230469 149.714844 160.230469 149.714844 160.542969 C 149.714844 160.738281 149.832031 160.738281 150.144531 160.738281 C 151.257812 160.738281 151.257812 160.875 151.257812 161.070312 C 151.257812 161.167969 151.238281 161.226562 151.179688 161.421875 L 148.757812 171.109375 C 148.601562 171.734375 148.5625 171.910156 147.3125 171.910156 C 146.960938 171.910156 146.785156 171.910156 146.785156 172.242188 C 146.785156 172.4375 146.941406 172.4375 147.058594 172.4375 C 147.390625 172.4375 147.761719 172.398438 148.09375 172.398438 L 150.4375 172.398438 C 150.828125 172.398438 151.257812 172.4375 151.648438 172.4375 C 151.804688 172.4375 152.019531 172.4375 152.019531 172.105469 C 152.019531 171.910156 151.921875 171.910156 151.53125 171.910156 C 150.105469 171.910156 150.066406 171.792969 150.066406 171.519531 C 150.066406 171.441406 150.105469 171.285156 150.144531 171.167969 Z M 151.296875 166.597656 "/>
<path style=" stroke:none;fill-rule:nonzero;fill:rgb(0%,0%,0%);fill-opacity:1;" d="M 165.585938 176.792969 C 165.585938 176.734375 165.585938 176.695312 165.292969 176.402344 C 163.496094 174.585938 162.5 171.636719 162.5 167.964844 C 162.5 164.488281 163.339844 161.5 165.410156 159.390625 C 165.585938 159.214844 165.585938 159.195312 165.585938 159.136719 C 165.585938 159.019531 165.507812 159 165.429688 159 C 165.195312 159 163.730469 160.289062 162.851562 162.046875 C 161.933594 163.84375 161.523438 165.777344 161.523438 167.964844 C 161.523438 169.566406 161.777344 171.695312 162.714844 173.628906 C 163.769531 175.777344 165.234375 176.929688 165.429688 176.929688 C 165.507812 176.929688 165.585938 176.910156 165.585938 176.792969 Z M 165.585938 176.792969 "/>
<path style=" stroke:none;fill-rule:nonzero;fill:rgb(0%,0%,0%);fill-opacity:1;" d="M 175.160156 165.113281 C 174.59375 165.230469 174.378906 165.660156 174.378906 165.992188 C 174.378906 166.421875 174.710938 166.578125 174.964844 166.578125 C 175.511719 166.578125 175.882812 166.109375 175.882812 165.621094 C 175.882812 164.878906 175.023438 164.527344 174.261719 164.527344 C 173.167969 164.527344 172.5625 165.601562 172.40625 165.953125 C 171.996094 164.605469 170.882812 164.527344 170.550781 164.527344 C 168.734375 164.527344 167.757812 166.871094 167.757812 167.28125 C 167.757812 167.339844 167.835938 167.4375 167.953125 167.4375 C 168.089844 167.4375 168.128906 167.320312 168.167969 167.261719 C 168.773438 165.269531 169.984375 164.898438 170.492188 164.898438 C 171.3125 164.898438 171.46875 165.640625 171.46875 166.070312 C 171.46875 166.460938 171.371094 166.871094 171.136719 167.730469 L 170.53125 170.191406 C 170.277344 171.265625 169.75 172.261719 168.792969 172.261719 C 168.714844 172.261719 168.265625 172.261719 167.875 172.027344 C 168.519531 171.890625 168.675781 171.363281 168.675781 171.148438 C 168.675781 170.796875 168.402344 170.582031 168.070312 170.582031 C 167.640625 170.582031 167.171875 170.953125 167.171875 171.519531 C 167.171875 172.28125 168.011719 172.613281 168.773438 172.613281 C 169.632812 172.613281 170.257812 171.929688 170.628906 171.207031 C 170.921875 172.261719 171.800781 172.613281 172.464844 172.613281 C 174.300781 172.613281 175.277344 170.269531 175.277344 169.878906 C 175.277344 169.78125 175.199219 169.703125 175.082031 169.703125 C 174.925781 169.703125 174.90625 169.800781 174.867188 169.9375 C 174.378906 171.519531 173.324219 172.261719 172.523438 172.261719 C 171.898438 172.261719 171.566406 171.792969 171.566406 171.050781 C 171.566406 170.660156 171.625 170.367188 171.917969 169.195312 L 172.542969 166.753906 C 172.816406 165.679688 173.421875 164.898438 174.242188 164.898438 C 174.28125 164.898438 174.789062 164.898438 175.160156 165.113281 Z M 175.160156 165.113281 "/>
<path style=" stroke:none;fill-rule:nonzero;fill:rgb(0%,0%,0%);fill-opacity:1;" d="M 181.773438 167.964844 C 181.773438 166.617188 181.597656 164.390625 180.582031 162.300781 C 179.527344 160.152344 178.0625 159 177.867188 159 C 177.789062 159 177.691406 159.019531 177.691406 159.136719 C 177.691406 159.195312 177.691406 159.214844 178.003906 159.527344 C 179.800781 161.34375 180.796875 164.292969 180.796875 167.964844 C 180.796875 171.441406 179.957031 174.429688 177.886719 176.539062 C 177.691406 176.695312 177.691406 176.734375 177.691406 176.792969 C 177.691406 176.910156 177.789062 176.929688 177.867188 176.929688 C 178.101562 176.929688 179.566406 175.640625 180.445312 173.882812 C 181.363281 172.066406 181.773438 170.132812 181.773438 167.964844 Z M 181.773438 167.964844 "/>
</g>
</svg>
