<?xml version="1.0" encoding="UTF-8" standalone="no"?>
<!-- Created with Inkscape (http://www.inkscape.org/) -->

<svg
   xmlns:ns0="http://www.iki.fi/pav/software/textext/"
   xmlns:dc="http://purl.org/dc/elements/1.1/"
   xmlns:cc="http://creativecommons.org/ns#"
   xmlns:rdf="http://www.w3.org/1999/02/22-rdf-syntax-ns#"
   xmlns:svg="http://www.w3.org/2000/svg"
   xmlns="http://www.w3.org/2000/svg"
   xmlns:xlink="http://www.w3.org/1999/xlink"
   xmlns:sodipodi="http://sodipodi.sourceforge.net/DTD/sodipodi-0.dtd"
   xmlns:inkscape="http://www.inkscape.org/namespaces/inkscape"
   width="443.69781"
   height="349.50793"
   id="svg3785"
   version="1.1"
   inkscape:version="0.48.3.1 r9886"
   sodipodi:docname="New document 3">
  <sodipodi:namedview
     id="base"
     pagecolor="#ffffff"
     bordercolor="#666666"
     borderopacity="1.0"
     inkscape:pageopacity="0.0"
     inkscape:pageshadow="2"
     inkscape:zoom="0.40100263"
     inkscape:cx="343.21338"
     inkscape:cy="-57.356224"
     inkscape:document-units="px"
     inkscape:current-layer="layer1"
     showgrid="false"
     inkscape:window-width="952"
     inkscape:window-height="617"
     inkscape:window-x="211"
     inkscape:window-y="59"
     inkscape:window-maximized="0"
     fit-margin-top="0"
     fit-margin-left="0"
     fit-margin-right="0"
     fit-margin-bottom="0"
     showborder="false"
     inkscape:showpageshadow="false" />
  <defs
     id="defs3787" />
  <metadata
     id="metadata3790">
    <rdf:RDF>
      <cc:Work
         rdf:about="">
        <dc:format>image/svg+xml</dc:format>
        <dc:type
           rdf:resource="http://purl.org/dc/dcmitype/StillImage" />
        <dc:title></dc:title>
      </cc:Work>
    </rdf:RDF>
  </metadata>
  <g
     id="layer1"
     inkscape:groupmode="layer"
     inkscape:label="Layer 1"
     transform="translate(-28.83386,-119.31695)">
    <rect
       inkscape:tile-y0="184.49591"
       inkscape:tile-x0="96.990868"
       inkscape:tile-h="122.30399"
       inkscape:tile-w="122.30399"
       inkscape:tile-cy="245.64791"
       inkscape:tile-cx="158.14286"
       y="184.49591"
       x="96.990868"
       height="122.30399"
       width="122.30399"
       id="rect3793"
       style="fill:none;stroke:#000000;stroke-width:7.69601727;stroke-linecap:round;stroke-linejoin:round;stroke-miterlimit:10.43299961;stroke-opacity:1;stroke-dasharray:none;stroke-dashoffset:0" />
    <use
       height="1052.3622"
       width="744.09448"
       transform="translate(171.42857,0)"
       id="use4303"
       xlink:href="#rect3793"
       inkscape:tiled-clone-of="#rect3793"
       y="0"
       x="0" />
    <path
       inkscape:tile-y0="236.48436"
       inkscape:tile-x0="149.62479"
       inkscape:tile-h="18"
       inkscape:tile-w="17.999999"
       inkscape:tile-cy="245.48436"
       inkscape:tile-cx="158.62479"
       transform="matrix(1.2390994,0,0,1.2708713,-40.275207,-67.283098)"
       d="m 167.78315,246.67627 c 0,3.91115 -3.25191,7.08176 -7.26334,7.08176 -4.01144,0 -7.26334,-3.17061 -7.26334,-7.08176 0,-3.91115 3.2519,-7.08176 7.26334,-7.08176 4.01143,0 7.26334,3.17061 7.26334,7.08176 z"
       sodipodi:ry="7.0817556"
       sodipodi:rx="7.2633395"
       sodipodi:cy="246.67627"
       sodipodi:cx="160.51981"
       id="path4323"
       style="fill:#000000;fill-opacity:1;stroke:none"
       sodipodi:type="arc" />
    <use
       height="1052.3622"
       width="744.09448"
       transform="translate(-32.543548,36.316696)"
       id="use4325"
       xlink:href="#path4323"
       inkscape:tiled-clone-of="#path4323"
       y="0"
       x="0" />
    <use
       height="1052.3622"
       width="744.09448"
       id="use4327"
       transform="translate(-32.543548,-32.32186)"
       xlink:href="#path4323"
       inkscape:tiled-clone-of="#path4323"
       y="0"
       x="0" />
    <use
       height="1052.3622"
       width="744.09448"
       id="use4329"
       transform="translate(33.694317,-32.32186)"
       xlink:href="#path4323"
       inkscape:tiled-clone-of="#path4323"
       y="0"
       x="0" />
    <use
       height="1052.3622"
       width="744.09448"
       id="use4331"
       transform="translate(33.694317,36.316696)"
       xlink:href="#path4323"
       inkscape:tiled-clone-of="#path4323"
       y="0"
       x="0" />
    <g
       transform="translate(-152.1187,-201.99369)"
       id="g4345">
      <g
         style="font-style:normal;font-variant:normal;font-weight:normal;font-stretch:normal;letter-spacing:normal;word-spacing:normal;text-anchor:start;fill:none;stroke:#000000;stroke-linecap:butt;stroke-linejoin:miter;stroke-miterlimit:10.43299961;stroke-opacity:1;stroke-dasharray:none;stroke-dashoffset:0"
         word-spacing="normal"
         letter-spacing="normal"
         font-size-adjust="none"
         font-stretch="normal"
         font-weight="normal"
         font-variant="normal"
         font-style="normal"
         stroke-miterlimit="10.433"
         xml:space="preserve"
         transform="matrix(1.0629921,0,0,-1.0629921,-186.02362,789.27165)"
         id="content"><path
           style="fill:#000000;stroke-width:0"
           inkscape:connector-curvature="0"
           id="path4348"
           d="m 474.16,436.39 0.04,0.16 0.04,0.16 0.04,0.15 0.04,0.14 0.04,0.14 0.04,0.13 0.05,0.12 0.05,0.11 0.05,0.11 0.06,0.11 0.07,0.09 0.07,0.09 0.08,0.09 0.08,0.08 0.1,0.07 0.1,0.07 0.12,0.06 0.12,0.06 0.14,0.05 0.15,0.05 0.17,0.04 0.08,0.02 0.09,0.02 0.1,0.02 0.1,0.02 0.1,0.01 0.1,0.02 0.11,0.01 0.12,0.01 0.12,0.02 0.12,0.01 0.13,0.01 0.13,0 0.13,0.01 0.14,0.01 0.15,0.01 0.15,0 0.16,0 0.16,0.01 0.16,0 0.17,0 0.18,0 0.18,0 c 1.19,0 1.6,0 1.6,0.96 0,0.59 -0.55,0.59 -0.75,0.59 -1.46,0 -5.15,-0.16 -6.58,-0.16 -1.5,0 -5.13,0.16 -6.63,0.16 -0.34,0 -1,0 -1,-1 0,-0.55 0.46,-0.55 1.39,-0.55 2.1,0 3.44,0 3.44,-0.95 0,-0.25 0,-0.34 -0.09,-0.8 l -6.72,-26.84 c -0.46,-1.84 -0.61,-2.34 -4.55,-2.34 -1.14,0 -1.59,0 -1.59,-1 0,-0.55 0.61,-0.55 0.75,-0.55 1.45,0 5.08,0.16 6.53,0.16 1.5,0 5.19,-0.16 6.67,-0.16 0.41,0 1,0 1,0.95 0,0.6 -0.41,0.6 -1.5,0.6 -0.89,0 -1.14,0 -2.14,0.09 -1.05,0.11 -1.23,0.3 -1.23,0.84 0,0.41 0.09,0.8 0.18,1.16 z" /></g>    </g>
    <g
       transform="translate(7.4812478,-199.49994)"
       id="g4378">
      <g
         style="font-style:normal;font-variant:normal;font-weight:normal;font-stretch:normal;letter-spacing:normal;word-spacing:normal;text-anchor:start;fill:none;stroke:#000000;stroke-linecap:butt;stroke-linejoin:miter;stroke-miterlimit:10.43299961;stroke-opacity:1;stroke-dasharray:none;stroke-dashoffset:0"
         id="g4380"
         transform="matrix(1.0629921,0,0,-1.0629921,-186.02362,789.27165)"
         xml:space="preserve"
         stroke-miterlimit="10.433"
         font-style="normal"
         font-variant="normal"
         font-weight="normal"
         font-stretch="normal"
         font-size-adjust="none"
         letter-spacing="normal"
         word-spacing="normal"><path
           style="fill:#000000;stroke-width:0"
           inkscape:connector-curvature="0"
           d="m 474.16,436.39 0.04,0.16 0.04,0.16 0.04,0.15 0.04,0.14 0.04,0.14 0.04,0.13 0.05,0.12 0.05,0.11 0.05,0.11 0.06,0.11 0.07,0.09 0.07,0.09 0.08,0.09 0.08,0.08 0.1,0.07 0.1,0.07 0.12,0.06 0.12,0.06 0.14,0.05 0.15,0.05 0.17,0.04 0.08,0.02 0.09,0.02 0.1,0.02 0.1,0.02 0.1,0.01 0.1,0.02 0.11,0.01 0.12,0.01 0.12,0.02 0.12,0.01 0.13,0.01 0.13,0 0.13,0.01 0.14,0.01 0.15,0.01 0.15,0 0.16,0 0.16,0.01 0.16,0 0.17,0 0.18,0 0.18,0 c 1.19,0 1.6,0 1.6,0.96 0,0.59 -0.55,0.59 -0.75,0.59 -1.46,0 -5.15,-0.16 -6.58,-0.16 -1.5,0 -5.13,0.16 -6.63,0.16 -0.34,0 -1,0 -1,-1 0,-0.55 0.46,-0.55 1.39,-0.55 2.1,0 3.44,0 3.44,-0.95 0,-0.25 0,-0.34 -0.09,-0.8 l -6.72,-26.84 c -0.46,-1.84 -0.61,-2.34 -4.55,-2.34 -1.14,0 -1.59,0 -1.59,-1 0,-0.55 0.61,-0.55 0.75,-0.55 1.45,0 5.08,0.16 6.53,0.16 1.5,0 5.19,-0.16 6.67,-0.16 0.41,0 1,0 1,0.95 0,0.6 -0.41,0.6 -1.5,0.6 -0.89,0 -1.14,0 -2.14,0.09 -1.05,0.11 -1.23,0.3 -1.23,0.84 0,0.41 0.09,0.8 0.18,1.16 z"
           id="path4382" /><path
           style="fill:#000000;stroke-width:0"
           inkscape:connector-curvature="0"
           d="m 499.96,436.39 0.04,0.16 0.04,0.16 0.04,0.15 0.04,0.14 0.04,0.14 0.04,0.13 0.05,0.12 0.05,0.11 0.05,0.11 0.06,0.11 0.07,0.09 0.07,0.09 0.08,0.09 0.08,0.08 0.1,0.07 0.1,0.07 0.12,0.06 0.13,0.06 0.13,0.05 0.15,0.05 0.17,0.04 0.08,0.02 0.09,0.02 0.1,0.02 0.1,0.02 0.1,0.01 0.1,0.02 0.11,0.01 0.12,0.01 0.12,0.02 0.12,0.01 0.13,0.01 0.13,0 0.13,0.01 0.14,0.01 0.15,0.01 0.15,0 0.16,0 0.16,0.01 0.16,0 0.17,0 0.18,0 0.18,0 c 1.19,0 1.6,0 1.6,0.96 0,0.59 -0.55,0.59 -0.75,0.59 -1.46,0 -5.14,-0.16 -6.58,-0.16 -1.5,0 -5.13,0.16 -6.63,0.16 -0.34,0 -1,0 -1,-1 0,-0.55 0.46,-0.55 1.39,-0.55 2.1,0 3.44,0 3.44,-0.95 0,-0.25 0,-0.34 -0.09,-0.8 l -6.72,-26.84 c -0.45,-1.84 -0.61,-2.34 -4.55,-2.34 -1.14,0 -1.59,0 -1.59,-1 0,-0.55 0.61,-0.55 0.75,-0.55 1.45,0 5.08,0.16 6.53,0.16 1.5,0 5.19,-0.16 6.67,-0.16 0.41,0 1,0 1,0.95 0,0.6 -0.41,0.6 -1.5,0.6 -0.89,0 -1.14,0 -2.14,0.09 -1.05,0.11 -1.23,0.3 -1.23,0.84 0,0.41 0.09,0.8 0.18,1.16 z"
           id="path4384" /></g>    </g>
    <g
       id="g4494"
       transform="matrix(1,0,0,-1,-200,750)"
       xml:space="preserve"
       stroke-miterlimit="10.433"
       font-style="normal"
       font-variant="normal"
       font-weight="normal"
       font-stretch="normal"
       font-size-adjust="none"
       letter-spacing="normal"
       word-spacing="normal"
       ns0:text="?"
       ns0:preamble="/home/abhinavc/playpen/textext/preamble.ini"
       style="font-style:normal;font-variant:normal;font-weight:normal;font-stretch:normal;letter-spacing:normal;word-spacing:normal;text-anchor:start;fill:none;stroke:#000000;stroke-linecap:butt;stroke-linejoin:miter;stroke-miterlimit:10.43299961;stroke-opacity:1;stroke-dasharray:none;stroke-dashoffset:0">
<path
   d="m 327.67,530.87 0,0.07 0,0.06 0.01,0.07 0.01,0.06 0.01,0.07 0.01,0.06 0.01,0.07 0.01,0.06 0.02,0.07 0.02,0.06 0.02,0.07 0.02,0.06 0.03,0.07 0.03,0.06 0.02,0.07 0.04,0.06 0.03,0.06 0.03,0.07 0.04,0.06 0.04,0.06 0.04,0.07 0.04,0.06 0.05,0.06 0.05,0.06 0.05,0.06 0.05,0.06 0.05,0.06 0.05,0.06 0.06,0.05 0.06,0.06 0.06,0.05 0.07,0.06 c 0.19,0.16 0.56,0.47 0.56,1.19 0,0.68 -0.4,1.54 -1.9,1.54 -0.6,0 -1.14,-0.17 -1.67,-0.53 l 0.23,-0.62 c 0.24,0.22 0.73,0.54 1.44,0.54 0.47,0 1.13,-0.08 1.13,-0.92 0,-0.45 -0.22,-0.64 -0.35,-0.75 C 327,532.35 327,531.08 327,530.65 v -0.31 h 0.67 z"
   id="path4496"
   inkscape:connector-curvature="0"
   style="fill:#000000;stroke-width:0" />
<polygon
   points="326.92,529.42 326.92,528.6 327.75,528.6 327.75,529.42 "
   id="polygon4498"
   style="fill:#000000;stroke-width:0" />
</g>    <g
       id="g4542"
       transform="translate(17.456245,-92.268722)">
      <g
         word-spacing="normal"
         letter-spacing="normal"
         font-size-adjust="none"
         font-stretch="normal"
         font-weight="normal"
         font-variant="normal"
         font-style="normal"
         stroke-miterlimit="10.433"
         xml:space="preserve"
         transform="matrix(1.0629921,0,0,-1.0629921,-186.02362,789.27165)"
         id="g4544"
         style="font-style:normal;font-variant:normal;font-weight:normal;font-stretch:normal;letter-spacing:normal;word-spacing:normal;text-anchor:start;fill:none;stroke:#000000;stroke-linecap:butt;stroke-linejoin:miter;stroke-miterlimit:10.43299961;stroke-opacity:1;stroke-dasharray:none;stroke-dashoffset:0"><path
           id="path4546"
           d="m 467.22,418.61 0.02,0.58 0.04,0.56 0.06,0.55 0.09,0.53 0.12,0.52 0.13,0.5 0.16,0.49 0.17,0.47 0.19,0.45 0.2,0.44 0.22,0.43 0.23,0.41 0.24,0.39 0.25,0.38 0.26,0.37 0.26,0.35 0.27,0.34 0.27,0.32 0.28,0.3 0.28,0.3 0.27,0.27 0.28,0.27 0.27,0.25 0.26,0.24 0.26,0.22 0.25,0.21 0.24,0.19 0.23,0.18 0.22,0.17 0.2,0.16 0.19,0.14 0.17,0.12 c 1.34,1 2.39,2.8 2.39,4.88 0,2.89 -1.98,6.73 -9.4,6.73 -5.4,0 -8.47,-3.39 -8.47,-6.62 0,-1.7 1.14,-2.39 2.28,-2.39 1.4,0 2.29,1 2.29,2.28 0,2.25 -2.09,2.25 -2.79,2.25 1.54,2.64 4.44,3.39 6.53,3.39 5.44,0 5.44,-3.39 5.44,-5.33 0,-2.95 -0.8,-3.84 -1.71,-4.73 -3.28,-3.6 -4.37,-8.17 -4.37,-11.22 v -2.24 c 0,-0.9 0,-1.2 0.59,-1.2 0.64,0 0.64,0.45 0.64,1.35 z"
           inkscape:connector-curvature="0"
           style="fill:#000000;stroke-width:0" /><path
           id="path4548"
           d="m 469.22,408.84 0,0.13 -0.01,0.14 -0.02,0.13 -0.02,0.13 -0.03,0.12 -0.04,0.13 -0.04,0.12 -0.05,0.12 -0.05,0.12 -0.06,0.11 -0.06,0.11 -0.07,0.11 -0.08,0.1 -0.08,0.1 -0.08,0.1 -0.09,0.09 -0.09,0.09 -0.1,0.08 -0.1,0.08 -0.1,0.07 -0.11,0.07 -0.11,0.07 -0.11,0.06 -0.12,0.05 -0.12,0.05 -0.12,0.04 -0.12,0.04 -0.13,0.03 -0.13,0.02 -0.13,0.02 -0.13,0.01 -0.14,0 c -1.45,0 -2.64,-1.2 -2.64,-2.64 0,-1.44 1.19,-2.64 2.64,-2.64 1.44,0 2.64,1.2 2.64,2.64 z"
           inkscape:connector-curvature="0"
           style="fill:#000000;stroke-width:0" /></g>    </g>
    <rect
       style="fill:none;stroke:none"
       id="rect4574"
       width="346.63113"
       height="74.812477"
       x="77.306229"
       y="394.01239" />
    <g
       style="font-style:normal;font-variant:normal;font-weight:normal;font-stretch:normal;letter-spacing:normal;word-spacing:normal;text-anchor:start;fill:none;stroke:#000000;stroke-linecap:butt;stroke-linejoin:miter;stroke-miterlimit:10.43299961;stroke-opacity:1;stroke-dasharray:none;stroke-dashoffset:0"
       ns0:preamble="/home/abhinavc/playpen/textext/preamble.ini"
       ns0:text="P(doublet)$ = p = \\frac{1}{6}$"
       word-spacing="normal"
       letter-spacing="normal"
       font-size-adjust="none"
       font-stretch="normal"
       font-weight="normal"
       font-variant="normal"
       font-style="normal"
       stroke-miterlimit="10.433"
       xml:space="preserve"
       transform="matrix(5.6768624,0,0,-5.6768624,-1822.3342,3386.7071)"
       id="g4688">
<path
   id="path4690"
   d="m 328.64,531.47 0.11,0 0.12,0.01 0.11,0.01 0.11,0.02 0.11,0.02 0.11,0.03 0.1,0.03 0.1,0.04 0.11,0.04 0.09,0.04 0.1,0.05 0.09,0.05 0.09,0.06 0.09,0.06 0.08,0.06 0.08,0.07 0.08,0.07 0.07,0.07 0.07,0.08 0.07,0.08 0.06,0.08 0.05,0.08 0.05,0.09 0.05,0.09 0.04,0.09 0.04,0.1 0.03,0.09 0.03,0.1 0.02,0.1 0.01,0.1 0.01,0.1 0,0.1 c 0,1.07 -0.98,2.01 -2.35,2.01 h -2.48 v -6.89 h 0.89 v 2.87 l -0.03,0.57 v 2.89 h 1.4 c 1.09,0 1.77,-0.6 1.77,-1.45 0,-0.78 -0.63,-1.44 -1.77,-1.44 h -1.4 l 0.03,-0.57 z"
   inkscape:connector-curvature="0"
   style="fill:#000000;stroke-width:0" />
<path
   id="path4692"
   d="m 334.2,536.05 -0.04,-0.03 -0.03,-0.03 -0.03,-0.04 -0.04,-0.03 -0.04,-0.04 -0.04,-0.04 -0.04,-0.04 -0.04,-0.04 -0.04,-0.04 -0.05,-0.05 -0.04,-0.05 -0.05,-0.05 -0.05,-0.06 -0.05,-0.06 -0.04,-0.06 -0.05,-0.06 -0.05,-0.06 -0.05,-0.07 -0.05,-0.07 -0.05,-0.08 -0.05,-0.07 -0.05,-0.08 -0.05,-0.09 -0.05,-0.08 -0.05,-0.09 -0.05,-0.09 -0.05,-0.1 -0.05,-0.1 -0.04,-0.1 -0.05,-0.11 -0.04,-0.11 -0.05,-0.11 c -0.39,-1.06 -0.46,-2.11 -0.46,-2.84 0,-3.21 1.43,-4.53 1.91,-4.97 h 0.6 c -0.47,0.48 -1.74,1.76 -1.74,4.97 0,0.56 0.03,1.72 0.44,2.89 0.41,1.15 0.97,1.75 1.3,2.08 z"
   inkscape:connector-curvature="0"
   style="fill:#000000;stroke-width:0" />
<path
   id="path4694"
   d="m 339.69,535.49 h -0.74 v -2.92 c -0.53,0.44 -1.09,0.55 -1.46,0.55 -0.98,0 -1.76,-1.04 -1.76,-2.32 0,-1.3 0.77,-2.31 1.71,-2.31 0.33,0 0.92,0.09 1.48,0.62 l -0.33,0.26 c -0.23,-0.2 -0.48,-0.28 -0.74,-0.28 -0.62,0 -1.34,0.47 -1.34,1.7 0,1.31 0.85,1.72 1.44,1.72 0.45,0 0.75,-0.23 0.97,-0.54 v -1.99 c 0,-0.14 -0.02,-0.32 -0.33,-0.61 l 0.33,-0.26 v -0.51 h 0.77 z"
   inkscape:connector-curvature="0"
   style="fill:#000000;stroke-width:0" />
<path
   id="path4696"
   d="m 345.19,530.78 -0.01,0.13 0,0.12 -0.02,0.12 -0.02,0.12 -0.02,0.11 -0.03,0.12 -0.04,0.11 -0.04,0.11 -0.04,0.1 -0.05,0.11 -0.05,0.1 -0.06,0.1 -0.06,0.09 -0.07,0.09 -0.07,0.09 -0.07,0.08 -0.07,0.08 -0.08,0.07 -0.09,0.07 -0.08,0.07 -0.09,0.06 -0.09,0.06 -0.1,0.05 -0.09,0.05 -0.1,0.04 -0.1,0.04 -0.1,0.03 -0.11,0.03 -0.1,0.02 -0.11,0.01 -0.11,0.01 -0.11,0.01 -0.01,-0.61 c 0.7,0 1.41,-0.52 1.41,-1.69 0,-1.17 -0.68,-1.76 -1.41,-1.76 h 0 c -0.69,0 -1.4,0.56 -1.4,1.76 0,1.2 0.75,1.69 1.4,1.69 l 0.01,0.61 c -1.22,0 -2.19,-1.1 -2.19,-2.4 0,-1.31 1.01,-2.29 2.18,-2.29 1.19,0 2.19,1 2.19,2.29 z"
   inkscape:connector-curvature="0"
   style="fill:#000000;stroke-width:0" />
<path
   id="path4698"
   d="m 349.83,533.01 h -0.78 v -2.88 c 0,-0.75 -0.55,-1.1 -1.19,-1.1 -0.71,0 -0.78,0.26 -0.78,0.69 v 3.29 h -0.77 v -3.33 c 0,-0.72 0.23,-1.19 1.05,-1.19 0.53,0 1.24,0.16 1.72,0.58 v -0.47 h 0.75 z"
   inkscape:connector-curvature="0"
   style="fill:#000000;stroke-width:0" />
<path
   id="path4700"
   d="m 352.21,535.49 h -0.74 v -6.89 h 0.77 v 0.45 c 0.24,-0.21 0.67,-0.56 1.34,-0.56 0.99,0 1.85,0.99 1.85,2.32 0,1.23 -0.68,2.31 -1.62,2.31 -0.38,0 -1,-0.1 -1.6,-0.59 l 0.03,-0.61 c 0.16,0.24 0.52,0.59 1.07,0.59 0.58,0 1.34,-0.43 1.34,-1.7 0,-1.29 -0.84,-1.72 -1.44,-1.72 -0.39,0 -0.72,0.18 -0.97,0.64 v 2.19 l -0.03,0.61 z"
   inkscape:connector-curvature="0"
   style="fill:#000000;stroke-width:0" />
<polygon
   id="polygon4702"
   points="356.6,535.49 356.6,528.6 357.35,528.6 357.35,535.49 "
   style="fill:#000000;stroke-width:0" />
<path
   id="path4704"
   d="m 362.3,530.77 0,0.03 0,0.04 0,0.04 0,0.04 -0.01,0.04 0,0.04 0,0.05 0,0.04 0,0.05 -0.01,0.05 0,0.05 -0.01,0.05 0,0.06 -0.01,0.05 -0.01,0.06 -0.01,0.05 -0.01,0.06 -0.01,0.06 -0.01,0.06 -0.01,0.06 -0.02,0.06 -0.02,0.06 -0.02,0.06 -0.02,0.05 -0.02,0.06 -0.02,0.06 -0.03,0.06 -0.02,0.06 -0.03,0.06 -0.03,0.06 -0.04,0.05 -0.03,0.06 c -0.41,0.62 -1.02,0.73 -1.37,0.73 -1.11,0 -2,-1.06 -2,-2.34 0,-1.31 0.95,-2.35 2.14,-2.35 0.63,0 1.2,0.24 1.59,0.51 l -0.06,0.65 c -0.63,-0.52 -1.29,-0.56 -1.52,-0.56 -0.79,0 -1.43,0.71 -1.46,1.68 l 0.05,0.55 c 0.16,0.75 0.69,1.25 1.26,1.25 0.51,0 1.07,-0.34 1.2,-1.25 h -2.46 l -0.05,-0.55 z"
   inkscape:connector-curvature="0"
   style="fill:#000000;stroke-width:0" />
<path
   id="path4706"
   d="m 364.35,532.43 h 1.4 v 0.58 h -1.4 v 1.26 h -0.69 v -1.26 h -0.87 v -0.58 h 0.84 v -2.65 c 0,-0.6 0.14,-1.29 0.83,-1.29 0.69,0 1.2,0.25 1.45,0.37 l -0.16,0.59 c -0.26,-0.21 -0.58,-0.33 -0.9,-0.33 -0.36,0 -0.5,0.3 -0.5,0.83 z"
   inkscape:connector-curvature="0"
   style="fill:#000000;stroke-width:0" />
<path
   id="path4708"
   d="m 367.37,526.11 0.03,0.03 0.03,0.03 0.04,0.04 0.03,0.03 0.04,0.04 0.04,0.04 0.04,0.04 0.04,0.04 0.05,0.05 0.04,0.04 0.05,0.05 0.04,0.06 0.05,0.05 0.05,0.06 0.05,0.06 0.05,0.06 0.05,0.07 0.05,0.06 0.05,0.07 0.05,0.08 0.05,0.08 0.05,0.08 0.05,0.08 0.05,0.08 0.04,0.09 0.05,0.1 0.05,0.09 0.05,0.1 0.05,0.1 0.04,0.11 0.05,0.11 0.04,0.11 c 0.4,1.06 0.47,2.11 0.47,2.84 0,3.21 -1.44,4.53 -1.91,4.97 h -0.61 c 0.48,-0.48 1.74,-1.76 1.74,-4.97 0,-0.56 -0.03,-1.72 -0.44,-2.89 -0.41,-1.15 -0.97,-1.75 -1.3,-2.08 z"
   inkscape:connector-curvature="0"
   style="fill:#000000;stroke-width:0" />
<path
   id="path4710"
   d="m 376.91,531.84 0.03,0.01 0.03,0 0.03,0 0.01,0 0.02,0 0.01,0 0.02,0 0.01,0 0.01,0.01 0.02,0 0.01,0 0.01,0.01 0.02,0 0.01,0 0.01,0.01 0.01,0.01 0.01,0 0.01,0.01 0.01,0.01 0.01,0.01 0.01,0.01 0,0 0.01,0.01 0,0.01 0,0 0,0.01 0.01,0 0,0.01 0,0.01 0,0.01 0.01,0 0,0.01 0,0.01 0,0.01 0,0.01 0,0 0,0.01 c 0,0.2 -0.19,0.2 -0.33,0.2 h -5.96 c -0.14,0 -0.33,0 -0.33,-0.2 0,-0.2 0.19,-0.2 0.34,-0.2 z"
   inkscape:connector-curvature="0"
   style="fill:#000000;stroke-width:0" />
<path
   id="path4712"
   d="m 376.92,529.92 0.02,0 0.01,0 0.03,0 0.02,0 0.02,0 0.01,0 0.02,0 0.01,0 0.01,0.01 0.02,0 0.01,0 0.01,0 0.02,0.01 0.01,0 0.01,0.01 0.01,0 0.01,0.01 0.01,0.01 0.01,0 0.01,0.01 0.01,0.01 0,0.01 0.01,0 0,0.01 0.01,0 0,0.01 0,0 0,0.01 0.01,0.01 0,0 0,0.01 0,0.01 0.01,0.01 0,0 0,0.01 0,0.01 0,0.01 0,0.01 0,0.01 c 0,0.2 -0.19,0.2 -0.34,0.2 h -5.94 c -0.15,0 -0.34,0 -0.34,-0.2 0,-0.2 0.19,-0.2 0.33,-0.2 z"
   inkscape:connector-curvature="0"
   style="fill:#000000;stroke-width:0" />
<path
   id="path4714"
   d="m 381.04,527.39 -0.01,-0.04 0,-0.03 -0.01,-0.02 -0.01,-0.03 0,-0.02 -0.01,-0.03 -0.01,-0.02 -0.01,-0.02 0,-0.02 -0.01,-0.02 -0.01,-0.02 -0.01,-0.01 -0.01,-0.02 -0.01,-0.01 -0.01,-0.01 -0.01,-0.02 -0.02,-0.01 -0.01,-0.01 -0.02,0 -0.02,-0.01 -0.01,-0.01 -0.02,-0.01 -0.03,0 -0.02,-0.01 -0.02,0 -0.03,0 -0.02,0 -0.01,-0.01 -0.02,0 -0.01,0 -0.02,0 -0.01,0 -0.02,0 -0.02,0 -0.02,0 -0.02,0 -0.02,0 -0.02,0 c -0.12,0 -0.23,0 -0.23,-0.19 0,-0.08 0.05,-0.12 0.13,-0.12 0.27,0 0.56,0.03 0.84,0.03 0.33,0 0.67,-0.03 0.99,-0.03 0.04,0 0.17,0 0.17,0.2 0,0.11 -0.1,0.11 -0.23,0.11 -0.5,0 -0.5,0.07 -0.5,0.16 0,0.12 0.41,1.74 0.48,1.98 0.13,-0.28 0.41,-0.63 0.92,-0.63 l -0.01,0.22 c -0.66,0 -0.79,0.82 -0.79,0.88 0,0.02 0,0.04 0.03,0.16 l 0.49,1.95 c 0.07,0.27 0.34,0.54 0.52,0.69 0.35,0.31 0.64,0.38 0.8,0.38 0.4,0 0.64,-0.35 0.64,-0.93 0,-0.59 -0.33,-1.73 -0.51,-2.11 -0.33,-0.7 -0.81,-1.02 -1.18,-1.02 l 0.01,-0.22 c 1.15,0 2.4,1.45 2.4,2.91 0,0.93 -0.57,1.59 -1.33,1.59 -0.49,0 -0.97,-0.36 -1.3,-0.75 -0.1,0.54 -0.53,0.75 -0.89,0.75 -0.46,0 -0.65,-0.39 -0.74,-0.57 -0.18,-0.34 -0.31,-0.93 -0.31,-0.96 0,-0.1 0.1,-0.1 0.12,-0.1 0.1,0 0.11,0.01 0.17,0.23 0.17,0.7 0.37,1.18 0.73,1.18 0.16,0 0.31,-0.08 0.31,-0.46 0,-0.23 -0.03,-0.34 -0.08,-0.5 z"
   inkscape:connector-curvature="0"
   style="fill:#000000;stroke-width:0" />
<path
   id="path4716"
   d="m 395.21,531.84 0.03,0.01 0.02,0 0.03,0 0.02,0 0.01,0 0.02,0 0.01,0 0.02,0 0.01,0.01 0.01,0 0.02,0 0.01,0.01 0.01,0 0.01,0 0.02,0.01 0.01,0.01 0.01,0 0.01,0.01 0.01,0.01 0.01,0.01 0,0.01 0.01,0 0,0.01 0,0.01 0.01,0 0,0.01 0,0 0,0.01 0.01,0.01 0,0.01 0,0 0,0.01 0,0.01 0,0.01 0,0.01 0,0 0.01,0.01 c 0,0.2 -0.19,0.2 -0.33,0.2 h -5.96 c -0.14,0 -0.33,0 -0.33,-0.2 0,-0.2 0.19,-0.2 0.34,-0.2 z"
   inkscape:connector-curvature="0"
   style="fill:#000000;stroke-width:0" />
<path
   id="path4718"
   d="m 395.22,529.92 0.01,0 0.01,0 0.03,0 0.03,0 0.01,0 0.02,0 0.01,0 0.01,0 0.02,0.01 0.01,0 0.02,0 0.01,0 0.01,0.01 0.01,0 0.02,0.01 0.01,0 0.01,0.01 0.01,0.01 0.01,0 0.01,0.01 0.01,0.01 0,0.01 0,0 0.01,0.01 0,0 0,0.01 0.01,0 0,0.01 0,0.01 0,0 0.01,0.01 0,0.01 0,0.01 0,0 0,0.01 0,0.01 0,0.01 0,0.01 0.01,0.01 c 0,0.2 -0.19,0.2 -0.34,0.2 h -5.94 c -0.15,0 -0.34,0 -0.34,-0.2 0,-0.2 0.19,-0.2 0.33,-0.2 z"
   inkscape:connector-curvature="0"
   style="fill:#000000;stroke-width:0" />
<path
   id="path4720"
   d="m 402.42,536.94 0,0.01 0,0.01 0,0.01 0,0.01 0,0 0,0.01 0,0.01 0,0 0,0.01 0,0.01 -0.01,0 0,0.01 0,0.01 0,0 0,0.01 0,0 0,0.01 0,0 0,0.01 0,0.01 -0.01,0.01 0,0 -0.01,0.01 0,0 0,0.01 -0.01,0 -0.01,0.01 0,0 -0.01,0 -0.01,0.01 -0.01,0 -0.01,0 0,0 -0.01,0 0,0 -0.01,0 0,0 -0.01,0 -0.01,0 0,0 -0.01,0.01 -0.01,0 0,0 -0.01,0 -0.01,0 -0.01,0 -0.01,0 0,0 -0.01,0 -0.01,0 c -0.45,-0.44 -1.08,-0.45 -1.37,-0.45 v -0.25 c 0.17,0 0.63,0 1.01,0.2 v -3.55 c 0,-0.23 0,-0.32 -0.69,-0.32 h -0.27 v -0.25 c 0.13,0.01 0.98,0.03 1.24,0.03 0.22,0 1.1,-0.02 1.25,-0.03 v 0.25 h -0.27 c -0.69,0 -0.69,0.09 -0.69,0.32 z"
   inkscape:connector-curvature="0"
   style="fill:#000000;stroke-width:0" />
<line
   id="line4722"
   y2="531.09003"
   x2="404.04999"
   y1="531.09003"
   x1="400.07999"
   style="stroke-width:0.398" />
<path
   id="path4724"
   d="m 401.13,527.43 0,0.11 0,0.11 0.01,0.1 0,0.1 0.01,0.1 0.01,0.1 0.01,0.1 0.02,0.09 0.01,0.1 0.03,0.09 0.02,0.09 0.03,0.09 0.02,0.04 0.01,0.05 0.02,0.04 0.02,0.04 0.02,0.04 0.02,0.04 0.03,0.04 0.02,0.04 c 0.24,0.38 0.61,0.64 1.06,0.64 0.21,0 0.49,-0.06 0.63,-0.25 -0.18,-0.01 -0.32,-0.13 -0.32,-0.33 0,-0.17 0.11,-0.33 0.32,-0.33 0.21,0 0.34,0.14 0.34,0.34 0,0.41 -0.29,0.77 -0.98,0.77 -1.01,0 -2.03,-0.92 -2.03,-2.42 0,-1.8 0.85,-2.34 1.62,-2.34 0.84,0 1.58,0.65 1.58,1.56 0,0.88 -0.7,1.54 -1.52,1.54 l -0.03,-0.2 c 0.32,0 0.54,-0.12 0.71,-0.38 0.17,-0.26 0.17,-0.56 0.17,-0.96 0,-0.4 0,-0.69 -0.18,-0.96 -0.17,-0.24 -0.39,-0.38 -0.73,-0.38 h 0 c -0.35,0 -0.62,0.21 -0.77,0.51 -0.11,0.21 -0.16,0.56 -0.16,0.98 0,0.67 0.4,1.19 0.96,1.19 l 0.03,0.2 c -0.55,0 -0.86,-0.37 -1.01,-0.69 z"
   inkscape:connector-curvature="0"
   style="fill:#000000;stroke-width:0" />
</g>  </g>
</svg>
