<?xml version="1.0" encoding="UTF-8"?>
<svg xmlns="http://www.w3.org/2000/svg" xmlns:xlink="http://www.w3.org/1999/xlink" width="216.5331pt" height="43.965778pt" viewBox="0 0 216.5331 43.965778" version="1.1">
<g id="surface1">
<path style=" stroke:none;fill-rule:nonzero;fill:rgb(0%,0%,0%);fill-opacity:1;" d="M 0.859375 42.515625 C 1.445312 42.496094 1.738281 42.085938 1.738281 41.65625 C 1.738281 41.050781 1.308594 40.777344 0.878906 40.777344 C 0.449219 40.777344 0 41.03125 0 41.65625 C 0 42.574219 0.898438 43.335938 1.992188 43.335938 C 4.726562 43.335938 5.742188 39.136719 7.011719 33.941406 C 8.398438 28.277344 9.570312 22.554688 10.527344 16.792969 C 11.191406 12.984375 11.855469 9.390625 12.460938 7.085938 C 12.675781 6.207031 13.300781 3.882812 13.984375 3.882812 C 14.550781 3.882812 15 4.234375 15.078125 4.292969 C 14.472656 4.332031 14.179688 4.722656 14.179688 5.171875 C 14.179688 5.777344 14.628906 6.050781 15.039062 6.050781 C 15.46875 6.050781 15.917969 5.796875 15.917969 5.152344 C 15.917969 4.195312 14.941406 3.492188 13.964844 3.492188 C 12.597656 3.492188 11.582031 5.445312 10.605469 9.097656 C 10.546875 9.292969 8.105469 18.296875 6.132812 30.035156 C 5.664062 32.769531 5.15625 35.757812 4.570312 38.257812 C 4.238281 39.566406 3.417969 42.945312 1.953125 42.945312 C 1.308594 42.945312 0.878906 42.515625 0.859375 42.515625 Z M 0.859375 42.515625 "/>
<path style=" stroke:none;fill-rule:nonzero;fill:rgb(0%,0%,0%);fill-opacity:1;" d="M 18.519531 7.34375 L 19.847656 6.054688 C 21.78125 4.335938 22.523438 3.671875 22.523438 2.421875 C 22.523438 0.996094 21.410156 0 19.886719 0 C 18.480469 0 17.5625 1.152344 17.5625 2.265625 C 17.5625 2.949219 18.1875 2.949219 18.226562 2.949219 C 18.441406 2.949219 18.871094 2.8125 18.871094 2.285156 C 18.871094 1.972656 18.636719 1.640625 18.207031 1.640625 C 18.109375 1.640625 18.089844 1.640625 18.050781 1.660156 C 18.324219 0.839844 19.007812 0.390625 19.730469 0.390625 C 20.863281 0.390625 21.390625 1.40625 21.390625 2.421875 C 21.390625 3.417969 20.785156 4.394531 20.082031 5.175781 L 17.699219 7.832031 C 17.5625 7.96875 17.5625 8.007812 17.5625 8.300781 L 22.191406 8.300781 L 22.523438 6.132812 L 22.230469 6.132812 C 22.152344 6.503906 22.074219 7.050781 21.9375 7.246094 C 21.859375 7.34375 21.039062 7.34375 20.765625 7.34375 Z M 18.519531 7.34375 "/>
<path style=" stroke:none;fill-rule:nonzero;fill:rgb(0%,0%,0%);fill-opacity:1;" d="M 12.636719 35.996094 C 12.636719 35.683594 12.636719 35.664062 12.34375 35.664062 C 11.5625 36.464844 10.46875 36.464844 10.078125 36.464844 L 10.078125 36.855469 C 10.332031 36.855469 11.054688 36.855469 11.699219 36.523438 L 11.699219 42.988281 C 11.699219 43.4375 11.660156 43.574219 10.546875 43.574219 L 10.15625 43.574219 L 10.15625 43.964844 C 10.585938 43.925781 11.660156 43.925781 12.167969 43.925781 C 12.65625 43.925781 13.75 43.925781 14.179688 43.964844 L 14.179688 43.574219 L 13.789062 43.574219 C 12.65625 43.574219 12.636719 43.4375 12.636719 42.988281 Z M 12.636719 35.996094 "/>
<path style=" stroke:none;fill-rule:nonzero;fill:rgb(0%,0%,0%);fill-opacity:1;" d="M 35.269531 20.578125 C 34.703125 20.695312 34.488281 21.125 34.488281 21.457031 C 34.488281 21.886719 34.820312 22.042969 35.074219 22.042969 C 35.621094 22.042969 35.992188 21.574219 35.992188 21.085938 C 35.992188 20.34375 35.132812 19.992188 34.371094 19.992188 C 33.277344 19.992188 32.671875 21.066406 32.515625 21.417969 C 32.105469 20.070312 30.992188 19.992188 30.660156 19.992188 C 28.84375 19.992188 27.867188 22.335938 27.867188 22.746094 C 27.867188 22.804688 27.945312 22.902344 28.0625 22.902344 C 28.199219 22.902344 28.238281 22.785156 28.277344 22.726562 C 28.882812 20.734375 30.09375 20.363281 30.601562 20.363281 C 31.421875 20.363281 31.578125 21.105469 31.578125 21.535156 C 31.578125 21.925781 31.480469 22.335938 31.246094 23.195312 L 30.640625 25.65625 C 30.386719 26.730469 29.859375 27.726562 28.902344 27.726562 C 28.824219 27.726562 28.375 27.726562 27.984375 27.492188 C 28.628906 27.355469 28.785156 26.828125 28.785156 26.613281 C 28.785156 26.261719 28.511719 26.046875 28.179688 26.046875 C 27.75 26.046875 27.28125 26.417969 27.28125 26.984375 C 27.28125 27.746094 28.121094 28.078125 28.882812 28.078125 C 29.742188 28.078125 30.367188 27.394531 30.738281 26.671875 C 31.03125 27.726562 31.910156 28.078125 32.574219 28.078125 C 34.410156 28.078125 35.386719 25.734375 35.386719 25.34375 C 35.386719 25.246094 35.308594 25.167969 35.191406 25.167969 C 35.035156 25.167969 35.015625 25.265625 34.976562 25.402344 C 34.488281 26.984375 33.433594 27.726562 32.632812 27.726562 C 32.007812 27.726562 31.675781 27.257812 31.675781 26.515625 C 31.675781 26.125 31.734375 25.832031 32.027344 24.660156 L 32.652344 22.21875 C 32.925781 21.144531 33.53125 20.363281 34.351562 20.363281 C 34.390625 20.363281 34.898438 20.363281 35.269531 20.578125 Z M 35.269531 20.578125 "/>
<path style=" stroke:none;fill-rule:nonzero;fill:rgb(0%,0%,0%);fill-opacity:1;" d="M 38.335938 19.539062 L 39.664062 18.25 C 41.597656 16.53125 42.339844 15.867188 42.339844 14.617188 C 42.339844 13.191406 41.226562 12.195312 39.703125 12.195312 C 38.296875 12.195312 37.378906 13.347656 37.378906 14.460938 C 37.378906 15.144531 38.003906 15.144531 38.042969 15.144531 C 38.257812 15.144531 38.6875 15.007812 38.6875 14.480469 C 38.6875 14.167969 38.453125 13.835938 38.023438 13.835938 C 37.925781 13.835938 37.90625 13.835938 37.867188 13.855469 C 38.140625 13.035156 38.824219 12.585938 39.546875 12.585938 C 40.679688 12.585938 41.207031 13.601562 41.207031 14.617188 C 41.207031 15.613281 40.601562 16.589844 39.898438 17.371094 L 37.515625 20.027344 C 37.378906 20.164062 37.378906 20.203125 37.378906 20.496094 L 42.007812 20.496094 L 42.339844 18.328125 L 42.046875 18.328125 C 41.96875 18.699219 41.890625 19.246094 41.753906 19.441406 C 41.675781 19.539062 40.855469 19.539062 40.582031 19.539062 Z M 38.335938 19.539062 "/>
<path style=" stroke:none;fill-rule:nonzero;fill:rgb(0%,0%,0%);fill-opacity:1;" d="M 51.023438 23.429688 C 51.023438 22.902344 50.59375 22.472656 50.085938 22.472656 C 49.558594 22.472656 49.128906 22.902344 49.128906 23.429688 C 49.128906 23.9375 49.558594 24.367188 50.085938 24.367188 C 50.59375 24.367188 51.023438 23.9375 51.023438 23.429688 Z M 51.023438 23.429688 "/>
<path style=" stroke:none;fill-rule:nonzero;fill:rgb(0%,0%,0%);fill-opacity:1;" d="M 65.578125 15.910156 C 65.597656 15.832031 65.636719 15.734375 65.636719 15.636719 C 65.636719 15.460938 65.441406 15.460938 65.402344 15.460938 C 65.402344 15.460938 64.523438 15.539062 64.425781 15.539062 C 64.113281 15.558594 63.859375 15.597656 63.527344 15.617188 C 63.078125 15.65625 62.960938 15.675781 62.960938 15.988281 C 62.960938 16.183594 63.097656 16.183594 63.351562 16.183594 C 64.230469 16.183594 64.25 16.339844 64.25 16.515625 C 64.25 16.632812 64.210938 16.769531 64.191406 16.828125 L 63.097656 21.183594 C 62.902344 20.714844 62.414062 19.992188 61.476562 19.992188 C 59.464844 19.992188 57.277344 22.609375 57.277344 25.265625 C 57.277344 27.042969 58.3125 28.078125 59.523438 28.078125 C 60.519531 28.078125 61.359375 27.316406 61.867188 26.710938 C 62.042969 27.785156 62.882812 28.078125 63.429688 28.078125 C 63.957031 28.078125 64.386719 27.765625 64.71875 27.121094 C 64.992188 26.496094 65.246094 25.402344 65.246094 25.34375 C 65.246094 25.246094 65.1875 25.167969 65.070312 25.167969 C 64.914062 25.167969 64.894531 25.265625 64.816406 25.539062 C 64.542969 26.59375 64.210938 27.726562 63.46875 27.726562 C 62.960938 27.726562 62.921875 27.257812 62.921875 26.90625 C 62.921875 26.828125 62.921875 26.457031 63.039062 25.949219 Z M 61.945312 25.773438 C 61.867188 26.066406 61.867188 26.105469 61.613281 26.457031 C 61.222656 26.945312 60.421875 27.726562 59.582031 27.726562 C 58.859375 27.726562 58.429688 27.0625 58.429688 26.007812 C 58.429688 25.011719 58.996094 23 59.328125 22.257812 C 59.953125 21.007812 60.792969 20.363281 61.476562 20.363281 C 62.667969 20.363281 62.902344 21.828125 62.902344 21.964844 C 62.902344 21.984375 62.84375 22.21875 62.824219 22.257812 Z M 61.945312 25.773438 "/>
<path style=" stroke:none;fill-rule:nonzero;fill:rgb(0%,0%,0%);fill-opacity:1;" d="M 74.175781 20.578125 C 73.609375 20.695312 73.394531 21.125 73.394531 21.457031 C 73.394531 21.886719 73.726562 22.042969 73.980469 22.042969 C 74.527344 22.042969 74.898438 21.574219 74.898438 21.085938 C 74.898438 20.34375 74.039062 19.992188 73.277344 19.992188 C 72.183594 19.992188 71.578125 21.066406 71.421875 21.417969 C 71.011719 20.070312 69.898438 19.992188 69.566406 19.992188 C 67.75 19.992188 66.773438 22.335938 66.773438 22.746094 C 66.773438 22.804688 66.851562 22.902344 66.96875 22.902344 C 67.105469 22.902344 67.144531 22.785156 67.183594 22.726562 C 67.789062 20.734375 69 20.363281 69.507812 20.363281 C 70.328125 20.363281 70.484375 21.105469 70.484375 21.535156 C 70.484375 21.925781 70.386719 22.335938 70.152344 23.195312 L 69.546875 25.65625 C 69.292969 26.730469 68.765625 27.726562 67.808594 27.726562 C 67.730469 27.726562 67.28125 27.726562 66.890625 27.492188 C 67.535156 27.355469 67.691406 26.828125 67.691406 26.613281 C 67.691406 26.261719 67.417969 26.046875 67.085938 26.046875 C 66.65625 26.046875 66.1875 26.417969 66.1875 26.984375 C 66.1875 27.746094 67.027344 28.078125 67.789062 28.078125 C 68.648438 28.078125 69.273438 27.394531 69.644531 26.671875 C 69.9375 27.726562 70.816406 28.078125 71.480469 28.078125 C 73.316406 28.078125 74.292969 25.734375 74.292969 25.34375 C 74.292969 25.246094 74.214844 25.167969 74.097656 25.167969 C 73.941406 25.167969 73.921875 25.265625 73.882812 25.402344 C 73.394531 26.984375 72.339844 27.726562 71.539062 27.726562 C 70.914062 27.726562 70.582031 27.257812 70.582031 26.515625 C 70.582031 26.125 70.640625 25.832031 70.933594 24.660156 L 71.558594 22.21875 C 71.832031 21.144531 72.4375 20.363281 73.257812 20.363281 C 73.296875 20.363281 73.804688 20.363281 74.175781 20.578125 Z M 74.175781 20.578125 "/>
<path style=" stroke:none;fill-rule:nonzero;fill:rgb(0%,0%,0%);fill-opacity:1;" d="M 92.746094 22.101562 C 93 22.101562 93.3125 22.101562 93.3125 21.769531 C 93.3125 21.4375 93 21.4375 92.746094 21.4375 L 82.179688 21.4375 C 81.925781 21.4375 81.613281 21.4375 81.613281 21.75 C 81.613281 22.101562 81.90625 22.101562 82.179688 22.101562 Z M 92.746094 25.421875 C 93 25.421875 93.3125 25.421875 93.3125 25.109375 C 93.3125 24.757812 93 24.757812 92.746094 24.757812 L 82.179688 24.757812 C 81.925781 24.757812 81.613281 24.757812 81.613281 25.089844 C 81.613281 25.421875 81.90625 25.421875 82.179688 25.421875 Z M 92.746094 25.421875 "/>
<path style=" stroke:none;fill-rule:nonzero;fill:rgb(0%,0%,0%);fill-opacity:1;" d="M 101.128906 42.515625 C 101.714844 42.496094 102.007812 42.085938 102.007812 41.65625 C 102.007812 41.050781 101.578125 40.777344 101.148438 40.777344 C 100.71875 40.777344 100.269531 41.03125 100.269531 41.65625 C 100.269531 42.574219 101.167969 43.335938 102.261719 43.335938 C 104.996094 43.335938 106.011719 39.136719 107.28125 33.941406 C 108.667969 28.277344 109.839844 22.554688 110.796875 16.792969 C 111.460938 12.984375 112.125 9.390625 112.730469 7.085938 C 112.945312 6.207031 113.570312 3.882812 114.253906 3.882812 C 114.820312 3.882812 115.269531 4.234375 115.347656 4.292969 C 114.742188 4.332031 114.449219 4.722656 114.449219 5.171875 C 114.449219 5.777344 114.898438 6.050781 115.308594 6.050781 C 115.738281 6.050781 116.1875 5.796875 116.1875 5.152344 C 116.1875 4.195312 115.210938 3.492188 114.234375 3.492188 C 112.867188 3.492188 111.851562 5.445312 110.875 9.097656 C 110.816406 9.292969 108.375 18.296875 106.402344 30.035156 C 105.933594 32.769531 105.425781 35.757812 104.839844 38.257812 C 104.507812 39.566406 103.6875 42.945312 102.222656 42.945312 C 101.578125 42.945312 101.148438 42.515625 101.128906 42.515625 Z M 101.128906 42.515625 "/>
<path style=" stroke:none;fill-rule:nonzero;fill:rgb(0%,0%,0%);fill-opacity:1;" d="M 118.789062 7.34375 L 120.117188 6.054688 C 122.050781 4.335938 122.792969 3.671875 122.792969 2.421875 C 122.792969 0.996094 121.679688 0 120.15625 0 C 118.75 0 117.832031 1.152344 117.832031 2.265625 C 117.832031 2.949219 118.457031 2.949219 118.496094 2.949219 C 118.710938 2.949219 119.140625 2.8125 119.140625 2.285156 C 119.140625 1.972656 118.90625 1.640625 118.476562 1.640625 C 118.378906 1.640625 118.359375 1.640625 118.320312 1.660156 C 118.59375 0.839844 119.277344 0.390625 120 0.390625 C 121.132812 0.390625 121.660156 1.40625 121.660156 2.421875 C 121.660156 3.417969 121.054688 4.394531 120.351562 5.175781 L 117.96875 7.832031 C 117.832031 7.96875 117.832031 8.007812 117.832031 8.300781 L 122.460938 8.300781 L 122.792969 6.132812 L 122.5 6.132812 C 122.421875 6.503906 122.34375 7.050781 122.207031 7.246094 C 122.128906 7.34375 121.308594 7.34375 121.035156 7.34375 Z M 118.789062 7.34375 "/>
<path style=" stroke:none;fill-rule:nonzero;fill:rgb(0%,0%,0%);fill-opacity:1;" d="M 112.910156 35.996094 C 112.910156 35.683594 112.910156 35.664062 112.617188 35.664062 C 111.835938 36.464844 110.742188 36.464844 110.351562 36.464844 L 110.351562 36.855469 C 110.605469 36.855469 111.328125 36.855469 111.972656 36.523438 L 111.972656 42.988281 C 111.972656 43.4375 111.933594 43.574219 110.820312 43.574219 L 110.429688 43.574219 L 110.429688 43.964844 C 110.859375 43.925781 111.933594 43.925781 112.441406 43.925781 C 112.929688 43.925781 114.023438 43.925781 114.453125 43.964844 L 114.453125 43.574219 L 114.0625 43.574219 C 112.929688 43.574219 112.910156 43.4375 112.910156 42.988281 Z M 112.910156 35.996094 "/>
<path style=" stroke:none;fill-rule:nonzero;fill:rgb(0%,0%,0%);fill-opacity:1;" d="M 129.878906 32.257812 C 129.878906 32.199219 129.878906 32.160156 129.585938 31.867188 C 127.789062 30.050781 126.792969 27.101562 126.792969 23.429688 C 126.792969 19.953125 127.632812 16.964844 129.703125 14.855469 C 129.878906 14.679688 129.878906 14.660156 129.878906 14.601562 C 129.878906 14.484375 129.800781 14.464844 129.722656 14.464844 C 129.488281 14.464844 128.023438 15.753906 127.144531 17.511719 C 126.226562 19.308594 125.816406 21.242188 125.816406 23.429688 C 125.816406 25.03125 126.070312 27.160156 127.007812 29.09375 C 128.0625 31.242188 129.527344 32.394531 129.722656 32.394531 C 129.800781 32.394531 129.878906 32.375 129.878906 32.257812 Z M 129.878906 32.257812 "/>
<path style=" stroke:none;fill-rule:nonzero;fill:rgb(0%,0%,0%);fill-opacity:1;" d="M 134.1875 21.457031 C 133.875 21.476562 133.816406 21.496094 133.816406 21.671875 C 133.816406 21.847656 133.894531 21.847656 134.226562 21.847656 L 135.046875 21.847656 C 136.570312 21.847656 137.253906 23.097656 137.253906 24.816406 C 137.253906 27.160156 136.023438 27.785156 135.144531 27.785156 C 134.285156 27.785156 132.820312 27.375 132.3125 26.203125 C 132.878906 26.28125 133.40625 25.96875 133.40625 25.324219 C 133.40625 24.796875 133.015625 24.445312 132.527344 24.445312 C 132.097656 24.445312 131.628906 24.699219 131.628906 25.382812 C 131.628906 26.964844 133.210938 28.273438 135.203125 28.273438 C 137.332031 28.273438 138.914062 26.652344 138.914062 24.835938 C 138.914062 23.195312 137.585938 21.886719 135.867188 21.59375 C 137.429688 21.144531 138.425781 19.835938 138.425781 18.429688 C 138.425781 17.023438 136.960938 15.988281 135.222656 15.988281 C 133.425781 15.988281 132.097656 17.082031 132.097656 18.390625 C 132.097656 19.09375 132.664062 19.25 132.9375 19.25 C 133.308594 19.25 133.738281 18.976562 133.738281 18.429688 C 133.738281 17.863281 133.308594 17.609375 132.917969 17.609375 C 132.800781 17.609375 132.761719 17.609375 132.722656 17.628906 C 133.40625 16.417969 135.085938 16.417969 135.164062 16.417969 C 135.769531 16.417969 136.921875 16.671875 136.921875 18.429688 C 136.921875 18.78125 136.882812 19.777344 136.355469 20.558594 C 135.808594 21.339844 135.203125 21.398438 134.714844 21.417969 Z M 134.1875 21.457031 "/>
<path style=" stroke:none;fill-rule:nonzero;fill:rgb(0%,0%,0%);fill-opacity:1;" d="M 155.464844 23.78125 C 155.777344 23.78125 156.089844 23.78125 156.089844 23.429688 C 156.089844 23.058594 155.777344 23.058594 155.464844 23.058594 L 145.757812 23.058594 C 145.464844 23.058594 145.132812 23.058594 145.132812 23.429688 C 145.132812 23.78125 145.464844 23.78125 145.757812 23.78125 Z M 155.464844 23.78125 "/>
<path style=" stroke:none;fill-rule:nonzero;fill:rgb(0%,0%,0%);fill-opacity:1;" d="M 170.078125 20.578125 C 169.511719 20.695312 169.296875 21.125 169.296875 21.457031 C 169.296875 21.886719 169.628906 22.042969 169.882812 22.042969 C 170.429688 22.042969 170.800781 21.574219 170.800781 21.085938 C 170.800781 20.34375 169.941406 19.992188 169.179688 19.992188 C 168.085938 19.992188 167.480469 21.066406 167.324219 21.417969 C 166.914062 20.070312 165.800781 19.992188 165.46875 19.992188 C 163.652344 19.992188 162.675781 22.335938 162.675781 22.746094 C 162.675781 22.804688 162.753906 22.902344 162.871094 22.902344 C 163.007812 22.902344 163.046875 22.785156 163.085938 22.726562 C 163.691406 20.734375 164.902344 20.363281 165.410156 20.363281 C 166.230469 20.363281 166.386719 21.105469 166.386719 21.535156 C 166.386719 21.925781 166.289062 22.335938 166.054688 23.195312 L 165.449219 25.65625 C 165.195312 26.730469 164.667969 27.726562 163.710938 27.726562 C 163.632812 27.726562 163.183594 27.726562 162.792969 27.492188 C 163.4375 27.355469 163.59375 26.828125 163.59375 26.613281 C 163.59375 26.261719 163.320312 26.046875 162.988281 26.046875 C 162.558594 26.046875 162.089844 26.417969 162.089844 26.984375 C 162.089844 27.746094 162.929688 28.078125 163.691406 28.078125 C 164.550781 28.078125 165.175781 27.394531 165.546875 26.671875 C 165.839844 27.726562 166.71875 28.078125 167.382812 28.078125 C 169.21875 28.078125 170.195312 25.734375 170.195312 25.34375 C 170.195312 25.246094 170.117188 25.167969 170 25.167969 C 169.84375 25.167969 169.824219 25.265625 169.785156 25.402344 C 169.296875 26.984375 168.242188 27.726562 167.441406 27.726562 C 166.816406 27.726562 166.484375 27.257812 166.484375 26.515625 C 166.484375 26.125 166.542969 25.832031 166.835938 24.660156 L 167.460938 22.21875 C 167.734375 21.144531 168.339844 20.363281 169.160156 20.363281 C 169.199219 20.363281 169.707031 20.363281 170.078125 20.578125 Z M 170.078125 20.578125 "/>
<path style=" stroke:none;fill-rule:nonzero;fill:rgb(0%,0%,0%);fill-opacity:1;" d="M 176.621094 23.429688 C 176.621094 22.082031 176.445312 19.855469 175.429688 17.765625 C 174.375 15.617188 172.910156 14.464844 172.714844 14.464844 C 172.636719 14.464844 172.539062 14.484375 172.539062 14.601562 C 172.539062 14.660156 172.539062 14.679688 172.851562 14.992188 C 174.648438 16.808594 175.644531 19.757812 175.644531 23.429688 C 175.644531 26.90625 174.804688 29.894531 172.734375 32.003906 C 172.539062 32.160156 172.539062 32.199219 172.539062 32.257812 C 172.539062 32.375 172.636719 32.394531 172.714844 32.394531 C 172.949219 32.394531 174.414062 31.105469 175.292969 29.347656 C 176.210938 27.53125 176.621094 25.597656 176.621094 23.429688 Z M 176.621094 23.429688 "/>
<path style=" stroke:none;fill-rule:nonzero;fill:rgb(0%,0%,0%);fill-opacity:1;" d="M 179.972656 19.539062 L 181.300781 18.25 C 183.234375 16.53125 183.976562 15.867188 183.976562 14.617188 C 183.976562 13.191406 182.863281 12.195312 181.339844 12.195312 C 179.933594 12.195312 179.015625 13.347656 179.015625 14.460938 C 179.015625 15.144531 179.640625 15.144531 179.679688 15.144531 C 179.894531 15.144531 180.324219 15.007812 180.324219 14.480469 C 180.324219 14.167969 180.089844 13.835938 179.660156 13.835938 C 179.5625 13.835938 179.542969 13.835938 179.503906 13.855469 C 179.777344 13.035156 180.460938 12.585938 181.183594 12.585938 C 182.316406 12.585938 182.84375 13.601562 182.84375 14.617188 C 182.84375 15.613281 182.238281 16.589844 181.535156 17.371094 L 179.152344 20.027344 C 179.015625 20.164062 179.015625 20.203125 179.015625 20.496094 L 183.644531 20.496094 L 183.976562 18.328125 L 183.683594 18.328125 C 183.605469 18.699219 183.527344 19.246094 183.390625 19.441406 C 183.3125 19.539062 182.492188 19.539062 182.21875 19.539062 Z M 179.972656 19.539062 "/>
<path style=" stroke:none;fill-rule:nonzero;fill:rgb(0%,0%,0%);fill-opacity:1;" d="M 192.660156 23.429688 C 192.660156 22.902344 192.230469 22.472656 191.722656 22.472656 C 191.195312 22.472656 190.765625 22.902344 190.765625 23.429688 C 190.765625 23.9375 191.195312 24.367188 191.722656 24.367188 C 192.230469 24.367188 192.660156 23.9375 192.660156 23.429688 Z M 192.660156 23.429688 "/>
<path style=" stroke:none;fill-rule:nonzero;fill:rgb(0%,0%,0%);fill-opacity:1;" d="M 207.214844 15.910156 C 207.234375 15.832031 207.273438 15.734375 207.273438 15.636719 C 207.273438 15.460938 207.078125 15.460938 207.039062 15.460938 C 207.039062 15.460938 206.160156 15.539062 206.0625 15.539062 C 205.75 15.558594 205.496094 15.597656 205.164062 15.617188 C 204.714844 15.65625 204.597656 15.675781 204.597656 15.988281 C 204.597656 16.183594 204.734375 16.183594 204.988281 16.183594 C 205.867188 16.183594 205.886719 16.339844 205.886719 16.515625 C 205.886719 16.632812 205.847656 16.769531 205.828125 16.828125 L 204.734375 21.183594 C 204.539062 20.714844 204.050781 19.992188 203.113281 19.992188 C 201.101562 19.992188 198.914062 22.609375 198.914062 25.265625 C 198.914062 27.042969 199.949219 28.078125 201.160156 28.078125 C 202.15625 28.078125 202.996094 27.316406 203.503906 26.710938 C 203.679688 27.785156 204.519531 28.078125 205.066406 28.078125 C 205.59375 28.078125 206.023438 27.765625 206.355469 27.121094 C 206.628906 26.496094 206.882812 25.402344 206.882812 25.34375 C 206.882812 25.246094 206.824219 25.167969 206.707031 25.167969 C 206.550781 25.167969 206.53125 25.265625 206.453125 25.539062 C 206.179688 26.59375 205.847656 27.726562 205.105469 27.726562 C 204.597656 27.726562 204.558594 27.257812 204.558594 26.90625 C 204.558594 26.828125 204.558594 26.457031 204.675781 25.949219 Z M 203.582031 25.773438 C 203.503906 26.066406 203.503906 26.105469 203.25 26.457031 C 202.859375 26.945312 202.058594 27.726562 201.21875 27.726562 C 200.496094 27.726562 200.066406 27.0625 200.066406 26.007812 C 200.066406 25.011719 200.632812 23 200.964844 22.257812 C 201.589844 21.007812 202.429688 20.363281 203.113281 20.363281 C 204.304688 20.363281 204.539062 21.828125 204.539062 21.964844 C 204.539062 21.984375 204.480469 22.21875 204.460938 22.257812 Z M 203.582031 25.773438 "/>
<path style=" stroke:none;fill-rule:nonzero;fill:rgb(0%,0%,0%);fill-opacity:1;" d="M 215.808594 20.578125 C 215.242188 20.695312 215.027344 21.125 215.027344 21.457031 C 215.027344 21.886719 215.359375 22.042969 215.613281 22.042969 C 216.160156 22.042969 216.53125 21.574219 216.53125 21.085938 C 216.53125 20.34375 215.671875 19.992188 214.910156 19.992188 C 213.816406 19.992188 213.210938 21.066406 213.054688 21.417969 C 212.644531 20.070312 211.53125 19.992188 211.199219 19.992188 C 209.382812 19.992188 208.40625 22.335938 208.40625 22.746094 C 208.40625 22.804688 208.484375 22.902344 208.601562 22.902344 C 208.738281 22.902344 208.777344 22.785156 208.816406 22.726562 C 209.421875 20.734375 210.632812 20.363281 211.140625 20.363281 C 211.960938 20.363281 212.117188 21.105469 212.117188 21.535156 C 212.117188 21.925781 212.019531 22.335938 211.785156 23.195312 L 211.179688 25.65625 C 210.925781 26.730469 210.398438 27.726562 209.441406 27.726562 C 209.363281 27.726562 208.914062 27.726562 208.523438 27.492188 C 209.167969 27.355469 209.324219 26.828125 209.324219 26.613281 C 209.324219 26.261719 209.050781 26.046875 208.71875 26.046875 C 208.289062 26.046875 207.820312 26.417969 207.820312 26.984375 C 207.820312 27.746094 208.660156 28.078125 209.421875 28.078125 C 210.28125 28.078125 210.90625 27.394531 211.277344 26.671875 C 211.570312 27.726562 212.449219 28.078125 213.113281 28.078125 C 214.949219 28.078125 215.925781 25.734375 215.925781 25.34375 C 215.925781 25.246094 215.847656 25.167969 215.730469 25.167969 C 215.574219 25.167969 215.554688 25.265625 215.515625 25.402344 C 215.027344 26.984375 213.972656 27.726562 213.171875 27.726562 C 212.546875 27.726562 212.214844 27.257812 212.214844 26.515625 C 212.214844 26.125 212.273438 25.832031 212.566406 24.660156 L 213.191406 22.21875 C 213.464844 21.144531 214.070312 20.363281 214.890625 20.363281 C 214.929688 20.363281 215.4375 20.363281 215.808594 20.578125 Z M 215.808594 20.578125 "/>
</g>
</svg>
