<?xml version="1.0" encoding="UTF-8"?>
<svg xmlns="http://www.w3.org/2000/svg" xmlns:xlink="http://www.w3.org/1999/xlink" width="179.62454pt" height="95.472536pt" viewBox="0 0 179.62454 95.472536" version="1.1">
<g id="surface1">
<path style=" stroke:none;fill-rule:nonzero;fill:rgb(0%,0%,0%);fill-opacity:1;" d="M 2.03125 21.960938 C 1.503906 22.839844 0.996094 23.152344 0.292969 23.191406 C 0.117188 23.210938 0 23.210938 0 23.464844 C 0 23.5625 0.078125 23.621094 0.175781 23.621094 C 0.449219 23.621094 1.113281 23.582031 1.386719 23.582031 C 1.816406 23.582031 2.304688 23.621094 2.714844 23.621094 C 2.8125 23.621094 2.988281 23.621094 2.988281 23.328125 C 2.988281 23.210938 2.871094 23.191406 2.773438 23.191406 C 2.441406 23.152344 2.148438 23.035156 2.148438 22.683594 C 2.148438 22.46875 2.246094 22.3125 2.441406 21.980469 L 3.574219 20.085938 L 7.382812 20.085938 C 7.402344 20.222656 7.402344 20.339844 7.402344 20.476562 C 7.460938 20.867188 7.636719 22.429688 7.636719 22.703125 C 7.636719 23.152344 6.875 23.191406 6.640625 23.191406 C 6.464844 23.191406 6.308594 23.191406 6.308594 23.464844 C 6.308594 23.621094 6.445312 23.621094 6.523438 23.621094 C 6.777344 23.621094 7.089844 23.582031 7.34375 23.582031 L 8.183594 23.582031 C 9.101562 23.582031 9.765625 23.621094 9.765625 23.621094 C 9.882812 23.621094 10.039062 23.621094 10.039062 23.328125 C 10.039062 23.191406 9.902344 23.191406 9.6875 23.191406 C 8.867188 23.191406 8.847656 23.054688 8.808594 22.605469 L 7.890625 13.289062 C 7.851562 12.976562 7.792969 12.957031 7.636719 12.957031 C 7.480469 12.957031 7.402344 12.976562 7.265625 13.210938 Z M 3.828125 19.65625 L 6.835938 14.636719 L 7.34375 19.65625 Z M 3.828125 19.65625 "/>
<path style=" stroke:none;fill-rule:nonzero;fill:rgb(0%,0%,0%);fill-opacity:1;" d="M 24.71875 18.777344 C 24.933594 18.777344 25.207031 18.777344 25.207031 18.503906 C 25.207031 18.230469 24.953125 18.230469 24.71875 18.230469 L 15.929688 18.230469 C 15.714844 18.230469 15.441406 18.230469 15.441406 18.503906 C 15.441406 18.777344 15.695312 18.777344 15.929688 18.777344 Z M 24.71875 21.550781 C 24.933594 21.550781 25.207031 21.550781 25.207031 21.296875 C 25.207031 21.003906 24.953125 21.003906 24.71875 21.003906 L 15.929688 21.003906 C 15.714844 21.003906 15.441406 21.003906 15.441406 21.277344 C 15.441406 21.550781 15.695312 21.550781 15.929688 21.550781 Z M 24.71875 21.550781 "/>
<path style=" stroke:none;fill-rule:nonzero;fill:rgb(0%,0%,0%);fill-opacity:1;" d="M 36.824219 21.101562 L 36.492188 21.101562 C 36.433594 21.355469 36.316406 22.195312 36.179688 22.429688 C 36.0625 22.566406 35.222656 22.566406 34.773438 22.566406 L 32 22.566406 C 32.410156 22.214844 33.328125 21.257812 33.699219 20.90625 C 35.984375 18.816406 36.824219 18.035156 36.824219 16.550781 C 36.824219 14.832031 35.457031 13.679688 33.71875 13.679688 C 32 13.679688 30.964844 15.164062 30.964844 16.453125 C 30.964844 17.214844 31.628906 17.214844 31.667969 17.214844 C 32 17.214844 32.371094 16.980469 32.371094 16.511719 C 32.371094 16.082031 32.097656 15.808594 31.667969 15.808594 C 31.550781 15.808594 31.511719 15.808594 31.472656 15.828125 C 31.746094 14.8125 32.566406 14.109375 33.523438 14.109375 C 34.792969 14.109375 35.574219 15.183594 35.574219 16.550781 C 35.574219 17.820312 34.851562 18.933594 33.992188 19.890625 L 30.964844 23.269531 L 30.964844 23.621094 L 36.433594 23.621094 Z M 36.824219 21.101562 "/>
<path style=" stroke:none;fill-rule:nonzero;fill:rgb(0%,0%,0%);fill-opacity:1;" d="M 41.703125 35.742188 C 42.171875 35.722656 42.425781 35.390625 42.425781 35.019531 C 42.425781 34.53125 42.054688 34.277344 41.703125 34.277344 C 41.351562 34.277344 40.980469 34.511719 40.980469 35.039062 C 40.980469 35.800781 41.722656 36.425781 42.640625 36.425781 C 44.90625 36.425781 45.765625 32.929688 46.820312 28.59375 C 47.972656 23.867188 48.949219 19.101562 49.75 14.316406 C 50.296875 11.132812 50.863281 8.144531 51.371094 6.210938 C 51.546875 5.488281 52.054688 3.554688 52.640625 3.554688 C 53.089844 3.554688 53.460938 3.828125 53.519531 3.886719 C 53.03125 3.925781 52.777344 4.257812 52.777344 4.628906 C 52.777344 5.117188 53.148438 5.351562 53.5 5.351562 C 53.851562 5.351562 54.222656 5.136719 54.222656 4.609375 C 54.222656 3.808594 53.421875 3.222656 52.601562 3.222656 C 51.46875 3.222656 50.628906 4.84375 49.808594 7.890625 C 49.769531 8.066406 47.738281 15.566406 46.078125 25.332031 C 45.707031 27.617188 45.257812 30.117188 44.769531 32.1875 C 44.496094 33.28125 43.8125 36.09375 42.601562 36.09375 C 42.074219 36.09375 41.703125 35.742188 41.703125 35.742188 Z M 41.703125 35.742188 "/>
<path style=" stroke:none;fill-rule:nonzero;fill:rgb(0%,0%,0%);fill-opacity:1;" d="M 59.03125 0.527344 L 59.949219 0.527344 C 59.792969 1.191406 59.695312 1.679688 59.695312 2.167969 C 59.695312 2.539062 59.8125 3.300781 60.164062 3.300781 C 60.359375 3.300781 60.515625 3.125 60.515625 2.949219 C 60.515625 2.890625 60.496094 2.832031 60.476562 2.792969 C 60.203125 2.304688 60.144531 1.816406 60.144531 1.425781 C 60.144531 1.308594 60.144531 0.976562 60.242188 0.527344 L 61.238281 0.527344 C 61.316406 0.527344 61.648438 0.527344 61.648438 0.214844 C 61.648438 0 61.433594 0 61.316406 0 L 58.328125 0 C 58.191406 0 57.839844 0 57.449219 0.371094 C 57.214844 0.585938 56.941406 0.957031 56.941406 1.015625 C 56.941406 1.132812 57.039062 1.132812 57.078125 1.132812 C 57.15625 1.132812 57.175781 1.113281 57.234375 1.054688 C 57.351562 0.859375 57.644531 0.527344 58.25 0.527344 L 58.738281 0.527344 C 58.484375 1.464844 57.976562 2.460938 57.878906 2.65625 C 57.820312 2.773438 57.722656 2.96875 57.722656 3.046875 C 57.722656 3.203125 57.839844 3.300781 57.996094 3.300781 C 58.25 3.300781 58.347656 3.027344 58.425781 2.792969 C 58.5625 2.324219 58.5625 2.304688 58.679688 1.914062 Z M 59.03125 0.527344 "/>
<path style=" stroke:none;fill-rule:nonzero;fill:rgb(0%,0%,0%);fill-opacity:1;" d="M 56.476562 4.589844 L 62.171875 4.589844 L 62.171875 5.039062 L 56.476562 5.039062 Z M 56.476562 4.589844 "/>
<path style=" stroke:none;fill-rule:nonzero;fill:rgb(0%,0%,0%);fill-opacity:1;" d="M 61.3125 9.941406 L 61.3125 9.648438 L 60.433594 9.648438 L 60.433594 6.347656 C 60.433594 6.171875 60.433594 6.113281 60.257812 6.113281 C 60.121094 6.113281 60.101562 6.152344 60.042969 6.230469 L 57.445312 9.648438 L 57.445312 9.941406 L 59.769531 9.941406 L 59.769531 10.546875 C 59.769531 10.78125 59.769531 10.878906 59.144531 10.878906 L 58.910156 10.878906 L 58.910156 11.171875 C 59.066406 11.171875 59.769531 11.132812 60.101562 11.132812 C 60.433594 11.132812 61.136719 11.171875 61.273438 11.171875 L 61.273438 10.878906 L 61.058594 10.878906 C 60.433594 10.878906 60.433594 10.78125 60.433594 10.546875 L 60.433594 9.941406 Z M 59.808594 6.933594 L 59.808594 9.648438 L 57.757812 9.648438 Z M 59.808594 6.933594 "/>
<path style=" stroke:none;fill-rule:nonzero;fill:rgb(0%,0%,0%);fill-opacity:1;" d="M 53.105469 33.9375 C 53.105469 32.882812 53.007812 32.238281 52.675781 31.59375 C 52.246094 30.714844 51.425781 30.5 50.878906 30.5 C 49.628906 30.5 49.160156 31.4375 49.023438 31.710938 C 48.671875 32.433594 48.652344 33.429688 48.652344 33.9375 C 48.652344 34.601562 48.671875 35.597656 49.160156 36.398438 C 49.609375 37.140625 50.351562 37.335938 50.878906 37.335938 C 51.367188 37.335938 52.207031 37.179688 52.714844 36.203125 C 53.085938 35.480469 53.105469 34.582031 53.105469 33.9375 Z M 50.878906 37.042969 C 50.546875 37.042969 49.863281 36.886719 49.648438 35.851562 C 49.53125 35.285156 49.53125 34.347656 49.53125 33.820312 C 49.53125 33.136719 49.53125 32.433594 49.648438 31.886719 C 49.863281 30.871094 50.625 30.773438 50.878906 30.773438 C 51.210938 30.773438 51.914062 30.949219 52.109375 31.847656 C 52.226562 32.394531 52.226562 33.15625 52.226562 33.820312 C 52.226562 34.40625 52.226562 35.304688 52.109375 35.871094 C 51.894531 36.90625 51.210938 37.042969 50.878906 37.042969 Z M 50.878906 37.042969 "/>
<path style=" stroke:none;fill-rule:nonzero;fill:rgb(0%,0%,0%);fill-opacity:1;" d="M 73.117188 13.386719 C 73.117188 13.25 73.019531 13.25 72.960938 13.25 C 72.824219 13.25 72.824219 13.289062 72.765625 13.542969 L 71.945312 16.746094 C 71.90625 16.941406 71.886719 16.960938 71.867188 16.980469 C 71.867188 17 71.75 17.019531 71.730469 17.019531 C 69.269531 17.234375 67.394531 19.246094 67.394531 21.101562 C 67.394531 22.722656 68.625 23.71875 70.1875 23.796875 C 70.070312 24.265625 69.972656 24.734375 69.835938 25.203125 C 69.640625 26.003906 69.523438 26.492188 69.523438 26.550781 C 69.523438 26.570312 69.523438 26.667969 69.660156 26.667969 C 69.71875 26.667969 69.777344 26.667969 69.796875 26.609375 C 69.835938 26.570312 69.914062 26.21875 69.972656 26.023438 L 70.539062 23.796875 C 73.078125 23.660156 75.03125 21.570312 75.03125 19.695312 C 75.03125 18.191406 73.898438 17.097656 72.238281 17 Z M 72.140625 17.292969 C 73.136719 17.351562 74.113281 17.917969 74.113281 19.382812 C 74.113281 21.0625 72.941406 23.308594 70.597656 23.484375 Z M 70.265625 23.503906 C 69.523438 23.464844 68.3125 23.074219 68.3125 21.433594 C 68.3125 19.539062 69.660156 17.449219 71.808594 17.3125 Z M 70.265625 23.503906 "/>
<path style=" stroke:none;fill-rule:nonzero;fill:rgb(0%,0%,0%);fill-opacity:1;" d="M 81.5625 19.890625 C 81.5625 19.460938 81.210938 19.089844 80.761719 19.089844 C 80.332031 19.089844 79.980469 19.460938 79.980469 19.890625 C 79.980469 20.320312 80.332031 20.671875 80.761719 20.671875 C 81.210938 20.671875 81.5625 20.320312 81.5625 19.890625 Z M 81.5625 19.890625 "/>
<path style=" stroke:none;fill-rule:nonzero;fill:rgb(0%,0%,0%);fill-opacity:1;" d="M 91.09375 17.292969 C 91.09375 17.039062 91.09375 16.960938 90.9375 16.960938 C 90.820312 16.960938 90.546875 17.292969 90.429688 17.429688 C 89.980469 17.039062 89.511719 16.960938 89.023438 16.960938 C 87.226562 16.960938 86.679688 17.9375 86.679688 18.757812 C 86.679688 18.933594 86.679688 19.460938 87.246094 19.96875 C 87.734375 20.398438 88.242188 20.496094 88.925781 20.632812 C 89.746094 20.789062 89.941406 20.847656 90.3125 21.140625 C 90.585938 21.355469 90.78125 21.6875 90.78125 22.117188 C 90.78125 22.761719 90.410156 23.464844 89.082031 23.464844 C 88.105469 23.464844 87.382812 22.898438 87.050781 21.414062 C 86.992188 21.140625 86.992188 21.121094 86.992188 21.101562 C 86.953125 21.042969 86.894531 21.042969 86.855469 21.042969 C 86.679688 21.042969 86.679688 21.121094 86.679688 21.394531 L 86.679688 23.425781 C 86.679688 23.699219 86.679688 23.777344 86.835938 23.777344 C 86.914062 23.777344 86.914062 23.757812 87.167969 23.445312 C 87.246094 23.328125 87.246094 23.308594 87.480469 23.074219 C 88.046875 23.777344 88.847656 23.777344 89.101562 23.777344 C 90.664062 23.777344 91.445312 22.898438 91.445312 21.726562 C 91.445312 20.925781 90.957031 20.4375 90.820312 20.300781 C 90.292969 19.832031 89.882812 19.753906 88.886719 19.578125 C 88.457031 19.480469 87.363281 19.265625 87.363281 18.367188 C 87.363281 17.917969 87.675781 17.234375 89.023438 17.234375 C 90.644531 17.234375 90.742188 18.621094 90.761719 19.070312 C 90.78125 19.207031 90.878906 19.207031 90.9375 19.207031 C 91.09375 19.207031 91.09375 19.128906 91.09375 18.855469 Z M 91.09375 17.292969 "/>
<path style=" stroke:none;fill-rule:nonzero;fill:rgb(0%,0%,0%);fill-opacity:1;" d="M 97.613281 20.164062 C 97.945312 20.164062 97.964844 20.164062 97.964844 19.871094 C 97.964844 18.367188 97.164062 16.960938 95.347656 16.960938 C 93.648438 16.960938 92.339844 18.503906 92.339844 20.339844 C 92.339844 22.3125 93.863281 23.777344 95.523438 23.777344 C 97.300781 23.777344 97.964844 22.15625 97.964844 21.84375 C 97.964844 21.746094 97.90625 21.6875 97.808594 21.6875 C 97.691406 21.6875 97.652344 21.765625 97.632812 21.84375 C 97.242188 23.09375 96.246094 23.445312 95.601562 23.445312 C 94.976562 23.445312 93.472656 23.015625 93.472656 20.4375 L 93.472656 20.164062 Z M 93.492188 19.871094 C 93.609375 17.527344 94.917969 17.253906 95.347656 17.253906 C 96.949219 17.253906 97.027344 19.363281 97.046875 19.871094 Z M 93.492188 19.871094 "/>
<path style=" stroke:none;fill-rule:nonzero;fill:rgb(0%,0%,0%);fill-opacity:1;" d="M 103.753906 18.09375 C 103.578125 18.09375 103.011719 18.09375 103.011719 18.699219 C 103.011719 19.070312 103.265625 19.324219 103.636719 19.324219 C 103.96875 19.324219 104.261719 19.109375 104.261719 18.679688 C 104.261719 17.683594 103.207031 16.960938 101.996094 16.960938 C 100.257812 16.960938 98.871094 18.503906 98.871094 20.398438 C 98.871094 22.3125 100.296875 23.777344 101.996094 23.777344 C 103.96875 23.777344 104.417969 21.980469 104.417969 21.84375 C 104.417969 21.707031 104.300781 21.707031 104.261719 21.707031 C 104.125 21.707031 104.105469 21.746094 104.066406 21.941406 C 103.734375 22.996094 102.933594 23.445312 102.132812 23.445312 C 101.214844 23.445312 100.003906 22.644531 100.003906 20.378906 C 100.003906 17.898438 101.273438 17.292969 102.015625 17.292969 C 102.582031 17.292969 103.402344 17.507812 103.753906 18.09375 Z M 103.753906 18.09375 "/>
<path style=" stroke:none;fill-rule:nonzero;fill:rgb(0%,0%,0%);fill-opacity:1;" d="M 107.753906 15.441406 C 107.910156 15.285156 108.320312 14.953125 108.496094 14.816406 C 109.101562 14.25 109.6875 13.703125 109.6875 12.804688 C 109.6875 11.613281 108.691406 10.851562 107.460938 10.851562 C 106.25 10.851562 105.46875 11.75 105.46875 12.648438 C 105.46875 13.136719 105.859375 13.195312 105.996094 13.195312 C 106.210938 13.195312 106.523438 13.058594 106.523438 12.667969 C 106.523438 12.160156 106.015625 12.160156 105.898438 12.160156 C 106.191406 11.417969 106.855469 11.183594 107.34375 11.183594 C 108.261719 11.183594 108.75 11.964844 108.75 12.804688 C 108.75 13.839844 108.027344 14.601562 106.835938 15.792969 L 105.585938 17.101562 C 105.46875 17.199219 105.46875 17.21875 105.46875 17.472656 L 109.394531 17.472656 L 109.6875 15.695312 L 109.375 15.695312 C 109.355469 15.890625 109.277344 16.378906 109.160156 16.574219 C 109.101562 16.652344 108.339844 16.652344 108.183594 16.652344 L 106.40625 16.652344 Z M 107.753906 15.441406 "/>
<path style=" stroke:none;fill-rule:nonzero;fill:rgb(0%,0%,0%);fill-opacity:1;" d="M 119.769531 13.386719 C 119.769531 13.25 119.671875 13.25 119.613281 13.25 C 119.476562 13.25 119.476562 13.289062 119.417969 13.542969 L 118.597656 16.746094 C 118.558594 16.941406 118.539062 16.960938 118.519531 16.980469 C 118.519531 17 118.402344 17.019531 118.382812 17.019531 C 115.921875 17.234375 114.046875 19.246094 114.046875 21.101562 C 114.046875 22.722656 115.277344 23.71875 116.839844 23.796875 C 116.722656 24.265625 116.625 24.734375 116.488281 25.203125 C 116.292969 26.003906 116.175781 26.492188 116.175781 26.550781 C 116.175781 26.570312 116.175781 26.667969 116.3125 26.667969 C 116.371094 26.667969 116.429688 26.667969 116.449219 26.609375 C 116.488281 26.570312 116.566406 26.21875 116.625 26.023438 L 117.191406 23.796875 C 119.730469 23.660156 121.683594 21.570312 121.683594 19.695312 C 121.683594 18.191406 120.550781 17.097656 118.890625 17 Z M 118.792969 17.292969 C 119.789062 17.351562 120.765625 17.917969 120.765625 19.382812 C 120.765625 21.0625 119.59375 23.308594 117.25 23.484375 Z M 116.917969 23.503906 C 116.175781 23.464844 114.964844 23.074219 114.964844 21.433594 C 114.964844 19.539062 116.3125 17.449219 118.460938 17.3125 Z M 116.917969 23.503906 "/>
<path style=" stroke:none;fill-rule:nonzero;fill:rgb(0%,0%,0%);fill-opacity:1;" d="M 128.214844 19.890625 C 128.214844 19.460938 127.863281 19.089844 127.414062 19.089844 C 126.984375 19.089844 126.632812 19.460938 126.632812 19.890625 C 126.632812 20.320312 126.984375 20.671875 127.414062 20.671875 C 127.863281 20.671875 128.214844 20.320312 128.214844 19.890625 Z M 128.214844 19.890625 "/>
<path style=" stroke:none;fill-rule:nonzero;fill:rgb(0%,0%,0%);fill-opacity:1;" d="M 140.363281 13.621094 C 140.382812 13.5625 140.402344 13.484375 140.402344 13.40625 C 140.402344 13.25 140.246094 13.25 140.226562 13.25 C 140.207031 13.25 139.484375 13.308594 139.40625 13.328125 C 139.152344 13.347656 138.917969 13.367188 138.664062 13.386719 C 138.273438 13.425781 138.175781 13.425781 138.175781 13.699219 C 138.175781 13.855469 138.292969 13.855469 138.507812 13.855469 C 139.230469 13.855469 139.25 13.992188 139.25 14.128906 C 139.25 14.226562 139.230469 14.34375 139.210938 14.382812 L 138.292969 18.015625 C 138.136719 17.625 137.726562 17.039062 136.945312 17.039062 C 135.265625 17.039062 133.449219 19.207031 133.449219 21.433594 C 133.449219 22.898438 134.308594 23.777344 135.324219 23.777344 C 136.144531 23.777344 136.847656 23.132812 137.257812 22.644531 C 137.414062 23.523438 138.117188 23.777344 138.566406 23.777344 C 139.015625 23.777344 139.367188 23.503906 139.640625 22.957031 C 139.875 22.449219 140.089844 21.550781 140.089844 21.492188 C 140.089844 21.414062 140.03125 21.355469 139.933594 21.355469 C 139.796875 21.355469 139.796875 21.433594 139.738281 21.648438 C 139.503906 22.527344 139.230469 23.464844 138.605469 23.464844 C 138.175781 23.464844 138.15625 23.074219 138.15625 22.78125 C 138.15625 22.722656 138.15625 22.410156 138.253906 22 Z M 137.335938 21.84375 C 137.257812 22.097656 137.257812 22.136719 137.0625 22.410156 C 136.730469 22.820312 136.066406 23.464844 135.363281 23.464844 C 134.757812 23.464844 134.40625 22.917969 134.40625 22.039062 C 134.40625 21.21875 134.875 19.539062 135.167969 18.914062 C 135.675781 17.859375 136.378906 17.332031 136.945312 17.332031 C 137.941406 17.332031 138.136719 18.5625 138.136719 18.679688 C 138.136719 18.699219 138.097656 18.875 138.078125 18.914062 Z M 137.335938 21.84375 "/>
<path style=" stroke:none;fill-rule:nonzero;fill:rgb(0%,0%,0%);fill-opacity:1;" d="M 146.917969 13.386719 C 146.917969 13.25 146.820312 13.25 146.761719 13.25 C 146.625 13.25 146.625 13.289062 146.566406 13.542969 L 145.746094 16.746094 C 145.707031 16.941406 145.6875 16.960938 145.667969 16.980469 C 145.667969 17 145.550781 17.019531 145.53125 17.019531 C 143.070312 17.234375 141.195312 19.246094 141.195312 21.101562 C 141.195312 22.722656 142.425781 23.71875 143.988281 23.796875 C 143.871094 24.265625 143.773438 24.734375 143.636719 25.203125 C 143.441406 26.003906 143.324219 26.492188 143.324219 26.550781 C 143.324219 26.570312 143.324219 26.667969 143.460938 26.667969 C 143.519531 26.667969 143.578125 26.667969 143.597656 26.609375 C 143.636719 26.570312 143.714844 26.21875 143.773438 26.023438 L 144.339844 23.796875 C 146.878906 23.660156 148.832031 21.570312 148.832031 19.695312 C 148.832031 18.191406 147.699219 17.097656 146.039062 17 Z M 145.941406 17.292969 C 146.9375 17.351562 147.914062 17.917969 147.914062 19.382812 C 147.914062 21.0625 146.742188 23.308594 144.398438 23.484375 Z M 144.066406 23.503906 C 143.324219 23.464844 142.113281 23.074219 142.113281 21.433594 C 142.113281 19.539062 143.460938 17.449219 145.609375 17.3125 Z M 144.066406 23.503906 "/>
<path style=" stroke:none;fill-rule:nonzero;fill:rgb(0%,0%,0%);fill-opacity:1;" d="M 24.71875 53.578125 C 24.933594 53.578125 25.207031 53.578125 25.207031 53.304688 C 25.207031 53.03125 24.953125 53.03125 24.71875 53.03125 L 15.929688 53.03125 C 15.714844 53.03125 15.441406 53.03125 15.441406 53.304688 C 15.441406 53.578125 15.695312 53.578125 15.929688 53.578125 Z M 24.71875 56.351562 C 24.933594 56.351562 25.207031 56.351562 25.207031 56.097656 C 25.207031 55.804688 24.953125 55.804688 24.71875 55.804688 L 15.929688 55.804688 C 15.714844 55.804688 15.441406 55.804688 15.441406 56.078125 C 15.441406 56.351562 15.695312 56.351562 15.929688 56.351562 Z M 24.71875 56.351562 "/>
<path style=" stroke:none;fill-rule:nonzero;fill:rgb(0%,0%,0%);fill-opacity:1;" d="M 36.824219 55.902344 L 36.492188 55.902344 C 36.433594 56.15625 36.316406 56.996094 36.179688 57.230469 C 36.0625 57.367188 35.222656 57.367188 34.773438 57.367188 L 32 57.367188 C 32.410156 57.015625 33.328125 56.058594 33.699219 55.707031 C 35.984375 53.617188 36.824219 52.835938 36.824219 51.351562 C 36.824219 49.632812 35.457031 48.480469 33.71875 48.480469 C 32 48.480469 30.964844 49.964844 30.964844 51.253906 C 30.964844 52.015625 31.628906 52.015625 31.667969 52.015625 C 32 52.015625 32.371094 51.78125 32.371094 51.3125 C 32.371094 50.882812 32.097656 50.609375 31.667969 50.609375 C 31.550781 50.609375 31.511719 50.609375 31.472656 50.628906 C 31.746094 49.613281 32.566406 48.910156 33.523438 48.910156 C 34.792969 48.910156 35.574219 49.984375 35.574219 51.351562 C 35.574219 52.621094 34.851562 53.734375 33.992188 54.691406 L 30.964844 58.070312 L 30.964844 58.421875 L 36.433594 58.421875 Z M 36.824219 55.902344 "/>
<path style=" stroke:none;fill-rule:nonzero;fill:rgb(0%,0%,0%);fill-opacity:1;" d="M 43.871094 62.152344 L 43.871094 61.605469 L 42.425781 61.605469 L 42.425781 47.777344 L 43.871094 47.777344 L 43.871094 47.210938 L 41.878906 47.210938 L 41.878906 62.152344 Z M 43.871094 62.152344 "/>
<path style=" stroke:none;fill-rule:nonzero;fill:rgb(0%,0%,0%);fill-opacity:1;" d="M 50.46875 48.1875 C 50.46875 48.050781 50.371094 48.050781 50.3125 48.050781 C 50.175781 48.050781 50.175781 48.089844 50.117188 48.34375 L 49.296875 51.546875 C 49.257812 51.742188 49.238281 51.761719 49.21875 51.78125 C 49.21875 51.800781 49.101562 51.820312 49.082031 51.820312 C 46.621094 52.035156 44.746094 54.046875 44.746094 55.902344 C 44.746094 57.523438 45.976562 58.519531 47.539062 58.597656 C 47.421875 59.066406 47.324219 59.535156 47.1875 60.003906 C 46.992188 60.804688 46.875 61.292969 46.875 61.351562 C 46.875 61.371094 46.875 61.46875 47.011719 61.46875 C 47.070312 61.46875 47.128906 61.46875 47.148438 61.410156 C 47.1875 61.371094 47.265625 61.019531 47.324219 60.824219 L 47.890625 58.597656 C 50.429688 58.460938 52.382812 56.371094 52.382812 54.496094 C 52.382812 52.992188 51.25 51.898438 49.589844 51.800781 Z M 49.492188 52.09375 C 50.488281 52.152344 51.464844 52.71875 51.464844 54.183594 C 51.464844 55.863281 50.292969 58.109375 47.949219 58.285156 Z M 47.617188 58.304688 C 46.875 58.265625 45.664062 57.875 45.664062 56.234375 C 45.664062 54.339844 47.011719 52.25 49.160156 52.113281 Z M 47.617188 58.304688 "/>
<path style=" stroke:none;fill-rule:nonzero;fill:rgb(0%,0%,0%);fill-opacity:1;" d="M 57.8125 52.40625 L 59.902344 52.40625 L 59.902344 51.976562 L 57.8125 51.976562 L 57.8125 49.242188 L 57.480469 49.242188 C 57.460938 50.628906 56.914062 52.074219 55.566406 52.113281 L 55.566406 52.40625 L 56.835938 52.40625 L 56.835938 56.566406 C 56.835938 58.226562 57.929688 58.578125 58.730469 58.578125 C 59.667969 58.578125 60.15625 57.640625 60.15625 56.566406 L 60.15625 55.726562 L 59.84375 55.726562 L 59.84375 56.546875 C 59.84375 57.621094 59.394531 58.246094 58.828125 58.246094 C 57.8125 58.246094 57.8125 56.859375 57.8125 56.605469 Z M 57.8125 52.40625 "/>
<path style=" stroke:none;fill-rule:nonzero;fill:rgb(0%,0%,0%);fill-opacity:1;" d="M 66.753906 54.4375 C 66.753906 53.617188 66.753906 53.03125 66.109375 52.445312 C 65.582031 51.976562 64.898438 51.761719 64.253906 51.761719 C 63.023438 51.761719 62.085938 52.5625 62.085938 53.539062 C 62.085938 53.96875 62.359375 54.183594 62.710938 54.183594 C 63.0625 54.183594 63.316406 53.929688 63.316406 53.558594 C 63.316406 52.953125 62.789062 52.953125 62.554688 52.953125 C 62.90625 52.328125 63.628906 52.054688 64.214844 52.054688 C 64.898438 52.054688 65.796875 52.621094 65.796875 53.96875 L 65.796875 54.574219 C 62.789062 54.613281 61.65625 55.863281 61.65625 57.015625 C 61.65625 58.207031 63.023438 58.578125 63.941406 58.578125 C 64.917969 58.578125 65.601562 57.972656 65.875 57.25 C 65.933594 57.953125 66.402344 58.5 67.046875 58.5 C 67.359375 58.5 68.21875 58.285156 68.21875 57.09375 L 68.21875 56.253906 L 67.886719 56.253906 L 67.886719 57.09375 C 67.886719 57.953125 67.535156 58.070312 67.320312 58.070312 C 66.753906 58.070312 66.753906 57.269531 66.753906 57.054688 Z M 65.796875 56.3125 C 65.796875 57.777344 64.703125 58.265625 64.058594 58.265625 C 63.316406 58.265625 62.710938 57.738281 62.710938 57.015625 C 62.710938 55.042969 65.25 54.867188 65.796875 54.828125 Z M 65.796875 56.3125 "/>
<path style=" stroke:none;fill-rule:nonzero;fill:rgb(0%,0%,0%);fill-opacity:1;" d="M 74.984375 54.789062 C 74.984375 53.402344 74.984375 52.992188 74.652344 52.503906 C 74.222656 51.917969 73.519531 51.839844 73.011719 51.839844 C 71.546875 51.839844 70.980469 53.070312 70.863281 53.363281 L 70.863281 51.839844 L 68.8125 51.996094 L 68.8125 52.425781 C 69.828125 52.425781 69.964844 52.542969 69.964844 53.265625 L 69.964844 57.308594 C 69.964844 57.992188 69.789062 57.992188 68.8125 57.992188 L 68.8125 58.421875 C 69.203125 58.382812 70.023438 58.382812 70.433594 58.382812 C 70.863281 58.382812 71.683594 58.382812 72.054688 58.421875 L 72.054688 57.992188 C 71.117188 57.992188 70.921875 57.992188 70.921875 57.308594 L 70.921875 54.535156 C 70.921875 52.972656 71.957031 52.132812 72.894531 52.132812 C 73.8125 52.132812 74.027344 52.894531 74.027344 53.8125 L 74.027344 57.308594 C 74.027344 57.992188 73.851562 57.992188 72.894531 57.992188 L 72.894531 58.421875 C 73.265625 58.382812 74.085938 58.382812 74.496094 58.382812 C 74.925781 58.382812 75.746094 58.382812 76.136719 58.421875 L 76.136719 57.992188 C 75.375 57.992188 75.003906 57.992188 74.984375 57.542969 Z M 74.984375 54.789062 "/>
<path style=" stroke:none;fill-rule:nonzero;fill:rgb(0%,0%,0%);fill-opacity:1;" d="M 85.265625 48.1875 C 85.265625 48.050781 85.167969 48.050781 85.109375 48.050781 C 84.972656 48.050781 84.972656 48.089844 84.914062 48.34375 L 84.09375 51.546875 C 84.054688 51.742188 84.035156 51.761719 84.015625 51.78125 C 84.015625 51.800781 83.898438 51.820312 83.878906 51.820312 C 81.417969 52.035156 79.542969 54.046875 79.542969 55.902344 C 79.542969 57.523438 80.773438 58.519531 82.335938 58.597656 C 82.21875 59.066406 82.121094 59.535156 81.984375 60.003906 C 81.789062 60.804688 81.671875 61.292969 81.671875 61.351562 C 81.671875 61.371094 81.671875 61.46875 81.808594 61.46875 C 81.867188 61.46875 81.925781 61.46875 81.945312 61.410156 C 81.984375 61.371094 82.0625 61.019531 82.121094 60.824219 L 82.6875 58.597656 C 85.226562 58.460938 87.179688 56.371094 87.179688 54.496094 C 87.179688 52.992188 86.046875 51.898438 84.386719 51.800781 Z M 84.289062 52.09375 C 85.285156 52.152344 86.261719 52.71875 86.261719 54.183594 C 86.261719 55.863281 85.089844 58.109375 82.746094 58.285156 Z M 82.414062 58.304688 C 81.671875 58.265625 80.460938 57.875 80.460938 56.234375 C 80.460938 54.339844 81.808594 52.25 83.957031 52.113281 Z M 82.414062 58.304688 "/>
<path style=" stroke:none;fill-rule:nonzero;fill:rgb(0%,0%,0%);fill-opacity:1;" d="M 96.796875 54.964844 L 100.917969 54.964844 C 101.132812 54.964844 101.40625 54.964844 101.40625 54.710938 C 101.40625 54.417969 101.152344 54.417969 100.917969 54.417969 L 96.796875 54.417969 L 96.796875 50.296875 C 96.796875 50.082031 96.796875 49.808594 96.523438 49.808594 C 96.25 49.808594 96.25 50.0625 96.25 50.296875 L 96.25 54.417969 L 92.128906 54.417969 C 91.914062 54.417969 91.640625 54.417969 91.640625 54.691406 C 91.640625 54.964844 91.894531 54.964844 92.128906 54.964844 L 96.25 54.964844 L 96.25 59.085938 C 96.25 59.300781 96.25 59.574219 96.523438 59.574219 C 96.796875 59.574219 96.796875 59.320312 96.796875 59.085938 Z M 96.796875 54.964844 "/>
<path style=" stroke:none;fill-rule:nonzero;fill:rgb(0%,0%,0%);fill-opacity:1;" d="M 108.121094 48.050781 L 106.03125 48.226562 L 106.03125 48.65625 C 107.046875 48.65625 107.164062 48.753906 107.164062 49.496094 L 107.164062 57.308594 C 107.164062 57.992188 107.007812 57.992188 106.03125 57.992188 L 106.03125 58.421875 C 106.460938 58.382812 107.183594 58.382812 107.632812 58.382812 C 108.082031 58.382812 108.824219 58.382812 109.253906 58.421875 L 109.253906 57.992188 C 108.296875 57.992188 108.121094 57.992188 108.121094 57.308594 Z M 108.121094 48.050781 "/>
<path style=" stroke:none;fill-rule:nonzero;fill:rgb(0%,0%,0%);fill-opacity:1;" d="M 116.445312 55.21875 C 116.445312 53.304688 114.980469 51.761719 113.242188 51.761719 C 111.464844 51.761719 110.039062 53.34375 110.039062 55.21875 C 110.039062 57.132812 111.523438 58.578125 113.242188 58.578125 C 115 58.578125 116.445312 57.113281 116.445312 55.21875 Z M 113.242188 58.246094 C 112.695312 58.246094 112.03125 58.011719 111.601562 57.269531 C 111.191406 56.605469 111.171875 55.726562 111.171875 55.082031 C 111.171875 54.515625 111.171875 53.617188 111.640625 52.933594 C 112.050781 52.289062 112.714844 52.054688 113.242188 52.054688 C 113.808594 52.054688 114.453125 52.328125 114.84375 52.914062 C 115.3125 53.597656 115.3125 54.535156 115.3125 55.082031 C 115.3125 55.609375 115.3125 56.546875 114.921875 57.25 C 114.511719 57.953125 113.808594 58.246094 113.242188 58.246094 Z M 113.242188 58.246094 "/>
<path style=" stroke:none;fill-rule:nonzero;fill:rgb(0%,0%,0%);fill-opacity:1;" d="M 118.71875 55.726562 C 119.421875 56.175781 120.027344 56.175781 120.183594 56.175781 C 121.53125 56.175781 122.527344 55.160156 122.527344 54.007812 C 122.527344 53.617188 122.410156 53.050781 121.941406 52.5625 C 122.507812 51.976562 123.210938 51.976562 123.289062 51.976562 C 123.347656 51.976562 123.425781 51.976562 123.484375 51.996094 C 123.328125 52.054688 123.269531 52.210938 123.269531 52.367188 C 123.269531 52.582031 123.40625 52.757812 123.640625 52.757812 C 123.777344 52.757812 124.03125 52.679688 124.03125 52.347656 C 124.03125 52.09375 123.835938 51.664062 123.308594 51.664062 C 122.527344 51.664062 121.941406 52.152344 121.746094 52.367188 C 121.296875 52.035156 120.769531 51.839844 120.203125 51.839844 C 118.855469 51.839844 117.859375 52.855469 117.859375 54.007812 C 117.859375 54.847656 118.367188 55.394531 118.523438 55.53125 C 118.347656 55.765625 118.074219 56.195312 118.074219 56.78125 C 118.074219 57.640625 118.601562 58.011719 118.71875 58.089844 C 118.035156 58.285156 117.351562 58.832031 117.351562 59.59375 C 117.351562 60.628906 118.757812 61.488281 120.59375 61.488281 C 122.371094 61.488281 123.835938 60.6875 123.835938 59.574219 C 123.835938 59.203125 123.738281 58.324219 122.839844 57.855469 C 122.078125 57.464844 121.335938 57.464844 120.046875 57.464844 C 119.128906 57.464844 119.03125 57.464844 118.757812 57.191406 C 118.621094 57.035156 118.484375 56.742188 118.484375 56.429688 C 118.484375 56.175781 118.5625 55.921875 118.71875 55.726562 Z M 120.203125 55.863281 C 118.875 55.863281 118.875 54.359375 118.875 54.007812 C 118.875 53.753906 118.875 53.128906 119.128906 52.738281 C 119.421875 52.289062 119.871094 52.152344 120.183594 52.152344 C 121.492188 52.152344 121.492188 53.65625 121.492188 54.007812 C 121.492188 54.261719 121.492188 54.886719 121.238281 55.277344 C 120.964844 55.726562 120.515625 55.863281 120.203125 55.863281 Z M 120.59375 61.175781 C 119.167969 61.175781 118.074219 60.433594 118.074219 59.59375 C 118.074219 59.476562 118.113281 58.890625 118.679688 58.5 C 119.011719 58.285156 119.128906 58.285156 120.183594 58.285156 C 121.414062 58.285156 123.113281 58.285156 123.113281 59.59375 C 123.113281 60.472656 121.980469 61.175781 120.59375 61.175781 Z M 120.59375 61.175781 "/>
<path style=" stroke:none;fill-rule:nonzero;fill:rgb(0%,0%,0%);fill-opacity:1;" d="M 129.222656 47.757812 C 129.222656 47.484375 129.222656 47.210938 128.910156 47.210938 C 128.617188 47.210938 128.617188 47.484375 128.617188 47.757812 L 128.617188 61.625 C 128.617188 61.878906 128.617188 62.152344 128.910156 62.152344 C 129.222656 62.152344 129.222656 61.878906 129.222656 61.625 Z M 129.222656 47.757812 "/>
<path style=" stroke:none;fill-rule:nonzero;fill:rgb(0%,0%,0%);fill-opacity:1;" d="M 139 52.894531 C 138.824219 52.894531 138.257812 52.894531 138.257812 53.5 C 138.257812 53.871094 138.511719 54.125 138.882812 54.125 C 139.214844 54.125 139.507812 53.910156 139.507812 53.480469 C 139.507812 52.484375 138.453125 51.761719 137.242188 51.761719 C 135.503906 51.761719 134.117188 53.304688 134.117188 55.199219 C 134.117188 57.113281 135.542969 58.578125 137.242188 58.578125 C 139.214844 58.578125 139.664062 56.78125 139.664062 56.644531 C 139.664062 56.507812 139.546875 56.507812 139.507812 56.507812 C 139.371094 56.507812 139.351562 56.546875 139.3125 56.742188 C 138.980469 57.796875 138.179688 58.246094 137.378906 58.246094 C 136.460938 58.246094 135.25 57.445312 135.25 55.179688 C 135.25 52.699219 136.519531 52.09375 137.261719 52.09375 C 137.828125 52.09375 138.648438 52.308594 139 52.894531 Z M 139 52.894531 "/>
<path style=" stroke:none;fill-rule:nonzero;fill:rgb(0%,0%,0%);fill-opacity:1;" d="M 146.898438 55.21875 C 146.898438 53.304688 145.433594 51.761719 143.695312 51.761719 C 141.917969 51.761719 140.492188 53.34375 140.492188 55.21875 C 140.492188 57.132812 141.976562 58.578125 143.695312 58.578125 C 145.453125 58.578125 146.898438 57.113281 146.898438 55.21875 Z M 143.695312 58.246094 C 143.148438 58.246094 142.484375 58.011719 142.054688 57.269531 C 141.644531 56.605469 141.625 55.726562 141.625 55.082031 C 141.625 54.515625 141.625 53.617188 142.09375 52.933594 C 142.503906 52.289062 143.167969 52.054688 143.695312 52.054688 C 144.261719 52.054688 144.90625 52.328125 145.296875 52.914062 C 145.765625 53.597656 145.765625 54.535156 145.765625 55.082031 C 145.765625 55.609375 145.765625 56.546875 145.375 57.25 C 144.964844 57.953125 144.261719 58.246094 143.695312 58.246094 Z M 143.695312 58.246094 "/>
<path style=" stroke:none;fill-rule:nonzero;fill:rgb(0%,0%,0%);fill-opacity:1;" d="M 152.292969 52.09375 C 152.292969 51.839844 152.292969 51.761719 152.136719 51.761719 C 152.019531 51.761719 151.746094 52.09375 151.628906 52.230469 C 151.179688 51.839844 150.710938 51.761719 150.222656 51.761719 C 148.425781 51.761719 147.878906 52.738281 147.878906 53.558594 C 147.878906 53.734375 147.878906 54.261719 148.445312 54.769531 C 148.933594 55.199219 149.441406 55.296875 150.125 55.433594 C 150.945312 55.589844 151.140625 55.648438 151.511719 55.941406 C 151.785156 56.15625 151.980469 56.488281 151.980469 56.917969 C 151.980469 57.5625 151.609375 58.265625 150.28125 58.265625 C 149.304688 58.265625 148.582031 57.699219 148.25 56.214844 C 148.191406 55.941406 148.191406 55.921875 148.191406 55.902344 C 148.152344 55.84375 148.09375 55.84375 148.054688 55.84375 C 147.878906 55.84375 147.878906 55.921875 147.878906 56.195312 L 147.878906 58.226562 C 147.878906 58.5 147.878906 58.578125 148.035156 58.578125 C 148.113281 58.578125 148.113281 58.558594 148.367188 58.246094 C 148.445312 58.128906 148.445312 58.109375 148.679688 57.875 C 149.246094 58.578125 150.046875 58.578125 150.300781 58.578125 C 151.863281 58.578125 152.644531 57.699219 152.644531 56.527344 C 152.644531 55.726562 152.15625 55.238281 152.019531 55.101562 C 151.492188 54.632812 151.082031 54.554688 150.085938 54.378906 C 149.65625 54.28125 148.5625 54.066406 148.5625 53.167969 C 148.5625 52.71875 148.875 52.035156 150.222656 52.035156 C 151.84375 52.035156 151.941406 53.421875 151.960938 53.871094 C 151.980469 54.007812 152.078125 54.007812 152.136719 54.007812 C 152.292969 54.007812 152.292969 53.929688 152.292969 53.65625 Z M 152.292969 52.09375 "/>
<path style=" stroke:none;fill-rule:nonzero;fill:rgb(0%,0%,0%);fill-opacity:1;" d="M 162.066406 48.1875 C 162.066406 48.050781 161.96875 48.050781 161.910156 48.050781 C 161.773438 48.050781 161.773438 48.089844 161.714844 48.34375 L 160.894531 51.546875 C 160.855469 51.742188 160.835938 51.761719 160.816406 51.78125 C 160.816406 51.800781 160.699219 51.820312 160.679688 51.820312 C 158.21875 52.035156 156.34375 54.046875 156.34375 55.902344 C 156.34375 57.523438 157.574219 58.519531 159.136719 58.597656 C 159.019531 59.066406 158.921875 59.535156 158.785156 60.003906 C 158.589844 60.804688 158.472656 61.292969 158.472656 61.351562 C 158.472656 61.371094 158.472656 61.46875 158.609375 61.46875 C 158.667969 61.46875 158.726562 61.46875 158.746094 61.410156 C 158.785156 61.371094 158.863281 61.019531 158.921875 60.824219 L 159.488281 58.597656 C 162.027344 58.460938 163.980469 56.371094 163.980469 54.496094 C 163.980469 52.992188 162.847656 51.898438 161.1875 51.800781 Z M 161.089844 52.09375 C 162.085938 52.152344 163.0625 52.71875 163.0625 54.183594 C 163.0625 55.863281 161.890625 58.109375 159.546875 58.285156 Z M 159.214844 58.304688 C 158.472656 58.265625 157.261719 57.875 157.261719 56.234375 C 157.261719 54.339844 158.609375 52.25 160.757812 52.113281 Z M 159.214844 58.304688 "/>
<path style=" stroke:none;fill-rule:nonzero;fill:rgb(0%,0%,0%);fill-opacity:1;" d="M 166.722656 47.757812 C 166.722656 47.484375 166.722656 47.210938 166.410156 47.210938 C 166.117188 47.210938 166.117188 47.484375 166.117188 47.757812 L 166.117188 61.625 C 166.117188 61.878906 166.117188 62.152344 166.410156 62.152344 C 166.722656 62.152344 166.722656 61.878906 166.722656 61.625 Z M 166.722656 47.757812 "/>
<path style=" stroke:none;fill-rule:nonzero;fill:rgb(0%,0%,0%);fill-opacity:1;" d="M 170.867188 47.210938 L 168.855469 47.210938 L 168.855469 47.777344 L 170.300781 47.777344 L 170.300781 61.605469 L 168.855469 61.605469 L 168.855469 62.152344 L 170.867188 62.152344 Z M 170.867188 47.210938 "/>
<path style=" stroke:none;fill-rule:nonzero;fill:rgb(0%,0%,0%);fill-opacity:1;" d="M 176.480469 42.675781 L 177.398438 42.675781 C 177.242188 43.339844 177.144531 43.828125 177.144531 44.316406 C 177.144531 44.6875 177.261719 45.449219 177.613281 45.449219 C 177.808594 45.449219 177.964844 45.273438 177.964844 45.097656 C 177.964844 45.039062 177.945312 44.980469 177.925781 44.941406 C 177.652344 44.453125 177.59375 43.964844 177.59375 43.574219 C 177.59375 43.457031 177.59375 43.125 177.691406 42.675781 L 178.6875 42.675781 C 178.765625 42.675781 179.097656 42.675781 179.097656 42.363281 C 179.097656 42.148438 178.882812 42.148438 178.765625 42.148438 L 175.777344 42.148438 C 175.640625 42.148438 175.289062 42.148438 174.898438 42.519531 C 174.664062 42.734375 174.390625 43.105469 174.390625 43.164062 C 174.390625 43.28125 174.488281 43.28125 174.527344 43.28125 C 174.605469 43.28125 174.625 43.261719 174.683594 43.203125 C 174.800781 43.007812 175.09375 42.675781 175.699219 42.675781 L 176.1875 42.675781 C 175.933594 43.613281 175.425781 44.609375 175.328125 44.804688 C 175.269531 44.921875 175.171875 45.117188 175.171875 45.195312 C 175.171875 45.351562 175.289062 45.449219 175.445312 45.449219 C 175.699219 45.449219 175.796875 45.175781 175.875 44.941406 C 176.011719 44.472656 176.011719 44.453125 176.128906 44.0625 Z M 176.480469 42.675781 "/>
<path style=" stroke:none;fill-rule:nonzero;fill:rgb(0%,0%,0%);fill-opacity:1;" d="M 173.925781 46.738281 L 179.625 46.738281 L 179.625 47.1875 L 173.925781 47.1875 Z M 173.925781 46.738281 "/>
<path style=" stroke:none;fill-rule:nonzero;fill:rgb(0%,0%,0%);fill-opacity:1;" d="M 178.761719 52.09375 L 178.761719 51.800781 L 177.882812 51.800781 L 177.882812 48.5 C 177.882812 48.324219 177.882812 48.265625 177.707031 48.265625 C 177.570312 48.265625 177.550781 48.304688 177.492188 48.382812 L 174.894531 51.800781 L 174.894531 52.09375 L 177.21875 52.09375 L 177.21875 52.699219 C 177.21875 52.933594 177.21875 53.03125 176.59375 53.03125 L 176.359375 53.03125 L 176.359375 53.324219 C 176.515625 53.324219 177.21875 53.285156 177.550781 53.285156 C 177.882812 53.285156 178.585938 53.324219 178.722656 53.324219 L 178.722656 53.03125 L 178.507812 53.03125 C 177.882812 53.03125 177.882812 52.933594 177.882812 52.699219 L 177.882812 52.09375 Z M 177.257812 49.085938 L 177.257812 51.800781 L 175.207031 51.800781 Z M 177.257812 49.085938 "/>
<path style=" stroke:none;fill-rule:nonzero;fill:rgb(0%,0%,0%);fill-opacity:1;" d="M 177.304688 58.988281 C 177.304688 57.933594 177.207031 57.289062 176.875 56.644531 C 176.445312 55.765625 175.625 55.550781 175.078125 55.550781 C 173.828125 55.550781 173.359375 56.488281 173.222656 56.761719 C 172.871094 57.484375 172.851562 58.480469 172.851562 58.988281 C 172.851562 59.652344 172.871094 60.648438 173.359375 61.449219 C 173.808594 62.191406 174.550781 62.386719 175.078125 62.386719 C 175.566406 62.386719 176.40625 62.230469 176.914062 61.253906 C 177.285156 60.53125 177.304688 59.632812 177.304688 58.988281 Z M 175.078125 62.09375 C 174.746094 62.09375 174.0625 61.9375 173.847656 60.902344 C 173.730469 60.335938 173.730469 59.398438 173.730469 58.871094 C 173.730469 58.1875 173.730469 57.484375 173.847656 56.9375 C 174.0625 55.921875 174.824219 55.824219 175.078125 55.824219 C 175.410156 55.824219 176.113281 56 176.308594 56.898438 C 176.425781 57.445312 176.425781 58.207031 176.425781 58.871094 C 176.425781 59.457031 176.425781 60.355469 176.308594 60.921875 C 176.09375 61.957031 175.410156 62.09375 175.078125 62.09375 Z M 175.078125 62.09375 "/>
<path style=" stroke:none;fill-rule:nonzero;fill:rgb(0%,0%,0%);fill-opacity:1;" d="M 24.71875 80.429688 C 24.933594 80.429688 25.207031 80.429688 25.207031 80.15625 C 25.207031 79.882812 24.953125 79.882812 24.71875 79.882812 L 15.929688 79.882812 C 15.714844 79.882812 15.441406 79.882812 15.441406 80.15625 C 15.441406 80.429688 15.695312 80.429688 15.929688 80.429688 Z M 24.71875 83.203125 C 24.933594 83.203125 25.207031 83.203125 25.207031 82.949219 C 25.207031 82.65625 24.953125 82.65625 24.71875 82.65625 L 15.929688 82.65625 C 15.714844 82.65625 15.441406 82.65625 15.441406 82.929688 C 15.441406 83.203125 15.695312 83.203125 15.929688 83.203125 Z M 24.71875 83.203125 "/>
<path style=" stroke:none;fill-rule:nonzero;fill:rgb(0%,0%,0%);fill-opacity:1;" d="M 35.609375 69.449219 L 37.308594 69.449219 C 36.898438 71.109375 36.644531 72.203125 36.644531 73.394531 C 36.644531 73.609375 36.644531 75.230469 37.25 75.230469 C 37.5625 75.230469 37.835938 74.9375 37.835938 74.683594 C 37.835938 74.605469 37.835938 74.585938 37.738281 74.351562 C 37.328125 73.316406 37.328125 72.046875 37.328125 71.929688 C 37.328125 71.851562 37.328125 70.777344 37.640625 69.449219 L 39.320312 69.449219 C 39.515625 69.449219 40.003906 69.449219 40.003906 68.960938 C 40.003906 68.628906 39.730469 68.628906 39.457031 68.628906 L 34.535156 68.628906 C 34.183594 68.628906 33.675781 68.628906 32.992188 69.371094 C 32.601562 69.800781 32.132812 70.601562 32.132812 70.679688 C 32.132812 70.777344 32.210938 70.796875 32.289062 70.796875 C 32.40625 70.796875 32.40625 70.757812 32.484375 70.660156 C 33.265625 69.449219 34.046875 69.449219 34.417969 69.449219 L 35.277344 69.449219 C 34.945312 70.5625 34.574219 71.871094 33.34375 74.46875 C 33.226562 74.722656 33.226562 74.742188 33.226562 74.839844 C 33.226562 75.152344 33.5 75.230469 33.617188 75.230469 C 34.066406 75.230469 34.183594 74.839844 34.359375 74.214844 C 34.59375 73.453125 34.59375 73.414062 34.75 72.808594 Z M 35.609375 69.449219 "/>
<path style=" stroke:none;fill-rule:nonzero;fill:rgb(0%,0%,0%);fill-opacity:1;" d="M 31.730469 81.238281 L 40.578125 81.238281 L 40.578125 81.839844 L 31.730469 81.839844 Z M 31.730469 81.238281 "/>
<path style=" stroke:none;fill-rule:nonzero;fill:rgb(0%,0%,0%);fill-opacity:1;" d="M 39.074219 92.953125 L 38.742188 92.953125 C 38.683594 93.207031 38.566406 94.046875 38.429688 94.28125 C 38.3125 94.417969 37.472656 94.417969 37.023438 94.417969 L 34.25 94.417969 C 34.660156 94.066406 35.578125 93.109375 35.949219 92.757812 C 38.234375 90.667969 39.074219 89.886719 39.074219 88.402344 C 39.074219 86.683594 37.707031 85.53125 35.96875 85.53125 C 34.25 85.53125 33.214844 87.015625 33.214844 88.304688 C 33.214844 89.066406 33.878906 89.066406 33.917969 89.066406 C 34.25 89.066406 34.621094 88.832031 34.621094 88.363281 C 34.621094 87.933594 34.347656 87.660156 33.917969 87.660156 C 33.800781 87.660156 33.761719 87.660156 33.722656 87.679688 C 33.996094 86.664062 34.816406 85.960938 35.773438 85.960938 C 37.042969 85.960938 37.824219 87.035156 37.824219 88.402344 C 37.824219 89.671875 37.101562 90.785156 36.242188 91.742188 L 33.214844 95.121094 L 33.214844 95.472656 L 38.683594 95.472656 Z M 39.074219 92.953125 "/>
<path style=" stroke:none;fill-rule:nonzero;fill:rgb(0%,0%,0%);fill-opacity:1;" d="M 55.234375 81.835938 C 55.488281 81.835938 55.761719 81.835938 55.761719 81.542969 C 55.761719 81.230469 55.488281 81.230469 55.234375 81.230469 L 47.148438 81.230469 C 46.894531 81.230469 46.621094 81.230469 46.621094 81.542969 C 46.621094 81.835938 46.894531 81.835938 47.148438 81.835938 Z M 55.234375 81.835938 "/>
<path style=" stroke:none;fill-rule:nonzero;fill:rgb(0%,0%,0%);fill-opacity:1;" d="M 62.820312 74.902344 L 60.730469 75.078125 L 60.730469 75.507812 C 61.746094 75.507812 61.863281 75.605469 61.863281 76.347656 L 61.863281 84.160156 C 61.863281 84.84375 61.707031 84.84375 60.730469 84.84375 L 60.730469 85.273438 C 61.160156 85.234375 61.882812 85.234375 62.332031 85.234375 C 62.78125 85.234375 63.523438 85.234375 63.953125 85.273438 L 63.953125 84.84375 C 62.996094 84.84375 62.820312 84.84375 62.820312 84.160156 Z M 62.820312 74.902344 "/>
<path style=" stroke:none;fill-rule:nonzero;fill:rgb(0%,0%,0%);fill-opacity:1;" d="M 71.148438 82.070312 C 71.148438 80.15625 69.683594 78.613281 67.945312 78.613281 C 66.167969 78.613281 64.742188 80.195312 64.742188 82.070312 C 64.742188 83.984375 66.226562 85.429688 67.945312 85.429688 C 69.703125 85.429688 71.148438 83.964844 71.148438 82.070312 Z M 67.945312 85.097656 C 67.398438 85.097656 66.734375 84.863281 66.304688 84.121094 C 65.894531 83.457031 65.875 82.578125 65.875 81.933594 C 65.875 81.367188 65.875 80.46875 66.34375 79.785156 C 66.753906 79.140625 67.417969 78.90625 67.945312 78.90625 C 68.511719 78.90625 69.15625 79.179688 69.546875 79.765625 C 70.015625 80.449219 70.015625 81.386719 70.015625 81.933594 C 70.015625 82.460938 70.015625 83.398438 69.625 84.101562 C 69.214844 84.804688 68.511719 85.097656 67.945312 85.097656 Z M 67.945312 85.097656 "/>
<path style=" stroke:none;fill-rule:nonzero;fill:rgb(0%,0%,0%);fill-opacity:1;" d="M 73.417969 82.578125 C 74.121094 83.027344 74.726562 83.027344 74.882812 83.027344 C 76.230469 83.027344 77.226562 82.011719 77.226562 80.859375 C 77.226562 80.46875 77.109375 79.902344 76.640625 79.414062 C 77.207031 78.828125 77.910156 78.828125 77.988281 78.828125 C 78.046875 78.828125 78.125 78.828125 78.183594 78.847656 C 78.027344 78.90625 77.96875 79.0625 77.96875 79.21875 C 77.96875 79.433594 78.105469 79.609375 78.339844 79.609375 C 78.476562 79.609375 78.730469 79.53125 78.730469 79.199219 C 78.730469 78.945312 78.535156 78.515625 78.007812 78.515625 C 77.226562 78.515625 76.640625 79.003906 76.445312 79.21875 C 75.996094 78.886719 75.46875 78.691406 74.902344 78.691406 C 73.554688 78.691406 72.558594 79.707031 72.558594 80.859375 C 72.558594 81.699219 73.066406 82.246094 73.222656 82.382812 C 73.046875 82.617188 72.773438 83.046875 72.773438 83.632812 C 72.773438 84.492188 73.300781 84.863281 73.417969 84.941406 C 72.734375 85.136719 72.050781 85.683594 72.050781 86.445312 C 72.050781 87.480469 73.457031 88.339844 75.292969 88.339844 C 77.070312 88.339844 78.535156 87.539062 78.535156 86.425781 C 78.535156 86.054688 78.4375 85.175781 77.539062 84.707031 C 76.777344 84.316406 76.035156 84.316406 74.746094 84.316406 C 73.828125 84.316406 73.730469 84.316406 73.457031 84.042969 C 73.320312 83.886719 73.183594 83.59375 73.183594 83.28125 C 73.183594 83.027344 73.261719 82.773438 73.417969 82.578125 Z M 74.902344 82.714844 C 73.574219 82.714844 73.574219 81.210938 73.574219 80.859375 C 73.574219 80.605469 73.574219 79.980469 73.828125 79.589844 C 74.121094 79.140625 74.570312 79.003906 74.882812 79.003906 C 76.191406 79.003906 76.191406 80.507812 76.191406 80.859375 C 76.191406 81.113281 76.191406 81.738281 75.9375 82.128906 C 75.664062 82.578125 75.214844 82.714844 74.902344 82.714844 Z M 75.292969 88.027344 C 73.867188 88.027344 72.773438 87.285156 72.773438 86.445312 C 72.773438 86.328125 72.8125 85.742188 73.378906 85.351562 C 73.710938 85.136719 73.828125 85.136719 74.882812 85.136719 C 76.113281 85.136719 77.8125 85.136719 77.8125 86.445312 C 77.8125 87.324219 76.679688 88.027344 75.292969 88.027344 Z M 75.292969 88.027344 "/>
<path style=" stroke:none;fill-rule:nonzero;fill:rgb(0%,0%,0%);fill-opacity:1;" d="M 88.273438 82.753906 L 87.941406 82.753906 C 87.882812 83.007812 87.765625 83.847656 87.628906 84.082031 C 87.511719 84.21875 86.671875 84.21875 86.222656 84.21875 L 83.449219 84.21875 C 83.859375 83.867188 84.777344 82.910156 85.148438 82.558594 C 87.433594 80.46875 88.273438 79.6875 88.273438 78.203125 C 88.273438 76.484375 86.90625 75.332031 85.167969 75.332031 C 83.449219 75.332031 82.414062 76.816406 82.414062 78.105469 C 82.414062 78.867188 83.078125 78.867188 83.117188 78.867188 C 83.449219 78.867188 83.820312 78.632812 83.820312 78.164062 C 83.820312 77.734375 83.546875 77.460938 83.117188 77.460938 C 83 77.460938 82.960938 77.460938 82.921875 77.480469 C 83.195312 76.464844 84.015625 75.761719 84.972656 75.761719 C 86.242188 75.761719 87.023438 76.835938 87.023438 78.203125 C 87.023438 79.472656 86.300781 80.585938 85.441406 81.542969 L 82.414062 84.921875 L 82.414062 85.273438 L 87.882812 85.273438 Z M 88.273438 82.753906 "/>
</g>
</svg>
