<?xml version="1.0" encoding="UTF-8"?>
<svg xmlns="http://www.w3.org/2000/svg" xmlns:xlink="http://www.w3.org/1999/xlink" width="242.94741pt" height="78.740206pt" viewBox="0 0 242.94741 78.740206" version="1.1">
<g id="surface1">
<path style=" stroke:none;fill-rule:nonzero;fill:rgb(0%,0%,0%);fill-opacity:1;" d="M 7.34375 6.699219 L 7.34375 5.625 L 1.542969 5.625 L 1.542969 1.328125 L 3.964844 1.328125 C 4.179688 1.328125 4.394531 1.347656 4.609375 1.347656 L 7.851562 1.347656 L 7.851562 0.214844 L 0 0.214844 L 0 12.617188 L 8.085938 12.617188 L 8.085938 11.40625 L 5.722656 11.40625 C 5.507812 11.40625 5.292969 11.40625 5.078125 11.40625 L 1.542969 11.40625 L 1.542969 6.699219 Z M 7.34375 6.699219 "/>
<path style=" stroke:none;fill-rule:nonzero;fill:rgb(0%,0%,0%);fill-opacity:1;" d="M 16.632812 4.648438 L 15.304688 4.648438 L 13.996094 8.222656 C 13.683594 9.082031 13.019531 10.976562 12.921875 11.640625 L 12.902344 11.640625 C 12.804688 11.015625 12.453125 10.039062 12.179688 9.257812 L 10.519531 4.648438 L 9.132812 4.648438 L 12.082031 12.617188 L 13.683594 12.617188 Z M 16.632812 4.648438 "/>
<path style=" stroke:none;fill-rule:nonzero;fill:rgb(0%,0%,0%);fill-opacity:1;" d="M 23.992188 7.363281 C 23.992188 5.644531 22.761719 4.394531 21.082031 4.394531 C 20.007812 4.394531 19.207031 4.628906 18.328125 5.136719 L 18.425781 6.328125 C 19.226562 5.742188 20.046875 5.429688 21.082031 5.429688 C 21.902344 5.429688 22.625 6.09375 22.625 7.402344 L 22.625 8.144531 C 21.824219 8.164062 20.75 8.222656 19.675781 8.574219 C 18.464844 9.003906 17.761719 9.667969 17.761719 10.546875 C 17.761719 11.347656 18.230469 12.792969 19.753906 12.792969 C 20.75 12.792969 22 12.5 22.664062 11.953125 L 22.664062 12.617188 L 23.992188 12.617188 Z M 22.625 10.214844 C 22.625 10.566406 22.625 10.996094 22.039062 11.367188 C 21.550781 11.660156 20.945312 11.71875 20.671875 11.71875 C 19.714844 11.71875 19.050781 11.191406 19.050781 10.546875 C 19.050781 9.316406 21.53125 9.042969 22.625 9.042969 Z M 22.625 10.214844 "/>
<path style=" stroke:none;fill-rule:nonzero;fill:rgb(0%,0%,0%);fill-opacity:1;" d="M 28.113281 0.175781 L 26.785156 0.175781 L 26.785156 12.617188 L 28.113281 12.617188 Z M 28.113281 0.175781 "/>
<path style=" stroke:none;fill-rule:nonzero;fill:rgb(0%,0%,0%);fill-opacity:1;" d="M 37.175781 4.648438 L 35.808594 4.648438 L 35.808594 9.785156 C 35.808594 11.152344 34.871094 11.816406 33.699219 11.816406 C 32.449219 11.816406 32.3125 11.347656 32.3125 10.546875 L 32.3125 4.648438 L 30.964844 4.648438 L 30.964844 10.625 C 30.964844 11.914062 31.375 12.792969 32.839844 12.792969 C 33.347656 12.792969 34.753906 12.714844 35.847656 11.71875 L 35.847656 12.617188 L 37.175781 12.617188 Z M 37.175781 4.648438 "/>
<path style=" stroke:none;fill-rule:nonzero;fill:rgb(0%,0%,0%);fill-opacity:1;" d="M 45.589844 7.363281 C 45.589844 5.644531 44.359375 4.394531 42.679688 4.394531 C 41.605469 4.394531 40.804688 4.628906 39.925781 5.136719 L 40.023438 6.328125 C 40.824219 5.742188 41.644531 5.429688 42.679688 5.429688 C 43.5 5.429688 44.222656 6.09375 44.222656 7.402344 L 44.222656 8.144531 C 43.421875 8.164062 42.347656 8.222656 41.273438 8.574219 C 40.0625 9.003906 39.359375 9.667969 39.359375 10.546875 C 39.359375 11.347656 39.828125 12.792969 41.351562 12.792969 C 42.347656 12.792969 43.597656 12.5 44.261719 11.953125 L 44.261719 12.617188 L 45.589844 12.617188 Z M 44.222656 10.214844 C 44.222656 10.566406 44.222656 10.996094 43.636719 11.367188 C 43.148438 11.660156 42.542969 11.71875 42.269531 11.71875 C 41.3125 11.71875 40.648438 11.191406 40.648438 10.546875 C 40.648438 9.316406 43.128906 9.042969 44.222656 9.042969 Z M 44.222656 10.214844 "/>
<path style=" stroke:none;fill-rule:nonzero;fill:rgb(0%,0%,0%);fill-opacity:1;" d="M 50.046875 5.703125 L 52.527344 5.703125 L 52.527344 4.648438 L 50.046875 4.648438 L 50.046875 2.382812 L 48.816406 2.382812 L 48.816406 4.648438 L 47.3125 4.648438 L 47.3125 5.703125 L 48.777344 5.703125 L 48.777344 10.527344 C 48.777344 11.5625 49.011719 12.792969 50.242188 12.792969 C 51.453125 12.792969 52.273438 12.382812 52.820312 12.089844 L 52.546875 11.054688 C 51.921875 11.621094 51.257812 11.679688 50.945312 11.679688 C 50.144531 11.679688 50.046875 10.839844 50.046875 10.214844 Z M 50.046875 5.703125 "/>
<path style=" stroke:none;fill-rule:nonzero;fill:rgb(0%,0%,0%);fill-opacity:1;" d="M 60.582031 8.574219 C 60.582031 7.8125 60.503906 6.71875 59.9375 5.761719 C 59.195312 4.53125 57.945312 4.394531 57.417969 4.394531 C 55.484375 4.394531 53.863281 6.25 53.863281 8.574219 C 53.863281 10.957031 55.582031 12.792969 57.671875 12.792969 C 58.492188 12.792969 59.488281 12.558594 60.464844 11.855469 C 60.464844 11.777344 60.40625 11.210938 60.40625 11.191406 C 60.386719 11.171875 60.367188 10.761719 60.367188 10.703125 C 59.292969 11.601562 58.238281 11.71875 57.710938 11.71875 C 56.324219 11.71875 55.132812 10.488281 55.113281 8.574219 Z M 55.210938 7.617188 C 55.523438 6.40625 56.363281 5.46875 57.417969 5.46875 C 57.984375 5.46875 59.214844 5.722656 59.507812 7.617188 Z M 55.210938 7.617188 "/>
<path style=" stroke:none;fill-rule:nonzero;fill:rgb(0%,0%,0%);fill-opacity:1;" d="M 69.84375 5.703125 L 72.324219 5.703125 L 72.324219 4.648438 L 69.84375 4.648438 L 69.84375 2.382812 L 68.613281 2.382812 L 68.613281 4.648438 L 67.109375 4.648438 L 67.109375 5.703125 L 68.574219 5.703125 L 68.574219 10.527344 C 68.574219 11.5625 68.808594 12.792969 70.039062 12.792969 C 71.25 12.792969 72.070312 12.382812 72.617188 12.089844 L 72.34375 11.054688 C 71.71875 11.621094 71.054688 11.679688 70.742188 11.679688 C 69.941406 11.679688 69.84375 10.839844 69.84375 10.214844 Z M 69.84375 5.703125 "/>
<path style=" stroke:none;fill-rule:nonzero;fill:rgb(0%,0%,0%);fill-opacity:1;" d="M 80.675781 7.226562 C 80.675781 6.132812 80.441406 4.472656 78.273438 4.472656 C 77.042969 4.472656 76.222656 5.175781 75.792969 5.722656 L 75.792969 0.175781 L 74.464844 0.175781 L 74.464844 12.617188 L 75.8125 12.617188 L 75.8125 8.144531 C 75.8125 7.050781 76.242188 5.546875 77.589844 5.546875 C 79.269531 5.546875 79.308594 6.71875 79.308594 7.34375 L 79.308594 12.617188 L 80.675781 12.617188 Z M 80.675781 7.226562 "/>
<path style=" stroke:none;fill-rule:nonzero;fill:rgb(0%,0%,0%);fill-opacity:1;" d="M 89.382812 8.574219 C 89.382812 7.8125 89.304688 6.71875 88.738281 5.761719 C 87.996094 4.53125 86.746094 4.394531 86.21875 4.394531 C 84.285156 4.394531 82.664062 6.25 82.664062 8.574219 C 82.664062 10.957031 84.382812 12.792969 86.472656 12.792969 C 87.292969 12.792969 88.289062 12.558594 89.265625 11.855469 C 89.265625 11.777344 89.207031 11.210938 89.207031 11.191406 C 89.1875 11.171875 89.167969 10.761719 89.167969 10.703125 C 88.09375 11.601562 87.039062 11.71875 86.511719 11.71875 C 85.125 11.71875 83.933594 10.488281 83.914062 8.574219 Z M 84.011719 7.617188 C 84.324219 6.40625 85.164062 5.46875 86.21875 5.46875 C 86.785156 5.46875 88.015625 5.722656 88.308594 7.617188 Z M 84.011719 7.617188 "/>
<path style=" stroke:none;fill-rule:nonzero;fill:rgb(0%,0%,0%);fill-opacity:1;" d="M 98.984375 5.703125 L 100.898438 5.703125 L 100.898438 4.648438 L 98.945312 4.648438 L 98.945312 2.5 C 98.945312 1.289062 99.960938 1.074219 100.566406 1.074219 C 101.191406 1.074219 101.738281 1.269531 101.953125 1.347656 L 101.953125 0.175781 C 101.835938 0.136719 101.230469 0 100.585938 0 C 98.867188 0 97.65625 1.308594 97.65625 3.046875 L 97.65625 4.648438 L 96.347656 4.648438 L 96.347656 5.703125 L 97.65625 5.703125 L 97.65625 12.617188 L 98.984375 12.617188 Z M 98.984375 5.703125 "/>
<path style=" stroke:none;fill-rule:nonzero;fill:rgb(0%,0%,0%);fill-opacity:1;" d="M 109.5 8.671875 C 109.5 6.25 107.722656 4.394531 105.671875 4.394531 C 103.5625 4.394531 101.824219 6.289062 101.824219 8.671875 C 101.824219 11.015625 103.601562 12.792969 105.652344 12.792969 C 107.761719 12.792969 109.5 10.976562 109.5 8.671875 Z M 105.671875 11.679688 C 104.382812 11.679688 103.171875 10.605469 103.171875 8.496094 C 103.171875 6.328125 104.519531 5.46875 105.652344 5.46875 C 106.882812 5.46875 108.152344 6.386719 108.152344 8.496094 C 108.152344 10.703125 106.863281 11.679688 105.671875 11.679688 Z M 105.671875 11.679688 "/>
<path style=" stroke:none;fill-rule:nonzero;fill:rgb(0%,0%,0%);fill-opacity:1;" d="M 112.863281 0.175781 L 111.535156 0.175781 L 111.535156 12.617188 L 112.863281 12.617188 Z M 112.863281 0.175781 "/>
<path style=" stroke:none;fill-rule:nonzero;fill:rgb(0%,0%,0%);fill-opacity:1;" d="M 117.0625 0.175781 L 115.734375 0.175781 L 115.734375 12.617188 L 117.0625 12.617188 Z M 117.0625 0.175781 "/>
<path style=" stroke:none;fill-rule:nonzero;fill:rgb(0%,0%,0%);fill-opacity:1;" d="M 126.75 8.671875 C 126.75 6.25 124.972656 4.394531 122.921875 4.394531 C 120.8125 4.394531 119.074219 6.289062 119.074219 8.671875 C 119.074219 11.015625 120.851562 12.792969 122.902344 12.792969 C 125.011719 12.792969 126.75 10.976562 126.75 8.671875 Z M 122.921875 11.679688 C 121.632812 11.679688 120.421875 10.605469 120.421875 8.496094 C 120.421875 6.328125 121.769531 5.46875 122.902344 5.46875 C 124.132812 5.46875 125.402344 6.386719 125.402344 8.496094 C 125.402344 10.703125 124.113281 11.679688 122.921875 11.679688 Z M 122.921875 11.679688 "/>
<path style=" stroke:none;fill-rule:nonzero;fill:rgb(0%,0%,0%);fill-opacity:1;" d="M 138.589844 4.648438 L 137.28125 4.648438 L 136.207031 8.300781 C 135.953125 9.160156 135.445312 10.839844 135.367188 11.621094 L 135.347656 11.621094 C 135.308594 11.191406 135.015625 9.980469 134.644531 8.710938 L 133.453125 4.648438 L 132.222656 4.648438 L 131.1875 8.164062 C 130.875 9.277344 130.445312 10.820312 130.386719 11.582031 L 130.367188 11.582031 C 130.347656 11.230469 130.152344 10.292969 129.820312 9.082031 L 128.550781 4.648438 L 127.183594 4.648438 L 129.585938 12.617188 L 130.972656 12.617188 C 131.636719 10.351562 132.691406 6.953125 132.789062 5.703125 L 132.808594 5.703125 C 132.847656 6.425781 133.199219 7.714844 133.335938 8.144531 L 134.605469 12.617188 L 136.1875 12.617188 Z M 138.589844 4.648438 "/>
<path style=" stroke:none;fill-rule:nonzero;fill:rgb(0%,0%,0%);fill-opacity:1;" d="M 141.761719 0.449219 L 140.21875 0.449219 L 140.21875 1.992188 L 141.761719 1.992188 Z M 141.664062 4.648438 L 140.335938 4.648438 L 140.335938 12.617188 L 141.664062 12.617188 Z M 141.664062 4.648438 "/>
<path style=" stroke:none;fill-rule:nonzero;fill:rgb(0%,0%,0%);fill-opacity:1;" d="M 150.726562 7.226562 C 150.726562 6.132812 150.492188 4.472656 148.324219 4.472656 C 147.328125 4.472656 146.46875 4.921875 145.785156 5.78125 L 145.785156 4.570312 L 144.515625 4.570312 L 144.515625 12.617188 L 145.863281 12.617188 L 145.863281 8.144531 C 145.863281 7.050781 146.292969 5.546875 147.640625 5.546875 C 149.320312 5.546875 149.359375 6.71875 149.359375 7.34375 L 149.359375 12.617188 L 150.726562 12.617188 Z M 150.726562 7.226562 "/>
<path style=" stroke:none;fill-rule:nonzero;fill:rgb(0%,0%,0%);fill-opacity:1;" d="M 158.242188 5.546875 C 158.242188 5.546875 158.28125 5.585938 158.300781 5.625 C 158.671875 5.585938 159.0625 5.527344 159.726562 5.527344 C 159.785156 5.527344 160.195312 5.527344 160.644531 5.566406 L 160.449219 4.472656 C 160.117188 4.472656 158.886719 4.492188 157.695312 5.078125 C 157.109375 4.570312 156.386719 4.472656 156.035156 4.472656 C 154.472656 4.472656 153.222656 5.78125 153.222656 7.363281 C 153.222656 8.007812 153.417969 8.59375 153.808594 9.140625 C 153.398438 9.707031 153.300781 10.253906 153.300781 10.683594 C 153.300781 11.347656 153.554688 11.796875 153.75 12.03125 C 152.832031 12.617188 152.617188 13.378906 152.617188 13.886719 C 152.617188 15.195312 154.316406 16.289062 156.503906 16.289062 C 158.691406 16.289062 160.410156 15.234375 160.410156 13.867188 C 160.410156 11.367188 157.5 11.367188 156.777344 11.367188 L 155.253906 11.367188 C 155 11.367188 154.21875 11.367188 154.21875 10.410156 C 154.21875 10.019531 154.296875 9.902344 154.414062 9.746094 C 154.707031 9.960938 155.292969 10.273438 156.015625 10.273438 C 157.558594 10.273438 158.828125 9.003906 158.828125 7.363281 C 158.828125 6.71875 158.59375 6.054688 158.222656 5.566406 Z M 156.035156 9.277344 C 155.253906 9.277344 154.453125 8.75 154.453125 7.382812 C 154.453125 5.78125 155.46875 5.46875 156.015625 5.46875 C 156.816406 5.46875 157.597656 5.996094 157.597656 7.363281 C 157.597656 8.964844 156.601562 9.277344 156.035156 9.277344 Z M 156.796875 12.65625 C 157.1875 12.65625 159.160156 12.65625 159.160156 13.886719 C 159.160156 14.707031 157.929688 15.3125 156.523438 15.3125 C 155.117188 15.3125 153.867188 14.746094 153.867188 13.867188 C 153.867188 13.828125 153.867188 12.65625 155.234375 12.65625 Z M 156.796875 12.65625 "/>
<path style=" stroke:none;fill-rule:nonzero;fill:rgb(0%,0%,0%);fill-opacity:1;" d="M 52.882812 76.992188 C 53.46875 76.972656 53.761719 76.5625 53.761719 76.132812 C 53.761719 75.527344 53.332031 75.253906 52.902344 75.253906 C 52.472656 75.253906 52.023438 75.507812 52.023438 76.132812 C 52.023438 77.050781 52.921875 77.8125 54.015625 77.8125 C 56.75 77.8125 57.765625 73.613281 59.035156 68.417969 C 60.421875 62.753906 61.59375 57.03125 62.550781 51.269531 C 63.214844 47.460938 63.878906 43.867188 64.484375 41.5625 C 64.699219 40.683594 65.324219 38.359375 66.007812 38.359375 C 66.574219 38.359375 67.023438 38.710938 67.101562 38.769531 C 66.496094 38.808594 66.203125 39.199219 66.203125 39.648438 C 66.203125 40.253906 66.652344 40.527344 67.0625 40.527344 C 67.492188 40.527344 67.941406 40.273438 67.941406 39.628906 C 67.941406 38.671875 66.964844 37.96875 65.988281 37.96875 C 64.621094 37.96875 63.605469 39.921875 62.628906 43.574219 C 62.570312 43.769531 60.128906 52.773438 58.15625 64.511719 C 57.6875 67.246094 57.179688 70.234375 56.59375 72.734375 C 56.261719 74.042969 55.441406 77.421875 53.976562 77.421875 C 53.332031 77.421875 52.902344 76.992188 52.882812 76.992188 Z M 52.882812 76.992188 "/>
<path style=" stroke:none;fill-rule:nonzero;fill:rgb(0%,0%,0%);fill-opacity:1;" d="M 72.699219 34.949219 C 72.699219 34.636719 72.699219 34.617188 72.40625 34.617188 C 71.625 35.417969 70.53125 35.417969 70.140625 35.417969 L 70.140625 35.808594 C 70.394531 35.808594 71.117188 35.808594 71.761719 35.476562 L 71.761719 41.941406 C 71.761719 42.390625 71.722656 42.527344 70.609375 42.527344 L 70.21875 42.527344 L 70.21875 42.917969 C 70.648438 42.878906 71.722656 42.878906 72.230469 42.878906 C 72.71875 42.878906 73.8125 42.878906 74.242188 42.917969 L 74.242188 42.527344 L 73.851562 42.527344 C 72.71875 42.527344 72.699219 42.390625 72.699219 41.941406 Z M 72.699219 34.949219 "/>
<path style=" stroke:none;fill-rule:nonzero;fill:rgb(0%,0%,0%);fill-opacity:1;" d="M 66.800781 74.480469 C 66.800781 73.484375 66.742188 72.488281 66.3125 71.570312 C 65.746094 70.359375 64.710938 70.164062 64.203125 70.164062 C 63.441406 70.164062 62.542969 70.496094 62.015625 71.648438 C 61.625 72.507812 61.566406 73.484375 61.566406 74.480469 C 61.566406 75.417969 61.605469 76.53125 62.132812 77.488281 C 62.660156 78.484375 63.578125 78.738281 64.183594 78.738281 C 64.847656 78.738281 65.804688 78.484375 66.351562 77.292969 C 66.742188 76.433594 66.800781 75.457031 66.800781 74.480469 Z M 64.183594 78.464844 C 63.695312 78.464844 62.953125 78.152344 62.738281 76.960938 C 62.601562 76.21875 62.601562 75.066406 62.601562 74.324219 C 62.601562 73.523438 62.601562 72.703125 62.699219 72.039062 C 62.933594 70.554688 63.871094 70.4375 64.183594 70.4375 C 64.59375 70.4375 65.414062 70.671875 65.648438 71.902344 C 65.785156 72.605469 65.785156 73.542969 65.785156 74.324219 C 65.785156 75.261719 65.785156 76.101562 65.648438 76.902344 C 65.453125 78.09375 64.75 78.464844 64.183594 78.464844 Z M 64.183594 78.464844 "/>
<path style=" stroke:none;fill-rule:nonzero;fill:rgb(0%,0%,0%);fill-opacity:1;" d="M 85.414062 55.777344 C 85.199219 55.777344 84.535156 55.777344 84.535156 56.519531 C 84.535156 56.949219 84.847656 57.261719 85.277344 57.261719 C 85.6875 57.261719 86.039062 57.007812 86.039062 56.480469 C 86.039062 55.289062 84.769531 54.429688 83.324219 54.429688 C 81.234375 54.429688 79.554688 56.285156 79.554688 58.550781 C 79.554688 60.835938 81.273438 62.59375 83.304688 62.59375 C 85.667969 62.59375 86.214844 60.445312 86.214844 60.289062 C 86.214844 60.113281 86.078125 60.113281 86.039062 60.113281 C 85.863281 60.113281 85.84375 60.171875 85.804688 60.386719 C 85.394531 61.65625 84.4375 62.203125 83.460938 62.203125 C 82.367188 62.203125 80.921875 61.246094 80.921875 58.53125 C 80.921875 55.542969 82.445312 54.820312 83.34375 54.820312 C 84.027344 54.820312 85.003906 55.09375 85.414062 55.777344 Z M 85.414062 55.777344 "/>
<path style=" stroke:none;fill-rule:nonzero;fill:rgb(0%,0%,0%);fill-opacity:1;" d="M 94.953125 58.589844 C 94.953125 56.265625 93.195312 54.429688 91.125 54.429688 C 88.976562 54.429688 87.277344 56.324219 87.277344 58.589844 C 87.277344 60.875 89.054688 62.59375 91.105469 62.59375 C 93.214844 62.59375 94.953125 60.835938 94.953125 58.589844 Z M 91.125 62.203125 C 90.460938 62.203125 89.660156 61.910156 89.132812 61.03125 C 88.644531 60.230469 88.625 59.175781 88.625 58.414062 C 88.625 57.730469 88.625 56.636719 89.191406 55.835938 C 89.679688 55.074219 90.480469 54.78125 91.105469 54.78125 C 91.808594 54.78125 92.550781 55.09375 93.039062 55.796875 C 93.605469 56.617188 93.605469 57.75 93.605469 58.414062 C 93.605469 59.039062 93.605469 60.152344 93.136719 60.992188 C 92.628906 61.871094 91.808594 62.203125 91.125 62.203125 Z M 91.125 62.203125 "/>
<path style=" stroke:none;fill-rule:nonzero;fill:rgb(0%,0%,0%);fill-opacity:1;" d="M 98.585938 55.210938 L 101.125 55.210938 L 101.125 54.683594 L 98.585938 54.683594 L 98.585938 51.382812 L 98.195312 51.382812 C 98.175781 53.082031 97.53125 54.800781 95.910156 54.859375 L 95.910156 55.210938 L 97.433594 55.210938 L 97.433594 60.191406 C 97.433594 62.183594 98.742188 62.59375 99.699219 62.59375 C 100.832031 62.59375 101.417969 61.480469 101.417969 60.191406 L 101.417969 59.175781 L 101.027344 59.175781 L 101.027344 60.152344 C 101.027344 61.441406 100.5 62.203125 99.816406 62.203125 C 98.585938 62.203125 98.585938 60.542969 98.585938 60.230469 Z M 98.585938 55.210938 "/>
<path style=" stroke:none;fill-rule:nonzero;fill:rgb(0%,0%,0%);fill-opacity:1;" d="M 110.53125 52.195312 C 110.746094 52.195312 110.980469 52.195312 110.980469 51.941406 C 110.980469 51.707031 110.746094 51.707031 110.53125 51.707031 L 103.792969 51.707031 C 103.578125 51.707031 103.363281 51.707031 103.363281 51.941406 C 103.363281 52.195312 103.578125 52.195312 103.792969 52.195312 Z M 110.53125 52.195312 "/>
<path style=" stroke:none;fill-rule:nonzero;fill:rgb(0%,0%,0%);fill-opacity:1;" d="M 115.75 47.097656 C 115.75 46.785156 115.75 46.765625 115.457031 46.765625 C 114.675781 47.566406 113.582031 47.566406 113.191406 47.566406 L 113.191406 47.957031 C 113.445312 47.957031 114.167969 47.957031 114.8125 47.625 L 114.8125 54.089844 C 114.8125 54.539062 114.773438 54.675781 113.660156 54.675781 L 113.269531 54.675781 L 113.269531 55.066406 C 113.699219 55.027344 114.773438 55.027344 115.28125 55.027344 C 115.769531 55.027344 116.863281 55.027344 117.292969 55.066406 L 117.292969 54.675781 L 116.902344 54.675781 C 115.769531 54.675781 115.75 54.539062 115.75 54.089844 Z M 115.75 47.097656 "/>
<path style=" stroke:none;fill-rule:nonzero;fill:rgb(0%,0%,0%);fill-opacity:1;" d="M 124.648438 66.773438 C 124.648438 66.714844 124.648438 66.675781 124.355469 66.382812 C 122.558594 64.566406 121.5625 61.617188 121.5625 57.945312 C 121.5625 54.46875 122.402344 51.480469 124.472656 49.371094 C 124.648438 49.195312 124.648438 49.175781 124.648438 49.117188 C 124.648438 49 124.570312 48.980469 124.492188 48.980469 C 124.257812 48.980469 122.792969 50.269531 121.914062 52.027344 C 120.996094 53.824219 120.585938 55.757812 120.585938 57.945312 C 120.585938 59.546875 120.839844 61.675781 121.777344 63.609375 C 122.832031 65.757812 124.296875 66.910156 124.492188 66.910156 C 124.570312 66.910156 124.648438 66.890625 124.648438 66.773438 Z M 124.648438 66.773438 "/>
<path style=" stroke:none;fill-rule:nonzero;fill:rgb(0%,0%,0%);fill-opacity:1;" d="M 130.886719 50.933594 C 130.886719 50.503906 130.886719 50.503906 130.535156 50.503906 C 130.105469 50.972656 129.207031 51.636719 127.371094 51.636719 L 127.371094 52.164062 C 127.78125 52.164062 128.679688 52.164062 129.65625 51.695312 L 129.65625 61.03125 C 129.65625 61.675781 129.597656 61.890625 128.035156 61.890625 L 127.46875 61.890625 L 127.46875 62.417969 C 127.957031 62.378906 129.695312 62.378906 130.28125 62.378906 C 130.867188 62.378906 132.605469 62.378906 133.074219 62.417969 L 133.074219 61.890625 L 132.527344 61.890625 C 130.945312 61.890625 130.886719 61.675781 130.886719 61.03125 Z M 130.886719 50.933594 "/>
<path style=" stroke:none;fill-rule:nonzero;fill:rgb(0%,0%,0%);fill-opacity:1;" d="M 150.144531 58.296875 C 150.457031 58.296875 150.769531 58.296875 150.769531 57.945312 C 150.769531 57.574219 150.457031 57.574219 150.144531 57.574219 L 140.4375 57.574219 C 140.144531 57.574219 139.8125 57.574219 139.8125 57.945312 C 139.8125 58.296875 140.144531 58.296875 140.4375 58.296875 Z M 150.144531 58.296875 "/>
<path style=" stroke:none;fill-rule:nonzero;fill:rgb(0%,0%,0%);fill-opacity:1;" d="M 164.824219 55.09375 C 164.257812 55.210938 164.042969 55.640625 164.042969 55.972656 C 164.042969 56.402344 164.375 56.558594 164.628906 56.558594 C 165.175781 56.558594 165.546875 56.089844 165.546875 55.601562 C 165.546875 54.859375 164.6875 54.507812 163.925781 54.507812 C 162.832031 54.507812 162.226562 55.582031 162.070312 55.933594 C 161.660156 54.585938 160.546875 54.507812 160.214844 54.507812 C 158.398438 54.507812 157.421875 56.851562 157.421875 57.261719 C 157.421875 57.320312 157.5 57.417969 157.617188 57.417969 C 157.753906 57.417969 157.792969 57.300781 157.832031 57.242188 C 158.4375 55.25 159.648438 54.878906 160.15625 54.878906 C 160.976562 54.878906 161.132812 55.621094 161.132812 56.050781 C 161.132812 56.441406 161.035156 56.851562 160.800781 57.710938 L 160.195312 60.171875 C 159.941406 61.246094 159.414062 62.242188 158.457031 62.242188 C 158.378906 62.242188 157.929688 62.242188 157.539062 62.007812 C 158.183594 61.871094 158.339844 61.34375 158.339844 61.128906 C 158.339844 60.777344 158.066406 60.5625 157.734375 60.5625 C 157.304688 60.5625 156.835938 60.933594 156.835938 61.5 C 156.835938 62.261719 157.675781 62.59375 158.4375 62.59375 C 159.296875 62.59375 159.921875 61.910156 160.292969 61.1875 C 160.585938 62.242188 161.464844 62.59375 162.128906 62.59375 C 163.964844 62.59375 164.941406 60.25 164.941406 59.859375 C 164.941406 59.761719 164.863281 59.683594 164.746094 59.683594 C 164.589844 59.683594 164.570312 59.78125 164.53125 59.917969 C 164.042969 61.5 162.988281 62.242188 162.1875 62.242188 C 161.5625 62.242188 161.230469 61.773438 161.230469 61.03125 C 161.230469 60.640625 161.289062 60.347656 161.582031 59.175781 L 162.207031 56.734375 C 162.480469 55.660156 163.085938 54.878906 163.90625 54.878906 C 163.945312 54.878906 164.453125 54.878906 164.824219 55.09375 Z M 164.824219 55.09375 "/>
<path style=" stroke:none;fill-rule:nonzero;fill:rgb(0%,0%,0%);fill-opacity:1;" d="M 177.429688 58.277344 L 182.390625 58.277344 C 182.644531 58.277344 182.957031 58.277344 182.957031 57.945312 C 182.957031 57.613281 182.644531 57.613281 182.390625 57.613281 L 177.429688 57.613281 L 177.429688 52.671875 C 177.429688 52.417969 177.429688 52.085938 177.117188 52.085938 C 176.765625 52.085938 176.765625 52.398438 176.765625 52.671875 L 176.765625 57.613281 L 171.824219 57.613281 C 171.570312 57.613281 171.257812 57.613281 171.257812 57.945312 C 171.257812 58.277344 171.550781 58.277344 171.824219 58.277344 L 176.765625 58.277344 L 176.765625 63.21875 C 176.765625 63.472656 176.765625 63.804688 177.097656 63.804688 C 177.429688 63.804688 177.429688 63.492188 177.429688 63.21875 Z M 177.429688 58.277344 "/>
<path style=" stroke:none;fill-rule:nonzero;fill:rgb(0%,0%,0%);fill-opacity:1;" d="M 196.476562 55.09375 C 195.910156 55.210938 195.695312 55.640625 195.695312 55.972656 C 195.695312 56.402344 196.027344 56.558594 196.28125 56.558594 C 196.828125 56.558594 197.199219 56.089844 197.199219 55.601562 C 197.199219 54.859375 196.339844 54.507812 195.578125 54.507812 C 194.484375 54.507812 193.878906 55.582031 193.722656 55.933594 C 193.3125 54.585938 192.199219 54.507812 191.867188 54.507812 C 190.050781 54.507812 189.074219 56.851562 189.074219 57.261719 C 189.074219 57.320312 189.152344 57.417969 189.269531 57.417969 C 189.40625 57.417969 189.445312 57.300781 189.484375 57.242188 C 190.089844 55.25 191.300781 54.878906 191.808594 54.878906 C 192.628906 54.878906 192.785156 55.621094 192.785156 56.050781 C 192.785156 56.441406 192.6875 56.851562 192.453125 57.710938 L 191.847656 60.171875 C 191.59375 61.246094 191.066406 62.242188 190.109375 62.242188 C 190.03125 62.242188 189.582031 62.242188 189.191406 62.007812 C 189.835938 61.871094 189.992188 61.34375 189.992188 61.128906 C 189.992188 60.777344 189.71875 60.5625 189.386719 60.5625 C 188.957031 60.5625 188.488281 60.933594 188.488281 61.5 C 188.488281 62.261719 189.328125 62.59375 190.089844 62.59375 C 190.949219 62.59375 191.574219 61.910156 191.945312 61.1875 C 192.238281 62.242188 193.117188 62.59375 193.78125 62.59375 C 195.617188 62.59375 196.59375 60.25 196.59375 59.859375 C 196.59375 59.761719 196.515625 59.683594 196.398438 59.683594 C 196.242188 59.683594 196.222656 59.78125 196.183594 59.917969 C 195.695312 61.5 194.640625 62.242188 193.839844 62.242188 C 193.214844 62.242188 192.882812 61.773438 192.882812 61.03125 C 192.882812 60.640625 192.941406 60.347656 193.234375 59.175781 L 193.859375 56.734375 C 194.132812 55.660156 194.738281 54.878906 195.558594 54.878906 C 195.597656 54.878906 196.105469 54.878906 196.476562 55.09375 Z M 196.476562 55.09375 "/>
<path style=" stroke:none;fill-rule:nonzero;fill:rgb(0%,0%,0%);fill-opacity:1;" d="M 199.609375 54.109375 L 200.9375 52.820312 C 202.871094 51.101562 203.613281 50.4375 203.613281 49.1875 C 203.613281 47.761719 202.5 46.765625 200.976562 46.765625 C 199.570312 46.765625 198.652344 47.917969 198.652344 49.03125 C 198.652344 49.714844 199.277344 49.714844 199.316406 49.714844 C 199.53125 49.714844 199.960938 49.578125 199.960938 49.050781 C 199.960938 48.738281 199.726562 48.40625 199.296875 48.40625 C 199.199219 48.40625 199.179688 48.40625 199.140625 48.425781 C 199.414062 47.605469 200.097656 47.15625 200.820312 47.15625 C 201.953125 47.15625 202.480469 48.171875 202.480469 49.1875 C 202.480469 50.183594 201.875 51.160156 201.171875 51.941406 L 198.789062 54.597656 C 198.652344 54.734375 198.652344 54.773438 198.652344 55.066406 L 203.28125 55.066406 L 203.613281 52.898438 L 203.320312 52.898438 C 203.242188 53.269531 203.164062 53.816406 203.027344 54.011719 C 202.949219 54.109375 202.128906 54.109375 201.855469 54.109375 Z M 199.609375 54.109375 "/>
<path style=" stroke:none;fill-rule:nonzero;fill:rgb(0%,0%,0%);fill-opacity:1;" d="M 209.835938 57.945312 C 209.835938 56.597656 209.660156 54.371094 208.644531 52.28125 C 207.589844 50.132812 206.125 48.980469 205.929688 48.980469 C 205.851562 48.980469 205.753906 49 205.753906 49.117188 C 205.753906 49.175781 205.753906 49.195312 206.066406 49.507812 C 207.863281 51.324219 208.859375 54.273438 208.859375 57.945312 C 208.859375 61.421875 208.019531 64.410156 205.949219 66.519531 C 205.753906 66.675781 205.753906 66.714844 205.753906 66.773438 C 205.753906 66.890625 205.851562 66.910156 205.929688 66.910156 C 206.164062 66.910156 207.628906 65.621094 208.507812 63.863281 C 209.425781 62.046875 209.835938 60.113281 209.835938 57.945312 Z M 209.835938 57.945312 "/>
<path style=" stroke:none;fill-rule:nonzero;fill:rgb(0%,0%,0%);fill-opacity:1;" d="M 219.015625 57.945312 C 219.015625 57.417969 218.585938 56.988281 218.078125 56.988281 C 217.550781 56.988281 217.121094 57.417969 217.121094 57.945312 C 217.121094 58.453125 217.550781 58.882812 218.078125 58.882812 C 218.585938 58.882812 219.015625 58.453125 219.015625 57.945312 Z M 219.015625 57.945312 "/>
<path style=" stroke:none;fill-rule:nonzero;fill:rgb(0%,0%,0%);fill-opacity:1;" d="M 233.601562 50.425781 C 233.621094 50.347656 233.660156 50.25 233.660156 50.152344 C 233.660156 49.976562 233.464844 49.976562 233.425781 49.976562 C 233.425781 49.976562 232.546875 50.054688 232.449219 50.054688 C 232.136719 50.074219 231.882812 50.113281 231.550781 50.132812 C 231.101562 50.171875 230.984375 50.191406 230.984375 50.503906 C 230.984375 50.699219 231.121094 50.699219 231.375 50.699219 C 232.253906 50.699219 232.273438 50.855469 232.273438 51.03125 C 232.273438 51.148438 232.234375 51.285156 232.214844 51.34375 L 231.121094 55.699219 C 230.925781 55.230469 230.4375 54.507812 229.5 54.507812 C 227.488281 54.507812 225.300781 57.125 225.300781 59.78125 C 225.300781 61.558594 226.335938 62.59375 227.546875 62.59375 C 228.542969 62.59375 229.382812 61.832031 229.890625 61.226562 C 230.066406 62.300781 230.90625 62.59375 231.453125 62.59375 C 231.980469 62.59375 232.410156 62.28125 232.742188 61.636719 C 233.015625 61.011719 233.269531 59.917969 233.269531 59.859375 C 233.269531 59.761719 233.210938 59.683594 233.09375 59.683594 C 232.9375 59.683594 232.917969 59.78125 232.839844 60.054688 C 232.566406 61.109375 232.234375 62.242188 231.492188 62.242188 C 230.984375 62.242188 230.945312 61.773438 230.945312 61.421875 C 230.945312 61.34375 230.945312 60.972656 231.0625 60.464844 Z M 229.96875 60.289062 C 229.890625 60.582031 229.890625 60.621094 229.636719 60.972656 C 229.246094 61.460938 228.445312 62.242188 227.605469 62.242188 C 226.882812 62.242188 226.453125 61.578125 226.453125 60.523438 C 226.453125 59.527344 227.019531 57.515625 227.351562 56.773438 C 227.976562 55.523438 228.816406 54.878906 229.5 54.878906 C 230.691406 54.878906 230.925781 56.34375 230.925781 56.480469 C 230.925781 56.5 230.867188 56.734375 230.847656 56.773438 Z M 229.96875 60.289062 "/>
<path style=" stroke:none;fill-rule:nonzero;fill:rgb(0%,0%,0%);fill-opacity:1;" d="M 242.226562 55.09375 C 241.660156 55.210938 241.445312 55.640625 241.445312 55.972656 C 241.445312 56.402344 241.777344 56.558594 242.03125 56.558594 C 242.578125 56.558594 242.949219 56.089844 242.949219 55.601562 C 242.949219 54.859375 242.089844 54.507812 241.328125 54.507812 C 240.234375 54.507812 239.628906 55.582031 239.472656 55.933594 C 239.0625 54.585938 237.949219 54.507812 237.617188 54.507812 C 235.800781 54.507812 234.824219 56.851562 234.824219 57.261719 C 234.824219 57.320312 234.902344 57.417969 235.019531 57.417969 C 235.15625 57.417969 235.195312 57.300781 235.234375 57.242188 C 235.839844 55.25 237.050781 54.878906 237.558594 54.878906 C 238.378906 54.878906 238.535156 55.621094 238.535156 56.050781 C 238.535156 56.441406 238.4375 56.851562 238.203125 57.710938 L 237.597656 60.171875 C 237.34375 61.246094 236.816406 62.242188 235.859375 62.242188 C 235.78125 62.242188 235.332031 62.242188 234.941406 62.007812 C 235.585938 61.871094 235.742188 61.34375 235.742188 61.128906 C 235.742188 60.777344 235.46875 60.5625 235.136719 60.5625 C 234.707031 60.5625 234.238281 60.933594 234.238281 61.5 C 234.238281 62.261719 235.078125 62.59375 235.839844 62.59375 C 236.699219 62.59375 237.324219 61.910156 237.695312 61.1875 C 237.988281 62.242188 238.867188 62.59375 239.53125 62.59375 C 241.367188 62.59375 242.34375 60.25 242.34375 59.859375 C 242.34375 59.761719 242.265625 59.683594 242.148438 59.683594 C 241.992188 59.683594 241.972656 59.78125 241.933594 59.917969 C 241.445312 61.5 240.390625 62.242188 239.589844 62.242188 C 238.964844 62.242188 238.632812 61.773438 238.632812 61.03125 C 238.632812 60.640625 238.691406 60.347656 238.984375 59.175781 L 239.609375 56.734375 C 239.882812 55.660156 240.488281 54.878906 241.308594 54.878906 C 241.347656 54.878906 241.855469 54.878906 242.226562 55.09375 Z M 242.226562 55.09375 "/>
</g>
</svg>
