<?xml version="1.0" encoding="UTF-8"?>
<svg xmlns="http://www.w3.org/2000/svg" xmlns:xlink="http://www.w3.org/1999/xlink" width="309.94425pt" height="33.942842pt" viewBox="0 0 309.94425 33.942842" version="1.1">
<g id="surface1">
<path style=" stroke:none;fill-rule:nonzero;fill:rgb(0%,0%,0%);fill-opacity:1;" d="M 6.132812 1.367188 L 7.714844 1.367188 C 7.929688 1.367188 8.144531 1.386719 8.359375 1.386719 L 10.703125 1.386719 L 10.703125 0.253906 L 0 0.253906 L 0 1.386719 L 2.363281 1.386719 C 2.578125 1.386719 2.792969 1.367188 3.007812 1.367188 L 4.589844 1.367188 L 4.589844 12.617188 L 6.132812 12.617188 Z M 6.132812 1.367188 "/>
<path style=" stroke:none;fill-rule:nonzero;fill:rgb(0%,0%,0%);fill-opacity:1;" d="M 18.972656 7.226562 C 18.972656 6.132812 18.738281 4.472656 16.570312 4.472656 C 15.339844 4.472656 14.519531 5.175781 14.089844 5.722656 L 14.089844 0.175781 L 12.761719 0.175781 L 12.761719 12.617188 L 14.109375 12.617188 L 14.109375 8.144531 C 14.109375 7.050781 14.539062 5.546875 15.886719 5.546875 C 17.566406 5.546875 17.605469 6.71875 17.605469 7.34375 L 17.605469 12.617188 L 18.972656 12.617188 Z M 18.972656 7.226562 "/>
<path style=" stroke:none;fill-rule:nonzero;fill:rgb(0%,0%,0%);fill-opacity:1;" d="M 27.679688 8.574219 C 27.679688 7.8125 27.601562 6.71875 27.035156 5.761719 C 26.292969 4.53125 25.042969 4.394531 24.515625 4.394531 C 22.582031 4.394531 20.960938 6.25 20.960938 8.574219 C 20.960938 10.957031 22.679688 12.792969 24.769531 12.792969 C 25.589844 12.792969 26.585938 12.558594 27.5625 11.855469 C 27.5625 11.777344 27.503906 11.210938 27.503906 11.191406 C 27.484375 11.171875 27.464844 10.761719 27.464844 10.703125 C 26.390625 11.601562 25.335938 11.71875 24.808594 11.71875 C 23.421875 11.71875 22.230469 10.488281 22.210938 8.574219 Z M 22.308594 7.617188 C 22.621094 6.40625 23.460938 5.46875 24.515625 5.46875 C 25.082031 5.46875 26.3125 5.722656 26.605469 7.617188 Z M 22.308594 7.617188 "/>
<path style=" stroke:none;fill-rule:nonzero;fill:rgb(0%,0%,0%);fill-opacity:1;" d="M 39.953125 0.175781 L 38.625 0.175781 L 38.625 5.410156 C 37.804688 4.726562 36.867188 4.472656 36.105469 4.472656 C 34.40625 4.472656 33 6.308594 33 8.632812 C 33 10.957031 34.328125 12.792969 36.027344 12.792969 C 36.691406 12.792969 37.707031 12.578125 38.605469 11.699219 L 38.605469 12.617188 L 39.953125 12.617188 Z M 38.605469 10.507812 C 38.175781 11.269531 37.53125 11.71875 36.75 11.71875 C 35.65625 11.71875 34.367188 10.878906 34.367188 8.652344 C 34.367188 6.269531 35.890625 5.546875 36.925781 5.546875 C 37.628906 5.546875 38.195312 5.917969 38.605469 6.503906 Z M 38.605469 10.507812 "/>
<path style=" stroke:none;fill-rule:nonzero;fill:rgb(0%,0%,0%);fill-opacity:1;" d="M 48.679688 8.574219 C 48.679688 7.8125 48.601562 6.71875 48.035156 5.761719 C 47.292969 4.53125 46.042969 4.394531 45.515625 4.394531 C 43.582031 4.394531 41.960938 6.25 41.960938 8.574219 C 41.960938 10.957031 43.679688 12.792969 45.769531 12.792969 C 46.589844 12.792969 47.585938 12.558594 48.5625 11.855469 C 48.5625 11.777344 48.503906 11.210938 48.503906 11.191406 C 48.484375 11.171875 48.464844 10.761719 48.464844 10.703125 C 47.390625 11.601562 46.335938 11.71875 45.808594 11.71875 C 44.421875 11.71875 43.230469 10.488281 43.210938 8.574219 Z M 43.308594 7.617188 C 43.621094 6.40625 44.460938 5.46875 45.515625 5.46875 C 46.082031 5.46875 47.3125 5.722656 47.605469 7.617188 Z M 43.308594 7.617188 "/>
<path style=" stroke:none;fill-rule:nonzero;fill:rgb(0%,0%,0%);fill-opacity:1;" d="M 51.910156 8.691406 C 51.910156 6.875 53.257812 5.703125 54.878906 5.683594 L 54.878906 4.472656 C 53.238281 4.492188 52.300781 5.449219 51.8125 6.152344 L 51.8125 4.570312 L 50.582031 4.570312 L 50.582031 12.617188 L 51.910156 12.617188 Z M 51.910156 8.691406 "/>
<path style=" stroke:none;fill-rule:nonzero;fill:rgb(0%,0%,0%);fill-opacity:1;" d="M 58.007812 0.449219 L 56.464844 0.449219 L 56.464844 1.992188 L 58.007812 1.992188 Z M 57.910156 4.648438 L 56.582031 4.648438 L 56.582031 12.617188 L 57.910156 12.617188 Z M 57.910156 4.648438 "/>
<path style=" stroke:none;fill-rule:nonzero;fill:rgb(0%,0%,0%);fill-opacity:1;" d="M 67.128906 4.648438 L 65.800781 4.648438 L 64.492188 8.222656 C 64.179688 9.082031 63.515625 10.976562 63.417969 11.640625 L 63.398438 11.640625 C 63.300781 11.015625 62.949219 10.039062 62.675781 9.257812 L 61.015625 4.648438 L 59.628906 4.648438 L 62.578125 12.617188 L 64.179688 12.617188 Z M 67.128906 4.648438 "/>
<path style=" stroke:none;fill-rule:nonzero;fill:rgb(0%,0%,0%);fill-opacity:1;" d="M 74.488281 7.363281 C 74.488281 5.644531 73.257812 4.394531 71.578125 4.394531 C 70.503906 4.394531 69.703125 4.628906 68.824219 5.136719 L 68.921875 6.328125 C 69.722656 5.742188 70.542969 5.429688 71.578125 5.429688 C 72.398438 5.429688 73.121094 6.09375 73.121094 7.402344 L 73.121094 8.144531 C 72.320312 8.164062 71.246094 8.222656 70.171875 8.574219 C 68.960938 9.003906 68.257812 9.667969 68.257812 10.546875 C 68.257812 11.347656 68.726562 12.792969 70.25 12.792969 C 71.246094 12.792969 72.496094 12.5 73.160156 11.953125 L 73.160156 12.617188 L 74.488281 12.617188 Z M 73.121094 10.214844 C 73.121094 10.566406 73.121094 10.996094 72.535156 11.367188 C 72.046875 11.660156 71.441406 11.71875 71.167969 11.71875 C 70.210938 11.71875 69.546875 11.191406 69.546875 10.546875 C 69.546875 9.316406 72.027344 9.042969 73.121094 9.042969 Z M 73.121094 10.214844 "/>
<path style=" stroke:none;fill-rule:nonzero;fill:rgb(0%,0%,0%);fill-opacity:1;" d="M 78.941406 5.703125 L 81.421875 5.703125 L 81.421875 4.648438 L 78.941406 4.648438 L 78.941406 2.382812 L 77.710938 2.382812 L 77.710938 4.648438 L 76.207031 4.648438 L 76.207031 5.703125 L 77.671875 5.703125 L 77.671875 10.527344 C 77.671875 11.5625 77.90625 12.792969 79.136719 12.792969 C 80.347656 12.792969 81.167969 12.382812 81.714844 12.089844 L 81.441406 11.054688 C 80.816406 11.621094 80.152344 11.679688 79.839844 11.679688 C 79.039062 11.679688 78.941406 10.839844 78.941406 10.214844 Z M 78.941406 5.703125 "/>
<path style=" stroke:none;fill-rule:nonzero;fill:rgb(0%,0%,0%);fill-opacity:1;" d="M 85.007812 0.449219 L 83.464844 0.449219 L 83.464844 1.992188 L 85.007812 1.992188 Z M 84.910156 4.648438 L 83.582031 4.648438 L 83.582031 12.617188 L 84.910156 12.617188 Z M 84.910156 4.648438 "/>
<path style=" stroke:none;fill-rule:nonzero;fill:rgb(0%,0%,0%);fill-opacity:1;" d="M 94.128906 4.648438 L 92.800781 4.648438 L 91.492188 8.222656 C 91.179688 9.082031 90.515625 10.976562 90.417969 11.640625 L 90.398438 11.640625 C 90.300781 11.015625 89.949219 10.039062 89.675781 9.257812 L 88.015625 4.648438 L 86.628906 4.648438 L 89.578125 12.617188 L 91.179688 12.617188 Z M 94.128906 4.648438 "/>
<path style=" stroke:none;fill-rule:nonzero;fill:rgb(0%,0%,0%);fill-opacity:1;" d="M 101.78125 8.574219 C 101.78125 7.8125 101.703125 6.71875 101.136719 5.761719 C 100.394531 4.53125 99.144531 4.394531 98.617188 4.394531 C 96.683594 4.394531 95.0625 6.25 95.0625 8.574219 C 95.0625 10.957031 96.78125 12.792969 98.871094 12.792969 C 99.691406 12.792969 100.6875 12.558594 101.664062 11.855469 C 101.664062 11.777344 101.605469 11.210938 101.605469 11.191406 C 101.585938 11.171875 101.566406 10.761719 101.566406 10.703125 C 100.492188 11.601562 99.4375 11.71875 98.910156 11.71875 C 97.523438 11.71875 96.332031 10.488281 96.3125 8.574219 Z M 96.410156 7.617188 C 96.722656 6.40625 97.5625 5.46875 98.617188 5.46875 C 99.183594 5.46875 100.414062 5.722656 100.707031 7.617188 Z M 96.410156 7.617188 "/>
<path style=" stroke:none;fill-rule:nonzero;fill:rgb(0%,0%,0%);fill-opacity:1;" d="M 114.398438 8.671875 C 114.398438 6.25 112.621094 4.394531 110.570312 4.394531 C 108.460938 4.394531 106.722656 6.289062 106.722656 8.671875 C 106.722656 11.015625 108.5 12.792969 110.550781 12.792969 C 112.660156 12.792969 114.398438 10.976562 114.398438 8.671875 Z M 110.570312 11.679688 C 109.28125 11.679688 108.070312 10.605469 108.070312 8.496094 C 108.070312 6.328125 109.417969 5.46875 110.550781 5.46875 C 111.78125 5.46875 113.050781 6.386719 113.050781 8.496094 C 113.050781 10.703125 111.761719 11.679688 110.570312 11.679688 Z M 110.570312 11.679688 "/>
<path style=" stroke:none;fill-rule:nonzero;fill:rgb(0%,0%,0%);fill-opacity:1;" d="M 118.128906 5.703125 L 120.042969 5.703125 L 120.042969 4.648438 L 118.089844 4.648438 L 118.089844 2.5 C 118.089844 1.289062 119.105469 1.074219 119.710938 1.074219 C 120.335938 1.074219 120.882812 1.269531 121.097656 1.347656 L 121.097656 0.175781 C 120.980469 0.136719 120.375 0 119.730469 0 C 118.011719 0 116.800781 1.308594 116.800781 3.046875 L 116.800781 4.648438 L 115.492188 4.648438 L 115.492188 5.703125 L 116.800781 5.703125 L 116.800781 12.617188 L 118.128906 12.617188 Z M 118.128906 5.703125 "/>
<path style=" stroke:none;fill-rule:nonzero;fill:rgb(0%,0%,0%);fill-opacity:1;" d="M 130.355469 5.039062 C 130.355469 4.707031 130.355469 4.628906 130.179688 4.628906 C 130.042969 4.628906 129.691406 5.019531 129.574219 5.175781 C 129.007812 4.726562 128.460938 4.628906 127.875 4.628906 C 125.707031 4.628906 125.0625 5.800781 125.0625 6.796875 C 125.0625 6.992188 125.0625 7.617188 125.746094 8.242188 C 126.332031 8.75 126.9375 8.867188 127.757812 9.023438 C 128.734375 9.21875 128.96875 9.277344 129.417969 9.648438 C 129.75 9.902344 129.984375 10.3125 129.984375 10.800781 C 129.984375 11.582031 129.535156 12.441406 127.953125 12.441406 C 126.78125 12.441406 125.902344 11.757812 125.511719 9.960938 C 125.453125 9.648438 125.453125 9.628906 125.433594 9.609375 C 125.394531 9.53125 125.316406 9.53125 125.257812 9.53125 C 125.0625 9.53125 125.0625 9.628906 125.0625 9.941406 L 125.0625 12.382812 C 125.0625 12.714844 125.0625 12.792969 125.238281 12.792969 C 125.335938 12.792969 125.355469 12.773438 125.667969 12.402344 C 125.746094 12.285156 125.746094 12.246094 126.019531 11.953125 C 126.703125 12.792969 127.660156 12.792969 127.972656 12.792969 C 129.847656 12.792969 130.785156 11.757812 130.785156 10.332031 C 130.785156 9.375 130.199219 8.789062 130.042969 8.632812 C 129.398438 8.085938 128.910156 7.96875 127.71875 7.753906 C 127.191406 7.65625 125.882812 7.402344 125.882812 6.328125 C 125.882812 5.761719 126.253906 4.941406 127.875 4.941406 C 129.828125 4.941406 129.925781 6.601562 129.964844 7.167969 C 129.984375 7.304688 130.101562 7.304688 130.160156 7.304688 C 130.355469 7.304688 130.355469 7.226562 130.355469 6.894531 Z M 130.355469 5.039062 "/>
<path style=" stroke:none;fill-rule:nonzero;fill:rgb(0%,0%,0%);fill-opacity:1;" d="M 134.5 1.582031 C 134.5 1.113281 134.109375 0.703125 133.621094 0.703125 C 133.152344 0.703125 132.761719 1.074219 132.761719 1.5625 C 132.761719 2.089844 133.191406 2.441406 133.621094 2.441406 C 134.167969 2.441406 134.5 1.972656 134.5 1.582031 Z M 132.019531 4.902344 L 132.019531 5.429688 C 133.171875 5.429688 133.328125 5.527344 133.328125 6.40625 L 133.328125 11.289062 C 133.328125 12.089844 133.132812 12.089844 131.960938 12.089844 L 131.960938 12.617188 C 132.46875 12.578125 133.328125 12.578125 133.855469 12.578125 C 134.050781 12.578125 135.085938 12.578125 135.691406 12.617188 L 135.691406 12.089844 C 134.539062 12.089844 134.460938 12.011719 134.460938 11.308594 L 134.460938 4.707031 Z M 132.019531 4.902344 "/>
<path style=" stroke:none;fill-rule:nonzero;fill:rgb(0%,0%,0%);fill-opacity:1;" d="M 144.3125 8.261719 C 144.3125 6.601562 144.3125 6.09375 143.882812 5.507812 C 143.375 4.824219 142.535156 4.707031 141.910156 4.707031 C 140.171875 4.707031 139.488281 6.191406 139.351562 6.5625 L 139.332031 6.5625 L 139.332031 4.707031 L 136.890625 4.902344 L 136.890625 5.429688 C 138.121094 5.429688 138.257812 5.546875 138.257812 6.425781 L 138.257812 11.289062 C 138.257812 12.089844 138.0625 12.089844 136.890625 12.089844 L 136.890625 12.617188 C 137.359375 12.578125 138.335938 12.578125 138.84375 12.578125 C 139.351562 12.578125 140.328125 12.578125 140.796875 12.617188 L 140.796875 12.089844 C 139.644531 12.089844 139.429688 12.089844 139.429688 11.289062 L 139.429688 7.949219 C 139.429688 6.074219 140.660156 5.078125 141.773438 5.078125 C 142.886719 5.078125 143.140625 5.976562 143.140625 7.070312 L 143.140625 11.289062 C 143.140625 12.089844 142.945312 12.089844 141.773438 12.089844 L 141.773438 12.617188 C 142.242188 12.578125 143.21875 12.578125 143.707031 12.578125 C 144.234375 12.578125 145.191406 12.578125 145.660156 12.617188 L 145.660156 12.089844 C 144.761719 12.089844 144.3125 12.089844 144.3125 11.5625 Z M 144.3125 8.261719 "/>
<path style=" stroke:none;fill-rule:nonzero;fill:rgb(0%,0%,0%);fill-opacity:1;" d="M 157.570312 5.292969 C 157.003906 5.410156 156.789062 5.839844 156.789062 6.171875 C 156.789062 6.601562 157.121094 6.757812 157.375 6.757812 C 157.921875 6.757812 158.292969 6.289062 158.292969 5.800781 C 158.292969 5.058594 157.433594 4.707031 156.671875 4.707031 C 155.578125 4.707031 154.972656 5.78125 154.816406 6.132812 C 154.40625 4.785156 153.292969 4.707031 152.960938 4.707031 C 151.144531 4.707031 150.167969 7.050781 150.167969 7.460938 C 150.167969 7.519531 150.246094 7.617188 150.363281 7.617188 C 150.5 7.617188 150.539062 7.5 150.578125 7.441406 C 151.183594 5.449219 152.394531 5.078125 152.902344 5.078125 C 153.722656 5.078125 153.878906 5.820312 153.878906 6.25 C 153.878906 6.640625 153.78125 7.050781 153.546875 7.910156 L 152.941406 10.371094 C 152.6875 11.445312 152.160156 12.441406 151.203125 12.441406 C 151.125 12.441406 150.675781 12.441406 150.285156 12.207031 C 150.929688 12.070312 151.085938 11.542969 151.085938 11.328125 C 151.085938 10.976562 150.8125 10.761719 150.480469 10.761719 C 150.050781 10.761719 149.582031 11.132812 149.582031 11.699219 C 149.582031 12.460938 150.421875 12.792969 151.183594 12.792969 C 152.042969 12.792969 152.667969 12.109375 153.039062 11.386719 C 153.332031 12.441406 154.210938 12.792969 154.875 12.792969 C 156.710938 12.792969 157.6875 10.449219 157.6875 10.058594 C 157.6875 9.960938 157.609375 9.882812 157.492188 9.882812 C 157.335938 9.882812 157.316406 9.980469 157.277344 10.117188 C 156.789062 11.699219 155.734375 12.441406 154.933594 12.441406 C 154.308594 12.441406 153.976562 11.972656 153.976562 11.230469 C 153.976562 10.839844 154.035156 10.546875 154.328125 9.375 L 154.953125 6.933594 C 155.226562 5.859375 155.832031 5.078125 156.652344 5.078125 C 156.691406 5.078125 157.199219 5.078125 157.570312 5.292969 Z M 157.570312 5.292969 "/>
<path style=" stroke:none;fill-rule:nonzero;fill:rgb(0%,0%,0%);fill-opacity:1;" d="M 174.835938 4.648438 L 173.527344 4.648438 L 172.453125 8.300781 C 172.199219 9.160156 171.691406 10.839844 171.613281 11.621094 L 171.59375 11.621094 C 171.554688 11.191406 171.261719 9.980469 170.890625 8.710938 L 169.699219 4.648438 L 168.46875 4.648438 L 167.433594 8.164062 C 167.121094 9.277344 166.691406 10.820312 166.632812 11.582031 L 166.613281 11.582031 C 166.59375 11.230469 166.398438 10.292969 166.066406 9.082031 L 164.796875 4.648438 L 163.429688 4.648438 L 165.832031 12.617188 L 167.21875 12.617188 C 167.882812 10.351562 168.9375 6.953125 169.035156 5.703125 L 169.054688 5.703125 C 169.09375 6.425781 169.445312 7.714844 169.582031 8.144531 L 170.851562 12.617188 L 172.433594 12.617188 Z M 174.835938 4.648438 "/>
<path style=" stroke:none;fill-rule:nonzero;fill:rgb(0%,0%,0%);fill-opacity:1;" d="M 178.007812 0.449219 L 176.464844 0.449219 L 176.464844 1.992188 L 178.007812 1.992188 Z M 177.910156 4.648438 L 176.582031 4.648438 L 176.582031 12.617188 L 177.910156 12.617188 Z M 177.910156 4.648438 "/>
<path style=" stroke:none;fill-rule:nonzero;fill:rgb(0%,0%,0%);fill-opacity:1;" d="M 182.441406 5.703125 L 184.921875 5.703125 L 184.921875 4.648438 L 182.441406 4.648438 L 182.441406 2.382812 L 181.210938 2.382812 L 181.210938 4.648438 L 179.707031 4.648438 L 179.707031 5.703125 L 181.171875 5.703125 L 181.171875 10.527344 C 181.171875 11.5625 181.40625 12.792969 182.636719 12.792969 C 183.847656 12.792969 184.667969 12.382812 185.214844 12.089844 L 184.941406 11.054688 C 184.316406 11.621094 183.652344 11.679688 183.339844 11.679688 C 182.539062 11.679688 182.441406 10.839844 182.441406 10.214844 Z M 182.441406 5.703125 "/>
<path style=" stroke:none;fill-rule:nonzero;fill:rgb(0%,0%,0%);fill-opacity:1;" d="M 193.273438 7.226562 C 193.273438 6.132812 193.039062 4.472656 190.871094 4.472656 C 189.640625 4.472656 188.820312 5.175781 188.390625 5.722656 L 188.390625 0.175781 L 187.0625 0.175781 L 187.0625 12.617188 L 188.410156 12.617188 L 188.410156 8.144531 C 188.410156 7.050781 188.839844 5.546875 190.1875 5.546875 C 191.867188 5.546875 191.90625 6.71875 191.90625 7.34375 L 191.90625 12.617188 L 193.273438 12.617188 Z M 193.273438 7.226562 "/>
<path style=" stroke:none;fill-rule:nonzero;fill:rgb(0%,0%,0%);fill-opacity:1;" d="M 201.609375 8.691406 C 201.609375 6.875 202.957031 5.703125 204.578125 5.683594 L 204.578125 4.472656 C 202.9375 4.492188 202 5.449219 201.511719 6.152344 L 201.511719 4.570312 L 200.28125 4.570312 L 200.28125 12.617188 L 201.609375 12.617188 Z M 201.609375 8.691406 "/>
<path style=" stroke:none;fill-rule:nonzero;fill:rgb(0%,0%,0%);fill-opacity:1;" d="M 212.179688 8.574219 C 212.179688 7.8125 212.101562 6.71875 211.535156 5.761719 C 210.792969 4.53125 209.542969 4.394531 209.015625 4.394531 C 207.082031 4.394531 205.460938 6.25 205.460938 8.574219 C 205.460938 10.957031 207.179688 12.792969 209.269531 12.792969 C 210.089844 12.792969 211.085938 12.558594 212.0625 11.855469 C 212.0625 11.777344 212.003906 11.210938 212.003906 11.191406 C 211.984375 11.171875 211.964844 10.761719 211.964844 10.703125 C 210.890625 11.601562 209.835938 11.71875 209.308594 11.71875 C 207.921875 11.71875 206.730469 10.488281 206.710938 8.574219 Z M 206.808594 7.617188 C 207.121094 6.40625 207.960938 5.46875 209.015625 5.46875 C 209.582031 5.46875 210.8125 5.722656 211.105469 7.617188 Z M 206.808594 7.617188 "/>
<path style=" stroke:none;fill-rule:nonzero;fill:rgb(0%,0%,0%);fill-opacity:1;" d="M 218.691406 4.941406 C 217.558594 4.414062 216.582031 4.394531 216.171875 4.394531 C 215.761719 4.394531 213.261719 4.394531 213.261719 6.71875 C 213.261719 7.5 213.691406 8.046875 213.964844 8.300781 C 214.609375 8.847656 215.058594 8.945312 216.113281 9.160156 C 216.71875 9.277344 217.753906 9.492188 217.753906 10.449219 C 217.753906 11.679688 216.347656 11.679688 216.09375 11.679688 C 215.390625 11.679688 214.335938 11.484375 213.378906 10.78125 L 213.164062 12.011719 C 213.242188 12.070312 214.472656 12.792969 216.113281 12.792969 C 218.4375 12.792969 218.984375 11.40625 218.984375 10.332031 C 218.984375 9.433594 218.4375 8.847656 218.359375 8.769531 C 217.695312 8.085938 217.148438 7.96875 216.074219 7.753906 C 215.410156 7.636719 214.511719 7.460938 214.511719 6.5625 C 214.511719 5.449219 215.761719 5.449219 215.996094 5.449219 C 216.933594 5.449219 217.695312 5.664062 218.476562 6.113281 Z M 218.691406 4.941406 "/>
<path style=" stroke:none;fill-rule:nonzero;fill:rgb(0%,0%,0%);fill-opacity:1;" d="M 222.179688 11.816406 C 222.804688 12.363281 223.546875 12.792969 224.523438 12.792969 C 226.242188 12.792969 227.785156 11.054688 227.785156 8.613281 C 227.785156 6.445312 226.632812 4.472656 224.972656 4.472656 C 224.230469 4.472656 223.078125 4.707031 222.160156 5.507812 L 222.160156 4.648438 L 220.832031 4.648438 L 220.832031 16.09375 L 222.179688 16.09375 Z M 222.179688 6.601562 C 222.589844 5.976562 223.273438 5.585938 224.015625 5.585938 C 225.34375 5.585938 226.417969 6.933594 226.417969 8.632812 C 226.417969 10.429688 225.1875 11.71875 223.859375 11.71875 C 223.351562 11.71875 223.019531 11.542969 222.6875 11.289062 C 222.238281 10.898438 222.179688 10.566406 222.179688 10.292969 Z M 222.179688 6.601562 "/>
<path style=" stroke:none;fill-rule:nonzero;fill:rgb(0%,0%,0%);fill-opacity:1;" d="M 236.179688 8.574219 C 236.179688 7.8125 236.101562 6.71875 235.535156 5.761719 C 234.792969 4.53125 233.542969 4.394531 233.015625 4.394531 C 231.082031 4.394531 229.460938 6.25 229.460938 8.574219 C 229.460938 10.957031 231.179688 12.792969 233.269531 12.792969 C 234.089844 12.792969 235.085938 12.558594 236.0625 11.855469 C 236.0625 11.777344 236.003906 11.210938 236.003906 11.191406 C 235.984375 11.171875 235.964844 10.761719 235.964844 10.703125 C 234.890625 11.601562 233.835938 11.71875 233.308594 11.71875 C 231.921875 11.71875 230.730469 10.488281 230.710938 8.574219 Z M 230.808594 7.617188 C 231.121094 6.40625 231.960938 5.46875 233.015625 5.46875 C 233.582031 5.46875 234.8125 5.722656 235.105469 7.617188 Z M 230.808594 7.617188 "/>
<path style=" stroke:none;fill-rule:nonzero;fill:rgb(0%,0%,0%);fill-opacity:1;" d="M 243.863281 10.683594 C 243.042969 11.347656 242.125 11.679688 241.128906 11.679688 C 239.625 11.679688 238.667969 10.351562 238.667969 8.613281 C 238.667969 7.128906 239.390625 5.507812 241.167969 5.507812 C 242.378906 5.507812 242.886719 5.78125 243.648438 6.308594 L 243.863281 5.136719 C 242.828125 4.53125 242.242188 4.394531 241.167969 4.394531 C 238.707031 4.394531 237.300781 6.582031 237.300781 8.613281 C 237.300781 10.917969 238.960938 12.792969 241.109375 12.792969 C 241.988281 12.792969 242.984375 12.578125 243.980469 11.855469 C 243.980469 11.816406 243.921875 11.25 243.902344 11.191406 Z M 243.863281 10.683594 "/>
<path style=" stroke:none;fill-rule:nonzero;fill:rgb(0%,0%,0%);fill-opacity:1;" d="M 247.542969 5.703125 L 250.023438 5.703125 L 250.023438 4.648438 L 247.542969 4.648438 L 247.542969 2.382812 L 246.3125 2.382812 L 246.3125 4.648438 L 244.808594 4.648438 L 244.808594 5.703125 L 246.273438 5.703125 L 246.273438 10.527344 C 246.273438 11.5625 246.507812 12.792969 247.738281 12.792969 C 248.949219 12.792969 249.769531 12.382812 250.316406 12.089844 L 250.042969 11.054688 C 249.417969 11.621094 248.753906 11.679688 248.441406 11.679688 C 247.640625 11.679688 247.542969 10.839844 247.542969 10.214844 Z M 247.542969 5.703125 "/>
<path style=" stroke:none;fill-rule:nonzero;fill:rgb(0%,0%,0%);fill-opacity:1;" d="M 258.042969 5.703125 L 260.523438 5.703125 L 260.523438 4.648438 L 258.042969 4.648438 L 258.042969 2.382812 L 256.8125 2.382812 L 256.8125 4.648438 L 255.308594 4.648438 L 255.308594 5.703125 L 256.773438 5.703125 L 256.773438 10.527344 C 256.773438 11.5625 257.007812 12.792969 258.238281 12.792969 C 259.449219 12.792969 260.269531 12.382812 260.816406 12.089844 L 260.542969 11.054688 C 259.917969 11.621094 259.253906 11.679688 258.941406 11.679688 C 258.140625 11.679688 258.042969 10.839844 258.042969 10.214844 Z M 258.042969 5.703125 "/>
<path style=" stroke:none;fill-rule:nonzero;fill:rgb(0%,0%,0%);fill-opacity:1;" d="M 269.496094 8.671875 C 269.496094 6.25 267.71875 4.394531 265.667969 4.394531 C 263.558594 4.394531 261.820312 6.289062 261.820312 8.671875 C 261.820312 11.015625 263.597656 12.792969 265.648438 12.792969 C 267.757812 12.792969 269.496094 10.976562 269.496094 8.671875 Z M 265.667969 11.679688 C 264.378906 11.679688 263.167969 10.605469 263.167969 8.496094 C 263.167969 6.328125 264.515625 5.46875 265.648438 5.46875 C 266.878906 5.46875 268.148438 6.386719 268.148438 8.496094 C 268.148438 10.703125 266.859375 11.679688 265.667969 11.679688 Z M 265.667969 11.679688 "/>
<path style=" stroke:none;fill-rule:nonzero;fill:rgb(0%,0%,0%);fill-opacity:1;" d="M 280.808594 5.976562 C 280.59375 5.976562 279.929688 5.976562 279.929688 6.71875 C 279.929688 7.148438 280.242188 7.460938 280.671875 7.460938 C 281.082031 7.460938 281.433594 7.207031 281.433594 6.679688 C 281.433594 5.488281 280.164062 4.628906 278.71875 4.628906 C 276.628906 4.628906 274.949219 6.484375 274.949219 8.75 C 274.949219 11.035156 276.667969 12.792969 278.699219 12.792969 C 281.0625 12.792969 281.609375 10.644531 281.609375 10.488281 C 281.609375 10.3125 281.472656 10.3125 281.433594 10.3125 C 281.257812 10.3125 281.238281 10.371094 281.199219 10.585938 C 280.789062 11.855469 279.832031 12.402344 278.855469 12.402344 C 277.761719 12.402344 276.316406 11.445312 276.316406 8.730469 C 276.316406 5.742188 277.839844 5.019531 278.738281 5.019531 C 279.421875 5.019531 280.398438 5.292969 280.808594 5.976562 Z M 280.808594 5.976562 "/>
<path style=" stroke:none;fill-rule:nonzero;fill:rgb(0%,0%,0%);fill-opacity:1;" d="M 290.347656 8.789062 C 290.347656 6.464844 288.589844 4.628906 286.519531 4.628906 C 284.371094 4.628906 282.671875 6.523438 282.671875 8.789062 C 282.671875 11.074219 284.449219 12.792969 286.5 12.792969 C 288.609375 12.792969 290.347656 11.035156 290.347656 8.789062 Z M 286.519531 12.402344 C 285.855469 12.402344 285.054688 12.109375 284.527344 11.230469 C 284.039062 10.429688 284.019531 9.375 284.019531 8.613281 C 284.019531 7.929688 284.019531 6.835938 284.585938 6.035156 C 285.074219 5.273438 285.875 4.980469 286.5 4.980469 C 287.203125 4.980469 287.945312 5.292969 288.433594 5.996094 C 289 6.816406 289 7.949219 289 8.613281 C 289 9.238281 289 10.351562 288.53125 11.191406 C 288.023438 12.070312 287.203125 12.402344 286.519531 12.402344 Z M 286.519531 12.402344 "/>
<path style=" stroke:none;fill-rule:nonzero;fill:rgb(0%,0%,0%);fill-opacity:1;" d="M 296.855469 5.039062 C 296.855469 4.707031 296.855469 4.628906 296.679688 4.628906 C 296.542969 4.628906 296.191406 5.019531 296.074219 5.175781 C 295.507812 4.726562 294.960938 4.628906 294.375 4.628906 C 292.207031 4.628906 291.5625 5.800781 291.5625 6.796875 C 291.5625 6.992188 291.5625 7.617188 292.246094 8.242188 C 292.832031 8.75 293.4375 8.867188 294.257812 9.023438 C 295.234375 9.21875 295.46875 9.277344 295.917969 9.648438 C 296.25 9.902344 296.484375 10.3125 296.484375 10.800781 C 296.484375 11.582031 296.035156 12.441406 294.453125 12.441406 C 293.28125 12.441406 292.402344 11.757812 292.011719 9.960938 C 291.953125 9.648438 291.953125 9.628906 291.933594 9.609375 C 291.894531 9.53125 291.816406 9.53125 291.757812 9.53125 C 291.5625 9.53125 291.5625 9.628906 291.5625 9.941406 L 291.5625 12.382812 C 291.5625 12.714844 291.5625 12.792969 291.738281 12.792969 C 291.835938 12.792969 291.855469 12.773438 292.167969 12.402344 C 292.246094 12.285156 292.246094 12.246094 292.519531 11.953125 C 293.203125 12.792969 294.160156 12.792969 294.472656 12.792969 C 296.347656 12.792969 297.285156 11.757812 297.285156 10.332031 C 297.285156 9.375 296.699219 8.789062 296.542969 8.632812 C 295.898438 8.085938 295.410156 7.96875 294.21875 7.753906 C 293.691406 7.65625 292.382812 7.402344 292.382812 6.328125 C 292.382812 5.761719 292.753906 4.941406 294.375 4.941406 C 296.328125 4.941406 296.425781 6.601562 296.464844 7.167969 C 296.484375 7.304688 296.601562 7.304688 296.660156 7.304688 C 296.855469 7.304688 296.855469 7.226562 296.855469 6.894531 Z M 296.855469 5.039062 "/>
<path style=" stroke:none;fill-rule:nonzero;fill:rgb(0%,0%,0%);fill-opacity:1;" d="M 309.222656 5.292969 C 308.65625 5.410156 308.441406 5.839844 308.441406 6.171875 C 308.441406 6.601562 308.773438 6.757812 309.027344 6.757812 C 309.574219 6.757812 309.945312 6.289062 309.945312 5.800781 C 309.945312 5.058594 309.085938 4.707031 308.324219 4.707031 C 307.230469 4.707031 306.625 5.78125 306.46875 6.132812 C 306.058594 4.785156 304.945312 4.707031 304.613281 4.707031 C 302.796875 4.707031 301.820312 7.050781 301.820312 7.460938 C 301.820312 7.519531 301.898438 7.617188 302.015625 7.617188 C 302.152344 7.617188 302.191406 7.5 302.230469 7.441406 C 302.835938 5.449219 304.046875 5.078125 304.554688 5.078125 C 305.375 5.078125 305.53125 5.820312 305.53125 6.25 C 305.53125 6.640625 305.433594 7.050781 305.199219 7.910156 L 304.59375 10.371094 C 304.339844 11.445312 303.8125 12.441406 302.855469 12.441406 C 302.777344 12.441406 302.328125 12.441406 301.9375 12.207031 C 302.582031 12.070312 302.738281 11.542969 302.738281 11.328125 C 302.738281 10.976562 302.464844 10.761719 302.132812 10.761719 C 301.703125 10.761719 301.234375 11.132812 301.234375 11.699219 C 301.234375 12.460938 302.074219 12.792969 302.835938 12.792969 C 303.695312 12.792969 304.320312 12.109375 304.691406 11.386719 C 304.984375 12.441406 305.863281 12.792969 306.527344 12.792969 C 308.363281 12.792969 309.339844 10.449219 309.339844 10.058594 C 309.339844 9.960938 309.261719 9.882812 309.144531 9.882812 C 308.988281 9.882812 308.96875 9.980469 308.929688 10.117188 C 308.441406 11.699219 307.386719 12.441406 306.585938 12.441406 C 305.960938 12.441406 305.628906 11.972656 305.628906 11.230469 C 305.628906 10.839844 305.6875 10.546875 305.980469 9.375 L 306.605469 6.933594 C 306.878906 5.859375 307.484375 5.078125 308.304688 5.078125 C 308.34375 5.078125 308.851562 5.078125 309.222656 5.292969 Z M 309.222656 5.292969 "/>
<path style=" stroke:none;fill-rule:nonzero;fill:rgb(0%,0%,0%);fill-opacity:1;" d="M 2.207031 21.597656 L 0.664062 21.597656 L 0.664062 23.140625 L 2.207031 23.140625 Z M 2.109375 25.796875 L 0.78125 25.796875 L 0.78125 33.765625 L 2.109375 33.765625 Z M 2.109375 25.796875 "/>
<path style=" stroke:none;fill-rule:nonzero;fill:rgb(0%,0%,0%);fill-opacity:1;" d="M 9.589844 26.089844 C 8.457031 25.5625 7.480469 25.542969 7.070312 25.542969 C 6.660156 25.542969 4.160156 25.542969 4.160156 27.867188 C 4.160156 28.648438 4.589844 29.195312 4.863281 29.449219 C 5.507812 29.996094 5.957031 30.09375 7.011719 30.308594 C 7.617188 30.425781 8.652344 30.640625 8.652344 31.597656 C 8.652344 32.828125 7.246094 32.828125 6.992188 32.828125 C 6.289062 32.828125 5.234375 32.632812 4.277344 31.929688 L 4.0625 33.160156 C 4.140625 33.21875 5.371094 33.941406 7.011719 33.941406 C 9.335938 33.941406 9.882812 32.554688 9.882812 31.480469 C 9.882812 30.582031 9.335938 29.996094 9.257812 29.917969 C 8.59375 29.234375 8.046875 29.117188 6.972656 28.902344 C 6.308594 28.785156 5.410156 28.609375 5.410156 27.710938 C 5.410156 26.597656 6.660156 26.597656 6.894531 26.597656 C 7.832031 26.597656 8.59375 26.8125 9.375 27.261719 Z M 9.589844 26.089844 "/>
<path style=" stroke:none;fill-rule:nonzero;fill:rgb(0%,0%,0%);fill-opacity:1;" d="M 27.992188 29.644531 C 28.304688 29.644531 28.617188 29.644531 28.617188 29.292969 C 28.617188 28.921875 28.304688 28.921875 27.992188 28.921875 L 18.285156 28.921875 C 17.992188 28.921875 17.660156 28.921875 17.660156 29.292969 C 17.660156 29.644531 17.992188 29.644531 18.285156 29.644531 Z M 27.992188 29.644531 "/>
<path style=" stroke:none;fill-rule:nonzero;fill:rgb(0%,0%,0%);fill-opacity:1;" d="M 39.609375 27.125 C 39.394531 27.125 38.730469 27.125 38.730469 27.867188 C 38.730469 28.296875 39.042969 28.609375 39.472656 28.609375 C 39.882812 28.609375 40.234375 28.355469 40.234375 27.828125 C 40.234375 26.636719 38.964844 25.777344 37.519531 25.777344 C 35.429688 25.777344 33.75 27.632812 33.75 29.898438 C 33.75 32.183594 35.46875 33.941406 37.5 33.941406 C 39.863281 33.941406 40.410156 31.792969 40.410156 31.636719 C 40.410156 31.460938 40.273438 31.460938 40.234375 31.460938 C 40.058594 31.460938 40.039062 31.519531 40 31.734375 C 39.589844 33.003906 38.632812 33.550781 37.65625 33.550781 C 36.5625 33.550781 35.117188 32.59375 35.117188 29.878906 C 35.117188 26.890625 36.640625 26.167969 37.539062 26.167969 C 38.222656 26.167969 39.199219 26.441406 39.609375 27.125 Z M 39.609375 27.125 "/>
<path style=" stroke:none;fill-rule:nonzero;fill:rgb(0%,0%,0%);fill-opacity:1;" d="M 49.148438 29.9375 C 49.148438 27.613281 47.390625 25.777344 45.320312 25.777344 C 43.171875 25.777344 41.472656 27.671875 41.472656 29.9375 C 41.472656 32.222656 43.25 33.941406 45.300781 33.941406 C 47.410156 33.941406 49.148438 32.183594 49.148438 29.9375 Z M 45.320312 33.550781 C 44.65625 33.550781 43.855469 33.257812 43.328125 32.378906 C 42.839844 31.578125 42.820312 30.523438 42.820312 29.761719 C 42.820312 29.078125 42.820312 27.984375 43.386719 27.183594 C 43.875 26.421875 44.675781 26.128906 45.300781 26.128906 C 46.003906 26.128906 46.746094 26.441406 47.234375 27.144531 C 47.800781 27.964844 47.800781 29.097656 47.800781 29.761719 C 47.800781 30.386719 47.800781 31.5 47.332031 32.339844 C 46.824219 33.21875 46.003906 33.550781 45.320312 33.550781 Z M 45.320312 33.550781 "/>
<path style=" stroke:none;fill-rule:nonzero;fill:rgb(0%,0%,0%);fill-opacity:1;" d="M 52.785156 26.558594 L 55.324219 26.558594 L 55.324219 26.03125 L 52.785156 26.03125 L 52.785156 22.730469 L 52.394531 22.730469 C 52.375 24.429688 51.730469 26.148438 50.109375 26.207031 L 50.109375 26.558594 L 51.632812 26.558594 L 51.632812 31.539062 C 51.632812 33.53125 52.941406 33.941406 53.898438 33.941406 C 55.03125 33.941406 55.617188 32.828125 55.617188 31.539062 L 55.617188 30.523438 L 55.226562 30.523438 L 55.226562 31.5 C 55.226562 32.789062 54.699219 33.550781 54.015625 33.550781 C 52.785156 33.550781 52.785156 31.890625 52.785156 31.578125 Z M 52.785156 26.558594 "/>
<path style=" stroke:none;fill-rule:nonzero;fill:rgb(0%,0%,0%);fill-opacity:1;" d="M 68.019531 26.441406 C 67.453125 26.558594 67.238281 26.988281 67.238281 27.320312 C 67.238281 27.75 67.570312 27.90625 67.824219 27.90625 C 68.371094 27.90625 68.742188 27.4375 68.742188 26.949219 C 68.742188 26.207031 67.882812 25.855469 67.121094 25.855469 C 66.027344 25.855469 65.421875 26.929688 65.265625 27.28125 C 64.855469 25.933594 63.742188 25.855469 63.410156 25.855469 C 61.59375 25.855469 60.617188 28.199219 60.617188 28.609375 C 60.617188 28.667969 60.695312 28.765625 60.8125 28.765625 C 60.949219 28.765625 60.988281 28.648438 61.027344 28.589844 C 61.632812 26.597656 62.84375 26.226562 63.351562 26.226562 C 64.171875 26.226562 64.328125 26.96875 64.328125 27.398438 C 64.328125 27.789062 64.230469 28.199219 63.996094 29.058594 L 63.390625 31.519531 C 63.136719 32.59375 62.609375 33.589844 61.652344 33.589844 C 61.574219 33.589844 61.125 33.589844 60.734375 33.355469 C 61.378906 33.21875 61.535156 32.691406 61.535156 32.476562 C 61.535156 32.125 61.261719 31.910156 60.929688 31.910156 C 60.5 31.910156 60.03125 32.28125 60.03125 32.847656 C 60.03125 33.609375 60.871094 33.941406 61.632812 33.941406 C 62.492188 33.941406 63.117188 33.257812 63.488281 32.535156 C 63.78125 33.589844 64.660156 33.941406 65.324219 33.941406 C 67.160156 33.941406 68.136719 31.597656 68.136719 31.207031 C 68.136719 31.109375 68.058594 31.03125 67.941406 31.03125 C 67.785156 31.03125 67.765625 31.128906 67.726562 31.265625 C 67.238281 32.847656 66.183594 33.589844 65.382812 33.589844 C 64.757812 33.589844 64.425781 33.121094 64.425781 32.378906 C 64.425781 31.988281 64.484375 31.695312 64.777344 30.523438 L 65.402344 28.082031 C 65.675781 27.007812 66.28125 26.226562 67.101562 26.226562 C 67.140625 26.226562 67.648438 26.226562 68.019531 26.441406 Z M 68.019531 26.441406 "/>
</g>
</svg>
