<?xml version="1.0" encoding="UTF-8"?>
<svg xmlns="http://www.w3.org/2000/svg" xmlns:xlink="http://www.w3.org/1999/xlink" width="247.1102pt" height="58.758345pt" viewBox="0 0 247.1102 58.758345" version="1.1">
<g id="surface1">
<path style=" stroke:none;fill-rule:nonzero;fill:rgb(0%,0%,100%);fill-opacity:1;" d="M 5.761719 7.460938 C 8.222656 7.460938 9.921875 5.683594 9.921875 3.808594 C 9.921875 1.914062 8.183594 0.195312 5.761719 0.195312 L 1.386719 0.195312 L 1.386719 12.636719 L 2.910156 12.636719 L 2.910156 7.460938 Z M 5.371094 1.191406 C 7.480469 1.191406 8.515625 2.460938 8.515625 3.789062 C 8.515625 5.214844 7.421875 6.40625 5.371094 6.40625 L 2.890625 6.40625 L 2.890625 1.191406 Z M 5.371094 1.191406 "/>
<path style=" stroke:none;fill-rule:nonzero;fill:rgb(0%,0%,100%);fill-opacity:1;" d="M 17.40625 7.382812 C 17.40625 5.664062 16.175781 4.414062 14.496094 4.414062 C 13.421875 4.414062 12.621094 4.648438 11.742188 5.15625 L 11.839844 6.347656 C 12.640625 5.761719 13.460938 5.449219 14.496094 5.449219 C 15.316406 5.449219 16.039062 6.113281 16.039062 7.421875 L 16.039062 8.164062 C 15.238281 8.183594 14.164062 8.242188 13.089844 8.59375 C 11.878906 9.023438 11.175781 9.6875 11.175781 10.566406 C 11.175781 11.367188 11.644531 12.8125 13.167969 12.8125 C 14.164062 12.8125 15.414062 12.519531 16.078125 11.972656 L 16.078125 12.636719 L 17.40625 12.636719 Z M 16.039062 10.234375 C 16.039062 10.585938 16.039062 11.015625 15.453125 11.386719 C 14.964844 11.679688 14.359375 11.738281 14.085938 11.738281 C 13.128906 11.738281 12.464844 11.210938 12.464844 10.566406 C 12.464844 9.335938 14.945312 9.0625 16.039062 9.0625 Z M 16.039062 10.234375 "/>
<path style=" stroke:none;fill-rule:nonzero;fill:rgb(0%,0%,100%);fill-opacity:1;" d="M 21.082031 8.710938 C 21.082031 6.894531 22.429688 5.722656 24.050781 5.703125 L 24.050781 4.492188 C 22.410156 4.511719 21.472656 5.46875 20.984375 6.171875 L 20.984375 4.589844 L 19.753906 4.589844 L 19.753906 12.636719 L 21.082031 12.636719 Z M 21.082031 8.710938 "/>
<path style=" stroke:none;fill-rule:nonzero;fill:rgb(0%,0%,100%);fill-opacity:1;" d="M 31.359375 7.382812 C 31.359375 5.664062 30.128906 4.414062 28.449219 4.414062 C 27.375 4.414062 26.574219 4.648438 25.695312 5.15625 L 25.792969 6.347656 C 26.59375 5.761719 27.414062 5.449219 28.449219 5.449219 C 29.269531 5.449219 29.992188 6.113281 29.992188 7.421875 L 29.992188 8.164062 C 29.191406 8.183594 28.117188 8.242188 27.042969 8.59375 C 25.832031 9.023438 25.128906 9.6875 25.128906 10.566406 C 25.128906 11.367188 25.597656 12.8125 27.121094 12.8125 C 28.117188 12.8125 29.367188 12.519531 30.03125 11.972656 L 30.03125 12.636719 L 31.359375 12.636719 Z M 29.992188 10.234375 C 29.992188 10.585938 29.992188 11.015625 29.40625 11.386719 C 28.917969 11.679688 28.3125 11.738281 28.039062 11.738281 C 27.082031 11.738281 26.417969 11.210938 26.417969 10.566406 C 26.417969 9.335938 28.898438 9.0625 29.992188 9.0625 Z M 29.992188 10.234375 "/>
<path style=" stroke:none;fill-rule:nonzero;fill:rgb(0%,0%,100%);fill-opacity:1;" d="M 45.246094 7.246094 C 45.246094 5.996094 44.914062 4.492188 42.824219 4.492188 C 41.300781 4.492188 40.460938 5.546875 40.1875 5.957031 C 39.855469 4.824219 38.878906 4.492188 37.941406 4.492188 C 36.476562 4.492188 35.695312 5.449219 35.402344 5.820312 L 35.402344 4.589844 L 34.132812 4.589844 L 34.132812 12.636719 L 35.480469 12.636719 L 35.480469 8.164062 C 35.480469 6.992188 35.949219 5.566406 37.257812 5.566406 C 38.917969 5.566406 38.996094 6.699219 38.996094 7.363281 L 38.996094 12.636719 L 40.363281 12.636719 L 40.363281 8.164062 C 40.363281 6.992188 40.832031 5.566406 42.140625 5.566406 C 43.78125 5.566406 43.878906 6.699219 43.878906 7.363281 L 43.878906 12.636719 L 45.246094 12.636719 Z M 45.246094 7.246094 "/>
<path style=" stroke:none;fill-rule:nonzero;fill:rgb(0%,0%,100%);fill-opacity:1;" d="M 54 8.59375 C 54 7.832031 53.921875 6.738281 53.355469 5.78125 C 52.613281 4.550781 51.363281 4.414062 50.835938 4.414062 C 48.902344 4.414062 47.28125 6.269531 47.28125 8.59375 C 47.28125 10.976562 49 12.8125 51.089844 12.8125 C 51.910156 12.8125 52.90625 12.578125 53.882812 11.875 C 53.882812 11.796875 53.824219 11.230469 53.824219 11.210938 C 53.804688 11.191406 53.785156 10.78125 53.785156 10.722656 C 52.710938 11.621094 51.65625 11.738281 51.128906 11.738281 C 49.742188 11.738281 48.550781 10.507812 48.53125 8.59375 Z M 48.628906 7.636719 C 48.941406 6.425781 49.78125 5.488281 50.835938 5.488281 C 51.402344 5.488281 52.632812 5.742188 52.925781 7.636719 Z M 48.628906 7.636719 "/>
<path style=" stroke:none;fill-rule:nonzero;fill:rgb(0%,0%,100%);fill-opacity:1;" d="M 57.5625 5.722656 L 60.042969 5.722656 L 60.042969 4.667969 L 57.5625 4.667969 L 57.5625 2.402344 L 56.332031 2.402344 L 56.332031 4.667969 L 54.828125 4.667969 L 54.828125 5.722656 L 56.292969 5.722656 L 56.292969 10.546875 C 56.292969 11.582031 56.527344 12.8125 57.757812 12.8125 C 58.96875 12.8125 59.789062 12.402344 60.335938 12.109375 L 60.0625 11.074219 C 59.4375 11.640625 58.773438 11.699219 58.460938 11.699219 C 57.660156 11.699219 57.5625 10.859375 57.5625 10.234375 Z M 57.5625 5.722656 "/>
<path style=" stroke:none;fill-rule:nonzero;fill:rgb(0%,0%,100%);fill-opacity:1;" d="M 63.53125 8.710938 C 63.53125 6.894531 64.878906 5.722656 66.5 5.703125 L 66.5 4.492188 C 64.859375 4.511719 63.921875 5.46875 63.433594 6.171875 L 63.433594 4.589844 L 62.203125 4.589844 L 62.203125 12.636719 L 63.53125 12.636719 Z M 63.53125 8.710938 "/>
<path style=" stroke:none;fill-rule:nonzero;fill:rgb(0%,0%,100%);fill-opacity:1;" d="M 69.628906 0.46875 L 68.085938 0.46875 L 68.085938 2.011719 L 69.628906 2.011719 Z M 69.53125 4.667969 L 68.203125 4.667969 L 68.203125 12.636719 L 69.53125 12.636719 Z M 69.53125 4.667969 "/>
<path style=" stroke:none;fill-rule:nonzero;fill:rgb(0%,0%,100%);fill-opacity:1;" d="M 78.183594 10.703125 C 77.363281 11.367188 76.445312 11.699219 75.449219 11.699219 C 73.945312 11.699219 72.988281 10.371094 72.988281 8.632812 C 72.988281 7.148438 73.710938 5.527344 75.488281 5.527344 C 76.699219 5.527344 77.207031 5.800781 77.96875 6.328125 L 78.183594 5.15625 C 77.148438 4.550781 76.5625 4.414062 75.488281 4.414062 C 73.027344 4.414062 71.621094 6.601562 71.621094 8.632812 C 71.621094 10.9375 73.28125 12.8125 75.429688 12.8125 C 76.308594 12.8125 77.304688 12.597656 78.300781 11.875 C 78.300781 11.835938 78.242188 11.269531 78.222656 11.210938 Z M 78.183594 10.703125 "/>
<path style=" stroke:none;fill-rule:nonzero;fill:rgb(0%,0%,100%);fill-opacity:1;" d="M 94.710938 10.566406 C 93.617188 11.386719 92.875 11.679688 91.3125 11.679688 C 88.96875 11.679688 87.210938 9.257812 87.210938 6.386719 C 87.210938 3.964844 88.65625 1.113281 91.390625 1.113281 C 92.5625 1.113281 93.460938 1.464844 94.359375 2.070312 L 94.632812 0.605469 C 93.460938 0.15625 92.582031 0 91.351562 0 C 88.304688 0 85.6875 2.695312 85.6875 6.40625 C 85.6875 10.332031 88.558594 12.792969 91.175781 12.792969 C 92.972656 12.792969 93.363281 12.695312 94.828125 11.816406 Z M 94.710938 10.566406 "/>
<path style=" stroke:none;fill-rule:nonzero;fill:rgb(0%,0%,100%);fill-opacity:1;" d="M 103.34375 4.667969 L 101.976562 4.667969 L 101.976562 9.804688 C 101.976562 11.171875 101.039062 11.835938 99.867188 11.835938 C 98.617188 11.835938 98.480469 11.367188 98.480469 10.566406 L 98.480469 4.667969 L 97.132812 4.667969 L 97.132812 10.644531 C 97.132812 11.933594 97.542969 12.8125 99.007812 12.8125 C 99.515625 12.8125 100.921875 12.734375 102.015625 11.738281 L 102.015625 12.636719 L 103.34375 12.636719 Z M 103.34375 4.667969 "/>
<path style=" stroke:none;fill-rule:nonzero;fill:rgb(0%,0%,100%);fill-opacity:1;" d="M 107.480469 8.710938 C 107.480469 6.894531 108.828125 5.722656 110.449219 5.703125 L 110.449219 4.492188 C 108.808594 4.511719 107.871094 5.46875 107.382812 6.171875 L 107.382812 4.589844 L 106.152344 4.589844 L 106.152344 12.636719 L 107.480469 12.636719 Z M 107.480469 8.710938 "/>
<path style=" stroke:none;fill-rule:nonzero;fill:rgb(0%,0%,100%);fill-opacity:1;" d="M 118.5 4.667969 L 117.171875 4.667969 L 115.863281 8.242188 C 115.550781 9.101562 114.886719 10.996094 114.789062 11.660156 L 114.769531 11.660156 C 114.671875 11.035156 114.320312 10.058594 114.046875 9.277344 L 112.386719 4.667969 L 111 4.667969 L 113.949219 12.636719 L 115.550781 12.636719 Z M 118.5 4.667969 "/>
<path style=" stroke:none;fill-rule:nonzero;fill:rgb(0%,0%,100%);fill-opacity:1;" d="M 126.152344 8.59375 C 126.152344 7.832031 126.074219 6.738281 125.507812 5.78125 C 124.765625 4.550781 123.515625 4.414062 122.988281 4.414062 C 121.054688 4.414062 119.433594 6.269531 119.433594 8.59375 C 119.433594 10.976562 121.152344 12.8125 123.242188 12.8125 C 124.0625 12.8125 125.058594 12.578125 126.035156 11.875 C 126.035156 11.796875 125.976562 11.230469 125.976562 11.210938 C 125.957031 11.191406 125.9375 10.78125 125.9375 10.722656 C 124.863281 11.621094 123.808594 11.738281 123.28125 11.738281 C 121.894531 11.738281 120.703125 10.507812 120.683594 8.59375 Z M 120.78125 7.636719 C 121.09375 6.425781 121.933594 5.488281 122.988281 5.488281 C 123.554688 5.488281 124.785156 5.742188 125.078125 7.636719 Z M 120.78125 7.636719 "/>
<path style=" stroke:none;fill-rule:nonzero;fill:rgb(0%,0%,100%);fill-opacity:1;" d="M 132.660156 4.960938 C 131.527344 4.433594 130.550781 4.414062 130.140625 4.414062 C 129.730469 4.414062 127.230469 4.414062 127.230469 6.738281 C 127.230469 7.519531 127.660156 8.066406 127.933594 8.320312 C 128.578125 8.867188 129.027344 8.964844 130.082031 9.179688 C 130.6875 9.296875 131.722656 9.511719 131.722656 10.46875 C 131.722656 11.699219 130.316406 11.699219 130.0625 11.699219 C 129.359375 11.699219 128.304688 11.503906 127.347656 10.800781 L 127.132812 12.03125 C 127.210938 12.089844 128.441406 12.8125 130.082031 12.8125 C 132.40625 12.8125 132.953125 11.425781 132.953125 10.351562 C 132.953125 9.453125 132.40625 8.867188 132.328125 8.789062 C 131.664062 8.105469 131.117188 7.988281 130.042969 7.773438 C 129.378906 7.65625 128.480469 7.480469 128.480469 6.582031 C 128.480469 5.46875 129.730469 5.46875 129.964844 5.46875 C 130.902344 5.46875 131.664062 5.683594 132.445312 6.132812 Z M 132.660156 4.960938 "/>
<path style=" stroke:none;fill-rule:nonzero;fill:rgb(0%,0%,0%);fill-opacity:1;" d="M 15.957031 21.34375 L 14.648438 21.34375 L 13.007812 27.222656 L 12.304688 29.878906 C 12.070312 30.738281 11.796875 31.773438 11.71875 32.417969 L 11.699219 32.417969 C 11.621094 31.675781 11.230469 30.132812 10.917969 29.058594 L 8.808594 21.34375 L 7.285156 21.34375 L 5.742188 26.890625 C 5.605469 27.339844 4.53125 31.246094 4.414062 32.398438 L 4.394531 32.398438 C 4.316406 31.714844 3.867188 29.957031 3.789062 29.664062 L 3.027344 26.792969 L 1.523438 21.34375 L 0 21.34375 L 3.515625 33.785156 L 5 33.785156 L 6.679688 27.691406 C 7.128906 26.089844 7.8125 23.628906 7.929688 22.691406 L 7.949219 22.691406 C 7.949219 22.710938 8.066406 23.609375 8.90625 26.675781 L 10.859375 33.785156 L 12.441406 33.785156 Z M 15.957031 21.34375 "/>
<path style=" stroke:none;fill-rule:nonzero;fill:rgb(0%,0%,0%);fill-opacity:1;" d="M 23.84375 28.394531 C 23.84375 27.300781 23.609375 25.640625 21.441406 25.640625 C 20.210938 25.640625 19.390625 26.34375 18.960938 26.890625 L 18.960938 21.34375 L 17.632812 21.34375 L 17.632812 33.785156 L 18.980469 33.785156 L 18.980469 29.3125 C 18.980469 28.21875 19.410156 26.714844 20.757812 26.714844 C 22.4375 26.714844 22.476562 27.886719 22.476562 28.511719 L 22.476562 33.785156 L 23.84375 33.785156 Z M 23.84375 28.394531 "/>
<path style=" stroke:none;fill-rule:nonzero;fill:rgb(0%,0%,0%);fill-opacity:1;" d="M 32.257812 28.53125 C 32.257812 26.8125 31.027344 25.5625 29.347656 25.5625 C 28.273438 25.5625 27.472656 25.796875 26.59375 26.304688 L 26.691406 27.496094 C 27.492188 26.910156 28.3125 26.597656 29.347656 26.597656 C 30.167969 26.597656 30.890625 27.261719 30.890625 28.570312 L 30.890625 29.3125 C 30.089844 29.332031 29.015625 29.390625 27.941406 29.742188 C 26.730469 30.171875 26.027344 30.835938 26.027344 31.714844 C 26.027344 32.515625 26.496094 33.960938 28.019531 33.960938 C 29.015625 33.960938 30.265625 33.667969 30.929688 33.121094 L 30.929688 33.785156 L 32.257812 33.785156 Z M 30.890625 31.382812 C 30.890625 31.734375 30.890625 32.164062 30.304688 32.535156 C 29.816406 32.828125 29.210938 32.886719 28.9375 32.886719 C 27.980469 32.886719 27.316406 32.359375 27.316406 31.714844 C 27.316406 30.484375 29.796875 30.210938 30.890625 30.210938 Z M 30.890625 31.382812 "/>
<path style=" stroke:none;fill-rule:nonzero;fill:rgb(0%,0%,0%);fill-opacity:1;" d="M 36.710938 26.871094 L 39.191406 26.871094 L 39.191406 25.816406 L 36.710938 25.816406 L 36.710938 23.550781 L 35.480469 23.550781 L 35.480469 25.816406 L 33.976562 25.816406 L 33.976562 26.871094 L 35.441406 26.871094 L 35.441406 31.695312 C 35.441406 32.730469 35.675781 33.960938 36.90625 33.960938 C 38.117188 33.960938 38.9375 33.550781 39.484375 33.257812 L 39.210938 32.222656 C 38.585938 32.789062 37.921875 32.847656 37.609375 32.847656 C 36.808594 32.847656 36.710938 32.007812 36.710938 31.382812 Z M 36.710938 26.871094 "/>
<path style=" stroke:none;fill-rule:nonzero;fill:rgb(0%,0%,0%);fill-opacity:1;" d="M 50.664062 26.871094 L 53.144531 26.871094 L 53.144531 25.816406 L 50.664062 25.816406 L 50.664062 23.550781 L 49.433594 23.550781 L 49.433594 25.816406 L 47.929688 25.816406 L 47.929688 26.871094 L 49.394531 26.871094 L 49.394531 31.695312 C 49.394531 32.730469 49.628906 33.960938 50.859375 33.960938 C 52.070312 33.960938 52.890625 33.550781 53.4375 33.257812 L 53.164062 32.222656 C 52.539062 32.789062 51.875 32.847656 51.5625 32.847656 C 50.761719 32.847656 50.664062 32.007812 50.664062 31.382812 Z M 50.664062 26.871094 "/>
<path style=" stroke:none;fill-rule:nonzero;fill:rgb(0%,0%,0%);fill-opacity:1;" d="M 61.492188 28.394531 C 61.492188 27.300781 61.257812 25.640625 59.089844 25.640625 C 57.859375 25.640625 57.039062 26.34375 56.609375 26.890625 L 56.609375 21.34375 L 55.28125 21.34375 L 55.28125 33.785156 L 56.628906 33.785156 L 56.628906 29.3125 C 56.628906 28.21875 57.058594 26.714844 58.40625 26.714844 C 60.085938 26.714844 60.125 27.886719 60.125 28.511719 L 60.125 33.785156 L 61.492188 33.785156 Z M 61.492188 28.394531 "/>
<path style=" stroke:none;fill-rule:nonzero;fill:rgb(0%,0%,0%);fill-opacity:1;" d="M 70.199219 29.742188 C 70.199219 28.980469 70.121094 27.886719 69.554688 26.929688 C 68.8125 25.699219 67.5625 25.5625 67.035156 25.5625 C 65.101562 25.5625 63.480469 27.417969 63.480469 29.742188 C 63.480469 32.125 65.199219 33.960938 67.289062 33.960938 C 68.109375 33.960938 69.105469 33.726562 70.082031 33.023438 C 70.082031 32.945312 70.023438 32.378906 70.023438 32.359375 C 70.003906 32.339844 69.984375 31.929688 69.984375 31.871094 C 68.910156 32.769531 67.855469 32.886719 67.328125 32.886719 C 65.941406 32.886719 64.75 31.65625 64.730469 29.742188 Z M 64.828125 28.785156 C 65.140625 27.574219 65.980469 26.636719 67.035156 26.636719 C 67.601562 26.636719 68.832031 26.890625 69.125 28.785156 Z M 64.828125 28.785156 "/>
<path style=" stroke:none;fill-rule:nonzero;fill:rgb(0%,0%,0%);fill-opacity:1;" d="M 78.449219 25.816406 L 77.121094 25.816406 C 76.28125 27.945312 74.914062 31.460938 74.835938 32.75 L 74.816406 32.75 C 74.738281 31.695312 73.78125 29.3125 73.644531 28.960938 L 72.355469 25.816406 L 70.949219 25.816406 L 74.289062 33.785156 L 73.644531 35.425781 C 73.253906 36.304688 73 36.402344 72.667969 36.402344 C 72.414062 36.402344 71.847656 36.34375 71.28125 36.128906 L 71.398438 37.300781 C 71.496094 37.320312 72.101562 37.4375 72.667969 37.4375 C 73.097656 37.4375 73.9375 37.4375 74.71875 35.464844 Z M 78.449219 25.816406 "/>
<path style=" stroke:none;fill-rule:nonzero;fill:rgb(0%,0%,0%);fill-opacity:1;" d="M 93.308594 28.53125 C 93.308594 26.8125 92.078125 25.5625 90.398438 25.5625 C 89.324219 25.5625 88.523438 25.796875 87.644531 26.304688 L 87.742188 27.496094 C 88.542969 26.910156 89.363281 26.597656 90.398438 26.597656 C 91.21875 26.597656 91.941406 27.261719 91.941406 28.570312 L 91.941406 29.3125 C 91.140625 29.332031 90.066406 29.390625 88.992188 29.742188 C 87.78125 30.171875 87.078125 30.835938 87.078125 31.714844 C 87.078125 32.515625 87.546875 33.960938 89.070312 33.960938 C 90.066406 33.960938 91.316406 33.667969 91.980469 33.121094 L 91.980469 33.785156 L 93.308594 33.785156 Z M 91.941406 31.382812 C 91.941406 31.734375 91.941406 32.164062 91.355469 32.535156 C 90.867188 32.828125 90.261719 32.886719 89.988281 32.886719 C 89.03125 32.886719 88.367188 32.359375 88.367188 31.714844 C 88.367188 30.484375 90.847656 30.210938 91.941406 30.210938 Z M 91.941406 31.382812 "/>
<path style=" stroke:none;fill-rule:nonzero;fill:rgb(0%,0%,0%);fill-opacity:1;" d="M 96.980469 29.859375 C 96.980469 28.042969 98.328125 26.871094 99.949219 26.851562 L 99.949219 25.640625 C 98.308594 25.660156 97.371094 26.617188 96.882812 27.320312 L 96.882812 25.738281 L 95.652344 25.738281 L 95.652344 33.785156 L 96.980469 33.785156 Z M 96.980469 29.859375 "/>
<path style=" stroke:none;fill-rule:nonzero;fill:rgb(0%,0%,0%);fill-opacity:1;" d="M 107.550781 29.742188 C 107.550781 28.980469 107.472656 27.886719 106.90625 26.929688 C 106.164062 25.699219 104.914062 25.5625 104.386719 25.5625 C 102.453125 25.5625 100.832031 27.417969 100.832031 29.742188 C 100.832031 32.125 102.550781 33.960938 104.640625 33.960938 C 105.460938 33.960938 106.457031 33.726562 107.433594 33.023438 C 107.433594 32.945312 107.375 32.378906 107.375 32.359375 C 107.355469 32.339844 107.335938 31.929688 107.335938 31.871094 C 106.261719 32.769531 105.207031 32.886719 104.679688 32.886719 C 103.292969 32.886719 102.101562 31.65625 102.082031 29.742188 Z M 102.179688 28.785156 C 102.492188 27.574219 103.332031 26.636719 104.386719 26.636719 C 104.953125 26.636719 106.183594 26.890625 106.476562 28.785156 Z M 102.179688 28.785156 "/>
<path style=" stroke:none;fill-rule:nonzero;fill:rgb(0%,0%,0%);fill-opacity:1;" d="M 118.710938 25.816406 L 117.246094 25.816406 L 117.246094 27.28125 L 118.710938 27.28125 Z M 117.246094 36.03125 L 117.96875 36.03125 L 118.710938 33.765625 L 118.710938 32.339844 L 117.246094 32.339844 L 117.246094 33.785156 L 117.695312 33.785156 Z M 117.246094 36.03125 "/>
<path style=" stroke:none;fill-rule:nonzero;fill:rgb(0%,0%,0%);fill-opacity:1;" d="M 137.222656 28.121094 L 137.222656 27.046875 L 131.910156 27.046875 L 131.910156 22.496094 L 134.214844 22.496094 C 134.429688 22.496094 134.644531 22.515625 134.859375 22.515625 L 137.964844 22.515625 L 137.964844 21.382812 L 130.367188 21.382812 L 130.367188 33.785156 L 131.910156 33.785156 L 131.910156 28.121094 Z M 137.222656 28.121094 "/>
<path style=" stroke:none;fill-rule:nonzero;fill:rgb(0%,0%,0%);fill-opacity:1;" d="M 141.476562 21.617188 L 139.933594 21.617188 L 139.933594 23.160156 L 141.476562 23.160156 Z M 141.378906 25.816406 L 140.050781 25.816406 L 140.050781 33.785156 L 141.378906 33.785156 Z M 141.378906 25.816406 "/>
<path style=" stroke:none;fill-rule:nonzero;fill:rgb(0%,0%,0%);fill-opacity:1;" d="M 150.445312 28.394531 C 150.445312 27.300781 150.210938 25.640625 148.042969 25.640625 C 147.046875 25.640625 146.1875 26.089844 145.503906 26.949219 L 145.503906 25.738281 L 144.234375 25.738281 L 144.234375 33.785156 L 145.582031 33.785156 L 145.582031 29.3125 C 145.582031 28.21875 146.011719 26.714844 147.359375 26.714844 C 149.039062 26.714844 149.078125 27.886719 149.078125 28.511719 L 149.078125 33.785156 L 150.445312 33.785156 Z M 150.445312 28.394531 "/>
<path style=" stroke:none;fill-rule:nonzero;fill:rgb(0%,0%,0%);fill-opacity:1;" d="M 159.425781 21.34375 L 158.097656 21.34375 L 158.097656 26.578125 C 157.277344 25.894531 156.339844 25.640625 155.578125 25.640625 C 153.878906 25.640625 152.472656 27.476562 152.472656 29.800781 C 152.472656 32.125 153.800781 33.960938 155.5 33.960938 C 156.164062 33.960938 157.179688 33.746094 158.078125 32.867188 L 158.078125 33.785156 L 159.425781 33.785156 Z M 158.078125 31.675781 C 157.648438 32.4375 157.003906 32.886719 156.222656 32.886719 C 155.128906 32.886719 153.839844 32.046875 153.839844 29.820312 C 153.839844 27.4375 155.363281 26.714844 156.398438 26.714844 C 157.101562 26.714844 157.667969 27.085938 158.078125 27.671875 Z M 158.078125 31.675781 "/>
<path style=" stroke:none;fill-rule:nonzero;fill:rgb(0%,0%,0%);fill-opacity:1;" d="M 163.679688 21.617188 L 162.136719 21.617188 L 162.136719 23.160156 L 163.679688 23.160156 Z M 163.582031 25.816406 L 162.253906 25.816406 L 162.253906 33.785156 L 163.582031 33.785156 Z M 163.582031 25.816406 "/>
<path style=" stroke:none;fill-rule:nonzero;fill:rgb(0%,0%,0%);fill-opacity:1;" d="M 172.644531 28.394531 C 172.644531 27.300781 172.410156 25.640625 170.242188 25.640625 C 169.246094 25.640625 168.386719 26.089844 167.703125 26.949219 L 167.703125 25.738281 L 166.433594 25.738281 L 166.433594 33.785156 L 167.78125 33.785156 L 167.78125 29.3125 C 167.78125 28.21875 168.210938 26.714844 169.558594 26.714844 C 171.238281 26.714844 171.277344 27.886719 171.277344 28.511719 L 171.277344 33.785156 L 172.644531 33.785156 Z M 172.644531 28.394531 "/>
<path style=" stroke:none;fill-rule:nonzero;fill:rgb(0%,0%,0%);fill-opacity:1;" d="M 180.160156 26.714844 C 180.160156 26.714844 180.199219 26.753906 180.21875 26.792969 C 180.589844 26.753906 180.980469 26.695312 181.644531 26.695312 C 181.703125 26.695312 182.113281 26.695312 182.5625 26.734375 L 182.367188 25.640625 C 182.035156 25.640625 180.804688 25.660156 179.613281 26.246094 C 179.027344 25.738281 178.304688 25.640625 177.953125 25.640625 C 176.390625 25.640625 175.140625 26.949219 175.140625 28.53125 C 175.140625 29.175781 175.335938 29.761719 175.726562 30.308594 C 175.316406 30.875 175.21875 31.421875 175.21875 31.851562 C 175.21875 32.515625 175.472656 32.964844 175.667969 33.199219 C 174.75 33.785156 174.535156 34.546875 174.535156 35.054688 C 174.535156 36.363281 176.234375 37.457031 178.421875 37.457031 C 180.609375 37.457031 182.328125 36.402344 182.328125 35.035156 C 182.328125 32.535156 179.417969 32.535156 178.695312 32.535156 L 177.171875 32.535156 C 176.917969 32.535156 176.136719 32.535156 176.136719 31.578125 C 176.136719 31.1875 176.214844 31.070312 176.332031 30.914062 C 176.625 31.128906 177.210938 31.441406 177.933594 31.441406 C 179.476562 31.441406 180.746094 30.171875 180.746094 28.53125 C 180.746094 27.886719 180.511719 27.222656 180.140625 26.734375 Z M 177.953125 30.445312 C 177.171875 30.445312 176.371094 29.917969 176.371094 28.550781 C 176.371094 26.949219 177.386719 26.636719 177.933594 26.636719 C 178.734375 26.636719 179.515625 27.164062 179.515625 28.53125 C 179.515625 30.132812 178.519531 30.445312 177.953125 30.445312 Z M 178.714844 33.824219 C 179.105469 33.824219 181.078125 33.824219 181.078125 35.054688 C 181.078125 35.875 179.847656 36.480469 178.441406 36.480469 C 177.035156 36.480469 175.785156 35.914062 175.785156 35.035156 C 175.785156 34.996094 175.785156 33.824219 177.152344 33.824219 Z M 178.714844 33.824219 "/>
<path style=" stroke:none;fill-rule:nonzero;fill:rgb(0%,0%,0%);fill-opacity:1;" d="M 197.257812 28.53125 C 197.257812 26.8125 196.027344 25.5625 194.347656 25.5625 C 193.273438 25.5625 192.472656 25.796875 191.59375 26.304688 L 191.691406 27.496094 C 192.492188 26.910156 193.3125 26.597656 194.347656 26.597656 C 195.167969 26.597656 195.890625 27.261719 195.890625 28.570312 L 195.890625 29.3125 C 195.089844 29.332031 194.015625 29.390625 192.941406 29.742188 C 191.730469 30.171875 191.027344 30.835938 191.027344 31.714844 C 191.027344 32.515625 191.496094 33.960938 193.019531 33.960938 C 194.015625 33.960938 195.265625 33.667969 195.929688 33.121094 L 195.929688 33.785156 L 197.257812 33.785156 Z M 195.890625 31.382812 C 195.890625 31.734375 195.890625 32.164062 195.304688 32.535156 C 194.816406 32.828125 194.210938 32.886719 193.9375 32.886719 C 192.980469 32.886719 192.316406 32.359375 192.316406 31.714844 C 192.316406 30.484375 194.796875 30.210938 195.890625 30.210938 Z M 195.890625 31.382812 "/>
<path style=" stroke:none;fill-rule:nonzero;fill:rgb(0%,0%,0%);fill-opacity:1;" d="M 208.898438 32.984375 C 209.523438 33.53125 210.265625 33.960938 211.242188 33.960938 C 212.960938 33.960938 214.503906 32.222656 214.503906 29.78125 C 214.503906 27.613281 213.351562 25.640625 211.691406 25.640625 C 210.949219 25.640625 209.796875 25.875 208.878906 26.675781 L 208.878906 25.816406 L 207.550781 25.816406 L 207.550781 37.261719 L 208.898438 37.261719 Z M 208.898438 27.769531 C 209.308594 27.144531 209.992188 26.753906 210.734375 26.753906 C 212.0625 26.753906 213.136719 28.101562 213.136719 29.800781 C 213.136719 31.597656 211.90625 32.886719 210.578125 32.886719 C 210.070312 32.886719 209.738281 32.710938 209.40625 32.457031 C 208.957031 32.066406 208.898438 31.734375 208.898438 31.460938 Z M 208.898438 27.769531 "/>
<path style=" stroke:none;fill-rule:nonzero;fill:rgb(0%,0%,0%);fill-opacity:1;" d="M 223.820312 29.839844 C 223.820312 27.417969 222.042969 25.5625 219.992188 25.5625 C 217.882812 25.5625 216.144531 27.457031 216.144531 29.839844 C 216.144531 32.183594 217.921875 33.960938 219.972656 33.960938 C 222.082031 33.960938 223.820312 32.144531 223.820312 29.839844 Z M 219.992188 32.847656 C 218.703125 32.847656 217.492188 31.773438 217.492188 29.664062 C 217.492188 27.496094 218.839844 26.636719 219.972656 26.636719 C 221.203125 26.636719 222.472656 27.554688 222.472656 29.664062 C 222.472656 31.871094 221.183594 32.847656 219.992188 32.847656 Z M 219.992188 32.847656 "/>
<path style=" stroke:none;fill-rule:nonzero;fill:rgb(0%,0%,0%);fill-opacity:1;" d="M 227.277344 21.617188 L 225.734375 21.617188 L 225.734375 23.160156 L 227.277344 23.160156 Z M 227.179688 25.816406 L 225.851562 25.816406 L 225.851562 33.785156 L 227.179688 33.785156 Z M 227.179688 25.816406 "/>
<path style=" stroke:none;fill-rule:nonzero;fill:rgb(0%,0%,0%);fill-opacity:1;" d="M 236.242188 28.394531 C 236.242188 27.300781 236.007812 25.640625 233.839844 25.640625 C 232.84375 25.640625 231.984375 26.089844 231.300781 26.949219 L 231.300781 25.738281 L 230.03125 25.738281 L 230.03125 33.785156 L 231.378906 33.785156 L 231.378906 29.3125 C 231.378906 28.21875 231.808594 26.714844 233.15625 26.714844 C 234.835938 26.714844 234.875 27.886719 234.875 28.511719 L 234.875 33.785156 L 236.242188 33.785156 Z M 236.242188 28.394531 "/>
<path style=" stroke:none;fill-rule:nonzero;fill:rgb(0%,0%,0%);fill-opacity:1;" d="M 240.710938 26.871094 L 243.191406 26.871094 L 243.191406 25.816406 L 240.710938 25.816406 L 240.710938 23.550781 L 239.480469 23.550781 L 239.480469 25.816406 L 237.976562 25.816406 L 237.976562 26.871094 L 239.441406 26.871094 L 239.441406 31.695312 C 239.441406 32.730469 239.675781 33.960938 240.90625 33.960938 C 242.117188 33.960938 242.9375 33.550781 243.484375 33.257812 L 243.210938 32.222656 C 242.585938 32.789062 241.921875 32.847656 241.609375 32.847656 C 240.808594 32.847656 240.710938 32.007812 240.710938 31.382812 Z M 240.710938 26.871094 "/>
<path style=" stroke:none;fill-rule:nonzero;fill:rgb(0%,0%,0%);fill-opacity:1;" d="M 247.109375 33.765625 L 247.109375 32.339844 L 245.644531 32.339844 L 245.644531 33.785156 L 246.09375 33.785156 L 245.644531 36.03125 L 246.367188 36.03125 Z M 247.109375 33.765625 "/>
<path style=" stroke:none;fill-rule:nonzero;fill:rgb(0%,0%,0%);fill-opacity:1;" d="M 2.8125 48.171875 L 5.292969 48.171875 L 5.292969 47.117188 L 2.8125 47.117188 L 2.8125 44.851562 L 1.582031 44.851562 L 1.582031 47.117188 L 0.078125 47.117188 L 0.078125 48.171875 L 1.542969 48.171875 L 1.542969 52.996094 C 1.542969 54.03125 1.777344 55.261719 3.007812 55.261719 C 4.21875 55.261719 5.039062 54.851562 5.585938 54.558594 L 5.3125 53.523438 C 4.6875 54.089844 4.023438 54.148438 3.710938 54.148438 C 2.910156 54.148438 2.8125 53.308594 2.8125 52.683594 Z M 2.8125 48.171875 "/>
<path style=" stroke:none;fill-rule:nonzero;fill:rgb(0%,0%,0%);fill-opacity:1;" d="M 13.058594 49.832031 C 13.058594 48.113281 11.828125 46.863281 10.148438 46.863281 C 9.074219 46.863281 8.273438 47.097656 7.394531 47.605469 L 7.492188 48.796875 C 8.292969 48.210938 9.113281 47.898438 10.148438 47.898438 C 10.96875 47.898438 11.691406 48.5625 11.691406 49.871094 L 11.691406 50.613281 C 10.890625 50.632812 9.816406 50.691406 8.742188 51.042969 C 7.53125 51.472656 6.828125 52.136719 6.828125 53.015625 C 6.828125 53.816406 7.296875 55.261719 8.820312 55.261719 C 9.816406 55.261719 11.066406 54.96875 11.730469 54.421875 L 11.730469 55.085938 L 13.058594 55.085938 Z M 11.691406 52.683594 C 11.691406 53.035156 11.691406 53.464844 11.105469 53.835938 C 10.617188 54.128906 10.011719 54.1875 9.738281 54.1875 C 8.78125 54.1875 8.117188 53.660156 8.117188 53.015625 C 8.117188 51.785156 10.597656 51.511719 11.691406 51.511719 Z M 11.691406 52.683594 "/>
<path style=" stroke:none;fill-rule:nonzero;fill:rgb(0%,0%,0%);fill-opacity:1;" d="M 22.042969 49.695312 C 22.042969 48.601562 21.808594 46.941406 19.640625 46.941406 C 18.644531 46.941406 17.785156 47.390625 17.101562 48.25 L 17.101562 47.039062 L 15.832031 47.039062 L 15.832031 55.085938 L 17.179688 55.085938 L 17.179688 50.613281 C 17.179688 49.519531 17.609375 48.015625 18.957031 48.015625 C 20.636719 48.015625 20.675781 49.1875 20.675781 49.8125 L 20.675781 55.085938 L 22.042969 55.085938 Z M 22.042969 49.695312 "/>
<path style=" stroke:none;fill-rule:nonzero;fill:rgb(0%,0%,0%);fill-opacity:1;" d="M 29.558594 48.015625 C 29.558594 48.015625 29.597656 48.054688 29.617188 48.09375 C 29.988281 48.054688 30.378906 47.996094 31.042969 47.996094 C 31.101562 47.996094 31.511719 47.996094 31.960938 48.035156 L 31.765625 46.941406 C 31.433594 46.941406 30.203125 46.960938 29.011719 47.546875 C 28.425781 47.039062 27.703125 46.941406 27.351562 46.941406 C 25.789062 46.941406 24.539062 48.25 24.539062 49.832031 C 24.539062 50.476562 24.734375 51.0625 25.125 51.609375 C 24.714844 52.175781 24.617188 52.722656 24.617188 53.152344 C 24.617188 53.816406 24.871094 54.265625 25.066406 54.5 C 24.148438 55.085938 23.933594 55.847656 23.933594 56.355469 C 23.933594 57.664062 25.632812 58.757812 27.820312 58.757812 C 30.007812 58.757812 31.726562 57.703125 31.726562 56.335938 C 31.726562 53.835938 28.816406 53.835938 28.09375 53.835938 L 26.570312 53.835938 C 26.316406 53.835938 25.535156 53.835938 25.535156 52.878906 C 25.535156 52.488281 25.613281 52.371094 25.730469 52.214844 C 26.023438 52.429688 26.609375 52.742188 27.332031 52.742188 C 28.875 52.742188 30.144531 51.472656 30.144531 49.832031 C 30.144531 49.1875 29.910156 48.523438 29.539062 48.035156 Z M 27.351562 51.746094 C 26.570312 51.746094 25.769531 51.21875 25.769531 49.851562 C 25.769531 48.25 26.785156 47.9375 27.332031 47.9375 C 28.132812 47.9375 28.914062 48.464844 28.914062 49.832031 C 28.914062 51.433594 27.917969 51.746094 27.351562 51.746094 Z M 28.113281 55.125 C 28.503906 55.125 30.476562 55.125 30.476562 56.355469 C 30.476562 57.175781 29.246094 57.78125 27.839844 57.78125 C 26.433594 57.78125 25.183594 57.214844 25.183594 56.335938 C 25.183594 56.296875 25.183594 55.125 26.550781 55.125 Z M 28.113281 55.125 "/>
<path style=" stroke:none;fill-rule:nonzero;fill:rgb(0%,0%,0%);fill-opacity:1;" d="M 39.601562 51.042969 C 39.601562 50.28125 39.523438 49.1875 38.957031 48.230469 C 38.214844 47 36.964844 46.863281 36.4375 46.863281 C 34.503906 46.863281 32.882812 48.71875 32.882812 51.042969 C 32.882812 53.425781 34.601562 55.261719 36.691406 55.261719 C 37.511719 55.261719 38.507812 55.027344 39.484375 54.324219 C 39.484375 54.246094 39.425781 53.679688 39.425781 53.660156 C 39.40625 53.640625 39.386719 53.230469 39.386719 53.171875 C 38.3125 54.070312 37.257812 54.1875 36.730469 54.1875 C 35.34375 54.1875 34.152344 52.957031 34.132812 51.042969 Z M 34.230469 50.085938 C 34.542969 48.875 35.382812 47.9375 36.4375 47.9375 C 37.003906 47.9375 38.234375 48.191406 38.527344 50.085938 Z M 34.230469 50.085938 "/>
<path style=" stroke:none;fill-rule:nonzero;fill:rgb(0%,0%,0%);fill-opacity:1;" d="M 47.695312 49.695312 C 47.695312 48.601562 47.460938 46.941406 45.292969 46.941406 C 44.296875 46.941406 43.4375 47.390625 42.753906 48.25 L 42.753906 47.039062 L 41.484375 47.039062 L 41.484375 55.085938 L 42.832031 55.085938 L 42.832031 50.613281 C 42.832031 49.519531 43.261719 48.015625 44.609375 48.015625 C 46.289062 48.015625 46.328125 49.1875 46.328125 49.8125 L 46.328125 55.085938 L 47.695312 55.085938 Z M 47.695312 49.695312 "/>
<path style=" stroke:none;fill-rule:nonzero;fill:rgb(0%,0%,0%);fill-opacity:1;" d="M 52.164062 48.171875 L 54.644531 48.171875 L 54.644531 47.117188 L 52.164062 47.117188 L 52.164062 44.851562 L 50.933594 44.851562 L 50.933594 47.117188 L 49.429688 47.117188 L 49.429688 48.171875 L 50.894531 48.171875 L 50.894531 52.996094 C 50.894531 54.03125 51.128906 55.261719 52.359375 55.261719 C 53.570312 55.261719 54.390625 54.851562 54.9375 54.558594 L 54.664062 53.523438 C 54.039062 54.089844 53.375 54.148438 53.0625 54.148438 C 52.261719 54.148438 52.164062 53.308594 52.164062 52.683594 Z M 52.164062 48.171875 "/>
<path style=" stroke:none;fill-rule:nonzero;fill:rgb(0%,0%,0%);fill-opacity:1;" d="M 69.46875 51.140625 C 69.46875 48.71875 67.691406 46.863281 65.640625 46.863281 C 63.53125 46.863281 61.792969 48.757812 61.792969 51.140625 C 61.792969 53.484375 63.570312 55.261719 65.621094 55.261719 C 67.730469 55.261719 69.46875 53.445312 69.46875 51.140625 Z M 65.640625 54.148438 C 64.351562 54.148438 63.140625 53.074219 63.140625 50.964844 C 63.140625 48.796875 64.488281 47.9375 65.621094 47.9375 C 66.851562 47.9375 68.121094 48.855469 68.121094 50.964844 C 68.121094 53.171875 66.832031 54.148438 65.640625 54.148438 Z M 65.640625 54.148438 "/>
<path style=" stroke:none;fill-rule:nonzero;fill:rgb(0%,0%,0%);fill-opacity:1;" d="M 72.378906 51.160156 C 72.378906 49.34375 73.726562 48.171875 75.347656 48.152344 L 75.347656 46.941406 C 73.707031 46.960938 72.769531 47.917969 72.28125 48.621094 L 72.28125 47.039062 L 71.050781 47.039062 L 71.050781 55.085938 L 72.378906 55.085938 Z M 72.378906 51.160156 "/>
<path style=" stroke:none;fill-rule:nonzero;fill:rgb(0%,0%,0%);fill-opacity:1;" d="M 89.09375 49.695312 C 89.09375 48.601562 88.859375 46.941406 86.691406 46.941406 C 85.695312 46.941406 84.835938 47.390625 84.152344 48.25 L 84.152344 47.039062 L 82.882812 47.039062 L 82.882812 55.085938 L 84.230469 55.085938 L 84.230469 50.613281 C 84.230469 49.519531 84.660156 48.015625 86.007812 48.015625 C 87.6875 48.015625 87.726562 49.1875 87.726562 49.8125 L 87.726562 55.085938 L 89.09375 55.085938 Z M 89.09375 49.695312 "/>
<path style=" stroke:none;fill-rule:nonzero;fill:rgb(0%,0%,0%);fill-opacity:1;" d="M 98.71875 51.140625 C 98.71875 48.71875 96.941406 46.863281 94.890625 46.863281 C 92.78125 46.863281 91.042969 48.757812 91.042969 51.140625 C 91.042969 53.484375 92.820312 55.261719 94.871094 55.261719 C 96.980469 55.261719 98.71875 53.445312 98.71875 51.140625 Z M 94.890625 54.148438 C 93.601562 54.148438 92.390625 53.074219 92.390625 50.964844 C 92.390625 48.796875 93.738281 47.9375 94.871094 47.9375 C 96.101562 47.9375 97.371094 48.855469 97.371094 50.964844 C 97.371094 53.171875 96.082031 54.148438 94.890625 54.148438 Z M 94.890625 54.148438 "/>
<path style=" stroke:none;fill-rule:nonzero;fill:rgb(0%,0%,0%);fill-opacity:1;" d="M 101.628906 51.160156 C 101.628906 49.34375 102.976562 48.171875 104.597656 48.152344 L 104.597656 46.941406 C 102.957031 46.960938 102.019531 47.917969 101.53125 48.621094 L 101.53125 47.039062 L 100.300781 47.039062 L 100.300781 55.085938 L 101.628906 55.085938 Z M 101.628906 51.160156 "/>
<path style=" stroke:none;fill-rule:nonzero;fill:rgb(0%,0%,0%);fill-opacity:1;" d="M 117.394531 49.695312 C 117.394531 48.445312 117.0625 46.941406 114.972656 46.941406 C 113.449219 46.941406 112.609375 47.996094 112.335938 48.40625 C 112.003906 47.273438 111.027344 46.941406 110.089844 46.941406 C 108.625 46.941406 107.84375 47.898438 107.550781 48.269531 L 107.550781 47.039062 L 106.28125 47.039062 L 106.28125 55.085938 L 107.628906 55.085938 L 107.628906 50.613281 C 107.628906 49.441406 108.097656 48.015625 109.40625 48.015625 C 111.066406 48.015625 111.144531 49.148438 111.144531 49.8125 L 111.144531 55.085938 L 112.511719 55.085938 L 112.511719 50.613281 C 112.511719 49.441406 112.980469 48.015625 114.289062 48.015625 C 115.929688 48.015625 116.027344 49.148438 116.027344 49.8125 L 116.027344 55.085938 L 117.394531 55.085938 Z M 117.394531 49.695312 "/>
<path style=" stroke:none;fill-rule:nonzero;fill:rgb(0%,0%,0%);fill-opacity:1;" d="M 125.855469 49.832031 C 125.855469 48.113281 124.625 46.863281 122.945312 46.863281 C 121.871094 46.863281 121.070312 47.097656 120.191406 47.605469 L 120.289062 48.796875 C 121.089844 48.210938 121.910156 47.898438 122.945312 47.898438 C 123.765625 47.898438 124.488281 48.5625 124.488281 49.871094 L 124.488281 50.613281 C 123.6875 50.632812 122.613281 50.691406 121.539062 51.042969 C 120.328125 51.472656 119.625 52.136719 119.625 53.015625 C 119.625 53.816406 120.09375 55.261719 121.617188 55.261719 C 122.613281 55.261719 123.863281 54.96875 124.527344 54.421875 L 124.527344 55.085938 L 125.855469 55.085938 Z M 124.488281 52.683594 C 124.488281 53.035156 124.488281 53.464844 123.902344 53.835938 C 123.414062 54.128906 122.808594 54.1875 122.535156 54.1875 C 121.578125 54.1875 120.914062 53.660156 120.914062 53.015625 C 120.914062 51.785156 123.394531 51.511719 124.488281 51.511719 Z M 124.488281 52.683594 "/>
<path style=" stroke:none;fill-rule:nonzero;fill:rgb(0%,0%,0%);fill-opacity:1;" d="M 129.980469 42.644531 L 128.652344 42.644531 L 128.652344 55.085938 L 129.980469 55.085938 Z M 129.980469 42.644531 "/>
<path style=" stroke:none;fill-rule:nonzero;fill:rgb(0%,0%,0%);fill-opacity:1;" d="M 145.21875 51.140625 C 145.21875 48.71875 143.441406 46.863281 141.390625 46.863281 C 139.28125 46.863281 137.542969 48.757812 137.542969 51.140625 C 137.542969 53.484375 139.320312 55.261719 141.371094 55.261719 C 143.480469 55.261719 145.21875 53.445312 145.21875 51.140625 Z M 141.390625 54.148438 C 140.101562 54.148438 138.890625 53.074219 138.890625 50.964844 C 138.890625 48.796875 140.238281 47.9375 141.371094 47.9375 C 142.601562 47.9375 143.871094 48.855469 143.871094 50.964844 C 143.871094 53.171875 142.582031 54.148438 141.390625 54.148438 Z M 141.390625 54.148438 "/>
<path style=" stroke:none;fill-rule:nonzero;fill:rgb(0%,0%,0%);fill-opacity:1;" d="M 153.445312 49.695312 C 153.445312 48.601562 153.210938 46.941406 151.042969 46.941406 C 150.046875 46.941406 149.1875 47.390625 148.503906 48.25 L 148.503906 47.039062 L 147.234375 47.039062 L 147.234375 55.085938 L 148.582031 55.085938 L 148.582031 50.613281 C 148.582031 49.519531 149.011719 48.015625 150.359375 48.015625 C 152.039062 48.015625 152.078125 49.1875 152.078125 49.8125 L 152.078125 55.085938 L 153.445312 55.085938 Z M 153.445312 49.695312 "/>
<path style=" stroke:none;fill-rule:nonzero;fill:rgb(0%,0%,0%);fill-opacity:1;" d="M 163.613281 48.171875 L 166.09375 48.171875 L 166.09375 47.117188 L 163.613281 47.117188 L 163.613281 44.851562 L 162.382812 44.851562 L 162.382812 47.117188 L 160.878906 47.117188 L 160.878906 48.171875 L 162.34375 48.171875 L 162.34375 52.996094 C 162.34375 54.03125 162.578125 55.261719 163.808594 55.261719 C 165.019531 55.261719 165.839844 54.851562 166.386719 54.558594 L 166.113281 53.523438 C 165.488281 54.089844 164.824219 54.148438 164.511719 54.148438 C 163.710938 54.148438 163.613281 53.308594 163.613281 52.683594 Z M 163.613281 48.171875 "/>
<path style=" stroke:none;fill-rule:nonzero;fill:rgb(0%,0%,0%);fill-opacity:1;" d="M 174.441406 49.695312 C 174.441406 48.601562 174.207031 46.941406 172.039062 46.941406 C 170.808594 46.941406 169.988281 47.644531 169.558594 48.191406 L 169.558594 42.644531 L 168.230469 42.644531 L 168.230469 55.085938 L 169.578125 55.085938 L 169.578125 50.613281 C 169.578125 49.519531 170.007812 48.015625 171.355469 48.015625 C 173.035156 48.015625 173.074219 49.1875 173.074219 49.8125 L 173.074219 55.085938 L 174.441406 55.085938 Z M 174.441406 49.695312 "/>
<path style=" stroke:none;fill-rule:nonzero;fill:rgb(0%,0%,0%);fill-opacity:1;" d="M 183.148438 51.042969 C 183.148438 50.28125 183.070312 49.1875 182.503906 48.230469 C 181.761719 47 180.511719 46.863281 179.984375 46.863281 C 178.050781 46.863281 176.429688 48.71875 176.429688 51.042969 C 176.429688 53.425781 178.148438 55.261719 180.238281 55.261719 C 181.058594 55.261719 182.054688 55.027344 183.03125 54.324219 C 183.03125 54.246094 182.972656 53.679688 182.972656 53.660156 C 182.953125 53.640625 182.933594 53.230469 182.933594 53.171875 C 181.859375 54.070312 180.804688 54.1875 180.277344 54.1875 C 178.890625 54.1875 177.699219 52.957031 177.679688 51.042969 Z M 177.777344 50.085938 C 178.089844 48.875 178.929688 47.9375 179.984375 47.9375 C 180.550781 47.9375 181.78125 48.191406 182.074219 50.085938 Z M 177.777344 50.085938 "/>
<path style=" stroke:none;fill-rule:nonzero;fill:rgb(0%,0%,0%);fill-opacity:1;" d="M 196.832031 53.152344 C 196.011719 53.816406 195.09375 54.148438 194.097656 54.148438 C 192.59375 54.148438 191.636719 52.820312 191.636719 51.082031 C 191.636719 49.597656 192.359375 47.976562 194.136719 47.976562 C 195.347656 47.976562 195.855469 48.25 196.617188 48.777344 L 196.832031 47.605469 C 195.796875 47 195.210938 46.863281 194.136719 46.863281 C 191.675781 46.863281 190.269531 49.050781 190.269531 51.082031 C 190.269531 53.386719 191.929688 55.261719 194.078125 55.261719 C 194.957031 55.261719 195.953125 55.046875 196.949219 54.324219 C 196.949219 54.285156 196.890625 53.71875 196.871094 53.660156 Z M 196.832031 53.152344 "/>
<path style=" stroke:none;fill-rule:nonzero;fill:rgb(0%,0%,0%);fill-opacity:1;" d="M 205.042969 47.117188 L 203.675781 47.117188 L 203.675781 52.253906 C 203.675781 53.621094 202.738281 54.285156 201.566406 54.285156 C 200.316406 54.285156 200.179688 53.816406 200.179688 53.015625 L 200.179688 47.117188 L 198.832031 47.117188 L 198.832031 53.09375 C 198.832031 54.382812 199.242188 55.261719 200.707031 55.261719 C 201.214844 55.261719 202.621094 55.183594 203.714844 54.1875 L 203.714844 55.085938 L 205.042969 55.085938 Z M 205.042969 47.117188 "/>
<path style=" stroke:none;fill-rule:nonzero;fill:rgb(0%,0%,0%);fill-opacity:1;" d="M 209.179688 51.160156 C 209.179688 49.34375 210.527344 48.171875 212.148438 48.152344 L 212.148438 46.941406 C 210.507812 46.960938 209.570312 47.917969 209.082031 48.621094 L 209.082031 47.039062 L 207.851562 47.039062 L 207.851562 55.085938 L 209.179688 55.085938 Z M 209.179688 51.160156 "/>
<path style=" stroke:none;fill-rule:nonzero;fill:rgb(0%,0%,0%);fill-opacity:1;" d="M 220.199219 47.117188 L 218.871094 47.117188 L 217.5625 50.691406 C 217.25 51.550781 216.585938 53.445312 216.488281 54.109375 L 216.46875 54.109375 C 216.371094 53.484375 216.019531 52.507812 215.746094 51.726562 L 214.085938 47.117188 L 212.699219 47.117188 L 215.648438 55.085938 L 217.25 55.085938 Z M 220.199219 47.117188 "/>
<path style=" stroke:none;fill-rule:nonzero;fill:rgb(0%,0%,0%);fill-opacity:1;" d="M 227.851562 51.042969 C 227.851562 50.28125 227.773438 49.1875 227.207031 48.230469 C 226.464844 47 225.214844 46.863281 224.6875 46.863281 C 222.753906 46.863281 221.132812 48.71875 221.132812 51.042969 C 221.132812 53.425781 222.851562 55.261719 224.941406 55.261719 C 225.761719 55.261719 226.757812 55.027344 227.734375 54.324219 C 227.734375 54.246094 227.675781 53.679688 227.675781 53.660156 C 227.65625 53.640625 227.636719 53.230469 227.636719 53.171875 C 226.5625 54.070312 225.507812 54.1875 224.980469 54.1875 C 223.59375 54.1875 222.402344 52.957031 222.382812 51.042969 Z M 222.480469 50.085938 C 222.792969 48.875 223.632812 47.9375 224.6875 47.9375 C 225.253906 47.9375 226.484375 48.191406 226.777344 50.085938 Z M 222.480469 50.085938 "/>
</g>
</svg>
