<?xml version="1.0" encoding="UTF-8"?>
<svg xmlns="http://www.w3.org/2000/svg" xmlns:xlink="http://www.w3.org/1999/xlink" width="310.50657pt" height="58.543501pt" viewBox="0 0 310.50657 58.543501" version="1.1">
<g id="surface1">
<path style=" stroke:none;fill-rule:nonzero;fill:rgb(0%,0%,100%);fill-opacity:1;" d="M 8.417969 6.699219 L 8.417969 5.625 L 2.617188 5.625 L 2.617188 1.328125 L 5.039062 1.328125 C 5.253906 1.328125 5.46875 1.347656 5.683594 1.347656 L 8.925781 1.347656 L 8.925781 0.214844 L 1.074219 0.214844 L 1.074219 12.617188 L 9.160156 12.617188 L 9.160156 11.40625 L 6.796875 11.40625 C 6.582031 11.40625 6.367188 11.40625 6.152344 11.40625 L 2.617188 11.40625 L 2.617188 6.699219 Z M 8.417969 6.699219 "/>
<path style=" stroke:none;fill-rule:nonzero;fill:rgb(0%,0%,100%);fill-opacity:1;" d="M 17.53125 4.472656 L 16.203125 4.472656 L 16.203125 5.625 C 15.734375 5.078125 14.953125 4.472656 13.859375 4.472656 C 12.101562 4.472656 10.578125 6.25 10.578125 8.652344 C 10.578125 10.9375 11.90625 12.792969 13.585938 12.792969 C 14.972656 12.792969 15.929688 11.972656 16.183594 11.699219 L 16.183594 16.09375 L 17.53125 16.09375 Z M 16.203125 10.117188 C 16.203125 10.46875 16.203125 10.488281 16.007812 10.761719 C 15.519531 11.484375 14.875 11.71875 14.347656 11.71875 C 13 11.71875 11.945312 10.3125 11.945312 8.652344 C 11.945312 6.816406 13.234375 5.585938 14.503906 5.585938 C 15.65625 5.585938 16.203125 6.757812 16.203125 7.480469 Z M 16.203125 10.117188 "/>
<path style=" stroke:none;fill-rule:nonzero;fill:rgb(0%,0%,100%);fill-opacity:1;" d="M 26.550781 4.648438 L 25.183594 4.648438 L 25.183594 9.785156 C 25.183594 11.152344 24.246094 11.816406 23.074219 11.816406 C 21.824219 11.816406 21.6875 11.347656 21.6875 10.546875 L 21.6875 4.648438 L 20.339844 4.648438 L 20.339844 10.625 C 20.339844 11.914062 20.75 12.792969 22.214844 12.792969 C 22.722656 12.792969 24.128906 12.714844 25.222656 11.71875 L 25.222656 12.617188 L 26.550781 12.617188 Z M 26.550781 4.648438 "/>
<path style=" stroke:none;fill-rule:nonzero;fill:rgb(0%,0%,100%);fill-opacity:1;" d="M 34.964844 7.363281 C 34.964844 5.644531 33.734375 4.394531 32.054688 4.394531 C 30.980469 4.394531 30.179688 4.628906 29.300781 5.136719 L 29.398438 6.328125 C 30.199219 5.742188 31.019531 5.429688 32.054688 5.429688 C 32.875 5.429688 33.597656 6.09375 33.597656 7.402344 L 33.597656 8.144531 C 32.796875 8.164062 31.722656 8.222656 30.648438 8.574219 C 29.4375 9.003906 28.734375 9.667969 28.734375 10.546875 C 28.734375 11.347656 29.203125 12.792969 30.726562 12.792969 C 31.722656 12.792969 32.972656 12.5 33.636719 11.953125 L 33.636719 12.617188 L 34.964844 12.617188 Z M 33.597656 10.214844 C 33.597656 10.566406 33.597656 10.996094 33.011719 11.367188 C 32.523438 11.660156 31.917969 11.71875 31.644531 11.71875 C 30.6875 11.71875 30.023438 11.191406 30.023438 10.546875 C 30.023438 9.316406 32.503906 9.042969 33.597656 9.042969 Z M 33.597656 10.214844 "/>
<path style=" stroke:none;fill-rule:nonzero;fill:rgb(0%,0%,100%);fill-opacity:1;" d="M 39.417969 5.703125 L 41.898438 5.703125 L 41.898438 4.648438 L 39.417969 4.648438 L 39.417969 2.382812 L 38.1875 2.382812 L 38.1875 4.648438 L 36.683594 4.648438 L 36.683594 5.703125 L 38.148438 5.703125 L 38.148438 10.527344 C 38.148438 11.5625 38.382812 12.792969 39.613281 12.792969 C 40.824219 12.792969 41.644531 12.382812 42.191406 12.089844 L 41.917969 11.054688 C 41.292969 11.621094 40.628906 11.679688 40.316406 11.679688 C 39.515625 11.679688 39.417969 10.839844 39.417969 10.214844 Z M 39.417969 5.703125 "/>
<path style=" stroke:none;fill-rule:nonzero;fill:rgb(0%,0%,100%);fill-opacity:1;" d="M 45.484375 0.449219 L 43.941406 0.449219 L 43.941406 1.992188 L 45.484375 1.992188 Z M 45.386719 4.648438 L 44.058594 4.648438 L 44.058594 12.617188 L 45.386719 12.617188 Z M 45.386719 4.648438 "/>
<path style=" stroke:none;fill-rule:nonzero;fill:rgb(0%,0%,100%);fill-opacity:1;" d="M 55.074219 8.671875 C 55.074219 6.25 53.296875 4.394531 51.246094 4.394531 C 49.136719 4.394531 47.398438 6.289062 47.398438 8.671875 C 47.398438 11.015625 49.175781 12.792969 51.226562 12.792969 C 53.335938 12.792969 55.074219 10.976562 55.074219 8.671875 Z M 51.246094 11.679688 C 49.957031 11.679688 48.746094 10.605469 48.746094 8.496094 C 48.746094 6.328125 50.09375 5.46875 51.226562 5.46875 C 52.457031 5.46875 53.726562 6.386719 53.726562 8.496094 C 53.726562 10.703125 52.4375 11.679688 51.246094 11.679688 Z M 51.246094 11.679688 "/>
<path style=" stroke:none;fill-rule:nonzero;fill:rgb(0%,0%,100%);fill-opacity:1;" d="M 63.300781 7.226562 C 63.300781 6.132812 63.066406 4.472656 60.898438 4.472656 C 59.902344 4.472656 59.042969 4.921875 58.359375 5.78125 L 58.359375 4.570312 L 57.089844 4.570312 L 57.089844 12.617188 L 58.4375 12.617188 L 58.4375 8.144531 C 58.4375 7.050781 58.867188 5.546875 60.214844 5.546875 C 61.894531 5.546875 61.933594 6.71875 61.933594 7.34375 L 61.933594 12.617188 L 63.300781 12.617188 Z M 63.300781 7.226562 "/>
<path style=" stroke:none;fill-rule:nonzero;fill:rgb(0%,0%,100%);fill-opacity:1;" d="M 78.777344 8.671875 C 78.777344 6.25 77 4.394531 74.949219 4.394531 C 72.839844 4.394531 71.101562 6.289062 71.101562 8.671875 C 71.101562 11.015625 72.878906 12.792969 74.929688 12.792969 C 77.039062 12.792969 78.777344 10.976562 78.777344 8.671875 Z M 74.949219 11.679688 C 73.660156 11.679688 72.449219 10.605469 72.449219 8.496094 C 72.449219 6.328125 73.796875 5.46875 74.929688 5.46875 C 76.160156 5.46875 77.429688 6.386719 77.429688 8.496094 C 77.429688 10.703125 76.140625 11.679688 74.949219 11.679688 Z M 74.949219 11.679688 "/>
<path style=" stroke:none;fill-rule:nonzero;fill:rgb(0%,0%,100%);fill-opacity:1;" d="M 82.507812 5.703125 L 84.421875 5.703125 L 84.421875 4.648438 L 82.46875 4.648438 L 82.46875 2.5 C 82.46875 1.289062 83.484375 1.074219 84.089844 1.074219 C 84.714844 1.074219 85.261719 1.269531 85.476562 1.347656 L 85.476562 0.175781 C 85.359375 0.136719 84.753906 0 84.109375 0 C 82.390625 0 81.179688 1.308594 81.179688 3.046875 L 81.179688 4.648438 L 79.871094 4.648438 L 79.871094 5.703125 L 81.179688 5.703125 L 81.179688 12.617188 L 82.507812 12.617188 Z M 82.507812 5.703125 "/>
<path style=" stroke:none;fill-rule:nonzero;fill:rgb(0%,0%,100%);fill-opacity:1;" d="M 97.515625 7.363281 C 97.515625 5.644531 96.285156 4.394531 94.605469 4.394531 C 93.53125 4.394531 92.730469 4.628906 91.851562 5.136719 L 91.949219 6.328125 C 92.75 5.742188 93.570312 5.429688 94.605469 5.429688 C 95.425781 5.429688 96.148438 6.09375 96.148438 7.402344 L 96.148438 8.144531 C 95.347656 8.164062 94.273438 8.222656 93.199219 8.574219 C 91.988281 9.003906 91.285156 9.667969 91.285156 10.546875 C 91.285156 11.347656 91.753906 12.792969 93.277344 12.792969 C 94.273438 12.792969 95.523438 12.5 96.1875 11.953125 L 96.1875 12.617188 L 97.515625 12.617188 Z M 96.148438 10.214844 C 96.148438 10.566406 96.148438 10.996094 95.5625 11.367188 C 95.074219 11.660156 94.46875 11.71875 94.195312 11.71875 C 93.238281 11.71875 92.574219 11.191406 92.574219 10.546875 C 92.574219 9.316406 95.054688 9.042969 96.148438 9.042969 Z M 96.148438 10.214844 "/>
<path style=" stroke:none;fill-rule:nonzero;fill:rgb(0%,0%,100%);fill-opacity:1;" d="M 107.488281 0.175781 L 106.160156 0.175781 L 106.160156 12.617188 L 107.488281 12.617188 Z M 107.488281 0.175781 "/>
<path style=" stroke:none;fill-rule:nonzero;fill:rgb(0%,0%,100%);fill-opacity:1;" d="M 111.785156 0.449219 L 110.242188 0.449219 L 110.242188 1.992188 L 111.785156 1.992188 Z M 111.6875 4.648438 L 110.359375 4.648438 L 110.359375 12.617188 L 111.6875 12.617188 Z M 111.6875 4.648438 "/>
<path style=" stroke:none;fill-rule:nonzero;fill:rgb(0%,0%,100%);fill-opacity:1;" d="M 120.75 7.226562 C 120.75 6.132812 120.515625 4.472656 118.347656 4.472656 C 117.351562 4.472656 116.492188 4.921875 115.808594 5.78125 L 115.808594 4.570312 L 114.539062 4.570312 L 114.539062 12.617188 L 115.886719 12.617188 L 115.886719 8.144531 C 115.886719 7.050781 116.316406 5.546875 117.664062 5.546875 C 119.34375 5.546875 119.382812 6.71875 119.382812 7.34375 L 119.382812 12.617188 L 120.75 12.617188 Z M 120.75 7.226562 "/>
<path style=" stroke:none;fill-rule:nonzero;fill:rgb(0%,0%,100%);fill-opacity:1;" d="M 129.457031 8.574219 C 129.457031 7.8125 129.378906 6.71875 128.8125 5.761719 C 128.070312 4.53125 126.820312 4.394531 126.292969 4.394531 C 124.359375 4.394531 122.738281 6.25 122.738281 8.574219 C 122.738281 10.957031 124.457031 12.792969 126.546875 12.792969 C 127.367188 12.792969 128.363281 12.558594 129.339844 11.855469 C 129.339844 11.777344 129.28125 11.210938 129.28125 11.191406 C 129.261719 11.171875 129.242188 10.761719 129.242188 10.703125 C 128.167969 11.601562 127.113281 11.71875 126.585938 11.71875 C 125.199219 11.71875 124.007812 10.488281 123.988281 8.574219 Z M 124.085938 7.617188 C 124.398438 6.40625 125.238281 5.46875 126.292969 5.46875 C 126.859375 5.46875 128.089844 5.722656 128.382812 7.617188 Z M 124.085938 7.617188 "/>
<path style=" stroke:none;fill-rule:nonzero;fill:rgb(0%,0%,100%);fill-opacity:1;" d="M 138.484375 0.449219 L 136.941406 0.449219 L 136.941406 1.992188 L 138.484375 1.992188 Z M 138.386719 4.648438 L 137.058594 4.648438 L 137.058594 12.617188 L 138.386719 12.617188 Z M 138.386719 4.648438 "/>
<path style=" stroke:none;fill-rule:nonzero;fill:rgb(0%,0%,100%);fill-opacity:1;" d="M 147.449219 7.226562 C 147.449219 6.132812 147.214844 4.472656 145.046875 4.472656 C 144.050781 4.472656 143.191406 4.921875 142.507812 5.78125 L 142.507812 4.570312 L 141.238281 4.570312 L 141.238281 12.617188 L 142.585938 12.617188 L 142.585938 8.144531 C 142.585938 7.050781 143.015625 5.546875 144.363281 5.546875 C 146.042969 5.546875 146.082031 6.71875 146.082031 7.34375 L 146.082031 12.617188 L 147.449219 12.617188 Z M 147.449219 7.226562 "/>
<path style=" stroke:none;fill-rule:nonzero;fill:rgb(0%,0%,100%);fill-opacity:1;" d="M 163.199219 5.292969 C 162.632812 5.410156 162.417969 5.839844 162.417969 6.171875 C 162.417969 6.601562 162.75 6.757812 163.003906 6.757812 C 163.550781 6.757812 163.921875 6.289062 163.921875 5.800781 C 163.921875 5.058594 163.0625 4.707031 162.300781 4.707031 C 161.207031 4.707031 160.601562 5.78125 160.445312 6.132812 C 160.035156 4.785156 158.921875 4.707031 158.589844 4.707031 C 156.773438 4.707031 155.796875 7.050781 155.796875 7.460938 C 155.796875 7.519531 155.875 7.617188 155.992188 7.617188 C 156.128906 7.617188 156.167969 7.5 156.207031 7.441406 C 156.8125 5.449219 158.023438 5.078125 158.53125 5.078125 C 159.351562 5.078125 159.507812 5.820312 159.507812 6.25 C 159.507812 6.640625 159.410156 7.050781 159.175781 7.910156 L 158.570312 10.371094 C 158.316406 11.445312 157.789062 12.441406 156.832031 12.441406 C 156.753906 12.441406 156.304688 12.441406 155.914062 12.207031 C 156.558594 12.070312 156.714844 11.542969 156.714844 11.328125 C 156.714844 10.976562 156.441406 10.761719 156.109375 10.761719 C 155.679688 10.761719 155.210938 11.132812 155.210938 11.699219 C 155.210938 12.460938 156.050781 12.792969 156.8125 12.792969 C 157.671875 12.792969 158.296875 12.109375 158.667969 11.386719 C 158.960938 12.441406 159.839844 12.792969 160.503906 12.792969 C 162.339844 12.792969 163.316406 10.449219 163.316406 10.058594 C 163.316406 9.960938 163.238281 9.882812 163.121094 9.882812 C 162.964844 9.882812 162.945312 9.980469 162.90625 10.117188 C 162.417969 11.699219 161.363281 12.441406 160.5625 12.441406 C 159.9375 12.441406 159.605469 11.972656 159.605469 11.230469 C 159.605469 10.839844 159.664062 10.546875 159.957031 9.375 L 160.582031 6.933594 C 160.855469 5.859375 161.460938 5.078125 162.28125 5.078125 C 162.320312 5.078125 162.828125 5.078125 163.199219 5.292969 Z M 163.199219 5.292969 "/>
<path style=" stroke:none;fill-rule:nonzero;fill:rgb(0%,0%,100%);fill-opacity:1;" d="M 180.46875 8.496094 C 180.78125 8.496094 181.09375 8.496094 181.09375 8.144531 C 181.09375 7.773438 180.78125 7.773438 180.46875 7.773438 L 170.761719 7.773438 C 170.46875 7.773438 170.136719 7.773438 170.136719 8.144531 C 170.136719 8.496094 170.46875 8.496094 170.761719 8.496094 Z M 180.46875 8.496094 "/>
<path style=" stroke:none;fill-rule:nonzero;fill:rgb(0%,0%,100%);fill-opacity:1;" d="M 191.210938 14.628906 C 190.742188 15.3125 190.039062 15.917969 189.160156 15.917969 C 188.945312 15.917969 188.085938 15.878906 187.8125 15.058594 C 187.871094 15.078125 187.949219 15.078125 187.988281 15.078125 C 188.535156 15.078125 188.886719 14.609375 188.886719 14.199219 C 188.886719 13.789062 188.554688 13.632812 188.28125 13.632812 C 187.988281 13.632812 187.363281 13.847656 187.363281 14.726562 C 187.363281 15.644531 188.144531 16.269531 189.160156 16.269531 C 190.957031 16.269531 192.753906 14.628906 193.261719 12.636719 L 195.019531 5.644531 C 195.039062 5.546875 195.078125 5.449219 195.078125 5.332031 C 195.078125 5.078125 194.863281 4.882812 194.589844 4.882812 C 194.433594 4.882812 194.042969 4.960938 193.90625 5.507812 L 192.578125 10.761719 C 192.5 11.09375 192.5 11.132812 192.34375 11.328125 C 191.992188 11.835938 191.40625 12.441406 190.546875 12.441406 C 189.53125 12.441406 189.453125 11.445312 189.453125 10.976562 C 189.453125 9.941406 189.921875 8.574219 190.410156 7.265625 C 190.605469 6.757812 190.722656 6.503906 190.722656 6.152344 C 190.722656 5.390625 190.175781 4.707031 189.296875 4.707031 C 187.65625 4.707031 186.992188 7.304688 186.992188 7.460938 C 186.992188 7.519531 187.050781 7.617188 187.1875 7.617188 C 187.34375 7.617188 187.363281 7.539062 187.441406 7.285156 C 187.871094 5.78125 188.554688 5.078125 189.238281 5.078125 C 189.414062 5.078125 189.707031 5.078125 189.707031 5.664062 C 189.707031 6.132812 189.511719 6.640625 189.238281 7.324219 C 188.359375 9.667969 188.359375 10.273438 188.359375 10.703125 C 188.359375 12.402344 189.589844 12.792969 190.488281 12.792969 C 190.996094 12.792969 191.640625 12.636719 192.285156 11.972656 L 192.304688 11.992188 C 192.03125 13.046875 191.855469 13.75 191.210938 14.628906 Z M 191.210938 14.628906 "/>
<path style=" stroke:none;fill-rule:nonzero;fill:rgb(0%,0%,100%);fill-opacity:1;" d="M 204.40625 11.816406 C 205.03125 12.363281 205.773438 12.792969 206.75 12.792969 C 208.46875 12.792969 210.011719 11.054688 210.011719 8.613281 C 210.011719 6.445312 208.859375 4.472656 207.199219 4.472656 C 206.457031 4.472656 205.304688 4.707031 204.386719 5.507812 L 204.386719 4.648438 L 203.058594 4.648438 L 203.058594 16.09375 L 204.40625 16.09375 Z M 204.40625 6.601562 C 204.816406 5.976562 205.5 5.585938 206.242188 5.585938 C 207.570312 5.585938 208.644531 6.933594 208.644531 8.632812 C 208.644531 10.429688 207.414062 11.71875 206.085938 11.71875 C 205.578125 11.71875 205.246094 11.542969 204.914062 11.289062 C 204.464844 10.898438 204.40625 10.566406 204.40625 10.292969 Z M 204.40625 6.601562 "/>
<path style=" stroke:none;fill-rule:nonzero;fill:rgb(0%,0%,100%);fill-opacity:1;" d="M 213.386719 0.175781 L 212.058594 0.175781 L 212.058594 12.617188 L 213.386719 12.617188 Z M 213.386719 0.175781 "/>
<path style=" stroke:none;fill-rule:nonzero;fill:rgb(0%,0%,100%);fill-opacity:1;" d="M 221.863281 7.363281 C 221.863281 5.644531 220.632812 4.394531 218.953125 4.394531 C 217.878906 4.394531 217.078125 4.628906 216.199219 5.136719 L 216.296875 6.328125 C 217.097656 5.742188 217.917969 5.429688 218.953125 5.429688 C 219.773438 5.429688 220.496094 6.09375 220.496094 7.402344 L 220.496094 8.144531 C 219.695312 8.164062 218.621094 8.222656 217.546875 8.574219 C 216.335938 9.003906 215.632812 9.667969 215.632812 10.546875 C 215.632812 11.347656 216.101562 12.792969 217.625 12.792969 C 218.621094 12.792969 219.871094 12.5 220.535156 11.953125 L 220.535156 12.617188 L 221.863281 12.617188 Z M 220.496094 10.214844 C 220.496094 10.566406 220.496094 10.996094 219.910156 11.367188 C 219.421875 11.660156 218.816406 11.71875 218.542969 11.71875 C 217.585938 11.71875 216.921875 11.191406 216.921875 10.546875 C 216.921875 9.316406 219.402344 9.042969 220.496094 9.042969 Z M 220.496094 10.214844 "/>
<path style=" stroke:none;fill-rule:nonzero;fill:rgb(0%,0%,100%);fill-opacity:1;" d="M 230.851562 7.226562 C 230.851562 6.132812 230.617188 4.472656 228.449219 4.472656 C 227.453125 4.472656 226.59375 4.921875 225.910156 5.78125 L 225.910156 4.570312 L 224.640625 4.570312 L 224.640625 12.617188 L 225.988281 12.617188 L 225.988281 8.144531 C 225.988281 7.050781 226.417969 5.546875 227.765625 5.546875 C 229.445312 5.546875 229.484375 6.71875 229.484375 7.34375 L 229.484375 12.617188 L 230.851562 12.617188 Z M 230.851562 7.226562 "/>
<path style=" stroke:none;fill-rule:nonzero;fill:rgb(0%,0%,100%);fill-opacity:1;" d="M 239.558594 8.574219 C 239.558594 7.8125 239.480469 6.71875 238.914062 5.761719 C 238.171875 4.53125 236.921875 4.394531 236.394531 4.394531 C 234.460938 4.394531 232.839844 6.25 232.839844 8.574219 C 232.839844 10.957031 234.558594 12.792969 236.648438 12.792969 C 237.46875 12.792969 238.464844 12.558594 239.441406 11.855469 C 239.441406 11.777344 239.382812 11.210938 239.382812 11.191406 C 239.363281 11.171875 239.34375 10.761719 239.34375 10.703125 C 238.269531 11.601562 237.214844 11.71875 236.6875 11.71875 C 235.300781 11.71875 234.109375 10.488281 234.089844 8.574219 Z M 234.1875 7.617188 C 234.5 6.40625 235.339844 5.46875 236.394531 5.46875 C 236.960938 5.46875 238.191406 5.722656 238.484375 7.617188 Z M 234.1875 7.617188 "/>
<path style=" stroke:none;fill-rule:nonzero;fill:rgb(0%,0%,0%);fill-opacity:1;" d="M 10.117188 21.324219 L 8.574219 21.324219 L 8.574219 26.753906 L 2.617188 26.753906 L 2.617188 21.324219 L 1.074219 21.324219 L 1.074219 33.765625 L 2.617188 33.765625 L 2.617188 27.828125 L 8.574219 27.828125 L 8.574219 33.765625 L 10.117188 33.765625 Z M 10.117188 21.324219 "/>
<path style=" stroke:none;fill-rule:nonzero;fill:rgb(0%,0%,0%);fill-opacity:1;" d="M 19.976562 29.820312 C 19.976562 27.398438 18.199219 25.542969 16.148438 25.542969 C 14.039062 25.542969 12.300781 27.4375 12.300781 29.820312 C 12.300781 32.164062 14.078125 33.941406 16.128906 33.941406 C 18.238281 33.941406 19.976562 32.125 19.976562 29.820312 Z M 16.148438 32.828125 C 14.859375 32.828125 13.648438 31.753906 13.648438 29.644531 C 13.648438 27.476562 14.996094 26.617188 16.128906 26.617188 C 17.359375 26.617188 18.628906 27.535156 18.628906 29.644531 C 18.628906 31.851562 17.339844 32.828125 16.148438 32.828125 Z M 16.148438 32.828125 "/>
<path style=" stroke:none;fill-rule:nonzero;fill:rgb(0%,0%,0%);fill-opacity:1;" d="M 31.8125 25.796875 L 30.503906 25.796875 L 29.429688 29.449219 C 29.175781 30.308594 28.667969 31.988281 28.589844 32.769531 L 28.570312 32.769531 C 28.53125 32.339844 28.238281 31.128906 27.867188 29.859375 L 26.675781 25.796875 L 25.445312 25.796875 L 24.410156 29.3125 C 24.097656 30.425781 23.667969 31.96875 23.609375 32.730469 L 23.589844 32.730469 C 23.570312 32.378906 23.375 31.441406 23.042969 30.230469 L 21.773438 25.796875 L 20.40625 25.796875 L 22.808594 33.765625 L 24.195312 33.765625 C 24.859375 31.5 25.914062 28.101562 26.011719 26.851562 L 26.03125 26.851562 C 26.070312 27.574219 26.421875 28.863281 26.558594 29.292969 L 27.828125 33.765625 L 29.410156 33.765625 Z M 31.8125 25.796875 "/>
<path style=" stroke:none;fill-rule:nonzero;fill:rgb(0%,0%,0%);fill-opacity:1;" d="M 41.070312 26.851562 L 43.550781 26.851562 L 43.550781 25.796875 L 41.070312 25.796875 L 41.070312 23.53125 L 39.839844 23.53125 L 39.839844 25.796875 L 38.335938 25.796875 L 38.335938 26.851562 L 39.800781 26.851562 L 39.800781 31.675781 C 39.800781 32.710938 40.035156 33.941406 41.265625 33.941406 C 42.476562 33.941406 43.296875 33.53125 43.84375 33.238281 L 43.570312 32.203125 C 42.945312 32.769531 42.28125 32.828125 41.96875 32.828125 C 41.167969 32.828125 41.070312 31.988281 41.070312 31.363281 Z M 41.070312 26.851562 "/>
<path style=" stroke:none;fill-rule:nonzero;fill:rgb(0%,0%,0%);fill-opacity:1;" d="M 52.527344 29.820312 C 52.527344 27.398438 50.75 25.542969 48.699219 25.542969 C 46.589844 25.542969 44.851562 27.4375 44.851562 29.820312 C 44.851562 32.164062 46.628906 33.941406 48.679688 33.941406 C 50.789062 33.941406 52.527344 32.125 52.527344 29.820312 Z M 48.699219 32.828125 C 47.410156 32.828125 46.199219 31.753906 46.199219 29.644531 C 46.199219 27.476562 47.546875 26.617188 48.679688 26.617188 C 49.910156 26.617188 51.179688 27.535156 51.179688 29.644531 C 51.179688 31.851562 49.890625 32.828125 48.699219 32.828125 Z M 48.699219 32.828125 "/>
<path style=" stroke:none;fill-rule:nonzero;fill:rgb(0%,0%,0%);fill-opacity:1;" d="M 67.3125 21.304688 L 65.867188 21.304688 L 65.867188 22.75 L 67.3125 22.75 Z M 67.273438 25.796875 L 65.945312 25.796875 L 65.945312 33.765625 L 67.273438 33.765625 Z M 62.410156 26.851562 L 64.460938 26.851562 L 64.460938 25.796875 L 62.371094 25.796875 L 62.371094 23.609375 C 62.371094 22.535156 62.9375 22.222656 63.425781 22.222656 C 63.816406 22.222656 64.226562 22.359375 64.460938 22.535156 L 64.460938 21.324219 C 64.109375 21.1875 63.992188 21.148438 63.425781 21.148438 C 62.097656 21.148438 61.082031 22.417969 61.082031 24.15625 L 61.082031 25.796875 L 59.773438 25.796875 L 59.773438 26.851562 L 61.082031 26.851562 L 61.082031 33.765625 L 62.410156 33.765625 Z M 62.410156 26.851562 "/>
<path style=" stroke:none;fill-rule:nonzero;fill:rgb(0%,0%,0%);fill-opacity:1;" d="M 76.351562 28.375 C 76.351562 27.28125 76.117188 25.621094 73.949219 25.621094 C 72.953125 25.621094 72.09375 26.070312 71.410156 26.929688 L 71.410156 25.71875 L 70.140625 25.71875 L 70.140625 33.765625 L 71.488281 33.765625 L 71.488281 29.292969 C 71.488281 28.199219 71.917969 26.695312 73.265625 26.695312 C 74.945312 26.695312 74.984375 27.867188 74.984375 28.492188 L 74.984375 33.765625 L 76.351562 33.765625 Z M 76.351562 28.375 "/>
<path style=" stroke:none;fill-rule:nonzero;fill:rgb(0%,0%,0%);fill-opacity:1;" d="M 85.332031 21.324219 L 84.003906 21.324219 L 84.003906 26.558594 C 83.183594 25.875 82.246094 25.621094 81.484375 25.621094 C 79.785156 25.621094 78.378906 27.457031 78.378906 29.78125 C 78.378906 32.105469 79.707031 33.941406 81.40625 33.941406 C 82.070312 33.941406 83.085938 33.726562 83.984375 32.847656 L 83.984375 33.765625 L 85.332031 33.765625 Z M 83.984375 31.65625 C 83.554688 32.417969 82.910156 32.867188 82.128906 32.867188 C 81.035156 32.867188 79.746094 32.027344 79.746094 29.800781 C 79.746094 27.417969 81.269531 26.695312 82.304688 26.695312 C 83.007812 26.695312 83.574219 27.066406 83.984375 27.652344 Z M 83.984375 31.65625 "/>
<path style=" stroke:none;fill-rule:nonzero;fill:rgb(0%,0%,0%);fill-opacity:1;" d="M 95.667969 26.851562 L 98.148438 26.851562 L 98.148438 25.796875 L 95.667969 25.796875 L 95.667969 23.53125 L 94.4375 23.53125 L 94.4375 25.796875 L 92.933594 25.796875 L 92.933594 26.851562 L 94.398438 26.851562 L 94.398438 31.675781 C 94.398438 32.710938 94.632812 33.941406 95.863281 33.941406 C 97.074219 33.941406 97.894531 33.53125 98.441406 33.238281 L 98.167969 32.203125 C 97.542969 32.769531 96.878906 32.828125 96.566406 32.828125 C 95.765625 32.828125 95.667969 31.988281 95.667969 31.363281 Z M 95.667969 26.851562 "/>
<path style=" stroke:none;fill-rule:nonzero;fill:rgb(0%,0%,0%);fill-opacity:1;" d="M 106.5 28.375 C 106.5 27.28125 106.265625 25.621094 104.097656 25.621094 C 102.867188 25.621094 102.046875 26.324219 101.617188 26.871094 L 101.617188 21.324219 L 100.289062 21.324219 L 100.289062 33.765625 L 101.636719 33.765625 L 101.636719 29.292969 C 101.636719 28.199219 102.066406 26.695312 103.414062 26.695312 C 105.09375 26.695312 105.132812 27.867188 105.132812 28.492188 L 105.132812 33.765625 L 106.5 33.765625 Z M 106.5 28.375 "/>
<path style=" stroke:none;fill-rule:nonzero;fill:rgb(0%,0%,0%);fill-opacity:1;" d="M 115.207031 29.722656 C 115.207031 28.960938 115.128906 27.867188 114.5625 26.910156 C 113.820312 25.679688 112.570312 25.542969 112.042969 25.542969 C 110.109375 25.542969 108.488281 27.398438 108.488281 29.722656 C 108.488281 32.105469 110.207031 33.941406 112.296875 33.941406 C 113.117188 33.941406 114.113281 33.707031 115.089844 33.003906 C 115.089844 32.925781 115.03125 32.359375 115.03125 32.339844 C 115.011719 32.320312 114.992188 31.910156 114.992188 31.851562 C 113.917969 32.75 112.863281 32.867188 112.335938 32.867188 C 110.949219 32.867188 109.757812 31.636719 109.738281 29.722656 Z M 109.835938 28.765625 C 110.148438 27.554688 110.988281 26.617188 112.042969 26.617188 C 112.609375 26.617188 113.839844 26.871094 114.132812 28.765625 Z M 109.835938 28.765625 "/>
<path style=" stroke:none;fill-rule:nonzero;fill:rgb(0%,0%,0%);fill-opacity:1;" d="M 129.15625 29.722656 C 129.15625 28.960938 129.078125 27.867188 128.511719 26.910156 C 127.769531 25.679688 126.519531 25.542969 125.992188 25.542969 C 124.058594 25.542969 122.4375 27.398438 122.4375 29.722656 C 122.4375 32.105469 124.15625 33.941406 126.246094 33.941406 C 127.066406 33.941406 128.0625 33.707031 129.039062 33.003906 C 129.039062 32.925781 128.980469 32.359375 128.980469 32.339844 C 128.960938 32.320312 128.941406 31.910156 128.941406 31.851562 C 127.867188 32.75 126.8125 32.867188 126.285156 32.867188 C 124.898438 32.867188 123.707031 31.636719 123.6875 29.722656 Z M 123.785156 28.765625 C 124.097656 27.554688 124.9375 26.617188 125.992188 26.617188 C 126.558594 26.617188 127.789062 26.871094 128.082031 28.765625 Z M 123.785156 28.765625 "/>
<path style=" stroke:none;fill-rule:nonzero;fill:rgb(0%,0%,0%);fill-opacity:1;" d="M 137.230469 25.621094 L 135.902344 25.621094 L 135.902344 26.773438 C 135.433594 26.226562 134.652344 25.621094 133.558594 25.621094 C 131.800781 25.621094 130.277344 27.398438 130.277344 29.800781 C 130.277344 32.085938 131.605469 33.941406 133.285156 33.941406 C 134.671875 33.941406 135.628906 33.121094 135.882812 32.847656 L 135.882812 37.242188 L 137.230469 37.242188 Z M 135.902344 31.265625 C 135.902344 31.617188 135.902344 31.636719 135.707031 31.910156 C 135.21875 32.632812 134.574219 32.867188 134.046875 32.867188 C 132.699219 32.867188 131.644531 31.460938 131.644531 29.800781 C 131.644531 27.964844 132.933594 26.734375 134.203125 26.734375 C 135.355469 26.734375 135.902344 27.90625 135.902344 28.628906 Z M 135.902344 31.265625 "/>
<path style=" stroke:none;fill-rule:nonzero;fill:rgb(0%,0%,0%);fill-opacity:1;" d="M 146.25 25.796875 L 144.882812 25.796875 L 144.882812 30.933594 C 144.882812 32.300781 143.945312 32.964844 142.773438 32.964844 C 141.523438 32.964844 141.386719 32.496094 141.386719 31.695312 L 141.386719 25.796875 L 140.039062 25.796875 L 140.039062 31.773438 C 140.039062 33.0625 140.449219 33.941406 141.914062 33.941406 C 142.421875 33.941406 143.828125 33.863281 144.921875 32.867188 L 144.921875 33.765625 L 146.25 33.765625 Z M 146.25 25.796875 "/>
<path style=" stroke:none;fill-rule:nonzero;fill:rgb(0%,0%,0%);fill-opacity:1;" d="M 154.664062 28.511719 C 154.664062 26.792969 153.433594 25.542969 151.753906 25.542969 C 150.679688 25.542969 149.878906 25.777344 149 26.285156 L 149.097656 27.476562 C 149.898438 26.890625 150.71875 26.578125 151.753906 26.578125 C 152.574219 26.578125 153.296875 27.242188 153.296875 28.550781 L 153.296875 29.292969 C 152.496094 29.3125 151.421875 29.371094 150.347656 29.722656 C 149.136719 30.152344 148.433594 30.816406 148.433594 31.695312 C 148.433594 32.496094 148.902344 33.941406 150.425781 33.941406 C 151.421875 33.941406 152.671875 33.648438 153.335938 33.101562 L 153.335938 33.765625 L 154.664062 33.765625 Z M 153.296875 31.363281 C 153.296875 31.714844 153.296875 32.144531 152.710938 32.515625 C 152.222656 32.808594 151.617188 32.867188 151.34375 32.867188 C 150.386719 32.867188 149.722656 32.339844 149.722656 31.695312 C 149.722656 30.464844 152.203125 30.191406 153.296875 30.191406 Z M 153.296875 31.363281 "/>
<path style=" stroke:none;fill-rule:nonzero;fill:rgb(0%,0%,0%);fill-opacity:1;" d="M 159.117188 26.851562 L 161.597656 26.851562 L 161.597656 25.796875 L 159.117188 25.796875 L 159.117188 23.53125 L 157.886719 23.53125 L 157.886719 25.796875 L 156.382812 25.796875 L 156.382812 26.851562 L 157.847656 26.851562 L 157.847656 31.675781 C 157.847656 32.710938 158.082031 33.941406 159.3125 33.941406 C 160.523438 33.941406 161.34375 33.53125 161.890625 33.238281 L 161.617188 32.203125 C 160.992188 32.769531 160.328125 32.828125 160.015625 32.828125 C 159.214844 32.828125 159.117188 31.988281 159.117188 31.363281 Z M 159.117188 26.851562 "/>
<path style=" stroke:none;fill-rule:nonzero;fill:rgb(0%,0%,0%);fill-opacity:1;" d="M 165.183594 21.597656 L 163.640625 21.597656 L 163.640625 23.140625 L 165.183594 23.140625 Z M 165.085938 25.796875 L 163.757812 25.796875 L 163.757812 33.765625 L 165.085938 33.765625 Z M 165.085938 25.796875 "/>
<path style=" stroke:none;fill-rule:nonzero;fill:rgb(0%,0%,0%);fill-opacity:1;" d="M 174.773438 29.820312 C 174.773438 27.398438 172.996094 25.542969 170.945312 25.542969 C 168.835938 25.542969 167.097656 27.4375 167.097656 29.820312 C 167.097656 32.164062 168.875 33.941406 170.925781 33.941406 C 173.035156 33.941406 174.773438 32.125 174.773438 29.820312 Z M 170.945312 32.828125 C 169.65625 32.828125 168.445312 31.753906 168.445312 29.644531 C 168.445312 27.476562 169.792969 26.617188 170.925781 26.617188 C 172.15625 26.617188 173.425781 27.535156 173.425781 29.644531 C 173.425781 31.851562 172.136719 32.828125 170.945312 32.828125 Z M 170.945312 32.828125 "/>
<path style=" stroke:none;fill-rule:nonzero;fill:rgb(0%,0%,0%);fill-opacity:1;" d="M 183 28.375 C 183 27.28125 182.765625 25.621094 180.597656 25.621094 C 179.601562 25.621094 178.742188 26.070312 178.058594 26.929688 L 178.058594 25.71875 L 176.789062 25.71875 L 176.789062 33.765625 L 178.136719 33.765625 L 178.136719 29.292969 C 178.136719 28.199219 178.566406 26.695312 179.914062 26.695312 C 181.59375 26.695312 181.632812 27.867188 181.632812 28.492188 L 181.632812 33.765625 L 183 33.765625 Z M 183 28.375 "/>
<path style=" stroke:none;fill-rule:nonzero;fill:rgb(0%,0%,0%);fill-opacity:1;" d="M 196.515625 26.695312 C 196.515625 26.695312 196.554688 26.734375 196.574219 26.773438 C 196.945312 26.734375 197.335938 26.675781 198 26.675781 C 198.058594 26.675781 198.46875 26.675781 198.917969 26.714844 L 198.722656 25.621094 C 198.390625 25.621094 197.160156 25.640625 195.96875 26.226562 C 195.382812 25.71875 194.660156 25.621094 194.308594 25.621094 C 192.746094 25.621094 191.496094 26.929688 191.496094 28.511719 C 191.496094 29.15625 191.691406 29.742188 192.082031 30.289062 C 191.671875 30.855469 191.574219 31.402344 191.574219 31.832031 C 191.574219 32.496094 191.828125 32.945312 192.023438 33.179688 C 191.105469 33.765625 190.890625 34.527344 190.890625 35.035156 C 190.890625 36.34375 192.589844 37.4375 194.777344 37.4375 C 196.964844 37.4375 198.683594 36.382812 198.683594 35.015625 C 198.683594 32.515625 195.773438 32.515625 195.050781 32.515625 L 193.527344 32.515625 C 193.273438 32.515625 192.492188 32.515625 192.492188 31.558594 C 192.492188 31.167969 192.570312 31.050781 192.6875 30.894531 C 192.980469 31.109375 193.566406 31.421875 194.289062 31.421875 C 195.832031 31.421875 197.101562 30.152344 197.101562 28.511719 C 197.101562 27.867188 196.867188 27.203125 196.496094 26.714844 Z M 194.308594 30.425781 C 193.527344 30.425781 192.726562 29.898438 192.726562 28.53125 C 192.726562 26.929688 193.742188 26.617188 194.289062 26.617188 C 195.089844 26.617188 195.871094 27.144531 195.871094 28.511719 C 195.871094 30.113281 194.875 30.425781 194.308594 30.425781 Z M 195.070312 33.804688 C 195.460938 33.804688 197.433594 33.804688 197.433594 35.035156 C 197.433594 35.855469 196.203125 36.460938 194.796875 36.460938 C 193.390625 36.460938 192.140625 35.894531 192.140625 35.015625 C 192.140625 34.976562 192.140625 33.804688 193.507812 33.804688 Z M 195.070312 33.804688 "/>
<path style=" stroke:none;fill-rule:nonzero;fill:rgb(0%,0%,0%);fill-opacity:1;" d="M 202.085938 21.597656 L 200.542969 21.597656 L 200.542969 23.140625 L 202.085938 23.140625 Z M 201.988281 25.796875 L 200.660156 25.796875 L 200.660156 33.765625 L 201.988281 33.765625 Z M 201.988281 25.796875 "/>
<path style=" stroke:none;fill-rule:nonzero;fill:rgb(0%,0%,0%);fill-opacity:1;" d="M 211.207031 25.796875 L 209.878906 25.796875 L 208.570312 29.371094 C 208.257812 30.230469 207.59375 32.125 207.496094 32.789062 L 207.476562 32.789062 C 207.378906 32.164062 207.027344 31.1875 206.753906 30.40625 L 205.09375 25.796875 L 203.707031 25.796875 L 206.65625 33.765625 L 208.257812 33.765625 Z M 211.207031 25.796875 "/>
<path style=" stroke:none;fill-rule:nonzero;fill:rgb(0%,0%,0%);fill-opacity:1;" d="M 218.855469 29.722656 C 218.855469 28.960938 218.777344 27.867188 218.210938 26.910156 C 217.46875 25.679688 216.21875 25.542969 215.691406 25.542969 C 213.757812 25.542969 212.136719 27.398438 212.136719 29.722656 C 212.136719 32.105469 213.855469 33.941406 215.945312 33.941406 C 216.765625 33.941406 217.761719 33.707031 218.738281 33.003906 C 218.738281 32.925781 218.679688 32.359375 218.679688 32.339844 C 218.660156 32.320312 218.640625 31.910156 218.640625 31.851562 C 217.566406 32.75 216.511719 32.867188 215.984375 32.867188 C 214.597656 32.867188 213.40625 31.636719 213.386719 29.722656 Z M 213.484375 28.765625 C 213.796875 27.554688 214.636719 26.617188 215.691406 26.617188 C 216.257812 26.617188 217.488281 26.871094 217.78125 28.765625 Z M 213.484375 28.765625 "/>
<path style=" stroke:none;fill-rule:nonzero;fill:rgb(0%,0%,0%);fill-opacity:1;" d="M 226.949219 28.375 C 226.949219 27.28125 226.714844 25.621094 224.546875 25.621094 C 223.550781 25.621094 222.691406 26.070312 222.007812 26.929688 L 222.007812 25.71875 L 220.738281 25.71875 L 220.738281 33.765625 L 222.085938 33.765625 L 222.085938 29.292969 C 222.085938 28.199219 222.515625 26.695312 223.863281 26.695312 C 225.542969 26.695312 225.582031 27.867188 225.582031 28.492188 L 225.582031 33.765625 L 226.949219 33.765625 Z M 226.949219 28.375 "/>
<path style=" stroke:none;fill-rule:nonzero;fill:rgb(0%,0%,0%);fill-opacity:1;" d="M 237.269531 26.851562 L 239.75 26.851562 L 239.75 25.796875 L 237.269531 25.796875 L 237.269531 23.53125 L 236.039062 23.53125 L 236.039062 25.796875 L 234.535156 25.796875 L 234.535156 26.851562 L 236 26.851562 L 236 31.675781 C 236 32.710938 236.234375 33.941406 237.464844 33.941406 C 238.675781 33.941406 239.496094 33.53125 240.042969 33.238281 L 239.769531 32.203125 C 239.144531 32.769531 238.480469 32.828125 238.167969 32.828125 C 237.367188 32.828125 237.269531 31.988281 237.269531 31.363281 Z M 237.269531 26.851562 "/>
<path style=" stroke:none;fill-rule:nonzero;fill:rgb(0%,0%,0%);fill-opacity:1;" d="M 251.710938 25.796875 L 250.402344 25.796875 L 249.328125 29.449219 C 249.074219 30.308594 248.566406 31.988281 248.488281 32.769531 L 248.46875 32.769531 C 248.429688 32.339844 248.136719 31.128906 247.765625 29.859375 L 246.574219 25.796875 L 245.34375 25.796875 L 244.308594 29.3125 C 243.996094 30.425781 243.566406 31.96875 243.507812 32.730469 L 243.488281 32.730469 C 243.46875 32.378906 243.273438 31.441406 242.941406 30.230469 L 241.671875 25.796875 L 240.304688 25.796875 L 242.707031 33.765625 L 244.09375 33.765625 C 244.757812 31.5 245.8125 28.101562 245.910156 26.851562 L 245.929688 26.851562 C 245.96875 27.574219 246.320312 28.863281 246.457031 29.292969 L 247.726562 33.765625 L 249.308594 33.765625 Z M 251.710938 25.796875 "/>
<path style=" stroke:none;fill-rule:nonzero;fill:rgb(0%,0%,0%);fill-opacity:1;" d="M 259.824219 29.820312 C 259.824219 27.398438 258.046875 25.542969 255.996094 25.542969 C 253.886719 25.542969 252.148438 27.4375 252.148438 29.820312 C 252.148438 32.164062 253.925781 33.941406 255.976562 33.941406 C 258.085938 33.941406 259.824219 32.125 259.824219 29.820312 Z M 255.996094 32.828125 C 254.707031 32.828125 253.496094 31.753906 253.496094 29.644531 C 253.496094 27.476562 254.84375 26.617188 255.976562 26.617188 C 257.207031 26.617188 258.476562 27.535156 258.476562 29.644531 C 258.476562 31.851562 257.1875 32.828125 255.996094 32.828125 Z M 255.996094 32.828125 "/>
<path style=" stroke:none;fill-rule:nonzero;fill:rgb(0%,0%,0%);fill-opacity:1;" d="M 269.054688 32.964844 C 269.679688 33.511719 270.421875 33.941406 271.398438 33.941406 C 273.117188 33.941406 274.660156 32.203125 274.660156 29.761719 C 274.660156 27.59375 273.507812 25.621094 271.847656 25.621094 C 271.105469 25.621094 269.953125 25.855469 269.035156 26.65625 L 269.035156 25.796875 L 267.707031 25.796875 L 267.707031 37.242188 L 269.054688 37.242188 Z M 269.054688 27.75 C 269.464844 27.125 270.148438 26.734375 270.890625 26.734375 C 272.21875 26.734375 273.292969 28.082031 273.292969 29.78125 C 273.292969 31.578125 272.0625 32.867188 270.734375 32.867188 C 270.226562 32.867188 269.894531 32.691406 269.5625 32.4375 C 269.113281 32.046875 269.054688 31.714844 269.054688 31.441406 Z M 269.054688 27.75 "/>
<path style=" stroke:none;fill-rule:nonzero;fill:rgb(0%,0%,0%);fill-opacity:1;" d="M 283.976562 29.820312 C 283.976562 27.398438 282.199219 25.542969 280.148438 25.542969 C 278.039062 25.542969 276.300781 27.4375 276.300781 29.820312 C 276.300781 32.164062 278.078125 33.941406 280.128906 33.941406 C 282.238281 33.941406 283.976562 32.125 283.976562 29.820312 Z M 280.148438 32.828125 C 278.859375 32.828125 277.648438 31.753906 277.648438 29.644531 C 277.648438 27.476562 278.996094 26.617188 280.128906 26.617188 C 281.359375 26.617188 282.628906 27.535156 282.628906 29.644531 C 282.628906 31.851562 281.339844 32.828125 280.148438 32.828125 Z M 280.148438 32.828125 "/>
<path style=" stroke:none;fill-rule:nonzero;fill:rgb(0%,0%,0%);fill-opacity:1;" d="M 287.433594 21.597656 L 285.890625 21.597656 L 285.890625 23.140625 L 287.433594 23.140625 Z M 287.335938 25.796875 L 286.007812 25.796875 L 286.007812 33.765625 L 287.335938 33.765625 Z M 287.335938 25.796875 "/>
<path style=" stroke:none;fill-rule:nonzero;fill:rgb(0%,0%,0%);fill-opacity:1;" d="M 296.398438 28.375 C 296.398438 27.28125 296.164062 25.621094 293.996094 25.621094 C 293 25.621094 292.140625 26.070312 291.457031 26.929688 L 291.457031 25.71875 L 290.1875 25.71875 L 290.1875 33.765625 L 291.535156 33.765625 L 291.535156 29.292969 C 291.535156 28.199219 291.964844 26.695312 293.3125 26.695312 C 294.992188 26.695312 295.03125 27.867188 295.03125 28.492188 L 295.03125 33.765625 L 296.398438 33.765625 Z M 296.398438 28.375 "/>
<path style=" stroke:none;fill-rule:nonzero;fill:rgb(0%,0%,0%);fill-opacity:1;" d="M 300.867188 26.851562 L 303.347656 26.851562 L 303.347656 25.796875 L 300.867188 25.796875 L 300.867188 23.53125 L 299.636719 23.53125 L 299.636719 25.796875 L 298.132812 25.796875 L 298.132812 26.851562 L 299.597656 26.851562 L 299.597656 31.675781 C 299.597656 32.710938 299.832031 33.941406 301.0625 33.941406 C 302.273438 33.941406 303.09375 33.53125 303.640625 33.238281 L 303.367188 32.203125 C 302.742188 32.769531 302.078125 32.828125 301.765625 32.828125 C 300.964844 32.828125 300.867188 31.988281 300.867188 31.363281 Z M 300.867188 26.851562 "/>
<path style=" stroke:none;fill-rule:nonzero;fill:rgb(0%,0%,0%);fill-opacity:1;" d="M 310.117188 26.089844 C 308.984375 25.5625 308.007812 25.542969 307.597656 25.542969 C 307.1875 25.542969 304.6875 25.542969 304.6875 27.867188 C 304.6875 28.648438 305.117188 29.195312 305.390625 29.449219 C 306.035156 29.996094 306.484375 30.09375 307.539062 30.308594 C 308.144531 30.425781 309.179688 30.640625 309.179688 31.597656 C 309.179688 32.828125 307.773438 32.828125 307.519531 32.828125 C 306.816406 32.828125 305.761719 32.632812 304.804688 31.929688 L 304.589844 33.160156 C 304.667969 33.21875 305.898438 33.941406 307.539062 33.941406 C 309.863281 33.941406 310.410156 32.554688 310.410156 31.480469 C 310.410156 30.582031 309.863281 29.996094 309.785156 29.917969 C 309.121094 29.234375 308.574219 29.117188 307.5 28.902344 C 306.835938 28.785156 305.9375 28.609375 305.9375 27.710938 C 305.9375 26.597656 307.1875 26.597656 307.421875 26.597656 C 308.359375 26.597656 309.121094 26.8125 309.902344 27.261719 Z M 310.117188 26.089844 "/>
<path style=" stroke:none;fill-rule:nonzero;fill:rgb(0%,0%,0%);fill-opacity:1;" d="M 7.675781 51.121094 C 7.675781 48.699219 5.898438 46.84375 3.847656 46.84375 C 1.738281 46.84375 0 48.738281 0 51.121094 C 0 53.464844 1.777344 55.242188 3.828125 55.242188 C 5.9375 55.242188 7.675781 53.425781 7.675781 51.121094 Z M 3.847656 54.128906 C 2.558594 54.128906 1.347656 53.054688 1.347656 50.945312 C 1.347656 48.777344 2.695312 47.917969 3.828125 47.917969 C 5.058594 47.917969 6.328125 48.835938 6.328125 50.945312 C 6.328125 53.152344 5.039062 54.128906 3.847656 54.128906 Z M 3.847656 54.128906 "/>
<path style=" stroke:none;fill-rule:nonzero;fill:rgb(0%,0%,0%);fill-opacity:1;" d="M 15.902344 49.675781 C 15.902344 48.582031 15.667969 46.921875 13.5 46.921875 C 12.503906 46.921875 11.644531 47.371094 10.960938 48.230469 L 10.960938 47.019531 L 9.691406 47.019531 L 9.691406 55.066406 L 11.039062 55.066406 L 11.039062 50.59375 C 11.039062 49.5 11.46875 47.996094 12.816406 47.996094 C 14.496094 47.996094 14.535156 49.167969 14.535156 49.792969 L 14.535156 55.066406 L 15.902344 55.066406 Z M 15.902344 49.675781 "/>
<path style=" stroke:none;fill-rule:nonzero;fill:rgb(0%,0%,0%);fill-opacity:1;" d="M 25.320312 48.152344 L 27.800781 48.152344 L 27.800781 47.097656 L 25.320312 47.097656 L 25.320312 44.832031 L 24.089844 44.832031 L 24.089844 47.097656 L 22.585938 47.097656 L 22.585938 48.152344 L 24.050781 48.152344 L 24.050781 52.976562 C 24.050781 54.011719 24.285156 55.242188 25.515625 55.242188 C 26.726562 55.242188 27.546875 54.832031 28.09375 54.539062 L 27.820312 53.503906 C 27.195312 54.070312 26.53125 54.128906 26.21875 54.128906 C 25.417969 54.128906 25.320312 53.289062 25.320312 52.664062 Z M 25.320312 48.152344 "/>
<path style=" stroke:none;fill-rule:nonzero;fill:rgb(0%,0%,0%);fill-opacity:1;" d="M 36.152344 49.675781 C 36.152344 48.582031 35.917969 46.921875 33.75 46.921875 C 32.519531 46.921875 31.699219 47.625 31.269531 48.171875 L 31.269531 42.625 L 29.941406 42.625 L 29.941406 55.066406 L 31.289062 55.066406 L 31.289062 50.59375 C 31.289062 49.5 31.71875 47.996094 33.066406 47.996094 C 34.746094 47.996094 34.785156 49.167969 34.785156 49.792969 L 34.785156 55.066406 L 36.152344 55.066406 Z M 36.152344 49.675781 "/>
<path style=" stroke:none;fill-rule:nonzero;fill:rgb(0%,0%,0%);fill-opacity:1;" d="M 44.859375 51.023438 C 44.859375 50.261719 44.78125 49.167969 44.214844 48.210938 C 43.472656 46.980469 42.222656 46.84375 41.695312 46.84375 C 39.761719 46.84375 38.140625 48.699219 38.140625 51.023438 C 38.140625 53.40625 39.859375 55.242188 41.949219 55.242188 C 42.769531 55.242188 43.765625 55.007812 44.742188 54.304688 C 44.742188 54.226562 44.683594 53.660156 44.683594 53.640625 C 44.664062 53.621094 44.644531 53.210938 44.644531 53.152344 C 43.570312 54.050781 42.515625 54.167969 41.988281 54.167969 C 40.601562 54.167969 39.410156 52.9375 39.390625 51.023438 Z M 39.488281 50.066406 C 39.800781 48.855469 40.640625 47.917969 41.695312 47.917969 C 42.261719 47.917969 43.492188 48.171875 43.785156 50.066406 Z M 39.488281 50.066406 "/>
<path style=" stroke:none;fill-rule:nonzero;fill:rgb(0%,0%,0%);fill-opacity:1;" d="M 53.035156 42.625 L 51.707031 42.625 L 51.707031 55.066406 L 53.035156 55.066406 Z M 53.035156 42.625 "/>
<path style=" stroke:none;fill-rule:nonzero;fill:rgb(0%,0%,0%);fill-opacity:1;" d="M 57.335938 42.898438 L 55.792969 42.898438 L 55.792969 44.441406 L 57.335938 44.441406 Z M 57.238281 47.097656 L 55.910156 47.097656 L 55.910156 55.066406 L 57.238281 55.066406 Z M 57.238281 47.097656 "/>
<path style=" stroke:none;fill-rule:nonzero;fill:rgb(0%,0%,0%);fill-opacity:1;" d="M 66.300781 49.675781 C 66.300781 48.582031 66.066406 46.921875 63.898438 46.921875 C 62.902344 46.921875 62.042969 47.371094 61.359375 48.230469 L 61.359375 47.019531 L 60.089844 47.019531 L 60.089844 55.066406 L 61.4375 55.066406 L 61.4375 50.59375 C 61.4375 49.5 61.867188 47.996094 63.214844 47.996094 C 64.894531 47.996094 64.933594 49.167969 64.933594 49.792969 L 64.933594 55.066406 L 66.300781 55.066406 Z M 66.300781 49.675781 "/>
<path style=" stroke:none;fill-rule:nonzero;fill:rgb(0%,0%,0%);fill-opacity:1;" d="M 75.007812 51.023438 C 75.007812 50.261719 74.929688 49.167969 74.363281 48.210938 C 73.621094 46.980469 72.371094 46.84375 71.84375 46.84375 C 69.910156 46.84375 68.289062 48.699219 68.289062 51.023438 C 68.289062 53.40625 70.007812 55.242188 72.097656 55.242188 C 72.917969 55.242188 73.914062 55.007812 74.890625 54.304688 C 74.890625 54.226562 74.832031 53.660156 74.832031 53.640625 C 74.8125 53.621094 74.792969 53.210938 74.792969 53.152344 C 73.71875 54.050781 72.664062 54.167969 72.136719 54.167969 C 70.75 54.167969 69.558594 52.9375 69.539062 51.023438 Z M 69.636719 50.066406 C 69.949219 48.855469 70.789062 47.917969 71.84375 47.917969 C 72.410156 47.917969 73.640625 48.171875 73.933594 50.066406 Z M 69.636719 50.066406 "/>
<path style=" stroke:none;fill-rule:nonzero;fill:rgb(0%,0%,0%);fill-opacity:1;" d="M 88.523438 51.121094 C 88.523438 48.699219 86.746094 46.84375 84.695312 46.84375 C 82.585938 46.84375 80.847656 48.738281 80.847656 51.121094 C 80.847656 53.464844 82.625 55.242188 84.675781 55.242188 C 86.785156 55.242188 88.523438 53.425781 88.523438 51.121094 Z M 84.695312 54.128906 C 83.40625 54.128906 82.195312 53.054688 82.195312 50.945312 C 82.195312 48.777344 83.542969 47.917969 84.675781 47.917969 C 85.90625 47.917969 87.175781 48.835938 87.175781 50.945312 C 87.175781 53.152344 85.886719 54.128906 84.695312 54.128906 Z M 84.695312 54.128906 "/>
<path style=" stroke:none;fill-rule:nonzero;fill:rgb(0%,0%,0%);fill-opacity:1;" d="M 91.4375 51.140625 C 91.4375 49.324219 92.785156 48.152344 94.40625 48.132812 L 94.40625 46.921875 C 92.765625 46.941406 91.828125 47.898438 91.339844 48.601562 L 91.339844 47.019531 L 90.109375 47.019531 L 90.109375 55.066406 L 91.4375 55.066406 Z M 91.4375 51.140625 "/>
<path style=" stroke:none;fill-rule:nonzero;fill:rgb(0%,0%,0%);fill-opacity:1;" d="M 107.726562 51.121094 C 107.726562 48.699219 105.949219 46.84375 103.898438 46.84375 C 101.789062 46.84375 100.050781 48.738281 100.050781 51.121094 C 100.050781 53.464844 101.828125 55.242188 103.878906 55.242188 C 105.988281 55.242188 107.726562 53.425781 107.726562 51.121094 Z M 103.898438 54.128906 C 102.609375 54.128906 101.398438 53.054688 101.398438 50.945312 C 101.398438 48.777344 102.746094 47.917969 103.878906 47.917969 C 105.109375 47.917969 106.378906 48.835938 106.378906 50.945312 C 106.378906 53.152344 105.089844 54.128906 103.898438 54.128906 Z M 103.898438 54.128906 "/>
<path style=" stroke:none;fill-rule:nonzero;fill:rgb(0%,0%,0%);fill-opacity:1;" d="M 115.949219 49.675781 C 115.949219 48.582031 115.714844 46.921875 113.546875 46.921875 C 112.550781 46.921875 111.691406 47.371094 111.007812 48.230469 L 111.007812 47.019531 L 109.738281 47.019531 L 109.738281 55.066406 L 111.085938 55.066406 L 111.085938 50.59375 C 111.085938 49.5 111.515625 47.996094 112.863281 47.996094 C 114.542969 47.996094 114.582031 49.167969 114.582031 49.792969 L 114.582031 55.066406 L 115.949219 55.066406 Z M 115.949219 49.675781 "/>
<path style=" stroke:none;fill-rule:nonzero;fill:rgb(0%,0%,0%);fill-opacity:1;" d="M 124.65625 51.023438 C 124.65625 50.261719 124.578125 49.167969 124.011719 48.210938 C 123.269531 46.980469 122.019531 46.84375 121.492188 46.84375 C 119.558594 46.84375 117.9375 48.699219 117.9375 51.023438 C 117.9375 53.40625 119.65625 55.242188 121.746094 55.242188 C 122.566406 55.242188 123.5625 55.007812 124.539062 54.304688 C 124.539062 54.226562 124.480469 53.660156 124.480469 53.640625 C 124.460938 53.621094 124.441406 53.210938 124.441406 53.152344 C 123.367188 54.050781 122.3125 54.167969 121.785156 54.167969 C 120.398438 54.167969 119.207031 52.9375 119.1875 51.023438 Z M 119.285156 50.066406 C 119.597656 48.855469 120.4375 47.917969 121.492188 47.917969 C 122.058594 47.917969 123.289062 48.171875 123.582031 50.066406 Z M 119.285156 50.066406 "/>
<path style=" stroke:none;fill-rule:nonzero;fill:rgb(0%,0%,0%);fill-opacity:1;" d="M 132.855469 54.265625 C 133.480469 54.8125 134.222656 55.242188 135.199219 55.242188 C 136.917969 55.242188 138.460938 53.503906 138.460938 51.0625 C 138.460938 48.894531 137.308594 46.921875 135.648438 46.921875 C 134.90625 46.921875 133.753906 47.15625 132.835938 47.957031 L 132.835938 47.097656 L 131.507812 47.097656 L 131.507812 58.542969 L 132.855469 58.542969 Z M 132.855469 49.050781 C 133.265625 48.425781 133.949219 48.035156 134.691406 48.035156 C 136.019531 48.035156 137.09375 49.382812 137.09375 51.082031 C 137.09375 52.878906 135.863281 54.167969 134.535156 54.167969 C 134.027344 54.167969 133.695312 53.992188 133.363281 53.738281 C 132.914062 53.347656 132.855469 53.015625 132.855469 52.742188 Z M 132.855469 49.050781 "/>
<path style=" stroke:none;fill-rule:nonzero;fill:rgb(0%,0%,0%);fill-opacity:1;" d="M 147.773438 51.121094 C 147.773438 48.699219 145.996094 46.84375 143.945312 46.84375 C 141.835938 46.84375 140.097656 48.738281 140.097656 51.121094 C 140.097656 53.464844 141.875 55.242188 143.925781 55.242188 C 146.035156 55.242188 147.773438 53.425781 147.773438 51.121094 Z M 143.945312 54.128906 C 142.65625 54.128906 141.445312 53.054688 141.445312 50.945312 C 141.445312 48.777344 142.792969 47.917969 143.925781 47.917969 C 145.15625 47.917969 146.425781 48.835938 146.425781 50.945312 C 146.425781 53.152344 145.136719 54.128906 143.945312 54.128906 Z M 143.945312 54.128906 "/>
<path style=" stroke:none;fill-rule:nonzero;fill:rgb(0%,0%,0%);fill-opacity:1;" d="M 151.234375 42.898438 L 149.691406 42.898438 L 149.691406 44.441406 L 151.234375 44.441406 Z M 151.136719 47.097656 L 149.808594 47.097656 L 149.808594 55.066406 L 151.136719 55.066406 Z M 151.136719 47.097656 "/>
<path style=" stroke:none;fill-rule:nonzero;fill:rgb(0%,0%,0%);fill-opacity:1;" d="M 160.199219 49.675781 C 160.199219 48.582031 159.964844 46.921875 157.796875 46.921875 C 156.800781 46.921875 155.941406 47.371094 155.257812 48.230469 L 155.257812 47.019531 L 153.988281 47.019531 L 153.988281 55.066406 L 155.335938 55.066406 L 155.335938 50.59375 C 155.335938 49.5 155.765625 47.996094 157.113281 47.996094 C 158.792969 47.996094 158.832031 49.167969 158.832031 49.792969 L 158.832031 55.066406 L 160.199219 55.066406 Z M 160.199219 49.675781 "/>
<path style=" stroke:none;fill-rule:nonzero;fill:rgb(0%,0%,0%);fill-opacity:1;" d="M 164.667969 48.152344 L 167.148438 48.152344 L 167.148438 47.097656 L 164.667969 47.097656 L 164.667969 44.832031 L 163.4375 44.832031 L 163.4375 47.097656 L 161.933594 47.097656 L 161.933594 48.152344 L 163.398438 48.152344 L 163.398438 52.976562 C 163.398438 54.011719 163.632812 55.242188 164.863281 55.242188 C 166.074219 55.242188 166.894531 54.832031 167.441406 54.539062 L 167.167969 53.503906 C 166.542969 54.070312 165.878906 54.128906 165.566406 54.128906 C 164.765625 54.128906 164.667969 53.289062 164.667969 52.664062 Z M 164.667969 48.152344 "/>
<path style=" stroke:none;fill-rule:nonzero;fill:rgb(0%,0%,0%);fill-opacity:1;" d="M 179.863281 49.8125 C 179.863281 48.09375 178.632812 46.84375 176.953125 46.84375 C 175.878906 46.84375 175.078125 47.078125 174.199219 47.585938 L 174.296875 48.777344 C 175.097656 48.191406 175.917969 47.878906 176.953125 47.878906 C 177.773438 47.878906 178.496094 48.542969 178.496094 49.851562 L 178.496094 50.59375 C 177.695312 50.613281 176.621094 50.671875 175.546875 51.023438 C 174.335938 51.453125 173.632812 52.117188 173.632812 52.996094 C 173.632812 53.796875 174.101562 55.242188 175.625 55.242188 C 176.621094 55.242188 177.871094 54.949219 178.535156 54.402344 L 178.535156 55.066406 L 179.863281 55.066406 Z M 178.496094 52.664062 C 178.496094 53.015625 178.496094 53.445312 177.910156 53.816406 C 177.421875 54.109375 176.816406 54.167969 176.542969 54.167969 C 175.585938 54.167969 174.921875 53.640625 174.921875 52.996094 C 174.921875 51.765625 177.402344 51.492188 178.496094 51.492188 Z M 178.496094 52.664062 "/>
<path style=" stroke:none;fill-rule:nonzero;fill:rgb(0%,0%,0%);fill-opacity:1;" d="M 188.851562 49.675781 C 188.851562 48.582031 188.617188 46.921875 186.449219 46.921875 C 185.453125 46.921875 184.59375 47.371094 183.910156 48.230469 L 183.910156 47.019531 L 182.640625 47.019531 L 182.640625 55.066406 L 183.988281 55.066406 L 183.988281 50.59375 C 183.988281 49.5 184.417969 47.996094 185.765625 47.996094 C 187.445312 47.996094 187.484375 49.167969 187.484375 49.792969 L 187.484375 55.066406 L 188.851562 55.066406 Z M 188.851562 49.675781 "/>
<path style=" stroke:none;fill-rule:nonzero;fill:rgb(0%,0%,0%);fill-opacity:1;" d="M 197.832031 42.625 L 196.503906 42.625 L 196.503906 47.859375 C 195.683594 47.175781 194.746094 46.921875 193.984375 46.921875 C 192.285156 46.921875 190.878906 48.757812 190.878906 51.082031 C 190.878906 53.40625 192.207031 55.242188 193.90625 55.242188 C 194.570312 55.242188 195.585938 55.027344 196.484375 54.148438 L 196.484375 55.066406 L 197.832031 55.066406 Z M 196.484375 52.957031 C 196.054688 53.71875 195.410156 54.167969 194.628906 54.167969 C 193.535156 54.167969 192.246094 53.328125 192.246094 51.101562 C 192.246094 48.71875 193.769531 47.996094 194.804688 47.996094 C 195.507812 47.996094 196.074219 48.367188 196.484375 48.953125 Z M 196.484375 52.957031 "/>
<path style=" stroke:none;fill-rule:nonzero;fill:rgb(0%,0%,0%);fill-opacity:1;" d="M 207.269531 48.152344 L 209.75 48.152344 L 209.75 47.097656 L 207.269531 47.097656 L 207.269531 44.832031 L 206.039062 44.832031 L 206.039062 47.097656 L 204.535156 47.097656 L 204.535156 48.152344 L 206 48.152344 L 206 52.976562 C 206 54.011719 206.234375 55.242188 207.464844 55.242188 C 208.675781 55.242188 209.496094 54.832031 210.042969 54.539062 L 209.769531 53.503906 C 209.144531 54.070312 208.480469 54.128906 208.167969 54.128906 C 207.367188 54.128906 207.269531 53.289062 207.269531 52.664062 Z M 207.269531 48.152344 "/>
<path style=" stroke:none;fill-rule:nonzero;fill:rgb(0%,0%,0%);fill-opacity:1;" d="M 218.101562 49.675781 C 218.101562 48.582031 217.867188 46.921875 215.699219 46.921875 C 214.46875 46.921875 213.648438 47.625 213.21875 48.171875 L 213.21875 42.625 L 211.890625 42.625 L 211.890625 55.066406 L 213.238281 55.066406 L 213.238281 50.59375 C 213.238281 49.5 213.667969 47.996094 215.015625 47.996094 C 216.695312 47.996094 216.734375 49.167969 216.734375 49.792969 L 216.734375 55.066406 L 218.101562 55.066406 Z M 218.101562 49.675781 "/>
<path style=" stroke:none;fill-rule:nonzero;fill:rgb(0%,0%,0%);fill-opacity:1;" d="M 226.808594 51.023438 C 226.808594 50.261719 226.730469 49.167969 226.164062 48.210938 C 225.421875 46.980469 224.171875 46.84375 223.644531 46.84375 C 221.710938 46.84375 220.089844 48.699219 220.089844 51.023438 C 220.089844 53.40625 221.808594 55.242188 223.898438 55.242188 C 224.71875 55.242188 225.714844 55.007812 226.691406 54.304688 C 226.691406 54.226562 226.632812 53.660156 226.632812 53.640625 C 226.613281 53.621094 226.59375 53.210938 226.59375 53.152344 C 225.519531 54.050781 224.464844 54.167969 223.9375 54.167969 C 222.550781 54.167969 221.359375 52.9375 221.339844 51.023438 Z M 221.4375 50.066406 C 221.75 48.855469 222.589844 47.917969 223.644531 47.917969 C 224.210938 47.917969 225.441406 48.171875 225.734375 50.066406 Z M 221.4375 50.066406 "/>
<path style=" stroke:none;fill-rule:nonzero;fill:rgb(0%,0%,0%);fill-opacity:1;" d="M 234.984375 42.625 L 233.65625 42.625 L 233.65625 55.066406 L 234.984375 55.066406 Z M 234.984375 42.625 "/>
<path style=" stroke:none;fill-rule:nonzero;fill:rgb(0%,0%,0%);fill-opacity:1;" d="M 239.285156 42.898438 L 237.742188 42.898438 L 237.742188 44.441406 L 239.285156 44.441406 Z M 239.1875 47.097656 L 237.859375 47.097656 L 237.859375 55.066406 L 239.1875 55.066406 Z M 239.1875 47.097656 "/>
<path style=" stroke:none;fill-rule:nonzero;fill:rgb(0%,0%,0%);fill-opacity:1;" d="M 248.25 49.675781 C 248.25 48.582031 248.015625 46.921875 245.847656 46.921875 C 244.851562 46.921875 243.992188 47.371094 243.308594 48.230469 L 243.308594 47.019531 L 242.039062 47.019531 L 242.039062 55.066406 L 243.386719 55.066406 L 243.386719 50.59375 C 243.386719 49.5 243.816406 47.996094 245.164062 47.996094 C 246.84375 47.996094 246.882812 49.167969 246.882812 49.792969 L 246.882812 55.066406 L 248.25 55.066406 Z M 248.25 49.675781 "/>
<path style=" stroke:none;fill-rule:nonzero;fill:rgb(0%,0%,0%);fill-opacity:1;" d="M 256.957031 51.023438 C 256.957031 50.261719 256.878906 49.167969 256.3125 48.210938 C 255.570312 46.980469 254.320312 46.84375 253.792969 46.84375 C 251.859375 46.84375 250.238281 48.699219 250.238281 51.023438 C 250.238281 53.40625 251.957031 55.242188 254.046875 55.242188 C 254.867188 55.242188 255.863281 55.007812 256.839844 54.304688 C 256.839844 54.226562 256.78125 53.660156 256.78125 53.640625 C 256.761719 53.621094 256.742188 53.210938 256.742188 53.152344 C 255.667969 54.050781 254.613281 54.167969 254.085938 54.167969 C 252.699219 54.167969 251.507812 52.9375 251.488281 51.023438 Z M 251.585938 50.066406 C 251.898438 48.855469 252.738281 47.917969 253.792969 47.917969 C 254.359375 47.917969 255.589844 48.171875 255.882812 50.066406 Z M 251.585938 50.066406 "/>
<path style=" stroke:none;fill-rule:nonzero;fill:rgb(0%,0%,0%);fill-opacity:1;" d="M 260.617188 44.050781 L 260.617188 42.625 L 259.152344 42.625 L 259.152344 44.070312 L 259.601562 44.070312 L 259.152344 46.316406 L 259.875 46.316406 Z M 260.617188 44.050781 "/>
<path style=" stroke:none;fill-rule:nonzero;fill:rgb(0%,0%,0%);fill-opacity:1;" d="M 268.417969 47.390625 C 267.285156 46.863281 266.308594 46.84375 265.898438 46.84375 C 265.488281 46.84375 262.988281 46.84375 262.988281 49.167969 C 262.988281 49.949219 263.417969 50.496094 263.691406 50.75 C 264.335938 51.296875 264.785156 51.394531 265.839844 51.609375 C 266.445312 51.726562 267.480469 51.941406 267.480469 52.898438 C 267.480469 54.128906 266.074219 54.128906 265.820312 54.128906 C 265.117188 54.128906 264.0625 53.933594 263.105469 53.230469 L 262.890625 54.460938 C 262.96875 54.519531 264.199219 55.242188 265.839844 55.242188 C 268.164062 55.242188 268.710938 53.855469 268.710938 52.78125 C 268.710938 51.882812 268.164062 51.296875 268.085938 51.21875 C 267.421875 50.535156 266.875 50.417969 265.800781 50.203125 C 265.136719 50.085938 264.238281 49.910156 264.238281 49.011719 C 264.238281 47.898438 265.488281 47.898438 265.722656 47.898438 C 266.660156 47.898438 267.421875 48.113281 268.203125 48.5625 Z M 268.417969 47.390625 "/>
<path style=" stroke:none;fill-rule:nonzero;fill:rgb(0%,0%,0%);fill-opacity:1;" d="M 279.96875 47.390625 C 278.835938 46.863281 277.859375 46.84375 277.449219 46.84375 C 277.039062 46.84375 274.539062 46.84375 274.539062 49.167969 C 274.539062 49.949219 274.96875 50.496094 275.242188 50.75 C 275.886719 51.296875 276.335938 51.394531 277.390625 51.609375 C 277.996094 51.726562 279.03125 51.941406 279.03125 52.898438 C 279.03125 54.128906 277.625 54.128906 277.371094 54.128906 C 276.667969 54.128906 275.613281 53.933594 274.65625 53.230469 L 274.441406 54.460938 C 274.519531 54.519531 275.75 55.242188 277.390625 55.242188 C 279.714844 55.242188 280.261719 53.855469 280.261719 52.78125 C 280.261719 51.882812 279.714844 51.296875 279.636719 51.21875 C 278.972656 50.535156 278.425781 50.417969 277.351562 50.203125 C 276.6875 50.085938 275.789062 49.910156 275.789062 49.011719 C 275.789062 47.898438 277.039062 47.898438 277.273438 47.898438 C 278.210938 47.898438 278.972656 48.113281 279.753906 48.5625 Z M 279.96875 47.390625 "/>
<path style=" stroke:none;fill-rule:nonzero;fill:rgb(0%,0%,0%);fill-opacity:1;" d="M 283.4375 42.625 L 282.109375 42.625 L 282.109375 55.066406 L 283.4375 55.066406 Z M 283.4375 42.625 "/>
<path style=" stroke:none;fill-rule:nonzero;fill:rgb(0%,0%,0%);fill-opacity:1;" d="M 293.125 51.121094 C 293.125 48.699219 291.347656 46.84375 289.296875 46.84375 C 287.1875 46.84375 285.449219 48.738281 285.449219 51.121094 C 285.449219 53.464844 287.226562 55.242188 289.277344 55.242188 C 291.386719 55.242188 293.125 53.425781 293.125 51.121094 Z M 289.296875 54.128906 C 288.007812 54.128906 286.796875 53.054688 286.796875 50.945312 C 286.796875 48.777344 288.144531 47.917969 289.277344 47.917969 C 290.507812 47.917969 291.777344 48.835938 291.777344 50.945312 C 291.777344 53.152344 290.488281 54.128906 289.296875 54.128906 Z M 289.296875 54.128906 "/>
<path style=" stroke:none;fill-rule:nonzero;fill:rgb(0%,0%,0%);fill-opacity:1;" d="M 296.503906 54.265625 C 297.128906 54.8125 297.871094 55.242188 298.847656 55.242188 C 300.566406 55.242188 302.109375 53.503906 302.109375 51.0625 C 302.109375 48.894531 300.957031 46.921875 299.296875 46.921875 C 298.554688 46.921875 297.402344 47.15625 296.484375 47.957031 L 296.484375 47.097656 L 295.15625 47.097656 L 295.15625 58.542969 L 296.503906 58.542969 Z M 296.503906 49.050781 C 296.914062 48.425781 297.597656 48.035156 298.339844 48.035156 C 299.667969 48.035156 300.742188 49.382812 300.742188 51.082031 C 300.742188 52.878906 299.511719 54.167969 298.183594 54.167969 C 297.675781 54.167969 297.34375 53.992188 297.011719 53.738281 C 296.5625 53.347656 296.503906 53.015625 296.503906 52.742188 Z M 296.503906 49.050781 "/>
<path style=" stroke:none;fill-rule:nonzero;fill:rgb(0%,0%,0%);fill-opacity:1;" d="M 310.507812 51.023438 C 310.507812 50.261719 310.429688 49.167969 309.863281 48.210938 C 309.121094 46.980469 307.871094 46.84375 307.34375 46.84375 C 305.410156 46.84375 303.789062 48.699219 303.789062 51.023438 C 303.789062 53.40625 305.507812 55.242188 307.597656 55.242188 C 308.417969 55.242188 309.414062 55.007812 310.390625 54.304688 C 310.390625 54.226562 310.332031 53.660156 310.332031 53.640625 C 310.3125 53.621094 310.292969 53.210938 310.292969 53.152344 C 309.21875 54.050781 308.164062 54.167969 307.636719 54.167969 C 306.25 54.167969 305.058594 52.9375 305.039062 51.023438 Z M 305.136719 50.066406 C 305.449219 48.855469 306.289062 47.917969 307.34375 47.917969 C 307.910156 47.917969 309.140625 48.171875 309.433594 50.066406 Z M 305.136719 50.066406 "/>
</g>
</svg>
