<?xml version="1.0" encoding="UTF-8"?>
<svg xmlns="http://www.w3.org/2000/svg" xmlns:xlink="http://www.w3.org/1999/xlink" width="182.30942pt" height="97.785358pt" viewBox="0 0 182.30942 97.785358" version="1.1">
<g id="surface1">
<path style=" stroke:none;fill-rule:nonzero;fill:rgb(0%,0%,0%);fill-opacity:1;" d="M 7.070312 30.355469 C 7.441406 30.355469 7.578125 30.355469 7.578125 30.023438 C 7.578125 29.828125 7.441406 29.828125 7.109375 29.828125 L 5.664062 29.828125 C 5.996094 27.992188 6.25 26.722656 6.40625 26.136719 C 6.503906 25.707031 6.875 25.296875 7.34375 25.296875 C 7.714844 25.296875 8.105469 25.453125 8.28125 25.628906 C 7.578125 25.6875 7.363281 26.214844 7.363281 26.527344 C 7.363281 26.878906 7.636719 27.09375 7.96875 27.09375 C 8.339844 27.09375 8.867188 26.78125 8.867188 26.097656 C 8.867188 25.355469 8.125 24.945312 7.324219 24.945312 C 6.5625 24.945312 5.800781 25.511719 5.449219 26.214844 C 5.117188 26.839844 4.941406 27.484375 4.53125 29.828125 L 3.339844 29.828125 C 2.988281 29.828125 2.8125 29.828125 2.8125 30.160156 C 2.8125 30.355469 2.910156 30.355469 3.28125 30.355469 L 4.433594 30.355469 C 4.101562 32.015625 3.359375 36.078125 2.949219 37.992188 C 2.65625 39.554688 2.382812 40.863281 1.484375 40.863281 C 1.425781 40.863281 0.917969 40.863281 0.585938 40.511719 C 1.503906 40.453125 1.503906 39.652344 1.503906 39.632812 C 1.503906 39.28125 1.230469 39.066406 0.898438 39.066406 C 0.527344 39.066406 0 39.378906 0 40.0625 C 0 40.824219 0.78125 41.214844 1.484375 41.214844 C 3.320312 41.214844 4.0625 37.933594 4.257812 37.035156 C 4.589844 35.667969 5.46875 30.902344 5.546875 30.355469 Z M 7.070312 30.355469 "/>
<path style=" stroke:none;fill-rule:nonzero;fill:rgb(0%,0%,0%);fill-opacity:1;" d="M 15.550781 41.917969 C 15.550781 41.859375 15.550781 41.820312 15.257812 41.527344 C 13.460938 39.710938 12.464844 36.761719 12.464844 33.089844 C 12.464844 29.613281 13.304688 26.625 15.375 24.515625 C 15.550781 24.339844 15.550781 24.320312 15.550781 24.261719 C 15.550781 24.144531 15.472656 24.125 15.394531 24.125 C 15.160156 24.125 13.695312 25.414062 12.816406 27.171875 C 11.898438 28.96875 11.488281 30.902344 11.488281 33.089844 C 11.488281 34.691406 11.742188 36.820312 12.679688 38.753906 C 13.734375 40.902344 15.199219 42.054688 15.394531 42.054688 C 15.472656 42.054688 15.550781 42.035156 15.550781 41.917969 Z M 15.550781 41.917969 "/>
<path style=" stroke:none;fill-rule:nonzero;fill:rgb(0%,0%,0%);fill-opacity:1;" d="M 25.128906 30.238281 C 24.5625 30.355469 24.347656 30.785156 24.347656 31.117188 C 24.347656 31.546875 24.679688 31.703125 24.933594 31.703125 C 25.480469 31.703125 25.851562 31.234375 25.851562 30.746094 C 25.851562 30.003906 24.992188 29.652344 24.230469 29.652344 C 23.136719 29.652344 22.53125 30.726562 22.375 31.078125 C 21.964844 29.730469 20.851562 29.652344 20.519531 29.652344 C 18.703125 29.652344 17.726562 31.996094 17.726562 32.40625 C 17.726562 32.464844 17.804688 32.5625 17.921875 32.5625 C 18.058594 32.5625 18.097656 32.445312 18.136719 32.386719 C 18.742188 30.394531 19.953125 30.023438 20.460938 30.023438 C 21.28125 30.023438 21.4375 30.765625 21.4375 31.195312 C 21.4375 31.585938 21.339844 31.996094 21.105469 32.855469 L 20.5 35.316406 C 20.246094 36.390625 19.71875 37.386719 18.761719 37.386719 C 18.683594 37.386719 18.234375 37.386719 17.84375 37.152344 C 18.488281 37.015625 18.644531 36.488281 18.644531 36.273438 C 18.644531 35.921875 18.371094 35.707031 18.039062 35.707031 C 17.609375 35.707031 17.140625 36.078125 17.140625 36.644531 C 17.140625 37.40625 17.980469 37.738281 18.742188 37.738281 C 19.601562 37.738281 20.226562 37.054688 20.597656 36.332031 C 20.890625 37.386719 21.769531 37.738281 22.433594 37.738281 C 24.269531 37.738281 25.246094 35.394531 25.246094 35.003906 C 25.246094 34.90625 25.167969 34.828125 25.050781 34.828125 C 24.894531 34.828125 24.875 34.925781 24.835938 35.0625 C 24.347656 36.644531 23.292969 37.386719 22.492188 37.386719 C 21.867188 37.386719 21.535156 36.917969 21.535156 36.175781 C 21.535156 35.785156 21.59375 35.492188 21.886719 34.320312 L 22.511719 31.878906 C 22.785156 30.804688 23.390625 30.023438 24.210938 30.023438 C 24.25 30.023438 24.757812 30.023438 25.128906 30.238281 Z M 25.128906 30.238281 "/>
<path style=" stroke:none;fill-rule:nonzero;fill:rgb(0%,0%,0%);fill-opacity:1;" d="M 31.738281 33.089844 C 31.738281 31.742188 31.5625 29.515625 30.546875 27.425781 C 29.492188 25.277344 28.027344 24.125 27.832031 24.125 C 27.753906 24.125 27.65625 24.144531 27.65625 24.261719 C 27.65625 24.320312 27.65625 24.339844 27.96875 24.652344 C 29.765625 26.46875 30.761719 29.417969 30.761719 33.089844 C 30.761719 36.566406 29.921875 39.554688 27.851562 41.664062 C 27.65625 41.820312 27.65625 41.859375 27.65625 41.917969 C 27.65625 42.035156 27.753906 42.054688 27.832031 42.054688 C 28.066406 42.054688 29.53125 40.765625 30.410156 39.007812 C 31.328125 37.191406 31.738281 35.257812 31.738281 33.089844 Z M 31.738281 33.089844 "/>
<path style=" stroke:none;fill-rule:nonzero;fill:rgb(0%,0%,0%);fill-opacity:1;" d="M 50.339844 31.761719 C 50.59375 31.761719 50.90625 31.761719 50.90625 31.429688 C 50.90625 31.097656 50.59375 31.097656 50.339844 31.097656 L 39.773438 31.097656 C 39.519531 31.097656 39.207031 31.097656 39.207031 31.410156 C 39.207031 31.761719 39.5 31.761719 39.773438 31.761719 Z M 50.339844 35.082031 C 50.59375 35.082031 50.90625 35.082031 50.90625 34.769531 C 50.90625 34.417969 50.59375 34.417969 50.339844 34.417969 L 39.773438 34.417969 C 39.519531 34.417969 39.207031 34.417969 39.207031 34.75 C 39.207031 35.082031 39.5 35.082031 39.773438 35.082031 Z M 50.339844 35.082031 "/>
<path style=" stroke:none;fill-rule:nonzero;fill:rgb(0%,0%,0%);fill-opacity:1;" d="M 66.023438 8.9375 C 66.023438 7.472656 66.414062 4.035156 69.597656 1.789062 C 69.832031 1.59375 69.851562 1.574219 69.851562 1.261719 C 69.851562 0.851562 69.832031 0.832031 69.382812 0.832031 L 69.109375 0.832031 C 65.242188 2.902344 63.875 6.300781 63.875 8.9375 L 63.875 16.652344 C 63.875 17.101562 63.875 17.121094 64.363281 17.121094 L 65.515625 17.121094 C 66.003906 17.121094 66.023438 17.101562 66.023438 16.652344 Z M 66.023438 8.9375 "/>
<path style=" stroke:none;fill-rule:nonzero;fill:rgb(0%,0%,0%);fill-opacity:1;" d="M 63.875 48.988281 C 63.875 49.457031 63.875 49.476562 64.363281 49.476562 L 65.515625 49.476562 C 66.003906 49.476562 66.023438 49.457031 66.023438 48.988281 L 66.023438 41.410156 C 66.023438 39.242188 65.105469 35.589844 61.082031 33.148438 C 65.144531 30.6875 66.023438 26.996094 66.023438 24.886719 L 66.023438 17.328125 C 66.023438 16.859375 66.003906 16.839844 65.515625 16.839844 L 64.363281 16.839844 C 63.875 16.839844 63.875 16.859375 63.875 17.328125 L 63.875 24.90625 C 63.875 26.410156 63.542969 30.140625 60.242188 32.640625 C 60.046875 32.816406 60.027344 32.835938 60.027344 33.148438 C 60.027344 33.480469 60.046875 33.5 60.242188 33.65625 C 60.710938 34.007812 61.941406 34.964844 62.800781 36.78125 C 63.503906 38.207031 63.875 39.808594 63.875 41.390625 Z M 63.875 48.988281 "/>
<path style=" stroke:none;fill-rule:nonzero;fill:rgb(0%,0%,0%);fill-opacity:1;" d="M 69.382812 65.378906 C 69.832031 65.378906 69.851562 65.359375 69.851562 64.949219 C 69.851562 64.636719 69.832031 64.617188 69.773438 64.558594 C 69.207031 64.148438 67.917969 63.230469 67.078125 61.589844 C 66.375 60.222656 66.023438 58.835938 66.023438 57.273438 L 66.023438 49.578125 C 66.023438 49.109375 66.003906 49.089844 65.515625 49.089844 L 64.363281 49.089844 C 63.875 49.089844 63.875 49.109375 63.875 49.578125 L 63.875 57.273438 C 63.875 59.929688 65.242188 63.328125 69.109375 65.378906 Z M 69.382812 65.378906 "/>
<path style=" stroke:none;fill-rule:nonzero;fill:rgb(0%,0%,0%);fill-opacity:1;" d="M 80.261719 4.335938 C 80.261719 4.003906 80.261719 3.925781 80.085938 3.925781 C 79.949219 3.925781 79.597656 4.316406 79.480469 4.472656 C 78.914062 4.023438 78.367188 3.925781 77.78125 3.925781 C 75.613281 3.925781 74.96875 5.097656 74.96875 6.09375 C 74.96875 6.289062 74.96875 6.914062 75.652344 7.539062 C 76.238281 8.046875 76.84375 8.164062 77.664062 8.320312 C 78.640625 8.515625 78.875 8.574219 79.324219 8.945312 C 79.65625 9.199219 79.890625 9.609375 79.890625 10.097656 C 79.890625 10.878906 79.441406 11.738281 77.859375 11.738281 C 76.6875 11.738281 75.808594 11.054688 75.417969 9.257812 C 75.359375 8.945312 75.359375 8.925781 75.339844 8.90625 C 75.300781 8.828125 75.222656 8.828125 75.164062 8.828125 C 74.96875 8.828125 74.96875 8.925781 74.96875 9.238281 L 74.96875 11.679688 C 74.96875 12.011719 74.96875 12.089844 75.144531 12.089844 C 75.242188 12.089844 75.261719 12.070312 75.574219 11.699219 C 75.652344 11.582031 75.652344 11.542969 75.925781 11.25 C 76.609375 12.089844 77.566406 12.089844 77.878906 12.089844 C 79.753906 12.089844 80.691406 11.054688 80.691406 9.628906 C 80.691406 8.671875 80.105469 8.085938 79.949219 7.929688 C 79.304688 7.382812 78.816406 7.265625 77.625 7.050781 C 77.097656 6.953125 75.789062 6.699219 75.789062 5.625 C 75.789062 5.058594 76.160156 4.238281 77.78125 4.238281 C 79.734375 4.238281 79.832031 5.898438 79.871094 6.464844 C 79.890625 6.601562 80.007812 6.601562 80.066406 6.601562 C 80.261719 6.601562 80.261719 6.523438 80.261719 6.191406 Z M 80.261719 4.335938 "/>
<path style=" stroke:none;fill-rule:nonzero;fill:rgb(0%,0%,0%);fill-opacity:1;" d="M 84.40625 0.878906 C 84.40625 0.410156 84.015625 0 83.527344 0 C 83.058594 0 82.667969 0.371094 82.667969 0.859375 C 82.667969 1.386719 83.097656 1.738281 83.527344 1.738281 C 84.074219 1.738281 84.40625 1.269531 84.40625 0.878906 Z M 81.925781 4.199219 L 81.925781 4.726562 C 83.078125 4.726562 83.234375 4.824219 83.234375 5.703125 L 83.234375 10.585938 C 83.234375 11.386719 83.039062 11.386719 81.867188 11.386719 L 81.867188 11.914062 C 82.375 11.875 83.234375 11.875 83.761719 11.875 C 83.957031 11.875 84.992188 11.875 85.597656 11.914062 L 85.597656 11.386719 C 84.445312 11.386719 84.367188 11.308594 84.367188 10.605469 L 84.367188 4.003906 Z M 81.925781 4.199219 "/>
<path style=" stroke:none;fill-rule:nonzero;fill:rgb(0%,0%,0%);fill-opacity:1;" d="M 94.21875 7.558594 C 94.21875 5.898438 94.21875 5.390625 93.789062 4.804688 C 93.28125 4.121094 92.441406 4.003906 91.816406 4.003906 C 90.078125 4.003906 89.394531 5.488281 89.257812 5.859375 L 89.238281 5.859375 L 89.238281 4.003906 L 86.796875 4.199219 L 86.796875 4.726562 C 88.027344 4.726562 88.164062 4.84375 88.164062 5.722656 L 88.164062 10.585938 C 88.164062 11.386719 87.96875 11.386719 86.796875 11.386719 L 86.796875 11.914062 C 87.265625 11.875 88.242188 11.875 88.75 11.875 C 89.257812 11.875 90.234375 11.875 90.703125 11.914062 L 90.703125 11.386719 C 89.550781 11.386719 89.335938 11.386719 89.335938 10.585938 L 89.335938 7.246094 C 89.335938 5.371094 90.566406 4.375 91.679688 4.375 C 92.792969 4.375 93.046875 5.273438 93.046875 6.367188 L 93.046875 10.585938 C 93.046875 11.386719 92.851562 11.386719 91.679688 11.386719 L 91.679688 11.914062 C 92.148438 11.875 93.125 11.875 93.613281 11.875 C 94.140625 11.875 95.097656 11.875 95.566406 11.914062 L 95.566406 11.386719 C 94.667969 11.386719 94.21875 11.386719 94.21875 10.859375 Z M 94.21875 7.558594 "/>
<path style=" stroke:none;fill-rule:nonzero;fill:rgb(0%,0%,0%);fill-opacity:1;" d="M 107.476562 4.589844 C 106.910156 4.707031 106.695312 5.136719 106.695312 5.46875 C 106.695312 5.898438 107.027344 6.054688 107.28125 6.054688 C 107.828125 6.054688 108.199219 5.585938 108.199219 5.097656 C 108.199219 4.355469 107.339844 4.003906 106.578125 4.003906 C 105.484375 4.003906 104.878906 5.078125 104.722656 5.429688 C 104.3125 4.082031 103.199219 4.003906 102.867188 4.003906 C 101.050781 4.003906 100.074219 6.347656 100.074219 6.757812 C 100.074219 6.816406 100.152344 6.914062 100.269531 6.914062 C 100.40625 6.914062 100.445312 6.796875 100.484375 6.738281 C 101.089844 4.746094 102.300781 4.375 102.808594 4.375 C 103.628906 4.375 103.785156 5.117188 103.785156 5.546875 C 103.785156 5.9375 103.6875 6.347656 103.453125 7.207031 L 102.847656 9.667969 C 102.59375 10.742188 102.066406 11.738281 101.109375 11.738281 C 101.03125 11.738281 100.582031 11.738281 100.191406 11.503906 C 100.835938 11.367188 100.992188 10.839844 100.992188 10.625 C 100.992188 10.273438 100.71875 10.058594 100.386719 10.058594 C 99.957031 10.058594 99.488281 10.429688 99.488281 10.996094 C 99.488281 11.757812 100.328125 12.089844 101.089844 12.089844 C 101.949219 12.089844 102.574219 11.40625 102.945312 10.683594 C 103.238281 11.738281 104.117188 12.089844 104.78125 12.089844 C 106.617188 12.089844 107.59375 9.746094 107.59375 9.355469 C 107.59375 9.257812 107.515625 9.179688 107.398438 9.179688 C 107.242188 9.179688 107.222656 9.277344 107.183594 9.414062 C 106.695312 10.996094 105.640625 11.738281 104.839844 11.738281 C 104.214844 11.738281 103.882812 11.269531 103.882812 10.527344 C 103.882812 10.136719 103.941406 9.84375 104.234375 8.671875 L 104.859375 6.230469 C 105.132812 5.15625 105.738281 4.375 106.558594 4.375 C 106.597656 4.375 107.105469 4.375 107.476562 4.589844 Z M 107.476562 4.589844 "/>
<path style=" stroke:none;fill-rule:nonzero;fill:rgb(0%,0%,0%);fill-opacity:1;" d="M 74.367188 19.128906 L 109.015625 19.128906 L 109.015625 19.878906 L 74.367188 19.878906 Z M 74.367188 19.128906 "/>
<path style=" stroke:none;fill-rule:nonzero;fill:rgb(0%,0%,0%);fill-opacity:1;" d="M 84.582031 23.570312 C 84.582031 23.238281 84.582031 22.925781 84.230469 22.925781 C 83.859375 22.925781 83.859375 23.238281 83.859375 23.570312 L 83.859375 40.191406 C 83.859375 40.523438 83.859375 40.835938 84.230469 40.835938 C 84.582031 40.835938 84.582031 40.523438 84.582031 40.191406 Z M 84.582031 23.570312 "/>
<path style=" stroke:none;fill-rule:nonzero;fill:rgb(0%,0%,0%);fill-opacity:1;" d="M 95.179688 29.039062 C 94.613281 29.15625 94.398438 29.585938 94.398438 29.917969 C 94.398438 30.347656 94.730469 30.503906 94.984375 30.503906 C 95.53125 30.503906 95.902344 30.035156 95.902344 29.546875 C 95.902344 28.804688 95.042969 28.453125 94.28125 28.453125 C 93.1875 28.453125 92.582031 29.527344 92.425781 29.878906 C 92.015625 28.53125 90.902344 28.453125 90.570312 28.453125 C 88.753906 28.453125 87.777344 30.796875 87.777344 31.207031 C 87.777344 31.265625 87.855469 31.363281 87.972656 31.363281 C 88.109375 31.363281 88.148438 31.246094 88.1875 31.1875 C 88.792969 29.195312 90.003906 28.824219 90.511719 28.824219 C 91.332031 28.824219 91.488281 29.566406 91.488281 29.996094 C 91.488281 30.386719 91.390625 30.796875 91.15625 31.65625 L 90.550781 34.117188 C 90.296875 35.191406 89.769531 36.1875 88.8125 36.1875 C 88.734375 36.1875 88.285156 36.1875 87.894531 35.953125 C 88.539062 35.816406 88.695312 35.289062 88.695312 35.074219 C 88.695312 34.722656 88.421875 34.507812 88.089844 34.507812 C 87.660156 34.507812 87.191406 34.878906 87.191406 35.445312 C 87.191406 36.207031 88.03125 36.539062 88.792969 36.539062 C 89.652344 36.539062 90.277344 35.855469 90.648438 35.132812 C 90.941406 36.1875 91.820312 36.539062 92.484375 36.539062 C 94.320312 36.539062 95.296875 34.195312 95.296875 33.804688 C 95.296875 33.707031 95.21875 33.628906 95.101562 33.628906 C 94.945312 33.628906 94.925781 33.726562 94.886719 33.863281 C 94.398438 35.445312 93.34375 36.1875 92.542969 36.1875 C 91.917969 36.1875 91.585938 35.71875 91.585938 34.976562 C 91.585938 34.585938 91.644531 34.292969 91.9375 33.121094 L 92.5625 30.679688 C 92.835938 29.605469 93.441406 28.824219 94.261719 28.824219 C 94.300781 28.824219 94.808594 28.824219 95.179688 29.039062 Z M 95.179688 29.039062 "/>
<path style=" stroke:none;fill-rule:nonzero;fill:rgb(0%,0%,0%);fill-opacity:1;" d="M 99.582031 23.570312 C 99.582031 23.238281 99.582031 22.925781 99.230469 22.925781 C 98.859375 22.925781 98.859375 23.238281 98.859375 23.570312 L 98.859375 40.191406 C 98.859375 40.523438 98.859375 40.835938 99.230469 40.835938 C 99.582031 40.835938 99.582031 40.523438 99.582031 40.191406 Z M 99.582031 23.570312 "/>
<path style=" stroke:none;fill-rule:nonzero;fill:rgb(0%,0%,0%);fill-opacity:1;" d="M 119.0625 11.898438 L 117.519531 11.898438 L 117.519531 13.441406 L 119.0625 13.441406 Z M 118.964844 16.097656 L 117.636719 16.097656 L 117.636719 24.066406 L 118.964844 24.066406 Z M 118.964844 16.097656 "/>
<path style=" stroke:none;fill-rule:nonzero;fill:rgb(0%,0%,0%);fill-opacity:1;" d="M 123.539062 17.152344 L 125.453125 17.152344 L 125.453125 16.097656 L 123.5 16.097656 L 123.5 13.949219 C 123.5 12.738281 124.515625 12.523438 125.121094 12.523438 C 125.746094 12.523438 126.292969 12.71875 126.507812 12.796875 L 126.507812 11.625 C 126.390625 11.585938 125.785156 11.449219 125.140625 11.449219 C 123.421875 11.449219 122.210938 12.757812 122.210938 14.496094 L 122.210938 16.097656 L 120.902344 16.097656 L 120.902344 17.152344 L 122.210938 17.152344 L 122.210938 24.066406 L 123.539062 24.066406 Z M 123.539062 17.152344 "/>
<path style=" stroke:none;fill-rule:nonzero;fill:rgb(0%,0%,0%);fill-opacity:1;" d="M 140.027344 16.742188 C 139.460938 16.859375 139.246094 17.289062 139.246094 17.621094 C 139.246094 18.050781 139.578125 18.207031 139.832031 18.207031 C 140.378906 18.207031 140.75 17.738281 140.75 17.25 C 140.75 16.507812 139.890625 16.15625 139.128906 16.15625 C 138.035156 16.15625 137.429688 17.230469 137.273438 17.582031 C 136.863281 16.234375 135.75 16.15625 135.417969 16.15625 C 133.601562 16.15625 132.625 18.5 132.625 18.910156 C 132.625 18.96875 132.703125 19.066406 132.820312 19.066406 C 132.957031 19.066406 132.996094 18.949219 133.035156 18.890625 C 133.640625 16.898438 134.851562 16.527344 135.359375 16.527344 C 136.179688 16.527344 136.335938 17.269531 136.335938 17.699219 C 136.335938 18.089844 136.238281 18.5 136.003906 19.359375 L 135.398438 21.820312 C 135.144531 22.894531 134.617188 23.890625 133.660156 23.890625 C 133.582031 23.890625 133.132812 23.890625 132.742188 23.65625 C 133.386719 23.519531 133.542969 22.992188 133.542969 22.777344 C 133.542969 22.425781 133.269531 22.210938 132.9375 22.210938 C 132.507812 22.210938 132.039062 22.582031 132.039062 23.148438 C 132.039062 23.910156 132.878906 24.242188 133.640625 24.242188 C 134.5 24.242188 135.125 23.558594 135.496094 22.835938 C 135.789062 23.890625 136.667969 24.242188 137.332031 24.242188 C 139.167969 24.242188 140.144531 21.898438 140.144531 21.507812 C 140.144531 21.410156 140.066406 21.332031 139.949219 21.332031 C 139.792969 21.332031 139.773438 21.429688 139.734375 21.566406 C 139.246094 23.148438 138.191406 23.890625 137.390625 23.890625 C 136.765625 23.890625 136.433594 23.421875 136.433594 22.679688 C 136.433594 22.289062 136.492188 21.996094 136.785156 20.824219 L 137.410156 18.382812 C 137.683594 17.308594 138.289062 16.527344 139.109375 16.527344 C 139.148438 16.527344 139.65625 16.527344 140.027344 16.742188 Z M 140.027344 16.742188 "/>
<path style=" stroke:none;fill-rule:nonzero;fill:rgb(0%,0%,0%);fill-opacity:1;" d="M 157.820312 11.9375 C 157.976562 11.683594 157.976562 11.644531 157.976562 11.585938 C 157.976562 11.46875 157.859375 11.234375 157.605469 11.234375 C 157.390625 11.234375 157.351562 11.332031 157.214844 11.585938 L 149.167969 27.230469 C 149.03125 27.484375 149.03125 27.523438 149.03125 27.582031 C 149.03125 27.71875 149.148438 27.933594 149.382812 27.933594 C 149.597656 27.933594 149.65625 27.835938 149.773438 27.582031 Z M 157.820312 11.9375 "/>
<path style=" stroke:none;fill-rule:nonzero;fill:rgb(0%,0%,0%);fill-opacity:1;" d="M 158.640625 18.265625 C 158.894531 18.265625 159.207031 18.265625 159.207031 17.933594 C 159.207031 17.601562 158.894531 17.601562 158.640625 17.601562 L 148.074219 17.601562 C 147.820312 17.601562 147.507812 17.601562 147.507812 17.914062 C 147.507812 18.265625 147.800781 18.265625 148.074219 18.265625 Z M 158.640625 21.585938 C 158.894531 21.585938 159.207031 21.585938 159.207031 21.273438 C 159.207031 20.921875 158.894531 20.921875 158.640625 20.921875 L 148.074219 20.921875 C 147.820312 20.921875 147.507812 20.921875 147.507812 21.253906 C 147.507812 21.585938 147.800781 21.585938 148.074219 21.585938 Z M 158.640625 21.585938 "/>
<path style=" stroke:none;fill-rule:nonzero;fill:rgb(0%,0%,0%);fill-opacity:1;" d="M 173.160156 18.324219 C 173.160156 16.839844 173.082031 15.394531 172.4375 14.027344 C 171.695312 12.542969 170.40625 12.152344 169.527344 12.152344 C 168.492188 12.152344 167.203125 12.660156 166.558594 14.144531 C 166.050781 15.277344 165.875 16.390625 165.875 18.324219 C 165.875 20.0625 165.992188 21.371094 166.636719 22.640625 C 167.339844 24.007812 168.570312 24.4375 169.507812 24.4375 C 171.070312 24.4375 171.96875 23.519531 172.476562 22.464844 C 173.121094 21.117188 173.160156 19.359375 173.160156 18.324219 Z M 169.507812 24.085938 C 168.941406 24.085938 167.769531 23.753906 167.4375 21.800781 C 167.222656 20.726562 167.222656 19.359375 167.222656 18.109375 C 167.222656 16.644531 167.222656 15.316406 167.515625 14.261719 C 167.828125 13.050781 168.746094 12.503906 169.507812 12.503906 C 170.191406 12.503906 171.226562 12.914062 171.578125 14.457031 C 171.792969 15.472656 171.792969 16.898438 171.792969 18.109375 C 171.792969 19.320312 171.792969 20.667969 171.597656 21.761719 C 171.265625 23.734375 170.132812 24.085938 169.507812 24.085938 Z M 169.507812 24.085938 "/>
<path style=" stroke:none;fill-rule:nonzero;fill:rgb(0%,0%,0%);fill-opacity:1;" d="M 78.039062 47.082031 C 78.039062 46.652344 78.039062 46.652344 77.6875 46.652344 C 77.257812 47.121094 76.359375 47.785156 74.523438 47.785156 L 74.523438 48.3125 C 74.933594 48.3125 75.832031 48.3125 76.808594 47.84375 L 76.808594 57.179688 C 76.808594 57.824219 76.75 58.039062 75.1875 58.039062 L 74.621094 58.039062 L 74.621094 58.566406 C 75.109375 58.527344 76.847656 58.527344 77.433594 58.527344 C 78.019531 58.527344 79.757812 58.527344 80.226562 58.566406 L 80.226562 58.039062 L 79.679688 58.039062 C 78.097656 58.039062 78.039062 57.824219 78.039062 57.179688 Z M 78.039062 47.082031 "/>
<path style=" stroke:none;fill-rule:nonzero;fill:rgb(0%,0%,0%);fill-opacity:1;" d="M 90.414062 46.398438 L 88.871094 46.398438 L 88.871094 47.941406 L 90.414062 47.941406 Z M 90.316406 50.597656 L 88.988281 50.597656 L 88.988281 58.566406 L 90.316406 58.566406 Z M 90.316406 50.597656 "/>
<path style=" stroke:none;fill-rule:nonzero;fill:rgb(0%,0%,0%);fill-opacity:1;" d="M 94.886719 51.652344 L 96.800781 51.652344 L 96.800781 50.597656 L 94.847656 50.597656 L 94.847656 48.449219 C 94.847656 47.238281 95.863281 47.023438 96.46875 47.023438 C 97.09375 47.023438 97.640625 47.21875 97.855469 47.296875 L 97.855469 46.125 C 97.738281 46.085938 97.132812 45.949219 96.488281 45.949219 C 94.769531 45.949219 93.558594 47.257812 93.558594 48.996094 L 93.558594 50.597656 L 92.25 50.597656 L 92.25 51.652344 L 93.558594 51.652344 L 93.558594 58.566406 L 94.886719 58.566406 Z M 94.886719 51.652344 "/>
<path style=" stroke:none;fill-rule:nonzero;fill:rgb(0%,0%,0%);fill-opacity:1;" d="M 111.378906 51.242188 C 110.8125 51.359375 110.597656 51.789062 110.597656 52.121094 C 110.597656 52.550781 110.929688 52.707031 111.183594 52.707031 C 111.730469 52.707031 112.101562 52.238281 112.101562 51.75 C 112.101562 51.007812 111.242188 50.65625 110.480469 50.65625 C 109.386719 50.65625 108.78125 51.730469 108.625 52.082031 C 108.214844 50.734375 107.101562 50.65625 106.769531 50.65625 C 104.953125 50.65625 103.976562 53 103.976562 53.410156 C 103.976562 53.46875 104.054688 53.566406 104.171875 53.566406 C 104.308594 53.566406 104.347656 53.449219 104.386719 53.390625 C 104.992188 51.398438 106.203125 51.027344 106.710938 51.027344 C 107.53125 51.027344 107.6875 51.769531 107.6875 52.199219 C 107.6875 52.589844 107.589844 53 107.355469 53.859375 L 106.75 56.320312 C 106.496094 57.394531 105.96875 58.390625 105.011719 58.390625 C 104.933594 58.390625 104.484375 58.390625 104.09375 58.15625 C 104.738281 58.019531 104.894531 57.492188 104.894531 57.277344 C 104.894531 56.925781 104.621094 56.710938 104.289062 56.710938 C 103.859375 56.710938 103.390625 57.082031 103.390625 57.648438 C 103.390625 58.410156 104.230469 58.742188 104.992188 58.742188 C 105.851562 58.742188 106.476562 58.058594 106.847656 57.335938 C 107.140625 58.390625 108.019531 58.742188 108.683594 58.742188 C 110.519531 58.742188 111.496094 56.398438 111.496094 56.007812 C 111.496094 55.910156 111.417969 55.832031 111.300781 55.832031 C 111.144531 55.832031 111.125 55.929688 111.085938 56.066406 C 110.597656 57.648438 109.542969 58.390625 108.742188 58.390625 C 108.117188 58.390625 107.785156 57.921875 107.785156 57.179688 C 107.785156 56.789062 107.84375 56.496094 108.136719 55.324219 L 108.761719 52.882812 C 109.035156 51.808594 109.640625 51.027344 110.460938 51.027344 C 110.5 51.027344 111.007812 51.027344 111.378906 51.242188 Z M 111.378906 51.242188 "/>
<path style=" stroke:none;fill-rule:nonzero;fill:rgb(0%,0%,0%);fill-opacity:1;" d="M 129.992188 52.765625 C 130.246094 52.765625 130.558594 52.765625 130.558594 52.433594 C 130.558594 52.101562 130.246094 52.101562 129.992188 52.101562 L 119.425781 52.101562 C 119.171875 52.101562 118.859375 52.101562 118.859375 52.414062 C 118.859375 52.765625 119.152344 52.765625 119.425781 52.765625 Z M 129.992188 56.085938 C 130.246094 56.085938 130.558594 56.085938 130.558594 55.773438 C 130.558594 55.421875 130.246094 55.421875 129.992188 55.421875 L 119.425781 55.421875 C 119.171875 55.421875 118.859375 55.421875 118.859375 55.753906 C 118.859375 56.085938 119.152344 56.085938 119.425781 56.085938 Z M 129.992188 56.085938 "/>
<path style=" stroke:none;fill-rule:nonzero;fill:rgb(0%,0%,0%);fill-opacity:1;" d="M 144.507812 52.824219 C 144.507812 51.339844 144.429688 49.894531 143.785156 48.527344 C 143.042969 47.042969 141.753906 46.652344 140.875 46.652344 C 139.839844 46.652344 138.550781 47.160156 137.90625 48.644531 C 137.398438 49.777344 137.222656 50.890625 137.222656 52.824219 C 137.222656 54.5625 137.339844 55.871094 137.984375 57.140625 C 138.6875 58.507812 139.917969 58.9375 140.855469 58.9375 C 142.417969 58.9375 143.316406 58.019531 143.824219 56.964844 C 144.46875 55.617188 144.507812 53.859375 144.507812 52.824219 Z M 140.855469 58.585938 C 140.289062 58.585938 139.117188 58.253906 138.785156 56.300781 C 138.570312 55.226562 138.570312 53.859375 138.570312 52.609375 C 138.570312 51.144531 138.570312 49.816406 138.863281 48.761719 C 139.175781 47.550781 140.09375 47.003906 140.855469 47.003906 C 141.539062 47.003906 142.574219 47.414062 142.925781 48.957031 C 143.140625 49.972656 143.140625 51.398438 143.140625 52.609375 C 143.140625 53.820312 143.140625 55.167969 142.945312 56.261719 C 142.613281 58.234375 141.480469 58.585938 140.855469 58.585938 Z M 140.855469 58.585938 "/>
<path style=" stroke:none;fill-rule:nonzero;fill:rgb(0%,0%,0%);fill-opacity:1;" d="M 1.914062 85.246094 L 0.371094 85.246094 L 0.371094 86.789062 L 1.914062 86.789062 Z M 1.816406 89.445312 L 0.488281 89.445312 L 0.488281 97.414062 L 1.816406 97.414062 Z M 1.816406 89.445312 "/>
<path style=" stroke:none;fill-rule:nonzero;fill:rgb(0%,0%,0%);fill-opacity:1;" d="M 9.296875 89.738281 C 8.164062 89.210938 7.1875 89.191406 6.777344 89.191406 C 6.367188 89.191406 3.867188 89.191406 3.867188 91.515625 C 3.867188 92.296875 4.296875 92.84375 4.570312 93.097656 C 5.214844 93.644531 5.664062 93.742188 6.71875 93.957031 C 7.324219 94.074219 8.359375 94.289062 8.359375 95.246094 C 8.359375 96.476562 6.953125 96.476562 6.699219 96.476562 C 5.996094 96.476562 4.941406 96.28125 3.984375 95.578125 L 3.769531 96.808594 C 3.847656 96.867188 5.078125 97.589844 6.71875 97.589844 C 9.042969 97.589844 9.589844 96.203125 9.589844 95.128906 C 9.589844 94.230469 9.042969 93.644531 8.964844 93.566406 C 8.300781 92.882812 7.753906 92.765625 6.679688 92.550781 C 6.015625 92.433594 5.117188 92.257812 5.117188 91.359375 C 5.117188 90.246094 6.367188 90.246094 6.601562 90.246094 C 7.539062 90.246094 8.300781 90.460938 9.082031 90.910156 Z M 9.296875 89.738281 "/>
<path style=" stroke:none;fill-rule:nonzero;fill:rgb(0%,0%,0%);fill-opacity:1;" d="M 23.460938 84.972656 L 22.132812 84.972656 L 22.132812 90.207031 C 21.3125 89.523438 20.375 89.269531 19.613281 89.269531 C 17.914062 89.269531 16.507812 91.105469 16.507812 93.429688 C 16.507812 95.753906 17.835938 97.589844 19.535156 97.589844 C 20.199219 97.589844 21.214844 97.375 22.113281 96.496094 L 22.113281 97.414062 L 23.460938 97.414062 Z M 22.113281 95.304688 C 21.683594 96.066406 21.039062 96.515625 20.257812 96.515625 C 19.164062 96.515625 17.875 95.675781 17.875 93.449219 C 17.875 91.066406 19.398438 90.34375 20.433594 90.34375 C 21.136719 90.34375 21.703125 90.714844 22.113281 91.300781 Z M 22.113281 95.304688 "/>
<path style=" stroke:none;fill-rule:nonzero;fill:rgb(0%,0%,0%);fill-opacity:1;" d="M 27.714844 85.246094 L 26.171875 85.246094 L 26.171875 86.789062 L 27.714844 86.789062 Z M 27.617188 89.445312 L 26.289062 89.445312 L 26.289062 97.414062 L 27.617188 97.414062 Z M 27.617188 89.445312 "/>
<path style=" stroke:none;fill-rule:nonzero;fill:rgb(0%,0%,0%);fill-opacity:1;" d="M 35.097656 89.738281 C 33.964844 89.210938 32.988281 89.191406 32.578125 89.191406 C 32.167969 89.191406 29.667969 89.191406 29.667969 91.515625 C 29.667969 92.296875 30.097656 92.84375 30.371094 93.097656 C 31.015625 93.644531 31.464844 93.742188 32.519531 93.957031 C 33.125 94.074219 34.160156 94.289062 34.160156 95.246094 C 34.160156 96.476562 32.753906 96.476562 32.5 96.476562 C 31.796875 96.476562 30.742188 96.28125 29.785156 95.578125 L 29.570312 96.808594 C 29.648438 96.867188 30.878906 97.589844 32.519531 97.589844 C 34.84375 97.589844 35.390625 96.203125 35.390625 95.128906 C 35.390625 94.230469 34.84375 93.644531 34.765625 93.566406 C 34.101562 92.882812 33.554688 92.765625 32.480469 92.550781 C 31.816406 92.433594 30.917969 92.257812 30.917969 91.359375 C 30.917969 90.246094 32.167969 90.246094 32.402344 90.246094 C 33.339844 90.246094 34.101562 90.460938 34.882812 90.910156 Z M 35.097656 89.738281 "/>
<path style=" stroke:none;fill-rule:nonzero;fill:rgb(0%,0%,0%);fill-opacity:1;" d="M 43.019531 95.480469 C 42.199219 96.144531 41.28125 96.476562 40.285156 96.476562 C 38.78125 96.476562 37.824219 95.148438 37.824219 93.410156 C 37.824219 91.925781 38.546875 90.304688 40.324219 90.304688 C 41.535156 90.304688 42.042969 90.578125 42.804688 91.105469 L 43.019531 89.933594 C 41.984375 89.328125 41.398438 89.191406 40.324219 89.191406 C 37.863281 89.191406 36.457031 91.378906 36.457031 93.410156 C 36.457031 95.714844 38.117188 97.589844 40.265625 97.589844 C 41.144531 97.589844 42.140625 97.375 43.136719 96.652344 C 43.136719 96.613281 43.078125 96.046875 43.058594 95.988281 Z M 43.019531 95.480469 "/>
<path style=" stroke:none;fill-rule:nonzero;fill:rgb(0%,0%,0%);fill-opacity:1;" d="M 51.855469 93.46875 C 51.855469 91.046875 50.078125 89.191406 48.027344 89.191406 C 45.917969 89.191406 44.179688 91.085938 44.179688 93.46875 C 44.179688 95.8125 45.957031 97.589844 48.007812 97.589844 C 50.117188 97.589844 51.855469 95.773438 51.855469 93.46875 Z M 48.027344 96.476562 C 46.738281 96.476562 45.527344 95.402344 45.527344 93.292969 C 45.527344 91.125 46.875 90.265625 48.007812 90.265625 C 49.238281 90.265625 50.507812 91.183594 50.507812 93.292969 C 50.507812 95.5 49.21875 96.476562 48.027344 96.476562 Z M 48.027344 96.476562 "/>
<path style=" stroke:none;fill-rule:nonzero;fill:rgb(0%,0%,0%);fill-opacity:1;" d="M 60.078125 92.023438 C 60.078125 90.929688 59.84375 89.269531 57.675781 89.269531 C 56.679688 89.269531 55.820312 89.71875 55.136719 90.578125 L 55.136719 89.367188 L 53.867188 89.367188 L 53.867188 97.414062 L 55.214844 97.414062 L 55.214844 92.941406 C 55.214844 91.847656 55.644531 90.34375 56.992188 90.34375 C 58.671875 90.34375 58.710938 91.515625 58.710938 92.140625 L 58.710938 97.414062 L 60.078125 97.414062 Z M 60.078125 92.023438 "/>
<path style=" stroke:none;fill-rule:nonzero;fill:rgb(0%,0%,0%);fill-opacity:1;" d="M 64.546875 90.5 L 67.027344 90.5 L 67.027344 89.445312 L 64.546875 89.445312 L 64.546875 87.179688 L 63.316406 87.179688 L 63.316406 89.445312 L 61.8125 89.445312 L 61.8125 90.5 L 63.277344 90.5 L 63.277344 95.324219 C 63.277344 96.359375 63.511719 97.589844 64.742188 97.589844 C 65.953125 97.589844 66.773438 97.179688 67.320312 96.886719 L 67.046875 95.851562 C 66.421875 96.417969 65.757812 96.476562 65.445312 96.476562 C 64.644531 96.476562 64.546875 95.636719 64.546875 95.011719 Z M 64.546875 90.5 "/>
<path style=" stroke:none;fill-rule:nonzero;fill:rgb(0%,0%,0%);fill-opacity:1;" d="M 70.613281 85.246094 L 69.070312 85.246094 L 69.070312 86.789062 L 70.613281 86.789062 Z M 70.515625 89.445312 L 69.1875 89.445312 L 69.1875 97.414062 L 70.515625 97.414062 Z M 70.515625 89.445312 "/>
<path style=" stroke:none;fill-rule:nonzero;fill:rgb(0%,0%,0%);fill-opacity:1;" d="M 79.578125 92.023438 C 79.578125 90.929688 79.34375 89.269531 77.175781 89.269531 C 76.179688 89.269531 75.320312 89.71875 74.636719 90.578125 L 74.636719 89.367188 L 73.367188 89.367188 L 73.367188 97.414062 L 74.714844 97.414062 L 74.714844 92.941406 C 74.714844 91.847656 75.144531 90.34375 76.492188 90.34375 C 78.171875 90.34375 78.210938 91.515625 78.210938 92.140625 L 78.210938 97.414062 L 79.578125 97.414062 Z M 79.578125 92.023438 "/>
<path style=" stroke:none;fill-rule:nonzero;fill:rgb(0%,0%,0%);fill-opacity:1;" d="M 88.578125 89.445312 L 87.210938 89.445312 L 87.210938 94.582031 C 87.210938 95.949219 86.273438 96.613281 85.101562 96.613281 C 83.851562 96.613281 83.714844 96.144531 83.714844 95.34375 L 83.714844 89.445312 L 82.367188 89.445312 L 82.367188 95.421875 C 82.367188 96.710938 82.777344 97.589844 84.242188 97.589844 C 84.75 97.589844 86.15625 97.511719 87.25 96.515625 L 87.25 97.414062 L 88.578125 97.414062 Z M 88.578125 89.445312 "/>
<path style=" stroke:none;fill-rule:nonzero;fill:rgb(0%,0%,0%);fill-opacity:1;" d="M 98.203125 93.46875 C 98.203125 91.046875 96.425781 89.191406 94.375 89.191406 C 92.265625 89.191406 90.527344 91.085938 90.527344 93.46875 C 90.527344 95.8125 92.304688 97.589844 94.355469 97.589844 C 96.464844 97.589844 98.203125 95.773438 98.203125 93.46875 Z M 94.375 96.476562 C 93.085938 96.476562 91.875 95.402344 91.875 93.292969 C 91.875 91.125 93.222656 90.265625 94.355469 90.265625 C 95.585938 90.265625 96.855469 91.183594 96.855469 93.292969 C 96.855469 95.5 95.566406 96.476562 94.375 96.476562 Z M 94.375 96.476562 "/>
<path style=" stroke:none;fill-rule:nonzero;fill:rgb(0%,0%,0%);fill-opacity:1;" d="M 106.429688 89.445312 L 105.0625 89.445312 L 105.0625 94.582031 C 105.0625 95.949219 104.125 96.613281 102.953125 96.613281 C 101.703125 96.613281 101.566406 96.144531 101.566406 95.34375 L 101.566406 89.445312 L 100.21875 89.445312 L 100.21875 95.421875 C 100.21875 96.710938 100.628906 97.589844 102.09375 97.589844 C 102.601562 97.589844 104.007812 97.511719 105.101562 96.515625 L 105.101562 97.414062 L 106.429688 97.414062 Z M 106.429688 89.445312 "/>
<path style=" stroke:none;fill-rule:nonzero;fill:rgb(0%,0%,0%);fill-opacity:1;" d="M 113.847656 89.738281 C 112.714844 89.210938 111.738281 89.191406 111.328125 89.191406 C 110.917969 89.191406 108.417969 89.191406 108.417969 91.515625 C 108.417969 92.296875 108.847656 92.84375 109.121094 93.097656 C 109.765625 93.644531 110.214844 93.742188 111.269531 93.957031 C 111.875 94.074219 112.910156 94.289062 112.910156 95.246094 C 112.910156 96.476562 111.503906 96.476562 111.25 96.476562 C 110.546875 96.476562 109.492188 96.28125 108.535156 95.578125 L 108.320312 96.808594 C 108.398438 96.867188 109.628906 97.589844 111.269531 97.589844 C 113.59375 97.589844 114.140625 96.203125 114.140625 95.128906 C 114.140625 94.230469 113.59375 93.644531 113.515625 93.566406 C 112.851562 92.882812 112.304688 92.765625 111.230469 92.550781 C 110.566406 92.433594 109.667969 92.257812 109.667969 91.359375 C 109.667969 90.246094 110.917969 90.246094 111.152344 90.246094 C 112.089844 90.246094 112.851562 90.460938 113.632812 90.910156 Z M 113.847656 89.738281 "/>
<path style=" stroke:none;fill-rule:nonzero;fill:rgb(0%,0%,0%);fill-opacity:1;" d="M 127.144531 92.160156 C 127.144531 90.441406 125.914062 89.191406 124.234375 89.191406 C 123.160156 89.191406 122.359375 89.425781 121.480469 89.933594 L 121.578125 91.125 C 122.378906 90.539062 123.199219 90.226562 124.234375 90.226562 C 125.054688 90.226562 125.777344 90.890625 125.777344 92.199219 L 125.777344 92.941406 C 124.976562 92.960938 123.902344 93.019531 122.828125 93.371094 C 121.617188 93.800781 120.914062 94.464844 120.914062 95.34375 C 120.914062 96.144531 121.382812 97.589844 122.90625 97.589844 C 123.902344 97.589844 125.152344 97.296875 125.816406 96.75 L 125.816406 97.414062 L 127.144531 97.414062 Z M 125.777344 95.011719 C 125.777344 95.363281 125.777344 95.792969 125.191406 96.164062 C 124.703125 96.457031 124.097656 96.515625 123.824219 96.515625 C 122.867188 96.515625 122.203125 95.988281 122.203125 95.34375 C 122.203125 94.113281 124.683594 93.839844 125.777344 93.839844 Z M 125.777344 95.011719 "/>
<path style=" stroke:none;fill-rule:nonzero;fill:rgb(0%,0%,0%);fill-opacity:1;" d="M 131.597656 90.5 L 134.078125 90.5 L 134.078125 89.445312 L 131.597656 89.445312 L 131.597656 87.179688 L 130.367188 87.179688 L 130.367188 89.445312 L 128.863281 89.445312 L 128.863281 90.5 L 130.328125 90.5 L 130.328125 95.324219 C 130.328125 96.359375 130.5625 97.589844 131.792969 97.589844 C 133.003906 97.589844 133.824219 97.179688 134.371094 96.886719 L 134.097656 95.851562 C 133.472656 96.417969 132.808594 96.476562 132.496094 96.476562 C 131.695312 96.476562 131.597656 95.636719 131.597656 95.011719 Z M 131.597656 90.5 "/>
<path style=" stroke:none;fill-rule:nonzero;fill:rgb(0%,0%,0%);fill-opacity:1;" d="M 149.179688 90.089844 C 148.613281 90.207031 148.398438 90.636719 148.398438 90.96875 C 148.398438 91.398438 148.730469 91.554688 148.984375 91.554688 C 149.53125 91.554688 149.902344 91.085938 149.902344 90.597656 C 149.902344 89.855469 149.042969 89.503906 148.28125 89.503906 C 147.1875 89.503906 146.582031 90.578125 146.425781 90.929688 C 146.015625 89.582031 144.902344 89.503906 144.570312 89.503906 C 142.753906 89.503906 141.777344 91.847656 141.777344 92.257812 C 141.777344 92.316406 141.855469 92.414062 141.972656 92.414062 C 142.109375 92.414062 142.148438 92.296875 142.1875 92.238281 C 142.792969 90.246094 144.003906 89.875 144.511719 89.875 C 145.332031 89.875 145.488281 90.617188 145.488281 91.046875 C 145.488281 91.4375 145.390625 91.847656 145.15625 92.707031 L 144.550781 95.167969 C 144.296875 96.242188 143.769531 97.238281 142.8125 97.238281 C 142.734375 97.238281 142.285156 97.238281 141.894531 97.003906 C 142.539062 96.867188 142.695312 96.339844 142.695312 96.125 C 142.695312 95.773438 142.421875 95.558594 142.089844 95.558594 C 141.660156 95.558594 141.191406 95.929688 141.191406 96.496094 C 141.191406 97.257812 142.03125 97.589844 142.792969 97.589844 C 143.652344 97.589844 144.277344 96.90625 144.648438 96.183594 C 144.941406 97.238281 145.820312 97.589844 146.484375 97.589844 C 148.320312 97.589844 149.296875 95.246094 149.296875 94.855469 C 149.296875 94.757812 149.21875 94.679688 149.101562 94.679688 C 148.945312 94.679688 148.925781 94.777344 148.886719 94.914062 C 148.398438 96.496094 147.34375 97.238281 146.542969 97.238281 C 145.917969 97.238281 145.585938 96.769531 145.585938 96.027344 C 145.585938 95.636719 145.644531 95.34375 145.9375 94.171875 L 146.5625 91.730469 C 146.835938 90.65625 147.441406 89.875 148.261719 89.875 C 148.300781 89.875 148.808594 89.875 149.179688 90.089844 Z M 149.179688 90.089844 "/>
<path style=" stroke:none;fill-rule:nonzero;fill:rgb(0%,0%,0%);fill-opacity:1;" d="M 167.792969 91.613281 C 168.046875 91.613281 168.359375 91.613281 168.359375 91.28125 C 168.359375 90.949219 168.046875 90.949219 167.792969 90.949219 L 157.226562 90.949219 C 156.972656 90.949219 156.660156 90.949219 156.660156 91.261719 C 156.660156 91.613281 156.953125 91.613281 157.226562 91.613281 Z M 167.792969 94.933594 C 168.046875 94.933594 168.359375 94.933594 168.359375 94.621094 C 168.359375 94.269531 168.046875 94.269531 167.792969 94.269531 L 157.226562 94.269531 C 156.972656 94.269531 156.660156 94.269531 156.660156 94.601562 C 156.660156 94.933594 156.953125 94.933594 157.226562 94.933594 Z M 167.792969 94.933594 "/>
<path style=" stroke:none;fill-rule:nonzero;fill:rgb(0%,0%,0%);fill-opacity:1;" d="M 182.308594 91.671875 C 182.308594 90.1875 182.230469 88.742188 181.585938 87.375 C 180.84375 85.890625 179.554688 85.5 178.675781 85.5 C 177.640625 85.5 176.351562 86.007812 175.707031 87.492188 C 175.199219 88.625 175.023438 89.738281 175.023438 91.671875 C 175.023438 93.410156 175.140625 94.71875 175.785156 95.988281 C 176.488281 97.355469 177.71875 97.785156 178.65625 97.785156 C 180.21875 97.785156 181.117188 96.867188 181.625 95.8125 C 182.269531 94.464844 182.308594 92.707031 182.308594 91.671875 Z M 178.65625 97.433594 C 178.089844 97.433594 176.917969 97.101562 176.585938 95.148438 C 176.371094 94.074219 176.371094 92.707031 176.371094 91.457031 C 176.371094 89.992188 176.371094 88.664062 176.664062 87.609375 C 176.976562 86.398438 177.894531 85.851562 178.65625 85.851562 C 179.339844 85.851562 180.375 86.261719 180.726562 87.804688 C 180.941406 88.820312 180.941406 90.246094 180.941406 91.457031 C 180.941406 92.667969 180.941406 94.015625 180.746094 95.109375 C 180.414062 97.082031 179.28125 97.433594 178.65625 97.433594 Z M 178.65625 97.433594 "/>
</g>
</svg>
