<?xml version="1.0" encoding="UTF-8"?>
<svg xmlns="http://www.w3.org/2000/svg" xmlns:xlink="http://www.w3.org/1999/xlink" width="247.53751pt" height="59.539595pt" viewBox="0 0 247.53751 59.539595" version="1.1">
<g id="surface1">
<path style=" stroke:none;fill-rule:nonzero;fill:rgb(0%,0%,100%);fill-opacity:1;" d="M 2.382812 0.996094 L 0.839844 0.996094 L 0.839844 13.4375 L 7.949219 13.4375 L 7.949219 12.285156 C 6.367188 12.324219 4.804688 12.324219 3.242188 12.324219 L 2.382812 12.324219 Z M 2.382812 0.996094 "/>
<path style=" stroke:none;fill-rule:nonzero;fill:rgb(0%,0%,100%);fill-opacity:1;" d="M 11.5 1.269531 L 9.957031 1.269531 L 9.957031 2.8125 L 11.5 2.8125 Z M 11.402344 5.46875 L 10.074219 5.46875 L 10.074219 13.4375 L 11.402344 13.4375 Z M 11.402344 5.46875 "/>
<path style=" stroke:none;fill-rule:nonzero;fill:rgb(0%,0%,100%);fill-opacity:1;" d="M 25.367188 8.046875 C 25.367188 6.796875 25.035156 5.292969 22.945312 5.292969 C 21.421875 5.292969 20.582031 6.347656 20.308594 6.757812 C 19.976562 5.625 19 5.292969 18.0625 5.292969 C 16.597656 5.292969 15.816406 6.25 15.523438 6.621094 L 15.523438 5.390625 L 14.253906 5.390625 L 14.253906 13.4375 L 15.601562 13.4375 L 15.601562 8.964844 C 15.601562 7.792969 16.070312 6.367188 17.378906 6.367188 C 19.039062 6.367188 19.117188 7.5 19.117188 8.164062 L 19.117188 13.4375 L 20.484375 13.4375 L 20.484375 8.964844 C 20.484375 7.792969 20.953125 6.367188 22.261719 6.367188 C 23.902344 6.367188 24 7.5 24 8.164062 L 24 13.4375 L 25.367188 13.4375 Z M 25.367188 8.046875 "/>
<path style=" stroke:none;fill-rule:nonzero;fill:rgb(0%,0%,100%);fill-opacity:1;" d="M 29.652344 1.269531 L 28.109375 1.269531 L 28.109375 2.8125 L 29.652344 2.8125 Z M 29.554688 5.46875 L 28.226562 5.46875 L 28.226562 13.4375 L 29.554688 13.4375 Z M 29.554688 5.46875 "/>
<path style=" stroke:none;fill-rule:nonzero;fill:rgb(0%,0%,100%);fill-opacity:1;" d="M 34.085938 6.523438 L 36.566406 6.523438 L 36.566406 5.46875 L 34.085938 5.46875 L 34.085938 3.203125 L 32.855469 3.203125 L 32.855469 5.46875 L 31.351562 5.46875 L 31.351562 6.523438 L 32.816406 6.523438 L 32.816406 11.347656 C 32.816406 12.382812 33.050781 13.613281 34.28125 13.613281 C 35.492188 13.613281 36.3125 13.203125 36.859375 12.910156 L 36.585938 11.875 C 35.960938 12.441406 35.296875 12.5 34.984375 12.5 C 34.183594 12.5 34.085938 11.660156 34.085938 11.035156 Z M 34.085938 6.523438 "/>
<path style=" stroke:none;fill-rule:nonzero;fill:rgb(0%,0%,100%);fill-opacity:1;" d="M 43.335938 5.761719 C 42.203125 5.234375 41.226562 5.214844 40.816406 5.214844 C 40.40625 5.214844 37.90625 5.214844 37.90625 7.539062 C 37.90625 8.320312 38.335938 8.867188 38.609375 9.121094 C 39.253906 9.667969 39.703125 9.765625 40.757812 9.980469 C 41.363281 10.097656 42.398438 10.3125 42.398438 11.269531 C 42.398438 12.5 40.992188 12.5 40.738281 12.5 C 40.035156 12.5 38.980469 12.304688 38.023438 11.601562 L 37.808594 12.832031 C 37.886719 12.890625 39.117188 13.613281 40.757812 13.613281 C 43.082031 13.613281 43.628906 12.226562 43.628906 11.152344 C 43.628906 10.253906 43.082031 9.667969 43.003906 9.589844 C 42.339844 8.90625 41.792969 8.789062 40.71875 8.574219 C 40.054688 8.457031 39.15625 8.28125 39.15625 7.382812 C 39.15625 6.269531 40.40625 6.269531 40.640625 6.269531 C 41.578125 6.269531 42.339844 6.484375 43.121094 6.933594 Z M 43.335938 5.761719 "/>
<path style=" stroke:none;fill-rule:nonzero;fill:rgb(0%,0%,100%);fill-opacity:1;" d="M 54.535156 0 C 51.839844 2.402344 51.175781 6.035156 51.175781 8.964844 C 51.175781 12.109375 51.9375 15.625 54.535156 17.929688 L 55.609375 17.929688 C 54.90625 17.285156 53.8125 15.898438 53.1875 13.867188 C 52.71875 12.265625 52.523438 10.605469 52.523438 8.964844 C 52.523438 3.691406 54.417969 1.09375 55.609375 0 Z M 54.535156 0 "/>
<path style=" stroke:none;fill-rule:nonzero;fill:rgb(0%,0%,100%);fill-opacity:1;" d="M 63.425781 2.1875 L 65.007812 2.1875 C 65.222656 2.1875 65.4375 2.207031 65.652344 2.207031 L 67.996094 2.207031 L 67.996094 1.074219 L 57.292969 1.074219 L 57.292969 2.207031 L 59.65625 2.207031 C 59.871094 2.207031 60.085938 2.1875 60.300781 2.1875 L 61.882812 2.1875 L 61.882812 13.4375 L 63.425781 13.4375 Z M 63.425781 2.1875 "/>
<path style=" stroke:none;fill-rule:nonzero;fill:rgb(0%,0%,100%);fill-opacity:1;" d="M 69.902344 9.511719 C 69.902344 7.695312 71.25 6.523438 72.871094 6.503906 L 72.871094 5.292969 C 71.230469 5.3125 70.292969 6.269531 69.804688 6.972656 L 69.804688 5.390625 L 68.574219 5.390625 L 68.574219 13.4375 L 69.902344 13.4375 Z M 69.902344 9.511719 "/>
<path style=" stroke:none;fill-rule:nonzero;fill:rgb(0%,0%,100%);fill-opacity:1;" d="M 76 1.269531 L 74.457031 1.269531 L 74.457031 2.8125 L 76 2.8125 Z M 75.902344 5.46875 L 74.574219 5.46875 L 74.574219 13.4375 L 75.902344 13.4375 Z M 75.902344 5.46875 "/>
<path style=" stroke:none;fill-rule:nonzero;fill:rgb(0%,0%,100%);fill-opacity:1;" d="M 83.480469 6.367188 C 83.480469 6.367188 83.519531 6.40625 83.539062 6.445312 C 83.910156 6.40625 84.300781 6.347656 84.964844 6.347656 C 85.023438 6.347656 85.433594 6.347656 85.882812 6.386719 L 85.6875 5.292969 C 85.355469 5.292969 84.125 5.3125 82.933594 5.898438 C 82.347656 5.390625 81.625 5.292969 81.273438 5.292969 C 79.710938 5.292969 78.460938 6.601562 78.460938 8.183594 C 78.460938 8.828125 78.65625 9.414062 79.046875 9.960938 C 78.636719 10.527344 78.539062 11.074219 78.539062 11.503906 C 78.539062 12.167969 78.792969 12.617188 78.988281 12.851562 C 78.070312 13.4375 77.855469 14.199219 77.855469 14.707031 C 77.855469 16.015625 79.554688 17.109375 81.742188 17.109375 C 83.929688 17.109375 85.648438 16.054688 85.648438 14.6875 C 85.648438 12.1875 82.738281 12.1875 82.015625 12.1875 L 80.492188 12.1875 C 80.238281 12.1875 79.457031 12.1875 79.457031 11.230469 C 79.457031 10.839844 79.535156 10.722656 79.652344 10.566406 C 79.945312 10.78125 80.53125 11.09375 81.253906 11.09375 C 82.796875 11.09375 84.066406 9.824219 84.066406 8.183594 C 84.066406 7.539062 83.832031 6.875 83.460938 6.386719 Z M 81.273438 10.097656 C 80.492188 10.097656 79.691406 9.570312 79.691406 8.203125 C 79.691406 6.601562 80.707031 6.289062 81.253906 6.289062 C 82.054688 6.289062 82.835938 6.816406 82.835938 8.183594 C 82.835938 9.785156 81.839844 10.097656 81.273438 10.097656 Z M 82.035156 13.476562 C 82.425781 13.476562 84.398438 13.476562 84.398438 14.707031 C 84.398438 15.527344 83.167969 16.132812 81.761719 16.132812 C 80.355469 16.132812 79.105469 15.566406 79.105469 14.6875 C 79.105469 14.648438 79.105469 13.476562 80.472656 13.476562 Z M 82.035156 13.476562 "/>
<path style=" stroke:none;fill-rule:nonzero;fill:rgb(0%,0%,100%);fill-opacity:1;" d="M 94.441406 9.492188 C 94.441406 7.070312 92.664062 5.214844 90.613281 5.214844 C 88.503906 5.214844 86.765625 7.109375 86.765625 9.492188 C 86.765625 11.835938 88.542969 13.613281 90.59375 13.613281 C 92.703125 13.613281 94.441406 11.796875 94.441406 9.492188 Z M 90.613281 12.5 C 89.324219 12.5 88.113281 11.425781 88.113281 9.316406 C 88.113281 7.148438 89.460938 6.289062 90.59375 6.289062 C 91.824219 6.289062 93.09375 7.207031 93.09375 9.316406 C 93.09375 11.523438 91.804688 12.5 90.613281 12.5 Z M 90.613281 12.5 "/>
<path style=" stroke:none;fill-rule:nonzero;fill:rgb(0%,0%,100%);fill-opacity:1;" d="M 102.664062 8.046875 C 102.664062 6.953125 102.429688 5.292969 100.261719 5.292969 C 99.265625 5.292969 98.40625 5.742188 97.722656 6.601562 L 97.722656 5.390625 L 96.453125 5.390625 L 96.453125 13.4375 L 97.800781 13.4375 L 97.800781 8.964844 C 97.800781 7.871094 98.230469 6.367188 99.578125 6.367188 C 101.257812 6.367188 101.296875 7.539062 101.296875 8.164062 L 101.296875 13.4375 L 102.664062 13.4375 Z M 102.664062 8.046875 "/>
<path style=" stroke:none;fill-rule:nonzero;fill:rgb(0%,0%,100%);fill-opacity:1;" d="M 112.289062 9.492188 C 112.289062 7.070312 110.511719 5.214844 108.460938 5.214844 C 106.351562 5.214844 104.613281 7.109375 104.613281 9.492188 C 104.613281 11.835938 106.390625 13.613281 108.441406 13.613281 C 110.550781 13.613281 112.289062 11.796875 112.289062 9.492188 Z M 108.460938 12.5 C 107.171875 12.5 105.960938 11.425781 105.960938 9.316406 C 105.960938 7.148438 107.308594 6.289062 108.441406 6.289062 C 109.671875 6.289062 110.941406 7.207031 110.941406 9.316406 C 110.941406 11.523438 109.652344 12.5 108.460938 12.5 Z M 108.460938 12.5 "/>
<path style=" stroke:none;fill-rule:nonzero;fill:rgb(0%,0%,100%);fill-opacity:1;" d="M 125.417969 8.046875 C 125.417969 6.796875 125.085938 5.292969 122.996094 5.292969 C 121.472656 5.292969 120.632812 6.347656 120.359375 6.757812 C 120.027344 5.625 119.050781 5.292969 118.113281 5.292969 C 116.648438 5.292969 115.867188 6.25 115.574219 6.621094 L 115.574219 5.390625 L 114.304688 5.390625 L 114.304688 13.4375 L 115.652344 13.4375 L 115.652344 8.964844 C 115.652344 7.792969 116.121094 6.367188 117.429688 6.367188 C 119.089844 6.367188 119.167969 7.5 119.167969 8.164062 L 119.167969 13.4375 L 120.535156 13.4375 L 120.535156 8.964844 C 120.535156 7.792969 121.003906 6.367188 122.3125 6.367188 C 123.953125 6.367188 124.050781 7.5 124.050781 8.164062 L 124.050781 13.4375 L 125.417969 13.4375 Z M 125.417969 8.046875 "/>
<path style=" stroke:none;fill-rule:nonzero;fill:rgb(0%,0%,100%);fill-opacity:1;" d="M 134.171875 9.394531 C 134.171875 8.632812 134.09375 7.539062 133.527344 6.582031 C 132.785156 5.351562 131.535156 5.214844 131.007812 5.214844 C 129.074219 5.214844 127.453125 7.070312 127.453125 9.394531 C 127.453125 11.777344 129.171875 13.613281 131.261719 13.613281 C 132.082031 13.613281 133.078125 13.378906 134.054688 12.675781 C 134.054688 12.597656 133.996094 12.03125 133.996094 12.011719 C 133.976562 11.992188 133.957031 11.582031 133.957031 11.523438 C 132.882812 12.421875 131.828125 12.539062 131.300781 12.539062 C 129.914062 12.539062 128.722656 11.308594 128.703125 9.394531 Z M 128.800781 8.4375 C 129.113281 7.226562 129.953125 6.289062 131.007812 6.289062 C 131.574219 6.289062 132.804688 6.542969 133.097656 8.4375 Z M 128.800781 8.4375 "/>
<path style=" stroke:none;fill-rule:nonzero;fill:rgb(0%,0%,100%);fill-opacity:1;" d="M 137.734375 6.523438 L 140.214844 6.523438 L 140.214844 5.46875 L 137.734375 5.46875 L 137.734375 3.203125 L 136.503906 3.203125 L 136.503906 5.46875 L 135 5.46875 L 135 6.523438 L 136.464844 6.523438 L 136.464844 11.347656 C 136.464844 12.382812 136.699219 13.613281 137.929688 13.613281 C 139.140625 13.613281 139.960938 13.203125 140.507812 12.910156 L 140.234375 11.875 C 139.609375 12.441406 138.945312 12.5 138.632812 12.5 C 137.832031 12.5 137.734375 11.660156 137.734375 11.035156 Z M 137.734375 6.523438 "/>
<path style=" stroke:none;fill-rule:nonzero;fill:rgb(0%,0%,100%);fill-opacity:1;" d="M 143.703125 9.511719 C 143.703125 7.695312 145.050781 6.523438 146.671875 6.503906 L 146.671875 5.292969 C 145.03125 5.3125 144.09375 6.269531 143.605469 6.972656 L 143.605469 5.390625 L 142.375 5.390625 L 142.375 13.4375 L 143.703125 13.4375 Z M 143.703125 9.511719 "/>
<path style=" stroke:none;fill-rule:nonzero;fill:rgb(0%,0%,100%);fill-opacity:1;" d="M 149.800781 1.269531 L 148.257812 1.269531 L 148.257812 2.8125 L 149.800781 2.8125 Z M 149.703125 5.46875 L 148.375 5.46875 L 148.375 13.4375 L 149.703125 13.4375 Z M 149.703125 5.46875 "/>
<path style=" stroke:none;fill-rule:nonzero;fill:rgb(0%,0%,100%);fill-opacity:1;" d="M 158.355469 11.503906 C 157.535156 12.167969 156.617188 12.5 155.621094 12.5 C 154.117188 12.5 153.160156 11.171875 153.160156 9.433594 C 153.160156 7.949219 153.882812 6.328125 155.660156 6.328125 C 156.871094 6.328125 157.378906 6.601562 158.140625 7.128906 L 158.355469 5.957031 C 157.320312 5.351562 156.734375 5.214844 155.660156 5.214844 C 153.199219 5.214844 151.792969 7.402344 151.792969 9.433594 C 151.792969 11.738281 153.453125 13.613281 155.601562 13.613281 C 156.480469 13.613281 157.476562 13.398438 158.472656 12.675781 C 158.472656 12.636719 158.414062 12.070312 158.394531 12.011719 Z M 158.355469 11.503906 "/>
<path style=" stroke:none;fill-rule:nonzero;fill:rgb(0%,0%,100%);fill-opacity:1;" d="M 161.019531 17.929688 C 163.695312 15.527344 164.378906 11.894531 164.378906 8.964844 C 164.378906 5.820312 163.617188 2.304688 161.019531 0 L 159.945312 0 C 160.628906 0.644531 161.722656 2.03125 162.367188 4.0625 C 162.835938 5.664062 163.011719 7.324219 163.011719 8.964844 C 163.011719 14.238281 161.136719 16.835938 159.945312 17.929688 Z M 161.019531 17.929688 "/>
<path style=" stroke:none;fill-rule:nonzero;fill:rgb(0%,0%,0%);fill-opacity:1;" d="M 7.695312 28.921875 L 7.695312 27.847656 L 2.382812 27.847656 L 2.382812 23.296875 L 4.6875 23.296875 C 4.902344 23.296875 5.117188 23.316406 5.332031 23.316406 L 8.4375 23.316406 L 8.4375 22.183594 L 0.839844 22.183594 L 0.839844 34.585938 L 2.382812 34.585938 L 2.382812 28.921875 Z M 7.695312 28.921875 "/>
<path style=" stroke:none;fill-rule:nonzero;fill:rgb(0%,0%,0%);fill-opacity:1;" d="M 16.265625 26.617188 L 14.898438 26.617188 L 14.898438 31.753906 C 14.898438 33.121094 13.960938 33.785156 12.789062 33.785156 C 11.539062 33.785156 11.402344 33.316406 11.402344 32.515625 L 11.402344 26.617188 L 10.054688 26.617188 L 10.054688 32.59375 C 10.054688 33.882812 10.464844 34.761719 11.929688 34.761719 C 12.4375 34.761719 13.84375 34.683594 14.9375 33.6875 L 14.9375 34.585938 L 16.265625 34.585938 Z M 16.265625 26.617188 "/>
<path style=" stroke:none;fill-rule:nonzero;fill:rgb(0%,0%,0%);fill-opacity:1;" d="M 25.265625 29.195312 C 25.265625 28.101562 25.03125 26.441406 22.863281 26.441406 C 21.867188 26.441406 21.007812 26.890625 20.324219 27.75 L 20.324219 26.539062 L 19.054688 26.539062 L 19.054688 34.585938 L 20.402344 34.585938 L 20.402344 30.113281 C 20.402344 29.019531 20.832031 27.515625 22.179688 27.515625 C 23.859375 27.515625 23.898438 28.6875 23.898438 29.3125 L 23.898438 34.585938 L 25.265625 34.585938 Z M 25.265625 29.195312 "/>
<path style=" stroke:none;fill-rule:nonzero;fill:rgb(0%,0%,0%);fill-opacity:1;" d="M 34.246094 22.144531 L 32.917969 22.144531 L 32.917969 27.378906 C 32.097656 26.695312 31.160156 26.441406 30.398438 26.441406 C 28.699219 26.441406 27.292969 28.277344 27.292969 30.601562 C 27.292969 32.925781 28.621094 34.761719 30.320312 34.761719 C 30.984375 34.761719 32 34.546875 32.898438 33.667969 L 32.898438 34.585938 L 34.246094 34.585938 Z M 32.898438 32.476562 C 32.46875 33.238281 31.824219 33.6875 31.042969 33.6875 C 29.949219 33.6875 28.660156 32.847656 28.660156 30.621094 C 28.660156 28.238281 30.183594 27.515625 31.21875 27.515625 C 31.921875 27.515625 32.488281 27.886719 32.898438 28.472656 Z M 32.898438 32.476562 "/>
<path style=" stroke:none;fill-rule:nonzero;fill:rgb(0%,0%,0%);fill-opacity:1;" d="M 42.679688 29.332031 C 42.679688 27.613281 41.449219 26.363281 39.769531 26.363281 C 38.695312 26.363281 37.894531 26.597656 37.015625 27.105469 L 37.113281 28.296875 C 37.914062 27.710938 38.734375 27.398438 39.769531 27.398438 C 40.589844 27.398438 41.3125 28.0625 41.3125 29.371094 L 41.3125 30.113281 C 40.511719 30.132812 39.4375 30.191406 38.363281 30.542969 C 37.152344 30.972656 36.449219 31.636719 36.449219 32.515625 C 36.449219 33.316406 36.917969 34.761719 38.441406 34.761719 C 39.4375 34.761719 40.6875 34.46875 41.351562 33.921875 L 41.351562 34.585938 L 42.679688 34.585938 Z M 41.3125 32.183594 C 41.3125 32.535156 41.3125 32.964844 40.726562 33.335938 C 40.238281 33.628906 39.632812 33.6875 39.359375 33.6875 C 38.402344 33.6875 37.738281 33.160156 37.738281 32.515625 C 37.738281 31.285156 40.21875 31.011719 41.3125 31.011719 Z M 41.3125 32.183594 "/>
<path style=" stroke:none;fill-rule:nonzero;fill:rgb(0%,0%,0%);fill-opacity:1;" d="M 56.570312 29.195312 C 56.570312 27.945312 56.238281 26.441406 54.148438 26.441406 C 52.625 26.441406 51.785156 27.496094 51.511719 27.90625 C 51.179688 26.773438 50.203125 26.441406 49.265625 26.441406 C 47.800781 26.441406 47.019531 27.398438 46.726562 27.769531 L 46.726562 26.539062 L 45.457031 26.539062 L 45.457031 34.585938 L 46.804688 34.585938 L 46.804688 30.113281 C 46.804688 28.941406 47.273438 27.515625 48.582031 27.515625 C 50.242188 27.515625 50.320312 28.648438 50.320312 29.3125 L 50.320312 34.585938 L 51.6875 34.585938 L 51.6875 30.113281 C 51.6875 28.941406 52.15625 27.515625 53.464844 27.515625 C 55.105469 27.515625 55.203125 28.648438 55.203125 29.3125 L 55.203125 34.585938 L 56.570312 34.585938 Z M 56.570312 29.195312 "/>
<path style=" stroke:none;fill-rule:nonzero;fill:rgb(0%,0%,0%);fill-opacity:1;" d="M 65.324219 30.542969 C 65.324219 29.78125 65.246094 28.6875 64.679688 27.730469 C 63.9375 26.5 62.6875 26.363281 62.160156 26.363281 C 60.226562 26.363281 58.605469 28.21875 58.605469 30.542969 C 58.605469 32.925781 60.324219 34.761719 62.414062 34.761719 C 63.234375 34.761719 64.230469 34.527344 65.207031 33.824219 C 65.207031 33.746094 65.148438 33.179688 65.148438 33.160156 C 65.128906 33.140625 65.109375 32.730469 65.109375 32.671875 C 64.035156 33.570312 62.980469 33.6875 62.453125 33.6875 C 61.066406 33.6875 59.875 32.457031 59.855469 30.542969 Z M 59.953125 29.585938 C 60.265625 28.375 61.105469 27.4375 62.160156 27.4375 C 62.726562 27.4375 63.957031 27.691406 64.25 29.585938 Z M 59.953125 29.585938 "/>
<path style=" stroke:none;fill-rule:nonzero;fill:rgb(0%,0%,0%);fill-opacity:1;" d="M 73.417969 29.195312 C 73.417969 28.101562 73.183594 26.441406 71.015625 26.441406 C 70.019531 26.441406 69.160156 26.890625 68.476562 27.75 L 68.476562 26.539062 L 67.207031 26.539062 L 67.207031 34.585938 L 68.554688 34.585938 L 68.554688 30.113281 C 68.554688 29.019531 68.984375 27.515625 70.332031 27.515625 C 72.011719 27.515625 72.050781 28.6875 72.050781 29.3125 L 72.050781 34.585938 L 73.417969 34.585938 Z M 73.417969 29.195312 "/>
<path style=" stroke:none;fill-rule:nonzero;fill:rgb(0%,0%,0%);fill-opacity:1;" d="M 77.886719 27.671875 L 80.367188 27.671875 L 80.367188 26.617188 L 77.886719 26.617188 L 77.886719 24.351562 L 76.65625 24.351562 L 76.65625 26.617188 L 75.152344 26.617188 L 75.152344 27.671875 L 76.617188 27.671875 L 76.617188 32.496094 C 76.617188 33.53125 76.851562 34.761719 78.082031 34.761719 C 79.292969 34.761719 80.113281 34.351562 80.660156 34.058594 L 80.386719 33.023438 C 79.761719 33.589844 79.097656 33.648438 78.785156 33.648438 C 77.984375 33.648438 77.886719 32.808594 77.886719 32.183594 Z M 77.886719 27.671875 "/>
<path style=" stroke:none;fill-rule:nonzero;fill:rgb(0%,0%,0%);fill-opacity:1;" d="M 88.128906 29.332031 C 88.128906 27.613281 86.898438 26.363281 85.21875 26.363281 C 84.144531 26.363281 83.34375 26.597656 82.464844 27.105469 L 82.5625 28.296875 C 83.363281 27.710938 84.183594 27.398438 85.21875 27.398438 C 86.039062 27.398438 86.761719 28.0625 86.761719 29.371094 L 86.761719 30.113281 C 85.960938 30.132812 84.886719 30.191406 83.8125 30.542969 C 82.601562 30.972656 81.898438 31.636719 81.898438 32.515625 C 81.898438 33.316406 82.367188 34.761719 83.890625 34.761719 C 84.886719 34.761719 86.136719 34.46875 86.800781 33.921875 L 86.800781 34.585938 L 88.128906 34.585938 Z M 86.761719 32.183594 C 86.761719 32.535156 86.761719 32.964844 86.175781 33.335938 C 85.6875 33.628906 85.082031 33.6875 84.808594 33.6875 C 83.851562 33.6875 83.1875 33.160156 83.1875 32.515625 C 83.1875 31.285156 85.667969 31.011719 86.761719 31.011719 Z M 86.761719 32.183594 "/>
<path style=" stroke:none;fill-rule:nonzero;fill:rgb(0%,0%,0%);fill-opacity:1;" d="M 92.253906 22.144531 L 90.925781 22.144531 L 90.925781 34.585938 L 92.253906 34.585938 Z M 92.253906 22.144531 "/>
<path style=" stroke:none;fill-rule:nonzero;fill:rgb(0%,0%,0%);fill-opacity:1;" d="M 101.703125 22.144531 L 100.375 22.144531 L 100.375 34.585938 L 101.703125 34.585938 Z M 101.703125 22.144531 "/>
<path style=" stroke:none;fill-rule:nonzero;fill:rgb(0%,0%,0%);fill-opacity:1;" d="M 106 22.417969 L 104.457031 22.417969 L 104.457031 23.960938 L 106 23.960938 Z M 105.902344 26.617188 L 104.574219 26.617188 L 104.574219 34.585938 L 105.902344 34.585938 Z M 105.902344 26.617188 "/>
<path style=" stroke:none;fill-rule:nonzero;fill:rgb(0%,0%,0%);fill-opacity:1;" d="M 119.867188 29.195312 C 119.867188 27.945312 119.535156 26.441406 117.445312 26.441406 C 115.921875 26.441406 115.082031 27.496094 114.808594 27.90625 C 114.476562 26.773438 113.5 26.441406 112.5625 26.441406 C 111.097656 26.441406 110.316406 27.398438 110.023438 27.769531 L 110.023438 26.539062 L 108.753906 26.539062 L 108.753906 34.585938 L 110.101562 34.585938 L 110.101562 30.113281 C 110.101562 28.941406 110.570312 27.515625 111.878906 27.515625 C 113.539062 27.515625 113.617188 28.648438 113.617188 29.3125 L 113.617188 34.585938 L 114.984375 34.585938 L 114.984375 30.113281 C 114.984375 28.941406 115.453125 27.515625 116.761719 27.515625 C 118.402344 27.515625 118.5 28.648438 118.5 29.3125 L 118.5 34.585938 L 119.867188 34.585938 Z M 119.867188 29.195312 "/>
<path style=" stroke:none;fill-rule:nonzero;fill:rgb(0%,0%,0%);fill-opacity:1;" d="M 124.148438 22.417969 L 122.605469 22.417969 L 122.605469 23.960938 L 124.148438 23.960938 Z M 124.050781 26.617188 L 122.722656 26.617188 L 122.722656 34.585938 L 124.050781 34.585938 Z M 124.050781 26.617188 "/>
<path style=" stroke:none;fill-rule:nonzero;fill:rgb(0%,0%,0%);fill-opacity:1;" d="M 128.585938 27.671875 L 131.066406 27.671875 L 131.066406 26.617188 L 128.585938 26.617188 L 128.585938 24.351562 L 127.355469 24.351562 L 127.355469 26.617188 L 125.851562 26.617188 L 125.851562 27.671875 L 127.316406 27.671875 L 127.316406 32.496094 C 127.316406 33.53125 127.550781 34.761719 128.78125 34.761719 C 129.992188 34.761719 130.8125 34.351562 131.359375 34.058594 L 131.085938 33.023438 C 130.460938 33.589844 129.796875 33.648438 129.484375 33.648438 C 128.683594 33.648438 128.585938 32.808594 128.585938 32.183594 Z M 128.585938 27.671875 "/>
<path style=" stroke:none;fill-rule:nonzero;fill:rgb(0%,0%,0%);fill-opacity:1;" d="M 137.832031 26.910156 C 136.699219 26.382812 135.722656 26.363281 135.3125 26.363281 C 134.902344 26.363281 132.402344 26.363281 132.402344 28.6875 C 132.402344 29.46875 132.832031 30.015625 133.105469 30.269531 C 133.75 30.816406 134.199219 30.914062 135.253906 31.128906 C 135.859375 31.246094 136.894531 31.460938 136.894531 32.417969 C 136.894531 33.648438 135.488281 33.648438 135.234375 33.648438 C 134.53125 33.648438 133.476562 33.453125 132.519531 32.75 L 132.304688 33.980469 C 132.382812 34.039062 133.613281 34.761719 135.253906 34.761719 C 137.578125 34.761719 138.125 33.375 138.125 32.300781 C 138.125 31.402344 137.578125 30.816406 137.5 30.738281 C 136.835938 30.054688 136.289062 29.9375 135.214844 29.722656 C 134.550781 29.605469 133.652344 29.429688 133.652344 28.53125 C 133.652344 27.417969 134.902344 27.417969 135.136719 27.417969 C 136.074219 27.417969 136.835938 27.632812 137.617188 28.082031 Z M 137.832031 26.910156 "/>
<path style=" stroke:none;fill-rule:nonzero;fill:rgb(0%,0%,0%);fill-opacity:1;" d="M 146.472656 27.671875 L 148.386719 27.671875 L 148.386719 26.617188 L 146.433594 26.617188 L 146.433594 24.46875 C 146.433594 23.257812 147.449219 23.042969 148.054688 23.042969 C 148.679688 23.042969 149.226562 23.238281 149.441406 23.316406 L 149.441406 22.144531 C 149.324219 22.105469 148.71875 21.96875 148.074219 21.96875 C 146.355469 21.96875 145.144531 23.277344 145.144531 25.015625 L 145.144531 26.617188 L 143.835938 26.617188 L 143.835938 27.671875 L 145.144531 27.671875 L 145.144531 34.585938 L 146.472656 34.585938 Z M 146.472656 27.671875 "/>
<path style=" stroke:none;fill-rule:nonzero;fill:rgb(0%,0%,0%);fill-opacity:1;" d="M 156.074219 30.542969 C 156.074219 29.78125 155.996094 28.6875 155.429688 27.730469 C 154.6875 26.5 153.4375 26.363281 152.910156 26.363281 C 150.976562 26.363281 149.355469 28.21875 149.355469 30.542969 C 149.355469 32.925781 151.074219 34.761719 153.164062 34.761719 C 153.984375 34.761719 154.980469 34.527344 155.957031 33.824219 C 155.957031 33.746094 155.898438 33.179688 155.898438 33.160156 C 155.878906 33.140625 155.859375 32.730469 155.859375 32.671875 C 154.785156 33.570312 153.730469 33.6875 153.203125 33.6875 C 151.816406 33.6875 150.625 32.457031 150.605469 30.542969 Z M 150.703125 29.585938 C 151.015625 28.375 151.855469 27.4375 152.910156 27.4375 C 153.476562 27.4375 154.707031 27.691406 155 29.585938 Z M 150.703125 29.585938 "/>
<path style=" stroke:none;fill-rule:nonzero;fill:rgb(0%,0%,0%);fill-opacity:1;" d="M 163.578125 29.332031 C 163.578125 27.613281 162.347656 26.363281 160.667969 26.363281 C 159.59375 26.363281 158.792969 26.597656 157.914062 27.105469 L 158.011719 28.296875 C 158.8125 27.710938 159.632812 27.398438 160.667969 27.398438 C 161.488281 27.398438 162.210938 28.0625 162.210938 29.371094 L 162.210938 30.113281 C 161.410156 30.132812 160.335938 30.191406 159.261719 30.542969 C 158.050781 30.972656 157.347656 31.636719 157.347656 32.515625 C 157.347656 33.316406 157.816406 34.761719 159.339844 34.761719 C 160.335938 34.761719 161.585938 34.46875 162.25 33.921875 L 162.25 34.585938 L 163.578125 34.585938 Z M 162.210938 32.183594 C 162.210938 32.535156 162.210938 32.964844 161.625 33.335938 C 161.136719 33.628906 160.53125 33.6875 160.257812 33.6875 C 159.300781 33.6875 158.636719 33.160156 158.636719 32.515625 C 158.636719 31.285156 161.117188 31.011719 162.210938 31.011719 Z M 162.210938 32.183594 "/>
<path style=" stroke:none;fill-rule:nonzero;fill:rgb(0%,0%,0%);fill-opacity:1;" d="M 168.035156 27.671875 L 170.515625 27.671875 L 170.515625 26.617188 L 168.035156 26.617188 L 168.035156 24.351562 L 166.804688 24.351562 L 166.804688 26.617188 L 165.300781 26.617188 L 165.300781 27.671875 L 166.765625 27.671875 L 166.765625 32.496094 C 166.765625 33.53125 167 34.761719 168.230469 34.761719 C 169.441406 34.761719 170.261719 34.351562 170.808594 34.058594 L 170.535156 33.023438 C 169.910156 33.589844 169.246094 33.648438 168.933594 33.648438 C 168.132812 33.648438 168.035156 32.808594 168.035156 32.183594 Z M 168.035156 27.671875 "/>
<path style=" stroke:none;fill-rule:nonzero;fill:rgb(0%,0%,0%);fill-opacity:1;" d="M 178.867188 26.617188 L 177.5 26.617188 L 177.5 31.753906 C 177.5 33.121094 176.5625 33.785156 175.390625 33.785156 C 174.140625 33.785156 174.003906 33.316406 174.003906 32.515625 L 174.003906 26.617188 L 172.65625 26.617188 L 172.65625 32.59375 C 172.65625 33.882812 173.066406 34.761719 174.53125 34.761719 C 175.039062 34.761719 176.445312 34.683594 177.539062 33.6875 L 177.539062 34.585938 L 178.867188 34.585938 Z M 178.867188 26.617188 "/>
<path style=" stroke:none;fill-rule:nonzero;fill:rgb(0%,0%,0%);fill-opacity:1;" d="M 183.335938 27.671875 L 185.816406 27.671875 L 185.816406 26.617188 L 183.335938 26.617188 L 183.335938 24.351562 L 182.105469 24.351562 L 182.105469 26.617188 L 180.601562 26.617188 L 180.601562 27.671875 L 182.066406 27.671875 L 182.066406 32.496094 C 182.066406 33.53125 182.300781 34.761719 183.53125 34.761719 C 184.742188 34.761719 185.5625 34.351562 186.109375 34.058594 L 185.835938 33.023438 C 185.210938 33.589844 184.546875 33.648438 184.234375 33.648438 C 183.433594 33.648438 183.335938 32.808594 183.335938 32.183594 Z M 183.335938 27.671875 "/>
<path style=" stroke:none;fill-rule:nonzero;fill:rgb(0%,0%,0%);fill-opacity:1;" d="M 189.398438 22.417969 L 187.855469 22.417969 L 187.855469 23.960938 L 189.398438 23.960938 Z M 189.300781 26.617188 L 187.972656 26.617188 L 187.972656 34.585938 L 189.300781 34.585938 Z M 189.300781 26.617188 "/>
<path style=" stroke:none;fill-rule:nonzero;fill:rgb(0%,0%,0%);fill-opacity:1;" d="M 198.367188 29.195312 C 198.367188 28.101562 198.132812 26.441406 195.964844 26.441406 C 194.96875 26.441406 194.109375 26.890625 193.425781 27.75 L 193.425781 26.539062 L 192.15625 26.539062 L 192.15625 34.585938 L 193.503906 34.585938 L 193.503906 30.113281 C 193.503906 29.019531 193.933594 27.515625 195.28125 27.515625 C 196.960938 27.515625 197 28.6875 197 29.3125 L 197 34.585938 L 198.367188 34.585938 Z M 198.367188 29.195312 "/>
<path style=" stroke:none;fill-rule:nonzero;fill:rgb(0%,0%,0%);fill-opacity:1;" d="M 205.882812 27.515625 C 205.882812 27.515625 205.921875 27.554688 205.941406 27.59375 C 206.3125 27.554688 206.703125 27.496094 207.367188 27.496094 C 207.425781 27.496094 207.835938 27.496094 208.285156 27.535156 L 208.089844 26.441406 C 207.757812 26.441406 206.527344 26.460938 205.335938 27.046875 C 204.75 26.539062 204.027344 26.441406 203.675781 26.441406 C 202.113281 26.441406 200.863281 27.75 200.863281 29.332031 C 200.863281 29.976562 201.058594 30.5625 201.449219 31.109375 C 201.039062 31.675781 200.941406 32.222656 200.941406 32.652344 C 200.941406 33.316406 201.195312 33.765625 201.390625 34 C 200.472656 34.585938 200.257812 35.347656 200.257812 35.855469 C 200.257812 37.164062 201.957031 38.257812 204.144531 38.257812 C 206.332031 38.257812 208.050781 37.203125 208.050781 35.835938 C 208.050781 33.335938 205.140625 33.335938 204.417969 33.335938 L 202.894531 33.335938 C 202.640625 33.335938 201.859375 33.335938 201.859375 32.378906 C 201.859375 31.988281 201.9375 31.871094 202.054688 31.714844 C 202.347656 31.929688 202.933594 32.242188 203.65625 32.242188 C 205.199219 32.242188 206.46875 30.972656 206.46875 29.332031 C 206.46875 28.6875 206.234375 28.023438 205.863281 27.535156 Z M 203.675781 31.246094 C 202.894531 31.246094 202.09375 30.71875 202.09375 29.351562 C 202.09375 27.75 203.109375 27.4375 203.65625 27.4375 C 204.457031 27.4375 205.238281 27.964844 205.238281 29.332031 C 205.238281 30.933594 204.242188 31.246094 203.675781 31.246094 Z M 204.4375 34.625 C 204.828125 34.625 206.800781 34.625 206.800781 35.855469 C 206.800781 36.675781 205.570312 37.28125 204.164062 37.28125 C 202.757812 37.28125 201.507812 36.714844 201.507812 35.835938 C 201.507812 35.796875 201.507812 34.625 202.875 34.625 Z M 204.4375 34.625 "/>
<path style=" stroke:none;fill-rule:nonzero;fill:rgb(0%,0%,0%);fill-opacity:1;" d="M 219.597656 27.007812 C 219.597656 26.675781 219.597656 26.597656 219.421875 26.597656 C 219.285156 26.597656 218.933594 26.988281 218.816406 27.144531 C 218.25 26.695312 217.703125 26.597656 217.117188 26.597656 C 214.949219 26.597656 214.304688 27.769531 214.304688 28.765625 C 214.304688 28.960938 214.304688 29.585938 214.988281 30.210938 C 215.574219 30.71875 216.179688 30.835938 217 30.992188 C 217.976562 31.1875 218.210938 31.246094 218.660156 31.617188 C 218.992188 31.871094 219.226562 32.28125 219.226562 32.769531 C 219.226562 33.550781 218.777344 34.410156 217.195312 34.410156 C 216.023438 34.410156 215.144531 33.726562 214.753906 31.929688 C 214.695312 31.617188 214.695312 31.597656 214.675781 31.578125 C 214.636719 31.5 214.558594 31.5 214.5 31.5 C 214.304688 31.5 214.304688 31.597656 214.304688 31.910156 L 214.304688 34.351562 C 214.304688 34.683594 214.304688 34.761719 214.480469 34.761719 C 214.578125 34.761719 214.597656 34.742188 214.910156 34.371094 C 214.988281 34.253906 214.988281 34.214844 215.261719 33.921875 C 215.945312 34.761719 216.902344 34.761719 217.214844 34.761719 C 219.089844 34.761719 220.027344 33.726562 220.027344 32.300781 C 220.027344 31.34375 219.441406 30.757812 219.285156 30.601562 C 218.640625 30.054688 218.152344 29.9375 216.960938 29.722656 C 216.433594 29.625 215.125 29.371094 215.125 28.296875 C 215.125 27.730469 215.496094 26.910156 217.117188 26.910156 C 219.070312 26.910156 219.167969 28.570312 219.207031 29.136719 C 219.226562 29.273438 219.34375 29.273438 219.402344 29.273438 C 219.597656 29.273438 219.597656 29.195312 219.597656 28.863281 Z M 219.597656 27.007812 "/>
<path style=" stroke:none;fill-rule:nonzero;fill:rgb(0%,0%,0%);fill-opacity:1;" d="M 223.742188 23.550781 C 223.742188 23.082031 223.351562 22.671875 222.863281 22.671875 C 222.394531 22.671875 222.003906 23.042969 222.003906 23.53125 C 222.003906 24.058594 222.433594 24.410156 222.863281 24.410156 C 223.410156 24.410156 223.742188 23.941406 223.742188 23.550781 Z M 221.261719 26.871094 L 221.261719 27.398438 C 222.414062 27.398438 222.570312 27.496094 222.570312 28.375 L 222.570312 33.257812 C 222.570312 34.058594 222.375 34.058594 221.203125 34.058594 L 221.203125 34.585938 C 221.710938 34.546875 222.570312 34.546875 223.097656 34.546875 C 223.292969 34.546875 224.328125 34.546875 224.933594 34.585938 L 224.933594 34.058594 C 223.78125 34.058594 223.703125 33.980469 223.703125 33.277344 L 223.703125 26.675781 Z M 221.261719 26.871094 "/>
<path style=" stroke:none;fill-rule:nonzero;fill:rgb(0%,0%,0%);fill-opacity:1;" d="M 233.558594 30.230469 C 233.558594 28.570312 233.558594 28.0625 233.128906 27.476562 C 232.621094 26.792969 231.78125 26.675781 231.15625 26.675781 C 229.417969 26.675781 228.734375 28.160156 228.597656 28.53125 L 228.578125 28.53125 L 228.578125 26.675781 L 226.136719 26.871094 L 226.136719 27.398438 C 227.367188 27.398438 227.503906 27.515625 227.503906 28.394531 L 227.503906 33.257812 C 227.503906 34.058594 227.308594 34.058594 226.136719 34.058594 L 226.136719 34.585938 C 226.605469 34.546875 227.582031 34.546875 228.089844 34.546875 C 228.597656 34.546875 229.574219 34.546875 230.042969 34.585938 L 230.042969 34.058594 C 228.890625 34.058594 228.675781 34.058594 228.675781 33.257812 L 228.675781 29.917969 C 228.675781 28.042969 229.90625 27.046875 231.019531 27.046875 C 232.132812 27.046875 232.386719 27.945312 232.386719 29.039062 L 232.386719 33.257812 C 232.386719 34.058594 232.191406 34.058594 231.019531 34.058594 L 231.019531 34.585938 C 231.488281 34.546875 232.464844 34.546875 232.953125 34.546875 C 233.480469 34.546875 234.4375 34.546875 234.90625 34.585938 L 234.90625 34.058594 C 234.007812 34.058594 233.558594 34.058594 233.558594 33.53125 Z M 233.558594 30.230469 "/>
<path style=" stroke:none;fill-rule:nonzero;fill:rgb(0%,0%,0%);fill-opacity:1;" d="M 246.816406 27.261719 C 246.25 27.378906 246.035156 27.808594 246.035156 28.140625 C 246.035156 28.570312 246.367188 28.726562 246.621094 28.726562 C 247.167969 28.726562 247.539062 28.257812 247.539062 27.769531 C 247.539062 27.027344 246.679688 26.675781 245.917969 26.675781 C 244.824219 26.675781 244.21875 27.75 244.0625 28.101562 C 243.652344 26.753906 242.539062 26.675781 242.207031 26.675781 C 240.390625 26.675781 239.414062 29.019531 239.414062 29.429688 C 239.414062 29.488281 239.492188 29.585938 239.609375 29.585938 C 239.746094 29.585938 239.785156 29.46875 239.824219 29.410156 C 240.429688 27.417969 241.640625 27.046875 242.148438 27.046875 C 242.96875 27.046875 243.125 27.789062 243.125 28.21875 C 243.125 28.609375 243.027344 29.019531 242.792969 29.878906 L 242.1875 32.339844 C 241.933594 33.414062 241.40625 34.410156 240.449219 34.410156 C 240.371094 34.410156 239.921875 34.410156 239.53125 34.175781 C 240.175781 34.039062 240.332031 33.511719 240.332031 33.296875 C 240.332031 32.945312 240.058594 32.730469 239.726562 32.730469 C 239.296875 32.730469 238.828125 33.101562 238.828125 33.667969 C 238.828125 34.429688 239.667969 34.761719 240.429688 34.761719 C 241.289062 34.761719 241.914062 34.078125 242.285156 33.355469 C 242.578125 34.410156 243.457031 34.761719 244.121094 34.761719 C 245.957031 34.761719 246.933594 32.417969 246.933594 32.027344 C 246.933594 31.929688 246.855469 31.851562 246.738281 31.851562 C 246.582031 31.851562 246.5625 31.949219 246.523438 32.085938 C 246.035156 33.667969 244.980469 34.410156 244.179688 34.410156 C 243.554688 34.410156 243.222656 33.941406 243.222656 33.199219 C 243.222656 32.808594 243.28125 32.515625 243.574219 31.34375 L 244.199219 28.902344 C 244.472656 27.828125 245.078125 27.046875 245.898438 27.046875 C 245.9375 27.046875 246.445312 27.046875 246.816406 27.261719 Z M 246.816406 27.261719 "/>
<path style=" stroke:none;fill-rule:nonzero;fill:rgb(0%,0%,0%);fill-opacity:1;" d="M 6.230469 50.632812 C 6.230469 48.914062 5 47.664062 3.320312 47.664062 C 2.246094 47.664062 1.445312 47.898438 0.566406 48.40625 L 0.664062 49.597656 C 1.464844 49.011719 2.285156 48.699219 3.320312 48.699219 C 4.140625 48.699219 4.863281 49.363281 4.863281 50.671875 L 4.863281 51.414062 C 4.0625 51.433594 2.988281 51.492188 1.914062 51.84375 C 0.703125 52.273438 0 52.9375 0 53.816406 C 0 54.617188 0.46875 56.0625 1.992188 56.0625 C 2.988281 56.0625 4.238281 55.769531 4.902344 55.222656 L 4.902344 55.886719 L 6.230469 55.886719 Z M 4.863281 53.484375 C 4.863281 53.835938 4.863281 54.265625 4.277344 54.636719 C 3.789062 54.929688 3.183594 54.988281 2.910156 54.988281 C 1.953125 54.988281 1.289062 54.460938 1.289062 53.816406 C 1.289062 52.585938 3.769531 52.3125 4.863281 52.3125 Z M 4.863281 53.484375 "/>
<path style=" stroke:none;fill-rule:nonzero;fill:rgb(0%,0%,0%);fill-opacity:1;" d="M 15.214844 50.496094 C 15.214844 49.402344 14.980469 47.742188 12.8125 47.742188 C 11.816406 47.742188 10.957031 48.191406 10.273438 49.050781 L 10.273438 47.839844 L 9.003906 47.839844 L 9.003906 55.886719 L 10.351562 55.886719 L 10.351562 51.414062 C 10.351562 50.320312 10.78125 48.816406 12.128906 48.816406 C 13.808594 48.816406 13.847656 49.988281 13.847656 50.613281 L 13.847656 55.886719 L 15.214844 55.886719 Z M 15.214844 50.496094 "/>
<path style=" stroke:none;fill-rule:nonzero;fill:rgb(0%,0%,0%);fill-opacity:1;" d="M 24.195312 43.445312 L 22.867188 43.445312 L 22.867188 48.679688 C 22.046875 47.996094 21.109375 47.742188 20.347656 47.742188 C 18.648438 47.742188 17.242188 49.578125 17.242188 51.902344 C 17.242188 54.226562 18.570312 56.0625 20.269531 56.0625 C 20.933594 56.0625 21.949219 55.847656 22.847656 54.96875 L 22.847656 55.886719 L 24.195312 55.886719 Z M 22.847656 53.777344 C 22.417969 54.539062 21.773438 54.988281 20.992188 54.988281 C 19.898438 54.988281 18.609375 54.148438 18.609375 51.921875 C 18.609375 49.539062 20.132812 48.816406 21.167969 48.816406 C 21.871094 48.816406 22.4375 49.1875 22.847656 49.773438 Z M 22.847656 53.777344 "/>
<path style=" stroke:none;fill-rule:nonzero;fill:rgb(0%,0%,0%);fill-opacity:1;" d="M 37.953125 49.246094 C 37.738281 49.246094 37.074219 49.246094 37.074219 49.988281 C 37.074219 50.417969 37.386719 50.730469 37.816406 50.730469 C 38.226562 50.730469 38.578125 50.476562 38.578125 49.949219 C 38.578125 48.757812 37.308594 47.898438 35.863281 47.898438 C 33.773438 47.898438 32.09375 49.753906 32.09375 52.019531 C 32.09375 54.304688 33.8125 56.0625 35.84375 56.0625 C 38.207031 56.0625 38.753906 53.914062 38.753906 53.757812 C 38.753906 53.582031 38.617188 53.582031 38.578125 53.582031 C 38.402344 53.582031 38.382812 53.640625 38.34375 53.855469 C 37.933594 55.125 36.976562 55.671875 36 55.671875 C 34.90625 55.671875 33.460938 54.714844 33.460938 52 C 33.460938 49.011719 34.984375 48.289062 35.882812 48.289062 C 36.566406 48.289062 37.542969 48.5625 37.953125 49.246094 Z M 37.953125 49.246094 "/>
<path style=" stroke:none;fill-rule:nonzero;fill:rgb(0%,0%,0%);fill-opacity:1;" d="M 47.492188 52.058594 C 47.492188 49.734375 45.734375 47.898438 43.664062 47.898438 C 41.515625 47.898438 39.816406 49.792969 39.816406 52.058594 C 39.816406 54.34375 41.59375 56.0625 43.644531 56.0625 C 45.753906 56.0625 47.492188 54.304688 47.492188 52.058594 Z M 43.664062 55.671875 C 43 55.671875 42.199219 55.378906 41.671875 54.5 C 41.183594 53.699219 41.164062 52.644531 41.164062 51.882812 C 41.164062 51.199219 41.164062 50.105469 41.730469 49.304688 C 42.21875 48.542969 43.019531 48.25 43.644531 48.25 C 44.347656 48.25 45.089844 48.5625 45.578125 49.265625 C 46.144531 50.085938 46.144531 51.21875 46.144531 51.882812 C 46.144531 52.507812 46.144531 53.621094 45.675781 54.460938 C 45.167969 55.339844 44.347656 55.671875 43.664062 55.671875 Z M 43.664062 55.671875 "/>
<path style=" stroke:none;fill-rule:nonzero;fill:rgb(0%,0%,0%);fill-opacity:1;" d="M 53.996094 48.308594 C 53.996094 47.976562 53.996094 47.898438 53.820312 47.898438 C 53.683594 47.898438 53.332031 48.289062 53.214844 48.445312 C 52.648438 47.996094 52.101562 47.898438 51.515625 47.898438 C 49.347656 47.898438 48.703125 49.070312 48.703125 50.066406 C 48.703125 50.261719 48.703125 50.886719 49.386719 51.511719 C 49.972656 52.019531 50.578125 52.136719 51.398438 52.292969 C 52.375 52.488281 52.609375 52.546875 53.058594 52.917969 C 53.390625 53.171875 53.625 53.582031 53.625 54.070312 C 53.625 54.851562 53.175781 55.710938 51.59375 55.710938 C 50.421875 55.710938 49.542969 55.027344 49.152344 53.230469 C 49.09375 52.917969 49.09375 52.898438 49.074219 52.878906 C 49.035156 52.800781 48.957031 52.800781 48.898438 52.800781 C 48.703125 52.800781 48.703125 52.898438 48.703125 53.210938 L 48.703125 55.652344 C 48.703125 55.984375 48.703125 56.0625 48.878906 56.0625 C 48.976562 56.0625 48.996094 56.042969 49.308594 55.671875 C 49.386719 55.554688 49.386719 55.515625 49.660156 55.222656 C 50.34375 56.0625 51.300781 56.0625 51.613281 56.0625 C 53.488281 56.0625 54.425781 55.027344 54.425781 53.601562 C 54.425781 52.644531 53.839844 52.058594 53.683594 51.902344 C 53.039062 51.355469 52.550781 51.238281 51.359375 51.023438 C 50.832031 50.925781 49.523438 50.671875 49.523438 49.597656 C 49.523438 49.03125 49.894531 48.210938 51.515625 48.210938 C 53.46875 48.210938 53.566406 49.871094 53.605469 50.4375 C 53.625 50.574219 53.742188 50.574219 53.800781 50.574219 C 53.996094 50.574219 53.996094 50.496094 53.996094 50.164062 Z M 53.996094 48.308594 "/>
<path style=" stroke:none;fill-rule:nonzero;fill:rgb(0%,0%,0%);fill-opacity:1;" d="M 66.515625 48.5625 C 65.949219 48.679688 65.734375 49.109375 65.734375 49.441406 C 65.734375 49.871094 66.066406 50.027344 66.320312 50.027344 C 66.867188 50.027344 67.238281 49.558594 67.238281 49.070312 C 67.238281 48.328125 66.378906 47.976562 65.617188 47.976562 C 64.523438 47.976562 63.917969 49.050781 63.761719 49.402344 C 63.351562 48.054688 62.238281 47.976562 61.90625 47.976562 C 60.089844 47.976562 59.113281 50.320312 59.113281 50.730469 C 59.113281 50.789062 59.191406 50.886719 59.308594 50.886719 C 59.445312 50.886719 59.484375 50.769531 59.523438 50.710938 C 60.128906 48.71875 61.339844 48.347656 61.847656 48.347656 C 62.667969 48.347656 62.824219 49.089844 62.824219 49.519531 C 62.824219 49.910156 62.726562 50.320312 62.492188 51.179688 L 61.886719 53.640625 C 61.632812 54.714844 61.105469 55.710938 60.148438 55.710938 C 60.070312 55.710938 59.621094 55.710938 59.230469 55.476562 C 59.875 55.339844 60.03125 54.8125 60.03125 54.597656 C 60.03125 54.246094 59.757812 54.03125 59.425781 54.03125 C 58.996094 54.03125 58.527344 54.402344 58.527344 54.96875 C 58.527344 55.730469 59.367188 56.0625 60.128906 56.0625 C 60.988281 56.0625 61.613281 55.378906 61.984375 54.65625 C 62.277344 55.710938 63.15625 56.0625 63.820312 56.0625 C 65.65625 56.0625 66.632812 53.71875 66.632812 53.328125 C 66.632812 53.230469 66.554688 53.152344 66.4375 53.152344 C 66.28125 53.152344 66.261719 53.25 66.222656 53.386719 C 65.734375 54.96875 64.679688 55.710938 63.878906 55.710938 C 63.253906 55.710938 62.921875 55.242188 62.921875 54.5 C 62.921875 54.109375 62.980469 53.816406 63.273438 52.644531 L 63.898438 50.203125 C 64.171875 49.128906 64.777344 48.347656 65.597656 48.347656 C 65.636719 48.347656 66.144531 48.347656 66.515625 48.5625 Z M 66.515625 48.5625 "/>
<path style=" stroke:none;fill-rule:nonzero;fill:rgb(0%,0%,0%);fill-opacity:1;" d="M 82.140625 51.941406 C 82.140625 49.519531 80.363281 47.664062 78.3125 47.664062 C 76.203125 47.664062 74.464844 49.558594 74.464844 51.941406 C 74.464844 54.285156 76.242188 56.0625 78.292969 56.0625 C 80.402344 56.0625 82.140625 54.246094 82.140625 51.941406 Z M 78.3125 54.949219 C 77.023438 54.949219 75.8125 53.875 75.8125 51.765625 C 75.8125 49.597656 77.160156 48.738281 78.292969 48.738281 C 79.523438 48.738281 80.792969 49.65625 80.792969 51.765625 C 80.792969 53.972656 79.503906 54.949219 78.3125 54.949219 Z M 78.3125 54.949219 "/>
<path style=" stroke:none;fill-rule:nonzero;fill:rgb(0%,0%,0%);fill-opacity:1;" d="M 90.367188 50.496094 C 90.367188 49.402344 90.132812 47.742188 87.964844 47.742188 C 86.96875 47.742188 86.109375 48.191406 85.425781 49.050781 L 85.425781 47.839844 L 84.15625 47.839844 L 84.15625 55.886719 L 85.503906 55.886719 L 85.503906 51.414062 C 85.503906 50.320312 85.933594 48.816406 87.28125 48.816406 C 88.960938 48.816406 89 49.988281 89 50.613281 L 89 55.886719 L 90.367188 55.886719 Z M 90.367188 50.496094 "/>
<path style=" stroke:none;fill-rule:nonzero;fill:rgb(0%,0%,0%);fill-opacity:1;" d="M 94.503906 43.445312 L 93.175781 43.445312 L 93.175781 55.886719 L 94.503906 55.886719 Z M 94.503906 43.445312 "/>
<path style=" stroke:none;fill-rule:nonzero;fill:rgb(0%,0%,0%);fill-opacity:1;" d="M 103.722656 47.917969 L 102.394531 47.917969 C 101.554688 50.046875 100.1875 53.5625 100.109375 54.851562 L 100.089844 54.851562 C 100.011719 53.796875 99.054688 51.414062 98.917969 51.0625 L 97.628906 47.917969 L 96.222656 47.917969 L 99.5625 55.886719 L 98.917969 57.527344 C 98.527344 58.40625 98.273438 58.503906 97.941406 58.503906 C 97.6875 58.503906 97.121094 58.445312 96.554688 58.230469 L 96.671875 59.402344 C 96.769531 59.421875 97.375 59.539062 97.941406 59.539062 C 98.371094 59.539062 99.210938 59.539062 99.992188 57.566406 Z M 103.722656 47.917969 "/>
</g>
</svg>
