<?xml version="1.0" encoding="UTF-8"?>
<svg xmlns="http://www.w3.org/2000/svg" xmlns:xlink="http://www.w3.org/1999/xlink" width="329.00702pt" height="17.929688pt" viewBox="0 0 329.00702 17.929688" version="1.1">
<g id="surface1">
<path style=" stroke:none;fill-rule:nonzero;fill:rgb(0%,0%,0%);fill-opacity:1;" d="M 5.859375 2.519531 C 6.015625 1.894531 6.054688 1.71875 7.363281 1.71875 C 7.753906 1.71875 7.890625 1.71875 7.890625 1.367188 C 7.890625 1.191406 7.695312 1.191406 7.65625 1.191406 C 7.324219 1.191406 6.933594 1.230469 6.601562 1.230469 L 4.394531 1.230469 C 4.042969 1.230469 3.632812 1.191406 3.28125 1.191406 C 3.125 1.191406 2.929688 1.191406 2.929688 1.523438 C 2.929688 1.71875 3.085938 1.71875 3.4375 1.71875 C 4.550781 1.71875 4.550781 1.855469 4.550781 2.050781 C 4.550781 2.167969 4.511719 2.285156 4.472656 2.441406 L 2.050781 12.109375 C 1.894531 12.734375 1.855469 12.910156 0.546875 12.910156 C 0.15625 12.910156 0 12.910156 0 13.261719 C 0 13.4375 0.175781 13.4375 0.253906 13.4375 C 0.585938 13.4375 0.976562 13.398438 1.308594 13.398438 L 3.515625 13.398438 C 3.867188 13.398438 4.257812 13.4375 4.609375 13.4375 C 4.765625 13.4375 4.980469 13.4375 4.980469 13.105469 C 4.980469 12.910156 4.863281 12.910156 4.472656 12.910156 C 3.359375 12.910156 3.359375 12.773438 3.359375 12.558594 C 3.359375 12.519531 3.359375 12.441406 3.4375 12.148438 Z M 5.859375 2.519531 "/>
<path style=" stroke:none;fill-rule:nonzero;fill:rgb(0%,0%,0%);fill-opacity:1;" d="M 25.46875 7.636719 C 25.722656 7.636719 26.035156 7.636719 26.035156 7.304688 C 26.035156 6.972656 25.722656 6.972656 25.46875 6.972656 L 14.902344 6.972656 C 14.648438 6.972656 14.335938 6.972656 14.335938 7.285156 C 14.335938 7.636719 14.628906 7.636719 14.902344 7.636719 Z M 25.46875 10.957031 C 25.722656 10.957031 26.035156 10.957031 26.035156 10.644531 C 26.035156 10.292969 25.722656 10.292969 25.46875 10.292969 L 14.902344 10.292969 C 14.648438 10.292969 14.335938 10.292969 14.335938 10.625 C 14.335938 10.957031 14.628906 10.957031 14.902344 10.957031 Z M 25.46875 10.957031 "/>
<path style=" stroke:none;fill-rule:nonzero;fill:rgb(0%,0%,0%);fill-opacity:1;" d="M 38.59375 6.796875 C 38.378906 6.796875 37.714844 6.796875 37.714844 7.539062 C 37.714844 7.96875 38.027344 8.28125 38.457031 8.28125 C 38.867188 8.28125 39.21875 8.027344 39.21875 7.5 C 39.21875 6.308594 37.949219 5.449219 36.503906 5.449219 C 34.414062 5.449219 32.734375 7.304688 32.734375 9.570312 C 32.734375 11.855469 34.453125 13.613281 36.484375 13.613281 C 38.847656 13.613281 39.394531 11.464844 39.394531 11.308594 C 39.394531 11.132812 39.257812 11.132812 39.21875 11.132812 C 39.042969 11.132812 39.023438 11.191406 38.984375 11.40625 C 38.574219 12.675781 37.617188 13.222656 36.640625 13.222656 C 35.546875 13.222656 34.101562 12.265625 34.101562 9.550781 C 34.101562 6.5625 35.625 5.839844 36.523438 5.839844 C 37.207031 5.839844 38.183594 6.113281 38.59375 6.796875 Z M 38.59375 6.796875 "/>
<path style=" stroke:none;fill-rule:nonzero;fill:rgb(0%,0%,0%);fill-opacity:1;" d="M 48.128906 9.609375 C 48.128906 7.285156 46.371094 5.449219 44.300781 5.449219 C 42.152344 5.449219 40.453125 7.34375 40.453125 9.609375 C 40.453125 11.894531 42.230469 13.613281 44.28125 13.613281 C 46.390625 13.613281 48.128906 11.855469 48.128906 9.609375 Z M 44.300781 13.222656 C 43.636719 13.222656 42.835938 12.929688 42.308594 12.050781 C 41.820312 11.25 41.800781 10.195312 41.800781 9.433594 C 41.800781 8.75 41.800781 7.65625 42.367188 6.855469 C 42.855469 6.09375 43.65625 5.800781 44.28125 5.800781 C 44.984375 5.800781 45.726562 6.113281 46.214844 6.816406 C 46.78125 7.636719 46.78125 8.769531 46.78125 9.433594 C 46.78125 10.058594 46.78125 11.171875 46.3125 12.011719 C 45.804688 12.890625 44.984375 13.222656 44.300781 13.222656 Z M 44.300781 13.222656 "/>
<path style=" stroke:none;fill-rule:nonzero;fill:rgb(0%,0%,0%);fill-opacity:1;" d="M 54.636719 5.859375 C 54.636719 5.527344 54.636719 5.449219 54.460938 5.449219 C 54.324219 5.449219 53.972656 5.839844 53.855469 5.996094 C 53.289062 5.546875 52.742188 5.449219 52.15625 5.449219 C 49.988281 5.449219 49.34375 6.621094 49.34375 7.617188 C 49.34375 7.8125 49.34375 8.4375 50.027344 9.0625 C 50.613281 9.570312 51.21875 9.6875 52.039062 9.84375 C 53.015625 10.039062 53.25 10.097656 53.699219 10.46875 C 54.03125 10.722656 54.265625 11.132812 54.265625 11.621094 C 54.265625 12.402344 53.816406 13.261719 52.234375 13.261719 C 51.0625 13.261719 50.183594 12.578125 49.792969 10.78125 C 49.734375 10.46875 49.734375 10.449219 49.714844 10.429688 C 49.675781 10.351562 49.597656 10.351562 49.539062 10.351562 C 49.34375 10.351562 49.34375 10.449219 49.34375 10.761719 L 49.34375 13.203125 C 49.34375 13.535156 49.34375 13.613281 49.519531 13.613281 C 49.617188 13.613281 49.636719 13.59375 49.949219 13.222656 C 50.027344 13.105469 50.027344 13.066406 50.300781 12.773438 C 50.984375 13.613281 51.941406 13.613281 52.253906 13.613281 C 54.128906 13.613281 55.066406 12.578125 55.066406 11.152344 C 55.066406 10.195312 54.480469 9.609375 54.324219 9.453125 C 53.679688 8.90625 53.191406 8.789062 52 8.574219 C 51.472656 8.476562 50.164062 8.222656 50.164062 7.148438 C 50.164062 6.582031 50.535156 5.761719 52.15625 5.761719 C 54.109375 5.761719 54.207031 7.421875 54.246094 7.988281 C 54.265625 8.125 54.382812 8.125 54.441406 8.125 C 54.636719 8.125 54.636719 8.046875 54.636719 7.714844 Z M 54.636719 5.859375 "/>
<path style=" stroke:none;fill-rule:nonzero;fill:rgb(0%,0%,0%);fill-opacity:1;" d="M 66.398438 10.429688 L 66.007812 10.429688 C 65.949219 10.722656 65.8125 11.71875 65.617188 12.011719 C 65.5 12.167969 64.484375 12.167969 63.9375 12.167969 L 60.617188 12.167969 C 61.105469 11.757812 62.199219 10.605469 62.667969 10.175781 C 65.402344 7.65625 66.398438 6.738281 66.398438 4.960938 C 66.398438 2.890625 64.757812 1.523438 62.6875 1.523438 C 60.597656 1.523438 59.386719 3.28125 59.386719 4.824219 C 59.386719 5.742188 60.167969 5.742188 60.226562 5.742188 C 60.597656 5.742188 61.066406 5.46875 61.066406 4.902344 C 61.066406 4.394531 60.734375 4.0625 60.226562 4.0625 C 60.070312 4.0625 60.03125 4.0625 59.972656 4.082031 C 60.324219 2.851562 61.28125 2.03125 62.453125 2.03125 C 63.976562 2.03125 64.914062 3.300781 64.914062 4.960938 C 64.914062 6.484375 64.035156 7.8125 63 8.964844 L 59.386719 13.007812 L 59.386719 13.4375 L 65.929688 13.4375 Z M 66.398438 10.429688 "/>
<path style=" stroke:none;fill-rule:nonzero;fill:rgb(0%,0%,0%);fill-opacity:1;" d="M 72.75 11.308594 C 72.671875 11.601562 72.671875 11.640625 72.417969 11.992188 C 72.027344 12.480469 71.226562 13.261719 70.386719 13.261719 C 69.664062 13.261719 69.234375 12.597656 69.234375 11.542969 C 69.234375 10.546875 69.800781 8.535156 70.132812 7.792969 C 70.757812 6.542969 71.597656 5.898438 72.28125 5.898438 C 73.472656 5.898438 73.707031 7.363281 73.707031 7.5 C 73.707031 7.519531 73.648438 7.753906 73.628906 7.792969 Z M 73.902344 6.71875 C 73.707031 6.25 73.21875 5.527344 72.28125 5.527344 C 70.269531 5.527344 68.082031 8.144531 68.082031 10.800781 C 68.082031 12.578125 69.117188 13.613281 70.328125 13.613281 C 71.324219 13.613281 72.164062 12.851562 72.671875 12.246094 C 72.847656 13.320312 73.6875 13.613281 74.234375 13.613281 C 74.761719 13.613281 75.191406 13.300781 75.523438 12.65625 C 75.796875 12.03125 76.050781 10.9375 76.050781 10.878906 C 76.050781 10.78125 75.992188 10.703125 75.875 10.703125 C 75.71875 10.703125 75.699219 10.800781 75.621094 11.074219 C 75.347656 12.128906 75.015625 13.261719 74.273438 13.261719 C 73.765625 13.261719 73.726562 12.792969 73.726562 12.441406 C 73.726562 12.011719 73.785156 11.816406 73.941406 11.132812 C 74.058594 10.683594 74.15625 10.273438 74.292969 9.765625 C 74.957031 7.070312 75.113281 6.425781 75.113281 6.328125 C 75.113281 6.074219 74.917969 5.878906 74.664062 5.878906 C 74.078125 5.878906 73.941406 6.503906 73.902344 6.71875 Z M 73.902344 6.71875 "/>
<path style=" stroke:none;fill-rule:nonzero;fill:rgb(0%,0%,0%);fill-opacity:1;" d="M 79.945312 8.964844 C 79.945312 8.4375 79.515625 8.007812 79.007812 8.007812 C 78.480469 8.007812 78.050781 8.4375 78.050781 8.964844 C 78.050781 9.472656 78.480469 9.902344 79.007812 9.902344 C 79.515625 9.902344 79.945312 9.472656 79.945312 8.964844 Z M 79.945312 8.964844 "/>
<path style=" stroke:none;fill-rule:nonzero;fill:rgb(0%,0%,0%);fill-opacity:1;" d="M 87.277344 17.792969 C 87.277344 17.734375 87.277344 17.695312 86.984375 17.402344 C 85.1875 15.585938 84.191406 12.636719 84.191406 8.964844 C 84.191406 5.488281 85.03125 2.5 87.101562 0.390625 C 87.277344 0.214844 87.277344 0.195312 87.277344 0.136719 C 87.277344 0.0195312 87.199219 0 87.121094 0 C 86.886719 0 85.421875 1.289062 84.542969 3.046875 C 83.625 4.84375 83.214844 6.777344 83.214844 8.964844 C 83.214844 10.566406 83.46875 12.695312 84.40625 14.628906 C 85.460938 16.777344 86.925781 17.929688 87.121094 17.929688 C 87.199219 17.929688 87.277344 17.910156 87.277344 17.792969 Z M 87.277344 17.792969 "/>
<path style=" stroke:none;fill-rule:nonzero;fill:rgb(0%,0%,0%);fill-opacity:1;" d="M 96.855469 6.113281 C 96.289062 6.230469 96.074219 6.660156 96.074219 6.992188 C 96.074219 7.421875 96.40625 7.578125 96.660156 7.578125 C 97.207031 7.578125 97.578125 7.109375 97.578125 6.621094 C 97.578125 5.878906 96.71875 5.527344 95.957031 5.527344 C 94.863281 5.527344 94.257812 6.601562 94.101562 6.953125 C 93.691406 5.605469 92.578125 5.527344 92.246094 5.527344 C 90.429688 5.527344 89.453125 7.871094 89.453125 8.28125 C 89.453125 8.339844 89.53125 8.4375 89.648438 8.4375 C 89.785156 8.4375 89.824219 8.320312 89.863281 8.261719 C 90.46875 6.269531 91.679688 5.898438 92.1875 5.898438 C 93.007812 5.898438 93.164062 6.640625 93.164062 7.070312 C 93.164062 7.460938 93.066406 7.871094 92.832031 8.730469 L 92.226562 11.191406 C 91.972656 12.265625 91.445312 13.261719 90.488281 13.261719 C 90.410156 13.261719 89.960938 13.261719 89.570312 13.027344 C 90.214844 12.890625 90.371094 12.363281 90.371094 12.148438 C 90.371094 11.796875 90.097656 11.582031 89.765625 11.582031 C 89.335938 11.582031 88.867188 11.953125 88.867188 12.519531 C 88.867188 13.28125 89.707031 13.613281 90.46875 13.613281 C 91.328125 13.613281 91.953125 12.929688 92.324219 12.207031 C 92.617188 13.261719 93.496094 13.613281 94.160156 13.613281 C 95.996094 13.613281 96.972656 11.269531 96.972656 10.878906 C 96.972656 10.78125 96.894531 10.703125 96.777344 10.703125 C 96.621094 10.703125 96.601562 10.800781 96.5625 10.9375 C 96.074219 12.519531 95.019531 13.261719 94.21875 13.261719 C 93.59375 13.261719 93.261719 12.792969 93.261719 12.050781 C 93.261719 11.660156 93.320312 11.367188 93.613281 10.195312 L 94.238281 7.753906 C 94.511719 6.679688 95.117188 5.898438 95.9375 5.898438 C 95.976562 5.898438 96.484375 5.898438 96.855469 6.113281 Z M 96.855469 6.113281 "/>
<path style=" stroke:none;fill-rule:nonzero;fill:rgb(0%,0%,0%);fill-opacity:1;" d="M 109.457031 9.296875 L 114.417969 9.296875 C 114.671875 9.296875 114.984375 9.296875 114.984375 8.964844 C 114.984375 8.632812 114.671875 8.632812 114.417969 8.632812 L 109.457031 8.632812 L 109.457031 3.691406 C 109.457031 3.4375 109.457031 3.105469 109.144531 3.105469 C 108.792969 3.105469 108.792969 3.417969 108.792969 3.691406 L 108.792969 8.632812 L 103.851562 8.632812 C 103.597656 8.632812 103.285156 8.632812 103.285156 8.964844 C 103.285156 9.296875 103.578125 9.296875 103.851562 9.296875 L 108.792969 9.296875 L 108.792969 14.238281 C 108.792969 14.492188 108.792969 14.824219 109.125 14.824219 C 109.457031 14.824219 109.457031 14.511719 109.457031 14.238281 Z M 109.457031 9.296875 "/>
<path style=" stroke:none;fill-rule:nonzero;fill:rgb(0%,0%,0%);fill-opacity:1;" d="M 125.398438 11.308594 C 125.320312 11.601562 125.320312 11.640625 125.066406 11.992188 C 124.675781 12.480469 123.875 13.261719 123.035156 13.261719 C 122.3125 13.261719 121.882812 12.597656 121.882812 11.542969 C 121.882812 10.546875 122.449219 8.535156 122.78125 7.792969 C 123.40625 6.542969 124.246094 5.898438 124.929688 5.898438 C 126.121094 5.898438 126.355469 7.363281 126.355469 7.5 C 126.355469 7.519531 126.296875 7.753906 126.277344 7.792969 Z M 126.550781 6.71875 C 126.355469 6.25 125.867188 5.527344 124.929688 5.527344 C 122.917969 5.527344 120.730469 8.144531 120.730469 10.800781 C 120.730469 12.578125 121.765625 13.613281 122.976562 13.613281 C 123.972656 13.613281 124.8125 12.851562 125.320312 12.246094 C 125.496094 13.320312 126.335938 13.613281 126.882812 13.613281 C 127.410156 13.613281 127.839844 13.300781 128.171875 12.65625 C 128.445312 12.03125 128.699219 10.9375 128.699219 10.878906 C 128.699219 10.78125 128.640625 10.703125 128.523438 10.703125 C 128.367188 10.703125 128.347656 10.800781 128.269531 11.074219 C 127.996094 12.128906 127.664062 13.261719 126.921875 13.261719 C 126.414062 13.261719 126.375 12.792969 126.375 12.441406 C 126.375 12.011719 126.433594 11.816406 126.589844 11.132812 C 126.707031 10.683594 126.804688 10.273438 126.941406 9.765625 C 127.605469 7.070312 127.761719 6.425781 127.761719 6.328125 C 127.761719 6.074219 127.566406 5.878906 127.3125 5.878906 C 126.726562 5.878906 126.589844 6.503906 126.550781 6.71875 Z M 126.550781 6.71875 "/>
<path style=" stroke:none;fill-rule:nonzero;fill:rgb(0%,0%,0%);fill-opacity:1;" d="M 134.21875 8.964844 C 134.21875 7.617188 134.042969 5.390625 133.027344 3.300781 C 131.972656 1.152344 130.507812 0 130.3125 0 C 130.234375 0 130.136719 0.0195312 130.136719 0.136719 C 130.136719 0.195312 130.136719 0.214844 130.449219 0.527344 C 132.246094 2.34375 133.242188 5.292969 133.242188 8.964844 C 133.242188 12.441406 132.402344 15.429688 130.332031 17.539062 C 130.136719 17.695312 130.136719 17.734375 130.136719 17.792969 C 130.136719 17.910156 130.234375 17.929688 130.3125 17.929688 C 130.546875 17.929688 132.011719 16.640625 132.890625 14.882812 C 133.808594 13.066406 134.21875 11.132812 134.21875 8.964844 Z M 134.21875 8.964844 "/>
<path style=" stroke:none;fill-rule:nonzero;fill:rgb(0%,0%,0%);fill-opacity:1;" d="M 143.207031 9.296875 L 148.167969 9.296875 C 148.421875 9.296875 148.734375 9.296875 148.734375 8.964844 C 148.734375 8.632812 148.421875 8.632812 148.167969 8.632812 L 143.207031 8.632812 L 143.207031 3.691406 C 143.207031 3.4375 143.207031 3.105469 142.894531 3.105469 C 142.542969 3.105469 142.542969 3.417969 142.542969 3.691406 L 142.542969 8.632812 L 137.601562 8.632812 C 137.347656 8.632812 137.035156 8.632812 137.035156 8.964844 C 137.035156 9.296875 137.328125 9.296875 137.601562 9.296875 L 142.542969 9.296875 L 142.542969 14.238281 C 142.542969 14.492188 142.542969 14.824219 142.875 14.824219 C 143.207031 14.824219 143.207031 14.511719 143.207031 14.238281 Z M 143.207031 9.296875 "/>
<path style=" stroke:none;fill-rule:nonzero;fill:rgb(0%,0%,0%);fill-opacity:1;" d="M 155.585938 5.859375 C 155.585938 5.527344 155.585938 5.449219 155.410156 5.449219 C 155.273438 5.449219 154.921875 5.839844 154.804688 5.996094 C 154.238281 5.546875 153.691406 5.449219 153.105469 5.449219 C 150.9375 5.449219 150.292969 6.621094 150.292969 7.617188 C 150.292969 7.8125 150.292969 8.4375 150.976562 9.0625 C 151.5625 9.570312 152.167969 9.6875 152.988281 9.84375 C 153.964844 10.039062 154.199219 10.097656 154.648438 10.46875 C 154.980469 10.722656 155.214844 11.132812 155.214844 11.621094 C 155.214844 12.402344 154.765625 13.261719 153.183594 13.261719 C 152.011719 13.261719 151.132812 12.578125 150.742188 10.78125 C 150.683594 10.46875 150.683594 10.449219 150.664062 10.429688 C 150.625 10.351562 150.546875 10.351562 150.488281 10.351562 C 150.292969 10.351562 150.292969 10.449219 150.292969 10.761719 L 150.292969 13.203125 C 150.292969 13.535156 150.292969 13.613281 150.46875 13.613281 C 150.566406 13.613281 150.585938 13.59375 150.898438 13.222656 C 150.976562 13.105469 150.976562 13.066406 151.25 12.773438 C 151.933594 13.613281 152.890625 13.613281 153.203125 13.613281 C 155.078125 13.613281 156.015625 12.578125 156.015625 11.152344 C 156.015625 10.195312 155.429688 9.609375 155.273438 9.453125 C 154.628906 8.90625 154.140625 8.789062 152.949219 8.574219 C 152.421875 8.476562 151.113281 8.222656 151.113281 7.148438 C 151.113281 6.582031 151.484375 5.761719 153.105469 5.761719 C 155.058594 5.761719 155.15625 7.421875 155.195312 7.988281 C 155.214844 8.125 155.332031 8.125 155.390625 8.125 C 155.585938 8.125 155.585938 8.046875 155.585938 7.714844 Z M 155.585938 5.859375 "/>
<path style=" stroke:none;fill-rule:nonzero;fill:rgb(0%,0%,0%);fill-opacity:1;" d="M 159.734375 2.402344 C 159.734375 1.933594 159.34375 1.523438 158.855469 1.523438 C 158.386719 1.523438 157.996094 1.894531 157.996094 2.382812 C 157.996094 2.910156 158.425781 3.261719 158.855469 3.261719 C 159.402344 3.261719 159.734375 2.792969 159.734375 2.402344 Z M 157.253906 5.722656 L 157.253906 6.25 C 158.40625 6.25 158.5625 6.347656 158.5625 7.226562 L 158.5625 12.109375 C 158.5625 12.910156 158.367188 12.910156 157.195312 12.910156 L 157.195312 13.4375 C 157.703125 13.398438 158.5625 13.398438 159.089844 13.398438 C 159.285156 13.398438 160.320312 13.398438 160.925781 13.4375 L 160.925781 12.910156 C 159.773438 12.910156 159.695312 12.832031 159.695312 12.128906 L 159.695312 5.527344 Z M 157.253906 5.722656 "/>
<path style=" stroke:none;fill-rule:nonzero;fill:rgb(0%,0%,0%);fill-opacity:1;" d="M 169.546875 9.082031 C 169.546875 7.421875 169.546875 6.914062 169.117188 6.328125 C 168.609375 5.644531 167.769531 5.527344 167.144531 5.527344 C 165.40625 5.527344 164.722656 7.011719 164.585938 7.382812 L 164.566406 7.382812 L 164.566406 5.527344 L 162.125 5.722656 L 162.125 6.25 C 163.355469 6.25 163.492188 6.367188 163.492188 7.246094 L 163.492188 12.109375 C 163.492188 12.910156 163.296875 12.910156 162.125 12.910156 L 162.125 13.4375 C 162.59375 13.398438 163.570312 13.398438 164.078125 13.398438 C 164.585938 13.398438 165.5625 13.398438 166.03125 13.4375 L 166.03125 12.910156 C 164.878906 12.910156 164.664062 12.910156 164.664062 12.109375 L 164.664062 8.769531 C 164.664062 6.894531 165.894531 5.898438 167.007812 5.898438 C 168.121094 5.898438 168.375 6.796875 168.375 7.890625 L 168.375 12.109375 C 168.375 12.910156 168.179688 12.910156 167.007812 12.910156 L 167.007812 13.4375 C 167.476562 13.398438 168.453125 13.398438 168.941406 13.398438 C 169.46875 13.398438 170.425781 13.398438 170.894531 13.4375 L 170.894531 12.910156 C 169.996094 12.910156 169.546875 12.910156 169.546875 12.382812 Z M 169.546875 9.082031 "/>
<path style=" stroke:none;fill-rule:nonzero;fill:rgb(0%,0%,0%);fill-opacity:1;" d="M 182.050781 10.429688 L 181.660156 10.429688 C 181.601562 10.722656 181.464844 11.71875 181.269531 12.011719 C 181.152344 12.167969 180.136719 12.167969 179.589844 12.167969 L 176.269531 12.167969 C 176.757812 11.757812 177.851562 10.605469 178.320312 10.175781 C 181.054688 7.65625 182.050781 6.738281 182.050781 4.960938 C 182.050781 2.890625 180.410156 1.523438 178.339844 1.523438 C 176.25 1.523438 175.039062 3.28125 175.039062 4.824219 C 175.039062 5.742188 175.820312 5.742188 175.878906 5.742188 C 176.25 5.742188 176.71875 5.46875 176.71875 4.902344 C 176.71875 4.394531 176.386719 4.0625 175.878906 4.0625 C 175.722656 4.0625 175.683594 4.0625 175.625 4.082031 C 175.976562 2.851562 176.933594 2.03125 178.105469 2.03125 C 179.628906 2.03125 180.566406 3.300781 180.566406 4.960938 C 180.566406 6.484375 179.6875 7.8125 178.652344 8.964844 L 175.039062 13.007812 L 175.039062 13.4375 L 181.582031 13.4375 Z M 182.050781 10.429688 "/>
<path style=" stroke:none;fill-rule:nonzero;fill:rgb(0%,0%,0%);fill-opacity:1;" d="M 188.398438 11.308594 C 188.320312 11.601562 188.320312 11.640625 188.066406 11.992188 C 187.675781 12.480469 186.875 13.261719 186.035156 13.261719 C 185.3125 13.261719 184.882812 12.597656 184.882812 11.542969 C 184.882812 10.546875 185.449219 8.535156 185.78125 7.792969 C 186.40625 6.542969 187.246094 5.898438 187.929688 5.898438 C 189.121094 5.898438 189.355469 7.363281 189.355469 7.5 C 189.355469 7.519531 189.296875 7.753906 189.277344 7.792969 Z M 189.550781 6.71875 C 189.355469 6.25 188.867188 5.527344 187.929688 5.527344 C 185.917969 5.527344 183.730469 8.144531 183.730469 10.800781 C 183.730469 12.578125 184.765625 13.613281 185.976562 13.613281 C 186.972656 13.613281 187.8125 12.851562 188.320312 12.246094 C 188.496094 13.320312 189.335938 13.613281 189.882812 13.613281 C 190.410156 13.613281 190.839844 13.300781 191.171875 12.65625 C 191.445312 12.03125 191.699219 10.9375 191.699219 10.878906 C 191.699219 10.78125 191.640625 10.703125 191.523438 10.703125 C 191.367188 10.703125 191.347656 10.800781 191.269531 11.074219 C 190.996094 12.128906 190.664062 13.261719 189.921875 13.261719 C 189.414062 13.261719 189.375 12.792969 189.375 12.441406 C 189.375 12.011719 189.433594 11.816406 189.589844 11.132812 C 189.707031 10.683594 189.804688 10.273438 189.941406 9.765625 C 190.605469 7.070312 190.761719 6.425781 190.761719 6.328125 C 190.761719 6.074219 190.566406 5.878906 190.3125 5.878906 C 189.726562 5.878906 189.589844 6.503906 189.550781 6.71875 Z M 189.550781 6.71875 "/>
<path style=" stroke:none;fill-rule:nonzero;fill:rgb(0%,0%,0%);fill-opacity:1;" d="M 195.597656 8.964844 C 195.597656 8.4375 195.167969 8.007812 194.660156 8.007812 C 194.132812 8.007812 193.703125 8.4375 193.703125 8.964844 C 193.703125 9.472656 194.132812 9.902344 194.660156 9.902344 C 195.167969 9.902344 195.597656 9.472656 195.597656 8.964844 Z M 195.597656 8.964844 "/>
<path style=" stroke:none;fill-rule:nonzero;fill:rgb(0%,0%,0%);fill-opacity:1;" d="M 200.195312 0.996094 L 197.695312 1.191406 L 197.695312 1.71875 C 198.925781 1.71875 199.0625 1.835938 199.0625 2.714844 L 199.0625 12.109375 C 199.0625 12.910156 198.867188 12.910156 197.695312 12.910156 L 197.695312 13.4375 C 198.203125 13.398438 199.082031 13.398438 199.628906 13.398438 C 200.15625 13.398438 201.054688 13.398438 201.5625 13.4375 L 201.5625 12.910156 C 200.410156 12.910156 200.195312 12.910156 200.195312 12.109375 Z M 200.195312 0.996094 "/>
<path style=" stroke:none;fill-rule:nonzero;fill:rgb(0%,0%,0%);fill-opacity:1;" d="M 210.28125 9.609375 C 210.28125 7.285156 208.523438 5.449219 206.453125 5.449219 C 204.304688 5.449219 202.605469 7.34375 202.605469 9.609375 C 202.605469 11.894531 204.382812 13.613281 206.433594 13.613281 C 208.542969 13.613281 210.28125 11.855469 210.28125 9.609375 Z M 206.453125 13.222656 C 205.789062 13.222656 204.988281 12.929688 204.460938 12.050781 C 203.972656 11.25 203.953125 10.195312 203.953125 9.433594 C 203.953125 8.75 203.953125 7.65625 204.519531 6.855469 C 205.007812 6.09375 205.808594 5.800781 206.433594 5.800781 C 207.136719 5.800781 207.878906 6.113281 208.367188 6.816406 C 208.933594 7.636719 208.933594 8.769531 208.933594 9.433594 C 208.933594 10.058594 208.933594 11.171875 208.464844 12.011719 C 207.957031 12.890625 207.136719 13.222656 206.453125 13.222656 Z M 206.453125 13.222656 "/>
<path style=" stroke:none;fill-rule:nonzero;fill:rgb(0%,0%,0%);fill-opacity:1;" d="M 213.039062 10.195312 C 213.878906 10.742188 214.601562 10.742188 214.796875 10.742188 C 216.417969 10.742188 217.609375 9.53125 217.609375 8.144531 C 217.609375 7.65625 217.472656 6.992188 216.90625 6.40625 C 217.589844 5.683594 218.449219 5.683594 218.527344 5.683594 C 218.605469 5.683594 218.683594 5.683594 218.761719 5.722656 C 218.585938 5.800781 218.488281 5.976562 218.488281 6.171875 C 218.488281 6.425781 218.664062 6.640625 218.957031 6.640625 C 219.113281 6.640625 219.425781 6.542969 219.425781 6.152344 C 219.425781 5.839844 219.171875 5.332031 218.546875 5.332031 C 217.609375 5.332031 216.925781 5.898438 216.671875 6.171875 C 216.125 5.761719 215.5 5.527344 214.816406 5.527344 C 213.214844 5.527344 212.003906 6.757812 212.003906 8.125 C 212.003906 9.160156 212.628906 9.824219 212.804688 9.980469 C 212.589844 10.253906 212.277344 10.761719 212.277344 11.464844 C 212.277344 12.5 212.902344 12.949219 213.039062 13.046875 C 212.21875 13.28125 211.398438 13.925781 211.398438 14.863281 C 211.398438 16.09375 213.078125 17.109375 215.285156 17.109375 C 217.414062 17.109375 219.191406 16.171875 219.191406 14.824219 C 219.191406 14.375 219.074219 13.320312 218 12.753906 C 217.082031 12.285156 216.183594 12.285156 214.640625 12.285156 C 213.546875 12.285156 213.429688 12.285156 213.097656 11.953125 C 212.921875 11.777344 212.765625 11.425781 212.765625 11.054688 C 212.765625 10.742188 212.863281 10.449219 213.039062 10.195312 Z M 214.816406 10.371094 C 213.234375 10.371094 213.234375 8.554688 213.234375 8.144531 C 213.234375 7.832031 213.234375 7.089844 213.546875 6.601562 C 213.878906 6.09375 214.425781 5.898438 214.796875 5.898438 C 216.378906 5.898438 216.378906 7.714844 216.378906 8.125 C 216.378906 8.457031 216.378906 9.179688 216.066406 9.667969 C 215.734375 10.195312 215.1875 10.371094 214.816406 10.371094 Z M 215.304688 16.738281 C 213.585938 16.738281 212.277344 15.859375 212.277344 14.84375 C 212.277344 14.6875 212.316406 13.984375 212.980469 13.535156 C 213.390625 13.28125 213.546875 13.28125 214.796875 13.28125 C 216.28125 13.28125 218.3125 13.28125 218.3125 14.84375 C 218.3125 15.898438 216.945312 16.738281 215.304688 16.738281 Z M 215.304688 16.738281 "/>
<path style=" stroke:none;fill-rule:nonzero;fill:rgb(0%,0%,0%);fill-opacity:1;" d="M 228.789062 5.859375 C 228.789062 5.527344 228.789062 5.449219 228.613281 5.449219 C 228.476562 5.449219 228.125 5.839844 228.007812 5.996094 C 227.441406 5.546875 226.894531 5.449219 226.308594 5.449219 C 224.140625 5.449219 223.496094 6.621094 223.496094 7.617188 C 223.496094 7.8125 223.496094 8.4375 224.179688 9.0625 C 224.765625 9.570312 225.371094 9.6875 226.191406 9.84375 C 227.167969 10.039062 227.402344 10.097656 227.851562 10.46875 C 228.183594 10.722656 228.417969 11.132812 228.417969 11.621094 C 228.417969 12.402344 227.96875 13.261719 226.386719 13.261719 C 225.214844 13.261719 224.335938 12.578125 223.945312 10.78125 C 223.886719 10.46875 223.886719 10.449219 223.867188 10.429688 C 223.828125 10.351562 223.75 10.351562 223.691406 10.351562 C 223.496094 10.351562 223.496094 10.449219 223.496094 10.761719 L 223.496094 13.203125 C 223.496094 13.535156 223.496094 13.613281 223.671875 13.613281 C 223.769531 13.613281 223.789062 13.59375 224.101562 13.222656 C 224.179688 13.105469 224.179688 13.066406 224.453125 12.773438 C 225.136719 13.613281 226.09375 13.613281 226.40625 13.613281 C 228.28125 13.613281 229.21875 12.578125 229.21875 11.152344 C 229.21875 10.195312 228.632812 9.609375 228.476562 9.453125 C 227.832031 8.90625 227.34375 8.789062 226.152344 8.574219 C 225.625 8.476562 224.316406 8.222656 224.316406 7.148438 C 224.316406 6.582031 224.6875 5.761719 226.308594 5.761719 C 228.261719 5.761719 228.359375 7.421875 228.398438 7.988281 C 228.417969 8.125 228.535156 8.125 228.59375 8.125 C 228.789062 8.125 228.789062 8.046875 228.789062 7.714844 Z M 228.789062 5.859375 "/>
<path style=" stroke:none;fill-rule:nonzero;fill:rgb(0%,0%,0%);fill-opacity:1;" d="M 232.933594 2.402344 C 232.933594 1.933594 232.542969 1.523438 232.054688 1.523438 C 231.585938 1.523438 231.195312 1.894531 231.195312 2.382812 C 231.195312 2.910156 231.625 3.261719 232.054688 3.261719 C 232.601562 3.261719 232.933594 2.792969 232.933594 2.402344 Z M 230.453125 5.722656 L 230.453125 6.25 C 231.605469 6.25 231.761719 6.347656 231.761719 7.226562 L 231.761719 12.109375 C 231.761719 12.910156 231.566406 12.910156 230.394531 12.910156 L 230.394531 13.4375 C 230.902344 13.398438 231.761719 13.398438 232.289062 13.398438 C 232.484375 13.398438 233.519531 13.398438 234.125 13.4375 L 234.125 12.910156 C 232.972656 12.910156 232.894531 12.832031 232.894531 12.128906 L 232.894531 5.527344 Z M 230.453125 5.722656 "/>
<path style=" stroke:none;fill-rule:nonzero;fill:rgb(0%,0%,0%);fill-opacity:1;" d="M 242.746094 9.082031 C 242.746094 7.421875 242.746094 6.914062 242.316406 6.328125 C 241.808594 5.644531 240.96875 5.527344 240.34375 5.527344 C 238.605469 5.527344 237.921875 7.011719 237.785156 7.382812 L 237.765625 7.382812 L 237.765625 5.527344 L 235.324219 5.722656 L 235.324219 6.25 C 236.554688 6.25 236.691406 6.367188 236.691406 7.246094 L 236.691406 12.109375 C 236.691406 12.910156 236.496094 12.910156 235.324219 12.910156 L 235.324219 13.4375 C 235.792969 13.398438 236.769531 13.398438 237.277344 13.398438 C 237.785156 13.398438 238.761719 13.398438 239.230469 13.4375 L 239.230469 12.910156 C 238.078125 12.910156 237.863281 12.910156 237.863281 12.109375 L 237.863281 8.769531 C 237.863281 6.894531 239.09375 5.898438 240.207031 5.898438 C 241.320312 5.898438 241.574219 6.796875 241.574219 7.890625 L 241.574219 12.109375 C 241.574219 12.910156 241.378906 12.910156 240.207031 12.910156 L 240.207031 13.4375 C 240.675781 13.398438 241.652344 13.398438 242.140625 13.398438 C 242.667969 13.398438 243.625 13.398438 244.09375 13.4375 L 244.09375 12.910156 C 243.195312 12.910156 242.746094 12.910156 242.746094 12.382812 Z M 242.746094 9.082031 "/>
<path style=" stroke:none;fill-rule:nonzero;fill:rgb(0%,0%,0%);fill-opacity:1;" d="M 253.179688 17.792969 C 253.179688 17.734375 253.179688 17.695312 252.886719 17.402344 C 251.089844 15.585938 250.09375 12.636719 250.09375 8.964844 C 250.09375 5.488281 250.933594 2.5 253.003906 0.390625 C 253.179688 0.214844 253.179688 0.195312 253.179688 0.136719 C 253.179688 0.0195312 253.101562 0 253.023438 0 C 252.789062 0 251.324219 1.289062 250.445312 3.046875 C 249.527344 4.84375 249.117188 6.777344 249.117188 8.964844 C 249.117188 10.566406 249.371094 12.695312 250.308594 14.628906 C 251.363281 16.777344 252.828125 17.929688 253.023438 17.929688 C 253.101562 17.929688 253.179688 17.910156 253.179688 17.792969 Z M 253.179688 17.792969 "/>
<path style=" stroke:none;fill-rule:nonzero;fill:rgb(0%,0%,0%);fill-opacity:1;" d="M 262.753906 6.113281 C 262.1875 6.230469 261.972656 6.660156 261.972656 6.992188 C 261.972656 7.421875 262.304688 7.578125 262.558594 7.578125 C 263.105469 7.578125 263.476562 7.109375 263.476562 6.621094 C 263.476562 5.878906 262.617188 5.527344 261.855469 5.527344 C 260.761719 5.527344 260.15625 6.601562 260 6.953125 C 259.589844 5.605469 258.476562 5.527344 258.144531 5.527344 C 256.328125 5.527344 255.351562 7.871094 255.351562 8.28125 C 255.351562 8.339844 255.429688 8.4375 255.546875 8.4375 C 255.683594 8.4375 255.722656 8.320312 255.761719 8.261719 C 256.367188 6.269531 257.578125 5.898438 258.085938 5.898438 C 258.90625 5.898438 259.0625 6.640625 259.0625 7.070312 C 259.0625 7.460938 258.964844 7.871094 258.730469 8.730469 L 258.125 11.191406 C 257.871094 12.265625 257.34375 13.261719 256.386719 13.261719 C 256.308594 13.261719 255.859375 13.261719 255.46875 13.027344 C 256.113281 12.890625 256.269531 12.363281 256.269531 12.148438 C 256.269531 11.796875 255.996094 11.582031 255.664062 11.582031 C 255.234375 11.582031 254.765625 11.953125 254.765625 12.519531 C 254.765625 13.28125 255.605469 13.613281 256.367188 13.613281 C 257.226562 13.613281 257.851562 12.929688 258.222656 12.207031 C 258.515625 13.261719 259.394531 13.613281 260.058594 13.613281 C 261.894531 13.613281 262.871094 11.269531 262.871094 10.878906 C 262.871094 10.78125 262.792969 10.703125 262.675781 10.703125 C 262.519531 10.703125 262.5 10.800781 262.460938 10.9375 C 261.972656 12.519531 260.917969 13.261719 260.117188 13.261719 C 259.492188 13.261719 259.160156 12.792969 259.160156 12.050781 C 259.160156 11.660156 259.21875 11.367188 259.511719 10.195312 L 260.136719 7.753906 C 260.410156 6.679688 261.015625 5.898438 261.835938 5.898438 C 261.875 5.898438 262.382812 5.898438 262.753906 6.113281 Z M 262.753906 6.113281 "/>
<path style=" stroke:none;fill-rule:nonzero;fill:rgb(0%,0%,0%);fill-opacity:1;" d="M 275.355469 9.296875 L 280.316406 9.296875 C 280.570312 9.296875 280.882812 9.296875 280.882812 8.964844 C 280.882812 8.632812 280.570312 8.632812 280.316406 8.632812 L 275.355469 8.632812 L 275.355469 3.691406 C 275.355469 3.4375 275.355469 3.105469 275.042969 3.105469 C 274.691406 3.105469 274.691406 3.417969 274.691406 3.691406 L 274.691406 8.632812 L 269.75 8.632812 C 269.496094 8.632812 269.183594 8.632812 269.183594 8.964844 C 269.183594 9.296875 269.476562 9.296875 269.75 9.296875 L 274.691406 9.296875 L 274.691406 14.238281 C 274.691406 14.492188 274.691406 14.824219 275.023438 14.824219 C 275.355469 14.824219 275.355469 14.511719 275.355469 14.238281 Z M 275.355469 9.296875 "/>
<path style=" stroke:none;fill-rule:nonzero;fill:rgb(0%,0%,0%);fill-opacity:1;" d="M 291.300781 11.308594 C 291.222656 11.601562 291.222656 11.640625 290.96875 11.992188 C 290.578125 12.480469 289.777344 13.261719 288.9375 13.261719 C 288.214844 13.261719 287.785156 12.597656 287.785156 11.542969 C 287.785156 10.546875 288.351562 8.535156 288.683594 7.792969 C 289.308594 6.542969 290.148438 5.898438 290.832031 5.898438 C 292.023438 5.898438 292.257812 7.363281 292.257812 7.5 C 292.257812 7.519531 292.199219 7.753906 292.179688 7.792969 Z M 292.453125 6.71875 C 292.257812 6.25 291.769531 5.527344 290.832031 5.527344 C 288.820312 5.527344 286.632812 8.144531 286.632812 10.800781 C 286.632812 12.578125 287.667969 13.613281 288.878906 13.613281 C 289.875 13.613281 290.714844 12.851562 291.222656 12.246094 C 291.398438 13.320312 292.238281 13.613281 292.785156 13.613281 C 293.3125 13.613281 293.742188 13.300781 294.074219 12.65625 C 294.347656 12.03125 294.601562 10.9375 294.601562 10.878906 C 294.601562 10.78125 294.542969 10.703125 294.425781 10.703125 C 294.269531 10.703125 294.25 10.800781 294.171875 11.074219 C 293.898438 12.128906 293.566406 13.261719 292.824219 13.261719 C 292.316406 13.261719 292.277344 12.792969 292.277344 12.441406 C 292.277344 12.011719 292.335938 11.816406 292.492188 11.132812 C 292.609375 10.683594 292.707031 10.273438 292.84375 9.765625 C 293.507812 7.070312 293.664062 6.425781 293.664062 6.328125 C 293.664062 6.074219 293.46875 5.878906 293.214844 5.878906 C 292.628906 5.878906 292.492188 6.503906 292.453125 6.71875 Z M 292.453125 6.71875 "/>
<path style=" stroke:none;fill-rule:nonzero;fill:rgb(0%,0%,0%);fill-opacity:1;" d="M 300.117188 8.964844 C 300.117188 7.617188 299.941406 5.390625 298.925781 3.300781 C 297.871094 1.152344 296.40625 0 296.210938 0 C 296.132812 0 296.035156 0.0195312 296.035156 0.136719 C 296.035156 0.195312 296.035156 0.214844 296.347656 0.527344 C 298.144531 2.34375 299.140625 5.292969 299.140625 8.964844 C 299.140625 12.441406 298.300781 15.429688 296.230469 17.539062 C 296.035156 17.695312 296.035156 17.734375 296.035156 17.792969 C 296.035156 17.910156 296.132812 17.929688 296.210938 17.929688 C 296.445312 17.929688 297.910156 16.640625 298.789062 14.882812 C 299.707031 13.066406 300.117188 11.132812 300.117188 8.964844 Z M 300.117188 8.964844 "/>
<path style=" stroke:none;fill-rule:nonzero;fill:rgb(0%,0%,0%);fill-opacity:1;" d="M 309.105469 9.296875 L 314.066406 9.296875 C 314.320312 9.296875 314.632812 9.296875 314.632812 8.964844 C 314.632812 8.632812 314.320312 8.632812 314.066406 8.632812 L 309.105469 8.632812 L 309.105469 3.691406 C 309.105469 3.4375 309.105469 3.105469 308.792969 3.105469 C 308.441406 3.105469 308.441406 3.417969 308.441406 3.691406 L 308.441406 8.632812 L 303.5 8.632812 C 303.246094 8.632812 302.933594 8.632812 302.933594 8.964844 C 302.933594 9.296875 303.226562 9.296875 303.5 9.296875 L 308.441406 9.296875 L 308.441406 14.238281 C 308.441406 14.492188 308.441406 14.824219 308.773438 14.824219 C 309.105469 14.824219 309.105469 14.511719 309.105469 14.238281 Z M 309.105469 9.296875 "/>
<path style=" stroke:none;fill-rule:nonzero;fill:rgb(0%,0%,0%);fill-opacity:1;" d="M 329.007812 0.976562 C 329.007812 0.820312 328.871094 0.820312 328.832031 0.820312 C 328.8125 0.820312 328.734375 0.820312 328.597656 0.996094 L 327.347656 2.5 C 326.722656 1.425781 325.746094 0.820312 324.398438 0.820312 C 320.53125 0.820312 316.507812 4.746094 316.507812 8.964844 C 316.507812 11.953125 318.597656 13.808594 321.214844 13.808594 C 322.660156 13.808594 323.910156 13.203125 324.945312 12.324219 C 326.507812 11.015625 326.976562 9.277344 326.976562 9.140625 C 326.976562 8.964844 326.839844 8.964844 326.78125 8.964844 C 326.625 8.964844 326.605469 9.082031 326.566406 9.160156 C 325.746094 11.953125 323.324219 13.300781 321.527344 13.300781 C 319.632812 13.300781 317.972656 12.070312 317.972656 9.53125 C 317.972656 8.964844 318.148438 5.839844 320.179688 3.496094 C 321.175781 2.34375 322.855469 1.328125 324.554688 1.328125 C 326.527344 1.328125 327.40625 2.96875 327.40625 4.804688 C 327.40625 5.253906 327.347656 5.664062 327.347656 5.722656 C 327.347656 5.898438 327.523438 5.898438 327.582031 5.898438 C 327.777344 5.898438 327.796875 5.878906 327.875 5.546875 Z M 329.007812 0.976562 "/>
</g>
</svg>
