<?xml version="1.0" encoding="UTF-8"?>
<svg xmlns="http://www.w3.org/2000/svg" xmlns:xlink="http://www.w3.org/1999/xlink" width="258.54626pt" height="72.140923pt" viewBox="0 0 258.54626 72.140923" version="1.1">
<g id="surface1">
<path style=" stroke:none;fill-rule:nonzero;fill:rgb(0%,0%,0%);fill-opacity:1;" d="M 5.105469 33.113281 C 5.105469 33.074219 5.105469 33.035156 4.851562 32.78125 C 3.347656 31.277344 2.507812 28.816406 2.507812 25.769531 C 2.507812 22.859375 3.210938 20.359375 4.949219 18.601562 C 5.105469 18.464844 5.105469 18.445312 5.105469 18.386719 C 5.105469 18.308594 5.027344 18.269531 4.96875 18.269531 C 4.773438 18.269531 3.542969 19.34375 2.820312 20.808594 C 2.058594 22.332031 1.707031 23.914062 1.707031 25.769531 C 1.707031 27.097656 1.921875 28.875 2.683594 30.457031 C 3.582031 32.253906 4.792969 33.230469 4.96875 33.230469 C 5.027344 33.230469 5.105469 33.191406 5.105469 33.113281 Z M 5.105469 33.113281 "/>
<path style=" stroke:none;fill-rule:nonzero;fill:rgb(0%,0%,0%);fill-opacity:1;" d="M 13.023438 23.386719 C 12.535156 23.464844 12.359375 23.835938 12.359375 24.109375 C 12.359375 24.480469 12.632812 24.597656 12.847656 24.597656 C 13.296875 24.597656 13.609375 24.207031 13.609375 23.796875 C 13.609375 23.171875 12.886719 22.898438 12.261719 22.898438 C 11.363281 22.898438 10.855469 23.796875 10.71875 24.070312 C 10.367188 22.957031 9.449219 22.898438 9.175781 22.898438 C 7.652344 22.898438 6.851562 24.851562 6.851562 25.183594 C 6.851562 25.242188 6.910156 25.320312 7.007812 25.320312 C 7.125 25.320312 7.164062 25.222656 7.183594 25.164062 C 7.691406 23.503906 8.707031 23.191406 9.136719 23.191406 C 9.800781 23.191406 9.9375 23.816406 9.9375 24.167969 C 9.9375 24.5 9.839844 24.851562 9.664062 25.574219 L 9.15625 27.605469 C 8.941406 28.503906 8.511719 29.324219 7.710938 29.324219 C 7.632812 29.324219 7.261719 29.324219 6.949219 29.128906 C 7.496094 29.03125 7.613281 28.582031 7.613281 28.40625 C 7.613281 28.113281 7.378906 27.917969 7.105469 27.917969 C 6.734375 27.917969 6.34375 28.25 6.34375 28.71875 C 6.34375 29.34375 7.046875 29.636719 7.691406 29.636719 C 8.414062 29.636719 8.921875 29.070312 9.234375 28.445312 C 9.46875 29.324219 10.230469 29.636719 10.777344 29.636719 C 12.300781 29.636719 13.101562 27.664062 13.101562 27.351562 C 13.101562 27.273438 13.042969 27.214844 12.964844 27.214844 C 12.828125 27.214844 12.808594 27.292969 12.769531 27.410156 C 12.359375 28.71875 11.5 29.324219 10.816406 29.324219 C 10.289062 29.324219 10.015625 28.933594 10.015625 28.328125 C 10.015625 27.996094 10.074219 27.761719 10.308594 26.785156 L 10.835938 24.734375 C 11.050781 23.855469 11.558594 23.191406 12.261719 23.191406 C 12.28125 23.191406 12.710938 23.191406 13.023438 23.386719 Z M 13.023438 23.386719 "/>
<path style=" stroke:none;fill-rule:nonzero;fill:rgb(0%,0%,0%);fill-opacity:1;" d="M 27.414062 26.042969 C 27.667969 26.042969 27.941406 26.042969 27.941406 25.75 C 27.941406 25.4375 27.667969 25.4375 27.414062 25.4375 L 19.328125 25.4375 C 19.074219 25.4375 18.800781 25.4375 18.800781 25.75 C 18.800781 26.042969 19.074219 26.042969 19.328125 26.042969 Z M 27.414062 26.042969 "/>
<path style=" stroke:none;fill-rule:nonzero;fill:rgb(0%,0%,0%);fill-opacity:1;" d="M 37.90625 19.753906 C 37.90625 19.460938 37.90625 19.402344 37.691406 19.402344 C 37.574219 19.402344 37.535156 19.402344 37.417969 19.578125 L 32.925781 26.550781 L 32.925781 26.980469 L 36.851562 26.980469 L 36.851562 28.347656 C 36.851562 28.894531 36.8125 29.050781 35.71875 29.050781 L 35.425781 29.050781 L 35.425781 29.480469 C 35.777344 29.441406 36.949219 29.441406 37.378906 29.441406 C 37.789062 29.441406 38.980469 29.441406 39.332031 29.480469 L 39.332031 29.050781 L 39.039062 29.050781 C 37.945312 29.050781 37.90625 28.894531 37.90625 28.347656 L 37.90625 26.980469 L 39.410156 26.980469 L 39.410156 26.550781 L 37.90625 26.550781 Z M 36.929688 20.925781 L 36.929688 26.550781 L 33.296875 26.550781 Z M 36.929688 20.925781 "/>
<path style=" stroke:none;fill-rule:nonzero;fill:rgb(0%,0%,0%);fill-opacity:1;" d="M 44.050781 25.769531 C 44.050781 24.617188 43.894531 22.78125 43.054688 21.042969 C 42.175781 19.246094 40.945312 18.269531 40.789062 18.269531 C 40.730469 18.269531 40.652344 18.308594 40.652344 18.386719 C 40.652344 18.445312 40.652344 18.464844 40.90625 18.71875 C 42.410156 20.222656 43.230469 22.703125 43.230469 25.75 C 43.230469 28.640625 42.527344 31.140625 40.808594 32.898438 C 40.652344 33.035156 40.652344 33.074219 40.652344 33.113281 C 40.652344 33.191406 40.730469 33.230469 40.789062 33.230469 C 40.984375 33.230469 42.214844 32.15625 42.9375 30.691406 C 43.699219 29.167969 44.050781 27.546875 44.050781 25.769531 Z M 44.050781 25.769531 "/>
<path style=" stroke:none;fill-rule:nonzero;fill:rgb(0%,0%,0%);fill-opacity:1;" d="M 51.710938 25.75 C 51.710938 25.320312 51.359375 24.949219 50.910156 24.949219 C 50.480469 24.949219 50.128906 25.320312 50.128906 25.75 C 50.128906 26.179688 50.480469 26.53125 50.910156 26.53125 C 51.359375 26.53125 51.710938 26.179688 51.710938 25.75 Z M 51.710938 25.75 "/>
<path style=" stroke:none;fill-rule:nonzero;fill:rgb(0%,0%,0%);fill-opacity:1;" d="M 58.988281 26.023438 C 59.398438 26.023438 60.414062 25.984375 61.117188 25.710938 C 62.25 25.28125 62.367188 24.421875 62.367188 24.148438 C 62.367188 23.484375 61.800781 22.898438 60.804688 22.898438 C 59.242188 22.898438 56.976562 24.304688 56.976562 26.960938 C 56.976562 28.542969 57.875 29.636719 59.242188 29.636719 C 61.273438 29.636719 62.5625 28.054688 62.5625 27.859375 C 62.5625 27.761719 62.464844 27.683594 62.40625 27.683594 C 62.367188 27.683594 62.347656 27.703125 62.210938 27.839844 C 61.253906 29.109375 59.847656 29.324219 59.261719 29.324219 C 58.421875 29.324219 57.972656 28.660156 57.972656 27.546875 C 57.972656 27.351562 57.972656 26.960938 58.1875 26.023438 Z M 58.265625 25.710938 C 58.910156 23.40625 60.335938 23.191406 60.804688 23.191406 C 61.46875 23.191406 61.917969 23.582031 61.917969 24.148438 C 61.917969 25.710938 59.515625 25.710938 58.890625 25.710938 Z M 58.265625 25.710938 "/>
<path style=" stroke:none;fill-rule:nonzero;fill:rgb(0%,0%,0%);fill-opacity:1;" d="M 68.09375 20.09375 C 67.644531 20.191406 67.625 20.582031 67.625 20.621094 C 67.625 20.835938 67.800781 20.992188 68.015625 20.992188 C 68.230469 20.992188 68.5625 20.816406 68.5625 20.386719 C 68.5625 19.820312 67.9375 19.664062 67.566406 19.664062 C 67.117188 19.664062 66.726562 19.996094 66.492188 20.386719 C 66.277344 19.859375 65.769531 19.664062 65.359375 19.664062 C 64.265625 19.664062 63.660156 20.914062 63.660156 21.1875 C 63.660156 21.285156 63.738281 21.324219 63.816406 21.324219 C 63.933594 21.324219 63.953125 21.265625 63.972656 21.148438 C 64.207031 20.425781 64.8125 19.9375 65.320312 19.9375 C 65.710938 19.9375 65.90625 20.230469 65.90625 20.582031 C 65.90625 20.777344 65.789062 21.246094 65.710938 21.558594 C 65.632812 21.851562 65.417969 22.730469 65.359375 22.925781 C 65.222656 23.453125 64.871094 23.882812 64.421875 23.882812 C 64.382812 23.882812 64.128906 23.882812 63.914062 23.746094 C 64.363281 23.628906 64.363281 23.21875 64.363281 23.199219 C 64.363281 22.964844 64.1875 22.828125 63.972656 22.828125 C 63.699219 22.828125 63.40625 23.0625 63.40625 23.433594 C 63.40625 23.902344 63.894531 24.15625 64.402344 24.15625 C 64.929688 24.15625 65.300781 23.765625 65.476562 23.433594 C 65.710938 23.921875 66.160156 24.15625 66.648438 24.15625 C 67.722656 24.15625 68.328125 22.90625 68.328125 22.632812 C 68.328125 22.535156 68.25 22.496094 68.171875 22.496094 C 68.054688 22.496094 68.035156 22.574219 67.996094 22.671875 C 67.800781 23.335938 67.234375 23.882812 66.667969 23.882812 C 66.335938 23.882812 66.101562 23.667969 66.101562 23.238281 C 66.101562 23.042969 66.160156 22.808594 66.296875 22.261719 C 66.355469 21.949219 66.570312 21.089844 66.628906 20.894531 C 66.765625 20.367188 67.117188 19.9375 67.566406 19.9375 C 67.625 19.9375 67.878906 19.9375 68.09375 20.09375 Z M 68.09375 20.09375 "/>
<path style="fill:none;stroke-width:1;stroke-linecap:butt;stroke-linejoin:miter;stroke:rgb(0%,0%,0%);stroke-opacity:1;stroke-miterlimit:10;" d="M 0.305 -0.098506 L 55.305 -0.098506 " transform="matrix(1.25,0,0,-1.25,0.24375,35.85343)"/>
<path style=" stroke:none;fill-rule:nonzero;fill:rgb(0%,0%,0%);fill-opacity:1;" d="M 14.226562 53.472656 C 14.226562 53.433594 14.226562 53.394531 13.972656 53.140625 C 12.46875 51.636719 11.628906 49.175781 11.628906 46.128906 C 11.628906 43.21875 12.332031 40.71875 14.070312 38.960938 C 14.226562 38.824219 14.226562 38.804688 14.226562 38.746094 C 14.226562 38.667969 14.148438 38.628906 14.089844 38.628906 C 13.894531 38.628906 12.664062 39.703125 11.941406 41.167969 C 11.179688 42.691406 10.828125 44.273438 10.828125 46.128906 C 10.828125 47.457031 11.042969 49.234375 11.804688 50.816406 C 12.703125 52.613281 13.914062 53.589844 14.089844 53.589844 C 14.148438 53.589844 14.226562 53.550781 14.226562 53.472656 Z M 14.226562 53.472656 "/>
<path style=" stroke:none;fill-rule:nonzero;fill:rgb(0%,0%,0%);fill-opacity:1;" d="M 22.144531 43.746094 C 21.65625 43.824219 21.480469 44.195312 21.480469 44.46875 C 21.480469 44.839844 21.753906 44.957031 21.96875 44.957031 C 22.417969 44.957031 22.730469 44.566406 22.730469 44.15625 C 22.730469 43.53125 22.007812 43.257812 21.382812 43.257812 C 20.484375 43.257812 19.976562 44.15625 19.839844 44.429688 C 19.488281 43.316406 18.570312 43.257812 18.296875 43.257812 C 16.773438 43.257812 15.972656 45.210938 15.972656 45.542969 C 15.972656 45.601562 16.03125 45.679688 16.128906 45.679688 C 16.246094 45.679688 16.285156 45.582031 16.304688 45.523438 C 16.8125 43.863281 17.828125 43.550781 18.257812 43.550781 C 18.921875 43.550781 19.058594 44.175781 19.058594 44.527344 C 19.058594 44.859375 18.960938 45.210938 18.785156 45.933594 L 18.277344 47.964844 C 18.0625 48.863281 17.632812 49.683594 16.832031 49.683594 C 16.753906 49.683594 16.382812 49.683594 16.070312 49.488281 C 16.617188 49.390625 16.734375 48.941406 16.734375 48.765625 C 16.734375 48.472656 16.5 48.277344 16.226562 48.277344 C 15.855469 48.277344 15.464844 48.609375 15.464844 49.078125 C 15.464844 49.703125 16.167969 49.996094 16.8125 49.996094 C 17.535156 49.996094 18.042969 49.429688 18.355469 48.804688 C 18.589844 49.683594 19.351562 49.996094 19.898438 49.996094 C 21.421875 49.996094 22.222656 48.023438 22.222656 47.710938 C 22.222656 47.632812 22.164062 47.574219 22.085938 47.574219 C 21.949219 47.574219 21.929688 47.652344 21.890625 47.769531 C 21.480469 49.078125 20.621094 49.683594 19.9375 49.683594 C 19.410156 49.683594 19.136719 49.292969 19.136719 48.6875 C 19.136719 48.355469 19.195312 48.121094 19.429688 47.144531 L 19.957031 45.09375 C 20.171875 44.214844 20.679688 43.550781 21.382812 43.550781 C 21.402344 43.550781 21.832031 43.550781 22.144531 43.746094 Z M 22.144531 43.746094 "/>
<path style=" stroke:none;fill-rule:nonzero;fill:rgb(0%,0%,0%);fill-opacity:1;" d="M 36.535156 46.402344 C 36.789062 46.402344 37.0625 46.402344 37.0625 46.109375 C 37.0625 45.796875 36.789062 45.796875 36.535156 45.796875 L 28.449219 45.796875 C 28.195312 45.796875 27.921875 45.796875 27.921875 46.109375 C 27.921875 46.402344 28.195312 46.402344 28.449219 46.402344 Z M 36.535156 46.402344 "/>
<path style=" stroke:none;fill-rule:nonzero;fill:rgb(0%,0%,0%);fill-opacity:1;" d="M 48.214844 47.320312 L 47.882812 47.320312 C 47.824219 47.574219 47.707031 48.414062 47.570312 48.648438 C 47.453125 48.785156 46.613281 48.785156 46.164062 48.785156 L 43.390625 48.785156 C 43.800781 48.433594 44.71875 47.476562 45.089844 47.125 C 47.375 45.035156 48.214844 44.253906 48.214844 42.769531 C 48.214844 41.050781 46.847656 39.898438 45.109375 39.898438 C 43.390625 39.898438 42.355469 41.382812 42.355469 42.671875 C 42.355469 43.433594 43.019531 43.433594 43.058594 43.433594 C 43.390625 43.433594 43.761719 43.199219 43.761719 42.730469 C 43.761719 42.300781 43.488281 42.027344 43.058594 42.027344 C 42.941406 42.027344 42.902344 42.027344 42.863281 42.046875 C 43.136719 41.03125 43.957031 40.328125 44.914062 40.328125 C 46.183594 40.328125 46.964844 41.402344 46.964844 42.769531 C 46.964844 44.039062 46.242188 45.152344 45.382812 46.109375 L 42.355469 49.488281 L 42.355469 49.839844 L 47.824219 49.839844 Z M 48.214844 47.320312 "/>
<path style=" stroke:none;fill-rule:nonzero;fill:rgb(0%,0%,0%);fill-opacity:1;" d="M 53.167969 46.128906 C 53.167969 44.976562 53.011719 43.140625 52.171875 41.402344 C 51.292969 39.605469 50.0625 38.628906 49.90625 38.628906 C 49.847656 38.628906 49.769531 38.667969 49.769531 38.746094 C 49.769531 38.804688 49.769531 38.824219 50.023438 39.078125 C 51.527344 40.582031 52.347656 43.0625 52.347656 46.109375 C 52.347656 49 51.644531 51.5 49.925781 53.257812 C 49.769531 53.394531 49.769531 53.433594 49.769531 53.472656 C 49.769531 53.550781 49.847656 53.589844 49.90625 53.589844 C 50.101562 53.589844 51.332031 52.515625 52.054688 51.050781 C 52.816406 49.527344 53.167969 47.90625 53.167969 46.128906 Z M 53.167969 46.128906 "/>
<path style=" stroke:none;fill-rule:nonzero;fill:rgb(0%,0%,0%);fill-opacity:1;" d="M 57.160156 42.203125 C 57.941406 42.203125 58.449219 42.769531 58.449219 43.824219 C 58.449219 45.074219 57.746094 45.425781 57.21875 45.425781 C 56.671875 45.425781 55.910156 45.230469 55.558594 44.703125 C 55.929688 44.703125 56.183594 44.46875 56.183594 44.15625 C 56.183594 43.824219 55.949219 43.609375 55.617188 43.609375 C 55.363281 43.609375 55.070312 43.765625 55.070312 44.175781 C 55.070312 45.113281 56.085938 45.738281 57.238281 45.738281 C 58.546875 45.738281 59.484375 44.820312 59.484375 43.824219 C 59.484375 42.984375 58.820312 42.242188 57.804688 42.007812 C 58.585938 41.734375 59.191406 41.070312 59.191406 40.269531 C 59.191406 39.46875 58.292969 38.902344 57.257812 38.902344 C 56.183594 38.902344 55.382812 39.46875 55.382812 40.230469 C 55.382812 40.601562 55.617188 40.757812 55.890625 40.757812 C 56.203125 40.757812 56.398438 40.542969 56.398438 40.25 C 56.398438 39.878906 56.066406 39.742188 55.851562 39.742188 C 56.28125 39.195312 57.042969 39.15625 57.21875 39.15625 C 57.472656 39.15625 58.234375 39.234375 58.234375 40.269531 C 58.234375 40.953125 57.941406 41.382812 57.804688 41.539062 C 57.511719 41.851562 57.277344 41.871094 56.671875 41.910156 C 56.476562 41.910156 56.398438 41.929688 56.398438 42.066406 C 56.398438 42.203125 56.496094 42.203125 56.671875 42.203125 Z M 57.160156 42.203125 "/>
<path style=" stroke:none;fill-rule:nonzero;fill:rgb(0%,0%,0%);fill-opacity:1;" d="M 85.402344 34.746094 C 85.617188 34.746094 85.890625 34.746094 85.890625 34.472656 C 85.890625 34.199219 85.636719 34.199219 85.402344 34.199219 L 76.613281 34.199219 C 76.398438 34.199219 76.125 34.199219 76.125 34.472656 C 76.125 34.746094 76.378906 34.746094 76.613281 34.746094 Z M 85.402344 37.519531 C 85.617188 37.519531 85.890625 37.519531 85.890625 37.265625 C 85.890625 36.972656 85.636719 36.972656 85.402344 36.972656 L 76.613281 36.972656 C 76.398438 36.972656 76.125 36.972656 76.125 37.246094 C 76.125 37.519531 76.378906 37.519531 76.613281 37.519531 Z M 85.402344 37.519531 "/>
<path style=" stroke:none;fill-rule:nonzero;fill:rgb(0%,0%,0%);fill-opacity:1;" d="M 95.71875 26.875 L 96.753906 26.875 L 96.753906 1.035156 L 100.699219 1.035156 L 100.699219 0 L 95.71875 0 Z M 95.71875 26.875 "/>
<path style=" stroke:none;fill-rule:nonzero;fill:rgb(0%,0%,0%);fill-opacity:1;" d="M 95.71875 35.871094 L 96.753906 35.871094 L 96.753906 26.867188 L 95.71875 26.867188 Z M 95.71875 35.871094 "/>
<path style=" stroke:none;fill-rule:nonzero;fill:rgb(0%,0%,0%);fill-opacity:1;" d="M 95.71875 44.835938 L 96.753906 44.835938 L 96.753906 35.832031 L 95.71875 35.832031 Z M 95.71875 44.835938 "/>
<path style=" stroke:none;fill-rule:nonzero;fill:rgb(0%,0%,0%);fill-opacity:1;" d="M 95.71875 71.707031 L 100.699219 71.707031 L 100.699219 70.671875 L 96.753906 70.671875 L 96.753906 44.8125 L 95.71875 44.8125 Z M 95.71875 71.707031 "/>
<path style=" stroke:none;fill-rule:nonzero;fill:rgb(0%,0%,0%);fill-opacity:1;" d="M 128.546875 19.910156 C 128.546875 19.558594 128.546875 19.539062 128.253906 19.539062 C 127.902344 19.949219 127.140625 20.496094 125.617188 20.496094 L 125.617188 20.925781 C 125.949219 20.925781 126.691406 20.925781 127.53125 20.554688 L 127.53125 28.328125 C 127.53125 28.875 127.472656 29.050781 126.164062 29.050781 L 125.695312 29.050781 L 125.695312 29.480469 C 126.105469 29.441406 127.550781 29.441406 128.039062 29.441406 C 128.546875 29.441406 129.972656 29.441406 130.382812 29.480469 L 130.382812 29.050781 L 129.914062 29.050781 C 128.605469 29.050781 128.546875 28.875 128.546875 28.328125 Z M 128.546875 19.910156 "/>
<path style="fill:none;stroke-width:1;stroke-linecap:butt;stroke-linejoin:miter;stroke:rgb(0%,0%,0%);stroke-opacity:1;stroke-miterlimit:10;" d="M -0.349 -0.098506 L 40.651 -0.098506 " transform="matrix(1.25,0,0,-1.25,102.31125,35.85343)"/>
<path style=" stroke:none;fill-rule:nonzero;fill:rgb(0%,0%,0%);fill-opacity:1;" d="M 107.175781 53.472656 C 107.175781 53.433594 107.175781 53.394531 106.921875 53.140625 C 105.417969 51.636719 104.578125 49.175781 104.578125 46.128906 C 104.578125 43.21875 105.28125 40.71875 107.019531 38.960938 C 107.175781 38.824219 107.175781 38.804688 107.175781 38.746094 C 107.175781 38.667969 107.097656 38.628906 107.039062 38.628906 C 106.84375 38.628906 105.613281 39.703125 104.890625 41.167969 C 104.128906 42.691406 103.777344 44.273438 103.777344 46.128906 C 103.777344 47.457031 103.992188 49.234375 104.753906 50.816406 C 105.652344 52.613281 106.863281 53.589844 107.039062 53.589844 C 107.097656 53.589844 107.175781 53.550781 107.175781 53.472656 Z M 107.175781 53.472656 "/>
<path style=" stroke:none;fill-rule:nonzero;fill:rgb(0%,0%,0%);fill-opacity:1;" d="M 115.089844 43.746094 C 114.601562 43.824219 114.425781 44.195312 114.425781 44.46875 C 114.425781 44.839844 114.699219 44.957031 114.914062 44.957031 C 115.363281 44.957031 115.675781 44.566406 115.675781 44.15625 C 115.675781 43.53125 114.953125 43.257812 114.328125 43.257812 C 113.429688 43.257812 112.921875 44.15625 112.785156 44.429688 C 112.433594 43.316406 111.515625 43.257812 111.242188 43.257812 C 109.71875 43.257812 108.917969 45.210938 108.917969 45.542969 C 108.917969 45.601562 108.976562 45.679688 109.074219 45.679688 C 109.191406 45.679688 109.230469 45.582031 109.25 45.523438 C 109.757812 43.863281 110.773438 43.550781 111.203125 43.550781 C 111.867188 43.550781 112.003906 44.175781 112.003906 44.527344 C 112.003906 44.859375 111.90625 45.210938 111.730469 45.933594 L 111.222656 47.964844 C 111.007812 48.863281 110.578125 49.683594 109.777344 49.683594 C 109.699219 49.683594 109.328125 49.683594 109.015625 49.488281 C 109.5625 49.390625 109.679688 48.941406 109.679688 48.765625 C 109.679688 48.472656 109.445312 48.277344 109.171875 48.277344 C 108.800781 48.277344 108.410156 48.609375 108.410156 49.078125 C 108.410156 49.703125 109.113281 49.996094 109.757812 49.996094 C 110.480469 49.996094 110.988281 49.429688 111.300781 48.804688 C 111.535156 49.683594 112.296875 49.996094 112.84375 49.996094 C 114.367188 49.996094 115.167969 48.023438 115.167969 47.710938 C 115.167969 47.632812 115.109375 47.574219 115.03125 47.574219 C 114.894531 47.574219 114.875 47.652344 114.835938 47.769531 C 114.425781 49.078125 113.566406 49.683594 112.882812 49.683594 C 112.355469 49.683594 112.082031 49.292969 112.082031 48.6875 C 112.082031 48.355469 112.140625 48.121094 112.375 47.144531 L 112.902344 45.09375 C 113.117188 44.214844 113.625 43.550781 114.328125 43.550781 C 114.347656 43.550781 114.777344 43.550781 115.089844 43.746094 Z M 115.089844 43.746094 "/>
<path style=" stroke:none;fill-rule:nonzero;fill:rgb(0%,0%,0%);fill-opacity:1;" d="M 129.480469 46.402344 C 129.734375 46.402344 130.007812 46.402344 130.007812 46.109375 C 130.007812 45.796875 129.734375 45.796875 129.480469 45.796875 L 121.394531 45.796875 C 121.140625 45.796875 120.867188 45.796875 120.867188 46.109375 C 120.867188 46.402344 121.140625 46.402344 121.394531 46.402344 Z M 129.480469 46.402344 "/>
<path style=" stroke:none;fill-rule:nonzero;fill:rgb(0%,0%,0%);fill-opacity:1;" d="M 141.164062 47.320312 L 140.832031 47.320312 C 140.773438 47.574219 140.65625 48.414062 140.519531 48.648438 C 140.402344 48.785156 139.5625 48.785156 139.113281 48.785156 L 136.339844 48.785156 C 136.75 48.433594 137.667969 47.476562 138.039062 47.125 C 140.324219 45.035156 141.164062 44.253906 141.164062 42.769531 C 141.164062 41.050781 139.796875 39.898438 138.058594 39.898438 C 136.339844 39.898438 135.304688 41.382812 135.304688 42.671875 C 135.304688 43.433594 135.96875 43.433594 136.007812 43.433594 C 136.339844 43.433594 136.710938 43.199219 136.710938 42.730469 C 136.710938 42.300781 136.4375 42.027344 136.007812 42.027344 C 135.890625 42.027344 135.851562 42.027344 135.8125 42.046875 C 136.085938 41.03125 136.90625 40.328125 137.863281 40.328125 C 139.132812 40.328125 139.914062 41.402344 139.914062 42.769531 C 139.914062 44.039062 139.191406 45.152344 138.332031 46.109375 L 135.304688 49.488281 L 135.304688 49.839844 L 140.773438 49.839844 Z M 141.164062 47.320312 "/>
<path style=" stroke:none;fill-rule:nonzero;fill:rgb(0%,0%,0%);fill-opacity:1;" d="M 146.117188 46.128906 C 146.117188 44.976562 145.960938 43.140625 145.121094 41.402344 C 144.242188 39.605469 143.011719 38.628906 142.855469 38.628906 C 142.796875 38.628906 142.71875 38.667969 142.71875 38.746094 C 142.71875 38.804688 142.71875 38.824219 142.972656 39.078125 C 144.476562 40.582031 145.296875 43.0625 145.296875 46.109375 C 145.296875 49 144.59375 51.5 142.875 53.257812 C 142.71875 53.394531 142.71875 53.433594 142.71875 53.472656 C 142.71875 53.550781 142.796875 53.589844 142.855469 53.589844 C 143.050781 53.589844 144.28125 52.515625 145.003906 51.050781 C 145.765625 49.527344 146.117188 47.90625 146.117188 46.128906 Z M 146.117188 46.128906 "/>
<path style=" stroke:none;fill-rule:nonzero;fill:rgb(0%,0%,0%);fill-opacity:1;" d="M 150.398438 43.492188 C 150.554688 43.335938 150.964844 43.003906 151.140625 42.867188 C 151.746094 42.300781 152.332031 41.753906 152.332031 40.855469 C 152.332031 39.664062 151.335938 38.902344 150.105469 38.902344 C 148.894531 38.902344 148.113281 39.800781 148.113281 40.699219 C 148.113281 41.1875 148.503906 41.246094 148.640625 41.246094 C 148.855469 41.246094 149.167969 41.109375 149.167969 40.71875 C 149.167969 40.210938 148.660156 40.210938 148.542969 40.210938 C 148.835938 39.46875 149.5 39.234375 149.988281 39.234375 C 150.90625 39.234375 151.394531 40.015625 151.394531 40.855469 C 151.394531 41.890625 150.671875 42.652344 149.480469 43.84375 L 148.230469 45.152344 C 148.113281 45.25 148.113281 45.269531 148.113281 45.523438 L 152.039062 45.523438 L 152.332031 43.746094 L 152.019531 43.746094 C 152 43.941406 151.921875 44.429688 151.804688 44.625 C 151.746094 44.703125 150.984375 44.703125 150.828125 44.703125 L 149.050781 44.703125 Z M 150.398438 43.492188 "/>
<path style=" stroke:none;fill-rule:nonzero;fill:rgb(0%,0%,0%);fill-opacity:1;" d="M 107.691406 57.738281 C 107.691406 57.386719 107.691406 57.308594 107.476562 57.308594 C 106.578125 57.289062 105.09375 57.171875 103.746094 56.527344 C 102.125 55.707031 101.519531 54.769531 101.148438 54.183594 C 101.109375 54.105469 101.011719 54.105469 100.816406 54.105469 C 100.464844 54.105469 100.464844 54.125 100.464844 54.496094 L 100.464844 54.75 C 102.496094 58.402344 105.855469 59.105469 107.378906 59.105469 C 107.691406 59.105469 107.691406 59.085938 107.691406 58.695312 Z M 107.691406 57.738281 "/>
<path style=" stroke:none;fill-rule:nonzero;fill:rgb(0%,0%,0%);fill-opacity:1;" d="M 107.539062 59.109375 L 121.179688 59.109375 L 121.179688 57.3125 L 107.539062 57.3125 Z M 107.539062 59.109375 "/>
<path style=" stroke:none;fill-rule:nonzero;fill:rgb(0%,0%,0%);fill-opacity:1;" d="M 128.273438 61.683594 C 126.242188 58.011719 122.863281 57.308594 121.339844 57.308594 C 121.027344 57.308594 121.027344 57.328125 121.027344 57.738281 L 121.027344 58.695312 C 121.027344 59.027344 121.027344 59.105469 121.242188 59.105469 C 122.160156 59.125 123.625 59.242188 124.972656 59.90625 C 126.59375 60.707031 127.199219 61.644531 127.570312 62.230469 C 127.628906 62.308594 127.707031 62.308594 127.902344 62.308594 C 128.253906 62.308594 128.273438 62.289062 128.273438 61.917969 Z M 128.273438 61.683594 "/>
<path style=" stroke:none;fill-rule:nonzero;fill:rgb(0%,0%,0%);fill-opacity:1;" d="M 134.78125 57.738281 C 134.78125 57.328125 134.78125 57.308594 134.46875 57.308594 C 132.945312 57.308594 129.585938 58.03125 127.554688 61.683594 L 127.554688 61.917969 C 127.554688 62.289062 127.554688 62.308594 127.90625 62.308594 C 128.199219 62.308594 128.199219 62.289062 128.277344 62.191406 C 129.507812 60.21875 131.558594 59.164062 134.605469 59.105469 C 134.78125 59.105469 134.78125 59.007812 134.78125 58.695312 Z M 134.78125 57.738281 "/>
<path style=" stroke:none;fill-rule:nonzero;fill:rgb(0%,0%,0%);fill-opacity:1;" d="M 134.632812 59.109375 L 148.273438 59.109375 L 148.273438 57.3125 L 134.632812 57.3125 Z M 134.632812 59.109375 "/>
<path style=" stroke:none;fill-rule:nonzero;fill:rgb(0%,0%,0%);fill-opacity:1;" d="M 155.363281 54.496094 C 155.363281 54.125 155.34375 54.105469 154.992188 54.105469 C 154.71875 54.105469 154.699219 54.125 154.621094 54.242188 C 153.390625 56.195312 151.339844 57.25 148.3125 57.308594 C 148.117188 57.308594 148.117188 57.425781 148.117188 57.738281 L 148.117188 58.695312 C 148.117188 59.085938 148.117188 59.105469 148.429688 59.105469 C 149.953125 59.105469 153.332031 58.382812 155.363281 54.75 Z M 155.363281 54.496094 "/>
<path style=" stroke:none;fill-rule:nonzero;fill:rgb(0%,0%,0%);fill-opacity:1;" d="M 125.777344 70.949219 C 125.328125 71.691406 124.917969 71.789062 124.566406 71.808594 C 124.46875 71.828125 124.332031 71.828125 124.332031 72.003906 C 124.332031 72.023438 124.351562 72.140625 124.488281 72.140625 C 124.566406 72.140625 124.625 72.101562 125.328125 72.101562 C 126.011719 72.101562 126.226562 72.140625 126.285156 72.140625 C 126.324219 72.140625 126.480469 72.140625 126.480469 71.945312 C 126.480469 71.828125 126.34375 71.808594 126.304688 71.808594 C 126.089844 71.808594 125.875 71.730469 125.875 71.496094 C 125.875 71.359375 125.972656 71.222656 126.148438 70.929688 L 126.832031 69.835938 L 129.566406 69.835938 L 129.761719 71.515625 C 129.761719 71.671875 129.585938 71.808594 129.117188 71.808594 C 128.980469 71.808594 128.84375 71.808594 128.84375 72.003906 C 128.84375 72.003906 128.84375 72.140625 129.019531 72.140625 C 129.117188 72.140625 129.488281 72.121094 129.585938 72.101562 L 130.210938 72.101562 C 131.109375 72.101562 131.265625 72.140625 131.34375 72.140625 C 131.382812 72.140625 131.558594 72.140625 131.558594 71.945312 C 131.558594 71.808594 131.421875 71.808594 131.265625 71.808594 C 130.71875 71.808594 130.699219 71.730469 130.679688 71.476562 L 129.878906 65.324219 C 129.859375 65.089844 129.839844 65.03125 129.683594 65.03125 C 129.507812 65.03125 129.449219 65.128906 129.371094 65.226562 Z M 127.046875 69.503906 L 129.097656 66.242188 L 129.527344 69.503906 Z M 127.046875 69.503906 "/>
<path style=" stroke:none;fill-rule:nonzero;fill:rgb(0%,0%,0%);fill-opacity:1;" d="M 163.445312 36.132812 L 167.566406 36.132812 C 167.78125 36.132812 168.054688 36.132812 168.054688 35.878906 C 168.054688 35.585938 167.800781 35.585938 167.566406 35.585938 L 163.445312 35.585938 L 163.445312 31.464844 C 163.445312 31.25 163.445312 30.976562 163.171875 30.976562 C 162.898438 30.976562 162.898438 31.230469 162.898438 31.464844 L 162.898438 35.585938 L 158.777344 35.585938 C 158.5625 35.585938 158.289062 35.585938 158.289062 35.859375 C 158.289062 36.132812 158.542969 36.132812 158.777344 36.132812 L 162.898438 36.132812 L 162.898438 40.253906 C 162.898438 40.46875 162.898438 40.742188 163.171875 40.742188 C 163.445312 40.742188 163.445312 40.488281 163.445312 40.253906 Z M 163.445312 36.132812 "/>
<path style=" stroke:none;fill-rule:nonzero;fill:rgb(0%,0%,0%);fill-opacity:1;" d="M 198.824219 26.042969 C 199.078125 26.042969 199.351562 26.042969 199.351562 25.75 C 199.351562 25.4375 199.078125 25.4375 198.824219 25.4375 L 190.738281 25.4375 C 190.484375 25.4375 190.210938 25.4375 190.210938 25.75 C 190.210938 26.042969 190.484375 26.042969 190.738281 26.042969 Z M 198.824219 26.042969 "/>
<path style=" stroke:none;fill-rule:nonzero;fill:rgb(0%,0%,0%);fill-opacity:1;" d="M 207.1875 26.960938 L 206.855469 26.960938 C 206.796875 27.214844 206.679688 28.054688 206.542969 28.289062 C 206.425781 28.425781 205.585938 28.425781 205.136719 28.425781 L 202.363281 28.425781 C 202.773438 28.074219 203.691406 27.117188 204.0625 26.765625 C 206.347656 24.675781 207.1875 23.894531 207.1875 22.410156 C 207.1875 20.691406 205.820312 19.539062 204.082031 19.539062 C 202.363281 19.539062 201.328125 21.023438 201.328125 22.3125 C 201.328125 23.074219 201.992188 23.074219 202.03125 23.074219 C 202.363281 23.074219 202.734375 22.839844 202.734375 22.371094 C 202.734375 21.941406 202.460938 21.667969 202.03125 21.667969 C 201.914062 21.667969 201.875 21.667969 201.835938 21.6875 C 202.109375 20.671875 202.929688 19.96875 203.886719 19.96875 C 205.15625 19.96875 205.9375 21.042969 205.9375 22.410156 C 205.9375 23.679688 205.214844 24.792969 204.355469 25.75 L 201.328125 29.128906 L 201.328125 29.480469 L 206.796875 29.480469 Z M 207.1875 26.960938 "/>
<path style="fill:none;stroke-width:1;stroke-linecap:butt;stroke-linejoin:miter;stroke:rgb(0%,0%,0%);stroke-opacity:1;stroke-miterlimit:10;" d="M 0.217 -0.098506 L 41.217 -0.098506 " transform="matrix(1.25,0,0,-1.25,172.85375,35.85343)"/>
<path style=" stroke:none;fill-rule:nonzero;fill:rgb(0%,0%,0%);fill-opacity:1;" d="M 177.71875 53.472656 C 177.71875 53.433594 177.71875 53.394531 177.464844 53.140625 C 175.960938 51.636719 175.121094 49.175781 175.121094 46.128906 C 175.121094 43.21875 175.824219 40.71875 177.5625 38.960938 C 177.71875 38.824219 177.71875 38.804688 177.71875 38.746094 C 177.71875 38.667969 177.640625 38.628906 177.582031 38.628906 C 177.386719 38.628906 176.15625 39.703125 175.433594 41.167969 C 174.671875 42.691406 174.320312 44.273438 174.320312 46.128906 C 174.320312 47.457031 174.535156 49.234375 175.296875 50.816406 C 176.195312 52.613281 177.40625 53.589844 177.582031 53.589844 C 177.640625 53.589844 177.71875 53.550781 177.71875 53.472656 Z M 177.71875 53.472656 "/>
<path style=" stroke:none;fill-rule:nonzero;fill:rgb(0%,0%,0%);fill-opacity:1;" d="M 185.636719 43.746094 C 185.148438 43.824219 184.972656 44.195312 184.972656 44.46875 C 184.972656 44.839844 185.246094 44.957031 185.460938 44.957031 C 185.910156 44.957031 186.222656 44.566406 186.222656 44.15625 C 186.222656 43.53125 185.5 43.257812 184.875 43.257812 C 183.976562 43.257812 183.46875 44.15625 183.332031 44.429688 C 182.980469 43.316406 182.0625 43.257812 181.789062 43.257812 C 180.265625 43.257812 179.464844 45.210938 179.464844 45.542969 C 179.464844 45.601562 179.523438 45.679688 179.621094 45.679688 C 179.738281 45.679688 179.777344 45.582031 179.796875 45.523438 C 180.304688 43.863281 181.320312 43.550781 181.75 43.550781 C 182.414062 43.550781 182.550781 44.175781 182.550781 44.527344 C 182.550781 44.859375 182.453125 45.210938 182.277344 45.933594 L 181.769531 47.964844 C 181.554688 48.863281 181.125 49.683594 180.324219 49.683594 C 180.246094 49.683594 179.875 49.683594 179.5625 49.488281 C 180.109375 49.390625 180.226562 48.941406 180.226562 48.765625 C 180.226562 48.472656 179.992188 48.277344 179.71875 48.277344 C 179.347656 48.277344 178.957031 48.609375 178.957031 49.078125 C 178.957031 49.703125 179.660156 49.996094 180.304688 49.996094 C 181.027344 49.996094 181.535156 49.429688 181.847656 48.804688 C 182.082031 49.683594 182.84375 49.996094 183.390625 49.996094 C 184.914062 49.996094 185.714844 48.023438 185.714844 47.710938 C 185.714844 47.632812 185.65625 47.574219 185.578125 47.574219 C 185.441406 47.574219 185.421875 47.652344 185.382812 47.769531 C 184.972656 49.078125 184.113281 49.683594 183.429688 49.683594 C 182.902344 49.683594 182.628906 49.292969 182.628906 48.6875 C 182.628906 48.355469 182.6875 48.121094 182.921875 47.144531 L 183.449219 45.09375 C 183.664062 44.214844 184.171875 43.550781 184.875 43.550781 C 184.894531 43.550781 185.324219 43.550781 185.636719 43.746094 Z M 185.636719 43.746094 "/>
<path style=" stroke:none;fill-rule:nonzero;fill:rgb(0%,0%,0%);fill-opacity:1;" d="M 200.023438 46.402344 C 200.277344 46.402344 200.550781 46.402344 200.550781 46.109375 C 200.550781 45.796875 200.277344 45.796875 200.023438 45.796875 L 191.9375 45.796875 C 191.683594 45.796875 191.410156 45.796875 191.410156 46.109375 C 191.410156 46.402344 191.683594 46.402344 191.9375 46.402344 Z M 200.023438 46.402344 "/>
<path style=" stroke:none;fill-rule:nonzero;fill:rgb(0%,0%,0%);fill-opacity:1;" d="M 211.707031 47.320312 L 211.375 47.320312 C 211.316406 47.574219 211.199219 48.414062 211.0625 48.648438 C 210.945312 48.785156 210.105469 48.785156 209.65625 48.785156 L 206.882812 48.785156 C 207.292969 48.433594 208.210938 47.476562 208.582031 47.125 C 210.867188 45.035156 211.707031 44.253906 211.707031 42.769531 C 211.707031 41.050781 210.339844 39.898438 208.601562 39.898438 C 206.882812 39.898438 205.847656 41.382812 205.847656 42.671875 C 205.847656 43.433594 206.511719 43.433594 206.550781 43.433594 C 206.882812 43.433594 207.253906 43.199219 207.253906 42.730469 C 207.253906 42.300781 206.980469 42.027344 206.550781 42.027344 C 206.433594 42.027344 206.394531 42.027344 206.355469 42.046875 C 206.628906 41.03125 207.449219 40.328125 208.40625 40.328125 C 209.675781 40.328125 210.457031 41.402344 210.457031 42.769531 C 210.457031 44.039062 209.734375 45.152344 208.875 46.109375 L 205.847656 49.488281 L 205.847656 49.839844 L 211.316406 49.839844 Z M 211.707031 47.320312 "/>
<path style=" stroke:none;fill-rule:nonzero;fill:rgb(0%,0%,0%);fill-opacity:1;" d="M 216.660156 46.128906 C 216.660156 44.976562 216.503906 43.140625 215.664062 41.402344 C 214.785156 39.605469 213.554688 38.628906 213.398438 38.628906 C 213.339844 38.628906 213.261719 38.667969 213.261719 38.746094 C 213.261719 38.804688 213.261719 38.824219 213.515625 39.078125 C 215.019531 40.582031 215.839844 43.0625 215.839844 46.109375 C 215.839844 49 215.136719 51.5 213.417969 53.257812 C 213.261719 53.394531 213.261719 53.433594 213.261719 53.472656 C 213.261719 53.550781 213.339844 53.589844 213.398438 53.589844 C 213.59375 53.589844 214.824219 52.515625 215.546875 51.050781 C 216.308594 49.527344 216.660156 47.90625 216.660156 46.128906 Z M 216.660156 46.128906 "/>
<path style=" stroke:none;fill-rule:nonzero;fill:rgb(0%,0%,0%);fill-opacity:1;" d="M 220.652344 42.203125 C 221.433594 42.203125 221.941406 42.769531 221.941406 43.824219 C 221.941406 45.074219 221.238281 45.425781 220.710938 45.425781 C 220.164062 45.425781 219.402344 45.230469 219.050781 44.703125 C 219.421875 44.703125 219.675781 44.46875 219.675781 44.15625 C 219.675781 43.824219 219.441406 43.609375 219.109375 43.609375 C 218.855469 43.609375 218.5625 43.765625 218.5625 44.175781 C 218.5625 45.113281 219.578125 45.738281 220.730469 45.738281 C 222.039062 45.738281 222.976562 44.820312 222.976562 43.824219 C 222.976562 42.984375 222.3125 42.242188 221.296875 42.007812 C 222.078125 41.734375 222.683594 41.070312 222.683594 40.269531 C 222.683594 39.46875 221.785156 38.902344 220.75 38.902344 C 219.675781 38.902344 218.875 39.46875 218.875 40.230469 C 218.875 40.601562 219.109375 40.757812 219.382812 40.757812 C 219.695312 40.757812 219.890625 40.542969 219.890625 40.25 C 219.890625 39.878906 219.558594 39.742188 219.34375 39.742188 C 219.773438 39.195312 220.535156 39.15625 220.710938 39.15625 C 220.964844 39.15625 221.726562 39.234375 221.726562 40.269531 C 221.726562 40.953125 221.433594 41.382812 221.296875 41.539062 C 221.003906 41.851562 220.769531 41.871094 220.164062 41.910156 C 219.96875 41.910156 219.890625 41.929688 219.890625 42.066406 C 219.890625 42.203125 219.988281 42.203125 220.164062 42.203125 Z M 220.652344 42.203125 "/>
<path style=" stroke:none;fill-rule:nonzero;fill:rgb(0%,0%,0%);fill-opacity:1;" d="M 178.234375 57.738281 C 178.234375 57.386719 178.234375 57.308594 178.019531 57.308594 C 177.121094 57.289062 175.636719 57.171875 174.289062 56.527344 C 172.667969 55.707031 172.0625 54.769531 171.691406 54.183594 C 171.652344 54.105469 171.554688 54.105469 171.359375 54.105469 C 171.007812 54.105469 171.007812 54.125 171.007812 54.496094 L 171.007812 54.75 C 173.039062 58.402344 176.398438 59.105469 177.921875 59.105469 C 178.234375 59.105469 178.234375 59.085938 178.234375 58.695312 Z M 178.234375 57.738281 "/>
<path style=" stroke:none;fill-rule:nonzero;fill:rgb(0%,0%,0%);fill-opacity:1;" d="M 178.085938 59.109375 L 191.726562 59.109375 L 191.726562 57.3125 L 178.085938 57.3125 Z M 178.085938 59.109375 "/>
<path style=" stroke:none;fill-rule:nonzero;fill:rgb(0%,0%,0%);fill-opacity:1;" d="M 198.816406 61.683594 C 196.785156 58.011719 193.40625 57.308594 191.882812 57.308594 C 191.570312 57.308594 191.570312 57.328125 191.570312 57.738281 L 191.570312 58.695312 C 191.570312 59.027344 191.570312 59.105469 191.785156 59.105469 C 192.703125 59.125 194.167969 59.242188 195.515625 59.90625 C 197.136719 60.707031 197.742188 61.644531 198.113281 62.230469 C 198.171875 62.308594 198.25 62.308594 198.445312 62.308594 C 198.796875 62.308594 198.816406 62.289062 198.816406 61.917969 Z M 198.816406 61.683594 "/>
<path style=" stroke:none;fill-rule:nonzero;fill:rgb(0%,0%,0%);fill-opacity:1;" d="M 205.324219 57.738281 C 205.324219 57.328125 205.324219 57.308594 205.011719 57.308594 C 203.488281 57.308594 200.128906 58.03125 198.097656 61.683594 L 198.097656 61.917969 C 198.097656 62.289062 198.097656 62.308594 198.449219 62.308594 C 198.742188 62.308594 198.742188 62.289062 198.820312 62.191406 C 200.050781 60.21875 202.101562 59.164062 205.148438 59.105469 C 205.324219 59.105469 205.324219 59.007812 205.324219 58.695312 Z M 205.324219 57.738281 "/>
<path style=" stroke:none;fill-rule:nonzero;fill:rgb(0%,0%,0%);fill-opacity:1;" d="M 205.175781 59.109375 L 218.820312 59.109375 L 218.820312 57.3125 L 205.175781 57.3125 Z M 205.175781 59.109375 "/>
<path style=" stroke:none;fill-rule:nonzero;fill:rgb(0%,0%,0%);fill-opacity:1;" d="M 225.90625 54.496094 C 225.90625 54.125 225.886719 54.105469 225.535156 54.105469 C 225.261719 54.105469 225.242188 54.125 225.164062 54.242188 C 223.933594 56.195312 221.882812 57.25 218.855469 57.308594 C 218.660156 57.308594 218.660156 57.425781 218.660156 57.738281 L 218.660156 58.695312 C 218.660156 59.085938 218.660156 59.105469 218.972656 59.105469 C 220.496094 59.105469 223.875 58.382812 225.90625 54.75 Z M 225.90625 54.496094 "/>
<path style=" stroke:none;fill-rule:nonzero;fill:rgb(0%,0%,0%);fill-opacity:1;" d="M 195.890625 71.359375 C 195.8125 71.730469 195.792969 71.808594 195.050781 71.808594 C 194.855469 71.808594 194.738281 71.808594 194.738281 72.003906 C 194.738281 72.140625 194.875 72.140625 195.03125 72.140625 L 198.742188 72.140625 C 200.382812 72.140625 201.59375 70.96875 201.59375 70.011719 C 201.59375 69.289062 200.96875 68.703125 199.972656 68.585938 C 201.125 68.371094 202.121094 67.609375 202.121094 66.730469 C 202.121094 65.988281 201.398438 65.34375 200.148438 65.34375 L 196.671875 65.34375 C 196.496094 65.34375 196.359375 65.34375 196.359375 65.519531 C 196.359375 65.675781 196.476562 65.675781 196.652344 65.675781 C 196.984375 65.675781 197.277344 65.675781 197.277344 65.832031 C 197.277344 65.871094 197.257812 65.871094 197.238281 66.007812 Z M 197.453125 68.46875 L 198.058594 66.027344 C 198.136719 65.695312 198.15625 65.675781 198.566406 65.675781 L 199.992188 65.675781 C 200.96875 65.675781 201.203125 66.300781 201.203125 66.710938 C 201.203125 67.550781 200.285156 68.46875 199.015625 68.46875 Z M 196.769531 71.808594 C 196.671875 71.789062 196.632812 71.789062 196.632812 71.730469 C 196.632812 71.652344 196.652344 71.554688 196.671875 71.496094 L 197.375 68.742188 L 199.40625 68.742188 C 200.324219 68.742188 200.636719 69.367188 200.636719 69.933594 C 200.636719 70.910156 199.679688 71.808594 198.488281 71.808594 Z M 196.769531 71.808594 "/>
<path style=" stroke:none;fill-rule:nonzero;fill:rgb(0%,0%,0%);fill-opacity:1;" d="M 229.585938 26.875 L 230.621094 26.875 L 230.621094 0 L 225.640625 0 L 225.640625 1.035156 L 229.585938 1.035156 Z M 229.585938 26.875 "/>
<path style=" stroke:none;fill-rule:nonzero;fill:rgb(0%,0%,0%);fill-opacity:1;" d="M 229.585938 35.871094 L 230.621094 35.871094 L 230.621094 26.867188 L 229.585938 26.867188 Z M 229.585938 35.871094 "/>
<path style=" stroke:none;fill-rule:nonzero;fill:rgb(0%,0%,0%);fill-opacity:1;" d="M 229.585938 44.835938 L 230.621094 44.835938 L 230.621094 35.832031 L 229.585938 35.832031 Z M 229.585938 44.835938 "/>
<path style=" stroke:none;fill-rule:nonzero;fill:rgb(0%,0%,0%);fill-opacity:1;" d="M 229.585938 70.671875 L 225.640625 70.671875 L 225.640625 71.707031 L 230.621094 71.707031 L 230.621094 44.8125 L 229.585938 44.8125 Z M 229.585938 70.671875 "/>
<path style=" stroke:none;fill-rule:nonzero;fill:rgb(0%,0%,0%);fill-opacity:1;" d="M 241.695312 35.859375 C 241.695312 35.429688 241.34375 35.058594 240.894531 35.058594 C 240.464844 35.058594 240.113281 35.429688 240.113281 35.859375 C 240.113281 36.289062 240.464844 36.640625 240.894531 36.640625 C 241.34375 36.640625 241.695312 36.289062 241.695312 35.859375 Z M 241.695312 35.859375 "/>
<path style=" stroke:none;fill-rule:nonzero;fill:rgb(0%,0%,0%);fill-opacity:1;" d="M 248.972656 36.132812 C 249.382812 36.132812 250.398438 36.09375 251.101562 35.820312 C 252.234375 35.390625 252.351562 34.53125 252.351562 34.257812 C 252.351562 33.59375 251.785156 33.007812 250.789062 33.007812 C 249.226562 33.007812 246.960938 34.414062 246.960938 37.070312 C 246.960938 38.652344 247.859375 39.746094 249.226562 39.746094 C 251.257812 39.746094 252.546875 38.164062 252.546875 37.96875 C 252.546875 37.871094 252.449219 37.792969 252.390625 37.792969 C 252.351562 37.792969 252.332031 37.8125 252.195312 37.949219 C 251.238281 39.21875 249.832031 39.433594 249.246094 39.433594 C 248.40625 39.433594 247.957031 38.769531 247.957031 37.65625 C 247.957031 37.460938 247.957031 37.070312 248.171875 36.132812 Z M 248.25 35.820312 C 248.894531 33.515625 250.320312 33.300781 250.789062 33.300781 C 251.453125 33.300781 251.902344 33.691406 251.902344 34.257812 C 251.902344 35.820312 249.5 35.820312 248.875 35.820312 Z M 248.25 35.820312 "/>
<path style=" stroke:none;fill-rule:nonzero;fill:rgb(0%,0%,0%);fill-opacity:1;" d="M 258.078125 29.453125 C 257.628906 29.550781 257.609375 29.941406 257.609375 29.980469 C 257.609375 30.195312 257.785156 30.351562 258 30.351562 C 258.214844 30.351562 258.546875 30.175781 258.546875 29.746094 C 258.546875 29.179688 257.921875 29.023438 257.550781 29.023438 C 257.101562 29.023438 256.710938 29.355469 256.476562 29.746094 C 256.261719 29.21875 255.753906 29.023438 255.34375 29.023438 C 254.25 29.023438 253.644531 30.273438 253.644531 30.546875 C 253.644531 30.644531 253.722656 30.683594 253.800781 30.683594 C 253.917969 30.683594 253.9375 30.625 253.957031 30.507812 C 254.191406 29.785156 254.796875 29.296875 255.304688 29.296875 C 255.695312 29.296875 255.890625 29.589844 255.890625 29.941406 C 255.890625 30.136719 255.773438 30.605469 255.695312 30.917969 C 255.617188 31.210938 255.402344 32.089844 255.34375 32.285156 C 255.207031 32.8125 254.855469 33.242188 254.40625 33.242188 C 254.367188 33.242188 254.113281 33.242188 253.898438 33.105469 C 254.347656 32.988281 254.347656 32.578125 254.347656 32.558594 C 254.347656 32.324219 254.171875 32.1875 253.957031 32.1875 C 253.683594 32.1875 253.390625 32.421875 253.390625 32.792969 C 253.390625 33.261719 253.878906 33.515625 254.386719 33.515625 C 254.914062 33.515625 255.285156 33.125 255.460938 32.792969 C 255.695312 33.28125 256.144531 33.515625 256.632812 33.515625 C 257.707031 33.515625 258.3125 32.265625 258.3125 31.992188 C 258.3125 31.894531 258.234375 31.855469 258.15625 31.855469 C 258.039062 31.855469 258.019531 31.933594 257.980469 32.03125 C 257.785156 32.695312 257.21875 33.242188 256.652344 33.242188 C 256.320312 33.242188 256.085938 33.027344 256.085938 32.597656 C 256.085938 32.402344 256.144531 32.167969 256.28125 31.621094 C 256.339844 31.308594 256.554688 30.449219 256.613281 30.253906 C 256.75 29.726562 257.101562 29.296875 257.550781 29.296875 C 257.609375 29.296875 257.863281 29.296875 258.078125 29.453125 Z M 258.078125 29.453125 "/>
</g>
</svg>
