<?xml version="1.0" encoding="UTF-8"?>
<svg xmlns="http://www.w3.org/2000/svg" xmlns:xlink="http://www.w3.org/1999/xlink" width="330.72815pt" height="74.041424pt" viewBox="0 0 330.72815 74.041424" version="1.1">
<g id="surface1">
<path style=" stroke:none;fill-rule:nonzero;fill:rgb(0%,0%,0%);fill-opacity:1;" d="M 94.492188 32.519531 C 94.960938 32.5 95.214844 32.167969 95.214844 31.796875 C 95.214844 31.308594 94.84375 31.054688 94.492188 31.054688 C 94.140625 31.054688 93.769531 31.289062 93.769531 31.816406 C 93.769531 32.578125 94.511719 33.203125 95.429688 33.203125 C 97.695312 33.203125 98.554688 29.707031 99.609375 25.371094 C 100.761719 20.644531 101.738281 15.878906 102.539062 11.09375 C 103.085938 7.910156 103.652344 4.921875 104.160156 2.988281 C 104.335938 2.265625 104.84375 0.332031 105.429688 0.332031 C 105.878906 0.332031 106.25 0.605469 106.308594 0.664062 C 105.820312 0.703125 105.566406 1.035156 105.566406 1.40625 C 105.566406 1.894531 105.9375 2.128906 106.289062 2.128906 C 106.640625 2.128906 107.011719 1.914062 107.011719 1.386719 C 107.011719 0.585938 106.210938 0 105.390625 0 C 104.257812 0 103.417969 1.621094 102.597656 4.667969 C 102.558594 4.84375 100.527344 12.34375 98.867188 22.109375 C 98.496094 24.394531 98.046875 26.894531 97.558594 28.964844 C 97.285156 30.058594 96.601562 32.871094 95.390625 32.871094 C 94.863281 32.871094 94.492188 32.519531 94.492188 32.519531 Z M 94.492188 32.519531 "/>
<path style=" stroke:none;fill-rule:nonzero;fill:rgb(0%,0%,0%);fill-opacity:1;" d="M 113.039062 16.882812 C 113.449219 16.882812 114.464844 16.84375 115.167969 16.570312 C 116.300781 16.140625 116.417969 15.28125 116.417969 15.007812 C 116.417969 14.34375 115.851562 13.757812 114.855469 13.757812 C 113.292969 13.757812 111.027344 15.164062 111.027344 17.820312 C 111.027344 19.402344 111.925781 20.496094 113.292969 20.496094 C 115.324219 20.496094 116.613281 18.914062 116.613281 18.71875 C 116.613281 18.621094 116.515625 18.542969 116.457031 18.542969 C 116.417969 18.542969 116.398438 18.5625 116.261719 18.699219 C 115.304688 19.96875 113.898438 20.183594 113.3125 20.183594 C 112.472656 20.183594 112.023438 19.519531 112.023438 18.40625 C 112.023438 18.210938 112.023438 17.820312 112.238281 16.882812 Z M 112.316406 16.570312 C 112.960938 14.265625 114.386719 14.050781 114.855469 14.050781 C 115.519531 14.050781 115.96875 14.441406 115.96875 15.007812 C 115.96875 16.570312 113.566406 16.570312 112.941406 16.570312 Z M 112.316406 16.570312 "/>
<path style=" stroke:none;fill-rule:nonzero;fill:rgb(0%,0%,0%);fill-opacity:1;" d="M 122.144531 10.207031 C 121.695312 10.304688 121.675781 10.695312 121.675781 10.734375 C 121.675781 10.949219 121.851562 11.105469 122.066406 11.105469 C 122.28125 11.105469 122.613281 10.929688 122.613281 10.5 C 122.613281 9.933594 121.988281 9.777344 121.617188 9.777344 C 121.167969 9.777344 120.777344 10.109375 120.542969 10.5 C 120.328125 9.972656 119.820312 9.777344 119.410156 9.777344 C 118.316406 9.777344 117.710938 11.027344 117.710938 11.300781 C 117.710938 11.398438 117.789062 11.4375 117.867188 11.4375 C 117.984375 11.4375 118.003906 11.378906 118.023438 11.261719 C 118.257812 10.539062 118.863281 10.050781 119.371094 10.050781 C 119.761719 10.050781 119.957031 10.34375 119.957031 10.695312 C 119.957031 10.890625 119.839844 11.359375 119.761719 11.671875 C 119.683594 11.964844 119.46875 12.84375 119.410156 13.039062 C 119.273438 13.566406 118.921875 13.996094 118.472656 13.996094 C 118.433594 13.996094 118.179688 13.996094 117.964844 13.859375 C 118.414062 13.742188 118.414062 13.332031 118.414062 13.3125 C 118.414062 13.078125 118.238281 12.941406 118.023438 12.941406 C 117.75 12.941406 117.457031 13.175781 117.457031 13.546875 C 117.457031 14.015625 117.945312 14.269531 118.453125 14.269531 C 118.980469 14.269531 119.351562 13.878906 119.527344 13.546875 C 119.761719 14.035156 120.210938 14.269531 120.699219 14.269531 C 121.773438 14.269531 122.378906 13.019531 122.378906 12.746094 C 122.378906 12.648438 122.300781 12.609375 122.222656 12.609375 C 122.105469 12.609375 122.085938 12.6875 122.046875 12.785156 C 121.851562 13.449219 121.285156 13.996094 120.71875 13.996094 C 120.386719 13.996094 120.152344 13.78125 120.152344 13.351562 C 120.152344 13.15625 120.210938 12.921875 120.347656 12.375 C 120.40625 12.0625 120.621094 11.203125 120.679688 11.007812 C 120.816406 10.480469 121.167969 10.050781 121.617188 10.050781 C 121.675781 10.050781 121.929688 10.050781 122.144531 10.207031 Z M 122.144531 10.207031 "/>
<path style=" stroke:none;fill-rule:nonzero;fill:rgb(0%,0%,0%);fill-opacity:1;" d="M 129.917969 16.609375 C 129.917969 16.179688 129.566406 15.808594 129.117188 15.808594 C 128.6875 15.808594 128.335938 16.179688 128.335938 16.609375 C 128.335938 17.039062 128.6875 17.390625 129.117188 17.390625 C 129.566406 17.390625 129.917969 17.039062 129.917969 16.609375 Z M 129.917969 16.609375 "/>
<path style=" stroke:none;fill-rule:nonzero;fill:rgb(0%,0%,0%);fill-opacity:1;" d="M 139.382812 23.972656 C 139.382812 23.933594 139.382812 23.894531 139.128906 23.640625 C 137.625 22.136719 136.785156 19.675781 136.785156 16.628906 C 136.785156 13.71875 137.488281 11.21875 139.226562 9.460938 C 139.382812 9.324219 139.382812 9.304688 139.382812 9.246094 C 139.382812 9.167969 139.304688 9.128906 139.246094 9.128906 C 139.050781 9.128906 137.820312 10.203125 137.097656 11.667969 C 136.335938 13.191406 135.984375 14.773438 135.984375 16.628906 C 135.984375 17.957031 136.199219 19.734375 136.960938 21.316406 C 137.859375 23.113281 139.070312 24.089844 139.246094 24.089844 C 139.304688 24.089844 139.382812 24.050781 139.382812 23.972656 Z M 139.382812 23.972656 "/>
<path style=" stroke:none;fill-rule:nonzero;fill:rgb(0%,0%,0%);fill-opacity:1;" d="M 142.75 18.679688 C 142.222656 19.558594 141.714844 19.871094 141.011719 19.910156 C 140.835938 19.929688 140.71875 19.929688 140.71875 20.183594 C 140.71875 20.28125 140.796875 20.339844 140.894531 20.339844 C 141.167969 20.339844 141.832031 20.300781 142.105469 20.300781 C 142.535156 20.300781 143.023438 20.339844 143.433594 20.339844 C 143.53125 20.339844 143.707031 20.339844 143.707031 20.046875 C 143.707031 19.929688 143.589844 19.910156 143.492188 19.910156 C 143.160156 19.871094 142.867188 19.753906 142.867188 19.402344 C 142.867188 19.1875 142.964844 19.03125 143.160156 18.699219 L 144.292969 16.804688 L 148.101562 16.804688 C 148.121094 16.941406 148.121094 17.058594 148.121094 17.195312 C 148.179688 17.585938 148.355469 19.148438 148.355469 19.421875 C 148.355469 19.871094 147.59375 19.910156 147.359375 19.910156 C 147.183594 19.910156 147.027344 19.910156 147.027344 20.183594 C 147.027344 20.339844 147.164062 20.339844 147.242188 20.339844 C 147.496094 20.339844 147.808594 20.300781 148.0625 20.300781 L 148.902344 20.300781 C 149.820312 20.300781 150.484375 20.339844 150.484375 20.339844 C 150.601562 20.339844 150.757812 20.339844 150.757812 20.046875 C 150.757812 19.910156 150.621094 19.910156 150.40625 19.910156 C 149.585938 19.910156 149.566406 19.773438 149.527344 19.324219 L 148.609375 10.007812 C 148.570312 9.695312 148.511719 9.675781 148.355469 9.675781 C 148.199219 9.675781 148.121094 9.695312 147.984375 9.929688 Z M 144.546875 16.375 L 147.554688 11.355469 L 148.0625 16.375 Z M 144.546875 16.375 "/>
<path style=" stroke:none;fill-rule:nonzero;fill:rgb(0%,0%,0%);fill-opacity:1;" d="M 160.457031 16.882812 L 164.578125 16.882812 C 164.792969 16.882812 165.066406 16.882812 165.066406 16.628906 C 165.066406 16.335938 164.8125 16.335938 164.578125 16.335938 L 160.457031 16.335938 L 160.457031 12.214844 C 160.457031 12 160.457031 11.726562 160.183594 11.726562 C 159.910156 11.726562 159.910156 11.980469 159.910156 12.214844 L 159.910156 16.335938 L 155.789062 16.335938 C 155.574219 16.335938 155.300781 16.335938 155.300781 16.609375 C 155.300781 16.882812 155.554688 16.882812 155.789062 16.882812 L 159.910156 16.882812 L 159.910156 21.003906 C 159.910156 21.21875 159.910156 21.492188 160.183594 21.492188 C 160.457031 21.492188 160.457031 21.238281 160.457031 21.003906 Z M 160.457031 16.882812 "/>
<path style=" stroke:none;fill-rule:nonzero;fill:rgb(0%,0%,0%);fill-opacity:1;" d="M 171.738281 18.679688 C 171.210938 19.558594 170.703125 19.871094 170 19.910156 C 169.824219 19.929688 169.707031 19.929688 169.707031 20.183594 C 169.707031 20.28125 169.785156 20.339844 169.882812 20.339844 C 170.15625 20.339844 170.820312 20.300781 171.09375 20.300781 C 171.523438 20.300781 172.011719 20.339844 172.421875 20.339844 C 172.519531 20.339844 172.695312 20.339844 172.695312 20.046875 C 172.695312 19.929688 172.578125 19.910156 172.480469 19.910156 C 172.148438 19.871094 171.855469 19.753906 171.855469 19.402344 C 171.855469 19.1875 171.953125 19.03125 172.148438 18.699219 L 173.28125 16.804688 L 177.089844 16.804688 C 177.109375 16.941406 177.109375 17.058594 177.109375 17.195312 C 177.167969 17.585938 177.34375 19.148438 177.34375 19.421875 C 177.34375 19.871094 176.582031 19.910156 176.347656 19.910156 C 176.171875 19.910156 176.015625 19.910156 176.015625 20.183594 C 176.015625 20.339844 176.152344 20.339844 176.230469 20.339844 C 176.484375 20.339844 176.796875 20.300781 177.050781 20.300781 L 177.890625 20.300781 C 178.808594 20.300781 179.472656 20.339844 179.472656 20.339844 C 179.589844 20.339844 179.746094 20.339844 179.746094 20.046875 C 179.746094 19.910156 179.609375 19.910156 179.394531 19.910156 C 178.574219 19.910156 178.554688 19.773438 178.515625 19.324219 L 177.597656 10.007812 C 177.558594 9.695312 177.5 9.675781 177.34375 9.675781 C 177.1875 9.675781 177.109375 9.695312 176.972656 9.929688 Z M 173.535156 16.375 L 176.542969 11.355469 L 177.050781 16.375 Z M 173.535156 16.375 "/>
<path style=" stroke:none;fill-rule:nonzero;fill:rgb(0%,0%,0%);fill-opacity:1;" d="M 182.808594 9.445312 C 182.867188 9.328125 182.90625 9.25 182.90625 9.152344 C 182.90625 8.820312 182.59375 8.605469 182.320312 8.605469 C 181.929688 8.605469 181.8125 8.957031 181.773438 9.09375 L 180.503906 13.390625 C 180.464844 13.507812 180.464844 13.527344 180.464844 13.546875 C 180.464844 13.625 180.523438 13.644531 180.621094 13.683594 C 180.816406 13.761719 180.835938 13.761719 180.855469 13.761719 C 180.875 13.761719 180.933594 13.761719 181.011719 13.585938 Z M 182.808594 9.445312 "/>
<path style=" stroke:none;fill-rule:nonzero;fill:rgb(0%,0%,0%);fill-opacity:1;" d="M 187.882812 16.628906 C 187.882812 15.476562 187.726562 13.640625 186.886719 11.902344 C 186.007812 10.105469 184.777344 9.128906 184.621094 9.128906 C 184.5625 9.128906 184.484375 9.167969 184.484375 9.246094 C 184.484375 9.304688 184.484375 9.324219 184.738281 9.578125 C 186.242188 11.082031 187.0625 13.5625 187.0625 16.609375 C 187.0625 19.5 186.359375 22 184.640625 23.757812 C 184.484375 23.894531 184.484375 23.933594 184.484375 23.972656 C 184.484375 24.050781 184.5625 24.089844 184.621094 24.089844 C 184.816406 24.089844 186.046875 23.015625 186.769531 21.550781 C 187.53125 20.027344 187.882812 18.40625 187.882812 16.628906 Z M 187.882812 16.628906 "/>
<path style=" stroke:none;fill-rule:nonzero;fill:rgb(0%,0%,0%);fill-opacity:1;" d="M 195.546875 16.609375 C 195.546875 16.179688 195.195312 15.808594 194.746094 15.808594 C 194.316406 15.808594 193.964844 16.179688 193.964844 16.609375 C 193.964844 17.039062 194.316406 17.390625 194.746094 17.390625 C 195.195312 17.390625 195.546875 17.039062 195.546875 16.609375 Z M 195.546875 16.609375 "/>
<path style=" stroke:none;fill-rule:nonzero;fill:rgb(0%,0%,0%);fill-opacity:1;" d="M 207.667969 10.339844 C 207.6875 10.28125 207.707031 10.203125 207.707031 10.125 C 207.707031 9.96875 207.550781 9.96875 207.53125 9.96875 C 207.511719 9.96875 206.789062 10.027344 206.710938 10.046875 C 206.457031 10.066406 206.222656 10.085938 205.96875 10.105469 C 205.578125 10.144531 205.480469 10.144531 205.480469 10.417969 C 205.480469 10.574219 205.597656 10.574219 205.8125 10.574219 C 206.535156 10.574219 206.554688 10.710938 206.554688 10.847656 C 206.554688 10.945312 206.535156 11.0625 206.515625 11.101562 L 205.597656 14.734375 C 205.441406 14.34375 205.03125 13.757812 204.25 13.757812 C 202.570312 13.757812 200.753906 15.925781 200.753906 18.152344 C 200.753906 19.617188 201.613281 20.496094 202.628906 20.496094 C 203.449219 20.496094 204.152344 19.851562 204.5625 19.363281 C 204.71875 20.242188 205.421875 20.496094 205.871094 20.496094 C 206.320312 20.496094 206.671875 20.222656 206.945312 19.675781 C 207.179688 19.167969 207.394531 18.269531 207.394531 18.210938 C 207.394531 18.132812 207.335938 18.074219 207.238281 18.074219 C 207.101562 18.074219 207.101562 18.152344 207.042969 18.367188 C 206.808594 19.246094 206.535156 20.183594 205.910156 20.183594 C 205.480469 20.183594 205.460938 19.792969 205.460938 19.5 C 205.460938 19.441406 205.460938 19.128906 205.558594 18.71875 Z M 204.640625 18.5625 C 204.5625 18.816406 204.5625 18.855469 204.367188 19.128906 C 204.035156 19.539062 203.371094 20.183594 202.667969 20.183594 C 202.0625 20.183594 201.710938 19.636719 201.710938 18.757812 C 201.710938 17.9375 202.179688 16.257812 202.472656 15.632812 C 202.980469 14.578125 203.683594 14.050781 204.25 14.050781 C 205.246094 14.050781 205.441406 15.28125 205.441406 15.398438 C 205.441406 15.417969 205.402344 15.59375 205.382812 15.632812 Z M 204.640625 18.5625 "/>
<path style=" stroke:none;fill-rule:nonzero;fill:rgb(0%,0%,0%);fill-opacity:1;" d="M 214.839844 14.246094 C 214.351562 14.324219 214.175781 14.695312 214.175781 14.96875 C 214.175781 15.339844 214.449219 15.457031 214.664062 15.457031 C 215.113281 15.457031 215.425781 15.066406 215.425781 14.65625 C 215.425781 14.03125 214.703125 13.757812 214.078125 13.757812 C 213.179688 13.757812 212.671875 14.65625 212.535156 14.929688 C 212.183594 13.816406 211.265625 13.757812 210.992188 13.757812 C 209.46875 13.757812 208.667969 15.710938 208.667969 16.042969 C 208.667969 16.101562 208.726562 16.179688 208.824219 16.179688 C 208.941406 16.179688 208.980469 16.082031 209 16.023438 C 209.507812 14.363281 210.523438 14.050781 210.953125 14.050781 C 211.617188 14.050781 211.753906 14.675781 211.753906 15.027344 C 211.753906 15.359375 211.65625 15.710938 211.480469 16.433594 L 210.972656 18.464844 C 210.757812 19.363281 210.328125 20.183594 209.527344 20.183594 C 209.449219 20.183594 209.078125 20.183594 208.765625 19.988281 C 209.3125 19.890625 209.429688 19.441406 209.429688 19.265625 C 209.429688 18.972656 209.195312 18.777344 208.921875 18.777344 C 208.550781 18.777344 208.160156 19.109375 208.160156 19.578125 C 208.160156 20.203125 208.863281 20.496094 209.507812 20.496094 C 210.230469 20.496094 210.738281 19.929688 211.050781 19.304688 C 211.285156 20.183594 212.046875 20.496094 212.59375 20.496094 C 214.117188 20.496094 214.917969 18.523438 214.917969 18.210938 C 214.917969 18.132812 214.859375 18.074219 214.78125 18.074219 C 214.644531 18.074219 214.625 18.152344 214.585938 18.269531 C 214.175781 19.578125 213.316406 20.183594 212.632812 20.183594 C 212.105469 20.183594 211.832031 19.792969 211.832031 19.1875 C 211.832031 18.855469 211.890625 18.621094 212.125 17.644531 L 212.652344 15.59375 C 212.867188 14.714844 213.375 14.050781 214.078125 14.050781 C 214.097656 14.050781 214.527344 14.050781 214.839844 14.246094 Z M 214.839844 14.246094 "/>
<path style=" stroke:none;fill-rule:nonzero;fill:rgb(0%,0%,0%);fill-opacity:1;" d="M 230.296875 15.496094 C 230.511719 15.496094 230.785156 15.496094 230.785156 15.222656 C 230.785156 14.949219 230.53125 14.949219 230.296875 14.949219 L 221.507812 14.949219 C 221.292969 14.949219 221.019531 14.949219 221.019531 15.222656 C 221.019531 15.496094 221.273438 15.496094 221.507812 15.496094 Z M 230.296875 18.269531 C 230.511719 18.269531 230.785156 18.269531 230.785156 18.015625 C 230.785156 17.722656 230.53125 17.722656 230.296875 17.722656 L 221.507812 17.722656 C 221.292969 17.722656 221.019531 17.722656 221.019531 17.996094 C 221.019531 18.269531 221.273438 18.269531 221.507812 18.269531 Z M 230.296875 18.269531 "/>
<path style=" stroke:none;fill-rule:nonzero;fill:rgb(0%,0%,0%);fill-opacity:1;" d="M 238.425781 16.882812 C 238.835938 16.882812 239.851562 16.84375 240.554688 16.570312 C 241.6875 16.140625 241.804688 15.28125 241.804688 15.007812 C 241.804688 14.34375 241.238281 13.757812 240.242188 13.757812 C 238.679688 13.757812 236.414062 15.164062 236.414062 17.820312 C 236.414062 19.402344 237.3125 20.496094 238.679688 20.496094 C 240.710938 20.496094 242 18.914062 242 18.71875 C 242 18.621094 241.902344 18.542969 241.84375 18.542969 C 241.804688 18.542969 241.785156 18.5625 241.648438 18.699219 C 240.691406 19.96875 239.285156 20.183594 238.699219 20.183594 C 237.859375 20.183594 237.410156 19.519531 237.410156 18.40625 C 237.410156 18.210938 237.410156 17.820312 237.625 16.882812 Z M 237.703125 16.570312 C 238.347656 14.265625 239.773438 14.050781 240.242188 14.050781 C 240.90625 14.050781 241.355469 14.441406 241.355469 15.007812 C 241.355469 16.570312 238.953125 16.570312 238.328125 16.570312 Z M 237.703125 16.570312 "/>
<path style=" stroke:none;fill-rule:nonzero;fill:rgb(0%,0%,0%);fill-opacity:1;" d="M 247.53125 10.207031 C 247.082031 10.304688 247.0625 10.695312 247.0625 10.734375 C 247.0625 10.949219 247.238281 11.105469 247.453125 11.105469 C 247.667969 11.105469 248 10.929688 248 10.5 C 248 9.933594 247.375 9.777344 247.003906 9.777344 C 246.554688 9.777344 246.164062 10.109375 245.929688 10.5 C 245.714844 9.972656 245.207031 9.777344 244.796875 9.777344 C 243.703125 9.777344 243.097656 11.027344 243.097656 11.300781 C 243.097656 11.398438 243.175781 11.4375 243.253906 11.4375 C 243.371094 11.4375 243.390625 11.378906 243.410156 11.261719 C 243.644531 10.539062 244.25 10.050781 244.757812 10.050781 C 245.148438 10.050781 245.34375 10.34375 245.34375 10.695312 C 245.34375 10.890625 245.226562 11.359375 245.148438 11.671875 C 245.070312 11.964844 244.855469 12.84375 244.796875 13.039062 C 244.660156 13.566406 244.308594 13.996094 243.859375 13.996094 C 243.820312 13.996094 243.566406 13.996094 243.351562 13.859375 C 243.800781 13.742188 243.800781 13.332031 243.800781 13.3125 C 243.800781 13.078125 243.625 12.941406 243.410156 12.941406 C 243.136719 12.941406 242.84375 13.175781 242.84375 13.546875 C 242.84375 14.015625 243.332031 14.269531 243.839844 14.269531 C 244.367188 14.269531 244.738281 13.878906 244.914062 13.546875 C 245.148438 14.035156 245.597656 14.269531 246.085938 14.269531 C 247.160156 14.269531 247.765625 13.019531 247.765625 12.746094 C 247.765625 12.648438 247.6875 12.609375 247.609375 12.609375 C 247.492188 12.609375 247.472656 12.6875 247.433594 12.785156 C 247.238281 13.449219 246.671875 13.996094 246.105469 13.996094 C 245.773438 13.996094 245.539062 13.78125 245.539062 13.351562 C 245.539062 13.15625 245.597656 12.921875 245.734375 12.375 C 245.792969 12.0625 246.007812 11.203125 246.066406 11.007812 C 246.203125 10.480469 246.554688 10.050781 247.003906 10.050781 C 247.0625 10.050781 247.316406 10.050781 247.53125 10.207031 Z M 247.53125 10.207031 "/>
<path style=" stroke:none;fill-rule:nonzero;fill:rgb(0%,0%,0%);fill-opacity:1;" d="M 255.304688 16.609375 C 255.304688 16.179688 254.953125 15.808594 254.503906 15.808594 C 254.074219 15.808594 253.722656 16.179688 253.722656 16.609375 C 253.722656 17.039062 254.074219 17.390625 254.503906 17.390625 C 254.953125 17.390625 255.304688 17.039062 255.304688 16.609375 Z M 255.304688 16.609375 "/>
<path style=" stroke:none;fill-rule:nonzero;fill:rgb(0%,0%,0%);fill-opacity:1;" d="M 262.445312 18.679688 C 261.917969 19.558594 261.410156 19.871094 260.707031 19.910156 C 260.53125 19.929688 260.414062 19.929688 260.414062 20.183594 C 260.414062 20.28125 260.492188 20.339844 260.589844 20.339844 C 260.863281 20.339844 261.527344 20.300781 261.800781 20.300781 C 262.230469 20.300781 262.71875 20.339844 263.128906 20.339844 C 263.226562 20.339844 263.402344 20.339844 263.402344 20.046875 C 263.402344 19.929688 263.285156 19.910156 263.1875 19.910156 C 262.855469 19.871094 262.5625 19.753906 262.5625 19.402344 C 262.5625 19.1875 262.660156 19.03125 262.855469 18.699219 L 263.988281 16.804688 L 267.796875 16.804688 C 267.816406 16.941406 267.816406 17.058594 267.816406 17.195312 C 267.875 17.585938 268.050781 19.148438 268.050781 19.421875 C 268.050781 19.871094 267.289062 19.910156 267.054688 19.910156 C 266.878906 19.910156 266.722656 19.910156 266.722656 20.183594 C 266.722656 20.339844 266.859375 20.339844 266.9375 20.339844 C 267.191406 20.339844 267.503906 20.300781 267.757812 20.300781 L 268.597656 20.300781 C 269.515625 20.300781 270.179688 20.339844 270.179688 20.339844 C 270.296875 20.339844 270.453125 20.339844 270.453125 20.046875 C 270.453125 19.910156 270.316406 19.910156 270.101562 19.910156 C 269.28125 19.910156 269.261719 19.773438 269.222656 19.324219 L 268.304688 10.007812 C 268.265625 9.695312 268.207031 9.675781 268.050781 9.675781 C 267.894531 9.675781 267.816406 9.695312 267.679688 9.929688 Z M 264.242188 16.375 L 267.25 11.355469 L 267.757812 16.375 Z M 264.242188 16.375 "/>
<path style=" stroke:none;fill-rule:nonzero;fill:rgb(0%,0%,0%);fill-opacity:1;" d="M 273.511719 9.445312 C 273.570312 9.328125 273.609375 9.25 273.609375 9.152344 C 273.609375 8.820312 273.296875 8.605469 273.023438 8.605469 C 272.632812 8.605469 272.515625 8.957031 272.476562 9.09375 L 271.207031 13.390625 C 271.167969 13.507812 271.167969 13.527344 271.167969 13.546875 C 271.167969 13.625 271.226562 13.644531 271.324219 13.683594 C 271.519531 13.761719 271.539062 13.761719 271.558594 13.761719 C 271.578125 13.761719 271.636719 13.761719 271.714844 13.585938 Z M 273.511719 9.445312 "/>
<path style=" stroke:none;fill-rule:nonzero;fill:rgb(0%,0%,0%);fill-opacity:1;" d="M 283.644531 16.882812 L 287.765625 16.882812 C 287.980469 16.882812 288.253906 16.882812 288.253906 16.628906 C 288.253906 16.335938 288 16.335938 287.765625 16.335938 L 283.644531 16.335938 L 283.644531 12.214844 C 283.644531 12 283.644531 11.726562 283.371094 11.726562 C 283.097656 11.726562 283.097656 11.980469 283.097656 12.214844 L 283.097656 16.335938 L 278.976562 16.335938 C 278.761719 16.335938 278.488281 16.335938 278.488281 16.609375 C 278.488281 16.882812 278.742188 16.882812 278.976562 16.882812 L 283.097656 16.882812 L 283.097656 21.003906 C 283.097656 21.21875 283.097656 21.492188 283.371094 21.492188 C 283.644531 21.492188 283.644531 21.238281 283.644531 21.003906 Z M 283.644531 16.882812 "/>
<path style=" stroke:none;fill-rule:nonzero;fill:rgb(0%,0%,0%);fill-opacity:1;" d="M 303.542969 9.949219 C 303.542969 9.8125 303.445312 9.8125 303.425781 9.8125 C 303.386719 9.8125 303.328125 9.8125 303.210938 9.96875 L 302.175781 11.21875 C 301.648438 10.320312 300.828125 9.8125 299.714844 9.8125 C 296.492188 9.8125 293.132812 13.09375 293.132812 16.609375 C 293.132812 19.109375 294.890625 20.652344 297.058594 20.652344 C 298.269531 20.652344 299.304688 20.144531 300.183594 19.421875 C 301.472656 18.328125 301.863281 16.882812 301.863281 16.746094 C 301.863281 16.628906 301.746094 16.628906 301.707031 16.628906 C 301.570312 16.628906 301.550781 16.707031 301.511719 16.765625 C 300.828125 19.109375 298.816406 20.222656 297.3125 20.222656 C 295.730469 20.222656 294.363281 19.207031 294.363281 17.078125 C 294.363281 16.609375 294.519531 14.011719 296.199219 12.039062 C 297.019531 11.082031 298.425781 10.261719 299.851562 10.261719 C 301.492188 10.261719 302.214844 11.609375 302.214844 13.132812 C 302.214844 13.523438 302.175781 13.855469 302.175781 13.914062 C 302.175781 14.050781 302.332031 14.050781 302.371094 14.050781 C 302.527344 14.050781 302.546875 14.03125 302.605469 13.757812 Z M 303.542969 9.949219 "/>
<path style=" stroke:none;fill-rule:nonzero;fill:rgb(0%,0%,0%);fill-opacity:1;" d="M 5.3125 53.726562 C 5.3125 53.277344 4.960938 52.925781 4.53125 52.925781 C 4.101562 52.925781 3.730469 53.277344 3.730469 53.726562 C 3.730469 54.15625 4.101562 54.507812 4.53125 54.507812 C 4.941406 54.507812 5.3125 54.175781 5.3125 53.726562 Z M 9.0625 60.191406 C 9.0625 59.761719 8.691406 59.390625 8.261719 59.390625 C 7.832031 59.390625 7.460938 59.761719 7.460938 60.191406 C 7.460938 60.621094 7.832031 60.972656 8.261719 60.972656 C 8.691406 60.972656 9.0625 60.621094 9.0625 60.191406 Z M 1.582031 60.191406 C 1.582031 59.761719 1.230469 59.390625 0.78125 59.390625 C 0.351562 59.390625 0 59.761719 0 60.191406 C 0 60.621094 0.351562 60.972656 0.78125 60.972656 C 1.230469 60.972656 1.582031 60.621094 1.582031 60.191406 Z M 1.582031 60.191406 "/>
<path style=" stroke:none;fill-rule:nonzero;fill:rgb(0%,0%,0%);fill-opacity:1;" d="M 15.226562 72.039062 C 15.695312 72.019531 15.949219 71.6875 15.949219 71.316406 C 15.949219 70.828125 15.578125 70.574219 15.226562 70.574219 C 14.875 70.574219 14.503906 70.808594 14.503906 71.335938 C 14.503906 72.097656 15.246094 72.722656 16.164062 72.722656 C 18.429688 72.722656 19.289062 69.226562 20.34375 64.890625 C 21.496094 60.164062 22.472656 55.398438 23.273438 50.613281 C 23.820312 47.429688 24.386719 44.441406 24.894531 42.507812 C 25.070312 41.785156 25.578125 39.851562 26.164062 39.851562 C 26.613281 39.851562 26.984375 40.125 27.042969 40.183594 C 26.554688 40.222656 26.300781 40.554688 26.300781 40.925781 C 26.300781 41.414062 26.671875 41.648438 27.023438 41.648438 C 27.375 41.648438 27.746094 41.433594 27.746094 40.90625 C 27.746094 40.105469 26.945312 39.519531 26.125 39.519531 C 24.992188 39.519531 24.152344 41.140625 23.332031 44.1875 C 23.292969 44.363281 21.261719 51.863281 19.601562 61.628906 C 19.230469 63.914062 18.78125 66.414062 18.292969 68.484375 C 18.019531 69.578125 17.335938 72.390625 16.125 72.390625 C 15.597656 72.390625 15.226562 72.039062 15.226562 72.039062 Z M 15.226562 72.039062 "/>
<path style=" stroke:none;fill-rule:nonzero;fill:rgb(0%,0%,0%);fill-opacity:1;" d="M 33.773438 56.402344 C 34.183594 56.402344 35.199219 56.363281 35.902344 56.089844 C 37.035156 55.660156 37.152344 54.800781 37.152344 54.527344 C 37.152344 53.863281 36.585938 53.277344 35.589844 53.277344 C 34.027344 53.277344 31.761719 54.683594 31.761719 57.339844 C 31.761719 58.921875 32.660156 60.015625 34.027344 60.015625 C 36.058594 60.015625 37.347656 58.433594 37.347656 58.238281 C 37.347656 58.140625 37.25 58.0625 37.191406 58.0625 C 37.152344 58.0625 37.132812 58.082031 36.996094 58.21875 C 36.039062 59.488281 34.632812 59.703125 34.046875 59.703125 C 33.207031 59.703125 32.757812 59.039062 32.757812 57.925781 C 32.757812 57.730469 32.757812 57.339844 32.972656 56.402344 Z M 33.050781 56.089844 C 33.695312 53.785156 35.121094 53.570312 35.589844 53.570312 C 36.253906 53.570312 36.703125 53.960938 36.703125 54.527344 C 36.703125 56.089844 34.300781 56.089844 33.675781 56.089844 Z M 33.050781 56.089844 "/>
<path style=" stroke:none;fill-rule:nonzero;fill:rgb(0%,0%,0%);fill-opacity:1;" d="M 42.882812 49.722656 C 42.433594 49.820312 42.414062 50.210938 42.414062 50.25 C 42.414062 50.464844 42.589844 50.621094 42.804688 50.621094 C 43.019531 50.621094 43.351562 50.445312 43.351562 50.015625 C 43.351562 49.449219 42.726562 49.292969 42.355469 49.292969 C 41.90625 49.292969 41.515625 49.625 41.28125 50.015625 C 41.066406 49.488281 40.558594 49.292969 40.148438 49.292969 C 39.054688 49.292969 38.449219 50.542969 38.449219 50.816406 C 38.449219 50.914062 38.527344 50.953125 38.605469 50.953125 C 38.722656 50.953125 38.742188 50.894531 38.761719 50.777344 C 38.996094 50.054688 39.601562 49.566406 40.109375 49.566406 C 40.5 49.566406 40.695312 49.859375 40.695312 50.210938 C 40.695312 50.40625 40.578125 50.875 40.5 51.1875 C 40.421875 51.480469 40.207031 52.359375 40.148438 52.554688 C 40.011719 53.082031 39.660156 53.511719 39.210938 53.511719 C 39.171875 53.511719 38.917969 53.511719 38.703125 53.375 C 39.152344 53.257812 39.152344 52.847656 39.152344 52.828125 C 39.152344 52.59375 38.976562 52.457031 38.761719 52.457031 C 38.488281 52.457031 38.195312 52.691406 38.195312 53.0625 C 38.195312 53.53125 38.683594 53.785156 39.191406 53.785156 C 39.71875 53.785156 40.089844 53.394531 40.265625 53.0625 C 40.5 53.550781 40.949219 53.785156 41.4375 53.785156 C 42.511719 53.785156 43.117188 52.535156 43.117188 52.261719 C 43.117188 52.164062 43.039062 52.125 42.960938 52.125 C 42.84375 52.125 42.824219 52.203125 42.785156 52.300781 C 42.589844 52.964844 42.023438 53.511719 41.457031 53.511719 C 41.125 53.511719 40.890625 53.296875 40.890625 52.867188 C 40.890625 52.671875 40.949219 52.4375 41.085938 51.890625 C 41.144531 51.578125 41.359375 50.71875 41.417969 50.523438 C 41.554688 49.996094 41.90625 49.566406 42.355469 49.566406 C 42.414062 49.566406 42.667969 49.566406 42.882812 49.722656 Z M 42.882812 49.722656 "/>
<path style=" stroke:none;fill-rule:nonzero;fill:rgb(0%,0%,0%);fill-opacity:1;" d="M 50.683594 74.042969 L 54.609375 74.042969 L 54.609375 73.222656 L 51.503906 73.222656 L 51.503906 39.003906 L 54.609375 39.003906 L 54.609375 38.183594 L 50.683594 38.183594 Z M 50.683594 74.042969 "/>
<path style=" stroke:none;fill-rule:nonzero;fill:rgb(0%,0%,0%);fill-opacity:1;" d="M 82.570312 40.179688 C 82.570312 39.828125 82.570312 39.808594 82.277344 39.808594 C 81.925781 40.21875 81.164062 40.765625 79.640625 40.765625 L 79.640625 41.195312 C 79.972656 41.195312 80.714844 41.195312 81.554688 40.824219 L 81.554688 48.597656 C 81.554688 49.144531 81.496094 49.320312 80.1875 49.320312 L 79.71875 49.320312 L 79.71875 49.75 C 80.128906 49.710938 81.574219 49.710938 82.0625 49.710938 C 82.570312 49.710938 83.996094 49.710938 84.40625 49.75 L 84.40625 49.320312 L 83.9375 49.320312 C 82.628906 49.320312 82.570312 49.144531 82.570312 48.597656 Z M 82.570312 40.179688 "/>
<path style="fill:none;stroke-width:1;stroke-linecap:butt;stroke-linejoin:miter;stroke:rgb(0%,0%,0%);stroke-opacity:1;stroke-miterlimit:10;" d="M 0.072993 0.108383 L 41.072993 0.108383 " transform="matrix(1.25,0,0,-1.25,56.33454,56.12376)"/>
<path style=" stroke:none;fill-rule:nonzero;fill:rgb(0%,0%,0%);fill-opacity:1;" d="M 61.199219 73.742188 C 61.199219 73.703125 61.199219 73.664062 60.945312 73.410156 C 59.441406 71.90625 58.601562 69.445312 58.601562 66.398438 C 58.601562 63.488281 59.304688 60.988281 61.042969 59.230469 C 61.199219 59.09375 61.199219 59.074219 61.199219 59.015625 C 61.199219 58.9375 61.121094 58.898438 61.0625 58.898438 C 60.867188 58.898438 59.636719 59.972656 58.914062 61.4375 C 58.152344 62.960938 57.800781 64.542969 57.800781 66.398438 C 57.800781 67.726562 58.015625 69.503906 58.777344 71.085938 C 59.675781 72.882812 60.886719 73.859375 61.0625 73.859375 C 61.121094 73.859375 61.199219 73.820312 61.199219 73.742188 Z M 61.199219 73.742188 "/>
<path style=" stroke:none;fill-rule:nonzero;fill:rgb(0%,0%,0%);fill-opacity:1;" d="M 69.117188 64.015625 C 68.628906 64.09375 68.453125 64.464844 68.453125 64.738281 C 68.453125 65.109375 68.726562 65.226562 68.941406 65.226562 C 69.390625 65.226562 69.703125 64.835938 69.703125 64.425781 C 69.703125 63.800781 68.980469 63.527344 68.355469 63.527344 C 67.457031 63.527344 66.949219 64.425781 66.8125 64.699219 C 66.460938 63.585938 65.542969 63.527344 65.269531 63.527344 C 63.746094 63.527344 62.945312 65.480469 62.945312 65.8125 C 62.945312 65.871094 63.003906 65.949219 63.101562 65.949219 C 63.21875 65.949219 63.257812 65.851562 63.277344 65.792969 C 63.785156 64.132812 64.800781 63.820312 65.230469 63.820312 C 65.894531 63.820312 66.03125 64.445312 66.03125 64.796875 C 66.03125 65.128906 65.933594 65.480469 65.757812 66.203125 L 65.25 68.234375 C 65.035156 69.132812 64.605469 69.953125 63.804688 69.953125 C 63.726562 69.953125 63.355469 69.953125 63.042969 69.757812 C 63.589844 69.660156 63.707031 69.210938 63.707031 69.035156 C 63.707031 68.742188 63.472656 68.546875 63.199219 68.546875 C 62.828125 68.546875 62.4375 68.878906 62.4375 69.347656 C 62.4375 69.972656 63.140625 70.265625 63.785156 70.265625 C 64.507812 70.265625 65.015625 69.699219 65.328125 69.074219 C 65.5625 69.953125 66.324219 70.265625 66.871094 70.265625 C 68.394531 70.265625 69.195312 68.292969 69.195312 67.980469 C 69.195312 67.902344 69.136719 67.84375 69.058594 67.84375 C 68.921875 67.84375 68.902344 67.921875 68.863281 68.039062 C 68.453125 69.347656 67.59375 69.953125 66.910156 69.953125 C 66.382812 69.953125 66.109375 69.5625 66.109375 68.957031 C 66.109375 68.625 66.167969 68.390625 66.402344 67.414062 L 66.929688 65.363281 C 67.144531 64.484375 67.652344 63.820312 68.355469 63.820312 C 68.375 63.820312 68.804688 63.820312 69.117188 64.015625 Z M 69.117188 64.015625 "/>
<path style=" stroke:none;fill-rule:nonzero;fill:rgb(0%,0%,0%);fill-opacity:1;" d="M 83.503906 66.671875 C 83.757812 66.671875 84.03125 66.671875 84.03125 66.378906 C 84.03125 66.066406 83.757812 66.066406 83.503906 66.066406 L 75.417969 66.066406 C 75.164062 66.066406 74.890625 66.066406 74.890625 66.378906 C 74.890625 66.671875 75.164062 66.671875 75.417969 66.671875 Z M 83.503906 66.671875 "/>
<path style=" stroke:none;fill-rule:nonzero;fill:rgb(0%,0%,0%);fill-opacity:1;" d="M 95.1875 67.589844 L 94.855469 67.589844 C 94.796875 67.84375 94.679688 68.683594 94.542969 68.917969 C 94.425781 69.054688 93.585938 69.054688 93.136719 69.054688 L 90.363281 69.054688 C 90.773438 68.703125 91.691406 67.746094 92.0625 67.394531 C 94.347656 65.304688 95.1875 64.523438 95.1875 63.039062 C 95.1875 61.320312 93.820312 60.167969 92.082031 60.167969 C 90.363281 60.167969 89.328125 61.652344 89.328125 62.941406 C 89.328125 63.703125 89.992188 63.703125 90.03125 63.703125 C 90.363281 63.703125 90.734375 63.46875 90.734375 63 C 90.734375 62.570312 90.460938 62.296875 90.03125 62.296875 C 89.914062 62.296875 89.875 62.296875 89.835938 62.316406 C 90.109375 61.300781 90.929688 60.597656 91.886719 60.597656 C 93.15625 60.597656 93.9375 61.671875 93.9375 63.039062 C 93.9375 64.308594 93.214844 65.421875 92.355469 66.378906 L 89.328125 69.757812 L 89.328125 70.109375 L 94.796875 70.109375 Z M 95.1875 67.589844 "/>
<path style=" stroke:none;fill-rule:nonzero;fill:rgb(0%,0%,0%);fill-opacity:1;" d="M 100.140625 66.398438 C 100.140625 65.246094 99.984375 63.410156 99.144531 61.671875 C 98.265625 59.875 97.035156 58.898438 96.878906 58.898438 C 96.820312 58.898438 96.742188 58.9375 96.742188 59.015625 C 96.742188 59.074219 96.742188 59.09375 96.996094 59.347656 C 98.5 60.851562 99.320312 63.332031 99.320312 66.378906 C 99.320312 69.269531 98.617188 71.769531 96.898438 73.527344 C 96.742188 73.664062 96.742188 73.703125 96.742188 73.742188 C 96.742188 73.820312 96.820312 73.859375 96.878906 73.859375 C 97.074219 73.859375 98.304688 72.785156 99.027344 71.320312 C 99.789062 69.796875 100.140625 68.175781 100.140625 66.398438 Z M 100.140625 66.398438 "/>
<path style=" stroke:none;fill-rule:nonzero;fill:rgb(0%,0%,0%);fill-opacity:1;" d="M 104.425781 63.761719 C 104.582031 63.605469 104.992188 63.273438 105.167969 63.136719 C 105.773438 62.570312 106.359375 62.023438 106.359375 61.125 C 106.359375 59.933594 105.363281 59.171875 104.132812 59.171875 C 102.921875 59.171875 102.140625 60.070312 102.140625 60.96875 C 102.140625 61.457031 102.53125 61.515625 102.667969 61.515625 C 102.882812 61.515625 103.195312 61.378906 103.195312 60.988281 C 103.195312 60.480469 102.6875 60.480469 102.570312 60.480469 C 102.863281 59.738281 103.527344 59.503906 104.015625 59.503906 C 104.933594 59.503906 105.421875 60.285156 105.421875 61.125 C 105.421875 62.160156 104.699219 62.921875 103.507812 64.113281 L 102.257812 65.421875 C 102.140625 65.519531 102.140625 65.539062 102.140625 65.792969 L 106.066406 65.792969 L 106.359375 64.015625 L 106.046875 64.015625 C 106.027344 64.210938 105.949219 64.699219 105.832031 64.894531 C 105.773438 64.972656 105.011719 64.972656 104.855469 64.972656 L 103.078125 64.972656 Z M 104.425781 63.761719 "/>
<path style=" stroke:none;fill-rule:nonzero;fill:rgb(0%,0%,0%);fill-opacity:1;" d="M 122.1875 56.421875 C 122.441406 56.421875 122.714844 56.421875 122.714844 56.128906 C 122.714844 55.816406 122.441406 55.816406 122.1875 55.816406 L 114.101562 55.816406 C 113.847656 55.816406 113.574219 55.816406 113.574219 56.128906 C 113.574219 56.421875 113.847656 56.421875 114.101562 56.421875 Z M 122.1875 56.421875 "/>
<path style=" stroke:none;fill-rule:nonzero;fill:rgb(0%,0%,0%);fill-opacity:1;" d="M 157.300781 47.230469 L 156.96875 47.230469 C 156.910156 47.484375 156.792969 48.324219 156.65625 48.558594 C 156.539062 48.695312 155.699219 48.695312 155.25 48.695312 L 152.476562 48.695312 C 152.886719 48.34375 153.804688 47.386719 154.175781 47.035156 C 156.460938 44.945312 157.300781 44.164062 157.300781 42.679688 C 157.300781 40.960938 155.933594 39.808594 154.195312 39.808594 C 152.476562 39.808594 151.441406 41.292969 151.441406 42.582031 C 151.441406 43.34375 152.105469 43.34375 152.144531 43.34375 C 152.476562 43.34375 152.847656 43.109375 152.847656 42.640625 C 152.847656 42.210938 152.574219 41.9375 152.144531 41.9375 C 152.027344 41.9375 151.988281 41.9375 151.949219 41.957031 C 152.222656 40.941406 153.042969 40.238281 154 40.238281 C 155.269531 40.238281 156.050781 41.3125 156.050781 42.679688 C 156.050781 43.949219 155.328125 45.0625 154.46875 46.019531 L 151.441406 49.398438 L 151.441406 49.75 L 156.910156 49.75 Z M 157.300781 47.230469 "/>
<path style="fill:none;stroke-width:1;stroke-linecap:butt;stroke-linejoin:miter;stroke:rgb(0%,0%,0%);stroke-opacity:1;stroke-miterlimit:10;" d="M 0.115993 0.108383 L 41.115993 0.108383 " transform="matrix(1.25,0,0,-1.25,128.78079,56.12376)"/>
<path style=" stroke:none;fill-rule:nonzero;fill:rgb(0%,0%,0%);fill-opacity:1;" d="M 133.644531 73.742188 C 133.644531 73.703125 133.644531 73.664062 133.390625 73.410156 C 131.886719 71.90625 131.046875 69.445312 131.046875 66.398438 C 131.046875 63.488281 131.75 60.988281 133.488281 59.230469 C 133.644531 59.09375 133.644531 59.074219 133.644531 59.015625 C 133.644531 58.9375 133.566406 58.898438 133.507812 58.898438 C 133.3125 58.898438 132.082031 59.972656 131.359375 61.4375 C 130.597656 62.960938 130.246094 64.542969 130.246094 66.398438 C 130.246094 67.726562 130.460938 69.503906 131.222656 71.085938 C 132.121094 72.882812 133.332031 73.859375 133.507812 73.859375 C 133.566406 73.859375 133.644531 73.820312 133.644531 73.742188 Z M 133.644531 73.742188 "/>
<path style=" stroke:none;fill-rule:nonzero;fill:rgb(0%,0%,0%);fill-opacity:1;" d="M 141.5625 64.015625 C 141.074219 64.09375 140.898438 64.464844 140.898438 64.738281 C 140.898438 65.109375 141.171875 65.226562 141.386719 65.226562 C 141.835938 65.226562 142.148438 64.835938 142.148438 64.425781 C 142.148438 63.800781 141.425781 63.527344 140.800781 63.527344 C 139.902344 63.527344 139.394531 64.425781 139.257812 64.699219 C 138.90625 63.585938 137.988281 63.527344 137.714844 63.527344 C 136.191406 63.527344 135.390625 65.480469 135.390625 65.8125 C 135.390625 65.871094 135.449219 65.949219 135.546875 65.949219 C 135.664062 65.949219 135.703125 65.851562 135.722656 65.792969 C 136.230469 64.132812 137.246094 63.820312 137.675781 63.820312 C 138.339844 63.820312 138.476562 64.445312 138.476562 64.796875 C 138.476562 65.128906 138.378906 65.480469 138.203125 66.203125 L 137.695312 68.234375 C 137.480469 69.132812 137.050781 69.953125 136.25 69.953125 C 136.171875 69.953125 135.800781 69.953125 135.488281 69.757812 C 136.035156 69.660156 136.152344 69.210938 136.152344 69.035156 C 136.152344 68.742188 135.917969 68.546875 135.644531 68.546875 C 135.273438 68.546875 134.882812 68.878906 134.882812 69.347656 C 134.882812 69.972656 135.585938 70.265625 136.230469 70.265625 C 136.953125 70.265625 137.460938 69.699219 137.773438 69.074219 C 138.007812 69.953125 138.769531 70.265625 139.316406 70.265625 C 140.839844 70.265625 141.640625 68.292969 141.640625 67.980469 C 141.640625 67.902344 141.582031 67.84375 141.503906 67.84375 C 141.367188 67.84375 141.347656 67.921875 141.308594 68.039062 C 140.898438 69.347656 140.039062 69.953125 139.355469 69.953125 C 138.828125 69.953125 138.554688 69.5625 138.554688 68.957031 C 138.554688 68.625 138.613281 68.390625 138.847656 67.414062 L 139.375 65.363281 C 139.589844 64.484375 140.097656 63.820312 140.800781 63.820312 C 140.820312 63.820312 141.25 63.820312 141.5625 64.015625 Z M 141.5625 64.015625 "/>
<path style=" stroke:none;fill-rule:nonzero;fill:rgb(0%,0%,0%);fill-opacity:1;" d="M 155.949219 66.671875 C 156.203125 66.671875 156.476562 66.671875 156.476562 66.378906 C 156.476562 66.066406 156.203125 66.066406 155.949219 66.066406 L 147.863281 66.066406 C 147.609375 66.066406 147.335938 66.066406 147.335938 66.378906 C 147.335938 66.671875 147.609375 66.671875 147.863281 66.671875 Z M 155.949219 66.671875 "/>
<path style=" stroke:none;fill-rule:nonzero;fill:rgb(0%,0%,0%);fill-opacity:1;" d="M 167.632812 67.589844 L 167.300781 67.589844 C 167.242188 67.84375 167.125 68.683594 166.988281 68.917969 C 166.871094 69.054688 166.03125 69.054688 165.582031 69.054688 L 162.808594 69.054688 C 163.21875 68.703125 164.136719 67.746094 164.507812 67.394531 C 166.792969 65.304688 167.632812 64.523438 167.632812 63.039062 C 167.632812 61.320312 166.265625 60.167969 164.527344 60.167969 C 162.808594 60.167969 161.773438 61.652344 161.773438 62.941406 C 161.773438 63.703125 162.4375 63.703125 162.476562 63.703125 C 162.808594 63.703125 163.179688 63.46875 163.179688 63 C 163.179688 62.570312 162.90625 62.296875 162.476562 62.296875 C 162.359375 62.296875 162.320312 62.296875 162.28125 62.316406 C 162.554688 61.300781 163.375 60.597656 164.332031 60.597656 C 165.601562 60.597656 166.382812 61.671875 166.382812 63.039062 C 166.382812 64.308594 165.660156 65.421875 164.800781 66.378906 L 161.773438 69.757812 L 161.773438 70.109375 L 167.242188 70.109375 Z M 167.632812 67.589844 "/>
<path style=" stroke:none;fill-rule:nonzero;fill:rgb(0%,0%,0%);fill-opacity:1;" d="M 172.585938 66.398438 C 172.585938 65.246094 172.429688 63.410156 171.589844 61.671875 C 170.710938 59.875 169.480469 58.898438 169.324219 58.898438 C 169.265625 58.898438 169.1875 58.9375 169.1875 59.015625 C 169.1875 59.074219 169.1875 59.09375 169.441406 59.347656 C 170.945312 60.851562 171.765625 63.332031 171.765625 66.378906 C 171.765625 69.269531 171.0625 71.769531 169.34375 73.527344 C 169.1875 73.664062 169.1875 73.703125 169.1875 73.742188 C 169.1875 73.820312 169.265625 73.859375 169.324219 73.859375 C 169.519531 73.859375 170.75 72.785156 171.472656 71.320312 C 172.234375 69.796875 172.585938 68.175781 172.585938 66.398438 Z M 172.585938 66.398438 "/>
<path style=" stroke:none;fill-rule:nonzero;fill:rgb(0%,0%,0%);fill-opacity:1;" d="M 176.578125 62.472656 C 177.359375 62.472656 177.867188 63.039062 177.867188 64.09375 C 177.867188 65.34375 177.164062 65.695312 176.636719 65.695312 C 176.089844 65.695312 175.328125 65.5 174.976562 64.972656 C 175.347656 64.972656 175.601562 64.738281 175.601562 64.425781 C 175.601562 64.09375 175.367188 63.878906 175.035156 63.878906 C 174.78125 63.878906 174.488281 64.035156 174.488281 64.445312 C 174.488281 65.382812 175.503906 66.007812 176.65625 66.007812 C 177.964844 66.007812 178.902344 65.089844 178.902344 64.09375 C 178.902344 63.253906 178.238281 62.511719 177.222656 62.277344 C 178.003906 62.003906 178.609375 61.339844 178.609375 60.539062 C 178.609375 59.738281 177.710938 59.171875 176.675781 59.171875 C 175.601562 59.171875 174.800781 59.738281 174.800781 60.5 C 174.800781 60.871094 175.035156 61.027344 175.308594 61.027344 C 175.621094 61.027344 175.816406 60.8125 175.816406 60.519531 C 175.816406 60.148438 175.484375 60.011719 175.269531 60.011719 C 175.699219 59.464844 176.460938 59.425781 176.636719 59.425781 C 176.890625 59.425781 177.652344 59.503906 177.652344 60.539062 C 177.652344 61.222656 177.359375 61.652344 177.222656 61.808594 C 176.929688 62.121094 176.695312 62.140625 176.089844 62.179688 C 175.894531 62.179688 175.816406 62.199219 175.816406 62.335938 C 175.816406 62.472656 175.914062 62.472656 176.089844 62.472656 Z M 176.578125 62.472656 "/>
<path style=" stroke:none;fill-rule:nonzero;fill:rgb(0%,0%,0%);fill-opacity:1;" d="M 184.789062 73.222656 L 181.683594 73.222656 L 181.683594 74.042969 L 185.609375 74.042969 L 185.609375 38.183594 L 181.683594 38.183594 L 181.683594 39.003906 L 184.789062 39.003906 Z M 184.789062 73.222656 "/>
<path style=" stroke:none;fill-rule:nonzero;fill:rgb(0%,0%,0%);fill-opacity:1;" d="M 195.546875 56.128906 C 195.546875 55.699219 195.195312 55.328125 194.746094 55.328125 C 194.316406 55.328125 193.964844 55.699219 193.964844 56.128906 C 193.964844 56.558594 194.316406 56.910156 194.746094 56.910156 C 195.195312 56.910156 195.546875 56.558594 195.546875 56.128906 Z M 195.546875 56.128906 "/>
<path style=" stroke:none;fill-rule:nonzero;fill:rgb(0%,0%,0%);fill-opacity:1;" d="M 207.667969 49.859375 C 207.6875 49.800781 207.707031 49.722656 207.707031 49.644531 C 207.707031 49.488281 207.550781 49.488281 207.53125 49.488281 C 207.511719 49.488281 206.789062 49.546875 206.710938 49.566406 C 206.457031 49.585938 206.222656 49.605469 205.96875 49.625 C 205.578125 49.664062 205.480469 49.664062 205.480469 49.9375 C 205.480469 50.09375 205.597656 50.09375 205.8125 50.09375 C 206.535156 50.09375 206.554688 50.230469 206.554688 50.367188 C 206.554688 50.464844 206.535156 50.582031 206.515625 50.621094 L 205.597656 54.253906 C 205.441406 53.863281 205.03125 53.277344 204.25 53.277344 C 202.570312 53.277344 200.753906 55.445312 200.753906 57.671875 C 200.753906 59.136719 201.613281 60.015625 202.628906 60.015625 C 203.449219 60.015625 204.152344 59.371094 204.5625 58.882812 C 204.71875 59.761719 205.421875 60.015625 205.871094 60.015625 C 206.320312 60.015625 206.671875 59.742188 206.945312 59.195312 C 207.179688 58.6875 207.394531 57.789062 207.394531 57.730469 C 207.394531 57.652344 207.335938 57.59375 207.238281 57.59375 C 207.101562 57.59375 207.101562 57.671875 207.042969 57.886719 C 206.808594 58.765625 206.535156 59.703125 205.910156 59.703125 C 205.480469 59.703125 205.460938 59.3125 205.460938 59.019531 C 205.460938 58.960938 205.460938 58.648438 205.558594 58.238281 Z M 204.640625 58.082031 C 204.5625 58.335938 204.5625 58.375 204.367188 58.648438 C 204.035156 59.058594 203.371094 59.703125 202.667969 59.703125 C 202.0625 59.703125 201.710938 59.15625 201.710938 58.277344 C 201.710938 57.457031 202.179688 55.777344 202.472656 55.152344 C 202.980469 54.097656 203.683594 53.570312 204.25 53.570312 C 205.246094 53.570312 205.441406 54.800781 205.441406 54.917969 C 205.441406 54.9375 205.402344 55.113281 205.382812 55.152344 Z M 204.640625 58.082031 "/>
<path style=" stroke:none;fill-rule:nonzero;fill:rgb(0%,0%,0%);fill-opacity:1;" d="M 214.839844 53.765625 C 214.351562 53.84375 214.175781 54.214844 214.175781 54.488281 C 214.175781 54.859375 214.449219 54.976562 214.664062 54.976562 C 215.113281 54.976562 215.425781 54.585938 215.425781 54.175781 C 215.425781 53.550781 214.703125 53.277344 214.078125 53.277344 C 213.179688 53.277344 212.671875 54.175781 212.535156 54.449219 C 212.183594 53.335938 211.265625 53.277344 210.992188 53.277344 C 209.46875 53.277344 208.667969 55.230469 208.667969 55.5625 C 208.667969 55.621094 208.726562 55.699219 208.824219 55.699219 C 208.941406 55.699219 208.980469 55.601562 209 55.542969 C 209.507812 53.882812 210.523438 53.570312 210.953125 53.570312 C 211.617188 53.570312 211.753906 54.195312 211.753906 54.546875 C 211.753906 54.878906 211.65625 55.230469 211.480469 55.953125 L 210.972656 57.984375 C 210.757812 58.882812 210.328125 59.703125 209.527344 59.703125 C 209.449219 59.703125 209.078125 59.703125 208.765625 59.507812 C 209.3125 59.410156 209.429688 58.960938 209.429688 58.785156 C 209.429688 58.492188 209.195312 58.296875 208.921875 58.296875 C 208.550781 58.296875 208.160156 58.628906 208.160156 59.097656 C 208.160156 59.722656 208.863281 60.015625 209.507812 60.015625 C 210.230469 60.015625 210.738281 59.449219 211.050781 58.824219 C 211.285156 59.703125 212.046875 60.015625 212.59375 60.015625 C 214.117188 60.015625 214.917969 58.042969 214.917969 57.730469 C 214.917969 57.652344 214.859375 57.59375 214.78125 57.59375 C 214.644531 57.59375 214.625 57.671875 214.585938 57.789062 C 214.175781 59.097656 213.316406 59.703125 212.632812 59.703125 C 212.105469 59.703125 211.832031 59.3125 211.832031 58.707031 C 211.832031 58.375 211.890625 58.140625 212.125 57.164062 L 212.652344 55.113281 C 212.867188 54.234375 213.375 53.570312 214.078125 53.570312 C 214.097656 53.570312 214.527344 53.570312 214.839844 53.765625 Z M 214.839844 53.765625 "/>
<path style=" stroke:none;fill-rule:nonzero;fill:rgb(0%,0%,0%);fill-opacity:1;" d="M 230.296875 55.015625 C 230.511719 55.015625 230.785156 55.015625 230.785156 54.742188 C 230.785156 54.46875 230.53125 54.46875 230.296875 54.46875 L 221.507812 54.46875 C 221.292969 54.46875 221.019531 54.46875 221.019531 54.742188 C 221.019531 55.015625 221.273438 55.015625 221.507812 55.015625 Z M 230.296875 57.789062 C 230.511719 57.789062 230.785156 57.789062 230.785156 57.535156 C 230.785156 57.242188 230.53125 57.242188 230.296875 57.242188 L 221.507812 57.242188 C 221.292969 57.242188 221.019531 57.242188 221.019531 57.515625 C 221.019531 57.789062 221.273438 57.789062 221.507812 57.789062 Z M 230.296875 57.789062 "/>
<path style=" stroke:none;fill-rule:nonzero;fill:rgb(0%,0%,0%);fill-opacity:1;" d="M 245.59375 56.421875 C 245.847656 56.421875 246.121094 56.421875 246.121094 56.128906 C 246.121094 55.816406 245.847656 55.816406 245.59375 55.816406 L 237.507812 55.816406 C 237.253906 55.816406 236.980469 55.816406 236.980469 56.128906 C 236.980469 56.421875 237.253906 56.421875 237.507812 56.421875 Z M 245.59375 56.421875 "/>
<path style=" stroke:none;fill-rule:nonzero;fill:rgb(0%,0%,0%);fill-opacity:1;" d="M 265.308594 47.230469 L 264.976562 47.230469 C 264.917969 47.484375 264.800781 48.324219 264.664062 48.558594 C 264.546875 48.695312 263.707031 48.695312 263.257812 48.695312 L 260.484375 48.695312 C 260.894531 48.34375 261.8125 47.386719 262.183594 47.035156 C 264.46875 44.945312 265.308594 44.164062 265.308594 42.679688 C 265.308594 40.960938 263.941406 39.808594 262.203125 39.808594 C 260.484375 39.808594 259.449219 41.292969 259.449219 42.582031 C 259.449219 43.34375 260.113281 43.34375 260.152344 43.34375 C 260.484375 43.34375 260.855469 43.109375 260.855469 42.640625 C 260.855469 42.210938 260.582031 41.9375 260.152344 41.9375 C 260.035156 41.9375 259.996094 41.9375 259.957031 41.957031 C 260.230469 40.941406 261.050781 40.238281 262.007812 40.238281 C 263.277344 40.238281 264.058594 41.3125 264.058594 42.679688 C 264.058594 43.949219 263.335938 45.0625 262.476562 46.019531 L 259.449219 49.398438 L 259.449219 49.75 L 264.917969 49.75 Z M 265.308594 47.230469 "/>
<path style=" stroke:none;fill-rule:nonzero;fill:rgb(0%,0%,0%);fill-opacity:1;" d="M 272.234375 46.019531 C 272.234375 45.589844 271.882812 45.21875 271.433594 45.21875 C 271.003906 45.21875 270.652344 45.589844 270.652344 46.019531 C 270.652344 46.449219 271.003906 46.800781 271.433594 46.800781 C 271.882812 46.800781 272.234375 46.449219 272.234375 46.019531 Z M 272.234375 46.019531 "/>
<path style=" stroke:none;fill-rule:nonzero;fill:rgb(0%,0%,0%);fill-opacity:1;" d="M 279.511719 46.292969 C 279.921875 46.292969 280.9375 46.253906 281.640625 45.980469 C 282.773438 45.550781 282.890625 44.691406 282.890625 44.417969 C 282.890625 43.753906 282.324219 43.167969 281.328125 43.167969 C 279.765625 43.167969 277.5 44.574219 277.5 47.230469 C 277.5 48.8125 278.398438 49.90625 279.765625 49.90625 C 281.796875 49.90625 283.085938 48.324219 283.085938 48.128906 C 283.085938 48.03125 282.988281 47.953125 282.929688 47.953125 C 282.890625 47.953125 282.871094 47.972656 282.734375 48.109375 C 281.777344 49.378906 280.371094 49.59375 279.785156 49.59375 C 278.945312 49.59375 278.496094 48.929688 278.496094 47.816406 C 278.496094 47.621094 278.496094 47.230469 278.710938 46.292969 Z M 278.789062 45.980469 C 279.433594 43.675781 280.859375 43.460938 281.328125 43.460938 C 281.992188 43.460938 282.441406 43.851562 282.441406 44.417969 C 282.441406 45.980469 280.039062 45.980469 279.414062 45.980469 Z M 278.789062 45.980469 "/>
<path style=" stroke:none;fill-rule:nonzero;fill:rgb(0%,0%,0%);fill-opacity:1;" d="M 288.617188 40.363281 C 288.167969 40.460938 288.148438 40.851562 288.148438 40.890625 C 288.148438 41.105469 288.324219 41.261719 288.539062 41.261719 C 288.753906 41.261719 289.085938 41.085938 289.085938 40.65625 C 289.085938 40.089844 288.460938 39.933594 288.089844 39.933594 C 287.640625 39.933594 287.25 40.265625 287.015625 40.65625 C 286.800781 40.128906 286.292969 39.933594 285.882812 39.933594 C 284.789062 39.933594 284.183594 41.183594 284.183594 41.457031 C 284.183594 41.554688 284.261719 41.59375 284.339844 41.59375 C 284.457031 41.59375 284.476562 41.535156 284.496094 41.417969 C 284.730469 40.695312 285.335938 40.207031 285.84375 40.207031 C 286.234375 40.207031 286.429688 40.5 286.429688 40.851562 C 286.429688 41.046875 286.3125 41.515625 286.234375 41.828125 C 286.15625 42.121094 285.941406 43 285.882812 43.195312 C 285.746094 43.722656 285.394531 44.152344 284.945312 44.152344 C 284.90625 44.152344 284.652344 44.152344 284.4375 44.015625 C 284.886719 43.898438 284.886719 43.488281 284.886719 43.46875 C 284.886719 43.234375 284.710938 43.097656 284.496094 43.097656 C 284.222656 43.097656 283.929688 43.332031 283.929688 43.703125 C 283.929688 44.171875 284.417969 44.425781 284.925781 44.425781 C 285.453125 44.425781 285.824219 44.035156 286 43.703125 C 286.234375 44.191406 286.683594 44.425781 287.171875 44.425781 C 288.246094 44.425781 288.851562 43.175781 288.851562 42.902344 C 288.851562 42.804688 288.773438 42.765625 288.695312 42.765625 C 288.578125 42.765625 288.558594 42.84375 288.519531 42.941406 C 288.324219 43.605469 287.757812 44.152344 287.191406 44.152344 C 286.859375 44.152344 286.625 43.9375 286.625 43.507812 C 286.625 43.3125 286.683594 43.078125 286.820312 42.53125 C 286.878906 42.21875 287.09375 41.359375 287.152344 41.164062 C 287.289062 40.636719 287.640625 40.207031 288.089844 40.207031 C 288.148438 40.207031 288.402344 40.207031 288.617188 40.363281 Z M 288.617188 40.363281 "/>
<path style="fill:none;stroke-width:1;stroke-linecap:butt;stroke-linejoin:miter;stroke:rgb(0%,0%,0%);stroke-opacity:1;stroke-miterlimit:10;" d="M 0.047993 0.108383 L 41.047993 0.108383 " transform="matrix(1.25,0,0,-1.25,248.86579,56.12376)"/>
<path style=" stroke:none;fill-rule:nonzero;fill:rgb(0%,0%,0%);fill-opacity:1;" d="M 253.730469 73.742188 C 253.730469 73.703125 253.730469 73.664062 253.476562 73.410156 C 251.972656 71.90625 251.132812 69.445312 251.132812 66.398438 C 251.132812 63.488281 251.835938 60.988281 253.574219 59.230469 C 253.730469 59.09375 253.730469 59.074219 253.730469 59.015625 C 253.730469 58.9375 253.652344 58.898438 253.59375 58.898438 C 253.398438 58.898438 252.167969 59.972656 251.445312 61.4375 C 250.683594 62.960938 250.332031 64.542969 250.332031 66.398438 C 250.332031 67.726562 250.546875 69.503906 251.308594 71.085938 C 252.207031 72.882812 253.417969 73.859375 253.59375 73.859375 C 253.652344 73.859375 253.730469 73.820312 253.730469 73.742188 Z M 253.730469 73.742188 "/>
<path style=" stroke:none;fill-rule:nonzero;fill:rgb(0%,0%,0%);fill-opacity:1;" d="M 261.648438 64.015625 C 261.160156 64.09375 260.984375 64.464844 260.984375 64.738281 C 260.984375 65.109375 261.257812 65.226562 261.472656 65.226562 C 261.921875 65.226562 262.234375 64.835938 262.234375 64.425781 C 262.234375 63.800781 261.511719 63.527344 260.886719 63.527344 C 259.988281 63.527344 259.480469 64.425781 259.34375 64.699219 C 258.992188 63.585938 258.074219 63.527344 257.800781 63.527344 C 256.277344 63.527344 255.476562 65.480469 255.476562 65.8125 C 255.476562 65.871094 255.535156 65.949219 255.632812 65.949219 C 255.75 65.949219 255.789062 65.851562 255.808594 65.792969 C 256.316406 64.132812 257.332031 63.820312 257.761719 63.820312 C 258.425781 63.820312 258.5625 64.445312 258.5625 64.796875 C 258.5625 65.128906 258.464844 65.480469 258.289062 66.203125 L 257.78125 68.234375 C 257.566406 69.132812 257.136719 69.953125 256.335938 69.953125 C 256.257812 69.953125 255.886719 69.953125 255.574219 69.757812 C 256.121094 69.660156 256.238281 69.210938 256.238281 69.035156 C 256.238281 68.742188 256.003906 68.546875 255.730469 68.546875 C 255.359375 68.546875 254.96875 68.878906 254.96875 69.347656 C 254.96875 69.972656 255.671875 70.265625 256.316406 70.265625 C 257.039062 70.265625 257.546875 69.699219 257.859375 69.074219 C 258.09375 69.953125 258.855469 70.265625 259.402344 70.265625 C 260.925781 70.265625 261.726562 68.292969 261.726562 67.980469 C 261.726562 67.902344 261.667969 67.84375 261.589844 67.84375 C 261.453125 67.84375 261.433594 67.921875 261.394531 68.039062 C 260.984375 69.347656 260.125 69.953125 259.441406 69.953125 C 258.914062 69.953125 258.640625 69.5625 258.640625 68.957031 C 258.640625 68.625 258.699219 68.390625 258.933594 67.414062 L 259.460938 65.363281 C 259.675781 64.484375 260.183594 63.820312 260.886719 63.820312 C 260.90625 63.820312 261.335938 63.820312 261.648438 64.015625 Z M 261.648438 64.015625 "/>
<path style=" stroke:none;fill-rule:nonzero;fill:rgb(0%,0%,0%);fill-opacity:1;" d="M 276.035156 66.671875 C 276.289062 66.671875 276.5625 66.671875 276.5625 66.378906 C 276.5625 66.066406 276.289062 66.066406 276.035156 66.066406 L 267.949219 66.066406 C 267.695312 66.066406 267.421875 66.066406 267.421875 66.378906 C 267.421875 66.671875 267.695312 66.671875 267.949219 66.671875 Z M 276.035156 66.671875 "/>
<path style=" stroke:none;fill-rule:nonzero;fill:rgb(0%,0%,0%);fill-opacity:1;" d="M 287.71875 67.589844 L 287.386719 67.589844 C 287.328125 67.84375 287.210938 68.683594 287.074219 68.917969 C 286.957031 69.054688 286.117188 69.054688 285.667969 69.054688 L 282.894531 69.054688 C 283.304688 68.703125 284.222656 67.746094 284.59375 67.394531 C 286.878906 65.304688 287.71875 64.523438 287.71875 63.039062 C 287.71875 61.320312 286.351562 60.167969 284.613281 60.167969 C 282.894531 60.167969 281.859375 61.652344 281.859375 62.941406 C 281.859375 63.703125 282.523438 63.703125 282.5625 63.703125 C 282.894531 63.703125 283.265625 63.46875 283.265625 63 C 283.265625 62.570312 282.992188 62.296875 282.5625 62.296875 C 282.445312 62.296875 282.40625 62.296875 282.367188 62.316406 C 282.640625 61.300781 283.460938 60.597656 284.417969 60.597656 C 285.6875 60.597656 286.46875 61.671875 286.46875 63.039062 C 286.46875 64.308594 285.746094 65.421875 284.886719 66.378906 L 281.859375 69.757812 L 281.859375 70.109375 L 287.328125 70.109375 Z M 287.71875 67.589844 "/>
<path style=" stroke:none;fill-rule:nonzero;fill:rgb(0%,0%,0%);fill-opacity:1;" d="M 292.671875 66.398438 C 292.671875 65.246094 292.515625 63.410156 291.675781 61.671875 C 290.796875 59.875 289.566406 58.898438 289.410156 58.898438 C 289.351562 58.898438 289.273438 58.9375 289.273438 59.015625 C 289.273438 59.074219 289.273438 59.09375 289.527344 59.347656 C 291.03125 60.851562 291.851562 63.332031 291.851562 66.378906 C 291.851562 69.269531 291.148438 71.769531 289.429688 73.527344 C 289.273438 73.664062 289.273438 73.703125 289.273438 73.742188 C 289.273438 73.820312 289.351562 73.859375 289.410156 73.859375 C 289.605469 73.859375 290.835938 72.785156 291.558594 71.320312 C 292.320312 69.796875 292.671875 68.175781 292.671875 66.398438 Z M 292.671875 66.398438 "/>
<path style=" stroke:none;fill-rule:nonzero;fill:rgb(0%,0%,0%);fill-opacity:1;" d="M 296.664062 62.472656 C 297.445312 62.472656 297.953125 63.039062 297.953125 64.09375 C 297.953125 65.34375 297.25 65.695312 296.722656 65.695312 C 296.175781 65.695312 295.414062 65.5 295.0625 64.972656 C 295.433594 64.972656 295.6875 64.738281 295.6875 64.425781 C 295.6875 64.09375 295.453125 63.878906 295.121094 63.878906 C 294.867188 63.878906 294.574219 64.035156 294.574219 64.445312 C 294.574219 65.382812 295.589844 66.007812 296.742188 66.007812 C 298.050781 66.007812 298.988281 65.089844 298.988281 64.09375 C 298.988281 63.253906 298.324219 62.511719 297.308594 62.277344 C 298.089844 62.003906 298.695312 61.339844 298.695312 60.539062 C 298.695312 59.738281 297.796875 59.171875 296.761719 59.171875 C 295.6875 59.171875 294.886719 59.738281 294.886719 60.5 C 294.886719 60.871094 295.121094 61.027344 295.394531 61.027344 C 295.707031 61.027344 295.902344 60.8125 295.902344 60.519531 C 295.902344 60.148438 295.570312 60.011719 295.355469 60.011719 C 295.785156 59.464844 296.546875 59.425781 296.722656 59.425781 C 296.976562 59.425781 297.738281 59.503906 297.738281 60.539062 C 297.738281 61.222656 297.445312 61.652344 297.308594 61.808594 C 297.015625 62.121094 296.78125 62.140625 296.175781 62.179688 C 295.980469 62.179688 295.902344 62.199219 295.902344 62.335938 C 295.902344 62.472656 296 62.472656 296.175781 62.472656 Z M 296.664062 62.472656 "/>
<path style=" stroke:none;fill-rule:nonzero;fill:rgb(0%,0%,0%);fill-opacity:1;" d="M 310.832031 56.402344 L 314.953125 56.402344 C 315.167969 56.402344 315.441406 56.402344 315.441406 56.148438 C 315.441406 55.855469 315.1875 55.855469 314.953125 55.855469 L 310.832031 55.855469 L 310.832031 51.734375 C 310.832031 51.519531 310.832031 51.246094 310.558594 51.246094 C 310.285156 51.246094 310.285156 51.5 310.285156 51.734375 L 310.285156 55.855469 L 306.164062 55.855469 C 305.949219 55.855469 305.675781 55.855469 305.675781 56.128906 C 305.675781 56.402344 305.929688 56.402344 306.164062 56.402344 L 310.285156 56.402344 L 310.285156 60.523438 C 310.285156 60.738281 310.285156 61.011719 310.558594 61.011719 C 310.832031 61.011719 310.832031 60.757812 310.832031 60.523438 Z M 310.832031 56.402344 "/>
<path style=" stroke:none;fill-rule:nonzero;fill:rgb(0%,0%,0%);fill-opacity:1;" d="M 330.726562 49.46875 C 330.726562 49.332031 330.628906 49.332031 330.609375 49.332031 C 330.570312 49.332031 330.511719 49.332031 330.394531 49.488281 L 329.359375 50.738281 C 328.832031 49.839844 328.011719 49.332031 326.898438 49.332031 C 323.675781 49.332031 320.316406 52.613281 320.316406 56.128906 C 320.316406 58.628906 322.074219 60.171875 324.242188 60.171875 C 325.453125 60.171875 326.488281 59.664062 327.367188 58.941406 C 328.65625 57.847656 329.046875 56.402344 329.046875 56.265625 C 329.046875 56.148438 328.929688 56.148438 328.890625 56.148438 C 328.753906 56.148438 328.734375 56.226562 328.695312 56.285156 C 328.011719 58.628906 326 59.742188 324.496094 59.742188 C 322.914062 59.742188 321.546875 58.726562 321.546875 56.597656 C 321.546875 56.128906 321.703125 53.53125 323.382812 51.558594 C 324.203125 50.601562 325.609375 49.78125 327.035156 49.78125 C 328.675781 49.78125 329.398438 51.128906 329.398438 52.652344 C 329.398438 53.042969 329.359375 53.375 329.359375 53.433594 C 329.359375 53.570312 329.515625 53.570312 329.554688 53.570312 C 329.710938 53.570312 329.730469 53.550781 329.789062 53.277344 Z M 330.726562 49.46875 "/>
</g>
</svg>
