<?xml version="1.0" encoding="UTF-8"?>
<svg xmlns="http://www.w3.org/2000/svg" xmlns:xlink="http://www.w3.org/1999/xlink" width="259.3425pt" height="72.140923pt" viewBox="0 0 259.3425 72.140923" version="1.1">
<g id="surface1">
<path style=" stroke:none;fill-rule:nonzero;fill:rgb(0%,0%,0%);fill-opacity:1;" d="M 5.902344 33.113281 C 5.902344 33.074219 5.902344 33.035156 5.648438 32.78125 C 4.144531 31.277344 3.304688 28.816406 3.304688 25.769531 C 3.304688 22.859375 4.007812 20.359375 5.746094 18.601562 C 5.902344 18.464844 5.902344 18.445312 5.902344 18.386719 C 5.902344 18.308594 5.824219 18.269531 5.765625 18.269531 C 5.570312 18.269531 4.339844 19.34375 3.617188 20.808594 C 2.855469 22.332031 2.503906 23.914062 2.503906 25.769531 C 2.503906 27.097656 2.71875 28.875 3.480469 30.457031 C 4.378906 32.253906 5.589844 33.230469 5.765625 33.230469 C 5.824219 33.230469 5.902344 33.191406 5.902344 33.113281 Z M 5.902344 33.113281 "/>
<path style=" stroke:none;fill-rule:nonzero;fill:rgb(0%,0%,0%);fill-opacity:1;" d="M 13.820312 23.386719 C 13.332031 23.464844 13.15625 23.835938 13.15625 24.109375 C 13.15625 24.480469 13.429688 24.597656 13.644531 24.597656 C 14.09375 24.597656 14.40625 24.207031 14.40625 23.796875 C 14.40625 23.171875 13.683594 22.898438 13.058594 22.898438 C 12.160156 22.898438 11.652344 23.796875 11.515625 24.070312 C 11.164062 22.957031 10.246094 22.898438 9.972656 22.898438 C 8.449219 22.898438 7.648438 24.851562 7.648438 25.183594 C 7.648438 25.242188 7.707031 25.320312 7.804688 25.320312 C 7.921875 25.320312 7.960938 25.222656 7.980469 25.164062 C 8.488281 23.503906 9.503906 23.191406 9.933594 23.191406 C 10.597656 23.191406 10.734375 23.816406 10.734375 24.167969 C 10.734375 24.5 10.636719 24.851562 10.460938 25.574219 L 9.953125 27.605469 C 9.738281 28.503906 9.308594 29.324219 8.507812 29.324219 C 8.429688 29.324219 8.058594 29.324219 7.746094 29.128906 C 8.292969 29.03125 8.410156 28.582031 8.410156 28.40625 C 8.410156 28.113281 8.175781 27.917969 7.902344 27.917969 C 7.53125 27.917969 7.140625 28.25 7.140625 28.71875 C 7.140625 29.34375 7.84375 29.636719 8.488281 29.636719 C 9.210938 29.636719 9.71875 29.070312 10.03125 28.445312 C 10.265625 29.324219 11.027344 29.636719 11.574219 29.636719 C 13.097656 29.636719 13.898438 27.664062 13.898438 27.351562 C 13.898438 27.273438 13.839844 27.214844 13.761719 27.214844 C 13.625 27.214844 13.605469 27.292969 13.566406 27.410156 C 13.15625 28.71875 12.296875 29.324219 11.613281 29.324219 C 11.085938 29.324219 10.8125 28.933594 10.8125 28.328125 C 10.8125 27.996094 10.871094 27.761719 11.105469 26.785156 L 11.632812 24.734375 C 11.847656 23.855469 12.355469 23.191406 13.058594 23.191406 C 13.078125 23.191406 13.507812 23.191406 13.820312 23.386719 Z M 13.820312 23.386719 "/>
<path style=" stroke:none;fill-rule:nonzero;fill:rgb(0%,0%,0%);fill-opacity:1;" d="M 28.210938 26.042969 C 28.464844 26.042969 28.738281 26.042969 28.738281 25.75 C 28.738281 25.4375 28.464844 25.4375 28.210938 25.4375 L 20.125 25.4375 C 19.871094 25.4375 19.597656 25.4375 19.597656 25.75 C 19.597656 26.042969 19.871094 26.042969 20.125 26.042969 Z M 28.210938 26.042969 "/>
<path style=" stroke:none;fill-rule:nonzero;fill:rgb(0%,0%,0%);fill-opacity:1;" d="M 38.699219 19.753906 C 38.699219 19.460938 38.699219 19.402344 38.484375 19.402344 C 38.367188 19.402344 38.328125 19.402344 38.210938 19.578125 L 33.71875 26.550781 L 33.71875 26.980469 L 37.644531 26.980469 L 37.644531 28.347656 C 37.644531 28.894531 37.605469 29.050781 36.511719 29.050781 L 36.21875 29.050781 L 36.21875 29.480469 C 36.570312 29.441406 37.742188 29.441406 38.171875 29.441406 C 38.582031 29.441406 39.773438 29.441406 40.125 29.480469 L 40.125 29.050781 L 39.832031 29.050781 C 38.738281 29.050781 38.699219 28.894531 38.699219 28.347656 L 38.699219 26.980469 L 40.203125 26.980469 L 40.203125 26.550781 L 38.699219 26.550781 Z M 37.722656 20.925781 L 37.722656 26.550781 L 34.089844 26.550781 Z M 37.722656 20.925781 "/>
<path style=" stroke:none;fill-rule:nonzero;fill:rgb(0%,0%,0%);fill-opacity:1;" d="M 44.84375 25.769531 C 44.84375 24.617188 44.6875 22.78125 43.847656 21.042969 C 42.96875 19.246094 41.738281 18.269531 41.582031 18.269531 C 41.523438 18.269531 41.445312 18.308594 41.445312 18.386719 C 41.445312 18.445312 41.445312 18.464844 41.699219 18.71875 C 43.203125 20.222656 44.023438 22.703125 44.023438 25.75 C 44.023438 28.640625 43.320312 31.140625 41.601562 32.898438 C 41.445312 33.035156 41.445312 33.074219 41.445312 33.113281 C 41.445312 33.191406 41.523438 33.230469 41.582031 33.230469 C 41.777344 33.230469 43.007812 32.15625 43.730469 30.691406 C 44.492188 29.167969 44.84375 27.546875 44.84375 25.769531 Z M 44.84375 25.769531 "/>
<path style=" stroke:none;fill-rule:nonzero;fill:rgb(0%,0%,0%);fill-opacity:1;" d="M 52.507812 25.75 C 52.507812 25.320312 52.15625 24.949219 51.707031 24.949219 C 51.277344 24.949219 50.925781 25.320312 50.925781 25.75 C 50.925781 26.179688 51.277344 26.53125 51.707031 26.53125 C 52.15625 26.53125 52.507812 26.179688 52.507812 25.75 Z M 52.507812 25.75 "/>
<path style=" stroke:none;fill-rule:nonzero;fill:rgb(0%,0%,0%);fill-opacity:1;" d="M 59.785156 26.023438 C 60.195312 26.023438 61.210938 25.984375 61.914062 25.710938 C 63.046875 25.28125 63.164062 24.421875 63.164062 24.148438 C 63.164062 23.484375 62.597656 22.898438 61.601562 22.898438 C 60.039062 22.898438 57.773438 24.304688 57.773438 26.960938 C 57.773438 28.542969 58.671875 29.636719 60.039062 29.636719 C 62.070312 29.636719 63.359375 28.054688 63.359375 27.859375 C 63.359375 27.761719 63.261719 27.683594 63.203125 27.683594 C 63.164062 27.683594 63.144531 27.703125 63.007812 27.839844 C 62.050781 29.109375 60.644531 29.324219 60.058594 29.324219 C 59.21875 29.324219 58.769531 28.660156 58.769531 27.546875 C 58.769531 27.351562 58.769531 26.960938 58.984375 26.023438 Z M 59.0625 25.710938 C 59.707031 23.40625 61.132812 23.191406 61.601562 23.191406 C 62.265625 23.191406 62.714844 23.582031 62.714844 24.148438 C 62.714844 25.710938 60.3125 25.710938 59.6875 25.710938 Z M 59.0625 25.710938 "/>
<path style=" stroke:none;fill-rule:nonzero;fill:rgb(0%,0%,0%);fill-opacity:1;" d="M 68.890625 20.09375 C 68.441406 20.191406 68.421875 20.582031 68.421875 20.621094 C 68.421875 20.835938 68.597656 20.992188 68.8125 20.992188 C 69.027344 20.992188 69.359375 20.816406 69.359375 20.386719 C 69.359375 19.820312 68.734375 19.664062 68.363281 19.664062 C 67.914062 19.664062 67.523438 19.996094 67.289062 20.386719 C 67.074219 19.859375 66.566406 19.664062 66.15625 19.664062 C 65.0625 19.664062 64.457031 20.914062 64.457031 21.1875 C 64.457031 21.285156 64.535156 21.324219 64.613281 21.324219 C 64.730469 21.324219 64.75 21.265625 64.769531 21.148438 C 65.003906 20.425781 65.609375 19.9375 66.117188 19.9375 C 66.507812 19.9375 66.703125 20.230469 66.703125 20.582031 C 66.703125 20.777344 66.585938 21.246094 66.507812 21.558594 C 66.429688 21.851562 66.214844 22.730469 66.15625 22.925781 C 66.019531 23.453125 65.667969 23.882812 65.21875 23.882812 C 65.179688 23.882812 64.925781 23.882812 64.710938 23.746094 C 65.160156 23.628906 65.160156 23.21875 65.160156 23.199219 C 65.160156 22.964844 64.984375 22.828125 64.769531 22.828125 C 64.496094 22.828125 64.203125 23.0625 64.203125 23.433594 C 64.203125 23.902344 64.691406 24.15625 65.199219 24.15625 C 65.726562 24.15625 66.097656 23.765625 66.273438 23.433594 C 66.507812 23.921875 66.957031 24.15625 67.445312 24.15625 C 68.519531 24.15625 69.125 22.90625 69.125 22.632812 C 69.125 22.535156 69.046875 22.496094 68.96875 22.496094 C 68.851562 22.496094 68.832031 22.574219 68.792969 22.671875 C 68.597656 23.335938 68.03125 23.882812 67.464844 23.882812 C 67.132812 23.882812 66.898438 23.667969 66.898438 23.238281 C 66.898438 23.042969 66.957031 22.808594 67.09375 22.261719 C 67.152344 21.949219 67.367188 21.089844 67.425781 20.894531 C 67.5625 20.367188 67.914062 19.9375 68.363281 19.9375 C 68.421875 19.9375 68.675781 19.9375 68.890625 20.09375 Z M 68.890625 20.09375 "/>
<path style="fill:none;stroke-width:1;stroke-linecap:butt;stroke-linejoin:miter;stroke:rgb(0%,0%,0%);stroke-opacity:1;stroke-miterlimit:10;" d="M -0.332 -0.098506 L 55.668 -0.098506 " transform="matrix(1.25,0,0,-1.25,1.04,35.85343)"/>
<path style=" stroke:none;fill-rule:nonzero;fill:rgb(0%,0%,0%);fill-opacity:1;" d="M 15.023438 53.472656 C 15.023438 53.433594 15.023438 53.394531 14.769531 53.140625 C 13.265625 51.636719 12.425781 49.175781 12.425781 46.128906 C 12.425781 43.21875 13.128906 40.71875 14.867188 38.960938 C 15.023438 38.824219 15.023438 38.804688 15.023438 38.746094 C 15.023438 38.667969 14.945312 38.628906 14.886719 38.628906 C 14.691406 38.628906 13.460938 39.703125 12.738281 41.167969 C 11.976562 42.691406 11.625 44.273438 11.625 46.128906 C 11.625 47.457031 11.839844 49.234375 12.601562 50.816406 C 13.5 52.613281 14.710938 53.589844 14.886719 53.589844 C 14.945312 53.589844 15.023438 53.550781 15.023438 53.472656 Z M 15.023438 53.472656 "/>
<path style=" stroke:none;fill-rule:nonzero;fill:rgb(0%,0%,0%);fill-opacity:1;" d="M 22.941406 43.746094 C 22.453125 43.824219 22.277344 44.195312 22.277344 44.46875 C 22.277344 44.839844 22.550781 44.957031 22.765625 44.957031 C 23.214844 44.957031 23.527344 44.566406 23.527344 44.15625 C 23.527344 43.53125 22.804688 43.257812 22.179688 43.257812 C 21.28125 43.257812 20.773438 44.15625 20.636719 44.429688 C 20.285156 43.316406 19.367188 43.257812 19.09375 43.257812 C 17.570312 43.257812 16.769531 45.210938 16.769531 45.542969 C 16.769531 45.601562 16.828125 45.679688 16.925781 45.679688 C 17.042969 45.679688 17.082031 45.582031 17.101562 45.523438 C 17.609375 43.863281 18.625 43.550781 19.054688 43.550781 C 19.71875 43.550781 19.855469 44.175781 19.855469 44.527344 C 19.855469 44.859375 19.757812 45.210938 19.582031 45.933594 L 19.074219 47.964844 C 18.859375 48.863281 18.429688 49.683594 17.628906 49.683594 C 17.550781 49.683594 17.179688 49.683594 16.867188 49.488281 C 17.414062 49.390625 17.53125 48.941406 17.53125 48.765625 C 17.53125 48.472656 17.296875 48.277344 17.023438 48.277344 C 16.652344 48.277344 16.261719 48.609375 16.261719 49.078125 C 16.261719 49.703125 16.964844 49.996094 17.609375 49.996094 C 18.332031 49.996094 18.839844 49.429688 19.152344 48.804688 C 19.386719 49.683594 20.148438 49.996094 20.695312 49.996094 C 22.21875 49.996094 23.019531 48.023438 23.019531 47.710938 C 23.019531 47.632812 22.960938 47.574219 22.882812 47.574219 C 22.746094 47.574219 22.726562 47.652344 22.6875 47.769531 C 22.277344 49.078125 21.417969 49.683594 20.734375 49.683594 C 20.207031 49.683594 19.933594 49.292969 19.933594 48.6875 C 19.933594 48.355469 19.992188 48.121094 20.226562 47.144531 L 20.753906 45.09375 C 20.96875 44.214844 21.476562 43.550781 22.179688 43.550781 C 22.199219 43.550781 22.628906 43.550781 22.941406 43.746094 Z M 22.941406 43.746094 "/>
<path style=" stroke:none;fill-rule:nonzero;fill:rgb(0%,0%,0%);fill-opacity:1;" d="M 37.328125 46.402344 C 37.582031 46.402344 37.855469 46.402344 37.855469 46.109375 C 37.855469 45.796875 37.582031 45.796875 37.328125 45.796875 L 29.242188 45.796875 C 28.988281 45.796875 28.714844 45.796875 28.714844 46.109375 C 28.714844 46.402344 28.988281 46.402344 29.242188 46.402344 Z M 37.328125 46.402344 "/>
<path style=" stroke:none;fill-rule:nonzero;fill:rgb(0%,0%,0%);fill-opacity:1;" d="M 49.011719 47.320312 L 48.679688 47.320312 C 48.621094 47.574219 48.503906 48.414062 48.367188 48.648438 C 48.25 48.785156 47.410156 48.785156 46.960938 48.785156 L 44.1875 48.785156 C 44.597656 48.433594 45.515625 47.476562 45.886719 47.125 C 48.171875 45.035156 49.011719 44.253906 49.011719 42.769531 C 49.011719 41.050781 47.644531 39.898438 45.90625 39.898438 C 44.1875 39.898438 43.152344 41.382812 43.152344 42.671875 C 43.152344 43.433594 43.816406 43.433594 43.855469 43.433594 C 44.1875 43.433594 44.558594 43.199219 44.558594 42.730469 C 44.558594 42.300781 44.285156 42.027344 43.855469 42.027344 C 43.738281 42.027344 43.699219 42.027344 43.660156 42.046875 C 43.933594 41.03125 44.753906 40.328125 45.710938 40.328125 C 46.980469 40.328125 47.761719 41.402344 47.761719 42.769531 C 47.761719 44.039062 47.039062 45.152344 46.179688 46.109375 L 43.152344 49.488281 L 43.152344 49.839844 L 48.621094 49.839844 Z M 49.011719 47.320312 "/>
<path style=" stroke:none;fill-rule:nonzero;fill:rgb(0%,0%,0%);fill-opacity:1;" d="M 53.964844 46.128906 C 53.964844 44.976562 53.808594 43.140625 52.96875 41.402344 C 52.089844 39.605469 50.859375 38.628906 50.703125 38.628906 C 50.644531 38.628906 50.566406 38.667969 50.566406 38.746094 C 50.566406 38.804688 50.566406 38.824219 50.820312 39.078125 C 52.324219 40.582031 53.144531 43.0625 53.144531 46.109375 C 53.144531 49 52.441406 51.5 50.722656 53.257812 C 50.566406 53.394531 50.566406 53.433594 50.566406 53.472656 C 50.566406 53.550781 50.644531 53.589844 50.703125 53.589844 C 50.898438 53.589844 52.128906 52.515625 52.851562 51.050781 C 53.613281 49.527344 53.964844 47.90625 53.964844 46.128906 Z M 53.964844 46.128906 "/>
<path style=" stroke:none;fill-rule:nonzero;fill:rgb(0%,0%,0%);fill-opacity:1;" d="M 57.957031 42.203125 C 58.738281 42.203125 59.246094 42.769531 59.246094 43.824219 C 59.246094 45.074219 58.542969 45.425781 58.015625 45.425781 C 57.46875 45.425781 56.707031 45.230469 56.355469 44.703125 C 56.726562 44.703125 56.980469 44.46875 56.980469 44.15625 C 56.980469 43.824219 56.746094 43.609375 56.414062 43.609375 C 56.160156 43.609375 55.867188 43.765625 55.867188 44.175781 C 55.867188 45.113281 56.882812 45.738281 58.035156 45.738281 C 59.34375 45.738281 60.28125 44.820312 60.28125 43.824219 C 60.28125 42.984375 59.617188 42.242188 58.601562 42.007812 C 59.382812 41.734375 59.988281 41.070312 59.988281 40.269531 C 59.988281 39.46875 59.089844 38.902344 58.054688 38.902344 C 56.980469 38.902344 56.179688 39.46875 56.179688 40.230469 C 56.179688 40.601562 56.414062 40.757812 56.6875 40.757812 C 57 40.757812 57.195312 40.542969 57.195312 40.25 C 57.195312 39.878906 56.863281 39.742188 56.648438 39.742188 C 57.078125 39.195312 57.839844 39.15625 58.015625 39.15625 C 58.269531 39.15625 59.03125 39.234375 59.03125 40.269531 C 59.03125 40.953125 58.738281 41.382812 58.601562 41.539062 C 58.308594 41.851562 58.074219 41.871094 57.46875 41.910156 C 57.273438 41.910156 57.195312 41.929688 57.195312 42.066406 C 57.195312 42.203125 57.292969 42.203125 57.46875 42.203125 Z M 57.957031 42.203125 "/>
<path style=" stroke:none;fill-rule:nonzero;fill:rgb(0%,0%,0%);fill-opacity:1;" d="M 86.195312 34.746094 C 86.410156 34.746094 86.683594 34.746094 86.683594 34.472656 C 86.683594 34.199219 86.429688 34.199219 86.195312 34.199219 L 77.40625 34.199219 C 77.191406 34.199219 76.917969 34.199219 76.917969 34.472656 C 76.917969 34.746094 77.171875 34.746094 77.40625 34.746094 Z M 86.195312 37.519531 C 86.410156 37.519531 86.683594 37.519531 86.683594 37.265625 C 86.683594 36.972656 86.429688 36.972656 86.195312 36.972656 L 77.40625 36.972656 C 77.191406 36.972656 76.917969 36.972656 76.917969 37.246094 C 76.917969 37.519531 77.171875 37.519531 77.40625 37.519531 Z M 86.195312 37.519531 "/>
<path style=" stroke:none;fill-rule:nonzero;fill:rgb(0%,0%,0%);fill-opacity:1;" d="M 96.511719 26.875 L 97.546875 26.875 L 97.546875 1.035156 L 101.492188 1.035156 L 101.492188 0 L 96.511719 0 Z M 96.511719 26.875 "/>
<path style=" stroke:none;fill-rule:nonzero;fill:rgb(0%,0%,0%);fill-opacity:1;" d="M 96.511719 35.871094 L 97.546875 35.871094 L 97.546875 26.867188 L 96.511719 26.867188 Z M 96.511719 35.871094 "/>
<path style=" stroke:none;fill-rule:nonzero;fill:rgb(0%,0%,0%);fill-opacity:1;" d="M 96.511719 44.835938 L 97.546875 44.835938 L 97.546875 35.832031 L 96.511719 35.832031 Z M 96.511719 44.835938 "/>
<path style=" stroke:none;fill-rule:nonzero;fill:rgb(0%,0%,0%);fill-opacity:1;" d="M 96.511719 71.707031 L 101.492188 71.707031 L 101.492188 70.671875 L 97.546875 70.671875 L 97.546875 44.8125 L 96.511719 44.8125 Z M 96.511719 71.707031 "/>
<path style=" stroke:none;fill-rule:nonzero;fill:rgb(0%,0%,0%);fill-opacity:1;" d="M 129.34375 19.910156 C 129.34375 19.558594 129.34375 19.539062 129.050781 19.539062 C 128.699219 19.949219 127.9375 20.496094 126.414062 20.496094 L 126.414062 20.925781 C 126.746094 20.925781 127.488281 20.925781 128.328125 20.554688 L 128.328125 28.328125 C 128.328125 28.875 128.269531 29.050781 126.960938 29.050781 L 126.492188 29.050781 L 126.492188 29.480469 C 126.902344 29.441406 128.347656 29.441406 128.835938 29.441406 C 129.34375 29.441406 130.769531 29.441406 131.179688 29.480469 L 131.179688 29.050781 L 130.710938 29.050781 C 129.402344 29.050781 129.34375 28.875 129.34375 28.328125 Z M 129.34375 19.910156 "/>
<path style="fill:none;stroke-width:1;stroke-linecap:butt;stroke-linejoin:miter;stroke:rgb(0%,0%,0%);stroke-opacity:1;stroke-miterlimit:10;" d="M 0.015 -0.098506 L 41.015 -0.098506 " transform="matrix(1.25,0,0,-1.25,103.10625,35.85343)"/>
<path style=" stroke:none;fill-rule:nonzero;fill:rgb(0%,0%,0%);fill-opacity:1;" d="M 107.96875 53.472656 C 107.96875 53.433594 107.96875 53.394531 107.714844 53.140625 C 106.210938 51.636719 105.371094 49.175781 105.371094 46.128906 C 105.371094 43.21875 106.074219 40.71875 107.8125 38.960938 C 107.96875 38.824219 107.96875 38.804688 107.96875 38.746094 C 107.96875 38.667969 107.890625 38.628906 107.832031 38.628906 C 107.636719 38.628906 106.40625 39.703125 105.683594 41.167969 C 104.921875 42.691406 104.570312 44.273438 104.570312 46.128906 C 104.570312 47.457031 104.785156 49.234375 105.546875 50.816406 C 106.445312 52.613281 107.65625 53.589844 107.832031 53.589844 C 107.890625 53.589844 107.96875 53.550781 107.96875 53.472656 Z M 107.96875 53.472656 "/>
<path style=" stroke:none;fill-rule:nonzero;fill:rgb(0%,0%,0%);fill-opacity:1;" d="M 115.886719 43.746094 C 115.398438 43.824219 115.222656 44.195312 115.222656 44.46875 C 115.222656 44.839844 115.496094 44.957031 115.710938 44.957031 C 116.160156 44.957031 116.472656 44.566406 116.472656 44.15625 C 116.472656 43.53125 115.75 43.257812 115.125 43.257812 C 114.226562 43.257812 113.71875 44.15625 113.582031 44.429688 C 113.230469 43.316406 112.3125 43.257812 112.039062 43.257812 C 110.515625 43.257812 109.714844 45.210938 109.714844 45.542969 C 109.714844 45.601562 109.773438 45.679688 109.871094 45.679688 C 109.988281 45.679688 110.027344 45.582031 110.046875 45.523438 C 110.554688 43.863281 111.570312 43.550781 112 43.550781 C 112.664062 43.550781 112.800781 44.175781 112.800781 44.527344 C 112.800781 44.859375 112.703125 45.210938 112.527344 45.933594 L 112.019531 47.964844 C 111.804688 48.863281 111.375 49.683594 110.574219 49.683594 C 110.496094 49.683594 110.125 49.683594 109.8125 49.488281 C 110.359375 49.390625 110.476562 48.941406 110.476562 48.765625 C 110.476562 48.472656 110.242188 48.277344 109.96875 48.277344 C 109.597656 48.277344 109.207031 48.609375 109.207031 49.078125 C 109.207031 49.703125 109.910156 49.996094 110.554688 49.996094 C 111.277344 49.996094 111.785156 49.429688 112.097656 48.804688 C 112.332031 49.683594 113.09375 49.996094 113.640625 49.996094 C 115.164062 49.996094 115.964844 48.023438 115.964844 47.710938 C 115.964844 47.632812 115.90625 47.574219 115.828125 47.574219 C 115.691406 47.574219 115.671875 47.652344 115.632812 47.769531 C 115.222656 49.078125 114.363281 49.683594 113.679688 49.683594 C 113.152344 49.683594 112.878906 49.292969 112.878906 48.6875 C 112.878906 48.355469 112.9375 48.121094 113.171875 47.144531 L 113.699219 45.09375 C 113.914062 44.214844 114.421875 43.550781 115.125 43.550781 C 115.144531 43.550781 115.574219 43.550781 115.886719 43.746094 Z M 115.886719 43.746094 "/>
<path style=" stroke:none;fill-rule:nonzero;fill:rgb(0%,0%,0%);fill-opacity:1;" d="M 130.277344 46.402344 C 130.53125 46.402344 130.804688 46.402344 130.804688 46.109375 C 130.804688 45.796875 130.53125 45.796875 130.277344 45.796875 L 122.191406 45.796875 C 121.9375 45.796875 121.664062 45.796875 121.664062 46.109375 C 121.664062 46.402344 121.9375 46.402344 122.191406 46.402344 Z M 130.277344 46.402344 "/>
<path style=" stroke:none;fill-rule:nonzero;fill:rgb(0%,0%,0%);fill-opacity:1;" d="M 141.957031 47.320312 L 141.625 47.320312 C 141.566406 47.574219 141.449219 48.414062 141.3125 48.648438 C 141.195312 48.785156 140.355469 48.785156 139.90625 48.785156 L 137.132812 48.785156 C 137.542969 48.433594 138.460938 47.476562 138.832031 47.125 C 141.117188 45.035156 141.957031 44.253906 141.957031 42.769531 C 141.957031 41.050781 140.589844 39.898438 138.851562 39.898438 C 137.132812 39.898438 136.097656 41.382812 136.097656 42.671875 C 136.097656 43.433594 136.761719 43.433594 136.800781 43.433594 C 137.132812 43.433594 137.503906 43.199219 137.503906 42.730469 C 137.503906 42.300781 137.230469 42.027344 136.800781 42.027344 C 136.683594 42.027344 136.644531 42.027344 136.605469 42.046875 C 136.878906 41.03125 137.699219 40.328125 138.65625 40.328125 C 139.925781 40.328125 140.707031 41.402344 140.707031 42.769531 C 140.707031 44.039062 139.984375 45.152344 139.125 46.109375 L 136.097656 49.488281 L 136.097656 49.839844 L 141.566406 49.839844 Z M 141.957031 47.320312 "/>
<path style=" stroke:none;fill-rule:nonzero;fill:rgb(0%,0%,0%);fill-opacity:1;" d="M 146.910156 46.128906 C 146.910156 44.976562 146.753906 43.140625 145.914062 41.402344 C 145.035156 39.605469 143.804688 38.628906 143.648438 38.628906 C 143.589844 38.628906 143.511719 38.667969 143.511719 38.746094 C 143.511719 38.804688 143.511719 38.824219 143.765625 39.078125 C 145.269531 40.582031 146.089844 43.0625 146.089844 46.109375 C 146.089844 49 145.386719 51.5 143.667969 53.257812 C 143.511719 53.394531 143.511719 53.433594 143.511719 53.472656 C 143.511719 53.550781 143.589844 53.589844 143.648438 53.589844 C 143.84375 53.589844 145.074219 52.515625 145.796875 51.050781 C 146.558594 49.527344 146.910156 47.90625 146.910156 46.128906 Z M 146.910156 46.128906 "/>
<path style=" stroke:none;fill-rule:nonzero;fill:rgb(0%,0%,0%);fill-opacity:1;" d="M 151.195312 43.492188 C 151.351562 43.335938 151.761719 43.003906 151.9375 42.867188 C 152.542969 42.300781 153.128906 41.753906 153.128906 40.855469 C 153.128906 39.664062 152.132812 38.902344 150.902344 38.902344 C 149.691406 38.902344 148.910156 39.800781 148.910156 40.699219 C 148.910156 41.1875 149.300781 41.246094 149.4375 41.246094 C 149.652344 41.246094 149.964844 41.109375 149.964844 40.71875 C 149.964844 40.210938 149.457031 40.210938 149.339844 40.210938 C 149.632812 39.46875 150.296875 39.234375 150.785156 39.234375 C 151.703125 39.234375 152.191406 40.015625 152.191406 40.855469 C 152.191406 41.890625 151.46875 42.652344 150.277344 43.84375 L 149.027344 45.152344 C 148.910156 45.25 148.910156 45.269531 148.910156 45.523438 L 152.835938 45.523438 L 153.128906 43.746094 L 152.816406 43.746094 C 152.796875 43.941406 152.71875 44.429688 152.601562 44.625 C 152.542969 44.703125 151.78125 44.703125 151.625 44.703125 L 149.847656 44.703125 Z M 151.195312 43.492188 "/>
<path style=" stroke:none;fill-rule:nonzero;fill:rgb(0%,0%,0%);fill-opacity:1;" d="M 108.488281 57.738281 C 108.488281 57.386719 108.488281 57.308594 108.273438 57.308594 C 107.375 57.289062 105.890625 57.171875 104.542969 56.527344 C 102.921875 55.707031 102.316406 54.769531 101.945312 54.183594 C 101.90625 54.105469 101.808594 54.105469 101.613281 54.105469 C 101.261719 54.105469 101.261719 54.125 101.261719 54.496094 L 101.261719 54.75 C 103.292969 58.402344 106.652344 59.105469 108.175781 59.105469 C 108.488281 59.105469 108.488281 59.085938 108.488281 58.695312 Z M 108.488281 57.738281 "/>
<path style=" stroke:none;fill-rule:nonzero;fill:rgb(0%,0%,0%);fill-opacity:1;" d="M 108.339844 59.109375 L 121.976562 59.109375 L 121.976562 57.3125 L 108.339844 57.3125 Z M 108.339844 59.109375 "/>
<path style=" stroke:none;fill-rule:nonzero;fill:rgb(0%,0%,0%);fill-opacity:1;" d="M 129.066406 61.683594 C 127.035156 58.011719 123.65625 57.308594 122.132812 57.308594 C 121.820312 57.308594 121.820312 57.328125 121.820312 57.738281 L 121.820312 58.695312 C 121.820312 59.027344 121.820312 59.105469 122.035156 59.105469 C 122.953125 59.125 124.417969 59.242188 125.765625 59.90625 C 127.386719 60.707031 127.992188 61.644531 128.363281 62.230469 C 128.421875 62.308594 128.5 62.308594 128.695312 62.308594 C 129.046875 62.308594 129.066406 62.289062 129.066406 61.917969 Z M 129.066406 61.683594 "/>
<path style=" stroke:none;fill-rule:nonzero;fill:rgb(0%,0%,0%);fill-opacity:1;" d="M 135.578125 57.738281 C 135.578125 57.328125 135.578125 57.308594 135.265625 57.308594 C 133.742188 57.308594 130.382812 58.03125 128.351562 61.683594 L 128.351562 61.917969 C 128.351562 62.289062 128.351562 62.308594 128.703125 62.308594 C 128.996094 62.308594 128.996094 62.289062 129.074219 62.191406 C 130.304688 60.21875 132.355469 59.164062 135.402344 59.105469 C 135.578125 59.105469 135.578125 59.007812 135.578125 58.695312 Z M 135.578125 57.738281 "/>
<path style=" stroke:none;fill-rule:nonzero;fill:rgb(0%,0%,0%);fill-opacity:1;" d="M 135.429688 59.109375 L 149.066406 59.109375 L 149.066406 57.3125 L 135.429688 57.3125 Z M 135.429688 59.109375 "/>
<path style=" stroke:none;fill-rule:nonzero;fill:rgb(0%,0%,0%);fill-opacity:1;" d="M 156.160156 54.496094 C 156.160156 54.125 156.140625 54.105469 155.789062 54.105469 C 155.515625 54.105469 155.496094 54.125 155.417969 54.242188 C 154.1875 56.195312 152.136719 57.25 149.109375 57.308594 C 148.914062 57.308594 148.914062 57.425781 148.914062 57.738281 L 148.914062 58.695312 C 148.914062 59.085938 148.914062 59.105469 149.226562 59.105469 C 150.75 59.105469 154.128906 58.382812 156.160156 54.75 Z M 156.160156 54.496094 "/>
<path style=" stroke:none;fill-rule:nonzero;fill:rgb(0%,0%,0%);fill-opacity:1;" d="M 126.574219 70.949219 C 126.125 71.691406 125.714844 71.789062 125.363281 71.808594 C 125.265625 71.828125 125.128906 71.828125 125.128906 72.003906 C 125.128906 72.023438 125.148438 72.140625 125.285156 72.140625 C 125.363281 72.140625 125.421875 72.101562 126.125 72.101562 C 126.808594 72.101562 127.023438 72.140625 127.082031 72.140625 C 127.121094 72.140625 127.277344 72.140625 127.277344 71.945312 C 127.277344 71.828125 127.140625 71.808594 127.101562 71.808594 C 126.886719 71.808594 126.671875 71.730469 126.671875 71.496094 C 126.671875 71.359375 126.769531 71.222656 126.945312 70.929688 L 127.628906 69.835938 L 130.363281 69.835938 L 130.558594 71.515625 C 130.558594 71.671875 130.382812 71.808594 129.914062 71.808594 C 129.777344 71.808594 129.640625 71.808594 129.640625 72.003906 C 129.640625 72.003906 129.640625 72.140625 129.816406 72.140625 C 129.914062 72.140625 130.285156 72.121094 130.382812 72.101562 L 131.007812 72.101562 C 131.90625 72.101562 132.0625 72.140625 132.140625 72.140625 C 132.179688 72.140625 132.355469 72.140625 132.355469 71.945312 C 132.355469 71.808594 132.21875 71.808594 132.0625 71.808594 C 131.515625 71.808594 131.496094 71.730469 131.476562 71.476562 L 130.675781 65.324219 C 130.65625 65.089844 130.636719 65.03125 130.480469 65.03125 C 130.304688 65.03125 130.246094 65.128906 130.167969 65.226562 Z M 127.84375 69.503906 L 129.894531 66.242188 L 130.324219 69.503906 Z M 127.84375 69.503906 "/>
<path style=" stroke:none;fill-rule:nonzero;fill:rgb(0%,0%,0%);fill-opacity:1;" d="M 164.242188 36.132812 L 168.363281 36.132812 C 168.578125 36.132812 168.851562 36.132812 168.851562 35.878906 C 168.851562 35.585938 168.597656 35.585938 168.363281 35.585938 L 164.242188 35.585938 L 164.242188 31.464844 C 164.242188 31.25 164.242188 30.976562 163.96875 30.976562 C 163.695312 30.976562 163.695312 31.230469 163.695312 31.464844 L 163.695312 35.585938 L 159.574219 35.585938 C 159.359375 35.585938 159.085938 35.585938 159.085938 35.859375 C 159.085938 36.132812 159.339844 36.132812 159.574219 36.132812 L 163.695312 36.132812 L 163.695312 40.253906 C 163.695312 40.46875 163.695312 40.742188 163.96875 40.742188 C 164.242188 40.742188 164.242188 40.488281 164.242188 40.253906 Z M 164.242188 36.132812 "/>
<path style=" stroke:none;fill-rule:nonzero;fill:rgb(0%,0%,0%);fill-opacity:1;" d="M 199.621094 26.042969 C 199.875 26.042969 200.148438 26.042969 200.148438 25.75 C 200.148438 25.4375 199.875 25.4375 199.621094 25.4375 L 191.535156 25.4375 C 191.28125 25.4375 191.007812 25.4375 191.007812 25.75 C 191.007812 26.042969 191.28125 26.042969 191.535156 26.042969 Z M 199.621094 26.042969 "/>
<path style=" stroke:none;fill-rule:nonzero;fill:rgb(0%,0%,0%);fill-opacity:1;" d="M 207.980469 26.960938 L 207.648438 26.960938 C 207.589844 27.214844 207.472656 28.054688 207.335938 28.289062 C 207.21875 28.425781 206.378906 28.425781 205.929688 28.425781 L 203.15625 28.425781 C 203.566406 28.074219 204.484375 27.117188 204.855469 26.765625 C 207.140625 24.675781 207.980469 23.894531 207.980469 22.410156 C 207.980469 20.691406 206.613281 19.539062 204.875 19.539062 C 203.15625 19.539062 202.121094 21.023438 202.121094 22.3125 C 202.121094 23.074219 202.785156 23.074219 202.824219 23.074219 C 203.15625 23.074219 203.527344 22.839844 203.527344 22.371094 C 203.527344 21.941406 203.253906 21.667969 202.824219 21.667969 C 202.707031 21.667969 202.667969 21.667969 202.628906 21.6875 C 202.902344 20.671875 203.722656 19.96875 204.679688 19.96875 C 205.949219 19.96875 206.730469 21.042969 206.730469 22.410156 C 206.730469 23.679688 206.007812 24.792969 205.148438 25.75 L 202.121094 29.128906 L 202.121094 29.480469 L 207.589844 29.480469 Z M 207.980469 26.960938 "/>
<path style="fill:none;stroke-width:1;stroke-linecap:butt;stroke-linejoin:miter;stroke:rgb(0%,0%,0%);stroke-opacity:1;stroke-miterlimit:10;" d="M -0.42 -0.098506 L 40.58 -0.098506 " transform="matrix(1.25,0,0,-1.25,173.65,35.85343)"/>
<path style=" stroke:none;fill-rule:nonzero;fill:rgb(0%,0%,0%);fill-opacity:1;" d="M 178.511719 53.472656 C 178.511719 53.433594 178.511719 53.394531 178.257812 53.140625 C 176.753906 51.636719 175.914062 49.175781 175.914062 46.128906 C 175.914062 43.21875 176.617188 40.71875 178.355469 38.960938 C 178.511719 38.824219 178.511719 38.804688 178.511719 38.746094 C 178.511719 38.667969 178.433594 38.628906 178.375 38.628906 C 178.179688 38.628906 176.949219 39.703125 176.226562 41.167969 C 175.464844 42.691406 175.113281 44.273438 175.113281 46.128906 C 175.113281 47.457031 175.328125 49.234375 176.089844 50.816406 C 176.988281 52.613281 178.199219 53.589844 178.375 53.589844 C 178.433594 53.589844 178.511719 53.550781 178.511719 53.472656 Z M 178.511719 53.472656 "/>
<path style=" stroke:none;fill-rule:nonzero;fill:rgb(0%,0%,0%);fill-opacity:1;" d="M 186.429688 43.746094 C 185.941406 43.824219 185.765625 44.195312 185.765625 44.46875 C 185.765625 44.839844 186.039062 44.957031 186.253906 44.957031 C 186.703125 44.957031 187.015625 44.566406 187.015625 44.15625 C 187.015625 43.53125 186.292969 43.257812 185.667969 43.257812 C 184.769531 43.257812 184.261719 44.15625 184.125 44.429688 C 183.773438 43.316406 182.855469 43.257812 182.582031 43.257812 C 181.058594 43.257812 180.257812 45.210938 180.257812 45.542969 C 180.257812 45.601562 180.316406 45.679688 180.414062 45.679688 C 180.53125 45.679688 180.570312 45.582031 180.589844 45.523438 C 181.097656 43.863281 182.113281 43.550781 182.542969 43.550781 C 183.207031 43.550781 183.34375 44.175781 183.34375 44.527344 C 183.34375 44.859375 183.246094 45.210938 183.070312 45.933594 L 182.5625 47.964844 C 182.347656 48.863281 181.917969 49.683594 181.117188 49.683594 C 181.039062 49.683594 180.667969 49.683594 180.355469 49.488281 C 180.902344 49.390625 181.019531 48.941406 181.019531 48.765625 C 181.019531 48.472656 180.785156 48.277344 180.511719 48.277344 C 180.140625 48.277344 179.75 48.609375 179.75 49.078125 C 179.75 49.703125 180.453125 49.996094 181.097656 49.996094 C 181.820312 49.996094 182.328125 49.429688 182.640625 48.804688 C 182.875 49.683594 183.636719 49.996094 184.183594 49.996094 C 185.707031 49.996094 186.507812 48.023438 186.507812 47.710938 C 186.507812 47.632812 186.449219 47.574219 186.371094 47.574219 C 186.234375 47.574219 186.214844 47.652344 186.175781 47.769531 C 185.765625 49.078125 184.90625 49.683594 184.222656 49.683594 C 183.695312 49.683594 183.421875 49.292969 183.421875 48.6875 C 183.421875 48.355469 183.480469 48.121094 183.714844 47.144531 L 184.242188 45.09375 C 184.457031 44.214844 184.964844 43.550781 185.667969 43.550781 C 185.6875 43.550781 186.117188 43.550781 186.429688 43.746094 Z M 186.429688 43.746094 "/>
<path style=" stroke:none;fill-rule:nonzero;fill:rgb(0%,0%,0%);fill-opacity:1;" d="M 200.820312 46.402344 C 201.074219 46.402344 201.347656 46.402344 201.347656 46.109375 C 201.347656 45.796875 201.074219 45.796875 200.820312 45.796875 L 192.734375 45.796875 C 192.480469 45.796875 192.207031 45.796875 192.207031 46.109375 C 192.207031 46.402344 192.480469 46.402344 192.734375 46.402344 Z M 200.820312 46.402344 "/>
<path style=" stroke:none;fill-rule:nonzero;fill:rgb(0%,0%,0%);fill-opacity:1;" d="M 212.503906 47.320312 L 212.171875 47.320312 C 212.113281 47.574219 211.996094 48.414062 211.859375 48.648438 C 211.742188 48.785156 210.902344 48.785156 210.453125 48.785156 L 207.679688 48.785156 C 208.089844 48.433594 209.007812 47.476562 209.378906 47.125 C 211.664062 45.035156 212.503906 44.253906 212.503906 42.769531 C 212.503906 41.050781 211.136719 39.898438 209.398438 39.898438 C 207.679688 39.898438 206.644531 41.382812 206.644531 42.671875 C 206.644531 43.433594 207.308594 43.433594 207.347656 43.433594 C 207.679688 43.433594 208.050781 43.199219 208.050781 42.730469 C 208.050781 42.300781 207.777344 42.027344 207.347656 42.027344 C 207.230469 42.027344 207.191406 42.027344 207.152344 42.046875 C 207.425781 41.03125 208.246094 40.328125 209.203125 40.328125 C 210.472656 40.328125 211.253906 41.402344 211.253906 42.769531 C 211.253906 44.039062 210.53125 45.152344 209.671875 46.109375 L 206.644531 49.488281 L 206.644531 49.839844 L 212.113281 49.839844 Z M 212.503906 47.320312 "/>
<path style=" stroke:none;fill-rule:nonzero;fill:rgb(0%,0%,0%);fill-opacity:1;" d="M 217.457031 46.128906 C 217.457031 44.976562 217.300781 43.140625 216.460938 41.402344 C 215.582031 39.605469 214.351562 38.628906 214.195312 38.628906 C 214.136719 38.628906 214.058594 38.667969 214.058594 38.746094 C 214.058594 38.804688 214.058594 38.824219 214.3125 39.078125 C 215.816406 40.582031 216.636719 43.0625 216.636719 46.109375 C 216.636719 49 215.933594 51.5 214.214844 53.257812 C 214.058594 53.394531 214.058594 53.433594 214.058594 53.472656 C 214.058594 53.550781 214.136719 53.589844 214.195312 53.589844 C 214.390625 53.589844 215.621094 52.515625 216.34375 51.050781 C 217.105469 49.527344 217.457031 47.90625 217.457031 46.128906 Z M 217.457031 46.128906 "/>
<path style=" stroke:none;fill-rule:nonzero;fill:rgb(0%,0%,0%);fill-opacity:1;" d="M 221.445312 42.203125 C 222.226562 42.203125 222.734375 42.769531 222.734375 43.824219 C 222.734375 45.074219 222.03125 45.425781 221.503906 45.425781 C 220.957031 45.425781 220.195312 45.230469 219.84375 44.703125 C 220.214844 44.703125 220.46875 44.46875 220.46875 44.15625 C 220.46875 43.824219 220.234375 43.609375 219.902344 43.609375 C 219.648438 43.609375 219.355469 43.765625 219.355469 44.175781 C 219.355469 45.113281 220.371094 45.738281 221.523438 45.738281 C 222.832031 45.738281 223.769531 44.820312 223.769531 43.824219 C 223.769531 42.984375 223.105469 42.242188 222.089844 42.007812 C 222.871094 41.734375 223.476562 41.070312 223.476562 40.269531 C 223.476562 39.46875 222.578125 38.902344 221.542969 38.902344 C 220.46875 38.902344 219.667969 39.46875 219.667969 40.230469 C 219.667969 40.601562 219.902344 40.757812 220.175781 40.757812 C 220.488281 40.757812 220.683594 40.542969 220.683594 40.25 C 220.683594 39.878906 220.351562 39.742188 220.136719 39.742188 C 220.566406 39.195312 221.328125 39.15625 221.503906 39.15625 C 221.757812 39.15625 222.519531 39.234375 222.519531 40.269531 C 222.519531 40.953125 222.226562 41.382812 222.089844 41.539062 C 221.796875 41.851562 221.5625 41.871094 220.957031 41.910156 C 220.761719 41.910156 220.683594 41.929688 220.683594 42.066406 C 220.683594 42.203125 220.78125 42.203125 220.957031 42.203125 Z M 221.445312 42.203125 "/>
<path style=" stroke:none;fill-rule:nonzero;fill:rgb(0%,0%,0%);fill-opacity:1;" d="M 179.03125 57.738281 C 179.03125 57.386719 179.03125 57.308594 178.816406 57.308594 C 177.917969 57.289062 176.433594 57.171875 175.085938 56.527344 C 173.464844 55.707031 172.859375 54.769531 172.488281 54.183594 C 172.449219 54.105469 172.351562 54.105469 172.15625 54.105469 C 171.804688 54.105469 171.804688 54.125 171.804688 54.496094 L 171.804688 54.75 C 173.835938 58.402344 177.195312 59.105469 178.71875 59.105469 C 179.03125 59.105469 179.03125 59.085938 179.03125 58.695312 Z M 179.03125 57.738281 "/>
<path style=" stroke:none;fill-rule:nonzero;fill:rgb(0%,0%,0%);fill-opacity:1;" d="M 178.882812 59.109375 L 192.519531 59.109375 L 192.519531 57.3125 L 178.882812 57.3125 Z M 178.882812 59.109375 "/>
<path style=" stroke:none;fill-rule:nonzero;fill:rgb(0%,0%,0%);fill-opacity:1;" d="M 199.609375 61.683594 C 197.578125 58.011719 194.199219 57.308594 192.675781 57.308594 C 192.363281 57.308594 192.363281 57.328125 192.363281 57.738281 L 192.363281 58.695312 C 192.363281 59.027344 192.363281 59.105469 192.578125 59.105469 C 193.496094 59.125 194.960938 59.242188 196.308594 59.90625 C 197.929688 60.707031 198.535156 61.644531 198.90625 62.230469 C 198.964844 62.308594 199.042969 62.308594 199.238281 62.308594 C 199.589844 62.308594 199.609375 62.289062 199.609375 61.917969 Z M 199.609375 61.683594 "/>
<path style=" stroke:none;fill-rule:nonzero;fill:rgb(0%,0%,0%);fill-opacity:1;" d="M 206.121094 57.738281 C 206.121094 57.328125 206.121094 57.308594 205.808594 57.308594 C 204.285156 57.308594 200.925781 58.03125 198.894531 61.683594 L 198.894531 61.917969 C 198.894531 62.289062 198.894531 62.308594 199.246094 62.308594 C 199.539062 62.308594 199.539062 62.289062 199.617188 62.191406 C 200.847656 60.21875 202.898438 59.164062 205.945312 59.105469 C 206.121094 59.105469 206.121094 59.007812 206.121094 58.695312 Z M 206.121094 57.738281 "/>
<path style=" stroke:none;fill-rule:nonzero;fill:rgb(0%,0%,0%);fill-opacity:1;" d="M 205.972656 59.109375 L 219.613281 59.109375 L 219.613281 57.3125 L 205.972656 57.3125 Z M 205.972656 59.109375 "/>
<path style=" stroke:none;fill-rule:nonzero;fill:rgb(0%,0%,0%);fill-opacity:1;" d="M 226.699219 54.496094 C 226.699219 54.125 226.679688 54.105469 226.328125 54.105469 C 226.054688 54.105469 226.035156 54.125 225.957031 54.242188 C 224.726562 56.195312 222.675781 57.25 219.648438 57.308594 C 219.453125 57.308594 219.453125 57.425781 219.453125 57.738281 L 219.453125 58.695312 C 219.453125 59.085938 219.453125 59.105469 219.765625 59.105469 C 221.289062 59.105469 224.667969 58.382812 226.699219 54.75 Z M 226.699219 54.496094 "/>
<path style=" stroke:none;fill-rule:nonzero;fill:rgb(0%,0%,0%);fill-opacity:1;" d="M 196.6875 71.359375 C 196.609375 71.730469 196.589844 71.808594 195.847656 71.808594 C 195.652344 71.808594 195.535156 71.808594 195.535156 72.003906 C 195.535156 72.140625 195.671875 72.140625 195.828125 72.140625 L 199.539062 72.140625 C 201.179688 72.140625 202.390625 70.96875 202.390625 70.011719 C 202.390625 69.289062 201.765625 68.703125 200.769531 68.585938 C 201.921875 68.371094 202.917969 67.609375 202.917969 66.730469 C 202.917969 65.988281 202.195312 65.34375 200.945312 65.34375 L 197.46875 65.34375 C 197.292969 65.34375 197.15625 65.34375 197.15625 65.519531 C 197.15625 65.675781 197.273438 65.675781 197.449219 65.675781 C 197.78125 65.675781 198.074219 65.675781 198.074219 65.832031 C 198.074219 65.871094 198.054688 65.871094 198.035156 66.007812 Z M 198.25 68.46875 L 198.855469 66.027344 C 198.933594 65.695312 198.953125 65.675781 199.363281 65.675781 L 200.789062 65.675781 C 201.765625 65.675781 202 66.300781 202 66.710938 C 202 67.550781 201.082031 68.46875 199.8125 68.46875 Z M 197.566406 71.808594 C 197.46875 71.789062 197.429688 71.789062 197.429688 71.730469 C 197.429688 71.652344 197.449219 71.554688 197.46875 71.496094 L 198.171875 68.742188 L 200.203125 68.742188 C 201.121094 68.742188 201.433594 69.367188 201.433594 69.933594 C 201.433594 70.910156 200.476562 71.808594 199.285156 71.808594 Z M 197.566406 71.808594 "/>
<path style=" stroke:none;fill-rule:nonzero;fill:rgb(0%,0%,0%);fill-opacity:1;" d="M 230.378906 26.875 L 231.414062 26.875 L 231.414062 0 L 226.433594 0 L 226.433594 1.035156 L 230.378906 1.035156 Z M 230.378906 26.875 "/>
<path style=" stroke:none;fill-rule:nonzero;fill:rgb(0%,0%,0%);fill-opacity:1;" d="M 230.378906 35.871094 L 231.414062 35.871094 L 231.414062 26.867188 L 230.378906 26.867188 Z M 230.378906 35.871094 "/>
<path style=" stroke:none;fill-rule:nonzero;fill:rgb(0%,0%,0%);fill-opacity:1;" d="M 230.378906 44.835938 L 231.414062 44.835938 L 231.414062 35.832031 L 230.378906 35.832031 Z M 230.378906 44.835938 "/>
<path style=" stroke:none;fill-rule:nonzero;fill:rgb(0%,0%,0%);fill-opacity:1;" d="M 230.378906 70.671875 L 226.433594 70.671875 L 226.433594 71.707031 L 231.414062 71.707031 L 231.414062 44.8125 L 230.378906 44.8125 Z M 230.378906 70.671875 "/>
<path style=" stroke:none;fill-rule:nonzero;fill:rgb(0%,0%,0%);fill-opacity:1;" d="M 242.492188 35.859375 C 242.492188 35.429688 242.140625 35.058594 241.691406 35.058594 C 241.261719 35.058594 240.910156 35.429688 240.910156 35.859375 C 240.910156 36.289062 241.261719 36.640625 241.691406 36.640625 C 242.140625 36.640625 242.492188 36.289062 242.492188 35.859375 Z M 242.492188 35.859375 "/>
<path style=" stroke:none;fill-rule:nonzero;fill:rgb(0%,0%,0%);fill-opacity:1;" d="M 249.765625 36.132812 C 250.175781 36.132812 251.191406 36.09375 251.894531 35.820312 C 253.027344 35.390625 253.144531 34.53125 253.144531 34.257812 C 253.144531 33.59375 252.578125 33.007812 251.582031 33.007812 C 250.019531 33.007812 247.753906 34.414062 247.753906 37.070312 C 247.753906 38.652344 248.652344 39.746094 250.019531 39.746094 C 252.050781 39.746094 253.339844 38.164062 253.339844 37.96875 C 253.339844 37.871094 253.242188 37.792969 253.183594 37.792969 C 253.144531 37.792969 253.125 37.8125 252.988281 37.949219 C 252.03125 39.21875 250.625 39.433594 250.039062 39.433594 C 249.199219 39.433594 248.75 38.769531 248.75 37.65625 C 248.75 37.460938 248.75 37.070312 248.964844 36.132812 Z M 249.042969 35.820312 C 249.6875 33.515625 251.113281 33.300781 251.582031 33.300781 C 252.246094 33.300781 252.695312 33.691406 252.695312 34.257812 C 252.695312 35.820312 250.292969 35.820312 249.667969 35.820312 Z M 249.042969 35.820312 "/>
<path style=" stroke:none;fill-rule:nonzero;fill:rgb(0%,0%,0%);fill-opacity:1;" d="M 258.875 29.453125 C 258.425781 29.550781 258.40625 29.941406 258.40625 29.980469 C 258.40625 30.195312 258.582031 30.351562 258.796875 30.351562 C 259.011719 30.351562 259.34375 30.175781 259.34375 29.746094 C 259.34375 29.179688 258.71875 29.023438 258.347656 29.023438 C 257.898438 29.023438 257.507812 29.355469 257.273438 29.746094 C 257.058594 29.21875 256.550781 29.023438 256.140625 29.023438 C 255.046875 29.023438 254.441406 30.273438 254.441406 30.546875 C 254.441406 30.644531 254.519531 30.683594 254.597656 30.683594 C 254.714844 30.683594 254.734375 30.625 254.753906 30.507812 C 254.988281 29.785156 255.59375 29.296875 256.101562 29.296875 C 256.492188 29.296875 256.6875 29.589844 256.6875 29.941406 C 256.6875 30.136719 256.570312 30.605469 256.492188 30.917969 C 256.414062 31.210938 256.199219 32.089844 256.140625 32.285156 C 256.003906 32.8125 255.652344 33.242188 255.203125 33.242188 C 255.164062 33.242188 254.910156 33.242188 254.695312 33.105469 C 255.144531 32.988281 255.144531 32.578125 255.144531 32.558594 C 255.144531 32.324219 254.96875 32.1875 254.753906 32.1875 C 254.480469 32.1875 254.1875 32.421875 254.1875 32.792969 C 254.1875 33.261719 254.675781 33.515625 255.183594 33.515625 C 255.710938 33.515625 256.082031 33.125 256.257812 32.792969 C 256.492188 33.28125 256.941406 33.515625 257.429688 33.515625 C 258.503906 33.515625 259.109375 32.265625 259.109375 31.992188 C 259.109375 31.894531 259.03125 31.855469 258.953125 31.855469 C 258.835938 31.855469 258.816406 31.933594 258.777344 32.03125 C 258.582031 32.695312 258.015625 33.242188 257.449219 33.242188 C 257.117188 33.242188 256.882812 33.027344 256.882812 32.597656 C 256.882812 32.402344 256.941406 32.167969 257.078125 31.621094 C 257.136719 31.308594 257.351562 30.449219 257.410156 30.253906 C 257.546875 29.726562 257.898438 29.296875 258.347656 29.296875 C 258.40625 29.296875 258.660156 29.296875 258.875 29.453125 Z M 258.875 29.453125 "/>
</g>
</svg>
