<?xml version="1.0" encoding="UTF-8"?>
<svg xmlns="http://www.w3.org/2000/svg" xmlns:xlink="http://www.w3.org/1999/xlink" width="254.50546pt" height="121.3175pt" viewBox="0 0 254.50546 121.3175" version="1.1">
<g id="surface1">
<path style=" stroke:none;fill-rule:nonzero;fill:rgb(0%,0%,0%);fill-opacity:1;" d="M 5.078125 0 L 3.75 0 L 0 10.371094 L 1.09375 10.371094 L 2.1875 7.34375 L 6.40625 7.34375 L 7.5 10.371094 L 8.847656 10.371094 Z M 4.296875 1.074219 L 6.09375 6.503906 L 2.519531 6.503906 Z M 4.296875 1.074219 "/>
<path style=" stroke:none;fill-rule:nonzero;fill:rgb(0%,0%,0%);fill-opacity:1;" d="M 16.394531 0 L 15.300781 0 L 15.300781 10.371094 L 16.394531 10.371094 Z M 16.394531 0 "/>
<path style=" stroke:none;fill-rule:nonzero;fill:rgb(0%,0%,0%);fill-opacity:1;" d="M 19.933594 0.234375 L 18.644531 0.234375 L 18.644531 1.503906 L 19.933594 1.503906 Z M 19.835938 3.730469 L 18.742188 3.730469 L 18.742188 10.371094 L 19.835938 10.371094 Z M 19.835938 3.730469 "/>
<path style=" stroke:none;fill-rule:nonzero;fill:rgb(0%,0%,0%);fill-opacity:1;" d="M 23.570312 4.609375 L 25.621094 4.609375 L 25.621094 3.730469 L 23.570312 3.730469 L 23.570312 1.835938 L 22.535156 1.835938 L 22.535156 3.730469 L 21.285156 3.730469 L 21.285156 4.609375 L 22.496094 4.609375 L 22.496094 8.613281 C 22.496094 9.492188 22.691406 10.527344 23.726562 10.527344 C 24.722656 10.527344 25.425781 10.175781 25.875 9.941406 L 25.660156 9.0625 C 25.132812 9.53125 24.585938 9.589844 24.3125 9.589844 C 23.648438 9.589844 23.570312 8.886719 23.570312 8.359375 Z M 23.570312 4.609375 "/>
<path style=" stroke:none;fill-rule:nonzero;fill:rgb(0%,0%,0%);fill-opacity:1;" d="M 28.855469 4.609375 L 30.90625 4.609375 L 30.90625 3.730469 L 28.855469 3.730469 L 28.855469 1.835938 L 27.820312 1.835938 L 27.820312 3.730469 L 26.570312 3.730469 L 26.570312 4.609375 L 27.78125 4.609375 L 27.78125 8.613281 C 27.78125 9.492188 27.976562 10.527344 29.011719 10.527344 C 30.007812 10.527344 30.710938 10.175781 31.160156 9.941406 L 30.945312 9.0625 C 30.417969 9.53125 29.871094 9.589844 29.597656 9.589844 C 28.933594 9.589844 28.855469 8.886719 28.855469 8.359375 Z M 28.855469 4.609375 "/>
<path style=" stroke:none;fill-rule:nonzero;fill:rgb(0%,0%,0%);fill-opacity:1;" d="M 33.847656 0 L 32.753906 0 L 32.753906 10.371094 L 33.847656 10.371094 Z M 33.847656 0 "/>
<path style=" stroke:none;fill-rule:nonzero;fill:rgb(0%,0%,0%);fill-opacity:1;" d="M 41.097656 7.011719 C 41.097656 6.367188 41.039062 5.449219 40.570312 4.667969 C 39.945312 3.632812 38.910156 3.515625 38.480469 3.515625 C 36.859375 3.515625 35.511719 5.058594 35.511719 7.011719 C 35.511719 8.984375 36.957031 10.527344 38.675781 10.527344 C 39.378906 10.527344 40.199219 10.332031 41.019531 9.726562 C 41.019531 9.667969 40.960938 9.199219 40.960938 9.179688 C 40.960938 9.160156 40.921875 8.828125 40.921875 8.769531 C 40.042969 9.511719 39.164062 9.628906 38.714844 9.628906 C 37.5625 9.628906 36.585938 8.59375 36.546875 7.011719 Z M 36.644531 6.210938 C 36.898438 5.195312 37.601562 4.414062 38.480469 4.414062 C 38.929688 4.414062 39.964844 4.609375 40.21875 6.210938 Z M 36.644531 6.210938 "/>
<path style=" stroke:none;fill-rule:nonzero;fill:rgb(0%,0%,0%);fill-opacity:1;" d="M 52.410156 8.75 C 51.726562 9.316406 50.964844 9.589844 50.125 9.589844 C 48.875 9.589844 48.074219 8.496094 48.074219 7.03125 C 48.074219 5.800781 48.679688 4.433594 50.164062 4.433594 C 51.160156 4.433594 51.589844 4.6875 52.234375 5.117188 L 52.410156 4.140625 C 51.53125 3.632812 51.042969 3.515625 50.164062 3.515625 C 48.09375 3.515625 46.941406 5.332031 46.941406 7.03125 C 46.941406 8.945312 48.308594 10.527344 50.105469 10.527344 C 50.828125 10.527344 51.667969 10.332031 52.488281 9.746094 C 52.488281 9.707031 52.449219 9.238281 52.429688 9.179688 Z M 52.410156 8.75 "/>
<path style=" stroke:none;fill-rule:nonzero;fill:rgb(0%,0%,0%);fill-opacity:1;" d="M 55.183594 7.089844 C 55.183594 5.585938 56.316406 4.609375 57.664062 4.589844 L 57.664062 3.59375 C 56.316406 3.59375 55.515625 4.394531 55.105469 4.980469 L 55.105469 3.671875 L 54.089844 3.671875 L 54.089844 10.371094 L 55.183594 10.371094 Z M 55.183594 7.089844 "/>
<path style=" stroke:none;fill-rule:nonzero;fill:rgb(0%,0%,0%);fill-opacity:1;" d="M 63.964844 7.011719 C 63.964844 6.367188 63.90625 5.449219 63.4375 4.667969 C 62.8125 3.632812 61.777344 3.515625 61.347656 3.515625 C 59.726562 3.515625 58.378906 5.058594 58.378906 7.011719 C 58.378906 8.984375 59.824219 10.527344 61.542969 10.527344 C 62.246094 10.527344 63.066406 10.332031 63.886719 9.726562 C 63.886719 9.667969 63.828125 9.199219 63.828125 9.179688 C 63.828125 9.160156 63.789062 8.828125 63.789062 8.769531 C 62.910156 9.511719 62.03125 9.628906 61.582031 9.628906 C 60.429688 9.628906 59.453125 8.59375 59.414062 7.011719 Z M 59.511719 6.210938 C 59.765625 5.195312 60.46875 4.414062 61.347656 4.414062 C 61.796875 4.414062 62.832031 4.609375 63.085938 6.210938 Z M 59.511719 6.210938 "/>
<path style=" stroke:none;fill-rule:nonzero;fill:rgb(0%,0%,0%);fill-opacity:1;" d="M 70.234375 5.996094 C 70.234375 4.550781 69.199219 3.515625 67.8125 3.515625 C 66.914062 3.515625 66.25 3.730469 65.507812 4.140625 L 65.605469 5.117188 C 66.269531 4.648438 66.953125 4.375 67.8125 4.375 C 68.496094 4.375 69.101562 4.941406 69.101562 6.015625 L 69.101562 6.640625 C 68.4375 6.660156 67.539062 6.71875 66.640625 7.011719 C 65.625 7.34375 65.058594 7.910156 65.058594 8.652344 C 65.058594 9.316406 65.449219 10.527344 66.71875 10.527344 C 67.539062 10.527344 68.574219 10.273438 69.140625 9.824219 L 69.140625 10.371094 L 70.234375 10.371094 Z M 69.101562 8.359375 C 69.101562 8.671875 69.101562 9.023438 68.613281 9.316406 C 68.203125 9.570312 67.695312 9.628906 67.480469 9.628906 C 66.660156 9.628906 66.113281 9.199219 66.113281 8.632812 C 66.113281 7.617188 68.183594 7.402344 69.101562 7.402344 Z M 69.101562 8.359375 "/>
<path style=" stroke:none;fill-rule:nonzero;fill:rgb(0%,0%,0%);fill-opacity:1;" d="M 73.957031 4.609375 L 76.007812 4.609375 L 76.007812 3.730469 L 73.957031 3.730469 L 73.957031 1.835938 L 72.921875 1.835938 L 72.921875 3.730469 L 71.671875 3.730469 L 71.671875 4.609375 L 72.882812 4.609375 L 72.882812 8.613281 C 72.882812 9.492188 73.078125 10.527344 74.113281 10.527344 C 75.109375 10.527344 75.8125 10.175781 76.261719 9.941406 L 76.046875 9.0625 C 75.519531 9.53125 74.972656 9.589844 74.699219 9.589844 C 74.035156 9.589844 73.957031 8.886719 73.957031 8.359375 Z M 73.957031 4.609375 "/>
<path style=" stroke:none;fill-rule:nonzero;fill:rgb(0%,0%,0%);fill-opacity:1;" d="M 79.046875 0.234375 L 77.757812 0.234375 L 77.757812 1.503906 L 79.046875 1.503906 Z M 78.949219 3.730469 L 77.855469 3.730469 L 77.855469 10.371094 L 78.949219 10.371094 Z M 78.949219 3.730469 "/>
<path style=" stroke:none;fill-rule:nonzero;fill:rgb(0%,0%,0%);fill-opacity:1;" d="M 86.589844 3.730469 L 85.476562 3.730469 L 84.382812 6.71875 C 84.128906 7.421875 83.582031 9.003906 83.484375 9.570312 L 83.464844 9.570312 C 83.40625 9.042969 83.09375 8.222656 82.878906 7.578125 L 81.492188 3.730469 L 80.339844 3.730469 L 82.800781 10.371094 L 84.128906 10.371094 Z M 86.589844 3.730469 "/>
<path style=" stroke:none;fill-rule:nonzero;fill:rgb(0%,0%,0%);fill-opacity:1;" d="M 92.890625 7.011719 C 92.890625 6.367188 92.832031 5.449219 92.363281 4.667969 C 91.738281 3.632812 90.703125 3.515625 90.273438 3.515625 C 88.652344 3.515625 87.304688 5.058594 87.304688 7.011719 C 87.304688 8.984375 88.75 10.527344 90.46875 10.527344 C 91.171875 10.527344 91.992188 10.332031 92.8125 9.726562 C 92.8125 9.667969 92.753906 9.199219 92.753906 9.179688 C 92.753906 9.160156 92.714844 8.828125 92.714844 8.769531 C 91.835938 9.511719 90.957031 9.628906 90.507812 9.628906 C 89.355469 9.628906 88.378906 8.59375 88.339844 7.011719 Z M 88.4375 6.210938 C 88.691406 5.195312 89.394531 4.414062 90.273438 4.414062 C 90.722656 4.414062 91.757812 4.609375 92.011719 6.210938 Z M 88.4375 6.210938 "/>
<path style=" stroke:none;fill-rule:nonzero;fill:rgb(0%,0%,0%);fill-opacity:1;" d="M 104.03125 5.996094 C 104.03125 4.550781 102.996094 3.515625 101.609375 3.515625 C 100.710938 3.515625 100.046875 3.730469 99.304688 4.140625 L 99.402344 5.117188 C 100.066406 4.648438 100.75 4.375 101.609375 4.375 C 102.292969 4.375 102.898438 4.941406 102.898438 6.015625 L 102.898438 6.640625 C 102.234375 6.660156 101.335938 6.71875 100.4375 7.011719 C 99.421875 7.34375 98.855469 7.910156 98.855469 8.652344 C 98.855469 9.316406 99.246094 10.527344 100.515625 10.527344 C 101.335938 10.527344 102.371094 10.273438 102.9375 9.824219 L 102.9375 10.371094 L 104.03125 10.371094 Z M 102.898438 8.359375 C 102.898438 8.671875 102.898438 9.023438 102.410156 9.316406 C 102 9.570312 101.492188 9.628906 101.277344 9.628906 C 100.457031 9.628906 99.910156 9.199219 99.910156 8.632812 C 99.910156 7.617188 101.980469 7.402344 102.898438 7.402344 Z M 102.898438 8.359375 "/>
<path style=" stroke:none;fill-rule:nonzero;fill:rgb(0%,0%,0%);fill-opacity:1;" d="M 107.464844 0 L 106.371094 0 L 106.371094 10.371094 L 107.464844 10.371094 Z M 107.464844 0 "/>
<path style=" stroke:none;fill-rule:nonzero;fill:rgb(0%,0%,0%);fill-opacity:1;" d="M 113.738281 4.492188 C 113.738281 4.492188 113.757812 4.511719 113.777344 4.550781 C 114.089844 4.511719 114.421875 4.472656 114.96875 4.472656 C 115.027344 4.472656 115.359375 4.472656 115.730469 4.492188 L 115.574219 3.59375 C 115.28125 3.59375 114.265625 3.59375 113.289062 4.082031 C 112.800781 3.671875 112.195312 3.59375 111.902344 3.59375 C 110.59375 3.59375 109.558594 4.6875 109.558594 5.996094 C 109.558594 6.523438 109.714844 7.03125 110.046875 7.480469 C 109.695312 7.949219 109.617188 8.398438 109.617188 8.75 C 109.617188 9.316406 109.8125 9.6875 109.988281 9.882812 C 109.226562 10.371094 109.050781 11.015625 109.050781 11.425781 C 109.050781 12.519531 110.457031 13.4375 112.292969 13.4375 C 114.109375 13.4375 115.535156 12.558594 115.535156 11.425781 C 115.535156 9.316406 113.113281 9.316406 112.507812 9.316406 L 111.238281 9.316406 C 111.023438 9.316406 110.398438 9.316406 110.398438 8.535156 C 110.398438 8.203125 110.457031 8.105469 110.535156 7.988281 C 110.789062 8.164062 111.277344 8.417969 111.882812 8.417969 C 113.171875 8.417969 114.226562 7.34375 114.226562 5.996094 C 114.226562 5.449219 114.03125 4.902344 113.71875 4.492188 Z M 111.902344 7.597656 C 111.238281 7.597656 110.574219 7.148438 110.574219 6.015625 C 110.574219 4.6875 111.414062 4.414062 111.882812 4.414062 C 112.546875 4.414062 113.191406 4.863281 113.191406 5.996094 C 113.191406 7.324219 112.351562 7.597656 111.902344 7.597656 Z M 112.527344 10.410156 C 112.859375 10.410156 114.5 10.410156 114.5 11.425781 C 114.5 12.128906 113.464844 12.617188 112.292969 12.617188 C 111.140625 12.617188 110.085938 12.148438 110.085938 11.425781 C 110.085938 11.367188 110.085938 10.410156 111.21875 10.410156 Z M 112.527344 10.410156 "/>
<path style=" stroke:none;fill-rule:nonzero;fill:rgb(0%,0%,0%);fill-opacity:1;" d="M 122.03125 7.011719 C 122.03125 6.367188 121.972656 5.449219 121.503906 4.667969 C 120.878906 3.632812 119.84375 3.515625 119.414062 3.515625 C 117.792969 3.515625 116.445312 5.058594 116.445312 7.011719 C 116.445312 8.984375 117.890625 10.527344 119.609375 10.527344 C 120.3125 10.527344 121.132812 10.332031 121.953125 9.726562 C 121.953125 9.667969 121.894531 9.199219 121.894531 9.179688 C 121.894531 9.160156 121.855469 8.828125 121.855469 8.769531 C 120.976562 9.511719 120.097656 9.628906 119.648438 9.628906 C 118.496094 9.628906 117.519531 8.59375 117.480469 7.011719 Z M 117.578125 6.210938 C 117.832031 5.195312 118.535156 4.414062 119.414062 4.414062 C 119.863281 4.414062 120.898438 4.609375 121.152344 6.210938 Z M 117.578125 6.210938 "/>
<path style=" stroke:none;fill-rule:nonzero;fill:rgb(0%,0%,0%);fill-opacity:1;" d="M 124.726562 0 L 123.632812 0 L 123.632812 10.371094 L 124.765625 10.371094 L 124.765625 9.707031 C 125.449219 10.351562 126.171875 10.527344 126.699219 10.527344 C 128.125 10.527344 129.414062 9.0625 129.414062 7.03125 C 129.414062 5.195312 128.4375 3.59375 127.050781 3.59375 C 126.621094 3.59375 125.664062 3.671875 124.726562 4.433594 Z M 124.765625 5.332031 C 125.039062 4.921875 125.566406 4.492188 126.308594 4.492188 C 127.207031 4.492188 128.28125 5.175781 128.28125 7.03125 C 128.28125 8.984375 127.070312 9.628906 126.152344 9.628906 C 125.742188 9.628906 125.449219 9.472656 125.175781 9.257812 C 124.824219 8.945312 124.765625 8.691406 124.765625 8.4375 Z M 124.765625 5.332031 "/>
<path style=" stroke:none;fill-rule:nonzero;fill:rgb(0%,0%,0%);fill-opacity:1;" d="M 131.828125 7.089844 C 131.828125 5.585938 132.960938 4.609375 134.308594 4.589844 L 134.308594 3.59375 C 132.960938 3.59375 132.160156 4.394531 131.75 4.980469 L 131.75 3.671875 L 130.734375 3.671875 L 130.734375 10.371094 L 131.828125 10.371094 Z M 131.828125 7.089844 "/>
<path style=" stroke:none;fill-rule:nonzero;fill:rgb(0%,0%,0%);fill-opacity:1;" d="M 140.375 5.996094 C 140.375 4.550781 139.339844 3.515625 137.953125 3.515625 C 137.054688 3.515625 136.390625 3.730469 135.648438 4.140625 L 135.746094 5.117188 C 136.410156 4.648438 137.09375 4.375 137.953125 4.375 C 138.636719 4.375 139.242188 4.941406 139.242188 6.015625 L 139.242188 6.640625 C 138.578125 6.660156 137.679688 6.71875 136.78125 7.011719 C 135.765625 7.34375 135.199219 7.910156 135.199219 8.652344 C 135.199219 9.316406 135.589844 10.527344 136.859375 10.527344 C 137.679688 10.527344 138.714844 10.273438 139.28125 9.824219 L 139.28125 10.371094 L 140.375 10.371094 Z M 139.242188 8.359375 C 139.242188 8.671875 139.242188 9.023438 138.753906 9.316406 C 138.34375 9.570312 137.835938 9.628906 137.621094 9.628906 C 136.800781 9.628906 136.253906 9.199219 136.253906 8.632812 C 136.253906 7.617188 138.324219 7.402344 139.242188 7.402344 Z M 139.242188 8.359375 "/>
<path style=" stroke:none;fill-rule:nonzero;fill:rgb(0%,0%,0%);fill-opacity:1;" d="M 148.675781 7.089844 C 148.675781 5.585938 149.808594 4.609375 151.15625 4.589844 L 151.15625 3.59375 C 149.808594 3.59375 149.007812 4.394531 148.597656 4.980469 L 148.597656 3.671875 L 147.582031 3.671875 L 147.582031 10.371094 L 148.675781 10.371094 Z M 148.675781 7.089844 "/>
<path style=" stroke:none;fill-rule:nonzero;fill:rgb(0%,0%,0%);fill-opacity:1;" d="M 157.460938 7.011719 C 157.460938 6.367188 157.402344 5.449219 156.933594 4.667969 C 156.308594 3.632812 155.273438 3.515625 154.84375 3.515625 C 153.222656 3.515625 151.875 5.058594 151.875 7.011719 C 151.875 8.984375 153.320312 10.527344 155.039062 10.527344 C 155.742188 10.527344 156.5625 10.332031 157.382812 9.726562 C 157.382812 9.667969 157.324219 9.199219 157.324219 9.179688 C 157.324219 9.160156 157.285156 8.828125 157.285156 8.769531 C 156.40625 9.511719 155.527344 9.628906 155.078125 9.628906 C 153.925781 9.628906 152.949219 8.59375 152.910156 7.011719 Z M 153.007812 6.210938 C 153.261719 5.195312 153.964844 4.414062 154.84375 4.414062 C 155.292969 4.414062 156.328125 4.609375 156.582031 6.210938 Z M 153.007812 6.210938 "/>
<path style=" stroke:none;fill-rule:nonzero;fill:rgb(0%,0%,0%);fill-opacity:1;" d="M 164.214844 3.59375 L 163.101562 3.59375 L 163.101562 4.550781 C 162.691406 4.082031 162.046875 3.59375 161.148438 3.59375 C 159.683594 3.59375 158.414062 5.058594 158.414062 7.070312 C 158.414062 8.964844 159.507812 10.527344 160.914062 10.527344 C 162.066406 10.527344 162.867188 9.824219 163.0625 9.609375 L 163.0625 13.261719 L 164.214844 13.261719 Z M 163.101562 8.300781 C 163.101562 8.574219 163.101562 8.59375 162.945312 8.808594 C 162.535156 9.433594 161.988281 9.628906 161.539062 9.628906 C 160.425781 9.628906 159.546875 8.457031 159.546875 7.070312 C 159.546875 5.527344 160.621094 4.511719 161.675781 4.511719 C 162.632812 4.511719 163.101562 5.488281 163.101562 6.074219 Z M 163.101562 8.300781 "/>
<path style=" stroke:none;fill-rule:nonzero;fill:rgb(0%,0%,0%);fill-opacity:1;" d="M 171.722656 3.730469 L 170.589844 3.730469 L 170.589844 8.007812 C 170.589844 9.140625 169.808594 9.707031 168.832031 9.707031 C 167.777344 9.707031 167.679688 9.316406 167.679688 8.652344 L 167.679688 3.730469 L 166.546875 3.730469 L 166.546875 8.710938 C 166.546875 9.785156 166.878906 10.527344 168.109375 10.527344 C 168.539062 10.527344 169.710938 10.449219 170.628906 9.628906 L 170.628906 10.371094 L 171.722656 10.371094 Z M 171.722656 3.730469 "/>
<path style=" stroke:none;fill-rule:nonzero;fill:rgb(0%,0%,0%);fill-opacity:1;" d="M 175.265625 0.234375 L 173.976562 0.234375 L 173.976562 1.503906 L 175.265625 1.503906 Z M 175.167969 3.730469 L 174.074219 3.730469 L 174.074219 10.371094 L 175.167969 10.371094 Z M 175.167969 3.730469 "/>
<path style=" stroke:none;fill-rule:nonzero;fill:rgb(0%,0%,0%);fill-opacity:1;" d="M 178.609375 7.089844 C 178.609375 5.585938 179.742188 4.609375 181.089844 4.589844 L 181.089844 3.59375 C 179.742188 3.59375 178.941406 4.394531 178.53125 4.980469 L 178.53125 3.671875 L 177.515625 3.671875 L 177.515625 10.371094 L 178.609375 10.371094 Z M 178.609375 7.089844 "/>
<path style=" stroke:none;fill-rule:nonzero;fill:rgb(0%,0%,0%);fill-opacity:1;" d="M 187.390625 7.011719 C 187.390625 6.367188 187.332031 5.449219 186.863281 4.667969 C 186.238281 3.632812 185.203125 3.515625 184.773438 3.515625 C 183.152344 3.515625 181.804688 5.058594 181.804688 7.011719 C 181.804688 8.984375 183.25 10.527344 184.96875 10.527344 C 185.671875 10.527344 186.492188 10.332031 187.3125 9.726562 C 187.3125 9.667969 187.253906 9.199219 187.253906 9.179688 C 187.253906 9.160156 187.214844 8.828125 187.214844 8.769531 C 186.335938 9.511719 185.457031 9.628906 185.007812 9.628906 C 183.855469 9.628906 182.878906 8.59375 182.839844 7.011719 Z M 182.9375 6.210938 C 183.191406 5.195312 183.894531 4.414062 184.773438 4.414062 C 185.222656 4.414062 186.257812 4.609375 186.511719 6.210938 Z M 182.9375 6.210938 "/>
<path style=" stroke:none;fill-rule:nonzero;fill:rgb(0%,0%,0%);fill-opacity:1;" d="M 194.148438 0 L 193.035156 0 L 193.035156 4.355469 C 192.351562 3.789062 191.570312 3.59375 190.925781 3.59375 C 189.5 3.59375 188.347656 5.117188 188.347656 7.050781 C 188.347656 8.984375 189.441406 10.527344 190.867188 10.527344 C 191.414062 10.527344 192.253906 10.332031 192.996094 9.609375 L 192.996094 10.371094 L 194.148438 10.371094 Z M 192.996094 8.613281 C 192.644531 9.257812 192.117188 9.628906 191.472656 9.628906 C 190.554688 9.628906 189.480469 8.925781 189.480469 7.070312 C 189.480469 5.078125 190.75 4.492188 191.609375 4.492188 C 192.195312 4.492188 192.683594 4.785156 192.996094 5.273438 Z M 192.996094 8.613281 "/>
<path style=" stroke:none;fill-rule:nonzero;fill:rgb(0%,0%,0%);fill-opacity:1;" d="M 206.542969 5.878906 C 206.542969 4.960938 206.347656 3.59375 204.550781 3.59375 C 203.515625 3.59375 202.832031 4.179688 202.480469 4.609375 L 202.480469 0 L 201.367188 0 L 201.367188 10.371094 L 202.5 10.371094 L 202.5 6.660156 C 202.5 5.722656 202.851562 4.492188 203.984375 4.492188 C 205.371094 4.492188 205.410156 5.449219 205.410156 5.976562 L 205.410156 10.371094 L 206.542969 10.371094 Z M 206.542969 5.878906 "/>
<path style=" stroke:none;fill-rule:nonzero;fill:rgb(0%,0%,0%);fill-opacity:1;" d="M 213.792969 7.011719 C 213.792969 6.367188 213.734375 5.449219 213.265625 4.667969 C 212.640625 3.632812 211.605469 3.515625 211.175781 3.515625 C 209.554688 3.515625 208.207031 5.058594 208.207031 7.011719 C 208.207031 8.984375 209.652344 10.527344 211.371094 10.527344 C 212.074219 10.527344 212.894531 10.332031 213.714844 9.726562 C 213.714844 9.667969 213.65625 9.199219 213.65625 9.179688 C 213.65625 9.160156 213.617188 8.828125 213.617188 8.769531 C 212.738281 9.511719 211.859375 9.628906 211.410156 9.628906 C 210.257812 9.628906 209.28125 8.59375 209.242188 7.011719 Z M 209.339844 6.210938 C 209.59375 5.195312 210.296875 4.414062 211.175781 4.414062 C 211.625 4.414062 212.660156 4.609375 212.914062 6.210938 Z M 209.339844 6.210938 "/>
<path style=" stroke:none;fill-rule:nonzero;fill:rgb(0%,0%,0%);fill-opacity:1;" d="M 216.488281 7.089844 C 216.488281 5.585938 217.621094 4.609375 218.96875 4.589844 L 218.96875 3.59375 C 217.621094 3.59375 216.820312 4.394531 216.410156 4.980469 L 216.410156 3.671875 L 215.394531 3.671875 L 215.394531 10.371094 L 216.488281 10.371094 Z M 216.488281 7.089844 "/>
<path style=" stroke:none;fill-rule:nonzero;fill:rgb(0%,0%,0%);fill-opacity:1;" d="M 225.269531 7.011719 C 225.269531 6.367188 225.210938 5.449219 224.742188 4.667969 C 224.117188 3.632812 223.082031 3.515625 222.652344 3.515625 C 221.03125 3.515625 219.683594 5.058594 219.683594 7.011719 C 219.683594 8.984375 221.128906 10.527344 222.847656 10.527344 C 223.550781 10.527344 224.371094 10.332031 225.191406 9.726562 C 225.191406 9.667969 225.132812 9.199219 225.132812 9.179688 C 225.132812 9.160156 225.09375 8.828125 225.09375 8.769531 C 224.214844 9.511719 223.335938 9.628906 222.886719 9.628906 C 221.734375 9.628906 220.757812 8.59375 220.71875 7.011719 Z M 220.816406 6.210938 C 221.070312 5.195312 221.773438 4.414062 222.652344 4.414062 C 223.101562 4.414062 224.136719 4.609375 224.390625 6.210938 Z M 220.816406 6.210938 "/>
<path style=" stroke:none;fill-rule:nonzero;fill:rgb(0%,0%,0%);fill-opacity:1;" d="M 5.949219 59.808594 C 5.949219 59.769531 5.949219 59.730469 5.695312 59.476562 C 4.191406 57.972656 3.351562 55.511719 3.351562 52.464844 C 3.351562 49.554688 4.054688 47.054688 5.792969 45.296875 C 5.949219 45.160156 5.949219 45.140625 5.949219 45.082031 C 5.949219 45.003906 5.871094 44.964844 5.8125 44.964844 C 5.617188 44.964844 4.386719 46.039062 3.664062 47.503906 C 2.902344 49.027344 2.550781 50.609375 2.550781 52.464844 C 2.550781 53.792969 2.765625 55.570312 3.527344 57.152344 C 4.425781 58.949219 5.636719 59.925781 5.8125 59.925781 C 5.871094 59.925781 5.949219 59.886719 5.949219 59.808594 Z M 5.949219 59.808594 "/>
<path style=" stroke:none;fill-rule:nonzero;fill:rgb(0%,0%,0%);fill-opacity:1;" d="M 13.863281 50.082031 C 13.375 50.160156 13.199219 50.53125 13.199219 50.804688 C 13.199219 51.175781 13.472656 51.292969 13.6875 51.292969 C 14.136719 51.292969 14.449219 50.902344 14.449219 50.492188 C 14.449219 49.867188 13.726562 49.59375 13.101562 49.59375 C 12.203125 49.59375 11.695312 50.492188 11.558594 50.765625 C 11.207031 49.652344 10.289062 49.59375 10.015625 49.59375 C 8.492188 49.59375 7.691406 51.546875 7.691406 51.878906 C 7.691406 51.9375 7.75 52.015625 7.847656 52.015625 C 7.964844 52.015625 8.003906 51.917969 8.023438 51.859375 C 8.53125 50.199219 9.546875 49.886719 9.976562 49.886719 C 10.640625 49.886719 10.777344 50.511719 10.777344 50.863281 C 10.777344 51.195312 10.679688 51.546875 10.503906 52.269531 L 9.996094 54.300781 C 9.78125 55.199219 9.351562 56.019531 8.550781 56.019531 C 8.472656 56.019531 8.101562 56.019531 7.789062 55.824219 C 8.335938 55.726562 8.453125 55.277344 8.453125 55.101562 C 8.453125 54.808594 8.21875 54.613281 7.945312 54.613281 C 7.574219 54.613281 7.183594 54.945312 7.183594 55.414062 C 7.183594 56.039062 7.886719 56.332031 8.53125 56.332031 C 9.253906 56.332031 9.761719 55.765625 10.074219 55.140625 C 10.308594 56.019531 11.070312 56.332031 11.617188 56.332031 C 13.140625 56.332031 13.941406 54.359375 13.941406 54.046875 C 13.941406 53.96875 13.882812 53.910156 13.804688 53.910156 C 13.667969 53.910156 13.648438 53.988281 13.609375 54.105469 C 13.199219 55.414062 12.339844 56.019531 11.65625 56.019531 C 11.128906 56.019531 10.855469 55.628906 10.855469 55.023438 C 10.855469 54.691406 10.914062 54.457031 11.148438 53.480469 L 11.675781 51.429688 C 11.890625 50.550781 12.398438 49.886719 13.101562 49.886719 C 13.121094 49.886719 13.550781 49.886719 13.863281 50.082031 Z M 13.863281 50.082031 "/>
<path style=" stroke:none;fill-rule:nonzero;fill:rgb(0%,0%,0%);fill-opacity:1;" d="M 28.253906 52.738281 C 28.507812 52.738281 28.78125 52.738281 28.78125 52.445312 C 28.78125 52.132812 28.507812 52.132812 28.253906 52.132812 L 20.167969 52.132812 C 19.914062 52.132812 19.640625 52.132812 19.640625 52.445312 C 19.640625 52.738281 19.914062 52.738281 20.167969 52.738281 Z M 28.253906 52.738281 "/>
<path style=" stroke:none;fill-rule:nonzero;fill:rgb(0%,0%,0%);fill-opacity:1;" d="M 38.746094 46.449219 C 38.746094 46.15625 38.746094 46.097656 38.53125 46.097656 C 38.414062 46.097656 38.375 46.097656 38.257812 46.273438 L 33.765625 53.246094 L 33.765625 53.675781 L 37.691406 53.675781 L 37.691406 55.042969 C 37.691406 55.589844 37.652344 55.746094 36.558594 55.746094 L 36.265625 55.746094 L 36.265625 56.175781 C 36.617188 56.136719 37.789062 56.136719 38.21875 56.136719 C 38.628906 56.136719 39.820312 56.136719 40.171875 56.175781 L 40.171875 55.746094 L 39.878906 55.746094 C 38.785156 55.746094 38.746094 55.589844 38.746094 55.042969 L 38.746094 53.675781 L 40.25 53.675781 L 40.25 53.246094 L 38.746094 53.246094 Z M 37.769531 47.621094 L 37.769531 53.246094 L 34.136719 53.246094 Z M 37.769531 47.621094 "/>
<path style=" stroke:none;fill-rule:nonzero;fill:rgb(0%,0%,0%);fill-opacity:1;" d="M 44.890625 52.464844 C 44.890625 51.3125 44.734375 49.476562 43.894531 47.738281 C 43.015625 45.941406 41.785156 44.964844 41.628906 44.964844 C 41.570312 44.964844 41.492188 45.003906 41.492188 45.082031 C 41.492188 45.140625 41.492188 45.160156 41.746094 45.414062 C 43.25 46.917969 44.070312 49.398438 44.070312 52.445312 C 44.070312 55.335938 43.367188 57.835938 41.648438 59.59375 C 41.492188 59.730469 41.492188 59.769531 41.492188 59.808594 C 41.492188 59.886719 41.570312 59.925781 41.628906 59.925781 C 41.824219 59.925781 43.054688 58.851562 43.777344 57.386719 C 44.539062 55.863281 44.890625 54.242188 44.890625 52.464844 Z M 44.890625 52.464844 "/>
<path style=" stroke:none;fill-rule:nonzero;fill:rgb(0%,0%,0%);fill-opacity:1;" d="M 52.554688 52.445312 C 52.554688 52.015625 52.203125 51.644531 51.753906 51.644531 C 51.324219 51.644531 50.972656 52.015625 50.972656 52.445312 C 50.972656 52.875 51.324219 53.226562 51.753906 53.226562 C 52.203125 53.226562 52.554688 52.875 52.554688 52.445312 Z M 52.554688 52.445312 "/>
<path style=" stroke:none;fill-rule:nonzero;fill:rgb(0%,0%,0%);fill-opacity:1;" d="M 59.832031 52.71875 C 60.242188 52.71875 61.257812 52.679688 61.960938 52.40625 C 63.09375 51.976562 63.210938 51.117188 63.210938 50.84375 C 63.210938 50.179688 62.644531 49.59375 61.648438 49.59375 C 60.085938 49.59375 57.820312 51 57.820312 53.65625 C 57.820312 55.238281 58.71875 56.332031 60.085938 56.332031 C 62.117188 56.332031 63.40625 54.75 63.40625 54.554688 C 63.40625 54.457031 63.308594 54.378906 63.25 54.378906 C 63.210938 54.378906 63.191406 54.398438 63.054688 54.535156 C 62.097656 55.804688 60.691406 56.019531 60.105469 56.019531 C 59.265625 56.019531 58.816406 55.355469 58.816406 54.242188 C 58.816406 54.046875 58.816406 53.65625 59.03125 52.71875 Z M 59.109375 52.40625 C 59.753906 50.101562 61.179688 49.886719 61.648438 49.886719 C 62.3125 49.886719 62.761719 50.277344 62.761719 50.84375 C 62.761719 52.40625 60.359375 52.40625 59.734375 52.40625 Z M 59.109375 52.40625 "/>
<path style=" stroke:none;fill-rule:nonzero;fill:rgb(0%,0%,0%);fill-opacity:1;" d="M 68.9375 46.789062 C 68.488281 46.886719 68.46875 47.277344 68.46875 47.316406 C 68.46875 47.53125 68.644531 47.6875 68.859375 47.6875 C 69.074219 47.6875 69.40625 47.511719 69.40625 47.082031 C 69.40625 46.515625 68.78125 46.359375 68.410156 46.359375 C 67.960938 46.359375 67.570312 46.691406 67.335938 47.082031 C 67.121094 46.554688 66.613281 46.359375 66.203125 46.359375 C 65.109375 46.359375 64.503906 47.609375 64.503906 47.882812 C 64.503906 47.980469 64.582031 48.019531 64.660156 48.019531 C 64.777344 48.019531 64.796875 47.960938 64.816406 47.84375 C 65.050781 47.121094 65.65625 46.632812 66.164062 46.632812 C 66.554688 46.632812 66.75 46.925781 66.75 47.277344 C 66.75 47.472656 66.632812 47.941406 66.554688 48.253906 C 66.476562 48.546875 66.261719 49.425781 66.203125 49.621094 C 66.066406 50.148438 65.714844 50.578125 65.265625 50.578125 C 65.226562 50.578125 64.972656 50.578125 64.757812 50.441406 C 65.207031 50.324219 65.207031 49.914062 65.207031 49.894531 C 65.207031 49.660156 65.03125 49.523438 64.816406 49.523438 C 64.542969 49.523438 64.25 49.757812 64.25 50.128906 C 64.25 50.597656 64.738281 50.851562 65.246094 50.851562 C 65.773438 50.851562 66.144531 50.460938 66.320312 50.128906 C 66.554688 50.617188 67.003906 50.851562 67.492188 50.851562 C 68.566406 50.851562 69.171875 49.601562 69.171875 49.328125 C 69.171875 49.230469 69.09375 49.191406 69.015625 49.191406 C 68.898438 49.191406 68.878906 49.269531 68.839844 49.367188 C 68.644531 50.03125 68.078125 50.578125 67.511719 50.578125 C 67.179688 50.578125 66.945312 50.363281 66.945312 49.933594 C 66.945312 49.738281 67.003906 49.503906 67.140625 48.957031 C 67.199219 48.644531 67.414062 47.785156 67.472656 47.589844 C 67.609375 47.0625 67.960938 46.632812 68.410156 46.632812 C 68.46875 46.632812 68.722656 46.632812 68.9375 46.789062 Z M 68.9375 46.789062 "/>
<path style="fill:none;stroke-width:1;stroke-linecap:butt;stroke-linejoin:miter;stroke:rgb(0%,0%,0%);stroke-opacity:1;stroke-miterlimit:10;" d="M 0.303995 0.000255 L 55.303995 0.000255 " transform="matrix(1.25,0,0,-1.25,1.08485,62.5511)"/>
<path style=" stroke:none;fill-rule:nonzero;fill:rgb(0%,0%,0%);fill-opacity:1;" d="M 15.066406 80.171875 C 15.066406 80.132812 15.066406 80.09375 14.8125 79.839844 C 13.308594 78.335938 12.46875 75.875 12.46875 72.828125 C 12.46875 69.917969 13.171875 67.417969 14.910156 65.660156 C 15.066406 65.523438 15.066406 65.503906 15.066406 65.445312 C 15.066406 65.367188 14.988281 65.328125 14.929688 65.328125 C 14.734375 65.328125 13.503906 66.402344 12.78125 67.867188 C 12.019531 69.390625 11.667969 70.972656 11.667969 72.828125 C 11.667969 74.15625 11.882812 75.933594 12.644531 77.515625 C 13.542969 79.3125 14.753906 80.289062 14.929688 80.289062 C 14.988281 80.289062 15.066406 80.25 15.066406 80.171875 Z M 15.066406 80.171875 "/>
<path style=" stroke:none;fill-rule:nonzero;fill:rgb(0%,0%,0%);fill-opacity:1;" d="M 22.984375 70.445312 C 22.496094 70.523438 22.320312 70.894531 22.320312 71.167969 C 22.320312 71.539062 22.59375 71.65625 22.808594 71.65625 C 23.257812 71.65625 23.570312 71.265625 23.570312 70.855469 C 23.570312 70.230469 22.847656 69.957031 22.222656 69.957031 C 21.324219 69.957031 20.816406 70.855469 20.679688 71.128906 C 20.328125 70.015625 19.410156 69.957031 19.136719 69.957031 C 17.613281 69.957031 16.8125 71.910156 16.8125 72.242188 C 16.8125 72.300781 16.871094 72.378906 16.96875 72.378906 C 17.085938 72.378906 17.125 72.28125 17.144531 72.222656 C 17.652344 70.5625 18.667969 70.25 19.097656 70.25 C 19.761719 70.25 19.898438 70.875 19.898438 71.226562 C 19.898438 71.558594 19.800781 71.910156 19.625 72.632812 L 19.117188 74.664062 C 18.902344 75.5625 18.472656 76.382812 17.671875 76.382812 C 17.59375 76.382812 17.222656 76.382812 16.910156 76.1875 C 17.457031 76.089844 17.574219 75.640625 17.574219 75.464844 C 17.574219 75.171875 17.339844 74.976562 17.066406 74.976562 C 16.695312 74.976562 16.304688 75.308594 16.304688 75.777344 C 16.304688 76.402344 17.007812 76.695312 17.652344 76.695312 C 18.375 76.695312 18.882812 76.128906 19.195312 75.503906 C 19.429688 76.382812 20.191406 76.695312 20.738281 76.695312 C 22.261719 76.695312 23.0625 74.722656 23.0625 74.410156 C 23.0625 74.332031 23.003906 74.273438 22.925781 74.273438 C 22.789062 74.273438 22.769531 74.351562 22.730469 74.46875 C 22.320312 75.777344 21.460938 76.382812 20.777344 76.382812 C 20.25 76.382812 19.976562 75.992188 19.976562 75.386719 C 19.976562 75.054688 20.035156 74.820312 20.269531 73.84375 L 20.796875 71.792969 C 21.011719 70.914062 21.519531 70.25 22.222656 70.25 C 22.242188 70.25 22.671875 70.25 22.984375 70.445312 Z M 22.984375 70.445312 "/>
<path style=" stroke:none;fill-rule:nonzero;fill:rgb(0%,0%,0%);fill-opacity:1;" d="M 37.375 73.101562 C 37.628906 73.101562 37.902344 73.101562 37.902344 72.808594 C 37.902344 72.496094 37.628906 72.496094 37.375 72.496094 L 29.289062 72.496094 C 29.035156 72.496094 28.761719 72.496094 28.761719 72.808594 C 28.761719 73.101562 29.035156 73.101562 29.289062 73.101562 Z M 37.375 73.101562 "/>
<path style=" stroke:none;fill-rule:nonzero;fill:rgb(0%,0%,0%);fill-opacity:1;" d="M 49.058594 74.019531 L 48.726562 74.019531 C 48.667969 74.273438 48.550781 75.113281 48.414062 75.347656 C 48.296875 75.484375 47.457031 75.484375 47.007812 75.484375 L 44.234375 75.484375 C 44.644531 75.132812 45.5625 74.175781 45.933594 73.824219 C 48.21875 71.734375 49.058594 70.953125 49.058594 69.46875 C 49.058594 67.75 47.691406 66.597656 45.953125 66.597656 C 44.234375 66.597656 43.199219 68.082031 43.199219 69.371094 C 43.199219 70.132812 43.863281 70.132812 43.902344 70.132812 C 44.234375 70.132812 44.605469 69.898438 44.605469 69.429688 C 44.605469 69 44.332031 68.726562 43.902344 68.726562 C 43.785156 68.726562 43.746094 68.726562 43.707031 68.746094 C 43.980469 67.730469 44.800781 67.027344 45.757812 67.027344 C 47.027344 67.027344 47.808594 68.101562 47.808594 69.46875 C 47.808594 70.738281 47.085938 71.851562 46.226562 72.808594 L 43.199219 76.1875 L 43.199219 76.539062 L 48.667969 76.539062 Z M 49.058594 74.019531 "/>
<path style=" stroke:none;fill-rule:nonzero;fill:rgb(0%,0%,0%);fill-opacity:1;" d="M 54.011719 72.828125 C 54.011719 71.675781 53.855469 69.839844 53.015625 68.101562 C 52.136719 66.304688 50.90625 65.328125 50.75 65.328125 C 50.691406 65.328125 50.613281 65.367188 50.613281 65.445312 C 50.613281 65.503906 50.613281 65.523438 50.867188 65.777344 C 52.371094 67.28125 53.191406 69.761719 53.191406 72.808594 C 53.191406 75.699219 52.488281 78.199219 50.769531 79.957031 C 50.613281 80.09375 50.613281 80.132812 50.613281 80.171875 C 50.613281 80.25 50.691406 80.289062 50.75 80.289062 C 50.945312 80.289062 52.175781 79.214844 52.898438 77.75 C 53.660156 76.226562 54.011719 74.605469 54.011719 72.828125 Z M 54.011719 72.828125 "/>
<path style=" stroke:none;fill-rule:nonzero;fill:rgb(0%,0%,0%);fill-opacity:1;" d="M 58 68.902344 C 58.78125 68.902344 59.289062 69.46875 59.289062 70.523438 C 59.289062 71.773438 58.585938 72.125 58.058594 72.125 C 57.511719 72.125 56.75 71.929688 56.398438 71.402344 C 56.769531 71.402344 57.023438 71.167969 57.023438 70.855469 C 57.023438 70.523438 56.789062 70.308594 56.457031 70.308594 C 56.203125 70.308594 55.910156 70.464844 55.910156 70.875 C 55.910156 71.8125 56.925781 72.4375 58.078125 72.4375 C 59.386719 72.4375 60.324219 71.519531 60.324219 70.523438 C 60.324219 69.683594 59.660156 68.941406 58.644531 68.707031 C 59.425781 68.433594 60.03125 67.769531 60.03125 66.96875 C 60.03125 66.167969 59.132812 65.601562 58.097656 65.601562 C 57.023438 65.601562 56.222656 66.167969 56.222656 66.929688 C 56.222656 67.300781 56.457031 67.457031 56.730469 67.457031 C 57.042969 67.457031 57.238281 67.242188 57.238281 66.949219 C 57.238281 66.578125 56.90625 66.441406 56.691406 66.441406 C 57.121094 65.894531 57.882812 65.855469 58.058594 65.855469 C 58.3125 65.855469 59.074219 65.933594 59.074219 66.96875 C 59.074219 67.652344 58.78125 68.082031 58.644531 68.238281 C 58.351562 68.550781 58.117188 68.570312 57.511719 68.609375 C 57.316406 68.609375 57.238281 68.628906 57.238281 68.765625 C 57.238281 68.902344 57.335938 68.902344 57.511719 68.902344 Z M 58 68.902344 "/>
<path style=" stroke:none;fill-rule:nonzero;fill:rgb(0%,0%,0%);fill-opacity:1;" d="M 86.242188 61.445312 C 86.457031 61.445312 86.730469 61.445312 86.730469 61.171875 C 86.730469 60.898438 86.476562 60.898438 86.242188 60.898438 L 77.453125 60.898438 C 77.238281 60.898438 76.964844 60.898438 76.964844 61.171875 C 76.964844 61.445312 77.21875 61.445312 77.453125 61.445312 Z M 86.242188 64.21875 C 86.457031 64.21875 86.730469 64.21875 86.730469 63.964844 C 86.730469 63.671875 86.476562 63.671875 86.242188 63.671875 L 77.453125 63.671875 C 77.238281 63.671875 76.964844 63.671875 76.964844 63.945312 C 76.964844 64.21875 77.21875 64.21875 77.453125 64.21875 Z M 86.242188 64.21875 "/>
<path style=" stroke:none;fill-rule:nonzero;fill:rgb(0%,0%,0%);fill-opacity:1;" d="M 94.371094 62.832031 C 94.78125 62.832031 95.796875 62.792969 96.5 62.519531 C 97.632812 62.089844 97.75 61.230469 97.75 60.957031 C 97.75 60.292969 97.183594 59.707031 96.1875 59.707031 C 94.625 59.707031 92.359375 61.113281 92.359375 63.769531 C 92.359375 65.351562 93.257812 66.445312 94.625 66.445312 C 96.65625 66.445312 97.945312 64.863281 97.945312 64.667969 C 97.945312 64.570312 97.847656 64.492188 97.789062 64.492188 C 97.75 64.492188 97.730469 64.511719 97.59375 64.648438 C 96.636719 65.917969 95.230469 66.132812 94.644531 66.132812 C 93.804688 66.132812 93.355469 65.46875 93.355469 64.355469 C 93.355469 64.160156 93.355469 63.769531 93.570312 62.832031 Z M 93.648438 62.519531 C 94.292969 60.214844 95.71875 60 96.1875 60 C 96.851562 60 97.300781 60.390625 97.300781 60.957031 C 97.300781 62.519531 94.898438 62.519531 94.273438 62.519531 Z M 93.648438 62.519531 "/>
<path style=" stroke:none;fill-rule:nonzero;fill:rgb(0%,0%,0%);fill-opacity:1;" d="M 103.476562 56.152344 C 103.027344 56.25 103.007812 56.640625 103.007812 56.679688 C 103.007812 56.894531 103.183594 57.050781 103.398438 57.050781 C 103.613281 57.050781 103.945312 56.875 103.945312 56.445312 C 103.945312 55.878906 103.320312 55.722656 102.949219 55.722656 C 102.5 55.722656 102.109375 56.054688 101.875 56.445312 C 101.660156 55.917969 101.152344 55.722656 100.742188 55.722656 C 99.648438 55.722656 99.042969 56.972656 99.042969 57.246094 C 99.042969 57.34375 99.121094 57.382812 99.199219 57.382812 C 99.316406 57.382812 99.335938 57.324219 99.355469 57.207031 C 99.589844 56.484375 100.195312 55.996094 100.703125 55.996094 C 101.09375 55.996094 101.289062 56.289062 101.289062 56.640625 C 101.289062 56.835938 101.171875 57.304688 101.09375 57.617188 C 101.015625 57.910156 100.800781 58.789062 100.742188 58.984375 C 100.605469 59.511719 100.253906 59.941406 99.804688 59.941406 C 99.765625 59.941406 99.511719 59.941406 99.296875 59.804688 C 99.746094 59.6875 99.746094 59.277344 99.746094 59.257812 C 99.746094 59.023438 99.570312 58.886719 99.355469 58.886719 C 99.082031 58.886719 98.789062 59.121094 98.789062 59.492188 C 98.789062 59.960938 99.277344 60.214844 99.785156 60.214844 C 100.3125 60.214844 100.683594 59.824219 100.859375 59.492188 C 101.09375 59.980469 101.542969 60.214844 102.03125 60.214844 C 103.105469 60.214844 103.710938 58.964844 103.710938 58.691406 C 103.710938 58.59375 103.632812 58.554688 103.554688 58.554688 C 103.4375 58.554688 103.417969 58.632812 103.378906 58.730469 C 103.183594 59.394531 102.617188 59.941406 102.050781 59.941406 C 101.71875 59.941406 101.484375 59.726562 101.484375 59.296875 C 101.484375 59.101562 101.542969 58.867188 101.679688 58.320312 C 101.738281 58.007812 101.953125 57.148438 102.011719 56.953125 C 102.148438 56.425781 102.5 55.996094 102.949219 55.996094 C 103.007812 55.996094 103.261719 55.996094 103.476562 56.152344 Z M 103.476562 56.152344 "/>
<path style=" stroke:none;fill-rule:nonzero;fill:rgb(0%,0%,0%);fill-opacity:1;" d="M 111.25 62.558594 C 111.25 62.128906 110.898438 61.757812 110.449219 61.757812 C 110.019531 61.757812 109.667969 62.128906 109.667969 62.558594 C 109.667969 62.988281 110.019531 63.339844 110.449219 63.339844 C 110.898438 63.339844 111.25 62.988281 111.25 62.558594 Z M 111.25 62.558594 "/>
<path style=" stroke:none;fill-rule:nonzero;fill:rgb(0%,0%,0%);fill-opacity:1;" d="M 119.582031 80.46875 L 123.507812 80.46875 L 123.507812 79.648438 L 120.402344 79.648438 L 120.402344 45.429688 L 123.507812 45.429688 L 123.507812 44.609375 L 119.582031 44.609375 Z M 119.582031 80.46875 "/>
<path style=" stroke:none;fill-rule:nonzero;fill:rgb(0%,0%,0%);fill-opacity:1;" d="M 130.09375 59.808594 C 130.09375 59.769531 130.09375 59.730469 129.839844 59.476562 C 128.335938 57.972656 127.496094 55.511719 127.496094 52.464844 C 127.496094 49.554688 128.199219 47.054688 129.9375 45.296875 C 130.09375 45.160156 130.09375 45.140625 130.09375 45.082031 C 130.09375 45.003906 130.015625 44.964844 129.957031 44.964844 C 129.761719 44.964844 128.53125 46.039062 127.808594 47.503906 C 127.046875 49.027344 126.695312 50.609375 126.695312 52.464844 C 126.695312 53.792969 126.910156 55.570312 127.671875 57.152344 C 128.570312 58.949219 129.78125 59.925781 129.957031 59.925781 C 130.015625 59.925781 130.09375 59.886719 130.09375 59.808594 Z M 130.09375 59.808594 "/>
<path style=" stroke:none;fill-rule:nonzero;fill:rgb(0%,0%,0%);fill-opacity:1;" d="M 138.011719 50.082031 C 137.523438 50.160156 137.347656 50.53125 137.347656 50.804688 C 137.347656 51.175781 137.621094 51.292969 137.835938 51.292969 C 138.285156 51.292969 138.597656 50.902344 138.597656 50.492188 C 138.597656 49.867188 137.875 49.59375 137.25 49.59375 C 136.351562 49.59375 135.84375 50.492188 135.707031 50.765625 C 135.355469 49.652344 134.4375 49.59375 134.164062 49.59375 C 132.640625 49.59375 131.839844 51.546875 131.839844 51.878906 C 131.839844 51.9375 131.898438 52.015625 131.996094 52.015625 C 132.113281 52.015625 132.152344 51.917969 132.171875 51.859375 C 132.679688 50.199219 133.695312 49.886719 134.125 49.886719 C 134.789062 49.886719 134.925781 50.511719 134.925781 50.863281 C 134.925781 51.195312 134.828125 51.546875 134.652344 52.269531 L 134.144531 54.300781 C 133.929688 55.199219 133.5 56.019531 132.699219 56.019531 C 132.621094 56.019531 132.25 56.019531 131.9375 55.824219 C 132.484375 55.726562 132.601562 55.277344 132.601562 55.101562 C 132.601562 54.808594 132.367188 54.613281 132.09375 54.613281 C 131.722656 54.613281 131.332031 54.945312 131.332031 55.414062 C 131.332031 56.039062 132.035156 56.332031 132.679688 56.332031 C 133.402344 56.332031 133.910156 55.765625 134.222656 55.140625 C 134.457031 56.019531 135.21875 56.332031 135.765625 56.332031 C 137.289062 56.332031 138.089844 54.359375 138.089844 54.046875 C 138.089844 53.96875 138.03125 53.910156 137.953125 53.910156 C 137.816406 53.910156 137.796875 53.988281 137.757812 54.105469 C 137.347656 55.414062 136.488281 56.019531 135.804688 56.019531 C 135.277344 56.019531 135.003906 55.628906 135.003906 55.023438 C 135.003906 54.691406 135.0625 54.457031 135.296875 53.480469 L 135.824219 51.429688 C 136.039062 50.550781 136.546875 49.886719 137.25 49.886719 C 137.269531 49.886719 137.699219 49.886719 138.011719 50.082031 Z M 138.011719 50.082031 "/>
<path style=" stroke:none;fill-rule:nonzero;fill:rgb(0%,0%,0%);fill-opacity:1;" d="M 152.402344 52.738281 C 152.65625 52.738281 152.929688 52.738281 152.929688 52.445312 C 152.929688 52.132812 152.65625 52.132812 152.402344 52.132812 L 144.316406 52.132812 C 144.0625 52.132812 143.789062 52.132812 143.789062 52.445312 C 143.789062 52.738281 144.0625 52.738281 144.316406 52.738281 Z M 152.402344 52.738281 "/>
<path style=" stroke:none;fill-rule:nonzero;fill:rgb(0%,0%,0%);fill-opacity:1;" d="M 164.085938 53.65625 L 163.753906 53.65625 C 163.695312 53.910156 163.578125 54.75 163.441406 54.984375 C 163.324219 55.121094 162.484375 55.121094 162.035156 55.121094 L 159.261719 55.121094 C 159.671875 54.769531 160.589844 53.8125 160.960938 53.460938 C 163.246094 51.371094 164.085938 50.589844 164.085938 49.105469 C 164.085938 47.386719 162.71875 46.234375 160.980469 46.234375 C 159.261719 46.234375 158.226562 47.71875 158.226562 49.007812 C 158.226562 49.769531 158.890625 49.769531 158.929688 49.769531 C 159.261719 49.769531 159.632812 49.535156 159.632812 49.066406 C 159.632812 48.636719 159.359375 48.363281 158.929688 48.363281 C 158.8125 48.363281 158.773438 48.363281 158.734375 48.382812 C 159.007812 47.367188 159.828125 46.664062 160.785156 46.664062 C 162.054688 46.664062 162.835938 47.738281 162.835938 49.105469 C 162.835938 50.375 162.113281 51.488281 161.253906 52.445312 L 158.226562 55.824219 L 158.226562 56.175781 L 163.695312 56.175781 Z M 164.085938 53.65625 "/>
<path style=" stroke:none;fill-rule:nonzero;fill:rgb(0%,0%,0%);fill-opacity:1;" d="M 169.039062 52.464844 C 169.039062 51.3125 168.882812 49.476562 168.042969 47.738281 C 167.164062 45.941406 165.933594 44.964844 165.777344 44.964844 C 165.71875 44.964844 165.640625 45.003906 165.640625 45.082031 C 165.640625 45.140625 165.640625 45.160156 165.894531 45.414062 C 167.398438 46.917969 168.21875 49.398438 168.21875 52.445312 C 168.21875 55.335938 167.515625 57.835938 165.796875 59.59375 C 165.640625 59.730469 165.640625 59.769531 165.640625 59.808594 C 165.640625 59.886719 165.71875 59.925781 165.777344 59.925781 C 165.972656 59.925781 167.203125 58.851562 167.925781 57.386719 C 168.6875 55.863281 169.039062 54.242188 169.039062 52.464844 Z M 169.039062 52.464844 "/>
<path style=" stroke:none;fill-rule:nonzero;fill:rgb(0%,0%,0%);fill-opacity:1;" d="M 183.671875 52.738281 C 183.925781 52.738281 184.199219 52.738281 184.199219 52.445312 C 184.199219 52.132812 183.925781 52.132812 183.671875 52.132812 L 175.585938 52.132812 C 175.332031 52.132812 175.058594 52.132812 175.058594 52.445312 C 175.058594 52.738281 175.332031 52.738281 175.585938 52.738281 Z M 183.671875 52.738281 "/>
<path style=" stroke:none;fill-rule:nonzero;fill:rgb(0%,0%,0%);fill-opacity:1;" d="M 195.355469 53.65625 L 195.023438 53.65625 C 194.964844 53.910156 194.847656 54.75 194.710938 54.984375 C 194.59375 55.121094 193.753906 55.121094 193.304688 55.121094 L 190.53125 55.121094 C 190.941406 54.769531 191.859375 53.8125 192.230469 53.460938 C 194.515625 51.371094 195.355469 50.589844 195.355469 49.105469 C 195.355469 47.386719 193.988281 46.234375 192.25 46.234375 C 190.53125 46.234375 189.496094 47.71875 189.496094 49.007812 C 189.496094 49.769531 190.160156 49.769531 190.199219 49.769531 C 190.53125 49.769531 190.902344 49.535156 190.902344 49.066406 C 190.902344 48.636719 190.628906 48.363281 190.199219 48.363281 C 190.082031 48.363281 190.042969 48.363281 190.003906 48.382812 C 190.277344 47.367188 191.097656 46.664062 192.054688 46.664062 C 193.324219 46.664062 194.105469 47.738281 194.105469 49.105469 C 194.105469 50.375 193.382812 51.488281 192.523438 52.445312 L 189.496094 55.824219 L 189.496094 56.175781 L 194.964844 56.175781 Z M 195.355469 53.65625 "/>
<path style="fill:none;stroke-width:1;stroke-linecap:butt;stroke-linejoin:miter;stroke:rgb(0%,0%,0%);stroke-opacity:1;stroke-miterlimit:10;" d="M -0.014005 0.000255 L 56.985995 0.000255 " transform="matrix(1.25,0,0,-1.25,125.23235,62.5511)"/>
<path style=" stroke:none;fill-rule:nonzero;fill:rgb(0%,0%,0%);fill-opacity:1;" d="M 139.929688 80.171875 C 139.929688 80.132812 139.929688 80.09375 139.675781 79.839844 C 138.171875 78.335938 137.332031 75.875 137.332031 72.828125 C 137.332031 69.917969 138.035156 67.417969 139.773438 65.660156 C 139.929688 65.523438 139.929688 65.503906 139.929688 65.445312 C 139.929688 65.367188 139.851562 65.328125 139.792969 65.328125 C 139.597656 65.328125 138.367188 66.402344 137.644531 67.867188 C 136.882812 69.390625 136.53125 70.972656 136.53125 72.828125 C 136.53125 74.15625 136.746094 75.933594 137.507812 77.515625 C 138.40625 79.3125 139.617188 80.289062 139.792969 80.289062 C 139.851562 80.289062 139.929688 80.25 139.929688 80.171875 Z M 139.929688 80.171875 "/>
<path style=" stroke:none;fill-rule:nonzero;fill:rgb(0%,0%,0%);fill-opacity:1;" d="M 147.847656 70.445312 C 147.359375 70.523438 147.183594 70.894531 147.183594 71.167969 C 147.183594 71.539062 147.457031 71.65625 147.671875 71.65625 C 148.121094 71.65625 148.433594 71.265625 148.433594 70.855469 C 148.433594 70.230469 147.710938 69.957031 147.085938 69.957031 C 146.1875 69.957031 145.679688 70.855469 145.542969 71.128906 C 145.191406 70.015625 144.273438 69.957031 144 69.957031 C 142.476562 69.957031 141.675781 71.910156 141.675781 72.242188 C 141.675781 72.300781 141.734375 72.378906 141.832031 72.378906 C 141.949219 72.378906 141.988281 72.28125 142.007812 72.222656 C 142.515625 70.5625 143.53125 70.25 143.960938 70.25 C 144.625 70.25 144.761719 70.875 144.761719 71.226562 C 144.761719 71.558594 144.664062 71.910156 144.488281 72.632812 L 143.980469 74.664062 C 143.765625 75.5625 143.335938 76.382812 142.535156 76.382812 C 142.457031 76.382812 142.085938 76.382812 141.773438 76.1875 C 142.320312 76.089844 142.4375 75.640625 142.4375 75.464844 C 142.4375 75.171875 142.203125 74.976562 141.929688 74.976562 C 141.558594 74.976562 141.167969 75.308594 141.167969 75.777344 C 141.167969 76.402344 141.871094 76.695312 142.515625 76.695312 C 143.238281 76.695312 143.746094 76.128906 144.058594 75.503906 C 144.292969 76.382812 145.054688 76.695312 145.601562 76.695312 C 147.125 76.695312 147.925781 74.722656 147.925781 74.410156 C 147.925781 74.332031 147.867188 74.273438 147.789062 74.273438 C 147.652344 74.273438 147.632812 74.351562 147.59375 74.46875 C 147.183594 75.777344 146.324219 76.382812 145.640625 76.382812 C 145.113281 76.382812 144.839844 75.992188 144.839844 75.386719 C 144.839844 75.054688 144.898438 74.820312 145.132812 73.84375 L 145.660156 71.792969 C 145.875 70.914062 146.382812 70.25 147.085938 70.25 C 147.105469 70.25 147.535156 70.25 147.847656 70.445312 Z M 147.847656 70.445312 "/>
<path style=" stroke:none;fill-rule:nonzero;fill:rgb(0%,0%,0%);fill-opacity:1;" d="M 162.234375 73.101562 C 162.488281 73.101562 162.761719 73.101562 162.761719 72.808594 C 162.761719 72.496094 162.488281 72.496094 162.234375 72.496094 L 154.148438 72.496094 C 153.894531 72.496094 153.621094 72.496094 153.621094 72.808594 C 153.621094 73.101562 153.894531 73.101562 154.148438 73.101562 Z M 162.234375 73.101562 "/>
<path style=" stroke:none;fill-rule:nonzero;fill:rgb(0%,0%,0%);fill-opacity:1;" d="M 173.917969 74.019531 L 173.585938 74.019531 C 173.527344 74.273438 173.410156 75.113281 173.273438 75.347656 C 173.15625 75.484375 172.316406 75.484375 171.867188 75.484375 L 169.09375 75.484375 C 169.503906 75.132812 170.421875 74.175781 170.792969 73.824219 C 173.078125 71.734375 173.917969 70.953125 173.917969 69.46875 C 173.917969 67.75 172.550781 66.597656 170.8125 66.597656 C 169.09375 66.597656 168.058594 68.082031 168.058594 69.371094 C 168.058594 70.132812 168.722656 70.132812 168.761719 70.132812 C 169.09375 70.132812 169.464844 69.898438 169.464844 69.429688 C 169.464844 69 169.191406 68.726562 168.761719 68.726562 C 168.644531 68.726562 168.605469 68.726562 168.566406 68.746094 C 168.839844 67.730469 169.660156 67.027344 170.617188 67.027344 C 171.886719 67.027344 172.667969 68.101562 172.667969 69.46875 C 172.667969 70.738281 171.945312 71.851562 171.085938 72.808594 L 168.058594 76.1875 L 168.058594 76.539062 L 173.527344 76.539062 Z M 173.917969 74.019531 "/>
<path style=" stroke:none;fill-rule:nonzero;fill:rgb(0%,0%,0%);fill-opacity:1;" d="M 178.871094 72.828125 C 178.871094 71.675781 178.714844 69.839844 177.875 68.101562 C 176.996094 66.304688 175.765625 65.328125 175.609375 65.328125 C 175.550781 65.328125 175.472656 65.367188 175.472656 65.445312 C 175.472656 65.503906 175.472656 65.523438 175.726562 65.777344 C 177.230469 67.28125 178.050781 69.761719 178.050781 72.808594 C 178.050781 75.699219 177.347656 78.199219 175.628906 79.957031 C 175.472656 80.09375 175.472656 80.132812 175.472656 80.171875 C 175.472656 80.25 175.550781 80.289062 175.609375 80.289062 C 175.804688 80.289062 177.035156 79.214844 177.757812 77.75 C 178.519531 76.226562 178.871094 74.605469 178.871094 72.828125 Z M 178.871094 72.828125 "/>
<path style=" stroke:none;fill-rule:nonzero;fill:rgb(0%,0%,0%);fill-opacity:1;" d="M 182.863281 68.902344 C 183.644531 68.902344 184.152344 69.46875 184.152344 70.523438 C 184.152344 71.773438 183.449219 72.125 182.921875 72.125 C 182.375 72.125 181.613281 71.929688 181.261719 71.402344 C 181.632812 71.402344 181.886719 71.167969 181.886719 70.855469 C 181.886719 70.523438 181.652344 70.308594 181.320312 70.308594 C 181.066406 70.308594 180.773438 70.464844 180.773438 70.875 C 180.773438 71.8125 181.789062 72.4375 182.941406 72.4375 C 184.25 72.4375 185.1875 71.519531 185.1875 70.523438 C 185.1875 69.683594 184.523438 68.941406 183.507812 68.707031 C 184.289062 68.433594 184.894531 67.769531 184.894531 66.96875 C 184.894531 66.167969 183.996094 65.601562 182.960938 65.601562 C 181.886719 65.601562 181.085938 66.167969 181.085938 66.929688 C 181.085938 67.300781 181.320312 67.457031 181.59375 67.457031 C 181.90625 67.457031 182.101562 67.242188 182.101562 66.949219 C 182.101562 66.578125 181.769531 66.441406 181.554688 66.441406 C 181.984375 65.894531 182.746094 65.855469 182.921875 65.855469 C 183.175781 65.855469 183.9375 65.933594 183.9375 66.96875 C 183.9375 67.652344 183.644531 68.082031 183.507812 68.238281 C 183.214844 68.550781 182.980469 68.570312 182.375 68.609375 C 182.179688 68.609375 182.101562 68.628906 182.101562 68.765625 C 182.101562 68.902344 182.199219 68.902344 182.375 68.902344 Z M 182.863281 68.902344 "/>
<path style=" stroke:none;fill-rule:nonzero;fill:rgb(0%,0%,0%);fill-opacity:1;" d="M 200.90625 79.648438 L 197.800781 79.648438 L 197.800781 80.46875 L 201.726562 80.46875 L 201.726562 44.609375 L 197.800781 44.609375 L 197.800781 45.429688 L 200.90625 45.429688 Z M 200.90625 79.648438 "/>
<path style=" stroke:none;fill-rule:nonzero;fill:rgb(0%,0%,0%);fill-opacity:1;" d="M 86.242188 102.292969 C 86.457031 102.292969 86.730469 102.292969 86.730469 102.019531 C 86.730469 101.746094 86.476562 101.746094 86.242188 101.746094 L 77.453125 101.746094 C 77.238281 101.746094 76.964844 101.746094 76.964844 102.019531 C 76.964844 102.292969 77.21875 102.292969 77.453125 102.292969 Z M 86.242188 105.066406 C 86.457031 105.066406 86.730469 105.066406 86.730469 104.8125 C 86.730469 104.519531 86.476562 104.519531 86.242188 104.519531 L 77.453125 104.519531 C 77.238281 104.519531 76.964844 104.519531 76.964844 104.792969 C 76.964844 105.066406 77.21875 105.066406 77.453125 105.066406 Z M 86.242188 105.066406 "/>
<path style=" stroke:none;fill-rule:nonzero;fill:rgb(0%,0%,0%);fill-opacity:1;" d="M 94.371094 103.679688 C 94.78125 103.679688 95.796875 103.640625 96.5 103.367188 C 97.632812 102.9375 97.75 102.078125 97.75 101.804688 C 97.75 101.140625 97.183594 100.554688 96.1875 100.554688 C 94.625 100.554688 92.359375 101.960938 92.359375 104.617188 C 92.359375 106.199219 93.257812 107.292969 94.625 107.292969 C 96.65625 107.292969 97.945312 105.710938 97.945312 105.515625 C 97.945312 105.417969 97.847656 105.339844 97.789062 105.339844 C 97.75 105.339844 97.730469 105.359375 97.59375 105.496094 C 96.636719 106.765625 95.230469 106.980469 94.644531 106.980469 C 93.804688 106.980469 93.355469 106.316406 93.355469 105.203125 C 93.355469 105.007812 93.355469 104.617188 93.570312 103.679688 Z M 93.648438 103.367188 C 94.292969 101.0625 95.71875 100.847656 96.1875 100.847656 C 96.851562 100.847656 97.300781 101.238281 97.300781 101.804688 C 97.300781 103.367188 94.898438 103.367188 94.273438 103.367188 Z M 93.648438 103.367188 "/>
<path style=" stroke:none;fill-rule:nonzero;fill:rgb(0%,0%,0%);fill-opacity:1;" d="M 103.476562 97 C 103.027344 97.097656 103.007812 97.488281 103.007812 97.527344 C 103.007812 97.742188 103.183594 97.898438 103.398438 97.898438 C 103.613281 97.898438 103.945312 97.722656 103.945312 97.292969 C 103.945312 96.726562 103.320312 96.570312 102.949219 96.570312 C 102.5 96.570312 102.109375 96.902344 101.875 97.292969 C 101.660156 96.765625 101.152344 96.570312 100.742188 96.570312 C 99.648438 96.570312 99.042969 97.820312 99.042969 98.09375 C 99.042969 98.191406 99.121094 98.230469 99.199219 98.230469 C 99.316406 98.230469 99.335938 98.171875 99.355469 98.054688 C 99.589844 97.332031 100.195312 96.84375 100.703125 96.84375 C 101.09375 96.84375 101.289062 97.136719 101.289062 97.488281 C 101.289062 97.683594 101.171875 98.152344 101.09375 98.464844 C 101.015625 98.757812 100.800781 99.636719 100.742188 99.832031 C 100.605469 100.359375 100.253906 100.789062 99.804688 100.789062 C 99.765625 100.789062 99.511719 100.789062 99.296875 100.652344 C 99.746094 100.535156 99.746094 100.125 99.746094 100.105469 C 99.746094 99.871094 99.570312 99.734375 99.355469 99.734375 C 99.082031 99.734375 98.789062 99.96875 98.789062 100.339844 C 98.789062 100.808594 99.277344 101.0625 99.785156 101.0625 C 100.3125 101.0625 100.683594 100.671875 100.859375 100.339844 C 101.09375 100.828125 101.542969 101.0625 102.03125 101.0625 C 103.105469 101.0625 103.710938 99.8125 103.710938 99.539062 C 103.710938 99.441406 103.632812 99.402344 103.554688 99.402344 C 103.4375 99.402344 103.417969 99.480469 103.378906 99.578125 C 103.183594 100.242188 102.617188 100.789062 102.050781 100.789062 C 101.71875 100.789062 101.484375 100.574219 101.484375 100.144531 C 101.484375 99.949219 101.542969 99.714844 101.679688 99.167969 C 101.738281 98.855469 101.953125 97.996094 102.011719 97.800781 C 102.148438 97.273438 102.5 96.84375 102.949219 96.84375 C 103.007812 96.84375 103.261719 96.84375 103.476562 97 Z M 103.476562 97 "/>
<path style=" stroke:none;fill-rule:nonzero;fill:rgb(0%,0%,0%);fill-opacity:1;" d="M 111.25 103.40625 C 111.25 102.976562 110.898438 102.605469 110.449219 102.605469 C 110.019531 102.605469 109.667969 102.976562 109.667969 103.40625 C 109.667969 103.835938 110.019531 104.1875 110.449219 104.1875 C 110.898438 104.1875 111.25 103.835938 111.25 103.40625 Z M 111.25 103.40625 "/>
<path style=" stroke:none;fill-rule:nonzero;fill:rgb(0%,0%,0%);fill-opacity:1;" d="M 119.582031 121.316406 L 123.507812 121.316406 L 123.507812 120.496094 L 120.402344 120.496094 L 120.402344 86.277344 L 123.507812 86.277344 L 123.507812 85.457031 L 119.582031 85.457031 Z M 119.582031 121.316406 "/>
<path style=" stroke:none;fill-rule:nonzero;fill:rgb(0%,0%,0%);fill-opacity:1;" d="M 151.464844 87.453125 C 151.464844 87.101562 151.464844 87.082031 151.171875 87.082031 C 150.820312 87.492188 150.058594 88.039062 148.535156 88.039062 L 148.535156 88.46875 C 148.867188 88.46875 149.609375 88.46875 150.449219 88.097656 L 150.449219 95.871094 C 150.449219 96.417969 150.390625 96.59375 149.082031 96.59375 L 148.613281 96.59375 L 148.613281 97.023438 C 149.023438 96.984375 150.46875 96.984375 150.957031 96.984375 C 151.464844 96.984375 152.890625 96.984375 153.300781 97.023438 L 153.300781 96.59375 L 152.832031 96.59375 C 151.523438 96.59375 151.464844 96.417969 151.464844 95.871094 Z M 151.464844 87.453125 "/>
<path style="fill:none;stroke-width:1;stroke-linecap:butt;stroke-linejoin:miter;stroke:rgb(0%,0%,0%);stroke-opacity:1;stroke-miterlimit:10;" d="M -0.014005 -0.321745 L 40.985995 -0.321745 " transform="matrix(1.25,0,0,-1.25,125.23235,103.3986)"/>
<path style=" stroke:none;fill-rule:nonzero;fill:rgb(0%,0%,0%);fill-opacity:1;" d="M 130.09375 121.019531 C 130.09375 120.980469 130.09375 120.941406 129.839844 120.6875 C 128.335938 119.183594 127.496094 116.722656 127.496094 113.675781 C 127.496094 110.765625 128.199219 108.265625 129.9375 106.507812 C 130.09375 106.371094 130.09375 106.351562 130.09375 106.292969 C 130.09375 106.214844 130.015625 106.175781 129.957031 106.175781 C 129.761719 106.175781 128.53125 107.25 127.808594 108.714844 C 127.046875 110.238281 126.695312 111.820312 126.695312 113.675781 C 126.695312 115.003906 126.910156 116.78125 127.671875 118.363281 C 128.570312 120.160156 129.78125 121.136719 129.957031 121.136719 C 130.015625 121.136719 130.09375 121.097656 130.09375 121.019531 Z M 130.09375 121.019531 "/>
<path style=" stroke:none;fill-rule:nonzero;fill:rgb(0%,0%,0%);fill-opacity:1;" d="M 138.011719 111.292969 C 137.523438 111.371094 137.347656 111.742188 137.347656 112.015625 C 137.347656 112.386719 137.621094 112.503906 137.835938 112.503906 C 138.285156 112.503906 138.597656 112.113281 138.597656 111.703125 C 138.597656 111.078125 137.875 110.804688 137.25 110.804688 C 136.351562 110.804688 135.84375 111.703125 135.707031 111.976562 C 135.355469 110.863281 134.4375 110.804688 134.164062 110.804688 C 132.640625 110.804688 131.839844 112.757812 131.839844 113.089844 C 131.839844 113.148438 131.898438 113.226562 131.996094 113.226562 C 132.113281 113.226562 132.152344 113.128906 132.171875 113.070312 C 132.679688 111.410156 133.695312 111.097656 134.125 111.097656 C 134.789062 111.097656 134.925781 111.722656 134.925781 112.074219 C 134.925781 112.40625 134.828125 112.757812 134.652344 113.480469 L 134.144531 115.511719 C 133.929688 116.410156 133.5 117.230469 132.699219 117.230469 C 132.621094 117.230469 132.25 117.230469 131.9375 117.035156 C 132.484375 116.9375 132.601562 116.488281 132.601562 116.3125 C 132.601562 116.019531 132.367188 115.824219 132.09375 115.824219 C 131.722656 115.824219 131.332031 116.15625 131.332031 116.625 C 131.332031 117.25 132.035156 117.542969 132.679688 117.542969 C 133.402344 117.542969 133.910156 116.976562 134.222656 116.351562 C 134.457031 117.230469 135.21875 117.542969 135.765625 117.542969 C 137.289062 117.542969 138.089844 115.570312 138.089844 115.257812 C 138.089844 115.179688 138.03125 115.121094 137.953125 115.121094 C 137.816406 115.121094 137.796875 115.199219 137.757812 115.316406 C 137.347656 116.625 136.488281 117.230469 135.804688 117.230469 C 135.277344 117.230469 135.003906 116.839844 135.003906 116.234375 C 135.003906 115.902344 135.0625 115.667969 135.296875 114.691406 L 135.824219 112.640625 C 136.039062 111.761719 136.546875 111.097656 137.25 111.097656 C 137.269531 111.097656 137.699219 111.097656 138.011719 111.292969 Z M 138.011719 111.292969 "/>
<path style=" stroke:none;fill-rule:nonzero;fill:rgb(0%,0%,0%);fill-opacity:1;" d="M 152.402344 113.949219 C 152.65625 113.949219 152.929688 113.949219 152.929688 113.65625 C 152.929688 113.34375 152.65625 113.34375 152.402344 113.34375 L 144.316406 113.34375 C 144.0625 113.34375 143.789062 113.34375 143.789062 113.65625 C 143.789062 113.949219 144.0625 113.949219 144.316406 113.949219 Z M 152.402344 113.949219 "/>
<path style=" stroke:none;fill-rule:nonzero;fill:rgb(0%,0%,0%);fill-opacity:1;" d="M 164.085938 114.867188 L 163.753906 114.867188 C 163.695312 115.121094 163.578125 115.960938 163.441406 116.195312 C 163.324219 116.332031 162.484375 116.332031 162.035156 116.332031 L 159.261719 116.332031 C 159.671875 115.980469 160.589844 115.023438 160.960938 114.671875 C 163.246094 112.582031 164.085938 111.800781 164.085938 110.316406 C 164.085938 108.597656 162.71875 107.445312 160.980469 107.445312 C 159.261719 107.445312 158.226562 108.929688 158.226562 110.21875 C 158.226562 110.980469 158.890625 110.980469 158.929688 110.980469 C 159.261719 110.980469 159.632812 110.746094 159.632812 110.277344 C 159.632812 109.847656 159.359375 109.574219 158.929688 109.574219 C 158.8125 109.574219 158.773438 109.574219 158.734375 109.59375 C 159.007812 108.578125 159.828125 107.875 160.785156 107.875 C 162.054688 107.875 162.835938 108.949219 162.835938 110.316406 C 162.835938 111.585938 162.113281 112.699219 161.253906 113.65625 L 158.226562 117.035156 L 158.226562 117.386719 L 163.695312 117.386719 Z M 164.085938 114.867188 "/>
<path style=" stroke:none;fill-rule:nonzero;fill:rgb(0%,0%,0%);fill-opacity:1;" d="M 169.039062 113.675781 C 169.039062 112.523438 168.882812 110.6875 168.042969 108.949219 C 167.164062 107.152344 165.933594 106.175781 165.777344 106.175781 C 165.71875 106.175781 165.640625 106.214844 165.640625 106.292969 C 165.640625 106.351562 165.640625 106.371094 165.894531 106.625 C 167.398438 108.128906 168.21875 110.609375 168.21875 113.65625 C 168.21875 116.546875 167.515625 119.046875 165.796875 120.804688 C 165.640625 120.941406 165.640625 120.980469 165.640625 121.019531 C 165.640625 121.097656 165.71875 121.136719 165.777344 121.136719 C 165.972656 121.136719 167.203125 120.0625 167.925781 118.597656 C 168.6875 117.074219 169.039062 115.453125 169.039062 113.675781 Z M 169.039062 113.675781 "/>
<path style=" stroke:none;fill-rule:nonzero;fill:rgb(0%,0%,0%);fill-opacity:1;" d="M 173.320312 111.035156 C 173.476562 110.878906 173.886719 110.546875 174.0625 110.410156 C 174.667969 109.84375 175.253906 109.296875 175.253906 108.398438 C 175.253906 107.207031 174.257812 106.445312 173.027344 106.445312 C 171.816406 106.445312 171.035156 107.34375 171.035156 108.242188 C 171.035156 108.730469 171.425781 108.789062 171.5625 108.789062 C 171.777344 108.789062 172.089844 108.652344 172.089844 108.261719 C 172.089844 107.753906 171.582031 107.753906 171.464844 107.753906 C 171.757812 107.011719 172.421875 106.777344 172.910156 106.777344 C 173.828125 106.777344 174.316406 107.558594 174.316406 108.398438 C 174.316406 109.433594 173.59375 110.195312 172.402344 111.386719 L 171.152344 112.695312 C 171.035156 112.792969 171.035156 112.8125 171.035156 113.066406 L 174.960938 113.066406 L 175.253906 111.289062 L 174.941406 111.289062 C 174.921875 111.484375 174.84375 111.972656 174.726562 112.167969 C 174.667969 112.246094 173.90625 112.246094 173.75 112.246094 L 171.972656 112.246094 Z M 173.320312 111.035156 "/>
<path style=" stroke:none;fill-rule:nonzero;fill:rgb(0%,0%,0%);fill-opacity:1;" d="M 191.082031 103.695312 C 191.335938 103.695312 191.609375 103.695312 191.609375 103.402344 C 191.609375 103.089844 191.335938 103.089844 191.082031 103.089844 L 182.996094 103.089844 C 182.742188 103.089844 182.46875 103.089844 182.46875 103.402344 C 182.46875 103.695312 182.742188 103.695312 182.996094 103.695312 Z M 191.082031 103.695312 "/>
<path style=" stroke:none;fill-rule:nonzero;fill:rgb(0%,0%,0%);fill-opacity:1;" d="M 226.199219 94.503906 L 225.867188 94.503906 C 225.808594 94.757812 225.691406 95.597656 225.554688 95.832031 C 225.4375 95.96875 224.597656 95.96875 224.148438 95.96875 L 221.375 95.96875 C 221.785156 95.617188 222.703125 94.660156 223.074219 94.308594 C 225.359375 92.21875 226.199219 91.4375 226.199219 89.953125 C 226.199219 88.234375 224.832031 87.082031 223.09375 87.082031 C 221.375 87.082031 220.339844 88.566406 220.339844 89.855469 C 220.339844 90.617188 221.003906 90.617188 221.042969 90.617188 C 221.375 90.617188 221.746094 90.382812 221.746094 89.914062 C 221.746094 89.484375 221.472656 89.210938 221.042969 89.210938 C 220.925781 89.210938 220.886719 89.210938 220.847656 89.230469 C 221.121094 88.214844 221.941406 87.511719 222.898438 87.511719 C 224.167969 87.511719 224.949219 88.585938 224.949219 89.953125 C 224.949219 91.222656 224.226562 92.335938 223.367188 93.292969 L 220.339844 96.671875 L 220.339844 97.023438 L 225.808594 97.023438 Z M 226.199219 94.503906 "/>
<path style="fill:none;stroke-width:1;stroke-linecap:butt;stroke-linejoin:miter;stroke:rgb(0%,0%,0%);stroke-opacity:1;stroke-miterlimit:10;" d="M 0.028995 -0.321745 L 41.028995 -0.321745 " transform="matrix(1.25,0,0,-1.25,197.6786,103.3986)"/>
<path style=" stroke:none;fill-rule:nonzero;fill:rgb(0%,0%,0%);fill-opacity:1;" d="M 202.542969 121.019531 C 202.542969 120.980469 202.542969 120.941406 202.289062 120.6875 C 200.785156 119.183594 199.945312 116.722656 199.945312 113.675781 C 199.945312 110.765625 200.648438 108.265625 202.386719 106.507812 C 202.542969 106.371094 202.542969 106.351562 202.542969 106.292969 C 202.542969 106.214844 202.464844 106.175781 202.40625 106.175781 C 202.210938 106.175781 200.980469 107.25 200.257812 108.714844 C 199.496094 110.238281 199.144531 111.820312 199.144531 113.675781 C 199.144531 115.003906 199.359375 116.78125 200.121094 118.363281 C 201.019531 120.160156 202.230469 121.136719 202.40625 121.136719 C 202.464844 121.136719 202.542969 121.097656 202.542969 121.019531 Z M 202.542969 121.019531 "/>
<path style=" stroke:none;fill-rule:nonzero;fill:rgb(0%,0%,0%);fill-opacity:1;" d="M 210.457031 111.292969 C 209.96875 111.371094 209.792969 111.742188 209.792969 112.015625 C 209.792969 112.386719 210.066406 112.503906 210.28125 112.503906 C 210.730469 112.503906 211.042969 112.113281 211.042969 111.703125 C 211.042969 111.078125 210.320312 110.804688 209.695312 110.804688 C 208.796875 110.804688 208.289062 111.703125 208.152344 111.976562 C 207.800781 110.863281 206.882812 110.804688 206.609375 110.804688 C 205.085938 110.804688 204.285156 112.757812 204.285156 113.089844 C 204.285156 113.148438 204.34375 113.226562 204.441406 113.226562 C 204.558594 113.226562 204.597656 113.128906 204.617188 113.070312 C 205.125 111.410156 206.140625 111.097656 206.570312 111.097656 C 207.234375 111.097656 207.371094 111.722656 207.371094 112.074219 C 207.371094 112.40625 207.273438 112.757812 207.097656 113.480469 L 206.589844 115.511719 C 206.375 116.410156 205.945312 117.230469 205.144531 117.230469 C 205.066406 117.230469 204.695312 117.230469 204.382812 117.035156 C 204.929688 116.9375 205.046875 116.488281 205.046875 116.3125 C 205.046875 116.019531 204.8125 115.824219 204.539062 115.824219 C 204.167969 115.824219 203.777344 116.15625 203.777344 116.625 C 203.777344 117.25 204.480469 117.542969 205.125 117.542969 C 205.847656 117.542969 206.355469 116.976562 206.667969 116.351562 C 206.902344 117.230469 207.664062 117.542969 208.210938 117.542969 C 209.734375 117.542969 210.535156 115.570312 210.535156 115.257812 C 210.535156 115.179688 210.476562 115.121094 210.398438 115.121094 C 210.261719 115.121094 210.242188 115.199219 210.203125 115.316406 C 209.792969 116.625 208.933594 117.230469 208.25 117.230469 C 207.722656 117.230469 207.449219 116.839844 207.449219 116.234375 C 207.449219 115.902344 207.507812 115.667969 207.742188 114.691406 L 208.269531 112.640625 C 208.484375 111.761719 208.992188 111.097656 209.695312 111.097656 C 209.714844 111.097656 210.144531 111.097656 210.457031 111.292969 Z M 210.457031 111.292969 "/>
<path style=" stroke:none;fill-rule:nonzero;fill:rgb(0%,0%,0%);fill-opacity:1;" d="M 224.847656 113.949219 C 225.101562 113.949219 225.375 113.949219 225.375 113.65625 C 225.375 113.34375 225.101562 113.34375 224.847656 113.34375 L 216.761719 113.34375 C 216.507812 113.34375 216.234375 113.34375 216.234375 113.65625 C 216.234375 113.949219 216.507812 113.949219 216.761719 113.949219 Z M 224.847656 113.949219 "/>
<path style=" stroke:none;fill-rule:nonzero;fill:rgb(0%,0%,0%);fill-opacity:1;" d="M 236.53125 114.867188 L 236.199219 114.867188 C 236.140625 115.121094 236.023438 115.960938 235.886719 116.195312 C 235.769531 116.332031 234.929688 116.332031 234.480469 116.332031 L 231.707031 116.332031 C 232.117188 115.980469 233.035156 115.023438 233.40625 114.671875 C 235.691406 112.582031 236.53125 111.800781 236.53125 110.316406 C 236.53125 108.597656 235.164062 107.445312 233.425781 107.445312 C 231.707031 107.445312 230.671875 108.929688 230.671875 110.21875 C 230.671875 110.980469 231.335938 110.980469 231.375 110.980469 C 231.707031 110.980469 232.078125 110.746094 232.078125 110.277344 C 232.078125 109.847656 231.804688 109.574219 231.375 109.574219 C 231.257812 109.574219 231.21875 109.574219 231.179688 109.59375 C 231.453125 108.578125 232.273438 107.875 233.230469 107.875 C 234.5 107.875 235.28125 108.949219 235.28125 110.316406 C 235.28125 111.585938 234.558594 112.699219 233.699219 113.65625 L 230.671875 117.035156 L 230.671875 117.386719 L 236.140625 117.386719 Z M 236.53125 114.867188 "/>
<path style=" stroke:none;fill-rule:nonzero;fill:rgb(0%,0%,0%);fill-opacity:1;" d="M 241.484375 113.675781 C 241.484375 112.523438 241.328125 110.6875 240.488281 108.949219 C 239.609375 107.152344 238.378906 106.175781 238.222656 106.175781 C 238.164062 106.175781 238.085938 106.214844 238.085938 106.292969 C 238.085938 106.351562 238.085938 106.371094 238.339844 106.625 C 239.84375 108.128906 240.664062 110.609375 240.664062 113.65625 C 240.664062 116.546875 239.960938 119.046875 238.242188 120.804688 C 238.085938 120.941406 238.085938 120.980469 238.085938 121.019531 C 238.085938 121.097656 238.164062 121.136719 238.222656 121.136719 C 238.417969 121.136719 239.648438 120.0625 240.371094 118.597656 C 241.132812 117.074219 241.484375 115.453125 241.484375 113.675781 Z M 241.484375 113.675781 "/>
<path style=" stroke:none;fill-rule:nonzero;fill:rgb(0%,0%,0%);fill-opacity:1;" d="M 245.472656 109.746094 C 246.253906 109.746094 246.761719 110.3125 246.761719 111.367188 C 246.761719 112.617188 246.058594 112.96875 245.53125 112.96875 C 244.984375 112.96875 244.222656 112.773438 243.871094 112.246094 C 244.242188 112.246094 244.496094 112.011719 244.496094 111.699219 C 244.496094 111.367188 244.261719 111.152344 243.929688 111.152344 C 243.675781 111.152344 243.382812 111.308594 243.382812 111.71875 C 243.382812 112.65625 244.398438 113.28125 245.550781 113.28125 C 246.859375 113.28125 247.796875 112.363281 247.796875 111.367188 C 247.796875 110.527344 247.132812 109.785156 246.117188 109.550781 C 246.898438 109.277344 247.503906 108.613281 247.503906 107.8125 C 247.503906 107.011719 246.605469 106.445312 245.570312 106.445312 C 244.496094 106.445312 243.695312 107.011719 243.695312 107.773438 C 243.695312 108.144531 243.929688 108.300781 244.203125 108.300781 C 244.515625 108.300781 244.710938 108.085938 244.710938 107.792969 C 244.710938 107.421875 244.378906 107.285156 244.164062 107.285156 C 244.59375 106.738281 245.355469 106.699219 245.53125 106.699219 C 245.785156 106.699219 246.546875 106.777344 246.546875 107.8125 C 246.546875 108.496094 246.253906 108.925781 246.117188 109.082031 C 245.824219 109.394531 245.589844 109.414062 244.984375 109.453125 C 244.789062 109.453125 244.710938 109.472656 244.710938 109.609375 C 244.710938 109.746094 244.808594 109.746094 244.984375 109.746094 Z M 245.472656 109.746094 "/>
<path style=" stroke:none;fill-rule:nonzero;fill:rgb(0%,0%,0%);fill-opacity:1;" d="M 253.683594 120.496094 L 250.578125 120.496094 L 250.578125 121.316406 L 254.503906 121.316406 L 254.503906 85.457031 L 250.578125 85.457031 L 250.578125 86.277344 L 253.683594 86.277344 Z M 253.683594 120.496094 "/>
</g>
</svg>
