<?xml version="1.0" encoding="UTF-8"?>
<svg xmlns="http://www.w3.org/2000/svg" xmlns:xlink="http://www.w3.org/1999/xlink" width="147.52235pt" height="31.181564pt" viewBox="0 0 147.52235 31.181564" version="1.1">
<g id="surface1">
<path style=" stroke:none;fill-rule:nonzero;fill:rgb(0%,0%,0%);fill-opacity:1;" d="M 1.289062 10.402344 L 0 10.402344 L 0 20.773438 L 1.289062 20.773438 Z M 1.289062 10.402344 "/>
<path style=" stroke:none;fill-rule:nonzero;fill:rgb(0%,0%,0%);fill-opacity:1;" d="M 8.957031 16.28125 C 8.957031 15.363281 8.761719 13.996094 6.964844 13.996094 C 6.125 13.996094 5.402344 14.367188 4.835938 15.089844 L 4.835938 14.074219 L 3.78125 14.074219 L 3.78125 20.773438 L 4.914062 20.773438 L 4.914062 17.0625 C 4.914062 16.125 5.265625 14.894531 6.398438 14.894531 C 7.785156 14.894531 7.824219 15.851562 7.824219 16.378906 L 7.824219 20.773438 L 8.957031 20.773438 Z M 8.957031 16.28125 "/>
<path style=" stroke:none;fill-rule:nonzero;fill:rgb(0%,0%,0%);fill-opacity:1;" d="M 17.566406 15.011719 L 19.617188 15.011719 L 19.617188 14.132812 L 17.566406 14.132812 L 17.566406 12.238281 L 16.53125 12.238281 L 16.53125 14.132812 L 15.28125 14.132812 L 15.28125 15.011719 L 16.492188 15.011719 L 16.492188 19.015625 C 16.492188 19.894531 16.6875 20.929688 17.722656 20.929688 C 18.71875 20.929688 19.421875 20.578125 19.871094 20.34375 L 19.65625 19.464844 C 19.128906 19.933594 18.582031 19.992188 18.308594 19.992188 C 17.644531 19.992188 17.566406 19.289062 17.566406 18.761719 Z M 17.566406 15.011719 "/>
<path style=" stroke:none;fill-rule:nonzero;fill:rgb(0%,0%,0%);fill-opacity:1;" d="M 26.621094 16.28125 C 26.621094 15.363281 26.425781 13.996094 24.628906 13.996094 C 23.59375 13.996094 22.910156 14.582031 22.558594 15.011719 L 22.558594 10.402344 L 21.445312 10.402344 L 21.445312 20.773438 L 22.578125 20.773438 L 22.578125 17.0625 C 22.578125 16.125 22.929688 14.894531 24.0625 14.894531 C 25.449219 14.894531 25.488281 15.851562 25.488281 16.378906 L 25.488281 20.773438 L 26.621094 20.773438 Z M 26.621094 16.28125 "/>
<path style=" stroke:none;fill-rule:nonzero;fill:rgb(0%,0%,0%);fill-opacity:1;" d="M 33.875 17.414062 C 33.875 16.769531 33.816406 15.851562 33.347656 15.070312 C 32.722656 14.035156 31.6875 13.917969 31.257812 13.917969 C 29.636719 13.917969 28.289062 15.460938 28.289062 17.414062 C 28.289062 19.386719 29.734375 20.929688 31.453125 20.929688 C 32.15625 20.929688 32.976562 20.734375 33.796875 20.128906 C 33.796875 20.070312 33.738281 19.601562 33.738281 19.582031 C 33.738281 19.5625 33.699219 19.230469 33.699219 19.171875 C 32.820312 19.914062 31.941406 20.03125 31.492188 20.03125 C 30.339844 20.03125 29.363281 18.996094 29.324219 17.414062 Z M 29.421875 16.613281 C 29.675781 15.597656 30.378906 14.816406 31.257812 14.816406 C 31.707031 14.816406 32.742188 15.011719 32.996094 16.613281 Z M 29.421875 16.613281 "/>
<path style=" stroke:none;fill-rule:nonzero;fill:rgb(0%,0%,0%);fill-opacity:1;" d="M 41.453125 10.402344 L 40.359375 10.402344 L 40.359375 20.773438 L 41.453125 20.773438 Z M 41.453125 10.402344 "/>
<path style=" stroke:none;fill-rule:nonzero;fill:rgb(0%,0%,0%);fill-opacity:1;" d="M 48.472656 16.398438 C 48.472656 14.953125 47.4375 13.917969 46.050781 13.917969 C 45.152344 13.917969 44.488281 14.132812 43.746094 14.542969 L 43.84375 15.519531 C 44.507812 15.050781 45.191406 14.777344 46.050781 14.777344 C 46.734375 14.777344 47.339844 15.34375 47.339844 16.417969 L 47.339844 17.042969 C 46.675781 17.0625 45.777344 17.121094 44.878906 17.414062 C 43.863281 17.746094 43.296875 18.3125 43.296875 19.054688 C 43.296875 19.71875 43.6875 20.929688 44.957031 20.929688 C 45.777344 20.929688 46.8125 20.675781 47.378906 20.226562 L 47.378906 20.773438 L 48.472656 20.773438 Z M 47.339844 18.761719 C 47.339844 19.074219 47.339844 19.425781 46.851562 19.71875 C 46.441406 19.972656 45.933594 20.03125 45.71875 20.03125 C 44.898438 20.03125 44.351562 19.601562 44.351562 19.035156 C 44.351562 18.019531 46.421875 17.804688 47.339844 17.804688 Z M 47.339844 18.761719 "/>
<path style=" stroke:none;fill-rule:nonzero;fill:rgb(0%,0%,0%);fill-opacity:1;" d="M 54.65625 14.386719 C 53.699219 13.9375 52.898438 13.917969 52.546875 13.917969 C 52.214844 13.917969 50.125 13.917969 50.125 15.851562 C 50.125 16.515625 50.496094 16.964844 50.710938 17.179688 C 51.257812 17.628906 51.628906 17.707031 52.507812 17.882812 C 52.996094 18 53.855469 18.175781 53.855469 18.957031 C 53.855469 19.992188 52.703125 19.992188 52.488281 19.992188 C 51.902344 19.992188 51.023438 19.835938 50.222656 19.25 L 50.046875 20.265625 C 50.105469 20.304688 51.121094 20.929688 52.507812 20.929688 C 54.441406 20.929688 54.890625 19.757812 54.890625 18.878906 C 54.890625 18.117188 54.441406 17.628906 54.382812 17.570312 C 53.816406 16.984375 53.367188 16.90625 52.46875 16.730469 C 51.921875 16.613281 51.160156 16.476562 51.160156 15.714844 C 51.160156 14.796875 52.214844 14.796875 52.410156 14.796875 C 53.191406 14.796875 53.816406 14.972656 54.480469 15.34375 Z M 54.65625 14.386719 "/>
<path style=" stroke:none;fill-rule:nonzero;fill:rgb(0%,0%,0%);fill-opacity:1;" d="M 57.800781 15.011719 L 59.851562 15.011719 L 59.851562 14.132812 L 57.800781 14.132812 L 57.800781 12.238281 L 56.765625 12.238281 L 56.765625 14.132812 L 55.515625 14.132812 L 55.515625 15.011719 L 56.726562 15.011719 L 56.726562 19.015625 C 56.726562 19.894531 56.921875 20.929688 57.957031 20.929688 C 58.953125 20.929688 59.65625 20.578125 60.105469 20.34375 L 59.890625 19.464844 C 59.363281 19.933594 58.816406 19.992188 58.542969 19.992188 C 57.878906 19.992188 57.800781 19.289062 57.800781 18.761719 Z M 57.800781 15.011719 "/>
<path style=" stroke:none;fill-rule:nonzero;fill:rgb(0%,0%,0%);fill-opacity:1;" d="M 70.417969 14.386719 C 69.460938 13.9375 68.660156 13.917969 68.308594 13.917969 C 67.976562 13.917969 65.886719 13.917969 65.886719 15.851562 C 65.886719 16.515625 66.257812 16.964844 66.472656 17.179688 C 67.019531 17.628906 67.390625 17.707031 68.269531 17.882812 C 68.757812 18 69.617188 18.175781 69.617188 18.957031 C 69.617188 19.992188 68.464844 19.992188 68.25 19.992188 C 67.664062 19.992188 66.785156 19.835938 65.984375 19.25 L 65.808594 20.265625 C 65.867188 20.304688 66.882812 20.929688 68.269531 20.929688 C 70.203125 20.929688 70.652344 19.757812 70.652344 18.878906 C 70.652344 18.117188 70.203125 17.628906 70.144531 17.570312 C 69.578125 16.984375 69.128906 16.90625 68.230469 16.730469 C 67.683594 16.613281 66.921875 16.476562 66.921875 15.714844 C 66.921875 14.796875 67.976562 14.796875 68.171875 14.796875 C 68.953125 14.796875 69.578125 14.972656 70.242188 15.34375 Z M 70.417969 14.386719 "/>
<path style=" stroke:none;fill-rule:nonzero;fill:rgb(0%,0%,0%);fill-opacity:1;" d="M 73.566406 15.011719 L 75.617188 15.011719 L 75.617188 14.132812 L 73.566406 14.132812 L 73.566406 12.238281 L 72.53125 12.238281 L 72.53125 14.132812 L 71.28125 14.132812 L 71.28125 15.011719 L 72.492188 15.011719 L 72.492188 19.015625 C 72.492188 19.894531 72.6875 20.929688 73.722656 20.929688 C 74.71875 20.929688 75.421875 20.578125 75.871094 20.34375 L 75.65625 19.464844 C 75.128906 19.933594 74.582031 19.992188 74.308594 19.992188 C 73.644531 19.992188 73.566406 19.289062 73.566406 18.761719 Z M 73.566406 15.011719 "/>
<path style=" stroke:none;fill-rule:nonzero;fill:rgb(0%,0%,0%);fill-opacity:1;" d="M 82.367188 17.414062 C 82.367188 16.769531 82.308594 15.851562 81.839844 15.070312 C 81.214844 14.035156 80.179688 13.917969 79.75 13.917969 C 78.128906 13.917969 76.78125 15.460938 76.78125 17.414062 C 76.78125 19.386719 78.226562 20.929688 79.945312 20.929688 C 80.648438 20.929688 81.46875 20.734375 82.289062 20.128906 C 82.289062 20.070312 82.230469 19.601562 82.230469 19.582031 C 82.230469 19.5625 82.191406 19.230469 82.191406 19.171875 C 81.3125 19.914062 80.433594 20.03125 79.984375 20.03125 C 78.832031 20.03125 77.855469 18.996094 77.816406 17.414062 Z M 77.914062 16.613281 C 78.167969 15.597656 78.871094 14.816406 79.75 14.816406 C 80.199219 14.816406 81.234375 15.011719 81.488281 16.613281 Z M 77.914062 16.613281 "/>
<path style=" stroke:none;fill-rule:nonzero;fill:rgb(0%,0%,0%);fill-opacity:1;" d="M 85.101562 20.109375 C 85.609375 20.558594 86.234375 20.929688 87.035156 20.929688 C 88.480469 20.929688 89.75 19.464844 89.75 17.433594 C 89.75 15.636719 88.8125 13.996094 87.40625 13.996094 C 86.800781 13.996094 85.84375 14.191406 85.0625 14.835938 L 85.0625 14.132812 L 83.96875 14.132812 L 83.96875 23.664062 L 85.101562 23.664062 Z M 85.101562 15.753906 C 85.433594 15.246094 86 14.914062 86.625 14.914062 C 87.71875 14.914062 88.617188 16.027344 88.617188 17.453125 C 88.617188 18.957031 87.601562 20.03125 86.488281 20.03125 C 86.078125 20.03125 85.785156 19.875 85.511719 19.660156 C 85.140625 19.347656 85.101562 19.074219 85.101562 18.839844 Z M 85.101562 15.753906 "/>
<path style=" stroke:none;fill-rule:nonzero;fill:rgb(0%,0%,0%);fill-opacity:1;" d="M 104.199219 0.664062 C 104.21875 0.605469 104.238281 0.527344 104.238281 0.449219 C 104.238281 0.292969 104.082031 0.292969 104.0625 0.292969 C 104.042969 0.292969 103.320312 0.351562 103.242188 0.371094 C 102.988281 0.390625 102.753906 0.410156 102.5 0.429688 C 102.109375 0.46875 102.011719 0.46875 102.011719 0.742188 C 102.011719 0.898438 102.128906 0.898438 102.34375 0.898438 C 103.066406 0.898438 103.085938 1.035156 103.085938 1.171875 C 103.085938 1.269531 103.066406 1.386719 103.046875 1.425781 L 102.128906 5.058594 C 101.972656 4.667969 101.5625 4.082031 100.78125 4.082031 C 99.101562 4.082031 97.285156 6.25 97.285156 8.476562 C 97.285156 9.941406 98.144531 10.820312 99.160156 10.820312 C 99.980469 10.820312 100.683594 10.175781 101.09375 9.6875 C 101.25 10.566406 101.953125 10.820312 102.402344 10.820312 C 102.851562 10.820312 103.203125 10.546875 103.476562 10 C 103.710938 9.492188 103.925781 8.59375 103.925781 8.535156 C 103.925781 8.457031 103.867188 8.398438 103.769531 8.398438 C 103.632812 8.398438 103.632812 8.476562 103.574219 8.691406 C 103.339844 9.570312 103.066406 10.507812 102.441406 10.507812 C 102.011719 10.507812 101.992188 10.117188 101.992188 9.824219 C 101.992188 9.765625 101.992188 9.453125 102.089844 9.042969 Z M 101.171875 8.886719 C 101.09375 9.140625 101.09375 9.179688 100.898438 9.453125 C 100.566406 9.863281 99.902344 10.507812 99.199219 10.507812 C 98.59375 10.507812 98.242188 9.960938 98.242188 9.082031 C 98.242188 8.261719 98.710938 6.582031 99.003906 5.957031 C 99.511719 4.902344 100.214844 4.375 100.78125 4.375 C 101.777344 4.375 101.972656 5.605469 101.972656 5.722656 C 101.972656 5.742188 101.933594 5.917969 101.914062 5.957031 Z M 101.171875 8.886719 "/>
<path style=" stroke:none;fill-rule:nonzero;fill:rgb(0%,0%,0%);fill-opacity:1;" d="M 106.820312 9.003906 C 106.292969 9.882812 105.785156 10.195312 105.082031 10.234375 C 104.90625 10.253906 104.789062 10.253906 104.789062 10.507812 C 104.789062 10.605469 104.867188 10.664062 104.964844 10.664062 C 105.238281 10.664062 105.902344 10.625 106.175781 10.625 C 106.605469 10.625 107.09375 10.664062 107.503906 10.664062 C 107.601562 10.664062 107.777344 10.664062 107.777344 10.371094 C 107.777344 10.253906 107.660156 10.234375 107.5625 10.234375 C 107.230469 10.195312 106.9375 10.078125 106.9375 9.726562 C 106.9375 9.511719 107.035156 9.355469 107.230469 9.023438 L 108.363281 7.128906 L 112.171875 7.128906 C 112.191406 7.265625 112.191406 7.382812 112.191406 7.519531 C 112.25 7.910156 112.425781 9.472656 112.425781 9.746094 C 112.425781 10.195312 111.664062 10.234375 111.429688 10.234375 C 111.253906 10.234375 111.097656 10.234375 111.097656 10.507812 C 111.097656 10.664062 111.234375 10.664062 111.3125 10.664062 C 111.566406 10.664062 111.878906 10.625 112.132812 10.625 L 112.972656 10.625 C 113.890625 10.625 114.554688 10.664062 114.554688 10.664062 C 114.671875 10.664062 114.828125 10.664062 114.828125 10.371094 C 114.828125 10.234375 114.691406 10.234375 114.476562 10.234375 C 113.65625 10.234375 113.636719 10.097656 113.597656 9.648438 L 112.679688 0.332031 C 112.640625 0.0195312 112.582031 0 112.425781 0 C 112.269531 0 112.191406 0.0195312 112.054688 0.253906 Z M 108.617188 6.699219 L 111.625 1.679688 L 112.132812 6.699219 Z M 108.617188 6.699219 "/>
<path style="fill:none;stroke-width:1;stroke-linecap:butt;stroke-linejoin:miter;stroke:rgb(0%,0%,0%);stroke-opacity:1;stroke-miterlimit:10;" d="M 0.078995 -0.297869 L 15.078995 -0.297869 " transform="matrix(1.25,0,0,-1.25,96.6786,17.03782)"/>
<path style=" stroke:none;fill-rule:nonzero;fill:rgb(0%,0%,0%);fill-opacity:1;" d="M 105.523438 21.023438 C 105.542969 20.964844 105.5625 20.886719 105.5625 20.808594 C 105.5625 20.652344 105.40625 20.652344 105.386719 20.652344 C 105.367188 20.652344 104.644531 20.710938 104.566406 20.730469 C 104.3125 20.75 104.078125 20.769531 103.824219 20.789062 C 103.433594 20.828125 103.335938 20.828125 103.335938 21.101562 C 103.335938 21.257812 103.453125 21.257812 103.667969 21.257812 C 104.390625 21.257812 104.410156 21.394531 104.410156 21.53125 C 104.410156 21.628906 104.390625 21.746094 104.371094 21.785156 L 103.453125 25.417969 C 103.296875 25.027344 102.886719 24.441406 102.105469 24.441406 C 100.425781 24.441406 98.609375 26.609375 98.609375 28.835938 C 98.609375 30.300781 99.46875 31.179688 100.484375 31.179688 C 101.304688 31.179688 102.007812 30.535156 102.417969 30.046875 C 102.574219 30.925781 103.277344 31.179688 103.726562 31.179688 C 104.175781 31.179688 104.527344 30.90625 104.800781 30.359375 C 105.035156 29.851562 105.25 28.953125 105.25 28.894531 C 105.25 28.816406 105.191406 28.757812 105.09375 28.757812 C 104.957031 28.757812 104.957031 28.835938 104.898438 29.050781 C 104.664062 29.929688 104.390625 30.867188 103.765625 30.867188 C 103.335938 30.867188 103.316406 30.476562 103.316406 30.183594 C 103.316406 30.125 103.316406 29.8125 103.414062 29.402344 Z M 102.496094 29.246094 C 102.417969 29.5 102.417969 29.539062 102.222656 29.8125 C 101.890625 30.222656 101.226562 30.867188 100.523438 30.867188 C 99.917969 30.867188 99.566406 30.320312 99.566406 29.441406 C 99.566406 28.621094 100.035156 26.941406 100.328125 26.316406 C 100.835938 25.261719 101.539062 24.734375 102.105469 24.734375 C 103.101562 24.734375 103.296875 25.964844 103.296875 26.082031 C 103.296875 26.101562 103.257812 26.277344 103.238281 26.316406 Z M 102.496094 29.246094 "/>
<path style=" stroke:none;fill-rule:nonzero;fill:rgb(0%,0%,0%);fill-opacity:1;" d="M 112.699219 24.929688 C 112.210938 25.007812 112.035156 25.378906 112.035156 25.652344 C 112.035156 26.023438 112.308594 26.140625 112.523438 26.140625 C 112.972656 26.140625 113.285156 25.75 113.285156 25.339844 C 113.285156 24.714844 112.5625 24.441406 111.9375 24.441406 C 111.039062 24.441406 110.53125 25.339844 110.394531 25.613281 C 110.042969 24.5 109.125 24.441406 108.851562 24.441406 C 107.328125 24.441406 106.527344 26.394531 106.527344 26.726562 C 106.527344 26.785156 106.585938 26.863281 106.683594 26.863281 C 106.800781 26.863281 106.839844 26.765625 106.859375 26.707031 C 107.367188 25.046875 108.382812 24.734375 108.8125 24.734375 C 109.476562 24.734375 109.613281 25.359375 109.613281 25.710938 C 109.613281 26.042969 109.515625 26.394531 109.339844 27.117188 L 108.832031 29.148438 C 108.617188 30.046875 108.1875 30.867188 107.386719 30.867188 C 107.308594 30.867188 106.9375 30.867188 106.625 30.671875 C 107.171875 30.574219 107.289062 30.125 107.289062 29.949219 C 107.289062 29.65625 107.054688 29.460938 106.78125 29.460938 C 106.410156 29.460938 106.019531 29.792969 106.019531 30.261719 C 106.019531 30.886719 106.722656 31.179688 107.367188 31.179688 C 108.089844 31.179688 108.597656 30.613281 108.910156 29.988281 C 109.144531 30.867188 109.90625 31.179688 110.453125 31.179688 C 111.976562 31.179688 112.777344 29.207031 112.777344 28.894531 C 112.777344 28.816406 112.71875 28.757812 112.640625 28.757812 C 112.503906 28.757812 112.484375 28.835938 112.445312 28.953125 C 112.035156 30.261719 111.175781 30.867188 110.492188 30.867188 C 109.964844 30.867188 109.691406 30.476562 109.691406 29.871094 C 109.691406 29.539062 109.75 29.304688 109.984375 28.328125 L 110.511719 26.277344 C 110.726562 25.398438 111.234375 24.734375 111.9375 24.734375 C 111.957031 24.734375 112.386719 24.734375 112.699219 24.929688 Z M 112.699219 24.929688 "/>
<path style=" stroke:none;fill-rule:nonzero;fill:rgb(0%,0%,0%);fill-opacity:1;" d="M 130.972656 15.929688 C 131.1875 15.929688 131.460938 15.929688 131.460938 15.65625 C 131.460938 15.382812 131.207031 15.382812 130.972656 15.382812 L 122.183594 15.382812 C 121.96875 15.382812 121.695312 15.382812 121.695312 15.65625 C 121.695312 15.929688 121.949219 15.929688 122.183594 15.929688 Z M 130.972656 18.703125 C 131.1875 18.703125 131.460938 18.703125 131.460938 18.449219 C 131.460938 18.15625 131.207031 18.15625 130.972656 18.15625 L 122.183594 18.15625 C 121.96875 18.15625 121.695312 18.15625 121.695312 18.429688 C 121.695312 18.703125 121.949219 18.703125 122.183594 18.703125 Z M 130.972656 18.703125 "/>
<path style=" stroke:none;fill-rule:nonzero;fill:rgb(0%,0%,0%);fill-opacity:1;" d="M 141.898438 11.59375 C 142.035156 11.027344 142.09375 11.007812 142.679688 11.007812 L 144.613281 11.007812 C 146.3125 11.007812 146.3125 12.433594 146.3125 12.570312 C 146.3125 13.78125 145.101562 15.324219 143.128906 15.324219 L 140.980469 15.324219 Z M 144.417969 15.441406 C 146.058594 15.148438 147.523438 13.996094 147.523438 12.628906 C 147.523438 11.457031 146.507812 10.578125 144.808594 10.578125 L 140.023438 10.578125 C 139.730469 10.578125 139.59375 10.578125 139.59375 10.851562 C 139.59375 11.007812 139.730469 11.007812 139.964844 11.007812 C 140.863281 11.007812 140.863281 11.125 140.863281 11.28125 C 140.863281 11.320312 140.863281 11.398438 140.804688 11.632812 L 138.792969 19.660156 C 138.65625 20.1875 138.617188 20.34375 137.582031 20.34375 C 137.289062 20.34375 137.152344 20.34375 137.152344 20.617188 C 137.152344 20.773438 137.230469 20.773438 137.542969 20.773438 L 142.660156 20.773438 C 144.945312 20.773438 146.703125 19.035156 146.703125 17.53125 C 146.703125 16.300781 145.628906 15.558594 144.417969 15.441406 Z M 142.308594 20.34375 L 140.277344 20.34375 C 140.082031 20.34375 140.042969 20.34375 139.964844 20.324219 C 139.789062 20.304688 139.769531 20.285156 139.769531 20.167969 C 139.769531 20.050781 139.808594 19.972656 139.828125 19.835938 L 140.882812 15.617188 L 143.695312 15.617188 C 145.453125 15.617188 145.453125 17.257812 145.453125 17.375 C 145.453125 18.820312 144.164062 20.34375 142.308594 20.34375 Z M 142.308594 20.34375 "/>
</g>
</svg>
