<?xml version="1.0" encoding="UTF-8"?>
<svg xmlns="http://www.w3.org/2000/svg" xmlns:xlink="http://www.w3.org/1999/xlink" width="265.44609pt" height="111.8647pt" viewBox="0 0 265.44609 111.8647" version="1.1">
<g id="surface1">
<path style=" stroke:none;fill-rule:nonzero;fill:rgb(0%,0%,0%);fill-opacity:1;" d="M 0.859375 39.023438 C 1.445312 39.003906 1.738281 38.59375 1.738281 38.164062 C 1.738281 37.558594 1.308594 37.285156 0.878906 37.285156 C 0.449219 37.285156 0 37.539062 0 38.164062 C 0 39.082031 0.898438 39.84375 1.992188 39.84375 C 4.726562 39.84375 5.742188 35.644531 7.011719 30.449219 C 8.398438 24.785156 9.570312 19.0625 10.527344 13.300781 C 11.191406 9.492188 11.855469 5.898438 12.460938 3.59375 C 12.675781 2.714844 13.300781 0.390625 13.984375 0.390625 C 14.550781 0.390625 15 0.742188 15.078125 0.800781 C 14.472656 0.839844 14.179688 1.230469 14.179688 1.679688 C 14.179688 2.285156 14.628906 2.558594 15.039062 2.558594 C 15.46875 2.558594 15.917969 2.304688 15.917969 1.660156 C 15.917969 0.703125 14.941406 0 13.964844 0 C 12.597656 0 11.582031 1.953125 10.605469 5.605469 C 10.546875 5.800781 8.105469 14.804688 6.132812 26.542969 C 5.664062 29.277344 5.15625 32.265625 4.570312 34.765625 C 4.238281 36.074219 3.417969 39.453125 1.953125 39.453125 C 1.308594 39.453125 0.878906 39.023438 0.859375 39.023438 Z M 0.859375 39.023438 "/>
<path style=" stroke:none;fill-rule:nonzero;fill:rgb(0%,0%,0%);fill-opacity:1;" d="M 23.128906 20.25 C 23.617188 20.25 24.847656 20.210938 25.707031 19.898438 C 27.054688 19.371094 27.191406 18.335938 27.191406 18.003906 C 27.191406 17.222656 26.507812 16.5 25.316406 16.5 C 23.441406 16.5 20.726562 18.199219 20.726562 21.402344 C 20.726562 23.277344 21.800781 24.585938 23.441406 24.585938 C 25.882812 24.585938 27.425781 22.691406 27.425781 22.457031 C 27.425781 22.339844 27.308594 22.261719 27.25 22.261719 C 27.191406 22.261719 27.171875 22.28125 27.015625 22.4375 C 25.863281 23.960938 24.164062 24.234375 23.480469 24.234375 C 22.445312 24.234375 21.917969 23.433594 21.917969 22.105469 C 21.917969 21.851562 21.917969 21.402344 22.191406 20.25 Z M 22.269531 19.898438 C 23.050781 17.125 24.75 16.871094 25.316406 16.871094 C 26.117188 16.871094 26.644531 17.320312 26.644531 18.003906 C 26.644531 19.898438 23.773438 19.898438 23.03125 19.898438 Z M 22.269531 19.898438 "/>
<path style=" stroke:none;fill-rule:nonzero;fill:rgb(0%,0%,0%);fill-opacity:1;" d="M 32.222656 13.234375 C 32.300781 12.921875 32.59375 11.769531 33.453125 11.769531 C 33.511719 11.769531 33.824219 11.769531 34.078125 11.925781 C 33.726562 12.003906 33.492188 12.296875 33.492188 12.609375 C 33.492188 12.804688 33.628906 13.039062 33.960938 13.039062 C 34.234375 13.039062 34.625 12.824219 34.625 12.316406 C 34.625 11.671875 33.902344 11.496094 33.472656 11.496094 C 32.75 11.496094 32.320312 12.160156 32.164062 12.433594 C 31.851562 11.613281 31.1875 11.496094 30.816406 11.496094 C 29.527344 11.496094 28.804688 13.097656 28.804688 13.410156 C 28.804688 13.546875 28.941406 13.546875 28.960938 13.546875 C 29.058594 13.546875 29.097656 13.507812 29.117188 13.410156 C 29.546875 12.082031 30.367188 11.769531 30.796875 11.769531 C 31.03125 11.769531 31.460938 11.886719 31.460938 12.609375 C 31.460938 13 31.246094 13.820312 30.796875 15.578125 C 30.601562 16.339844 30.152344 16.867188 29.605469 16.867188 C 29.527344 16.867188 29.253906 16.867188 28.980469 16.710938 C 29.292969 16.632812 29.566406 16.378906 29.566406 16.027344 C 29.566406 15.695312 29.292969 15.597656 29.117188 15.597656 C 28.726562 15.597656 28.433594 15.910156 28.433594 16.320312 C 28.433594 16.886719 29.039062 17.140625 29.585938 17.140625 C 30.425781 17.140625 30.875 16.261719 30.894531 16.203125 C 31.050781 16.652344 31.5 17.140625 32.242188 17.140625 C 33.53125 17.140625 34.234375 15.539062 34.234375 15.226562 C 34.234375 15.089844 34.136719 15.089844 34.097656 15.089844 C 33.980469 15.089844 33.960938 15.148438 33.921875 15.226562 C 33.511719 16.574219 32.671875 16.867188 32.28125 16.867188 C 31.792969 16.867188 31.597656 16.476562 31.597656 16.046875 C 31.597656 15.773438 31.65625 15.5 31.792969 14.953125 Z M 32.222656 13.234375 "/>
<path style=" stroke:none;fill-rule:nonzero;fill:rgb(0%,0%,0%);fill-opacity:1;" d="M 43.265625 28.882812 L 43.265625 28.238281 L 41.527344 28.238281 L 41.527344 11.617188 L 43.265625 11.617188 L 43.265625 10.972656 L 40.863281 10.972656 L 40.863281 28.882812 Z M 43.265625 28.882812 "/>
<path style=" stroke:none;fill-rule:nonzero;fill:rgb(0%,0%,0%);fill-opacity:1;" d="M 51.65625 17.203125 C 52.027344 17.203125 52.164062 17.203125 52.164062 16.871094 C 52.164062 16.675781 52.027344 16.675781 51.695312 16.675781 L 50.25 16.675781 C 50.582031 14.839844 50.835938 13.570312 50.992188 12.984375 C 51.089844 12.554688 51.460938 12.144531 51.929688 12.144531 C 52.300781 12.144531 52.691406 12.300781 52.867188 12.476562 C 52.164062 12.535156 51.949219 13.0625 51.949219 13.375 C 51.949219 13.726562 52.222656 13.941406 52.554688 13.941406 C 52.925781 13.941406 53.453125 13.628906 53.453125 12.945312 C 53.453125 12.203125 52.710938 11.792969 51.910156 11.792969 C 51.148438 11.792969 50.386719 12.359375 50.035156 13.0625 C 49.703125 13.6875 49.527344 14.332031 49.117188 16.675781 L 47.925781 16.675781 C 47.574219 16.675781 47.398438 16.675781 47.398438 17.007812 C 47.398438 17.203125 47.496094 17.203125 47.867188 17.203125 L 49.019531 17.203125 C 48.6875 18.863281 47.945312 22.925781 47.535156 24.839844 C 47.242188 26.402344 46.96875 27.710938 46.070312 27.710938 C 46.011719 27.710938 45.503906 27.710938 45.171875 27.359375 C 46.089844 27.300781 46.089844 26.5 46.089844 26.480469 C 46.089844 26.128906 45.816406 25.914062 45.484375 25.914062 C 45.113281 25.914062 44.585938 26.226562 44.585938 26.910156 C 44.585938 27.671875 45.367188 28.0625 46.070312 28.0625 C 47.90625 28.0625 48.648438 24.78125 48.84375 23.882812 C 49.175781 22.515625 50.054688 17.75 50.132812 17.203125 Z M 51.65625 17.203125 "/>
<path style=" stroke:none;fill-rule:nonzero;fill:rgb(0%,0%,0%);fill-opacity:1;" d="M 60.058594 28.765625 C 60.058594 28.707031 60.058594 28.667969 59.765625 28.375 C 57.96875 26.558594 56.972656 23.609375 56.972656 19.9375 C 56.972656 16.460938 57.8125 13.472656 59.882812 11.363281 C 60.058594 11.1875 60.058594 11.167969 60.058594 11.109375 C 60.058594 10.992188 59.980469 10.972656 59.902344 10.972656 C 59.667969 10.972656 58.203125 12.261719 57.324219 14.019531 C 56.40625 15.816406 55.996094 17.75 55.996094 19.9375 C 55.996094 21.539062 56.25 23.667969 57.1875 25.601562 C 58.242188 27.75 59.707031 28.902344 59.902344 28.902344 C 59.980469 28.902344 60.058594 28.882812 60.058594 28.765625 Z M 60.058594 28.765625 "/>
<path style=" stroke:none;fill-rule:nonzero;fill:rgb(0%,0%,0%);fill-opacity:1;" d="M 69.5625 17.085938 C 68.996094 17.203125 68.78125 17.632812 68.78125 17.964844 C 68.78125 18.394531 69.113281 18.550781 69.367188 18.550781 C 69.914062 18.550781 70.285156 18.082031 70.285156 17.59375 C 70.285156 16.851562 69.425781 16.5 68.664062 16.5 C 67.570312 16.5 66.964844 17.574219 66.808594 17.925781 C 66.398438 16.578125 65.285156 16.5 64.953125 16.5 C 63.136719 16.5 62.160156 18.84375 62.160156 19.253906 C 62.160156 19.3125 62.238281 19.410156 62.355469 19.410156 C 62.492188 19.410156 62.53125 19.292969 62.570312 19.234375 C 63.175781 17.242188 64.386719 16.871094 64.894531 16.871094 C 65.714844 16.871094 65.871094 17.613281 65.871094 18.042969 C 65.871094 18.433594 65.773438 18.84375 65.539062 19.703125 L 64.933594 22.164062 C 64.679688 23.238281 64.152344 24.234375 63.195312 24.234375 C 63.117188 24.234375 62.667969 24.234375 62.277344 24 C 62.921875 23.863281 63.078125 23.335938 63.078125 23.121094 C 63.078125 22.769531 62.804688 22.554688 62.472656 22.554688 C 62.042969 22.554688 61.574219 22.925781 61.574219 23.492188 C 61.574219 24.253906 62.414062 24.585938 63.175781 24.585938 C 64.035156 24.585938 64.660156 23.902344 65.03125 23.179688 C 65.324219 24.234375 66.203125 24.585938 66.867188 24.585938 C 68.703125 24.585938 69.679688 22.242188 69.679688 21.851562 C 69.679688 21.753906 69.601562 21.675781 69.484375 21.675781 C 69.328125 21.675781 69.308594 21.773438 69.269531 21.910156 C 68.78125 23.492188 67.726562 24.234375 66.925781 24.234375 C 66.300781 24.234375 65.96875 23.765625 65.96875 23.023438 C 65.96875 22.632812 66.027344 22.339844 66.320312 21.167969 L 66.945312 18.726562 C 67.21875 17.652344 67.824219 16.871094 68.644531 16.871094 C 68.683594 16.871094 69.191406 16.871094 69.5625 17.085938 Z M 69.5625 17.085938 "/>
<path style=" stroke:none;fill-rule:nonzero;fill:rgb(0%,0%,0%);fill-opacity:1;" d="M 76.105469 19.9375 C 76.105469 18.589844 75.929688 16.363281 74.914062 14.273438 C 73.859375 12.125 72.394531 10.972656 72.199219 10.972656 C 72.121094 10.972656 72.023438 10.992188 72.023438 11.109375 C 72.023438 11.167969 72.023438 11.1875 72.335938 11.5 C 74.132812 13.316406 75.128906 16.265625 75.128906 19.9375 C 75.128906 23.414062 74.289062 26.402344 72.21875 28.511719 C 72.023438 28.667969 72.023438 28.707031 72.023438 28.765625 C 72.023438 28.882812 72.121094 28.902344 72.199219 28.902344 C 72.433594 28.902344 73.898438 27.613281 74.777344 25.855469 C 75.695312 24.039062 76.105469 22.105469 76.105469 19.9375 Z M 76.105469 19.9375 "/>
<path style=" stroke:none;fill-rule:nonzero;fill:rgb(0%,0%,0%);fill-opacity:1;" d="M 89.003906 20.269531 L 93.964844 20.269531 C 94.21875 20.269531 94.53125 20.269531 94.53125 19.9375 C 94.53125 19.605469 94.21875 19.605469 93.964844 19.605469 L 89.003906 19.605469 L 89.003906 14.664062 C 89.003906 14.410156 89.003906 14.078125 88.691406 14.078125 C 88.339844 14.078125 88.339844 14.390625 88.339844 14.664062 L 88.339844 19.605469 L 83.398438 19.605469 C 83.144531 19.605469 82.832031 19.605469 82.832031 19.9375 C 82.832031 20.269531 83.125 20.269531 83.398438 20.269531 L 88.339844 20.269531 L 88.339844 25.210938 C 88.339844 25.464844 88.339844 25.796875 88.671875 25.796875 C 89.003906 25.796875 89.003906 25.484375 89.003906 25.210938 Z M 89.003906 20.269531 "/>
<path style=" stroke:none;fill-rule:nonzero;fill:rgb(0%,0%,0%);fill-opacity:1;" d="M 107.488281 17.203125 C 107.859375 17.203125 107.996094 17.203125 107.996094 16.871094 C 107.996094 16.675781 107.859375 16.675781 107.527344 16.675781 L 106.082031 16.675781 C 106.414062 14.839844 106.667969 13.570312 106.824219 12.984375 C 106.921875 12.554688 107.292969 12.144531 107.761719 12.144531 C 108.132812 12.144531 108.523438 12.300781 108.699219 12.476562 C 107.996094 12.535156 107.78125 13.0625 107.78125 13.375 C 107.78125 13.726562 108.054688 13.941406 108.386719 13.941406 C 108.757812 13.941406 109.285156 13.628906 109.285156 12.945312 C 109.285156 12.203125 108.542969 11.792969 107.742188 11.792969 C 106.980469 11.792969 106.21875 12.359375 105.867188 13.0625 C 105.535156 13.6875 105.359375 14.332031 104.949219 16.675781 L 103.757812 16.675781 C 103.40625 16.675781 103.230469 16.675781 103.230469 17.007812 C 103.230469 17.203125 103.328125 17.203125 103.699219 17.203125 L 104.851562 17.203125 C 104.519531 18.863281 103.777344 22.925781 103.367188 24.839844 C 103.074219 26.402344 102.800781 27.710938 101.902344 27.710938 C 101.84375 27.710938 101.335938 27.710938 101.003906 27.359375 C 101.921875 27.300781 101.921875 26.5 101.921875 26.480469 C 101.921875 26.128906 101.648438 25.914062 101.316406 25.914062 C 100.945312 25.914062 100.417969 26.226562 100.417969 26.910156 C 100.417969 27.671875 101.199219 28.0625 101.902344 28.0625 C 103.738281 28.0625 104.480469 24.78125 104.675781 23.882812 C 105.007812 22.515625 105.886719 17.75 105.964844 17.203125 Z M 107.488281 17.203125 "/>
<path style=" stroke:none;fill-rule:nonzero;fill:rgb(0%,0%,0%);fill-opacity:1;" d="M 113.214844 11.085938 C 113.292969 10.929688 113.332031 10.832031 113.332031 10.695312 C 113.332031 10.34375 113.019531 10.03125 112.628906 10.03125 C 112.277344 10.03125 112.042969 10.265625 111.964844 10.597656 L 110.480469 16.046875 C 110.480469 16.066406 110.441406 16.203125 110.441406 16.222656 C 110.441406 16.359375 110.753906 16.4375 110.851562 16.4375 C 110.929688 16.4375 110.949219 16.398438 111.007812 16.242188 Z M 113.214844 11.085938 "/>
<path style=" stroke:none;fill-rule:nonzero;fill:rgb(0%,0%,0%);fill-opacity:1;" d="M 119.9375 28.765625 C 119.9375 28.707031 119.9375 28.667969 119.644531 28.375 C 117.847656 26.558594 116.851562 23.609375 116.851562 19.9375 C 116.851562 16.460938 117.691406 13.472656 119.761719 11.363281 C 119.9375 11.1875 119.9375 11.167969 119.9375 11.109375 C 119.9375 10.992188 119.859375 10.972656 119.78125 10.972656 C 119.546875 10.972656 118.082031 12.261719 117.203125 14.019531 C 116.285156 15.816406 115.875 17.75 115.875 19.9375 C 115.875 21.539062 116.128906 23.667969 117.066406 25.601562 C 118.121094 27.75 119.585938 28.902344 119.78125 28.902344 C 119.859375 28.902344 119.9375 28.882812 119.9375 28.765625 Z M 119.9375 28.765625 "/>
<path style=" stroke:none;fill-rule:nonzero;fill:rgb(0%,0%,0%);fill-opacity:1;" d="M 129.441406 17.085938 C 128.875 17.203125 128.660156 17.632812 128.660156 17.964844 C 128.660156 18.394531 128.992188 18.550781 129.246094 18.550781 C 129.792969 18.550781 130.164062 18.082031 130.164062 17.59375 C 130.164062 16.851562 129.304688 16.5 128.542969 16.5 C 127.449219 16.5 126.84375 17.574219 126.6875 17.925781 C 126.277344 16.578125 125.164062 16.5 124.832031 16.5 C 123.015625 16.5 122.039062 18.84375 122.039062 19.253906 C 122.039062 19.3125 122.117188 19.410156 122.234375 19.410156 C 122.371094 19.410156 122.410156 19.292969 122.449219 19.234375 C 123.054688 17.242188 124.265625 16.871094 124.773438 16.871094 C 125.59375 16.871094 125.75 17.613281 125.75 18.042969 C 125.75 18.433594 125.652344 18.84375 125.417969 19.703125 L 124.8125 22.164062 C 124.558594 23.238281 124.03125 24.234375 123.074219 24.234375 C 122.996094 24.234375 122.546875 24.234375 122.15625 24 C 122.800781 23.863281 122.957031 23.335938 122.957031 23.121094 C 122.957031 22.769531 122.683594 22.554688 122.351562 22.554688 C 121.921875 22.554688 121.453125 22.925781 121.453125 23.492188 C 121.453125 24.253906 122.292969 24.585938 123.054688 24.585938 C 123.914062 24.585938 124.539062 23.902344 124.910156 23.179688 C 125.203125 24.234375 126.082031 24.585938 126.746094 24.585938 C 128.582031 24.585938 129.558594 22.242188 129.558594 21.851562 C 129.558594 21.753906 129.480469 21.675781 129.363281 21.675781 C 129.207031 21.675781 129.1875 21.773438 129.148438 21.910156 C 128.660156 23.492188 127.605469 24.234375 126.804688 24.234375 C 126.179688 24.234375 125.847656 23.765625 125.847656 23.023438 C 125.847656 22.632812 125.90625 22.339844 126.199219 21.167969 L 126.824219 18.726562 C 127.097656 17.652344 127.703125 16.871094 128.523438 16.871094 C 128.5625 16.871094 129.070312 16.871094 129.441406 17.085938 Z M 129.441406 17.085938 "/>
<path style=" stroke:none;fill-rule:nonzero;fill:rgb(0%,0%,0%);fill-opacity:1;" d="M 135.984375 19.9375 C 135.984375 18.589844 135.808594 16.363281 134.792969 14.273438 C 133.738281 12.125 132.273438 10.972656 132.078125 10.972656 C 132 10.972656 131.902344 10.992188 131.902344 11.109375 C 131.902344 11.167969 131.902344 11.1875 132.214844 11.5 C 134.011719 13.316406 135.007812 16.265625 135.007812 19.9375 C 135.007812 23.414062 134.167969 26.402344 132.097656 28.511719 C 131.902344 28.667969 131.902344 28.707031 131.902344 28.765625 C 131.902344 28.882812 132 28.902344 132.078125 28.902344 C 132.3125 28.902344 133.777344 27.613281 134.65625 25.855469 C 135.574219 24.039062 135.984375 22.105469 135.984375 19.9375 Z M 135.984375 19.9375 "/>
<path style=" stroke:none;fill-rule:nonzero;fill:rgb(0%,0%,0%);fill-opacity:1;" d="M 140.527344 10.972656 L 138.125 10.972656 L 138.125 11.617188 L 139.863281 11.617188 L 139.863281 28.238281 L 138.125 28.238281 L 138.125 28.882812 L 140.527344 28.882812 Z M 140.527344 10.972656 "/>
<path style=" stroke:none;fill-rule:nonzero;fill:rgb(0%,0%,0%);fill-opacity:1;" d="M 159.726562 18.609375 C 159.980469 18.609375 160.292969 18.609375 160.292969 18.277344 C 160.292969 17.945312 159.980469 17.945312 159.726562 17.945312 L 149.160156 17.945312 C 148.90625 17.945312 148.59375 17.945312 148.59375 18.257812 C 148.59375 18.609375 148.886719 18.609375 149.160156 18.609375 Z M 159.726562 21.929688 C 159.980469 21.929688 160.292969 21.929688 160.292969 21.617188 C 160.292969 21.265625 159.980469 21.265625 159.726562 21.265625 L 149.160156 21.265625 C 148.90625 21.265625 148.59375 21.265625 148.59375 21.597656 C 148.59375 21.929688 148.886719 21.929688 149.160156 21.929688 Z M 159.726562 21.929688 "/>
<path style=" stroke:none;fill-rule:nonzero;fill:rgb(0%,0%,0%);fill-opacity:1;" d="M 169.453125 20.25 C 169.941406 20.25 171.171875 20.210938 172.03125 19.898438 C 173.378906 19.371094 173.515625 18.335938 173.515625 18.003906 C 173.515625 17.222656 172.832031 16.5 171.640625 16.5 C 169.765625 16.5 167.050781 18.199219 167.050781 21.402344 C 167.050781 23.277344 168.125 24.585938 169.765625 24.585938 C 172.207031 24.585938 173.75 22.691406 173.75 22.457031 C 173.75 22.339844 173.632812 22.261719 173.574219 22.261719 C 173.515625 22.261719 173.496094 22.28125 173.339844 22.4375 C 172.1875 23.960938 170.488281 24.234375 169.804688 24.234375 C 168.769531 24.234375 168.242188 23.433594 168.242188 22.105469 C 168.242188 21.851562 168.242188 21.402344 168.515625 20.25 Z M 168.59375 19.898438 C 169.375 17.125 171.074219 16.871094 171.640625 16.871094 C 172.441406 16.871094 172.96875 17.320312 172.96875 18.003906 C 172.96875 19.898438 170.097656 19.898438 169.355469 19.898438 Z M 168.59375 19.898438 "/>
<path style=" stroke:none;fill-rule:nonzero;fill:rgb(0%,0%,0%);fill-opacity:1;" d="M 178.546875 13.234375 C 178.625 12.921875 178.917969 11.769531 179.777344 11.769531 C 179.835938 11.769531 180.148438 11.769531 180.402344 11.925781 C 180.050781 12.003906 179.816406 12.296875 179.816406 12.609375 C 179.816406 12.804688 179.953125 13.039062 180.285156 13.039062 C 180.558594 13.039062 180.949219 12.824219 180.949219 12.316406 C 180.949219 11.671875 180.226562 11.496094 179.796875 11.496094 C 179.074219 11.496094 178.644531 12.160156 178.488281 12.433594 C 178.175781 11.613281 177.511719 11.496094 177.140625 11.496094 C 175.851562 11.496094 175.128906 13.097656 175.128906 13.410156 C 175.128906 13.546875 175.265625 13.546875 175.285156 13.546875 C 175.382812 13.546875 175.421875 13.507812 175.441406 13.410156 C 175.871094 12.082031 176.691406 11.769531 177.121094 11.769531 C 177.355469 11.769531 177.785156 11.886719 177.785156 12.609375 C 177.785156 13 177.570312 13.820312 177.121094 15.578125 C 176.925781 16.339844 176.476562 16.867188 175.929688 16.867188 C 175.851562 16.867188 175.578125 16.867188 175.304688 16.710938 C 175.617188 16.632812 175.890625 16.378906 175.890625 16.027344 C 175.890625 15.695312 175.617188 15.597656 175.441406 15.597656 C 175.050781 15.597656 174.757812 15.910156 174.757812 16.320312 C 174.757812 16.886719 175.363281 17.140625 175.910156 17.140625 C 176.75 17.140625 177.199219 16.261719 177.21875 16.203125 C 177.375 16.652344 177.824219 17.140625 178.566406 17.140625 C 179.855469 17.140625 180.558594 15.539062 180.558594 15.226562 C 180.558594 15.089844 180.460938 15.089844 180.421875 15.089844 C 180.304688 15.089844 180.285156 15.148438 180.246094 15.226562 C 179.835938 16.574219 178.996094 16.867188 178.605469 16.867188 C 178.117188 16.867188 177.921875 16.476562 177.921875 16.046875 C 177.921875 15.773438 177.980469 15.5 178.117188 14.953125 Z M 178.546875 13.234375 "/>
<path style=" stroke:none;fill-rule:nonzero;fill:rgb(0%,0%,0%);fill-opacity:1;" d="M 189.550781 19.9375 C 189.550781 19.410156 189.121094 18.980469 188.613281 18.980469 C 188.085938 18.980469 187.65625 19.410156 187.65625 19.9375 C 187.65625 20.445312 188.085938 20.875 188.613281 20.875 C 189.121094 20.875 189.550781 20.445312 189.550781 19.9375 Z M 189.550781 19.9375 "/>
<path style=" stroke:none;fill-rule:nonzero;fill:rgb(0%,0%,0%);fill-opacity:1;" d="M 203.066406 17.203125 C 203.4375 17.203125 203.574219 17.203125 203.574219 16.871094 C 203.574219 16.675781 203.4375 16.675781 203.105469 16.675781 L 201.660156 16.675781 C 201.992188 14.839844 202.246094 13.570312 202.402344 12.984375 C 202.5 12.554688 202.871094 12.144531 203.339844 12.144531 C 203.710938 12.144531 204.101562 12.300781 204.277344 12.476562 C 203.574219 12.535156 203.359375 13.0625 203.359375 13.375 C 203.359375 13.726562 203.632812 13.941406 203.964844 13.941406 C 204.335938 13.941406 204.863281 13.628906 204.863281 12.945312 C 204.863281 12.203125 204.121094 11.792969 203.320312 11.792969 C 202.558594 11.792969 201.796875 12.359375 201.445312 13.0625 C 201.113281 13.6875 200.9375 14.332031 200.527344 16.675781 L 199.335938 16.675781 C 198.984375 16.675781 198.808594 16.675781 198.808594 17.007812 C 198.808594 17.203125 198.90625 17.203125 199.277344 17.203125 L 200.429688 17.203125 C 200.097656 18.863281 199.355469 22.925781 198.945312 24.839844 C 198.652344 26.402344 198.378906 27.710938 197.480469 27.710938 C 197.421875 27.710938 196.914062 27.710938 196.582031 27.359375 C 197.5 27.300781 197.5 26.5 197.5 26.480469 C 197.5 26.128906 197.226562 25.914062 196.894531 25.914062 C 196.523438 25.914062 195.996094 26.226562 195.996094 26.910156 C 195.996094 27.671875 196.777344 28.0625 197.480469 28.0625 C 199.316406 28.0625 200.058594 24.78125 200.253906 23.882812 C 200.585938 22.515625 201.464844 17.75 201.542969 17.203125 Z M 203.066406 17.203125 "/>
<path style=" stroke:none;fill-rule:nonzero;fill:rgb(0%,0%,0%);fill-opacity:1;" d="M 211.46875 28.765625 C 211.46875 28.707031 211.46875 28.667969 211.175781 28.375 C 209.378906 26.558594 208.382812 23.609375 208.382812 19.9375 C 208.382812 16.460938 209.222656 13.472656 211.292969 11.363281 C 211.46875 11.1875 211.46875 11.167969 211.46875 11.109375 C 211.46875 10.992188 211.390625 10.972656 211.3125 10.972656 C 211.078125 10.972656 209.613281 12.261719 208.734375 14.019531 C 207.816406 15.816406 207.40625 17.75 207.40625 19.9375 C 207.40625 21.539062 207.660156 23.667969 208.597656 25.601562 C 209.652344 27.75 211.117188 28.902344 211.3125 28.902344 C 211.390625 28.902344 211.46875 28.882812 211.46875 28.765625 Z M 211.46875 28.765625 "/>
<path style=" stroke:none;fill-rule:nonzero;fill:rgb(0%,0%,0%);fill-opacity:1;" d="M 220.972656 17.085938 C 220.40625 17.203125 220.191406 17.632812 220.191406 17.964844 C 220.191406 18.394531 220.523438 18.550781 220.777344 18.550781 C 221.324219 18.550781 221.695312 18.082031 221.695312 17.59375 C 221.695312 16.851562 220.835938 16.5 220.074219 16.5 C 218.980469 16.5 218.375 17.574219 218.21875 17.925781 C 217.808594 16.578125 216.695312 16.5 216.363281 16.5 C 214.546875 16.5 213.570312 18.84375 213.570312 19.253906 C 213.570312 19.3125 213.648438 19.410156 213.765625 19.410156 C 213.902344 19.410156 213.941406 19.292969 213.980469 19.234375 C 214.585938 17.242188 215.796875 16.871094 216.304688 16.871094 C 217.125 16.871094 217.28125 17.613281 217.28125 18.042969 C 217.28125 18.433594 217.183594 18.84375 216.949219 19.703125 L 216.34375 22.164062 C 216.089844 23.238281 215.5625 24.234375 214.605469 24.234375 C 214.527344 24.234375 214.078125 24.234375 213.6875 24 C 214.332031 23.863281 214.488281 23.335938 214.488281 23.121094 C 214.488281 22.769531 214.214844 22.554688 213.882812 22.554688 C 213.453125 22.554688 212.984375 22.925781 212.984375 23.492188 C 212.984375 24.253906 213.824219 24.585938 214.585938 24.585938 C 215.445312 24.585938 216.070312 23.902344 216.441406 23.179688 C 216.734375 24.234375 217.613281 24.585938 218.277344 24.585938 C 220.113281 24.585938 221.089844 22.242188 221.089844 21.851562 C 221.089844 21.753906 221.011719 21.675781 220.894531 21.675781 C 220.738281 21.675781 220.71875 21.773438 220.679688 21.910156 C 220.191406 23.492188 219.136719 24.234375 218.335938 24.234375 C 217.710938 24.234375 217.378906 23.765625 217.378906 23.023438 C 217.378906 22.632812 217.4375 22.339844 217.730469 21.167969 L 218.355469 18.726562 C 218.628906 17.652344 219.234375 16.871094 220.054688 16.871094 C 220.09375 16.871094 220.601562 16.871094 220.972656 17.085938 Z M 220.972656 17.085938 "/>
<path style=" stroke:none;fill-rule:nonzero;fill:rgb(0%,0%,0%);fill-opacity:1;" d="M 227.515625 19.9375 C 227.515625 18.589844 227.339844 16.363281 226.324219 14.273438 C 225.269531 12.125 223.804688 10.972656 223.609375 10.972656 C 223.53125 10.972656 223.433594 10.992188 223.433594 11.109375 C 223.433594 11.167969 223.433594 11.1875 223.746094 11.5 C 225.542969 13.316406 226.539062 16.265625 226.539062 19.9375 C 226.539062 23.414062 225.699219 26.402344 223.628906 28.511719 C 223.433594 28.667969 223.433594 28.707031 223.433594 28.765625 C 223.433594 28.882812 223.53125 28.902344 223.609375 28.902344 C 223.84375 28.902344 225.308594 27.613281 226.1875 25.855469 C 227.105469 24.039062 227.515625 22.105469 227.515625 19.9375 Z M 227.515625 19.9375 "/>
<path style=" stroke:none;fill-rule:nonzero;fill:rgb(0%,0%,0%);fill-opacity:1;" d="M 240.414062 20.269531 L 245.375 20.269531 C 245.628906 20.269531 245.941406 20.269531 245.941406 19.9375 C 245.941406 19.605469 245.628906 19.605469 245.375 19.605469 L 240.414062 19.605469 L 240.414062 14.664062 C 240.414062 14.410156 240.414062 14.078125 240.101562 14.078125 C 239.75 14.078125 239.75 14.390625 239.75 14.664062 L 239.75 19.605469 L 234.808594 19.605469 C 234.554688 19.605469 234.242188 19.605469 234.242188 19.9375 C 234.242188 20.269531 234.535156 20.269531 234.808594 20.269531 L 239.75 20.269531 L 239.75 25.210938 C 239.75 25.464844 239.75 25.796875 240.082031 25.796875 C 240.414062 25.796875 240.414062 25.484375 240.414062 25.210938 Z M 240.414062 20.269531 "/>
<path style=" stroke:none;fill-rule:nonzero;fill:rgb(0%,0%,0%);fill-opacity:1;" d="M 264.308594 11.949219 C 264.308594 11.792969 264.171875 11.792969 264.132812 11.792969 C 264.113281 11.792969 264.035156 11.792969 263.898438 11.96875 L 262.648438 13.472656 C 262.023438 12.398438 261.046875 11.792969 259.699219 11.792969 C 255.832031 11.792969 251.808594 15.71875 251.808594 19.9375 C 251.808594 22.925781 253.898438 24.78125 256.515625 24.78125 C 257.960938 24.78125 259.210938 24.175781 260.246094 23.296875 C 261.808594 21.988281 262.277344 20.25 262.277344 20.113281 C 262.277344 19.9375 262.140625 19.9375 262.082031 19.9375 C 261.925781 19.9375 261.90625 20.054688 261.867188 20.132812 C 261.046875 22.925781 258.625 24.273438 256.828125 24.273438 C 254.933594 24.273438 253.273438 23.042969 253.273438 20.503906 C 253.273438 19.9375 253.449219 16.8125 255.480469 14.46875 C 256.476562 13.316406 258.15625 12.300781 259.855469 12.300781 C 261.828125 12.300781 262.707031 13.941406 262.707031 15.777344 C 262.707031 16.226562 262.648438 16.636719 262.648438 16.695312 C 262.648438 16.871094 262.824219 16.871094 262.882812 16.871094 C 263.078125 16.871094 263.097656 16.851562 263.175781 16.519531 Z M 264.308594 11.949219 "/>
<path style=" stroke:none;fill-rule:nonzero;fill:rgb(0%,0%,0%);fill-opacity:1;" d="M 9.71875 87.480469 C 9.71875 86.953125 9.289062 86.523438 8.78125 86.523438 C 8.253906 86.523438 7.824219 86.953125 7.824219 87.480469 C 7.824219 87.988281 8.253906 88.417969 8.78125 88.417969 C 9.269531 88.417969 9.71875 88.007812 9.71875 87.480469 Z M 14.210938 95.234375 C 14.210938 94.726562 13.78125 94.296875 13.253906 94.296875 C 12.746094 94.296875 12.316406 94.726562 12.316406 95.234375 C 12.316406 95.761719 12.746094 96.191406 13.253906 96.191406 C 13.78125 96.191406 14.210938 95.761719 14.210938 95.234375 Z M 5.246094 95.234375 C 5.246094 94.726562 4.816406 94.296875 4.289062 94.296875 C 3.78125 94.296875 3.351562 94.726562 3.351562 95.234375 C 3.351562 95.761719 3.78125 96.191406 4.289062 96.191406 C 4.816406 96.191406 5.246094 95.761719 5.246094 95.234375 Z M 5.246094 95.234375 "/>
<path style=" stroke:none;fill-rule:nonzero;fill:rgb(0%,0%,0%);fill-opacity:1;" d="M 21.597656 109.460938 C 22.183594 109.441406 22.476562 109.03125 22.476562 108.601562 C 22.476562 107.996094 22.046875 107.722656 21.617188 107.722656 C 21.1875 107.722656 20.738281 107.976562 20.738281 108.601562 C 20.738281 109.519531 21.636719 110.28125 22.730469 110.28125 C 25.464844 110.28125 26.480469 106.082031 27.75 100.886719 C 29.136719 95.222656 30.308594 89.5 31.265625 83.738281 C 31.929688 79.929688 32.59375 76.335938 33.199219 74.03125 C 33.414062 73.152344 34.039062 70.828125 34.722656 70.828125 C 35.289062 70.828125 35.738281 71.179688 35.816406 71.238281 C 35.210938 71.277344 34.917969 71.667969 34.917969 72.117188 C 34.917969 72.722656 35.367188 72.996094 35.777344 72.996094 C 36.207031 72.996094 36.65625 72.742188 36.65625 72.097656 C 36.65625 71.140625 35.679688 70.4375 34.703125 70.4375 C 33.335938 70.4375 32.320312 72.390625 31.34375 76.042969 C 31.285156 76.238281 28.84375 85.242188 26.871094 96.980469 C 26.402344 99.714844 25.894531 102.703125 25.308594 105.203125 C 24.976562 106.511719 24.15625 109.890625 22.691406 109.890625 C 22.046875 109.890625 21.617188 109.460938 21.597656 109.460938 Z M 21.597656 109.460938 "/>
<path style=" stroke:none;fill-rule:nonzero;fill:rgb(0%,0%,0%);fill-opacity:1;" d="M 43.867188 90.683594 C 44.355469 90.683594 45.585938 90.644531 46.445312 90.332031 C 47.792969 89.804688 47.929688 88.769531 47.929688 88.4375 C 47.929688 87.65625 47.246094 86.933594 46.054688 86.933594 C 44.179688 86.933594 41.464844 88.632812 41.464844 91.835938 C 41.464844 93.710938 42.539062 95.019531 44.179688 95.019531 C 46.621094 95.019531 48.164062 93.125 48.164062 92.890625 C 48.164062 92.773438 48.046875 92.695312 47.988281 92.695312 C 47.929688 92.695312 47.910156 92.714844 47.753906 92.871094 C 46.601562 94.394531 44.902344 94.667969 44.21875 94.667969 C 43.183594 94.667969 42.65625 93.867188 42.65625 92.539062 C 42.65625 92.285156 42.65625 91.835938 42.929688 90.683594 Z M 43.007812 90.332031 C 43.789062 87.558594 45.488281 87.304688 46.054688 87.304688 C 46.855469 87.304688 47.382812 87.753906 47.382812 88.4375 C 47.382812 90.332031 44.511719 90.332031 43.769531 90.332031 Z M 43.007812 90.332031 "/>
<path style=" stroke:none;fill-rule:nonzero;fill:rgb(0%,0%,0%);fill-opacity:1;" d="M 52.960938 83.671875 C 53.039062 83.359375 53.332031 82.207031 54.191406 82.207031 C 54.25 82.207031 54.5625 82.207031 54.816406 82.363281 C 54.464844 82.441406 54.230469 82.734375 54.230469 83.046875 C 54.230469 83.242188 54.367188 83.476562 54.699219 83.476562 C 54.972656 83.476562 55.363281 83.261719 55.363281 82.753906 C 55.363281 82.109375 54.640625 81.933594 54.210938 81.933594 C 53.488281 81.933594 53.058594 82.597656 52.902344 82.871094 C 52.589844 82.050781 51.925781 81.933594 51.554688 81.933594 C 50.265625 81.933594 49.542969 83.535156 49.542969 83.847656 C 49.542969 83.984375 49.679688 83.984375 49.699219 83.984375 C 49.796875 83.984375 49.835938 83.945312 49.855469 83.847656 C 50.285156 82.519531 51.105469 82.207031 51.535156 82.207031 C 51.769531 82.207031 52.199219 82.324219 52.199219 83.046875 C 52.199219 83.4375 51.984375 84.257812 51.535156 86.015625 C 51.339844 86.777344 50.890625 87.304688 50.34375 87.304688 C 50.265625 87.304688 49.992188 87.304688 49.71875 87.148438 C 50.03125 87.070312 50.304688 86.816406 50.304688 86.464844 C 50.304688 86.132812 50.03125 86.035156 49.855469 86.035156 C 49.464844 86.035156 49.171875 86.347656 49.171875 86.757812 C 49.171875 87.324219 49.777344 87.578125 50.324219 87.578125 C 51.164062 87.578125 51.613281 86.699219 51.632812 86.640625 C 51.789062 87.089844 52.238281 87.578125 52.980469 87.578125 C 54.269531 87.578125 54.972656 85.976562 54.972656 85.664062 C 54.972656 85.527344 54.875 85.527344 54.835938 85.527344 C 54.71875 85.527344 54.699219 85.585938 54.660156 85.664062 C 54.25 87.011719 53.410156 87.304688 53.019531 87.304688 C 52.53125 87.304688 52.335938 86.914062 52.335938 86.484375 C 52.335938 86.210938 52.394531 85.9375 52.53125 85.390625 Z M 52.960938 83.671875 "/>
<path style=" stroke:none;fill-rule:nonzero;fill:rgb(0%,0%,0%);fill-opacity:1;" d="M 64.003906 111.863281 L 68.730469 111.863281 L 68.730469 110.867188 L 65 110.867188 L 65 69.832031 L 68.730469 69.832031 L 68.730469 68.835938 L 64.003906 68.835938 Z M 64.003906 111.863281 "/>
<path style=" stroke:none;fill-rule:nonzero;fill:rgb(0%,0%,0%);fill-opacity:1;" d="M 79.734375 87.070312 C 79.734375 87.011719 79.734375 86.972656 79.441406 86.679688 C 77.644531 84.863281 76.648438 81.914062 76.648438 78.242188 C 76.648438 74.765625 77.488281 71.777344 79.558594 69.667969 C 79.734375 69.492188 79.734375 69.472656 79.734375 69.414062 C 79.734375 69.296875 79.65625 69.277344 79.578125 69.277344 C 79.34375 69.277344 77.878906 70.566406 77 72.324219 C 76.082031 74.121094 75.671875 76.054688 75.671875 78.242188 C 75.671875 79.84375 75.925781 81.972656 76.863281 83.90625 C 77.917969 86.054688 79.382812 87.207031 79.578125 87.207031 C 79.65625 87.207031 79.734375 87.1875 79.734375 87.070312 Z M 79.734375 87.070312 "/>
<path style=" stroke:none;fill-rule:nonzero;fill:rgb(0%,0%,0%);fill-opacity:1;" d="M 89.238281 75.390625 C 88.671875 75.507812 88.457031 75.9375 88.457031 76.269531 C 88.457031 76.699219 88.789062 76.855469 89.042969 76.855469 C 89.589844 76.855469 89.960938 76.386719 89.960938 75.898438 C 89.960938 75.15625 89.101562 74.804688 88.339844 74.804688 C 87.246094 74.804688 86.640625 75.878906 86.484375 76.230469 C 86.074219 74.882812 84.960938 74.804688 84.628906 74.804688 C 82.8125 74.804688 81.835938 77.148438 81.835938 77.558594 C 81.835938 77.617188 81.914062 77.714844 82.03125 77.714844 C 82.167969 77.714844 82.207031 77.597656 82.246094 77.539062 C 82.851562 75.546875 84.0625 75.175781 84.570312 75.175781 C 85.390625 75.175781 85.546875 75.917969 85.546875 76.347656 C 85.546875 76.738281 85.449219 77.148438 85.214844 78.007812 L 84.609375 80.46875 C 84.355469 81.542969 83.828125 82.539062 82.871094 82.539062 C 82.792969 82.539062 82.34375 82.539062 81.953125 82.304688 C 82.597656 82.167969 82.753906 81.640625 82.753906 81.425781 C 82.753906 81.074219 82.480469 80.859375 82.148438 80.859375 C 81.71875 80.859375 81.25 81.230469 81.25 81.796875 C 81.25 82.558594 82.089844 82.890625 82.851562 82.890625 C 83.710938 82.890625 84.335938 82.207031 84.707031 81.484375 C 85 82.539062 85.878906 82.890625 86.542969 82.890625 C 88.378906 82.890625 89.355469 80.546875 89.355469 80.15625 C 89.355469 80.058594 89.277344 79.980469 89.160156 79.980469 C 89.003906 79.980469 88.984375 80.078125 88.945312 80.214844 C 88.457031 81.796875 87.402344 82.539062 86.601562 82.539062 C 85.976562 82.539062 85.644531 82.070312 85.644531 81.328125 C 85.644531 80.9375 85.703125 80.644531 85.996094 79.472656 L 86.621094 77.03125 C 86.894531 75.957031 87.5 75.175781 88.320312 75.175781 C 88.359375 75.175781 88.867188 75.175781 89.238281 75.390625 Z M 89.238281 75.390625 "/>
<path style=" stroke:none;fill-rule:nonzero;fill:rgb(0%,0%,0%);fill-opacity:1;" d="M 106.523438 78.59375 C 106.835938 78.59375 107.148438 78.59375 107.148438 78.242188 C 107.148438 77.871094 106.835938 77.871094 106.523438 77.871094 L 96.816406 77.871094 C 96.523438 77.871094 96.191406 77.871094 96.191406 78.242188 C 96.191406 78.59375 96.523438 78.59375 96.816406 78.59375 Z M 106.523438 78.59375 "/>
<path style=" stroke:none;fill-rule:nonzero;fill:rgb(0%,0%,0%);fill-opacity:1;" d="M 119.105469 71.035156 C 119.105469 70.703125 119.105469 70.605469 118.871094 70.605469 C 118.714844 70.605469 118.65625 70.605469 118.519531 70.820312 L 113.128906 79.199219 L 113.128906 79.726562 L 117.835938 79.726562 L 117.835938 81.347656 C 117.835938 82.011719 117.796875 82.1875 116.488281 82.1875 L 116.136719 82.1875 L 116.136719 82.714844 C 116.546875 82.675781 117.972656 82.675781 118.460938 82.675781 C 118.96875 82.675781 120.394531 82.675781 120.824219 82.714844 L 120.824219 82.1875 L 120.453125 82.1875 C 119.164062 82.1875 119.105469 82.011719 119.105469 81.347656 L 119.105469 79.726562 L 120.921875 79.726562 L 120.921875 79.199219 L 119.105469 79.199219 Z M 117.933594 72.441406 L 117.933594 79.199219 L 113.578125 79.199219 Z M 117.933594 72.441406 "/>
<path style=" stroke:none;fill-rule:nonzero;fill:rgb(0%,0%,0%);fill-opacity:1;" d="M 126.476562 78.242188 C 126.476562 76.894531 126.300781 74.667969 125.285156 72.578125 C 124.230469 70.429688 122.765625 69.277344 122.570312 69.277344 C 122.492188 69.277344 122.394531 69.296875 122.394531 69.414062 C 122.394531 69.472656 122.394531 69.492188 122.707031 69.804688 C 124.503906 71.621094 125.5 74.570312 125.5 78.242188 C 125.5 81.71875 124.660156 84.707031 122.589844 86.816406 C 122.394531 86.972656 122.394531 87.011719 122.394531 87.070312 C 122.394531 87.1875 122.492188 87.207031 122.570312 87.207031 C 122.804688 87.207031 124.269531 85.917969 125.148438 84.160156 C 126.066406 82.34375 126.476562 80.410156 126.476562 78.242188 Z M 126.476562 78.242188 "/>
<path style="fill:none;stroke-width:1;stroke-linecap:butt;stroke-linejoin:miter;stroke:rgb(0%,0%,0%);stroke-opacity:1;stroke-miterlimit:10;" d="M 0.348497 0.482758 L 49.348497 0.482758 " transform="matrix(1.25,0,0,-1.25,70.49016,90.36126)"/>
<path style=" stroke:none;fill-rule:nonzero;fill:rgb(0%,0%,0%);fill-opacity:1;" d="M 76.308594 111.5 C 76.308594 111.441406 76.308594 111.402344 76.015625 111.109375 C 74.21875 109.292969 73.222656 106.34375 73.222656 102.671875 C 73.222656 99.195312 74.0625 96.207031 76.132812 94.097656 C 76.308594 93.921875 76.308594 93.902344 76.308594 93.84375 C 76.308594 93.726562 76.230469 93.707031 76.152344 93.707031 C 75.917969 93.707031 74.453125 94.996094 73.574219 96.753906 C 72.65625 98.550781 72.246094 100.484375 72.246094 102.671875 C 72.246094 104.273438 72.5 106.402344 73.4375 108.335938 C 74.492188 110.484375 75.957031 111.636719 76.152344 111.636719 C 76.230469 111.636719 76.308594 111.617188 76.308594 111.5 Z M 76.308594 111.5 "/>
<path style=" stroke:none;fill-rule:nonzero;fill:rgb(0%,0%,0%);fill-opacity:1;" d="M 85.816406 99.820312 C 85.25 99.9375 85.035156 100.367188 85.035156 100.699219 C 85.035156 101.128906 85.367188 101.285156 85.621094 101.285156 C 86.167969 101.285156 86.539062 100.816406 86.539062 100.328125 C 86.539062 99.585938 85.679688 99.234375 84.917969 99.234375 C 83.824219 99.234375 83.21875 100.308594 83.0625 100.660156 C 82.652344 99.3125 81.539062 99.234375 81.207031 99.234375 C 79.390625 99.234375 78.414062 101.578125 78.414062 101.988281 C 78.414062 102.046875 78.492188 102.144531 78.609375 102.144531 C 78.746094 102.144531 78.785156 102.027344 78.824219 101.96875 C 79.429688 99.976562 80.640625 99.605469 81.148438 99.605469 C 81.96875 99.605469 82.125 100.347656 82.125 100.777344 C 82.125 101.167969 82.027344 101.578125 81.792969 102.4375 L 81.1875 104.898438 C 80.933594 105.972656 80.40625 106.96875 79.449219 106.96875 C 79.371094 106.96875 78.921875 106.96875 78.53125 106.734375 C 79.175781 106.597656 79.332031 106.070312 79.332031 105.855469 C 79.332031 105.503906 79.058594 105.289062 78.726562 105.289062 C 78.296875 105.289062 77.828125 105.660156 77.828125 106.226562 C 77.828125 106.988281 78.667969 107.320312 79.429688 107.320312 C 80.289062 107.320312 80.914062 106.636719 81.285156 105.914062 C 81.578125 106.96875 82.457031 107.320312 83.121094 107.320312 C 84.957031 107.320312 85.933594 104.976562 85.933594 104.585938 C 85.933594 104.488281 85.855469 104.410156 85.738281 104.410156 C 85.582031 104.410156 85.5625 104.507812 85.523438 104.644531 C 85.035156 106.226562 83.980469 106.96875 83.179688 106.96875 C 82.554688 106.96875 82.222656 106.5 82.222656 105.757812 C 82.222656 105.367188 82.28125 105.074219 82.574219 103.902344 L 83.199219 101.460938 C 83.472656 100.386719 84.078125 99.605469 84.898438 99.605469 C 84.9375 99.605469 85.445312 99.605469 85.816406 99.820312 Z M 85.816406 99.820312 "/>
<path style=" stroke:none;fill-rule:nonzero;fill:rgb(0%,0%,0%);fill-opacity:1;" d="M 103.097656 103.023438 C 103.410156 103.023438 103.722656 103.023438 103.722656 102.671875 C 103.722656 102.300781 103.410156 102.300781 103.097656 102.300781 L 93.390625 102.300781 C 93.097656 102.300781 92.765625 102.300781 92.765625 102.671875 C 92.765625 103.023438 93.097656 103.023438 93.390625 103.023438 Z M 103.097656 103.023438 "/>
<path style=" stroke:none;fill-rule:nonzero;fill:rgb(0%,0%,0%);fill-opacity:1;" d="M 117.105469 104.136719 L 116.714844 104.136719 C 116.65625 104.429688 116.519531 105.425781 116.324219 105.71875 C 116.207031 105.875 115.191406 105.875 114.644531 105.875 L 111.324219 105.875 C 111.8125 105.464844 112.90625 104.3125 113.375 103.882812 C 116.109375 101.363281 117.105469 100.445312 117.105469 98.667969 C 117.105469 96.597656 115.464844 95.230469 113.394531 95.230469 C 111.304688 95.230469 110.09375 96.988281 110.09375 98.53125 C 110.09375 99.449219 110.875 99.449219 110.933594 99.449219 C 111.304688 99.449219 111.773438 99.175781 111.773438 98.609375 C 111.773438 98.101562 111.441406 97.769531 110.933594 97.769531 C 110.777344 97.769531 110.738281 97.769531 110.679688 97.789062 C 111.03125 96.558594 111.988281 95.738281 113.160156 95.738281 C 114.683594 95.738281 115.621094 97.007812 115.621094 98.667969 C 115.621094 100.191406 114.742188 101.519531 113.707031 102.671875 L 110.09375 106.714844 L 110.09375 107.144531 L 116.636719 107.144531 Z M 117.105469 104.136719 "/>
<path style=" stroke:none;fill-rule:nonzero;fill:rgb(0%,0%,0%);fill-opacity:1;" d="M 123.050781 102.671875 C 123.050781 101.324219 122.875 99.097656 121.859375 97.007812 C 120.804688 94.859375 119.339844 93.707031 119.144531 93.707031 C 119.066406 93.707031 118.96875 93.726562 118.96875 93.84375 C 118.96875 93.902344 118.96875 93.921875 119.28125 94.234375 C 121.078125 96.050781 122.074219 99 122.074219 102.671875 C 122.074219 106.148438 121.234375 109.136719 119.164062 111.246094 C 118.96875 111.402344 118.96875 111.441406 118.96875 111.5 C 118.96875 111.617188 119.066406 111.636719 119.144531 111.636719 C 119.378906 111.636719 120.84375 110.347656 121.722656 108.589844 C 122.640625 106.773438 123.050781 104.839844 123.050781 102.671875 Z M 123.050781 102.671875 "/>
<path style=" stroke:none;fill-rule:nonzero;fill:rgb(0%,0%,0%);fill-opacity:1;" d="M 128.4375 97.570312 C 129.453125 97.238281 130.175781 96.378906 130.175781 95.382812 C 130.175781 94.367188 129.082031 93.664062 127.890625 93.664062 C 126.640625 93.664062 125.683594 94.40625 125.683594 95.363281 C 125.683594 95.773438 125.957031 96.007812 126.328125 96.007812 C 126.699219 96.007812 126.953125 95.734375 126.953125 95.363281 C 126.953125 94.757812 126.367188 94.757812 126.191406 94.757812 C 126.5625 94.132812 127.382812 93.976562 127.832031 93.976562 C 128.359375 93.976562 129.042969 94.25 129.042969 95.363281 C 129.042969 95.519531 129.003906 96.242188 128.691406 96.789062 C 128.320312 97.394531 127.890625 97.433594 127.578125 97.433594 C 127.480469 97.453125 127.1875 97.472656 127.089844 97.472656 C 126.992188 97.492188 126.914062 97.511719 126.914062 97.628906 C 126.914062 97.765625 126.992188 97.765625 127.207031 97.765625 L 127.753906 97.765625 C 128.769531 97.765625 129.238281 98.605469 129.238281 99.835938 C 129.238281 101.535156 128.378906 101.886719 127.832031 101.886719 C 127.285156 101.886719 126.347656 101.671875 125.917969 100.949219 C 126.347656 101.007812 126.738281 100.734375 126.738281 100.265625 C 126.738281 99.816406 126.40625 99.5625 126.054688 99.5625 C 125.742188 99.5625 125.351562 99.738281 125.351562 100.285156 C 125.351562 101.417969 126.503906 102.238281 127.871094 102.238281 C 129.394531 102.238281 130.527344 101.105469 130.527344 99.835938 C 130.527344 98.820312 129.726562 97.84375 128.4375 97.570312 Z M 128.4375 97.570312 "/>
<path style=" stroke:none;fill-rule:nonzero;fill:rgb(0%,0%,0%);fill-opacity:1;" d="M 137.152344 110.867188 L 133.421875 110.867188 L 133.421875 111.863281 L 138.128906 111.863281 L 138.128906 68.835938 L 133.421875 68.835938 L 133.421875 69.832031 L 137.152344 69.832031 Z M 137.152344 110.867188 "/>
<path style=" stroke:none;fill-rule:nonzero;fill:rgb(0%,0%,0%);fill-opacity:1;" d="M 159.722656 89.042969 C 159.976562 89.042969 160.289062 89.042969 160.289062 88.710938 C 160.289062 88.378906 159.976562 88.378906 159.722656 88.378906 L 149.15625 88.378906 C 148.902344 88.378906 148.589844 88.378906 148.589844 88.691406 C 148.589844 89.042969 148.882812 89.042969 149.15625 89.042969 Z M 159.722656 92.363281 C 159.976562 92.363281 160.289062 92.363281 160.289062 92.050781 C 160.289062 91.699219 159.976562 91.699219 159.722656 91.699219 L 149.15625 91.699219 C 148.902344 91.699219 148.589844 91.699219 148.589844 92.03125 C 148.589844 92.363281 148.882812 92.363281 149.15625 92.363281 Z M 159.722656 92.363281 "/>
<path style=" stroke:none;fill-rule:nonzero;fill:rgb(0%,0%,0%);fill-opacity:1;" d="M 193.597656 78.550781 C 194.085938 78.550781 195.316406 78.511719 196.175781 78.199219 C 197.523438 77.671875 197.660156 76.636719 197.660156 76.304688 C 197.660156 75.523438 196.976562 74.800781 195.785156 74.800781 C 193.910156 74.800781 191.195312 76.5 191.195312 79.703125 C 191.195312 81.578125 192.269531 82.886719 193.910156 82.886719 C 196.351562 82.886719 197.894531 80.992188 197.894531 80.757812 C 197.894531 80.640625 197.777344 80.5625 197.71875 80.5625 C 197.660156 80.5625 197.640625 80.582031 197.484375 80.738281 C 196.332031 82.261719 194.632812 82.535156 193.949219 82.535156 C 192.914062 82.535156 192.386719 81.734375 192.386719 80.40625 C 192.386719 80.152344 192.386719 79.703125 192.660156 78.550781 Z M 192.738281 78.199219 C 193.519531 75.425781 195.21875 75.171875 195.785156 75.171875 C 196.585938 75.171875 197.113281 75.621094 197.113281 76.304688 C 197.113281 78.199219 194.242188 78.199219 193.5 78.199219 Z M 192.738281 78.199219 "/>
<path style=" stroke:none;fill-rule:nonzero;fill:rgb(0%,0%,0%);fill-opacity:1;" d="M 202.695312 72.433594 C 202.773438 72.121094 203.066406 70.96875 203.925781 70.96875 C 203.984375 70.96875 204.296875 70.96875 204.550781 71.125 C 204.199219 71.203125 203.964844 71.496094 203.964844 71.808594 C 203.964844 72.003906 204.101562 72.238281 204.433594 72.238281 C 204.707031 72.238281 205.097656 72.023438 205.097656 71.515625 C 205.097656 70.871094 204.375 70.695312 203.945312 70.695312 C 203.222656 70.695312 202.792969 71.359375 202.636719 71.632812 C 202.324219 70.8125 201.660156 70.695312 201.289062 70.695312 C 200 70.695312 199.277344 72.296875 199.277344 72.609375 C 199.277344 72.746094 199.414062 72.746094 199.433594 72.746094 C 199.53125 72.746094 199.570312 72.707031 199.589844 72.609375 C 200.019531 71.28125 200.839844 70.96875 201.269531 70.96875 C 201.503906 70.96875 201.933594 71.085938 201.933594 71.808594 C 201.933594 72.199219 201.71875 73.019531 201.269531 74.777344 C 201.074219 75.539062 200.625 76.066406 200.078125 76.066406 C 200 76.066406 199.726562 76.066406 199.453125 75.910156 C 199.765625 75.832031 200.039062 75.578125 200.039062 75.226562 C 200.039062 74.894531 199.765625 74.796875 199.589844 74.796875 C 199.199219 74.796875 198.90625 75.109375 198.90625 75.519531 C 198.90625 76.085938 199.511719 76.339844 200.058594 76.339844 C 200.898438 76.339844 201.347656 75.460938 201.367188 75.402344 C 201.523438 75.851562 201.972656 76.339844 202.714844 76.339844 C 204.003906 76.339844 204.707031 74.738281 204.707031 74.425781 C 204.707031 74.289062 204.609375 74.289062 204.570312 74.289062 C 204.453125 74.289062 204.433594 74.347656 204.394531 74.425781 C 203.984375 75.773438 203.144531 76.066406 202.753906 76.066406 C 202.265625 76.066406 202.070312 75.675781 202.070312 75.246094 C 202.070312 74.972656 202.128906 74.699219 202.265625 74.152344 Z M 202.695312 72.433594 "/>
<path style="fill:none;stroke-width:1;stroke-linecap:butt;stroke-linejoin:miter;stroke:rgb(0%,0%,0%);stroke-opacity:1;stroke-miterlimit:10;" d="M -0.454503 0.482758 L 48.545497 0.482758 " transform="matrix(1.25,0,0,-1.25,167.74391,90.36126)"/>
<path style=" stroke:none;fill-rule:nonzero;fill:rgb(0%,0%,0%);fill-opacity:1;" d="M 173.5625 111.5 C 173.5625 111.441406 173.5625 111.402344 173.269531 111.109375 C 171.472656 109.292969 170.476562 106.34375 170.476562 102.671875 C 170.476562 99.195312 171.316406 96.207031 173.386719 94.097656 C 173.5625 93.921875 173.5625 93.902344 173.5625 93.84375 C 173.5625 93.726562 173.484375 93.707031 173.40625 93.707031 C 173.171875 93.707031 171.707031 94.996094 170.828125 96.753906 C 169.910156 98.550781 169.5 100.484375 169.5 102.671875 C 169.5 104.273438 169.753906 106.402344 170.691406 108.335938 C 171.746094 110.484375 173.210938 111.636719 173.40625 111.636719 C 173.484375 111.636719 173.5625 111.617188 173.5625 111.5 Z M 173.5625 111.5 "/>
<path style=" stroke:none;fill-rule:nonzero;fill:rgb(0%,0%,0%);fill-opacity:1;" d="M 183.070312 99.820312 C 182.503906 99.9375 182.289062 100.367188 182.289062 100.699219 C 182.289062 101.128906 182.621094 101.285156 182.875 101.285156 C 183.421875 101.285156 183.792969 100.816406 183.792969 100.328125 C 183.792969 99.585938 182.933594 99.234375 182.171875 99.234375 C 181.078125 99.234375 180.472656 100.308594 180.316406 100.660156 C 179.90625 99.3125 178.792969 99.234375 178.460938 99.234375 C 176.644531 99.234375 175.667969 101.578125 175.667969 101.988281 C 175.667969 102.046875 175.746094 102.144531 175.863281 102.144531 C 176 102.144531 176.039062 102.027344 176.078125 101.96875 C 176.683594 99.976562 177.894531 99.605469 178.402344 99.605469 C 179.222656 99.605469 179.378906 100.347656 179.378906 100.777344 C 179.378906 101.167969 179.28125 101.578125 179.046875 102.4375 L 178.441406 104.898438 C 178.1875 105.972656 177.660156 106.96875 176.703125 106.96875 C 176.625 106.96875 176.175781 106.96875 175.785156 106.734375 C 176.429688 106.597656 176.585938 106.070312 176.585938 105.855469 C 176.585938 105.503906 176.3125 105.289062 175.980469 105.289062 C 175.550781 105.289062 175.082031 105.660156 175.082031 106.226562 C 175.082031 106.988281 175.921875 107.320312 176.683594 107.320312 C 177.542969 107.320312 178.167969 106.636719 178.539062 105.914062 C 178.832031 106.96875 179.710938 107.320312 180.375 107.320312 C 182.210938 107.320312 183.1875 104.976562 183.1875 104.585938 C 183.1875 104.488281 183.109375 104.410156 182.992188 104.410156 C 182.835938 104.410156 182.816406 104.507812 182.777344 104.644531 C 182.289062 106.226562 181.234375 106.96875 180.433594 106.96875 C 179.808594 106.96875 179.476562 106.5 179.476562 105.757812 C 179.476562 105.367188 179.535156 105.074219 179.828125 103.902344 L 180.453125 101.460938 C 180.726562 100.386719 181.332031 99.605469 182.152344 99.605469 C 182.191406 99.605469 182.699219 99.605469 183.070312 99.820312 Z M 183.070312 99.820312 "/>
<path style=" stroke:none;fill-rule:nonzero;fill:rgb(0%,0%,0%);fill-opacity:1;" d="M 200.351562 103.023438 C 200.664062 103.023438 200.976562 103.023438 200.976562 102.671875 C 200.976562 102.300781 200.664062 102.300781 200.351562 102.300781 L 190.644531 102.300781 C 190.351562 102.300781 190.019531 102.300781 190.019531 102.671875 C 190.019531 103.023438 190.351562 103.023438 190.644531 103.023438 Z M 200.351562 103.023438 "/>
<path style=" stroke:none;fill-rule:nonzero;fill:rgb(0%,0%,0%);fill-opacity:1;" d="M 214.359375 104.136719 L 213.96875 104.136719 C 213.910156 104.429688 213.773438 105.425781 213.578125 105.71875 C 213.460938 105.875 212.445312 105.875 211.898438 105.875 L 208.578125 105.875 C 209.066406 105.464844 210.160156 104.3125 210.628906 103.882812 C 213.363281 101.363281 214.359375 100.445312 214.359375 98.667969 C 214.359375 96.597656 212.71875 95.230469 210.648438 95.230469 C 208.558594 95.230469 207.347656 96.988281 207.347656 98.53125 C 207.347656 99.449219 208.128906 99.449219 208.1875 99.449219 C 208.558594 99.449219 209.027344 99.175781 209.027344 98.609375 C 209.027344 98.101562 208.695312 97.769531 208.1875 97.769531 C 208.03125 97.769531 207.992188 97.769531 207.933594 97.789062 C 208.285156 96.558594 209.242188 95.738281 210.414062 95.738281 C 211.9375 95.738281 212.875 97.007812 212.875 98.667969 C 212.875 100.191406 211.996094 101.519531 210.960938 102.671875 L 207.347656 106.714844 L 207.347656 107.144531 L 213.890625 107.144531 Z M 214.359375 104.136719 "/>
<path style=" stroke:none;fill-rule:nonzero;fill:rgb(0%,0%,0%);fill-opacity:1;" d="M 220.308594 102.671875 C 220.308594 101.324219 220.132812 99.097656 219.117188 97.007812 C 218.0625 94.859375 216.597656 93.707031 216.402344 93.707031 C 216.324219 93.707031 216.226562 93.726562 216.226562 93.84375 C 216.226562 93.902344 216.226562 93.921875 216.539062 94.234375 C 218.335938 96.050781 219.332031 99 219.332031 102.671875 C 219.332031 106.148438 218.492188 109.136719 216.421875 111.246094 C 216.226562 111.402344 216.226562 111.441406 216.226562 111.5 C 216.226562 111.617188 216.324219 111.636719 216.402344 111.636719 C 216.636719 111.636719 218.101562 110.347656 218.980469 108.589844 C 219.898438 106.773438 220.308594 104.839844 220.308594 102.671875 Z M 220.308594 102.671875 "/>
<path style=" stroke:none;fill-rule:nonzero;fill:rgb(0%,0%,0%);fill-opacity:1;" d="M 223.660156 101.007812 L 224.988281 99.71875 C 226.921875 98 227.664062 97.335938 227.664062 96.085938 C 227.664062 94.660156 226.550781 93.664062 225.027344 93.664062 C 223.621094 93.664062 222.703125 94.816406 222.703125 95.929688 C 222.703125 96.613281 223.328125 96.613281 223.367188 96.613281 C 223.582031 96.613281 224.011719 96.476562 224.011719 95.949219 C 224.011719 95.636719 223.777344 95.304688 223.347656 95.304688 C 223.25 95.304688 223.230469 95.304688 223.191406 95.324219 C 223.464844 94.503906 224.148438 94.054688 224.871094 94.054688 C 226.003906 94.054688 226.53125 95.070312 226.53125 96.085938 C 226.53125 97.082031 225.925781 98.058594 225.222656 98.839844 L 222.839844 101.496094 C 222.703125 101.632812 222.703125 101.671875 222.703125 101.964844 L 227.332031 101.964844 L 227.664062 99.796875 L 227.371094 99.796875 C 227.292969 100.167969 227.214844 100.714844 227.078125 100.910156 C 227 101.007812 226.179688 101.007812 225.90625 101.007812 Z M 223.660156 101.007812 "/>
<path style=" stroke:none;fill-rule:nonzero;fill:rgb(0%,0%,0%);fill-opacity:1;" d="M 241.554688 90.703125 L 246.515625 90.703125 C 246.769531 90.703125 247.082031 90.703125 247.082031 90.371094 C 247.082031 90.039062 246.769531 90.039062 246.515625 90.039062 L 241.554688 90.039062 L 241.554688 85.097656 C 241.554688 84.84375 241.554688 84.511719 241.242188 84.511719 C 240.890625 84.511719 240.890625 84.824219 240.890625 85.097656 L 240.890625 90.039062 L 235.949219 90.039062 C 235.695312 90.039062 235.382812 90.039062 235.382812 90.371094 C 235.382812 90.703125 235.675781 90.703125 235.949219 90.703125 L 240.890625 90.703125 L 240.890625 95.644531 C 240.890625 95.898438 240.890625 96.230469 241.222656 96.230469 C 241.554688 96.230469 241.554688 95.917969 241.554688 95.644531 Z M 241.554688 90.703125 "/>
<path style=" stroke:none;fill-rule:nonzero;fill:rgb(0%,0%,0%);fill-opacity:1;" d="M 265.445312 82.382812 C 265.445312 82.226562 265.308594 82.226562 265.269531 82.226562 C 265.25 82.226562 265.171875 82.226562 265.035156 82.402344 L 263.785156 83.90625 C 263.160156 82.832031 262.183594 82.226562 260.835938 82.226562 C 256.96875 82.226562 252.945312 86.152344 252.945312 90.371094 C 252.945312 93.359375 255.035156 95.214844 257.652344 95.214844 C 259.097656 95.214844 260.347656 94.609375 261.382812 93.730469 C 262.945312 92.421875 263.414062 90.683594 263.414062 90.546875 C 263.414062 90.371094 263.277344 90.371094 263.21875 90.371094 C 263.0625 90.371094 263.042969 90.488281 263.003906 90.566406 C 262.183594 93.359375 259.761719 94.707031 257.964844 94.707031 C 256.070312 94.707031 254.410156 93.476562 254.410156 90.9375 C 254.410156 90.371094 254.585938 87.246094 256.617188 84.902344 C 257.613281 83.75 259.292969 82.734375 260.992188 82.734375 C 262.964844 82.734375 263.84375 84.375 263.84375 86.210938 C 263.84375 86.660156 263.785156 87.070312 263.785156 87.128906 C 263.785156 87.304688 263.960938 87.304688 264.019531 87.304688 C 264.214844 87.304688 264.234375 87.285156 264.3125 86.953125 Z M 265.445312 82.382812 "/>
</g>
</svg>
