<?xml version="1.0" encoding="UTF-8" standalone="no"?>
<!-- Created with Inkscape (http://www.inkscape.org/) -->

<svg
   xmlns:ns0="http://www.iki.fi/pav/software/textext/"
   xmlns:dc="http://purl.org/dc/elements/1.1/"
   xmlns:cc="http://creativecommons.org/ns#"
   xmlns:rdf="http://www.w3.org/1999/02/22-rdf-syntax-ns#"
   xmlns:svg="http://www.w3.org/2000/svg"
   xmlns="http://www.w3.org/2000/svg"
   xmlns:sodipodi="http://sodipodi.sourceforge.net/DTD/sodipodi-0.dtd"
   xmlns:inkscape="http://www.inkscape.org/namespaces/inkscape"
   width="746.67877"
   height="496.18069"
   id="svg2"
   version="1.1"
   inkscape:version="0.48.3.1 r9886"
   sodipodi:docname="right.svg">
  <sodipodi:namedview
     id="base"
     pagecolor="#ffffff"
     bordercolor="#666666"
     borderopacity="1.0"
     inkscape:pageopacity="0.0"
     inkscape:pageshadow="2"
     inkscape:zoom="0.42475871"
     inkscape:cx="342.44163"
     inkscape:cy="3.1654542"
     inkscape:document-units="px"
     inkscape:current-layer="layer1"
     showgrid="false"
     inkscape:window-width="968"
     inkscape:window-height="642"
     inkscape:window-x="65"
     inkscape:window-y="24"
     inkscape:window-maximized="0"
     fit-margin-top="0"
     fit-margin-left="0"
     fit-margin-right="0"
     fit-margin-bottom="0"
     showborder="false"
     inkscape:showpageshadow="false" />
  <defs
     id="defs4">
    <marker
       inkscape:stockid="DotM"
       orient="auto"
       refY="0"
       refX="0"
       id="DotM"
       style="overflow:visible">
      <path
         id="path3935"
         d="m -2.5,-1 c 0,2.76 -2.24,5 -5,5 -2.76,0 -5,-2.24 -5,-5 0,-2.76 2.24,-5 5,-5 2.76,0 5,2.24 5,5 z"
         style="fill-rule:evenodd;stroke:#000000;stroke-width:1pt"
         transform="matrix(0.4,0,0,0.4,2.96,0.4)"
         inkscape:connector-curvature="0" />
    </marker>
    <marker
       inkscape:stockid="Arrow1Lstart"
       orient="auto"
       refY="0"
       refX="0"
       id="Arrow1Lstart"
       style="overflow:visible">
      <path
         id="path3871"
         d="M 0,0 5,-5 -12.5,0 5,5 0,0 z"
         style="fill-rule:evenodd;stroke:#000000;stroke-width:1pt"
         transform="matrix(0.8,0,0,0.8,10,0)"
         inkscape:connector-curvature="0" />
    </marker>
    <marker
       inkscape:stockid="Arrow2Lend"
       orient="auto"
       refY="0"
       refX="0"
       id="Arrow2Lend"
       style="overflow:visible">
      <path
         id="path3892"
         style="fill-rule:evenodd;stroke-width:0.625;stroke-linejoin:round"
         d="M 8.7185878,4.0337352 -2.2072895,0.01601326 8.7185884,-4.0017078 c -1.7454984,2.3720609 -1.7354408,5.6174519 -6e-7,8.035443 z"
         transform="matrix(-1.1,0,0,-1.1,-1.1,0)"
         inkscape:connector-curvature="0" />
    </marker>
    <marker
       inkscape:stockid="Arrow2Mend"
       orient="auto"
       refY="0"
       refX="0"
       id="Arrow2Mend"
       style="overflow:visible">
      <path
         id="path3898"
         style="fill-rule:evenodd;stroke-width:0.625;stroke-linejoin:round"
         d="M 8.7185878,4.0337352 -2.2072895,0.01601326 8.7185884,-4.0017078 c -1.7454984,2.3720609 -1.7354408,5.6174519 -6e-7,8.035443 z"
         transform="scale(-0.6,-0.6)"
         inkscape:connector-curvature="0" />
    </marker>
  </defs>
  <metadata
     id="metadata7">
    <rdf:RDF>
      <cc:Work
         rdf:about="">
        <dc:format>image/svg+xml</dc:format>
        <dc:type
           rdf:resource="http://purl.org/dc/dcmitype/StillImage" />
        <dc:title></dc:title>
      </cc:Work>
    </rdf:RDF>
  </metadata>
  <g
     id="layer1"
     inkscape:groupmode="layer"
     inkscape:label="Layer 1"
     transform="translate(-29.605612,-33.165852)">
    <path
       style="color:#000000;fill:none;stroke:#000000;stroke-width:2;stroke-linecap:butt;stroke-linejoin:round;stroke-miterlimit:4;stroke-opacity:0.39215686;stroke-dasharray:none;stroke-dashoffset:0;marker:none;marker-start:url(#Arrow1Lstart);visibility:visible;display:inline;overflow:visible;enable-background:accumulate"
       d="m 101.23395,84.754001 0,437.895669"
       id="path3095"
       inkscape:connector-curvature="0" />
    <path
       style="color:#000000;fill:none;stroke:#000000;stroke-width:2;stroke-linecap:butt;stroke-linejoin:round;stroke-miterlimit:4;stroke-opacity:0.39215686;stroke-dasharray:none;stroke-dashoffset:0;marker:none;marker-end:url(#Arrow2Lend);visibility:visible;display:inline;overflow:visible;enable-background:accumulate"
       d="M 30.605612,489.68979 630.94645,487.33551"
       id="path3097"
       inkscape:connector-curvature="0" />
    <path
       style="color:#000000;fill:none;stroke:#000000;stroke-width:2;stroke-linecap:butt;stroke-linejoin:round;stroke-miterlimit:4;stroke-opacity:1;stroke-dasharray:none;stroke-dashoffset:0;marker:none;marker-start:url(#DotM);marker-end:url(#DotM);visibility:visible;display:inline;overflow:visible;enable-background:accumulate"
       d="M 100.37888,308.37756 597.35273,487.48497"
       id="path5237"
       inkscape:connector-curvature="0" />
    <path
       style="color:#000000;fill:none;stroke:#000000;stroke-width:2;stroke-linecap:butt;stroke-linejoin:round;stroke-miterlimit:4;stroke-opacity:1;stroke-dasharray:none;stroke-dashoffset:0;marker:none;marker-start:url(#DotM);marker-end:url(#DotM);visibility:visible;display:inline;overflow:visible;enable-background:accumulate"
       d="M 100.37888,144.03175 363.13535,487.48497"
       id="path5239"
       inkscape:connector-curvature="0" />
    <g
       id="g6012"
       transform="matrix(0.33763365,0.46219258,-0.46219258,0.33763365,209.29337,-93.121346)">
      <g
         id="content"
         transform="matrix(1.0629921,0,0,-1.0629921,-186.02362,789.27165)"
         xml:space="preserve"
         stroke-miterlimit="10.433"
         font-style="normal"
         font-variant="normal"
         font-weight="normal"
         font-stretch="normal"
         font-size-adjust="none"
         letter-spacing="normal"
         word-spacing="normal"
         style="font-style:normal;font-variant:normal;font-weight:normal;font-stretch:normal;letter-spacing:normal;word-spacing:normal;text-anchor:start;fill:none;stroke:#000000;stroke-linecap:butt;stroke-linejoin:miter;stroke-miterlimit:10.43299961;stroke-opacity:1;stroke-dasharray:none;stroke-dashoffset:0"><path
           d="m 461.85,410.04 5.28,5.13 c 7.76,6.87 10.76,9.56 10.76,14.54 0,5.69 -4.48,9.68 -10.56,9.68 -5.64,0 -9.33,-4.6 -9.33,-9.03 0,-2.79 2.5,-2.79 2.64,-2.79 0.86,0 2.6,0.6 2.6,2.64 0,1.3 -0.89,2.6 -2.64,2.6 -0.39,0 -0.5,0 -0.64,-0.05 1.14,3.24 3.83,5.08 6.72,5.08 4.53,0 6.68,-4.05 6.68,-8.13 0,-3.98 -2.5,-7.92 -5.23,-11.01 l -9.56,-10.66 C 458,407.5 458,407.4 458,406.2 h 18.49 l 1.4,8.67 h -1.25 c -0.25,-1.5 -0.59,-3.69 -1.09,-4.44 -0.36,-0.39 -3.64,-0.39 -4.73,-0.39 z"
           id="path6015"
           inkscape:connector-curvature="0"
           style="fill:#000000;stroke-width:0" /><path
           d="m 502.3,406.5 0.73,0.29 0.72,0.33 0.71,0.35 0.71,0.4 0.7,0.42 0.69,0.45 0.68,0.48 0.67,0.51 0.66,0.54 0.64,0.56 0.63,0.59 0.62,0.61 0.59,0.64 0.58,0.66 0.56,0.68 0.53,0.7 0.52,0.72 0.48,0.73 0.47,0.76 0.44,0.77 0.41,0.79 0.38,0.8 0.35,0.82 0.32,0.83 0.28,0.84 0.25,0.85 0.22,0.87 0.18,0.87 0.14,0.88 0.11,0.89 0.06,0.89 0.02,0.9 c 0,8.03 -5.28,13.4 -12.72,13.4 l -0.29,-1.25 c 4.98,0 8.62,-3.87 8.62,-10.56 0,-4.98 -2.55,-16.64 -10.91,-21.31 -0.25,1.73 -0.75,5.37 -4.39,5.37 v -1.09 c 2.1,0 3.05,-1.2 3.05,-4.23 0,-0.75 -0.06,-0.8 -0.56,-1 -1.28,-0.55 -2.78,-0.89 -4.17,-0.89 h 0 c -0.71,0 -2.3,0 -2.3,2.14 0,1.98 1.89,3.98 3.98,3.98 v 1.09 c -2.64,0 -5.07,-2.5 -5.07,-5.07 0,-1 0.29,-1.55 0.29,-1.6 h 0 c -3.89,1.53 -5.58,5.42 -5.58,9.91 0,3.44 1.3,10.51 5.08,15.89 3.64,5.09 8.33,7.37 11.96,7.37 l 0.29,1.25 c -10.75,0 -21.72,-11.31 -21.72,-22.92 0,-8.26 5.58,-13.29 12.77,-13.29 1.23,0 2.94,0.2 4.87,0.75 -0.2,-3.1 -0.2,-3.19 -0.2,-3.85 0,-1.59 0,-5.48 4.14,-5.48 5.92,0 8.31,9.12 8.31,9.67 0,0.34 -0.34,0.5 -0.54,0.5 -0.39,0 -0.5,-0.25 -0.6,-0.55 -1.18,-3.54 -4.07,-4.78 -5.82,-4.78 -2.3,0 -3.05,1.34 -3.54,5.13 z"
           id="path6017"
           inkscape:connector-curvature="0"
           style="fill:#000000;stroke-width:0" /><path
           d="m 539.22,412.07 3.31,3.32 c 4.45,4.39 5.81,5.75 8.95,5.92 0.45,0.03 0.87,0.03 0.87,0.73 0,0.41 -0.38,0.52 -0.5,0.52 -1,0 -2.21,-0.14 -3.26,-0.14 -0.91,0 -3.14,0.14 -4.05,0.14 -0.28,0 -0.7,-0.11 -0.7,-0.77 0,-0.03 0,-0.45 0.53,-0.48 0.31,-0.03 1.19,-0.11 1.19,-0.88 0,-0.51 -0.53,-1.07 -0.88,-1.42 -0.28,-0.25 -4.7,-4.56 -6,-5.89 l -3.51,6.83 c -0.07,0.11 -0.17,0.34 -0.17,0.48 0,0.25 0.65,0.8 1.84,0.88 0.25,0 0.73,0.03 0.73,0.76 0,0.04 -0.03,0.49 -0.59,0.49 -0.73,0 -1.59,-0.11 -2.33,-0.11 -0.73,0 -1.53,-0.03 -2.26,-0.03 -0.6,0 -1.44,0 -2.07,0.03 -0.59,0.05 -1.31,0.11 -1.87,0.11 -0.17,0 -0.73,0 -0.73,-0.77 0,-0.48 0.45,-0.48 1.01,-0.48 2.02,0 2.19,-0.35 2.53,-1.05 l 4.89,-9.62 -1.95,-1.94 c -0.67,-0.64 -2.3,-2.2 -2.94,-2.86 -4.25,-4.22 -5.67,-5.69 -8.81,-5.83 -0.48,-0.03 -0.86,-0.03 -0.86,-0.76 0,-0.14 0.09,-0.49 0.48,-0.49 1,0 2.19,0.14 3.24,0.14 0.59,0 1.47,0 2.06,-0.03 0.63,-0.05 1.39,-0.11 1.98,-0.11 0.18,0 0.74,0 0.74,0.74 0,0.48 -0.42,0.51 -0.64,0.51 -0.35,0.05 -1.08,0.14 -1.08,0.88 0,0.56 0.45,1.01 1.22,1.78 l 7.08,6.94 4.22,-8.27 c 0.17,-0.34 0.2,-0.42 0.2,-0.45 0,-0.21 -0.62,-0.77 -1.84,-0.88 -0.32,-0.03 -0.77,-0.03 -0.77,-0.76 0,-0.04 0.03,-0.49 0.59,-0.49 0.74,0 1.61,0.11 2.33,0.11 0.74,0 1.55,0.03 2.27,0.03 0.59,0 1.43,0 2.06,-0.03 0.59,-0.05 1.33,-0.11 1.87,-0.11 0.18,0 0.74,0 0.74,0.77 0,0.48 -0.45,0.48 -1,0.48 -2.03,0 -2.2,0.39 -2.52,0.99 z"
           id="path6019"
           inkscape:connector-curvature="0"
           style="fill:#000000;stroke-width:0" /><path
           d="m 589.18,417.65 h 13.9 c 0.69,0 1.64,0 1.64,1 0,1 -0.95,1 -1.64,1 h -13.9 v 13.96 c 0,0.68 0,1.64 -1,1.64 -0.99,0 -0.99,-0.96 -0.99,-1.64 v -13.96 h -13.95 c -0.71,0 -1.64,0 -1.64,-1 0,-1 0.93,-1 1.64,-1 h 13.95 v -13.94 c 0,-0.7 0,-1.65 0.99,-1.65 1,0 1,0.95 1,1.65 z"
           id="path6021"
           inkscape:connector-curvature="0"
           style="fill:#000000;stroke-width:0" /><path
           d="m 640.43,406.5 0.72,0.29 0.72,0.33 0.71,0.35 0.71,0.4 0.7,0.42 0.69,0.45 0.68,0.48 0.67,0.51 0.66,0.54 0.65,0.56 0.63,0.59 0.61,0.61 0.59,0.64 0.58,0.66 0.56,0.68 0.53,0.7 0.52,0.72 0.49,0.73 0.46,0.76 0.44,0.77 0.41,0.79 0.38,0.8 0.35,0.82 0.32,0.83 0.28,0.84 0.26,0.85 0.21,0.87 0.18,0.87 0.15,0.88 0.1,0.89 0.06,0.89 0.02,0.9 c 0,8.03 -5.28,13.4 -12.72,13.4 -10.75,0 -21.72,-11.31 -21.72,-22.92 0,-8.26 5.58,-13.29 12.77,-13.29 l 0.3,1.25 c -0.7,0 -2.3,0 -2.3,2.14 0,1.98 1.89,3.98 3.98,3.98 v 1.09 c -2.63,0 -5.07,-2.5 -5.07,-5.07 0,-1 0.29,-1.55 0.29,-1.6 h 0 c -3.89,1.53 -5.57,5.42 -5.57,9.91 0,3.44 1.29,10.51 5.07,15.89 3.65,5.09 8.33,7.37 11.96,7.37 4.98,0 8.62,-3.87 8.62,-10.56 0,-4.98 -2.55,-16.64 -10.9,-21.31 -0.25,1.73 -0.75,5.37 -4.4,5.37 v -1.09 c 2.1,0 3.05,-1.2 3.05,-4.23 0,-0.75 -0.06,-0.8 -0.56,-1 -1.28,-0.55 -2.78,-0.89 -4.17,-0.89 h 0 l -0.3,-1.25 c 1.23,0 2.94,0.2 4.88,0.75 -0.21,-3.1 -0.21,-3.19 -0.21,-3.85 0,-1.59 0,-5.48 4.14,-5.48 5.92,0 8.32,9.12 8.32,9.67 0,0.34 -0.35,0.5 -0.55,0.5 -0.39,0 -0.5,-0.25 -0.6,-0.55 -1.18,-3.54 -4.07,-4.78 -5.82,-4.78 -2.3,0 -3.05,1.34 -3.53,5.13 z"
           id="path6023"
           inkscape:connector-curvature="0"
           style="fill:#000000;stroke-width:0" /><path
           d="m 681.59,418.39 0.24,0.25 0.26,0.25 0.13,0.12 0.12,0.12 0.14,0.12 0.13,0.12 0.13,0.11 0.13,0.11 0.14,0.12 0.14,0.1 0.14,0.11 0.14,0.11 0.14,0.1 0.14,0.1 c 1.42,0.97 2.72,1.05 3.17,1.08 0.38,0.03 0.8,0.03 0.8,0.76 0,0.25 -0.2,0.49 -0.48,0.49 -0.88,0 -1.93,-0.14 -2.83,-0.14 -1.11,0 -2.58,0.14 -3.63,0.14 -0.17,0 -0.69,0 -0.69,-0.77 0,-0.45 0.46,-0.48 0.63,-0.48 1.02,-0.08 1.02,-0.45 1.02,-0.67 0,-0.32 -0.22,-0.58 -0.46,-0.91 -0.22,-0.31 -0.39,-0.55 -0.59,-0.77 l -8.72,-9.09 -4.59,10.22 c -0.25,0.48 -0.25,0.55 -0.25,0.59 0,0.63 1.67,0.63 1.89,0.63 0.45,0 0.9,0 0.9,0.76 0,0.04 0,0.49 -0.56,0.49 -1.05,0 -3.62,-0.14 -4.67,-0.14 -0.88,0 -3.1,0.14 -3.97,0.14 -0.28,0 -0.7,-0.11 -0.7,-0.77 0,-0.48 0.45,-0.48 0.95,-0.48 2.02,0 2.16,-0.31 2.5,-1.08 l 5.41,-11.92 -1.58,-6.38 c -0.46,-1.78 -0.49,-1.87 -3.21,-1.92 -0.59,0 -1.04,0 -1.04,-0.73 0,-0.35 0.25,-0.52 0.56,-0.52 0.66,0 1.47,0.11 2.16,0.11 0.67,0 1.67,0.03 2.29,0.03 0.71,0 1.5,-0.03 2.24,-0.03 0.73,0 1.61,-0.11 2.34,-0.11 0.2,0 0.77,0 0.77,0.77 0,0.48 -0.42,0.48 -1.19,0.48 -0.56,0 -0.7,0 -1.33,0.08 -0.65,0.06 -0.76,0.14 -0.76,0.48 0,0.21 0.42,1.88 0.65,2.83 0.28,1.11 1.02,4.14 1.1,4.28 0.12,0.52 0.12,0.6 0.48,0.94 z"
           id="path6025"
           inkscape:connector-curvature="0"
           style="fill:#000000;stroke-width:0" /><path
           d="m 740.55,422.5 0.14,0 0.15,0 0.14,0 0.08,0.01 0.07,0 0.07,0.01 0.07,0.01 0.07,0.01 0.07,0.01 0.07,0.01 0.07,0.02 0.06,0.02 0.06,0.02 0.06,0.02 0.06,0.03 0.06,0.03 0.05,0.04 0.05,0.03 0.05,0.05 0.04,0.04 0.04,0.05 0.02,0.03 0.02,0.03 0.01,0.02 0.02,0.03 0.01,0.03 0.02,0.04 0.01,0.03 0.01,0.04 0.01,0.03 0.01,0.04 0.01,0.04 0,0.04 0.01,0.04 0,0.04 0,0.04 0,0.05 c 0,1 -0.95,1 -1.64,1 h -29.84 c -0.71,0 -1.64,0 -1.64,-1 0,-0.98 0.93,-0.98 1.68,-0.98 z"
           id="path6027"
           inkscape:connector-curvature="0"
           style="fill:#000000;stroke-width:0" /><path
           d="m 740.6,412.82 0.07,0 0.06,0 0.14,0.01 0.14,0 0.07,0 0.07,0.01 0.07,0.01 0.07,0 0.07,0.01 0.06,0.02 0.07,0.01 0.06,0.02 0.07,0.02 0.06,0.02 0.06,0.02 0.06,0.03 0.05,0.03 0.05,0.04 0.05,0.04 0.05,0.04 0.04,0.05 0.02,0.02 0.02,0.03 0.02,0.02 0.02,0.03 0.01,0.03 0.02,0.03 0.01,0.03 0.02,0.03 0.01,0.04 0.01,0.03 0.01,0.04 0.01,0.04 0.01,0.04 0,0.04 0.01,0.04 0,0.04 0,0.05 0,0.04 c 0,1 -0.95,1 -1.69,1 H 710.8 c -0.75,0 -1.68,0 -1.68,-1 0,-1 0.93,-1 1.64,-1 z"
           id="path6029"
           inkscape:connector-curvature="0"
           style="fill:#000000;stroke-width:0" /><path
           d="m 774.27,424.23 0.33,0.18 0.33,0.17 0.32,0.19 0.31,0.19 0.3,0.19 0.3,0.2 0.29,0.2 0.28,0.2 0.27,0.21 0.26,0.22 0.25,0.21 0.25,0.23 0.23,0.22 0.23,0.24 0.21,0.23 0.2,0.24 0.2,0.24 0.18,0.25 0.17,0.25 0.16,0.26 0.15,0.26 0.14,0.27 0.12,0.27 0.11,0.27 0.1,0.28 0.09,0.28 0.08,0.28 0.06,0.29 0.05,0.29 0.03,0.3 0.02,0.3 0.01,0.31 c 0,4.59 -4.44,7.44 -8.97,7.44 l -0.05,-1.25 c 3.65,0 6.83,-2.6 6.83,-6.19 0,-2.83 -1.95,-5.22 -4.93,-6.97 l -6.18,3.98 c -2.29,1.5 -2.5,3.19 -2.5,4.04 0,3.04 3.25,5.14 6.78,5.14 l 0.05,1.25 c -4.98,0 -9.01,-3.69 -9.01,-8.33 0,-0.89 0.09,-3.14 2.18,-5.49 0.55,-0.59 2.4,-1.84 3.65,-2.68 l 1.13,-0.75 6.15,-3.88 c 1.39,-0.95 3.73,-2.45 3.73,-5.48 0,-3.69 -3.73,-6.28 -7.83,-6.28 -4.28,0 -7.87,3.09 -7.87,7.21 0,2.9 1.59,6.08 5.82,8.43 h 0 l -1.13,0.75 c -2.9,-1.44 -7.18,-4.24 -7.18,-9.18 0,-5.28 5.08,-8.6 10.31,-8.6 5.63,0 10.37,4.14 10.37,9.46 0,1.79 -0.55,4.04 -2.44,6.13 -0.96,1.05 -1.75,1.55 -4.94,3.53 z"
           id="path6031"
           inkscape:connector-curvature="0"
           style="fill:#000000;stroke-width:0" /></g>    </g>
    <g
       id="g6087"
       transform="matrix(0.55835071,0.211605,-0.211605,0.55835071,255.70137,106.77032)">
      <g
         word-spacing="normal"
         letter-spacing="normal"
         font-size-adjust="none"
         font-stretch="normal"
         font-weight="normal"
         font-variant="normal"
         font-style="normal"
         stroke-miterlimit="10.433"
         xml:space="preserve"
         transform="matrix(1.0629921,0,0,-1.0629921,-186.02362,789.27165)"
         id="g6089"
         style="font-style:normal;font-variant:normal;font-weight:normal;font-stretch:normal;letter-spacing:normal;word-spacing:normal;text-anchor:start;fill:none;stroke:#000000;stroke-linecap:butt;stroke-linejoin:miter;stroke-miterlimit:10.43299961;stroke-opacity:1;stroke-dasharray:none;stroke-dashoffset:0"><path
           id="path6091"
           d="m 477.35,406.5 0.72,0.29 0.72,0.33 0.71,0.35 0.71,0.4 0.7,0.42 0.69,0.45 0.68,0.48 0.68,0.51 0.65,0.54 0.65,0.56 0.63,0.59 0.61,0.61 0.6,0.64 0.57,0.66 0.56,0.68 0.54,0.7 0.51,0.72 0.49,0.73 0.46,0.76 0.44,0.77 0.41,0.79 0.38,0.8 0.35,0.82 0.32,0.83 0.29,0.84 0.25,0.85 0.21,0.87 0.18,0.87 0.15,0.88 0.1,0.89 0.06,0.89 0.02,0.9 c 0,8.03 -5.28,13.4 -12.71,13.4 l -0.3,-1.25 c 4.98,0 8.62,-3.87 8.62,-10.56 0,-4.98 -2.54,-16.64 -10.9,-21.31 -0.25,1.73 -0.75,5.37 -4.39,5.37 v -1.09 c 2.09,0 3.04,-1.2 3.04,-4.23 0,-0.75 -0.06,-0.8 -0.56,-1 -1.28,-0.55 -2.78,-0.89 -4.17,-0.89 h 0 c -0.7,0 -2.3,0 -2.3,2.14 0,1.98 1.89,3.98 3.99,3.98 v 1.09 c -2.64,0 -5.08,-2.5 -5.08,-5.07 0,-1 0.3,-1.55 0.3,-1.6 h 0 c -3.89,1.53 -5.58,5.42 -5.58,9.91 0,3.44 1.29,10.51 5.08,15.89 3.64,5.09 8.32,7.37 11.95,7.37 l 0.3,1.25 c -10.75,0 -21.72,-11.31 -21.72,-22.92 0,-8.26 5.58,-13.29 12.76,-13.29 1.24,0 2.94,0.2 4.88,0.75 -0.21,-3.1 -0.21,-3.19 -0.21,-3.85 0,-1.59 0,-5.48 4.15,-5.48 5.92,0 8.31,9.12 8.31,9.67 0,0.34 -0.35,0.5 -0.55,0.5 -0.39,0 -0.5,-0.25 -0.59,-0.55 -1.19,-3.54 -4.08,-4.78 -5.83,-4.78 -2.3,0 -3.05,1.34 -3.53,5.13 z"
           inkscape:connector-curvature="0"
           style="fill:#000000;stroke-width:0" /><path
           id="path6093"
           d="m 514.25,412.07 3.32,3.32 c 4.45,4.39 5.81,5.75 8.95,5.92 0.45,0.03 0.88,0.03 0.88,0.73 0,0.41 -0.4,0.52 -0.5,0.52 -1,0 -2.22,-0.14 -3.27,-0.14 -0.91,0 -3.14,0.14 -4.05,0.14 -0.28,0 -0.7,-0.11 -0.7,-0.77 0,-0.03 0,-0.45 0.53,-0.48 0.31,-0.03 1.19,-0.11 1.19,-0.88 0,-0.51 -0.53,-1.07 -0.88,-1.42 -0.28,-0.25 -4.7,-4.56 -6,-5.89 l -3.51,6.83 c -0.07,0.11 -0.17,0.34 -0.17,0.48 0,0.25 0.65,0.8 1.84,0.88 0.25,0 0.73,0.03 0.73,0.76 0,0.04 -0.03,0.49 -0.59,0.49 -0.73,0 -1.59,-0.11 -2.33,-0.11 -0.73,0 -1.53,-0.03 -2.26,-0.03 -0.6,0 -1.44,0 -2.07,0.03 -0.59,0.05 -1.31,0.11 -1.87,0.11 -0.17,0 -0.74,0 -0.74,-0.77 0,-0.48 0.46,-0.48 1.02,-0.48 2.02,0 2.19,-0.35 2.53,-1.05 l 4.89,-9.62 -1.95,-1.94 c -0.67,-0.64 -2.3,-2.2 -2.94,-2.86 -4.25,-4.22 -5.67,-5.69 -8.81,-5.83 -0.49,-0.03 -0.86,-0.03 -0.86,-0.76 0,-0.14 0.09,-0.49 0.48,-0.49 1,0 2.19,0.14 3.24,0.14 0.59,0 1.47,0 2.06,-0.03 0.63,-0.05 1.39,-0.11 1.98,-0.11 0.18,0 0.74,0 0.74,0.74 0,0.48 -0.42,0.51 -0.64,0.51 -0.35,0.05 -1.08,0.14 -1.08,0.88 0,0.56 0.45,1.01 1.22,1.78 l 7.08,6.94 4.22,-8.27 c 0.17,-0.34 0.2,-0.42 0.2,-0.45 0,-0.21 -0.63,-0.77 -1.85,-0.88 -0.31,-0.03 -0.76,-0.03 -0.76,-0.76 0,-0.04 0.03,-0.49 0.59,-0.49 0.74,0 1.61,0.11 2.33,0.11 0.74,0 1.55,0.03 2.27,0.03 0.59,0 1.44,0 2.06,-0.03 0.59,-0.05 1.33,-0.11 1.88,-0.11 0.17,0 0.73,0 0.73,0.77 0,0.48 -0.45,0.48 -1,0.48 -2.03,0 -2.2,0.39 -2.52,0.99 z"
           inkscape:connector-curvature="0"
           style="fill:#000000;stroke-width:0" /><path
           id="path6095"
           d="m 564.22,417.65 h 13.9 c 0.69,0 1.64,0 1.64,1 0,1 -0.95,1 -1.64,1 h -13.9 v 13.96 c 0,0.68 0,1.64 -1,1.64 -0.99,0 -0.99,-0.96 -0.99,-1.64 v -13.96 h -13.95 c -0.71,0 -1.64,0 -1.64,-1 0,-1 0.93,-1 1.64,-1 h 13.95 v -13.94 c 0,-0.7 0,-1.65 0.99,-1.65 1,0 1,0.95 1,1.65 z"
           inkscape:connector-curvature="0"
           style="fill:#000000;stroke-width:0" /><path
           id="path6097"
           d="m 599.97,410.04 5.28,5.13 c 7.76,6.87 10.76,9.56 10.76,14.54 0,5.69 -4.48,9.68 -10.56,9.68 -5.64,0 -9.33,-4.6 -9.33,-9.03 0,-2.79 2.5,-2.79 2.64,-2.79 0.86,0 2.59,0.6 2.59,2.64 0,1.3 -0.88,2.6 -2.63,2.6 -0.4,0 -0.5,0 -0.65,-0.05 1.15,3.24 3.83,5.08 6.72,5.08 4.53,0 6.69,-4.05 6.69,-8.13 0,-3.98 -2.5,-7.92 -5.23,-11.01 l -9.57,-10.66 c -0.56,-0.54 -0.56,-0.64 -0.56,-1.84 h 18.48 l 1.41,8.67 h -1.25 c -0.25,-1.5 -0.59,-3.69 -1.09,-4.44 -0.36,-0.39 -3.64,-0.39 -4.74,-0.39 z"
           inkscape:connector-curvature="0"
           style="fill:#000000;stroke-width:0" /><path
           id="path6099"
           d="m 640.42,406.5 0.72,0.29 0.72,0.33 0.72,0.35 0.7,0.4 0.71,0.42 0.69,0.45 0.68,0.48 0.67,0.51 0.66,0.54 0.64,0.56 0.63,0.59 0.62,0.61 0.59,0.64 0.58,0.66 0.55,0.68 0.54,0.7 0.51,0.72 0.49,0.73 0.47,0.76 0.43,0.77 0.41,0.79 0.38,0.8 0.35,0.82 0.32,0.83 0.29,0.84 0.25,0.85 0.22,0.87 0.18,0.87 0.14,0.88 0.1,0.89 0.07,0.89 0.02,0.9 c 0,8.03 -5.28,13.4 -12.72,13.4 l -0.3,-1.25 c 4.99,0 8.63,-3.87 8.63,-10.56 0,-4.98 -2.55,-16.64 -10.91,-21.31 -0.25,1.73 -0.75,5.37 -4.39,5.37 v -1.09 c 2.1,0 3.05,-1.2 3.05,-4.23 0,-0.75 -0.06,-0.8 -0.56,-1 -1.29,-0.55 -2.79,-0.89 -4.18,-0.89 h 0 c -0.7,0 -2.29,0 -2.29,2.14 0,1.98 1.89,3.98 3.98,3.98 v 1.09 c -2.64,0 -5.08,-2.5 -5.08,-5.07 0,-1 0.3,-1.55 0.3,-1.6 h 0 c -3.89,1.53 -5.58,5.42 -5.58,9.91 0,3.44 1.3,10.51 5.08,15.89 3.64,5.09 8.33,7.37 11.95,7.37 l 0.3,1.25 c -10.75,0 -21.72,-11.31 -21.72,-22.92 0,-8.26 5.58,-13.29 12.77,-13.29 1.23,0 2.93,0.2 4.87,0.75 -0.2,-3.1 -0.2,-3.19 -0.2,-3.85 0,-1.59 0,-5.48 4.14,-5.48 5.92,0 8.31,9.12 8.31,9.67 0,0.34 -0.34,0.5 -0.54,0.5 -0.4,0 -0.5,-0.25 -0.6,-0.55 -1.19,-3.54 -4.08,-4.78 -5.83,-4.78 -2.29,0 -3.04,1.34 -3.53,5.13 z"
           inkscape:connector-curvature="0"
           style="fill:#000000;stroke-width:0" /><path
           id="path6101"
           d="m 681.59,418.39 0.24,0.25 0.26,0.25 0.13,0.12 0.12,0.12 0.14,0.12 0.13,0.12 0.13,0.11 0.13,0.11 0.14,0.12 0.14,0.1 0.14,0.11 0.14,0.11 0.14,0.1 0.14,0.1 c 1.42,0.97 2.72,1.05 3.17,1.08 0.38,0.03 0.8,0.03 0.8,0.76 0,0.25 -0.2,0.49 -0.48,0.49 -0.88,0 -1.93,-0.14 -2.83,-0.14 -1.11,0 -2.58,0.14 -3.63,0.14 -0.17,0 -0.69,0 -0.69,-0.77 0,-0.45 0.46,-0.48 0.63,-0.48 1.02,-0.08 1.02,-0.45 1.02,-0.67 0,-0.32 -0.22,-0.58 -0.46,-0.91 -0.22,-0.31 -0.39,-0.55 -0.59,-0.77 l -8.72,-9.09 -4.59,10.22 c -0.25,0.48 -0.25,0.55 -0.25,0.59 0,0.63 1.67,0.63 1.89,0.63 0.45,0 0.9,0 0.9,0.76 0,0.04 0,0.49 -0.56,0.49 -1.05,0 -3.62,-0.14 -4.67,-0.14 -0.88,0 -3.1,0.14 -3.97,0.14 -0.28,0 -0.7,-0.11 -0.7,-0.77 0,-0.48 0.45,-0.48 0.95,-0.48 2.02,0 2.16,-0.31 2.5,-1.08 l 5.41,-11.92 -1.58,-6.38 c -0.46,-1.78 -0.49,-1.87 -3.21,-1.92 -0.59,0 -1.04,0 -1.04,-0.73 0,-0.35 0.25,-0.52 0.56,-0.52 0.66,0 1.47,0.11 2.16,0.11 0.67,0 1.67,0.03 2.29,0.03 0.71,0 1.5,-0.03 2.24,-0.03 0.73,0 1.61,-0.11 2.34,-0.11 0.2,0 0.77,0 0.77,0.77 0,0.48 -0.42,0.48 -1.19,0.48 -0.56,0 -0.7,0 -1.33,0.08 -0.65,0.06 -0.76,0.14 -0.76,0.48 0,0.21 0.42,1.88 0.65,2.83 0.28,1.11 1.02,4.14 1.1,4.28 0.12,0.52 0.12,0.6 0.48,0.94 z"
           inkscape:connector-curvature="0"
           style="fill:#000000;stroke-width:0" /><path
           id="path6103"
           d="m 740.55,422.5 0.14,0 0.15,0 0.14,0 0.08,0.01 0.07,0 0.07,0.01 0.07,0.01 0.07,0.01 0.07,0.01 0.07,0.01 0.07,0.02 0.06,0.02 0.06,0.02 0.06,0.02 0.06,0.03 0.06,0.03 0.05,0.04 0.05,0.03 0.05,0.05 0.04,0.04 0.04,0.05 0.02,0.03 0.02,0.03 0.01,0.02 0.02,0.03 0.01,0.03 0.02,0.04 0.01,0.03 0.01,0.04 0.01,0.03 0.01,0.04 0.01,0.04 0,0.04 0.01,0.04 0,0.04 0,0.04 0,0.05 c 0,1 -0.95,1 -1.64,1 h -29.84 c -0.71,0 -1.64,0 -1.64,-1 0,-0.98 0.93,-0.98 1.68,-0.98 z"
           inkscape:connector-curvature="0"
           style="fill:#000000;stroke-width:0" /><path
           id="path6105"
           d="m 740.6,412.82 0.07,0 0.06,0 0.14,0.01 0.14,0 0.07,0 0.07,0.01 0.07,0.01 0.07,0 0.07,0.01 0.06,0.02 0.07,0.01 0.06,0.02 0.07,0.02 0.06,0.02 0.06,0.02 0.06,0.03 0.05,0.03 0.05,0.04 0.05,0.04 0.05,0.04 0.04,0.05 0.02,0.02 0.02,0.03 0.02,0.02 0.02,0.03 0.01,0.03 0.02,0.03 0.01,0.03 0.02,0.03 0.01,0.04 0.01,0.03 0.01,0.04 0.01,0.04 0.01,0.04 0,0.04 0.01,0.04 0,0.04 0,0.05 0,0.04 c 0,1 -0.95,1 -1.69,1 H 710.8 c -0.75,0 -1.68,0 -1.68,-1 0,-1 0.93,-1 1.64,-1 z"
           inkscape:connector-curvature="0"
           style="fill:#000000;stroke-width:0" /><path
           id="path6107"
           d="m 773.52,438.09 0,0.05 0,0.06 0,0.05 0,0.05 0,0.05 0,0.05 0,0.04 0,0.05 0,0.04 0,0.04 -0.01,0.04 0,0.04 0,0.04 0,0.03 0,0.04 -0.01,0.03 -0.01,0.07 0,0.06 -0.02,0.05 -0.01,0.05 -0.02,0.05 -0.02,0.04 -0.02,0.04 -0.02,0.03 -0.03,0.03 -0.03,0.03 -0.04,0.03 -0.04,0.02 -0.04,0.02 -0.03,0.01 -0.02,0.01 -0.03,0 -0.02,0.01 -0.03,0.01 -0.03,0 -0.03,0.01 -0.03,0 -0.04,0.01 -0.03,0 -0.04,0 -0.04,0.01 -0.03,0 -0.04,0 -0.05,0 -0.04,0 -0.04,0 -0.05,0.01 -0.05,0 -0.05,0 -0.05,0 -0.05,0 c -3.1,-3.19 -7.47,-3.19 -9.06,-3.19 v -1.55 c 1,0 3.93,0 6.51,1.3 v -25.81 c 0,-1.8 -0.14,-2.39 -4.62,-2.39 h -1.6 v -1.55 c 1.75,0.16 6.08,0.16 8.07,0.16 2,0 6.32,0 8.07,-0.16 v 1.55 h -1.59 c -4.48,0 -4.64,0.54 -4.64,2.39 z"
           inkscape:connector-curvature="0"
           style="fill:#000000;stroke-width:0" /><path
           id="path6109"
           d="m 806.76,422.14 -0.01,0.74 -0.01,0.75 -0.02,0.75 -0.03,0.74 -0.04,0.75 -0.06,0.74 -0.08,0.74 -0.1,0.73 -0.11,0.73 -0.14,0.73 -0.16,0.72 -0.19,0.72 -0.22,0.72 -0.24,0.7 -0.28,0.7 -0.15,0.35 -0.16,0.34 c -2.28,4.8 -6.38,5.6 -8.47,5.6 -2.99,0 -6.63,-1.3 -8.67,-5.94 -1.6,-3.44 -1.85,-7.33 -1.85,-11.31 0,-3.74 0.21,-8.22 2.25,-12 2.14,-4.03 5.78,-5.03 8.22,-5.03 v 1.09 c -1.94,0 -4.89,1.25 -5.78,6.03 -0.55,2.98 -0.55,7.56 -0.55,10.52 0,3.18 0,6.46 0.41,9.15 0.94,5.94 4.67,6.38 5.92,6.38 1.64,0 4.94,-0.89 5.88,-5.83 0.5,-2.78 0.5,-6.58 0.5,-9.7 0,-3.75 0,-7.13 -0.55,-10.32 -0.75,-4.73 -3.59,-6.23 -5.83,-6.23 h 0 v -1.09 c 2.69,0 6.47,1.04 8.67,5.78 1.6,3.43 1.85,7.31 1.85,11.25 z"
           inkscape:connector-curvature="0"
           style="fill:#000000;stroke-width:0" /></g>    </g>
    <g
       id="g6189"
       transform="matrix(0.68827975,0,0,0.68827975,-151.93461,69.542452)">
      <g
         id="g6191"
         transform="matrix(1.0629921,0,0,-1.0629921,-186.02362,789.27165)"
         xml:space="preserve"
         stroke-miterlimit="10.433"
         font-style="normal"
         font-variant="normal"
         font-weight="normal"
         font-stretch="normal"
         font-size-adjust="none"
         letter-spacing="normal"
         word-spacing="normal"
         style="font-style:normal;font-variant:normal;font-weight:normal;font-stretch:normal;letter-spacing:normal;word-spacing:normal;text-anchor:start;fill:none;stroke:#000000;stroke-linecap:butt;stroke-linejoin:miter;stroke-miterlimit:10.43299961;stroke-opacity:1;stroke-dasharray:none;stroke-dashoffset:0"><path
           d="m 464.44,411.93 -0.19,-0.3 -0.18,-0.29 -0.19,-0.28 -0.19,-0.26 -0.18,-0.25 -0.19,-0.23 -0.19,-0.22 -0.18,-0.21 -0.19,-0.2 -0.19,-0.18 -0.18,-0.17 -0.19,-0.16 -0.19,-0.15 -0.18,-0.14 -0.19,-0.13 -0.19,-0.12 -0.19,-0.11 -0.19,-0.1 -0.19,-0.09 -0.19,-0.09 -0.19,-0.07 -0.2,-0.07 -0.19,-0.07 -0.2,-0.05 -0.19,-0.05 -0.2,-0.04 -0.2,-0.04 -0.19,-0.03 -0.41,-0.05 -0.4,-0.03 c -0.61,-0.05 -1.05,-0.05 -1.05,-1 0,-0.3 0.25,-0.55 0.64,-0.55 1.34,0 2.89,0.16 4.28,0.16 1.64,0 3.39,-0.16 4.99,-0.16 0.29,0 0.95,0 0.95,0.95 0,0.55 -0.45,0.6 -0.8,0.6 -1.15,0.09 -2.34,0.5 -2.34,1.73 0,0.61 0.3,1.16 0.69,1.84 l 3.79,6.39 h 12.5 l -0.14,1.54 h -11.42 l 9.83,16.45 1.59,-16.45 0.14,-1.54 c 0.11,-1.04 0.8,-7.82 0.8,-8.32 0,-1.5 -2.59,-1.64 -3.58,-1.64 -0.7,0 -1.2,0 -1.2,-1 0,-0.55 0.59,-0.55 0.7,-0.55 2.03,0 4.19,0.16 6.22,0.16 1.25,0 4.39,-0.16 5.64,-0.16 0.3,0 0.89,0 0.89,1 0,0.55 -0.5,0.55 -1.14,0.55 -3.09,0 -3.09,0.34 -3.25,1.79 l -3.03,31.13 c -0.11,1 -0.11,1.2 -0.95,1.2 -0.8,0 -0.99,-0.34 -1.3,-0.84 z"
           id="path6193"
           inkscape:connector-curvature="0"
           style="fill:#000000;stroke-width:0" /></g>    </g>
    <g
       id="g6279"
       transform="matrix(0.66100391,0,0,0.66100391,-138.32135,-75.42359)">
      <g
         word-spacing="normal"
         letter-spacing="normal"
         font-size-adjust="none"
         font-stretch="normal"
         font-weight="normal"
         font-variant="normal"
         font-style="normal"
         stroke-miterlimit="10.433"
         xml:space="preserve"
         transform="matrix(1.0629921,0,0,-1.0629921,-186.02362,789.27165)"
         id="g6281"
         style="font-style:normal;font-variant:normal;font-weight:normal;font-stretch:normal;letter-spacing:normal;word-spacing:normal;text-anchor:start;fill:none;stroke:#000000;stroke-linecap:butt;stroke-linejoin:miter;stroke-miterlimit:10.43299961;stroke-opacity:1;stroke-dasharray:none;stroke-dashoffset:0"><path
           id="path6283"
           d="m 463.49,410.09 -0.05,-0.18 -0.04,-0.17 -0.05,-0.16 -0.04,-0.15 -0.04,-0.15 -0.05,-0.13 -0.05,-0.13 -0.05,-0.12 -0.05,-0.11 -0.06,-0.11 -0.07,-0.1 -0.07,-0.09 -0.07,-0.09 -0.09,-0.07 -0.09,-0.08 -0.11,-0.06 -0.11,-0.07 -0.13,-0.05 -0.13,-0.05 -0.15,-0.05 -0.16,-0.04 -0.09,-0.02 -0.09,-0.01 -0.09,-0.02 -0.1,-0.02 -0.1,-0.01 -0.1,-0.01 -0.11,-0.01 -0.12,-0.02 -0.11,-0.01 -0.13,-0.01 -0.12,0 -0.13,-0.01 -0.14,-0.01 -0.14,0 -0.14,-0.01 -0.15,0 -0.16,-0.01 -0.16,0 -0.16,0 -0.17,0 -0.18,0 -0.18,0 c -0.85,0 -1.35,0 -1.35,-1 0,-0.55 0.46,-0.55 1.35,-0.55 h 17.78 c 7.87,0 13.75,5.87 13.75,10.76 0,3.58 -2.89,6.47 -7.72,7.02 5.19,0.95 10.42,4.64 10.42,9.38 0,3.68 -3.3,6.87 -9.28,6.87 l -0.69,-1.55 c 4.38,0 5.42,-2.93 5.42,-5.12 0,-4.39 -4.28,-9.13 -10.35,-9.13 h -7.27 l -0.3,-1.09 h 9.41 c 4.78,0 5.73,-3.69 5.73,-5.83 0,-4.94 -4.43,-9.76 -10.31,-9.76 h -6.78 c -0.69,0 -0.8,0 -1.09,0.04 -0.5,0.05 -0.64,0.1 -0.64,0.5 0,0.14 0,0.25 0.25,1.14 l 3.43,13.91 0.3,1.09 3.08,12.36 c 0.45,1.74 0.54,1.89 2.7,1.89 h 6.42 l 0.69,1.55 h -16.73 c -0.94,0 -1.44,0 -1.44,-1 0,-0.55 0.44,-0.55 1.39,-0.55 0.09,0 1.05,0 1.89,-0.09 0.89,-0.11 1.34,-0.16 1.34,-0.8 0,-0.2 -0.04,-0.36 -0.2,-0.95 z"
           inkscape:connector-curvature="0"
           style="fill:#000000;stroke-width:0" /></g>    </g>
    <g
       id="g6375"
       transform="matrix(0.81285204,0,0,0.81285204,407.61723,210.53753)">
      <g
         id="g6377"
         transform="matrix(1.0629921,0,0,-1.0629921,-186.02362,789.27165)"
         xml:space="preserve"
         stroke-miterlimit="10.433"
         font-style="normal"
         font-variant="normal"
         font-weight="normal"
         font-stretch="normal"
         font-size-adjust="none"
         letter-spacing="normal"
         word-spacing="normal"
         style="font-style:normal;font-variant:normal;font-weight:normal;font-stretch:normal;letter-spacing:normal;word-spacing:normal;text-anchor:start;fill:none;stroke:#000000;stroke-linecap:butt;stroke-linejoin:miter;stroke-miterlimit:10.43299961;stroke-opacity:1;stroke-dasharray:none;stroke-dashoffset:0"><path
           d="m 477.35,406.5 0.72,0.29 0.72,0.33 0.71,0.35 0.71,0.4 0.7,0.42 0.69,0.45 0.68,0.48 0.68,0.51 0.65,0.54 0.65,0.56 0.63,0.59 0.61,0.61 0.6,0.64 0.57,0.66 0.56,0.68 0.54,0.7 0.51,0.72 0.49,0.73 0.46,0.76 0.44,0.77 0.41,0.79 0.38,0.8 0.35,0.82 0.32,0.83 0.29,0.84 0.25,0.85 0.21,0.87 0.18,0.87 0.15,0.88 0.1,0.89 0.06,0.89 0.02,0.9 c 0,8.03 -5.28,13.4 -12.71,13.4 l -0.3,-1.25 c 4.98,0 8.62,-3.87 8.62,-10.56 0,-4.98 -2.54,-16.64 -10.9,-21.31 -0.25,1.73 -0.75,5.37 -4.39,5.37 v -1.09 c 2.09,0 3.04,-1.2 3.04,-4.23 0,-0.75 -0.06,-0.8 -0.56,-1 -1.28,-0.55 -2.78,-0.89 -4.17,-0.89 h 0 c -0.7,0 -2.3,0 -2.3,2.14 0,1.98 1.89,3.98 3.99,3.98 v 1.09 c -2.64,0 -5.08,-2.5 -5.08,-5.07 0,-1 0.3,-1.55 0.3,-1.6 h 0 c -3.89,1.53 -5.58,5.42 -5.58,9.91 0,3.44 1.29,10.51 5.08,15.89 3.64,5.09 8.32,7.37 11.95,7.37 l 0.3,1.25 c -10.75,0 -21.72,-11.31 -21.72,-22.92 0,-8.26 5.58,-13.29 12.76,-13.29 1.24,0 2.94,0.2 4.88,0.75 -0.21,-3.1 -0.21,-3.19 -0.21,-3.85 0,-1.59 0,-5.48 4.15,-5.48 5.92,0 8.31,9.12 8.31,9.67 0,0.34 -0.35,0.5 -0.55,0.5 -0.39,0 -0.5,-0.25 -0.59,-0.55 -1.19,-3.54 -4.08,-4.78 -5.83,-4.78 -2.3,0 -3.05,1.34 -3.53,5.13 z"
           id="path6379"
           inkscape:connector-curvature="0"
           style="fill:#000000;stroke-width:0" /><path
           d="m 514.25,412.07 3.32,3.32 c 4.45,4.39 5.81,5.75 8.95,5.92 0.45,0.03 0.88,0.03 0.88,0.73 0,0.41 -0.4,0.52 -0.5,0.52 -1,0 -2.22,-0.14 -3.27,-0.14 -0.91,0 -3.14,0.14 -4.05,0.14 -0.28,0 -0.7,-0.11 -0.7,-0.77 0,-0.03 0,-0.45 0.53,-0.48 0.31,-0.03 1.19,-0.11 1.19,-0.88 0,-0.51 -0.53,-1.07 -0.88,-1.42 -0.28,-0.25 -4.7,-4.56 -6,-5.89 l -3.51,6.83 c -0.07,0.11 -0.17,0.34 -0.17,0.48 0,0.25 0.65,0.8 1.84,0.88 0.25,0 0.73,0.03 0.73,0.76 0,0.04 -0.03,0.49 -0.59,0.49 -0.73,0 -1.59,-0.11 -2.33,-0.11 -0.73,0 -1.53,-0.03 -2.26,-0.03 -0.6,0 -1.44,0 -2.07,0.03 -0.59,0.05 -1.31,0.11 -1.87,0.11 -0.17,0 -0.74,0 -0.74,-0.77 0,-0.48 0.46,-0.48 1.02,-0.48 2.02,0 2.19,-0.35 2.53,-1.05 l 4.89,-9.62 -1.95,-1.94 c -0.67,-0.64 -2.3,-2.2 -2.94,-2.86 -4.25,-4.22 -5.67,-5.69 -8.81,-5.83 -0.49,-0.03 -0.86,-0.03 -0.86,-0.76 0,-0.14 0.09,-0.49 0.48,-0.49 1,0 2.19,0.14 3.24,0.14 0.59,0 1.47,0 2.06,-0.03 0.63,-0.05 1.39,-0.11 1.98,-0.11 0.18,0 0.74,0 0.74,0.74 0,0.48 -0.42,0.51 -0.64,0.51 -0.35,0.05 -1.08,0.14 -1.08,0.88 0,0.56 0.45,1.01 1.22,1.78 l 7.08,6.94 4.22,-8.27 c 0.17,-0.34 0.2,-0.42 0.2,-0.45 0,-0.21 -0.63,-0.77 -1.85,-0.88 -0.31,-0.03 -0.76,-0.03 -0.76,-0.76 0,-0.04 0.03,-0.49 0.59,-0.49 0.74,0 1.61,0.11 2.33,0.11 0.74,0 1.55,0.03 2.27,0.03 0.59,0 1.44,0 2.06,-0.03 0.59,-0.05 1.33,-0.11 1.88,-0.11 0.17,0 0.73,0 0.73,0.77 0,0.48 -0.45,0.48 -1,0.48 -2.03,0 -2.2,0.39 -2.52,0.99 z"
           id="path6381"
           inkscape:connector-curvature="0"
           style="fill:#000000;stroke-width:0" /></g>    </g>
    <g
       id="g6481"
       transform="matrix(0.84700549,0,0,0.84700549,-172.12768,-238.00463)">
      <g
         word-spacing="normal"
         letter-spacing="normal"
         font-size-adjust="none"
         font-stretch="normal"
         font-weight="normal"
         font-variant="normal"
         font-style="normal"
         stroke-miterlimit="10.433"
         xml:space="preserve"
         transform="matrix(1.0629921,0,0,-1.0629921,-186.02362,789.27165)"
         id="g6483"
         style="font-style:normal;font-variant:normal;font-weight:normal;font-stretch:normal;letter-spacing:normal;word-spacing:normal;text-anchor:start;fill:none;stroke:#000000;stroke-linecap:butt;stroke-linejoin:miter;stroke-miterlimit:10.43299961;stroke-opacity:1;stroke-dasharray:none;stroke-dashoffset:0"><path
           id="path6485"
           d="m 477.35,406.5 0.72,0.29 0.72,0.33 0.71,0.35 0.71,0.4 0.7,0.42 0.69,0.45 0.68,0.48 0.68,0.51 0.65,0.54 0.65,0.56 0.63,0.59 0.61,0.61 0.6,0.64 0.57,0.66 0.56,0.68 0.54,0.7 0.51,0.72 0.49,0.73 0.46,0.76 0.44,0.77 0.41,0.79 0.38,0.8 0.35,0.82 0.32,0.83 0.29,0.84 0.25,0.85 0.21,0.87 0.18,0.87 0.15,0.88 0.1,0.89 0.06,0.89 0.02,0.9 c 0,8.03 -5.28,13.4 -12.71,13.4 l -0.3,-1.25 c 4.98,0 8.62,-3.87 8.62,-10.56 0,-4.98 -2.54,-16.64 -10.9,-21.31 -0.25,1.73 -0.75,5.37 -4.39,5.37 v -1.09 c 2.09,0 3.04,-1.2 3.04,-4.23 0,-0.75 -0.06,-0.8 -0.56,-1 -1.28,-0.55 -2.78,-0.89 -4.17,-0.89 h 0 c -0.7,0 -2.3,0 -2.3,2.14 0,1.98 1.89,3.98 3.99,3.98 v 1.09 c -2.64,0 -5.08,-2.5 -5.08,-5.07 0,-1 0.3,-1.55 0.3,-1.6 h 0 c -3.89,1.53 -5.58,5.42 -5.58,9.91 0,3.44 1.29,10.51 5.08,15.89 3.64,5.09 8.32,7.37 11.95,7.37 l 0.3,1.25 c -10.75,0 -21.72,-11.31 -21.72,-22.92 0,-8.26 5.58,-13.29 12.76,-13.29 1.24,0 2.94,0.2 4.88,0.75 -0.21,-3.1 -0.21,-3.19 -0.21,-3.85 0,-1.59 0,-5.48 4.15,-5.48 5.92,0 8.31,9.12 8.31,9.67 0,0.34 -0.35,0.5 -0.55,0.5 -0.39,0 -0.5,-0.25 -0.59,-0.55 -1.19,-3.54 -4.08,-4.78 -5.83,-4.78 -2.3,0 -3.05,1.34 -3.53,5.13 z"
           inkscape:connector-curvature="0"
           style="fill:#000000;stroke-width:0" /><path
           id="path6487"
           d="m 518.5,418.39 0.25,0.25 0.26,0.25 0.12,0.12 0.13,0.12 0.13,0.12 0.14,0.12 0.13,0.11 0.13,0.11 0.14,0.12 0.14,0.1 0.13,0.11 0.14,0.11 0.15,0.1 0.14,0.1 c 1.42,0.97 2.72,1.05 3.17,1.08 0.38,0.03 0.8,0.03 0.8,0.76 0,0.25 -0.2,0.49 -0.49,0.49 -0.87,0 -1.92,-0.14 -2.83,-0.14 -1.1,0 -2.57,0.14 -3.62,0.14 -0.17,0 -0.69,0 -0.69,-0.77 0,-0.45 0.46,-0.48 0.63,-0.48 1.01,-0.08 1.01,-0.45 1.01,-0.67 0,-0.32 -0.21,-0.58 -0.45,-0.91 -0.22,-0.31 -0.39,-0.55 -0.59,-0.77 l -8.72,-9.09 -4.6,10.22 c -0.25,0.48 -0.25,0.55 -0.25,0.59 0,0.63 1.68,0.63 1.89,0.63 0.46,0 0.91,0 0.91,0.76 0,0.04 0,0.49 -0.56,0.49 -1.05,0 -3.63,-0.14 -4.67,-0.14 -0.88,0 -3.1,0.14 -3.97,0.14 -0.28,0 -0.71,-0.11 -0.71,-0.77 0,-0.48 0.46,-0.48 0.96,-0.48 2.01,0 2.15,-0.31 2.5,-1.08 l 5.4,-11.92 -1.57,-6.38 c -0.46,-1.78 -0.49,-1.87 -3.21,-1.92 -0.59,0 -1.04,0 -1.04,-0.73 0,-0.35 0.25,-0.52 0.56,-0.52 0.65,0 1.47,0.11 2.15,0.11 0.68,0 1.68,0.03 2.3,0.03 0.7,0 1.5,-0.03 2.24,-0.03 0.73,0 1.61,-0.11 2.34,-0.11 0.2,0 0.77,0 0.77,0.77 0,0.48 -0.43,0.48 -1.19,0.48 -0.56,0 -0.71,0 -1.33,0.08 -0.66,0.06 -0.77,0.14 -0.77,0.48 0,0.21 0.43,1.88 0.66,2.83 0.28,1.11 1.02,4.14 1.09,4.28 0.13,0.52 0.13,0.6 0.49,0.94 z"
           inkscape:connector-curvature="0"
           style="fill:#000000;stroke-width:0" /></g>    </g>
    <g
       transform="matrix(0.66474051,0,0,0.66474051,37.289527,183.80395)"
       id="g6595">
      <g
         style="font-style:normal;font-variant:normal;font-weight:normal;font-stretch:normal;letter-spacing:normal;word-spacing:normal;text-anchor:start;fill:none;stroke:#000000;stroke-linecap:butt;stroke-linejoin:miter;stroke-miterlimit:10.43299961;stroke-opacity:1;stroke-dasharray:none;stroke-dashoffset:0"
         id="g6597"
         transform="matrix(1.0629921,0,0,-1.0629921,-186.02362,789.27165)"
         xml:space="preserve"
         stroke-miterlimit="10.433"
         font-style="normal"
         font-variant="normal"
         font-weight="normal"
         font-stretch="normal"
         font-size-adjust="none"
         letter-spacing="normal"
         word-spacing="normal"><path
           style="fill:#000000;stroke-width:0"
           inkscape:connector-curvature="0"
           d="m 493.38,440.82 0,0.02 0,0.02 0,0.01 -0.01,0.02 0,0.02 0,0.02 -0.01,0.02 0,0.02 -0.01,0.02 -0.01,0.02 -0.01,0.02 0,0.02 -0.02,0.02 -0.01,0.02 -0.01,0.02 -0.01,0.02 -0.02,0.02 -0.02,0.02 -0.02,0.02 -0.02,0.02 -0.02,0.01 -0.02,0.02 -0.03,0.01 -0.02,0.02 -0.03,0.01 -0.01,0.01 -0.02,0 -0.01,0.01 -0.02,0 -0.02,0.01 -0.01,0 -0.02,0 -0.02,0.01 -0.02,0 -0.02,0 -0.02,0 -0.02,0 -0.02,0 -0.02,0 c -0.14,0 -0.2,-0.04 -0.75,-0.59 l -3.48,-3.84 c -0.44,0.7 -2.74,4.43 -8.27,4.43 -11.11,0 -22.33,-11.01 -22.33,-22.56 0,-8.23 5.89,-13.65 13.52,-13.65 4.33,0 8.11,1.98 10.75,4.28 4.64,4.09 5.48,8.62 5.48,8.76 0,0.5 -0.5,0.5 -0.59,0.5 -0.3,0 -0.55,-0.09 -0.66,-0.5 -0.43,-1.44 -1.59,-4.98 -5.03,-7.87 -3.43,-2.78 -6.58,-3.63 -9.15,-3.63 -4.49,0 -9.77,2.6 -9.77,10.36 0,2.85 1.05,10.91 6.02,16.74 3.04,3.54 7.73,6.03 12.15,6.03 5.1,0 8.03,-3.83 8.03,-9.61 0,-2 -0.15,-2.05 -0.15,-2.55 0,-0.5 0.54,-0.5 0.75,-0.5 0.64,0 0.64,0.11 0.89,1 z"
           id="path6599" /></g>    </g>
    <g
       transform="matrix(0.66736733,0,0,0.66736733,156.39776,290.77322)"
       id="g6713">
      <g
         style="font-style:normal;font-variant:normal;font-weight:normal;font-stretch:normal;letter-spacing:normal;word-spacing:normal;text-anchor:start;fill:none;stroke:#000000;stroke-linecap:butt;stroke-linejoin:miter;stroke-miterlimit:10.43299961;stroke-opacity:1;stroke-dasharray:none;stroke-dashoffset:0"
         word-spacing="normal"
         letter-spacing="normal"
         font-size-adjust="none"
         font-stretch="normal"
         font-weight="normal"
         font-variant="normal"
         font-style="normal"
         stroke-miterlimit="10.433"
         xml:space="preserve"
         transform="matrix(1.0629921,0,0,-1.0629921,-186.02362,789.27165)"
         id="g6715"><path
           style="fill:#000000;stroke-width:0"
           inkscape:connector-curvature="0"
           id="path6717"
           d="m 463.44,410.09 -0.04,-0.18 -0.05,-0.17 -0.04,-0.16 -0.05,-0.15 -0.04,-0.15 -0.05,-0.13 -0.04,-0.13 -0.05,-0.12 -0.06,-0.11 -0.06,-0.11 -0.06,-0.1 -0.07,-0.09 -0.08,-0.09 -0.09,-0.07 -0.09,-0.08 -0.11,-0.06 -0.11,-0.07 -0.12,-0.05 -0.14,-0.05 -0.15,-0.05 -0.16,-0.04 -0.09,-0.02 -0.08,-0.01 -0.1,-0.02 -0.1,-0.02 -0.1,-0.01 -0.1,-0.01 -0.11,-0.01 -0.11,-0.02 -0.12,-0.01 -0.12,-0.01 -0.13,0 -0.13,-0.01 -0.13,-0.01 -0.15,0 -0.14,-0.01 -0.15,0 -0.16,-0.01 -0.16,0 -0.16,0 -0.17,0 -0.18,0 -0.18,0 c -0.84,0 -1.39,0 -1.39,-0.96 0,-0.59 0.44,-0.59 1.39,-0.59 h 16.48 l -0.89,1.55 h -5.62 c -0.7,0 -0.8,0 -1.11,0.04 -0.48,0.05 -0.64,0.1 -0.64,0.5 0,0.14 0,0.25 0.25,1.14 l 6.83,27.36 c 0.43,1.74 0.54,1.89 2.68,1.89 h 5.33 c 4.89,0 9.02,-2.64 9.02,-9.22 0,-2.43 -1,-10.6 -5.24,-16.09 -1.43,-1.84 -5.37,-5.62 -11.5,-5.62 l 0.89,-1.55 c 10.36,0 20.19,10.51 20.19,21.42 0,7.03 -4.23,12.61 -11.72,12.61 h -16.73 c -0.95,0 -1.5,0 -1.5,-0.95 0,-0.6 0.45,-0.6 1.45,-0.6 0.64,0 1.55,-0.04 2.14,-0.09 0.8,-0.11 1.1,-0.25 1.1,-0.8 0,-0.2 -0.05,-0.36 -0.21,-0.95 z" /></g>    </g>
    <g
       transform="matrix(0.70232792,0,0,0.70232792,371.87438,278.27537)"
       id="g6837">
      <g
         style="font-style:normal;font-variant:normal;font-weight:normal;font-stretch:normal;letter-spacing:normal;word-spacing:normal;text-anchor:start;fill:none;stroke:#000000;stroke-linecap:butt;stroke-linejoin:miter;stroke-miterlimit:10.43299961;stroke-opacity:1;stroke-dasharray:none;stroke-dashoffset:0"
         id="g6839"
         transform="matrix(1.0629921,0,0,-1.0629921,-186.02362,789.27165)"
         xml:space="preserve"
         stroke-miterlimit="10.433"
         font-style="normal"
         font-variant="normal"
         font-weight="normal"
         font-stretch="normal"
         font-size-adjust="none"
         letter-spacing="normal"
         word-spacing="normal"><path
           style="fill:#000000;stroke-width:0"
           inkscape:connector-curvature="0"
           d="m 490.8,417.81 0.01,0.02 0.01,0.03 0.02,0.05 0.02,0.05 0.02,0.05 0.02,0.05 0.02,0.05 0.02,0.05 0.01,0.05 0.01,0.03 0.01,0.02 0.01,0.02 0.01,0.03 0,0.02 0.01,0.02 0.01,0.02 0,0.02 0.01,0.02 0,0.02 0.01,0.01 0,0.02 0,0.02 0,0.01 0,0.01 0.01,0.01 c 0,0.05 0,0.55 -0.6,0.55 -0.45,0 -0.55,-0.3 -0.64,-0.61 -3.25,-7.38 -5.08,-10.7 -13.61,-10.7 h -7.26 c -0.71,0 -0.8,0 -1.1,0.04 -0.5,0.05 -0.65,0.1 -0.65,0.5 0,0.14 0,0.25 0.25,1.14 l 3.39,13.61 h 4.93 c 4.24,0 4.24,-1.04 4.24,-2.29 0,-0.35 0,-0.96 -0.36,-2.44 -0.09,-0.25 -0.14,-0.41 -0.14,-0.55 0,-0.25 0.19,-0.55 0.64,-0.55 0.41,0 0.55,0.25 0.75,0.99 l 2.84,11.67 c 0,0.3 -0.25,0.55 -0.61,0.55 -0.43,0 -0.54,-0.3 -0.68,-0.91 -1.05,-3.78 -1.96,-4.92 -6.54,-4.92 h -4.68 l 3,12 c 0.43,1.75 0.5,1.94 2.68,1.94 h 7.02 c 6.08,0 7.58,-1.44 7.58,-5.53 0,-1.19 0,-1.29 -0.2,-2.64 0,-0.3 -0.05,-0.65 -0.05,-0.9 0,-0.25 0.15,-0.59 0.59,-0.59 0.56,0 0.61,0.3 0.71,1.25 l 1,8.61 c 0.14,1.34 -0.1,1.34 -1.35,1.34 h -25.15 c -1,0 -1.5,0 -1.5,-1 0,-0.54 0.45,-0.54 1.39,-0.54 1.84,0 3.23,0 3.23,-0.89 0,-0.21 0,-0.3 -0.25,-1.21 l -6.56,-26.34 c -0.5,-1.95 -0.61,-2.34 -4.55,-2.34 -0.84,0 -1.39,0 -1.39,-0.96 0,-0.59 0.45,-0.59 1.39,-0.59 h 25.86 c 1.16,0 1.2,0.05 1.55,0.84 z"
           id="path6841" /></g>    </g>
    <path
       transform="translate(29.605612,33.165852)"
       inkscape:connector-curvature="0"
       id="path7524"
       d="m 155.08958,303.40909 c -41.79709,-15.17822 -77.038119,-28.64017 -78.313402,-29.91545 -1.451604,-1.45161 -2.086006,-30.34527 -1.69646,-77.26489 l 0.622235,-74.94619 79.456877,103.86364 c 43.70128,57.125 79.45688,104.42658 79.45688,105.11461 0,2.0216 -0.22886,1.94433 -79.52613,-26.85172 l 0,0 z"
       style="fill:#f9f9f9;fill-opacity:1;stroke:none" />
    <g
       id="g7646"
       transform="translate(-37.668445,204.82217)">
      <g
         word-spacing="normal"
         letter-spacing="normal"
         font-size-adjust="none"
         font-stretch="normal"
         font-weight="normal"
         font-variant="normal"
         font-style="normal"
         stroke-miterlimit="10.433"
         xml:space="preserve"
         transform="matrix(0.70882956,0,0,-0.70882956,-124.04517,511.87853)"
         id="g7648"
         style="font-style:normal;font-variant:normal;font-weight:normal;font-stretch:normal;letter-spacing:normal;word-spacing:normal;text-anchor:start;fill:none;stroke:#000000;stroke-linecap:butt;stroke-linejoin:miter;stroke-miterlimit:10.43299961;stroke-opacity:1;stroke-dasharray:none;stroke-dashoffset:0"><path
           id="path7650"
           d="m 477.64,418.65 -0.01,0.5 -0.04,0.49 -0.06,0.48 -0.09,0.48 -0.11,0.46 -0.13,0.46 -0.15,0.45 -0.18,0.44 -0.2,0.43 -0.21,0.42 -0.24,0.4 -0.26,0.39 -0.27,0.38 -0.29,0.37 -0.31,0.35 -0.32,0.34 -0.34,0.32 -0.35,0.3 -0.37,0.29 -0.38,0.27 -0.39,0.25 -0.4,0.23 -0.42,0.22 -0.43,0.19 -0.43,0.18 -0.45,0.15 -0.46,0.13 -0.46,0.11 -0.47,0.08 -0.48,0.06 -0.48,0.04 -0.49,0.01 c -5.37,0 -9.72,-4.43 -9.72,-9.67 0,-5.28 4.35,-9.65 9.72,-9.65 5.24,0 9.67,4.32 9.67,9.65 z"
           inkscape:connector-curvature="0"
           style="fill:#000000;stroke-width:0" /><path
           id="path7652"
           d="m 482.71,400.12 -0.03,-0.15 -0.04,-0.15 -0.03,-0.14 -0.04,-0.13 -0.03,-0.13 -0.03,-0.11 -0.04,-0.12 -0.03,-0.1 -0.04,-0.1 -0.04,-0.09 -0.04,-0.09 -0.05,-0.08 -0.05,-0.07 -0.05,-0.07 -0.06,-0.07 -0.06,-0.06 -0.07,-0.05 -0.07,-0.05 -0.08,-0.04 -0.09,-0.04 -0.09,-0.04 -0.11,-0.03 -0.1,-0.03 -0.12,-0.02 -0.13,-0.02 -0.07,-0.01 -0.06,-0.01 -0.08,-0.01 -0.07,-0.01 -0.08,0 -0.07,-0.01 -0.09,0 -0.08,-0.01 -0.09,0 -0.09,0 -0.09,0 -0.1,0 -0.1,-0.01 -0.1,0 c -0.59,0 -1.14,0 -1.14,-0.93 0,-0.41 0.25,-0.61 0.64,-0.61 1.36,0 2.8,0.15 4.19,0.15 1.64,0 3.34,-0.15 4.94,-0.15 0.25,0 0.89,0 0.89,1 0,0.54 -0.5,0.54 -1.19,0.54 -2.5,0 -2.5,0.36 -2.5,0.8 0,0.61 2.1,8.72 2.45,9.97 0.65,-1.44 2.04,-3.19 4.58,-3.19 l -0.04,1.1 c -3.3,0 -3.94,4.14 -3.94,4.43 0,0.1 0,0.21 0.14,0.8 l 2.45,9.77 c 0.35,1.34 1.69,2.73 2.58,3.48 1.75,1.55 3.2,1.89 4.05,1.89 1.98,0 3.18,-1.73 3.18,-4.69 0,-2.93 -1.64,-8.65 -2.54,-10.56 -1.69,-3.48 -4.08,-5.12 -5.92,-5.12 l 0.04,-1.1 c 5.78,0 12,7.27 12,14.6 0,4.68 -2.83,7.96 -6.62,7.96 -2.49,0 -4.88,-1.78 -6.52,-3.73 -0.5,2.69 -2.64,3.73 -4.48,3.73 -2.3,0 -3.25,-1.93 -3.69,-2.82 -0.91,-1.71 -1.55,-4.69 -1.55,-4.85 0,-0.5 0.5,-0.5 0.6,-0.5 0.5,0 0.54,0.07 0.84,1.16 0.86,3.53 1.84,5.92 3.64,5.92 0.85,0 1.55,-0.39 1.55,-2.28 0,-1.16 -0.16,-1.7 -0.35,-2.55 z"
           inkscape:connector-curvature="0"
           style="fill:#000000;stroke-width:0" /></g>    </g>
    <g
       transform="translate(-70.628334,49.439834)"
       id="g7896">
      <g
         style="font-style:normal;font-variant:normal;font-weight:normal;font-stretch:normal;letter-spacing:normal;word-spacing:normal;text-anchor:start;fill:none;stroke:#000000;stroke-linecap:butt;stroke-linejoin:miter;stroke-miterlimit:10.43299961;stroke-opacity:1;stroke-dasharray:none;stroke-dashoffset:0"
         id="g7898"
         transform="matrix(0.70882956,0,0,-0.70882956,-124.04517,511.87853)"
         xml:space="preserve"
         stroke-miterlimit="10.433"
         font-style="normal"
         font-variant="normal"
         font-weight="normal"
         font-stretch="normal"
         font-size-adjust="none"
         letter-spacing="normal"
         word-spacing="normal"><path
           style="fill:#000000;stroke-width:0"
           inkscape:connector-curvature="0"
           d="m 477.64,418.65 -0.01,0.5 -0.04,0.49 -0.06,0.48 -0.09,0.48 -0.11,0.46 -0.13,0.46 -0.15,0.45 -0.18,0.44 -0.2,0.43 -0.21,0.42 -0.24,0.4 -0.26,0.39 -0.27,0.38 -0.29,0.37 -0.31,0.35 -0.32,0.34 -0.34,0.32 -0.35,0.3 -0.37,0.29 -0.38,0.27 -0.39,0.25 -0.4,0.23 -0.42,0.22 -0.43,0.19 -0.43,0.18 -0.45,0.15 -0.46,0.13 -0.46,0.11 -0.47,0.08 -0.48,0.06 -0.48,0.04 -0.49,0.01 c -5.37,0 -9.72,-4.43 -9.72,-9.67 0,-5.28 4.35,-9.65 9.72,-9.65 5.24,0 9.67,4.32 9.67,9.65 z"
           id="path7900" /><path
           style="fill:#000000;stroke-width:0"
           inkscape:connector-curvature="0"
           d="m 502.99,427.67 0,0.02 0,0.02 0,0.02 0,0.02 -0.01,0.02 0,0.02 -0.01,0.02 -0.01,0.02 0,0.02 -0.01,0.02 -0.01,0.02 -0.01,0.03 -0.01,0.02 -0.02,0.02 -0.01,0.02 -0.01,0.01 -0.02,0.02 -0.02,0.02 -0.01,0.02 -0.02,0.01 -0.02,0.02 -0.02,0.01 -0.02,0.02 -0.03,0.01 -0.02,0.01 -0.03,0.01 -0.03,0.01 -0.02,0 -0.03,0.01 -0.03,0 -0.03,0.01 -0.02,0 -0.02,0 c -0.54,0 -2.53,-1.99 -3.37,-3.44 -1.11,2.69 -3.05,3.48 -4.64,3.48 v -1.09 c 3.23,0 3.93,-4.03 3.93,-4.37 0,-0.32 -2.73,-11.22 -2.89,-11.43 -0.75,-1.39 -3.53,-4.57 -6.32,-4.57 h 0 c -2.99,0 -3.19,3.84 -3.19,4.68 0,2.39 1.44,7.82 2.29,9.91 1.54,3.69 4.13,5.78 6.18,5.78 v 1.09 c -5.88,0 -12,-7.37 -12,-14.59 0,-4.87 2.93,-7.97 6.56,-7.97 2.16,0 4.09,1.19 5.89,2.99 -0.45,-1.74 -2.09,-8.47 -2.25,-8.93 -0.39,-1.39 -0.8,-1.59 -3.58,-1.64 -0.65,0 -1.15,0 -1.15,-1 0,-0.04 0,-0.54 0.65,-0.54 1.6,0 3.33,0.15 4.99,0.15 1.68,0 3.48,-0.15 5.12,-0.15 0.25,0 0.89,0 0.89,1 0,0.54 -0.48,0.54 -1.28,0.54 -2.41,0 -2.41,0.36 -2.41,0.8 0,0.36 0.11,0.66 0.21,1.09 z"
           id="path7902" /></g>    </g>
    <g
       transform="translate(110.65106,70.628334)"
       id="g8154">
      <g
         style="font-style:normal;font-variant:normal;font-weight:normal;font-stretch:normal;letter-spacing:normal;word-spacing:normal;text-anchor:start;fill:none;stroke:#000000;stroke-linecap:butt;stroke-linejoin:miter;stroke-miterlimit:10.43299961;stroke-opacity:1;stroke-dasharray:none;stroke-dashoffset:0"
         word-spacing="normal"
         letter-spacing="normal"
         font-size-adjust="none"
         font-stretch="normal"
         font-weight="normal"
         font-variant="normal"
         font-style="normal"
         stroke-miterlimit="10.433"
         xml:space="preserve"
         transform="matrix(0.70882956,0,0,-0.70882956,-124.04517,511.87853)"
         id="g8156"><path
           style="fill:#000000;stroke-width:0"
           inkscape:connector-curvature="0"
           id="path8158"
           d="m 477.64,418.65 -0.01,0.5 -0.04,0.49 -0.06,0.48 -0.09,0.48 -0.11,0.46 -0.13,0.46 -0.15,0.45 -0.18,0.44 -0.2,0.43 -0.21,0.42 -0.24,0.4 -0.26,0.39 -0.27,0.38 -0.29,0.37 -0.31,0.35 -0.32,0.34 -0.34,0.32 -0.35,0.3 -0.37,0.29 -0.38,0.27 -0.39,0.25 -0.4,0.23 -0.42,0.22 -0.43,0.19 -0.43,0.18 -0.45,0.15 -0.46,0.13 -0.46,0.11 -0.47,0.08 -0.48,0.06 -0.48,0.04 -0.49,0.01 c -5.37,0 -9.72,-4.43 -9.72,-9.67 0,-5.28 4.35,-9.65 9.72,-9.65 5.24,0 9.67,4.32 9.67,9.65 z" /><path
           style="fill:#000000;stroke-width:0"
           inkscape:connector-curvature="0"
           id="path8160"
           d="m 484.87,409.14 -0.02,-0.07 -0.01,-0.08 -0.02,-0.07 -0.02,-0.08 -0.03,-0.16 -0.04,-0.16 -0.04,-0.16 -0.03,-0.16 -0.04,-0.16 -0.04,-0.16 -0.02,-0.08 -0.01,-0.07 -0.02,-0.07 -0.01,-0.07 -0.02,-0.07 -0.01,-0.07 -0.02,-0.06 -0.01,-0.06 -0.01,-0.06 -0.01,-0.05 -0.01,-0.05 0,-0.04 -0.01,-0.04 0,-0.04 -0.01,-0.03 0,-0.02 c 0,-0.89 0.71,-1.35 1.44,-1.35 0.61,0 1.5,0.39 1.85,1.39 0.1,0.21 1.79,6.99 2,7.88 0.39,1.64 1.29,5.12 1.59,6.48 0.2,0.64 1.59,2.99 2.78,4.08 0.41,0.34 1.84,1.64 4,1.64 1.28,0 2.03,-0.59 2.08,-0.59 -1.49,-0.25 -2.58,-1.46 -2.58,-2.74 0,-0.79 0.55,-1.75 1.89,-1.75 1.34,0 2.74,1.14 2.74,2.94 0,1.75 -1.6,3.23 -4.13,3.23 -3.25,0 -5.44,-2.43 -6.39,-3.82 -0.39,2.23 -2.19,3.82 -4.53,3.82 -2.28,0 -3.24,-1.93 -3.69,-2.82 -0.89,-1.71 -1.55,-4.69 -1.55,-4.85 0,-0.5 0.5,-0.5 0.61,-0.5 0.5,0 0.55,0.07 0.85,1.16 0.84,3.53 1.84,5.92 3.64,5.92 0.84,0 1.54,-0.39 1.54,-2.28 0,-1.05 -0.15,-1.61 -0.79,-4.19 z" /></g>    </g>
    <g
       transform="translate(183.63367,230.71923)"
       id="g8420">
      <g
         style="font-style:normal;font-variant:normal;font-weight:normal;font-stretch:normal;letter-spacing:normal;word-spacing:normal;text-anchor:start;fill:none;stroke:#000000;stroke-linecap:butt;stroke-linejoin:miter;stroke-miterlimit:10.43299961;stroke-opacity:1;stroke-dasharray:none;stroke-dashoffset:0"
         id="g8422"
         transform="matrix(0.70882956,0,0,-0.70882956,-124.04517,511.87853)"
         xml:space="preserve"
         stroke-miterlimit="10.433"
         font-style="normal"
         font-variant="normal"
         font-weight="normal"
         font-stretch="normal"
         font-size-adjust="none"
         letter-spacing="normal"
         word-spacing="normal"><path
           style="fill:#000000;stroke-width:0"
           inkscape:connector-curvature="0"
           d="m 477.64,418.65 -0.01,0.5 -0.04,0.49 -0.06,0.48 -0.09,0.48 -0.11,0.46 -0.13,0.46 -0.15,0.45 -0.18,0.44 -0.2,0.43 -0.21,0.42 -0.24,0.4 -0.26,0.39 -0.27,0.38 -0.29,0.37 -0.31,0.35 -0.32,0.34 -0.34,0.32 -0.35,0.3 -0.37,0.29 -0.38,0.27 -0.39,0.25 -0.4,0.23 -0.42,0.22 -0.43,0.19 -0.43,0.18 -0.45,0.15 -0.46,0.13 -0.46,0.11 -0.47,0.08 -0.48,0.06 -0.48,0.04 -0.49,0.01 c -5.37,0 -9.72,-4.43 -9.72,-9.67 0,-5.28 4.35,-9.65 9.72,-9.65 5.24,0 9.67,4.32 9.67,9.65 z"
           id="path8424" /><path
           style="fill:#000000;stroke-width:0"
           inkscape:connector-curvature="0"
           d="m 499.96,424.84 -0.13,-0.01 -0.13,-0.01 -0.12,-0.02 -0.13,-0.03 -0.12,-0.03 -0.11,-0.04 -0.12,-0.04 -0.11,-0.04 -0.1,-0.05 -0.11,-0.06 -0.1,-0.06 -0.09,-0.06 -0.1,-0.07 -0.09,-0.07 -0.08,-0.07 -0.08,-0.08 -0.08,-0.08 -0.07,-0.08 -0.07,-0.09 -0.06,-0.08 -0.06,-0.09 -0.06,-0.1 -0.05,-0.09 -0.04,-0.1 -0.04,-0.09 -0.04,-0.1 -0.03,-0.1 -0.02,-0.1 -0.02,-0.1 -0.02,-0.11 -0.01,-0.1 0,-0.1 c 0,-0.7 0.44,-1.44 1.55,-1.44 1.09,0 2.28,0.85 2.28,2.78 0,2.25 -2.14,4.28 -5.92,4.28 -6.58,0 -8.43,-5.07 -8.43,-7.26 0,-3.89 3.69,-4.64 5.13,-4.94 2.59,-0.5 5.19,-1.05 5.19,-3.78 0,-1.3 -1.14,-5.48 -7.13,-5.48 -0.7,0 -4.53,0 -5.69,2.64 1.91,-0.25 3.15,1.25 3.15,2.64 0,1.14 -0.8,1.75 -1.85,1.75 -1.3,0 -2.78,-1.05 -2.78,-3.3 0,-2.84 2.84,-4.83 7.13,-4.83 8.06,0 10.01,6.03 10.01,8.27 0,1.79 -0.95,3.04 -1.55,3.64 -1.34,1.39 -2.79,1.64 -4.98,2.09 -1.8,0.39 -3.78,0.75 -3.78,2.99 0,1.45 1.19,4.48 5.58,4.48 1.23,0 3.73,-0.34 4.48,-2.28 z"
           id="path8426" /></g>    </g>
    <g
       style="font-style:normal;font-variant:normal;font-weight:normal;font-stretch:normal;letter-spacing:normal;word-spacing:normal;text-anchor:start;fill:none;stroke:#000000;stroke-linecap:butt;stroke-linejoin:miter;stroke-miterlimit:10.43299961;stroke-opacity:1;stroke-dasharray:none;stroke-dashoffset:0"
       ns0:preamble="/home/abhinavc/playpen/textext/preamble.ini"
       ns0:text="\\begin{tabular}{|c|c|}\n\\hline \n\\text{Feasible Region} &amp; \\text{Shaded} \\\\\n\\hline \n\\text{Feasible Point(s)} &amp; \\text{A,B and C} \\\\\n\\hline\n\\end{tabular}"
       word-spacing="normal"
       letter-spacing="normal"
       font-size-adjust="none"
       font-stretch="normal"
       font-weight="normal"
       font-variant="normal"
       font-style="normal"
       stroke-miterlimit="10.433"
       xml:space="preserve"
       transform="matrix(3.5011328,0,0,-3.5011328,-845.54188,2028.7335)"
       id="g8640">
<line
   id="line8642"
   y2="538.35999"
   x2="463.03"
   y1="538.35999"
   x1="325.13"
   style="stroke-width:0.398" />
<line
   id="line8644"
   y2="538.15997"
   x2="325.13"
   y1="526.21002"
   x1="325.13"
   style="stroke-width:0.398" />
<path
   id="path8646"
   d="m 338.64,532.92 v 0.61 h -3 v 2.49 h 1.3 c 0.12,0 0.24,-0.01 0.36,-0.01 h 1.75 v 0.65 h -4.3 v -6.87 h 0.89 v 3.13 z"
   inkscape:connector-curvature="0"
   style="fill:#000000;stroke-width:0" />
<path
   id="path8648"
   d="m 343.33,531.97 0,0.03 0,0.03 0,0.04 0,0.04 0,0.04 0,0.05 -0.01,0.04 0,0.05 0,0.05 0,0.05 -0.01,0.05 0,0.05 -0.01,0.05 -0.01,0.06 0,0.05 -0.01,0.06 -0.01,0.06 -0.01,0.05 -0.02,0.06 -0.01,0.06 -0.02,0.06 -0.01,0.06 -0.02,0.06 -0.02,0.06 -0.02,0.06 -0.03,0.06 -0.02,0.06 -0.03,0.06 -0.03,0.05 -0.03,0.06 -0.03,0.06 -0.04,0.06 c -0.41,0.61 -1.01,0.72 -1.37,0.72 -1.11,0 -2,-1.05 -2,-2.33 0,-1.31 0.95,-2.36 2.15,-2.36 0.62,0 1.19,0.24 1.58,0.52 l -0.06,0.64 c -0.63,-0.51 -1.28,-0.55 -1.51,-0.55 -0.8,0 -1.43,0.7 -1.46,1.68 l 0.04,0.54 c 0.16,0.76 0.69,1.26 1.26,1.26 0.52,0 1.07,-0.34 1.2,-1.26 h -2.46 l -0.04,-0.54 z"
   inkscape:connector-curvature="0"
   style="fill:#000000;stroke-width:0" />
<path
   id="path8650"
   d="m 347.61,532.66 0,0.1 -0.01,0.09 -0.01,0.09 -0.01,0.09 -0.02,0.08 -0.03,0.09 -0.02,0.08 -0.03,0.08 -0.03,0.07 -0.04,0.08 -0.04,0.07 -0.04,0.07 -0.05,0.07 -0.04,0.06 -0.06,0.06 -0.05,0.06 -0.06,0.05 -0.06,0.05 -0.06,0.05 -0.06,0.05 -0.07,0.04 -0.07,0.04 -0.07,0.04 -0.07,0.03 -0.08,0.03 -0.07,0.02 -0.08,0.02 -0.08,0.02 -0.08,0.01 -0.08,0.01 -0.09,0.01 -0.08,0 c -0.65,0 -1.1,-0.16 -1.57,-0.43 l 0.06,-0.65 c 0.52,0.37 1.02,0.49 1.51,0.49 0.46,0 0.86,-0.39 0.86,-1.13 v -0.42 c -1.49,-0.02 -2.75,-0.44 -2.75,-1.32 0,-0.42 0.26,-1.23 1.13,-1.23 0.14,0 1.08,0.02 1.65,0.47 l -0.37,0.33 c -0.29,-0.18 -0.66,-0.19 -0.77,-0.19 -0.48,0 -0.93,0.23 -0.93,0.64 0,0.7 1.61,0.77 2.04,0.79 v -0.62 c 0,-0.19 0,-0.43 -0.34,-0.62 l 0.37,-0.33 v -0.36 h 0.75 z"
   inkscape:connector-curvature="0"
   style="fill:#000000;stroke-width:0" />
<path
   id="path8652"
   d="m 351.84,534.05 -0.05,0.03 -0.05,0.02 -0.09,0.04 -0.09,0.03 -0.09,0.03 -0.09,0.03 -0.09,0.03 -0.09,0.02 -0.08,0.02 -0.09,0.02 -0.08,0.01 -0.09,0.02 -0.09,0.01 -0.09,0 -0.09,0.01 -0.09,0 -0.09,0 c -0.25,0 -1.66,0 -1.66,-1.3 0,-0.49 0.29,-0.8 0.54,-0.99 0.31,-0.22 0.53,-0.26 1.08,-0.37 0.35,-0.07 0.93,-0.19 0.93,-0.72 0,-0.68 -0.78,-0.68 -0.93,-0.68 -0.81,0 -1.37,0.37 -1.55,0.48 l -0.12,-0.67 c 0.32,-0.16 0.87,-0.44 1.68,-0.44 0.17,0 0.72,0 1.15,0.32 0.31,0.24 0.48,0.64 0.48,1.06 0,0.55 -0.37,0.89 -0.39,0.92 -0.39,0.35 -0.66,0.41 -1.15,0.49 -0.55,0.11 -1.01,0.21 -1.01,0.7 0,0.61 0.72,0.61 0.85,0.61 0.31,0 0.84,-0.03 1.41,-0.37 z"
   inkscape:connector-curvature="0"
   style="fill:#000000;stroke-width:0" />
<polygon
   id="polygon8654"
   points="353.87,535.66 353.87,536.55 352.98,536.55 352.98,535.66 "
   style="fill:#000000;stroke-width:0" />
<polygon
   id="polygon8656"
   points="353.8,529.79 353.8,534.2 353.05,534.2 353.05,529.79 "
   style="fill:#000000;stroke-width:0" />
<path
   id="path8658"
   d="m 356.19,536.69 h -0.75 v -6.9 h 0.78 v 0.46 c 0.24,-0.22 0.66,-0.57 1.33,-0.57 1,0 1.85,1 1.85,2.33 0,1.23 -0.68,2.3 -1.61,2.3 -0.39,0 -1.01,-0.1 -1.6,-0.58 l 0.03,-0.61 c 0.16,0.24 0.51,0.59 1.06,0.59 0.59,0 1.34,-0.43 1.34,-1.7 0,-1.29 -0.83,-1.72 -1.44,-1.72 -0.39,0 -0.72,0.18 -0.96,0.63 v 2.2 l -0.03,0.61 z"
   inkscape:connector-curvature="0"
   style="fill:#000000;stroke-width:0" />
<polygon
   id="polygon8660"
   points="361.32,529.79 361.32,536.69 360.58,536.69 360.58,529.79 "
   style="fill:#000000;stroke-width:0" />
<path
   id="path8662"
   d="m 366.27,531.97 0,0.03 0,0.03 0,0.04 0,0.04 0,0.04 0,0.05 0,0.04 -0.01,0.05 0,0.05 0,0.05 -0.01,0.05 0,0.05 -0.01,0.05 0,0.06 -0.01,0.05 -0.01,0.06 -0.01,0.06 -0.01,0.05 -0.02,0.06 -0.01,0.06 -0.01,0.06 -0.02,0.06 -0.02,0.06 -0.02,0.06 -0.02,0.06 -0.03,0.06 -0.02,0.06 -0.03,0.06 -0.03,0.05 -0.03,0.06 -0.03,0.06 -0.04,0.06 c -0.4,0.61 -1.01,0.72 -1.37,0.72 -1.1,0 -2,-1.05 -2,-2.33 0,-1.31 0.96,-2.36 2.15,-2.36 0.63,0 1.19,0.24 1.58,0.52 l -0.06,0.64 c -0.62,-0.51 -1.28,-0.55 -1.51,-0.55 -0.8,0 -1.43,0.7 -1.46,1.68 l 0.05,0.54 c 0.16,0.76 0.68,1.26 1.25,1.26 0.52,0 1.08,-0.34 1.2,-1.26 h -2.45 l -0.05,-0.54 z"
   inkscape:connector-curvature="0"
   style="fill:#000000;stroke-width:0" />
<path
   id="path8664"
   d="m 374.08,533.03 0.09,0.03 0.09,0.03 0.09,0.03 0.09,0.04 0.09,0.04 0.08,0.04 0.08,0.04 0.08,0.05 0.08,0.04 0.07,0.05 0.07,0.05 0.07,0.05 0.07,0.05 0.06,0.06 0.06,0.06 0.06,0.05 0.05,0.06 0.05,0.06 0.05,0.07 0.04,0.06 0.04,0.07 0.04,0.06 0.04,0.07 0.03,0.07 0.02,0.07 0.03,0.07 0.02,0.07 0.02,0.07 0.01,0.07 0.01,0.08 0.01,0.07 0,0.08 c 0,0.98 -1.09,1.85 -2.51,1.85 l -0.11,-0.56 c 1.15,0 1.81,-0.59 1.81,-1.29 0,-0.71 -0.63,-1.29 -1.81,-1.29 h -1.43 v 2.58 h 1.43 l 0.11,0.56 h -2.4 v -6.9 h 0.86 v 3.15 h 1.57 l 1.87,-3.15 h 0.89 z"
   inkscape:connector-curvature="0"
   style="fill:#000000;stroke-width:0" />
<path
   id="path8666"
   d="m 380.46,531.97 0,0.03 0,0.03 0,0.04 0,0.04 0,0.04 0,0.05 -0.01,0.04 0,0.05 0,0.05 0,0.05 -0.01,0.05 0,0.05 -0.01,0.05 -0.01,0.06 0,0.05 -0.01,0.06 -0.01,0.06 -0.01,0.05 -0.02,0.06 -0.01,0.06 -0.02,0.06 -0.01,0.06 -0.02,0.06 -0.02,0.06 -0.02,0.06 -0.03,0.06 -0.02,0.06 -0.03,0.06 -0.03,0.05 -0.03,0.06 -0.03,0.06 -0.04,0.06 c -0.41,0.61 -1.01,0.72 -1.37,0.72 -1.11,0 -2,-1.05 -2,-2.33 0,-1.31 0.95,-2.36 2.15,-2.36 0.62,0 1.19,0.24 1.58,0.52 l -0.06,0.64 c -0.63,-0.51 -1.28,-0.55 -1.51,-0.55 -0.8,0 -1.43,0.7 -1.46,1.68 l 0.05,0.54 c 0.16,0.76 0.68,1.26 1.25,1.26 0.52,0 1.07,-0.34 1.2,-1.26 h -2.45 l -0.05,-0.54 z"
   inkscape:connector-curvature="0"
   style="fill:#000000;stroke-width:0" />
<path
   id="path8668"
   d="m 384.27,533.68 0.04,0 0.05,0 0.04,0 0.04,0 0.05,0.01 0.05,0 0.04,0 0.05,0.01 0.1,0 0.04,0.01 0.05,0 0.05,0 0.05,0 0.04,0.01 0.05,0 c 0.18,0 0.56,-0.03 0.58,-0.03 l -0.11,0.62 c -0.69,0 -1.27,-0.19 -1.57,-0.32 -0.21,0.17 -0.55,0.32 -0.94,0.32 v -0.56 c 0.42,0 0.89,-0.28 0.89,-1.06 0,-0.77 -0.47,-1.05 -0.89,-1.05 h 0 c -0.37,0 -0.89,0.23 -0.89,1.05 0,0.83 0.52,1.06 0.89,1.06 v 0.56 c -0.86,0 -1.58,-0.71 -1.58,-1.62 0,-0.36 0.13,-0.72 0.32,-0.98 -0.29,-0.41 -0.29,-0.8 -0.29,-0.85 0,-0.25 0.1,-0.54 0.26,-0.75 -0.51,-0.31 -0.63,-0.77 -0.63,-1.02 0,-0.75 0.98,-1.34 2.2,-1.34 l 0.01,0.56 c -0.81,0 -1.52,0.31 -1.52,0.78 0,0.03 0,0.67 0.78,0.67 h 0.9 c 0.21,0 1.34,0 1.34,-0.68 0,-0.44 -0.69,-0.77 -1.5,-0.77 l -0.01,-0.56 c 1.22,0 2.2,0.58 2.2,1.35 0,1.38 -1.66,1.38 -2.05,1.38 h -0.87 c -0.13,0 -0.58,0 -0.58,0.52 0,0.11 0.04,0.27 0.11,0.36 0.21,-0.15 0.54,-0.29 0.91,-0.29 0.89,0 1.59,0.74 1.59,1.62 0,0.48 -0.22,0.85 -0.33,1 z"
   inkscape:connector-curvature="0"
   style="fill:#000000;stroke-width:0" />
<polygon
   id="polygon8670"
   points="387.37,535.66 387.37,536.55 386.49,536.55 386.49,535.66 "
   style="fill:#000000;stroke-width:0" />
<polygon
   id="polygon8672"
   points="387.3,529.79 387.3,534.2 386.56,534.2 386.56,529.79 "
   style="fill:#000000;stroke-width:0" />
<path
   id="path8674"
   d="m 392.8,531.98 -0.01,0.12 -0.01,0.12 -0.01,0.12 -0.02,0.12 -0.02,0.12 -0.03,0.11 -0.04,0.11 -0.04,0.11 -0.04,0.11 -0.05,0.1 -0.05,0.1 -0.06,0.1 -0.06,0.09 -0.07,0.09 -0.07,0.09 -0.07,0.08 -0.08,0.08 -0.08,0.08 -0.08,0.07 -0.08,0.07 -0.09,0.06 -0.09,0.05 -0.1,0.06 -0.09,0.05 -0.1,0.04 -0.1,0.04 -0.1,0.03 -0.11,0.02 -0.11,0.02 -0.1,0.02 -0.11,0.01 -0.11,0 -0.01,-0.6 c 0.69,0 1.41,-0.52 1.41,-1.69 0,-1.17 -0.68,-1.76 -1.41,-1.76 h 0 c -0.69,0 -1.41,0.56 -1.41,1.76 0,1.2 0.76,1.69 1.41,1.69 l 0.01,0.6 c -1.23,0 -2.19,-1.09 -2.19,-2.39 0,-1.31 1.01,-2.3 2.18,-2.3 1.19,0 2.19,1.01 2.19,2.3 z"
   inkscape:connector-curvature="0"
   style="fill:#000000;stroke-width:0" />
<path
   id="path8676"
   d="m 397.44,532.75 0,0.06 0,0.07 -0.01,0.06 0,0.07 -0.01,0.06 0,0.07 -0.01,0.07 -0.01,0.06 -0.02,0.07 -0.01,0.06 -0.02,0.07 -0.02,0.06 -0.03,0.07 -0.02,0.06 -0.03,0.06 -0.04,0.06 -0.03,0.05 -0.05,0.06 -0.04,0.05 -0.05,0.05 -0.05,0.05 -0.06,0.04 -0.06,0.04 -0.07,0.04 -0.03,0.02 -0.04,0.01 -0.04,0.02 -0.04,0.01 -0.04,0.02 -0.04,0.01 -0.04,0.01 -0.05,0.01 -0.04,0.01 -0.05,0.01 -0.05,0.01 -0.05,0 -0.05,0.01 -0.05,0 -0.06,0 -0.05,0 c -0.9,0 -1.39,-0.67 -1.45,-0.75 v 0.7 h -0.71 v -4.47 h 0.77 v 2.44 c 0,0.65 0.25,1.48 1.01,1.48 0.95,0 0.96,-0.71 0.96,-1.03 v -2.89 h 0.78 z"
   inkscape:connector-curvature="0"
   style="fill:#000000;stroke-width:0" />
<line
   id="line8678"
   y2="538.15997"
   x2="406.94"
   y1="526.21002"
   x1="406.94"
   style="stroke-width:0.398" />
<path
   id="path8680"
   d="m 424.52,536.41 -0.11,0.06 -0.1,0.05 -0.1,0.06 -0.11,0.04 -0.1,0.05 -0.11,0.04 -0.11,0.04 -0.11,0.03 -0.11,0.03 -0.11,0.02 -0.12,0.03 -0.12,0.01 -0.12,0.02 -0.13,0.01 -0.13,0 -0.07,0 -0.06,0.01 c -1.39,0 -2.25,-0.98 -2.25,-1.96 0,-0.43 0.14,-0.85 0.53,-1.26 0.42,-0.45 0.86,-0.57 1.45,-0.71 0.84,-0.21 0.94,-0.24 1.22,-0.49 0.2,-0.16 0.42,-0.49 0.42,-0.92 0,-0.66 -0.55,-1.31 -1.45,-1.31 -0.41,0 -1.31,0.1 -2.14,0.8 l -0.15,-0.8 c 0.87,-0.55 1.67,-0.69 2.3,-0.69 1.31,0 2.23,1.01 2.23,2.1 0,0.65 -0.31,1.12 -0.53,1.36 -0.47,0.5 -0.8,0.59 -1.71,0.81 -0.58,0.14 -0.74,0.18 -1.04,0.44 -0.07,0.06 -0.35,0.35 -0.35,0.79 0,0.58 0.54,1.18 1.46,1.18 0.83,0 1.31,-0.33 1.68,-0.64 z"
   inkscape:connector-curvature="0"
   style="fill:#000000;stroke-width:0" />
<path
   id="path8682"
   d="m 429.75,532.75 0,0.06 0,0.07 0,0.06 -0.01,0.07 0,0.06 -0.01,0.07 -0.01,0.07 -0.01,0.06 -0.01,0.07 -0.02,0.06 -0.02,0.07 -0.02,0.06 -0.02,0.07 -0.03,0.06 -0.03,0.06 -0.03,0.06 -0.04,0.05 -0.04,0.06 -0.05,0.05 -0.05,0.05 -0.05,0.05 -0.06,0.04 -0.06,0.04 -0.06,0.04 -0.04,0.02 -0.04,0.01 -0.03,0.02 -0.04,0.01 -0.04,0.02 -0.05,0.01 -0.04,0.01 -0.04,0.01 -0.05,0.01 -0.05,0.01 -0.04,0.01 -0.05,0 -0.06,0.01 -0.05,0 -0.05,0 -0.06,0 c -0.62,0 -1.09,-0.31 -1.41,-0.71 v 3.09 h -0.75 v -6.9 h 0.78 v 2.44 c 0,0.65 0.25,1.48 1,1.48 0.96,0 0.97,-0.71 0.97,-1.03 v -2.89 h 0.77 z"
   inkscape:connector-curvature="0"
   style="fill:#000000;stroke-width:0" />
<path
   id="path8684"
   d="m 434.54,532.66 0,0.1 -0.01,0.09 -0.01,0.09 -0.01,0.09 -0.02,0.08 -0.02,0.09 -0.03,0.08 -0.02,0.08 -0.04,0.07 -0.03,0.08 -0.04,0.07 -0.05,0.07 -0.04,0.07 -0.05,0.06 -0.05,0.06 -0.05,0.06 -0.06,0.05 -0.06,0.05 -0.06,0.05 -0.07,0.05 -0.06,0.04 -0.07,0.04 -0.07,0.04 -0.08,0.03 -0.07,0.03 -0.08,0.02 -0.08,0.02 -0.08,0.02 -0.08,0.01 -0.08,0.01 -0.08,0.01 -0.09,0 c -0.65,0 -1.09,-0.16 -1.56,-0.43 l 0.06,-0.65 c 0.52,0.37 1.01,0.49 1.5,0.49 0.47,0 0.87,-0.39 0.87,-1.13 v -0.42 c -1.5,-0.02 -2.76,-0.44 -2.76,-1.32 0,-0.42 0.27,-1.23 1.13,-1.23 0.14,0 1.08,0.02 1.66,0.47 l -0.37,0.33 c -0.29,-0.18 -0.67,-0.19 -0.78,-0.19 -0.48,0 -0.92,0.23 -0.92,0.64 0,0.7 1.61,0.77 2.04,0.79 v -0.62 c 0,-0.19 0,-0.43 -0.34,-0.62 l 0.37,-0.33 v -0.36 h 0.74 z"
   inkscape:connector-curvature="0"
   style="fill:#000000;stroke-width:0" />
<path
   id="path8686"
   d="m 439.68,536.69 h -0.75 v -2.92 c -0.53,0.43 -1.08,0.54 -1.45,0.54 -0.99,0 -1.76,-1.03 -1.76,-2.31 0,-1.3 0.76,-2.32 1.71,-2.32 0.33,0 0.92,0.09 1.47,0.63 l -0.32,0.26 c -0.23,-0.2 -0.48,-0.28 -0.74,-0.28 -0.62,0 -1.35,0.47 -1.35,1.7 0,1.31 0.86,1.72 1.45,1.72 0.45,0 0.74,-0.23 0.96,-0.55 v -1.99 c 0,-0.14 -0.01,-0.32 -0.32,-0.6 l 0.32,-0.26 v -0.52 h 0.78 z"
   inkscape:connector-curvature="0"
   style="fill:#000000;stroke-width:0" />
<path
   id="path8688"
   d="m 444.63,531.97 0,0.03 0,0.03 0,0.04 0,0.04 0,0.04 -0.01,0.05 0,0.04 0,0.05 0,0.05 -0.01,0.05 0,0.05 -0.01,0.05 0,0.05 -0.01,0.06 -0.01,0.05 -0.01,0.06 -0.01,0.06 -0.01,0.05 -0.01,0.06 -0.01,0.06 -0.02,0.06 -0.02,0.06 -0.01,0.06 -0.02,0.06 -0.03,0.06 -0.02,0.06 -0.02,0.06 -0.03,0.06 -0.03,0.05 -0.03,0.06 -0.03,0.06 -0.04,0.06 c -0.41,0.61 -1.02,0.72 -1.37,0.72 -1.11,0 -2,-1.05 -2,-2.33 0,-1.31 0.95,-2.36 2.15,-2.36 0.62,0 1.19,0.24 1.58,0.52 l -0.06,0.64 c -0.63,-0.51 -1.29,-0.55 -1.51,-0.55 -0.8,0 -1.44,0.7 -1.47,1.68 l 0.05,0.54 c 0.16,0.76 0.69,1.26 1.26,1.26 0.51,0 1.07,-0.34 1.2,-1.26 h -2.46 l -0.05,-0.54 z"
   inkscape:connector-curvature="0"
   style="fill:#000000;stroke-width:0" />
<path
   id="path8690"
   d="m 449.25,536.69 h -0.74 v -2.92 c -0.53,0.43 -1.09,0.54 -1.46,0.54 -0.98,0 -1.76,-1.03 -1.76,-2.31 0,-1.3 0.77,-2.32 1.72,-2.32 0.32,0 0.91,0.09 1.47,0.63 l -0.33,0.26 c -0.23,-0.2 -0.48,-0.28 -0.74,-0.28 -0.61,0 -1.34,0.47 -1.34,1.7 0,1.31 0.86,1.72 1.44,1.72 0.45,0 0.75,-0.23 0.97,-0.55 v -1.99 c 0,-0.14 -0.01,-0.32 -0.33,-0.6 l 0.33,-0.26 v -0.52 h 0.77 z"
   inkscape:connector-curvature="0"
   style="fill:#000000;stroke-width:0" />
<line
   id="line8692"
   y2="538.15997"
   x2="463.03"
   y1="526.21002"
   x1="463.03"
   style="stroke-width:0.398" />
<line
   id="line8694"
   y2="526.01001"
   x2="463.03"
   y1="526.01001"
   x1="325.13"
   style="stroke-width:0.398" />
<line
   id="line8696"
   y2="525.81"
   x2="325.13"
   y1="513.84998"
   x1="325.13"
   style="stroke-width:0.398" />
<path
   id="path8698"
   d="m 335.94,520.57 v 0.6 h -3.01 v 2.5 h 1.3 c 0.12,0 0.24,-0.01 0.36,-0.01 h 1.75 v 0.64 h -4.29 v -6.86 h 0.88 v 3.13 z"
   inkscape:connector-curvature="0"
   style="fill:#000000;stroke-width:0" />
<path
   id="path8700"
   d="m 340.62,519.61 0,0.04 0,0.03 0,0.04 0,0.04 0,0.04 0,0.04 0,0.05 0,0.05 -0.01,0.04 0,0.05 0,0.05 -0.01,0.06 -0.01,0.05 0,0.05 -0.01,0.06 -0.01,0.06 -0.01,0.05 -0.01,0.06 -0.01,0.06 -0.02,0.06 -0.01,0.06 -0.02,0.06 -0.02,0.06 -0.02,0.06 -0.02,0.06 -0.02,0.06 -0.03,0.05 -0.03,0.06 -0.02,0.06 -0.04,0.06 -0.03,0.06 -0.03,0.05 c -0.41,0.62 -1.02,0.73 -1.38,0.73 -1.1,0 -2,-1.05 -2,-2.34 0,-1.31 0.96,-2.35 2.15,-2.35 0.63,0 1.2,0.24 1.58,0.52 l -0.06,0.64 c -0.62,-0.51 -1.28,-0.55 -1.51,-0.55 -0.79,0 -1.43,0.7 -1.46,1.67 l 0.05,0.55 c 0.16,0.76 0.69,1.25 1.25,1.25 0.52,0 1.08,-0.33 1.21,-1.25 h -2.46 l -0.05,-0.55 z"
   inkscape:connector-curvature="0"
   style="fill:#000000;stroke-width:0" />
<path
   id="path8702"
   d="m 344.9,520.31 0,0.09 -0.01,0.1 -0.01,0.09 -0.01,0.08 -0.02,0.09 -0.02,0.08 -0.03,0.09 -0.03,0.07 -0.03,0.08 -0.03,0.08 -0.04,0.07 -0.05,0.07 -0.04,0.06 -0.05,0.07 -0.05,0.06 -0.06,0.05 -0.05,0.06 -0.06,0.05 -0.06,0.05 -0.07,0.05 -0.06,0.04 -0.07,0.04 -0.07,0.03 -0.08,0.03 -0.07,0.03 -0.08,0.03 -0.08,0.02 -0.08,0.02 -0.08,0.01 -0.08,0.01 -0.08,0.01 -0.09,0 c -0.65,0 -1.09,-0.16 -1.56,-0.43 l 0.06,-0.65 c 0.51,0.36 1.01,0.49 1.5,0.49 0.47,0 0.87,-0.4 0.87,-1.13 v -0.43 c -1.5,-0.02 -2.76,-0.43 -2.76,-1.31 0,-0.43 0.27,-1.23 1.13,-1.23 0.14,0 1.08,0.02 1.66,0.47 l -0.37,0.32 c -0.29,-0.17 -0.67,-0.18 -0.78,-0.18 -0.48,0 -0.92,0.22 -0.92,0.64 0,0.7 1.61,0.77 2.04,0.79 v -0.62 c 0,-0.19 0,-0.44 -0.34,-0.63 l 0.37,-0.32 v -0.36 h 0.74 z"
   inkscape:connector-curvature="0"
   style="fill:#000000;stroke-width:0" />
<path
   id="path8704"
   d="m 349.13,521.7 -0.05,0.02 -0.04,0.02 -0.1,0.04 -0.09,0.04 -0.09,0.03 -0.09,0.03 -0.08,0.03 -0.09,0.02 -0.09,0.02 -0.08,0.02 -0.09,0.01 -0.09,0.01 -0.09,0.01 -0.08,0.01 -0.09,0.01 -0.1,0 -0.09,0 c -0.25,0 -1.65,0 -1.65,-1.3 0,-0.49 0.29,-0.81 0.54,-1 0.3,-0.21 0.52,-0.25 1.07,-0.36 0.36,-0.07 0.94,-0.19 0.94,-0.72 0,-0.68 -0.79,-0.68 -0.94,-0.68 -0.81,0 -1.36,0.36 -1.54,0.48 L 346,517.77 c 0.32,-0.16 0.86,-0.44 1.67,-0.44 0.18,0 0.73,0 1.15,0.32 0.31,0.24 0.48,0.63 0.48,1.06 0,0.55 -0.37,0.88 -0.39,0.91 -0.38,0.35 -0.65,0.41 -1.15,0.5 -0.55,0.11 -1,0.21 -1,0.7 0,0.61 0.71,0.61 0.84,0.61 0.32,0 0.85,-0.04 1.41,-0.38 z"
   inkscape:connector-curvature="0"
   style="fill:#000000;stroke-width:0" />
<polygon
   id="polygon8706"
   points="351.16,523.31 351.16,524.19 350.27,524.19 350.27,523.31 "
   style="fill:#000000;stroke-width:0" />
<polygon
   id="polygon8708"
   points="351.09,517.44 351.09,521.85 350.35,521.85 350.35,517.44 "
   style="fill:#000000;stroke-width:0" />
<path
   id="path8710"
   d="m 353.48,524.33 h -0.75 v -6.89 h 0.78 v 0.46 c 0.24,-0.22 0.67,-0.57 1.33,-0.57 1,0 1.85,0.99 1.85,2.32 0,1.24 -0.67,2.31 -1.61,2.31 -0.38,0 -1,-0.1 -1.6,-0.59 l 0.03,-0.6 c 0.16,0.24 0.52,0.58 1.07,0.58 0.58,0 1.34,-0.42 1.34,-1.7 0,-1.29 -0.84,-1.71 -1.44,-1.71 -0.39,0 -0.72,0.17 -0.97,0.63 v 2.2 l -0.03,0.6 z"
   inkscape:connector-curvature="0"
   style="fill:#000000;stroke-width:0" />
<polygon
   id="polygon8712"
   points="358.62,517.44 358.62,524.33 357.87,524.33 357.87,517.44 "
   style="fill:#000000;stroke-width:0" />
<path
   id="path8714"
   d="m 363.57,519.61 0,0.04 0,0.03 0,0.04 -0.01,0.04 0,0.04 0,0.04 0,0.05 0,0.05 0,0.04 -0.01,0.05 0,0.05 -0.01,0.06 0,0.05 -0.01,0.05 -0.01,0.06 -0.01,0.06 -0.01,0.05 -0.01,0.06 -0.01,0.06 -0.02,0.06 -0.01,0.06 -0.02,0.06 -0.02,0.06 -0.02,0.06 -0.02,0.06 -0.02,0.06 -0.03,0.05 -0.02,0.06 -0.03,0.06 -0.03,0.06 -0.04,0.06 -0.03,0.05 c -0.41,0.62 -1.02,0.73 -1.38,0.73 -1.1,0 -1.99,-1.05 -1.99,-2.34 0,-1.31 0.95,-2.35 2.14,-2.35 0.63,0 1.2,0.24 1.59,0.52 l -0.06,0.64 c -0.63,-0.51 -1.29,-0.55 -1.52,-0.55 -0.79,0 -1.43,0.7 -1.46,1.67 l 0.05,0.55 c 0.16,0.76 0.69,1.25 1.25,1.25 0.52,0 1.08,-0.33 1.21,-1.25 h -2.46 l -0.05,-0.55 z"
   inkscape:connector-curvature="0"
   style="fill:#000000;stroke-width:0" />
<path
   id="path8716"
   d="m 370.7,520.31 0.12,0 0.11,0.01 0.12,0.01 0.11,0.02 0.11,0.02 0.1,0.03 0.11,0.03 0.1,0.04 0.1,0.04 0.1,0.04 0.1,0.05 0.09,0.05 0.09,0.06 0.09,0.06 0.08,0.06 0.08,0.07 0.08,0.07 0.07,0.07 0.07,0.08 0.06,0.08 0.06,0.08 0.06,0.09 0.05,0.08 0.05,0.09 0.04,0.09 0.04,0.1 0.03,0.09 0.02,0.1 0.02,0.1 0.02,0.1 0.01,0.1 0,0.11 c 0,1.06 -0.98,2 -2.36,2 h -2.47 v -6.89 h 0.88 v 2.87 l -0.03,0.58 v 2.89 h 1.41 c 1.09,0 1.77,-0.61 1.77,-1.45 0,-0.79 -0.63,-1.44 -1.77,-1.44 h -1.41 l 0.03,-0.58 z"
   inkscape:connector-curvature="0"
   style="fill:#000000;stroke-width:0" />
<path
   id="path8718"
   d="m 377.95,519.62 0,0.13 -0.01,0.12 -0.01,0.12 -0.02,0.12 -0.03,0.12 -0.03,0.11 -0.03,0.11 -0.04,0.11 -0.04,0.11 -0.05,0.1 -0.06,0.1 -0.05,0.1 -0.06,0.09 -0.07,0.09 -0.07,0.09 -0.07,0.08 -0.08,0.08 -0.08,0.08 -0.08,0.07 -0.09,0.06 -0.08,0.06 -0.09,0.06 -0.1,0.05 -0.1,0.05 -0.09,0.04 -0.1,0.04 -0.11,0.03 -0.1,0.03 -0.11,0.02 -0.11,0.02 -0.1,0.01 -0.12,0 0,-0.61 c 0.69,0 1.41,-0.51 1.41,-1.69 0,-1.17 -0.68,-1.75 -1.41,-1.75 h 0 c -0.69,0 -1.41,0.55 -1.41,1.75 0,1.21 0.76,1.69 1.41,1.69 l 0,0.61 c -1.22,0 -2.18,-1.09 -2.18,-2.4 0,-1.31 1.01,-2.29 2.18,-2.29 1.19,0 2.18,1 2.18,2.29 z"
   inkscape:connector-curvature="0"
   style="fill:#000000;stroke-width:0" />
<polygon
   id="polygon8720"
   points="379.89,523.31 379.89,524.19 379.01,524.19 379.01,523.31 "
   style="fill:#000000;stroke-width:0" />
<polygon
   id="polygon8722"
   points="379.82,517.44 379.82,521.85 379.08,521.85 379.08,517.44 "
   style="fill:#000000;stroke-width:0" />
<path
   id="path8724"
   d="m 384.98,520.4 0,0.06 0,0.06 -0.01,0.07 0,0.06 -0.01,0.07 0,0.07 -0.01,0.06 -0.02,0.07 -0.01,0.07 -0.01,0.06 -0.02,0.07 -0.02,0.06 -0.03,0.06 -0.03,0.07 -0.03,0.06 -0.03,0.05 -0.04,0.06 -0.04,0.06 -0.04,0.05 -0.05,0.05 -0.05,0.05 -0.06,0.04 -0.06,0.04 -0.07,0.04 -0.04,0.01 -0.03,0.02 -0.04,0.02 -0.04,0.01 -0.04,0.01 -0.04,0.02 -0.04,0.01 -0.05,0.01 -0.04,0.01 -0.05,0.01 -0.05,0 -0.05,0.01 -0.05,0 -0.06,0.01 -0.05,0 -0.06,0 c -0.89,0 -1.38,-0.68 -1.44,-0.76 v 0.71 h -0.72 v -4.47 h 0.78 v 2.43 c 0,0.66 0.25,1.48 1.01,1.48 0.95,0 0.96,-0.7 0.96,-1.02 v -2.89 h 0.78 z"
   inkscape:connector-curvature="0"
   style="fill:#000000;stroke-width:0" />
<path
   id="path8726"
   d="m 387.54,521.27 h 1.4 v 0.58 h -1.4 v 1.26 h -0.69 v -1.26 h -0.86 v -0.58 h 0.83 v -2.65 c 0,-0.59 0.14,-1.29 0.83,-1.29 0.69,0 1.2,0.25 1.45,0.38 l -0.16,0.58 c -0.26,-0.2 -0.58,-0.32 -0.89,-0.32 -0.37,0 -0.51,0.29 -0.51,0.82 z"
   inkscape:connector-curvature="0"
   style="fill:#000000;stroke-width:0" />
<path
   id="path8728"
   d="m 392.09,524.89 -0.03,-0.03 -0.03,-0.03 -0.04,-0.03 -0.03,-0.04 -0.04,-0.03 -0.04,-0.04 -0.04,-0.04 -0.05,-0.05 -0.04,-0.04 -0.04,-0.05 -0.05,-0.05 -0.05,-0.05 -0.04,-0.06 -0.05,-0.05 -0.05,-0.06 -0.05,-0.07 -0.05,-0.06 -0.05,-0.07 -0.05,-0.07 -0.05,-0.08 -0.05,-0.07 -0.05,-0.08 -0.05,-0.08 -0.05,-0.09 -0.05,-0.09 -0.05,-0.09 -0.04,-0.1 -0.05,-0.1 -0.05,-0.1 -0.04,-0.1 -0.05,-0.11 -0.04,-0.12 c -0.4,-1.06 -0.47,-2.11 -0.47,-2.84 0,-3.21 1.43,-4.53 1.91,-4.96 h 0.61 c -0.48,0.47 -1.74,1.75 -1.74,4.96 0,0.56 0.03,1.72 0.43,2.89 0.41,1.16 0.98,1.75 1.31,2.08 z"
   inkscape:connector-curvature="0"
   style="fill:#000000;stroke-width:0" />
<path
   id="path8730"
   d="m 396.68,521.7 -0.05,0.02 -0.04,0.02 -0.1,0.04 -0.09,0.04 -0.09,0.03 -0.09,0.03 -0.09,0.03 -0.08,0.02 -0.09,0.02 -0.09,0.02 -0.08,0.01 -0.09,0.01 -0.09,0.01 -0.09,0.01 -0.09,0.01 -0.09,0 -0.09,0 c -0.25,0 -1.65,0 -1.65,-1.3 0,-0.49 0.29,-0.81 0.53,-1 0.31,-0.21 0.53,-0.25 1.08,-0.36 0.36,-0.07 0.93,-0.19 0.93,-0.72 0,-0.68 -0.78,-0.68 -0.93,-0.68 -0.81,0 -1.36,0.36 -1.54,0.48 l -0.12,-0.67 c 0.31,-0.16 0.86,-0.44 1.67,-0.44 0.18,0 0.73,0 1.15,0.32 0.31,0.24 0.48,0.63 0.48,1.06 0,0.55 -0.37,0.88 -0.39,0.91 -0.39,0.35 -0.66,0.41 -1.15,0.5 -0.55,0.11 -1.01,0.21 -1.01,0.7 0,0.61 0.72,0.61 0.85,0.61 0.32,0 0.84,-0.04 1.41,-0.38 z"
   inkscape:connector-curvature="0"
   style="fill:#000000;stroke-width:0" />
<path
   id="path8732"
   d="m 398.25,514.96 0.03,0.02 0.03,0.04 0.04,0.03 0.04,0.03 0.03,0.04 0.04,0.04 0.04,0.04 0.05,0.04 0.04,0.05 0.04,0.04 0.05,0.05 0.05,0.06 0.04,0.05 0.05,0.06 0.05,0.06 0.05,0.06 0.05,0.07 0.05,0.07 0.05,0.07 0.05,0.07 0.05,0.08 0.05,0.08 0.05,0.08 0.05,0.09 0.05,0.08 0.05,0.1 0.05,0.09 0.04,0.1 0.05,0.1 0.05,0.11 0.04,0.11 0.04,0.11 c 0.4,1.06 0.47,2.12 0.47,2.84 0,3.21 -1.43,4.53 -1.91,4.97 h -0.61 c 0.48,-0.48 1.75,-1.76 1.75,-4.97 0,-0.55 -0.03,-1.72 -0.44,-2.89 -0.41,-1.15 -0.98,-1.75 -1.31,-2.07 z"
   inkscape:connector-curvature="0"
   style="fill:#000000;stroke-width:0" />
<line
   id="line8734"
   y2="525.81"
   x2="406.94"
   y1="513.84998"
   x1="406.94"
   style="stroke-width:0.398" />
<path
   id="path8736"
   d="m 416.67,524.33 h -0.88 l -2.59,-6.89 h 0.73 l 0.77,2.03 0.21,0.55 0.64,1.8 c 0.21,0.59 0.52,1.43 0.59,1.8 h 0.01 c 0.02,-0.14 0.09,-0.39 0.32,-1.04 l 0.9,-2.56 h -2.46 l -0.21,-0.55 h 2.89 l 0.76,-2.03 h 0.91 z"
   inkscape:connector-curvature="0"
   style="fill:#000000;stroke-width:0" />
<polygon
   id="polygon8738"
   points="420.52,517.44 420.77,517.44 420.52,516.2 420.93,516.2 421.35,517.45 421.35,518.26 420.52,518.26 "
   style="fill:#000000;stroke-width:0" />
<path
   id="path8740"
   d="m 423.29,524.33 v -6.89 h 2.63 l -0.28,0.55 h -1.52 v 2.73 0.6 2.46 h 1.25 c 1.1,0 1.98,-0.53 1.98,-1.19 0,-0.59 -0.71,-1.27 -2.08,-1.27 h -1.15 v -0.6 h 1.44 c 1.05,0 2.03,-0.61 2.03,-1.4 0,-0.75 -0.88,-1.33 -1.95,-1.33 l 0.28,-0.55 c 1.43,0 2.47,0.89 2.47,1.87 0,0.86 -0.86,1.57 -1.92,1.73 0.91,0.23 1.66,0.81 1.66,1.56 0,0.92 -1.07,1.73 -2.48,1.73 z"
   inkscape:connector-curvature="0"
   style="fill:#000000;stroke-width:0" />
<path
   id="path8742"
   d="m 436.26,520.31 -0.01,0.09 0,0.1 -0.01,0.09 -0.02,0.08 -0.02,0.09 -0.02,0.08 -0.02,0.09 -0.03,0.07 -0.04,0.08 -0.03,0.08 -0.04,0.07 -0.04,0.07 -0.05,0.06 -0.05,0.07 -0.05,0.06 -0.05,0.05 -0.06,0.06 -0.06,0.05 -0.06,0.05 -0.06,0.05 -0.07,0.04 -0.07,0.04 -0.07,0.03 -0.07,0.03 -0.08,0.03 -0.08,0.03 -0.07,0.02 -0.08,0.02 -0.08,0.01 -0.09,0.01 -0.08,0.01 -0.09,0 c -0.64,0 -1.09,-0.16 -1.56,-0.43 l 0.06,-0.65 c 0.52,0.36 1.02,0.49 1.5,0.49 0.47,0 0.87,-0.4 0.87,-1.13 v -0.43 c -1.49,-0.02 -2.76,-0.43 -2.76,-1.31 0,-0.43 0.27,-1.23 1.14,-1.23 0.14,0 1.07,0.02 1.65,0.47 l -0.37,0.32 c -0.29,-0.17 -0.67,-0.18 -0.78,-0.18 -0.47,0 -0.92,0.22 -0.92,0.64 0,0.7 1.61,0.77 2.04,0.79 v -0.62 c 0,-0.19 0,-0.44 -0.34,-0.63 l 0.37,-0.32 v -0.36 h 0.75 z"
   inkscape:connector-curvature="0"
   style="fill:#000000;stroke-width:0" />
<path
   id="path8744"
   d="m 441.4,520.4 0,0.06 0,0.06 0,0.07 -0.01,0.06 0,0.07 -0.01,0.07 -0.01,0.06 -0.01,0.07 -0.01,0.07 -0.02,0.06 -0.02,0.07 -0.02,0.06 -0.02,0.06 -0.03,0.07 -0.03,0.06 -0.04,0.05 -0.03,0.06 -0.04,0.06 -0.05,0.05 -0.05,0.05 -0.05,0.05 -0.06,0.04 -0.06,0.04 -0.07,0.04 -0.03,0.01 -0.04,0.02 -0.04,0.02 -0.04,0.01 -0.04,0.01 -0.04,0.02 -0.04,0.01 -0.04,0.01 -0.05,0.01 -0.05,0.01 -0.05,0 -0.05,0.01 -0.05,0 -0.05,0.01 -0.06,0 -0.05,0 c -0.9,0 -1.39,-0.68 -1.44,-0.76 v 0.71 h -0.72 v -4.47 h 0.77 v 2.43 c 0,0.66 0.25,1.48 1.01,1.48 0.95,0 0.96,-0.7 0.96,-1.02 v -2.89 h 0.78 z"
   inkscape:connector-curvature="0"
   style="fill:#000000;stroke-width:0" />
<path
   id="path8746"
   d="m 446.54,524.33 h -0.75 v -2.92 c -0.52,0.44 -1.08,0.55 -1.45,0.55 -0.98,0 -1.76,-1.03 -1.76,-2.32 0,-1.3 0.77,-2.31 1.71,-2.31 0.33,0 0.92,0.09 1.47,0.63 l -0.33,0.25 c -0.22,-0.19 -0.47,-0.27 -0.73,-0.27 -0.62,0 -1.34,0.46 -1.34,1.69 0,1.32 0.85,1.72 1.44,1.72 0.44,0 0.74,-0.23 0.96,-0.54 v -1.99 c 0,-0.14 -0.01,-0.32 -0.33,-0.61 l 0.33,-0.25 v -0.52 h 0.78 z"
   inkscape:connector-curvature="0"
   style="fill:#000000;stroke-width:0" />
<path
   id="path8748"
   d="m 456.48,518.57 -0.06,-0.03 -0.05,-0.04 -0.05,-0.03 -0.05,-0.03 -0.1,-0.07 -0.1,-0.05 -0.1,-0.06 -0.1,-0.05 -0.1,-0.04 -0.05,-0.02 -0.05,-0.02 -0.05,-0.02 -0.06,-0.02 -0.05,-0.01 -0.06,-0.02 -0.06,-0.01 -0.06,-0.01 -0.07,-0.02 -0.06,-0.01 -0.07,0 -0.07,-0.01 -0.08,-0.01 -0.07,0 -0.08,-0.01 -0.09,0 -0.08,0 -0.09,0 c -1.44,0 -2.33,1.49 -2.33,2.92 0,1.35 0.82,2.91 2.35,2.91 0.7,0 1.15,-0.17 1.7,-0.52 l 0.14,0.81 c -0.43,0.21 -1.2,0.34 -1.83,0.34 -1.84,0 -3.26,-1.55 -3.26,-3.63 0,-1.57 1.19,-3.48 3.26,-3.48 0.91,0 1.29,0.16 1.94,0.56 z"
   inkscape:connector-curvature="0"
   style="fill:#000000;stroke-width:0" />
<line
   id="line8750"
   y2="525.81"
   x2="463.03"
   y1="513.84998"
   x1="463.03"
   style="stroke-width:0.398" />
<line
   id="line8752"
   y2="513.65002"
   x2="463.03"
   y1="513.65002"
   x1="325.13"
   style="stroke-width:0.398" />
</g>  </g>
</svg>
