<?xml version="1.0" encoding="UTF-8"?>
<svg width="869" height="473" xmlns="http://www.w3.org/2000/svg" xmlns:svg="http://www.w3.org/2000/svg" xmlns:xlink="http://www.w3.org/1999/xlink" class="main-svg">
 <defs>
  <g class="clips" id="svg_68">
   <clipPath class="axesclip" id="clipd4dc76x">
    <rect x="80" y="0" width="632" height="473" id="svg_69"/>
   </clipPath>
   <clipPath class="axesclip" id="clipd4dc76y">
    <rect x="0" y="100" width="869" height="293" id="svg_70"/>
   </clipPath>
   <clipPath class="axesclip" id="clipd4dc76xy">
    <rect x="80" y="100" width="632" height="293" id="svg_71"/>
   </clipPath>
  </g>
 </defs>
 <g>
  <title>Layer 1</title>
  <rect x="0" y="0" width="869" height="473" fill="rgb(255, 255, 255)" id="svg_72"/>
  <g class="draglayer" id="svg_73">
   <g id="svg_74"/>
  </g>
  <g class="subplot xy" id="svg_75">
   <rect x="80" y="100" width="632" height="293" fill="rgb(255, 255, 255)" stroke-width="0px" id="svg_76"/>
   <g id="svg_77">
    <path class="xgrid crisp" d="m211.470001,100l0,293" stroke-width="1px" stroke="rgb(238, 238, 238)" id="svg_78"/>
    <path class="xgrid crisp" d="m303.72998,100l0,293" stroke-width="1px" stroke="rgb(238, 238, 238)" id="svg_79"/>
    <path class="xgrid crisp" d="m396,100l0,293" stroke-width="1px" stroke="rgb(238, 238, 238)" id="svg_80"/>
    <path class="xgrid crisp" d="m488.269989,100l0,293" stroke-width="1px" stroke="rgb(238, 238, 238)" id="svg_81"/>
    <path class="xgrid crisp" d="m580.530029,100l0,293" stroke-width="1px" stroke="rgb(238, 238, 238)" id="svg_82"/>
    <path class="xgrid crisp" d="m672.799988,100l0,293" stroke-width="1px" stroke="rgb(238, 238, 238)" id="svg_83"/>
    <path class="ygrid crisp" d="m80,374.600006l632,0" stroke-width="1px" stroke="rgb(238, 238, 238)" id="svg_84"/>
    <path class="ygrid crisp" d="m80,301.399994l632,0" stroke-width="1px" stroke="rgb(238, 238, 238)" id="svg_85"/>
    <path class="ygrid crisp" d="m80,264.799988l632,0" stroke-width="1px" stroke="rgb(238, 238, 238)" id="svg_86"/>
    <path class="ygrid crisp" d="m80,228.199997l632,0" stroke-width="1px" stroke="rgb(238, 238, 238)" id="svg_87"/>
    <path class="ygrid crisp" d="m80,191.600006l632,0" stroke-width="1px" stroke="rgb(238, 238, 238)" id="svg_88"/>
    <path class="ygrid crisp" d="m80,155l632,0" stroke-width="1px" stroke="rgb(238, 238, 238)" id="svg_89"/>
    <path class="ygrid crisp" d="m80,118.400002l632,0" stroke-width="1px" stroke="rgb(238, 238, 238)" id="svg_90"/>
   </g>
   <g id="svg_91"/>
   <g id="svg_92">
    <path class="xzl zl crisp" d="m119.199997,100l0,293" stroke-width="1px" stroke="rgb(68, 68, 68)" id="svg_93"/>
    <path class="yzl zl crisp" d="m80,338l632,0" stroke-width="1px" stroke="rgb(68, 68, 68)" id="svg_94"/>
   </g>
   <g id="svg_95"/>
   <g id="svg_1">
    <svg preserveAspectRatio="none" x="80" y="100" width="632" height="293" viewBox="0 0 632 293" id="svg_24">
     <g class="maplayer" id="svg_100"/>
     <g class="barlayer" id="svg_99"/>
     <g class="errorlayer" id="svg_64">
      <g class="errorbars" id="svg_96"/>
      <g class="errorbars" id="svg_67"/>
      <g class="errorbars" id="svg_66"/>
      <g class="errorbars" id="svg_65"/>
     </g>
     <g class="boxlayer" id="svg_63"/>
     <g class="scatterlayer" id="svg_25">
      <g class="trace scatter" stroke-miterlimit="2" id="svg_53">
       <path class="js-line" d="m39.200001,128.199997l553.599987,109.800003" stroke-width="2px" stroke="rgb(31, 119, 180)" fill="none" id="svg_62"/>
       <g class="points" id="svg_54">
        <path class="point" d="m42.200001,128.199997a3,3 0 1 1 -3,-3a3,3 0 0 1 3,3z" fill="rgb(31, 119, 180)" stroke-width="0px" id="svg_61"/>
        <path class="point" d="m134.470001,146.5a3,3 0 1 1 -3,-3a3,3 0 0 1 3,3z" fill="rgb(31, 119, 180)" stroke-width="0px" id="svg_60"/>
        <path class="point" d="m226.729996,164.800003a3,3 0 1 1 -3,-3a3,3 0 0 1 3,3z" fill="rgb(31, 119, 180)" stroke-width="0px" id="svg_59"/>
        <path class="point" d="m319,183.100006a3,3 0 1 1 -3,-3a3,3 0 0 1 3,3z" fill="rgb(31, 119, 180)" stroke-width="0px" id="svg_58"/>
        <path class="point" d="m411.269989,201.399994a3,3 0 1 1 -3,-3a3,3 0 0 1 3,3z" fill="rgb(31, 119, 180)" stroke-width="0px" id="svg_57"/>
        <path class="point" d="m503.529999,219.699997a3,3 0 1 1 -3,-3a3,3 0 0 1 3,3z" fill="rgb(31, 119, 180)" stroke-width="0px" id="svg_56"/>
        <path class="point" d="m595.799988,238a3,3 0 1 1 -3,-3a3,3 0 0 1 3,3z" fill="rgb(31, 119, 180)" stroke-width="0px" id="svg_55"/>
       </g>
      </g>
      <g class="trace scatter" stroke-miterlimit="2" id="svg_43">
       <path class="js-line" d="m39.200001,55l553.599987,219.600006" stroke-width="2px" stroke="rgb(255, 127, 14)" fill="none" id="svg_52"/>
       <g class="points" id="svg_44">
        <path class="point" d="m42.200001,55a3,3 0 1 1 -3,-3a3,3 0 0 1 3,3z" fill="rgb(255, 127, 14)" stroke-width="0px" id="svg_51"/>
        <path class="point" d="m134.470001,91.599998a3,3 0 1 1 -3,-3a3,3 0 0 1 3,3z" fill="rgb(255, 127, 14)" stroke-width="0px" id="svg_50"/>
        <path class="point" d="m226.729996,128.199997a3,3 0 1 1 -3,-3a3,3 0 0 1 3,3z" fill="rgb(255, 127, 14)" stroke-width="0px" id="svg_49"/>
        <path class="point" d="m319,164.800003a3,3 0 1 1 -3,-3a3,3 0 0 1 3,3z" fill="rgb(255, 127, 14)" stroke-width="0px" id="svg_48"/>
        <path class="point" d="m411.269989,201.399994a3,3 0 1 1 -3,-3a3,3 0 0 1 3,3z" fill="rgb(255, 127, 14)" stroke-width="0px" id="svg_47"/>
        <path class="point" d="m503.529999,238a3,3 0 1 1 -3,-3a3,3 0 0 1 3,3z" fill="rgb(255, 127, 14)" stroke-width="0px" id="svg_46"/>
        <path class="point" d="m595.799988,274.600006a3,3 0 1 1 -3,-3a3,3 0 0 1 3,3z" fill="rgb(255, 127, 14)" stroke-width="0px" id="svg_45"/>
       </g>
      </g>
      <g class="trace scatter" stroke-miterlimit="2" id="svg_36">
       <path class="js-fill" d="m316,183.100006l92.269989,18.299988l92.26001,36.600006l0,0l-184.529999,0l0,-54.899994z" fill-opacity="0.5" fill="rgb(0, 0, 0)" stroke-width="0px" id="svg_42"/>
       <path class="js-line" d="m316,183.100006l92.269989,18.299988l92.26001,36.600006" stroke-width="2px" stroke-opacity="0" stroke="rgb(0, 0, 0)" fill="none" id="svg_41"/>
       <g class="points" id="svg_37">
        <path class="point" d="m319,183.100006a3,3 0 1 1 -3,-3a3,3 0 0 1 3,3z" fill-opacity="0" fill="rgb(0, 0, 0)" stroke-width="0px" id="svg_40"/>
        <path class="point" d="m411.269989,201.399994a3,3 0 1 1 -3,-3a3,3 0 0 1 3,3z" fill-opacity="0" fill="rgb(0, 0, 0)" stroke-width="0px" id="svg_39"/>
        <path class="point" d="m503.529999,238a3,3 0 1 1 -3,-3a3,3 0 0 1 3,3z" fill-opacity="0" fill="rgb(0, 0, 0)" stroke-width="0px" id="svg_38"/>
       </g>
      </g>
      <g class="trace scatter" stroke-miterlimit="2" id="svg_26">
       <path class="js-line" d="m316,238l0,-219.600006" stroke-width="2px" stroke="rgb(214, 39, 40)" fill="none" id="svg_35"/>
       <g class="points" id="svg_27">
        <path class="point" d="m319,238a3,3 0 1 1 -3,-3a3,3 0 0 1 3,3z" fill="rgb(214, 39, 40)" stroke-width="0px" id="svg_34"/>
        <path class="point" d="m319,201.399994a3,3 0 1 1 -3,-3a3,3 0 0 1 3,3z" fill="rgb(214, 39, 40)" stroke-width="0px" id="svg_33"/>
        <path class="point" d="m319,164.800003a3,3 0 1 1 -3,-3a3,3 0 0 1 3,3z" fill="rgb(214, 39, 40)" stroke-width="0px" id="svg_32"/>
        <path class="point" d="m319,128.199997a3,3 0 1 1 -3,-3a3,3 0 0 1 3,3z" fill="rgb(214, 39, 40)" stroke-width="0px" id="svg_31"/>
        <path class="point" d="m319,91.599998a3,3 0 1 1 -3,-3a3,3 0 0 1 3,3z" fill="rgb(214, 39, 40)" stroke-width="0px" id="svg_30"/>
        <path class="point" d="m319,55a3,3 0 1 1 -3,-3a3,3 0 0 1 3,3z" fill="rgb(214, 39, 40)" stroke-width="0px" id="svg_29"/>
        <path class="point" d="m319,18.4a3,3 0 1 1 -3,-3a3,3 0 0 1 3,3z" fill="rgb(214, 39, 40)" stroke-width="0px" id="svg_28"/>
       </g>
      </g>
     </g>
    </svg>
   </g>
   <g id="svg_143"/>
   <path class="crisp" d="m79,393.5l634,0" stroke-opacity="0" stroke="rgb(0, 0, 0)" stroke-width="1px" fill="none" id="svg_144"/>
   <path class="crisp" d="m79.5,99l0,294" stroke-width="1px" stroke-opacity="0" stroke="rgb(0, 0, 0)" fill="none" id="svg_145"/>
   <g id="svg_146"/>
   <g id="svg_147">
    <g class="xtick" id="svg_148">
     <text text-anchor="middle" x="119.200001" y="407" fill="rgb(68, 68, 68)" font-size="12px" font-family="'Open sans', verdana, arial, sans-serif" id="svg_149">0</text>
    </g>
    <g class="xtick" id="svg_150">
     <text text-anchor="middle" x="211.470001" y="407" fill="rgb(68, 68, 68)" font-size="12px" font-family="'Open sans', verdana, arial, sans-serif" id="svg_151">1</text>
    </g>
    <g class="xtick" id="svg_152">
     <text text-anchor="middle" x="303.729996" y="407" fill="rgb(68, 68, 68)" font-size="12px" font-family="'Open sans', verdana, arial, sans-serif" id="svg_153">2</text>
    </g>
    <g class="xtick" id="svg_154">
     <text text-anchor="middle" x="396" y="407" fill="rgb(68, 68, 68)" font-size="12px" font-family="'Open sans', verdana, arial, sans-serif" id="svg_155">3</text>
    </g>
    <g class="xtick" id="svg_156">
     <text text-anchor="middle" x="488.269989" y="407" fill="rgb(68, 68, 68)" font-size="12px" font-family="'Open sans', verdana, arial, sans-serif" id="svg_157">4</text>
    </g>
    <g class="xtick" id="svg_158">
     <text text-anchor="middle" x="580.529999" y="407" fill="rgb(68, 68, 68)" font-size="12px" font-family="'Open sans', verdana, arial, sans-serif" id="svg_159">5</text>
    </g>
    <g class="xtick" id="svg_160">
     <text text-anchor="middle" x="672.799988" y="407" fill="rgb(68, 68, 68)" font-size="12px" font-family="'Open sans', verdana, arial, sans-serif" id="svg_161">6</text>
    </g>
   </g>
   <g id="svg_162">
    <g class="ytick" id="svg_163">
     <text text-anchor="end" x="78" y="380.600006" fill="rgb(68, 68, 68)" font-size="12px" font-family="'Open sans', verdana, arial, sans-serif" id="svg_164">−1</text>
    </g>
    <g class="ytick" id="svg_165">
     <text text-anchor="end" x="78" y="344" fill="rgb(68, 68, 68)" font-size="12px" font-family="'Open sans', verdana, arial, sans-serif" id="svg_166">0</text>
    </g>
    <g class="ytick" id="svg_167">
     <text text-anchor="end" x="78" y="307.399994" fill="rgb(68, 68, 68)" font-size="12px" font-family="'Open sans', verdana, arial, sans-serif" id="svg_168">1</text>
    </g>
    <g class="ytick" id="svg_169">
     <text text-anchor="end" x="78" y="270.800003" fill="rgb(68, 68, 68)" font-size="12px" font-family="'Open sans', verdana, arial, sans-serif" id="svg_170">2</text>
    </g>
    <g class="ytick" id="svg_171">
     <text text-anchor="end" x="78" y="234.199997" fill="rgb(68, 68, 68)" font-size="12px" font-family="'Open sans', verdana, arial, sans-serif" id="svg_172">3</text>
    </g>
    <g class="ytick" id="svg_173">
     <text text-anchor="end" x="78" y="197.599998" fill="rgb(68, 68, 68)" font-size="12px" font-family="'Open sans', verdana, arial, sans-serif" id="svg_174">4</text>
    </g>
    <g class="ytick" id="svg_175">
     <text text-anchor="end" x="78" y="161" fill="rgb(68, 68, 68)" font-size="12px" font-family="'Open sans', verdana, arial, sans-serif" id="svg_176">5</text>
    </g>
    <g class="ytick" id="svg_177">
     <text text-anchor="end" x="78" y="124.4" fill="rgb(68, 68, 68)" font-size="12px" font-family="'Open sans', verdana, arial, sans-serif" id="svg_178">6</text>
    </g>
   </g>
   <g id="svg_179"/>
  </g>
  <g class="shapelayer" id="svg_180"/>
  <g class="glimages" id="svg_181"/>
  <text class="js-plot-link-container" y="464" text-anchor="end" x="862" fill="rgb(68, 68, 68)" font-size="12px" font-family="'Open Sans', Arial, sans-serif" id="svg_182"/>
  <g class="infolayer" id="svg_183">
   <g class="g-gtitle" id="svg_184"/>
   <g class="g-xtitle" id="svg_185">
    <g class="xtitle-math-group" id="svg_12">
     <svg xmlns:xlink="http://www.w3.org/1999/xlink" viewBox="0 -707.941989467833 857 732.8839789356658" class="xtitle-math" height="1.71ex" preserveAspectRatio="xMinYMin meet" x="389.810006" y="436.381639" width="2.021ex" id="svg_101">
      <defs>
       <path id="svg_104" stroke-width="10" d="m42,0l-2,0q-14,0 -14,11q0,4 3,16q4,14 7,16t19,3q86,3 135,52q10,10 116,126t105,118q-109,278 -114,283q-9,11 -63,12l-28,0q-6,6 -6,8t2,19q4,13 10,19l14,0q34,-2 121,-2q33,0 61,0t45,1t20,0q17,0 17,-11q0,-1 -2,-13q-4,-15 -7,-18t-16,-3q-31,-3 -54,-17l77,-194l53,59q105,113 105,125q0,18 -24,25q-5,0 -13,2q-15,0 -15,11q0,2 2,16q4,13 10,19l12,0q1,0 25,0t54,-2t41,-1q90,0 99,3l8,0q7,-7 7,-11q-2,-25 -12,-35l-16,0q-34,-1 -61,-9t-41,-17t-24,-18l-11,-9q0,1 -95,-104l-87,-96q0,-1 31,-80t65,-162t37,-86q10,-9 61,-10q35,0 35,-9q0,-2 -2,-14q-4,-16 -7,-19t-14,-3q-3,0 -33,0t-89,1q-61,0 -93,0t-35,-1q-17,0 -17,9q0,1 2,15q2,10 4,14t5,5t9,2t16,1t26,7q17,8 17,10q-1,0 -47,117l-47,118q-188,-204 -193,-215q-4,-8 -4,-12q0,-19 29,-25q1,0 6,0t6,-1q3,0 4,0t3,-1t3,-3t1,-7q0,-9 -2,-16q-3,-13 -6,-15t-15,-3q-3,0 -18,0t-42,1t-59,0q-78,0 -100,-2z"/>
       <path id="svg_113" stroke-width="10" d="m66,637q-12,0 -17,0t-10,1t-7,3t-2,6t3,17t9,18q2,1 14,1q48,-3 109,-3q123,0 141,3l10,0q6,-6 6,-9t-2,-18q-4,-13 -10,-19l-12,0q-56,0 -56,-13q0,-5 50,-147t51,-144l3,3q4,4 12,13t21,24t32,37t43,51q92,107 107,126t16,31q0,16 -32,19q-17,0 -17,10q0,2 2,14q3,15 5,18t14,4q2,0 29,-1t79,-2q27,0 56,1t33,1q17,0 17,-9q0,-4 -3,-16t-5,-14q-2,-6 -21,-6q-72,-5 -117,-50q-9,-9 -140,-163l-129,-151l-26,-104q-27,-107 -27,-112q0,-11 68,-11q16,0 21,-1t6,-10q0,-2 -2,-12q-4,-17 -6,-19t-16,-3q-5,0 -42,0t-92,1q-62,0 -94,0t-36,-1q-18,0 -18,8q0,5 3,15q1,3 2,6t1,5t1,4t2,3t3,2t5,1t6,0t9,1t13,0q39,1 51,4t18,13q3,5 29,108l25,103l-123,349q-1,1 -2,2t-2,2t-3,2t-4,2t-5,2t-8,1t-9,1t-13,1t-17,1z"/>
       <path id="svg_112" stroke-width="10" d="m52,289q7,42 54,97t116,56q35,0 64,-18t43,-45q42,63 101,63q37,0 64,-22t28,-59q0,-29 -14,-47t-27,-22t-23,-4q-19,0 -31,11t-12,29q0,46 50,63q-11,13 -40,13q-13,0 -19,-2q-38,-16 -56,-66q-60,-221 -60,-258q0,-28 16,-40t35,-12q37,0 73,33t49,81q3,10 6,11t16,2l4,0q15,0 15,-8q0,-1 -2,-11q-16,-57 -62,-101t-107,-44q-70,0 -106,63q-41,-62 -94,-62l-6,0q-49,0 -70,26t-22,55q0,32 19,52t45,20q43,0 43,-42q0,-20 -12,-35t-23,-20t-13,-5l-3,-1q0,-1 6,-4t16,-7t19,-3q36,0 62,45q9,16 23,68t28,108t16,66q5,27 5,39q0,28 -15,40t-34,12q-40,0 -75,-32t-49,-82q-2,-9 -5,-10t-16,-2l-14,0q-6,6 -6,11z"/>
       <path id="svg_111" stroke-width="10" d="m56,237t0,13t14,20l299,0l0,150l1,150q10,13 19,13q13,0 20,-15l0,-298l298,0q15,-8 15,-20t-15,-20l-298,0l0,-298q-8,-14 -18,-14l-2,0l-2,0q-12,0 -18,14l0,298l-299,0q-14,7 -14,20l0,-13z"/>
       <path id="svg_110" stroke-width="10" d="m109,429q-27,0 -43,18t-16,44q0,71 53,123t132,52q91,0 152,-56t62,-145q0,-43 -20,-82t-48,-68t-80,-74q-36,-31 -100,-92l-59,-56l76,-1q157,0 167,5q7,2 24,89l0,3l40,0l0,-3q-1,-3 -13,-91t-15,-92l0,-3l-371,0l0,19l0,12q0,7 6,15t30,35q29,32 50,56q9,10 34,37t34,37t29,33t28,34t23,30t21,32t15,29t13,32t7,30t3,33q0,63 -34,109t-97,46q-33,0 -58,-17t-35,-33t-10,-19q0,-1 5,-1q18,0 37,-14t19,-46q0,-25 -16,-42t-45,-18z"/>
       <path id="svg_109" stroke-width="10" d="m21,287q0,14 15,48t48,71t74,36q41,0 66,-23t26,-64q-2,-19 -3,-21q0,-3 -16,-46t-33,-97t-16,-86q0,-43 14,-60t42,-18q23,0 43,11t31,23t27,33q0,1 5,20t14,59t19,74q38,150 42,157q13,27 43,27q13,0 21,-7t11,-12t2,-9q0,-13 -49,-210t-56,-216q-28,-83 -97,-132t-138,-50q-45,0 -79,22t-34,66q0,22 7,37t19,22t20,10t17,3q44,0 44,-42q0,-20 -12,-35t-23,-20t-13,-5l-3,-1q2,-5 19,-12t34,-7l8,0q17,0 26,2q33,9 61,38t43,62t23,56t8,30l-6,-4q-6,-4 -19,-11t-26,-12q-20,-5 -39,-5q-46,0 -81,22t-46,71q-1,7 -1,31q0,57 35,149t35,117q0,1 0,2q0,9 0,12t-4,7t-11,4l-4,0q-23,0 -42,-19t-30,-41t-17,-42t-8,-22q-2,-2 -16,-2l-14,0q-6,6 -6,9z"/>
       <path id="svg_108" stroke-width="10" d="m56,347q0,13 14,20l637,0q15,-8 15,-20q0,-11 -14,-19l-318,-1l-318,0q-16,5 -16,20zm0,-194q0,15 16,20l636,0q14,-10 14,-20q0,-13 -15,-20l-637,0q-14,7 -14,20z"/>
       <path id="svg_107" stroke-width="10" d="m42,313q0,163 81,258t180,95q69,0 99,-36t30,-80q0,-25 -14,-40t-39,-15q-23,0 -38,14t-15,39q0,44 47,53q-22,22 -62,25q-71,0 -117,-60q-47,-66 -47,-202l1,-4q5,6 8,13q41,60 107,60l4,0q46,0 81,-19q24,-14 48,-40t39,-57q21,-49 21,-107l0,-18q0,-23 -5,-43q-11,-59 -64,-115t-134,-56q-28,0 -54,8t-56,30t-51,59t-36,97t-14,141zm215,84q-30,0 -52,-17t-34,-45t-17,-57t-6,-62q0,-83 12,-119t38,-58q24,-18 53,-18q51,0 78,38q13,18 18,45t5,105q0,80 -5,107t-18,45q-27,36 -72,36z"/>
       <path id="svg_106" stroke-width="10" d="m164,157q0,-24 -16,-40t-39,-16l-7,0q46,-79 122,-79q70,0 102,60q19,33 19,128q0,103 -27,139q-26,33 -58,33l-6,0q-78,0 -118,-68q-4,-7 -7,-8t-15,-2q-17,0 -19,6q-2,4 -2,175l0,129q0,50 5,50q2,2 4,2q1,0 21,-8t55,-16t75,-8q71,0 136,28q8,4 13,4q8,0 8,-18l0,-13q-82,-97 -205,-97q-31,0 -56,6l-10,2l0,-172q19,14 30,22t36,16t51,8q81,0 137,-65t56,-154q0,-92 -64,-157t-156,-66q-81,0 -130,54t-49,122q0,24 11,38t23,18t23,4q25,0 41,-17t16,-40z"/>
       <path id="svg_105" stroke-width="10" d="m127,463q-27,0 -42,17t-16,44q0,55 48,98t116,43q35,0 44,-1q74,-12 113,-53t40,-89q0,-52 -34,-101t-94,-71l-3,-2q0,-1 9,-3t29,-9t38,-21q82,-53 82,-140q0,-79 -62,-138t-157,-59q-80,0 -138,43t-58,109q0,28 18,45t45,18q28,0 46,-18t18,-45q0,-11 -3,-20t-7,-16t-11,-12t-12,-8t-10,-4t-8,-3l-4,-1q51,-45 124,-45q55,0 83,53q17,33 17,101l0,20q0,95 -64,127q-15,6 -61,7l-42,1l-3,2q-2,3 -2,16q0,18 8,18q28,0 58,5q34,5 62,42t28,112l0,8q0,57 -35,79q-22,14 -47,14q-32,0 -59,-11t-38,-23t-11,-12l3,0q3,-1 8,-2t10,-5t12,-7t10,-11t8,-15t3,-20q0,-22 -14,-39t-45,-18z"/>
      </defs>
      <g stroke="rgb(68, 68, 68)" fill="rgb(68, 68, 68)" stroke-width="0" transform="matrix(1 0 0 -1 0 0)" id="svg_102">
       <use xlink:href="#svg_104" id="svg_103"/>
      </g>
     </svg>
    </g>
   </g>
   <g class="g-ytitle" id="svg_189">
    <g class="ytitle-math-group" transform="rotate(-90, 36.4994, 237.882)" id="svg_23">
     <svg xmlns:xlink="http://www.w3.org/1999/xlink" viewBox="0 -707.941989467833 768 731.8839789356658" class="ytitle-math" height="1.71ex" preserveAspectRatio="xMinYMin meet" x="36.499438" y="237.882151" width="1.71ex" id="svg_114">
      <defs>
       <path id="svg_126" stroke-width="10" d="m42,0l-2,0q-14,0 -14,11q0,4 3,16q4,14 7,16t19,3q86,3 135,52q10,10 116,126t105,118q-109,278 -114,283q-9,11 -63,12l-28,0q-6,6 -6,8t2,19q4,13 10,19l14,0q34,-2 121,-2q33,0 61,0t45,1t20,0q17,0 17,-11q0,-1 -2,-13q-4,-15 -7,-18t-16,-3q-31,-3 -54,-17l77,-194l53,59q105,113 105,125q0,18 -24,25q-5,0 -13,2q-15,0 -15,11q0,2 2,16q4,13 10,19l12,0q1,0 25,0t54,-2t41,-1q90,0 99,3l8,0q7,-7 7,-11q-2,-25 -12,-35l-16,0q-34,-1 -61,-9t-41,-17t-24,-18l-11,-9q0,1 -95,-104l-87,-96q0,-1 31,-80t65,-162t37,-86q10,-9 61,-10q35,0 35,-9q0,-2 -2,-14q-4,-16 -7,-19t-14,-3q-3,0 -33,0t-89,1q-61,0 -93,0t-35,-1q-17,0 -17,9q0,1 2,15q2,10 4,14t5,5t9,2t16,1t26,7q17,8 17,10q-1,0 -47,117l-47,118q-188,-204 -193,-215q-4,-8 -4,-12q0,-19 29,-25q1,0 6,0t6,-1q3,0 4,0t3,-1t3,-3t1,-7q0,-9 -2,-16q-3,-13 -6,-15t-15,-3q-3,0 -18,0t-42,1t-59,0q-78,0 -100,-2z"/>
       <path id="svg_117" stroke-width="10" d="m66,637q-12,0 -17,0t-10,1t-7,3t-2,6t3,17t9,18q2,1 14,1q48,-3 109,-3q123,0 141,3l10,0q6,-6 6,-9t-2,-18q-4,-13 -10,-19l-12,0q-56,0 -56,-13q0,-5 50,-147t51,-144l3,3q4,4 12,13t21,24t32,37t43,51q92,107 107,126t16,31q0,16 -32,19q-17,0 -17,10q0,2 2,14q3,15 5,18t14,4q2,0 29,-1t79,-2q27,0 56,1t33,1q17,0 17,-9q0,-4 -3,-16t-5,-14q-2,-6 -21,-6q-72,-5 -117,-50q-9,-9 -140,-163l-129,-151l-26,-104q-27,-107 -27,-112q0,-11 68,-11q16,0 21,-1t6,-10q0,-2 -2,-12q-4,-17 -6,-19t-16,-3q-5,0 -42,0t-92,1q-62,0 -94,0t-36,-1q-18,0 -18,8q0,5 3,15q1,3 2,6t1,5t1,4t2,3t3,2t5,1t6,0t9,1t13,0q39,1 51,4t18,13q3,5 29,108l25,103l-123,349q-1,1 -2,2t-2,2t-3,2t-4,2t-5,2t-8,1t-9,1t-13,1t-17,1z"/>
       <path id="svg_125" stroke-width="10" d="m52,289q7,42 54,97t116,56q35,0 64,-18t43,-45q42,63 101,63q37,0 64,-22t28,-59q0,-29 -14,-47t-27,-22t-23,-4q-19,0 -31,11t-12,29q0,46 50,63q-11,13 -40,13q-13,0 -19,-2q-38,-16 -56,-66q-60,-221 -60,-258q0,-28 16,-40t35,-12q37,0 73,33t49,81q3,10 6,11t16,2l4,0q15,0 15,-8q0,-1 -2,-11q-16,-57 -62,-101t-107,-44q-70,0 -106,63q-41,-62 -94,-62l-6,0q-49,0 -70,26t-22,55q0,32 19,52t45,20q43,0 43,-42q0,-20 -12,-35t-23,-20t-13,-5l-3,-1q0,-1 6,-4t16,-7t19,-3q36,0 62,45q9,16 23,68t28,108t16,66q5,27 5,39q0,28 -15,40t-34,12q-40,0 -75,-32t-49,-82q-2,-9 -5,-10t-16,-2l-14,0q-6,6 -6,11z"/>
       <path id="svg_124" stroke-width="10" d="m56,237t0,13t14,20l299,0l0,150l1,150q10,13 19,13q13,0 20,-15l0,-298l298,0q15,-8 15,-20t-15,-20l-298,0l0,-298q-8,-14 -18,-14l-2,0l-2,0q-12,0 -18,14l0,298l-299,0q-14,7 -14,20l0,-13z"/>
       <path id="svg_123" stroke-width="10" d="m109,429q-27,0 -43,18t-16,44q0,71 53,123t132,52q91,0 152,-56t62,-145q0,-43 -20,-82t-48,-68t-80,-74q-36,-31 -100,-92l-59,-56l76,-1q157,0 167,5q7,2 24,89l0,3l40,0l0,-3q-1,-3 -13,-91t-15,-92l0,-3l-371,0l0,19l0,12q0,7 6,15t30,35q29,32 50,56q9,10 34,37t34,37t29,33t28,34t23,30t21,32t15,29t13,32t7,30t3,33q0,63 -34,109t-97,46q-33,0 -58,-17t-35,-33t-10,-19q0,-1 5,-1q18,0 37,-14t19,-46q0,-25 -16,-42t-45,-18z"/>
       <path id="svg_122" stroke-width="10" d="m21,287q0,14 15,48t48,71t74,36q41,0 66,-23t26,-64q-2,-19 -3,-21q0,-3 -16,-46t-33,-97t-16,-86q0,-43 14,-60t42,-18q23,0 43,11t31,23t27,33q0,1 5,20t14,59t19,74q38,150 42,157q13,27 43,27q13,0 21,-7t11,-12t2,-9q0,-13 -49,-210t-56,-216q-28,-83 -97,-132t-138,-50q-45,0 -79,22t-34,66q0,22 7,37t19,22t20,10t17,3q44,0 44,-42q0,-20 -12,-35t-23,-20t-13,-5l-3,-1q2,-5 19,-12t34,-7l8,0q17,0 26,2q33,9 61,38t43,62t23,56t8,30l-6,-4q-6,-4 -19,-11t-26,-12q-20,-5 -39,-5q-46,0 -81,22t-46,71q-1,7 -1,31q0,57 35,149t35,117q0,1 0,2q0,9 0,12t-4,7t-11,4l-4,0q-23,0 -42,-19t-30,-41t-17,-42t-8,-22q-2,-2 -16,-2l-14,0q-6,6 -6,9z"/>
       <path id="svg_121" stroke-width="10" d="m56,347q0,13 14,20l637,0q15,-8 15,-20q0,-11 -14,-19l-318,-1l-318,0q-16,5 -16,20zm0,-194q0,15 16,20l636,0q14,-10 14,-20q0,-13 -15,-20l-637,0q-14,7 -14,20z"/>
       <path id="svg_120" stroke-width="10" d="m42,313q0,163 81,258t180,95q69,0 99,-36t30,-80q0,-25 -14,-40t-39,-15q-23,0 -38,14t-15,39q0,44 47,53q-22,22 -62,25q-71,0 -117,-60q-47,-66 -47,-202l1,-4q5,6 8,13q41,60 107,60l4,0q46,0 81,-19q24,-14 48,-40t39,-57q21,-49 21,-107l0,-18q0,-23 -5,-43q-11,-59 -64,-115t-134,-56q-28,0 -54,8t-56,30t-51,59t-36,97t-14,141zm215,84q-30,0 -52,-17t-34,-45t-17,-57t-6,-62q0,-83 12,-119t38,-58q24,-18 53,-18q51,0 78,38q13,18 18,45t5,105q0,80 -5,107t-18,45q-27,36 -72,36z"/>
       <path id="svg_119" stroke-width="10" d="m164,157q0,-24 -16,-40t-39,-16l-7,0q46,-79 122,-79q70,0 102,60q19,33 19,128q0,103 -27,139q-26,33 -58,33l-6,0q-78,0 -118,-68q-4,-7 -7,-8t-15,-2q-17,0 -19,6q-2,4 -2,175l0,129q0,50 5,50q2,2 4,2q1,0 21,-8t55,-16t75,-8q71,0 136,28q8,4 13,4q8,0 8,-18l0,-13q-82,-97 -205,-97q-31,0 -56,6l-10,2l0,-172q19,14 30,22t36,16t51,8q81,0 137,-65t56,-154q0,-92 -64,-157t-156,-66q-81,0 -130,54t-49,122q0,24 11,38t23,18t23,4q25,0 41,-17t16,-40z"/>
       <path id="svg_118" stroke-width="10" d="m127,463q-27,0 -42,17t-16,44q0,55 48,98t116,43q35,0 44,-1q74,-12 113,-53t40,-89q0,-52 -34,-101t-94,-71l-3,-2q0,-1 9,-3t29,-9t38,-21q82,-53 82,-140q0,-79 -62,-138t-157,-59q-80,0 -138,43t-58,109q0,28 18,45t45,18q28,0 46,-18t18,-45q0,-11 -3,-20t-7,-16t-11,-12t-12,-8t-10,-4t-8,-3l-4,-1q51,-45 124,-45q55,0 83,53q17,33 17,101l0,20q0,95 -64,127q-15,6 -61,7l-42,1l-3,2q-2,3 -2,16q0,18 8,18q28,0 58,5q34,5 62,42t28,112l0,8q0,57 -35,79q-22,14 -47,14q-32,0 -59,-11t-38,-23t-11,-12l3,0q3,-1 8,-2t10,-5t12,-7t10,-11t8,-15t3,-20q0,-22 -14,-39t-45,-18z"/>
      </defs>
      <g stroke="rgb(68, 68, 68)" fill="rgb(68, 68, 68)" stroke-width="0" transform="matrix(1 0 0 -1 0 0)" id="svg_115">
       <use xlink:href="#svg_117" id="svg_116"/>
      </g>
     </svg>
    </g>
   </g>
   <g id="svg_170">
    <svg class="legend" x="725" y="100" width="132" height="86" id="svg_127">
     <rect class="bg" x="0" y="0" width="132" height="86" stroke-width="0px" fill="rgb(255, 255, 255)" stroke="rgb(68, 68, 68)" id="svg_295"/>
     <g class="traces" id="svg_259">
      <g class="legendfill" id="svg_294"/>
      <g class="legendlines" id="svg_292">
       <path class="js-line" d="m5,14.5l30,0" stroke-width="2px" stroke="rgb(148, 103, 189)" fill="none" id="svg_293"/>
      </g>
      <g class="legendsymbols" id="svg_289">
       <g class="legendpoints" id="svg_290">
        <path class="scatterpts" d="m23,14.5a3,3 0 1 1 -3,-3a3,3 0 0 1 3,3z" fill="rgb(148, 103, 189)" stroke-width="0px" id="svg_291"/>
       </g>
      </g>
      <rect class="legendtoggle" x="0" y="5" height="19" width="126.98438" fill-opacity="0" fill="rgb(0, 0, 0)" id="svg_288"/>
      <g class="legendtext-math-group" id="svg_260">
       <svg xmlns:xlink="http://www.w3.org/1999/xlink" viewBox="0 -687.7742397004789 2420.5555555555557 732.5484794009578" class="legendtext-math" height="1.636ex" preserveAspectRatio="xMinYMin meet" x="40" y="9.38991" width="5.636ex" id="svg_296">
        <defs>
         <path id="svg_322" stroke-width="10" d="m128,619q-7,7 -11,9t-16,3t-43,3l-33,0l0,46l557,0l0,-4q2,-6 14,-116t14,-116l0,-4l-40,0l0,4q-7,49 -9,57q-6,37 -18,62t-27,38t-39,21t-46,9t-57,2l-40,0l-48,0q-34,0 -42,-2t-11,-10q-1,-2 -1,-131l0,-127l52,0q3,0 19,0t24,1t22,3t23,6t17,12q18,18 21,74l0,21l40,0l0,-280l-40,0l0,21q-3,55 -21,75q-8,7 -18,11t-23,6t-21,3t-24,1t-19,0l-52,0l0,-128l1,-128q7,-7 12,-9t25,-4t63,-2l27,0l0,-46l-12,0q-24,3 -166,3q-131,0 -146,-3l-11,0l0,46l33,0q42,1 51,3t19,12l0,558z"/>
         <path id="svg_321" stroke-width="10" d="m42,46l14,0q39,0 47,14l0,8q0,9 0,23t0,33t1,43t0,50t0,55t0,57q0,37 0,78t0,75t0,60t-1,44t0,17q-3,19 -14,25t-45,9l-18,0l0,23q0,23 2,23l10,1q10,1 29,2t37,2q17,1 37,2t30,3t11,1l3,0l0,-315q0,-317 1,-319q4,-8 12,-11q21,-3 49,-3l16,0l0,-46l-8,0l-23,1q-23,1 -49,1t-38,1t-38,0t-50,-2l-23,-1l-8,0l0,46l16,0z"/>
         <path id="svg_320" stroke-width="10" d="m137,305t-22,0t-37,15t-15,39q0,35 34,62t121,27q73,0 118,-32t60,-76q5,-14 5,-31t1,-115l0,-70q0,-48 5,-66t21,-18q15,0 20,16t5,53l0,36l40,0l0,-39q-1,-40 -3,-47q-9,-30 -35,-47t-55,-18t-47,18t-24,42l0,4l-2,-3q-2,-3 -5,-6t-8,-9t-12,-11t-15,-12t-18,-11t-22,-8t-26,-6t-31,-3q-60,0 -108,31t-48,87q0,21 7,40t27,41t48,37t78,28t110,15l14,0l0,22q0,34 -6,50q-22,71 -97,71q-18,0 -34,-1t-25,-4t-8,-3q22,-15 22,-44q0,-25 -16,-39l-17,-15zm-11,-199q0,-31 24,-55t59,-25q38,0 67,23t39,60q2,7 3,66q0,58 -1,58q-8,0 -21,-1t-45,-9t-58,-20t-46,-37t-21,-60z"/>
         <path id="svg_319" stroke-width="10" d="m295,316q0,40 -27,69t-78,29q-36,0 -62,-13q-30,-19 -30,-52q-1,-5 0,-13t16,-24t43,-25q18,-5 44,-9t44,-9t32,-13q17,-8 33,-20t32,-41t17,-62q0,-62 -38,-102t-123,-41l-8,0q-52,0 -96,36l-8,-7l-9,-9q-6,-6 -12,-11l-11,-10l-8,0l-4,0q-3,0 -9,6l0,79l0,58q0,21 2,25t10,5l9,0q12,0 16,-4t5,-12t7,-27t19,-42q35,-51 97,-51q97,0 97,78q0,29 -18,47q-20,24 -83,36t-83,23q-36,17 -57,46t-21,62q0,39 17,66t43,40t50,18t44,5l11,0q40,0 70,-15l15,-8l9,7q10,9 22,17l8,0l4,0q3,0 9,-6l0,-132l-6,-6l-28,0q-6,6 -6,12z"/>
         <path id="svg_318" stroke-width="10" d="m41,46l14,0q39,0 47,14l0,8q0,9 0,23t0,33t0,43t1,50t0,55t0,57q0,37 0,78t0,75t-1,60t0,44t0,17q-3,19 -14,25t-45,9l-18,0l0,23q0,23 2,23l10,1q10,1 29,2t37,2q17,1 37,2t30,3t11,1l3,0l0,-327q60,75 144,75q123,0 135,-113q1,-7 1,-139l0,-86q0,-38 2,-45t11,-10q21,-3 49,-3l16,0l0,-46l-8,0l-24,1q-23,1 -50,1t-38,1q-103,0 -112,-3l-8,0l0,46l16,0q61,0 61,16q1,2 1,138q-1,135 -2,143q-6,28 -20,42t-24,17t-26,2q-45,0 -79,-34q-27,-27 -34,-55t-8,-83l0,-64l0,-60q0,-30 1,-40t3,-13t9,-6q21,-3 49,-3l16,0l0,-46l-8,0l-23,1q-24,1 -51,1t-38,1q-103,0 -112,-3l-8,0l0,46l16,0z"/>
         <path id="svg_317" stroke-width="10" d="m213,578l-13,-5q-14,-5 -40,-10t-58,-7l-19,0l0,46l19,0q47,2 87,15t56,24t28,22q2,3 12,3q9,0 17,-6l0,-299l1,-300q7,-7 12,-9t24,-4t62,-2l26,0l0,-46l-11,0q-21,3 -159,3q-136,0 -157,-3l-12,0l0,46l26,0q22,0 38,0t25,1t16,3t8,2t6,5t6,4l0,517z"/>
         <path id="svg_316" stroke-width="10" d="m164,157q0,-24 -16,-40t-39,-16l-7,0q46,-79 122,-79q70,0 102,60q19,33 19,128q0,103 -27,139q-26,33 -58,33l-6,0q-78,0 -118,-68q-4,-7 -7,-8t-15,-2q-17,0 -19,6q-2,4 -2,175l0,129q0,50 5,50q2,2 4,2q1,0 21,-8t55,-16t75,-8q71,0 136,28q8,4 13,4q8,0 8,-18l0,-13q-82,-97 -205,-97q-31,0 -56,6l-10,2l0,-172q19,14 30,22t36,16t51,8q81,0 137,-65t56,-154q0,-92 -64,-157t-156,-66q-81,0 -130,54t-49,122q0,24 11,38t23,18t23,4q25,0 41,-17t16,-40z"/>
         <path id="svg_315" stroke-width="10" d="m96,585q56,81 153,81q48,0 96,-26t78,-92q37,-83 37,-228q0,-155 -43,-237q-20,-42 -55,-67t-61,-31t-51,-7q-26,0 -52,6t-61,32t-55,67q-43,82 -43,237q0,174 57,265zm225,12q-30,32 -71,32q-42,0 -72,-32q-25,-26 -33,-72t-8,-192q0,-158 8,-208t36,-79q28,-30 69,-30q40,0 68,30q29,30 36,84t8,203q0,145 -8,191t-33,73z"/>
         <path id="svg_299" stroke-width="10" d="m127,463q-27,0 -42,17t-16,44q0,55 48,98t116,43q35,0 44,-1q74,-12 113,-53t40,-89q0,-52 -34,-101t-94,-71l-3,-2q0,-1 9,-3t29,-9t38,-21q82,-53 82,-140q0,-79 -62,-138t-157,-59q-80,0 -138,43t-58,109q0,28 18,45t45,18q28,0 46,-18t18,-45q0,-11 -3,-20t-7,-16t-11,-12t-12,-8t-10,-4t-8,-3l-4,-1q51,-45 124,-45q55,0 83,53q17,33 17,101l0,20q0,95 -64,127q-15,6 -61,7l-42,1l-3,2q-2,3 -2,16q0,18 8,18q28,0 58,5q34,5 62,42t28,112l0,8q0,57 -35,79q-22,14 -47,14q-32,0 -59,-11t-38,-23t-11,-12l3,0q3,-1 8,-2t10,-5t12,-7t10,-11t8,-15t3,-20q0,-22 -14,-39t-45,-18z"/>
         <path id="svg_314" stroke-width="10" d="m338,431q6,-2 84,-2q57,0 81,2l5,0l0,-46l-11,0q-58,-4 -74,-40q-2,-4 -67,-173t-68,-174q-5,-9 -25,-9q-19,0 -24,9q-140,361 -141,366q-5,14 -16,17t-39,4l-24,0l0,46l6,0l8,-1q8,0 20,0t26,0t25,-1t18,-1q95,0 110,3l8,0l0,-46l-14,0q-39,-1 -42,-15q0,-4 51,-136l51,-132l91,239l0,8q0,14 -10,23t-18,11t-14,2l-4,0l0,46l7,0z"/>
         <path id="svg_313" stroke-width="10" d="m78,60q0,24 17,42t43,18q24,0 42,-16t19,-43q0,-25 -17,-43t-43,-18t-43,17t-18,43z"/>
         <path id="svg_312" stroke-width="10" d="m41,46l14,0q39,0 47,14l0,8q0,9 0,23t0,31t1,39t0,42q0,31 0,66t-1,59l0,23q-3,19 -14,25t-45,9l-18,0l0,23q0,23 2,23l10,1q10,1 28,2t37,2q17,1 36,2t29,3t11,1l3,0l0,-40q0,-38 1,-38t5,5t12,15t19,18t29,19t38,16q20,5 51,5q15,0 28,-2t23,-6t19,-8t15,-9t11,-11t9,-11t7,-11t4,-10t3,-8l2,-5l3,4q3,4 6,8t9,11t13,13t15,13t20,12t23,10t26,7t31,3q126,0 137,-113q1,-7 1,-139l0,-86q0,-38 2,-45t11,-10q21,-3 49,-3l16,0l0,-46l-8,0l-23,1q-24,1 -51,1t-38,1q-103,0 -112,-3l-8,0l0,46l16,0q61,0 61,16q1,2 1,138q-1,135 -2,143q-6,28 -20,42t-24,17t-26,2q-45,0 -79,-34q-27,-27 -34,-55t-8,-83l0,-64l0,-60q0,-30 1,-40t3,-13t9,-6q21,-3 49,-3l16,0l0,-46l-8,0l-24,1q-23,1 -50,1t-38,1q-103,0 -112,-3l-8,0l0,46l16,0q61,0 61,16q1,2 1,138q-1,135 -2,143q-6,28 -20,42t-24,17t-26,2q-45,0 -79,-34q-27,-27 -34,-55t-8,-83l0,-64l0,-60q0,-30 1,-40t3,-13t9,-6q21,-3 49,-3l16,0l0,-46l-8,0l-23,1q-24,1 -51,1t-38,1q-103,0 -112,-3l-8,0l0,46l16,0z"/>
         <path id="svg_311" stroke-width="10" d="m27,422q53,4 82,56t32,122l0,15l40,0l0,-184l135,0l0,-46l-135,0l0,-144q1,-125 1,-141t7,-32q14,-39 49,-39q44,0 54,71q1,8 1,46l0,35l40,0l0,-35l0,-12q0,-77 -42,-117q-27,-27 -70,-27q-34,0 -59,12t-38,31t-19,35t-7,32q-1,7 -1,148l0,137l-79,0l0,37l9,0z"/>
         <path id="svg_310" stroke-width="10"/>
         <path id="svg_309" stroke-width="10" d="m66,637q-12,0 -17,0t-10,1t-7,3t-2,6t3,17t9,18q2,1 14,1q48,-3 109,-3q123,0 141,3l10,0q6,-6 6,-9t-2,-18q-4,-13 -10,-19l-12,0q-56,0 -56,-13q0,-5 50,-147t51,-144l3,3q4,4 12,13t21,24t32,37t43,51q92,107 107,126t16,31q0,16 -32,19q-17,0 -17,10q0,2 2,14q3,15 5,18t14,4q2,0 29,-1t79,-2q27,0 56,1t33,1q17,0 17,-9q0,-4 -3,-16t-5,-14q-2,-6 -21,-6q-72,-5 -117,-50q-9,-9 -140,-163l-129,-151l-26,-104q-27,-107 -27,-112q0,-11 68,-11q16,0 21,-1t6,-10q0,-2 -2,-12q-4,-17 -6,-19t-16,-3q-5,0 -42,0t-92,1q-62,0 -94,0t-36,-1q-18,0 -18,8q0,5 3,15q1,3 2,6t1,5t1,4t2,3t3,2t5,1t6,0t9,1t13,0q39,1 51,4t18,13q3,5 29,108l25,103l-123,349q-1,1 -2,2t-2,2t-3,2t-4,2t-5,2t-8,1t-9,1t-13,1t-17,1z"/>
         <path id="svg_308" stroke-width="10" d="m42,0l-2,0q-14,0 -14,11q0,4 3,16q4,14 7,16t19,3q86,3 135,52q10,10 116,126t105,118q-109,278 -114,283q-9,11 -63,12l-28,0q-6,6 -6,8t2,19q4,13 10,19l14,0q34,-2 121,-2q33,0 61,0t45,1t20,0q17,0 17,-11q0,-1 -2,-13q-4,-15 -7,-18t-16,-3q-31,-3 -54,-17l77,-194l53,59q105,113 105,125q0,18 -24,25q-5,0 -13,2q-15,0 -15,11q0,2 2,16q4,13 10,19l12,0q1,0 25,0t54,-2t41,-1q90,0 99,3l8,0q7,-7 7,-11q-2,-25 -12,-35l-16,0q-34,-1 -61,-9t-41,-17t-24,-18l-11,-9q0,1 -95,-104l-87,-96q0,-1 31,-80t65,-162t37,-86q10,-9 61,-10q35,0 35,-9q0,-2 -2,-14q-4,-16 -7,-19t-14,-3q-3,0 -33,0t-89,1q-61,0 -93,0t-35,-1q-17,0 -17,9q0,1 2,15q2,10 4,14t5,5t9,2t16,1t26,7q17,8 17,10q-1,0 -47,117l-47,118q-188,-204 -193,-215q-4,-8 -4,-12q0,-19 29,-25q1,0 6,0t6,-1q3,0 4,0t3,-1t3,-3t1,-7q0,-9 -2,-16q-3,-13 -6,-15t-15,-3q-3,0 -18,0t-42,1t-59,0q-78,0 -100,-2z"/>
         <path id="svg_303" stroke-width="10" d="m52,289q7,42 54,97t116,56q35,0 64,-18t43,-45q42,63 101,63q37,0 64,-22t28,-59q0,-29 -14,-47t-27,-22t-23,-4q-19,0 -31,11t-12,29q0,46 50,63q-11,13 -40,13q-13,0 -19,-2q-38,-16 -56,-66q-60,-221 -60,-258q0,-28 16,-40t35,-12q37,0 73,33t49,81q3,10 6,11t16,2l4,0q15,0 15,-8q0,-1 -2,-11q-16,-57 -62,-101t-107,-44q-70,0 -106,63q-41,-62 -94,-62l-6,0q-49,0 -70,26t-22,55q0,32 19,52t45,20q43,0 43,-42q0,-20 -12,-35t-23,-20t-13,-5l-3,-1q0,-1 6,-4t16,-7t19,-3q36,0 62,45q9,16 23,68t28,108t16,66q5,27 5,39q0,28 -15,40t-34,12q-40,0 -75,-32t-49,-82q-2,-9 -5,-10t-16,-2l-14,0q-6,6 -6,11z"/>
         <path id="svg_301" stroke-width="10" d="m56,347q0,13 14,20l637,0q15,-8 15,-20q0,-11 -14,-19l-318,-1l-318,0q-16,5 -16,20zm0,-194q0,15 16,20l636,0q14,-10 14,-20q0,-13 -15,-20l-637,0q-14,7 -14,20z"/>
         <path id="svg_307" stroke-width="10" d="m56,237t0,13t14,20l299,0l0,150l1,150q10,13 19,13q13,0 20,-15l0,-298l298,0q15,-8 15,-20t-15,-20l-298,0l0,-298q-8,-14 -18,-14l-2,0l-2,0q-12,0 -18,14l0,298l-299,0q-14,7 -14,20l0,-13z"/>
         <path id="svg_306" stroke-width="10" d="m21,287q0,14 15,48t48,71t74,36q41,0 66,-23t26,-64q-2,-19 -3,-21q0,-3 -16,-46t-33,-97t-16,-86q0,-43 14,-60t42,-18q23,0 43,11t31,23t27,33q0,1 5,20t14,59t19,74q38,150 42,157q13,27 43,27q13,0 21,-7t11,-12t2,-9q0,-13 -49,-210t-56,-216q-28,-83 -97,-132t-138,-50q-45,0 -79,22t-34,66q0,22 7,37t19,22t20,10t17,3q44,0 44,-42q0,-20 -12,-35t-23,-20t-13,-5l-3,-1q2,-5 19,-12t34,-7l8,0q17,0 26,2q33,9 61,38t43,62t23,56t8,30l-6,-4q-6,-4 -19,-11t-26,-12q-20,-5 -39,-5q-46,0 -81,22t-46,71q-1,7 -1,31q0,57 35,149t35,117q0,1 0,2q0,9 0,12t-4,7t-11,4l-4,0q-23,0 -42,-19t-30,-41t-17,-42t-8,-22q-2,-2 -16,-2l-14,0q-6,6 -6,9z"/>
         <path id="svg_305" stroke-width="10" d="m109,429q-27,0 -43,18t-16,44q0,71 53,123t132,52q91,0 152,-56t62,-145q0,-43 -20,-82t-48,-68t-80,-74q-36,-31 -100,-92l-59,-56l76,-1q157,0 167,5q7,2 24,89l0,3l40,0l0,-3q-1,-3 -13,-91t-15,-92l0,-3l-371,0l0,19l0,12q0,7 6,15t30,35q29,32 50,56q9,10 34,37t34,37t29,33t28,34t23,30t21,32t15,29t13,32t7,30t3,33q0,63 -34,109t-97,46q-33,0 -58,-17t-35,-33t-10,-19q0,-1 5,-1q18,0 37,-14t19,-46q0,-25 -16,-42t-45,-18z"/>
         <path id="svg_304" stroke-width="10" d="m42,313q0,163 81,258t180,95q69,0 99,-36t30,-80q0,-25 -14,-40t-39,-15q-23,0 -38,14t-15,39q0,44 47,53q-22,22 -62,25q-71,0 -117,-60q-47,-66 -47,-202l1,-4q5,6 8,13q41,60 107,60l4,0q46,0 81,-19q24,-14 48,-40t39,-57q21,-49 21,-107l0,-18q0,-23 -5,-43q-11,-59 -64,-115t-134,-56q-28,0 -54,8t-56,30t-51,59t-36,97t-14,141zm215,84q-30,0 -52,-17t-34,-45t-17,-57t-6,-62q0,-83 12,-119t38,-58q24,-18 53,-18q51,0 78,38q13,18 18,45t5,105q0,80 -5,107t-18,45q-27,36 -72,36z"/>
        </defs>
        <g stroke="rgb(68, 68, 68)" fill="rgb(68, 68, 68)" stroke-width="0" transform="matrix(1 0 0 -1 0 0)" id="svg_297">
         <use xlink:href="#svg_303" id="svg_302"/>
         <use xlink:href="#svg_301" x="854" y="0" id="svg_300"/>
         <use xlink:href="#svg_299" x="1915" y="0" id="svg_298"/>
        </g>
       </svg>
      </g>
     </g>
     <g class="traces" id="svg_249">
      <g class="legendfill" id="svg_257">
       <path class="js-fill" d="m5,33.5l30,0l0,6l-30,0l0,-6z" fill-opacity="0.5" fill="rgb(0, 0, 0)" stroke-width="0px" id="svg_258"/>
      </g>
      <g class="legendlines" id="svg_255">
       <path class="js-line" d="m5,33.5l30,0" stroke-width="2px" stroke-opacity="0" stroke="rgb(0, 0, 0)" fill="none" id="svg_256"/>
      </g>
      <g class="legendsymbols" id="svg_252">
       <g class="legendpoints" id="svg_253">
        <path class="scatterpts" d="m23,33.5a3,3 0 1 1 -3,-3a3,3 0 0 1 3,3z" fill-opacity="0" fill="rgb(0, 0, 0)" stroke-width="0px" id="svg_254"/>
       </g>
      </g>
      <text class="legendtext" x="40" y="38.18" fill="rgb(68, 68, 68)" font-size="12px" font-family="'Open sans', verdana, arial, sans-serif" text-anchor="start" id="svg_251">Feasible Region</text>
      <rect class="legendtoggle" x="0" y="24" height="19" width="126.98438" fill-opacity="0" fill="rgb(0, 0, 0)" id="svg_250"/>
     </g>
     <g class="traces" id="svg_211">
      <g class="legendfill" id="svg_248"/>
      <g class="legendlines" id="svg_246">
       <path class="js-line" d="m5,52.5l30,0" stroke-width="2px" stroke="rgb(255, 127, 14)" fill="none" id="svg_247"/>
      </g>
      <g class="legendsymbols" id="svg_243">
       <g class="legendpoints" id="svg_244">
        <path class="scatterpts" d="m23,52.5a3,3 0 1 1 -3,-3a3,3 0 0 1 3,3z" fill="rgb(255, 127, 14)" stroke-width="0px" id="svg_245"/>
       </g>
      </g>
      <rect class="legendtoggle" x="0" y="43" height="19" width="126.98438" fill-opacity="0" fill="rgb(0, 0, 0)" id="svg_242"/>
      <g class="legendtext-math-group" id="svg_212">
       <svg xmlns:xlink="http://www.w3.org/1999/xlink" viewBox="0 -688.7742397004789 4150 916.5484794009578" class="legendtext-math" height="2.182ex" preserveAspectRatio="xMinYMin meet" x="40" y="46.64548" width="9.636ex" id="svg_323">
        <defs>
         <path id="svg_351" stroke-width="10" d="m128,619q-7,7 -11,9t-16,3t-43,3l-33,0l0,46l557,0l0,-4q2,-6 14,-116t14,-116l0,-4l-40,0l0,4q-7,49 -9,57q-6,37 -18,62t-27,38t-39,21t-46,9t-57,2l-40,0l-48,0q-34,0 -42,-2t-11,-10q-1,-2 -1,-131l0,-127l52,0q3,0 19,0t24,1t22,3t23,6t17,12q18,18 21,74l0,21l40,0l0,-280l-40,0l0,21q-3,55 -21,75q-8,7 -18,11t-23,6t-21,3t-24,1t-19,0l-52,0l0,-128l1,-128q7,-7 12,-9t25,-4t63,-2l27,0l0,-46l-12,0q-24,3 -166,3q-131,0 -146,-3l-11,0l0,46l33,0q42,1 51,3t19,12l0,558z"/>
         <path id="svg_350" stroke-width="10" d="m42,46l14,0q39,0 47,14l0,8q0,9 0,23t0,33t1,43t0,50t0,55t0,57q0,37 0,78t0,75t0,60t-1,44t0,17q-3,19 -14,25t-45,9l-18,0l0,23q0,23 2,23l10,1q10,1 29,2t37,2q17,1 37,2t30,3t11,1l3,0l0,-315q0,-317 1,-319q4,-8 12,-11q21,-3 49,-3l16,0l0,-46l-8,0l-23,1q-23,1 -49,1t-38,1t-38,0t-50,-2l-23,-1l-8,0l0,46l16,0z"/>
         <path id="svg_349" stroke-width="10" d="m137,305t-22,0t-37,15t-15,39q0,35 34,62t121,27q73,0 118,-32t60,-76q5,-14 5,-31t1,-115l0,-70q0,-48 5,-66t21,-18q15,0 20,16t5,53l0,36l40,0l0,-39q-1,-40 -3,-47q-9,-30 -35,-47t-55,-18t-47,18t-24,42l0,4l-2,-3q-2,-3 -5,-6t-8,-9t-12,-11t-15,-12t-18,-11t-22,-8t-26,-6t-31,-3q-60,0 -108,31t-48,87q0,21 7,40t27,41t48,37t78,28t110,15l14,0l0,22q0,34 -6,50q-22,71 -97,71q-18,0 -34,-1t-25,-4t-8,-3q22,-15 22,-44q0,-25 -16,-39l-17,-15zm-11,-199q0,-31 24,-55t59,-25q38,0 67,23t39,60q2,7 3,66q0,58 -1,58q-8,0 -21,-1t-45,-9t-58,-20t-46,-37t-21,-60z"/>
         <path id="svg_348" stroke-width="10" d="m295,316q0,40 -27,69t-78,29q-36,0 -62,-13q-30,-19 -30,-52q-1,-5 0,-13t16,-24t43,-25q18,-5 44,-9t44,-9t32,-13q17,-8 33,-20t32,-41t17,-62q0,-62 -38,-102t-123,-41l-8,0q-52,0 -96,36l-8,-7l-9,-9q-6,-6 -12,-11l-11,-10l-8,0l-4,0q-3,0 -9,6l0,79l0,58q0,21 2,25t10,5l9,0q12,0 16,-4t5,-12t7,-27t19,-42q35,-51 97,-51q97,0 97,78q0,29 -18,47q-20,24 -83,36t-83,23q-36,17 -57,46t-21,62q0,39 17,66t43,40t50,18t44,5l11,0q40,0 70,-15l15,-8l9,7q10,9 22,17l8,0l4,0q3,0 9,-6l0,-132l-6,-6l-28,0q-6,6 -6,12z"/>
         <path id="svg_347" stroke-width="10" d="m41,46l14,0q39,0 47,14l0,8q0,9 0,23t0,33t0,43t1,50t0,55t0,57q0,37 0,78t0,75t-1,60t0,44t0,17q-3,19 -14,25t-45,9l-18,0l0,23q0,23 2,23l10,1q10,1 29,2t37,2q17,1 37,2t30,3t11,1l3,0l0,-327q60,75 144,75q123,0 135,-113q1,-7 1,-139l0,-86q0,-38 2,-45t11,-10q21,-3 49,-3l16,0l0,-46l-8,0l-24,1q-23,1 -50,1t-38,1q-103,0 -112,-3l-8,0l0,46l16,0q61,0 61,16q1,2 1,138q-1,135 -2,143q-6,28 -20,42t-24,17t-26,2q-45,0 -79,-34q-27,-27 -34,-55t-8,-83l0,-64l0,-60q0,-30 1,-40t3,-13t9,-6q21,-3 49,-3l16,0l0,-46l-8,0l-23,1q-24,1 -51,1t-38,1q-103,0 -112,-3l-8,0l0,46l16,0z"/>
         <path id="svg_346" stroke-width="10" d="m213,578l-13,-5q-14,-5 -40,-10t-58,-7l-19,0l0,46l19,0q47,2 87,15t56,24t28,22q2,3 12,3q9,0 17,-6l0,-299l1,-300q7,-7 12,-9t24,-4t62,-2l26,0l0,-46l-11,0q-21,3 -159,3q-136,0 -157,-3l-12,0l0,46l26,0q22,0 38,0t25,1t16,3t8,2t6,5t6,4l0,517z"/>
         <path id="svg_326" stroke-width="10" d="m164,157q0,-24 -16,-40t-39,-16l-7,0q46,-79 122,-79q70,0 102,60q19,33 19,128q0,103 -27,139q-26,33 -58,33l-6,0q-78,0 -118,-68q-4,-7 -7,-8t-15,-2q-17,0 -19,6q-2,4 -2,175l0,129q0,50 5,50q2,2 4,2q1,0 21,-8t55,-16t75,-8q71,0 136,28q8,4 13,4q8,0 8,-18l0,-13q-82,-97 -205,-97q-31,0 -56,6l-10,2l0,-172q19,14 30,22t36,16t51,8q81,0 137,-65t56,-154q0,-92 -64,-157t-156,-66q-81,0 -130,54t-49,122q0,24 11,38t23,18t23,4q25,0 41,-17t16,-40z"/>
         <path id="svg_345" stroke-width="10" d="m96,585q56,81 153,81q48,0 96,-26t78,-92q37,-83 37,-228q0,-155 -43,-237q-20,-42 -55,-67t-61,-31t-51,-7q-26,0 -52,6t-61,32t-55,67q-43,82 -43,237q0,174 57,265zm225,12q-30,32 -71,32q-42,0 -72,-32q-25,-26 -33,-72t-8,-192q0,-158 8,-208t36,-79q28,-30 69,-30q40,0 68,30q29,30 36,84t8,203q0,145 -8,191t-33,73z"/>
         <path id="svg_344" stroke-width="10" d="m127,463q-27,0 -42,17t-16,44q0,55 48,98t116,43q35,0 44,-1q74,-12 113,-53t40,-89q0,-52 -34,-101t-94,-71l-3,-2q0,-1 9,-3t29,-9t38,-21q82,-53 82,-140q0,-79 -62,-138t-157,-59q-80,0 -138,43t-58,109q0,28 18,45t45,18q28,0 46,-18t18,-45q0,-11 -3,-20t-7,-16t-11,-12t-12,-8t-10,-4t-8,-3l-4,-1q51,-45 124,-45q55,0 83,53q17,33 17,101l0,20q0,95 -64,127q-15,6 -61,7l-42,1l-3,2q-2,3 -2,16q0,18 8,18q28,0 58,5q34,5 62,42t28,112l0,8q0,57 -35,79q-22,14 -47,14q-32,0 -59,-11t-38,-23t-11,-12l3,0q3,-1 8,-2t10,-5t12,-7t10,-11t8,-15t3,-20q0,-22 -14,-39t-45,-18z"/>
         <path id="svg_343" stroke-width="10" d="m338,431q6,-2 84,-2q57,0 81,2l5,0l0,-46l-11,0q-58,-4 -74,-40q-2,-4 -67,-173t-68,-174q-5,-9 -25,-9q-19,0 -24,9q-140,361 -141,366q-5,14 -16,17t-39,4l-24,0l0,46l6,0l8,-1q8,0 20,0t26,0t25,-1t18,-1q95,0 110,3l8,0l0,-46l-14,0q-39,-1 -42,-15q0,-4 51,-136l51,-132l91,239l0,8q0,14 -10,23t-18,11t-14,2l-4,0l0,46l7,0z"/>
         <path id="svg_342" stroke-width="10" d="m78,60q0,24 17,42t43,18q24,0 42,-16t19,-43q0,-25 -17,-43t-43,-18t-43,17t-18,43z"/>
         <path id="svg_341" stroke-width="10" d="m41,46l14,0q39,0 47,14l0,8q0,9 0,23t0,31t1,39t0,42q0,31 0,66t-1,59l0,23q-3,19 -14,25t-45,9l-18,0l0,23q0,23 2,23l10,1q10,1 28,2t37,2q17,1 36,2t29,3t11,1l3,0l0,-40q0,-38 1,-38t5,5t12,15t19,18t29,19t38,16q20,5 51,5q15,0 28,-2t23,-6t19,-8t15,-9t11,-11t9,-11t7,-11t4,-10t3,-8l2,-5l3,4q3,4 6,8t9,11t13,13t15,13t20,12t23,10t26,7t31,3q126,0 137,-113q1,-7 1,-139l0,-86q0,-38 2,-45t11,-10q21,-3 49,-3l16,0l0,-46l-8,0l-23,1q-24,1 -51,1t-38,1q-103,0 -112,-3l-8,0l0,46l16,0q61,0 61,16q1,2 1,138q-1,135 -2,143q-6,28 -20,42t-24,17t-26,2q-45,0 -79,-34q-27,-27 -34,-55t-8,-83l0,-64l0,-60q0,-30 1,-40t3,-13t9,-6q21,-3 49,-3l16,0l0,-46l-8,0l-24,1q-23,1 -50,1t-38,1q-103,0 -112,-3l-8,0l0,46l16,0q61,0 61,16q1,2 1,138q-1,135 -2,143q-6,28 -20,42t-24,17t-26,2q-45,0 -79,-34q-27,-27 -34,-55t-8,-83l0,-64l0,-60q0,-30 1,-40t3,-13t9,-6q21,-3 49,-3l16,0l0,-46l-8,0l-23,1q-24,1 -51,1t-38,1q-103,0 -112,-3l-8,0l0,46l16,0z"/>
         <path id="svg_340" stroke-width="10" d="m27,422q53,4 82,56t32,122l0,15l40,0l0,-184l135,0l0,-46l-135,0l0,-144q1,-125 1,-141t7,-32q14,-39 49,-39q44,0 54,71q1,8 1,46l0,35l40,0l0,-35l0,-12q0,-77 -42,-117q-27,-27 -70,-27q-34,0 -59,12t-38,31t-19,35t-7,32q-1,7 -1,148l0,137l-79,0l0,37l9,0z"/>
         <path id="svg_339" stroke-width="10"/>
         <path id="svg_338" stroke-width="10" d="m66,637q-12,0 -17,0t-10,1t-7,3t-2,6t3,17t9,18q2,1 14,1q48,-3 109,-3q123,0 141,3l10,0q6,-6 6,-9t-2,-18q-4,-13 -10,-19l-12,0q-56,0 -56,-13q0,-5 50,-147t51,-144l3,3q4,4 12,13t21,24t32,37t43,51q92,107 107,126t16,31q0,16 -32,19q-17,0 -17,10q0,2 2,14q3,15 5,18t14,4q2,0 29,-1t79,-2q27,0 56,1t33,1q17,0 17,-9q0,-4 -3,-16t-5,-14q-2,-6 -21,-6q-72,-5 -117,-50q-9,-9 -140,-163l-129,-151l-26,-104q-27,-107 -27,-112q0,-11 68,-11q16,0 21,-1t6,-10q0,-2 -2,-12q-4,-17 -6,-19t-16,-3q-5,0 -42,0t-92,1q-62,0 -94,0t-36,-1q-18,0 -18,8q0,5 3,15q1,3 2,6t1,5t1,4t2,3t3,2t5,1t6,0t9,1t13,0q39,1 51,4t18,13q3,5 29,108l25,103l-123,349q-1,1 -2,2t-2,2t-3,2t-4,2t-5,2t-8,1t-9,1t-13,1t-17,1z"/>
         <path id="svg_337" stroke-width="10" d="m42,0l-2,0q-14,0 -14,11q0,4 3,16q4,14 7,16t19,3q86,3 135,52q10,10 116,126t105,118q-109,278 -114,283q-9,11 -63,12l-28,0q-6,6 -6,8t2,19q4,13 10,19l14,0q34,-2 121,-2q33,0 61,0t45,1t20,0q17,0 17,-11q0,-1 -2,-13q-4,-15 -7,-18t-16,-3q-31,-3 -54,-17l77,-194l53,59q105,113 105,125q0,18 -24,25q-5,0 -13,2q-15,0 -15,11q0,2 2,16q4,13 10,19l12,0q1,0 25,0t54,-2t41,-1q90,0 99,3l8,0q7,-7 7,-11q-2,-25 -12,-35l-16,0q-34,-1 -61,-9t-41,-17t-24,-18l-11,-9q0,1 -95,-104l-87,-96q0,-1 31,-80t65,-162t37,-86q10,-9 61,-10q35,0 35,-9q0,-2 -2,-14q-4,-16 -7,-19t-14,-3q-3,0 -33,0t-89,1q-61,0 -93,0t-35,-1q-17,0 -17,9q0,1 2,15q2,10 4,14t5,5t9,2t16,1t26,7q17,8 17,10q-1,0 -47,117l-47,118q-188,-204 -193,-215q-4,-8 -4,-12q0,-19 29,-25q1,0 6,0t6,-1q3,0 4,0t3,-1t3,-3t1,-7q0,-9 -2,-16q-3,-13 -6,-15t-15,-3q-3,0 -18,0t-42,1t-59,0q-78,0 -100,-2z"/>
         <path id="svg_334" stroke-width="10" d="m52,289q7,42 54,97t116,56q35,0 64,-18t43,-45q42,63 101,63q37,0 64,-22t28,-59q0,-29 -14,-47t-27,-22t-23,-4q-19,0 -31,11t-12,29q0,46 50,63q-11,13 -40,13q-13,0 -19,-2q-38,-16 -56,-66q-60,-221 -60,-258q0,-28 16,-40t35,-12q37,0 73,33t49,81q3,10 6,11t16,2l4,0q15,0 15,-8q0,-1 -2,-11q-16,-57 -62,-101t-107,-44q-70,0 -106,63q-41,-62 -94,-62l-6,0q-49,0 -70,26t-22,55q0,32 19,52t45,20q43,0 43,-42q0,-20 -12,-35t-23,-20t-13,-5l-3,-1q0,-1 6,-4t16,-7t19,-3q36,0 62,45q9,16 23,68t28,108t16,66q5,27 5,39q0,28 -15,40t-34,12q-40,0 -75,-32t-49,-82q-2,-9 -5,-10t-16,-2l-14,0q-6,6 -6,11z"/>
         <path id="svg_328" stroke-width="10" d="m56,347q0,13 14,20l637,0q15,-8 15,-20q0,-11 -14,-19l-318,-1l-318,0q-16,5 -16,20zm0,-194q0,15 16,20l636,0q14,-10 14,-20q0,-13 -15,-20l-637,0q-14,7 -14,20z"/>
         <path id="svg_332" stroke-width="10" d="m56,237t0,13t14,20l299,0l0,150l1,150q10,13 19,13q13,0 20,-15l0,-298l298,0q15,-8 15,-20t-15,-20l-298,0l0,-298q-8,-14 -18,-14l-2,0l-2,0q-12,0 -18,14l0,298l-299,0q-14,7 -14,20l0,-13z"/>
         <path id="svg_330" stroke-width="10" d="m21,287q0,14 15,48t48,71t74,36q41,0 66,-23t26,-64q-2,-19 -3,-21q0,-3 -16,-46t-33,-97t-16,-86q0,-43 14,-60t42,-18q23,0 43,11t31,23t27,33q0,1 5,20t14,59t19,74q38,150 42,157q13,27 43,27q13,0 21,-7t11,-12t2,-9q0,-13 -49,-210t-56,-216q-28,-83 -97,-132t-138,-50q-45,0 -79,22t-34,66q0,22 7,37t19,22t20,10t17,3q44,0 44,-42q0,-20 -12,-35t-23,-20t-13,-5l-3,-1q2,-5 19,-12t34,-7l8,0q17,0 26,2q33,9 61,38t43,62t23,56t8,30l-6,-4q-6,-4 -19,-11t-26,-12q-20,-5 -39,-5q-46,0 -81,22t-46,71q-1,7 -1,31q0,57 35,149t35,117q0,1 0,2q0,9 0,12t-4,7t-11,4l-4,0q-23,0 -42,-19t-30,-41t-17,-42t-8,-22q-2,-2 -16,-2l-14,0q-6,6 -6,9z"/>
         <path id="svg_336" stroke-width="10" d="m109,429q-27,0 -43,18t-16,44q0,71 53,123t132,52q91,0 152,-56t62,-145q0,-43 -20,-82t-48,-68t-80,-74q-36,-31 -100,-92l-59,-56l76,-1q157,0 167,5q7,2 24,89l0,3l40,0l0,-3q-1,-3 -13,-91t-15,-92l0,-3l-371,0l0,19l0,12q0,7 6,15t30,35q29,32 50,56q9,10 34,37t34,37t29,33t28,34t23,30t21,32t15,29t13,32t7,30t3,33q0,63 -34,109t-97,46q-33,0 -58,-17t-35,-33t-10,-19q0,-1 5,-1q18,0 37,-14t19,-46q0,-25 -16,-42t-45,-18z"/>
         <path id="svg_335" stroke-width="10" d="m42,313q0,163 81,258t180,95q69,0 99,-36t30,-80q0,-25 -14,-40t-39,-15q-23,0 -38,14t-15,39q0,44 47,53q-22,22 -62,25q-71,0 -117,-60q-47,-66 -47,-202l1,-4q5,6 8,13q41,60 107,60l4,0q46,0 81,-19q24,-14 48,-40t39,-57q21,-49 21,-107l0,-18q0,-23 -5,-43q-11,-59 -64,-115t-134,-56q-28,0 -54,8t-56,30t-51,59t-36,97t-14,141zm215,84q-30,0 -52,-17t-34,-45t-17,-57t-6,-62q0,-83 12,-119t38,-58q24,-18 53,-18q51,0 78,38q13,18 18,45t5,105q0,80 -5,107t-18,45q-27,36 -72,36z"/>
        </defs>
        <g stroke="rgb(68, 68, 68)" fill="rgb(68, 68, 68)" stroke-width="0" transform="matrix(1 0 0 -1 0 0)" id="svg_324">
         <use xlink:href="#svg_334" id="svg_333"/>
         <use xlink:href="#svg_332" x="799" y="0" id="svg_331"/>
         <use xlink:href="#svg_330" x="1804" y="0" id="svg_329"/>
         <use xlink:href="#svg_328" x="2584" y="0" id="svg_327"/>
         <use xlink:href="#svg_326" x="3645" y="0" id="svg_325"/>
        </g>
       </svg>
      </g>
     </g>
     <g class="traces" id="svg_128">
      <g class="legendfill" id="svg_210"/>
      <g class="legendlines" id="svg_208">
       <path class="js-line" d="m5,71.5l30,0" stroke-width="2px" stroke="rgb(31, 119, 180)" fill="none" id="svg_209"/>
      </g>
      <g class="legendsymbols" id="svg_205">
       <g class="legendpoints" id="svg_206">
        <path class="scatterpts" d="m23,71.5a3,3 0 1 1 -3,-3a3,3 0 0 1 3,3z" fill="rgb(31, 119, 180)" stroke-width="0px" id="svg_207"/>
       </g>
      </g>
      <rect class="legendtoggle" x="0" y="62" height="19" width="126.98438" fill-opacity="0" fill="rgb(0, 0, 0)" id="svg_204"/>
      <g class="legendtext-math-group" id="svg_129">
       <svg xmlns:xlink="http://www.w3.org/1999/xlink" viewBox="0 -688.7742397004789 4655 916.5484794009578" class="legendtext-math" height="2.182ex" preserveAspectRatio="xMinYMin meet" x="40" y="65.64548" width="10.727ex" id="svg_352">
        <defs>
         <path id="svg_381" stroke-width="10" d="m128,619q-7,7 -11,9t-16,3t-43,3l-33,0l0,46l557,0l0,-4q2,-6 14,-116t14,-116l0,-4l-40,0l0,4q-7,49 -9,57q-6,37 -18,62t-27,38t-39,21t-46,9t-57,2l-40,0l-48,0q-34,0 -42,-2t-11,-10q-1,-2 -1,-131l0,-127l52,0q3,0 19,0t24,1t22,3t23,6t17,12q18,18 21,74l0,21l40,0l0,-280l-40,0l0,21q-3,55 -21,75q-8,7 -18,11t-23,6t-21,3t-24,1t-19,0l-52,0l0,-128l1,-128q7,-7 12,-9t25,-4t63,-2l27,0l0,-46l-12,0q-24,3 -166,3q-131,0 -146,-3l-11,0l0,46l33,0q42,1 51,3t19,12l0,558z"/>
         <path id="svg_380" stroke-width="10" d="m42,46l14,0q39,0 47,14l0,8q0,9 0,23t0,33t1,43t0,50t0,55t0,57q0,37 0,78t0,75t0,60t-1,44t0,17q-3,19 -14,25t-45,9l-18,0l0,23q0,23 2,23l10,1q10,1 29,2t37,2q17,1 37,2t30,3t11,1l3,0l0,-315q0,-317 1,-319q4,-8 12,-11q21,-3 49,-3l16,0l0,-46l-8,0l-23,1q-23,1 -49,1t-38,1t-38,0t-50,-2l-23,-1l-8,0l0,46l16,0z"/>
         <path id="svg_379" stroke-width="10" d="m137,305t-22,0t-37,15t-15,39q0,35 34,62t121,27q73,0 118,-32t60,-76q5,-14 5,-31t1,-115l0,-70q0,-48 5,-66t21,-18q15,0 20,16t5,53l0,36l40,0l0,-39q-1,-40 -3,-47q-9,-30 -35,-47t-55,-18t-47,18t-24,42l0,4l-2,-3q-2,-3 -5,-6t-8,-9t-12,-11t-15,-12t-18,-11t-22,-8t-26,-6t-31,-3q-60,0 -108,31t-48,87q0,21 7,40t27,41t48,37t78,28t110,15l14,0l0,22q0,34 -6,50q-22,71 -97,71q-18,0 -34,-1t-25,-4t-8,-3q22,-15 22,-44q0,-25 -16,-39l-17,-15zm-11,-199q0,-31 24,-55t59,-25q38,0 67,23t39,60q2,7 3,66q0,58 -1,58q-8,0 -21,-1t-45,-9t-58,-20t-46,-37t-21,-60z"/>
         <path id="svg_378" stroke-width="10" d="m295,316q0,40 -27,69t-78,29q-36,0 -62,-13q-30,-19 -30,-52q-1,-5 0,-13t16,-24t43,-25q18,-5 44,-9t44,-9t32,-13q17,-8 33,-20t32,-41t17,-62q0,-62 -38,-102t-123,-41l-8,0q-52,0 -96,36l-8,-7l-9,-9q-6,-6 -12,-11l-11,-10l-8,0l-4,0q-3,0 -9,6l0,79l0,58q0,21 2,25t10,5l9,0q12,0 16,-4t5,-12t7,-27t19,-42q35,-51 97,-51q97,0 97,78q0,29 -18,47q-20,24 -83,36t-83,23q-36,17 -57,46t-21,62q0,39 17,66t43,40t50,18t44,5l11,0q40,0 70,-15l15,-8l9,7q10,9 22,17l8,0l4,0q3,0 9,-6l0,-132l-6,-6l-28,0q-6,6 -6,12z"/>
         <path id="svg_377" stroke-width="10" d="m41,46l14,0q39,0 47,14l0,8q0,9 0,23t0,33t0,43t1,50t0,55t0,57q0,37 0,78t0,75t-1,60t0,44t0,17q-3,19 -14,25t-45,9l-18,0l0,23q0,23 2,23l10,1q10,1 29,2t37,2q17,1 37,2t30,3t11,1l3,0l0,-327q60,75 144,75q123,0 135,-113q1,-7 1,-139l0,-86q0,-38 2,-45t11,-10q21,-3 49,-3l16,0l0,-46l-8,0l-24,1q-23,1 -50,1t-38,1q-103,0 -112,-3l-8,0l0,46l16,0q61,0 61,16q1,2 1,138q-1,135 -2,143q-6,28 -20,42t-24,17t-26,2q-45,0 -79,-34q-27,-27 -34,-55t-8,-83l0,-64l0,-60q0,-30 1,-40t3,-13t9,-6q21,-3 49,-3l16,0l0,-46l-8,0l-23,1q-24,1 -51,1t-38,1q-103,0 -112,-3l-8,0l0,46l16,0z"/>
         <path id="svg_376" stroke-width="10" d="m213,578l-13,-5q-14,-5 -40,-10t-58,-7l-19,0l0,46l19,0q47,2 87,15t56,24t28,22q2,3 12,3q9,0 17,-6l0,-299l1,-300q7,-7 12,-9t24,-4t62,-2l26,0l0,-46l-11,0q-21,3 -159,3q-136,0 -157,-3l-12,0l0,46l26,0q22,0 38,0t25,1t16,3t8,2t6,5t6,4l0,517z"/>
         <path id="svg_375" stroke-width="10" d="m164,157q0,-24 -16,-40t-39,-16l-7,0q46,-79 122,-79q70,0 102,60q19,33 19,128q0,103 -27,139q-26,33 -58,33l-6,0q-78,0 -118,-68q-4,-7 -7,-8t-15,-2q-17,0 -19,6q-2,4 -2,175l0,129q0,50 5,50q2,2 4,2q1,0 21,-8t55,-16t75,-8q71,0 136,28q8,4 13,4q8,0 8,-18l0,-13q-82,-97 -205,-97q-31,0 -56,6l-10,2l0,-172q19,14 30,22t36,16t51,8q81,0 137,-65t56,-154q0,-92 -64,-157t-156,-66q-81,0 -130,54t-49,122q0,24 11,38t23,18t23,4q25,0 41,-17t16,-40z"/>
         <path id="svg_374" stroke-width="10" d="m96,585q56,81 153,81q48,0 96,-26t78,-92q37,-83 37,-228q0,-155 -43,-237q-20,-42 -55,-67t-61,-31t-51,-7q-26,0 -52,6t-61,32t-55,67q-43,82 -43,237q0,174 57,265zm225,12q-30,32 -71,32q-42,0 -72,-32q-25,-26 -33,-72t-8,-192q0,-158 8,-208t36,-79q28,-30 69,-30q40,0 68,30q29,30 36,84t8,203q0,145 -8,191t-33,73z"/>
         <path id="svg_373" stroke-width="10" d="m127,463q-27,0 -42,17t-16,44q0,55 48,98t116,43q35,0 44,-1q74,-12 113,-53t40,-89q0,-52 -34,-101t-94,-71l-3,-2q0,-1 9,-3t29,-9t38,-21q82,-53 82,-140q0,-79 -62,-138t-157,-59q-80,0 -138,43t-58,109q0,28 18,45t45,18q28,0 46,-18t18,-45q0,-11 -3,-20t-7,-16t-11,-12t-12,-8t-10,-4t-8,-3l-4,-1q51,-45 124,-45q55,0 83,53q17,33 17,101l0,20q0,95 -64,127q-15,6 -61,7l-42,1l-3,2q-2,3 -2,16q0,18 8,18q28,0 58,5q34,5 62,42t28,112l0,8q0,57 -35,79q-22,14 -47,14q-32,0 -59,-11t-38,-23t-11,-12l3,0q3,-1 8,-2t10,-5t12,-7t10,-11t8,-15t3,-20q0,-22 -14,-39t-45,-18z"/>
         <path id="svg_372" stroke-width="10" d="m338,431q6,-2 84,-2q57,0 81,2l5,0l0,-46l-11,0q-58,-4 -74,-40q-2,-4 -67,-173t-68,-174q-5,-9 -25,-9q-19,0 -24,9q-140,361 -141,366q-5,14 -16,17t-39,4l-24,0l0,46l6,0l8,-1q8,0 20,0t26,0t25,-1t18,-1q95,0 110,3l8,0l0,-46l-14,0q-39,-1 -42,-15q0,-4 51,-136l51,-132l91,239l0,8q0,14 -10,23t-18,11t-14,2l-4,0l0,46l7,0z"/>
         <path id="svg_371" stroke-width="10" d="m78,60q0,24 17,42t43,18q24,0 42,-16t19,-43q0,-25 -17,-43t-43,-18t-43,17t-18,43z"/>
         <path id="svg_370" stroke-width="10" d="m41,46l14,0q39,0 47,14l0,8q0,9 0,23t0,31t1,39t0,42q0,31 0,66t-1,59l0,23q-3,19 -14,25t-45,9l-18,0l0,23q0,23 2,23l10,1q10,1 28,2t37,2q17,1 36,2t29,3t11,1l3,0l0,-40q0,-38 1,-38t5,5t12,15t19,18t29,19t38,16q20,5 51,5q15,0 28,-2t23,-6t19,-8t15,-9t11,-11t9,-11t7,-11t4,-10t3,-8l2,-5l3,4q3,4 6,8t9,11t13,13t15,13t20,12t23,10t26,7t31,3q126,0 137,-113q1,-7 1,-139l0,-86q0,-38 2,-45t11,-10q21,-3 49,-3l16,0l0,-46l-8,0l-23,1q-24,1 -51,1t-38,1q-103,0 -112,-3l-8,0l0,46l16,0q61,0 61,16q1,2 1,138q-1,135 -2,143q-6,28 -20,42t-24,17t-26,2q-45,0 -79,-34q-27,-27 -34,-55t-8,-83l0,-64l0,-60q0,-30 1,-40t3,-13t9,-6q21,-3 49,-3l16,0l0,-46l-8,0l-24,1q-23,1 -50,1t-38,1q-103,0 -112,-3l-8,0l0,46l16,0q61,0 61,16q1,2 1,138q-1,135 -2,143q-6,28 -20,42t-24,17t-26,2q-45,0 -79,-34q-27,-27 -34,-55t-8,-83l0,-64l0,-60q0,-30 1,-40t3,-13t9,-6q21,-3 49,-3l16,0l0,-46l-8,0l-23,1q-24,1 -51,1t-38,1q-103,0 -112,-3l-8,0l0,46l16,0z"/>
         <path id="svg_369" stroke-width="10" d="m27,422q53,4 82,56t32,122l0,15l40,0l0,-184l135,0l0,-46l-135,0l0,-144q1,-125 1,-141t7,-32q14,-39 49,-39q44,0 54,71q1,8 1,46l0,35l40,0l0,-35l0,-12q0,-77 -42,-117q-27,-27 -70,-27q-34,0 -59,12t-38,31t-19,35t-7,32q-1,7 -1,148l0,137l-79,0l0,37l9,0z"/>
         <path id="svg_368" stroke-width="10"/>
         <path id="svg_367" stroke-width="10" d="m66,637q-12,0 -17,0t-10,1t-7,3t-2,6t3,17t9,18q2,1 14,1q48,-3 109,-3q123,0 141,3l10,0q6,-6 6,-9t-2,-18q-4,-13 -10,-19l-12,0q-56,0 -56,-13q0,-5 50,-147t51,-144l3,3q4,4 12,13t21,24t32,37t43,51q92,107 107,126t16,31q0,16 -32,19q-17,0 -17,10q0,2 2,14q3,15 5,18t14,4q2,0 29,-1t79,-2q27,0 56,1t33,1q17,0 17,-9q0,-4 -3,-16t-5,-14q-2,-6 -21,-6q-72,-5 -117,-50q-9,-9 -140,-163l-129,-151l-26,-104q-27,-107 -27,-112q0,-11 68,-11q16,0 21,-1t6,-10q0,-2 -2,-12q-4,-17 -6,-19t-16,-3q-5,0 -42,0t-92,1q-62,0 -94,0t-36,-1q-18,0 -18,8q0,5 3,15q1,3 2,6t1,5t1,4t2,3t3,2t5,1t6,0t9,1t13,0q39,1 51,4t18,13q3,5 29,108l25,103l-123,349q-1,1 -2,2t-2,2t-3,2t-4,2t-5,2t-8,1t-9,1t-13,1t-17,1z"/>
         <path id="svg_366" stroke-width="10" d="m42,0l-2,0q-14,0 -14,11q0,4 3,16q4,14 7,16t19,3q86,3 135,52q10,10 116,126t105,118q-109,278 -114,283q-9,11 -63,12l-28,0q-6,6 -6,8t2,19q4,13 10,19l14,0q34,-2 121,-2q33,0 61,0t45,1t20,0q17,0 17,-11q0,-1 -2,-13q-4,-15 -7,-18t-16,-3q-31,-3 -54,-17l77,-194l53,59q105,113 105,125q0,18 -24,25q-5,0 -13,2q-15,0 -15,11q0,2 2,16q4,13 10,19l12,0q1,0 25,0t54,-2t41,-1q90,0 99,3l8,0q7,-7 7,-11q-2,-25 -12,-35l-16,0q-34,-1 -61,-9t-41,-17t-24,-18l-11,-9q0,1 -95,-104l-87,-96q0,-1 31,-80t65,-162t37,-86q10,-9 61,-10q35,0 35,-9q0,-2 -2,-14q-4,-16 -7,-19t-14,-3q-3,0 -33,0t-89,1q-61,0 -93,0t-35,-1q-17,0 -17,9q0,1 2,15q2,10 4,14t5,5t9,2t16,1t26,7q17,8 17,10q-1,0 -47,117l-47,118q-188,-204 -193,-215q-4,-8 -4,-12q0,-19 29,-25q1,0 6,0t6,-1q3,0 4,0t3,-1t3,-3t1,-7q0,-9 -2,-16q-3,-13 -6,-15t-15,-3q-3,0 -18,0t-42,1t-59,0q-78,0 -100,-2z"/>
         <path id="svg_365" stroke-width="10" d="m52,289q7,42 54,97t116,56q35,0 64,-18t43,-45q42,63 101,63q37,0 64,-22t28,-59q0,-29 -14,-47t-27,-22t-23,-4q-19,0 -31,11t-12,29q0,46 50,63q-11,13 -40,13q-13,0 -19,-2q-38,-16 -56,-66q-60,-221 -60,-258q0,-28 16,-40t35,-12q37,0 73,33t49,81q3,10 6,11t16,2l4,0q15,0 15,-8q0,-1 -2,-11q-16,-57 -62,-101t-107,-44q-70,0 -106,63q-41,-62 -94,-62l-6,0q-49,0 -70,26t-22,55q0,32 19,52t45,20q43,0 43,-42q0,-20 -12,-35t-23,-20t-13,-5l-3,-1q0,-1 6,-4t16,-7t19,-3q36,0 62,45q9,16 23,68t28,108t16,66q5,27 5,39q0,28 -15,40t-34,12q-40,0 -75,-32t-49,-82q-2,-9 -5,-10t-16,-2l-14,0q-6,6 -6,11z"/>
         <path id="svg_357" stroke-width="10" d="m56,347q0,13 14,20l637,0q15,-8 15,-20q0,-11 -14,-19l-318,-1l-318,0q-16,5 -16,20zm0,-194q0,15 16,20l636,0q14,-10 14,-20q0,-13 -15,-20l-637,0q-14,7 -14,20z"/>
         <path id="svg_363" stroke-width="10" d="m56,237t0,13t14,20l299,0l0,150l1,150q10,13 19,13q13,0 20,-15l0,-298l298,0q15,-8 15,-20t-15,-20l-298,0l0,-298q-8,-14 -18,-14l-2,0l-2,0q-12,0 -18,14l0,298l-299,0q-14,7 -14,20l0,-13z"/>
         <path id="svg_359" stroke-width="10" d="m21,287q0,14 15,48t48,71t74,36q41,0 66,-23t26,-64q-2,-19 -3,-21q0,-3 -16,-46t-33,-97t-16,-86q0,-43 14,-60t42,-18q23,0 43,11t31,23t27,33q0,1 5,20t14,59t19,74q38,150 42,157q13,27 43,27q13,0 21,-7t11,-12t2,-9q0,-13 -49,-210t-56,-216q-28,-83 -97,-132t-138,-50q-45,0 -79,22t-34,66q0,22 7,37t19,22t20,10t17,3q44,0 44,-42q0,-20 -12,-35t-23,-20t-13,-5l-3,-1q2,-5 19,-12t34,-7l8,0q17,0 26,2q33,9 61,38t43,62t23,56t8,30l-6,-4q-6,-4 -19,-11t-26,-12q-20,-5 -39,-5q-46,0 -81,22t-46,71q-1,7 -1,31q0,57 35,149t35,117q0,1 0,2q0,9 0,12t-4,7t-11,4l-4,0q-23,0 -42,-19t-30,-41t-17,-42t-8,-22q-2,-2 -16,-2l-14,0q-6,6 -6,9z"/>
         <path id="svg_361" stroke-width="10" d="m109,429q-27,0 -43,18t-16,44q0,71 53,123t132,52q91,0 152,-56t62,-145q0,-43 -20,-82t-48,-68t-80,-74q-36,-31 -100,-92l-59,-56l76,-1q157,0 167,5q7,2 24,89l0,3l40,0l0,-3q-1,-3 -13,-91t-15,-92l0,-3l-371,0l0,19l0,12q0,7 6,15t30,35q29,32 50,56q9,10 34,37t34,37t29,33t28,34t23,30t21,32t15,29t13,32t7,30t3,33q0,63 -34,109t-97,46q-33,0 -58,-17t-35,-33t-10,-19q0,-1 5,-1q18,0 37,-14t19,-46q0,-25 -16,-42t-45,-18z"/>
         <path id="svg_355" stroke-width="10" d="m42,313q0,163 81,258t180,95q69,0 99,-36t30,-80q0,-25 -14,-40t-39,-15q-23,0 -38,14t-15,39q0,44 47,53q-22,22 -62,25q-71,0 -117,-60q-47,-66 -47,-202l1,-4q5,6 8,13q41,60 107,60l4,0q46,0 81,-19q24,-14 48,-40t39,-57q21,-49 21,-107l0,-18q0,-23 -5,-43q-11,-59 -64,-115t-134,-56q-28,0 -54,8t-56,30t-51,59t-36,97t-14,141zm215,84q-30,0 -52,-17t-34,-45t-17,-57t-6,-62q0,-83 12,-119t38,-58q24,-18 53,-18q51,0 78,38q13,18 18,45t5,105q0,80 -5,107t-18,45q-27,36 -72,36z"/>
        </defs>
        <g stroke="rgb(68, 68, 68)" fill="rgb(68, 68, 68)" stroke-width="0" transform="matrix(1 0 0 -1 0 0)" id="svg_353">
         <use xlink:href="#svg_365" id="svg_364"/>
         <use xlink:href="#svg_363" x="799" y="0" id="svg_362"/>
         <use xlink:href="#svg_361" x="1804" y="0" id="svg_360"/>
         <use xlink:href="#svg_359" x="2309" y="0" id="svg_358"/>
         <use xlink:href="#svg_357" x="3089" y="0" id="svg_356"/>
         <use xlink:href="#svg_355" x="4150" y="0" id="svg_354"/>
        </g>
       </svg>
      </g>
     </g>
    </svg>
   </g>
  </g>
 </g>
</svg>