<?xml version="1.0"?>
<svg width="766" height="411" xmlns="http://www.w3.org/2000/svg" xmlns:svg="http://www.w3.org/2000/svg" class="main-svg">
 <defs>
  <g id="svg_2" class="clips">
   <clipPath id="clip1cce2cx" class="axesclip">
    <rect id="svg_3" height="411" width="766" y="0" x="0"/>
   </clipPath>
   <clipPath id="clip1cce2cy" class="axesclip">
    <rect id="svg_4" height="411" width="766" y="0" x="0"/>
   </clipPath>
   <clipPath id="clip1cce2cxy" class="axesclip">
    <rect id="svg_5" height="411" width="766" y="0" x="0"/>
   </clipPath>
  </g>
 </defs>
 <g>
  <title>Layer 1</title>
  <rect id="svg_6" fill="rgb(0, 0, 0)" fill-opacity="0" height="411" width="766" y="0" x="0"/>
  <g id="svg_7" class="draglayer">
   <g id="svg_8"/>
  </g>
  <g id="svg_9" class="subplot xy">
   <rect id="svg_10" stroke-width="0px" fill="rgb(255, 255, 255)" height="411" width="766" y="0" x="0"/>
   <g id="svg_11">
    <path id="svg_12" stroke="rgb(238, 238, 238)" stroke-width="1px" d="m42.049999,0l0,411" class="xgrid crisp"/>
    <path id="svg_13" stroke="rgb(238, 238, 238)" stroke-width="1px" d="m100.080002,0l0,411" class="xgrid crisp"/>
    <path id="svg_14" stroke="rgb(238, 238, 238)" stroke-width="1px" d="m158.119995,0l0,411" class="xgrid crisp"/>
    <path id="svg_15" stroke="rgb(238, 238, 238)" stroke-width="1px" d="m216.149994,0l0,411" class="xgrid crisp"/>
    <path id="svg_16" stroke="rgb(238, 238, 238)" stroke-width="1px" d="m274.190002,0l0,411" class="xgrid crisp"/>
    <path id="svg_17" stroke="rgb(238, 238, 238)" stroke-width="1px" d="m390.25,0l0,411" class="xgrid crisp"/>
    <path id="svg_18" stroke="rgb(238, 238, 238)" stroke-width="1px" d="m448.290009,0l0,411" class="xgrid crisp"/>
    <path id="svg_19" stroke="rgb(238, 238, 238)" stroke-width="1px" d="m506.320007,0l0,411" class="xgrid crisp"/>
    <path id="svg_20" stroke="rgb(238, 238, 238)" stroke-width="1px" d="m564.359985,0l0,411" class="xgrid crisp"/>
    <path id="svg_21" stroke="rgb(238, 238, 238)" stroke-width="1px" d="m622.390015,0l0,411" class="xgrid crisp"/>
    <path id="svg_22" stroke="rgb(238, 238, 238)" stroke-width="1px" d="m680.419983,0l0,411" class="xgrid crisp"/>
    <path id="svg_23" stroke="rgb(238, 238, 238)" stroke-width="1px" d="m738.460022,0l0,411" class="xgrid crisp"/>
    <path id="svg_24" stroke="rgb(238, 238, 238)" stroke-width="1px" d="m0,386.700012l766,0" class="ygrid crisp"/>
    <path id="svg_25" stroke="rgb(238, 238, 238)" stroke-width="1px" d="m0,326.299988l766,0" class="ygrid crisp"/>
    <path id="svg_26" stroke="rgb(238, 238, 238)" stroke-width="1px" d="m0,205.5l766,0" class="ygrid crisp"/>
    <path id="svg_27" stroke="rgb(238, 238, 238)" stroke-width="1px" d="m0,145.100006l766,0" class="ygrid crisp"/>
    <path id="svg_28" stroke="rgb(238, 238, 238)" stroke-width="1px" d="m0,84.699997l766,0" class="ygrid crisp"/>
    <path id="svg_29" stroke="rgb(238, 238, 238)" stroke-width="1px" d="m0,24.299999l766,0" class="ygrid crisp"/>
   </g>
   <g id="svg_30"/>
   <g id="svg_31">
    <path id="svg_32" stroke="rgb(68, 68, 68)" stroke-width="1px" d="m332.220001,0l0,411" class="xzl zl crisp"/>
    <path id="svg_33" stroke="rgb(68, 68, 68)" stroke-width="1px" d="m0,265.899994l766,0" class="yzl zl crisp"/>
   </g>
   <g id="svg_34"/>
   <g id="svg_1">
    <svg id="svg_35" viewBox="0 0 766 411" height="411" width="766" y="0" x="0" preserveAspectRatio="none">
     <g id="svg_36" class="maplayer"/>
     <g id="svg_37" class="barlayer"/>
     <g id="svg_38" class="errorlayer">
      <g id="svg_39" class="errorbars"/>
      <g id="svg_40" class="errorbars"/>
     </g>
     <g id="svg_41" class="boxlayer"/>
     <g id="svg_42" class="scatterlayer">
      <g id="svg_43" stroke-miterlimit="2" class="trace scatter">
       <path id="svg_44" fill="none" stroke="rgb(31, 119, 180)" stroke-width="2px" d="m42.049999,275.970001l72.539997,2.649994l14.51001,0.700012l58.039993,3.839996l14.5,1.320007l29.020004,3.379974l14.509995,2.200012l29.020004,6.040009l14.5,4.309998l14.51001,5.76001l14.509979,8.049988l14.51001,12.079987l14.51001,20.130005l14.509979,40.27002" class="js-line"/>
       <g id="svg_45" class="points">
        <path id="svg_46" stroke-width="0px" fill="rgb(31, 119, 180)" d="m45.049999,275.970001a3,3 0 1 1 -3,-3a3,3 0 0 1 3,3z" class="point"/>
        <path id="svg_47" stroke-width="0px" fill="rgb(31, 119, 180)" d="m59.560001,276.399994a3,3 0 1 1 -3,-3a3,3 0 0 1 3,3z" class="point"/>
        <path id="svg_48" stroke-width="0px" fill="rgb(31, 119, 180)" d="m74.07,276.880005a3,3 0 1 1 -3,-3a3,3 0 0 1 3,3z" class="point"/>
        <path id="svg_49" stroke-width="0px" fill="rgb(31, 119, 180)" d="m88.580002,277.399994a3,3 0 1 1 -3,-3a3,3 0 0 1 3,3z" class="point"/>
        <path id="svg_50" stroke-width="0px" fill="rgb(31, 119, 180)" d="m103.080002,277.980011a3,3 0 1 1 -3,-3a3,3 0 0 1 3,3z" class="point"/>
        <path id="svg_51" stroke-width="0px" fill="rgb(31, 119, 180)" d="m117.589996,278.619995a3,3 0 1 1 -3,-3a3,3 0 0 1 3,3z" class="point"/>
        <path id="svg_52" stroke-width="0px" fill="rgb(31, 119, 180)" d="m132.100006,279.320007a3,3 0 1 1 -3,-3a3,3 0 0 1 3,3z" class="point"/>
        <path id="svg_53" stroke-width="0px" fill="rgb(31, 119, 180)" d="m146.610001,280.109985a3,3 0 1 1 -3,-3a3,3 0 0 1 3,3z" class="point"/>
        <path id="svg_54" stroke-width="0px" fill="rgb(31, 119, 180)" d="m161.119995,281a3,3 0 1 1 -3,-3a3,3 0 0 1 3,3z" class="point"/>
        <path id="svg_55" stroke-width="0px" fill="rgb(31, 119, 180)" d="m175.630005,282.01001a3,3 0 1 1 -3,-3a3,3 0 0 1 3,3z" class="point"/>
        <path id="svg_56" stroke-width="0px" fill="rgb(31, 119, 180)" d="m190.139999,283.160004a3,3 0 1 1 -3,-3a3,3 0 0 1 3,3z" class="point"/>
        <path id="svg_57" stroke-width="0px" fill="rgb(31, 119, 180)" d="m204.639999,284.480011a3,3 0 1 1 -3,-3a3,3 0 0 1 3,3z" class="point"/>
        <path id="svg_58" stroke-width="0px" fill="rgb(31, 119, 180)" d="m219.149994,286.029999a3,3 0 1 1 -3,-3a3,3 0 0 1 3,3z" class="point"/>
        <path id="svg_59" stroke-width="0px" fill="rgb(31, 119, 180)" d="m233.660004,287.859985a3,3 0 1 1 -3,-3a3,3 0 0 1 3,3z" class="point"/>
        <path id="svg_60" stroke-width="0px" fill="rgb(31, 119, 180)" d="m248.169998,290.059998a3,3 0 1 1 -3,-3a3,3 0 0 1 3,3z" class="point"/>
        <path id="svg_61" stroke-width="0px" fill="rgb(31, 119, 180)" d="m262.679993,292.73999a3,3 0 1 1 -3,-3a3,3 0 0 1 3,3z" class="point"/>
        <path id="svg_62" stroke-width="0px" fill="rgb(31, 119, 180)" d="m277.190002,296.100006a3,3 0 1 1 -3,-3a3,3 0 0 1 3,3z" class="point"/>
        <path id="svg_63" stroke-width="0px" fill="rgb(31, 119, 180)" d="m291.690002,300.410004a3,3 0 1 1 -3,-3a3,3 0 0 1 3,3z" class="point"/>
        <path id="svg_64" stroke-width="0px" fill="rgb(31, 119, 180)" d="m306.200012,306.170013a3,3 0 1 1 -3,-3a3,3 0 0 1 3,3z" class="point"/>
        <path id="svg_65" stroke-width="0px" fill="rgb(31, 119, 180)" d="m320.709991,314.220001a3,3 0 1 1 -3,-3a3,3 0 0 1 3,3z" class="point"/>
        <path id="svg_66" stroke-width="0px" fill="rgb(31, 119, 180)" d="m335.220001,326.299988a3,3 0 1 1 -3,-3a3,3 0 0 1 3,3z" class="point"/>
        <path id="svg_67" stroke-width="0px" fill="rgb(31, 119, 180)" d="m349.730011,346.429993a3,3 0 1 1 -3,-3a3,3 0 0 1 3,3z" class="point"/>
        <path id="svg_68" stroke-width="0px" fill="rgb(31, 119, 180)" d="m364.23999,386.700012a3,3 0 1 1 -3,-3a3,3 0 0 1 3,3z" class="point"/>
       </g>
      </g>
      <g id="svg_69" stroke-miterlimit="2" class="trace scatter">
       <path id="svg_70" fill="none" stroke="rgb(255, 127, 14)" stroke-width="2px" d="m404.76001,24.299999l14.509979,120.800007l14.51001,40.269989l14.51001,20.130005l14.509979,12.080002l14.51001,8.050003l14.5,5.759995l14.51001,4.309998l14.51001,3.360001l29.019958,4.880005l14.51001,1.830002l43.52002,4.019989l14.51001,1.01001l58.029968,3.020004l14.51001,0.579987l29.02002,1" class="js-line"/>
       <g id="svg_71" class="points">
        <path id="svg_72" stroke-width="0px" fill="rgb(255, 127, 14)" d="m407.76001,24.299999a3,3 0 1 1 -3,-3a3,3 0 0 1 3,3z" class="point"/>
        <path id="svg_73" stroke-width="0px" fill="rgb(255, 127, 14)" d="m422.269989,145.100006a3,3 0 1 1 -3,-3a3,3 0 0 1 3,3z" class="point"/>
        <path id="svg_74" stroke-width="0px" fill="rgb(255, 127, 14)" d="m436.779999,185.369995a3,3 0 1 1 -3,-3a3,3 0 0 1 3,3z" class="point"/>
        <path id="svg_75" stroke-width="0px" fill="rgb(255, 127, 14)" d="m451.290009,205.5a3,3 0 1 1 -3,-3a3,3 0 0 1 3,3z" class="point"/>
        <path id="svg_76" stroke-width="0px" fill="rgb(255, 127, 14)" d="m465.799988,217.580002a3,3 0 1 1 -3,-3a3,3 0 0 1 3,3z" class="point"/>
        <path id="svg_77" stroke-width="0px" fill="rgb(255, 127, 14)" d="m480.309998,225.630005a3,3 0 1 1 -3,-3a3,3 0 0 1 3,3z" class="point"/>
        <path id="svg_78" stroke-width="0px" fill="rgb(255, 127, 14)" d="m494.809998,231.389999a3,3 0 1 1 -3,-3a3,3 0 0 1 3,3z" class="point"/>
        <path id="svg_79" stroke-width="0px" fill="rgb(255, 127, 14)" d="m509.320007,235.699997a3,3 0 1 1 -3,-3a3,3 0 0 1 3,3z" class="point"/>
        <path id="svg_80" stroke-width="0px" fill="rgb(255, 127, 14)" d="m523.830017,239.059998a3,3 0 1 1 -3,-3a3,3 0 0 1 3,3z" class="point"/>
        <path id="svg_81" stroke-width="0px" fill="rgb(255, 127, 14)" d="m538.340027,241.740005a3,3 0 1 1 -3,-3a3,3 0 0 1 3,3z" class="point"/>
        <path id="svg_82" stroke-width="0px" fill="rgb(255, 127, 14)" d="m552.849976,243.940002a3,3 0 1 1 -3,-3a3,3 0 0 1 3,3z" class="point"/>
        <path id="svg_83" stroke-width="0px" fill="rgb(255, 127, 14)" d="m567.359985,245.770004a3,3 0 1 1 -3,-3a3,3 0 0 1 3,3z" class="point"/>
        <path id="svg_84" stroke-width="0px" fill="rgb(255, 127, 14)" d="m581.859985,247.320007a3,3 0 1 1 -3,-3a3,3 0 0 1 3,3z" class="point"/>
        <path id="svg_85" stroke-width="0px" fill="rgb(255, 127, 14)" d="m596.369995,248.639999a3,3 0 1 1 -3,-3a3,3 0 0 1 3,3z" class="point"/>
        <path id="svg_86" stroke-width="0px" fill="rgb(255, 127, 14)" d="m610.880005,249.789993a3,3 0 1 1 -3,-3a3,3 0 0 1 3,3z" class="point"/>
        <path id="svg_87" stroke-width="0px" fill="rgb(255, 127, 14)" d="m625.390015,250.800003a3,3 0 1 1 -3,-3a3,3 0 0 1 3,3z" class="point"/>
        <path id="svg_88" stroke-width="0px" fill="rgb(255, 127, 14)" d="m639.900024,251.690002a3,3 0 1 1 -3,-3a3,3 0 0 1 3,3z" class="point"/>
        <path id="svg_89" stroke-width="0px" fill="rgb(255, 127, 14)" d="m654.409973,252.479996a3,3 0 1 1 -3,-3a3,3 0 0 1 3,3z" class="point"/>
        <path id="svg_90" stroke-width="0px" fill="rgb(255, 127, 14)" d="m668.919983,253.179993a3,3 0 1 1 -3,-3a3,3 0 0 1 3,3z" class="point"/>
        <path id="svg_91" stroke-width="0px" fill="rgb(255, 127, 14)" d="m683.419983,253.820007a3,3 0 1 1 -3,-3a3,3 0 0 1 3,3z" class="point"/>
        <path id="svg_92" stroke-width="0px" fill="rgb(255, 127, 14)" d="m697.929993,254.399994a3,3 0 1 1 -3,-3a3,3 0 0 1 3,3z" class="point"/>
        <path id="svg_93" stroke-width="0px" fill="rgb(255, 127, 14)" d="m712.440002,254.919998a3,3 0 1 1 -3,-3a3,3 0 0 1 3,3z" class="point"/>
        <path id="svg_94" stroke-width="0px" fill="rgb(255, 127, 14)" d="m726.950012,255.399994a3,3 0 1 1 -3,-3a3,3 0 0 1 3,3z" class="point"/>
       </g>
      </g>
     </g>
    </svg>
   </g>
   <g id="svg_95"/>
   <path id="svg_96" fill="none" stroke-width="1px" stroke="rgb(0, 0, 0)" stroke-opacity="0" d="m-1,411.5l768,0" class="crisp"/>
   <path id="svg_97" fill="none" stroke="rgb(0, 0, 0)" stroke-opacity="0" stroke-width="1px" d="m-0.5,-1l0,412" class="crisp"/>
   <g id="svg_98"/>
   <g id="svg_99">
    <g id="svg_100" class="xtick">
     <text id="svg_101" font-family="&#x27;Open sans', verdana, arial, sans-serif" font-size="12px" fill="rgb(68, 68, 68)" y="425" x="42.049999" text-anchor="middle">−5</text>
    </g>
    <g id="svg_102" class="xtick">
     <text id="svg_103" font-family="&#x27;Open sans', verdana, arial, sans-serif" font-size="12px" fill="rgb(68, 68, 68)" y="425" x="100.080002" text-anchor="middle">−4</text>
    </g>
    <g id="svg_104" class="xtick">
     <text id="svg_105" font-family="&#x27;Open sans', verdana, arial, sans-serif" font-size="12px" fill="rgb(68, 68, 68)" y="425" x="158.119995" text-anchor="middle">−3</text>
    </g>
    <g id="svg_106" class="xtick">
     <text id="svg_107" font-family="&#x27;Open sans', verdana, arial, sans-serif" font-size="12px" fill="rgb(68, 68, 68)" y="425" x="216.149994" text-anchor="middle">−2</text>
    </g>
    <g id="svg_108" class="xtick">
     <text id="svg_109" font-family="&#x27;Open sans', verdana, arial, sans-serif" font-size="12px" fill="rgb(68, 68, 68)" y="425" x="274.190002" text-anchor="middle">−1</text>
    </g>
    <g id="svg_110" class="xtick">
     <text id="svg_111" font-family="&#x27;Open sans', verdana, arial, sans-serif" font-size="12px" fill="rgb(68, 68, 68)" y="425" x="332.220001" text-anchor="middle">0</text>
    </g>
    <g id="svg_112" class="xtick">
     <text id="svg_113" font-family="&#x27;Open sans', verdana, arial, sans-serif" font-size="12px" fill="rgb(68, 68, 68)" y="425" x="390.25" text-anchor="middle">1</text>
    </g>
    <g id="svg_114" class="xtick">
     <text id="svg_115" font-family="&#x27;Open sans', verdana, arial, sans-serif" font-size="12px" fill="rgb(68, 68, 68)" y="425" x="448.290009" text-anchor="middle">2</text>
    </g>
    <g id="svg_116" class="xtick">
     <text id="svg_117" font-family="&#x27;Open sans', verdana, arial, sans-serif" font-size="12px" fill="rgb(68, 68, 68)" y="425" x="506.320007" text-anchor="middle">3</text>
    </g>
    <g id="svg_118" class="xtick">
     <text id="svg_119" font-family="&#x27;Open sans', verdana, arial, sans-serif" font-size="12px" fill="rgb(68, 68, 68)" y="425" x="564.359985" text-anchor="middle">4</text>
    </g>
    <g id="svg_120" class="xtick">
     <text id="svg_121" font-family="&#x27;Open sans', verdana, arial, sans-serif" font-size="12px" fill="rgb(68, 68, 68)" y="425" x="622.390015" text-anchor="middle">5</text>
    </g>
    <g id="svg_122" class="xtick">
     <text id="svg_123" font-family="&#x27;Open sans', verdana, arial, sans-serif" font-size="12px" fill="rgb(68, 68, 68)" y="425" x="680.419983" text-anchor="middle">6</text>
    </g>
    <g id="svg_124" class="xtick">
     <text id="svg_125" font-family="&#x27;Open sans', verdana, arial, sans-serif" font-size="12px" fill="rgb(68, 68, 68)" y="425" x="738.460022" text-anchor="middle">7</text>
    </g>
   </g>
   <g id="svg_126">
    <g id="svg_127" class="ytick">
     <text id="svg_128" font-family="&#x27;Open sans', verdana, arial, sans-serif" font-size="12px" fill="rgb(68, 68, 68)" y="392.700012" x="-2" text-anchor="end">−2</text>
    </g>
    <g id="svg_129" class="ytick">
     <text id="svg_130" font-family="&#x27;Open sans', verdana, arial, sans-serif" font-size="12px" fill="rgb(68, 68, 68)" y="332.299988" x="-2" text-anchor="end">−1</text>
    </g>
    <g id="svg_131" class="ytick">
     <text id="svg_132" font-family="&#x27;Open sans', verdana, arial, sans-serif" font-size="12px" fill="rgb(68, 68, 68)" y="271.899994" x="-2" text-anchor="end">0</text>
    </g>
    <g id="svg_133" class="ytick">
     <text id="svg_134" font-family="&#x27;Open sans', verdana, arial, sans-serif" font-size="12px" fill="rgb(68, 68, 68)" y="211.5" x="-2" text-anchor="end">1</text>
    </g>
    <g id="svg_135" class="ytick">
     <text id="svg_136" font-family="&#x27;Open sans', verdana, arial, sans-serif" font-size="12px" fill="rgb(68, 68, 68)" y="151.100006" x="-2" text-anchor="end">2</text>
    </g>
    <g id="svg_137" class="ytick">
     <text id="svg_138" font-family="&#x27;Open sans', verdana, arial, sans-serif" font-size="12px" fill="rgb(68, 68, 68)" y="90.699997" x="-2" text-anchor="end">3</text>
    </g>
    <g id="svg_139" class="ytick">
     <text id="svg_140" font-family="&#x27;Open sans', verdana, arial, sans-serif" font-size="12px" fill="rgb(68, 68, 68)" y="30.299999" x="-2" text-anchor="end">4</text>
    </g>
   </g>
   <g id="svg_141"/>
  </g>
  <g id="svg_142" class="shapelayer"/>
  <g id="svg_143" class="glimages"/>
  <text id="svg_144" font-family="&#x27;Open Sans', Arial, sans-serif" font-size="12px" fill="rgb(68, 68, 68)" x="759" text-anchor="end" y="402" class="js-plot-link-container"/>
  <g id="svg_145" class="infolayer">
   <g id="svg_146" class="g-gtitle"/>
   <g id="svg_147" class="g-xtitle"/>
   <g id="svg_148" class="g-ytitle"/>
  </g>
 </g>
</svg>