<?xml version="1.0"?>
<svg width="766" height="411" xmlns="http://www.w3.org/2000/svg" xmlns:svg="http://www.w3.org/2000/svg" class="main-svg">
 <defs>
  <g id="svg_2" class="clips">
   <clipPath id="clip7a241dx" class="axesclip">
    <rect id="svg_3" height="411" width="766" y="0" x="0"/>
   </clipPath>
   <clipPath id="clip7a241dy" class="axesclip">
    <rect id="svg_4" height="411" width="766" y="0" x="0"/>
   </clipPath>
   <clipPath id="clip7a241dxy" class="axesclip">
    <rect id="svg_5" height="411" width="766" y="0" x="0"/>
   </clipPath>
  </g>
 </defs>
 <g>
  <title>Layer 1</title>
  <rect id="svg_6" fill="rgb(0, 0, 0)" fill-opacity="0" height="411" width="766" y="0" x="0"/>
  <g id="svg_7" class="draglayer">
   <g id="svg_8"/>
  </g>
  <g id="svg_9" class="subplot xy">
   <rect id="svg_10" stroke-width="0px" fill="rgb(0, 0, 0)" fill-opacity="0" height="411" width="766" y="0" x="0"/>
   <g id="svg_11">
    <path id="svg_12" stroke="rgb(238, 238, 238)" stroke-width="1px" d="m111.239998,0l0,411" class="xgrid crisp"/>
    <path id="svg_13" stroke="rgb(238, 238, 238)" stroke-width="1px" d="m247.119995,0l0,411" class="xgrid crisp"/>
    <path id="svg_14" stroke="rgb(238, 238, 238)" stroke-width="1px" d="m518.880005,0l0,411" class="xgrid crisp"/>
    <path id="svg_15" stroke="rgb(238, 238, 238)" stroke-width="1px" d="m654.76001,0l0,411" class="xgrid crisp"/>
    <path id="svg_16" stroke="rgb(238, 238, 238)" stroke-width="1px" d="m0,349.459991l766,0" class="ygrid crisp"/>
    <path id="svg_17" stroke="rgb(238, 238, 238)" stroke-width="1px" d="m0,277.480011l766,0" class="ygrid crisp"/>
    <path id="svg_18" stroke="rgb(238, 238, 238)" stroke-width="1px" d="m0,133.520004l766,0" class="ygrid crisp"/>
    <path id="svg_19" stroke="rgb(238, 238, 238)" stroke-width="1px" d="m0,61.540001l766,0" class="ygrid crisp"/>
   </g>
   <g id="svg_20"/>
   <g id="svg_21">
    <path id="svg_22" stroke="rgb(68, 68, 68)" stroke-width="1px" d="m383,0l0,411" class="xzl zl crisp"/>
    <path id="svg_23" stroke="rgb(68, 68, 68)" stroke-width="1px" d="m0,205.5l766,0" class="yzl zl crisp"/>
   </g>
   <g id="svg_24"/>
   <g id="svg_1">
    <svg id="svg_25" viewBox="0 0 766 411" height="411" width="766" y="0" x="0" preserveAspectRatio="none">
     <g id="svg_26" class="maplayer"/>
     <g id="svg_27" class="barlayer"/>
     <g id="svg_28" class="errorlayer">
      <g id="svg_29" class="errorbars"/>
     </g>
     <g id="svg_30" class="boxlayer"/>
     <g id="svg_31" class="scatterlayer">
      <g id="svg_32" stroke-miterlimit="2" class="trace scatter">
       <path id="svg_33" fill="none" stroke="rgb(31, 119, 180)" stroke-width="2px" d="m43.299999,385.450012l679.400013,-359.900013" class="js-line"/>
       <g id="svg_34" class="points">
        <path id="svg_35" stroke-width="0px" fill="rgb(31, 119, 180)" d="m47.299999,385.450012a4,4 0 1 1 -4,-4a4,4 0 0 1 4,4z" class="point"/>
        <path id="svg_36" stroke-width="0px" fill="rgb(31, 119, 180)" d="m81.269997,367.459991a4,4 0 1 1 -4,-4a4,4 0 0 1 4,4z" class="point"/>
        <path id="svg_37" stroke-width="0px" fill="rgb(31, 119, 180)" d="m115.239998,349.459991a4,4 0 1 1 -4,-4a4,4 0 0 1 4,4z" class="point"/>
        <path id="svg_38" stroke-width="0px" fill="rgb(31, 119, 180)" d="m149.210007,331.470001a4,4 0 1 1 -4,-4a4,4 0 0 1 4,4z" class="point"/>
        <path id="svg_39" stroke-width="0px" fill="rgb(31, 119, 180)" d="m183.179993,313.470001a4,4 0 1 1 -4,-4a4,4 0 0 1 4,4z" class="point"/>
        <path id="svg_40" stroke-width="0px" fill="rgb(31, 119, 180)" d="m217.149994,295.480011a4,4 0 1 1 -4,-4a4,4 0 0 1 4,4z" class="point"/>
        <path id="svg_41" stroke-width="0px" fill="rgb(31, 119, 180)" d="m251.119995,277.480011a4,4 0 1 1 -4,-4a4,4 0 0 1 4,4z" class="point"/>
        <path id="svg_42" stroke-width="0px" fill="rgb(31, 119, 180)" d="m285.089996,259.48999a4,4 0 1 1 -4,-4a4,4 0 0 1 4,4z" class="point"/>
        <path id="svg_43" stroke-width="0px" fill="rgb(31, 119, 180)" d="m319.059998,241.490005a4,4 0 1 1 -4,-4a4,4 0 0 1 4,4z" class="point"/>
        <path id="svg_44" stroke-width="0px" fill="rgb(31, 119, 180)" d="m353.029999,223.5a4,4 0 1 1 -4,-4a4,4 0 0 1 4,4z" class="point"/>
        <path id="svg_45" stroke-width="0px" fill="rgb(31, 119, 180)" d="m387,205.5a4,4 0 1 1 -4,-4a4,4 0 0 1 4,4z" class="point"/>
        <path id="svg_46" stroke-width="0px" fill="rgb(31, 119, 180)" d="m420.970001,187.509995a4,4 0 1 1 -4,-4a4,4 0 0 1 4,4z" class="point"/>
        <path id="svg_47" stroke-width="0px" fill="rgb(31, 119, 180)" d="m454.940002,169.509995a4,4 0 1 1 -4,-4a4,4 0 0 1 4,4z" class="point"/>
        <path id="svg_48" stroke-width="0px" fill="rgb(31, 119, 180)" d="m488.910004,151.509995a4,4 0 1 1 -4,-4a4,4 0 0 1 4,4z" class="point"/>
        <path id="svg_49" stroke-width="0px" fill="rgb(31, 119, 180)" d="m522.880005,133.520004a4,4 0 1 1 -4,-4a4,4 0 0 1 4,4z" class="point"/>
        <path id="svg_50" stroke-width="0px" fill="rgb(31, 119, 180)" d="m556.849976,115.529999a4,4 0 1 1 -4,-4a4,4 0 0 1 4,4z" class="point"/>
        <path id="svg_51" stroke-width="0px" fill="rgb(31, 119, 180)" d="m590.820007,97.529999a4,4 0 1 1 -4,-4a4,4 0 0 1 4,4z" class="point"/>
        <path id="svg_52" stroke-width="0px" fill="rgb(31, 119, 180)" d="m624.789978,79.540001a4,4 0 1 1 -4,-4a4,4 0 0 1 4,4z" class="point"/>
        <path id="svg_53" stroke-width="0px" fill="rgb(31, 119, 180)" d="m658.76001,61.540001a4,4 0 1 1 -4,-4a4,4 0 0 1 4,4z" class="point"/>
        <path id="svg_54" stroke-width="0px" fill="rgb(31, 119, 180)" d="m692.72998,43.540001a4,4 0 1 1 -4,-4a4,4 0 0 1 4,4z" class="point"/>
        <path id="svg_55" stroke-width="0px" fill="rgb(31, 119, 180)" d="m726.700012,25.549999a4,4 0 1 1 -4,-4a4,4 0 0 1 4,4z" class="point"/>
       </g>
      </g>
     </g>
    </svg>
   </g>
   <g id="svg_56"/>
   <path id="svg_57" fill="none" stroke-width="1px" stroke="rgb(0, 0, 0)" stroke-opacity="0" d="m-1,411.5l768,0" class="crisp"/>
   <path id="svg_58" fill="none" stroke="rgb(0, 0, 0)" stroke-opacity="0" stroke-width="1px" d="m-0.5,-1l0,412" class="crisp"/>
   <g id="svg_59"/>
   <g id="svg_60">
    <g id="svg_61" class="xtick">
     <text id="svg_62" font-family="&#x27;Open sans', verdana, arial, sans-serif" font-size="12px" fill="rgb(68, 68, 68)" y="425" x="111.239998" text-anchor="middle">−2</text>
    </g>
    <g id="svg_63" class="xtick">
     <text id="svg_64" font-family="&#x27;Open sans', verdana, arial, sans-serif" font-size="12px" fill="rgb(68, 68, 68)" y="425" x="247.119995" text-anchor="middle">−1</text>
    </g>
    <g id="svg_65" class="xtick">
     <text id="svg_66" font-family="&#x27;Open sans', verdana, arial, sans-serif" font-size="12px" fill="rgb(68, 68, 68)" y="425" x="383" text-anchor="middle">0</text>
    </g>
    <g id="svg_67" class="xtick">
     <text id="svg_68" font-family="&#x27;Open sans', verdana, arial, sans-serif" font-size="12px" fill="rgb(68, 68, 68)" y="425" x="518.880005" text-anchor="middle">1</text>
    </g>
    <g id="svg_69" class="xtick">
     <text id="svg_70" font-family="&#x27;Open sans', verdana, arial, sans-serif" font-size="12px" fill="rgb(68, 68, 68)" y="425" x="654.76001" text-anchor="middle">2</text>
    </g>
   </g>
   <g id="svg_71">
    <g id="svg_72" class="ytick">
     <text id="svg_73" font-family="&#x27;Open sans', verdana, arial, sans-serif" font-size="12px" fill="rgb(68, 68, 68)" y="355.459991" x="-2" text-anchor="end">−2</text>
    </g>
    <g id="svg_74" class="ytick">
     <text id="svg_75" font-family="&#x27;Open sans', verdana, arial, sans-serif" font-size="12px" fill="rgb(68, 68, 68)" y="283.480011" x="-2" text-anchor="end">−1</text>
    </g>
    <g id="svg_76" class="ytick">
     <text id="svg_77" font-family="&#x27;Open sans', verdana, arial, sans-serif" font-size="12px" fill="rgb(68, 68, 68)" y="211.5" x="-2" text-anchor="end">0</text>
    </g>
    <g id="svg_78" class="ytick">
     <text id="svg_79" font-family="&#x27;Open sans', verdana, arial, sans-serif" font-size="12px" fill="rgb(68, 68, 68)" y="139.520004" x="-2" text-anchor="end">1</text>
    </g>
    <g id="svg_80" class="ytick">
     <text id="svg_81" font-family="&#x27;Open sans', verdana, arial, sans-serif" font-size="12px" fill="rgb(68, 68, 68)" y="67.540001" x="-2" text-anchor="end">2</text>
    </g>
   </g>
   <g id="svg_82"/>
  </g>
  <g id="svg_83" class="shapelayer"/>
  <g id="svg_84" class="glimages"/>
  <text id="svg_85" font-family="&#x27;Open Sans', Arial, sans-serif" font-size="12px" fill="rgb(68, 68, 68)" x="759" text-anchor="end" y="402" class="js-plot-link-container"/>
  <g id="svg_86" class="infolayer">
   <g id="svg_87" class="g-gtitle"/>
   <g id="svg_88" class="g-xtitle"/>
   <g id="svg_89" class="g-ytitle"/>
  </g>
 </g>
</svg>