<?xml version="1.0"?>
<svg width="766" height="454" xmlns="http://www.w3.org/2000/svg" xmlns:svg="http://www.w3.org/2000/svg" class="main-svg">
 <defs>
  <g id="svg_2" class="clips">
   <clipPath id="clipbe3e23x" class="axesclip">
    <rect id="svg_3" height="454" width="766" y="0" x="0"/>
   </clipPath>
   <clipPath id="clipbe3e23y" class="axesclip">
    <rect id="svg_4" height="454" width="766" y="0" x="0"/>
   </clipPath>
   <clipPath id="clipbe3e23xy" class="axesclip">
    <rect id="svg_5" height="454" width="766" y="0" x="0"/>
   </clipPath>
  </g>
 </defs>
 <g>
  <title>Layer 1</title>
  <rect id="svg_6" fill="rgb(0, 0, 0)" fill-opacity="0" height="454" width="766" y="0" x="0"/>
  <g id="svg_7" class="draglayer">
   <g id="svg_8"/>
  </g>
  <g id="svg_9" class="subplot xy">
   <rect id="svg_10" stroke-width="0px" fill="rgb(0, 0, 0)" fill-opacity="0" height="454" width="766" y="0" x="0"/>
   <g id="svg_11">
    <path id="svg_12" stroke="rgb(238, 238, 238)" stroke-width="1px" d="m111.239998,0l0,454" class="xgrid crisp"/>
    <path id="svg_13" stroke="rgb(238, 238, 238)" stroke-width="1px" d="m247.119995,0l0,454" class="xgrid crisp"/>
    <path id="svg_14" stroke="rgb(238, 238, 238)" stroke-width="1px" d="m518.880005,0l0,454" class="xgrid crisp"/>
    <path id="svg_15" stroke="rgb(238, 238, 238)" stroke-width="1px" d="m654.76001,0l0,454" class="xgrid crisp"/>
    <path id="svg_16" stroke="rgb(238, 238, 238)" stroke-width="1px" d="m0,397.070007l766,0" class="ygrid crisp"/>
    <path id="svg_17" stroke="rgb(238, 238, 238)" stroke-width="1px" d="m0,312.029999l766,0" class="ygrid crisp"/>
    <path id="svg_18" stroke="rgb(238, 238, 238)" stroke-width="1px" d="m0,141.970001l766,0" class="ygrid crisp"/>
    <path id="svg_19" stroke="rgb(238, 238, 238)" stroke-width="1px" d="m0,56.93l766,0" class="ygrid crisp"/>
   </g>
   <g id="svg_20"/>
   <g id="svg_21">
    <path id="svg_22" stroke="rgb(68, 68, 68)" stroke-width="1px" d="m383,0l0,454" class="xzl zl crisp"/>
    <path id="svg_23" stroke="rgb(68, 68, 68)" stroke-width="1px" d="m0,227l766,0" class="yzl zl crisp"/>
   </g>
   <g id="svg_24"/>
   <g id="svg_1">
    <svg id="svg_25" viewBox="0 0 766 454" height="454" width="766" y="0" x="0" preserveAspectRatio="none">
     <g id="svg_26" class="maplayer"/>
     <g id="svg_27" class="barlayer"/>
     <g id="svg_28" class="errorlayer">
      <g id="svg_29" class="errorbars"/>
     </g>
     <g id="svg_30" class="boxlayer"/>
     <g id="svg_31" class="scatterlayer">
      <g id="svg_32" stroke-miterlimit="2" class="trace scatter">
       <path id="svg_33" fill="none" stroke="rgb(44, 160, 44)" stroke-width="2px" d="m43.299999,426.299988l33.969997,-54.009979l33.970001,-43.25l33.970009,-33.680023l33.969986,-25.309998l33.970001,-18.139984l33.970001,-12.150009l33.970001,-7.37999l33.970001,-3.790009l33.970001,-1.389999l33.970001,-0.199997l33.970001,-0.199997l33.970001,-1.389999l33.970001,-3.790009l33.970001,-7.37999l33.969971,-12.150009l33.970032,-18.139999l33.969971,-25.309998l33.970032,-33.68l33.969971,-43.25l33.970032,-54.009998" class="js-line"/>
       <g id="svg_34" class="points">
        <path id="svg_35" stroke-width="0px" fill="rgb(44, 160, 44)" d="m47.299999,426.299988a4,4 0 1 1 -4,-4a4,4 0 0 1 4,4z" class="point"/>
        <path id="svg_36" stroke-width="0px" fill="rgb(44, 160, 44)" d="m81.269997,372.290009a4,4 0 1 1 -4,-4a4,4 0 0 1 4,4z" class="point"/>
        <path id="svg_37" stroke-width="0px" fill="rgb(44, 160, 44)" d="m115.239998,329.040009a4,4 0 1 1 -4,-4a4,4 0 0 1 4,4z" class="point"/>
        <path id="svg_38" stroke-width="0px" fill="rgb(44, 160, 44)" d="m149.210007,295.359985a4,4 0 1 1 -4,-4a4,4 0 0 1 4,4z" class="point"/>
        <path id="svg_39" stroke-width="0px" fill="rgb(44, 160, 44)" d="m183.179993,270.049988a4,4 0 1 1 -4,-4a4,4 0 0 1 4,4z" class="point"/>
        <path id="svg_40" stroke-width="0px" fill="rgb(44, 160, 44)" d="m217.149994,251.910004a4,4 0 1 1 -4,-4a4,4 0 0 1 4,4z" class="point"/>
        <path id="svg_41" stroke-width="0px" fill="rgb(44, 160, 44)" d="m251.119995,239.759995a4,4 0 1 1 -4,-4a4,4 0 0 1 4,4z" class="point"/>
        <path id="svg_42" stroke-width="0px" fill="rgb(44, 160, 44)" d="m285.089996,232.380005a4,4 0 1 1 -4,-4a4,4 0 0 1 4,4z" class="point"/>
        <path id="svg_43" stroke-width="0px" fill="rgb(44, 160, 44)" d="m319.059998,228.589996a4,4 0 1 1 -4,-4a4,4 0 0 1 4,4z" class="point"/>
        <path id="svg_44" stroke-width="0px" fill="rgb(44, 160, 44)" d="m353.029999,227.199997a4,4 0 1 1 -4,-4a4,4 0 0 1 4,4z" class="point"/>
        <path id="svg_45" stroke-width="0px" fill="rgb(44, 160, 44)" d="m387,227a4,4 0 1 1 -4,-4a4,4 0 0 1 4,4z" class="point"/>
        <path id="svg_46" stroke-width="0px" fill="rgb(44, 160, 44)" d="m420.970001,226.800003a4,4 0 1 1 -4,-4a4,4 0 0 1 4,4z" class="point"/>
        <path id="svg_47" stroke-width="0px" fill="rgb(44, 160, 44)" d="m454.940002,225.410004a4,4 0 1 1 -4,-4a4,4 0 0 1 4,4z" class="point"/>
        <path id="svg_48" stroke-width="0px" fill="rgb(44, 160, 44)" d="m488.910004,221.619995a4,4 0 1 1 -4,-4a4,4 0 0 1 4,4z" class="point"/>
        <path id="svg_49" stroke-width="0px" fill="rgb(44, 160, 44)" d="m522.880005,214.240005a4,4 0 1 1 -4,-4a4,4 0 0 1 4,4z" class="point"/>
        <path id="svg_50" stroke-width="0px" fill="rgb(44, 160, 44)" d="m556.849976,202.089996a4,4 0 1 1 -4,-4a4,4 0 0 1 4,4z" class="point"/>
        <path id="svg_51" stroke-width="0px" fill="rgb(44, 160, 44)" d="m590.820007,183.949997a4,4 0 1 1 -4,-4a4,4 0 0 1 4,4z" class="point"/>
        <path id="svg_52" stroke-width="0px" fill="rgb(44, 160, 44)" d="m624.789978,158.639999a4,4 0 1 1 -4,-4a4,4 0 0 1 4,4z" class="point"/>
        <path id="svg_53" stroke-width="0px" fill="rgb(44, 160, 44)" d="m658.76001,124.959999a4,4 0 1 1 -4,-4a4,4 0 0 1 4,4z" class="point"/>
        <path id="svg_54" stroke-width="0px" fill="rgb(44, 160, 44)" d="m692.72998,81.709999a4,4 0 1 1 -4,-4a4,4 0 0 1 4,4z" class="point"/>
        <path id="svg_55" stroke-width="0px" fill="rgb(44, 160, 44)" d="m726.700012,27.700001a4,4 0 1 1 -4,-4a4,4 0 0 1 4,4z" class="point"/>
       </g>
      </g>
     </g>
    </svg>
   </g>
   <g id="svg_56"/>
   <path id="svg_57" fill="none" stroke-width="1px" stroke="rgb(0, 0, 0)" stroke-opacity="0" d="m-1,454.5l768,0" class="crisp"/>
   <path id="svg_58" fill="none" stroke="rgb(0, 0, 0)" stroke-opacity="0" stroke-width="1px" d="m-0.5,-1l0,455" class="crisp"/>
   <g id="svg_59"/>
   <g id="svg_60">
    <g id="svg_61" class="xtick">
     <text id="svg_62" font-family="&#x27;Open sans', verdana, arial, sans-serif" font-size="12px" fill="rgb(68, 68, 68)" y="468" x="111.239998" text-anchor="middle">−2</text>
    </g>
    <g id="svg_63" class="xtick">
     <text id="svg_64" font-family="&#x27;Open sans', verdana, arial, sans-serif" font-size="12px" fill="rgb(68, 68, 68)" y="468" x="247.119995" text-anchor="middle">−1</text>
    </g>
    <g id="svg_65" class="xtick">
     <text id="svg_66" font-family="&#x27;Open sans', verdana, arial, sans-serif" font-size="12px" fill="rgb(68, 68, 68)" y="468" x="383" text-anchor="middle">0</text>
    </g>
    <g id="svg_67" class="xtick">
     <text id="svg_68" font-family="&#x27;Open sans', verdana, arial, sans-serif" font-size="12px" fill="rgb(68, 68, 68)" y="468" x="518.880005" text-anchor="middle">1</text>
    </g>
    <g id="svg_69" class="xtick">
     <text id="svg_70" font-family="&#x27;Open sans', verdana, arial, sans-serif" font-size="12px" fill="rgb(68, 68, 68)" y="468" x="654.76001" text-anchor="middle">2</text>
    </g>
   </g>
   <g id="svg_71">
    <g id="svg_72" class="ytick">
     <text id="svg_73" font-family="&#x27;Open sans', verdana, arial, sans-serif" font-size="12px" fill="rgb(68, 68, 68)" y="403.070007" x="-2" text-anchor="end">−20</text>
    </g>
    <g id="svg_74" class="ytick">
     <text id="svg_75" font-family="&#x27;Open sans', verdana, arial, sans-serif" font-size="12px" fill="rgb(68, 68, 68)" y="318.029999" x="-2" text-anchor="end">−10</text>
    </g>
    <g id="svg_76" class="ytick">
     <text id="svg_77" font-family="&#x27;Open sans', verdana, arial, sans-serif" font-size="12px" fill="rgb(68, 68, 68)" y="233" x="-2" text-anchor="end">0</text>
    </g>
    <g id="svg_78" class="ytick">
     <text id="svg_79" font-family="&#x27;Open sans', verdana, arial, sans-serif" font-size="12px" fill="rgb(68, 68, 68)" y="147.970001" x="-2" text-anchor="end">10</text>
    </g>
    <g id="svg_80" class="ytick">
     <text id="svg_81" font-family="&#x27;Open sans', verdana, arial, sans-serif" font-size="12px" fill="rgb(68, 68, 68)" y="62.93" x="-2" text-anchor="end">20</text>
    </g>
   </g>
   <g id="svg_82"/>
  </g>
  <g id="svg_83" class="shapelayer"/>
  <g id="svg_84" class="glimages"/>
  <text id="svg_85" font-family="&#x27;Open Sans', Arial, sans-serif" font-size="12px" fill="rgb(68, 68, 68)" x="759" text-anchor="end" y="445" class="js-plot-link-container"/>
  <g id="svg_86" class="infolayer">
   <g id="svg_87" class="g-gtitle"/>
   <g id="svg_88" class="g-xtitle"/>
   <g id="svg_89" class="g-ytitle"/>
  </g>
 </g>
</svg>