<?xml version="1.0"?>
<svg width="766" height="411" xmlns="http://www.w3.org/2000/svg" xmlns:svg="http://www.w3.org/2000/svg" class="main-svg">
 <defs>
  <g id="svg_2" class="clips">
   <clipPath id="clip48900fx" class="axesclip">
    <rect id="svg_3" height="411" width="766" y="0" x="0"/>
   </clipPath>
   <clipPath id="clip48900fy" class="axesclip">
    <rect id="svg_4" height="411" width="766" y="0" x="0"/>
   </clipPath>
   <clipPath id="clip48900fxy" class="axesclip">
    <rect id="svg_5" height="411" width="766" y="0" x="0"/>
   </clipPath>
  </g>
 </defs>
 <g>
  <title>Layer 1</title>
  <rect id="svg_6" fill="rgb(0, 0, 0)" fill-opacity="0" height="411" width="766" y="0" x="0"/>
  <g id="svg_7" class="draglayer">
   <g id="svg_8"/>
  </g>
  <g id="svg_9" class="subplot xy">
   <rect id="svg_10" stroke-width="0px" fill="rgb(0, 0, 0)" fill-opacity="0" height="411" width="766" y="0" x="0"/>
   <g id="svg_11">
    <path id="svg_12" stroke="rgb(238, 238, 238)" stroke-width="1px" d="m111.239998,0l0,411" class="xgrid crisp"/>
    <path id="svg_13" stroke="rgb(238, 238, 238)" stroke-width="1px" d="m247.119995,0l0,411" class="xgrid crisp"/>
    <path id="svg_14" stroke="rgb(238, 238, 238)" stroke-width="1px" d="m518.880005,0l0,411" class="xgrid crisp"/>
    <path id="svg_15" stroke="rgb(238, 238, 238)" stroke-width="1px" d="m654.76001,0l0,411" class="xgrid crisp"/>
    <path id="svg_16" stroke="rgb(238, 238, 238)" stroke-width="1px" d="m0,308.670013l766,0" class="ygrid crisp"/>
    <path id="svg_17" stroke="rgb(238, 238, 238)" stroke-width="1px" d="m0,231.889999l766,0" class="ygrid crisp"/>
    <path id="svg_18" stroke="rgb(238, 238, 238)" stroke-width="1px" d="m0,155.110001l766,0" class="ygrid crisp"/>
    <path id="svg_19" stroke="rgb(238, 238, 238)" stroke-width="1px" d="m0,78.339996l766,0" class="ygrid crisp"/>
    <path id="svg_20" stroke="rgb(238, 238, 238)" stroke-width="1px" d="m0,1.56l766,0" class="ygrid crisp"/>
   </g>
   <g id="svg_21"/>
   <g id="svg_22">
    <path id="svg_23" stroke="rgb(68, 68, 68)" stroke-width="1px" d="m383,0l0,411" class="xzl zl crisp"/>
    <path id="svg_24" stroke="rgb(68, 68, 68)" stroke-width="1px" d="m0,385.450012l766,0" class="yzl zl crisp"/>
   </g>
   <g id="svg_25"/>
   <g id="svg_1">
    <svg id="svg_26" viewBox="0 0 766 411" height="411" width="766" y="0" x="0" preserveAspectRatio="none">
     <g id="svg_27" class="maplayer"/>
     <g id="svg_28" class="barlayer"/>
     <g id="svg_29" class="errorlayer">
      <g id="svg_30" class="errorbars"/>
     </g>
     <g id="svg_31" class="boxlayer"/>
     <g id="svg_32" class="scatterlayer">
      <g id="svg_33" stroke-miterlimit="2" class="trace scatter">
       <path id="svg_34" fill="none" stroke="rgb(255, 127, 14)" stroke-width="2px" d="m43.299999,25.549999l33.969997,68.380001l33.970001,61.18l33.970009,53.990005l33.969986,46.789993l33.970001,39.590012l33.970001,32.389984l33.970001,25.190002l33.970001,17.98999l33.970001,10.800018l33.970001,3.600006l33.970001,-3.600006l33.970001,-10.800018l33.970001,-17.98999l33.970001,-25.190002l33.969971,-32.389984l33.970032,-39.590012l33.969971,-46.789993l33.970032,-53.990005l33.969971,-61.18l33.970032,-68.380001" class="js-line"/>
       <g id="svg_35" class="points">
        <path id="svg_36" stroke-width="0px" fill="rgb(255, 127, 14)" d="m47.299999,25.549999a4,4 0 1 1 -4,-4a4,4 0 0 1 4,4z" class="point"/>
        <path id="svg_37" stroke-width="0px" fill="rgb(255, 127, 14)" d="m81.269997,93.93a4,4 0 1 1 -4,-4a4,4 0 0 1 4,4z" class="point"/>
        <path id="svg_38" stroke-width="0px" fill="rgb(255, 127, 14)" d="m115.239998,155.110001a4,4 0 1 1 -4,-4a4,4 0 0 1 4,4z" class="point"/>
        <path id="svg_39" stroke-width="0px" fill="rgb(255, 127, 14)" d="m149.210007,209.100006a4,4 0 1 1 -4,-4a4,4 0 0 1 4,4z" class="point"/>
        <path id="svg_40" stroke-width="0px" fill="rgb(255, 127, 14)" d="m183.179993,255.889999a4,4 0 1 1 -4,-4a4,4 0 0 1 4,4z" class="point"/>
        <path id="svg_41" stroke-width="0px" fill="rgb(255, 127, 14)" d="m217.149994,295.480011a4,4 0 1 1 -4,-4a4,4 0 0 1 4,4z" class="point"/>
        <path id="svg_42" stroke-width="0px" fill="rgb(255, 127, 14)" d="m251.119995,327.869995a4,4 0 1 1 -4,-4a4,4 0 0 1 4,4z" class="point"/>
        <path id="svg_43" stroke-width="0px" fill="rgb(255, 127, 14)" d="m285.089996,353.059998a4,4 0 1 1 -4,-4a4,4 0 0 1 4,4z" class="point"/>
        <path id="svg_44" stroke-width="0px" fill="rgb(255, 127, 14)" d="m319.059998,371.049988a4,4 0 1 1 -4,-4a4,4 0 0 1 4,4z" class="point"/>
        <path id="svg_45" stroke-width="0px" fill="rgb(255, 127, 14)" d="m353.029999,381.850006a4,4 0 1 1 -4,-4a4,4 0 0 1 4,4z" class="point"/>
        <path id="svg_46" stroke-width="0px" fill="rgb(255, 127, 14)" d="m387,385.450012a4,4 0 1 1 -4,-4a4,4 0 0 1 4,4z" class="point"/>
        <path id="svg_47" stroke-width="0px" fill="rgb(255, 127, 14)" d="m420.970001,381.850006a4,4 0 1 1 -4,-4a4,4 0 0 1 4,4z" class="point"/>
        <path id="svg_48" stroke-width="0px" fill="rgb(255, 127, 14)" d="m454.940002,371.049988a4,4 0 1 1 -4,-4a4,4 0 0 1 4,4z" class="point"/>
        <path id="svg_49" stroke-width="0px" fill="rgb(255, 127, 14)" d="m488.910004,353.059998a4,4 0 1 1 -4,-4a4,4 0 0 1 4,4z" class="point"/>
        <path id="svg_50" stroke-width="0px" fill="rgb(255, 127, 14)" d="m522.880005,327.869995a4,4 0 1 1 -4,-4a4,4 0 0 1 4,4z" class="point"/>
        <path id="svg_51" stroke-width="0px" fill="rgb(255, 127, 14)" d="m556.849976,295.480011a4,4 0 1 1 -4,-4a4,4 0 0 1 4,4z" class="point"/>
        <path id="svg_52" stroke-width="0px" fill="rgb(255, 127, 14)" d="m590.820007,255.889999a4,4 0 1 1 -4,-4a4,4 0 0 1 4,4z" class="point"/>
        <path id="svg_53" stroke-width="0px" fill="rgb(255, 127, 14)" d="m624.789978,209.100006a4,4 0 1 1 -4,-4a4,4 0 0 1 4,4z" class="point"/>
        <path id="svg_54" stroke-width="0px" fill="rgb(255, 127, 14)" d="m658.76001,155.110001a4,4 0 1 1 -4,-4a4,4 0 0 1 4,4z" class="point"/>
        <path id="svg_55" stroke-width="0px" fill="rgb(255, 127, 14)" d="m692.72998,93.93a4,4 0 1 1 -4,-4a4,4 0 0 1 4,4z" class="point"/>
        <path id="svg_56" stroke-width="0px" fill="rgb(255, 127, 14)" d="m726.700012,25.549999a4,4 0 1 1 -4,-4a4,4 0 0 1 4,4z" class="point"/>
       </g>
      </g>
     </g>
    </svg>
   </g>
   <g id="svg_57"/>
   <path id="svg_58" fill="none" stroke-width="1px" stroke="rgb(0, 0, 0)" stroke-opacity="0" d="m-1,411.5l768,0" class="crisp"/>
   <path id="svg_59" fill="none" stroke="rgb(0, 0, 0)" stroke-opacity="0" stroke-width="1px" d="m-0.5,-1l0,412" class="crisp"/>
   <g id="svg_60"/>
   <g id="svg_61">
    <g id="svg_62" class="xtick">
     <text id="svg_63" font-family="&#x27;Open sans', verdana, arial, sans-serif" font-size="12px" fill="rgb(68, 68, 68)" y="425" x="111.239998" text-anchor="middle">−2</text>
    </g>
    <g id="svg_64" class="xtick">
     <text id="svg_65" font-family="&#x27;Open sans', verdana, arial, sans-serif" font-size="12px" fill="rgb(68, 68, 68)" y="425" x="247.119995" text-anchor="middle">−1</text>
    </g>
    <g id="svg_66" class="xtick">
     <text id="svg_67" font-family="&#x27;Open sans', verdana, arial, sans-serif" font-size="12px" fill="rgb(68, 68, 68)" y="425" x="383" text-anchor="middle">0</text>
    </g>
    <g id="svg_68" class="xtick">
     <text id="svg_69" font-family="&#x27;Open sans', verdana, arial, sans-serif" font-size="12px" fill="rgb(68, 68, 68)" y="425" x="518.880005" text-anchor="middle">1</text>
    </g>
    <g id="svg_70" class="xtick">
     <text id="svg_71" font-family="&#x27;Open sans', verdana, arial, sans-serif" font-size="12px" fill="rgb(68, 68, 68)" y="425" x="654.76001" text-anchor="middle">2</text>
    </g>
   </g>
   <g id="svg_72">
    <g id="svg_73" class="ytick">
     <text id="svg_74" font-family="&#x27;Open sans', verdana, arial, sans-serif" font-size="12px" fill="rgb(68, 68, 68)" y="391.450012" x="-2" text-anchor="end">0</text>
    </g>
    <g id="svg_75" class="ytick">
     <text id="svg_76" font-family="&#x27;Open sans', verdana, arial, sans-serif" font-size="12px" fill="rgb(68, 68, 68)" y="314.670013" x="-2" text-anchor="end">2</text>
    </g>
    <g id="svg_77" class="ytick">
     <text id="svg_78" font-family="&#x27;Open sans', verdana, arial, sans-serif" font-size="12px" fill="rgb(68, 68, 68)" y="237.889999" x="-2" text-anchor="end">4</text>
    </g>
    <g id="svg_79" class="ytick">
     <text id="svg_80" font-family="&#x27;Open sans', verdana, arial, sans-serif" font-size="12px" fill="rgb(68, 68, 68)" y="161.110001" x="-2" text-anchor="end">6</text>
    </g>
    <g id="svg_81" class="ytick">
     <text id="svg_82" font-family="&#x27;Open sans', verdana, arial, sans-serif" font-size="12px" fill="rgb(68, 68, 68)" y="84.339996" x="-2" text-anchor="end">8</text>
    </g>
    <g id="svg_83" class="ytick">
     <text id="svg_84" font-family="&#x27;Open sans', verdana, arial, sans-serif" font-size="12px" fill="rgb(68, 68, 68)" y="7.56" x="-2" text-anchor="end">10</text>
    </g>
   </g>
   <g id="svg_85"/>
  </g>
  <g id="svg_86" class="shapelayer"/>
  <g id="svg_87" class="glimages"/>
  <text id="svg_88" font-family="&#x27;Open Sans', Arial, sans-serif" font-size="12px" fill="rgb(68, 68, 68)" x="759" text-anchor="end" y="402" class="js-plot-link-container"/>
  <g id="svg_89" class="infolayer">
   <g id="svg_90" class="g-gtitle"/>
   <g id="svg_91" class="g-xtitle"/>
   <g id="svg_92" class="g-ytitle"/>
  </g>
 </g>
</svg>