<?xml version="1.0" encoding="UTF-8"?>
<svg xmlns="http://www.w3.org/2000/svg" xmlns:xlink="http://www.w3.org/1999/xlink" width="230.26564pt" height="54.96953pt" viewBox="0 0 230.26564 54.96953" version="1.1">
<g id="surface1">
<path style=" stroke:none;fill-rule:nonzero;fill:rgb(0%,0%,100%);fill-opacity:1;" d="M 7.578125 0.878906 C 6.835938 0.46875 5.9375 0 4.335938 0 C 1.933594 0 0.390625 1.71875 0.390625 3.515625 C 0.390625 4.785156 1.152344 5.605469 1.25 5.703125 C 2.128906 6.582031 2.734375 6.757812 3.886719 7.03125 C 5.410156 7.421875 5.644531 7.480469 6.230469 8.085938 C 6.523438 8.398438 6.796875 8.984375 6.796875 9.609375 C 6.796875 10.839844 5.78125 11.992188 4.238281 11.992188 C 2.929688 11.992188 1.523438 11.464844 0.46875 10.507812 L 0.195312 11.953125 C 1.835938 13.027344 3.417969 13.183594 4.238281 13.183594 C 6.542969 13.183594 8.183594 11.40625 8.183594 9.414062 C 8.183594 8.28125 7.617188 7.421875 7.226562 6.972656 C 6.40625 6.09375 5.742188 5.917969 4.550781 5.605469 C 3.320312 5.292969 2.871094 5.195312 2.480469 4.824219 C 2.246094 4.570312 1.757812 4.121094 1.757812 3.300781 C 1.757812 2.207031 2.753906 1.152344 4.335938 1.152344 C 5.859375 1.152344 6.660156 1.757812 7.304688 2.324219 Z M 7.578125 0.878906 "/>
<path style=" stroke:none;fill-rule:nonzero;fill:rgb(0%,0%,100%);fill-opacity:1;" d="M 16.761719 4.84375 L 15.394531 4.84375 L 15.394531 9.980469 C 15.394531 11.347656 14.457031 12.011719 13.285156 12.011719 C 12.035156 12.011719 11.898438 11.542969 11.898438 10.742188 L 11.898438 4.84375 L 10.550781 4.84375 L 10.550781 10.820312 C 10.550781 12.109375 10.960938 12.988281 12.425781 12.988281 C 12.933594 12.988281 14.339844 12.910156 15.433594 11.914062 L 15.433594 12.8125 L 16.761719 12.8125 Z M 16.761719 4.84375 "/>
<path style=" stroke:none;fill-rule:nonzero;fill:rgb(0%,0%,100%);fill-opacity:1;" d="M 30.664062 7.421875 C 30.664062 6.171875 30.332031 4.667969 28.242188 4.667969 C 26.71875 4.667969 25.878906 5.722656 25.605469 6.132812 C 25.273438 5 24.296875 4.667969 23.359375 4.667969 C 21.894531 4.667969 21.113281 5.625 20.820312 5.996094 L 20.820312 4.765625 L 19.550781 4.765625 L 19.550781 12.8125 L 20.898438 12.8125 L 20.898438 8.339844 C 20.898438 7.167969 21.367188 5.742188 22.675781 5.742188 C 24.335938 5.742188 24.414062 6.875 24.414062 7.539062 L 24.414062 12.8125 L 25.78125 12.8125 L 25.78125 8.339844 C 25.78125 7.167969 26.25 5.742188 27.558594 5.742188 C 29.199219 5.742188 29.296875 6.875 29.296875 7.539062 L 29.296875 12.8125 L 30.664062 12.8125 Z M 30.664062 7.421875 "/>
<path style=" stroke:none;fill-rule:nonzero;fill:rgb(0%,0%,100%);fill-opacity:1;" d="M 38.128906 5.136719 C 36.996094 4.609375 36.019531 4.589844 35.609375 4.589844 C 35.199219 4.589844 32.699219 4.589844 32.699219 6.914062 C 32.699219 7.695312 33.128906 8.242188 33.402344 8.496094 C 34.046875 9.042969 34.496094 9.140625 35.550781 9.355469 C 36.15625 9.472656 37.191406 9.6875 37.191406 10.644531 C 37.191406 11.875 35.785156 11.875 35.53125 11.875 C 34.828125 11.875 33.773438 11.679688 32.816406 10.976562 L 32.601562 12.207031 C 32.679688 12.265625 33.910156 12.988281 35.550781 12.988281 C 37.875 12.988281 38.421875 11.601562 38.421875 10.527344 C 38.421875 9.628906 37.875 9.042969 37.796875 8.964844 C 37.132812 8.28125 36.585938 8.164062 35.511719 7.949219 C 34.847656 7.832031 33.949219 7.65625 33.949219 6.757812 C 33.949219 5.644531 35.199219 5.644531 35.433594 5.644531 C 36.371094 5.644531 37.132812 5.859375 37.914062 6.308594 Z M 38.128906 5.136719 "/>
<path style=" stroke:none;fill-rule:nonzero;fill:rgb(0%,0%,100%);fill-opacity:1;" d="M 52.9375 8.867188 C 52.9375 6.445312 51.160156 4.589844 49.109375 4.589844 C 47 4.589844 45.261719 6.484375 45.261719 8.867188 C 45.261719 11.210938 47.039062 12.988281 49.089844 12.988281 C 51.199219 12.988281 52.9375 11.171875 52.9375 8.867188 Z M 49.109375 11.875 C 47.820312 11.875 46.609375 10.800781 46.609375 8.691406 C 46.609375 6.523438 47.957031 5.664062 49.089844 5.664062 C 50.320312 5.664062 51.589844 6.582031 51.589844 8.691406 C 51.589844 10.898438 50.300781 11.875 49.109375 11.875 Z M 49.109375 11.875 "/>
<path style=" stroke:none;fill-rule:nonzero;fill:rgb(0%,0%,100%);fill-opacity:1;" d="M 56.667969 5.898438 L 58.582031 5.898438 L 58.582031 4.84375 L 56.628906 4.84375 L 56.628906 2.695312 C 56.628906 1.484375 57.644531 1.269531 58.25 1.269531 C 58.875 1.269531 59.421875 1.464844 59.636719 1.542969 L 59.636719 0.371094 C 59.519531 0.332031 58.914062 0.195312 58.269531 0.195312 C 56.550781 0.195312 55.339844 1.503906 55.339844 3.242188 L 55.339844 4.84375 L 54.03125 4.84375 L 54.03125 5.898438 L 55.339844 5.898438 L 55.339844 12.8125 L 56.667969 12.8125 Z M 56.667969 5.898438 "/>
<path style=" stroke:none;fill-rule:nonzero;fill:rgb(0%,0%,100%);fill-opacity:1;" d="M 71.421875 1.5625 L 73.003906 1.5625 C 73.21875 1.5625 73.433594 1.582031 73.648438 1.582031 L 75.992188 1.582031 L 75.992188 0.449219 L 65.289062 0.449219 L 65.289062 1.582031 L 67.652344 1.582031 C 67.867188 1.582031 68.082031 1.5625 68.296875 1.5625 L 69.878906 1.5625 L 69.878906 12.8125 L 71.421875 12.8125 Z M 71.421875 1.5625 "/>
<path style=" stroke:none;fill-rule:nonzero;fill:rgb(0%,0%,100%);fill-opacity:1;" d="M 77.898438 8.886719 C 77.898438 7.070312 79.246094 5.898438 80.867188 5.878906 L 80.867188 4.667969 C 79.226562 4.6875 78.289062 5.644531 77.800781 6.347656 L 77.800781 4.765625 L 76.570312 4.765625 L 76.570312 12.8125 L 77.898438 12.8125 Z M 77.898438 8.886719 "/>
<path style=" stroke:none;fill-rule:nonzero;fill:rgb(0%,0%,100%);fill-opacity:1;" d="M 83.996094 0.644531 L 82.453125 0.644531 L 82.453125 2.1875 L 83.996094 2.1875 Z M 83.898438 4.84375 L 82.570312 4.84375 L 82.570312 12.8125 L 83.898438 12.8125 Z M 83.898438 4.84375 "/>
<path style=" stroke:none;fill-rule:nonzero;fill:rgb(0%,0%,100%);fill-opacity:1;" d="M 91.476562 5.742188 C 91.476562 5.742188 91.515625 5.78125 91.535156 5.820312 C 91.90625 5.78125 92.296875 5.722656 92.960938 5.722656 C 93.019531 5.722656 93.429688 5.722656 93.878906 5.761719 L 93.683594 4.667969 C 93.351562 4.667969 92.121094 4.6875 90.929688 5.273438 C 90.34375 4.765625 89.621094 4.667969 89.269531 4.667969 C 87.707031 4.667969 86.457031 5.976562 86.457031 7.558594 C 86.457031 8.203125 86.652344 8.789062 87.042969 9.335938 C 86.632812 9.902344 86.535156 10.449219 86.535156 10.878906 C 86.535156 11.542969 86.789062 11.992188 86.984375 12.226562 C 86.066406 12.8125 85.851562 13.574219 85.851562 14.082031 C 85.851562 15.390625 87.550781 16.484375 89.738281 16.484375 C 91.925781 16.484375 93.644531 15.429688 93.644531 14.0625 C 93.644531 11.5625 90.734375 11.5625 90.011719 11.5625 L 88.488281 11.5625 C 88.234375 11.5625 87.453125 11.5625 87.453125 10.605469 C 87.453125 10.214844 87.53125 10.097656 87.648438 9.941406 C 87.941406 10.15625 88.527344 10.46875 89.25 10.46875 C 90.792969 10.46875 92.0625 9.199219 92.0625 7.558594 C 92.0625 6.914062 91.828125 6.25 91.457031 5.761719 Z M 89.269531 9.472656 C 88.488281 9.472656 87.6875 8.945312 87.6875 7.578125 C 87.6875 5.976562 88.703125 5.664062 89.25 5.664062 C 90.050781 5.664062 90.832031 6.191406 90.832031 7.558594 C 90.832031 9.160156 89.835938 9.472656 89.269531 9.472656 Z M 90.03125 12.851562 C 90.421875 12.851562 92.394531 12.851562 92.394531 14.082031 C 92.394531 14.902344 91.164062 15.507812 89.757812 15.507812 C 88.351562 15.507812 87.101562 14.941406 87.101562 14.0625 C 87.101562 14.023438 87.101562 12.851562 88.46875 12.851562 Z M 90.03125 12.851562 "/>
<path style=" stroke:none;fill-rule:nonzero;fill:rgb(0%,0%,100%);fill-opacity:1;" d="M 102.4375 8.867188 C 102.4375 6.445312 100.660156 4.589844 98.609375 4.589844 C 96.5 4.589844 94.761719 6.484375 94.761719 8.867188 C 94.761719 11.210938 96.539062 12.988281 98.589844 12.988281 C 100.699219 12.988281 102.4375 11.171875 102.4375 8.867188 Z M 98.609375 11.875 C 97.320312 11.875 96.109375 10.800781 96.109375 8.691406 C 96.109375 6.523438 97.457031 5.664062 98.589844 5.664062 C 99.820312 5.664062 101.089844 6.582031 101.089844 8.691406 C 101.089844 10.898438 99.800781 11.875 98.609375 11.875 Z M 98.609375 11.875 "/>
<path style=" stroke:none;fill-rule:nonzero;fill:rgb(0%,0%,100%);fill-opacity:1;" d="M 110.660156 7.421875 C 110.660156 6.328125 110.425781 4.667969 108.257812 4.667969 C 107.261719 4.667969 106.402344 5.117188 105.71875 5.976562 L 105.71875 4.765625 L 104.449219 4.765625 L 104.449219 12.8125 L 105.796875 12.8125 L 105.796875 8.339844 C 105.796875 7.246094 106.226562 5.742188 107.574219 5.742188 C 109.253906 5.742188 109.292969 6.914062 109.292969 7.539062 L 109.292969 12.8125 L 110.660156 12.8125 Z M 110.660156 7.421875 "/>
<path style=" stroke:none;fill-rule:nonzero;fill:rgb(0%,0%,100%);fill-opacity:1;" d="M 120.285156 8.867188 C 120.285156 6.445312 118.507812 4.589844 116.457031 4.589844 C 114.347656 4.589844 112.609375 6.484375 112.609375 8.867188 C 112.609375 11.210938 114.386719 12.988281 116.4375 12.988281 C 118.546875 12.988281 120.285156 11.171875 120.285156 8.867188 Z M 116.457031 11.875 C 115.167969 11.875 113.957031 10.800781 113.957031 8.691406 C 113.957031 6.523438 115.304688 5.664062 116.4375 5.664062 C 117.667969 5.664062 118.9375 6.582031 118.9375 8.691406 C 118.9375 10.898438 117.648438 11.875 116.457031 11.875 Z M 116.457031 11.875 "/>
<path style=" stroke:none;fill-rule:nonzero;fill:rgb(0%,0%,100%);fill-opacity:1;" d="M 133.414062 7.421875 C 133.414062 6.171875 133.082031 4.667969 130.992188 4.667969 C 129.46875 4.667969 128.628906 5.722656 128.355469 6.132812 C 128.023438 5 127.046875 4.667969 126.109375 4.667969 C 124.644531 4.667969 123.863281 5.625 123.570312 5.996094 L 123.570312 4.765625 L 122.300781 4.765625 L 122.300781 12.8125 L 123.648438 12.8125 L 123.648438 8.339844 C 123.648438 7.167969 124.117188 5.742188 125.425781 5.742188 C 127.085938 5.742188 127.164062 6.875 127.164062 7.539062 L 127.164062 12.8125 L 128.53125 12.8125 L 128.53125 8.339844 C 128.53125 7.167969 129 5.742188 130.308594 5.742188 C 131.949219 5.742188 132.046875 6.875 132.046875 7.539062 L 132.046875 12.8125 L 133.414062 12.8125 Z M 133.414062 7.421875 "/>
<path style=" stroke:none;fill-rule:nonzero;fill:rgb(0%,0%,100%);fill-opacity:1;" d="M 142.167969 8.769531 C 142.167969 8.007812 142.089844 6.914062 141.523438 5.957031 C 140.78125 4.726562 139.53125 4.589844 139.003906 4.589844 C 137.070312 4.589844 135.449219 6.445312 135.449219 8.769531 C 135.449219 11.152344 137.167969 12.988281 139.257812 12.988281 C 140.078125 12.988281 141.074219 12.753906 142.050781 12.050781 C 142.050781 11.972656 141.992188 11.40625 141.992188 11.386719 C 141.972656 11.367188 141.953125 10.957031 141.953125 10.898438 C 140.878906 11.796875 139.824219 11.914062 139.296875 11.914062 C 137.910156 11.914062 136.71875 10.683594 136.699219 8.769531 Z M 136.796875 7.8125 C 137.109375 6.601562 137.949219 5.664062 139.003906 5.664062 C 139.570312 5.664062 140.800781 5.917969 141.09375 7.8125 Z M 136.796875 7.8125 "/>
<path style=" stroke:none;fill-rule:nonzero;fill:rgb(0%,0%,100%);fill-opacity:1;" d="M 145.730469 5.898438 L 148.210938 5.898438 L 148.210938 4.84375 L 145.730469 4.84375 L 145.730469 2.578125 L 144.5 2.578125 L 144.5 4.84375 L 142.996094 4.84375 L 142.996094 5.898438 L 144.460938 5.898438 L 144.460938 10.722656 C 144.460938 11.757812 144.695312 12.988281 145.925781 12.988281 C 147.136719 12.988281 147.957031 12.578125 148.503906 12.285156 L 148.230469 11.25 C 147.605469 11.816406 146.941406 11.875 146.628906 11.875 C 145.828125 11.875 145.730469 11.035156 145.730469 10.410156 Z M 145.730469 5.898438 "/>
<path style=" stroke:none;fill-rule:nonzero;fill:rgb(0%,0%,100%);fill-opacity:1;" d="M 151.699219 8.886719 C 151.699219 7.070312 153.046875 5.898438 154.667969 5.878906 L 154.667969 4.667969 C 153.027344 4.6875 152.089844 5.644531 151.601562 6.347656 L 151.601562 4.765625 L 150.371094 4.765625 L 150.371094 12.8125 L 151.699219 12.8125 Z M 151.699219 8.886719 "/>
<path style=" stroke:none;fill-rule:nonzero;fill:rgb(0%,0%,100%);fill-opacity:1;" d="M 157.796875 0.644531 L 156.253906 0.644531 L 156.253906 2.1875 L 157.796875 2.1875 Z M 157.699219 4.84375 L 156.371094 4.84375 L 156.371094 12.8125 L 157.699219 12.8125 Z M 157.699219 4.84375 "/>
<path style=" stroke:none;fill-rule:nonzero;fill:rgb(0%,0%,100%);fill-opacity:1;" d="M 166.351562 10.878906 C 165.53125 11.542969 164.613281 11.875 163.617188 11.875 C 162.113281 11.875 161.15625 10.546875 161.15625 8.808594 C 161.15625 7.324219 161.878906 5.703125 163.65625 5.703125 C 164.867188 5.703125 165.375 5.976562 166.136719 6.503906 L 166.351562 5.332031 C 165.316406 4.726562 164.730469 4.589844 163.65625 4.589844 C 161.195312 4.589844 159.789062 6.777344 159.789062 8.808594 C 159.789062 11.113281 161.449219 12.988281 163.597656 12.988281 C 164.476562 12.988281 165.472656 12.773438 166.46875 12.050781 C 166.46875 12.011719 166.410156 11.445312 166.390625 11.386719 Z M 166.351562 10.878906 "/>
<path style=" stroke:none;fill-rule:nonzero;fill:rgb(0%,0%,100%);fill-opacity:1;" d="M 179.667969 6.972656 C 181.621094 6.40625 182.675781 5.058594 182.675781 3.730469 C 182.675781 1.933594 180.761719 0.371094 178.222656 0.371094 L 174.003906 0.371094 L 174.003906 12.8125 L 175.507812 12.8125 L 175.507812 7.128906 L 178.300781 7.128906 L 181.621094 12.8125 L 183.164062 12.8125 Z M 175.507812 6.054688 L 175.507812 1.367188 L 178.027344 1.367188 C 180.195312 1.367188 181.25 2.519531 181.25 3.730469 C 181.25 4.824219 180.292969 6.054688 178.027344 6.054688 Z M 175.507812 6.054688 "/>
<path style=" stroke:none;fill-rule:nonzero;fill:rgb(0%,0%,100%);fill-opacity:1;" d="M 190.625 7.558594 C 190.625 5.839844 189.394531 4.589844 187.714844 4.589844 C 186.640625 4.589844 185.839844 4.824219 184.960938 5.332031 L 185.058594 6.523438 C 185.859375 5.9375 186.679688 5.625 187.714844 5.625 C 188.535156 5.625 189.257812 6.289062 189.257812 7.597656 L 189.257812 8.339844 C 188.457031 8.359375 187.382812 8.417969 186.308594 8.769531 C 185.097656 9.199219 184.394531 9.863281 184.394531 10.742188 C 184.394531 11.542969 184.863281 12.988281 186.386719 12.988281 C 187.382812 12.988281 188.632812 12.695312 189.296875 12.148438 L 189.296875 12.8125 L 190.625 12.8125 Z M 189.257812 10.410156 C 189.257812 10.761719 189.257812 11.191406 188.671875 11.5625 C 188.183594 11.855469 187.578125 11.914062 187.304688 11.914062 C 186.347656 11.914062 185.683594 11.386719 185.683594 10.742188 C 185.683594 9.511719 188.164062 9.238281 189.257812 9.238281 Z M 189.257812 10.410156 "/>
<path style=" stroke:none;fill-rule:nonzero;fill:rgb(0%,0%,100%);fill-opacity:1;" d="M 195.082031 5.898438 L 197.5625 5.898438 L 197.5625 4.84375 L 195.082031 4.84375 L 195.082031 2.578125 L 193.851562 2.578125 L 193.851562 4.84375 L 192.347656 4.84375 L 192.347656 5.898438 L 193.8125 5.898438 L 193.8125 10.722656 C 193.8125 11.757812 194.046875 12.988281 195.277344 12.988281 C 196.488281 12.988281 197.308594 12.578125 197.855469 12.285156 L 197.582031 11.25 C 196.957031 11.816406 196.292969 11.875 195.980469 11.875 C 195.179688 11.875 195.082031 11.035156 195.082031 10.410156 Z M 195.082031 5.898438 "/>
<path style=" stroke:none;fill-rule:nonzero;fill:rgb(0%,0%,100%);fill-opacity:1;" d="M 201.144531 0.644531 L 199.601562 0.644531 L 199.601562 2.1875 L 201.144531 2.1875 Z M 201.046875 4.84375 L 199.71875 4.84375 L 199.71875 12.8125 L 201.046875 12.8125 Z M 201.046875 4.84375 "/>
<path style=" stroke:none;fill-rule:nonzero;fill:rgb(0%,0%,100%);fill-opacity:1;" d="M 210.738281 8.867188 C 210.738281 6.445312 208.960938 4.589844 206.910156 4.589844 C 204.800781 4.589844 203.0625 6.484375 203.0625 8.867188 C 203.0625 11.210938 204.839844 12.988281 206.890625 12.988281 C 209 12.988281 210.738281 11.171875 210.738281 8.867188 Z M 206.910156 11.875 C 205.621094 11.875 204.410156 10.800781 204.410156 8.691406 C 204.410156 6.523438 205.757812 5.664062 206.890625 5.664062 C 208.121094 5.664062 209.390625 6.582031 209.390625 8.691406 C 209.390625 10.898438 208.101562 11.875 206.910156 11.875 Z M 206.910156 11.875 "/>
<path style=" stroke:none;fill-rule:nonzero;fill:rgb(0%,0%,100%);fill-opacity:1;" d="M 217.378906 5.136719 C 216.246094 4.609375 215.269531 4.589844 214.859375 4.589844 C 214.449219 4.589844 211.949219 4.589844 211.949219 6.914062 C 211.949219 7.695312 212.378906 8.242188 212.652344 8.496094 C 213.296875 9.042969 213.746094 9.140625 214.800781 9.355469 C 215.40625 9.472656 216.441406 9.6875 216.441406 10.644531 C 216.441406 11.875 215.035156 11.875 214.78125 11.875 C 214.078125 11.875 213.023438 11.679688 212.066406 10.976562 L 211.851562 12.207031 C 211.929688 12.265625 213.160156 12.988281 214.800781 12.988281 C 217.125 12.988281 217.671875 11.601562 217.671875 10.527344 C 217.671875 9.628906 217.125 9.042969 217.046875 8.964844 C 216.382812 8.28125 215.835938 8.164062 214.761719 7.949219 C 214.097656 7.832031 213.199219 7.65625 213.199219 6.757812 C 213.199219 5.644531 214.449219 5.644531 214.683594 5.644531 C 215.621094 5.644531 216.382812 5.859375 217.164062 6.308594 Z M 217.378906 5.136719 "/>
<path style=" stroke:none;fill-rule:nonzero;fill:rgb(0%,0%,0%);fill-opacity:1;" d="M 5.292969 43.933594 C 5.292969 43.601562 5.292969 43.523438 5.117188 43.523438 C 4.980469 43.523438 4.628906 43.914062 4.511719 44.070312 C 3.945312 43.621094 3.398438 43.523438 2.8125 43.523438 C 0.644531 43.523438 0 44.695312 0 45.691406 C 0 45.886719 0 46.511719 0.683594 47.136719 C 1.269531 47.644531 1.875 47.761719 2.695312 47.917969 C 3.671875 48.113281 3.90625 48.171875 4.355469 48.542969 C 4.6875 48.796875 4.921875 49.207031 4.921875 49.695312 C 4.921875 50.476562 4.472656 51.335938 2.890625 51.335938 C 1.71875 51.335938 0.839844 50.652344 0.449219 48.855469 C 0.390625 48.542969 0.390625 48.523438 0.371094 48.503906 C 0.332031 48.425781 0.253906 48.425781 0.195312 48.425781 C 0 48.425781 0 48.523438 0 48.835938 L 0 51.277344 C 0 51.609375 0 51.6875 0.175781 51.6875 C 0.273438 51.6875 0.292969 51.667969 0.605469 51.296875 C 0.683594 51.179688 0.683594 51.140625 0.957031 50.847656 C 1.640625 51.6875 2.597656 51.6875 2.910156 51.6875 C 4.785156 51.6875 5.722656 50.652344 5.722656 49.226562 C 5.722656 48.269531 5.136719 47.683594 4.980469 47.527344 C 4.335938 46.980469 3.847656 46.863281 2.65625 46.648438 C 2.128906 46.550781 0.820312 46.296875 0.820312 45.222656 C 0.820312 44.65625 1.191406 43.835938 2.8125 43.835938 C 4.765625 43.835938 4.863281 45.496094 4.902344 46.0625 C 4.921875 46.199219 5.039062 46.199219 5.097656 46.199219 C 5.292969 46.199219 5.292969 46.121094 5.292969 45.789062 Z M 5.292969 43.933594 "/>
<path style=" stroke:none;fill-rule:nonzero;fill:rgb(0%,0%,0%);fill-opacity:1;" d="M 9.4375 40.476562 C 9.4375 40.007812 9.046875 39.597656 8.558594 39.597656 C 8.089844 39.597656 7.699219 39.96875 7.699219 40.457031 C 7.699219 40.984375 8.128906 41.335938 8.558594 41.335938 C 9.105469 41.335938 9.4375 40.867188 9.4375 40.476562 Z M 6.957031 43.796875 L 6.957031 44.324219 C 8.109375 44.324219 8.265625 44.421875 8.265625 45.300781 L 8.265625 50.183594 C 8.265625 50.984375 8.070312 50.984375 6.898438 50.984375 L 6.898438 51.511719 C 7.40625 51.472656 8.265625 51.472656 8.792969 51.472656 C 8.988281 51.472656 10.023438 51.472656 10.628906 51.511719 L 10.628906 50.984375 C 9.476562 50.984375 9.398438 50.90625 9.398438 50.203125 L 9.398438 43.601562 Z M 6.957031 43.796875 "/>
<path style=" stroke:none;fill-rule:nonzero;fill:rgb(0%,0%,0%);fill-opacity:1;" d="M 19.253906 47.15625 C 19.253906 45.496094 19.253906 44.988281 18.824219 44.402344 C 18.316406 43.71875 17.476562 43.601562 16.851562 43.601562 C 15.113281 43.601562 14.429688 45.085938 14.292969 45.457031 L 14.273438 45.457031 L 14.273438 43.601562 L 11.832031 43.796875 L 11.832031 44.324219 C 13.0625 44.324219 13.199219 44.441406 13.199219 45.320312 L 13.199219 50.183594 C 13.199219 50.984375 13.003906 50.984375 11.832031 50.984375 L 11.832031 51.511719 C 12.300781 51.472656 13.277344 51.472656 13.785156 51.472656 C 14.292969 51.472656 15.269531 51.472656 15.738281 51.511719 L 15.738281 50.984375 C 14.585938 50.984375 14.371094 50.984375 14.371094 50.183594 L 14.371094 46.84375 C 14.371094 44.96875 15.601562 43.972656 16.714844 43.972656 C 17.828125 43.972656 18.082031 44.871094 18.082031 45.964844 L 18.082031 50.183594 C 18.082031 50.984375 17.886719 50.984375 16.714844 50.984375 L 16.714844 51.511719 C 17.183594 51.472656 18.160156 51.472656 18.648438 51.472656 C 19.175781 51.472656 20.132812 51.472656 20.601562 51.511719 L 20.601562 50.984375 C 19.703125 50.984375 19.253906 50.984375 19.253906 50.457031 Z M 19.253906 47.15625 "/>
<path style=" stroke:none;fill-rule:nonzero;fill:rgb(0%,0%,0%);fill-opacity:1;" d="M 27.0625 49.519531 C 26.4375 50.574219 25.832031 50.945312 24.972656 50.984375 C 24.777344 51.003906 24.621094 51.003906 24.621094 51.335938 C 24.621094 51.433594 24.71875 51.511719 24.835938 51.511719 C 25.167969 51.511719 25.96875 51.472656 26.300781 51.472656 C 26.808594 51.472656 27.394531 51.511719 27.882812 51.511719 C 28 51.511719 28.214844 51.511719 28.214844 51.179688 C 28.214844 51.003906 28.058594 50.984375 27.960938 50.984375 C 27.550781 50.964844 27.199219 50.808594 27.199219 50.378906 C 27.199219 50.125 27.316406 49.929688 27.550781 49.539062 L 28.917969 47.273438 L 33.488281 47.273438 C 33.507812 47.449219 33.507812 47.585938 33.527344 47.742188 C 33.566406 48.210938 33.78125 50.085938 33.78125 50.417969 C 33.78125 50.964844 32.863281 50.984375 32.589844 50.984375 C 32.394531 50.984375 32.199219 50.984375 32.199219 51.316406 C 32.199219 51.511719 32.355469 51.511719 32.453125 51.511719 C 32.765625 51.511719 33.117188 51.472656 33.429688 51.472656 L 34.445312 51.472656 C 35.539062 51.472656 36.339844 51.511719 36.359375 51.511719 C 36.476562 51.511719 36.671875 51.511719 36.671875 51.179688 C 36.671875 50.984375 36.515625 50.984375 36.242188 50.984375 C 35.265625 50.984375 35.246094 50.828125 35.1875 50.300781 L 34.09375 39.109375 C 34.054688 38.738281 33.976562 38.71875 33.78125 38.71875 C 33.605469 38.71875 33.507812 38.738281 33.332031 39.011719 Z M 29.210938 46.765625 L 32.824219 40.730469 L 33.429688 46.765625 Z M 29.210938 46.765625 "/>
<path style=" stroke:none;fill-rule:nonzero;fill:rgb(0%,0%,0%);fill-opacity:1;" d="M 48.4375 45.90625 L 53.4375 45.90625 C 53.730469 45.90625 54.0625 45.90625 54.0625 45.535156 C 54.0625 45.183594 53.730469 45.183594 53.4375 45.183594 L 48.4375 45.183594 L 48.4375 40.242188 C 48.4375 39.949219 48.4375 39.578125 48.085938 39.578125 C 47.734375 39.578125 47.734375 39.890625 47.734375 40.183594 L 47.734375 45.183594 L 42.734375 45.183594 C 42.421875 45.183594 42.089844 45.183594 42.089844 45.535156 C 42.089844 45.90625 42.421875 45.90625 42.734375 45.90625 L 47.734375 45.90625 L 47.734375 50.789062 L 42.734375 50.789062 C 42.421875 50.789062 42.089844 50.789062 42.089844 51.160156 C 42.089844 51.511719 42.421875 51.511719 42.734375 51.511719 L 53.4375 51.511719 C 53.730469 51.511719 54.0625 51.511719 54.0625 51.160156 C 54.0625 50.789062 53.730469 50.789062 53.4375 50.789062 L 48.4375 50.789062 Z M 48.4375 45.90625 "/>
<path style=" stroke:none;fill-rule:nonzero;fill:rgb(0%,0%,0%);fill-opacity:1;" d="M 64.992188 43.933594 C 64.992188 43.601562 64.992188 43.523438 64.816406 43.523438 C 64.679688 43.523438 64.328125 43.914062 64.210938 44.070312 C 63.644531 43.621094 63.097656 43.523438 62.511719 43.523438 C 60.34375 43.523438 59.699219 44.695312 59.699219 45.691406 C 59.699219 45.886719 59.699219 46.511719 60.382812 47.136719 C 60.96875 47.644531 61.574219 47.761719 62.394531 47.917969 C 63.371094 48.113281 63.605469 48.171875 64.054688 48.542969 C 64.386719 48.796875 64.621094 49.207031 64.621094 49.695312 C 64.621094 50.476562 64.171875 51.335938 62.589844 51.335938 C 61.417969 51.335938 60.539062 50.652344 60.148438 48.855469 C 60.089844 48.542969 60.089844 48.523438 60.070312 48.503906 C 60.03125 48.425781 59.953125 48.425781 59.894531 48.425781 C 59.699219 48.425781 59.699219 48.523438 59.699219 48.835938 L 59.699219 51.277344 C 59.699219 51.609375 59.699219 51.6875 59.875 51.6875 C 59.972656 51.6875 59.992188 51.667969 60.304688 51.296875 C 60.382812 51.179688 60.382812 51.140625 60.65625 50.847656 C 61.339844 51.6875 62.296875 51.6875 62.609375 51.6875 C 64.484375 51.6875 65.421875 50.652344 65.421875 49.226562 C 65.421875 48.269531 64.835938 47.683594 64.679688 47.527344 C 64.035156 46.980469 63.546875 46.863281 62.355469 46.648438 C 61.828125 46.550781 60.519531 46.296875 60.519531 45.222656 C 60.519531 44.65625 60.890625 43.835938 62.511719 43.835938 C 64.464844 43.835938 64.5625 45.496094 64.601562 46.0625 C 64.621094 46.199219 64.738281 46.199219 64.796875 46.199219 C 64.992188 46.199219 64.992188 46.121094 64.992188 45.789062 Z M 64.992188 43.933594 "/>
<path style=" stroke:none;fill-rule:nonzero;fill:rgb(0%,0%,0%);fill-opacity:1;" d="M 69.140625 40.476562 C 69.140625 40.007812 68.75 39.597656 68.261719 39.597656 C 67.792969 39.597656 67.402344 39.96875 67.402344 40.457031 C 67.402344 40.984375 67.832031 41.335938 68.261719 41.335938 C 68.808594 41.335938 69.140625 40.867188 69.140625 40.476562 Z M 66.660156 43.796875 L 66.660156 44.324219 C 67.8125 44.324219 67.96875 44.421875 67.96875 45.300781 L 67.96875 50.183594 C 67.96875 50.984375 67.773438 50.984375 66.601562 50.984375 L 66.601562 51.511719 C 67.109375 51.472656 67.96875 51.472656 68.496094 51.472656 C 68.691406 51.472656 69.726562 51.472656 70.332031 51.511719 L 70.332031 50.984375 C 69.179688 50.984375 69.101562 50.90625 69.101562 50.203125 L 69.101562 43.601562 Z M 66.660156 43.796875 "/>
<path style=" stroke:none;fill-rule:nonzero;fill:rgb(0%,0%,0%);fill-opacity:1;" d="M 78.953125 47.15625 C 78.953125 45.496094 78.953125 44.988281 78.523438 44.402344 C 78.015625 43.71875 77.175781 43.601562 76.550781 43.601562 C 74.8125 43.601562 74.128906 45.085938 73.992188 45.457031 L 73.972656 45.457031 L 73.972656 43.601562 L 71.53125 43.796875 L 71.53125 44.324219 C 72.761719 44.324219 72.898438 44.441406 72.898438 45.320312 L 72.898438 50.183594 C 72.898438 50.984375 72.703125 50.984375 71.53125 50.984375 L 71.53125 51.511719 C 72 51.472656 72.976562 51.472656 73.484375 51.472656 C 73.992188 51.472656 74.96875 51.472656 75.4375 51.511719 L 75.4375 50.984375 C 74.285156 50.984375 74.070312 50.984375 74.070312 50.183594 L 74.070312 46.84375 C 74.070312 44.96875 75.300781 43.972656 76.414062 43.972656 C 77.527344 43.972656 77.78125 44.871094 77.78125 45.964844 L 77.78125 50.183594 C 77.78125 50.984375 77.585938 50.984375 76.414062 50.984375 L 76.414062 51.511719 C 76.882812 51.472656 77.859375 51.472656 78.347656 51.472656 C 78.875 51.472656 79.832031 51.472656 80.300781 51.511719 L 80.300781 50.984375 C 79.402344 50.984375 78.953125 50.984375 78.953125 50.457031 Z M 78.953125 47.15625 "/>
<path style=" stroke:none;fill-rule:nonzero;fill:rgb(0%,0%,0%);fill-opacity:1;" d="M 90.128906 40.476562 C 90.285156 39.8125 90.363281 39.792969 91.066406 39.792969 L 93.390625 39.792969 C 95.421875 39.792969 95.421875 41.511719 95.421875 41.667969 C 95.421875 43.113281 93.957031 44.96875 91.59375 44.96875 L 89.015625 44.96875 Z M 93.15625 45.105469 C 95.109375 44.753906 96.886719 43.386719 96.886719 41.746094 C 96.886719 40.339844 95.65625 39.265625 93.625 39.265625 L 87.863281 39.265625 C 87.53125 39.265625 87.375 39.265625 87.375 39.597656 C 87.375 39.792969 87.53125 39.792969 87.804688 39.792969 C 88.898438 39.792969 88.898438 39.929688 88.898438 40.125 C 88.898438 40.164062 88.898438 40.261719 88.820312 40.535156 L 86.398438 50.183594 C 86.242188 50.808594 86.203125 50.984375 84.953125 50.984375 C 84.601562 50.984375 84.425781 50.984375 84.425781 51.316406 C 84.425781 51.511719 84.542969 51.511719 84.894531 51.511719 L 91.046875 51.511719 C 93.78125 51.511719 95.910156 49.441406 95.910156 47.625 C 95.910156 46.160156 94.601562 45.261719 93.15625 45.105469 Z M 90.617188 50.984375 L 88.195312 50.984375 C 87.941406 50.984375 87.902344 50.984375 87.804688 50.964844 C 87.609375 50.964844 87.589844 50.925781 87.589844 50.769531 C 87.589844 50.652344 87.609375 50.535156 87.648438 50.378906 L 88.917969 45.320312 L 92.277344 45.320312 C 94.386719 45.320312 94.386719 47.292969 94.386719 47.449219 C 94.386719 49.167969 92.84375 50.984375 90.617188 50.984375 Z M 90.617188 50.984375 "/>
<path style=" stroke:none;fill-rule:nonzero;fill:rgb(0%,0%,0%);fill-opacity:1;" d="M 101.3125 51.589844 C 101.3125 50.535156 100.980469 49.773438 100.238281 49.773438 C 99.671875 49.773438 99.378906 50.242188 99.378906 50.632812 C 99.378906 51.023438 99.652344 51.511719 100.257812 51.511719 C 100.492188 51.511719 100.6875 51.433594 100.84375 51.277344 C 100.882812 51.238281 100.902344 51.238281 100.921875 51.238281 C 100.960938 51.238281 100.960938 51.492188 100.960938 51.589844 C 100.960938 52.175781 100.84375 53.347656 99.808594 54.5 C 99.613281 54.714844 99.613281 54.753906 99.613281 54.792969 C 99.613281 54.890625 99.691406 54.96875 99.789062 54.96875 C 99.925781 54.96875 101.3125 53.640625 101.3125 51.589844 Z M 101.3125 51.589844 "/>
<path style=" stroke:none;fill-rule:nonzero;fill:rgb(0%,0%,0%);fill-opacity:1;" d="M 112.25 44.871094 C 112.035156 44.871094 111.371094 44.871094 111.371094 45.613281 C 111.371094 46.042969 111.683594 46.355469 112.113281 46.355469 C 112.523438 46.355469 112.875 46.101562 112.875 45.574219 C 112.875 44.382812 111.605469 43.523438 110.160156 43.523438 C 108.070312 43.523438 106.390625 45.378906 106.390625 47.644531 C 106.390625 49.929688 108.109375 51.6875 110.140625 51.6875 C 112.503906 51.6875 113.050781 49.539062 113.050781 49.382812 C 113.050781 49.207031 112.914062 49.207031 112.875 49.207031 C 112.699219 49.207031 112.679688 49.265625 112.640625 49.480469 C 112.230469 50.75 111.273438 51.296875 110.296875 51.296875 C 109.203125 51.296875 107.757812 50.339844 107.757812 47.625 C 107.757812 44.636719 109.28125 43.914062 110.179688 43.914062 C 110.863281 43.914062 111.839844 44.1875 112.25 44.871094 Z M 112.25 44.871094 "/>
<path style=" stroke:none;fill-rule:nonzero;fill:rgb(0%,0%,0%);fill-opacity:1;" d="M 121.789062 47.683594 C 121.789062 45.359375 120.03125 43.523438 117.960938 43.523438 C 115.8125 43.523438 114.113281 45.417969 114.113281 47.683594 C 114.113281 49.96875 115.890625 51.6875 117.941406 51.6875 C 120.050781 51.6875 121.789062 49.929688 121.789062 47.683594 Z M 117.960938 51.296875 C 117.296875 51.296875 116.496094 51.003906 115.96875 50.125 C 115.480469 49.324219 115.460938 48.269531 115.460938 47.507812 C 115.460938 46.824219 115.460938 45.730469 116.027344 44.929688 C 116.515625 44.167969 117.316406 43.875 117.941406 43.875 C 118.644531 43.875 119.386719 44.1875 119.875 44.890625 C 120.441406 45.710938 120.441406 46.84375 120.441406 47.507812 C 120.441406 48.132812 120.441406 49.246094 119.972656 50.085938 C 119.464844 50.964844 118.644531 51.296875 117.960938 51.296875 Z M 117.960938 51.296875 "/>
<path style=" stroke:none;fill-rule:nonzero;fill:rgb(0%,0%,0%);fill-opacity:1;" d="M 128.292969 43.933594 C 128.292969 43.601562 128.292969 43.523438 128.117188 43.523438 C 127.980469 43.523438 127.628906 43.914062 127.511719 44.070312 C 126.945312 43.621094 126.398438 43.523438 125.8125 43.523438 C 123.644531 43.523438 123 44.695312 123 45.691406 C 123 45.886719 123 46.511719 123.683594 47.136719 C 124.269531 47.644531 124.875 47.761719 125.695312 47.917969 C 126.671875 48.113281 126.90625 48.171875 127.355469 48.542969 C 127.6875 48.796875 127.921875 49.207031 127.921875 49.695312 C 127.921875 50.476562 127.472656 51.335938 125.890625 51.335938 C 124.71875 51.335938 123.839844 50.652344 123.449219 48.855469 C 123.390625 48.542969 123.390625 48.523438 123.371094 48.503906 C 123.332031 48.425781 123.253906 48.425781 123.195312 48.425781 C 123 48.425781 123 48.523438 123 48.835938 L 123 51.277344 C 123 51.609375 123 51.6875 123.175781 51.6875 C 123.273438 51.6875 123.292969 51.667969 123.605469 51.296875 C 123.683594 51.179688 123.683594 51.140625 123.957031 50.847656 C 124.640625 51.6875 125.597656 51.6875 125.910156 51.6875 C 127.785156 51.6875 128.722656 50.652344 128.722656 49.226562 C 128.722656 48.269531 128.136719 47.683594 127.980469 47.527344 C 127.335938 46.980469 126.847656 46.863281 125.65625 46.648438 C 125.128906 46.550781 123.820312 46.296875 123.820312 45.222656 C 123.820312 44.65625 124.191406 43.835938 125.8125 43.835938 C 127.765625 43.835938 127.863281 45.496094 127.902344 46.0625 C 127.921875 46.199219 128.039062 46.199219 128.097656 46.199219 C 128.292969 46.199219 128.292969 46.121094 128.292969 45.789062 Z M 128.292969 43.933594 "/>
<path style=" stroke:none;fill-rule:nonzero;fill:rgb(0%,0%,0%);fill-opacity:1;" d="M 135.210938 49.519531 C 134.585938 50.574219 133.980469 50.945312 133.121094 50.984375 C 132.925781 51.003906 132.769531 51.003906 132.769531 51.335938 C 132.769531 51.433594 132.867188 51.511719 132.984375 51.511719 C 133.316406 51.511719 134.117188 51.472656 134.449219 51.472656 C 134.957031 51.472656 135.542969 51.511719 136.03125 51.511719 C 136.148438 51.511719 136.363281 51.511719 136.363281 51.179688 C 136.363281 51.003906 136.207031 50.984375 136.109375 50.984375 C 135.699219 50.964844 135.347656 50.808594 135.347656 50.378906 C 135.347656 50.125 135.464844 49.929688 135.699219 49.539062 L 137.066406 47.273438 L 141.636719 47.273438 C 141.65625 47.449219 141.65625 47.585938 141.675781 47.742188 C 141.714844 48.210938 141.929688 50.085938 141.929688 50.417969 C 141.929688 50.964844 141.011719 50.984375 140.738281 50.984375 C 140.542969 50.984375 140.347656 50.984375 140.347656 51.316406 C 140.347656 51.511719 140.503906 51.511719 140.601562 51.511719 C 140.914062 51.511719 141.265625 51.472656 141.578125 51.472656 L 142.59375 51.472656 C 143.6875 51.472656 144.488281 51.511719 144.507812 51.511719 C 144.625 51.511719 144.820312 51.511719 144.820312 51.179688 C 144.820312 50.984375 144.664062 50.984375 144.390625 50.984375 C 143.414062 50.984375 143.394531 50.828125 143.335938 50.300781 L 142.242188 39.109375 C 142.203125 38.738281 142.125 38.71875 141.929688 38.71875 C 141.753906 38.71875 141.65625 38.738281 141.480469 39.011719 Z M 137.359375 46.765625 L 140.972656 40.730469 L 141.578125 46.765625 Z M 137.359375 46.765625 "/>
<path style=" stroke:none;fill-rule:nonzero;fill:rgb(0%,0%,0%);fill-opacity:1;" d="M 156.738281 45.90625 L 161.738281 45.90625 C 162.03125 45.90625 162.363281 45.90625 162.363281 45.535156 C 162.363281 45.183594 162.03125 45.183594 161.738281 45.183594 L 156.738281 45.183594 L 156.738281 40.242188 C 156.738281 39.949219 156.738281 39.578125 156.386719 39.578125 C 156.035156 39.578125 156.035156 39.890625 156.035156 40.183594 L 156.035156 45.183594 L 151.035156 45.183594 C 150.722656 45.183594 150.390625 45.183594 150.390625 45.535156 C 150.390625 45.90625 150.722656 45.90625 151.035156 45.90625 L 156.035156 45.90625 L 156.035156 50.789062 L 151.035156 50.789062 C 150.722656 50.789062 150.390625 50.789062 150.390625 51.160156 C 150.390625 51.511719 150.722656 51.511719 151.035156 51.511719 L 161.738281 51.511719 C 162.03125 51.511719 162.363281 51.511719 162.363281 51.160156 C 162.363281 50.789062 162.03125 50.789062 161.738281 50.789062 L 156.738281 50.789062 Z M 156.738281 45.90625 "/>
<path style=" stroke:none;fill-rule:nonzero;fill:rgb(0%,0%,0%);fill-opacity:1;" d="M 173.75 44.871094 C 173.535156 44.871094 172.871094 44.871094 172.871094 45.613281 C 172.871094 46.042969 173.183594 46.355469 173.613281 46.355469 C 174.023438 46.355469 174.375 46.101562 174.375 45.574219 C 174.375 44.382812 173.105469 43.523438 171.660156 43.523438 C 169.570312 43.523438 167.890625 45.378906 167.890625 47.644531 C 167.890625 49.929688 169.609375 51.6875 171.640625 51.6875 C 174.003906 51.6875 174.550781 49.539062 174.550781 49.382812 C 174.550781 49.207031 174.414062 49.207031 174.375 49.207031 C 174.199219 49.207031 174.179688 49.265625 174.140625 49.480469 C 173.730469 50.75 172.773438 51.296875 171.796875 51.296875 C 170.703125 51.296875 169.257812 50.339844 169.257812 47.625 C 169.257812 44.636719 170.78125 43.914062 171.679688 43.914062 C 172.363281 43.914062 173.339844 44.1875 173.75 44.871094 Z M 173.75 44.871094 "/>
<path style=" stroke:none;fill-rule:nonzero;fill:rgb(0%,0%,0%);fill-opacity:1;" d="M 183.289062 47.683594 C 183.289062 45.359375 181.53125 43.523438 179.460938 43.523438 C 177.3125 43.523438 175.613281 45.417969 175.613281 47.683594 C 175.613281 49.96875 177.390625 51.6875 179.441406 51.6875 C 181.550781 51.6875 183.289062 49.929688 183.289062 47.683594 Z M 179.460938 51.296875 C 178.796875 51.296875 177.996094 51.003906 177.46875 50.125 C 176.980469 49.324219 176.960938 48.269531 176.960938 47.507812 C 176.960938 46.824219 176.960938 45.730469 177.527344 44.929688 C 178.015625 44.167969 178.816406 43.875 179.441406 43.875 C 180.144531 43.875 180.886719 44.1875 181.375 44.890625 C 181.941406 45.710938 181.941406 46.84375 181.941406 47.507812 C 181.941406 48.132812 181.941406 49.246094 181.472656 50.085938 C 180.964844 50.964844 180.144531 51.296875 179.460938 51.296875 Z M 179.460938 51.296875 "/>
<path style=" stroke:none;fill-rule:nonzero;fill:rgb(0%,0%,0%);fill-opacity:1;" d="M 189.792969 43.933594 C 189.792969 43.601562 189.792969 43.523438 189.617188 43.523438 C 189.480469 43.523438 189.128906 43.914062 189.011719 44.070312 C 188.445312 43.621094 187.898438 43.523438 187.3125 43.523438 C 185.144531 43.523438 184.5 44.695312 184.5 45.691406 C 184.5 45.886719 184.5 46.511719 185.183594 47.136719 C 185.769531 47.644531 186.375 47.761719 187.195312 47.917969 C 188.171875 48.113281 188.40625 48.171875 188.855469 48.542969 C 189.1875 48.796875 189.421875 49.207031 189.421875 49.695312 C 189.421875 50.476562 188.972656 51.335938 187.390625 51.335938 C 186.21875 51.335938 185.339844 50.652344 184.949219 48.855469 C 184.890625 48.542969 184.890625 48.523438 184.871094 48.503906 C 184.832031 48.425781 184.753906 48.425781 184.695312 48.425781 C 184.5 48.425781 184.5 48.523438 184.5 48.835938 L 184.5 51.277344 C 184.5 51.609375 184.5 51.6875 184.675781 51.6875 C 184.773438 51.6875 184.792969 51.667969 185.105469 51.296875 C 185.183594 51.179688 185.183594 51.140625 185.457031 50.847656 C 186.140625 51.6875 187.097656 51.6875 187.410156 51.6875 C 189.285156 51.6875 190.222656 50.652344 190.222656 49.226562 C 190.222656 48.269531 189.636719 47.683594 189.480469 47.527344 C 188.835938 46.980469 188.347656 46.863281 187.15625 46.648438 C 186.628906 46.550781 185.320312 46.296875 185.320312 45.222656 C 185.320312 44.65625 185.691406 43.835938 187.3125 43.835938 C 189.265625 43.835938 189.363281 45.496094 189.402344 46.0625 C 189.421875 46.199219 189.539062 46.199219 189.597656 46.199219 C 189.792969 46.199219 189.792969 46.121094 189.792969 45.789062 Z M 189.792969 43.933594 "/>
<path style=" stroke:none;fill-rule:nonzero;fill:rgb(0%,0%,0%);fill-opacity:1;" d="M 200.378906 40.476562 C 200.535156 39.8125 200.613281 39.792969 201.316406 39.792969 L 203.640625 39.792969 C 205.671875 39.792969 205.671875 41.511719 205.671875 41.667969 C 205.671875 43.113281 204.207031 44.96875 201.84375 44.96875 L 199.265625 44.96875 Z M 203.40625 45.105469 C 205.359375 44.753906 207.136719 43.386719 207.136719 41.746094 C 207.136719 40.339844 205.90625 39.265625 203.875 39.265625 L 198.113281 39.265625 C 197.78125 39.265625 197.625 39.265625 197.625 39.597656 C 197.625 39.792969 197.78125 39.792969 198.054688 39.792969 C 199.148438 39.792969 199.148438 39.929688 199.148438 40.125 C 199.148438 40.164062 199.148438 40.261719 199.070312 40.535156 L 196.648438 50.183594 C 196.492188 50.808594 196.453125 50.984375 195.203125 50.984375 C 194.851562 50.984375 194.675781 50.984375 194.675781 51.316406 C 194.675781 51.511719 194.792969 51.511719 195.144531 51.511719 L 201.296875 51.511719 C 204.03125 51.511719 206.160156 49.441406 206.160156 47.625 C 206.160156 46.160156 204.851562 45.261719 203.40625 45.105469 Z M 200.867188 50.984375 L 198.445312 50.984375 C 198.191406 50.984375 198.152344 50.984375 198.054688 50.964844 C 197.859375 50.964844 197.839844 50.925781 197.839844 50.769531 C 197.839844 50.652344 197.859375 50.535156 197.898438 50.378906 L 199.167969 45.320312 L 202.527344 45.320312 C 204.636719 45.320312 204.636719 47.292969 204.636719 47.449219 C 204.636719 49.167969 203.09375 50.984375 200.867188 50.984375 Z M 200.867188 50.984375 "/>
<path style=" stroke:none;fill-rule:nonzero;fill:rgb(0%,0%,0%);fill-opacity:1;" d="M 214.367188 50.652344 C 214.367188 50.125 213.9375 49.773438 213.507812 49.773438 C 212.980469 49.773438 212.628906 50.203125 212.628906 50.632812 C 212.628906 51.160156 213.058594 51.511719 213.488281 51.511719 C 214.015625 51.511719 214.367188 51.082031 214.367188 50.652344 Z M 214.367188 50.652344 "/>
<path style=" stroke:none;fill-rule:nonzero;fill:rgb(0%,0%,0%);fill-opacity:1;" d="M 222.316406 50.652344 C 222.316406 50.125 221.886719 49.773438 221.457031 49.773438 C 220.929688 49.773438 220.578125 50.203125 220.578125 50.632812 C 220.578125 51.160156 221.007812 51.511719 221.4375 51.511719 C 221.964844 51.511719 222.316406 51.082031 222.316406 50.652344 Z M 222.316406 50.652344 "/>
<path style=" stroke:none;fill-rule:nonzero;fill:rgb(0%,0%,0%);fill-opacity:1;" d="M 230.265625 50.652344 C 230.265625 50.125 229.835938 49.773438 229.40625 49.773438 C 228.878906 49.773438 228.527344 50.203125 228.527344 50.632812 C 228.527344 51.160156 228.957031 51.511719 229.386719 51.511719 C 229.914062 51.511719 230.265625 51.082031 230.265625 50.652344 Z M 230.265625 50.652344 "/>
</g>
</svg>
