<?xml version="1.0" encoding="UTF-8"?>
<svg width="869" height="473" xmlns="http://www.w3.org/2000/svg" xmlns:svg="http://www.w3.org/2000/svg" class="main-svg">
 <defs>
  <g class="clips" id="svg_32">
   <clipPath class="axesclip" id="clipe2a69ax">
    <rect x="80" y="0" width="645" height="473" id="svg_33"/>
   </clipPath>
   <clipPath class="axesclip" id="clipe2a69ay">
    <rect x="0" y="100" width="869" height="293" id="svg_34"/>
   </clipPath>
   <clipPath class="axesclip" id="clipe2a69axy">
    <rect x="80" y="100" width="645" height="293" id="svg_35"/>
   </clipPath>
  </g>
 </defs>
 <g>
  <title>Layer 1</title>
  <rect x="0" y="0" width="869" height="473" fill="rgb(255, 255, 255)" id="svg_36"/>
  <g class="draglayer" id="svg_37">
   <g id="svg_38"/>
  </g>
  <g class="subplot xy" id="svg_39">
   <rect x="80" y="100" width="645" height="293" fill="rgb(255, 255, 255)" stroke-width="0px" id="svg_40"/>
   <g id="svg_41">
    <path class="xgrid crisp" d="m241.25,100l0,293" stroke-width="1px" stroke="rgb(238, 238, 238)" id="svg_42"/>
    <path class="xgrid crisp" d="m402.5,100l0,293" stroke-width="1px" stroke="rgb(238, 238, 238)" id="svg_43"/>
    <path class="xgrid crisp" d="m563.75,100l0,293" stroke-width="1px" stroke="rgb(238, 238, 238)" id="svg_44"/>
    <path class="ygrid crisp" d="m80,338.080017l645,0" stroke-width="1px" stroke="rgb(238, 238, 238)" id="svg_45"/>
    <path class="ygrid crisp" d="m80,283.160004l645,0" stroke-width="1px" stroke="rgb(238, 238, 238)" id="svg_46"/>
    <path class="ygrid crisp" d="m80,228.240005l645,0" stroke-width="1px" stroke="rgb(238, 238, 238)" id="svg_47"/>
    <path class="ygrid crisp" d="m80,173.320007l645,0" stroke-width="1px" stroke="rgb(238, 238, 238)" id="svg_48"/>
    <path class="ygrid crisp" d="m80,118.400002l645,0" stroke-width="1px" stroke="rgb(238, 238, 238)" id="svg_49"/>
   </g>
   <g id="svg_50"/>
   <g id="svg_51">
    <path class="xzl zl crisp" d="m80,100l0,293" stroke-width="1px" stroke="rgb(68, 68, 68)" id="svg_52"/>
    <path class="yzl zl crisp" d="m80,393l645,0" stroke-width="1px" stroke="rgb(68, 68, 68)" id="svg_53"/>
   </g>
   <g id="svg_54"/>
   <g id="svg_23">
    <svg preserveAspectRatio="none" x="80" y="100" width="645" height="293" viewBox="0 0 645 293" id="svg_1">
     <g class="maplayer" id="svg_22"/>
     <g class="barlayer" id="svg_21"/>
     <g class="errorlayer" id="svg_18">
      <g class="errorbars" id="svg_20"/>
      <g class="errorbars" id="svg_19"/>
     </g>
     <g class="boxlayer" id="svg_17"/>
     <g class="scatterlayer" id="svg_2">
      <g class="trace scatter" stroke-miterlimit="2" id="svg_10">
       <path class="js-fill" d="m0,18.4l645,274.6l0,0l-645,0l0,-274.6z" fill-opacity="0.5" fill="rgb(31, 119, 180)" stroke-width="0px" id="svg_16"/>
       <path class="js-line" d="m0,18.4l645,274.6" stroke-width="2px" stroke="rgb(31, 119, 180)" fill="none" id="svg_15"/>
       <g class="points" id="svg_11">
        <path class="point" d="m3,18.4a3,3 0 1 1 -3,-3a3,3 0 0 1 3,3z" fill="rgb(31, 119, 180)" stroke-width="0px" id="svg_14"/>
        <path class="point" d="m325.5,155.699997a3,3 0 1 1 -3,-3a3,3 0 0 1 3,3z" fill="rgb(31, 119, 180)" stroke-width="0px" id="svg_13"/>
        <path class="point" d="m648,293a3,3 0 1 1 -3,-3a3,3 0 0 1 3,3z" fill="rgb(31, 119, 180)" stroke-width="0px" id="svg_12"/>
       </g>
      </g>
      <g class="trace scatter" stroke-miterlimit="2" id="svg_3">
       <path class="js-fill" d="m0,128.240005l645,65.899979l0,98.860016l-645,0l0,-164.759995z" fill-opacity="0.5" fill="rgb(255, 127, 14)" stroke-width="0px" id="svg_9"/>
       <path class="js-line" d="m0,128.240005l645,65.899979" stroke-width="2px" stroke="rgb(255, 127, 14)" fill="none" id="svg_8"/>
       <g class="points" id="svg_4">
        <path class="point" d="m3,128.240005a3,3 0 1 1 -3,-2.999992a3,3 0 0 1 3,2.999992z" fill="rgb(255, 127, 14)" stroke-width="0px" id="svg_7"/>
        <path class="point" d="m325.5,161.190002a3,3 0 1 1 -3,-3a3,3 0 0 1 3,3z" fill="rgb(255, 127, 14)" stroke-width="0px" id="svg_6"/>
        <path class="point" d="m648,194.139999a3,3 0 1 1 -3,-3a3,3 0 0 1 3,3z" fill="rgb(255, 127, 14)" stroke-width="0px" id="svg_5"/>
       </g>
      </g>
     </g>
    </svg>
   </g>
   <g id="svg_77"/>
   <path class="crisp" d="m79,393.5l647,0" stroke-opacity="0" stroke="rgb(0, 0, 0)" stroke-width="1px" fill="none" id="svg_78"/>
   <path class="crisp" d="m79.5,99l0,294" stroke-width="1px" stroke-opacity="0" stroke="rgb(0, 0, 0)" fill="none" id="svg_79"/>
   <g id="svg_80"/>
   <g id="svg_81">
    <g class="xtick" id="svg_82">
     <text text-anchor="middle" x="80" y="407" fill="rgb(68, 68, 68)" font-size="12px" font-family="'Open sans', verdana, arial, sans-serif" id="svg_83">0</text>
    </g>
    <g class="xtick" id="svg_84">
     <text text-anchor="middle" x="241.25" y="407" fill="rgb(68, 68, 68)" font-size="12px" font-family="'Open sans', verdana, arial, sans-serif" id="svg_85">0.5</text>
    </g>
    <g class="xtick" id="svg_86">
     <text text-anchor="middle" x="402.5" y="407" fill="rgb(68, 68, 68)" font-size="12px" font-family="'Open sans', verdana, arial, sans-serif" id="svg_87">1</text>
    </g>
    <g class="xtick" id="svg_88">
     <text text-anchor="middle" x="563.75" y="407" fill="rgb(68, 68, 68)" font-size="12px" font-family="'Open sans', verdana, arial, sans-serif" id="svg_89">1.5</text>
    </g>
    <g class="xtick" id="svg_90">
     <text text-anchor="middle" x="725" y="407" fill="rgb(68, 68, 68)" font-size="12px" font-family="'Open sans', verdana, arial, sans-serif" id="svg_91">2</text>
    </g>
   </g>
   <g id="svg_92">
    <g class="ytick" id="svg_93">
     <text text-anchor="end" x="78" y="399" fill="rgb(68, 68, 68)" font-size="12px" font-family="'Open sans', verdana, arial, sans-serif" id="svg_94">0</text>
    </g>
    <g class="ytick" id="svg_95">
     <text text-anchor="end" x="78" y="344.08" fill="rgb(68, 68, 68)" font-size="12px" font-family="'Open sans', verdana, arial, sans-serif" id="svg_96">1</text>
    </g>
    <g class="ytick" id="svg_97">
     <text text-anchor="end" x="78" y="289.16" fill="rgb(68, 68, 68)" font-size="12px" font-family="'Open sans', verdana, arial, sans-serif" id="svg_98">2</text>
    </g>
    <g class="ytick" id="svg_99">
     <text text-anchor="end" x="78" y="234.24001" fill="rgb(68, 68, 68)" font-size="12px" font-family="'Open sans', verdana, arial, sans-serif" id="svg_100">3</text>
    </g>
    <g class="ytick" id="svg_101">
     <text text-anchor="end" x="78" y="179.32" fill="rgb(68, 68, 68)" font-size="12px" font-family="'Open sans', verdana, arial, sans-serif" id="svg_102">4</text>
    </g>
    <g class="ytick" id="svg_103">
     <text text-anchor="end" x="78" y="124.4" fill="rgb(68, 68, 68)" font-size="12px" font-family="'Open sans', verdana, arial, sans-serif" id="svg_104">5</text>
    </g>
   </g>
   <g id="svg_105"/>
  </g>
  <g class="shapelayer" id="svg_106"/>
  <g class="glimages" id="svg_107"/>
  <text class="js-plot-link-container" y="464" text-anchor="end" x="862" fill="rgb(68, 68, 68)" font-size="12px" font-family="'Open Sans', Arial, sans-serif" id="svg_108"/>
 </g>
</svg>