<?xml version="1.0" encoding="UTF-8"?>
<svg width="869" height="473" xmlns="http://www.w3.org/2000/svg" xmlns:svg="http://www.w3.org/2000/svg" class="main-svg">
 <defs>
  <g class="clips" id="svg_119">
   <clipPath class="axesclip" id="clip941332x">
    <rect x="80" y="0" width="645" height="473" id="svg_120"/>
   </clipPath>
   <clipPath class="axesclip" id="clip941332y">
    <rect x="0" y="100" width="869" height="293" id="svg_121"/>
   </clipPath>
   <clipPath class="axesclip" id="clip941332xy">
    <rect x="80" y="100" width="645" height="293" id="svg_122"/>
   </clipPath>
  </g>
 </defs>
 <g>
  <title>Layer 1</title>
  <rect x="36.000004" y="70.999985" width="724.999974" height="362.000013" fill="rgb(255, 255, 255)" id="svg_123"/>
  <g class="draglayer" id="svg_124">
   <g id="svg_125"/>
  </g>
  <g class="subplot xy" id="svg_126">
   <rect x="80" y="100" width="645" height="293" fill="rgb(255, 255, 255)" stroke-width="0px" id="svg_127"/>
   <g id="svg_128">
    <path class="xgrid crisp" d="m241.25,100l0,293" stroke-width="1px" stroke="rgb(238, 238, 238)" id="svg_129"/>
    <path class="xgrid crisp" d="m402.5,100l0,293" stroke-width="1px" stroke="rgb(238, 238, 238)" id="svg_130"/>
    <path class="xgrid crisp" d="m563.75,100l0,293" stroke-width="1px" stroke="rgb(238, 238, 238)" id="svg_131"/>
    <path class="ygrid crisp" d="m80,338.080017l645,0" stroke-width="1px" stroke="rgb(238, 238, 238)" id="svg_132"/>
    <path class="ygrid crisp" d="m80,283.160004l645,0" stroke-width="1px" stroke="rgb(238, 238, 238)" id="svg_133"/>
    <path class="ygrid crisp" d="m80,228.240005l645,0" stroke-width="1px" stroke="rgb(238, 238, 238)" id="svg_134"/>
    <path class="ygrid crisp" d="m80,173.320007l645,0" stroke-width="1px" stroke="rgb(238, 238, 238)" id="svg_135"/>
    <path class="ygrid crisp" d="m80,118.400002l645,0" stroke-width="1px" stroke="rgb(238, 238, 238)" id="svg_136"/>
   </g>
   <g id="svg_137"/>
   <g id="svg_138">
    <path class="xzl zl crisp" d="m80,100l0,293" stroke-width="1px" stroke="rgb(68, 68, 68)" id="svg_139"/>
    <path class="yzl zl crisp" d="m80,393l645,0" stroke-width="1px" stroke="rgb(68, 68, 68)" id="svg_140"/>
   </g>
   <g id="svg_141"/>
   <g id="svg_23">
    <svg preserveAspectRatio="none" x="80" y="100" width="645" height="293" viewBox="0 0 645 293" id="svg_1">
     <g class="maplayer" id="svg_22"/>
     <g class="barlayer" id="svg_21"/>
     <g class="errorlayer" id="svg_18">
      <g class="errorbars" id="svg_20"/>
      <g class="errorbars" id="svg_19"/>
     </g>
     <g class="boxlayer" id="svg_17"/>
     <g class="scatterlayer" id="svg_2">
      <g class="trace scatter" stroke-miterlimit="2" id="svg_10">
       <path class="js-fill" d="m0,18.4l645,274.6l0,0l-645,0l0,-274.6z" fill-opacity="0.5" fill="rgb(31, 119, 180)" stroke-width="0px" id="svg_16"/>
       <path class="js-line" d="m0,18.4l645,274.6" stroke-width="2px" stroke="rgb(31, 119, 180)" fill="none" id="svg_15"/>
       <g class="points" id="svg_11">
        <path class="point" d="m3,18.4a3,3 0 1 1 -3,-3a3,3 0 0 1 3,3z" fill="rgb(31, 119, 180)" stroke-width="0px" id="svg_14"/>
        <path class="point" d="m325.5,155.699997a3,3 0 1 1 -3,-3a3,3 0 0 1 3,3z" fill="rgb(31, 119, 180)" stroke-width="0px" id="svg_13"/>
        <path class="point" d="m648,293a3,3 0 1 1 -3,-3a3,3 0 0 1 3,3z" fill="rgb(31, 119, 180)" stroke-width="0px" id="svg_12"/>
       </g>
      </g>
      <g class="trace scatter" stroke-miterlimit="2" id="svg_3">
       <path class="js-fill" d="m0,194.139999l645,-65.899994l0,164.759995l-645,0l0,-98.860001z" fill-opacity="0.5" fill="rgb(255, 127, 14)" stroke-width="0px" id="svg_9"/>
       <path class="js-line" d="m0,194.139999l645,-65.899994" stroke-width="2px" stroke="rgb(255, 127, 14)" fill="none" id="svg_8"/>
       <g class="points" id="svg_4">
        <path class="point" d="m3,194.139999a3,3 0 1 1 -3,-3a3,3 0 0 1 3,3z" fill="rgb(255, 127, 14)" stroke-width="0px" id="svg_7"/>
        <path class="point" d="m325.5,161.190002a3,3 0 1 1 -3,-3a3,3 0 0 1 3,3z" fill="rgb(255, 127, 14)" stroke-width="0px" id="svg_6"/>
        <path class="point" d="m648,128.240005a3,3 0 1 1 -3,-3a3,3 0 0 1 3,3z" fill="rgb(255, 127, 14)" stroke-width="0px" id="svg_5"/>
       </g>
      </g>
     </g>
    </svg>
   </g>
   <g id="svg_164"/>
   <path class="crisp" d="m79,393.5l647,0" stroke-opacity="0" stroke="rgb(0, 0, 0)" stroke-width="1px" fill="none" id="svg_165"/>
   <path class="crisp" d="m79.5,99l0,294" stroke-width="1px" stroke-opacity="0" stroke="rgb(0, 0, 0)" fill="none" id="svg_166"/>
   <g id="svg_167"/>
   <g id="svg_168">
    <g class="xtick" id="svg_169">
     <text text-anchor="middle" x="80" y="407" fill="rgb(68, 68, 68)" font-size="12px" font-family="'Open sans', verdana, arial, sans-serif" id="svg_170">0</text>
    </g>
    <g class="xtick" id="svg_171">
     <text text-anchor="middle" x="241.25" y="407" fill="rgb(68, 68, 68)" font-size="12px" font-family="'Open sans', verdana, arial, sans-serif" id="svg_172">0.5</text>
    </g>
    <g class="xtick" id="svg_173">
     <text text-anchor="middle" x="402.5" y="407" fill="rgb(68, 68, 68)" font-size="12px" font-family="'Open sans', verdana, arial, sans-serif" id="svg_174">1</text>
    </g>
    <g class="xtick" id="svg_175">
     <text text-anchor="middle" x="563.75" y="407" fill="rgb(68, 68, 68)" font-size="12px" font-family="'Open sans', verdana, arial, sans-serif" id="svg_176">1.5</text>
    </g>
    <g class="xtick" id="svg_177">
     <text text-anchor="middle" x="725" y="407" fill="rgb(68, 68, 68)" font-size="12px" font-family="'Open sans', verdana, arial, sans-serif" id="svg_178">2</text>
    </g>
   </g>
   <g id="svg_179">
    <g class="ytick" id="svg_180">
     <text text-anchor="end" x="78" y="399" fill="rgb(68, 68, 68)" font-size="12px" font-family="'Open sans', verdana, arial, sans-serif" id="svg_181">0</text>
    </g>
    <g class="ytick" id="svg_182">
     <text text-anchor="end" x="78" y="344.080002" fill="rgb(68, 68, 68)" font-size="12px" font-family="'Open sans', verdana, arial, sans-serif" id="svg_183">1</text>
    </g>
    <g class="ytick" id="svg_184">
     <text text-anchor="end" x="78" y="289.160004" fill="rgb(68, 68, 68)" font-size="12px" font-family="'Open sans', verdana, arial, sans-serif" id="svg_185">2</text>
    </g>
    <g class="ytick" id="svg_186">
     <text text-anchor="end" x="78" y="234.240005" fill="rgb(68, 68, 68)" font-size="12px" font-family="'Open sans', verdana, arial, sans-serif" id="svg_187">3</text>
    </g>
    <g class="ytick" id="svg_188">
     <text text-anchor="end" x="78" y="179.32" fill="rgb(68, 68, 68)" font-size="12px" font-family="'Open sans', verdana, arial, sans-serif" id="svg_189">4</text>
    </g>
    <g class="ytick" id="svg_190">
     <text text-anchor="end" x="78" y="124.4" fill="rgb(68, 68, 68)" font-size="12px" font-family="'Open sans', verdana, arial, sans-serif" id="svg_191">5</text>
    </g>
   </g>
   <g id="svg_192"/>
  </g>
  <g class="shapelayer" id="svg_193"/>
  <g class="glimages" id="svg_194"/>
  <text class="js-plot-link-container" y="464" text-anchor="end" x="862" fill="rgb(68, 68, 68)" font-size="12px" font-family="'Open Sans', Arial, sans-serif" id="svg_195"/>
 </g>
</svg>