<?xml version="1.0"?>
<svg xmlns="http://www.w3.org/2000/svg" xmlns:svg="http://www.w3.org/2000/svg" xmlns:xlink="http://www.w3.org/1999/xlink" width="784" height="371" class="main-svg">
  <defs>
    <g id="svg_272" class="clips">
      <clipPath id="clip75ef3ax" class="axesclip">
        <rect id="svg_273" height="371" width="784" y="0" x="0"/>
      </clipPath>
      <clipPath id="clip75ef3ay" class="axesclip">
        <rect id="svg_274" height="371" width="784" y="0" x="0"/>
      </clipPath>
      <clipPath id="clip75ef3axy" class="axesclip">
        <rect id="svg_275" height="371" width="784" y="0" x="0"/>
      </clipPath>
    </g>
  </defs>
  <g>
    <title>Layer 1</title>
    <rect id="svg_276" fill="rgb(255, 255, 255)" height="371" width="784" y="0" x="0"/>
    <g id="svg_277" class="draglayer">
      <g id="svg_278"/>
    </g>
    <g id="svg_279" class="subplot xy">
      <rect id="svg_280" stroke-width="0px" fill="rgb(0, 0, 0)" fill-opacity="0" height="371" width="784" y="0" x="0"/>
      <g id="svg_281">
        <path id="svg_282" stroke="rgb(238, 238, 238)" stroke-width="1px" d="m44.200001,0l0,371" class="xgrid crisp"/>
        <path id="svg_283" stroke="rgb(238, 238, 238)" stroke-width="1px" d="m353.359985,0l0,371" class="xgrid crisp"/>
        <path id="svg_284" stroke="rgb(238, 238, 238)" stroke-width="1px" d="m507.929993,0l0,371" class="xgrid crisp"/>
        <path id="svg_285" stroke="rgb(238, 238, 238)" stroke-width="1px" d="m662.51001,0l0,371" class="xgrid crisp"/>
        <path id="svg_286" stroke="rgb(238, 238, 238)" stroke-width="1px" d="m0,315.059998l784,0" class="ygrid crisp"/>
        <path id="svg_287" stroke="rgb(238, 238, 238)" stroke-width="1px" d="m0,250.279999l784,0" class="ygrid crisp"/>
        <path id="svg_288" stroke="rgb(238, 238, 238)" stroke-width="1px" d="m0,120.720001l784,0" class="ygrid crisp"/>
        <path id="svg_289" stroke="rgb(238, 238, 238)" stroke-width="1px" d="m0,55.939999l784,0" class="ygrid crisp"/>
      </g>
      <g id="svg_290"/>
      <g id="svg_291">
        <path id="svg_292" stroke="rgb(68, 68, 68)" stroke-width="1px" d="m198.779999,0l0,371" class="xzl zl crisp"/>
        <path id="svg_293" stroke="rgb(68, 68, 68)" stroke-width="1px" d="m0,185.5l784,0" class="yzl zl crisp"/>
      </g>
      <g id="svg_294"/>
      <g id="svg_1">
        <svg id="svg_295" viewBox="0 0 784 371" height="371" width="784" y="0" x="0" preserveAspectRatio="none">
          <g id="svg_296" class="maplayer"/>
          <g id="svg_297" class="barlayer"/>
          <g id="svg_298" class="errorlayer">
            <g id="svg_299" class="errorbars"/>
          </g>
          <g id="svg_300" class="boxlayer"/>
          <g id="svg_301" class="scatterlayer">
            <g id="svg_302" stroke-miterlimit="2" class="trace scatter">
              <path id="svg_303" fill="none" stroke="rgb(31, 119, 180)" stroke-width="2px" d="m44.200001,347.450012l309.159985,-323.900013l38.640015,0l347.799988,0" class="js-line"/>
              <g id="svg_304" class="points">
                <path id="svg_305" stroke-width="0px" fill="rgb(31, 119, 180)" d="m48.200001,347.450012a4,4 0 1 1 -4,-4a4,4 0 0 1 4,4z" class="point"/>
                <path id="svg_306" stroke-width="0px" fill="rgb(31, 119, 180)" d="m86.839996,306.959991a4,4 0 1 1 -4,-4a4,4 0 0 1 4,4z" class="point"/>
                <path id="svg_307" stroke-width="0px" fill="rgb(31, 119, 180)" d="m125.489998,266.480011a4,4 0 1 1 -4,-4a4,4 0 0 1 4,4z" class="point"/>
                <path id="svg_308" stroke-width="0px" fill="rgb(31, 119, 180)" d="m164.130005,225.990005a4,4 0 1 1 -4,-4a4,4 0 0 1 4,4z" class="point"/>
                <path id="svg_309" stroke-width="0px" fill="rgb(31, 119, 180)" d="m202.779999,185.5a4,4 0 1 1 -4,-4a4,4 0 0 1 4,4z" class="point"/>
                <path id="svg_310" stroke-width="0px" fill="rgb(31, 119, 180)" d="m241.419998,145.009995a4,4 0 1 1 -4,-4a4,4 0 0 1 4,4z" class="point"/>
                <path id="svg_311" stroke-width="0px" fill="rgb(31, 119, 180)" d="m280.070007,104.529999a4,4 0 1 1 -4,-4a4,4 0 0 1 4,4z" class="point"/>
                <path id="svg_312" stroke-width="0px" fill="rgb(31, 119, 180)" d="m318.709991,64.040001a4,4 0 1 1 -4,-4a4,4 0 0 1 4,4z" class="point"/>
                <path id="svg_313" stroke-width="0px" fill="rgb(31, 119, 180)" d="m357.359985,23.549999a4,4 0 1 1 -4,-4a4,4 0 0 1 4,4z" class="point"/>
                <path id="svg_314" stroke-width="0px" fill="rgb(31, 119, 180)" d="m396,23.549999a4,4 0 1 1 -4,-4a4,4 0 0 1 4,4z" class="point"/>
                <path id="svg_315" stroke-width="0px" fill="rgb(31, 119, 180)" d="m434.640015,23.549999a4,4 0 1 1 -4,-4a4,4 0 0 1 4,4z" class="point"/>
                <path id="svg_316" stroke-width="0px" fill="rgb(31, 119, 180)" d="m473.290009,23.549999a4,4 0 1 1 -4,-4a4,4 0 0 1 4,4z" class="point"/>
                <path id="svg_317" stroke-width="0px" fill="rgb(31, 119, 180)" d="m511.929993,23.549999a4,4 0 1 1 -4,-4a4,4 0 0 1 4,4z" class="point"/>
                <path id="svg_318" stroke-width="0px" fill="rgb(31, 119, 180)" d="m550.580017,23.549999a4,4 0 1 1 -4,-4a4,4 0 0 1 4,4z" class="point"/>
                <path id="svg_319" stroke-width="0px" fill="rgb(31, 119, 180)" d="m589.219971,23.549999a4,4 0 1 1 -4,-4a4,4 0 0 1 4,4z" class="point"/>
                <path id="svg_320" stroke-width="0px" fill="rgb(31, 119, 180)" d="m627.869995,23.549999a4,4 0 1 1 -4,-4a4,4 0 0 1 4,4z" class="point"/>
                <path id="svg_321" stroke-width="0px" fill="rgb(31, 119, 180)" d="m666.51001,23.549999a4,4 0 1 1 -4,-4a4,4 0 0 1 4,4z" class="point"/>
                <path id="svg_322" stroke-width="0px" fill="rgb(31, 119, 180)" d="m705.159973,23.549999a4,4 0 1 1 -4,-4a4,4 0 0 1 4,4z" class="point"/>
                <path id="svg_323" stroke-width="0px" fill="rgb(31, 119, 180)" d="m743.799988,23.549999a4,4 0 1 1 -4,-4a4,4 0 0 1 4,4z" class="point"/>
              </g>
            </g>
          </g>
        </svg>
      </g>
      <g id="svg_324"/>
      <path id="svg_325" fill="none" stroke-width="1px" stroke="rgb(0, 0, 0)" stroke-opacity="0" d="m-1,371.5l786,0" class="crisp"/>
      <path id="svg_326" fill="none" stroke="rgb(0, 0, 0)" stroke-opacity="0" stroke-width="1px" d="m-0.5,-1l0,372" class="crisp"/>
      <g id="svg_327"/>
      <g id="svg_328">
        <g id="svg_329" class="xtick">
          <text id="svg_330" font-family="'Droid Sans', sans-serif" font-size="22px" fill="rgb(68, 68, 68)" y="395" x="44.200001" text-anchor="middle">&#x2212;1</text>
        </g>
        <g id="svg_331" class="xtick">
          <text id="svg_332" font-family="'Droid Sans', sans-serif" font-size="22px" fill="rgb(68, 68, 68)" y="395" x="198.779999" text-anchor="middle">0</text>
        </g>
        <g id="svg_333" class="xtick">
          <text id="svg_334" font-family="'Droid Sans', sans-serif" font-size="22px" fill="rgb(68, 68, 68)" y="395" x="353.359985" text-anchor="middle">1</text>
        </g>
        <g id="svg_335" class="xtick">
          <text id="svg_336" font-family="'Droid Sans', sans-serif" font-size="22px" fill="rgb(68, 68, 68)" y="395" x="507.929993" text-anchor="middle">2</text>
        </g>
        <g id="svg_337" class="xtick">
          <text id="svg_338" font-family="'Droid Sans', sans-serif" font-size="22px" fill="rgb(68, 68, 68)" y="395" x="662.51001" text-anchor="middle">3</text>
        </g>
      </g>
      <g id="svg_339">
        <g id="svg_340" class="ytick">
          <text id="svg_341" font-family="'Droid Sans', sans-serif" font-size="22px" fill="rgb(68, 68, 68)" y="326.059998" x="-2" text-anchor="end">&#x2212;4</text>
        </g>
        <g id="svg_342" class="ytick">
          <text id="svg_343" font-family="'Droid Sans', sans-serif" font-size="22px" fill="rgb(68, 68, 68)" y="261.279999" x="-2" text-anchor="end">&#x2212;2</text>
        </g>
        <g id="svg_344" class="ytick">
          <text id="svg_345" font-family="'Droid Sans', sans-serif" font-size="22px" fill="rgb(68, 68, 68)" y="196.5" x="-2" text-anchor="end">0</text>
        </g>
        <g id="svg_346" class="ytick">
          <text id="svg_347" font-family="'Droid Sans', sans-serif" font-size="22px" fill="rgb(68, 68, 68)" y="131.720001" x="-2" text-anchor="end">2</text>
        </g>
        <g id="svg_348" class="ytick">
          <text id="svg_349" font-family="'Droid Sans', sans-serif" font-size="22px" fill="rgb(68, 68, 68)" y="66.939999" x="-2" text-anchor="end">4</text>
        </g>
      </g>
      <g id="svg_350"/>
    </g>
    <g id="svg_351" class="shapelayer"/>
    <g id="svg_352" class="glimages"/>
    <g id="svg_353" class="geoimages"/>
    <text id="svg_354" font-family="'Open Sans', Arial, sans-serif" font-size="12px" fill="rgb(68, 68, 68)" x="777" text-anchor="end" y="362" class="js-plot-link-container"/>
    <g id="svg_355" class="infolayer">
      <g id="svg_356" class="g-gtitle"/>
      <g id="svg_357" class="g-xtitle"/>
      <g id="svg_358" class="g-ytitle"/>
      <g id="svg_359" class="annotation">
        <g id="svg_46" class="annotation-text-g">
          <svg id="svg_360" height="27" width="91" y="108" x="294">
            <rect id="svg_361" stroke-width="1px" stroke="rgb(0, 0, 0)" stroke-opacity="0" fill="rgb(0, 0, 0)" fill-opacity="0" height="26" width="90" y="0.5" x="0.5" class="bg"/>
            <g id="svg_91" class="annotation-math-group">
              <svg xmlns:xlink="http://www.w3.org/1999/xlink" id="svg_362" width="8.911ex" y="2" x="1" preserveAspectRatio="xMinYMin meet" height="2.475ex" class="annotation-math" viewBox="0 -783.4581492681522 3835.5555555555557 1066.9162985363043">
                <defs>
                  <path d="m131,622q-7,7 -11,9t-16,3t-43,3l-33,0l0,46l201,0l38,0l79,0q77,0 113,-5t72,-27q43,-24 68,-61t25,-78q0,-51 -41,-93t-107,-59l-10,-3q73,-9 129,-55t56,-115q0,-68 -51,-120t-131,-64q-13,-2 -227,-3l-214,0l0,46l33,0q42,1 51,3t19,12l0,561zm380,-109q0,47 -26,81t-69,42q-1,0 -13,0t-32,0t-38,1q-67,0 -82,-1t-19,-8q-3,-4 -3,-129l0,-125l83,0l84,1l10,2q4,1 11,3t25,13t32,24t25,39t12,57zm26,-325q0,51 -28,94t-79,54l-101,1l-100,0l0,-137l0,-84q0,-59 5,-64q6,-5 100,-5l49,0q42,0 60,6q43,14 68,51t26,84z" stroke-width="10" id="svg_90"/>
                  <path d="m21,287q1,6 3,16t12,38t20,47t32,37t44,17t43,-7t30,-18t16,-22t8,-19l2,-7q0,-2 1,-2l11,11q60,64 141,64q17,0 31,-2t26,-7t19,-10t15,-12t10,-13t8,-13t4,-12t3,-9t2,-7l8,10q63,75 149,75q54,0 87,-27t34,-79q0,-51 -38,-158t-38,-128q1,-14 5,-19t15,-5q28,0 52,30t39,82q3,11 6,13t16,2q20,0 20,-8q0,-1 -4,-15q-8,-29 -22,-57t-46,-56t-69,-27q-47,0 -68,27t-21,56q0,19 36,120t37,152q0,59 -44,59l-5,0q-86,0 -145,-101l-7,-12l-33,-134q-33,-131 -38,-141q-13,-27 -43,-27q-13,0 -21,7t-11,12t-3,10q0,11 34,143l36,146q3,15 3,38q0,59 -44,59l-5,0q-86,0 -145,-101l-7,-12l-33,-134q-33,-131 -38,-141q-13,-27 -43,-27q-13,0 -21,6t-11,12t-2,10q0,13 38,164q39,154 39,161q3,15 3,27q0,36 -25,36q-22,0 -37,-28t-23,-61t-12,-36q-2,-2 -16,-2l-14,0q-6,6 -6,9z" stroke-width="10" id="svg_89"/>
                  <path d="m33,157q0,101 76,192t171,92q51,0 90,-49q16,30 46,30q13,0 23,-8t10,-20q0,-13 -37,-160t-38,-166q0,-25 7,-33t21,-9q9,1 20,9q21,20 41,96q6,20 10,21q2,1 10,1l4,0q19,0 19,-9q0,-6 -5,-27t-20,-54t-32,-50q-13,-13 -32,-21q-8,-2 -24,-2q-34,0 -57,15t-30,31l-6,15q-1,1 -4,-1q-2,-2 -4,-4q-59,-56 -120,-56q-55,0 -97,40t-42,127zm318,171q0,6 -5,22t-23,35t-46,20q-35,0 -67,-31t-50,-81q-29,-79 -41,-164q0,-3 0,-11t-1,-12q0,-45 18,-62t43,-18q38,0 75,33t44,51q2,4 27,107t26,111z" stroke-width="10" id="svg_88"/>
                  <path d="m52,289q7,42 54,97t116,56q35,0 64,-18t43,-45q42,63 101,63q37,0 64,-22t28,-59q0,-29 -14,-47t-27,-22t-23,-4q-19,0 -31,11t-12,29q0,46 50,63q-11,13 -40,13q-13,0 -19,-2q-38,-16 -56,-66q-60,-221 -60,-258q0,-28 16,-40t35,-12q37,0 73,33t49,81q3,10 6,11t16,2l4,0q15,0 15,-8q0,-1 -2,-11q-16,-57 -62,-101t-107,-44q-70,0 -106,63q-41,-62 -94,-62l-6,0q-49,0 -70,26t-22,55q0,32 19,52t45,20q43,0 43,-42q0,-20 -12,-35t-23,-20t-13,-5l-3,-1q0,-1 6,-4t16,-7t19,-3q36,0 62,45q9,16 23,68t28,108t16,66q5,27 5,39q0,28 -15,40t-34,12q-40,0 -75,-32t-49,-82q-2,-9 -5,-10t-16,-2l-14,0q-6,6 -6,11z" stroke-width="10" id="svg_47"/>
                  <path d="m184,600q0,24 19,42t44,19q18,0 30,-12t13,-30q0,-23 -20,-42t-44,-20q-15,0 -28,10t-14,33zm-163,-313q0,8 9,31t24,51t44,51t60,22q39,0 65,-23t27,-62q0,-17 -14,-56t-40,-105t-42,-113q-5,-22 -5,-32q0,-25 17,-25q9,0 19,3t23,14t27,35t25,59q3,12 5,14t17,2q20,0 20,-10q0,-8 -9,-31t-25,-51t-45,-50t-62,-22q-32,0 -59,21t-28,64q0,17 5,32t43,114q38,101 44,121t7,39q0,24 -17,24l-2,0q-30,0 -55,-33t-38,-84q-1,-1 -2,-3t-1,-3t-2,-2t-3,-1t-4,0t-8,0l-14,0q-6,6 -6,9z" stroke-width="10" id="svg_87"/>
                  <path d="m311,43q-15,-13 -44,-28t-61,-15q-63,0 -101,45t-39,115q0,105 77,193t171,89q47,0 87,-48l3,4q2,3 5,6t9,8t13,7t16,3q14,0 23,-9t10,-19q0,-15 -57,-242t-60,-232q-18,-54 -77,-89t-135,-36q-141,0 -141,68q0,26 18,46t46,20q15,0 28,-9t14,-31q0,-10 -2,-19t-7,-14t-8,-10t-7,-8l-2,-2l1,0q10,-3 60,-3q38,0 60,12q23,11 43,33t28,47q6,19 16,62q13,48 13,56zm73,285l-4,11q-3,11 -5,15t-6,14t-10,14t-13,11t-18,9t-22,3q-44,0 -85,-53q-30,-39 -50,-119t-20,-116q0,-79 62,-79q56,0 110,70l8,10l53,210z" stroke-width="10" id="svg_86"/>
                  <path d="m137,683q1,0 72,5t73,6q12,0 12,-9q0,-11 -36,-151q-38,-148 -38,-151q0,-2 7,5q61,54 130,54q54,0 87,-27t34,-79q0,-51 -38,-158t-38,-128q1,-14 5,-19t15,-5q28,0 52,30t39,82q3,11 6,13t16,2q20,0 20,-8q0,-1 -4,-15q-16,-59 -51,-97q-34,-43 -81,-43l-5,0q-47,0 -68,27t-21,57q0,16 36,118t37,153q0,59 -44,59l-5,0q-83,0 -144,-98l-7,-13l-34,-135q-32,-130 -37,-142q-13,-27 -44,-27q-14,0 -24,9t-11,18q0,14 73,304l74,296q0,13 -7,16t-39,5l-21,0q-6,6 -6,8t2,19q5,19 13,19z" stroke-width="10" id="svg_85"/>
                  <path d="m26,385q-7,7 -7,10q0,4 3,16t5,14q2,5 9,5t51,1l53,0l19,80q3,11 7,29t7,26t6,20t8,17t10,12t14,9t18,2q18,-1 25,-11t7,-19q0,-7 -9,-47t-20,-79l-10,-37q0,-2 50,-2l51,0q7,-7 7,-11q0,-22 -13,-35l-107,0l-36,-145q-39,-160 -39,-172q0,-42 27,-42q35,0 68,34t53,84q2,6 5,7t15,2l4,0q15,0 15,-8q0,-3 -3,-12q-5,-16 -18,-38t-34,-47t-51,-42t-61,-17q-30,0 -57,15t-39,52q-2,8 -2,27l0,18l35,140q35,141 36,142q0,2 -51,2l-51,0z" stroke-width="10" id="svg_84"/>
                  <path d="m21,287q1,3 2,8t5,22t10,31t15,33t20,30t26,22t33,9q29,0 51,-12t31,-22t11,-20q2,-6 3,-6t8,7q48,52 111,52l3,0q48,0 72,-41q8,-19 8,-37q0,-30 -13,-48t-26,-23t-25,-4q-20,0 -32,11t-12,29q0,48 56,64q-22,13 -36,13q-56,0 -103,-74q-10,-16 -15,-33t-34,-133q-34,-140 -39,-149q-13,-27 -43,-27q-13,0 -21,6t-11,12t-2,10q0,13 40,172t40,177q0,39 -26,39q-21,0 -36,-28t-24,-61t-11,-36q-2,-2 -16,-2l-14,0q-6,6 -6,9z" stroke-width="10" id="svg_83"/>
                  <path d="m201,-11q-75,0 -121,49t-46,118q0,65 30,123t82,101q76,61 155,61q32,0 40,-1q13,-3 26,-7t35,-16t36,-30t26,-49t12,-70q0,-107 -86,-193t-189,-86zm-80,131q0,-50 26,-72t59,-22q44,0 83,32t62,84q9,21 23,74t14,92q0,44 -18,67q-24,30 -64,30q-63,0 -111,-58q-37,-44 -55,-117t-19,-110z" stroke-width="10" id="svg_82"/>
                  <path d="m580,385q0,21 19,39t42,19q18,0 33,-18t16,-57q0,-29 -19,-115q-15,-56 -27,-92t-35,-81t-55,-68t-72,-23q-44,0 -78,16t-49,43q-1,-1 -3,-4q-41,-55 -100,-55q-26,0 -50,6t-47,19t-37,39t-14,63q0,54 34,146t35,117q0,1 0,2q0,9 0,12t-4,7t-11,4l-4,0q-23,0 -42,-19t-30,-41t-17,-42t-8,-22q-2,-2 -16,-2l-14,0q-6,6 -6,9q0,6 8,28t23,51t44,52t65,23q43,0 66,-25t23,-58q0,-18 -33,-108t-33,-139q0,-46 21,-65t53,-20q43,0 76,61l5,9l0,23q0,3 0,9t1,8t1,7t1,9t3,13t3,17t6,24t8,32t11,43q29,114 33,123q13,27 43,27q19,0 26,-10t8,-19q0,-13 -29,-128t-32,-132q-2,-11 -2,-35l0,-7q0,-15 3,-29t19,-29t45,-16q71,0 113,122q9,23 20,65t12,60q0,33 -13,52t-26,32t-13,28z" stroke-width="10" id="svg_81"/>
                  <path d="m21,287q1,6 3,16t12,38t20,47t33,37t46,17q36,0 60,-18t30,-34t6,-21q0,-2 1,-2l11,11q61,64 139,64q54,0 87,-27t34,-79t-38,-157t-38,-127q0,-26 17,-26q6,0 9,1q29,5 52,38t35,80q2,8 20,8q20,0 20,-8q0,-1 -4,-15q-8,-29 -22,-57t-46,-56t-69,-27q-47,0 -68,27t-21,56q0,19 36,120t37,152q0,59 -44,59l-5,0q-86,0 -145,-101l-7,-12l-33,-134q-33,-131 -38,-141q-13,-27 -43,-27q-13,0 -21,6t-11,12t-2,10q0,13 38,163t40,163q1,5 1,23q0,39 -24,39q-38,0 -63,-100q-6,-20 -6,-21q-2,-6 -19,-6l-14,0q-6,6 -6,9z" stroke-width="10" id="svg_80"/>
                  <path d="m56,237t0,13t14,20l765,0q-116,87 -143,223q0,1 0,3t-1,3q0,12 17,12l3,0q9,0 12,-1t6,-4t3,-9t3,-16t8,-25q22,-67 73,-120t119,-75q9,-3 9,-11q0,-6 -5,-9t-24,-10t-38,-19q-41,-26 -71,-60t-45,-67t-21,-50t-8,-31q-2,-10 -5,-12t-16,-3q-20,0 -20,11q0,7 5,25q32,126 139,205l-765,0q-14,7 -14,20l0,-13z" stroke-width="10" id="svg_79"/>
                  <path d="m118,-162q2,0 6,-2t11,-3t12,-1q13,0 24,13t16,29q10,27 34,153t46,240t22,115l0,3l-47,0q-47,0 -50,2q-4,3 -4,10l7,28q2,5 8,5t47,1q48,0 48,1q0,2 9,50t12,58q37,165 146,165q37,-2 61,-22t24,-53q0,-36 -21,-52t-42,-17q-44,0 -44,42q0,19 11,33t24,21l9,5q-16,6 -30,6q-12,0 -23,-10t-15,-28q-7,-29 -16,-78t-16,-83t-7,-36q0,-2 55,-2q45,0 52,-1t11,-6q1,-4 -2,-17t-5,-16q-2,-5 -9,-5t-54,-1l-56,0l-23,-122q-48,-248 -67,-310q-27,-85 -70,-126q-37,-32 -73,-32q-32,0 -58,19t-26,54q0,37 21,54t42,17q44,0 44,-42q0,-19 -11,-33t-24,-21l-9,-5z" stroke-width="10" id="svg_51"/>
                  <path d="m94,250q0,69 10,131t23,107t37,88t38,67t42,52t33,34t25,21l13,0l4,0q14,0 14,-9q0,-3 -17,-21t-41,-53t-49,-86t-42,-138t-17,-193t17,-192t41,-139t49,-86t42,-53t17,-21q0,-9 -15,-9l-3,0l-13,0l-28,24q-94,85 -137,212t-43,264z" stroke-width="10" id="svg_50"/>
                  <path d="m60,749l4,1q5,0 10,0l12,0l28,-24q94,-85 137,-212t43,-264q0,-68 -10,-131t-23,-107t-37,-88t-38,-67t-41,-51t-32,-33t-23,-19q-3,-3 -4,-4l-12,0q-8,0 -11,0t-5,3t-3,9q1,1 11,13q155,161 155,475t-155,475q-10,12 -11,13q0,8 5,11z" stroke-width="10" id="svg_49"/>
                  <path d="m56,347q0,13 14,20l637,0q15,-8 15,-20q0,-11 -14,-19l-318,-1l-318,0q-16,5 -16,20zm0,-194q0,15 16,20l636,0q14,-10 14,-20q0,-13 -15,-20l-637,0q-14,7 -14,20z" stroke-width="10" id="svg_48"/>
                  <path d="m164,157q0,-24 -16,-40t-39,-16l-7,0q46,-79 122,-79q70,0 102,60q19,33 19,128q0,103 -27,139q-26,33 -58,33l-6,0q-78,0 -118,-68q-4,-7 -7,-8t-15,-2q-17,0 -19,6q-2,4 -2,175l0,129q0,50 5,50q2,2 4,2q1,0 21,-8t55,-16t75,-8q71,0 136,28q8,4 13,4q8,0 8,-18l0,-13q-82,-97 -205,-97q-31,0 -56,6l-10,2l0,-172q19,14 30,22t36,16t51,8q81,0 137,-65t56,-154q0,-92 -64,-157t-156,-66q-81,0 -130,54t-49,122q0,24 11,38t23,18t23,4q25,0 41,-17t16,-40z" stroke-width="10" id="svg_78"/>
                  <path d="m21,287q0,14 15,48t48,71t74,36q41,0 66,-23t26,-64q-2,-19 -3,-21q0,-3 -16,-46t-33,-97t-16,-86q0,-43 14,-60t42,-18q23,0 43,11t31,23t27,33q0,1 5,20t14,59t19,74q38,150 42,157q13,27 43,27q13,0 21,-7t11,-12t2,-9q0,-13 -49,-210t-56,-216q-28,-83 -97,-132t-138,-50q-45,0 -79,22t-34,66q0,22 7,37t19,22t20,10t17,3q44,0 44,-42q0,-20 -12,-35t-23,-20t-13,-5l-3,-1q2,-5 19,-12t34,-7l8,0q17,0 26,2q33,9 61,38t43,62t23,56t8,30l-6,-4q-6,-4 -19,-11t-26,-12q-20,-5 -39,-5q-46,0 -81,22t-46,71q-1,7 -1,31q0,57 35,149t35,117q0,1 0,2q0,9 0,12t-4,7t-11,4l-4,0q-23,0 -42,-19t-30,-41t-17,-42t-8,-22q-2,-2 -16,-2l-14,0q-6,6 -6,9z" stroke-width="10" id="svg_77"/>
                  <path d="m42,46l14,0q39,0 47,14l0,8q0,9 0,23t0,33t1,43t0,50t0,55t0,57q0,37 0,78t0,75t0,60t-1,44t0,17q-3,19 -14,25t-45,9l-18,0l0,23q0,23 2,23l10,1q10,1 29,2t37,2q17,1 37,2t30,3t11,1l3,0l0,-315q0,-317 1,-319q4,-8 12,-11q21,-3 49,-3l16,0l0,-46l-8,0l-23,1q-23,1 -49,1t-38,1t-38,0t-50,-2l-23,-1l-8,0l0,46l16,0z" stroke-width="10" id="svg_76"/>
                  <path d="m28,214q0,95 65,164t157,70q90,0 155,-68t66,-165q0,-95 -64,-160t-157,-65q-97,0 -159,67t-63,157zm222,-184q122,0 122,163l0,32l0,25q0,22 -1,38t-7,38t-16,36t-31,28t-49,20q-5,1 -16,1q-30,0 -57,-12q-43,-22 -56,-61t-13,-92l0,-20q0,-96 19,-135q32,-61 105,-61z" stroke-width="10" id="svg_75"/>
                  <path d="m329,409q44,44 100,44q30,0 43,-19t13,-38q0,-14 -9,-25t-27,-11q-33,0 -37,30q-2,14 3,21q0,1 1,3l0,1q-28,-3 -53,-22q-8,-5 -8,-7q0,-1 4,-5t9,-12t11,-18t9,-26t4,-33q0,-62 -49,-105t-121,-44q-50,0 -99,28q-11,-18 -11,-38q0,-35 26,-52q9,-6 17,-6t72,-2q84,-1 108,-6q61,-9 96,-41q39,-39 39,-98q0,-67 -78,-103q-60,-31 -142,-31q-83,0 -143,31q-78,35 -78,100q0,36 21,60t42,33l11,6q-36,31 -36,84q0,47 29,85q-44,44 -44,99q0,63 50,106t121,44q51,0 95,-26l11,-7zm-30,-66q-5,28 -26,44t-52,17q-29,0 -50,-16t-26,-45q-3,-17 -3,-51q0,-44 7,-65t30,-35q17,-10 43,-10q22,0 38,7t23,18t11,20t5,15q3,16 3,50t-3,51zm104,-418q0,25 -14,41t-41,23t-49,9t-54,2l-27,0q-67,0 -80,-6q-20,-9 -31,-28t-12,-40q0,-10 6,-23t21,-30t48,-28t80,-12q69,0 111,28t42,64z" stroke-width="10" id="svg_74"/>
                  <path d="m213,578l-13,-5q-14,-5 -40,-10t-58,-7l-19,0l0,46l19,0q47,2 87,15t56,24t28,22q2,3 12,3q9,0 17,-6l0,-299l1,-300q7,-7 12,-9t24,-4t62,-2l26,0l0,-46l-11,0q-21,3 -159,3q-136,0 -157,-3l-12,0l0,46l26,0q22,0 38,0t25,1t16,3t8,2t6,5t6,4l0,517z" stroke-width="10" id="svg_73"/>
                  <path d="m96,585q56,81 153,81q48,0 96,-26t78,-92q37,-83 37,-228q0,-155 -43,-237q-20,-42 -55,-67t-61,-31t-51,-7q-26,0 -52,6t-61,32t-55,67q-43,82 -43,237q0,174 57,265zm225,12q-30,32 -71,32q-42,0 -72,-32q-25,-26 -33,-72t-8,-192q0,-158 8,-208t36,-79q28,-30 69,-30q40,0 68,30q29,30 36,84t8,203q0,145 -8,191t-33,73z" stroke-width="10" id="svg_72"/>
                  <path stroke-width="10" id="svg_71"/>
                  <path d="m114,620q-1,1 -4,4t-3,3t-4,3t-5,2t-7,2t-11,1t-13,1t-19,1l-29,0l0,46l9,0q18,-3 124,-3q121,0 142,3l11,0l0,-46l-21,0q-61,-3 -61,-17q0,-2 90,-248t91,-246l86,232q85,230 85,239q0,19 -21,29t-46,11l-5,0l0,46l9,0q15,-3 115,-3q91,0 97,3l6,0l0,-46l-7,0q-75,0 -96,-41q0,-1 -112,-305t-114,-305q-5,-8 -19,-8l-8,0l-7,0q-14,0 -19,8q-2,2 -117,317q-117,314 -117,317z" stroke-width="10" id="svg_70"/>
                  <path d="m41,46l14,0q39,0 47,14l0,8q0,9 0,23t0,33t0,43t1,50t0,55t0,57q0,37 0,78t0,75t-1,60t0,44t0,17q-3,19 -14,25t-45,9l-18,0l0,23q0,23 2,23l10,1q10,1 29,2t37,2q17,1 37,2t30,3t11,1l3,0l0,-327q60,75 144,75q123,0 135,-113q1,-7 1,-139l0,-86q0,-38 2,-45t11,-10q21,-3 49,-3l16,0l0,-46l-8,0l-24,1q-23,1 -50,1t-38,1q-103,0 -112,-3l-8,0l0,46l16,0q61,0 61,16q1,2 1,138q-1,135 -2,143q-6,28 -20,42t-24,17t-26,2q-45,0 -79,-34q-27,-27 -34,-55t-8,-83l0,-64l0,-60q0,-30 1,-40t3,-13t9,-6q21,-3 49,-3l16,0l0,-46l-8,0l-23,1q-24,1 -51,1t-38,1q-103,0 -112,-3l-8,0l0,46l16,0z" stroke-width="10" id="svg_69"/>
                  <path d="m137,305t-22,0t-37,15t-15,39q0,35 34,62t121,27q73,0 118,-32t60,-76q5,-14 5,-31t1,-115l0,-70q0,-48 5,-66t21,-18q15,0 20,16t5,53l0,36l40,0l0,-39q-1,-40 -3,-47q-9,-30 -35,-47t-55,-18t-47,18t-24,42l0,4l-2,-3q-2,-3 -5,-6t-8,-9t-12,-11t-15,-12t-18,-11t-22,-8t-26,-6t-31,-3q-60,0 -108,31t-48,87q0,21 7,40t27,41t48,37t78,28t110,15l14,0l0,22q0,34 -6,50q-22,71 -97,71q-18,0 -34,-1t-25,-4t-8,-3q22,-15 22,-44q0,-25 -16,-39l-17,-15zm-11,-199q0,-31 24,-55t59,-25q38,0 67,23t39,60q2,7 3,66q0,58 -1,58q-8,0 -21,-1t-45,-9t-58,-20t-46,-37t-21,-60z" stroke-width="10" id="svg_68"/>
                  <path d="m273,0q-18,3 -127,3q-103,0 -112,-3l-8,0l0,46l16,0q28,0 49,3q8,3 12,11q1,2 1,164l0,161l-71,0l0,46l71,0l0,66l1,67l2,10q19,65 64,94t95,36q1,0 9,0t14,1q41,-3 62,-26t21,-52q0,-23 -14,-37t-37,-14t-37,14t-14,37q0,20 18,40l-4,0q-4,1 -11,1q-28,0 -50,-21t-34,-55q-6,-20 -7,-95l0,-66l111,0l0,-46l-108,0l0,-160q0,-162 1,-164t3,-4t5,-3t5,-3t7,-2t7,-1t9,-1t9,0t10,-1t10,0l31,0l0,-46l-9,0z" stroke-width="10" id="svg_67"/>
                  <path d="m423,750q9,0 15,-6t6,-14q0,-5 -173,-482t-179,-488q-7,-10 -17,-10q-7,0 -13,5t-6,14q0,10 174,488t177,483q4,10 16,10z" stroke-width="10" id="svg_66"/>
                  <path d="m36,46l14,0q39,0 47,14l0,8q0,9 0,23t0,33t1,43t0,50t0,55t0,57q0,37 0,78t0,75t0,60t-1,44t0,17q-3,19 -14,25t-45,9l-18,0l0,23q0,23 2,23l10,1q10,1 29,2t37,2q17,1 37,2t30,3t11,1l3,0l0,-231l1,-230l60,54q60,54 64,60q6,9 6,17q0,19 -21,21l-5,0l0,46l9,0q15,-3 119,-3q63,0 72,3l5,0l0,-46l-13,0q-69,-5 -116,-44q-74,-63 -74,-67q0,-1 63,-93t71,-102q14,-19 31,-26t49,-7l11,0l0,-46l-6,0q-9,3 -87,3q-96,0 -111,-3l-8,0l0,46l7,0q24,2 24,19q0,7 -4,14q-3,5 -50,74t-48,69l-52,-46l0,-56l0,-36q0,-19 2,-25t11,-10q21,-3 49,-3l16,0l0,-46l-8,0q-15,3 -109,3t-109,-3l-8,0l0,46l16,0z" stroke-width="10" id="svg_65"/>
                  <path d="m41,46l14,0q39,0 47,14l0,8q0,9 0,23t0,31t1,39t0,42q0,31 0,66t-1,59l0,23q-3,19 -14,25t-45,9l-18,0l0,23q0,23 2,23l10,1q10,1 28,2t37,2q17,1 36,2t29,3t11,1l3,0l0,-40q0,-38 1,-38t5,5t12,15t19,18t29,19t38,16q20,5 51,5q15,0 28,-2t23,-6t19,-8t15,-9t11,-11t9,-11t7,-11t4,-10t3,-8l2,-5l3,4q3,4 6,8t9,11t13,13t15,13t20,12t23,10t26,7t31,3q126,0 137,-113q1,-7 1,-139l0,-86q0,-38 2,-45t11,-10q21,-3 49,-3l16,0l0,-46l-8,0l-23,1q-24,1 -51,1t-38,1q-103,0 -112,-3l-8,0l0,46l16,0q61,0 61,16q1,2 1,138q-1,135 -2,143q-6,28 -20,42t-24,17t-26,2q-45,0 -79,-34q-27,-27 -34,-55t-8,-83l0,-64l0,-60q0,-30 1,-40t3,-13t9,-6q21,-3 49,-3l16,0l0,-46l-8,0l-24,1q-23,1 -50,1t-38,1q-103,0 -112,-3l-8,0l0,46l16,0q61,0 61,16q1,2 1,138q-1,135 -2,143q-6,28 -20,42t-24,17t-26,2q-45,0 -79,-34q-27,-27 -34,-55t-8,-83l0,-64l0,-60q0,-30 1,-40t3,-13t9,-6q21,-3 49,-3l16,0l0,-46l-8,0l-23,1q-24,1 -51,1t-38,1q-103,0 -112,-3l-8,0l0,46l16,0z" stroke-width="10" id="svg_64"/>
                  <path d="m295,316q0,40 -27,69t-78,29q-36,0 -62,-13q-30,-19 -30,-52q-1,-5 0,-13t16,-24t43,-25q18,-5 44,-9t44,-9t32,-13q17,-8 33,-20t32,-41t17,-62q0,-62 -38,-102t-123,-41l-8,0q-52,0 -96,36l-8,-7l-9,-9q-6,-6 -12,-11l-11,-10l-8,0l-4,0q-3,0 -9,6l0,79l0,58q0,21 2,25t10,5l9,0q12,0 16,-4t5,-12t7,-27t19,-42q35,-51 97,-51q97,0 97,78q0,29 -18,47q-20,24 -83,36t-83,23q-36,17 -57,46t-21,62q0,39 17,66t43,40t50,18t44,5l11,0q40,0 70,-15l15,-8l9,7q10,9 22,17l8,0l4,0q3,0 9,-6l0,-132l-6,-6l-28,0q-6,6 -6,12z" stroke-width="10" id="svg_63"/>
                  <path d="m84,237t0,13t14,20l581,0q15,-8 15,-20t-15,-20l-581,0q-14,7 -14,20l0,-13z" stroke-width="10" id="svg_62"/>
                  <path d="m132,622q-7,7 -11,9t-16,3t-43,3l-33,0l0,46l106,0q86,0 97,-1t17,-7q1,-1 105,-277l104,-274l104,274q104,276 106,277q3,6 15,7t98,1l106,0l0,-46l-33,0q-40,-1 -51,-3t-18,-12l0,-561q6,-10 17,-12t52,-3l33,0l0,-46l-11,0q-21,3 -140,3q-131,0 -140,-3l-11,0l0,46l33,0q42,1 51,3t19,12l0,286q0,77 0,114t0,85t0,67l-1,19q-233,-618 -237,-625q-4,-6 -20,-6t-20,6q-1,2 -118,309l-116,308l0,-18q-1,-18 -1,-63t0,-80t0,-107l1,-270q11,-36 85,-40l17,0l0,-46l-9,0q-15,3 -115,3q-102,0 -117,-3l-8,0l0,46l17,0q32,2 52,10t24,13t10,17l0,536z" stroke-width="10" id="svg_61"/>
                  <path d="m27,422q53,4 82,56t32,122l0,15l40,0l0,-184l135,0l0,-46l-135,0l0,-144q1,-125 1,-141t7,-32q14,-39 49,-39q44,0 54,71q1,8 1,46l0,35l40,0l0,-35l0,-12q0,-77 -42,-117q-27,-27 -70,-27q-34,0 -59,12t-38,31t-19,35t-7,32q-1,7 -1,148l0,137l-79,0l0,37l9,0z" stroke-width="10" id="svg_60"/>
                  <path d="m36,46l14,0q39,0 47,14l0,8q0,9 0,23t1,31t0,39t0,42q0,31 0,66t0,59l-1,23q-3,19 -14,25t-45,9l-18,0l0,23q0,23 2,23l10,1q10,1 28,2t36,2q16,1 35,2t29,3t11,1l3,0l0,-69q39,68 97,68l6,0q45,0 66,-22t21,-46q0,-21 -13,-36t-38,-15q-25,0 -37,16t-13,34q0,9 2,16t5,12t3,5q-2,2 -23,-4q-16,-8 -24,-15q-47,-45 -47,-179l0,-53q0,-13 0,-27t0,-26t1,-20t0,-15l0,-5q1,-2 3,-4t5,-3t5,-3t7,-2t7,-1t9,-1t9,0t10,-1t10,0l31,0l0,-46l-9,0q-18,3 -127,3q-103,0 -112,-3l-8,0l0,46l16,0z" stroke-width="10" id="svg_59"/>
                  <path d="m56,250q0,144 100,238t228,95q146,0 242,-98t96,-235q0,-140 -97,-236t-235,-97q-141,0 -237,97t-97,236zm626,0q0,72 -33,137t-103,110t-165,45q-109,0 -197,-83t-89,-209q0,-118 83,-205t211,-87q126,0 209,87t84,205zm-371,0q0,35 21,54t43,24q1,0 7,0t10,1q32,-3 53,-24t21,-55q0,-33 -21,-55t-56,-23q-35,0 -56,23t-22,55z" stroke-width="10" id="svg_58"/>
                  <path d="m338,431q6,-2 84,-2q57,0 81,2l5,0l0,-46l-11,0q-58,-4 -74,-40q-2,-4 -67,-173t-68,-174q-5,-9 -25,-9q-19,0 -24,9q-140,361 -141,366q-5,14 -16,17t-39,4l-24,0l0,46l6,0l8,-1q8,0 20,0t26,0t25,-1t18,-1q95,0 110,3l8,0l0,-46l-14,0q-39,-1 -42,-15q0,-4 51,-136l51,-132l91,239l0,8q0,14 -10,23t-18,11t-14,2l-4,0l0,46l7,0z" stroke-width="10" id="svg_57"/>
                  <path d="m109,429q-27,0 -43,18t-16,44q0,71 53,123t132,52q91,0 152,-56t62,-145q0,-43 -20,-82t-48,-68t-80,-74q-36,-31 -100,-92l-59,-56l76,-1q157,0 167,5q7,2 24,89l0,3l40,0l0,-3q-1,-3 -13,-91t-15,-92l0,-3l-371,0l0,19l0,12q0,7 6,15t30,35q29,32 50,56q9,10 34,37t34,37t29,33t28,34t23,30t21,32t15,29t13,32t7,30t3,33q0,63 -34,109t-97,46q-33,0 -58,-17t-35,-33t-10,-19q0,-1 5,-1q18,0 37,-14t19,-46q0,-25 -16,-42t-45,-18z" stroke-width="10" id="svg_56"/>
                  <path d="m56,124t0,92t51,159t131,67q22,0 42,-4t39,-13t33,-18t30,-22t24,-24t21,-25t15,-21t13,-18t7,-12l7,12q86,145 210,145q8,0 43,-5l0,-39l-4,0q-8,2 -24,2q-37,0 -71,-17t-56,-40t-40,-49t-24,-41t-8,-18q0,-4 25,-43t34,-49q71,-99 142,-99q21,0 23,2l3,0l0,-51q-27,-6 -44,-6q-126,0 -221,152q-2,4 -3,5l-7,-12q-85,-145 -212,-145q-78,0 -128,67l-51,68zm37,89q0,-70 33,-126t94,-56q38,0 72,17t57,40t40,49t24,41t8,18q0,4 -25,43t-34,49q-40,57 -74,78t-75,21q-50,0 -85,-50t-35,-124z" stroke-width="10" id="svg_55"/>
                  <path d="m127,463q-27,0 -42,17t-16,44q0,55 48,98t116,43q35,0 44,-1q74,-12 113,-53t40,-89q0,-52 -34,-101t-94,-71l-3,-2q0,-1 9,-3t29,-9t38,-21q82,-53 82,-140q0,-79 -62,-138t-157,-59q-80,0 -138,43t-58,109q0,28 18,45t45,18q28,0 46,-18t18,-45q0,-11 -3,-20t-7,-16t-11,-12t-12,-8t-10,-4t-8,-3l-4,-1q51,-45 124,-45q55,0 83,53q17,33 17,101l0,20q0,95 -64,127q-15,6 -61,7l-42,1l-3,2q-2,3 -2,16q0,18 8,18q28,0 58,5q34,5 62,42t28,112l0,8q0,57 -35,79q-22,14 -47,14q-32,0 -59,-11t-38,-23t-11,-12l3,0q3,-1 8,-2t10,-5t12,-7t10,-11t8,-15t3,-20q0,-22 -14,-39t-45,-18z" stroke-width="10" id="svg_54"/>
                  <path d="m462,0q-18,3 -129,3q-116,0 -134,-3l-9,0l0,46l31,0q20,0 27,0t17,2t14,5t7,8q1,2 1,54l0,50l-259,0l0,46l151,231q153,232 155,233q2,2 21,2l18,0l6,-6l0,-460l92,0l0,-46l-92,0l0,-51q0,-41 0,-48t6,-12q8,-7 57,-8l29,0l0,-46l-9,0zm-169,211l0,334l-219,-333l109,-1l110,0z" stroke-width="10" id="svg_53"/>
                  <path d="m78,60q0,24 17,42t43,18q24,0 42,-16t19,-43q0,-25 -17,-43t-43,-18t-43,17t-18,43z" stroke-width="10" id="svg_52"/>
                </defs>
                <g id="svg_363" transform="matrix(1 0 0 -1 0 0)" stroke-width="0" fill="rgb(68, 68, 68)" stroke="rgb(68, 68, 68)">
                  <use id="svg_364" xlink:href="#svg_51"/>
                  <use id="svg_365" y="0" x="555" xlink:href="#svg_50"/>
                  <use id="svg_366" y="0" x="949" xlink:href="#svg_47"/>
                  <use id="svg_367" y="0" x="1526" xlink:href="#svg_49"/>
                  <use id="svg_368" y="0" x="2197" xlink:href="#svg_48"/>
                  <use id="svg_369" y="0" x="3258" xlink:href="#svg_47"/>
                </g>
              </svg>
            </g>
          </svg>
        </g>
      </g>
      <g id="svg_370" class="annotation">
        <g id="svg_136" class="annotation-text-g">
          <svg id="svg_371" height="27" width="90" y="42" x="576">
            <rect id="svg_372" stroke-width="1px" stroke="rgb(0, 0, 0)" stroke-opacity="0" fill="rgb(0, 0, 0)" fill-opacity="0" height="26" width="89" y="0.5" x="0.5" class="bg"/>
            <g id="svg_181" class="annotation-math-group">
              <svg xmlns:xlink="http://www.w3.org/1999/xlink" id="svg_373" width="8.713ex" y="2" x="1" preserveAspectRatio="xMinYMin meet" height="2.475ex" class="annotation-math" viewBox="0 -783.4581492681522 3763.5555555555557 1066.9162985363043">
                <defs>
                  <path d="m131,622q-7,7 -11,9t-16,3t-43,3l-33,0l0,46l201,0l38,0l79,0q77,0 113,-5t72,-27q43,-24 68,-61t25,-78q0,-51 -41,-93t-107,-59l-10,-3q73,-9 129,-55t56,-115q0,-68 -51,-120t-131,-64q-13,-2 -227,-3l-214,0l0,46l33,0q42,1 51,3t19,12l0,561zm380,-109q0,47 -26,81t-69,42q-1,0 -13,0t-32,0t-38,1q-67,0 -82,-1t-19,-8q-3,-4 -3,-129l0,-125l83,0l84,1l10,2q4,1 11,3t25,13t32,24t25,39t12,57zm26,-325q0,51 -28,94t-79,54l-101,1l-100,0l0,-137l0,-84q0,-59 5,-64q6,-5 100,-5l49,0q42,0 60,6q43,14 68,51t26,84z" stroke-width="10" id="svg_180"/>
                  <path d="m21,287q1,6 3,16t12,38t20,47t32,37t44,17t43,-7t30,-18t16,-22t8,-19l2,-7q0,-2 1,-2l11,11q60,64 141,64q17,0 31,-2t26,-7t19,-10t15,-12t10,-13t8,-13t4,-12t3,-9t2,-7l8,10q63,75 149,75q54,0 87,-27t34,-79q0,-51 -38,-158t-38,-128q1,-14 5,-19t15,-5q28,0 52,30t39,82q3,11 6,13t16,2q20,0 20,-8q0,-1 -4,-15q-8,-29 -22,-57t-46,-56t-69,-27q-47,0 -68,27t-21,56q0,19 36,120t37,152q0,59 -44,59l-5,0q-86,0 -145,-101l-7,-12l-33,-134q-33,-131 -38,-141q-13,-27 -43,-27q-13,0 -21,7t-11,12t-3,10q0,11 34,143l36,146q3,15 3,38q0,59 -44,59l-5,0q-86,0 -145,-101l-7,-12l-33,-134q-33,-131 -38,-141q-13,-27 -43,-27q-13,0 -21,6t-11,12t-2,10q0,13 38,164q39,154 39,161q3,15 3,27q0,36 -25,36q-22,0 -37,-28t-23,-61t-12,-36q-2,-2 -16,-2l-14,0q-6,6 -6,9z" stroke-width="10" id="svg_179"/>
                  <path d="m33,157q0,101 76,192t171,92q51,0 90,-49q16,30 46,30q13,0 23,-8t10,-20q0,-13 -37,-160t-38,-166q0,-25 7,-33t21,-9q9,1 20,9q21,20 41,96q6,20 10,21q2,1 10,1l4,0q19,0 19,-9q0,-6 -5,-27t-20,-54t-32,-50q-13,-13 -32,-21q-8,-2 -24,-2q-34,0 -57,15t-30,31l-6,15q-1,1 -4,-1q-2,-2 -4,-4q-59,-56 -120,-56q-55,0 -97,40t-42,127zm318,171q0,6 -5,22t-23,35t-46,20q-35,0 -67,-31t-50,-81q-29,-79 -41,-164q0,-3 0,-11t-1,-12q0,-45 18,-62t43,-18q38,0 75,33t44,51q2,4 27,107t26,111z" stroke-width="10" id="svg_178"/>
                  <path d="m52,289q7,42 54,97t116,56q35,0 64,-18t43,-45q42,63 101,63q37,0 64,-22t28,-59q0,-29 -14,-47t-27,-22t-23,-4q-19,0 -31,11t-12,29q0,46 50,63q-11,13 -40,13q-13,0 -19,-2q-38,-16 -56,-66q-60,-221 -60,-258q0,-28 16,-40t35,-12q37,0 73,33t49,81q3,10 6,11t16,2l4,0q15,0 15,-8q0,-1 -2,-11q-16,-57 -62,-101t-107,-44q-70,0 -106,63q-41,-62 -94,-62l-6,0q-49,0 -70,26t-22,55q0,32 19,52t45,20q43,0 43,-42q0,-20 -12,-35t-23,-20t-13,-5l-3,-1q0,-1 6,-4t16,-7t19,-3q36,0 62,45q9,16 23,68t28,108t16,66q5,27 5,39q0,28 -15,40t-34,12q-40,0 -75,-32t-49,-82q-2,-9 -5,-10t-16,-2l-14,0q-6,6 -6,11z" stroke-width="10" id="svg_140"/>
                  <path d="m184,600q0,24 19,42t44,19q18,0 30,-12t13,-30q0,-23 -20,-42t-44,-20q-15,0 -28,10t-14,33zm-163,-313q0,8 9,31t24,51t44,51t60,22q39,0 65,-23t27,-62q0,-17 -14,-56t-40,-105t-42,-113q-5,-22 -5,-32q0,-25 17,-25q9,0 19,3t23,14t27,35t25,59q3,12 5,14t17,2q20,0 20,-10q0,-8 -9,-31t-25,-51t-45,-50t-62,-22q-32,0 -59,21t-28,64q0,17 5,32t43,114q38,101 44,121t7,39q0,24 -17,24l-2,0q-30,0 -55,-33t-38,-84q-1,-1 -2,-3t-1,-3t-2,-2t-3,-1t-4,0t-8,0l-14,0q-6,6 -6,9z" stroke-width="10" id="svg_177"/>
                  <path d="m311,43q-15,-13 -44,-28t-61,-15q-63,0 -101,45t-39,115q0,105 77,193t171,89q47,0 87,-48l3,4q2,3 5,6t9,8t13,7t16,3q14,0 23,-9t10,-19q0,-15 -57,-242t-60,-232q-18,-54 -77,-89t-135,-36q-141,0 -141,68q0,26 18,46t46,20q15,0 28,-9t14,-31q0,-10 -2,-19t-7,-14t-8,-10t-7,-8l-2,-2l1,0q10,-3 60,-3q38,0 60,12q23,11 43,33t28,47q6,19 16,62q13,48 13,56zm73,285l-4,11q-3,11 -5,15t-6,14t-10,14t-13,11t-18,9t-22,3q-44,0 -85,-53q-30,-39 -50,-119t-20,-116q0,-79 62,-79q56,0 110,70l8,10l53,210z" stroke-width="10" id="svg_176"/>
                  <path d="m137,683q1,0 72,5t73,6q12,0 12,-9q0,-11 -36,-151q-38,-148 -38,-151q0,-2 7,5q61,54 130,54q54,0 87,-27t34,-79q0,-51 -38,-158t-38,-128q1,-14 5,-19t15,-5q28,0 52,30t39,82q3,11 6,13t16,2q20,0 20,-8q0,-1 -4,-15q-16,-59 -51,-97q-34,-43 -81,-43l-5,0q-47,0 -68,27t-21,57q0,16 36,118t37,153q0,59 -44,59l-5,0q-83,0 -144,-98l-7,-13l-34,-135q-32,-130 -37,-142q-13,-27 -44,-27q-14,0 -24,9t-11,18q0,14 73,304l74,296q0,13 -7,16t-39,5l-21,0q-6,6 -6,8t2,19q5,19 13,19z" stroke-width="10" id="svg_175"/>
                  <path d="m26,385q-7,7 -7,10q0,4 3,16t5,14q2,5 9,5t51,1l53,0l19,80q3,11 7,29t7,26t6,20t8,17t10,12t14,9t18,2q18,-1 25,-11t7,-19q0,-7 -9,-47t-20,-79l-10,-37q0,-2 50,-2l51,0q7,-7 7,-11q0,-22 -13,-35l-107,0l-36,-145q-39,-160 -39,-172q0,-42 27,-42q35,0 68,34t53,84q2,6 5,7t15,2l4,0q15,0 15,-8q0,-3 -3,-12q-5,-16 -18,-38t-34,-47t-51,-42t-61,-17q-30,0 -57,15t-39,52q-2,8 -2,27l0,18l35,140q35,141 36,142q0,2 -51,2l-51,0z" stroke-width="10" id="svg_174"/>
                  <path d="m21,287q1,3 2,8t5,22t10,31t15,33t20,30t26,22t33,9q29,0 51,-12t31,-22t11,-20q2,-6 3,-6t8,7q48,52 111,52l3,0q48,0 72,-41q8,-19 8,-37q0,-30 -13,-48t-26,-23t-25,-4q-20,0 -32,11t-12,29q0,48 56,64q-22,13 -36,13q-56,0 -103,-74q-10,-16 -15,-33t-34,-133q-34,-140 -39,-149q-13,-27 -43,-27q-13,0 -21,6t-11,12t-2,10q0,13 40,172t40,177q0,39 -26,39q-21,0 -36,-28t-24,-61t-11,-36q-2,-2 -16,-2l-14,0q-6,6 -6,9z" stroke-width="10" id="svg_173"/>
                  <path d="m201,-11q-75,0 -121,49t-46,118q0,65 30,123t82,101q76,61 155,61q32,0 40,-1q13,-3 26,-7t35,-16t36,-30t26,-49t12,-70q0,-107 -86,-193t-189,-86zm-80,131q0,-50 26,-72t59,-22q44,0 83,32t62,84q9,21 23,74t14,92q0,44 -18,67q-24,30 -64,30q-63,0 -111,-58q-37,-44 -55,-117t-19,-110z" stroke-width="10" id="svg_172"/>
                  <path d="m580,385q0,21 19,39t42,19q18,0 33,-18t16,-57q0,-29 -19,-115q-15,-56 -27,-92t-35,-81t-55,-68t-72,-23q-44,0 -78,16t-49,43q-1,-1 -3,-4q-41,-55 -100,-55q-26,0 -50,6t-47,19t-37,39t-14,63q0,54 34,146t35,117q0,1 0,2q0,9 0,12t-4,7t-11,4l-4,0q-23,0 -42,-19t-30,-41t-17,-42t-8,-22q-2,-2 -16,-2l-14,0q-6,6 -6,9q0,6 8,28t23,51t44,52t65,23q43,0 66,-25t23,-58q0,-18 -33,-108t-33,-139q0,-46 21,-65t53,-20q43,0 76,61l5,9l0,23q0,3 0,9t1,8t1,7t1,9t3,13t3,17t6,24t8,32t11,43q29,114 33,123q13,27 43,27q19,0 26,-10t8,-19q0,-13 -29,-128t-32,-132q-2,-11 -2,-35l0,-7q0,-15 3,-29t19,-29t45,-16q71,0 113,122q9,23 20,65t12,60q0,33 -13,52t-26,32t-13,28z" stroke-width="10" id="svg_171"/>
                  <path d="m21,287q1,6 3,16t12,38t20,47t33,37t46,17q36,0 60,-18t30,-34t6,-21q0,-2 1,-2l11,11q61,64 139,64q54,0 87,-27t34,-79t-38,-157t-38,-127q0,-26 17,-26q6,0 9,1q29,5 52,38t35,80q2,8 20,8q20,0 20,-8q0,-1 -4,-15q-8,-29 -22,-57t-46,-56t-69,-27q-47,0 -68,27t-21,56q0,19 36,120t37,152q0,59 -44,59l-5,0q-86,0 -145,-101l-7,-12l-33,-134q-33,-131 -38,-141q-13,-27 -43,-27q-13,0 -21,6t-11,12t-2,10q0,13 38,163t40,163q1,5 1,23q0,39 -24,39q-38,0 -63,-100q-6,-20 -6,-21q-2,-6 -19,-6l-14,0q-6,6 -6,9z" stroke-width="10" id="svg_170"/>
                  <path d="m56,237t0,13t14,20l765,0q-116,87 -143,223q0,1 0,3t-1,3q0,12 17,12l3,0q9,0 12,-1t6,-4t3,-9t3,-16t8,-25q22,-67 73,-120t119,-75q9,-3 9,-11q0,-6 -5,-9t-24,-10t-38,-19q-41,-26 -71,-60t-45,-67t-21,-50t-8,-31q-2,-10 -5,-12t-16,-3q-20,0 -20,11q0,7 5,25q32,126 139,205l-765,0q-14,7 -14,20l0,-13z" stroke-width="10" id="svg_169"/>
                  <path d="m118,-162q2,0 6,-2t11,-3t12,-1q13,0 24,13t16,29q10,27 34,153t46,240t22,115l0,3l-47,0q-47,0 -50,2q-4,3 -4,10l7,28q2,5 8,5t47,1q48,0 48,1q0,2 9,50t12,58q37,165 146,165q37,-2 61,-22t24,-53q0,-36 -21,-52t-42,-17q-44,0 -44,42q0,19 11,33t24,21l9,5q-16,6 -30,6q-12,0 -23,-10t-15,-28q-7,-29 -16,-78t-16,-83t-7,-36q0,-2 55,-2q45,0 52,-1t11,-6q1,-4 -2,-17t-5,-16q-2,-5 -9,-5t-54,-1l-56,0l-23,-122q-48,-248 -67,-310q-27,-85 -70,-126q-37,-32 -73,-32q-32,0 -58,19t-26,54q0,37 21,54t42,17q44,0 44,-42q0,-19 -11,-33t-24,-21l-9,-5z" stroke-width="10" id="svg_142"/>
                  <path d="m94,250q0,69 10,131t23,107t37,88t38,67t42,52t33,34t25,21l13,0l4,0q14,0 14,-9q0,-3 -17,-21t-41,-53t-49,-86t-42,-138t-17,-193t17,-192t41,-139t49,-86t42,-53t17,-21q0,-9 -15,-9l-3,0l-13,0l-28,24q-94,85 -137,212t-43,264z" stroke-width="10" id="svg_141"/>
                  <path d="m60,749l4,1q5,0 10,0l12,0l28,-24q94,-85 137,-212t43,-264q0,-68 -10,-131t-23,-107t-37,-88t-38,-67t-41,-51t-32,-33t-23,-19q-3,-3 -4,-4l-12,0q-8,0 -11,0t-5,3t-3,9q1,1 11,13q155,161 155,475t-155,475q-10,12 -11,13q0,8 5,11z" stroke-width="10" id="svg_139"/>
                  <path d="m56,347q0,13 14,20l637,0q15,-8 15,-20q0,-11 -14,-19l-318,-1l-318,0q-16,5 -16,20zm0,-194q0,15 16,20l636,0q14,-10 14,-20q0,-13 -15,-20l-637,0q-14,7 -14,20z" stroke-width="10" id="svg_138"/>
                  <path d="m164,157q0,-24 -16,-40t-39,-16l-7,0q46,-79 122,-79q70,0 102,60q19,33 19,128q0,103 -27,139q-26,33 -58,33l-6,0q-78,0 -118,-68q-4,-7 -7,-8t-15,-2q-17,0 -19,6q-2,4 -2,175l0,129q0,50 5,50q2,2 4,2q1,0 21,-8t55,-16t75,-8q71,0 136,28q8,4 13,4q8,0 8,-18l0,-13q-82,-97 -205,-97q-31,0 -56,6l-10,2l0,-172q19,14 30,22t36,16t51,8q81,0 137,-65t56,-154q0,-92 -64,-157t-156,-66q-81,0 -130,54t-49,122q0,24 11,38t23,18t23,4q25,0 41,-17t16,-40z" stroke-width="10" id="svg_137"/>
                  <path d="m21,287q0,14 15,48t48,71t74,36q41,0 66,-23t26,-64q-2,-19 -3,-21q0,-3 -16,-46t-33,-97t-16,-86q0,-43 14,-60t42,-18q23,0 43,11t31,23t27,33q0,1 5,20t14,59t19,74q38,150 42,157q13,27 43,27q13,0 21,-7t11,-12t2,-9q0,-13 -49,-210t-56,-216q-28,-83 -97,-132t-138,-50q-45,0 -79,22t-34,66q0,22 7,37t19,22t20,10t17,3q44,0 44,-42q0,-20 -12,-35t-23,-20t-13,-5l-3,-1q2,-5 19,-12t34,-7l8,0q17,0 26,2q33,9 61,38t43,62t23,56t8,30l-6,-4q-6,-4 -19,-11t-26,-12q-20,-5 -39,-5q-46,0 -81,22t-46,71q-1,7 -1,31q0,57 35,149t35,117q0,1 0,2q0,9 0,12t-4,7t-11,4l-4,0q-23,0 -42,-19t-30,-41t-17,-42t-8,-22q-2,-2 -16,-2l-14,0q-6,6 -6,9z" stroke-width="10" id="svg_168"/>
                  <path d="m42,46l14,0q39,0 47,14l0,8q0,9 0,23t0,33t1,43t0,50t0,55t0,57q0,37 0,78t0,75t0,60t-1,44t0,17q-3,19 -14,25t-45,9l-18,0l0,23q0,23 2,23l10,1q10,1 29,2t37,2q17,1 37,2t30,3t11,1l3,0l0,-315q0,-317 1,-319q4,-8 12,-11q21,-3 49,-3l16,0l0,-46l-8,0l-23,1q-23,1 -49,1t-38,1t-38,0t-50,-2l-23,-1l-8,0l0,46l16,0z" stroke-width="10" id="svg_167"/>
                  <path d="m28,214q0,95 65,164t157,70q90,0 155,-68t66,-165q0,-95 -64,-160t-157,-65q-97,0 -159,67t-63,157zm222,-184q122,0 122,163l0,32l0,25q0,22 -1,38t-7,38t-16,36t-31,28t-49,20q-5,1 -16,1q-30,0 -57,-12q-43,-22 -56,-61t-13,-92l0,-20q0,-96 19,-135q32,-61 105,-61z" stroke-width="10" id="svg_166"/>
                  <path d="m329,409q44,44 100,44q30,0 43,-19t13,-38q0,-14 -9,-25t-27,-11q-33,0 -37,30q-2,14 3,21q0,1 1,3l0,1q-28,-3 -53,-22q-8,-5 -8,-7q0,-1 4,-5t9,-12t11,-18t9,-26t4,-33q0,-62 -49,-105t-121,-44q-50,0 -99,28q-11,-18 -11,-38q0,-35 26,-52q9,-6 17,-6t72,-2q84,-1 108,-6q61,-9 96,-41q39,-39 39,-98q0,-67 -78,-103q-60,-31 -142,-31q-83,0 -143,31q-78,35 -78,100q0,36 21,60t42,33l11,6q-36,31 -36,84q0,47 29,85q-44,44 -44,99q0,63 50,106t121,44q51,0 95,-26l11,-7zm-30,-66q-5,28 -26,44t-52,17q-29,0 -50,-16t-26,-45q-3,-17 -3,-51q0,-44 7,-65t30,-35q17,-10 43,-10q22,0 38,7t23,18t11,20t5,15q3,16 3,50t-3,51zm104,-418q0,25 -14,41t-41,23t-49,9t-54,2l-27,0q-67,0 -80,-6q-20,-9 -31,-28t-12,-40q0,-10 6,-23t21,-30t48,-28t80,-12q69,0 111,28t42,64z" stroke-width="10" id="svg_165"/>
                  <path d="m213,578l-13,-5q-14,-5 -40,-10t-58,-7l-19,0l0,46l19,0q47,2 87,15t56,24t28,22q2,3 12,3q9,0 17,-6l0,-299l1,-300q7,-7 12,-9t24,-4t62,-2l26,0l0,-46l-11,0q-21,3 -159,3q-136,0 -157,-3l-12,0l0,46l26,0q22,0 38,0t25,1t16,3t8,2t6,5t6,4l0,517z" stroke-width="10" id="svg_164"/>
                  <path d="m96,585q56,81 153,81q48,0 96,-26t78,-92q37,-83 37,-228q0,-155 -43,-237q-20,-42 -55,-67t-61,-31t-51,-7q-26,0 -52,6t-61,32t-55,67q-43,82 -43,237q0,174 57,265zm225,12q-30,32 -71,32q-42,0 -72,-32q-25,-26 -33,-72t-8,-192q0,-158 8,-208t36,-79q28,-30 69,-30q40,0 68,30q29,30 36,84t8,203q0,145 -8,191t-33,73z" stroke-width="10" id="svg_163"/>
                  <path stroke-width="10" id="svg_162"/>
                  <path d="m114,620q-1,1 -4,4t-3,3t-4,3t-5,2t-7,2t-11,1t-13,1t-19,1l-29,0l0,46l9,0q18,-3 124,-3q121,0 142,3l11,0l0,-46l-21,0q-61,-3 -61,-17q0,-2 90,-248t91,-246l86,232q85,230 85,239q0,19 -21,29t-46,11l-5,0l0,46l9,0q15,-3 115,-3q91,0 97,3l6,0l0,-46l-7,0q-75,0 -96,-41q0,-1 -112,-305t-114,-305q-5,-8 -19,-8l-8,0l-7,0q-14,0 -19,8q-2,2 -117,317q-117,314 -117,317z" stroke-width="10" id="svg_161"/>
                  <path d="m41,46l14,0q39,0 47,14l0,8q0,9 0,23t0,33t0,43t1,50t0,55t0,57q0,37 0,78t0,75t-1,60t0,44t0,17q-3,19 -14,25t-45,9l-18,0l0,23q0,23 2,23l10,1q10,1 29,2t37,2q17,1 37,2t30,3t11,1l3,0l0,-327q60,75 144,75q123,0 135,-113q1,-7 1,-139l0,-86q0,-38 2,-45t11,-10q21,-3 49,-3l16,0l0,-46l-8,0l-24,1q-23,1 -50,1t-38,1q-103,0 -112,-3l-8,0l0,46l16,0q61,0 61,16q1,2 1,138q-1,135 -2,143q-6,28 -20,42t-24,17t-26,2q-45,0 -79,-34q-27,-27 -34,-55t-8,-83l0,-64l0,-60q0,-30 1,-40t3,-13t9,-6q21,-3 49,-3l16,0l0,-46l-8,0l-23,1q-24,1 -51,1t-38,1q-103,0 -112,-3l-8,0l0,46l16,0z" stroke-width="10" id="svg_160"/>
                  <path d="m137,305t-22,0t-37,15t-15,39q0,35 34,62t121,27q73,0 118,-32t60,-76q5,-14 5,-31t1,-115l0,-70q0,-48 5,-66t21,-18q15,0 20,16t5,53l0,36l40,0l0,-39q-1,-40 -3,-47q-9,-30 -35,-47t-55,-18t-47,18t-24,42l0,4l-2,-3q-2,-3 -5,-6t-8,-9t-12,-11t-15,-12t-18,-11t-22,-8t-26,-6t-31,-3q-60,0 -108,31t-48,87q0,21 7,40t27,41t48,37t78,28t110,15l14,0l0,22q0,34 -6,50q-22,71 -97,71q-18,0 -34,-1t-25,-4t-8,-3q22,-15 22,-44q0,-25 -16,-39l-17,-15zm-11,-199q0,-31 24,-55t59,-25q38,0 67,23t39,60q2,7 3,66q0,58 -1,58q-8,0 -21,-1t-45,-9t-58,-20t-46,-37t-21,-60z" stroke-width="10" id="svg_159"/>
                  <path d="m273,0q-18,3 -127,3q-103,0 -112,-3l-8,0l0,46l16,0q28,0 49,3q8,3 12,11q1,2 1,164l0,161l-71,0l0,46l71,0l0,66l1,67l2,10q19,65 64,94t95,36q1,0 9,0t14,1q41,-3 62,-26t21,-52q0,-23 -14,-37t-37,-14t-37,14t-14,37q0,20 18,40l-4,0q-4,1 -11,1q-28,0 -50,-21t-34,-55q-6,-20 -7,-95l0,-66l111,0l0,-46l-108,0l0,-160q0,-162 1,-164t3,-4t5,-3t5,-3t7,-2t7,-1t9,-1t9,0t10,-1t10,0l31,0l0,-46l-9,0z" stroke-width="10" id="svg_158"/>
                  <path d="m423,750q9,0 15,-6t6,-14q0,-5 -173,-482t-179,-488q-7,-10 -17,-10q-7,0 -13,5t-6,14q0,10 174,488t177,483q4,10 16,10z" stroke-width="10" id="svg_157"/>
                  <path d="m36,46l14,0q39,0 47,14l0,8q0,9 0,23t0,33t1,43t0,50t0,55t0,57q0,37 0,78t0,75t0,60t-1,44t0,17q-3,19 -14,25t-45,9l-18,0l0,23q0,23 2,23l10,1q10,1 29,2t37,2q17,1 37,2t30,3t11,1l3,0l0,-231l1,-230l60,54q60,54 64,60q6,9 6,17q0,19 -21,21l-5,0l0,46l9,0q15,-3 119,-3q63,0 72,3l5,0l0,-46l-13,0q-69,-5 -116,-44q-74,-63 -74,-67q0,-1 63,-93t71,-102q14,-19 31,-26t49,-7l11,0l0,-46l-6,0q-9,3 -87,3q-96,0 -111,-3l-8,0l0,46l7,0q24,2 24,19q0,7 -4,14q-3,5 -50,74t-48,69l-52,-46l0,-56l0,-36q0,-19 2,-25t11,-10q21,-3 49,-3l16,0l0,-46l-8,0q-15,3 -109,3t-109,-3l-8,0l0,46l16,0z" stroke-width="10" id="svg_156"/>
                  <path d="m41,46l14,0q39,0 47,14l0,8q0,9 0,23t0,31t1,39t0,42q0,31 0,66t-1,59l0,23q-3,19 -14,25t-45,9l-18,0l0,23q0,23 2,23l10,1q10,1 28,2t37,2q17,1 36,2t29,3t11,1l3,0l0,-40q0,-38 1,-38t5,5t12,15t19,18t29,19t38,16q20,5 51,5q15,0 28,-2t23,-6t19,-8t15,-9t11,-11t9,-11t7,-11t4,-10t3,-8l2,-5l3,4q3,4 6,8t9,11t13,13t15,13t20,12t23,10t26,7t31,3q126,0 137,-113q1,-7 1,-139l0,-86q0,-38 2,-45t11,-10q21,-3 49,-3l16,0l0,-46l-8,0l-23,1q-24,1 -51,1t-38,1q-103,0 -112,-3l-8,0l0,46l16,0q61,0 61,16q1,2 1,138q-1,135 -2,143q-6,28 -20,42t-24,17t-26,2q-45,0 -79,-34q-27,-27 -34,-55t-8,-83l0,-64l0,-60q0,-30 1,-40t3,-13t9,-6q21,-3 49,-3l16,0l0,-46l-8,0l-24,1q-23,1 -50,1t-38,1q-103,0 -112,-3l-8,0l0,46l16,0q61,0 61,16q1,2 1,138q-1,135 -2,143q-6,28 -20,42t-24,17t-26,2q-45,0 -79,-34q-27,-27 -34,-55t-8,-83l0,-64l0,-60q0,-30 1,-40t3,-13t9,-6q21,-3 49,-3l16,0l0,-46l-8,0l-23,1q-24,1 -51,1t-38,1q-103,0 -112,-3l-8,0l0,46l16,0z" stroke-width="10" id="svg_155"/>
                  <path d="m295,316q0,40 -27,69t-78,29q-36,0 -62,-13q-30,-19 -30,-52q-1,-5 0,-13t16,-24t43,-25q18,-5 44,-9t44,-9t32,-13q17,-8 33,-20t32,-41t17,-62q0,-62 -38,-102t-123,-41l-8,0q-52,0 -96,36l-8,-7l-9,-9q-6,-6 -12,-11l-11,-10l-8,0l-4,0q-3,0 -9,6l0,79l0,58q0,21 2,25t10,5l9,0q12,0 16,-4t5,-12t7,-27t19,-42q35,-51 97,-51q97,0 97,78q0,29 -18,47q-20,24 -83,36t-83,23q-36,17 -57,46t-21,62q0,39 17,66t43,40t50,18t44,5l11,0q40,0 70,-15l15,-8l9,7q10,9 22,17l8,0l4,0q3,0 9,-6l0,-132l-6,-6l-28,0q-6,6 -6,12z" stroke-width="10" id="svg_154"/>
                  <path d="m84,237t0,13t14,20l581,0q15,-8 15,-20t-15,-20l-581,0q-14,7 -14,20l0,-13z" stroke-width="10" id="svg_153"/>
                  <path d="m132,622q-7,7 -11,9t-16,3t-43,3l-33,0l0,46l106,0q86,0 97,-1t17,-7q1,-1 105,-277l104,-274l104,274q104,276 106,277q3,6 15,7t98,1l106,0l0,-46l-33,0q-40,-1 -51,-3t-18,-12l0,-561q6,-10 17,-12t52,-3l33,0l0,-46l-11,0q-21,3 -140,3q-131,0 -140,-3l-11,0l0,46l33,0q42,1 51,3t19,12l0,286q0,77 0,114t0,85t0,67l-1,19q-233,-618 -237,-625q-4,-6 -20,-6t-20,6q-1,2 -118,309l-116,308l0,-18q-1,-18 -1,-63t0,-80t0,-107l1,-270q11,-36 85,-40l17,0l0,-46l-9,0q-15,3 -115,3q-102,0 -117,-3l-8,0l0,46l17,0q32,2 52,10t24,13t10,17l0,536z" stroke-width="10" id="svg_152"/>
                  <path d="m27,422q53,4 82,56t32,122l0,15l40,0l0,-184l135,0l0,-46l-135,0l0,-144q1,-125 1,-141t7,-32q14,-39 49,-39q44,0 54,71q1,8 1,46l0,35l40,0l0,-35l0,-12q0,-77 -42,-117q-27,-27 -70,-27q-34,0 -59,12t-38,31t-19,35t-7,32q-1,7 -1,148l0,137l-79,0l0,37l9,0z" stroke-width="10" id="svg_151"/>
                  <path d="m36,46l14,0q39,0 47,14l0,8q0,9 0,23t1,31t0,39t0,42q0,31 0,66t0,59l-1,23q-3,19 -14,25t-45,9l-18,0l0,23q0,23 2,23l10,1q10,1 28,2t36,2q16,1 35,2t29,3t11,1l3,0l0,-69q39,68 97,68l6,0q45,0 66,-22t21,-46q0,-21 -13,-36t-38,-15q-25,0 -37,16t-13,34q0,9 2,16t5,12t3,5q-2,2 -23,-4q-16,-8 -24,-15q-47,-45 -47,-179l0,-53q0,-13 0,-27t0,-26t1,-20t0,-15l0,-5q1,-2 3,-4t5,-3t5,-3t7,-2t7,-1t9,-1t9,0t10,-1t10,0l31,0l0,-46l-9,0q-18,3 -127,3q-103,0 -112,-3l-8,0l0,46l16,0z" stroke-width="10" id="svg_150"/>
                  <path d="m56,250q0,144 100,238t228,95q146,0 242,-98t96,-235q0,-140 -97,-236t-235,-97q-141,0 -237,97t-97,236zm626,0q0,72 -33,137t-103,110t-165,45q-109,0 -197,-83t-89,-209q0,-118 83,-205t211,-87q126,0 209,87t84,205zm-371,0q0,35 21,54t43,24q1,0 7,0t10,1q32,-3 53,-24t21,-55q0,-33 -21,-55t-56,-23q-35,0 -56,23t-22,55z" stroke-width="10" id="svg_149"/>
                  <path d="m338,431q6,-2 84,-2q57,0 81,2l5,0l0,-46l-11,0q-58,-4 -74,-40q-2,-4 -67,-173t-68,-174q-5,-9 -25,-9q-19,0 -24,9q-140,361 -141,366q-5,14 -16,17t-39,4l-24,0l0,46l6,0l8,-1q8,0 20,0t26,0t25,-1t18,-1q95,0 110,3l8,0l0,-46l-14,0q-39,-1 -42,-15q0,-4 51,-136l51,-132l91,239l0,8q0,14 -10,23t-18,11t-14,2l-4,0l0,46l7,0z" stroke-width="10" id="svg_148"/>
                  <path d="m109,429q-27,0 -43,18t-16,44q0,71 53,123t132,52q91,0 152,-56t62,-145q0,-43 -20,-82t-48,-68t-80,-74q-36,-31 -100,-92l-59,-56l76,-1q157,0 167,5q7,2 24,89l0,3l40,0l0,-3q-1,-3 -13,-91t-15,-92l0,-3l-371,0l0,19l0,12q0,7 6,15t30,35q29,32 50,56q9,10 34,37t34,37t29,33t28,34t23,30t21,32t15,29t13,32t7,30t3,33q0,63 -34,109t-97,46q-33,0 -58,-17t-35,-33t-10,-19q0,-1 5,-1q18,0 37,-14t19,-46q0,-25 -16,-42t-45,-18z" stroke-width="10" id="svg_147"/>
                  <path d="m56,124t0,92t51,159t131,67q22,0 42,-4t39,-13t33,-18t30,-22t24,-24t21,-25t15,-21t13,-18t7,-12l7,12q86,145 210,145q8,0 43,-5l0,-39l-4,0q-8,2 -24,2q-37,0 -71,-17t-56,-40t-40,-49t-24,-41t-8,-18q0,-4 25,-43t34,-49q71,-99 142,-99q21,0 23,2l3,0l0,-51q-27,-6 -44,-6q-126,0 -221,152q-2,4 -3,5l-7,-12q-85,-145 -212,-145q-78,0 -128,67l-51,68zm37,89q0,-70 33,-126t94,-56q38,0 72,17t57,40t40,49t24,41t8,18q0,4 -25,43t-34,49q-40,57 -74,78t-75,21q-50,0 -85,-50t-35,-124z" stroke-width="10" id="svg_146"/>
                  <path d="m127,463q-27,0 -42,17t-16,44q0,55 48,98t116,43q35,0 44,-1q74,-12 113,-53t40,-89q0,-52 -34,-101t-94,-71l-3,-2q0,-1 9,-3t29,-9t38,-21q82,-53 82,-140q0,-79 -62,-138t-157,-59q-80,0 -138,43t-58,109q0,28 18,45t45,18q28,0 46,-18t18,-45q0,-11 -3,-20t-7,-16t-11,-12t-12,-8t-10,-4t-8,-3l-4,-1q51,-45 124,-45q55,0 83,53q17,33 17,101l0,20q0,95 -64,127q-15,6 -61,7l-42,1l-3,2q-2,3 -2,16q0,18 8,18q28,0 58,5q34,5 62,42t28,112l0,8q0,57 -35,79q-22,14 -47,14q-32,0 -59,-11t-38,-23t-11,-12l3,0q3,-1 8,-2t10,-5t12,-7t10,-11t8,-15t3,-20q0,-22 -14,-39t-45,-18z" stroke-width="10" id="svg_145"/>
                  <path d="m462,0q-18,3 -129,3q-116,0 -134,-3l-9,0l0,46l31,0q20,0 27,0t17,2t14,5t7,8q1,2 1,54l0,50l-259,0l0,46l151,231q153,232 155,233q2,2 21,2l18,0l6,-6l0,-460l92,0l0,-46l-92,0l0,-51q0,-41 0,-48t6,-12q8,-7 57,-8l29,0l0,-46l-9,0zm-169,211l0,334l-219,-333l109,-1l110,0z" stroke-width="10" id="svg_144"/>
                  <path d="m78,60q0,24 17,42t43,18q24,0 42,-16t19,-43q0,-25 -17,-43t-43,-18t-43,17t-18,43z" stroke-width="10" id="svg_143"/>
                </defs>
                <g id="svg_374" transform="matrix(1 0 0 -1 0 0)" stroke-width="0" fill="rgb(68, 68, 68)" stroke="rgb(68, 68, 68)">
                  <use id="svg_375" xlink:href="#svg_142"/>
                  <use id="svg_376" y="0" x="555" xlink:href="#svg_141"/>
                  <use id="svg_377" y="0" x="949" xlink:href="#svg_140"/>
                  <use id="svg_378" y="0" x="1526" xlink:href="#svg_139"/>
                  <use id="svg_379" y="0" x="2197" xlink:href="#svg_138"/>
                  <use id="svg_380" y="0" x="3258" xlink:href="#svg_137"/>
                </g>
              </svg>
            </g>
          </svg>
        </g>
      </g>
      <g id="svg_381" class="annotation">
        <g id="svg_226" class="annotation-text-g">
          <svg id="svg_382" height="19" width="57" y="35" x="352">
            <rect id="svg_383" stroke-width="1px" stroke="rgb(0, 0, 0)" stroke-opacity="0" fill="rgb(0, 0, 0)" fill-opacity="0" height="18" width="56" y="0.5" x="0.5" class="bg"/>
            <g id="svg_271" class="annotation-math-group">
              <svg xmlns:xlink="http://www.w3.org/1999/xlink" id="svg_384" width="5.644ex" y="2" x="1" preserveAspectRatio="xMinYMin meet" height="1.683ex" class="annotation-math" viewBox="0 -699.4581492681522 2420.5555555555557 743.9162985363043">
                <defs>
                  <path d="m131,622q-7,7 -11,9t-16,3t-43,3l-33,0l0,46l201,0l38,0l79,0q77,0 113,-5t72,-27q43,-24 68,-61t25,-78q0,-51 -41,-93t-107,-59l-10,-3q73,-9 129,-55t56,-115q0,-68 -51,-120t-131,-64q-13,-2 -227,-3l-214,0l0,46l33,0q42,1 51,3t19,12l0,561zm380,-109q0,47 -26,81t-69,42q-1,0 -13,0t-32,0t-38,1q-67,0 -82,-1t-19,-8q-3,-4 -3,-129l0,-125l83,0l84,1l10,2q4,1 11,3t25,13t32,24t25,39t12,57zm26,-325q0,51 -28,94t-79,54l-101,1l-100,0l0,-137l0,-84q0,-59 5,-64q6,-5 100,-5l49,0q42,0 60,6q43,14 68,51t26,84z" stroke-width="10" id="svg_270"/>
                  <path d="m21,287q1,6 3,16t12,38t20,47t32,37t44,17t43,-7t30,-18t16,-22t8,-19l2,-7q0,-2 1,-2l11,11q60,64 141,64q17,0 31,-2t26,-7t19,-10t15,-12t10,-13t8,-13t4,-12t3,-9t2,-7l8,10q63,75 149,75q54,0 87,-27t34,-79q0,-51 -38,-158t-38,-128q1,-14 5,-19t15,-5q28,0 52,30t39,82q3,11 6,13t16,2q20,0 20,-8q0,-1 -4,-15q-8,-29 -22,-57t-46,-56t-69,-27q-47,0 -68,27t-21,56q0,19 36,120t37,152q0,59 -44,59l-5,0q-86,0 -145,-101l-7,-12l-33,-134q-33,-131 -38,-141q-13,-27 -43,-27q-13,0 -21,7t-11,12t-3,10q0,11 34,143l36,146q3,15 3,38q0,59 -44,59l-5,0q-86,0 -145,-101l-7,-12l-33,-134q-33,-131 -38,-141q-13,-27 -43,-27q-13,0 -21,6t-11,12t-2,10q0,13 38,164q39,154 39,161q3,15 3,27q0,36 -25,36q-22,0 -37,-28t-23,-61t-12,-36q-2,-2 -16,-2l-14,0q-6,6 -6,9z" stroke-width="10" id="svg_269"/>
                  <path d="m33,157q0,101 76,192t171,92q51,0 90,-49q16,30 46,30q13,0 23,-8t10,-20q0,-13 -37,-160t-38,-166q0,-25 7,-33t21,-9q9,1 20,9q21,20 41,96q6,20 10,21q2,1 10,1l4,0q19,0 19,-9q0,-6 -5,-27t-20,-54t-32,-50q-13,-13 -32,-21q-8,-2 -24,-2q-34,0 -57,15t-30,31l-6,15q-1,1 -4,-1q-2,-2 -4,-4q-59,-56 -120,-56q-55,0 -97,40t-42,127zm318,171q0,6 -5,22t-23,35t-46,20q-35,0 -67,-31t-50,-81q-29,-79 -41,-164q0,-3 0,-11t-1,-12q0,-45 18,-62t43,-18q38,0 75,33t44,51q2,4 27,107t26,111z" stroke-width="10" id="svg_268"/>
                  <path d="m52,289q7,42 54,97t116,56q35,0 64,-18t43,-45q42,63 101,63q37,0 64,-22t28,-59q0,-29 -14,-47t-27,-22t-23,-4q-19,0 -31,11t-12,29q0,46 50,63q-11,13 -40,13q-13,0 -19,-2q-38,-16 -56,-66q-60,-221 -60,-258q0,-28 16,-40t35,-12q37,0 73,33t49,81q3,10 6,11t16,2l4,0q15,0 15,-8q0,-1 -2,-11q-16,-57 -62,-101t-107,-44q-70,0 -106,63q-41,-62 -94,-62l-6,0q-49,0 -70,26t-22,55q0,32 19,52t45,20q43,0 43,-42q0,-20 -12,-35t-23,-20t-13,-5l-3,-1q0,-1 6,-4t16,-7t19,-3q36,0 62,45q9,16 23,68t28,108t16,66q5,27 5,39q0,28 -15,40t-34,12q-40,0 -75,-32t-49,-82q-2,-9 -5,-10t-16,-2l-14,0q-6,6 -6,11z" stroke-width="10" id="svg_229"/>
                  <path d="m184,600q0,24 19,42t44,19q18,0 30,-12t13,-30q0,-23 -20,-42t-44,-20q-15,0 -28,10t-14,33zm-163,-313q0,8 9,31t24,51t44,51t60,22q39,0 65,-23t27,-62q0,-17 -14,-56t-40,-105t-42,-113q-5,-22 -5,-32q0,-25 17,-25q9,0 19,3t23,14t27,35t25,59q3,12 5,14t17,2q20,0 20,-10q0,-8 -9,-31t-25,-51t-45,-50t-62,-22q-32,0 -59,21t-28,64q0,17 5,32t43,114q38,101 44,121t7,39q0,24 -17,24l-2,0q-30,0 -55,-33t-38,-84q-1,-1 -2,-3t-1,-3t-2,-2t-3,-1t-4,0t-8,0l-14,0q-6,6 -6,9z" stroke-width="10" id="svg_267"/>
                  <path d="m311,43q-15,-13 -44,-28t-61,-15q-63,0 -101,45t-39,115q0,105 77,193t171,89q47,0 87,-48l3,4q2,3 5,6t9,8t13,7t16,3q14,0 23,-9t10,-19q0,-15 -57,-242t-60,-232q-18,-54 -77,-89t-135,-36q-141,0 -141,68q0,26 18,46t46,20q15,0 28,-9t14,-31q0,-10 -2,-19t-7,-14t-8,-10t-7,-8l-2,-2l1,0q10,-3 60,-3q38,0 60,12q23,11 43,33t28,47q6,19 16,62q13,48 13,56zm73,285l-4,11q-3,11 -5,15t-6,14t-10,14t-13,11t-18,9t-22,3q-44,0 -85,-53q-30,-39 -50,-119t-20,-116q0,-79 62,-79q56,0 110,70l8,10l53,210z" stroke-width="10" id="svg_266"/>
                  <path d="m137,683q1,0 72,5t73,6q12,0 12,-9q0,-11 -36,-151q-38,-148 -38,-151q0,-2 7,5q61,54 130,54q54,0 87,-27t34,-79q0,-51 -38,-158t-38,-128q1,-14 5,-19t15,-5q28,0 52,30t39,82q3,11 6,13t16,2q20,0 20,-8q0,-1 -4,-15q-16,-59 -51,-97q-34,-43 -81,-43l-5,0q-47,0 -68,27t-21,57q0,16 36,118t37,153q0,59 -44,59l-5,0q-83,0 -144,-98l-7,-13l-34,-135q-32,-130 -37,-142q-13,-27 -44,-27q-14,0 -24,9t-11,18q0,14 73,304l74,296q0,13 -7,16t-39,5l-21,0q-6,6 -6,8t2,19q5,19 13,19z" stroke-width="10" id="svg_265"/>
                  <path d="m26,385q-7,7 -7,10q0,4 3,16t5,14q2,5 9,5t51,1l53,0l19,80q3,11 7,29t7,26t6,20t8,17t10,12t14,9t18,2q18,-1 25,-11t7,-19q0,-7 -9,-47t-20,-79l-10,-37q0,-2 50,-2l51,0q7,-7 7,-11q0,-22 -13,-35l-107,0l-36,-145q-39,-160 -39,-172q0,-42 27,-42q35,0 68,34t53,84q2,6 5,7t15,2l4,0q15,0 15,-8q0,-3 -3,-12q-5,-16 -18,-38t-34,-47t-51,-42t-61,-17q-30,0 -57,15t-39,52q-2,8 -2,27l0,18l35,140q35,141 36,142q0,2 -51,2l-51,0z" stroke-width="10" id="svg_264"/>
                  <path d="m21,287q1,3 2,8t5,22t10,31t15,33t20,30t26,22t33,9q29,0 51,-12t31,-22t11,-20q2,-6 3,-6t8,7q48,52 111,52l3,0q48,0 72,-41q8,-19 8,-37q0,-30 -13,-48t-26,-23t-25,-4q-20,0 -32,11t-12,29q0,48 56,64q-22,13 -36,13q-56,0 -103,-74q-10,-16 -15,-33t-34,-133q-34,-140 -39,-149q-13,-27 -43,-27q-13,0 -21,6t-11,12t-2,10q0,13 40,172t40,177q0,39 -26,39q-21,0 -36,-28t-24,-61t-11,-36q-2,-2 -16,-2l-14,0q-6,6 -6,9z" stroke-width="10" id="svg_263"/>
                  <path d="m201,-11q-75,0 -121,49t-46,118q0,65 30,123t82,101q76,61 155,61q32,0 40,-1q13,-3 26,-7t35,-16t36,-30t26,-49t12,-70q0,-107 -86,-193t-189,-86zm-80,131q0,-50 26,-72t59,-22q44,0 83,32t62,84q9,21 23,74t14,92q0,44 -18,67q-24,30 -64,30q-63,0 -111,-58q-37,-44 -55,-117t-19,-110z" stroke-width="10" id="svg_262"/>
                  <path d="m580,385q0,21 19,39t42,19q18,0 33,-18t16,-57q0,-29 -19,-115q-15,-56 -27,-92t-35,-81t-55,-68t-72,-23q-44,0 -78,16t-49,43q-1,-1 -3,-4q-41,-55 -100,-55q-26,0 -50,6t-47,19t-37,39t-14,63q0,54 34,146t35,117q0,1 0,2q0,9 0,12t-4,7t-11,4l-4,0q-23,0 -42,-19t-30,-41t-17,-42t-8,-22q-2,-2 -16,-2l-14,0q-6,6 -6,9q0,6 8,28t23,51t44,52t65,23q43,0 66,-25t23,-58q0,-18 -33,-108t-33,-139q0,-46 21,-65t53,-20q43,0 76,61l5,9l0,23q0,3 0,9t1,8t1,7t1,9t3,13t3,17t6,24t8,32t11,43q29,114 33,123q13,27 43,27q19,0 26,-10t8,-19q0,-13 -29,-128t-32,-132q-2,-11 -2,-35l0,-7q0,-15 3,-29t19,-29t45,-16q71,0 113,122q9,23 20,65t12,60q0,33 -13,52t-26,32t-13,28z" stroke-width="10" id="svg_261"/>
                  <path d="m21,287q1,6 3,16t12,38t20,47t33,37t46,17q36,0 60,-18t30,-34t6,-21q0,-2 1,-2l11,11q61,64 139,64q54,0 87,-27t34,-79t-38,-157t-38,-127q0,-26 17,-26q6,0 9,1q29,5 52,38t35,80q2,8 20,8q20,0 20,-8q0,-1 -4,-15q-8,-29 -22,-57t-46,-56t-69,-27q-47,0 -68,27t-21,56q0,19 36,120t37,152q0,59 -44,59l-5,0q-86,0 -145,-101l-7,-12l-33,-134q-33,-131 -38,-141q-13,-27 -43,-27q-13,0 -21,6t-11,12t-2,10q0,13 38,163t40,163q1,5 1,23q0,39 -24,39q-38,0 -63,-100q-6,-20 -6,-21q-2,-6 -19,-6l-14,0q-6,6 -6,9z" stroke-width="10" id="svg_260"/>
                  <path d="m56,237t0,13t14,20l765,0q-116,87 -143,223q0,1 0,3t-1,3q0,12 17,12l3,0q9,0 12,-1t6,-4t3,-9t3,-16t8,-25q22,-67 73,-120t119,-75q9,-3 9,-11q0,-6 -5,-9t-24,-10t-38,-19q-41,-26 -71,-60t-45,-67t-21,-50t-8,-31q-2,-10 -5,-12t-16,-3q-20,0 -20,11q0,7 5,25q32,126 139,205l-765,0q-14,7 -14,20l0,-13z" stroke-width="10" id="svg_259"/>
                  <path d="m118,-162q2,0 6,-2t11,-3t12,-1q13,0 24,13t16,29q10,27 34,153t46,240t22,115l0,3l-47,0q-47,0 -50,2q-4,3 -4,10l7,28q2,5 8,5t47,1q48,0 48,1q0,2 9,50t12,58q37,165 146,165q37,-2 61,-22t24,-53q0,-36 -21,-52t-42,-17q-44,0 -44,42q0,19 11,33t24,21l9,5q-16,6 -30,6q-12,0 -23,-10t-15,-28q-7,-29 -16,-78t-16,-83t-7,-36q0,-2 55,-2q45,0 52,-1t11,-6q1,-4 -2,-17t-5,-16q-2,-5 -9,-5t-54,-1l-56,0l-23,-122q-48,-248 -67,-310q-27,-85 -70,-126q-37,-32 -73,-32q-32,0 -58,19t-26,54q0,37 21,54t42,17q44,0 44,-42q0,-19 -11,-33t-24,-21l-9,-5z" stroke-width="10" id="svg_258"/>
                  <path d="m94,250q0,69 10,131t23,107t37,88t38,67t42,52t33,34t25,21l13,0l4,0q14,0 14,-9q0,-3 -17,-21t-41,-53t-49,-86t-42,-138t-17,-193t17,-192t41,-139t49,-86t42,-53t17,-21q0,-9 -15,-9l-3,0l-13,0l-28,24q-94,85 -137,212t-43,264z" stroke-width="10" id="svg_257"/>
                  <path d="m60,749l4,1q5,0 10,0l12,0l28,-24q94,-85 137,-212t43,-264q0,-68 -10,-131t-23,-107t-37,-88t-38,-67t-41,-51t-32,-33t-23,-19q-3,-3 -4,-4l-12,0q-8,0 -11,0t-5,3t-3,9q1,1 11,13q155,161 155,475t-155,475q-10,12 -11,13q0,8 5,11z" stroke-width="10" id="svg_256"/>
                  <path d="m56,347q0,13 14,20l637,0q15,-8 15,-20q0,-11 -14,-19l-318,-1l-318,0q-16,5 -16,20zm0,-194q0,15 16,20l636,0q14,-10 14,-20q0,-13 -15,-20l-637,0q-14,7 -14,20z" stroke-width="10" id="svg_228"/>
                  <path d="m164,157q0,-24 -16,-40t-39,-16l-7,0q46,-79 122,-79q70,0 102,60q19,33 19,128q0,103 -27,139q-26,33 -58,33l-6,0q-78,0 -118,-68q-4,-7 -7,-8t-15,-2q-17,0 -19,6q-2,4 -2,175l0,129q0,50 5,50q2,2 4,2q1,0 21,-8t55,-16t75,-8q71,0 136,28q8,4 13,4q8,0 8,-18l0,-13q-82,-97 -205,-97q-31,0 -56,6l-10,2l0,-172q19,14 30,22t36,16t51,8q81,0 137,-65t56,-154q0,-92 -64,-157t-156,-66q-81,0 -130,54t-49,122q0,24 11,38t23,18t23,4q25,0 41,-17t16,-40z" stroke-width="10" id="svg_255"/>
                  <path d="m21,287q0,14 15,48t48,71t74,36q41,0 66,-23t26,-64q-2,-19 -3,-21q0,-3 -16,-46t-33,-97t-16,-86q0,-43 14,-60t42,-18q23,0 43,11t31,23t27,33q0,1 5,20t14,59t19,74q38,150 42,157q13,27 43,27q13,0 21,-7t11,-12t2,-9q0,-13 -49,-210t-56,-216q-28,-83 -97,-132t-138,-50q-45,0 -79,22t-34,66q0,22 7,37t19,22t20,10t17,3q44,0 44,-42q0,-20 -12,-35t-23,-20t-13,-5l-3,-1q2,-5 19,-12t34,-7l8,0q17,0 26,2q33,9 61,38t43,62t23,56t8,30l-6,-4q-6,-4 -19,-11t-26,-12q-20,-5 -39,-5q-46,0 -81,22t-46,71q-1,7 -1,31q0,57 35,149t35,117q0,1 0,2q0,9 0,12t-4,7t-11,4l-4,0q-23,0 -42,-19t-30,-41t-17,-42t-8,-22q-2,-2 -16,-2l-14,0q-6,6 -6,9z" stroke-width="10" id="svg_254"/>
                  <path d="m42,46l14,0q39,0 47,14l0,8q0,9 0,23t0,33t1,43t0,50t0,55t0,57q0,37 0,78t0,75t0,60t-1,44t0,17q-3,19 -14,25t-45,9l-18,0l0,23q0,23 2,23l10,1q10,1 29,2t37,2q17,1 37,2t30,3t11,1l3,0l0,-315q0,-317 1,-319q4,-8 12,-11q21,-3 49,-3l16,0l0,-46l-8,0l-23,1q-23,1 -49,1t-38,1t-38,0t-50,-2l-23,-1l-8,0l0,46l16,0z" stroke-width="10" id="svg_253"/>
                  <path d="m28,214q0,95 65,164t157,70q90,0 155,-68t66,-165q0,-95 -64,-160t-157,-65q-97,0 -159,67t-63,157zm222,-184q122,0 122,163l0,32l0,25q0,22 -1,38t-7,38t-16,36t-31,28t-49,20q-5,1 -16,1q-30,0 -57,-12q-43,-22 -56,-61t-13,-92l0,-20q0,-96 19,-135q32,-61 105,-61z" stroke-width="10" id="svg_252"/>
                  <path d="m329,409q44,44 100,44q30,0 43,-19t13,-38q0,-14 -9,-25t-27,-11q-33,0 -37,30q-2,14 3,21q0,1 1,3l0,1q-28,-3 -53,-22q-8,-5 -8,-7q0,-1 4,-5t9,-12t11,-18t9,-26t4,-33q0,-62 -49,-105t-121,-44q-50,0 -99,28q-11,-18 -11,-38q0,-35 26,-52q9,-6 17,-6t72,-2q84,-1 108,-6q61,-9 96,-41q39,-39 39,-98q0,-67 -78,-103q-60,-31 -142,-31q-83,0 -143,31q-78,35 -78,100q0,36 21,60t42,33l11,6q-36,31 -36,84q0,47 29,85q-44,44 -44,99q0,63 50,106t121,44q51,0 95,-26l11,-7zm-30,-66q-5,28 -26,44t-52,17q-29,0 -50,-16t-26,-45q-3,-17 -3,-51q0,-44 7,-65t30,-35q17,-10 43,-10q22,0 38,7t23,18t11,20t5,15q3,16 3,50t-3,51zm104,-418q0,25 -14,41t-41,23t-49,9t-54,2l-27,0q-67,0 -80,-6q-20,-9 -31,-28t-12,-40q0,-10 6,-23t21,-30t48,-28t80,-12q69,0 111,28t42,64z" stroke-width="10" id="svg_251"/>
                  <path d="m213,578l-13,-5q-14,-5 -40,-10t-58,-7l-19,0l0,46l19,0q47,2 87,15t56,24t28,22q2,3 12,3q9,0 17,-6l0,-299l1,-300q7,-7 12,-9t24,-4t62,-2l26,0l0,-46l-11,0q-21,3 -159,3q-136,0 -157,-3l-12,0l0,46l26,0q22,0 38,0t25,1t16,3t8,2t6,5t6,4l0,517z" stroke-width="10" id="svg_227"/>
                  <path d="m96,585q56,81 153,81q48,0 96,-26t78,-92q37,-83 37,-228q0,-155 -43,-237q-20,-42 -55,-67t-61,-31t-51,-7q-26,0 -52,6t-61,32t-55,67q-43,82 -43,237q0,174 57,265zm225,12q-30,32 -71,32q-42,0 -72,-32q-25,-26 -33,-72t-8,-192q0,-158 8,-208t36,-79q28,-30 69,-30q40,0 68,30q29,30 36,84t8,203q0,145 -8,191t-33,73z" stroke-width="10" id="svg_250"/>
                  <path stroke-width="10" id="svg_249"/>
                  <path d="m114,620q-1,1 -4,4t-3,3t-4,3t-5,2t-7,2t-11,1t-13,1t-19,1l-29,0l0,46l9,0q18,-3 124,-3q121,0 142,3l11,0l0,-46l-21,0q-61,-3 -61,-17q0,-2 90,-248t91,-246l86,232q85,230 85,239q0,19 -21,29t-46,11l-5,0l0,46l9,0q15,-3 115,-3q91,0 97,3l6,0l0,-46l-7,0q-75,0 -96,-41q0,-1 -112,-305t-114,-305q-5,-8 -19,-8l-8,0l-7,0q-14,0 -19,8q-2,2 -117,317q-117,314 -117,317z" stroke-width="10" id="svg_248"/>
                  <path d="m41,46l14,0q39,0 47,14l0,8q0,9 0,23t0,33t0,43t1,50t0,55t0,57q0,37 0,78t0,75t-1,60t0,44t0,17q-3,19 -14,25t-45,9l-18,0l0,23q0,23 2,23l10,1q10,1 29,2t37,2q17,1 37,2t30,3t11,1l3,0l0,-327q60,75 144,75q123,0 135,-113q1,-7 1,-139l0,-86q0,-38 2,-45t11,-10q21,-3 49,-3l16,0l0,-46l-8,0l-24,1q-23,1 -50,1t-38,1q-103,0 -112,-3l-8,0l0,46l16,0q61,0 61,16q1,2 1,138q-1,135 -2,143q-6,28 -20,42t-24,17t-26,2q-45,0 -79,-34q-27,-27 -34,-55t-8,-83l0,-64l0,-60q0,-30 1,-40t3,-13t9,-6q21,-3 49,-3l16,0l0,-46l-8,0l-23,1q-24,1 -51,1t-38,1q-103,0 -112,-3l-8,0l0,46l16,0z" stroke-width="10" id="svg_247"/>
                  <path d="m137,305t-22,0t-37,15t-15,39q0,35 34,62t121,27q73,0 118,-32t60,-76q5,-14 5,-31t1,-115l0,-70q0,-48 5,-66t21,-18q15,0 20,16t5,53l0,36l40,0l0,-39q-1,-40 -3,-47q-9,-30 -35,-47t-55,-18t-47,18t-24,42l0,4l-2,-3q-2,-3 -5,-6t-8,-9t-12,-11t-15,-12t-18,-11t-22,-8t-26,-6t-31,-3q-60,0 -108,31t-48,87q0,21 7,40t27,41t48,37t78,28t110,15l14,0l0,22q0,34 -6,50q-22,71 -97,71q-18,0 -34,-1t-25,-4t-8,-3q22,-15 22,-44q0,-25 -16,-39l-17,-15zm-11,-199q0,-31 24,-55t59,-25q38,0 67,23t39,60q2,7 3,66q0,58 -1,58q-8,0 -21,-1t-45,-9t-58,-20t-46,-37t-21,-60z" stroke-width="10" id="svg_246"/>
                  <path d="m273,0q-18,3 -127,3q-103,0 -112,-3l-8,0l0,46l16,0q28,0 49,3q8,3 12,11q1,2 1,164l0,161l-71,0l0,46l71,0l0,66l1,67l2,10q19,65 64,94t95,36q1,0 9,0t14,1q41,-3 62,-26t21,-52q0,-23 -14,-37t-37,-14t-37,14t-14,37q0,20 18,40l-4,0q-4,1 -11,1q-28,0 -50,-21t-34,-55q-6,-20 -7,-95l0,-66l111,0l0,-46l-108,0l0,-160q0,-162 1,-164t3,-4t5,-3t5,-3t7,-2t7,-1t9,-1t9,0t10,-1t10,0l31,0l0,-46l-9,0z" stroke-width="10" id="svg_245"/>
                  <path d="m423,750q9,0 15,-6t6,-14q0,-5 -173,-482t-179,-488q-7,-10 -17,-10q-7,0 -13,5t-6,14q0,10 174,488t177,483q4,10 16,10z" stroke-width="10" id="svg_244"/>
                  <path d="m36,46l14,0q39,0 47,14l0,8q0,9 0,23t0,33t1,43t0,50t0,55t0,57q0,37 0,78t0,75t0,60t-1,44t0,17q-3,19 -14,25t-45,9l-18,0l0,23q0,23 2,23l10,1q10,1 29,2t37,2q17,1 37,2t30,3t11,1l3,0l0,-231l1,-230l60,54q60,54 64,60q6,9 6,17q0,19 -21,21l-5,0l0,46l9,0q15,-3 119,-3q63,0 72,3l5,0l0,-46l-13,0q-69,-5 -116,-44q-74,-63 -74,-67q0,-1 63,-93t71,-102q14,-19 31,-26t49,-7l11,0l0,-46l-6,0q-9,3 -87,3q-96,0 -111,-3l-8,0l0,46l7,0q24,2 24,19q0,7 -4,14q-3,5 -50,74t-48,69l-52,-46l0,-56l0,-36q0,-19 2,-25t11,-10q21,-3 49,-3l16,0l0,-46l-8,0q-15,3 -109,3t-109,-3l-8,0l0,46l16,0z" stroke-width="10" id="svg_243"/>
                  <path d="m41,46l14,0q39,0 47,14l0,8q0,9 0,23t0,31t1,39t0,42q0,31 0,66t-1,59l0,23q-3,19 -14,25t-45,9l-18,0l0,23q0,23 2,23l10,1q10,1 28,2t37,2q17,1 36,2t29,3t11,1l3,0l0,-40q0,-38 1,-38t5,5t12,15t19,18t29,19t38,16q20,5 51,5q15,0 28,-2t23,-6t19,-8t15,-9t11,-11t9,-11t7,-11t4,-10t3,-8l2,-5l3,4q3,4 6,8t9,11t13,13t15,13t20,12t23,10t26,7t31,3q126,0 137,-113q1,-7 1,-139l0,-86q0,-38 2,-45t11,-10q21,-3 49,-3l16,0l0,-46l-8,0l-23,1q-24,1 -51,1t-38,1q-103,0 -112,-3l-8,0l0,46l16,0q61,0 61,16q1,2 1,138q-1,135 -2,143q-6,28 -20,42t-24,17t-26,2q-45,0 -79,-34q-27,-27 -34,-55t-8,-83l0,-64l0,-60q0,-30 1,-40t3,-13t9,-6q21,-3 49,-3l16,0l0,-46l-8,0l-24,1q-23,1 -50,1t-38,1q-103,0 -112,-3l-8,0l0,46l16,0q61,0 61,16q1,2 1,138q-1,135 -2,143q-6,28 -20,42t-24,17t-26,2q-45,0 -79,-34q-27,-27 -34,-55t-8,-83l0,-64l0,-60q0,-30 1,-40t3,-13t9,-6q21,-3 49,-3l16,0l0,-46l-8,0l-23,1q-24,1 -51,1t-38,1q-103,0 -112,-3l-8,0l0,46l16,0z" stroke-width="10" id="svg_242"/>
                  <path d="m295,316q0,40 -27,69t-78,29q-36,0 -62,-13q-30,-19 -30,-52q-1,-5 0,-13t16,-24t43,-25q18,-5 44,-9t44,-9t32,-13q17,-8 33,-20t32,-41t17,-62q0,-62 -38,-102t-123,-41l-8,0q-52,0 -96,36l-8,-7l-9,-9q-6,-6 -12,-11l-11,-10l-8,0l-4,0q-3,0 -9,6l0,79l0,58q0,21 2,25t10,5l9,0q12,0 16,-4t5,-12t7,-27t19,-42q35,-51 97,-51q97,0 97,78q0,29 -18,47q-20,24 -83,36t-83,23q-36,17 -57,46t-21,62q0,39 17,66t43,40t50,18t44,5l11,0q40,0 70,-15l15,-8l9,7q10,9 22,17l8,0l4,0q3,0 9,-6l0,-132l-6,-6l-28,0q-6,6 -6,12z" stroke-width="10" id="svg_241"/>
                  <path d="m84,237t0,13t14,20l581,0q15,-8 15,-20t-15,-20l-581,0q-14,7 -14,20l0,-13z" stroke-width="10" id="svg_240"/>
                  <path d="m132,622q-7,7 -11,9t-16,3t-43,3l-33,0l0,46l106,0q86,0 97,-1t17,-7q1,-1 105,-277l104,-274l104,274q104,276 106,277q3,6 15,7t98,1l106,0l0,-46l-33,0q-40,-1 -51,-3t-18,-12l0,-561q6,-10 17,-12t52,-3l33,0l0,-46l-11,0q-21,3 -140,3q-131,0 -140,-3l-11,0l0,46l33,0q42,1 51,3t19,12l0,286q0,77 0,114t0,85t0,67l-1,19q-233,-618 -237,-625q-4,-6 -20,-6t-20,6q-1,2 -118,309l-116,308l0,-18q-1,-18 -1,-63t0,-80t0,-107l1,-270q11,-36 85,-40l17,0l0,-46l-9,0q-15,3 -115,3q-102,0 -117,-3l-8,0l0,46l17,0q32,2 52,10t24,13t10,17l0,536z" stroke-width="10" id="svg_239"/>
                  <path d="m27,422q53,4 82,56t32,122l0,15l40,0l0,-184l135,0l0,-46l-135,0l0,-144q1,-125 1,-141t7,-32q14,-39 49,-39q44,0 54,71q1,8 1,46l0,35l40,0l0,-35l0,-12q0,-77 -42,-117q-27,-27 -70,-27q-34,0 -59,12t-38,31t-19,35t-7,32q-1,7 -1,148l0,137l-79,0l0,37l9,0z" stroke-width="10" id="svg_238"/>
                  <path d="m36,46l14,0q39,0 47,14l0,8q0,9 0,23t1,31t0,39t0,42q0,31 0,66t0,59l-1,23q-3,19 -14,25t-45,9l-18,0l0,23q0,23 2,23l10,1q10,1 28,2t36,2q16,1 35,2t29,3t11,1l3,0l0,-69q39,68 97,68l6,0q45,0 66,-22t21,-46q0,-21 -13,-36t-38,-15q-25,0 -37,16t-13,34q0,9 2,16t5,12t3,5q-2,2 -23,-4q-16,-8 -24,-15q-47,-45 -47,-179l0,-53q0,-13 0,-27t0,-26t1,-20t0,-15l0,-5q1,-2 3,-4t5,-3t5,-3t7,-2t7,-1t9,-1t9,0t10,-1t10,0l31,0l0,-46l-9,0q-18,3 -127,3q-103,0 -112,-3l-8,0l0,46l16,0z" stroke-width="10" id="svg_237"/>
                  <path d="m56,250q0,144 100,238t228,95q146,0 242,-98t96,-235q0,-140 -97,-236t-235,-97q-141,0 -237,97t-97,236zm626,0q0,72 -33,137t-103,110t-165,45q-109,0 -197,-83t-89,-209q0,-118 83,-205t211,-87q126,0 209,87t84,205zm-371,0q0,35 21,54t43,24q1,0 7,0t10,1q32,-3 53,-24t21,-55q0,-33 -21,-55t-56,-23q-35,0 -56,23t-22,55z" stroke-width="10" id="svg_236"/>
                  <path d="m338,431q6,-2 84,-2q57,0 81,2l5,0l0,-46l-11,0q-58,-4 -74,-40q-2,-4 -67,-173t-68,-174q-5,-9 -25,-9q-19,0 -24,9q-140,361 -141,366q-5,14 -16,17t-39,4l-24,0l0,46l6,0l8,-1q8,0 20,0t26,0t25,-1t18,-1q95,0 110,3l8,0l0,-46l-14,0q-39,-1 -42,-15q0,-4 51,-136l51,-132l91,239l0,8q0,14 -10,23t-18,11t-14,2l-4,0l0,46l7,0z" stroke-width="10" id="svg_235"/>
                  <path d="m109,429q-27,0 -43,18t-16,44q0,71 53,123t132,52q91,0 152,-56t62,-145q0,-43 -20,-82t-48,-68t-80,-74q-36,-31 -100,-92l-59,-56l76,-1q157,0 167,5q7,2 24,89l0,3l40,0l0,-3q-1,-3 -13,-91t-15,-92l0,-3l-371,0l0,19l0,12q0,7 6,15t30,35q29,32 50,56q9,10 34,37t34,37t29,33t28,34t23,30t21,32t15,29t13,32t7,30t3,33q0,63 -34,109t-97,46q-33,0 -58,-17t-35,-33t-10,-19q0,-1 5,-1q18,0 37,-14t19,-46q0,-25 -16,-42t-45,-18z" stroke-width="10" id="svg_234"/>
                  <path d="m56,124t0,92t51,159t131,67q22,0 42,-4t39,-13t33,-18t30,-22t24,-24t21,-25t15,-21t13,-18t7,-12l7,12q86,145 210,145q8,0 43,-5l0,-39l-4,0q-8,2 -24,2q-37,0 -71,-17t-56,-40t-40,-49t-24,-41t-8,-18q0,-4 25,-43t34,-49q71,-99 142,-99q21,0 23,2l3,0l0,-51q-27,-6 -44,-6q-126,0 -221,152q-2,4 -3,5l-7,-12q-85,-145 -212,-145q-78,0 -128,67l-51,68zm37,89q0,-70 33,-126t94,-56q38,0 72,17t57,40t40,49t24,41t8,18q0,4 -25,43t-34,49q-40,57 -74,78t-75,21q-50,0 -85,-50t-35,-124z" stroke-width="10" id="svg_233"/>
                  <path d="m127,463q-27,0 -42,17t-16,44q0,55 48,98t116,43q35,0 44,-1q74,-12 113,-53t40,-89q0,-52 -34,-101t-94,-71l-3,-2q0,-1 9,-3t29,-9t38,-21q82,-53 82,-140q0,-79 -62,-138t-157,-59q-80,0 -138,43t-58,109q0,28 18,45t45,18q28,0 46,-18t18,-45q0,-11 -3,-20t-7,-16t-11,-12t-12,-8t-10,-4t-8,-3l-4,-1q51,-45 124,-45q55,0 83,53q17,33 17,101l0,20q0,95 -64,127q-15,6 -61,7l-42,1l-3,2q-2,3 -2,16q0,18 8,18q28,0 58,5q34,5 62,42t28,112l0,8q0,57 -35,79q-22,14 -47,14q-32,0 -59,-11t-38,-23t-11,-12l3,0q3,-1 8,-2t10,-5t12,-7t10,-11t8,-15t3,-20q0,-22 -14,-39t-45,-18z" stroke-width="10" id="svg_232"/>
                  <path d="m462,0q-18,3 -129,3q-116,0 -134,-3l-9,0l0,46l31,0q20,0 27,0t17,2t14,5t7,8q1,2 1,54l0,50l-259,0l0,46l151,231q153,232 155,233q2,2 21,2l18,0l6,-6l0,-460l92,0l0,-46l-92,0l0,-51q0,-41 0,-48t6,-12q8,-7 57,-8l29,0l0,-46l-9,0zm-169,211l0,334l-219,-333l109,-1l110,0z" stroke-width="10" id="svg_231"/>
                  <path d="m78,60q0,24 17,42t43,18q24,0 42,-16t19,-43q0,-25 -17,-43t-43,-18t-43,17t-18,43z" stroke-width="10" id="svg_230"/>
                </defs>
                <g id="svg_385" transform="matrix(1 0 0 -1 0 0)" stroke-width="0" fill="rgb(68, 68, 68)" stroke="rgb(68, 68, 68)">
                  <use id="svg_386" xlink:href="#svg_229"/>
                  <use id="svg_387" y="0" x="854" xlink:href="#svg_228"/>
                  <use id="svg_388" y="0" x="1915" xlink:href="#svg_227"/>
                </g>
              </svg>
            </g>
          </svg>
        </g>
      </g>
    </g>
  </g>
</svg>
