<?xml version="1.0" encoding="UTF-8"?>
<svg xmlns="http://www.w3.org/2000/svg" xmlns:xlink="http://www.w3.org/1999/xlink" width="158.40332pt" height="39.526672pt" viewBox="0 0 158.40332 39.526672" version="1.1">
<g id="surface1">
<path style=" stroke:none;fill-rule:nonzero;fill:rgb(0%,0%,0%);fill-opacity:1;" d="M 9.488281 2.910156 C 9.507812 2.832031 9.546875 2.734375 9.546875 2.636719 C 9.546875 2.460938 9.351562 2.460938 9.3125 2.460938 C 9.3125 2.460938 8.433594 2.539062 8.335938 2.539062 C 8.023438 2.558594 7.769531 2.597656 7.4375 2.617188 C 6.988281 2.65625 6.871094 2.675781 6.871094 2.988281 C 6.871094 3.183594 7.007812 3.183594 7.261719 3.183594 C 8.140625 3.183594 8.160156 3.339844 8.160156 3.515625 C 8.160156 3.632812 8.121094 3.769531 8.101562 3.828125 L 7.007812 8.183594 C 6.8125 7.714844 6.324219 6.992188 5.386719 6.992188 C 3.375 6.992188 1.1875 9.609375 1.1875 12.265625 C 1.1875 14.042969 2.222656 15.078125 3.433594 15.078125 C 4.429688 15.078125 5.269531 14.316406 5.777344 13.710938 C 5.953125 14.785156 6.792969 15.078125 7.339844 15.078125 C 7.867188 15.078125 8.296875 14.765625 8.628906 14.121094 C 8.902344 13.496094 9.15625 12.402344 9.15625 12.34375 C 9.15625 12.246094 9.097656 12.167969 8.980469 12.167969 C 8.824219 12.167969 8.804688 12.265625 8.726562 12.539062 C 8.453125 13.59375 8.121094 14.726562 7.378906 14.726562 C 6.871094 14.726562 6.832031 14.257812 6.832031 13.90625 C 6.832031 13.828125 6.832031 13.457031 6.949219 12.949219 Z M 5.855469 12.773438 C 5.777344 13.066406 5.777344 13.105469 5.523438 13.457031 C 5.132812 13.945312 4.332031 14.726562 3.492188 14.726562 C 2.769531 14.726562 2.339844 14.0625 2.339844 13.007812 C 2.339844 12.011719 2.90625 10 3.238281 9.257812 C 3.863281 8.007812 4.703125 7.363281 5.386719 7.363281 C 6.578125 7.363281 6.8125 8.828125 6.8125 8.964844 C 6.8125 8.984375 6.753906 9.21875 6.734375 9.257812 Z M 5.855469 12.773438 "/>
<path style=" stroke:none;fill-rule:nonzero;fill:rgb(0%,0%,0%);fill-opacity:1;" d="M 11.199219 7.34375 L 12.527344 6.054688 C 14.460938 4.335938 15.203125 3.671875 15.203125 2.421875 C 15.203125 0.996094 14.089844 0 12.566406 0 C 11.160156 0 10.242188 1.152344 10.242188 2.265625 C 10.242188 2.949219 10.867188 2.949219 10.90625 2.949219 C 11.121094 2.949219 11.550781 2.8125 11.550781 2.285156 C 11.550781 1.972656 11.316406 1.640625 10.886719 1.640625 C 10.789062 1.640625 10.769531 1.640625 10.730469 1.660156 C 11.003906 0.839844 11.6875 0.390625 12.410156 0.390625 C 13.542969 0.390625 14.070312 1.40625 14.070312 2.421875 C 14.070312 3.417969 13.464844 4.394531 12.761719 5.175781 L 10.378906 7.832031 C 10.242188 7.96875 10.242188 8.007812 10.242188 8.300781 L 14.871094 8.300781 L 15.203125 6.132812 L 14.910156 6.132812 C 14.832031 6.503906 14.753906 7.050781 14.617188 7.246094 C 14.539062 7.34375 13.71875 7.34375 13.445312 7.34375 Z M 11.199219 7.34375 "/>
<path style=" stroke:none;fill-rule:nonzero;fill:rgb(0%,0%,0%);fill-opacity:1;" d="M 21.074219 16.914062 C 20.605469 17.597656 19.902344 18.203125 19.023438 18.203125 C 18.808594 18.203125 17.949219 18.164062 17.675781 17.34375 C 17.734375 17.363281 17.8125 17.363281 17.851562 17.363281 C 18.398438 17.363281 18.75 16.894531 18.75 16.484375 C 18.75 16.074219 18.417969 15.917969 18.144531 15.917969 C 17.851562 15.917969 17.226562 16.132812 17.226562 17.011719 C 17.226562 17.929688 18.007812 18.554688 19.023438 18.554688 C 20.820312 18.554688 22.617188 16.914062 23.125 14.921875 L 24.882812 7.929688 C 24.902344 7.832031 24.941406 7.734375 24.941406 7.617188 C 24.941406 7.363281 24.726562 7.167969 24.453125 7.167969 C 24.296875 7.167969 23.90625 7.246094 23.769531 7.792969 L 22.441406 13.046875 C 22.363281 13.378906 22.363281 13.417969 22.207031 13.613281 C 21.855469 14.121094 21.269531 14.726562 20.410156 14.726562 C 19.394531 14.726562 19.316406 13.730469 19.316406 13.261719 C 19.316406 12.226562 19.785156 10.859375 20.273438 9.550781 C 20.46875 9.042969 20.585938 8.789062 20.585938 8.4375 C 20.585938 7.675781 20.039062 6.992188 19.160156 6.992188 C 17.519531 6.992188 16.855469 9.589844 16.855469 9.746094 C 16.855469 9.804688 16.914062 9.902344 17.050781 9.902344 C 17.207031 9.902344 17.226562 9.824219 17.304688 9.570312 C 17.734375 8.066406 18.417969 7.363281 19.101562 7.363281 C 19.277344 7.363281 19.570312 7.363281 19.570312 7.949219 C 19.570312 8.417969 19.375 8.925781 19.101562 9.609375 C 18.222656 11.953125 18.222656 12.558594 18.222656 12.988281 C 18.222656 14.6875 19.453125 15.078125 20.351562 15.078125 C 20.859375 15.078125 21.503906 14.921875 22.148438 14.257812 L 22.167969 14.277344 C 21.894531 15.332031 21.71875 16.035156 21.074219 16.914062 Z M 21.074219 16.914062 "/>
<path style=" stroke:none;fill-rule:nonzero;fill:rgb(0%,0%,0%);fill-opacity:1;" d="M 0 22.113281 L 26.097656 22.113281 L 26.097656 22.867188 L 0 22.867188 Z M 0 22.113281 "/>
<path style=" stroke:none;fill-rule:nonzero;fill:rgb(0%,0%,0%);fill-opacity:1;" d="M 9.039062 27.359375 C 9.058594 27.28125 9.097656 27.183594 9.097656 27.085938 C 9.097656 26.910156 8.902344 26.910156 8.863281 26.910156 C 8.863281 26.910156 7.984375 26.988281 7.886719 26.988281 C 7.574219 27.007812 7.320312 27.046875 6.988281 27.066406 C 6.539062 27.105469 6.421875 27.125 6.421875 27.4375 C 6.421875 27.632812 6.558594 27.632812 6.8125 27.632812 C 7.691406 27.632812 7.710938 27.789062 7.710938 27.964844 C 7.710938 28.082031 7.671875 28.21875 7.652344 28.277344 L 6.558594 32.632812 C 6.363281 32.164062 5.875 31.441406 4.9375 31.441406 C 2.925781 31.441406 0.738281 34.058594 0.738281 36.714844 C 0.738281 38.492188 1.773438 39.527344 2.984375 39.527344 C 3.980469 39.527344 4.820312 38.765625 5.328125 38.160156 C 5.503906 39.234375 6.34375 39.527344 6.890625 39.527344 C 7.417969 39.527344 7.847656 39.214844 8.179688 38.570312 C 8.453125 37.945312 8.707031 36.851562 8.707031 36.792969 C 8.707031 36.695312 8.648438 36.617188 8.53125 36.617188 C 8.375 36.617188 8.355469 36.714844 8.277344 36.988281 C 8.003906 38.042969 7.671875 39.175781 6.929688 39.175781 C 6.421875 39.175781 6.382812 38.707031 6.382812 38.355469 C 6.382812 38.277344 6.382812 37.90625 6.5 37.398438 Z M 5.40625 37.222656 C 5.328125 37.515625 5.328125 37.554688 5.074219 37.90625 C 4.683594 38.394531 3.882812 39.175781 3.042969 39.175781 C 2.320312 39.175781 1.890625 38.511719 1.890625 37.457031 C 1.890625 36.460938 2.457031 34.449219 2.789062 33.707031 C 3.414062 32.457031 4.253906 31.8125 4.9375 31.8125 C 6.128906 31.8125 6.363281 33.277344 6.363281 33.414062 C 6.363281 33.433594 6.304688 33.667969 6.285156 33.707031 Z M 5.40625 37.222656 "/>
<path style=" stroke:none;fill-rule:nonzero;fill:rgb(0%,0%,0%);fill-opacity:1;" d="M 17.660156 32.027344 C 17.09375 32.144531 16.878906 32.574219 16.878906 32.90625 C 16.878906 33.335938 17.210938 33.492188 17.464844 33.492188 C 18.011719 33.492188 18.382812 33.023438 18.382812 32.535156 C 18.382812 31.792969 17.523438 31.441406 16.761719 31.441406 C 15.667969 31.441406 15.0625 32.515625 14.90625 32.867188 C 14.496094 31.519531 13.382812 31.441406 13.050781 31.441406 C 11.234375 31.441406 10.257812 33.785156 10.257812 34.195312 C 10.257812 34.253906 10.335938 34.351562 10.453125 34.351562 C 10.589844 34.351562 10.628906 34.234375 10.667969 34.175781 C 11.273438 32.183594 12.484375 31.8125 12.992188 31.8125 C 13.8125 31.8125 13.96875 32.554688 13.96875 32.984375 C 13.96875 33.375 13.871094 33.785156 13.636719 34.644531 L 13.03125 37.105469 C 12.777344 38.179688 12.25 39.175781 11.292969 39.175781 C 11.214844 39.175781 10.765625 39.175781 10.375 38.941406 C 11.019531 38.804688 11.175781 38.277344 11.175781 38.0625 C 11.175781 37.710938 10.902344 37.496094 10.570312 37.496094 C 10.140625 37.496094 9.671875 37.867188 9.671875 38.433594 C 9.671875 39.195312 10.511719 39.527344 11.273438 39.527344 C 12.132812 39.527344 12.757812 38.84375 13.128906 38.121094 C 13.421875 39.175781 14.300781 39.527344 14.964844 39.527344 C 16.800781 39.527344 17.777344 37.183594 17.777344 36.792969 C 17.777344 36.695312 17.699219 36.617188 17.582031 36.617188 C 17.425781 36.617188 17.40625 36.714844 17.367188 36.851562 C 16.878906 38.433594 15.824219 39.175781 15.023438 39.175781 C 14.398438 39.175781 14.066406 38.707031 14.066406 37.964844 C 14.066406 37.574219 14.125 37.28125 14.417969 36.109375 L 15.042969 33.667969 C 15.316406 32.59375 15.921875 31.8125 16.742188 31.8125 C 16.78125 31.8125 17.289062 31.8125 17.660156 32.027344 Z M 17.660156 32.027344 "/>
<path style=" stroke:none;fill-rule:nonzero;fill:rgb(0%,0%,0%);fill-opacity:1;" d="M 20.796875 33.144531 L 22.125 31.855469 C 24.058594 30.136719 24.800781 29.472656 24.800781 28.222656 C 24.800781 26.796875 23.6875 25.800781 22.164062 25.800781 C 20.757812 25.800781 19.839844 26.953125 19.839844 28.066406 C 19.839844 28.75 20.464844 28.75 20.503906 28.75 C 20.71875 28.75 21.148438 28.613281 21.148438 28.085938 C 21.148438 27.773438 20.914062 27.441406 20.484375 27.441406 C 20.386719 27.441406 20.367188 27.441406 20.328125 27.460938 C 20.601562 26.640625 21.285156 26.191406 22.007812 26.191406 C 23.140625 26.191406 23.667969 27.207031 23.667969 28.222656 C 23.667969 29.21875 23.0625 30.195312 22.359375 30.976562 L 19.976562 33.632812 C 19.839844 33.769531 19.839844 33.808594 19.839844 34.101562 L 24.46875 34.101562 L 24.800781 31.933594 L 24.507812 31.933594 C 24.429688 32.304688 24.351562 32.851562 24.214844 33.046875 C 24.136719 33.144531 23.316406 33.144531 23.042969 33.144531 Z M 20.796875 33.144531 "/>
<path style=" stroke:none;fill-rule:nonzero;fill:rgb(0%,0%,0%);fill-opacity:1;" d="M 44.523438 21.25 C 44.777344 21.25 45.089844 21.25 45.089844 20.917969 C 45.089844 20.585938 44.777344 20.585938 44.523438 20.585938 L 33.957031 20.585938 C 33.703125 20.585938 33.390625 20.585938 33.390625 20.898438 C 33.390625 21.25 33.683594 21.25 33.957031 21.25 Z M 44.523438 24.570312 C 44.777344 24.570312 45.089844 24.570312 45.089844 24.257812 C 45.089844 23.90625 44.777344 23.90625 44.523438 23.90625 L 33.957031 23.90625 C 33.703125 23.90625 33.390625 23.90625 33.390625 24.238281 C 33.390625 24.570312 33.683594 24.570312 33.957031 24.570312 Z M 44.523438 24.570312 "/>
<path style=" stroke:none;fill-rule:nonzero;fill:rgb(0%,0%,0%);fill-opacity:1;" d="M 106.273438 3.417969 C 106.273438 2.988281 106.273438 2.988281 105.921875 2.988281 C 105.492188 3.457031 104.59375 4.121094 102.757812 4.121094 L 102.757812 4.648438 C 103.167969 4.648438 104.066406 4.648438 105.042969 4.179688 L 105.042969 13.515625 C 105.042969 14.160156 104.984375 14.375 103.421875 14.375 L 102.855469 14.375 L 102.855469 14.902344 C 103.34375 14.863281 105.082031 14.863281 105.667969 14.863281 C 106.253906 14.863281 107.992188 14.863281 108.460938 14.902344 L 108.460938 14.375 L 107.914062 14.375 C 106.332031 14.375 106.273438 14.160156 106.273438 13.515625 Z M 106.273438 3.417969 "/>
<path style=" stroke:none;fill-rule:nonzero;fill:rgb(0%,0%,0%);fill-opacity:1;" d="M 52.652344 22.113281 L 158.402344 22.113281 L 158.402344 22.867188 L 52.652344 22.867188 Z M 52.652344 22.113281 "/>
<path style=" stroke:none;fill-rule:nonzero;fill:rgb(0%,0%,0%);fill-opacity:1;" d="M 58.054688 37.222656 C 57.976562 37.515625 57.976562 37.554688 57.722656 37.90625 C 57.332031 38.394531 56.53125 39.175781 55.691406 39.175781 C 54.96875 39.175781 54.539062 38.511719 54.539062 37.457031 C 54.539062 36.460938 55.105469 34.449219 55.4375 33.707031 C 56.0625 32.457031 56.902344 31.8125 57.585938 31.8125 C 58.777344 31.8125 59.011719 33.277344 59.011719 33.414062 C 59.011719 33.433594 58.953125 33.667969 58.933594 33.707031 Z M 59.207031 32.632812 C 59.011719 32.164062 58.523438 31.441406 57.585938 31.441406 C 55.574219 31.441406 53.386719 34.058594 53.386719 36.714844 C 53.386719 38.492188 54.421875 39.527344 55.632812 39.527344 C 56.628906 39.527344 57.46875 38.765625 57.976562 38.160156 C 58.152344 39.234375 58.992188 39.527344 59.539062 39.527344 C 60.066406 39.527344 60.496094 39.214844 60.828125 38.570312 C 61.101562 37.945312 61.355469 36.851562 61.355469 36.792969 C 61.355469 36.695312 61.296875 36.617188 61.179688 36.617188 C 61.023438 36.617188 61.003906 36.714844 60.925781 36.988281 C 60.652344 38.042969 60.320312 39.175781 59.578125 39.175781 C 59.070312 39.175781 59.03125 38.707031 59.03125 38.355469 C 59.03125 37.925781 59.089844 37.730469 59.246094 37.046875 C 59.363281 36.597656 59.460938 36.1875 59.597656 35.679688 C 60.261719 32.984375 60.417969 32.339844 60.417969 32.242188 C 60.417969 31.988281 60.222656 31.792969 59.96875 31.792969 C 59.382812 31.792969 59.246094 32.417969 59.207031 32.632812 Z M 59.207031 32.632812 "/>
<path style=" stroke:none;fill-rule:nonzero;fill:rgb(0%,0%,0%);fill-opacity:1;" d="M 69.304688 34.878906 C 69.304688 34.351562 68.875 33.921875 68.367188 33.921875 C 67.835938 33.921875 67.40625 34.351562 67.40625 34.878906 C 67.40625 35.386719 67.835938 35.816406 68.367188 35.816406 C 68.875 35.816406 69.304688 35.386719 69.304688 34.878906 Z M 69.304688 34.878906 "/>
<path style=" stroke:none;fill-rule:nonzero;fill:rgb(0%,0%,0%);fill-opacity:1;" d="M 80.59375 31.773438 C 80.59375 31.441406 80.59375 31.363281 80.417969 31.363281 C 80.28125 31.363281 79.929688 31.753906 79.8125 31.910156 C 79.246094 31.460938 78.699219 31.363281 78.113281 31.363281 C 75.945312 31.363281 75.300781 32.535156 75.300781 33.53125 C 75.300781 33.726562 75.300781 34.351562 75.984375 34.976562 C 76.570312 35.484375 77.175781 35.601562 77.996094 35.757812 C 78.972656 35.953125 79.207031 36.011719 79.65625 36.382812 C 79.988281 36.636719 80.222656 37.046875 80.222656 37.535156 C 80.222656 38.316406 79.773438 39.175781 78.191406 39.175781 C 77.019531 39.175781 76.140625 38.492188 75.75 36.695312 C 75.691406 36.382812 75.691406 36.363281 75.671875 36.34375 C 75.632812 36.265625 75.554688 36.265625 75.496094 36.265625 C 75.300781 36.265625 75.300781 36.363281 75.300781 36.675781 L 75.300781 39.117188 C 75.300781 39.449219 75.300781 39.527344 75.476562 39.527344 C 75.574219 39.527344 75.59375 39.507812 75.90625 39.136719 C 75.984375 39.019531 75.984375 38.980469 76.257812 38.6875 C 76.941406 39.527344 77.898438 39.527344 78.210938 39.527344 C 80.085938 39.527344 81.023438 38.492188 81.023438 37.066406 C 81.023438 36.109375 80.4375 35.523438 80.28125 35.367188 C 79.636719 34.820312 79.148438 34.703125 77.957031 34.488281 C 77.429688 34.390625 76.121094 34.136719 76.121094 33.0625 C 76.121094 32.496094 76.492188 31.675781 78.113281 31.675781 C 80.066406 31.675781 80.164062 33.335938 80.203125 33.902344 C 80.222656 34.039062 80.339844 34.039062 80.398438 34.039062 C 80.59375 34.039062 80.59375 33.960938 80.59375 33.628906 Z M 80.59375 31.773438 "/>
<path style=" stroke:none;fill-rule:nonzero;fill:rgb(0%,0%,0%);fill-opacity:1;" d="M 84.742188 28.316406 C 84.742188 27.847656 84.351562 27.4375 83.863281 27.4375 C 83.394531 27.4375 83.003906 27.808594 83.003906 28.296875 C 83.003906 28.824219 83.433594 29.175781 83.863281 29.175781 C 84.410156 29.175781 84.742188 28.707031 84.742188 28.316406 Z M 82.261719 31.636719 L 82.261719 32.164062 C 83.414062 32.164062 83.570312 32.261719 83.570312 33.140625 L 83.570312 38.023438 C 83.570312 38.824219 83.375 38.824219 82.203125 38.824219 L 82.203125 39.351562 C 82.710938 39.3125 83.570312 39.3125 84.097656 39.3125 C 84.292969 39.3125 85.328125 39.3125 85.933594 39.351562 L 85.933594 38.824219 C 84.78125 38.824219 84.703125 38.746094 84.703125 38.042969 L 84.703125 31.441406 Z M 82.261719 31.636719 "/>
<path style=" stroke:none;fill-rule:nonzero;fill:rgb(0%,0%,0%);fill-opacity:1;" d="M 94.554688 34.996094 C 94.554688 33.335938 94.554688 32.828125 94.125 32.242188 C 93.617188 31.558594 92.777344 31.441406 92.152344 31.441406 C 90.414062 31.441406 89.730469 32.925781 89.59375 33.296875 L 89.574219 33.296875 L 89.574219 31.441406 L 87.132812 31.636719 L 87.132812 32.164062 C 88.363281 32.164062 88.5 32.28125 88.5 33.160156 L 88.5 38.023438 C 88.5 38.824219 88.304688 38.824219 87.132812 38.824219 L 87.132812 39.351562 C 87.601562 39.3125 88.578125 39.3125 89.085938 39.3125 C 89.59375 39.3125 90.570312 39.3125 91.039062 39.351562 L 91.039062 38.824219 C 89.886719 38.824219 89.671875 38.824219 89.671875 38.023438 L 89.671875 34.683594 C 89.671875 32.808594 90.902344 31.8125 92.015625 31.8125 C 93.128906 31.8125 93.382812 32.710938 93.382812 33.804688 L 93.382812 38.023438 C 93.382812 38.824219 93.1875 38.824219 92.015625 38.824219 L 92.015625 39.351562 C 92.484375 39.3125 93.460938 39.3125 93.949219 39.3125 C 94.476562 39.3125 95.433594 39.3125 95.902344 39.351562 L 95.902344 38.824219 C 95.003906 38.824219 94.554688 38.824219 94.554688 38.296875 Z M 94.554688 34.996094 "/>
<path style=" stroke:none;fill-rule:nonzero;fill:rgb(0%,0%,0%);fill-opacity:1;" d="M 102.929688 32.144531 L 104.570312 32.144531 C 104.902344 32.144531 105.097656 32.144531 105.097656 31.8125 C 105.097656 31.617188 104.980469 31.617188 104.628906 31.617188 L 103.046875 31.617188 L 103.710938 29 C 103.789062 28.746094 103.789062 28.726562 103.789062 28.589844 C 103.789062 28.316406 103.554688 28.140625 103.320312 28.140625 C 103.164062 28.140625 102.753906 28.199219 102.617188 28.765625 L 101.914062 31.617188 L 100.234375 31.617188 C 99.863281 31.617188 99.707031 31.617188 99.707031 31.96875 C 99.707031 32.144531 99.84375 32.144531 100.175781 32.144531 L 101.777344 32.144531 L 100.585938 36.871094 C 100.449219 37.496094 100.390625 37.691406 100.390625 37.925781 C 100.390625 38.765625 100.976562 39.527344 101.992188 39.527344 C 103.789062 39.527344 104.765625 36.910156 104.765625 36.792969 C 104.765625 36.675781 104.6875 36.617188 104.589844 36.617188 C 104.550781 36.617188 104.472656 36.617188 104.453125 36.695312 C 104.433594 36.714844 104.414062 36.734375 104.277344 37.027344 C 103.90625 37.925781 103.085938 39.175781 102.050781 39.175781 C 101.503906 39.175781 101.464844 38.726562 101.464844 38.335938 C 101.464844 38.316406 101.464844 37.964844 101.523438 37.75 Z M 102.929688 32.144531 "/>
<path style=" stroke:none;fill-rule:nonzero;fill:rgb(0%,0%,0%);fill-opacity:1;" d="M 113.101562 34.878906 C 113.101562 34.351562 112.671875 33.921875 112.164062 33.921875 C 111.636719 33.921875 111.207031 34.351562 111.207031 34.878906 C 111.207031 35.386719 111.636719 35.816406 112.164062 35.816406 C 112.671875 35.816406 113.101562 35.386719 113.101562 34.878906 Z M 113.101562 34.878906 "/>
<path style=" stroke:none;fill-rule:nonzero;fill:rgb(0%,0%,0%);fill-opacity:1;" d="M 124.542969 31.773438 C 124.542969 31.441406 124.542969 31.363281 124.367188 31.363281 C 124.230469 31.363281 123.878906 31.753906 123.761719 31.910156 C 123.195312 31.460938 122.648438 31.363281 122.0625 31.363281 C 119.894531 31.363281 119.25 32.535156 119.25 33.53125 C 119.25 33.726562 119.25 34.351562 119.933594 34.976562 C 120.519531 35.484375 121.125 35.601562 121.945312 35.757812 C 122.921875 35.953125 123.15625 36.011719 123.605469 36.382812 C 123.9375 36.636719 124.171875 37.046875 124.171875 37.535156 C 124.171875 38.316406 123.722656 39.175781 122.140625 39.175781 C 120.96875 39.175781 120.089844 38.492188 119.699219 36.695312 C 119.640625 36.382812 119.640625 36.363281 119.621094 36.34375 C 119.582031 36.265625 119.503906 36.265625 119.445312 36.265625 C 119.25 36.265625 119.25 36.363281 119.25 36.675781 L 119.25 39.117188 C 119.25 39.449219 119.25 39.527344 119.425781 39.527344 C 119.523438 39.527344 119.542969 39.507812 119.855469 39.136719 C 119.933594 39.019531 119.933594 38.980469 120.207031 38.6875 C 120.890625 39.527344 121.847656 39.527344 122.160156 39.527344 C 124.035156 39.527344 124.972656 38.492188 124.972656 37.066406 C 124.972656 36.109375 124.386719 35.523438 124.230469 35.367188 C 123.585938 34.820312 123.097656 34.703125 121.90625 34.488281 C 121.378906 34.390625 120.070312 34.136719 120.070312 33.0625 C 120.070312 32.496094 120.441406 31.675781 122.0625 31.675781 C 124.015625 31.675781 124.113281 33.335938 124.152344 33.902344 C 124.171875 34.039062 124.289062 34.039062 124.347656 34.039062 C 124.542969 34.039062 124.542969 33.960938 124.542969 33.628906 Z M 124.542969 31.773438 "/>
<path style=" stroke:none;fill-rule:nonzero;fill:rgb(0%,0%,0%);fill-opacity:1;" d="M 128.691406 28.316406 C 128.691406 27.847656 128.300781 27.4375 127.8125 27.4375 C 127.34375 27.4375 126.953125 27.808594 126.953125 28.296875 C 126.953125 28.824219 127.382812 29.175781 127.8125 29.175781 C 128.359375 29.175781 128.691406 28.707031 128.691406 28.316406 Z M 126.210938 31.636719 L 126.210938 32.164062 C 127.363281 32.164062 127.519531 32.261719 127.519531 33.140625 L 127.519531 38.023438 C 127.519531 38.824219 127.324219 38.824219 126.152344 38.824219 L 126.152344 39.351562 C 126.660156 39.3125 127.519531 39.3125 128.046875 39.3125 C 128.242188 39.3125 129.277344 39.3125 129.882812 39.351562 L 129.882812 38.824219 C 128.730469 38.824219 128.652344 38.746094 128.652344 38.042969 L 128.652344 31.441406 Z M 126.210938 31.636719 "/>
<path style=" stroke:none;fill-rule:nonzero;fill:rgb(0%,0%,0%);fill-opacity:1;" d="M 138.503906 34.996094 C 138.503906 33.335938 138.503906 32.828125 138.074219 32.242188 C 137.566406 31.558594 136.726562 31.441406 136.101562 31.441406 C 134.363281 31.441406 133.679688 32.925781 133.542969 33.296875 L 133.523438 33.296875 L 133.523438 31.441406 L 131.082031 31.636719 L 131.082031 32.164062 C 132.3125 32.164062 132.449219 32.28125 132.449219 33.160156 L 132.449219 38.023438 C 132.449219 38.824219 132.253906 38.824219 131.082031 38.824219 L 131.082031 39.351562 C 131.550781 39.3125 132.527344 39.3125 133.035156 39.3125 C 133.542969 39.3125 134.519531 39.3125 134.988281 39.351562 L 134.988281 38.824219 C 133.835938 38.824219 133.621094 38.824219 133.621094 38.023438 L 133.621094 34.683594 C 133.621094 32.808594 134.851562 31.8125 135.964844 31.8125 C 137.078125 31.8125 137.332031 32.710938 137.332031 33.804688 L 137.332031 38.023438 C 137.332031 38.824219 137.136719 38.824219 135.964844 38.824219 L 135.964844 39.351562 C 136.433594 39.3125 137.410156 39.3125 137.898438 39.3125 C 138.425781 39.3125 139.382812 39.3125 139.851562 39.351562 L 139.851562 38.824219 C 138.953125 38.824219 138.503906 38.824219 138.503906 38.296875 Z M 138.503906 34.996094 "/>
<path style=" stroke:none;fill-rule:nonzero;fill:rgb(0%,0%,0%);fill-opacity:1;" d="M 151.007812 36.34375 L 150.617188 36.34375 C 150.558594 36.636719 150.421875 37.632812 150.226562 37.925781 C 150.109375 38.082031 149.09375 38.082031 148.546875 38.082031 L 145.226562 38.082031 C 145.714844 37.671875 146.808594 36.519531 147.277344 36.089844 C 150.011719 33.570312 151.007812 32.652344 151.007812 30.875 C 151.007812 28.804688 149.367188 27.4375 147.296875 27.4375 C 145.207031 27.4375 143.996094 29.195312 143.996094 30.738281 C 143.996094 31.65625 144.777344 31.65625 144.835938 31.65625 C 145.207031 31.65625 145.675781 31.382812 145.675781 30.816406 C 145.675781 30.308594 145.34375 29.976562 144.835938 29.976562 C 144.679688 29.976562 144.640625 29.976562 144.582031 29.996094 C 144.933594 28.765625 145.890625 27.945312 147.0625 27.945312 C 148.585938 27.945312 149.523438 29.214844 149.523438 30.875 C 149.523438 32.398438 148.644531 33.726562 147.609375 34.878906 L 143.996094 38.921875 L 143.996094 39.351562 L 150.539062 39.351562 Z M 151.007812 36.34375 "/>
<path style=" stroke:none;fill-rule:nonzero;fill:rgb(0%,0%,0%);fill-opacity:1;" d="M 155.578125 32.144531 L 157.21875 32.144531 C 157.550781 32.144531 157.746094 32.144531 157.746094 31.8125 C 157.746094 31.617188 157.628906 31.617188 157.277344 31.617188 L 155.695312 31.617188 L 156.359375 29 C 156.4375 28.746094 156.4375 28.726562 156.4375 28.589844 C 156.4375 28.316406 156.203125 28.140625 155.96875 28.140625 C 155.8125 28.140625 155.402344 28.199219 155.265625 28.765625 L 154.5625 31.617188 L 152.882812 31.617188 C 152.511719 31.617188 152.355469 31.617188 152.355469 31.96875 C 152.355469 32.144531 152.492188 32.144531 152.824219 32.144531 L 154.425781 32.144531 L 153.234375 36.871094 C 153.097656 37.496094 153.039062 37.691406 153.039062 37.925781 C 153.039062 38.765625 153.625 39.527344 154.640625 39.527344 C 156.4375 39.527344 157.414062 36.910156 157.414062 36.792969 C 157.414062 36.675781 157.335938 36.617188 157.238281 36.617188 C 157.199219 36.617188 157.121094 36.617188 157.101562 36.695312 C 157.082031 36.714844 157.0625 36.734375 156.925781 37.027344 C 156.554688 37.925781 155.734375 39.175781 154.699219 39.175781 C 154.152344 39.175781 154.113281 38.726562 154.113281 38.335938 C 154.113281 38.316406 154.113281 37.964844 154.171875 37.75 Z M 155.578125 32.144531 "/>
</g>
</svg>
